{
    "mood": "happy",
    "instruments": {
        "Vibraphone": [
            {
                "start_time": 0.0159091,
                "end_time": 0.6022727,
                "pitch": 64,
                "velocity": 64,
                "duration": 0.5863636,
                "tempo": 120.0
            },
            {
                "start_time": 0.6181818,
                "end_time": 1.2113636,
                "pitch": 67,
                "velocity": 64,
                "duration": 0.5931818,
                "tempo": 120.0
            },
            {
                "start_time": 1.2272727,
                "end_time": 1.6409091,
                "pitch": 72,
                "velocity": 64,
                "duration": 0.4136364,
                "tempo": 120.0
            },
            {
                "start_time": 1.6568182,
                "end_time": 2.2659091,
                "pitch": 64,
                "velocity": 64,
                "duration": 0.6090909,
                "tempo": 120.0
            },
            {
                "start_time": 2.2818182,
                "end_time": 2.8886364,
                "pitch": 67,
                "velocity": 64,
                "duration": 0.6068182,
                "tempo": 120.0
            },
            {
                "start_time": 2.9045455,
                "end_time": 3.3068182,
                "pitch": 72,
                "velocity": 64,
                "duration": 0.4022727,
                "tempo": 120.0
            },
            {
                "start_time": 3.3227273,
                "end_time": 3.7181818,
                "pitch": 72,
                "velocity": 64,
                "duration": 0.3954545,
                "tempo": 120.0
            },
            {
                "start_time": 3.7363636,
                "end_time": 4.1272727,
                "pitch": 76,
                "velocity": 64,
                "duration": 0.3909091,
                "tempo": 120.0
            },
            {
                "start_time": 4.1454545,
                "end_time": 4.3454545,
                "pitch": 74,
                "velocity": 64,
                "duration": 0.2,
                "tempo": 120.0
            },
            {
                "start_time": 4.3613636,
                "end_time": 4.7522727,
                "pitch": 72,
                "velocity": 64,
                "duration": 0.3909091,
                "tempo": 120.0
            },
            {
                "start_time": 4.7681818,
                "end_time": 5.4045455,
                "pitch": 69,
                "velocity": 64,
                "duration": 0.6363636,
                "tempo": 120.0
            },
            {
                "start_time": 5.4204545,
                "end_time": 5.8045455,
                "pitch": 69,
                "velocity": 64,
                "duration": 0.3840909,
                "tempo": 120.0
            },
            {
                "start_time": 5.8227273,
                "end_time": 6.2113636,
                "pitch": 71,
                "velocity": 64,
                "duration": 0.3886364,
                "tempo": 120.0
            },
            {
                "start_time": 6.2295455,
                "end_time": 6.6409091,
                "pitch": 72,
                "velocity": 64,
                "duration": 0.4113636,
                "tempo": 120.0
            },
            {
                "start_time": 6.6590909,
                "end_time": 7.2772727,
                "pitch": 65,
                "velocity": 64,
                "duration": 0.6181818,
                "tempo": 120.0
            },
            {
                "start_time": 7.2931818,
                "end_time": 7.8931818,
                "pitch": 72,
                "velocity": 64,
                "duration": 0.6,
                "tempo": 120.0
            },
            {
                "start_time": 7.9090909,
                "end_time": 8.3113636,
                "pitch": 74,
                "velocity": 64,
                "duration": 0.4022727,
                "tempo": 120.0
            },
            {
                "start_time": 8.3272727,
                "end_time": 8.9409091,
                "pitch": 65,
                "velocity": 64,
                "duration": 0.6136364,
                "tempo": 120.0
            },
            {
                "start_time": 8.9568182,
                "end_time": 9.5681818,
                "pitch": 69,
                "velocity": 64,
                "duration": 0.6113636,
                "tempo": 120.0
            },
            {
                "start_time": 9.5863636,
                "end_time": 9.9795455,
                "pitch": 74,
                "velocity": 64,
                "duration": 0.3931818,
                "tempo": 120.0
            },
            {
                "start_time": 9.9954545,
                "end_time": 10.4068182,
                "pitch": 67,
                "velocity": 64,
                "duration": 0.4113636,
                "tempo": 120.0
            },
            {
                "start_time": 10.425,
                "end_time": 10.8363636,
                "pitch": 79,
                "velocity": 64,
                "duration": 0.4113636,
                "tempo": 120.0
            },
            {
                "start_time": 10.8545455,
                "end_time": 11.0386364,
                "pitch": 77,
                "velocity": 64,
                "duration": 0.1840909,
                "tempo": 120.0
            },
            {
                "start_time": 11.0545455,
                "end_time": 11.4522727,
                "pitch": 76,
                "velocity": 64,
                "duration": 0.3977273,
                "tempo": 120.0
            },
            {
                "start_time": 11.4681818,
                "end_time": 12.0659091,
                "pitch": 74,
                "velocity": 64,
                "duration": 0.5977273,
                "tempo": 120.0
            },
            {
                "start_time": 12.0818182,
                "end_time": 12.4954545,
                "pitch": 74,
                "velocity": 64,
                "duration": 0.4136364,
                "tempo": 120.0
            },
            {
                "start_time": 12.5113636,
                "end_time": 12.9068182,
                "pitch": 76,
                "velocity": 64,
                "duration": 0.3954545,
                "tempo": 120.0
            },
            {
                "start_time": 12.9227273,
                "end_time": 13.3136364,
                "pitch": 77,
                "velocity": 64,
                "duration": 0.3909091,
                "tempo": 120.0
            },
            {
                "start_time": 13.3295455,
                "end_time": 13.9477273,
                "pitch": 64,
                "velocity": 64,
                "duration": 0.6181818,
                "tempo": 120.0
            },
            {
                "start_time": 13.9659091,
                "end_time": 14.5909091,
                "pitch": 67,
                "velocity": 64,
                "duration": 0.625,
                "tempo": 120.0
            },
            {
                "start_time": 14.6068182,
                "end_time": 15.0022727,
                "pitch": 72,
                "velocity": 64,
                "duration": 0.3954545,
                "tempo": 120.0
            },
            {
                "start_time": 15.0181818,
                "end_time": 15.6113636,
                "pitch": 64,
                "velocity": 64,
                "duration": 0.5931818,
                "tempo": 120.0
            },
            {
                "start_time": 15.6454545,
                "end_time": 16.2477273,
                "pitch": 67,
                "velocity": 64,
                "duration": 0.6022727,
                "tempo": 120.0
            },
            {
                "start_time": 16.2636364,
                "end_time": 16.6681818,
                "pitch": 72,
                "velocity": 64,
                "duration": 0.4045455,
                "tempo": 120.0
            },
            {
                "start_time": 16.6840909,
                "end_time": 17.075,
                "pitch": 72,
                "velocity": 64,
                "duration": 0.3909091,
                "tempo": 120.0
            },
            {
                "start_time": 17.0909091,
                "end_time": 17.5045455,
                "pitch": 76,
                "velocity": 64,
                "duration": 0.4136364,
                "tempo": 120.0
            },
            {
                "start_time": 17.5204545,
                "end_time": 17.6977273,
                "pitch": 74,
                "velocity": 64,
                "duration": 0.1772727,
                "tempo": 120.0
            },
            {
                "start_time": 17.7159091,
                "end_time": 18.1204545,
                "pitch": 72,
                "velocity": 64,
                "duration": 0.4045455,
                "tempo": 120.0
            },
            {
                "start_time": 18.1363636,
                "end_time": 18.75,
                "pitch": 69,
                "velocity": 64,
                "duration": 0.6136364,
                "tempo": 120.0
            },
            {
                "start_time": 18.7659091,
                "end_time": 19.1568182,
                "pitch": 69,
                "velocity": 64,
                "duration": 0.3909091,
                "tempo": 120.0
            },
            {
                "start_time": 19.1727273,
                "end_time": 19.5840909,
                "pitch": 71,
                "velocity": 64,
                "duration": 0.4113636,
                "tempo": 120.0
            },
            {
                "start_time": 19.6022727,
                "end_time": 20.0136364,
                "pitch": 72,
                "velocity": 64,
                "duration": 0.4113636,
                "tempo": 120.0
            },
            {
                "start_time": 20.0318182,
                "end_time": 20.6318182,
                "pitch": 65,
                "velocity": 64,
                "duration": 0.6,
                "tempo": 120.0
            },
            {
                "start_time": 20.65,
                "end_time": 21.25,
                "pitch": 69,
                "velocity": 64,
                "duration": 0.6,
                "tempo": 120.0
            },
            {
                "start_time": 21.2681818,
                "end_time": 21.6795455,
                "pitch": 74,
                "velocity": 64,
                "duration": 0.4113636,
                "tempo": 120.0
            },
            {
                "start_time": 21.6954545,
                "end_time": 21.8795455,
                "pitch": 67,
                "velocity": 64,
                "duration": 0.1840909,
                "tempo": 120.0
            },
            {
                "start_time": 22.3204545,
                "end_time": 22.5090909,
                "pitch": 67,
                "velocity": 64,
                "duration": 0.1886364,
                "tempo": 120.0
            },
            {
                "start_time": 22.9363636,
                "end_time": 23.3477273,
                "pitch": 67,
                "velocity": 64,
                "duration": 0.4113636,
                "tempo": 120.0
            },
            {
                "start_time": 23.3659091,
                "end_time": 23.5477273,
                "pitch": 72,
                "velocity": 64,
                "duration": 0.1818182,
                "tempo": 120.0
            },
            {
                "start_time": 23.5659091,
                "end_time": 23.7659091,
                "pitch": 72,
                "velocity": 64,
                "duration": 0.2,
                "tempo": 120.0
            },
            {
                "start_time": 23.7818182,
                "end_time": 23.9659091,
                "pitch": 72,
                "velocity": 64,
                "duration": 0.1840909,
                "tempo": 120.0
            },
            {
                "start_time": 23.9840909,
                "end_time": 24.1659091,
                "pitch": 72,
                "velocity": 64,
                "duration": 0.1818182,
                "tempo": 120.0
            },
            {
                "start_time": 24.4,
                "end_time": 24.5840909,
                "pitch": 72,
                "velocity": 64,
                "duration": 0.1840909,
                "tempo": 120.0
            },
            {
                "start_time": 24.825,
                "end_time": 25.0136364,
                "pitch": 72,
                "velocity": 64,
                "duration": 0.1886364,
                "tempo": 120.0
            },
            {
                "start_time": 25.2318182,
                "end_time": 25.4318182,
                "pitch": 72,
                "velocity": 64,
                "duration": 0.2,
                "tempo": 120.0
            },
            {
                "start_time": 25.6545455,
                "end_time": 25.8431818,
                "pitch": 72,
                "velocity": 64,
                "duration": 0.1886364,
                "tempo": 120.0
            },
            {
                "start_time": 25.8613636,
                "end_time": 26.0613636,
                "pitch": 72,
                "velocity": 64,
                "duration": 0.2,
                "tempo": 120.0
            },
            {
                "start_time": 26.0772727,
                "end_time": 26.2613636,
                "pitch": 72,
                "velocity": 64,
                "duration": 0.1840909,
                "tempo": 120.0
            },
            {
                "start_time": 26.2772727,
                "end_time": 26.4795455,
                "pitch": 72,
                "velocity": 64,
                "duration": 0.2022727,
                "tempo": 120.0
            },
            {
                "start_time": 26.4954545,
                "end_time": 26.6795455,
                "pitch": 72,
                "velocity": 64,
                "duration": 0.1840909,
                "tempo": 120.0
            }
        ],
        "Acoustic Bass": [
            {
                "start_time": 0.0,
                "end_time": 0.1886364,
                "pitch": 36,
                "velocity": 64,
                "duration": 0.1886364,
                "tempo": 120.0
            },
            {
                "start_time": 0.6181818,
                "end_time": 0.7931818,
                "pitch": 36,
                "velocity": 64,
                "duration": 0.175,
                "tempo": 120.0
            },
            {
                "start_time": 1.6568182,
                "end_time": 1.8454545,
                "pitch": 36,
                "velocity": 64,
                "duration": 0.1886364,
                "tempo": 120.0
            },
            {
                "start_time": 2.2818182,
                "end_time": 2.4590909,
                "pitch": 36,
                "velocity": 64,
                "duration": 0.1772727,
                "tempo": 120.0
            },
            {
                "start_time": 2.7,
                "end_time": 2.8886364,
                "pitch": 36,
                "velocity": 64,
                "duration": 0.1886364,
                "tempo": 120.0
            },
            {
                "start_time": 2.9045455,
                "end_time": 3.0886364,
                "pitch": 38,
                "velocity": 64,
                "duration": 0.1840909,
                "tempo": 120.0
            },
            {
                "start_time": 3.1068182,
                "end_time": 3.3068182,
                "pitch": 40,
                "velocity": 64,
                "duration": 0.2,
                "tempo": 120.0
            },
            {
                "start_time": 3.3227273,
                "end_time": 3.5113636,
                "pitch": 41,
                "velocity": 64,
                "duration": 0.1886364,
                "tempo": 120.0
            },
            {
                "start_time": 3.9477273,
                "end_time": 4.1272727,
                "pitch": 41,
                "velocity": 64,
                "duration": 0.1795455,
                "tempo": 120.0
            },
            {
                "start_time": 4.9909091,
                "end_time": 5.1818182,
                "pitch": 41,
                "velocity": 64,
                "duration": 0.1909091,
                "tempo": 120.0
            },
            {
                "start_time": 5.6227273,
                "end_time": 5.8045455,
                "pitch": 41,
                "velocity": 64,
                "duration": 0.1818182,
                "tempo": 120.0
            },
            {
                "start_time": 6.0340909,
                "end_time": 6.2113636,
                "pitch": 41,
                "velocity": 64,
                "duration": 0.1772727,
                "tempo": 120.0
            },
            {
                "start_time": 6.2295455,
                "end_time": 6.4181818,
                "pitch": 40,
                "velocity": 64,
                "duration": 0.1886364,
                "tempo": 120.0
            },
            {
                "start_time": 6.4340909,
                "end_time": 6.6409091,
                "pitch": 40,
                "velocity": 64,
                "duration": 0.2068182,
                "tempo": 120.0
            },
            {
                "start_time": 6.6590909,
                "end_time": 6.8477273,
                "pitch": 38,
                "velocity": 64,
                "duration": 0.1886364,
                "tempo": 120.0
            },
            {
                "start_time": 7.2931818,
                "end_time": 7.4818182,
                "pitch": 38,
                "velocity": 64,
                "duration": 0.1886364,
                "tempo": 120.0
            },
            {
                "start_time": 8.3272727,
                "end_time": 8.5159091,
                "pitch": 38,
                "velocity": 64,
                "duration": 0.1886364,
                "tempo": 120.0
            },
            {
                "start_time": 8.9568182,
                "end_time": 9.1409091,
                "pitch": 38,
                "velocity": 64,
                "duration": 0.1840909,
                "tempo": 120.0
            },
            {
                "start_time": 9.3795455,
                "end_time": 9.5681818,
                "pitch": 38,
                "velocity": 64,
                "duration": 0.1886364,
                "tempo": 120.0
            },
            {
                "start_time": 9.5863636,
                "end_time": 9.7818182,
                "pitch": 40,
                "velocity": 64,
                "duration": 0.1954545,
                "tempo": 120.0
            },
            {
                "start_time": 9.8,
                "end_time": 9.9795455,
                "pitch": 41,
                "velocity": 64,
                "duration": 0.1795455,
                "tempo": 120.0
            },
            {
                "start_time": 9.9954545,
                "end_time": 10.1840909,
                "pitch": 43,
                "velocity": 64,
                "duration": 0.1886364,
                "tempo": 120.0
            },
            {
                "start_time": 10.6318182,
                "end_time": 10.8363636,
                "pitch": 43,
                "velocity": 64,
                "duration": 0.2045455,
                "tempo": 120.0
            },
            {
                "start_time": 11.6636364,
                "end_time": 11.8659091,
                "pitch": 43,
                "velocity": 64,
                "duration": 0.2022727,
                "tempo": 120.0
            },
            {
                "start_time": 12.2886364,
                "end_time": 12.4954545,
                "pitch": 43,
                "velocity": 64,
                "duration": 0.2068182,
                "tempo": 120.0
            },
            {
                "start_time": 12.7181818,
                "end_time": 12.9068182,
                "pitch": 31,
                "velocity": 64,
                "duration": 0.1886364,
                "tempo": 120.0
            },
            {
                "start_time": 12.9227273,
                "end_time": 13.1181818,
                "pitch": 33,
                "velocity": 64,
                "duration": 0.1954545,
                "tempo": 120.0
            },
            {
                "start_time": 13.1340909,
                "end_time": 13.3136364,
                "pitch": 35,
                "velocity": 64,
                "duration": 0.1795455,
                "tempo": 120.0
            },
            {
                "start_time": 13.3295455,
                "end_time": 13.5363636,
                "pitch": 36,
                "velocity": 64,
                "duration": 0.2068182,
                "tempo": 120.0
            },
            {
                "start_time": 13.9659091,
                "end_time": 14.1727273,
                "pitch": 36,
                "velocity": 64,
                "duration": 0.2068182,
                "tempo": 120.0
            },
            {
                "start_time": 15.0181818,
                "end_time": 15.2159091,
                "pitch": 36,
                "velocity": 64,
                "duration": 0.1977273,
                "tempo": 120.0
            },
            {
                "start_time": 15.6454545,
                "end_time": 15.8295455,
                "pitch": 36,
                "velocity": 64,
                "duration": 0.1840909,
                "tempo": 120.0
            },
            {
                "start_time": 16.0454545,
                "end_time": 16.2477273,
                "pitch": 36,
                "velocity": 64,
                "duration": 0.2022727,
                "tempo": 120.0
            },
            {
                "start_time": 16.2636364,
                "end_time": 16.4568182,
                "pitch": 38,
                "velocity": 64,
                "duration": 0.1931818,
                "tempo": 120.0
            },
            {
                "start_time": 16.475,
                "end_time": 16.6681818,
                "pitch": 40,
                "velocity": 64,
                "duration": 0.1931818,
                "tempo": 120.0
            },
            {
                "start_time": 16.6840909,
                "end_time": 16.8795455,
                "pitch": 41,
                "velocity": 64,
                "duration": 0.1954545,
                "tempo": 120.0
            },
            {
                "start_time": 17.3136364,
                "end_time": 17.5045455,
                "pitch": 41,
                "velocity": 64,
                "duration": 0.1909091,
                "tempo": 120.0
            },
            {
                "start_time": 18.3659091,
                "end_time": 18.5477273,
                "pitch": 41,
                "velocity": 64,
                "duration": 0.1818182,
                "tempo": 120.0
            },
            {
                "start_time": 18.9772727,
                "end_time": 19.1568182,
                "pitch": 41,
                "velocity": 64,
                "duration": 0.1795455,
                "tempo": 120.0
            },
            {
                "start_time": 19.3772727,
                "end_time": 19.5840909,
                "pitch": 41,
                "velocity": 64,
                "duration": 0.2068182,
                "tempo": 120.0
            },
            {
                "start_time": 19.6022727,
                "end_time": 19.7909091,
                "pitch": 40,
                "velocity": 64,
                "duration": 0.1886364,
                "tempo": 120.0
            },
            {
                "start_time": 19.8068182,
                "end_time": 20.0136364,
                "pitch": 40,
                "velocity": 64,
                "duration": 0.2068182,
                "tempo": 120.0
            },
            {
                "start_time": 20.0318182,
                "end_time": 20.2136364,
                "pitch": 38,
                "velocity": 64,
                "duration": 0.1818182,
                "tempo": 120.0
            },
            {
                "start_time": 20.65,
                "end_time": 20.8318182,
                "pitch": 38,
                "velocity": 64,
                "duration": 0.1818182,
                "tempo": 120.0
            },
            {
                "start_time": 21.0659091,
                "end_time": 21.25,
                "pitch": 38,
                "velocity": 64,
                "duration": 0.1840909,
                "tempo": 120.0
            },
            {
                "start_time": 21.2681818,
                "end_time": 21.4568182,
                "pitch": 40,
                "velocity": 64,
                "duration": 0.1886364,
                "tempo": 120.0
            },
            {
                "start_time": 21.4727273,
                "end_time": 21.6795455,
                "pitch": 41,
                "velocity": 64,
                "duration": 0.2068182,
                "tempo": 120.0
            },
            {
                "start_time": 21.6954545,
                "end_time": 21.8795455,
                "pitch": 43,
                "velocity": 64,
                "duration": 0.1840909,
                "tempo": 120.0
            },
            {
                "start_time": 22.3204545,
                "end_time": 22.5090909,
                "pitch": 43,
                "velocity": 64,
                "duration": 0.1886364,
                "tempo": 120.0
            },
            {
                "start_time": 22.7386364,
                "end_time": 22.9181818,
                "pitch": 31,
                "velocity": 64,
                "duration": 0.1795455,
                "tempo": 120.0
            },
            {
                "start_time": 22.9363636,
                "end_time": 23.125,
                "pitch": 33,
                "velocity": 64,
                "duration": 0.1886364,
                "tempo": 120.0
            },
            {
                "start_time": 23.1409091,
                "end_time": 23.3477273,
                "pitch": 35,
                "velocity": 64,
                "duration": 0.2068182,
                "tempo": 120.0
            },
            {
                "start_time": 23.3659091,
                "end_time": 23.5477273,
                "pitch": 34,
                "velocity": 64,
                "duration": 0.1818182,
                "tempo": 120.0
            },
            {
                "start_time": 23.9840909,
                "end_time": 24.1659091,
                "pitch": 34,
                "velocity": 64,
                "duration": 0.1818182,
                "tempo": 120.0
            },
            {
                "start_time": 24.6,
                "end_time": 24.8068182,
                "pitch": 34,
                "velocity": 64,
                "duration": 0.2068182,
                "tempo": 120.0
            },
            {
                "start_time": 25.0295455,
                "end_time": 25.2136364,
                "pitch": 34,
                "velocity": 64,
                "duration": 0.1840909,
                "tempo": 120.0
            },
            {
                "start_time": 25.6545455,
                "end_time": 25.8431818,
                "pitch": 34,
                "velocity": 64,
                "duration": 0.1886364,
                "tempo": 120.0
            },
            {
                "start_time": 25.8613636,
                "end_time": 26.0613636,
                "pitch": 34,
                "velocity": 64,
                "duration": 0.2,
                "tempo": 120.0
            },
            {
                "start_time": 26.0772727,
                "end_time": 26.2613636,
                "pitch": 34,
                "velocity": 64,
                "duration": 0.1840909,
                "tempo": 120.0
            },
            {
                "start_time": 26.2772727,
                "end_time": 26.4795455,
                "pitch": 34,
                "velocity": 64,
                "duration": 0.2022727,
                "tempo": 120.0
            },
            {
                "start_time": 26.4954545,
                "end_time": 26.6795455,
                "pitch": 34,
                "velocity": 64,
                "duration": 0.1840909,
                "tempo": 120.0
            }
        ],
        "Church Organ": [
            {
                "start_time": 23.3659091,
                "end_time": 23.5477273,
                "pitch": 46,
                "velocity": 51,
                "duration": 0.1818182,
                "tempo": 120.0
            },
            {
                "start_time": 23.5659091,
                "end_time": 23.7659091,
                "pitch": 46,
                "velocity": 51,
                "duration": 0.2,
                "tempo": 120.0
            },
            {
                "start_time": 23.7818182,
                "end_time": 23.9659091,
                "pitch": 46,
                "velocity": 51,
                "duration": 0.1840909,
                "tempo": 120.0
            },
            {
                "start_time": 23.9840909,
                "end_time": 24.1659091,
                "pitch": 46,
                "velocity": 51,
                "duration": 0.1818182,
                "tempo": 120.0
            },
            {
                "start_time": 24.4,
                "end_time": 24.5840909,
                "pitch": 46,
                "velocity": 51,
                "duration": 0.1840909,
                "tempo": 120.0
            },
            {
                "start_time": 24.825,
                "end_time": 25.0136364,
                "pitch": 46,
                "velocity": 51,
                "duration": 0.1886364,
                "tempo": 120.0
            },
            {
                "start_time": 25.2318182,
                "end_time": 25.4318182,
                "pitch": 46,
                "velocity": 51,
                "duration": 0.2,
                "tempo": 120.0
            },
            {
                "start_time": 25.6545455,
                "end_time": 25.8431818,
                "pitch": 46,
                "velocity": 51,
                "duration": 0.1886364,
                "tempo": 120.0
            },
            {
                "start_time": 25.8613636,
                "end_time": 26.0613636,
                "pitch": 46,
                "velocity": 51,
                "duration": 0.2,
                "tempo": 120.0
            },
            {
                "start_time": 26.0772727,
                "end_time": 26.2613636,
                "pitch": 46,
                "velocity": 51,
                "duration": 0.1840909,
                "tempo": 120.0
            },
            {
                "start_time": 26.2772727,
                "end_time": 26.4795455,
                "pitch": 46,
                "velocity": 51,
                "duration": 0.2022727,
                "tempo": 120.0
            },
            {
                "start_time": 26.4954545,
                "end_time": 26.6795455,
                "pitch": 46,
                "velocity": 51,
                "duration": 0.1840909,
                "tempo": 120.0
            }
        ]
    }
}