{
    "mood": "happy",
    "instruments": {
        "Vibraphone": [
            {
                "start_time": 5.7886364,
                "end_time": 6.0090909,
                "pitch": 67,
                "velocity": 64,
                "duration": 0.2204545,
                "tempo": 120.0
            },
            {
                "start_time": 6.0295455,
                "end_time": 6.25,
                "pitch": 71,
                "velocity": 64,
                "duration": 0.2204545,
                "tempo": 120.0
            },
            {
                "start_time": 6.2681818,
                "end_time": 6.4909091,
                "pitch": 72,
                "velocity": 64,
                "duration": 0.2227273,
                "tempo": 120.0
            },
            {
                "start_time": 6.5113636,
                "end_time": 6.7340909,
                "pitch": 69,
                "velocity": 64,
                "duration": 0.2227273,
                "tempo": 120.0
            },
            {
                "start_time": 6.7545455,
                "end_time": 6.9772727,
                "pitch": 66,
                "velocity": 64,
                "duration": 0.2227273,
                "tempo": 120.0
            },
            {
                "start_time": 6.9954545,
                "end_time": 7.2159091,
                "pitch": 71,
                "velocity": 64,
                "duration": 0.2204545,
                "tempo": 120.0
            },
            {
                "start_time": 7.2363636,
                "end_time": 7.4568182,
                "pitch": 67,
                "velocity": 64,
                "duration": 0.2204545,
                "tempo": 120.0
            },
            {
                "start_time": 7.4772727,
                "end_time": 7.6954545,
                "pitch": 64,
                "velocity": 64,
                "duration": 0.2181818,
                "tempo": 120.0
            },
            {
                "start_time": 7.7159091,
                "end_time": 7.9363636,
                "pitch": 69,
                "velocity": 64,
                "duration": 0.2204545,
                "tempo": 120.0
            },
            {
                "start_time": 7.9568182,
                "end_time": 8.1772727,
                "pitch": 66,
                "velocity": 64,
                "duration": 0.2204545,
                "tempo": 120.0
            },
            {
                "start_time": 8.1954545,
                "end_time": 8.4159091,
                "pitch": 62,
                "velocity": 64,
                "duration": 0.2204545,
                "tempo": 120.0
            },
            {
                "start_time": 8.4363636,
                "end_time": 8.6590909,
                "pitch": 64,
                "velocity": 64,
                "duration": 0.2227273,
                "tempo": 120.0
            },
            {
                "start_time": 8.6795455,
                "end_time": 8.9,
                "pitch": 67,
                "velocity": 64,
                "duration": 0.2204545,
                "tempo": 120.0
            },
            {
                "start_time": 8.9204545,
                "end_time": 9.1431818,
                "pitch": 71,
                "velocity": 64,
                "duration": 0.2227273,
                "tempo": 120.0
            },
            {
                "start_time": 9.1636364,
                "end_time": 9.3840909,
                "pitch": 72,
                "velocity": 64,
                "duration": 0.2204545,
                "tempo": 120.0
            },
            {
                "start_time": 9.4045455,
                "end_time": 9.6227273,
                "pitch": 69,
                "velocity": 64,
                "duration": 0.2181818,
                "tempo": 120.0
            },
            {
                "start_time": 9.6431818,
                "end_time": 9.8636364,
                "pitch": 66,
                "velocity": 64,
                "duration": 0.2204545,
                "tempo": 120.0
            },
            {
                "start_time": 9.8840909,
                "end_time": 10.1068182,
                "pitch": 71,
                "velocity": 64,
                "duration": 0.2227273,
                "tempo": 120.0
            },
            {
                "start_time": 10.1272727,
                "end_time": 10.3477273,
                "pitch": 67,
                "velocity": 64,
                "duration": 0.2204545,
                "tempo": 120.0
            },
            {
                "start_time": 10.3681818,
                "end_time": 10.5909091,
                "pitch": 64,
                "velocity": 64,
                "duration": 0.2227273,
                "tempo": 120.0
            },
            {
                "start_time": 10.6113636,
                "end_time": 10.8318182,
                "pitch": 69,
                "velocity": 64,
                "duration": 0.2204545,
                "tempo": 120.0
            },
            {
                "start_time": 10.85,
                "end_time": 11.0704545,
                "pitch": 66,
                "velocity": 64,
                "duration": 0.2204545,
                "tempo": 120.0
            },
            {
                "start_time": 11.0909091,
                "end_time": 11.3113636,
                "pitch": 62,
                "velocity": 64,
                "duration": 0.2204545,
                "tempo": 120.0
            },
            {
                "start_time": 11.3318182,
                "end_time": 57.8818182,
                "pitch": 76,
                "velocity": 64,
                "duration": 46.55,
                "tempo": 120.0
            },
            {
                "start_time": 57.9022727,
                "end_time": 58.1318182,
                "pitch": 72,
                "velocity": 51,
                "duration": 0.2295455,
                "tempo": 120.0
            },
            {
                "start_time": 58.1522727,
                "end_time": 58.3818182,
                "pitch": 67,
                "velocity": 51,
                "duration": 0.2295455,
                "tempo": 120.0
            },
            {
                "start_time": 58.4022727,
                "end_time": 58.6204545,
                "pitch": 76,
                "velocity": 51,
                "duration": 0.2181818,
                "tempo": 120.0
            },
            {
                "start_time": 58.6386364,
                "end_time": 58.8568182,
                "pitch": 72,
                "velocity": 51,
                "duration": 0.2181818,
                "tempo": 120.0
            },
            {
                "start_time": 58.8772727,
                "end_time": 59.0954545,
                "pitch": 67,
                "velocity": 51,
                "duration": 0.2181818,
                "tempo": 120.0
            },
            {
                "start_time": 59.1136364,
                "end_time": 59.3431818,
                "pitch": 74,
                "velocity": 51,
                "duration": 0.2295455,
                "tempo": 120.0
            },
            {
                "start_time": 59.3636364,
                "end_time": 59.5931818,
                "pitch": 69,
                "velocity": 51,
                "duration": 0.2295455,
                "tempo": 120.0
            },
            {
                "start_time": 59.6136364,
                "end_time": 59.8431818,
                "pitch": 66,
                "velocity": 51,
                "duration": 0.2295455,
                "tempo": 120.0
            },
            {
                "start_time": 59.8636364,
                "end_time": 60.0863636,
                "pitch": 74,
                "velocity": 51,
                "duration": 0.2227273,
                "tempo": 120.0
            },
            {
                "start_time": 60.1068182,
                "end_time": 60.3295455,
                "pitch": 69,
                "velocity": 51,
                "duration": 0.2227273,
                "tempo": 120.0
            },
            {
                "start_time": 60.35,
                "end_time": 60.5704545,
                "pitch": 66,
                "velocity": 51,
                "duration": 0.2204545,
                "tempo": 120.0
            },
            {
                "start_time": 60.5909091,
                "end_time": 60.8113636,
                "pitch": 74,
                "velocity": 51,
                "duration": 0.2204545,
                "tempo": 120.0
            },
            {
                "start_time": 60.8318182,
                "end_time": 61.0522727,
                "pitch": 71,
                "velocity": 51,
                "duration": 0.2204545,
                "tempo": 120.0
            },
            {
                "start_time": 61.0727273,
                "end_time": 61.2909091,
                "pitch": 67,
                "velocity": 51,
                "duration": 0.2181818,
                "tempo": 120.0
            },
            {
                "start_time": 61.3113636,
                "end_time": 61.5295455,
                "pitch": 74,
                "velocity": 51,
                "duration": 0.2181818,
                "tempo": 120.0
            },
            {
                "start_time": 61.55,
                "end_time": 61.7681818,
                "pitch": 71,
                "velocity": 51,
                "duration": 0.2181818,
                "tempo": 120.0
            },
            {
                "start_time": 61.7863636,
                "end_time": 62.0045455,
                "pitch": 67,
                "velocity": 51,
                "duration": 0.2181818,
                "tempo": 120.0
            },
            {
                "start_time": 62.025,
                "end_time": 62.2477273,
                "pitch": 76,
                "velocity": 51,
                "duration": 0.2227273,
                "tempo": 120.0
            },
            {
                "start_time": 62.2681818,
                "end_time": 62.4931818,
                "pitch": 71,
                "velocity": 51,
                "duration": 0.225,
                "tempo": 120.0
            },
            {
                "start_time": 62.5136364,
                "end_time": 62.7386364,
                "pitch": 67,
                "velocity": 51,
                "duration": 0.225,
                "tempo": 120.0
            },
            {
                "start_time": 62.7590909,
                "end_time": 62.9772727,
                "pitch": 76,
                "velocity": 51,
                "duration": 0.2181818,
                "tempo": 120.0
            },
            {
                "start_time": 62.9954545,
                "end_time": 63.2136364,
                "pitch": 71,
                "velocity": 51,
                "duration": 0.2181818,
                "tempo": 120.0
            },
            {
                "start_time": 63.2340909,
                "end_time": 63.4522727,
                "pitch": 67,
                "velocity": 51,
                "duration": 0.2181818,
                "tempo": 120.0
            },
            {
                "start_time": 63.4727273,
                "end_time": 63.6954545,
                "pitch": 76,
                "velocity": 51,
                "duration": 0.2227273,
                "tempo": 120.0
            },
            {
                "start_time": 63.7159091,
                "end_time": 63.9409091,
                "pitch": 72,
                "velocity": 51,
                "duration": 0.225,
                "tempo": 120.0
            },
            {
                "start_time": 63.9613636,
                "end_time": 64.1863636,
                "pitch": 67,
                "velocity": 51,
                "duration": 0.225,
                "tempo": 120.0
            },
            {
                "start_time": 64.2068182,
                "end_time": 64.4227273,
                "pitch": 76,
                "velocity": 51,
                "duration": 0.2159091,
                "tempo": 120.0
            },
            {
                "start_time": 64.4431818,
                "end_time": 64.6613636,
                "pitch": 72,
                "velocity": 51,
                "duration": 0.2181818,
                "tempo": 120.0
            },
            {
                "start_time": 64.6818182,
                "end_time": 64.9,
                "pitch": 67,
                "velocity": 51,
                "duration": 0.2181818,
                "tempo": 120.0
            },
            {
                "start_time": 64.9181818,
                "end_time": 65.1431818,
                "pitch": 74,
                "velocity": 51,
                "duration": 0.225,
                "tempo": 120.0
            },
            {
                "start_time": 65.1636364,
                "end_time": 65.3886364,
                "pitch": 69,
                "velocity": 51,
                "duration": 0.225,
                "tempo": 120.0
            },
            {
                "start_time": 65.4090909,
                "end_time": 65.6318182,
                "pitch": 66,
                "velocity": 51,
                "duration": 0.2227273,
                "tempo": 120.0
            },
            {
                "start_time": 65.6522727,
                "end_time": 65.875,
                "pitch": 74,
                "velocity": 51,
                "duration": 0.2227273,
                "tempo": 120.0
            },
            {
                "start_time": 65.8954545,
                "end_time": 66.1181818,
                "pitch": 69,
                "velocity": 51,
                "duration": 0.2227273,
                "tempo": 120.0
            },
            {
                "start_time": 66.1386364,
                "end_time": 66.3613636,
                "pitch": 66,
                "velocity": 51,
                "duration": 0.2227273,
                "tempo": 120.0
            },
            {
                "start_time": 66.3795455,
                "end_time": 66.6022727,
                "pitch": 76,
                "velocity": 51,
                "duration": 0.2227273,
                "tempo": 120.0
            },
            {
                "start_time": 66.6227273,
                "end_time": 66.8454545,
                "pitch": 71,
                "velocity": 51,
                "duration": 0.2227273,
                "tempo": 120.0
            },
            {
                "start_time": 66.8659091,
                "end_time": 67.0886364,
                "pitch": 67,
                "velocity": 51,
                "duration": 0.2227273,
                "tempo": 120.0
            },
            {
                "start_time": 67.1068182,
                "end_time": 67.325,
                "pitch": 76,
                "velocity": 51,
                "duration": 0.2181818,
                "tempo": 120.0
            },
            {
                "start_time": 67.3454545,
                "end_time": 67.5636364,
                "pitch": 71,
                "velocity": 51,
                "duration": 0.2181818,
                "tempo": 120.0
            },
            {
                "start_time": 67.5840909,
                "end_time": 67.8,
                "pitch": 67,
                "velocity": 51,
                "duration": 0.2159091,
                "tempo": 120.0
            },
            {
                "start_time": 67.8204545,
                "end_time": 68.0454545,
                "pitch": 76,
                "velocity": 51,
                "duration": 0.225,
                "tempo": 120.0
            },
            {
                "start_time": 68.0659091,
                "end_time": 68.2909091,
                "pitch": 71,
                "velocity": 51,
                "duration": 0.225,
                "tempo": 120.0
            },
            {
                "start_time": 68.3090909,
                "end_time": 68.5340909,
                "pitch": 67,
                "velocity": 51,
                "duration": 0.225,
                "tempo": 120.0
            },
            {
                "start_time": 68.5545455,
                "end_time": 68.7727273,
                "pitch": 76,
                "velocity": 51,
                "duration": 0.2181818,
                "tempo": 120.0
            },
            {
                "start_time": 68.7931818,
                "end_time": 69.0113636,
                "pitch": 71,
                "velocity": 51,
                "duration": 0.2181818,
                "tempo": 120.0
            },
            {
                "start_time": 69.0295455,
                "end_time": 69.2477273,
                "pitch": 67,
                "velocity": 51,
                "duration": 0.2181818,
                "tempo": 120.0
            },
            {
                "start_time": 69.2681818,
                "end_time": 69.4931818,
                "pitch": 76,
                "velocity": 51,
                "duration": 0.225,
                "tempo": 120.0
            },
            {
                "start_time": 69.5113636,
                "end_time": 69.7363636,
                "pitch": 72,
                "velocity": 51,
                "duration": 0.225,
                "tempo": 120.0
            },
            {
                "start_time": 69.7568182,
                "end_time": 69.9818182,
                "pitch": 67,
                "velocity": 51,
                "duration": 0.225,
                "tempo": 120.0
            },
            {
                "start_time": 70.0022727,
                "end_time": 70.2204545,
                "pitch": 76,
                "velocity": 51,
                "duration": 0.2181818,
                "tempo": 120.0
            },
            {
                "start_time": 70.2409091,
                "end_time": 70.4568182,
                "pitch": 72,
                "velocity": 51,
                "duration": 0.2159091,
                "tempo": 120.0
            },
            {
                "start_time": 70.4772727,
                "end_time": 70.6954545,
                "pitch": 67,
                "velocity": 51,
                "duration": 0.2181818,
                "tempo": 120.0
            },
            {
                "start_time": 70.7159091,
                "end_time": 70.9386364,
                "pitch": 74,
                "velocity": 51,
                "duration": 0.2227273,
                "tempo": 120.0
            },
            {
                "start_time": 70.9590909,
                "end_time": 71.1840909,
                "pitch": 69,
                "velocity": 51,
                "duration": 0.225,
                "tempo": 120.0
            },
            {
                "start_time": 71.2045455,
                "end_time": 71.4295455,
                "pitch": 66,
                "velocity": 51,
                "duration": 0.225,
                "tempo": 120.0
            },
            {
                "start_time": 71.45,
                "end_time": 71.6704545,
                "pitch": 74,
                "velocity": 51,
                "duration": 0.2204545,
                "tempo": 120.0
            },
            {
                "start_time": 71.6886364,
                "end_time": 71.9090909,
                "pitch": 69,
                "velocity": 51,
                "duration": 0.2204545,
                "tempo": 120.0
            },
            {
                "start_time": 71.9295455,
                "end_time": 72.15,
                "pitch": 66,
                "velocity": 51,
                "duration": 0.2204545,
                "tempo": 120.0
            },
            {
                "start_time": 72.1704545,
                "end_time": 72.3909091,
                "pitch": 74,
                "velocity": 51,
                "duration": 0.2204545,
                "tempo": 120.0
            },
            {
                "start_time": 72.4113636,
                "end_time": 72.6340909,
                "pitch": 71,
                "velocity": 51,
                "duration": 0.2227273,
                "tempo": 120.0
            },
            {
                "start_time": 72.6545455,
                "end_time": 72.8772727,
                "pitch": 67,
                "velocity": 51,
                "duration": 0.2227273,
                "tempo": 120.0
            },
            {
                "start_time": 72.8977273,
                "end_time": 73.1181818,
                "pitch": 74,
                "velocity": 51,
                "duration": 0.2204545,
                "tempo": 120.0
            },
            {
                "start_time": 73.1386364,
                "end_time": 73.3613636,
                "pitch": 71,
                "velocity": 51,
                "duration": 0.2227273,
                "tempo": 120.0
            },
            {
                "start_time": 73.3818182,
                "end_time": 73.6045455,
                "pitch": 67,
                "velocity": 51,
                "duration": 0.2227273,
                "tempo": 120.0
            },
            {
                "start_time": 73.625,
                "end_time": 73.8454545,
                "pitch": 76,
                "velocity": 51,
                "duration": 0.2204545,
                "tempo": 120.0
            },
            {
                "start_time": 73.8659091,
                "end_time": 74.0886364,
                "pitch": 71,
                "velocity": 51,
                "duration": 0.2227273,
                "tempo": 120.0
            },
            {
                "start_time": 74.1090909,
                "end_time": 74.3318182,
                "pitch": 67,
                "velocity": 51,
                "duration": 0.2227273,
                "tempo": 120.0
            },
            {
                "start_time": 74.3522727,
                "end_time": 74.5727273,
                "pitch": 76,
                "velocity": 51,
                "duration": 0.2204545,
                "tempo": 120.0
            },
            {
                "start_time": 74.5931818,
                "end_time": 74.8159091,
                "pitch": 71,
                "velocity": 51,
                "duration": 0.2227273,
                "tempo": 120.0
            },
            {
                "start_time": 74.8363636,
                "end_time": 75.0590909,
                "pitch": 67,
                "velocity": 51,
                "duration": 0.2227273,
                "tempo": 120.0
            },
            {
                "start_time": 75.0795455,
                "end_time": 75.2977273,
                "pitch": 76,
                "velocity": 51,
                "duration": 0.2181818,
                "tempo": 120.0
            },
            {
                "start_time": 75.3181818,
                "end_time": 75.5386364,
                "pitch": 72,
                "velocity": 51,
                "duration": 0.2204545,
                "tempo": 120.0
            },
            {
                "start_time": 75.5590909,
                "end_time": 75.7795455,
                "pitch": 67,
                "velocity": 51,
                "duration": 0.2204545,
                "tempo": 120.0
            },
            {
                "start_time": 75.7977273,
                "end_time": 76.0113636,
                "pitch": 76,
                "velocity": 51,
                "duration": 0.2136364,
                "tempo": 120.0
            },
            {
                "start_time": 76.0318182,
                "end_time": 76.2454545,
                "pitch": 72,
                "velocity": 51,
                "duration": 0.2136364,
                "tempo": 120.0
            },
            {
                "start_time": 76.2636364,
                "end_time": 76.4772727,
                "pitch": 67,
                "velocity": 51,
                "duration": 0.2136364,
                "tempo": 120.0
            },
            {
                "start_time": 76.4977273,
                "end_time": 76.725,
                "pitch": 74,
                "velocity": 51,
                "duration": 0.2272727,
                "tempo": 120.0
            },
            {
                "start_time": 76.7477273,
                "end_time": 76.975,
                "pitch": 69,
                "velocity": 51,
                "duration": 0.2272727,
                "tempo": 120.0
            },
            {
                "start_time": 76.9977273,
                "end_time": 77.225,
                "pitch": 66,
                "velocity": 51,
                "duration": 0.2272727,
                "tempo": 120.0
            },
            {
                "start_time": 77.2477273,
                "end_time": 77.4636364,
                "pitch": 74,
                "velocity": 51,
                "duration": 0.2159091,
                "tempo": 120.0
            },
            {
                "start_time": 77.4840909,
                "end_time": 77.7022727,
                "pitch": 69,
                "velocity": 51,
                "duration": 0.2181818,
                "tempo": 120.0
            },
            {
                "start_time": 77.7227273,
                "end_time": 77.9386364,
                "pitch": 66,
                "velocity": 51,
                "duration": 0.2159091,
                "tempo": 120.0
            },
            {
                "start_time": 77.9590909,
                "end_time": 78.1795455,
                "pitch": 76,
                "velocity": 51,
                "duration": 0.2204545,
                "tempo": 120.0
            },
            {
                "start_time": 78.2,
                "end_time": 78.4204545,
                "pitch": 71,
                "velocity": 51,
                "duration": 0.2204545,
                "tempo": 120.0
            },
            {
                "start_time": 78.4363636,
                "end_time": 78.5795455,
                "pitch": 67,
                "velocity": 51,
                "duration": 0.1431818,
                "tempo": 120.0
            },
            {
                "start_time": 78.5931818,
                "end_time": 78.7363636,
                "pitch": 71,
                "velocity": 51,
                "duration": 0.1431818,
                "tempo": 120.0
            },
            {
                "start_time": 78.75,
                "end_time": 78.8977273,
                "pitch": 67,
                "velocity": 51,
                "duration": 0.1477273,
                "tempo": 120.0
            },
            {
                "start_time": 78.9113636,
                "end_time": 79.0590909,
                "pitch": 64,
                "velocity": 51,
                "duration": 0.1477273,
                "tempo": 120.0
            },
            {
                "start_time": 79.0704545,
                "end_time": 79.2227273,
                "pitch": 76,
                "velocity": 51,
                "duration": 0.1522727,
                "tempo": 120.0
            },
            {
                "start_time": 79.2363636,
                "end_time": 79.3863636,
                "pitch": 71,
                "velocity": 51,
                "duration": 0.15,
                "tempo": 120.0
            },
            {
                "start_time": 79.4,
                "end_time": 79.5431818,
                "pitch": 67,
                "velocity": 51,
                "duration": 0.1431818,
                "tempo": 120.0
            },
            {
                "start_time": 79.5568182,
                "end_time": 79.7,
                "pitch": 71,
                "velocity": 51,
                "duration": 0.1431818,
                "tempo": 120.0
            },
            {
                "start_time": 79.7136364,
                "end_time": 79.8613636,
                "pitch": 67,
                "velocity": 51,
                "duration": 0.1477273,
                "tempo": 120.0
            },
            {
                "start_time": 79.875,
                "end_time": 80.0227273,
                "pitch": 64,
                "velocity": 51,
                "duration": 0.1477273,
                "tempo": 120.0
            }
        ],
        "Trumpet": [
            {
                "start_time": 0.0522727,
                "end_time": 12.8318182,
                "pitch": 59,
                "velocity": 51,
                "duration": 12.7795455,
                "tempo": 120.0
            },
            {
                "start_time": 12.8522727,
                "end_time": 14.2772727,
                "pitch": 57,
                "velocity": 51,
                "duration": 1.425,
                "tempo": 120.0
            },
            {
                "start_time": 14.2977273,
                "end_time": 15.4772727,
                "pitch": 59,
                "velocity": 51,
                "duration": 1.1795455,
                "tempo": 120.0
            },
            {
                "start_time": 15.4977273,
                "end_time": 15.7181818,
                "pitch": 55,
                "velocity": 51,
                "duration": 0.2204545,
                "tempo": 120.0
            },
            {
                "start_time": 15.7386364,
                "end_time": 17.1659091,
                "pitch": 64,
                "velocity": 51,
                "duration": 1.4272727,
                "tempo": 120.0
            },
            {
                "start_time": 17.1863636,
                "end_time": 18.6045455,
                "pitch": 57,
                "velocity": 51,
                "duration": 1.4181818,
                "tempo": 120.0
            },
            {
                "start_time": 18.625,
                "end_time": 20.0454545,
                "pitch": 59,
                "velocity": 51,
                "duration": 1.4204545,
                "tempo": 120.0
            },
            {
                "start_time": 20.0659091,
                "end_time": 21.2522727,
                "pitch": 62,
                "velocity": 51,
                "duration": 1.1863636,
                "tempo": 120.0
            },
            {
                "start_time": 21.2727273,
                "end_time": 21.4931818,
                "pitch": 57,
                "velocity": 51,
                "duration": 0.2204545,
                "tempo": 120.0
            },
            {
                "start_time": 21.5136364,
                "end_time": 22.4636364,
                "pitch": 66,
                "velocity": 51,
                "duration": 0.95,
                "tempo": 120.0
            },
            {
                "start_time": 22.4840909,
                "end_time": 22.7045455,
                "pitch": 64,
                "velocity": 51,
                "duration": 0.2204545,
                "tempo": 120.0
            },
            {
                "start_time": 22.725,
                "end_time": 22.9477273,
                "pitch": 62,
                "velocity": 51,
                "duration": 0.2227273,
                "tempo": 120.0
            },
            {
                "start_time": 22.9681818,
                "end_time": 25.8431818,
                "pitch": 64,
                "velocity": 51,
                "duration": 2.875,
                "tempo": 120.0
            },
            {
                "start_time": 25.8636364,
                "end_time": 27.2909091,
                "pitch": 66,
                "velocity": 51,
                "duration": 1.4272727,
                "tempo": 120.0
            },
            {
                "start_time": 27.3090909,
                "end_time": 28.7363636,
                "pitch": 67,
                "velocity": 51,
                "duration": 1.4272727,
                "tempo": 120.0
            },
            {
                "start_time": 28.7568182,
                "end_time": 30.1909091,
                "pitch": 67,
                "velocity": 51,
                "duration": 1.4340909,
                "tempo": 120.0
            },
            {
                "start_time": 30.2113636,
                "end_time": 31.6386364,
                "pitch": 69,
                "velocity": 51,
                "duration": 1.4272727,
                "tempo": 120.0
            },
            {
                "start_time": 31.6590909,
                "end_time": 34.5340909,
                "pitch": 71,
                "velocity": 51,
                "duration": 2.875,
                "tempo": 120.0
            },
            {
                "start_time": 34.5545455,
                "end_time": 34.7795455,
                "pitch": 64,
                "velocity": 51,
                "duration": 0.225,
                "tempo": 120.0
            },
            {
                "start_time": 34.8,
                "end_time": 35.0227273,
                "pitch": 66,
                "velocity": 51,
                "duration": 0.2227273,
                "tempo": 120.0
            },
            {
                "start_time": 35.0431818,
                "end_time": 35.2659091,
                "pitch": 67,
                "velocity": 51,
                "duration": 0.2227273,
                "tempo": 120.0
            },
            {
                "start_time": 35.2863636,
                "end_time": 35.5045455,
                "pitch": 66,
                "velocity": 51,
                "duration": 0.2181818,
                "tempo": 120.0
            },
            {
                "start_time": 35.525,
                "end_time": 35.7409091,
                "pitch": 64,
                "velocity": 51,
                "duration": 0.2159091,
                "tempo": 120.0
            },
            {
                "start_time": 35.7613636,
                "end_time": 35.9818182,
                "pitch": 62,
                "velocity": 51,
                "duration": 0.2204545,
                "tempo": 120.0
            },
            {
                "start_time": 36.0,
                "end_time": 37.4204545,
                "pitch": 64,
                "velocity": 51,
                "duration": 1.4204545,
                "tempo": 120.0
            },
            {
                "start_time": 37.4409091,
                "end_time": 37.6636364,
                "pitch": 64,
                "velocity": 51,
                "duration": 0.2227273,
                "tempo": 120.0
            },
            {
                "start_time": 37.6840909,
                "end_time": 37.9068182,
                "pitch": 66,
                "velocity": 51,
                "duration": 0.2227273,
                "tempo": 120.0
            },
            {
                "start_time": 37.925,
                "end_time": 38.1477273,
                "pitch": 67,
                "velocity": 51,
                "duration": 0.2227273,
                "tempo": 120.0
            },
            {
                "start_time": 38.1681818,
                "end_time": 38.3931818,
                "pitch": 66,
                "velocity": 51,
                "duration": 0.225,
                "tempo": 120.0
            },
            {
                "start_time": 38.4136364,
                "end_time": 38.6386364,
                "pitch": 64,
                "velocity": 51,
                "duration": 0.225,
                "tempo": 120.0
            },
            {
                "start_time": 38.6590909,
                "end_time": 38.8818182,
                "pitch": 62,
                "velocity": 51,
                "duration": 0.2227273,
                "tempo": 120.0
            },
            {
                "start_time": 38.9,
                "end_time": 39.5954545,
                "pitch": 64,
                "velocity": 51,
                "duration": 0.6954545,
                "tempo": 120.0
            },
            {
                "start_time": 39.6159091,
                "end_time": 40.3227273,
                "pitch": 60,
                "velocity": 51,
                "duration": 0.7068182,
                "tempo": 120.0
            },
            {
                "start_time": 40.3431818,
                "end_time": 40.5659091,
                "pitch": 62,
                "velocity": 51,
                "duration": 0.2227273,
                "tempo": 120.0
            },
            {
                "start_time": 40.5863636,
                "end_time": 40.8068182,
                "pitch": 64,
                "velocity": 51,
                "duration": 0.2204545,
                "tempo": 120.0
            },
            {
                "start_time": 40.8272727,
                "end_time": 41.05,
                "pitch": 66,
                "velocity": 51,
                "duration": 0.2227273,
                "tempo": 120.0
            },
            {
                "start_time": 41.0704545,
                "end_time": 41.2886364,
                "pitch": 67,
                "velocity": 51,
                "duration": 0.2181818,
                "tempo": 120.0
            },
            {
                "start_time": 41.3090909,
                "end_time": 41.5295455,
                "pitch": 69,
                "velocity": 51,
                "duration": 0.2204545,
                "tempo": 120.0
            },
            {
                "start_time": 41.55,
                "end_time": 41.7704545,
                "pitch": 71,
                "velocity": 51,
                "duration": 0.2204545,
                "tempo": 120.0
            },
            {
                "start_time": 41.7909091,
                "end_time": 42.0136364,
                "pitch": 72,
                "velocity": 51,
                "duration": 0.2227273,
                "tempo": 120.0
            },
            {
                "start_time": 42.0318182,
                "end_time": 42.2545455,
                "pitch": 71,
                "velocity": 51,
                "duration": 0.2227273,
                "tempo": 120.0
            },
            {
                "start_time": 42.275,
                "end_time": 42.4977273,
                "pitch": 69,
                "velocity": 51,
                "duration": 0.2227273,
                "tempo": 120.0
            },
            {
                "start_time": 42.5181818,
                "end_time": 42.7409091,
                "pitch": 67,
                "velocity": 51,
                "duration": 0.2227273,
                "tempo": 120.0
            },
            {
                "start_time": 42.7590909,
                "end_time": 42.9818182,
                "pitch": 66,
                "velocity": 51,
                "duration": 0.2227273,
                "tempo": 120.0
            },
            {
                "start_time": 43.0022727,
                "end_time": 43.225,
                "pitch": 62,
                "velocity": 51,
                "duration": 0.2227273,
                "tempo": 120.0
            },
            {
                "start_time": 43.2454545,
                "end_time": 43.9522727,
                "pitch": 64,
                "velocity": 51,
                "duration": 0.7068182,
                "tempo": 120.0
            },
            {
                "start_time": 43.9727273,
                "end_time": 44.6795455,
                "pitch": 66,
                "velocity": 51,
                "duration": 0.7068182,
                "tempo": 120.0
            },
            {
                "start_time": 44.6977273,
                "end_time": 45.4,
                "pitch": 67,
                "velocity": 51,
                "duration": 0.7022727,
                "tempo": 120.0
            },
            {
                "start_time": 45.4204545,
                "end_time": 46.1272727,
                "pitch": 69,
                "velocity": 51,
                "duration": 0.7068182,
                "tempo": 120.0
            },
            {
                "start_time": 46.1477273,
                "end_time": 46.3681818,
                "pitch": 71,
                "velocity": 51,
                "duration": 0.2204545,
                "tempo": 120.0
            },
            {
                "start_time": 46.3886364,
                "end_time": 46.6113636,
                "pitch": 64,
                "velocity": 51,
                "duration": 0.2227273,
                "tempo": 120.0
            },
            {
                "start_time": 46.6318182,
                "end_time": 46.8545455,
                "pitch": 71,
                "velocity": 51,
                "duration": 0.2227273,
                "tempo": 120.0
            },
            {
                "start_time": 46.875,
                "end_time": 48.3068182,
                "pitch": 64,
                "velocity": 51,
                "duration": 1.4318182,
                "tempo": 120.0
            },
            {
                "start_time": 48.3272727,
                "end_time": 48.5477273,
                "pitch": 64,
                "velocity": 51,
                "duration": 0.2204545,
                "tempo": 120.0
            },
            {
                "start_time": 48.5681818,
                "end_time": 48.7886364,
                "pitch": 67,
                "velocity": 51,
                "duration": 0.2204545,
                "tempo": 120.0
            },
            {
                "start_time": 48.8068182,
                "end_time": 49.0272727,
                "pitch": 69,
                "velocity": 51,
                "duration": 0.2204545,
                "tempo": 120.0
            },
            {
                "start_time": 49.0477273,
                "end_time": 49.2704545,
                "pitch": 71,
                "velocity": 51,
                "duration": 0.2227273,
                "tempo": 120.0
            },
            {
                "start_time": 49.2909091,
                "end_time": 49.5136364,
                "pitch": 64,
                "velocity": 51,
                "duration": 0.2227273,
                "tempo": 120.0
            },
            {
                "start_time": 49.5340909,
                "end_time": 49.7545455,
                "pitch": 71,
                "velocity": 51,
                "duration": 0.2204545,
                "tempo": 120.0
            },
            {
                "start_time": 49.775,
                "end_time": 51.2159091,
                "pitch": 64,
                "velocity": 51,
                "duration": 1.4409091,
                "tempo": 120.0
            },
            {
                "start_time": 51.2363636,
                "end_time": 51.9295455,
                "pitch": 76,
                "velocity": 51,
                "duration": 0.6931818,
                "tempo": 120.0
            },
            {
                "start_time": 51.95,
                "end_time": 53.3772727,
                "pitch": 74,
                "velocity": 51,
                "duration": 1.4272727,
                "tempo": 120.0
            },
            {
                "start_time": 53.3977273,
                "end_time": 54.1113636,
                "pitch": 78,
                "velocity": 51,
                "duration": 0.7136364,
                "tempo": 120.0
            },
            {
                "start_time": 54.1295455,
                "end_time": 54.825,
                "pitch": 81,
                "velocity": 51,
                "duration": 0.6954545,
                "tempo": 120.0
            },
            {
                "start_time": 54.8454545,
                "end_time": 55.0704545,
                "pitch": 79,
                "velocity": 51,
                "duration": 0.225,
                "tempo": 120.0
            },
            {
                "start_time": 55.0909091,
                "end_time": 55.3159091,
                "pitch": 78,
                "velocity": 51,
                "duration": 0.225,
                "tempo": 120.0
            },
            {
                "start_time": 55.3363636,
                "end_time": 55.5568182,
                "pitch": 79,
                "velocity": 51,
                "duration": 0.2204545,
                "tempo": 120.0
            },
            {
                "start_time": 55.575,
                "end_time": 57.7136364,
                "pitch": 76,
                "velocity": 51,
                "duration": 2.1386364,
                "tempo": 120.0
            },
            {
                "start_time": 57.7363636,
                "end_time": 107.2454545,
                "pitch": 64,
                "velocity": 51,
                "duration": 49.5090909,
                "tempo": 120.0
            },
            {
                "start_time": 107.2454545,
                "end_time": 107.4045455,
                "pitch": 78,
                "velocity": 51,
                "duration": 0.1590909,
                "tempo": 120.0
            },
            {
                "start_time": 107.4045455,
                "end_time": 107.5659091,
                "pitch": 79,
                "velocity": 51,
                "duration": 0.1613636,
                "tempo": 120.0
            },
            {
                "start_time": 107.5659091,
                "end_time": 115.6227273,
                "pitch": 76,
                "velocity": 51,
                "duration": 8.0568182,
                "tempo": 120.0
            }
        ],
        "Clarinet": [
            {
                "start_time": 59.1977273,
                "end_time": 59.925,
                "pitch": 62,
                "velocity": 51,
                "duration": 0.7272727,
                "tempo": 120.0
            },
            {
                "start_time": 59.9454545,
                "end_time": 60.1681818,
                "pitch": 57,
                "velocity": 51,
                "duration": 0.2227273,
                "tempo": 120.0
            },
            {
                "start_time": 60.1863636,
                "end_time": 60.4090909,
                "pitch": 59,
                "velocity": 51,
                "duration": 0.2227273,
                "tempo": 120.0
            },
            {
                "start_time": 60.4295455,
                "end_time": 60.6522727,
                "pitch": 60,
                "velocity": 51,
                "duration": 0.2227273,
                "tempo": 120.0
            },
            {
                "start_time": 60.6727273,
                "end_time": 61.3704545,
                "pitch": 62,
                "velocity": 51,
                "duration": 0.6977273,
                "tempo": 120.0
            },
            {
                "start_time": 61.3909091,
                "end_time": 62.0863636,
                "pitch": 60,
                "velocity": 51,
                "duration": 0.6954545,
                "tempo": 120.0
            },
            {
                "start_time": 62.1068182,
                "end_time": 62.8181818,
                "pitch": 59,
                "velocity": 51,
                "duration": 0.7113636,
                "tempo": 120.0
            },
            {
                "start_time": 62.8386364,
                "end_time": 63.5318182,
                "pitch": 55,
                "velocity": 51,
                "duration": 0.6931818,
                "tempo": 120.0
            },
            {
                "start_time": 63.5522727,
                "end_time": 64.9795455,
                "pitch": 64,
                "velocity": 51,
                "duration": 1.4272727,
                "tempo": 120.0
            },
            {
                "start_time": 65.0,
                "end_time": 65.7136364,
                "pitch": 62,
                "velocity": 51,
                "duration": 0.7136364,
                "tempo": 120.0
            },
            {
                "start_time": 65.7340909,
                "end_time": 66.4409091,
                "pitch": 66,
                "velocity": 51,
                "duration": 0.7068182,
                "tempo": 120.0
            },
            {
                "start_time": 66.4613636,
                "end_time": 69.3295455,
                "pitch": 64,
                "velocity": 51,
                "duration": 2.8681818,
                "tempo": 120.0
            },
            {
                "start_time": 69.35,
                "end_time": 70.775,
                "pitch": 64,
                "velocity": 51,
                "duration": 1.425,
                "tempo": 120.0
            },
            {
                "start_time": 70.7954545,
                "end_time": 71.5090909,
                "pitch": 62,
                "velocity": 51,
                "duration": 0.7136364,
                "tempo": 120.0
            },
            {
                "start_time": 71.5295455,
                "end_time": 71.75,
                "pitch": 57,
                "velocity": 51,
                "duration": 0.2204545,
                "tempo": 120.0
            },
            {
                "start_time": 71.7704545,
                "end_time": 71.9886364,
                "pitch": 59,
                "velocity": 51,
                "duration": 0.2181818,
                "tempo": 120.0
            },
            {
                "start_time": 72.0090909,
                "end_time": 72.2295455,
                "pitch": 60,
                "velocity": 51,
                "duration": 0.2204545,
                "tempo": 120.0
            },
            {
                "start_time": 72.25,
                "end_time": 72.9568182,
                "pitch": 62,
                "velocity": 51,
                "duration": 0.7068182,
                "tempo": 120.0
            },
            {
                "start_time": 72.9772727,
                "end_time": 73.6840909,
                "pitch": 60,
                "velocity": 51,
                "duration": 0.7068182,
                "tempo": 120.0
            },
            {
                "start_time": 73.7045455,
                "end_time": 74.4113636,
                "pitch": 59,
                "velocity": 51,
                "duration": 0.7068182,
                "tempo": 120.0
            },
            {
                "start_time": 74.4318182,
                "end_time": 75.1386364,
                "pitch": 55,
                "velocity": 51,
                "duration": 0.7068182,
                "tempo": 120.0
            },
            {
                "start_time": 75.1590909,
                "end_time": 76.5590909,
                "pitch": 64,
                "velocity": 51,
                "duration": 1.4,
                "tempo": 120.0
            },
            {
                "start_time": 76.5795455,
                "end_time": 78.0204545,
                "pitch": 66,
                "velocity": 51,
                "duration": 1.4409091,
                "tempo": 120.0
            },
            {
                "start_time": 78.0386364,
                "end_time": 78.6318182,
                "pitch": 67,
                "velocity": 51,
                "duration": 0.5931818,
                "tempo": 120.0
            },
            {
                "start_time": 78.6454545,
                "end_time": 79.1136364,
                "pitch": 66,
                "velocity": 51,
                "duration": 0.4681818,
                "tempo": 120.0
            },
            {
                "start_time": 79.1272727,
                "end_time": 79.5954545,
                "pitch": 64,
                "velocity": 51,
                "duration": 0.4681818,
                "tempo": 120.0
            },
            {
                "start_time": 79.6090909,
                "end_time": 80.075,
                "pitch": 62,
                "velocity": 51,
                "duration": 0.4659091,
                "tempo": 120.0
            }
        ],
        "Oboe": [
            {
                "start_time": 81.0522727,
                "end_time": 81.5204545,
                "pitch": 66,
                "velocity": 51,
                "duration": 0.4681818,
                "tempo": 120.0
            },
            {
                "start_time": 81.5340909,
                "end_time": 82.0090909,
                "pitch": 67,
                "velocity": 51,
                "duration": 0.475,
                "tempo": 120.0
            },
            {
                "start_time": 82.0227273,
                "end_time": 82.9727273,
                "pitch": 62,
                "velocity": 51,
                "duration": 0.95,
                "tempo": 120.0
            },
            {
                "start_time": 82.9863636,
                "end_time": 83.4477273,
                "pitch": 64,
                "velocity": 51,
                "duration": 0.4613636,
                "tempo": 120.0
            },
            {
                "start_time": 83.4613636,
                "end_time": 83.9340909,
                "pitch": 62,
                "velocity": 51,
                "duration": 0.4727273,
                "tempo": 120.0
            },
            {
                "start_time": 83.9477273,
                "end_time": 84.9,
                "pitch": 60,
                "velocity": 51,
                "duration": 0.9522727,
                "tempo": 120.0
            },
            {
                "start_time": 84.9113636,
                "end_time": 85.375,
                "pitch": 62,
                "velocity": 51,
                "duration": 0.4636364,
                "tempo": 120.0
            },
            {
                "start_time": 85.3886364,
                "end_time": 85.8636364,
                "pitch": 64,
                "velocity": 51,
                "duration": 0.475,
                "tempo": 120.0
            },
            {
                "start_time": 85.8772727,
                "end_time": 86.8272727,
                "pitch": 64,
                "velocity": 51,
                "duration": 0.95,
                "tempo": 120.0
            },
            {
                "start_time": 86.8409091,
                "end_time": 87.7863636,
                "pitch": 63,
                "velocity": 51,
                "duration": 0.9454545,
                "tempo": 120.0
            },
            {
                "start_time": 87.8,
                "end_time": 88.7568182,
                "pitch": 64,
                "velocity": 51,
                "duration": 0.9568182,
                "tempo": 120.0
            },
            {
                "start_time": 88.7704545,
                "end_time": 89.2340909,
                "pitch": 66,
                "velocity": 51,
                "duration": 0.4636364,
                "tempo": 120.0
            },
            {
                "start_time": 89.2477273,
                "end_time": 89.7159091,
                "pitch": 67,
                "velocity": 51,
                "duration": 0.4681818,
                "tempo": 120.0
            },
            {
                "start_time": 89.7295455,
                "end_time": 90.6840909,
                "pitch": 66,
                "velocity": 51,
                "duration": 0.9545455,
                "tempo": 120.0
            },
            {
                "start_time": 90.6977273,
                "end_time": 91.1636364,
                "pitch": 67,
                "velocity": 51,
                "duration": 0.4659091,
                "tempo": 120.0
            },
            {
                "start_time": 91.175,
                "end_time": 91.6477273,
                "pitch": 69,
                "velocity": 51,
                "duration": 0.4727273,
                "tempo": 120.0
            },
            {
                "start_time": 91.6613636,
                "end_time": 93.575,
                "pitch": 67,
                "velocity": 51,
                "duration": 1.9136364,
                "tempo": 120.0
            },
            {
                "start_time": 93.5886364,
                "end_time": 93.7363636,
                "pitch": 64,
                "velocity": 51,
                "duration": 0.1477273,
                "tempo": 120.0
            },
            {
                "start_time": 93.75,
                "end_time": 93.8977273,
                "pitch": 66,
                "velocity": 51,
                "duration": 0.1477273,
                "tempo": 120.0
            },
            {
                "start_time": 93.9090909,
                "end_time": 94.0545455,
                "pitch": 67,
                "velocity": 51,
                "duration": 0.1454545,
                "tempo": 120.0
            },
            {
                "start_time": 94.0659091,
                "end_time": 94.2113636,
                "pitch": 66,
                "velocity": 51,
                "duration": 0.1454545,
                "tempo": 120.0
            },
            {
                "start_time": 94.225,
                "end_time": 94.3727273,
                "pitch": 64,
                "velocity": 51,
                "duration": 0.1477273,
                "tempo": 120.0
            },
            {
                "start_time": 94.3863636,
                "end_time": 94.5340909,
                "pitch": 62,
                "velocity": 51,
                "duration": 0.1477273,
                "tempo": 120.0
            },
            {
                "start_time": 94.5477273,
                "end_time": 95.5022727,
                "pitch": 64,
                "velocity": 51,
                "duration": 0.9545455,
                "tempo": 120.0
            },
            {
                "start_time": 95.5159091,
                "end_time": 95.6590909,
                "pitch": 64,
                "velocity": 51,
                "duration": 0.1431818,
                "tempo": 120.0
            },
            {
                "start_time": 95.6727273,
                "end_time": 95.8181818,
                "pitch": 66,
                "velocity": 51,
                "duration": 0.1454545,
                "tempo": 120.0
            },
            {
                "start_time": 95.8318182,
                "end_time": 95.9795455,
                "pitch": 67,
                "velocity": 51,
                "duration": 0.1477273,
                "tempo": 120.0
            },
            {
                "start_time": 95.9931818,
                "end_time": 96.1409091,
                "pitch": 66,
                "velocity": 51,
                "duration": 0.1477273,
                "tempo": 120.0
            },
            {
                "start_time": 96.1545455,
                "end_time": 96.3,
                "pitch": 64,
                "velocity": 51,
                "duration": 0.1454545,
                "tempo": 120.0
            },
            {
                "start_time": 96.3136364,
                "end_time": 96.4613636,
                "pitch": 62,
                "velocity": 51,
                "duration": 0.1477273,
                "tempo": 120.0
            },
            {
                "start_time": 96.475,
                "end_time": 96.9431818,
                "pitch": 64,
                "velocity": 51,
                "duration": 0.4681818,
                "tempo": 120.0
            },
            {
                "start_time": 96.9545455,
                "end_time": 97.4318182,
                "pitch": 60,
                "velocity": 51,
                "duration": 0.4772727,
                "tempo": 120.0
            },
            {
                "start_time": 97.4454545,
                "end_time": 97.5909091,
                "pitch": 62,
                "velocity": 51,
                "duration": 0.1454545,
                "tempo": 120.0
            },
            {
                "start_time": 97.6045455,
                "end_time": 97.75,
                "pitch": 64,
                "velocity": 51,
                "duration": 0.1454545,
                "tempo": 120.0
            },
            {
                "start_time": 97.7636364,
                "end_time": 97.9068182,
                "pitch": 66,
                "velocity": 51,
                "duration": 0.1431818,
                "tempo": 120.0
            },
            {
                "start_time": 97.9204545,
                "end_time": 98.0659091,
                "pitch": 67,
                "velocity": 51,
                "duration": 0.1454545,
                "tempo": 120.0
            },
            {
                "start_time": 98.0795455,
                "end_time": 98.2295455,
                "pitch": 69,
                "velocity": 51,
                "duration": 0.15,
                "tempo": 120.0
            },
            {
                "start_time": 98.2431818,
                "end_time": 98.3931818,
                "pitch": 71,
                "velocity": 51,
                "duration": 0.15,
                "tempo": 120.0
            },
            {
                "start_time": 98.4045455,
                "end_time": 98.55,
                "pitch": 72,
                "velocity": 51,
                "duration": 0.1454545,
                "tempo": 120.0
            },
            {
                "start_time": 98.5613636,
                "end_time": 98.7068182,
                "pitch": 71,
                "velocity": 51,
                "duration": 0.1454545,
                "tempo": 120.0
            },
            {
                "start_time": 98.7204545,
                "end_time": 98.8681818,
                "pitch": 69,
                "velocity": 51,
                "duration": 0.1477273,
                "tempo": 120.0
            },
            {
                "start_time": 98.8818182,
                "end_time": 99.0295455,
                "pitch": 67,
                "velocity": 51,
                "duration": 0.1477273,
                "tempo": 120.0
            },
            {
                "start_time": 99.0431818,
                "end_time": 99.1954545,
                "pitch": 66,
                "velocity": 51,
                "duration": 0.1522727,
                "tempo": 120.0
            },
            {
                "start_time": 99.2090909,
                "end_time": 99.3590909,
                "pitch": 62,
                "velocity": 51,
                "duration": 0.15,
                "tempo": 120.0
            },
            {
                "start_time": 99.3704545,
                "end_time": 99.8363636,
                "pitch": 64,
                "velocity": 51,
                "duration": 0.4659091,
                "tempo": 120.0
            },
            {
                "start_time": 99.85,
                "end_time": 100.3227273,
                "pitch": 66,
                "velocity": 51,
                "duration": 0.4727273,
                "tempo": 120.0
            },
            {
                "start_time": 100.3363636,
                "end_time": 100.8,
                "pitch": 67,
                "velocity": 51,
                "duration": 0.4636364,
                "tempo": 120.0
            },
            {
                "start_time": 100.8136364,
                "end_time": 101.2795455,
                "pitch": 69,
                "velocity": 51,
                "duration": 0.4659091,
                "tempo": 120.0
            },
            {
                "start_time": 101.2909091,
                "end_time": 101.4386364,
                "pitch": 71,
                "velocity": 51,
                "duration": 0.1477273,
                "tempo": 120.0
            },
            {
                "start_time": 101.4522727,
                "end_time": 101.6,
                "pitch": 64,
                "velocity": 51,
                "duration": 0.1477273,
                "tempo": 120.0
            },
            {
                "start_time": 101.6136364,
                "end_time": 101.7613636,
                "pitch": 71,
                "velocity": 51,
                "duration": 0.1477273,
                "tempo": 120.0
            },
            {
                "start_time": 101.7727273,
                "end_time": 102.7272727,
                "pitch": 64,
                "velocity": 51,
                "duration": 0.9545455,
                "tempo": 120.0
            },
            {
                "start_time": 102.7409091,
                "end_time": 102.8840909,
                "pitch": 64,
                "velocity": 51,
                "duration": 0.1431818,
                "tempo": 120.0
            },
            {
                "start_time": 102.8977273,
                "end_time": 103.0454545,
                "pitch": 67,
                "velocity": 51,
                "duration": 0.1477273,
                "tempo": 120.0
            },
            {
                "start_time": 103.0590909,
                "end_time": 103.2068182,
                "pitch": 69,
                "velocity": 51,
                "duration": 0.1477273,
                "tempo": 120.0
            },
            {
                "start_time": 103.2204545,
                "end_time": 103.3659091,
                "pitch": 71,
                "velocity": 51,
                "duration": 0.1454545,
                "tempo": 120.0
            },
            {
                "start_time": 103.3795455,
                "end_time": 103.5272727,
                "pitch": 64,
                "velocity": 51,
                "duration": 0.1477273,
                "tempo": 120.0
            },
            {
                "start_time": 103.5409091,
                "end_time": 103.6886364,
                "pitch": 71,
                "velocity": 51,
                "duration": 0.1477273,
                "tempo": 120.0
            },
            {
                "start_time": 103.7022727,
                "end_time": 104.6568182,
                "pitch": 64,
                "velocity": 51,
                "duration": 0.9545455,
                "tempo": 120.0
            },
            {
                "start_time": 104.6681818,
                "end_time": 105.1409091,
                "pitch": 76,
                "velocity": 51,
                "duration": 0.4727273,
                "tempo": 120.0
            },
            {
                "start_time": 105.1545455,
                "end_time": 106.1068182,
                "pitch": 74,
                "velocity": 51,
                "duration": 0.9522727,
                "tempo": 120.0
            },
            {
                "start_time": 106.1204545,
                "end_time": 106.5886364,
                "pitch": 78,
                "velocity": 51,
                "duration": 0.4681818,
                "tempo": 120.0
            },
            {
                "start_time": 106.6022727,
                "end_time": 107.0704545,
                "pitch": 81,
                "velocity": 51,
                "duration": 0.4681818,
                "tempo": 120.0
            }
        ],
        "Church Organ": [
            {
                "start_time": 0.0136364,
                "end_time": 2.6272727,
                "pitch": 40,
                "velocity": 80,
                "duration": 2.6136364,
                "tempo": 120.0
            },
            {
                "start_time": 2.6477273,
                "end_time": 5.5295455,
                "pitch": 40,
                "velocity": 80,
                "duration": 2.8818182,
                "tempo": 120.0
            }
        ],
        "Acoustic Guitar (nylon)": [
            {
                "start_time": 6.2681818,
                "end_time": 6.9772727,
                "pitch": 40,
                "velocity": 80,
                "duration": 0.7090909,
                "tempo": 120.0
            },
            {
                "start_time": 6.9954545,
                "end_time": 7.6954545,
                "pitch": 40,
                "velocity": 80,
                "duration": 0.7,
                "tempo": 120.0
            },
            {
                "start_time": 7.7159091,
                "end_time": 8.4159091,
                "pitch": 40,
                "velocity": 80,
                "duration": 0.7,
                "tempo": 120.0
            },
            {
                "start_time": 8.4363636,
                "end_time": 9.1431818,
                "pitch": 40,
                "velocity": 80,
                "duration": 0.7068182,
                "tempo": 120.0
            },
            {
                "start_time": 9.1636364,
                "end_time": 9.8636364,
                "pitch": 40,
                "velocity": 80,
                "duration": 0.7,
                "tempo": 120.0
            },
            {
                "start_time": 9.8840909,
                "end_time": 10.5909091,
                "pitch": 40,
                "velocity": 80,
                "duration": 0.7068182,
                "tempo": 120.0
            },
            {
                "start_time": 10.6113636,
                "end_time": 11.3113636,
                "pitch": 40,
                "velocity": 80,
                "duration": 0.7,
                "tempo": 120.0
            },
            {
                "start_time": 11.3318182,
                "end_time": 12.0318182,
                "pitch": 40,
                "velocity": 80,
                "duration": 0.7,
                "tempo": 120.0
            },
            {
                "start_time": 12.05,
                "end_time": 12.75,
                "pitch": 40,
                "velocity": 80,
                "duration": 0.7,
                "tempo": 120.0
            },
            {
                "start_time": 12.7704545,
                "end_time": 13.4772727,
                "pitch": 40,
                "velocity": 80,
                "duration": 0.7068182,
                "tempo": 120.0
            },
            {
                "start_time": 13.4977273,
                "end_time": 14.1977273,
                "pitch": 40,
                "velocity": 80,
                "duration": 0.7,
                "tempo": 120.0
            },
            {
                "start_time": 14.2181818,
                "end_time": 14.9181818,
                "pitch": 40,
                "velocity": 80,
                "duration": 0.7,
                "tempo": 120.0
            },
            {
                "start_time": 14.9386364,
                "end_time": 15.6386364,
                "pitch": 40,
                "velocity": 80,
                "duration": 0.7,
                "tempo": 120.0
            },
            {
                "start_time": 15.6590909,
                "end_time": 16.3590909,
                "pitch": 40,
                "velocity": 80,
                "duration": 0.7,
                "tempo": 120.0
            },
            {
                "start_time": 16.3772727,
                "end_time": 17.0863636,
                "pitch": 40,
                "velocity": 80,
                "duration": 0.7090909,
                "tempo": 120.0
            },
            {
                "start_time": 17.1045455,
                "end_time": 17.8045455,
                "pitch": 38,
                "velocity": 80,
                "duration": 0.7,
                "tempo": 120.0
            },
            {
                "start_time": 17.825,
                "end_time": 18.525,
                "pitch": 38,
                "velocity": 80,
                "duration": 0.7,
                "tempo": 120.0
            },
            {
                "start_time": 18.5454545,
                "end_time": 19.2454545,
                "pitch": 38,
                "velocity": 80,
                "duration": 0.7,
                "tempo": 120.0
            },
            {
                "start_time": 19.2659091,
                "end_time": 19.9659091,
                "pitch": 38,
                "velocity": 80,
                "duration": 0.7,
                "tempo": 120.0
            },
            {
                "start_time": 19.9863636,
                "end_time": 20.6931818,
                "pitch": 38,
                "velocity": 80,
                "duration": 0.7068182,
                "tempo": 120.0
            },
            {
                "start_time": 20.7136364,
                "end_time": 21.4136364,
                "pitch": 38,
                "velocity": 80,
                "duration": 0.7,
                "tempo": 120.0
            },
            {
                "start_time": 21.4318182,
                "end_time": 22.1409091,
                "pitch": 38,
                "velocity": 80,
                "duration": 0.7090909,
                "tempo": 120.0
            },
            {
                "start_time": 22.1590909,
                "end_time": 22.8681818,
                "pitch": 38,
                "velocity": 80,
                "duration": 0.7090909,
                "tempo": 120.0
            },
            {
                "start_time": 22.8863636,
                "end_time": 23.5863636,
                "pitch": 36,
                "velocity": 80,
                "duration": 0.7,
                "tempo": 120.0
            },
            {
                "start_time": 23.6068182,
                "end_time": 24.3136364,
                "pitch": 36,
                "velocity": 80,
                "duration": 0.7068182,
                "tempo": 120.0
            },
            {
                "start_time": 24.3340909,
                "end_time": 25.0340909,
                "pitch": 36,
                "velocity": 80,
                "duration": 0.7,
                "tempo": 120.0
            },
            {
                "start_time": 25.0545455,
                "end_time": 25.7613636,
                "pitch": 36,
                "velocity": 80,
                "duration": 0.7068182,
                "tempo": 120.0
            },
            {
                "start_time": 25.7818182,
                "end_time": 26.4886364,
                "pitch": 36,
                "velocity": 80,
                "duration": 0.7068182,
                "tempo": 120.0
            },
            {
                "start_time": 26.5090909,
                "end_time": 27.2090909,
                "pitch": 36,
                "velocity": 80,
                "duration": 0.7,
                "tempo": 120.0
            },
            {
                "start_time": 27.2295455,
                "end_time": 27.9363636,
                "pitch": 36,
                "velocity": 80,
                "duration": 0.7068182,
                "tempo": 120.0
            },
            {
                "start_time": 27.9568182,
                "end_time": 28.6568182,
                "pitch": 36,
                "velocity": 80,
                "duration": 0.7,
                "tempo": 120.0
            },
            {
                "start_time": 28.6772727,
                "end_time": 29.3840909,
                "pitch": 35,
                "velocity": 80,
                "duration": 0.7068182,
                "tempo": 120.0
            },
            {
                "start_time": 29.4045455,
                "end_time": 30.1113636,
                "pitch": 35,
                "velocity": 80,
                "duration": 0.7068182,
                "tempo": 120.0
            },
            {
                "start_time": 30.1318182,
                "end_time": 30.8318182,
                "pitch": 35,
                "velocity": 80,
                "duration": 0.7,
                "tempo": 120.0
            },
            {
                "start_time": 30.85,
                "end_time": 31.5590909,
                "pitch": 35,
                "velocity": 80,
                "duration": 0.7090909,
                "tempo": 120.0
            },
            {
                "start_time": 31.5772727,
                "end_time": 32.2772727,
                "pitch": 35,
                "velocity": 80,
                "duration": 0.7,
                "tempo": 120.0
            },
            {
                "start_time": 32.2977273,
                "end_time": 33.0045455,
                "pitch": 35,
                "velocity": 80,
                "duration": 0.7068182,
                "tempo": 120.0
            },
            {
                "start_time": 33.025,
                "end_time": 33.2477273,
                "pitch": 35,
                "velocity": 80,
                "duration": 0.2227273,
                "tempo": 120.0
            },
            {
                "start_time": 33.2681818,
                "end_time": 33.4909091,
                "pitch": 35,
                "velocity": 80,
                "duration": 0.2227273,
                "tempo": 120.0
            },
            {
                "start_time": 33.5113636,
                "end_time": 33.7318182,
                "pitch": 35,
                "velocity": 80,
                "duration": 0.2204545,
                "tempo": 120.0
            },
            {
                "start_time": 33.7522727,
                "end_time": 33.9727273,
                "pitch": 35,
                "velocity": 80,
                "duration": 0.2204545,
                "tempo": 120.0
            },
            {
                "start_time": 33.9931818,
                "end_time": 34.2136364,
                "pitch": 35,
                "velocity": 80,
                "duration": 0.2204545,
                "tempo": 120.0
            },
            {
                "start_time": 34.2318182,
                "end_time": 34.4522727,
                "pitch": 35,
                "velocity": 80,
                "duration": 0.2204545,
                "tempo": 120.0
            },
            {
                "start_time": 34.4727273,
                "end_time": 34.6977273,
                "pitch": 40,
                "velocity": 80,
                "duration": 0.225,
                "tempo": 120.0
            },
            {
                "start_time": 34.7181818,
                "end_time": 34.9409091,
                "pitch": 52,
                "velocity": 80,
                "duration": 0.2227273,
                "tempo": 120.0
            },
            {
                "start_time": 34.9613636,
                "end_time": 35.1863636,
                "pitch": 40,
                "velocity": 80,
                "duration": 0.225,
                "tempo": 120.0
            },
            {
                "start_time": 35.2068182,
                "end_time": 35.425,
                "pitch": 40,
                "velocity": 80,
                "duration": 0.2181818,
                "tempo": 120.0
            },
            {
                "start_time": 35.4454545,
                "end_time": 35.6636364,
                "pitch": 52,
                "velocity": 80,
                "duration": 0.2181818,
                "tempo": 120.0
            },
            {
                "start_time": 35.6818182,
                "end_time": 35.9,
                "pitch": 40,
                "velocity": 80,
                "duration": 0.2181818,
                "tempo": 120.0
            },
            {
                "start_time": 35.9204545,
                "end_time": 36.1431818,
                "pitch": 40,
                "velocity": 80,
                "duration": 0.2227273,
                "tempo": 120.0
            },
            {
                "start_time": 36.1636364,
                "end_time": 36.3840909,
                "pitch": 52,
                "velocity": 80,
                "duration": 0.2204545,
                "tempo": 120.0
            },
            {
                "start_time": 36.4045455,
                "end_time": 36.6272727,
                "pitch": 40,
                "velocity": 80,
                "duration": 0.2227273,
                "tempo": 120.0
            },
            {
                "start_time": 36.6477273,
                "end_time": 36.8659091,
                "pitch": 40,
                "velocity": 80,
                "duration": 0.2181818,
                "tempo": 120.0
            },
            {
                "start_time": 36.8840909,
                "end_time": 37.1022727,
                "pitch": 52,
                "velocity": 80,
                "duration": 0.2181818,
                "tempo": 120.0
            },
            {
                "start_time": 37.1227273,
                "end_time": 37.3409091,
                "pitch": 40,
                "velocity": 80,
                "duration": 0.2181818,
                "tempo": 120.0
            },
            {
                "start_time": 37.3613636,
                "end_time": 37.5818182,
                "pitch": 36,
                "velocity": 80,
                "duration": 0.2204545,
                "tempo": 120.0
            },
            {
                "start_time": 37.6022727,
                "end_time": 37.825,
                "pitch": 48,
                "velocity": 80,
                "duration": 0.2227273,
                "tempo": 120.0
            },
            {
                "start_time": 37.8454545,
                "end_time": 38.0681818,
                "pitch": 36,
                "velocity": 80,
                "duration": 0.2227273,
                "tempo": 120.0
            },
            {
                "start_time": 38.0886364,
                "end_time": 38.3113636,
                "pitch": 36,
                "velocity": 80,
                "duration": 0.2227273,
                "tempo": 120.0
            },
            {
                "start_time": 38.3318182,
                "end_time": 38.5568182,
                "pitch": 48,
                "velocity": 80,
                "duration": 0.225,
                "tempo": 120.0
            },
            {
                "start_time": 38.5772727,
                "end_time": 38.8022727,
                "pitch": 36,
                "velocity": 80,
                "duration": 0.225,
                "tempo": 120.0
            },
            {
                "start_time": 38.8227273,
                "end_time": 39.0386364,
                "pitch": 36,
                "velocity": 80,
                "duration": 0.2159091,
                "tempo": 120.0
            },
            {
                "start_time": 39.0590909,
                "end_time": 39.2772727,
                "pitch": 48,
                "velocity": 80,
                "duration": 0.2181818,
                "tempo": 120.0
            },
            {
                "start_time": 39.2977273,
                "end_time": 39.5159091,
                "pitch": 36,
                "velocity": 80,
                "duration": 0.2181818,
                "tempo": 120.0
            },
            {
                "start_time": 39.5340909,
                "end_time": 39.7568182,
                "pitch": 36,
                "velocity": 80,
                "duration": 0.2227273,
                "tempo": 120.0
            },
            {
                "start_time": 39.7772727,
                "end_time": 40.0,
                "pitch": 48,
                "velocity": 80,
                "duration": 0.2227273,
                "tempo": 120.0
            },
            {
                "start_time": 40.0204545,
                "end_time": 40.2431818,
                "pitch": 36,
                "velocity": 80,
                "duration": 0.2227273,
                "tempo": 120.0
            },
            {
                "start_time": 40.2613636,
                "end_time": 40.4840909,
                "pitch": 38,
                "velocity": 80,
                "duration": 0.2227273,
                "tempo": 120.0
            },
            {
                "start_time": 40.5045455,
                "end_time": 40.7272727,
                "pitch": 50,
                "velocity": 80,
                "duration": 0.2227273,
                "tempo": 120.0
            },
            {
                "start_time": 40.7477273,
                "end_time": 40.9704545,
                "pitch": 38,
                "velocity": 80,
                "duration": 0.2227273,
                "tempo": 120.0
            },
            {
                "start_time": 40.9886364,
                "end_time": 41.2090909,
                "pitch": 38,
                "velocity": 80,
                "duration": 0.2204545,
                "tempo": 120.0
            },
            {
                "start_time": 41.2295455,
                "end_time": 41.45,
                "pitch": 50,
                "velocity": 80,
                "duration": 0.2204545,
                "tempo": 120.0
            },
            {
                "start_time": 41.4704545,
                "end_time": 41.6886364,
                "pitch": 38,
                "velocity": 80,
                "duration": 0.2181818,
                "tempo": 120.0
            },
            {
                "start_time": 41.7090909,
                "end_time": 41.9318182,
                "pitch": 38,
                "velocity": 80,
                "duration": 0.2227273,
                "tempo": 120.0
            },
            {
                "start_time": 41.9522727,
                "end_time": 42.175,
                "pitch": 50,
                "velocity": 80,
                "duration": 0.2227273,
                "tempo": 120.0
            },
            {
                "start_time": 42.1954545,
                "end_time": 42.4159091,
                "pitch": 38,
                "velocity": 80,
                "duration": 0.2204545,
                "tempo": 120.0
            },
            {
                "start_time": 42.4363636,
                "end_time": 42.6590909,
                "pitch": 38,
                "velocity": 80,
                "duration": 0.2227273,
                "tempo": 120.0
            },
            {
                "start_time": 42.6795455,
                "end_time": 42.9022727,
                "pitch": 50,
                "velocity": 80,
                "duration": 0.2227273,
                "tempo": 120.0
            },
            {
                "start_time": 42.9227273,
                "end_time": 43.1431818,
                "pitch": 38,
                "velocity": 80,
                "duration": 0.2204545,
                "tempo": 120.0
            },
            {
                "start_time": 43.1636364,
                "end_time": 43.3863636,
                "pitch": 40,
                "velocity": 80,
                "duration": 0.2227273,
                "tempo": 120.0
            },
            {
                "start_time": 43.4068182,
                "end_time": 43.6295455,
                "pitch": 52,
                "velocity": 80,
                "duration": 0.2227273,
                "tempo": 120.0
            },
            {
                "start_time": 43.65,
                "end_time": 43.8704545,
                "pitch": 40,
                "velocity": 80,
                "duration": 0.2204545,
                "tempo": 120.0
            },
            {
                "start_time": 43.8909091,
                "end_time": 44.1136364,
                "pitch": 38,
                "velocity": 80,
                "duration": 0.2227273,
                "tempo": 120.0
            },
            {
                "start_time": 44.1340909,
                "end_time": 44.3568182,
                "pitch": 50,
                "velocity": 80,
                "duration": 0.2227273,
                "tempo": 120.0
            },
            {
                "start_time": 44.3772727,
                "end_time": 44.5977273,
                "pitch": 38,
                "velocity": 80,
                "duration": 0.2204545,
                "tempo": 120.0
            },
            {
                "start_time": 44.6181818,
                "end_time": 44.8386364,
                "pitch": 36,
                "velocity": 80,
                "duration": 0.2204545,
                "tempo": 120.0
            },
            {
                "start_time": 44.8590909,
                "end_time": 45.0795455,
                "pitch": 48,
                "velocity": 80,
                "duration": 0.2204545,
                "tempo": 120.0
            },
            {
                "start_time": 45.0977273,
                "end_time": 45.3181818,
                "pitch": 36,
                "velocity": 80,
                "duration": 0.2204545,
                "tempo": 120.0
            },
            {
                "start_time": 45.3386364,
                "end_time": 45.5613636,
                "pitch": 35,
                "velocity": 80,
                "duration": 0.2227273,
                "tempo": 120.0
            },
            {
                "start_time": 45.5818182,
                "end_time": 45.8022727,
                "pitch": 47,
                "velocity": 80,
                "duration": 0.2204545,
                "tempo": 120.0
            },
            {
                "start_time": 45.8227273,
                "end_time": 46.0454545,
                "pitch": 35,
                "velocity": 80,
                "duration": 0.2227273,
                "tempo": 120.0
            },
            {
                "start_time": 46.0659091,
                "end_time": 46.2886364,
                "pitch": 40,
                "velocity": 80,
                "duration": 0.2227273,
                "tempo": 120.0
            },
            {
                "start_time": 46.3090909,
                "end_time": 46.5295455,
                "pitch": 52,
                "velocity": 80,
                "duration": 0.2204545,
                "tempo": 120.0
            },
            {
                "start_time": 46.55,
                "end_time": 46.7727273,
                "pitch": 40,
                "velocity": 80,
                "duration": 0.2227273,
                "tempo": 120.0
            },
            {
                "start_time": 46.7931818,
                "end_time": 47.0159091,
                "pitch": 40,
                "velocity": 80,
                "duration": 0.2227273,
                "tempo": 120.0
            },
            {
                "start_time": 47.0363636,
                "end_time": 47.2568182,
                "pitch": 52,
                "velocity": 80,
                "duration": 0.2204545,
                "tempo": 120.0
            },
            {
                "start_time": 47.2772727,
                "end_time": 47.5,
                "pitch": 40,
                "velocity": 80,
                "duration": 0.2227273,
                "tempo": 120.0
            },
            {
                "start_time": 47.5204545,
                "end_time": 47.7431818,
                "pitch": 40,
                "velocity": 80,
                "duration": 0.2227273,
                "tempo": 120.0
            },
            {
                "start_time": 47.7636364,
                "end_time": 47.9840909,
                "pitch": 52,
                "velocity": 80,
                "duration": 0.2204545,
                "tempo": 120.0
            },
            {
                "start_time": 48.0045455,
                "end_time": 48.2272727,
                "pitch": 40,
                "velocity": 80,
                "duration": 0.2227273,
                "tempo": 120.0
            },
            {
                "start_time": 48.2477273,
                "end_time": 48.4681818,
                "pitch": 40,
                "velocity": 80,
                "duration": 0.2204545,
                "tempo": 120.0
            },
            {
                "start_time": 48.4886364,
                "end_time": 48.7068182,
                "pitch": 52,
                "velocity": 80,
                "duration": 0.2181818,
                "tempo": 120.0
            },
            {
                "start_time": 48.7272727,
                "end_time": 48.9477273,
                "pitch": 40,
                "velocity": 80,
                "duration": 0.2204545,
                "tempo": 120.0
            },
            {
                "start_time": 48.9681818,
                "end_time": 49.1909091,
                "pitch": 36,
                "velocity": 80,
                "duration": 0.2227273,
                "tempo": 120.0
            },
            {
                "start_time": 49.2090909,
                "end_time": 49.4318182,
                "pitch": 48,
                "velocity": 80,
                "duration": 0.2227273,
                "tempo": 120.0
            },
            {
                "start_time": 49.4522727,
                "end_time": 49.675,
                "pitch": 36,
                "velocity": 80,
                "duration": 0.2227273,
                "tempo": 120.0
            },
            {
                "start_time": 49.6954545,
                "end_time": 49.9181818,
                "pitch": 36,
                "velocity": 80,
                "duration": 0.2227273,
                "tempo": 120.0
            },
            {
                "start_time": 49.9363636,
                "end_time": 50.1590909,
                "pitch": 48,
                "velocity": 80,
                "duration": 0.2227273,
                "tempo": 120.0
            },
            {
                "start_time": 50.1795455,
                "end_time": 50.4022727,
                "pitch": 36,
                "velocity": 80,
                "duration": 0.2227273,
                "tempo": 120.0
            },
            {
                "start_time": 50.4227273,
                "end_time": 50.6477273,
                "pitch": 36,
                "velocity": 80,
                "duration": 0.225,
                "tempo": 120.0
            },
            {
                "start_time": 50.6681818,
                "end_time": 50.8909091,
                "pitch": 48,
                "velocity": 80,
                "duration": 0.2227273,
                "tempo": 120.0
            },
            {
                "start_time": 50.9113636,
                "end_time": 51.1363636,
                "pitch": 36,
                "velocity": 80,
                "duration": 0.225,
                "tempo": 120.0
            },
            {
                "start_time": 51.1568182,
                "end_time": 51.375,
                "pitch": 36,
                "velocity": 80,
                "duration": 0.2181818,
                "tempo": 120.0
            },
            {
                "start_time": 51.3931818,
                "end_time": 51.6113636,
                "pitch": 48,
                "velocity": 80,
                "duration": 0.2181818,
                "tempo": 120.0
            },
            {
                "start_time": 51.6318182,
                "end_time": 51.85,
                "pitch": 36,
                "velocity": 80,
                "duration": 0.2181818,
                "tempo": 120.0
            },
            {
                "start_time": 51.8704545,
                "end_time": 52.0886364,
                "pitch": 38,
                "velocity": 80,
                "duration": 0.2181818,
                "tempo": 120.0
            },
            {
                "start_time": 52.1090909,
                "end_time": 52.3295455,
                "pitch": 50,
                "velocity": 80,
                "duration": 0.2204545,
                "tempo": 120.0
            },
            {
                "start_time": 52.35,
                "end_time": 52.5704545,
                "pitch": 38,
                "velocity": 80,
                "duration": 0.2204545,
                "tempo": 120.0
            },
            {
                "start_time": 52.5886364,
                "end_time": 52.8113636,
                "pitch": 38,
                "velocity": 80,
                "duration": 0.2227273,
                "tempo": 120.0
            },
            {
                "start_time": 52.8318182,
                "end_time": 53.0545455,
                "pitch": 50,
                "velocity": 80,
                "duration": 0.2227273,
                "tempo": 120.0
            },
            {
                "start_time": 53.075,
                "end_time": 53.2977273,
                "pitch": 38,
                "velocity": 80,
                "duration": 0.2227273,
                "tempo": 120.0
            },
            {
                "start_time": 53.3159091,
                "end_time": 53.5409091,
                "pitch": 38,
                "velocity": 80,
                "duration": 0.225,
                "tempo": 120.0
            },
            {
                "start_time": 53.5613636,
                "end_time": 53.7863636,
                "pitch": 50,
                "velocity": 80,
                "duration": 0.225,
                "tempo": 120.0
            },
            {
                "start_time": 53.8068182,
                "end_time": 54.0318182,
                "pitch": 38,
                "velocity": 80,
                "duration": 0.225,
                "tempo": 120.0
            },
            {
                "start_time": 54.0522727,
                "end_time": 54.2681818,
                "pitch": 38,
                "velocity": 80,
                "duration": 0.2159091,
                "tempo": 120.0
            },
            {
                "start_time": 54.2886364,
                "end_time": 54.5068182,
                "pitch": 50,
                "velocity": 80,
                "duration": 0.2181818,
                "tempo": 120.0
            },
            {
                "start_time": 54.5272727,
                "end_time": 54.7454545,
                "pitch": 38,
                "velocity": 80,
                "duration": 0.2181818,
                "tempo": 120.0
            },
            {
                "start_time": 54.7636364,
                "end_time": 57.6318182,
                "pitch": 40,
                "velocity": 80,
                "duration": 2.8681818,
                "tempo": 120.0
            },
            {
                "start_time": 57.6522727,
                "end_time": 59.0954545,
                "pitch": 36,
                "velocity": 80,
                "duration": 1.4431818,
                "tempo": 120.0
            },
            {
                "start_time": 59.1136364,
                "end_time": 60.5704545,
                "pitch": 38,
                "velocity": 80,
                "duration": 1.4568182,
                "tempo": 120.0
            },
            {
                "start_time": 60.5909091,
                "end_time": 62.0045455,
                "pitch": 40,
                "velocity": 80,
                "duration": 1.4136364,
                "tempo": 120.0
            },
            {
                "start_time": 62.025,
                "end_time": 63.4522727,
                "pitch": 40,
                "velocity": 80,
                "duration": 1.4272727,
                "tempo": 120.0
            },
            {
                "start_time": 63.4727273,
                "end_time": 64.9,
                "pitch": 36,
                "velocity": 80,
                "duration": 1.4272727,
                "tempo": 120.0
            },
            {
                "start_time": 64.9181818,
                "end_time": 66.3613636,
                "pitch": 38,
                "velocity": 80,
                "duration": 1.4431818,
                "tempo": 120.0
            },
            {
                "start_time": 66.3795455,
                "end_time": 68.5340909,
                "pitch": 40,
                "velocity": 80,
                "duration": 2.1545455,
                "tempo": 120.0
            },
            {
                "start_time": 68.5545455,
                "end_time": 69.2477273,
                "pitch": 38,
                "velocity": 80,
                "duration": 0.6931818,
                "tempo": 120.0
            },
            {
                "start_time": 69.2681818,
                "end_time": 70.6954545,
                "pitch": 36,
                "velocity": 80,
                "duration": 1.4272727,
                "tempo": 120.0
            },
            {
                "start_time": 70.7159091,
                "end_time": 72.15,
                "pitch": 38,
                "velocity": 80,
                "duration": 1.4340909,
                "tempo": 120.0
            },
            {
                "start_time": 72.1704545,
                "end_time": 73.6045455,
                "pitch": 43,
                "velocity": 80,
                "duration": 1.4340909,
                "tempo": 120.0
            },
            {
                "start_time": 73.625,
                "end_time": 75.0590909,
                "pitch": 40,
                "velocity": 80,
                "duration": 1.4340909,
                "tempo": 120.0
            },
            {
                "start_time": 75.0795455,
                "end_time": 76.4772727,
                "pitch": 36,
                "velocity": 80,
                "duration": 1.3977273,
                "tempo": 120.0
            },
            {
                "start_time": 76.4977273,
                "end_time": 77.9386364,
                "pitch": 38,
                "velocity": 80,
                "duration": 1.4409091,
                "tempo": 120.0
            },
            {
                "start_time": 77.9590909,
                "end_time": 78.1795455,
                "pitch": 40,
                "velocity": 80,
                "duration": 0.2204545,
                "tempo": 120.0
            },
            {
                "start_time": 78.2,
                "end_time": 78.4204545,
                "pitch": 40,
                "velocity": 80,
                "duration": 0.2204545,
                "tempo": 120.0
            },
            {
                "start_time": 78.4363636,
                "end_time": 78.5795455,
                "pitch": 40,
                "velocity": 80,
                "duration": 0.1431818,
                "tempo": 120.0
            },
            {
                "start_time": 78.5931818,
                "end_time": 78.7363636,
                "pitch": 40,
                "velocity": 80,
                "duration": 0.1431818,
                "tempo": 120.0
            },
            {
                "start_time": 78.75,
                "end_time": 78.8977273,
                "pitch": 40,
                "velocity": 80,
                "duration": 0.1477273,
                "tempo": 120.0
            },
            {
                "start_time": 78.9113636,
                "end_time": 79.0590909,
                "pitch": 40,
                "velocity": 80,
                "duration": 0.1477273,
                "tempo": 120.0
            },
            {
                "start_time": 79.0704545,
                "end_time": 79.2227273,
                "pitch": 40,
                "velocity": 80,
                "duration": 0.1522727,
                "tempo": 120.0
            },
            {
                "start_time": 79.2363636,
                "end_time": 79.3863636,
                "pitch": 40,
                "velocity": 80,
                "duration": 0.15,
                "tempo": 120.0
            },
            {
                "start_time": 79.4,
                "end_time": 79.5431818,
                "pitch": 40,
                "velocity": 80,
                "duration": 0.1431818,
                "tempo": 120.0
            },
            {
                "start_time": 79.5568182,
                "end_time": 79.7,
                "pitch": 40,
                "velocity": 80,
                "duration": 0.1431818,
                "tempo": 120.0
            },
            {
                "start_time": 79.7136364,
                "end_time": 79.8613636,
                "pitch": 40,
                "velocity": 80,
                "duration": 0.1477273,
                "tempo": 120.0
            },
            {
                "start_time": 79.875,
                "end_time": 80.0227273,
                "pitch": 40,
                "velocity": 80,
                "duration": 0.1477273,
                "tempo": 120.0
            },
            {
                "start_time": 80.0363636,
                "end_time": 80.1818182,
                "pitch": 36,
                "velocity": 80,
                "duration": 0.1454545,
                "tempo": 120.0
            },
            {
                "start_time": 80.1954545,
                "end_time": 80.3431818,
                "pitch": 48,
                "velocity": 80,
                "duration": 0.1477273,
                "tempo": 120.0
            },
            {
                "start_time": 80.3568182,
                "end_time": 80.5045455,
                "pitch": 36,
                "velocity": 80,
                "duration": 0.1477273,
                "tempo": 120.0
            },
            {
                "start_time": 80.5159091,
                "end_time": 80.6636364,
                "pitch": 36,
                "velocity": 80,
                "duration": 0.1477273,
                "tempo": 120.0
            },
            {
                "start_time": 80.6772727,
                "end_time": 80.825,
                "pitch": 48,
                "velocity": 80,
                "duration": 0.1477273,
                "tempo": 120.0
            },
            {
                "start_time": 80.8386364,
                "end_time": 80.9840909,
                "pitch": 36,
                "velocity": 80,
                "duration": 0.1454545,
                "tempo": 120.0
            },
            {
                "start_time": 80.9977273,
                "end_time": 81.1454545,
                "pitch": 36,
                "velocity": 80,
                "duration": 0.1477273,
                "tempo": 120.0
            },
            {
                "start_time": 81.1590909,
                "end_time": 81.3068182,
                "pitch": 48,
                "velocity": 80,
                "duration": 0.1477273,
                "tempo": 120.0
            },
            {
                "start_time": 81.3204545,
                "end_time": 81.4681818,
                "pitch": 36,
                "velocity": 80,
                "duration": 0.1477273,
                "tempo": 120.0
            },
            {
                "start_time": 81.4818182,
                "end_time": 81.6295455,
                "pitch": 36,
                "velocity": 80,
                "duration": 0.1477273,
                "tempo": 120.0
            },
            {
                "start_time": 81.6431818,
                "end_time": 81.7931818,
                "pitch": 48,
                "velocity": 80,
                "duration": 0.15,
                "tempo": 120.0
            },
            {
                "start_time": 81.8068182,
                "end_time": 81.9568182,
                "pitch": 36,
                "velocity": 80,
                "duration": 0.15,
                "tempo": 120.0
            },
            {
                "start_time": 81.9704545,
                "end_time": 82.1136364,
                "pitch": 38,
                "velocity": 80,
                "duration": 0.1431818,
                "tempo": 120.0
            },
            {
                "start_time": 82.1272727,
                "end_time": 82.2704545,
                "pitch": 50,
                "velocity": 80,
                "duration": 0.1431818,
                "tempo": 120.0
            },
            {
                "start_time": 82.2840909,
                "end_time": 82.4318182,
                "pitch": 38,
                "velocity": 80,
                "duration": 0.1477273,
                "tempo": 120.0
            },
            {
                "start_time": 82.4454545,
                "end_time": 82.5909091,
                "pitch": 38,
                "velocity": 80,
                "duration": 0.1454545,
                "tempo": 120.0
            },
            {
                "start_time": 82.6045455,
                "end_time": 82.7545455,
                "pitch": 50,
                "velocity": 80,
                "duration": 0.15,
                "tempo": 120.0
            },
            {
                "start_time": 82.7681818,
                "end_time": 82.9204545,
                "pitch": 38,
                "velocity": 80,
                "duration": 0.1522727,
                "tempo": 120.0
            },
            {
                "start_time": 82.9340909,
                "end_time": 83.0772727,
                "pitch": 38,
                "velocity": 80,
                "duration": 0.1431818,
                "tempo": 120.0
            },
            {
                "start_time": 83.0909091,
                "end_time": 83.2340909,
                "pitch": 50,
                "velocity": 80,
                "duration": 0.1431818,
                "tempo": 120.0
            },
            {
                "start_time": 83.2477273,
                "end_time": 83.3931818,
                "pitch": 38,
                "velocity": 80,
                "duration": 0.1454545,
                "tempo": 120.0
            },
            {
                "start_time": 83.4068182,
                "end_time": 83.5545455,
                "pitch": 38,
                "velocity": 80,
                "duration": 0.1477273,
                "tempo": 120.0
            },
            {
                "start_time": 83.5659091,
                "end_time": 83.7181818,
                "pitch": 50,
                "velocity": 80,
                "duration": 0.1522727,
                "tempo": 120.0
            },
            {
                "start_time": 83.7318182,
                "end_time": 83.8818182,
                "pitch": 38,
                "velocity": 80,
                "duration": 0.15,
                "tempo": 120.0
            },
            {
                "start_time": 83.8954545,
                "end_time": 84.0386364,
                "pitch": 33,
                "velocity": 80,
                "duration": 0.1431818,
                "tempo": 120.0
            },
            {
                "start_time": 84.0522727,
                "end_time": 84.1954545,
                "pitch": 45,
                "velocity": 80,
                "duration": 0.1431818,
                "tempo": 120.0
            },
            {
                "start_time": 84.2090909,
                "end_time": 84.3568182,
                "pitch": 33,
                "velocity": 80,
                "duration": 0.1477273,
                "tempo": 120.0
            },
            {
                "start_time": 84.3704545,
                "end_time": 84.5181818,
                "pitch": 33,
                "velocity": 80,
                "duration": 0.1477273,
                "tempo": 120.0
            },
            {
                "start_time": 84.5318182,
                "end_time": 84.6818182,
                "pitch": 45,
                "velocity": 80,
                "duration": 0.15,
                "tempo": 120.0
            },
            {
                "start_time": 84.6954545,
                "end_time": 84.8454545,
                "pitch": 33,
                "velocity": 80,
                "duration": 0.15,
                "tempo": 120.0
            },
            {
                "start_time": 84.8590909,
                "end_time": 85.0045455,
                "pitch": 33,
                "velocity": 80,
                "duration": 0.1454545,
                "tempo": 120.0
            },
            {
                "start_time": 85.0159091,
                "end_time": 85.1613636,
                "pitch": 45,
                "velocity": 80,
                "duration": 0.1454545,
                "tempo": 120.0
            },
            {
                "start_time": 85.1727273,
                "end_time": 85.3204545,
                "pitch": 33,
                "velocity": 80,
                "duration": 0.1477273,
                "tempo": 120.0
            },
            {
                "start_time": 85.3340909,
                "end_time": 85.4818182,
                "pitch": 33,
                "velocity": 80,
                "duration": 0.1477273,
                "tempo": 120.0
            },
            {
                "start_time": 85.4954545,
                "end_time": 85.6454545,
                "pitch": 45,
                "velocity": 80,
                "duration": 0.15,
                "tempo": 120.0
            },
            {
                "start_time": 85.6613636,
                "end_time": 85.8113636,
                "pitch": 33,
                "velocity": 80,
                "duration": 0.15,
                "tempo": 120.0
            },
            {
                "start_time": 85.825,
                "end_time": 85.9681818,
                "pitch": 35,
                "velocity": 80,
                "duration": 0.1431818,
                "tempo": 120.0
            },
            {
                "start_time": 85.9818182,
                "end_time": 86.125,
                "pitch": 47,
                "velocity": 80,
                "duration": 0.1431818,
                "tempo": 120.0
            },
            {
                "start_time": 86.1386364,
                "end_time": 86.2863636,
                "pitch": 35,
                "velocity": 80,
                "duration": 0.1477273,
                "tempo": 120.0
            },
            {
                "start_time": 86.3,
                "end_time": 86.4477273,
                "pitch": 35,
                "velocity": 80,
                "duration": 0.1477273,
                "tempo": 120.0
            },
            {
                "start_time": 86.4613636,
                "end_time": 86.6113636,
                "pitch": 47,
                "velocity": 80,
                "duration": 0.15,
                "tempo": 120.0
            },
            {
                "start_time": 86.625,
                "end_time": 86.775,
                "pitch": 35,
                "velocity": 80,
                "duration": 0.15,
                "tempo": 120.0
            },
            {
                "start_time": 86.7886364,
                "end_time": 86.9318182,
                "pitch": 35,
                "velocity": 80,
                "duration": 0.1431818,
                "tempo": 120.0
            },
            {
                "start_time": 86.9454545,
                "end_time": 87.0886364,
                "pitch": 47,
                "velocity": 80,
                "duration": 0.1431818,
                "tempo": 120.0
            },
            {
                "start_time": 87.1022727,
                "end_time": 87.25,
                "pitch": 35,
                "velocity": 80,
                "duration": 0.1477273,
                "tempo": 120.0
            },
            {
                "start_time": 87.2636364,
                "end_time": 87.4090909,
                "pitch": 35,
                "velocity": 80,
                "duration": 0.1454545,
                "tempo": 120.0
            },
            {
                "start_time": 87.4227273,
                "end_time": 87.5704545,
                "pitch": 47,
                "velocity": 80,
                "duration": 0.1477273,
                "tempo": 120.0
            },
            {
                "start_time": 87.5840909,
                "end_time": 87.7318182,
                "pitch": 35,
                "velocity": 80,
                "duration": 0.1477273,
                "tempo": 120.0
            },
            {
                "start_time": 87.7454545,
                "end_time": 87.8954545,
                "pitch": 36,
                "velocity": 80,
                "duration": 0.15,
                "tempo": 120.0
            },
            {
                "start_time": 87.9090909,
                "end_time": 88.0590909,
                "pitch": 48,
                "velocity": 80,
                "duration": 0.15,
                "tempo": 120.0
            },
            {
                "start_time": 88.0727273,
                "end_time": 88.2159091,
                "pitch": 36,
                "velocity": 80,
                "duration": 0.1431818,
                "tempo": 120.0
            },
            {
                "start_time": 88.2295455,
                "end_time": 88.3727273,
                "pitch": 36,
                "velocity": 80,
                "duration": 0.1431818,
                "tempo": 120.0
            },
            {
                "start_time": 88.3863636,
                "end_time": 88.5386364,
                "pitch": 48,
                "velocity": 80,
                "duration": 0.1522727,
                "tempo": 120.0
            },
            {
                "start_time": 88.5522727,
                "end_time": 88.7022727,
                "pitch": 36,
                "velocity": 80,
                "duration": 0.15,
                "tempo": 120.0
            },
            {
                "start_time": 88.7159091,
                "end_time": 88.8636364,
                "pitch": 36,
                "velocity": 80,
                "duration": 0.1477273,
                "tempo": 120.0
            },
            {
                "start_time": 88.8772727,
                "end_time": 89.025,
                "pitch": 48,
                "velocity": 80,
                "duration": 0.1477273,
                "tempo": 120.0
            },
            {
                "start_time": 89.0386364,
                "end_time": 89.1818182,
                "pitch": 36,
                "velocity": 80,
                "duration": 0.1431818,
                "tempo": 120.0
            },
            {
                "start_time": 89.1954545,
                "end_time": 89.3386364,
                "pitch": 36,
                "velocity": 80,
                "duration": 0.1431818,
                "tempo": 120.0
            },
            {
                "start_time": 89.3522727,
                "end_time": 89.5,
                "pitch": 48,
                "velocity": 80,
                "duration": 0.1477273,
                "tempo": 120.0
            },
            {
                "start_time": 89.5136364,
                "end_time": 89.6613636,
                "pitch": 36,
                "velocity": 80,
                "duration": 0.1477273,
                "tempo": 120.0
            },
            {
                "start_time": 89.6727273,
                "end_time": 89.825,
                "pitch": 38,
                "velocity": 80,
                "duration": 0.1522727,
                "tempo": 120.0
            },
            {
                "start_time": 89.8386364,
                "end_time": 89.9886364,
                "pitch": 50,
                "velocity": 80,
                "duration": 0.15,
                "tempo": 120.0
            },
            {
                "start_time": 90.0022727,
                "end_time": 90.1454545,
                "pitch": 38,
                "velocity": 80,
                "duration": 0.1431818,
                "tempo": 120.0
            },
            {
                "start_time": 90.1590909,
                "end_time": 90.3022727,
                "pitch": 38,
                "velocity": 80,
                "duration": 0.1431818,
                "tempo": 120.0
            },
            {
                "start_time": 90.3159091,
                "end_time": 90.4659091,
                "pitch": 50,
                "velocity": 80,
                "duration": 0.15,
                "tempo": 120.0
            },
            {
                "start_time": 90.4795455,
                "end_time": 90.6318182,
                "pitch": 38,
                "velocity": 80,
                "duration": 0.1522727,
                "tempo": 120.0
            },
            {
                "start_time": 90.6454545,
                "end_time": 90.7931818,
                "pitch": 38,
                "velocity": 80,
                "duration": 0.1477273,
                "tempo": 120.0
            },
            {
                "start_time": 90.8045455,
                "end_time": 90.9522727,
                "pitch": 50,
                "velocity": 80,
                "duration": 0.1477273,
                "tempo": 120.0
            },
            {
                "start_time": 90.9659091,
                "end_time": 91.1113636,
                "pitch": 38,
                "velocity": 80,
                "duration": 0.1454545,
                "tempo": 120.0
            },
            {
                "start_time": 91.1227273,
                "end_time": 91.2681818,
                "pitch": 38,
                "velocity": 80,
                "duration": 0.1454545,
                "tempo": 120.0
            },
            {
                "start_time": 91.2795455,
                "end_time": 91.4318182,
                "pitch": 50,
                "velocity": 80,
                "duration": 0.1522727,
                "tempo": 120.0
            },
            {
                "start_time": 91.4454545,
                "end_time": 91.5954545,
                "pitch": 38,
                "velocity": 80,
                "duration": 0.15,
                "tempo": 120.0
            },
            {
                "start_time": 91.6090909,
                "end_time": 91.7522727,
                "pitch": 40,
                "velocity": 80,
                "duration": 0.1431818,
                "tempo": 120.0
            },
            {
                "start_time": 91.7659091,
                "end_time": 91.9090909,
                "pitch": 40,
                "velocity": 80,
                "duration": 0.1431818,
                "tempo": 120.0
            },
            {
                "start_time": 91.9227273,
                "end_time": 92.0727273,
                "pitch": 40,
                "velocity": 80,
                "duration": 0.15,
                "tempo": 120.0
            },
            {
                "start_time": 92.0863636,
                "end_time": 92.2363636,
                "pitch": 40,
                "velocity": 80,
                "duration": 0.15,
                "tempo": 120.0
            },
            {
                "start_time": 92.2522727,
                "end_time": 92.3977273,
                "pitch": 40,
                "velocity": 80,
                "duration": 0.1454545,
                "tempo": 120.0
            },
            {
                "start_time": 92.4113636,
                "end_time": 92.5590909,
                "pitch": 40,
                "velocity": 80,
                "duration": 0.1477273,
                "tempo": 120.0
            },
            {
                "start_time": 92.5727273,
                "end_time": 92.7159091,
                "pitch": 36,
                "velocity": 80,
                "duration": 0.1431818,
                "tempo": 120.0
            },
            {
                "start_time": 92.7295455,
                "end_time": 92.8727273,
                "pitch": 48,
                "velocity": 80,
                "duration": 0.1431818,
                "tempo": 120.0
            },
            {
                "start_time": 92.8863636,
                "end_time": 93.0363636,
                "pitch": 36,
                "velocity": 80,
                "duration": 0.15,
                "tempo": 120.0
            },
            {
                "start_time": 93.0522727,
                "end_time": 93.2022727,
                "pitch": 38,
                "velocity": 80,
                "duration": 0.15,
                "tempo": 120.0
            },
            {
                "start_time": 93.2159091,
                "end_time": 93.3613636,
                "pitch": 50,
                "velocity": 80,
                "duration": 0.1454545,
                "tempo": 120.0
            },
            {
                "start_time": 93.375,
                "end_time": 93.5227273,
                "pitch": 38,
                "velocity": 80,
                "duration": 0.1477273,
                "tempo": 120.0
            },
            {
                "start_time": 93.5363636,
                "end_time": 93.6840909,
                "pitch": 40,
                "velocity": 80,
                "duration": 0.1477273,
                "tempo": 120.0
            },
            {
                "start_time": 93.6977273,
                "end_time": 93.8431818,
                "pitch": 52,
                "velocity": 80,
                "duration": 0.1454545,
                "tempo": 120.0
            },
            {
                "start_time": 93.8568182,
                "end_time": 94.0022727,
                "pitch": 40,
                "velocity": 80,
                "duration": 0.1454545,
                "tempo": 120.0
            },
            {
                "start_time": 94.0136364,
                "end_time": 94.1590909,
                "pitch": 40,
                "velocity": 80,
                "duration": 0.1454545,
                "tempo": 120.0
            },
            {
                "start_time": 94.1704545,
                "end_time": 94.3181818,
                "pitch": 52,
                "velocity": 80,
                "duration": 0.1477273,
                "tempo": 120.0
            },
            {
                "start_time": 94.3318182,
                "end_time": 94.4795455,
                "pitch": 40,
                "velocity": 80,
                "duration": 0.1477273,
                "tempo": 120.0
            },
            {
                "start_time": 94.4931818,
                "end_time": 94.6409091,
                "pitch": 40,
                "velocity": 80,
                "duration": 0.1477273,
                "tempo": 120.0
            },
            {
                "start_time": 94.6545455,
                "end_time": 94.8,
                "pitch": 52,
                "velocity": 80,
                "duration": 0.1454545,
                "tempo": 120.0
            },
            {
                "start_time": 94.8136364,
                "end_time": 94.9613636,
                "pitch": 40,
                "velocity": 80,
                "duration": 0.1477273,
                "tempo": 120.0
            },
            {
                "start_time": 94.975,
                "end_time": 95.1227273,
                "pitch": 40,
                "velocity": 80,
                "duration": 0.1477273,
                "tempo": 120.0
            },
            {
                "start_time": 95.1363636,
                "end_time": 95.2863636,
                "pitch": 52,
                "velocity": 80,
                "duration": 0.15,
                "tempo": 120.0
            },
            {
                "start_time": 95.3,
                "end_time": 95.45,
                "pitch": 40,
                "velocity": 80,
                "duration": 0.15,
                "tempo": 120.0
            },
            {
                "start_time": 95.4636364,
                "end_time": 95.6068182,
                "pitch": 36,
                "velocity": 80,
                "duration": 0.1431818,
                "tempo": 120.0
            },
            {
                "start_time": 95.6204545,
                "end_time": 95.7659091,
                "pitch": 48,
                "velocity": 80,
                "duration": 0.1454545,
                "tempo": 120.0
            },
            {
                "start_time": 95.7772727,
                "end_time": 95.925,
                "pitch": 36,
                "velocity": 80,
                "duration": 0.1477273,
                "tempo": 120.0
            },
            {
                "start_time": 95.9386364,
                "end_time": 96.0863636,
                "pitch": 36,
                "velocity": 80,
                "duration": 0.1477273,
                "tempo": 120.0
            },
            {
                "start_time": 96.1,
                "end_time": 96.2477273,
                "pitch": 48,
                "velocity": 80,
                "duration": 0.1477273,
                "tempo": 120.0
            },
            {
                "start_time": 96.2590909,
                "end_time": 96.4068182,
                "pitch": 36,
                "velocity": 80,
                "duration": 0.1477273,
                "tempo": 120.0
            },
            {
                "start_time": 96.4204545,
                "end_time": 96.5681818,
                "pitch": 36,
                "velocity": 80,
                "duration": 0.1477273,
                "tempo": 120.0
            },
            {
                "start_time": 96.5818182,
                "end_time": 96.7295455,
                "pitch": 48,
                "velocity": 80,
                "duration": 0.1477273,
                "tempo": 120.0
            },
            {
                "start_time": 96.7431818,
                "end_time": 96.8886364,
                "pitch": 36,
                "velocity": 80,
                "duration": 0.1454545,
                "tempo": 120.0
            },
            {
                "start_time": 96.9022727,
                "end_time": 97.05,
                "pitch": 36,
                "velocity": 80,
                "duration": 0.1477273,
                "tempo": 120.0
            },
            {
                "start_time": 97.0613636,
                "end_time": 97.2136364,
                "pitch": 48,
                "velocity": 80,
                "duration": 0.1522727,
                "tempo": 120.0
            },
            {
                "start_time": 97.2272727,
                "end_time": 97.3772727,
                "pitch": 36,
                "velocity": 80,
                "duration": 0.15,
                "tempo": 120.0
            },
            {
                "start_time": 97.3909091,
                "end_time": 97.5386364,
                "pitch": 38,
                "velocity": 80,
                "duration": 0.1477273,
                "tempo": 120.0
            },
            {
                "start_time": 97.55,
                "end_time": 97.6977273,
                "pitch": 50,
                "velocity": 80,
                "duration": 0.1477273,
                "tempo": 120.0
            },
            {
                "start_time": 97.7113636,
                "end_time": 97.8545455,
                "pitch": 38,
                "velocity": 80,
                "duration": 0.1431818,
                "tempo": 120.0
            },
            {
                "start_time": 97.8681818,
                "end_time": 98.0113636,
                "pitch": 38,
                "velocity": 80,
                "duration": 0.1431818,
                "tempo": 120.0
            },
            {
                "start_time": 98.025,
                "end_time": 98.175,
                "pitch": 50,
                "velocity": 80,
                "duration": 0.15,
                "tempo": 120.0
            },
            {
                "start_time": 98.1886364,
                "end_time": 98.3386364,
                "pitch": 38,
                "velocity": 80,
                "duration": 0.15,
                "tempo": 120.0
            },
            {
                "start_time": 98.3522727,
                "end_time": 98.4977273,
                "pitch": 38,
                "velocity": 80,
                "duration": 0.1454545,
                "tempo": 120.0
            },
            {
                "start_time": 98.5090909,
                "end_time": 98.6545455,
                "pitch": 50,
                "velocity": 80,
                "duration": 0.1454545,
                "tempo": 120.0
            },
            {
                "start_time": 98.6659091,
                "end_time": 98.8136364,
                "pitch": 38,
                "velocity": 80,
                "duration": 0.1477273,
                "tempo": 120.0
            },
            {
                "start_time": 98.8272727,
                "end_time": 98.975,
                "pitch": 38,
                "velocity": 80,
                "duration": 0.1477273,
                "tempo": 120.0
            },
            {
                "start_time": 98.9886364,
                "end_time": 99.1409091,
                "pitch": 50,
                "velocity": 80,
                "duration": 0.1522727,
                "tempo": 120.0
            },
            {
                "start_time": 99.1545455,
                "end_time": 99.3045455,
                "pitch": 38,
                "velocity": 80,
                "duration": 0.15,
                "tempo": 120.0
            },
            {
                "start_time": 99.3181818,
                "end_time": 99.4659091,
                "pitch": 40,
                "velocity": 80,
                "duration": 0.1477273,
                "tempo": 120.0
            },
            {
                "start_time": 99.4795455,
                "end_time": 99.6272727,
                "pitch": 52,
                "velocity": 80,
                "duration": 0.1477273,
                "tempo": 120.0
            },
            {
                "start_time": 99.6409091,
                "end_time": 99.7840909,
                "pitch": 40,
                "velocity": 80,
                "duration": 0.1431818,
                "tempo": 120.0
            },
            {
                "start_time": 99.7977273,
                "end_time": 99.9409091,
                "pitch": 38,
                "velocity": 80,
                "duration": 0.1431818,
                "tempo": 120.0
            },
            {
                "start_time": 99.9545455,
                "end_time": 100.1045455,
                "pitch": 50,
                "velocity": 80,
                "duration": 0.15,
                "tempo": 120.0
            },
            {
                "start_time": 100.1181818,
                "end_time": 100.2681818,
                "pitch": 38,
                "velocity": 80,
                "duration": 0.15,
                "tempo": 120.0
            },
            {
                "start_time": 100.2818182,
                "end_time": 100.4295455,
                "pitch": 36,
                "velocity": 80,
                "duration": 0.1477273,
                "tempo": 120.0
            },
            {
                "start_time": 100.4431818,
                "end_time": 100.5909091,
                "pitch": 48,
                "velocity": 80,
                "duration": 0.1477273,
                "tempo": 120.0
            },
            {
                "start_time": 100.6045455,
                "end_time": 100.7477273,
                "pitch": 36,
                "velocity": 80,
                "duration": 0.1431818,
                "tempo": 120.0
            },
            {
                "start_time": 100.7613636,
                "end_time": 100.9045455,
                "pitch": 35,
                "velocity": 80,
                "duration": 0.1431818,
                "tempo": 120.0
            },
            {
                "start_time": 100.9181818,
                "end_time": 101.0659091,
                "pitch": 47,
                "velocity": 80,
                "duration": 0.1477273,
                "tempo": 120.0
            },
            {
                "start_time": 101.0772727,
                "end_time": 101.225,
                "pitch": 35,
                "velocity": 80,
                "duration": 0.1477273,
                "tempo": 120.0
            },
            {
                "start_time": 101.2386364,
                "end_time": 101.3863636,
                "pitch": 40,
                "velocity": 80,
                "duration": 0.1477273,
                "tempo": 120.0
            },
            {
                "start_time": 101.4,
                "end_time": 101.5477273,
                "pitch": 52,
                "velocity": 80,
                "duration": 0.1477273,
                "tempo": 120.0
            },
            {
                "start_time": 101.5613636,
                "end_time": 101.7068182,
                "pitch": 40,
                "velocity": 80,
                "duration": 0.1454545,
                "tempo": 120.0
            },
            {
                "start_time": 101.7204545,
                "end_time": 101.8659091,
                "pitch": 40,
                "velocity": 80,
                "duration": 0.1454545,
                "tempo": 120.0
            },
            {
                "start_time": 101.8795455,
                "end_time": 102.0272727,
                "pitch": 52,
                "velocity": 80,
                "duration": 0.1477273,
                "tempo": 120.0
            },
            {
                "start_time": 102.0409091,
                "end_time": 102.1886364,
                "pitch": 40,
                "velocity": 80,
                "duration": 0.1477273,
                "tempo": 120.0
            },
            {
                "start_time": 102.2022727,
                "end_time": 102.3522727,
                "pitch": 40,
                "velocity": 80,
                "duration": 0.15,
                "tempo": 120.0
            },
            {
                "start_time": 102.3659091,
                "end_time": 102.5181818,
                "pitch": 52,
                "velocity": 80,
                "duration": 0.1522727,
                "tempo": 120.0
            },
            {
                "start_time": 102.5318182,
                "end_time": 102.675,
                "pitch": 40,
                "velocity": 80,
                "duration": 0.1431818,
                "tempo": 120.0
            },
            {
                "start_time": 102.6886364,
                "end_time": 102.8318182,
                "pitch": 40,
                "velocity": 80,
                "duration": 0.1431818,
                "tempo": 120.0
            },
            {
                "start_time": 102.8454545,
                "end_time": 102.9931818,
                "pitch": 52,
                "velocity": 80,
                "duration": 0.1477273,
                "tempo": 120.0
            },
            {
                "start_time": 103.0068182,
                "end_time": 103.1545455,
                "pitch": 40,
                "velocity": 80,
                "duration": 0.1477273,
                "tempo": 120.0
            },
            {
                "start_time": 103.1659091,
                "end_time": 103.3136364,
                "pitch": 36,
                "velocity": 80,
                "duration": 0.1477273,
                "tempo": 120.0
            },
            {
                "start_time": 103.3272727,
                "end_time": 103.4727273,
                "pitch": 48,
                "velocity": 80,
                "duration": 0.1454545,
                "tempo": 120.0
            },
            {
                "start_time": 103.4863636,
                "end_time": 103.6340909,
                "pitch": 36,
                "velocity": 80,
                "duration": 0.1477273,
                "tempo": 120.0
            },
            {
                "start_time": 103.6477273,
                "end_time": 103.7954545,
                "pitch": 36,
                "velocity": 80,
                "duration": 0.1477273,
                "tempo": 120.0
            },
            {
                "start_time": 103.8090909,
                "end_time": 103.9590909,
                "pitch": 48,
                "velocity": 80,
                "duration": 0.15,
                "tempo": 120.0
            },
            {
                "start_time": 103.9727273,
                "end_time": 104.125,
                "pitch": 36,
                "velocity": 80,
                "duration": 0.1522727,
                "tempo": 120.0
            },
            {
                "start_time": 104.1386364,
                "end_time": 104.2863636,
                "pitch": 36,
                "velocity": 80,
                "duration": 0.1477273,
                "tempo": 120.0
            },
            {
                "start_time": 104.3,
                "end_time": 104.4477273,
                "pitch": 48,
                "velocity": 80,
                "duration": 0.1477273,
                "tempo": 120.0
            },
            {
                "start_time": 104.4590909,
                "end_time": 104.6045455,
                "pitch": 36,
                "velocity": 80,
                "duration": 0.1454545,
                "tempo": 120.0
            },
            {
                "start_time": 104.6159091,
                "end_time": 104.7613636,
                "pitch": 36,
                "velocity": 80,
                "duration": 0.1454545,
                "tempo": 120.0
            },
            {
                "start_time": 104.7727273,
                "end_time": 104.925,
                "pitch": 48,
                "velocity": 80,
                "duration": 0.1522727,
                "tempo": 120.0
            },
            {
                "start_time": 104.9386364,
                "end_time": 105.0886364,
                "pitch": 36,
                "velocity": 80,
                "duration": 0.15,
                "tempo": 120.0
            },
            {
                "start_time": 105.1022727,
                "end_time": 105.2454545,
                "pitch": 38,
                "velocity": 80,
                "duration": 0.1431818,
                "tempo": 120.0
            },
            {
                "start_time": 105.2590909,
                "end_time": 105.4022727,
                "pitch": 50,
                "velocity": 80,
                "duration": 0.1431818,
                "tempo": 120.0
            },
            {
                "start_time": 105.4159091,
                "end_time": 105.5636364,
                "pitch": 38,
                "velocity": 80,
                "duration": 0.1477273,
                "tempo": 120.0
            },
            {
                "start_time": 105.5772727,
                "end_time": 105.725,
                "pitch": 38,
                "velocity": 80,
                "duration": 0.1477273,
                "tempo": 120.0
            },
            {
                "start_time": 105.7386364,
                "end_time": 105.8886364,
                "pitch": 50,
                "velocity": 80,
                "duration": 0.15,
                "tempo": 120.0
            },
            {
                "start_time": 105.9022727,
                "end_time": 106.0522727,
                "pitch": 38,
                "velocity": 80,
                "duration": 0.15,
                "tempo": 120.0
            },
            {
                "start_time": 106.0659091,
                "end_time": 106.2136364,
                "pitch": 38,
                "velocity": 80,
                "duration": 0.1477273,
                "tempo": 120.0
            },
            {
                "start_time": 106.2272727,
                "end_time": 106.3727273,
                "pitch": 50,
                "velocity": 80,
                "duration": 0.1454545,
                "tempo": 120.0
            },
            {
                "start_time": 106.3863636,
                "end_time": 106.5340909,
                "pitch": 38,
                "velocity": 80,
                "duration": 0.1477273,
                "tempo": 120.0
            },
            {
                "start_time": 106.5477273,
                "end_time": 106.6954545,
                "pitch": 38,
                "velocity": 80,
                "duration": 0.1477273,
                "tempo": 120.0
            },
            {
                "start_time": 106.7090909,
                "end_time": 106.8568182,
                "pitch": 50,
                "velocity": 80,
                "duration": 0.1477273,
                "tempo": 120.0
            },
            {
                "start_time": 106.8704545,
                "end_time": 107.0181818,
                "pitch": 38,
                "velocity": 80,
                "duration": 0.1477273,
                "tempo": 120.0
            }
        ],
        "Electric Guitar (clean)": [
            {
                "start_time": 0.0136364,
                "end_time": 0.0659091,
                "pitch": 71,
                "velocity": 40,
                "duration": 0.0522727,
                "tempo": 120.0
            },
            {
                "start_time": 0.0795455,
                "end_time": 0.1477273,
                "pitch": 72,
                "velocity": 40,
                "duration": 0.0681818,
                "tempo": 120.0
            },
            {
                "start_time": 0.1590909,
                "end_time": 0.2272727,
                "pitch": 71,
                "velocity": 40,
                "duration": 0.0681818,
                "tempo": 120.0
            },
            {
                "start_time": 0.2409091,
                "end_time": 0.3068182,
                "pitch": 72,
                "velocity": 40,
                "duration": 0.0659091,
                "tempo": 120.0
            },
            {
                "start_time": 0.3204545,
                "end_time": 0.3863636,
                "pitch": 71,
                "velocity": 40,
                "duration": 0.0659091,
                "tempo": 120.0
            },
            {
                "start_time": 0.4,
                "end_time": 0.4659091,
                "pitch": 72,
                "velocity": 40,
                "duration": 0.0659091,
                "tempo": 120.0
            },
            {
                "start_time": 0.4795455,
                "end_time": 0.5795455,
                "pitch": 71,
                "velocity": 40,
                "duration": 0.1,
                "tempo": 120.0
            },
            {
                "start_time": 0.6,
                "end_time": 0.7,
                "pitch": 72,
                "velocity": 40,
                "duration": 0.1,
                "tempo": 120.0
            },
            {
                "start_time": 0.7204545,
                "end_time": 0.8204545,
                "pitch": 71,
                "velocity": 40,
                "duration": 0.1,
                "tempo": 120.0
            },
            {
                "start_time": 0.8409091,
                "end_time": 0.9409091,
                "pitch": 72,
                "velocity": 40,
                "duration": 0.1,
                "tempo": 120.0
            },
            {
                "start_time": 0.9590909,
                "end_time": 1.0590909,
                "pitch": 71,
                "velocity": 40,
                "duration": 0.1,
                "tempo": 120.0
            },
            {
                "start_time": 1.0795455,
                "end_time": 1.1795455,
                "pitch": 72,
                "velocity": 40,
                "duration": 0.1,
                "tempo": 120.0
            },
            {
                "start_time": 1.2,
                "end_time": 1.3,
                "pitch": 71,
                "velocity": 40,
                "duration": 0.1,
                "tempo": 120.0
            },
            {
                "start_time": 1.3204545,
                "end_time": 1.4204545,
                "pitch": 72,
                "velocity": 40,
                "duration": 0.1,
                "tempo": 120.0
            },
            {
                "start_time": 1.4409091,
                "end_time": 1.5409091,
                "pitch": 71,
                "velocity": 40,
                "duration": 0.1,
                "tempo": 120.0
            },
            {
                "start_time": 1.5590909,
                "end_time": 1.6590909,
                "pitch": 72,
                "velocity": 40,
                "duration": 0.1,
                "tempo": 120.0
            },
            {
                "start_time": 1.6795455,
                "end_time": 1.7795455,
                "pitch": 71,
                "velocity": 40,
                "duration": 0.1,
                "tempo": 120.0
            },
            {
                "start_time": 1.8,
                "end_time": 1.9,
                "pitch": 72,
                "velocity": 40,
                "duration": 0.1,
                "tempo": 120.0
            },
            {
                "start_time": 1.9204545,
                "end_time": 2.0204545,
                "pitch": 71,
                "velocity": 40,
                "duration": 0.1,
                "tempo": 120.0
            },
            {
                "start_time": 2.0409091,
                "end_time": 2.1431818,
                "pitch": 72,
                "velocity": 40,
                "duration": 0.1022727,
                "tempo": 120.0
            },
            {
                "start_time": 2.1636364,
                "end_time": 2.2636364,
                "pitch": 71,
                "velocity": 40,
                "duration": 0.1,
                "tempo": 120.0
            },
            {
                "start_time": 2.2840909,
                "end_time": 2.3840909,
                "pitch": 72,
                "velocity": 40,
                "duration": 0.1,
                "tempo": 120.0
            },
            {
                "start_time": 2.4045455,
                "end_time": 2.5068182,
                "pitch": 71,
                "velocity": 40,
                "duration": 0.1022727,
                "tempo": 120.0
            },
            {
                "start_time": 2.5272727,
                "end_time": 2.6272727,
                "pitch": 72,
                "velocity": 40,
                "duration": 0.1,
                "tempo": 120.0
            },
            {
                "start_time": 2.6477273,
                "end_time": 2.7477273,
                "pitch": 71,
                "velocity": 40,
                "duration": 0.1,
                "tempo": 120.0
            },
            {
                "start_time": 2.7681818,
                "end_time": 2.8681818,
                "pitch": 72,
                "velocity": 40,
                "duration": 0.1,
                "tempo": 120.0
            },
            {
                "start_time": 2.8863636,
                "end_time": 2.9863636,
                "pitch": 71,
                "velocity": 40,
                "duration": 0.1,
                "tempo": 120.0
            },
            {
                "start_time": 3.0068182,
                "end_time": 3.1068182,
                "pitch": 72,
                "velocity": 40,
                "duration": 0.1,
                "tempo": 120.0
            },
            {
                "start_time": 3.1272727,
                "end_time": 3.2272727,
                "pitch": 71,
                "velocity": 40,
                "duration": 0.1,
                "tempo": 120.0
            },
            {
                "start_time": 3.2477273,
                "end_time": 3.3477273,
                "pitch": 72,
                "velocity": 40,
                "duration": 0.1,
                "tempo": 120.0
            },
            {
                "start_time": 3.3681818,
                "end_time": 3.4681818,
                "pitch": 71,
                "velocity": 40,
                "duration": 0.1,
                "tempo": 120.0
            },
            {
                "start_time": 3.4886364,
                "end_time": 3.5886364,
                "pitch": 72,
                "velocity": 40,
                "duration": 0.1,
                "tempo": 120.0
            },
            {
                "start_time": 3.6090909,
                "end_time": 3.7113636,
                "pitch": 71,
                "velocity": 40,
                "duration": 0.1022727,
                "tempo": 120.0
            },
            {
                "start_time": 3.7318182,
                "end_time": 3.8318182,
                "pitch": 72,
                "velocity": 40,
                "duration": 0.1,
                "tempo": 120.0
            },
            {
                "start_time": 3.8522727,
                "end_time": 3.9522727,
                "pitch": 71,
                "velocity": 40,
                "duration": 0.1,
                "tempo": 120.0
            },
            {
                "start_time": 3.9727273,
                "end_time": 4.075,
                "pitch": 72,
                "velocity": 40,
                "duration": 0.1022727,
                "tempo": 120.0
            },
            {
                "start_time": 4.0954545,
                "end_time": 4.1954545,
                "pitch": 71,
                "velocity": 40,
                "duration": 0.1,
                "tempo": 120.0
            },
            {
                "start_time": 4.2159091,
                "end_time": 4.3159091,
                "pitch": 72,
                "velocity": 40,
                "duration": 0.1,
                "tempo": 120.0
            },
            {
                "start_time": 4.3363636,
                "end_time": 4.4386364,
                "pitch": 71,
                "velocity": 40,
                "duration": 0.1022727,
                "tempo": 120.0
            },
            {
                "start_time": 4.4590909,
                "end_time": 4.5590909,
                "pitch": 72,
                "velocity": 40,
                "duration": 0.1,
                "tempo": 120.0
            },
            {
                "start_time": 4.5795455,
                "end_time": 4.6795455,
                "pitch": 71,
                "velocity": 40,
                "duration": 0.1,
                "tempo": 120.0
            },
            {
                "start_time": 4.7,
                "end_time": 4.8022727,
                "pitch": 72,
                "velocity": 40,
                "duration": 0.1022727,
                "tempo": 120.0
            },
            {
                "start_time": 4.8227273,
                "end_time": 4.9227273,
                "pitch": 71,
                "velocity": 40,
                "duration": 0.1,
                "tempo": 120.0
            },
            {
                "start_time": 4.9431818,
                "end_time": 5.0431818,
                "pitch": 72,
                "velocity": 40,
                "duration": 0.1,
                "tempo": 120.0
            },
            {
                "start_time": 5.0636364,
                "end_time": 5.1659091,
                "pitch": 71,
                "velocity": 40,
                "duration": 0.1022727,
                "tempo": 120.0
            },
            {
                "start_time": 5.1863636,
                "end_time": 5.2863636,
                "pitch": 72,
                "velocity": 40,
                "duration": 0.1,
                "tempo": 120.0
            },
            {
                "start_time": 5.3068182,
                "end_time": 5.4068182,
                "pitch": 71,
                "velocity": 40,
                "duration": 0.1,
                "tempo": 120.0
            },
            {
                "start_time": 5.4272727,
                "end_time": 5.5295455,
                "pitch": 72,
                "velocity": 40,
                "duration": 0.1022727,
                "tempo": 120.0
            },
            {
                "start_time": 5.55,
                "end_time": 11.35,
                "pitch": 64,
                "velocity": 40,
                "duration": 5.8,
                "tempo": 120.0
            },
            {
                "start_time": 11.35,
                "end_time": 11.4318182,
                "pitch": 76,
                "velocity": 40,
                "duration": 0.0818182,
                "tempo": 120.0
            },
            {
                "start_time": 11.45,
                "end_time": 11.55,
                "pitch": 71,
                "velocity": 40,
                "duration": 0.1,
                "tempo": 120.0
            },
            {
                "start_time": 11.5704545,
                "end_time": 11.6704545,
                "pitch": 76,
                "velocity": 40,
                "duration": 0.1,
                "tempo": 120.0
            },
            {
                "start_time": 11.6909091,
                "end_time": 11.7909091,
                "pitch": 71,
                "velocity": 40,
                "duration": 0.1,
                "tempo": 120.0
            },
            {
                "start_time": 11.8113636,
                "end_time": 11.9113636,
                "pitch": 76,
                "velocity": 40,
                "duration": 0.1,
                "tempo": 120.0
            },
            {
                "start_time": 11.9318182,
                "end_time": 12.0318182,
                "pitch": 71,
                "velocity": 40,
                "duration": 0.1,
                "tempo": 120.0
            },
            {
                "start_time": 12.05,
                "end_time": 12.15,
                "pitch": 76,
                "velocity": 40,
                "duration": 0.1,
                "tempo": 120.0
            },
            {
                "start_time": 12.1704545,
                "end_time": 12.2704545,
                "pitch": 71,
                "velocity": 40,
                "duration": 0.1,
                "tempo": 120.0
            },
            {
                "start_time": 12.2909091,
                "end_time": 12.3909091,
                "pitch": 76,
                "velocity": 40,
                "duration": 0.1,
                "tempo": 120.0
            },
            {
                "start_time": 12.4113636,
                "end_time": 12.5113636,
                "pitch": 71,
                "velocity": 40,
                "duration": 0.1,
                "tempo": 120.0
            },
            {
                "start_time": 12.5318182,
                "end_time": 12.6318182,
                "pitch": 76,
                "velocity": 40,
                "duration": 0.1,
                "tempo": 120.0
            },
            {
                "start_time": 12.65,
                "end_time": 12.75,
                "pitch": 71,
                "velocity": 40,
                "duration": 0.1,
                "tempo": 120.0
            },
            {
                "start_time": 12.7704545,
                "end_time": 12.8727273,
                "pitch": 76,
                "velocity": 40,
                "duration": 0.1022727,
                "tempo": 120.0
            },
            {
                "start_time": 12.8931818,
                "end_time": 12.9931818,
                "pitch": 71,
                "velocity": 40,
                "duration": 0.1,
                "tempo": 120.0
            },
            {
                "start_time": 13.0136364,
                "end_time": 13.1136364,
                "pitch": 76,
                "velocity": 40,
                "duration": 0.1,
                "tempo": 120.0
            },
            {
                "start_time": 13.1340909,
                "end_time": 13.2363636,
                "pitch": 71,
                "velocity": 40,
                "duration": 0.1022727,
                "tempo": 120.0
            },
            {
                "start_time": 13.2568182,
                "end_time": 13.3568182,
                "pitch": 76,
                "velocity": 40,
                "duration": 0.1,
                "tempo": 120.0
            },
            {
                "start_time": 13.3772727,
                "end_time": 13.4772727,
                "pitch": 71,
                "velocity": 40,
                "duration": 0.1,
                "tempo": 120.0
            },
            {
                "start_time": 13.4977273,
                "end_time": 13.5977273,
                "pitch": 76,
                "velocity": 40,
                "duration": 0.1,
                "tempo": 120.0
            },
            {
                "start_time": 13.6181818,
                "end_time": 13.7181818,
                "pitch": 71,
                "velocity": 40,
                "duration": 0.1,
                "tempo": 120.0
            },
            {
                "start_time": 13.7386364,
                "end_time": 13.8386364,
                "pitch": 76,
                "velocity": 40,
                "duration": 0.1,
                "tempo": 120.0
            },
            {
                "start_time": 13.8590909,
                "end_time": 13.9590909,
                "pitch": 71,
                "velocity": 40,
                "duration": 0.1,
                "tempo": 120.0
            },
            {
                "start_time": 13.9772727,
                "end_time": 14.0772727,
                "pitch": 76,
                "velocity": 40,
                "duration": 0.1,
                "tempo": 120.0
            },
            {
                "start_time": 14.0977273,
                "end_time": 14.1977273,
                "pitch": 71,
                "velocity": 40,
                "duration": 0.1,
                "tempo": 120.0
            },
            {
                "start_time": 14.2181818,
                "end_time": 14.3181818,
                "pitch": 76,
                "velocity": 40,
                "duration": 0.1,
                "tempo": 120.0
            },
            {
                "start_time": 14.3386364,
                "end_time": 14.4386364,
                "pitch": 71,
                "velocity": 40,
                "duration": 0.1,
                "tempo": 120.0
            },
            {
                "start_time": 14.4590909,
                "end_time": 14.5590909,
                "pitch": 76,
                "velocity": 40,
                "duration": 0.1,
                "tempo": 120.0
            },
            {
                "start_time": 14.5772727,
                "end_time": 14.6772727,
                "pitch": 71,
                "velocity": 40,
                "duration": 0.1,
                "tempo": 120.0
            },
            {
                "start_time": 14.6977273,
                "end_time": 14.7977273,
                "pitch": 76,
                "velocity": 40,
                "duration": 0.1,
                "tempo": 120.0
            },
            {
                "start_time": 14.8181818,
                "end_time": 14.9181818,
                "pitch": 71,
                "velocity": 40,
                "duration": 0.1,
                "tempo": 120.0
            },
            {
                "start_time": 14.9386364,
                "end_time": 15.0386364,
                "pitch": 76,
                "velocity": 40,
                "duration": 0.1,
                "tempo": 120.0
            },
            {
                "start_time": 15.0590909,
                "end_time": 15.1590909,
                "pitch": 71,
                "velocity": 40,
                "duration": 0.1,
                "tempo": 120.0
            },
            {
                "start_time": 15.1772727,
                "end_time": 15.2772727,
                "pitch": 76,
                "velocity": 40,
                "duration": 0.1,
                "tempo": 120.0
            },
            {
                "start_time": 15.2977273,
                "end_time": 15.3977273,
                "pitch": 71,
                "velocity": 40,
                "duration": 0.1,
                "tempo": 120.0
            },
            {
                "start_time": 15.4181818,
                "end_time": 15.5181818,
                "pitch": 76,
                "velocity": 40,
                "duration": 0.1,
                "tempo": 120.0
            },
            {
                "start_time": 15.5386364,
                "end_time": 15.6386364,
                "pitch": 71,
                "velocity": 40,
                "duration": 0.1,
                "tempo": 120.0
            },
            {
                "start_time": 15.6590909,
                "end_time": 15.7590909,
                "pitch": 76,
                "velocity": 40,
                "duration": 0.1,
                "tempo": 120.0
            },
            {
                "start_time": 15.7772727,
                "end_time": 15.8772727,
                "pitch": 71,
                "velocity": 40,
                "duration": 0.1,
                "tempo": 120.0
            },
            {
                "start_time": 15.8977273,
                "end_time": 15.9977273,
                "pitch": 76,
                "velocity": 40,
                "duration": 0.1,
                "tempo": 120.0
            },
            {
                "start_time": 16.0181818,
                "end_time": 16.1181818,
                "pitch": 71,
                "velocity": 40,
                "duration": 0.1,
                "tempo": 120.0
            },
            {
                "start_time": 16.1386364,
                "end_time": 16.2386364,
                "pitch": 76,
                "velocity": 40,
                "duration": 0.1,
                "tempo": 120.0
            },
            {
                "start_time": 16.2590909,
                "end_time": 16.3590909,
                "pitch": 71,
                "velocity": 40,
                "duration": 0.1,
                "tempo": 120.0
            },
            {
                "start_time": 16.3772727,
                "end_time": 16.4795455,
                "pitch": 76,
                "velocity": 40,
                "duration": 0.1022727,
                "tempo": 120.0
            },
            {
                "start_time": 16.5,
                "end_time": 16.6,
                "pitch": 71,
                "velocity": 40,
                "duration": 0.1,
                "tempo": 120.0
            },
            {
                "start_time": 16.6204545,
                "end_time": 16.7227273,
                "pitch": 76,
                "velocity": 40,
                "duration": 0.1022727,
                "tempo": 120.0
            },
            {
                "start_time": 16.7409091,
                "end_time": 16.8431818,
                "pitch": 71,
                "velocity": 40,
                "duration": 0.1022727,
                "tempo": 120.0
            },
            {
                "start_time": 16.8636364,
                "end_time": 16.9636364,
                "pitch": 76,
                "velocity": 40,
                "duration": 0.1,
                "tempo": 120.0
            },
            {
                "start_time": 16.9840909,
                "end_time": 17.0863636,
                "pitch": 71,
                "velocity": 40,
                "duration": 0.1022727,
                "tempo": 120.0
            },
            {
                "start_time": 17.1045455,
                "end_time": 17.2045455,
                "pitch": 76,
                "velocity": 40,
                "duration": 0.1,
                "tempo": 120.0
            },
            {
                "start_time": 17.225,
                "end_time": 17.325,
                "pitch": 71,
                "velocity": 40,
                "duration": 0.1,
                "tempo": 120.0
            },
            {
                "start_time": 17.3454545,
                "end_time": 17.4454545,
                "pitch": 76,
                "velocity": 40,
                "duration": 0.1,
                "tempo": 120.0
            },
            {
                "start_time": 17.4659091,
                "end_time": 17.5659091,
                "pitch": 71,
                "velocity": 40,
                "duration": 0.1,
                "tempo": 120.0
            },
            {
                "start_time": 17.5863636,
                "end_time": 17.6863636,
                "pitch": 76,
                "velocity": 40,
                "duration": 0.1,
                "tempo": 120.0
            },
            {
                "start_time": 17.7045455,
                "end_time": 17.8045455,
                "pitch": 71,
                "velocity": 40,
                "duration": 0.1,
                "tempo": 120.0
            },
            {
                "start_time": 17.825,
                "end_time": 17.925,
                "pitch": 76,
                "velocity": 40,
                "duration": 0.1,
                "tempo": 120.0
            },
            {
                "start_time": 17.9454545,
                "end_time": 18.0454545,
                "pitch": 71,
                "velocity": 40,
                "duration": 0.1,
                "tempo": 120.0
            },
            {
                "start_time": 18.0659091,
                "end_time": 18.1659091,
                "pitch": 76,
                "velocity": 40,
                "duration": 0.1,
                "tempo": 120.0
            },
            {
                "start_time": 18.1863636,
                "end_time": 18.2863636,
                "pitch": 71,
                "velocity": 40,
                "duration": 0.1,
                "tempo": 120.0
            },
            {
                "start_time": 18.3045455,
                "end_time": 18.4045455,
                "pitch": 76,
                "velocity": 40,
                "duration": 0.1,
                "tempo": 120.0
            },
            {
                "start_time": 18.425,
                "end_time": 18.525,
                "pitch": 71,
                "velocity": 40,
                "duration": 0.1,
                "tempo": 120.0
            },
            {
                "start_time": 18.5454545,
                "end_time": 18.6454545,
                "pitch": 76,
                "velocity": 40,
                "duration": 0.1,
                "tempo": 120.0
            },
            {
                "start_time": 18.6659091,
                "end_time": 18.7659091,
                "pitch": 71,
                "velocity": 40,
                "duration": 0.1,
                "tempo": 120.0
            },
            {
                "start_time": 18.7863636,
                "end_time": 18.8863636,
                "pitch": 76,
                "velocity": 40,
                "duration": 0.1,
                "tempo": 120.0
            },
            {
                "start_time": 18.9045455,
                "end_time": 19.0045455,
                "pitch": 71,
                "velocity": 40,
                "duration": 0.1,
                "tempo": 120.0
            },
            {
                "start_time": 19.025,
                "end_time": 19.125,
                "pitch": 76,
                "velocity": 40,
                "duration": 0.1,
                "tempo": 120.0
            },
            {
                "start_time": 19.1454545,
                "end_time": 19.2454545,
                "pitch": 71,
                "velocity": 40,
                "duration": 0.1,
                "tempo": 120.0
            },
            {
                "start_time": 19.2659091,
                "end_time": 19.3659091,
                "pitch": 76,
                "velocity": 40,
                "duration": 0.1,
                "tempo": 120.0
            },
            {
                "start_time": 19.3863636,
                "end_time": 19.4863636,
                "pitch": 71,
                "velocity": 40,
                "duration": 0.1,
                "tempo": 120.0
            },
            {
                "start_time": 19.5045455,
                "end_time": 19.6045455,
                "pitch": 76,
                "velocity": 40,
                "duration": 0.1,
                "tempo": 120.0
            },
            {
                "start_time": 19.625,
                "end_time": 19.725,
                "pitch": 71,
                "velocity": 40,
                "duration": 0.1,
                "tempo": 120.0
            },
            {
                "start_time": 19.7454545,
                "end_time": 19.8454545,
                "pitch": 76,
                "velocity": 40,
                "duration": 0.1,
                "tempo": 120.0
            },
            {
                "start_time": 19.8659091,
                "end_time": 19.9659091,
                "pitch": 71,
                "velocity": 40,
                "duration": 0.1,
                "tempo": 120.0
            },
            {
                "start_time": 19.9863636,
                "end_time": 20.0863636,
                "pitch": 76,
                "velocity": 40,
                "duration": 0.1,
                "tempo": 120.0
            },
            {
                "start_time": 20.1068182,
                "end_time": 20.2068182,
                "pitch": 71,
                "velocity": 40,
                "duration": 0.1,
                "tempo": 120.0
            },
            {
                "start_time": 20.2272727,
                "end_time": 20.3295455,
                "pitch": 76,
                "velocity": 40,
                "duration": 0.1022727,
                "tempo": 120.0
            },
            {
                "start_time": 20.35,
                "end_time": 20.45,
                "pitch": 71,
                "velocity": 40,
                "duration": 0.1,
                "tempo": 120.0
            },
            {
                "start_time": 20.4704545,
                "end_time": 20.5704545,
                "pitch": 76,
                "velocity": 40,
                "duration": 0.1,
                "tempo": 120.0
            },
            {
                "start_time": 20.5909091,
                "end_time": 20.6931818,
                "pitch": 71,
                "velocity": 40,
                "duration": 0.1022727,
                "tempo": 120.0
            },
            {
                "start_time": 20.7136364,
                "end_time": 20.8136364,
                "pitch": 76,
                "velocity": 40,
                "duration": 0.1,
                "tempo": 120.0
            },
            {
                "start_time": 20.8318182,
                "end_time": 20.9318182,
                "pitch": 71,
                "velocity": 40,
                "duration": 0.1,
                "tempo": 120.0
            },
            {
                "start_time": 20.9522727,
                "end_time": 21.0522727,
                "pitch": 76,
                "velocity": 40,
                "duration": 0.1,
                "tempo": 120.0
            },
            {
                "start_time": 21.0727273,
                "end_time": 21.1727273,
                "pitch": 71,
                "velocity": 40,
                "duration": 0.1,
                "tempo": 120.0
            },
            {
                "start_time": 21.1931818,
                "end_time": 21.2931818,
                "pitch": 76,
                "velocity": 40,
                "duration": 0.1,
                "tempo": 120.0
            },
            {
                "start_time": 21.3136364,
                "end_time": 21.4136364,
                "pitch": 71,
                "velocity": 40,
                "duration": 0.1,
                "tempo": 120.0
            },
            {
                "start_time": 21.4318182,
                "end_time": 21.5340909,
                "pitch": 76,
                "velocity": 40,
                "duration": 0.1022727,
                "tempo": 120.0
            },
            {
                "start_time": 21.5545455,
                "end_time": 21.6545455,
                "pitch": 71,
                "velocity": 40,
                "duration": 0.1,
                "tempo": 120.0
            },
            {
                "start_time": 21.675,
                "end_time": 21.7772727,
                "pitch": 76,
                "velocity": 40,
                "duration": 0.1022727,
                "tempo": 120.0
            },
            {
                "start_time": 21.7954545,
                "end_time": 21.8977273,
                "pitch": 71,
                "velocity": 40,
                "duration": 0.1022727,
                "tempo": 120.0
            },
            {
                "start_time": 21.9181818,
                "end_time": 22.0181818,
                "pitch": 76,
                "velocity": 40,
                "duration": 0.1,
                "tempo": 120.0
            },
            {
                "start_time": 22.0386364,
                "end_time": 22.1409091,
                "pitch": 71,
                "velocity": 40,
                "duration": 0.1022727,
                "tempo": 120.0
            },
            {
                "start_time": 22.1590909,
                "end_time": 22.2613636,
                "pitch": 76,
                "velocity": 40,
                "duration": 0.1022727,
                "tempo": 120.0
            },
            {
                "start_time": 22.2818182,
                "end_time": 22.3818182,
                "pitch": 71,
                "velocity": 40,
                "duration": 0.1,
                "tempo": 120.0
            },
            {
                "start_time": 22.4022727,
                "end_time": 22.5045455,
                "pitch": 76,
                "velocity": 40,
                "duration": 0.1022727,
                "tempo": 120.0
            },
            {
                "start_time": 22.5227273,
                "end_time": 22.625,
                "pitch": 71,
                "velocity": 40,
                "duration": 0.1022727,
                "tempo": 120.0
            },
            {
                "start_time": 22.6454545,
                "end_time": 22.7454545,
                "pitch": 76,
                "velocity": 40,
                "duration": 0.1,
                "tempo": 120.0
            },
            {
                "start_time": 22.7659091,
                "end_time": 22.8681818,
                "pitch": 71,
                "velocity": 40,
                "duration": 0.1022727,
                "tempo": 120.0
            },
            {
                "start_time": 22.8863636,
                "end_time": 22.9863636,
                "pitch": 76,
                "velocity": 40,
                "duration": 0.1,
                "tempo": 120.0
            },
            {
                "start_time": 23.0068182,
                "end_time": 23.1068182,
                "pitch": 71,
                "velocity": 40,
                "duration": 0.1,
                "tempo": 120.0
            },
            {
                "start_time": 23.1272727,
                "end_time": 23.2272727,
                "pitch": 76,
                "velocity": 40,
                "duration": 0.1,
                "tempo": 120.0
            },
            {
                "start_time": 23.2477273,
                "end_time": 23.3477273,
                "pitch": 71,
                "velocity": 40,
                "duration": 0.1,
                "tempo": 120.0
            },
            {
                "start_time": 23.3681818,
                "end_time": 23.4681818,
                "pitch": 76,
                "velocity": 40,
                "duration": 0.1,
                "tempo": 120.0
            },
            {
                "start_time": 23.4863636,
                "end_time": 23.5863636,
                "pitch": 71,
                "velocity": 40,
                "duration": 0.1,
                "tempo": 120.0
            },
            {
                "start_time": 23.6068182,
                "end_time": 23.7090909,
                "pitch": 76,
                "velocity": 40,
                "duration": 0.1022727,
                "tempo": 120.0
            },
            {
                "start_time": 23.7295455,
                "end_time": 23.8295455,
                "pitch": 71,
                "velocity": 40,
                "duration": 0.1,
                "tempo": 120.0
            },
            {
                "start_time": 23.85,
                "end_time": 23.95,
                "pitch": 76,
                "velocity": 40,
                "duration": 0.1,
                "tempo": 120.0
            },
            {
                "start_time": 23.9704545,
                "end_time": 24.0727273,
                "pitch": 71,
                "velocity": 40,
                "duration": 0.1022727,
                "tempo": 120.0
            },
            {
                "start_time": 24.0931818,
                "end_time": 24.1931818,
                "pitch": 76,
                "velocity": 40,
                "duration": 0.1,
                "tempo": 120.0
            },
            {
                "start_time": 24.2136364,
                "end_time": 24.3136364,
                "pitch": 71,
                "velocity": 40,
                "duration": 0.1,
                "tempo": 120.0
            },
            {
                "start_time": 24.3340909,
                "end_time": 24.4340909,
                "pitch": 76,
                "velocity": 40,
                "duration": 0.1,
                "tempo": 120.0
            },
            {
                "start_time": 24.4545455,
                "end_time": 24.5545455,
                "pitch": 71,
                "velocity": 40,
                "duration": 0.1,
                "tempo": 120.0
            },
            {
                "start_time": 24.575,
                "end_time": 24.675,
                "pitch": 76,
                "velocity": 40,
                "duration": 0.1,
                "tempo": 120.0
            },
            {
                "start_time": 24.6954545,
                "end_time": 24.7954545,
                "pitch": 71,
                "velocity": 40,
                "duration": 0.1,
                "tempo": 120.0
            },
            {
                "start_time": 24.8136364,
                "end_time": 24.9136364,
                "pitch": 76,
                "velocity": 40,
                "duration": 0.1,
                "tempo": 120.0
            },
            {
                "start_time": 24.9340909,
                "end_time": 25.0340909,
                "pitch": 71,
                "velocity": 40,
                "duration": 0.1,
                "tempo": 120.0
            },
            {
                "start_time": 25.0545455,
                "end_time": 25.1545455,
                "pitch": 76,
                "velocity": 40,
                "duration": 0.1,
                "tempo": 120.0
            },
            {
                "start_time": 25.175,
                "end_time": 25.2772727,
                "pitch": 71,
                "velocity": 40,
                "duration": 0.1022727,
                "tempo": 120.0
            },
            {
                "start_time": 25.2977273,
                "end_time": 25.3977273,
                "pitch": 76,
                "velocity": 40,
                "duration": 0.1,
                "tempo": 120.0
            },
            {
                "start_time": 25.4181818,
                "end_time": 25.5181818,
                "pitch": 71,
                "velocity": 40,
                "duration": 0.1,
                "tempo": 120.0
            },
            {
                "start_time": 25.5386364,
                "end_time": 25.6409091,
                "pitch": 76,
                "velocity": 40,
                "duration": 0.1022727,
                "tempo": 120.0
            },
            {
                "start_time": 25.6613636,
                "end_time": 25.7613636,
                "pitch": 71,
                "velocity": 40,
                "duration": 0.1,
                "tempo": 120.0
            },
            {
                "start_time": 25.7818182,
                "end_time": 25.8818182,
                "pitch": 76,
                "velocity": 40,
                "duration": 0.1,
                "tempo": 120.0
            },
            {
                "start_time": 25.9022727,
                "end_time": 26.0045455,
                "pitch": 71,
                "velocity": 40,
                "duration": 0.1022727,
                "tempo": 120.0
            },
            {
                "start_time": 26.025,
                "end_time": 26.125,
                "pitch": 76,
                "velocity": 40,
                "duration": 0.1,
                "tempo": 120.0
            },
            {
                "start_time": 26.1454545,
                "end_time": 26.2454545,
                "pitch": 71,
                "velocity": 40,
                "duration": 0.1,
                "tempo": 120.0
            },
            {
                "start_time": 26.2659091,
                "end_time": 26.3681818,
                "pitch": 76,
                "velocity": 40,
                "duration": 0.1022727,
                "tempo": 120.0
            },
            {
                "start_time": 26.3886364,
                "end_time": 26.4886364,
                "pitch": 71,
                "velocity": 40,
                "duration": 0.1,
                "tempo": 120.0
            },
            {
                "start_time": 26.5090909,
                "end_time": 26.6090909,
                "pitch": 76,
                "velocity": 40,
                "duration": 0.1,
                "tempo": 120.0
            },
            {
                "start_time": 26.6295455,
                "end_time": 26.7295455,
                "pitch": 71,
                "velocity": 40,
                "duration": 0.1,
                "tempo": 120.0
            },
            {
                "start_time": 26.75,
                "end_time": 26.85,
                "pitch": 76,
                "velocity": 40,
                "duration": 0.1,
                "tempo": 120.0
            },
            {
                "start_time": 26.8681818,
                "end_time": 26.9681818,
                "pitch": 71,
                "velocity": 40,
                "duration": 0.1,
                "tempo": 120.0
            },
            {
                "start_time": 26.9886364,
                "end_time": 27.0886364,
                "pitch": 76,
                "velocity": 40,
                "duration": 0.1,
                "tempo": 120.0
            },
            {
                "start_time": 27.1090909,
                "end_time": 27.2090909,
                "pitch": 71,
                "velocity": 40,
                "duration": 0.1,
                "tempo": 120.0
            },
            {
                "start_time": 27.2295455,
                "end_time": 27.3295455,
                "pitch": 76,
                "velocity": 40,
                "duration": 0.1,
                "tempo": 120.0
            },
            {
                "start_time": 27.35,
                "end_time": 27.4522727,
                "pitch": 71,
                "velocity": 40,
                "duration": 0.1022727,
                "tempo": 120.0
            },
            {
                "start_time": 27.4727273,
                "end_time": 27.5727273,
                "pitch": 76,
                "velocity": 40,
                "duration": 0.1,
                "tempo": 120.0
            },
            {
                "start_time": 27.5931818,
                "end_time": 27.6931818,
                "pitch": 71,
                "velocity": 40,
                "duration": 0.1,
                "tempo": 120.0
            },
            {
                "start_time": 27.7136364,
                "end_time": 27.8159091,
                "pitch": 76,
                "velocity": 40,
                "duration": 0.1022727,
                "tempo": 120.0
            },
            {
                "start_time": 27.8363636,
                "end_time": 27.9363636,
                "pitch": 71,
                "velocity": 40,
                "duration": 0.1,
                "tempo": 120.0
            },
            {
                "start_time": 27.9568182,
                "end_time": 28.0568182,
                "pitch": 76,
                "velocity": 40,
                "duration": 0.1,
                "tempo": 120.0
            },
            {
                "start_time": 28.0772727,
                "end_time": 28.1772727,
                "pitch": 71,
                "velocity": 40,
                "duration": 0.1,
                "tempo": 120.0
            },
            {
                "start_time": 28.1954545,
                "end_time": 28.2954545,
                "pitch": 76,
                "velocity": 40,
                "duration": 0.1,
                "tempo": 120.0
            },
            {
                "start_time": 28.3159091,
                "end_time": 28.4159091,
                "pitch": 71,
                "velocity": 40,
                "duration": 0.1,
                "tempo": 120.0
            },
            {
                "start_time": 28.4363636,
                "end_time": 28.5363636,
                "pitch": 76,
                "velocity": 40,
                "duration": 0.1,
                "tempo": 120.0
            },
            {
                "start_time": 28.5568182,
                "end_time": 28.6568182,
                "pitch": 71,
                "velocity": 40,
                "duration": 0.1,
                "tempo": 120.0
            },
            {
                "start_time": 28.6772727,
                "end_time": 28.7772727,
                "pitch": 76,
                "velocity": 40,
                "duration": 0.1,
                "tempo": 120.0
            },
            {
                "start_time": 28.7977273,
                "end_time": 28.8977273,
                "pitch": 71,
                "velocity": 40,
                "duration": 0.1,
                "tempo": 120.0
            },
            {
                "start_time": 28.9181818,
                "end_time": 29.0204545,
                "pitch": 76,
                "velocity": 40,
                "duration": 0.1022727,
                "tempo": 120.0
            },
            {
                "start_time": 29.0409091,
                "end_time": 29.1409091,
                "pitch": 71,
                "velocity": 40,
                "duration": 0.1,
                "tempo": 120.0
            },
            {
                "start_time": 29.1613636,
                "end_time": 29.2613636,
                "pitch": 76,
                "velocity": 40,
                "duration": 0.1,
                "tempo": 120.0
            },
            {
                "start_time": 29.2818182,
                "end_time": 29.3840909,
                "pitch": 71,
                "velocity": 40,
                "duration": 0.1022727,
                "tempo": 120.0
            },
            {
                "start_time": 29.4045455,
                "end_time": 29.5045455,
                "pitch": 76,
                "velocity": 40,
                "duration": 0.1,
                "tempo": 120.0
            },
            {
                "start_time": 29.525,
                "end_time": 29.625,
                "pitch": 71,
                "velocity": 40,
                "duration": 0.1,
                "tempo": 120.0
            },
            {
                "start_time": 29.6454545,
                "end_time": 29.7477273,
                "pitch": 76,
                "velocity": 40,
                "duration": 0.1022727,
                "tempo": 120.0
            },
            {
                "start_time": 29.7681818,
                "end_time": 29.8681818,
                "pitch": 71,
                "velocity": 40,
                "duration": 0.1,
                "tempo": 120.0
            },
            {
                "start_time": 29.8886364,
                "end_time": 29.9886364,
                "pitch": 76,
                "velocity": 40,
                "duration": 0.1,
                "tempo": 120.0
            },
            {
                "start_time": 30.0090909,
                "end_time": 30.1113636,
                "pitch": 71,
                "velocity": 40,
                "duration": 0.1022727,
                "tempo": 120.0
            },
            {
                "start_time": 30.1318182,
                "end_time": 30.2318182,
                "pitch": 76,
                "velocity": 40,
                "duration": 0.1,
                "tempo": 120.0
            },
            {
                "start_time": 30.25,
                "end_time": 30.35,
                "pitch": 71,
                "velocity": 40,
                "duration": 0.1,
                "tempo": 120.0
            },
            {
                "start_time": 30.3704545,
                "end_time": 30.4704545,
                "pitch": 76,
                "velocity": 40,
                "duration": 0.1,
                "tempo": 120.0
            },
            {
                "start_time": 30.4909091,
                "end_time": 30.5909091,
                "pitch": 71,
                "velocity": 40,
                "duration": 0.1,
                "tempo": 120.0
            },
            {
                "start_time": 30.6113636,
                "end_time": 30.7113636,
                "pitch": 76,
                "velocity": 40,
                "duration": 0.1,
                "tempo": 120.0
            },
            {
                "start_time": 30.7318182,
                "end_time": 30.8318182,
                "pitch": 71,
                "velocity": 40,
                "duration": 0.1,
                "tempo": 120.0
            },
            {
                "start_time": 30.85,
                "end_time": 30.9522727,
                "pitch": 76,
                "velocity": 40,
                "duration": 0.1022727,
                "tempo": 120.0
            },
            {
                "start_time": 30.9727273,
                "end_time": 31.0727273,
                "pitch": 71,
                "velocity": 40,
                "duration": 0.1,
                "tempo": 120.0
            },
            {
                "start_time": 31.0931818,
                "end_time": 31.1954545,
                "pitch": 76,
                "velocity": 40,
                "duration": 0.1022727,
                "tempo": 120.0
            },
            {
                "start_time": 31.2136364,
                "end_time": 31.3159091,
                "pitch": 71,
                "velocity": 40,
                "duration": 0.1022727,
                "tempo": 120.0
            },
            {
                "start_time": 31.3363636,
                "end_time": 31.4363636,
                "pitch": 76,
                "velocity": 40,
                "duration": 0.1,
                "tempo": 120.0
            },
            {
                "start_time": 31.4568182,
                "end_time": 31.5590909,
                "pitch": 71,
                "velocity": 40,
                "duration": 0.1022727,
                "tempo": 120.0
            },
            {
                "start_time": 31.5772727,
                "end_time": 31.6772727,
                "pitch": 78,
                "velocity": 40,
                "duration": 0.1,
                "tempo": 120.0
            },
            {
                "start_time": 31.6977273,
                "end_time": 31.7977273,
                "pitch": 71,
                "velocity": 40,
                "duration": 0.1,
                "tempo": 120.0
            },
            {
                "start_time": 31.8181818,
                "end_time": 31.9181818,
                "pitch": 78,
                "velocity": 40,
                "duration": 0.1,
                "tempo": 120.0
            },
            {
                "start_time": 31.9386364,
                "end_time": 32.0386364,
                "pitch": 71,
                "velocity": 40,
                "duration": 0.1,
                "tempo": 120.0
            },
            {
                "start_time": 32.0590909,
                "end_time": 32.1590909,
                "pitch": 78,
                "velocity": 40,
                "duration": 0.1,
                "tempo": 120.0
            },
            {
                "start_time": 32.1772727,
                "end_time": 32.2772727,
                "pitch": 71,
                "velocity": 40,
                "duration": 0.1,
                "tempo": 120.0
            },
            {
                "start_time": 32.2977273,
                "end_time": 32.4,
                "pitch": 78,
                "velocity": 40,
                "duration": 0.1022727,
                "tempo": 120.0
            },
            {
                "start_time": 32.4204545,
                "end_time": 32.5204545,
                "pitch": 71,
                "velocity": 40,
                "duration": 0.1,
                "tempo": 120.0
            },
            {
                "start_time": 32.5409091,
                "end_time": 32.6409091,
                "pitch": 78,
                "velocity": 40,
                "duration": 0.1,
                "tempo": 120.0
            },
            {
                "start_time": 32.6613636,
                "end_time": 32.7636364,
                "pitch": 71,
                "velocity": 40,
                "duration": 0.1022727,
                "tempo": 120.0
            },
            {
                "start_time": 32.7840909,
                "end_time": 32.8840909,
                "pitch": 78,
                "velocity": 40,
                "duration": 0.1,
                "tempo": 120.0
            },
            {
                "start_time": 32.9045455,
                "end_time": 33.0045455,
                "pitch": 71,
                "velocity": 40,
                "duration": 0.1,
                "tempo": 120.0
            },
            {
                "start_time": 33.025,
                "end_time": 33.1272727,
                "pitch": 78,
                "velocity": 40,
                "duration": 0.1022727,
                "tempo": 120.0
            },
            {
                "start_time": 33.1477273,
                "end_time": 33.2477273,
                "pitch": 71,
                "velocity": 40,
                "duration": 0.1,
                "tempo": 120.0
            },
            {
                "start_time": 33.2681818,
                "end_time": 33.3681818,
                "pitch": 78,
                "velocity": 40,
                "duration": 0.1,
                "tempo": 120.0
            },
            {
                "start_time": 33.3886364,
                "end_time": 33.4909091,
                "pitch": 71,
                "velocity": 40,
                "duration": 0.1022727,
                "tempo": 120.0
            },
            {
                "start_time": 33.5113636,
                "end_time": 33.6113636,
                "pitch": 78,
                "velocity": 40,
                "duration": 0.1,
                "tempo": 120.0
            },
            {
                "start_time": 33.6318182,
                "end_time": 33.7318182,
                "pitch": 71,
                "velocity": 40,
                "duration": 0.1,
                "tempo": 120.0
            },
            {
                "start_time": 33.7522727,
                "end_time": 33.8522727,
                "pitch": 78,
                "velocity": 40,
                "duration": 0.1,
                "tempo": 120.0
            },
            {
                "start_time": 33.8727273,
                "end_time": 33.9727273,
                "pitch": 71,
                "velocity": 40,
                "duration": 0.1,
                "tempo": 120.0
            },
            {
                "start_time": 33.9931818,
                "end_time": 34.0931818,
                "pitch": 78,
                "velocity": 40,
                "duration": 0.1,
                "tempo": 120.0
            },
            {
                "start_time": 34.1136364,
                "end_time": 34.2136364,
                "pitch": 71,
                "velocity": 40,
                "duration": 0.1,
                "tempo": 120.0
            },
            {
                "start_time": 34.2318182,
                "end_time": 34.3318182,
                "pitch": 78,
                "velocity": 40,
                "duration": 0.1,
                "tempo": 120.0
            },
            {
                "start_time": 34.3522727,
                "end_time": 34.4522727,
                "pitch": 71,
                "velocity": 40,
                "duration": 0.1,
                "tempo": 120.0
            },
            {
                "start_time": 34.4727273,
                "end_time": 80.05,
                "pitch": 59,
                "velocity": 40,
                "duration": 45.5772727,
                "tempo": 120.0
            },
            {
                "start_time": 80.05,
                "end_time": 80.1022727,
                "pitch": 64,
                "velocity": 40,
                "duration": 0.0522727,
                "tempo": 120.0
            },
            {
                "start_time": 80.1159091,
                "end_time": 80.1818182,
                "pitch": 60,
                "velocity": 51,
                "duration": 0.0659091,
                "tempo": 120.0
            },
            {
                "start_time": 80.1954545,
                "end_time": 80.2636364,
                "pitch": 55,
                "velocity": 51,
                "duration": 0.0681818,
                "tempo": 120.0
            },
            {
                "start_time": 80.275,
                "end_time": 80.3431818,
                "pitch": 60,
                "velocity": 51,
                "duration": 0.0681818,
                "tempo": 120.0
            },
            {
                "start_time": 80.3568182,
                "end_time": 80.4227273,
                "pitch": 55,
                "velocity": 51,
                "duration": 0.0659091,
                "tempo": 120.0
            },
            {
                "start_time": 80.4363636,
                "end_time": 80.5045455,
                "pitch": 52,
                "velocity": 51,
                "duration": 0.0681818,
                "tempo": 120.0
            },
            {
                "start_time": 80.5159091,
                "end_time": 80.5840909,
                "pitch": 64,
                "velocity": 51,
                "duration": 0.0681818,
                "tempo": 120.0
            },
            {
                "start_time": 80.5977273,
                "end_time": 80.6636364,
                "pitch": 60,
                "velocity": 51,
                "duration": 0.0659091,
                "tempo": 120.0
            },
            {
                "start_time": 80.6772727,
                "end_time": 80.7454545,
                "pitch": 55,
                "velocity": 51,
                "duration": 0.0681818,
                "tempo": 120.0
            },
            {
                "start_time": 80.7590909,
                "end_time": 80.825,
                "pitch": 60,
                "velocity": 51,
                "duration": 0.0659091,
                "tempo": 120.0
            },
            {
                "start_time": 80.8386364,
                "end_time": 80.9045455,
                "pitch": 55,
                "velocity": 51,
                "duration": 0.0659091,
                "tempo": 120.0
            },
            {
                "start_time": 80.9181818,
                "end_time": 80.9840909,
                "pitch": 52,
                "velocity": 51,
                "duration": 0.0659091,
                "tempo": 120.0
            },
            {
                "start_time": 80.9977273,
                "end_time": 81.0659091,
                "pitch": 64,
                "velocity": 51,
                "duration": 0.0681818,
                "tempo": 120.0
            },
            {
                "start_time": 81.0795455,
                "end_time": 81.1454545,
                "pitch": 60,
                "velocity": 51,
                "duration": 0.0659091,
                "tempo": 120.0
            },
            {
                "start_time": 81.1590909,
                "end_time": 81.2272727,
                "pitch": 55,
                "velocity": 51,
                "duration": 0.0681818,
                "tempo": 120.0
            },
            {
                "start_time": 81.2386364,
                "end_time": 81.3068182,
                "pitch": 60,
                "velocity": 51,
                "duration": 0.0681818,
                "tempo": 120.0
            },
            {
                "start_time": 81.3204545,
                "end_time": 81.3863636,
                "pitch": 55,
                "velocity": 51,
                "duration": 0.0659091,
                "tempo": 120.0
            },
            {
                "start_time": 81.4,
                "end_time": 81.4681818,
                "pitch": 52,
                "velocity": 51,
                "duration": 0.0681818,
                "tempo": 120.0
            },
            {
                "start_time": 81.4818182,
                "end_time": 81.5477273,
                "pitch": 64,
                "velocity": 51,
                "duration": 0.0659091,
                "tempo": 120.0
            },
            {
                "start_time": 81.5613636,
                "end_time": 81.6295455,
                "pitch": 60,
                "velocity": 51,
                "duration": 0.0681818,
                "tempo": 120.0
            },
            {
                "start_time": 81.6431818,
                "end_time": 81.7113636,
                "pitch": 55,
                "velocity": 51,
                "duration": 0.0681818,
                "tempo": 120.0
            },
            {
                "start_time": 81.725,
                "end_time": 81.7931818,
                "pitch": 60,
                "velocity": 51,
                "duration": 0.0681818,
                "tempo": 120.0
            },
            {
                "start_time": 81.8068182,
                "end_time": 81.875,
                "pitch": 55,
                "velocity": 51,
                "duration": 0.0681818,
                "tempo": 120.0
            },
            {
                "start_time": 81.8886364,
                "end_time": 81.9568182,
                "pitch": 52,
                "velocity": 51,
                "duration": 0.0681818,
                "tempo": 120.0
            },
            {
                "start_time": 81.9704545,
                "end_time": 82.0363636,
                "pitch": 66,
                "velocity": 51,
                "duration": 0.0659091,
                "tempo": 120.0
            },
            {
                "start_time": 82.05,
                "end_time": 82.1136364,
                "pitch": 62,
                "velocity": 51,
                "duration": 0.0636364,
                "tempo": 120.0
            },
            {
                "start_time": 82.1272727,
                "end_time": 82.1931818,
                "pitch": 57,
                "velocity": 51,
                "duration": 0.0659091,
                "tempo": 120.0
            },
            {
                "start_time": 82.2068182,
                "end_time": 82.2704545,
                "pitch": 62,
                "velocity": 51,
                "duration": 0.0636364,
                "tempo": 120.0
            },
            {
                "start_time": 82.2840909,
                "end_time": 82.3522727,
                "pitch": 57,
                "velocity": 51,
                "duration": 0.0681818,
                "tempo": 120.0
            },
            {
                "start_time": 82.3636364,
                "end_time": 82.4318182,
                "pitch": 54,
                "velocity": 51,
                "duration": 0.0681818,
                "tempo": 120.0
            },
            {
                "start_time": 82.4454545,
                "end_time": 82.5113636,
                "pitch": 66,
                "velocity": 51,
                "duration": 0.0659091,
                "tempo": 120.0
            },
            {
                "start_time": 82.525,
                "end_time": 82.5909091,
                "pitch": 62,
                "velocity": 51,
                "duration": 0.0659091,
                "tempo": 120.0
            },
            {
                "start_time": 82.6045455,
                "end_time": 82.6727273,
                "pitch": 57,
                "velocity": 51,
                "duration": 0.0681818,
                "tempo": 120.0
            },
            {
                "start_time": 82.6863636,
                "end_time": 82.7545455,
                "pitch": 62,
                "velocity": 51,
                "duration": 0.0681818,
                "tempo": 120.0
            },
            {
                "start_time": 82.7681818,
                "end_time": 82.8386364,
                "pitch": 57,
                "velocity": 51,
                "duration": 0.0704545,
                "tempo": 120.0
            },
            {
                "start_time": 82.8522727,
                "end_time": 82.9204545,
                "pitch": 54,
                "velocity": 51,
                "duration": 0.0681818,
                "tempo": 120.0
            },
            {
                "start_time": 82.9340909,
                "end_time": 82.9977273,
                "pitch": 66,
                "velocity": 51,
                "duration": 0.0636364,
                "tempo": 120.0
            },
            {
                "start_time": 83.0113636,
                "end_time": 83.0772727,
                "pitch": 62,
                "velocity": 51,
                "duration": 0.0659091,
                "tempo": 120.0
            },
            {
                "start_time": 83.0909091,
                "end_time": 83.1545455,
                "pitch": 57,
                "velocity": 51,
                "duration": 0.0636364,
                "tempo": 120.0
            },
            {
                "start_time": 83.1681818,
                "end_time": 83.2340909,
                "pitch": 62,
                "velocity": 51,
                "duration": 0.0659091,
                "tempo": 120.0
            },
            {
                "start_time": 83.2477273,
                "end_time": 83.3136364,
                "pitch": 57,
                "velocity": 51,
                "duration": 0.0659091,
                "tempo": 120.0
            },
            {
                "start_time": 83.3272727,
                "end_time": 83.3931818,
                "pitch": 54,
                "velocity": 51,
                "duration": 0.0659091,
                "tempo": 120.0
            },
            {
                "start_time": 83.4068182,
                "end_time": 83.4727273,
                "pitch": 66,
                "velocity": 51,
                "duration": 0.0659091,
                "tempo": 120.0
            },
            {
                "start_time": 83.4863636,
                "end_time": 83.5545455,
                "pitch": 62,
                "velocity": 51,
                "duration": 0.0681818,
                "tempo": 120.0
            },
            {
                "start_time": 83.5659091,
                "end_time": 83.6363636,
                "pitch": 57,
                "velocity": 51,
                "duration": 0.0704545,
                "tempo": 120.0
            },
            {
                "start_time": 83.65,
                "end_time": 83.7181818,
                "pitch": 62,
                "velocity": 51,
                "duration": 0.0681818,
                "tempo": 120.0
            },
            {
                "start_time": 83.7318182,
                "end_time": 83.8,
                "pitch": 57,
                "velocity": 51,
                "duration": 0.0681818,
                "tempo": 120.0
            },
            {
                "start_time": 83.8136364,
                "end_time": 83.8818182,
                "pitch": 54,
                "velocity": 51,
                "duration": 0.0681818,
                "tempo": 120.0
            },
            {
                "start_time": 83.8954545,
                "end_time": 83.9613636,
                "pitch": 64,
                "velocity": 51,
                "duration": 0.0659091,
                "tempo": 120.0
            },
            {
                "start_time": 83.9727273,
                "end_time": 84.0386364,
                "pitch": 60,
                "velocity": 51,
                "duration": 0.0659091,
                "tempo": 120.0
            },
            {
                "start_time": 84.0522727,
                "end_time": 84.1181818,
                "pitch": 57,
                "velocity": 51,
                "duration": 0.0659091,
                "tempo": 120.0
            },
            {
                "start_time": 84.1295455,
                "end_time": 84.1954545,
                "pitch": 60,
                "velocity": 51,
                "duration": 0.0659091,
                "tempo": 120.0
            },
            {
                "start_time": 84.2090909,
                "end_time": 84.2772727,
                "pitch": 57,
                "velocity": 51,
                "duration": 0.0681818,
                "tempo": 120.0
            },
            {
                "start_time": 84.2886364,
                "end_time": 84.3568182,
                "pitch": 52,
                "velocity": 51,
                "duration": 0.0681818,
                "tempo": 120.0
            },
            {
                "start_time": 84.3704545,
                "end_time": 84.4363636,
                "pitch": 64,
                "velocity": 51,
                "duration": 0.0659091,
                "tempo": 120.0
            },
            {
                "start_time": 84.45,
                "end_time": 84.5181818,
                "pitch": 60,
                "velocity": 51,
                "duration": 0.0681818,
                "tempo": 120.0
            },
            {
                "start_time": 84.5318182,
                "end_time": 84.6,
                "pitch": 57,
                "velocity": 51,
                "duration": 0.0681818,
                "tempo": 120.0
            },
            {
                "start_time": 84.6136364,
                "end_time": 84.6818182,
                "pitch": 60,
                "velocity": 51,
                "duration": 0.0681818,
                "tempo": 120.0
            },
            {
                "start_time": 84.6954545,
                "end_time": 84.7636364,
                "pitch": 57,
                "velocity": 51,
                "duration": 0.0681818,
                "tempo": 120.0
            },
            {
                "start_time": 84.7772727,
                "end_time": 84.8454545,
                "pitch": 52,
                "velocity": 51,
                "duration": 0.0681818,
                "tempo": 120.0
            },
            {
                "start_time": 84.8590909,
                "end_time": 84.925,
                "pitch": 64,
                "velocity": 51,
                "duration": 0.0659091,
                "tempo": 120.0
            },
            {
                "start_time": 84.9386364,
                "end_time": 85.0045455,
                "pitch": 60,
                "velocity": 51,
                "duration": 0.0659091,
                "tempo": 120.0
            },
            {
                "start_time": 85.0159091,
                "end_time": 85.0818182,
                "pitch": 57,
                "velocity": 51,
                "duration": 0.0659091,
                "tempo": 120.0
            },
            {
                "start_time": 85.0954545,
                "end_time": 85.1613636,
                "pitch": 60,
                "velocity": 51,
                "duration": 0.0659091,
                "tempo": 120.0
            },
            {
                "start_time": 85.1727273,
                "end_time": 85.2409091,
                "pitch": 57,
                "velocity": 51,
                "duration": 0.0681818,
                "tempo": 120.0
            },
            {
                "start_time": 85.2545455,
                "end_time": 85.3204545,
                "pitch": 52,
                "velocity": 51,
                "duration": 0.0659091,
                "tempo": 120.0
            },
            {
                "start_time": 85.3340909,
                "end_time": 85.4022727,
                "pitch": 64,
                "velocity": 51,
                "duration": 0.0681818,
                "tempo": 120.0
            },
            {
                "start_time": 85.4159091,
                "end_time": 85.4818182,
                "pitch": 60,
                "velocity": 51,
                "duration": 0.0659091,
                "tempo": 120.0
            },
            {
                "start_time": 85.4954545,
                "end_time": 85.5636364,
                "pitch": 57,
                "velocity": 51,
                "duration": 0.0681818,
                "tempo": 120.0
            },
            {
                "start_time": 85.5772727,
                "end_time": 85.6454545,
                "pitch": 60,
                "velocity": 51,
                "duration": 0.0681818,
                "tempo": 120.0
            },
            {
                "start_time": 85.6613636,
                "end_time": 85.7295455,
                "pitch": 57,
                "velocity": 51,
                "duration": 0.0681818,
                "tempo": 120.0
            },
            {
                "start_time": 85.7431818,
                "end_time": 85.8113636,
                "pitch": 52,
                "velocity": 51,
                "duration": 0.0681818,
                "tempo": 120.0
            },
            {
                "start_time": 85.825,
                "end_time": 85.8886364,
                "pitch": 66,
                "velocity": 51,
                "duration": 0.0636364,
                "tempo": 120.0
            },
            {
                "start_time": 85.9022727,
                "end_time": 85.9681818,
                "pitch": 63,
                "velocity": 51,
                "duration": 0.0659091,
                "tempo": 120.0
            },
            {
                "start_time": 85.9818182,
                "end_time": 86.0454545,
                "pitch": 59,
                "velocity": 51,
                "duration": 0.0636364,
                "tempo": 120.0
            },
            {
                "start_time": 86.0590909,
                "end_time": 86.125,
                "pitch": 63,
                "velocity": 51,
                "duration": 0.0659091,
                "tempo": 120.0
            },
            {
                "start_time": 86.1386364,
                "end_time": 86.2045455,
                "pitch": 59,
                "velocity": 51,
                "duration": 0.0659091,
                "tempo": 120.0
            },
            {
                "start_time": 86.2181818,
                "end_time": 86.2863636,
                "pitch": 54,
                "velocity": 51,
                "duration": 0.0681818,
                "tempo": 120.0
            },
            {
                "start_time": 86.3,
                "end_time": 86.3659091,
                "pitch": 66,
                "velocity": 51,
                "duration": 0.0659091,
                "tempo": 120.0
            },
            {
                "start_time": 86.3795455,
                "end_time": 86.4477273,
                "pitch": 63,
                "velocity": 51,
                "duration": 0.0681818,
                "tempo": 120.0
            },
            {
                "start_time": 86.4613636,
                "end_time": 86.5295455,
                "pitch": 59,
                "velocity": 51,
                "duration": 0.0681818,
                "tempo": 120.0
            },
            {
                "start_time": 86.5431818,
                "end_time": 86.6113636,
                "pitch": 63,
                "velocity": 51,
                "duration": 0.0681818,
                "tempo": 120.0
            },
            {
                "start_time": 86.625,
                "end_time": 86.6931818,
                "pitch": 59,
                "velocity": 51,
                "duration": 0.0681818,
                "tempo": 120.0
            },
            {
                "start_time": 86.7068182,
                "end_time": 86.775,
                "pitch": 54,
                "velocity": 51,
                "duration": 0.0681818,
                "tempo": 120.0
            },
            {
                "start_time": 86.7886364,
                "end_time": 86.8545455,
                "pitch": 66,
                "velocity": 51,
                "duration": 0.0659091,
                "tempo": 120.0
            },
            {
                "start_time": 86.8681818,
                "end_time": 86.9318182,
                "pitch": 63,
                "velocity": 51,
                "duration": 0.0636364,
                "tempo": 120.0
            },
            {
                "start_time": 86.9454545,
                "end_time": 87.0113636,
                "pitch": 59,
                "velocity": 51,
                "duration": 0.0659091,
                "tempo": 120.0
            },
            {
                "start_time": 87.025,
                "end_time": 87.0886364,
                "pitch": 63,
                "velocity": 51,
                "duration": 0.0636364,
                "tempo": 120.0
            },
            {
                "start_time": 87.1022727,
                "end_time": 87.1681818,
                "pitch": 59,
                "velocity": 51,
                "duration": 0.0659091,
                "tempo": 120.0
            },
            {
                "start_time": 87.1818182,
                "end_time": 87.25,
                "pitch": 54,
                "velocity": 51,
                "duration": 0.0681818,
                "tempo": 120.0
            },
            {
                "start_time": 87.2636364,
                "end_time": 87.3295455,
                "pitch": 66,
                "velocity": 51,
                "duration": 0.0659091,
                "tempo": 120.0
            },
            {
                "start_time": 87.3431818,
                "end_time": 87.4090909,
                "pitch": 63,
                "velocity": 51,
                "duration": 0.0659091,
                "tempo": 120.0
            },
            {
                "start_time": 87.4227273,
                "end_time": 87.4886364,
                "pitch": 59,
                "velocity": 51,
                "duration": 0.0659091,
                "tempo": 120.0
            },
            {
                "start_time": 87.5022727,
                "end_time": 87.5704545,
                "pitch": 63,
                "velocity": 51,
                "duration": 0.0681818,
                "tempo": 120.0
            },
            {
                "start_time": 87.5840909,
                "end_time": 87.65,
                "pitch": 59,
                "velocity": 51,
                "duration": 0.0659091,
                "tempo": 120.0
            },
            {
                "start_time": 87.6636364,
                "end_time": 87.7318182,
                "pitch": 54,
                "velocity": 51,
                "duration": 0.0681818,
                "tempo": 120.0
            },
            {
                "start_time": 87.7454545,
                "end_time": 87.8136364,
                "pitch": 64,
                "velocity": 51,
                "duration": 0.0681818,
                "tempo": 120.0
            },
            {
                "start_time": 87.8272727,
                "end_time": 87.8954545,
                "pitch": 60,
                "velocity": 51,
                "duration": 0.0681818,
                "tempo": 120.0
            },
            {
                "start_time": 87.9090909,
                "end_time": 87.9772727,
                "pitch": 55,
                "velocity": 51,
                "duration": 0.0681818,
                "tempo": 120.0
            },
            {
                "start_time": 87.9909091,
                "end_time": 88.0590909,
                "pitch": 60,
                "velocity": 51,
                "duration": 0.0681818,
                "tempo": 120.0
            },
            {
                "start_time": 88.0727273,
                "end_time": 88.1386364,
                "pitch": 55,
                "velocity": 51,
                "duration": 0.0659091,
                "tempo": 120.0
            },
            {
                "start_time": 88.1522727,
                "end_time": 88.2159091,
                "pitch": 52,
                "velocity": 51,
                "duration": 0.0636364,
                "tempo": 120.0
            },
            {
                "start_time": 88.2295455,
                "end_time": 88.2954545,
                "pitch": 64,
                "velocity": 51,
                "duration": 0.0659091,
                "tempo": 120.0
            },
            {
                "start_time": 88.3090909,
                "end_time": 88.3727273,
                "pitch": 60,
                "velocity": 51,
                "duration": 0.0636364,
                "tempo": 120.0
            },
            {
                "start_time": 88.3863636,
                "end_time": 88.4545455,
                "pitch": 55,
                "velocity": 51,
                "duration": 0.0681818,
                "tempo": 120.0
            },
            {
                "start_time": 88.4681818,
                "end_time": 88.5386364,
                "pitch": 60,
                "velocity": 51,
                "duration": 0.0704545,
                "tempo": 120.0
            },
            {
                "start_time": 88.5522727,
                "end_time": 88.6204545,
                "pitch": 55,
                "velocity": 51,
                "duration": 0.0681818,
                "tempo": 120.0
            },
            {
                "start_time": 88.6340909,
                "end_time": 88.7022727,
                "pitch": 52,
                "velocity": 51,
                "duration": 0.0681818,
                "tempo": 120.0
            },
            {
                "start_time": 88.7159091,
                "end_time": 88.7818182,
                "pitch": 64,
                "velocity": 51,
                "duration": 0.0659091,
                "tempo": 120.0
            },
            {
                "start_time": 88.7954545,
                "end_time": 88.8636364,
                "pitch": 60,
                "velocity": 51,
                "duration": 0.0681818,
                "tempo": 120.0
            },
            {
                "start_time": 88.8772727,
                "end_time": 88.9431818,
                "pitch": 55,
                "velocity": 51,
                "duration": 0.0659091,
                "tempo": 120.0
            },
            {
                "start_time": 88.9568182,
                "end_time": 89.025,
                "pitch": 60,
                "velocity": 51,
                "duration": 0.0681818,
                "tempo": 120.0
            },
            {
                "start_time": 89.0386364,
                "end_time": 89.1022727,
                "pitch": 55,
                "velocity": 51,
                "duration": 0.0636364,
                "tempo": 120.0
            },
            {
                "start_time": 89.1159091,
                "end_time": 89.1818182,
                "pitch": 52,
                "velocity": 51,
                "duration": 0.0659091,
                "tempo": 120.0
            },
            {
                "start_time": 89.1954545,
                "end_time": 89.2590909,
                "pitch": 64,
                "velocity": 51,
                "duration": 0.0636364,
                "tempo": 120.0
            },
            {
                "start_time": 89.2727273,
                "end_time": 89.3386364,
                "pitch": 60,
                "velocity": 51,
                "duration": 0.0659091,
                "tempo": 120.0
            },
            {
                "start_time": 89.3522727,
                "end_time": 89.4181818,
                "pitch": 55,
                "velocity": 51,
                "duration": 0.0659091,
                "tempo": 120.0
            },
            {
                "start_time": 89.4318182,
                "end_time": 89.5,
                "pitch": 60,
                "velocity": 51,
                "duration": 0.0681818,
                "tempo": 120.0
            },
            {
                "start_time": 89.5136364,
                "end_time": 89.5795455,
                "pitch": 55,
                "velocity": 51,
                "duration": 0.0659091,
                "tempo": 120.0
            },
            {
                "start_time": 89.5931818,
                "end_time": 89.6613636,
                "pitch": 52,
                "velocity": 51,
                "duration": 0.0681818,
                "tempo": 120.0
            },
            {
                "start_time": 89.6727273,
                "end_time": 89.7431818,
                "pitch": 66,
                "velocity": 51,
                "duration": 0.0704545,
                "tempo": 120.0
            },
            {
                "start_time": 89.7568182,
                "end_time": 89.825,
                "pitch": 62,
                "velocity": 51,
                "duration": 0.0681818,
                "tempo": 120.0
            },
            {
                "start_time": 89.8386364,
                "end_time": 89.9068182,
                "pitch": 57,
                "velocity": 51,
                "duration": 0.0681818,
                "tempo": 120.0
            },
            {
                "start_time": 89.9204545,
                "end_time": 89.9886364,
                "pitch": 62,
                "velocity": 51,
                "duration": 0.0681818,
                "tempo": 120.0
            },
            {
                "start_time": 90.0022727,
                "end_time": 90.0681818,
                "pitch": 57,
                "velocity": 51,
                "duration": 0.0659091,
                "tempo": 120.0
            },
            {
                "start_time": 90.0795455,
                "end_time": 90.1454545,
                "pitch": 62,
                "velocity": 51,
                "duration": 0.0659091,
                "tempo": 120.0
            },
            {
                "start_time": 90.1590909,
                "end_time": 90.225,
                "pitch": 66,
                "velocity": 51,
                "duration": 0.0659091,
                "tempo": 120.0
            },
            {
                "start_time": 90.2363636,
                "end_time": 90.3022727,
                "pitch": 62,
                "velocity": 51,
                "duration": 0.0659091,
                "tempo": 120.0
            },
            {
                "start_time": 90.3159091,
                "end_time": 90.3840909,
                "pitch": 57,
                "velocity": 51,
                "duration": 0.0681818,
                "tempo": 120.0
            },
            {
                "start_time": 90.3977273,
                "end_time": 90.4659091,
                "pitch": 62,
                "velocity": 51,
                "duration": 0.0681818,
                "tempo": 120.0
            },
            {
                "start_time": 90.4795455,
                "end_time": 90.5477273,
                "pitch": 57,
                "velocity": 51,
                "duration": 0.0681818,
                "tempo": 120.0
            },
            {
                "start_time": 90.5613636,
                "end_time": 90.6318182,
                "pitch": 62,
                "velocity": 51,
                "duration": 0.0704545,
                "tempo": 120.0
            },
            {
                "start_time": 90.6454545,
                "end_time": 90.7113636,
                "pitch": 66,
                "velocity": 51,
                "duration": 0.0659091,
                "tempo": 120.0
            },
            {
                "start_time": 90.725,
                "end_time": 90.7931818,
                "pitch": 62,
                "velocity": 51,
                "duration": 0.0681818,
                "tempo": 120.0
            },
            {
                "start_time": 90.8045455,
                "end_time": 90.8727273,
                "pitch": 57,
                "velocity": 51,
                "duration": 0.0681818,
                "tempo": 120.0
            },
            {
                "start_time": 90.8863636,
                "end_time": 90.9522727,
                "pitch": 62,
                "velocity": 51,
                "duration": 0.0659091,
                "tempo": 120.0
            },
            {
                "start_time": 90.9659091,
                "end_time": 91.0318182,
                "pitch": 57,
                "velocity": 51,
                "duration": 0.0659091,
                "tempo": 120.0
            },
            {
                "start_time": 91.0454545,
                "end_time": 91.1113636,
                "pitch": 62,
                "velocity": 51,
                "duration": 0.0659091,
                "tempo": 120.0
            },
            {
                "start_time": 91.1227273,
                "end_time": 91.1886364,
                "pitch": 66,
                "velocity": 51,
                "duration": 0.0659091,
                "tempo": 120.0
            },
            {
                "start_time": 91.2022727,
                "end_time": 91.2681818,
                "pitch": 62,
                "velocity": 51,
                "duration": 0.0659091,
                "tempo": 120.0
            },
            {
                "start_time": 91.2795455,
                "end_time": 91.3477273,
                "pitch": 57,
                "velocity": 51,
                "duration": 0.0681818,
                "tempo": 120.0
            },
            {
                "start_time": 91.3613636,
                "end_time": 91.4318182,
                "pitch": 62,
                "velocity": 51,
                "duration": 0.0704545,
                "tempo": 120.0
            },
            {
                "start_time": 91.4454545,
                "end_time": 91.5136364,
                "pitch": 57,
                "velocity": 51,
                "duration": 0.0681818,
                "tempo": 120.0
            },
            {
                "start_time": 91.5272727,
                "end_time": 91.5954545,
                "pitch": 62,
                "velocity": 51,
                "duration": 0.0681818,
                "tempo": 120.0
            },
            {
                "start_time": 92.5727273,
                "end_time": 92.8863636,
                "pitch": 55,
                "velocity": 51,
                "duration": 0.3136364,
                "tempo": 120.0
            },
            {
                "start_time": 92.8863636,
                "end_time": 92.9545455,
                "pitch": 55,
                "velocity": 51,
                "duration": 0.0681818,
                "tempo": 120.0
            },
            {
                "start_time": 92.9545455,
                "end_time": 93.0363636,
                "pitch": 55,
                "velocity": 51,
                "duration": 0.0818182,
                "tempo": 120.0
            },
            {
                "start_time": 93.0522727,
                "end_time": 93.5227273,
                "pitch": 57,
                "velocity": 51,
                "duration": 0.4704545,
                "tempo": 120.0
            }
        ],
        "French Horn": [
            {
                "start_time": 12.7704545,
                "end_time": 14.1977273,
                "pitch": 66,
                "velocity": 64,
                "duration": 1.4272727,
                "tempo": 120.0
            },
            {
                "start_time": 14.2181818,
                "end_time": 15.6386364,
                "pitch": 67,
                "velocity": 64,
                "duration": 1.4204545,
                "tempo": 120.0
            },
            {
                "start_time": 15.6590909,
                "end_time": 17.0863636,
                "pitch": 71,
                "velocity": 64,
                "duration": 1.4272727,
                "tempo": 120.0
            },
            {
                "start_time": 17.1045455,
                "end_time": 18.525,
                "pitch": 62,
                "velocity": 64,
                "duration": 1.4204545,
                "tempo": 120.0
            },
            {
                "start_time": 18.5454545,
                "end_time": 19.9659091,
                "pitch": 64,
                "velocity": 64,
                "duration": 1.4204545,
                "tempo": 120.0
            },
            {
                "start_time": 19.9863636,
                "end_time": 21.4136364,
                "pitch": 66,
                "velocity": 64,
                "duration": 1.4272727,
                "tempo": 120.0
            },
            {
                "start_time": 21.4318182,
                "end_time": 22.8681818,
                "pitch": 74,
                "velocity": 64,
                "duration": 1.4363636,
                "tempo": 120.0
            },
            {
                "start_time": 22.8863636,
                "end_time": 24.3136364,
                "pitch": 72,
                "velocity": 64,
                "duration": 1.4272727,
                "tempo": 120.0
            },
            {
                "start_time": 24.3340909,
                "end_time": 25.7613636,
                "pitch": 74,
                "velocity": 64,
                "duration": 1.4272727,
                "tempo": 120.0
            },
            {
                "start_time": 25.7818182,
                "end_time": 27.2090909,
                "pitch": 76,
                "velocity": 64,
                "duration": 1.4272727,
                "tempo": 120.0
            },
            {
                "start_time": 27.2295455,
                "end_time": 28.6568182,
                "pitch": 78,
                "velocity": 64,
                "duration": 1.4272727,
                "tempo": 120.0
            },
            {
                "start_time": 28.6772727,
                "end_time": 31.5590909,
                "pitch": 76,
                "velocity": 64,
                "duration": 2.8818182,
                "tempo": 120.0
            },
            {
                "start_time": 31.5772727,
                "end_time": 34.4522727,
                "pitch": 75,
                "velocity": 64,
                "duration": 2.875,
                "tempo": 120.0
            },
            {
                "start_time": 59.1136364,
                "end_time": 60.5704545,
                "pitch": 62,
                "velocity": 64,
                "duration": 1.4568182,
                "tempo": 120.0
            },
            {
                "start_time": 60.5909091,
                "end_time": 62.0045455,
                "pitch": 67,
                "velocity": 64,
                "duration": 1.4136364,
                "tempo": 120.0
            },
            {
                "start_time": 62.025,
                "end_time": 63.4522727,
                "pitch": 64,
                "velocity": 64,
                "duration": 1.4272727,
                "tempo": 120.0
            },
            {
                "start_time": 63.4727273,
                "end_time": 64.9,
                "pitch": 60,
                "velocity": 64,
                "duration": 1.4272727,
                "tempo": 120.0
            },
            {
                "start_time": 64.9181818,
                "end_time": 66.3613636,
                "pitch": 57,
                "velocity": 64,
                "duration": 1.4431818,
                "tempo": 120.0
            },
            {
                "start_time": 66.3795455,
                "end_time": 67.8,
                "pitch": 59,
                "velocity": 64,
                "duration": 1.4204545,
                "tempo": 120.0
            },
            {
                "start_time": 67.8204545,
                "end_time": 68.0454545,
                "pitch": 52,
                "velocity": 64,
                "duration": 0.225,
                "tempo": 120.0
            },
            {
                "start_time": 68.0659091,
                "end_time": 68.2909091,
                "pitch": 55,
                "velocity": 64,
                "duration": 0.225,
                "tempo": 120.0
            },
            {
                "start_time": 68.3090909,
                "end_time": 68.5340909,
                "pitch": 59,
                "velocity": 64,
                "duration": 0.225,
                "tempo": 120.0
            },
            {
                "start_time": 68.5545455,
                "end_time": 68.7727273,
                "pitch": 64,
                "velocity": 64,
                "duration": 0.2181818,
                "tempo": 120.0
            },
            {
                "start_time": 68.7931818,
                "end_time": 69.0113636,
                "pitch": 67,
                "velocity": 64,
                "duration": 0.2181818,
                "tempo": 120.0
            },
            {
                "start_time": 69.0295455,
                "end_time": 69.2477273,
                "pitch": 71,
                "velocity": 64,
                "duration": 0.2181818,
                "tempo": 120.0
            },
            {
                "start_time": 69.2681818,
                "end_time": 69.4931818,
                "pitch": 72,
                "velocity": 64,
                "duration": 0.225,
                "tempo": 120.0
            },
            {
                "start_time": 69.5113636,
                "end_time": 69.7363636,
                "pitch": 67,
                "velocity": 64,
                "duration": 0.225,
                "tempo": 120.0
            },
            {
                "start_time": 69.7568182,
                "end_time": 69.9818182,
                "pitch": 64,
                "velocity": 64,
                "duration": 0.225,
                "tempo": 120.0
            },
            {
                "start_time": 70.0022727,
                "end_time": 70.2204545,
                "pitch": 72,
                "velocity": 64,
                "duration": 0.2181818,
                "tempo": 120.0
            },
            {
                "start_time": 70.2409091,
                "end_time": 70.4568182,
                "pitch": 67,
                "velocity": 64,
                "duration": 0.2159091,
                "tempo": 120.0
            },
            {
                "start_time": 70.4772727,
                "end_time": 70.6954545,
                "pitch": 64,
                "velocity": 64,
                "duration": 0.2181818,
                "tempo": 120.0
            },
            {
                "start_time": 70.7159091,
                "end_time": 70.9386364,
                "pitch": 69,
                "velocity": 64,
                "duration": 0.2227273,
                "tempo": 120.0
            },
            {
                "start_time": 70.9590909,
                "end_time": 71.1840909,
                "pitch": 66,
                "velocity": 64,
                "duration": 0.225,
                "tempo": 120.0
            },
            {
                "start_time": 71.2045455,
                "end_time": 71.4295455,
                "pitch": 62,
                "velocity": 64,
                "duration": 0.225,
                "tempo": 120.0
            },
            {
                "start_time": 71.45,
                "end_time": 71.6704545,
                "pitch": 69,
                "velocity": 64,
                "duration": 0.2204545,
                "tempo": 120.0
            },
            {
                "start_time": 71.6886364,
                "end_time": 71.9090909,
                "pitch": 66,
                "velocity": 64,
                "duration": 0.2204545,
                "tempo": 120.0
            },
            {
                "start_time": 71.9295455,
                "end_time": 72.15,
                "pitch": 62,
                "velocity": 64,
                "duration": 0.2204545,
                "tempo": 120.0
            },
            {
                "start_time": 72.1704545,
                "end_time": 72.3909091,
                "pitch": 71,
                "velocity": 64,
                "duration": 0.2204545,
                "tempo": 120.0
            },
            {
                "start_time": 72.4113636,
                "end_time": 72.6340909,
                "pitch": 67,
                "velocity": 64,
                "duration": 0.2227273,
                "tempo": 120.0
            },
            {
                "start_time": 72.6545455,
                "end_time": 72.8772727,
                "pitch": 62,
                "velocity": 64,
                "duration": 0.2227273,
                "tempo": 120.0
            },
            {
                "start_time": 72.8977273,
                "end_time": 73.1181818,
                "pitch": 71,
                "velocity": 64,
                "duration": 0.2204545,
                "tempo": 120.0
            },
            {
                "start_time": 73.1386364,
                "end_time": 73.3613636,
                "pitch": 67,
                "velocity": 64,
                "duration": 0.2227273,
                "tempo": 120.0
            },
            {
                "start_time": 73.3818182,
                "end_time": 73.6045455,
                "pitch": 62,
                "velocity": 64,
                "duration": 0.2227273,
                "tempo": 120.0
            },
            {
                "start_time": 73.625,
                "end_time": 73.8454545,
                "pitch": 71,
                "velocity": 64,
                "duration": 0.2204545,
                "tempo": 120.0
            },
            {
                "start_time": 73.8659091,
                "end_time": 74.0886364,
                "pitch": 67,
                "velocity": 64,
                "duration": 0.2227273,
                "tempo": 120.0
            },
            {
                "start_time": 74.1090909,
                "end_time": 74.3318182,
                "pitch": 64,
                "velocity": 64,
                "duration": 0.2227273,
                "tempo": 120.0
            },
            {
                "start_time": 74.3522727,
                "end_time": 74.5727273,
                "pitch": 71,
                "velocity": 64,
                "duration": 0.2204545,
                "tempo": 120.0
            },
            {
                "start_time": 74.5931818,
                "end_time": 74.8159091,
                "pitch": 67,
                "velocity": 64,
                "duration": 0.2227273,
                "tempo": 120.0
            },
            {
                "start_time": 74.8363636,
                "end_time": 75.0590909,
                "pitch": 64,
                "velocity": 64,
                "duration": 0.2227273,
                "tempo": 120.0
            },
            {
                "start_time": 75.0795455,
                "end_time": 75.2977273,
                "pitch": 72,
                "velocity": 64,
                "duration": 0.2181818,
                "tempo": 120.0
            },
            {
                "start_time": 75.3181818,
                "end_time": 75.5386364,
                "pitch": 67,
                "velocity": 64,
                "duration": 0.2204545,
                "tempo": 120.0
            },
            {
                "start_time": 75.5590909,
                "end_time": 75.7795455,
                "pitch": 64,
                "velocity": 64,
                "duration": 0.2204545,
                "tempo": 120.0
            },
            {
                "start_time": 75.7977273,
                "end_time": 76.0113636,
                "pitch": 72,
                "velocity": 64,
                "duration": 0.2136364,
                "tempo": 120.0
            },
            {
                "start_time": 76.0318182,
                "end_time": 76.2454545,
                "pitch": 67,
                "velocity": 64,
                "duration": 0.2136364,
                "tempo": 120.0
            },
            {
                "start_time": 76.2636364,
                "end_time": 76.4772727,
                "pitch": 64,
                "velocity": 64,
                "duration": 0.2136364,
                "tempo": 120.0
            },
            {
                "start_time": 76.4977273,
                "end_time": 76.725,
                "pitch": 69,
                "velocity": 64,
                "duration": 0.2272727,
                "tempo": 120.0
            },
            {
                "start_time": 76.7477273,
                "end_time": 76.975,
                "pitch": 66,
                "velocity": 64,
                "duration": 0.2272727,
                "tempo": 120.0
            },
            {
                "start_time": 76.9977273,
                "end_time": 77.225,
                "pitch": 62,
                "velocity": 64,
                "duration": 0.2272727,
                "tempo": 120.0
            },
            {
                "start_time": 77.2477273,
                "end_time": 77.4636364,
                "pitch": 69,
                "velocity": 64,
                "duration": 0.2159091,
                "tempo": 120.0
            },
            {
                "start_time": 77.4840909,
                "end_time": 77.7022727,
                "pitch": 66,
                "velocity": 64,
                "duration": 0.2181818,
                "tempo": 120.0
            },
            {
                "start_time": 77.7227273,
                "end_time": 77.9386364,
                "pitch": 62,
                "velocity": 64,
                "duration": 0.2159091,
                "tempo": 120.0
            },
            {
                "start_time": 77.9590909,
                "end_time": 78.1795455,
                "pitch": 67,
                "velocity": 64,
                "duration": 0.2204545,
                "tempo": 120.0
            },
            {
                "start_time": 78.2,
                "end_time": 78.4204545,
                "pitch": 64,
                "velocity": 64,
                "duration": 0.2204545,
                "tempo": 120.0
            },
            {
                "start_time": 78.4363636,
                "end_time": 78.5795455,
                "pitch": 59,
                "velocity": 64,
                "duration": 0.1431818,
                "tempo": 120.0
            },
            {
                "start_time": 78.5931818,
                "end_time": 78.7363636,
                "pitch": 64,
                "velocity": 64,
                "duration": 0.1431818,
                "tempo": 120.0
            },
            {
                "start_time": 78.75,
                "end_time": 78.8977273,
                "pitch": 59,
                "velocity": 64,
                "duration": 0.1477273,
                "tempo": 120.0
            },
            {
                "start_time": 78.9113636,
                "end_time": 79.0590909,
                "pitch": 55,
                "velocity": 64,
                "duration": 0.1477273,
                "tempo": 120.0
            },
            {
                "start_time": 79.0704545,
                "end_time": 79.2227273,
                "pitch": 67,
                "velocity": 64,
                "duration": 0.1522727,
                "tempo": 120.0
            },
            {
                "start_time": 79.2363636,
                "end_time": 79.3863636,
                "pitch": 64,
                "velocity": 64,
                "duration": 0.15,
                "tempo": 120.0
            },
            {
                "start_time": 79.4,
                "end_time": 79.5431818,
                "pitch": 59,
                "velocity": 64,
                "duration": 0.1431818,
                "tempo": 120.0
            },
            {
                "start_time": 79.5568182,
                "end_time": 79.7,
                "pitch": 64,
                "velocity": 64,
                "duration": 0.1431818,
                "tempo": 120.0
            },
            {
                "start_time": 79.7136364,
                "end_time": 79.8613636,
                "pitch": 59,
                "velocity": 64,
                "duration": 0.1477273,
                "tempo": 120.0
            },
            {
                "start_time": 79.875,
                "end_time": 80.0227273,
                "pitch": 55,
                "velocity": 64,
                "duration": 0.1477273,
                "tempo": 120.0
            },
            {
                "start_time": 80.0363636,
                "end_time": 80.9840909,
                "pitch": 72,
                "velocity": 64,
                "duration": 0.9477273,
                "tempo": 120.0
            },
            {
                "start_time": 80.9977273,
                "end_time": 81.4681818,
                "pitch": 74,
                "velocity": 64,
                "duration": 0.4704545,
                "tempo": 120.0
            },
            {
                "start_time": 81.4818182,
                "end_time": 81.9568182,
                "pitch": 76,
                "velocity": 64,
                "duration": 0.475,
                "tempo": 120.0
            },
            {
                "start_time": 81.9704545,
                "end_time": 82.9204545,
                "pitch": 74,
                "velocity": 64,
                "duration": 0.95,
                "tempo": 120.0
            },
            {
                "start_time": 82.9340909,
                "end_time": 83.3931818,
                "pitch": 72,
                "velocity": 64,
                "duration": 0.4590909,
                "tempo": 120.0
            },
            {
                "start_time": 83.4068182,
                "end_time": 83.8818182,
                "pitch": 71,
                "velocity": 64,
                "duration": 0.475,
                "tempo": 120.0
            },
            {
                "start_time": 83.8954545,
                "end_time": 84.8454545,
                "pitch": 69,
                "velocity": 64,
                "duration": 0.95,
                "tempo": 120.0
            },
            {
                "start_time": 84.8590909,
                "end_time": 85.3204545,
                "pitch": 71,
                "velocity": 64,
                "duration": 0.4613636,
                "tempo": 120.0
            },
            {
                "start_time": 85.3340909,
                "end_time": 85.8113636,
                "pitch": 72,
                "velocity": 64,
                "duration": 0.4772727,
                "tempo": 120.0
            },
            {
                "start_time": 85.825,
                "end_time": 86.775,
                "pitch": 72,
                "velocity": 64,
                "duration": 0.95,
                "tempo": 120.0
            },
            {
                "start_time": 86.7886364,
                "end_time": 87.7318182,
                "pitch": 71,
                "velocity": 64,
                "duration": 0.9431818,
                "tempo": 120.0
            },
            {
                "start_time": 87.7454545,
                "end_time": 88.7022727,
                "pitch": 72,
                "velocity": 64,
                "duration": 0.9568182,
                "tempo": 120.0
            },
            {
                "start_time": 88.7159091,
                "end_time": 89.1818182,
                "pitch": 74,
                "velocity": 64,
                "duration": 0.4659091,
                "tempo": 120.0
            },
            {
                "start_time": 89.1954545,
                "end_time": 89.6613636,
                "pitch": 76,
                "velocity": 64,
                "duration": 0.4659091,
                "tempo": 120.0
            },
            {
                "start_time": 89.6727273,
                "end_time": 90.6318182,
                "pitch": 74,
                "velocity": 64,
                "duration": 0.9590909,
                "tempo": 120.0
            },
            {
                "start_time": 90.6454545,
                "end_time": 91.1113636,
                "pitch": 76,
                "velocity": 64,
                "duration": 0.4659091,
                "tempo": 120.0
            },
            {
                "start_time": 91.1227273,
                "end_time": 91.5954545,
                "pitch": 78,
                "velocity": 64,
                "duration": 0.4727273,
                "tempo": 120.0
            },
            {
                "start_time": 91.6090909,
                "end_time": 92.5590909,
                "pitch": 76,
                "velocity": 64,
                "duration": 0.95,
                "tempo": 120.0
            },
            {
                "start_time": 92.5727273,
                "end_time": 93.0363636,
                "pitch": 67,
                "velocity": 64,
                "duration": 0.4636364,
                "tempo": 120.0
            },
            {
                "start_time": 93.0522727,
                "end_time": 93.5227273,
                "pitch": 69,
                "velocity": 64,
                "duration": 0.4704545,
                "tempo": 120.0
            }
        ]
    }
}