{
    "mood": "happy",
    "instruments": {
        "Trumpet": [
            {
                "start_time": 1.1954545,
                "end_time": 1.2772727,
                "pitch": 57,
                "velocity": 51,
                "duration": 0.0818182,
                "tempo": 120.0
            },
            {
                "start_time": 1.5954545,
                "end_time": 2.2022727,
                "pitch": 57,
                "velocity": 51,
                "duration": 0.6068182,
                "tempo": 120.0
            },
            {
                "start_time": 2.425,
                "end_time": 3.0181818,
                "pitch": 59,
                "velocity": 51,
                "duration": 0.5931818,
                "tempo": 120.0
            },
            {
                "start_time": 3.0363636,
                "end_time": 3.8159091,
                "pitch": 57,
                "velocity": 51,
                "duration": 0.7795455,
                "tempo": 120.0
            },
            {
                "start_time": 4.4545455,
                "end_time": 4.5431818,
                "pitch": 55,
                "velocity": 51,
                "duration": 0.0886364,
                "tempo": 120.0
            },
            {
                "start_time": 4.8772727,
                "end_time": 5.4681818,
                "pitch": 57,
                "velocity": 51,
                "duration": 0.5909091,
                "tempo": 120.0
            },
            {
                "start_time": 5.6818182,
                "end_time": 6.2613636,
                "pitch": 55,
                "velocity": 51,
                "duration": 0.5795455,
                "tempo": 120.0
            },
            {
                "start_time": 6.2795455,
                "end_time": 7.0977273,
                "pitch": 55,
                "velocity": 51,
                "duration": 0.8181818,
                "tempo": 120.0
            },
            {
                "start_time": 7.7181818,
                "end_time": 7.8022727,
                "pitch": 57,
                "velocity": 51,
                "duration": 0.0840909,
                "tempo": 120.0
            },
            {
                "start_time": 8.1181818,
                "end_time": 8.7227273,
                "pitch": 57,
                "velocity": 51,
                "duration": 0.6045455,
                "tempo": 120.0
            },
            {
                "start_time": 8.9454545,
                "end_time": 9.5409091,
                "pitch": 59,
                "velocity": 51,
                "duration": 0.5954545,
                "tempo": 120.0
            },
            {
                "start_time": 9.5590909,
                "end_time": 10.3386364,
                "pitch": 57,
                "velocity": 51,
                "duration": 0.7795455,
                "tempo": 120.0
            },
            {
                "start_time": 10.9795455,
                "end_time": 11.0659091,
                "pitch": 57,
                "velocity": 51,
                "duration": 0.0863636,
                "tempo": 120.0
            },
            {
                "start_time": 11.4022727,
                "end_time": 11.9931818,
                "pitch": 57,
                "velocity": 51,
                "duration": 0.5909091,
                "tempo": 120.0
            },
            {
                "start_time": 12.2045455,
                "end_time": 12.7863636,
                "pitch": 59,
                "velocity": 51,
                "duration": 0.5818182,
                "tempo": 120.0
            },
            {
                "start_time": 12.8022727,
                "end_time": 13.6204545,
                "pitch": 55,
                "velocity": 51,
                "duration": 0.8181818,
                "tempo": 120.0
            },
            {
                "start_time": 39.9295455,
                "end_time": 40.9068182,
                "pitch": 60,
                "velocity": 51,
                "duration": 0.9772727,
                "tempo": 120.0
            },
            {
                "start_time": 41.1409091,
                "end_time": 41.3340909,
                "pitch": 62,
                "velocity": 51,
                "duration": 0.1931818,
                "tempo": 120.0
            },
            {
                "start_time": 41.3522727,
                "end_time": 42.3386364,
                "pitch": 64,
                "velocity": 51,
                "duration": 0.9863636,
                "tempo": 120.0
            },
            {
                "start_time": 42.5522727,
                "end_time": 42.7318182,
                "pitch": 64,
                "velocity": 51,
                "duration": 0.1795455,
                "tempo": 120.0
            },
            {
                "start_time": 42.7477273,
                "end_time": 42.9409091,
                "pitch": 62,
                "velocity": 51,
                "duration": 0.1931818,
                "tempo": 120.0
            },
            {
                "start_time": 42.9590909,
                "end_time": 44.7954545,
                "pitch": 64,
                "velocity": 51,
                "duration": 1.8363636,
                "tempo": 120.0
            },
            {
                "start_time": 45.0090909,
                "end_time": 45.1886364,
                "pitch": 62,
                "velocity": 51,
                "duration": 0.1795455,
                "tempo": 120.0
            },
            {
                "start_time": 45.4272727,
                "end_time": 45.6159091,
                "pitch": 62,
                "velocity": 51,
                "duration": 0.1886364,
                "tempo": 120.0
            },
            {
                "start_time": 45.8386364,
                "end_time": 46.025,
                "pitch": 60,
                "velocity": 51,
                "duration": 0.1863636,
                "tempo": 120.0
            },
            {
                "start_time": 46.0431818,
                "end_time": 46.4363636,
                "pitch": 59,
                "velocity": 51,
                "duration": 0.3931818,
                "tempo": 120.0
            },
            {
                "start_time": 46.4545455,
                "end_time": 47.4454545,
                "pitch": 60,
                "velocity": 51,
                "duration": 0.9909091,
                "tempo": 120.0
            },
            {
                "start_time": 47.6636364,
                "end_time": 47.8568182,
                "pitch": 62,
                "velocity": 51,
                "duration": 0.1931818,
                "tempo": 120.0
            },
            {
                "start_time": 47.875,
                "end_time": 48.8522727,
                "pitch": 64,
                "velocity": 51,
                "duration": 0.9772727,
                "tempo": 120.0
            },
            {
                "start_time": 49.0681818,
                "end_time": 49.2522727,
                "pitch": 64,
                "velocity": 51,
                "duration": 0.1840909,
                "tempo": 120.0
            },
            {
                "start_time": 49.2681818,
                "end_time": 49.4613636,
                "pitch": 62,
                "velocity": 51,
                "duration": 0.1931818,
                "tempo": 120.0
            },
            {
                "start_time": 49.4795455,
                "end_time": 51.3181818,
                "pitch": 64,
                "velocity": 51,
                "duration": 1.8386364,
                "tempo": 120.0
            },
            {
                "start_time": 51.5318182,
                "end_time": 51.7113636,
                "pitch": 62,
                "velocity": 51,
                "duration": 0.1795455,
                "tempo": 120.0
            },
            {
                "start_time": 51.95,
                "end_time": 52.1386364,
                "pitch": 62,
                "velocity": 51,
                "duration": 0.1886364,
                "tempo": 120.0
            },
            {
                "start_time": 52.3613636,
                "end_time": 52.55,
                "pitch": 60,
                "velocity": 51,
                "duration": 0.1886364,
                "tempo": 120.0
            },
            {
                "start_time": 52.5659091,
                "end_time": 52.9590909,
                "pitch": 59,
                "velocity": 51,
                "duration": 0.3931818,
                "tempo": 120.0
            }
        ],
        "Acoustic Bass": [
            {
                "start_time": 0.7954545,
                "end_time": 0.9772727,
                "pitch": 36,
                "velocity": 80,
                "duration": 0.1818182,
                "tempo": 120.0
            },
            {
                "start_time": 0.9954545,
                "end_time": 1.0772727,
                "pitch": 48,
                "velocity": 80,
                "duration": 0.0818182,
                "tempo": 120.0
            },
            {
                "start_time": 1.0954545,
                "end_time": 1.1772727,
                "pitch": 48,
                "velocity": 80,
                "duration": 0.0818182,
                "tempo": 120.0
            },
            {
                "start_time": 1.1954545,
                "end_time": 1.3772727,
                "pitch": 36,
                "velocity": 80,
                "duration": 0.1818182,
                "tempo": 120.0
            },
            {
                "start_time": 1.3954545,
                "end_time": 1.4772727,
                "pitch": 48,
                "velocity": 80,
                "duration": 0.0818182,
                "tempo": 120.0
            },
            {
                "start_time": 1.4954545,
                "end_time": 1.5772727,
                "pitch": 48,
                "velocity": 80,
                "duration": 0.0818182,
                "tempo": 120.0
            },
            {
                "start_time": 1.5954545,
                "end_time": 1.7795455,
                "pitch": 36,
                "velocity": 80,
                "duration": 0.1840909,
                "tempo": 120.0
            },
            {
                "start_time": 1.7954545,
                "end_time": 1.8795455,
                "pitch": 48,
                "velocity": 80,
                "duration": 0.0840909,
                "tempo": 120.0
            },
            {
                "start_time": 1.8954545,
                "end_time": 1.9795455,
                "pitch": 48,
                "velocity": 80,
                "duration": 0.0840909,
                "tempo": 120.0
            },
            {
                "start_time": 1.9977273,
                "end_time": 2.2022727,
                "pitch": 36,
                "velocity": 80,
                "duration": 0.2045455,
                "tempo": 120.0
            },
            {
                "start_time": 2.2204545,
                "end_time": 2.3045455,
                "pitch": 48,
                "velocity": 80,
                "duration": 0.0840909,
                "tempo": 120.0
            },
            {
                "start_time": 2.3227273,
                "end_time": 2.4068182,
                "pitch": 48,
                "velocity": 80,
                "duration": 0.0840909,
                "tempo": 120.0
            },
            {
                "start_time": 2.425,
                "end_time": 2.6136364,
                "pitch": 36,
                "velocity": 80,
                "duration": 0.1886364,
                "tempo": 120.0
            },
            {
                "start_time": 2.6295455,
                "end_time": 2.7159091,
                "pitch": 48,
                "velocity": 80,
                "duration": 0.0863636,
                "tempo": 120.0
            },
            {
                "start_time": 2.7340909,
                "end_time": 2.8181818,
                "pitch": 48,
                "velocity": 80,
                "duration": 0.0840909,
                "tempo": 120.0
            },
            {
                "start_time": 2.8363636,
                "end_time": 3.0181818,
                "pitch": 36,
                "velocity": 80,
                "duration": 0.1818182,
                "tempo": 120.0
            },
            {
                "start_time": 3.0363636,
                "end_time": 3.1181818,
                "pitch": 48,
                "velocity": 80,
                "duration": 0.0818182,
                "tempo": 120.0
            },
            {
                "start_time": 3.1363636,
                "end_time": 3.2181818,
                "pitch": 48,
                "velocity": 80,
                "duration": 0.0818182,
                "tempo": 120.0
            },
            {
                "start_time": 3.2363636,
                "end_time": 3.4159091,
                "pitch": 36,
                "velocity": 80,
                "duration": 0.1795455,
                "tempo": 120.0
            },
            {
                "start_time": 3.4318182,
                "end_time": 3.5136364,
                "pitch": 48,
                "velocity": 80,
                "duration": 0.0818182,
                "tempo": 120.0
            },
            {
                "start_time": 3.5295455,
                "end_time": 3.6113636,
                "pitch": 48,
                "velocity": 80,
                "duration": 0.0818182,
                "tempo": 120.0
            },
            {
                "start_time": 3.6272727,
                "end_time": 3.8159091,
                "pitch": 45,
                "velocity": 80,
                "duration": 0.1886364,
                "tempo": 120.0
            },
            {
                "start_time": 3.8340909,
                "end_time": 3.9181818,
                "pitch": 43,
                "velocity": 80,
                "duration": 0.0840909,
                "tempo": 120.0
            },
            {
                "start_time": 3.9363636,
                "end_time": 4.0227273,
                "pitch": 43,
                "velocity": 80,
                "duration": 0.0863636,
                "tempo": 120.0
            },
            {
                "start_time": 4.0386364,
                "end_time": 4.2227273,
                "pitch": 36,
                "velocity": 80,
                "duration": 0.1840909,
                "tempo": 120.0
            },
            {
                "start_time": 4.2386364,
                "end_time": 4.3386364,
                "pitch": 48,
                "velocity": 80,
                "duration": 0.1,
                "tempo": 120.0
            },
            {
                "start_time": 4.3545455,
                "end_time": 4.4386364,
                "pitch": 48,
                "velocity": 80,
                "duration": 0.0840909,
                "tempo": 120.0
            },
            {
                "start_time": 4.4545455,
                "end_time": 4.65,
                "pitch": 36,
                "velocity": 80,
                "duration": 0.1954545,
                "tempo": 120.0
            },
            {
                "start_time": 4.6659091,
                "end_time": 4.7545455,
                "pitch": 48,
                "velocity": 80,
                "duration": 0.0886364,
                "tempo": 120.0
            },
            {
                "start_time": 4.7727273,
                "end_time": 4.8613636,
                "pitch": 48,
                "velocity": 80,
                "duration": 0.0886364,
                "tempo": 120.0
            },
            {
                "start_time": 4.8772727,
                "end_time": 5.0659091,
                "pitch": 36,
                "velocity": 80,
                "duration": 0.1886364,
                "tempo": 120.0
            },
            {
                "start_time": 5.0840909,
                "end_time": 5.1704545,
                "pitch": 48,
                "velocity": 80,
                "duration": 0.0863636,
                "tempo": 120.0
            },
            {
                "start_time": 5.1863636,
                "end_time": 5.2727273,
                "pitch": 48,
                "velocity": 80,
                "duration": 0.0863636,
                "tempo": 120.0
            },
            {
                "start_time": 5.2886364,
                "end_time": 5.4681818,
                "pitch": 36,
                "velocity": 80,
                "duration": 0.1795455,
                "tempo": 120.0
            },
            {
                "start_time": 5.4863636,
                "end_time": 5.5681818,
                "pitch": 48,
                "velocity": 80,
                "duration": 0.0818182,
                "tempo": 120.0
            },
            {
                "start_time": 5.5840909,
                "end_time": 5.6659091,
                "pitch": 48,
                "velocity": 80,
                "duration": 0.0818182,
                "tempo": 120.0
            },
            {
                "start_time": 5.6818182,
                "end_time": 5.8613636,
                "pitch": 36,
                "velocity": 80,
                "duration": 0.1795455,
                "tempo": 120.0
            },
            {
                "start_time": 5.8772727,
                "end_time": 5.9590909,
                "pitch": 48,
                "velocity": 80,
                "duration": 0.0818182,
                "tempo": 120.0
            },
            {
                "start_time": 5.975,
                "end_time": 6.0568182,
                "pitch": 48,
                "velocity": 80,
                "duration": 0.0818182,
                "tempo": 120.0
            },
            {
                "start_time": 6.0727273,
                "end_time": 6.2613636,
                "pitch": 36,
                "velocity": 80,
                "duration": 0.1886364,
                "tempo": 120.0
            },
            {
                "start_time": 6.2795455,
                "end_time": 6.3636364,
                "pitch": 48,
                "velocity": 80,
                "duration": 0.0840909,
                "tempo": 120.0
            },
            {
                "start_time": 6.3818182,
                "end_time": 6.4840909,
                "pitch": 48,
                "velocity": 80,
                "duration": 0.1022727,
                "tempo": 120.0
            },
            {
                "start_time": 6.5022727,
                "end_time": 6.6909091,
                "pitch": 36,
                "velocity": 80,
                "duration": 0.1886364,
                "tempo": 120.0
            },
            {
                "start_time": 6.7068182,
                "end_time": 6.7931818,
                "pitch": 48,
                "velocity": 80,
                "duration": 0.0863636,
                "tempo": 120.0
            },
            {
                "start_time": 6.8090909,
                "end_time": 6.8954545,
                "pitch": 48,
                "velocity": 80,
                "duration": 0.0863636,
                "tempo": 120.0
            },
            {
                "start_time": 6.9136364,
                "end_time": 7.0977273,
                "pitch": 45,
                "velocity": 80,
                "duration": 0.1840909,
                "tempo": 120.0
            },
            {
                "start_time": 7.1136364,
                "end_time": 7.1977273,
                "pitch": 43,
                "velocity": 80,
                "duration": 0.0840909,
                "tempo": 120.0
            },
            {
                "start_time": 7.2136364,
                "end_time": 7.2977273,
                "pitch": 43,
                "velocity": 80,
                "duration": 0.0840909,
                "tempo": 120.0
            },
            {
                "start_time": 7.3159091,
                "end_time": 7.5,
                "pitch": 36,
                "velocity": 80,
                "duration": 0.1840909,
                "tempo": 120.0
            },
            {
                "start_time": 7.5159091,
                "end_time": 7.6,
                "pitch": 48,
                "velocity": 80,
                "duration": 0.0840909,
                "tempo": 120.0
            },
            {
                "start_time": 7.6181818,
                "end_time": 7.7,
                "pitch": 48,
                "velocity": 80,
                "duration": 0.0818182,
                "tempo": 120.0
            },
            {
                "start_time": 7.7181818,
                "end_time": 7.9022727,
                "pitch": 36,
                "velocity": 80,
                "duration": 0.1840909,
                "tempo": 120.0
            },
            {
                "start_time": 7.9181818,
                "end_time": 8.0022727,
                "pitch": 48,
                "velocity": 80,
                "duration": 0.0840909,
                "tempo": 120.0
            },
            {
                "start_time": 8.0181818,
                "end_time": 8.1022727,
                "pitch": 48,
                "velocity": 80,
                "duration": 0.0840909,
                "tempo": 120.0
            },
            {
                "start_time": 8.1181818,
                "end_time": 8.3022727,
                "pitch": 36,
                "velocity": 80,
                "duration": 0.1840909,
                "tempo": 120.0
            },
            {
                "start_time": 8.3181818,
                "end_time": 8.4022727,
                "pitch": 48,
                "velocity": 80,
                "duration": 0.0840909,
                "tempo": 120.0
            },
            {
                "start_time": 8.4181818,
                "end_time": 8.5022727,
                "pitch": 48,
                "velocity": 80,
                "duration": 0.0840909,
                "tempo": 120.0
            },
            {
                "start_time": 8.5181818,
                "end_time": 8.7227273,
                "pitch": 36,
                "velocity": 80,
                "duration": 0.2045455,
                "tempo": 120.0
            },
            {
                "start_time": 8.7409091,
                "end_time": 8.825,
                "pitch": 48,
                "velocity": 80,
                "duration": 0.0840909,
                "tempo": 120.0
            },
            {
                "start_time": 8.8431818,
                "end_time": 8.9295455,
                "pitch": 48,
                "velocity": 80,
                "duration": 0.0863636,
                "tempo": 120.0
            },
            {
                "start_time": 8.9454545,
                "end_time": 9.1340909,
                "pitch": 36,
                "velocity": 80,
                "duration": 0.1886364,
                "tempo": 120.0
            },
            {
                "start_time": 9.1522727,
                "end_time": 9.2363636,
                "pitch": 48,
                "velocity": 80,
                "duration": 0.0840909,
                "tempo": 120.0
            },
            {
                "start_time": 9.2545455,
                "end_time": 9.3386364,
                "pitch": 48,
                "velocity": 80,
                "duration": 0.0840909,
                "tempo": 120.0
            },
            {
                "start_time": 9.3568182,
                "end_time": 9.5409091,
                "pitch": 36,
                "velocity": 80,
                "duration": 0.1840909,
                "tempo": 120.0
            },
            {
                "start_time": 9.5590909,
                "end_time": 9.6409091,
                "pitch": 48,
                "velocity": 80,
                "duration": 0.0818182,
                "tempo": 120.0
            },
            {
                "start_time": 9.6590909,
                "end_time": 9.7431818,
                "pitch": 48,
                "velocity": 80,
                "duration": 0.0840909,
                "tempo": 120.0
            },
            {
                "start_time": 9.7590909,
                "end_time": 9.9386364,
                "pitch": 36,
                "velocity": 80,
                "duration": 0.1795455,
                "tempo": 120.0
            },
            {
                "start_time": 9.9545455,
                "end_time": 10.0363636,
                "pitch": 48,
                "velocity": 80,
                "duration": 0.0818182,
                "tempo": 120.0
            },
            {
                "start_time": 10.0522727,
                "end_time": 10.1340909,
                "pitch": 48,
                "velocity": 80,
                "duration": 0.0818182,
                "tempo": 120.0
            },
            {
                "start_time": 10.1522727,
                "end_time": 10.3386364,
                "pitch": 45,
                "velocity": 80,
                "duration": 0.1863636,
                "tempo": 120.0
            },
            {
                "start_time": 10.3568182,
                "end_time": 10.4431818,
                "pitch": 43,
                "velocity": 80,
                "duration": 0.0863636,
                "tempo": 120.0
            },
            {
                "start_time": 10.4590909,
                "end_time": 10.5454545,
                "pitch": 43,
                "velocity": 80,
                "duration": 0.0863636,
                "tempo": 120.0
            },
            {
                "start_time": 10.5613636,
                "end_time": 10.7454545,
                "pitch": 36,
                "velocity": 80,
                "duration": 0.1840909,
                "tempo": 120.0
            },
            {
                "start_time": 10.7795455,
                "end_time": 10.8613636,
                "pitch": 48,
                "velocity": 80,
                "duration": 0.0818182,
                "tempo": 120.0
            },
            {
                "start_time": 10.8795455,
                "end_time": 10.9613636,
                "pitch": 48,
                "velocity": 80,
                "duration": 0.0818182,
                "tempo": 120.0
            },
            {
                "start_time": 10.9795455,
                "end_time": 11.1727273,
                "pitch": 36,
                "velocity": 80,
                "duration": 0.1931818,
                "tempo": 120.0
            },
            {
                "start_time": 11.1909091,
                "end_time": 11.2772727,
                "pitch": 48,
                "velocity": 80,
                "duration": 0.0863636,
                "tempo": 120.0
            },
            {
                "start_time": 11.2954545,
                "end_time": 11.3840909,
                "pitch": 48,
                "velocity": 80,
                "duration": 0.0886364,
                "tempo": 120.0
            },
            {
                "start_time": 11.4022727,
                "end_time": 11.5909091,
                "pitch": 36,
                "velocity": 80,
                "duration": 0.1886364,
                "tempo": 120.0
            },
            {
                "start_time": 11.6068182,
                "end_time": 11.6931818,
                "pitch": 48,
                "velocity": 80,
                "duration": 0.0863636,
                "tempo": 120.0
            },
            {
                "start_time": 11.7090909,
                "end_time": 11.7954545,
                "pitch": 48,
                "velocity": 80,
                "duration": 0.0863636,
                "tempo": 120.0
            },
            {
                "start_time": 11.8136364,
                "end_time": 11.9931818,
                "pitch": 36,
                "velocity": 80,
                "duration": 0.1795455,
                "tempo": 120.0
            },
            {
                "start_time": 12.0090909,
                "end_time": 12.0909091,
                "pitch": 48,
                "velocity": 80,
                "duration": 0.0818182,
                "tempo": 120.0
            },
            {
                "start_time": 12.1068182,
                "end_time": 12.1886364,
                "pitch": 48,
                "velocity": 80,
                "duration": 0.0818182,
                "tempo": 120.0
            },
            {
                "start_time": 12.2045455,
                "end_time": 12.3840909,
                "pitch": 36,
                "velocity": 80,
                "duration": 0.1795455,
                "tempo": 120.0
            },
            {
                "start_time": 12.4,
                "end_time": 12.4818182,
                "pitch": 48,
                "velocity": 80,
                "duration": 0.0818182,
                "tempo": 120.0
            },
            {
                "start_time": 12.5,
                "end_time": 12.5818182,
                "pitch": 48,
                "velocity": 80,
                "duration": 0.0818182,
                "tempo": 120.0
            },
            {
                "start_time": 12.5977273,
                "end_time": 12.7863636,
                "pitch": 36,
                "velocity": 80,
                "duration": 0.1886364,
                "tempo": 120.0
            },
            {
                "start_time": 12.8022727,
                "end_time": 12.8886364,
                "pitch": 48,
                "velocity": 80,
                "duration": 0.0863636,
                "tempo": 120.0
            },
            {
                "start_time": 12.9045455,
                "end_time": 13.0068182,
                "pitch": 48,
                "velocity": 80,
                "duration": 0.1022727,
                "tempo": 120.0
            },
            {
                "start_time": 13.025,
                "end_time": 13.2181818,
                "pitch": 36,
                "velocity": 80,
                "duration": 0.1931818,
                "tempo": 120.0
            },
            {
                "start_time": 13.2363636,
                "end_time": 13.325,
                "pitch": 48,
                "velocity": 80,
                "duration": 0.0886364,
                "tempo": 120.0
            },
            {
                "start_time": 13.3409091,
                "end_time": 13.4295455,
                "pitch": 48,
                "velocity": 80,
                "duration": 0.0886364,
                "tempo": 120.0
            },
            {
                "start_time": 13.4454545,
                "end_time": 13.6204545,
                "pitch": 36,
                "velocity": 80,
                "duration": 0.175,
                "tempo": 120.0
            },
            {
                "start_time": 13.6363636,
                "end_time": 13.7159091,
                "pitch": 48,
                "velocity": 80,
                "duration": 0.0795455,
                "tempo": 120.0
            },
            {
                "start_time": 13.7318182,
                "end_time": 13.8113636,
                "pitch": 48,
                "velocity": 80,
                "duration": 0.0795455,
                "tempo": 120.0
            },
            {
                "start_time": 13.8295455,
                "end_time": 14.0159091,
                "pitch": 36,
                "velocity": 80,
                "duration": 0.1863636,
                "tempo": 120.0
            },
            {
                "start_time": 14.0340909,
                "end_time": 14.2227273,
                "pitch": 48,
                "velocity": 80,
                "duration": 0.1886364,
                "tempo": 120.0
            },
            {
                "start_time": 14.2386364,
                "end_time": 14.4272727,
                "pitch": 36,
                "velocity": 80,
                "duration": 0.1886364,
                "tempo": 120.0
            },
            {
                "start_time": 14.4454545,
                "end_time": 14.6340909,
                "pitch": 48,
                "velocity": 80,
                "duration": 0.1886364,
                "tempo": 120.0
            },
            {
                "start_time": 14.65,
                "end_time": 14.825,
                "pitch": 36,
                "velocity": 80,
                "duration": 0.175,
                "tempo": 120.0
            },
            {
                "start_time": 14.8409091,
                "end_time": 15.0159091,
                "pitch": 48,
                "velocity": 80,
                "duration": 0.175,
                "tempo": 120.0
            },
            {
                "start_time": 15.0318182,
                "end_time": 15.2431818,
                "pitch": 36,
                "velocity": 80,
                "duration": 0.2113636,
                "tempo": 120.0
            },
            {
                "start_time": 15.2590909,
                "end_time": 15.4545455,
                "pitch": 48,
                "velocity": 80,
                "duration": 0.1954545,
                "tempo": 120.0
            },
            {
                "start_time": 15.4704545,
                "end_time": 15.6590909,
                "pitch": 35,
                "velocity": 80,
                "duration": 0.1886364,
                "tempo": 120.0
            },
            {
                "start_time": 15.6772727,
                "end_time": 15.8659091,
                "pitch": 47,
                "velocity": 80,
                "duration": 0.1886364,
                "tempo": 120.0
            },
            {
                "start_time": 15.8818182,
                "end_time": 16.0659091,
                "pitch": 35,
                "velocity": 80,
                "duration": 0.1840909,
                "tempo": 120.0
            },
            {
                "start_time": 16.0818182,
                "end_time": 16.2659091,
                "pitch": 47,
                "velocity": 80,
                "duration": 0.1840909,
                "tempo": 120.0
            },
            {
                "start_time": 16.2818182,
                "end_time": 16.4704545,
                "pitch": 35,
                "velocity": 80,
                "duration": 0.1886364,
                "tempo": 120.0
            },
            {
                "start_time": 16.4863636,
                "end_time": 16.675,
                "pitch": 47,
                "velocity": 80,
                "duration": 0.1886364,
                "tempo": 120.0
            },
            {
                "start_time": 16.6931818,
                "end_time": 16.8727273,
                "pitch": 35,
                "velocity": 80,
                "duration": 0.1795455,
                "tempo": 120.0
            },
            {
                "start_time": 16.8886364,
                "end_time": 17.0681818,
                "pitch": 47,
                "velocity": 80,
                "duration": 0.1795455,
                "tempo": 120.0
            },
            {
                "start_time": 17.0840909,
                "end_time": 17.2840909,
                "pitch": 33,
                "velocity": 80,
                "duration": 0.2,
                "tempo": 120.0
            },
            {
                "start_time": 17.3022727,
                "end_time": 17.4840909,
                "pitch": 45,
                "velocity": 80,
                "duration": 0.1818182,
                "tempo": 120.0
            },
            {
                "start_time": 17.5022727,
                "end_time": 17.6954545,
                "pitch": 33,
                "velocity": 80,
                "duration": 0.1931818,
                "tempo": 120.0
            },
            {
                "start_time": 17.7136364,
                "end_time": 17.9068182,
                "pitch": 45,
                "velocity": 80,
                "duration": 0.1931818,
                "tempo": 120.0
            },
            {
                "start_time": 17.9227273,
                "end_time": 18.1068182,
                "pitch": 33,
                "velocity": 80,
                "duration": 0.1840909,
                "tempo": 120.0
            },
            {
                "start_time": 18.125,
                "end_time": 18.3068182,
                "pitch": 45,
                "velocity": 80,
                "duration": 0.1818182,
                "tempo": 120.0
            },
            {
                "start_time": 18.325,
                "end_time": 18.5090909,
                "pitch": 33,
                "velocity": 80,
                "duration": 0.1840909,
                "tempo": 120.0
            },
            {
                "start_time": 18.525,
                "end_time": 18.7090909,
                "pitch": 45,
                "velocity": 80,
                "duration": 0.1840909,
                "tempo": 120.0
            },
            {
                "start_time": 18.7272727,
                "end_time": 18.9068182,
                "pitch": 31,
                "velocity": 80,
                "duration": 0.1795455,
                "tempo": 120.0
            },
            {
                "start_time": 18.9227273,
                "end_time": 19.1022727,
                "pitch": 43,
                "velocity": 80,
                "duration": 0.1795455,
                "tempo": 120.0
            },
            {
                "start_time": 19.1181818,
                "end_time": 19.3068182,
                "pitch": 31,
                "velocity": 80,
                "duration": 0.1886364,
                "tempo": 120.0
            },
            {
                "start_time": 19.325,
                "end_time": 19.5295455,
                "pitch": 43,
                "velocity": 80,
                "duration": 0.2045455,
                "tempo": 120.0
            },
            {
                "start_time": 19.5454545,
                "end_time": 19.7295455,
                "pitch": 31,
                "velocity": 80,
                "duration": 0.1840909,
                "tempo": 120.0
            },
            {
                "start_time": 19.7454545,
                "end_time": 19.9295455,
                "pitch": 43,
                "velocity": 80,
                "duration": 0.1840909,
                "tempo": 120.0
            },
            {
                "start_time": 19.9454545,
                "end_time": 20.1340909,
                "pitch": 31,
                "velocity": 80,
                "duration": 0.1886364,
                "tempo": 120.0
            },
            {
                "start_time": 20.1522727,
                "end_time": 20.3409091,
                "pitch": 43,
                "velocity": 80,
                "duration": 0.1886364,
                "tempo": 120.0
            },
            {
                "start_time": 20.3568182,
                "end_time": 20.5409091,
                "pitch": 29,
                "velocity": 80,
                "duration": 0.1840909,
                "tempo": 120.0
            },
            {
                "start_time": 20.5568182,
                "end_time": 20.7409091,
                "pitch": 41,
                "velocity": 80,
                "duration": 0.1840909,
                "tempo": 120.0
            },
            {
                "start_time": 20.7568182,
                "end_time": 20.9454545,
                "pitch": 29,
                "velocity": 80,
                "duration": 0.1886364,
                "tempo": 120.0
            },
            {
                "start_time": 20.9613636,
                "end_time": 21.15,
                "pitch": 41,
                "velocity": 80,
                "duration": 0.1886364,
                "tempo": 120.0
            },
            {
                "start_time": 21.1681818,
                "end_time": 21.3522727,
                "pitch": 29,
                "velocity": 80,
                "duration": 0.1840909,
                "tempo": 120.0
            },
            {
                "start_time": 21.3704545,
                "end_time": 21.5704545,
                "pitch": 41,
                "velocity": 80,
                "duration": 0.2,
                "tempo": 120.0
            },
            {
                "start_time": 21.5886364,
                "end_time": 21.775,
                "pitch": 29,
                "velocity": 80,
                "duration": 0.1863636,
                "tempo": 120.0
            },
            {
                "start_time": 21.7931818,
                "end_time": 21.9818182,
                "pitch": 41,
                "velocity": 80,
                "duration": 0.1886364,
                "tempo": 120.0
            },
            {
                "start_time": 21.9977273,
                "end_time": 22.1818182,
                "pitch": 28,
                "velocity": 80,
                "duration": 0.1840909,
                "tempo": 120.0
            },
            {
                "start_time": 22.1977273,
                "end_time": 22.3818182,
                "pitch": 40,
                "velocity": 80,
                "duration": 0.1840909,
                "tempo": 120.0
            },
            {
                "start_time": 22.3977273,
                "end_time": 22.5818182,
                "pitch": 28,
                "velocity": 80,
                "duration": 0.1840909,
                "tempo": 120.0
            },
            {
                "start_time": 22.5977273,
                "end_time": 22.7818182,
                "pitch": 40,
                "velocity": 80,
                "duration": 0.1840909,
                "tempo": 120.0
            },
            {
                "start_time": 22.7977273,
                "end_time": 22.9772727,
                "pitch": 28,
                "velocity": 80,
                "duration": 0.1795455,
                "tempo": 120.0
            },
            {
                "start_time": 22.9954545,
                "end_time": 23.175,
                "pitch": 40,
                "velocity": 80,
                "duration": 0.1795455,
                "tempo": 120.0
            },
            {
                "start_time": 23.1909091,
                "end_time": 23.3795455,
                "pitch": 28,
                "velocity": 80,
                "duration": 0.1886364,
                "tempo": 120.0
            },
            {
                "start_time": 23.3954545,
                "end_time": 23.5840909,
                "pitch": 40,
                "velocity": 80,
                "duration": 0.1886364,
                "tempo": 120.0
            },
            {
                "start_time": 23.6022727,
                "end_time": 23.8022727,
                "pitch": 26,
                "velocity": 80,
                "duration": 0.2,
                "tempo": 120.0
            },
            {
                "start_time": 23.8204545,
                "end_time": 24.0045455,
                "pitch": 38,
                "velocity": 80,
                "duration": 0.1840909,
                "tempo": 120.0
            },
            {
                "start_time": 24.0204545,
                "end_time": 24.2136364,
                "pitch": 26,
                "velocity": 80,
                "duration": 0.1931818,
                "tempo": 120.0
            },
            {
                "start_time": 24.2318182,
                "end_time": 24.425,
                "pitch": 38,
                "velocity": 80,
                "duration": 0.1931818,
                "tempo": 120.0
            },
            {
                "start_time": 24.4431818,
                "end_time": 24.6227273,
                "pitch": 26,
                "velocity": 80,
                "duration": 0.1795455,
                "tempo": 120.0
            },
            {
                "start_time": 24.6386364,
                "end_time": 24.8181818,
                "pitch": 38,
                "velocity": 80,
                "duration": 0.1795455,
                "tempo": 120.0
            },
            {
                "start_time": 24.8340909,
                "end_time": 25.0227273,
                "pitch": 26,
                "velocity": 80,
                "duration": 0.1886364,
                "tempo": 120.0
            },
            {
                "start_time": 25.0409091,
                "end_time": 25.2295455,
                "pitch": 38,
                "velocity": 80,
                "duration": 0.1886364,
                "tempo": 120.0
            },
            {
                "start_time": 25.2454545,
                "end_time": 25.4295455,
                "pitch": 31,
                "velocity": 80,
                "duration": 0.1840909,
                "tempo": 120.0
            },
            {
                "start_time": 25.4454545,
                "end_time": 25.6295455,
                "pitch": 43,
                "velocity": 80,
                "duration": 0.1840909,
                "tempo": 120.0
            },
            {
                "start_time": 25.6454545,
                "end_time": 25.8295455,
                "pitch": 31,
                "velocity": 80,
                "duration": 0.1840909,
                "tempo": 120.0
            },
            {
                "start_time": 25.8477273,
                "end_time": 26.0477273,
                "pitch": 43,
                "velocity": 80,
                "duration": 0.2,
                "tempo": 120.0
            },
            {
                "start_time": 26.0659091,
                "end_time": 26.2477273,
                "pitch": 31,
                "velocity": 80,
                "duration": 0.1818182,
                "tempo": 120.0
            },
            {
                "start_time": 26.2659091,
                "end_time": 26.4477273,
                "pitch": 43,
                "velocity": 80,
                "duration": 0.1818182,
                "tempo": 120.0
            },
            {
                "start_time": 26.4659091,
                "end_time": 26.6545455,
                "pitch": 31,
                "velocity": 80,
                "duration": 0.1886364,
                "tempo": 120.0
            },
            {
                "start_time": 26.6704545,
                "end_time": 26.8590909,
                "pitch": 43,
                "velocity": 80,
                "duration": 0.1886364,
                "tempo": 120.0
            },
            {
                "start_time": 26.8772727,
                "end_time": 27.0590909,
                "pitch": 36,
                "velocity": 80,
                "duration": 0.1818182,
                "tempo": 120.0
            },
            {
                "start_time": 27.0772727,
                "end_time": 27.2590909,
                "pitch": 36,
                "velocity": 80,
                "duration": 0.1818182,
                "tempo": 120.0
            },
            {
                "start_time": 27.2772727,
                "end_time": 27.4636364,
                "pitch": 36,
                "velocity": 80,
                "duration": 0.1863636,
                "tempo": 120.0
            },
            {
                "start_time": 27.4818182,
                "end_time": 27.6704545,
                "pitch": 36,
                "velocity": 80,
                "duration": 0.1886364,
                "tempo": 120.0
            },
            {
                "start_time": 27.6863636,
                "end_time": 27.8727273,
                "pitch": 36,
                "velocity": 80,
                "duration": 0.1863636,
                "tempo": 120.0
            },
            {
                "start_time": 27.8886364,
                "end_time": 28.0886364,
                "pitch": 36,
                "velocity": 80,
                "duration": 0.2,
                "tempo": 120.0
            },
            {
                "start_time": 28.1068182,
                "end_time": 28.2954545,
                "pitch": 36,
                "velocity": 80,
                "duration": 0.1886364,
                "tempo": 120.0
            },
            {
                "start_time": 28.3113636,
                "end_time": 28.5,
                "pitch": 36,
                "velocity": 80,
                "duration": 0.1886364,
                "tempo": 120.0
            },
            {
                "start_time": 28.5181818,
                "end_time": 28.7,
                "pitch": 35,
                "velocity": 80,
                "duration": 0.1818182,
                "tempo": 120.0
            },
            {
                "start_time": 28.7181818,
                "end_time": 28.9,
                "pitch": 35,
                "velocity": 80,
                "duration": 0.1818182,
                "tempo": 120.0
            },
            {
                "start_time": 28.9181818,
                "end_time": 29.1022727,
                "pitch": 35,
                "velocity": 80,
                "duration": 0.1840909,
                "tempo": 120.0
            },
            {
                "start_time": 29.1181818,
                "end_time": 29.3022727,
                "pitch": 35,
                "velocity": 80,
                "duration": 0.1840909,
                "tempo": 120.0
            },
            {
                "start_time": 29.3204545,
                "end_time": 29.5090909,
                "pitch": 35,
                "velocity": 80,
                "duration": 0.1886364,
                "tempo": 120.0
            },
            {
                "start_time": 29.525,
                "end_time": 29.7136364,
                "pitch": 35,
                "velocity": 80,
                "duration": 0.1886364,
                "tempo": 120.0
            },
            {
                "start_time": 29.7318182,
                "end_time": 29.9113636,
                "pitch": 35,
                "velocity": 80,
                "duration": 0.1795455,
                "tempo": 120.0
            },
            {
                "start_time": 29.9272727,
                "end_time": 30.1068182,
                "pitch": 35,
                "velocity": 80,
                "duration": 0.1795455,
                "tempo": 120.0
            },
            {
                "start_time": 30.1227273,
                "end_time": 30.325,
                "pitch": 33,
                "velocity": 80,
                "duration": 0.2022727,
                "tempo": 120.0
            },
            {
                "start_time": 30.3409091,
                "end_time": 30.525,
                "pitch": 33,
                "velocity": 80,
                "duration": 0.1840909,
                "tempo": 120.0
            },
            {
                "start_time": 30.5431818,
                "end_time": 30.7363636,
                "pitch": 33,
                "velocity": 80,
                "duration": 0.1931818,
                "tempo": 120.0
            },
            {
                "start_time": 30.7545455,
                "end_time": 30.9477273,
                "pitch": 33,
                "velocity": 80,
                "duration": 0.1931818,
                "tempo": 120.0
            },
            {
                "start_time": 30.9659091,
                "end_time": 31.1545455,
                "pitch": 33,
                "velocity": 80,
                "duration": 0.1886364,
                "tempo": 120.0
            },
            {
                "start_time": 31.1704545,
                "end_time": 31.3590909,
                "pitch": 33,
                "velocity": 80,
                "duration": 0.1886364,
                "tempo": 120.0
            },
            {
                "start_time": 31.3772727,
                "end_time": 31.5568182,
                "pitch": 33,
                "velocity": 80,
                "duration": 0.1795455,
                "tempo": 120.0
            },
            {
                "start_time": 31.5727273,
                "end_time": 31.7522727,
                "pitch": 33,
                "velocity": 80,
                "duration": 0.1795455,
                "tempo": 120.0
            },
            {
                "start_time": 31.7681818,
                "end_time": 31.9522727,
                "pitch": 31,
                "velocity": 80,
                "duration": 0.1840909,
                "tempo": 120.0
            },
            {
                "start_time": 31.9704545,
                "end_time": 32.1545455,
                "pitch": 31,
                "velocity": 80,
                "duration": 0.1840909,
                "tempo": 120.0
            },
            {
                "start_time": 32.1704545,
                "end_time": 32.3704545,
                "pitch": 31,
                "velocity": 80,
                "duration": 0.2,
                "tempo": 120.0
            },
            {
                "start_time": 32.3886364,
                "end_time": 32.5704545,
                "pitch": 31,
                "velocity": 80,
                "duration": 0.1818182,
                "tempo": 120.0
            },
            {
                "start_time": 32.5886364,
                "end_time": 32.7772727,
                "pitch": 31,
                "velocity": 80,
                "duration": 0.1886364,
                "tempo": 120.0
            },
            {
                "start_time": 32.7931818,
                "end_time": 32.9818182,
                "pitch": 31,
                "velocity": 80,
                "duration": 0.1886364,
                "tempo": 120.0
            },
            {
                "start_time": 32.9977273,
                "end_time": 33.1840909,
                "pitch": 31,
                "velocity": 80,
                "duration": 0.1863636,
                "tempo": 120.0
            },
            {
                "start_time": 33.2,
                "end_time": 33.3840909,
                "pitch": 31,
                "velocity": 80,
                "duration": 0.1840909,
                "tempo": 120.0
            },
            {
                "start_time": 33.4022727,
                "end_time": 33.5840909,
                "pitch": 29,
                "velocity": 80,
                "duration": 0.1818182,
                "tempo": 120.0
            },
            {
                "start_time": 33.6022727,
                "end_time": 33.7840909,
                "pitch": 29,
                "velocity": 80,
                "duration": 0.1818182,
                "tempo": 120.0
            },
            {
                "start_time": 33.8022727,
                "end_time": 33.9886364,
                "pitch": 29,
                "velocity": 80,
                "duration": 0.1863636,
                "tempo": 120.0
            },
            {
                "start_time": 34.0068182,
                "end_time": 34.1954545,
                "pitch": 29,
                "velocity": 80,
                "duration": 0.1886364,
                "tempo": 120.0
            },
            {
                "start_time": 34.2113636,
                "end_time": 34.4,
                "pitch": 29,
                "velocity": 80,
                "duration": 0.1886364,
                "tempo": 120.0
            },
            {
                "start_time": 34.4181818,
                "end_time": 34.6227273,
                "pitch": 29,
                "velocity": 80,
                "duration": 0.2045455,
                "tempo": 120.0
            },
            {
                "start_time": 34.6409091,
                "end_time": 34.8227273,
                "pitch": 29,
                "velocity": 80,
                "duration": 0.1818182,
                "tempo": 120.0
            },
            {
                "start_time": 34.8409091,
                "end_time": 35.0227273,
                "pitch": 29,
                "velocity": 80,
                "duration": 0.1818182,
                "tempo": 120.0
            },
            {
                "start_time": 35.0409091,
                "end_time": 35.2227273,
                "pitch": 29,
                "velocity": 80,
                "duration": 0.1818182,
                "tempo": 120.0
            },
            {
                "start_time": 35.2409091,
                "end_time": 35.4227273,
                "pitch": 29,
                "velocity": 80,
                "duration": 0.1818182,
                "tempo": 120.0
            },
            {
                "start_time": 35.4409091,
                "end_time": 35.6227273,
                "pitch": 29,
                "velocity": 80,
                "duration": 0.1818182,
                "tempo": 120.0
            },
            {
                "start_time": 35.6409091,
                "end_time": 35.8227273,
                "pitch": 29,
                "velocity": 80,
                "duration": 0.1818182,
                "tempo": 120.0
            },
            {
                "start_time": 35.8409091,
                "end_time": 36.0295455,
                "pitch": 29,
                "velocity": 80,
                "duration": 0.1886364,
                "tempo": 120.0
            },
            {
                "start_time": 36.0454545,
                "end_time": 36.2340909,
                "pitch": 29,
                "velocity": 80,
                "duration": 0.1886364,
                "tempo": 120.0
            },
            {
                "start_time": 36.25,
                "end_time": 36.4318182,
                "pitch": 29,
                "velocity": 80,
                "duration": 0.1818182,
                "tempo": 120.0
            },
            {
                "start_time": 36.4477273,
                "end_time": 36.6272727,
                "pitch": 29,
                "velocity": 80,
                "duration": 0.1795455,
                "tempo": 120.0
            },
            {
                "start_time": 36.6590909,
                "end_time": 36.8522727,
                "pitch": 31,
                "velocity": 80,
                "duration": 0.1931818,
                "tempo": 120.0
            },
            {
                "start_time": 36.8704545,
                "end_time": 37.0636364,
                "pitch": 31,
                "velocity": 80,
                "duration": 0.1931818,
                "tempo": 120.0
            },
            {
                "start_time": 37.0818182,
                "end_time": 37.2659091,
                "pitch": 31,
                "velocity": 80,
                "duration": 0.1840909,
                "tempo": 120.0
            },
            {
                "start_time": 37.2818182,
                "end_time": 37.4659091,
                "pitch": 31,
                "velocity": 80,
                "duration": 0.1840909,
                "tempo": 120.0
            },
            {
                "start_time": 37.4818182,
                "end_time": 37.6704545,
                "pitch": 31,
                "velocity": 80,
                "duration": 0.1886364,
                "tempo": 120.0
            },
            {
                "start_time": 37.6863636,
                "end_time": 37.875,
                "pitch": 31,
                "velocity": 80,
                "duration": 0.1886364,
                "tempo": 120.0
            },
            {
                "start_time": 37.8931818,
                "end_time": 38.0727273,
                "pitch": 31,
                "velocity": 80,
                "duration": 0.1795455,
                "tempo": 120.0
            },
            {
                "start_time": 38.0886364,
                "end_time": 38.2681818,
                "pitch": 31,
                "velocity": 80,
                "duration": 0.1795455,
                "tempo": 120.0
            },
            {
                "start_time": 38.2840909,
                "end_time": 38.4681818,
                "pitch": 31,
                "velocity": 80,
                "duration": 0.1840909,
                "tempo": 120.0
            },
            {
                "start_time": 38.4840909,
                "end_time": 38.6681818,
                "pitch": 31,
                "velocity": 80,
                "duration": 0.1840909,
                "tempo": 120.0
            },
            {
                "start_time": 38.6840909,
                "end_time": 38.8863636,
                "pitch": 31,
                "velocity": 80,
                "duration": 0.2022727,
                "tempo": 120.0
            },
            {
                "start_time": 38.9022727,
                "end_time": 39.0886364,
                "pitch": 31,
                "velocity": 80,
                "duration": 0.1863636,
                "tempo": 120.0
            },
            {
                "start_time": 39.1045455,
                "end_time": 39.2977273,
                "pitch": 31,
                "velocity": 80,
                "duration": 0.1931818,
                "tempo": 120.0
            },
            {
                "start_time": 39.3159091,
                "end_time": 39.5090909,
                "pitch": 31,
                "velocity": 80,
                "duration": 0.1931818,
                "tempo": 120.0
            },
            {
                "start_time": 39.5272727,
                "end_time": 39.7113636,
                "pitch": 31,
                "velocity": 80,
                "duration": 0.1840909,
                "tempo": 120.0
            },
            {
                "start_time": 39.7272727,
                "end_time": 39.9136364,
                "pitch": 31,
                "velocity": 80,
                "duration": 0.1863636,
                "tempo": 120.0
            },
            {
                "start_time": 39.9295455,
                "end_time": 40.0113636,
                "pitch": 45,
                "velocity": 80,
                "duration": 0.0818182,
                "tempo": 120.0
            },
            {
                "start_time": 40.0272727,
                "end_time": 40.1090909,
                "pitch": 45,
                "velocity": 80,
                "duration": 0.0818182,
                "tempo": 120.0
            },
            {
                "start_time": 40.125,
                "end_time": 40.2068182,
                "pitch": 57,
                "velocity": 80,
                "duration": 0.0818182,
                "tempo": 120.0
            },
            {
                "start_time": 40.2227273,
                "end_time": 40.3045455,
                "pitch": 57,
                "velocity": 80,
                "duration": 0.0818182,
                "tempo": 120.0
            },
            {
                "start_time": 40.3227273,
                "end_time": 40.4045455,
                "pitch": 45,
                "velocity": 80,
                "duration": 0.0818182,
                "tempo": 120.0
            },
            {
                "start_time": 40.4227273,
                "end_time": 40.5068182,
                "pitch": 45,
                "velocity": 80,
                "duration": 0.0840909,
                "tempo": 120.0
            },
            {
                "start_time": 40.5227273,
                "end_time": 40.6068182,
                "pitch": 57,
                "velocity": 80,
                "duration": 0.0840909,
                "tempo": 120.0
            },
            {
                "start_time": 40.6227273,
                "end_time": 40.7068182,
                "pitch": 57,
                "velocity": 80,
                "duration": 0.0840909,
                "tempo": 120.0
            },
            {
                "start_time": 40.725,
                "end_time": 40.8068182,
                "pitch": 45,
                "velocity": 80,
                "duration": 0.0818182,
                "tempo": 120.0
            },
            {
                "start_time": 40.825,
                "end_time": 40.9068182,
                "pitch": 45,
                "velocity": 80,
                "duration": 0.0818182,
                "tempo": 120.0
            },
            {
                "start_time": 40.925,
                "end_time": 41.025,
                "pitch": 57,
                "velocity": 80,
                "duration": 0.1,
                "tempo": 120.0
            },
            {
                "start_time": 41.0409091,
                "end_time": 41.125,
                "pitch": 57,
                "velocity": 80,
                "duration": 0.0840909,
                "tempo": 120.0
            },
            {
                "start_time": 41.1409091,
                "end_time": 41.2295455,
                "pitch": 45,
                "velocity": 80,
                "duration": 0.0886364,
                "tempo": 120.0
            },
            {
                "start_time": 41.2477273,
                "end_time": 41.3340909,
                "pitch": 45,
                "velocity": 80,
                "duration": 0.0863636,
                "tempo": 120.0
            },
            {
                "start_time": 41.3522727,
                "end_time": 41.4409091,
                "pitch": 57,
                "velocity": 80,
                "duration": 0.0886364,
                "tempo": 120.0
            },
            {
                "start_time": 41.4568182,
                "end_time": 41.5454545,
                "pitch": 57,
                "velocity": 80,
                "duration": 0.0886364,
                "tempo": 120.0
            },
            {
                "start_time": 41.5636364,
                "end_time": 41.6477273,
                "pitch": 43,
                "velocity": 80,
                "duration": 0.0840909,
                "tempo": 120.0
            },
            {
                "start_time": 41.6636364,
                "end_time": 41.7477273,
                "pitch": 43,
                "velocity": 80,
                "duration": 0.0840909,
                "tempo": 120.0
            },
            {
                "start_time": 41.7636364,
                "end_time": 41.8477273,
                "pitch": 55,
                "velocity": 80,
                "duration": 0.0840909,
                "tempo": 120.0
            },
            {
                "start_time": 41.8636364,
                "end_time": 41.9477273,
                "pitch": 55,
                "velocity": 80,
                "duration": 0.0840909,
                "tempo": 120.0
            },
            {
                "start_time": 41.9636364,
                "end_time": 42.0454545,
                "pitch": 43,
                "velocity": 80,
                "duration": 0.0818182,
                "tempo": 120.0
            },
            {
                "start_time": 42.0613636,
                "end_time": 42.1431818,
                "pitch": 43,
                "velocity": 80,
                "duration": 0.0818182,
                "tempo": 120.0
            },
            {
                "start_time": 42.1590909,
                "end_time": 42.2409091,
                "pitch": 55,
                "velocity": 80,
                "duration": 0.0818182,
                "tempo": 120.0
            },
            {
                "start_time": 42.2568182,
                "end_time": 42.3386364,
                "pitch": 55,
                "velocity": 80,
                "duration": 0.0818182,
                "tempo": 120.0
            },
            {
                "start_time": 42.3545455,
                "end_time": 42.4363636,
                "pitch": 43,
                "velocity": 80,
                "duration": 0.0818182,
                "tempo": 120.0
            },
            {
                "start_time": 42.4545455,
                "end_time": 42.5340909,
                "pitch": 43,
                "velocity": 80,
                "duration": 0.0795455,
                "tempo": 120.0
            },
            {
                "start_time": 42.5522727,
                "end_time": 42.6340909,
                "pitch": 55,
                "velocity": 80,
                "duration": 0.0818182,
                "tempo": 120.0
            },
            {
                "start_time": 42.65,
                "end_time": 42.7318182,
                "pitch": 55,
                "velocity": 80,
                "duration": 0.0818182,
                "tempo": 120.0
            },
            {
                "start_time": 42.7477273,
                "end_time": 42.8363636,
                "pitch": 43,
                "velocity": 80,
                "duration": 0.0886364,
                "tempo": 120.0
            },
            {
                "start_time": 42.8522727,
                "end_time": 42.9409091,
                "pitch": 43,
                "velocity": 80,
                "duration": 0.0886364,
                "tempo": 120.0
            },
            {
                "start_time": 42.9590909,
                "end_time": 43.0477273,
                "pitch": 55,
                "velocity": 80,
                "duration": 0.0886364,
                "tempo": 120.0
            },
            {
                "start_time": 43.0636364,
                "end_time": 43.1704545,
                "pitch": 55,
                "velocity": 80,
                "duration": 0.1068182,
                "tempo": 120.0
            },
            {
                "start_time": 43.1886364,
                "end_time": 43.2727273,
                "pitch": 41,
                "velocity": 80,
                "duration": 0.0840909,
                "tempo": 120.0
            },
            {
                "start_time": 43.2909091,
                "end_time": 43.375,
                "pitch": 41,
                "velocity": 80,
                "duration": 0.0840909,
                "tempo": 120.0
            },
            {
                "start_time": 43.3931818,
                "end_time": 43.4795455,
                "pitch": 53,
                "velocity": 80,
                "duration": 0.0863636,
                "tempo": 120.0
            },
            {
                "start_time": 43.4954545,
                "end_time": 43.5818182,
                "pitch": 53,
                "velocity": 80,
                "duration": 0.0863636,
                "tempo": 120.0
            },
            {
                "start_time": 43.5977273,
                "end_time": 43.6795455,
                "pitch": 41,
                "velocity": 80,
                "duration": 0.0818182,
                "tempo": 120.0
            },
            {
                "start_time": 43.6954545,
                "end_time": 43.7772727,
                "pitch": 41,
                "velocity": 80,
                "duration": 0.0818182,
                "tempo": 120.0
            },
            {
                "start_time": 43.7931818,
                "end_time": 43.875,
                "pitch": 53,
                "velocity": 80,
                "duration": 0.0818182,
                "tempo": 120.0
            },
            {
                "start_time": 43.8909091,
                "end_time": 43.9727273,
                "pitch": 53,
                "velocity": 80,
                "duration": 0.0818182,
                "tempo": 120.0
            },
            {
                "start_time": 43.9909091,
                "end_time": 44.0727273,
                "pitch": 41,
                "velocity": 80,
                "duration": 0.0818182,
                "tempo": 120.0
            },
            {
                "start_time": 44.0909091,
                "end_time": 44.1727273,
                "pitch": 41,
                "velocity": 80,
                "duration": 0.0818182,
                "tempo": 120.0
            },
            {
                "start_time": 44.1909091,
                "end_time": 44.2727273,
                "pitch": 53,
                "velocity": 80,
                "duration": 0.0818182,
                "tempo": 120.0
            },
            {
                "start_time": 44.2909091,
                "end_time": 44.3727273,
                "pitch": 53,
                "velocity": 80,
                "duration": 0.0818182,
                "tempo": 120.0
            },
            {
                "start_time": 44.3909091,
                "end_time": 44.4772727,
                "pitch": 41,
                "velocity": 80,
                "duration": 0.0863636,
                "tempo": 120.0
            },
            {
                "start_time": 44.4954545,
                "end_time": 44.5840909,
                "pitch": 41,
                "velocity": 80,
                "duration": 0.0886364,
                "tempo": 120.0
            },
            {
                "start_time": 44.6022727,
                "end_time": 44.6886364,
                "pitch": 53,
                "velocity": 80,
                "duration": 0.0863636,
                "tempo": 120.0
            },
            {
                "start_time": 44.7068182,
                "end_time": 44.7954545,
                "pitch": 53,
                "velocity": 80,
                "duration": 0.0886364,
                "tempo": 120.0
            },
            {
                "start_time": 44.8113636,
                "end_time": 44.8931818,
                "pitch": 43,
                "velocity": 80,
                "duration": 0.0818182,
                "tempo": 120.0
            },
            {
                "start_time": 44.9090909,
                "end_time": 44.9909091,
                "pitch": 43,
                "velocity": 80,
                "duration": 0.0818182,
                "tempo": 120.0
            },
            {
                "start_time": 45.0090909,
                "end_time": 45.0909091,
                "pitch": 55,
                "velocity": 80,
                "duration": 0.0818182,
                "tempo": 120.0
            },
            {
                "start_time": 45.1068182,
                "end_time": 45.1886364,
                "pitch": 55,
                "velocity": 80,
                "duration": 0.0818182,
                "tempo": 120.0
            },
            {
                "start_time": 45.2045455,
                "end_time": 45.3068182,
                "pitch": 43,
                "velocity": 80,
                "duration": 0.1022727,
                "tempo": 120.0
            },
            {
                "start_time": 45.325,
                "end_time": 45.4090909,
                "pitch": 43,
                "velocity": 80,
                "duration": 0.0840909,
                "tempo": 120.0
            },
            {
                "start_time": 45.4272727,
                "end_time": 45.5113636,
                "pitch": 55,
                "velocity": 80,
                "duration": 0.0840909,
                "tempo": 120.0
            },
            {
                "start_time": 45.5295455,
                "end_time": 45.6159091,
                "pitch": 55,
                "velocity": 80,
                "duration": 0.0863636,
                "tempo": 120.0
            },
            {
                "start_time": 45.6318182,
                "end_time": 45.7181818,
                "pitch": 43,
                "velocity": 80,
                "duration": 0.0863636,
                "tempo": 120.0
            },
            {
                "start_time": 45.7340909,
                "end_time": 45.8204545,
                "pitch": 43,
                "velocity": 80,
                "duration": 0.0863636,
                "tempo": 120.0
            },
            {
                "start_time": 45.8386364,
                "end_time": 45.9227273,
                "pitch": 55,
                "velocity": 80,
                "duration": 0.0840909,
                "tempo": 120.0
            },
            {
                "start_time": 45.9409091,
                "end_time": 46.025,
                "pitch": 55,
                "velocity": 80,
                "duration": 0.0840909,
                "tempo": 120.0
            },
            {
                "start_time": 46.0431818,
                "end_time": 46.1295455,
                "pitch": 43,
                "velocity": 80,
                "duration": 0.0863636,
                "tempo": 120.0
            },
            {
                "start_time": 46.1454545,
                "end_time": 46.2318182,
                "pitch": 43,
                "velocity": 80,
                "duration": 0.0863636,
                "tempo": 120.0
            },
            {
                "start_time": 46.2477273,
                "end_time": 46.3340909,
                "pitch": 55,
                "velocity": 80,
                "duration": 0.0863636,
                "tempo": 120.0
            },
            {
                "start_time": 46.3522727,
                "end_time": 46.4363636,
                "pitch": 55,
                "velocity": 80,
                "duration": 0.0840909,
                "tempo": 120.0
            },
            {
                "start_time": 46.4545455,
                "end_time": 46.5386364,
                "pitch": 45,
                "velocity": 80,
                "duration": 0.0840909,
                "tempo": 120.0
            },
            {
                "start_time": 46.5545455,
                "end_time": 46.6386364,
                "pitch": 45,
                "velocity": 80,
                "duration": 0.0840909,
                "tempo": 120.0
            },
            {
                "start_time": 46.6545455,
                "end_time": 46.7386364,
                "pitch": 57,
                "velocity": 80,
                "duration": 0.0840909,
                "tempo": 120.0
            },
            {
                "start_time": 46.7545455,
                "end_time": 46.8386364,
                "pitch": 57,
                "velocity": 80,
                "duration": 0.0840909,
                "tempo": 120.0
            },
            {
                "start_time": 46.8545455,
                "end_time": 46.9363636,
                "pitch": 45,
                "velocity": 80,
                "duration": 0.0818182,
                "tempo": 120.0
            },
            {
                "start_time": 46.9522727,
                "end_time": 47.0340909,
                "pitch": 45,
                "velocity": 80,
                "duration": 0.0818182,
                "tempo": 120.0
            },
            {
                "start_time": 47.05,
                "end_time": 47.1318182,
                "pitch": 57,
                "velocity": 80,
                "duration": 0.0818182,
                "tempo": 120.0
            },
            {
                "start_time": 47.1477273,
                "end_time": 47.2295455,
                "pitch": 57,
                "velocity": 80,
                "duration": 0.0818182,
                "tempo": 120.0
            },
            {
                "start_time": 47.2454545,
                "end_time": 47.3295455,
                "pitch": 45,
                "velocity": 80,
                "duration": 0.0840909,
                "tempo": 120.0
            },
            {
                "start_time": 47.3454545,
                "end_time": 47.4454545,
                "pitch": 45,
                "velocity": 80,
                "duration": 0.1,
                "tempo": 120.0
            },
            {
                "start_time": 47.4636364,
                "end_time": 47.5454545,
                "pitch": 57,
                "velocity": 80,
                "duration": 0.0818182,
                "tempo": 120.0
            },
            {
                "start_time": 47.5636364,
                "end_time": 47.6454545,
                "pitch": 57,
                "velocity": 80,
                "duration": 0.0818182,
                "tempo": 120.0
            },
            {
                "start_time": 47.6636364,
                "end_time": 47.75,
                "pitch": 45,
                "velocity": 80,
                "duration": 0.0863636,
                "tempo": 120.0
            },
            {
                "start_time": 47.7681818,
                "end_time": 47.8568182,
                "pitch": 45,
                "velocity": 80,
                "duration": 0.0886364,
                "tempo": 120.0
            },
            {
                "start_time": 47.875,
                "end_time": 47.9613636,
                "pitch": 57,
                "velocity": 80,
                "duration": 0.0863636,
                "tempo": 120.0
            },
            {
                "start_time": 47.9795455,
                "end_time": 48.0681818,
                "pitch": 57,
                "velocity": 80,
                "duration": 0.0886364,
                "tempo": 120.0
            },
            {
                "start_time": 48.0863636,
                "end_time": 48.1681818,
                "pitch": 43,
                "velocity": 80,
                "duration": 0.0818182,
                "tempo": 120.0
            },
            {
                "start_time": 48.1863636,
                "end_time": 48.2681818,
                "pitch": 43,
                "velocity": 80,
                "duration": 0.0818182,
                "tempo": 120.0
            },
            {
                "start_time": 48.2863636,
                "end_time": 48.3681818,
                "pitch": 55,
                "velocity": 80,
                "duration": 0.0818182,
                "tempo": 120.0
            },
            {
                "start_time": 48.3863636,
                "end_time": 48.4681818,
                "pitch": 55,
                "velocity": 80,
                "duration": 0.0818182,
                "tempo": 120.0
            },
            {
                "start_time": 48.4840909,
                "end_time": 48.5636364,
                "pitch": 43,
                "velocity": 80,
                "duration": 0.0795455,
                "tempo": 120.0
            },
            {
                "start_time": 48.5795455,
                "end_time": 48.6590909,
                "pitch": 43,
                "velocity": 80,
                "duration": 0.0795455,
                "tempo": 120.0
            },
            {
                "start_time": 48.675,
                "end_time": 48.7545455,
                "pitch": 55,
                "velocity": 80,
                "duration": 0.0795455,
                "tempo": 120.0
            },
            {
                "start_time": 48.7704545,
                "end_time": 48.8522727,
                "pitch": 55,
                "velocity": 80,
                "duration": 0.0818182,
                "tempo": 120.0
            },
            {
                "start_time": 48.8681818,
                "end_time": 48.9522727,
                "pitch": 43,
                "velocity": 80,
                "duration": 0.0840909,
                "tempo": 120.0
            },
            {
                "start_time": 48.9681818,
                "end_time": 49.0522727,
                "pitch": 43,
                "velocity": 80,
                "duration": 0.0840909,
                "tempo": 120.0
            },
            {
                "start_time": 49.0681818,
                "end_time": 49.1522727,
                "pitch": 55,
                "velocity": 80,
                "duration": 0.0840909,
                "tempo": 120.0
            },
            {
                "start_time": 49.1681818,
                "end_time": 49.2522727,
                "pitch": 55,
                "velocity": 80,
                "duration": 0.0840909,
                "tempo": 120.0
            },
            {
                "start_time": 49.2681818,
                "end_time": 49.3568182,
                "pitch": 43,
                "velocity": 80,
                "duration": 0.0886364,
                "tempo": 120.0
            },
            {
                "start_time": 49.3727273,
                "end_time": 49.4613636,
                "pitch": 43,
                "velocity": 80,
                "duration": 0.0886364,
                "tempo": 120.0
            },
            {
                "start_time": 49.4795455,
                "end_time": 49.5681818,
                "pitch": 55,
                "velocity": 80,
                "duration": 0.0886364,
                "tempo": 120.0
            },
            {
                "start_time": 49.6022727,
                "end_time": 49.6909091,
                "pitch": 55,
                "velocity": 80,
                "duration": 0.0886364,
                "tempo": 120.0
            },
            {
                "start_time": 49.7068182,
                "end_time": 49.7931818,
                "pitch": 41,
                "velocity": 80,
                "duration": 0.0863636,
                "tempo": 120.0
            },
            {
                "start_time": 49.8113636,
                "end_time": 49.8954545,
                "pitch": 41,
                "velocity": 80,
                "duration": 0.0840909,
                "tempo": 120.0
            },
            {
                "start_time": 49.9136364,
                "end_time": 49.9977273,
                "pitch": 53,
                "velocity": 80,
                "duration": 0.0840909,
                "tempo": 120.0
            },
            {
                "start_time": 50.0159091,
                "end_time": 50.1022727,
                "pitch": 53,
                "velocity": 80,
                "duration": 0.0863636,
                "tempo": 120.0
            },
            {
                "start_time": 50.1181818,
                "end_time": 50.2,
                "pitch": 41,
                "velocity": 80,
                "duration": 0.0818182,
                "tempo": 120.0
            },
            {
                "start_time": 50.2159091,
                "end_time": 50.2977273,
                "pitch": 41,
                "velocity": 80,
                "duration": 0.0818182,
                "tempo": 120.0
            },
            {
                "start_time": 50.3136364,
                "end_time": 50.3954545,
                "pitch": 53,
                "velocity": 80,
                "duration": 0.0818182,
                "tempo": 120.0
            },
            {
                "start_time": 50.4113636,
                "end_time": 50.4931818,
                "pitch": 53,
                "velocity": 80,
                "duration": 0.0818182,
                "tempo": 120.0
            },
            {
                "start_time": 50.5113636,
                "end_time": 50.5954545,
                "pitch": 41,
                "velocity": 80,
                "duration": 0.0840909,
                "tempo": 120.0
            },
            {
                "start_time": 50.6113636,
                "end_time": 50.6954545,
                "pitch": 41,
                "velocity": 80,
                "duration": 0.0840909,
                "tempo": 120.0
            },
            {
                "start_time": 50.7113636,
                "end_time": 50.7954545,
                "pitch": 53,
                "velocity": 80,
                "duration": 0.0840909,
                "tempo": 120.0
            },
            {
                "start_time": 50.8136364,
                "end_time": 50.8954545,
                "pitch": 53,
                "velocity": 80,
                "duration": 0.0818182,
                "tempo": 120.0
            },
            {
                "start_time": 50.9136364,
                "end_time": 51.0,
                "pitch": 41,
                "velocity": 80,
                "duration": 0.0863636,
                "tempo": 120.0
            },
            {
                "start_time": 51.0181818,
                "end_time": 51.1068182,
                "pitch": 41,
                "velocity": 80,
                "duration": 0.0886364,
                "tempo": 120.0
            },
            {
                "start_time": 51.125,
                "end_time": 51.2113636,
                "pitch": 53,
                "velocity": 80,
                "duration": 0.0863636,
                "tempo": 120.0
            },
            {
                "start_time": 51.2295455,
                "end_time": 51.3181818,
                "pitch": 53,
                "velocity": 80,
                "duration": 0.0886364,
                "tempo": 120.0
            },
            {
                "start_time": 51.3340909,
                "end_time": 51.4159091,
                "pitch": 43,
                "velocity": 80,
                "duration": 0.0818182,
                "tempo": 120.0
            },
            {
                "start_time": 51.4340909,
                "end_time": 51.5159091,
                "pitch": 43,
                "velocity": 80,
                "duration": 0.0818182,
                "tempo": 120.0
            },
            {
                "start_time": 51.5318182,
                "end_time": 51.6136364,
                "pitch": 55,
                "velocity": 80,
                "duration": 0.0818182,
                "tempo": 120.0
            },
            {
                "start_time": 51.6295455,
                "end_time": 51.7113636,
                "pitch": 55,
                "velocity": 80,
                "duration": 0.0818182,
                "tempo": 120.0
            },
            {
                "start_time": 51.7272727,
                "end_time": 51.8295455,
                "pitch": 43,
                "velocity": 80,
                "duration": 0.1022727,
                "tempo": 120.0
            },
            {
                "start_time": 51.8477273,
                "end_time": 51.9318182,
                "pitch": 43,
                "velocity": 80,
                "duration": 0.0840909,
                "tempo": 120.0
            },
            {
                "start_time": 51.95,
                "end_time": 52.0363636,
                "pitch": 55,
                "velocity": 80,
                "duration": 0.0863636,
                "tempo": 120.0
            },
            {
                "start_time": 52.0522727,
                "end_time": 52.1386364,
                "pitch": 55,
                "velocity": 80,
                "duration": 0.0863636,
                "tempo": 120.0
            },
            {
                "start_time": 52.1545455,
                "end_time": 52.2409091,
                "pitch": 43,
                "velocity": 80,
                "duration": 0.0863636,
                "tempo": 120.0
            },
            {
                "start_time": 52.2568182,
                "end_time": 52.3431818,
                "pitch": 43,
                "velocity": 80,
                "duration": 0.0863636,
                "tempo": 120.0
            },
            {
                "start_time": 52.3613636,
                "end_time": 52.4454545,
                "pitch": 55,
                "velocity": 80,
                "duration": 0.0840909,
                "tempo": 120.0
            },
            {
                "start_time": 52.4636364,
                "end_time": 52.55,
                "pitch": 55,
                "velocity": 80,
                "duration": 0.0863636,
                "tempo": 120.0
            },
            {
                "start_time": 52.5659091,
                "end_time": 52.6522727,
                "pitch": 43,
                "velocity": 80,
                "duration": 0.0863636,
                "tempo": 120.0
            },
            {
                "start_time": 52.6681818,
                "end_time": 52.7545455,
                "pitch": 43,
                "velocity": 80,
                "duration": 0.0863636,
                "tempo": 120.0
            },
            {
                "start_time": 52.7727273,
                "end_time": 52.8568182,
                "pitch": 55,
                "velocity": 80,
                "duration": 0.0840909,
                "tempo": 120.0
            },
            {
                "start_time": 52.875,
                "end_time": 52.9590909,
                "pitch": 55,
                "velocity": 80,
                "duration": 0.0840909,
                "tempo": 120.0
            },
            {
                "start_time": 52.9772727,
                "end_time": 53.1613636,
                "pitch": 45,
                "velocity": 80,
                "duration": 0.1840909,
                "tempo": 120.0
            },
            {
                "start_time": 53.1772727,
                "end_time": 53.2613636,
                "pitch": 57,
                "velocity": 80,
                "duration": 0.0840909,
                "tempo": 120.0
            },
            {
                "start_time": 53.2772727,
                "end_time": 53.3613636,
                "pitch": 57,
                "velocity": 80,
                "duration": 0.0840909,
                "tempo": 120.0
            },
            {
                "start_time": 53.3772727,
                "end_time": 53.5613636,
                "pitch": 45,
                "velocity": 80,
                "duration": 0.1840909,
                "tempo": 120.0
            },
            {
                "start_time": 53.5772727,
                "end_time": 53.6613636,
                "pitch": 57,
                "velocity": 80,
                "duration": 0.0840909,
                "tempo": 120.0
            },
            {
                "start_time": 53.6772727,
                "end_time": 53.7613636,
                "pitch": 57,
                "velocity": 80,
                "duration": 0.0840909,
                "tempo": 120.0
            },
            {
                "start_time": 53.7772727,
                "end_time": 53.9772727,
                "pitch": 45,
                "velocity": 80,
                "duration": 0.2,
                "tempo": 120.0
            },
            {
                "start_time": 53.9931818,
                "end_time": 54.0772727,
                "pitch": 57,
                "velocity": 80,
                "duration": 0.0840909,
                "tempo": 120.0
            },
            {
                "start_time": 54.0931818,
                "end_time": 54.1772727,
                "pitch": 57,
                "velocity": 80,
                "duration": 0.0840909,
                "tempo": 120.0
            },
            {
                "start_time": 54.1931818,
                "end_time": 54.3818182,
                "pitch": 45,
                "velocity": 80,
                "duration": 0.1886364,
                "tempo": 120.0
            },
            {
                "start_time": 54.4,
                "end_time": 54.4840909,
                "pitch": 57,
                "velocity": 80,
                "duration": 0.0840909,
                "tempo": 120.0
            },
            {
                "start_time": 54.5022727,
                "end_time": 54.5886364,
                "pitch": 57,
                "velocity": 80,
                "duration": 0.0863636,
                "tempo": 120.0
            },
            {
                "start_time": 54.6045455,
                "end_time": 54.7886364,
                "pitch": 43,
                "velocity": 80,
                "duration": 0.1840909,
                "tempo": 120.0
            },
            {
                "start_time": 54.8045455,
                "end_time": 54.8886364,
                "pitch": 55,
                "velocity": 80,
                "duration": 0.0840909,
                "tempo": 120.0
            },
            {
                "start_time": 54.9045455,
                "end_time": 54.9886364,
                "pitch": 55,
                "velocity": 80,
                "duration": 0.0840909,
                "tempo": 120.0
            },
            {
                "start_time": 55.0045455,
                "end_time": 55.1886364,
                "pitch": 43,
                "velocity": 80,
                "duration": 0.1840909,
                "tempo": 120.0
            },
            {
                "start_time": 55.2045455,
                "end_time": 55.2886364,
                "pitch": 55,
                "velocity": 80,
                "duration": 0.0840909,
                "tempo": 120.0
            },
            {
                "start_time": 55.3045455,
                "end_time": 55.3886364,
                "pitch": 55,
                "velocity": 80,
                "duration": 0.0840909,
                "tempo": 120.0
            },
            {
                "start_time": 55.4045455,
                "end_time": 55.5931818,
                "pitch": 43,
                "velocity": 80,
                "duration": 0.1886364,
                "tempo": 120.0
            },
            {
                "start_time": 55.6090909,
                "end_time": 55.6954545,
                "pitch": 55,
                "velocity": 80,
                "duration": 0.0863636,
                "tempo": 120.0
            },
            {
                "start_time": 55.7136364,
                "end_time": 55.7977273,
                "pitch": 55,
                "velocity": 80,
                "duration": 0.0840909,
                "tempo": 120.0
            },
            {
                "start_time": 55.8159091,
                "end_time": 55.9954545,
                "pitch": 43,
                "velocity": 80,
                "duration": 0.1795455,
                "tempo": 120.0
            },
            {
                "start_time": 56.0113636,
                "end_time": 56.1090909,
                "pitch": 55,
                "velocity": 80,
                "duration": 0.0977273,
                "tempo": 120.0
            },
            {
                "start_time": 56.125,
                "end_time": 56.2068182,
                "pitch": 55,
                "velocity": 80,
                "duration": 0.0818182,
                "tempo": 120.0
            },
            {
                "start_time": 56.225,
                "end_time": 56.4136364,
                "pitch": 41,
                "velocity": 80,
                "duration": 0.1886364,
                "tempo": 120.0
            },
            {
                "start_time": 56.4295455,
                "end_time": 56.5159091,
                "pitch": 53,
                "velocity": 80,
                "duration": 0.0863636,
                "tempo": 120.0
            },
            {
                "start_time": 56.5318182,
                "end_time": 56.6181818,
                "pitch": 53,
                "velocity": 80,
                "duration": 0.0863636,
                "tempo": 120.0
            },
            {
                "start_time": 56.6363636,
                "end_time": 56.8227273,
                "pitch": 41,
                "velocity": 80,
                "duration": 0.1863636,
                "tempo": 120.0
            },
            {
                "start_time": 56.8409091,
                "end_time": 56.9272727,
                "pitch": 53,
                "velocity": 80,
                "duration": 0.0863636,
                "tempo": 120.0
            },
            {
                "start_time": 56.9431818,
                "end_time": 57.0295455,
                "pitch": 53,
                "velocity": 80,
                "duration": 0.0863636,
                "tempo": 120.0
            },
            {
                "start_time": 57.0454545,
                "end_time": 57.225,
                "pitch": 41,
                "velocity": 80,
                "duration": 0.1795455,
                "tempo": 120.0
            },
            {
                "start_time": 57.2431818,
                "end_time": 57.3227273,
                "pitch": 53,
                "velocity": 80,
                "duration": 0.0795455,
                "tempo": 120.0
            },
            {
                "start_time": 57.3409091,
                "end_time": 57.4227273,
                "pitch": 53,
                "velocity": 80,
                "duration": 0.0818182,
                "tempo": 120.0
            },
            {
                "start_time": 57.4386364,
                "end_time": 57.6272727,
                "pitch": 41,
                "velocity": 80,
                "duration": 0.1886364,
                "tempo": 120.0
            },
            {
                "start_time": 57.6431818,
                "end_time": 57.7295455,
                "pitch": 53,
                "velocity": 80,
                "duration": 0.0863636,
                "tempo": 120.0
            },
            {
                "start_time": 57.7454545,
                "end_time": 57.8318182,
                "pitch": 53,
                "velocity": 80,
                "duration": 0.0863636,
                "tempo": 120.0
            },
            {
                "start_time": 57.8477273,
                "end_time": 58.0272727,
                "pitch": 43,
                "velocity": 80,
                "duration": 0.1795455,
                "tempo": 120.0
            },
            {
                "start_time": 58.0454545,
                "end_time": 58.1272727,
                "pitch": 55,
                "velocity": 80,
                "duration": 0.0818182,
                "tempo": 120.0
            },
            {
                "start_time": 58.1431818,
                "end_time": 58.2409091,
                "pitch": 55,
                "velocity": 80,
                "duration": 0.0977273,
                "tempo": 120.0
            },
            {
                "start_time": 58.2568182,
                "end_time": 58.4545455,
                "pitch": 43,
                "velocity": 80,
                "duration": 0.1977273,
                "tempo": 120.0
            },
            {
                "start_time": 58.4727273,
                "end_time": 58.5613636,
                "pitch": 55,
                "velocity": 80,
                "duration": 0.0886364,
                "tempo": 120.0
            },
            {
                "start_time": 58.5795455,
                "end_time": 58.6704545,
                "pitch": 55,
                "velocity": 80,
                "duration": 0.0909091,
                "tempo": 120.0
            },
            {
                "start_time": 58.6863636,
                "end_time": 58.8613636,
                "pitch": 43,
                "velocity": 80,
                "duration": 0.175,
                "tempo": 120.0
            },
            {
                "start_time": 58.8772727,
                "end_time": 58.9568182,
                "pitch": 55,
                "velocity": 80,
                "duration": 0.0795455,
                "tempo": 120.0
            },
            {
                "start_time": 58.9727273,
                "end_time": 59.0522727,
                "pitch": 55,
                "velocity": 80,
                "duration": 0.0795455,
                "tempo": 120.0
            },
            {
                "start_time": 59.0681818,
                "end_time": 59.2568182,
                "pitch": 43,
                "velocity": 80,
                "duration": 0.1886364,
                "tempo": 120.0
            },
            {
                "start_time": 59.275,
                "end_time": 59.3590909,
                "pitch": 55,
                "velocity": 80,
                "duration": 0.0840909,
                "tempo": 120.0
            },
            {
                "start_time": 59.3772727,
                "end_time": 59.4636364,
                "pitch": 55,
                "velocity": 80,
                "duration": 0.0863636,
                "tempo": 120.0
            },
            {
                "start_time": 59.4795455,
                "end_time": 59.6636364,
                "pitch": 45,
                "velocity": 80,
                "duration": 0.1840909,
                "tempo": 120.0
            },
            {
                "start_time": 59.6795455,
                "end_time": 59.7636364,
                "pitch": 57,
                "velocity": 80,
                "duration": 0.0840909,
                "tempo": 120.0
            },
            {
                "start_time": 59.7795455,
                "end_time": 59.8636364,
                "pitch": 57,
                "velocity": 80,
                "duration": 0.0840909,
                "tempo": 120.0
            },
            {
                "start_time": 59.8795455,
                "end_time": 60.0636364,
                "pitch": 45,
                "velocity": 80,
                "duration": 0.1840909,
                "tempo": 120.0
            },
            {
                "start_time": 60.0795455,
                "end_time": 60.1636364,
                "pitch": 57,
                "velocity": 80,
                "duration": 0.0840909,
                "tempo": 120.0
            },
            {
                "start_time": 60.1795455,
                "end_time": 60.2636364,
                "pitch": 57,
                "velocity": 80,
                "duration": 0.0840909,
                "tempo": 120.0
            },
            {
                "start_time": 60.2795455,
                "end_time": 60.4840909,
                "pitch": 45,
                "velocity": 80,
                "duration": 0.2045455,
                "tempo": 120.0
            },
            {
                "start_time": 60.5022727,
                "end_time": 60.5886364,
                "pitch": 57,
                "velocity": 80,
                "duration": 0.0863636,
                "tempo": 120.0
            },
            {
                "start_time": 60.6045455,
                "end_time": 60.6909091,
                "pitch": 57,
                "velocity": 80,
                "duration": 0.0863636,
                "tempo": 120.0
            },
            {
                "start_time": 60.7068182,
                "end_time": 60.8954545,
                "pitch": 45,
                "velocity": 80,
                "duration": 0.1886364,
                "tempo": 120.0
            },
            {
                "start_time": 60.9136364,
                "end_time": 60.9977273,
                "pitch": 57,
                "velocity": 80,
                "duration": 0.0840909,
                "tempo": 120.0
            },
            {
                "start_time": 61.0159091,
                "end_time": 61.1022727,
                "pitch": 57,
                "velocity": 80,
                "duration": 0.0863636,
                "tempo": 120.0
            },
            {
                "start_time": 61.1181818,
                "end_time": 61.3022727,
                "pitch": 43,
                "velocity": 80,
                "duration": 0.1840909,
                "tempo": 120.0
            },
            {
                "start_time": 61.3204545,
                "end_time": 61.4045455,
                "pitch": 55,
                "velocity": 80,
                "duration": 0.0840909,
                "tempo": 120.0
            },
            {
                "start_time": 61.4204545,
                "end_time": 61.5045455,
                "pitch": 55,
                "velocity": 80,
                "duration": 0.0840909,
                "tempo": 120.0
            },
            {
                "start_time": 61.5204545,
                "end_time": 61.7045455,
                "pitch": 43,
                "velocity": 80,
                "duration": 0.1840909,
                "tempo": 120.0
            },
            {
                "start_time": 61.7204545,
                "end_time": 61.8045455,
                "pitch": 55,
                "velocity": 80,
                "duration": 0.0840909,
                "tempo": 120.0
            },
            {
                "start_time": 61.8204545,
                "end_time": 61.9045455,
                "pitch": 55,
                "velocity": 80,
                "duration": 0.0840909,
                "tempo": 120.0
            },
            {
                "start_time": 61.9204545,
                "end_time": 62.1090909,
                "pitch": 43,
                "velocity": 80,
                "duration": 0.1886364,
                "tempo": 120.0
            },
            {
                "start_time": 62.1272727,
                "end_time": 62.2113636,
                "pitch": 55,
                "velocity": 80,
                "duration": 0.0840909,
                "tempo": 120.0
            },
            {
                "start_time": 62.2295455,
                "end_time": 62.3159091,
                "pitch": 55,
                "velocity": 80,
                "duration": 0.0863636,
                "tempo": 120.0
            },
            {
                "start_time": 62.3318182,
                "end_time": 62.5113636,
                "pitch": 43,
                "velocity": 80,
                "duration": 0.1795455,
                "tempo": 120.0
            },
            {
                "start_time": 62.5454545,
                "end_time": 62.625,
                "pitch": 55,
                "velocity": 80,
                "duration": 0.0795455,
                "tempo": 120.0
            },
            {
                "start_time": 62.6431818,
                "end_time": 62.725,
                "pitch": 55,
                "velocity": 80,
                "duration": 0.0818182,
                "tempo": 120.0
            },
            {
                "start_time": 62.7409091,
                "end_time": 62.9295455,
                "pitch": 41,
                "velocity": 80,
                "duration": 0.1886364,
                "tempo": 120.0
            },
            {
                "start_time": 62.9454545,
                "end_time": 63.0318182,
                "pitch": 53,
                "velocity": 80,
                "duration": 0.0863636,
                "tempo": 120.0
            },
            {
                "start_time": 63.05,
                "end_time": 63.1340909,
                "pitch": 53,
                "velocity": 80,
                "duration": 0.0840909,
                "tempo": 120.0
            },
            {
                "start_time": 63.1522727,
                "end_time": 63.3409091,
                "pitch": 41,
                "velocity": 80,
                "duration": 0.1886364,
                "tempo": 120.0
            },
            {
                "start_time": 63.3568182,
                "end_time": 63.4431818,
                "pitch": 53,
                "velocity": 80,
                "duration": 0.0863636,
                "tempo": 120.0
            },
            {
                "start_time": 63.4590909,
                "end_time": 63.5454545,
                "pitch": 53,
                "velocity": 80,
                "duration": 0.0863636,
                "tempo": 120.0
            },
            {
                "start_time": 63.5636364,
                "end_time": 63.75,
                "pitch": 41,
                "velocity": 80,
                "duration": 0.1863636,
                "tempo": 120.0
            },
            {
                "start_time": 63.7681818,
                "end_time": 63.8545455,
                "pitch": 53,
                "velocity": 80,
                "duration": 0.0863636,
                "tempo": 120.0
            },
            {
                "start_time": 63.8704545,
                "end_time": 63.9568182,
                "pitch": 53,
                "velocity": 80,
                "duration": 0.0863636,
                "tempo": 120.0
            },
            {
                "start_time": 63.9727273,
                "end_time": 64.1545455,
                "pitch": 41,
                "velocity": 80,
                "duration": 0.1818182,
                "tempo": 120.0
            },
            {
                "start_time": 64.1704545,
                "end_time": 64.2522727,
                "pitch": 53,
                "velocity": 80,
                "duration": 0.0818182,
                "tempo": 120.0
            },
            {
                "start_time": 64.2681818,
                "end_time": 64.35,
                "pitch": 53,
                "velocity": 80,
                "duration": 0.0818182,
                "tempo": 120.0
            },
            {
                "start_time": 64.3659091,
                "end_time": 64.5454545,
                "pitch": 43,
                "velocity": 80,
                "duration": 0.1795455,
                "tempo": 120.0
            },
            {
                "start_time": 64.5613636,
                "end_time": 64.6431818,
                "pitch": 55,
                "velocity": 80,
                "duration": 0.0818182,
                "tempo": 120.0
            },
            {
                "start_time": 64.6590909,
                "end_time": 64.7590909,
                "pitch": 55,
                "velocity": 80,
                "duration": 0.1,
                "tempo": 120.0
            },
            {
                "start_time": 64.775,
                "end_time": 64.9727273,
                "pitch": 43,
                "velocity": 80,
                "duration": 0.1977273,
                "tempo": 120.0
            },
            {
                "start_time": 64.9886364,
                "end_time": 65.0795455,
                "pitch": 55,
                "velocity": 80,
                "duration": 0.0909091,
                "tempo": 120.0
            },
            {
                "start_time": 65.0977273,
                "end_time": 65.1863636,
                "pitch": 55,
                "velocity": 80,
                "duration": 0.0886364,
                "tempo": 120.0
            },
            {
                "start_time": 65.2045455,
                "end_time": 65.3886364,
                "pitch": 43,
                "velocity": 80,
                "duration": 0.1840909,
                "tempo": 120.0
            },
            {
                "start_time": 65.4068182,
                "end_time": 65.4886364,
                "pitch": 55,
                "velocity": 80,
                "duration": 0.0818182,
                "tempo": 120.0
            },
            {
                "start_time": 65.5068182,
                "end_time": 65.5886364,
                "pitch": 55,
                "velocity": 80,
                "duration": 0.0818182,
                "tempo": 120.0
            },
            {
                "start_time": 65.6068182,
                "end_time": 65.7863636,
                "pitch": 43,
                "velocity": 80,
                "duration": 0.1795455,
                "tempo": 120.0
            },
            {
                "start_time": 65.8022727,
                "end_time": 65.8840909,
                "pitch": 55,
                "velocity": 80,
                "duration": 0.0818182,
                "tempo": 120.0
            },
            {
                "start_time": 65.9,
                "end_time": 65.9818182,
                "pitch": 55,
                "velocity": 80,
                "duration": 0.0818182,
                "tempo": 120.0
            },
            {
                "start_time": 65.9977273,
                "end_time": 66.1818182,
                "pitch": 45,
                "velocity": 80,
                "duration": 0.1840909,
                "tempo": 120.0
            },
            {
                "start_time": 66.2,
                "end_time": 66.2840909,
                "pitch": 57,
                "velocity": 80,
                "duration": 0.0840909,
                "tempo": 120.0
            },
            {
                "start_time": 66.3,
                "end_time": 66.3840909,
                "pitch": 57,
                "velocity": 80,
                "duration": 0.0840909,
                "tempo": 120.0
            },
            {
                "start_time": 66.4,
                "end_time": 66.5886364,
                "pitch": 45,
                "velocity": 80,
                "duration": 0.1886364,
                "tempo": 120.0
            },
            {
                "start_time": 66.6068182,
                "end_time": 66.6909091,
                "pitch": 57,
                "velocity": 80,
                "duration": 0.0840909,
                "tempo": 120.0
            },
            {
                "start_time": 66.7090909,
                "end_time": 66.7954545,
                "pitch": 57,
                "velocity": 80,
                "duration": 0.0863636,
                "tempo": 120.0
            },
            {
                "start_time": 66.8113636,
                "end_time": 67.0136364,
                "pitch": 45,
                "velocity": 80,
                "duration": 0.2022727,
                "tempo": 120.0
            },
            {
                "start_time": 67.0295455,
                "end_time": 67.1136364,
                "pitch": 57,
                "velocity": 80,
                "duration": 0.0840909,
                "tempo": 120.0
            },
            {
                "start_time": 67.1295455,
                "end_time": 67.2136364,
                "pitch": 57,
                "velocity": 80,
                "duration": 0.0840909,
                "tempo": 120.0
            },
            {
                "start_time": 67.2318182,
                "end_time": 67.4204545,
                "pitch": 45,
                "velocity": 80,
                "duration": 0.1886364,
                "tempo": 120.0
            },
            {
                "start_time": 67.4363636,
                "end_time": 67.5227273,
                "pitch": 57,
                "velocity": 80,
                "duration": 0.0863636,
                "tempo": 120.0
            },
            {
                "start_time": 67.5386364,
                "end_time": 67.625,
                "pitch": 57,
                "velocity": 80,
                "duration": 0.0863636,
                "tempo": 120.0
            },
            {
                "start_time": 67.6431818,
                "end_time": 67.8272727,
                "pitch": 43,
                "velocity": 80,
                "duration": 0.1840909,
                "tempo": 120.0
            },
            {
                "start_time": 67.8431818,
                "end_time": 67.9272727,
                "pitch": 55,
                "velocity": 80,
                "duration": 0.0840909,
                "tempo": 120.0
            },
            {
                "start_time": 67.9431818,
                "end_time": 68.0272727,
                "pitch": 55,
                "velocity": 80,
                "duration": 0.0840909,
                "tempo": 120.0
            },
            {
                "start_time": 68.0454545,
                "end_time": 68.2272727,
                "pitch": 43,
                "velocity": 80,
                "duration": 0.1818182,
                "tempo": 120.0
            },
            {
                "start_time": 68.2454545,
                "end_time": 68.3272727,
                "pitch": 55,
                "velocity": 80,
                "duration": 0.0818182,
                "tempo": 120.0
            },
            {
                "start_time": 68.3454545,
                "end_time": 68.4272727,
                "pitch": 55,
                "velocity": 80,
                "duration": 0.0818182,
                "tempo": 120.0
            },
            {
                "start_time": 68.4454545,
                "end_time": 68.625,
                "pitch": 43,
                "velocity": 80,
                "duration": 0.1795455,
                "tempo": 120.0
            },
            {
                "start_time": 68.6409091,
                "end_time": 68.7227273,
                "pitch": 55,
                "velocity": 80,
                "duration": 0.0818182,
                "tempo": 120.0
            },
            {
                "start_time": 68.7386364,
                "end_time": 68.8204545,
                "pitch": 55,
                "velocity": 80,
                "duration": 0.0818182,
                "tempo": 120.0
            },
            {
                "start_time": 68.8363636,
                "end_time": 69.0431818,
                "pitch": 43,
                "velocity": 80,
                "duration": 0.2068182,
                "tempo": 120.0
            },
            {
                "start_time": 69.0590909,
                "end_time": 69.1454545,
                "pitch": 55,
                "velocity": 80,
                "duration": 0.0863636,
                "tempo": 120.0
            },
            {
                "start_time": 69.1613636,
                "end_time": 69.2477273,
                "pitch": 55,
                "velocity": 80,
                "duration": 0.0863636,
                "tempo": 120.0
            },
            {
                "start_time": 69.2659091,
                "end_time": 69.4522727,
                "pitch": 41,
                "velocity": 80,
                "duration": 0.1863636,
                "tempo": 120.0
            },
            {
                "start_time": 69.4704545,
                "end_time": 69.5568182,
                "pitch": 53,
                "velocity": 80,
                "duration": 0.0863636,
                "tempo": 120.0
            },
            {
                "start_time": 69.5727273,
                "end_time": 69.6590909,
                "pitch": 53,
                "velocity": 80,
                "duration": 0.0863636,
                "tempo": 120.0
            },
            {
                "start_time": 69.675,
                "end_time": 69.8636364,
                "pitch": 41,
                "velocity": 80,
                "duration": 0.1886364,
                "tempo": 120.0
            },
            {
                "start_time": 69.8818182,
                "end_time": 69.9659091,
                "pitch": 53,
                "velocity": 80,
                "duration": 0.0840909,
                "tempo": 120.0
            },
            {
                "start_time": 69.9840909,
                "end_time": 70.0704545,
                "pitch": 53,
                "velocity": 80,
                "duration": 0.0863636,
                "tempo": 120.0
            },
            {
                "start_time": 70.0863636,
                "end_time": 70.2659091,
                "pitch": 41,
                "velocity": 80,
                "duration": 0.1795455,
                "tempo": 120.0
            },
            {
                "start_time": 70.2818182,
                "end_time": 70.3636364,
                "pitch": 53,
                "velocity": 80,
                "duration": 0.0818182,
                "tempo": 120.0
            },
            {
                "start_time": 70.3818182,
                "end_time": 70.4613636,
                "pitch": 53,
                "velocity": 80,
                "duration": 0.0795455,
                "tempo": 120.0
            },
            {
                "start_time": 70.4795455,
                "end_time": 70.6659091,
                "pitch": 41,
                "velocity": 80,
                "duration": 0.1863636,
                "tempo": 120.0
            },
            {
                "start_time": 70.6840909,
                "end_time": 70.7704545,
                "pitch": 53,
                "velocity": 80,
                "duration": 0.0863636,
                "tempo": 120.0
            },
            {
                "start_time": 70.7863636,
                "end_time": 70.8727273,
                "pitch": 53,
                "velocity": 80,
                "duration": 0.0863636,
                "tempo": 120.0
            },
            {
                "start_time": 70.8886364,
                "end_time": 71.0681818,
                "pitch": 43,
                "velocity": 80,
                "duration": 0.1795455,
                "tempo": 120.0
            },
            {
                "start_time": 71.0863636,
                "end_time": 71.1840909,
                "pitch": 55,
                "velocity": 80,
                "duration": 0.0977273,
                "tempo": 120.0
            },
            {
                "start_time": 71.2,
                "end_time": 71.2818182,
                "pitch": 55,
                "velocity": 80,
                "duration": 0.0818182,
                "tempo": 120.0
            },
            {
                "start_time": 71.2977273,
                "end_time": 71.4909091,
                "pitch": 43,
                "velocity": 80,
                "duration": 0.1931818,
                "tempo": 120.0
            },
            {
                "start_time": 71.5090909,
                "end_time": 71.5977273,
                "pitch": 55,
                "velocity": 80,
                "duration": 0.0886364,
                "tempo": 120.0
            },
            {
                "start_time": 71.6159091,
                "end_time": 71.7022727,
                "pitch": 55,
                "velocity": 80,
                "duration": 0.0863636,
                "tempo": 120.0
            },
            {
                "start_time": 71.7204545,
                "end_time": 71.9090909,
                "pitch": 43,
                "velocity": 80,
                "duration": 0.1886364,
                "tempo": 120.0
            },
            {
                "start_time": 71.9272727,
                "end_time": 72.0113636,
                "pitch": 55,
                "velocity": 80,
                "duration": 0.0840909,
                "tempo": 120.0
            },
            {
                "start_time": 72.0295455,
                "end_time": 72.1136364,
                "pitch": 55,
                "velocity": 80,
                "duration": 0.0840909,
                "tempo": 120.0
            },
            {
                "start_time": 72.1318182,
                "end_time": 72.3113636,
                "pitch": 43,
                "velocity": 80,
                "duration": 0.1795455,
                "tempo": 120.0
            },
            {
                "start_time": 72.3272727,
                "end_time": 72.4090909,
                "pitch": 55,
                "velocity": 80,
                "duration": 0.0818182,
                "tempo": 120.0
            },
            {
                "start_time": 72.425,
                "end_time": 72.5068182,
                "pitch": 55,
                "velocity": 80,
                "duration": 0.0818182,
                "tempo": 120.0
            },
            {
                "start_time": 72.5227273,
                "end_time": 72.7090909,
                "pitch": 45,
                "velocity": 80,
                "duration": 0.1863636,
                "tempo": 120.0
            },
            {
                "start_time": 72.725,
                "end_time": 72.8090909,
                "pitch": 57,
                "velocity": 80,
                "duration": 0.0840909,
                "tempo": 120.0
            },
            {
                "start_time": 72.825,
                "end_time": 72.9090909,
                "pitch": 57,
                "velocity": 80,
                "duration": 0.0840909,
                "tempo": 120.0
            },
            {
                "start_time": 72.9272727,
                "end_time": 73.1136364,
                "pitch": 45,
                "velocity": 80,
                "duration": 0.1863636,
                "tempo": 120.0
            },
            {
                "start_time": 73.1318182,
                "end_time": 73.2181818,
                "pitch": 57,
                "velocity": 80,
                "duration": 0.0863636,
                "tempo": 120.0
            },
            {
                "start_time": 73.2340909,
                "end_time": 73.3363636,
                "pitch": 57,
                "velocity": 80,
                "duration": 0.1022727,
                "tempo": 120.0
            },
            {
                "start_time": 73.3545455,
                "end_time": 73.5340909,
                "pitch": 45,
                "velocity": 80,
                "duration": 0.1795455,
                "tempo": 120.0
            },
            {
                "start_time": 73.55,
                "end_time": 73.6318182,
                "pitch": 57,
                "velocity": 80,
                "duration": 0.0818182,
                "tempo": 120.0
            },
            {
                "start_time": 73.6477273,
                "end_time": 73.7295455,
                "pitch": 57,
                "velocity": 80,
                "duration": 0.0818182,
                "tempo": 120.0
            },
            {
                "start_time": 73.7454545,
                "end_time": 73.9386364,
                "pitch": 45,
                "velocity": 80,
                "duration": 0.1931818,
                "tempo": 120.0
            },
            {
                "start_time": 73.9568182,
                "end_time": 74.0454545,
                "pitch": 57,
                "velocity": 80,
                "duration": 0.0886364,
                "tempo": 120.0
            },
            {
                "start_time": 74.0613636,
                "end_time": 74.15,
                "pitch": 57,
                "velocity": 80,
                "duration": 0.0886364,
                "tempo": 120.0
            },
            {
                "start_time": 74.1681818,
                "end_time": 74.3522727,
                "pitch": 43,
                "velocity": 80,
                "duration": 0.1840909,
                "tempo": 120.0
            },
            {
                "start_time": 74.3681818,
                "end_time": 74.4522727,
                "pitch": 55,
                "velocity": 80,
                "duration": 0.0840909,
                "tempo": 120.0
            },
            {
                "start_time": 74.4681818,
                "end_time": 74.5522727,
                "pitch": 55,
                "velocity": 80,
                "duration": 0.0840909,
                "tempo": 120.0
            },
            {
                "start_time": 74.5681818,
                "end_time": 74.7522727,
                "pitch": 43,
                "velocity": 80,
                "duration": 0.1840909,
                "tempo": 120.0
            },
            {
                "start_time": 74.7704545,
                "end_time": 74.8522727,
                "pitch": 55,
                "velocity": 80,
                "duration": 0.0818182,
                "tempo": 120.0
            },
            {
                "start_time": 74.8704545,
                "end_time": 74.9545455,
                "pitch": 55,
                "velocity": 80,
                "duration": 0.0840909,
                "tempo": 120.0
            },
            {
                "start_time": 74.9704545,
                "end_time": 75.15,
                "pitch": 43,
                "velocity": 80,
                "duration": 0.1795455,
                "tempo": 120.0
            },
            {
                "start_time": 75.1659091,
                "end_time": 75.2477273,
                "pitch": 55,
                "velocity": 80,
                "duration": 0.0818182,
                "tempo": 120.0
            },
            {
                "start_time": 75.2636364,
                "end_time": 75.3454545,
                "pitch": 55,
                "velocity": 80,
                "duration": 0.0818182,
                "tempo": 120.0
            },
            {
                "start_time": 75.3636364,
                "end_time": 75.5681818,
                "pitch": 43,
                "velocity": 80,
                "duration": 0.2045455,
                "tempo": 120.0
            },
            {
                "start_time": 75.5863636,
                "end_time": 75.6704545,
                "pitch": 55,
                "velocity": 80,
                "duration": 0.0840909,
                "tempo": 120.0
            },
            {
                "start_time": 75.6886364,
                "end_time": 75.7727273,
                "pitch": 55,
                "velocity": 80,
                "duration": 0.0840909,
                "tempo": 120.0
            },
            {
                "start_time": 75.7909091,
                "end_time": 75.9795455,
                "pitch": 41,
                "velocity": 80,
                "duration": 0.1886364,
                "tempo": 120.0
            },
            {
                "start_time": 75.9954545,
                "end_time": 76.0818182,
                "pitch": 53,
                "velocity": 80,
                "duration": 0.0863636,
                "tempo": 120.0
            },
            {
                "start_time": 76.1,
                "end_time": 76.1840909,
                "pitch": 53,
                "velocity": 80,
                "duration": 0.0840909,
                "tempo": 120.0
            },
            {
                "start_time": 76.2022727,
                "end_time": 76.3909091,
                "pitch": 41,
                "velocity": 80,
                "duration": 0.1886364,
                "tempo": 120.0
            },
            {
                "start_time": 76.4068182,
                "end_time": 76.4931818,
                "pitch": 53,
                "velocity": 80,
                "duration": 0.0863636,
                "tempo": 120.0
            },
            {
                "start_time": 76.5090909,
                "end_time": 76.5954545,
                "pitch": 53,
                "velocity": 80,
                "duration": 0.0863636,
                "tempo": 120.0
            },
            {
                "start_time": 76.6113636,
                "end_time": 76.7931818,
                "pitch": 41,
                "velocity": 80,
                "duration": 0.1818182,
                "tempo": 120.0
            },
            {
                "start_time": 76.8090909,
                "end_time": 76.8909091,
                "pitch": 53,
                "velocity": 80,
                "duration": 0.0818182,
                "tempo": 120.0
            },
            {
                "start_time": 76.9068182,
                "end_time": 76.9886364,
                "pitch": 53,
                "velocity": 80,
                "duration": 0.0818182,
                "tempo": 120.0
            },
            {
                "start_time": 77.0045455,
                "end_time": 77.1931818,
                "pitch": 41,
                "velocity": 80,
                "duration": 0.1886364,
                "tempo": 120.0
            },
            {
                "start_time": 77.2090909,
                "end_time": 77.2954545,
                "pitch": 53,
                "velocity": 80,
                "duration": 0.0863636,
                "tempo": 120.0
            },
            {
                "start_time": 77.3136364,
                "end_time": 77.3977273,
                "pitch": 53,
                "velocity": 80,
                "duration": 0.0840909,
                "tempo": 120.0
            },
            {
                "start_time": 77.4159091,
                "end_time": 77.5954545,
                "pitch": 43,
                "velocity": 80,
                "duration": 0.1795455,
                "tempo": 120.0
            },
            {
                "start_time": 77.6113636,
                "end_time": 77.7090909,
                "pitch": 55,
                "velocity": 80,
                "duration": 0.0977273,
                "tempo": 120.0
            },
            {
                "start_time": 77.725,
                "end_time": 77.8068182,
                "pitch": 55,
                "velocity": 80,
                "duration": 0.0818182,
                "tempo": 120.0
            },
            {
                "start_time": 77.8227273,
                "end_time": 78.0181818,
                "pitch": 43,
                "velocity": 80,
                "duration": 0.1954545,
                "tempo": 120.0
            },
            {
                "start_time": 78.0340909,
                "end_time": 78.1227273,
                "pitch": 55,
                "velocity": 80,
                "duration": 0.0886364,
                "tempo": 120.0
            },
            {
                "start_time": 78.1409091,
                "end_time": 78.2295455,
                "pitch": 55,
                "velocity": 80,
                "duration": 0.0886364,
                "tempo": 120.0
            },
            {
                "start_time": 78.2454545,
                "end_time": 78.4295455,
                "pitch": 43,
                "velocity": 80,
                "duration": 0.1840909,
                "tempo": 120.0
            },
            {
                "start_time": 78.4454545,
                "end_time": 78.5295455,
                "pitch": 55,
                "velocity": 80,
                "duration": 0.0840909,
                "tempo": 120.0
            },
            {
                "start_time": 78.5454545,
                "end_time": 78.6295455,
                "pitch": 55,
                "velocity": 80,
                "duration": 0.0840909,
                "tempo": 120.0
            },
            {
                "start_time": 78.6454545,
                "end_time": 78.8318182,
                "pitch": 43,
                "velocity": 80,
                "duration": 0.1863636,
                "tempo": 120.0
            },
            {
                "start_time": 78.8477273,
                "end_time": 78.9318182,
                "pitch": 55,
                "velocity": 80,
                "duration": 0.0840909,
                "tempo": 120.0
            },
            {
                "start_time": 78.9477273,
                "end_time": 79.0318182,
                "pitch": 55,
                "velocity": 80,
                "duration": 0.0840909,
                "tempo": 120.0
            },
            {
                "start_time": 79.0477273,
                "end_time": 79.2340909,
                "pitch": 45,
                "velocity": 80,
                "duration": 0.1863636,
                "tempo": 120.0
            },
            {
                "start_time": 79.25,
                "end_time": 79.3340909,
                "pitch": 57,
                "velocity": 80,
                "duration": 0.0840909,
                "tempo": 120.0
            },
            {
                "start_time": 79.35,
                "end_time": 79.4340909,
                "pitch": 57,
                "velocity": 80,
                "duration": 0.0840909,
                "tempo": 120.0
            },
            {
                "start_time": 79.4522727,
                "end_time": 79.6386364,
                "pitch": 45,
                "velocity": 80,
                "duration": 0.1863636,
                "tempo": 120.0
            },
            {
                "start_time": 79.6568182,
                "end_time": 79.7431818,
                "pitch": 57,
                "velocity": 80,
                "duration": 0.0863636,
                "tempo": 120.0
            },
            {
                "start_time": 79.7590909,
                "end_time": 79.8613636,
                "pitch": 57,
                "velocity": 80,
                "duration": 0.1022727,
                "tempo": 120.0
            },
            {
                "start_time": 79.8795455,
                "end_time": 80.0636364,
                "pitch": 45,
                "velocity": 80,
                "duration": 0.1840909,
                "tempo": 120.0
            },
            {
                "start_time": 80.0795455,
                "end_time": 80.1636364,
                "pitch": 57,
                "velocity": 80,
                "duration": 0.0840909,
                "tempo": 120.0
            },
            {
                "start_time": 80.1795455,
                "end_time": 80.2636364,
                "pitch": 57,
                "velocity": 80,
                "duration": 0.0840909,
                "tempo": 120.0
            },
            {
                "start_time": 80.2795455,
                "end_time": 80.4681818,
                "pitch": 45,
                "velocity": 80,
                "duration": 0.1886364,
                "tempo": 120.0
            },
            {
                "start_time": 80.4840909,
                "end_time": 80.5704545,
                "pitch": 57,
                "velocity": 80,
                "duration": 0.0863636,
                "tempo": 120.0
            },
            {
                "start_time": 80.5863636,
                "end_time": 80.6727273,
                "pitch": 57,
                "velocity": 80,
                "duration": 0.0863636,
                "tempo": 120.0
            },
            {
                "start_time": 80.6886364,
                "end_time": 80.8704545,
                "pitch": 45,
                "velocity": 80,
                "duration": 0.1818182,
                "tempo": 120.0
            },
            {
                "start_time": 80.8863636,
                "end_time": 80.9681818,
                "pitch": 57,
                "velocity": 80,
                "duration": 0.0818182,
                "tempo": 120.0
            },
            {
                "start_time": 80.9840909,
                "end_time": 81.0659091,
                "pitch": 57,
                "velocity": 80,
                "duration": 0.0818182,
                "tempo": 120.0
            },
            {
                "start_time": 81.0818182,
                "end_time": 81.2704545,
                "pitch": 45,
                "velocity": 80,
                "duration": 0.1886364,
                "tempo": 120.0
            },
            {
                "start_time": 81.2863636,
                "end_time": 81.3727273,
                "pitch": 57,
                "velocity": 80,
                "duration": 0.0863636,
                "tempo": 120.0
            },
            {
                "start_time": 81.3909091,
                "end_time": 81.475,
                "pitch": 57,
                "velocity": 80,
                "duration": 0.0840909,
                "tempo": 120.0
            },
            {
                "start_time": 81.4931818,
                "end_time": 81.6818182,
                "pitch": 45,
                "velocity": 80,
                "duration": 0.1886364,
                "tempo": 120.0
            },
            {
                "start_time": 81.6977273,
                "end_time": 81.7840909,
                "pitch": 57,
                "velocity": 80,
                "duration": 0.0863636,
                "tempo": 120.0
            },
            {
                "start_time": 81.8,
                "end_time": 81.8863636,
                "pitch": 57,
                "velocity": 80,
                "duration": 0.0863636,
                "tempo": 120.0
            },
            {
                "start_time": 81.9045455,
                "end_time": 82.1,
                "pitch": 45,
                "velocity": 80,
                "duration": 0.1954545,
                "tempo": 120.0
            },
            {
                "start_time": 82.1159091,
                "end_time": 82.1977273,
                "pitch": 57,
                "velocity": 80,
                "duration": 0.0818182,
                "tempo": 120.0
            },
            {
                "start_time": 82.2136364,
                "end_time": 82.2954545,
                "pitch": 57,
                "velocity": 80,
                "duration": 0.0818182,
                "tempo": 120.0
            },
            {
                "start_time": 82.3136364,
                "end_time": 82.5,
                "pitch": 43,
                "velocity": 80,
                "duration": 0.1863636,
                "tempo": 120.0
            },
            {
                "start_time": 82.5181818,
                "end_time": 82.6045455,
                "pitch": 55,
                "velocity": 80,
                "duration": 0.0863636,
                "tempo": 120.0
            },
            {
                "start_time": 82.6204545,
                "end_time": 82.7068182,
                "pitch": 55,
                "velocity": 80,
                "duration": 0.0863636,
                "tempo": 120.0
            },
            {
                "start_time": 82.7227273,
                "end_time": 82.9113636,
                "pitch": 43,
                "velocity": 80,
                "duration": 0.1886364,
                "tempo": 120.0
            },
            {
                "start_time": 82.9295455,
                "end_time": 83.0136364,
                "pitch": 55,
                "velocity": 80,
                "duration": 0.0840909,
                "tempo": 120.0
            },
            {
                "start_time": 83.0318182,
                "end_time": 83.1181818,
                "pitch": 55,
                "velocity": 80,
                "duration": 0.0863636,
                "tempo": 120.0
            },
            {
                "start_time": 83.1340909,
                "end_time": 83.3227273,
                "pitch": 43,
                "velocity": 80,
                "duration": 0.1886364,
                "tempo": 120.0
            },
            {
                "start_time": 83.3409091,
                "end_time": 83.425,
                "pitch": 55,
                "velocity": 80,
                "duration": 0.0840909,
                "tempo": 120.0
            },
            {
                "start_time": 83.4431818,
                "end_time": 83.5272727,
                "pitch": 55,
                "velocity": 80,
                "duration": 0.0840909,
                "tempo": 120.0
            },
            {
                "start_time": 83.5454545,
                "end_time": 83.725,
                "pitch": 43,
                "velocity": 80,
                "duration": 0.1795455,
                "tempo": 120.0
            },
            {
                "start_time": 83.7409091,
                "end_time": 83.8227273,
                "pitch": 55,
                "velocity": 80,
                "duration": 0.0818182,
                "tempo": 120.0
            },
            {
                "start_time": 83.8386364,
                "end_time": 83.9204545,
                "pitch": 55,
                "velocity": 80,
                "duration": 0.0818182,
                "tempo": 120.0
            },
            {
                "start_time": 83.9386364,
                "end_time": 84.1340909,
                "pitch": 43,
                "velocity": 80,
                "duration": 0.1954545,
                "tempo": 120.0
            },
            {
                "start_time": 84.15,
                "end_time": 84.2318182,
                "pitch": 55,
                "velocity": 80,
                "duration": 0.0818182,
                "tempo": 120.0
            },
            {
                "start_time": 84.2477273,
                "end_time": 84.3295455,
                "pitch": 55,
                "velocity": 80,
                "duration": 0.0818182,
                "tempo": 120.0
            },
            {
                "start_time": 84.3454545,
                "end_time": 84.5409091,
                "pitch": 43,
                "velocity": 80,
                "duration": 0.1954545,
                "tempo": 120.0
            },
            {
                "start_time": 84.5568182,
                "end_time": 84.6454545,
                "pitch": 55,
                "velocity": 80,
                "duration": 0.0886364,
                "tempo": 120.0
            },
            {
                "start_time": 84.6636364,
                "end_time": 84.7522727,
                "pitch": 55,
                "velocity": 80,
                "duration": 0.0886364,
                "tempo": 120.0
            },
            {
                "start_time": 84.7681818,
                "end_time": 84.9568182,
                "pitch": 43,
                "velocity": 80,
                "duration": 0.1886364,
                "tempo": 120.0
            },
            {
                "start_time": 84.975,
                "end_time": 85.0613636,
                "pitch": 55,
                "velocity": 80,
                "duration": 0.0863636,
                "tempo": 120.0
            },
            {
                "start_time": 85.0772727,
                "end_time": 85.1636364,
                "pitch": 55,
                "velocity": 80,
                "duration": 0.0863636,
                "tempo": 120.0
            },
            {
                "start_time": 85.1795455,
                "end_time": 85.3636364,
                "pitch": 43,
                "velocity": 80,
                "duration": 0.1840909,
                "tempo": 120.0
            },
            {
                "start_time": 85.3795455,
                "end_time": 85.4636364,
                "pitch": 55,
                "velocity": 80,
                "duration": 0.0840909,
                "tempo": 120.0
            },
            {
                "start_time": 85.4795455,
                "end_time": 85.5636364,
                "pitch": 55,
                "velocity": 80,
                "duration": 0.0840909,
                "tempo": 120.0
            },
            {
                "start_time": 85.5795455,
                "end_time": 85.7590909,
                "pitch": 36,
                "velocity": 80,
                "duration": 0.1795455,
                "tempo": 120.0
            },
            {
                "start_time": 85.7772727,
                "end_time": 85.8590909,
                "pitch": 48,
                "velocity": 80,
                "duration": 0.0818182,
                "tempo": 120.0
            },
            {
                "start_time": 85.875,
                "end_time": 85.9613636,
                "pitch": 48,
                "velocity": 80,
                "duration": 0.0863636,
                "tempo": 120.0
            }
        ],
        "Violin": [
            {
                "start_time": 1.2954545,
                "end_time": 1.3772727,
                "pitch": 64,
                "velocity": 80,
                "duration": 0.0818182,
                "tempo": 120.0
            },
            {
                "start_time": 1.6954545,
                "end_time": 2.3045455,
                "pitch": 65,
                "velocity": 80,
                "duration": 0.6090909,
                "tempo": 120.0
            },
            {
                "start_time": 2.5272727,
                "end_time": 3.1181818,
                "pitch": 67,
                "velocity": 80,
                "duration": 0.5909091,
                "tempo": 120.0
            },
            {
                "start_time": 3.1363636,
                "end_time": 3.9181818,
                "pitch": 65,
                "velocity": 80,
                "duration": 0.7818182,
                "tempo": 120.0
            },
            {
                "start_time": 4.5613636,
                "end_time": 4.65,
                "pitch": 64,
                "velocity": 80,
                "duration": 0.0886364,
                "tempo": 120.0
            },
            {
                "start_time": 4.9818182,
                "end_time": 5.5681818,
                "pitch": 65,
                "velocity": 80,
                "duration": 0.5863636,
                "tempo": 120.0
            },
            {
                "start_time": 5.7795455,
                "end_time": 6.3636364,
                "pitch": 62,
                "velocity": 80,
                "duration": 0.5840909,
                "tempo": 120.0
            },
            {
                "start_time": 6.3818182,
                "end_time": 7.1977273,
                "pitch": 64,
                "velocity": 80,
                "duration": 0.8159091,
                "tempo": 120.0
            },
            {
                "start_time": 7.8181818,
                "end_time": 7.9022727,
                "pitch": 64,
                "velocity": 80,
                "duration": 0.0840909,
                "tempo": 120.0
            },
            {
                "start_time": 8.2181818,
                "end_time": 8.825,
                "pitch": 65,
                "velocity": 80,
                "duration": 0.6068182,
                "tempo": 120.0
            },
            {
                "start_time": 9.0477273,
                "end_time": 9.6409091,
                "pitch": 67,
                "velocity": 80,
                "duration": 0.5931818,
                "tempo": 120.0
            },
            {
                "start_time": 9.6590909,
                "end_time": 10.4431818,
                "pitch": 65,
                "velocity": 80,
                "duration": 0.7840909,
                "tempo": 120.0
            },
            {
                "start_time": 11.0840909,
                "end_time": 11.1727273,
                "pitch": 64,
                "velocity": 80,
                "duration": 0.0886364,
                "tempo": 120.0
            },
            {
                "start_time": 11.5045455,
                "end_time": 12.0909091,
                "pitch": 65,
                "velocity": 80,
                "duration": 0.5863636,
                "tempo": 120.0
            },
            {
                "start_time": 12.3022727,
                "end_time": 12.8886364,
                "pitch": 55,
                "velocity": 80,
                "duration": 0.5863636,
                "tempo": 120.0
            },
            {
                "start_time": 12.9045455,
                "end_time": 13.7159091,
                "pitch": 64,
                "velocity": 80,
                "duration": 0.8113636,
                "tempo": 120.0
            },
            {
                "start_time": 13.9318182,
                "end_time": 14.1204545,
                "pitch": 62,
                "velocity": 80,
                "duration": 0.1886364,
                "tempo": 120.0
            },
            {
                "start_time": 14.1363636,
                "end_time": 14.325,
                "pitch": 64,
                "velocity": 80,
                "duration": 0.1886364,
                "tempo": 120.0
            },
            {
                "start_time": 14.5477273,
                "end_time": 14.7295455,
                "pitch": 64,
                "velocity": 80,
                "duration": 0.1818182,
                "tempo": 120.0
            },
            {
                "start_time": 14.9363636,
                "end_time": 15.1363636,
                "pitch": 62,
                "velocity": 80,
                "duration": 0.2,
                "tempo": 120.0
            },
            {
                "start_time": 15.1545455,
                "end_time": 15.3477273,
                "pitch": 60,
                "velocity": 80,
                "duration": 0.1931818,
                "tempo": 120.0
            },
            {
                "start_time": 15.3659091,
                "end_time": 16.1659091,
                "pitch": 67,
                "velocity": 80,
                "duration": 0.8,
                "tempo": 120.0
            },
            {
                "start_time": 16.3840909,
                "end_time": 16.775,
                "pitch": 69,
                "velocity": 80,
                "duration": 0.3909091,
                "tempo": 120.0
            },
            {
                "start_time": 16.7909091,
                "end_time": 17.1681818,
                "pitch": 67,
                "velocity": 80,
                "duration": 0.3772727,
                "tempo": 120.0
            },
            {
                "start_time": 17.1840909,
                "end_time": 17.5886364,
                "pitch": 72,
                "velocity": 80,
                "duration": 0.4045455,
                "tempo": 120.0
            },
            {
                "start_time": 17.8181818,
                "end_time": 18.2068182,
                "pitch": 69,
                "velocity": 80,
                "duration": 0.3886364,
                "tempo": 120.0
            },
            {
                "start_time": 18.225,
                "end_time": 18.6090909,
                "pitch": 67,
                "velocity": 80,
                "duration": 0.3840909,
                "tempo": 120.0
            },
            {
                "start_time": 18.825,
                "end_time": 19.2045455,
                "pitch": 64,
                "velocity": 80,
                "duration": 0.3795455,
                "tempo": 120.0
            },
            {
                "start_time": 19.2204545,
                "end_time": 19.4272727,
                "pitch": 62,
                "velocity": 80,
                "duration": 0.2068182,
                "tempo": 120.0
            },
            {
                "start_time": 19.4431818,
                "end_time": 19.6295455,
                "pitch": 60,
                "velocity": 80,
                "duration": 0.1863636,
                "tempo": 120.0
            },
            {
                "start_time": 19.8454545,
                "end_time": 20.0318182,
                "pitch": 64,
                "velocity": 80,
                "duration": 0.1863636,
                "tempo": 120.0
            },
            {
                "start_time": 20.2545455,
                "end_time": 20.4409091,
                "pitch": 55,
                "velocity": 80,
                "duration": 0.1863636,
                "tempo": 120.0
            },
            {
                "start_time": 20.4568182,
                "end_time": 21.2522727,
                "pitch": 57,
                "velocity": 80,
                "duration": 0.7954545,
                "tempo": 120.0
            },
            {
                "start_time": 21.4704545,
                "end_time": 21.6727273,
                "pitch": 57,
                "velocity": 80,
                "duration": 0.2022727,
                "tempo": 120.0
            },
            {
                "start_time": 21.6909091,
                "end_time": 21.8795455,
                "pitch": 60,
                "velocity": 80,
                "duration": 0.1886364,
                "tempo": 120.0
            },
            {
                "start_time": 21.8954545,
                "end_time": 22.0818182,
                "pitch": 65,
                "velocity": 80,
                "duration": 0.1863636,
                "tempo": 120.0
            },
            {
                "start_time": 22.2977273,
                "end_time": 22.4818182,
                "pitch": 64,
                "velocity": 80,
                "duration": 0.1840909,
                "tempo": 120.0
            },
            {
                "start_time": 22.6977273,
                "end_time": 22.8795455,
                "pitch": 67,
                "velocity": 80,
                "duration": 0.1818182,
                "tempo": 120.0
            },
            {
                "start_time": 23.0931818,
                "end_time": 23.275,
                "pitch": 64,
                "velocity": 80,
                "duration": 0.1818182,
                "tempo": 120.0
            },
            {
                "start_time": 23.2931818,
                "end_time": 23.4818182,
                "pitch": 62,
                "velocity": 80,
                "duration": 0.1886364,
                "tempo": 120.0
            },
            {
                "start_time": 23.4977273,
                "end_time": 23.6863636,
                "pitch": 60,
                "velocity": 80,
                "duration": 0.1886364,
                "tempo": 120.0
            },
            {
                "start_time": 23.7181818,
                "end_time": 24.1090909,
                "pitch": 62,
                "velocity": 80,
                "duration": 0.3909091,
                "tempo": 120.0
            },
            {
                "start_time": 24.3386364,
                "end_time": 24.7204545,
                "pitch": 57,
                "velocity": 80,
                "duration": 0.3818182,
                "tempo": 120.0
            },
            {
                "start_time": 24.9386364,
                "end_time": 25.125,
                "pitch": 60,
                "velocity": 80,
                "duration": 0.1863636,
                "tempo": 120.0
            },
            {
                "start_time": 25.3454545,
                "end_time": 25.7295455,
                "pitch": 59,
                "velocity": 80,
                "duration": 0.3840909,
                "tempo": 120.0
            },
            {
                "start_time": 25.7454545,
                "end_time": 25.9477273,
                "pitch": 60,
                "velocity": 80,
                "duration": 0.2022727,
                "tempo": 120.0
            },
            {
                "start_time": 25.9636364,
                "end_time": 26.1477273,
                "pitch": 62,
                "velocity": 80,
                "duration": 0.1840909,
                "tempo": 120.0
            },
            {
                "start_time": 26.3659091,
                "end_time": 26.7568182,
                "pitch": 55,
                "velocity": 80,
                "duration": 0.3909091,
                "tempo": 120.0
            },
            {
                "start_time": 26.9772727,
                "end_time": 27.1590909,
                "pitch": 62,
                "velocity": 80,
                "duration": 0.1818182,
                "tempo": 120.0
            },
            {
                "start_time": 27.1772727,
                "end_time": 27.3613636,
                "pitch": 64,
                "velocity": 80,
                "duration": 0.1840909,
                "tempo": 120.0
            },
            {
                "start_time": 27.5840909,
                "end_time": 27.7704545,
                "pitch": 64,
                "velocity": 80,
                "duration": 0.1863636,
                "tempo": 120.0
            },
            {
                "start_time": 27.9886364,
                "end_time": 28.1931818,
                "pitch": 62,
                "velocity": 80,
                "duration": 0.2045455,
                "tempo": 120.0
            },
            {
                "start_time": 28.2090909,
                "end_time": 28.3977273,
                "pitch": 60,
                "velocity": 80,
                "duration": 0.1886364,
                "tempo": 120.0
            },
            {
                "start_time": 28.4136364,
                "end_time": 29.2022727,
                "pitch": 67,
                "velocity": 80,
                "duration": 0.7886364,
                "tempo": 120.0
            },
            {
                "start_time": 29.4227273,
                "end_time": 29.8136364,
                "pitch": 69,
                "velocity": 80,
                "duration": 0.3909091,
                "tempo": 120.0
            },
            {
                "start_time": 29.8295455,
                "end_time": 30.2227273,
                "pitch": 67,
                "velocity": 80,
                "duration": 0.3931818,
                "tempo": 120.0
            },
            {
                "start_time": 30.2409091,
                "end_time": 30.6295455,
                "pitch": 72,
                "velocity": 80,
                "duration": 0.3886364,
                "tempo": 120.0
            },
            {
                "start_time": 30.8590909,
                "end_time": 31.2568182,
                "pitch": 69,
                "velocity": 80,
                "duration": 0.3977273,
                "tempo": 120.0
            },
            {
                "start_time": 31.2727273,
                "end_time": 31.6545455,
                "pitch": 67,
                "velocity": 80,
                "duration": 0.3818182,
                "tempo": 120.0
            },
            {
                "start_time": 31.8681818,
                "end_time": 32.2545455,
                "pitch": 64,
                "velocity": 80,
                "duration": 0.3863636,
                "tempo": 120.0
            },
            {
                "start_time": 32.2704545,
                "end_time": 32.4704545,
                "pitch": 62,
                "velocity": 80,
                "duration": 0.2,
                "tempo": 120.0
            },
            {
                "start_time": 32.4886364,
                "end_time": 32.6727273,
                "pitch": 60,
                "velocity": 80,
                "duration": 0.1840909,
                "tempo": 120.0
            },
            {
                "start_time": 32.8954545,
                "end_time": 33.0818182,
                "pitch": 64,
                "velocity": 80,
                "duration": 0.1863636,
                "tempo": 120.0
            },
            {
                "start_time": 33.3,
                "end_time": 33.4840909,
                "pitch": 55,
                "velocity": 80,
                "duration": 0.1840909,
                "tempo": 120.0
            },
            {
                "start_time": 33.5022727,
                "end_time": 33.8863636,
                "pitch": 57,
                "velocity": 80,
                "duration": 0.3840909,
                "tempo": 120.0
            },
            {
                "start_time": 34.1090909,
                "end_time": 34.2977273,
                "pitch": 60,
                "velocity": 80,
                "duration": 0.1886364,
                "tempo": 120.0
            },
            {
                "start_time": 34.5386364,
                "end_time": 34.7227273,
                "pitch": 65,
                "velocity": 80,
                "duration": 0.1840909,
                "tempo": 120.0
            },
            {
                "start_time": 34.7409091,
                "end_time": 34.9227273,
                "pitch": 67,
                "velocity": 80,
                "duration": 0.1818182,
                "tempo": 120.0
            },
            {
                "start_time": 34.9409091,
                "end_time": 35.1227273,
                "pitch": 65,
                "velocity": 80,
                "duration": 0.1818182,
                "tempo": 120.0
            },
            {
                "start_time": 35.1409091,
                "end_time": 35.5227273,
                "pitch": 56,
                "velocity": 80,
                "duration": 0.3818182,
                "tempo": 120.0
            },
            {
                "start_time": 35.7409091,
                "end_time": 35.925,
                "pitch": 60,
                "velocity": 80,
                "duration": 0.1840909,
                "tempo": 120.0
            },
            {
                "start_time": 36.1477273,
                "end_time": 36.3318182,
                "pitch": 65,
                "velocity": 80,
                "duration": 0.1840909,
                "tempo": 120.0
            },
            {
                "start_time": 36.35,
                "end_time": 36.5295455,
                "pitch": 67,
                "velocity": 80,
                "duration": 0.1795455,
                "tempo": 120.0
            },
            {
                "start_time": 36.5454545,
                "end_time": 36.7477273,
                "pitch": 65,
                "velocity": 80,
                "duration": 0.2022727,
                "tempo": 120.0
            },
            {
                "start_time": 36.7659091,
                "end_time": 37.7727273,
                "pitch": 64,
                "velocity": 80,
                "duration": 1.0068182,
                "tempo": 120.0
            },
            {
                "start_time": 37.7909091,
                "end_time": 37.975,
                "pitch": 62,
                "velocity": 80,
                "duration": 0.1840909,
                "tempo": 120.0
            },
            {
                "start_time": 37.9909091,
                "end_time": 38.1704545,
                "pitch": 55,
                "velocity": 80,
                "duration": 0.1795455,
                "tempo": 120.0
            },
            {
                "start_time": 38.1863636,
                "end_time": 39.6113636,
                "pitch": 67,
                "velocity": 80,
                "duration": 1.425,
                "tempo": 120.0
            },
            {
                "start_time": 40.0272727,
                "end_time": 41.025,
                "pitch": 69,
                "velocity": 80,
                "duration": 0.9977273,
                "tempo": 120.0
            },
            {
                "start_time": 41.2477273,
                "end_time": 41.4409091,
                "pitch": 69,
                "velocity": 80,
                "duration": 0.1931818,
                "tempo": 120.0
            },
            {
                "start_time": 41.4568182,
                "end_time": 42.4363636,
                "pitch": 72,
                "velocity": 80,
                "duration": 0.9795455,
                "tempo": 120.0
            },
            {
                "start_time": 42.65,
                "end_time": 42.8363636,
                "pitch": 72,
                "velocity": 80,
                "duration": 0.1863636,
                "tempo": 120.0
            },
            {
                "start_time": 42.8522727,
                "end_time": 43.0477273,
                "pitch": 71,
                "velocity": 80,
                "duration": 0.1954545,
                "tempo": 120.0
            },
            {
                "start_time": 43.0636364,
                "end_time": 44.8931818,
                "pitch": 72,
                "velocity": 80,
                "duration": 1.8295455,
                "tempo": 120.0
            },
            {
                "start_time": 45.1068182,
                "end_time": 45.3068182,
                "pitch": 71,
                "velocity": 80,
                "duration": 0.2,
                "tempo": 120.0
            },
            {
                "start_time": 45.5295455,
                "end_time": 45.7181818,
                "pitch": 71,
                "velocity": 80,
                "duration": 0.1886364,
                "tempo": 120.0
            },
            {
                "start_time": 45.9409091,
                "end_time": 46.1295455,
                "pitch": 69,
                "velocity": 80,
                "duration": 0.1886364,
                "tempo": 120.0
            },
            {
                "start_time": 46.1454545,
                "end_time": 46.5386364,
                "pitch": 67,
                "velocity": 80,
                "duration": 0.3931818,
                "tempo": 120.0
            },
            {
                "start_time": 46.5545455,
                "end_time": 47.5454545,
                "pitch": 69,
                "velocity": 80,
                "duration": 0.9909091,
                "tempo": 120.0
            },
            {
                "start_time": 47.7681818,
                "end_time": 47.9613636,
                "pitch": 69,
                "velocity": 80,
                "duration": 0.1931818,
                "tempo": 120.0
            },
            {
                "start_time": 47.9795455,
                "end_time": 48.9522727,
                "pitch": 72,
                "velocity": 80,
                "duration": 0.9727273,
                "tempo": 120.0
            },
            {
                "start_time": 49.1681818,
                "end_time": 49.3568182,
                "pitch": 72,
                "velocity": 80,
                "duration": 0.1886364,
                "tempo": 120.0
            },
            {
                "start_time": 49.3727273,
                "end_time": 49.5681818,
                "pitch": 71,
                "velocity": 80,
                "duration": 0.1954545,
                "tempo": 120.0
            },
            {
                "start_time": 49.6022727,
                "end_time": 51.4159091,
                "pitch": 72,
                "velocity": 80,
                "duration": 1.8136364,
                "tempo": 120.0
            },
            {
                "start_time": 51.6295455,
                "end_time": 51.8295455,
                "pitch": 71,
                "velocity": 80,
                "duration": 0.2,
                "tempo": 120.0
            },
            {
                "start_time": 52.0522727,
                "end_time": 52.2409091,
                "pitch": 71,
                "velocity": 80,
                "duration": 0.1886364,
                "tempo": 120.0
            },
            {
                "start_time": 52.4636364,
                "end_time": 52.6522727,
                "pitch": 69,
                "velocity": 80,
                "duration": 0.1886364,
                "tempo": 120.0
            },
            {
                "start_time": 52.6681818,
                "end_time": 53.0613636,
                "pitch": 67,
                "velocity": 80,
                "duration": 0.3931818,
                "tempo": 120.0
            },
            {
                "start_time": 53.0772727,
                "end_time": 54.2795455,
                "pitch": 69,
                "velocity": 80,
                "duration": 1.2022727,
                "tempo": 120.0
            },
            {
                "start_time": 54.2977273,
                "end_time": 54.4840909,
                "pitch": 71,
                "velocity": 80,
                "duration": 0.1863636,
                "tempo": 120.0
            },
            {
                "start_time": 54.5022727,
                "end_time": 55.0886364,
                "pitch": 72,
                "velocity": 80,
                "duration": 0.5863636,
                "tempo": 120.0
            },
            {
                "start_time": 55.1045455,
                "end_time": 55.4909091,
                "pitch": 62,
                "velocity": 80,
                "duration": 0.3863636,
                "tempo": 120.0
            },
            {
                "start_time": 55.5068182,
                "end_time": 55.8977273,
                "pitch": 64,
                "velocity": 80,
                "duration": 0.3909091,
                "tempo": 120.0
            },
            {
                "start_time": 55.9136364,
                "end_time": 56.3090909,
                "pitch": 67,
                "velocity": 80,
                "duration": 0.3954545,
                "tempo": 120.0
            },
            {
                "start_time": 56.3272727,
                "end_time": 56.9272727,
                "pitch": 64,
                "velocity": 80,
                "duration": 0.6,
                "tempo": 120.0
            },
            {
                "start_time": 56.9431818,
                "end_time": 57.5227273,
                "pitch": 57,
                "velocity": 80,
                "duration": 0.5795455,
                "tempo": 120.0
            },
            {
                "start_time": 57.5409091,
                "end_time": 57.9295455,
                "pitch": 64,
                "velocity": 80,
                "duration": 0.3886364,
                "tempo": 120.0
            },
            {
                "start_time": 57.9477273,
                "end_time": 58.5613636,
                "pitch": 64,
                "velocity": 80,
                "duration": 0.6136364,
                "tempo": 120.0
            },
            {
                "start_time": 58.5795455,
                "end_time": 59.1545455,
                "pitch": 55,
                "velocity": 80,
                "duration": 0.575,
                "tempo": 120.0
            },
            {
                "start_time": 59.1727273,
                "end_time": 59.5636364,
                "pitch": 64,
                "velocity": 80,
                "duration": 0.3909091,
                "tempo": 120.0
            },
            {
                "start_time": 59.5795455,
                "end_time": 60.7931818,
                "pitch": 59,
                "velocity": 80,
                "duration": 1.2136364,
                "tempo": 120.0
            },
            {
                "start_time": 60.8113636,
                "end_time": 60.9977273,
                "pitch": 55,
                "velocity": 80,
                "duration": 0.1863636,
                "tempo": 120.0
            },
            {
                "start_time": 61.0159091,
                "end_time": 61.6045455,
                "pitch": 57,
                "velocity": 80,
                "duration": 0.5886364,
                "tempo": 120.0
            },
            {
                "start_time": 61.6204545,
                "end_time": 62.0068182,
                "pitch": 55,
                "velocity": 80,
                "duration": 0.3863636,
                "tempo": 120.0
            },
            {
                "start_time": 62.0227273,
                "end_time": 62.4136364,
                "pitch": 52,
                "velocity": 80,
                "duration": 0.3909091,
                "tempo": 120.0
            },
            {
                "start_time": 62.4295455,
                "end_time": 62.8272727,
                "pitch": 55,
                "velocity": 80,
                "duration": 0.3977273,
                "tempo": 120.0
            },
            {
                "start_time": 62.8431818,
                "end_time": 63.6477273,
                "pitch": 52,
                "velocity": 80,
                "duration": 0.8045455,
                "tempo": 120.0
            },
            {
                "start_time": 63.6659091,
                "end_time": 64.0545455,
                "pitch": 57,
                "velocity": 80,
                "duration": 0.3886364,
                "tempo": 120.0
            },
            {
                "start_time": 64.0727273,
                "end_time": 64.2522727,
                "pitch": 59,
                "velocity": 80,
                "duration": 0.1795455,
                "tempo": 120.0
            },
            {
                "start_time": 64.2681818,
                "end_time": 64.8636364,
                "pitch": 55,
                "velocity": 80,
                "duration": 0.5954545,
                "tempo": 120.0
            },
            {
                "start_time": 64.8818182,
                "end_time": 65.4886364,
                "pitch": 50,
                "velocity": 80,
                "duration": 0.6068182,
                "tempo": 120.0
            },
            {
                "start_time": 65.5068182,
                "end_time": 66.0818182,
                "pitch": 52,
                "velocity": 80,
                "duration": 0.575,
                "tempo": 120.0
            },
            {
                "start_time": 66.0977273,
                "end_time": 66.4863636,
                "pitch": 59,
                "velocity": 80,
                "duration": 0.3886364,
                "tempo": 120.0
            },
            {
                "start_time": 66.5045455,
                "end_time": 66.6909091,
                "pitch": 60,
                "velocity": 80,
                "duration": 0.1863636,
                "tempo": 120.0
            },
            {
                "start_time": 66.7090909,
                "end_time": 67.1136364,
                "pitch": 59,
                "velocity": 80,
                "duration": 0.4045455,
                "tempo": 120.0
            },
            {
                "start_time": 67.1295455,
                "end_time": 67.5227273,
                "pitch": 57,
                "velocity": 80,
                "duration": 0.3931818,
                "tempo": 120.0
            },
            {
                "start_time": 67.5386364,
                "end_time": 67.725,
                "pitch": 52,
                "velocity": 80,
                "duration": 0.1863636,
                "tempo": 120.0
            },
            {
                "start_time": 67.7431818,
                "end_time": 68.1272727,
                "pitch": 59,
                "velocity": 80,
                "duration": 0.3840909,
                "tempo": 120.0
            },
            {
                "start_time": 68.1454545,
                "end_time": 68.3272727,
                "pitch": 60,
                "velocity": 80,
                "duration": 0.1818182,
                "tempo": 120.0
            },
            {
                "start_time": 68.3454545,
                "end_time": 68.7227273,
                "pitch": 59,
                "velocity": 80,
                "duration": 0.3772727,
                "tempo": 120.0
            },
            {
                "start_time": 68.7386364,
                "end_time": 69.1454545,
                "pitch": 57,
                "velocity": 80,
                "duration": 0.4068182,
                "tempo": 120.0
            },
            {
                "start_time": 69.1613636,
                "end_time": 69.35,
                "pitch": 52,
                "velocity": 80,
                "duration": 0.1886364,
                "tempo": 120.0
            },
            {
                "start_time": 69.3681818,
                "end_time": 69.7613636,
                "pitch": 59,
                "velocity": 80,
                "duration": 0.3931818,
                "tempo": 120.0
            },
            {
                "start_time": 69.7795455,
                "end_time": 69.9659091,
                "pitch": 60,
                "velocity": 80,
                "duration": 0.1863636,
                "tempo": 120.0
            },
            {
                "start_time": 69.9840909,
                "end_time": 70.3636364,
                "pitch": 59,
                "velocity": 80,
                "duration": 0.3795455,
                "tempo": 120.0
            },
            {
                "start_time": 70.3818182,
                "end_time": 70.7704545,
                "pitch": 57,
                "velocity": 80,
                "duration": 0.3886364,
                "tempo": 120.0
            },
            {
                "start_time": 70.7863636,
                "end_time": 71.3863636,
                "pitch": 62,
                "velocity": 80,
                "duration": 0.6,
                "tempo": 120.0
            },
            {
                "start_time": 71.4045455,
                "end_time": 71.8068182,
                "pitch": 60,
                "velocity": 80,
                "duration": 0.4022727,
                "tempo": 120.0
            },
            {
                "start_time": 71.8227273,
                "end_time": 72.2136364,
                "pitch": 59,
                "velocity": 80,
                "duration": 0.3909091,
                "tempo": 120.0
            },
            {
                "start_time": 72.2295455,
                "end_time": 72.6068182,
                "pitch": 60,
                "velocity": 80,
                "duration": 0.3772727,
                "tempo": 120.0
            },
            {
                "start_time": 72.625,
                "end_time": 73.0113636,
                "pitch": 59,
                "velocity": 80,
                "duration": 0.3863636,
                "tempo": 120.0
            },
            {
                "start_time": 73.0295455,
                "end_time": 73.2181818,
                "pitch": 60,
                "velocity": 80,
                "duration": 0.1886364,
                "tempo": 120.0
            },
            {
                "start_time": 73.2340909,
                "end_time": 73.6318182,
                "pitch": 59,
                "velocity": 80,
                "duration": 0.3977273,
                "tempo": 120.0
            },
            {
                "start_time": 73.6477273,
                "end_time": 74.0454545,
                "pitch": 57,
                "velocity": 80,
                "duration": 0.3977273,
                "tempo": 120.0
            },
            {
                "start_time": 74.0613636,
                "end_time": 74.2522727,
                "pitch": 52,
                "velocity": 80,
                "duration": 0.1909091,
                "tempo": 120.0
            },
            {
                "start_time": 74.2681818,
                "end_time": 74.6522727,
                "pitch": 59,
                "velocity": 80,
                "duration": 0.3840909,
                "tempo": 120.0
            },
            {
                "start_time": 74.6681818,
                "end_time": 74.8522727,
                "pitch": 60,
                "velocity": 80,
                "duration": 0.1840909,
                "tempo": 120.0
            },
            {
                "start_time": 74.8704545,
                "end_time": 75.2477273,
                "pitch": 59,
                "velocity": 80,
                "duration": 0.3772727,
                "tempo": 120.0
            },
            {
                "start_time": 75.2636364,
                "end_time": 75.6704545,
                "pitch": 57,
                "velocity": 80,
                "duration": 0.4068182,
                "tempo": 120.0
            },
            {
                "start_time": 75.6886364,
                "end_time": 75.8772727,
                "pitch": 52,
                "velocity": 80,
                "duration": 0.1886364,
                "tempo": 120.0
            },
            {
                "start_time": 75.8931818,
                "end_time": 76.2863636,
                "pitch": 59,
                "velocity": 80,
                "duration": 0.3931818,
                "tempo": 120.0
            },
            {
                "start_time": 76.3045455,
                "end_time": 76.4931818,
                "pitch": 60,
                "velocity": 80,
                "duration": 0.1886364,
                "tempo": 120.0
            },
            {
                "start_time": 76.5090909,
                "end_time": 76.8909091,
                "pitch": 59,
                "velocity": 80,
                "duration": 0.3818182,
                "tempo": 120.0
            },
            {
                "start_time": 76.9068182,
                "end_time": 77.2954545,
                "pitch": 57,
                "velocity": 80,
                "duration": 0.3886364,
                "tempo": 120.0
            },
            {
                "start_time": 77.3136364,
                "end_time": 77.9113636,
                "pitch": 62,
                "velocity": 80,
                "duration": 0.5977273,
                "tempo": 120.0
            },
            {
                "start_time": 77.9295455,
                "end_time": 78.3295455,
                "pitch": 67,
                "velocity": 80,
                "duration": 0.4,
                "tempo": 120.0
            },
            {
                "start_time": 78.3454545,
                "end_time": 78.7295455,
                "pitch": 71,
                "velocity": 80,
                "duration": 0.3840909,
                "tempo": 120.0
            },
            {
                "start_time": 78.7477273,
                "end_time": 79.1318182,
                "pitch": 74,
                "velocity": 80,
                "duration": 0.3840909,
                "tempo": 120.0
            },
            {
                "start_time": 79.15,
                "end_time": 80.5704545,
                "pitch": 71,
                "velocity": 80,
                "duration": 1.4204545,
                "tempo": 120.0
            },
            {
                "start_time": 80.5863636,
                "end_time": 80.7704545,
                "pitch": 72,
                "velocity": 80,
                "duration": 0.1840909,
                "tempo": 120.0
            },
            {
                "start_time": 80.7886364,
                "end_time": 82.0022727,
                "pitch": 72,
                "velocity": 80,
                "duration": 1.2136364,
                "tempo": 120.0
            },
            {
                "start_time": 82.4159091,
                "end_time": 82.5,
                "pitch": 62,
                "velocity": 80,
                "duration": 0.0840909,
                "tempo": 120.0
            },
            {
                "start_time": 82.5181818,
                "end_time": 82.6045455,
                "pitch": 55,
                "velocity": 80,
                "duration": 0.0863636,
                "tempo": 120.0
            },
            {
                "start_time": 82.6204545,
                "end_time": 82.7068182,
                "pitch": 59,
                "velocity": 80,
                "duration": 0.0863636,
                "tempo": 120.0
            },
            {
                "start_time": 82.7227273,
                "end_time": 82.8090909,
                "pitch": 62,
                "velocity": 80,
                "duration": 0.0863636,
                "tempo": 120.0
            },
            {
                "start_time": 82.8272727,
                "end_time": 82.9113636,
                "pitch": 67,
                "velocity": 80,
                "duration": 0.0840909,
                "tempo": 120.0
            },
            {
                "start_time": 82.9295455,
                "end_time": 83.0136364,
                "pitch": 59,
                "velocity": 80,
                "duration": 0.0840909,
                "tempo": 120.0
            },
            {
                "start_time": 83.0318182,
                "end_time": 83.1181818,
                "pitch": 62,
                "velocity": 80,
                "duration": 0.0863636,
                "tempo": 120.0
            },
            {
                "start_time": 83.1340909,
                "end_time": 83.2204545,
                "pitch": 67,
                "velocity": 80,
                "duration": 0.0863636,
                "tempo": 120.0
            },
            {
                "start_time": 83.2363636,
                "end_time": 83.3227273,
                "pitch": 71,
                "velocity": 80,
                "duration": 0.0863636,
                "tempo": 120.0
            },
            {
                "start_time": 83.3409091,
                "end_time": 83.425,
                "pitch": 62,
                "velocity": 80,
                "duration": 0.0840909,
                "tempo": 120.0
            },
            {
                "start_time": 83.4431818,
                "end_time": 83.5272727,
                "pitch": 67,
                "velocity": 80,
                "duration": 0.0840909,
                "tempo": 120.0
            },
            {
                "start_time": 83.5454545,
                "end_time": 83.6272727,
                "pitch": 71,
                "velocity": 80,
                "duration": 0.0818182,
                "tempo": 120.0
            },
            {
                "start_time": 83.6431818,
                "end_time": 83.725,
                "pitch": 74,
                "velocity": 80,
                "duration": 0.0818182,
                "tempo": 120.0
            },
            {
                "start_time": 83.7409091,
                "end_time": 83.8227273,
                "pitch": 67,
                "velocity": 80,
                "duration": 0.0818182,
                "tempo": 120.0
            },
            {
                "start_time": 83.8386364,
                "end_time": 83.9204545,
                "pitch": 71,
                "velocity": 80,
                "duration": 0.0818182,
                "tempo": 120.0
            },
            {
                "start_time": 83.9386364,
                "end_time": 84.0204545,
                "pitch": 74,
                "velocity": 80,
                "duration": 0.0818182,
                "tempo": 120.0
            },
            {
                "start_time": 84.0363636,
                "end_time": 84.1340909,
                "pitch": 67,
                "velocity": 80,
                "duration": 0.0977273,
                "tempo": 120.0
            },
            {
                "start_time": 84.15,
                "end_time": 84.2318182,
                "pitch": 59,
                "velocity": 80,
                "duration": 0.0818182,
                "tempo": 120.0
            },
            {
                "start_time": 84.2477273,
                "end_time": 84.3295455,
                "pitch": 62,
                "velocity": 80,
                "duration": 0.0818182,
                "tempo": 120.0
            },
            {
                "start_time": 84.3454545,
                "end_time": 84.4340909,
                "pitch": 67,
                "velocity": 80,
                "duration": 0.0886364,
                "tempo": 120.0
            },
            {
                "start_time": 84.4522727,
                "end_time": 84.5409091,
                "pitch": 71,
                "velocity": 80,
                "duration": 0.0886364,
                "tempo": 120.0
            },
            {
                "start_time": 84.5568182,
                "end_time": 84.6454545,
                "pitch": 62,
                "velocity": 80,
                "duration": 0.0886364,
                "tempo": 120.0
            },
            {
                "start_time": 84.6636364,
                "end_time": 84.7522727,
                "pitch": 67,
                "velocity": 80,
                "duration": 0.0886364,
                "tempo": 120.0
            },
            {
                "start_time": 84.7681818,
                "end_time": 84.8545455,
                "pitch": 71,
                "velocity": 80,
                "duration": 0.0863636,
                "tempo": 120.0
            },
            {
                "start_time": 84.8727273,
                "end_time": 84.9568182,
                "pitch": 74,
                "velocity": 80,
                "duration": 0.0840909,
                "tempo": 120.0
            },
            {
                "start_time": 84.975,
                "end_time": 85.0613636,
                "pitch": 67,
                "velocity": 80,
                "duration": 0.0863636,
                "tempo": 120.0
            },
            {
                "start_time": 85.0772727,
                "end_time": 85.1636364,
                "pitch": 71,
                "velocity": 80,
                "duration": 0.0863636,
                "tempo": 120.0
            },
            {
                "start_time": 85.1795455,
                "end_time": 85.2636364,
                "pitch": 74,
                "velocity": 80,
                "duration": 0.0840909,
                "tempo": 120.0
            },
            {
                "start_time": 85.2795455,
                "end_time": 85.3636364,
                "pitch": 79,
                "velocity": 80,
                "duration": 0.0840909,
                "tempo": 120.0
            },
            {
                "start_time": 85.3795455,
                "end_time": 85.4636364,
                "pitch": 71,
                "velocity": 80,
                "duration": 0.0840909,
                "tempo": 120.0
            },
            {
                "start_time": 85.4795455,
                "end_time": 85.5636364,
                "pitch": 74,
                "velocity": 80,
                "duration": 0.0840909,
                "tempo": 120.0
            },
            {
                "start_time": 85.5795455,
                "end_time": 85.6613636,
                "pitch": 79,
                "velocity": 80,
                "duration": 0.0818182,
                "tempo": 120.0
            }
        ]
    }
}