{
    "mood": "happy",
    "instruments": {
        "Acoustic Bass": [
            {
                "start_time": 0.0045455,
                "end_time": 0.1681818,
                "pitch": 35,
                "velocity": 64,
                "duration": 0.1636364,
                "tempo": 120.0
            },
            {
                "start_time": 0.1840909,
                "end_time": 0.3636364,
                "pitch": 47,
                "velocity": 64,
                "duration": 0.1795455,
                "tempo": 120.0
            },
            {
                "start_time": 0.3795455,
                "end_time": 0.4636364,
                "pitch": 35,
                "velocity": 64,
                "duration": 0.0840909,
                "tempo": 120.0
            },
            {
                "start_time": 0.4795455,
                "end_time": 0.5636364,
                "pitch": 35,
                "velocity": 64,
                "duration": 0.0840909,
                "tempo": 120.0
            },
            {
                "start_time": 0.5795455,
                "end_time": 0.6636364,
                "pitch": 35,
                "velocity": 64,
                "duration": 0.0840909,
                "tempo": 120.0
            },
            {
                "start_time": 0.6795455,
                "end_time": 0.7636364,
                "pitch": 35,
                "velocity": 64,
                "duration": 0.0840909,
                "tempo": 120.0
            },
            {
                "start_time": 0.7795455,
                "end_time": 0.9590909,
                "pitch": 47,
                "velocity": 64,
                "duration": 0.1795455,
                "tempo": 120.0
            },
            {
                "start_time": 0.9772727,
                "end_time": 1.1568182,
                "pitch": 47,
                "velocity": 64,
                "duration": 0.1795455,
                "tempo": 120.0
            },
            {
                "start_time": 1.1727273,
                "end_time": 1.3522727,
                "pitch": 47,
                "velocity": 64,
                "duration": 0.1795455,
                "tempo": 120.0
            },
            {
                "start_time": 1.3681818,
                "end_time": 1.45,
                "pitch": 35,
                "velocity": 64,
                "duration": 0.0818182,
                "tempo": 120.0
            },
            {
                "start_time": 1.4659091,
                "end_time": 1.5477273,
                "pitch": 35,
                "velocity": 64,
                "duration": 0.0818182,
                "tempo": 120.0
            },
            {
                "start_time": 1.5636364,
                "end_time": 1.75,
                "pitch": 35,
                "velocity": 64,
                "duration": 0.1863636,
                "tempo": 120.0
            },
            {
                "start_time": 1.7659091,
                "end_time": 1.95,
                "pitch": 47,
                "velocity": 64,
                "duration": 0.1840909,
                "tempo": 120.0
            },
            {
                "start_time": 1.9681818,
                "end_time": 2.05,
                "pitch": 35,
                "velocity": 64,
                "duration": 0.0818182,
                "tempo": 120.0
            },
            {
                "start_time": 2.0681818,
                "end_time": 2.15,
                "pitch": 35,
                "velocity": 64,
                "duration": 0.0818182,
                "tempo": 120.0
            },
            {
                "start_time": 2.1681818,
                "end_time": 2.25,
                "pitch": 35,
                "velocity": 64,
                "duration": 0.0818182,
                "tempo": 120.0
            },
            {
                "start_time": 2.2681818,
                "end_time": 2.35,
                "pitch": 35,
                "velocity": 64,
                "duration": 0.0818182,
                "tempo": 120.0
            },
            {
                "start_time": 2.3681818,
                "end_time": 2.5522727,
                "pitch": 47,
                "velocity": 64,
                "duration": 0.1840909,
                "tempo": 120.0
            },
            {
                "start_time": 2.5681818,
                "end_time": 2.7522727,
                "pitch": 47,
                "velocity": 64,
                "duration": 0.1840909,
                "tempo": 120.0
            },
            {
                "start_time": 2.7704545,
                "end_time": 2.9590909,
                "pitch": 47,
                "velocity": 64,
                "duration": 0.1886364,
                "tempo": 120.0
            },
            {
                "start_time": 2.975,
                "end_time": 3.0613636,
                "pitch": 35,
                "velocity": 64,
                "duration": 0.0863636,
                "tempo": 120.0
            },
            {
                "start_time": 3.0772727,
                "end_time": 3.1636364,
                "pitch": 35,
                "velocity": 64,
                "duration": 0.0863636,
                "tempo": 120.0
            },
            {
                "start_time": 3.1795455,
                "end_time": 3.3659091,
                "pitch": 39,
                "velocity": 64,
                "duration": 0.1863636,
                "tempo": 120.0
            },
            {
                "start_time": 3.3818182,
                "end_time": 3.5659091,
                "pitch": 51,
                "velocity": 64,
                "duration": 0.1840909,
                "tempo": 120.0
            },
            {
                "start_time": 3.5840909,
                "end_time": 3.6659091,
                "pitch": 39,
                "velocity": 64,
                "duration": 0.0818182,
                "tempo": 120.0
            },
            {
                "start_time": 3.6840909,
                "end_time": 3.7659091,
                "pitch": 39,
                "velocity": 64,
                "duration": 0.0818182,
                "tempo": 120.0
            },
            {
                "start_time": 3.7840909,
                "end_time": 3.8659091,
                "pitch": 39,
                "velocity": 64,
                "duration": 0.0818182,
                "tempo": 120.0
            },
            {
                "start_time": 3.8840909,
                "end_time": 3.9659091,
                "pitch": 39,
                "velocity": 64,
                "duration": 0.0818182,
                "tempo": 120.0
            },
            {
                "start_time": 3.9840909,
                "end_time": 4.1659091,
                "pitch": 51,
                "velocity": 64,
                "duration": 0.1818182,
                "tempo": 120.0
            },
            {
                "start_time": 4.1840909,
                "end_time": 4.3659091,
                "pitch": 51,
                "velocity": 64,
                "duration": 0.1818182,
                "tempo": 120.0
            },
            {
                "start_time": 4.3840909,
                "end_time": 4.5636364,
                "pitch": 51,
                "velocity": 64,
                "duration": 0.1795455,
                "tempo": 120.0
            },
            {
                "start_time": 4.5795455,
                "end_time": 4.6613636,
                "pitch": 39,
                "velocity": 64,
                "duration": 0.0818182,
                "tempo": 120.0
            },
            {
                "start_time": 4.6772727,
                "end_time": 4.7590909,
                "pitch": 39,
                "velocity": 64,
                "duration": 0.0818182,
                "tempo": 120.0
            },
            {
                "start_time": 4.775,
                "end_time": 4.9613636,
                "pitch": 39,
                "velocity": 64,
                "duration": 0.1863636,
                "tempo": 120.0
            },
            {
                "start_time": 4.9772727,
                "end_time": 5.1613636,
                "pitch": 51,
                "velocity": 64,
                "duration": 0.1840909,
                "tempo": 120.0
            },
            {
                "start_time": 5.1795455,
                "end_time": 5.2613636,
                "pitch": 39,
                "velocity": 64,
                "duration": 0.0818182,
                "tempo": 120.0
            },
            {
                "start_time": 5.2795455,
                "end_time": 5.3636364,
                "pitch": 39,
                "velocity": 64,
                "duration": 0.0840909,
                "tempo": 120.0
            },
            {
                "start_time": 5.3795455,
                "end_time": 5.4636364,
                "pitch": 39,
                "velocity": 64,
                "duration": 0.0840909,
                "tempo": 120.0
            },
            {
                "start_time": 5.4795455,
                "end_time": 5.5636364,
                "pitch": 39,
                "velocity": 64,
                "duration": 0.0840909,
                "tempo": 120.0
            },
            {
                "start_time": 5.5818182,
                "end_time": 5.7636364,
                "pitch": 51,
                "velocity": 64,
                "duration": 0.1818182,
                "tempo": 120.0
            },
            {
                "start_time": 5.7818182,
                "end_time": 5.9636364,
                "pitch": 51,
                "velocity": 64,
                "duration": 0.1818182,
                "tempo": 120.0
            },
            {
                "start_time": 5.9818182,
                "end_time": 6.1681818,
                "pitch": 51,
                "velocity": 64,
                "duration": 0.1863636,
                "tempo": 120.0
            },
            {
                "start_time": 6.1863636,
                "end_time": 6.2727273,
                "pitch": 39,
                "velocity": 64,
                "duration": 0.0863636,
                "tempo": 120.0
            },
            {
                "start_time": 6.2886364,
                "end_time": 6.375,
                "pitch": 39,
                "velocity": 64,
                "duration": 0.0863636,
                "tempo": 120.0
            },
            {
                "start_time": 6.3909091,
                "end_time": 6.5772727,
                "pitch": 37,
                "velocity": 64,
                "duration": 0.1863636,
                "tempo": 120.0
            },
            {
                "start_time": 6.5931818,
                "end_time": 6.7772727,
                "pitch": 49,
                "velocity": 64,
                "duration": 0.1840909,
                "tempo": 120.0
            },
            {
                "start_time": 6.7954545,
                "end_time": 6.8772727,
                "pitch": 37,
                "velocity": 64,
                "duration": 0.0818182,
                "tempo": 120.0
            },
            {
                "start_time": 6.8954545,
                "end_time": 6.9772727,
                "pitch": 37,
                "velocity": 64,
                "duration": 0.0818182,
                "tempo": 120.0
            },
            {
                "start_time": 6.9954545,
                "end_time": 7.0772727,
                "pitch": 37,
                "velocity": 64,
                "duration": 0.0818182,
                "tempo": 120.0
            },
            {
                "start_time": 7.0954545,
                "end_time": 7.1772727,
                "pitch": 37,
                "velocity": 64,
                "duration": 0.0818182,
                "tempo": 120.0
            },
            {
                "start_time": 7.1954545,
                "end_time": 7.3795455,
                "pitch": 49,
                "velocity": 64,
                "duration": 0.1840909,
                "tempo": 120.0
            },
            {
                "start_time": 7.3954545,
                "end_time": 7.5795455,
                "pitch": 49,
                "velocity": 64,
                "duration": 0.1840909,
                "tempo": 120.0
            },
            {
                "start_time": 7.5977273,
                "end_time": 7.7772727,
                "pitch": 49,
                "velocity": 64,
                "duration": 0.1795455,
                "tempo": 120.0
            },
            {
                "start_time": 7.7931818,
                "end_time": 7.875,
                "pitch": 37,
                "velocity": 64,
                "duration": 0.0818182,
                "tempo": 120.0
            },
            {
                "start_time": 7.8909091,
                "end_time": 7.9727273,
                "pitch": 37,
                "velocity": 64,
                "duration": 0.0818182,
                "tempo": 120.0
            },
            {
                "start_time": 7.9886364,
                "end_time": 8.175,
                "pitch": 37,
                "velocity": 64,
                "duration": 0.1863636,
                "tempo": 120.0
            },
            {
                "start_time": 8.1909091,
                "end_time": 8.375,
                "pitch": 49,
                "velocity": 64,
                "duration": 0.1840909,
                "tempo": 120.0
            },
            {
                "start_time": 8.3931818,
                "end_time": 8.4772727,
                "pitch": 37,
                "velocity": 64,
                "duration": 0.0840909,
                "tempo": 120.0
            },
            {
                "start_time": 8.4931818,
                "end_time": 8.5772727,
                "pitch": 37,
                "velocity": 64,
                "duration": 0.0840909,
                "tempo": 120.0
            },
            {
                "start_time": 8.5931818,
                "end_time": 8.6772727,
                "pitch": 37,
                "velocity": 64,
                "duration": 0.0840909,
                "tempo": 120.0
            },
            {
                "start_time": 8.6931818,
                "end_time": 8.7772727,
                "pitch": 37,
                "velocity": 64,
                "duration": 0.0840909,
                "tempo": 120.0
            },
            {
                "start_time": 8.7954545,
                "end_time": 8.9772727,
                "pitch": 49,
                "velocity": 64,
                "duration": 0.1818182,
                "tempo": 120.0
            },
            {
                "start_time": 8.9954545,
                "end_time": 9.1772727,
                "pitch": 49,
                "velocity": 64,
                "duration": 0.1818182,
                "tempo": 120.0
            },
            {
                "start_time": 9.1954545,
                "end_time": 9.3840909,
                "pitch": 49,
                "velocity": 64,
                "duration": 0.1886364,
                "tempo": 120.0
            },
            {
                "start_time": 9.4,
                "end_time": 9.4863636,
                "pitch": 37,
                "velocity": 64,
                "duration": 0.0863636,
                "tempo": 120.0
            },
            {
                "start_time": 9.5022727,
                "end_time": 9.5886364,
                "pitch": 37,
                "velocity": 64,
                "duration": 0.0863636,
                "tempo": 120.0
            },
            {
                "start_time": 9.6045455,
                "end_time": 9.7909091,
                "pitch": 35,
                "velocity": 64,
                "duration": 0.1863636,
                "tempo": 120.0
            },
            {
                "start_time": 9.8068182,
                "end_time": 9.9909091,
                "pitch": 47,
                "velocity": 64,
                "duration": 0.1840909,
                "tempo": 120.0
            },
            {
                "start_time": 10.0090909,
                "end_time": 10.0931818,
                "pitch": 35,
                "velocity": 64,
                "duration": 0.0840909,
                "tempo": 120.0
            },
            {
                "start_time": 10.1090909,
                "end_time": 10.1931818,
                "pitch": 35,
                "velocity": 64,
                "duration": 0.0840909,
                "tempo": 120.0
            },
            {
                "start_time": 10.2090909,
                "end_time": 10.2931818,
                "pitch": 35,
                "velocity": 64,
                "duration": 0.0840909,
                "tempo": 120.0
            },
            {
                "start_time": 10.3113636,
                "end_time": 10.3954545,
                "pitch": 35,
                "velocity": 64,
                "duration": 0.0840909,
                "tempo": 120.0
            },
            {
                "start_time": 10.4113636,
                "end_time": 10.5954545,
                "pitch": 47,
                "velocity": 64,
                "duration": 0.1840909,
                "tempo": 120.0
            },
            {
                "start_time": 10.6136364,
                "end_time": 10.7977273,
                "pitch": 47,
                "velocity": 64,
                "duration": 0.1840909,
                "tempo": 120.0
            },
            {
                "start_time": 10.8136364,
                "end_time": 10.9931818,
                "pitch": 47,
                "velocity": 64,
                "duration": 0.1795455,
                "tempo": 120.0
            },
            {
                "start_time": 11.0090909,
                "end_time": 11.0909091,
                "pitch": 35,
                "velocity": 64,
                "duration": 0.0818182,
                "tempo": 120.0
            },
            {
                "start_time": 11.1090909,
                "end_time": 11.1909091,
                "pitch": 35,
                "velocity": 64,
                "duration": 0.0818182,
                "tempo": 120.0
            },
            {
                "start_time": 11.2068182,
                "end_time": 11.3909091,
                "pitch": 35,
                "velocity": 64,
                "duration": 0.1840909,
                "tempo": 120.0
            },
            {
                "start_time": 11.4068182,
                "end_time": 11.5909091,
                "pitch": 47,
                "velocity": 64,
                "duration": 0.1840909,
                "tempo": 120.0
            },
            {
                "start_time": 11.6090909,
                "end_time": 11.6931818,
                "pitch": 35,
                "velocity": 64,
                "duration": 0.0840909,
                "tempo": 120.0
            },
            {
                "start_time": 11.7090909,
                "end_time": 11.7931818,
                "pitch": 35,
                "velocity": 64,
                "duration": 0.0840909,
                "tempo": 120.0
            },
            {
                "start_time": 11.8090909,
                "end_time": 11.8931818,
                "pitch": 35,
                "velocity": 64,
                "duration": 0.0840909,
                "tempo": 120.0
            },
            {
                "start_time": 11.9113636,
                "end_time": 11.9954545,
                "pitch": 35,
                "velocity": 64,
                "duration": 0.0840909,
                "tempo": 120.0
            },
            {
                "start_time": 12.0113636,
                "end_time": 12.1954545,
                "pitch": 47,
                "velocity": 64,
                "duration": 0.1840909,
                "tempo": 120.0
            },
            {
                "start_time": 12.2136364,
                "end_time": 12.3977273,
                "pitch": 47,
                "velocity": 64,
                "duration": 0.1840909,
                "tempo": 120.0
            },
            {
                "start_time": 12.4136364,
                "end_time": 12.5977273,
                "pitch": 47,
                "velocity": 64,
                "duration": 0.1840909,
                "tempo": 120.0
            },
            {
                "start_time": 12.6159091,
                "end_time": 12.7,
                "pitch": 35,
                "velocity": 64,
                "duration": 0.0840909,
                "tempo": 120.0
            },
            {
                "start_time": 12.7159091,
                "end_time": 12.8,
                "pitch": 35,
                "velocity": 64,
                "duration": 0.0840909,
                "tempo": 120.0
            },
            {
                "start_time": 12.8159091,
                "end_time": 13.0045455,
                "pitch": 35,
                "velocity": 64,
                "duration": 0.1886364,
                "tempo": 120.0
            },
            {
                "start_time": 13.0227273,
                "end_time": 13.2113636,
                "pitch": 47,
                "velocity": 64,
                "duration": 0.1886364,
                "tempo": 120.0
            },
            {
                "start_time": 13.2272727,
                "end_time": 13.3136364,
                "pitch": 35,
                "velocity": 64,
                "duration": 0.0863636,
                "tempo": 120.0
            },
            {
                "start_time": 13.3295455,
                "end_time": 13.4159091,
                "pitch": 35,
                "velocity": 64,
                "duration": 0.0863636,
                "tempo": 120.0
            },
            {
                "start_time": 13.4340909,
                "end_time": 13.5181818,
                "pitch": 35,
                "velocity": 64,
                "duration": 0.0840909,
                "tempo": 120.0
            },
            {
                "start_time": 13.5363636,
                "end_time": 13.6204545,
                "pitch": 35,
                "velocity": 64,
                "duration": 0.0840909,
                "tempo": 120.0
            },
            {
                "start_time": 13.6386364,
                "end_time": 13.8181818,
                "pitch": 47,
                "velocity": 64,
                "duration": 0.1795455,
                "tempo": 120.0
            },
            {
                "start_time": 13.8340909,
                "end_time": 14.0159091,
                "pitch": 47,
                "velocity": 64,
                "duration": 0.1818182,
                "tempo": 120.0
            },
            {
                "start_time": 14.0318182,
                "end_time": 14.2113636,
                "pitch": 47,
                "velocity": 64,
                "duration": 0.1795455,
                "tempo": 120.0
            },
            {
                "start_time": 14.2272727,
                "end_time": 14.3090909,
                "pitch": 35,
                "velocity": 64,
                "duration": 0.0818182,
                "tempo": 120.0
            },
            {
                "start_time": 14.325,
                "end_time": 14.4068182,
                "pitch": 35,
                "velocity": 64,
                "duration": 0.0818182,
                "tempo": 120.0
            },
            {
                "start_time": 14.4227273,
                "end_time": 14.6068182,
                "pitch": 35,
                "velocity": 64,
                "duration": 0.1840909,
                "tempo": 120.0
            },
            {
                "start_time": 14.625,
                "end_time": 14.8090909,
                "pitch": 47,
                "velocity": 64,
                "duration": 0.1840909,
                "tempo": 120.0
            },
            {
                "start_time": 14.825,
                "end_time": 14.9136364,
                "pitch": 35,
                "velocity": 64,
                "duration": 0.0886364,
                "tempo": 120.0
            },
            {
                "start_time": 14.9295455,
                "end_time": 15.0181818,
                "pitch": 35,
                "velocity": 64,
                "duration": 0.0886364,
                "tempo": 120.0
            },
            {
                "start_time": 15.0363636,
                "end_time": 15.125,
                "pitch": 35,
                "velocity": 64,
                "duration": 0.0886364,
                "tempo": 120.0
            },
            {
                "start_time": 15.1409091,
                "end_time": 15.2295455,
                "pitch": 35,
                "velocity": 64,
                "duration": 0.0886364,
                "tempo": 120.0
            },
            {
                "start_time": 15.2477273,
                "end_time": 15.4272727,
                "pitch": 47,
                "velocity": 64,
                "duration": 0.1795455,
                "tempo": 120.0
            },
            {
                "start_time": 15.4454545,
                "end_time": 15.625,
                "pitch": 47,
                "velocity": 64,
                "duration": 0.1795455,
                "tempo": 120.0
            },
            {
                "start_time": 15.6409091,
                "end_time": 15.825,
                "pitch": 47,
                "velocity": 64,
                "duration": 0.1840909,
                "tempo": 120.0
            },
            {
                "start_time": 15.8409091,
                "end_time": 15.925,
                "pitch": 35,
                "velocity": 64,
                "duration": 0.0840909,
                "tempo": 120.0
            },
            {
                "start_time": 15.9431818,
                "end_time": 16.025,
                "pitch": 35,
                "velocity": 64,
                "duration": 0.0818182,
                "tempo": 120.0
            },
            {
                "start_time": 16.0431818,
                "end_time": 16.2272727,
                "pitch": 39,
                "velocity": 64,
                "duration": 0.1840909,
                "tempo": 120.0
            },
            {
                "start_time": 16.2431818,
                "end_time": 16.4295455,
                "pitch": 51,
                "velocity": 64,
                "duration": 0.1863636,
                "tempo": 120.0
            },
            {
                "start_time": 16.4454545,
                "end_time": 16.5318182,
                "pitch": 39,
                "velocity": 64,
                "duration": 0.0863636,
                "tempo": 120.0
            },
            {
                "start_time": 16.5477273,
                "end_time": 16.6340909,
                "pitch": 39,
                "velocity": 64,
                "duration": 0.0863636,
                "tempo": 120.0
            },
            {
                "start_time": 16.65,
                "end_time": 16.7363636,
                "pitch": 39,
                "velocity": 64,
                "duration": 0.0863636,
                "tempo": 120.0
            },
            {
                "start_time": 16.7522727,
                "end_time": 16.8386364,
                "pitch": 39,
                "velocity": 64,
                "duration": 0.0863636,
                "tempo": 120.0
            },
            {
                "start_time": 16.8568182,
                "end_time": 17.0363636,
                "pitch": 51,
                "velocity": 64,
                "duration": 0.1795455,
                "tempo": 120.0
            },
            {
                "start_time": 17.0522727,
                "end_time": 17.2318182,
                "pitch": 51,
                "velocity": 64,
                "duration": 0.1795455,
                "tempo": 120.0
            },
            {
                "start_time": 17.2477273,
                "end_time": 17.4295455,
                "pitch": 51,
                "velocity": 64,
                "duration": 0.1818182,
                "tempo": 120.0
            },
            {
                "start_time": 17.4454545,
                "end_time": 17.5272727,
                "pitch": 39,
                "velocity": 64,
                "duration": 0.0818182,
                "tempo": 120.0
            },
            {
                "start_time": 17.5431818,
                "end_time": 17.625,
                "pitch": 39,
                "velocity": 64,
                "duration": 0.0818182,
                "tempo": 120.0
            },
            {
                "start_time": 17.6409091,
                "end_time": 17.8295455,
                "pitch": 39,
                "velocity": 64,
                "duration": 0.1886364,
                "tempo": 120.0
            },
            {
                "start_time": 17.8454545,
                "end_time": 18.0340909,
                "pitch": 51,
                "velocity": 64,
                "duration": 0.1886364,
                "tempo": 120.0
            },
            {
                "start_time": 18.0522727,
                "end_time": 18.1363636,
                "pitch": 39,
                "velocity": 64,
                "duration": 0.0840909,
                "tempo": 120.0
            },
            {
                "start_time": 18.1545455,
                "end_time": 18.2386364,
                "pitch": 39,
                "velocity": 64,
                "duration": 0.0840909,
                "tempo": 120.0
            },
            {
                "start_time": 18.2568182,
                "end_time": 18.3431818,
                "pitch": 39,
                "velocity": 64,
                "duration": 0.0863636,
                "tempo": 120.0
            },
            {
                "start_time": 18.3590909,
                "end_time": 18.4454545,
                "pitch": 39,
                "velocity": 64,
                "duration": 0.0863636,
                "tempo": 120.0
            },
            {
                "start_time": 18.4613636,
                "end_time": 18.6431818,
                "pitch": 51,
                "velocity": 64,
                "duration": 0.1818182,
                "tempo": 120.0
            },
            {
                "start_time": 18.6590909,
                "end_time": 18.8386364,
                "pitch": 51,
                "velocity": 64,
                "duration": 0.1795455,
                "tempo": 120.0
            },
            {
                "start_time": 18.8545455,
                "end_time": 19.0386364,
                "pitch": 51,
                "velocity": 64,
                "duration": 0.1840909,
                "tempo": 120.0
            },
            {
                "start_time": 19.0568182,
                "end_time": 19.1409091,
                "pitch": 39,
                "velocity": 64,
                "duration": 0.0840909,
                "tempo": 120.0
            },
            {
                "start_time": 19.1568182,
                "end_time": 19.2409091,
                "pitch": 39,
                "velocity": 64,
                "duration": 0.0840909,
                "tempo": 120.0
            },
            {
                "start_time": 19.2568182,
                "end_time": 19.4409091,
                "pitch": 37,
                "velocity": 64,
                "duration": 0.1840909,
                "tempo": 120.0
            },
            {
                "start_time": 19.4568182,
                "end_time": 19.6409091,
                "pitch": 49,
                "velocity": 64,
                "duration": 0.1840909,
                "tempo": 120.0
            },
            {
                "start_time": 19.6568182,
                "end_time": 19.7431818,
                "pitch": 37,
                "velocity": 64,
                "duration": 0.0863636,
                "tempo": 120.0
            },
            {
                "start_time": 19.7590909,
                "end_time": 19.8454545,
                "pitch": 37,
                "velocity": 64,
                "duration": 0.0863636,
                "tempo": 120.0
            },
            {
                "start_time": 19.8613636,
                "end_time": 19.9477273,
                "pitch": 37,
                "velocity": 64,
                "duration": 0.0863636,
                "tempo": 120.0
            },
            {
                "start_time": 19.9659091,
                "end_time": 20.05,
                "pitch": 37,
                "velocity": 64,
                "duration": 0.0840909,
                "tempo": 120.0
            },
            {
                "start_time": 20.0681818,
                "end_time": 20.2477273,
                "pitch": 49,
                "velocity": 64,
                "duration": 0.1795455,
                "tempo": 120.0
            },
            {
                "start_time": 20.2636364,
                "end_time": 20.4431818,
                "pitch": 49,
                "velocity": 64,
                "duration": 0.1795455,
                "tempo": 120.0
            },
            {
                "start_time": 20.4613636,
                "end_time": 20.6409091,
                "pitch": 49,
                "velocity": 64,
                "duration": 0.1795455,
                "tempo": 120.0
            },
            {
                "start_time": 20.6568182,
                "end_time": 20.7386364,
                "pitch": 37,
                "velocity": 64,
                "duration": 0.0818182,
                "tempo": 120.0
            },
            {
                "start_time": 20.7545455,
                "end_time": 20.8363636,
                "pitch": 37,
                "velocity": 64,
                "duration": 0.0818182,
                "tempo": 120.0
            },
            {
                "start_time": 20.8522727,
                "end_time": 21.0409091,
                "pitch": 37,
                "velocity": 64,
                "duration": 0.1886364,
                "tempo": 120.0
            },
            {
                "start_time": 21.0568182,
                "end_time": 21.2454545,
                "pitch": 49,
                "velocity": 64,
                "duration": 0.1886364,
                "tempo": 120.0
            },
            {
                "start_time": 21.2636364,
                "end_time": 21.3477273,
                "pitch": 37,
                "velocity": 64,
                "duration": 0.0840909,
                "tempo": 120.0
            },
            {
                "start_time": 21.3659091,
                "end_time": 21.4522727,
                "pitch": 37,
                "velocity": 64,
                "duration": 0.0863636,
                "tempo": 120.0
            },
            {
                "start_time": 21.4681818,
                "end_time": 21.5545455,
                "pitch": 37,
                "velocity": 64,
                "duration": 0.0863636,
                "tempo": 120.0
            },
            {
                "start_time": 21.5704545,
                "end_time": 21.6568182,
                "pitch": 37,
                "velocity": 64,
                "duration": 0.0863636,
                "tempo": 120.0
            },
            {
                "start_time": 21.675,
                "end_time": 21.8545455,
                "pitch": 49,
                "velocity": 64,
                "duration": 0.1795455,
                "tempo": 120.0
            },
            {
                "start_time": 21.8704545,
                "end_time": 22.05,
                "pitch": 49,
                "velocity": 64,
                "duration": 0.1795455,
                "tempo": 120.0
            },
            {
                "start_time": 22.0659091,
                "end_time": 22.25,
                "pitch": 49,
                "velocity": 64,
                "duration": 0.1840909,
                "tempo": 120.0
            },
            {
                "start_time": 22.2659091,
                "end_time": 22.35,
                "pitch": 37,
                "velocity": 64,
                "duration": 0.0840909,
                "tempo": 120.0
            },
            {
                "start_time": 22.3659091,
                "end_time": 22.45,
                "pitch": 37,
                "velocity": 64,
                "duration": 0.0840909,
                "tempo": 120.0
            },
            {
                "start_time": 22.4659091,
                "end_time": 22.65,
                "pitch": 35,
                "velocity": 64,
                "duration": 0.1840909,
                "tempo": 120.0
            },
            {
                "start_time": 22.6659091,
                "end_time": 22.85,
                "pitch": 47,
                "velocity": 64,
                "duration": 0.1840909,
                "tempo": 120.0
            },
            {
                "start_time": 22.8659091,
                "end_time": 22.9522727,
                "pitch": 35,
                "velocity": 64,
                "duration": 0.0863636,
                "tempo": 120.0
            },
            {
                "start_time": 22.9681818,
                "end_time": 23.0545455,
                "pitch": 35,
                "velocity": 64,
                "duration": 0.0863636,
                "tempo": 120.0
            },
            {
                "start_time": 23.0704545,
                "end_time": 23.1568182,
                "pitch": 35,
                "velocity": 64,
                "duration": 0.0863636,
                "tempo": 120.0
            },
            {
                "start_time": 23.175,
                "end_time": 23.2590909,
                "pitch": 35,
                "velocity": 64,
                "duration": 0.0840909,
                "tempo": 120.0
            },
            {
                "start_time": 23.2772727,
                "end_time": 23.4568182,
                "pitch": 47,
                "velocity": 64,
                "duration": 0.1795455,
                "tempo": 120.0
            },
            {
                "start_time": 23.4727273,
                "end_time": 23.6522727,
                "pitch": 47,
                "velocity": 64,
                "duration": 0.1795455,
                "tempo": 120.0
            },
            {
                "start_time": 23.6704545,
                "end_time": 23.8568182,
                "pitch": 47,
                "velocity": 64,
                "duration": 0.1863636,
                "tempo": 120.0
            },
            {
                "start_time": 23.875,
                "end_time": 23.9590909,
                "pitch": 35,
                "velocity": 64,
                "duration": 0.0840909,
                "tempo": 120.0
            },
            {
                "start_time": 23.9772727,
                "end_time": 24.0613636,
                "pitch": 35,
                "velocity": 64,
                "duration": 0.0840909,
                "tempo": 120.0
            },
            {
                "start_time": 24.0795455,
                "end_time": 24.2590909,
                "pitch": 35,
                "velocity": 64,
                "duration": 0.1795455,
                "tempo": 120.0
            },
            {
                "start_time": 24.2772727,
                "end_time": 24.4568182,
                "pitch": 47,
                "velocity": 64,
                "duration": 0.1795455,
                "tempo": 120.0
            },
            {
                "start_time": 24.4727273,
                "end_time": 24.5568182,
                "pitch": 35,
                "velocity": 64,
                "duration": 0.0840909,
                "tempo": 120.0
            },
            {
                "start_time": 24.575,
                "end_time": 24.6590909,
                "pitch": 35,
                "velocity": 64,
                "duration": 0.0840909,
                "tempo": 120.0
            },
            {
                "start_time": 24.6772727,
                "end_time": 24.7613636,
                "pitch": 35,
                "velocity": 64,
                "duration": 0.0840909,
                "tempo": 120.0
            },
            {
                "start_time": 24.7795455,
                "end_time": 24.8659091,
                "pitch": 35,
                "velocity": 64,
                "duration": 0.0863636,
                "tempo": 120.0
            },
            {
                "start_time": 24.8818182,
                "end_time": 25.0636364,
                "pitch": 47,
                "velocity": 64,
                "duration": 0.1818182,
                "tempo": 120.0
            },
            {
                "start_time": 25.0795455,
                "end_time": 25.2590909,
                "pitch": 47,
                "velocity": 64,
                "duration": 0.1795455,
                "tempo": 120.0
            },
            {
                "start_time": 25.275,
                "end_time": 25.4545455,
                "pitch": 47,
                "velocity": 64,
                "duration": 0.1795455,
                "tempo": 120.0
            },
            {
                "start_time": 25.4704545,
                "end_time": 25.5522727,
                "pitch": 35,
                "velocity": 64,
                "duration": 0.0818182,
                "tempo": 120.0
            },
            {
                "start_time": 25.5681818,
                "end_time": 25.65,
                "pitch": 35,
                "velocity": 64,
                "duration": 0.0818182,
                "tempo": 120.0
            },
            {
                "start_time": 25.6681818,
                "end_time": 25.8545455,
                "pitch": 34,
                "velocity": 64,
                "duration": 0.1863636,
                "tempo": 120.0
            },
            {
                "start_time": 25.8727273,
                "end_time": 26.0613636,
                "pitch": 46,
                "velocity": 64,
                "duration": 0.1886364,
                "tempo": 120.0
            },
            {
                "start_time": 26.0772727,
                "end_time": 26.1636364,
                "pitch": 34,
                "velocity": 64,
                "duration": 0.0863636,
                "tempo": 120.0
            },
            {
                "start_time": 26.1795455,
                "end_time": 26.2659091,
                "pitch": 46,
                "velocity": 64,
                "duration": 0.0863636,
                "tempo": 120.0
            },
            {
                "start_time": 26.2840909,
                "end_time": 26.3681818,
                "pitch": 34,
                "velocity": 64,
                "duration": 0.0840909,
                "tempo": 120.0
            },
            {
                "start_time": 26.3863636,
                "end_time": 26.4704545,
                "pitch": 34,
                "velocity": 64,
                "duration": 0.0840909,
                "tempo": 120.0
            },
            {
                "start_time": 26.4886364,
                "end_time": 26.6681818,
                "pitch": 46,
                "velocity": 64,
                "duration": 0.1795455,
                "tempo": 120.0
            },
            {
                "start_time": 26.6840909,
                "end_time": 26.8659091,
                "pitch": 34,
                "velocity": 64,
                "duration": 0.1818182,
                "tempo": 120.0
            },
            {
                "start_time": 26.8818182,
                "end_time": 27.0613636,
                "pitch": 46,
                "velocity": 64,
                "duration": 0.1795455,
                "tempo": 120.0
            },
            {
                "start_time": 27.0772727,
                "end_time": 27.1590909,
                "pitch": 34,
                "velocity": 64,
                "duration": 0.0818182,
                "tempo": 120.0
            },
            {
                "start_time": 27.175,
                "end_time": 27.2568182,
                "pitch": 34,
                "velocity": 64,
                "duration": 0.0818182,
                "tempo": 120.0
            },
            {
                "start_time": 27.2727273,
                "end_time": 27.4568182,
                "pitch": 34,
                "velocity": 64,
                "duration": 0.1840909,
                "tempo": 120.0
            },
            {
                "start_time": 27.475,
                "end_time": 27.6590909,
                "pitch": 46,
                "velocity": 64,
                "duration": 0.1840909,
                "tempo": 120.0
            },
            {
                "start_time": 27.675,
                "end_time": 27.7636364,
                "pitch": 34,
                "velocity": 64,
                "duration": 0.0886364,
                "tempo": 120.0
            },
            {
                "start_time": 27.7795455,
                "end_time": 27.8681818,
                "pitch": 34,
                "velocity": 64,
                "duration": 0.0886364,
                "tempo": 120.0
            },
            {
                "start_time": 27.8863636,
                "end_time": 27.975,
                "pitch": 34,
                "velocity": 64,
                "duration": 0.0886364,
                "tempo": 120.0
            },
            {
                "start_time": 27.9909091,
                "end_time": 28.0795455,
                "pitch": 34,
                "velocity": 64,
                "duration": 0.0886364,
                "tempo": 120.0
            },
            {
                "start_time": 28.0977273,
                "end_time": 28.2772727,
                "pitch": 46,
                "velocity": 64,
                "duration": 0.1795455,
                "tempo": 120.0
            },
            {
                "start_time": 28.2954545,
                "end_time": 28.475,
                "pitch": 46,
                "velocity": 64,
                "duration": 0.1795455,
                "tempo": 120.0
            },
            {
                "start_time": 28.4909091,
                "end_time": 28.6772727,
                "pitch": 46,
                "velocity": 64,
                "duration": 0.1863636,
                "tempo": 120.0
            },
            {
                "start_time": 28.6954545,
                "end_time": 28.7795455,
                "pitch": 34,
                "velocity": 64,
                "duration": 0.0840909,
                "tempo": 120.0
            },
            {
                "start_time": 28.7977273,
                "end_time": 28.8840909,
                "pitch": 34,
                "velocity": 64,
                "duration": 0.0863636,
                "tempo": 120.0
            },
            {
                "start_time": 28.9,
                "end_time": 29.0818182,
                "pitch": 35,
                "velocity": 64,
                "duration": 0.1818182,
                "tempo": 120.0
            },
            {
                "start_time": 29.0977273,
                "end_time": 29.2772727,
                "pitch": 47,
                "velocity": 64,
                "duration": 0.1795455,
                "tempo": 120.0
            },
            {
                "start_time": 29.2931818,
                "end_time": 29.3772727,
                "pitch": 35,
                "velocity": 64,
                "duration": 0.0840909,
                "tempo": 120.0
            },
            {
                "start_time": 29.3954545,
                "end_time": 29.4795455,
                "pitch": 35,
                "velocity": 64,
                "duration": 0.0840909,
                "tempo": 120.0
            },
            {
                "start_time": 29.4977273,
                "end_time": 29.5840909,
                "pitch": 35,
                "velocity": 64,
                "duration": 0.0863636,
                "tempo": 120.0
            },
            {
                "start_time": 29.6,
                "end_time": 29.6863636,
                "pitch": 35,
                "velocity": 64,
                "duration": 0.0863636,
                "tempo": 120.0
            },
            {
                "start_time": 29.7022727,
                "end_time": 29.8840909,
                "pitch": 47,
                "velocity": 64,
                "duration": 0.1818182,
                "tempo": 120.0
            },
            {
                "start_time": 29.9,
                "end_time": 30.0795455,
                "pitch": 47,
                "velocity": 64,
                "duration": 0.1795455,
                "tempo": 120.0
            },
            {
                "start_time": 30.0954545,
                "end_time": 30.275,
                "pitch": 47,
                "velocity": 64,
                "duration": 0.1795455,
                "tempo": 120.0
            },
            {
                "start_time": 30.2909091,
                "end_time": 30.3727273,
                "pitch": 35,
                "velocity": 64,
                "duration": 0.0818182,
                "tempo": 120.0
            },
            {
                "start_time": 30.3909091,
                "end_time": 30.4704545,
                "pitch": 35,
                "velocity": 64,
                "duration": 0.0795455,
                "tempo": 120.0
            },
            {
                "start_time": 30.4886364,
                "end_time": 30.6795455,
                "pitch": 35,
                "velocity": 64,
                "duration": 0.1909091,
                "tempo": 120.0
            },
            {
                "start_time": 30.6977273,
                "end_time": 30.8909091,
                "pitch": 47,
                "velocity": 64,
                "duration": 0.1931818,
                "tempo": 120.0
            },
            {
                "start_time": 30.9090909,
                "end_time": 30.9931818,
                "pitch": 35,
                "velocity": 64,
                "duration": 0.0840909,
                "tempo": 120.0
            },
            {
                "start_time": 31.0090909,
                "end_time": 31.0931818,
                "pitch": 35,
                "velocity": 64,
                "duration": 0.0840909,
                "tempo": 120.0
            },
            {
                "start_time": 31.1090909,
                "end_time": 31.1931818,
                "pitch": 35,
                "velocity": 64,
                "duration": 0.0840909,
                "tempo": 120.0
            },
            {
                "start_time": 31.2090909,
                "end_time": 31.2931818,
                "pitch": 35,
                "velocity": 64,
                "duration": 0.0840909,
                "tempo": 120.0
            },
            {
                "start_time": 31.3090909,
                "end_time": 31.4909091,
                "pitch": 47,
                "velocity": 64,
                "duration": 0.1818182,
                "tempo": 120.0
            },
            {
                "start_time": 31.5068182,
                "end_time": 31.6863636,
                "pitch": 47,
                "velocity": 64,
                "duration": 0.1795455,
                "tempo": 120.0
            },
            {
                "start_time": 31.7022727,
                "end_time": 31.8886364,
                "pitch": 47,
                "velocity": 64,
                "duration": 0.1863636,
                "tempo": 120.0
            },
            {
                "start_time": 31.9068182,
                "end_time": 31.9931818,
                "pitch": 35,
                "velocity": 64,
                "duration": 0.0863636,
                "tempo": 120.0
            },
            {
                "start_time": 32.0090909,
                "end_time": 32.0954545,
                "pitch": 35,
                "velocity": 64,
                "duration": 0.0863636,
                "tempo": 120.0
            },
            {
                "start_time": 32.1113636,
                "end_time": 32.2931818,
                "pitch": 34,
                "velocity": 64,
                "duration": 0.1818182,
                "tempo": 120.0
            },
            {
                "start_time": 32.3090909,
                "end_time": 32.4886364,
                "pitch": 46,
                "velocity": 64,
                "duration": 0.1795455,
                "tempo": 120.0
            },
            {
                "start_time": 32.5045455,
                "end_time": 32.5886364,
                "pitch": 34,
                "velocity": 64,
                "duration": 0.0840909,
                "tempo": 120.0
            },
            {
                "start_time": 32.6068182,
                "end_time": 32.6931818,
                "pitch": 34,
                "velocity": 64,
                "duration": 0.0863636,
                "tempo": 120.0
            },
            {
                "start_time": 32.7090909,
                "end_time": 32.7954545,
                "pitch": 34,
                "velocity": 64,
                "duration": 0.0863636,
                "tempo": 120.0
            },
            {
                "start_time": 32.8113636,
                "end_time": 32.8977273,
                "pitch": 34,
                "velocity": 64,
                "duration": 0.0863636,
                "tempo": 120.0
            },
            {
                "start_time": 32.9159091,
                "end_time": 33.0954545,
                "pitch": 46,
                "velocity": 64,
                "duration": 0.1795455,
                "tempo": 120.0
            },
            {
                "start_time": 33.1113636,
                "end_time": 33.2909091,
                "pitch": 46,
                "velocity": 64,
                "duration": 0.1795455,
                "tempo": 120.0
            },
            {
                "start_time": 33.3068182,
                "end_time": 33.4863636,
                "pitch": 46,
                "velocity": 64,
                "duration": 0.1795455,
                "tempo": 120.0
            },
            {
                "start_time": 33.5045455,
                "end_time": 33.5863636,
                "pitch": 34,
                "velocity": 64,
                "duration": 0.0818182,
                "tempo": 120.0
            },
            {
                "start_time": 33.6022727,
                "end_time": 33.6840909,
                "pitch": 34,
                "velocity": 64,
                "duration": 0.0818182,
                "tempo": 120.0
            },
            {
                "start_time": 33.7,
                "end_time": 33.8886364,
                "pitch": 34,
                "velocity": 64,
                "duration": 0.1886364,
                "tempo": 120.0
            },
            {
                "start_time": 33.9045455,
                "end_time": 34.0931818,
                "pitch": 46,
                "velocity": 64,
                "duration": 0.1886364,
                "tempo": 120.0
            },
            {
                "start_time": 34.1113636,
                "end_time": 34.1954545,
                "pitch": 34,
                "velocity": 64,
                "duration": 0.0840909,
                "tempo": 120.0
            },
            {
                "start_time": 34.2136364,
                "end_time": 34.2977273,
                "pitch": 34,
                "velocity": 64,
                "duration": 0.0840909,
                "tempo": 120.0
            },
            {
                "start_time": 34.3159091,
                "end_time": 34.4022727,
                "pitch": 34,
                "velocity": 64,
                "duration": 0.0863636,
                "tempo": 120.0
            },
            {
                "start_time": 34.4181818,
                "end_time": 34.5045455,
                "pitch": 34,
                "velocity": 64,
                "duration": 0.0863636,
                "tempo": 120.0
            },
            {
                "start_time": 34.5204545,
                "end_time": 34.7022727,
                "pitch": 46,
                "velocity": 64,
                "duration": 0.1818182,
                "tempo": 120.0
            },
            {
                "start_time": 34.7181818,
                "end_time": 34.8977273,
                "pitch": 46,
                "velocity": 64,
                "duration": 0.1795455,
                "tempo": 120.0
            },
            {
                "start_time": 34.9136364,
                "end_time": 35.1022727,
                "pitch": 46,
                "velocity": 64,
                "duration": 0.1886364,
                "tempo": 120.0
            },
            {
                "start_time": 35.1181818,
                "end_time": 35.2045455,
                "pitch": 34,
                "velocity": 64,
                "duration": 0.0863636,
                "tempo": 120.0
            },
            {
                "start_time": 35.2204545,
                "end_time": 35.3068182,
                "pitch": 34,
                "velocity": 64,
                "duration": 0.0863636,
                "tempo": 120.0
            },
            {
                "start_time": 35.3227273,
                "end_time": 35.5045455,
                "pitch": 35,
                "velocity": 64,
                "duration": 0.1818182,
                "tempo": 120.0
            },
            {
                "start_time": 35.5204545,
                "end_time": 35.7,
                "pitch": 47,
                "velocity": 64,
                "duration": 0.1795455,
                "tempo": 120.0
            },
            {
                "start_time": 35.7159091,
                "end_time": 35.8022727,
                "pitch": 35,
                "velocity": 64,
                "duration": 0.0863636,
                "tempo": 120.0
            },
            {
                "start_time": 35.8181818,
                "end_time": 35.9045455,
                "pitch": 35,
                "velocity": 64,
                "duration": 0.0863636,
                "tempo": 120.0
            },
            {
                "start_time": 35.9204545,
                "end_time": 36.0068182,
                "pitch": 35,
                "velocity": 64,
                "duration": 0.0863636,
                "tempo": 120.0
            },
            {
                "start_time": 36.0227273,
                "end_time": 36.1090909,
                "pitch": 35,
                "velocity": 64,
                "duration": 0.0863636,
                "tempo": 120.0
            },
            {
                "start_time": 36.1272727,
                "end_time": 36.3068182,
                "pitch": 47,
                "velocity": 64,
                "duration": 0.1795455,
                "tempo": 120.0
            },
            {
                "start_time": 36.3227273,
                "end_time": 36.5022727,
                "pitch": 47,
                "velocity": 64,
                "duration": 0.1795455,
                "tempo": 120.0
            },
            {
                "start_time": 36.5181818,
                "end_time": 36.7,
                "pitch": 47,
                "velocity": 64,
                "duration": 0.1818182,
                "tempo": 120.0
            },
            {
                "start_time": 36.7159091,
                "end_time": 36.7977273,
                "pitch": 35,
                "velocity": 64,
                "duration": 0.0818182,
                "tempo": 120.0
            },
            {
                "start_time": 36.8136364,
                "end_time": 36.8954545,
                "pitch": 35,
                "velocity": 64,
                "duration": 0.0818182,
                "tempo": 120.0
            },
            {
                "start_time": 36.9113636,
                "end_time": 37.1022727,
                "pitch": 35,
                "velocity": 64,
                "duration": 0.1909091,
                "tempo": 120.0
            },
            {
                "start_time": 37.1204545,
                "end_time": 37.3136364,
                "pitch": 47,
                "velocity": 64,
                "duration": 0.1931818,
                "tempo": 120.0
            },
            {
                "start_time": 37.3318182,
                "end_time": 37.4159091,
                "pitch": 35,
                "velocity": 64,
                "duration": 0.0840909,
                "tempo": 120.0
            },
            {
                "start_time": 37.4340909,
                "end_time": 37.5159091,
                "pitch": 35,
                "velocity": 64,
                "duration": 0.0818182,
                "tempo": 120.0
            },
            {
                "start_time": 37.5340909,
                "end_time": 37.6159091,
                "pitch": 35,
                "velocity": 64,
                "duration": 0.0818182,
                "tempo": 120.0
            },
            {
                "start_time": 37.6340909,
                "end_time": 37.7159091,
                "pitch": 35,
                "velocity": 64,
                "duration": 0.0818182,
                "tempo": 120.0
            },
            {
                "start_time": 37.7340909,
                "end_time": 37.9136364,
                "pitch": 47,
                "velocity": 64,
                "duration": 0.1795455,
                "tempo": 120.0
            },
            {
                "start_time": 37.9295455,
                "end_time": 38.1090909,
                "pitch": 47,
                "velocity": 64,
                "duration": 0.1795455,
                "tempo": 120.0
            },
            {
                "start_time": 38.125,
                "end_time": 38.3136364,
                "pitch": 47,
                "velocity": 64,
                "duration": 0.1886364,
                "tempo": 120.0
            },
            {
                "start_time": 38.3295455,
                "end_time": 38.4159091,
                "pitch": 35,
                "velocity": 64,
                "duration": 0.0863636,
                "tempo": 120.0
            },
            {
                "start_time": 38.4340909,
                "end_time": 38.5181818,
                "pitch": 35,
                "velocity": 64,
                "duration": 0.0840909,
                "tempo": 120.0
            },
            {
                "start_time": 38.5363636,
                "end_time": 38.7204545,
                "pitch": 37,
                "velocity": 64,
                "duration": 0.1840909,
                "tempo": 120.0
            },
            {
                "start_time": 38.7363636,
                "end_time": 38.9204545,
                "pitch": 49,
                "velocity": 64,
                "duration": 0.1840909,
                "tempo": 120.0
            },
            {
                "start_time": 38.9363636,
                "end_time": 39.0204545,
                "pitch": 37,
                "velocity": 64,
                "duration": 0.0840909,
                "tempo": 120.0
            },
            {
                "start_time": 39.0363636,
                "end_time": 39.1204545,
                "pitch": 37,
                "velocity": 64,
                "duration": 0.0840909,
                "tempo": 120.0
            },
            {
                "start_time": 39.1386364,
                "end_time": 39.2204545,
                "pitch": 37,
                "velocity": 64,
                "duration": 0.0818182,
                "tempo": 120.0
            },
            {
                "start_time": 39.2386364,
                "end_time": 39.3227273,
                "pitch": 37,
                "velocity": 64,
                "duration": 0.0840909,
                "tempo": 120.0
            },
            {
                "start_time": 39.3386364,
                "end_time": 39.5181818,
                "pitch": 49,
                "velocity": 64,
                "duration": 0.1795455,
                "tempo": 120.0
            },
            {
                "start_time": 39.5363636,
                "end_time": 39.7159091,
                "pitch": 49,
                "velocity": 64,
                "duration": 0.1795455,
                "tempo": 120.0
            },
            {
                "start_time": 39.7318182,
                "end_time": 39.9113636,
                "pitch": 49,
                "velocity": 64,
                "duration": 0.1795455,
                "tempo": 120.0
            },
            {
                "start_time": 39.9272727,
                "end_time": 40.0090909,
                "pitch": 37,
                "velocity": 64,
                "duration": 0.0818182,
                "tempo": 120.0
            },
            {
                "start_time": 40.025,
                "end_time": 40.1068182,
                "pitch": 37,
                "velocity": 64,
                "duration": 0.0818182,
                "tempo": 120.0
            },
            {
                "start_time": 40.1227273,
                "end_time": 40.3113636,
                "pitch": 37,
                "velocity": 64,
                "duration": 0.1886364,
                "tempo": 120.0
            },
            {
                "start_time": 40.3295455,
                "end_time": 40.5159091,
                "pitch": 49,
                "velocity": 64,
                "duration": 0.1863636,
                "tempo": 120.0
            },
            {
                "start_time": 40.5340909,
                "end_time": 40.6204545,
                "pitch": 37,
                "velocity": 64,
                "duration": 0.0863636,
                "tempo": 120.0
            },
            {
                "start_time": 40.6363636,
                "end_time": 40.7227273,
                "pitch": 37,
                "velocity": 64,
                "duration": 0.0863636,
                "tempo": 120.0
            },
            {
                "start_time": 40.7386364,
                "end_time": 40.825,
                "pitch": 37,
                "velocity": 64,
                "duration": 0.0863636,
                "tempo": 120.0
            },
            {
                "start_time": 40.8431818,
                "end_time": 40.9272727,
                "pitch": 37,
                "velocity": 64,
                "duration": 0.0840909,
                "tempo": 120.0
            },
            {
                "start_time": 40.9454545,
                "end_time": 41.125,
                "pitch": 49,
                "velocity": 64,
                "duration": 0.1795455,
                "tempo": 120.0
            },
            {
                "start_time": 41.1409091,
                "end_time": 41.3204545,
                "pitch": 49,
                "velocity": 64,
                "duration": 0.1795455,
                "tempo": 120.0
            },
            {
                "start_time": 41.3386364,
                "end_time": 41.5227273,
                "pitch": 49,
                "velocity": 64,
                "duration": 0.1840909,
                "tempo": 120.0
            },
            {
                "start_time": 41.5386364,
                "end_time": 41.6227273,
                "pitch": 37,
                "velocity": 64,
                "duration": 0.0840909,
                "tempo": 120.0
            },
            {
                "start_time": 41.6386364,
                "end_time": 41.7227273,
                "pitch": 37,
                "velocity": 64,
                "duration": 0.0840909,
                "tempo": 120.0
            },
            {
                "start_time": 41.7409091,
                "end_time": 41.9227273,
                "pitch": 39,
                "velocity": 64,
                "duration": 0.1818182,
                "tempo": 120.0
            },
            {
                "start_time": 41.9409091,
                "end_time": 42.1227273,
                "pitch": 51,
                "velocity": 64,
                "duration": 0.1818182,
                "tempo": 120.0
            },
            {
                "start_time": 42.1409091,
                "end_time": 42.225,
                "pitch": 39,
                "velocity": 64,
                "duration": 0.0840909,
                "tempo": 120.0
            },
            {
                "start_time": 42.2431818,
                "end_time": 42.3272727,
                "pitch": 39,
                "velocity": 64,
                "duration": 0.0840909,
                "tempo": 120.0
            },
            {
                "start_time": 42.3454545,
                "end_time": 42.4295455,
                "pitch": 39,
                "velocity": 64,
                "duration": 0.0840909,
                "tempo": 120.0
            },
            {
                "start_time": 42.4477273,
                "end_time": 42.5340909,
                "pitch": 39,
                "velocity": 64,
                "duration": 0.0863636,
                "tempo": 120.0
            },
            {
                "start_time": 42.55,
                "end_time": 42.7318182,
                "pitch": 51,
                "velocity": 64,
                "duration": 0.1818182,
                "tempo": 120.0
            },
            {
                "start_time": 42.7477273,
                "end_time": 42.9272727,
                "pitch": 51,
                "velocity": 64,
                "duration": 0.1795455,
                "tempo": 120.0
            },
            {
                "start_time": 42.9431818,
                "end_time": 43.1227273,
                "pitch": 51,
                "velocity": 64,
                "duration": 0.1795455,
                "tempo": 120.0
            },
            {
                "start_time": 43.1386364,
                "end_time": 43.2204545,
                "pitch": 39,
                "velocity": 64,
                "duration": 0.0818182,
                "tempo": 120.0
            },
            {
                "start_time": 43.2363636,
                "end_time": 43.3181818,
                "pitch": 39,
                "velocity": 64,
                "duration": 0.0818182,
                "tempo": 120.0
            },
            {
                "start_time": 43.3363636,
                "end_time": 43.5227273,
                "pitch": 39,
                "velocity": 64,
                "duration": 0.1863636,
                "tempo": 120.0
            },
            {
                "start_time": 43.5409091,
                "end_time": 43.7295455,
                "pitch": 51,
                "velocity": 64,
                "duration": 0.1886364,
                "tempo": 120.0
            },
            {
                "start_time": 43.7454545,
                "end_time": 43.8318182,
                "pitch": 39,
                "velocity": 64,
                "duration": 0.0863636,
                "tempo": 120.0
            },
            {
                "start_time": 43.8477273,
                "end_time": 43.9340909,
                "pitch": 39,
                "velocity": 64,
                "duration": 0.0863636,
                "tempo": 120.0
            },
            {
                "start_time": 43.9522727,
                "end_time": 44.0363636,
                "pitch": 39,
                "velocity": 64,
                "duration": 0.0840909,
                "tempo": 120.0
            },
            {
                "start_time": 44.0545455,
                "end_time": 44.1386364,
                "pitch": 39,
                "velocity": 64,
                "duration": 0.0840909,
                "tempo": 120.0
            },
            {
                "start_time": 44.1568182,
                "end_time": 44.3363636,
                "pitch": 51,
                "velocity": 64,
                "duration": 0.1795455,
                "tempo": 120.0
            },
            {
                "start_time": 44.3522727,
                "end_time": 44.5340909,
                "pitch": 51,
                "velocity": 64,
                "duration": 0.1818182,
                "tempo": 120.0
            },
            {
                "start_time": 44.55,
                "end_time": 44.7318182,
                "pitch": 51,
                "velocity": 64,
                "duration": 0.1818182,
                "tempo": 120.0
            },
            {
                "start_time": 44.75,
                "end_time": 44.8318182,
                "pitch": 39,
                "velocity": 64,
                "duration": 0.0818182,
                "tempo": 120.0
            },
            {
                "start_time": 44.85,
                "end_time": 44.9318182,
                "pitch": 39,
                "velocity": 64,
                "duration": 0.0818182,
                "tempo": 120.0
            },
            {
                "start_time": 44.95,
                "end_time": 45.1363636,
                "pitch": 37,
                "velocity": 64,
                "duration": 0.1863636,
                "tempo": 120.0
            },
            {
                "start_time": 45.1545455,
                "end_time": 45.3431818,
                "pitch": 49,
                "velocity": 64,
                "duration": 0.1886364,
                "tempo": 120.0
            },
            {
                "start_time": 45.3590909,
                "end_time": 45.4431818,
                "pitch": 37,
                "velocity": 64,
                "duration": 0.0840909,
                "tempo": 120.0
            },
            {
                "start_time": 45.4590909,
                "end_time": 45.5431818,
                "pitch": 37,
                "velocity": 64,
                "duration": 0.0840909,
                "tempo": 120.0
            },
            {
                "start_time": 45.5590909,
                "end_time": 45.6431818,
                "pitch": 37,
                "velocity": 64,
                "duration": 0.0840909,
                "tempo": 120.0
            },
            {
                "start_time": 45.6590909,
                "end_time": 45.7431818,
                "pitch": 37,
                "velocity": 64,
                "duration": 0.0840909,
                "tempo": 120.0
            },
            {
                "start_time": 45.7590909,
                "end_time": 45.9409091,
                "pitch": 49,
                "velocity": 64,
                "duration": 0.1818182,
                "tempo": 120.0
            },
            {
                "start_time": 45.9568182,
                "end_time": 46.1363636,
                "pitch": 49,
                "velocity": 64,
                "duration": 0.1795455,
                "tempo": 120.0
            },
            {
                "start_time": 46.1522727,
                "end_time": 46.3318182,
                "pitch": 49,
                "velocity": 64,
                "duration": 0.1795455,
                "tempo": 120.0
            },
            {
                "start_time": 46.3477273,
                "end_time": 46.4295455,
                "pitch": 37,
                "velocity": 64,
                "duration": 0.0818182,
                "tempo": 120.0
            },
            {
                "start_time": 46.4477273,
                "end_time": 46.5272727,
                "pitch": 37,
                "velocity": 64,
                "duration": 0.0795455,
                "tempo": 120.0
            },
            {
                "start_time": 46.5454545,
                "end_time": 46.7318182,
                "pitch": 37,
                "velocity": 64,
                "duration": 0.1863636,
                "tempo": 120.0
            },
            {
                "start_time": 46.75,
                "end_time": 46.9386364,
                "pitch": 49,
                "velocity": 64,
                "duration": 0.1886364,
                "tempo": 120.0
            },
            {
                "start_time": 46.9545455,
                "end_time": 47.0409091,
                "pitch": 37,
                "velocity": 64,
                "duration": 0.0863636,
                "tempo": 120.0
            },
            {
                "start_time": 47.0568182,
                "end_time": 47.1431818,
                "pitch": 37,
                "velocity": 64,
                "duration": 0.0863636,
                "tempo": 120.0
            },
            {
                "start_time": 47.1613636,
                "end_time": 47.2454545,
                "pitch": 37,
                "velocity": 64,
                "duration": 0.0840909,
                "tempo": 120.0
            },
            {
                "start_time": 47.2636364,
                "end_time": 47.35,
                "pitch": 37,
                "velocity": 64,
                "duration": 0.0863636,
                "tempo": 120.0
            },
            {
                "start_time": 47.3659091,
                "end_time": 47.5454545,
                "pitch": 49,
                "velocity": 64,
                "duration": 0.1795455,
                "tempo": 120.0
            },
            {
                "start_time": 47.5636364,
                "end_time": 47.7431818,
                "pitch": 49,
                "velocity": 64,
                "duration": 0.1795455,
                "tempo": 120.0
            },
            {
                "start_time": 47.7590909,
                "end_time": 47.9409091,
                "pitch": 49,
                "velocity": 64,
                "duration": 0.1818182,
                "tempo": 120.0
            },
            {
                "start_time": 47.9590909,
                "end_time": 48.0409091,
                "pitch": 37,
                "velocity": 64,
                "duration": 0.0818182,
                "tempo": 120.0
            },
            {
                "start_time": 48.0590909,
                "end_time": 48.1409091,
                "pitch": 37,
                "velocity": 64,
                "duration": 0.0818182,
                "tempo": 120.0
            },
            {
                "start_time": 48.1590909,
                "end_time": 48.3409091,
                "pitch": 39,
                "velocity": 64,
                "duration": 0.1818182,
                "tempo": 120.0
            },
            {
                "start_time": 48.3590909,
                "end_time": 48.5409091,
                "pitch": 51,
                "velocity": 64,
                "duration": 0.1818182,
                "tempo": 120.0
            },
            {
                "start_time": 48.5590909,
                "end_time": 48.6431818,
                "pitch": 39,
                "velocity": 64,
                "duration": 0.0840909,
                "tempo": 120.0
            },
            {
                "start_time": 48.6613636,
                "end_time": 48.7454545,
                "pitch": 39,
                "velocity": 64,
                "duration": 0.0840909,
                "tempo": 120.0
            },
            {
                "start_time": 48.7636364,
                "end_time": 48.85,
                "pitch": 39,
                "velocity": 64,
                "duration": 0.0863636,
                "tempo": 120.0
            },
            {
                "start_time": 48.8659091,
                "end_time": 48.9522727,
                "pitch": 39,
                "velocity": 64,
                "duration": 0.0863636,
                "tempo": 120.0
            },
            {
                "start_time": 48.9681818,
                "end_time": 49.15,
                "pitch": 51,
                "velocity": 64,
                "duration": 0.1818182,
                "tempo": 120.0
            },
            {
                "start_time": 49.1659091,
                "end_time": 49.3454545,
                "pitch": 51,
                "velocity": 64,
                "duration": 0.1795455,
                "tempo": 120.0
            },
            {
                "start_time": 49.3613636,
                "end_time": 49.5409091,
                "pitch": 51,
                "velocity": 64,
                "duration": 0.1795455,
                "tempo": 120.0
            },
            {
                "start_time": 49.5568182,
                "end_time": 49.6386364,
                "pitch": 39,
                "velocity": 64,
                "duration": 0.0818182,
                "tempo": 120.0
            },
            {
                "start_time": 49.6568182,
                "end_time": 49.7363636,
                "pitch": 39,
                "velocity": 64,
                "duration": 0.0795455,
                "tempo": 120.0
            },
            {
                "start_time": 49.7545455,
                "end_time": 49.9409091,
                "pitch": 39,
                "velocity": 64,
                "duration": 0.1863636,
                "tempo": 120.0
            },
            {
                "start_time": 49.9590909,
                "end_time": 50.1477273,
                "pitch": 51,
                "velocity": 64,
                "duration": 0.1886364,
                "tempo": 120.0
            },
            {
                "start_time": 50.1636364,
                "end_time": 50.25,
                "pitch": 39,
                "velocity": 64,
                "duration": 0.0863636,
                "tempo": 120.0
            },
            {
                "start_time": 50.2659091,
                "end_time": 50.3522727,
                "pitch": 39,
                "velocity": 64,
                "duration": 0.0863636,
                "tempo": 120.0
            },
            {
                "start_time": 50.3704545,
                "end_time": 50.4545455,
                "pitch": 39,
                "velocity": 64,
                "duration": 0.0840909,
                "tempo": 120.0
            },
            {
                "start_time": 50.4727273,
                "end_time": 50.5590909,
                "pitch": 39,
                "velocity": 64,
                "duration": 0.0863636,
                "tempo": 120.0
            },
            {
                "start_time": 50.575,
                "end_time": 50.7545455,
                "pitch": 51,
                "velocity": 64,
                "duration": 0.1795455,
                "tempo": 120.0
            },
            {
                "start_time": 50.7727273,
                "end_time": 50.9522727,
                "pitch": 51,
                "velocity": 64,
                "duration": 0.1795455,
                "tempo": 120.0
            },
            {
                "start_time": 50.9681818,
                "end_time": 51.15,
                "pitch": 51,
                "velocity": 64,
                "duration": 0.1818182,
                "tempo": 120.0
            },
            {
                "start_time": 51.1681818,
                "end_time": 51.25,
                "pitch": 39,
                "velocity": 64,
                "duration": 0.0818182,
                "tempo": 120.0
            },
            {
                "start_time": 51.2681818,
                "end_time": 51.35,
                "pitch": 39,
                "velocity": 64,
                "duration": 0.0818182,
                "tempo": 120.0
            },
            {
                "start_time": 51.3681818,
                "end_time": 51.5522727,
                "pitch": 35,
                "velocity": 64,
                "duration": 0.1840909,
                "tempo": 120.0
            },
            {
                "start_time": 51.5681818,
                "end_time": 51.7545455,
                "pitch": 47,
                "velocity": 64,
                "duration": 0.1863636,
                "tempo": 120.0
            },
            {
                "start_time": 51.7704545,
                "end_time": 51.8545455,
                "pitch": 35,
                "velocity": 64,
                "duration": 0.0840909,
                "tempo": 120.0
            },
            {
                "start_time": 51.8727273,
                "end_time": 51.9590909,
                "pitch": 35,
                "velocity": 64,
                "duration": 0.0863636,
                "tempo": 120.0
            },
            {
                "start_time": 51.975,
                "end_time": 52.0613636,
                "pitch": 35,
                "velocity": 64,
                "duration": 0.0863636,
                "tempo": 120.0
            },
            {
                "start_time": 52.0772727,
                "end_time": 52.1636364,
                "pitch": 35,
                "velocity": 64,
                "duration": 0.0863636,
                "tempo": 120.0
            },
            {
                "start_time": 52.1818182,
                "end_time": 52.3613636,
                "pitch": 47,
                "velocity": 64,
                "duration": 0.1795455,
                "tempo": 120.0
            },
            {
                "start_time": 52.3772727,
                "end_time": 52.5568182,
                "pitch": 47,
                "velocity": 64,
                "duration": 0.1795455,
                "tempo": 120.0
            },
            {
                "start_time": 52.5727273,
                "end_time": 52.7522727,
                "pitch": 47,
                "velocity": 64,
                "duration": 0.1795455,
                "tempo": 120.0
            },
            {
                "start_time": 52.7704545,
                "end_time": 52.8522727,
                "pitch": 35,
                "velocity": 64,
                "duration": 0.0818182,
                "tempo": 120.0
            },
            {
                "start_time": 52.8681818,
                "end_time": 52.95,
                "pitch": 35,
                "velocity": 64,
                "duration": 0.0818182,
                "tempo": 120.0
            },
            {
                "start_time": 52.9659091,
                "end_time": 53.15,
                "pitch": 35,
                "velocity": 64,
                "duration": 0.1840909,
                "tempo": 120.0
            },
            {
                "start_time": 53.1659091,
                "end_time": 53.35,
                "pitch": 47,
                "velocity": 64,
                "duration": 0.1840909,
                "tempo": 120.0
            },
            {
                "start_time": 53.3659091,
                "end_time": 53.45,
                "pitch": 35,
                "velocity": 64,
                "duration": 0.0840909,
                "tempo": 120.0
            },
            {
                "start_time": 53.4659091,
                "end_time": 53.55,
                "pitch": 35,
                "velocity": 64,
                "duration": 0.0840909,
                "tempo": 120.0
            },
            {
                "start_time": 53.5659091,
                "end_time": 53.65,
                "pitch": 35,
                "velocity": 64,
                "duration": 0.0840909,
                "tempo": 120.0
            },
            {
                "start_time": 53.6659091,
                "end_time": 53.75,
                "pitch": 35,
                "velocity": 64,
                "duration": 0.0840909,
                "tempo": 120.0
            },
            {
                "start_time": 53.7659091,
                "end_time": 53.95,
                "pitch": 47,
                "velocity": 64,
                "duration": 0.1840909,
                "tempo": 120.0
            },
            {
                "start_time": 53.9659091,
                "end_time": 54.1522727,
                "pitch": 47,
                "velocity": 64,
                "duration": 0.1863636,
                "tempo": 120.0
            }
        ],
        "Lead 2 (sawtooth)": [
            {
                "start_time": 0.1522727,
                "end_time": 2.7545455,
                "pitch": 83,
                "velocity": 51,
                "duration": 2.6022727,
                "tempo": 120.0
            },
            {
                "start_time": 2.7545455,
                "end_time": 2.9227273,
                "pitch": 83,
                "velocity": 51,
                "duration": 0.1681818,
                "tempo": 120.0
            },
            {
                "start_time": 2.9409091,
                "end_time": 3.1295455,
                "pitch": 88,
                "velocity": 51,
                "duration": 0.1886364,
                "tempo": 120.0
            },
            {
                "start_time": 3.1454545,
                "end_time": 3.3318182,
                "pitch": 90,
                "velocity": 51,
                "duration": 0.1863636,
                "tempo": 120.0
            },
            {
                "start_time": 3.3477273,
                "end_time": 6.1340909,
                "pitch": 87,
                "velocity": 51,
                "duration": 2.7863636,
                "tempo": 120.0
            },
            {
                "start_time": 6.1522727,
                "end_time": 6.3409091,
                "pitch": 90,
                "velocity": 51,
                "duration": 0.1886364,
                "tempo": 120.0
            },
            {
                "start_time": 6.3568182,
                "end_time": 6.5431818,
                "pitch": 88,
                "velocity": 51,
                "duration": 0.1863636,
                "tempo": 120.0
            },
            {
                "start_time": 6.5590909,
                "end_time": 9.3477273,
                "pitch": 85,
                "velocity": 51,
                "duration": 2.7886364,
                "tempo": 120.0
            },
            {
                "start_time": 9.3659091,
                "end_time": 9.5545455,
                "pitch": 88,
                "velocity": 51,
                "duration": 0.1886364,
                "tempo": 120.0
            },
            {
                "start_time": 9.5704545,
                "end_time": 9.7568182,
                "pitch": 90,
                "velocity": 51,
                "duration": 0.1863636,
                "tempo": 120.0
            },
            {
                "start_time": 9.7727273,
                "end_time": 12.9704545,
                "pitch": 83,
                "velocity": 51,
                "duration": 3.1977273,
                "tempo": 120.0
            },
            {
                "start_time": 12.9886364,
                "end_time": 14.775,
                "pitch": 83,
                "velocity": 51,
                "duration": 1.7863636,
                "tempo": 120.0
            },
            {
                "start_time": 14.7931818,
                "end_time": 14.9840909,
                "pitch": 83,
                "velocity": 51,
                "duration": 0.1909091,
                "tempo": 120.0
            },
            {
                "start_time": 15.0,
                "end_time": 15.3954545,
                "pitch": 83,
                "velocity": 51,
                "duration": 0.3954545,
                "tempo": 120.0
            },
            {
                "start_time": 15.4113636,
                "end_time": 15.5909091,
                "pitch": 83,
                "velocity": 51,
                "duration": 0.1795455,
                "tempo": 120.0
            },
            {
                "start_time": 15.6068182,
                "end_time": 15.9931818,
                "pitch": 83,
                "velocity": 51,
                "duration": 0.3863636,
                "tempo": 120.0
            },
            {
                "start_time": 16.0090909,
                "end_time": 16.1931818,
                "pitch": 83,
                "velocity": 51,
                "duration": 0.1840909,
                "tempo": 120.0
            },
            {
                "start_time": 16.2113636,
                "end_time": 17.7954545,
                "pitch": 82,
                "velocity": 51,
                "duration": 1.5840909,
                "tempo": 120.0
            },
            {
                "start_time": 17.8113636,
                "end_time": 18.4113636,
                "pitch": 80,
                "velocity": 51,
                "duration": 0.6,
                "tempo": 120.0
            },
            {
                "start_time": 18.4454545,
                "end_time": 18.8068182,
                "pitch": 78,
                "velocity": 51,
                "duration": 0.3613636,
                "tempo": 120.0
            },
            {
                "start_time": 18.8386364,
                "end_time": 19.0068182,
                "pitch": 80,
                "velocity": 51,
                "duration": 0.1681818,
                "tempo": 120.0
            },
            {
                "start_time": 19.0386364,
                "end_time": 19.4068182,
                "pitch": 82,
                "velocity": 51,
                "duration": 0.3681818,
                "tempo": 120.0
            },
            {
                "start_time": 19.425,
                "end_time": 21.0068182,
                "pitch": 83,
                "velocity": 51,
                "duration": 1.5818182,
                "tempo": 120.0
            },
            {
                "start_time": 21.0227273,
                "end_time": 22.0181818,
                "pitch": 82,
                "velocity": 51,
                "duration": 0.9954545,
                "tempo": 120.0
            },
            {
                "start_time": 22.0340909,
                "end_time": 22.2159091,
                "pitch": 78,
                "velocity": 51,
                "duration": 0.1818182,
                "tempo": 120.0
            },
            {
                "start_time": 22.25,
                "end_time": 22.4159091,
                "pitch": 80,
                "velocity": 51,
                "duration": 0.1659091,
                "tempo": 120.0
            },
            {
                "start_time": 22.4340909,
                "end_time": 22.6159091,
                "pitch": 82,
                "velocity": 51,
                "duration": 0.1818182,
                "tempo": 120.0
            },
            {
                "start_time": 22.6340909,
                "end_time": 23.225,
                "pitch": 85,
                "velocity": 51,
                "duration": 0.5909091,
                "tempo": 120.0
            },
            {
                "start_time": 23.2431818,
                "end_time": 24.2272727,
                "pitch": 83,
                "velocity": 51,
                "duration": 0.9840909,
                "tempo": 120.0
            },
            {
                "start_time": 24.2431818,
                "end_time": 25.8204545,
                "pitch": 83,
                "velocity": 51,
                "duration": 1.5772727,
                "tempo": 120.0
            },
            {
                "start_time": 25.8386364,
                "end_time": 27.425,
                "pitch": 82,
                "velocity": 51,
                "duration": 1.5863636,
                "tempo": 120.0
            },
            {
                "start_time": 27.4409091,
                "end_time": 28.0454545,
                "pitch": 80,
                "velocity": 51,
                "duration": 0.6045455,
                "tempo": 120.0
            },
            {
                "start_time": 28.0613636,
                "end_time": 28.4409091,
                "pitch": 80,
                "velocity": 51,
                "duration": 0.3795455,
                "tempo": 120.0
            },
            {
                "start_time": 28.475,
                "end_time": 29.0477273,
                "pitch": 85,
                "velocity": 51,
                "duration": 0.5727273,
                "tempo": 120.0
            },
            {
                "start_time": 29.0636364,
                "end_time": 30.6454545,
                "pitch": 83,
                "velocity": 51,
                "duration": 1.5818182,
                "tempo": 120.0
            },
            {
                "start_time": 31.2931818,
                "end_time": 31.6522727,
                "pitch": 87,
                "velocity": 51,
                "duration": 0.3590909,
                "tempo": 120.0
            },
            {
                "start_time": 31.6863636,
                "end_time": 32.2590909,
                "pitch": 83,
                "velocity": 51,
                "duration": 0.5727273,
                "tempo": 120.0
            },
            {
                "start_time": 32.2772727,
                "end_time": 33.8522727,
                "pitch": 82,
                "velocity": 51,
                "duration": 1.575,
                "tempo": 120.0
            },
            {
                "start_time": 33.8704545,
                "end_time": 34.4704545,
                "pitch": 80,
                "velocity": 51,
                "duration": 0.6,
                "tempo": 120.0
            },
            {
                "start_time": 34.5045455,
                "end_time": 34.8659091,
                "pitch": 82,
                "velocity": 51,
                "duration": 0.3613636,
                "tempo": 120.0
            },
            {
                "start_time": 34.8977273,
                "end_time": 35.4704545,
                "pitch": 85,
                "velocity": 51,
                "duration": 0.5727273,
                "tempo": 120.0
            },
            {
                "start_time": 35.4886364,
                "end_time": 37.0681818,
                "pitch": 83,
                "velocity": 51,
                "duration": 1.5795455,
                "tempo": 120.0
            },
            {
                "start_time": 37.7159091,
                "end_time": 38.0772727,
                "pitch": 87,
                "velocity": 51,
                "duration": 0.3613636,
                "tempo": 120.0
            },
            {
                "start_time": 38.1090909,
                "end_time": 38.6863636,
                "pitch": 83,
                "velocity": 51,
                "duration": 0.5772727,
                "tempo": 120.0
            },
            {
                "start_time": 38.7204545,
                "end_time": 40.2772727,
                "pitch": 85,
                "velocity": 51,
                "duration": 1.5568182,
                "tempo": 120.0
            },
            {
                "start_time": 40.2931818,
                "end_time": 40.8931818,
                "pitch": 82,
                "velocity": 51,
                "duration": 0.6,
                "tempo": 120.0
            },
            {
                "start_time": 40.9272727,
                "end_time": 41.2886364,
                "pitch": 85,
                "velocity": 51,
                "duration": 0.3613636,
                "tempo": 120.0
            },
            {
                "start_time": 41.3204545,
                "end_time": 41.8909091,
                "pitch": 92,
                "velocity": 51,
                "duration": 0.5704545,
                "tempo": 120.0
            },
            {
                "start_time": 41.9227273,
                "end_time": 43.0909091,
                "pitch": 87,
                "velocity": 51,
                "duration": 1.1681818,
                "tempo": 120.0
            },
            {
                "start_time": 43.1068182,
                "end_time": 43.2863636,
                "pitch": 90,
                "velocity": 51,
                "duration": 0.1795455,
                "tempo": 120.0
            },
            {
                "start_time": 43.3181818,
                "end_time": 43.6954545,
                "pitch": 94,
                "velocity": 51,
                "duration": 0.3772727,
                "tempo": 120.0
            },
            {
                "start_time": 43.7295455,
                "end_time": 43.9,
                "pitch": 92,
                "velocity": 51,
                "duration": 0.1704545,
                "tempo": 120.0
            },
            {
                "start_time": 43.9340909,
                "end_time": 44.1045455,
                "pitch": 90,
                "velocity": 51,
                "duration": 0.1704545,
                "tempo": 120.0
            },
            {
                "start_time": 44.1386364,
                "end_time": 44.5,
                "pitch": 94,
                "velocity": 51,
                "duration": 0.3613636,
                "tempo": 120.0
            },
            {
                "start_time": 44.5340909,
                "end_time": 44.7,
                "pitch": 92,
                "velocity": 51,
                "duration": 0.1659091,
                "tempo": 120.0
            },
            {
                "start_time": 44.7318182,
                "end_time": 45.1022727,
                "pitch": 90,
                "velocity": 51,
                "duration": 0.3704545,
                "tempo": 120.0
            },
            {
                "start_time": 45.1363636,
                "end_time": 46.6977273,
                "pitch": 85,
                "velocity": 51,
                "duration": 1.5613636,
                "tempo": 120.0
            },
            {
                "start_time": 46.7159091,
                "end_time": 47.3136364,
                "pitch": 82,
                "velocity": 51,
                "duration": 0.5977273,
                "tempo": 120.0
            },
            {
                "start_time": 47.35,
                "end_time": 47.7090909,
                "pitch": 85,
                "velocity": 51,
                "duration": 0.3590909,
                "tempo": 120.0
            },
            {
                "start_time": 47.7431818,
                "end_time": 48.3090909,
                "pitch": 92,
                "velocity": 51,
                "duration": 0.5659091,
                "tempo": 120.0
            },
            {
                "start_time": 48.3409091,
                "end_time": 49.5090909,
                "pitch": 87,
                "velocity": 51,
                "duration": 1.1681818,
                "tempo": 120.0
            },
            {
                "start_time": 49.525,
                "end_time": 49.7045455,
                "pitch": 90,
                "velocity": 51,
                "duration": 0.1795455,
                "tempo": 120.0
            },
            {
                "start_time": 49.7363636,
                "end_time": 50.1136364,
                "pitch": 94,
                "velocity": 51,
                "duration": 0.3772727,
                "tempo": 120.0
            },
            {
                "start_time": 50.1477273,
                "end_time": 50.3181818,
                "pitch": 92,
                "velocity": 51,
                "duration": 0.1704545,
                "tempo": 120.0
            },
            {
                "start_time": 50.3522727,
                "end_time": 50.5227273,
                "pitch": 90,
                "velocity": 51,
                "duration": 0.1704545,
                "tempo": 120.0
            },
            {
                "start_time": 50.5590909,
                "end_time": 50.9181818,
                "pitch": 94,
                "velocity": 51,
                "duration": 0.3590909,
                "tempo": 120.0
            },
            {
                "start_time": 50.9522727,
                "end_time": 51.1181818,
                "pitch": 92,
                "velocity": 51,
                "duration": 0.1659091,
                "tempo": 120.0
            },
            {
                "start_time": 51.15,
                "end_time": 51.5181818,
                "pitch": 90,
                "velocity": 51,
                "duration": 0.3681818,
                "tempo": 120.0
            },
            {
                "start_time": 51.5522727,
                "end_time": 54.1522727,
                "pitch": 83,
                "velocity": 51,
                "duration": 2.6,
                "tempo": 120.0
            }
        ]
    }
}