{
    "mood": "angry",
    "instruments": {
        "Acoustic Bass": [
            {
                "start_time": 0.0409091,
                "end_time": 0.4204545,
                "pitch": 33,
                "velocity": 80,
                "duration": 0.3795455,
                "tempo": 120.0
            },
            {
                "start_time": 0.4204545,
                "end_time": 0.6204545,
                "pitch": 33,
                "velocity": 80,
                "duration": 0.2,
                "tempo": 120.0
            },
            {
                "start_time": 0.6204545,
                "end_time": 0.8204545,
                "pitch": 33,
                "velocity": 80,
                "duration": 0.2,
                "tempo": 120.0
            },
            {
                "start_time": 0.8227273,
                "end_time": 1.0204545,
                "pitch": 33,
                "velocity": 80,
                "duration": 0.1977273,
                "tempo": 120.0
            },
            {
                "start_time": 1.0227273,
                "end_time": 1.2204545,
                "pitch": 33,
                "velocity": 80,
                "duration": 0.1977273,
                "tempo": 120.0
            },
            {
                "start_time": 1.2227273,
                "end_time": 1.4227273,
                "pitch": 33,
                "velocity": 80,
                "duration": 0.2,
                "tempo": 120.0
            },
            {
                "start_time": 1.4227273,
                "end_time": 1.8227273,
                "pitch": 33,
                "velocity": 80,
                "duration": 0.4,
                "tempo": 120.0
            },
            {
                "start_time": 1.8227273,
                "end_time": 2.0227273,
                "pitch": 33,
                "velocity": 80,
                "duration": 0.2,
                "tempo": 120.0
            },
            {
                "start_time": 2.0227273,
                "end_time": 2.2272727,
                "pitch": 33,
                "velocity": 80,
                "duration": 0.2045455,
                "tempo": 120.0
            },
            {
                "start_time": 2.2295455,
                "end_time": 2.6295455,
                "pitch": 33,
                "velocity": 80,
                "duration": 0.4,
                "tempo": 120.0
            },
            {
                "start_time": 2.6318182,
                "end_time": 2.8272727,
                "pitch": 33,
                "velocity": 80,
                "duration": 0.1954545,
                "tempo": 120.0
            },
            {
                "start_time": 2.8272727,
                "end_time": 3.0318182,
                "pitch": 36,
                "velocity": 80,
                "duration": 0.2045455,
                "tempo": 120.0
            },
            {
                "start_time": 3.0318182,
                "end_time": 3.2363636,
                "pitch": 40,
                "velocity": 80,
                "duration": 0.2045455,
                "tempo": 120.0
            },
            {
                "start_time": 3.2386364,
                "end_time": 3.4386364,
                "pitch": 33,
                "velocity": 80,
                "duration": 0.2,
                "tempo": 120.0
            },
            {
                "start_time": 3.4409091,
                "end_time": 3.6409091,
                "pitch": 33,
                "velocity": 80,
                "duration": 0.2,
                "tempo": 120.0
            },
            {
                "start_time": 3.6409091,
                "end_time": 3.8409091,
                "pitch": 33,
                "velocity": 80,
                "duration": 0.2,
                "tempo": 120.0
            },
            {
                "start_time": 3.8431818,
                "end_time": 4.0409091,
                "pitch": 33,
                "velocity": 80,
                "duration": 0.1977273,
                "tempo": 120.0
            },
            {
                "start_time": 4.0431818,
                "end_time": 4.2409091,
                "pitch": 33,
                "velocity": 80,
                "duration": 0.1977273,
                "tempo": 120.0
            },
            {
                "start_time": 4.2431818,
                "end_time": 4.4409091,
                "pitch": 33,
                "velocity": 80,
                "duration": 0.1977273,
                "tempo": 120.0
            },
            {
                "start_time": 4.4431818,
                "end_time": 4.8454545,
                "pitch": 33,
                "velocity": 80,
                "duration": 0.4022727,
                "tempo": 120.0
            },
            {
                "start_time": 4.8454545,
                "end_time": 5.0454545,
                "pitch": 33,
                "velocity": 80,
                "duration": 0.2,
                "tempo": 120.0
            },
            {
                "start_time": 5.0454545,
                "end_time": 5.2454545,
                "pitch": 33,
                "velocity": 80,
                "duration": 0.2,
                "tempo": 120.0
            },
            {
                "start_time": 5.2454545,
                "end_time": 5.4477273,
                "pitch": 33,
                "velocity": 80,
                "duration": 0.2022727,
                "tempo": 120.0
            },
            {
                "start_time": 5.4477273,
                "end_time": 5.85,
                "pitch": 33,
                "velocity": 80,
                "duration": 0.4022727,
                "tempo": 120.0
            },
            {
                "start_time": 5.85,
                "end_time": 6.05,
                "pitch": 33,
                "velocity": 80,
                "duration": 0.2,
                "tempo": 120.0
            },
            {
                "start_time": 6.05,
                "end_time": 6.25,
                "pitch": 36,
                "velocity": 80,
                "duration": 0.2,
                "tempo": 120.0
            },
            {
                "start_time": 6.2522727,
                "end_time": 6.4522727,
                "pitch": 40,
                "velocity": 80,
                "duration": 0.2,
                "tempo": 120.0
            },
            {
                "start_time": 6.4522727,
                "end_time": 6.6545455,
                "pitch": 29,
                "velocity": 80,
                "duration": 0.2022727,
                "tempo": 120.0
            },
            {
                "start_time": 6.6545455,
                "end_time": 6.8545455,
                "pitch": 29,
                "velocity": 80,
                "duration": 0.2,
                "tempo": 120.0
            },
            {
                "start_time": 6.8568182,
                "end_time": 7.0568182,
                "pitch": 29,
                "velocity": 80,
                "duration": 0.2,
                "tempo": 120.0
            },
            {
                "start_time": 7.0568182,
                "end_time": 7.2568182,
                "pitch": 29,
                "velocity": 80,
                "duration": 0.2,
                "tempo": 120.0
            },
            {
                "start_time": 7.2568182,
                "end_time": 7.4568182,
                "pitch": 29,
                "velocity": 80,
                "duration": 0.2,
                "tempo": 120.0
            },
            {
                "start_time": 7.4590909,
                "end_time": 7.6590909,
                "pitch": 29,
                "velocity": 80,
                "duration": 0.2,
                "tempo": 120.0
            },
            {
                "start_time": 7.6590909,
                "end_time": 7.8590909,
                "pitch": 33,
                "velocity": 80,
                "duration": 0.2,
                "tempo": 120.0
            },
            {
                "start_time": 7.8613636,
                "end_time": 8.2590909,
                "pitch": 31,
                "velocity": 80,
                "duration": 0.3977273,
                "tempo": 120.0
            },
            {
                "start_time": 8.2613636,
                "end_time": 8.4613636,
                "pitch": 31,
                "velocity": 80,
                "duration": 0.2,
                "tempo": 120.0
            },
            {
                "start_time": 8.4613636,
                "end_time": 8.6613636,
                "pitch": 31,
                "velocity": 80,
                "duration": 0.2,
                "tempo": 120.0
            },
            {
                "start_time": 8.6636364,
                "end_time": 8.8636364,
                "pitch": 31,
                "velocity": 80,
                "duration": 0.2,
                "tempo": 120.0
            },
            {
                "start_time": 8.8636364,
                "end_time": 9.0659091,
                "pitch": 31,
                "velocity": 80,
                "duration": 0.2022727,
                "tempo": 120.0
            },
            {
                "start_time": 9.0659091,
                "end_time": 9.2659091,
                "pitch": 26,
                "velocity": 80,
                "duration": 0.2,
                "tempo": 120.0
            },
            {
                "start_time": 9.2681818,
                "end_time": 9.4727273,
                "pitch": 29,
                "velocity": 80,
                "duration": 0.2045455,
                "tempo": 120.0
            },
            {
                "start_time": 9.4727273,
                "end_time": 9.6772727,
                "pitch": 31,
                "velocity": 80,
                "duration": 0.2045455,
                "tempo": 120.0
            },
            {
                "start_time": 9.6795455,
                "end_time": 9.8795455,
                "pitch": 28,
                "velocity": 80,
                "duration": 0.2,
                "tempo": 120.0
            },
            {
                "start_time": 9.8795455,
                "end_time": 10.0818182,
                "pitch": 28,
                "velocity": 80,
                "duration": 0.2022727,
                "tempo": 120.0
            },
            {
                "start_time": 10.0818182,
                "end_time": 10.2818182,
                "pitch": 33,
                "velocity": 80,
                "duration": 0.2,
                "tempo": 120.0
            },
            {
                "start_time": 10.2840909,
                "end_time": 10.4840909,
                "pitch": 35,
                "velocity": 80,
                "duration": 0.2,
                "tempo": 120.0
            },
            {
                "start_time": 10.4863636,
                "end_time": 10.6818182,
                "pitch": 38,
                "velocity": 80,
                "duration": 0.1954545,
                "tempo": 120.0
            },
            {
                "start_time": 10.6818182,
                "end_time": 10.8772727,
                "pitch": 35,
                "velocity": 80,
                "duration": 0.1954545,
                "tempo": 120.0
            },
            {
                "start_time": 10.8772727,
                "end_time": 11.0818182,
                "pitch": 33,
                "velocity": 80,
                "duration": 0.2045455,
                "tempo": 120.0
            },
            {
                "start_time": 11.0840909,
                "end_time": 11.4840909,
                "pitch": 28,
                "velocity": 80,
                "duration": 0.4,
                "tempo": 120.0
            },
            {
                "start_time": 11.4863636,
                "end_time": 11.6818182,
                "pitch": 40,
                "velocity": 80,
                "duration": 0.1954545,
                "tempo": 120.0
            },
            {
                "start_time": 11.6818182,
                "end_time": 11.8863636,
                "pitch": 38,
                "velocity": 80,
                "duration": 0.2045455,
                "tempo": 120.0
            },
            {
                "start_time": 11.8863636,
                "end_time": 12.0909091,
                "pitch": 35,
                "velocity": 80,
                "duration": 0.2045455,
                "tempo": 120.0
            },
            {
                "start_time": 12.0931818,
                "end_time": 12.2931818,
                "pitch": 32,
                "velocity": 80,
                "duration": 0.2,
                "tempo": 120.0
            },
            {
                "start_time": 12.2954545,
                "end_time": 12.4954545,
                "pitch": 35,
                "velocity": 80,
                "duration": 0.2,
                "tempo": 120.0
            },
            {
                "start_time": 12.4954545,
                "end_time": 12.6954545,
                "pitch": 32,
                "velocity": 80,
                "duration": 0.2,
                "tempo": 120.0
            },
            {
                "start_time": 12.6977273,
                "end_time": 12.9181818,
                "pitch": 28,
                "velocity": 80,
                "duration": 0.2204545,
                "tempo": 120.0
            },
            {
                "start_time": 12.9181818,
                "end_time": 13.0977273,
                "pitch": 33,
                "velocity": 80,
                "duration": 0.1795455,
                "tempo": 120.0
            },
            {
                "start_time": 13.1,
                "end_time": 13.3,
                "pitch": 33,
                "velocity": 80,
                "duration": 0.2,
                "tempo": 120.0
            },
            {
                "start_time": 13.3,
                "end_time": 13.5,
                "pitch": 33,
                "velocity": 80,
                "duration": 0.2,
                "tempo": 120.0
            },
            {
                "start_time": 13.5022727,
                "end_time": 13.7022727,
                "pitch": 33,
                "velocity": 80,
                "duration": 0.2,
                "tempo": 120.0
            },
            {
                "start_time": 13.7022727,
                "end_time": 13.9045455,
                "pitch": 33,
                "velocity": 80,
                "duration": 0.2022727,
                "tempo": 120.0
            },
            {
                "start_time": 13.9045455,
                "end_time": 14.1045455,
                "pitch": 33,
                "velocity": 80,
                "duration": 0.2,
                "tempo": 120.0
            },
            {
                "start_time": 14.1068182,
                "end_time": 14.3068182,
                "pitch": 33,
                "velocity": 80,
                "duration": 0.2,
                "tempo": 120.0
            },
            {
                "start_time": 14.3090909,
                "end_time": 14.5090909,
                "pitch": 33,
                "velocity": 80,
                "duration": 0.2,
                "tempo": 120.0
            },
            {
                "start_time": 14.5090909,
                "end_time": 14.7090909,
                "pitch": 33,
                "velocity": 80,
                "duration": 0.2,
                "tempo": 120.0
            },
            {
                "start_time": 14.7090909,
                "end_time": 14.9090909,
                "pitch": 33,
                "velocity": 80,
                "duration": 0.2,
                "tempo": 120.0
            },
            {
                "start_time": 14.9113636,
                "end_time": 15.1113636,
                "pitch": 33,
                "velocity": 80,
                "duration": 0.2,
                "tempo": 120.0
            },
            {
                "start_time": 15.1113636,
                "end_time": 15.3136364,
                "pitch": 33,
                "velocity": 80,
                "duration": 0.2022727,
                "tempo": 120.0
            },
            {
                "start_time": 15.3136364,
                "end_time": 15.5136364,
                "pitch": 33,
                "velocity": 80,
                "duration": 0.2,
                "tempo": 120.0
            },
            {
                "start_time": 15.5159091,
                "end_time": 15.7159091,
                "pitch": 33,
                "velocity": 80,
                "duration": 0.2,
                "tempo": 120.0
            },
            {
                "start_time": 15.7159091,
                "end_time": 15.9181818,
                "pitch": 33,
                "velocity": 80,
                "duration": 0.2022727,
                "tempo": 120.0
            },
            {
                "start_time": 15.9181818,
                "end_time": 16.1204545,
                "pitch": 33,
                "velocity": 80,
                "duration": 0.2022727,
                "tempo": 120.0
            },
            {
                "start_time": 16.1204545,
                "end_time": 16.3204545,
                "pitch": 29,
                "velocity": 80,
                "duration": 0.2,
                "tempo": 120.0
            },
            {
                "start_time": 16.3204545,
                "end_time": 16.5227273,
                "pitch": 29,
                "velocity": 80,
                "duration": 0.2022727,
                "tempo": 120.0
            },
            {
                "start_time": 16.5227273,
                "end_time": 16.7227273,
                "pitch": 29,
                "velocity": 80,
                "duration": 0.2,
                "tempo": 120.0
            },
            {
                "start_time": 16.725,
                "end_time": 16.9227273,
                "pitch": 29,
                "velocity": 80,
                "duration": 0.1977273,
                "tempo": 120.0
            },
            {
                "start_time": 16.9227273,
                "end_time": 17.125,
                "pitch": 29,
                "velocity": 80,
                "duration": 0.2022727,
                "tempo": 120.0
            },
            {
                "start_time": 17.125,
                "end_time": 17.3272727,
                "pitch": 29,
                "velocity": 80,
                "duration": 0.2022727,
                "tempo": 120.0
            },
            {
                "start_time": 17.3272727,
                "end_time": 17.525,
                "pitch": 29,
                "velocity": 80,
                "duration": 0.1977273,
                "tempo": 120.0
            },
            {
                "start_time": 17.5272727,
                "end_time": 17.7272727,
                "pitch": 29,
                "velocity": 80,
                "duration": 0.2,
                "tempo": 120.0
            },
            {
                "start_time": 17.7272727,
                "end_time": 17.9272727,
                "pitch": 29,
                "velocity": 80,
                "duration": 0.2,
                "tempo": 120.0
            },
            {
                "start_time": 17.9272727,
                "end_time": 18.1272727,
                "pitch": 29,
                "velocity": 80,
                "duration": 0.2,
                "tempo": 120.0
            },
            {
                "start_time": 18.1272727,
                "end_time": 18.3318182,
                "pitch": 29,
                "velocity": 80,
                "duration": 0.2045455,
                "tempo": 120.0
            },
            {
                "start_time": 18.3318182,
                "end_time": 18.5386364,
                "pitch": 29,
                "velocity": 80,
                "duration": 0.2068182,
                "tempo": 120.0
            },
            {
                "start_time": 18.5386364,
                "end_time": 18.7340909,
                "pitch": 29,
                "velocity": 80,
                "duration": 0.1954545,
                "tempo": 120.0
            },
            {
                "start_time": 18.7363636,
                "end_time": 18.9318182,
                "pitch": 29,
                "velocity": 80,
                "duration": 0.1954545,
                "tempo": 120.0
            },
            {
                "start_time": 18.9318182,
                "end_time": 19.1363636,
                "pitch": 29,
                "velocity": 80,
                "duration": 0.2045455,
                "tempo": 120.0
            },
            {
                "start_time": 19.1363636,
                "end_time": 19.3409091,
                "pitch": 29,
                "velocity": 80,
                "duration": 0.2045455,
                "tempo": 120.0
            },
            {
                "start_time": 19.3431818,
                "end_time": 19.5431818,
                "pitch": 31,
                "velocity": 80,
                "duration": 0.2,
                "tempo": 120.0
            },
            {
                "start_time": 19.5454545,
                "end_time": 19.7454545,
                "pitch": 31,
                "velocity": 80,
                "duration": 0.2,
                "tempo": 120.0
            },
            {
                "start_time": 19.7454545,
                "end_time": 19.9454545,
                "pitch": 31,
                "velocity": 80,
                "duration": 0.2,
                "tempo": 120.0
            },
            {
                "start_time": 19.9477273,
                "end_time": 20.1454545,
                "pitch": 31,
                "velocity": 80,
                "duration": 0.1977273,
                "tempo": 120.0
            },
            {
                "start_time": 20.1454545,
                "end_time": 20.3477273,
                "pitch": 31,
                "velocity": 80,
                "duration": 0.2022727,
                "tempo": 120.0
            },
            {
                "start_time": 20.3477273,
                "end_time": 20.5454545,
                "pitch": 31,
                "velocity": 80,
                "duration": 0.1977273,
                "tempo": 120.0
            },
            {
                "start_time": 20.5477273,
                "end_time": 20.7477273,
                "pitch": 31,
                "velocity": 80,
                "duration": 0.2,
                "tempo": 120.0
            },
            {
                "start_time": 20.75,
                "end_time": 20.95,
                "pitch": 31,
                "velocity": 80,
                "duration": 0.2,
                "tempo": 120.0
            },
            {
                "start_time": 20.95,
                "end_time": 21.15,
                "pitch": 31,
                "velocity": 80,
                "duration": 0.2,
                "tempo": 120.0
            },
            {
                "start_time": 21.15,
                "end_time": 21.35,
                "pitch": 31,
                "velocity": 80,
                "duration": 0.2,
                "tempo": 120.0
            },
            {
                "start_time": 21.3522727,
                "end_time": 21.5522727,
                "pitch": 31,
                "velocity": 80,
                "duration": 0.2,
                "tempo": 120.0
            },
            {
                "start_time": 21.5522727,
                "end_time": 21.7545455,
                "pitch": 31,
                "velocity": 80,
                "duration": 0.2022727,
                "tempo": 120.0
            },
            {
                "start_time": 21.7545455,
                "end_time": 21.9545455,
                "pitch": 31,
                "velocity": 80,
                "duration": 0.2,
                "tempo": 120.0
            },
            {
                "start_time": 21.9545455,
                "end_time": 22.1545455,
                "pitch": 31,
                "velocity": 80,
                "duration": 0.2,
                "tempo": 120.0
            },
            {
                "start_time": 22.1545455,
                "end_time": 22.3545455,
                "pitch": 31,
                "velocity": 80,
                "duration": 0.2,
                "tempo": 120.0
            },
            {
                "start_time": 22.3545455,
                "end_time": 22.5545455,
                "pitch": 31,
                "velocity": 80,
                "duration": 0.2,
                "tempo": 120.0
            },
            {
                "start_time": 22.5568182,
                "end_time": 22.7568182,
                "pitch": 36,
                "velocity": 80,
                "duration": 0.2,
                "tempo": 120.0
            },
            {
                "start_time": 22.7568182,
                "end_time": 22.9568182,
                "pitch": 36,
                "velocity": 80,
                "duration": 0.2,
                "tempo": 120.0
            },
            {
                "start_time": 22.9590909,
                "end_time": 23.1568182,
                "pitch": 36,
                "velocity": 80,
                "duration": 0.1977273,
                "tempo": 120.0
            },
            {
                "start_time": 23.1590909,
                "end_time": 23.3590909,
                "pitch": 36,
                "velocity": 80,
                "duration": 0.2,
                "tempo": 120.0
            },
            {
                "start_time": 23.3590909,
                "end_time": 23.5590909,
                "pitch": 36,
                "velocity": 80,
                "duration": 0.2,
                "tempo": 120.0
            },
            {
                "start_time": 23.5613636,
                "end_time": 23.7613636,
                "pitch": 36,
                "velocity": 80,
                "duration": 0.2,
                "tempo": 120.0
            },
            {
                "start_time": 23.7613636,
                "end_time": 23.9613636,
                "pitch": 36,
                "velocity": 80,
                "duration": 0.2,
                "tempo": 120.0
            },
            {
                "start_time": 23.9613636,
                "end_time": 24.1613636,
                "pitch": 36,
                "velocity": 80,
                "duration": 0.2,
                "tempo": 120.0
            },
            {
                "start_time": 24.1636364,
                "end_time": 24.3613636,
                "pitch": 36,
                "velocity": 80,
                "duration": 0.1977273,
                "tempo": 120.0
            },
            {
                "start_time": 24.3636364,
                "end_time": 24.5613636,
                "pitch": 36,
                "velocity": 80,
                "duration": 0.1977273,
                "tempo": 120.0
            },
            {
                "start_time": 24.5636364,
                "end_time": 24.7681818,
                "pitch": 36,
                "velocity": 80,
                "duration": 0.2045455,
                "tempo": 120.0
            },
            {
                "start_time": 24.7681818,
                "end_time": 24.9727273,
                "pitch": 36,
                "velocity": 80,
                "duration": 0.2045455,
                "tempo": 120.0
            },
            {
                "start_time": 24.975,
                "end_time": 25.1704545,
                "pitch": 36,
                "velocity": 80,
                "duration": 0.1954545,
                "tempo": 120.0
            },
            {
                "start_time": 25.1704545,
                "end_time": 25.3659091,
                "pitch": 36,
                "velocity": 80,
                "duration": 0.1954545,
                "tempo": 120.0
            },
            {
                "start_time": 25.3681818,
                "end_time": 25.5681818,
                "pitch": 36,
                "velocity": 80,
                "duration": 0.2,
                "tempo": 120.0
            },
            {
                "start_time": 25.5681818,
                "end_time": 25.7704545,
                "pitch": 36,
                "velocity": 80,
                "duration": 0.2022727,
                "tempo": 120.0
            },
            {
                "start_time": 25.7704545,
                "end_time": 25.975,
                "pitch": 38,
                "velocity": 80,
                "duration": 0.2045455,
                "tempo": 120.0
            },
            {
                "start_time": 25.975,
                "end_time": 26.1818182,
                "pitch": 38,
                "velocity": 80,
                "duration": 0.2068182,
                "tempo": 120.0
            },
            {
                "start_time": 26.1818182,
                "end_time": 26.3818182,
                "pitch": 38,
                "velocity": 80,
                "duration": 0.2,
                "tempo": 120.0
            },
            {
                "start_time": 26.3818182,
                "end_time": 26.5818182,
                "pitch": 38,
                "velocity": 80,
                "duration": 0.2,
                "tempo": 120.0
            },
            {
                "start_time": 26.5818182,
                "end_time": 26.7772727,
                "pitch": 38,
                "velocity": 80,
                "duration": 0.1954545,
                "tempo": 120.0
            },
            {
                "start_time": 26.7795455,
                "end_time": 26.975,
                "pitch": 38,
                "velocity": 80,
                "duration": 0.1954545,
                "tempo": 120.0
            },
            {
                "start_time": 26.975,
                "end_time": 27.1795455,
                "pitch": 38,
                "velocity": 80,
                "duration": 0.2045455,
                "tempo": 120.0
            },
            {
                "start_time": 27.1795455,
                "end_time": 27.3840909,
                "pitch": 38,
                "velocity": 80,
                "duration": 0.2045455,
                "tempo": 120.0
            },
            {
                "start_time": 27.3863636,
                "end_time": 27.5863636,
                "pitch": 38,
                "velocity": 80,
                "duration": 0.2,
                "tempo": 120.0
            },
            {
                "start_time": 27.5886364,
                "end_time": 27.7863636,
                "pitch": 38,
                "velocity": 80,
                "duration": 0.1977273,
                "tempo": 120.0
            },
            {
                "start_time": 27.7886364,
                "end_time": 27.9886364,
                "pitch": 38,
                "velocity": 80,
                "duration": 0.2,
                "tempo": 120.0
            },
            {
                "start_time": 27.9886364,
                "end_time": 28.1909091,
                "pitch": 38,
                "velocity": 80,
                "duration": 0.2022727,
                "tempo": 120.0
            },
            {
                "start_time": 28.1909091,
                "end_time": 28.3909091,
                "pitch": 38,
                "velocity": 80,
                "duration": 0.2,
                "tempo": 120.0
            },
            {
                "start_time": 28.3909091,
                "end_time": 28.5909091,
                "pitch": 38,
                "velocity": 80,
                "duration": 0.2,
                "tempo": 120.0
            },
            {
                "start_time": 28.5909091,
                "end_time": 28.7909091,
                "pitch": 38,
                "velocity": 80,
                "duration": 0.2,
                "tempo": 120.0
            },
            {
                "start_time": 28.7909091,
                "end_time": 28.9909091,
                "pitch": 38,
                "velocity": 80,
                "duration": 0.2,
                "tempo": 120.0
            },
            {
                "start_time": 28.9931818,
                "end_time": 29.1909091,
                "pitch": 36,
                "velocity": 80,
                "duration": 0.1977273,
                "tempo": 120.0
            },
            {
                "start_time": 29.1931818,
                "end_time": 29.3931818,
                "pitch": 36,
                "velocity": 80,
                "duration": 0.2,
                "tempo": 120.0
            },
            {
                "start_time": 29.3954545,
                "end_time": 29.5931818,
                "pitch": 36,
                "velocity": 80,
                "duration": 0.1977273,
                "tempo": 120.0
            },
            {
                "start_time": 29.5954545,
                "end_time": 29.7931818,
                "pitch": 36,
                "velocity": 80,
                "duration": 0.1977273,
                "tempo": 120.0
            },
            {
                "start_time": 29.7954545,
                "end_time": 29.9954545,
                "pitch": 36,
                "velocity": 80,
                "duration": 0.2,
                "tempo": 120.0
            },
            {
                "start_time": 29.9954545,
                "end_time": 30.1977273,
                "pitch": 36,
                "velocity": 80,
                "duration": 0.2022727,
                "tempo": 120.0
            },
            {
                "start_time": 30.1977273,
                "end_time": 30.3977273,
                "pitch": 36,
                "velocity": 80,
                "duration": 0.2,
                "tempo": 120.0
            },
            {
                "start_time": 30.3977273,
                "end_time": 30.5977273,
                "pitch": 36,
                "velocity": 80,
                "duration": 0.2,
                "tempo": 120.0
            },
            {
                "start_time": 30.5977273,
                "end_time": 30.8,
                "pitch": 36,
                "velocity": 80,
                "duration": 0.2022727,
                "tempo": 120.0
            },
            {
                "start_time": 30.8,
                "end_time": 31.0,
                "pitch": 36,
                "velocity": 80,
                "duration": 0.2,
                "tempo": 120.0
            },
            {
                "start_time": 31.0,
                "end_time": 31.2,
                "pitch": 36,
                "velocity": 80,
                "duration": 0.2,
                "tempo": 120.0
            },
            {
                "start_time": 31.2022727,
                "end_time": 31.4022727,
                "pitch": 36,
                "velocity": 80,
                "duration": 0.2,
                "tempo": 120.0
            },
            {
                "start_time": 31.4022727,
                "end_time": 31.6022727,
                "pitch": 36,
                "velocity": 80,
                "duration": 0.2,
                "tempo": 120.0
            },
            {
                "start_time": 31.6045455,
                "end_time": 31.8022727,
                "pitch": 36,
                "velocity": 80,
                "duration": 0.1977273,
                "tempo": 120.0
            },
            {
                "start_time": 31.8045455,
                "end_time": 32.0045455,
                "pitch": 36,
                "velocity": 80,
                "duration": 0.2,
                "tempo": 120.0
            },
            {
                "start_time": 32.0045455,
                "end_time": 32.2068182,
                "pitch": 36,
                "velocity": 80,
                "duration": 0.2022727,
                "tempo": 120.0
            },
            {
                "start_time": 32.2068182,
                "end_time": 32.4045455,
                "pitch": 38,
                "velocity": 80,
                "duration": 0.1977273,
                "tempo": 120.0
            },
            {
                "start_time": 32.4068182,
                "end_time": 32.6045455,
                "pitch": 38,
                "velocity": 80,
                "duration": 0.1977273,
                "tempo": 120.0
            },
            {
                "start_time": 32.6068182,
                "end_time": 32.8068182,
                "pitch": 38,
                "velocity": 80,
                "duration": 0.2,
                "tempo": 120.0
            },
            {
                "start_time": 32.8068182,
                "end_time": 33.0068182,
                "pitch": 38,
                "velocity": 80,
                "duration": 0.2,
                "tempo": 120.0
            },
            {
                "start_time": 33.0068182,
                "end_time": 33.2068182,
                "pitch": 38,
                "velocity": 80,
                "duration": 0.2,
                "tempo": 120.0
            },
            {
                "start_time": 33.2068182,
                "end_time": 33.4068182,
                "pitch": 38,
                "velocity": 80,
                "duration": 0.2,
                "tempo": 120.0
            },
            {
                "start_time": 33.4068182,
                "end_time": 33.6113636,
                "pitch": 38,
                "velocity": 80,
                "duration": 0.2045455,
                "tempo": 120.0
            },
            {
                "start_time": 33.6136364,
                "end_time": 33.8181818,
                "pitch": 38,
                "velocity": 80,
                "duration": 0.2045455,
                "tempo": 120.0
            },
            {
                "start_time": 33.8181818,
                "end_time": 34.0136364,
                "pitch": 38,
                "velocity": 80,
                "duration": 0.1954545,
                "tempo": 120.0
            },
            {
                "start_time": 34.0159091,
                "end_time": 34.2113636,
                "pitch": 38,
                "velocity": 80,
                "duration": 0.1954545,
                "tempo": 120.0
            },
            {
                "start_time": 34.2113636,
                "end_time": 34.4159091,
                "pitch": 38,
                "velocity": 80,
                "duration": 0.2045455,
                "tempo": 120.0
            },
            {
                "start_time": 34.4159091,
                "end_time": 34.6204545,
                "pitch": 38,
                "velocity": 80,
                "duration": 0.2045455,
                "tempo": 120.0
            },
            {
                "start_time": 34.6227273,
                "end_time": 34.8227273,
                "pitch": 38,
                "velocity": 80,
                "duration": 0.2,
                "tempo": 120.0
            },
            {
                "start_time": 34.8227273,
                "end_time": 35.0227273,
                "pitch": 38,
                "velocity": 80,
                "duration": 0.2,
                "tempo": 120.0
            },
            {
                "start_time": 35.0227273,
                "end_time": 35.225,
                "pitch": 38,
                "velocity": 80,
                "duration": 0.2022727,
                "tempo": 120.0
            },
            {
                "start_time": 35.225,
                "end_time": 35.425,
                "pitch": 31,
                "velocity": 80,
                "duration": 0.2,
                "tempo": 120.0
            },
            {
                "start_time": 35.425,
                "end_time": 35.625,
                "pitch": 31,
                "velocity": 80,
                "duration": 0.2,
                "tempo": 120.0
            },
            {
                "start_time": 35.625,
                "end_time": 35.825,
                "pitch": 31,
                "velocity": 80,
                "duration": 0.2,
                "tempo": 120.0
            },
            {
                "start_time": 35.8272727,
                "end_time": 36.025,
                "pitch": 31,
                "velocity": 80,
                "duration": 0.1977273,
                "tempo": 120.0
            },
            {
                "start_time": 36.0272727,
                "end_time": 36.225,
                "pitch": 31,
                "velocity": 80,
                "duration": 0.1977273,
                "tempo": 120.0
            },
            {
                "start_time": 36.2272727,
                "end_time": 36.4272727,
                "pitch": 31,
                "velocity": 80,
                "duration": 0.2,
                "tempo": 120.0
            },
            {
                "start_time": 36.4272727,
                "end_time": 36.6272727,
                "pitch": 31,
                "velocity": 80,
                "duration": 0.2,
                "tempo": 120.0
            },
            {
                "start_time": 36.6272727,
                "end_time": 36.8272727,
                "pitch": 31,
                "velocity": 80,
                "duration": 0.2,
                "tempo": 120.0
            },
            {
                "start_time": 36.8295455,
                "end_time": 37.0272727,
                "pitch": 28,
                "velocity": 80,
                "duration": 0.1977273,
                "tempo": 120.0
            },
            {
                "start_time": 37.0272727,
                "end_time": 37.2295455,
                "pitch": 28,
                "velocity": 80,
                "duration": 0.2022727,
                "tempo": 120.0
            },
            {
                "start_time": 37.2295455,
                "end_time": 37.4295455,
                "pitch": 28,
                "velocity": 80,
                "duration": 0.2,
                "tempo": 120.0
            },
            {
                "start_time": 37.4318182,
                "end_time": 37.6318182,
                "pitch": 28,
                "velocity": 80,
                "duration": 0.2,
                "tempo": 120.0
            },
            {
                "start_time": 37.6318182,
                "end_time": 37.8318182,
                "pitch": 28,
                "velocity": 80,
                "duration": 0.2,
                "tempo": 120.0
            },
            {
                "start_time": 37.8318182,
                "end_time": 38.0318182,
                "pitch": 28,
                "velocity": 80,
                "duration": 0.2,
                "tempo": 120.0
            },
            {
                "start_time": 38.0318182,
                "end_time": 38.2318182,
                "pitch": 28,
                "velocity": 80,
                "duration": 0.2,
                "tempo": 120.0
            },
            {
                "start_time": 38.2318182,
                "end_time": 38.4318182,
                "pitch": 28,
                "velocity": 80,
                "duration": 0.2,
                "tempo": 120.0
            },
            {
                "start_time": 38.4318182,
                "end_time": 38.6318182,
                "pitch": 28,
                "velocity": 80,
                "duration": 0.2,
                "tempo": 120.0
            },
            {
                "start_time": 38.6340909,
                "end_time": 38.8227273,
                "pitch": 33,
                "velocity": 80,
                "duration": 0.1886364,
                "tempo": 120.0
            },
            {
                "start_time": 38.8227273,
                "end_time": 39.0272727,
                "pitch": 33,
                "velocity": 80,
                "duration": 0.2045455,
                "tempo": 120.0
            },
            {
                "start_time": 39.0295455,
                "end_time": 39.225,
                "pitch": 33,
                "velocity": 80,
                "duration": 0.1954545,
                "tempo": 120.0
            },
            {
                "start_time": 39.2272727,
                "end_time": 39.4204545,
                "pitch": 33,
                "velocity": 80,
                "duration": 0.1931818,
                "tempo": 120.0
            },
            {
                "start_time": 39.4227273,
                "end_time": 39.6227273,
                "pitch": 33,
                "velocity": 80,
                "duration": 0.2,
                "tempo": 120.0
            },
            {
                "start_time": 39.6227273,
                "end_time": 39.8204545,
                "pitch": 33,
                "velocity": 80,
                "duration": 0.1977273,
                "tempo": 120.0
            },
            {
                "start_time": 39.8227273,
                "end_time": 40.0227273,
                "pitch": 33,
                "velocity": 80,
                "duration": 0.2,
                "tempo": 120.0
            },
            {
                "start_time": 40.0227273,
                "end_time": 40.2227273,
                "pitch": 33,
                "velocity": 80,
                "duration": 0.2,
                "tempo": 120.0
            },
            {
                "start_time": 40.2227273,
                "end_time": 40.4227273,
                "pitch": 33,
                "velocity": 80,
                "duration": 0.2,
                "tempo": 120.0
            },
            {
                "start_time": 40.4227273,
                "end_time": 40.6227273,
                "pitch": 33,
                "velocity": 80,
                "duration": 0.2,
                "tempo": 120.0
            },
            {
                "start_time": 40.6227273,
                "end_time": 40.8227273,
                "pitch": 33,
                "velocity": 80,
                "duration": 0.2,
                "tempo": 120.0
            },
            {
                "start_time": 40.8227273,
                "end_time": 41.0227273,
                "pitch": 33,
                "velocity": 80,
                "duration": 0.2,
                "tempo": 120.0
            },
            {
                "start_time": 41.025,
                "end_time": 41.225,
                "pitch": 33,
                "velocity": 80,
                "duration": 0.2,
                "tempo": 120.0
            },
            {
                "start_time": 41.225,
                "end_time": 41.425,
                "pitch": 33,
                "velocity": 80,
                "duration": 0.2,
                "tempo": 120.0
            },
            {
                "start_time": 41.4272727,
                "end_time": 41.6318182,
                "pitch": 33,
                "velocity": 80,
                "duration": 0.2045455,
                "tempo": 120.0
            },
            {
                "start_time": 41.6318182,
                "end_time": 41.8363636,
                "pitch": 33,
                "velocity": 80,
                "duration": 0.2045455,
                "tempo": 120.0
            },
            {
                "start_time": 41.8386364,
                "end_time": 42.0386364,
                "pitch": 29,
                "velocity": 80,
                "duration": 0.2,
                "tempo": 120.0
            },
            {
                "start_time": 42.0386364,
                "end_time": 42.2386364,
                "pitch": 29,
                "velocity": 80,
                "duration": 0.2,
                "tempo": 120.0
            },
            {
                "start_time": 42.2386364,
                "end_time": 42.4409091,
                "pitch": 29,
                "velocity": 80,
                "duration": 0.2022727,
                "tempo": 120.0
            },
            {
                "start_time": 42.4409091,
                "end_time": 42.6409091,
                "pitch": 29,
                "velocity": 80,
                "duration": 0.2,
                "tempo": 120.0
            },
            {
                "start_time": 42.6431818,
                "end_time": 42.8386364,
                "pitch": 29,
                "velocity": 80,
                "duration": 0.1954545,
                "tempo": 120.0
            },
            {
                "start_time": 42.8386364,
                "end_time": 43.0340909,
                "pitch": 29,
                "velocity": 80,
                "duration": 0.1954545,
                "tempo": 120.0
            },
            {
                "start_time": 43.0363636,
                "end_time": 43.2386364,
                "pitch": 29,
                "velocity": 80,
                "duration": 0.2022727,
                "tempo": 120.0
            },
            {
                "start_time": 43.2386364,
                "end_time": 43.4431818,
                "pitch": 29,
                "velocity": 80,
                "duration": 0.2045455,
                "tempo": 120.0
            },
            {
                "start_time": 43.4454545,
                "end_time": 43.6454545,
                "pitch": 29,
                "velocity": 80,
                "duration": 0.2,
                "tempo": 120.0
            },
            {
                "start_time": 43.6454545,
                "end_time": 43.8454545,
                "pitch": 29,
                "velocity": 80,
                "duration": 0.2,
                "tempo": 120.0
            },
            {
                "start_time": 43.8454545,
                "end_time": 44.0454545,
                "pitch": 29,
                "velocity": 80,
                "duration": 0.2,
                "tempo": 120.0
            },
            {
                "start_time": 44.0477273,
                "end_time": 44.2454545,
                "pitch": 29,
                "velocity": 80,
                "duration": 0.1977273,
                "tempo": 120.0
            },
            {
                "start_time": 44.2477273,
                "end_time": 44.4477273,
                "pitch": 29,
                "velocity": 80,
                "duration": 0.2,
                "tempo": 120.0
            },
            {
                "start_time": 44.4477273,
                "end_time": 44.65,
                "pitch": 29,
                "velocity": 80,
                "duration": 0.2022727,
                "tempo": 120.0
            },
            {
                "start_time": 44.65,
                "end_time": 44.85,
                "pitch": 29,
                "velocity": 80,
                "duration": 0.2,
                "tempo": 120.0
            },
            {
                "start_time": 44.85,
                "end_time": 45.05,
                "pitch": 29,
                "velocity": 80,
                "duration": 0.2,
                "tempo": 120.0
            },
            {
                "start_time": 45.05,
                "end_time": 45.25,
                "pitch": 31,
                "velocity": 80,
                "duration": 0.2,
                "tempo": 120.0
            },
            {
                "start_time": 45.2522727,
                "end_time": 45.45,
                "pitch": 31,
                "velocity": 80,
                "duration": 0.1977273,
                "tempo": 120.0
            },
            {
                "start_time": 45.4522727,
                "end_time": 45.65,
                "pitch": 31,
                "velocity": 80,
                "duration": 0.1977273,
                "tempo": 120.0
            },
            {
                "start_time": 45.6522727,
                "end_time": 45.85,
                "pitch": 31,
                "velocity": 80,
                "duration": 0.1977273,
                "tempo": 120.0
            },
            {
                "start_time": 45.8522727,
                "end_time": 46.0522727,
                "pitch": 31,
                "velocity": 80,
                "duration": 0.2,
                "tempo": 120.0
            },
            {
                "start_time": 46.0522727,
                "end_time": 46.2522727,
                "pitch": 31,
                "velocity": 80,
                "duration": 0.2,
                "tempo": 120.0
            },
            {
                "start_time": 46.2522727,
                "end_time": 46.4522727,
                "pitch": 31,
                "velocity": 80,
                "duration": 0.2,
                "tempo": 120.0
            },
            {
                "start_time": 46.4545455,
                "end_time": 46.6545455,
                "pitch": 31,
                "velocity": 80,
                "duration": 0.2,
                "tempo": 120.0
            },
            {
                "start_time": 46.6545455,
                "end_time": 46.8545455,
                "pitch": 31,
                "velocity": 80,
                "duration": 0.2,
                "tempo": 120.0
            },
            {
                "start_time": 46.8545455,
                "end_time": 47.0545455,
                "pitch": 31,
                "velocity": 80,
                "duration": 0.2,
                "tempo": 120.0
            },
            {
                "start_time": 47.0568182,
                "end_time": 47.2545455,
                "pitch": 31,
                "velocity": 80,
                "duration": 0.1977273,
                "tempo": 120.0
            },
            {
                "start_time": 47.2568182,
                "end_time": 47.4568182,
                "pitch": 31,
                "velocity": 80,
                "duration": 0.2,
                "tempo": 120.0
            },
            {
                "start_time": 47.4568182,
                "end_time": 47.6568182,
                "pitch": 31,
                "velocity": 80,
                "duration": 0.2,
                "tempo": 120.0
            },
            {
                "start_time": 47.6568182,
                "end_time": 47.8568182,
                "pitch": 31,
                "velocity": 80,
                "duration": 0.2,
                "tempo": 120.0
            },
            {
                "start_time": 47.8568182,
                "end_time": 48.0568182,
                "pitch": 31,
                "velocity": 80,
                "duration": 0.2,
                "tempo": 120.0
            },
            {
                "start_time": 48.0568182,
                "end_time": 48.2568182,
                "pitch": 31,
                "velocity": 80,
                "duration": 0.2,
                "tempo": 120.0
            },
            {
                "start_time": 48.2590909,
                "end_time": 48.4590909,
                "pitch": 36,
                "velocity": 80,
                "duration": 0.2,
                "tempo": 120.0
            },
            {
                "start_time": 48.4590909,
                "end_time": 48.6590909,
                "pitch": 36,
                "velocity": 80,
                "duration": 0.2,
                "tempo": 120.0
            },
            {
                "start_time": 48.6613636,
                "end_time": 48.8590909,
                "pitch": 36,
                "velocity": 80,
                "duration": 0.1977273,
                "tempo": 120.0
            },
            {
                "start_time": 48.8613636,
                "end_time": 49.0613636,
                "pitch": 36,
                "velocity": 80,
                "duration": 0.2,
                "tempo": 120.0
            },
            {
                "start_time": 49.0613636,
                "end_time": 49.2613636,
                "pitch": 36,
                "velocity": 80,
                "duration": 0.2,
                "tempo": 120.0
            },
            {
                "start_time": 49.2613636,
                "end_time": 49.4613636,
                "pitch": 36,
                "velocity": 80,
                "duration": 0.2,
                "tempo": 120.0
            },
            {
                "start_time": 49.4613636,
                "end_time": 49.6659091,
                "pitch": 36,
                "velocity": 80,
                "duration": 0.2045455,
                "tempo": 120.0
            },
            {
                "start_time": 49.6659091,
                "end_time": 49.8704545,
                "pitch": 36,
                "velocity": 80,
                "duration": 0.2045455,
                "tempo": 120.0
            },
            {
                "start_time": 49.8727273,
                "end_time": 50.0727273,
                "pitch": 36,
                "velocity": 80,
                "duration": 0.2,
                "tempo": 120.0
            },
            {
                "start_time": 50.075,
                "end_time": 50.275,
                "pitch": 36,
                "velocity": 80,
                "duration": 0.2,
                "tempo": 120.0
            },
            {
                "start_time": 50.2772727,
                "end_time": 50.475,
                "pitch": 36,
                "velocity": 80,
                "duration": 0.1977273,
                "tempo": 120.0
            },
            {
                "start_time": 50.4772727,
                "end_time": 50.6772727,
                "pitch": 36,
                "velocity": 80,
                "duration": 0.2,
                "tempo": 120.0
            },
            {
                "start_time": 50.6772727,
                "end_time": 50.8772727,
                "pitch": 36,
                "velocity": 80,
                "duration": 0.2,
                "tempo": 120.0
            },
            {
                "start_time": 50.8772727,
                "end_time": 51.0772727,
                "pitch": 36,
                "velocity": 80,
                "duration": 0.2,
                "tempo": 120.0
            },
            {
                "start_time": 51.0772727,
                "end_time": 51.2772727,
                "pitch": 36,
                "velocity": 80,
                "duration": 0.2,
                "tempo": 120.0
            },
            {
                "start_time": 51.2772727,
                "end_time": 51.4772727,
                "pitch": 36,
                "velocity": 80,
                "duration": 0.2,
                "tempo": 120.0
            },
            {
                "start_time": 51.4795455,
                "end_time": 51.6772727,
                "pitch": 38,
                "velocity": 80,
                "duration": 0.1977273,
                "tempo": 120.0
            },
            {
                "start_time": 51.6795455,
                "end_time": 51.8772727,
                "pitch": 38,
                "velocity": 80,
                "duration": 0.1977273,
                "tempo": 120.0
            },
            {
                "start_time": 51.8795455,
                "end_time": 52.0795455,
                "pitch": 38,
                "velocity": 80,
                "duration": 0.2,
                "tempo": 120.0
            },
            {
                "start_time": 52.0818182,
                "end_time": 52.2818182,
                "pitch": 38,
                "velocity": 80,
                "duration": 0.2,
                "tempo": 120.0
            },
            {
                "start_time": 52.2818182,
                "end_time": 52.4818182,
                "pitch": 38,
                "velocity": 80,
                "duration": 0.2,
                "tempo": 120.0
            },
            {
                "start_time": 52.4818182,
                "end_time": 52.6818182,
                "pitch": 38,
                "velocity": 80,
                "duration": 0.2,
                "tempo": 120.0
            },
            {
                "start_time": 52.6818182,
                "end_time": 52.8818182,
                "pitch": 38,
                "velocity": 80,
                "duration": 0.2,
                "tempo": 120.0
            },
            {
                "start_time": 52.8818182,
                "end_time": 53.0818182,
                "pitch": 38,
                "velocity": 80,
                "duration": 0.2,
                "tempo": 120.0
            },
            {
                "start_time": 53.0840909,
                "end_time": 53.2818182,
                "pitch": 38,
                "velocity": 80,
                "duration": 0.1977273,
                "tempo": 120.0
            },
            {
                "start_time": 53.2818182,
                "end_time": 53.4818182,
                "pitch": 38,
                "velocity": 80,
                "duration": 0.2,
                "tempo": 120.0
            },
            {
                "start_time": 53.4818182,
                "end_time": 53.6818182,
                "pitch": 38,
                "velocity": 80,
                "duration": 0.2,
                "tempo": 120.0
            },
            {
                "start_time": 53.6840909,
                "end_time": 53.8818182,
                "pitch": 38,
                "velocity": 80,
                "duration": 0.1977273,
                "tempo": 120.0
            },
            {
                "start_time": 53.8840909,
                "end_time": 54.0840909,
                "pitch": 38,
                "velocity": 80,
                "duration": 0.2,
                "tempo": 120.0
            },
            {
                "start_time": 54.0840909,
                "end_time": 54.2863636,
                "pitch": 38,
                "velocity": 80,
                "duration": 0.2022727,
                "tempo": 120.0
            },
            {
                "start_time": 54.2863636,
                "end_time": 54.4863636,
                "pitch": 38,
                "velocity": 80,
                "duration": 0.2,
                "tempo": 120.0
            },
            {
                "start_time": 54.4863636,
                "end_time": 54.6863636,
                "pitch": 38,
                "velocity": 80,
                "duration": 0.2,
                "tempo": 120.0
            },
            {
                "start_time": 54.6886364,
                "end_time": 54.8863636,
                "pitch": 36,
                "velocity": 80,
                "duration": 0.1977273,
                "tempo": 120.0
            },
            {
                "start_time": 54.8886364,
                "end_time": 55.0886364,
                "pitch": 36,
                "velocity": 80,
                "duration": 0.2,
                "tempo": 120.0
            },
            {
                "start_time": 55.0886364,
                "end_time": 55.2886364,
                "pitch": 36,
                "velocity": 80,
                "duration": 0.2,
                "tempo": 120.0
            },
            {
                "start_time": 55.2886364,
                "end_time": 55.4886364,
                "pitch": 36,
                "velocity": 80,
                "duration": 0.2,
                "tempo": 120.0
            },
            {
                "start_time": 55.4886364,
                "end_time": 55.6886364,
                "pitch": 36,
                "velocity": 80,
                "duration": 0.2,
                "tempo": 120.0
            },
            {
                "start_time": 55.6886364,
                "end_time": 55.8886364,
                "pitch": 36,
                "velocity": 80,
                "duration": 0.2,
                "tempo": 120.0
            },
            {
                "start_time": 55.8886364,
                "end_time": 56.0909091,
                "pitch": 36,
                "velocity": 80,
                "duration": 0.2022727,
                "tempo": 120.0
            },
            {
                "start_time": 56.0909091,
                "end_time": 56.2909091,
                "pitch": 36,
                "velocity": 80,
                "duration": 0.2,
                "tempo": 120.0
            },
            {
                "start_time": 56.2931818,
                "end_time": 56.4909091,
                "pitch": 36,
                "velocity": 80,
                "duration": 0.1977273,
                "tempo": 120.0
            },
            {
                "start_time": 56.4931818,
                "end_time": 56.6909091,
                "pitch": 36,
                "velocity": 80,
                "duration": 0.1977273,
                "tempo": 120.0
            },
            {
                "start_time": 56.6931818,
                "end_time": 56.8909091,
                "pitch": 36,
                "velocity": 80,
                "duration": 0.1977273,
                "tempo": 120.0
            },
            {
                "start_time": 56.8931818,
                "end_time": 57.0931818,
                "pitch": 36,
                "velocity": 80,
                "duration": 0.2,
                "tempo": 120.0
            },
            {
                "start_time": 57.0931818,
                "end_time": 57.2931818,
                "pitch": 36,
                "velocity": 80,
                "duration": 0.2,
                "tempo": 120.0
            },
            {
                "start_time": 57.2931818,
                "end_time": 57.4931818,
                "pitch": 36,
                "velocity": 80,
                "duration": 0.2,
                "tempo": 120.0
            },
            {
                "start_time": 57.4931818,
                "end_time": 57.6977273,
                "pitch": 36,
                "velocity": 80,
                "duration": 0.2045455,
                "tempo": 120.0
            },
            {
                "start_time": 57.6977273,
                "end_time": 57.9045455,
                "pitch": 36,
                "velocity": 80,
                "duration": 0.2068182,
                "tempo": 120.0
            },
            {
                "start_time": 57.9045455,
                "end_time": 58.1045455,
                "pitch": 38,
                "velocity": 80,
                "duration": 0.2,
                "tempo": 120.0
            },
            {
                "start_time": 58.1068182,
                "end_time": 58.3045455,
                "pitch": 38,
                "velocity": 80,
                "duration": 0.1977273,
                "tempo": 120.0
            },
            {
                "start_time": 58.3068182,
                "end_time": 58.5045455,
                "pitch": 38,
                "velocity": 80,
                "duration": 0.1977273,
                "tempo": 120.0
            },
            {
                "start_time": 58.5068182,
                "end_time": 58.7068182,
                "pitch": 38,
                "velocity": 80,
                "duration": 0.2,
                "tempo": 120.0
            },
            {
                "start_time": 58.7068182,
                "end_time": 58.9068182,
                "pitch": 38,
                "velocity": 80,
                "duration": 0.2,
                "tempo": 120.0
            },
            {
                "start_time": 58.9068182,
                "end_time": 59.1068182,
                "pitch": 38,
                "velocity": 80,
                "duration": 0.2,
                "tempo": 120.0
            },
            {
                "start_time": 59.1068182,
                "end_time": 59.3068182,
                "pitch": 38,
                "velocity": 80,
                "duration": 0.2,
                "tempo": 120.0
            },
            {
                "start_time": 59.3068182,
                "end_time": 59.5068182,
                "pitch": 35,
                "velocity": 80,
                "duration": 0.2,
                "tempo": 120.0
            },
            {
                "start_time": 59.5068182,
                "end_time": 59.7090909,
                "pitch": 35,
                "velocity": 80,
                "duration": 0.2022727,
                "tempo": 120.0
            },
            {
                "start_time": 59.7090909,
                "end_time": 59.9090909,
                "pitch": 35,
                "velocity": 80,
                "duration": 0.2,
                "tempo": 120.0
            },
            {
                "start_time": 59.9113636,
                "end_time": 60.1113636,
                "pitch": 35,
                "velocity": 80,
                "duration": 0.2,
                "tempo": 120.0
            },
            {
                "start_time": 60.1113636,
                "end_time": 60.3090909,
                "pitch": 35,
                "velocity": 80,
                "duration": 0.1977273,
                "tempo": 120.0
            },
            {
                "start_time": 60.3113636,
                "end_time": 60.5113636,
                "pitch": 35,
                "velocity": 80,
                "duration": 0.2,
                "tempo": 120.0
            },
            {
                "start_time": 60.5113636,
                "end_time": 60.7113636,
                "pitch": 35,
                "velocity": 80,
                "duration": 0.2,
                "tempo": 120.0
            },
            {
                "start_time": 60.7113636,
                "end_time": 60.9113636,
                "pitch": 35,
                "velocity": 80,
                "duration": 0.2,
                "tempo": 120.0
            },
            {
                "start_time": 60.9113636,
                "end_time": 61.1113636,
                "pitch": 28,
                "velocity": 80,
                "duration": 0.2,
                "tempo": 120.0
            },
            {
                "start_time": 61.1113636,
                "end_time": 61.3113636,
                "pitch": 28,
                "velocity": 80,
                "duration": 0.2,
                "tempo": 120.0
            },
            {
                "start_time": 61.3113636,
                "end_time": 61.5113636,
                "pitch": 28,
                "velocity": 80,
                "duration": 0.2,
                "tempo": 120.0
            },
            {
                "start_time": 61.5113636,
                "end_time": 61.7136364,
                "pitch": 28,
                "velocity": 80,
                "duration": 0.2022727,
                "tempo": 120.0
            },
            {
                "start_time": 61.7136364,
                "end_time": 61.9136364,
                "pitch": 28,
                "velocity": 80,
                "duration": 0.2,
                "tempo": 120.0
            },
            {
                "start_time": 61.9159091,
                "end_time": 62.1159091,
                "pitch": 28,
                "velocity": 80,
                "duration": 0.2,
                "tempo": 120.0
            },
            {
                "start_time": 62.1159091,
                "end_time": 62.3159091,
                "pitch": 28,
                "velocity": 80,
                "duration": 0.2,
                "tempo": 120.0
            },
            {
                "start_time": 62.3159091,
                "end_time": 62.5159091,
                "pitch": 28,
                "velocity": 80,
                "duration": 0.2,
                "tempo": 120.0
            },
            {
                "start_time": 62.5181818,
                "end_time": 62.9159091,
                "pitch": 28,
                "velocity": 80,
                "duration": 0.3977273,
                "tempo": 120.0
            },
            {
                "start_time": 62.9159091,
                "end_time": 63.1159091,
                "pitch": 28,
                "velocity": 80,
                "duration": 0.2,
                "tempo": 120.0
            },
            {
                "start_time": 63.1159091,
                "end_time": 63.3159091,
                "pitch": 28,
                "velocity": 80,
                "duration": 0.2,
                "tempo": 120.0
            },
            {
                "start_time": 63.3159091,
                "end_time": 63.5159091,
                "pitch": 28,
                "velocity": 80,
                "duration": 0.2,
                "tempo": 120.0
            },
            {
                "start_time": 63.5181818,
                "end_time": 63.7181818,
                "pitch": 28,
                "velocity": 80,
                "duration": 0.2,
                "tempo": 120.0
            },
            {
                "start_time": 63.7181818,
                "end_time": 63.9204545,
                "pitch": 28,
                "velocity": 80,
                "duration": 0.2022727,
                "tempo": 120.0
            },
            {
                "start_time": 63.9204545,
                "end_time": 64.125,
                "pitch": 28,
                "velocity": 80,
                "duration": 0.2045455,
                "tempo": 120.0
            },
            {
                "start_time": 64.125,
                "end_time": 64.3295455,
                "pitch": 28,
                "velocity": 80,
                "duration": 0.2045455,
                "tempo": 120.0
            },
            {
                "start_time": 64.725,
                "end_time": 65.3272727,
                "pitch": 29,
                "velocity": 80,
                "duration": 0.6022727,
                "tempo": 120.0
            },
            {
                "start_time": 65.3272727,
                "end_time": 65.5272727,
                "pitch": 29,
                "velocity": 80,
                "duration": 0.2,
                "tempo": 120.0
            },
            {
                "start_time": 65.5272727,
                "end_time": 65.7318182,
                "pitch": 33,
                "velocity": 80,
                "duration": 0.2045455,
                "tempo": 120.0
            },
            {
                "start_time": 65.7340909,
                "end_time": 65.9386364,
                "pitch": 36,
                "velocity": 80,
                "duration": 0.2045455,
                "tempo": 120.0
            },
            {
                "start_time": 65.9386364,
                "end_time": 66.1409091,
                "pitch": 31,
                "velocity": 80,
                "duration": 0.2022727,
                "tempo": 120.0
            },
            {
                "start_time": 66.1409091,
                "end_time": 66.3409091,
                "pitch": 43,
                "velocity": 80,
                "duration": 0.2,
                "tempo": 120.0
            },
            {
                "start_time": 66.3431818,
                "end_time": 66.5431818,
                "pitch": 38,
                "velocity": 80,
                "duration": 0.2,
                "tempo": 120.0
            },
            {
                "start_time": 66.5454545,
                "end_time": 66.7454545,
                "pitch": 35,
                "velocity": 80,
                "duration": 0.2,
                "tempo": 120.0
            },
            {
                "start_time": 66.7454545,
                "end_time": 66.9454545,
                "pitch": 31,
                "velocity": 80,
                "duration": 0.2,
                "tempo": 120.0
            },
            {
                "start_time": 66.9477273,
                "end_time": 67.1454545,
                "pitch": 33,
                "velocity": 80,
                "duration": 0.1977273,
                "tempo": 120.0
            },
            {
                "start_time": 67.1454545,
                "end_time": 67.3477273,
                "pitch": 35,
                "velocity": 80,
                "duration": 0.2022727,
                "tempo": 120.0
            },
            {
                "start_time": 67.3477273,
                "end_time": 67.55,
                "pitch": 31,
                "velocity": 80,
                "duration": 0.2022727,
                "tempo": 120.0
            },
            {
                "start_time": 67.55,
                "end_time": 67.75,
                "pitch": 36,
                "velocity": 80,
                "duration": 0.2,
                "tempo": 120.0
            },
            {
                "start_time": 67.75,
                "end_time": 67.95,
                "pitch": 36,
                "velocity": 80,
                "duration": 0.2,
                "tempo": 120.0
            },
            {
                "start_time": 67.95,
                "end_time": 68.1522727,
                "pitch": 36,
                "velocity": 80,
                "duration": 0.2022727,
                "tempo": 120.0
            },
            {
                "start_time": 68.1522727,
                "end_time": 68.5545455,
                "pitch": 35,
                "velocity": 80,
                "duration": 0.4022727,
                "tempo": 120.0
            },
            {
                "start_time": 68.5545455,
                "end_time": 68.7568182,
                "pitch": 35,
                "velocity": 80,
                "duration": 0.2022727,
                "tempo": 120.0
            },
            {
                "start_time": 68.7568182,
                "end_time": 68.9568182,
                "pitch": 35,
                "velocity": 80,
                "duration": 0.2,
                "tempo": 120.0
            },
            {
                "start_time": 68.9568182,
                "end_time": 69.1568182,
                "pitch": 35,
                "velocity": 80,
                "duration": 0.2,
                "tempo": 120.0
            },
            {
                "start_time": 69.1568182,
                "end_time": 69.3590909,
                "pitch": 33,
                "velocity": 80,
                "duration": 0.2022727,
                "tempo": 120.0
            },
            {
                "start_time": 69.3590909,
                "end_time": 69.5590909,
                "pitch": 33,
                "velocity": 80,
                "duration": 0.2,
                "tempo": 120.0
            },
            {
                "start_time": 69.5613636,
                "end_time": 69.7613636,
                "pitch": 33,
                "velocity": 80,
                "duration": 0.2,
                "tempo": 120.0
            },
            {
                "start_time": 69.7613636,
                "end_time": 70.1613636,
                "pitch": 31,
                "velocity": 80,
                "duration": 0.4,
                "tempo": 120.0
            },
            {
                "start_time": 70.1636364,
                "end_time": 70.3636364,
                "pitch": 31,
                "velocity": 80,
                "duration": 0.2,
                "tempo": 120.0
            },
            {
                "start_time": 70.3636364,
                "end_time": 70.5636364,
                "pitch": 31,
                "velocity": 80,
                "duration": 0.2,
                "tempo": 120.0
            },
            {
                "start_time": 70.5659091,
                "end_time": 70.7681818,
                "pitch": 31,
                "velocity": 80,
                "duration": 0.2022727,
                "tempo": 120.0
            },
            {
                "start_time": 70.7681818,
                "end_time": 70.9704545,
                "pitch": 29,
                "velocity": 80,
                "duration": 0.2022727,
                "tempo": 120.0
            },
            {
                "start_time": 70.9727273,
                "end_time": 71.1772727,
                "pitch": 29,
                "velocity": 80,
                "duration": 0.2045455,
                "tempo": 120.0
            },
            {
                "start_time": 71.1772727,
                "end_time": 71.375,
                "pitch": 33,
                "velocity": 80,
                "duration": 0.1977273,
                "tempo": 120.0
            },
            {
                "start_time": 71.375,
                "end_time": 71.5704545,
                "pitch": 36,
                "velocity": 80,
                "duration": 0.1954545,
                "tempo": 120.0
            },
            {
                "start_time": 71.5704545,
                "end_time": 71.7704545,
                "pitch": 41,
                "velocity": 80,
                "duration": 0.2,
                "tempo": 120.0
            },
            {
                "start_time": 71.7727273,
                "end_time": 71.9704545,
                "pitch": 29,
                "velocity": 80,
                "duration": 0.1977273,
                "tempo": 120.0
            },
            {
                "start_time": 71.9727273,
                "end_time": 72.1727273,
                "pitch": 36,
                "velocity": 80,
                "duration": 0.2,
                "tempo": 120.0
            },
            {
                "start_time": 72.1727273,
                "end_time": 72.575,
                "pitch": 28,
                "velocity": 80,
                "duration": 0.4022727,
                "tempo": 120.0
            },
            {
                "start_time": 72.5772727,
                "end_time": 72.7772727,
                "pitch": 29,
                "velocity": 80,
                "duration": 0.2,
                "tempo": 120.0
            },
            {
                "start_time": 72.7795455,
                "end_time": 72.9840909,
                "pitch": 32,
                "velocity": 80,
                "duration": 0.2045455,
                "tempo": 120.0
            },
            {
                "start_time": 72.9840909,
                "end_time": 73.1886364,
                "pitch": 35,
                "velocity": 80,
                "duration": 0.2045455,
                "tempo": 120.0
            },
            {
                "start_time": 73.1886364,
                "end_time": 73.3863636,
                "pitch": 38,
                "velocity": 80,
                "duration": 0.1977273,
                "tempo": 120.0
            },
            {
                "start_time": 73.3863636,
                "end_time": 73.5818182,
                "pitch": 41,
                "velocity": 80,
                "duration": 0.1954545,
                "tempo": 120.0
            },
            {
                "start_time": 73.5818182,
                "end_time": 73.7818182,
                "pitch": 40,
                "velocity": 80,
                "duration": 0.2,
                "tempo": 120.0
            },
            {
                "start_time": 73.7818182,
                "end_time": 73.9818182,
                "pitch": 38,
                "velocity": 80,
                "duration": 0.2,
                "tempo": 120.0
            },
            {
                "start_time": 73.9840909,
                "end_time": 74.1863636,
                "pitch": 33,
                "velocity": 80,
                "duration": 0.2022727,
                "tempo": 120.0
            },
            {
                "start_time": 74.1886364,
                "end_time": 74.3931818,
                "pitch": 35,
                "velocity": 80,
                "duration": 0.2045455,
                "tempo": 120.0
            },
            {
                "start_time": 74.3931818,
                "end_time": 74.5931818,
                "pitch": 36,
                "velocity": 80,
                "duration": 0.2,
                "tempo": 120.0
            },
            {
                "start_time": 74.5954545,
                "end_time": 74.7954545,
                "pitch": 33,
                "velocity": 80,
                "duration": 0.2,
                "tempo": 120.0
            },
            {
                "start_time": 74.7954545,
                "end_time": 74.9954545,
                "pitch": 31,
                "velocity": 80,
                "duration": 0.2,
                "tempo": 120.0
            },
            {
                "start_time": 74.9954545,
                "end_time": 75.1977273,
                "pitch": 33,
                "velocity": 80,
                "duration": 0.2022727,
                "tempo": 120.0
            },
            {
                "start_time": 75.1977273,
                "end_time": 75.4,
                "pitch": 35,
                "velocity": 80,
                "duration": 0.2022727,
                "tempo": 120.0
            },
            {
                "start_time": 75.4,
                "end_time": 75.6,
                "pitch": 26,
                "velocity": 80,
                "duration": 0.2,
                "tempo": 120.0
            },
            {
                "start_time": 75.6,
                "end_time": 75.8,
                "pitch": 26,
                "velocity": 80,
                "duration": 0.2,
                "tempo": 120.0
            },
            {
                "start_time": 75.8022727,
                "end_time": 76.0,
                "pitch": 33,
                "velocity": 80,
                "duration": 0.1977273,
                "tempo": 120.0
            },
            {
                "start_time": 76.0022727,
                "end_time": 76.2022727,
                "pitch": 38,
                "velocity": 80,
                "duration": 0.2,
                "tempo": 120.0
            },
            {
                "start_time": 76.2045455,
                "end_time": 76.4045455,
                "pitch": 28,
                "velocity": 80,
                "duration": 0.2,
                "tempo": 120.0
            },
            {
                "start_time": 76.4045455,
                "end_time": 76.6045455,
                "pitch": 28,
                "velocity": 80,
                "duration": 0.2,
                "tempo": 120.0
            },
            {
                "start_time": 76.6045455,
                "end_time": 76.8045455,
                "pitch": 35,
                "velocity": 80,
                "duration": 0.2,
                "tempo": 120.0
            },
            {
                "start_time": 76.8045455,
                "end_time": 77.0068182,
                "pitch": 32,
                "velocity": 80,
                "duration": 0.2022727,
                "tempo": 120.0
            },
            {
                "start_time": 77.0068182,
                "end_time": 77.2068182,
                "pitch": 28,
                "velocity": 80,
                "duration": 0.2,
                "tempo": 120.0
            },
            {
                "start_time": 77.6113636,
                "end_time": 78.2136364,
                "pitch": 29,
                "velocity": 80,
                "duration": 0.6022727,
                "tempo": 120.0
            },
            {
                "start_time": 78.2136364,
                "end_time": 78.4159091,
                "pitch": 29,
                "velocity": 80,
                "duration": 0.2022727,
                "tempo": 120.0
            },
            {
                "start_time": 78.4159091,
                "end_time": 78.6159091,
                "pitch": 33,
                "velocity": 80,
                "duration": 0.2,
                "tempo": 120.0
            },
            {
                "start_time": 78.6159091,
                "end_time": 78.8159091,
                "pitch": 36,
                "velocity": 80,
                "duration": 0.2,
                "tempo": 120.0
            },
            {
                "start_time": 78.8159091,
                "end_time": 79.0181818,
                "pitch": 31,
                "velocity": 80,
                "duration": 0.2022727,
                "tempo": 120.0
            },
            {
                "start_time": 79.0181818,
                "end_time": 79.2181818,
                "pitch": 43,
                "velocity": 80,
                "duration": 0.2,
                "tempo": 120.0
            },
            {
                "start_time": 79.2181818,
                "end_time": 79.4204545,
                "pitch": 38,
                "velocity": 80,
                "duration": 0.2022727,
                "tempo": 120.0
            },
            {
                "start_time": 79.4204545,
                "end_time": 79.6204545,
                "pitch": 35,
                "velocity": 80,
                "duration": 0.2,
                "tempo": 120.0
            },
            {
                "start_time": 79.6227273,
                "end_time": 79.8272727,
                "pitch": 31,
                "velocity": 80,
                "duration": 0.2045455,
                "tempo": 120.0
            },
            {
                "start_time": 79.8272727,
                "end_time": 80.0318182,
                "pitch": 33,
                "velocity": 80,
                "duration": 0.2045455,
                "tempo": 120.0
            },
            {
                "start_time": 80.0318182,
                "end_time": 80.2340909,
                "pitch": 35,
                "velocity": 80,
                "duration": 0.2022727,
                "tempo": 120.0
            },
            {
                "start_time": 80.2340909,
                "end_time": 80.4340909,
                "pitch": 31,
                "velocity": 80,
                "duration": 0.2,
                "tempo": 120.0
            },
            {
                "start_time": 80.4340909,
                "end_time": 80.6318182,
                "pitch": 36,
                "velocity": 80,
                "duration": 0.1977273,
                "tempo": 120.0
            },
            {
                "start_time": 80.6318182,
                "end_time": 80.8272727,
                "pitch": 36,
                "velocity": 80,
                "duration": 0.1954545,
                "tempo": 120.0
            },
            {
                "start_time": 80.8272727,
                "end_time": 81.0318182,
                "pitch": 36,
                "velocity": 80,
                "duration": 0.2045455,
                "tempo": 120.0
            },
            {
                "start_time": 81.0318182,
                "end_time": 81.4386364,
                "pitch": 35,
                "velocity": 80,
                "duration": 0.4068182,
                "tempo": 120.0
            },
            {
                "start_time": 81.4386364,
                "end_time": 81.6386364,
                "pitch": 35,
                "velocity": 80,
                "duration": 0.2,
                "tempo": 120.0
            },
            {
                "start_time": 81.6386364,
                "end_time": 81.8386364,
                "pitch": 35,
                "velocity": 80,
                "duration": 0.2,
                "tempo": 120.0
            },
            {
                "start_time": 81.8409091,
                "end_time": 82.0409091,
                "pitch": 35,
                "velocity": 80,
                "duration": 0.2,
                "tempo": 120.0
            },
            {
                "start_time": 82.0431818,
                "end_time": 82.2431818,
                "pitch": 33,
                "velocity": 80,
                "duration": 0.2,
                "tempo": 120.0
            },
            {
                "start_time": 82.2431818,
                "end_time": 82.4409091,
                "pitch": 33,
                "velocity": 80,
                "duration": 0.1977273,
                "tempo": 120.0
            },
            {
                "start_time": 82.4431818,
                "end_time": 82.6431818,
                "pitch": 33,
                "velocity": 80,
                "duration": 0.2,
                "tempo": 120.0
            },
            {
                "start_time": 82.6454545,
                "end_time": 83.0477273,
                "pitch": 31,
                "velocity": 80,
                "duration": 0.4022727,
                "tempo": 120.0
            },
            {
                "start_time": 83.0477273,
                "end_time": 83.2477273,
                "pitch": 31,
                "velocity": 80,
                "duration": 0.2,
                "tempo": 120.0
            },
            {
                "start_time": 83.2477273,
                "end_time": 83.4477273,
                "pitch": 31,
                "velocity": 80,
                "duration": 0.2,
                "tempo": 120.0
            },
            {
                "start_time": 83.45,
                "end_time": 83.65,
                "pitch": 31,
                "velocity": 80,
                "duration": 0.2,
                "tempo": 120.0
            },
            {
                "start_time": 83.65,
                "end_time": 83.85,
                "pitch": 29,
                "velocity": 80,
                "duration": 0.2,
                "tempo": 120.0
            },
            {
                "start_time": 83.8522727,
                "end_time": 84.0522727,
                "pitch": 29,
                "velocity": 80,
                "duration": 0.2,
                "tempo": 120.0
            },
            {
                "start_time": 84.0522727,
                "end_time": 84.2522727,
                "pitch": 33,
                "velocity": 80,
                "duration": 0.2,
                "tempo": 120.0
            },
            {
                "start_time": 84.2522727,
                "end_time": 84.4522727,
                "pitch": 36,
                "velocity": 80,
                "duration": 0.2,
                "tempo": 120.0
            },
            {
                "start_time": 84.4522727,
                "end_time": 84.6545455,
                "pitch": 41,
                "velocity": 80,
                "duration": 0.2022727,
                "tempo": 120.0
            },
            {
                "start_time": 84.6545455,
                "end_time": 84.8568182,
                "pitch": 33,
                "velocity": 80,
                "duration": 0.2022727,
                "tempo": 120.0
            },
            {
                "start_time": 84.8568182,
                "end_time": 85.0568182,
                "pitch": 36,
                "velocity": 80,
                "duration": 0.2,
                "tempo": 120.0
            },
            {
                "start_time": 85.0590909,
                "end_time": 85.4590909,
                "pitch": 28,
                "velocity": 80,
                "duration": 0.4,
                "tempo": 120.0
            },
            {
                "start_time": 85.4613636,
                "end_time": 85.6590909,
                "pitch": 40,
                "velocity": 80,
                "duration": 0.1977273,
                "tempo": 120.0
            },
            {
                "start_time": 85.6613636,
                "end_time": 85.8613636,
                "pitch": 38,
                "velocity": 80,
                "duration": 0.2,
                "tempo": 120.0
            },
            {
                "start_time": 85.8613636,
                "end_time": 86.0636364,
                "pitch": 35,
                "velocity": 80,
                "duration": 0.2022727,
                "tempo": 120.0
            },
            {
                "start_time": 86.0636364,
                "end_time": 86.2613636,
                "pitch": 32,
                "velocity": 80,
                "duration": 0.1977273,
                "tempo": 120.0
            },
            {
                "start_time": 86.2613636,
                "end_time": 86.4613636,
                "pitch": 35,
                "velocity": 80,
                "duration": 0.2,
                "tempo": 120.0
            },
            {
                "start_time": 86.4613636,
                "end_time": 86.6659091,
                "pitch": 28,
                "velocity": 80,
                "duration": 0.2045455,
                "tempo": 120.0
            },
            {
                "start_time": 86.6659091,
                "end_time": 87.0704545,
                "pitch": 28,
                "velocity": 80,
                "duration": 0.4045455,
                "tempo": 120.0
            },
            {
                "start_time": 87.0727273,
                "end_time": 87.2772727,
                "pitch": 29,
                "velocity": 80,
                "duration": 0.2045455,
                "tempo": 120.0
            },
            {
                "start_time": 87.2772727,
                "end_time": 87.475,
                "pitch": 32,
                "velocity": 80,
                "duration": 0.1977273,
                "tempo": 120.0
            },
            {
                "start_time": 87.475,
                "end_time": 87.6704545,
                "pitch": 35,
                "velocity": 80,
                "duration": 0.1954545,
                "tempo": 120.0
            },
            {
                "start_time": 87.6727273,
                "end_time": 87.8727273,
                "pitch": 38,
                "velocity": 80,
                "duration": 0.2,
                "tempo": 120.0
            },
            {
                "start_time": 88.075,
                "end_time": 88.275,
                "pitch": 28,
                "velocity": 80,
                "duration": 0.2,
                "tempo": 120.0
            },
            {
                "start_time": 88.275,
                "end_time": 88.675,
                "pitch": 33,
                "velocity": 80,
                "duration": 0.4,
                "tempo": 120.0
            },
            {
                "start_time": 88.675,
                "end_time": 88.8772727,
                "pitch": 33,
                "velocity": 80,
                "duration": 0.2022727,
                "tempo": 120.0
            },
            {
                "start_time": 88.8772727,
                "end_time": 89.0818182,
                "pitch": 33,
                "velocity": 80,
                "duration": 0.2045455,
                "tempo": 120.0
            },
            {
                "start_time": 89.0818182,
                "end_time": 89.2886364,
                "pitch": 33,
                "velocity": 80,
                "duration": 0.2068182,
                "tempo": 120.0
            },
            {
                "start_time": 89.2886364,
                "end_time": 89.4863636,
                "pitch": 33,
                "velocity": 80,
                "duration": 0.1977273,
                "tempo": 120.0
            },
            {
                "start_time": 89.4863636,
                "end_time": 89.6818182,
                "pitch": 33,
                "velocity": 80,
                "duration": 0.1954545,
                "tempo": 120.0
            },
            {
                "start_time": 89.6818182,
                "end_time": 89.8863636,
                "pitch": 33,
                "velocity": 80,
                "duration": 0.2045455,
                "tempo": 120.0
            },
            {
                "start_time": 89.8863636,
                "end_time": 90.2931818,
                "pitch": 33,
                "velocity": 80,
                "duration": 0.4068182,
                "tempo": 120.0
            },
            {
                "start_time": 90.2954545,
                "end_time": 90.4954545,
                "pitch": 33,
                "velocity": 80,
                "duration": 0.2,
                "tempo": 120.0
            },
            {
                "start_time": 90.4954545,
                "end_time": 90.6977273,
                "pitch": 33,
                "velocity": 80,
                "duration": 0.2022727,
                "tempo": 120.0
            },
            {
                "start_time": 90.6977273,
                "end_time": 91.1,
                "pitch": 33,
                "velocity": 80,
                "duration": 0.4022727,
                "tempo": 120.0
            },
            {
                "start_time": 91.1,
                "end_time": 91.3,
                "pitch": 33,
                "velocity": 80,
                "duration": 0.2,
                "tempo": 120.0
            },
            {
                "start_time": 91.3,
                "end_time": 91.5,
                "pitch": 36,
                "velocity": 80,
                "duration": 0.2,
                "tempo": 120.0
            },
            {
                "start_time": 91.5022727,
                "end_time": 91.7022727,
                "pitch": 40,
                "velocity": 80,
                "duration": 0.2,
                "tempo": 120.0
            },
            {
                "start_time": 91.7022727,
                "end_time": 91.9022727,
                "pitch": 33,
                "velocity": 80,
                "duration": 0.2,
                "tempo": 120.0
            },
            {
                "start_time": 91.9022727,
                "end_time": 92.1022727,
                "pitch": 33,
                "velocity": 80,
                "duration": 0.2,
                "tempo": 120.0
            },
            {
                "start_time": 92.1045455,
                "end_time": 92.3045455,
                "pitch": 33,
                "velocity": 80,
                "duration": 0.2,
                "tempo": 120.0
            },
            {
                "start_time": 92.3045455,
                "end_time": 92.5068182,
                "pitch": 33,
                "velocity": 80,
                "duration": 0.2022727,
                "tempo": 120.0
            },
            {
                "start_time": 92.5068182,
                "end_time": 92.7068182,
                "pitch": 33,
                "velocity": 80,
                "duration": 0.2,
                "tempo": 120.0
            },
            {
                "start_time": 92.7090909,
                "end_time": 92.9090909,
                "pitch": 33,
                "velocity": 80,
                "duration": 0.2,
                "tempo": 120.0
            },
            {
                "start_time": 92.9090909,
                "end_time": 93.3090909,
                "pitch": 33,
                "velocity": 80,
                "duration": 0.4,
                "tempo": 120.0
            },
            {
                "start_time": 93.3113636,
                "end_time": 93.5113636,
                "pitch": 33,
                "velocity": 80,
                "duration": 0.2,
                "tempo": 120.0
            },
            {
                "start_time": 93.5113636,
                "end_time": 93.7136364,
                "pitch": 33,
                "velocity": 80,
                "duration": 0.2022727,
                "tempo": 120.0
            },
            {
                "start_time": 93.7136364,
                "end_time": 93.9136364,
                "pitch": 33,
                "velocity": 80,
                "duration": 0.2,
                "tempo": 120.0
            },
            {
                "start_time": 93.9136364,
                "end_time": 94.3159091,
                "pitch": 33,
                "velocity": 80,
                "duration": 0.4022727,
                "tempo": 120.0
            },
            {
                "start_time": 94.3159091,
                "end_time": 94.5159091,
                "pitch": 33,
                "velocity": 80,
                "duration": 0.2,
                "tempo": 120.0
            },
            {
                "start_time": 94.5181818,
                "end_time": 94.7181818,
                "pitch": 36,
                "velocity": 80,
                "duration": 0.2,
                "tempo": 120.0
            },
            {
                "start_time": 94.7181818,
                "end_time": 94.9204545,
                "pitch": 40,
                "velocity": 80,
                "duration": 0.2022727,
                "tempo": 120.0
            },
            {
                "start_time": 94.9204545,
                "end_time": 95.125,
                "pitch": 29,
                "velocity": 80,
                "duration": 0.2045455,
                "tempo": 120.0
            },
            {
                "start_time": 95.125,
                "end_time": 95.3295455,
                "pitch": 29,
                "velocity": 80,
                "duration": 0.2045455,
                "tempo": 120.0
            },
            {
                "start_time": 95.3318182,
                "end_time": 95.5318182,
                "pitch": 29,
                "velocity": 80,
                "duration": 0.2,
                "tempo": 120.0
            },
            {
                "start_time": 95.5318182,
                "end_time": 95.7318182,
                "pitch": 29,
                "velocity": 80,
                "duration": 0.2,
                "tempo": 120.0
            },
            {
                "start_time": 95.7318182,
                "end_time": 95.9295455,
                "pitch": 29,
                "velocity": 80,
                "duration": 0.1977273,
                "tempo": 120.0
            },
            {
                "start_time": 95.9295455,
                "end_time": 96.125,
                "pitch": 29,
                "velocity": 80,
                "duration": 0.1954545,
                "tempo": 120.0
            },
            {
                "start_time": 96.125,
                "end_time": 96.3295455,
                "pitch": 33,
                "velocity": 80,
                "duration": 0.2045455,
                "tempo": 120.0
            },
            {
                "start_time": 96.3295455,
                "end_time": 96.7318182,
                "pitch": 31,
                "velocity": 80,
                "duration": 0.4022727,
                "tempo": 120.0
            },
            {
                "start_time": 96.7340909,
                "end_time": 96.9295455,
                "pitch": 31,
                "velocity": 80,
                "duration": 0.1954545,
                "tempo": 120.0
            },
            {
                "start_time": 96.9295455,
                "end_time": 97.1340909,
                "pitch": 31,
                "velocity": 80,
                "duration": 0.2045455,
                "tempo": 120.0
            },
            {
                "start_time": 97.1340909,
                "end_time": 97.3386364,
                "pitch": 31,
                "velocity": 80,
                "duration": 0.2045455,
                "tempo": 120.0
            },
            {
                "start_time": 97.3386364,
                "end_time": 97.5363636,
                "pitch": 31,
                "velocity": 80,
                "duration": 0.1977273,
                "tempo": 120.0
            },
            {
                "start_time": 97.5363636,
                "end_time": 97.7318182,
                "pitch": 26,
                "velocity": 80,
                "duration": 0.1954545,
                "tempo": 120.0
            },
            {
                "start_time": 97.7340909,
                "end_time": 97.9363636,
                "pitch": 29,
                "velocity": 80,
                "duration": 0.2022727,
                "tempo": 120.0
            },
            {
                "start_time": 97.9363636,
                "end_time": 98.1431818,
                "pitch": 31,
                "velocity": 80,
                "duration": 0.2068182,
                "tempo": 120.0
            },
            {
                "start_time": 98.1431818,
                "end_time": 98.3454545,
                "pitch": 28,
                "velocity": 80,
                "duration": 0.2022727,
                "tempo": 120.0
            },
            {
                "start_time": 98.3454545,
                "end_time": 98.5454545,
                "pitch": 28,
                "velocity": 80,
                "duration": 0.2,
                "tempo": 120.0
            },
            {
                "start_time": 98.5477273,
                "end_time": 98.7477273,
                "pitch": 33,
                "velocity": 80,
                "duration": 0.2,
                "tempo": 120.0
            },
            {
                "start_time": 98.7477273,
                "end_time": 98.9477273,
                "pitch": 35,
                "velocity": 80,
                "duration": 0.2,
                "tempo": 120.0
            },
            {
                "start_time": 98.9477273,
                "end_time": 99.1477273,
                "pitch": 38,
                "velocity": 80,
                "duration": 0.2,
                "tempo": 120.0
            },
            {
                "start_time": 99.15,
                "end_time": 99.35,
                "pitch": 35,
                "velocity": 80,
                "duration": 0.2,
                "tempo": 120.0
            },
            {
                "start_time": 99.35,
                "end_time": 99.55,
                "pitch": 33,
                "velocity": 80,
                "duration": 0.2,
                "tempo": 120.0
            },
            {
                "start_time": 99.5522727,
                "end_time": 99.9522727,
                "pitch": 28,
                "velocity": 80,
                "duration": 0.4,
                "tempo": 120.0
            },
            {
                "start_time": 99.9522727,
                "end_time": 100.1545455,
                "pitch": 40,
                "velocity": 80,
                "duration": 0.2022727,
                "tempo": 120.0
            },
            {
                "start_time": 100.1545455,
                "end_time": 100.3545455,
                "pitch": 38,
                "velocity": 80,
                "duration": 0.2,
                "tempo": 120.0
            },
            {
                "start_time": 100.3568182,
                "end_time": 100.5568182,
                "pitch": 35,
                "velocity": 80,
                "duration": 0.2,
                "tempo": 120.0
            },
            {
                "start_time": 100.5568182,
                "end_time": 100.7568182,
                "pitch": 32,
                "velocity": 80,
                "duration": 0.2,
                "tempo": 120.0
            },
            {
                "start_time": 100.7590909,
                "end_time": 100.9568182,
                "pitch": 35,
                "velocity": 80,
                "duration": 0.1977273,
                "tempo": 120.0
            },
            {
                "start_time": 100.9590909,
                "end_time": 101.1590909,
                "pitch": 32,
                "velocity": 80,
                "duration": 0.2,
                "tempo": 120.0
            },
            {
                "start_time": 101.1590909,
                "end_time": 101.3613636,
                "pitch": 28,
                "velocity": 80,
                "duration": 0.2022727,
                "tempo": 120.0
            },
            {
                "start_time": 101.4045455,
                "end_time": 101.6,
                "pitch": 33,
                "velocity": 64,
                "duration": 0.1954545,
                "tempo": 120.0
            },
            {
                "start_time": 101.6,
                "end_time": 101.8045455,
                "pitch": 33,
                "velocity": 64,
                "duration": 0.2045455,
                "tempo": 120.0
            },
            {
                "start_time": 101.8068182,
                "end_time": 102.0113636,
                "pitch": 33,
                "velocity": 64,
                "duration": 0.2045455,
                "tempo": 120.0
            },
            {
                "start_time": 102.0113636,
                "end_time": 102.2159091,
                "pitch": 33,
                "velocity": 64,
                "duration": 0.2045455,
                "tempo": 120.0
            },
            {
                "start_time": 102.2159091,
                "end_time": 102.4181818,
                "pitch": 33,
                "velocity": 64,
                "duration": 0.2022727,
                "tempo": 120.0
            },
            {
                "start_time": 102.4204545,
                "end_time": 102.6204545,
                "pitch": 33,
                "velocity": 64,
                "duration": 0.2,
                "tempo": 120.0
            },
            {
                "start_time": 102.6204545,
                "end_time": 102.8227273,
                "pitch": 33,
                "velocity": 64,
                "duration": 0.2022727,
                "tempo": 120.0
            },
            {
                "start_time": 102.8227273,
                "end_time": 103.0227273,
                "pitch": 33,
                "velocity": 64,
                "duration": 0.2,
                "tempo": 120.0
            },
            {
                "start_time": 103.0227273,
                "end_time": 103.2227273,
                "pitch": 33,
                "velocity": 64,
                "duration": 0.2,
                "tempo": 120.0
            },
            {
                "start_time": 103.225,
                "end_time": 103.425,
                "pitch": 33,
                "velocity": 64,
                "duration": 0.2,
                "tempo": 120.0
            },
            {
                "start_time": 103.425,
                "end_time": 103.625,
                "pitch": 33,
                "velocity": 64,
                "duration": 0.2,
                "tempo": 120.0
            },
            {
                "start_time": 103.625,
                "end_time": 103.8272727,
                "pitch": 33,
                "velocity": 64,
                "duration": 0.2022727,
                "tempo": 120.0
            },
            {
                "start_time": 103.8272727,
                "end_time": 104.0272727,
                "pitch": 33,
                "velocity": 64,
                "duration": 0.2,
                "tempo": 120.0
            },
            {
                "start_time": 104.0272727,
                "end_time": 104.2272727,
                "pitch": 33,
                "velocity": 64,
                "duration": 0.2,
                "tempo": 120.0
            },
            {
                "start_time": 104.2272727,
                "end_time": 104.4295455,
                "pitch": 33,
                "velocity": 64,
                "duration": 0.2022727,
                "tempo": 120.0
            },
            {
                "start_time": 104.4295455,
                "end_time": 104.6318182,
                "pitch": 33,
                "velocity": 64,
                "duration": 0.2022727,
                "tempo": 120.0
            },
            {
                "start_time": 104.6318182,
                "end_time": 104.8318182,
                "pitch": 29,
                "velocity": 64,
                "duration": 0.2,
                "tempo": 120.0
            },
            {
                "start_time": 104.8340909,
                "end_time": 105.0340909,
                "pitch": 29,
                "velocity": 64,
                "duration": 0.2,
                "tempo": 120.0
            },
            {
                "start_time": 105.0340909,
                "end_time": 105.2340909,
                "pitch": 29,
                "velocity": 64,
                "duration": 0.2,
                "tempo": 120.0
            },
            {
                "start_time": 105.2363636,
                "end_time": 105.4340909,
                "pitch": 29,
                "velocity": 64,
                "duration": 0.1977273,
                "tempo": 120.0
            },
            {
                "start_time": 105.4340909,
                "end_time": 105.6363636,
                "pitch": 29,
                "velocity": 64,
                "duration": 0.2022727,
                "tempo": 120.0
            },
            {
                "start_time": 105.6363636,
                "end_time": 105.8386364,
                "pitch": 29,
                "velocity": 64,
                "duration": 0.2022727,
                "tempo": 120.0
            },
            {
                "start_time": 105.8386364,
                "end_time": 106.0386364,
                "pitch": 29,
                "velocity": 64,
                "duration": 0.2,
                "tempo": 120.0
            },
            {
                "start_time": 106.0386364,
                "end_time": 106.2386364,
                "pitch": 29,
                "velocity": 64,
                "duration": 0.2,
                "tempo": 120.0
            },
            {
                "start_time": 106.2386364,
                "end_time": 106.4386364,
                "pitch": 29,
                "velocity": 64,
                "duration": 0.2,
                "tempo": 120.0
            },
            {
                "start_time": 106.4409091,
                "end_time": 106.6409091,
                "pitch": 29,
                "velocity": 64,
                "duration": 0.2,
                "tempo": 120.0
            },
            {
                "start_time": 106.6409091,
                "end_time": 106.8454545,
                "pitch": 29,
                "velocity": 64,
                "duration": 0.2045455,
                "tempo": 120.0
            },
            {
                "start_time": 106.8477273,
                "end_time": 107.0522727,
                "pitch": 29,
                "velocity": 64,
                "duration": 0.2045455,
                "tempo": 120.0
            },
            {
                "start_time": 107.0522727,
                "end_time": 107.2477273,
                "pitch": 29,
                "velocity": 64,
                "duration": 0.1954545,
                "tempo": 120.0
            },
            {
                "start_time": 107.25,
                "end_time": 107.4454545,
                "pitch": 29,
                "velocity": 64,
                "duration": 0.1954545,
                "tempo": 120.0
            },
            {
                "start_time": 107.4454545,
                "end_time": 107.65,
                "pitch": 29,
                "velocity": 64,
                "duration": 0.2045455,
                "tempo": 120.0
            },
            {
                "start_time": 107.65,
                "end_time": 107.8568182,
                "pitch": 29,
                "velocity": 64,
                "duration": 0.2068182,
                "tempo": 120.0
            },
            {
                "start_time": 107.8568182,
                "end_time": 108.0590909,
                "pitch": 31,
                "velocity": 64,
                "duration": 0.2022727,
                "tempo": 120.0
            },
            {
                "start_time": 108.0590909,
                "end_time": 108.2590909,
                "pitch": 31,
                "velocity": 64,
                "duration": 0.2,
                "tempo": 120.0
            },
            {
                "start_time": 108.2613636,
                "end_time": 108.4613636,
                "pitch": 31,
                "velocity": 64,
                "duration": 0.2,
                "tempo": 120.0
            },
            {
                "start_time": 108.4613636,
                "end_time": 108.6613636,
                "pitch": 31,
                "velocity": 64,
                "duration": 0.2,
                "tempo": 120.0
            },
            {
                "start_time": 108.6636364,
                "end_time": 108.8636364,
                "pitch": 31,
                "velocity": 64,
                "duration": 0.2,
                "tempo": 120.0
            },
            {
                "start_time": 108.8636364,
                "end_time": 109.0636364,
                "pitch": 31,
                "velocity": 64,
                "duration": 0.2,
                "tempo": 120.0
            },
            {
                "start_time": 109.0636364,
                "end_time": 109.2659091,
                "pitch": 31,
                "velocity": 64,
                "duration": 0.2022727,
                "tempo": 120.0
            },
            {
                "start_time": 109.2659091,
                "end_time": 109.4659091,
                "pitch": 31,
                "velocity": 64,
                "duration": 0.2,
                "tempo": 120.0
            },
            {
                "start_time": 109.4659091,
                "end_time": 109.6659091,
                "pitch": 31,
                "velocity": 64,
                "duration": 0.2,
                "tempo": 120.0
            },
            {
                "start_time": 109.6681818,
                "end_time": 109.8681818,
                "pitch": 31,
                "velocity": 64,
                "duration": 0.2,
                "tempo": 120.0
            },
            {
                "start_time": 109.8681818,
                "end_time": 110.0681818,
                "pitch": 31,
                "velocity": 64,
                "duration": 0.2,
                "tempo": 120.0
            },
            {
                "start_time": 110.0681818,
                "end_time": 110.2704545,
                "pitch": 31,
                "velocity": 64,
                "duration": 0.2022727,
                "tempo": 120.0
            },
            {
                "start_time": 110.2704545,
                "end_time": 110.4727273,
                "pitch": 31,
                "velocity": 64,
                "duration": 0.2022727,
                "tempo": 120.0
            },
            {
                "start_time": 110.4727273,
                "end_time": 110.6727273,
                "pitch": 31,
                "velocity": 64,
                "duration": 0.2,
                "tempo": 120.0
            },
            {
                "start_time": 110.6727273,
                "end_time": 110.8727273,
                "pitch": 31,
                "velocity": 64,
                "duration": 0.2,
                "tempo": 120.0
            },
            {
                "start_time": 110.875,
                "end_time": 111.075,
                "pitch": 31,
                "velocity": 64,
                "duration": 0.2,
                "tempo": 120.0
            },
            {
                "start_time": 111.075,
                "end_time": 111.275,
                "pitch": 36,
                "velocity": 64,
                "duration": 0.2,
                "tempo": 120.0
            },
            {
                "start_time": 111.2772727,
                "end_time": 111.4772727,
                "pitch": 36,
                "velocity": 64,
                "duration": 0.2,
                "tempo": 120.0
            },
            {
                "start_time": 111.4772727,
                "end_time": 111.6772727,
                "pitch": 36,
                "velocity": 64,
                "duration": 0.2,
                "tempo": 120.0
            },
            {
                "start_time": 111.6772727,
                "end_time": 111.8772727,
                "pitch": 36,
                "velocity": 64,
                "duration": 0.2,
                "tempo": 120.0
            },
            {
                "start_time": 111.8795455,
                "end_time": 112.0795455,
                "pitch": 36,
                "velocity": 64,
                "duration": 0.2,
                "tempo": 120.0
            },
            {
                "start_time": 112.0795455,
                "end_time": 112.2818182,
                "pitch": 36,
                "velocity": 64,
                "duration": 0.2022727,
                "tempo": 120.0
            },
            {
                "start_time": 112.2818182,
                "end_time": 112.4818182,
                "pitch": 36,
                "velocity": 64,
                "duration": 0.2,
                "tempo": 120.0
            },
            {
                "start_time": 112.4840909,
                "end_time": 112.6840909,
                "pitch": 36,
                "velocity": 64,
                "duration": 0.2,
                "tempo": 120.0
            },
            {
                "start_time": 112.6840909,
                "end_time": 112.8840909,
                "pitch": 36,
                "velocity": 64,
                "duration": 0.2,
                "tempo": 120.0
            },
            {
                "start_time": 112.8840909,
                "end_time": 113.0840909,
                "pitch": 36,
                "velocity": 64,
                "duration": 0.2,
                "tempo": 120.0
            },
            {
                "start_time": 113.0863636,
                "end_time": 113.2909091,
                "pitch": 36,
                "velocity": 64,
                "duration": 0.2045455,
                "tempo": 120.0
            },
            {
                "start_time": 113.2909091,
                "end_time": 113.4954545,
                "pitch": 36,
                "velocity": 64,
                "duration": 0.2045455,
                "tempo": 120.0
            },
            {
                "start_time": 113.4954545,
                "end_time": 113.6931818,
                "pitch": 36,
                "velocity": 64,
                "duration": 0.1977273,
                "tempo": 120.0
            },
            {
                "start_time": 113.6931818,
                "end_time": 113.8886364,
                "pitch": 36,
                "velocity": 64,
                "duration": 0.1954545,
                "tempo": 120.0
            },
            {
                "start_time": 113.8886364,
                "end_time": 114.0909091,
                "pitch": 36,
                "velocity": 64,
                "duration": 0.2022727,
                "tempo": 120.0
            },
            {
                "start_time": 114.0909091,
                "end_time": 114.2931818,
                "pitch": 36,
                "velocity": 64,
                "duration": 0.2022727,
                "tempo": 120.0
            },
            {
                "start_time": 114.2931818,
                "end_time": 114.4977273,
                "pitch": 38,
                "velocity": 64,
                "duration": 0.2045455,
                "tempo": 120.0
            },
            {
                "start_time": 114.4977273,
                "end_time": 114.7022727,
                "pitch": 38,
                "velocity": 64,
                "duration": 0.2045455,
                "tempo": 120.0
            },
            {
                "start_time": 114.7045455,
                "end_time": 114.9045455,
                "pitch": 38,
                "velocity": 64,
                "duration": 0.2,
                "tempo": 120.0
            },
            {
                "start_time": 114.9068182,
                "end_time": 115.1068182,
                "pitch": 38,
                "velocity": 64,
                "duration": 0.2,
                "tempo": 120.0
            },
            {
                "start_time": 115.1068182,
                "end_time": 115.3022727,
                "pitch": 38,
                "velocity": 64,
                "duration": 0.1954545,
                "tempo": 120.0
            },
            {
                "start_time": 115.3045455,
                "end_time": 115.5,
                "pitch": 38,
                "velocity": 64,
                "duration": 0.1954545,
                "tempo": 120.0
            },
            {
                "start_time": 115.5,
                "end_time": 115.7045455,
                "pitch": 38,
                "velocity": 64,
                "duration": 0.2045455,
                "tempo": 120.0
            },
            {
                "start_time": 115.7045455,
                "end_time": 115.9090909,
                "pitch": 38,
                "velocity": 64,
                "duration": 0.2045455,
                "tempo": 120.0
            },
            {
                "start_time": 115.9113636,
                "end_time": 116.1113636,
                "pitch": 38,
                "velocity": 64,
                "duration": 0.2,
                "tempo": 120.0
            },
            {
                "start_time": 116.1136364,
                "end_time": 116.3136364,
                "pitch": 38,
                "velocity": 64,
                "duration": 0.2,
                "tempo": 120.0
            },
            {
                "start_time": 116.3136364,
                "end_time": 116.5136364,
                "pitch": 38,
                "velocity": 64,
                "duration": 0.2,
                "tempo": 120.0
            },
            {
                "start_time": 116.5136364,
                "end_time": 116.7136364,
                "pitch": 38,
                "velocity": 64,
                "duration": 0.2,
                "tempo": 120.0
            },
            {
                "start_time": 116.7159091,
                "end_time": 116.9159091,
                "pitch": 38,
                "velocity": 64,
                "duration": 0.2,
                "tempo": 120.0
            },
            {
                "start_time": 116.9159091,
                "end_time": 117.1181818,
                "pitch": 38,
                "velocity": 64,
                "duration": 0.2022727,
                "tempo": 120.0
            },
            {
                "start_time": 117.1181818,
                "end_time": 117.3181818,
                "pitch": 38,
                "velocity": 64,
                "duration": 0.2,
                "tempo": 120.0
            },
            {
                "start_time": 117.3181818,
                "end_time": 117.5181818,
                "pitch": 38,
                "velocity": 64,
                "duration": 0.2,
                "tempo": 120.0
            },
            {
                "start_time": 117.5181818,
                "end_time": 117.7204545,
                "pitch": 36,
                "velocity": 64,
                "duration": 0.2022727,
                "tempo": 120.0
            },
            {
                "start_time": 117.7204545,
                "end_time": 117.9204545,
                "pitch": 36,
                "velocity": 64,
                "duration": 0.2,
                "tempo": 120.0
            },
            {
                "start_time": 117.9227273,
                "end_time": 118.1227273,
                "pitch": 36,
                "velocity": 64,
                "duration": 0.2,
                "tempo": 120.0
            },
            {
                "start_time": 118.125,
                "end_time": 118.325,
                "pitch": 36,
                "velocity": 64,
                "duration": 0.2,
                "tempo": 120.0
            },
            {
                "start_time": 118.325,
                "end_time": 118.525,
                "pitch": 36,
                "velocity": 64,
                "duration": 0.2,
                "tempo": 120.0
            },
            {
                "start_time": 118.525,
                "end_time": 118.725,
                "pitch": 36,
                "velocity": 64,
                "duration": 0.2,
                "tempo": 120.0
            },
            {
                "start_time": 118.725,
                "end_time": 118.9272727,
                "pitch": 36,
                "velocity": 64,
                "duration": 0.2022727,
                "tempo": 120.0
            },
            {
                "start_time": 118.9272727,
                "end_time": 119.1272727,
                "pitch": 36,
                "velocity": 64,
                "duration": 0.2,
                "tempo": 120.0
            },
            {
                "start_time": 119.1295455,
                "end_time": 119.3272727,
                "pitch": 36,
                "velocity": 64,
                "duration": 0.1977273,
                "tempo": 120.0
            },
            {
                "start_time": 119.3295455,
                "end_time": 119.5295455,
                "pitch": 36,
                "velocity": 64,
                "duration": 0.2,
                "tempo": 120.0
            },
            {
                "start_time": 119.5295455,
                "end_time": 119.7295455,
                "pitch": 36,
                "velocity": 64,
                "duration": 0.2,
                "tempo": 120.0
            },
            {
                "start_time": 119.7318182,
                "end_time": 119.9318182,
                "pitch": 36,
                "velocity": 64,
                "duration": 0.2,
                "tempo": 120.0
            },
            {
                "start_time": 119.9318182,
                "end_time": 120.1340909,
                "pitch": 36,
                "velocity": 64,
                "duration": 0.2022727,
                "tempo": 120.0
            },
            {
                "start_time": 120.1340909,
                "end_time": 120.3340909,
                "pitch": 36,
                "velocity": 64,
                "duration": 0.2,
                "tempo": 120.0
            },
            {
                "start_time": 120.3363636,
                "end_time": 120.5363636,
                "pitch": 36,
                "velocity": 64,
                "duration": 0.2,
                "tempo": 120.0
            },
            {
                "start_time": 120.5363636,
                "end_time": 120.7363636,
                "pitch": 36,
                "velocity": 64,
                "duration": 0.2,
                "tempo": 120.0
            },
            {
                "start_time": 120.7363636,
                "end_time": 120.9363636,
                "pitch": 38,
                "velocity": 64,
                "duration": 0.2,
                "tempo": 120.0
            },
            {
                "start_time": 120.9386364,
                "end_time": 121.1386364,
                "pitch": 38,
                "velocity": 64,
                "duration": 0.2,
                "tempo": 120.0
            },
            {
                "start_time": 121.1386364,
                "end_time": 121.3386364,
                "pitch": 38,
                "velocity": 64,
                "duration": 0.2,
                "tempo": 120.0
            },
            {
                "start_time": 121.3386364,
                "end_time": 121.5386364,
                "pitch": 38,
                "velocity": 64,
                "duration": 0.2,
                "tempo": 120.0
            },
            {
                "start_time": 121.5409091,
                "end_time": 121.7409091,
                "pitch": 38,
                "velocity": 64,
                "duration": 0.2,
                "tempo": 120.0
            },
            {
                "start_time": 121.7409091,
                "end_time": 121.9431818,
                "pitch": 38,
                "velocity": 64,
                "duration": 0.2022727,
                "tempo": 120.0
            },
            {
                "start_time": 121.9431818,
                "end_time": 122.1477273,
                "pitch": 38,
                "velocity": 64,
                "duration": 0.2045455,
                "tempo": 120.0
            },
            {
                "start_time": 122.1477273,
                "end_time": 122.3545455,
                "pitch": 38,
                "velocity": 64,
                "duration": 0.2068182,
                "tempo": 120.0
            },
            {
                "start_time": 122.3545455,
                "end_time": 122.55,
                "pitch": 38,
                "velocity": 64,
                "duration": 0.1954545,
                "tempo": 120.0
            },
            {
                "start_time": 122.5522727,
                "end_time": 122.7454545,
                "pitch": 38,
                "velocity": 64,
                "duration": 0.1931818,
                "tempo": 120.0
            },
            {
                "start_time": 122.7477273,
                "end_time": 122.9522727,
                "pitch": 38,
                "velocity": 64,
                "duration": 0.2045455,
                "tempo": 120.0
            },
            {
                "start_time": 122.9522727,
                "end_time": 123.1568182,
                "pitch": 38,
                "velocity": 64,
                "duration": 0.2045455,
                "tempo": 120.0
            },
            {
                "start_time": 123.1568182,
                "end_time": 123.3590909,
                "pitch": 38,
                "velocity": 64,
                "duration": 0.2022727,
                "tempo": 120.0
            },
            {
                "start_time": 123.3613636,
                "end_time": 123.5613636,
                "pitch": 38,
                "velocity": 64,
                "duration": 0.2,
                "tempo": 120.0
            },
            {
                "start_time": 123.5613636,
                "end_time": 123.7613636,
                "pitch": 38,
                "velocity": 64,
                "duration": 0.2,
                "tempo": 120.0
            },
            {
                "start_time": 123.7636364,
                "end_time": 123.9636364,
                "pitch": 31,
                "velocity": 64,
                "duration": 0.2,
                "tempo": 120.0
            },
            {
                "start_time": 123.9636364,
                "end_time": 124.1636364,
                "pitch": 31,
                "velocity": 64,
                "duration": 0.2,
                "tempo": 120.0
            },
            {
                "start_time": 124.1636364,
                "end_time": 124.3636364,
                "pitch": 31,
                "velocity": 64,
                "duration": 0.2,
                "tempo": 120.0
            },
            {
                "start_time": 124.3659091,
                "end_time": 124.5659091,
                "pitch": 31,
                "velocity": 64,
                "duration": 0.2,
                "tempo": 120.0
            },
            {
                "start_time": 124.5659091,
                "end_time": 124.7681818,
                "pitch": 31,
                "velocity": 64,
                "duration": 0.2022727,
                "tempo": 120.0
            },
            {
                "start_time": 124.7681818,
                "end_time": 124.9681818,
                "pitch": 31,
                "velocity": 64,
                "duration": 0.2,
                "tempo": 120.0
            },
            {
                "start_time": 124.9681818,
                "end_time": 125.1681818,
                "pitch": 31,
                "velocity": 64,
                "duration": 0.2,
                "tempo": 120.0
            },
            {
                "start_time": 125.1681818,
                "end_time": 125.3704545,
                "pitch": 31,
                "velocity": 64,
                "duration": 0.2022727,
                "tempo": 120.0
            },
            {
                "start_time": 125.3704545,
                "end_time": 125.5704545,
                "pitch": 28,
                "velocity": 64,
                "duration": 0.2,
                "tempo": 120.0
            },
            {
                "start_time": 125.5727273,
                "end_time": 125.7727273,
                "pitch": 28,
                "velocity": 64,
                "duration": 0.2,
                "tempo": 120.0
            },
            {
                "start_time": 125.7727273,
                "end_time": 125.975,
                "pitch": 28,
                "velocity": 64,
                "duration": 0.2022727,
                "tempo": 120.0
            },
            {
                "start_time": 125.975,
                "end_time": 126.175,
                "pitch": 28,
                "velocity": 64,
                "duration": 0.2,
                "tempo": 120.0
            },
            {
                "start_time": 126.175,
                "end_time": 126.375,
                "pitch": 28,
                "velocity": 64,
                "duration": 0.2,
                "tempo": 120.0
            },
            {
                "start_time": 126.375,
                "end_time": 126.5772727,
                "pitch": 28,
                "velocity": 64,
                "duration": 0.2022727,
                "tempo": 120.0
            },
            {
                "start_time": 126.5772727,
                "end_time": 126.7772727,
                "pitch": 28,
                "velocity": 64,
                "duration": 0.2,
                "tempo": 120.0
            },
            {
                "start_time": 126.7795455,
                "end_time": 126.9772727,
                "pitch": 28,
                "velocity": 64,
                "duration": 0.1977273,
                "tempo": 120.0
            },
            {
                "start_time": 126.9795455,
                "end_time": 127.1795455,
                "pitch": 28,
                "velocity": 64,
                "duration": 0.2,
                "tempo": 120.0
            },
            {
                "start_time": 127.1795455,
                "end_time": 127.3681818,
                "pitch": 33,
                "velocity": 64,
                "duration": 0.1886364,
                "tempo": 120.0
            },
            {
                "start_time": 127.3681818,
                "end_time": 127.5727273,
                "pitch": 33,
                "velocity": 64,
                "duration": 0.2045455,
                "tempo": 120.0
            },
            {
                "start_time": 127.575,
                "end_time": 127.7704545,
                "pitch": 33,
                "velocity": 64,
                "duration": 0.1954545,
                "tempo": 120.0
            },
            {
                "start_time": 127.7727273,
                "end_time": 127.9659091,
                "pitch": 33,
                "velocity": 64,
                "duration": 0.1931818,
                "tempo": 120.0
            },
            {
                "start_time": 127.9681818,
                "end_time": 128.1681818,
                "pitch": 33,
                "velocity": 64,
                "duration": 0.2,
                "tempo": 120.0
            },
            {
                "start_time": 128.1681818,
                "end_time": 128.3681818,
                "pitch": 33,
                "velocity": 64,
                "duration": 0.2,
                "tempo": 120.0
            },
            {
                "start_time": 128.3681818,
                "end_time": 128.5681818,
                "pitch": 33,
                "velocity": 64,
                "duration": 0.2,
                "tempo": 120.0
            },
            {
                "start_time": 128.5704545,
                "end_time": 128.7704545,
                "pitch": 33,
                "velocity": 64,
                "duration": 0.2,
                "tempo": 120.0
            },
            {
                "start_time": 128.7704545,
                "end_time": 128.9727273,
                "pitch": 33,
                "velocity": 64,
                "duration": 0.2022727,
                "tempo": 120.0
            },
            {
                "start_time": 128.9727273,
                "end_time": 129.175,
                "pitch": 33,
                "velocity": 64,
                "duration": 0.2022727,
                "tempo": 120.0
            },
            {
                "start_time": 129.175,
                "end_time": 129.375,
                "pitch": 33,
                "velocity": 64,
                "duration": 0.2,
                "tempo": 120.0
            },
            {
                "start_time": 129.375,
                "end_time": 129.5772727,
                "pitch": 33,
                "velocity": 64,
                "duration": 0.2022727,
                "tempo": 120.0
            },
            {
                "start_time": 129.5772727,
                "end_time": 129.7772727,
                "pitch": 33,
                "velocity": 64,
                "duration": 0.2,
                "tempo": 120.0
            },
            {
                "start_time": 129.7772727,
                "end_time": 129.9772727,
                "pitch": 33,
                "velocity": 64,
                "duration": 0.2,
                "tempo": 120.0
            },
            {
                "start_time": 129.9772727,
                "end_time": 130.1818182,
                "pitch": 33,
                "velocity": 64,
                "duration": 0.2045455,
                "tempo": 120.0
            },
            {
                "start_time": 130.1818182,
                "end_time": 130.3886364,
                "pitch": 33,
                "velocity": 64,
                "duration": 0.2068182,
                "tempo": 120.0
            },
            {
                "start_time": 130.3886364,
                "end_time": 130.5909091,
                "pitch": 29,
                "velocity": 64,
                "duration": 0.2022727,
                "tempo": 120.0
            },
            {
                "start_time": 130.5909091,
                "end_time": 130.7909091,
                "pitch": 29,
                "velocity": 64,
                "duration": 0.2,
                "tempo": 120.0
            },
            {
                "start_time": 130.7931818,
                "end_time": 130.9931818,
                "pitch": 29,
                "velocity": 64,
                "duration": 0.2,
                "tempo": 120.0
            },
            {
                "start_time": 130.9954545,
                "end_time": 131.1954545,
                "pitch": 29,
                "velocity": 64,
                "duration": 0.2,
                "tempo": 120.0
            },
            {
                "start_time": 131.1954545,
                "end_time": 131.3931818,
                "pitch": 29,
                "velocity": 64,
                "duration": 0.1977273,
                "tempo": 120.0
            },
            {
                "start_time": 131.3931818,
                "end_time": 131.5886364,
                "pitch": 29,
                "velocity": 64,
                "duration": 0.1954545,
                "tempo": 120.0
            },
            {
                "start_time": 131.5909091,
                "end_time": 131.7931818,
                "pitch": 29,
                "velocity": 64,
                "duration": 0.2022727,
                "tempo": 120.0
            },
            {
                "start_time": 131.7931818,
                "end_time": 131.9977273,
                "pitch": 29,
                "velocity": 64,
                "duration": 0.2045455,
                "tempo": 120.0
            },
            {
                "start_time": 132.0,
                "end_time": 132.2,
                "pitch": 29,
                "velocity": 64,
                "duration": 0.2,
                "tempo": 120.0
            },
            {
                "start_time": 132.2,
                "end_time": 132.4,
                "pitch": 29,
                "velocity": 64,
                "duration": 0.2,
                "tempo": 120.0
            },
            {
                "start_time": 132.4,
                "end_time": 132.6,
                "pitch": 29,
                "velocity": 64,
                "duration": 0.2,
                "tempo": 120.0
            },
            {
                "start_time": 132.6022727,
                "end_time": 132.8022727,
                "pitch": 29,
                "velocity": 64,
                "duration": 0.2,
                "tempo": 120.0
            },
            {
                "start_time": 132.8045455,
                "end_time": 133.0045455,
                "pitch": 29,
                "velocity": 64,
                "duration": 0.2,
                "tempo": 120.0
            },
            {
                "start_time": 133.0045455,
                "end_time": 133.2068182,
                "pitch": 29,
                "velocity": 64,
                "duration": 0.2022727,
                "tempo": 120.0
            },
            {
                "start_time": 133.2068182,
                "end_time": 133.4068182,
                "pitch": 29,
                "velocity": 64,
                "duration": 0.2,
                "tempo": 120.0
            },
            {
                "start_time": 133.4090909,
                "end_time": 133.6090909,
                "pitch": 29,
                "velocity": 64,
                "duration": 0.2,
                "tempo": 120.0
            },
            {
                "start_time": 133.6090909,
                "end_time": 133.8113636,
                "pitch": 31,
                "velocity": 64,
                "duration": 0.2022727,
                "tempo": 120.0
            },
            {
                "start_time": 133.8113636,
                "end_time": 134.0113636,
                "pitch": 31,
                "velocity": 64,
                "duration": 0.2,
                "tempo": 120.0
            },
            {
                "start_time": 134.0136364,
                "end_time": 134.2136364,
                "pitch": 31,
                "velocity": 64,
                "duration": 0.2,
                "tempo": 120.0
            },
            {
                "start_time": 134.2136364,
                "end_time": 134.4136364,
                "pitch": 31,
                "velocity": 64,
                "duration": 0.2,
                "tempo": 120.0
            },
            {
                "start_time": 134.4136364,
                "end_time": 134.6159091,
                "pitch": 31,
                "velocity": 64,
                "duration": 0.2022727,
                "tempo": 120.0
            },
            {
                "start_time": 134.6159091,
                "end_time": 134.8159091,
                "pitch": 31,
                "velocity": 64,
                "duration": 0.2,
                "tempo": 120.0
            },
            {
                "start_time": 134.8159091,
                "end_time": 135.0181818,
                "pitch": 31,
                "velocity": 64,
                "duration": 0.2022727,
                "tempo": 120.0
            },
            {
                "start_time": 135.0181818,
                "end_time": 135.2181818,
                "pitch": 31,
                "velocity": 64,
                "duration": 0.2,
                "tempo": 120.0
            },
            {
                "start_time": 135.2204545,
                "end_time": 135.4204545,
                "pitch": 31,
                "velocity": 64,
                "duration": 0.2,
                "tempo": 120.0
            },
            {
                "start_time": 135.4204545,
                "end_time": 135.6227273,
                "pitch": 31,
                "velocity": 64,
                "duration": 0.2022727,
                "tempo": 120.0
            },
            {
                "start_time": 135.6227273,
                "end_time": 135.8227273,
                "pitch": 31,
                "velocity": 64,
                "duration": 0.2,
                "tempo": 120.0
            },
            {
                "start_time": 135.825,
                "end_time": 136.025,
                "pitch": 31,
                "velocity": 64,
                "duration": 0.2,
                "tempo": 120.0
            },
            {
                "start_time": 136.0272727,
                "end_time": 136.2272727,
                "pitch": 31,
                "velocity": 64,
                "duration": 0.2,
                "tempo": 120.0
            },
            {
                "start_time": 136.2272727,
                "end_time": 136.425,
                "pitch": 31,
                "velocity": 64,
                "duration": 0.1977273,
                "tempo": 120.0
            },
            {
                "start_time": 136.4272727,
                "end_time": 136.6272727,
                "pitch": 31,
                "velocity": 64,
                "duration": 0.2,
                "tempo": 120.0
            },
            {
                "start_time": 136.6272727,
                "end_time": 136.8295455,
                "pitch": 31,
                "velocity": 64,
                "duration": 0.2022727,
                "tempo": 120.0
            },
            {
                "start_time": 136.8295455,
                "end_time": 137.0318182,
                "pitch": 36,
                "velocity": 64,
                "duration": 0.2022727,
                "tempo": 120.0
            },
            {
                "start_time": 137.0318182,
                "end_time": 137.2318182,
                "pitch": 36,
                "velocity": 64,
                "duration": 0.2,
                "tempo": 120.0
            },
            {
                "start_time": 137.2340909,
                "end_time": 137.4386364,
                "pitch": 36,
                "velocity": 64,
                "duration": 0.2045455,
                "tempo": 120.0
            },
            {
                "start_time": 137.4386364,
                "end_time": 137.6431818,
                "pitch": 36,
                "velocity": 64,
                "duration": 0.2045455,
                "tempo": 120.0
            },
            {
                "start_time": 137.6431818,
                "end_time": 137.8409091,
                "pitch": 36,
                "velocity": 64,
                "duration": 0.1977273,
                "tempo": 120.0
            },
            {
                "start_time": 137.8409091,
                "end_time": 138.0363636,
                "pitch": 36,
                "velocity": 64,
                "duration": 0.1954545,
                "tempo": 120.0
            },
            {
                "start_time": 138.0386364,
                "end_time": 138.2409091,
                "pitch": 36,
                "velocity": 64,
                "duration": 0.2022727,
                "tempo": 120.0
            },
            {
                "start_time": 138.2409091,
                "end_time": 138.4477273,
                "pitch": 36,
                "velocity": 64,
                "duration": 0.2068182,
                "tempo": 120.0
            },
            {
                "start_time": 138.4477273,
                "end_time": 138.65,
                "pitch": 36,
                "velocity": 64,
                "duration": 0.2022727,
                "tempo": 120.0
            },
            {
                "start_time": 138.65,
                "end_time": 138.85,
                "pitch": 36,
                "velocity": 64,
                "duration": 0.2,
                "tempo": 120.0
            },
            {
                "start_time": 138.8522727,
                "end_time": 139.0522727,
                "pitch": 36,
                "velocity": 64,
                "duration": 0.2,
                "tempo": 120.0
            },
            {
                "start_time": 139.0522727,
                "end_time": 139.2522727,
                "pitch": 36,
                "velocity": 64,
                "duration": 0.2,
                "tempo": 120.0
            },
            {
                "start_time": 139.2522727,
                "end_time": 139.4522727,
                "pitch": 36,
                "velocity": 64,
                "duration": 0.2,
                "tempo": 120.0
            },
            {
                "start_time": 139.4545455,
                "end_time": 139.6545455,
                "pitch": 36,
                "velocity": 64,
                "duration": 0.2,
                "tempo": 120.0
            },
            {
                "start_time": 139.6545455,
                "end_time": 139.8568182,
                "pitch": 36,
                "velocity": 64,
                "duration": 0.2022727,
                "tempo": 120.0
            },
            {
                "start_time": 139.8568182,
                "end_time": 140.0590909,
                "pitch": 36,
                "velocity": 64,
                "duration": 0.2022727,
                "tempo": 120.0
            },
            {
                "start_time": 140.0590909,
                "end_time": 140.2590909,
                "pitch": 38,
                "velocity": 64,
                "duration": 0.2,
                "tempo": 120.0
            },
            {
                "start_time": 140.2613636,
                "end_time": 140.4613636,
                "pitch": 38,
                "velocity": 64,
                "duration": 0.2,
                "tempo": 120.0
            },
            {
                "start_time": 140.4613636,
                "end_time": 140.6636364,
                "pitch": 38,
                "velocity": 64,
                "duration": 0.2022727,
                "tempo": 120.0
            },
            {
                "start_time": 140.6636364,
                "end_time": 140.8636364,
                "pitch": 38,
                "velocity": 64,
                "duration": 0.2,
                "tempo": 120.0
            },
            {
                "start_time": 140.8659091,
                "end_time": 141.0659091,
                "pitch": 38,
                "velocity": 64,
                "duration": 0.2,
                "tempo": 120.0
            },
            {
                "start_time": 141.0659091,
                "end_time": 141.2659091,
                "pitch": 38,
                "velocity": 64,
                "duration": 0.2,
                "tempo": 120.0
            },
            {
                "start_time": 141.2659091,
                "end_time": 141.4659091,
                "pitch": 38,
                "velocity": 64,
                "duration": 0.2,
                "tempo": 120.0
            },
            {
                "start_time": 141.4681818,
                "end_time": 141.6681818,
                "pitch": 38,
                "velocity": 64,
                "duration": 0.2,
                "tempo": 120.0
            },
            {
                "start_time": 141.6681818,
                "end_time": 141.8681818,
                "pitch": 38,
                "velocity": 64,
                "duration": 0.2,
                "tempo": 120.0
            },
            {
                "start_time": 141.8704545,
                "end_time": 142.0704545,
                "pitch": 38,
                "velocity": 64,
                "duration": 0.2,
                "tempo": 120.0
            },
            {
                "start_time": 142.0704545,
                "end_time": 142.2727273,
                "pitch": 38,
                "velocity": 64,
                "duration": 0.2022727,
                "tempo": 120.0
            },
            {
                "start_time": 142.2727273,
                "end_time": 142.4727273,
                "pitch": 38,
                "velocity": 64,
                "duration": 0.2,
                "tempo": 120.0
            },
            {
                "start_time": 142.475,
                "end_time": 142.675,
                "pitch": 38,
                "velocity": 64,
                "duration": 0.2,
                "tempo": 120.0
            },
            {
                "start_time": 142.675,
                "end_time": 142.8772727,
                "pitch": 38,
                "velocity": 64,
                "duration": 0.2022727,
                "tempo": 120.0
            },
            {
                "start_time": 142.8772727,
                "end_time": 143.0772727,
                "pitch": 38,
                "velocity": 64,
                "duration": 0.2,
                "tempo": 120.0
            },
            {
                "start_time": 143.0772727,
                "end_time": 143.2772727,
                "pitch": 38,
                "velocity": 64,
                "duration": 0.2,
                "tempo": 120.0
            },
            {
                "start_time": 143.2795455,
                "end_time": 143.4795455,
                "pitch": 36,
                "velocity": 64,
                "duration": 0.2,
                "tempo": 120.0
            },
            {
                "start_time": 143.4818182,
                "end_time": 143.6818182,
                "pitch": 36,
                "velocity": 64,
                "duration": 0.2,
                "tempo": 120.0
            },
            {
                "start_time": 143.6818182,
                "end_time": 143.8840909,
                "pitch": 36,
                "velocity": 64,
                "duration": 0.2022727,
                "tempo": 120.0
            },
            {
                "start_time": 143.8840909,
                "end_time": 144.0840909,
                "pitch": 36,
                "velocity": 64,
                "duration": 0.2,
                "tempo": 120.0
            },
            {
                "start_time": 144.0863636,
                "end_time": 144.2863636,
                "pitch": 36,
                "velocity": 64,
                "duration": 0.2,
                "tempo": 120.0
            },
            {
                "start_time": 144.2863636,
                "end_time": 144.4886364,
                "pitch": 36,
                "velocity": 64,
                "duration": 0.2022727,
                "tempo": 120.0
            },
            {
                "start_time": 144.4886364,
                "end_time": 144.6886364,
                "pitch": 36,
                "velocity": 64,
                "duration": 0.2,
                "tempo": 120.0
            },
            {
                "start_time": 144.6909091,
                "end_time": 144.8909091,
                "pitch": 36,
                "velocity": 64,
                "duration": 0.2,
                "tempo": 120.0
            },
            {
                "start_time": 144.8909091,
                "end_time": 145.0909091,
                "pitch": 36,
                "velocity": 64,
                "duration": 0.2,
                "tempo": 120.0
            },
            {
                "start_time": 145.0909091,
                "end_time": 145.2909091,
                "pitch": 36,
                "velocity": 64,
                "duration": 0.2,
                "tempo": 120.0
            },
            {
                "start_time": 145.2909091,
                "end_time": 145.4954545,
                "pitch": 36,
                "velocity": 64,
                "duration": 0.2045455,
                "tempo": 120.0
            },
            {
                "start_time": 145.4954545,
                "end_time": 145.7022727,
                "pitch": 36,
                "velocity": 64,
                "duration": 0.2068182,
                "tempo": 120.0
            },
            {
                "start_time": 145.7022727,
                "end_time": 145.9,
                "pitch": 36,
                "velocity": 64,
                "duration": 0.1977273,
                "tempo": 120.0
            },
            {
                "start_time": 145.9,
                "end_time": 146.0954545,
                "pitch": 36,
                "velocity": 64,
                "duration": 0.1954545,
                "tempo": 120.0
            },
            {
                "start_time": 146.0954545,
                "end_time": 146.3,
                "pitch": 36,
                "velocity": 64,
                "duration": 0.2045455,
                "tempo": 120.0
            },
            {
                "start_time": 146.3,
                "end_time": 146.5068182,
                "pitch": 36,
                "velocity": 64,
                "duration": 0.2068182,
                "tempo": 120.0
            },
            {
                "start_time": 146.5068182,
                "end_time": 146.7090909,
                "pitch": 38,
                "velocity": 64,
                "duration": 0.2022727,
                "tempo": 120.0
            },
            {
                "start_time": 146.7090909,
                "end_time": 146.9090909,
                "pitch": 38,
                "velocity": 64,
                "duration": 0.2,
                "tempo": 120.0
            },
            {
                "start_time": 146.9113636,
                "end_time": 147.1113636,
                "pitch": 38,
                "velocity": 64,
                "duration": 0.2,
                "tempo": 120.0
            },
            {
                "start_time": 147.1113636,
                "end_time": 147.3136364,
                "pitch": 38,
                "velocity": 64,
                "duration": 0.2022727,
                "tempo": 120.0
            },
            {
                "start_time": 147.3136364,
                "end_time": 147.5136364,
                "pitch": 38,
                "velocity": 64,
                "duration": 0.2,
                "tempo": 120.0
            },
            {
                "start_time": 147.5136364,
                "end_time": 147.7136364,
                "pitch": 38,
                "velocity": 64,
                "duration": 0.2,
                "tempo": 120.0
            },
            {
                "start_time": 147.7136364,
                "end_time": 147.9159091,
                "pitch": 38,
                "velocity": 64,
                "duration": 0.2022727,
                "tempo": 120.0
            },
            {
                "start_time": 147.9159091,
                "end_time": 148.1159091,
                "pitch": 35,
                "velocity": 64,
                "duration": 0.2,
                "tempo": 120.0
            },
            {
                "start_time": 148.1181818,
                "end_time": 148.3181818,
                "pitch": 35,
                "velocity": 64,
                "duration": 0.2,
                "tempo": 120.0
            },
            {
                "start_time": 148.3204545,
                "end_time": 148.5204545,
                "pitch": 35,
                "velocity": 64,
                "duration": 0.2,
                "tempo": 120.0
            },
            {
                "start_time": 148.5204545,
                "end_time": 148.7227273,
                "pitch": 35,
                "velocity": 64,
                "duration": 0.2022727,
                "tempo": 120.0
            },
            {
                "start_time": 148.7227273,
                "end_time": 148.9227273,
                "pitch": 35,
                "velocity": 64,
                "duration": 0.2,
                "tempo": 120.0
            },
            {
                "start_time": 148.9227273,
                "end_time": 149.125,
                "pitch": 35,
                "velocity": 64,
                "duration": 0.2022727,
                "tempo": 120.0
            },
            {
                "start_time": 149.125,
                "end_time": 149.3272727,
                "pitch": 35,
                "velocity": 64,
                "duration": 0.2022727,
                "tempo": 120.0
            },
            {
                "start_time": 149.3272727,
                "end_time": 149.5272727,
                "pitch": 35,
                "velocity": 64,
                "duration": 0.2,
                "tempo": 120.0
            },
            {
                "start_time": 149.5272727,
                "end_time": 149.7272727,
                "pitch": 28,
                "velocity": 64,
                "duration": 0.2,
                "tempo": 120.0
            },
            {
                "start_time": 149.7272727,
                "end_time": 149.9272727,
                "pitch": 28,
                "velocity": 64,
                "duration": 0.2,
                "tempo": 120.0
            },
            {
                "start_time": 149.9295455,
                "end_time": 150.1295455,
                "pitch": 28,
                "velocity": 64,
                "duration": 0.2,
                "tempo": 120.0
            },
            {
                "start_time": 150.1295455,
                "end_time": 150.3318182,
                "pitch": 28,
                "velocity": 64,
                "duration": 0.2022727,
                "tempo": 120.0
            },
            {
                "start_time": 150.3318182,
                "end_time": 150.5318182,
                "pitch": 28,
                "velocity": 64,
                "duration": 0.2,
                "tempo": 120.0
            },
            {
                "start_time": 150.5340909,
                "end_time": 150.7340909,
                "pitch": 28,
                "velocity": 64,
                "duration": 0.2,
                "tempo": 120.0
            },
            {
                "start_time": 150.7340909,
                "end_time": 150.9363636,
                "pitch": 28,
                "velocity": 64,
                "duration": 0.2022727,
                "tempo": 120.0
            },
            {
                "start_time": 150.9363636,
                "end_time": 151.1386364,
                "pitch": 28,
                "velocity": 64,
                "duration": 0.2022727,
                "tempo": 120.0
            },
            {
                "start_time": 151.1386364,
                "end_time": 151.5386364,
                "pitch": 28,
                "velocity": 64,
                "duration": 0.4,
                "tempo": 120.0
            },
            {
                "start_time": 151.5409091,
                "end_time": 151.7386364,
                "pitch": 28,
                "velocity": 64,
                "duration": 0.1977273,
                "tempo": 120.0
            },
            {
                "start_time": 151.7409091,
                "end_time": 151.9431818,
                "pitch": 28,
                "velocity": 64,
                "duration": 0.2022727,
                "tempo": 120.0
            },
            {
                "start_time": 151.9454545,
                "end_time": 152.15,
                "pitch": 28,
                "velocity": 64,
                "duration": 0.2045455,
                "tempo": 120.0
            },
            {
                "start_time": 152.15,
                "end_time": 152.3477273,
                "pitch": 28,
                "velocity": 64,
                "duration": 0.1977273,
                "tempo": 120.0
            },
            {
                "start_time": 152.3477273,
                "end_time": 152.5431818,
                "pitch": 28,
                "velocity": 64,
                "duration": 0.1954545,
                "tempo": 120.0
            },
            {
                "start_time": 152.5454545,
                "end_time": 152.7477273,
                "pitch": 28,
                "velocity": 64,
                "duration": 0.2022727,
                "tempo": 120.0
            },
            {
                "start_time": 152.7477273,
                "end_time": 152.9522727,
                "pitch": 28,
                "velocity": 64,
                "duration": 0.2045455,
                "tempo": 120.0
            },
            {
                "start_time": 153.3477273,
                "end_time": 153.95,
                "pitch": 29,
                "velocity": 64,
                "duration": 0.6022727,
                "tempo": 120.0
            },
            {
                "start_time": 153.95,
                "end_time": 154.15,
                "pitch": 29,
                "velocity": 64,
                "duration": 0.2,
                "tempo": 120.0
            },
            {
                "start_time": 154.1522727,
                "end_time": 154.3568182,
                "pitch": 33,
                "velocity": 64,
                "duration": 0.2045455,
                "tempo": 120.0
            },
            {
                "start_time": 154.3568182,
                "end_time": 154.5613636,
                "pitch": 36,
                "velocity": 64,
                "duration": 0.2045455,
                "tempo": 120.0
            },
            {
                "start_time": 154.5636364,
                "end_time": 154.7636364,
                "pitch": 31,
                "velocity": 64,
                "duration": 0.2,
                "tempo": 120.0
            },
            {
                "start_time": 154.7659091,
                "end_time": 154.9659091,
                "pitch": 43,
                "velocity": 64,
                "duration": 0.2,
                "tempo": 120.0
            },
            {
                "start_time": 154.9659091,
                "end_time": 155.1681818,
                "pitch": 38,
                "velocity": 64,
                "duration": 0.2022727,
                "tempo": 120.0
            },
            {
                "start_time": 155.1681818,
                "end_time": 155.3681818,
                "pitch": 35,
                "velocity": 64,
                "duration": 0.2,
                "tempo": 120.0
            },
            {
                "start_time": 155.3681818,
                "end_time": 155.5704545,
                "pitch": 31,
                "velocity": 64,
                "duration": 0.2022727,
                "tempo": 120.0
            },
            {
                "start_time": 155.5704545,
                "end_time": 155.7727273,
                "pitch": 33,
                "velocity": 64,
                "duration": 0.2022727,
                "tempo": 120.0
            },
            {
                "start_time": 155.7727273,
                "end_time": 155.9727273,
                "pitch": 35,
                "velocity": 64,
                "duration": 0.2,
                "tempo": 120.0
            },
            {
                "start_time": 155.975,
                "end_time": 156.175,
                "pitch": 31,
                "velocity": 64,
                "duration": 0.2,
                "tempo": 120.0
            },
            {
                "start_time": 156.1772727,
                "end_time": 156.375,
                "pitch": 36,
                "velocity": 64,
                "duration": 0.1977273,
                "tempo": 120.0
            },
            {
                "start_time": 156.3772727,
                "end_time": 156.575,
                "pitch": 36,
                "velocity": 64,
                "duration": 0.1977273,
                "tempo": 120.0
            },
            {
                "start_time": 156.5772727,
                "end_time": 156.7772727,
                "pitch": 36,
                "velocity": 64,
                "duration": 0.2,
                "tempo": 120.0
            },
            {
                "start_time": 156.7795455,
                "end_time": 157.1818182,
                "pitch": 35,
                "velocity": 64,
                "duration": 0.4022727,
                "tempo": 120.0
            },
            {
                "start_time": 157.1818182,
                "end_time": 157.3818182,
                "pitch": 35,
                "velocity": 64,
                "duration": 0.2,
                "tempo": 120.0
            },
            {
                "start_time": 157.3818182,
                "end_time": 157.5840909,
                "pitch": 35,
                "velocity": 64,
                "duration": 0.2022727,
                "tempo": 120.0
            },
            {
                "start_time": 157.5840909,
                "end_time": 157.7863636,
                "pitch": 35,
                "velocity": 64,
                "duration": 0.2022727,
                "tempo": 120.0
            },
            {
                "start_time": 157.7863636,
                "end_time": 157.9863636,
                "pitch": 33,
                "velocity": 64,
                "duration": 0.2,
                "tempo": 120.0
            },
            {
                "start_time": 157.9886364,
                "end_time": 158.1886364,
                "pitch": 33,
                "velocity": 64,
                "duration": 0.2,
                "tempo": 120.0
            },
            {
                "start_time": 158.1886364,
                "end_time": 158.3886364,
                "pitch": 33,
                "velocity": 64,
                "duration": 0.2,
                "tempo": 120.0
            },
            {
                "start_time": 158.3909091,
                "end_time": 158.7909091,
                "pitch": 31,
                "velocity": 64,
                "duration": 0.4,
                "tempo": 120.0
            },
            {
                "start_time": 158.7909091,
                "end_time": 158.9909091,
                "pitch": 31,
                "velocity": 64,
                "duration": 0.2,
                "tempo": 120.0
            },
            {
                "start_time": 158.9931818,
                "end_time": 159.1931818,
                "pitch": 31,
                "velocity": 64,
                "duration": 0.2,
                "tempo": 120.0
            },
            {
                "start_time": 159.1931818,
                "end_time": 159.3954545,
                "pitch": 31,
                "velocity": 64,
                "duration": 0.2022727,
                "tempo": 120.0
            },
            {
                "start_time": 159.3977273,
                "end_time": 159.6,
                "pitch": 29,
                "velocity": 64,
                "duration": 0.2022727,
                "tempo": 120.0
            },
            {
                "start_time": 159.6,
                "end_time": 159.8068182,
                "pitch": 29,
                "velocity": 64,
                "duration": 0.2068182,
                "tempo": 120.0
            },
            {
                "start_time": 159.8068182,
                "end_time": 160.0045455,
                "pitch": 33,
                "velocity": 64,
                "duration": 0.1977273,
                "tempo": 120.0
            },
            {
                "start_time": 160.0045455,
                "end_time": 160.1977273,
                "pitch": 36,
                "velocity": 64,
                "duration": 0.1931818,
                "tempo": 120.0
            },
            {
                "start_time": 160.2,
                "end_time": 160.4,
                "pitch": 41,
                "velocity": 64,
                "duration": 0.2,
                "tempo": 120.0
            },
            {
                "start_time": 160.4,
                "end_time": 160.6,
                "pitch": 29,
                "velocity": 64,
                "duration": 0.2,
                "tempo": 120.0
            },
            {
                "start_time": 160.6,
                "end_time": 160.8022727,
                "pitch": 36,
                "velocity": 64,
                "duration": 0.2022727,
                "tempo": 120.0
            },
            {
                "start_time": 160.8022727,
                "end_time": 161.2045455,
                "pitch": 28,
                "velocity": 64,
                "duration": 0.4022727,
                "tempo": 120.0
            },
            {
                "start_time": 161.2045455,
                "end_time": 161.4068182,
                "pitch": 29,
                "velocity": 64,
                "duration": 0.2022727,
                "tempo": 120.0
            },
            {
                "start_time": 161.4068182,
                "end_time": 161.6113636,
                "pitch": 32,
                "velocity": 64,
                "duration": 0.2045455,
                "tempo": 120.0
            },
            {
                "start_time": 161.6113636,
                "end_time": 161.8159091,
                "pitch": 35,
                "velocity": 64,
                "duration": 0.2045455,
                "tempo": 120.0
            },
            {
                "start_time": 161.8181818,
                "end_time": 162.0136364,
                "pitch": 38,
                "velocity": 64,
                "duration": 0.1954545,
                "tempo": 120.0
            },
            {
                "start_time": 162.0159091,
                "end_time": 162.2113636,
                "pitch": 41,
                "velocity": 64,
                "duration": 0.1954545,
                "tempo": 120.0
            },
            {
                "start_time": 162.2113636,
                "end_time": 162.4136364,
                "pitch": 40,
                "velocity": 64,
                "duration": 0.2022727,
                "tempo": 120.0
            },
            {
                "start_time": 162.4159091,
                "end_time": 162.6204545,
                "pitch": 38,
                "velocity": 64,
                "duration": 0.2045455,
                "tempo": 120.0
            },
            {
                "start_time": 162.6227273,
                "end_time": 162.8227273,
                "pitch": 33,
                "velocity": 64,
                "duration": 0.2,
                "tempo": 120.0
            },
            {
                "start_time": 162.8227273,
                "end_time": 163.025,
                "pitch": 35,
                "velocity": 64,
                "duration": 0.2022727,
                "tempo": 120.0
            },
            {
                "start_time": 163.025,
                "end_time": 163.225,
                "pitch": 36,
                "velocity": 64,
                "duration": 0.2,
                "tempo": 120.0
            },
            {
                "start_time": 163.225,
                "end_time": 163.425,
                "pitch": 33,
                "velocity": 64,
                "duration": 0.2,
                "tempo": 120.0
            },
            {
                "start_time": 163.4272727,
                "end_time": 163.6272727,
                "pitch": 31,
                "velocity": 64,
                "duration": 0.2,
                "tempo": 120.0
            },
            {
                "start_time": 163.6272727,
                "end_time": 163.8272727,
                "pitch": 33,
                "velocity": 64,
                "duration": 0.2,
                "tempo": 120.0
            },
            {
                "start_time": 163.8295455,
                "end_time": 164.0295455,
                "pitch": 35,
                "velocity": 64,
                "duration": 0.2,
                "tempo": 120.0
            },
            {
                "start_time": 164.0318182,
                "end_time": 164.2318182,
                "pitch": 26,
                "velocity": 64,
                "duration": 0.2,
                "tempo": 120.0
            },
            {
                "start_time": 164.2318182,
                "end_time": 164.4340909,
                "pitch": 26,
                "velocity": 64,
                "duration": 0.2022727,
                "tempo": 120.0
            },
            {
                "start_time": 164.4340909,
                "end_time": 164.6340909,
                "pitch": 33,
                "velocity": 64,
                "duration": 0.2,
                "tempo": 120.0
            },
            {
                "start_time": 164.6363636,
                "end_time": 164.8363636,
                "pitch": 38,
                "velocity": 64,
                "duration": 0.2,
                "tempo": 120.0
            },
            {
                "start_time": 164.8386364,
                "end_time": 165.0386364,
                "pitch": 28,
                "velocity": 64,
                "duration": 0.2,
                "tempo": 120.0
            },
            {
                "start_time": 165.0386364,
                "end_time": 165.2386364,
                "pitch": 28,
                "velocity": 64,
                "duration": 0.2,
                "tempo": 120.0
            },
            {
                "start_time": 165.2386364,
                "end_time": 165.4386364,
                "pitch": 35,
                "velocity": 64,
                "duration": 0.2,
                "tempo": 120.0
            },
            {
                "start_time": 165.4386364,
                "end_time": 165.6409091,
                "pitch": 32,
                "velocity": 64,
                "duration": 0.2022727,
                "tempo": 120.0
            },
            {
                "start_time": 165.6409091,
                "end_time": 165.8409091,
                "pitch": 28,
                "velocity": 64,
                "duration": 0.2,
                "tempo": 120.0
            },
            {
                "start_time": 166.2454545,
                "end_time": 166.85,
                "pitch": 29,
                "velocity": 64,
                "duration": 0.6045455,
                "tempo": 120.0
            },
            {
                "start_time": 166.85,
                "end_time": 167.0522727,
                "pitch": 29,
                "velocity": 64,
                "duration": 0.2022727,
                "tempo": 120.0
            },
            {
                "start_time": 167.0522727,
                "end_time": 167.2522727,
                "pitch": 33,
                "velocity": 64,
                "duration": 0.2,
                "tempo": 120.0
            },
            {
                "start_time": 167.2522727,
                "end_time": 167.4522727,
                "pitch": 36,
                "velocity": 64,
                "duration": 0.2,
                "tempo": 120.0
            },
            {
                "start_time": 167.4522727,
                "end_time": 167.6568182,
                "pitch": 31,
                "velocity": 64,
                "duration": 0.2045455,
                "tempo": 120.0
            },
            {
                "start_time": 167.6590909,
                "end_time": 167.8613636,
                "pitch": 43,
                "velocity": 64,
                "duration": 0.2022727,
                "tempo": 120.0
            },
            {
                "start_time": 167.8636364,
                "end_time": 168.0613636,
                "pitch": 38,
                "velocity": 64,
                "duration": 0.1977273,
                "tempo": 120.0
            },
            {
                "start_time": 168.0613636,
                "end_time": 168.2568182,
                "pitch": 35,
                "velocity": 64,
                "duration": 0.1954545,
                "tempo": 120.0
            },
            {
                "start_time": 168.2568182,
                "end_time": 168.4613636,
                "pitch": 31,
                "velocity": 64,
                "duration": 0.2045455,
                "tempo": 120.0
            },
            {
                "start_time": 168.4613636,
                "end_time": 168.6659091,
                "pitch": 33,
                "velocity": 64,
                "duration": 0.2045455,
                "tempo": 120.0
            },
            {
                "start_time": 168.6659091,
                "end_time": 168.8681818,
                "pitch": 35,
                "velocity": 64,
                "duration": 0.2022727,
                "tempo": 120.0
            },
            {
                "start_time": 168.8681818,
                "end_time": 169.0704545,
                "pitch": 31,
                "velocity": 64,
                "duration": 0.2022727,
                "tempo": 120.0
            },
            {
                "start_time": 169.0704545,
                "end_time": 169.2681818,
                "pitch": 36,
                "velocity": 64,
                "duration": 0.1977273,
                "tempo": 120.0
            },
            {
                "start_time": 169.2681818,
                "end_time": 169.4636364,
                "pitch": 36,
                "velocity": 64,
                "duration": 0.1954545,
                "tempo": 120.0
            },
            {
                "start_time": 169.4636364,
                "end_time": 169.6681818,
                "pitch": 36,
                "velocity": 64,
                "duration": 0.2045455,
                "tempo": 120.0
            },
            {
                "start_time": 169.6681818,
                "end_time": 170.0704545,
                "pitch": 35,
                "velocity": 64,
                "duration": 0.4022727,
                "tempo": 120.0
            },
            {
                "start_time": 170.0727273,
                "end_time": 170.2659091,
                "pitch": 35,
                "velocity": 64,
                "duration": 0.1931818,
                "tempo": 120.0
            },
            {
                "start_time": 170.2681818,
                "end_time": 170.4704545,
                "pitch": 35,
                "velocity": 64,
                "duration": 0.2022727,
                "tempo": 120.0
            },
            {
                "start_time": 170.4704545,
                "end_time": 170.6772727,
                "pitch": 35,
                "velocity": 64,
                "duration": 0.2068182,
                "tempo": 120.0
            },
            {
                "start_time": 170.6772727,
                "end_time": 170.8795455,
                "pitch": 33,
                "velocity": 64,
                "duration": 0.2022727,
                "tempo": 120.0
            },
            {
                "start_time": 170.8795455,
                "end_time": 171.0795455,
                "pitch": 33,
                "velocity": 64,
                "duration": 0.2,
                "tempo": 120.0
            },
            {
                "start_time": 171.0818182,
                "end_time": 171.2840909,
                "pitch": 33,
                "velocity": 64,
                "duration": 0.2022727,
                "tempo": 120.0
            },
            {
                "start_time": 171.2840909,
                "end_time": 171.6840909,
                "pitch": 31,
                "velocity": 64,
                "duration": 0.4,
                "tempo": 120.0
            },
            {
                "start_time": 171.6863636,
                "end_time": 171.8840909,
                "pitch": 31,
                "velocity": 64,
                "duration": 0.1977273,
                "tempo": 120.0
            },
            {
                "start_time": 171.8863636,
                "end_time": 172.0863636,
                "pitch": 31,
                "velocity": 64,
                "duration": 0.2,
                "tempo": 120.0
            },
            {
                "start_time": 172.0863636,
                "end_time": 172.2886364,
                "pitch": 31,
                "velocity": 64,
                "duration": 0.2022727,
                "tempo": 120.0
            },
            {
                "start_time": 172.2886364,
                "end_time": 172.4886364,
                "pitch": 29,
                "velocity": 64,
                "duration": 0.2,
                "tempo": 120.0
            },
            {
                "start_time": 172.4909091,
                "end_time": 172.6909091,
                "pitch": 29,
                "velocity": 64,
                "duration": 0.2,
                "tempo": 120.0
            },
            {
                "start_time": 172.6909091,
                "end_time": 172.8931818,
                "pitch": 33,
                "velocity": 64,
                "duration": 0.2022727,
                "tempo": 120.0
            },
            {
                "start_time": 172.8931818,
                "end_time": 173.0931818,
                "pitch": 36,
                "velocity": 64,
                "duration": 0.2,
                "tempo": 120.0
            },
            {
                "start_time": 173.0931818,
                "end_time": 173.2954545,
                "pitch": 41,
                "velocity": 64,
                "duration": 0.2022727,
                "tempo": 120.0
            },
            {
                "start_time": 173.2977273,
                "end_time": 173.4977273,
                "pitch": 33,
                "velocity": 64,
                "duration": 0.2,
                "tempo": 120.0
            },
            {
                "start_time": 173.4977273,
                "end_time": 173.6977273,
                "pitch": 36,
                "velocity": 64,
                "duration": 0.2,
                "tempo": 120.0
            },
            {
                "start_time": 173.7,
                "end_time": 174.1,
                "pitch": 28,
                "velocity": 64,
                "duration": 0.4,
                "tempo": 120.0
            },
            {
                "start_time": 174.1,
                "end_time": 174.3022727,
                "pitch": 40,
                "velocity": 64,
                "duration": 0.2022727,
                "tempo": 120.0
            },
            {
                "start_time": 174.3022727,
                "end_time": 174.5022727,
                "pitch": 38,
                "velocity": 64,
                "duration": 0.2,
                "tempo": 120.0
            },
            {
                "start_time": 174.5045455,
                "end_time": 174.7045455,
                "pitch": 35,
                "velocity": 64,
                "duration": 0.2,
                "tempo": 120.0
            },
            {
                "start_time": 174.7045455,
                "end_time": 174.9045455,
                "pitch": 32,
                "velocity": 64,
                "duration": 0.2,
                "tempo": 120.0
            },
            {
                "start_time": 174.9045455,
                "end_time": 175.1068182,
                "pitch": 35,
                "velocity": 64,
                "duration": 0.2022727,
                "tempo": 120.0
            },
            {
                "start_time": 175.1068182,
                "end_time": 175.3090909,
                "pitch": 28,
                "velocity": 64,
                "duration": 0.2022727,
                "tempo": 120.0
            },
            {
                "start_time": 175.3113636,
                "end_time": 175.7113636,
                "pitch": 28,
                "velocity": 64,
                "duration": 0.4,
                "tempo": 120.0
            },
            {
                "start_time": 175.7113636,
                "end_time": 175.9113636,
                "pitch": 29,
                "velocity": 64,
                "duration": 0.2,
                "tempo": 120.0
            },
            {
                "start_time": 175.9113636,
                "end_time": 176.1136364,
                "pitch": 32,
                "velocity": 64,
                "duration": 0.2022727,
                "tempo": 120.0
            },
            {
                "start_time": 176.1136364,
                "end_time": 176.3136364,
                "pitch": 35,
                "velocity": 64,
                "duration": 0.2,
                "tempo": 120.0
            },
            {
                "start_time": 176.3159091,
                "end_time": 176.5159091,
                "pitch": 38,
                "velocity": 64,
                "duration": 0.2,
                "tempo": 120.0
            },
            {
                "start_time": 176.7181818,
                "end_time": 176.9204545,
                "pitch": 28,
                "velocity": 64,
                "duration": 0.2022727,
                "tempo": 120.0
            },
            {
                "start_time": 176.9204545,
                "end_time": 177.3227273,
                "pitch": 33,
                "velocity": 64,
                "duration": 0.4022727,
                "tempo": 120.0
            },
            {
                "start_time": 177.3227273,
                "end_time": 177.525,
                "pitch": 33,
                "velocity": 64,
                "duration": 0.2022727,
                "tempo": 120.0
            },
            {
                "start_time": 177.525,
                "end_time": 177.7295455,
                "pitch": 33,
                "velocity": 64,
                "duration": 0.2045455,
                "tempo": 120.0
            },
            {
                "start_time": 177.7295455,
                "end_time": 177.9363636,
                "pitch": 33,
                "velocity": 64,
                "duration": 0.2068182,
                "tempo": 120.0
            },
            {
                "start_time": 177.9363636,
                "end_time": 178.1340909,
                "pitch": 33,
                "velocity": 64,
                "duration": 0.1977273,
                "tempo": 120.0
            },
            {
                "start_time": 178.1340909,
                "end_time": 178.3295455,
                "pitch": 33,
                "velocity": 64,
                "duration": 0.1954545,
                "tempo": 120.0
            },
            {
                "start_time": 178.3295455,
                "end_time": 178.5340909,
                "pitch": 33,
                "velocity": 64,
                "duration": 0.2045455,
                "tempo": 120.0
            },
            {
                "start_time": 178.5340909,
                "end_time": 178.9409091,
                "pitch": 33,
                "velocity": 64,
                "duration": 0.4068182,
                "tempo": 120.0
            },
            {
                "start_time": 178.9431818,
                "end_time": 179.1431818,
                "pitch": 33,
                "velocity": 64,
                "duration": 0.2,
                "tempo": 120.0
            },
            {
                "start_time": 179.1431818,
                "end_time": 179.3454545,
                "pitch": 33,
                "velocity": 64,
                "duration": 0.2022727,
                "tempo": 120.0
            },
            {
                "start_time": 179.3454545,
                "end_time": 179.7477273,
                "pitch": 33,
                "velocity": 64,
                "duration": 0.4022727,
                "tempo": 120.0
            },
            {
                "start_time": 179.7477273,
                "end_time": 179.95,
                "pitch": 33,
                "velocity": 64,
                "duration": 0.2022727,
                "tempo": 120.0
            }
        ],
        "Acoustic Grand Piano": [
            {
                "start_time": 0.0386364,
                "end_time": 1.4386364,
                "pitch": 64,
                "velocity": 64,
                "duration": 1.4,
                "tempo": 120.0
            },
            {
                "start_time": 1.4409091,
                "end_time": 3.2545455,
                "pitch": 62,
                "velocity": 64,
                "duration": 1.8136364,
                "tempo": 120.0
            },
            {
                "start_time": 3.2568182,
                "end_time": 4.6613636,
                "pitch": 64,
                "velocity": 64,
                "duration": 1.4045455,
                "tempo": 120.0
            },
            {
                "start_time": 4.6613636,
                "end_time": 5.4659091,
                "pitch": 62,
                "velocity": 64,
                "duration": 0.8045455,
                "tempo": 120.0
            },
            {
                "start_time": 5.4659091,
                "end_time": 6.4704545,
                "pitch": 62,
                "velocity": 64,
                "duration": 1.0045455,
                "tempo": 120.0
            },
            {
                "start_time": 6.4704545,
                "end_time": 7.8772727,
                "pitch": 64,
                "velocity": 64,
                "duration": 1.4068182,
                "tempo": 120.0
            },
            {
                "start_time": 7.8772727,
                "end_time": 8.6795455,
                "pitch": 62,
                "velocity": 64,
                "duration": 0.8022727,
                "tempo": 120.0
            },
            {
                "start_time": 8.6795455,
                "end_time": 9.6954545,
                "pitch": 62,
                "velocity": 64,
                "duration": 1.0159091,
                "tempo": 120.0
            },
            {
                "start_time": 9.6977273,
                "end_time": 11.1,
                "pitch": 62,
                "velocity": 64,
                "duration": 1.4022727,
                "tempo": 120.0
            },
            {
                "start_time": 11.1,
                "end_time": 12.9136364,
                "pitch": 62,
                "velocity": 64,
                "duration": 1.8136364,
                "tempo": 120.0
            },
            {
                "start_time": 12.9159091,
                "end_time": 15.9340909,
                "pitch": 64,
                "velocity": 64,
                "duration": 3.0181818,
                "tempo": 120.0
            },
            {
                "start_time": 15.9340909,
                "end_time": 16.1363636,
                "pitch": 64,
                "velocity": 64,
                "duration": 0.2022727,
                "tempo": 120.0
            },
            {
                "start_time": 16.1363636,
                "end_time": 18.3477273,
                "pitch": 64,
                "velocity": 64,
                "duration": 2.2113636,
                "tempo": 120.0
            },
            {
                "start_time": 18.35,
                "end_time": 19.3590909,
                "pitch": 67,
                "velocity": 64,
                "duration": 1.0090909,
                "tempo": 120.0
            },
            {
                "start_time": 19.3590909,
                "end_time": 21.9704545,
                "pitch": 62,
                "velocity": 64,
                "duration": 2.6113636,
                "tempo": 120.0
            },
            {
                "start_time": 21.9704545,
                "end_time": 22.5704545,
                "pitch": 62,
                "velocity": 64,
                "duration": 0.6,
                "tempo": 120.0
            },
            {
                "start_time": 22.5704545,
                "end_time": 24.1772727,
                "pitch": 64,
                "velocity": 64,
                "duration": 1.6068182,
                "tempo": 120.0
            },
            {
                "start_time": 24.1795455,
                "end_time": 24.5795455,
                "pitch": 52,
                "velocity": 64,
                "duration": 0.4,
                "tempo": 120.0
            },
            {
                "start_time": 24.5795455,
                "end_time": 24.8863636,
                "pitch": 64,
                "velocity": 64,
                "duration": 0.3068182,
                "tempo": 120.0
            },
            {
                "start_time": 24.8886364,
                "end_time": 24.9886364,
                "pitch": 52,
                "velocity": 64,
                "duration": 0.1,
                "tempo": 120.0
            },
            {
                "start_time": 24.9909091,
                "end_time": 25.0886364,
                "pitch": 64,
                "velocity": 64,
                "duration": 0.0977273,
                "tempo": 120.0
            },
            {
                "start_time": 25.0886364,
                "end_time": 25.1863636,
                "pitch": 52,
                "velocity": 64,
                "duration": 0.0977273,
                "tempo": 120.0
            },
            {
                "start_time": 25.1863636,
                "end_time": 25.5840909,
                "pitch": 64,
                "velocity": 64,
                "duration": 0.3977273,
                "tempo": 120.0
            },
            {
                "start_time": 25.5840909,
                "end_time": 25.7863636,
                "pitch": 64,
                "velocity": 64,
                "duration": 0.2022727,
                "tempo": 120.0
            },
            {
                "start_time": 25.7863636,
                "end_time": 28.6068182,
                "pitch": 65,
                "velocity": 64,
                "duration": 2.8204545,
                "tempo": 120.0
            },
            {
                "start_time": 28.6068182,
                "end_time": 28.8068182,
                "pitch": 60,
                "velocity": 64,
                "duration": 0.2,
                "tempo": 120.0
            },
            {
                "start_time": 28.8090909,
                "end_time": 29.0068182,
                "pitch": 65,
                "velocity": 64,
                "duration": 0.1977273,
                "tempo": 120.0
            },
            {
                "start_time": 29.0068182,
                "end_time": 31.2181818,
                "pitch": 64,
                "velocity": 64,
                "duration": 2.2113636,
                "tempo": 120.0
            },
            {
                "start_time": 31.2181818,
                "end_time": 32.2227273,
                "pitch": 67,
                "velocity": 64,
                "duration": 1.0045455,
                "tempo": 120.0
            },
            {
                "start_time": 32.2227273,
                "end_time": 35.0386364,
                "pitch": 62,
                "velocity": 64,
                "duration": 2.8159091,
                "tempo": 120.0
            },
            {
                "start_time": 35.0386364,
                "end_time": 35.2386364,
                "pitch": 60,
                "velocity": 64,
                "duration": 0.2,
                "tempo": 120.0
            },
            {
                "start_time": 35.2409091,
                "end_time": 36.8431818,
                "pitch": 65,
                "velocity": 64,
                "duration": 1.6022727,
                "tempo": 120.0
            },
            {
                "start_time": 36.8431818,
                "end_time": 37.6477273,
                "pitch": 65,
                "velocity": 64,
                "duration": 0.8045455,
                "tempo": 120.0
            },
            {
                "start_time": 37.6477273,
                "end_time": 38.65,
                "pitch": 64,
                "velocity": 64,
                "duration": 1.0022727,
                "tempo": 120.0
            },
            {
                "start_time": 38.6522727,
                "end_time": 41.6636364,
                "pitch": 64,
                "velocity": 64,
                "duration": 3.0113636,
                "tempo": 120.0
            },
            {
                "start_time": 41.6659091,
                "end_time": 41.8704545,
                "pitch": 64,
                "velocity": 64,
                "duration": 0.2045455,
                "tempo": 120.0
            },
            {
                "start_time": 41.8727273,
                "end_time": 44.0795455,
                "pitch": 64,
                "velocity": 64,
                "duration": 2.2068182,
                "tempo": 120.0
            },
            {
                "start_time": 44.0795455,
                "end_time": 45.0840909,
                "pitch": 67,
                "velocity": 64,
                "duration": 1.0045455,
                "tempo": 120.0
            },
            {
                "start_time": 45.0840909,
                "end_time": 47.6886364,
                "pitch": 62,
                "velocity": 64,
                "duration": 2.6045455,
                "tempo": 120.0
            },
            {
                "start_time": 47.6886364,
                "end_time": 48.2909091,
                "pitch": 62,
                "velocity": 64,
                "duration": 0.6022727,
                "tempo": 120.0
            },
            {
                "start_time": 48.2909091,
                "end_time": 49.9045455,
                "pitch": 64,
                "velocity": 64,
                "duration": 1.6136364,
                "tempo": 120.0
            },
            {
                "start_time": 49.9068182,
                "end_time": 50.3090909,
                "pitch": 52,
                "velocity": 64,
                "duration": 0.4022727,
                "tempo": 120.0
            },
            {
                "start_time": 50.3090909,
                "end_time": 50.6090909,
                "pitch": 64,
                "velocity": 64,
                "duration": 0.3,
                "tempo": 120.0
            },
            {
                "start_time": 50.6090909,
                "end_time": 50.7090909,
                "pitch": 52,
                "velocity": 64,
                "duration": 0.1,
                "tempo": 120.0
            },
            {
                "start_time": 50.7090909,
                "end_time": 50.8090909,
                "pitch": 64,
                "velocity": 64,
                "duration": 0.1,
                "tempo": 120.0
            },
            {
                "start_time": 50.8113636,
                "end_time": 50.9090909,
                "pitch": 52,
                "velocity": 64,
                "duration": 0.0977273,
                "tempo": 120.0
            },
            {
                "start_time": 50.9090909,
                "end_time": 51.3090909,
                "pitch": 64,
                "velocity": 64,
                "duration": 0.4,
                "tempo": 120.0
            },
            {
                "start_time": 51.3113636,
                "end_time": 51.5113636,
                "pitch": 64,
                "velocity": 64,
                "duration": 0.2,
                "tempo": 120.0
            },
            {
                "start_time": 51.5113636,
                "end_time": 54.3181818,
                "pitch": 65,
                "velocity": 64,
                "duration": 2.8068182,
                "tempo": 120.0
            },
            {
                "start_time": 54.3181818,
                "end_time": 54.5181818,
                "pitch": 60,
                "velocity": 64,
                "duration": 0.2,
                "tempo": 120.0
            },
            {
                "start_time": 54.5204545,
                "end_time": 54.7204545,
                "pitch": 65,
                "velocity": 64,
                "duration": 0.2,
                "tempo": 120.0
            },
            {
                "start_time": 54.7204545,
                "end_time": 56.925,
                "pitch": 64,
                "velocity": 64,
                "duration": 2.2045455,
                "tempo": 120.0
            },
            {
                "start_time": 56.925,
                "end_time": 57.9386364,
                "pitch": 67,
                "velocity": 64,
                "duration": 1.0136364,
                "tempo": 120.0
            },
            {
                "start_time": 57.9386364,
                "end_time": 59.3409091,
                "pitch": 62,
                "velocity": 64,
                "duration": 1.4022727,
                "tempo": 120.0
            },
            {
                "start_time": 59.3409091,
                "end_time": 60.9454545,
                "pitch": 60,
                "velocity": 64,
                "duration": 1.6045455,
                "tempo": 120.0
            },
            {
                "start_time": 60.9454545,
                "end_time": 61.7454545,
                "pitch": 59,
                "velocity": 64,
                "duration": 0.8,
                "tempo": 120.0
            },
            {
                "start_time": 61.7477273,
                "end_time": 62.55,
                "pitch": 59,
                "velocity": 64,
                "duration": 0.8022727,
                "tempo": 120.0
            },
            {
                "start_time": 62.55,
                "end_time": 63.35,
                "pitch": 59,
                "velocity": 64,
                "duration": 0.8,
                "tempo": 120.0
            },
            {
                "start_time": 63.35,
                "end_time": 64.3613636,
                "pitch": 59,
                "velocity": 64,
                "duration": 1.0113636,
                "tempo": 120.0
            },
            {
                "start_time": 64.7568182,
                "end_time": 65.9727273,
                "pitch": 64,
                "velocity": 64,
                "duration": 1.2159091,
                "tempo": 120.0
            },
            {
                "start_time": 65.9727273,
                "end_time": 66.5772727,
                "pitch": 67,
                "velocity": 64,
                "duration": 0.6045455,
                "tempo": 120.0
            },
            {
                "start_time": 66.5772727,
                "end_time": 67.5818182,
                "pitch": 65,
                "velocity": 64,
                "duration": 1.0045455,
                "tempo": 120.0
            },
            {
                "start_time": 67.5840909,
                "end_time": 68.1840909,
                "pitch": 67,
                "velocity": 64,
                "duration": 0.6,
                "tempo": 120.0
            },
            {
                "start_time": 68.1840909,
                "end_time": 69.1909091,
                "pitch": 65,
                "velocity": 64,
                "duration": 1.0068182,
                "tempo": 120.0
            },
            {
                "start_time": 69.1909091,
                "end_time": 69.7931818,
                "pitch": 64,
                "velocity": 64,
                "duration": 0.6022727,
                "tempo": 120.0
            },
            {
                "start_time": 69.7954545,
                "end_time": 70.8,
                "pitch": 62,
                "velocity": 64,
                "duration": 1.0045455,
                "tempo": 120.0
            },
            {
                "start_time": 70.8022727,
                "end_time": 72.2068182,
                "pitch": 64,
                "velocity": 64,
                "duration": 1.4045455,
                "tempo": 120.0
            },
            {
                "start_time": 72.2068182,
                "end_time": 74.0159091,
                "pitch": 62,
                "velocity": 64,
                "duration": 1.8090909,
                "tempo": 120.0
            },
            {
                "start_time": 74.0159091,
                "end_time": 75.4318182,
                "pitch": 64,
                "velocity": 64,
                "duration": 1.4159091,
                "tempo": 120.0
            },
            {
                "start_time": 75.4318182,
                "end_time": 76.2363636,
                "pitch": 65,
                "velocity": 64,
                "duration": 0.8045455,
                "tempo": 120.0
            },
            {
                "start_time": 76.2363636,
                "end_time": 77.2386364,
                "pitch": 68,
                "velocity": 64,
                "duration": 1.0022727,
                "tempo": 120.0
            },
            {
                "start_time": 77.6454545,
                "end_time": 78.8477273,
                "pitch": 64,
                "velocity": 64,
                "duration": 1.2022727,
                "tempo": 120.0
            },
            {
                "start_time": 78.85,
                "end_time": 79.4545455,
                "pitch": 67,
                "velocity": 64,
                "duration": 0.6045455,
                "tempo": 120.0
            },
            {
                "start_time": 79.4545455,
                "end_time": 80.4659091,
                "pitch": 65,
                "velocity": 64,
                "duration": 1.0113636,
                "tempo": 120.0
            },
            {
                "start_time": 80.4681818,
                "end_time": 81.0636364,
                "pitch": 67,
                "velocity": 64,
                "duration": 0.5954545,
                "tempo": 120.0
            },
            {
                "start_time": 81.0659091,
                "end_time": 82.075,
                "pitch": 65,
                "velocity": 64,
                "duration": 1.0090909,
                "tempo": 120.0
            },
            {
                "start_time": 82.075,
                "end_time": 82.6772727,
                "pitch": 64,
                "velocity": 64,
                "duration": 0.6022727,
                "tempo": 120.0
            },
            {
                "start_time": 82.6772727,
                "end_time": 83.6818182,
                "pitch": 62,
                "velocity": 64,
                "duration": 1.0045455,
                "tempo": 120.0
            },
            {
                "start_time": 83.6840909,
                "end_time": 85.0909091,
                "pitch": 64,
                "velocity": 64,
                "duration": 1.4068182,
                "tempo": 120.0
            },
            {
                "start_time": 85.0909091,
                "end_time": 88.1068182,
                "pitch": 62,
                "velocity": 64,
                "duration": 3.0159091,
                "tempo": 120.0
            },
            {
                "start_time": 88.1090909,
                "end_time": 88.3090909,
                "pitch": 62,
                "velocity": 64,
                "duration": 0.2,
                "tempo": 120.0
            },
            {
                "start_time": 88.3090909,
                "end_time": 89.9204545,
                "pitch": 64,
                "velocity": 64,
                "duration": 1.6113636,
                "tempo": 120.0
            },
            {
                "start_time": 89.9204545,
                "end_time": 91.7363636,
                "pitch": 62,
                "velocity": 64,
                "duration": 1.8159091,
                "tempo": 120.0
            },
            {
                "start_time": 91.7363636,
                "end_time": 93.1431818,
                "pitch": 64,
                "velocity": 64,
                "duration": 1.4068182,
                "tempo": 120.0
            },
            {
                "start_time": 93.1431818,
                "end_time": 93.9477273,
                "pitch": 62,
                "velocity": 64,
                "duration": 0.8045455,
                "tempo": 120.0
            },
            {
                "start_time": 93.9477273,
                "end_time": 94.9545455,
                "pitch": 62,
                "velocity": 64,
                "duration": 1.0068182,
                "tempo": 120.0
            },
            {
                "start_time": 94.9545455,
                "end_time": 96.3636364,
                "pitch": 64,
                "velocity": 64,
                "duration": 1.4090909,
                "tempo": 120.0
            },
            {
                "start_time": 96.3636364,
                "end_time": 97.1681818,
                "pitch": 62,
                "velocity": 64,
                "duration": 0.8045455,
                "tempo": 120.0
            },
            {
                "start_time": 97.1681818,
                "end_time": 98.1772727,
                "pitch": 62,
                "velocity": 64,
                "duration": 1.0090909,
                "tempo": 120.0
            },
            {
                "start_time": 98.1772727,
                "end_time": 99.5840909,
                "pitch": 62,
                "velocity": 64,
                "duration": 1.4068182,
                "tempo": 120.0
            },
            {
                "start_time": 99.5840909,
                "end_time": 101.3931818,
                "pitch": 62,
                "velocity": 64,
                "duration": 1.8090909,
                "tempo": 120.0
            },
            {
                "start_time": 101.4,
                "end_time": 104.4454545,
                "pitch": 64,
                "velocity": 64,
                "duration": 3.0454545,
                "tempo": 120.0
            },
            {
                "start_time": 104.4454545,
                "end_time": 104.6477273,
                "pitch": 64,
                "velocity": 64,
                "duration": 0.2022727,
                "tempo": 120.0
            },
            {
                "start_time": 104.6477273,
                "end_time": 106.8636364,
                "pitch": 64,
                "velocity": 64,
                "duration": 2.2159091,
                "tempo": 120.0
            },
            {
                "start_time": 106.8636364,
                "end_time": 107.8727273,
                "pitch": 67,
                "velocity": 64,
                "duration": 1.0090909,
                "tempo": 120.0
            },
            {
                "start_time": 107.8727273,
                "end_time": 110.4886364,
                "pitch": 62,
                "velocity": 64,
                "duration": 2.6159091,
                "tempo": 120.0
            },
            {
                "start_time": 110.4886364,
                "end_time": 111.0909091,
                "pitch": 62,
                "velocity": 64,
                "duration": 0.6022727,
                "tempo": 120.0
            },
            {
                "start_time": 111.0909091,
                "end_time": 112.7,
                "pitch": 64,
                "velocity": 64,
                "duration": 1.6090909,
                "tempo": 120.0
            },
            {
                "start_time": 112.7022727,
                "end_time": 113.1,
                "pitch": 52,
                "velocity": 64,
                "duration": 0.3977273,
                "tempo": 120.0
            },
            {
                "start_time": 113.1022727,
                "end_time": 113.4090909,
                "pitch": 64,
                "velocity": 64,
                "duration": 0.3068182,
                "tempo": 120.0
            },
            {
                "start_time": 113.4090909,
                "end_time": 113.5113636,
                "pitch": 52,
                "velocity": 64,
                "duration": 0.1022727,
                "tempo": 120.0
            },
            {
                "start_time": 113.5136364,
                "end_time": 113.6090909,
                "pitch": 64,
                "velocity": 64,
                "duration": 0.0954545,
                "tempo": 120.0
            },
            {
                "start_time": 113.6113636,
                "end_time": 113.7090909,
                "pitch": 52,
                "velocity": 64,
                "duration": 0.0977273,
                "tempo": 120.0
            },
            {
                "start_time": 113.7090909,
                "end_time": 114.1068182,
                "pitch": 64,
                "velocity": 64,
                "duration": 0.3977273,
                "tempo": 120.0
            },
            {
                "start_time": 114.1068182,
                "end_time": 114.3090909,
                "pitch": 64,
                "velocity": 64,
                "duration": 0.2022727,
                "tempo": 120.0
            },
            {
                "start_time": 114.3090909,
                "end_time": 117.1340909,
                "pitch": 65,
                "velocity": 64,
                "duration": 2.825,
                "tempo": 120.0
            },
            {
                "start_time": 117.1340909,
                "end_time": 117.3340909,
                "pitch": 60,
                "velocity": 64,
                "duration": 0.2,
                "tempo": 120.0
            },
            {
                "start_time": 117.3340909,
                "end_time": 117.5340909,
                "pitch": 65,
                "velocity": 64,
                "duration": 0.2,
                "tempo": 120.0
            },
            {
                "start_time": 117.5363636,
                "end_time": 119.7477273,
                "pitch": 64,
                "velocity": 64,
                "duration": 2.2113636,
                "tempo": 120.0
            },
            {
                "start_time": 119.7477273,
                "end_time": 120.7522727,
                "pitch": 67,
                "velocity": 64,
                "duration": 1.0045455,
                "tempo": 120.0
            },
            {
                "start_time": 120.7522727,
                "end_time": 123.5772727,
                "pitch": 62,
                "velocity": 64,
                "duration": 2.825,
                "tempo": 120.0
            },
            {
                "start_time": 123.5772727,
                "end_time": 123.7772727,
                "pitch": 60,
                "velocity": 64,
                "duration": 0.2,
                "tempo": 120.0
            },
            {
                "start_time": 123.7795455,
                "end_time": 125.3863636,
                "pitch": 65,
                "velocity": 64,
                "duration": 1.6068182,
                "tempo": 120.0
            },
            {
                "start_time": 125.3863636,
                "end_time": 126.1909091,
                "pitch": 65,
                "velocity": 64,
                "duration": 0.8045455,
                "tempo": 120.0
            },
            {
                "start_time": 126.1909091,
                "end_time": 127.1977273,
                "pitch": 64,
                "velocity": 64,
                "duration": 1.0068182,
                "tempo": 120.0
            },
            {
                "start_time": 127.1977273,
                "end_time": 130.2159091,
                "pitch": 64,
                "velocity": 64,
                "duration": 3.0181818,
                "tempo": 120.0
            },
            {
                "start_time": 130.2159091,
                "end_time": 130.4227273,
                "pitch": 64,
                "velocity": 64,
                "duration": 0.2068182,
                "tempo": 120.0
            },
            {
                "start_time": 130.4227273,
                "end_time": 132.6340909,
                "pitch": 64,
                "velocity": 64,
                "duration": 2.2113636,
                "tempo": 120.0
            },
            {
                "start_time": 132.6340909,
                "end_time": 133.6431818,
                "pitch": 67,
                "velocity": 64,
                "duration": 1.0090909,
                "tempo": 120.0
            },
            {
                "start_time": 133.6431818,
                "end_time": 136.2590909,
                "pitch": 62,
                "velocity": 64,
                "duration": 2.6159091,
                "tempo": 120.0
            },
            {
                "start_time": 136.2590909,
                "end_time": 136.8636364,
                "pitch": 62,
                "velocity": 64,
                "duration": 0.6045455,
                "tempo": 120.0
            },
            {
                "start_time": 136.8636364,
                "end_time": 138.4818182,
                "pitch": 64,
                "velocity": 64,
                "duration": 1.6181818,
                "tempo": 120.0
            },
            {
                "start_time": 138.4818182,
                "end_time": 138.8840909,
                "pitch": 52,
                "velocity": 64,
                "duration": 0.4022727,
                "tempo": 120.0
            },
            {
                "start_time": 138.8840909,
                "end_time": 139.1840909,
                "pitch": 64,
                "velocity": 64,
                "duration": 0.3,
                "tempo": 120.0
            },
            {
                "start_time": 139.1863636,
                "end_time": 139.2840909,
                "pitch": 52,
                "velocity": 64,
                "duration": 0.0977273,
                "tempo": 120.0
            },
            {
                "start_time": 139.2863636,
                "end_time": 139.3863636,
                "pitch": 64,
                "velocity": 64,
                "duration": 0.1,
                "tempo": 120.0
            },
            {
                "start_time": 139.3863636,
                "end_time": 139.4863636,
                "pitch": 52,
                "velocity": 64,
                "duration": 0.1,
                "tempo": 120.0
            },
            {
                "start_time": 139.4863636,
                "end_time": 139.8886364,
                "pitch": 64,
                "velocity": 64,
                "duration": 0.4022727,
                "tempo": 120.0
            },
            {
                "start_time": 139.8909091,
                "end_time": 140.0909091,
                "pitch": 64,
                "velocity": 64,
                "duration": 0.2,
                "tempo": 120.0
            },
            {
                "start_time": 140.0931818,
                "end_time": 142.9090909,
                "pitch": 65,
                "velocity": 64,
                "duration": 2.8159091,
                "tempo": 120.0
            },
            {
                "start_time": 142.9113636,
                "end_time": 143.1090909,
                "pitch": 60,
                "velocity": 64,
                "duration": 0.1977273,
                "tempo": 120.0
            },
            {
                "start_time": 143.1113636,
                "end_time": 143.3113636,
                "pitch": 65,
                "velocity": 64,
                "duration": 0.2,
                "tempo": 120.0
            },
            {
                "start_time": 143.3136364,
                "end_time": 145.5295455,
                "pitch": 64,
                "velocity": 64,
                "duration": 2.2159091,
                "tempo": 120.0
            },
            {
                "start_time": 145.5318182,
                "end_time": 146.5409091,
                "pitch": 67,
                "velocity": 64,
                "duration": 1.0090909,
                "tempo": 120.0
            },
            {
                "start_time": 146.5409091,
                "end_time": 147.95,
                "pitch": 62,
                "velocity": 64,
                "duration": 1.4090909,
                "tempo": 120.0
            },
            {
                "start_time": 147.95,
                "end_time": 149.5590909,
                "pitch": 60,
                "velocity": 64,
                "duration": 1.6090909,
                "tempo": 120.0
            },
            {
                "start_time": 149.5613636,
                "end_time": 150.3636364,
                "pitch": 59,
                "velocity": 64,
                "duration": 0.8022727,
                "tempo": 120.0
            },
            {
                "start_time": 150.3659091,
                "end_time": 151.1727273,
                "pitch": 59,
                "velocity": 64,
                "duration": 0.8068182,
                "tempo": 120.0
            },
            {
                "start_time": 151.1727273,
                "end_time": 151.9795455,
                "pitch": 59,
                "velocity": 64,
                "duration": 0.8068182,
                "tempo": 120.0
            },
            {
                "start_time": 151.9795455,
                "end_time": 152.9863636,
                "pitch": 59,
                "velocity": 64,
                "duration": 1.0068182,
                "tempo": 120.0
            },
            {
                "start_time": 153.3818182,
                "end_time": 154.5954545,
                "pitch": 64,
                "velocity": 64,
                "duration": 1.2136364,
                "tempo": 120.0
            },
            {
                "start_time": 154.5977273,
                "end_time": 155.2,
                "pitch": 67,
                "velocity": 64,
                "duration": 0.6022727,
                "tempo": 120.0
            },
            {
                "start_time": 155.2022727,
                "end_time": 156.2090909,
                "pitch": 65,
                "velocity": 64,
                "duration": 1.0068182,
                "tempo": 120.0
            },
            {
                "start_time": 156.2090909,
                "end_time": 156.8113636,
                "pitch": 67,
                "velocity": 64,
                "duration": 0.6022727,
                "tempo": 120.0
            },
            {
                "start_time": 156.8113636,
                "end_time": 157.8181818,
                "pitch": 65,
                "velocity": 64,
                "duration": 1.0068182,
                "tempo": 120.0
            },
            {
                "start_time": 157.8204545,
                "end_time": 158.4227273,
                "pitch": 64,
                "velocity": 64,
                "duration": 0.6022727,
                "tempo": 120.0
            },
            {
                "start_time": 158.4227273,
                "end_time": 159.4295455,
                "pitch": 62,
                "velocity": 64,
                "duration": 1.0068182,
                "tempo": 120.0
            },
            {
                "start_time": 159.4295455,
                "end_time": 160.8340909,
                "pitch": 64,
                "velocity": 64,
                "duration": 1.4045455,
                "tempo": 120.0
            },
            {
                "start_time": 160.8363636,
                "end_time": 162.6545455,
                "pitch": 62,
                "velocity": 64,
                "duration": 1.8181818,
                "tempo": 120.0
            },
            {
                "start_time": 162.6568182,
                "end_time": 164.0636364,
                "pitch": 64,
                "velocity": 64,
                "duration": 1.4068182,
                "tempo": 120.0
            },
            {
                "start_time": 164.0636364,
                "end_time": 164.8704545,
                "pitch": 65,
                "velocity": 64,
                "duration": 0.8068182,
                "tempo": 120.0
            },
            {
                "start_time": 164.8704545,
                "end_time": 165.875,
                "pitch": 68,
                "velocity": 64,
                "duration": 1.0045455,
                "tempo": 120.0
            },
            {
                "start_time": 166.2795455,
                "end_time": 167.4863636,
                "pitch": 64,
                "velocity": 64,
                "duration": 1.2068182,
                "tempo": 120.0
            },
            {
                "start_time": 167.4863636,
                "end_time": 168.0931818,
                "pitch": 67,
                "velocity": 64,
                "duration": 0.6068182,
                "tempo": 120.0
            },
            {
                "start_time": 168.0931818,
                "end_time": 169.1045455,
                "pitch": 65,
                "velocity": 64,
                "duration": 1.0113636,
                "tempo": 120.0
            },
            {
                "start_time": 169.1045455,
                "end_time": 169.7022727,
                "pitch": 67,
                "velocity": 64,
                "duration": 0.5977273,
                "tempo": 120.0
            },
            {
                "start_time": 169.7022727,
                "end_time": 170.7113636,
                "pitch": 65,
                "velocity": 64,
                "duration": 1.0090909,
                "tempo": 120.0
            },
            {
                "start_time": 170.7113636,
                "end_time": 171.3159091,
                "pitch": 64,
                "velocity": 64,
                "duration": 0.6045455,
                "tempo": 120.0
            },
            {
                "start_time": 171.3159091,
                "end_time": 172.3227273,
                "pitch": 62,
                "velocity": 64,
                "duration": 1.0068182,
                "tempo": 120.0
            },
            {
                "start_time": 172.3227273,
                "end_time": 173.7318182,
                "pitch": 64,
                "velocity": 64,
                "duration": 1.4090909,
                "tempo": 120.0
            },
            {
                "start_time": 173.7318182,
                "end_time": 176.7522727,
                "pitch": 62,
                "velocity": 64,
                "duration": 3.0204545,
                "tempo": 120.0
            },
            {
                "start_time": 176.7522727,
                "end_time": 176.9545455,
                "pitch": 62,
                "velocity": 64,
                "duration": 0.2022727,
                "tempo": 120.0
            },
            {
                "start_time": 176.9545455,
                "end_time": 178.5681818,
                "pitch": 64,
                "velocity": 64,
                "duration": 1.6136364,
                "tempo": 120.0
            }
        ],
        "Clarinet": [
            {
                "start_time": 0.0363636,
                "end_time": 0.0477273,
                "pitch": 25,
                "velocity": 4,
                "duration": 0.0113636,
                "tempo": 120.0
            },
            {
                "start_time": 0.05,
                "end_time": 0.4363636,
                "pitch": 72,
                "velocity": 80,
                "duration": 0.3863636,
                "tempo": 120.0
            },
            {
                "start_time": 0.4386364,
                "end_time": 0.6363636,
                "pitch": 71,
                "velocity": 80,
                "duration": 0.1977273,
                "tempo": 120.0
            },
            {
                "start_time": 0.6386364,
                "end_time": 1.0363636,
                "pitch": 70,
                "velocity": 80,
                "duration": 0.3977273,
                "tempo": 120.0
            },
            {
                "start_time": 1.0386364,
                "end_time": 1.3545455,
                "pitch": 68,
                "velocity": 80,
                "duration": 0.3159091,
                "tempo": 120.0
            },
            {
                "start_time": 1.3545455,
                "end_time": 1.4204545,
                "pitch": 67,
                "velocity": 80,
                "duration": 0.0659091,
                "tempo": 120.0
            },
            {
                "start_time": 1.4204545,
                "end_time": 1.4363636,
                "pitch": 67,
                "velocity": 80,
                "duration": 0.0159091,
                "tempo": 120.0
            },
            {
                "start_time": 1.4386364,
                "end_time": 1.4704545,
                "pitch": 68,
                "velocity": 80,
                "duration": 0.0318182,
                "tempo": 120.0
            },
            {
                "start_time": 1.4704545,
                "end_time": 2.0386364,
                "pitch": 71,
                "velocity": 80,
                "duration": 0.5681818,
                "tempo": 120.0
            },
            {
                "start_time": 2.0409091,
                "end_time": 2.2431818,
                "pitch": 72,
                "velocity": 80,
                "duration": 0.2022727,
                "tempo": 120.0
            },
            {
                "start_time": 2.2454545,
                "end_time": 2.6454545,
                "pitch": 73,
                "velocity": 80,
                "duration": 0.4,
                "tempo": 120.0
            },
            {
                "start_time": 2.6477273,
                "end_time": 2.8409091,
                "pitch": 72,
                "velocity": 80,
                "duration": 0.1931818,
                "tempo": 120.0
            },
            {
                "start_time": 2.8431818,
                "end_time": 3.0477273,
                "pitch": 73,
                "velocity": 80,
                "duration": 0.2045455,
                "tempo": 120.0
            },
            {
                "start_time": 3.05,
                "end_time": 3.2522727,
                "pitch": 73,
                "velocity": 80,
                "duration": 0.2022727,
                "tempo": 120.0
            },
            {
                "start_time": 3.2545455,
                "end_time": 3.2863636,
                "pitch": 72,
                "velocity": 80,
                "duration": 0.0318182,
                "tempo": 120.0
            },
            {
                "start_time": 3.2863636,
                "end_time": 3.6568182,
                "pitch": 75,
                "velocity": 80,
                "duration": 0.3704545,
                "tempo": 120.0
            },
            {
                "start_time": 3.6590909,
                "end_time": 3.6909091,
                "pitch": 75,
                "velocity": 80,
                "duration": 0.0318182,
                "tempo": 120.0
            },
            {
                "start_time": 3.6909091,
                "end_time": 3.8568182,
                "pitch": 72,
                "velocity": 80,
                "duration": 0.1659091,
                "tempo": 120.0
            },
            {
                "start_time": 3.8590909,
                "end_time": 4.2409091,
                "pitch": 71,
                "velocity": 80,
                "duration": 0.3818182,
                "tempo": 120.0
            },
            {
                "start_time": 4.2409091,
                "end_time": 4.2568182,
                "pitch": 69,
                "velocity": 80,
                "duration": 0.0159091,
                "tempo": 120.0
            },
            {
                "start_time": 4.2590909,
                "end_time": 4.4568182,
                "pitch": 69,
                "velocity": 80,
                "duration": 0.1977273,
                "tempo": 120.0
            },
            {
                "start_time": 4.4590909,
                "end_time": 4.6590909,
                "pitch": 70,
                "velocity": 80,
                "duration": 0.2,
                "tempo": 120.0
            },
            {
                "start_time": 4.6613636,
                "end_time": 4.6931818,
                "pitch": 73,
                "velocity": 80,
                "duration": 0.0318182,
                "tempo": 120.0
            },
            {
                "start_time": 4.6931818,
                "end_time": 4.8613636,
                "pitch": 76,
                "velocity": 80,
                "duration": 0.1681818,
                "tempo": 120.0
            },
            {
                "start_time": 4.8636364,
                "end_time": 4.8931818,
                "pitch": 77,
                "velocity": 80,
                "duration": 0.0295455,
                "tempo": 120.0
            },
            {
                "start_time": 1.3545455,
                "end_time": 5.2613636,
                "pitch": 79,
                "velocity": 80,
                "duration": 3.9068182,
                "tempo": 120.0
            },
            {
                "start_time": 4.8931818,
                "end_time": 5.2613636,
                "pitch": 79,
                "velocity": 80,
                "duration": 0.3681818,
                "tempo": 120.0
            },
            {
                "start_time": 5.2636364,
                "end_time": 5.2954545,
                "pitch": 78,
                "velocity": 80,
                "duration": 0.0318182,
                "tempo": 120.0
            },
            {
                "start_time": 5.2954545,
                "end_time": 5.4613636,
                "pitch": 75,
                "velocity": 80,
                "duration": 0.1659091,
                "tempo": 120.0
            },
            {
                "start_time": 5.4659091,
                "end_time": 5.8636364,
                "pitch": 73,
                "velocity": 80,
                "duration": 0.3977273,
                "tempo": 120.0
            },
            {
                "start_time": 5.8659091,
                "end_time": 6.0659091,
                "pitch": 71,
                "velocity": 80,
                "duration": 0.2,
                "tempo": 120.0
            },
            {
                "start_time": 6.0659091,
                "end_time": 6.2659091,
                "pitch": 72,
                "velocity": 80,
                "duration": 0.2,
                "tempo": 120.0
            },
            {
                "start_time": 6.2681818,
                "end_time": 6.4681818,
                "pitch": 73,
                "velocity": 80,
                "duration": 0.2,
                "tempo": 120.0
            },
            {
                "start_time": 6.4704545,
                "end_time": 6.6704545,
                "pitch": 73,
                "velocity": 80,
                "duration": 0.2,
                "tempo": 120.0
            },
            {
                "start_time": 6.6727273,
                "end_time": 7.0704545,
                "pitch": 71,
                "velocity": 80,
                "duration": 0.3977273,
                "tempo": 120.0
            },
            {
                "start_time": 7.0727273,
                "end_time": 7.4727273,
                "pitch": 70,
                "velocity": 80,
                "duration": 0.4,
                "tempo": 120.0
            },
            {
                "start_time": 7.475,
                "end_time": 7.675,
                "pitch": 69,
                "velocity": 80,
                "duration": 0.2,
                "tempo": 120.0
            },
            {
                "start_time": 7.6772727,
                "end_time": 7.875,
                "pitch": 70,
                "velocity": 80,
                "duration": 0.1977273,
                "tempo": 120.0
            },
            {
                "start_time": 7.8772727,
                "end_time": 7.9090909,
                "pitch": 73,
                "velocity": 80,
                "duration": 0.0318182,
                "tempo": 120.0
            },
            {
                "start_time": 7.9090909,
                "end_time": 8.075,
                "pitch": 76,
                "velocity": 80,
                "duration": 0.1659091,
                "tempo": 120.0
            },
            {
                "start_time": 8.0772727,
                "end_time": 8.475,
                "pitch": 75,
                "velocity": 80,
                "duration": 0.3977273,
                "tempo": 120.0
            },
            {
                "start_time": 8.4772727,
                "end_time": 8.6772727,
                "pitch": 73,
                "velocity": 80,
                "duration": 0.2,
                "tempo": 120.0
            },
            {
                "start_time": 8.6795455,
                "end_time": 8.7113636,
                "pitch": 70,
                "velocity": 80,
                "duration": 0.0318182,
                "tempo": 120.0
            },
            {
                "start_time": 8.7113636,
                "end_time": 8.9977273,
                "pitch": 68,
                "velocity": 80,
                "duration": 0.2863636,
                "tempo": 120.0
            },
            {
                "start_time": 1.4204545,
                "end_time": 9.0318182,
                "pitch": 55,
                "velocity": 80,
                "duration": 7.6113636,
                "tempo": 120.0
            },
            {
                "start_time": 4.8931818,
                "end_time": 9.0318182,
                "pitch": 67,
                "velocity": 80,
                "duration": 4.1386364,
                "tempo": 120.0
            },
            {
                "start_time": 8.9977273,
                "end_time": 9.0318182,
                "pitch": 67,
                "velocity": 80,
                "duration": 0.0340909,
                "tempo": 120.0
            },
            {
                "start_time": 9.0318182,
                "end_time": 9.0795455,
                "pitch": 67,
                "velocity": 80,
                "duration": 0.0477273,
                "tempo": 120.0
            },
            {
                "start_time": 9.0818182,
                "end_time": 9.2818182,
                "pitch": 66,
                "velocity": 80,
                "duration": 0.2,
                "tempo": 120.0
            },
            {
                "start_time": 9.2840909,
                "end_time": 9.4886364,
                "pitch": 65,
                "velocity": 80,
                "duration": 0.2045455,
                "tempo": 120.0
            },
            {
                "start_time": 9.0318182,
                "end_time": 9.5045455,
                "pitch": 55,
                "velocity": 80,
                "duration": 0.4727273,
                "tempo": 120.0
            },
            {
                "start_time": 9.4886364,
                "end_time": 9.5045455,
                "pitch": 66,
                "velocity": 80,
                "duration": 0.0159091,
                "tempo": 120.0
            },
            {
                "start_time": 9.5045455,
                "end_time": 9.6931818,
                "pitch": 67,
                "velocity": 80,
                "duration": 0.1886364,
                "tempo": 120.0
            },
            {
                "start_time": 9.6954545,
                "end_time": 11.0977273,
                "pitch": 68,
                "velocity": 80,
                "duration": 1.4022727,
                "tempo": 120.0
            },
            {
                "start_time": 11.1,
                "end_time": 12.9136364,
                "pitch": 70,
                "velocity": 80,
                "duration": 1.8136364,
                "tempo": 120.0
            },
            {
                "start_time": 38.65,
                "end_time": 38.6636364,
                "pitch": 72,
                "velocity": 101,
                "duration": 0.0136364,
                "tempo": 120.0
            },
            {
                "start_time": 38.6659091,
                "end_time": 41.8681818,
                "pitch": 72,
                "velocity": 40,
                "duration": 3.2022727,
                "tempo": 120.0
            },
            {
                "start_time": 41.8704545,
                "end_time": 41.9045455,
                "pitch": 74,
                "velocity": 40,
                "duration": 0.0340909,
                "tempo": 120.0
            },
            {
                "start_time": 41.9045455,
                "end_time": 42.4704545,
                "pitch": 76,
                "velocity": 40,
                "duration": 0.5659091,
                "tempo": 120.0
            },
            {
                "start_time": 42.4727273,
                "end_time": 43.0659091,
                "pitch": 74,
                "velocity": 40,
                "duration": 0.5931818,
                "tempo": 120.0
            },
            {
                "start_time": 43.0681818,
                "end_time": 45.0818182,
                "pitch": 72,
                "velocity": 40,
                "duration": 2.0136364,
                "tempo": 120.0
            },
            {
                "start_time": 45.0840909,
                "end_time": 48.2886364,
                "pitch": 74,
                "velocity": 40,
                "duration": 3.2045455,
                "tempo": 120.0
            },
            {
                "start_time": 48.2909091,
                "end_time": 48.3227273,
                "pitch": 76,
                "velocity": 40,
                "duration": 0.0318182,
                "tempo": 120.0
            },
            {
                "start_time": 8.9977273,
                "end_time": 48.7431818,
                "pitch": 79,
                "velocity": 80,
                "duration": 39.7454545,
                "tempo": 120.0
            },
            {
                "start_time": 48.3227273,
                "end_time": 48.7431818,
                "pitch": 79,
                "velocity": 40,
                "duration": 0.4204545,
                "tempo": 120.0
            },
            {
                "start_time": 48.3227273,
                "end_time": 48.8090909,
                "pitch": 67,
                "velocity": 40,
                "duration": 0.4863636,
                "tempo": 120.0
            },
            {
                "start_time": 48.7431818,
                "end_time": 48.8090909,
                "pitch": 79,
                "velocity": 40,
                "duration": 0.0659091,
                "tempo": 120.0
            },
            {
                "start_time": 48.8090909,
                "end_time": 48.9431818,
                "pitch": 79,
                "velocity": 40,
                "duration": 0.1340909,
                "tempo": 120.0
            },
            {
                "start_time": 48.7431818,
                "end_time": 48.9431818,
                "pitch": 91,
                "velocity": 40,
                "duration": 0.2,
                "tempo": 120.0
            },
            {
                "start_time": 48.8090909,
                "end_time": 49.0090909,
                "pitch": 67,
                "velocity": 40,
                "duration": 0.2,
                "tempo": 120.0
            },
            {
                "start_time": 48.9431818,
                "end_time": 49.0090909,
                "pitch": 79,
                "velocity": 40,
                "duration": 0.0659091,
                "tempo": 120.0
            },
            {
                "start_time": 49.0090909,
                "end_time": 49.1431818,
                "pitch": 79,
                "velocity": 40,
                "duration": 0.1340909,
                "tempo": 120.0
            },
            {
                "start_time": 48.9431818,
                "end_time": 49.1431818,
                "pitch": 91,
                "velocity": 40,
                "duration": 0.2,
                "tempo": 120.0
            },
            {
                "start_time": 49.0090909,
                "end_time": 49.2090909,
                "pitch": 67,
                "velocity": 40,
                "duration": 0.2,
                "tempo": 120.0
            },
            {
                "start_time": 49.1431818,
                "end_time": 49.2090909,
                "pitch": 79,
                "velocity": 40,
                "duration": 0.0659091,
                "tempo": 120.0
            },
            {
                "start_time": 49.2090909,
                "end_time": 49.3431818,
                "pitch": 79,
                "velocity": 40,
                "duration": 0.1340909,
                "tempo": 120.0
            },
            {
                "start_time": 49.1431818,
                "end_time": 49.3431818,
                "pitch": 91,
                "velocity": 40,
                "duration": 0.2,
                "tempo": 120.0
            },
            {
                "start_time": 49.2090909,
                "end_time": 49.4090909,
                "pitch": 67,
                "velocity": 40,
                "duration": 0.2,
                "tempo": 120.0
            },
            {
                "start_time": 49.3431818,
                "end_time": 49.4090909,
                "pitch": 79,
                "velocity": 40,
                "duration": 0.0659091,
                "tempo": 120.0
            },
            {
                "start_time": 49.4090909,
                "end_time": 49.5454545,
                "pitch": 79,
                "velocity": 40,
                "duration": 0.1363636,
                "tempo": 120.0
            },
            {
                "start_time": 49.3431818,
                "end_time": 49.5454545,
                "pitch": 91,
                "velocity": 40,
                "duration": 0.2022727,
                "tempo": 120.0
            },
            {
                "start_time": 49.4090909,
                "end_time": 49.6136364,
                "pitch": 67,
                "velocity": 40,
                "duration": 0.2045455,
                "tempo": 120.0
            },
            {
                "start_time": 49.5454545,
                "end_time": 49.6136364,
                "pitch": 79,
                "velocity": 40,
                "duration": 0.0681818,
                "tempo": 120.0
            },
            {
                "start_time": 49.6136364,
                "end_time": 49.75,
                "pitch": 79,
                "velocity": 40,
                "duration": 0.1363636,
                "tempo": 120.0
            },
            {
                "start_time": 49.5454545,
                "end_time": 49.75,
                "pitch": 91,
                "velocity": 40,
                "duration": 0.2045455,
                "tempo": 120.0
            },
            {
                "start_time": 49.75,
                "end_time": 49.8181818,
                "pitch": 79,
                "velocity": 40,
                "duration": 0.0681818,
                "tempo": 120.0
            },
            {
                "start_time": 49.6136364,
                "end_time": 49.8204545,
                "pitch": 67,
                "velocity": 40,
                "duration": 0.2068182,
                "tempo": 120.0
            },
            {
                "start_time": 49.8181818,
                "end_time": 49.8204545,
                "pitch": 67,
                "velocity": 40,
                "duration": 0.0022727,
                "tempo": 120.0
            },
            {
                "start_time": 49.8204545,
                "end_time": 49.9545455,
                "pitch": 79,
                "velocity": 40,
                "duration": 0.1340909,
                "tempo": 120.0
            },
            {
                "start_time": 49.75,
                "end_time": 49.9545455,
                "pitch": 91,
                "velocity": 40,
                "duration": 0.2045455,
                "tempo": 120.0
            },
            {
                "start_time": 49.9545455,
                "end_time": 50.0227273,
                "pitch": 79,
                "velocity": 40,
                "duration": 0.0681818,
                "tempo": 120.0
            },
            {
                "start_time": 50.0227273,
                "end_time": 50.1568182,
                "pitch": 79,
                "velocity": 40,
                "duration": 0.1340909,
                "tempo": 120.0
            },
            {
                "start_time": 49.9545455,
                "end_time": 50.1568182,
                "pitch": 91,
                "velocity": 40,
                "duration": 0.2022727,
                "tempo": 120.0
            },
            {
                "start_time": 50.0227273,
                "end_time": 50.225,
                "pitch": 67,
                "velocity": 40,
                "duration": 0.2022727,
                "tempo": 120.0
            },
            {
                "start_time": 50.1568182,
                "end_time": 50.225,
                "pitch": 79,
                "velocity": 40,
                "duration": 0.0681818,
                "tempo": 120.0
            },
            {
                "start_time": 50.225,
                "end_time": 50.3590909,
                "pitch": 79,
                "velocity": 40,
                "duration": 0.1340909,
                "tempo": 120.0
            },
            {
                "start_time": 50.1568182,
                "end_time": 50.3590909,
                "pitch": 91,
                "velocity": 40,
                "duration": 0.2022727,
                "tempo": 120.0
            },
            {
                "start_time": 50.225,
                "end_time": 50.425,
                "pitch": 67,
                "velocity": 40,
                "duration": 0.2,
                "tempo": 120.0
            },
            {
                "start_time": 50.3590909,
                "end_time": 50.425,
                "pitch": 79,
                "velocity": 40,
                "duration": 0.0659091,
                "tempo": 120.0
            },
            {
                "start_time": 50.425,
                "end_time": 50.5590909,
                "pitch": 79,
                "velocity": 40,
                "duration": 0.1340909,
                "tempo": 120.0
            },
            {
                "start_time": 50.3590909,
                "end_time": 50.5590909,
                "pitch": 91,
                "velocity": 40,
                "duration": 0.2,
                "tempo": 120.0
            },
            {
                "start_time": 50.425,
                "end_time": 50.625,
                "pitch": 67,
                "velocity": 40,
                "duration": 0.2,
                "tempo": 120.0
            },
            {
                "start_time": 50.5590909,
                "end_time": 50.625,
                "pitch": 79,
                "velocity": 40,
                "duration": 0.0659091,
                "tempo": 120.0
            },
            {
                "start_time": 50.625,
                "end_time": 50.7590909,
                "pitch": 79,
                "velocity": 40,
                "duration": 0.1340909,
                "tempo": 120.0
            },
            {
                "start_time": 50.5590909,
                "end_time": 50.7590909,
                "pitch": 91,
                "velocity": 40,
                "duration": 0.2,
                "tempo": 120.0
            },
            {
                "start_time": 50.625,
                "end_time": 50.825,
                "pitch": 67,
                "velocity": 40,
                "duration": 0.2,
                "tempo": 120.0
            },
            {
                "start_time": 50.7590909,
                "end_time": 50.825,
                "pitch": 79,
                "velocity": 40,
                "duration": 0.0659091,
                "tempo": 120.0
            },
            {
                "start_time": 50.825,
                "end_time": 50.9590909,
                "pitch": 79,
                "velocity": 40,
                "duration": 0.1340909,
                "tempo": 120.0
            },
            {
                "start_time": 50.7590909,
                "end_time": 50.9590909,
                "pitch": 91,
                "velocity": 40,
                "duration": 0.2,
                "tempo": 120.0
            },
            {
                "start_time": 50.825,
                "end_time": 51.025,
                "pitch": 67,
                "velocity": 40,
                "duration": 0.2,
                "tempo": 120.0
            },
            {
                "start_time": 50.9590909,
                "end_time": 51.025,
                "pitch": 79,
                "velocity": 40,
                "duration": 0.0659091,
                "tempo": 120.0
            },
            {
                "start_time": 51.025,
                "end_time": 51.1590909,
                "pitch": 79,
                "velocity": 40,
                "duration": 0.1340909,
                "tempo": 120.0
            },
            {
                "start_time": 50.9590909,
                "end_time": 51.1590909,
                "pitch": 91,
                "velocity": 40,
                "duration": 0.2,
                "tempo": 120.0
            },
            {
                "start_time": 51.1590909,
                "end_time": 51.225,
                "pitch": 79,
                "velocity": 40,
                "duration": 0.0659091,
                "tempo": 120.0
            },
            {
                "start_time": 51.025,
                "end_time": 51.2272727,
                "pitch": 67,
                "velocity": 40,
                "duration": 0.2022727,
                "tempo": 120.0
            },
            {
                "start_time": 51.225,
                "end_time": 51.2272727,
                "pitch": 67,
                "velocity": 40,
                "duration": 0.0022727,
                "tempo": 120.0
            },
            {
                "start_time": 51.2272727,
                "end_time": 51.3590909,
                "pitch": 79,
                "velocity": 40,
                "duration": 0.1318182,
                "tempo": 120.0
            },
            {
                "start_time": 51.1590909,
                "end_time": 51.3590909,
                "pitch": 91,
                "velocity": 40,
                "duration": 0.2,
                "tempo": 120.0
            },
            {
                "start_time": 51.3590909,
                "end_time": 51.4272727,
                "pitch": 79,
                "velocity": 40,
                "duration": 0.0681818,
                "tempo": 120.0
            },
            {
                "start_time": 51.4272727,
                "end_time": 51.5090909,
                "pitch": 79,
                "velocity": 40,
                "duration": 0.0818182,
                "tempo": 120.0
            },
            {
                "start_time": 51.5113636,
                "end_time": 53.1136364,
                "pitch": 77,
                "velocity": 40,
                "duration": 1.6022727,
                "tempo": 120.0
            },
            {
                "start_time": 54.7204545,
                "end_time": 56.3227273,
                "pitch": 76,
                "velocity": 40,
                "duration": 1.6022727,
                "tempo": 120.0
            },
            {
                "start_time": 57.9386364,
                "end_time": 57.9704545,
                "pitch": 74,
                "velocity": 40,
                "duration": 0.0318182,
                "tempo": 120.0
            },
            {
                "start_time": 57.9704545,
                "end_time": 59.3386364,
                "pitch": 77,
                "velocity": 40,
                "duration": 1.3681818,
                "tempo": 120.0
            },
            {
                "start_time": 59.3409091,
                "end_time": 59.7386364,
                "pitch": 75,
                "velocity": 40,
                "duration": 0.3977273,
                "tempo": 120.0
            },
            {
                "start_time": 59.7409091,
                "end_time": 60.1409091,
                "pitch": 76,
                "velocity": 40,
                "duration": 0.4,
                "tempo": 120.0
            },
            {
                "start_time": 60.1431818,
                "end_time": 60.175,
                "pitch": 79,
                "velocity": 40,
                "duration": 0.0318182,
                "tempo": 120.0
            },
            {
                "start_time": 60.175,
                "end_time": 60.5409091,
                "pitch": 81,
                "velocity": 40,
                "duration": 0.3659091,
                "tempo": 120.0
            },
            {
                "start_time": 60.5431818,
                "end_time": 60.9431818,
                "pitch": 79,
                "velocity": 40,
                "duration": 0.4,
                "tempo": 120.0
            },
            {
                "start_time": 60.9454545,
                "end_time": 60.9772727,
                "pitch": 81,
                "velocity": 40,
                "duration": 0.0318182,
                "tempo": 120.0
            },
            {
                "start_time": 60.9772727,
                "end_time": 61.0090909,
                "pitch": 85,
                "velocity": 40,
                "duration": 0.0318182,
                "tempo": 120.0
            },
            {
                "start_time": 61.0090909,
                "end_time": 62.5477273,
                "pitch": 88,
                "velocity": 40,
                "duration": 1.5386364,
                "tempo": 120.0
            },
            {
                "start_time": 62.55,
                "end_time": 62.5818182,
                "pitch": 86,
                "velocity": 40,
                "duration": 0.0318182,
                "tempo": 120.0
            },
            {
                "start_time": 62.5818182,
                "end_time": 62.7477273,
                "pitch": 83,
                "velocity": 40,
                "duration": 0.1659091,
                "tempo": 120.0
            },
            {
                "start_time": 62.75,
                "end_time": 62.8477273,
                "pitch": 40,
                "velocity": 64,
                "duration": 0.0977273,
                "tempo": 120.0
            },
            {
                "start_time": 62.85,
                "end_time": 62.9477273,
                "pitch": 45,
                "velocity": 64,
                "duration": 0.0977273,
                "tempo": 120.0
            },
            {
                "start_time": 62.95,
                "end_time": 63.0477273,
                "pitch": 47,
                "velocity": 64,
                "duration": 0.0977273,
                "tempo": 120.0
            },
            {
                "start_time": 63.05,
                "end_time": 63.1477273,
                "pitch": 50,
                "velocity": 64,
                "duration": 0.0977273,
                "tempo": 120.0
            },
            {
                "start_time": 63.15,
                "end_time": 63.2477273,
                "pitch": 52,
                "velocity": 64,
                "duration": 0.0977273,
                "tempo": 120.0
            },
            {
                "start_time": 63.25,
                "end_time": 63.3477273,
                "pitch": 57,
                "velocity": 64,
                "duration": 0.0977273,
                "tempo": 120.0
            },
            {
                "start_time": 63.35,
                "end_time": 63.4477273,
                "pitch": 59,
                "velocity": 64,
                "duration": 0.0977273,
                "tempo": 120.0
            },
            {
                "start_time": 63.45,
                "end_time": 63.5477273,
                "pitch": 62,
                "velocity": 64,
                "duration": 0.0977273,
                "tempo": 120.0
            },
            {
                "start_time": 63.55,
                "end_time": 63.65,
                "pitch": 64,
                "velocity": 64,
                "duration": 0.1,
                "tempo": 120.0
            },
            {
                "start_time": 63.65,
                "end_time": 63.75,
                "pitch": 68,
                "velocity": 64,
                "duration": 0.1,
                "tempo": 120.0
            },
            {
                "start_time": 63.7522727,
                "end_time": 63.85,
                "pitch": 71,
                "velocity": 64,
                "duration": 0.0977273,
                "tempo": 120.0
            },
            {
                "start_time": 63.8522727,
                "end_time": 63.9522727,
                "pitch": 74,
                "velocity": 64,
                "duration": 0.1,
                "tempo": 120.0
            },
            {
                "start_time": 63.9522727,
                "end_time": 64.0545455,
                "pitch": 76,
                "velocity": 64,
                "duration": 0.1022727,
                "tempo": 120.0
            },
            {
                "start_time": 64.0568182,
                "end_time": 64.1568182,
                "pitch": 80,
                "velocity": 64,
                "duration": 0.1,
                "tempo": 120.0
            },
            {
                "start_time": 64.1590909,
                "end_time": 64.2613636,
                "pitch": 83,
                "velocity": 64,
                "duration": 0.1022727,
                "tempo": 120.0
            },
            {
                "start_time": 64.2613636,
                "end_time": 64.3613636,
                "pitch": 86,
                "velocity": 64,
                "duration": 0.1,
                "tempo": 120.0
            },
            {
                "start_time": 86.9,
                "end_time": 87.0,
                "pitch": 76,
                "velocity": 64,
                "duration": 0.1,
                "tempo": 120.0
            },
            {
                "start_time": 87.0022727,
                "end_time": 87.1045455,
                "pitch": 74,
                "velocity": 64,
                "duration": 0.1022727,
                "tempo": 120.0
            },
            {
                "start_time": 87.1045455,
                "end_time": 87.2068182,
                "pitch": 71,
                "velocity": 64,
                "duration": 0.1022727,
                "tempo": 120.0
            },
            {
                "start_time": 87.2068182,
                "end_time": 87.3090909,
                "pitch": 68,
                "velocity": 64,
                "duration": 0.1022727,
                "tempo": 120.0
            },
            {
                "start_time": 87.3113636,
                "end_time": 87.4068182,
                "pitch": 64,
                "velocity": 64,
                "duration": 0.0954545,
                "tempo": 120.0
            },
            {
                "start_time": 87.4090909,
                "end_time": 87.5045455,
                "pitch": 62,
                "velocity": 64,
                "duration": 0.0954545,
                "tempo": 120.0
            },
            {
                "start_time": 87.5068182,
                "end_time": 87.6045455,
                "pitch": 59,
                "velocity": 64,
                "duration": 0.0977273,
                "tempo": 120.0
            },
            {
                "start_time": 87.6045455,
                "end_time": 87.7022727,
                "pitch": 56,
                "velocity": 64,
                "duration": 0.0977273,
                "tempo": 120.0
            },
            {
                "start_time": 87.7045455,
                "end_time": 88.1045455,
                "pitch": 52,
                "velocity": 64,
                "duration": 0.4,
                "tempo": 120.0
            },
            {
                "start_time": 88.3090909,
                "end_time": 88.3227273,
                "pitch": 72,
                "velocity": 4,
                "duration": 0.0136364,
                "tempo": 120.0
            },
            {
                "start_time": 88.3227273,
                "end_time": 88.9090909,
                "pitch": 72,
                "velocity": 80,
                "duration": 0.5863636,
                "tempo": 120.0
            },
            {
                "start_time": 88.9113636,
                "end_time": 89.1136364,
                "pitch": 71,
                "velocity": 80,
                "duration": 0.2022727,
                "tempo": 120.0
            },
            {
                "start_time": 89.1159091,
                "end_time": 89.5159091,
                "pitch": 70,
                "velocity": 80,
                "duration": 0.4,
                "tempo": 120.0
            },
            {
                "start_time": 89.5181818,
                "end_time": 89.8840909,
                "pitch": 68,
                "velocity": 80,
                "duration": 0.3659091,
                "tempo": 120.0
            },
            {
                "start_time": 51.4272727,
                "end_time": 89.9181818,
                "pitch": 67,
                "velocity": 40,
                "duration": 38.4909091,
                "tempo": 120.0
            },
            {
                "start_time": 89.8840909,
                "end_time": 89.9181818,
                "pitch": 67,
                "velocity": 80,
                "duration": 0.0340909,
                "tempo": 120.0
            },
            {
                "start_time": 89.9204545,
                "end_time": 89.9522727,
                "pitch": 68,
                "velocity": 80,
                "duration": 0.0318182,
                "tempo": 120.0
            },
            {
                "start_time": 89.9522727,
                "end_time": 90.5272727,
                "pitch": 71,
                "velocity": 80,
                "duration": 0.575,
                "tempo": 120.0
            },
            {
                "start_time": 90.5295455,
                "end_time": 90.7272727,
                "pitch": 72,
                "velocity": 80,
                "duration": 0.1977273,
                "tempo": 120.0
            },
            {
                "start_time": 90.7318182,
                "end_time": 91.1295455,
                "pitch": 73,
                "velocity": 80,
                "duration": 0.3977273,
                "tempo": 120.0
            },
            {
                "start_time": 91.1318182,
                "end_time": 91.3295455,
                "pitch": 72,
                "velocity": 80,
                "duration": 0.1977273,
                "tempo": 120.0
            },
            {
                "start_time": 91.3318182,
                "end_time": 91.5318182,
                "pitch": 73,
                "velocity": 80,
                "duration": 0.2,
                "tempo": 120.0
            },
            {
                "start_time": 91.5340909,
                "end_time": 91.7340909,
                "pitch": 73,
                "velocity": 80,
                "duration": 0.2,
                "tempo": 120.0
            },
            {
                "start_time": 91.7363636,
                "end_time": 91.7681818,
                "pitch": 72,
                "velocity": 80,
                "duration": 0.0318182,
                "tempo": 120.0
            },
            {
                "start_time": 91.7681818,
                "end_time": 92.1340909,
                "pitch": 75,
                "velocity": 80,
                "duration": 0.3659091,
                "tempo": 120.0
            },
            {
                "start_time": 92.1363636,
                "end_time": 92.1681818,
                "pitch": 75,
                "velocity": 80,
                "duration": 0.0318182,
                "tempo": 120.0
            },
            {
                "start_time": 92.1681818,
                "end_time": 92.3363636,
                "pitch": 72,
                "velocity": 80,
                "duration": 0.1681818,
                "tempo": 120.0
            },
            {
                "start_time": 92.3386364,
                "end_time": 92.7386364,
                "pitch": 71,
                "velocity": 80,
                "duration": 0.4,
                "tempo": 120.0
            },
            {
                "start_time": 92.7409091,
                "end_time": 92.9409091,
                "pitch": 69,
                "velocity": 80,
                "duration": 0.2,
                "tempo": 120.0
            },
            {
                "start_time": 92.9431818,
                "end_time": 93.1409091,
                "pitch": 70,
                "velocity": 80,
                "duration": 0.1977273,
                "tempo": 120.0
            },
            {
                "start_time": 93.1431818,
                "end_time": 93.175,
                "pitch": 73,
                "velocity": 80,
                "duration": 0.0318182,
                "tempo": 120.0
            },
            {
                "start_time": 93.175,
                "end_time": 93.3409091,
                "pitch": 76,
                "velocity": 80,
                "duration": 0.1659091,
                "tempo": 120.0
            },
            {
                "start_time": 93.3431818,
                "end_time": 93.375,
                "pitch": 77,
                "velocity": 80,
                "duration": 0.0318182,
                "tempo": 120.0
            },
            {
                "start_time": 89.8840909,
                "end_time": 93.7454545,
                "pitch": 79,
                "velocity": 80,
                "duration": 3.8613636,
                "tempo": 120.0
            },
            {
                "start_time": 93.375,
                "end_time": 93.7454545,
                "pitch": 79,
                "velocity": 80,
                "duration": 0.3704545,
                "tempo": 120.0
            },
            {
                "start_time": 93.7454545,
                "end_time": 93.7795455,
                "pitch": 78,
                "velocity": 80,
                "duration": 0.0340909,
                "tempo": 120.0
            },
            {
                "start_time": 93.7795455,
                "end_time": 93.9454545,
                "pitch": 75,
                "velocity": 80,
                "duration": 0.1659091,
                "tempo": 120.0
            },
            {
                "start_time": 93.9477273,
                "end_time": 94.2636364,
                "pitch": 73,
                "velocity": 80,
                "duration": 0.3159091,
                "tempo": 120.0
            },
            {
                "start_time": 94.2636364,
                "end_time": 94.3454545,
                "pitch": 71,
                "velocity": 80,
                "duration": 0.0818182,
                "tempo": 120.0
            },
            {
                "start_time": 94.3477273,
                "end_time": 94.5477273,
                "pitch": 71,
                "velocity": 80,
                "duration": 0.2,
                "tempo": 120.0
            },
            {
                "start_time": 94.55,
                "end_time": 94.75,
                "pitch": 72,
                "velocity": 80,
                "duration": 0.2,
                "tempo": 120.0
            },
            {
                "start_time": 94.7522727,
                "end_time": 94.9522727,
                "pitch": 73,
                "velocity": 80,
                "duration": 0.2,
                "tempo": 120.0
            },
            {
                "start_time": 94.9545455,
                "end_time": 95.1568182,
                "pitch": 73,
                "velocity": 80,
                "duration": 0.2022727,
                "tempo": 120.0
            },
            {
                "start_time": 95.1590909,
                "end_time": 95.5636364,
                "pitch": 71,
                "velocity": 80,
                "duration": 0.4045455,
                "tempo": 120.0
            },
            {
                "start_time": 95.5659091,
                "end_time": 95.9590909,
                "pitch": 70,
                "velocity": 80,
                "duration": 0.3931818,
                "tempo": 120.0
            },
            {
                "start_time": 95.9613636,
                "end_time": 96.1568182,
                "pitch": 69,
                "velocity": 80,
                "duration": 0.1954545,
                "tempo": 120.0
            },
            {
                "start_time": 96.1568182,
                "end_time": 96.3613636,
                "pitch": 70,
                "velocity": 80,
                "duration": 0.2045455,
                "tempo": 120.0
            },
            {
                "start_time": 96.3636364,
                "end_time": 96.3977273,
                "pitch": 73,
                "velocity": 80,
                "duration": 0.0340909,
                "tempo": 120.0
            },
            {
                "start_time": 96.3977273,
                "end_time": 96.5681818,
                "pitch": 76,
                "velocity": 80,
                "duration": 0.1704545,
                "tempo": 120.0
            },
            {
                "start_time": 96.5681818,
                "end_time": 96.9590909,
                "pitch": 75,
                "velocity": 80,
                "duration": 0.3909091,
                "tempo": 120.0
            },
            {
                "start_time": 96.9613636,
                "end_time": 97.1659091,
                "pitch": 73,
                "velocity": 80,
                "duration": 0.2045455,
                "tempo": 120.0
            },
            {
                "start_time": 97.1681818,
                "end_time": 97.2,
                "pitch": 70,
                "velocity": 80,
                "duration": 0.0318182,
                "tempo": 120.0
            },
            {
                "start_time": 97.2,
                "end_time": 97.5022727,
                "pitch": 68,
                "velocity": 80,
                "duration": 0.3022727,
                "tempo": 120.0
            },
            {
                "start_time": 93.375,
                "end_time": 97.5659091,
                "pitch": 67,
                "velocity": 80,
                "duration": 4.1909091,
                "tempo": 120.0
            },
            {
                "start_time": 97.5022727,
                "end_time": 97.5659091,
                "pitch": 67,
                "velocity": 80,
                "duration": 0.0636364,
                "tempo": 120.0
            },
            {
                "start_time": 97.5681818,
                "end_time": 97.7636364,
                "pitch": 66,
                "velocity": 80,
                "duration": 0.1954545,
                "tempo": 120.0
            },
            {
                "start_time": 97.7659091,
                "end_time": 97.9681818,
                "pitch": 65,
                "velocity": 80,
                "duration": 0.2022727,
                "tempo": 120.0
            },
            {
                "start_time": 9.5045455,
                "end_time": 97.9863636,
                "pitch": 55,
                "velocity": 80,
                "duration": 88.4818182,
                "tempo": 120.0
            },
            {
                "start_time": 97.9704545,
                "end_time": 97.9863636,
                "pitch": 66,
                "velocity": 80,
                "duration": 0.0159091,
                "tempo": 120.0
            },
            {
                "start_time": 97.9863636,
                "end_time": 98.175,
                "pitch": 67,
                "velocity": 80,
                "duration": 0.1886364,
                "tempo": 120.0
            },
            {
                "start_time": 98.1772727,
                "end_time": 99.5818182,
                "pitch": 68,
                "velocity": 80,
                "duration": 1.4045455,
                "tempo": 120.0
            },
            {
                "start_time": 99.5840909,
                "end_time": 101.3909091,
                "pitch": 70,
                "velocity": 80,
                "duration": 1.8068182,
                "tempo": 120.0
            },
            {
                "start_time": 101.3931818,
                "end_time": 101.3954545,
                "pitch": 71,
                "velocity": 80,
                "duration": 0.0022727,
                "tempo": 120.0
            },
            {
                "start_time": 127.1977273,
                "end_time": 127.2113636,
                "pitch": 72,
                "velocity": 101,
                "duration": 0.0136364,
                "tempo": 120.0
            },
            {
                "start_time": 127.2136364,
                "end_time": 130.4204545,
                "pitch": 72,
                "velocity": 40,
                "duration": 3.2068182,
                "tempo": 120.0
            },
            {
                "start_time": 130.4227273,
                "end_time": 130.4545455,
                "pitch": 74,
                "velocity": 40,
                "duration": 0.0318182,
                "tempo": 120.0
            },
            {
                "start_time": 130.4545455,
                "end_time": 131.025,
                "pitch": 76,
                "velocity": 40,
                "duration": 0.5704545,
                "tempo": 120.0
            },
            {
                "start_time": 131.0272727,
                "end_time": 131.6204545,
                "pitch": 74,
                "velocity": 40,
                "duration": 0.5931818,
                "tempo": 120.0
            },
            {
                "start_time": 131.6204545,
                "end_time": 133.6409091,
                "pitch": 72,
                "velocity": 40,
                "duration": 2.0204545,
                "tempo": 120.0
            },
            {
                "start_time": 133.6431818,
                "end_time": 136.8613636,
                "pitch": 74,
                "velocity": 40,
                "duration": 3.2181818,
                "tempo": 120.0
            },
            {
                "start_time": 136.8636364,
                "end_time": 136.8954545,
                "pitch": 76,
                "velocity": 40,
                "duration": 0.0318182,
                "tempo": 120.0
            },
            {
                "start_time": 97.5022727,
                "end_time": 140.0909091,
                "pitch": 79,
                "velocity": 80,
                "duration": 42.5886364,
                "tempo": 120.0
            },
            {
                "start_time": 136.8954545,
                "end_time": 140.0909091,
                "pitch": 79,
                "velocity": 40,
                "duration": 3.1954545,
                "tempo": 120.0
            },
            {
                "start_time": 140.0909091,
                "end_time": 141.7,
                "pitch": 77,
                "velocity": 40,
                "duration": 1.6090909,
                "tempo": 120.0
            },
            {
                "start_time": 143.3113636,
                "end_time": 144.9227273,
                "pitch": 76,
                "velocity": 40,
                "duration": 1.6113636,
                "tempo": 120.0
            },
            {
                "start_time": 146.5409091,
                "end_time": 146.5727273,
                "pitch": 74,
                "velocity": 40,
                "duration": 0.0318182,
                "tempo": 120.0
            },
            {
                "start_time": 146.5727273,
                "end_time": 147.9477273,
                "pitch": 77,
                "velocity": 40,
                "duration": 1.375,
                "tempo": 120.0
            },
            {
                "start_time": 147.9477273,
                "end_time": 148.35,
                "pitch": 75,
                "velocity": 40,
                "duration": 0.4022727,
                "tempo": 120.0
            },
            {
                "start_time": 148.3522727,
                "end_time": 148.7522727,
                "pitch": 76,
                "velocity": 40,
                "duration": 0.4,
                "tempo": 120.0
            },
            {
                "start_time": 148.7545455,
                "end_time": 148.7886364,
                "pitch": 79,
                "velocity": 40,
                "duration": 0.0340909,
                "tempo": 120.0
            },
            {
                "start_time": 148.7886364,
                "end_time": 149.1568182,
                "pitch": 81,
                "velocity": 40,
                "duration": 0.3681818,
                "tempo": 120.0
            },
            {
                "start_time": 149.1590909,
                "end_time": 149.5590909,
                "pitch": 79,
                "velocity": 40,
                "duration": 0.4,
                "tempo": 120.0
            },
            {
                "start_time": 149.5590909,
                "end_time": 149.5931818,
                "pitch": 81,
                "velocity": 40,
                "duration": 0.0340909,
                "tempo": 120.0
            },
            {
                "start_time": 149.5931818,
                "end_time": 149.625,
                "pitch": 85,
                "velocity": 40,
                "duration": 0.0318182,
                "tempo": 120.0
            },
            {
                "start_time": 149.625,
                "end_time": 151.1704545,
                "pitch": 88,
                "velocity": 40,
                "duration": 1.5454545,
                "tempo": 120.0
            },
            {
                "start_time": 151.1727273,
                "end_time": 151.2045455,
                "pitch": 86,
                "velocity": 40,
                "duration": 0.0318182,
                "tempo": 120.0
            },
            {
                "start_time": 151.2045455,
                "end_time": 151.3727273,
                "pitch": 83,
                "velocity": 40,
                "duration": 0.1681818,
                "tempo": 120.0
            },
            {
                "start_time": 151.3727273,
                "end_time": 151.4727273,
                "pitch": 40,
                "velocity": 64,
                "duration": 0.1,
                "tempo": 120.0
            },
            {
                "start_time": 151.4727273,
                "end_time": 151.5727273,
                "pitch": 45,
                "velocity": 64,
                "duration": 0.1,
                "tempo": 120.0
            },
            {
                "start_time": 151.5727273,
                "end_time": 151.6727273,
                "pitch": 47,
                "velocity": 64,
                "duration": 0.1,
                "tempo": 120.0
            },
            {
                "start_time": 151.6727273,
                "end_time": 151.7727273,
                "pitch": 50,
                "velocity": 64,
                "duration": 0.1,
                "tempo": 120.0
            },
            {
                "start_time": 151.7727273,
                "end_time": 151.875,
                "pitch": 52,
                "velocity": 64,
                "duration": 0.1022727,
                "tempo": 120.0
            },
            {
                "start_time": 151.875,
                "end_time": 151.9772727,
                "pitch": 57,
                "velocity": 64,
                "duration": 0.1022727,
                "tempo": 120.0
            },
            {
                "start_time": 151.9795455,
                "end_time": 152.0818182,
                "pitch": 59,
                "velocity": 64,
                "duration": 0.1022727,
                "tempo": 120.0
            },
            {
                "start_time": 152.0818182,
                "end_time": 152.1840909,
                "pitch": 62,
                "velocity": 64,
                "duration": 0.1022727,
                "tempo": 120.0
            },
            {
                "start_time": 152.1840909,
                "end_time": 152.2818182,
                "pitch": 64,
                "velocity": 64,
                "duration": 0.0977273,
                "tempo": 120.0
            },
            {
                "start_time": 152.2818182,
                "end_time": 152.3795455,
                "pitch": 68,
                "velocity": 64,
                "duration": 0.0977273,
                "tempo": 120.0
            },
            {
                "start_time": 152.3795455,
                "end_time": 152.4772727,
                "pitch": 71,
                "velocity": 64,
                "duration": 0.0977273,
                "tempo": 120.0
            },
            {
                "start_time": 152.4795455,
                "end_time": 152.575,
                "pitch": 74,
                "velocity": 64,
                "duration": 0.0954545,
                "tempo": 120.0
            },
            {
                "start_time": 152.5772727,
                "end_time": 152.6795455,
                "pitch": 76,
                "velocity": 64,
                "duration": 0.1022727,
                "tempo": 120.0
            },
            {
                "start_time": 152.6795455,
                "end_time": 152.7818182,
                "pitch": 80,
                "velocity": 64,
                "duration": 0.1022727,
                "tempo": 120.0
            },
            {
                "start_time": 152.7818182,
                "end_time": 152.8840909,
                "pitch": 83,
                "velocity": 64,
                "duration": 0.1022727,
                "tempo": 120.0
            },
            {
                "start_time": 152.8863636,
                "end_time": 152.9863636,
                "pitch": 86,
                "velocity": 64,
                "duration": 0.1,
                "tempo": 120.0
            },
            {
                "start_time": 175.5454545,
                "end_time": 175.6431818,
                "pitch": 76,
                "velocity": 64,
                "duration": 0.0977273,
                "tempo": 120.0
            },
            {
                "start_time": 175.6431818,
                "end_time": 175.7431818,
                "pitch": 74,
                "velocity": 64,
                "duration": 0.1,
                "tempo": 120.0
            },
            {
                "start_time": 175.7454545,
                "end_time": 175.8431818,
                "pitch": 71,
                "velocity": 64,
                "duration": 0.0977273,
                "tempo": 120.0
            },
            {
                "start_time": 175.8454545,
                "end_time": 175.9431818,
                "pitch": 68,
                "velocity": 64,
                "duration": 0.0977273,
                "tempo": 120.0
            },
            {
                "start_time": 175.9454545,
                "end_time": 176.0454545,
                "pitch": 64,
                "velocity": 64,
                "duration": 0.1,
                "tempo": 120.0
            },
            {
                "start_time": 176.0454545,
                "end_time": 176.1454545,
                "pitch": 62,
                "velocity": 64,
                "duration": 0.1,
                "tempo": 120.0
            },
            {
                "start_time": 176.1454545,
                "end_time": 176.2454545,
                "pitch": 59,
                "velocity": 64,
                "duration": 0.1,
                "tempo": 120.0
            },
            {
                "start_time": 176.2477273,
                "end_time": 176.3477273,
                "pitch": 56,
                "velocity": 64,
                "duration": 0.1,
                "tempo": 120.0
            },
            {
                "start_time": 176.3477273,
                "end_time": 176.75,
                "pitch": 52,
                "velocity": 64,
                "duration": 0.4022727,
                "tempo": 120.0
            },
            {
                "start_time": 176.9545455,
                "end_time": 176.9681818,
                "pitch": 72,
                "velocity": 4,
                "duration": 0.0136364,
                "tempo": 120.0
            },
            {
                "start_time": 176.9704545,
                "end_time": 177.5568182,
                "pitch": 72,
                "velocity": 80,
                "duration": 0.5863636,
                "tempo": 120.0
            },
            {
                "start_time": 177.5590909,
                "end_time": 177.7613636,
                "pitch": 71,
                "velocity": 80,
                "duration": 0.2022727,
                "tempo": 120.0
            },
            {
                "start_time": 177.7636364,
                "end_time": 178.1636364,
                "pitch": 70,
                "velocity": 80,
                "duration": 0.4,
                "tempo": 120.0
            },
            {
                "start_time": 178.1659091,
                "end_time": 178.4818182,
                "pitch": 68,
                "velocity": 80,
                "duration": 0.3159091,
                "tempo": 120.0
            },
            {
                "start_time": 97.9863636,
                "end_time": 178.55,
                "pitch": 55,
                "velocity": 80,
                "duration": 80.5636364,
                "tempo": 120.0
            },
            {
                "start_time": 136.8954545,
                "end_time": 178.55,
                "pitch": 67,
                "velocity": 40,
                "duration": 41.6545455,
                "tempo": 120.0
            },
            {
                "start_time": 178.4818182,
                "end_time": 178.55,
                "pitch": 67,
                "velocity": 80,
                "duration": 0.0681818,
                "tempo": 120.0
            },
            {
                "start_time": 178.55,
                "end_time": 178.5659091,
                "pitch": 67,
                "velocity": 80,
                "duration": 0.0159091,
                "tempo": 120.0
            },
            {
                "start_time": 178.5681818,
                "end_time": 178.6,
                "pitch": 68,
                "velocity": 80,
                "duration": 0.0318182,
                "tempo": 120.0
            },
            {
                "start_time": 178.6,
                "end_time": 179.175,
                "pitch": 71,
                "velocity": 80,
                "duration": 0.575,
                "tempo": 120.0
            },
            {
                "start_time": 179.1772727,
                "end_time": 179.3772727,
                "pitch": 72,
                "velocity": 80,
                "duration": 0.2,
                "tempo": 120.0
            },
            {
                "start_time": 179.3795455,
                "end_time": 179.7795455,
                "pitch": 73,
                "velocity": 80,
                "duration": 0.4,
                "tempo": 120.0
            },
            {
                "start_time": 179.7818182,
                "end_time": 179.9818182,
                "pitch": 72,
                "velocity": 80,
                "duration": 0.2,
                "tempo": 120.0
            }
        ],
        "Vibraphone": [
            {
                "start_time": 27.4022727,
                "end_time": 27.6022727,
                "pitch": 74,
                "velocity": 101,
                "duration": 0.2,
                "tempo": 120.0
            },
            {
                "start_time": 27.6022727,
                "end_time": 27.8022727,
                "pitch": 76,
                "velocity": 101,
                "duration": 0.2,
                "tempo": 120.0
            },
            {
                "start_time": 27.8022727,
                "end_time": 28.0045455,
                "pitch": 77,
                "velocity": 101,
                "duration": 0.2022727,
                "tempo": 120.0
            },
            {
                "start_time": 28.0045455,
                "end_time": 29.0068182,
                "pitch": 74,
                "velocity": 101,
                "duration": 1.0022727,
                "tempo": 120.0
            },
            {
                "start_time": 30.6159091,
                "end_time": 30.8136364,
                "pitch": 72,
                "velocity": 101,
                "duration": 0.1977273,
                "tempo": 120.0
            },
            {
                "start_time": 30.8159091,
                "end_time": 31.0136364,
                "pitch": 74,
                "velocity": 101,
                "duration": 0.1977273,
                "tempo": 120.0
            },
            {
                "start_time": 31.0159091,
                "end_time": 31.2159091,
                "pitch": 76,
                "velocity": 101,
                "duration": 0.2,
                "tempo": 120.0
            },
            {
                "start_time": 31.2181818,
                "end_time": 32.2204545,
                "pitch": 72,
                "velocity": 101,
                "duration": 1.0022727,
                "tempo": 120.0
            },
            {
                "start_time": 53.1159091,
                "end_time": 53.3136364,
                "pitch": 74,
                "velocity": 101,
                "duration": 0.1977273,
                "tempo": 120.0
            },
            {
                "start_time": 53.3136364,
                "end_time": 53.5136364,
                "pitch": 76,
                "velocity": 101,
                "duration": 0.2,
                "tempo": 120.0
            },
            {
                "start_time": 53.5159091,
                "end_time": 53.7136364,
                "pitch": 77,
                "velocity": 101,
                "duration": 0.1977273,
                "tempo": 120.0
            },
            {
                "start_time": 53.7159091,
                "end_time": 54.7181818,
                "pitch": 74,
                "velocity": 101,
                "duration": 1.0022727,
                "tempo": 120.0
            },
            {
                "start_time": 56.325,
                "end_time": 56.5227273,
                "pitch": 72,
                "velocity": 101,
                "duration": 0.1977273,
                "tempo": 120.0
            },
            {
                "start_time": 56.525,
                "end_time": 56.7227273,
                "pitch": 74,
                "velocity": 101,
                "duration": 0.1977273,
                "tempo": 120.0
            },
            {
                "start_time": 56.725,
                "end_time": 56.9227273,
                "pitch": 76,
                "velocity": 101,
                "duration": 0.1977273,
                "tempo": 120.0
            },
            {
                "start_time": 56.925,
                "end_time": 57.9363636,
                "pitch": 72,
                "velocity": 101,
                "duration": 1.0113636,
                "tempo": 120.0
            },
            {
                "start_time": 115.9272727,
                "end_time": 116.1272727,
                "pitch": 74,
                "velocity": 101,
                "duration": 0.2,
                "tempo": 120.0
            },
            {
                "start_time": 116.1295455,
                "end_time": 116.3295455,
                "pitch": 76,
                "velocity": 101,
                "duration": 0.2,
                "tempo": 120.0
            },
            {
                "start_time": 116.3295455,
                "end_time": 116.5295455,
                "pitch": 77,
                "velocity": 101,
                "duration": 0.2,
                "tempo": 120.0
            },
            {
                "start_time": 116.5318182,
                "end_time": 117.5340909,
                "pitch": 74,
                "velocity": 101,
                "duration": 1.0022727,
                "tempo": 120.0
            },
            {
                "start_time": 119.1454545,
                "end_time": 119.3431818,
                "pitch": 72,
                "velocity": 101,
                "duration": 0.1977273,
                "tempo": 120.0
            },
            {
                "start_time": 119.3454545,
                "end_time": 119.5454545,
                "pitch": 74,
                "velocity": 101,
                "duration": 0.2,
                "tempo": 120.0
            },
            {
                "start_time": 119.5454545,
                "end_time": 119.7454545,
                "pitch": 76,
                "velocity": 101,
                "duration": 0.2,
                "tempo": 120.0
            },
            {
                "start_time": 119.7477273,
                "end_time": 120.7522727,
                "pitch": 72,
                "velocity": 101,
                "duration": 1.0045455,
                "tempo": 120.0
            },
            {
                "start_time": 141.7022727,
                "end_time": 141.9022727,
                "pitch": 74,
                "velocity": 101,
                "duration": 0.2,
                "tempo": 120.0
            },
            {
                "start_time": 141.9022727,
                "end_time": 142.1022727,
                "pitch": 76,
                "velocity": 101,
                "duration": 0.2,
                "tempo": 120.0
            },
            {
                "start_time": 142.1045455,
                "end_time": 142.3045455,
                "pitch": 77,
                "velocity": 101,
                "duration": 0.2,
                "tempo": 120.0
            },
            {
                "start_time": 142.3045455,
                "end_time": 143.3113636,
                "pitch": 74,
                "velocity": 101,
                "duration": 1.0068182,
                "tempo": 120.0
            },
            {
                "start_time": 144.925,
                "end_time": 145.1227273,
                "pitch": 72,
                "velocity": 101,
                "duration": 0.1977273,
                "tempo": 120.0
            },
            {
                "start_time": 145.125,
                "end_time": 145.3227273,
                "pitch": 74,
                "velocity": 101,
                "duration": 0.1977273,
                "tempo": 120.0
            },
            {
                "start_time": 145.325,
                "end_time": 145.5295455,
                "pitch": 76,
                "velocity": 101,
                "duration": 0.2045455,
                "tempo": 120.0
            },
            {
                "start_time": 145.5295455,
                "end_time": 146.5386364,
                "pitch": 72,
                "velocity": 101,
                "duration": 1.0090909,
                "tempo": 120.0
            }
        ],
        "Acoustic Guitar (nylon)": [
            {
                "start_time": 64.7568182,
                "end_time": 65.3590909,
                "pitch": 60,
                "velocity": 101,
                "duration": 0.6022727,
                "tempo": 120.0
            },
            {
                "start_time": 65.3590909,
                "end_time": 65.5590909,
                "pitch": 53,
                "velocity": 101,
                "duration": 0.2,
                "tempo": 120.0
            },
            {
                "start_time": 65.5613636,
                "end_time": 65.7659091,
                "pitch": 57,
                "velocity": 101,
                "duration": 0.2045455,
                "tempo": 120.0
            },
            {
                "start_time": 65.7659091,
                "end_time": 65.9704545,
                "pitch": 60,
                "velocity": 101,
                "duration": 0.2045455,
                "tempo": 120.0
            },
            {
                "start_time": 65.9727273,
                "end_time": 66.1727273,
                "pitch": 62,
                "velocity": 101,
                "duration": 0.2,
                "tempo": 120.0
            },
            {
                "start_time": 66.1727273,
                "end_time": 66.3727273,
                "pitch": 55,
                "velocity": 101,
                "duration": 0.2,
                "tempo": 120.0
            },
            {
                "start_time": 66.375,
                "end_time": 66.575,
                "pitch": 59,
                "velocity": 101,
                "duration": 0.2,
                "tempo": 120.0
            },
            {
                "start_time": 66.5772727,
                "end_time": 66.7772727,
                "pitch": 62,
                "velocity": 101,
                "duration": 0.2,
                "tempo": 120.0
            },
            {
                "start_time": 66.7772727,
                "end_time": 67.0954545,
                "pitch": 67,
                "velocity": 101,
                "duration": 0.3181818,
                "tempo": 120.0
            },
            {
                "start_time": 67.0954545,
                "end_time": 67.1113636,
                "pitch": 67,
                "velocity": 101,
                "duration": 0.0159091,
                "tempo": 120.0
            },
            {
                "start_time": 67.1113636,
                "end_time": 67.1772727,
                "pitch": 67,
                "velocity": 101,
                "duration": 0.0659091,
                "tempo": 120.0
            },
            {
                "start_time": 67.1795455,
                "end_time": 67.5818182,
                "pitch": 65,
                "velocity": 101,
                "duration": 0.4022727,
                "tempo": 120.0
            },
            {
                "start_time": 67.5818182,
                "end_time": 68.1818182,
                "pitch": 64,
                "velocity": 101,
                "duration": 0.6,
                "tempo": 120.0
            },
            {
                "start_time": 68.1840909,
                "end_time": 69.1886364,
                "pitch": 62,
                "velocity": 101,
                "duration": 1.0045455,
                "tempo": 120.0
            },
            {
                "start_time": 69.1909091,
                "end_time": 69.7909091,
                "pitch": 60,
                "velocity": 101,
                "duration": 0.6,
                "tempo": 120.0
            },
            {
                "start_time": 69.7931818,
                "end_time": 70.8,
                "pitch": 59,
                "velocity": 101,
                "duration": 1.0068182,
                "tempo": 120.0
            },
            {
                "start_time": 70.8,
                "end_time": 72.2045455,
                "pitch": 57,
                "velocity": 101,
                "duration": 1.4045455,
                "tempo": 120.0
            },
            {
                "start_time": 72.2068182,
                "end_time": 74.0136364,
                "pitch": 59,
                "velocity": 101,
                "duration": 1.8068182,
                "tempo": 120.0
            },
            {
                "start_time": 74.0159091,
                "end_time": 75.4295455,
                "pitch": 60,
                "velocity": 101,
                "duration": 1.4136364,
                "tempo": 120.0
            },
            {
                "start_time": 75.4318182,
                "end_time": 76.2340909,
                "pitch": 60,
                "velocity": 101,
                "duration": 0.8022727,
                "tempo": 120.0
            },
            {
                "start_time": 76.2363636,
                "end_time": 77.2386364,
                "pitch": 62,
                "velocity": 101,
                "duration": 1.0022727,
                "tempo": 120.0
            },
            {
                "start_time": 77.6431818,
                "end_time": 78.2454545,
                "pitch": 60,
                "velocity": 101,
                "duration": 0.6022727,
                "tempo": 120.0
            },
            {
                "start_time": 78.2454545,
                "end_time": 78.4454545,
                "pitch": 53,
                "velocity": 101,
                "duration": 0.2,
                "tempo": 120.0
            },
            {
                "start_time": 78.4477273,
                "end_time": 78.6477273,
                "pitch": 57,
                "velocity": 101,
                "duration": 0.2,
                "tempo": 120.0
            },
            {
                "start_time": 78.6477273,
                "end_time": 78.8477273,
                "pitch": 60,
                "velocity": 101,
                "duration": 0.2,
                "tempo": 120.0
            },
            {
                "start_time": 78.8477273,
                "end_time": 79.0477273,
                "pitch": 62,
                "velocity": 101,
                "duration": 0.2,
                "tempo": 120.0
            },
            {
                "start_time": 67.1113636,
                "end_time": 79.25,
                "pitch": 55,
                "velocity": 101,
                "duration": 12.1386364,
                "tempo": 120.0
            },
            {
                "start_time": 79.05,
                "end_time": 79.25,
                "pitch": 55,
                "velocity": 101,
                "duration": 0.2,
                "tempo": 120.0
            },
            {
                "start_time": 79.2522727,
                "end_time": 79.4522727,
                "pitch": 59,
                "velocity": 101,
                "duration": 0.2,
                "tempo": 120.0
            },
            {
                "start_time": 79.4522727,
                "end_time": 79.6545455,
                "pitch": 62,
                "velocity": 101,
                "duration": 0.2022727,
                "tempo": 120.0
            },
            {
                "start_time": 79.6545455,
                "end_time": 79.9795455,
                "pitch": 67,
                "velocity": 101,
                "duration": 0.325,
                "tempo": 120.0
            },
            {
                "start_time": 67.0954545,
                "end_time": 79.9795455,
                "pitch": 79,
                "velocity": 101,
                "duration": 12.8840909,
                "tempo": 120.0
            },
            {
                "start_time": 79.9795455,
                "end_time": 79.9977273,
                "pitch": 67,
                "velocity": 101,
                "duration": 0.0181818,
                "tempo": 120.0
            },
            {
                "start_time": 79.9977273,
                "end_time": 80.0636364,
                "pitch": 67,
                "velocity": 101,
                "duration": 0.0659091,
                "tempo": 120.0
            },
            {
                "start_time": 80.0659091,
                "end_time": 80.4659091,
                "pitch": 65,
                "velocity": 101,
                "duration": 0.4,
                "tempo": 120.0
            },
            {
                "start_time": 80.4659091,
                "end_time": 81.0636364,
                "pitch": 64,
                "velocity": 101,
                "duration": 0.5977273,
                "tempo": 120.0
            },
            {
                "start_time": 81.0636364,
                "end_time": 82.0727273,
                "pitch": 62,
                "velocity": 101,
                "duration": 1.0090909,
                "tempo": 120.0
            },
            {
                "start_time": 82.075,
                "end_time": 82.675,
                "pitch": 60,
                "velocity": 101,
                "duration": 0.6,
                "tempo": 120.0
            },
            {
                "start_time": 82.6772727,
                "end_time": 83.6818182,
                "pitch": 59,
                "velocity": 101,
                "duration": 1.0045455,
                "tempo": 120.0
            },
            {
                "start_time": 83.6818182,
                "end_time": 85.0886364,
                "pitch": 57,
                "velocity": 101,
                "duration": 1.4068182,
                "tempo": 120.0
            },
            {
                "start_time": 85.0909091,
                "end_time": 86.8977273,
                "pitch": 59,
                "velocity": 101,
                "duration": 1.8068182,
                "tempo": 120.0
            },
            {
                "start_time": 88.1068182,
                "end_time": 88.3045455,
                "pitch": 64,
                "velocity": 101,
                "duration": 0.1977273,
                "tempo": 120.0
            },
            {
                "start_time": 153.3795455,
                "end_time": 153.9818182,
                "pitch": 60,
                "velocity": 101,
                "duration": 0.6022727,
                "tempo": 120.0
            },
            {
                "start_time": 153.9818182,
                "end_time": 154.1840909,
                "pitch": 53,
                "velocity": 101,
                "duration": 0.2022727,
                "tempo": 120.0
            },
            {
                "start_time": 154.1840909,
                "end_time": 154.3886364,
                "pitch": 57,
                "velocity": 101,
                "duration": 0.2045455,
                "tempo": 120.0
            },
            {
                "start_time": 154.3909091,
                "end_time": 154.5954545,
                "pitch": 60,
                "velocity": 101,
                "duration": 0.2045455,
                "tempo": 120.0
            },
            {
                "start_time": 154.5954545,
                "end_time": 154.7954545,
                "pitch": 62,
                "velocity": 101,
                "duration": 0.2,
                "tempo": 120.0
            },
            {
                "start_time": 79.9977273,
                "end_time": 154.9977273,
                "pitch": 55,
                "velocity": 101,
                "duration": 75.0,
                "tempo": 120.0
            },
            {
                "start_time": 154.7977273,
                "end_time": 154.9977273,
                "pitch": 55,
                "velocity": 101,
                "duration": 0.2,
                "tempo": 120.0
            },
            {
                "start_time": 155.0,
                "end_time": 155.2,
                "pitch": 59,
                "velocity": 101,
                "duration": 0.2,
                "tempo": 120.0
            },
            {
                "start_time": 155.2,
                "end_time": 155.4022727,
                "pitch": 62,
                "velocity": 101,
                "duration": 0.2022727,
                "tempo": 120.0
            },
            {
                "start_time": 155.4022727,
                "end_time": 155.8045455,
                "pitch": 67,
                "velocity": 101,
                "duration": 0.4022727,
                "tempo": 120.0
            },
            {
                "start_time": 155.8045455,
                "end_time": 156.2090909,
                "pitch": 65,
                "velocity": 101,
                "duration": 0.4045455,
                "tempo": 120.0
            },
            {
                "start_time": 156.2090909,
                "end_time": 156.8090909,
                "pitch": 64,
                "velocity": 101,
                "duration": 0.6,
                "tempo": 120.0
            },
            {
                "start_time": 156.8113636,
                "end_time": 157.8181818,
                "pitch": 62,
                "velocity": 101,
                "duration": 1.0068182,
                "tempo": 120.0
            },
            {
                "start_time": 157.8181818,
                "end_time": 158.4204545,
                "pitch": 60,
                "velocity": 101,
                "duration": 0.6022727,
                "tempo": 120.0
            },
            {
                "start_time": 158.4227273,
                "end_time": 159.4295455,
                "pitch": 59,
                "velocity": 101,
                "duration": 1.0068182,
                "tempo": 120.0
            },
            {
                "start_time": 159.4295455,
                "end_time": 160.8340909,
                "pitch": 57,
                "velocity": 101,
                "duration": 1.4045455,
                "tempo": 120.0
            },
            {
                "start_time": 160.8340909,
                "end_time": 162.6545455,
                "pitch": 59,
                "velocity": 101,
                "duration": 1.8204545,
                "tempo": 120.0
            },
            {
                "start_time": 162.6545455,
                "end_time": 164.0613636,
                "pitch": 60,
                "velocity": 101,
                "duration": 1.4068182,
                "tempo": 120.0
            },
            {
                "start_time": 164.0636364,
                "end_time": 164.8681818,
                "pitch": 60,
                "velocity": 101,
                "duration": 0.8045455,
                "tempo": 120.0
            },
            {
                "start_time": 164.8704545,
                "end_time": 165.8727273,
                "pitch": 62,
                "velocity": 101,
                "duration": 1.0022727,
                "tempo": 120.0
            },
            {
                "start_time": 166.2772727,
                "end_time": 166.8818182,
                "pitch": 60,
                "velocity": 101,
                "duration": 0.6045455,
                "tempo": 120.0
            },
            {
                "start_time": 166.8840909,
                "end_time": 167.0840909,
                "pitch": 53,
                "velocity": 101,
                "duration": 0.2,
                "tempo": 120.0
            },
            {
                "start_time": 167.0840909,
                "end_time": 167.2840909,
                "pitch": 57,
                "velocity": 101,
                "duration": 0.2,
                "tempo": 120.0
            },
            {
                "start_time": 167.2840909,
                "end_time": 167.4840909,
                "pitch": 60,
                "velocity": 101,
                "duration": 0.2,
                "tempo": 120.0
            },
            {
                "start_time": 167.4863636,
                "end_time": 167.6909091,
                "pitch": 62,
                "velocity": 101,
                "duration": 0.2045455,
                "tempo": 120.0
            },
            {
                "start_time": 167.6909091,
                "end_time": 167.8954545,
                "pitch": 55,
                "velocity": 101,
                "duration": 0.2045455,
                "tempo": 120.0
            },
            {
                "start_time": 167.8954545,
                "end_time": 168.0909091,
                "pitch": 59,
                "velocity": 101,
                "duration": 0.1954545,
                "tempo": 120.0
            },
            {
                "start_time": 168.0931818,
                "end_time": 168.2886364,
                "pitch": 62,
                "velocity": 101,
                "duration": 0.1954545,
                "tempo": 120.0
            },
            {
                "start_time": 168.2886364,
                "end_time": 168.7,
                "pitch": 67,
                "velocity": 101,
                "duration": 0.4113636,
                "tempo": 120.0
            },
            {
                "start_time": 168.7,
                "end_time": 169.1022727,
                "pitch": 65,
                "velocity": 101,
                "duration": 0.4022727,
                "tempo": 120.0
            },
            {
                "start_time": 169.1045455,
                "end_time": 169.7,
                "pitch": 64,
                "velocity": 101,
                "duration": 0.5954545,
                "tempo": 120.0
            },
            {
                "start_time": 169.7022727,
                "end_time": 170.7113636,
                "pitch": 62,
                "velocity": 101,
                "duration": 1.0090909,
                "tempo": 120.0
            },
            {
                "start_time": 170.7113636,
                "end_time": 171.3159091,
                "pitch": 60,
                "velocity": 101,
                "duration": 0.6045455,
                "tempo": 120.0
            },
            {
                "start_time": 171.3159091,
                "end_time": 172.3204545,
                "pitch": 59,
                "velocity": 101,
                "duration": 1.0045455,
                "tempo": 120.0
            },
            {
                "start_time": 172.3227273,
                "end_time": 173.7295455,
                "pitch": 57,
                "velocity": 101,
                "duration": 1.4068182,
                "tempo": 120.0
            },
            {
                "start_time": 173.7318182,
                "end_time": 175.5431818,
                "pitch": 59,
                "velocity": 101,
                "duration": 1.8113636,
                "tempo": 120.0
            },
            {
                "start_time": 176.7522727,
                "end_time": 176.9522727,
                "pitch": 64,
                "velocity": 101,
                "duration": 0.2,
                "tempo": 120.0
            }
        ],
        "Harpsichord": [
            {
                "start_time": 0.0340909,
                "end_time": 0.1318182,
                "pitch": 81,
                "velocity": 40,
                "duration": 0.0977273,
                "tempo": 120.0
            },
            {
                "start_time": 0.1340909,
                "end_time": 0.2340909,
                "pitch": 84,
                "velocity": 40,
                "duration": 0.1,
                "tempo": 120.0
            },
            {
                "start_time": 0.2340909,
                "end_time": 0.3340909,
                "pitch": 83,
                "velocity": 40,
                "duration": 0.1,
                "tempo": 120.0
            },
            {
                "start_time": 0.3340909,
                "end_time": 0.4340909,
                "pitch": 84,
                "velocity": 40,
                "duration": 0.1,
                "tempo": 120.0
            },
            {
                "start_time": 0.4363636,
                "end_time": 0.5340909,
                "pitch": 81,
                "velocity": 40,
                "duration": 0.0977273,
                "tempo": 120.0
            },
            {
                "start_time": 0.5363636,
                "end_time": 0.6340909,
                "pitch": 84,
                "velocity": 40,
                "duration": 0.0977273,
                "tempo": 120.0
            },
            {
                "start_time": 0.6363636,
                "end_time": 0.7340909,
                "pitch": 83,
                "velocity": 40,
                "duration": 0.0977273,
                "tempo": 120.0
            },
            {
                "start_time": 0.7363636,
                "end_time": 0.8340909,
                "pitch": 84,
                "velocity": 40,
                "duration": 0.0977273,
                "tempo": 120.0
            },
            {
                "start_time": 0.8363636,
                "end_time": 0.9363636,
                "pitch": 81,
                "velocity": 40,
                "duration": 0.1,
                "tempo": 120.0
            },
            {
                "start_time": 0.9363636,
                "end_time": 1.0363636,
                "pitch": 84,
                "velocity": 40,
                "duration": 0.1,
                "tempo": 120.0
            },
            {
                "start_time": 1.0363636,
                "end_time": 1.1363636,
                "pitch": 83,
                "velocity": 40,
                "duration": 0.1,
                "tempo": 120.0
            },
            {
                "start_time": 1.1363636,
                "end_time": 1.2363636,
                "pitch": 84,
                "velocity": 40,
                "duration": 0.1,
                "tempo": 120.0
            },
            {
                "start_time": 1.2363636,
                "end_time": 1.3363636,
                "pitch": 81,
                "velocity": 40,
                "duration": 0.1,
                "tempo": 120.0
            },
            {
                "start_time": 1.3363636,
                "end_time": 1.4363636,
                "pitch": 84,
                "velocity": 40,
                "duration": 0.1,
                "tempo": 120.0
            },
            {
                "start_time": 1.4363636,
                "end_time": 1.5363636,
                "pitch": 83,
                "velocity": 40,
                "duration": 0.1,
                "tempo": 120.0
            },
            {
                "start_time": 1.5363636,
                "end_time": 1.6363636,
                "pitch": 84,
                "velocity": 40,
                "duration": 0.1,
                "tempo": 120.0
            },
            {
                "start_time": 1.6386364,
                "end_time": 1.7363636,
                "pitch": 81,
                "velocity": 40,
                "duration": 0.0977273,
                "tempo": 120.0
            },
            {
                "start_time": 1.7363636,
                "end_time": 1.8363636,
                "pitch": 84,
                "velocity": 40,
                "duration": 0.1,
                "tempo": 120.0
            },
            {
                "start_time": 1.8363636,
                "end_time": 1.9363636,
                "pitch": 83,
                "velocity": 40,
                "duration": 0.1,
                "tempo": 120.0
            },
            {
                "start_time": 1.9386364,
                "end_time": 2.0363636,
                "pitch": 84,
                "velocity": 40,
                "duration": 0.0977273,
                "tempo": 120.0
            },
            {
                "start_time": 2.0386364,
                "end_time": 2.1386364,
                "pitch": 81,
                "velocity": 40,
                "duration": 0.1,
                "tempo": 120.0
            },
            {
                "start_time": 2.1409091,
                "end_time": 2.2431818,
                "pitch": 84,
                "velocity": 40,
                "duration": 0.1022727,
                "tempo": 120.0
            },
            {
                "start_time": 2.2431818,
                "end_time": 2.3454545,
                "pitch": 83,
                "velocity": 40,
                "duration": 0.1022727,
                "tempo": 120.0
            },
            {
                "start_time": 2.3454545,
                "end_time": 2.4477273,
                "pitch": 84,
                "velocity": 40,
                "duration": 0.1022727,
                "tempo": 120.0
            },
            {
                "start_time": 2.4477273,
                "end_time": 2.5454545,
                "pitch": 81,
                "velocity": 40,
                "duration": 0.0977273,
                "tempo": 120.0
            },
            {
                "start_time": 2.5477273,
                "end_time": 2.6431818,
                "pitch": 84,
                "velocity": 40,
                "duration": 0.0954545,
                "tempo": 120.0
            },
            {
                "start_time": 2.6454545,
                "end_time": 2.7431818,
                "pitch": 83,
                "velocity": 40,
                "duration": 0.0977273,
                "tempo": 120.0
            },
            {
                "start_time": 2.7431818,
                "end_time": 2.8409091,
                "pitch": 84,
                "velocity": 40,
                "duration": 0.0977273,
                "tempo": 120.0
            },
            {
                "start_time": 2.8409091,
                "end_time": 2.9431818,
                "pitch": 81,
                "velocity": 40,
                "duration": 0.1022727,
                "tempo": 120.0
            },
            {
                "start_time": 2.9431818,
                "end_time": 3.0454545,
                "pitch": 84,
                "velocity": 40,
                "duration": 0.1022727,
                "tempo": 120.0
            },
            {
                "start_time": 3.0477273,
                "end_time": 3.15,
                "pitch": 83,
                "velocity": 40,
                "duration": 0.1022727,
                "tempo": 120.0
            },
            {
                "start_time": 3.15,
                "end_time": 3.2522727,
                "pitch": 84,
                "velocity": 40,
                "duration": 0.1022727,
                "tempo": 120.0
            },
            {
                "start_time": 3.2522727,
                "end_time": 3.3522727,
                "pitch": 81,
                "velocity": 40,
                "duration": 0.1,
                "tempo": 120.0
            },
            {
                "start_time": 3.3545455,
                "end_time": 3.4545455,
                "pitch": 84,
                "velocity": 40,
                "duration": 0.1,
                "tempo": 120.0
            },
            {
                "start_time": 3.4545455,
                "end_time": 3.5545455,
                "pitch": 83,
                "velocity": 40,
                "duration": 0.1,
                "tempo": 120.0
            },
            {
                "start_time": 3.5545455,
                "end_time": 3.6545455,
                "pitch": 84,
                "velocity": 40,
                "duration": 0.1,
                "tempo": 120.0
            },
            {
                "start_time": 3.6568182,
                "end_time": 3.7545455,
                "pitch": 81,
                "velocity": 40,
                "duration": 0.0977273,
                "tempo": 120.0
            },
            {
                "start_time": 3.7568182,
                "end_time": 3.8545455,
                "pitch": 84,
                "velocity": 40,
                "duration": 0.0977273,
                "tempo": 120.0
            },
            {
                "start_time": 3.8568182,
                "end_time": 3.9545455,
                "pitch": 83,
                "velocity": 40,
                "duration": 0.0977273,
                "tempo": 120.0
            },
            {
                "start_time": 3.9568182,
                "end_time": 4.0545455,
                "pitch": 84,
                "velocity": 40,
                "duration": 0.0977273,
                "tempo": 120.0
            },
            {
                "start_time": 4.0568182,
                "end_time": 4.1568182,
                "pitch": 81,
                "velocity": 40,
                "duration": 0.1,
                "tempo": 120.0
            },
            {
                "start_time": 4.1568182,
                "end_time": 4.2568182,
                "pitch": 84,
                "velocity": 40,
                "duration": 0.1,
                "tempo": 120.0
            },
            {
                "start_time": 4.2568182,
                "end_time": 4.3568182,
                "pitch": 83,
                "velocity": 40,
                "duration": 0.1,
                "tempo": 120.0
            },
            {
                "start_time": 4.3568182,
                "end_time": 4.4568182,
                "pitch": 84,
                "velocity": 40,
                "duration": 0.1,
                "tempo": 120.0
            },
            {
                "start_time": 4.4568182,
                "end_time": 4.5568182,
                "pitch": 81,
                "velocity": 40,
                "duration": 0.1,
                "tempo": 120.0
            },
            {
                "start_time": 4.5568182,
                "end_time": 4.6568182,
                "pitch": 84,
                "velocity": 40,
                "duration": 0.1,
                "tempo": 120.0
            },
            {
                "start_time": 4.6590909,
                "end_time": 4.7590909,
                "pitch": 83,
                "velocity": 40,
                "duration": 0.1,
                "tempo": 120.0
            },
            {
                "start_time": 4.7590909,
                "end_time": 4.8590909,
                "pitch": 84,
                "velocity": 40,
                "duration": 0.1,
                "tempo": 120.0
            },
            {
                "start_time": 4.8613636,
                "end_time": 4.9590909,
                "pitch": 81,
                "velocity": 40,
                "duration": 0.0977273,
                "tempo": 120.0
            },
            {
                "start_time": 4.9613636,
                "end_time": 5.0590909,
                "pitch": 84,
                "velocity": 40,
                "duration": 0.0977273,
                "tempo": 120.0
            },
            {
                "start_time": 5.0613636,
                "end_time": 5.1590909,
                "pitch": 83,
                "velocity": 40,
                "duration": 0.0977273,
                "tempo": 120.0
            },
            {
                "start_time": 5.1613636,
                "end_time": 5.2590909,
                "pitch": 84,
                "velocity": 40,
                "duration": 0.0977273,
                "tempo": 120.0
            },
            {
                "start_time": 5.2613636,
                "end_time": 5.3613636,
                "pitch": 81,
                "velocity": 40,
                "duration": 0.1,
                "tempo": 120.0
            },
            {
                "start_time": 5.3613636,
                "end_time": 5.4613636,
                "pitch": 84,
                "velocity": 40,
                "duration": 0.1,
                "tempo": 120.0
            },
            {
                "start_time": 5.4613636,
                "end_time": 5.5613636,
                "pitch": 83,
                "velocity": 40,
                "duration": 0.1,
                "tempo": 120.0
            },
            {
                "start_time": 5.5636364,
                "end_time": 5.6636364,
                "pitch": 84,
                "velocity": 40,
                "duration": 0.1,
                "tempo": 120.0
            },
            {
                "start_time": 5.6636364,
                "end_time": 5.7636364,
                "pitch": 81,
                "velocity": 40,
                "duration": 0.1,
                "tempo": 120.0
            },
            {
                "start_time": 5.7636364,
                "end_time": 5.8636364,
                "pitch": 84,
                "velocity": 40,
                "duration": 0.1,
                "tempo": 120.0
            },
            {
                "start_time": 5.8636364,
                "end_time": 5.9636364,
                "pitch": 83,
                "velocity": 40,
                "duration": 0.1,
                "tempo": 120.0
            },
            {
                "start_time": 5.9636364,
                "end_time": 6.0636364,
                "pitch": 84,
                "velocity": 40,
                "duration": 0.1,
                "tempo": 120.0
            },
            {
                "start_time": 6.0636364,
                "end_time": 6.1636364,
                "pitch": 81,
                "velocity": 40,
                "duration": 0.1,
                "tempo": 120.0
            },
            {
                "start_time": 6.1659091,
                "end_time": 6.2659091,
                "pitch": 84,
                "velocity": 40,
                "duration": 0.1,
                "tempo": 120.0
            },
            {
                "start_time": 6.2659091,
                "end_time": 6.3659091,
                "pitch": 83,
                "velocity": 40,
                "duration": 0.1,
                "tempo": 120.0
            },
            {
                "start_time": 6.3659091,
                "end_time": 6.4681818,
                "pitch": 84,
                "velocity": 40,
                "duration": 0.1022727,
                "tempo": 120.0
            },
            {
                "start_time": 6.4681818,
                "end_time": 6.5681818,
                "pitch": 81,
                "velocity": 40,
                "duration": 0.1,
                "tempo": 120.0
            },
            {
                "start_time": 6.5681818,
                "end_time": 6.6681818,
                "pitch": 84,
                "velocity": 40,
                "duration": 0.1,
                "tempo": 120.0
            },
            {
                "start_time": 6.6681818,
                "end_time": 6.7681818,
                "pitch": 83,
                "velocity": 40,
                "duration": 0.1,
                "tempo": 120.0
            },
            {
                "start_time": 6.7704545,
                "end_time": 6.8704545,
                "pitch": 84,
                "velocity": 40,
                "duration": 0.1,
                "tempo": 120.0
            },
            {
                "start_time": 6.8704545,
                "end_time": 6.9704545,
                "pitch": 81,
                "velocity": 40,
                "duration": 0.1,
                "tempo": 120.0
            },
            {
                "start_time": 6.9704545,
                "end_time": 7.0704545,
                "pitch": 84,
                "velocity": 40,
                "duration": 0.1,
                "tempo": 120.0
            },
            {
                "start_time": 7.0704545,
                "end_time": 7.1704545,
                "pitch": 83,
                "velocity": 40,
                "duration": 0.1,
                "tempo": 120.0
            },
            {
                "start_time": 7.1704545,
                "end_time": 7.2704545,
                "pitch": 84,
                "velocity": 40,
                "duration": 0.1,
                "tempo": 120.0
            },
            {
                "start_time": 7.2704545,
                "end_time": 7.3704545,
                "pitch": 81,
                "velocity": 40,
                "duration": 0.1,
                "tempo": 120.0
            },
            {
                "start_time": 7.3727273,
                "end_time": 7.4727273,
                "pitch": 84,
                "velocity": 40,
                "duration": 0.1,
                "tempo": 120.0
            },
            {
                "start_time": 7.4727273,
                "end_time": 7.5727273,
                "pitch": 83,
                "velocity": 40,
                "duration": 0.1,
                "tempo": 120.0
            },
            {
                "start_time": 7.5727273,
                "end_time": 7.6727273,
                "pitch": 84,
                "velocity": 40,
                "duration": 0.1,
                "tempo": 120.0
            },
            {
                "start_time": 7.675,
                "end_time": 7.7727273,
                "pitch": 81,
                "velocity": 40,
                "duration": 0.0977273,
                "tempo": 120.0
            },
            {
                "start_time": 7.775,
                "end_time": 7.875,
                "pitch": 84,
                "velocity": 40,
                "duration": 0.1,
                "tempo": 120.0
            },
            {
                "start_time": 7.875,
                "end_time": 7.975,
                "pitch": 83,
                "velocity": 40,
                "duration": 0.1,
                "tempo": 120.0
            },
            {
                "start_time": 7.975,
                "end_time": 8.075,
                "pitch": 84,
                "velocity": 40,
                "duration": 0.1,
                "tempo": 120.0
            },
            {
                "start_time": 8.075,
                "end_time": 8.175,
                "pitch": 79,
                "velocity": 40,
                "duration": 0.1,
                "tempo": 120.0
            },
            {
                "start_time": 8.175,
                "end_time": 8.275,
                "pitch": 84,
                "velocity": 40,
                "duration": 0.1,
                "tempo": 120.0
            },
            {
                "start_time": 8.275,
                "end_time": 8.375,
                "pitch": 83,
                "velocity": 40,
                "duration": 0.1,
                "tempo": 120.0
            },
            {
                "start_time": 8.375,
                "end_time": 8.475,
                "pitch": 84,
                "velocity": 40,
                "duration": 0.1,
                "tempo": 120.0
            },
            {
                "start_time": 8.475,
                "end_time": 8.575,
                "pitch": 79,
                "velocity": 40,
                "duration": 0.1,
                "tempo": 120.0
            },
            {
                "start_time": 8.5772727,
                "end_time": 8.6772727,
                "pitch": 84,
                "velocity": 40,
                "duration": 0.1,
                "tempo": 120.0
            },
            {
                "start_time": 8.6772727,
                "end_time": 8.7772727,
                "pitch": 83,
                "velocity": 40,
                "duration": 0.1,
                "tempo": 120.0
            },
            {
                "start_time": 8.7772727,
                "end_time": 8.8772727,
                "pitch": 84,
                "velocity": 40,
                "duration": 0.1,
                "tempo": 120.0
            },
            {
                "start_time": 8.8795455,
                "end_time": 8.9795455,
                "pitch": 79,
                "velocity": 40,
                "duration": 0.1,
                "tempo": 120.0
            },
            {
                "start_time": 8.9795455,
                "end_time": 9.0795455,
                "pitch": 84,
                "velocity": 40,
                "duration": 0.1,
                "tempo": 120.0
            },
            {
                "start_time": 9.0795455,
                "end_time": 9.1795455,
                "pitch": 83,
                "velocity": 40,
                "duration": 0.1,
                "tempo": 120.0
            },
            {
                "start_time": 9.1818182,
                "end_time": 9.2818182,
                "pitch": 84,
                "velocity": 40,
                "duration": 0.1,
                "tempo": 120.0
            },
            {
                "start_time": 9.2818182,
                "end_time": 9.3840909,
                "pitch": 79,
                "velocity": 40,
                "duration": 0.1022727,
                "tempo": 120.0
            },
            {
                "start_time": 9.3840909,
                "end_time": 9.4863636,
                "pitch": 84,
                "velocity": 40,
                "duration": 0.1022727,
                "tempo": 120.0
            },
            {
                "start_time": 9.4886364,
                "end_time": 9.5886364,
                "pitch": 83,
                "velocity": 40,
                "duration": 0.1,
                "tempo": 120.0
            },
            {
                "start_time": 9.5909091,
                "end_time": 9.6931818,
                "pitch": 84,
                "velocity": 40,
                "duration": 0.1022727,
                "tempo": 120.0
            },
            {
                "start_time": 9.6931818,
                "end_time": 9.7931818,
                "pitch": 80,
                "velocity": 40,
                "duration": 0.1,
                "tempo": 120.0
            },
            {
                "start_time": 9.7954545,
                "end_time": 9.8931818,
                "pitch": 86,
                "velocity": 40,
                "duration": 0.0977273,
                "tempo": 120.0
            },
            {
                "start_time": 9.8954545,
                "end_time": 9.9954545,
                "pitch": 83,
                "velocity": 40,
                "duration": 0.1,
                "tempo": 120.0
            },
            {
                "start_time": 9.9954545,
                "end_time": 10.0954545,
                "pitch": 86,
                "velocity": 40,
                "duration": 0.1,
                "tempo": 120.0
            },
            {
                "start_time": 10.0977273,
                "end_time": 10.1977273,
                "pitch": 80,
                "velocity": 40,
                "duration": 0.1,
                "tempo": 120.0
            },
            {
                "start_time": 10.1977273,
                "end_time": 10.2977273,
                "pitch": 86,
                "velocity": 40,
                "duration": 0.1,
                "tempo": 120.0
            },
            {
                "start_time": 10.2977273,
                "end_time": 10.3977273,
                "pitch": 83,
                "velocity": 40,
                "duration": 0.1,
                "tempo": 120.0
            },
            {
                "start_time": 10.4,
                "end_time": 10.5,
                "pitch": 86,
                "velocity": 40,
                "duration": 0.1,
                "tempo": 120.0
            },
            {
                "start_time": 10.5,
                "end_time": 10.5977273,
                "pitch": 80,
                "velocity": 40,
                "duration": 0.0977273,
                "tempo": 120.0
            },
            {
                "start_time": 10.5977273,
                "end_time": 10.6954545,
                "pitch": 86,
                "velocity": 40,
                "duration": 0.0977273,
                "tempo": 120.0
            },
            {
                "start_time": 10.6954545,
                "end_time": 10.7931818,
                "pitch": 83,
                "velocity": 40,
                "duration": 0.0977273,
                "tempo": 120.0
            },
            {
                "start_time": 10.7931818,
                "end_time": 10.8909091,
                "pitch": 86,
                "velocity": 40,
                "duration": 0.0977273,
                "tempo": 120.0
            },
            {
                "start_time": 10.8931818,
                "end_time": 10.9931818,
                "pitch": 80,
                "velocity": 40,
                "duration": 0.1,
                "tempo": 120.0
            },
            {
                "start_time": 10.9954545,
                "end_time": 11.0977273,
                "pitch": 86,
                "velocity": 40,
                "duration": 0.1022727,
                "tempo": 120.0
            },
            {
                "start_time": 11.0977273,
                "end_time": 11.2,
                "pitch": 83,
                "velocity": 40,
                "duration": 0.1022727,
                "tempo": 120.0
            },
            {
                "start_time": 11.2,
                "end_time": 11.3022727,
                "pitch": 86,
                "velocity": 40,
                "duration": 0.1022727,
                "tempo": 120.0
            },
            {
                "start_time": 11.3045455,
                "end_time": 11.4,
                "pitch": 80,
                "velocity": 40,
                "duration": 0.0954545,
                "tempo": 120.0
            },
            {
                "start_time": 11.4022727,
                "end_time": 11.5,
                "pitch": 86,
                "velocity": 40,
                "duration": 0.0977273,
                "tempo": 120.0
            },
            {
                "start_time": 11.5,
                "end_time": 11.5977273,
                "pitch": 83,
                "velocity": 40,
                "duration": 0.0977273,
                "tempo": 120.0
            },
            {
                "start_time": 11.5977273,
                "end_time": 11.6954545,
                "pitch": 86,
                "velocity": 40,
                "duration": 0.0977273,
                "tempo": 120.0
            },
            {
                "start_time": 11.6954545,
                "end_time": 11.7977273,
                "pitch": 80,
                "velocity": 40,
                "duration": 0.1022727,
                "tempo": 120.0
            },
            {
                "start_time": 11.8,
                "end_time": 11.9,
                "pitch": 86,
                "velocity": 40,
                "duration": 0.1,
                "tempo": 120.0
            },
            {
                "start_time": 11.9022727,
                "end_time": 12.0045455,
                "pitch": 83,
                "velocity": 40,
                "duration": 0.1022727,
                "tempo": 120.0
            },
            {
                "start_time": 12.0045455,
                "end_time": 12.1068182,
                "pitch": 86,
                "velocity": 40,
                "duration": 0.1022727,
                "tempo": 120.0
            },
            {
                "start_time": 12.1068182,
                "end_time": 12.2068182,
                "pitch": 80,
                "velocity": 40,
                "duration": 0.1,
                "tempo": 120.0
            },
            {
                "start_time": 12.2090909,
                "end_time": 12.3090909,
                "pitch": 86,
                "velocity": 40,
                "duration": 0.1,
                "tempo": 120.0
            },
            {
                "start_time": 12.3090909,
                "end_time": 12.4090909,
                "pitch": 83,
                "velocity": 40,
                "duration": 0.1,
                "tempo": 120.0
            },
            {
                "start_time": 12.4090909,
                "end_time": 12.5090909,
                "pitch": 86,
                "velocity": 40,
                "duration": 0.1,
                "tempo": 120.0
            },
            {
                "start_time": 12.5113636,
                "end_time": 12.6090909,
                "pitch": 80,
                "velocity": 40,
                "duration": 0.0977273,
                "tempo": 120.0
            },
            {
                "start_time": 12.6113636,
                "end_time": 12.7090909,
                "pitch": 86,
                "velocity": 40,
                "duration": 0.0977273,
                "tempo": 120.0
            },
            {
                "start_time": 12.7113636,
                "end_time": 12.8090909,
                "pitch": 83,
                "velocity": 40,
                "duration": 0.0977273,
                "tempo": 120.0
            },
            {
                "start_time": 12.8113636,
                "end_time": 12.9113636,
                "pitch": 86,
                "velocity": 40,
                "duration": 0.1,
                "tempo": 120.0
            },
            {
                "start_time": 88.4886364,
                "end_time": 88.5886364,
                "pitch": 81,
                "velocity": 40,
                "duration": 0.1,
                "tempo": 120.0
            },
            {
                "start_time": 88.5886364,
                "end_time": 88.6886364,
                "pitch": 84,
                "velocity": 40,
                "duration": 0.1,
                "tempo": 120.0
            },
            {
                "start_time": 88.6909091,
                "end_time": 88.7886364,
                "pitch": 83,
                "velocity": 40,
                "duration": 0.0977273,
                "tempo": 120.0
            },
            {
                "start_time": 88.7909091,
                "end_time": 88.8909091,
                "pitch": 84,
                "velocity": 40,
                "duration": 0.1,
                "tempo": 120.0
            },
            {
                "start_time": 88.8909091,
                "end_time": 88.9931818,
                "pitch": 81,
                "velocity": 40,
                "duration": 0.1022727,
                "tempo": 120.0
            },
            {
                "start_time": 88.9931818,
                "end_time": 89.0954545,
                "pitch": 84,
                "velocity": 40,
                "duration": 0.1022727,
                "tempo": 120.0
            },
            {
                "start_time": 89.0977273,
                "end_time": 89.1977273,
                "pitch": 83,
                "velocity": 40,
                "duration": 0.1,
                "tempo": 120.0
            },
            {
                "start_time": 89.2,
                "end_time": 89.3022727,
                "pitch": 84,
                "velocity": 40,
                "duration": 0.1022727,
                "tempo": 120.0
            },
            {
                "start_time": 89.3022727,
                "end_time": 89.4,
                "pitch": 81,
                "velocity": 40,
                "duration": 0.0977273,
                "tempo": 120.0
            },
            {
                "start_time": 89.4022727,
                "end_time": 89.4977273,
                "pitch": 84,
                "velocity": 40,
                "duration": 0.0954545,
                "tempo": 120.0
            },
            {
                "start_time": 89.5,
                "end_time": 89.5954545,
                "pitch": 83,
                "velocity": 40,
                "duration": 0.0954545,
                "tempo": 120.0
            },
            {
                "start_time": 89.5977273,
                "end_time": 89.6954545,
                "pitch": 84,
                "velocity": 40,
                "duration": 0.0977273,
                "tempo": 120.0
            },
            {
                "start_time": 89.6954545,
                "end_time": 89.7954545,
                "pitch": 81,
                "velocity": 40,
                "duration": 0.1,
                "tempo": 120.0
            },
            {
                "start_time": 89.7977273,
                "end_time": 89.9,
                "pitch": 84,
                "velocity": 40,
                "duration": 0.1022727,
                "tempo": 120.0
            },
            {
                "start_time": 89.9,
                "end_time": 90.0022727,
                "pitch": 83,
                "velocity": 40,
                "duration": 0.1022727,
                "tempo": 120.0
            },
            {
                "start_time": 90.0045455,
                "end_time": 90.1045455,
                "pitch": 84,
                "velocity": 40,
                "duration": 0.1,
                "tempo": 120.0
            },
            {
                "start_time": 90.1068182,
                "end_time": 90.2068182,
                "pitch": 81,
                "velocity": 40,
                "duration": 0.1,
                "tempo": 120.0
            },
            {
                "start_time": 90.2068182,
                "end_time": 90.3068182,
                "pitch": 84,
                "velocity": 40,
                "duration": 0.1,
                "tempo": 120.0
            },
            {
                "start_time": 90.3090909,
                "end_time": 90.4068182,
                "pitch": 83,
                "velocity": 40,
                "duration": 0.0977273,
                "tempo": 120.0
            },
            {
                "start_time": 90.4090909,
                "end_time": 90.5090909,
                "pitch": 84,
                "velocity": 40,
                "duration": 0.1,
                "tempo": 120.0
            },
            {
                "start_time": 90.5090909,
                "end_time": 90.6090909,
                "pitch": 81,
                "velocity": 40,
                "duration": 0.1,
                "tempo": 120.0
            },
            {
                "start_time": 90.6113636,
                "end_time": 90.7090909,
                "pitch": 84,
                "velocity": 40,
                "duration": 0.0977273,
                "tempo": 120.0
            },
            {
                "start_time": 90.7113636,
                "end_time": 90.8113636,
                "pitch": 83,
                "velocity": 40,
                "duration": 0.1,
                "tempo": 120.0
            },
            {
                "start_time": 90.8136364,
                "end_time": 90.9113636,
                "pitch": 84,
                "velocity": 40,
                "duration": 0.0977273,
                "tempo": 120.0
            },
            {
                "start_time": 90.9136364,
                "end_time": 91.0113636,
                "pitch": 81,
                "velocity": 40,
                "duration": 0.0977273,
                "tempo": 120.0
            },
            {
                "start_time": 91.0136364,
                "end_time": 91.1113636,
                "pitch": 84,
                "velocity": 40,
                "duration": 0.0977273,
                "tempo": 120.0
            },
            {
                "start_time": 91.1136364,
                "end_time": 91.2113636,
                "pitch": 83,
                "velocity": 40,
                "duration": 0.0977273,
                "tempo": 120.0
            },
            {
                "start_time": 91.2136364,
                "end_time": 91.3113636,
                "pitch": 84,
                "velocity": 40,
                "duration": 0.0977273,
                "tempo": 120.0
            },
            {
                "start_time": 91.3136364,
                "end_time": 91.4136364,
                "pitch": 81,
                "velocity": 40,
                "duration": 0.1,
                "tempo": 120.0
            },
            {
                "start_time": 91.4136364,
                "end_time": 91.5136364,
                "pitch": 84,
                "velocity": 40,
                "duration": 0.1,
                "tempo": 120.0
            },
            {
                "start_time": 91.5159091,
                "end_time": 91.6136364,
                "pitch": 83,
                "velocity": 40,
                "duration": 0.0977273,
                "tempo": 120.0
            },
            {
                "start_time": 91.6159091,
                "end_time": 91.7159091,
                "pitch": 84,
                "velocity": 40,
                "duration": 0.1,
                "tempo": 120.0
            },
            {
                "start_time": 91.7159091,
                "end_time": 91.8159091,
                "pitch": 81,
                "velocity": 40,
                "duration": 0.1,
                "tempo": 120.0
            },
            {
                "start_time": 91.8181818,
                "end_time": 91.9159091,
                "pitch": 84,
                "velocity": 40,
                "duration": 0.0977273,
                "tempo": 120.0
            },
            {
                "start_time": 91.9181818,
                "end_time": 92.0159091,
                "pitch": 83,
                "velocity": 40,
                "duration": 0.0977273,
                "tempo": 120.0
            },
            {
                "start_time": 92.0181818,
                "end_time": 92.1159091,
                "pitch": 84,
                "velocity": 40,
                "duration": 0.0977273,
                "tempo": 120.0
            },
            {
                "start_time": 92.1181818,
                "end_time": 92.2159091,
                "pitch": 81,
                "velocity": 40,
                "duration": 0.0977273,
                "tempo": 120.0
            },
            {
                "start_time": 92.2181818,
                "end_time": 92.3181818,
                "pitch": 84,
                "velocity": 40,
                "duration": 0.1,
                "tempo": 120.0
            },
            {
                "start_time": 92.3181818,
                "end_time": 92.4181818,
                "pitch": 83,
                "velocity": 40,
                "duration": 0.1,
                "tempo": 120.0
            },
            {
                "start_time": 92.4204545,
                "end_time": 92.5181818,
                "pitch": 84,
                "velocity": 40,
                "duration": 0.0977273,
                "tempo": 120.0
            },
            {
                "start_time": 92.5204545,
                "end_time": 92.6204545,
                "pitch": 81,
                "velocity": 40,
                "duration": 0.1,
                "tempo": 120.0
            },
            {
                "start_time": 92.6227273,
                "end_time": 92.7204545,
                "pitch": 84,
                "velocity": 40,
                "duration": 0.0977273,
                "tempo": 120.0
            },
            {
                "start_time": 92.7227273,
                "end_time": 92.8227273,
                "pitch": 83,
                "velocity": 40,
                "duration": 0.1,
                "tempo": 120.0
            },
            {
                "start_time": 92.8227273,
                "end_time": 92.9227273,
                "pitch": 84,
                "velocity": 40,
                "duration": 0.1,
                "tempo": 120.0
            },
            {
                "start_time": 92.925,
                "end_time": 93.0227273,
                "pitch": 81,
                "velocity": 40,
                "duration": 0.0977273,
                "tempo": 120.0
            },
            {
                "start_time": 93.025,
                "end_time": 93.1227273,
                "pitch": 84,
                "velocity": 40,
                "duration": 0.0977273,
                "tempo": 120.0
            },
            {
                "start_time": 93.125,
                "end_time": 93.2227273,
                "pitch": 83,
                "velocity": 40,
                "duration": 0.0977273,
                "tempo": 120.0
            },
            {
                "start_time": 93.225,
                "end_time": 93.3227273,
                "pitch": 84,
                "velocity": 40,
                "duration": 0.0977273,
                "tempo": 120.0
            },
            {
                "start_time": 93.325,
                "end_time": 93.4227273,
                "pitch": 81,
                "velocity": 40,
                "duration": 0.0977273,
                "tempo": 120.0
            },
            {
                "start_time": 93.425,
                "end_time": 93.525,
                "pitch": 84,
                "velocity": 40,
                "duration": 0.1,
                "tempo": 120.0
            },
            {
                "start_time": 93.525,
                "end_time": 93.625,
                "pitch": 83,
                "velocity": 40,
                "duration": 0.1,
                "tempo": 120.0
            },
            {
                "start_time": 93.6272727,
                "end_time": 93.725,
                "pitch": 84,
                "velocity": 40,
                "duration": 0.0977273,
                "tempo": 120.0
            },
            {
                "start_time": 93.7272727,
                "end_time": 93.8272727,
                "pitch": 81,
                "velocity": 40,
                "duration": 0.1,
                "tempo": 120.0
            },
            {
                "start_time": 93.8272727,
                "end_time": 93.9272727,
                "pitch": 84,
                "velocity": 40,
                "duration": 0.1,
                "tempo": 120.0
            },
            {
                "start_time": 93.9272727,
                "end_time": 94.0272727,
                "pitch": 83,
                "velocity": 40,
                "duration": 0.1,
                "tempo": 120.0
            },
            {
                "start_time": 94.0272727,
                "end_time": 94.1272727,
                "pitch": 84,
                "velocity": 40,
                "duration": 0.1,
                "tempo": 120.0
            },
            {
                "start_time": 94.1272727,
                "end_time": 94.2272727,
                "pitch": 81,
                "velocity": 40,
                "duration": 0.1,
                "tempo": 120.0
            },
            {
                "start_time": 94.2295455,
                "end_time": 94.3272727,
                "pitch": 84,
                "velocity": 40,
                "duration": 0.0977273,
                "tempo": 120.0
            },
            {
                "start_time": 94.3295455,
                "end_time": 94.4295455,
                "pitch": 83,
                "velocity": 40,
                "duration": 0.1,
                "tempo": 120.0
            },
            {
                "start_time": 94.4295455,
                "end_time": 94.5295455,
                "pitch": 84,
                "velocity": 40,
                "duration": 0.1,
                "tempo": 120.0
            },
            {
                "start_time": 94.5318182,
                "end_time": 94.6295455,
                "pitch": 81,
                "velocity": 40,
                "duration": 0.0977273,
                "tempo": 120.0
            },
            {
                "start_time": 94.6318182,
                "end_time": 94.7318182,
                "pitch": 84,
                "velocity": 40,
                "duration": 0.1,
                "tempo": 120.0
            },
            {
                "start_time": 94.7318182,
                "end_time": 94.8318182,
                "pitch": 83,
                "velocity": 40,
                "duration": 0.1,
                "tempo": 120.0
            },
            {
                "start_time": 94.8340909,
                "end_time": 94.9340909,
                "pitch": 84,
                "velocity": 40,
                "duration": 0.1,
                "tempo": 120.0
            },
            {
                "start_time": 94.9340909,
                "end_time": 95.0363636,
                "pitch": 81,
                "velocity": 40,
                "duration": 0.1022727,
                "tempo": 120.0
            },
            {
                "start_time": 95.0363636,
                "end_time": 95.1386364,
                "pitch": 84,
                "velocity": 40,
                "duration": 0.1022727,
                "tempo": 120.0
            },
            {
                "start_time": 95.1409091,
                "end_time": 95.2409091,
                "pitch": 83,
                "velocity": 40,
                "duration": 0.1,
                "tempo": 120.0
            },
            {
                "start_time": 95.2431818,
                "end_time": 95.3431818,
                "pitch": 84,
                "velocity": 40,
                "duration": 0.1,
                "tempo": 120.0
            },
            {
                "start_time": 95.3454545,
                "end_time": 95.4454545,
                "pitch": 81,
                "velocity": 40,
                "duration": 0.1,
                "tempo": 120.0
            },
            {
                "start_time": 95.4454545,
                "end_time": 95.5454545,
                "pitch": 84,
                "velocity": 40,
                "duration": 0.1,
                "tempo": 120.0
            },
            {
                "start_time": 95.5454545,
                "end_time": 95.6454545,
                "pitch": 83,
                "velocity": 40,
                "duration": 0.1,
                "tempo": 120.0
            },
            {
                "start_time": 95.6477273,
                "end_time": 95.7454545,
                "pitch": 84,
                "velocity": 40,
                "duration": 0.0977273,
                "tempo": 120.0
            },
            {
                "start_time": 95.7477273,
                "end_time": 95.8431818,
                "pitch": 81,
                "velocity": 40,
                "duration": 0.0954545,
                "tempo": 120.0
            },
            {
                "start_time": 95.8454545,
                "end_time": 95.9409091,
                "pitch": 84,
                "velocity": 40,
                "duration": 0.0954545,
                "tempo": 120.0
            },
            {
                "start_time": 95.9431818,
                "end_time": 96.0409091,
                "pitch": 83,
                "velocity": 40,
                "duration": 0.0977273,
                "tempo": 120.0
            },
            {
                "start_time": 96.0409091,
                "end_time": 96.1386364,
                "pitch": 84,
                "velocity": 40,
                "duration": 0.0977273,
                "tempo": 120.0
            },
            {
                "start_time": 96.1386364,
                "end_time": 96.2409091,
                "pitch": 81,
                "velocity": 40,
                "duration": 0.1022727,
                "tempo": 120.0
            },
            {
                "start_time": 96.2409091,
                "end_time": 96.3431818,
                "pitch": 84,
                "velocity": 40,
                "duration": 0.1022727,
                "tempo": 120.0
            },
            {
                "start_time": 96.3431818,
                "end_time": 96.4454545,
                "pitch": 83,
                "velocity": 40,
                "duration": 0.1022727,
                "tempo": 120.0
            },
            {
                "start_time": 96.4477273,
                "end_time": 96.5477273,
                "pitch": 84,
                "velocity": 40,
                "duration": 0.1,
                "tempo": 120.0
            },
            {
                "start_time": 96.55,
                "end_time": 96.6477273,
                "pitch": 79,
                "velocity": 40,
                "duration": 0.0977273,
                "tempo": 120.0
            },
            {
                "start_time": 96.6477273,
                "end_time": 96.7454545,
                "pitch": 84,
                "velocity": 40,
                "duration": 0.0977273,
                "tempo": 120.0
            },
            {
                "start_time": 96.7477273,
                "end_time": 96.8431818,
                "pitch": 83,
                "velocity": 40,
                "duration": 0.0954545,
                "tempo": 120.0
            },
            {
                "start_time": 96.8454545,
                "end_time": 96.9409091,
                "pitch": 84,
                "velocity": 40,
                "duration": 0.0954545,
                "tempo": 120.0
            },
            {
                "start_time": 96.9431818,
                "end_time": 97.0431818,
                "pitch": 79,
                "velocity": 40,
                "duration": 0.1,
                "tempo": 120.0
            },
            {
                "start_time": 97.0454545,
                "end_time": 97.1454545,
                "pitch": 84,
                "velocity": 40,
                "duration": 0.1,
                "tempo": 120.0
            },
            {
                "start_time": 97.1477273,
                "end_time": 97.25,
                "pitch": 83,
                "velocity": 40,
                "duration": 0.1022727,
                "tempo": 120.0
            },
            {
                "start_time": 97.25,
                "end_time": 97.3522727,
                "pitch": 84,
                "velocity": 40,
                "duration": 0.1022727,
                "tempo": 120.0
            },
            {
                "start_time": 97.3545455,
                "end_time": 97.45,
                "pitch": 79,
                "velocity": 40,
                "duration": 0.0954545,
                "tempo": 120.0
            },
            {
                "start_time": 97.4522727,
                "end_time": 97.55,
                "pitch": 84,
                "velocity": 40,
                "duration": 0.0977273,
                "tempo": 120.0
            },
            {
                "start_time": 97.55,
                "end_time": 97.6477273,
                "pitch": 83,
                "velocity": 40,
                "duration": 0.0977273,
                "tempo": 120.0
            },
            {
                "start_time": 97.6477273,
                "end_time": 97.7454545,
                "pitch": 84,
                "velocity": 40,
                "duration": 0.0977273,
                "tempo": 120.0
            },
            {
                "start_time": 97.7477273,
                "end_time": 97.8477273,
                "pitch": 79,
                "velocity": 40,
                "duration": 0.1,
                "tempo": 120.0
            },
            {
                "start_time": 97.85,
                "end_time": 97.95,
                "pitch": 84,
                "velocity": 40,
                "duration": 0.1,
                "tempo": 120.0
            },
            {
                "start_time": 97.9522727,
                "end_time": 98.0522727,
                "pitch": 83,
                "velocity": 40,
                "duration": 0.1,
                "tempo": 120.0
            },
            {
                "start_time": 98.0545455,
                "end_time": 98.1568182,
                "pitch": 84,
                "velocity": 40,
                "duration": 0.1022727,
                "tempo": 120.0
            },
            {
                "start_time": 98.1568182,
                "end_time": 98.2568182,
                "pitch": 80,
                "velocity": 40,
                "duration": 0.1,
                "tempo": 120.0
            },
            {
                "start_time": 98.2590909,
                "end_time": 98.3590909,
                "pitch": 86,
                "velocity": 40,
                "duration": 0.1,
                "tempo": 120.0
            },
            {
                "start_time": 98.3590909,
                "end_time": 98.4590909,
                "pitch": 83,
                "velocity": 40,
                "duration": 0.1,
                "tempo": 120.0
            },
            {
                "start_time": 98.4613636,
                "end_time": 98.5590909,
                "pitch": 86,
                "velocity": 40,
                "duration": 0.0977273,
                "tempo": 120.0
            },
            {
                "start_time": 98.5613636,
                "end_time": 98.6590909,
                "pitch": 80,
                "velocity": 40,
                "duration": 0.0977273,
                "tempo": 120.0
            },
            {
                "start_time": 98.6613636,
                "end_time": 98.7590909,
                "pitch": 86,
                "velocity": 40,
                "duration": 0.0977273,
                "tempo": 120.0
            },
            {
                "start_time": 98.7613636,
                "end_time": 98.8590909,
                "pitch": 83,
                "velocity": 40,
                "duration": 0.0977273,
                "tempo": 120.0
            },
            {
                "start_time": 98.8613636,
                "end_time": 98.9613636,
                "pitch": 86,
                "velocity": 40,
                "duration": 0.1,
                "tempo": 120.0
            },
            {
                "start_time": 98.9613636,
                "end_time": 99.0613636,
                "pitch": 80,
                "velocity": 40,
                "duration": 0.1,
                "tempo": 120.0
            },
            {
                "start_time": 99.0636364,
                "end_time": 99.1613636,
                "pitch": 86,
                "velocity": 40,
                "duration": 0.0977273,
                "tempo": 120.0
            },
            {
                "start_time": 99.1636364,
                "end_time": 99.2636364,
                "pitch": 83,
                "velocity": 40,
                "duration": 0.1,
                "tempo": 120.0
            },
            {
                "start_time": 99.2636364,
                "end_time": 99.3636364,
                "pitch": 86,
                "velocity": 40,
                "duration": 0.1,
                "tempo": 120.0
            },
            {
                "start_time": 99.3659091,
                "end_time": 99.4636364,
                "pitch": 80,
                "velocity": 40,
                "duration": 0.0977273,
                "tempo": 120.0
            },
            {
                "start_time": 99.4659091,
                "end_time": 99.5636364,
                "pitch": 86,
                "velocity": 40,
                "duration": 0.0977273,
                "tempo": 120.0
            },
            {
                "start_time": 99.5659091,
                "end_time": 99.6636364,
                "pitch": 83,
                "velocity": 40,
                "duration": 0.0977273,
                "tempo": 120.0
            },
            {
                "start_time": 99.6659091,
                "end_time": 99.7636364,
                "pitch": 86,
                "velocity": 40,
                "duration": 0.0977273,
                "tempo": 120.0
            },
            {
                "start_time": 99.7659091,
                "end_time": 99.8636364,
                "pitch": 80,
                "velocity": 40,
                "duration": 0.0977273,
                "tempo": 120.0
            },
            {
                "start_time": 99.8659091,
                "end_time": 99.9659091,
                "pitch": 86,
                "velocity": 40,
                "duration": 0.1,
                "tempo": 120.0
            },
            {
                "start_time": 99.9659091,
                "end_time": 100.0659091,
                "pitch": 83,
                "velocity": 40,
                "duration": 0.1,
                "tempo": 120.0
            },
            {
                "start_time": 100.0681818,
                "end_time": 100.1659091,
                "pitch": 86,
                "velocity": 40,
                "duration": 0.0977273,
                "tempo": 120.0
            },
            {
                "start_time": 100.1681818,
                "end_time": 100.2681818,
                "pitch": 80,
                "velocity": 40,
                "duration": 0.1,
                "tempo": 120.0
            },
            {
                "start_time": 100.2704545,
                "end_time": 100.3681818,
                "pitch": 86,
                "velocity": 40,
                "duration": 0.0977273,
                "tempo": 120.0
            },
            {
                "start_time": 100.3704545,
                "end_time": 100.4704545,
                "pitch": 83,
                "velocity": 40,
                "duration": 0.1,
                "tempo": 120.0
            },
            {
                "start_time": 100.4704545,
                "end_time": 100.5704545,
                "pitch": 86,
                "velocity": 40,
                "duration": 0.1,
                "tempo": 120.0
            },
            {
                "start_time": 100.5727273,
                "end_time": 100.6704545,
                "pitch": 80,
                "velocity": 40,
                "duration": 0.0977273,
                "tempo": 120.0
            },
            {
                "start_time": 100.6727273,
                "end_time": 100.7704545,
                "pitch": 86,
                "velocity": 40,
                "duration": 0.0977273,
                "tempo": 120.0
            },
            {
                "start_time": 100.7727273,
                "end_time": 100.8704545,
                "pitch": 83,
                "velocity": 40,
                "duration": 0.0977273,
                "tempo": 120.0
            },
            {
                "start_time": 100.8727273,
                "end_time": 100.9704545,
                "pitch": 86,
                "velocity": 40,
                "duration": 0.0977273,
                "tempo": 120.0
            },
            {
                "start_time": 100.9727273,
                "end_time": 101.0704545,
                "pitch": 80,
                "velocity": 40,
                "duration": 0.0977273,
                "tempo": 120.0
            },
            {
                "start_time": 101.0727273,
                "end_time": 101.1727273,
                "pitch": 86,
                "velocity": 40,
                "duration": 0.1,
                "tempo": 120.0
            },
            {
                "start_time": 101.1727273,
                "end_time": 101.2727273,
                "pitch": 83,
                "velocity": 40,
                "duration": 0.1,
                "tempo": 120.0
            },
            {
                "start_time": 101.275,
                "end_time": 101.375,
                "pitch": 86,
                "velocity": 40,
                "duration": 0.1,
                "tempo": 120.0
            },
            {
                "start_time": 101.375,
                "end_time": 101.3954545,
                "pitch": 86,
                "velocity": 40,
                "duration": 0.0204545,
                "tempo": 120.0
            },
            {
                "start_time": 177.1363636,
                "end_time": 177.2363636,
                "pitch": 81,
                "velocity": 40,
                "duration": 0.1,
                "tempo": 120.0
            },
            {
                "start_time": 177.2363636,
                "end_time": 177.3363636,
                "pitch": 84,
                "velocity": 40,
                "duration": 0.1,
                "tempo": 120.0
            },
            {
                "start_time": 177.3386364,
                "end_time": 177.4363636,
                "pitch": 83,
                "velocity": 40,
                "duration": 0.0977273,
                "tempo": 120.0
            },
            {
                "start_time": 177.4386364,
                "end_time": 177.5386364,
                "pitch": 84,
                "velocity": 40,
                "duration": 0.1,
                "tempo": 120.0
            },
            {
                "start_time": 177.5386364,
                "end_time": 177.6409091,
                "pitch": 81,
                "velocity": 40,
                "duration": 0.1022727,
                "tempo": 120.0
            },
            {
                "start_time": 177.6431818,
                "end_time": 177.7431818,
                "pitch": 84,
                "velocity": 40,
                "duration": 0.1,
                "tempo": 120.0
            },
            {
                "start_time": 177.7454545,
                "end_time": 177.8454545,
                "pitch": 83,
                "velocity": 40,
                "duration": 0.1,
                "tempo": 120.0
            },
            {
                "start_time": 177.8477273,
                "end_time": 177.95,
                "pitch": 84,
                "velocity": 40,
                "duration": 0.1022727,
                "tempo": 120.0
            },
            {
                "start_time": 177.95,
                "end_time": 178.0477273,
                "pitch": 81,
                "velocity": 40,
                "duration": 0.0977273,
                "tempo": 120.0
            },
            {
                "start_time": 178.05,
                "end_time": 178.1454545,
                "pitch": 84,
                "velocity": 40,
                "duration": 0.0954545,
                "tempo": 120.0
            },
            {
                "start_time": 178.1477273,
                "end_time": 178.2431818,
                "pitch": 83,
                "velocity": 40,
                "duration": 0.0954545,
                "tempo": 120.0
            },
            {
                "start_time": 178.2454545,
                "end_time": 178.3431818,
                "pitch": 84,
                "velocity": 40,
                "duration": 0.0977273,
                "tempo": 120.0
            },
            {
                "start_time": 178.3431818,
                "end_time": 178.4431818,
                "pitch": 81,
                "velocity": 40,
                "duration": 0.1,
                "tempo": 120.0
            },
            {
                "start_time": 178.4454545,
                "end_time": 178.5477273,
                "pitch": 84,
                "velocity": 40,
                "duration": 0.1022727,
                "tempo": 120.0
            },
            {
                "start_time": 178.5477273,
                "end_time": 178.65,
                "pitch": 83,
                "velocity": 40,
                "duration": 0.1022727,
                "tempo": 120.0
            },
            {
                "start_time": 178.6522727,
                "end_time": 178.7522727,
                "pitch": 84,
                "velocity": 40,
                "duration": 0.1,
                "tempo": 120.0
            },
            {
                "start_time": 178.7545455,
                "end_time": 178.8545455,
                "pitch": 81,
                "velocity": 40,
                "duration": 0.1,
                "tempo": 120.0
            },
            {
                "start_time": 178.8545455,
                "end_time": 178.9545455,
                "pitch": 84,
                "velocity": 40,
                "duration": 0.1,
                "tempo": 120.0
            },
            {
                "start_time": 178.9568182,
                "end_time": 179.0545455,
                "pitch": 83,
                "velocity": 40,
                "duration": 0.0977273,
                "tempo": 120.0
            },
            {
                "start_time": 179.0568182,
                "end_time": 179.1568182,
                "pitch": 84,
                "velocity": 40,
                "duration": 0.1,
                "tempo": 120.0
            },
            {
                "start_time": 179.1590909,
                "end_time": 179.2568182,
                "pitch": 81,
                "velocity": 40,
                "duration": 0.0977273,
                "tempo": 120.0
            },
            {
                "start_time": 179.2590909,
                "end_time": 179.3568182,
                "pitch": 84,
                "velocity": 40,
                "duration": 0.0977273,
                "tempo": 120.0
            },
            {
                "start_time": 179.3590909,
                "end_time": 179.4590909,
                "pitch": 83,
                "velocity": 40,
                "duration": 0.1,
                "tempo": 120.0
            },
            {
                "start_time": 179.4613636,
                "end_time": 179.5590909,
                "pitch": 84,
                "velocity": 40,
                "duration": 0.0977273,
                "tempo": 120.0
            },
            {
                "start_time": 179.5613636,
                "end_time": 179.6613636,
                "pitch": 81,
                "velocity": 40,
                "duration": 0.1,
                "tempo": 120.0
            },
            {
                "start_time": 179.6613636,
                "end_time": 179.7613636,
                "pitch": 84,
                "velocity": 40,
                "duration": 0.1,
                "tempo": 120.0
            },
            {
                "start_time": 179.7636364,
                "end_time": 179.8613636,
                "pitch": 83,
                "velocity": 40,
                "duration": 0.0977273,
                "tempo": 120.0
            },
            {
                "start_time": 179.8636364,
                "end_time": 179.9636364,
                "pitch": 84,
                "velocity": 40,
                "duration": 0.1,
                "tempo": 120.0
            }
        ],
        "Trumpet": [
            {
                "start_time": 12.9136364,
                "end_time": 12.9272727,
                "pitch": 69,
                "velocity": 4,
                "duration": 0.0136364,
                "tempo": 120.0
            },
            {
                "start_time": 12.9295455,
                "end_time": 13.0954545,
                "pitch": 69,
                "velocity": 80,
                "duration": 0.1659091,
                "tempo": 120.0
            },
            {
                "start_time": 13.0977273,
                "end_time": 13.2954545,
                "pitch": 67,
                "velocity": 80,
                "duration": 0.1977273,
                "tempo": 120.0
            },
            {
                "start_time": 13.2977273,
                "end_time": 13.4977273,
                "pitch": 69,
                "velocity": 80,
                "duration": 0.2,
                "tempo": 120.0
            },
            {
                "start_time": 13.5,
                "end_time": 13.9022727,
                "pitch": 71,
                "velocity": 80,
                "duration": 0.4022727,
                "tempo": 120.0
            },
            {
                "start_time": 13.9045455,
                "end_time": 13.9363636,
                "pitch": 70,
                "velocity": 80,
                "duration": 0.0318182,
                "tempo": 120.0
            },
            {
                "start_time": 13.9363636,
                "end_time": 13.9704545,
                "pitch": 66,
                "velocity": 80,
                "duration": 0.0340909,
                "tempo": 120.0
            },
            {
                "start_time": 13.9704545,
                "end_time": 14.3045455,
                "pitch": 64,
                "velocity": 80,
                "duration": 0.3340909,
                "tempo": 120.0
            },
            {
                "start_time": 14.3068182,
                "end_time": 14.3227273,
                "pitch": 66,
                "velocity": 80,
                "duration": 0.0159091,
                "tempo": 120.0
            },
            {
                "start_time": 14.3227273,
                "end_time": 14.3568182,
                "pitch": 68,
                "velocity": 80,
                "duration": 0.0340909,
                "tempo": 120.0
            },
            {
                "start_time": 14.3568182,
                "end_time": 14.3909091,
                "pitch": 72,
                "velocity": 80,
                "duration": 0.0340909,
                "tempo": 120.0
            },
            {
                "start_time": 14.3909091,
                "end_time": 14.9068182,
                "pitch": 76,
                "velocity": 80,
                "duration": 0.5159091,
                "tempo": 120.0
            },
            {
                "start_time": 14.9090909,
                "end_time": 15.3090909,
                "pitch": 74,
                "velocity": 80,
                "duration": 0.4,
                "tempo": 120.0
            },
            {
                "start_time": 15.3113636,
                "end_time": 15.5113636,
                "pitch": 72,
                "velocity": 80,
                "duration": 0.2,
                "tempo": 120.0
            },
            {
                "start_time": 15.5136364,
                "end_time": 16.1159091,
                "pitch": 74,
                "velocity": 80,
                "duration": 0.6022727,
                "tempo": 120.0
            },
            {
                "start_time": 16.1181818,
                "end_time": 16.7204545,
                "pitch": 72,
                "velocity": 80,
                "duration": 0.6022727,
                "tempo": 120.0
            },
            {
                "start_time": 16.7227273,
                "end_time": 17.3227273,
                "pitch": 71,
                "velocity": 80,
                "duration": 0.6,
                "tempo": 120.0
            },
            {
                "start_time": 17.325,
                "end_time": 19.3386364,
                "pitch": 69,
                "velocity": 80,
                "duration": 2.0136364,
                "tempo": 120.0
            },
            {
                "start_time": 19.3409091,
                "end_time": 19.5409091,
                "pitch": 71,
                "velocity": 80,
                "duration": 0.2,
                "tempo": 120.0
            },
            {
                "start_time": 19.5431818,
                "end_time": 19.7431818,
                "pitch": 69,
                "velocity": 80,
                "duration": 0.2,
                "tempo": 120.0
            },
            {
                "start_time": 19.7454545,
                "end_time": 19.9431818,
                "pitch": 71,
                "velocity": 80,
                "duration": 0.1977273,
                "tempo": 120.0
            },
            {
                "start_time": 19.9454545,
                "end_time": 20.3431818,
                "pitch": 73,
                "velocity": 80,
                "duration": 0.3977273,
                "tempo": 120.0
            },
            {
                "start_time": 20.3454545,
                "end_time": 20.3772727,
                "pitch": 72,
                "velocity": 80,
                "duration": 0.0318182,
                "tempo": 120.0
            },
            {
                "start_time": 20.3772727,
                "end_time": 20.6636364,
                "pitch": 68,
                "velocity": 80,
                "duration": 0.2863636,
                "tempo": 120.0
            },
            {
                "start_time": 20.6636364,
                "end_time": 20.6954545,
                "pitch": 67,
                "velocity": 80,
                "duration": 0.0318182,
                "tempo": 120.0
            },
            {
                "start_time": 20.6954545,
                "end_time": 20.7454545,
                "pitch": 67,
                "velocity": 80,
                "duration": 0.05,
                "tempo": 120.0
            },
            {
                "start_time": 20.7477273,
                "end_time": 20.7795455,
                "pitch": 69,
                "velocity": 80,
                "duration": 0.0318182,
                "tempo": 120.0
            },
            {
                "start_time": 20.7795455,
                "end_time": 20.8136364,
                "pitch": 73,
                "velocity": 80,
                "duration": 0.0340909,
                "tempo": 120.0
            },
            {
                "start_time": 20.8136364,
                "end_time": 20.8477273,
                "pitch": 77,
                "velocity": 80,
                "duration": 0.0340909,
                "tempo": 120.0
            },
            {
                "start_time": 20.6636364,
                "end_time": 21.0659091,
                "pitch": 79,
                "velocity": 80,
                "duration": 0.4022727,
                "tempo": 120.0
            },
            {
                "start_time": 20.8477273,
                "end_time": 21.0659091,
                "pitch": 79,
                "velocity": 80,
                "duration": 0.2181818,
                "tempo": 120.0
            },
            {
                "start_time": 20.8477273,
                "end_time": 21.1159091,
                "pitch": 67,
                "velocity": 80,
                "duration": 0.2681818,
                "tempo": 120.0
            },
            {
                "start_time": 21.0659091,
                "end_time": 21.1159091,
                "pitch": 79,
                "velocity": 80,
                "duration": 0.05,
                "tempo": 120.0
            },
            {
                "start_time": 21.1159091,
                "end_time": 21.2477273,
                "pitch": 79,
                "velocity": 80,
                "duration": 0.1318182,
                "tempo": 120.0
            },
            {
                "start_time": 21.0659091,
                "end_time": 21.2477273,
                "pitch": 91,
                "velocity": 80,
                "duration": 0.1818182,
                "tempo": 120.0
            },
            {
                "start_time": 21.1159091,
                "end_time": 21.3159091,
                "pitch": 67,
                "velocity": 80,
                "duration": 0.2,
                "tempo": 120.0
            },
            {
                "start_time": 21.2477273,
                "end_time": 21.3159091,
                "pitch": 79,
                "velocity": 80,
                "duration": 0.0681818,
                "tempo": 120.0
            },
            {
                "start_time": 21.3159091,
                "end_time": 21.3477273,
                "pitch": 79,
                "velocity": 80,
                "duration": 0.0318182,
                "tempo": 120.0
            },
            {
                "start_time": 21.35,
                "end_time": 21.75,
                "pitch": 77,
                "velocity": 80,
                "duration": 0.4,
                "tempo": 120.0
            },
            {
                "start_time": 21.7522727,
                "end_time": 21.95,
                "pitch": 76,
                "velocity": 80,
                "duration": 0.1977273,
                "tempo": 120.0
            },
            {
                "start_time": 21.9522727,
                "end_time": 22.5522727,
                "pitch": 77,
                "velocity": 80,
                "duration": 0.6,
                "tempo": 120.0
            },
            {
                "start_time": 22.5545455,
                "end_time": 25.7659091,
                "pitch": 76,
                "velocity": 80,
                "duration": 3.2113636,
                "tempo": 120.0
            },
            {
                "start_time": 25.7681818,
                "end_time": 25.9727273,
                "pitch": 74,
                "velocity": 80,
                "duration": 0.2045455,
                "tempo": 120.0
            },
            {
                "start_time": 25.975,
                "end_time": 26.1772727,
                "pitch": 76,
                "velocity": 80,
                "duration": 0.2022727,
                "tempo": 120.0
            },
            {
                "start_time": 26.1795455,
                "end_time": 26.3795455,
                "pitch": 77,
                "velocity": 80,
                "duration": 0.2,
                "tempo": 120.0
            },
            {
                "start_time": 26.3818182,
                "end_time": 28.9863636,
                "pitch": 75,
                "velocity": 80,
                "duration": 2.6045455,
                "tempo": 120.0
            },
            {
                "start_time": 28.9886364,
                "end_time": 29.1886364,
                "pitch": 72,
                "velocity": 80,
                "duration": 0.2,
                "tempo": 120.0
            },
            {
                "start_time": 29.1909091,
                "end_time": 29.3909091,
                "pitch": 74,
                "velocity": 80,
                "duration": 0.2,
                "tempo": 120.0
            },
            {
                "start_time": 29.3931818,
                "end_time": 29.5909091,
                "pitch": 76,
                "velocity": 80,
                "duration": 0.1977273,
                "tempo": 120.0
            },
            {
                "start_time": 29.5931818,
                "end_time": 29.625,
                "pitch": 74,
                "velocity": 80,
                "duration": 0.0318182,
                "tempo": 120.0
            },
            {
                "start_time": 29.625,
                "end_time": 32.2022727,
                "pitch": 72,
                "velocity": 80,
                "duration": 2.5772727,
                "tempo": 120.0
            },
            {
                "start_time": 32.2045455,
                "end_time": 33.8136364,
                "pitch": 70,
                "velocity": 80,
                "duration": 1.6090909,
                "tempo": 120.0
            },
            {
                "start_time": 21.3159091,
                "end_time": 33.8340909,
                "pitch": 67,
                "velocity": 80,
                "duration": 12.5181818,
                "tempo": 120.0
            },
            {
                "start_time": 33.8159091,
                "end_time": 33.8340909,
                "pitch": 67,
                "velocity": 80,
                "duration": 0.0181818,
                "tempo": 120.0
            },
            {
                "start_time": 33.8340909,
                "end_time": 34.0113636,
                "pitch": 65,
                "velocity": 80,
                "duration": 0.1772727,
                "tempo": 120.0
            },
            {
                "start_time": 34.0136364,
                "end_time": 34.0454545,
                "pitch": 67,
                "velocity": 80,
                "duration": 0.0318182,
                "tempo": 120.0
            },
            {
                "start_time": 34.0454545,
                "end_time": 34.4136364,
                "pitch": 69,
                "velocity": 80,
                "duration": 0.3681818,
                "tempo": 120.0
            },
            {
                "start_time": 34.4159091,
                "end_time": 34.8181818,
                "pitch": 71,
                "velocity": 80,
                "duration": 0.4022727,
                "tempo": 120.0
            },
            {
                "start_time": 34.8204545,
                "end_time": 35.2204545,
                "pitch": 71,
                "velocity": 80,
                "duration": 0.4,
                "tempo": 120.0
            },
            {
                "start_time": 35.2227273,
                "end_time": 36.825,
                "pitch": 73,
                "velocity": 80,
                "duration": 1.6022727,
                "tempo": 120.0
            },
            {
                "start_time": 36.8272727,
                "end_time": 38.6295455,
                "pitch": 72,
                "velocity": 80,
                "duration": 1.8022727,
                "tempo": 120.0
            },
            {
                "start_time": 38.6318182,
                "end_time": 38.6477273,
                "pitch": 69,
                "velocity": 4,
                "duration": 0.0159091,
                "tempo": 120.0
            },
            {
                "start_time": 38.65,
                "end_time": 38.8181818,
                "pitch": 69,
                "velocity": 80,
                "duration": 0.1681818,
                "tempo": 120.0
            },
            {
                "start_time": 38.8204545,
                "end_time": 39.0227273,
                "pitch": 67,
                "velocity": 80,
                "duration": 0.2022727,
                "tempo": 120.0
            },
            {
                "start_time": 39.025,
                "end_time": 39.2204545,
                "pitch": 69,
                "velocity": 80,
                "duration": 0.1954545,
                "tempo": 120.0
            },
            {
                "start_time": 39.2227273,
                "end_time": 39.6159091,
                "pitch": 71,
                "velocity": 80,
                "duration": 0.3931818,
                "tempo": 120.0
            },
            {
                "start_time": 39.6181818,
                "end_time": 39.6522727,
                "pitch": 70,
                "velocity": 80,
                "duration": 0.0340909,
                "tempo": 120.0
            },
            {
                "start_time": 13.9363636,
                "end_time": 39.6522727,
                "pitch": 78,
                "velocity": 80,
                "duration": 25.7159091,
                "tempo": 120.0
            },
            {
                "start_time": 39.6522727,
                "end_time": 39.6840909,
                "pitch": 66,
                "velocity": 80,
                "duration": 0.0318182,
                "tempo": 120.0
            },
            {
                "start_time": 39.6840909,
                "end_time": 40.0181818,
                "pitch": 64,
                "velocity": 80,
                "duration": 0.3340909,
                "tempo": 120.0
            },
            {
                "start_time": 14.3227273,
                "end_time": 40.0363636,
                "pitch": 56,
                "velocity": 80,
                "duration": 25.7136364,
                "tempo": 120.0
            },
            {
                "start_time": 40.0204545,
                "end_time": 40.0363636,
                "pitch": 66,
                "velocity": 80,
                "duration": 0.0159091,
                "tempo": 120.0
            },
            {
                "start_time": 40.0363636,
                "end_time": 40.0681818,
                "pitch": 68,
                "velocity": 80,
                "duration": 0.0318182,
                "tempo": 120.0
            },
            {
                "start_time": 40.0681818,
                "end_time": 40.1022727,
                "pitch": 72,
                "velocity": 80,
                "duration": 0.0340909,
                "tempo": 120.0
            },
            {
                "start_time": 40.1022727,
                "end_time": 40.6181818,
                "pitch": 76,
                "velocity": 80,
                "duration": 0.5159091,
                "tempo": 120.0
            },
            {
                "start_time": 40.6204545,
                "end_time": 41.0181818,
                "pitch": 74,
                "velocity": 80,
                "duration": 0.3977273,
                "tempo": 120.0
            },
            {
                "start_time": 41.0204545,
                "end_time": 41.2204545,
                "pitch": 72,
                "velocity": 80,
                "duration": 0.2,
                "tempo": 120.0
            },
            {
                "start_time": 41.2227273,
                "end_time": 41.8318182,
                "pitch": 74,
                "velocity": 80,
                "duration": 0.6090909,
                "tempo": 120.0
            },
            {
                "start_time": 41.8340909,
                "end_time": 42.4363636,
                "pitch": 72,
                "velocity": 80,
                "duration": 0.6022727,
                "tempo": 120.0
            },
            {
                "start_time": 42.4386364,
                "end_time": 43.0295455,
                "pitch": 71,
                "velocity": 80,
                "duration": 0.5909091,
                "tempo": 120.0
            },
            {
                "start_time": 43.0318182,
                "end_time": 45.0454545,
                "pitch": 69,
                "velocity": 80,
                "duration": 2.0136364,
                "tempo": 120.0
            },
            {
                "start_time": 45.0477273,
                "end_time": 45.2454545,
                "pitch": 71,
                "velocity": 80,
                "duration": 0.1977273,
                "tempo": 120.0
            },
            {
                "start_time": 45.2477273,
                "end_time": 45.4454545,
                "pitch": 69,
                "velocity": 80,
                "duration": 0.1977273,
                "tempo": 120.0
            },
            {
                "start_time": 45.4477273,
                "end_time": 45.6477273,
                "pitch": 71,
                "velocity": 80,
                "duration": 0.2,
                "tempo": 120.0
            },
            {
                "start_time": 45.6477273,
                "end_time": 46.0477273,
                "pitch": 73,
                "velocity": 80,
                "duration": 0.4,
                "tempo": 120.0
            },
            {
                "start_time": 46.05,
                "end_time": 46.0818182,
                "pitch": 72,
                "velocity": 80,
                "duration": 0.0318182,
                "tempo": 120.0
            },
            {
                "start_time": 46.0818182,
                "end_time": 46.3659091,
                "pitch": 68,
                "velocity": 80,
                "duration": 0.2840909,
                "tempo": 120.0
            },
            {
                "start_time": 20.6954545,
                "end_time": 46.3840909,
                "pitch": 55,
                "velocity": 80,
                "duration": 25.6886364,
                "tempo": 120.0
            },
            {
                "start_time": 46.3659091,
                "end_time": 46.3840909,
                "pitch": 67,
                "velocity": 80,
                "duration": 0.0181818,
                "tempo": 120.0
            },
            {
                "start_time": 46.3840909,
                "end_time": 46.4477273,
                "pitch": 67,
                "velocity": 80,
                "duration": 0.0636364,
                "tempo": 120.0
            },
            {
                "start_time": 46.45,
                "end_time": 46.4840909,
                "pitch": 69,
                "velocity": 80,
                "duration": 0.0340909,
                "tempo": 120.0
            },
            {
                "start_time": 46.4840909,
                "end_time": 46.5181818,
                "pitch": 73,
                "velocity": 80,
                "duration": 0.0340909,
                "tempo": 120.0
            },
            {
                "start_time": 33.8340909,
                "end_time": 46.55,
                "pitch": 77,
                "velocity": 80,
                "duration": 12.7159091,
                "tempo": 120.0
            },
            {
                "start_time": 46.5181818,
                "end_time": 46.55,
                "pitch": 77,
                "velocity": 80,
                "duration": 0.0318182,
                "tempo": 120.0
            },
            {
                "start_time": 46.55,
                "end_time": 46.5522727,
                "pitch": 67,
                "velocity": 80,
                "duration": 0.0022727,
                "tempo": 120.0
            },
            {
                "start_time": 46.3659091,
                "end_time": 46.7681818,
                "pitch": 79,
                "velocity": 80,
                "duration": 0.4022727,
                "tempo": 120.0
            },
            {
                "start_time": 46.5522727,
                "end_time": 46.7681818,
                "pitch": 79,
                "velocity": 80,
                "duration": 0.2159091,
                "tempo": 120.0
            },
            {
                "start_time": 21.2477273,
                "end_time": 46.7681818,
                "pitch": 91,
                "velocity": 80,
                "duration": 25.5204545,
                "tempo": 120.0
            },
            {
                "start_time": 46.7681818,
                "end_time": 46.8022727,
                "pitch": 79,
                "velocity": 80,
                "duration": 0.0340909,
                "tempo": 120.0
            },
            {
                "start_time": 46.8022727,
                "end_time": 46.9363636,
                "pitch": 79,
                "velocity": 80,
                "duration": 0.1340909,
                "tempo": 120.0
            },
            {
                "start_time": 46.7681818,
                "end_time": 46.9363636,
                "pitch": 91,
                "velocity": 80,
                "duration": 0.1681818,
                "tempo": 120.0
            },
            {
                "start_time": 46.8022727,
                "end_time": 47.0022727,
                "pitch": 67,
                "velocity": 80,
                "duration": 0.2,
                "tempo": 120.0
            },
            {
                "start_time": 46.9363636,
                "end_time": 47.0022727,
                "pitch": 79,
                "velocity": 80,
                "duration": 0.0659091,
                "tempo": 120.0
            },
            {
                "start_time": 47.0022727,
                "end_time": 47.05,
                "pitch": 79,
                "velocity": 80,
                "duration": 0.0477273,
                "tempo": 120.0
            },
            {
                "start_time": 47.0522727,
                "end_time": 47.4522727,
                "pitch": 77,
                "velocity": 80,
                "duration": 0.4,
                "tempo": 120.0
            },
            {
                "start_time": 47.4545455,
                "end_time": 47.6522727,
                "pitch": 76,
                "velocity": 80,
                "duration": 0.1977273,
                "tempo": 120.0
            },
            {
                "start_time": 47.6545455,
                "end_time": 48.2522727,
                "pitch": 77,
                "velocity": 80,
                "duration": 0.5977273,
                "tempo": 120.0
            },
            {
                "start_time": 48.2545455,
                "end_time": 51.4727273,
                "pitch": 76,
                "velocity": 80,
                "duration": 3.2181818,
                "tempo": 120.0
            },
            {
                "start_time": 51.475,
                "end_time": 51.6727273,
                "pitch": 74,
                "velocity": 80,
                "duration": 0.1977273,
                "tempo": 120.0
            },
            {
                "start_time": 51.675,
                "end_time": 51.8727273,
                "pitch": 76,
                "velocity": 80,
                "duration": 0.1977273,
                "tempo": 120.0
            },
            {
                "start_time": 51.875,
                "end_time": 52.075,
                "pitch": 77,
                "velocity": 80,
                "duration": 0.2,
                "tempo": 120.0
            },
            {
                "start_time": 52.0772727,
                "end_time": 54.6818182,
                "pitch": 75,
                "velocity": 80,
                "duration": 2.6045455,
                "tempo": 120.0
            },
            {
                "start_time": 54.6840909,
                "end_time": 54.8818182,
                "pitch": 72,
                "velocity": 80,
                "duration": 0.1977273,
                "tempo": 120.0
            },
            {
                "start_time": 54.8840909,
                "end_time": 55.0840909,
                "pitch": 74,
                "velocity": 80,
                "duration": 0.2,
                "tempo": 120.0
            },
            {
                "start_time": 55.0840909,
                "end_time": 55.2840909,
                "pitch": 76,
                "velocity": 80,
                "duration": 0.2,
                "tempo": 120.0
            },
            {
                "start_time": 55.2863636,
                "end_time": 55.3181818,
                "pitch": 74,
                "velocity": 80,
                "duration": 0.0318182,
                "tempo": 120.0
            },
            {
                "start_time": 55.3181818,
                "end_time": 57.9,
                "pitch": 72,
                "velocity": 80,
                "duration": 2.5818182,
                "tempo": 120.0
            },
            {
                "start_time": 57.9022727,
                "end_time": 59.3022727,
                "pitch": 70,
                "velocity": 80,
                "duration": 1.4,
                "tempo": 120.0
            },
            {
                "start_time": 47.0022727,
                "end_time": 59.3204545,
                "pitch": 67,
                "velocity": 80,
                "duration": 12.3181818,
                "tempo": 120.0
            },
            {
                "start_time": 59.3045455,
                "end_time": 59.3204545,
                "pitch": 67,
                "velocity": 80,
                "duration": 0.0159091,
                "tempo": 120.0
            },
            {
                "start_time": 59.3204545,
                "end_time": 59.7045455,
                "pitch": 65,
                "velocity": 80,
                "duration": 0.3840909,
                "tempo": 120.0
            },
            {
                "start_time": 59.7068182,
                "end_time": 59.7386364,
                "pitch": 67,
                "velocity": 80,
                "duration": 0.0318182,
                "tempo": 120.0
            },
            {
                "start_time": 59.7386364,
                "end_time": 60.1068182,
                "pitch": 69,
                "velocity": 80,
                "duration": 0.3681818,
                "tempo": 120.0
            },
            {
                "start_time": 60.1090909,
                "end_time": 60.5068182,
                "pitch": 71,
                "velocity": 80,
                "duration": 0.3977273,
                "tempo": 120.0
            },
            {
                "start_time": 60.5090909,
                "end_time": 60.9068182,
                "pitch": 71,
                "velocity": 80,
                "duration": 0.3977273,
                "tempo": 120.0
            },
            {
                "start_time": 60.9090909,
                "end_time": 60.9431818,
                "pitch": 73,
                "velocity": 80,
                "duration": 0.0340909,
                "tempo": 120.0
            },
            {
                "start_time": 59.3204545,
                "end_time": 60.975,
                "pitch": 77,
                "velocity": 80,
                "duration": 1.6545455,
                "tempo": 120.0
            },
            {
                "start_time": 60.9431818,
                "end_time": 60.975,
                "pitch": 77,
                "velocity": 80,
                "duration": 0.0318182,
                "tempo": 120.0
            },
            {
                "start_time": 60.975,
                "end_time": 61.225,
                "pitch": 79,
                "velocity": 80,
                "duration": 0.25,
                "tempo": 120.0
            },
            {
                "start_time": 46.9363636,
                "end_time": 61.225,
                "pitch": 91,
                "velocity": 80,
                "duration": 14.2886364,
                "tempo": 120.0
            },
            {
                "start_time": 60.975,
                "end_time": 61.2431818,
                "pitch": 67,
                "velocity": 80,
                "duration": 0.2681818,
                "tempo": 120.0
            },
            {
                "start_time": 61.225,
                "end_time": 61.2431818,
                "pitch": 79,
                "velocity": 80,
                "duration": 0.0181818,
                "tempo": 120.0
            },
            {
                "start_time": 61.2431818,
                "end_time": 61.375,
                "pitch": 79,
                "velocity": 80,
                "duration": 0.1318182,
                "tempo": 120.0
            },
            {
                "start_time": 61.225,
                "end_time": 61.375,
                "pitch": 91,
                "velocity": 80,
                "duration": 0.15,
                "tempo": 120.0
            },
            {
                "start_time": 61.2431818,
                "end_time": 61.4431818,
                "pitch": 67,
                "velocity": 80,
                "duration": 0.2,
                "tempo": 120.0
            },
            {
                "start_time": 61.375,
                "end_time": 61.4431818,
                "pitch": 79,
                "velocity": 80,
                "duration": 0.0681818,
                "tempo": 120.0
            },
            {
                "start_time": 61.4431818,
                "end_time": 61.5772727,
                "pitch": 79,
                "velocity": 80,
                "duration": 0.1340909,
                "tempo": 120.0
            },
            {
                "start_time": 61.375,
                "end_time": 61.5772727,
                "pitch": 91,
                "velocity": 80,
                "duration": 0.2022727,
                "tempo": 120.0
            },
            {
                "start_time": 61.4431818,
                "end_time": 61.6431818,
                "pitch": 67,
                "velocity": 80,
                "duration": 0.2,
                "tempo": 120.0
            },
            {
                "start_time": 61.5772727,
                "end_time": 61.6431818,
                "pitch": 79,
                "velocity": 80,
                "duration": 0.0659091,
                "tempo": 120.0
            },
            {
                "start_time": 61.6431818,
                "end_time": 61.7772727,
                "pitch": 79,
                "velocity": 80,
                "duration": 0.1340909,
                "tempo": 120.0
            },
            {
                "start_time": 61.5772727,
                "end_time": 61.7772727,
                "pitch": 91,
                "velocity": 80,
                "duration": 0.2,
                "tempo": 120.0
            },
            {
                "start_time": 61.6431818,
                "end_time": 61.8454545,
                "pitch": 67,
                "velocity": 80,
                "duration": 0.2022727,
                "tempo": 120.0
            },
            {
                "start_time": 61.7772727,
                "end_time": 61.8454545,
                "pitch": 79,
                "velocity": 80,
                "duration": 0.0681818,
                "tempo": 120.0
            },
            {
                "start_time": 61.8454545,
                "end_time": 61.9795455,
                "pitch": 79,
                "velocity": 80,
                "duration": 0.1340909,
                "tempo": 120.0
            },
            {
                "start_time": 61.7772727,
                "end_time": 61.9795455,
                "pitch": 91,
                "velocity": 80,
                "duration": 0.2022727,
                "tempo": 120.0
            },
            {
                "start_time": 61.8454545,
                "end_time": 62.0454545,
                "pitch": 67,
                "velocity": 80,
                "duration": 0.2,
                "tempo": 120.0
            },
            {
                "start_time": 61.9795455,
                "end_time": 62.0454545,
                "pitch": 79,
                "velocity": 80,
                "duration": 0.0659091,
                "tempo": 120.0
            },
            {
                "start_time": 62.0454545,
                "end_time": 62.1795455,
                "pitch": 79,
                "velocity": 80,
                "duration": 0.1340909,
                "tempo": 120.0
            },
            {
                "start_time": 61.9795455,
                "end_time": 62.1795455,
                "pitch": 91,
                "velocity": 80,
                "duration": 0.2,
                "tempo": 120.0
            },
            {
                "start_time": 62.0454545,
                "end_time": 62.2454545,
                "pitch": 67,
                "velocity": 80,
                "duration": 0.2,
                "tempo": 120.0
            },
            {
                "start_time": 62.1795455,
                "end_time": 62.2454545,
                "pitch": 79,
                "velocity": 80,
                "duration": 0.0659091,
                "tempo": 120.0
            },
            {
                "start_time": 62.2454545,
                "end_time": 62.3795455,
                "pitch": 79,
                "velocity": 80,
                "duration": 0.1340909,
                "tempo": 120.0
            },
            {
                "start_time": 62.1795455,
                "end_time": 62.3795455,
                "pitch": 91,
                "velocity": 80,
                "duration": 0.2,
                "tempo": 120.0
            },
            {
                "start_time": 62.2454545,
                "end_time": 62.4477273,
                "pitch": 67,
                "velocity": 80,
                "duration": 0.2022727,
                "tempo": 120.0
            },
            {
                "start_time": 62.3795455,
                "end_time": 62.4477273,
                "pitch": 79,
                "velocity": 80,
                "duration": 0.0681818,
                "tempo": 120.0
            },
            {
                "start_time": 62.4477273,
                "end_time": 62.5113636,
                "pitch": 79,
                "velocity": 80,
                "duration": 0.0636364,
                "tempo": 120.0
            },
            {
                "start_time": 62.5136364,
                "end_time": 64.3272727,
                "pitch": 77,
                "velocity": 80,
                "duration": 1.8136364,
                "tempo": 120.0
            },
            {
                "start_time": 64.7068182,
                "end_time": 64.7204545,
                "pitch": 74,
                "velocity": 4,
                "duration": 0.0136364,
                "tempo": 120.0
            },
            {
                "start_time": 64.7227273,
                "end_time": 65.3227273,
                "pitch": 74,
                "velocity": 80,
                "duration": 0.6,
                "tempo": 120.0
            },
            {
                "start_time": 65.325,
                "end_time": 65.525,
                "pitch": 76,
                "velocity": 80,
                "duration": 0.2,
                "tempo": 120.0
            },
            {
                "start_time": 65.525,
                "end_time": 65.7295455,
                "pitch": 77,
                "velocity": 80,
                "duration": 0.2045455,
                "tempo": 120.0
            },
            {
                "start_time": 65.7318182,
                "end_time": 65.9340909,
                "pitch": 75,
                "velocity": 80,
                "duration": 0.2022727,
                "tempo": 120.0
            },
            {
                "start_time": 62.4477273,
                "end_time": 65.9704545,
                "pitch": 67,
                "velocity": 80,
                "duration": 3.5227273,
                "tempo": 120.0
            },
            {
                "start_time": 65.9363636,
                "end_time": 65.9704545,
                "pitch": 76,
                "velocity": 80,
                "duration": 0.0340909,
                "tempo": 120.0
            },
            {
                "start_time": 65.9704545,
                "end_time": 66.1363636,
                "pitch": 79,
                "velocity": 80,
                "duration": 0.1659091,
                "tempo": 120.0
            },
            {
                "start_time": 66.1386364,
                "end_time": 66.5409091,
                "pitch": 77,
                "velocity": 80,
                "duration": 0.4022727,
                "tempo": 120.0
            },
            {
                "start_time": 66.5409091,
                "end_time": 66.9409091,
                "pitch": 76,
                "velocity": 80,
                "duration": 0.4,
                "tempo": 120.0
            },
            {
                "start_time": 66.9431818,
                "end_time": 67.5454545,
                "pitch": 77,
                "velocity": 80,
                "duration": 0.6022727,
                "tempo": 120.0
            },
            {
                "start_time": 67.5477273,
                "end_time": 67.7454545,
                "pitch": 76,
                "velocity": 80,
                "duration": 0.1977273,
                "tempo": 120.0
            },
            {
                "start_time": 67.7477273,
                "end_time": 68.1477273,
                "pitch": 77,
                "velocity": 80,
                "duration": 0.4,
                "tempo": 120.0
            },
            {
                "start_time": 68.15,
                "end_time": 68.5340909,
                "pitch": 79,
                "velocity": 80,
                "duration": 0.3840909,
                "tempo": 120.0
            },
            {
                "start_time": 62.3795455,
                "end_time": 68.5363636,
                "pitch": 91,
                "velocity": 80,
                "duration": 6.1568182,
                "tempo": 120.0
            },
            {
                "start_time": 68.5340909,
                "end_time": 68.5363636,
                "pitch": 91,
                "velocity": 80,
                "duration": 0.0022727,
                "tempo": 120.0
            },
            {
                "start_time": 68.5363636,
                "end_time": 68.55,
                "pitch": 79,
                "velocity": 80,
                "duration": 0.0136364,
                "tempo": 120.0
            },
            {
                "start_time": 68.5522727,
                "end_time": 68.5863636,
                "pitch": 81,
                "velocity": 80,
                "duration": 0.0340909,
                "tempo": 120.0
            },
            {
                "start_time": 68.5863636,
                "end_time": 69.1522727,
                "pitch": 83,
                "velocity": 80,
                "duration": 0.5659091,
                "tempo": 120.0
            },
            {
                "start_time": 69.1545455,
                "end_time": 69.3545455,
                "pitch": 84,
                "velocity": 80,
                "duration": 0.2,
                "tempo": 120.0
            },
            {
                "start_time": 69.3568182,
                "end_time": 69.7568182,
                "pitch": 83,
                "velocity": 80,
                "duration": 0.4,
                "tempo": 120.0
            },
            {
                "start_time": 69.7590909,
                "end_time": 69.7909091,
                "pitch": 81,
                "velocity": 80,
                "duration": 0.0318182,
                "tempo": 120.0
            },
            {
                "start_time": 69.7909091,
                "end_time": 70.1590909,
                "pitch": 77,
                "velocity": 80,
                "duration": 0.3681818,
                "tempo": 120.0
            },
            {
                "start_time": 39.6522727,
                "end_time": 70.1772727,
                "pitch": 78,
                "velocity": 80,
                "duration": 30.525,
                "tempo": 120.0
            },
            {
                "start_time": 70.1590909,
                "end_time": 70.1772727,
                "pitch": 78,
                "velocity": 80,
                "duration": 0.0181818,
                "tempo": 120.0
            },
            {
                "start_time": 70.1772727,
                "end_time": 70.2090909,
                "pitch": 80,
                "velocity": 80,
                "duration": 0.0318182,
                "tempo": 120.0
            },
            {
                "start_time": 70.2090909,
                "end_time": 70.7636364,
                "pitch": 83,
                "velocity": 80,
                "duration": 0.5545455,
                "tempo": 120.0
            },
            {
                "start_time": 70.7659091,
                "end_time": 71.5681818,
                "pitch": 81,
                "velocity": 80,
                "duration": 0.8022727,
                "tempo": 120.0
            },
            {
                "start_time": 71.7681818,
                "end_time": 71.9681818,
                "pitch": 81,
                "velocity": 80,
                "duration": 0.2,
                "tempo": 120.0
            },
            {
                "start_time": 71.9704545,
                "end_time": 72.1681818,
                "pitch": 83,
                "velocity": 80,
                "duration": 0.1977273,
                "tempo": 120.0
            },
            {
                "start_time": 72.1704545,
                "end_time": 72.2045455,
                "pitch": 86,
                "velocity": 80,
                "duration": 0.0340909,
                "tempo": 120.0
            },
            {
                "start_time": 69.7909091,
                "end_time": 72.7727273,
                "pitch": 89,
                "velocity": 80,
                "duration": 2.9818182,
                "tempo": 120.0
            },
            {
                "start_time": 72.2045455,
                "end_time": 72.7727273,
                "pitch": 89,
                "velocity": 80,
                "duration": 0.5681818,
                "tempo": 120.0
            },
            {
                "start_time": 72.775,
                "end_time": 72.9795455,
                "pitch": 88,
                "velocity": 80,
                "duration": 0.2045455,
                "tempo": 120.0
            },
            {
                "start_time": 72.9818182,
                "end_time": 73.3818182,
                "pitch": 86,
                "velocity": 80,
                "duration": 0.4,
                "tempo": 120.0
            },
            {
                "start_time": 73.3840909,
                "end_time": 73.9772727,
                "pitch": 88,
                "velocity": 80,
                "duration": 0.5931818,
                "tempo": 120.0
            },
            {
                "start_time": 73.9795455,
                "end_time": 74.0136364,
                "pitch": 86,
                "velocity": 80,
                "duration": 0.0340909,
                "tempo": 120.0
            },
            {
                "start_time": 74.0136364,
                "end_time": 74.7909091,
                "pitch": 84,
                "velocity": 80,
                "duration": 0.7772727,
                "tempo": 120.0
            },
            {
                "start_time": 74.7931818,
                "end_time": 74.9909091,
                "pitch": 83,
                "velocity": 80,
                "duration": 0.1977273,
                "tempo": 120.0
            },
            {
                "start_time": 74.9931818,
                "end_time": 75.3954545,
                "pitch": 84,
                "velocity": 80,
                "duration": 0.4022727,
                "tempo": 120.0
            },
            {
                "start_time": 75.3977273,
                "end_time": 75.7977273,
                "pitch": 86,
                "velocity": 80,
                "duration": 0.4,
                "tempo": 120.0
            },
            {
                "start_time": 75.8,
                "end_time": 76.1977273,
                "pitch": 88,
                "velocity": 80,
                "duration": 0.3977273,
                "tempo": 120.0
            },
            {
                "start_time": 76.2,
                "end_time": 77.2045455,
                "pitch": 88,
                "velocity": 80,
                "duration": 1.0045455,
                "tempo": 120.0
            },
            {
                "start_time": 77.5931818,
                "end_time": 77.6068182,
                "pitch": 86,
                "velocity": 4,
                "duration": 0.0136364,
                "tempo": 120.0
            },
            {
                "start_time": 77.6090909,
                "end_time": 78.2090909,
                "pitch": 74,
                "velocity": 80,
                "duration": 0.6,
                "tempo": 120.0
            },
            {
                "start_time": 78.2113636,
                "end_time": 78.4113636,
                "pitch": 76,
                "velocity": 80,
                "duration": 0.2,
                "tempo": 120.0
            },
            {
                "start_time": 78.4136364,
                "end_time": 78.6113636,
                "pitch": 77,
                "velocity": 80,
                "duration": 0.1977273,
                "tempo": 120.0
            },
            {
                "start_time": 78.6136364,
                "end_time": 78.8113636,
                "pitch": 75,
                "velocity": 80,
                "duration": 0.1977273,
                "tempo": 120.0
            },
            {
                "start_time": 65.9704545,
                "end_time": 78.8477273,
                "pitch": 67,
                "velocity": 80,
                "duration": 12.8772727,
                "tempo": 120.0
            },
            {
                "start_time": 78.8136364,
                "end_time": 78.8477273,
                "pitch": 76,
                "velocity": 80,
                "duration": 0.0340909,
                "tempo": 120.0
            },
            {
                "start_time": 78.8477273,
                "end_time": 79.0136364,
                "pitch": 79,
                "velocity": 80,
                "duration": 0.1659091,
                "tempo": 120.0
            },
            {
                "start_time": 79.0159091,
                "end_time": 79.4159091,
                "pitch": 77,
                "velocity": 80,
                "duration": 0.4,
                "tempo": 120.0
            },
            {
                "start_time": 79.4181818,
                "end_time": 79.8227273,
                "pitch": 76,
                "velocity": 80,
                "duration": 0.4045455,
                "tempo": 120.0
            },
            {
                "start_time": 79.825,
                "end_time": 80.4295455,
                "pitch": 77,
                "velocity": 80,
                "duration": 0.6045455,
                "tempo": 120.0
            },
            {
                "start_time": 80.4318182,
                "end_time": 80.6272727,
                "pitch": 76,
                "velocity": 80,
                "duration": 0.1954545,
                "tempo": 120.0
            },
            {
                "start_time": 80.6295455,
                "end_time": 81.0272727,
                "pitch": 77,
                "velocity": 80,
                "duration": 0.3977273,
                "tempo": 120.0
            },
            {
                "start_time": 81.0295455,
                "end_time": 81.3522727,
                "pitch": 79,
                "velocity": 80,
                "duration": 0.3227273,
                "tempo": 120.0
            },
            {
                "start_time": 78.8477273,
                "end_time": 81.4022727,
                "pitch": 67,
                "velocity": 80,
                "duration": 2.5545455,
                "tempo": 120.0
            },
            {
                "start_time": 81.3522727,
                "end_time": 81.4022727,
                "pitch": 79,
                "velocity": 80,
                "duration": 0.05,
                "tempo": 120.0
            },
            {
                "start_time": 81.4022727,
                "end_time": 81.4340909,
                "pitch": 79,
                "velocity": 80,
                "duration": 0.0318182,
                "tempo": 120.0
            },
            {
                "start_time": 81.4363636,
                "end_time": 81.4681818,
                "pitch": 81,
                "velocity": 80,
                "duration": 0.0318182,
                "tempo": 120.0
            },
            {
                "start_time": 81.4681818,
                "end_time": 82.0363636,
                "pitch": 83,
                "velocity": 80,
                "duration": 0.5681818,
                "tempo": 120.0
            },
            {
                "start_time": 82.0386364,
                "end_time": 82.2386364,
                "pitch": 84,
                "velocity": 80,
                "duration": 0.2,
                "tempo": 120.0
            },
            {
                "start_time": 82.2409091,
                "end_time": 82.6386364,
                "pitch": 83,
                "velocity": 80,
                "duration": 0.3977273,
                "tempo": 120.0
            },
            {
                "start_time": 82.6409091,
                "end_time": 82.675,
                "pitch": 81,
                "velocity": 80,
                "duration": 0.0340909,
                "tempo": 120.0
            },
            {
                "start_time": 82.675,
                "end_time": 83.0431818,
                "pitch": 77,
                "velocity": 80,
                "duration": 0.3681818,
                "tempo": 120.0
            },
            {
                "start_time": 70.1772727,
                "end_time": 83.0613636,
                "pitch": 68,
                "velocity": 80,
                "duration": 12.8840909,
                "tempo": 120.0
            },
            {
                "start_time": 83.0454545,
                "end_time": 83.0613636,
                "pitch": 78,
                "velocity": 80,
                "duration": 0.0159091,
                "tempo": 120.0
            },
            {
                "start_time": 83.0613636,
                "end_time": 83.0954545,
                "pitch": 80,
                "velocity": 80,
                "duration": 0.0340909,
                "tempo": 120.0
            },
            {
                "start_time": 83.0954545,
                "end_time": 83.6454545,
                "pitch": 83,
                "velocity": 80,
                "duration": 0.55,
                "tempo": 120.0
            },
            {
                "start_time": 83.6477273,
                "end_time": 84.45,
                "pitch": 81,
                "velocity": 80,
                "duration": 0.8022727,
                "tempo": 120.0
            },
            {
                "start_time": 84.6522727,
                "end_time": 84.8522727,
                "pitch": 81,
                "velocity": 80,
                "duration": 0.2,
                "tempo": 120.0
            },
            {
                "start_time": 84.8545455,
                "end_time": 85.0545455,
                "pitch": 83,
                "velocity": 80,
                "duration": 0.2,
                "tempo": 120.0
            },
            {
                "start_time": 85.0545455,
                "end_time": 85.4545455,
                "pitch": 86,
                "velocity": 80,
                "duration": 0.4,
                "tempo": 120.0
            },
            {
                "start_time": 85.4568182,
                "end_time": 85.6568182,
                "pitch": 88,
                "velocity": 80,
                "duration": 0.2,
                "tempo": 120.0
            },
            {
                "start_time": 82.675,
                "end_time": 85.8568182,
                "pitch": 89,
                "velocity": 80,
                "duration": 3.1818182,
                "tempo": 120.0
            },
            {
                "start_time": 85.6568182,
                "end_time": 85.8568182,
                "pitch": 89,
                "velocity": 80,
                "duration": 0.2,
                "tempo": 120.0
            },
            {
                "start_time": 85.8590909,
                "end_time": 86.2590909,
                "pitch": 88,
                "velocity": 80,
                "duration": 0.4,
                "tempo": 120.0
            },
            {
                "start_time": 86.6636364,
                "end_time": 86.6795455,
                "pitch": 90,
                "velocity": 80,
                "duration": 0.0159091,
                "tempo": 120.0
            },
            {
                "start_time": 86.6795455,
                "end_time": 86.7136364,
                "pitch": 92,
                "velocity": 80,
                "duration": 0.0340909,
                "tempo": 120.0
            },
            {
                "start_time": 86.7136364,
                "end_time": 86.7454545,
                "pitch": 96,
                "velocity": 80,
                "duration": 0.0318182,
                "tempo": 120.0
            },
            {
                "start_time": 86.7454545,
                "end_time": 87.0681818,
                "pitch": 98,
                "velocity": 80,
                "duration": 0.3227273,
                "tempo": 120.0
            },
            {
                "start_time": 87.0704545,
                "end_time": 87.2727273,
                "pitch": 100,
                "velocity": 80,
                "duration": 0.2022727,
                "tempo": 120.0
            },
            {
                "start_time": 87.275,
                "end_time": 87.4704545,
                "pitch": 101,
                "velocity": 80,
                "duration": 0.1954545,
                "tempo": 120.0
            },
            {
                "start_time": 87.4727273,
                "end_time": 87.8681818,
                "pitch": 100,
                "velocity": 80,
                "duration": 0.3954545,
                "tempo": 120.0
            },
            {
                "start_time": 87.8704545,
                "end_time": 87.9022727,
                "pitch": 98,
                "velocity": 4,
                "duration": 0.0318182,
                "tempo": 120.0
            },
            {
                "start_time": 87.9022727,
                "end_time": 87.9363636,
                "pitch": 94,
                "velocity": 4,
                "duration": 0.0340909,
                "tempo": 120.0
            },
            {
                "start_time": 87.9363636,
                "end_time": 87.9704545,
                "pitch": 90,
                "velocity": 4,
                "duration": 0.0340909,
                "tempo": 120.0
            },
            {
                "start_time": 87.9704545,
                "end_time": 88.0045455,
                "pitch": 87,
                "velocity": 4,
                "duration": 0.0340909,
                "tempo": 120.0
            },
            {
                "start_time": 88.0045455,
                "end_time": 88.0704545,
                "pitch": 84,
                "velocity": 4,
                "duration": 0.0659091,
                "tempo": 120.0
            },
            {
                "start_time": 88.0704545,
                "end_time": 88.1045455,
                "pitch": 86,
                "velocity": 80,
                "duration": 0.0340909,
                "tempo": 120.0
            },
            {
                "start_time": 88.1045455,
                "end_time": 88.2704545,
                "pitch": 88,
                "velocity": 80,
                "duration": 0.1659091,
                "tempo": 120.0
            },
            {
                "start_time": 86.6795455,
                "end_time": 88.2886364,
                "pitch": 80,
                "velocity": 80,
                "duration": 1.6090909,
                "tempo": 120.0
            },
            {
                "start_time": 88.2727273,
                "end_time": 88.2886364,
                "pitch": 90,
                "velocity": 80,
                "duration": 0.0159091,
                "tempo": 120.0
            },
            {
                "start_time": 88.2886364,
                "end_time": 88.4863636,
                "pitch": 92,
                "velocity": 80,
                "duration": 0.1977273,
                "tempo": 120.0
            },
            {
                "start_time": 101.4,
                "end_time": 101.425,
                "pitch": 69,
                "velocity": 4,
                "duration": 0.025,
                "tempo": 120.0
            },
            {
                "start_time": 101.4272727,
                "end_time": 101.5954545,
                "pitch": 69,
                "velocity": 80,
                "duration": 0.1681818,
                "tempo": 120.0
            },
            {
                "start_time": 81.4022727,
                "end_time": 101.8022727,
                "pitch": 67,
                "velocity": 80,
                "duration": 20.4,
                "tempo": 120.0
            },
            {
                "start_time": 101.5977273,
                "end_time": 101.8022727,
                "pitch": 67,
                "velocity": 80,
                "duration": 0.2045455,
                "tempo": 120.0
            },
            {
                "start_time": 101.8045455,
                "end_time": 102.0068182,
                "pitch": 69,
                "velocity": 80,
                "duration": 0.2022727,
                "tempo": 120.0
            },
            {
                "start_time": 102.0090909,
                "end_time": 102.4159091,
                "pitch": 71,
                "velocity": 80,
                "duration": 0.4068182,
                "tempo": 120.0
            },
            {
                "start_time": 102.4181818,
                "end_time": 102.45,
                "pitch": 70,
                "velocity": 80,
                "duration": 0.0318182,
                "tempo": 120.0
            },
            {
                "start_time": 102.45,
                "end_time": 102.4840909,
                "pitch": 66,
                "velocity": 80,
                "duration": 0.0340909,
                "tempo": 120.0
            },
            {
                "start_time": 102.4840909,
                "end_time": 102.8181818,
                "pitch": 64,
                "velocity": 80,
                "duration": 0.3340909,
                "tempo": 120.0
            },
            {
                "start_time": 40.0363636,
                "end_time": 102.8363636,
                "pitch": 56,
                "velocity": 80,
                "duration": 62.8,
                "tempo": 120.0
            },
            {
                "start_time": 102.8204545,
                "end_time": 102.8363636,
                "pitch": 66,
                "velocity": 80,
                "duration": 0.0159091,
                "tempo": 120.0
            },
            {
                "start_time": 83.0613636,
                "end_time": 102.8704545,
                "pitch": 68,
                "velocity": 80,
                "duration": 19.8090909,
                "tempo": 120.0
            },
            {
                "start_time": 102.8363636,
                "end_time": 102.8704545,
                "pitch": 68,
                "velocity": 80,
                "duration": 0.0340909,
                "tempo": 120.0
            },
            {
                "start_time": 102.8704545,
                "end_time": 102.9045455,
                "pitch": 72,
                "velocity": 80,
                "duration": 0.0340909,
                "tempo": 120.0
            },
            {
                "start_time": 102.9045455,
                "end_time": 103.4204545,
                "pitch": 76,
                "velocity": 80,
                "duration": 0.5159091,
                "tempo": 120.0
            },
            {
                "start_time": 103.4227273,
                "end_time": 103.825,
                "pitch": 74,
                "velocity": 80,
                "duration": 0.4022727,
                "tempo": 120.0
            },
            {
                "start_time": 103.8272727,
                "end_time": 104.025,
                "pitch": 72,
                "velocity": 80,
                "duration": 0.1977273,
                "tempo": 120.0
            },
            {
                "start_time": 104.0272727,
                "end_time": 104.6272727,
                "pitch": 74,
                "velocity": 80,
                "duration": 0.6,
                "tempo": 120.0
            },
            {
                "start_time": 104.6295455,
                "end_time": 105.2318182,
                "pitch": 72,
                "velocity": 80,
                "duration": 0.6022727,
                "tempo": 120.0
            },
            {
                "start_time": 105.2340909,
                "end_time": 105.8340909,
                "pitch": 71,
                "velocity": 80,
                "duration": 0.6,
                "tempo": 120.0
            },
            {
                "start_time": 105.8363636,
                "end_time": 107.8522727,
                "pitch": 69,
                "velocity": 80,
                "duration": 2.0159091,
                "tempo": 120.0
            },
            {
                "start_time": 107.8545455,
                "end_time": 108.0545455,
                "pitch": 71,
                "velocity": 80,
                "duration": 0.2,
                "tempo": 120.0
            },
            {
                "start_time": 108.0568182,
                "end_time": 108.2568182,
                "pitch": 69,
                "velocity": 80,
                "duration": 0.2,
                "tempo": 120.0
            },
            {
                "start_time": 108.2590909,
                "end_time": 108.4590909,
                "pitch": 71,
                "velocity": 80,
                "duration": 0.2,
                "tempo": 120.0
            },
            {
                "start_time": 108.4613636,
                "end_time": 108.8613636,
                "pitch": 73,
                "velocity": 80,
                "duration": 0.4,
                "tempo": 120.0
            },
            {
                "start_time": 108.8636364,
                "end_time": 108.8954545,
                "pitch": 72,
                "velocity": 80,
                "duration": 0.0318182,
                "tempo": 120.0
            },
            {
                "start_time": 108.8954545,
                "end_time": 109.1795455,
                "pitch": 68,
                "velocity": 80,
                "duration": 0.2840909,
                "tempo": 120.0
            },
            {
                "start_time": 46.3840909,
                "end_time": 109.2136364,
                "pitch": 55,
                "velocity": 80,
                "duration": 62.8295455,
                "tempo": 120.0
            },
            {
                "start_time": 109.1795455,
                "end_time": 109.2136364,
                "pitch": 67,
                "velocity": 80,
                "duration": 0.0340909,
                "tempo": 120.0
            },
            {
                "start_time": 109.2136364,
                "end_time": 109.2613636,
                "pitch": 67,
                "velocity": 80,
                "duration": 0.0477273,
                "tempo": 120.0
            },
            {
                "start_time": 109.2636364,
                "end_time": 109.2977273,
                "pitch": 69,
                "velocity": 80,
                "duration": 0.0340909,
                "tempo": 120.0
            },
            {
                "start_time": 109.2977273,
                "end_time": 109.3318182,
                "pitch": 73,
                "velocity": 80,
                "duration": 0.0340909,
                "tempo": 120.0
            },
            {
                "start_time": 109.3318182,
                "end_time": 109.3636364,
                "pitch": 77,
                "velocity": 80,
                "duration": 0.0318182,
                "tempo": 120.0
            },
            {
                "start_time": 109.1795455,
                "end_time": 109.5818182,
                "pitch": 79,
                "velocity": 80,
                "duration": 0.4022727,
                "tempo": 120.0
            },
            {
                "start_time": 109.3636364,
                "end_time": 109.5818182,
                "pitch": 79,
                "velocity": 80,
                "duration": 0.2181818,
                "tempo": 120.0
            },
            {
                "start_time": 81.3522727,
                "end_time": 109.5818182,
                "pitch": 91,
                "velocity": 80,
                "duration": 28.2295455,
                "tempo": 120.0
            },
            {
                "start_time": 109.3636364,
                "end_time": 109.6318182,
                "pitch": 67,
                "velocity": 80,
                "duration": 0.2681818,
                "tempo": 120.0
            },
            {
                "start_time": 109.5818182,
                "end_time": 109.6318182,
                "pitch": 79,
                "velocity": 80,
                "duration": 0.05,
                "tempo": 120.0
            },
            {
                "start_time": 109.6318182,
                "end_time": 109.7659091,
                "pitch": 79,
                "velocity": 80,
                "duration": 0.1340909,
                "tempo": 120.0
            },
            {
                "start_time": 109.5818182,
                "end_time": 109.7659091,
                "pitch": 91,
                "velocity": 80,
                "duration": 0.1840909,
                "tempo": 120.0
            },
            {
                "start_time": 109.6318182,
                "end_time": 109.8318182,
                "pitch": 67,
                "velocity": 80,
                "duration": 0.2,
                "tempo": 120.0
            },
            {
                "start_time": 109.7659091,
                "end_time": 109.8318182,
                "pitch": 79,
                "velocity": 80,
                "duration": 0.0659091,
                "tempo": 120.0
            },
            {
                "start_time": 109.8318182,
                "end_time": 109.8636364,
                "pitch": 79,
                "velocity": 80,
                "duration": 0.0318182,
                "tempo": 120.0
            },
            {
                "start_time": 109.8659091,
                "end_time": 110.2681818,
                "pitch": 77,
                "velocity": 80,
                "duration": 0.4022727,
                "tempo": 120.0
            },
            {
                "start_time": 110.2704545,
                "end_time": 110.4681818,
                "pitch": 76,
                "velocity": 80,
                "duration": 0.1977273,
                "tempo": 120.0
            },
            {
                "start_time": 110.4704545,
                "end_time": 111.0704545,
                "pitch": 77,
                "velocity": 80,
                "duration": 0.6,
                "tempo": 120.0
            },
            {
                "start_time": 111.0727273,
                "end_time": 114.2886364,
                "pitch": 76,
                "velocity": 80,
                "duration": 3.2159091,
                "tempo": 120.0
            },
            {
                "start_time": 114.2909091,
                "end_time": 114.4931818,
                "pitch": 74,
                "velocity": 80,
                "duration": 0.2022727,
                "tempo": 120.0
            },
            {
                "start_time": 114.4954545,
                "end_time": 114.7,
                "pitch": 76,
                "velocity": 80,
                "duration": 0.2045455,
                "tempo": 120.0
            },
            {
                "start_time": 114.7022727,
                "end_time": 114.9022727,
                "pitch": 77,
                "velocity": 80,
                "duration": 0.2,
                "tempo": 120.0
            },
            {
                "start_time": 114.9045455,
                "end_time": 117.5159091,
                "pitch": 75,
                "velocity": 80,
                "duration": 2.6113636,
                "tempo": 120.0
            },
            {
                "start_time": 117.5181818,
                "end_time": 117.7159091,
                "pitch": 72,
                "velocity": 80,
                "duration": 0.1977273,
                "tempo": 120.0
            },
            {
                "start_time": 117.7181818,
                "end_time": 117.9181818,
                "pitch": 74,
                "velocity": 80,
                "duration": 0.2,
                "tempo": 120.0
            },
            {
                "start_time": 117.9204545,
                "end_time": 118.1204545,
                "pitch": 76,
                "velocity": 80,
                "duration": 0.2,
                "tempo": 120.0
            },
            {
                "start_time": 118.1227273,
                "end_time": 118.1545455,
                "pitch": 74,
                "velocity": 80,
                "duration": 0.0318182,
                "tempo": 120.0
            },
            {
                "start_time": 118.1545455,
                "end_time": 120.7318182,
                "pitch": 72,
                "velocity": 80,
                "duration": 2.5772727,
                "tempo": 120.0
            },
            {
                "start_time": 120.7340909,
                "end_time": 122.35,
                "pitch": 70,
                "velocity": 80,
                "duration": 1.6159091,
                "tempo": 120.0
            },
            {
                "start_time": 109.8318182,
                "end_time": 122.3704545,
                "pitch": 67,
                "velocity": 80,
                "duration": 12.5386364,
                "tempo": 120.0
            },
            {
                "start_time": 122.3522727,
                "end_time": 122.3704545,
                "pitch": 67,
                "velocity": 80,
                "duration": 0.0181818,
                "tempo": 120.0
            },
            {
                "start_time": 122.3704545,
                "end_time": 122.5477273,
                "pitch": 65,
                "velocity": 80,
                "duration": 0.1772727,
                "tempo": 120.0
            },
            {
                "start_time": 122.55,
                "end_time": 122.5818182,
                "pitch": 67,
                "velocity": 80,
                "duration": 0.0318182,
                "tempo": 120.0
            },
            {
                "start_time": 122.5818182,
                "end_time": 122.9477273,
                "pitch": 69,
                "velocity": 80,
                "duration": 0.3659091,
                "tempo": 120.0
            },
            {
                "start_time": 122.95,
                "end_time": 123.3568182,
                "pitch": 71,
                "velocity": 80,
                "duration": 0.4068182,
                "tempo": 120.0
            },
            {
                "start_time": 123.3590909,
                "end_time": 123.7590909,
                "pitch": 71,
                "velocity": 80,
                "duration": 0.4,
                "tempo": 120.0
            },
            {
                "start_time": 123.7613636,
                "end_time": 125.3659091,
                "pitch": 73,
                "velocity": 80,
                "duration": 1.6045455,
                "tempo": 120.0
            },
            {
                "start_time": 125.3681818,
                "end_time": 127.175,
                "pitch": 72,
                "velocity": 80,
                "duration": 1.8068182,
                "tempo": 120.0
            },
            {
                "start_time": 127.1795455,
                "end_time": 127.1931818,
                "pitch": 69,
                "velocity": 4,
                "duration": 0.0136364,
                "tempo": 120.0
            },
            {
                "start_time": 127.1954545,
                "end_time": 127.3636364,
                "pitch": 69,
                "velocity": 80,
                "duration": 0.1681818,
                "tempo": 120.0
            },
            {
                "start_time": 127.3659091,
                "end_time": 127.5704545,
                "pitch": 67,
                "velocity": 80,
                "duration": 0.2045455,
                "tempo": 120.0
            },
            {
                "start_time": 127.5704545,
                "end_time": 127.7681818,
                "pitch": 69,
                "velocity": 80,
                "duration": 0.1977273,
                "tempo": 120.0
            },
            {
                "start_time": 127.7704545,
                "end_time": 128.1636364,
                "pitch": 71,
                "velocity": 80,
                "duration": 0.3931818,
                "tempo": 120.0
            },
            {
                "start_time": 128.1659091,
                "end_time": 128.1977273,
                "pitch": 70,
                "velocity": 80,
                "duration": 0.0318182,
                "tempo": 120.0
            },
            {
                "start_time": 102.45,
                "end_time": 128.1977273,
                "pitch": 78,
                "velocity": 80,
                "duration": 25.7477273,
                "tempo": 120.0
            },
            {
                "start_time": 128.1977273,
                "end_time": 128.2318182,
                "pitch": 66,
                "velocity": 80,
                "duration": 0.0340909,
                "tempo": 120.0
            },
            {
                "start_time": 128.2318182,
                "end_time": 128.5659091,
                "pitch": 64,
                "velocity": 80,
                "duration": 0.3340909,
                "tempo": 120.0
            },
            {
                "start_time": 102.8363636,
                "end_time": 128.5840909,
                "pitch": 56,
                "velocity": 80,
                "duration": 25.7477273,
                "tempo": 120.0
            },
            {
                "start_time": 128.5681818,
                "end_time": 128.5840909,
                "pitch": 66,
                "velocity": 80,
                "duration": 0.0159091,
                "tempo": 120.0
            },
            {
                "start_time": 128.5840909,
                "end_time": 128.6159091,
                "pitch": 68,
                "velocity": 80,
                "duration": 0.0318182,
                "tempo": 120.0
            },
            {
                "start_time": 128.6159091,
                "end_time": 128.65,
                "pitch": 72,
                "velocity": 80,
                "duration": 0.0340909,
                "tempo": 120.0
            },
            {
                "start_time": 128.65,
                "end_time": 129.1704545,
                "pitch": 76,
                "velocity": 80,
                "duration": 0.5204545,
                "tempo": 120.0
            },
            {
                "start_time": 129.1727273,
                "end_time": 129.5727273,
                "pitch": 74,
                "velocity": 80,
                "duration": 0.4,
                "tempo": 120.0
            },
            {
                "start_time": 129.575,
                "end_time": 129.7727273,
                "pitch": 72,
                "velocity": 80,
                "duration": 0.1977273,
                "tempo": 120.0
            },
            {
                "start_time": 129.775,
                "end_time": 130.3840909,
                "pitch": 74,
                "velocity": 80,
                "duration": 0.6090909,
                "tempo": 120.0
            },
            {
                "start_time": 130.3863636,
                "end_time": 130.9909091,
                "pitch": 72,
                "velocity": 80,
                "duration": 0.6045455,
                "tempo": 120.0
            },
            {
                "start_time": 130.9931818,
                "end_time": 131.5840909,
                "pitch": 71,
                "velocity": 80,
                "duration": 0.5909091,
                "tempo": 120.0
            },
            {
                "start_time": 131.5863636,
                "end_time": 133.6045455,
                "pitch": 69,
                "velocity": 80,
                "duration": 2.0181818,
                "tempo": 120.0
            },
            {
                "start_time": 133.6068182,
                "end_time": 133.8068182,
                "pitch": 71,
                "velocity": 80,
                "duration": 0.2,
                "tempo": 120.0
            },
            {
                "start_time": 133.8090909,
                "end_time": 134.0090909,
                "pitch": 69,
                "velocity": 80,
                "duration": 0.2,
                "tempo": 120.0
            },
            {
                "start_time": 134.0113636,
                "end_time": 134.2090909,
                "pitch": 71,
                "velocity": 80,
                "duration": 0.1977273,
                "tempo": 120.0
            },
            {
                "start_time": 134.2113636,
                "end_time": 134.6113636,
                "pitch": 73,
                "velocity": 80,
                "duration": 0.4,
                "tempo": 120.0
            },
            {
                "start_time": 134.6136364,
                "end_time": 134.6454545,
                "pitch": 72,
                "velocity": 80,
                "duration": 0.0318182,
                "tempo": 120.0
            },
            {
                "start_time": 134.6454545,
                "end_time": 134.9318182,
                "pitch": 68,
                "velocity": 80,
                "duration": 0.2863636,
                "tempo": 120.0
            },
            {
                "start_time": 109.2136364,
                "end_time": 134.9477273,
                "pitch": 55,
                "velocity": 80,
                "duration": 25.7340909,
                "tempo": 120.0
            },
            {
                "start_time": 134.9318182,
                "end_time": 134.9477273,
                "pitch": 67,
                "velocity": 80,
                "duration": 0.0159091,
                "tempo": 120.0
            },
            {
                "start_time": 134.9477273,
                "end_time": 135.0136364,
                "pitch": 67,
                "velocity": 80,
                "duration": 0.0659091,
                "tempo": 120.0
            },
            {
                "start_time": 135.0159091,
                "end_time": 135.05,
                "pitch": 69,
                "velocity": 80,
                "duration": 0.0340909,
                "tempo": 120.0
            },
            {
                "start_time": 135.05,
                "end_time": 135.0818182,
                "pitch": 73,
                "velocity": 80,
                "duration": 0.0318182,
                "tempo": 120.0
            },
            {
                "start_time": 122.3704545,
                "end_time": 135.1159091,
                "pitch": 77,
                "velocity": 80,
                "duration": 12.7454545,
                "tempo": 120.0
            },
            {
                "start_time": 135.0818182,
                "end_time": 135.1159091,
                "pitch": 77,
                "velocity": 80,
                "duration": 0.0340909,
                "tempo": 120.0
            },
            {
                "start_time": 134.9318182,
                "end_time": 135.3340909,
                "pitch": 79,
                "velocity": 80,
                "duration": 0.4022727,
                "tempo": 120.0
            },
            {
                "start_time": 135.1159091,
                "end_time": 135.3340909,
                "pitch": 79,
                "velocity": 80,
                "duration": 0.2181818,
                "tempo": 120.0
            },
            {
                "start_time": 109.7659091,
                "end_time": 135.3340909,
                "pitch": 91,
                "velocity": 80,
                "duration": 25.5681818,
                "tempo": 120.0
            },
            {
                "start_time": 135.1159091,
                "end_time": 135.3681818,
                "pitch": 67,
                "velocity": 80,
                "duration": 0.2522727,
                "tempo": 120.0
            },
            {
                "start_time": 135.3340909,
                "end_time": 135.3681818,
                "pitch": 79,
                "velocity": 80,
                "duration": 0.0340909,
                "tempo": 120.0
            },
            {
                "start_time": 135.3681818,
                "end_time": 135.5022727,
                "pitch": 79,
                "velocity": 80,
                "duration": 0.1340909,
                "tempo": 120.0
            },
            {
                "start_time": 135.3340909,
                "end_time": 135.5022727,
                "pitch": 91,
                "velocity": 80,
                "duration": 0.1681818,
                "tempo": 120.0
            },
            {
                "start_time": 135.3681818,
                "end_time": 135.5704545,
                "pitch": 67,
                "velocity": 80,
                "duration": 0.2022727,
                "tempo": 120.0
            },
            {
                "start_time": 135.5022727,
                "end_time": 135.5704545,
                "pitch": 79,
                "velocity": 80,
                "duration": 0.0681818,
                "tempo": 120.0
            },
            {
                "start_time": 135.5704545,
                "end_time": 135.6181818,
                "pitch": 79,
                "velocity": 80,
                "duration": 0.0477273,
                "tempo": 120.0
            },
            {
                "start_time": 135.6204545,
                "end_time": 136.0227273,
                "pitch": 77,
                "velocity": 80,
                "duration": 0.4022727,
                "tempo": 120.0
            },
            {
                "start_time": 136.025,
                "end_time": 136.2227273,
                "pitch": 76,
                "velocity": 80,
                "duration": 0.1977273,
                "tempo": 120.0
            },
            {
                "start_time": 136.225,
                "end_time": 136.825,
                "pitch": 77,
                "velocity": 80,
                "duration": 0.6,
                "tempo": 120.0
            },
            {
                "start_time": 136.8272727,
                "end_time": 140.0545455,
                "pitch": 76,
                "velocity": 80,
                "duration": 3.2272727,
                "tempo": 120.0
            },
            {
                "start_time": 140.0568182,
                "end_time": 140.2568182,
                "pitch": 74,
                "velocity": 80,
                "duration": 0.2,
                "tempo": 120.0
            },
            {
                "start_time": 140.2568182,
                "end_time": 140.4568182,
                "pitch": 76,
                "velocity": 80,
                "duration": 0.2,
                "tempo": 120.0
            },
            {
                "start_time": 140.4590909,
                "end_time": 140.6590909,
                "pitch": 77,
                "velocity": 80,
                "duration": 0.2,
                "tempo": 120.0
            },
            {
                "start_time": 140.6613636,
                "end_time": 143.275,
                "pitch": 75,
                "velocity": 80,
                "duration": 2.6136364,
                "tempo": 120.0
            },
            {
                "start_time": 143.2772727,
                "end_time": 143.4772727,
                "pitch": 72,
                "velocity": 80,
                "duration": 0.2,
                "tempo": 120.0
            },
            {
                "start_time": 143.4772727,
                "end_time": 143.6772727,
                "pitch": 74,
                "velocity": 80,
                "duration": 0.2,
                "tempo": 120.0
            },
            {
                "start_time": 143.6795455,
                "end_time": 143.8795455,
                "pitch": 76,
                "velocity": 80,
                "duration": 0.2,
                "tempo": 120.0
            },
            {
                "start_time": 143.8818182,
                "end_time": 143.9136364,
                "pitch": 74,
                "velocity": 80,
                "duration": 0.0318182,
                "tempo": 120.0
            },
            {
                "start_time": 143.9136364,
                "end_time": 146.5022727,
                "pitch": 72,
                "velocity": 80,
                "duration": 2.5886364,
                "tempo": 120.0
            },
            {
                "start_time": 146.5045455,
                "end_time": 147.9113636,
                "pitch": 70,
                "velocity": 80,
                "duration": 1.4068182,
                "tempo": 120.0
            },
            {
                "start_time": 135.5704545,
                "end_time": 147.9295455,
                "pitch": 67,
                "velocity": 80,
                "duration": 12.3590909,
                "tempo": 120.0
            },
            {
                "start_time": 147.9136364,
                "end_time": 147.9295455,
                "pitch": 67,
                "velocity": 80,
                "duration": 0.0159091,
                "tempo": 120.0
            },
            {
                "start_time": 147.9295455,
                "end_time": 148.3136364,
                "pitch": 65,
                "velocity": 80,
                "duration": 0.3840909,
                "tempo": 120.0
            },
            {
                "start_time": 148.3159091,
                "end_time": 148.35,
                "pitch": 67,
                "velocity": 80,
                "duration": 0.0340909,
                "tempo": 120.0
            },
            {
                "start_time": 148.35,
                "end_time": 148.7181818,
                "pitch": 69,
                "velocity": 80,
                "duration": 0.3681818,
                "tempo": 120.0
            },
            {
                "start_time": 148.7204545,
                "end_time": 149.1204545,
                "pitch": 71,
                "velocity": 80,
                "duration": 0.4,
                "tempo": 120.0
            },
            {
                "start_time": 149.1227273,
                "end_time": 149.5227273,
                "pitch": 71,
                "velocity": 80,
                "duration": 0.4,
                "tempo": 120.0
            },
            {
                "start_time": 149.525,
                "end_time": 149.5590909,
                "pitch": 73,
                "velocity": 80,
                "duration": 0.0340909,
                "tempo": 120.0
            },
            {
                "start_time": 147.9295455,
                "end_time": 149.5909091,
                "pitch": 77,
                "velocity": 80,
                "duration": 1.6613636,
                "tempo": 120.0
            },
            {
                "start_time": 149.5590909,
                "end_time": 149.5909091,
                "pitch": 77,
                "velocity": 80,
                "duration": 0.0318182,
                "tempo": 120.0
            },
            {
                "start_time": 149.5909091,
                "end_time": 149.8431818,
                "pitch": 79,
                "velocity": 80,
                "duration": 0.2522727,
                "tempo": 120.0
            },
            {
                "start_time": 135.5022727,
                "end_time": 149.8431818,
                "pitch": 91,
                "velocity": 80,
                "duration": 14.3409091,
                "tempo": 120.0
            },
            {
                "start_time": 149.5909091,
                "end_time": 149.8590909,
                "pitch": 67,
                "velocity": 80,
                "duration": 0.2681818,
                "tempo": 120.0
            },
            {
                "start_time": 149.8431818,
                "end_time": 149.8590909,
                "pitch": 79,
                "velocity": 80,
                "duration": 0.0159091,
                "tempo": 120.0
            },
            {
                "start_time": 149.8590909,
                "end_time": 149.9931818,
                "pitch": 79,
                "velocity": 80,
                "duration": 0.1340909,
                "tempo": 120.0
            },
            {
                "start_time": 149.8431818,
                "end_time": 149.9931818,
                "pitch": 91,
                "velocity": 80,
                "duration": 0.15,
                "tempo": 120.0
            },
            {
                "start_time": 149.8590909,
                "end_time": 150.0613636,
                "pitch": 67,
                "velocity": 80,
                "duration": 0.2022727,
                "tempo": 120.0
            },
            {
                "start_time": 149.9931818,
                "end_time": 150.0613636,
                "pitch": 79,
                "velocity": 80,
                "duration": 0.0681818,
                "tempo": 120.0
            },
            {
                "start_time": 150.0613636,
                "end_time": 150.1954545,
                "pitch": 79,
                "velocity": 80,
                "duration": 0.1340909,
                "tempo": 120.0
            },
            {
                "start_time": 149.9931818,
                "end_time": 150.1954545,
                "pitch": 91,
                "velocity": 80,
                "duration": 0.2022727,
                "tempo": 120.0
            },
            {
                "start_time": 150.1954545,
                "end_time": 150.2613636,
                "pitch": 79,
                "velocity": 80,
                "duration": 0.0659091,
                "tempo": 120.0
            },
            {
                "start_time": 150.0613636,
                "end_time": 150.2636364,
                "pitch": 67,
                "velocity": 80,
                "duration": 0.2022727,
                "tempo": 120.0
            },
            {
                "start_time": 150.2613636,
                "end_time": 150.2636364,
                "pitch": 67,
                "velocity": 80,
                "duration": 0.0022727,
                "tempo": 120.0
            },
            {
                "start_time": 150.2636364,
                "end_time": 150.3977273,
                "pitch": 79,
                "velocity": 80,
                "duration": 0.1340909,
                "tempo": 120.0
            },
            {
                "start_time": 150.1954545,
                "end_time": 150.3977273,
                "pitch": 91,
                "velocity": 80,
                "duration": 0.2022727,
                "tempo": 120.0
            },
            {
                "start_time": 150.3977273,
                "end_time": 150.4636364,
                "pitch": 79,
                "velocity": 80,
                "duration": 0.0659091,
                "tempo": 120.0
            },
            {
                "start_time": 150.4636364,
                "end_time": 150.5977273,
                "pitch": 79,
                "velocity": 80,
                "duration": 0.1340909,
                "tempo": 120.0
            },
            {
                "start_time": 150.3977273,
                "end_time": 150.5977273,
                "pitch": 91,
                "velocity": 80,
                "duration": 0.2,
                "tempo": 120.0
            },
            {
                "start_time": 150.4636364,
                "end_time": 150.6659091,
                "pitch": 67,
                "velocity": 80,
                "duration": 0.2022727,
                "tempo": 120.0
            },
            {
                "start_time": 150.5977273,
                "end_time": 150.6659091,
                "pitch": 79,
                "velocity": 80,
                "duration": 0.0681818,
                "tempo": 120.0
            },
            {
                "start_time": 150.6659091,
                "end_time": 150.8,
                "pitch": 79,
                "velocity": 80,
                "duration": 0.1340909,
                "tempo": 120.0
            },
            {
                "start_time": 150.5977273,
                "end_time": 150.8,
                "pitch": 91,
                "velocity": 80,
                "duration": 0.2022727,
                "tempo": 120.0
            },
            {
                "start_time": 150.6659091,
                "end_time": 150.8681818,
                "pitch": 67,
                "velocity": 80,
                "duration": 0.2022727,
                "tempo": 120.0
            },
            {
                "start_time": 150.8,
                "end_time": 150.8681818,
                "pitch": 79,
                "velocity": 80,
                "duration": 0.0681818,
                "tempo": 120.0
            },
            {
                "start_time": 150.8681818,
                "end_time": 151.0022727,
                "pitch": 79,
                "velocity": 80,
                "duration": 0.1340909,
                "tempo": 120.0
            },
            {
                "start_time": 150.8,
                "end_time": 151.0022727,
                "pitch": 91,
                "velocity": 80,
                "duration": 0.2022727,
                "tempo": 120.0
            },
            {
                "start_time": 150.8681818,
                "end_time": 151.0681818,
                "pitch": 67,
                "velocity": 80,
                "duration": 0.2,
                "tempo": 120.0
            },
            {
                "start_time": 151.0022727,
                "end_time": 151.0681818,
                "pitch": 79,
                "velocity": 80,
                "duration": 0.0659091,
                "tempo": 120.0
            },
            {
                "start_time": 151.0681818,
                "end_time": 151.1340909,
                "pitch": 79,
                "velocity": 80,
                "duration": 0.0659091,
                "tempo": 120.0
            },
            {
                "start_time": 151.1363636,
                "end_time": 152.95,
                "pitch": 77,
                "velocity": 80,
                "duration": 1.8136364,
                "tempo": 120.0
            },
            {
                "start_time": 153.3295455,
                "end_time": 153.3454545,
                "pitch": 74,
                "velocity": 4,
                "duration": 0.0159091,
                "tempo": 120.0
            },
            {
                "start_time": 153.3477273,
                "end_time": 153.9454545,
                "pitch": 74,
                "velocity": 80,
                "duration": 0.5977273,
                "tempo": 120.0
            },
            {
                "start_time": 153.9477273,
                "end_time": 154.1477273,
                "pitch": 76,
                "velocity": 80,
                "duration": 0.2,
                "tempo": 120.0
            },
            {
                "start_time": 154.15,
                "end_time": 154.3522727,
                "pitch": 77,
                "velocity": 80,
                "duration": 0.2022727,
                "tempo": 120.0
            },
            {
                "start_time": 154.3545455,
                "end_time": 154.5590909,
                "pitch": 75,
                "velocity": 80,
                "duration": 0.2045455,
                "tempo": 120.0
            },
            {
                "start_time": 151.0681818,
                "end_time": 154.5954545,
                "pitch": 67,
                "velocity": 80,
                "duration": 3.5272727,
                "tempo": 120.0
            },
            {
                "start_time": 154.5613636,
                "end_time": 154.5954545,
                "pitch": 76,
                "velocity": 80,
                "duration": 0.0340909,
                "tempo": 120.0
            },
            {
                "start_time": 154.5954545,
                "end_time": 154.7613636,
                "pitch": 79,
                "velocity": 80,
                "duration": 0.1659091,
                "tempo": 120.0
            },
            {
                "start_time": 154.7636364,
                "end_time": 155.1636364,
                "pitch": 77,
                "velocity": 80,
                "duration": 0.4,
                "tempo": 120.0
            },
            {
                "start_time": 155.1659091,
                "end_time": 155.5681818,
                "pitch": 76,
                "velocity": 80,
                "duration": 0.4022727,
                "tempo": 120.0
            },
            {
                "start_time": 155.5704545,
                "end_time": 156.1727273,
                "pitch": 77,
                "velocity": 80,
                "duration": 0.6022727,
                "tempo": 120.0
            },
            {
                "start_time": 156.175,
                "end_time": 156.3727273,
                "pitch": 76,
                "velocity": 80,
                "duration": 0.1977273,
                "tempo": 120.0
            },
            {
                "start_time": 156.375,
                "end_time": 156.775,
                "pitch": 77,
                "velocity": 80,
                "duration": 0.4,
                "tempo": 120.0
            },
            {
                "start_time": 156.7772727,
                "end_time": 157.1613636,
                "pitch": 79,
                "velocity": 80,
                "duration": 0.3840909,
                "tempo": 120.0
            },
            {
                "start_time": 151.0022727,
                "end_time": 157.1613636,
                "pitch": 91,
                "velocity": 80,
                "duration": 6.1590909,
                "tempo": 120.0
            },
            {
                "start_time": 157.1613636,
                "end_time": 157.1772727,
                "pitch": 79,
                "velocity": 80,
                "duration": 0.0159091,
                "tempo": 120.0
            },
            {
                "start_time": 157.1795455,
                "end_time": 157.2136364,
                "pitch": 81,
                "velocity": 80,
                "duration": 0.0340909,
                "tempo": 120.0
            },
            {
                "start_time": 157.2136364,
                "end_time": 157.7818182,
                "pitch": 83,
                "velocity": 80,
                "duration": 0.5681818,
                "tempo": 120.0
            },
            {
                "start_time": 157.7840909,
                "end_time": 157.9840909,
                "pitch": 84,
                "velocity": 80,
                "duration": 0.2,
                "tempo": 120.0
            },
            {
                "start_time": 157.9863636,
                "end_time": 158.3863636,
                "pitch": 83,
                "velocity": 80,
                "duration": 0.4,
                "tempo": 120.0
            },
            {
                "start_time": 158.3886364,
                "end_time": 158.4204545,
                "pitch": 81,
                "velocity": 80,
                "duration": 0.0318182,
                "tempo": 120.0
            },
            {
                "start_time": 158.4204545,
                "end_time": 158.7886364,
                "pitch": 77,
                "velocity": 80,
                "duration": 0.3681818,
                "tempo": 120.0
            },
            {
                "start_time": 128.1977273,
                "end_time": 158.8068182,
                "pitch": 78,
                "velocity": 80,
                "duration": 30.6090909,
                "tempo": 120.0
            },
            {
                "start_time": 158.7886364,
                "end_time": 158.8068182,
                "pitch": 78,
                "velocity": 80,
                "duration": 0.0181818,
                "tempo": 120.0
            },
            {
                "start_time": 88.2886364,
                "end_time": 158.8386364,
                "pitch": 80,
                "velocity": 80,
                "duration": 70.55,
                "tempo": 120.0
            },
            {
                "start_time": 158.8068182,
                "end_time": 158.8386364,
                "pitch": 80,
                "velocity": 80,
                "duration": 0.0318182,
                "tempo": 120.0
            },
            {
                "start_time": 158.8386364,
                "end_time": 159.3931818,
                "pitch": 83,
                "velocity": 80,
                "duration": 0.5545455,
                "tempo": 120.0
            },
            {
                "start_time": 159.3954545,
                "end_time": 160.1977273,
                "pitch": 81,
                "velocity": 80,
                "duration": 0.8022727,
                "tempo": 120.0
            },
            {
                "start_time": 160.3977273,
                "end_time": 160.5977273,
                "pitch": 81,
                "velocity": 80,
                "duration": 0.2,
                "tempo": 120.0
            },
            {
                "start_time": 160.6,
                "end_time": 160.7977273,
                "pitch": 83,
                "velocity": 80,
                "duration": 0.1977273,
                "tempo": 120.0
            },
            {
                "start_time": 160.8,
                "end_time": 160.8340909,
                "pitch": 86,
                "velocity": 80,
                "duration": 0.0340909,
                "tempo": 120.0
            },
            {
                "start_time": 158.4204545,
                "end_time": 161.4022727,
                "pitch": 89,
                "velocity": 80,
                "duration": 2.9818182,
                "tempo": 120.0
            },
            {
                "start_time": 160.8340909,
                "end_time": 161.4022727,
                "pitch": 89,
                "velocity": 80,
                "duration": 0.5681818,
                "tempo": 120.0
            },
            {
                "start_time": 161.4045455,
                "end_time": 161.6090909,
                "pitch": 88,
                "velocity": 80,
                "duration": 0.2045455,
                "tempo": 120.0
            },
            {
                "start_time": 161.6113636,
                "end_time": 162.0113636,
                "pitch": 86,
                "velocity": 80,
                "duration": 0.4,
                "tempo": 120.0
            },
            {
                "start_time": 162.0136364,
                "end_time": 162.6181818,
                "pitch": 88,
                "velocity": 80,
                "duration": 0.6045455,
                "tempo": 120.0
            },
            {
                "start_time": 162.6204545,
                "end_time": 162.6545455,
                "pitch": 86,
                "velocity": 80,
                "duration": 0.0340909,
                "tempo": 120.0
            },
            {
                "start_time": 162.6545455,
                "end_time": 163.4227273,
                "pitch": 84,
                "velocity": 80,
                "duration": 0.7681818,
                "tempo": 120.0
            },
            {
                "start_time": 163.425,
                "end_time": 163.6227273,
                "pitch": 83,
                "velocity": 80,
                "duration": 0.1977273,
                "tempo": 120.0
            },
            {
                "start_time": 163.625,
                "end_time": 164.0272727,
                "pitch": 84,
                "velocity": 80,
                "duration": 0.4022727,
                "tempo": 120.0
            },
            {
                "start_time": 164.0295455,
                "end_time": 164.4295455,
                "pitch": 86,
                "velocity": 80,
                "duration": 0.4,
                "tempo": 120.0
            },
            {
                "start_time": 164.4318182,
                "end_time": 164.8340909,
                "pitch": 88,
                "velocity": 80,
                "duration": 0.4022727,
                "tempo": 120.0
            },
            {
                "start_time": 164.8363636,
                "end_time": 165.8386364,
                "pitch": 88,
                "velocity": 80,
                "duration": 1.0022727,
                "tempo": 120.0
            },
            {
                "start_time": 166.2272727,
                "end_time": 166.2409091,
                "pitch": 86,
                "velocity": 4,
                "duration": 0.0136364,
                "tempo": 120.0
            },
            {
                "start_time": 166.2431818,
                "end_time": 166.8477273,
                "pitch": 74,
                "velocity": 80,
                "duration": 0.6045455,
                "tempo": 120.0
            },
            {
                "start_time": 166.8477273,
                "end_time": 167.0477273,
                "pitch": 76,
                "velocity": 80,
                "duration": 0.2,
                "tempo": 120.0
            },
            {
                "start_time": 167.05,
                "end_time": 167.2477273,
                "pitch": 77,
                "velocity": 80,
                "duration": 0.1977273,
                "tempo": 120.0
            },
            {
                "start_time": 167.25,
                "end_time": 167.45,
                "pitch": 75,
                "velocity": 80,
                "duration": 0.2,
                "tempo": 120.0
            },
            {
                "start_time": 154.5954545,
                "end_time": 167.4840909,
                "pitch": 67,
                "velocity": 80,
                "duration": 12.8886364,
                "tempo": 120.0
            },
            {
                "start_time": 167.45,
                "end_time": 167.4840909,
                "pitch": 76,
                "velocity": 80,
                "duration": 0.0340909,
                "tempo": 120.0
            },
            {
                "start_time": 167.4840909,
                "end_time": 167.6545455,
                "pitch": 79,
                "velocity": 80,
                "duration": 0.1704545,
                "tempo": 120.0
            },
            {
                "start_time": 167.6568182,
                "end_time": 168.0568182,
                "pitch": 77,
                "velocity": 80,
                "duration": 0.4,
                "tempo": 120.0
            },
            {
                "start_time": 168.0590909,
                "end_time": 168.4568182,
                "pitch": 76,
                "velocity": 80,
                "duration": 0.3977273,
                "tempo": 120.0
            },
            {
                "start_time": 168.4590909,
                "end_time": 169.0681818,
                "pitch": 77,
                "velocity": 80,
                "duration": 0.6090909,
                "tempo": 120.0
            },
            {
                "start_time": 169.0681818,
                "end_time": 169.2636364,
                "pitch": 76,
                "velocity": 80,
                "duration": 0.1954545,
                "tempo": 120.0
            },
            {
                "start_time": 169.2659091,
                "end_time": 169.6636364,
                "pitch": 77,
                "velocity": 80,
                "duration": 0.3977273,
                "tempo": 120.0
            },
            {
                "start_time": 169.6659091,
                "end_time": 169.9886364,
                "pitch": 79,
                "velocity": 80,
                "duration": 0.3227273,
                "tempo": 120.0
            },
            {
                "start_time": 157.1613636,
                "end_time": 169.9886364,
                "pitch": 91,
                "velocity": 80,
                "duration": 12.8272727,
                "tempo": 120.0
            },
            {
                "start_time": 167.4840909,
                "end_time": 170.0363636,
                "pitch": 67,
                "velocity": 80,
                "duration": 2.5522727,
                "tempo": 120.0
            },
            {
                "start_time": 169.9886364,
                "end_time": 170.0363636,
                "pitch": 79,
                "velocity": 80,
                "duration": 0.0477273,
                "tempo": 120.0
            },
            {
                "start_time": 170.0363636,
                "end_time": 170.0681818,
                "pitch": 79,
                "velocity": 80,
                "duration": 0.0318182,
                "tempo": 120.0
            },
            {
                "start_time": 170.0704545,
                "end_time": 170.1022727,
                "pitch": 81,
                "velocity": 80,
                "duration": 0.0318182,
                "tempo": 120.0
            },
            {
                "start_time": 170.1022727,
                "end_time": 170.675,
                "pitch": 83,
                "velocity": 80,
                "duration": 0.5727273,
                "tempo": 120.0
            },
            {
                "start_time": 170.675,
                "end_time": 170.8772727,
                "pitch": 84,
                "velocity": 80,
                "duration": 0.2022727,
                "tempo": 120.0
            },
            {
                "start_time": 170.8795455,
                "end_time": 171.2795455,
                "pitch": 83,
                "velocity": 80,
                "duration": 0.4,
                "tempo": 120.0
            },
            {
                "start_time": 171.2818182,
                "end_time": 171.3159091,
                "pitch": 81,
                "velocity": 80,
                "duration": 0.0340909,
                "tempo": 120.0
            },
            {
                "start_time": 171.3159091,
                "end_time": 171.6818182,
                "pitch": 77,
                "velocity": 80,
                "duration": 0.3659091,
                "tempo": 120.0
            },
            {
                "start_time": 158.8068182,
                "end_time": 171.7,
                "pitch": 68,
                "velocity": 80,
                "duration": 12.8931818,
                "tempo": 120.0
            },
            {
                "start_time": 171.6840909,
                "end_time": 171.7,
                "pitch": 78,
                "velocity": 80,
                "duration": 0.0159091,
                "tempo": 120.0
            },
            {
                "start_time": 171.7,
                "end_time": 171.7340909,
                "pitch": 80,
                "velocity": 80,
                "duration": 0.0340909,
                "tempo": 120.0
            },
            {
                "start_time": 171.7340909,
                "end_time": 172.2840909,
                "pitch": 83,
                "velocity": 80,
                "duration": 0.55,
                "tempo": 120.0
            },
            {
                "start_time": 172.2863636,
                "end_time": 173.0909091,
                "pitch": 81,
                "velocity": 80,
                "duration": 0.8045455,
                "tempo": 120.0
            },
            {
                "start_time": 173.2954545,
                "end_time": 173.4954545,
                "pitch": 81,
                "velocity": 80,
                "duration": 0.2,
                "tempo": 120.0
            },
            {
                "start_time": 173.4977273,
                "end_time": 173.6954545,
                "pitch": 83,
                "velocity": 80,
                "duration": 0.1977273,
                "tempo": 120.0
            },
            {
                "start_time": 173.6977273,
                "end_time": 174.0977273,
                "pitch": 86,
                "velocity": 80,
                "duration": 0.4,
                "tempo": 120.0
            },
            {
                "start_time": 174.0977273,
                "end_time": 174.2977273,
                "pitch": 88,
                "velocity": 80,
                "duration": 0.2,
                "tempo": 120.0
            },
            {
                "start_time": 171.3159091,
                "end_time": 174.5,
                "pitch": 89,
                "velocity": 80,
                "duration": 3.1840909,
                "tempo": 120.0
            },
            {
                "start_time": 174.3,
                "end_time": 174.5,
                "pitch": 89,
                "velocity": 80,
                "duration": 0.2,
                "tempo": 120.0
            },
            {
                "start_time": 174.5022727,
                "end_time": 174.9022727,
                "pitch": 88,
                "velocity": 80,
                "duration": 0.4,
                "tempo": 120.0
            },
            {
                "start_time": 175.3090909,
                "end_time": 175.325,
                "pitch": 90,
                "velocity": 80,
                "duration": 0.0159091,
                "tempo": 120.0
            },
            {
                "start_time": 175.325,
                "end_time": 175.3590909,
                "pitch": 92,
                "velocity": 80,
                "duration": 0.0340909,
                "tempo": 120.0
            },
            {
                "start_time": 175.3590909,
                "end_time": 175.3909091,
                "pitch": 96,
                "velocity": 80,
                "duration": 0.0318182,
                "tempo": 120.0
            },
            {
                "start_time": 175.3909091,
                "end_time": 175.7090909,
                "pitch": 98,
                "velocity": 80,
                "duration": 0.3181818,
                "tempo": 120.0
            },
            {
                "start_time": 175.7090909,
                "end_time": 175.9090909,
                "pitch": 100,
                "velocity": 80,
                "duration": 0.2,
                "tempo": 120.0
            },
            {
                "start_time": 175.9113636,
                "end_time": 176.1090909,
                "pitch": 101,
                "velocity": 80,
                "duration": 0.1977273,
                "tempo": 120.0
            },
            {
                "start_time": 176.1113636,
                "end_time": 176.5136364,
                "pitch": 100,
                "velocity": 80,
                "duration": 0.4022727,
                "tempo": 120.0
            },
            {
                "start_time": 176.5159091,
                "end_time": 176.5477273,
                "pitch": 98,
                "velocity": 4,
                "duration": 0.0318182,
                "tempo": 120.0
            },
            {
                "start_time": 176.5477273,
                "end_time": 176.5818182,
                "pitch": 94,
                "velocity": 4,
                "duration": 0.0340909,
                "tempo": 120.0
            },
            {
                "start_time": 87.9363636,
                "end_time": 176.5818182,
                "pitch": 102,
                "velocity": 4,
                "duration": 88.6454545,
                "tempo": 120.0
            },
            {
                "start_time": 176.5818182,
                "end_time": 176.6159091,
                "pitch": 90,
                "velocity": 4,
                "duration": 0.0340909,
                "tempo": 120.0
            },
            {
                "start_time": 176.6159091,
                "end_time": 176.65,
                "pitch": 87,
                "velocity": 4,
                "duration": 0.0340909,
                "tempo": 120.0
            },
            {
                "start_time": 176.65,
                "end_time": 176.7136364,
                "pitch": 84,
                "velocity": 4,
                "duration": 0.0636364,
                "tempo": 120.0
            },
            {
                "start_time": 176.7159091,
                "end_time": 176.75,
                "pitch": 86,
                "velocity": 80,
                "duration": 0.0340909,
                "tempo": 120.0
            },
            {
                "start_time": 176.75,
                "end_time": 176.9159091,
                "pitch": 88,
                "velocity": 80,
                "duration": 0.1659091,
                "tempo": 120.0
            },
            {
                "start_time": 175.325,
                "end_time": 176.9340909,
                "pitch": 80,
                "velocity": 80,
                "duration": 1.6090909,
                "tempo": 120.0
            },
            {
                "start_time": 176.9181818,
                "end_time": 176.9340909,
                "pitch": 90,
                "velocity": 80,
                "duration": 0.0159091,
                "tempo": 120.0
            },
            {
                "start_time": 176.9340909,
                "end_time": 177.1340909,
                "pitch": 92,
                "velocity": 80,
                "duration": 0.2,
                "tempo": 120.0
            }
        ]
    }
}