{
    "mood": "angry",
    "instruments": {
        "Electric Piano 1": [
            {
                "start_time": 3.2,
                "end_time": 3.4181818,
                "pitch": 24,
                "velocity": 51,
                "duration": 0.2181818,
                "tempo": 120.0
            },
            {
                "start_time": 4.1909091,
                "end_time": 4.4068182,
                "pitch": 24,
                "velocity": 127,
                "duration": 0.2159091,
                "tempo": 120.0
            },
            {
                "start_time": 6.4272727,
                "end_time": 6.6386364,
                "pitch": 24,
                "velocity": 51,
                "duration": 0.2113636,
                "tempo": 120.0
            },
            {
                "start_time": 7.4295455,
                "end_time": 7.65,
                "pitch": 24,
                "velocity": 127,
                "duration": 0.2204545,
                "tempo": 120.0
            },
            {
                "start_time": 9.6409091,
                "end_time": 9.8568182,
                "pitch": 24,
                "velocity": 51,
                "duration": 0.2159091,
                "tempo": 120.0
            },
            {
                "start_time": 10.6431818,
                "end_time": 10.8568182,
                "pitch": 24,
                "velocity": 127,
                "duration": 0.2136364,
                "tempo": 120.0
            },
            {
                "start_time": 12.8568182,
                "end_time": 13.0727273,
                "pitch": 24,
                "velocity": 51,
                "duration": 0.2159091,
                "tempo": 120.0
            },
            {
                "start_time": 13.8659091,
                "end_time": 14.0795455,
                "pitch": 24,
                "velocity": 127,
                "duration": 0.2136364,
                "tempo": 120.0
            },
            {
                "start_time": 16.0681818,
                "end_time": 16.2818182,
                "pitch": 24,
                "velocity": 51,
                "duration": 0.2136364,
                "tempo": 120.0
            },
            {
                "start_time": 17.0840909,
                "end_time": 17.3,
                "pitch": 24,
                "velocity": 127,
                "duration": 0.2159091,
                "tempo": 120.0
            },
            {
                "start_time": 19.3022727,
                "end_time": 19.5181818,
                "pitch": 24,
                "velocity": 51,
                "duration": 0.2159091,
                "tempo": 120.0
            },
            {
                "start_time": 20.3,
                "end_time": 20.5113636,
                "pitch": 24,
                "velocity": 127,
                "duration": 0.2113636,
                "tempo": 120.0
            },
            {
                "start_time": 22.5295455,
                "end_time": 22.7431818,
                "pitch": 24,
                "velocity": 51,
                "duration": 0.2136364,
                "tempo": 120.0
            },
            {
                "start_time": 23.5340909,
                "end_time": 23.7522727,
                "pitch": 24,
                "velocity": 127,
                "duration": 0.2181818,
                "tempo": 120.0
            },
            {
                "start_time": 25.75,
                "end_time": 25.9636364,
                "pitch": 24,
                "velocity": 51,
                "duration": 0.2136364,
                "tempo": 120.0
            },
            {
                "start_time": 26.7590909,
                "end_time": 26.975,
                "pitch": 24,
                "velocity": 127,
                "duration": 0.2159091,
                "tempo": 120.0
            },
            {
                "start_time": 28.9840909,
                "end_time": 29.2022727,
                "pitch": 24,
                "velocity": 51,
                "duration": 0.2181818,
                "tempo": 120.0
            },
            {
                "start_time": 29.9931818,
                "end_time": 30.2045455,
                "pitch": 24,
                "velocity": 127,
                "duration": 0.2113636,
                "tempo": 120.0
            },
            {
                "start_time": 32.2068182,
                "end_time": 32.4204545,
                "pitch": 24,
                "velocity": 51,
                "duration": 0.2136364,
                "tempo": 120.0
            },
            {
                "start_time": 33.2181818,
                "end_time": 33.4363636,
                "pitch": 24,
                "velocity": 127,
                "duration": 0.2181818,
                "tempo": 120.0
            },
            {
                "start_time": 35.4454545,
                "end_time": 35.6613636,
                "pitch": 24,
                "velocity": 51,
                "duration": 0.2159091,
                "tempo": 120.0
            },
            {
                "start_time": 36.4522727,
                "end_time": 36.6613636,
                "pitch": 24,
                "velocity": 127,
                "duration": 0.2090909,
                "tempo": 120.0
            },
            {
                "start_time": 38.675,
                "end_time": 38.8931818,
                "pitch": 24,
                "velocity": 51,
                "duration": 0.2181818,
                "tempo": 120.0
            },
            {
                "start_time": 39.6795455,
                "end_time": 39.8909091,
                "pitch": 24,
                "velocity": 127,
                "duration": 0.2113636,
                "tempo": 120.0
            },
            {
                "start_time": 41.9022727,
                "end_time": 42.1136364,
                "pitch": 24,
                "velocity": 51,
                "duration": 0.2113636,
                "tempo": 120.0
            },
            {
                "start_time": 42.9045455,
                "end_time": 43.1227273,
                "pitch": 24,
                "velocity": 127,
                "duration": 0.2181818,
                "tempo": 120.0
            },
            {
                "start_time": 45.1386364,
                "end_time": 45.3545455,
                "pitch": 24,
                "velocity": 51,
                "duration": 0.2159091,
                "tempo": 120.0
            },
            {
                "start_time": 46.15,
                "end_time": 46.3636364,
                "pitch": 24,
                "velocity": 127,
                "duration": 0.2136364,
                "tempo": 120.0
            },
            {
                "start_time": 48.3613636,
                "end_time": 48.5772727,
                "pitch": 24,
                "velocity": 51,
                "duration": 0.2159091,
                "tempo": 120.0
            },
            {
                "start_time": 49.3704545,
                "end_time": 49.5909091,
                "pitch": 24,
                "velocity": 127,
                "duration": 0.2204545,
                "tempo": 120.0
            },
            {
                "start_time": 51.6,
                "end_time": 51.8159091,
                "pitch": 24,
                "velocity": 51,
                "duration": 0.2159091,
                "tempo": 120.0
            },
            {
                "start_time": 52.6159091,
                "end_time": 52.8295455,
                "pitch": 24,
                "velocity": 127,
                "duration": 0.2136364,
                "tempo": 120.0
            },
            {
                "start_time": 54.8272727,
                "end_time": 55.0477273,
                "pitch": 24,
                "velocity": 51,
                "duration": 0.2204545,
                "tempo": 120.0
            },
            {
                "start_time": 55.8363636,
                "end_time": 56.05,
                "pitch": 24,
                "velocity": 127,
                "duration": 0.2136364,
                "tempo": 120.0
            },
            {
                "start_time": 58.0613636,
                "end_time": 58.2727273,
                "pitch": 24,
                "velocity": 51,
                "duration": 0.2113636,
                "tempo": 120.0
            },
            {
                "start_time": 59.0522727,
                "end_time": 59.2659091,
                "pitch": 24,
                "velocity": 127,
                "duration": 0.2136364,
                "tempo": 120.0
            },
            {
                "start_time": 61.2863636,
                "end_time": 61.5022727,
                "pitch": 24,
                "velocity": 51,
                "duration": 0.2159091,
                "tempo": 120.0
            },
            {
                "start_time": 62.3022727,
                "end_time": 62.5159091,
                "pitch": 24,
                "velocity": 127,
                "duration": 0.2136364,
                "tempo": 120.0
            },
            {
                "start_time": 64.5113636,
                "end_time": 64.7272727,
                "pitch": 24,
                "velocity": 51,
                "duration": 0.2159091,
                "tempo": 120.0
            },
            {
                "start_time": 65.5181818,
                "end_time": 65.7363636,
                "pitch": 24,
                "velocity": 127,
                "duration": 0.2181818,
                "tempo": 120.0
            },
            {
                "start_time": 67.7409091,
                "end_time": 67.9545455,
                "pitch": 24,
                "velocity": 51,
                "duration": 0.2136364,
                "tempo": 120.0
            },
            {
                "start_time": 68.7409091,
                "end_time": 68.9568182,
                "pitch": 24,
                "velocity": 127,
                "duration": 0.2159091,
                "tempo": 120.0
            },
            {
                "start_time": 70.9613636,
                "end_time": 71.1795455,
                "pitch": 24,
                "velocity": 51,
                "duration": 0.2181818,
                "tempo": 120.0
            },
            {
                "start_time": 71.9704545,
                "end_time": 72.1840909,
                "pitch": 24,
                "velocity": 127,
                "duration": 0.2136364,
                "tempo": 120.0
            },
            {
                "start_time": 74.1840909,
                "end_time": 74.4,
                "pitch": 24,
                "velocity": 51,
                "duration": 0.2159091,
                "tempo": 120.0
            },
            {
                "start_time": 75.1840909,
                "end_time": 75.4,
                "pitch": 24,
                "velocity": 127,
                "duration": 0.2159091,
                "tempo": 120.0
            }
        ],
        "Vibraphone": [
            {
                "start_time": 5.4227273,
                "end_time": 5.4545455,
                "pitch": 88,
                "velocity": 40,
                "duration": 0.0318182,
                "tempo": 120.0
            },
            {
                "start_time": 5.625,
                "end_time": 5.6568182,
                "pitch": 92,
                "velocity": 40,
                "duration": 0.0318182,
                "tempo": 120.0
            },
            {
                "start_time": 5.8272727,
                "end_time": 5.8590909,
                "pitch": 89,
                "velocity": 40,
                "duration": 0.0318182,
                "tempo": 120.0
            },
            {
                "start_time": 6.0295455,
                "end_time": 6.0613636,
                "pitch": 94,
                "velocity": 40,
                "duration": 0.0318182,
                "tempo": 120.0
            },
            {
                "start_time": 6.2272727,
                "end_time": 6.2590909,
                "pitch": 90,
                "velocity": 40,
                "duration": 0.0318182,
                "tempo": 120.0
            },
            {
                "start_time": 6.4272727,
                "end_time": 6.4590909,
                "pitch": 84,
                "velocity": 40,
                "duration": 0.0318182,
                "tempo": 120.0
            },
            {
                "start_time": 6.625,
                "end_time": 6.6568182,
                "pitch": 87,
                "velocity": 40,
                "duration": 0.0318182,
                "tempo": 120.0
            },
            {
                "start_time": 6.825,
                "end_time": 6.8568182,
                "pitch": 93,
                "velocity": 40,
                "duration": 0.0318182,
                "tempo": 120.0
            },
            {
                "start_time": 7.025,
                "end_time": 7.0568182,
                "pitch": 91,
                "velocity": 40,
                "duration": 0.0318182,
                "tempo": 120.0
            },
            {
                "start_time": 7.225,
                "end_time": 7.2590909,
                "pitch": 95,
                "velocity": 40,
                "duration": 0.0340909,
                "tempo": 120.0
            },
            {
                "start_time": 7.4318182,
                "end_time": 7.4613636,
                "pitch": 86,
                "velocity": 40,
                "duration": 0.0295455,
                "tempo": 120.0
            },
            {
                "start_time": 7.6340909,
                "end_time": 7.6659091,
                "pitch": 91,
                "velocity": 40,
                "duration": 0.0318182,
                "tempo": 120.0
            },
            {
                "start_time": 7.8363636,
                "end_time": 7.8704545,
                "pitch": 85,
                "velocity": 40,
                "duration": 0.0340909,
                "tempo": 120.0
            },
            {
                "start_time": 8.0363636,
                "end_time": 8.0681818,
                "pitch": 88,
                "velocity": 40,
                "duration": 0.0318182,
                "tempo": 120.0
            },
            {
                "start_time": 8.2340909,
                "end_time": 8.2659091,
                "pitch": 92,
                "velocity": 40,
                "duration": 0.0318182,
                "tempo": 120.0
            },
            {
                "start_time": 8.4318182,
                "end_time": 8.4659091,
                "pitch": 89,
                "velocity": 40,
                "duration": 0.0340909,
                "tempo": 120.0
            },
            {
                "start_time": 8.6363636,
                "end_time": 8.6704545,
                "pitch": 94,
                "velocity": 40,
                "duration": 0.0340909,
                "tempo": 120.0
            },
            {
                "start_time": 8.8409091,
                "end_time": 8.875,
                "pitch": 90,
                "velocity": 40,
                "duration": 0.0340909,
                "tempo": 120.0
            },
            {
                "start_time": 9.0454545,
                "end_time": 9.0772727,
                "pitch": 84,
                "velocity": 40,
                "duration": 0.0318182,
                "tempo": 120.0
            },
            {
                "start_time": 9.2431818,
                "end_time": 9.275,
                "pitch": 87,
                "velocity": 40,
                "duration": 0.0318182,
                "tempo": 120.0
            },
            {
                "start_time": 9.4409091,
                "end_time": 9.475,
                "pitch": 93,
                "velocity": 40,
                "duration": 0.0340909,
                "tempo": 120.0
            },
            {
                "start_time": 9.6431818,
                "end_time": 9.6727273,
                "pitch": 91,
                "velocity": 40,
                "duration": 0.0295455,
                "tempo": 120.0
            },
            {
                "start_time": 9.8409091,
                "end_time": 9.8727273,
                "pitch": 95,
                "velocity": 40,
                "duration": 0.0318182,
                "tempo": 120.0
            },
            {
                "start_time": 10.0409091,
                "end_time": 10.0727273,
                "pitch": 86,
                "velocity": 40,
                "duration": 0.0318182,
                "tempo": 120.0
            },
            {
                "start_time": 10.2409091,
                "end_time": 10.2727273,
                "pitch": 91,
                "velocity": 40,
                "duration": 0.0318182,
                "tempo": 120.0
            },
            {
                "start_time": 10.4409091,
                "end_time": 10.4727273,
                "pitch": 85,
                "velocity": 40,
                "duration": 0.0318182,
                "tempo": 120.0
            },
            {
                "start_time": 10.6431818,
                "end_time": 10.675,
                "pitch": 88,
                "velocity": 40,
                "duration": 0.0318182,
                "tempo": 120.0
            },
            {
                "start_time": 10.8409091,
                "end_time": 10.875,
                "pitch": 92,
                "velocity": 40,
                "duration": 0.0340909,
                "tempo": 120.0
            },
            {
                "start_time": 11.0454545,
                "end_time": 11.0795455,
                "pitch": 89,
                "velocity": 40,
                "duration": 0.0340909,
                "tempo": 120.0
            },
            {
                "start_time": 11.25,
                "end_time": 11.2840909,
                "pitch": 94,
                "velocity": 40,
                "duration": 0.0340909,
                "tempo": 120.0
            },
            {
                "start_time": 11.4545455,
                "end_time": 11.4863636,
                "pitch": 90,
                "velocity": 40,
                "duration": 0.0318182,
                "tempo": 120.0
            },
            {
                "start_time": 11.6545455,
                "end_time": 11.6863636,
                "pitch": 84,
                "velocity": 40,
                "duration": 0.0318182,
                "tempo": 120.0
            },
            {
                "start_time": 11.8545455,
                "end_time": 11.8886364,
                "pitch": 87,
                "velocity": 40,
                "duration": 0.0340909,
                "tempo": 120.0
            },
            {
                "start_time": 12.0545455,
                "end_time": 12.0886364,
                "pitch": 93,
                "velocity": 40,
                "duration": 0.0340909,
                "tempo": 120.0
            },
            {
                "start_time": 12.2545455,
                "end_time": 12.2886364,
                "pitch": 91,
                "velocity": 40,
                "duration": 0.0340909,
                "tempo": 120.0
            },
            {
                "start_time": 12.4545455,
                "end_time": 12.4886364,
                "pitch": 95,
                "velocity": 40,
                "duration": 0.0340909,
                "tempo": 120.0
            },
            {
                "start_time": 12.6568182,
                "end_time": 12.6886364,
                "pitch": 86,
                "velocity": 40,
                "duration": 0.0318182,
                "tempo": 120.0
            },
            {
                "start_time": 12.8590909,
                "end_time": 12.8886364,
                "pitch": 91,
                "velocity": 40,
                "duration": 0.0295455,
                "tempo": 120.0
            },
            {
                "start_time": 13.0568182,
                "end_time": 13.0886364,
                "pitch": 85,
                "velocity": 40,
                "duration": 0.0318182,
                "tempo": 120.0
            },
            {
                "start_time": 13.2568182,
                "end_time": 13.2909091,
                "pitch": 88,
                "velocity": 40,
                "duration": 0.0340909,
                "tempo": 120.0
            },
            {
                "start_time": 13.4590909,
                "end_time": 13.4931818,
                "pitch": 92,
                "velocity": 40,
                "duration": 0.0340909,
                "tempo": 120.0
            },
            {
                "start_time": 13.6613636,
                "end_time": 13.6954545,
                "pitch": 89,
                "velocity": 40,
                "duration": 0.0340909,
                "tempo": 120.0
            },
            {
                "start_time": 13.8659091,
                "end_time": 13.8954545,
                "pitch": 94,
                "velocity": 40,
                "duration": 0.0295455,
                "tempo": 120.0
            },
            {
                "start_time": 14.0636364,
                "end_time": 14.0977273,
                "pitch": 90,
                "velocity": 40,
                "duration": 0.0340909,
                "tempo": 120.0
            },
            {
                "start_time": 14.2636364,
                "end_time": 14.2977273,
                "pitch": 84,
                "velocity": 40,
                "duration": 0.0340909,
                "tempo": 120.0
            },
            {
                "start_time": 14.4636364,
                "end_time": 14.4977273,
                "pitch": 87,
                "velocity": 40,
                "duration": 0.0340909,
                "tempo": 120.0
            },
            {
                "start_time": 14.6636364,
                "end_time": 14.6977273,
                "pitch": 93,
                "velocity": 40,
                "duration": 0.0340909,
                "tempo": 120.0
            },
            {
                "start_time": 14.8659091,
                "end_time": 14.8977273,
                "pitch": 91,
                "velocity": 40,
                "duration": 0.0318182,
                "tempo": 120.0
            },
            {
                "start_time": 15.0659091,
                "end_time": 15.0977273,
                "pitch": 95,
                "velocity": 40,
                "duration": 0.0318182,
                "tempo": 120.0
            },
            {
                "start_time": 15.2659091,
                "end_time": 15.2977273,
                "pitch": 86,
                "velocity": 40,
                "duration": 0.0318182,
                "tempo": 120.0
            },
            {
                "start_time": 15.4659091,
                "end_time": 15.4977273,
                "pitch": 91,
                "velocity": 40,
                "duration": 0.0318182,
                "tempo": 120.0
            },
            {
                "start_time": 15.6659091,
                "end_time": 15.6977273,
                "pitch": 85,
                "velocity": 40,
                "duration": 0.0318182,
                "tempo": 120.0
            },
            {
                "start_time": 15.8659091,
                "end_time": 15.9,
                "pitch": 88,
                "velocity": 40,
                "duration": 0.0340909,
                "tempo": 120.0
            },
            {
                "start_time": 16.0681818,
                "end_time": 16.1,
                "pitch": 92,
                "velocity": 40,
                "duration": 0.0318182,
                "tempo": 120.0
            },
            {
                "start_time": 16.2681818,
                "end_time": 16.3,
                "pitch": 89,
                "velocity": 40,
                "duration": 0.0318182,
                "tempo": 120.0
            },
            {
                "start_time": 16.4704545,
                "end_time": 16.5045455,
                "pitch": 94,
                "velocity": 40,
                "duration": 0.0340909,
                "tempo": 120.0
            },
            {
                "start_time": 16.675,
                "end_time": 16.7090909,
                "pitch": 90,
                "velocity": 40,
                "duration": 0.0340909,
                "tempo": 120.0
            },
            {
                "start_time": 16.8795455,
                "end_time": 16.9136364,
                "pitch": 84,
                "velocity": 40,
                "duration": 0.0340909,
                "tempo": 120.0
            },
            {
                "start_time": 17.0840909,
                "end_time": 17.1159091,
                "pitch": 87,
                "velocity": 40,
                "duration": 0.0318182,
                "tempo": 120.0
            },
            {
                "start_time": 17.2840909,
                "end_time": 17.3181818,
                "pitch": 93,
                "velocity": 40,
                "duration": 0.0340909,
                "tempo": 120.0
            },
            {
                "start_time": 17.4863636,
                "end_time": 17.5181818,
                "pitch": 91,
                "velocity": 40,
                "duration": 0.0318182,
                "tempo": 120.0
            },
            {
                "start_time": 17.6840909,
                "end_time": 17.7181818,
                "pitch": 95,
                "velocity": 40,
                "duration": 0.0340909,
                "tempo": 120.0
            },
            {
                "start_time": 17.8818182,
                "end_time": 17.9159091,
                "pitch": 86,
                "velocity": 40,
                "duration": 0.0340909,
                "tempo": 120.0
            },
            {
                "start_time": 18.0818182,
                "end_time": 18.1136364,
                "pitch": 91,
                "velocity": 40,
                "duration": 0.0318182,
                "tempo": 120.0
            },
            {
                "start_time": 18.2863636,
                "end_time": 18.3181818,
                "pitch": 85,
                "velocity": 40,
                "duration": 0.0318182,
                "tempo": 120.0
            },
            {
                "start_time": 18.4909091,
                "end_time": 18.5227273,
                "pitch": 88,
                "velocity": 40,
                "duration": 0.0318182,
                "tempo": 120.0
            },
            {
                "start_time": 18.6931818,
                "end_time": 18.7272727,
                "pitch": 92,
                "velocity": 40,
                "duration": 0.0340909,
                "tempo": 120.0
            },
            {
                "start_time": 18.8954545,
                "end_time": 18.9295455,
                "pitch": 89,
                "velocity": 40,
                "duration": 0.0340909,
                "tempo": 120.0
            },
            {
                "start_time": 19.0977273,
                "end_time": 19.1318182,
                "pitch": 94,
                "velocity": 40,
                "duration": 0.0340909,
                "tempo": 120.0
            },
            {
                "start_time": 19.3045455,
                "end_time": 19.3340909,
                "pitch": 90,
                "velocity": 40,
                "duration": 0.0295455,
                "tempo": 120.0
            },
            {
                "start_time": 19.5022727,
                "end_time": 19.5340909,
                "pitch": 84,
                "velocity": 40,
                "duration": 0.0318182,
                "tempo": 120.0
            },
            {
                "start_time": 19.7022727,
                "end_time": 19.7340909,
                "pitch": 87,
                "velocity": 40,
                "duration": 0.0318182,
                "tempo": 120.0
            },
            {
                "start_time": 19.9022727,
                "end_time": 19.9340909,
                "pitch": 93,
                "velocity": 40,
                "duration": 0.0318182,
                "tempo": 120.0
            },
            {
                "start_time": 20.1,
                "end_time": 20.1318182,
                "pitch": 91,
                "velocity": 40,
                "duration": 0.0318182,
                "tempo": 120.0
            },
            {
                "start_time": 20.3,
                "end_time": 20.3318182,
                "pitch": 95,
                "velocity": 40,
                "duration": 0.0318182,
                "tempo": 120.0
            },
            {
                "start_time": 20.4977273,
                "end_time": 20.5295455,
                "pitch": 86,
                "velocity": 40,
                "duration": 0.0318182,
                "tempo": 120.0
            },
            {
                "start_time": 20.6954545,
                "end_time": 20.7272727,
                "pitch": 91,
                "velocity": 40,
                "duration": 0.0318182,
                "tempo": 120.0
            },
            {
                "start_time": 20.8931818,
                "end_time": 20.925,
                "pitch": 85,
                "velocity": 40,
                "duration": 0.0318182,
                "tempo": 120.0
            },
            {
                "start_time": 21.0909091,
                "end_time": 21.125,
                "pitch": 88,
                "velocity": 40,
                "duration": 0.0340909,
                "tempo": 120.0
            },
            {
                "start_time": 21.3,
                "end_time": 21.3340909,
                "pitch": 92,
                "velocity": 40,
                "duration": 0.0340909,
                "tempo": 120.0
            },
            {
                "start_time": 21.5090909,
                "end_time": 21.5431818,
                "pitch": 89,
                "velocity": 40,
                "duration": 0.0340909,
                "tempo": 120.0
            },
            {
                "start_time": 21.7181818,
                "end_time": 21.75,
                "pitch": 94,
                "velocity": 40,
                "duration": 0.0318182,
                "tempo": 120.0
            },
            {
                "start_time": 21.9227273,
                "end_time": 21.9545455,
                "pitch": 90,
                "velocity": 40,
                "duration": 0.0318182,
                "tempo": 120.0
            },
            {
                "start_time": 22.125,
                "end_time": 22.1590909,
                "pitch": 84,
                "velocity": 40,
                "duration": 0.0340909,
                "tempo": 120.0
            },
            {
                "start_time": 22.3295455,
                "end_time": 22.3636364,
                "pitch": 87,
                "velocity": 40,
                "duration": 0.0340909,
                "tempo": 120.0
            },
            {
                "start_time": 22.5318182,
                "end_time": 22.5613636,
                "pitch": 93,
                "velocity": 40,
                "duration": 0.0295455,
                "tempo": 120.0
            },
            {
                "start_time": 22.7272727,
                "end_time": 22.7590909,
                "pitch": 91,
                "velocity": 40,
                "duration": 0.0318182,
                "tempo": 120.0
            },
            {
                "start_time": 22.925,
                "end_time": 22.9590909,
                "pitch": 95,
                "velocity": 40,
                "duration": 0.0340909,
                "tempo": 120.0
            },
            {
                "start_time": 23.1272727,
                "end_time": 23.1613636,
                "pitch": 86,
                "velocity": 40,
                "duration": 0.0340909,
                "tempo": 120.0
            },
            {
                "start_time": 23.3295455,
                "end_time": 23.3636364,
                "pitch": 91,
                "velocity": 40,
                "duration": 0.0340909,
                "tempo": 120.0
            },
            {
                "start_time": 23.5340909,
                "end_time": 23.5659091,
                "pitch": 85,
                "velocity": 40,
                "duration": 0.0318182,
                "tempo": 120.0
            },
            {
                "start_time": 23.7363636,
                "end_time": 23.7704545,
                "pitch": 88,
                "velocity": 40,
                "duration": 0.0340909,
                "tempo": 120.0
            },
            {
                "start_time": 23.9409091,
                "end_time": 23.975,
                "pitch": 92,
                "velocity": 40,
                "duration": 0.0340909,
                "tempo": 120.0
            },
            {
                "start_time": 24.1454545,
                "end_time": 24.1772727,
                "pitch": 89,
                "velocity": 40,
                "duration": 0.0318182,
                "tempo": 120.0
            },
            {
                "start_time": 24.3477273,
                "end_time": 24.3795455,
                "pitch": 94,
                "velocity": 40,
                "duration": 0.0318182,
                "tempo": 120.0
            },
            {
                "start_time": 24.55,
                "end_time": 24.5818182,
                "pitch": 90,
                "velocity": 40,
                "duration": 0.0318182,
                "tempo": 120.0
            },
            {
                "start_time": 24.7522727,
                "end_time": 24.7840909,
                "pitch": 84,
                "velocity": 40,
                "duration": 0.0318182,
                "tempo": 120.0
            },
            {
                "start_time": 24.9522727,
                "end_time": 24.9840909,
                "pitch": 87,
                "velocity": 40,
                "duration": 0.0318182,
                "tempo": 120.0
            },
            {
                "start_time": 25.1522727,
                "end_time": 25.1863636,
                "pitch": 93,
                "velocity": 40,
                "duration": 0.0340909,
                "tempo": 120.0
            },
            {
                "start_time": 25.3522727,
                "end_time": 25.3840909,
                "pitch": 91,
                "velocity": 40,
                "duration": 0.0318182,
                "tempo": 120.0
            },
            {
                "start_time": 25.55,
                "end_time": 25.5840909,
                "pitch": 95,
                "velocity": 40,
                "duration": 0.0340909,
                "tempo": 120.0
            },
            {
                "start_time": 25.7522727,
                "end_time": 25.7818182,
                "pitch": 86,
                "velocity": 40,
                "duration": 0.0295455,
                "tempo": 120.0
            },
            {
                "start_time": 25.9477273,
                "end_time": 25.9818182,
                "pitch": 91,
                "velocity": 40,
                "duration": 0.0340909,
                "tempo": 120.0
            },
            {
                "start_time": 26.15,
                "end_time": 26.1840909,
                "pitch": 85,
                "velocity": 40,
                "duration": 0.0340909,
                "tempo": 120.0
            },
            {
                "start_time": 26.3522727,
                "end_time": 26.3863636,
                "pitch": 88,
                "velocity": 40,
                "duration": 0.0340909,
                "tempo": 120.0
            },
            {
                "start_time": 26.5545455,
                "end_time": 26.5886364,
                "pitch": 92,
                "velocity": 40,
                "duration": 0.0340909,
                "tempo": 120.0
            },
            {
                "start_time": 26.7590909,
                "end_time": 26.7909091,
                "pitch": 89,
                "velocity": 40,
                "duration": 0.0318182,
                "tempo": 120.0
            },
            {
                "start_time": 26.9590909,
                "end_time": 26.9931818,
                "pitch": 94,
                "velocity": 40,
                "duration": 0.0340909,
                "tempo": 120.0
            },
            {
                "start_time": 27.1613636,
                "end_time": 27.1954545,
                "pitch": 90,
                "velocity": 40,
                "duration": 0.0340909,
                "tempo": 120.0
            },
            {
                "start_time": 27.3659091,
                "end_time": 27.4,
                "pitch": 84,
                "velocity": 40,
                "duration": 0.0340909,
                "tempo": 120.0
            },
            {
                "start_time": 27.5704545,
                "end_time": 27.6045455,
                "pitch": 87,
                "velocity": 40,
                "duration": 0.0340909,
                "tempo": 120.0
            },
            {
                "start_time": 27.775,
                "end_time": 27.8068182,
                "pitch": 93,
                "velocity": 40,
                "duration": 0.0318182,
                "tempo": 120.0
            },
            {
                "start_time": 27.975,
                "end_time": 28.0068182,
                "pitch": 91,
                "velocity": 40,
                "duration": 0.0318182,
                "tempo": 120.0
            },
            {
                "start_time": 28.175,
                "end_time": 28.2068182,
                "pitch": 95,
                "velocity": 40,
                "duration": 0.0318182,
                "tempo": 120.0
            },
            {
                "start_time": 28.375,
                "end_time": 28.4090909,
                "pitch": 86,
                "velocity": 40,
                "duration": 0.0340909,
                "tempo": 120.0
            },
            {
                "start_time": 28.5772727,
                "end_time": 28.6113636,
                "pitch": 91,
                "velocity": 40,
                "duration": 0.0340909,
                "tempo": 120.0
            },
            {
                "start_time": 28.7795455,
                "end_time": 28.8136364,
                "pitch": 85,
                "velocity": 40,
                "duration": 0.0340909,
                "tempo": 120.0
            },
            {
                "start_time": 28.9840909,
                "end_time": 29.0159091,
                "pitch": 88,
                "velocity": 40,
                "duration": 0.0318182,
                "tempo": 120.0
            },
            {
                "start_time": 29.1863636,
                "end_time": 29.2204545,
                "pitch": 92,
                "velocity": 40,
                "duration": 0.0340909,
                "tempo": 120.0
            },
            {
                "start_time": 29.3909091,
                "end_time": 29.425,
                "pitch": 89,
                "velocity": 40,
                "duration": 0.0340909,
                "tempo": 120.0
            },
            {
                "start_time": 29.5954545,
                "end_time": 29.6272727,
                "pitch": 94,
                "velocity": 40,
                "duration": 0.0318182,
                "tempo": 120.0
            },
            {
                "start_time": 29.7931818,
                "end_time": 29.825,
                "pitch": 90,
                "velocity": 40,
                "duration": 0.0318182,
                "tempo": 120.0
            },
            {
                "start_time": 29.9931818,
                "end_time": 30.025,
                "pitch": 84,
                "velocity": 40,
                "duration": 0.0318182,
                "tempo": 120.0
            },
            {
                "start_time": 30.1909091,
                "end_time": 30.2227273,
                "pitch": 87,
                "velocity": 40,
                "duration": 0.0318182,
                "tempo": 120.0
            },
            {
                "start_time": 30.3931818,
                "end_time": 30.4272727,
                "pitch": 93,
                "velocity": 40,
                "duration": 0.0340909,
                "tempo": 120.0
            },
            {
                "start_time": 30.5977273,
                "end_time": 30.6318182,
                "pitch": 91,
                "velocity": 40,
                "duration": 0.0340909,
                "tempo": 120.0
            },
            {
                "start_time": 30.8022727,
                "end_time": 30.8340909,
                "pitch": 95,
                "velocity": 40,
                "duration": 0.0318182,
                "tempo": 120.0
            },
            {
                "start_time": 31.0,
                "end_time": 31.0340909,
                "pitch": 86,
                "velocity": 40,
                "duration": 0.0340909,
                "tempo": 120.0
            },
            {
                "start_time": 31.2,
                "end_time": 31.2318182,
                "pitch": 91,
                "velocity": 40,
                "duration": 0.0318182,
                "tempo": 120.0
            },
            {
                "start_time": 31.3977273,
                "end_time": 31.4295455,
                "pitch": 85,
                "velocity": 40,
                "duration": 0.0318182,
                "tempo": 120.0
            },
            {
                "start_time": 31.6,
                "end_time": 31.6318182,
                "pitch": 88,
                "velocity": 40,
                "duration": 0.0318182,
                "tempo": 120.0
            },
            {
                "start_time": 31.8022727,
                "end_time": 31.8340909,
                "pitch": 92,
                "velocity": 40,
                "duration": 0.0318182,
                "tempo": 120.0
            },
            {
                "start_time": 32.0045455,
                "end_time": 32.0363636,
                "pitch": 89,
                "velocity": 40,
                "duration": 0.0318182,
                "tempo": 120.0
            },
            {
                "start_time": 32.2068182,
                "end_time": 32.2363636,
                "pitch": 94,
                "velocity": 40,
                "duration": 0.0295455,
                "tempo": 120.0
            },
            {
                "start_time": 32.4045455,
                "end_time": 32.4363636,
                "pitch": 90,
                "velocity": 40,
                "duration": 0.0318182,
                "tempo": 120.0
            },
            {
                "start_time": 32.6045455,
                "end_time": 32.6386364,
                "pitch": 84,
                "velocity": 40,
                "duration": 0.0340909,
                "tempo": 120.0
            },
            {
                "start_time": 32.8090909,
                "end_time": 32.8431818,
                "pitch": 87,
                "velocity": 40,
                "duration": 0.0340909,
                "tempo": 120.0
            },
            {
                "start_time": 33.0136364,
                "end_time": 33.0477273,
                "pitch": 93,
                "velocity": 40,
                "duration": 0.0340909,
                "tempo": 120.0
            },
            {
                "start_time": 33.2204545,
                "end_time": 33.25,
                "pitch": 91,
                "velocity": 40,
                "duration": 0.0295455,
                "tempo": 120.0
            },
            {
                "start_time": 33.4204545,
                "end_time": 33.4522727,
                "pitch": 95,
                "velocity": 40,
                "duration": 0.0318182,
                "tempo": 120.0
            },
            {
                "start_time": 33.6227273,
                "end_time": 33.6545455,
                "pitch": 86,
                "velocity": 40,
                "duration": 0.0318182,
                "tempo": 120.0
            },
            {
                "start_time": 33.825,
                "end_time": 33.8568182,
                "pitch": 91,
                "velocity": 40,
                "duration": 0.0318182,
                "tempo": 120.0
            },
            {
                "start_time": 34.0272727,
                "end_time": 34.0590909,
                "pitch": 85,
                "velocity": 40,
                "duration": 0.0318182,
                "tempo": 120.0
            },
            {
                "start_time": 34.2295455,
                "end_time": 34.2613636,
                "pitch": 88,
                "velocity": 40,
                "duration": 0.0318182,
                "tempo": 120.0
            },
            {
                "start_time": 34.4318182,
                "end_time": 34.4636364,
                "pitch": 92,
                "velocity": 40,
                "duration": 0.0318182,
                "tempo": 120.0
            },
            {
                "start_time": 34.6340909,
                "end_time": 34.6659091,
                "pitch": 89,
                "velocity": 40,
                "duration": 0.0318182,
                "tempo": 120.0
            },
            {
                "start_time": 34.8363636,
                "end_time": 34.8681818,
                "pitch": 94,
                "velocity": 40,
                "duration": 0.0318182,
                "tempo": 120.0
            },
            {
                "start_time": 35.0386364,
                "end_time": 35.0704545,
                "pitch": 90,
                "velocity": 40,
                "duration": 0.0318182,
                "tempo": 120.0
            },
            {
                "start_time": 35.2409091,
                "end_time": 35.2727273,
                "pitch": 84,
                "velocity": 40,
                "duration": 0.0318182,
                "tempo": 120.0
            },
            {
                "start_time": 35.4454545,
                "end_time": 35.475,
                "pitch": 87,
                "velocity": 40,
                "duration": 0.0295455,
                "tempo": 120.0
            },
            {
                "start_time": 35.6454545,
                "end_time": 35.6795455,
                "pitch": 93,
                "velocity": 40,
                "duration": 0.0340909,
                "tempo": 120.0
            },
            {
                "start_time": 35.85,
                "end_time": 35.8818182,
                "pitch": 91,
                "velocity": 40,
                "duration": 0.0318182,
                "tempo": 120.0
            },
            {
                "start_time": 36.0545455,
                "end_time": 36.0863636,
                "pitch": 95,
                "velocity": 40,
                "duration": 0.0318182,
                "tempo": 120.0
            },
            {
                "start_time": 36.2568182,
                "end_time": 36.2886364,
                "pitch": 86,
                "velocity": 40,
                "duration": 0.0318182,
                "tempo": 120.0
            },
            {
                "start_time": 36.4545455,
                "end_time": 36.4840909,
                "pitch": 91,
                "velocity": 40,
                "duration": 0.0295455,
                "tempo": 120.0
            },
            {
                "start_time": 36.6477273,
                "end_time": 36.6772727,
                "pitch": 85,
                "velocity": 40,
                "duration": 0.0295455,
                "tempo": 120.0
            },
            {
                "start_time": 36.8409091,
                "end_time": 36.875,
                "pitch": 88,
                "velocity": 40,
                "duration": 0.0340909,
                "tempo": 120.0
            },
            {
                "start_time": 37.0431818,
                "end_time": 37.0772727,
                "pitch": 92,
                "velocity": 40,
                "duration": 0.0340909,
                "tempo": 120.0
            },
            {
                "start_time": 37.2454545,
                "end_time": 37.2795455,
                "pitch": 89,
                "velocity": 40,
                "duration": 0.0340909,
                "tempo": 120.0
            },
            {
                "start_time": 37.4477273,
                "end_time": 37.4818182,
                "pitch": 94,
                "velocity": 40,
                "duration": 0.0340909,
                "tempo": 120.0
            },
            {
                "start_time": 37.6522727,
                "end_time": 37.6863636,
                "pitch": 90,
                "velocity": 40,
                "duration": 0.0340909,
                "tempo": 120.0
            },
            {
                "start_time": 37.8568182,
                "end_time": 37.8909091,
                "pitch": 84,
                "velocity": 40,
                "duration": 0.0340909,
                "tempo": 120.0
            },
            {
                "start_time": 38.0613636,
                "end_time": 38.0954545,
                "pitch": 87,
                "velocity": 40,
                "duration": 0.0340909,
                "tempo": 120.0
            },
            {
                "start_time": 38.2659091,
                "end_time": 38.3,
                "pitch": 93,
                "velocity": 40,
                "duration": 0.0340909,
                "tempo": 120.0
            },
            {
                "start_time": 38.4704545,
                "end_time": 38.5022727,
                "pitch": 91,
                "velocity": 40,
                "duration": 0.0318182,
                "tempo": 120.0
            },
            {
                "start_time": 38.6772727,
                "end_time": 38.7068182,
                "pitch": 95,
                "velocity": 40,
                "duration": 0.0295455,
                "tempo": 120.0
            },
            {
                "start_time": 38.8772727,
                "end_time": 38.9090909,
                "pitch": 86,
                "velocity": 40,
                "duration": 0.0318182,
                "tempo": 120.0
            },
            {
                "start_time": 39.0795455,
                "end_time": 39.1113636,
                "pitch": 91,
                "velocity": 40,
                "duration": 0.0318182,
                "tempo": 120.0
            },
            {
                "start_time": 39.2818182,
                "end_time": 39.3136364,
                "pitch": 85,
                "velocity": 40,
                "duration": 0.0318182,
                "tempo": 120.0
            },
            {
                "start_time": 39.4795455,
                "end_time": 39.5113636,
                "pitch": 88,
                "velocity": 40,
                "duration": 0.0318182,
                "tempo": 120.0
            },
            {
                "start_time": 39.6795455,
                "end_time": 39.7090909,
                "pitch": 92,
                "velocity": 40,
                "duration": 0.0295455,
                "tempo": 120.0
            },
            {
                "start_time": 39.8772727,
                "end_time": 39.9090909,
                "pitch": 89,
                "velocity": 40,
                "duration": 0.0318182,
                "tempo": 120.0
            },
            {
                "start_time": 40.0795455,
                "end_time": 40.1136364,
                "pitch": 94,
                "velocity": 40,
                "duration": 0.0340909,
                "tempo": 120.0
            },
            {
                "start_time": 40.2840909,
                "end_time": 40.3181818,
                "pitch": 90,
                "velocity": 40,
                "duration": 0.0340909,
                "tempo": 120.0
            },
            {
                "start_time": 40.4886364,
                "end_time": 40.5227273,
                "pitch": 84,
                "velocity": 40,
                "duration": 0.0340909,
                "tempo": 120.0
            },
            {
                "start_time": 40.6909091,
                "end_time": 40.725,
                "pitch": 87,
                "velocity": 40,
                "duration": 0.0340909,
                "tempo": 120.0
            },
            {
                "start_time": 40.8931818,
                "end_time": 40.9272727,
                "pitch": 93,
                "velocity": 40,
                "duration": 0.0340909,
                "tempo": 120.0
            },
            {
                "start_time": 41.0954545,
                "end_time": 41.1295455,
                "pitch": 91,
                "velocity": 40,
                "duration": 0.0340909,
                "tempo": 120.0
            },
            {
                "start_time": 41.2977273,
                "end_time": 41.3318182,
                "pitch": 95,
                "velocity": 40,
                "duration": 0.0340909,
                "tempo": 120.0
            },
            {
                "start_time": 41.5,
                "end_time": 41.5340909,
                "pitch": 86,
                "velocity": 40,
                "duration": 0.0340909,
                "tempo": 120.0
            },
            {
                "start_time": 41.7022727,
                "end_time": 41.7340909,
                "pitch": 91,
                "velocity": 40,
                "duration": 0.0318182,
                "tempo": 120.0
            },
            {
                "start_time": 41.9022727,
                "end_time": 41.9340909,
                "pitch": 85,
                "velocity": 40,
                "duration": 0.0318182,
                "tempo": 120.0
            },
            {
                "start_time": 42.1,
                "end_time": 42.1318182,
                "pitch": 88,
                "velocity": 40,
                "duration": 0.0318182,
                "tempo": 120.0
            },
            {
                "start_time": 42.2977273,
                "end_time": 42.3295455,
                "pitch": 92,
                "velocity": 40,
                "duration": 0.0318182,
                "tempo": 120.0
            },
            {
                "start_time": 42.5,
                "end_time": 42.5318182,
                "pitch": 89,
                "velocity": 40,
                "duration": 0.0318182,
                "tempo": 120.0
            },
            {
                "start_time": 42.7022727,
                "end_time": 42.7340909,
                "pitch": 94,
                "velocity": 40,
                "duration": 0.0318182,
                "tempo": 120.0
            },
            {
                "start_time": 42.9068182,
                "end_time": 42.9363636,
                "pitch": 90,
                "velocity": 40,
                "duration": 0.0295455,
                "tempo": 120.0
            },
            {
                "start_time": 43.1068182,
                "end_time": 43.1386364,
                "pitch": 84,
                "velocity": 40,
                "duration": 0.0318182,
                "tempo": 120.0
            },
            {
                "start_time": 43.3090909,
                "end_time": 43.3409091,
                "pitch": 87,
                "velocity": 40,
                "duration": 0.0318182,
                "tempo": 120.0
            },
            {
                "start_time": 43.5113636,
                "end_time": 43.5454545,
                "pitch": 93,
                "velocity": 40,
                "duration": 0.0340909,
                "tempo": 120.0
            },
            {
                "start_time": 43.7204545,
                "end_time": 43.7545455,
                "pitch": 91,
                "velocity": 40,
                "duration": 0.0340909,
                "tempo": 120.0
            },
            {
                "start_time": 43.9272727,
                "end_time": 43.9613636,
                "pitch": 95,
                "velocity": 40,
                "duration": 0.0340909,
                "tempo": 120.0
            },
            {
                "start_time": 44.1363636,
                "end_time": 44.1681818,
                "pitch": 86,
                "velocity": 40,
                "duration": 0.0318182,
                "tempo": 120.0
            },
            {
                "start_time": 44.3340909,
                "end_time": 44.3681818,
                "pitch": 91,
                "velocity": 40,
                "duration": 0.0340909,
                "tempo": 120.0
            },
            {
                "start_time": 44.5340909,
                "end_time": 44.5659091,
                "pitch": 85,
                "velocity": 40,
                "duration": 0.0318182,
                "tempo": 120.0
            },
            {
                "start_time": 44.7318182,
                "end_time": 44.7636364,
                "pitch": 88,
                "velocity": 40,
                "duration": 0.0318182,
                "tempo": 120.0
            },
            {
                "start_time": 44.9340909,
                "end_time": 44.9659091,
                "pitch": 92,
                "velocity": 40,
                "duration": 0.0318182,
                "tempo": 120.0
            },
            {
                "start_time": 45.1386364,
                "end_time": 45.1681818,
                "pitch": 89,
                "velocity": 40,
                "duration": 0.0295455,
                "tempo": 120.0
            },
            {
                "start_time": 45.3386364,
                "end_time": 45.3727273,
                "pitch": 94,
                "velocity": 40,
                "duration": 0.0340909,
                "tempo": 120.0
            },
            {
                "start_time": 45.5431818,
                "end_time": 45.575,
                "pitch": 90,
                "velocity": 40,
                "duration": 0.0318182,
                "tempo": 120.0
            },
            {
                "start_time": 45.7477273,
                "end_time": 45.7795455,
                "pitch": 84,
                "velocity": 40,
                "duration": 0.0318182,
                "tempo": 120.0
            },
            {
                "start_time": 45.95,
                "end_time": 45.9840909,
                "pitch": 87,
                "velocity": 40,
                "duration": 0.0340909,
                "tempo": 120.0
            },
            {
                "start_time": 46.1522727,
                "end_time": 46.1818182,
                "pitch": 93,
                "velocity": 40,
                "duration": 0.0295455,
                "tempo": 120.0
            },
            {
                "start_time": 46.3477273,
                "end_time": 46.3795455,
                "pitch": 91,
                "velocity": 40,
                "duration": 0.0318182,
                "tempo": 120.0
            },
            {
                "start_time": 46.5454545,
                "end_time": 46.5795455,
                "pitch": 95,
                "velocity": 40,
                "duration": 0.0340909,
                "tempo": 120.0
            },
            {
                "start_time": 46.7545455,
                "end_time": 46.7886364,
                "pitch": 86,
                "velocity": 40,
                "duration": 0.0340909,
                "tempo": 120.0
            },
            {
                "start_time": 46.9613636,
                "end_time": 46.9954545,
                "pitch": 91,
                "velocity": 40,
                "duration": 0.0340909,
                "tempo": 120.0
            },
            {
                "start_time": 47.1704545,
                "end_time": 47.2022727,
                "pitch": 85,
                "velocity": 40,
                "duration": 0.0318182,
                "tempo": 120.0
            },
            {
                "start_time": 47.3659091,
                "end_time": 47.3977273,
                "pitch": 88,
                "velocity": 40,
                "duration": 0.0318182,
                "tempo": 120.0
            },
            {
                "start_time": 47.5590909,
                "end_time": 47.5909091,
                "pitch": 92,
                "velocity": 40,
                "duration": 0.0318182,
                "tempo": 120.0
            },
            {
                "start_time": 47.7545455,
                "end_time": 47.7863636,
                "pitch": 89,
                "velocity": 40,
                "duration": 0.0318182,
                "tempo": 120.0
            },
            {
                "start_time": 47.9568182,
                "end_time": 47.9886364,
                "pitch": 94,
                "velocity": 40,
                "duration": 0.0318182,
                "tempo": 120.0
            },
            {
                "start_time": 48.1590909,
                "end_time": 48.1909091,
                "pitch": 90,
                "velocity": 40,
                "duration": 0.0318182,
                "tempo": 120.0
            },
            {
                "start_time": 48.3636364,
                "end_time": 48.3931818,
                "pitch": 84,
                "velocity": 40,
                "duration": 0.0295455,
                "tempo": 120.0
            },
            {
                "start_time": 48.5613636,
                "end_time": 48.5931818,
                "pitch": 87,
                "velocity": 40,
                "duration": 0.0318182,
                "tempo": 120.0
            },
            {
                "start_time": 48.7613636,
                "end_time": 48.7931818,
                "pitch": 93,
                "velocity": 40,
                "duration": 0.0318182,
                "tempo": 120.0
            },
            {
                "start_time": 48.9613636,
                "end_time": 48.9954545,
                "pitch": 91,
                "velocity": 40,
                "duration": 0.0340909,
                "tempo": 120.0
            },
            {
                "start_time": 49.1659091,
                "end_time": 49.2,
                "pitch": 95,
                "velocity": 40,
                "duration": 0.0340909,
                "tempo": 120.0
            },
            {
                "start_time": 49.3727273,
                "end_time": 49.4045455,
                "pitch": 86,
                "velocity": 40,
                "duration": 0.0318182,
                "tempo": 120.0
            },
            {
                "start_time": 49.575,
                "end_time": 49.6068182,
                "pitch": 91,
                "velocity": 40,
                "duration": 0.0318182,
                "tempo": 120.0
            },
            {
                "start_time": 49.7772727,
                "end_time": 49.8090909,
                "pitch": 85,
                "velocity": 40,
                "duration": 0.0318182,
                "tempo": 120.0
            },
            {
                "start_time": 49.9795455,
                "end_time": 50.0113636,
                "pitch": 88,
                "velocity": 40,
                "duration": 0.0318182,
                "tempo": 120.0
            },
            {
                "start_time": 50.1818182,
                "end_time": 50.2136364,
                "pitch": 92,
                "velocity": 40,
                "duration": 0.0318182,
                "tempo": 120.0
            },
            {
                "start_time": 50.3840909,
                "end_time": 50.4159091,
                "pitch": 89,
                "velocity": 40,
                "duration": 0.0318182,
                "tempo": 120.0
            },
            {
                "start_time": 50.5863636,
                "end_time": 50.6181818,
                "pitch": 94,
                "velocity": 40,
                "duration": 0.0318182,
                "tempo": 120.0
            },
            {
                "start_time": 50.7886364,
                "end_time": 50.8204545,
                "pitch": 90,
                "velocity": 40,
                "duration": 0.0318182,
                "tempo": 120.0
            },
            {
                "start_time": 50.9909091,
                "end_time": 51.0227273,
                "pitch": 84,
                "velocity": 40,
                "duration": 0.0318182,
                "tempo": 120.0
            },
            {
                "start_time": 51.1931818,
                "end_time": 51.225,
                "pitch": 87,
                "velocity": 40,
                "duration": 0.0318182,
                "tempo": 120.0
            },
            {
                "start_time": 51.3954545,
                "end_time": 51.4272727,
                "pitch": 93,
                "velocity": 40,
                "duration": 0.0318182,
                "tempo": 120.0
            },
            {
                "start_time": 51.6,
                "end_time": 51.6295455,
                "pitch": 91,
                "velocity": 40,
                "duration": 0.0295455,
                "tempo": 120.0
            },
            {
                "start_time": 51.8,
                "end_time": 51.8318182,
                "pitch": 95,
                "velocity": 40,
                "duration": 0.0318182,
                "tempo": 120.0
            },
            {
                "start_time": 52.0022727,
                "end_time": 52.0363636,
                "pitch": 86,
                "velocity": 40,
                "duration": 0.0340909,
                "tempo": 120.0
            },
            {
                "start_time": 52.2068182,
                "end_time": 52.2386364,
                "pitch": 91,
                "velocity": 40,
                "duration": 0.0318182,
                "tempo": 120.0
            },
            {
                "start_time": 52.4113636,
                "end_time": 52.4431818,
                "pitch": 85,
                "velocity": 40,
                "duration": 0.0318182,
                "tempo": 120.0
            },
            {
                "start_time": 52.6181818,
                "end_time": 52.6477273,
                "pitch": 88,
                "velocity": 40,
                "duration": 0.0295455,
                "tempo": 120.0
            },
            {
                "start_time": 52.8136364,
                "end_time": 52.8454545,
                "pitch": 92,
                "velocity": 40,
                "duration": 0.0318182,
                "tempo": 120.0
            },
            {
                "start_time": 53.0113636,
                "end_time": 53.0431818,
                "pitch": 89,
                "velocity": 40,
                "duration": 0.0318182,
                "tempo": 120.0
            },
            {
                "start_time": 53.2090909,
                "end_time": 53.2431818,
                "pitch": 94,
                "velocity": 40,
                "duration": 0.0340909,
                "tempo": 120.0
            },
            {
                "start_time": 53.4068182,
                "end_time": 53.4409091,
                "pitch": 90,
                "velocity": 40,
                "duration": 0.0340909,
                "tempo": 120.0
            },
            {
                "start_time": 53.6068182,
                "end_time": 53.6386364,
                "pitch": 84,
                "velocity": 40,
                "duration": 0.0318182,
                "tempo": 120.0
            },
            {
                "start_time": 53.8045455,
                "end_time": 53.8386364,
                "pitch": 87,
                "velocity": 40,
                "duration": 0.0340909,
                "tempo": 120.0
            },
            {
                "start_time": 54.0090909,
                "end_time": 54.0431818,
                "pitch": 93,
                "velocity": 40,
                "duration": 0.0340909,
                "tempo": 120.0
            },
            {
                "start_time": 54.2136364,
                "end_time": 54.2477273,
                "pitch": 91,
                "velocity": 40,
                "duration": 0.0340909,
                "tempo": 120.0
            },
            {
                "start_time": 54.4181818,
                "end_time": 54.45,
                "pitch": 95,
                "velocity": 40,
                "duration": 0.0318182,
                "tempo": 120.0
            },
            {
                "start_time": 54.6227273,
                "end_time": 54.6545455,
                "pitch": 86,
                "velocity": 40,
                "duration": 0.0318182,
                "tempo": 120.0
            },
            {
                "start_time": 54.8295455,
                "end_time": 54.8590909,
                "pitch": 91,
                "velocity": 40,
                "duration": 0.0295455,
                "tempo": 120.0
            },
            {
                "start_time": 55.0318182,
                "end_time": 55.0636364,
                "pitch": 85,
                "velocity": 40,
                "duration": 0.0318182,
                "tempo": 120.0
            },
            {
                "start_time": 55.2340909,
                "end_time": 55.2659091,
                "pitch": 88,
                "velocity": 40,
                "duration": 0.0318182,
                "tempo": 120.0
            },
            {
                "start_time": 55.4363636,
                "end_time": 55.4681818,
                "pitch": 92,
                "velocity": 40,
                "duration": 0.0318182,
                "tempo": 120.0
            },
            {
                "start_time": 55.6363636,
                "end_time": 55.6704545,
                "pitch": 89,
                "velocity": 40,
                "duration": 0.0340909,
                "tempo": 120.0
            },
            {
                "start_time": 55.8386364,
                "end_time": 55.8681818,
                "pitch": 94,
                "velocity": 40,
                "duration": 0.0295455,
                "tempo": 120.0
            },
            {
                "start_time": 56.0340909,
                "end_time": 56.0659091,
                "pitch": 90,
                "velocity": 40,
                "duration": 0.0318182,
                "tempo": 120.0
            },
            {
                "start_time": 56.2318182,
                "end_time": 56.2659091,
                "pitch": 84,
                "velocity": 40,
                "duration": 0.0340909,
                "tempo": 120.0
            },
            {
                "start_time": 56.4363636,
                "end_time": 56.4704545,
                "pitch": 87,
                "velocity": 40,
                "duration": 0.0340909,
                "tempo": 120.0
            },
            {
                "start_time": 56.6409091,
                "end_time": 56.675,
                "pitch": 93,
                "velocity": 40,
                "duration": 0.0340909,
                "tempo": 120.0
            },
            {
                "start_time": 56.8454545,
                "end_time": 56.8772727,
                "pitch": 91,
                "velocity": 40,
                "duration": 0.0318182,
                "tempo": 120.0
            },
            {
                "start_time": 57.0477273,
                "end_time": 57.0795455,
                "pitch": 95,
                "velocity": 40,
                "duration": 0.0318182,
                "tempo": 120.0
            },
            {
                "start_time": 57.25,
                "end_time": 57.2818182,
                "pitch": 86,
                "velocity": 40,
                "duration": 0.0318182,
                "tempo": 120.0
            },
            {
                "start_time": 57.4522727,
                "end_time": 57.4863636,
                "pitch": 91,
                "velocity": 40,
                "duration": 0.0340909,
                "tempo": 120.0
            },
            {
                "start_time": 57.6545455,
                "end_time": 57.6863636,
                "pitch": 85,
                "velocity": 40,
                "duration": 0.0318182,
                "tempo": 120.0
            },
            {
                "start_time": 57.8568182,
                "end_time": 57.8909091,
                "pitch": 88,
                "velocity": 40,
                "duration": 0.0340909,
                "tempo": 120.0
            },
            {
                "start_time": 58.0613636,
                "end_time": 58.0909091,
                "pitch": 92,
                "velocity": 40,
                "duration": 0.0295455,
                "tempo": 120.0
            },
            {
                "start_time": 58.2568182,
                "end_time": 58.2886364,
                "pitch": 89,
                "velocity": 40,
                "duration": 0.0318182,
                "tempo": 120.0
            },
            {
                "start_time": 58.4545455,
                "end_time": 58.4886364,
                "pitch": 94,
                "velocity": 40,
                "duration": 0.0340909,
                "tempo": 120.0
            },
            {
                "start_time": 58.6545455,
                "end_time": 58.6863636,
                "pitch": 90,
                "velocity": 40,
                "duration": 0.0318182,
                "tempo": 120.0
            },
            {
                "start_time": 58.8522727,
                "end_time": 58.8840909,
                "pitch": 84,
                "velocity": 40,
                "duration": 0.0318182,
                "tempo": 120.0
            },
            {
                "start_time": 59.0522727,
                "end_time": 59.0818182,
                "pitch": 87,
                "velocity": 40,
                "duration": 0.0295455,
                "tempo": 120.0
            },
            {
                "start_time": 59.25,
                "end_time": 59.2818182,
                "pitch": 93,
                "velocity": 40,
                "duration": 0.0318182,
                "tempo": 120.0
            },
            {
                "start_time": 59.4568182,
                "end_time": 59.4909091,
                "pitch": 91,
                "velocity": 40,
                "duration": 0.0340909,
                "tempo": 120.0
            },
            {
                "start_time": 59.6659091,
                "end_time": 59.7,
                "pitch": 95,
                "velocity": 40,
                "duration": 0.0340909,
                "tempo": 120.0
            },
            {
                "start_time": 59.875,
                "end_time": 59.9068182,
                "pitch": 86,
                "velocity": 40,
                "duration": 0.0318182,
                "tempo": 120.0
            },
            {
                "start_time": 60.0795455,
                "end_time": 60.1113636,
                "pitch": 91,
                "velocity": 40,
                "duration": 0.0318182,
                "tempo": 120.0
            },
            {
                "start_time": 60.2840909,
                "end_time": 60.3159091,
                "pitch": 85,
                "velocity": 40,
                "duration": 0.0318182,
                "tempo": 120.0
            },
            {
                "start_time": 60.4886364,
                "end_time": 60.5204545,
                "pitch": 88,
                "velocity": 40,
                "duration": 0.0318182,
                "tempo": 120.0
            },
            {
                "start_time": 60.6863636,
                "end_time": 60.7181818,
                "pitch": 92,
                "velocity": 40,
                "duration": 0.0318182,
                "tempo": 120.0
            },
            {
                "start_time": 60.8840909,
                "end_time": 60.9159091,
                "pitch": 89,
                "velocity": 40,
                "duration": 0.0318182,
                "tempo": 120.0
            },
            {
                "start_time": 61.0818182,
                "end_time": 61.1159091,
                "pitch": 94,
                "velocity": 40,
                "duration": 0.0340909,
                "tempo": 120.0
            },
            {
                "start_time": 61.2863636,
                "end_time": 61.3181818,
                "pitch": 90,
                "velocity": 40,
                "duration": 0.0318182,
                "tempo": 120.0
            },
            {
                "start_time": 61.4863636,
                "end_time": 61.5204545,
                "pitch": 84,
                "velocity": 40,
                "duration": 0.0340909,
                "tempo": 120.0
            },
            {
                "start_time": 61.6886364,
                "end_time": 61.7227273,
                "pitch": 87,
                "velocity": 40,
                "duration": 0.0340909,
                "tempo": 120.0
            },
            {
                "start_time": 61.8931818,
                "end_time": 61.9272727,
                "pitch": 93,
                "velocity": 40,
                "duration": 0.0340909,
                "tempo": 120.0
            },
            {
                "start_time": 62.0977273,
                "end_time": 62.1318182,
                "pitch": 91,
                "velocity": 40,
                "duration": 0.0340909,
                "tempo": 120.0
            },
            {
                "start_time": 62.3045455,
                "end_time": 62.3340909,
                "pitch": 95,
                "velocity": 40,
                "duration": 0.0295455,
                "tempo": 120.0
            },
            {
                "start_time": 62.5,
                "end_time": 62.5318182,
                "pitch": 86,
                "velocity": 40,
                "duration": 0.0318182,
                "tempo": 120.0
            },
            {
                "start_time": 62.6977273,
                "end_time": 62.7318182,
                "pitch": 91,
                "velocity": 40,
                "duration": 0.0340909,
                "tempo": 120.0
            },
            {
                "start_time": 62.8977273,
                "end_time": 62.9295455,
                "pitch": 85,
                "velocity": 40,
                "duration": 0.0318182,
                "tempo": 120.0
            },
            {
                "start_time": 63.1022727,
                "end_time": 63.1340909,
                "pitch": 88,
                "velocity": 40,
                "duration": 0.0318182,
                "tempo": 120.0
            },
            {
                "start_time": 63.3045455,
                "end_time": 63.3386364,
                "pitch": 92,
                "velocity": 40,
                "duration": 0.0340909,
                "tempo": 120.0
            },
            {
                "start_time": 63.5090909,
                "end_time": 63.5409091,
                "pitch": 89,
                "velocity": 40,
                "duration": 0.0318182,
                "tempo": 120.0
            },
            {
                "start_time": 63.7068182,
                "end_time": 63.7409091,
                "pitch": 94,
                "velocity": 40,
                "duration": 0.0340909,
                "tempo": 120.0
            },
            {
                "start_time": 63.9068182,
                "end_time": 63.9386364,
                "pitch": 90,
                "velocity": 40,
                "duration": 0.0318182,
                "tempo": 120.0
            },
            {
                "start_time": 64.1045455,
                "end_time": 64.1386364,
                "pitch": 84,
                "velocity": 40,
                "duration": 0.0340909,
                "tempo": 120.0
            },
            {
                "start_time": 64.3068182,
                "end_time": 64.3409091,
                "pitch": 87,
                "velocity": 40,
                "duration": 0.0340909,
                "tempo": 120.0
            },
            {
                "start_time": 64.5113636,
                "end_time": 64.5431818,
                "pitch": 93,
                "velocity": 40,
                "duration": 0.0318182,
                "tempo": 120.0
            },
            {
                "start_time": 64.7113636,
                "end_time": 64.7431818,
                "pitch": 91,
                "velocity": 40,
                "duration": 0.0318182,
                "tempo": 120.0
            },
            {
                "start_time": 64.9113636,
                "end_time": 64.9431818,
                "pitch": 95,
                "velocity": 40,
                "duration": 0.0318182,
                "tempo": 120.0
            },
            {
                "start_time": 65.1113636,
                "end_time": 65.1454545,
                "pitch": 86,
                "velocity": 40,
                "duration": 0.0340909,
                "tempo": 120.0
            },
            {
                "start_time": 65.3113636,
                "end_time": 65.3454545,
                "pitch": 91,
                "velocity": 40,
                "duration": 0.0340909,
                "tempo": 120.0
            },
            {
                "start_time": 65.5181818,
                "end_time": 65.55,
                "pitch": 85,
                "velocity": 40,
                "duration": 0.0318182,
                "tempo": 120.0
            },
            {
                "start_time": 65.7204545,
                "end_time": 65.7545455,
                "pitch": 88,
                "velocity": 40,
                "duration": 0.0340909,
                "tempo": 120.0
            },
            {
                "start_time": 65.925,
                "end_time": 65.9590909,
                "pitch": 92,
                "velocity": 40,
                "duration": 0.0340909,
                "tempo": 120.0
            },
            {
                "start_time": 66.1272727,
                "end_time": 66.1613636,
                "pitch": 89,
                "velocity": 40,
                "duration": 0.0340909,
                "tempo": 120.0
            },
            {
                "start_time": 66.3295455,
                "end_time": 66.3636364,
                "pitch": 94,
                "velocity": 40,
                "duration": 0.0340909,
                "tempo": 120.0
            },
            {
                "start_time": 66.5318182,
                "end_time": 66.5636364,
                "pitch": 90,
                "velocity": 40,
                "duration": 0.0318182,
                "tempo": 120.0
            },
            {
                "start_time": 66.7318182,
                "end_time": 66.7659091,
                "pitch": 84,
                "velocity": 40,
                "duration": 0.0340909,
                "tempo": 120.0
            },
            {
                "start_time": 66.9318182,
                "end_time": 66.9659091,
                "pitch": 87,
                "velocity": 40,
                "duration": 0.0340909,
                "tempo": 120.0
            },
            {
                "start_time": 67.1318182,
                "end_time": 67.1659091,
                "pitch": 93,
                "velocity": 40,
                "duration": 0.0340909,
                "tempo": 120.0
            },
            {
                "start_time": 67.3340909,
                "end_time": 67.3681818,
                "pitch": 91,
                "velocity": 40,
                "duration": 0.0340909,
                "tempo": 120.0
            },
            {
                "start_time": 67.5363636,
                "end_time": 67.5704545,
                "pitch": 95,
                "velocity": 40,
                "duration": 0.0340909,
                "tempo": 120.0
            },
            {
                "start_time": 67.7431818,
                "end_time": 67.7727273,
                "pitch": 86,
                "velocity": 40,
                "duration": 0.0295455,
                "tempo": 120.0
            },
            {
                "start_time": 67.9409091,
                "end_time": 67.9727273,
                "pitch": 91,
                "velocity": 40,
                "duration": 0.0318182,
                "tempo": 120.0
            },
            {
                "start_time": 68.1409091,
                "end_time": 68.1727273,
                "pitch": 85,
                "velocity": 40,
                "duration": 0.0318182,
                "tempo": 120.0
            },
            {
                "start_time": 68.3409091,
                "end_time": 68.3727273,
                "pitch": 88,
                "velocity": 40,
                "duration": 0.0318182,
                "tempo": 120.0
            },
            {
                "start_time": 68.5409091,
                "end_time": 68.5727273,
                "pitch": 92,
                "velocity": 40,
                "duration": 0.0318182,
                "tempo": 120.0
            },
            {
                "start_time": 68.7431818,
                "end_time": 68.7727273,
                "pitch": 89,
                "velocity": 40,
                "duration": 0.0295455,
                "tempo": 120.0
            },
            {
                "start_time": 68.9409091,
                "end_time": 68.9727273,
                "pitch": 94,
                "velocity": 40,
                "duration": 0.0318182,
                "tempo": 120.0
            },
            {
                "start_time": 69.1386364,
                "end_time": 69.1727273,
                "pitch": 90,
                "velocity": 40,
                "duration": 0.0340909,
                "tempo": 120.0
            },
            {
                "start_time": 69.3386364,
                "end_time": 69.3704545,
                "pitch": 84,
                "velocity": 40,
                "duration": 0.0318182,
                "tempo": 120.0
            },
            {
                "start_time": 69.5363636,
                "end_time": 69.5681818,
                "pitch": 87,
                "velocity": 40,
                "duration": 0.0318182,
                "tempo": 120.0
            },
            {
                "start_time": 69.7409091,
                "end_time": 69.7727273,
                "pitch": 93,
                "velocity": 40,
                "duration": 0.0318182,
                "tempo": 120.0
            },
            {
                "start_time": 69.9454545,
                "end_time": 69.9772727,
                "pitch": 91,
                "velocity": 40,
                "duration": 0.0318182,
                "tempo": 120.0
            },
            {
                "start_time": 70.1477273,
                "end_time": 70.1818182,
                "pitch": 95,
                "velocity": 40,
                "duration": 0.0340909,
                "tempo": 120.0
            },
            {
                "start_time": 70.35,
                "end_time": 70.3840909,
                "pitch": 86,
                "velocity": 40,
                "duration": 0.0340909,
                "tempo": 120.0
            },
            {
                "start_time": 70.5522727,
                "end_time": 70.5863636,
                "pitch": 91,
                "velocity": 40,
                "duration": 0.0340909,
                "tempo": 120.0
            },
            {
                "start_time": 70.7545455,
                "end_time": 70.7886364,
                "pitch": 85,
                "velocity": 40,
                "duration": 0.0340909,
                "tempo": 120.0
            },
            {
                "start_time": 70.9636364,
                "end_time": 70.9931818,
                "pitch": 88,
                "velocity": 40,
                "duration": 0.0295455,
                "tempo": 120.0
            },
            {
                "start_time": 71.1636364,
                "end_time": 71.1977273,
                "pitch": 92,
                "velocity": 40,
                "duration": 0.0340909,
                "tempo": 120.0
            },
            {
                "start_time": 71.3681818,
                "end_time": 71.4022727,
                "pitch": 89,
                "velocity": 40,
                "duration": 0.0340909,
                "tempo": 120.0
            },
            {
                "start_time": 71.5681818,
                "end_time": 71.6022727,
                "pitch": 94,
                "velocity": 40,
                "duration": 0.0340909,
                "tempo": 120.0
            },
            {
                "start_time": 71.7681818,
                "end_time": 71.8022727,
                "pitch": 90,
                "velocity": 40,
                "duration": 0.0340909,
                "tempo": 120.0
            },
            {
                "start_time": 71.9704545,
                "end_time": 72.0022727,
                "pitch": 84,
                "velocity": 40,
                "duration": 0.0318182,
                "tempo": 120.0
            },
            {
                "start_time": 72.1681818,
                "end_time": 72.2,
                "pitch": 87,
                "velocity": 40,
                "duration": 0.0318182,
                "tempo": 120.0
            },
            {
                "start_time": 72.3659091,
                "end_time": 72.3977273,
                "pitch": 93,
                "velocity": 40,
                "duration": 0.0318182,
                "tempo": 120.0
            },
            {
                "start_time": 72.5636364,
                "end_time": 72.5977273,
                "pitch": 91,
                "velocity": 40,
                "duration": 0.0340909,
                "tempo": 120.0
            },
            {
                "start_time": 72.7681818,
                "end_time": 72.8022727,
                "pitch": 95,
                "velocity": 40,
                "duration": 0.0340909,
                "tempo": 120.0
            },
            {
                "start_time": 72.9727273,
                "end_time": 73.0068182,
                "pitch": 86,
                "velocity": 40,
                "duration": 0.0340909,
                "tempo": 120.0
            },
            {
                "start_time": 73.1772727,
                "end_time": 73.2090909,
                "pitch": 91,
                "velocity": 40,
                "duration": 0.0318182,
                "tempo": 120.0
            },
            {
                "start_time": 73.3772727,
                "end_time": 73.4113636,
                "pitch": 85,
                "velocity": 40,
                "duration": 0.0340909,
                "tempo": 120.0
            },
            {
                "start_time": 73.5772727,
                "end_time": 73.6113636,
                "pitch": 88,
                "velocity": 40,
                "duration": 0.0340909,
                "tempo": 120.0
            },
            {
                "start_time": 73.7772727,
                "end_time": 73.8113636,
                "pitch": 92,
                "velocity": 40,
                "duration": 0.0340909,
                "tempo": 120.0
            },
            {
                "start_time": 73.9795455,
                "end_time": 74.0136364,
                "pitch": 89,
                "velocity": 40,
                "duration": 0.0340909,
                "tempo": 120.0
            },
            {
                "start_time": 74.1863636,
                "end_time": 74.2159091,
                "pitch": 94,
                "velocity": 40,
                "duration": 0.0295455,
                "tempo": 120.0
            },
            {
                "start_time": 74.3840909,
                "end_time": 74.4181818,
                "pitch": 90,
                "velocity": 40,
                "duration": 0.0340909,
                "tempo": 120.0
            },
            {
                "start_time": 74.5818182,
                "end_time": 74.6159091,
                "pitch": 84,
                "velocity": 40,
                "duration": 0.0340909,
                "tempo": 120.0
            },
            {
                "start_time": 74.7818182,
                "end_time": 74.8136364,
                "pitch": 87,
                "velocity": 40,
                "duration": 0.0318182,
                "tempo": 120.0
            },
            {
                "start_time": 74.9795455,
                "end_time": 75.0136364,
                "pitch": 93,
                "velocity": 40,
                "duration": 0.0340909,
                "tempo": 120.0
            },
            {
                "start_time": 75.1840909,
                "end_time": 75.2159091,
                "pitch": 91,
                "velocity": 40,
                "duration": 0.0318182,
                "tempo": 120.0
            },
            {
                "start_time": 75.3840909,
                "end_time": 75.4181818,
                "pitch": 95,
                "velocity": 40,
                "duration": 0.0340909,
                "tempo": 120.0
            },
            {
                "start_time": 75.5863636,
                "end_time": 75.6204545,
                "pitch": 86,
                "velocity": 40,
                "duration": 0.0340909,
                "tempo": 120.0
            },
            {
                "start_time": 75.7909091,
                "end_time": 75.825,
                "pitch": 91,
                "velocity": 40,
                "duration": 0.0340909,
                "tempo": 120.0
            },
            {
                "start_time": 75.9954545,
                "end_time": 76.0295455,
                "pitch": 85,
                "velocity": 40,
                "duration": 0.0340909,
                "tempo": 120.0
            }
        ],
        "Acoustic Bass": [
            {
                "start_time": 0.0045455,
                "end_time": 0.6,
                "pitch": 35,
                "velocity": 127,
                "duration": 0.5954545,
                "tempo": 120.0
            },
            {
                "start_time": 0.6,
                "end_time": 1.2,
                "pitch": 35,
                "velocity": 127,
                "duration": 0.6,
                "tempo": 120.0
            },
            {
                "start_time": 1.7681818,
                "end_time": 1.9727273,
                "pitch": 35,
                "velocity": 127,
                "duration": 0.2045455,
                "tempo": 120.0
            },
            {
                "start_time": 1.9727273,
                "end_time": 2.175,
                "pitch": 35,
                "velocity": 101,
                "duration": 0.2022727,
                "tempo": 120.0
            },
            {
                "start_time": 2.1772727,
                "end_time": 2.3795455,
                "pitch": 35,
                "velocity": 101,
                "duration": 0.2022727,
                "tempo": 120.0
            },
            {
                "start_time": 2.3818182,
                "end_time": 2.9931818,
                "pitch": 35,
                "velocity": 127,
                "duration": 0.6113636,
                "tempo": 120.0
            },
            {
                "start_time": 2.9931818,
                "end_time": 3.6227273,
                "pitch": 35,
                "velocity": 127,
                "duration": 0.6295455,
                "tempo": 120.0
            },
            {
                "start_time": 5.425,
                "end_time": 6.0295455,
                "pitch": 35,
                "velocity": 127,
                "duration": 0.6045455,
                "tempo": 120.0
            },
            {
                "start_time": 6.0295455,
                "end_time": 6.6409091,
                "pitch": 35,
                "velocity": 127,
                "duration": 0.6113636,
                "tempo": 120.0
            },
            {
                "start_time": 7.225,
                "end_time": 7.4318182,
                "pitch": 35,
                "velocity": 127,
                "duration": 0.2068182,
                "tempo": 120.0
            },
            {
                "start_time": 7.4318182,
                "end_time": 7.6340909,
                "pitch": 35,
                "velocity": 101,
                "duration": 0.2022727,
                "tempo": 120.0
            },
            {
                "start_time": 7.6340909,
                "end_time": 7.8386364,
                "pitch": 35,
                "velocity": 101,
                "duration": 0.2045455,
                "tempo": 120.0
            },
            {
                "start_time": 7.8386364,
                "end_time": 8.4340909,
                "pitch": 35,
                "velocity": 127,
                "duration": 0.5954545,
                "tempo": 120.0
            },
            {
                "start_time": 8.4340909,
                "end_time": 9.0613636,
                "pitch": 35,
                "velocity": 127,
                "duration": 0.6272727,
                "tempo": 120.0
            },
            {
                "start_time": 10.8431818,
                "end_time": 11.4545455,
                "pitch": 35,
                "velocity": 127,
                "duration": 0.6113636,
                "tempo": 120.0
            },
            {
                "start_time": 11.4568182,
                "end_time": 12.0704545,
                "pitch": 35,
                "velocity": 127,
                "duration": 0.6136364,
                "tempo": 120.0
            },
            {
                "start_time": 12.6568182,
                "end_time": 12.8590909,
                "pitch": 35,
                "velocity": 127,
                "duration": 0.2022727,
                "tempo": 120.0
            },
            {
                "start_time": 12.8590909,
                "end_time": 13.0568182,
                "pitch": 35,
                "velocity": 101,
                "duration": 0.1977273,
                "tempo": 120.0
            },
            {
                "start_time": 13.0568182,
                "end_time": 13.2590909,
                "pitch": 35,
                "velocity": 101,
                "duration": 0.2022727,
                "tempo": 120.0
            },
            {
                "start_time": 13.2590909,
                "end_time": 13.8659091,
                "pitch": 35,
                "velocity": 127,
                "duration": 0.6068182,
                "tempo": 120.0
            },
            {
                "start_time": 13.8681818,
                "end_time": 14.4818182,
                "pitch": 35,
                "velocity": 127,
                "duration": 0.6136364,
                "tempo": 120.0
            },
            {
                "start_time": 16.2681818,
                "end_time": 16.8818182,
                "pitch": 35,
                "velocity": 127,
                "duration": 0.6136364,
                "tempo": 120.0
            },
            {
                "start_time": 16.8818182,
                "end_time": 17.5022727,
                "pitch": 35,
                "velocity": 127,
                "duration": 0.6204545,
                "tempo": 120.0
            },
            {
                "start_time": 18.0818182,
                "end_time": 18.2863636,
                "pitch": 35,
                "velocity": 127,
                "duration": 0.2045455,
                "tempo": 120.0
            },
            {
                "start_time": 18.2863636,
                "end_time": 18.4909091,
                "pitch": 35,
                "velocity": 101,
                "duration": 0.2045455,
                "tempo": 120.0
            },
            {
                "start_time": 18.4909091,
                "end_time": 18.6954545,
                "pitch": 35,
                "velocity": 101,
                "duration": 0.2045455,
                "tempo": 120.0
            },
            {
                "start_time": 18.6954545,
                "end_time": 19.3045455,
                "pitch": 35,
                "velocity": 127,
                "duration": 0.6090909,
                "tempo": 120.0
            },
            {
                "start_time": 19.3045455,
                "end_time": 19.9181818,
                "pitch": 35,
                "velocity": 127,
                "duration": 0.6136364,
                "tempo": 120.0
            },
            {
                "start_time": 21.7181818,
                "end_time": 22.3318182,
                "pitch": 35,
                "velocity": 127,
                "duration": 0.6136364,
                "tempo": 120.0
            },
            {
                "start_time": 22.3318182,
                "end_time": 22.9409091,
                "pitch": 35,
                "velocity": 127,
                "duration": 0.6090909,
                "tempo": 120.0
            },
            {
                "start_time": 23.5363636,
                "end_time": 23.7386364,
                "pitch": 35,
                "velocity": 127,
                "duration": 0.2022727,
                "tempo": 120.0
            },
            {
                "start_time": 23.7386364,
                "end_time": 23.9409091,
                "pitch": 35,
                "velocity": 101,
                "duration": 0.2022727,
                "tempo": 120.0
            },
            {
                "start_time": 23.9409091,
                "end_time": 24.1477273,
                "pitch": 35,
                "velocity": 101,
                "duration": 0.2068182,
                "tempo": 120.0
            },
            {
                "start_time": 24.1477273,
                "end_time": 24.7522727,
                "pitch": 35,
                "velocity": 127,
                "duration": 0.6045455,
                "tempo": 120.0
            },
            {
                "start_time": 24.7522727,
                "end_time": 25.3681818,
                "pitch": 35,
                "velocity": 127,
                "duration": 0.6159091,
                "tempo": 120.0
            },
            {
                "start_time": 27.1636364,
                "end_time": 27.775,
                "pitch": 35,
                "velocity": 127,
                "duration": 0.6113636,
                "tempo": 120.0
            },
            {
                "start_time": 27.775,
                "end_time": 28.3909091,
                "pitch": 35,
                "velocity": 127,
                "duration": 0.6159091,
                "tempo": 120.0
            },
            {
                "start_time": 28.9863636,
                "end_time": 29.1886364,
                "pitch": 35,
                "velocity": 127,
                "duration": 0.2022727,
                "tempo": 120.0
            },
            {
                "start_time": 29.1886364,
                "end_time": 29.3909091,
                "pitch": 35,
                "velocity": 101,
                "duration": 0.2022727,
                "tempo": 120.0
            },
            {
                "start_time": 29.3909091,
                "end_time": 29.5954545,
                "pitch": 35,
                "velocity": 101,
                "duration": 0.2045455,
                "tempo": 120.0
            },
            {
                "start_time": 29.5954545,
                "end_time": 30.1909091,
                "pitch": 35,
                "velocity": 127,
                "duration": 0.5954545,
                "tempo": 120.0
            },
            {
                "start_time": 30.1909091,
                "end_time": 30.8181818,
                "pitch": 35,
                "velocity": 127,
                "duration": 0.6272727,
                "tempo": 120.0
            },
            {
                "start_time": 32.6068182,
                "end_time": 33.2204545,
                "pitch": 35,
                "velocity": 127,
                "duration": 0.6136364,
                "tempo": 120.0
            },
            {
                "start_time": 33.2204545,
                "end_time": 33.8409091,
                "pitch": 35,
                "velocity": 127,
                "duration": 0.6204545,
                "tempo": 120.0
            },
            {
                "start_time": 34.4318182,
                "end_time": 34.6340909,
                "pitch": 35,
                "velocity": 127,
                "duration": 0.2022727,
                "tempo": 120.0
            },
            {
                "start_time": 34.6340909,
                "end_time": 34.8363636,
                "pitch": 35,
                "velocity": 101,
                "duration": 0.2022727,
                "tempo": 120.0
            },
            {
                "start_time": 34.8363636,
                "end_time": 35.0386364,
                "pitch": 35,
                "velocity": 101,
                "duration": 0.2022727,
                "tempo": 120.0
            },
            {
                "start_time": 35.0386364,
                "end_time": 35.6477273,
                "pitch": 35,
                "velocity": 127,
                "duration": 0.6090909,
                "tempo": 120.0
            },
            {
                "start_time": 35.6477273,
                "end_time": 36.2727273,
                "pitch": 35,
                "velocity": 127,
                "duration": 0.625,
                "tempo": 120.0
            },
            {
                "start_time": 38.0636364,
                "end_time": 38.6772727,
                "pitch": 35,
                "velocity": 127,
                "duration": 0.6136364,
                "tempo": 120.0
            },
            {
                "start_time": 38.6772727,
                "end_time": 39.2977273,
                "pitch": 35,
                "velocity": 127,
                "duration": 0.6204545,
                "tempo": 120.0
            },
            {
                "start_time": 39.8772727,
                "end_time": 40.0818182,
                "pitch": 35,
                "velocity": 127,
                "duration": 0.2045455,
                "tempo": 120.0
            },
            {
                "start_time": 40.0818182,
                "end_time": 40.2863636,
                "pitch": 35,
                "velocity": 101,
                "duration": 0.2045455,
                "tempo": 120.0
            },
            {
                "start_time": 40.2863636,
                "end_time": 40.4909091,
                "pitch": 35,
                "velocity": 101,
                "duration": 0.2045455,
                "tempo": 120.0
            },
            {
                "start_time": 40.4909091,
                "end_time": 41.0977273,
                "pitch": 35,
                "velocity": 127,
                "duration": 0.6068182,
                "tempo": 120.0
            },
            {
                "start_time": 41.0977273,
                "end_time": 41.7181818,
                "pitch": 35,
                "velocity": 127,
                "duration": 0.6204545,
                "tempo": 120.0
            },
            {
                "start_time": 43.5136364,
                "end_time": 44.1386364,
                "pitch": 35,
                "velocity": 127,
                "duration": 0.625,
                "tempo": 120.0
            },
            {
                "start_time": 44.1386364,
                "end_time": 44.7477273,
                "pitch": 35,
                "velocity": 127,
                "duration": 0.6090909,
                "tempo": 120.0
            },
            {
                "start_time": 45.3409091,
                "end_time": 45.5431818,
                "pitch": 35,
                "velocity": 127,
                "duration": 0.2022727,
                "tempo": 120.0
            },
            {
                "start_time": 45.5431818,
                "end_time": 45.7477273,
                "pitch": 35,
                "velocity": 101,
                "duration": 0.2045455,
                "tempo": 120.0
            },
            {
                "start_time": 45.7477273,
                "end_time": 45.9522727,
                "pitch": 35,
                "velocity": 101,
                "duration": 0.2045455,
                "tempo": 120.0
            },
            {
                "start_time": 45.9522727,
                "end_time": 46.5477273,
                "pitch": 35,
                "velocity": 127,
                "duration": 0.5954545,
                "tempo": 120.0
            },
            {
                "start_time": 46.5477273,
                "end_time": 47.1863636,
                "pitch": 35,
                "velocity": 127,
                "duration": 0.6386364,
                "tempo": 120.0
            },
            {
                "start_time": 48.9636364,
                "end_time": 49.5772727,
                "pitch": 35,
                "velocity": 127,
                "duration": 0.6136364,
                "tempo": 120.0
            },
            {
                "start_time": 49.5772727,
                "end_time": 50.1977273,
                "pitch": 35,
                "velocity": 127,
                "duration": 0.6204545,
                "tempo": 120.0
            },
            {
                "start_time": 50.7886364,
                "end_time": 50.9909091,
                "pitch": 35,
                "velocity": 127,
                "duration": 0.2022727,
                "tempo": 120.0
            },
            {
                "start_time": 50.9909091,
                "end_time": 51.1931818,
                "pitch": 35,
                "velocity": 101,
                "duration": 0.2022727,
                "tempo": 120.0
            },
            {
                "start_time": 51.1931818,
                "end_time": 51.3954545,
                "pitch": 35,
                "velocity": 101,
                "duration": 0.2022727,
                "tempo": 120.0
            },
            {
                "start_time": 51.3954545,
                "end_time": 52.0022727,
                "pitch": 35,
                "velocity": 127,
                "duration": 0.6068182,
                "tempo": 120.0
            },
            {
                "start_time": 52.0022727,
                "end_time": 52.6318182,
                "pitch": 35,
                "velocity": 127,
                "duration": 0.6295455,
                "tempo": 120.0
            },
            {
                "start_time": 54.4181818,
                "end_time": 55.0318182,
                "pitch": 35,
                "velocity": 127,
                "duration": 0.6136364,
                "tempo": 120.0
            },
            {
                "start_time": 55.0318182,
                "end_time": 55.6545455,
                "pitch": 35,
                "velocity": 127,
                "duration": 0.6227273,
                "tempo": 120.0
            },
            {
                "start_time": 56.2340909,
                "end_time": 56.4386364,
                "pitch": 35,
                "velocity": 127,
                "duration": 0.2045455,
                "tempo": 120.0
            },
            {
                "start_time": 56.4386364,
                "end_time": 56.6409091,
                "pitch": 35,
                "velocity": 101,
                "duration": 0.2022727,
                "tempo": 120.0
            },
            {
                "start_time": 56.6409091,
                "end_time": 56.8454545,
                "pitch": 35,
                "velocity": 101,
                "duration": 0.2045455,
                "tempo": 120.0
            },
            {
                "start_time": 56.8454545,
                "end_time": 57.4522727,
                "pitch": 35,
                "velocity": 127,
                "duration": 0.6068182,
                "tempo": 120.0
            },
            {
                "start_time": 57.4545455,
                "end_time": 58.075,
                "pitch": 35,
                "velocity": 127,
                "duration": 0.6204545,
                "tempo": 120.0
            },
            {
                "start_time": 59.875,
                "end_time": 60.4886364,
                "pitch": 35,
                "velocity": 127,
                "duration": 0.6136364,
                "tempo": 120.0
            },
            {
                "start_time": 60.4886364,
                "end_time": 61.0977273,
                "pitch": 35,
                "velocity": 127,
                "duration": 0.6090909,
                "tempo": 120.0
            },
            {
                "start_time": 61.6909091,
                "end_time": 61.8954545,
                "pitch": 35,
                "velocity": 127,
                "duration": 0.2045455,
                "tempo": 120.0
            },
            {
                "start_time": 61.8954545,
                "end_time": 62.0977273,
                "pitch": 35,
                "velocity": 101,
                "duration": 0.2022727,
                "tempo": 120.0
            },
            {
                "start_time": 62.0977273,
                "end_time": 62.3045455,
                "pitch": 35,
                "velocity": 101,
                "duration": 0.2068182,
                "tempo": 120.0
            },
            {
                "start_time": 62.3045455,
                "end_time": 62.8977273,
                "pitch": 35,
                "velocity": 127,
                "duration": 0.5931818,
                "tempo": 120.0
            },
            {
                "start_time": 62.8977273,
                "end_time": 63.525,
                "pitch": 35,
                "velocity": 127,
                "duration": 0.6272727,
                "tempo": 120.0
            },
            {
                "start_time": 65.3136364,
                "end_time": 65.9272727,
                "pitch": 35,
                "velocity": 127,
                "duration": 0.6136364,
                "tempo": 120.0
            },
            {
                "start_time": 65.9272727,
                "end_time": 66.5477273,
                "pitch": 35,
                "velocity": 127,
                "duration": 0.6204545,
                "tempo": 120.0
            },
            {
                "start_time": 67.1340909,
                "end_time": 67.3363636,
                "pitch": 35,
                "velocity": 127,
                "duration": 0.2022727,
                "tempo": 120.0
            },
            {
                "start_time": 67.3363636,
                "end_time": 67.5386364,
                "pitch": 35,
                "velocity": 101,
                "duration": 0.2022727,
                "tempo": 120.0
            },
            {
                "start_time": 67.5386364,
                "end_time": 67.7431818,
                "pitch": 35,
                "velocity": 101,
                "duration": 0.2045455,
                "tempo": 120.0
            },
            {
                "start_time": 67.7431818,
                "end_time": 68.3409091,
                "pitch": 35,
                "velocity": 127,
                "duration": 0.5977273,
                "tempo": 120.0
            },
            {
                "start_time": 68.3409091,
                "end_time": 68.9568182,
                "pitch": 35,
                "velocity": 127,
                "duration": 0.6159091,
                "tempo": 120.0
            },
            {
                "start_time": 70.7568182,
                "end_time": 71.3704545,
                "pitch": 35,
                "velocity": 127,
                "duration": 0.6136364,
                "tempo": 120.0
            },
            {
                "start_time": 71.3704545,
                "end_time": 71.9863636,
                "pitch": 35,
                "velocity": 127,
                "duration": 0.6159091,
                "tempo": 120.0
            },
            {
                "start_time": 72.5659091,
                "end_time": 72.7704545,
                "pitch": 35,
                "velocity": 127,
                "duration": 0.2045455,
                "tempo": 120.0
            },
            {
                "start_time": 72.7704545,
                "end_time": 72.9727273,
                "pitch": 35,
                "velocity": 101,
                "duration": 0.2022727,
                "tempo": 120.0
            },
            {
                "start_time": 72.975,
                "end_time": 73.1772727,
                "pitch": 35,
                "velocity": 101,
                "duration": 0.2022727,
                "tempo": 120.0
            },
            {
                "start_time": 73.1795455,
                "end_time": 73.7795455,
                "pitch": 35,
                "velocity": 127,
                "duration": 0.6,
                "tempo": 120.0
            },
            {
                "start_time": 73.7795455,
                "end_time": 74.4,
                "pitch": 35,
                "velocity": 127,
                "duration": 0.6204545,
                "tempo": 120.0
            }
        ]
    }
}