{
    "mood": "angry",
    "instruments": {
        "Vibraphone": [
            {
                "start_time": 0.2409091,
                "end_time": 0.5909091,
                "pitch": 57,
                "velocity": 101,
                "duration": 0.35,
                "tempo": 120.0
            },
            {
                "start_time": 0.7590909,
                "end_time": 1.1022727,
                "pitch": 57,
                "velocity": 101,
                "duration": 0.3431818,
                "tempo": 120.0
            },
            {
                "start_time": 1.4431818,
                "end_time": 1.7863636,
                "pitch": 55,
                "velocity": 101,
                "duration": 0.3431818,
                "tempo": 120.0
            },
            {
                "start_time": 1.9545455,
                "end_time": 2.3045455,
                "pitch": 53,
                "velocity": 101,
                "duration": 0.35,
                "tempo": 120.0
            },
            {
                "start_time": 2.4727273,
                "end_time": 2.825,
                "pitch": 53,
                "velocity": 101,
                "duration": 0.3522727,
                "tempo": 120.0
            },
            {
                "start_time": 3.1590909,
                "end_time": 3.5090909,
                "pitch": 52,
                "velocity": 101,
                "duration": 0.35,
                "tempo": 120.0
            },
            {
                "start_time": 3.7022727,
                "end_time": 3.7045455,
                "pitch": 57,
                "velocity": 101,
                "duration": 0.0022727,
                "tempo": 120.0
            }
        ],
        "Electric Guitar (clean)": [
            {
                "start_time": 0.2409091,
                "end_time": 0.5909091,
                "pitch": 53,
                "velocity": 127,
                "duration": 0.35,
                "tempo": 120.0
            },
            {
                "start_time": 0.5909091,
                "end_time": 0.7590909,
                "pitch": 50,
                "velocity": 127,
                "duration": 0.1681818,
                "tempo": 120.0
            },
            {
                "start_time": 0.5909091,
                "end_time": 0.7590909,
                "pitch": 50,
                "velocity": 127,
                "duration": 0.1681818,
                "tempo": 120.0
            },
            {
                "start_time": 0.7590909,
                "end_time": 1.1022727,
                "pitch": 53,
                "velocity": 127,
                "duration": 0.3431818,
                "tempo": 120.0
            },
            {
                "start_time": 0.7590909,
                "end_time": 1.1022727,
                "pitch": 53,
                "velocity": 127,
                "duration": 0.3431818,
                "tempo": 120.0
            },
            {
                "start_time": 1.1022727,
                "end_time": 1.4454545,
                "pitch": 48,
                "velocity": 127,
                "duration": 0.3431818,
                "tempo": 120.0
            },
            {
                "start_time": 1.1022727,
                "end_time": 1.4454545,
                "pitch": 48,
                "velocity": 127,
                "duration": 0.3431818,
                "tempo": 120.0
            },
            {
                "start_time": 1.4454545,
                "end_time": 1.7886364,
                "pitch": 52,
                "velocity": 127,
                "duration": 0.3431818,
                "tempo": 120.0
            },
            {
                "start_time": 1.4454545,
                "end_time": 1.7886364,
                "pitch": 52,
                "velocity": 127,
                "duration": 0.3431818,
                "tempo": 120.0
            },
            {
                "start_time": 1.7886364,
                "end_time": 1.9545455,
                "pitch": 46,
                "velocity": 127,
                "duration": 0.1659091,
                "tempo": 120.0
            },
            {
                "start_time": 1.7886364,
                "end_time": 2.3045455,
                "pitch": 26,
                "velocity": 127,
                "duration": 0.5159091,
                "tempo": 120.0
            },
            {
                "start_time": 1.9545455,
                "end_time": 2.3045455,
                "pitch": 50,
                "velocity": 127,
                "duration": 0.35,
                "tempo": 120.0
            },
            {
                "start_time": 2.3045455,
                "end_time": 2.475,
                "pitch": 46,
                "velocity": 127,
                "duration": 0.1704545,
                "tempo": 120.0
            },
            {
                "start_time": 1.9545455,
                "end_time": 2.475,
                "pitch": 53,
                "velocity": 127,
                "duration": 0.5204545,
                "tempo": 120.0
            },
            {
                "start_time": 2.475,
                "end_time": 2.825,
                "pitch": 50,
                "velocity": 127,
                "duration": 0.35,
                "tempo": 120.0
            },
            {
                "start_time": 2.825,
                "end_time": 3.1590909,
                "pitch": 45,
                "velocity": 127,
                "duration": 0.3340909,
                "tempo": 120.0
            },
            {
                "start_time": 3.1590909,
                "end_time": 3.5090909,
                "pitch": 49,
                "velocity": 127,
                "duration": 0.35,
                "tempo": 120.0
            },
            {
                "start_time": 3.5318182,
                "end_time": 3.7045455,
                "pitch": 50,
                "velocity": 127,
                "duration": 0.1727273,
                "tempo": 120.0
            }
        ]
    }
}