{
    "mood": "angry",
    "instruments": {
        "Electric Piano 1": [
            {
                "start_time": 0.0318182,
                "end_time": 0.2454545,
                "pitch": 48,
                "velocity": 64,
                "duration": 0.2136364,
                "tempo": 120.0
            },
            {
                "start_time": 0.2454545,
                "end_time": 0.2954545,
                "pitch": 48,
                "velocity": 64,
                "duration": 0.05,
                "tempo": 120.0
            },
            {
                "start_time": 0.2954545,
                "end_time": 0.3795455,
                "pitch": 48,
                "velocity": 64,
                "duration": 0.0840909,
                "tempo": 120.0
            },
            {
                "start_time": 0.3795455,
                "end_time": 0.4295455,
                "pitch": 48,
                "velocity": 64,
                "duration": 0.05,
                "tempo": 120.0
            },
            {
                "start_time": 0.2954545,
                "end_time": 0.4295455,
                "pitch": 52,
                "velocity": 64,
                "duration": 0.1340909,
                "tempo": 120.0
            },
            {
                "start_time": 0.3795455,
                "end_time": 0.5136364,
                "pitch": 36,
                "velocity": 64,
                "duration": 0.1340909,
                "tempo": 120.0
            },
            {
                "start_time": 0.4295455,
                "end_time": 0.5136364,
                "pitch": 48,
                "velocity": 64,
                "duration": 0.0840909,
                "tempo": 120.0
            },
            {
                "start_time": 0.5136364,
                "end_time": 0.5659091,
                "pitch": 48,
                "velocity": 64,
                "duration": 0.0522727,
                "tempo": 120.0
            },
            {
                "start_time": 0.4295455,
                "end_time": 0.5659091,
                "pitch": 52,
                "velocity": 64,
                "duration": 0.1363636,
                "tempo": 120.0
            },
            {
                "start_time": 0.5659091,
                "end_time": 0.6522727,
                "pitch": 48,
                "velocity": 64,
                "duration": 0.0863636,
                "tempo": 120.0
            },
            {
                "start_time": 0.6522727,
                "end_time": 0.7022727,
                "pitch": 48,
                "velocity": 64,
                "duration": 0.05,
                "tempo": 120.0
            },
            {
                "start_time": 0.5659091,
                "end_time": 0.7022727,
                "pitch": 52,
                "velocity": 64,
                "duration": 0.1363636,
                "tempo": 120.0
            },
            {
                "start_time": 0.5136364,
                "end_time": 0.7886364,
                "pitch": 36,
                "velocity": 64,
                "duration": 0.275,
                "tempo": 120.0
            },
            {
                "start_time": 0.7022727,
                "end_time": 0.7886364,
                "pitch": 48,
                "velocity": 64,
                "duration": 0.0863636,
                "tempo": 120.0
            },
            {
                "start_time": 0.7886364,
                "end_time": 0.8386364,
                "pitch": 48,
                "velocity": 64,
                "duration": 0.05,
                "tempo": 120.0
            },
            {
                "start_time": 0.7022727,
                "end_time": 0.8386364,
                "pitch": 52,
                "velocity": 64,
                "duration": 0.1363636,
                "tempo": 120.0
            },
            {
                "start_time": 0.8386364,
                "end_time": 0.8568182,
                "pitch": 48,
                "velocity": 64,
                "duration": 0.0181818,
                "tempo": 120.0
            },
            {
                "start_time": 0.8568182,
                "end_time": 1.0613636,
                "pitch": 53,
                "velocity": 64,
                "duration": 0.2045455,
                "tempo": 120.0
            },
            {
                "start_time": 0.8386364,
                "end_time": 1.1636364,
                "pitch": 52,
                "velocity": 64,
                "duration": 0.325,
                "tempo": 120.0
            },
            {
                "start_time": 1.0613636,
                "end_time": 1.1636364,
                "pitch": 52,
                "velocity": 64,
                "duration": 0.1022727,
                "tempo": 120.0
            },
            {
                "start_time": 1.1659091,
                "end_time": 1.3840909,
                "pitch": 48,
                "velocity": 64,
                "duration": 0.2181818,
                "tempo": 120.0
            },
            {
                "start_time": 1.3840909,
                "end_time": 1.4318182,
                "pitch": 48,
                "velocity": 64,
                "duration": 0.0477273,
                "tempo": 120.0
            },
            {
                "start_time": 1.4318182,
                "end_time": 1.4659091,
                "pitch": 48,
                "velocity": 64,
                "duration": 0.0340909,
                "tempo": 120.0
            },
            {
                "start_time": 1.4659091,
                "end_time": 1.6659091,
                "pitch": 50,
                "velocity": 64,
                "duration": 0.2,
                "tempo": 120.0
            },
            {
                "start_time": 1.6659091,
                "end_time": 1.8818182,
                "pitch": 48,
                "velocity": 64,
                "duration": 0.2159091,
                "tempo": 120.0
            },
            {
                "start_time": 1.8818182,
                "end_time": 1.9318182,
                "pitch": 48,
                "velocity": 64,
                "duration": 0.05,
                "tempo": 120.0
            },
            {
                "start_time": 1.4318182,
                "end_time": 1.9318182,
                "pitch": 52,
                "velocity": 64,
                "duration": 0.5,
                "tempo": 120.0
            },
            {
                "start_time": 0.7886364,
                "end_time": 2.0159091,
                "pitch": 36,
                "velocity": 64,
                "duration": 1.2272727,
                "tempo": 120.0
            },
            {
                "start_time": 1.9318182,
                "end_time": 2.0159091,
                "pitch": 48,
                "velocity": 64,
                "duration": 0.0840909,
                "tempo": 120.0
            },
            {
                "start_time": 2.0159091,
                "end_time": 2.0659091,
                "pitch": 48,
                "velocity": 64,
                "duration": 0.05,
                "tempo": 120.0
            },
            {
                "start_time": 1.9318182,
                "end_time": 2.0659091,
                "pitch": 52,
                "velocity": 64,
                "duration": 0.1340909,
                "tempo": 120.0
            },
            {
                "start_time": 2.0659091,
                "end_time": 2.1522727,
                "pitch": 48,
                "velocity": 64,
                "duration": 0.0863636,
                "tempo": 120.0
            },
            {
                "start_time": 2.1522727,
                "end_time": 2.2045455,
                "pitch": 48,
                "velocity": 64,
                "duration": 0.0522727,
                "tempo": 120.0
            },
            {
                "start_time": 2.0659091,
                "end_time": 2.2045455,
                "pitch": 52,
                "velocity": 64,
                "duration": 0.1386364,
                "tempo": 120.0
            },
            {
                "start_time": 2.2045455,
                "end_time": 2.2931818,
                "pitch": 48,
                "velocity": 64,
                "duration": 0.0886364,
                "tempo": 120.0
            },
            {
                "start_time": 2.2931818,
                "end_time": 2.3454545,
                "pitch": 48,
                "velocity": 64,
                "duration": 0.0522727,
                "tempo": 120.0
            },
            {
                "start_time": 2.2045455,
                "end_time": 2.3454545,
                "pitch": 52,
                "velocity": 64,
                "duration": 0.1409091,
                "tempo": 120.0
            },
            {
                "start_time": 2.0159091,
                "end_time": 2.4340909,
                "pitch": 36,
                "velocity": 64,
                "duration": 0.4181818,
                "tempo": 120.0
            },
            {
                "start_time": 2.3454545,
                "end_time": 2.4340909,
                "pitch": 48,
                "velocity": 64,
                "duration": 0.0886364,
                "tempo": 120.0
            },
            {
                "start_time": 2.4340909,
                "end_time": 2.4863636,
                "pitch": 48,
                "velocity": 64,
                "duration": 0.0522727,
                "tempo": 120.0
            },
            {
                "start_time": 2.3454545,
                "end_time": 2.4863636,
                "pitch": 52,
                "velocity": 64,
                "duration": 0.1409091,
                "tempo": 120.0
            },
            {
                "start_time": 2.4863636,
                "end_time": 2.5022727,
                "pitch": 48,
                "velocity": 64,
                "duration": 0.0159091,
                "tempo": 120.0
            },
            {
                "start_time": 2.5045455,
                "end_time": 3.3181818,
                "pitch": 47,
                "velocity": 64,
                "duration": 0.8136364,
                "tempo": 120.0
            },
            {
                "start_time": 2.4340909,
                "end_time": 3.5409091,
                "pitch": 36,
                "velocity": 64,
                "duration": 1.1068182,
                "tempo": 120.0
            },
            {
                "start_time": 3.3204545,
                "end_time": 3.5409091,
                "pitch": 48,
                "velocity": 64,
                "duration": 0.2204545,
                "tempo": 120.0
            },
            {
                "start_time": 3.5409091,
                "end_time": 3.5931818,
                "pitch": 48,
                "velocity": 64,
                "duration": 0.0522727,
                "tempo": 120.0
            },
            {
                "start_time": 2.4863636,
                "end_time": 3.5931818,
                "pitch": 52,
                "velocity": 64,
                "duration": 1.1068182,
                "tempo": 120.0
            },
            {
                "start_time": 3.5409091,
                "end_time": 3.6772727,
                "pitch": 36,
                "velocity": 64,
                "duration": 0.1363636,
                "tempo": 120.0
            },
            {
                "start_time": 3.5931818,
                "end_time": 3.6772727,
                "pitch": 48,
                "velocity": 64,
                "duration": 0.0840909,
                "tempo": 120.0
            },
            {
                "start_time": 3.6772727,
                "end_time": 3.7295455,
                "pitch": 48,
                "velocity": 64,
                "duration": 0.0522727,
                "tempo": 120.0
            },
            {
                "start_time": 3.5931818,
                "end_time": 3.7295455,
                "pitch": 52,
                "velocity": 64,
                "duration": 0.1363636,
                "tempo": 120.0
            },
            {
                "start_time": 3.7295455,
                "end_time": 3.8113636,
                "pitch": 48,
                "velocity": 64,
                "duration": 0.0818182,
                "tempo": 120.0
            },
            {
                "start_time": 3.8113636,
                "end_time": 3.8613636,
                "pitch": 48,
                "velocity": 64,
                "duration": 0.05,
                "tempo": 120.0
            },
            {
                "start_time": 3.7295455,
                "end_time": 3.8613636,
                "pitch": 52,
                "velocity": 64,
                "duration": 0.1318182,
                "tempo": 120.0
            },
            {
                "start_time": 3.6772727,
                "end_time": 3.9454545,
                "pitch": 36,
                "velocity": 64,
                "duration": 0.2681818,
                "tempo": 120.0
            },
            {
                "start_time": 3.8613636,
                "end_time": 3.9454545,
                "pitch": 48,
                "velocity": 64,
                "duration": 0.0840909,
                "tempo": 120.0
            },
            {
                "start_time": 3.9454545,
                "end_time": 3.9954545,
                "pitch": 48,
                "velocity": 64,
                "duration": 0.05,
                "tempo": 120.0
            },
            {
                "start_time": 3.9954545,
                "end_time": 4.0772727,
                "pitch": 48,
                "velocity": 64,
                "duration": 0.0818182,
                "tempo": 120.0
            },
            {
                "start_time": 4.0772727,
                "end_time": 4.1272727,
                "pitch": 48,
                "velocity": 64,
                "duration": 0.05,
                "tempo": 120.0
            },
            {
                "start_time": 4.1295455,
                "end_time": 4.3295455,
                "pitch": 53,
                "velocity": 64,
                "duration": 0.2,
                "tempo": 120.0
            },
            {
                "start_time": 3.8613636,
                "end_time": 4.4295455,
                "pitch": 52,
                "velocity": 64,
                "duration": 0.5681818,
                "tempo": 120.0
            },
            {
                "start_time": 4.3295455,
                "end_time": 4.4295455,
                "pitch": 52,
                "velocity": 64,
                "duration": 0.1,
                "tempo": 120.0
            },
            {
                "start_time": 3.9454545,
                "end_time": 4.6522727,
                "pitch": 36,
                "velocity": 64,
                "duration": 0.7068182,
                "tempo": 120.0
            },
            {
                "start_time": 4.4295455,
                "end_time": 4.6522727,
                "pitch": 48,
                "velocity": 64,
                "duration": 0.2227273,
                "tempo": 120.0
            },
            {
                "start_time": 4.6522727,
                "end_time": 4.7045455,
                "pitch": 48,
                "velocity": 64,
                "duration": 0.0522727,
                "tempo": 120.0
            },
            {
                "start_time": 4.7045455,
                "end_time": 4.7568182,
                "pitch": 48,
                "velocity": 64,
                "duration": 0.0522727,
                "tempo": 120.0
            },
            {
                "start_time": 4.7590909,
                "end_time": 4.9681818,
                "pitch": 50,
                "velocity": 64,
                "duration": 0.2090909,
                "tempo": 120.0
            },
            {
                "start_time": 4.9704545,
                "end_time": 5.1840909,
                "pitch": 48,
                "velocity": 64,
                "duration": 0.2136364,
                "tempo": 120.0
            },
            {
                "start_time": 5.1840909,
                "end_time": 5.2340909,
                "pitch": 48,
                "velocity": 64,
                "duration": 0.05,
                "tempo": 120.0
            },
            {
                "start_time": 4.7045455,
                "end_time": 5.2340909,
                "pitch": 52,
                "velocity": 64,
                "duration": 0.5295455,
                "tempo": 120.0
            },
            {
                "start_time": 4.6522727,
                "end_time": 5.3181818,
                "pitch": 36,
                "velocity": 64,
                "duration": 0.6659091,
                "tempo": 120.0
            },
            {
                "start_time": 5.2340909,
                "end_time": 5.3181818,
                "pitch": 48,
                "velocity": 64,
                "duration": 0.0840909,
                "tempo": 120.0
            },
            {
                "start_time": 5.3181818,
                "end_time": 5.3681818,
                "pitch": 48,
                "velocity": 64,
                "duration": 0.05,
                "tempo": 120.0
            },
            {
                "start_time": 5.2340909,
                "end_time": 5.3681818,
                "pitch": 52,
                "velocity": 64,
                "duration": 0.1340909,
                "tempo": 120.0
            },
            {
                "start_time": 5.3181818,
                "end_time": 5.4522727,
                "pitch": 36,
                "velocity": 64,
                "duration": 0.1340909,
                "tempo": 120.0
            },
            {
                "start_time": 5.3681818,
                "end_time": 5.4522727,
                "pitch": 48,
                "velocity": 64,
                "duration": 0.0840909,
                "tempo": 120.0
            },
            {
                "start_time": 5.4522727,
                "end_time": 5.5022727,
                "pitch": 48,
                "velocity": 64,
                "duration": 0.05,
                "tempo": 120.0
            },
            {
                "start_time": 5.5022727,
                "end_time": 5.5840909,
                "pitch": 48,
                "velocity": 64,
                "duration": 0.0818182,
                "tempo": 120.0
            },
            {
                "start_time": 5.4522727,
                "end_time": 5.5863636,
                "pitch": 36,
                "velocity": 64,
                "duration": 0.1340909,
                "tempo": 120.0
            },
            {
                "start_time": 5.5840909,
                "end_time": 5.5863636,
                "pitch": 36,
                "velocity": 64,
                "duration": 0.0022727,
                "tempo": 120.0
            },
            {
                "start_time": 5.5863636,
                "end_time": 5.6363636,
                "pitch": 48,
                "velocity": 64,
                "duration": 0.05,
                "tempo": 120.0
            },
            {
                "start_time": 5.3681818,
                "end_time": 5.6363636,
                "pitch": 52,
                "velocity": 64,
                "duration": 0.2681818,
                "tempo": 120.0
            },
            {
                "start_time": 5.6363636,
                "end_time": 5.7181818,
                "pitch": 48,
                "velocity": 64,
                "duration": 0.0818182,
                "tempo": 120.0
            },
            {
                "start_time": 5.7181818,
                "end_time": 5.7704545,
                "pitch": 48,
                "velocity": 64,
                "duration": 0.0522727,
                "tempo": 120.0
            },
            {
                "start_time": 5.7704545,
                "end_time": 5.7863636,
                "pitch": 48,
                "velocity": 64,
                "duration": 0.0159091,
                "tempo": 120.0
            },
            {
                "start_time": 5.7863636,
                "end_time": 6.5954545,
                "pitch": 47,
                "velocity": 64,
                "duration": 0.8090909,
                "tempo": 120.0
            },
            {
                "start_time": 5.7181818,
                "end_time": 6.8136364,
                "pitch": 36,
                "velocity": 64,
                "duration": 1.0954545,
                "tempo": 120.0
            },
            {
                "start_time": 6.5977273,
                "end_time": 6.8136364,
                "pitch": 48,
                "velocity": 64,
                "duration": 0.2159091,
                "tempo": 120.0
            },
            {
                "start_time": 6.8136364,
                "end_time": 6.8636364,
                "pitch": 48,
                "velocity": 64,
                "duration": 0.05,
                "tempo": 120.0
            },
            {
                "start_time": 6.8136364,
                "end_time": 6.9477273,
                "pitch": 36,
                "velocity": 64,
                "duration": 0.1340909,
                "tempo": 120.0
            },
            {
                "start_time": 6.8636364,
                "end_time": 6.9477273,
                "pitch": 48,
                "velocity": 64,
                "duration": 0.0840909,
                "tempo": 120.0
            },
            {
                "start_time": 6.9477273,
                "end_time": 6.9977273,
                "pitch": 48,
                "velocity": 64,
                "duration": 0.05,
                "tempo": 120.0
            },
            {
                "start_time": 6.9477273,
                "end_time": 7.0840909,
                "pitch": 36,
                "velocity": 64,
                "duration": 0.1363636,
                "tempo": 120.0
            },
            {
                "start_time": 6.9977273,
                "end_time": 7.0840909,
                "pitch": 48,
                "velocity": 64,
                "duration": 0.0863636,
                "tempo": 120.0
            },
            {
                "start_time": 7.0840909,
                "end_time": 7.1363636,
                "pitch": 48,
                "velocity": 64,
                "duration": 0.0522727,
                "tempo": 120.0
            },
            {
                "start_time": 5.6363636,
                "end_time": 7.1363636,
                "pitch": 52,
                "velocity": 64,
                "duration": 1.5,
                "tempo": 120.0
            },
            {
                "start_time": 7.1363636,
                "end_time": 7.225,
                "pitch": 48,
                "velocity": 64,
                "duration": 0.0886364,
                "tempo": 120.0
            },
            {
                "start_time": 7.225,
                "end_time": 7.2772727,
                "pitch": 48,
                "velocity": 64,
                "duration": 0.0522727,
                "tempo": 120.0
            },
            {
                "start_time": 7.1363636,
                "end_time": 7.2772727,
                "pitch": 52,
                "velocity": 64,
                "duration": 0.1409091,
                "tempo": 120.0
            },
            {
                "start_time": 7.2772727,
                "end_time": 7.3659091,
                "pitch": 48,
                "velocity": 64,
                "duration": 0.0886364,
                "tempo": 120.0
            },
            {
                "start_time": 7.3659091,
                "end_time": 7.4181818,
                "pitch": 48,
                "velocity": 64,
                "duration": 0.0522727,
                "tempo": 120.0
            },
            {
                "start_time": 7.2772727,
                "end_time": 7.4181818,
                "pitch": 52,
                "velocity": 64,
                "duration": 0.1409091,
                "tempo": 120.0
            },
            {
                "start_time": 7.4181818,
                "end_time": 7.4363636,
                "pitch": 48,
                "velocity": 64,
                "duration": 0.0181818,
                "tempo": 120.0
            },
            {
                "start_time": 7.4363636,
                "end_time": 7.6318182,
                "pitch": 53,
                "velocity": 64,
                "duration": 0.1954545,
                "tempo": 120.0
            },
            {
                "start_time": 7.4181818,
                "end_time": 7.7295455,
                "pitch": 52,
                "velocity": 64,
                "duration": 0.3113636,
                "tempo": 120.0
            },
            {
                "start_time": 7.6318182,
                "end_time": 7.7295455,
                "pitch": 52,
                "velocity": 64,
                "duration": 0.0977273,
                "tempo": 120.0
            },
            {
                "start_time": 7.0840909,
                "end_time": 7.9454545,
                "pitch": 36,
                "velocity": 64,
                "duration": 0.8613636,
                "tempo": 120.0
            },
            {
                "start_time": 7.7295455,
                "end_time": 7.9454545,
                "pitch": 48,
                "velocity": 64,
                "duration": 0.2159091,
                "tempo": 120.0
            },
            {
                "start_time": 7.9454545,
                "end_time": 7.9977273,
                "pitch": 48,
                "velocity": 64,
                "duration": 0.0522727,
                "tempo": 120.0
            },
            {
                "start_time": 7.9977273,
                "end_time": 8.0318182,
                "pitch": 48,
                "velocity": 64,
                "duration": 0.0340909,
                "tempo": 120.0
            },
            {
                "start_time": 8.0318182,
                "end_time": 8.2363636,
                "pitch": 50,
                "velocity": 64,
                "duration": 0.2045455,
                "tempo": 120.0
            },
            {
                "start_time": 7.9454545,
                "end_time": 8.4545455,
                "pitch": 36,
                "velocity": 64,
                "duration": 0.5090909,
                "tempo": 120.0
            },
            {
                "start_time": 8.2386364,
                "end_time": 8.4545455,
                "pitch": 48,
                "velocity": 64,
                "duration": 0.2159091,
                "tempo": 120.0
            },
            {
                "start_time": 8.4545455,
                "end_time": 8.5022727,
                "pitch": 48,
                "velocity": 64,
                "duration": 0.0477273,
                "tempo": 120.0
            },
            {
                "start_time": 8.5022727,
                "end_time": 8.5863636,
                "pitch": 48,
                "velocity": 64,
                "duration": 0.0840909,
                "tempo": 120.0
            },
            {
                "start_time": 8.5863636,
                "end_time": 8.6363636,
                "pitch": 48,
                "velocity": 64,
                "duration": 0.05,
                "tempo": 120.0
            },
            {
                "start_time": 8.4545455,
                "end_time": 8.7204545,
                "pitch": 36,
                "velocity": 64,
                "duration": 0.2659091,
                "tempo": 120.0
            },
            {
                "start_time": 8.6363636,
                "end_time": 8.7204545,
                "pitch": 48,
                "velocity": 64,
                "duration": 0.0840909,
                "tempo": 120.0
            },
            {
                "start_time": 8.7204545,
                "end_time": 8.7727273,
                "pitch": 48,
                "velocity": 64,
                "duration": 0.0522727,
                "tempo": 120.0
            },
            {
                "start_time": 8.7204545,
                "end_time": 8.8590909,
                "pitch": 36,
                "velocity": 64,
                "duration": 0.1386364,
                "tempo": 120.0
            },
            {
                "start_time": 8.7727273,
                "end_time": 8.8590909,
                "pitch": 48,
                "velocity": 64,
                "duration": 0.0863636,
                "tempo": 120.0
            },
            {
                "start_time": 8.8590909,
                "end_time": 8.9090909,
                "pitch": 48,
                "velocity": 64,
                "duration": 0.05,
                "tempo": 120.0
            },
            {
                "start_time": 8.8590909,
                "end_time": 8.9954545,
                "pitch": 36,
                "velocity": 64,
                "duration": 0.1363636,
                "tempo": 120.0
            },
            {
                "start_time": 8.9090909,
                "end_time": 8.9954545,
                "pitch": 48,
                "velocity": 64,
                "duration": 0.0863636,
                "tempo": 120.0
            },
            {
                "start_time": 8.9954545,
                "end_time": 9.0454545,
                "pitch": 48,
                "velocity": 64,
                "duration": 0.05,
                "tempo": 120.0
            },
            {
                "start_time": 9.0454545,
                "end_time": 9.0636364,
                "pitch": 48,
                "velocity": 64,
                "duration": 0.0181818,
                "tempo": 120.0
            },
            {
                "start_time": 9.0636364,
                "end_time": 9.8840909,
                "pitch": 47,
                "velocity": 64,
                "duration": 0.8204545,
                "tempo": 120.0
            },
            {
                "start_time": 8.9954545,
                "end_time": 10.1113636,
                "pitch": 36,
                "velocity": 64,
                "duration": 1.1159091,
                "tempo": 120.0
            },
            {
                "start_time": 9.8840909,
                "end_time": 10.1113636,
                "pitch": 48,
                "velocity": 64,
                "duration": 0.2272727,
                "tempo": 120.0
            },
            {
                "start_time": 10.1113636,
                "end_time": 10.1636364,
                "pitch": 48,
                "velocity": 64,
                "duration": 0.0522727,
                "tempo": 120.0
            },
            {
                "start_time": 8.6363636,
                "end_time": 10.1636364,
                "pitch": 52,
                "velocity": 64,
                "duration": 1.5272727,
                "tempo": 120.0
            },
            {
                "start_time": 10.1113636,
                "end_time": 10.2522727,
                "pitch": 36,
                "velocity": 64,
                "duration": 0.1409091,
                "tempo": 120.0
            },
            {
                "start_time": 10.1636364,
                "end_time": 10.2522727,
                "pitch": 48,
                "velocity": 64,
                "duration": 0.0886364,
                "tempo": 120.0
            },
            {
                "start_time": 10.2522727,
                "end_time": 10.3068182,
                "pitch": 48,
                "velocity": 64,
                "duration": 0.0545455,
                "tempo": 120.0
            },
            {
                "start_time": 10.1636364,
                "end_time": 10.3068182,
                "pitch": 52,
                "velocity": 64,
                "duration": 0.1431818,
                "tempo": 120.0
            },
            {
                "start_time": 10.2522727,
                "end_time": 10.3886364,
                "pitch": 36,
                "velocity": 64,
                "duration": 0.1363636,
                "tempo": 120.0
            },
            {
                "start_time": 10.3068182,
                "end_time": 10.3886364,
                "pitch": 48,
                "velocity": 64,
                "duration": 0.0818182,
                "tempo": 120.0
            },
            {
                "start_time": 10.3886364,
                "end_time": 10.4386364,
                "pitch": 48,
                "velocity": 64,
                "duration": 0.05,
                "tempo": 120.0
            },
            {
                "start_time": 10.3068182,
                "end_time": 10.4386364,
                "pitch": 52,
                "velocity": 64,
                "duration": 0.1318182,
                "tempo": 120.0
            },
            {
                "start_time": 10.4386364,
                "end_time": 10.5227273,
                "pitch": 48,
                "velocity": 64,
                "duration": 0.0840909,
                "tempo": 120.0
            },
            {
                "start_time": 10.5227273,
                "end_time": 10.5727273,
                "pitch": 48,
                "velocity": 64,
                "duration": 0.05,
                "tempo": 120.0
            },
            {
                "start_time": 10.4386364,
                "end_time": 10.5727273,
                "pitch": 52,
                "velocity": 64,
                "duration": 0.1340909,
                "tempo": 120.0
            },
            {
                "start_time": 10.3886364,
                "end_time": 10.6568182,
                "pitch": 36,
                "velocity": 64,
                "duration": 0.2681818,
                "tempo": 120.0
            },
            {
                "start_time": 10.5727273,
                "end_time": 10.6568182,
                "pitch": 48,
                "velocity": 64,
                "duration": 0.0840909,
                "tempo": 120.0
            },
            {
                "start_time": 10.6568182,
                "end_time": 10.7068182,
                "pitch": 48,
                "velocity": 64,
                "duration": 0.05,
                "tempo": 120.0
            },
            {
                "start_time": 10.7090909,
                "end_time": 10.9022727,
                "pitch": 53,
                "velocity": 64,
                "duration": 0.1931818,
                "tempo": 120.0
            },
            {
                "start_time": 10.5727273,
                "end_time": 11.0,
                "pitch": 52,
                "velocity": 64,
                "duration": 0.4272727,
                "tempo": 120.0
            },
            {
                "start_time": 10.9045455,
                "end_time": 11.0,
                "pitch": 52,
                "velocity": 64,
                "duration": 0.0954545,
                "tempo": 120.0
            },
            {
                "start_time": 10.6568182,
                "end_time": 11.2204545,
                "pitch": 36,
                "velocity": 64,
                "duration": 0.5636364,
                "tempo": 120.0
            },
            {
                "start_time": 11.0022727,
                "end_time": 11.2204545,
                "pitch": 48,
                "velocity": 64,
                "duration": 0.2181818,
                "tempo": 120.0
            },
            {
                "start_time": 11.2204545,
                "end_time": 11.2727273,
                "pitch": 48,
                "velocity": 64,
                "duration": 0.0522727,
                "tempo": 120.0
            },
            {
                "start_time": 11.2727273,
                "end_time": 11.325,
                "pitch": 48,
                "velocity": 64,
                "duration": 0.0522727,
                "tempo": 120.0
            },
            {
                "start_time": 11.3272727,
                "end_time": 11.5363636,
                "pitch": 50,
                "velocity": 64,
                "duration": 0.2090909,
                "tempo": 120.0
            },
            {
                "start_time": 11.5363636,
                "end_time": 11.7522727,
                "pitch": 48,
                "velocity": 64,
                "duration": 0.2159091,
                "tempo": 120.0
            },
            {
                "start_time": 11.7522727,
                "end_time": 11.8022727,
                "pitch": 48,
                "velocity": 64,
                "duration": 0.05,
                "tempo": 120.0
            },
            {
                "start_time": 11.2727273,
                "end_time": 11.8022727,
                "pitch": 52,
                "velocity": 64,
                "duration": 0.5295455,
                "tempo": 120.0
            },
            {
                "start_time": 11.2204545,
                "end_time": 11.8863636,
                "pitch": 36,
                "velocity": 64,
                "duration": 0.6659091,
                "tempo": 120.0
            },
            {
                "start_time": 11.8022727,
                "end_time": 11.8863636,
                "pitch": 48,
                "velocity": 64,
                "duration": 0.0840909,
                "tempo": 120.0
            },
            {
                "start_time": 11.8863636,
                "end_time": 11.9363636,
                "pitch": 48,
                "velocity": 64,
                "duration": 0.05,
                "tempo": 120.0
            },
            {
                "start_time": 11.8022727,
                "end_time": 11.9363636,
                "pitch": 52,
                "velocity": 64,
                "duration": 0.1340909,
                "tempo": 120.0
            },
            {
                "start_time": 11.8863636,
                "end_time": 12.0181818,
                "pitch": 36,
                "velocity": 64,
                "duration": 0.1318182,
                "tempo": 120.0
            },
            {
                "start_time": 11.9363636,
                "end_time": 12.0181818,
                "pitch": 48,
                "velocity": 64,
                "duration": 0.0818182,
                "tempo": 120.0
            },
            {
                "start_time": 12.0181818,
                "end_time": 12.0704545,
                "pitch": 48,
                "velocity": 64,
                "duration": 0.0522727,
                "tempo": 120.0
            },
            {
                "start_time": 12.0181818,
                "end_time": 12.1522727,
                "pitch": 36,
                "velocity": 64,
                "duration": 0.1340909,
                "tempo": 120.0
            },
            {
                "start_time": 12.0704545,
                "end_time": 12.1522727,
                "pitch": 48,
                "velocity": 64,
                "duration": 0.0818182,
                "tempo": 120.0
            },
            {
                "start_time": 12.1522727,
                "end_time": 12.2045455,
                "pitch": 48,
                "velocity": 64,
                "duration": 0.0522727,
                "tempo": 120.0
            },
            {
                "start_time": 11.9363636,
                "end_time": 12.2045455,
                "pitch": 52,
                "velocity": 64,
                "duration": 0.2681818,
                "tempo": 120.0
            },
            {
                "start_time": 12.1522727,
                "end_time": 12.2863636,
                "pitch": 36,
                "velocity": 64,
                "duration": 0.1340909,
                "tempo": 120.0
            },
            {
                "start_time": 12.2045455,
                "end_time": 12.2863636,
                "pitch": 48,
                "velocity": 64,
                "duration": 0.0818182,
                "tempo": 120.0
            },
            {
                "start_time": 12.2863636,
                "end_time": 12.3363636,
                "pitch": 48,
                "velocity": 64,
                "duration": 0.05,
                "tempo": 120.0
            },
            {
                "start_time": 12.3363636,
                "end_time": 12.3545455,
                "pitch": 48,
                "velocity": 64,
                "duration": 0.0181818,
                "tempo": 120.0
            },
            {
                "start_time": 12.3545455,
                "end_time": 13.1659091,
                "pitch": 47,
                "velocity": 64,
                "duration": 0.8113636,
                "tempo": 120.0
            },
            {
                "start_time": 12.2863636,
                "end_time": 13.3840909,
                "pitch": 36,
                "velocity": 64,
                "duration": 1.0977273,
                "tempo": 120.0
            },
            {
                "start_time": 13.1681818,
                "end_time": 13.3840909,
                "pitch": 48,
                "velocity": 64,
                "duration": 0.2159091,
                "tempo": 120.0
            },
            {
                "start_time": 13.3840909,
                "end_time": 13.4340909,
                "pitch": 48,
                "velocity": 64,
                "duration": 0.05,
                "tempo": 120.0
            },
            {
                "start_time": 12.2045455,
                "end_time": 13.4340909,
                "pitch": 52,
                "velocity": 64,
                "duration": 1.2295455,
                "tempo": 120.0
            },
            {
                "start_time": 13.3840909,
                "end_time": 13.5181818,
                "pitch": 36,
                "velocity": 64,
                "duration": 0.1340909,
                "tempo": 120.0
            },
            {
                "start_time": 13.4340909,
                "end_time": 13.5181818,
                "pitch": 48,
                "velocity": 64,
                "duration": 0.0840909,
                "tempo": 120.0
            },
            {
                "start_time": 13.5181818,
                "end_time": 13.5681818,
                "pitch": 48,
                "velocity": 64,
                "duration": 0.05,
                "tempo": 120.0
            },
            {
                "start_time": 13.4340909,
                "end_time": 13.5681818,
                "pitch": 52,
                "velocity": 64,
                "duration": 0.1340909,
                "tempo": 120.0
            },
            {
                "start_time": 13.5181818,
                "end_time": 13.6545455,
                "pitch": 36,
                "velocity": 64,
                "duration": 0.1363636,
                "tempo": 120.0
            },
            {
                "start_time": 13.5681818,
                "end_time": 13.6545455,
                "pitch": 48,
                "velocity": 64,
                "duration": 0.0863636,
                "tempo": 120.0
            },
            {
                "start_time": 13.6545455,
                "end_time": 13.7068182,
                "pitch": 48,
                "velocity": 64,
                "duration": 0.0522727,
                "tempo": 120.0
            },
            {
                "start_time": 13.5681818,
                "end_time": 13.7068182,
                "pitch": 52,
                "velocity": 64,
                "duration": 0.1386364,
                "tempo": 120.0
            },
            {
                "start_time": 13.7068182,
                "end_time": 13.7954545,
                "pitch": 48,
                "velocity": 64,
                "duration": 0.0886364,
                "tempo": 120.0
            },
            {
                "start_time": 13.7954545,
                "end_time": 13.8477273,
                "pitch": 48,
                "velocity": 64,
                "duration": 0.0522727,
                "tempo": 120.0
            },
            {
                "start_time": 13.6545455,
                "end_time": 13.9363636,
                "pitch": 36,
                "velocity": 64,
                "duration": 0.2818182,
                "tempo": 120.0
            },
            {
                "start_time": 13.8477273,
                "end_time": 13.9363636,
                "pitch": 48,
                "velocity": 64,
                "duration": 0.0886364,
                "tempo": 120.0
            },
            {
                "start_time": 13.9363636,
                "end_time": 13.9886364,
                "pitch": 48,
                "velocity": 64,
                "duration": 0.0522727,
                "tempo": 120.0
            },
            {
                "start_time": 13.7068182,
                "end_time": 13.9886364,
                "pitch": 52,
                "velocity": 64,
                "duration": 0.2818182,
                "tempo": 120.0
            },
            {
                "start_time": 13.9886364,
                "end_time": 14.0068182,
                "pitch": 48,
                "velocity": 64,
                "duration": 0.0181818,
                "tempo": 120.0
            },
            {
                "start_time": 14.0068182,
                "end_time": 14.2068182,
                "pitch": 53,
                "velocity": 64,
                "duration": 0.2,
                "tempo": 120.0
            },
            {
                "start_time": 13.9886364,
                "end_time": 14.3068182,
                "pitch": 52,
                "velocity": 64,
                "duration": 0.3181818,
                "tempo": 120.0
            },
            {
                "start_time": 14.2068182,
                "end_time": 14.3068182,
                "pitch": 52,
                "velocity": 64,
                "duration": 0.1,
                "tempo": 120.0
            },
            {
                "start_time": 13.9363636,
                "end_time": 14.5227273,
                "pitch": 36,
                "velocity": 64,
                "duration": 0.5863636,
                "tempo": 120.0
            },
            {
                "start_time": 14.3068182,
                "end_time": 14.5227273,
                "pitch": 48,
                "velocity": 64,
                "duration": 0.2159091,
                "tempo": 120.0
            },
            {
                "start_time": 14.5227273,
                "end_time": 14.5727273,
                "pitch": 48,
                "velocity": 64,
                "duration": 0.05,
                "tempo": 120.0
            },
            {
                "start_time": 14.5727273,
                "end_time": 14.6068182,
                "pitch": 48,
                "velocity": 64,
                "duration": 0.0340909,
                "tempo": 120.0
            },
            {
                "start_time": 14.6068182,
                "end_time": 14.8068182,
                "pitch": 50,
                "velocity": 64,
                "duration": 0.2,
                "tempo": 120.0
            },
            {
                "start_time": 14.5227273,
                "end_time": 15.025,
                "pitch": 36,
                "velocity": 64,
                "duration": 0.5022727,
                "tempo": 120.0
            },
            {
                "start_time": 14.8090909,
                "end_time": 15.025,
                "pitch": 48,
                "velocity": 64,
                "duration": 0.2159091,
                "tempo": 120.0
            },
            {
                "start_time": 15.025,
                "end_time": 15.075,
                "pitch": 48,
                "velocity": 64,
                "duration": 0.05,
                "tempo": 120.0
            },
            {
                "start_time": 15.025,
                "end_time": 15.1590909,
                "pitch": 36,
                "velocity": 64,
                "duration": 0.1340909,
                "tempo": 120.0
            },
            {
                "start_time": 15.075,
                "end_time": 15.1590909,
                "pitch": 48,
                "velocity": 64,
                "duration": 0.0840909,
                "tempo": 120.0
            },
            {
                "start_time": 15.1590909,
                "end_time": 15.2090909,
                "pitch": 48,
                "velocity": 64,
                "duration": 0.05,
                "tempo": 120.0
            },
            {
                "start_time": 15.1590909,
                "end_time": 15.2954545,
                "pitch": 36,
                "velocity": 64,
                "duration": 0.1363636,
                "tempo": 120.0
            },
            {
                "start_time": 15.2090909,
                "end_time": 15.2954545,
                "pitch": 48,
                "velocity": 64,
                "duration": 0.0863636,
                "tempo": 120.0
            },
            {
                "start_time": 15.2954545,
                "end_time": 15.3454545,
                "pitch": 48,
                "velocity": 64,
                "duration": 0.05,
                "tempo": 120.0
            },
            {
                "start_time": 15.2954545,
                "end_time": 15.4318182,
                "pitch": 36,
                "velocity": 64,
                "duration": 0.1363636,
                "tempo": 120.0
            },
            {
                "start_time": 15.3454545,
                "end_time": 15.4318182,
                "pitch": 48,
                "velocity": 64,
                "duration": 0.0863636,
                "tempo": 120.0
            },
            {
                "start_time": 15.4318182,
                "end_time": 15.4818182,
                "pitch": 48,
                "velocity": 64,
                "duration": 0.05,
                "tempo": 120.0
            },
            {
                "start_time": 15.4818182,
                "end_time": 15.5681818,
                "pitch": 48,
                "velocity": 64,
                "duration": 0.0863636,
                "tempo": 120.0
            },
            {
                "start_time": 15.5681818,
                "end_time": 15.6204545,
                "pitch": 48,
                "velocity": 64,
                "duration": 0.0522727,
                "tempo": 120.0
            },
            {
                "start_time": 15.6204545,
                "end_time": 15.6363636,
                "pitch": 48,
                "velocity": 64,
                "duration": 0.0159091,
                "tempo": 120.0
            },
            {
                "start_time": 15.6363636,
                "end_time": 16.4568182,
                "pitch": 47,
                "velocity": 64,
                "duration": 0.8204545,
                "tempo": 120.0
            },
            {
                "start_time": 16.4590909,
                "end_time": 16.5590909,
                "pitch": 45,
                "velocity": 64,
                "duration": 0.1,
                "tempo": 120.0
            },
            {
                "start_time": 16.5590909,
                "end_time": 16.6613636,
                "pitch": 50,
                "velocity": 64,
                "duration": 0.1022727,
                "tempo": 120.0
            },
            {
                "start_time": 16.6636364,
                "end_time": 17.2772727,
                "pitch": 57,
                "velocity": 64,
                "duration": 0.6136364,
                "tempo": 120.0
            },
            {
                "start_time": 17.8954545,
                "end_time": 18.0,
                "pitch": 48,
                "velocity": 64,
                "duration": 0.1045455,
                "tempo": 120.0
            },
            {
                "start_time": 18.0022727,
                "end_time": 18.1068182,
                "pitch": 53,
                "velocity": 64,
                "duration": 0.1045455,
                "tempo": 120.0
            },
            {
                "start_time": 18.1068182,
                "end_time": 18.3227273,
                "pitch": 60,
                "velocity": 64,
                "duration": 0.2159091,
                "tempo": 120.0
            },
            {
                "start_time": 18.3227273,
                "end_time": 18.3727273,
                "pitch": 60,
                "velocity": 64,
                "duration": 0.05,
                "tempo": 120.0
            },
            {
                "start_time": 18.3227273,
                "end_time": 18.4568182,
                "pitch": 48,
                "velocity": 64,
                "duration": 0.1340909,
                "tempo": 120.0
            },
            {
                "start_time": 18.3727273,
                "end_time": 18.4568182,
                "pitch": 60,
                "velocity": 64,
                "duration": 0.0840909,
                "tempo": 120.0
            },
            {
                "start_time": 18.4568182,
                "end_time": 18.5068182,
                "pitch": 60,
                "velocity": 64,
                "duration": 0.05,
                "tempo": 120.0
            },
            {
                "start_time": 18.3727273,
                "end_time": 18.5068182,
                "pitch": 64,
                "velocity": 64,
                "duration": 0.1340909,
                "tempo": 120.0
            },
            {
                "start_time": 18.4568182,
                "end_time": 18.5886364,
                "pitch": 48,
                "velocity": 64,
                "duration": 0.1318182,
                "tempo": 120.0
            },
            {
                "start_time": 18.5068182,
                "end_time": 18.5886364,
                "pitch": 60,
                "velocity": 64,
                "duration": 0.0818182,
                "tempo": 120.0
            },
            {
                "start_time": 18.5886364,
                "end_time": 18.6409091,
                "pitch": 60,
                "velocity": 64,
                "duration": 0.0522727,
                "tempo": 120.0
            },
            {
                "start_time": 18.5068182,
                "end_time": 18.6409091,
                "pitch": 64,
                "velocity": 64,
                "duration": 0.1340909,
                "tempo": 120.0
            },
            {
                "start_time": 18.5886364,
                "end_time": 18.725,
                "pitch": 48,
                "velocity": 64,
                "duration": 0.1363636,
                "tempo": 120.0
            },
            {
                "start_time": 18.6409091,
                "end_time": 18.725,
                "pitch": 60,
                "velocity": 64,
                "duration": 0.0840909,
                "tempo": 120.0
            },
            {
                "start_time": 18.725,
                "end_time": 18.7727273,
                "pitch": 60,
                "velocity": 64,
                "duration": 0.0477273,
                "tempo": 120.0
            },
            {
                "start_time": 18.6409091,
                "end_time": 18.7727273,
                "pitch": 64,
                "velocity": 64,
                "duration": 0.1318182,
                "tempo": 120.0
            },
            {
                "start_time": 18.725,
                "end_time": 18.8568182,
                "pitch": 48,
                "velocity": 64,
                "duration": 0.1318182,
                "tempo": 120.0
            },
            {
                "start_time": 18.7727273,
                "end_time": 18.8568182,
                "pitch": 60,
                "velocity": 64,
                "duration": 0.0840909,
                "tempo": 120.0
            },
            {
                "start_time": 18.8568182,
                "end_time": 18.9068182,
                "pitch": 60,
                "velocity": 64,
                "duration": 0.05,
                "tempo": 120.0
            },
            {
                "start_time": 18.7727273,
                "end_time": 18.9068182,
                "pitch": 64,
                "velocity": 64,
                "duration": 0.1340909,
                "tempo": 120.0
            },
            {
                "start_time": 18.9068182,
                "end_time": 18.925,
                "pitch": 60,
                "velocity": 64,
                "duration": 0.0181818,
                "tempo": 120.0
            },
            {
                "start_time": 19.1295455,
                "end_time": 19.3340909,
                "pitch": 60,
                "velocity": 64,
                "duration": 0.2045455,
                "tempo": 120.0
            },
            {
                "start_time": 19.3363636,
                "end_time": 19.5340909,
                "pitch": 59,
                "velocity": 64,
                "duration": 0.1977273,
                "tempo": 120.0
            },
            {
                "start_time": 19.5340909,
                "end_time": 19.7340909,
                "pitch": 55,
                "velocity": 64,
                "duration": 0.2,
                "tempo": 120.0
            },
            {
                "start_time": 19.7340909,
                "end_time": 19.8340909,
                "pitch": 45,
                "velocity": 64,
                "duration": 0.1,
                "tempo": 120.0
            },
            {
                "start_time": 19.8340909,
                "end_time": 19.9522727,
                "pitch": 50,
                "velocity": 64,
                "duration": 0.1181818,
                "tempo": 120.0
            },
            {
                "start_time": 19.9522727,
                "end_time": 20.575,
                "pitch": 57,
                "velocity": 64,
                "duration": 0.6227273,
                "tempo": 120.0
            },
            {
                "start_time": 18.8568182,
                "end_time": 21.2909091,
                "pitch": 48,
                "velocity": 64,
                "duration": 2.4340909,
                "tempo": 120.0
            },
            {
                "start_time": 21.1931818,
                "end_time": 21.2909091,
                "pitch": 48,
                "velocity": 64,
                "duration": 0.0977273,
                "tempo": 120.0
            },
            {
                "start_time": 21.2931818,
                "end_time": 21.3931818,
                "pitch": 53,
                "velocity": 64,
                "duration": 0.1,
                "tempo": 120.0
            },
            {
                "start_time": 21.3931818,
                "end_time": 21.6136364,
                "pitch": 60,
                "velocity": 64,
                "duration": 0.2204545,
                "tempo": 120.0
            },
            {
                "start_time": 21.6136364,
                "end_time": 21.6659091,
                "pitch": 60,
                "velocity": 64,
                "duration": 0.0522727,
                "tempo": 120.0
            },
            {
                "start_time": 18.9068182,
                "end_time": 21.6659091,
                "pitch": 64,
                "velocity": 64,
                "duration": 2.7590909,
                "tempo": 120.0
            },
            {
                "start_time": 21.6136364,
                "end_time": 21.75,
                "pitch": 48,
                "velocity": 64,
                "duration": 0.1363636,
                "tempo": 120.0
            },
            {
                "start_time": 21.6659091,
                "end_time": 21.75,
                "pitch": 60,
                "velocity": 64,
                "duration": 0.0840909,
                "tempo": 120.0
            },
            {
                "start_time": 21.75,
                "end_time": 21.8022727,
                "pitch": 60,
                "velocity": 64,
                "duration": 0.0522727,
                "tempo": 120.0
            },
            {
                "start_time": 21.6659091,
                "end_time": 21.8022727,
                "pitch": 64,
                "velocity": 64,
                "duration": 0.1363636,
                "tempo": 120.0
            },
            {
                "start_time": 21.75,
                "end_time": 21.8863636,
                "pitch": 48,
                "velocity": 64,
                "duration": 0.1363636,
                "tempo": 120.0
            },
            {
                "start_time": 21.8022727,
                "end_time": 21.8863636,
                "pitch": 60,
                "velocity": 64,
                "duration": 0.0840909,
                "tempo": 120.0
            },
            {
                "start_time": 21.8863636,
                "end_time": 21.9363636,
                "pitch": 60,
                "velocity": 64,
                "duration": 0.05,
                "tempo": 120.0
            },
            {
                "start_time": 21.8022727,
                "end_time": 21.9363636,
                "pitch": 64,
                "velocity": 64,
                "duration": 0.1340909,
                "tempo": 120.0
            },
            {
                "start_time": 21.9363636,
                "end_time": 22.0181818,
                "pitch": 60,
                "velocity": 64,
                "duration": 0.0818182,
                "tempo": 120.0
            },
            {
                "start_time": 22.0181818,
                "end_time": 22.0681818,
                "pitch": 60,
                "velocity": 64,
                "duration": 0.05,
                "tempo": 120.0
            },
            {
                "start_time": 21.9363636,
                "end_time": 22.0681818,
                "pitch": 64,
                "velocity": 64,
                "duration": 0.1318182,
                "tempo": 120.0
            },
            {
                "start_time": 21.8863636,
                "end_time": 22.1522727,
                "pitch": 48,
                "velocity": 64,
                "duration": 0.2659091,
                "tempo": 120.0
            },
            {
                "start_time": 22.0681818,
                "end_time": 22.1522727,
                "pitch": 60,
                "velocity": 64,
                "duration": 0.0840909,
                "tempo": 120.0
            },
            {
                "start_time": 22.1522727,
                "end_time": 22.2022727,
                "pitch": 60,
                "velocity": 64,
                "duration": 0.05,
                "tempo": 120.0
            },
            {
                "start_time": 22.4022727,
                "end_time": 22.6204545,
                "pitch": 60,
                "velocity": 64,
                "duration": 0.2181818,
                "tempo": 120.0
            },
            {
                "start_time": 22.6204545,
                "end_time": 22.8295455,
                "pitch": 59,
                "velocity": 64,
                "duration": 0.2090909,
                "tempo": 120.0
            },
            {
                "start_time": 22.8318182,
                "end_time": 23.0409091,
                "pitch": 55,
                "velocity": 64,
                "duration": 0.2090909,
                "tempo": 120.0
            },
            {
                "start_time": 15.4318182,
                "end_time": 23.2590909,
                "pitch": 36,
                "velocity": 64,
                "duration": 7.8272727,
                "tempo": 120.0
            },
            {
                "start_time": 22.1522727,
                "end_time": 23.2590909,
                "pitch": 48,
                "velocity": 64,
                "duration": 1.1068182,
                "tempo": 120.0
            },
            {
                "start_time": 23.0431818,
                "end_time": 23.2590909,
                "pitch": 48,
                "velocity": 64,
                "duration": 0.2159091,
                "tempo": 120.0
            },
            {
                "start_time": 23.2590909,
                "end_time": 23.3090909,
                "pitch": 48,
                "velocity": 64,
                "duration": 0.05,
                "tempo": 120.0
            },
            {
                "start_time": 23.3090909,
                "end_time": 23.3931818,
                "pitch": 48,
                "velocity": 64,
                "duration": 0.0840909,
                "tempo": 120.0
            },
            {
                "start_time": 23.3931818,
                "end_time": 23.4454545,
                "pitch": 48,
                "velocity": 64,
                "duration": 0.0522727,
                "tempo": 120.0
            },
            {
                "start_time": 23.3090909,
                "end_time": 23.4454545,
                "pitch": 52,
                "velocity": 64,
                "duration": 0.1363636,
                "tempo": 120.0
            },
            {
                "start_time": 23.2590909,
                "end_time": 23.5272727,
                "pitch": 36,
                "velocity": 64,
                "duration": 0.2681818,
                "tempo": 120.0
            },
            {
                "start_time": 23.4454545,
                "end_time": 23.5272727,
                "pitch": 48,
                "velocity": 64,
                "duration": 0.0818182,
                "tempo": 120.0
            },
            {
                "start_time": 23.5272727,
                "end_time": 23.5772727,
                "pitch": 48,
                "velocity": 64,
                "duration": 0.05,
                "tempo": 120.0
            },
            {
                "start_time": 23.4454545,
                "end_time": 23.5772727,
                "pitch": 52,
                "velocity": 64,
                "duration": 0.1318182,
                "tempo": 120.0
            },
            {
                "start_time": 23.5772727,
                "end_time": 23.6590909,
                "pitch": 48,
                "velocity": 64,
                "duration": 0.0818182,
                "tempo": 120.0
            },
            {
                "start_time": 23.6590909,
                "end_time": 23.7090909,
                "pitch": 48,
                "velocity": 64,
                "duration": 0.05,
                "tempo": 120.0
            },
            {
                "start_time": 23.5772727,
                "end_time": 23.7090909,
                "pitch": 52,
                "velocity": 64,
                "duration": 0.1318182,
                "tempo": 120.0
            },
            {
                "start_time": 23.5272727,
                "end_time": 23.7931818,
                "pitch": 36,
                "velocity": 64,
                "duration": 0.2659091,
                "tempo": 120.0
            },
            {
                "start_time": 23.7090909,
                "end_time": 23.7931818,
                "pitch": 48,
                "velocity": 64,
                "duration": 0.0840909,
                "tempo": 120.0
            },
            {
                "start_time": 23.7931818,
                "end_time": 23.8431818,
                "pitch": 48,
                "velocity": 64,
                "duration": 0.05,
                "tempo": 120.0
            },
            {
                "start_time": 23.7090909,
                "end_time": 23.8431818,
                "pitch": 52,
                "velocity": 64,
                "duration": 0.1340909,
                "tempo": 120.0
            },
            {
                "start_time": 23.8431818,
                "end_time": 23.8590909,
                "pitch": 48,
                "velocity": 64,
                "duration": 0.0159091,
                "tempo": 120.0
            },
            {
                "start_time": 23.8613636,
                "end_time": 24.0636364,
                "pitch": 53,
                "velocity": 64,
                "duration": 0.2022727,
                "tempo": 120.0
            },
            {
                "start_time": 23.8431818,
                "end_time": 24.1681818,
                "pitch": 52,
                "velocity": 64,
                "duration": 0.325,
                "tempo": 120.0
            },
            {
                "start_time": 24.0659091,
                "end_time": 24.1681818,
                "pitch": 52,
                "velocity": 64,
                "duration": 0.1022727,
                "tempo": 120.0
            },
            {
                "start_time": 23.7931818,
                "end_time": 24.3863636,
                "pitch": 36,
                "velocity": 64,
                "duration": 0.5931818,
                "tempo": 120.0
            },
            {
                "start_time": 24.1681818,
                "end_time": 24.3863636,
                "pitch": 48,
                "velocity": 64,
                "duration": 0.2181818,
                "tempo": 120.0
            },
            {
                "start_time": 24.3863636,
                "end_time": 24.4363636,
                "pitch": 48,
                "velocity": 64,
                "duration": 0.05,
                "tempo": 120.0
            },
            {
                "start_time": 24.4363636,
                "end_time": 24.4704545,
                "pitch": 48,
                "velocity": 64,
                "duration": 0.0340909,
                "tempo": 120.0
            },
            {
                "start_time": 24.4704545,
                "end_time": 24.6681818,
                "pitch": 50,
                "velocity": 64,
                "duration": 0.1977273,
                "tempo": 120.0
            },
            {
                "start_time": 24.6704545,
                "end_time": 24.8863636,
                "pitch": 48,
                "velocity": 64,
                "duration": 0.2159091,
                "tempo": 120.0
            },
            {
                "start_time": 24.8863636,
                "end_time": 24.9363636,
                "pitch": 48,
                "velocity": 64,
                "duration": 0.05,
                "tempo": 120.0
            },
            {
                "start_time": 24.4363636,
                "end_time": 24.9363636,
                "pitch": 52,
                "velocity": 64,
                "duration": 0.5,
                "tempo": 120.0
            },
            {
                "start_time": 24.3863636,
                "end_time": 25.0204545,
                "pitch": 36,
                "velocity": 64,
                "duration": 0.6340909,
                "tempo": 120.0
            },
            {
                "start_time": 24.9363636,
                "end_time": 25.0204545,
                "pitch": 48,
                "velocity": 64,
                "duration": 0.0840909,
                "tempo": 120.0
            },
            {
                "start_time": 25.0204545,
                "end_time": 25.0704545,
                "pitch": 48,
                "velocity": 64,
                "duration": 0.05,
                "tempo": 120.0
            },
            {
                "start_time": 24.9363636,
                "end_time": 25.0704545,
                "pitch": 52,
                "velocity": 64,
                "duration": 0.1340909,
                "tempo": 120.0
            },
            {
                "start_time": 25.0704545,
                "end_time": 25.1568182,
                "pitch": 48,
                "velocity": 64,
                "duration": 0.0863636,
                "tempo": 120.0
            },
            {
                "start_time": 25.1568182,
                "end_time": 25.2113636,
                "pitch": 48,
                "velocity": 64,
                "duration": 0.0545455,
                "tempo": 120.0
            },
            {
                "start_time": 25.0704545,
                "end_time": 25.2113636,
                "pitch": 52,
                "velocity": 64,
                "duration": 0.1409091,
                "tempo": 120.0
            },
            {
                "start_time": 25.0204545,
                "end_time": 25.3,
                "pitch": 36,
                "velocity": 64,
                "duration": 0.2795455,
                "tempo": 120.0
            },
            {
                "start_time": 25.2113636,
                "end_time": 25.3,
                "pitch": 48,
                "velocity": 64,
                "duration": 0.0886364,
                "tempo": 120.0
            },
            {
                "start_time": 25.3,
                "end_time": 25.35,
                "pitch": 48,
                "velocity": 64,
                "duration": 0.05,
                "tempo": 120.0
            },
            {
                "start_time": 25.2113636,
                "end_time": 25.35,
                "pitch": 52,
                "velocity": 64,
                "duration": 0.1386364,
                "tempo": 120.0
            },
            {
                "start_time": 25.35,
                "end_time": 25.4386364,
                "pitch": 48,
                "velocity": 64,
                "duration": 0.0886364,
                "tempo": 120.0
            },
            {
                "start_time": 25.4386364,
                "end_time": 25.4909091,
                "pitch": 48,
                "velocity": 64,
                "duration": 0.0522727,
                "tempo": 120.0
            },
            {
                "start_time": 25.35,
                "end_time": 25.4909091,
                "pitch": 52,
                "velocity": 64,
                "duration": 0.1409091,
                "tempo": 120.0
            },
            {
                "start_time": 25.4909091,
                "end_time": 25.5090909,
                "pitch": 48,
                "velocity": 64,
                "duration": 0.0181818,
                "tempo": 120.0
            },
            {
                "start_time": 25.5090909,
                "end_time": 26.3181818,
                "pitch": 47,
                "velocity": 64,
                "duration": 0.8090909,
                "tempo": 120.0
            },
            {
                "start_time": 25.3,
                "end_time": 26.5477273,
                "pitch": 36,
                "velocity": 64,
                "duration": 1.2477273,
                "tempo": 120.0
            },
            {
                "start_time": 26.3204545,
                "end_time": 26.5477273,
                "pitch": 48,
                "velocity": 64,
                "duration": 0.2272727,
                "tempo": 120.0
            },
            {
                "start_time": 26.5477273,
                "end_time": 26.6,
                "pitch": 48,
                "velocity": 64,
                "duration": 0.0522727,
                "tempo": 120.0
            },
            {
                "start_time": 25.4909091,
                "end_time": 26.6,
                "pitch": 52,
                "velocity": 64,
                "duration": 1.1090909,
                "tempo": 120.0
            },
            {
                "start_time": 26.5477273,
                "end_time": 26.6886364,
                "pitch": 36,
                "velocity": 64,
                "duration": 0.1409091,
                "tempo": 120.0
            },
            {
                "start_time": 26.6,
                "end_time": 26.6886364,
                "pitch": 48,
                "velocity": 64,
                "duration": 0.0886364,
                "tempo": 120.0
            },
            {
                "start_time": 26.6886364,
                "end_time": 26.7409091,
                "pitch": 48,
                "velocity": 64,
                "duration": 0.0522727,
                "tempo": 120.0
            },
            {
                "start_time": 26.6,
                "end_time": 26.7409091,
                "pitch": 52,
                "velocity": 64,
                "duration": 0.1409091,
                "tempo": 120.0
            },
            {
                "start_time": 26.6886364,
                "end_time": 26.8227273,
                "pitch": 36,
                "velocity": 64,
                "duration": 0.1340909,
                "tempo": 120.0
            },
            {
                "start_time": 26.7409091,
                "end_time": 26.8227273,
                "pitch": 48,
                "velocity": 64,
                "duration": 0.0818182,
                "tempo": 120.0
            },
            {
                "start_time": 26.8227273,
                "end_time": 26.8727273,
                "pitch": 48,
                "velocity": 64,
                "duration": 0.05,
                "tempo": 120.0
            },
            {
                "start_time": 26.7409091,
                "end_time": 26.8727273,
                "pitch": 52,
                "velocity": 64,
                "duration": 0.1318182,
                "tempo": 120.0
            },
            {
                "start_time": 26.8227273,
                "end_time": 26.9568182,
                "pitch": 36,
                "velocity": 64,
                "duration": 0.1340909,
                "tempo": 120.0
            },
            {
                "start_time": 26.8727273,
                "end_time": 26.9568182,
                "pitch": 48,
                "velocity": 64,
                "duration": 0.0840909,
                "tempo": 120.0
            },
            {
                "start_time": 26.9568182,
                "end_time": 27.0068182,
                "pitch": 48,
                "velocity": 64,
                "duration": 0.05,
                "tempo": 120.0
            },
            {
                "start_time": 26.8727273,
                "end_time": 27.0068182,
                "pitch": 52,
                "velocity": 64,
                "duration": 0.1340909,
                "tempo": 120.0
            },
            {
                "start_time": 26.9568182,
                "end_time": 27.0909091,
                "pitch": 36,
                "velocity": 64,
                "duration": 0.1340909,
                "tempo": 120.0
            },
            {
                "start_time": 27.0068182,
                "end_time": 27.0909091,
                "pitch": 48,
                "velocity": 64,
                "duration": 0.0840909,
                "tempo": 120.0
            },
            {
                "start_time": 27.0909091,
                "end_time": 27.1386364,
                "pitch": 48,
                "velocity": 64,
                "duration": 0.0477273,
                "tempo": 120.0
            },
            {
                "start_time": 27.1409091,
                "end_time": 27.3409091,
                "pitch": 53,
                "velocity": 64,
                "duration": 0.2,
                "tempo": 120.0
            },
            {
                "start_time": 27.0068182,
                "end_time": 27.4409091,
                "pitch": 52,
                "velocity": 64,
                "duration": 0.4340909,
                "tempo": 120.0
            },
            {
                "start_time": 27.3409091,
                "end_time": 27.4409091,
                "pitch": 52,
                "velocity": 64,
                "duration": 0.1,
                "tempo": 120.0
            },
            {
                "start_time": 27.0909091,
                "end_time": 27.6613636,
                "pitch": 36,
                "velocity": 64,
                "duration": 0.5704545,
                "tempo": 120.0
            },
            {
                "start_time": 27.4431818,
                "end_time": 27.6613636,
                "pitch": 48,
                "velocity": 64,
                "duration": 0.2181818,
                "tempo": 120.0
            },
            {
                "start_time": 27.6613636,
                "end_time": 27.7113636,
                "pitch": 48,
                "velocity": 64,
                "duration": 0.05,
                "tempo": 120.0
            },
            {
                "start_time": 27.7113636,
                "end_time": 27.7636364,
                "pitch": 48,
                "velocity": 64,
                "duration": 0.0522727,
                "tempo": 120.0
            },
            {
                "start_time": 27.7636364,
                "end_time": 27.9681818,
                "pitch": 50,
                "velocity": 64,
                "duration": 0.2045455,
                "tempo": 120.0
            },
            {
                "start_time": 27.6613636,
                "end_time": 28.1840909,
                "pitch": 36,
                "velocity": 64,
                "duration": 0.5227273,
                "tempo": 120.0
            },
            {
                "start_time": 27.9704545,
                "end_time": 28.1840909,
                "pitch": 48,
                "velocity": 64,
                "duration": 0.2136364,
                "tempo": 120.0
            },
            {
                "start_time": 28.1840909,
                "end_time": 28.2340909,
                "pitch": 48,
                "velocity": 64,
                "duration": 0.05,
                "tempo": 120.0
            },
            {
                "start_time": 28.2340909,
                "end_time": 28.3181818,
                "pitch": 48,
                "velocity": 64,
                "duration": 0.0840909,
                "tempo": 120.0
            },
            {
                "start_time": 28.3181818,
                "end_time": 28.3681818,
                "pitch": 48,
                "velocity": 64,
                "duration": 0.05,
                "tempo": 120.0
            },
            {
                "start_time": 27.7113636,
                "end_time": 28.3681818,
                "pitch": 52,
                "velocity": 64,
                "duration": 0.6568182,
                "tempo": 120.0
            },
            {
                "start_time": 28.3681818,
                "end_time": 28.4522727,
                "pitch": 48,
                "velocity": 64,
                "duration": 0.0840909,
                "tempo": 120.0
            },
            {
                "start_time": 28.4522727,
                "end_time": 28.5022727,
                "pitch": 48,
                "velocity": 64,
                "duration": 0.05,
                "tempo": 120.0
            },
            {
                "start_time": 28.3681818,
                "end_time": 28.5022727,
                "pitch": 52,
                "velocity": 64,
                "duration": 0.1340909,
                "tempo": 120.0
            },
            {
                "start_time": 28.5022727,
                "end_time": 28.5863636,
                "pitch": 48,
                "velocity": 64,
                "duration": 0.0840909,
                "tempo": 120.0
            },
            {
                "start_time": 28.5863636,
                "end_time": 28.6363636,
                "pitch": 48,
                "velocity": 64,
                "duration": 0.05,
                "tempo": 120.0
            },
            {
                "start_time": 28.5022727,
                "end_time": 28.6363636,
                "pitch": 52,
                "velocity": 64,
                "duration": 0.1340909,
                "tempo": 120.0
            },
            {
                "start_time": 28.1840909,
                "end_time": 28.7204545,
                "pitch": 36,
                "velocity": 64,
                "duration": 0.5363636,
                "tempo": 120.0
            },
            {
                "start_time": 28.6363636,
                "end_time": 28.7204545,
                "pitch": 48,
                "velocity": 64,
                "duration": 0.0840909,
                "tempo": 120.0
            },
            {
                "start_time": 28.7204545,
                "end_time": 28.7704545,
                "pitch": 48,
                "velocity": 64,
                "duration": 0.05,
                "tempo": 120.0
            },
            {
                "start_time": 28.7704545,
                "end_time": 29.6068182,
                "pitch": 47,
                "velocity": 64,
                "duration": 0.8363636,
                "tempo": 120.0
            },
            {
                "start_time": 29.6090909,
                "end_time": 29.8227273,
                "pitch": 48,
                "velocity": 64,
                "duration": 0.2136364,
                "tempo": 120.0
            },
            {
                "start_time": 29.8227273,
                "end_time": 29.8727273,
                "pitch": 48,
                "velocity": 64,
                "duration": 0.05,
                "tempo": 120.0
            },
            {
                "start_time": 28.6363636,
                "end_time": 29.8727273,
                "pitch": 52,
                "velocity": 64,
                "duration": 1.2363636,
                "tempo": 120.0
            },
            {
                "start_time": 28.7204545,
                "end_time": 29.9568182,
                "pitch": 36,
                "velocity": 64,
                "duration": 1.2363636,
                "tempo": 120.0
            },
            {
                "start_time": 29.8727273,
                "end_time": 29.9568182,
                "pitch": 48,
                "velocity": 64,
                "duration": 0.0840909,
                "tempo": 120.0
            },
            {
                "start_time": 29.9568182,
                "end_time": 30.0068182,
                "pitch": 48,
                "velocity": 64,
                "duration": 0.05,
                "tempo": 120.0
            },
            {
                "start_time": 29.8727273,
                "end_time": 30.0068182,
                "pitch": 52,
                "velocity": 64,
                "duration": 0.1340909,
                "tempo": 120.0
            },
            {
                "start_time": 30.0068182,
                "end_time": 30.0886364,
                "pitch": 48,
                "velocity": 64,
                "duration": 0.0818182,
                "tempo": 120.0
            },
            {
                "start_time": 30.0886364,
                "end_time": 30.1386364,
                "pitch": 48,
                "velocity": 64,
                "duration": 0.05,
                "tempo": 120.0
            },
            {
                "start_time": 30.0068182,
                "end_time": 30.1386364,
                "pitch": 52,
                "velocity": 64,
                "duration": 0.1318182,
                "tempo": 120.0
            },
            {
                "start_time": 29.9568182,
                "end_time": 30.2227273,
                "pitch": 36,
                "velocity": 64,
                "duration": 0.2659091,
                "tempo": 120.0
            },
            {
                "start_time": 30.1386364,
                "end_time": 30.2227273,
                "pitch": 48,
                "velocity": 64,
                "duration": 0.0840909,
                "tempo": 120.0
            },
            {
                "start_time": 30.2227273,
                "end_time": 30.2727273,
                "pitch": 48,
                "velocity": 64,
                "duration": 0.05,
                "tempo": 120.0
            },
            {
                "start_time": 30.2227273,
                "end_time": 30.3568182,
                "pitch": 36,
                "velocity": 64,
                "duration": 0.1340909,
                "tempo": 120.0
            },
            {
                "start_time": 30.2727273,
                "end_time": 30.3568182,
                "pitch": 48,
                "velocity": 64,
                "duration": 0.0840909,
                "tempo": 120.0
            },
            {
                "start_time": 30.3568182,
                "end_time": 30.4068182,
                "pitch": 48,
                "velocity": 64,
                "duration": 0.05,
                "tempo": 120.0
            },
            {
                "start_time": 30.4068182,
                "end_time": 30.4227273,
                "pitch": 48,
                "velocity": 64,
                "duration": 0.0159091,
                "tempo": 120.0
            },
            {
                "start_time": 30.4227273,
                "end_time": 30.6272727,
                "pitch": 53,
                "velocity": 64,
                "duration": 0.2045455,
                "tempo": 120.0
            },
            {
                "start_time": 30.1386364,
                "end_time": 30.7295455,
                "pitch": 52,
                "velocity": 64,
                "duration": 0.5909091,
                "tempo": 120.0
            },
            {
                "start_time": 30.6272727,
                "end_time": 30.7295455,
                "pitch": 52,
                "velocity": 64,
                "duration": 0.1022727,
                "tempo": 120.0
            },
            {
                "start_time": 30.3568182,
                "end_time": 30.95,
                "pitch": 36,
                "velocity": 64,
                "duration": 0.5931818,
                "tempo": 120.0
            },
            {
                "start_time": 30.7318182,
                "end_time": 30.95,
                "pitch": 48,
                "velocity": 64,
                "duration": 0.2181818,
                "tempo": 120.0
            },
            {
                "start_time": 30.95,
                "end_time": 31.0,
                "pitch": 48,
                "velocity": 64,
                "duration": 0.05,
                "tempo": 120.0
            },
            {
                "start_time": 31.0,
                "end_time": 31.0340909,
                "pitch": 48,
                "velocity": 64,
                "duration": 0.0340909,
                "tempo": 120.0
            },
            {
                "start_time": 31.0340909,
                "end_time": 31.2340909,
                "pitch": 50,
                "velocity": 64,
                "duration": 0.2,
                "tempo": 120.0
            },
            {
                "start_time": 30.95,
                "end_time": 31.45,
                "pitch": 36,
                "velocity": 64,
                "duration": 0.5,
                "tempo": 120.0
            },
            {
                "start_time": 31.2363636,
                "end_time": 31.45,
                "pitch": 48,
                "velocity": 64,
                "duration": 0.2136364,
                "tempo": 120.0
            },
            {
                "start_time": 31.45,
                "end_time": 31.5,
                "pitch": 48,
                "velocity": 64,
                "duration": 0.05,
                "tempo": 120.0
            },
            {
                "start_time": 31.45,
                "end_time": 31.5840909,
                "pitch": 36,
                "velocity": 64,
                "duration": 0.1340909,
                "tempo": 120.0
            },
            {
                "start_time": 31.5,
                "end_time": 31.5840909,
                "pitch": 48,
                "velocity": 64,
                "duration": 0.0840909,
                "tempo": 120.0
            },
            {
                "start_time": 31.5840909,
                "end_time": 31.6340909,
                "pitch": 48,
                "velocity": 64,
                "duration": 0.05,
                "tempo": 120.0
            },
            {
                "start_time": 31.0,
                "end_time": 31.6340909,
                "pitch": 52,
                "velocity": 64,
                "duration": 0.6340909,
                "tempo": 120.0
            },
            {
                "start_time": 31.6340909,
                "end_time": 31.7204545,
                "pitch": 48,
                "velocity": 64,
                "duration": 0.0863636,
                "tempo": 120.0
            },
            {
                "start_time": 31.7204545,
                "end_time": 31.7727273,
                "pitch": 48,
                "velocity": 64,
                "duration": 0.0522727,
                "tempo": 120.0
            },
            {
                "start_time": 31.5840909,
                "end_time": 31.8613636,
                "pitch": 36,
                "velocity": 64,
                "duration": 0.2772727,
                "tempo": 120.0
            },
            {
                "start_time": 31.7727273,
                "end_time": 31.8613636,
                "pitch": 48,
                "velocity": 64,
                "duration": 0.0886364,
                "tempo": 120.0
            },
            {
                "start_time": 31.8613636,
                "end_time": 31.9136364,
                "pitch": 48,
                "velocity": 64,
                "duration": 0.0522727,
                "tempo": 120.0
            },
            {
                "start_time": 31.6340909,
                "end_time": 31.9136364,
                "pitch": 52,
                "velocity": 64,
                "duration": 0.2795455,
                "tempo": 120.0
            },
            {
                "start_time": 31.8613636,
                "end_time": 32.0022727,
                "pitch": 36,
                "velocity": 64,
                "duration": 0.1409091,
                "tempo": 120.0
            },
            {
                "start_time": 31.9136364,
                "end_time": 32.0022727,
                "pitch": 48,
                "velocity": 64,
                "duration": 0.0886364,
                "tempo": 120.0
            },
            {
                "start_time": 32.0022727,
                "end_time": 32.0545455,
                "pitch": 48,
                "velocity": 64,
                "duration": 0.0522727,
                "tempo": 120.0
            },
            {
                "start_time": 31.9136364,
                "end_time": 32.0545455,
                "pitch": 52,
                "velocity": 64,
                "duration": 0.1409091,
                "tempo": 120.0
            },
            {
                "start_time": 32.0545455,
                "end_time": 32.0727273,
                "pitch": 48,
                "velocity": 64,
                "duration": 0.0181818,
                "tempo": 120.0
            },
            {
                "start_time": 32.0727273,
                "end_time": 32.8863636,
                "pitch": 47,
                "velocity": 64,
                "duration": 0.8136364,
                "tempo": 120.0
            },
            {
                "start_time": 32.0022727,
                "end_time": 33.1090909,
                "pitch": 36,
                "velocity": 64,
                "duration": 1.1068182,
                "tempo": 120.0
            },
            {
                "start_time": 32.8886364,
                "end_time": 33.1090909,
                "pitch": 48,
                "velocity": 64,
                "duration": 0.2204545,
                "tempo": 120.0
            },
            {
                "start_time": 33.1090909,
                "end_time": 33.1613636,
                "pitch": 48,
                "velocity": 64,
                "duration": 0.0522727,
                "tempo": 120.0
            },
            {
                "start_time": 32.0545455,
                "end_time": 33.1613636,
                "pitch": 52,
                "velocity": 64,
                "duration": 1.1068182,
                "tempo": 120.0
            },
            {
                "start_time": 33.1090909,
                "end_time": 33.2454545,
                "pitch": 36,
                "velocity": 64,
                "duration": 0.1363636,
                "tempo": 120.0
            },
            {
                "start_time": 33.1613636,
                "end_time": 33.2454545,
                "pitch": 48,
                "velocity": 64,
                "duration": 0.0840909,
                "tempo": 120.0
            },
            {
                "start_time": 33.2454545,
                "end_time": 33.2977273,
                "pitch": 48,
                "velocity": 64,
                "duration": 0.0522727,
                "tempo": 120.0
            },
            {
                "start_time": 33.1613636,
                "end_time": 33.2977273,
                "pitch": 52,
                "velocity": 64,
                "duration": 0.1363636,
                "tempo": 120.0
            },
            {
                "start_time": 33.2454545,
                "end_time": 33.3795455,
                "pitch": 36,
                "velocity": 64,
                "duration": 0.1340909,
                "tempo": 120.0
            },
            {
                "start_time": 33.2977273,
                "end_time": 33.3795455,
                "pitch": 48,
                "velocity": 64,
                "duration": 0.0818182,
                "tempo": 120.0
            },
            {
                "start_time": 33.3795455,
                "end_time": 33.4295455,
                "pitch": 48,
                "velocity": 64,
                "duration": 0.05,
                "tempo": 120.0
            },
            {
                "start_time": 33.2977273,
                "end_time": 33.4295455,
                "pitch": 52,
                "velocity": 64,
                "duration": 0.1318182,
                "tempo": 120.0
            },
            {
                "start_time": 33.3795455,
                "end_time": 33.5136364,
                "pitch": 36,
                "velocity": 64,
                "duration": 0.1340909,
                "tempo": 120.0
            },
            {
                "start_time": 33.4295455,
                "end_time": 33.5136364,
                "pitch": 48,
                "velocity": 64,
                "duration": 0.0840909,
                "tempo": 120.0
            },
            {
                "start_time": 33.5136364,
                "end_time": 33.5636364,
                "pitch": 48,
                "velocity": 64,
                "duration": 0.05,
                "tempo": 120.0
            },
            {
                "start_time": 33.4295455,
                "end_time": 33.5636364,
                "pitch": 52,
                "velocity": 64,
                "duration": 0.1340909,
                "tempo": 120.0
            },
            {
                "start_time": 33.5136364,
                "end_time": 33.6454545,
                "pitch": 36,
                "velocity": 64,
                "duration": 0.1318182,
                "tempo": 120.0
            },
            {
                "start_time": 33.5636364,
                "end_time": 33.6454545,
                "pitch": 48,
                "velocity": 64,
                "duration": 0.0818182,
                "tempo": 120.0
            },
            {
                "start_time": 33.6454545,
                "end_time": 33.6954545,
                "pitch": 48,
                "velocity": 64,
                "duration": 0.05,
                "tempo": 120.0
            },
            {
                "start_time": 33.6977273,
                "end_time": 33.8977273,
                "pitch": 53,
                "velocity": 64,
                "duration": 0.2,
                "tempo": 120.0
            },
            {
                "start_time": 33.5636364,
                "end_time": 33.9977273,
                "pitch": 52,
                "velocity": 64,
                "duration": 0.4340909,
                "tempo": 120.0
            },
            {
                "start_time": 33.8977273,
                "end_time": 33.9977273,
                "pitch": 52,
                "velocity": 64,
                "duration": 0.1,
                "tempo": 120.0
            },
            {
                "start_time": 33.6454545,
                "end_time": 34.2181818,
                "pitch": 36,
                "velocity": 64,
                "duration": 0.5727273,
                "tempo": 120.0
            },
            {
                "start_time": 33.9977273,
                "end_time": 34.2181818,
                "pitch": 48,
                "velocity": 64,
                "duration": 0.2204545,
                "tempo": 120.0
            },
            {
                "start_time": 34.2181818,
                "end_time": 34.2681818,
                "pitch": 48,
                "velocity": 64,
                "duration": 0.05,
                "tempo": 120.0
            },
            {
                "start_time": 34.2681818,
                "end_time": 34.3204545,
                "pitch": 48,
                "velocity": 64,
                "duration": 0.0522727,
                "tempo": 120.0
            },
            {
                "start_time": 34.3204545,
                "end_time": 34.525,
                "pitch": 50,
                "velocity": 64,
                "duration": 0.2045455,
                "tempo": 120.0
            },
            {
                "start_time": 34.2181818,
                "end_time": 34.7409091,
                "pitch": 36,
                "velocity": 64,
                "duration": 0.5227273,
                "tempo": 120.0
            },
            {
                "start_time": 34.5272727,
                "end_time": 34.7409091,
                "pitch": 48,
                "velocity": 64,
                "duration": 0.2136364,
                "tempo": 120.0
            },
            {
                "start_time": 34.7409091,
                "end_time": 34.7909091,
                "pitch": 48,
                "velocity": 64,
                "duration": 0.05,
                "tempo": 120.0
            },
            {
                "start_time": 34.7409091,
                "end_time": 34.875,
                "pitch": 36,
                "velocity": 64,
                "duration": 0.1340909,
                "tempo": 120.0
            },
            {
                "start_time": 34.7909091,
                "end_time": 34.875,
                "pitch": 48,
                "velocity": 64,
                "duration": 0.0840909,
                "tempo": 120.0
            },
            {
                "start_time": 34.875,
                "end_time": 34.925,
                "pitch": 48,
                "velocity": 64,
                "duration": 0.05,
                "tempo": 120.0
            },
            {
                "start_time": 34.2681818,
                "end_time": 34.925,
                "pitch": 52,
                "velocity": 64,
                "duration": 0.6568182,
                "tempo": 120.0
            },
            {
                "start_time": 34.925,
                "end_time": 35.0068182,
                "pitch": 48,
                "velocity": 64,
                "duration": 0.0818182,
                "tempo": 120.0
            },
            {
                "start_time": 35.0068182,
                "end_time": 35.0568182,
                "pitch": 48,
                "velocity": 64,
                "duration": 0.05,
                "tempo": 120.0
            },
            {
                "start_time": 34.925,
                "end_time": 35.0568182,
                "pitch": 52,
                "velocity": 64,
                "duration": 0.1318182,
                "tempo": 120.0
            },
            {
                "start_time": 35.0568182,
                "end_time": 35.1409091,
                "pitch": 48,
                "velocity": 64,
                "duration": 0.0840909,
                "tempo": 120.0
            },
            {
                "start_time": 35.1409091,
                "end_time": 35.1909091,
                "pitch": 48,
                "velocity": 64,
                "duration": 0.05,
                "tempo": 120.0
            },
            {
                "start_time": 35.0568182,
                "end_time": 35.1909091,
                "pitch": 52,
                "velocity": 64,
                "duration": 0.1340909,
                "tempo": 120.0
            },
            {
                "start_time": 34.875,
                "end_time": 35.2727273,
                "pitch": 36,
                "velocity": 64,
                "duration": 0.3977273,
                "tempo": 120.0
            },
            {
                "start_time": 35.1909091,
                "end_time": 35.2727273,
                "pitch": 48,
                "velocity": 64,
                "duration": 0.0818182,
                "tempo": 120.0
            },
            {
                "start_time": 35.2727273,
                "end_time": 35.3227273,
                "pitch": 48,
                "velocity": 64,
                "duration": 0.05,
                "tempo": 120.0
            },
            {
                "start_time": 35.325,
                "end_time": 36.1636364,
                "pitch": 47,
                "velocity": 64,
                "duration": 0.8386364,
                "tempo": 120.0
            },
            {
                "start_time": 36.1659091,
                "end_time": 36.2636364,
                "pitch": 57,
                "velocity": 64,
                "duration": 0.0977273,
                "tempo": 120.0
            },
            {
                "start_time": 36.2659091,
                "end_time": 36.3659091,
                "pitch": 57,
                "velocity": 64,
                "duration": 0.1,
                "tempo": 120.0
            },
            {
                "start_time": 36.3659091,
                "end_time": 36.5659091,
                "pitch": 55,
                "velocity": 64,
                "duration": 0.2,
                "tempo": 120.0
            },
            {
                "start_time": 35.1909091,
                "end_time": 36.8818182,
                "pitch": 52,
                "velocity": 64,
                "duration": 1.6909091,
                "tempo": 120.0
            },
            {
                "start_time": 36.7840909,
                "end_time": 36.8818182,
                "pitch": 52,
                "velocity": 64,
                "duration": 0.0977273,
                "tempo": 120.0
            },
            {
                "start_time": 36.8818182,
                "end_time": 36.9818182,
                "pitch": 52,
                "velocity": 64,
                "duration": 0.1,
                "tempo": 120.0
            },
            {
                "start_time": 36.9818182,
                "end_time": 37.0840909,
                "pitch": 57,
                "velocity": 64,
                "duration": 0.1022727,
                "tempo": 120.0
            },
            {
                "start_time": 37.0840909,
                "end_time": 37.1863636,
                "pitch": 57,
                "velocity": 64,
                "duration": 0.1022727,
                "tempo": 120.0
            },
            {
                "start_time": 37.1886364,
                "end_time": 37.3909091,
                "pitch": 55,
                "velocity": 64,
                "duration": 0.2022727,
                "tempo": 120.0
            },
            {
                "start_time": 35.2727273,
                "end_time": 37.6090909,
                "pitch": 36,
                "velocity": 64,
                "duration": 2.3363636,
                "tempo": 120.0
            },
            {
                "start_time": 37.3931818,
                "end_time": 37.6090909,
                "pitch": 48,
                "velocity": 64,
                "duration": 0.2159091,
                "tempo": 120.0
            },
            {
                "start_time": 37.6090909,
                "end_time": 37.6590909,
                "pitch": 48,
                "velocity": 64,
                "duration": 0.05,
                "tempo": 120.0
            },
            {
                "start_time": 37.6590909,
                "end_time": 37.7431818,
                "pitch": 48,
                "velocity": 64,
                "duration": 0.0840909,
                "tempo": 120.0
            },
            {
                "start_time": 37.7431818,
                "end_time": 37.7931818,
                "pitch": 48,
                "velocity": 64,
                "duration": 0.05,
                "tempo": 120.0
            },
            {
                "start_time": 37.7954545,
                "end_time": 37.9090909,
                "pitch": 57,
                "velocity": 64,
                "duration": 0.1136364,
                "tempo": 120.0
            },
            {
                "start_time": 37.9113636,
                "end_time": 38.0090909,
                "pitch": 57,
                "velocity": 64,
                "duration": 0.0977273,
                "tempo": 120.0
            },
            {
                "start_time": 38.0113636,
                "end_time": 38.2090909,
                "pitch": 55,
                "velocity": 64,
                "duration": 0.1977273,
                "tempo": 120.0
            },
            {
                "start_time": 38.4159091,
                "end_time": 38.5181818,
                "pitch": 50,
                "velocity": 64,
                "duration": 0.1022727,
                "tempo": 120.0
            },
            {
                "start_time": 37.6590909,
                "end_time": 38.6204545,
                "pitch": 52,
                "velocity": 64,
                "duration": 0.9613636,
                "tempo": 120.0
            },
            {
                "start_time": 38.5181818,
                "end_time": 38.6204545,
                "pitch": 52,
                "velocity": 64,
                "duration": 0.1022727,
                "tempo": 120.0
            },
            {
                "start_time": 38.6204545,
                "end_time": 38.7227273,
                "pitch": 57,
                "velocity": 64,
                "duration": 0.1022727,
                "tempo": 120.0
            },
            {
                "start_time": 38.7227273,
                "end_time": 38.825,
                "pitch": 57,
                "velocity": 64,
                "duration": 0.1022727,
                "tempo": 120.0
            },
            {
                "start_time": 38.8272727,
                "end_time": 39.0295455,
                "pitch": 55,
                "velocity": 64,
                "duration": 0.2022727,
                "tempo": 120.0
            },
            {
                "start_time": 39.0318182,
                "end_time": 39.4454545,
                "pitch": 52,
                "velocity": 64,
                "duration": 0.4136364,
                "tempo": 120.0
            },
            {
                "start_time": 39.4477273,
                "end_time": 39.5477273,
                "pitch": 57,
                "velocity": 64,
                "duration": 0.1,
                "tempo": 120.0
            },
            {
                "start_time": 39.5477273,
                "end_time": 39.6522727,
                "pitch": 57,
                "velocity": 64,
                "duration": 0.1045455,
                "tempo": 120.0
            },
            {
                "start_time": 39.6522727,
                "end_time": 39.8568182,
                "pitch": 55,
                "velocity": 64,
                "duration": 0.2045455,
                "tempo": 120.0
            },
            {
                "start_time": 40.0590909,
                "end_time": 40.1568182,
                "pitch": 52,
                "velocity": 64,
                "duration": 0.0977273,
                "tempo": 120.0
            },
            {
                "start_time": 40.1590909,
                "end_time": 40.2590909,
                "pitch": 52,
                "velocity": 64,
                "duration": 0.1,
                "tempo": 120.0
            },
            {
                "start_time": 40.2590909,
                "end_time": 40.3568182,
                "pitch": 57,
                "velocity": 64,
                "duration": 0.0977273,
                "tempo": 120.0
            },
            {
                "start_time": 40.3590909,
                "end_time": 40.475,
                "pitch": 57,
                "velocity": 64,
                "duration": 0.1159091,
                "tempo": 120.0
            },
            {
                "start_time": 40.475,
                "end_time": 40.675,
                "pitch": 55,
                "velocity": 64,
                "duration": 0.2,
                "tempo": 120.0
            },
            {
                "start_time": 37.6090909,
                "end_time": 40.8954545,
                "pitch": 36,
                "velocity": 64,
                "duration": 3.2863636,
                "tempo": 120.0
            },
            {
                "start_time": 40.675,
                "end_time": 40.8954545,
                "pitch": 48,
                "velocity": 64,
                "duration": 0.2204545,
                "tempo": 120.0
            },
            {
                "start_time": 40.8954545,
                "end_time": 40.9477273,
                "pitch": 48,
                "velocity": 64,
                "duration": 0.0522727,
                "tempo": 120.0
            },
            {
                "start_time": 40.8954545,
                "end_time": 41.0318182,
                "pitch": 36,
                "velocity": 64,
                "duration": 0.1363636,
                "tempo": 120.0
            },
            {
                "start_time": 40.9477273,
                "end_time": 41.0318182,
                "pitch": 48,
                "velocity": 64,
                "duration": 0.0840909,
                "tempo": 120.0
            },
            {
                "start_time": 41.0318182,
                "end_time": 41.0840909,
                "pitch": 48,
                "velocity": 64,
                "duration": 0.0522727,
                "tempo": 120.0
            },
            {
                "start_time": 41.0840909,
                "end_time": 41.1840909,
                "pitch": 57,
                "velocity": 64,
                "duration": 0.1,
                "tempo": 120.0
            },
            {
                "start_time": 41.1840909,
                "end_time": 41.2840909,
                "pitch": 57,
                "velocity": 64,
                "duration": 0.1,
                "tempo": 120.0
            },
            {
                "start_time": 41.2840909,
                "end_time": 41.4840909,
                "pitch": 55,
                "velocity": 64,
                "duration": 0.2,
                "tempo": 120.0
            },
            {
                "start_time": 41.7022727,
                "end_time": 41.8022727,
                "pitch": 50,
                "velocity": 64,
                "duration": 0.1,
                "tempo": 120.0
            },
            {
                "start_time": 40.9477273,
                "end_time": 41.9022727,
                "pitch": 52,
                "velocity": 64,
                "duration": 0.9545455,
                "tempo": 120.0
            },
            {
                "start_time": 41.8022727,
                "end_time": 41.9022727,
                "pitch": 52,
                "velocity": 64,
                "duration": 0.1,
                "tempo": 120.0
            },
            {
                "start_time": 41.9022727,
                "end_time": 42.0068182,
                "pitch": 57,
                "velocity": 64,
                "duration": 0.1045455,
                "tempo": 120.0
            },
            {
                "start_time": 42.0068182,
                "end_time": 42.1136364,
                "pitch": 57,
                "velocity": 64,
                "duration": 0.1068182,
                "tempo": 120.0
            },
            {
                "start_time": 42.1136364,
                "end_time": 42.3227273,
                "pitch": 55,
                "velocity": 64,
                "duration": 0.2090909,
                "tempo": 120.0
            },
            {
                "start_time": 42.325,
                "end_time": 42.725,
                "pitch": 52,
                "velocity": 64,
                "duration": 0.4,
                "tempo": 120.0
            },
            {
                "start_time": 42.7272727,
                "end_time": 42.825,
                "pitch": 48,
                "velocity": 64,
                "duration": 0.0977273,
                "tempo": 120.0
            },
            {
                "start_time": 42.825,
                "end_time": 42.925,
                "pitch": 53,
                "velocity": 64,
                "duration": 0.1,
                "tempo": 120.0
            },
            {
                "start_time": 42.925,
                "end_time": 43.1431818,
                "pitch": 60,
                "velocity": 64,
                "duration": 0.2181818,
                "tempo": 120.0
            },
            {
                "start_time": 43.1431818,
                "end_time": 43.1931818,
                "pitch": 60,
                "velocity": 64,
                "duration": 0.05,
                "tempo": 120.0
            },
            {
                "start_time": 22.0681818,
                "end_time": 43.1931818,
                "pitch": 64,
                "velocity": 64,
                "duration": 21.125,
                "tempo": 120.0
            },
            {
                "start_time": 43.1431818,
                "end_time": 43.2772727,
                "pitch": 48,
                "velocity": 64,
                "duration": 0.1340909,
                "tempo": 120.0
            },
            {
                "start_time": 43.1931818,
                "end_time": 43.2772727,
                "pitch": 60,
                "velocity": 64,
                "duration": 0.0840909,
                "tempo": 120.0
            },
            {
                "start_time": 43.2772727,
                "end_time": 43.3295455,
                "pitch": 60,
                "velocity": 64,
                "duration": 0.0522727,
                "tempo": 120.0
            },
            {
                "start_time": 43.1931818,
                "end_time": 43.3295455,
                "pitch": 64,
                "velocity": 64,
                "duration": 0.1363636,
                "tempo": 120.0
            },
            {
                "start_time": 43.2772727,
                "end_time": 43.4159091,
                "pitch": 48,
                "velocity": 64,
                "duration": 0.1386364,
                "tempo": 120.0
            },
            {
                "start_time": 43.3295455,
                "end_time": 43.4159091,
                "pitch": 60,
                "velocity": 64,
                "duration": 0.0863636,
                "tempo": 120.0
            },
            {
                "start_time": 43.4159091,
                "end_time": 43.4659091,
                "pitch": 60,
                "velocity": 64,
                "duration": 0.05,
                "tempo": 120.0
            },
            {
                "start_time": 43.3295455,
                "end_time": 43.4659091,
                "pitch": 64,
                "velocity": 64,
                "duration": 0.1363636,
                "tempo": 120.0
            },
            {
                "start_time": 43.4659091,
                "end_time": 43.5522727,
                "pitch": 60,
                "velocity": 64,
                "duration": 0.0863636,
                "tempo": 120.0
            },
            {
                "start_time": 44.1522727,
                "end_time": 44.2681818,
                "pitch": 52,
                "velocity": 64,
                "duration": 0.1159091,
                "tempo": 120.0
            },
            {
                "start_time": 44.2704545,
                "end_time": 44.3704545,
                "pitch": 57,
                "velocity": 64,
                "duration": 0.1,
                "tempo": 120.0
            },
            {
                "start_time": 43.4659091,
                "end_time": 45.1931818,
                "pitch": 64,
                "velocity": 64,
                "duration": 1.7272727,
                "tempo": 120.0
            },
            {
                "start_time": 44.3704545,
                "end_time": 45.1931818,
                "pitch": 64,
                "velocity": 64,
                "duration": 0.8227273,
                "tempo": 120.0
            },
            {
                "start_time": 45.3886364,
                "end_time": 45.6,
                "pitch": 64,
                "velocity": 64,
                "duration": 0.2113636,
                "tempo": 120.0
            },
            {
                "start_time": 45.6022727,
                "end_time": 45.8113636,
                "pitch": 62,
                "velocity": 64,
                "duration": 0.2090909,
                "tempo": 120.0
            },
            {
                "start_time": 45.8113636,
                "end_time": 46.0227273,
                "pitch": 59,
                "velocity": 64,
                "duration": 0.2113636,
                "tempo": 120.0
            },
            {
                "start_time": 43.4159091,
                "end_time": 46.1227273,
                "pitch": 48,
                "velocity": 64,
                "duration": 2.7068182,
                "tempo": 120.0
            },
            {
                "start_time": 46.0227273,
                "end_time": 46.1227273,
                "pitch": 48,
                "velocity": 64,
                "duration": 0.1,
                "tempo": 120.0
            },
            {
                "start_time": 46.1227273,
                "end_time": 46.2227273,
                "pitch": 53,
                "velocity": 64,
                "duration": 0.1,
                "tempo": 120.0
            },
            {
                "start_time": 46.225,
                "end_time": 46.4409091,
                "pitch": 60,
                "velocity": 64,
                "duration": 0.2159091,
                "tempo": 120.0
            },
            {
                "start_time": 46.4409091,
                "end_time": 46.4909091,
                "pitch": 60,
                "velocity": 64,
                "duration": 0.05,
                "tempo": 120.0
            },
            {
                "start_time": 46.4909091,
                "end_time": 46.5727273,
                "pitch": 60,
                "velocity": 64,
                "duration": 0.0818182,
                "tempo": 120.0
            },
            {
                "start_time": 46.5727273,
                "end_time": 46.625,
                "pitch": 60,
                "velocity": 64,
                "duration": 0.0522727,
                "tempo": 120.0
            },
            {
                "start_time": 46.4909091,
                "end_time": 46.625,
                "pitch": 64,
                "velocity": 64,
                "duration": 0.1340909,
                "tempo": 120.0
            },
            {
                "start_time": 46.5727273,
                "end_time": 46.7068182,
                "pitch": 48,
                "velocity": 64,
                "duration": 0.1340909,
                "tempo": 120.0
            },
            {
                "start_time": 46.625,
                "end_time": 46.7068182,
                "pitch": 60,
                "velocity": 64,
                "duration": 0.0818182,
                "tempo": 120.0
            },
            {
                "start_time": 46.7068182,
                "end_time": 46.7568182,
                "pitch": 60,
                "velocity": 64,
                "duration": 0.05,
                "tempo": 120.0
            },
            {
                "start_time": 46.625,
                "end_time": 46.7568182,
                "pitch": 64,
                "velocity": 64,
                "duration": 0.1318182,
                "tempo": 120.0
            },
            {
                "start_time": 46.7568182,
                "end_time": 46.8409091,
                "pitch": 60,
                "velocity": 64,
                "duration": 0.0840909,
                "tempo": 120.0
            },
            {
                "start_time": 47.4568182,
                "end_time": 47.5568182,
                "pitch": 52,
                "velocity": 64,
                "duration": 0.1,
                "tempo": 120.0
            },
            {
                "start_time": 47.5590909,
                "end_time": 47.6613636,
                "pitch": 57,
                "velocity": 64,
                "duration": 0.1022727,
                "tempo": 120.0
            },
            {
                "start_time": 46.7568182,
                "end_time": 48.4863636,
                "pitch": 64,
                "velocity": 64,
                "duration": 1.7295455,
                "tempo": 120.0
            },
            {
                "start_time": 47.6613636,
                "end_time": 48.4863636,
                "pitch": 64,
                "velocity": 64,
                "duration": 0.825,
                "tempo": 120.0
            },
            {
                "start_time": 48.6886364,
                "end_time": 48.8886364,
                "pitch": 64,
                "velocity": 64,
                "duration": 0.2,
                "tempo": 120.0
            },
            {
                "start_time": 48.8886364,
                "end_time": 49.0886364,
                "pitch": 62,
                "velocity": 64,
                "duration": 0.2,
                "tempo": 120.0
            },
            {
                "start_time": 49.0886364,
                "end_time": 49.3045455,
                "pitch": 59,
                "velocity": 64,
                "duration": 0.2159091,
                "tempo": 120.0
            },
            {
                "start_time": 46.7068182,
                "end_time": 49.4068182,
                "pitch": 48,
                "velocity": 64,
                "duration": 2.7,
                "tempo": 120.0
            },
            {
                "start_time": 49.3068182,
                "end_time": 49.4068182,
                "pitch": 48,
                "velocity": 64,
                "duration": 0.1,
                "tempo": 120.0
            },
            {
                "start_time": 49.4068182,
                "end_time": 49.5090909,
                "pitch": 53,
                "velocity": 64,
                "duration": 0.1022727,
                "tempo": 120.0
            },
            {
                "start_time": 49.5113636,
                "end_time": 49.7318182,
                "pitch": 60,
                "velocity": 64,
                "duration": 0.2204545,
                "tempo": 120.0
            },
            {
                "start_time": 49.7318182,
                "end_time": 49.7840909,
                "pitch": 60,
                "velocity": 64,
                "duration": 0.0522727,
                "tempo": 120.0
            },
            {
                "start_time": 49.7318182,
                "end_time": 49.8727273,
                "pitch": 48,
                "velocity": 64,
                "duration": 0.1409091,
                "tempo": 120.0
            },
            {
                "start_time": 49.7840909,
                "end_time": 49.8727273,
                "pitch": 60,
                "velocity": 64,
                "duration": 0.0886364,
                "tempo": 120.0
            },
            {
                "start_time": 49.8727273,
                "end_time": 49.925,
                "pitch": 60,
                "velocity": 64,
                "duration": 0.0522727,
                "tempo": 120.0
            },
            {
                "start_time": 49.7840909,
                "end_time": 49.925,
                "pitch": 64,
                "velocity": 64,
                "duration": 0.1409091,
                "tempo": 120.0
            },
            {
                "start_time": 49.8727273,
                "end_time": 50.0136364,
                "pitch": 48,
                "velocity": 64,
                "duration": 0.1409091,
                "tempo": 120.0
            },
            {
                "start_time": 49.925,
                "end_time": 50.0136364,
                "pitch": 60,
                "velocity": 64,
                "duration": 0.0886364,
                "tempo": 120.0
            },
            {
                "start_time": 50.0136364,
                "end_time": 50.0659091,
                "pitch": 60,
                "velocity": 64,
                "duration": 0.0522727,
                "tempo": 120.0
            },
            {
                "start_time": 49.925,
                "end_time": 50.0659091,
                "pitch": 64,
                "velocity": 64,
                "duration": 0.1409091,
                "tempo": 120.0
            },
            {
                "start_time": 50.0659091,
                "end_time": 50.1522727,
                "pitch": 60,
                "velocity": 64,
                "duration": 0.0863636,
                "tempo": 120.0
            },
            {
                "start_time": 50.7522727,
                "end_time": 50.8681818,
                "pitch": 52,
                "velocity": 64,
                "duration": 0.1159091,
                "tempo": 120.0
            },
            {
                "start_time": 50.8681818,
                "end_time": 50.9681818,
                "pitch": 57,
                "velocity": 64,
                "duration": 0.1,
                "tempo": 120.0
            },
            {
                "start_time": 50.0659091,
                "end_time": 51.7818182,
                "pitch": 64,
                "velocity": 64,
                "duration": 1.7159091,
                "tempo": 120.0
            },
            {
                "start_time": 50.9704545,
                "end_time": 51.7818182,
                "pitch": 64,
                "velocity": 64,
                "duration": 0.8113636,
                "tempo": 120.0
            },
            {
                "start_time": 51.9818182,
                "end_time": 52.1977273,
                "pitch": 64,
                "velocity": 64,
                "duration": 0.2159091,
                "tempo": 120.0
            },
            {
                "start_time": 52.1977273,
                "end_time": 52.4068182,
                "pitch": 62,
                "velocity": 64,
                "duration": 0.2090909,
                "tempo": 120.0
            },
            {
                "start_time": 52.4090909,
                "end_time": 52.6181818,
                "pitch": 59,
                "velocity": 64,
                "duration": 0.2090909,
                "tempo": 120.0
            },
            {
                "start_time": 50.0136364,
                "end_time": 52.7181818,
                "pitch": 48,
                "velocity": 64,
                "duration": 2.7045455,
                "tempo": 120.0
            },
            {
                "start_time": 52.6204545,
                "end_time": 52.7181818,
                "pitch": 48,
                "velocity": 64,
                "duration": 0.0977273,
                "tempo": 120.0
            },
            {
                "start_time": 52.7181818,
                "end_time": 52.8181818,
                "pitch": 53,
                "velocity": 64,
                "duration": 0.1,
                "tempo": 120.0
            },
            {
                "start_time": 52.8181818,
                "end_time": 53.0340909,
                "pitch": 60,
                "velocity": 64,
                "duration": 0.2159091,
                "tempo": 120.0
            },
            {
                "start_time": 53.0340909,
                "end_time": 53.0840909,
                "pitch": 60,
                "velocity": 64,
                "duration": 0.05,
                "tempo": 120.0
            },
            {
                "start_time": 53.0340909,
                "end_time": 53.1681818,
                "pitch": 48,
                "velocity": 64,
                "duration": 0.1340909,
                "tempo": 120.0
            },
            {
                "start_time": 53.0840909,
                "end_time": 53.1681818,
                "pitch": 60,
                "velocity": 64,
                "duration": 0.0840909,
                "tempo": 120.0
            },
            {
                "start_time": 53.1681818,
                "end_time": 53.2181818,
                "pitch": 60,
                "velocity": 64,
                "duration": 0.05,
                "tempo": 120.0
            },
            {
                "start_time": 53.0840909,
                "end_time": 53.2181818,
                "pitch": 64,
                "velocity": 64,
                "duration": 0.1340909,
                "tempo": 120.0
            },
            {
                "start_time": 53.2181818,
                "end_time": 53.3,
                "pitch": 60,
                "velocity": 64,
                "duration": 0.0818182,
                "tempo": 120.0
            },
            {
                "start_time": 53.3,
                "end_time": 53.35,
                "pitch": 60,
                "velocity": 64,
                "duration": 0.05,
                "tempo": 120.0
            },
            {
                "start_time": 53.2181818,
                "end_time": 53.35,
                "pitch": 64,
                "velocity": 64,
                "duration": 0.1318182,
                "tempo": 120.0
            },
            {
                "start_time": 53.35,
                "end_time": 53.4340909,
                "pitch": 60,
                "velocity": 64,
                "duration": 0.0840909,
                "tempo": 120.0
            },
            {
                "start_time": 54.0431818,
                "end_time": 54.1431818,
                "pitch": 52,
                "velocity": 64,
                "duration": 0.1,
                "tempo": 120.0
            },
            {
                "start_time": 54.1431818,
                "end_time": 54.2431818,
                "pitch": 57,
                "velocity": 64,
                "duration": 0.1,
                "tempo": 120.0
            },
            {
                "start_time": 53.35,
                "end_time": 55.0795455,
                "pitch": 64,
                "velocity": 64,
                "duration": 1.7295455,
                "tempo": 120.0
            },
            {
                "start_time": 54.2431818,
                "end_time": 55.0795455,
                "pitch": 64,
                "velocity": 64,
                "duration": 0.8363636,
                "tempo": 120.0
            },
            {
                "start_time": 55.2772727,
                "end_time": 55.4704545,
                "pitch": 64,
                "velocity": 64,
                "duration": 0.1931818,
                "tempo": 120.0
            },
            {
                "start_time": 55.4727273,
                "end_time": 55.675,
                "pitch": 62,
                "velocity": 64,
                "duration": 0.2022727,
                "tempo": 120.0
            },
            {
                "start_time": 55.6772727,
                "end_time": 55.8977273,
                "pitch": 59,
                "velocity": 64,
                "duration": 0.2204545,
                "tempo": 120.0
            }
        ],
        "Lead 2 (sawtooth)": [
            {
                "start_time": 0.0318182,
                "end_time": 0.2295455,
                "pitch": 45,
                "velocity": 80,
                "duration": 0.1977273,
                "tempo": 120.0
            },
            {
                "start_time": 0.2295455,
                "end_time": 0.3295455,
                "pitch": 57,
                "velocity": 80,
                "duration": 0.1,
                "tempo": 120.0
            },
            {
                "start_time": 0.3295455,
                "end_time": 0.4295455,
                "pitch": 45,
                "velocity": 80,
                "duration": 0.1,
                "tempo": 120.0
            },
            {
                "start_time": 0.4295455,
                "end_time": 0.5318182,
                "pitch": 45,
                "velocity": 80,
                "duration": 0.1022727,
                "tempo": 120.0
            },
            {
                "start_time": 0.5318182,
                "end_time": 0.6340909,
                "pitch": 45,
                "velocity": 80,
                "duration": 0.1022727,
                "tempo": 120.0
            },
            {
                "start_time": 0.6340909,
                "end_time": 0.8568182,
                "pitch": 57,
                "velocity": 80,
                "duration": 0.2227273,
                "tempo": 120.0
            },
            {
                "start_time": 0.8568182,
                "end_time": 1.0613636,
                "pitch": 43,
                "velocity": 80,
                "duration": 0.2045455,
                "tempo": 120.0
            },
            {
                "start_time": 1.0636364,
                "end_time": 1.1636364,
                "pitch": 42,
                "velocity": 80,
                "duration": 0.1,
                "tempo": 120.0
            },
            {
                "start_time": 1.1659091,
                "end_time": 1.3659091,
                "pitch": 43,
                "velocity": 80,
                "duration": 0.2,
                "tempo": 120.0
            },
            {
                "start_time": 1.3681818,
                "end_time": 1.4659091,
                "pitch": 42,
                "velocity": 80,
                "duration": 0.0977273,
                "tempo": 120.0
            },
            {
                "start_time": 1.4681818,
                "end_time": 1.6659091,
                "pitch": 43,
                "velocity": 80,
                "duration": 0.1977273,
                "tempo": 120.0
            },
            {
                "start_time": 1.6659091,
                "end_time": 1.8659091,
                "pitch": 41,
                "velocity": 80,
                "duration": 0.2,
                "tempo": 120.0
            },
            {
                "start_time": 1.8659091,
                "end_time": 1.9818182,
                "pitch": 53,
                "velocity": 80,
                "duration": 0.1159091,
                "tempo": 120.0
            },
            {
                "start_time": 1.9818182,
                "end_time": 2.0818182,
                "pitch": 41,
                "velocity": 80,
                "duration": 0.1,
                "tempo": 120.0
            },
            {
                "start_time": 2.0818182,
                "end_time": 2.1863636,
                "pitch": 41,
                "velocity": 80,
                "duration": 0.1045455,
                "tempo": 120.0
            },
            {
                "start_time": 2.1886364,
                "end_time": 2.2931818,
                "pitch": 41,
                "velocity": 80,
                "duration": 0.1045455,
                "tempo": 120.0
            },
            {
                "start_time": 2.2931818,
                "end_time": 2.5045455,
                "pitch": 53,
                "velocity": 80,
                "duration": 0.2113636,
                "tempo": 120.0
            },
            {
                "start_time": 2.5045455,
                "end_time": 2.7022727,
                "pitch": 40,
                "velocity": 80,
                "duration": 0.1977273,
                "tempo": 120.0
            },
            {
                "start_time": 2.7045455,
                "end_time": 2.8022727,
                "pitch": 39,
                "velocity": 80,
                "duration": 0.0977273,
                "tempo": 120.0
            },
            {
                "start_time": 2.8045455,
                "end_time": 3.0022727,
                "pitch": 40,
                "velocity": 80,
                "duration": 0.1977273,
                "tempo": 120.0
            },
            {
                "start_time": 3.0022727,
                "end_time": 3.1022727,
                "pitch": 39,
                "velocity": 80,
                "duration": 0.1,
                "tempo": 120.0
            },
            {
                "start_time": 3.1022727,
                "end_time": 3.3181818,
                "pitch": 40,
                "velocity": 80,
                "duration": 0.2159091,
                "tempo": 120.0
            },
            {
                "start_time": 3.3204545,
                "end_time": 3.5227273,
                "pitch": 45,
                "velocity": 80,
                "duration": 0.2022727,
                "tempo": 120.0
            },
            {
                "start_time": 3.525,
                "end_time": 3.625,
                "pitch": 57,
                "velocity": 80,
                "duration": 0.1,
                "tempo": 120.0
            },
            {
                "start_time": 3.6272727,
                "end_time": 3.7295455,
                "pitch": 45,
                "velocity": 80,
                "duration": 0.1022727,
                "tempo": 120.0
            },
            {
                "start_time": 3.7295455,
                "end_time": 3.8272727,
                "pitch": 45,
                "velocity": 80,
                "duration": 0.0977273,
                "tempo": 120.0
            },
            {
                "start_time": 3.8295455,
                "end_time": 3.9272727,
                "pitch": 45,
                "velocity": 80,
                "duration": 0.0977273,
                "tempo": 120.0
            },
            {
                "start_time": 3.9295455,
                "end_time": 4.1272727,
                "pitch": 57,
                "velocity": 80,
                "duration": 0.1977273,
                "tempo": 120.0
            },
            {
                "start_time": 4.1295455,
                "end_time": 4.3295455,
                "pitch": 43,
                "velocity": 80,
                "duration": 0.2,
                "tempo": 120.0
            },
            {
                "start_time": 4.3295455,
                "end_time": 4.4295455,
                "pitch": 42,
                "velocity": 80,
                "duration": 0.1,
                "tempo": 120.0
            },
            {
                "start_time": 4.4295455,
                "end_time": 4.6522727,
                "pitch": 43,
                "velocity": 80,
                "duration": 0.2227273,
                "tempo": 120.0
            },
            {
                "start_time": 4.6522727,
                "end_time": 4.7568182,
                "pitch": 42,
                "velocity": 80,
                "duration": 0.1045455,
                "tempo": 120.0
            },
            {
                "start_time": 4.7590909,
                "end_time": 4.9681818,
                "pitch": 43,
                "velocity": 80,
                "duration": 0.2090909,
                "tempo": 120.0
            },
            {
                "start_time": 4.9704545,
                "end_time": 5.1681818,
                "pitch": 41,
                "velocity": 80,
                "duration": 0.1977273,
                "tempo": 120.0
            },
            {
                "start_time": 5.1681818,
                "end_time": 5.2681818,
                "pitch": 53,
                "velocity": 80,
                "duration": 0.1,
                "tempo": 120.0
            },
            {
                "start_time": 5.2681818,
                "end_time": 5.3681818,
                "pitch": 41,
                "velocity": 80,
                "duration": 0.1,
                "tempo": 120.0
            },
            {
                "start_time": 5.3681818,
                "end_time": 5.4681818,
                "pitch": 41,
                "velocity": 80,
                "duration": 0.1,
                "tempo": 120.0
            },
            {
                "start_time": 5.4681818,
                "end_time": 5.5681818,
                "pitch": 41,
                "velocity": 80,
                "duration": 0.1,
                "tempo": 120.0
            },
            {
                "start_time": 5.5704545,
                "end_time": 5.7863636,
                "pitch": 53,
                "velocity": 80,
                "duration": 0.2159091,
                "tempo": 120.0
            },
            {
                "start_time": 5.7863636,
                "end_time": 5.9909091,
                "pitch": 40,
                "velocity": 80,
                "duration": 0.2045455,
                "tempo": 120.0
            },
            {
                "start_time": 5.9931818,
                "end_time": 6.0931818,
                "pitch": 39,
                "velocity": 80,
                "duration": 0.1,
                "tempo": 120.0
            },
            {
                "start_time": 6.0954545,
                "end_time": 6.2954545,
                "pitch": 40,
                "velocity": 80,
                "duration": 0.2,
                "tempo": 120.0
            },
            {
                "start_time": 6.2977273,
                "end_time": 6.3954545,
                "pitch": 39,
                "velocity": 80,
                "duration": 0.0977273,
                "tempo": 120.0
            },
            {
                "start_time": 6.3977273,
                "end_time": 6.5954545,
                "pitch": 40,
                "velocity": 80,
                "duration": 0.1977273,
                "tempo": 120.0
            },
            {
                "start_time": 6.5977273,
                "end_time": 6.7954545,
                "pitch": 45,
                "velocity": 80,
                "duration": 0.1977273,
                "tempo": 120.0
            },
            {
                "start_time": 6.7977273,
                "end_time": 6.8977273,
                "pitch": 57,
                "velocity": 80,
                "duration": 0.1,
                "tempo": 120.0
            },
            {
                "start_time": 6.8977273,
                "end_time": 7.0136364,
                "pitch": 45,
                "velocity": 80,
                "duration": 0.1159091,
                "tempo": 120.0
            },
            {
                "start_time": 7.0159091,
                "end_time": 7.1181818,
                "pitch": 45,
                "velocity": 80,
                "duration": 0.1022727,
                "tempo": 120.0
            },
            {
                "start_time": 7.1204545,
                "end_time": 7.225,
                "pitch": 45,
                "velocity": 80,
                "duration": 0.1045455,
                "tempo": 120.0
            },
            {
                "start_time": 7.225,
                "end_time": 7.4363636,
                "pitch": 57,
                "velocity": 80,
                "duration": 0.2113636,
                "tempo": 120.0
            },
            {
                "start_time": 7.4363636,
                "end_time": 7.6318182,
                "pitch": 43,
                "velocity": 80,
                "duration": 0.1954545,
                "tempo": 120.0
            },
            {
                "start_time": 7.6318182,
                "end_time": 7.7295455,
                "pitch": 42,
                "velocity": 80,
                "duration": 0.0977273,
                "tempo": 120.0
            },
            {
                "start_time": 7.7295455,
                "end_time": 7.9295455,
                "pitch": 43,
                "velocity": 80,
                "duration": 0.2,
                "tempo": 120.0
            },
            {
                "start_time": 7.9295455,
                "end_time": 8.0318182,
                "pitch": 42,
                "velocity": 80,
                "duration": 0.1022727,
                "tempo": 120.0
            },
            {
                "start_time": 8.0318182,
                "end_time": 8.2363636,
                "pitch": 43,
                "velocity": 80,
                "duration": 0.2045455,
                "tempo": 120.0
            },
            {
                "start_time": 8.2386364,
                "end_time": 8.4522727,
                "pitch": 41,
                "velocity": 80,
                "duration": 0.2136364,
                "tempo": 120.0
            },
            {
                "start_time": 8.4545455,
                "end_time": 8.5522727,
                "pitch": 53,
                "velocity": 80,
                "duration": 0.0977273,
                "tempo": 120.0
            },
            {
                "start_time": 8.5545455,
                "end_time": 8.6522727,
                "pitch": 41,
                "velocity": 80,
                "duration": 0.0977273,
                "tempo": 120.0
            },
            {
                "start_time": 8.6545455,
                "end_time": 8.7545455,
                "pitch": 41,
                "velocity": 80,
                "duration": 0.1,
                "tempo": 120.0
            },
            {
                "start_time": 8.7568182,
                "end_time": 8.8568182,
                "pitch": 41,
                "velocity": 80,
                "duration": 0.1,
                "tempo": 120.0
            },
            {
                "start_time": 8.8590909,
                "end_time": 9.0636364,
                "pitch": 53,
                "velocity": 80,
                "duration": 0.2045455,
                "tempo": 120.0
            },
            {
                "start_time": 9.0636364,
                "end_time": 9.2636364,
                "pitch": 40,
                "velocity": 80,
                "duration": 0.2,
                "tempo": 120.0
            },
            {
                "start_time": 9.2636364,
                "end_time": 9.3636364,
                "pitch": 39,
                "velocity": 80,
                "duration": 0.1,
                "tempo": 120.0
            },
            {
                "start_time": 9.3659091,
                "end_time": 9.5818182,
                "pitch": 40,
                "velocity": 80,
                "duration": 0.2159091,
                "tempo": 120.0
            },
            {
                "start_time": 9.5818182,
                "end_time": 9.6818182,
                "pitch": 39,
                "velocity": 80,
                "duration": 0.1,
                "tempo": 120.0
            },
            {
                "start_time": 9.6840909,
                "end_time": 9.8840909,
                "pitch": 40,
                "velocity": 80,
                "duration": 0.2,
                "tempo": 120.0
            },
            {
                "start_time": 9.8840909,
                "end_time": 10.0931818,
                "pitch": 45,
                "velocity": 80,
                "duration": 0.2090909,
                "tempo": 120.0
            },
            {
                "start_time": 10.0954545,
                "end_time": 10.2,
                "pitch": 57,
                "velocity": 80,
                "duration": 0.1045455,
                "tempo": 120.0
            },
            {
                "start_time": 10.2,
                "end_time": 10.3045455,
                "pitch": 45,
                "velocity": 80,
                "duration": 0.1045455,
                "tempo": 120.0
            },
            {
                "start_time": 10.3068182,
                "end_time": 10.4045455,
                "pitch": 45,
                "velocity": 80,
                "duration": 0.0977273,
                "tempo": 120.0
            },
            {
                "start_time": 10.4068182,
                "end_time": 10.5068182,
                "pitch": 45,
                "velocity": 80,
                "duration": 0.1,
                "tempo": 120.0
            },
            {
                "start_time": 10.5068182,
                "end_time": 10.7068182,
                "pitch": 57,
                "velocity": 80,
                "duration": 0.2,
                "tempo": 120.0
            },
            {
                "start_time": 10.7090909,
                "end_time": 10.9022727,
                "pitch": 43,
                "velocity": 80,
                "duration": 0.1931818,
                "tempo": 120.0
            },
            {
                "start_time": 10.9045455,
                "end_time": 11.0,
                "pitch": 42,
                "velocity": 80,
                "duration": 0.0954545,
                "tempo": 120.0
            },
            {
                "start_time": 11.0022727,
                "end_time": 11.2204545,
                "pitch": 43,
                "velocity": 80,
                "duration": 0.2181818,
                "tempo": 120.0
            },
            {
                "start_time": 11.2204545,
                "end_time": 11.325,
                "pitch": 42,
                "velocity": 80,
                "duration": 0.1045455,
                "tempo": 120.0
            },
            {
                "start_time": 11.3272727,
                "end_time": 11.5363636,
                "pitch": 43,
                "velocity": 80,
                "duration": 0.2090909,
                "tempo": 120.0
            },
            {
                "start_time": 11.5363636,
                "end_time": 11.7363636,
                "pitch": 41,
                "velocity": 80,
                "duration": 0.2,
                "tempo": 120.0
            },
            {
                "start_time": 11.7363636,
                "end_time": 11.8363636,
                "pitch": 53,
                "velocity": 80,
                "duration": 0.1,
                "tempo": 120.0
            },
            {
                "start_time": 11.8363636,
                "end_time": 11.9363636,
                "pitch": 41,
                "velocity": 80,
                "duration": 0.1,
                "tempo": 120.0
            },
            {
                "start_time": 11.9363636,
                "end_time": 12.0363636,
                "pitch": 41,
                "velocity": 80,
                "duration": 0.1,
                "tempo": 120.0
            },
            {
                "start_time": 12.0363636,
                "end_time": 12.1363636,
                "pitch": 41,
                "velocity": 80,
                "duration": 0.1,
                "tempo": 120.0
            },
            {
                "start_time": 12.1363636,
                "end_time": 12.3545455,
                "pitch": 53,
                "velocity": 80,
                "duration": 0.2181818,
                "tempo": 120.0
            },
            {
                "start_time": 12.3545455,
                "end_time": 12.5590909,
                "pitch": 40,
                "velocity": 80,
                "duration": 0.2045455,
                "tempo": 120.0
            },
            {
                "start_time": 12.5590909,
                "end_time": 12.6613636,
                "pitch": 39,
                "velocity": 80,
                "duration": 0.1022727,
                "tempo": 120.0
            },
            {
                "start_time": 12.6636364,
                "end_time": 12.8636364,
                "pitch": 40,
                "velocity": 80,
                "duration": 0.2,
                "tempo": 120.0
            },
            {
                "start_time": 12.8659091,
                "end_time": 12.9659091,
                "pitch": 39,
                "velocity": 80,
                "duration": 0.1,
                "tempo": 120.0
            },
            {
                "start_time": 12.9659091,
                "end_time": 13.1659091,
                "pitch": 40,
                "velocity": 80,
                "duration": 0.2,
                "tempo": 120.0
            },
            {
                "start_time": 13.1681818,
                "end_time": 13.3681818,
                "pitch": 45,
                "velocity": 80,
                "duration": 0.2,
                "tempo": 120.0
            },
            {
                "start_time": 13.3681818,
                "end_time": 13.4681818,
                "pitch": 57,
                "velocity": 80,
                "duration": 0.1,
                "tempo": 120.0
            },
            {
                "start_time": 13.4681818,
                "end_time": 13.5840909,
                "pitch": 45,
                "velocity": 80,
                "duration": 0.1159091,
                "tempo": 120.0
            },
            {
                "start_time": 13.5863636,
                "end_time": 13.6909091,
                "pitch": 45,
                "velocity": 80,
                "duration": 0.1045455,
                "tempo": 120.0
            },
            {
                "start_time": 13.6909091,
                "end_time": 13.7954545,
                "pitch": 45,
                "velocity": 80,
                "duration": 0.1045455,
                "tempo": 120.0
            },
            {
                "start_time": 13.7954545,
                "end_time": 14.0068182,
                "pitch": 57,
                "velocity": 80,
                "duration": 0.2113636,
                "tempo": 120.0
            },
            {
                "start_time": 14.0068182,
                "end_time": 14.2068182,
                "pitch": 43,
                "velocity": 80,
                "duration": 0.2,
                "tempo": 120.0
            },
            {
                "start_time": 14.2068182,
                "end_time": 14.3068182,
                "pitch": 42,
                "velocity": 80,
                "duration": 0.1,
                "tempo": 120.0
            },
            {
                "start_time": 14.3068182,
                "end_time": 14.5068182,
                "pitch": 43,
                "velocity": 80,
                "duration": 0.2,
                "tempo": 120.0
            },
            {
                "start_time": 14.5068182,
                "end_time": 14.6068182,
                "pitch": 42,
                "velocity": 80,
                "duration": 0.1,
                "tempo": 120.0
            },
            {
                "start_time": 14.6068182,
                "end_time": 14.8090909,
                "pitch": 43,
                "velocity": 80,
                "duration": 0.2022727,
                "tempo": 120.0
            },
            {
                "start_time": 14.8090909,
                "end_time": 15.025,
                "pitch": 41,
                "velocity": 80,
                "duration": 0.2159091,
                "tempo": 120.0
            },
            {
                "start_time": 15.0272727,
                "end_time": 15.125,
                "pitch": 53,
                "velocity": 80,
                "duration": 0.0977273,
                "tempo": 120.0
            },
            {
                "start_time": 15.1272727,
                "end_time": 15.2272727,
                "pitch": 41,
                "velocity": 80,
                "duration": 0.1,
                "tempo": 120.0
            },
            {
                "start_time": 15.2272727,
                "end_time": 15.3295455,
                "pitch": 41,
                "velocity": 80,
                "duration": 0.1022727,
                "tempo": 120.0
            },
            {
                "start_time": 15.3295455,
                "end_time": 15.4318182,
                "pitch": 41,
                "velocity": 80,
                "duration": 0.1022727,
                "tempo": 120.0
            },
            {
                "start_time": 15.4318182,
                "end_time": 15.6363636,
                "pitch": 53,
                "velocity": 80,
                "duration": 0.2045455,
                "tempo": 120.0
            },
            {
                "start_time": 15.6363636,
                "end_time": 15.8363636,
                "pitch": 40,
                "velocity": 80,
                "duration": 0.2,
                "tempo": 120.0
            },
            {
                "start_time": 15.8386364,
                "end_time": 15.9386364,
                "pitch": 39,
                "velocity": 80,
                "duration": 0.1,
                "tempo": 120.0
            },
            {
                "start_time": 15.9386364,
                "end_time": 16.1545455,
                "pitch": 40,
                "velocity": 80,
                "duration": 0.2159091,
                "tempo": 120.0
            },
            {
                "start_time": 16.1568182,
                "end_time": 16.2568182,
                "pitch": 39,
                "velocity": 80,
                "duration": 0.1,
                "tempo": 120.0
            },
            {
                "start_time": 16.2568182,
                "end_time": 16.4568182,
                "pitch": 40,
                "velocity": 80,
                "duration": 0.2,
                "tempo": 120.0
            },
            {
                "start_time": 16.4590909,
                "end_time": 16.6613636,
                "pitch": 38,
                "velocity": 80,
                "duration": 0.2022727,
                "tempo": 120.0
            },
            {
                "start_time": 16.6636364,
                "end_time": 16.7636364,
                "pitch": 50,
                "velocity": 80,
                "duration": 0.1,
                "tempo": 120.0
            },
            {
                "start_time": 16.7659091,
                "end_time": 16.8681818,
                "pitch": 38,
                "velocity": 80,
                "duration": 0.1022727,
                "tempo": 120.0
            },
            {
                "start_time": 16.8681818,
                "end_time": 16.9704545,
                "pitch": 38,
                "velocity": 80,
                "duration": 0.1022727,
                "tempo": 120.0
            },
            {
                "start_time": 16.9704545,
                "end_time": 17.0727273,
                "pitch": 38,
                "velocity": 80,
                "duration": 0.1022727,
                "tempo": 120.0
            },
            {
                "start_time": 17.0727273,
                "end_time": 17.2772727,
                "pitch": 50,
                "velocity": 80,
                "duration": 0.2045455,
                "tempo": 120.0
            },
            {
                "start_time": 17.2772727,
                "end_time": 17.6840909,
                "pitch": 38,
                "velocity": 80,
                "duration": 0.4068182,
                "tempo": 120.0
            },
            {
                "start_time": 17.6863636,
                "end_time": 18.1068182,
                "pitch": 40,
                "velocity": 80,
                "duration": 0.4204545,
                "tempo": 120.0
            },
            {
                "start_time": 18.1068182,
                "end_time": 18.3068182,
                "pitch": 41,
                "velocity": 80,
                "duration": 0.2,
                "tempo": 120.0
            },
            {
                "start_time": 18.3068182,
                "end_time": 18.4068182,
                "pitch": 53,
                "velocity": 80,
                "duration": 0.1,
                "tempo": 120.0
            },
            {
                "start_time": 18.4068182,
                "end_time": 18.5045455,
                "pitch": 41,
                "velocity": 80,
                "duration": 0.0977273,
                "tempo": 120.0
            },
            {
                "start_time": 18.5068182,
                "end_time": 18.6068182,
                "pitch": 41,
                "velocity": 80,
                "duration": 0.1,
                "tempo": 120.0
            },
            {
                "start_time": 18.6068182,
                "end_time": 18.7227273,
                "pitch": 41,
                "velocity": 80,
                "duration": 0.1159091,
                "tempo": 120.0
            },
            {
                "start_time": 18.725,
                "end_time": 18.925,
                "pitch": 53,
                "velocity": 80,
                "duration": 0.2,
                "tempo": 120.0
            },
            {
                "start_time": 18.925,
                "end_time": 19.3340909,
                "pitch": 43,
                "velocity": 80,
                "duration": 0.4090909,
                "tempo": 120.0
            },
            {
                "start_time": 19.3363636,
                "end_time": 19.7340909,
                "pitch": 40,
                "velocity": 80,
                "duration": 0.3977273,
                "tempo": 120.0
            },
            {
                "start_time": 19.7340909,
                "end_time": 19.9522727,
                "pitch": 38,
                "velocity": 80,
                "duration": 0.2181818,
                "tempo": 120.0
            },
            {
                "start_time": 19.9522727,
                "end_time": 20.0522727,
                "pitch": 50,
                "velocity": 80,
                "duration": 0.1,
                "tempo": 120.0
            },
            {
                "start_time": 20.0522727,
                "end_time": 20.1522727,
                "pitch": 38,
                "velocity": 80,
                "duration": 0.1,
                "tempo": 120.0
            },
            {
                "start_time": 20.1545455,
                "end_time": 20.2568182,
                "pitch": 38,
                "velocity": 80,
                "duration": 0.1022727,
                "tempo": 120.0
            },
            {
                "start_time": 20.2590909,
                "end_time": 20.3636364,
                "pitch": 38,
                "velocity": 80,
                "duration": 0.1045455,
                "tempo": 120.0
            },
            {
                "start_time": 20.3636364,
                "end_time": 20.575,
                "pitch": 50,
                "velocity": 80,
                "duration": 0.2113636,
                "tempo": 120.0
            },
            {
                "start_time": 20.575,
                "end_time": 20.9772727,
                "pitch": 38,
                "velocity": 80,
                "duration": 0.4022727,
                "tempo": 120.0
            },
            {
                "start_time": 20.9772727,
                "end_time": 21.3931818,
                "pitch": 40,
                "velocity": 80,
                "duration": 0.4159091,
                "tempo": 120.0
            },
            {
                "start_time": 21.3931818,
                "end_time": 21.5977273,
                "pitch": 41,
                "velocity": 80,
                "duration": 0.2045455,
                "tempo": 120.0
            },
            {
                "start_time": 21.5977273,
                "end_time": 21.7,
                "pitch": 53,
                "velocity": 80,
                "duration": 0.1022727,
                "tempo": 120.0
            },
            {
                "start_time": 21.7,
                "end_time": 21.8022727,
                "pitch": 41,
                "velocity": 80,
                "duration": 0.1022727,
                "tempo": 120.0
            },
            {
                "start_time": 21.8022727,
                "end_time": 21.9022727,
                "pitch": 41,
                "velocity": 80,
                "duration": 0.1,
                "tempo": 120.0
            },
            {
                "start_time": 21.9022727,
                "end_time": 22.0022727,
                "pitch": 41,
                "velocity": 80,
                "duration": 0.1,
                "tempo": 120.0
            },
            {
                "start_time": 22.0022727,
                "end_time": 22.2022727,
                "pitch": 53,
                "velocity": 80,
                "duration": 0.2,
                "tempo": 120.0
            },
            {
                "start_time": 22.2022727,
                "end_time": 22.6204545,
                "pitch": 43,
                "velocity": 80,
                "duration": 0.4181818,
                "tempo": 120.0
            },
            {
                "start_time": 22.6204545,
                "end_time": 23.0431818,
                "pitch": 40,
                "velocity": 80,
                "duration": 0.4227273,
                "tempo": 120.0
            },
            {
                "start_time": 23.0431818,
                "end_time": 23.2431818,
                "pitch": 45,
                "velocity": 80,
                "duration": 0.2,
                "tempo": 120.0
            },
            {
                "start_time": 23.2431818,
                "end_time": 23.3431818,
                "pitch": 57,
                "velocity": 80,
                "duration": 0.1,
                "tempo": 120.0
            },
            {
                "start_time": 23.3431818,
                "end_time": 23.4431818,
                "pitch": 45,
                "velocity": 80,
                "duration": 0.1,
                "tempo": 120.0
            },
            {
                "start_time": 23.4454545,
                "end_time": 23.5431818,
                "pitch": 45,
                "velocity": 80,
                "duration": 0.0977273,
                "tempo": 120.0
            },
            {
                "start_time": 23.5431818,
                "end_time": 23.6431818,
                "pitch": 45,
                "velocity": 80,
                "duration": 0.1,
                "tempo": 120.0
            },
            {
                "start_time": 23.6454545,
                "end_time": 23.8590909,
                "pitch": 57,
                "velocity": 80,
                "duration": 0.2136364,
                "tempo": 120.0
            },
            {
                "start_time": 23.8613636,
                "end_time": 24.0636364,
                "pitch": 43,
                "velocity": 80,
                "duration": 0.2022727,
                "tempo": 120.0
            },
            {
                "start_time": 24.0659091,
                "end_time": 24.1681818,
                "pitch": 42,
                "velocity": 80,
                "duration": 0.1022727,
                "tempo": 120.0
            },
            {
                "start_time": 24.1681818,
                "end_time": 24.3681818,
                "pitch": 43,
                "velocity": 80,
                "duration": 0.2,
                "tempo": 120.0
            },
            {
                "start_time": 24.3704545,
                "end_time": 24.4704545,
                "pitch": 42,
                "velocity": 80,
                "duration": 0.1,
                "tempo": 120.0
            },
            {
                "start_time": 24.4704545,
                "end_time": 24.6681818,
                "pitch": 43,
                "velocity": 80,
                "duration": 0.1977273,
                "tempo": 120.0
            },
            {
                "start_time": 24.6704545,
                "end_time": 24.8704545,
                "pitch": 41,
                "velocity": 80,
                "duration": 0.2,
                "tempo": 120.0
            },
            {
                "start_time": 24.8704545,
                "end_time": 24.9704545,
                "pitch": 53,
                "velocity": 80,
                "duration": 0.1,
                "tempo": 120.0
            },
            {
                "start_time": 24.9704545,
                "end_time": 25.0886364,
                "pitch": 41,
                "velocity": 80,
                "duration": 0.1181818,
                "tempo": 120.0
            },
            {
                "start_time": 25.0886364,
                "end_time": 25.1931818,
                "pitch": 41,
                "velocity": 80,
                "duration": 0.1045455,
                "tempo": 120.0
            },
            {
                "start_time": 25.1931818,
                "end_time": 25.2977273,
                "pitch": 41,
                "velocity": 80,
                "duration": 0.1045455,
                "tempo": 120.0
            },
            {
                "start_time": 25.3,
                "end_time": 25.5090909,
                "pitch": 53,
                "velocity": 80,
                "duration": 0.2090909,
                "tempo": 120.0
            },
            {
                "start_time": 25.5090909,
                "end_time": 25.7045455,
                "pitch": 40,
                "velocity": 80,
                "duration": 0.1954545,
                "tempo": 120.0
            },
            {
                "start_time": 25.7045455,
                "end_time": 25.8022727,
                "pitch": 39,
                "velocity": 80,
                "duration": 0.0977273,
                "tempo": 120.0
            },
            {
                "start_time": 25.8022727,
                "end_time": 26.0,
                "pitch": 40,
                "velocity": 80,
                "duration": 0.1977273,
                "tempo": 120.0
            },
            {
                "start_time": 26.0022727,
                "end_time": 26.1022727,
                "pitch": 39,
                "velocity": 80,
                "duration": 0.1,
                "tempo": 120.0
            },
            {
                "start_time": 26.1022727,
                "end_time": 26.3181818,
                "pitch": 40,
                "velocity": 80,
                "duration": 0.2159091,
                "tempo": 120.0
            },
            {
                "start_time": 26.3204545,
                "end_time": 26.5295455,
                "pitch": 45,
                "velocity": 80,
                "duration": 0.2090909,
                "tempo": 120.0
            },
            {
                "start_time": 26.5295455,
                "end_time": 26.6340909,
                "pitch": 57,
                "velocity": 80,
                "duration": 0.1045455,
                "tempo": 120.0
            },
            {
                "start_time": 26.6363636,
                "end_time": 26.7409091,
                "pitch": 45,
                "velocity": 80,
                "duration": 0.1045455,
                "tempo": 120.0
            },
            {
                "start_time": 26.7409091,
                "end_time": 26.8409091,
                "pitch": 45,
                "velocity": 80,
                "duration": 0.1,
                "tempo": 120.0
            },
            {
                "start_time": 26.8409091,
                "end_time": 26.9409091,
                "pitch": 45,
                "velocity": 80,
                "duration": 0.1,
                "tempo": 120.0
            },
            {
                "start_time": 26.9409091,
                "end_time": 27.1409091,
                "pitch": 57,
                "velocity": 80,
                "duration": 0.2,
                "tempo": 120.0
            },
            {
                "start_time": 27.1409091,
                "end_time": 27.3409091,
                "pitch": 43,
                "velocity": 80,
                "duration": 0.2,
                "tempo": 120.0
            },
            {
                "start_time": 27.3409091,
                "end_time": 27.4409091,
                "pitch": 42,
                "velocity": 80,
                "duration": 0.1,
                "tempo": 120.0
            },
            {
                "start_time": 27.4431818,
                "end_time": 27.6613636,
                "pitch": 43,
                "velocity": 80,
                "duration": 0.2181818,
                "tempo": 120.0
            },
            {
                "start_time": 27.6613636,
                "end_time": 27.7636364,
                "pitch": 42,
                "velocity": 80,
                "duration": 0.1022727,
                "tempo": 120.0
            },
            {
                "start_time": 27.7636364,
                "end_time": 27.9681818,
                "pitch": 43,
                "velocity": 80,
                "duration": 0.2045455,
                "tempo": 120.0
            },
            {
                "start_time": 27.9704545,
                "end_time": 28.1681818,
                "pitch": 41,
                "velocity": 80,
                "duration": 0.1977273,
                "tempo": 120.0
            },
            {
                "start_time": 28.1681818,
                "end_time": 28.2681818,
                "pitch": 53,
                "velocity": 80,
                "duration": 0.1,
                "tempo": 120.0
            },
            {
                "start_time": 28.2681818,
                "end_time": 28.3681818,
                "pitch": 41,
                "velocity": 80,
                "duration": 0.1,
                "tempo": 120.0
            },
            {
                "start_time": 28.3681818,
                "end_time": 28.4681818,
                "pitch": 41,
                "velocity": 80,
                "duration": 0.1,
                "tempo": 120.0
            },
            {
                "start_time": 28.4681818,
                "end_time": 28.5681818,
                "pitch": 41,
                "velocity": 80,
                "duration": 0.1,
                "tempo": 120.0
            },
            {
                "start_time": 28.5704545,
                "end_time": 28.7704545,
                "pitch": 53,
                "velocity": 80,
                "duration": 0.2,
                "tempo": 120.0
            },
            {
                "start_time": 28.7704545,
                "end_time": 28.9863636,
                "pitch": 40,
                "velocity": 80,
                "duration": 0.2159091,
                "tempo": 120.0
            },
            {
                "start_time": 28.9863636,
                "end_time": 29.0863636,
                "pitch": 39,
                "velocity": 80,
                "duration": 0.1,
                "tempo": 120.0
            },
            {
                "start_time": 29.0863636,
                "end_time": 29.2909091,
                "pitch": 40,
                "velocity": 80,
                "duration": 0.2045455,
                "tempo": 120.0
            },
            {
                "start_time": 29.2909091,
                "end_time": 29.3954545,
                "pitch": 39,
                "velocity": 80,
                "duration": 0.1045455,
                "tempo": 120.0
            },
            {
                "start_time": 29.3977273,
                "end_time": 29.6068182,
                "pitch": 40,
                "velocity": 80,
                "duration": 0.2090909,
                "tempo": 120.0
            },
            {
                "start_time": 29.6090909,
                "end_time": 29.8068182,
                "pitch": 45,
                "velocity": 80,
                "duration": 0.1977273,
                "tempo": 120.0
            },
            {
                "start_time": 29.8068182,
                "end_time": 29.9068182,
                "pitch": 57,
                "velocity": 80,
                "duration": 0.1,
                "tempo": 120.0
            },
            {
                "start_time": 29.9068182,
                "end_time": 30.0068182,
                "pitch": 45,
                "velocity": 80,
                "duration": 0.1,
                "tempo": 120.0
            },
            {
                "start_time": 30.0068182,
                "end_time": 30.1068182,
                "pitch": 45,
                "velocity": 80,
                "duration": 0.1,
                "tempo": 120.0
            },
            {
                "start_time": 30.1068182,
                "end_time": 30.2068182,
                "pitch": 45,
                "velocity": 80,
                "duration": 0.1,
                "tempo": 120.0
            },
            {
                "start_time": 30.2068182,
                "end_time": 30.4227273,
                "pitch": 57,
                "velocity": 80,
                "duration": 0.2159091,
                "tempo": 120.0
            },
            {
                "start_time": 30.4227273,
                "end_time": 30.6272727,
                "pitch": 43,
                "velocity": 80,
                "duration": 0.2045455,
                "tempo": 120.0
            },
            {
                "start_time": 30.6295455,
                "end_time": 30.7295455,
                "pitch": 42,
                "velocity": 80,
                "duration": 0.1,
                "tempo": 120.0
            },
            {
                "start_time": 30.7318182,
                "end_time": 30.9318182,
                "pitch": 43,
                "velocity": 80,
                "duration": 0.2,
                "tempo": 120.0
            },
            {
                "start_time": 30.9340909,
                "end_time": 31.0340909,
                "pitch": 42,
                "velocity": 80,
                "duration": 0.1,
                "tempo": 120.0
            },
            {
                "start_time": 31.0340909,
                "end_time": 31.2340909,
                "pitch": 43,
                "velocity": 80,
                "duration": 0.2,
                "tempo": 120.0
            },
            {
                "start_time": 31.2363636,
                "end_time": 31.4340909,
                "pitch": 41,
                "velocity": 80,
                "duration": 0.1977273,
                "tempo": 120.0
            },
            {
                "start_time": 31.4340909,
                "end_time": 31.5340909,
                "pitch": 53,
                "velocity": 80,
                "duration": 0.1,
                "tempo": 120.0
            },
            {
                "start_time": 31.5340909,
                "end_time": 31.65,
                "pitch": 41,
                "velocity": 80,
                "duration": 0.1159091,
                "tempo": 120.0
            },
            {
                "start_time": 31.6522727,
                "end_time": 31.7545455,
                "pitch": 41,
                "velocity": 80,
                "duration": 0.1022727,
                "tempo": 120.0
            },
            {
                "start_time": 31.7568182,
                "end_time": 31.8613636,
                "pitch": 41,
                "velocity": 80,
                "duration": 0.1045455,
                "tempo": 120.0
            },
            {
                "start_time": 31.8613636,
                "end_time": 32.0727273,
                "pitch": 53,
                "velocity": 80,
                "duration": 0.2113636,
                "tempo": 120.0
            },
            {
                "start_time": 32.0727273,
                "end_time": 32.2704545,
                "pitch": 40,
                "velocity": 80,
                "duration": 0.1977273,
                "tempo": 120.0
            },
            {
                "start_time": 32.2727273,
                "end_time": 32.3704545,
                "pitch": 39,
                "velocity": 80,
                "duration": 0.0977273,
                "tempo": 120.0
            },
            {
                "start_time": 32.3727273,
                "end_time": 32.5704545,
                "pitch": 40,
                "velocity": 80,
                "duration": 0.1977273,
                "tempo": 120.0
            },
            {
                "start_time": 32.5727273,
                "end_time": 32.6704545,
                "pitch": 39,
                "velocity": 80,
                "duration": 0.0977273,
                "tempo": 120.0
            },
            {
                "start_time": 32.6727273,
                "end_time": 32.8863636,
                "pitch": 40,
                "velocity": 80,
                "duration": 0.2136364,
                "tempo": 120.0
            },
            {
                "start_time": 32.8886364,
                "end_time": 33.0931818,
                "pitch": 45,
                "velocity": 80,
                "duration": 0.2045455,
                "tempo": 120.0
            },
            {
                "start_time": 33.0931818,
                "end_time": 33.1954545,
                "pitch": 57,
                "velocity": 80,
                "duration": 0.1022727,
                "tempo": 120.0
            },
            {
                "start_time": 33.1954545,
                "end_time": 33.2977273,
                "pitch": 45,
                "velocity": 80,
                "duration": 0.1022727,
                "tempo": 120.0
            },
            {
                "start_time": 33.2977273,
                "end_time": 33.3977273,
                "pitch": 45,
                "velocity": 80,
                "duration": 0.1,
                "tempo": 120.0
            },
            {
                "start_time": 33.3977273,
                "end_time": 33.4954545,
                "pitch": 45,
                "velocity": 80,
                "duration": 0.0977273,
                "tempo": 120.0
            },
            {
                "start_time": 33.4977273,
                "end_time": 33.6977273,
                "pitch": 57,
                "velocity": 80,
                "duration": 0.2,
                "tempo": 120.0
            },
            {
                "start_time": 33.6977273,
                "end_time": 33.8977273,
                "pitch": 43,
                "velocity": 80,
                "duration": 0.2,
                "tempo": 120.0
            },
            {
                "start_time": 33.8977273,
                "end_time": 33.9977273,
                "pitch": 42,
                "velocity": 80,
                "duration": 0.1,
                "tempo": 120.0
            },
            {
                "start_time": 33.9977273,
                "end_time": 34.2181818,
                "pitch": 43,
                "velocity": 80,
                "duration": 0.2204545,
                "tempo": 120.0
            },
            {
                "start_time": 34.2181818,
                "end_time": 34.3204545,
                "pitch": 42,
                "velocity": 80,
                "duration": 0.1022727,
                "tempo": 120.0
            },
            {
                "start_time": 34.3204545,
                "end_time": 34.525,
                "pitch": 43,
                "velocity": 80,
                "duration": 0.2045455,
                "tempo": 120.0
            },
            {
                "start_time": 34.5272727,
                "end_time": 34.725,
                "pitch": 41,
                "velocity": 80,
                "duration": 0.1977273,
                "tempo": 120.0
            },
            {
                "start_time": 34.725,
                "end_time": 34.825,
                "pitch": 53,
                "velocity": 80,
                "duration": 0.1,
                "tempo": 120.0
            },
            {
                "start_time": 34.825,
                "end_time": 34.925,
                "pitch": 41,
                "velocity": 80,
                "duration": 0.1,
                "tempo": 120.0
            },
            {
                "start_time": 34.925,
                "end_time": 35.025,
                "pitch": 41,
                "velocity": 80,
                "duration": 0.1,
                "tempo": 120.0
            },
            {
                "start_time": 35.025,
                "end_time": 35.1227273,
                "pitch": 41,
                "velocity": 80,
                "duration": 0.0977273,
                "tempo": 120.0
            },
            {
                "start_time": 35.125,
                "end_time": 35.3227273,
                "pitch": 53,
                "velocity": 80,
                "duration": 0.1977273,
                "tempo": 120.0
            },
            {
                "start_time": 35.325,
                "end_time": 35.5409091,
                "pitch": 40,
                "velocity": 80,
                "duration": 0.2159091,
                "tempo": 120.0
            },
            {
                "start_time": 35.5431818,
                "end_time": 35.6409091,
                "pitch": 39,
                "velocity": 80,
                "duration": 0.0977273,
                "tempo": 120.0
            },
            {
                "start_time": 35.6431818,
                "end_time": 35.8477273,
                "pitch": 40,
                "velocity": 80,
                "duration": 0.2045455,
                "tempo": 120.0
            },
            {
                "start_time": 35.8477273,
                "end_time": 35.9522727,
                "pitch": 39,
                "velocity": 80,
                "duration": 0.1045455,
                "tempo": 120.0
            },
            {
                "start_time": 35.9545455,
                "end_time": 36.1636364,
                "pitch": 40,
                "velocity": 80,
                "duration": 0.2090909,
                "tempo": 120.0
            },
            {
                "start_time": 36.1659091,
                "end_time": 36.3659091,
                "pitch": 45,
                "velocity": 80,
                "duration": 0.2,
                "tempo": 120.0
            },
            {
                "start_time": 36.3659091,
                "end_time": 36.4659091,
                "pitch": 57,
                "velocity": 80,
                "duration": 0.1,
                "tempo": 120.0
            },
            {
                "start_time": 36.4659091,
                "end_time": 36.5659091,
                "pitch": 45,
                "velocity": 80,
                "duration": 0.1,
                "tempo": 120.0
            },
            {
                "start_time": 36.5681818,
                "end_time": 36.6818182,
                "pitch": 45,
                "velocity": 80,
                "duration": 0.1136364,
                "tempo": 120.0
            },
            {
                "start_time": 36.6840909,
                "end_time": 36.7818182,
                "pitch": 45,
                "velocity": 80,
                "duration": 0.0977273,
                "tempo": 120.0
            },
            {
                "start_time": 36.7840909,
                "end_time": 36.9818182,
                "pitch": 57,
                "velocity": 80,
                "duration": 0.1977273,
                "tempo": 120.0
            },
            {
                "start_time": 36.9840909,
                "end_time": 37.1863636,
                "pitch": 41,
                "velocity": 80,
                "duration": 0.2022727,
                "tempo": 120.0
            },
            {
                "start_time": 37.1886364,
                "end_time": 37.2886364,
                "pitch": 40,
                "velocity": 80,
                "duration": 0.1,
                "tempo": 120.0
            },
            {
                "start_time": 37.2909091,
                "end_time": 37.4931818,
                "pitch": 41,
                "velocity": 80,
                "duration": 0.2022727,
                "tempo": 120.0
            },
            {
                "start_time": 37.4931818,
                "end_time": 37.5931818,
                "pitch": 40,
                "velocity": 80,
                "duration": 0.1,
                "tempo": 120.0
            },
            {
                "start_time": 37.5931818,
                "end_time": 37.7931818,
                "pitch": 41,
                "velocity": 80,
                "duration": 0.2,
                "tempo": 120.0
            },
            {
                "start_time": 37.7954545,
                "end_time": 38.0113636,
                "pitch": 43,
                "velocity": 80,
                "duration": 0.2159091,
                "tempo": 120.0
            },
            {
                "start_time": 38.0113636,
                "end_time": 38.1090909,
                "pitch": 55,
                "velocity": 80,
                "duration": 0.0977273,
                "tempo": 120.0
            },
            {
                "start_time": 38.1113636,
                "end_time": 38.2090909,
                "pitch": 43,
                "velocity": 80,
                "duration": 0.0977273,
                "tempo": 120.0
            },
            {
                "start_time": 38.2113636,
                "end_time": 38.3113636,
                "pitch": 43,
                "velocity": 80,
                "duration": 0.1,
                "tempo": 120.0
            },
            {
                "start_time": 38.3136364,
                "end_time": 38.4159091,
                "pitch": 43,
                "velocity": 80,
                "duration": 0.1022727,
                "tempo": 120.0
            },
            {
                "start_time": 38.4159091,
                "end_time": 38.6204545,
                "pitch": 55,
                "velocity": 80,
                "duration": 0.2045455,
                "tempo": 120.0
            },
            {
                "start_time": 38.6204545,
                "end_time": 38.825,
                "pitch": 40,
                "velocity": 80,
                "duration": 0.2045455,
                "tempo": 120.0
            },
            {
                "start_time": 38.8272727,
                "end_time": 38.9272727,
                "pitch": 39,
                "velocity": 80,
                "duration": 0.1,
                "tempo": 120.0
            },
            {
                "start_time": 38.9272727,
                "end_time": 39.1295455,
                "pitch": 40,
                "velocity": 80,
                "duration": 0.2022727,
                "tempo": 120.0
            },
            {
                "start_time": 39.1295455,
                "end_time": 39.2454545,
                "pitch": 39,
                "velocity": 80,
                "duration": 0.1159091,
                "tempo": 120.0
            },
            {
                "start_time": 39.2477273,
                "end_time": 39.4454545,
                "pitch": 40,
                "velocity": 80,
                "duration": 0.1977273,
                "tempo": 120.0
            },
            {
                "start_time": 39.4477273,
                "end_time": 39.6522727,
                "pitch": 45,
                "velocity": 80,
                "duration": 0.2045455,
                "tempo": 120.0
            },
            {
                "start_time": 39.6522727,
                "end_time": 39.7545455,
                "pitch": 57,
                "velocity": 80,
                "duration": 0.1022727,
                "tempo": 120.0
            },
            {
                "start_time": 39.7545455,
                "end_time": 39.8568182,
                "pitch": 45,
                "velocity": 80,
                "duration": 0.1022727,
                "tempo": 120.0
            },
            {
                "start_time": 39.8568182,
                "end_time": 39.9568182,
                "pitch": 45,
                "velocity": 80,
                "duration": 0.1,
                "tempo": 120.0
            },
            {
                "start_time": 39.9568182,
                "end_time": 40.0568182,
                "pitch": 45,
                "velocity": 80,
                "duration": 0.1,
                "tempo": 120.0
            },
            {
                "start_time": 40.0590909,
                "end_time": 40.2590909,
                "pitch": 57,
                "velocity": 80,
                "duration": 0.2,
                "tempo": 120.0
            },
            {
                "start_time": 40.2590909,
                "end_time": 40.475,
                "pitch": 41,
                "velocity": 80,
                "duration": 0.2159091,
                "tempo": 120.0
            },
            {
                "start_time": 40.475,
                "end_time": 40.575,
                "pitch": 40,
                "velocity": 80,
                "duration": 0.1,
                "tempo": 120.0
            },
            {
                "start_time": 40.575,
                "end_time": 40.7772727,
                "pitch": 41,
                "velocity": 80,
                "duration": 0.2022727,
                "tempo": 120.0
            },
            {
                "start_time": 40.7772727,
                "end_time": 40.8795455,
                "pitch": 40,
                "velocity": 80,
                "duration": 0.1022727,
                "tempo": 120.0
            },
            {
                "start_time": 40.8795455,
                "end_time": 41.0840909,
                "pitch": 41,
                "velocity": 80,
                "duration": 0.2045455,
                "tempo": 120.0
            },
            {
                "start_time": 41.0863636,
                "end_time": 41.2840909,
                "pitch": 43,
                "velocity": 80,
                "duration": 0.1977273,
                "tempo": 120.0
            },
            {
                "start_time": 41.2840909,
                "end_time": 41.3840909,
                "pitch": 55,
                "velocity": 80,
                "duration": 0.1,
                "tempo": 120.0
            },
            {
                "start_time": 41.3840909,
                "end_time": 41.4840909,
                "pitch": 43,
                "velocity": 80,
                "duration": 0.1,
                "tempo": 120.0
            },
            {
                "start_time": 41.4840909,
                "end_time": 41.5840909,
                "pitch": 43,
                "velocity": 80,
                "duration": 0.1,
                "tempo": 120.0
            },
            {
                "start_time": 41.5840909,
                "end_time": 41.7022727,
                "pitch": 43,
                "velocity": 80,
                "duration": 0.1181818,
                "tempo": 120.0
            },
            {
                "start_time": 41.7022727,
                "end_time": 41.9022727,
                "pitch": 55,
                "velocity": 80,
                "duration": 0.2,
                "tempo": 120.0
            },
            {
                "start_time": 41.9022727,
                "end_time": 42.1136364,
                "pitch": 40,
                "velocity": 80,
                "duration": 0.2113636,
                "tempo": 120.0
            },
            {
                "start_time": 42.1136364,
                "end_time": 42.2181818,
                "pitch": 39,
                "velocity": 80,
                "duration": 0.1045455,
                "tempo": 120.0
            },
            {
                "start_time": 42.2181818,
                "end_time": 42.425,
                "pitch": 40,
                "velocity": 80,
                "duration": 0.2068182,
                "tempo": 120.0
            },
            {
                "start_time": 42.425,
                "end_time": 42.525,
                "pitch": 39,
                "velocity": 80,
                "duration": 0.1,
                "tempo": 120.0
            },
            {
                "start_time": 42.525,
                "end_time": 42.725,
                "pitch": 40,
                "velocity": 80,
                "duration": 0.2,
                "tempo": 120.0
            },
            {
                "start_time": 42.7272727,
                "end_time": 42.925,
                "pitch": 41,
                "velocity": 80,
                "duration": 0.1977273,
                "tempo": 120.0
            },
            {
                "start_time": 42.925,
                "end_time": 43.0409091,
                "pitch": 53,
                "velocity": 80,
                "duration": 0.1159091,
                "tempo": 120.0
            },
            {
                "start_time": 43.0431818,
                "end_time": 43.1409091,
                "pitch": 41,
                "velocity": 80,
                "duration": 0.0977273,
                "tempo": 120.0
            },
            {
                "start_time": 43.1431818,
                "end_time": 43.2431818,
                "pitch": 41,
                "velocity": 80,
                "duration": 0.1,
                "tempo": 120.0
            },
            {
                "start_time": 43.2454545,
                "end_time": 43.3454545,
                "pitch": 41,
                "velocity": 80,
                "duration": 0.1,
                "tempo": 120.0
            },
            {
                "start_time": 43.3477273,
                "end_time": 43.5522727,
                "pitch": 53,
                "velocity": 80,
                "duration": 0.2045455,
                "tempo": 120.0
            },
            {
                "start_time": 43.5522727,
                "end_time": 43.95,
                "pitch": 41,
                "velocity": 80,
                "duration": 0.3977273,
                "tempo": 120.0
            },
            {
                "start_time": 43.9522727,
                "end_time": 44.3704545,
                "pitch": 43,
                "velocity": 80,
                "duration": 0.4181818,
                "tempo": 120.0
            },
            {
                "start_time": 44.3704545,
                "end_time": 44.5795455,
                "pitch": 45,
                "velocity": 80,
                "duration": 0.2090909,
                "tempo": 120.0
            },
            {
                "start_time": 44.5818182,
                "end_time": 44.6840909,
                "pitch": 57,
                "velocity": 80,
                "duration": 0.1022727,
                "tempo": 120.0
            },
            {
                "start_time": 44.6863636,
                "end_time": 44.7909091,
                "pitch": 45,
                "velocity": 80,
                "duration": 0.1045455,
                "tempo": 120.0
            },
            {
                "start_time": 44.7909091,
                "end_time": 44.8909091,
                "pitch": 45,
                "velocity": 80,
                "duration": 0.1,
                "tempo": 120.0
            },
            {
                "start_time": 44.8931818,
                "end_time": 44.9909091,
                "pitch": 45,
                "velocity": 80,
                "duration": 0.0977273,
                "tempo": 120.0
            },
            {
                "start_time": 44.9931818,
                "end_time": 45.1931818,
                "pitch": 57,
                "velocity": 80,
                "duration": 0.2,
                "tempo": 120.0
            },
            {
                "start_time": 45.1931818,
                "end_time": 45.3886364,
                "pitch": 47,
                "velocity": 80,
                "duration": 0.1954545,
                "tempo": 120.0
            },
            {
                "start_time": 45.3886364,
                "end_time": 45.6,
                "pitch": 48,
                "velocity": 80,
                "duration": 0.2113636,
                "tempo": 120.0
            },
            {
                "start_time": 45.6022727,
                "end_time": 46.0227273,
                "pitch": 47,
                "velocity": 80,
                "duration": 0.4204545,
                "tempo": 120.0
            },
            {
                "start_time": 46.0227273,
                "end_time": 46.2227273,
                "pitch": 41,
                "velocity": 80,
                "duration": 0.2,
                "tempo": 120.0
            },
            {
                "start_time": 46.225,
                "end_time": 46.3227273,
                "pitch": 53,
                "velocity": 80,
                "duration": 0.0977273,
                "tempo": 120.0
            },
            {
                "start_time": 46.325,
                "end_time": 46.425,
                "pitch": 41,
                "velocity": 80,
                "duration": 0.1,
                "tempo": 120.0
            },
            {
                "start_time": 46.425,
                "end_time": 46.5227273,
                "pitch": 41,
                "velocity": 80,
                "duration": 0.0977273,
                "tempo": 120.0
            },
            {
                "start_time": 46.525,
                "end_time": 46.6227273,
                "pitch": 41,
                "velocity": 80,
                "duration": 0.0977273,
                "tempo": 120.0
            },
            {
                "start_time": 46.625,
                "end_time": 46.8409091,
                "pitch": 53,
                "velocity": 80,
                "duration": 0.2159091,
                "tempo": 120.0
            },
            {
                "start_time": 46.8409091,
                "end_time": 47.25,
                "pitch": 41,
                "velocity": 80,
                "duration": 0.4090909,
                "tempo": 120.0
            },
            {
                "start_time": 47.2522727,
                "end_time": 47.6613636,
                "pitch": 43,
                "velocity": 80,
                "duration": 0.4090909,
                "tempo": 120.0
            },
            {
                "start_time": 47.6613636,
                "end_time": 47.8590909,
                "pitch": 45,
                "velocity": 80,
                "duration": 0.1977273,
                "tempo": 120.0
            },
            {
                "start_time": 47.8613636,
                "end_time": 47.9590909,
                "pitch": 57,
                "velocity": 80,
                "duration": 0.0977273,
                "tempo": 120.0
            },
            {
                "start_time": 47.9613636,
                "end_time": 48.0772727,
                "pitch": 45,
                "velocity": 80,
                "duration": 0.1159091,
                "tempo": 120.0
            },
            {
                "start_time": 48.0772727,
                "end_time": 48.1795455,
                "pitch": 45,
                "velocity": 80,
                "duration": 0.1022727,
                "tempo": 120.0
            },
            {
                "start_time": 48.1795455,
                "end_time": 48.2818182,
                "pitch": 45,
                "velocity": 80,
                "duration": 0.1022727,
                "tempo": 120.0
            },
            {
                "start_time": 48.2818182,
                "end_time": 48.4863636,
                "pitch": 57,
                "velocity": 80,
                "duration": 0.2045455,
                "tempo": 120.0
            },
            {
                "start_time": 48.4886364,
                "end_time": 48.6886364,
                "pitch": 47,
                "velocity": 80,
                "duration": 0.2,
                "tempo": 120.0
            },
            {
                "start_time": 48.6886364,
                "end_time": 48.8886364,
                "pitch": 48,
                "velocity": 80,
                "duration": 0.2,
                "tempo": 120.0
            },
            {
                "start_time": 48.8886364,
                "end_time": 49.3045455,
                "pitch": 47,
                "velocity": 80,
                "duration": 0.4159091,
                "tempo": 120.0
            },
            {
                "start_time": 49.3068182,
                "end_time": 49.5090909,
                "pitch": 41,
                "velocity": 80,
                "duration": 0.2022727,
                "tempo": 120.0
            },
            {
                "start_time": 49.5113636,
                "end_time": 49.6295455,
                "pitch": 53,
                "velocity": 80,
                "duration": 0.1181818,
                "tempo": 120.0
            },
            {
                "start_time": 49.6295455,
                "end_time": 49.7318182,
                "pitch": 41,
                "velocity": 80,
                "duration": 0.1022727,
                "tempo": 120.0
            },
            {
                "start_time": 49.7318182,
                "end_time": 49.8363636,
                "pitch": 41,
                "velocity": 80,
                "duration": 0.1045455,
                "tempo": 120.0
            },
            {
                "start_time": 49.8386364,
                "end_time": 49.9431818,
                "pitch": 41,
                "velocity": 80,
                "duration": 0.1045455,
                "tempo": 120.0
            },
            {
                "start_time": 49.9431818,
                "end_time": 50.1545455,
                "pitch": 53,
                "velocity": 80,
                "duration": 0.2113636,
                "tempo": 120.0
            },
            {
                "start_time": 50.1545455,
                "end_time": 50.5522727,
                "pitch": 41,
                "velocity": 80,
                "duration": 0.3977273,
                "tempo": 120.0
            },
            {
                "start_time": 50.5545455,
                "end_time": 50.9681818,
                "pitch": 43,
                "velocity": 80,
                "duration": 0.4136364,
                "tempo": 120.0
            },
            {
                "start_time": 50.9704545,
                "end_time": 51.1795455,
                "pitch": 45,
                "velocity": 80,
                "duration": 0.2090909,
                "tempo": 120.0
            },
            {
                "start_time": 51.1795455,
                "end_time": 51.2840909,
                "pitch": 57,
                "velocity": 80,
                "duration": 0.1045455,
                "tempo": 120.0
            },
            {
                "start_time": 51.2840909,
                "end_time": 51.3886364,
                "pitch": 45,
                "velocity": 80,
                "duration": 0.1045455,
                "tempo": 120.0
            },
            {
                "start_time": 51.3909091,
                "end_time": 51.4863636,
                "pitch": 45,
                "velocity": 80,
                "duration": 0.0954545,
                "tempo": 120.0
            },
            {
                "start_time": 51.4886364,
                "end_time": 51.5840909,
                "pitch": 45,
                "velocity": 80,
                "duration": 0.0954545,
                "tempo": 120.0
            },
            {
                "start_time": 51.5863636,
                "end_time": 51.7818182,
                "pitch": 57,
                "velocity": 80,
                "duration": 0.1954545,
                "tempo": 120.0
            },
            {
                "start_time": 51.7818182,
                "end_time": 51.9818182,
                "pitch": 47,
                "velocity": 80,
                "duration": 0.2,
                "tempo": 120.0
            },
            {
                "start_time": 51.9818182,
                "end_time": 52.1977273,
                "pitch": 48,
                "velocity": 80,
                "duration": 0.2159091,
                "tempo": 120.0
            },
            {
                "start_time": 52.1977273,
                "end_time": 52.6181818,
                "pitch": 47,
                "velocity": 80,
                "duration": 0.4204545,
                "tempo": 120.0
            },
            {
                "start_time": 52.6204545,
                "end_time": 52.8181818,
                "pitch": 41,
                "velocity": 80,
                "duration": 0.1977273,
                "tempo": 120.0
            },
            {
                "start_time": 52.8181818,
                "end_time": 52.9181818,
                "pitch": 53,
                "velocity": 80,
                "duration": 0.1,
                "tempo": 120.0
            },
            {
                "start_time": 52.9181818,
                "end_time": 53.0181818,
                "pitch": 41,
                "velocity": 80,
                "duration": 0.1,
                "tempo": 120.0
            },
            {
                "start_time": 53.0181818,
                "end_time": 53.1181818,
                "pitch": 41,
                "velocity": 80,
                "duration": 0.1,
                "tempo": 120.0
            },
            {
                "start_time": 53.1181818,
                "end_time": 53.2159091,
                "pitch": 41,
                "velocity": 80,
                "duration": 0.0977273,
                "tempo": 120.0
            },
            {
                "start_time": 53.2181818,
                "end_time": 53.4340909,
                "pitch": 53,
                "velocity": 80,
                "duration": 0.2159091,
                "tempo": 120.0
            },
            {
                "start_time": 53.4340909,
                "end_time": 53.8431818,
                "pitch": 41,
                "velocity": 80,
                "duration": 0.4090909,
                "tempo": 120.0
            },
            {
                "start_time": 53.8454545,
                "end_time": 54.2431818,
                "pitch": 43,
                "velocity": 80,
                "duration": 0.3977273,
                "tempo": 120.0
            },
            {
                "start_time": 54.2431818,
                "end_time": 54.4431818,
                "pitch": 45,
                "velocity": 80,
                "duration": 0.2,
                "tempo": 120.0
            },
            {
                "start_time": 54.4431818,
                "end_time": 54.5431818,
                "pitch": 57,
                "velocity": 80,
                "duration": 0.1,
                "tempo": 120.0
            },
            {
                "start_time": 54.5431818,
                "end_time": 54.6590909,
                "pitch": 45,
                "velocity": 80,
                "duration": 0.1159091,
                "tempo": 120.0
            },
            {
                "start_time": 54.6590909,
                "end_time": 54.7636364,
                "pitch": 45,
                "velocity": 80,
                "duration": 0.1045455,
                "tempo": 120.0
            },
            {
                "start_time": 54.7636364,
                "end_time": 54.8681818,
                "pitch": 45,
                "velocity": 80,
                "duration": 0.1045455,
                "tempo": 120.0
            },
            {
                "start_time": 54.8704545,
                "end_time": 55.0795455,
                "pitch": 57,
                "velocity": 80,
                "duration": 0.2090909,
                "tempo": 120.0
            },
            {
                "start_time": 55.0818182,
                "end_time": 55.275,
                "pitch": 47,
                "velocity": 80,
                "duration": 0.1931818,
                "tempo": 120.0
            },
            {
                "start_time": 55.2772727,
                "end_time": 55.4704545,
                "pitch": 48,
                "velocity": 80,
                "duration": 0.1931818,
                "tempo": 120.0
            },
            {
                "start_time": 55.4727273,
                "end_time": 55.8977273,
                "pitch": 47,
                "velocity": 80,
                "duration": 0.425,
                "tempo": 120.0
            }
        ]
    }
}