{
    "mood": "angry",
    "instruments": {
        "Acoustic Grand Piano": [
            {
                "start_time": 0.0159091,
                "end_time": 1.6090909,
                "pitch": 64,
                "velocity": 64,
                "duration": 1.5931818,
                "tempo": 120.0
            },
            {
                "start_time": 1.6113636,
                "end_time": 3.2181818,
                "pitch": 65,
                "velocity": 64,
                "duration": 1.6068182,
                "tempo": 120.0
            },
            {
                "start_time": 3.2181818,
                "end_time": 4.8340909,
                "pitch": 62,
                "velocity": 64,
                "duration": 1.6159091,
                "tempo": 120.0
            },
            {
                "start_time": 4.8340909,
                "end_time": 5.6363636,
                "pitch": 60,
                "velocity": 64,
                "duration": 0.8022727,
                "tempo": 120.0
            },
            {
                "start_time": 5.6386364,
                "end_time": 6.4409091,
                "pitch": 62,
                "velocity": 64,
                "duration": 0.8022727,
                "tempo": 120.0
            },
            {
                "start_time": 6.4431818,
                "end_time": 8.05,
                "pitch": 64,
                "velocity": 64,
                "duration": 1.6068182,
                "tempo": 120.0
            },
            {
                "start_time": 8.0522727,
                "end_time": 9.6613636,
                "pitch": 65,
                "velocity": 64,
                "duration": 1.6090909,
                "tempo": 120.0
            },
            {
                "start_time": 9.6613636,
                "end_time": 11.2704545,
                "pitch": 62,
                "velocity": 64,
                "duration": 1.6090909,
                "tempo": 120.0
            },
            {
                "start_time": 11.2727273,
                "end_time": 12.0863636,
                "pitch": 64,
                "velocity": 64,
                "duration": 0.8136364,
                "tempo": 120.0
            },
            {
                "start_time": 12.0863636,
                "end_time": 12.8818182,
                "pitch": 62,
                "velocity": 64,
                "duration": 0.7954545,
                "tempo": 120.0
            },
            {
                "start_time": 12.8840909,
                "end_time": 14.5,
                "pitch": 64,
                "velocity": 64,
                "duration": 1.6159091,
                "tempo": 120.0
            },
            {
                "start_time": 14.5022727,
                "end_time": 16.1136364,
                "pitch": 65,
                "velocity": 64,
                "duration": 1.6113636,
                "tempo": 120.0
            },
            {
                "start_time": 16.1136364,
                "end_time": 17.7204545,
                "pitch": 62,
                "velocity": 64,
                "duration": 1.6068182,
                "tempo": 120.0
            },
            {
                "start_time": 17.7204545,
                "end_time": 18.5318182,
                "pitch": 60,
                "velocity": 64,
                "duration": 0.8113636,
                "tempo": 120.0
            },
            {
                "start_time": 18.5340909,
                "end_time": 19.325,
                "pitch": 62,
                "velocity": 64,
                "duration": 0.7909091,
                "tempo": 120.0
            },
            {
                "start_time": 19.3272727,
                "end_time": 20.9431818,
                "pitch": 64,
                "velocity": 64,
                "duration": 1.6159091,
                "tempo": 120.0
            },
            {
                "start_time": 20.9454545,
                "end_time": 22.5477273,
                "pitch": 65,
                "velocity": 64,
                "duration": 1.6022727,
                "tempo": 120.0
            },
            {
                "start_time": 22.55,
                "end_time": 24.1568182,
                "pitch": 62,
                "velocity": 64,
                "duration": 1.6068182,
                "tempo": 120.0
            },
            {
                "start_time": 24.1568182,
                "end_time": 24.9590909,
                "pitch": 64,
                "velocity": 64,
                "duration": 0.8022727,
                "tempo": 120.0
            },
            {
                "start_time": 24.9613636,
                "end_time": 25.7613636,
                "pitch": 62,
                "velocity": 64,
                "duration": 0.8,
                "tempo": 120.0
            },
            {
                "start_time": 25.7636364,
                "end_time": 27.3704545,
                "pitch": 64,
                "velocity": 51,
                "duration": 1.6068182,
                "tempo": 120.0
            },
            {
                "start_time": 27.3727273,
                "end_time": 28.9863636,
                "pitch": 65,
                "velocity": 51,
                "duration": 1.6136364,
                "tempo": 120.0
            },
            {
                "start_time": 28.9863636,
                "end_time": 30.5931818,
                "pitch": 62,
                "velocity": 51,
                "duration": 1.6068182,
                "tempo": 120.0
            },
            {
                "start_time": 30.5954545,
                "end_time": 31.3954545,
                "pitch": 60,
                "velocity": 51,
                "duration": 0.8,
                "tempo": 120.0
            },
            {
                "start_time": 31.3977273,
                "end_time": 32.2,
                "pitch": 62,
                "velocity": 51,
                "duration": 0.8022727,
                "tempo": 120.0
            },
            {
                "start_time": 32.2,
                "end_time": 33.8068182,
                "pitch": 64,
                "velocity": 51,
                "duration": 1.6068182,
                "tempo": 120.0
            },
            {
                "start_time": 33.8068182,
                "end_time": 35.4136364,
                "pitch": 65,
                "velocity": 51,
                "duration": 1.6068182,
                "tempo": 120.0
            },
            {
                "start_time": 35.4136364,
                "end_time": 37.0295455,
                "pitch": 62,
                "velocity": 51,
                "duration": 1.6159091,
                "tempo": 120.0
            },
            {
                "start_time": 37.0318182,
                "end_time": 37.8295455,
                "pitch": 64,
                "velocity": 51,
                "duration": 0.7977273,
                "tempo": 120.0
            },
            {
                "start_time": 37.8295455,
                "end_time": 38.6318182,
                "pitch": 62,
                "velocity": 51,
                "duration": 0.8022727,
                "tempo": 120.0
            },
            {
                "start_time": 38.6340909,
                "end_time": 40.2340909,
                "pitch": 64,
                "velocity": 51,
                "duration": 1.6,
                "tempo": 120.0
            },
            {
                "start_time": 40.2340909,
                "end_time": 41.8386364,
                "pitch": 65,
                "velocity": 51,
                "duration": 1.6045455,
                "tempo": 120.0
            },
            {
                "start_time": 41.8409091,
                "end_time": 43.4545455,
                "pitch": 62,
                "velocity": 51,
                "duration": 1.6136364,
                "tempo": 120.0
            },
            {
                "start_time": 43.4568182,
                "end_time": 44.2568182,
                "pitch": 60,
                "velocity": 51,
                "duration": 0.8,
                "tempo": 120.0
            },
            {
                "start_time": 44.2590909,
                "end_time": 45.0522727,
                "pitch": 62,
                "velocity": 51,
                "duration": 0.7931818,
                "tempo": 120.0
            },
            {
                "start_time": 45.0522727,
                "end_time": 46.6704545,
                "pitch": 64,
                "velocity": 51,
                "duration": 1.6181818,
                "tempo": 120.0
            },
            {
                "start_time": 46.6704545,
                "end_time": 48.275,
                "pitch": 65,
                "velocity": 51,
                "duration": 1.6045455,
                "tempo": 120.0
            },
            {
                "start_time": 48.275,
                "end_time": 49.8886364,
                "pitch": 62,
                "velocity": 51,
                "duration": 1.6136364,
                "tempo": 120.0
            },
            {
                "start_time": 51.4931818,
                "end_time": 51.4954545,
                "pitch": 64,
                "velocity": 64,
                "duration": 0.0022727,
                "tempo": 120.0
            }
        ],
        "Synth Bass 1": [
            {
                "start_time": 0.0136364,
                "end_time": 0.1090909,
                "pitch": 45,
                "velocity": 80,
                "duration": 0.0954545,
                "tempo": 120.0
            },
            {
                "start_time": 0.1113636,
                "end_time": 0.3113636,
                "pitch": 45,
                "velocity": 80,
                "duration": 0.2,
                "tempo": 120.0
            },
            {
                "start_time": 0.3136364,
                "end_time": 0.4136364,
                "pitch": 45,
                "velocity": 80,
                "duration": 0.1,
                "tempo": 120.0
            },
            {
                "start_time": 0.4136364,
                "end_time": 0.5090909,
                "pitch": 55,
                "velocity": 80,
                "duration": 0.0954545,
                "tempo": 120.0
            },
            {
                "start_time": 0.5113636,
                "end_time": 0.6090909,
                "pitch": 57,
                "velocity": 80,
                "duration": 0.0977273,
                "tempo": 120.0
            },
            {
                "start_time": 0.6090909,
                "end_time": 0.7068182,
                "pitch": 45,
                "velocity": 80,
                "duration": 0.0977273,
                "tempo": 120.0
            },
            {
                "start_time": 0.7068182,
                "end_time": 0.8045455,
                "pitch": 45,
                "velocity": 80,
                "duration": 0.0977273,
                "tempo": 120.0
            },
            {
                "start_time": 0.8068182,
                "end_time": 1.0068182,
                "pitch": 57,
                "velocity": 80,
                "duration": 0.2,
                "tempo": 120.0
            },
            {
                "start_time": 1.0090909,
                "end_time": 1.1068182,
                "pitch": 45,
                "velocity": 80,
                "duration": 0.0977273,
                "tempo": 120.0
            },
            {
                "start_time": 1.1068182,
                "end_time": 1.2090909,
                "pitch": 45,
                "velocity": 80,
                "duration": 0.1022727,
                "tempo": 120.0
            },
            {
                "start_time": 1.2090909,
                "end_time": 1.4090909,
                "pitch": 55,
                "velocity": 80,
                "duration": 0.2,
                "tempo": 120.0
            },
            {
                "start_time": 1.4090909,
                "end_time": 1.5068182,
                "pitch": 52,
                "velocity": 80,
                "duration": 0.0977273,
                "tempo": 120.0
            },
            {
                "start_time": 1.5090909,
                "end_time": 1.6090909,
                "pitch": 45,
                "velocity": 80,
                "duration": 0.1,
                "tempo": 120.0
            },
            {
                "start_time": 1.6090909,
                "end_time": 1.8113636,
                "pitch": 45,
                "velocity": 80,
                "duration": 0.2022727,
                "tempo": 120.0
            },
            {
                "start_time": 1.8136364,
                "end_time": 1.9113636,
                "pitch": 57,
                "velocity": 80,
                "duration": 0.0977273,
                "tempo": 120.0
            },
            {
                "start_time": 1.9136364,
                "end_time": 2.0113636,
                "pitch": 45,
                "velocity": 80,
                "duration": 0.0977273,
                "tempo": 120.0
            },
            {
                "start_time": 2.0136364,
                "end_time": 2.1113636,
                "pitch": 45,
                "velocity": 80,
                "duration": 0.0977273,
                "tempo": 120.0
            },
            {
                "start_time": 2.1136364,
                "end_time": 2.3113636,
                "pitch": 55,
                "velocity": 80,
                "duration": 0.1977273,
                "tempo": 120.0
            },
            {
                "start_time": 2.3136364,
                "end_time": 2.4136364,
                "pitch": 45,
                "velocity": 80,
                "duration": 0.1,
                "tempo": 120.0
            },
            {
                "start_time": 2.4136364,
                "end_time": 2.5136364,
                "pitch": 41,
                "velocity": 80,
                "duration": 0.1,
                "tempo": 120.0
            },
            {
                "start_time": 2.5136364,
                "end_time": 2.6136364,
                "pitch": 53,
                "velocity": 80,
                "duration": 0.1,
                "tempo": 120.0
            },
            {
                "start_time": 2.6136364,
                "end_time": 2.7136364,
                "pitch": 42,
                "velocity": 80,
                "duration": 0.1,
                "tempo": 120.0
            },
            {
                "start_time": 2.7159091,
                "end_time": 2.8159091,
                "pitch": 54,
                "velocity": 80,
                "duration": 0.1,
                "tempo": 120.0
            },
            {
                "start_time": 2.8181818,
                "end_time": 2.9136364,
                "pitch": 43,
                "velocity": 80,
                "duration": 0.0954545,
                "tempo": 120.0
            },
            {
                "start_time": 2.9159091,
                "end_time": 3.0159091,
                "pitch": 55,
                "velocity": 80,
                "duration": 0.1,
                "tempo": 120.0
            },
            {
                "start_time": 3.0181818,
                "end_time": 3.1159091,
                "pitch": 44,
                "velocity": 80,
                "duration": 0.0977273,
                "tempo": 120.0
            },
            {
                "start_time": 3.1159091,
                "end_time": 3.2159091,
                "pitch": 56,
                "velocity": 80,
                "duration": 0.1,
                "tempo": 120.0
            },
            {
                "start_time": 3.2181818,
                "end_time": 3.4181818,
                "pitch": 57,
                "velocity": 80,
                "duration": 0.2,
                "tempo": 120.0
            },
            {
                "start_time": 3.4204545,
                "end_time": 3.5159091,
                "pitch": 45,
                "velocity": 80,
                "duration": 0.0954545,
                "tempo": 120.0
            },
            {
                "start_time": 3.5181818,
                "end_time": 3.6181818,
                "pitch": 45,
                "velocity": 80,
                "duration": 0.1,
                "tempo": 120.0
            },
            {
                "start_time": 3.6204545,
                "end_time": 3.825,
                "pitch": 55,
                "velocity": 80,
                "duration": 0.2045455,
                "tempo": 120.0
            },
            {
                "start_time": 3.825,
                "end_time": 3.9272727,
                "pitch": 45,
                "velocity": 80,
                "duration": 0.1022727,
                "tempo": 120.0
            },
            {
                "start_time": 3.9272727,
                "end_time": 4.0295455,
                "pitch": 45,
                "velocity": 80,
                "duration": 0.1022727,
                "tempo": 120.0
            },
            {
                "start_time": 4.0318182,
                "end_time": 4.1272727,
                "pitch": 45,
                "velocity": 80,
                "duration": 0.0954545,
                "tempo": 120.0
            },
            {
                "start_time": 4.1272727,
                "end_time": 4.225,
                "pitch": 57,
                "velocity": 80,
                "duration": 0.0977273,
                "tempo": 120.0
            },
            {
                "start_time": 4.2272727,
                "end_time": 4.3227273,
                "pitch": 55,
                "velocity": 80,
                "duration": 0.0954545,
                "tempo": 120.0
            },
            {
                "start_time": 4.3227273,
                "end_time": 4.4204545,
                "pitch": 52,
                "velocity": 80,
                "duration": 0.0977273,
                "tempo": 120.0
            },
            {
                "start_time": 4.4227273,
                "end_time": 4.5227273,
                "pitch": 50,
                "velocity": 80,
                "duration": 0.1,
                "tempo": 120.0
            },
            {
                "start_time": 4.5227273,
                "end_time": 4.6272727,
                "pitch": 47,
                "velocity": 80,
                "duration": 0.1045455,
                "tempo": 120.0
            },
            {
                "start_time": 4.6272727,
                "end_time": 4.7272727,
                "pitch": 50,
                "velocity": 80,
                "duration": 0.1,
                "tempo": 120.0
            },
            {
                "start_time": 4.7295455,
                "end_time": 4.8318182,
                "pitch": 52,
                "velocity": 80,
                "duration": 0.1022727,
                "tempo": 120.0
            },
            {
                "start_time": 4.8340909,
                "end_time": 5.0340909,
                "pitch": 45,
                "velocity": 80,
                "duration": 0.2,
                "tempo": 120.0
            },
            {
                "start_time": 5.0363636,
                "end_time": 5.2363636,
                "pitch": 57,
                "velocity": 80,
                "duration": 0.2,
                "tempo": 120.0
            },
            {
                "start_time": 5.2363636,
                "end_time": 5.3340909,
                "pitch": 45,
                "velocity": 80,
                "duration": 0.0977273,
                "tempo": 120.0
            },
            {
                "start_time": 5.3363636,
                "end_time": 5.5340909,
                "pitch": 55,
                "velocity": 80,
                "duration": 0.1977273,
                "tempo": 120.0
            },
            {
                "start_time": 5.5363636,
                "end_time": 5.6363636,
                "pitch": 45,
                "velocity": 80,
                "duration": 0.1,
                "tempo": 120.0
            },
            {
                "start_time": 5.6363636,
                "end_time": 5.7363636,
                "pitch": 47,
                "velocity": 80,
                "duration": 0.1,
                "tempo": 120.0
            },
            {
                "start_time": 5.7363636,
                "end_time": 5.8363636,
                "pitch": 57,
                "velocity": 80,
                "duration": 0.1,
                "tempo": 120.0
            },
            {
                "start_time": 5.8386364,
                "end_time": 5.9363636,
                "pitch": 52,
                "velocity": 80,
                "duration": 0.0977273,
                "tempo": 120.0
            },
            {
                "start_time": 5.9386364,
                "end_time": 6.0386364,
                "pitch": 50,
                "velocity": 80,
                "duration": 0.1,
                "tempo": 120.0
            },
            {
                "start_time": 6.0409091,
                "end_time": 6.1386364,
                "pitch": 55,
                "velocity": 80,
                "duration": 0.0977273,
                "tempo": 120.0
            },
            {
                "start_time": 6.1386364,
                "end_time": 6.2386364,
                "pitch": 50,
                "velocity": 80,
                "duration": 0.1,
                "tempo": 120.0
            },
            {
                "start_time": 6.2409091,
                "end_time": 6.3386364,
                "pitch": 55,
                "velocity": 80,
                "duration": 0.0977273,
                "tempo": 120.0
            },
            {
                "start_time": 6.3386364,
                "end_time": 6.4386364,
                "pitch": 57,
                "velocity": 80,
                "duration": 0.1,
                "tempo": 120.0
            },
            {
                "start_time": 6.4409091,
                "end_time": 6.5386364,
                "pitch": 45,
                "velocity": 80,
                "duration": 0.0977273,
                "tempo": 120.0
            },
            {
                "start_time": 6.5409091,
                "end_time": 6.7431818,
                "pitch": 45,
                "velocity": 80,
                "duration": 0.2022727,
                "tempo": 120.0
            },
            {
                "start_time": 6.7431818,
                "end_time": 6.8454545,
                "pitch": 45,
                "velocity": 80,
                "duration": 0.1022727,
                "tempo": 120.0
            },
            {
                "start_time": 6.8454545,
                "end_time": 6.9431818,
                "pitch": 55,
                "velocity": 80,
                "duration": 0.0977273,
                "tempo": 120.0
            },
            {
                "start_time": 6.9454545,
                "end_time": 7.0454545,
                "pitch": 57,
                "velocity": 80,
                "duration": 0.1,
                "tempo": 120.0
            },
            {
                "start_time": 7.0477273,
                "end_time": 7.1454545,
                "pitch": 45,
                "velocity": 80,
                "duration": 0.0977273,
                "tempo": 120.0
            },
            {
                "start_time": 7.1477273,
                "end_time": 7.2477273,
                "pitch": 45,
                "velocity": 80,
                "duration": 0.1,
                "tempo": 120.0
            },
            {
                "start_time": 7.2477273,
                "end_time": 7.4477273,
                "pitch": 57,
                "velocity": 80,
                "duration": 0.2,
                "tempo": 120.0
            },
            {
                "start_time": 7.4477273,
                "end_time": 7.5454545,
                "pitch": 45,
                "velocity": 80,
                "duration": 0.0977273,
                "tempo": 120.0
            },
            {
                "start_time": 7.5477273,
                "end_time": 7.6477273,
                "pitch": 45,
                "velocity": 80,
                "duration": 0.1,
                "tempo": 120.0
            },
            {
                "start_time": 7.6477273,
                "end_time": 7.8477273,
                "pitch": 55,
                "velocity": 80,
                "duration": 0.2,
                "tempo": 120.0
            },
            {
                "start_time": 7.85,
                "end_time": 7.9477273,
                "pitch": 52,
                "velocity": 80,
                "duration": 0.0977273,
                "tempo": 120.0
            },
            {
                "start_time": 7.95,
                "end_time": 8.05,
                "pitch": 45,
                "velocity": 80,
                "duration": 0.1,
                "tempo": 120.0
            },
            {
                "start_time": 8.05,
                "end_time": 8.2522727,
                "pitch": 45,
                "velocity": 80,
                "duration": 0.2022727,
                "tempo": 120.0
            },
            {
                "start_time": 8.2522727,
                "end_time": 8.35,
                "pitch": 57,
                "velocity": 80,
                "duration": 0.0977273,
                "tempo": 120.0
            },
            {
                "start_time": 8.3522727,
                "end_time": 8.45,
                "pitch": 45,
                "velocity": 80,
                "duration": 0.0977273,
                "tempo": 120.0
            },
            {
                "start_time": 8.4522727,
                "end_time": 8.55,
                "pitch": 45,
                "velocity": 80,
                "duration": 0.0977273,
                "tempo": 120.0
            },
            {
                "start_time": 8.5522727,
                "end_time": 8.7522727,
                "pitch": 55,
                "velocity": 80,
                "duration": 0.2,
                "tempo": 120.0
            },
            {
                "start_time": 8.7522727,
                "end_time": 8.8522727,
                "pitch": 45,
                "velocity": 80,
                "duration": 0.1,
                "tempo": 120.0
            },
            {
                "start_time": 8.8545455,
                "end_time": 8.9522727,
                "pitch": 41,
                "velocity": 80,
                "duration": 0.0977273,
                "tempo": 120.0
            },
            {
                "start_time": 8.9545455,
                "end_time": 9.0545455,
                "pitch": 53,
                "velocity": 80,
                "duration": 0.1,
                "tempo": 120.0
            },
            {
                "start_time": 9.0545455,
                "end_time": 9.1545455,
                "pitch": 42,
                "velocity": 80,
                "duration": 0.1,
                "tempo": 120.0
            },
            {
                "start_time": 9.1568182,
                "end_time": 9.2568182,
                "pitch": 54,
                "velocity": 80,
                "duration": 0.1,
                "tempo": 120.0
            },
            {
                "start_time": 9.2568182,
                "end_time": 9.3568182,
                "pitch": 43,
                "velocity": 80,
                "duration": 0.1,
                "tempo": 120.0
            },
            {
                "start_time": 9.3568182,
                "end_time": 9.4590909,
                "pitch": 55,
                "velocity": 80,
                "duration": 0.1022727,
                "tempo": 120.0
            },
            {
                "start_time": 9.4590909,
                "end_time": 9.5590909,
                "pitch": 44,
                "velocity": 80,
                "duration": 0.1,
                "tempo": 120.0
            },
            {
                "start_time": 9.5590909,
                "end_time": 9.6590909,
                "pitch": 56,
                "velocity": 80,
                "duration": 0.1,
                "tempo": 120.0
            },
            {
                "start_time": 9.6613636,
                "end_time": 9.8613636,
                "pitch": 57,
                "velocity": 80,
                "duration": 0.2,
                "tempo": 120.0
            },
            {
                "start_time": 9.8636364,
                "end_time": 9.9613636,
                "pitch": 45,
                "velocity": 80,
                "duration": 0.0977273,
                "tempo": 120.0
            },
            {
                "start_time": 9.9613636,
                "end_time": 10.0613636,
                "pitch": 45,
                "velocity": 80,
                "duration": 0.1,
                "tempo": 120.0
            },
            {
                "start_time": 10.0636364,
                "end_time": 10.2636364,
                "pitch": 55,
                "velocity": 80,
                "duration": 0.2,
                "tempo": 120.0
            },
            {
                "start_time": 10.2636364,
                "end_time": 10.3636364,
                "pitch": 45,
                "velocity": 80,
                "duration": 0.1,
                "tempo": 120.0
            },
            {
                "start_time": 10.3636364,
                "end_time": 10.4659091,
                "pitch": 45,
                "velocity": 80,
                "duration": 0.1022727,
                "tempo": 120.0
            },
            {
                "start_time": 10.4659091,
                "end_time": 10.5659091,
                "pitch": 45,
                "velocity": 80,
                "duration": 0.1,
                "tempo": 120.0
            },
            {
                "start_time": 10.5659091,
                "end_time": 10.6659091,
                "pitch": 57,
                "velocity": 80,
                "duration": 0.1,
                "tempo": 120.0
            },
            {
                "start_time": 10.6681818,
                "end_time": 10.7659091,
                "pitch": 55,
                "velocity": 80,
                "duration": 0.0977273,
                "tempo": 120.0
            },
            {
                "start_time": 10.7681818,
                "end_time": 10.8681818,
                "pitch": 52,
                "velocity": 80,
                "duration": 0.1,
                "tempo": 120.0
            },
            {
                "start_time": 10.8681818,
                "end_time": 10.9659091,
                "pitch": 50,
                "velocity": 80,
                "duration": 0.0977273,
                "tempo": 120.0
            },
            {
                "start_time": 10.9681818,
                "end_time": 11.0681818,
                "pitch": 47,
                "velocity": 80,
                "duration": 0.1,
                "tempo": 120.0
            },
            {
                "start_time": 11.0704545,
                "end_time": 11.1681818,
                "pitch": 50,
                "velocity": 80,
                "duration": 0.0977273,
                "tempo": 120.0
            },
            {
                "start_time": 11.1704545,
                "end_time": 11.2704545,
                "pitch": 52,
                "velocity": 80,
                "duration": 0.1,
                "tempo": 120.0
            },
            {
                "start_time": 11.2704545,
                "end_time": 11.4727273,
                "pitch": 45,
                "velocity": 80,
                "duration": 0.2022727,
                "tempo": 120.0
            },
            {
                "start_time": 11.475,
                "end_time": 11.6727273,
                "pitch": 57,
                "velocity": 80,
                "duration": 0.1977273,
                "tempo": 120.0
            },
            {
                "start_time": 11.675,
                "end_time": 11.775,
                "pitch": 45,
                "velocity": 80,
                "duration": 0.1,
                "tempo": 120.0
            },
            {
                "start_time": 11.7772727,
                "end_time": 11.9818182,
                "pitch": 55,
                "velocity": 80,
                "duration": 0.2045455,
                "tempo": 120.0
            },
            {
                "start_time": 11.9818182,
                "end_time": 12.0840909,
                "pitch": 45,
                "velocity": 80,
                "duration": 0.1022727,
                "tempo": 120.0
            },
            {
                "start_time": 12.0863636,
                "end_time": 12.1818182,
                "pitch": 47,
                "velocity": 80,
                "duration": 0.0954545,
                "tempo": 120.0
            },
            {
                "start_time": 12.1818182,
                "end_time": 12.2795455,
                "pitch": 57,
                "velocity": 80,
                "duration": 0.0977273,
                "tempo": 120.0
            },
            {
                "start_time": 12.2818182,
                "end_time": 12.3772727,
                "pitch": 52,
                "velocity": 80,
                "duration": 0.0954545,
                "tempo": 120.0
            },
            {
                "start_time": 12.3795455,
                "end_time": 12.4772727,
                "pitch": 50,
                "velocity": 80,
                "duration": 0.0977273,
                "tempo": 120.0
            },
            {
                "start_time": 12.4772727,
                "end_time": 12.5772727,
                "pitch": 55,
                "velocity": 80,
                "duration": 0.1,
                "tempo": 120.0
            },
            {
                "start_time": 12.5772727,
                "end_time": 12.6795455,
                "pitch": 50,
                "velocity": 80,
                "duration": 0.1022727,
                "tempo": 120.0
            },
            {
                "start_time": 12.6795455,
                "end_time": 12.7795455,
                "pitch": 55,
                "velocity": 80,
                "duration": 0.1,
                "tempo": 120.0
            },
            {
                "start_time": 12.7795455,
                "end_time": 12.8795455,
                "pitch": 57,
                "velocity": 80,
                "duration": 0.1,
                "tempo": 120.0
            },
            {
                "start_time": 12.8818182,
                "end_time": 12.9818182,
                "pitch": 47,
                "velocity": 80,
                "duration": 0.1,
                "tempo": 120.0
            },
            {
                "start_time": 12.9840909,
                "end_time": 13.1886364,
                "pitch": 47,
                "velocity": 80,
                "duration": 0.2045455,
                "tempo": 120.0
            },
            {
                "start_time": 13.1909091,
                "end_time": 13.2931818,
                "pitch": 47,
                "velocity": 80,
                "duration": 0.1022727,
                "tempo": 120.0
            },
            {
                "start_time": 13.2954545,
                "end_time": 13.3931818,
                "pitch": 57,
                "velocity": 80,
                "duration": 0.0977273,
                "tempo": 120.0
            },
            {
                "start_time": 13.3954545,
                "end_time": 13.4954545,
                "pitch": 59,
                "velocity": 80,
                "duration": 0.1,
                "tempo": 120.0
            },
            {
                "start_time": 13.4954545,
                "end_time": 13.5954545,
                "pitch": 47,
                "velocity": 80,
                "duration": 0.1,
                "tempo": 120.0
            },
            {
                "start_time": 13.5954545,
                "end_time": 13.6954545,
                "pitch": 47,
                "velocity": 80,
                "duration": 0.1,
                "tempo": 120.0
            },
            {
                "start_time": 13.6977273,
                "end_time": 13.8931818,
                "pitch": 59,
                "velocity": 80,
                "duration": 0.1954545,
                "tempo": 120.0
            },
            {
                "start_time": 13.8931818,
                "end_time": 13.9886364,
                "pitch": 47,
                "velocity": 80,
                "duration": 0.0954545,
                "tempo": 120.0
            },
            {
                "start_time": 13.9909091,
                "end_time": 14.0886364,
                "pitch": 47,
                "velocity": 80,
                "duration": 0.0977273,
                "tempo": 120.0
            },
            {
                "start_time": 14.0886364,
                "end_time": 14.2931818,
                "pitch": 57,
                "velocity": 80,
                "duration": 0.2045455,
                "tempo": 120.0
            },
            {
                "start_time": 14.2954545,
                "end_time": 14.3954545,
                "pitch": 54,
                "velocity": 80,
                "duration": 0.1,
                "tempo": 120.0
            },
            {
                "start_time": 14.3954545,
                "end_time": 14.4977273,
                "pitch": 47,
                "velocity": 80,
                "duration": 0.1022727,
                "tempo": 120.0
            },
            {
                "start_time": 14.5,
                "end_time": 14.7022727,
                "pitch": 47,
                "velocity": 80,
                "duration": 0.2022727,
                "tempo": 120.0
            },
            {
                "start_time": 14.7022727,
                "end_time": 14.8022727,
                "pitch": 59,
                "velocity": 80,
                "duration": 0.1,
                "tempo": 120.0
            },
            {
                "start_time": 14.8022727,
                "end_time": 14.9022727,
                "pitch": 47,
                "velocity": 80,
                "duration": 0.1,
                "tempo": 120.0
            },
            {
                "start_time": 14.9045455,
                "end_time": 15.0022727,
                "pitch": 47,
                "velocity": 80,
                "duration": 0.0977273,
                "tempo": 120.0
            },
            {
                "start_time": 15.0022727,
                "end_time": 15.2045455,
                "pitch": 57,
                "velocity": 80,
                "duration": 0.2022727,
                "tempo": 120.0
            },
            {
                "start_time": 15.2045455,
                "end_time": 15.3045455,
                "pitch": 47,
                "velocity": 80,
                "duration": 0.1,
                "tempo": 120.0
            },
            {
                "start_time": 15.3068182,
                "end_time": 15.4045455,
                "pitch": 43,
                "velocity": 80,
                "duration": 0.0977273,
                "tempo": 120.0
            },
            {
                "start_time": 15.4068182,
                "end_time": 15.5068182,
                "pitch": 55,
                "velocity": 80,
                "duration": 0.1,
                "tempo": 120.0
            },
            {
                "start_time": 15.5068182,
                "end_time": 15.6068182,
                "pitch": 44,
                "velocity": 80,
                "duration": 0.1,
                "tempo": 120.0
            },
            {
                "start_time": 15.6068182,
                "end_time": 15.7090909,
                "pitch": 56,
                "velocity": 80,
                "duration": 0.1022727,
                "tempo": 120.0
            },
            {
                "start_time": 15.7090909,
                "end_time": 15.8068182,
                "pitch": 45,
                "velocity": 80,
                "duration": 0.0977273,
                "tempo": 120.0
            },
            {
                "start_time": 15.8090909,
                "end_time": 15.9090909,
                "pitch": 57,
                "velocity": 80,
                "duration": 0.1,
                "tempo": 120.0
            },
            {
                "start_time": 15.9113636,
                "end_time": 16.0090909,
                "pitch": 46,
                "velocity": 80,
                "duration": 0.0977273,
                "tempo": 120.0
            },
            {
                "start_time": 16.0113636,
                "end_time": 16.1113636,
                "pitch": 58,
                "velocity": 80,
                "duration": 0.1,
                "tempo": 120.0
            },
            {
                "start_time": 16.1113636,
                "end_time": 16.3136364,
                "pitch": 59,
                "velocity": 80,
                "duration": 0.2022727,
                "tempo": 120.0
            },
            {
                "start_time": 16.3159091,
                "end_time": 16.4136364,
                "pitch": 47,
                "velocity": 80,
                "duration": 0.0977273,
                "tempo": 120.0
            },
            {
                "start_time": 16.4159091,
                "end_time": 16.5159091,
                "pitch": 47,
                "velocity": 80,
                "duration": 0.1,
                "tempo": 120.0
            },
            {
                "start_time": 16.5181818,
                "end_time": 16.7159091,
                "pitch": 57,
                "velocity": 80,
                "duration": 0.1977273,
                "tempo": 120.0
            },
            {
                "start_time": 16.7181818,
                "end_time": 16.8159091,
                "pitch": 47,
                "velocity": 80,
                "duration": 0.0977273,
                "tempo": 120.0
            },
            {
                "start_time": 16.8159091,
                "end_time": 16.9159091,
                "pitch": 47,
                "velocity": 80,
                "duration": 0.1,
                "tempo": 120.0
            },
            {
                "start_time": 16.9181818,
                "end_time": 17.0159091,
                "pitch": 47,
                "velocity": 80,
                "duration": 0.0977273,
                "tempo": 120.0
            },
            {
                "start_time": 17.0181818,
                "end_time": 17.1181818,
                "pitch": 59,
                "velocity": 80,
                "duration": 0.1,
                "tempo": 120.0
            },
            {
                "start_time": 17.1181818,
                "end_time": 17.2159091,
                "pitch": 57,
                "velocity": 80,
                "duration": 0.0977273,
                "tempo": 120.0
            },
            {
                "start_time": 17.2181818,
                "end_time": 17.3159091,
                "pitch": 54,
                "velocity": 80,
                "duration": 0.0977273,
                "tempo": 120.0
            },
            {
                "start_time": 17.3181818,
                "end_time": 17.4159091,
                "pitch": 52,
                "velocity": 80,
                "duration": 0.0977273,
                "tempo": 120.0
            },
            {
                "start_time": 17.4159091,
                "end_time": 17.5181818,
                "pitch": 49,
                "velocity": 80,
                "duration": 0.1022727,
                "tempo": 120.0
            },
            {
                "start_time": 17.5181818,
                "end_time": 17.6181818,
                "pitch": 52,
                "velocity": 80,
                "duration": 0.1,
                "tempo": 120.0
            },
            {
                "start_time": 17.6181818,
                "end_time": 17.7181818,
                "pitch": 54,
                "velocity": 80,
                "duration": 0.1,
                "tempo": 120.0
            },
            {
                "start_time": 17.7204545,
                "end_time": 17.9204545,
                "pitch": 47,
                "velocity": 80,
                "duration": 0.2,
                "tempo": 120.0
            },
            {
                "start_time": 17.9227273,
                "end_time": 18.1204545,
                "pitch": 59,
                "velocity": 80,
                "duration": 0.1977273,
                "tempo": 120.0
            },
            {
                "start_time": 18.1204545,
                "end_time": 18.2204545,
                "pitch": 47,
                "velocity": 80,
                "duration": 0.1,
                "tempo": 120.0
            },
            {
                "start_time": 18.2227273,
                "end_time": 18.4272727,
                "pitch": 57,
                "velocity": 80,
                "duration": 0.2045455,
                "tempo": 120.0
            },
            {
                "start_time": 18.4272727,
                "end_time": 18.5295455,
                "pitch": 47,
                "velocity": 80,
                "duration": 0.1022727,
                "tempo": 120.0
            },
            {
                "start_time": 18.5318182,
                "end_time": 18.6272727,
                "pitch": 49,
                "velocity": 80,
                "duration": 0.0954545,
                "tempo": 120.0
            },
            {
                "start_time": 18.6295455,
                "end_time": 18.7272727,
                "pitch": 59,
                "velocity": 80,
                "duration": 0.0977273,
                "tempo": 120.0
            },
            {
                "start_time": 18.7272727,
                "end_time": 18.825,
                "pitch": 54,
                "velocity": 80,
                "duration": 0.0977273,
                "tempo": 120.0
            },
            {
                "start_time": 18.825,
                "end_time": 18.9227273,
                "pitch": 52,
                "velocity": 80,
                "duration": 0.0977273,
                "tempo": 120.0
            },
            {
                "start_time": 18.925,
                "end_time": 19.0227273,
                "pitch": 57,
                "velocity": 80,
                "duration": 0.0977273,
                "tempo": 120.0
            },
            {
                "start_time": 19.025,
                "end_time": 19.1227273,
                "pitch": 52,
                "velocity": 80,
                "duration": 0.0977273,
                "tempo": 120.0
            },
            {
                "start_time": 19.125,
                "end_time": 19.2227273,
                "pitch": 57,
                "velocity": 80,
                "duration": 0.0977273,
                "tempo": 120.0
            },
            {
                "start_time": 19.225,
                "end_time": 19.325,
                "pitch": 59,
                "velocity": 80,
                "duration": 0.1,
                "tempo": 120.0
            },
            {
                "start_time": 19.325,
                "end_time": 19.4227273,
                "pitch": 45,
                "velocity": 80,
                "duration": 0.0977273,
                "tempo": 120.0
            },
            {
                "start_time": 19.425,
                "end_time": 19.6272727,
                "pitch": 45,
                "velocity": 80,
                "duration": 0.2022727,
                "tempo": 120.0
            },
            {
                "start_time": 19.6272727,
                "end_time": 19.7295455,
                "pitch": 45,
                "velocity": 80,
                "duration": 0.1022727,
                "tempo": 120.0
            },
            {
                "start_time": 19.7295455,
                "end_time": 19.8295455,
                "pitch": 55,
                "velocity": 80,
                "duration": 0.1,
                "tempo": 120.0
            },
            {
                "start_time": 19.8318182,
                "end_time": 19.9340909,
                "pitch": 57,
                "velocity": 80,
                "duration": 0.1022727,
                "tempo": 120.0
            },
            {
                "start_time": 19.9363636,
                "end_time": 20.0363636,
                "pitch": 45,
                "velocity": 80,
                "duration": 0.1,
                "tempo": 120.0
            },
            {
                "start_time": 20.0386364,
                "end_time": 20.1409091,
                "pitch": 45,
                "velocity": 80,
                "duration": 0.1022727,
                "tempo": 120.0
            },
            {
                "start_time": 20.1409091,
                "end_time": 20.3363636,
                "pitch": 57,
                "velocity": 80,
                "duration": 0.1954545,
                "tempo": 120.0
            },
            {
                "start_time": 20.3363636,
                "end_time": 20.4340909,
                "pitch": 45,
                "velocity": 80,
                "duration": 0.0977273,
                "tempo": 120.0
            },
            {
                "start_time": 20.4340909,
                "end_time": 20.5318182,
                "pitch": 45,
                "velocity": 80,
                "duration": 0.0977273,
                "tempo": 120.0
            },
            {
                "start_time": 20.5318182,
                "end_time": 20.7363636,
                "pitch": 55,
                "velocity": 80,
                "duration": 0.2045455,
                "tempo": 120.0
            },
            {
                "start_time": 20.7386364,
                "end_time": 20.8386364,
                "pitch": 52,
                "velocity": 80,
                "duration": 0.1,
                "tempo": 120.0
            },
            {
                "start_time": 20.8409091,
                "end_time": 20.9431818,
                "pitch": 45,
                "velocity": 80,
                "duration": 0.1022727,
                "tempo": 120.0
            },
            {
                "start_time": 20.9431818,
                "end_time": 21.1431818,
                "pitch": 45,
                "velocity": 80,
                "duration": 0.2,
                "tempo": 120.0
            },
            {
                "start_time": 21.1454545,
                "end_time": 21.2431818,
                "pitch": 57,
                "velocity": 80,
                "duration": 0.0977273,
                "tempo": 120.0
            },
            {
                "start_time": 21.2454545,
                "end_time": 21.3431818,
                "pitch": 45,
                "velocity": 80,
                "duration": 0.0977273,
                "tempo": 120.0
            },
            {
                "start_time": 21.3431818,
                "end_time": 21.4431818,
                "pitch": 45,
                "velocity": 80,
                "duration": 0.1,
                "tempo": 120.0
            },
            {
                "start_time": 21.4431818,
                "end_time": 21.6431818,
                "pitch": 55,
                "velocity": 80,
                "duration": 0.2,
                "tempo": 120.0
            },
            {
                "start_time": 21.6431818,
                "end_time": 21.7431818,
                "pitch": 45,
                "velocity": 80,
                "duration": 0.1,
                "tempo": 120.0
            },
            {
                "start_time": 21.7454545,
                "end_time": 21.8431818,
                "pitch": 41,
                "velocity": 80,
                "duration": 0.0977273,
                "tempo": 120.0
            },
            {
                "start_time": 21.8454545,
                "end_time": 21.9431818,
                "pitch": 53,
                "velocity": 80,
                "duration": 0.0977273,
                "tempo": 120.0
            },
            {
                "start_time": 21.9454545,
                "end_time": 22.0454545,
                "pitch": 42,
                "velocity": 80,
                "duration": 0.1,
                "tempo": 120.0
            },
            {
                "start_time": 22.0454545,
                "end_time": 22.1454545,
                "pitch": 54,
                "velocity": 80,
                "duration": 0.1,
                "tempo": 120.0
            },
            {
                "start_time": 22.1477273,
                "end_time": 22.2454545,
                "pitch": 43,
                "velocity": 80,
                "duration": 0.0977273,
                "tempo": 120.0
            },
            {
                "start_time": 22.2477273,
                "end_time": 22.3477273,
                "pitch": 55,
                "velocity": 80,
                "duration": 0.1,
                "tempo": 120.0
            },
            {
                "start_time": 22.3477273,
                "end_time": 22.4454545,
                "pitch": 44,
                "velocity": 80,
                "duration": 0.0977273,
                "tempo": 120.0
            },
            {
                "start_time": 22.4477273,
                "end_time": 22.5454545,
                "pitch": 56,
                "velocity": 80,
                "duration": 0.0977273,
                "tempo": 120.0
            },
            {
                "start_time": 22.5477273,
                "end_time": 22.75,
                "pitch": 57,
                "velocity": 80,
                "duration": 0.2022727,
                "tempo": 120.0
            },
            {
                "start_time": 22.7522727,
                "end_time": 22.85,
                "pitch": 45,
                "velocity": 80,
                "duration": 0.0977273,
                "tempo": 120.0
            },
            {
                "start_time": 22.85,
                "end_time": 22.9522727,
                "pitch": 45,
                "velocity": 80,
                "duration": 0.1022727,
                "tempo": 120.0
            },
            {
                "start_time": 22.9522727,
                "end_time": 23.1522727,
                "pitch": 55,
                "velocity": 80,
                "duration": 0.2,
                "tempo": 120.0
            },
            {
                "start_time": 23.1545455,
                "end_time": 23.2522727,
                "pitch": 45,
                "velocity": 80,
                "duration": 0.0977273,
                "tempo": 120.0
            },
            {
                "start_time": 23.2522727,
                "end_time": 23.3522727,
                "pitch": 45,
                "velocity": 80,
                "duration": 0.1,
                "tempo": 120.0
            },
            {
                "start_time": 23.3545455,
                "end_time": 23.4522727,
                "pitch": 45,
                "velocity": 80,
                "duration": 0.0977273,
                "tempo": 120.0
            },
            {
                "start_time": 23.4522727,
                "end_time": 23.5522727,
                "pitch": 57,
                "velocity": 80,
                "duration": 0.1,
                "tempo": 120.0
            },
            {
                "start_time": 23.5545455,
                "end_time": 23.6522727,
                "pitch": 55,
                "velocity": 80,
                "duration": 0.0977273,
                "tempo": 120.0
            },
            {
                "start_time": 23.6522727,
                "end_time": 23.7522727,
                "pitch": 52,
                "velocity": 80,
                "duration": 0.1,
                "tempo": 120.0
            },
            {
                "start_time": 23.7522727,
                "end_time": 23.85,
                "pitch": 50,
                "velocity": 80,
                "duration": 0.0977273,
                "tempo": 120.0
            },
            {
                "start_time": 23.8522727,
                "end_time": 23.9522727,
                "pitch": 47,
                "velocity": 80,
                "duration": 0.1,
                "tempo": 120.0
            },
            {
                "start_time": 23.9545455,
                "end_time": 24.0522727,
                "pitch": 50,
                "velocity": 80,
                "duration": 0.0977273,
                "tempo": 120.0
            },
            {
                "start_time": 24.0545455,
                "end_time": 24.1545455,
                "pitch": 52,
                "velocity": 80,
                "duration": 0.1,
                "tempo": 120.0
            },
            {
                "start_time": 24.1545455,
                "end_time": 24.3568182,
                "pitch": 45,
                "velocity": 80,
                "duration": 0.2022727,
                "tempo": 120.0
            },
            {
                "start_time": 24.3568182,
                "end_time": 24.5545455,
                "pitch": 57,
                "velocity": 80,
                "duration": 0.1977273,
                "tempo": 120.0
            },
            {
                "start_time": 24.5568182,
                "end_time": 24.6545455,
                "pitch": 45,
                "velocity": 80,
                "duration": 0.0977273,
                "tempo": 120.0
            },
            {
                "start_time": 24.6568182,
                "end_time": 24.8568182,
                "pitch": 55,
                "velocity": 80,
                "duration": 0.2,
                "tempo": 120.0
            },
            {
                "start_time": 24.8590909,
                "end_time": 24.9590909,
                "pitch": 45,
                "velocity": 80,
                "duration": 0.1,
                "tempo": 120.0
            },
            {
                "start_time": 24.9590909,
                "end_time": 25.0568182,
                "pitch": 47,
                "velocity": 80,
                "duration": 0.0977273,
                "tempo": 120.0
            },
            {
                "start_time": 25.0590909,
                "end_time": 25.1590909,
                "pitch": 57,
                "velocity": 80,
                "duration": 0.1,
                "tempo": 120.0
            },
            {
                "start_time": 25.1590909,
                "end_time": 25.2568182,
                "pitch": 52,
                "velocity": 80,
                "duration": 0.0977273,
                "tempo": 120.0
            },
            {
                "start_time": 25.2590909,
                "end_time": 25.3590909,
                "pitch": 50,
                "velocity": 80,
                "duration": 0.1,
                "tempo": 120.0
            },
            {
                "start_time": 25.3590909,
                "end_time": 25.4590909,
                "pitch": 55,
                "velocity": 80,
                "duration": 0.1,
                "tempo": 120.0
            },
            {
                "start_time": 25.4590909,
                "end_time": 25.5590909,
                "pitch": 50,
                "velocity": 80,
                "duration": 0.1,
                "tempo": 120.0
            },
            {
                "start_time": 25.5613636,
                "end_time": 25.6590909,
                "pitch": 55,
                "velocity": 80,
                "duration": 0.0977273,
                "tempo": 120.0
            },
            {
                "start_time": 25.6590909,
                "end_time": 25.7590909,
                "pitch": 57,
                "velocity": 80,
                "duration": 0.1,
                "tempo": 120.0
            },
            {
                "start_time": 25.7613636,
                "end_time": 25.8613636,
                "pitch": 45,
                "velocity": 80,
                "duration": 0.1,
                "tempo": 120.0
            },
            {
                "start_time": 25.8613636,
                "end_time": 26.0636364,
                "pitch": 45,
                "velocity": 80,
                "duration": 0.2022727,
                "tempo": 120.0
            },
            {
                "start_time": 26.0636364,
                "end_time": 26.1636364,
                "pitch": 45,
                "velocity": 80,
                "duration": 0.1,
                "tempo": 120.0
            },
            {
                "start_time": 26.1636364,
                "end_time": 26.2659091,
                "pitch": 55,
                "velocity": 80,
                "duration": 0.1022727,
                "tempo": 120.0
            },
            {
                "start_time": 26.2681818,
                "end_time": 26.3681818,
                "pitch": 57,
                "velocity": 80,
                "duration": 0.1,
                "tempo": 120.0
            },
            {
                "start_time": 26.3704545,
                "end_time": 26.4727273,
                "pitch": 45,
                "velocity": 80,
                "duration": 0.1022727,
                "tempo": 120.0
            },
            {
                "start_time": 26.4727273,
                "end_time": 26.575,
                "pitch": 45,
                "velocity": 80,
                "duration": 0.1022727,
                "tempo": 120.0
            },
            {
                "start_time": 26.575,
                "end_time": 26.775,
                "pitch": 57,
                "velocity": 80,
                "duration": 0.2,
                "tempo": 120.0
            },
            {
                "start_time": 26.7772727,
                "end_time": 26.875,
                "pitch": 45,
                "velocity": 80,
                "duration": 0.0977273,
                "tempo": 120.0
            },
            {
                "start_time": 26.875,
                "end_time": 26.975,
                "pitch": 45,
                "velocity": 80,
                "duration": 0.1,
                "tempo": 120.0
            },
            {
                "start_time": 26.9772727,
                "end_time": 27.1704545,
                "pitch": 55,
                "velocity": 80,
                "duration": 0.1931818,
                "tempo": 120.0
            },
            {
                "start_time": 27.1727273,
                "end_time": 27.2704545,
                "pitch": 52,
                "velocity": 80,
                "duration": 0.0977273,
                "tempo": 120.0
            },
            {
                "start_time": 27.2704545,
                "end_time": 27.3681818,
                "pitch": 45,
                "velocity": 80,
                "duration": 0.0977273,
                "tempo": 120.0
            },
            {
                "start_time": 27.3704545,
                "end_time": 27.5727273,
                "pitch": 45,
                "velocity": 80,
                "duration": 0.2022727,
                "tempo": 120.0
            },
            {
                "start_time": 27.575,
                "end_time": 27.675,
                "pitch": 57,
                "velocity": 80,
                "duration": 0.1,
                "tempo": 120.0
            },
            {
                "start_time": 27.6772727,
                "end_time": 27.7795455,
                "pitch": 45,
                "velocity": 80,
                "duration": 0.1022727,
                "tempo": 120.0
            },
            {
                "start_time": 27.7795455,
                "end_time": 27.8795455,
                "pitch": 45,
                "velocity": 80,
                "duration": 0.1,
                "tempo": 120.0
            },
            {
                "start_time": 27.8818182,
                "end_time": 28.0795455,
                "pitch": 55,
                "velocity": 80,
                "duration": 0.1977273,
                "tempo": 120.0
            },
            {
                "start_time": 28.0795455,
                "end_time": 28.1795455,
                "pitch": 45,
                "velocity": 80,
                "duration": 0.1,
                "tempo": 120.0
            },
            {
                "start_time": 28.1795455,
                "end_time": 28.2818182,
                "pitch": 41,
                "velocity": 80,
                "duration": 0.1022727,
                "tempo": 120.0
            },
            {
                "start_time": 28.2840909,
                "end_time": 28.3840909,
                "pitch": 53,
                "velocity": 80,
                "duration": 0.1,
                "tempo": 120.0
            },
            {
                "start_time": 28.3863636,
                "end_time": 28.4886364,
                "pitch": 42,
                "velocity": 80,
                "duration": 0.1022727,
                "tempo": 120.0
            },
            {
                "start_time": 28.4886364,
                "end_time": 28.5909091,
                "pitch": 54,
                "velocity": 80,
                "duration": 0.1022727,
                "tempo": 120.0
            },
            {
                "start_time": 28.5931818,
                "end_time": 28.6886364,
                "pitch": 43,
                "velocity": 80,
                "duration": 0.0954545,
                "tempo": 120.0
            },
            {
                "start_time": 28.6909091,
                "end_time": 28.7863636,
                "pitch": 55,
                "velocity": 80,
                "duration": 0.0954545,
                "tempo": 120.0
            },
            {
                "start_time": 28.7886364,
                "end_time": 28.8863636,
                "pitch": 44,
                "velocity": 80,
                "duration": 0.0977273,
                "tempo": 120.0
            },
            {
                "start_time": 28.8863636,
                "end_time": 28.9840909,
                "pitch": 56,
                "velocity": 80,
                "duration": 0.0977273,
                "tempo": 120.0
            },
            {
                "start_time": 28.9863636,
                "end_time": 29.1840909,
                "pitch": 57,
                "velocity": 80,
                "duration": 0.1977273,
                "tempo": 120.0
            },
            {
                "start_time": 29.1863636,
                "end_time": 29.2863636,
                "pitch": 45,
                "velocity": 80,
                "duration": 0.1,
                "tempo": 120.0
            },
            {
                "start_time": 29.2863636,
                "end_time": 29.3863636,
                "pitch": 45,
                "velocity": 80,
                "duration": 0.1,
                "tempo": 120.0
            },
            {
                "start_time": 29.3886364,
                "end_time": 29.5863636,
                "pitch": 55,
                "velocity": 80,
                "duration": 0.1977273,
                "tempo": 120.0
            },
            {
                "start_time": 29.5886364,
                "end_time": 29.6863636,
                "pitch": 45,
                "velocity": 80,
                "duration": 0.0977273,
                "tempo": 120.0
            },
            {
                "start_time": 29.6886364,
                "end_time": 29.7863636,
                "pitch": 45,
                "velocity": 80,
                "duration": 0.0977273,
                "tempo": 120.0
            },
            {
                "start_time": 29.7886364,
                "end_time": 29.8886364,
                "pitch": 45,
                "velocity": 80,
                "duration": 0.1,
                "tempo": 120.0
            },
            {
                "start_time": 29.8909091,
                "end_time": 29.9931818,
                "pitch": 57,
                "velocity": 80,
                "duration": 0.1022727,
                "tempo": 120.0
            },
            {
                "start_time": 29.9931818,
                "end_time": 30.0954545,
                "pitch": 55,
                "velocity": 80,
                "duration": 0.1022727,
                "tempo": 120.0
            },
            {
                "start_time": 30.0977273,
                "end_time": 30.2,
                "pitch": 52,
                "velocity": 80,
                "duration": 0.1022727,
                "tempo": 120.0
            },
            {
                "start_time": 30.2,
                "end_time": 30.2954545,
                "pitch": 50,
                "velocity": 80,
                "duration": 0.0954545,
                "tempo": 120.0
            },
            {
                "start_time": 30.2977273,
                "end_time": 30.3954545,
                "pitch": 47,
                "velocity": 80,
                "duration": 0.0977273,
                "tempo": 120.0
            },
            {
                "start_time": 30.3977273,
                "end_time": 30.4931818,
                "pitch": 50,
                "velocity": 80,
                "duration": 0.0954545,
                "tempo": 120.0
            },
            {
                "start_time": 30.4931818,
                "end_time": 30.5909091,
                "pitch": 52,
                "velocity": 80,
                "duration": 0.0977273,
                "tempo": 120.0
            },
            {
                "start_time": 30.5931818,
                "end_time": 30.7909091,
                "pitch": 45,
                "velocity": 80,
                "duration": 0.1977273,
                "tempo": 120.0
            },
            {
                "start_time": 30.7931818,
                "end_time": 30.9909091,
                "pitch": 57,
                "velocity": 80,
                "duration": 0.1977273,
                "tempo": 120.0
            },
            {
                "start_time": 30.9931818,
                "end_time": 31.0931818,
                "pitch": 45,
                "velocity": 80,
                "duration": 0.1,
                "tempo": 120.0
            },
            {
                "start_time": 31.0931818,
                "end_time": 31.2931818,
                "pitch": 55,
                "velocity": 80,
                "duration": 0.2,
                "tempo": 120.0
            },
            {
                "start_time": 31.2954545,
                "end_time": 31.3954545,
                "pitch": 45,
                "velocity": 80,
                "duration": 0.1,
                "tempo": 120.0
            },
            {
                "start_time": 31.3954545,
                "end_time": 31.4954545,
                "pitch": 47,
                "velocity": 80,
                "duration": 0.1,
                "tempo": 120.0
            },
            {
                "start_time": 31.4954545,
                "end_time": 31.5954545,
                "pitch": 57,
                "velocity": 80,
                "duration": 0.1,
                "tempo": 120.0
            },
            {
                "start_time": 31.5954545,
                "end_time": 31.6954545,
                "pitch": 52,
                "velocity": 80,
                "duration": 0.1,
                "tempo": 120.0
            },
            {
                "start_time": 31.6954545,
                "end_time": 31.7954545,
                "pitch": 50,
                "velocity": 80,
                "duration": 0.1,
                "tempo": 120.0
            },
            {
                "start_time": 31.7977273,
                "end_time": 31.8954545,
                "pitch": 55,
                "velocity": 80,
                "duration": 0.0977273,
                "tempo": 120.0
            },
            {
                "start_time": 31.8977273,
                "end_time": 31.9954545,
                "pitch": 50,
                "velocity": 80,
                "duration": 0.0977273,
                "tempo": 120.0
            },
            {
                "start_time": 31.9977273,
                "end_time": 32.0954545,
                "pitch": 55,
                "velocity": 80,
                "duration": 0.0977273,
                "tempo": 120.0
            },
            {
                "start_time": 32.0977273,
                "end_time": 32.1977273,
                "pitch": 57,
                "velocity": 80,
                "duration": 0.1,
                "tempo": 120.0
            },
            {
                "start_time": 32.1977273,
                "end_time": 32.2954545,
                "pitch": 45,
                "velocity": 80,
                "duration": 0.0977273,
                "tempo": 120.0
            },
            {
                "start_time": 32.2977273,
                "end_time": 32.4954545,
                "pitch": 45,
                "velocity": 80,
                "duration": 0.1977273,
                "tempo": 120.0
            },
            {
                "start_time": 32.4977273,
                "end_time": 32.5977273,
                "pitch": 45,
                "velocity": 80,
                "duration": 0.1,
                "tempo": 120.0
            },
            {
                "start_time": 32.5977273,
                "end_time": 32.6977273,
                "pitch": 55,
                "velocity": 80,
                "duration": 0.1,
                "tempo": 120.0
            },
            {
                "start_time": 32.6977273,
                "end_time": 32.7977273,
                "pitch": 57,
                "velocity": 80,
                "duration": 0.1,
                "tempo": 120.0
            },
            {
                "start_time": 32.8,
                "end_time": 32.8977273,
                "pitch": 45,
                "velocity": 80,
                "duration": 0.0977273,
                "tempo": 120.0
            },
            {
                "start_time": 32.9,
                "end_time": 33.0,
                "pitch": 45,
                "velocity": 80,
                "duration": 0.1,
                "tempo": 120.0
            },
            {
                "start_time": 33.0,
                "end_time": 33.2045455,
                "pitch": 57,
                "velocity": 80,
                "duration": 0.2045455,
                "tempo": 120.0
            },
            {
                "start_time": 33.2068182,
                "end_time": 33.3090909,
                "pitch": 45,
                "velocity": 80,
                "duration": 0.1022727,
                "tempo": 120.0
            },
            {
                "start_time": 33.3090909,
                "end_time": 33.4113636,
                "pitch": 45,
                "velocity": 80,
                "duration": 0.1022727,
                "tempo": 120.0
            },
            {
                "start_time": 33.4136364,
                "end_time": 33.6068182,
                "pitch": 55,
                "velocity": 80,
                "duration": 0.1931818,
                "tempo": 120.0
            },
            {
                "start_time": 33.6090909,
                "end_time": 33.7045455,
                "pitch": 52,
                "velocity": 80,
                "duration": 0.0954545,
                "tempo": 120.0
            },
            {
                "start_time": 33.7068182,
                "end_time": 33.8045455,
                "pitch": 45,
                "velocity": 80,
                "duration": 0.0977273,
                "tempo": 120.0
            },
            {
                "start_time": 33.8068182,
                "end_time": 34.0090909,
                "pitch": 45,
                "velocity": 80,
                "duration": 0.2022727,
                "tempo": 120.0
            },
            {
                "start_time": 34.0113636,
                "end_time": 34.1113636,
                "pitch": 57,
                "velocity": 80,
                "duration": 0.1,
                "tempo": 120.0
            },
            {
                "start_time": 34.1136364,
                "end_time": 34.2136364,
                "pitch": 45,
                "velocity": 80,
                "duration": 0.1,
                "tempo": 120.0
            },
            {
                "start_time": 34.2159091,
                "end_time": 34.3159091,
                "pitch": 45,
                "velocity": 80,
                "duration": 0.1,
                "tempo": 120.0
            },
            {
                "start_time": 34.3159091,
                "end_time": 34.5181818,
                "pitch": 55,
                "velocity": 80,
                "duration": 0.2022727,
                "tempo": 120.0
            },
            {
                "start_time": 34.5181818,
                "end_time": 34.6181818,
                "pitch": 45,
                "velocity": 80,
                "duration": 0.1,
                "tempo": 120.0
            },
            {
                "start_time": 34.6181818,
                "end_time": 34.7181818,
                "pitch": 41,
                "velocity": 80,
                "duration": 0.1,
                "tempo": 120.0
            },
            {
                "start_time": 34.7181818,
                "end_time": 34.8181818,
                "pitch": 53,
                "velocity": 80,
                "duration": 0.1,
                "tempo": 120.0
            },
            {
                "start_time": 34.8204545,
                "end_time": 34.9181818,
                "pitch": 42,
                "velocity": 80,
                "duration": 0.0977273,
                "tempo": 120.0
            },
            {
                "start_time": 34.9204545,
                "end_time": 35.0181818,
                "pitch": 54,
                "velocity": 80,
                "duration": 0.0977273,
                "tempo": 120.0
            },
            {
                "start_time": 35.0204545,
                "end_time": 35.1159091,
                "pitch": 43,
                "velocity": 80,
                "duration": 0.0954545,
                "tempo": 120.0
            },
            {
                "start_time": 35.1181818,
                "end_time": 35.2159091,
                "pitch": 55,
                "velocity": 80,
                "duration": 0.0977273,
                "tempo": 120.0
            },
            {
                "start_time": 35.2159091,
                "end_time": 35.3136364,
                "pitch": 44,
                "velocity": 80,
                "duration": 0.0977273,
                "tempo": 120.0
            },
            {
                "start_time": 35.3136364,
                "end_time": 35.4113636,
                "pitch": 56,
                "velocity": 80,
                "duration": 0.0977273,
                "tempo": 120.0
            },
            {
                "start_time": 35.4136364,
                "end_time": 35.6159091,
                "pitch": 57,
                "velocity": 80,
                "duration": 0.2022727,
                "tempo": 120.0
            },
            {
                "start_time": 35.6181818,
                "end_time": 35.7204545,
                "pitch": 45,
                "velocity": 80,
                "duration": 0.1022727,
                "tempo": 120.0
            },
            {
                "start_time": 35.7204545,
                "end_time": 35.8227273,
                "pitch": 45,
                "velocity": 80,
                "duration": 0.1022727,
                "tempo": 120.0
            },
            {
                "start_time": 35.8227273,
                "end_time": 36.0227273,
                "pitch": 55,
                "velocity": 80,
                "duration": 0.2,
                "tempo": 120.0
            },
            {
                "start_time": 36.025,
                "end_time": 36.1227273,
                "pitch": 45,
                "velocity": 80,
                "duration": 0.0977273,
                "tempo": 120.0
            },
            {
                "start_time": 36.1227273,
                "end_time": 36.2227273,
                "pitch": 45,
                "velocity": 80,
                "duration": 0.1,
                "tempo": 120.0
            },
            {
                "start_time": 36.2227273,
                "end_time": 36.325,
                "pitch": 45,
                "velocity": 80,
                "duration": 0.1022727,
                "tempo": 120.0
            },
            {
                "start_time": 36.325,
                "end_time": 36.425,
                "pitch": 57,
                "velocity": 80,
                "duration": 0.1,
                "tempo": 120.0
            },
            {
                "start_time": 36.425,
                "end_time": 36.525,
                "pitch": 55,
                "velocity": 80,
                "duration": 0.1,
                "tempo": 120.0
            },
            {
                "start_time": 36.525,
                "end_time": 36.6272727,
                "pitch": 52,
                "velocity": 80,
                "duration": 0.1022727,
                "tempo": 120.0
            },
            {
                "start_time": 36.6272727,
                "end_time": 36.7272727,
                "pitch": 50,
                "velocity": 80,
                "duration": 0.1,
                "tempo": 120.0
            },
            {
                "start_time": 36.7272727,
                "end_time": 36.8272727,
                "pitch": 47,
                "velocity": 80,
                "duration": 0.1,
                "tempo": 120.0
            },
            {
                "start_time": 36.8295455,
                "end_time": 36.9272727,
                "pitch": 50,
                "velocity": 80,
                "duration": 0.0977273,
                "tempo": 120.0
            },
            {
                "start_time": 36.9272727,
                "end_time": 37.0272727,
                "pitch": 52,
                "velocity": 80,
                "duration": 0.1,
                "tempo": 120.0
            },
            {
                "start_time": 37.0295455,
                "end_time": 37.2272727,
                "pitch": 45,
                "velocity": 80,
                "duration": 0.1977273,
                "tempo": 120.0
            },
            {
                "start_time": 37.2272727,
                "end_time": 37.4272727,
                "pitch": 57,
                "velocity": 80,
                "duration": 0.2,
                "tempo": 120.0
            },
            {
                "start_time": 37.4295455,
                "end_time": 37.5272727,
                "pitch": 45,
                "velocity": 80,
                "duration": 0.0977273,
                "tempo": 120.0
            },
            {
                "start_time": 37.5295455,
                "end_time": 37.7272727,
                "pitch": 55,
                "velocity": 80,
                "duration": 0.1977273,
                "tempo": 120.0
            },
            {
                "start_time": 37.7295455,
                "end_time": 37.8272727,
                "pitch": 45,
                "velocity": 80,
                "duration": 0.0977273,
                "tempo": 120.0
            },
            {
                "start_time": 37.8295455,
                "end_time": 37.9272727,
                "pitch": 47,
                "velocity": 80,
                "duration": 0.0977273,
                "tempo": 120.0
            },
            {
                "start_time": 37.9295455,
                "end_time": 38.0272727,
                "pitch": 57,
                "velocity": 80,
                "duration": 0.0977273,
                "tempo": 120.0
            },
            {
                "start_time": 38.0295455,
                "end_time": 38.1272727,
                "pitch": 52,
                "velocity": 80,
                "duration": 0.0977273,
                "tempo": 120.0
            },
            {
                "start_time": 38.1295455,
                "end_time": 38.2295455,
                "pitch": 50,
                "velocity": 80,
                "duration": 0.1,
                "tempo": 120.0
            },
            {
                "start_time": 38.2295455,
                "end_time": 38.3295455,
                "pitch": 55,
                "velocity": 80,
                "duration": 0.1,
                "tempo": 120.0
            },
            {
                "start_time": 38.3295455,
                "end_time": 38.4295455,
                "pitch": 50,
                "velocity": 80,
                "duration": 0.1,
                "tempo": 120.0
            },
            {
                "start_time": 38.4318182,
                "end_time": 38.5318182,
                "pitch": 55,
                "velocity": 80,
                "duration": 0.1,
                "tempo": 120.0
            },
            {
                "start_time": 38.5318182,
                "end_time": 38.6295455,
                "pitch": 57,
                "velocity": 80,
                "duration": 0.0977273,
                "tempo": 120.0
            },
            {
                "start_time": 38.6318182,
                "end_time": 38.7295455,
                "pitch": 47,
                "velocity": 80,
                "duration": 0.0977273,
                "tempo": 120.0
            },
            {
                "start_time": 38.7318182,
                "end_time": 38.9295455,
                "pitch": 47,
                "velocity": 80,
                "duration": 0.1977273,
                "tempo": 120.0
            },
            {
                "start_time": 38.9318182,
                "end_time": 39.0295455,
                "pitch": 47,
                "velocity": 80,
                "duration": 0.0977273,
                "tempo": 120.0
            },
            {
                "start_time": 39.0318182,
                "end_time": 39.1295455,
                "pitch": 57,
                "velocity": 80,
                "duration": 0.0977273,
                "tempo": 120.0
            },
            {
                "start_time": 39.1318182,
                "end_time": 39.2318182,
                "pitch": 59,
                "velocity": 80,
                "duration": 0.1,
                "tempo": 120.0
            },
            {
                "start_time": 39.2318182,
                "end_time": 39.3318182,
                "pitch": 47,
                "velocity": 80,
                "duration": 0.1,
                "tempo": 120.0
            },
            {
                "start_time": 39.3318182,
                "end_time": 39.4318182,
                "pitch": 47,
                "velocity": 80,
                "duration": 0.1,
                "tempo": 120.0
            },
            {
                "start_time": 39.4318182,
                "end_time": 39.6318182,
                "pitch": 59,
                "velocity": 80,
                "duration": 0.2,
                "tempo": 120.0
            },
            {
                "start_time": 39.6318182,
                "end_time": 39.7318182,
                "pitch": 47,
                "velocity": 80,
                "duration": 0.1,
                "tempo": 120.0
            },
            {
                "start_time": 39.7318182,
                "end_time": 39.8318182,
                "pitch": 47,
                "velocity": 80,
                "duration": 0.1,
                "tempo": 120.0
            },
            {
                "start_time": 39.8318182,
                "end_time": 40.0318182,
                "pitch": 57,
                "velocity": 80,
                "duration": 0.2,
                "tempo": 120.0
            },
            {
                "start_time": 40.0340909,
                "end_time": 40.1318182,
                "pitch": 54,
                "velocity": 80,
                "duration": 0.0977273,
                "tempo": 120.0
            },
            {
                "start_time": 40.1340909,
                "end_time": 40.2318182,
                "pitch": 47,
                "velocity": 80,
                "duration": 0.0977273,
                "tempo": 120.0
            },
            {
                "start_time": 40.2340909,
                "end_time": 40.4386364,
                "pitch": 47,
                "velocity": 80,
                "duration": 0.2045455,
                "tempo": 120.0
            },
            {
                "start_time": 40.4386364,
                "end_time": 40.5409091,
                "pitch": 59,
                "velocity": 80,
                "duration": 0.1022727,
                "tempo": 120.0
            },
            {
                "start_time": 40.5409091,
                "end_time": 40.6431818,
                "pitch": 47,
                "velocity": 80,
                "duration": 0.1022727,
                "tempo": 120.0
            },
            {
                "start_time": 40.6454545,
                "end_time": 40.7409091,
                "pitch": 47,
                "velocity": 80,
                "duration": 0.0954545,
                "tempo": 120.0
            },
            {
                "start_time": 40.7431818,
                "end_time": 40.9386364,
                "pitch": 57,
                "velocity": 80,
                "duration": 0.1954545,
                "tempo": 120.0
            },
            {
                "start_time": 40.9386364,
                "end_time": 41.0363636,
                "pitch": 47,
                "velocity": 80,
                "duration": 0.0977273,
                "tempo": 120.0
            },
            {
                "start_time": 41.0363636,
                "end_time": 41.1363636,
                "pitch": 43,
                "velocity": 80,
                "duration": 0.1,
                "tempo": 120.0
            },
            {
                "start_time": 41.1363636,
                "end_time": 41.2363636,
                "pitch": 55,
                "velocity": 80,
                "duration": 0.1,
                "tempo": 120.0
            },
            {
                "start_time": 41.2363636,
                "end_time": 41.3363636,
                "pitch": 44,
                "velocity": 80,
                "duration": 0.1,
                "tempo": 120.0
            },
            {
                "start_time": 41.3363636,
                "end_time": 41.4363636,
                "pitch": 56,
                "velocity": 80,
                "duration": 0.1,
                "tempo": 120.0
            },
            {
                "start_time": 41.4386364,
                "end_time": 41.5363636,
                "pitch": 45,
                "velocity": 80,
                "duration": 0.0977273,
                "tempo": 120.0
            },
            {
                "start_time": 41.5386364,
                "end_time": 41.6363636,
                "pitch": 57,
                "velocity": 80,
                "duration": 0.0977273,
                "tempo": 120.0
            },
            {
                "start_time": 41.6386364,
                "end_time": 41.7363636,
                "pitch": 46,
                "velocity": 80,
                "duration": 0.0977273,
                "tempo": 120.0
            },
            {
                "start_time": 41.7386364,
                "end_time": 41.8386364,
                "pitch": 58,
                "velocity": 80,
                "duration": 0.1,
                "tempo": 120.0
            },
            {
                "start_time": 41.8386364,
                "end_time": 42.0431818,
                "pitch": 59,
                "velocity": 80,
                "duration": 0.2045455,
                "tempo": 120.0
            },
            {
                "start_time": 42.0431818,
                "end_time": 42.1454545,
                "pitch": 47,
                "velocity": 80,
                "duration": 0.1022727,
                "tempo": 120.0
            },
            {
                "start_time": 42.1454545,
                "end_time": 42.2477273,
                "pitch": 47,
                "velocity": 80,
                "duration": 0.1022727,
                "tempo": 120.0
            },
            {
                "start_time": 42.25,
                "end_time": 42.4431818,
                "pitch": 57,
                "velocity": 80,
                "duration": 0.1931818,
                "tempo": 120.0
            },
            {
                "start_time": 42.4454545,
                "end_time": 42.5431818,
                "pitch": 47,
                "velocity": 80,
                "duration": 0.0977273,
                "tempo": 120.0
            },
            {
                "start_time": 42.5431818,
                "end_time": 42.6409091,
                "pitch": 47,
                "velocity": 80,
                "duration": 0.0977273,
                "tempo": 120.0
            },
            {
                "start_time": 42.6409091,
                "end_time": 42.7409091,
                "pitch": 47,
                "velocity": 80,
                "duration": 0.1,
                "tempo": 120.0
            },
            {
                "start_time": 42.7431818,
                "end_time": 42.8409091,
                "pitch": 59,
                "velocity": 80,
                "duration": 0.0977273,
                "tempo": 120.0
            },
            {
                "start_time": 42.8431818,
                "end_time": 42.9409091,
                "pitch": 57,
                "velocity": 80,
                "duration": 0.0977273,
                "tempo": 120.0
            },
            {
                "start_time": 42.9431818,
                "end_time": 43.0409091,
                "pitch": 54,
                "velocity": 80,
                "duration": 0.0977273,
                "tempo": 120.0
            },
            {
                "start_time": 43.0431818,
                "end_time": 43.1431818,
                "pitch": 52,
                "velocity": 80,
                "duration": 0.1,
                "tempo": 120.0
            },
            {
                "start_time": 43.1454545,
                "end_time": 43.2477273,
                "pitch": 49,
                "velocity": 80,
                "duration": 0.1022727,
                "tempo": 120.0
            },
            {
                "start_time": 43.2477273,
                "end_time": 43.35,
                "pitch": 52,
                "velocity": 80,
                "duration": 0.1022727,
                "tempo": 120.0
            },
            {
                "start_time": 43.3522727,
                "end_time": 43.4522727,
                "pitch": 54,
                "velocity": 80,
                "duration": 0.1,
                "tempo": 120.0
            },
            {
                "start_time": 43.4545455,
                "end_time": 43.6545455,
                "pitch": 47,
                "velocity": 80,
                "duration": 0.2,
                "tempo": 120.0
            },
            {
                "start_time": 43.6568182,
                "end_time": 43.8568182,
                "pitch": 59,
                "velocity": 80,
                "duration": 0.2,
                "tempo": 120.0
            },
            {
                "start_time": 43.8568182,
                "end_time": 43.9568182,
                "pitch": 47,
                "velocity": 80,
                "duration": 0.1,
                "tempo": 120.0
            },
            {
                "start_time": 43.9568182,
                "end_time": 44.1568182,
                "pitch": 57,
                "velocity": 80,
                "duration": 0.2,
                "tempo": 120.0
            },
            {
                "start_time": 44.1568182,
                "end_time": 44.2568182,
                "pitch": 47,
                "velocity": 80,
                "duration": 0.1,
                "tempo": 120.0
            },
            {
                "start_time": 44.2568182,
                "end_time": 44.3568182,
                "pitch": 49,
                "velocity": 80,
                "duration": 0.1,
                "tempo": 120.0
            },
            {
                "start_time": 44.3568182,
                "end_time": 44.4568182,
                "pitch": 59,
                "velocity": 80,
                "duration": 0.1,
                "tempo": 120.0
            },
            {
                "start_time": 44.4590909,
                "end_time": 44.5568182,
                "pitch": 54,
                "velocity": 80,
                "duration": 0.0977273,
                "tempo": 120.0
            },
            {
                "start_time": 44.5590909,
                "end_time": 44.6568182,
                "pitch": 52,
                "velocity": 80,
                "duration": 0.0977273,
                "tempo": 120.0
            },
            {
                "start_time": 44.6568182,
                "end_time": 44.7545455,
                "pitch": 57,
                "velocity": 80,
                "duration": 0.0977273,
                "tempo": 120.0
            },
            {
                "start_time": 44.7568182,
                "end_time": 44.8522727,
                "pitch": 52,
                "velocity": 80,
                "duration": 0.0954545,
                "tempo": 120.0
            },
            {
                "start_time": 44.8545455,
                "end_time": 44.9522727,
                "pitch": 57,
                "velocity": 80,
                "duration": 0.0977273,
                "tempo": 120.0
            },
            {
                "start_time": 44.9522727,
                "end_time": 45.05,
                "pitch": 59,
                "velocity": 80,
                "duration": 0.0977273,
                "tempo": 120.0
            },
            {
                "start_time": 45.0522727,
                "end_time": 45.1522727,
                "pitch": 45,
                "velocity": 80,
                "duration": 0.1,
                "tempo": 120.0
            },
            {
                "start_time": 45.1522727,
                "end_time": 45.3568182,
                "pitch": 45,
                "velocity": 80,
                "duration": 0.2045455,
                "tempo": 120.0
            },
            {
                "start_time": 45.3590909,
                "end_time": 45.4613636,
                "pitch": 45,
                "velocity": 80,
                "duration": 0.1022727,
                "tempo": 120.0
            },
            {
                "start_time": 45.4613636,
                "end_time": 45.5613636,
                "pitch": 55,
                "velocity": 80,
                "duration": 0.1,
                "tempo": 120.0
            },
            {
                "start_time": 45.5636364,
                "end_time": 45.6613636,
                "pitch": 57,
                "velocity": 80,
                "duration": 0.0977273,
                "tempo": 120.0
            },
            {
                "start_time": 45.6636364,
                "end_time": 45.7636364,
                "pitch": 45,
                "velocity": 80,
                "duration": 0.1,
                "tempo": 120.0
            },
            {
                "start_time": 45.7636364,
                "end_time": 45.8636364,
                "pitch": 45,
                "velocity": 80,
                "duration": 0.1,
                "tempo": 120.0
            },
            {
                "start_time": 45.8659091,
                "end_time": 46.0590909,
                "pitch": 57,
                "velocity": 80,
                "duration": 0.1931818,
                "tempo": 120.0
            },
            {
                "start_time": 46.0613636,
                "end_time": 46.1590909,
                "pitch": 45,
                "velocity": 80,
                "duration": 0.0977273,
                "tempo": 120.0
            },
            {
                "start_time": 46.1590909,
                "end_time": 46.2568182,
                "pitch": 45,
                "velocity": 80,
                "duration": 0.0977273,
                "tempo": 120.0
            },
            {
                "start_time": 46.2590909,
                "end_time": 46.4613636,
                "pitch": 55,
                "velocity": 80,
                "duration": 0.2022727,
                "tempo": 120.0
            },
            {
                "start_time": 46.4636364,
                "end_time": 46.5659091,
                "pitch": 52,
                "velocity": 80,
                "duration": 0.1022727,
                "tempo": 120.0
            },
            {
                "start_time": 46.5659091,
                "end_time": 46.6681818,
                "pitch": 45,
                "velocity": 80,
                "duration": 0.1022727,
                "tempo": 120.0
            },
            {
                "start_time": 46.6704545,
                "end_time": 46.8681818,
                "pitch": 45,
                "velocity": 80,
                "duration": 0.1977273,
                "tempo": 120.0
            },
            {
                "start_time": 46.8704545,
                "end_time": 46.9681818,
                "pitch": 57,
                "velocity": 80,
                "duration": 0.0977273,
                "tempo": 120.0
            },
            {
                "start_time": 46.9704545,
                "end_time": 47.0681818,
                "pitch": 45,
                "velocity": 80,
                "duration": 0.0977273,
                "tempo": 120.0
            },
            {
                "start_time": 47.0704545,
                "end_time": 47.1681818,
                "pitch": 45,
                "velocity": 80,
                "duration": 0.0977273,
                "tempo": 120.0
            },
            {
                "start_time": 47.1704545,
                "end_time": 47.3681818,
                "pitch": 55,
                "velocity": 80,
                "duration": 0.1977273,
                "tempo": 120.0
            },
            {
                "start_time": 47.3704545,
                "end_time": 47.4681818,
                "pitch": 45,
                "velocity": 80,
                "duration": 0.0977273,
                "tempo": 120.0
            },
            {
                "start_time": 47.4704545,
                "end_time": 47.5704545,
                "pitch": 41,
                "velocity": 80,
                "duration": 0.1,
                "tempo": 120.0
            },
            {
                "start_time": 47.5704545,
                "end_time": 47.6704545,
                "pitch": 53,
                "velocity": 80,
                "duration": 0.1,
                "tempo": 120.0
            },
            {
                "start_time": 47.6727273,
                "end_time": 47.7704545,
                "pitch": 42,
                "velocity": 80,
                "duration": 0.0977273,
                "tempo": 120.0
            },
            {
                "start_time": 47.7727273,
                "end_time": 47.8727273,
                "pitch": 54,
                "velocity": 80,
                "duration": 0.1,
                "tempo": 120.0
            },
            {
                "start_time": 47.8727273,
                "end_time": 47.9727273,
                "pitch": 43,
                "velocity": 80,
                "duration": 0.1,
                "tempo": 120.0
            },
            {
                "start_time": 47.9727273,
                "end_time": 48.0727273,
                "pitch": 55,
                "velocity": 80,
                "duration": 0.1,
                "tempo": 120.0
            },
            {
                "start_time": 48.075,
                "end_time": 48.1727273,
                "pitch": 44,
                "velocity": 80,
                "duration": 0.0977273,
                "tempo": 120.0
            },
            {
                "start_time": 48.175,
                "end_time": 48.2727273,
                "pitch": 56,
                "velocity": 80,
                "duration": 0.0977273,
                "tempo": 120.0
            },
            {
                "start_time": 48.275,
                "end_time": 48.4795455,
                "pitch": 57,
                "velocity": 80,
                "duration": 0.2045455,
                "tempo": 120.0
            },
            {
                "start_time": 48.4795455,
                "end_time": 48.5818182,
                "pitch": 45,
                "velocity": 80,
                "duration": 0.1022727,
                "tempo": 120.0
            },
            {
                "start_time": 48.5818182,
                "end_time": 48.6840909,
                "pitch": 45,
                "velocity": 80,
                "duration": 0.1022727,
                "tempo": 120.0
            },
            {
                "start_time": 48.6840909,
                "end_time": 48.8795455,
                "pitch": 55,
                "velocity": 80,
                "duration": 0.1954545,
                "tempo": 120.0
            },
            {
                "start_time": 48.8818182,
                "end_time": 48.9772727,
                "pitch": 45,
                "velocity": 80,
                "duration": 0.0954545,
                "tempo": 120.0
            },
            {
                "start_time": 48.9795455,
                "end_time": 49.0772727,
                "pitch": 45,
                "velocity": 80,
                "duration": 0.0977273,
                "tempo": 120.0
            },
            {
                "start_time": 49.0772727,
                "end_time": 49.1772727,
                "pitch": 45,
                "velocity": 80,
                "duration": 0.1,
                "tempo": 120.0
            },
            {
                "start_time": 49.1772727,
                "end_time": 49.2772727,
                "pitch": 57,
                "velocity": 80,
                "duration": 0.1,
                "tempo": 120.0
            },
            {
                "start_time": 49.2772727,
                "end_time": 49.3772727,
                "pitch": 55,
                "velocity": 80,
                "duration": 0.1,
                "tempo": 120.0
            },
            {
                "start_time": 49.3772727,
                "end_time": 49.4772727,
                "pitch": 52,
                "velocity": 80,
                "duration": 0.1,
                "tempo": 120.0
            },
            {
                "start_time": 49.4795455,
                "end_time": 49.5795455,
                "pitch": 50,
                "velocity": 80,
                "duration": 0.1,
                "tempo": 120.0
            },
            {
                "start_time": 49.5818182,
                "end_time": 49.6818182,
                "pitch": 47,
                "velocity": 80,
                "duration": 0.1,
                "tempo": 120.0
            },
            {
                "start_time": 49.6840909,
                "end_time": 49.7863636,
                "pitch": 50,
                "velocity": 80,
                "duration": 0.1022727,
                "tempo": 120.0
            },
            {
                "start_time": 49.7863636,
                "end_time": 49.8886364,
                "pitch": 52,
                "velocity": 80,
                "duration": 0.1022727,
                "tempo": 120.0
            },
            {
                "start_time": 51.4909091,
                "end_time": 51.4954545,
                "pitch": 45,
                "velocity": 80,
                "duration": 0.0045455,
                "tempo": 120.0
            }
        ],
        "Harpsichord": [
            {
                "start_time": 0.2113636,
                "end_time": 0.4090909,
                "pitch": 64,
                "velocity": 64,
                "duration": 0.1977273,
                "tempo": 120.0
            },
            {
                "start_time": 0.4136364,
                "end_time": 0.6068182,
                "pitch": 69,
                "velocity": 64,
                "duration": 0.1931818,
                "tempo": 120.0
            },
            {
                "start_time": 0.6090909,
                "end_time": 0.8022727,
                "pitch": 72,
                "velocity": 64,
                "duration": 0.1931818,
                "tempo": 120.0
            },
            {
                "start_time": 0.8045455,
                "end_time": 1.0045455,
                "pitch": 76,
                "velocity": 64,
                "duration": 0.2,
                "tempo": 120.0
            },
            {
                "start_time": 1.0068182,
                "end_time": 1.2068182,
                "pitch": 72,
                "velocity": 64,
                "duration": 0.2,
                "tempo": 120.0
            },
            {
                "start_time": 1.2090909,
                "end_time": 1.4068182,
                "pitch": 74,
                "velocity": 64,
                "duration": 0.1977273,
                "tempo": 120.0
            },
            {
                "start_time": 1.4090909,
                "end_time": 2.0113636,
                "pitch": 71,
                "velocity": 64,
                "duration": 0.6022727,
                "tempo": 120.0
            },
            {
                "start_time": 3.4181818,
                "end_time": 3.6159091,
                "pitch": 62,
                "velocity": 64,
                "duration": 0.1977273,
                "tempo": 120.0
            },
            {
                "start_time": 3.6181818,
                "end_time": 3.8204545,
                "pitch": 67,
                "velocity": 64,
                "duration": 0.2022727,
                "tempo": 120.0
            },
            {
                "start_time": 3.825,
                "end_time": 4.0272727,
                "pitch": 71,
                "velocity": 64,
                "duration": 0.2022727,
                "tempo": 120.0
            },
            {
                "start_time": 4.0295455,
                "end_time": 4.2227273,
                "pitch": 74,
                "velocity": 64,
                "duration": 0.1931818,
                "tempo": 120.0
            },
            {
                "start_time": 4.225,
                "end_time": 4.4181818,
                "pitch": 71,
                "velocity": 64,
                "duration": 0.1931818,
                "tempo": 120.0
            },
            {
                "start_time": 4.4204545,
                "end_time": 4.6227273,
                "pitch": 67,
                "velocity": 64,
                "duration": 0.2022727,
                "tempo": 120.0
            },
            {
                "start_time": 4.6272727,
                "end_time": 5.2340909,
                "pitch": 69,
                "velocity": 64,
                "duration": 0.6068182,
                "tempo": 120.0
            },
            {
                "start_time": 6.6431818,
                "end_time": 6.8409091,
                "pitch": 64,
                "velocity": 64,
                "duration": 0.1977273,
                "tempo": 120.0
            },
            {
                "start_time": 6.8454545,
                "end_time": 7.0431818,
                "pitch": 69,
                "velocity": 64,
                "duration": 0.1977273,
                "tempo": 120.0
            },
            {
                "start_time": 7.0454545,
                "end_time": 7.2454545,
                "pitch": 72,
                "velocity": 64,
                "duration": 0.2,
                "tempo": 120.0
            },
            {
                "start_time": 7.2477273,
                "end_time": 7.4454545,
                "pitch": 76,
                "velocity": 64,
                "duration": 0.1977273,
                "tempo": 120.0
            },
            {
                "start_time": 7.4477273,
                "end_time": 7.6431818,
                "pitch": 72,
                "velocity": 64,
                "duration": 0.1954545,
                "tempo": 120.0
            },
            {
                "start_time": 7.6477273,
                "end_time": 7.8454545,
                "pitch": 74,
                "velocity": 64,
                "duration": 0.1977273,
                "tempo": 120.0
            },
            {
                "start_time": 7.8477273,
                "end_time": 8.45,
                "pitch": 71,
                "velocity": 64,
                "duration": 0.6022727,
                "tempo": 120.0
            },
            {
                "start_time": 9.8613636,
                "end_time": 10.0590909,
                "pitch": 62,
                "velocity": 64,
                "duration": 0.1977273,
                "tempo": 120.0
            },
            {
                "start_time": 10.0613636,
                "end_time": 10.2613636,
                "pitch": 67,
                "velocity": 64,
                "duration": 0.2,
                "tempo": 120.0
            },
            {
                "start_time": 10.2636364,
                "end_time": 10.4636364,
                "pitch": 71,
                "velocity": 64,
                "duration": 0.2,
                "tempo": 120.0
            },
            {
                "start_time": 10.4659091,
                "end_time": 10.6636364,
                "pitch": 74,
                "velocity": 64,
                "duration": 0.1977273,
                "tempo": 120.0
            },
            {
                "start_time": 10.6659091,
                "end_time": 10.8636364,
                "pitch": 71,
                "velocity": 64,
                "duration": 0.1977273,
                "tempo": 120.0
            },
            {
                "start_time": 10.8659091,
                "end_time": 11.0659091,
                "pitch": 67,
                "velocity": 64,
                "duration": 0.2,
                "tempo": 120.0
            },
            {
                "start_time": 11.0681818,
                "end_time": 11.6727273,
                "pitch": 69,
                "velocity": 64,
                "duration": 0.6045455,
                "tempo": 120.0
            },
            {
                "start_time": 13.0886364,
                "end_time": 13.2909091,
                "pitch": 64,
                "velocity": 64,
                "duration": 0.2022727,
                "tempo": 120.0
            },
            {
                "start_time": 13.2931818,
                "end_time": 13.4931818,
                "pitch": 69,
                "velocity": 64,
                "duration": 0.2,
                "tempo": 120.0
            },
            {
                "start_time": 13.4954545,
                "end_time": 13.6931818,
                "pitch": 72,
                "velocity": 64,
                "duration": 0.1977273,
                "tempo": 120.0
            },
            {
                "start_time": 13.6954545,
                "end_time": 13.8909091,
                "pitch": 76,
                "velocity": 64,
                "duration": 0.1954545,
                "tempo": 120.0
            },
            {
                "start_time": 13.8931818,
                "end_time": 14.0863636,
                "pitch": 72,
                "velocity": 64,
                "duration": 0.1931818,
                "tempo": 120.0
            },
            {
                "start_time": 14.0886364,
                "end_time": 14.2909091,
                "pitch": 74,
                "velocity": 64,
                "duration": 0.2022727,
                "tempo": 120.0
            },
            {
                "start_time": 14.2931818,
                "end_time": 14.9022727,
                "pitch": 71,
                "velocity": 64,
                "duration": 0.6090909,
                "tempo": 120.0
            },
            {
                "start_time": 16.3136364,
                "end_time": 16.5136364,
                "pitch": 62,
                "velocity": 64,
                "duration": 0.2,
                "tempo": 120.0
            },
            {
                "start_time": 16.5159091,
                "end_time": 16.7136364,
                "pitch": 67,
                "velocity": 64,
                "duration": 0.1977273,
                "tempo": 120.0
            },
            {
                "start_time": 16.7159091,
                "end_time": 16.9136364,
                "pitch": 71,
                "velocity": 64,
                "duration": 0.1977273,
                "tempo": 120.0
            },
            {
                "start_time": 16.9159091,
                "end_time": 17.1136364,
                "pitch": 74,
                "velocity": 64,
                "duration": 0.1977273,
                "tempo": 120.0
            },
            {
                "start_time": 17.1181818,
                "end_time": 17.3136364,
                "pitch": 71,
                "velocity": 64,
                "duration": 0.1954545,
                "tempo": 120.0
            },
            {
                "start_time": 17.3159091,
                "end_time": 17.5159091,
                "pitch": 67,
                "velocity": 64,
                "duration": 0.2,
                "tempo": 120.0
            },
            {
                "start_time": 17.5181818,
                "end_time": 18.1181818,
                "pitch": 69,
                "velocity": 64,
                "duration": 0.6,
                "tempo": 120.0
            },
            {
                "start_time": 19.5272727,
                "end_time": 19.7272727,
                "pitch": 64,
                "velocity": 64,
                "duration": 0.2,
                "tempo": 120.0
            },
            {
                "start_time": 19.7295455,
                "end_time": 19.9318182,
                "pitch": 69,
                "velocity": 64,
                "duration": 0.2022727,
                "tempo": 120.0
            },
            {
                "start_time": 19.9340909,
                "end_time": 20.1363636,
                "pitch": 72,
                "velocity": 64,
                "duration": 0.2022727,
                "tempo": 120.0
            },
            {
                "start_time": 20.1409091,
                "end_time": 20.3340909,
                "pitch": 76,
                "velocity": 64,
                "duration": 0.1931818,
                "tempo": 120.0
            },
            {
                "start_time": 20.3363636,
                "end_time": 20.5295455,
                "pitch": 72,
                "velocity": 64,
                "duration": 0.1931818,
                "tempo": 120.0
            },
            {
                "start_time": 20.5318182,
                "end_time": 20.7340909,
                "pitch": 74,
                "velocity": 64,
                "duration": 0.2022727,
                "tempo": 120.0
            },
            {
                "start_time": 20.7363636,
                "end_time": 21.3431818,
                "pitch": 71,
                "velocity": 64,
                "duration": 0.6068182,
                "tempo": 120.0
            },
            {
                "start_time": 22.75,
                "end_time": 22.95,
                "pitch": 62,
                "velocity": 64,
                "duration": 0.2,
                "tempo": 120.0
            },
            {
                "start_time": 22.9522727,
                "end_time": 23.15,
                "pitch": 67,
                "velocity": 64,
                "duration": 0.1977273,
                "tempo": 120.0
            },
            {
                "start_time": 23.1522727,
                "end_time": 23.35,
                "pitch": 71,
                "velocity": 64,
                "duration": 0.1977273,
                "tempo": 120.0
            },
            {
                "start_time": 23.3522727,
                "end_time": 23.55,
                "pitch": 74,
                "velocity": 64,
                "duration": 0.1977273,
                "tempo": 120.0
            },
            {
                "start_time": 23.5522727,
                "end_time": 23.75,
                "pitch": 71,
                "velocity": 64,
                "duration": 0.1977273,
                "tempo": 120.0
            },
            {
                "start_time": 23.7522727,
                "end_time": 23.95,
                "pitch": 67,
                "velocity": 64,
                "duration": 0.1977273,
                "tempo": 120.0
            },
            {
                "start_time": 23.9522727,
                "end_time": 24.5545455,
                "pitch": 69,
                "velocity": 64,
                "duration": 0.6022727,
                "tempo": 120.0
            }
        ],
        "French Horn": [
            {
                "start_time": 1.8090909,
                "end_time": 2.0090909,
                "pitch": 57,
                "velocity": 101,
                "duration": 0.2,
                "tempo": 120.0
            },
            {
                "start_time": 2.0113636,
                "end_time": 2.2090909,
                "pitch": 64,
                "velocity": 101,
                "duration": 0.1977273,
                "tempo": 120.0
            },
            {
                "start_time": 2.2113636,
                "end_time": 2.4090909,
                "pitch": 60,
                "velocity": 101,
                "duration": 0.1977273,
                "tempo": 120.0
            },
            {
                "start_time": 2.4113636,
                "end_time": 2.8136364,
                "pitch": 62,
                "velocity": 101,
                "duration": 0.4022727,
                "tempo": 120.0
            },
            {
                "start_time": 2.8159091,
                "end_time": 3.0136364,
                "pitch": 59,
                "velocity": 101,
                "duration": 0.1977273,
                "tempo": 120.0
            },
            {
                "start_time": 3.0159091,
                "end_time": 4.4181818,
                "pitch": 55,
                "velocity": 101,
                "duration": 1.4022727,
                "tempo": 120.0
            },
            {
                "start_time": 5.0340909,
                "end_time": 5.2318182,
                "pitch": 55,
                "velocity": 101,
                "duration": 0.1977273,
                "tempo": 120.0
            },
            {
                "start_time": 5.2340909,
                "end_time": 5.4318182,
                "pitch": 62,
                "velocity": 101,
                "duration": 0.1977273,
                "tempo": 120.0
            },
            {
                "start_time": 5.4363636,
                "end_time": 5.6340909,
                "pitch": 59,
                "velocity": 101,
                "duration": 0.1977273,
                "tempo": 120.0
            },
            {
                "start_time": 5.6363636,
                "end_time": 5.8340909,
                "pitch": 60,
                "velocity": 101,
                "duration": 0.1977273,
                "tempo": 120.0
            },
            {
                "start_time": 5.8363636,
                "end_time": 6.0363636,
                "pitch": 59,
                "velocity": 101,
                "duration": 0.2,
                "tempo": 120.0
            },
            {
                "start_time": 6.0386364,
                "end_time": 6.2363636,
                "pitch": 55,
                "velocity": 101,
                "duration": 0.1977273,
                "tempo": 120.0
            },
            {
                "start_time": 6.2386364,
                "end_time": 7.6431818,
                "pitch": 57,
                "velocity": 101,
                "duration": 1.4045455,
                "tempo": 120.0
            },
            {
                "start_time": 8.25,
                "end_time": 8.4477273,
                "pitch": 57,
                "velocity": 101,
                "duration": 0.1977273,
                "tempo": 120.0
            },
            {
                "start_time": 8.45,
                "end_time": 8.65,
                "pitch": 64,
                "velocity": 101,
                "duration": 0.2,
                "tempo": 120.0
            },
            {
                "start_time": 8.6522727,
                "end_time": 8.85,
                "pitch": 60,
                "velocity": 101,
                "duration": 0.1977273,
                "tempo": 120.0
            },
            {
                "start_time": 8.8522727,
                "end_time": 9.2545455,
                "pitch": 62,
                "velocity": 101,
                "duration": 0.4022727,
                "tempo": 120.0
            },
            {
                "start_time": 9.2568182,
                "end_time": 9.4545455,
                "pitch": 59,
                "velocity": 101,
                "duration": 0.1977273,
                "tempo": 120.0
            },
            {
                "start_time": 9.4568182,
                "end_time": 10.8636364,
                "pitch": 55,
                "velocity": 101,
                "duration": 1.4068182,
                "tempo": 120.0
            },
            {
                "start_time": 11.4704545,
                "end_time": 11.6704545,
                "pitch": 55,
                "velocity": 101,
                "duration": 0.2,
                "tempo": 120.0
            },
            {
                "start_time": 11.6727273,
                "end_time": 11.875,
                "pitch": 62,
                "velocity": 101,
                "duration": 0.2022727,
                "tempo": 120.0
            },
            {
                "start_time": 11.8772727,
                "end_time": 12.0818182,
                "pitch": 59,
                "velocity": 101,
                "duration": 0.2045455,
                "tempo": 120.0
            },
            {
                "start_time": 12.0840909,
                "end_time": 12.2772727,
                "pitch": 60,
                "velocity": 101,
                "duration": 0.1931818,
                "tempo": 120.0
            },
            {
                "start_time": 12.2795455,
                "end_time": 12.475,
                "pitch": 59,
                "velocity": 101,
                "duration": 0.1954545,
                "tempo": 120.0
            },
            {
                "start_time": 12.4772727,
                "end_time": 12.675,
                "pitch": 57,
                "velocity": 101,
                "duration": 0.1977273,
                "tempo": 120.0
            },
            {
                "start_time": 12.6795455,
                "end_time": 14.0840909,
                "pitch": 64,
                "velocity": 101,
                "duration": 1.4045455,
                "tempo": 120.0
            },
            {
                "start_time": 14.7,
                "end_time": 14.9,
                "pitch": 57,
                "velocity": 101,
                "duration": 0.2,
                "tempo": 120.0
            },
            {
                "start_time": 14.9022727,
                "end_time": 15.1,
                "pitch": 64,
                "velocity": 101,
                "duration": 0.1977273,
                "tempo": 120.0
            },
            {
                "start_time": 15.1022727,
                "end_time": 15.3022727,
                "pitch": 60,
                "velocity": 101,
                "duration": 0.2,
                "tempo": 120.0
            },
            {
                "start_time": 15.3045455,
                "end_time": 15.7068182,
                "pitch": 62,
                "velocity": 101,
                "duration": 0.4022727,
                "tempo": 120.0
            },
            {
                "start_time": 15.7090909,
                "end_time": 15.9068182,
                "pitch": 59,
                "velocity": 101,
                "duration": 0.1977273,
                "tempo": 120.0
            },
            {
                "start_time": 15.9090909,
                "end_time": 17.3136364,
                "pitch": 55,
                "velocity": 101,
                "duration": 1.4045455,
                "tempo": 120.0
            },
            {
                "start_time": 17.9181818,
                "end_time": 18.1159091,
                "pitch": 55,
                "velocity": 101,
                "duration": 0.1977273,
                "tempo": 120.0
            },
            {
                "start_time": 18.1181818,
                "end_time": 18.3227273,
                "pitch": 62,
                "velocity": 101,
                "duration": 0.2045455,
                "tempo": 120.0
            },
            {
                "start_time": 18.325,
                "end_time": 18.5272727,
                "pitch": 59,
                "velocity": 101,
                "duration": 0.2022727,
                "tempo": 120.0
            },
            {
                "start_time": 18.5295455,
                "end_time": 18.725,
                "pitch": 60,
                "velocity": 101,
                "duration": 0.1954545,
                "tempo": 120.0
            },
            {
                "start_time": 18.7272727,
                "end_time": 18.9204545,
                "pitch": 59,
                "velocity": 101,
                "duration": 0.1931818,
                "tempo": 120.0
            },
            {
                "start_time": 18.9227273,
                "end_time": 19.1204545,
                "pitch": 55,
                "velocity": 101,
                "duration": 0.1977273,
                "tempo": 120.0
            },
            {
                "start_time": 19.1227273,
                "end_time": 20.5272727,
                "pitch": 57,
                "velocity": 101,
                "duration": 1.4045455,
                "tempo": 120.0
            },
            {
                "start_time": 21.1431818,
                "end_time": 21.3409091,
                "pitch": 57,
                "velocity": 101,
                "duration": 0.1977273,
                "tempo": 120.0
            },
            {
                "start_time": 21.3431818,
                "end_time": 21.5409091,
                "pitch": 64,
                "velocity": 101,
                "duration": 0.1977273,
                "tempo": 120.0
            },
            {
                "start_time": 21.5431818,
                "end_time": 21.7409091,
                "pitch": 60,
                "velocity": 101,
                "duration": 0.1977273,
                "tempo": 120.0
            },
            {
                "start_time": 21.7431818,
                "end_time": 22.1431818,
                "pitch": 62,
                "velocity": 101,
                "duration": 0.4,
                "tempo": 120.0
            },
            {
                "start_time": 22.1454545,
                "end_time": 22.3431818,
                "pitch": 59,
                "velocity": 101,
                "duration": 0.1977273,
                "tempo": 120.0
            },
            {
                "start_time": 22.3454545,
                "end_time": 23.7477273,
                "pitch": 55,
                "velocity": 101,
                "duration": 1.4022727,
                "tempo": 120.0
            },
            {
                "start_time": 24.3545455,
                "end_time": 24.5522727,
                "pitch": 55,
                "velocity": 101,
                "duration": 0.1977273,
                "tempo": 120.0
            },
            {
                "start_time": 24.5545455,
                "end_time": 24.7545455,
                "pitch": 62,
                "velocity": 101,
                "duration": 0.2,
                "tempo": 120.0
            },
            {
                "start_time": 24.7568182,
                "end_time": 24.9545455,
                "pitch": 59,
                "velocity": 101,
                "duration": 0.1977273,
                "tempo": 120.0
            },
            {
                "start_time": 24.9590909,
                "end_time": 25.1568182,
                "pitch": 60,
                "velocity": 101,
                "duration": 0.1977273,
                "tempo": 120.0
            },
            {
                "start_time": 25.1590909,
                "end_time": 25.3568182,
                "pitch": 59,
                "velocity": 101,
                "duration": 0.1977273,
                "tempo": 120.0
            },
            {
                "start_time": 25.3590909,
                "end_time": 25.5568182,
                "pitch": 55,
                "velocity": 101,
                "duration": 0.1977273,
                "tempo": 120.0
            },
            {
                "start_time": 25.5590909,
                "end_time": 26.9727273,
                "pitch": 57,
                "velocity": 80,
                "duration": 1.4136364,
                "tempo": 120.0
            },
            {
                "start_time": 26.975,
                "end_time": 27.3636364,
                "pitch": 64,
                "velocity": 80,
                "duration": 0.3886364,
                "tempo": 120.0
            },
            {
                "start_time": 27.3681818,
                "end_time": 27.975,
                "pitch": 60,
                "velocity": 80,
                "duration": 0.6068182,
                "tempo": 120.0
            },
            {
                "start_time": 27.9772727,
                "end_time": 28.5863636,
                "pitch": 62,
                "velocity": 80,
                "duration": 0.6090909,
                "tempo": 120.0
            },
            {
                "start_time": 28.5909091,
                "end_time": 28.9795455,
                "pitch": 57,
                "velocity": 80,
                "duration": 0.3886364,
                "tempo": 120.0
            },
            {
                "start_time": 28.9818182,
                "end_time": 30.1954545,
                "pitch": 62,
                "velocity": 80,
                "duration": 1.2136364,
                "tempo": 120.0
            },
            {
                "start_time": 30.1977273,
                "end_time": 30.3909091,
                "pitch": 64,
                "velocity": 80,
                "duration": 0.1931818,
                "tempo": 120.0
            },
            {
                "start_time": 30.3931818,
                "end_time": 30.5886364,
                "pitch": 65,
                "velocity": 80,
                "duration": 0.1954545,
                "tempo": 120.0
            },
            {
                "start_time": 30.5909091,
                "end_time": 31.1909091,
                "pitch": 64,
                "velocity": 80,
                "duration": 0.6,
                "tempo": 120.0
            },
            {
                "start_time": 31.1931818,
                "end_time": 31.7931818,
                "pitch": 62,
                "velocity": 80,
                "duration": 0.6,
                "tempo": 120.0
            },
            {
                "start_time": 31.7954545,
                "end_time": 31.9931818,
                "pitch": 57,
                "velocity": 80,
                "duration": 0.1977273,
                "tempo": 120.0
            },
            {
                "start_time": 31.9954545,
                "end_time": 32.1931818,
                "pitch": 59,
                "velocity": 80,
                "duration": 0.1977273,
                "tempo": 120.0
            },
            {
                "start_time": 32.1954545,
                "end_time": 33.4068182,
                "pitch": 60,
                "velocity": 80,
                "duration": 1.2113636,
                "tempo": 120.0
            },
            {
                "start_time": 33.4090909,
                "end_time": 33.8,
                "pitch": 64,
                "velocity": 80,
                "duration": 0.3909091,
                "tempo": 120.0
            },
            {
                "start_time": 33.8022727,
                "end_time": 34.4136364,
                "pitch": 62,
                "velocity": 80,
                "duration": 0.6113636,
                "tempo": 120.0
            },
            {
                "start_time": 34.4159091,
                "end_time": 35.0159091,
                "pitch": 60,
                "velocity": 80,
                "duration": 0.6,
                "tempo": 120.0
            },
            {
                "start_time": 35.0181818,
                "end_time": 35.4090909,
                "pitch": 57,
                "velocity": 80,
                "duration": 0.3909091,
                "tempo": 120.0
            },
            {
                "start_time": 35.4113636,
                "end_time": 36.4886364,
                "pitch": 62,
                "velocity": 80,
                "duration": 1.0772727,
                "tempo": 120.0
            },
            {
                "start_time": 36.4909091,
                "end_time": 36.7568182,
                "pitch": 57,
                "velocity": 80,
                "duration": 0.2659091,
                "tempo": 120.0
            },
            {
                "start_time": 36.7590909,
                "end_time": 37.0227273,
                "pitch": 59,
                "velocity": 80,
                "duration": 0.2636364,
                "tempo": 120.0
            },
            {
                "start_time": 37.0272727,
                "end_time": 38.6295455,
                "pitch": 60,
                "velocity": 80,
                "duration": 1.6022727,
                "tempo": 120.0
            }
        ]
    }
}