{
    "mood": "angry",
    "instruments": {
        "Trumpet": [
            {
                "start_time": 0.0068182,
                "end_time": 0.1977273,
                "pitch": 64,
                "velocity": 101,
                "duration": 0.1909091,
                "tempo": 120.0
            },
            {
                "start_time": 0.1977273,
                "end_time": 0.3977273,
                "pitch": 66,
                "velocity": 101,
                "duration": 0.2,
                "tempo": 120.0
            },
            {
                "start_time": 0.3977273,
                "end_time": 0.6,
                "pitch": 67,
                "velocity": 101,
                "duration": 0.2022727,
                "tempo": 120.0
            },
            {
                "start_time": 0.6,
                "end_time": 0.9977273,
                "pitch": 69,
                "velocity": 101,
                "duration": 0.3977273,
                "tempo": 120.0
            },
            {
                "start_time": 0.9977273,
                "end_time": 1.1977273,
                "pitch": 67,
                "velocity": 101,
                "duration": 0.2,
                "tempo": 120.0
            },
            {
                "start_time": 1.2,
                "end_time": 1.4,
                "pitch": 66,
                "velocity": 101,
                "duration": 0.2,
                "tempo": 120.0
            },
            {
                "start_time": 1.4,
                "end_time": 2.2,
                "pitch": 67,
                "velocity": 101,
                "duration": 0.8,
                "tempo": 120.0
            },
            {
                "start_time": 1.1977273,
                "end_time": 2.2,
                "pitch": 78,
                "velocity": 101,
                "duration": 1.0022727,
                "tempo": 120.0
            },
            {
                "start_time": 2.2,
                "end_time": 2.6,
                "pitch": 66,
                "velocity": 101,
                "duration": 0.4,
                "tempo": 120.0
            },
            {
                "start_time": 2.6,
                "end_time": 3.0022727,
                "pitch": 64,
                "velocity": 101,
                "duration": 0.4022727,
                "tempo": 120.0
            },
            {
                "start_time": 3.0022727,
                "end_time": 3.8113636,
                "pitch": 66,
                "velocity": 101,
                "duration": 0.8090909,
                "tempo": 120.0
            },
            {
                "start_time": 3.8113636,
                "end_time": 4.2181818,
                "pitch": 63,
                "velocity": 101,
                "duration": 0.4068182,
                "tempo": 120.0
            },
            {
                "start_time": 3.8113636,
                "end_time": 4.2181818,
                "pitch": 63,
                "velocity": 101,
                "duration": 0.4068182,
                "tempo": 120.0
            },
            {
                "start_time": 4.2181818,
                "end_time": 4.5181818,
                "pitch": 59,
                "velocity": 101,
                "duration": 0.3,
                "tempo": 120.0
            },
            {
                "start_time": 4.5181818,
                "end_time": 4.8204545,
                "pitch": 66,
                "velocity": 101,
                "duration": 0.3022727,
                "tempo": 120.0
            },
            {
                "start_time": 4.5181818,
                "end_time": 4.8204545,
                "pitch": 66,
                "velocity": 101,
                "duration": 0.3022727,
                "tempo": 120.0
            },
            {
                "start_time": 4.8204545,
                "end_time": 5.0272727,
                "pitch": 64,
                "velocity": 101,
                "duration": 0.2068182,
                "tempo": 120.0
            },
            {
                "start_time": 5.0272727,
                "end_time": 5.2340909,
                "pitch": 66,
                "velocity": 101,
                "duration": 0.2068182,
                "tempo": 120.0
            },
            {
                "start_time": 5.2340909,
                "end_time": 5.4340909,
                "pitch": 67,
                "velocity": 101,
                "duration": 0.2,
                "tempo": 120.0
            },
            {
                "start_time": 5.4340909,
                "end_time": 5.6363636,
                "pitch": 69,
                "velocity": 101,
                "duration": 0.2022727,
                "tempo": 120.0
            },
            {
                "start_time": 2.2,
                "end_time": 5.6363636,
                "pitch": 78,
                "velocity": 101,
                "duration": 3.4363636,
                "tempo": 120.0
            },
            {
                "start_time": 5.6363636,
                "end_time": 5.8340909,
                "pitch": 66,
                "velocity": 101,
                "duration": 0.1977273,
                "tempo": 120.0
            },
            {
                "start_time": 5.8340909,
                "end_time": 6.0363636,
                "pitch": 67,
                "velocity": 101,
                "duration": 0.2022727,
                "tempo": 120.0
            },
            {
                "start_time": 6.0363636,
                "end_time": 6.2363636,
                "pitch": 69,
                "velocity": 101,
                "duration": 0.2,
                "tempo": 120.0
            },
            {
                "start_time": 6.2363636,
                "end_time": 6.4386364,
                "pitch": 71,
                "velocity": 101,
                "duration": 0.2022727,
                "tempo": 120.0
            },
            {
                "start_time": 6.2363636,
                "end_time": 6.4386364,
                "pitch": 71,
                "velocity": 101,
                "duration": 0.2022727,
                "tempo": 120.0
            },
            {
                "start_time": 6.4386364,
                "end_time": 6.6386364,
                "pitch": 67,
                "velocity": 101,
                "duration": 0.2,
                "tempo": 120.0
            },
            {
                "start_time": 6.4386364,
                "end_time": 6.6386364,
                "pitch": 67,
                "velocity": 101,
                "duration": 0.2,
                "tempo": 120.0
            },
            {
                "start_time": 6.6386364,
                "end_time": 6.8386364,
                "pitch": 69,
                "velocity": 101,
                "duration": 0.2,
                "tempo": 120.0
            },
            {
                "start_time": 6.8386364,
                "end_time": 7.0409091,
                "pitch": 71,
                "velocity": 101,
                "duration": 0.2022727,
                "tempo": 120.0
            },
            {
                "start_time": 6.8386364,
                "end_time": 7.0409091,
                "pitch": 71,
                "velocity": 101,
                "duration": 0.2022727,
                "tempo": 120.0
            },
            {
                "start_time": 7.0409091,
                "end_time": 7.2431818,
                "pitch": 72,
                "velocity": 101,
                "duration": 0.2022727,
                "tempo": 120.0
            },
            {
                "start_time": 7.2431818,
                "end_time": 7.4431818,
                "pitch": 71,
                "velocity": 101,
                "duration": 0.2,
                "tempo": 120.0
            },
            {
                "start_time": 7.4431818,
                "end_time": 7.6454545,
                "pitch": 69,
                "velocity": 101,
                "duration": 0.2022727,
                "tempo": 120.0
            },
            {
                "start_time": 7.4431818,
                "end_time": 7.6454545,
                "pitch": 69,
                "velocity": 101,
                "duration": 0.2022727,
                "tempo": 120.0
            },
            {
                "start_time": 7.6454545,
                "end_time": 7.8454545,
                "pitch": 67,
                "velocity": 101,
                "duration": 0.2,
                "tempo": 120.0
            },
            {
                "start_time": 5.6363636,
                "end_time": 7.8454545,
                "pitch": 78,
                "velocity": 101,
                "duration": 2.2090909,
                "tempo": 120.0
            },
            {
                "start_time": 4.2181818,
                "end_time": 8.05,
                "pitch": 44,
                "velocity": 101,
                "duration": 3.8318182,
                "tempo": 120.0
            },
            {
                "start_time": 7.8454545,
                "end_time": 8.05,
                "pitch": 66,
                "velocity": 101,
                "duration": 0.2045455,
                "tempo": 120.0
            },
            {
                "start_time": 8.0522727,
                "end_time": 8.6545455,
                "pitch": 59,
                "velocity": 101,
                "duration": 0.6022727,
                "tempo": 120.0
            },
            {
                "start_time": 8.6545455,
                "end_time": 9.2545455,
                "pitch": 58,
                "velocity": 101,
                "duration": 0.6,
                "tempo": 120.0
            },
            {
                "start_time": 9.2545455,
                "end_time": 9.6590909,
                "pitch": 57,
                "velocity": 101,
                "duration": 0.4045455,
                "tempo": 120.0
            },
            {
                "start_time": 7.2431818,
                "end_time": 10.2590909,
                "pitch": 56,
                "velocity": 101,
                "duration": 3.0159091,
                "tempo": 120.0
            },
            {
                "start_time": 9.6590909,
                "end_time": 10.2590909,
                "pitch": 56,
                "velocity": 101,
                "duration": 0.6,
                "tempo": 120.0
            },
            {
                "start_time": 10.2590909,
                "end_time": 10.8636364,
                "pitch": 55,
                "velocity": 101,
                "duration": 0.6045455,
                "tempo": 120.0
            },
            {
                "start_time": 10.8636364,
                "end_time": 11.2681818,
                "pitch": 54,
                "velocity": 101,
                "duration": 0.4045455,
                "tempo": 120.0
            },
            {
                "start_time": 11.2704545,
                "end_time": 11.875,
                "pitch": 59,
                "velocity": 101,
                "duration": 0.6045455,
                "tempo": 120.0
            },
            {
                "start_time": 11.875,
                "end_time": 12.475,
                "pitch": 58,
                "velocity": 101,
                "duration": 0.6,
                "tempo": 120.0
            },
            {
                "start_time": 12.475,
                "end_time": 12.8795455,
                "pitch": 57,
                "velocity": 101,
                "duration": 0.4045455,
                "tempo": 120.0
            },
            {
                "start_time": 12.8795455,
                "end_time": 13.4863636,
                "pitch": 56,
                "velocity": 101,
                "duration": 0.6068182,
                "tempo": 120.0
            },
            {
                "start_time": 13.4863636,
                "end_time": 14.0954545,
                "pitch": 55,
                "velocity": 101,
                "duration": 0.6090909,
                "tempo": 120.0
            },
            {
                "start_time": 10.8636364,
                "end_time": 14.0954545,
                "pitch": 66,
                "velocity": 101,
                "duration": 3.2318182,
                "tempo": 120.0
            },
            {
                "start_time": 14.0954545,
                "end_time": 14.5022727,
                "pitch": 54,
                "velocity": 101,
                "duration": 0.4068182,
                "tempo": 120.0
            },
            {
                "start_time": 14.5022727,
                "end_time": 14.7,
                "pitch": 64,
                "velocity": 101,
                "duration": 0.1977273,
                "tempo": 120.0
            },
            {
                "start_time": 14.0954545,
                "end_time": 14.9022727,
                "pitch": 66,
                "velocity": 101,
                "duration": 0.8068182,
                "tempo": 120.0
            },
            {
                "start_time": 14.7,
                "end_time": 14.9022727,
                "pitch": 66,
                "velocity": 101,
                "duration": 0.2022727,
                "tempo": 120.0
            },
            {
                "start_time": 14.9022727,
                "end_time": 15.1022727,
                "pitch": 67,
                "velocity": 101,
                "duration": 0.2,
                "tempo": 120.0
            },
            {
                "start_time": 15.1022727,
                "end_time": 16.1090909,
                "pitch": 69,
                "velocity": 101,
                "duration": 1.0068182,
                "tempo": 120.0
            },
            {
                "start_time": 16.1090909,
                "end_time": 16.3090909,
                "pitch": 62,
                "velocity": 101,
                "duration": 0.2,
                "tempo": 120.0
            },
            {
                "start_time": 16.3090909,
                "end_time": 16.3113636,
                "pitch": 64,
                "velocity": 101,
                "duration": 0.0022727,
                "tempo": 120.0
            },
            {
                "start_time": 16.3113636,
                "end_time": 16.5136364,
                "pitch": 64,
                "velocity": 101,
                "duration": 0.2022727,
                "tempo": 120.0
            },
            {
                "start_time": 16.5136364,
                "end_time": 16.7136364,
                "pitch": 66,
                "velocity": 101,
                "duration": 0.2,
                "tempo": 120.0
            },
            {
                "start_time": 16.7136364,
                "end_time": 17.7204545,
                "pitch": 67,
                "velocity": 101,
                "duration": 1.0068182,
                "tempo": 120.0
            },
            {
                "start_time": 7.0409091,
                "end_time": 17.7204545,
                "pitch": 76,
                "velocity": 101,
                "duration": 10.6795455,
                "tempo": 120.0
            },
            {
                "start_time": 17.7204545,
                "end_time": 17.925,
                "pitch": 60,
                "velocity": 101,
                "duration": 0.2045455,
                "tempo": 120.0
            },
            {
                "start_time": 17.925,
                "end_time": 18.1318182,
                "pitch": 62,
                "velocity": 101,
                "duration": 0.2068182,
                "tempo": 120.0
            },
            {
                "start_time": 18.1318182,
                "end_time": 18.3272727,
                "pitch": 64,
                "velocity": 101,
                "duration": 0.1954545,
                "tempo": 120.0
            },
            {
                "start_time": 18.1318182,
                "end_time": 18.3272727,
                "pitch": 64,
                "velocity": 101,
                "duration": 0.1954545,
                "tempo": 120.0
            },
            {
                "start_time": 18.3272727,
                "end_time": 19.3409091,
                "pitch": 66,
                "velocity": 101,
                "duration": 1.0136364,
                "tempo": 120.0
            },
            {
                "start_time": 19.5318182,
                "end_time": 19.7386364,
                "pitch": 66,
                "velocity": 80,
                "duration": 0.2068182,
                "tempo": 120.0
            },
            {
                "start_time": 19.7386364,
                "end_time": 19.9386364,
                "pitch": 66,
                "velocity": 80,
                "duration": 0.2,
                "tempo": 120.0
            },
            {
                "start_time": 19.9386364,
                "end_time": 20.1409091,
                "pitch": 66,
                "velocity": 80,
                "duration": 0.2022727,
                "tempo": 120.0
            },
            {
                "start_time": 20.1409091,
                "end_time": 20.4409091,
                "pitch": 67,
                "velocity": 80,
                "duration": 0.3,
                "tempo": 120.0
            },
            {
                "start_time": 20.4409091,
                "end_time": 20.7363636,
                "pitch": 69,
                "velocity": 80,
                "duration": 0.2954545,
                "tempo": 120.0
            },
            {
                "start_time": 20.7363636,
                "end_time": 20.7386364,
                "pitch": 71,
                "velocity": 80,
                "duration": 0.0022727,
                "tempo": 120.0
            },
            {
                "start_time": 20.7386364,
                "end_time": 20.9340909,
                "pitch": 71,
                "velocity": 80,
                "duration": 0.1954545,
                "tempo": 120.0
            },
            {
                "start_time": 7.8454545,
                "end_time": 20.9340909,
                "pitch": 78,
                "velocity": 101,
                "duration": 13.0886364,
                "tempo": 120.0
            },
            {
                "start_time": 20.9363636,
                "end_time": 21.1386364,
                "pitch": 64,
                "velocity": 101,
                "duration": 0.2022727,
                "tempo": 120.0
            },
            {
                "start_time": 21.1386364,
                "end_time": 21.3454545,
                "pitch": 66,
                "velocity": 101,
                "duration": 0.2068182,
                "tempo": 120.0
            },
            {
                "start_time": 21.3454545,
                "end_time": 21.5454545,
                "pitch": 67,
                "velocity": 101,
                "duration": 0.2,
                "tempo": 120.0
            },
            {
                "start_time": 21.5454545,
                "end_time": 22.55,
                "pitch": 69,
                "velocity": 101,
                "duration": 1.0045455,
                "tempo": 120.0
            },
            {
                "start_time": 16.1090909,
                "end_time": 22.55,
                "pitch": 77,
                "velocity": 101,
                "duration": 6.4409091,
                "tempo": 120.0
            },
            {
                "start_time": 22.55,
                "end_time": 22.75,
                "pitch": 62,
                "velocity": 101,
                "duration": 0.2,
                "tempo": 120.0
            },
            {
                "start_time": 22.75,
                "end_time": 22.95,
                "pitch": 64,
                "velocity": 101,
                "duration": 0.2,
                "tempo": 120.0
            },
            {
                "start_time": 22.75,
                "end_time": 22.95,
                "pitch": 64,
                "velocity": 101,
                "duration": 0.2,
                "tempo": 120.0
            },
            {
                "start_time": 22.95,
                "end_time": 23.1522727,
                "pitch": 66,
                "velocity": 101,
                "duration": 0.2022727,
                "tempo": 120.0
            },
            {
                "start_time": 23.1522727,
                "end_time": 24.1590909,
                "pitch": 67,
                "velocity": 101,
                "duration": 1.0068182,
                "tempo": 120.0
            },
            {
                "start_time": 17.7204545,
                "end_time": 24.1590909,
                "pitch": 76,
                "velocity": 101,
                "duration": 6.4386364,
                "tempo": 120.0
            },
            {
                "start_time": 24.1590909,
                "end_time": 24.3568182,
                "pitch": 60,
                "velocity": 101,
                "duration": 0.1977273,
                "tempo": 120.0
            },
            {
                "start_time": 24.3568182,
                "end_time": 24.5590909,
                "pitch": 62,
                "velocity": 101,
                "duration": 0.2022727,
                "tempo": 120.0
            },
            {
                "start_time": 24.5590909,
                "end_time": 24.7568182,
                "pitch": 64,
                "velocity": 101,
                "duration": 0.1977273,
                "tempo": 120.0
            },
            {
                "start_time": 24.5590909,
                "end_time": 24.7568182,
                "pitch": 64,
                "velocity": 101,
                "duration": 0.1977273,
                "tempo": 120.0
            },
            {
                "start_time": 24.7568182,
                "end_time": 25.7772727,
                "pitch": 66,
                "velocity": 101,
                "duration": 1.0204545,
                "tempo": 120.0
            },
            {
                "start_time": 25.9636364,
                "end_time": 26.1659091,
                "pitch": 66,
                "velocity": 80,
                "duration": 0.2022727,
                "tempo": 120.0
            },
            {
                "start_time": 26.1659091,
                "end_time": 26.3659091,
                "pitch": 67,
                "velocity": 80,
                "duration": 0.2,
                "tempo": 120.0
            },
            {
                "start_time": 26.3659091,
                "end_time": 26.5659091,
                "pitch": 69,
                "velocity": 80,
                "duration": 0.2,
                "tempo": 120.0
            },
            {
                "start_time": 24.1590909,
                "end_time": 26.5659091,
                "pitch": 76,
                "velocity": 101,
                "duration": 2.4068182,
                "tempo": 120.0
            },
            {
                "start_time": 26.5659091,
                "end_time": 26.8659091,
                "pitch": 72,
                "velocity": 80,
                "duration": 0.3,
                "tempo": 120.0
            },
            {
                "start_time": 26.8659091,
                "end_time": 27.1681818,
                "pitch": 71,
                "velocity": 80,
                "duration": 0.3022727,
                "tempo": 120.0
            },
            {
                "start_time": 27.1681818,
                "end_time": 27.3704545,
                "pitch": 69,
                "velocity": 80,
                "duration": 0.2022727,
                "tempo": 120.0
            },
            {
                "start_time": 27.1681818,
                "end_time": 27.3704545,
                "pitch": 69,
                "velocity": 80,
                "duration": 0.2022727,
                "tempo": 120.0
            },
            {
                "start_time": 27.3704545,
                "end_time": 27.9727273,
                "pitch": 59,
                "velocity": 101,
                "duration": 0.6022727,
                "tempo": 120.0
            },
            {
                "start_time": 27.9727273,
                "end_time": 28.9772727,
                "pitch": 57,
                "velocity": 101,
                "duration": 1.0045455,
                "tempo": 120.0
            },
            {
                "start_time": 27.9727273,
                "end_time": 28.9772727,
                "pitch": 57,
                "velocity": 101,
                "duration": 1.0045455,
                "tempo": 120.0
            },
            {
                "start_time": 28.9772727,
                "end_time": 29.1772727,
                "pitch": 55,
                "velocity": 101,
                "duration": 0.2,
                "tempo": 120.0
            },
            {
                "start_time": 28.9772727,
                "end_time": 29.1772727,
                "pitch": 55,
                "velocity": 101,
                "duration": 0.2,
                "tempo": 120.0
            },
            {
                "start_time": 29.1772727,
                "end_time": 29.3954545,
                "pitch": 55,
                "velocity": 101,
                "duration": 0.2181818,
                "tempo": 120.0
            },
            {
                "start_time": 11.2681818,
                "end_time": 30.5863636,
                "pitch": 32,
                "velocity": 101,
                "duration": 19.3181818,
                "tempo": 120.0
            },
            {
                "start_time": 29.5818182,
                "end_time": 30.5863636,
                "pitch": 54,
                "velocity": 101,
                "duration": 1.0045455,
                "tempo": 120.0
            },
            {
                "start_time": 30.5863636,
                "end_time": 31.1909091,
                "pitch": 59,
                "velocity": 101,
                "duration": 0.6045455,
                "tempo": 120.0
            },
            {
                "start_time": 31.1909091,
                "end_time": 31.1931818,
                "pitch": 57,
                "velocity": 101,
                "duration": 0.0022727,
                "tempo": 120.0
            },
            {
                "start_time": 31.1931818,
                "end_time": 32.2,
                "pitch": 57,
                "velocity": 101,
                "duration": 1.0068182,
                "tempo": 120.0
            },
            {
                "start_time": 32.2,
                "end_time": 32.3954545,
                "pitch": 55,
                "velocity": 101,
                "duration": 0.1954545,
                "tempo": 120.0
            },
            {
                "start_time": 32.2,
                "end_time": 32.3954545,
                "pitch": 55,
                "velocity": 101,
                "duration": 0.1954545,
                "tempo": 120.0
            },
            {
                "start_time": 32.3954545,
                "end_time": 32.6068182,
                "pitch": 55,
                "velocity": 101,
                "duration": 0.2113636,
                "tempo": 120.0
            },
            {
                "start_time": 32.7977273,
                "end_time": 33.8227273,
                "pitch": 54,
                "velocity": 101,
                "duration": 1.025,
                "tempo": 120.0
            },
            {
                "start_time": 26.5659091,
                "end_time": 34.2181818,
                "pitch": 76,
                "velocity": 80,
                "duration": 7.6522727,
                "tempo": 120.0
            },
            {
                "start_time": 34.0136364,
                "end_time": 34.2181818,
                "pitch": 76,
                "velocity": 101,
                "duration": 0.2045455,
                "tempo": 120.0
            },
            {
                "start_time": 34.2181818,
                "end_time": 34.4159091,
                "pitch": 76,
                "velocity": 101,
                "duration": 0.1977273,
                "tempo": 120.0
            },
            {
                "start_time": 34.4159091,
                "end_time": 34.6113636,
                "pitch": 76,
                "velocity": 101,
                "duration": 0.1954545,
                "tempo": 120.0
            },
            {
                "start_time": 20.9340909,
                "end_time": 34.9136364,
                "pitch": 78,
                "velocity": 80,
                "duration": 13.9795455,
                "tempo": 120.0
            },
            {
                "start_time": 34.6113636,
                "end_time": 34.9136364,
                "pitch": 78,
                "velocity": 101,
                "duration": 0.3022727,
                "tempo": 120.0
            },
            {
                "start_time": 34.9136364,
                "end_time": 35.2159091,
                "pitch": 79,
                "velocity": 101,
                "duration": 0.3022727,
                "tempo": 120.0
            },
            {
                "start_time": 35.2159091,
                "end_time": 35.4295455,
                "pitch": 81,
                "velocity": 101,
                "duration": 0.2136364,
                "tempo": 120.0
            },
            {
                "start_time": 35.6204545,
                "end_time": 35.8272727,
                "pitch": 74,
                "velocity": 101,
                "duration": 0.2068182,
                "tempo": 120.0
            },
            {
                "start_time": 35.8272727,
                "end_time": 36.0227273,
                "pitch": 74,
                "velocity": 101,
                "duration": 0.1954545,
                "tempo": 120.0
            },
            {
                "start_time": 36.0227273,
                "end_time": 36.2204545,
                "pitch": 74,
                "velocity": 101,
                "duration": 0.1977273,
                "tempo": 120.0
            },
            {
                "start_time": 36.2204545,
                "end_time": 36.5204545,
                "pitch": 76,
                "velocity": 101,
                "duration": 0.3,
                "tempo": 120.0
            },
            {
                "start_time": 36.2204545,
                "end_time": 36.5204545,
                "pitch": 76,
                "velocity": 101,
                "duration": 0.3,
                "tempo": 120.0
            },
            {
                "start_time": 36.5204545,
                "end_time": 36.8204545,
                "pitch": 78,
                "velocity": 101,
                "duration": 0.3,
                "tempo": 120.0
            },
            {
                "start_time": 36.8204545,
                "end_time": 37.0386364,
                "pitch": 79,
                "velocity": 101,
                "duration": 0.2181818,
                "tempo": 120.0
            },
            {
                "start_time": 37.2295455,
                "end_time": 37.4340909,
                "pitch": 72,
                "velocity": 101,
                "duration": 0.2045455,
                "tempo": 120.0
            },
            {
                "start_time": 37.4340909,
                "end_time": 37.6340909,
                "pitch": 72,
                "velocity": 101,
                "duration": 0.2,
                "tempo": 120.0
            },
            {
                "start_time": 37.6340909,
                "end_time": 37.8363636,
                "pitch": 72,
                "velocity": 101,
                "duration": 0.2022727,
                "tempo": 120.0
            },
            {
                "start_time": 37.8363636,
                "end_time": 38.1340909,
                "pitch": 74,
                "velocity": 101,
                "duration": 0.2977273,
                "tempo": 120.0
            },
            {
                "start_time": 38.1340909,
                "end_time": 38.1363636,
                "pitch": 76,
                "velocity": 101,
                "duration": 0.0022727,
                "tempo": 120.0
            },
            {
                "start_time": 38.1363636,
                "end_time": 38.4363636,
                "pitch": 76,
                "velocity": 101,
                "duration": 0.3,
                "tempo": 120.0
            },
            {
                "start_time": 38.4363636,
                "end_time": 38.6386364,
                "pitch": 78,
                "velocity": 101,
                "duration": 0.2022727,
                "tempo": 120.0
            },
            {
                "start_time": 38.6386364,
                "end_time": 38.9386364,
                "pitch": 70,
                "velocity": 101,
                "duration": 0.3,
                "tempo": 120.0
            },
            {
                "start_time": 27.3704545,
                "end_time": 39.2386364,
                "pitch": 71,
                "velocity": 80,
                "duration": 11.8681818,
                "tempo": 120.0
            },
            {
                "start_time": 38.9386364,
                "end_time": 39.2386364,
                "pitch": 71,
                "velocity": 101,
                "duration": 0.3,
                "tempo": 120.0
            },
            {
                "start_time": 39.2386364,
                "end_time": 39.4409091,
                "pitch": 73,
                "velocity": 101,
                "duration": 0.2022727,
                "tempo": 120.0
            },
            {
                "start_time": 39.2386364,
                "end_time": 39.4409091,
                "pitch": 76,
                "velocity": 101,
                "duration": 0.2022727,
                "tempo": 120.0
            },
            {
                "start_time": 39.4409091,
                "end_time": 39.7409091,
                "pitch": 76,
                "velocity": 101,
                "duration": 0.3,
                "tempo": 120.0
            },
            {
                "start_time": 39.4409091,
                "end_time": 39.7409091,
                "pitch": 76,
                "velocity": 101,
                "duration": 0.3,
                "tempo": 120.0
            },
            {
                "start_time": 39.7409091,
                "end_time": 40.0409091,
                "pitch": 74,
                "velocity": 101,
                "duration": 0.3,
                "tempo": 120.0
            },
            {
                "start_time": 39.7409091,
                "end_time": 40.0409091,
                "pitch": 74,
                "velocity": 101,
                "duration": 0.3,
                "tempo": 120.0
            },
            {
                "start_time": 40.0409091,
                "end_time": 40.2545455,
                "pitch": 73,
                "velocity": 101,
                "duration": 0.2136364,
                "tempo": 120.0
            },
            {
                "start_time": 40.4431818,
                "end_time": 40.6431818,
                "pitch": 76,
                "velocity": 101,
                "duration": 0.2,
                "tempo": 120.0
            },
            {
                "start_time": 40.6431818,
                "end_time": 40.8431818,
                "pitch": 76,
                "velocity": 101,
                "duration": 0.2,
                "tempo": 120.0
            },
            {
                "start_time": 40.8431818,
                "end_time": 41.0454545,
                "pitch": 76,
                "velocity": 101,
                "duration": 0.2022727,
                "tempo": 120.0
            },
            {
                "start_time": 41.0454545,
                "end_time": 41.3454545,
                "pitch": 78,
                "velocity": 101,
                "duration": 0.3,
                "tempo": 120.0
            },
            {
                "start_time": 41.3454545,
                "end_time": 41.6454545,
                "pitch": 79,
                "velocity": 101,
                "duration": 0.3,
                "tempo": 120.0
            },
            {
                "start_time": 41.6454545,
                "end_time": 41.8590909,
                "pitch": 81,
                "velocity": 101,
                "duration": 0.2136364,
                "tempo": 120.0
            },
            {
                "start_time": 42.0454545,
                "end_time": 42.2454545,
                "pitch": 74,
                "velocity": 101,
                "duration": 0.2,
                "tempo": 120.0
            },
            {
                "start_time": 42.2454545,
                "end_time": 42.4477273,
                "pitch": 74,
                "velocity": 101,
                "duration": 0.2022727,
                "tempo": 120.0
            },
            {
                "start_time": 42.4477273,
                "end_time": 42.65,
                "pitch": 74,
                "velocity": 101,
                "duration": 0.2022727,
                "tempo": 120.0
            },
            {
                "start_time": 42.65,
                "end_time": 42.95,
                "pitch": 76,
                "velocity": 101,
                "duration": 0.3,
                "tempo": 120.0
            },
            {
                "start_time": 42.65,
                "end_time": 42.95,
                "pitch": 76,
                "velocity": 101,
                "duration": 0.3,
                "tempo": 120.0
            },
            {
                "start_time": 42.95,
                "end_time": 43.25,
                "pitch": 78,
                "velocity": 101,
                "duration": 0.3,
                "tempo": 120.0
            },
            {
                "start_time": 43.25,
                "end_time": 43.4659091,
                "pitch": 79,
                "velocity": 101,
                "duration": 0.2159091,
                "tempo": 120.0
            },
            {
                "start_time": 43.6568182,
                "end_time": 43.8613636,
                "pitch": 72,
                "velocity": 101,
                "duration": 0.2045455,
                "tempo": 120.0
            },
            {
                "start_time": 43.8613636,
                "end_time": 44.0636364,
                "pitch": 72,
                "velocity": 101,
                "duration": 0.2022727,
                "tempo": 120.0
            },
            {
                "start_time": 44.0636364,
                "end_time": 44.2659091,
                "pitch": 72,
                "velocity": 101,
                "duration": 0.2022727,
                "tempo": 120.0
            },
            {
                "start_time": 44.2659091,
                "end_time": 44.5659091,
                "pitch": 74,
                "velocity": 101,
                "duration": 0.3,
                "tempo": 120.0
            },
            {
                "start_time": 44.5659091,
                "end_time": 44.8613636,
                "pitch": 76,
                "velocity": 101,
                "duration": 0.2954545,
                "tempo": 120.0
            },
            {
                "start_time": 44.5659091,
                "end_time": 44.8613636,
                "pitch": 76,
                "velocity": 101,
                "duration": 0.2954545,
                "tempo": 120.0
            },
            {
                "start_time": 38.6386364,
                "end_time": 45.0590909,
                "pitch": 51,
                "velocity": 101,
                "duration": 6.4204545,
                "tempo": 120.0
            },
            {
                "start_time": 44.8613636,
                "end_time": 45.0590909,
                "pitch": 78,
                "velocity": 101,
                "duration": 0.1977273,
                "tempo": 120.0
            },
            {
                "start_time": 45.0590909,
                "end_time": 45.3659091,
                "pitch": 70,
                "velocity": 101,
                "duration": 0.3068182,
                "tempo": 120.0
            },
            {
                "start_time": 45.3659091,
                "end_time": 45.6659091,
                "pitch": 71,
                "velocity": 101,
                "duration": 0.3,
                "tempo": 120.0
            },
            {
                "start_time": 45.6659091,
                "end_time": 45.8613636,
                "pitch": 73,
                "velocity": 101,
                "duration": 0.1954545,
                "tempo": 120.0
            },
            {
                "start_time": 45.6659091,
                "end_time": 45.8613636,
                "pitch": 76,
                "velocity": 101,
                "duration": 0.1954545,
                "tempo": 120.0
            },
            {
                "start_time": 45.8613636,
                "end_time": 46.1704545,
                "pitch": 76,
                "velocity": 101,
                "duration": 0.3090909,
                "tempo": 120.0
            },
            {
                "start_time": 45.8613636,
                "end_time": 46.1704545,
                "pitch": 76,
                "velocity": 101,
                "duration": 0.3090909,
                "tempo": 120.0
            },
            {
                "start_time": 46.1704545,
                "end_time": 46.4727273,
                "pitch": 74,
                "velocity": 101,
                "duration": 0.3022727,
                "tempo": 120.0
            },
            {
                "start_time": 46.1704545,
                "end_time": 46.4727273,
                "pitch": 74,
                "velocity": 101,
                "duration": 0.3022727,
                "tempo": 120.0
            },
            {
                "start_time": 26.8659091,
                "end_time": 46.6795455,
                "pitch": 56,
                "velocity": 80,
                "duration": 19.8136364,
                "tempo": 120.0
            },
            {
                "start_time": 46.4727273,
                "end_time": 46.6795455,
                "pitch": 73,
                "velocity": 101,
                "duration": 0.2068182,
                "tempo": 120.0
            },
            {
                "start_time": 46.6795455,
                "end_time": 47.2818182,
                "pitch": 59,
                "velocity": 101,
                "duration": 0.6022727,
                "tempo": 120.0
            },
            {
                "start_time": 47.2818182,
                "end_time": 47.8795455,
                "pitch": 58,
                "velocity": 101,
                "duration": 0.5977273,
                "tempo": 120.0
            },
            {
                "start_time": 47.8795455,
                "end_time": 48.2818182,
                "pitch": 57,
                "velocity": 101,
                "duration": 0.4022727,
                "tempo": 120.0
            },
            {
                "start_time": 46.6795455,
                "end_time": 48.8818182,
                "pitch": 56,
                "velocity": 101,
                "duration": 2.2022727,
                "tempo": 120.0
            },
            {
                "start_time": 48.2818182,
                "end_time": 48.8818182,
                "pitch": 56,
                "velocity": 101,
                "duration": 0.6,
                "tempo": 120.0
            },
            {
                "start_time": 48.8818182,
                "end_time": 49.4840909,
                "pitch": 55,
                "velocity": 101,
                "duration": 0.6022727,
                "tempo": 120.0
            },
            {
                "start_time": 30.5863636,
                "end_time": 49.8863636,
                "pitch": 32,
                "velocity": 101,
                "duration": 19.3,
                "tempo": 120.0
            },
            {
                "start_time": 49.4840909,
                "end_time": 49.8863636,
                "pitch": 54,
                "velocity": 101,
                "duration": 0.4022727,
                "tempo": 120.0
            },
            {
                "start_time": 49.8863636,
                "end_time": 50.4909091,
                "pitch": 59,
                "velocity": 101,
                "duration": 0.6045455,
                "tempo": 120.0
            },
            {
                "start_time": 50.4909091,
                "end_time": 51.0886364,
                "pitch": 58,
                "velocity": 101,
                "duration": 0.5977273,
                "tempo": 120.0
            },
            {
                "start_time": 51.0886364,
                "end_time": 51.4886364,
                "pitch": 57,
                "velocity": 101,
                "duration": 0.4,
                "tempo": 120.0
            },
            {
                "start_time": 51.4886364,
                "end_time": 52.1,
                "pitch": 56,
                "velocity": 101,
                "duration": 0.6113636,
                "tempo": 120.0
            },
            {
                "start_time": 52.1,
                "end_time": 52.7022727,
                "pitch": 55,
                "velocity": 101,
                "duration": 0.6022727,
                "tempo": 120.0
            },
            {
                "start_time": 49.4840909,
                "end_time": 52.7022727,
                "pitch": 66,
                "velocity": 101,
                "duration": 3.2181818,
                "tempo": 120.0
            },
            {
                "start_time": 52.7022727,
                "end_time": 53.0,
                "pitch": 54,
                "velocity": 101,
                "duration": 0.2977273,
                "tempo": 120.0
            }
        ],
        "Electric Guitar (clean)": [
            {
                "start_time": 0.0045455,
                "end_time": 0.5977273,
                "pitch": 40,
                "velocity": 127,
                "duration": 0.5931818,
                "tempo": 120.0
            },
            {
                "start_time": 0.5977273,
                "end_time": 1.4,
                "pitch": 38,
                "velocity": 127,
                "duration": 0.8022727,
                "tempo": 120.0
            },
            {
                "start_time": 0.5977273,
                "end_time": 1.4,
                "pitch": 38,
                "velocity": 127,
                "duration": 0.8022727,
                "tempo": 120.0
            },
            {
                "start_time": 1.4,
                "end_time": 3.0,
                "pitch": 36,
                "velocity": 127,
                "duration": 1.6,
                "tempo": 120.0
            },
            {
                "start_time": 1.4,
                "end_time": 3.0,
                "pitch": 36,
                "velocity": 127,
                "duration": 1.6,
                "tempo": 120.0
            },
            {
                "start_time": 3.0,
                "end_time": 4.8181818,
                "pitch": 35,
                "velocity": 127,
                "duration": 1.8181818,
                "tempo": 120.0
            },
            {
                "start_time": 4.8181818,
                "end_time": 5.2340909,
                "pitch": 40,
                "velocity": 127,
                "duration": 0.4159091,
                "tempo": 120.0
            },
            {
                "start_time": 5.2340909,
                "end_time": 5.6340909,
                "pitch": 40,
                "velocity": 127,
                "duration": 0.4,
                "tempo": 120.0
            },
            {
                "start_time": 5.6340909,
                "end_time": 6.0340909,
                "pitch": 38,
                "velocity": 127,
                "duration": 0.4,
                "tempo": 120.0
            },
            {
                "start_time": 5.6340909,
                "end_time": 6.0340909,
                "pitch": 38,
                "velocity": 127,
                "duration": 0.4,
                "tempo": 120.0
            },
            {
                "start_time": 6.0340909,
                "end_time": 6.4386364,
                "pitch": 38,
                "velocity": 127,
                "duration": 0.4045455,
                "tempo": 120.0
            },
            {
                "start_time": 6.4386364,
                "end_time": 6.8386364,
                "pitch": 36,
                "velocity": 127,
                "duration": 0.4,
                "tempo": 120.0
            },
            {
                "start_time": 6.4386364,
                "end_time": 6.8386364,
                "pitch": 36,
                "velocity": 127,
                "duration": 0.4,
                "tempo": 120.0
            },
            {
                "start_time": 3.0,
                "end_time": 7.2409091,
                "pitch": 19,
                "velocity": 127,
                "duration": 4.2409091,
                "tempo": 120.0
            },
            {
                "start_time": 6.8386364,
                "end_time": 7.2409091,
                "pitch": 36,
                "velocity": 127,
                "duration": 0.4022727,
                "tempo": 120.0
            },
            {
                "start_time": 7.2409091,
                "end_time": 7.6454545,
                "pitch": 35,
                "velocity": 127,
                "duration": 0.4045455,
                "tempo": 120.0
            },
            {
                "start_time": 7.6454545,
                "end_time": 14.5,
                "pitch": 35,
                "velocity": 127,
                "duration": 6.8545455,
                "tempo": 120.0
            },
            {
                "start_time": 4.8181818,
                "end_time": 14.5,
                "pitch": 42,
                "velocity": 127,
                "duration": 9.6818182,
                "tempo": 120.0
            },
            {
                "start_time": 14.5,
                "end_time": 14.6818182,
                "pitch": 40,
                "velocity": 127,
                "duration": 0.1818182,
                "tempo": 120.0
            },
            {
                "start_time": 14.7,
                "end_time": 14.7818182,
                "pitch": 40,
                "velocity": 101,
                "duration": 0.0818182,
                "tempo": 120.0
            },
            {
                "start_time": 14.8,
                "end_time": 14.8818182,
                "pitch": 40,
                "velocity": 101,
                "duration": 0.0818182,
                "tempo": 120.0
            },
            {
                "start_time": 14.9022727,
                "end_time": 15.0840909,
                "pitch": 40,
                "velocity": 127,
                "duration": 0.1818182,
                "tempo": 120.0
            },
            {
                "start_time": 15.1022727,
                "end_time": 15.1840909,
                "pitch": 40,
                "velocity": 101,
                "duration": 0.0818182,
                "tempo": 120.0
            },
            {
                "start_time": 15.2022727,
                "end_time": 15.2863636,
                "pitch": 40,
                "velocity": 101,
                "duration": 0.0840909,
                "tempo": 120.0
            },
            {
                "start_time": 15.3045455,
                "end_time": 15.4863636,
                "pitch": 40,
                "velocity": 127,
                "duration": 0.1818182,
                "tempo": 120.0
            },
            {
                "start_time": 15.5045455,
                "end_time": 15.5863636,
                "pitch": 40,
                "velocity": 101,
                "duration": 0.0818182,
                "tempo": 120.0
            },
            {
                "start_time": 15.6045455,
                "end_time": 15.6863636,
                "pitch": 40,
                "velocity": 101,
                "duration": 0.0818182,
                "tempo": 120.0
            },
            {
                "start_time": 15.7045455,
                "end_time": 15.8886364,
                "pitch": 40,
                "velocity": 127,
                "duration": 0.1840909,
                "tempo": 120.0
            },
            {
                "start_time": 15.9045455,
                "end_time": 15.9886364,
                "pitch": 40,
                "velocity": 101,
                "duration": 0.0840909,
                "tempo": 120.0
            },
            {
                "start_time": 16.0068182,
                "end_time": 16.0886364,
                "pitch": 40,
                "velocity": 101,
                "duration": 0.0818182,
                "tempo": 120.0
            },
            {
                "start_time": 16.1090909,
                "end_time": 16.2909091,
                "pitch": 38,
                "velocity": 127,
                "duration": 0.1818182,
                "tempo": 120.0
            },
            {
                "start_time": 16.3090909,
                "end_time": 16.3909091,
                "pitch": 38,
                "velocity": 101,
                "duration": 0.0818182,
                "tempo": 120.0
            },
            {
                "start_time": 16.4090909,
                "end_time": 16.4931818,
                "pitch": 38,
                "velocity": 101,
                "duration": 0.0840909,
                "tempo": 120.0
            },
            {
                "start_time": 16.5113636,
                "end_time": 16.6954545,
                "pitch": 38,
                "velocity": 127,
                "duration": 0.1840909,
                "tempo": 120.0
            },
            {
                "start_time": 16.7136364,
                "end_time": 16.7954545,
                "pitch": 38,
                "velocity": 101,
                "duration": 0.0818182,
                "tempo": 120.0
            },
            {
                "start_time": 16.8136364,
                "end_time": 16.8954545,
                "pitch": 38,
                "velocity": 101,
                "duration": 0.0818182,
                "tempo": 120.0
            },
            {
                "start_time": 16.9159091,
                "end_time": 17.0977273,
                "pitch": 38,
                "velocity": 127,
                "duration": 0.1818182,
                "tempo": 120.0
            },
            {
                "start_time": 17.1159091,
                "end_time": 17.1977273,
                "pitch": 38,
                "velocity": 101,
                "duration": 0.0818182,
                "tempo": 120.0
            },
            {
                "start_time": 17.2159091,
                "end_time": 17.3,
                "pitch": 38,
                "velocity": 101,
                "duration": 0.0840909,
                "tempo": 120.0
            },
            {
                "start_time": 17.3181818,
                "end_time": 17.5,
                "pitch": 38,
                "velocity": 127,
                "duration": 0.1818182,
                "tempo": 120.0
            },
            {
                "start_time": 17.5159091,
                "end_time": 17.6,
                "pitch": 38,
                "velocity": 101,
                "duration": 0.0840909,
                "tempo": 120.0
            },
            {
                "start_time": 17.6159091,
                "end_time": 17.7,
                "pitch": 38,
                "velocity": 101,
                "duration": 0.0840909,
                "tempo": 120.0
            },
            {
                "start_time": 17.7181818,
                "end_time": 17.9045455,
                "pitch": 36,
                "velocity": 127,
                "duration": 0.1863636,
                "tempo": 120.0
            },
            {
                "start_time": 17.9227273,
                "end_time": 18.0068182,
                "pitch": 36,
                "velocity": 101,
                "duration": 0.0840909,
                "tempo": 120.0
            },
            {
                "start_time": 18.025,
                "end_time": 18.1113636,
                "pitch": 36,
                "velocity": 101,
                "duration": 0.0863636,
                "tempo": 120.0
            },
            {
                "start_time": 18.1295455,
                "end_time": 18.3068182,
                "pitch": 36,
                "velocity": 127,
                "duration": 0.1772727,
                "tempo": 120.0
            },
            {
                "start_time": 18.325,
                "end_time": 18.4068182,
                "pitch": 36,
                "velocity": 101,
                "duration": 0.0818182,
                "tempo": 120.0
            },
            {
                "start_time": 18.4227273,
                "end_time": 18.5045455,
                "pitch": 36,
                "velocity": 101,
                "duration": 0.0818182,
                "tempo": 120.0
            },
            {
                "start_time": 18.5227273,
                "end_time": 18.7090909,
                "pitch": 36,
                "velocity": 127,
                "duration": 0.1863636,
                "tempo": 120.0
            },
            {
                "start_time": 18.7272727,
                "end_time": 18.8113636,
                "pitch": 36,
                "velocity": 101,
                "duration": 0.0840909,
                "tempo": 120.0
            },
            {
                "start_time": 18.8295455,
                "end_time": 18.9136364,
                "pitch": 36,
                "velocity": 101,
                "duration": 0.0840909,
                "tempo": 120.0
            },
            {
                "start_time": 18.9318182,
                "end_time": 19.1113636,
                "pitch": 36,
                "velocity": 127,
                "duration": 0.1795455,
                "tempo": 120.0
            },
            {
                "start_time": 19.1272727,
                "end_time": 19.2090909,
                "pitch": 36,
                "velocity": 101,
                "duration": 0.0818182,
                "tempo": 120.0
            },
            {
                "start_time": 19.2272727,
                "end_time": 19.3068182,
                "pitch": 36,
                "velocity": 101,
                "duration": 0.0795455,
                "tempo": 120.0
            },
            {
                "start_time": 19.3272727,
                "end_time": 19.5113636,
                "pitch": 35,
                "velocity": 127,
                "duration": 0.1840909,
                "tempo": 120.0
            },
            {
                "start_time": 19.5318182,
                "end_time": 19.6159091,
                "pitch": 35,
                "velocity": 101,
                "duration": 0.0840909,
                "tempo": 120.0
            },
            {
                "start_time": 19.6318182,
                "end_time": 19.7181818,
                "pitch": 35,
                "velocity": 101,
                "duration": 0.0863636,
                "tempo": 120.0
            },
            {
                "start_time": 19.7363636,
                "end_time": 19.9204545,
                "pitch": 35,
                "velocity": 127,
                "duration": 0.1840909,
                "tempo": 120.0
            },
            {
                "start_time": 19.9386364,
                "end_time": 20.0204545,
                "pitch": 35,
                "velocity": 101,
                "duration": 0.0818182,
                "tempo": 120.0
            },
            {
                "start_time": 20.0386364,
                "end_time": 20.1227273,
                "pitch": 35,
                "velocity": 101,
                "duration": 0.0840909,
                "tempo": 120.0
            },
            {
                "start_time": 20.1409091,
                "end_time": 20.2227273,
                "pitch": 35,
                "velocity": 101,
                "duration": 0.0818182,
                "tempo": 120.0
            },
            {
                "start_time": 20.2386364,
                "end_time": 20.3227273,
                "pitch": 35,
                "velocity": 101,
                "duration": 0.0840909,
                "tempo": 120.0
            },
            {
                "start_time": 20.3386364,
                "end_time": 20.4227273,
                "pitch": 35,
                "velocity": 101,
                "duration": 0.0840909,
                "tempo": 120.0
            },
            {
                "start_time": 20.4409091,
                "end_time": 20.5227273,
                "pitch": 35,
                "velocity": 101,
                "duration": 0.0818182,
                "tempo": 120.0
            },
            {
                "start_time": 20.5386364,
                "end_time": 20.6204545,
                "pitch": 36,
                "velocity": 101,
                "duration": 0.0818182,
                "tempo": 120.0
            },
            {
                "start_time": 20.6386364,
                "end_time": 20.7181818,
                "pitch": 36,
                "velocity": 101,
                "duration": 0.0795455,
                "tempo": 120.0
            },
            {
                "start_time": 20.7363636,
                "end_time": 20.8181818,
                "pitch": 38,
                "velocity": 101,
                "duration": 0.0818182,
                "tempo": 120.0
            },
            {
                "start_time": 20.8340909,
                "end_time": 20.9159091,
                "pitch": 38,
                "velocity": 101,
                "duration": 0.0818182,
                "tempo": 120.0
            },
            {
                "start_time": 20.9340909,
                "end_time": 21.1204545,
                "pitch": 40,
                "velocity": 127,
                "duration": 0.1863636,
                "tempo": 120.0
            },
            {
                "start_time": 21.1386364,
                "end_time": 21.2227273,
                "pitch": 40,
                "velocity": 101,
                "duration": 0.0840909,
                "tempo": 120.0
            },
            {
                "start_time": 21.2409091,
                "end_time": 21.325,
                "pitch": 40,
                "velocity": 101,
                "duration": 0.0840909,
                "tempo": 120.0
            },
            {
                "start_time": 21.3454545,
                "end_time": 21.5272727,
                "pitch": 40,
                "velocity": 127,
                "duration": 0.1818182,
                "tempo": 120.0
            },
            {
                "start_time": 21.5454545,
                "end_time": 21.6272727,
                "pitch": 40,
                "velocity": 101,
                "duration": 0.0818182,
                "tempo": 120.0
            },
            {
                "start_time": 21.6431818,
                "end_time": 21.7272727,
                "pitch": 40,
                "velocity": 101,
                "duration": 0.0840909,
                "tempo": 120.0
            },
            {
                "start_time": 21.7454545,
                "end_time": 21.9272727,
                "pitch": 40,
                "velocity": 127,
                "duration": 0.1818182,
                "tempo": 120.0
            },
            {
                "start_time": 21.9454545,
                "end_time": 22.0295455,
                "pitch": 40,
                "velocity": 101,
                "duration": 0.0840909,
                "tempo": 120.0
            },
            {
                "start_time": 22.0454545,
                "end_time": 22.1295455,
                "pitch": 40,
                "velocity": 101,
                "duration": 0.0840909,
                "tempo": 120.0
            },
            {
                "start_time": 22.1477273,
                "end_time": 22.3295455,
                "pitch": 40,
                "velocity": 127,
                "duration": 0.1818182,
                "tempo": 120.0
            },
            {
                "start_time": 22.3477273,
                "end_time": 22.4295455,
                "pitch": 40,
                "velocity": 101,
                "duration": 0.0818182,
                "tempo": 120.0
            },
            {
                "start_time": 22.4477273,
                "end_time": 22.5295455,
                "pitch": 40,
                "velocity": 101,
                "duration": 0.0818182,
                "tempo": 120.0
            },
            {
                "start_time": 22.55,
                "end_time": 22.7318182,
                "pitch": 38,
                "velocity": 127,
                "duration": 0.1818182,
                "tempo": 120.0
            },
            {
                "start_time": 22.75,
                "end_time": 22.8318182,
                "pitch": 38,
                "velocity": 101,
                "duration": 0.0818182,
                "tempo": 120.0
            },
            {
                "start_time": 22.8477273,
                "end_time": 22.9318182,
                "pitch": 38,
                "velocity": 101,
                "duration": 0.0840909,
                "tempo": 120.0
            },
            {
                "start_time": 22.95,
                "end_time": 23.1318182,
                "pitch": 38,
                "velocity": 127,
                "duration": 0.1818182,
                "tempo": 120.0
            },
            {
                "start_time": 23.15,
                "end_time": 23.2340909,
                "pitch": 38,
                "velocity": 101,
                "duration": 0.0840909,
                "tempo": 120.0
            },
            {
                "start_time": 23.25,
                "end_time": 23.3340909,
                "pitch": 38,
                "velocity": 101,
                "duration": 0.0840909,
                "tempo": 120.0
            },
            {
                "start_time": 23.3522727,
                "end_time": 23.5340909,
                "pitch": 38,
                "velocity": 127,
                "duration": 0.1818182,
                "tempo": 120.0
            },
            {
                "start_time": 23.5522727,
                "end_time": 23.6340909,
                "pitch": 38,
                "velocity": 101,
                "duration": 0.0818182,
                "tempo": 120.0
            },
            {
                "start_time": 23.6522727,
                "end_time": 23.7340909,
                "pitch": 38,
                "velocity": 101,
                "duration": 0.0818182,
                "tempo": 120.0
            },
            {
                "start_time": 23.7522727,
                "end_time": 23.9363636,
                "pitch": 38,
                "velocity": 127,
                "duration": 0.1840909,
                "tempo": 120.0
            },
            {
                "start_time": 23.9545455,
                "end_time": 24.0363636,
                "pitch": 38,
                "velocity": 101,
                "duration": 0.0818182,
                "tempo": 120.0
            },
            {
                "start_time": 24.0545455,
                "end_time": 24.1386364,
                "pitch": 38,
                "velocity": 101,
                "duration": 0.0840909,
                "tempo": 120.0
            },
            {
                "start_time": 24.1568182,
                "end_time": 24.3386364,
                "pitch": 36,
                "velocity": 127,
                "duration": 0.1818182,
                "tempo": 120.0
            },
            {
                "start_time": 24.3568182,
                "end_time": 24.4386364,
                "pitch": 36,
                "velocity": 101,
                "duration": 0.0818182,
                "tempo": 120.0
            },
            {
                "start_time": 24.4545455,
                "end_time": 24.5386364,
                "pitch": 36,
                "velocity": 101,
                "duration": 0.0840909,
                "tempo": 120.0
            },
            {
                "start_time": 24.5568182,
                "end_time": 24.7386364,
                "pitch": 36,
                "velocity": 127,
                "duration": 0.1818182,
                "tempo": 120.0
            },
            {
                "start_time": 24.7568182,
                "end_time": 24.8386364,
                "pitch": 36,
                "velocity": 101,
                "duration": 0.0818182,
                "tempo": 120.0
            },
            {
                "start_time": 24.8568182,
                "end_time": 24.9386364,
                "pitch": 36,
                "velocity": 101,
                "duration": 0.0818182,
                "tempo": 120.0
            },
            {
                "start_time": 24.9568182,
                "end_time": 25.1409091,
                "pitch": 36,
                "velocity": 127,
                "duration": 0.1840909,
                "tempo": 120.0
            },
            {
                "start_time": 25.1568182,
                "end_time": 25.2409091,
                "pitch": 36,
                "velocity": 101,
                "duration": 0.0840909,
                "tempo": 120.0
            },
            {
                "start_time": 25.2590909,
                "end_time": 25.3431818,
                "pitch": 36,
                "velocity": 101,
                "duration": 0.0840909,
                "tempo": 120.0
            },
            {
                "start_time": 25.3613636,
                "end_time": 25.5431818,
                "pitch": 36,
                "velocity": 127,
                "duration": 0.1818182,
                "tempo": 120.0
            },
            {
                "start_time": 25.5590909,
                "end_time": 25.6431818,
                "pitch": 36,
                "velocity": 101,
                "duration": 0.0840909,
                "tempo": 120.0
            },
            {
                "start_time": 25.6590909,
                "end_time": 25.7431818,
                "pitch": 36,
                "velocity": 101,
                "duration": 0.0840909,
                "tempo": 120.0
            },
            {
                "start_time": 25.7613636,
                "end_time": 25.9431818,
                "pitch": 35,
                "velocity": 127,
                "duration": 0.1818182,
                "tempo": 120.0
            },
            {
                "start_time": 25.9613636,
                "end_time": 26.0454545,
                "pitch": 35,
                "velocity": 101,
                "duration": 0.0840909,
                "tempo": 120.0
            },
            {
                "start_time": 26.0613636,
                "end_time": 26.1454545,
                "pitch": 35,
                "velocity": 101,
                "duration": 0.0840909,
                "tempo": 120.0
            },
            {
                "start_time": 26.1659091,
                "end_time": 26.3454545,
                "pitch": 35,
                "velocity": 127,
                "duration": 0.1795455,
                "tempo": 120.0
            },
            {
                "start_time": 26.3636364,
                "end_time": 26.4454545,
                "pitch": 35,
                "velocity": 101,
                "duration": 0.0818182,
                "tempo": 120.0
            },
            {
                "start_time": 26.4636364,
                "end_time": 26.5454545,
                "pitch": 35,
                "velocity": 101,
                "duration": 0.0818182,
                "tempo": 120.0
            },
            {
                "start_time": 26.5659091,
                "end_time": 26.6477273,
                "pitch": 35,
                "velocity": 101,
                "duration": 0.0818182,
                "tempo": 120.0
            },
            {
                "start_time": 26.6636364,
                "end_time": 26.7477273,
                "pitch": 35,
                "velocity": 101,
                "duration": 0.0840909,
                "tempo": 120.0
            },
            {
                "start_time": 26.7636364,
                "end_time": 26.8477273,
                "pitch": 47,
                "velocity": 101,
                "duration": 0.0840909,
                "tempo": 120.0
            },
            {
                "start_time": 26.8659091,
                "end_time": 26.9477273,
                "pitch": 47,
                "velocity": 101,
                "duration": 0.0818182,
                "tempo": 120.0
            },
            {
                "start_time": 26.9636364,
                "end_time": 27.0477273,
                "pitch": 36,
                "velocity": 101,
                "duration": 0.0840909,
                "tempo": 120.0
            },
            {
                "start_time": 27.0659091,
                "end_time": 27.1477273,
                "pitch": 48,
                "velocity": 101,
                "duration": 0.0818182,
                "tempo": 120.0
            },
            {
                "start_time": 27.1659091,
                "end_time": 27.25,
                "pitch": 38,
                "velocity": 101,
                "duration": 0.0840909,
                "tempo": 120.0
            },
            {
                "start_time": 27.2659091,
                "end_time": 27.35,
                "pitch": 50,
                "velocity": 101,
                "duration": 0.0840909,
                "tempo": 120.0
            },
            {
                "start_time": 27.3681818,
                "end_time": 27.45,
                "pitch": 40,
                "velocity": 101,
                "duration": 0.0818182,
                "tempo": 120.0
            },
            {
                "start_time": 27.4681818,
                "end_time": 27.55,
                "pitch": 40,
                "velocity": 101,
                "duration": 0.0818182,
                "tempo": 120.0
            },
            {
                "start_time": 27.5681818,
                "end_time": 27.65,
                "pitch": 40,
                "velocity": 101,
                "duration": 0.0818182,
                "tempo": 120.0
            },
            {
                "start_time": 27.6681818,
                "end_time": 27.75,
                "pitch": 40,
                "velocity": 101,
                "duration": 0.0818182,
                "tempo": 120.0
            },
            {
                "start_time": 27.7681818,
                "end_time": 27.9522727,
                "pitch": 40,
                "velocity": 101,
                "duration": 0.1840909,
                "tempo": 120.0
            },
            {
                "start_time": 27.9704545,
                "end_time": 28.5636364,
                "pitch": 38,
                "velocity": 101,
                "duration": 0.5931818,
                "tempo": 120.0
            },
            {
                "start_time": 28.5818182,
                "end_time": 28.9590909,
                "pitch": 26,
                "velocity": 127,
                "duration": 0.3772727,
                "tempo": 120.0
            },
            {
                "start_time": 28.975,
                "end_time": 29.0590909,
                "pitch": 36,
                "velocity": 101,
                "duration": 0.0840909,
                "tempo": 120.0
            },
            {
                "start_time": 29.075,
                "end_time": 29.1590909,
                "pitch": 36,
                "velocity": 101,
                "duration": 0.0840909,
                "tempo": 120.0
            },
            {
                "start_time": 29.1772727,
                "end_time": 29.2590909,
                "pitch": 36,
                "velocity": 101,
                "duration": 0.0818182,
                "tempo": 120.0
            },
            {
                "start_time": 29.2772727,
                "end_time": 29.3613636,
                "pitch": 36,
                "velocity": 101,
                "duration": 0.0840909,
                "tempo": 120.0
            },
            {
                "start_time": 29.3795455,
                "end_time": 29.5613636,
                "pitch": 36,
                "velocity": 101,
                "duration": 0.1818182,
                "tempo": 120.0
            },
            {
                "start_time": 29.5795455,
                "end_time": 29.9636364,
                "pitch": 35,
                "velocity": 101,
                "duration": 0.3840909,
                "tempo": 120.0
            },
            {
                "start_time": 29.9795455,
                "end_time": 30.0636364,
                "pitch": 23,
                "velocity": 101,
                "duration": 0.0840909,
                "tempo": 120.0
            },
            {
                "start_time": 30.1818182,
                "end_time": 30.5659091,
                "pitch": 23,
                "velocity": 127,
                "duration": 0.3840909,
                "tempo": 120.0
            },
            {
                "start_time": 30.5840909,
                "end_time": 30.6681818,
                "pitch": 40,
                "velocity": 101,
                "duration": 0.0840909,
                "tempo": 120.0
            },
            {
                "start_time": 30.6840909,
                "end_time": 30.7704545,
                "pitch": 40,
                "velocity": 101,
                "duration": 0.0863636,
                "tempo": 120.0
            },
            {
                "start_time": 30.7886364,
                "end_time": 30.8727273,
                "pitch": 40,
                "velocity": 101,
                "duration": 0.0840909,
                "tempo": 120.0
            },
            {
                "start_time": 30.8909091,
                "end_time": 30.975,
                "pitch": 40,
                "velocity": 101,
                "duration": 0.0840909,
                "tempo": 120.0
            },
            {
                "start_time": 30.9931818,
                "end_time": 31.1727273,
                "pitch": 40,
                "velocity": 101,
                "duration": 0.1795455,
                "tempo": 120.0
            },
            {
                "start_time": 31.1909091,
                "end_time": 31.7704545,
                "pitch": 38,
                "velocity": 101,
                "duration": 0.5795455,
                "tempo": 120.0
            },
            {
                "start_time": 31.7863636,
                "end_time": 32.1795455,
                "pitch": 26,
                "velocity": 127,
                "duration": 0.3931818,
                "tempo": 120.0
            },
            {
                "start_time": 32.2,
                "end_time": 32.2795455,
                "pitch": 36,
                "velocity": 101,
                "duration": 0.0795455,
                "tempo": 120.0
            },
            {
                "start_time": 32.2954545,
                "end_time": 32.3772727,
                "pitch": 36,
                "velocity": 101,
                "duration": 0.0818182,
                "tempo": 120.0
            },
            {
                "start_time": 32.3954545,
                "end_time": 32.475,
                "pitch": 36,
                "velocity": 101,
                "duration": 0.0795455,
                "tempo": 120.0
            },
            {
                "start_time": 32.4931818,
                "end_time": 32.5727273,
                "pitch": 36,
                "velocity": 101,
                "duration": 0.0795455,
                "tempo": 120.0
            },
            {
                "start_time": 32.5909091,
                "end_time": 32.7795455,
                "pitch": 36,
                "velocity": 101,
                "duration": 0.1886364,
                "tempo": 120.0
            },
            {
                "start_time": 32.7977273,
                "end_time": 33.1818182,
                "pitch": 35,
                "velocity": 101,
                "duration": 0.3840909,
                "tempo": 120.0
            },
            {
                "start_time": 33.1977273,
                "end_time": 33.2795455,
                "pitch": 23,
                "velocity": 101,
                "duration": 0.0818182,
                "tempo": 120.0
            },
            {
                "start_time": 33.2954545,
                "end_time": 33.3772727,
                "pitch": 23,
                "velocity": 101,
                "duration": 0.0818182,
                "tempo": 120.0
            },
            {
                "start_time": 33.3954545,
                "end_time": 33.7886364,
                "pitch": 23,
                "velocity": 127,
                "duration": 0.3931818,
                "tempo": 120.0
            },
            {
                "start_time": 33.8090909,
                "end_time": 33.8909091,
                "pitch": 40,
                "velocity": 101,
                "duration": 0.0818182,
                "tempo": 120.0
            },
            {
                "start_time": 33.9090909,
                "end_time": 33.9931818,
                "pitch": 40,
                "velocity": 101,
                "duration": 0.0840909,
                "tempo": 120.0
            },
            {
                "start_time": 34.0113636,
                "end_time": 34.0954545,
                "pitch": 52,
                "velocity": 101,
                "duration": 0.0840909,
                "tempo": 120.0
            },
            {
                "start_time": 34.1136364,
                "end_time": 34.2,
                "pitch": 52,
                "velocity": 101,
                "duration": 0.0863636,
                "tempo": 120.0
            },
            {
                "start_time": 34.2181818,
                "end_time": 34.2977273,
                "pitch": 40,
                "velocity": 101,
                "duration": 0.0795455,
                "tempo": 120.0
            },
            {
                "start_time": 34.3159091,
                "end_time": 34.3977273,
                "pitch": 40,
                "velocity": 101,
                "duration": 0.0818182,
                "tempo": 120.0
            },
            {
                "start_time": 34.4136364,
                "end_time": 34.4954545,
                "pitch": 52,
                "velocity": 101,
                "duration": 0.0818182,
                "tempo": 120.0
            },
            {
                "start_time": 34.5113636,
                "end_time": 34.5931818,
                "pitch": 40,
                "velocity": 101,
                "duration": 0.0818182,
                "tempo": 120.0
            },
            {
                "start_time": 34.6113636,
                "end_time": 34.6931818,
                "pitch": 40,
                "velocity": 101,
                "duration": 0.0818182,
                "tempo": 120.0
            },
            {
                "start_time": 34.7113636,
                "end_time": 34.7931818,
                "pitch": 40,
                "velocity": 101,
                "duration": 0.0818182,
                "tempo": 120.0
            },
            {
                "start_time": 34.8113636,
                "end_time": 34.8954545,
                "pitch": 52,
                "velocity": 101,
                "duration": 0.0840909,
                "tempo": 120.0
            },
            {
                "start_time": 34.9136364,
                "end_time": 34.9954545,
                "pitch": 52,
                "velocity": 101,
                "duration": 0.0818182,
                "tempo": 120.0
            },
            {
                "start_time": 35.0136364,
                "end_time": 35.0954545,
                "pitch": 40,
                "velocity": 101,
                "duration": 0.0818182,
                "tempo": 120.0
            },
            {
                "start_time": 35.1136364,
                "end_time": 35.1954545,
                "pitch": 40,
                "velocity": 101,
                "duration": 0.0818182,
                "tempo": 120.0
            },
            {
                "start_time": 35.2136364,
                "end_time": 35.2954545,
                "pitch": 52,
                "velocity": 101,
                "duration": 0.0818182,
                "tempo": 120.0
            },
            {
                "start_time": 35.3136364,
                "end_time": 35.3954545,
                "pitch": 40,
                "velocity": 101,
                "duration": 0.0818182,
                "tempo": 120.0
            },
            {
                "start_time": 35.4159091,
                "end_time": 35.4977273,
                "pitch": 38,
                "velocity": 101,
                "duration": 0.0818182,
                "tempo": 120.0
            },
            {
                "start_time": 35.5159091,
                "end_time": 35.6022727,
                "pitch": 38,
                "velocity": 101,
                "duration": 0.0863636,
                "tempo": 120.0
            },
            {
                "start_time": 35.6204545,
                "end_time": 35.7045455,
                "pitch": 50,
                "velocity": 101,
                "duration": 0.0840909,
                "tempo": 120.0
            },
            {
                "start_time": 35.7227273,
                "end_time": 35.8068182,
                "pitch": 50,
                "velocity": 101,
                "duration": 0.0840909,
                "tempo": 120.0
            },
            {
                "start_time": 35.825,
                "end_time": 35.9068182,
                "pitch": 38,
                "velocity": 101,
                "duration": 0.0818182,
                "tempo": 120.0
            },
            {
                "start_time": 35.9227273,
                "end_time": 36.0045455,
                "pitch": 38,
                "velocity": 101,
                "duration": 0.0818182,
                "tempo": 120.0
            },
            {
                "start_time": 36.0227273,
                "end_time": 36.1022727,
                "pitch": 50,
                "velocity": 101,
                "duration": 0.0795455,
                "tempo": 120.0
            },
            {
                "start_time": 36.1204545,
                "end_time": 36.2,
                "pitch": 38,
                "velocity": 101,
                "duration": 0.0795455,
                "tempo": 120.0
            },
            {
                "start_time": 36.2181818,
                "end_time": 36.3,
                "pitch": 38,
                "velocity": 101,
                "duration": 0.0818182,
                "tempo": 120.0
            },
            {
                "start_time": 36.3181818,
                "end_time": 36.4,
                "pitch": 38,
                "velocity": 101,
                "duration": 0.0818182,
                "tempo": 120.0
            },
            {
                "start_time": 36.4181818,
                "end_time": 36.5,
                "pitch": 50,
                "velocity": 101,
                "duration": 0.0818182,
                "tempo": 120.0
            },
            {
                "start_time": 36.5181818,
                "end_time": 36.6,
                "pitch": 50,
                "velocity": 101,
                "duration": 0.0818182,
                "tempo": 120.0
            },
            {
                "start_time": 36.6181818,
                "end_time": 36.7022727,
                "pitch": 38,
                "velocity": 101,
                "duration": 0.0840909,
                "tempo": 120.0
            },
            {
                "start_time": 36.7181818,
                "end_time": 36.8022727,
                "pitch": 38,
                "velocity": 101,
                "duration": 0.0840909,
                "tempo": 120.0
            },
            {
                "start_time": 36.8204545,
                "end_time": 36.9022727,
                "pitch": 50,
                "velocity": 101,
                "duration": 0.0818182,
                "tempo": 120.0
            },
            {
                "start_time": 36.9204545,
                "end_time": 37.0045455,
                "pitch": 38,
                "velocity": 101,
                "duration": 0.0840909,
                "tempo": 120.0
            },
            {
                "start_time": 37.0227273,
                "end_time": 37.1068182,
                "pitch": 36,
                "velocity": 101,
                "duration": 0.0840909,
                "tempo": 120.0
            },
            {
                "start_time": 37.1227273,
                "end_time": 37.2090909,
                "pitch": 36,
                "velocity": 101,
                "duration": 0.0863636,
                "tempo": 120.0
            },
            {
                "start_time": 37.2272727,
                "end_time": 37.3113636,
                "pitch": 48,
                "velocity": 101,
                "duration": 0.0840909,
                "tempo": 120.0
            },
            {
                "start_time": 37.3295455,
                "end_time": 37.4159091,
                "pitch": 48,
                "velocity": 101,
                "duration": 0.0863636,
                "tempo": 120.0
            },
            {
                "start_time": 37.4340909,
                "end_time": 37.5159091,
                "pitch": 36,
                "velocity": 101,
                "duration": 0.0818182,
                "tempo": 120.0
            },
            {
                "start_time": 37.5318182,
                "end_time": 37.6159091,
                "pitch": 36,
                "velocity": 101,
                "duration": 0.0840909,
                "tempo": 120.0
            },
            {
                "start_time": 37.6340909,
                "end_time": 37.7159091,
                "pitch": 48,
                "velocity": 101,
                "duration": 0.0818182,
                "tempo": 120.0
            },
            {
                "start_time": 37.7340909,
                "end_time": 37.8159091,
                "pitch": 36,
                "velocity": 101,
                "duration": 0.0818182,
                "tempo": 120.0
            },
            {
                "start_time": 37.8340909,
                "end_time": 37.9159091,
                "pitch": 36,
                "velocity": 101,
                "duration": 0.0818182,
                "tempo": 120.0
            },
            {
                "start_time": 37.9340909,
                "end_time": 38.0159091,
                "pitch": 36,
                "velocity": 101,
                "duration": 0.0818182,
                "tempo": 120.0
            },
            {
                "start_time": 38.0340909,
                "end_time": 38.1159091,
                "pitch": 48,
                "velocity": 101,
                "duration": 0.0818182,
                "tempo": 120.0
            },
            {
                "start_time": 38.1340909,
                "end_time": 38.2159091,
                "pitch": 48,
                "velocity": 101,
                "duration": 0.0818182,
                "tempo": 120.0
            },
            {
                "start_time": 38.2340909,
                "end_time": 38.3181818,
                "pitch": 36,
                "velocity": 101,
                "duration": 0.0840909,
                "tempo": 120.0
            },
            {
                "start_time": 38.3340909,
                "end_time": 38.4181818,
                "pitch": 36,
                "velocity": 101,
                "duration": 0.0840909,
                "tempo": 120.0
            },
            {
                "start_time": 38.4363636,
                "end_time": 38.5181818,
                "pitch": 48,
                "velocity": 101,
                "duration": 0.0818182,
                "tempo": 120.0
            },
            {
                "start_time": 38.5363636,
                "end_time": 38.6204545,
                "pitch": 36,
                "velocity": 101,
                "duration": 0.0840909,
                "tempo": 120.0
            },
            {
                "start_time": 38.6386364,
                "end_time": 38.7204545,
                "pitch": 35,
                "velocity": 101,
                "duration": 0.0818182,
                "tempo": 120.0
            },
            {
                "start_time": 38.7363636,
                "end_time": 38.8204545,
                "pitch": 35,
                "velocity": 101,
                "duration": 0.0840909,
                "tempo": 120.0
            },
            {
                "start_time": 38.8363636,
                "end_time": 38.9204545,
                "pitch": 47,
                "velocity": 101,
                "duration": 0.0840909,
                "tempo": 120.0
            },
            {
                "start_time": 38.9386364,
                "end_time": 39.0204545,
                "pitch": 47,
                "velocity": 101,
                "duration": 0.0818182,
                "tempo": 120.0
            },
            {
                "start_time": 39.0386364,
                "end_time": 39.1204545,
                "pitch": 35,
                "velocity": 101,
                "duration": 0.0818182,
                "tempo": 120.0
            },
            {
                "start_time": 39.1386364,
                "end_time": 39.2204545,
                "pitch": 35,
                "velocity": 101,
                "duration": 0.0818182,
                "tempo": 120.0
            },
            {
                "start_time": 39.2386364,
                "end_time": 39.3204545,
                "pitch": 47,
                "velocity": 101,
                "duration": 0.0818182,
                "tempo": 120.0
            },
            {
                "start_time": 39.3386364,
                "end_time": 39.4204545,
                "pitch": 35,
                "velocity": 101,
                "duration": 0.0818182,
                "tempo": 120.0
            },
            {
                "start_time": 39.4386364,
                "end_time": 39.5204545,
                "pitch": 35,
                "velocity": 101,
                "duration": 0.0818182,
                "tempo": 120.0
            },
            {
                "start_time": 39.5386364,
                "end_time": 39.6204545,
                "pitch": 35,
                "velocity": 101,
                "duration": 0.0818182,
                "tempo": 120.0
            },
            {
                "start_time": 39.6386364,
                "end_time": 39.7204545,
                "pitch": 47,
                "velocity": 101,
                "duration": 0.0818182,
                "tempo": 120.0
            },
            {
                "start_time": 39.7386364,
                "end_time": 39.8204545,
                "pitch": 47,
                "velocity": 101,
                "duration": 0.0818182,
                "tempo": 120.0
            },
            {
                "start_time": 39.8386364,
                "end_time": 39.9204545,
                "pitch": 35,
                "velocity": 101,
                "duration": 0.0818182,
                "tempo": 120.0
            },
            {
                "start_time": 39.9386364,
                "end_time": 40.0204545,
                "pitch": 35,
                "velocity": 101,
                "duration": 0.0818182,
                "tempo": 120.0
            },
            {
                "start_time": 40.0386364,
                "end_time": 40.1227273,
                "pitch": 47,
                "velocity": 101,
                "duration": 0.0840909,
                "tempo": 120.0
            },
            {
                "start_time": 40.1386364,
                "end_time": 40.2227273,
                "pitch": 35,
                "velocity": 101,
                "duration": 0.0840909,
                "tempo": 120.0
            },
            {
                "start_time": 40.2409091,
                "end_time": 40.3227273,
                "pitch": 40,
                "velocity": 101,
                "duration": 0.0818182,
                "tempo": 120.0
            },
            {
                "start_time": 40.3386364,
                "end_time": 40.4227273,
                "pitch": 40,
                "velocity": 101,
                "duration": 0.0840909,
                "tempo": 120.0
            },
            {
                "start_time": 40.4409091,
                "end_time": 40.525,
                "pitch": 52,
                "velocity": 101,
                "duration": 0.0840909,
                "tempo": 120.0
            },
            {
                "start_time": 40.5409091,
                "end_time": 40.625,
                "pitch": 52,
                "velocity": 101,
                "duration": 0.0840909,
                "tempo": 120.0
            },
            {
                "start_time": 40.6431818,
                "end_time": 40.725,
                "pitch": 40,
                "velocity": 101,
                "duration": 0.0818182,
                "tempo": 120.0
            },
            {
                "start_time": 40.7431818,
                "end_time": 40.825,
                "pitch": 40,
                "velocity": 101,
                "duration": 0.0818182,
                "tempo": 120.0
            },
            {
                "start_time": 40.8431818,
                "end_time": 40.925,
                "pitch": 52,
                "velocity": 101,
                "duration": 0.0818182,
                "tempo": 120.0
            },
            {
                "start_time": 40.9431818,
                "end_time": 41.025,
                "pitch": 40,
                "velocity": 101,
                "duration": 0.0818182,
                "tempo": 120.0
            },
            {
                "start_time": 41.0431818,
                "end_time": 41.125,
                "pitch": 40,
                "velocity": 101,
                "duration": 0.0818182,
                "tempo": 120.0
            },
            {
                "start_time": 41.1431818,
                "end_time": 41.225,
                "pitch": 40,
                "velocity": 101,
                "duration": 0.0818182,
                "tempo": 120.0
            },
            {
                "start_time": 41.2431818,
                "end_time": 41.325,
                "pitch": 52,
                "velocity": 101,
                "duration": 0.0818182,
                "tempo": 120.0
            },
            {
                "start_time": 41.3431818,
                "end_time": 41.425,
                "pitch": 52,
                "velocity": 101,
                "duration": 0.0818182,
                "tempo": 120.0
            },
            {
                "start_time": 41.4431818,
                "end_time": 41.525,
                "pitch": 40,
                "velocity": 101,
                "duration": 0.0818182,
                "tempo": 120.0
            },
            {
                "start_time": 41.5431818,
                "end_time": 41.6272727,
                "pitch": 40,
                "velocity": 101,
                "duration": 0.0840909,
                "tempo": 120.0
            },
            {
                "start_time": 41.6454545,
                "end_time": 41.7272727,
                "pitch": 52,
                "velocity": 101,
                "duration": 0.0818182,
                "tempo": 120.0
            },
            {
                "start_time": 41.7431818,
                "end_time": 41.8272727,
                "pitch": 40,
                "velocity": 101,
                "duration": 0.0840909,
                "tempo": 120.0
            },
            {
                "start_time": 41.8454545,
                "end_time": 41.9272727,
                "pitch": 38,
                "velocity": 101,
                "duration": 0.0818182,
                "tempo": 120.0
            },
            {
                "start_time": 41.9431818,
                "end_time": 42.0272727,
                "pitch": 38,
                "velocity": 101,
                "duration": 0.0840909,
                "tempo": 120.0
            },
            {
                "start_time": 42.0454545,
                "end_time": 42.1272727,
                "pitch": 50,
                "velocity": 101,
                "duration": 0.0818182,
                "tempo": 120.0
            },
            {
                "start_time": 42.1431818,
                "end_time": 42.2272727,
                "pitch": 50,
                "velocity": 101,
                "duration": 0.0840909,
                "tempo": 120.0
            },
            {
                "start_time": 42.2454545,
                "end_time": 42.3272727,
                "pitch": 38,
                "velocity": 101,
                "duration": 0.0818182,
                "tempo": 120.0
            },
            {
                "start_time": 42.3454545,
                "end_time": 42.4295455,
                "pitch": 38,
                "velocity": 101,
                "duration": 0.0840909,
                "tempo": 120.0
            },
            {
                "start_time": 42.4477273,
                "end_time": 42.5295455,
                "pitch": 50,
                "velocity": 101,
                "duration": 0.0818182,
                "tempo": 120.0
            },
            {
                "start_time": 42.5477273,
                "end_time": 42.6295455,
                "pitch": 38,
                "velocity": 101,
                "duration": 0.0818182,
                "tempo": 120.0
            },
            {
                "start_time": 42.6477273,
                "end_time": 42.7295455,
                "pitch": 38,
                "velocity": 101,
                "duration": 0.0818182,
                "tempo": 120.0
            },
            {
                "start_time": 42.7477273,
                "end_time": 42.8295455,
                "pitch": 38,
                "velocity": 101,
                "duration": 0.0818182,
                "tempo": 120.0
            },
            {
                "start_time": 42.8477273,
                "end_time": 42.9295455,
                "pitch": 50,
                "velocity": 101,
                "duration": 0.0818182,
                "tempo": 120.0
            },
            {
                "start_time": 42.9477273,
                "end_time": 43.0318182,
                "pitch": 50,
                "velocity": 101,
                "duration": 0.0840909,
                "tempo": 120.0
            },
            {
                "start_time": 43.0477273,
                "end_time": 43.1318182,
                "pitch": 38,
                "velocity": 101,
                "duration": 0.0840909,
                "tempo": 120.0
            },
            {
                "start_time": 43.1477273,
                "end_time": 43.2318182,
                "pitch": 38,
                "velocity": 101,
                "duration": 0.0840909,
                "tempo": 120.0
            },
            {
                "start_time": 43.25,
                "end_time": 43.3318182,
                "pitch": 50,
                "velocity": 101,
                "duration": 0.0818182,
                "tempo": 120.0
            },
            {
                "start_time": 43.3477273,
                "end_time": 43.4318182,
                "pitch": 38,
                "velocity": 101,
                "duration": 0.0840909,
                "tempo": 120.0
            },
            {
                "start_time": 43.45,
                "end_time": 43.5340909,
                "pitch": 36,
                "velocity": 101,
                "duration": 0.0840909,
                "tempo": 120.0
            },
            {
                "start_time": 43.55,
                "end_time": 43.6363636,
                "pitch": 36,
                "velocity": 101,
                "duration": 0.0863636,
                "tempo": 120.0
            },
            {
                "start_time": 43.6545455,
                "end_time": 43.7386364,
                "pitch": 48,
                "velocity": 101,
                "duration": 0.0840909,
                "tempo": 120.0
            },
            {
                "start_time": 43.7568182,
                "end_time": 43.8409091,
                "pitch": 48,
                "velocity": 101,
                "duration": 0.0840909,
                "tempo": 120.0
            },
            {
                "start_time": 43.8613636,
                "end_time": 43.9431818,
                "pitch": 36,
                "velocity": 101,
                "duration": 0.0818182,
                "tempo": 120.0
            },
            {
                "start_time": 43.9613636,
                "end_time": 44.0431818,
                "pitch": 36,
                "velocity": 101,
                "duration": 0.0818182,
                "tempo": 120.0
            },
            {
                "start_time": 44.0613636,
                "end_time": 44.1454545,
                "pitch": 48,
                "velocity": 101,
                "duration": 0.0840909,
                "tempo": 120.0
            },
            {
                "start_time": 44.1613636,
                "end_time": 44.2454545,
                "pitch": 36,
                "velocity": 101,
                "duration": 0.0840909,
                "tempo": 120.0
            },
            {
                "start_time": 44.2636364,
                "end_time": 44.3454545,
                "pitch": 36,
                "velocity": 101,
                "duration": 0.0818182,
                "tempo": 120.0
            },
            {
                "start_time": 44.3636364,
                "end_time": 44.4454545,
                "pitch": 36,
                "velocity": 101,
                "duration": 0.0818182,
                "tempo": 120.0
            },
            {
                "start_time": 44.4636364,
                "end_time": 44.5454545,
                "pitch": 48,
                "velocity": 101,
                "duration": 0.0818182,
                "tempo": 120.0
            },
            {
                "start_time": 44.5636364,
                "end_time": 44.6454545,
                "pitch": 48,
                "velocity": 101,
                "duration": 0.0818182,
                "tempo": 120.0
            },
            {
                "start_time": 44.6636364,
                "end_time": 44.7454545,
                "pitch": 36,
                "velocity": 101,
                "duration": 0.0818182,
                "tempo": 120.0
            },
            {
                "start_time": 44.7613636,
                "end_time": 44.8431818,
                "pitch": 36,
                "velocity": 101,
                "duration": 0.0818182,
                "tempo": 120.0
            },
            {
                "start_time": 44.8613636,
                "end_time": 44.9409091,
                "pitch": 48,
                "velocity": 101,
                "duration": 0.0795455,
                "tempo": 120.0
            },
            {
                "start_time": 44.9590909,
                "end_time": 45.0386364,
                "pitch": 36,
                "velocity": 101,
                "duration": 0.0795455,
                "tempo": 120.0
            },
            {
                "start_time": 45.0590909,
                "end_time": 45.1409091,
                "pitch": 35,
                "velocity": 101,
                "duration": 0.0818182,
                "tempo": 120.0
            },
            {
                "start_time": 45.1590909,
                "end_time": 45.2431818,
                "pitch": 35,
                "velocity": 101,
                "duration": 0.0840909,
                "tempo": 120.0
            },
            {
                "start_time": 45.2613636,
                "end_time": 45.3477273,
                "pitch": 47,
                "velocity": 101,
                "duration": 0.0863636,
                "tempo": 120.0
            },
            {
                "start_time": 45.3659091,
                "end_time": 45.45,
                "pitch": 47,
                "velocity": 101,
                "duration": 0.0840909,
                "tempo": 120.0
            },
            {
                "start_time": 45.4681818,
                "end_time": 45.5477273,
                "pitch": 35,
                "velocity": 101,
                "duration": 0.0795455,
                "tempo": 120.0
            },
            {
                "start_time": 45.5659091,
                "end_time": 45.6477273,
                "pitch": 35,
                "velocity": 101,
                "duration": 0.0818182,
                "tempo": 120.0
            },
            {
                "start_time": 45.6636364,
                "end_time": 45.7454545,
                "pitch": 47,
                "velocity": 101,
                "duration": 0.0818182,
                "tempo": 120.0
            },
            {
                "start_time": 45.7613636,
                "end_time": 45.8431818,
                "pitch": 35,
                "velocity": 101,
                "duration": 0.0818182,
                "tempo": 120.0
            },
            {
                "start_time": 45.8613636,
                "end_time": 45.9454545,
                "pitch": 35,
                "velocity": 101,
                "duration": 0.0840909,
                "tempo": 120.0
            },
            {
                "start_time": 45.9636364,
                "end_time": 46.0477273,
                "pitch": 35,
                "velocity": 101,
                "duration": 0.0840909,
                "tempo": 120.0
            },
            {
                "start_time": 46.0659091,
                "end_time": 46.15,
                "pitch": 47,
                "velocity": 101,
                "duration": 0.0840909,
                "tempo": 120.0
            },
            {
                "start_time": 46.1681818,
                "end_time": 46.2545455,
                "pitch": 47,
                "velocity": 101,
                "duration": 0.0863636,
                "tempo": 120.0
            },
            {
                "start_time": 46.2704545,
                "end_time": 46.3545455,
                "pitch": 35,
                "velocity": 101,
                "duration": 0.0840909,
                "tempo": 120.0
            },
            {
                "start_time": 46.3704545,
                "end_time": 46.4545455,
                "pitch": 35,
                "velocity": 101,
                "duration": 0.0840909,
                "tempo": 120.0
            },
            {
                "start_time": 46.4727273,
                "end_time": 46.5545455,
                "pitch": 47,
                "velocity": 101,
                "duration": 0.0818182,
                "tempo": 120.0
            },
            {
                "start_time": 46.5727273,
                "end_time": 46.6545455,
                "pitch": 35,
                "velocity": 101,
                "duration": 0.0818182,
                "tempo": 120.0
            }
        ],
        "Vibraphone": [
            {
                "start_time": 0.0090909,
                "end_time": 0.6,
                "pitch": 71,
                "velocity": 127,
                "duration": 0.5909091,
                "tempo": 120.0
            },
            {
                "start_time": 0.6,
                "end_time": 1.4022727,
                "pitch": 69,
                "velocity": 127,
                "duration": 0.8022727,
                "tempo": 120.0
            },
            {
                "start_time": 1.4022727,
                "end_time": 3.0045455,
                "pitch": 67,
                "velocity": 127,
                "duration": 1.6022727,
                "tempo": 120.0
            },
            {
                "start_time": 3.0068182,
                "end_time": 4.8204545,
                "pitch": 66,
                "velocity": 127,
                "duration": 1.8136364,
                "tempo": 120.0
            },
            {
                "start_time": 4.8227273,
                "end_time": 5.6363636,
                "pitch": 71,
                "velocity": 127,
                "duration": 0.8136364,
                "tempo": 120.0
            },
            {
                "start_time": 5.6363636,
                "end_time": 6.4409091,
                "pitch": 69,
                "velocity": 127,
                "duration": 0.8045455,
                "tempo": 120.0
            },
            {
                "start_time": 6.4409091,
                "end_time": 7.2431818,
                "pitch": 67,
                "velocity": 127,
                "duration": 0.8022727,
                "tempo": 120.0
            },
            {
                "start_time": 3.0045455,
                "end_time": 7.2431818,
                "pitch": 78,
                "velocity": 127,
                "duration": 4.2386364,
                "tempo": 120.0
            },
            {
                "start_time": 7.2431818,
                "end_time": 8.0545455,
                "pitch": 66,
                "velocity": 127,
                "duration": 0.8113636,
                "tempo": 120.0
            },
            {
                "start_time": 8.0545455,
                "end_time": 8.0954545,
                "pitch": 64,
                "velocity": 101,
                "duration": 0.0409091,
                "tempo": 120.0
            },
            {
                "start_time": 8.1477273,
                "end_time": 8.1977273,
                "pitch": 65,
                "velocity": 101,
                "duration": 0.05,
                "tempo": 120.0
            },
            {
                "start_time": 8.2522727,
                "end_time": 8.3022727,
                "pitch": 64,
                "velocity": 101,
                "duration": 0.05,
                "tempo": 120.0
            },
            {
                "start_time": 8.3545455,
                "end_time": 8.4045455,
                "pitch": 63,
                "velocity": 101,
                "duration": 0.05,
                "tempo": 120.0
            },
            {
                "start_time": 8.4590909,
                "end_time": 8.5045455,
                "pitch": 64,
                "velocity": 101,
                "duration": 0.0454545,
                "tempo": 120.0
            },
            {
                "start_time": 8.5545455,
                "end_time": 8.6022727,
                "pitch": 65,
                "velocity": 101,
                "duration": 0.0477273,
                "tempo": 120.0
            },
            {
                "start_time": 8.6545455,
                "end_time": 8.7022727,
                "pitch": 64,
                "velocity": 101,
                "duration": 0.0477273,
                "tempo": 120.0
            },
            {
                "start_time": 8.7522727,
                "end_time": 8.8,
                "pitch": 63,
                "velocity": 101,
                "duration": 0.0477273,
                "tempo": 120.0
            },
            {
                "start_time": 8.85,
                "end_time": 8.9,
                "pitch": 64,
                "velocity": 101,
                "duration": 0.05,
                "tempo": 120.0
            },
            {
                "start_time": 8.95,
                "end_time": 9.0,
                "pitch": 65,
                "velocity": 101,
                "duration": 0.05,
                "tempo": 120.0
            },
            {
                "start_time": 9.0522727,
                "end_time": 9.1,
                "pitch": 64,
                "velocity": 101,
                "duration": 0.0477273,
                "tempo": 120.0
            },
            {
                "start_time": 9.1522727,
                "end_time": 9.2022727,
                "pitch": 63,
                "velocity": 101,
                "duration": 0.05,
                "tempo": 120.0
            },
            {
                "start_time": 9.2568182,
                "end_time": 9.3022727,
                "pitch": 64,
                "velocity": 101,
                "duration": 0.0454545,
                "tempo": 120.0
            },
            {
                "start_time": 9.3545455,
                "end_time": 9.4022727,
                "pitch": 65,
                "velocity": 101,
                "duration": 0.0477273,
                "tempo": 120.0
            },
            {
                "start_time": 9.4545455,
                "end_time": 9.5045455,
                "pitch": 64,
                "velocity": 101,
                "duration": 0.05,
                "tempo": 120.0
            },
            {
                "start_time": 9.5545455,
                "end_time": 9.6045455,
                "pitch": 63,
                "velocity": 101,
                "duration": 0.05,
                "tempo": 120.0
            },
            {
                "start_time": 9.6590909,
                "end_time": 9.7045455,
                "pitch": 60,
                "velocity": 101,
                "duration": 0.0454545,
                "tempo": 120.0
            },
            {
                "start_time": 9.7568182,
                "end_time": 9.8045455,
                "pitch": 61,
                "velocity": 101,
                "duration": 0.0477273,
                "tempo": 120.0
            },
            {
                "start_time": 9.8568182,
                "end_time": 9.9045455,
                "pitch": 60,
                "velocity": 101,
                "duration": 0.0477273,
                "tempo": 120.0
            },
            {
                "start_time": 9.9568182,
                "end_time": 10.0045455,
                "pitch": 59,
                "velocity": 101,
                "duration": 0.0477273,
                "tempo": 120.0
            },
            {
                "start_time": 10.0568182,
                "end_time": 10.1068182,
                "pitch": 60,
                "velocity": 101,
                "duration": 0.05,
                "tempo": 120.0
            },
            {
                "start_time": 10.1568182,
                "end_time": 10.2068182,
                "pitch": 61,
                "velocity": 101,
                "duration": 0.05,
                "tempo": 120.0
            },
            {
                "start_time": 10.2590909,
                "end_time": 10.3068182,
                "pitch": 60,
                "velocity": 101,
                "duration": 0.0477273,
                "tempo": 120.0
            },
            {
                "start_time": 10.3590909,
                "end_time": 10.4090909,
                "pitch": 59,
                "velocity": 101,
                "duration": 0.05,
                "tempo": 120.0
            },
            {
                "start_time": 10.4613636,
                "end_time": 10.5090909,
                "pitch": 60,
                "velocity": 101,
                "duration": 0.0477273,
                "tempo": 120.0
            },
            {
                "start_time": 10.5613636,
                "end_time": 10.6090909,
                "pitch": 61,
                "velocity": 101,
                "duration": 0.0477273,
                "tempo": 120.0
            },
            {
                "start_time": 10.6613636,
                "end_time": 10.7113636,
                "pitch": 60,
                "velocity": 101,
                "duration": 0.05,
                "tempo": 120.0
            },
            {
                "start_time": 10.7636364,
                "end_time": 10.8113636,
                "pitch": 59,
                "velocity": 101,
                "duration": 0.0477273,
                "tempo": 120.0
            },
            {
                "start_time": 10.8659091,
                "end_time": 10.9113636,
                "pitch": 60,
                "velocity": 101,
                "duration": 0.0454545,
                "tempo": 120.0
            },
            {
                "start_time": 10.9636364,
                "end_time": 11.0136364,
                "pitch": 61,
                "velocity": 101,
                "duration": 0.05,
                "tempo": 120.0
            },
            {
                "start_time": 11.0659091,
                "end_time": 11.1136364,
                "pitch": 60,
                "velocity": 101,
                "duration": 0.0477273,
                "tempo": 120.0
            },
            {
                "start_time": 11.1659091,
                "end_time": 11.2136364,
                "pitch": 59,
                "velocity": 101,
                "duration": 0.0477273,
                "tempo": 120.0
            },
            {
                "start_time": 11.2704545,
                "end_time": 11.3159091,
                "pitch": 64,
                "velocity": 101,
                "duration": 0.0454545,
                "tempo": 120.0
            },
            {
                "start_time": 11.3681818,
                "end_time": 11.4181818,
                "pitch": 65,
                "velocity": 101,
                "duration": 0.05,
                "tempo": 120.0
            },
            {
                "start_time": 11.4727273,
                "end_time": 11.5227273,
                "pitch": 64,
                "velocity": 101,
                "duration": 0.05,
                "tempo": 120.0
            },
            {
                "start_time": 11.575,
                "end_time": 11.625,
                "pitch": 63,
                "velocity": 101,
                "duration": 0.05,
                "tempo": 120.0
            },
            {
                "start_time": 11.6795455,
                "end_time": 11.725,
                "pitch": 64,
                "velocity": 101,
                "duration": 0.0454545,
                "tempo": 120.0
            },
            {
                "start_time": 11.775,
                "end_time": 11.8227273,
                "pitch": 65,
                "velocity": 101,
                "duration": 0.0477273,
                "tempo": 120.0
            },
            {
                "start_time": 11.875,
                "end_time": 11.9227273,
                "pitch": 64,
                "velocity": 101,
                "duration": 0.0477273,
                "tempo": 120.0
            },
            {
                "start_time": 11.9727273,
                "end_time": 12.0204545,
                "pitch": 63,
                "velocity": 101,
                "duration": 0.0477273,
                "tempo": 120.0
            },
            {
                "start_time": 12.0704545,
                "end_time": 12.1204545,
                "pitch": 64,
                "velocity": 101,
                "duration": 0.05,
                "tempo": 120.0
            },
            {
                "start_time": 12.1704545,
                "end_time": 12.2204545,
                "pitch": 65,
                "velocity": 101,
                "duration": 0.05,
                "tempo": 120.0
            },
            {
                "start_time": 12.2727273,
                "end_time": 12.3204545,
                "pitch": 64,
                "velocity": 101,
                "duration": 0.0477273,
                "tempo": 120.0
            },
            {
                "start_time": 12.3727273,
                "end_time": 12.4227273,
                "pitch": 63,
                "velocity": 101,
                "duration": 0.05,
                "tempo": 120.0
            },
            {
                "start_time": 12.4772727,
                "end_time": 12.5227273,
                "pitch": 64,
                "velocity": 101,
                "duration": 0.0454545,
                "tempo": 120.0
            },
            {
                "start_time": 12.575,
                "end_time": 12.6227273,
                "pitch": 65,
                "velocity": 101,
                "duration": 0.0477273,
                "tempo": 120.0
            },
            {
                "start_time": 12.675,
                "end_time": 12.725,
                "pitch": 64,
                "velocity": 101,
                "duration": 0.05,
                "tempo": 120.0
            },
            {
                "start_time": 12.775,
                "end_time": 12.825,
                "pitch": 63,
                "velocity": 101,
                "duration": 0.05,
                "tempo": 120.0
            },
            {
                "start_time": 12.8795455,
                "end_time": 12.925,
                "pitch": 60,
                "velocity": 101,
                "duration": 0.0454545,
                "tempo": 120.0
            },
            {
                "start_time": 12.9772727,
                "end_time": 13.0272727,
                "pitch": 61,
                "velocity": 101,
                "duration": 0.05,
                "tempo": 120.0
            },
            {
                "start_time": 13.0772727,
                "end_time": 13.1272727,
                "pitch": 60,
                "velocity": 101,
                "duration": 0.05,
                "tempo": 120.0
            },
            {
                "start_time": 13.1795455,
                "end_time": 13.2272727,
                "pitch": 59,
                "velocity": 101,
                "duration": 0.0477273,
                "tempo": 120.0
            },
            {
                "start_time": 13.2818182,
                "end_time": 13.3295455,
                "pitch": 60,
                "velocity": 101,
                "duration": 0.0477273,
                "tempo": 120.0
            },
            {
                "start_time": 13.3818182,
                "end_time": 13.4318182,
                "pitch": 61,
                "velocity": 101,
                "duration": 0.05,
                "tempo": 120.0
            },
            {
                "start_time": 13.4863636,
                "end_time": 13.5363636,
                "pitch": 60,
                "velocity": 101,
                "duration": 0.05,
                "tempo": 120.0
            },
            {
                "start_time": 13.5886364,
                "end_time": 13.6386364,
                "pitch": 59,
                "velocity": 101,
                "duration": 0.05,
                "tempo": 120.0
            },
            {
                "start_time": 13.6931818,
                "end_time": 13.7409091,
                "pitch": 60,
                "velocity": 101,
                "duration": 0.0477273,
                "tempo": 120.0
            },
            {
                "start_time": 13.7931818,
                "end_time": 13.8409091,
                "pitch": 61,
                "velocity": 101,
                "duration": 0.0477273,
                "tempo": 120.0
            },
            {
                "start_time": 13.8931818,
                "end_time": 13.9431818,
                "pitch": 60,
                "velocity": 101,
                "duration": 0.05,
                "tempo": 120.0
            },
            {
                "start_time": 13.9931818,
                "end_time": 14.0431818,
                "pitch": 59,
                "velocity": 101,
                "duration": 0.05,
                "tempo": 120.0
            },
            {
                "start_time": 14.0977273,
                "end_time": 14.1431818,
                "pitch": 60,
                "velocity": 101,
                "duration": 0.0454545,
                "tempo": 120.0
            },
            {
                "start_time": 14.1954545,
                "end_time": 14.2454545,
                "pitch": 61,
                "velocity": 101,
                "duration": 0.05,
                "tempo": 120.0
            },
            {
                "start_time": 14.2954545,
                "end_time": 14.3454545,
                "pitch": 60,
                "velocity": 101,
                "duration": 0.05,
                "tempo": 120.0
            },
            {
                "start_time": 14.3977273,
                "end_time": 14.4454545,
                "pitch": 59,
                "velocity": 101,
                "duration": 0.0477273,
                "tempo": 120.0
            },
            {
                "start_time": 14.5045455,
                "end_time": 14.9022727,
                "pitch": 71,
                "velocity": 101,
                "duration": 0.3977273,
                "tempo": 120.0
            },
            {
                "start_time": 15.1045455,
                "end_time": 15.9068182,
                "pitch": 72,
                "velocity": 101,
                "duration": 0.8022727,
                "tempo": 120.0
            },
            {
                "start_time": 16.1113636,
                "end_time": 16.5136364,
                "pitch": 69,
                "velocity": 101,
                "duration": 0.4022727,
                "tempo": 120.0
            },
            {
                "start_time": 16.7159091,
                "end_time": 17.5181818,
                "pitch": 71,
                "velocity": 101,
                "duration": 0.8022727,
                "tempo": 120.0
            },
            {
                "start_time": 17.7204545,
                "end_time": 18.1318182,
                "pitch": 67,
                "velocity": 101,
                "duration": 0.4113636,
                "tempo": 120.0
            },
            {
                "start_time": 18.3272727,
                "end_time": 19.1295455,
                "pitch": 69,
                "velocity": 101,
                "duration": 0.8022727,
                "tempo": 120.0
            },
            {
                "start_time": 19.3272727,
                "end_time": 19.9386364,
                "pitch": 66,
                "velocity": 101,
                "duration": 0.6113636,
                "tempo": 120.0
            },
            {
                "start_time": 20.1431818,
                "end_time": 20.2409091,
                "pitch": 66,
                "velocity": 101,
                "duration": 0.0977273,
                "tempo": 120.0
            },
            {
                "start_time": 20.4431818,
                "end_time": 20.5409091,
                "pitch": 67,
                "velocity": 101,
                "duration": 0.0977273,
                "tempo": 120.0
            },
            {
                "start_time": 20.7386364,
                "end_time": 20.9363636,
                "pitch": 69,
                "velocity": 101,
                "duration": 0.1977273,
                "tempo": 120.0
            },
            {
                "start_time": 20.9363636,
                "end_time": 21.3454545,
                "pitch": 71,
                "velocity": 101,
                "duration": 0.4090909,
                "tempo": 120.0
            },
            {
                "start_time": 21.5477273,
                "end_time": 22.3477273,
                "pitch": 72,
                "velocity": 101,
                "duration": 0.8,
                "tempo": 120.0
            },
            {
                "start_time": 22.5522727,
                "end_time": 22.9522727,
                "pitch": 69,
                "velocity": 101,
                "duration": 0.4,
                "tempo": 120.0
            },
            {
                "start_time": 23.1522727,
                "end_time": 23.9545455,
                "pitch": 71,
                "velocity": 101,
                "duration": 0.8022727,
                "tempo": 120.0
            },
            {
                "start_time": 24.1590909,
                "end_time": 24.5590909,
                "pitch": 67,
                "velocity": 101,
                "duration": 0.4,
                "tempo": 120.0
            },
            {
                "start_time": 24.7590909,
                "end_time": 25.5613636,
                "pitch": 69,
                "velocity": 101,
                "duration": 0.8022727,
                "tempo": 120.0
            },
            {
                "start_time": 25.7636364,
                "end_time": 26.3659091,
                "pitch": 66,
                "velocity": 101,
                "duration": 0.6022727,
                "tempo": 120.0
            },
            {
                "start_time": 26.5659091,
                "end_time": 26.6636364,
                "pitch": 66,
                "velocity": 101,
                "duration": 0.0977273,
                "tempo": 120.0
            },
            {
                "start_time": 26.8659091,
                "end_time": 26.9659091,
                "pitch": 67,
                "velocity": 101,
                "duration": 0.1,
                "tempo": 120.0
            },
            {
                "start_time": 27.1681818,
                "end_time": 27.3727273,
                "pitch": 69,
                "velocity": 101,
                "duration": 0.2045455,
                "tempo": 120.0
            },
            {
                "start_time": 27.3727273,
                "end_time": 27.4181818,
                "pitch": 71,
                "velocity": 101,
                "duration": 0.0454545,
                "tempo": 120.0
            },
            {
                "start_time": 27.4681818,
                "end_time": 27.5181818,
                "pitch": 71,
                "velocity": 101,
                "duration": 0.05,
                "tempo": 120.0
            },
            {
                "start_time": 27.5681818,
                "end_time": 27.6181818,
                "pitch": 71,
                "velocity": 101,
                "duration": 0.05,
                "tempo": 120.0
            },
            {
                "start_time": 27.6681818,
                "end_time": 27.7181818,
                "pitch": 71,
                "velocity": 101,
                "duration": 0.05,
                "tempo": 120.0
            },
            {
                "start_time": 27.7704545,
                "end_time": 27.9181818,
                "pitch": 71,
                "velocity": 101,
                "duration": 0.1477273,
                "tempo": 120.0
            },
            {
                "start_time": 27.9727273,
                "end_time": 28.925,
                "pitch": 69,
                "velocity": 101,
                "duration": 0.9522727,
                "tempo": 120.0
            },
            {
                "start_time": 28.9772727,
                "end_time": 29.025,
                "pitch": 67,
                "velocity": 101,
                "duration": 0.0477273,
                "tempo": 120.0
            },
            {
                "start_time": 29.0772727,
                "end_time": 29.1272727,
                "pitch": 67,
                "velocity": 101,
                "duration": 0.05,
                "tempo": 120.0
            },
            {
                "start_time": 29.1795455,
                "end_time": 29.2272727,
                "pitch": 67,
                "velocity": 101,
                "duration": 0.0477273,
                "tempo": 120.0
            },
            {
                "start_time": 29.2795455,
                "end_time": 29.3272727,
                "pitch": 67,
                "velocity": 101,
                "duration": 0.0477273,
                "tempo": 120.0
            },
            {
                "start_time": 29.3795455,
                "end_time": 29.5272727,
                "pitch": 67,
                "velocity": 101,
                "duration": 0.1477273,
                "tempo": 120.0
            },
            {
                "start_time": 29.5818182,
                "end_time": 30.5318182,
                "pitch": 66,
                "velocity": 101,
                "duration": 0.95,
                "tempo": 120.0
            },
            {
                "start_time": 30.5863636,
                "end_time": 30.6340909,
                "pitch": 71,
                "velocity": 101,
                "duration": 0.0477273,
                "tempo": 120.0
            },
            {
                "start_time": 30.6863636,
                "end_time": 30.7363636,
                "pitch": 71,
                "velocity": 101,
                "duration": 0.05,
                "tempo": 120.0
            },
            {
                "start_time": 30.7886364,
                "end_time": 30.8386364,
                "pitch": 71,
                "velocity": 101,
                "duration": 0.05,
                "tempo": 120.0
            },
            {
                "start_time": 30.8931818,
                "end_time": 30.9431818,
                "pitch": 71,
                "velocity": 101,
                "duration": 0.05,
                "tempo": 120.0
            },
            {
                "start_time": 30.9954545,
                "end_time": 31.1409091,
                "pitch": 71,
                "velocity": 101,
                "duration": 0.1454545,
                "tempo": 120.0
            },
            {
                "start_time": 31.1931818,
                "end_time": 32.1477273,
                "pitch": 69,
                "velocity": 101,
                "duration": 0.9545455,
                "tempo": 120.0
            },
            {
                "start_time": 32.2,
                "end_time": 32.2477273,
                "pitch": 67,
                "velocity": 101,
                "duration": 0.0477273,
                "tempo": 120.0
            },
            {
                "start_time": 32.2977273,
                "end_time": 32.3454545,
                "pitch": 67,
                "velocity": 101,
                "duration": 0.0477273,
                "tempo": 120.0
            },
            {
                "start_time": 32.3977273,
                "end_time": 32.4431818,
                "pitch": 67,
                "velocity": 101,
                "duration": 0.0454545,
                "tempo": 120.0
            },
            {
                "start_time": 32.4931818,
                "end_time": 32.5409091,
                "pitch": 67,
                "velocity": 101,
                "duration": 0.0477273,
                "tempo": 120.0
            },
            {
                "start_time": 32.5931818,
                "end_time": 32.7454545,
                "pitch": 67,
                "velocity": 101,
                "duration": 0.1522727,
                "tempo": 120.0
            },
            {
                "start_time": 32.8,
                "end_time": 33.7545455,
                "pitch": 66,
                "velocity": 101,
                "duration": 0.9545455,
                "tempo": 120.0
            },
            {
                "start_time": 33.8113636,
                "end_time": 33.9590909,
                "pitch": 71,
                "velocity": 127,
                "duration": 0.1477273,
                "tempo": 120.0
            },
            {
                "start_time": 34.1159091,
                "end_time": 35.3636364,
                "pitch": 71,
                "velocity": 127,
                "duration": 1.2477273,
                "tempo": 120.0
            },
            {
                "start_time": 35.4159091,
                "end_time": 35.5681818,
                "pitch": 69,
                "velocity": 127,
                "duration": 0.1522727,
                "tempo": 120.0
            },
            {
                "start_time": 35.7227273,
                "end_time": 36.9704545,
                "pitch": 69,
                "velocity": 127,
                "duration": 1.2477273,
                "tempo": 120.0
            },
            {
                "start_time": 37.025,
                "end_time": 37.175,
                "pitch": 67,
                "velocity": 127,
                "duration": 0.15,
                "tempo": 120.0
            },
            {
                "start_time": 37.3318182,
                "end_time": 38.5863636,
                "pitch": 67,
                "velocity": 127,
                "duration": 1.2545455,
                "tempo": 120.0
            },
            {
                "start_time": 38.6409091,
                "end_time": 38.7863636,
                "pitch": 66,
                "velocity": 127,
                "duration": 0.1454545,
                "tempo": 120.0
            },
            {
                "start_time": 38.9409091,
                "end_time": 40.1886364,
                "pitch": 66,
                "velocity": 127,
                "duration": 1.2477273,
                "tempo": 120.0
            },
            {
                "start_time": 40.2431818,
                "end_time": 40.3909091,
                "pitch": 71,
                "velocity": 127,
                "duration": 0.1477273,
                "tempo": 120.0
            },
            {
                "start_time": 40.5431818,
                "end_time": 41.7931818,
                "pitch": 71,
                "velocity": 127,
                "duration": 1.25,
                "tempo": 120.0
            },
            {
                "start_time": 41.8477273,
                "end_time": 41.9931818,
                "pitch": 69,
                "velocity": 127,
                "duration": 0.1454545,
                "tempo": 120.0
            },
            {
                "start_time": 42.1454545,
                "end_time": 43.3977273,
                "pitch": 69,
                "velocity": 127,
                "duration": 1.2522727,
                "tempo": 120.0
            },
            {
                "start_time": 43.4522727,
                "end_time": 43.6022727,
                "pitch": 67,
                "velocity": 127,
                "duration": 0.15,
                "tempo": 120.0
            },
            {
                "start_time": 43.7590909,
                "end_time": 45.0068182,
                "pitch": 67,
                "velocity": 127,
                "duration": 1.2477273,
                "tempo": 120.0
            },
            {
                "start_time": 45.0590909,
                "end_time": 45.2090909,
                "pitch": 66,
                "velocity": 127,
                "duration": 0.15,
                "tempo": 120.0
            },
            {
                "start_time": 45.3681818,
                "end_time": 46.6227273,
                "pitch": 66,
                "velocity": 127,
                "duration": 1.2545455,
                "tempo": 120.0
            },
            {
                "start_time": 46.6818182,
                "end_time": 46.7227273,
                "pitch": 64,
                "velocity": 101,
                "duration": 0.0409091,
                "tempo": 120.0
            },
            {
                "start_time": 46.775,
                "end_time": 46.825,
                "pitch": 65,
                "velocity": 101,
                "duration": 0.05,
                "tempo": 120.0
            },
            {
                "start_time": 46.8772727,
                "end_time": 46.9272727,
                "pitch": 64,
                "velocity": 101,
                "duration": 0.05,
                "tempo": 120.0
            },
            {
                "start_time": 46.9818182,
                "end_time": 47.0318182,
                "pitch": 63,
                "velocity": 101,
                "duration": 0.05,
                "tempo": 120.0
            },
            {
                "start_time": 47.0840909,
                "end_time": 47.1318182,
                "pitch": 64,
                "velocity": 101,
                "duration": 0.0477273,
                "tempo": 120.0
            },
            {
                "start_time": 47.1818182,
                "end_time": 47.2295455,
                "pitch": 65,
                "velocity": 101,
                "duration": 0.0477273,
                "tempo": 120.0
            },
            {
                "start_time": 47.2818182,
                "end_time": 47.3272727,
                "pitch": 64,
                "velocity": 101,
                "duration": 0.0454545,
                "tempo": 120.0
            },
            {
                "start_time": 47.3795455,
                "end_time": 47.4272727,
                "pitch": 63,
                "velocity": 101,
                "duration": 0.0477273,
                "tempo": 120.0
            },
            {
                "start_time": 47.4772727,
                "end_time": 47.525,
                "pitch": 64,
                "velocity": 101,
                "duration": 0.0477273,
                "tempo": 120.0
            },
            {
                "start_time": 47.5772727,
                "end_time": 47.625,
                "pitch": 65,
                "velocity": 101,
                "duration": 0.0477273,
                "tempo": 120.0
            },
            {
                "start_time": 47.6772727,
                "end_time": 47.725,
                "pitch": 64,
                "velocity": 101,
                "duration": 0.0477273,
                "tempo": 120.0
            },
            {
                "start_time": 47.7772727,
                "end_time": 47.825,
                "pitch": 63,
                "velocity": 101,
                "duration": 0.0477273,
                "tempo": 120.0
            },
            {
                "start_time": 47.8795455,
                "end_time": 47.9272727,
                "pitch": 64,
                "velocity": 101,
                "duration": 0.0477273,
                "tempo": 120.0
            },
            {
                "start_time": 47.9772727,
                "end_time": 48.0272727,
                "pitch": 65,
                "velocity": 101,
                "duration": 0.05,
                "tempo": 120.0
            },
            {
                "start_time": 48.0795455,
                "end_time": 48.1272727,
                "pitch": 64,
                "velocity": 101,
                "duration": 0.0477273,
                "tempo": 120.0
            },
            {
                "start_time": 48.1795455,
                "end_time": 48.2295455,
                "pitch": 63,
                "velocity": 101,
                "duration": 0.05,
                "tempo": 120.0
            },
            {
                "start_time": 48.2840909,
                "end_time": 48.3295455,
                "pitch": 60,
                "velocity": 101,
                "duration": 0.0454545,
                "tempo": 120.0
            },
            {
                "start_time": 48.3818182,
                "end_time": 48.4295455,
                "pitch": 61,
                "velocity": 101,
                "duration": 0.0477273,
                "tempo": 120.0
            },
            {
                "start_time": 48.4818182,
                "end_time": 48.5295455,
                "pitch": 60,
                "velocity": 101,
                "duration": 0.0477273,
                "tempo": 120.0
            },
            {
                "start_time": 48.5818182,
                "end_time": 48.6295455,
                "pitch": 59,
                "velocity": 101,
                "duration": 0.0477273,
                "tempo": 120.0
            },
            {
                "start_time": 48.6818182,
                "end_time": 48.7295455,
                "pitch": 60,
                "velocity": 101,
                "duration": 0.0477273,
                "tempo": 120.0
            },
            {
                "start_time": 48.7818182,
                "end_time": 48.8295455,
                "pitch": 61,
                "velocity": 101,
                "duration": 0.0477273,
                "tempo": 120.0
            },
            {
                "start_time": 48.8840909,
                "end_time": 48.9295455,
                "pitch": 60,
                "velocity": 101,
                "duration": 0.0454545,
                "tempo": 120.0
            },
            {
                "start_time": 48.9818182,
                "end_time": 49.0295455,
                "pitch": 59,
                "velocity": 101,
                "duration": 0.0477273,
                "tempo": 120.0
            },
            {
                "start_time": 49.0818182,
                "end_time": 49.1295455,
                "pitch": 60,
                "velocity": 101,
                "duration": 0.0477273,
                "tempo": 120.0
            },
            {
                "start_time": 49.1818182,
                "end_time": 49.2295455,
                "pitch": 61,
                "velocity": 101,
                "duration": 0.0477273,
                "tempo": 120.0
            },
            {
                "start_time": 49.2818182,
                "end_time": 49.3295455,
                "pitch": 60,
                "velocity": 101,
                "duration": 0.0477273,
                "tempo": 120.0
            },
            {
                "start_time": 49.3818182,
                "end_time": 49.4318182,
                "pitch": 59,
                "velocity": 101,
                "duration": 0.05,
                "tempo": 120.0
            },
            {
                "start_time": 49.4840909,
                "end_time": 49.5318182,
                "pitch": 60,
                "velocity": 101,
                "duration": 0.0477273,
                "tempo": 120.0
            },
            {
                "start_time": 49.5818182,
                "end_time": 49.6318182,
                "pitch": 61,
                "velocity": 101,
                "duration": 0.05,
                "tempo": 120.0
            },
            {
                "start_time": 49.6818182,
                "end_time": 49.7318182,
                "pitch": 60,
                "velocity": 101,
                "duration": 0.05,
                "tempo": 120.0
            },
            {
                "start_time": 49.7818182,
                "end_time": 49.8318182,
                "pitch": 59,
                "velocity": 101,
                "duration": 0.05,
                "tempo": 120.0
            },
            {
                "start_time": 49.8886364,
                "end_time": 49.9318182,
                "pitch": 64,
                "velocity": 101,
                "duration": 0.0431818,
                "tempo": 120.0
            },
            {
                "start_time": 49.9840909,
                "end_time": 50.0363636,
                "pitch": 65,
                "velocity": 101,
                "duration": 0.0522727,
                "tempo": 120.0
            },
            {
                "start_time": 50.0886364,
                "end_time": 50.1386364,
                "pitch": 64,
                "velocity": 101,
                "duration": 0.05,
                "tempo": 120.0
            },
            {
                "start_time": 50.1909091,
                "end_time": 50.2409091,
                "pitch": 63,
                "velocity": 101,
                "duration": 0.05,
                "tempo": 120.0
            },
            {
                "start_time": 50.2954545,
                "end_time": 50.3409091,
                "pitch": 64,
                "velocity": 101,
                "duration": 0.0454545,
                "tempo": 120.0
            },
            {
                "start_time": 50.3909091,
                "end_time": 50.4409091,
                "pitch": 65,
                "velocity": 101,
                "duration": 0.05,
                "tempo": 120.0
            },
            {
                "start_time": 50.4909091,
                "end_time": 50.5386364,
                "pitch": 64,
                "velocity": 101,
                "duration": 0.0477273,
                "tempo": 120.0
            },
            {
                "start_time": 50.5886364,
                "end_time": 50.6363636,
                "pitch": 63,
                "velocity": 101,
                "duration": 0.0477273,
                "tempo": 120.0
            },
            {
                "start_time": 50.6863636,
                "end_time": 50.7363636,
                "pitch": 64,
                "velocity": 101,
                "duration": 0.05,
                "tempo": 120.0
            },
            {
                "start_time": 50.7863636,
                "end_time": 50.8363636,
                "pitch": 65,
                "velocity": 101,
                "duration": 0.05,
                "tempo": 120.0
            },
            {
                "start_time": 50.8863636,
                "end_time": 50.9363636,
                "pitch": 64,
                "velocity": 101,
                "duration": 0.05,
                "tempo": 120.0
            },
            {
                "start_time": 50.9863636,
                "end_time": 51.0363636,
                "pitch": 63,
                "velocity": 101,
                "duration": 0.05,
                "tempo": 120.0
            },
            {
                "start_time": 51.0886364,
                "end_time": 51.1363636,
                "pitch": 64,
                "velocity": 101,
                "duration": 0.0477273,
                "tempo": 120.0
            },
            {
                "start_time": 51.1863636,
                "end_time": 51.2363636,
                "pitch": 65,
                "velocity": 101,
                "duration": 0.05,
                "tempo": 120.0
            },
            {
                "start_time": 51.2863636,
                "end_time": 51.3363636,
                "pitch": 64,
                "velocity": 101,
                "duration": 0.05,
                "tempo": 120.0
            },
            {
                "start_time": 51.3863636,
                "end_time": 51.4363636,
                "pitch": 63,
                "velocity": 101,
                "duration": 0.05,
                "tempo": 120.0
            },
            {
                "start_time": 51.4909091,
                "end_time": 51.5363636,
                "pitch": 60,
                "velocity": 101,
                "duration": 0.0454545,
                "tempo": 120.0
            },
            {
                "start_time": 51.5909091,
                "end_time": 51.6409091,
                "pitch": 61,
                "velocity": 101,
                "duration": 0.05,
                "tempo": 120.0
            },
            {
                "start_time": 51.6931818,
                "end_time": 51.7431818,
                "pitch": 60,
                "velocity": 101,
                "duration": 0.05,
                "tempo": 120.0
            },
            {
                "start_time": 51.7954545,
                "end_time": 51.8454545,
                "pitch": 59,
                "velocity": 101,
                "duration": 0.05,
                "tempo": 120.0
            },
            {
                "start_time": 51.9,
                "end_time": 51.9477273,
                "pitch": 60,
                "velocity": 101,
                "duration": 0.0477273,
                "tempo": 120.0
            },
            {
                "start_time": 52.0,
                "end_time": 52.0477273,
                "pitch": 61,
                "velocity": 101,
                "duration": 0.0477273,
                "tempo": 120.0
            },
            {
                "start_time": 52.1,
                "end_time": 52.1477273,
                "pitch": 60,
                "velocity": 101,
                "duration": 0.0477273,
                "tempo": 120.0
            },
            {
                "start_time": 52.2,
                "end_time": 52.2477273,
                "pitch": 59,
                "velocity": 101,
                "duration": 0.0477273,
                "tempo": 120.0
            },
            {
                "start_time": 52.3,
                "end_time": 52.3477273,
                "pitch": 60,
                "velocity": 101,
                "duration": 0.0477273,
                "tempo": 120.0
            },
            {
                "start_time": 52.4,
                "end_time": 52.4477273,
                "pitch": 61,
                "velocity": 101,
                "duration": 0.0477273,
                "tempo": 120.0
            },
            {
                "start_time": 52.5,
                "end_time": 52.5477273,
                "pitch": 60,
                "velocity": 101,
                "duration": 0.0477273,
                "tempo": 120.0
            },
            {
                "start_time": 52.6,
                "end_time": 52.6477273,
                "pitch": 59,
                "velocity": 101,
                "duration": 0.0477273,
                "tempo": 120.0
            },
            {
                "start_time": 52.7022727,
                "end_time": 52.7477273,
                "pitch": 60,
                "velocity": 101,
                "duration": 0.0454545,
                "tempo": 120.0
            },
            {
                "start_time": 52.8,
                "end_time": 52.85,
                "pitch": 61,
                "velocity": 101,
                "duration": 0.05,
                "tempo": 120.0
            },
            {
                "start_time": 52.9,
                "end_time": 52.95,
                "pitch": 60,
                "velocity": 101,
                "duration": 0.05,
                "tempo": 120.0
            }
        ]
    }
}