{
    "mood": "angry",
    "instruments": {
        "Trumpet": [
            {
                "start_time": 0.0522727,
                "end_time": 2.1386364,
                "pitch": 71,
                "velocity": 80,
                "duration": 2.0863636,
                "tempo": 120.0
            },
            {
                "start_time": 2.1659091,
                "end_time": 2.3045455,
                "pitch": 71,
                "velocity": 80,
                "duration": 0.1386364,
                "tempo": 120.0
            },
            {
                "start_time": 2.4954545,
                "end_time": 5.0340909,
                "pitch": 66,
                "velocity": 80,
                "duration": 2.5386364,
                "tempo": 120.0
            },
            {
                "start_time": 5.25,
                "end_time": 7.3340909,
                "pitch": 71,
                "velocity": 80,
                "duration": 2.0840909,
                "tempo": 120.0
            },
            {
                "start_time": 7.3636364,
                "end_time": 7.5022727,
                "pitch": 71,
                "velocity": 80,
                "duration": 0.1386364,
                "tempo": 120.0
            },
            {
                "start_time": 2.4954545,
                "end_time": 7.6909091,
                "pitch": 44,
                "velocity": 80,
                "duration": 5.1954545,
                "tempo": 120.0
            },
            {
                "start_time": 7.6909091,
                "end_time": 10.2295455,
                "pitch": 66,
                "velocity": 80,
                "duration": 2.5386364,
                "tempo": 120.0
            },
            {
                "start_time": 5.25,
                "end_time": 10.4454545,
                "pitch": 78,
                "velocity": 80,
                "duration": 5.1954545,
                "tempo": 120.0
            },
            {
                "start_time": 10.4454545,
                "end_time": 12.5318182,
                "pitch": 71,
                "velocity": 80,
                "duration": 2.0863636,
                "tempo": 120.0
            },
            {
                "start_time": 12.5590909,
                "end_time": 12.6977273,
                "pitch": 71,
                "velocity": 80,
                "duration": 0.1386364,
                "tempo": 120.0
            },
            {
                "start_time": 7.6909091,
                "end_time": 12.8886364,
                "pitch": 44,
                "velocity": 80,
                "duration": 5.1977273,
                "tempo": 120.0
            },
            {
                "start_time": 12.8886364,
                "end_time": 15.4272727,
                "pitch": 66,
                "velocity": 80,
                "duration": 2.5386364,
                "tempo": 120.0
            },
            {
                "start_time": 10.4454545,
                "end_time": 15.6431818,
                "pitch": 78,
                "velocity": 80,
                "duration": 5.1977273,
                "tempo": 120.0
            },
            {
                "start_time": 15.6431818,
                "end_time": 17.7340909,
                "pitch": 71,
                "velocity": 80,
                "duration": 2.0909091,
                "tempo": 120.0
            },
            {
                "start_time": 17.7613636,
                "end_time": 17.8954545,
                "pitch": 71,
                "velocity": 80,
                "duration": 0.1340909,
                "tempo": 120.0
            },
            {
                "start_time": 12.8886364,
                "end_time": 18.0840909,
                "pitch": 44,
                "velocity": 80,
                "duration": 5.1954545,
                "tempo": 120.0
            },
            {
                "start_time": 18.0840909,
                "end_time": 20.6227273,
                "pitch": 66,
                "velocity": 80,
                "duration": 2.5386364,
                "tempo": 120.0
            },
            {
                "start_time": 15.6431818,
                "end_time": 20.8386364,
                "pitch": 78,
                "velocity": 80,
                "duration": 5.1954545,
                "tempo": 120.0
            },
            {
                "start_time": 20.8386364,
                "end_time": 22.9318182,
                "pitch": 71,
                "velocity": 80,
                "duration": 2.0931818,
                "tempo": 120.0
            },
            {
                "start_time": 22.9568182,
                "end_time": 23.0931818,
                "pitch": 71,
                "velocity": 80,
                "duration": 0.1363636,
                "tempo": 120.0
            },
            {
                "start_time": 23.2818182,
                "end_time": 25.8204545,
                "pitch": 71,
                "velocity": 80,
                "duration": 2.5386364,
                "tempo": 120.0
            },
            {
                "start_time": 26.0363636,
                "end_time": 28.1272727,
                "pitch": 71,
                "velocity": 80,
                "duration": 2.0909091,
                "tempo": 120.0
            },
            {
                "start_time": 28.1545455,
                "end_time": 28.2886364,
                "pitch": 71,
                "velocity": 80,
                "duration": 0.1340909,
                "tempo": 120.0
            },
            {
                "start_time": 28.4772727,
                "end_time": 31.0159091,
                "pitch": 71,
                "velocity": 80,
                "duration": 2.5386364,
                "tempo": 120.0
            },
            {
                "start_time": 31.2318182,
                "end_time": 33.325,
                "pitch": 71,
                "velocity": 80,
                "duration": 2.0931818,
                "tempo": 120.0
            },
            {
                "start_time": 33.35,
                "end_time": 33.4863636,
                "pitch": 71,
                "velocity": 80,
                "duration": 0.1363636,
                "tempo": 120.0
            },
            {
                "start_time": 33.6727273,
                "end_time": 36.2159091,
                "pitch": 71,
                "velocity": 80,
                "duration": 2.5431818,
                "tempo": 120.0
            },
            {
                "start_time": 36.4386364,
                "end_time": 38.5204545,
                "pitch": 71,
                "velocity": 80,
                "duration": 2.0818182,
                "tempo": 120.0
            },
            {
                "start_time": 38.5477273,
                "end_time": 38.6818182,
                "pitch": 71,
                "velocity": 80,
                "duration": 0.1340909,
                "tempo": 120.0
            },
            {
                "start_time": 18.0840909,
                "end_time": 38.8704545,
                "pitch": 44,
                "velocity": 80,
                "duration": 20.7863636,
                "tempo": 120.0
            },
            {
                "start_time": 38.8704545,
                "end_time": 41.4090909,
                "pitch": 66,
                "velocity": 80,
                "duration": 2.5386364,
                "tempo": 120.0
            },
            {
                "start_time": 20.8386364,
                "end_time": 41.625,
                "pitch": 78,
                "velocity": 80,
                "duration": 20.7863636,
                "tempo": 120.0
            },
            {
                "start_time": 41.625,
                "end_time": 43.7159091,
                "pitch": 71,
                "velocity": 80,
                "duration": 2.0909091,
                "tempo": 120.0
            },
            {
                "start_time": 43.7431818,
                "end_time": 43.8772727,
                "pitch": 71,
                "velocity": 80,
                "duration": 0.1340909,
                "tempo": 120.0
            },
            {
                "start_time": 38.8704545,
                "end_time": 44.0659091,
                "pitch": 44,
                "velocity": 80,
                "duration": 5.1954545,
                "tempo": 120.0
            },
            {
                "start_time": 44.0659091,
                "end_time": 46.6068182,
                "pitch": 66,
                "velocity": 80,
                "duration": 2.5409091,
                "tempo": 120.0
            },
            {
                "start_time": 41.625,
                "end_time": 46.8204545,
                "pitch": 78,
                "velocity": 80,
                "duration": 5.1954545,
                "tempo": 120.0
            },
            {
                "start_time": 46.8204545,
                "end_time": 48.9136364,
                "pitch": 71,
                "velocity": 80,
                "duration": 2.0931818,
                "tempo": 120.0
            },
            {
                "start_time": 48.9409091,
                "end_time": 49.075,
                "pitch": 71,
                "velocity": 80,
                "duration": 0.1340909,
                "tempo": 120.0
            },
            {
                "start_time": 49.2636364,
                "end_time": 51.8022727,
                "pitch": 71,
                "velocity": 80,
                "duration": 2.5386364,
                "tempo": 120.0
            },
            {
                "start_time": 52.0181818,
                "end_time": 54.1090909,
                "pitch": 71,
                "velocity": 80,
                "duration": 2.0909091,
                "tempo": 120.0
            },
            {
                "start_time": 54.1363636,
                "end_time": 54.2704545,
                "pitch": 71,
                "velocity": 80,
                "duration": 0.1340909,
                "tempo": 120.0
            },
            {
                "start_time": 54.4590909,
                "end_time": 56.9977273,
                "pitch": 71,
                "velocity": 80,
                "duration": 2.5386364,
                "tempo": 120.0
            },
            {
                "start_time": 57.2136364,
                "end_time": 59.6022727,
                "pitch": 72,
                "velocity": 80,
                "duration": 2.3886364,
                "tempo": 120.0
            },
            {
                "start_time": 59.8181818,
                "end_time": 61.6568182,
                "pitch": 74,
                "velocity": 80,
                "duration": 1.8386364,
                "tempo": 120.0
            },
            {
                "start_time": 61.9272727,
                "end_time": 62.0613636,
                "pitch": 74,
                "velocity": 80,
                "duration": 0.1340909,
                "tempo": 120.0
            },
            {
                "start_time": 62.4113636,
                "end_time": 67.3954545,
                "pitch": 74,
                "velocity": 80,
                "duration": 4.9840909,
                "tempo": 120.0
            },
            {
                "start_time": 67.6181818,
                "end_time": 69.7,
                "pitch": 71,
                "velocity": 80,
                "duration": 2.0818182,
                "tempo": 120.0
            },
            {
                "start_time": 69.7272727,
                "end_time": 69.8613636,
                "pitch": 71,
                "velocity": 80,
                "duration": 0.1340909,
                "tempo": 120.0
            },
            {
                "start_time": 44.0659091,
                "end_time": 70.05,
                "pitch": 44,
                "velocity": 80,
                "duration": 25.9840909,
                "tempo": 120.0
            },
            {
                "start_time": 70.05,
                "end_time": 72.5886364,
                "pitch": 66,
                "velocity": 80,
                "duration": 2.5386364,
                "tempo": 120.0
            },
            {
                "start_time": 46.8204545,
                "end_time": 72.8045455,
                "pitch": 78,
                "velocity": 80,
                "duration": 25.9840909,
                "tempo": 120.0
            },
            {
                "start_time": 72.8045455,
                "end_time": 74.8954545,
                "pitch": 71,
                "velocity": 80,
                "duration": 2.0909091,
                "tempo": 120.0
            },
            {
                "start_time": 74.9227273,
                "end_time": 75.0568182,
                "pitch": 71,
                "velocity": 80,
                "duration": 0.1340909,
                "tempo": 120.0
            },
            {
                "start_time": 70.05,
                "end_time": 75.2454545,
                "pitch": 44,
                "velocity": 80,
                "duration": 5.1954545,
                "tempo": 120.0
            },
            {
                "start_time": 75.2454545,
                "end_time": 77.7886364,
                "pitch": 66,
                "velocity": 80,
                "duration": 2.5431818,
                "tempo": 120.0
            },
            {
                "start_time": 72.8045455,
                "end_time": 78.0113636,
                "pitch": 78,
                "velocity": 80,
                "duration": 5.2068182,
                "tempo": 120.0
            },
            {
                "start_time": 78.0113636,
                "end_time": 78.3340909,
                "pitch": 71,
                "velocity": 80,
                "duration": 0.3227273,
                "tempo": 120.0
            }
        ],
        "Violin": [
            {
                "start_time": 0.0545455,
                "end_time": 2.1386364,
                "pitch": 64,
                "velocity": 127,
                "duration": 2.0840909,
                "tempo": 120.0
            },
            {
                "start_time": 2.1681818,
                "end_time": 2.3045455,
                "pitch": 64,
                "velocity": 127,
                "duration": 0.1363636,
                "tempo": 120.0
            },
            {
                "start_time": 2.4954545,
                "end_time": 5.0340909,
                "pitch": 57,
                "velocity": 127,
                "duration": 2.5386364,
                "tempo": 120.0
            },
            {
                "start_time": 5.25,
                "end_time": 7.3363636,
                "pitch": 64,
                "velocity": 127,
                "duration": 2.0863636,
                "tempo": 120.0
            },
            {
                "start_time": 7.3636364,
                "end_time": 7.5022727,
                "pitch": 64,
                "velocity": 127,
                "duration": 0.1386364,
                "tempo": 120.0
            },
            {
                "start_time": 2.4954545,
                "end_time": 7.6931818,
                "pitch": 66,
                "velocity": 127,
                "duration": 5.1977273,
                "tempo": 120.0
            },
            {
                "start_time": 7.6931818,
                "end_time": 10.2295455,
                "pitch": 57,
                "velocity": 127,
                "duration": 2.5363636,
                "tempo": 120.0
            },
            {
                "start_time": 5.25,
                "end_time": 10.4477273,
                "pitch": 31,
                "velocity": 127,
                "duration": 5.1977273,
                "tempo": 120.0
            },
            {
                "start_time": 10.4477273,
                "end_time": 12.5318182,
                "pitch": 64,
                "velocity": 127,
                "duration": 2.0840909,
                "tempo": 120.0
            },
            {
                "start_time": 12.5613636,
                "end_time": 12.6977273,
                "pitch": 64,
                "velocity": 127,
                "duration": 0.1363636,
                "tempo": 120.0
            },
            {
                "start_time": 7.6931818,
                "end_time": 12.8886364,
                "pitch": 66,
                "velocity": 127,
                "duration": 5.1954545,
                "tempo": 120.0
            },
            {
                "start_time": 12.8886364,
                "end_time": 15.4272727,
                "pitch": 57,
                "velocity": 127,
                "duration": 2.5386364,
                "tempo": 120.0
            },
            {
                "start_time": 10.4477273,
                "end_time": 15.6431818,
                "pitch": 31,
                "velocity": 127,
                "duration": 5.1954545,
                "tempo": 120.0
            },
            {
                "start_time": 15.6431818,
                "end_time": 17.7340909,
                "pitch": 64,
                "velocity": 127,
                "duration": 2.0909091,
                "tempo": 120.0
            },
            {
                "start_time": 17.7613636,
                "end_time": 17.8954545,
                "pitch": 64,
                "velocity": 127,
                "duration": 0.1340909,
                "tempo": 120.0
            },
            {
                "start_time": 12.8886364,
                "end_time": 18.0863636,
                "pitch": 66,
                "velocity": 127,
                "duration": 5.1977273,
                "tempo": 120.0
            },
            {
                "start_time": 18.0863636,
                "end_time": 20.6227273,
                "pitch": 57,
                "velocity": 127,
                "duration": 2.5363636,
                "tempo": 120.0
            },
            {
                "start_time": 15.6431818,
                "end_time": 20.8409091,
                "pitch": 31,
                "velocity": 127,
                "duration": 5.1977273,
                "tempo": 120.0
            },
            {
                "start_time": 20.8409091,
                "end_time": 22.9318182,
                "pitch": 64,
                "velocity": 127,
                "duration": 2.0909091,
                "tempo": 120.0
            },
            {
                "start_time": 22.9590909,
                "end_time": 23.0931818,
                "pitch": 64,
                "velocity": 127,
                "duration": 0.1340909,
                "tempo": 120.0
            },
            {
                "start_time": 23.2818182,
                "end_time": 25.8204545,
                "pitch": 62,
                "velocity": 127,
                "duration": 2.5386364,
                "tempo": 120.0
            },
            {
                "start_time": 23.2818182,
                "end_time": 28.1272727,
                "pitch": 64,
                "velocity": 127,
                "duration": 4.8454545,
                "tempo": 120.0
            },
            {
                "start_time": 26.0363636,
                "end_time": 28.1272727,
                "pitch": 64,
                "velocity": 127,
                "duration": 2.0909091,
                "tempo": 120.0
            },
            {
                "start_time": 28.1545455,
                "end_time": 28.2886364,
                "pitch": 64,
                "velocity": 127,
                "duration": 0.1340909,
                "tempo": 120.0
            },
            {
                "start_time": 26.0363636,
                "end_time": 31.0159091,
                "pitch": 62,
                "velocity": 127,
                "duration": 4.9795455,
                "tempo": 120.0
            },
            {
                "start_time": 28.4772727,
                "end_time": 31.0159091,
                "pitch": 62,
                "velocity": 127,
                "duration": 2.5386364,
                "tempo": 120.0
            },
            {
                "start_time": 28.4772727,
                "end_time": 33.325,
                "pitch": 64,
                "velocity": 127,
                "duration": 4.8477273,
                "tempo": 120.0
            },
            {
                "start_time": 31.2340909,
                "end_time": 33.325,
                "pitch": 64,
                "velocity": 127,
                "duration": 2.0909091,
                "tempo": 120.0
            },
            {
                "start_time": 33.3522727,
                "end_time": 33.4863636,
                "pitch": 64,
                "velocity": 127,
                "duration": 0.1340909,
                "tempo": 120.0
            },
            {
                "start_time": 31.2340909,
                "end_time": 36.2159091,
                "pitch": 62,
                "velocity": 127,
                "duration": 4.9818182,
                "tempo": 120.0
            },
            {
                "start_time": 33.675,
                "end_time": 36.2159091,
                "pitch": 62,
                "velocity": 127,
                "duration": 2.5409091,
                "tempo": 120.0
            },
            {
                "start_time": 33.675,
                "end_time": 38.5204545,
                "pitch": 64,
                "velocity": 127,
                "duration": 4.8454545,
                "tempo": 120.0
            },
            {
                "start_time": 36.4409091,
                "end_time": 38.5204545,
                "pitch": 64,
                "velocity": 127,
                "duration": 2.0795455,
                "tempo": 120.0
            },
            {
                "start_time": 38.5477273,
                "end_time": 38.6818182,
                "pitch": 64,
                "velocity": 127,
                "duration": 0.1340909,
                "tempo": 120.0
            },
            {
                "start_time": 18.0863636,
                "end_time": 38.8704545,
                "pitch": 66,
                "velocity": 127,
                "duration": 20.7840909,
                "tempo": 120.0
            },
            {
                "start_time": 38.8704545,
                "end_time": 41.4090909,
                "pitch": 57,
                "velocity": 127,
                "duration": 2.5386364,
                "tempo": 120.0
            },
            {
                "start_time": 20.8409091,
                "end_time": 41.6272727,
                "pitch": 31,
                "velocity": 127,
                "duration": 20.7863636,
                "tempo": 120.0
            },
            {
                "start_time": 41.6272727,
                "end_time": 43.7181818,
                "pitch": 64,
                "velocity": 127,
                "duration": 2.0909091,
                "tempo": 120.0
            },
            {
                "start_time": 43.7454545,
                "end_time": 43.8795455,
                "pitch": 64,
                "velocity": 127,
                "duration": 0.1340909,
                "tempo": 120.0
            },
            {
                "start_time": 38.8704545,
                "end_time": 44.0681818,
                "pitch": 66,
                "velocity": 127,
                "duration": 5.1977273,
                "tempo": 120.0
            },
            {
                "start_time": 44.0681818,
                "end_time": 46.6068182,
                "pitch": 57,
                "velocity": 127,
                "duration": 2.5386364,
                "tempo": 120.0
            },
            {
                "start_time": 41.6272727,
                "end_time": 46.8227273,
                "pitch": 31,
                "velocity": 127,
                "duration": 5.1954545,
                "tempo": 120.0
            },
            {
                "start_time": 46.8227273,
                "end_time": 48.9136364,
                "pitch": 64,
                "velocity": 127,
                "duration": 2.0909091,
                "tempo": 120.0
            },
            {
                "start_time": 48.9409091,
                "end_time": 49.075,
                "pitch": 64,
                "velocity": 127,
                "duration": 0.1340909,
                "tempo": 120.0
            },
            {
                "start_time": 36.4409091,
                "end_time": 51.8022727,
                "pitch": 62,
                "velocity": 127,
                "duration": 15.3613636,
                "tempo": 120.0
            },
            {
                "start_time": 49.2636364,
                "end_time": 51.8022727,
                "pitch": 62,
                "velocity": 127,
                "duration": 2.5386364,
                "tempo": 120.0
            },
            {
                "start_time": 49.2636364,
                "end_time": 54.1113636,
                "pitch": 64,
                "velocity": 127,
                "duration": 4.8477273,
                "tempo": 120.0
            },
            {
                "start_time": 52.0204545,
                "end_time": 54.1113636,
                "pitch": 64,
                "velocity": 127,
                "duration": 2.0909091,
                "tempo": 120.0
            },
            {
                "start_time": 54.1386364,
                "end_time": 54.2727273,
                "pitch": 64,
                "velocity": 127,
                "duration": 0.1340909,
                "tempo": 120.0
            },
            {
                "start_time": 52.0204545,
                "end_time": 57.0,
                "pitch": 62,
                "velocity": 127,
                "duration": 4.9795455,
                "tempo": 120.0
            },
            {
                "start_time": 54.4613636,
                "end_time": 57.0,
                "pitch": 62,
                "velocity": 127,
                "duration": 2.5386364,
                "tempo": 120.0
            },
            {
                "start_time": 54.4613636,
                "end_time": 59.6022727,
                "pitch": 64,
                "velocity": 127,
                "duration": 5.1409091,
                "tempo": 120.0
            },
            {
                "start_time": 57.2159091,
                "end_time": 59.6022727,
                "pitch": 64,
                "velocity": 127,
                "duration": 2.3863636,
                "tempo": 120.0
            },
            {
                "start_time": 59.8181818,
                "end_time": 61.6590909,
                "pitch": 64,
                "velocity": 127,
                "duration": 1.8409091,
                "tempo": 120.0
            },
            {
                "start_time": 44.0681818,
                "end_time": 62.0613636,
                "pitch": 66,
                "velocity": 127,
                "duration": 17.9931818,
                "tempo": 120.0
            },
            {
                "start_time": 61.9272727,
                "end_time": 62.0613636,
                "pitch": 66,
                "velocity": 127,
                "duration": 0.1340909,
                "tempo": 120.0
            },
            {
                "start_time": 62.4113636,
                "end_time": 67.3954545,
                "pitch": 66,
                "velocity": 127,
                "duration": 4.9840909,
                "tempo": 120.0
            },
            {
                "start_time": 67.6204545,
                "end_time": 69.7,
                "pitch": 64,
                "velocity": 127,
                "duration": 2.0795455,
                "tempo": 120.0
            },
            {
                "start_time": 69.7272727,
                "end_time": 69.8613636,
                "pitch": 64,
                "velocity": 127,
                "duration": 0.1340909,
                "tempo": 120.0
            },
            {
                "start_time": 70.05,
                "end_time": 72.5886364,
                "pitch": 57,
                "velocity": 127,
                "duration": 2.5386364,
                "tempo": 120.0
            },
            {
                "start_time": 46.8227273,
                "end_time": 72.8045455,
                "pitch": 31,
                "velocity": 127,
                "duration": 25.9818182,
                "tempo": 120.0
            },
            {
                "start_time": 72.8045455,
                "end_time": 74.8977273,
                "pitch": 64,
                "velocity": 127,
                "duration": 2.0931818,
                "tempo": 120.0
            },
            {
                "start_time": 74.925,
                "end_time": 75.0590909,
                "pitch": 64,
                "velocity": 127,
                "duration": 0.1340909,
                "tempo": 120.0
            },
            {
                "start_time": 70.05,
                "end_time": 75.2477273,
                "pitch": 66,
                "velocity": 127,
                "duration": 5.1977273,
                "tempo": 120.0
            },
            {
                "start_time": 75.2477273,
                "end_time": 77.7886364,
                "pitch": 57,
                "velocity": 127,
                "duration": 2.5409091,
                "tempo": 120.0
            },
            {
                "start_time": 72.8045455,
                "end_time": 78.0136364,
                "pitch": 31,
                "velocity": 127,
                "duration": 5.2090909,
                "tempo": 120.0
            },
            {
                "start_time": 78.0136364,
                "end_time": 78.3340909,
                "pitch": 64,
                "velocity": 127,
                "duration": 0.3204545,
                "tempo": 120.0
            }
        ],
        "Lead 2 (sawtooth)": [
            {
                "start_time": 10.4477273,
                "end_time": 10.5840909,
                "pitch": 64,
                "velocity": 127,
                "duration": 0.1363636,
                "tempo": 120.0
            },
            {
                "start_time": 11.2636364,
                "end_time": 11.3977273,
                "pitch": 71,
                "velocity": 127,
                "duration": 0.1340909,
                "tempo": 120.0
            },
            {
                "start_time": 12.2318182,
                "end_time": 12.3659091,
                "pitch": 76,
                "velocity": 127,
                "duration": 0.1340909,
                "tempo": 120.0
            },
            {
                "start_time": 12.8886364,
                "end_time": 13.0227273,
                "pitch": 74,
                "velocity": 127,
                "duration": 0.1340909,
                "tempo": 120.0
            },
            {
                "start_time": 13.5340909,
                "end_time": 13.6681818,
                "pitch": 74,
                "velocity": 127,
                "duration": 0.1340909,
                "tempo": 120.0
            },
            {
                "start_time": 13.8568182,
                "end_time": 13.9909091,
                "pitch": 73,
                "velocity": 127,
                "duration": 0.1340909,
                "tempo": 120.0
            },
            {
                "start_time": 14.1840909,
                "end_time": 14.3227273,
                "pitch": 71,
                "velocity": 127,
                "duration": 0.1386364,
                "tempo": 120.0
            },
            {
                "start_time": 14.8363636,
                "end_time": 14.9704545,
                "pitch": 71,
                "velocity": 127,
                "duration": 0.1340909,
                "tempo": 120.0
            },
            {
                "start_time": 15.1590909,
                "end_time": 15.2931818,
                "pitch": 69,
                "velocity": 127,
                "duration": 0.1340909,
                "tempo": 120.0
            },
            {
                "start_time": 15.4818182,
                "end_time": 15.6159091,
                "pitch": 66,
                "velocity": 127,
                "duration": 0.1340909,
                "tempo": 120.0
            },
            {
                "start_time": 16.7818182,
                "end_time": 16.9181818,
                "pitch": 62,
                "velocity": 127,
                "duration": 0.1363636,
                "tempo": 120.0
            },
            {
                "start_time": 17.4340909,
                "end_time": 17.5727273,
                "pitch": 64,
                "velocity": 127,
                "duration": 0.1386364,
                "tempo": 120.0
            },
            {
                "start_time": 17.7636364,
                "end_time": 17.8954545,
                "pitch": 64,
                "velocity": 127,
                "duration": 0.1318182,
                "tempo": 120.0
            },
            {
                "start_time": 11.2636364,
                "end_time": 18.0863636,
                "pitch": 78,
                "velocity": 127,
                "duration": 6.8227273,
                "tempo": 120.0
            },
            {
                "start_time": 18.0863636,
                "end_time": 18.2181818,
                "pitch": 67,
                "velocity": 127,
                "duration": 0.1318182,
                "tempo": 120.0
            },
            {
                "start_time": 19.3818182,
                "end_time": 19.5204545,
                "pitch": 69,
                "velocity": 127,
                "duration": 0.1386364,
                "tempo": 120.0
            },
            {
                "start_time": 21.9795455,
                "end_time": 22.1136364,
                "pitch": 64,
                "velocity": 127,
                "duration": 0.1340909,
                "tempo": 120.0
            },
            {
                "start_time": 18.0863636,
                "end_time": 22.7977273,
                "pitch": 78,
                "velocity": 127,
                "duration": 4.7113636,
                "tempo": 120.0
            },
            {
                "start_time": 22.7977273,
                "end_time": 22.9318182,
                "pitch": 71,
                "velocity": 127,
                "duration": 0.1340909,
                "tempo": 120.0
            },
            {
                "start_time": 12.2318182,
                "end_time": 23.4431818,
                "pitch": 56,
                "velocity": 127,
                "duration": 11.2113636,
                "tempo": 120.0
            },
            {
                "start_time": 12.8886364,
                "end_time": 23.5772727,
                "pitch": 76,
                "velocity": 127,
                "duration": 10.6886364,
                "tempo": 120.0
            },
            {
                "start_time": 23.4431818,
                "end_time": 23.5772727,
                "pitch": 76,
                "velocity": 127,
                "duration": 0.1340909,
                "tempo": 120.0
            },
            {
                "start_time": 23.9272727,
                "end_time": 24.0613636,
                "pitch": 74,
                "velocity": 127,
                "duration": 0.1340909,
                "tempo": 120.0
            },
            {
                "start_time": 24.5772727,
                "end_time": 24.7159091,
                "pitch": 74,
                "velocity": 127,
                "duration": 0.1386364,
                "tempo": 120.0
            },
            {
                "start_time": 24.9045455,
                "end_time": 25.0409091,
                "pitch": 73,
                "velocity": 127,
                "duration": 0.1363636,
                "tempo": 120.0
            },
            {
                "start_time": 14.1840909,
                "end_time": 25.2295455,
                "pitch": 77,
                "velocity": 127,
                "duration": 11.0454545,
                "tempo": 120.0
            },
            {
                "start_time": 25.2295455,
                "end_time": 25.3636364,
                "pitch": 71,
                "velocity": 127,
                "duration": 0.1340909,
                "tempo": 120.0
            },
            {
                "start_time": 25.7136364,
                "end_time": 25.8477273,
                "pitch": 71,
                "velocity": 127,
                "duration": 0.1340909,
                "tempo": 120.0
            },
            {
                "start_time": 26.0363636,
                "end_time": 26.175,
                "pitch": 69,
                "velocity": 127,
                "duration": 0.1386364,
                "tempo": 120.0
            }
        ],
        "Acoustic Grand Piano": [
            {
                "start_time": 36.4431818,
                "end_time": 36.7090909,
                "pitch": 76,
                "velocity": 101,
                "duration": 0.2659091,
                "tempo": 120.0
            },
            {
                "start_time": 36.7613636,
                "end_time": 36.8954545,
                "pitch": 74,
                "velocity": 101,
                "duration": 0.1340909,
                "tempo": 120.0
            },
            {
                "start_time": 36.9227273,
                "end_time": 37.0568182,
                "pitch": 74,
                "velocity": 101,
                "duration": 0.1340909,
                "tempo": 120.0
            },
            {
                "start_time": 37.0863636,
                "end_time": 37.2181818,
                "pitch": 69,
                "velocity": 101,
                "duration": 0.1318182,
                "tempo": 120.0
            },
            {
                "start_time": 37.2477273,
                "end_time": 37.3795455,
                "pitch": 64,
                "velocity": 101,
                "duration": 0.1318182,
                "tempo": 120.0
            },
            {
                "start_time": 36.7613636,
                "end_time": 38.0,
                "pitch": 76,
                "velocity": 101,
                "duration": 1.2386364,
                "tempo": 120.0
            },
            {
                "start_time": 37.5704545,
                "end_time": 38.0,
                "pitch": 76,
                "velocity": 101,
                "duration": 0.4295455,
                "tempo": 120.0
            },
            {
                "start_time": 38.0545455,
                "end_time": 38.1909091,
                "pitch": 74,
                "velocity": 101,
                "duration": 0.1363636,
                "tempo": 120.0
            },
            {
                "start_time": 38.2204545,
                "end_time": 38.3590909,
                "pitch": 74,
                "velocity": 101,
                "duration": 0.1386364,
                "tempo": 120.0
            },
            {
                "start_time": 37.0863636,
                "end_time": 38.3886364,
                "pitch": 77,
                "velocity": 101,
                "duration": 1.3022727,
                "tempo": 120.0
            },
            {
                "start_time": 38.3886364,
                "end_time": 38.5204545,
                "pitch": 69,
                "velocity": 101,
                "duration": 0.1318182,
                "tempo": 120.0
            },
            {
                "start_time": 37.2477273,
                "end_time": 38.55,
                "pitch": 31,
                "velocity": 101,
                "duration": 1.3022727,
                "tempo": 120.0
            },
            {
                "start_time": 38.55,
                "end_time": 38.6818182,
                "pitch": 64,
                "velocity": 101,
                "duration": 0.1318182,
                "tempo": 120.0
            },
            {
                "start_time": 38.0545455,
                "end_time": 38.8727273,
                "pitch": 76,
                "velocity": 101,
                "duration": 0.8181818,
                "tempo": 120.0
            },
            {
                "start_time": 38.8727273,
                "end_time": 39.3022727,
                "pitch": 74,
                "velocity": 101,
                "duration": 0.4295455,
                "tempo": 120.0
            },
            {
                "start_time": 39.8386364,
                "end_time": 39.9727273,
                "pitch": 64,
                "velocity": 101,
                "duration": 0.1340909,
                "tempo": 120.0
            },
            {
                "start_time": 38.8727273,
                "end_time": 40.1681818,
                "pitch": 76,
                "velocity": 101,
                "duration": 1.2954545,
                "tempo": 120.0
            },
            {
                "start_time": 40.1681818,
                "end_time": 41.4363636,
                "pitch": 74,
                "velocity": 101,
                "duration": 1.2681818,
                "tempo": 120.0
            },
            {
                "start_time": 41.4636364,
                "end_time": 41.5977273,
                "pitch": 74,
                "velocity": 101,
                "duration": 0.1340909,
                "tempo": 120.0
            },
            {
                "start_time": 41.6272727,
                "end_time": 41.6295455,
                "pitch": 74,
                "velocity": 101,
                "duration": 0.0022727,
                "tempo": 120.0
            },
            {
                "start_time": 40.1681818,
                "end_time": 41.9022727,
                "pitch": 76,
                "velocity": 101,
                "duration": 1.7340909,
                "tempo": 120.0
            },
            {
                "start_time": 41.6295455,
                "end_time": 41.9022727,
                "pitch": 76,
                "velocity": 101,
                "duration": 0.2727273,
                "tempo": 120.0
            },
            {
                "start_time": 41.9590909,
                "end_time": 42.0931818,
                "pitch": 74,
                "velocity": 101,
                "duration": 0.1340909,
                "tempo": 120.0
            },
            {
                "start_time": 42.1204545,
                "end_time": 42.2545455,
                "pitch": 74,
                "velocity": 101,
                "duration": 0.1340909,
                "tempo": 120.0
            },
            {
                "start_time": 38.3886364,
                "end_time": 42.2818182,
                "pitch": 77,
                "velocity": 101,
                "duration": 3.8931818,
                "tempo": 120.0
            },
            {
                "start_time": 42.2818182,
                "end_time": 42.4159091,
                "pitch": 69,
                "velocity": 101,
                "duration": 0.1340909,
                "tempo": 120.0
            },
            {
                "start_time": 38.55,
                "end_time": 42.4431818,
                "pitch": 31,
                "velocity": 101,
                "duration": 3.8931818,
                "tempo": 120.0
            },
            {
                "start_time": 42.4431818,
                "end_time": 42.5772727,
                "pitch": 64,
                "velocity": 101,
                "duration": 0.1340909,
                "tempo": 120.0
            },
            {
                "start_time": 41.9590909,
                "end_time": 43.1954545,
                "pitch": 76,
                "velocity": 101,
                "duration": 1.2363636,
                "tempo": 120.0
            },
            {
                "start_time": 42.7659091,
                "end_time": 43.1954545,
                "pitch": 76,
                "velocity": 101,
                "duration": 0.4295455,
                "tempo": 120.0
            },
            {
                "start_time": 43.25,
                "end_time": 43.3886364,
                "pitch": 74,
                "velocity": 101,
                "duration": 0.1386364,
                "tempo": 120.0
            },
            {
                "start_time": 43.4159091,
                "end_time": 43.5545455,
                "pitch": 74,
                "velocity": 101,
                "duration": 0.1386364,
                "tempo": 120.0
            },
            {
                "start_time": 42.2818182,
                "end_time": 43.5840909,
                "pitch": 77,
                "velocity": 101,
                "duration": 1.3022727,
                "tempo": 120.0
            },
            {
                "start_time": 43.5840909,
                "end_time": 43.7181818,
                "pitch": 69,
                "velocity": 101,
                "duration": 0.1340909,
                "tempo": 120.0
            },
            {
                "start_time": 42.4431818,
                "end_time": 43.7454545,
                "pitch": 31,
                "velocity": 101,
                "duration": 1.3022727,
                "tempo": 120.0
            },
            {
                "start_time": 43.7454545,
                "end_time": 43.8795455,
                "pitch": 64,
                "velocity": 101,
                "duration": 0.1340909,
                "tempo": 120.0
            },
            {
                "start_time": 43.25,
                "end_time": 44.0704545,
                "pitch": 76,
                "velocity": 101,
                "duration": 0.8204545,
                "tempo": 120.0
            },
            {
                "start_time": 44.0681818,
                "end_time": 44.0704545,
                "pitch": 76,
                "velocity": 101,
                "duration": 0.0022727,
                "tempo": 120.0
            },
            {
                "start_time": 44.0704545,
                "end_time": 44.4977273,
                "pitch": 74,
                "velocity": 101,
                "duration": 0.4272727,
                "tempo": 120.0
            },
            {
                "start_time": 39.8386364,
                "end_time": 45.0363636,
                "pitch": 62,
                "velocity": 101,
                "duration": 5.1977273,
                "tempo": 120.0
            },
            {
                "start_time": 45.0363636,
                "end_time": 45.1704545,
                "pitch": 64,
                "velocity": 101,
                "duration": 0.1340909,
                "tempo": 120.0
            },
            {
                "start_time": 45.3636364,
                "end_time": 78.3340909,
                "pitch": 74,
                "velocity": 101,
                "duration": 32.9704545,
                "tempo": 120.0
            }
        ],
        "Electric Guitar (clean)": [
            {
                "start_time": 0.0568182,
                "end_time": 0.1613636,
                "pitch": 40,
                "velocity": 127,
                "duration": 0.1045455,
                "tempo": 120.0
            },
            {
                "start_time": 0.2136364,
                "end_time": 0.3227273,
                "pitch": 40,
                "velocity": 127,
                "duration": 0.1090909,
                "tempo": 120.0
            },
            {
                "start_time": 0.375,
                "end_time": 0.4863636,
                "pitch": 47,
                "velocity": 127,
                "duration": 0.1113636,
                "tempo": 120.0
            },
            {
                "start_time": 0.5431818,
                "end_time": 0.8159091,
                "pitch": 40,
                "velocity": 127,
                "duration": 0.2727273,
                "tempo": 120.0
            },
            {
                "start_time": 0.8704545,
                "end_time": 0.9772727,
                "pitch": 35,
                "velocity": 127,
                "duration": 0.1068182,
                "tempo": 120.0
            },
            {
                "start_time": 0.5431818,
                "end_time": 1.0318182,
                "pitch": 19,
                "velocity": 127,
                "duration": 0.4886364,
                "tempo": 120.0
            },
            {
                "start_time": 1.0318182,
                "end_time": 1.1386364,
                "pitch": 40,
                "velocity": 127,
                "duration": 0.1068182,
                "tempo": 120.0
            },
            {
                "start_time": 1.1931818,
                "end_time": 1.3,
                "pitch": 40,
                "velocity": 127,
                "duration": 0.1068182,
                "tempo": 120.0
            },
            {
                "start_time": 1.3568182,
                "end_time": 1.4613636,
                "pitch": 40,
                "velocity": 127,
                "duration": 0.1045455,
                "tempo": 120.0
            },
            {
                "start_time": 1.5159091,
                "end_time": 1.6227273,
                "pitch": 40,
                "velocity": 127,
                "duration": 0.1068182,
                "tempo": 120.0
            },
            {
                "start_time": 0.375,
                "end_time": 1.6772727,
                "pitch": 54,
                "velocity": 127,
                "duration": 1.3022727,
                "tempo": 120.0
            },
            {
                "start_time": 1.6772727,
                "end_time": 1.7840909,
                "pitch": 47,
                "velocity": 127,
                "duration": 0.1068182,
                "tempo": 120.0
            },
            {
                "start_time": 1.0318182,
                "end_time": 1.8386364,
                "pitch": 19,
                "velocity": 127,
                "duration": 0.8068182,
                "tempo": 120.0
            },
            {
                "start_time": 1.8386364,
                "end_time": 2.1113636,
                "pitch": 40,
                "velocity": 127,
                "duration": 0.2727273,
                "tempo": 120.0
            },
            {
                "start_time": 0.8704545,
                "end_time": 2.1681818,
                "pitch": 42,
                "velocity": 127,
                "duration": 1.2977273,
                "tempo": 120.0
            },
            {
                "start_time": 2.1681818,
                "end_time": 2.2772727,
                "pitch": 35,
                "velocity": 127,
                "duration": 0.1090909,
                "tempo": 120.0
            },
            {
                "start_time": 1.8386364,
                "end_time": 2.3340909,
                "pitch": 19,
                "velocity": 127,
                "duration": 0.4954545,
                "tempo": 120.0
            },
            {
                "start_time": 2.3340909,
                "end_time": 2.4409091,
                "pitch": 40,
                "velocity": 127,
                "duration": 0.1068182,
                "tempo": 120.0
            },
            {
                "start_time": 2.4954545,
                "end_time": 2.6022727,
                "pitch": 40,
                "velocity": 127,
                "duration": 0.1068182,
                "tempo": 120.0
            },
            {
                "start_time": 1.6772727,
                "end_time": 2.6590909,
                "pitch": 54,
                "velocity": 127,
                "duration": 0.9818182,
                "tempo": 120.0
            },
            {
                "start_time": 2.6590909,
                "end_time": 2.7636364,
                "pitch": 43,
                "velocity": 127,
                "duration": 0.1045455,
                "tempo": 120.0
            },
            {
                "start_time": 2.8181818,
                "end_time": 2.925,
                "pitch": 43,
                "velocity": 127,
                "duration": 0.1068182,
                "tempo": 120.0
            },
            {
                "start_time": 0.0568182,
                "end_time": 2.9795455,
                "pitch": 0,
                "velocity": 127,
                "duration": 2.9227273,
                "tempo": 120.0
            },
            {
                "start_time": 2.9795455,
                "end_time": 3.0863636,
                "pitch": 38,
                "velocity": 127,
                "duration": 0.1068182,
                "tempo": 120.0
            },
            {
                "start_time": 3.1409091,
                "end_time": 3.4090909,
                "pitch": 43,
                "velocity": 127,
                "duration": 0.2681818,
                "tempo": 120.0
            },
            {
                "start_time": 2.9795455,
                "end_time": 3.4636364,
                "pitch": 0,
                "velocity": 127,
                "duration": 0.4840909,
                "tempo": 120.0
            },
            {
                "start_time": 3.4636364,
                "end_time": 3.5704545,
                "pitch": 36,
                "velocity": 127,
                "duration": 0.1068182,
                "tempo": 120.0
            },
            {
                "start_time": 3.625,
                "end_time": 3.7363636,
                "pitch": 43,
                "velocity": 127,
                "duration": 0.1113636,
                "tempo": 120.0
            },
            {
                "start_time": 3.7909091,
                "end_time": 3.9022727,
                "pitch": 43,
                "velocity": 127,
                "duration": 0.1113636,
                "tempo": 120.0
            },
            {
                "start_time": 3.9590909,
                "end_time": 4.0659091,
                "pitch": 43,
                "velocity": 127,
                "duration": 0.1068182,
                "tempo": 120.0
            },
            {
                "start_time": 4.1204545,
                "end_time": 4.2272727,
                "pitch": 43,
                "velocity": 127,
                "duration": 0.1068182,
                "tempo": 120.0
            },
            {
                "start_time": 3.4636364,
                "end_time": 4.2818182,
                "pitch": 0,
                "velocity": 127,
                "duration": 0.8181818,
                "tempo": 120.0
            },
            {
                "start_time": 4.2818182,
                "end_time": 4.3886364,
                "pitch": 38,
                "velocity": 127,
                "duration": 0.1068182,
                "tempo": 120.0
            },
            {
                "start_time": 3.1409091,
                "end_time": 4.4431818,
                "pitch": 53,
                "velocity": 127,
                "duration": 1.3022727,
                "tempo": 120.0
            },
            {
                "start_time": 4.4431818,
                "end_time": 4.7113636,
                "pitch": 43,
                "velocity": 127,
                "duration": 0.2681818,
                "tempo": 120.0
            },
            {
                "start_time": 4.2818182,
                "end_time": 4.7659091,
                "pitch": 0,
                "velocity": 127,
                "duration": 0.4840909,
                "tempo": 120.0
            },
            {
                "start_time": 4.7659091,
                "end_time": 4.8727273,
                "pitch": 36,
                "velocity": 127,
                "duration": 0.1068182,
                "tempo": 120.0
            },
            {
                "start_time": 3.625,
                "end_time": 4.9272727,
                "pitch": 52,
                "velocity": 127,
                "duration": 1.3022727,
                "tempo": 120.0
            },
            {
                "start_time": 4.9272727,
                "end_time": 5.0340909,
                "pitch": 43,
                "velocity": 127,
                "duration": 0.1068182,
                "tempo": 120.0
            },
            {
                "start_time": 5.0886364,
                "end_time": 5.1954545,
                "pitch": 43,
                "velocity": 127,
                "duration": 0.1068182,
                "tempo": 120.0
            },
            {
                "start_time": 4.7659091,
                "end_time": 5.2522727,
                "pitch": 0,
                "velocity": 127,
                "duration": 0.4863636,
                "tempo": 120.0
            },
            {
                "start_time": 5.2522727,
                "end_time": 5.3613636,
                "pitch": 40,
                "velocity": 127,
                "duration": 0.1090909,
                "tempo": 120.0
            },
            {
                "start_time": 5.4159091,
                "end_time": 5.5272727,
                "pitch": 40,
                "velocity": 127,
                "duration": 0.1113636,
                "tempo": 120.0
            },
            {
                "start_time": 2.6590909,
                "end_time": 5.5818182,
                "pitch": 54,
                "velocity": 127,
                "duration": 2.9227273,
                "tempo": 120.0
            },
            {
                "start_time": 5.5818182,
                "end_time": 5.6909091,
                "pitch": 47,
                "velocity": 127,
                "duration": 0.1090909,
                "tempo": 120.0
            },
            {
                "start_time": 2.3340909,
                "end_time": 5.7454545,
                "pitch": 19,
                "velocity": 127,
                "duration": 3.4113636,
                "tempo": 120.0
            },
            {
                "start_time": 5.7454545,
                "end_time": 6.0136364,
                "pitch": 40,
                "velocity": 127,
                "duration": 0.2681818,
                "tempo": 120.0
            },
            {
                "start_time": 2.1681818,
                "end_time": 6.0681818,
                "pitch": 42,
                "velocity": 127,
                "duration": 3.9,
                "tempo": 120.0
            },
            {
                "start_time": 6.0681818,
                "end_time": 6.175,
                "pitch": 35,
                "velocity": 127,
                "duration": 0.1068182,
                "tempo": 120.0
            },
            {
                "start_time": 5.7454545,
                "end_time": 6.2295455,
                "pitch": 19,
                "velocity": 127,
                "duration": 0.4840909,
                "tempo": 120.0
            },
            {
                "start_time": 6.2295455,
                "end_time": 6.3363636,
                "pitch": 40,
                "velocity": 127,
                "duration": 0.1068182,
                "tempo": 120.0
            },
            {
                "start_time": 6.3909091,
                "end_time": 6.4977273,
                "pitch": 40,
                "velocity": 127,
                "duration": 0.1068182,
                "tempo": 120.0
            },
            {
                "start_time": 6.5522727,
                "end_time": 6.6590909,
                "pitch": 40,
                "velocity": 127,
                "duration": 0.1068182,
                "tempo": 120.0
            },
            {
                "start_time": 6.7136364,
                "end_time": 6.8204545,
                "pitch": 40,
                "velocity": 127,
                "duration": 0.1068182,
                "tempo": 120.0
            },
            {
                "start_time": 5.5818182,
                "end_time": 6.875,
                "pitch": 54,
                "velocity": 127,
                "duration": 1.2931818,
                "tempo": 120.0
            },
            {
                "start_time": 6.875,
                "end_time": 6.9818182,
                "pitch": 47,
                "velocity": 127,
                "duration": 0.1068182,
                "tempo": 120.0
            },
            {
                "start_time": 6.2295455,
                "end_time": 7.0363636,
                "pitch": 19,
                "velocity": 127,
                "duration": 0.8068182,
                "tempo": 120.0
            },
            {
                "start_time": 7.0363636,
                "end_time": 7.3068182,
                "pitch": 40,
                "velocity": 127,
                "duration": 0.2704545,
                "tempo": 120.0
            },
            {
                "start_time": 6.0681818,
                "end_time": 7.3636364,
                "pitch": 42,
                "velocity": 127,
                "duration": 1.2954545,
                "tempo": 120.0
            },
            {
                "start_time": 7.3636364,
                "end_time": 7.475,
                "pitch": 35,
                "velocity": 127,
                "duration": 0.1113636,
                "tempo": 120.0
            },
            {
                "start_time": 7.0363636,
                "end_time": 7.5318182,
                "pitch": 19,
                "velocity": 127,
                "duration": 0.4954545,
                "tempo": 120.0
            },
            {
                "start_time": 7.5318182,
                "end_time": 7.6386364,
                "pitch": 40,
                "velocity": 127,
                "duration": 0.1068182,
                "tempo": 120.0
            },
            {
                "start_time": 7.6931818,
                "end_time": 7.8,
                "pitch": 40,
                "velocity": 127,
                "duration": 0.1068182,
                "tempo": 120.0
            },
            {
                "start_time": 6.875,
                "end_time": 7.8545455,
                "pitch": 54,
                "velocity": 127,
                "duration": 0.9795455,
                "tempo": 120.0
            },
            {
                "start_time": 7.8545455,
                "end_time": 7.9613636,
                "pitch": 43,
                "velocity": 127,
                "duration": 0.1068182,
                "tempo": 120.0
            },
            {
                "start_time": 8.0136364,
                "end_time": 8.1227273,
                "pitch": 43,
                "velocity": 127,
                "duration": 0.1090909,
                "tempo": 120.0
            },
            {
                "start_time": 5.2522727,
                "end_time": 8.175,
                "pitch": 0,
                "velocity": 127,
                "duration": 2.9227273,
                "tempo": 120.0
            },
            {
                "start_time": 8.175,
                "end_time": 8.2840909,
                "pitch": 38,
                "velocity": 127,
                "duration": 0.1090909,
                "tempo": 120.0
            },
            {
                "start_time": 4.4431818,
                "end_time": 8.3363636,
                "pitch": 53,
                "velocity": 127,
                "duration": 3.8931818,
                "tempo": 120.0
            },
            {
                "start_time": 8.3363636,
                "end_time": 8.6068182,
                "pitch": 43,
                "velocity": 127,
                "duration": 0.2704545,
                "tempo": 120.0
            },
            {
                "start_time": 8.175,
                "end_time": 8.6590909,
                "pitch": 0,
                "velocity": 127,
                "duration": 0.4840909,
                "tempo": 120.0
            },
            {
                "start_time": 8.6590909,
                "end_time": 8.7681818,
                "pitch": 36,
                "velocity": 127,
                "duration": 0.1090909,
                "tempo": 120.0
            },
            {
                "start_time": 4.9272727,
                "end_time": 8.8204545,
                "pitch": 52,
                "velocity": 127,
                "duration": 3.8931818,
                "tempo": 120.0
            },
            {
                "start_time": 8.8204545,
                "end_time": 8.9318182,
                "pitch": 43,
                "velocity": 127,
                "duration": 0.1113636,
                "tempo": 120.0
            },
            {
                "start_time": 8.9886364,
                "end_time": 9.1,
                "pitch": 43,
                "velocity": 127,
                "duration": 0.1113636,
                "tempo": 120.0
            },
            {
                "start_time": 9.1568182,
                "end_time": 9.2613636,
                "pitch": 43,
                "velocity": 127,
                "duration": 0.1045455,
                "tempo": 120.0
            },
            {
                "start_time": 9.3159091,
                "end_time": 9.4227273,
                "pitch": 43,
                "velocity": 127,
                "duration": 0.1068182,
                "tempo": 120.0
            },
            {
                "start_time": 8.6590909,
                "end_time": 9.4772727,
                "pitch": 0,
                "velocity": 127,
                "duration": 0.8181818,
                "tempo": 120.0
            },
            {
                "start_time": 9.4772727,
                "end_time": 9.5840909,
                "pitch": 38,
                "velocity": 127,
                "duration": 0.1068182,
                "tempo": 120.0
            },
            {
                "start_time": 8.3363636,
                "end_time": 9.6386364,
                "pitch": 53,
                "velocity": 127,
                "duration": 1.3022727,
                "tempo": 120.0
            },
            {
                "start_time": 9.6386364,
                "end_time": 9.9068182,
                "pitch": 43,
                "velocity": 127,
                "duration": 0.2681818,
                "tempo": 120.0
            },
            {
                "start_time": 9.4772727,
                "end_time": 9.9613636,
                "pitch": 0,
                "velocity": 127,
                "duration": 0.4840909,
                "tempo": 120.0
            },
            {
                "start_time": 9.9613636,
                "end_time": 10.0681818,
                "pitch": 36,
                "velocity": 127,
                "duration": 0.1068182,
                "tempo": 120.0
            },
            {
                "start_time": 8.8204545,
                "end_time": 10.1227273,
                "pitch": 52,
                "velocity": 127,
                "duration": 1.3022727,
                "tempo": 120.0
            },
            {
                "start_time": 10.1227273,
                "end_time": 10.2318182,
                "pitch": 43,
                "velocity": 127,
                "duration": 0.1090909,
                "tempo": 120.0
            },
            {
                "start_time": 10.2840909,
                "end_time": 10.3931818,
                "pitch": 43,
                "velocity": 127,
                "duration": 0.1090909,
                "tempo": 120.0
            },
            {
                "start_time": 9.9613636,
                "end_time": 10.45,
                "pitch": 0,
                "velocity": 127,
                "duration": 0.4886364,
                "tempo": 120.0
            },
            {
                "start_time": 10.45,
                "end_time": 10.5568182,
                "pitch": 40,
                "velocity": 127,
                "duration": 0.1068182,
                "tempo": 120.0
            },
            {
                "start_time": 10.6136364,
                "end_time": 10.7227273,
                "pitch": 40,
                "velocity": 127,
                "duration": 0.1090909,
                "tempo": 120.0
            },
            {
                "start_time": 7.8545455,
                "end_time": 10.7795455,
                "pitch": 54,
                "velocity": 127,
                "duration": 2.925,
                "tempo": 120.0
            },
            {
                "start_time": 10.7795455,
                "end_time": 10.8863636,
                "pitch": 47,
                "velocity": 127,
                "duration": 0.1068182,
                "tempo": 120.0
            },
            {
                "start_time": 7.5318182,
                "end_time": 10.9409091,
                "pitch": 19,
                "velocity": 127,
                "duration": 3.4090909,
                "tempo": 120.0
            },
            {
                "start_time": 10.9409091,
                "end_time": 11.2090909,
                "pitch": 40,
                "velocity": 127,
                "duration": 0.2681818,
                "tempo": 120.0
            },
            {
                "start_time": 7.3636364,
                "end_time": 11.2636364,
                "pitch": 42,
                "velocity": 127,
                "duration": 3.9,
                "tempo": 120.0
            },
            {
                "start_time": 11.2636364,
                "end_time": 11.3704545,
                "pitch": 35,
                "velocity": 127,
                "duration": 0.1068182,
                "tempo": 120.0
            },
            {
                "start_time": 10.9409091,
                "end_time": 11.425,
                "pitch": 19,
                "velocity": 127,
                "duration": 0.4840909,
                "tempo": 120.0
            },
            {
                "start_time": 11.425,
                "end_time": 11.5318182,
                "pitch": 40,
                "velocity": 127,
                "duration": 0.1068182,
                "tempo": 120.0
            },
            {
                "start_time": 11.5863636,
                "end_time": 11.6931818,
                "pitch": 40,
                "velocity": 127,
                "duration": 0.1068182,
                "tempo": 120.0
            },
            {
                "start_time": 11.75,
                "end_time": 11.8545455,
                "pitch": 40,
                "velocity": 127,
                "duration": 0.1045455,
                "tempo": 120.0
            },
            {
                "start_time": 11.9090909,
                "end_time": 12.0159091,
                "pitch": 40,
                "velocity": 127,
                "duration": 0.1068182,
                "tempo": 120.0
            },
            {
                "start_time": 10.7795455,
                "end_time": 12.0704545,
                "pitch": 54,
                "velocity": 127,
                "duration": 1.2909091,
                "tempo": 120.0
            },
            {
                "start_time": 12.0704545,
                "end_time": 12.1772727,
                "pitch": 47,
                "velocity": 127,
                "duration": 0.1068182,
                "tempo": 120.0
            },
            {
                "start_time": 11.425,
                "end_time": 12.2318182,
                "pitch": 19,
                "velocity": 127,
                "duration": 0.8068182,
                "tempo": 120.0
            },
            {
                "start_time": 12.2318182,
                "end_time": 12.5045455,
                "pitch": 40,
                "velocity": 127,
                "duration": 0.2727273,
                "tempo": 120.0
            },
            {
                "start_time": 11.2636364,
                "end_time": 12.5613636,
                "pitch": 42,
                "velocity": 127,
                "duration": 1.2977273,
                "tempo": 120.0
            },
            {
                "start_time": 12.5613636,
                "end_time": 12.6704545,
                "pitch": 35,
                "velocity": 127,
                "duration": 0.1090909,
                "tempo": 120.0
            },
            {
                "start_time": 12.2318182,
                "end_time": 12.7272727,
                "pitch": 19,
                "velocity": 127,
                "duration": 0.4954545,
                "tempo": 120.0
            },
            {
                "start_time": 12.7272727,
                "end_time": 12.8340909,
                "pitch": 40,
                "velocity": 127,
                "duration": 0.1068182,
                "tempo": 120.0
            },
            {
                "start_time": 12.8909091,
                "end_time": 12.9954545,
                "pitch": 40,
                "velocity": 127,
                "duration": 0.1045455,
                "tempo": 120.0
            },
            {
                "start_time": 12.0704545,
                "end_time": 13.05,
                "pitch": 54,
                "velocity": 127,
                "duration": 0.9795455,
                "tempo": 120.0
            },
            {
                "start_time": 13.05,
                "end_time": 13.1568182,
                "pitch": 43,
                "velocity": 127,
                "duration": 0.1068182,
                "tempo": 120.0
            },
            {
                "start_time": 13.2113636,
                "end_time": 13.3181818,
                "pitch": 43,
                "velocity": 127,
                "duration": 0.1068182,
                "tempo": 120.0
            },
            {
                "start_time": 10.45,
                "end_time": 13.3727273,
                "pitch": 0,
                "velocity": 127,
                "duration": 2.9227273,
                "tempo": 120.0
            },
            {
                "start_time": 13.3727273,
                "end_time": 13.4795455,
                "pitch": 38,
                "velocity": 127,
                "duration": 0.1068182,
                "tempo": 120.0
            },
            {
                "start_time": 9.6386364,
                "end_time": 13.5340909,
                "pitch": 53,
                "velocity": 127,
                "duration": 3.8954545,
                "tempo": 120.0
            },
            {
                "start_time": 13.5340909,
                "end_time": 13.8022727,
                "pitch": 43,
                "velocity": 127,
                "duration": 0.2681818,
                "tempo": 120.0
            },
            {
                "start_time": 13.3727273,
                "end_time": 13.8568182,
                "pitch": 0,
                "velocity": 127,
                "duration": 0.4840909,
                "tempo": 120.0
            },
            {
                "start_time": 13.8568182,
                "end_time": 13.9636364,
                "pitch": 36,
                "velocity": 127,
                "duration": 0.1068182,
                "tempo": 120.0
            },
            {
                "start_time": 10.1227273,
                "end_time": 14.0181818,
                "pitch": 52,
                "velocity": 127,
                "duration": 3.8954545,
                "tempo": 120.0
            },
            {
                "start_time": 14.0181818,
                "end_time": 14.1295455,
                "pitch": 43,
                "velocity": 127,
                "duration": 0.1113636,
                "tempo": 120.0
            },
            {
                "start_time": 14.1863636,
                "end_time": 14.2954545,
                "pitch": 43,
                "velocity": 127,
                "duration": 0.1090909,
                "tempo": 120.0
            },
            {
                "start_time": 14.3522727,
                "end_time": 14.4590909,
                "pitch": 43,
                "velocity": 127,
                "duration": 0.1068182,
                "tempo": 120.0
            },
            {
                "start_time": 14.5136364,
                "end_time": 14.6204545,
                "pitch": 43,
                "velocity": 127,
                "duration": 0.1068182,
                "tempo": 120.0
            },
            {
                "start_time": 13.8568182,
                "end_time": 14.675,
                "pitch": 0,
                "velocity": 127,
                "duration": 0.8181818,
                "tempo": 120.0
            },
            {
                "start_time": 14.675,
                "end_time": 14.7818182,
                "pitch": 38,
                "velocity": 127,
                "duration": 0.1068182,
                "tempo": 120.0
            },
            {
                "start_time": 13.5340909,
                "end_time": 14.8363636,
                "pitch": 53,
                "velocity": 127,
                "duration": 1.3022727,
                "tempo": 120.0
            },
            {
                "start_time": 14.8363636,
                "end_time": 15.1045455,
                "pitch": 43,
                "velocity": 127,
                "duration": 0.2681818,
                "tempo": 120.0
            },
            {
                "start_time": 14.675,
                "end_time": 15.1590909,
                "pitch": 0,
                "velocity": 127,
                "duration": 0.4840909,
                "tempo": 120.0
            },
            {
                "start_time": 15.1590909,
                "end_time": 15.2659091,
                "pitch": 36,
                "velocity": 127,
                "duration": 0.1068182,
                "tempo": 120.0
            },
            {
                "start_time": 14.0181818,
                "end_time": 15.3204545,
                "pitch": 52,
                "velocity": 127,
                "duration": 1.3022727,
                "tempo": 120.0
            },
            {
                "start_time": 15.3204545,
                "end_time": 15.4272727,
                "pitch": 43,
                "velocity": 127,
                "duration": 0.1068182,
                "tempo": 120.0
            },
            {
                "start_time": 15.4818182,
                "end_time": 15.5886364,
                "pitch": 43,
                "velocity": 127,
                "duration": 0.1068182,
                "tempo": 120.0
            },
            {
                "start_time": 15.1590909,
                "end_time": 15.6454545,
                "pitch": 0,
                "velocity": 127,
                "duration": 0.4863636,
                "tempo": 120.0
            },
            {
                "start_time": 15.6454545,
                "end_time": 15.7522727,
                "pitch": 40,
                "velocity": 127,
                "duration": 0.1068182,
                "tempo": 120.0
            },
            {
                "start_time": 15.8090909,
                "end_time": 15.9204545,
                "pitch": 40,
                "velocity": 127,
                "duration": 0.1113636,
                "tempo": 120.0
            },
            {
                "start_time": 13.05,
                "end_time": 15.9772727,
                "pitch": 54,
                "velocity": 127,
                "duration": 2.9272727,
                "tempo": 120.0
            },
            {
                "start_time": 15.9772727,
                "end_time": 16.0840909,
                "pitch": 47,
                "velocity": 127,
                "duration": 0.1068182,
                "tempo": 120.0
            },
            {
                "start_time": 12.7272727,
                "end_time": 16.1363636,
                "pitch": 19,
                "velocity": 127,
                "duration": 3.4090909,
                "tempo": 120.0
            },
            {
                "start_time": 16.1363636,
                "end_time": 16.4068182,
                "pitch": 40,
                "velocity": 127,
                "duration": 0.2704545,
                "tempo": 120.0
            },
            {
                "start_time": 12.5613636,
                "end_time": 16.4613636,
                "pitch": 42,
                "velocity": 127,
                "duration": 3.9,
                "tempo": 120.0
            },
            {
                "start_time": 16.4613636,
                "end_time": 16.5681818,
                "pitch": 35,
                "velocity": 127,
                "duration": 0.1068182,
                "tempo": 120.0
            },
            {
                "start_time": 16.1363636,
                "end_time": 16.6227273,
                "pitch": 19,
                "velocity": 127,
                "duration": 0.4863636,
                "tempo": 120.0
            },
            {
                "start_time": 16.6227273,
                "end_time": 16.7295455,
                "pitch": 40,
                "velocity": 127,
                "duration": 0.1068182,
                "tempo": 120.0
            },
            {
                "start_time": 16.7840909,
                "end_time": 16.8909091,
                "pitch": 40,
                "velocity": 127,
                "duration": 0.1068182,
                "tempo": 120.0
            },
            {
                "start_time": 16.9454545,
                "end_time": 17.0522727,
                "pitch": 40,
                "velocity": 127,
                "duration": 0.1068182,
                "tempo": 120.0
            },
            {
                "start_time": 17.1068182,
                "end_time": 17.2136364,
                "pitch": 40,
                "velocity": 127,
                "duration": 0.1068182,
                "tempo": 120.0
            },
            {
                "start_time": 15.9772727,
                "end_time": 17.2681818,
                "pitch": 54,
                "velocity": 127,
                "duration": 1.2909091,
                "tempo": 120.0
            },
            {
                "start_time": 17.2681818,
                "end_time": 17.3772727,
                "pitch": 47,
                "velocity": 127,
                "duration": 0.1090909,
                "tempo": 120.0
            },
            {
                "start_time": 16.6227273,
                "end_time": 17.4340909,
                "pitch": 19,
                "velocity": 127,
                "duration": 0.8113636,
                "tempo": 120.0
            },
            {
                "start_time": 17.4340909,
                "end_time": 17.7090909,
                "pitch": 40,
                "velocity": 127,
                "duration": 0.275,
                "tempo": 120.0
            },
            {
                "start_time": 16.4613636,
                "end_time": 17.7636364,
                "pitch": 42,
                "velocity": 127,
                "duration": 1.3022727,
                "tempo": 120.0
            },
            {
                "start_time": 17.7636364,
                "end_time": 17.8704545,
                "pitch": 35,
                "velocity": 127,
                "duration": 0.1068182,
                "tempo": 120.0
            },
            {
                "start_time": 17.4340909,
                "end_time": 17.925,
                "pitch": 19,
                "velocity": 127,
                "duration": 0.4909091,
                "tempo": 120.0
            },
            {
                "start_time": 17.925,
                "end_time": 18.0318182,
                "pitch": 40,
                "velocity": 127,
                "duration": 0.1068182,
                "tempo": 120.0
            },
            {
                "start_time": 18.0863636,
                "end_time": 18.1931818,
                "pitch": 40,
                "velocity": 127,
                "duration": 0.1068182,
                "tempo": 120.0
            },
            {
                "start_time": 17.2681818,
                "end_time": 18.2477273,
                "pitch": 54,
                "velocity": 127,
                "duration": 0.9795455,
                "tempo": 120.0
            },
            {
                "start_time": 18.2477273,
                "end_time": 18.3545455,
                "pitch": 43,
                "velocity": 127,
                "duration": 0.1068182,
                "tempo": 120.0
            },
            {
                "start_time": 18.4090909,
                "end_time": 18.5159091,
                "pitch": 43,
                "velocity": 127,
                "duration": 0.1068182,
                "tempo": 120.0
            },
            {
                "start_time": 15.6454545,
                "end_time": 18.5704545,
                "pitch": 0,
                "velocity": 127,
                "duration": 2.925,
                "tempo": 120.0
            },
            {
                "start_time": 18.5681818,
                "end_time": 18.5704545,
                "pitch": 0,
                "velocity": 127,
                "duration": 0.0022727,
                "tempo": 120.0
            },
            {
                "start_time": 18.5704545,
                "end_time": 18.6772727,
                "pitch": 38,
                "velocity": 127,
                "duration": 0.1068182,
                "tempo": 120.0
            },
            {
                "start_time": 14.8363636,
                "end_time": 18.7295455,
                "pitch": 53,
                "velocity": 127,
                "duration": 3.8931818,
                "tempo": 120.0
            },
            {
                "start_time": 18.7295455,
                "end_time": 19.0,
                "pitch": 43,
                "velocity": 127,
                "duration": 0.2704545,
                "tempo": 120.0
            },
            {
                "start_time": 19.0522727,
                "end_time": 19.1613636,
                "pitch": 36,
                "velocity": 127,
                "duration": 0.1090909,
                "tempo": 120.0
            },
            {
                "start_time": 15.3204545,
                "end_time": 19.2136364,
                "pitch": 52,
                "velocity": 127,
                "duration": 3.8931818,
                "tempo": 120.0
            },
            {
                "start_time": 19.2136364,
                "end_time": 19.325,
                "pitch": 43,
                "velocity": 127,
                "duration": 0.1113636,
                "tempo": 120.0
            },
            {
                "start_time": 19.3818182,
                "end_time": 19.4931818,
                "pitch": 43,
                "velocity": 127,
                "duration": 0.1113636,
                "tempo": 120.0
            },
            {
                "start_time": 19.55,
                "end_time": 19.6545455,
                "pitch": 43,
                "velocity": 127,
                "duration": 0.1045455,
                "tempo": 120.0
            },
            {
                "start_time": 19.7090909,
                "end_time": 19.8159091,
                "pitch": 43,
                "velocity": 127,
                "duration": 0.1068182,
                "tempo": 120.0
            },
            {
                "start_time": 19.0522727,
                "end_time": 19.8704545,
                "pitch": 0,
                "velocity": 127,
                "duration": 0.8181818,
                "tempo": 120.0
            },
            {
                "start_time": 19.8704545,
                "end_time": 19.9772727,
                "pitch": 38,
                "velocity": 127,
                "duration": 0.1068182,
                "tempo": 120.0
            },
            {
                "start_time": 18.7295455,
                "end_time": 20.0318182,
                "pitch": 53,
                "velocity": 127,
                "duration": 1.3022727,
                "tempo": 120.0
            },
            {
                "start_time": 20.0318182,
                "end_time": 20.3,
                "pitch": 43,
                "velocity": 127,
                "duration": 0.2681818,
                "tempo": 120.0
            },
            {
                "start_time": 19.8704545,
                "end_time": 20.3545455,
                "pitch": 0,
                "velocity": 127,
                "duration": 0.4840909,
                "tempo": 120.0
            },
            {
                "start_time": 20.3545455,
                "end_time": 20.4613636,
                "pitch": 36,
                "velocity": 127,
                "duration": 0.1068182,
                "tempo": 120.0
            },
            {
                "start_time": 19.2136364,
                "end_time": 20.5159091,
                "pitch": 52,
                "velocity": 127,
                "duration": 1.3022727,
                "tempo": 120.0
            },
            {
                "start_time": 20.5159091,
                "end_time": 20.625,
                "pitch": 43,
                "velocity": 127,
                "duration": 0.1090909,
                "tempo": 120.0
            },
            {
                "start_time": 20.6772727,
                "end_time": 20.7840909,
                "pitch": 43,
                "velocity": 127,
                "duration": 0.1068182,
                "tempo": 120.0
            },
            {
                "start_time": 20.3545455,
                "end_time": 20.8409091,
                "pitch": 0,
                "velocity": 127,
                "duration": 0.4863636,
                "tempo": 120.0
            },
            {
                "start_time": 20.8409091,
                "end_time": 20.95,
                "pitch": 40,
                "velocity": 127,
                "duration": 0.1090909,
                "tempo": 120.0
            },
            {
                "start_time": 21.0068182,
                "end_time": 21.1159091,
                "pitch": 40,
                "velocity": 127,
                "duration": 0.1090909,
                "tempo": 120.0
            },
            {
                "start_time": 18.2477273,
                "end_time": 21.1727273,
                "pitch": 54,
                "velocity": 127,
                "duration": 2.925,
                "tempo": 120.0
            },
            {
                "start_time": 21.1727273,
                "end_time": 21.2795455,
                "pitch": 47,
                "velocity": 127,
                "duration": 0.1068182,
                "tempo": 120.0
            },
            {
                "start_time": 17.925,
                "end_time": 21.3340909,
                "pitch": 19,
                "velocity": 127,
                "duration": 3.4090909,
                "tempo": 120.0
            },
            {
                "start_time": 21.3340909,
                "end_time": 21.6022727,
                "pitch": 40,
                "velocity": 127,
                "duration": 0.2681818,
                "tempo": 120.0
            },
            {
                "start_time": 17.7636364,
                "end_time": 21.6568182,
                "pitch": 42,
                "velocity": 127,
                "duration": 3.8931818,
                "tempo": 120.0
            },
            {
                "start_time": 21.6568182,
                "end_time": 21.7636364,
                "pitch": 35,
                "velocity": 127,
                "duration": 0.1068182,
                "tempo": 120.0
            },
            {
                "start_time": 21.3340909,
                "end_time": 21.8181818,
                "pitch": 19,
                "velocity": 127,
                "duration": 0.4840909,
                "tempo": 120.0
            },
            {
                "start_time": 21.8181818,
                "end_time": 21.925,
                "pitch": 40,
                "velocity": 127,
                "duration": 0.1068182,
                "tempo": 120.0
            },
            {
                "start_time": 21.9795455,
                "end_time": 22.0863636,
                "pitch": 40,
                "velocity": 127,
                "duration": 0.1068182,
                "tempo": 120.0
            },
            {
                "start_time": 22.1431818,
                "end_time": 22.2477273,
                "pitch": 40,
                "velocity": 127,
                "duration": 0.1045455,
                "tempo": 120.0
            },
            {
                "start_time": 22.3022727,
                "end_time": 22.4090909,
                "pitch": 40,
                "velocity": 127,
                "duration": 0.1068182,
                "tempo": 120.0
            },
            {
                "start_time": 21.1727273,
                "end_time": 22.4636364,
                "pitch": 54,
                "velocity": 127,
                "duration": 1.2909091,
                "tempo": 120.0
            },
            {
                "start_time": 22.4636364,
                "end_time": 22.575,
                "pitch": 47,
                "velocity": 127,
                "duration": 0.1113636,
                "tempo": 120.0
            },
            {
                "start_time": 21.8181818,
                "end_time": 22.6295455,
                "pitch": 19,
                "velocity": 127,
                "duration": 0.8113636,
                "tempo": 120.0
            },
            {
                "start_time": 22.6295455,
                "end_time": 22.9045455,
                "pitch": 40,
                "velocity": 127,
                "duration": 0.275,
                "tempo": 120.0
            },
            {
                "start_time": 21.6568182,
                "end_time": 22.9590909,
                "pitch": 42,
                "velocity": 127,
                "duration": 1.3022727,
                "tempo": 120.0
            },
            {
                "start_time": 22.9590909,
                "end_time": 23.0659091,
                "pitch": 35,
                "velocity": 127,
                "duration": 0.1068182,
                "tempo": 120.0
            },
            {
                "start_time": 22.6295455,
                "end_time": 23.1204545,
                "pitch": 19,
                "velocity": 127,
                "duration": 0.4909091,
                "tempo": 120.0
            },
            {
                "start_time": 23.1204545,
                "end_time": 23.2272727,
                "pitch": 40,
                "velocity": 127,
                "duration": 0.1068182,
                "tempo": 120.0
            },
            {
                "start_time": 23.2818182,
                "end_time": 23.3886364,
                "pitch": 40,
                "velocity": 127,
                "duration": 0.1068182,
                "tempo": 120.0
            },
            {
                "start_time": 22.4636364,
                "end_time": 23.4454545,
                "pitch": 54,
                "velocity": 127,
                "duration": 0.9818182,
                "tempo": 120.0
            },
            {
                "start_time": 23.4454545,
                "end_time": 23.55,
                "pitch": 43,
                "velocity": 127,
                "duration": 0.1045455,
                "tempo": 120.0
            },
            {
                "start_time": 23.6045455,
                "end_time": 23.7113636,
                "pitch": 43,
                "velocity": 127,
                "duration": 0.1068182,
                "tempo": 120.0
            },
            {
                "start_time": 20.8409091,
                "end_time": 23.7659091,
                "pitch": 0,
                "velocity": 127,
                "duration": 2.925,
                "tempo": 120.0
            },
            {
                "start_time": 23.7659091,
                "end_time": 23.8727273,
                "pitch": 38,
                "velocity": 127,
                "duration": 0.1068182,
                "tempo": 120.0
            },
            {
                "start_time": 20.0318182,
                "end_time": 23.9272727,
                "pitch": 53,
                "velocity": 127,
                "duration": 3.8954545,
                "tempo": 120.0
            },
            {
                "start_time": 23.9272727,
                "end_time": 24.1954545,
                "pitch": 43,
                "velocity": 127,
                "duration": 0.2681818,
                "tempo": 120.0
            },
            {
                "start_time": 23.7659091,
                "end_time": 24.25,
                "pitch": 0,
                "velocity": 127,
                "duration": 0.4840909,
                "tempo": 120.0
            },
            {
                "start_time": 24.25,
                "end_time": 24.3568182,
                "pitch": 36,
                "velocity": 127,
                "duration": 0.1068182,
                "tempo": 120.0
            },
            {
                "start_time": 20.5159091,
                "end_time": 24.4113636,
                "pitch": 52,
                "velocity": 127,
                "duration": 3.8954545,
                "tempo": 120.0
            },
            {
                "start_time": 24.4113636,
                "end_time": 24.5227273,
                "pitch": 43,
                "velocity": 127,
                "duration": 0.1113636,
                "tempo": 120.0
            },
            {
                "start_time": 24.5772727,
                "end_time": 24.6886364,
                "pitch": 43,
                "velocity": 127,
                "duration": 0.1113636,
                "tempo": 120.0
            },
            {
                "start_time": 24.7454545,
                "end_time": 24.8522727,
                "pitch": 43,
                "velocity": 127,
                "duration": 0.1068182,
                "tempo": 120.0
            },
            {
                "start_time": 24.9068182,
                "end_time": 25.0136364,
                "pitch": 43,
                "velocity": 127,
                "duration": 0.1068182,
                "tempo": 120.0
            },
            {
                "start_time": 24.25,
                "end_time": 25.0681818,
                "pitch": 0,
                "velocity": 127,
                "duration": 0.8181818,
                "tempo": 120.0
            },
            {
                "start_time": 25.0681818,
                "end_time": 25.175,
                "pitch": 38,
                "velocity": 127,
                "duration": 0.1068182,
                "tempo": 120.0
            },
            {
                "start_time": 23.9272727,
                "end_time": 25.2295455,
                "pitch": 53,
                "velocity": 127,
                "duration": 1.3022727,
                "tempo": 120.0
            },
            {
                "start_time": 25.2295455,
                "end_time": 25.4977273,
                "pitch": 43,
                "velocity": 127,
                "duration": 0.2681818,
                "tempo": 120.0
            },
            {
                "start_time": 25.0681818,
                "end_time": 25.5522727,
                "pitch": 0,
                "velocity": 127,
                "duration": 0.4840909,
                "tempo": 120.0
            },
            {
                "start_time": 25.5522727,
                "end_time": 25.6590909,
                "pitch": 36,
                "velocity": 127,
                "duration": 0.1068182,
                "tempo": 120.0
            },
            {
                "start_time": 24.4113636,
                "end_time": 25.7136364,
                "pitch": 52,
                "velocity": 127,
                "duration": 1.3022727,
                "tempo": 120.0
            },
            {
                "start_time": 25.7136364,
                "end_time": 25.8204545,
                "pitch": 43,
                "velocity": 127,
                "duration": 0.1068182,
                "tempo": 120.0
            },
            {
                "start_time": 25.875,
                "end_time": 25.9818182,
                "pitch": 43,
                "velocity": 127,
                "duration": 0.1068182,
                "tempo": 120.0
            },
            {
                "start_time": 25.5522727,
                "end_time": 26.0386364,
                "pitch": 0,
                "velocity": 127,
                "duration": 0.4863636,
                "tempo": 120.0
            },
            {
                "start_time": 26.0386364,
                "end_time": 26.1454545,
                "pitch": 40,
                "velocity": 127,
                "duration": 0.1068182,
                "tempo": 120.0
            },
            {
                "start_time": 26.2022727,
                "end_time": 26.3136364,
                "pitch": 40,
                "velocity": 127,
                "duration": 0.1113636,
                "tempo": 120.0
            },
            {
                "start_time": 23.4454545,
                "end_time": 26.3704545,
                "pitch": 54,
                "velocity": 127,
                "duration": 2.925,
                "tempo": 120.0
            },
            {
                "start_time": 26.3704545,
                "end_time": 26.4772727,
                "pitch": 47,
                "velocity": 127,
                "duration": 0.1068182,
                "tempo": 120.0
            },
            {
                "start_time": 23.1204545,
                "end_time": 26.5318182,
                "pitch": 19,
                "velocity": 127,
                "duration": 3.4113636,
                "tempo": 120.0
            },
            {
                "start_time": 26.5318182,
                "end_time": 26.8,
                "pitch": 40,
                "velocity": 127,
                "duration": 0.2681818,
                "tempo": 120.0
            },
            {
                "start_time": 22.9590909,
                "end_time": 26.8545455,
                "pitch": 42,
                "velocity": 127,
                "duration": 3.8954545,
                "tempo": 120.0
            },
            {
                "start_time": 26.8545455,
                "end_time": 26.9613636,
                "pitch": 35,
                "velocity": 127,
                "duration": 0.1068182,
                "tempo": 120.0
            },
            {
                "start_time": 26.5318182,
                "end_time": 27.0159091,
                "pitch": 19,
                "velocity": 127,
                "duration": 0.4840909,
                "tempo": 120.0
            },
            {
                "start_time": 27.0159091,
                "end_time": 27.1227273,
                "pitch": 40,
                "velocity": 127,
                "duration": 0.1068182,
                "tempo": 120.0
            },
            {
                "start_time": 27.1772727,
                "end_time": 27.2840909,
                "pitch": 40,
                "velocity": 127,
                "duration": 0.1068182,
                "tempo": 120.0
            },
            {
                "start_time": 27.3386364,
                "end_time": 27.4454545,
                "pitch": 40,
                "velocity": 127,
                "duration": 0.1068182,
                "tempo": 120.0
            },
            {
                "start_time": 27.5,
                "end_time": 27.6068182,
                "pitch": 40,
                "velocity": 127,
                "duration": 0.1068182,
                "tempo": 120.0
            },
            {
                "start_time": 26.3704545,
                "end_time": 27.6613636,
                "pitch": 54,
                "velocity": 127,
                "duration": 1.2909091,
                "tempo": 120.0
            },
            {
                "start_time": 27.6613636,
                "end_time": 27.7704545,
                "pitch": 47,
                "velocity": 127,
                "duration": 0.1090909,
                "tempo": 120.0
            },
            {
                "start_time": 27.0159091,
                "end_time": 27.8272727,
                "pitch": 19,
                "velocity": 127,
                "duration": 0.8113636,
                "tempo": 120.0
            },
            {
                "start_time": 27.8272727,
                "end_time": 28.1,
                "pitch": 40,
                "velocity": 127,
                "duration": 0.2727273,
                "tempo": 120.0
            },
            {
                "start_time": 26.8545455,
                "end_time": 28.1568182,
                "pitch": 42,
                "velocity": 127,
                "duration": 1.3022727,
                "tempo": 120.0
            },
            {
                "start_time": 28.1568182,
                "end_time": 28.2613636,
                "pitch": 35,
                "velocity": 127,
                "duration": 0.1045455,
                "tempo": 120.0
            },
            {
                "start_time": 27.8272727,
                "end_time": 28.3181818,
                "pitch": 19,
                "velocity": 127,
                "duration": 0.4909091,
                "tempo": 120.0
            },
            {
                "start_time": 28.3159091,
                "end_time": 28.3181818,
                "pitch": 19,
                "velocity": 127,
                "duration": 0.0022727,
                "tempo": 120.0
            },
            {
                "start_time": 28.3181818,
                "end_time": 28.425,
                "pitch": 40,
                "velocity": 127,
                "duration": 0.1068182,
                "tempo": 120.0
            },
            {
                "start_time": 28.4795455,
                "end_time": 28.5863636,
                "pitch": 40,
                "velocity": 127,
                "duration": 0.1068182,
                "tempo": 120.0
            },
            {
                "start_time": 27.6613636,
                "end_time": 28.6409091,
                "pitch": 54,
                "velocity": 127,
                "duration": 0.9795455,
                "tempo": 120.0
            },
            {
                "start_time": 28.6409091,
                "end_time": 28.7477273,
                "pitch": 43,
                "velocity": 127,
                "duration": 0.1068182,
                "tempo": 120.0
            },
            {
                "start_time": 28.8,
                "end_time": 28.9090909,
                "pitch": 43,
                "velocity": 127,
                "duration": 0.1090909,
                "tempo": 120.0
            },
            {
                "start_time": 26.0386364,
                "end_time": 28.9613636,
                "pitch": 0,
                "velocity": 127,
                "duration": 2.9227273,
                "tempo": 120.0
            },
            {
                "start_time": 28.9613636,
                "end_time": 29.0704545,
                "pitch": 38,
                "velocity": 127,
                "duration": 0.1090909,
                "tempo": 120.0
            },
            {
                "start_time": 25.2295455,
                "end_time": 29.1227273,
                "pitch": 53,
                "velocity": 127,
                "duration": 3.8931818,
                "tempo": 120.0
            },
            {
                "start_time": 29.1227273,
                "end_time": 29.3931818,
                "pitch": 43,
                "velocity": 127,
                "duration": 0.2704545,
                "tempo": 120.0
            },
            {
                "start_time": 28.9613636,
                "end_time": 29.4454545,
                "pitch": 0,
                "velocity": 127,
                "duration": 0.4840909,
                "tempo": 120.0
            },
            {
                "start_time": 29.4454545,
                "end_time": 29.5545455,
                "pitch": 36,
                "velocity": 127,
                "duration": 0.1090909,
                "tempo": 120.0
            },
            {
                "start_time": 25.7136364,
                "end_time": 29.6068182,
                "pitch": 52,
                "velocity": 127,
                "duration": 3.8931818,
                "tempo": 120.0
            },
            {
                "start_time": 29.6068182,
                "end_time": 29.7181818,
                "pitch": 43,
                "velocity": 127,
                "duration": 0.1113636,
                "tempo": 120.0
            },
            {
                "start_time": 29.775,
                "end_time": 29.8840909,
                "pitch": 43,
                "velocity": 127,
                "duration": 0.1090909,
                "tempo": 120.0
            },
            {
                "start_time": 29.9431818,
                "end_time": 30.0477273,
                "pitch": 43,
                "velocity": 127,
                "duration": 0.1045455,
                "tempo": 120.0
            },
            {
                "start_time": 30.1022727,
                "end_time": 30.2090909,
                "pitch": 43,
                "velocity": 127,
                "duration": 0.1068182,
                "tempo": 120.0
            },
            {
                "start_time": 29.4454545,
                "end_time": 30.2636364,
                "pitch": 0,
                "velocity": 127,
                "duration": 0.8181818,
                "tempo": 120.0
            },
            {
                "start_time": 30.2636364,
                "end_time": 30.3704545,
                "pitch": 38,
                "velocity": 127,
                "duration": 0.1068182,
                "tempo": 120.0
            },
            {
                "start_time": 29.1227273,
                "end_time": 30.425,
                "pitch": 53,
                "velocity": 127,
                "duration": 1.3022727,
                "tempo": 120.0
            },
            {
                "start_time": 30.425,
                "end_time": 30.6931818,
                "pitch": 43,
                "velocity": 127,
                "duration": 0.2681818,
                "tempo": 120.0
            },
            {
                "start_time": 30.2636364,
                "end_time": 30.7477273,
                "pitch": 0,
                "velocity": 127,
                "duration": 0.4840909,
                "tempo": 120.0
            },
            {
                "start_time": 30.7477273,
                "end_time": 30.8545455,
                "pitch": 36,
                "velocity": 127,
                "duration": 0.1068182,
                "tempo": 120.0
            },
            {
                "start_time": 29.6068182,
                "end_time": 30.9090909,
                "pitch": 52,
                "velocity": 127,
                "duration": 1.3022727,
                "tempo": 120.0
            },
            {
                "start_time": 30.9090909,
                "end_time": 31.0181818,
                "pitch": 43,
                "velocity": 127,
                "duration": 0.1090909,
                "tempo": 120.0
            },
            {
                "start_time": 31.0704545,
                "end_time": 31.1772727,
                "pitch": 43,
                "velocity": 127,
                "duration": 0.1068182,
                "tempo": 120.0
            },
            {
                "start_time": 30.7477273,
                "end_time": 31.2340909,
                "pitch": 0,
                "velocity": 127,
                "duration": 0.4863636,
                "tempo": 120.0
            },
            {
                "start_time": 31.2340909,
                "end_time": 31.3431818,
                "pitch": 40,
                "velocity": 127,
                "duration": 0.1090909,
                "tempo": 120.0
            },
            {
                "start_time": 31.3977273,
                "end_time": 31.5090909,
                "pitch": 40,
                "velocity": 127,
                "duration": 0.1113636,
                "tempo": 120.0
            },
            {
                "start_time": 28.6409091,
                "end_time": 31.5659091,
                "pitch": 54,
                "velocity": 127,
                "duration": 2.925,
                "tempo": 120.0
            },
            {
                "start_time": 31.5659091,
                "end_time": 31.6727273,
                "pitch": 47,
                "velocity": 127,
                "duration": 0.1068182,
                "tempo": 120.0
            },
            {
                "start_time": 31.7272727,
                "end_time": 31.9954545,
                "pitch": 40,
                "velocity": 127,
                "duration": 0.2681818,
                "tempo": 120.0
            },
            {
                "start_time": 28.1568182,
                "end_time": 32.05,
                "pitch": 42,
                "velocity": 127,
                "duration": 3.8931818,
                "tempo": 120.0
            },
            {
                "start_time": 32.05,
                "end_time": 32.1568182,
                "pitch": 35,
                "velocity": 127,
                "duration": 0.1068182,
                "tempo": 120.0
            },
            {
                "start_time": 31.7272727,
                "end_time": 32.2113636,
                "pitch": 19,
                "velocity": 127,
                "duration": 0.4840909,
                "tempo": 120.0
            },
            {
                "start_time": 32.2113636,
                "end_time": 32.3181818,
                "pitch": 40,
                "velocity": 127,
                "duration": 0.1068182,
                "tempo": 120.0
            },
            {
                "start_time": 32.3727273,
                "end_time": 32.4795455,
                "pitch": 40,
                "velocity": 127,
                "duration": 0.1068182,
                "tempo": 120.0
            },
            {
                "start_time": 32.5363636,
                "end_time": 32.6409091,
                "pitch": 40,
                "velocity": 127,
                "duration": 0.1045455,
                "tempo": 120.0
            },
            {
                "start_time": 32.6954545,
                "end_time": 32.8022727,
                "pitch": 40,
                "velocity": 127,
                "duration": 0.1068182,
                "tempo": 120.0
            },
            {
                "start_time": 31.5659091,
                "end_time": 32.8568182,
                "pitch": 54,
                "velocity": 127,
                "duration": 1.2909091,
                "tempo": 120.0
            },
            {
                "start_time": 32.8568182,
                "end_time": 32.9681818,
                "pitch": 47,
                "velocity": 127,
                "duration": 0.1113636,
                "tempo": 120.0
            },
            {
                "start_time": 32.2113636,
                "end_time": 33.0227273,
                "pitch": 19,
                "velocity": 127,
                "duration": 0.8113636,
                "tempo": 120.0
            },
            {
                "start_time": 33.0227273,
                "end_time": 33.2977273,
                "pitch": 40,
                "velocity": 127,
                "duration": 0.275,
                "tempo": 120.0
            },
            {
                "start_time": 32.05,
                "end_time": 33.3522727,
                "pitch": 42,
                "velocity": 127,
                "duration": 1.3022727,
                "tempo": 120.0
            },
            {
                "start_time": 33.3522727,
                "end_time": 33.4590909,
                "pitch": 35,
                "velocity": 127,
                "duration": 0.1068182,
                "tempo": 120.0
            },
            {
                "start_time": 33.0227273,
                "end_time": 33.5136364,
                "pitch": 19,
                "velocity": 127,
                "duration": 0.4909091,
                "tempo": 120.0
            },
            {
                "start_time": 33.5136364,
                "end_time": 33.6204545,
                "pitch": 40,
                "velocity": 127,
                "duration": 0.1068182,
                "tempo": 120.0
            },
            {
                "start_time": 33.675,
                "end_time": 33.7818182,
                "pitch": 40,
                "velocity": 127,
                "duration": 0.1068182,
                "tempo": 120.0
            },
            {
                "start_time": 32.8568182,
                "end_time": 33.8363636,
                "pitch": 54,
                "velocity": 127,
                "duration": 0.9795455,
                "tempo": 120.0
            },
            {
                "start_time": 33.8363636,
                "end_time": 33.9431818,
                "pitch": 43,
                "velocity": 127,
                "duration": 0.1068182,
                "tempo": 120.0
            },
            {
                "start_time": 33.9977273,
                "end_time": 34.1045455,
                "pitch": 43,
                "velocity": 127,
                "duration": 0.1068182,
                "tempo": 120.0
            },
            {
                "start_time": 31.2340909,
                "end_time": 34.1590909,
                "pitch": 0,
                "velocity": 127,
                "duration": 2.925,
                "tempo": 120.0
            },
            {
                "start_time": 34.1590909,
                "end_time": 34.2659091,
                "pitch": 38,
                "velocity": 127,
                "duration": 0.1068182,
                "tempo": 120.0
            },
            {
                "start_time": 30.425,
                "end_time": 34.3204545,
                "pitch": 53,
                "velocity": 127,
                "duration": 3.8954545,
                "tempo": 120.0
            },
            {
                "start_time": 34.3204545,
                "end_time": 34.5886364,
                "pitch": 43,
                "velocity": 127,
                "duration": 0.2681818,
                "tempo": 120.0
            },
            {
                "start_time": 34.1590909,
                "end_time": 34.6431818,
                "pitch": 0,
                "velocity": 127,
                "duration": 0.4840909,
                "tempo": 120.0
            },
            {
                "start_time": 34.6431818,
                "end_time": 34.75,
                "pitch": 36,
                "velocity": 127,
                "duration": 0.1068182,
                "tempo": 120.0
            },
            {
                "start_time": 30.9090909,
                "end_time": 34.8045455,
                "pitch": 52,
                "velocity": 127,
                "duration": 3.8954545,
                "tempo": 120.0
            },
            {
                "start_time": 34.8045455,
                "end_time": 34.9159091,
                "pitch": 43,
                "velocity": 127,
                "duration": 0.1113636,
                "tempo": 120.0
            },
            {
                "start_time": 34.9704545,
                "end_time": 35.0818182,
                "pitch": 43,
                "velocity": 127,
                "duration": 0.1113636,
                "tempo": 120.0
            },
            {
                "start_time": 35.1386364,
                "end_time": 35.2454545,
                "pitch": 43,
                "velocity": 127,
                "duration": 0.1068182,
                "tempo": 120.0
            },
            {
                "start_time": 35.3,
                "end_time": 35.4068182,
                "pitch": 43,
                "velocity": 127,
                "duration": 0.1068182,
                "tempo": 120.0
            },
            {
                "start_time": 34.6431818,
                "end_time": 35.4613636,
                "pitch": 0,
                "velocity": 127,
                "duration": 0.8181818,
                "tempo": 120.0
            },
            {
                "start_time": 35.4613636,
                "end_time": 35.5681818,
                "pitch": 38,
                "velocity": 127,
                "duration": 0.1068182,
                "tempo": 120.0
            },
            {
                "start_time": 34.3204545,
                "end_time": 35.6227273,
                "pitch": 53,
                "velocity": 127,
                "duration": 1.3022727,
                "tempo": 120.0
            },
            {
                "start_time": 35.6227273,
                "end_time": 35.8909091,
                "pitch": 43,
                "velocity": 127,
                "duration": 0.2681818,
                "tempo": 120.0
            },
            {
                "start_time": 35.4613636,
                "end_time": 35.9454545,
                "pitch": 0,
                "velocity": 127,
                "duration": 0.4840909,
                "tempo": 120.0
            },
            {
                "start_time": 35.9454545,
                "end_time": 36.0522727,
                "pitch": 36,
                "velocity": 127,
                "duration": 0.1068182,
                "tempo": 120.0
            },
            {
                "start_time": 34.8045455,
                "end_time": 36.1068182,
                "pitch": 52,
                "velocity": 127,
                "duration": 1.3022727,
                "tempo": 120.0
            },
            {
                "start_time": 36.1068182,
                "end_time": 36.2181818,
                "pitch": 43,
                "velocity": 127,
                "duration": 0.1113636,
                "tempo": 120.0
            },
            {
                "start_time": 36.2727273,
                "end_time": 36.3840909,
                "pitch": 43,
                "velocity": 127,
                "duration": 0.1113636,
                "tempo": 120.0
            },
            {
                "start_time": 35.9454545,
                "end_time": 36.4431818,
                "pitch": 0,
                "velocity": 127,
                "duration": 0.4977273,
                "tempo": 120.0
            },
            {
                "start_time": 36.4431818,
                "end_time": 36.5477273,
                "pitch": 40,
                "velocity": 127,
                "duration": 0.1045455,
                "tempo": 120.0
            },
            {
                "start_time": 36.6,
                "end_time": 36.7090909,
                "pitch": 40,
                "velocity": 127,
                "duration": 0.1090909,
                "tempo": 120.0
            },
            {
                "start_time": 33.8363636,
                "end_time": 36.7636364,
                "pitch": 54,
                "velocity": 127,
                "duration": 2.9272727,
                "tempo": 120.0
            },
            {
                "start_time": 36.7636364,
                "end_time": 36.8704545,
                "pitch": 47,
                "velocity": 127,
                "duration": 0.1068182,
                "tempo": 120.0
            },
            {
                "start_time": 33.5136364,
                "end_time": 36.925,
                "pitch": 19,
                "velocity": 127,
                "duration": 3.4113636,
                "tempo": 120.0
            },
            {
                "start_time": 36.925,
                "end_time": 37.1931818,
                "pitch": 40,
                "velocity": 127,
                "duration": 0.2681818,
                "tempo": 120.0
            },
            {
                "start_time": 33.3522727,
                "end_time": 37.2477273,
                "pitch": 42,
                "velocity": 127,
                "duration": 3.8954545,
                "tempo": 120.0
            },
            {
                "start_time": 37.2477273,
                "end_time": 37.3545455,
                "pitch": 35,
                "velocity": 127,
                "duration": 0.1068182,
                "tempo": 120.0
            },
            {
                "start_time": 36.925,
                "end_time": 37.4090909,
                "pitch": 19,
                "velocity": 127,
                "duration": 0.4840909,
                "tempo": 120.0
            },
            {
                "start_time": 37.4090909,
                "end_time": 37.5159091,
                "pitch": 40,
                "velocity": 127,
                "duration": 0.1068182,
                "tempo": 120.0
            },
            {
                "start_time": 37.5704545,
                "end_time": 37.6772727,
                "pitch": 40,
                "velocity": 127,
                "duration": 0.1068182,
                "tempo": 120.0
            },
            {
                "start_time": 37.7318182,
                "end_time": 37.8386364,
                "pitch": 40,
                "velocity": 127,
                "duration": 0.1068182,
                "tempo": 120.0
            },
            {
                "start_time": 37.8909091,
                "end_time": 38.0,
                "pitch": 40,
                "velocity": 127,
                "duration": 0.1090909,
                "tempo": 120.0
            },
            {
                "start_time": 36.7636364,
                "end_time": 38.0545455,
                "pitch": 54,
                "velocity": 127,
                "duration": 1.2909091,
                "tempo": 120.0
            },
            {
                "start_time": 38.0545455,
                "end_time": 38.1636364,
                "pitch": 47,
                "velocity": 127,
                "duration": 0.1090909,
                "tempo": 120.0
            },
            {
                "start_time": 37.4090909,
                "end_time": 38.2204545,
                "pitch": 19,
                "velocity": 127,
                "duration": 0.8113636,
                "tempo": 120.0
            },
            {
                "start_time": 38.2204545,
                "end_time": 38.4931818,
                "pitch": 40,
                "velocity": 127,
                "duration": 0.2727273,
                "tempo": 120.0
            },
            {
                "start_time": 37.2477273,
                "end_time": 38.55,
                "pitch": 42,
                "velocity": 127,
                "duration": 1.3022727,
                "tempo": 120.0
            },
            {
                "start_time": 38.55,
                "end_time": 38.6545455,
                "pitch": 35,
                "velocity": 127,
                "duration": 0.1045455,
                "tempo": 120.0
            },
            {
                "start_time": 38.2204545,
                "end_time": 38.7113636,
                "pitch": 19,
                "velocity": 127,
                "duration": 0.4909091,
                "tempo": 120.0
            },
            {
                "start_time": 38.7113636,
                "end_time": 38.8159091,
                "pitch": 40,
                "velocity": 127,
                "duration": 0.1045455,
                "tempo": 120.0
            },
            {
                "start_time": 38.8727273,
                "end_time": 38.9772727,
                "pitch": 40,
                "velocity": 127,
                "duration": 0.1045455,
                "tempo": 120.0
            },
            {
                "start_time": 38.0545455,
                "end_time": 39.0340909,
                "pitch": 54,
                "velocity": 127,
                "duration": 0.9795455,
                "tempo": 120.0
            },
            {
                "start_time": 39.0340909,
                "end_time": 39.1386364,
                "pitch": 43,
                "velocity": 127,
                "duration": 0.1045455,
                "tempo": 120.0
            },
            {
                "start_time": 39.1931818,
                "end_time": 39.3022727,
                "pitch": 43,
                "velocity": 127,
                "duration": 0.1090909,
                "tempo": 120.0
            },
            {
                "start_time": 36.4431818,
                "end_time": 39.3568182,
                "pitch": 0,
                "velocity": 127,
                "duration": 2.9136364,
                "tempo": 120.0
            },
            {
                "start_time": 39.3568182,
                "end_time": 39.4636364,
                "pitch": 38,
                "velocity": 127,
                "duration": 0.1068182,
                "tempo": 120.0
            },
            {
                "start_time": 35.6227273,
                "end_time": 39.5181818,
                "pitch": 53,
                "velocity": 127,
                "duration": 3.8954545,
                "tempo": 120.0
            },
            {
                "start_time": 39.5181818,
                "end_time": 39.7863636,
                "pitch": 43,
                "velocity": 127,
                "duration": 0.2681818,
                "tempo": 120.0
            },
            {
                "start_time": 39.3568182,
                "end_time": 39.8409091,
                "pitch": 0,
                "velocity": 127,
                "duration": 0.4840909,
                "tempo": 120.0
            },
            {
                "start_time": 39.8409091,
                "end_time": 39.9477273,
                "pitch": 36,
                "velocity": 127,
                "duration": 0.1068182,
                "tempo": 120.0
            },
            {
                "start_time": 36.1068182,
                "end_time": 40.0,
                "pitch": 52,
                "velocity": 127,
                "duration": 3.8931818,
                "tempo": 120.0
            },
            {
                "start_time": 40.0,
                "end_time": 40.1113636,
                "pitch": 43,
                "velocity": 127,
                "duration": 0.1113636,
                "tempo": 120.0
            },
            {
                "start_time": 40.1681818,
                "end_time": 40.2772727,
                "pitch": 43,
                "velocity": 127,
                "duration": 0.1090909,
                "tempo": 120.0
            },
            {
                "start_time": 40.3363636,
                "end_time": 40.4409091,
                "pitch": 43,
                "velocity": 127,
                "duration": 0.1045455,
                "tempo": 120.0
            },
            {
                "start_time": 40.4954545,
                "end_time": 40.6022727,
                "pitch": 43,
                "velocity": 127,
                "duration": 0.1068182,
                "tempo": 120.0
            },
            {
                "start_time": 39.8409091,
                "end_time": 40.6568182,
                "pitch": 0,
                "velocity": 127,
                "duration": 0.8159091,
                "tempo": 120.0
            },
            {
                "start_time": 40.6568182,
                "end_time": 40.7636364,
                "pitch": 38,
                "velocity": 127,
                "duration": 0.1068182,
                "tempo": 120.0
            },
            {
                "start_time": 39.5181818,
                "end_time": 40.8181818,
                "pitch": 53,
                "velocity": 127,
                "duration": 1.3,
                "tempo": 120.0
            },
            {
                "start_time": 40.8181818,
                "end_time": 41.0863636,
                "pitch": 43,
                "velocity": 127,
                "duration": 0.2681818,
                "tempo": 120.0
            },
            {
                "start_time": 40.6568182,
                "end_time": 41.1409091,
                "pitch": 0,
                "velocity": 127,
                "duration": 0.4840909,
                "tempo": 120.0
            },
            {
                "start_time": 41.1409091,
                "end_time": 41.2477273,
                "pitch": 36,
                "velocity": 127,
                "duration": 0.1068182,
                "tempo": 120.0
            },
            {
                "start_time": 40.0,
                "end_time": 41.3022727,
                "pitch": 52,
                "velocity": 127,
                "duration": 1.3022727,
                "tempo": 120.0
            },
            {
                "start_time": 41.3022727,
                "end_time": 41.4113636,
                "pitch": 43,
                "velocity": 127,
                "duration": 0.1090909,
                "tempo": 120.0
            },
            {
                "start_time": 41.4636364,
                "end_time": 41.5704545,
                "pitch": 43,
                "velocity": 127,
                "duration": 0.1068182,
                "tempo": 120.0
            },
            {
                "start_time": 41.1409091,
                "end_time": 41.6295455,
                "pitch": 0,
                "velocity": 127,
                "duration": 0.4886364,
                "tempo": 120.0
            },
            {
                "start_time": 41.6295455,
                "end_time": 41.7363636,
                "pitch": 40,
                "velocity": 127,
                "duration": 0.1068182,
                "tempo": 120.0
            },
            {
                "start_time": 41.7909091,
                "end_time": 41.9022727,
                "pitch": 40,
                "velocity": 127,
                "duration": 0.1113636,
                "tempo": 120.0
            },
            {
                "start_time": 39.0340909,
                "end_time": 41.9590909,
                "pitch": 54,
                "velocity": 127,
                "duration": 2.925,
                "tempo": 120.0
            },
            {
                "start_time": 41.9590909,
                "end_time": 42.0659091,
                "pitch": 47,
                "velocity": 127,
                "duration": 0.1068182,
                "tempo": 120.0
            },
            {
                "start_time": 38.7113636,
                "end_time": 42.1204545,
                "pitch": 19,
                "velocity": 127,
                "duration": 3.4090909,
                "tempo": 120.0
            },
            {
                "start_time": 42.1204545,
                "end_time": 42.3886364,
                "pitch": 40,
                "velocity": 127,
                "duration": 0.2681818,
                "tempo": 120.0
            },
            {
                "start_time": 38.55,
                "end_time": 42.4431818,
                "pitch": 42,
                "velocity": 127,
                "duration": 3.8931818,
                "tempo": 120.0
            },
            {
                "start_time": 42.4431818,
                "end_time": 42.55,
                "pitch": 35,
                "velocity": 127,
                "duration": 0.1068182,
                "tempo": 120.0
            },
            {
                "start_time": 42.1204545,
                "end_time": 42.6045455,
                "pitch": 19,
                "velocity": 127,
                "duration": 0.4840909,
                "tempo": 120.0
            },
            {
                "start_time": 42.6045455,
                "end_time": 42.7113636,
                "pitch": 40,
                "velocity": 127,
                "duration": 0.1068182,
                "tempo": 120.0
            },
            {
                "start_time": 42.7659091,
                "end_time": 42.8727273,
                "pitch": 40,
                "velocity": 127,
                "duration": 0.1068182,
                "tempo": 120.0
            },
            {
                "start_time": 42.9295455,
                "end_time": 43.0340909,
                "pitch": 40,
                "velocity": 127,
                "duration": 0.1045455,
                "tempo": 120.0
            },
            {
                "start_time": 43.0886364,
                "end_time": 43.1954545,
                "pitch": 40,
                "velocity": 127,
                "duration": 0.1068182,
                "tempo": 120.0
            },
            {
                "start_time": 41.9590909,
                "end_time": 43.25,
                "pitch": 54,
                "velocity": 127,
                "duration": 1.2909091,
                "tempo": 120.0
            },
            {
                "start_time": 43.25,
                "end_time": 43.3613636,
                "pitch": 47,
                "velocity": 127,
                "duration": 0.1113636,
                "tempo": 120.0
            },
            {
                "start_time": 42.6045455,
                "end_time": 43.4181818,
                "pitch": 19,
                "velocity": 127,
                "duration": 0.8136364,
                "tempo": 120.0
            },
            {
                "start_time": 43.4181818,
                "end_time": 43.6909091,
                "pitch": 40,
                "velocity": 127,
                "duration": 0.2727273,
                "tempo": 120.0
            },
            {
                "start_time": 42.4431818,
                "end_time": 43.7477273,
                "pitch": 42,
                "velocity": 127,
                "duration": 1.3045455,
                "tempo": 120.0
            },
            {
                "start_time": 43.7477273,
                "end_time": 43.8522727,
                "pitch": 35,
                "velocity": 127,
                "duration": 0.1045455,
                "tempo": 120.0
            },
            {
                "start_time": 43.4181818,
                "end_time": 43.9068182,
                "pitch": 19,
                "velocity": 127,
                "duration": 0.4886364,
                "tempo": 120.0
            },
            {
                "start_time": 43.9068182,
                "end_time": 44.0136364,
                "pitch": 40,
                "velocity": 127,
                "duration": 0.1068182,
                "tempo": 120.0
            },
            {
                "start_time": 44.0704545,
                "end_time": 44.175,
                "pitch": 40,
                "velocity": 127,
                "duration": 0.1045455,
                "tempo": 120.0
            },
            {
                "start_time": 43.25,
                "end_time": 44.2295455,
                "pitch": 54,
                "velocity": 127,
                "duration": 0.9795455,
                "tempo": 120.0
            },
            {
                "start_time": 44.2295455,
                "end_time": 44.3363636,
                "pitch": 43,
                "velocity": 127,
                "duration": 0.1068182,
                "tempo": 120.0
            },
            {
                "start_time": 44.3909091,
                "end_time": 44.4977273,
                "pitch": 43,
                "velocity": 127,
                "duration": 0.1068182,
                "tempo": 120.0
            },
            {
                "start_time": 41.6295455,
                "end_time": 44.5522727,
                "pitch": 0,
                "velocity": 127,
                "duration": 2.9227273,
                "tempo": 120.0
            },
            {
                "start_time": 44.5522727,
                "end_time": 44.6590909,
                "pitch": 38,
                "velocity": 127,
                "duration": 0.1068182,
                "tempo": 120.0
            },
            {
                "start_time": 40.8181818,
                "end_time": 44.7136364,
                "pitch": 53,
                "velocity": 127,
                "duration": 3.8954545,
                "tempo": 120.0
            },
            {
                "start_time": 44.7136364,
                "end_time": 44.9818182,
                "pitch": 43,
                "velocity": 127,
                "duration": 0.2681818,
                "tempo": 120.0
            },
            {
                "start_time": 44.5522727,
                "end_time": 45.0363636,
                "pitch": 0,
                "velocity": 127,
                "duration": 0.4840909,
                "tempo": 120.0
            },
            {
                "start_time": 45.0363636,
                "end_time": 45.1431818,
                "pitch": 36,
                "velocity": 127,
                "duration": 0.1068182,
                "tempo": 120.0
            },
            {
                "start_time": 41.3022727,
                "end_time": 45.1977273,
                "pitch": 52,
                "velocity": 127,
                "duration": 3.8954545,
                "tempo": 120.0
            },
            {
                "start_time": 45.1977273,
                "end_time": 45.3090909,
                "pitch": 43,
                "velocity": 127,
                "duration": 0.1113636,
                "tempo": 120.0
            },
            {
                "start_time": 45.3659091,
                "end_time": 45.475,
                "pitch": 43,
                "velocity": 127,
                "duration": 0.1090909,
                "tempo": 120.0
            },
            {
                "start_time": 45.5318182,
                "end_time": 45.6386364,
                "pitch": 43,
                "velocity": 127,
                "duration": 0.1068182,
                "tempo": 120.0
            },
            {
                "start_time": 45.6931818,
                "end_time": 45.8,
                "pitch": 43,
                "velocity": 127,
                "duration": 0.1068182,
                "tempo": 120.0
            },
            {
                "start_time": 45.0363636,
                "end_time": 45.8545455,
                "pitch": 0,
                "velocity": 127,
                "duration": 0.8181818,
                "tempo": 120.0
            },
            {
                "start_time": 45.8545455,
                "end_time": 45.9613636,
                "pitch": 38,
                "velocity": 127,
                "duration": 0.1068182,
                "tempo": 120.0
            },
            {
                "start_time": 44.7136364,
                "end_time": 46.0159091,
                "pitch": 53,
                "velocity": 127,
                "duration": 1.3022727,
                "tempo": 120.0
            },
            {
                "start_time": 46.0159091,
                "end_time": 46.2840909,
                "pitch": 43,
                "velocity": 127,
                "duration": 0.2681818,
                "tempo": 120.0
            },
            {
                "start_time": 45.8545455,
                "end_time": 46.3386364,
                "pitch": 0,
                "velocity": 127,
                "duration": 0.4840909,
                "tempo": 120.0
            },
            {
                "start_time": 46.3386364,
                "end_time": 46.4454545,
                "pitch": 36,
                "velocity": 127,
                "duration": 0.1068182,
                "tempo": 120.0
            },
            {
                "start_time": 45.1977273,
                "end_time": 46.5,
                "pitch": 52,
                "velocity": 127,
                "duration": 1.3022727,
                "tempo": 120.0
            },
            {
                "start_time": 46.5,
                "end_time": 46.6068182,
                "pitch": 43,
                "velocity": 127,
                "duration": 0.1068182,
                "tempo": 120.0
            },
            {
                "start_time": 46.6613636,
                "end_time": 46.7681818,
                "pitch": 43,
                "velocity": 127,
                "duration": 0.1068182,
                "tempo": 120.0
            },
            {
                "start_time": 46.3386364,
                "end_time": 46.825,
                "pitch": 0,
                "velocity": 127,
                "duration": 0.4863636,
                "tempo": 120.0
            },
            {
                "start_time": 46.825,
                "end_time": 46.9318182,
                "pitch": 40,
                "velocity": 127,
                "duration": 0.1068182,
                "tempo": 120.0
            },
            {
                "start_time": 46.9886364,
                "end_time": 47.1,
                "pitch": 40,
                "velocity": 127,
                "duration": 0.1113636,
                "tempo": 120.0
            },
            {
                "start_time": 44.2295455,
                "end_time": 47.1545455,
                "pitch": 54,
                "velocity": 127,
                "duration": 2.925,
                "tempo": 120.0
            },
            {
                "start_time": 47.1545455,
                "end_time": 47.2636364,
                "pitch": 47,
                "velocity": 127,
                "duration": 0.1090909,
                "tempo": 120.0
            },
            {
                "start_time": 43.9068182,
                "end_time": 47.3159091,
                "pitch": 19,
                "velocity": 127,
                "duration": 3.4090909,
                "tempo": 120.0
            },
            {
                "start_time": 47.3159091,
                "end_time": 47.5863636,
                "pitch": 40,
                "velocity": 127,
                "duration": 0.2704545,
                "tempo": 120.0
            },
            {
                "start_time": 43.7477273,
                "end_time": 47.6386364,
                "pitch": 42,
                "velocity": 127,
                "duration": 3.8909091,
                "tempo": 120.0
            },
            {
                "start_time": 47.6386364,
                "end_time": 47.7477273,
                "pitch": 35,
                "velocity": 127,
                "duration": 0.1090909,
                "tempo": 120.0
            },
            {
                "start_time": 47.3159091,
                "end_time": 47.8,
                "pitch": 19,
                "velocity": 127,
                "duration": 0.4840909,
                "tempo": 120.0
            },
            {
                "start_time": 47.8,
                "end_time": 47.9090909,
                "pitch": 40,
                "velocity": 127,
                "duration": 0.1090909,
                "tempo": 120.0
            },
            {
                "start_time": 47.9613636,
                "end_time": 48.0704545,
                "pitch": 40,
                "velocity": 127,
                "duration": 0.1090909,
                "tempo": 120.0
            },
            {
                "start_time": 48.125,
                "end_time": 48.2318182,
                "pitch": 40,
                "velocity": 127,
                "duration": 0.1068182,
                "tempo": 120.0
            },
            {
                "start_time": 48.2840909,
                "end_time": 48.3931818,
                "pitch": 40,
                "velocity": 127,
                "duration": 0.1090909,
                "tempo": 120.0
            },
            {
                "start_time": 47.1545455,
                "end_time": 48.4454545,
                "pitch": 54,
                "velocity": 127,
                "duration": 1.2909091,
                "tempo": 120.0
            },
            {
                "start_time": 48.4454545,
                "end_time": 48.5568182,
                "pitch": 47,
                "velocity": 127,
                "duration": 0.1113636,
                "tempo": 120.0
            },
            {
                "start_time": 47.8,
                "end_time": 48.6136364,
                "pitch": 19,
                "velocity": 127,
                "duration": 0.8136364,
                "tempo": 120.0
            },
            {
                "start_time": 48.6136364,
                "end_time": 48.8863636,
                "pitch": 40,
                "velocity": 127,
                "duration": 0.2727273,
                "tempo": 120.0
            },
            {
                "start_time": 47.6386364,
                "end_time": 48.9431818,
                "pitch": 42,
                "velocity": 127,
                "duration": 1.3045455,
                "tempo": 120.0
            },
            {
                "start_time": 48.9431818,
                "end_time": 49.0477273,
                "pitch": 35,
                "velocity": 127,
                "duration": 0.1045455,
                "tempo": 120.0
            },
            {
                "start_time": 48.6136364,
                "end_time": 49.1022727,
                "pitch": 19,
                "velocity": 127,
                "duration": 0.4886364,
                "tempo": 120.0
            },
            {
                "start_time": 49.1022727,
                "end_time": 49.2090909,
                "pitch": 40,
                "velocity": 127,
                "duration": 0.1068182,
                "tempo": 120.0
            },
            {
                "start_time": 49.2659091,
                "end_time": 49.3704545,
                "pitch": 40,
                "velocity": 127,
                "duration": 0.1045455,
                "tempo": 120.0
            },
            {
                "start_time": 48.4454545,
                "end_time": 49.4272727,
                "pitch": 54,
                "velocity": 127,
                "duration": 0.9818182,
                "tempo": 120.0
            },
            {
                "start_time": 49.4272727,
                "end_time": 49.5318182,
                "pitch": 43,
                "velocity": 127,
                "duration": 0.1045455,
                "tempo": 120.0
            },
            {
                "start_time": 49.5863636,
                "end_time": 49.6931818,
                "pitch": 43,
                "velocity": 127,
                "duration": 0.1068182,
                "tempo": 120.0
            },
            {
                "start_time": 46.825,
                "end_time": 49.7477273,
                "pitch": 0,
                "velocity": 127,
                "duration": 2.9227273,
                "tempo": 120.0
            },
            {
                "start_time": 49.7477273,
                "end_time": 49.8545455,
                "pitch": 38,
                "velocity": 127,
                "duration": 0.1068182,
                "tempo": 120.0
            },
            {
                "start_time": 46.0159091,
                "end_time": 49.9090909,
                "pitch": 53,
                "velocity": 127,
                "duration": 3.8931818,
                "tempo": 120.0
            },
            {
                "start_time": 49.9090909,
                "end_time": 50.1772727,
                "pitch": 43,
                "velocity": 127,
                "duration": 0.2681818,
                "tempo": 120.0
            },
            {
                "start_time": 49.7477273,
                "end_time": 50.2318182,
                "pitch": 0,
                "velocity": 127,
                "duration": 0.4840909,
                "tempo": 120.0
            },
            {
                "start_time": 50.2318182,
                "end_time": 50.3409091,
                "pitch": 36,
                "velocity": 127,
                "duration": 0.1090909,
                "tempo": 120.0
            },
            {
                "start_time": 46.5,
                "end_time": 50.3931818,
                "pitch": 52,
                "velocity": 127,
                "duration": 3.8931818,
                "tempo": 120.0
            },
            {
                "start_time": 50.3931818,
                "end_time": 50.5045455,
                "pitch": 43,
                "velocity": 127,
                "duration": 0.1113636,
                "tempo": 120.0
            },
            {
                "start_time": 50.5613636,
                "end_time": 50.6704545,
                "pitch": 43,
                "velocity": 127,
                "duration": 0.1090909,
                "tempo": 120.0
            },
            {
                "start_time": 50.7295455,
                "end_time": 50.8340909,
                "pitch": 43,
                "velocity": 127,
                "duration": 0.1045455,
                "tempo": 120.0
            },
            {
                "start_time": 50.8886364,
                "end_time": 50.9954545,
                "pitch": 43,
                "velocity": 127,
                "duration": 0.1068182,
                "tempo": 120.0
            },
            {
                "start_time": 50.2318182,
                "end_time": 51.05,
                "pitch": 0,
                "velocity": 127,
                "duration": 0.8181818,
                "tempo": 120.0
            },
            {
                "start_time": 51.05,
                "end_time": 51.1568182,
                "pitch": 38,
                "velocity": 127,
                "duration": 0.1068182,
                "tempo": 120.0
            },
            {
                "start_time": 49.9090909,
                "end_time": 51.2113636,
                "pitch": 53,
                "velocity": 127,
                "duration": 1.3022727,
                "tempo": 120.0
            },
            {
                "start_time": 51.2113636,
                "end_time": 51.4795455,
                "pitch": 43,
                "velocity": 127,
                "duration": 0.2681818,
                "tempo": 120.0
            },
            {
                "start_time": 51.05,
                "end_time": 51.5340909,
                "pitch": 0,
                "velocity": 127,
                "duration": 0.4840909,
                "tempo": 120.0
            },
            {
                "start_time": 51.5340909,
                "end_time": 51.6409091,
                "pitch": 36,
                "velocity": 127,
                "duration": 0.1068182,
                "tempo": 120.0
            },
            {
                "start_time": 50.3931818,
                "end_time": 51.6954545,
                "pitch": 52,
                "velocity": 127,
                "duration": 1.3022727,
                "tempo": 120.0
            },
            {
                "start_time": 51.6954545,
                "end_time": 51.8045455,
                "pitch": 43,
                "velocity": 127,
                "duration": 0.1090909,
                "tempo": 120.0
            },
            {
                "start_time": 51.8568182,
                "end_time": 51.9636364,
                "pitch": 43,
                "velocity": 127,
                "duration": 0.1068182,
                "tempo": 120.0
            },
            {
                "start_time": 51.5340909,
                "end_time": 52.0204545,
                "pitch": 0,
                "velocity": 127,
                "duration": 0.4863636,
                "tempo": 120.0
            },
            {
                "start_time": 52.0204545,
                "end_time": 52.1295455,
                "pitch": 40,
                "velocity": 127,
                "duration": 0.1090909,
                "tempo": 120.0
            },
            {
                "start_time": 52.1840909,
                "end_time": 52.2954545,
                "pitch": 40,
                "velocity": 127,
                "duration": 0.1113636,
                "tempo": 120.0
            },
            {
                "start_time": 49.4272727,
                "end_time": 52.3522727,
                "pitch": 54,
                "velocity": 127,
                "duration": 2.925,
                "tempo": 120.0
            },
            {
                "start_time": 52.3522727,
                "end_time": 52.4590909,
                "pitch": 47,
                "velocity": 127,
                "duration": 0.1068182,
                "tempo": 120.0
            },
            {
                "start_time": 49.1022727,
                "end_time": 52.5136364,
                "pitch": 19,
                "velocity": 127,
                "duration": 3.4113636,
                "tempo": 120.0
            },
            {
                "start_time": 52.5136364,
                "end_time": 52.7818182,
                "pitch": 40,
                "velocity": 127,
                "duration": 0.2681818,
                "tempo": 120.0
            },
            {
                "start_time": 48.9431818,
                "end_time": 52.8363636,
                "pitch": 42,
                "velocity": 127,
                "duration": 3.8931818,
                "tempo": 120.0
            },
            {
                "start_time": 52.8363636,
                "end_time": 52.9431818,
                "pitch": 35,
                "velocity": 127,
                "duration": 0.1068182,
                "tempo": 120.0
            },
            {
                "start_time": 52.5136364,
                "end_time": 52.9977273,
                "pitch": 19,
                "velocity": 127,
                "duration": 0.4840909,
                "tempo": 120.0
            },
            {
                "start_time": 52.9977273,
                "end_time": 53.1045455,
                "pitch": 40,
                "velocity": 127,
                "duration": 0.1068182,
                "tempo": 120.0
            },
            {
                "start_time": 53.1590909,
                "end_time": 53.2659091,
                "pitch": 40,
                "velocity": 127,
                "duration": 0.1068182,
                "tempo": 120.0
            },
            {
                "start_time": 53.3227273,
                "end_time": 53.4272727,
                "pitch": 40,
                "velocity": 127,
                "duration": 0.1045455,
                "tempo": 120.0
            },
            {
                "start_time": 53.4818182,
                "end_time": 53.5886364,
                "pitch": 40,
                "velocity": 127,
                "duration": 0.1068182,
                "tempo": 120.0
            },
            {
                "start_time": 52.3522727,
                "end_time": 53.6431818,
                "pitch": 54,
                "velocity": 127,
                "duration": 1.2909091,
                "tempo": 120.0
            },
            {
                "start_time": 53.6431818,
                "end_time": 53.7545455,
                "pitch": 47,
                "velocity": 127,
                "duration": 0.1113636,
                "tempo": 120.0
            },
            {
                "start_time": 52.9977273,
                "end_time": 53.8090909,
                "pitch": 19,
                "velocity": 127,
                "duration": 0.8113636,
                "tempo": 120.0
            },
            {
                "start_time": 53.8090909,
                "end_time": 54.0840909,
                "pitch": 40,
                "velocity": 127,
                "duration": 0.275,
                "tempo": 120.0
            },
            {
                "start_time": 52.8363636,
                "end_time": 54.1386364,
                "pitch": 42,
                "velocity": 127,
                "duration": 1.3022727,
                "tempo": 120.0
            },
            {
                "start_time": 54.1386364,
                "end_time": 54.2454545,
                "pitch": 35,
                "velocity": 127,
                "duration": 0.1068182,
                "tempo": 120.0
            },
            {
                "start_time": 53.8090909,
                "end_time": 54.3,
                "pitch": 19,
                "velocity": 127,
                "duration": 0.4909091,
                "tempo": 120.0
            },
            {
                "start_time": 54.3,
                "end_time": 54.4068182,
                "pitch": 40,
                "velocity": 127,
                "duration": 0.1068182,
                "tempo": 120.0
            },
            {
                "start_time": 54.4613636,
                "end_time": 54.5681818,
                "pitch": 40,
                "velocity": 127,
                "duration": 0.1068182,
                "tempo": 120.0
            },
            {
                "start_time": 53.6431818,
                "end_time": 54.6227273,
                "pitch": 54,
                "velocity": 127,
                "duration": 0.9795455,
                "tempo": 120.0
            },
            {
                "start_time": 54.6227273,
                "end_time": 54.7295455,
                "pitch": 43,
                "velocity": 127,
                "duration": 0.1068182,
                "tempo": 120.0
            },
            {
                "start_time": 54.7840909,
                "end_time": 54.8909091,
                "pitch": 43,
                "velocity": 127,
                "duration": 0.1068182,
                "tempo": 120.0
            },
            {
                "start_time": 52.0204545,
                "end_time": 54.9454545,
                "pitch": 0,
                "velocity": 127,
                "duration": 2.925,
                "tempo": 120.0
            },
            {
                "start_time": 54.9454545,
                "end_time": 55.0522727,
                "pitch": 38,
                "velocity": 127,
                "duration": 0.1068182,
                "tempo": 120.0
            },
            {
                "start_time": 51.2113636,
                "end_time": 55.1068182,
                "pitch": 53,
                "velocity": 127,
                "duration": 3.8954545,
                "tempo": 120.0
            },
            {
                "start_time": 55.1068182,
                "end_time": 55.375,
                "pitch": 43,
                "velocity": 127,
                "duration": 0.2681818,
                "tempo": 120.0
            },
            {
                "start_time": 54.9454545,
                "end_time": 55.4295455,
                "pitch": 0,
                "velocity": 127,
                "duration": 0.4840909,
                "tempo": 120.0
            },
            {
                "start_time": 55.4295455,
                "end_time": 55.5363636,
                "pitch": 36,
                "velocity": 127,
                "duration": 0.1068182,
                "tempo": 120.0
            },
            {
                "start_time": 51.6954545,
                "end_time": 55.5909091,
                "pitch": 52,
                "velocity": 127,
                "duration": 3.8954545,
                "tempo": 120.0
            },
            {
                "start_time": 55.5909091,
                "end_time": 55.7,
                "pitch": 43,
                "velocity": 127,
                "duration": 0.1090909,
                "tempo": 120.0
            },
            {
                "start_time": 55.7568182,
                "end_time": 55.8681818,
                "pitch": 43,
                "velocity": 127,
                "duration": 0.1113636,
                "tempo": 120.0
            },
            {
                "start_time": 55.925,
                "end_time": 56.0318182,
                "pitch": 43,
                "velocity": 127,
                "duration": 0.1068182,
                "tempo": 120.0
            },
            {
                "start_time": 56.0840909,
                "end_time": 56.1931818,
                "pitch": 43,
                "velocity": 127,
                "duration": 0.1090909,
                "tempo": 120.0
            },
            {
                "start_time": 55.4295455,
                "end_time": 56.2454545,
                "pitch": 0,
                "velocity": 127,
                "duration": 0.8159091,
                "tempo": 120.0
            },
            {
                "start_time": 56.2454545,
                "end_time": 56.3545455,
                "pitch": 38,
                "velocity": 127,
                "duration": 0.1090909,
                "tempo": 120.0
            },
            {
                "start_time": 55.1068182,
                "end_time": 56.4090909,
                "pitch": 53,
                "velocity": 127,
                "duration": 1.3022727,
                "tempo": 120.0
            },
            {
                "start_time": 56.4090909,
                "end_time": 56.6772727,
                "pitch": 43,
                "velocity": 127,
                "duration": 0.2681818,
                "tempo": 120.0
            },
            {
                "start_time": 56.2454545,
                "end_time": 56.7318182,
                "pitch": 0,
                "velocity": 127,
                "duration": 0.4863636,
                "tempo": 120.0
            },
            {
                "start_time": 56.7318182,
                "end_time": 56.8386364,
                "pitch": 36,
                "velocity": 127,
                "duration": 0.1068182,
                "tempo": 120.0
            },
            {
                "start_time": 55.5909091,
                "end_time": 56.8931818,
                "pitch": 52,
                "velocity": 127,
                "duration": 1.3022727,
                "tempo": 120.0
            },
            {
                "start_time": 56.8931818,
                "end_time": 57.0,
                "pitch": 43,
                "velocity": 127,
                "duration": 0.1068182,
                "tempo": 120.0
            },
            {
                "start_time": 57.0545455,
                "end_time": 57.1613636,
                "pitch": 43,
                "velocity": 127,
                "duration": 0.1068182,
                "tempo": 120.0
            },
            {
                "start_time": 56.7318182,
                "end_time": 57.2181818,
                "pitch": 0,
                "velocity": 127,
                "duration": 0.4863636,
                "tempo": 120.0
            },
            {
                "start_time": 57.2181818,
                "end_time": 57.325,
                "pitch": 36,
                "velocity": 127,
                "duration": 0.1068182,
                "tempo": 120.0
            },
            {
                "start_time": 57.3818182,
                "end_time": 57.4931818,
                "pitch": 36,
                "velocity": 127,
                "duration": 0.1113636,
                "tempo": 120.0
            },
            {
                "start_time": 56.8931818,
                "end_time": 57.5477273,
                "pitch": 52,
                "velocity": 127,
                "duration": 0.6545455,
                "tempo": 120.0
            },
            {
                "start_time": 57.5477273,
                "end_time": 57.6568182,
                "pitch": 43,
                "velocity": 127,
                "duration": 0.1090909,
                "tempo": 120.0
            },
            {
                "start_time": 57.2181818,
                "end_time": 57.7090909,
                "pitch": 0,
                "velocity": 127,
                "duration": 0.4909091,
                "tempo": 120.0
            },
            {
                "start_time": 57.7090909,
                "end_time": 57.9795455,
                "pitch": 36,
                "velocity": 127,
                "duration": 0.2704545,
                "tempo": 120.0
            },
            {
                "start_time": 58.0318182,
                "end_time": 58.1409091,
                "pitch": 33,
                "velocity": 127,
                "duration": 0.1090909,
                "tempo": 120.0
            },
            {
                "start_time": 58.1931818,
                "end_time": 58.3022727,
                "pitch": 36,
                "velocity": 127,
                "duration": 0.1090909,
                "tempo": 120.0
            },
            {
                "start_time": 58.3545455,
                "end_time": 58.4636364,
                "pitch": 36,
                "velocity": 127,
                "duration": 0.1090909,
                "tempo": 120.0
            },
            {
                "start_time": 58.5181818,
                "end_time": 58.6272727,
                "pitch": 36,
                "velocity": 127,
                "duration": 0.1090909,
                "tempo": 120.0
            },
            {
                "start_time": 58.6840909,
                "end_time": 58.7931818,
                "pitch": 36,
                "velocity": 127,
                "duration": 0.1090909,
                "tempo": 120.0
            },
            {
                "start_time": 57.5477273,
                "end_time": 58.85,
                "pitch": 52,
                "velocity": 127,
                "duration": 1.3022727,
                "tempo": 120.0
            },
            {
                "start_time": 58.85,
                "end_time": 58.9568182,
                "pitch": 43,
                "velocity": 127,
                "duration": 0.1068182,
                "tempo": 120.0
            },
            {
                "start_time": 57.7090909,
                "end_time": 59.0113636,
                "pitch": 0,
                "velocity": 127,
                "duration": 1.3022727,
                "tempo": 120.0
            },
            {
                "start_time": 59.0113636,
                "end_time": 59.2795455,
                "pitch": 36,
                "velocity": 127,
                "duration": 0.2681818,
                "tempo": 120.0
            },
            {
                "start_time": 58.0318182,
                "end_time": 59.3340909,
                "pitch": 40,
                "velocity": 127,
                "duration": 1.3022727,
                "tempo": 120.0
            },
            {
                "start_time": 59.3340909,
                "end_time": 59.4409091,
                "pitch": 33,
                "velocity": 127,
                "duration": 0.1068182,
                "tempo": 120.0
            },
            {
                "start_time": 58.1931818,
                "end_time": 59.4954545,
                "pitch": 7,
                "velocity": 127,
                "duration": 1.3022727,
                "tempo": 120.0
            },
            {
                "start_time": 59.4954545,
                "end_time": 59.6045455,
                "pitch": 36,
                "velocity": 127,
                "duration": 0.1090909,
                "tempo": 120.0
            },
            {
                "start_time": 59.6568182,
                "end_time": 59.7636364,
                "pitch": 36,
                "velocity": 127,
                "duration": 0.1068182,
                "tempo": 120.0
            },
            {
                "start_time": 59.8204545,
                "end_time": 59.925,
                "pitch": 38,
                "velocity": 127,
                "duration": 0.1045455,
                "tempo": 120.0
            },
            {
                "start_time": 59.9795455,
                "end_time": 60.0863636,
                "pitch": 38,
                "velocity": 127,
                "duration": 0.1068182,
                "tempo": 120.0
            },
            {
                "start_time": 56.4090909,
                "end_time": 60.1409091,
                "pitch": 53,
                "velocity": 127,
                "duration": 3.7318182,
                "tempo": 120.0
            },
            {
                "start_time": 60.1409091,
                "end_time": 60.2477273,
                "pitch": 45,
                "velocity": 127,
                "duration": 0.1068182,
                "tempo": 120.0
            },
            {
                "start_time": 59.4954545,
                "end_time": 60.3022727,
                "pitch": 7,
                "velocity": 127,
                "duration": 0.8068182,
                "tempo": 120.0
            },
            {
                "start_time": 60.3022727,
                "end_time": 60.5704545,
                "pitch": 38,
                "velocity": 127,
                "duration": 0.2681818,
                "tempo": 120.0
            },
            {
                "start_time": 60.625,
                "end_time": 60.7318182,
                "pitch": 31,
                "velocity": 127,
                "duration": 0.1068182,
                "tempo": 120.0
            },
            {
                "start_time": 59.0113636,
                "end_time": 60.7863636,
                "pitch": 0,
                "velocity": 127,
                "duration": 1.775,
                "tempo": 120.0
            },
            {
                "start_time": 60.7863636,
                "end_time": 60.8977273,
                "pitch": 38,
                "velocity": 127,
                "duration": 0.1113636,
                "tempo": 120.0
            },
            {
                "start_time": 60.9545455,
                "end_time": 61.0636364,
                "pitch": 38,
                "velocity": 127,
                "duration": 0.1090909,
                "tempo": 120.0
            },
            {
                "start_time": 61.1227273,
                "end_time": 61.2272727,
                "pitch": 38,
                "velocity": 127,
                "duration": 0.1045455,
                "tempo": 120.0
            },
            {
                "start_time": 61.2818182,
                "end_time": 61.3886364,
                "pitch": 38,
                "velocity": 127,
                "duration": 0.1068182,
                "tempo": 120.0
            },
            {
                "start_time": 60.1409091,
                "end_time": 61.4431818,
                "pitch": 53,
                "velocity": 127,
                "duration": 1.3022727,
                "tempo": 120.0
            },
            {
                "start_time": 61.4431818,
                "end_time": 61.55,
                "pitch": 45,
                "velocity": 127,
                "duration": 0.1068182,
                "tempo": 120.0
            },
            {
                "start_time": 60.3022727,
                "end_time": 61.6045455,
                "pitch": 7,
                "velocity": 127,
                "duration": 1.3022727,
                "tempo": 120.0
            },
            {
                "start_time": 61.6045455,
                "end_time": 61.8727273,
                "pitch": 38,
                "velocity": 127,
                "duration": 0.2681818,
                "tempo": 120.0
            },
            {
                "start_time": 60.625,
                "end_time": 61.9295455,
                "pitch": 41,
                "velocity": 127,
                "duration": 1.3045455,
                "tempo": 120.0
            },
            {
                "start_time": 61.9295455,
                "end_time": 62.0340909,
                "pitch": 31,
                "velocity": 127,
                "duration": 0.1045455,
                "tempo": 120.0
            },
            {
                "start_time": 60.7863636,
                "end_time": 62.0886364,
                "pitch": 0,
                "velocity": 127,
                "duration": 1.3022727,
                "tempo": 120.0
            },
            {
                "start_time": 62.0886364,
                "end_time": 62.1954545,
                "pitch": 38,
                "velocity": 127,
                "duration": 0.1068182,
                "tempo": 120.0
            },
            {
                "start_time": 62.25,
                "end_time": 62.3568182,
                "pitch": 38,
                "velocity": 127,
                "duration": 0.1068182,
                "tempo": 120.0
            },
            {
                "start_time": 61.9295455,
                "end_time": 62.4136364,
                "pitch": 41,
                "velocity": 127,
                "duration": 0.4840909,
                "tempo": 120.0
            },
            {
                "start_time": 62.4136364,
                "end_time": 62.5227273,
                "pitch": 33,
                "velocity": 127,
                "duration": 0.1090909,
                "tempo": 120.0
            },
            {
                "start_time": 62.5772727,
                "end_time": 62.6886364,
                "pitch": 33,
                "velocity": 127,
                "duration": 0.1113636,
                "tempo": 120.0
            },
            {
                "start_time": 61.6045455,
                "end_time": 62.7454545,
                "pitch": 7,
                "velocity": 127,
                "duration": 1.1409091,
                "tempo": 120.0
            },
            {
                "start_time": 62.7454545,
                "end_time": 62.8522727,
                "pitch": 38,
                "velocity": 127,
                "duration": 0.1068182,
                "tempo": 120.0
            },
            {
                "start_time": 62.4136364,
                "end_time": 62.9068182,
                "pitch": 41,
                "velocity": 127,
                "duration": 0.4931818,
                "tempo": 120.0
            },
            {
                "start_time": 62.9068182,
                "end_time": 63.175,
                "pitch": 33,
                "velocity": 127,
                "duration": 0.2681818,
                "tempo": 120.0
            },
            {
                "start_time": 62.7454545,
                "end_time": 63.2295455,
                "pitch": 7,
                "velocity": 127,
                "duration": 0.4840909,
                "tempo": 120.0
            },
            {
                "start_time": 59.8204545,
                "end_time": 63.3363636,
                "pitch": 36,
                "velocity": 127,
                "duration": 3.5159091,
                "tempo": 120.0
            },
            {
                "start_time": 63.2295455,
                "end_time": 63.3363636,
                "pitch": 36,
                "velocity": 127,
                "duration": 0.1068182,
                "tempo": 120.0
            },
            {
                "start_time": 59.3340909,
                "end_time": 63.3909091,
                "pitch": 40,
                "velocity": 127,
                "duration": 4.0568182,
                "tempo": 120.0
            },
            {
                "start_time": 63.3909091,
                "end_time": 63.4977273,
                "pitch": 33,
                "velocity": 127,
                "duration": 0.1068182,
                "tempo": 120.0
            },
            {
                "start_time": 63.5522727,
                "end_time": 63.6590909,
                "pitch": 33,
                "velocity": 127,
                "duration": 0.1068182,
                "tempo": 120.0
            },
            {
                "start_time": 63.7159091,
                "end_time": 63.825,
                "pitch": 33,
                "velocity": 127,
                "duration": 0.1090909,
                "tempo": 120.0
            },
            {
                "start_time": 63.8795455,
                "end_time": 63.9909091,
                "pitch": 33,
                "velocity": 127,
                "duration": 0.1113636,
                "tempo": 120.0
            },
            {
                "start_time": 63.2295455,
                "end_time": 64.0454545,
                "pitch": 7,
                "velocity": 127,
                "duration": 0.8159091,
                "tempo": 120.0
            },
            {
                "start_time": 64.0454545,
                "end_time": 64.1545455,
                "pitch": 38,
                "velocity": 127,
                "duration": 0.1090909,
                "tempo": 120.0
            },
            {
                "start_time": 62.9068182,
                "end_time": 64.2090909,
                "pitch": 41,
                "velocity": 127,
                "duration": 1.3022727,
                "tempo": 120.0
            },
            {
                "start_time": 64.2090909,
                "end_time": 64.4772727,
                "pitch": 33,
                "velocity": 127,
                "duration": 0.2681818,
                "tempo": 120.0
            },
            {
                "start_time": 64.0454545,
                "end_time": 64.5318182,
                "pitch": 7,
                "velocity": 127,
                "duration": 0.4863636,
                "tempo": 120.0
            },
            {
                "start_time": 64.5318182,
                "end_time": 64.6386364,
                "pitch": 36,
                "velocity": 127,
                "duration": 0.1068182,
                "tempo": 120.0
            },
            {
                "start_time": 63.3909091,
                "end_time": 64.6931818,
                "pitch": 40,
                "velocity": 127,
                "duration": 1.3022727,
                "tempo": 120.0
            },
            {
                "start_time": 64.6931818,
                "end_time": 64.8,
                "pitch": 33,
                "velocity": 127,
                "duration": 0.1068182,
                "tempo": 120.0
            },
            {
                "start_time": 64.8545455,
                "end_time": 64.9613636,
                "pitch": 33,
                "velocity": 127,
                "duration": 0.1068182,
                "tempo": 120.0
            },
            {
                "start_time": 65.0159091,
                "end_time": 65.1227273,
                "pitch": 33,
                "velocity": 127,
                "duration": 0.1068182,
                "tempo": 120.0
            },
            {
                "start_time": 65.1772727,
                "end_time": 65.2840909,
                "pitch": 33,
                "velocity": 127,
                "duration": 0.1068182,
                "tempo": 120.0
            },
            {
                "start_time": 64.5318182,
                "end_time": 65.3386364,
                "pitch": 7,
                "velocity": 127,
                "duration": 0.8068182,
                "tempo": 120.0
            },
            {
                "start_time": 65.3386364,
                "end_time": 65.4454545,
                "pitch": 38,
                "velocity": 127,
                "duration": 0.1068182,
                "tempo": 120.0
            },
            {
                "start_time": 64.2090909,
                "end_time": 65.5,
                "pitch": 41,
                "velocity": 127,
                "duration": 1.2909091,
                "tempo": 120.0
            },
            {
                "start_time": 65.5,
                "end_time": 65.7681818,
                "pitch": 33,
                "velocity": 127,
                "duration": 0.2681818,
                "tempo": 120.0
            },
            {
                "start_time": 65.3386364,
                "end_time": 65.8227273,
                "pitch": 7,
                "velocity": 127,
                "duration": 0.4840909,
                "tempo": 120.0
            },
            {
                "start_time": 65.8227273,
                "end_time": 65.9295455,
                "pitch": 36,
                "velocity": 127,
                "duration": 0.1068182,
                "tempo": 120.0
            },
            {
                "start_time": 64.6931818,
                "end_time": 65.9840909,
                "pitch": 40,
                "velocity": 127,
                "duration": 1.2909091,
                "tempo": 120.0
            },
            {
                "start_time": 65.9840909,
                "end_time": 66.0931818,
                "pitch": 33,
                "velocity": 127,
                "duration": 0.1090909,
                "tempo": 120.0
            },
            {
                "start_time": 66.15,
                "end_time": 66.2613636,
                "pitch": 33,
                "velocity": 127,
                "duration": 0.1113636,
                "tempo": 120.0
            },
            {
                "start_time": 66.3181818,
                "end_time": 66.425,
                "pitch": 33,
                "velocity": 127,
                "duration": 0.1068182,
                "tempo": 120.0
            },
            {
                "start_time": 66.4772727,
                "end_time": 66.5863636,
                "pitch": 33,
                "velocity": 127,
                "duration": 0.1090909,
                "tempo": 120.0
            },
            {
                "start_time": 65.8227273,
                "end_time": 66.6386364,
                "pitch": 7,
                "velocity": 127,
                "duration": 0.8159091,
                "tempo": 120.0
            },
            {
                "start_time": 66.6386364,
                "end_time": 66.7477273,
                "pitch": 38,
                "velocity": 127,
                "duration": 0.1090909,
                "tempo": 120.0
            },
            {
                "start_time": 65.5,
                "end_time": 66.8022727,
                "pitch": 41,
                "velocity": 127,
                "duration": 1.3022727,
                "tempo": 120.0
            },
            {
                "start_time": 66.8,
                "end_time": 66.8022727,
                "pitch": 41,
                "velocity": 127,
                "duration": 0.0022727,
                "tempo": 120.0
            },
            {
                "start_time": 66.8022727,
                "end_time": 67.0704545,
                "pitch": 33,
                "velocity": 127,
                "duration": 0.2681818,
                "tempo": 120.0
            },
            {
                "start_time": 66.6386364,
                "end_time": 67.125,
                "pitch": 7,
                "velocity": 127,
                "duration": 0.4863636,
                "tempo": 120.0
            },
            {
                "start_time": 67.1227273,
                "end_time": 67.125,
                "pitch": 7,
                "velocity": 127,
                "duration": 0.0022727,
                "tempo": 120.0
            },
            {
                "start_time": 67.125,
                "end_time": 67.2318182,
                "pitch": 36,
                "velocity": 127,
                "duration": 0.1068182,
                "tempo": 120.0
            },
            {
                "start_time": 65.9840909,
                "end_time": 67.2863636,
                "pitch": 40,
                "velocity": 127,
                "duration": 1.3022727,
                "tempo": 120.0
            },
            {
                "start_time": 67.2863636,
                "end_time": 67.3954545,
                "pitch": 33,
                "velocity": 127,
                "duration": 0.1090909,
                "tempo": 120.0
            },
            {
                "start_time": 67.4522727,
                "end_time": 67.5636364,
                "pitch": 33,
                "velocity": 127,
                "duration": 0.1113636,
                "tempo": 120.0
            },
            {
                "start_time": 67.2863636,
                "end_time": 67.725,
                "pitch": 40,
                "velocity": 127,
                "duration": 0.4386364,
                "tempo": 120.0
            },
            {
                "start_time": 67.6227273,
                "end_time": 67.725,
                "pitch": 40,
                "velocity": 127,
                "duration": 0.1022727,
                "tempo": 120.0
            },
            {
                "start_time": 67.7795455,
                "end_time": 67.8863636,
                "pitch": 40,
                "velocity": 127,
                "duration": 0.1068182,
                "tempo": 120.0
            },
            {
                "start_time": 54.6227273,
                "end_time": 67.9409091,
                "pitch": 54,
                "velocity": 127,
                "duration": 13.3181818,
                "tempo": 120.0
            },
            {
                "start_time": 67.9409091,
                "end_time": 68.0477273,
                "pitch": 47,
                "velocity": 127,
                "duration": 0.1068182,
                "tempo": 120.0
            },
            {
                "start_time": 54.3,
                "end_time": 68.1022727,
                "pitch": 19,
                "velocity": 127,
                "duration": 13.8022727,
                "tempo": 120.0
            },
            {
                "start_time": 68.1022727,
                "end_time": 68.3727273,
                "pitch": 40,
                "velocity": 127,
                "duration": 0.2704545,
                "tempo": 120.0
            },
            {
                "start_time": 54.1386364,
                "end_time": 68.425,
                "pitch": 42,
                "velocity": 127,
                "duration": 14.2863636,
                "tempo": 120.0
            },
            {
                "start_time": 68.425,
                "end_time": 68.5340909,
                "pitch": 35,
                "velocity": 127,
                "duration": 0.1090909,
                "tempo": 120.0
            },
            {
                "start_time": 68.1022727,
                "end_time": 68.5863636,
                "pitch": 19,
                "velocity": 127,
                "duration": 0.4840909,
                "tempo": 120.0
            },
            {
                "start_time": 68.5863636,
                "end_time": 68.6954545,
                "pitch": 40,
                "velocity": 127,
                "duration": 0.1090909,
                "tempo": 120.0
            },
            {
                "start_time": 68.7477273,
                "end_time": 68.8568182,
                "pitch": 40,
                "velocity": 127,
                "duration": 0.1090909,
                "tempo": 120.0
            },
            {
                "start_time": 68.9113636,
                "end_time": 69.0204545,
                "pitch": 40,
                "velocity": 127,
                "duration": 0.1090909,
                "tempo": 120.0
            },
            {
                "start_time": 69.0772727,
                "end_time": 69.1863636,
                "pitch": 40,
                "velocity": 127,
                "duration": 0.1090909,
                "tempo": 120.0
            },
            {
                "start_time": 67.9409091,
                "end_time": 69.2431818,
                "pitch": 54,
                "velocity": 127,
                "duration": 1.3022727,
                "tempo": 120.0
            },
            {
                "start_time": 69.2431818,
                "end_time": 69.35,
                "pitch": 47,
                "velocity": 127,
                "duration": 0.1068182,
                "tempo": 120.0
            },
            {
                "start_time": 68.5863636,
                "end_time": 69.4045455,
                "pitch": 19,
                "velocity": 127,
                "duration": 0.8181818,
                "tempo": 120.0
            },
            {
                "start_time": 69.4045455,
                "end_time": 69.6727273,
                "pitch": 40,
                "velocity": 127,
                "duration": 0.2681818,
                "tempo": 120.0
            },
            {
                "start_time": 68.425,
                "end_time": 69.7295455,
                "pitch": 42,
                "velocity": 127,
                "duration": 1.3045455,
                "tempo": 120.0
            },
            {
                "start_time": 69.7295455,
                "end_time": 69.8340909,
                "pitch": 35,
                "velocity": 127,
                "duration": 0.1045455,
                "tempo": 120.0
            },
            {
                "start_time": 69.4045455,
                "end_time": 69.8886364,
                "pitch": 19,
                "velocity": 127,
                "duration": 0.4840909,
                "tempo": 120.0
            },
            {
                "start_time": 69.8886364,
                "end_time": 69.9954545,
                "pitch": 40,
                "velocity": 127,
                "duration": 0.1068182,
                "tempo": 120.0
            },
            {
                "start_time": 70.0522727,
                "end_time": 70.1568182,
                "pitch": 40,
                "velocity": 127,
                "duration": 0.1045455,
                "tempo": 120.0
            },
            {
                "start_time": 69.2431818,
                "end_time": 70.2136364,
                "pitch": 54,
                "velocity": 127,
                "duration": 0.9704545,
                "tempo": 120.0
            },
            {
                "start_time": 70.2136364,
                "end_time": 70.3181818,
                "pitch": 43,
                "velocity": 127,
                "duration": 0.1045455,
                "tempo": 120.0
            },
            {
                "start_time": 70.3727273,
                "end_time": 70.4795455,
                "pitch": 43,
                "velocity": 127,
                "duration": 0.1068182,
                "tempo": 120.0
            },
            {
                "start_time": 62.0886364,
                "end_time": 70.5340909,
                "pitch": 0,
                "velocity": 127,
                "duration": 8.4454545,
                "tempo": 120.0
            },
            {
                "start_time": 70.5340909,
                "end_time": 70.6409091,
                "pitch": 38,
                "velocity": 127,
                "duration": 0.1068182,
                "tempo": 120.0
            },
            {
                "start_time": 61.4431818,
                "end_time": 70.6954545,
                "pitch": 53,
                "velocity": 127,
                "duration": 9.2522727,
                "tempo": 120.0
            },
            {
                "start_time": 70.6954545,
                "end_time": 70.9636364,
                "pitch": 43,
                "velocity": 127,
                "duration": 0.2681818,
                "tempo": 120.0
            },
            {
                "start_time": 70.5340909,
                "end_time": 71.0181818,
                "pitch": 0,
                "velocity": 127,
                "duration": 0.4840909,
                "tempo": 120.0
            },
            {
                "start_time": 71.0181818,
                "end_time": 71.125,
                "pitch": 36,
                "velocity": 127,
                "duration": 0.1068182,
                "tempo": 120.0
            },
            {
                "start_time": 58.85,
                "end_time": 71.1795455,
                "pitch": 52,
                "velocity": 127,
                "duration": 12.3295455,
                "tempo": 120.0
            },
            {
                "start_time": 71.1795455,
                "end_time": 71.2909091,
                "pitch": 43,
                "velocity": 127,
                "duration": 0.1113636,
                "tempo": 120.0
            },
            {
                "start_time": 71.3454545,
                "end_time": 71.4568182,
                "pitch": 43,
                "velocity": 127,
                "duration": 0.1113636,
                "tempo": 120.0
            },
            {
                "start_time": 71.5159091,
                "end_time": 71.6204545,
                "pitch": 43,
                "velocity": 127,
                "duration": 0.1045455,
                "tempo": 120.0
            },
            {
                "start_time": 71.675,
                "end_time": 71.7818182,
                "pitch": 43,
                "velocity": 127,
                "duration": 0.1068182,
                "tempo": 120.0
            },
            {
                "start_time": 71.0181818,
                "end_time": 71.8363636,
                "pitch": 0,
                "velocity": 127,
                "duration": 0.8181818,
                "tempo": 120.0
            },
            {
                "start_time": 71.8363636,
                "end_time": 71.9431818,
                "pitch": 38,
                "velocity": 127,
                "duration": 0.1068182,
                "tempo": 120.0
            },
            {
                "start_time": 70.6954545,
                "end_time": 71.9977273,
                "pitch": 53,
                "velocity": 127,
                "duration": 1.3022727,
                "tempo": 120.0
            },
            {
                "start_time": 71.9977273,
                "end_time": 72.2659091,
                "pitch": 43,
                "velocity": 127,
                "duration": 0.2681818,
                "tempo": 120.0
            },
            {
                "start_time": 71.8363636,
                "end_time": 72.3204545,
                "pitch": 0,
                "velocity": 127,
                "duration": 0.4840909,
                "tempo": 120.0
            },
            {
                "start_time": 72.3204545,
                "end_time": 72.4272727,
                "pitch": 36,
                "velocity": 127,
                "duration": 0.1068182,
                "tempo": 120.0
            },
            {
                "start_time": 71.1795455,
                "end_time": 72.4818182,
                "pitch": 52,
                "velocity": 127,
                "duration": 1.3022727,
                "tempo": 120.0
            },
            {
                "start_time": 72.4818182,
                "end_time": 72.5886364,
                "pitch": 43,
                "velocity": 127,
                "duration": 0.1068182,
                "tempo": 120.0
            },
            {
                "start_time": 72.6431818,
                "end_time": 72.75,
                "pitch": 43,
                "velocity": 127,
                "duration": 0.1068182,
                "tempo": 120.0
            },
            {
                "start_time": 72.3204545,
                "end_time": 72.8068182,
                "pitch": 0,
                "velocity": 127,
                "duration": 0.4863636,
                "tempo": 120.0
            },
            {
                "start_time": 72.8068182,
                "end_time": 72.9159091,
                "pitch": 40,
                "velocity": 127,
                "duration": 0.1090909,
                "tempo": 120.0
            },
            {
                "start_time": 72.9704545,
                "end_time": 73.0818182,
                "pitch": 40,
                "velocity": 127,
                "duration": 0.1113636,
                "tempo": 120.0
            },
            {
                "start_time": 70.2136364,
                "end_time": 73.1386364,
                "pitch": 54,
                "velocity": 127,
                "duration": 2.925,
                "tempo": 120.0
            },
            {
                "start_time": 73.1386364,
                "end_time": 73.2454545,
                "pitch": 47,
                "velocity": 127,
                "duration": 0.1068182,
                "tempo": 120.0
            },
            {
                "start_time": 69.8886364,
                "end_time": 73.3,
                "pitch": 19,
                "velocity": 127,
                "duration": 3.4113636,
                "tempo": 120.0
            },
            {
                "start_time": 73.3,
                "end_time": 73.5681818,
                "pitch": 40,
                "velocity": 127,
                "duration": 0.2681818,
                "tempo": 120.0
            },
            {
                "start_time": 69.7295455,
                "end_time": 73.6227273,
                "pitch": 42,
                "velocity": 127,
                "duration": 3.8931818,
                "tempo": 120.0
            },
            {
                "start_time": 73.6227273,
                "end_time": 73.7295455,
                "pitch": 35,
                "velocity": 127,
                "duration": 0.1068182,
                "tempo": 120.0
            },
            {
                "start_time": 73.3,
                "end_time": 73.7840909,
                "pitch": 19,
                "velocity": 127,
                "duration": 0.4840909,
                "tempo": 120.0
            },
            {
                "start_time": 73.7840909,
                "end_time": 73.8909091,
                "pitch": 40,
                "velocity": 127,
                "duration": 0.1068182,
                "tempo": 120.0
            },
            {
                "start_time": 73.9454545,
                "end_time": 74.0522727,
                "pitch": 40,
                "velocity": 127,
                "duration": 0.1068182,
                "tempo": 120.0
            },
            {
                "start_time": 74.1090909,
                "end_time": 74.2159091,
                "pitch": 40,
                "velocity": 127,
                "duration": 0.1068182,
                "tempo": 120.0
            },
            {
                "start_time": 74.2727273,
                "end_time": 74.3840909,
                "pitch": 40,
                "velocity": 127,
                "duration": 0.1113636,
                "tempo": 120.0
            },
            {
                "start_time": 73.1386364,
                "end_time": 74.4386364,
                "pitch": 54,
                "velocity": 127,
                "duration": 1.3,
                "tempo": 120.0
            },
            {
                "start_time": 74.4386364,
                "end_time": 74.5477273,
                "pitch": 47,
                "velocity": 127,
                "duration": 0.1090909,
                "tempo": 120.0
            },
            {
                "start_time": 73.7840909,
                "end_time": 74.6022727,
                "pitch": 19,
                "velocity": 127,
                "duration": 0.8181818,
                "tempo": 120.0
            },
            {
                "start_time": 74.6022727,
                "end_time": 74.8704545,
                "pitch": 40,
                "velocity": 127,
                "duration": 0.2681818,
                "tempo": 120.0
            },
            {
                "start_time": 73.6227273,
                "end_time": 74.925,
                "pitch": 42,
                "velocity": 127,
                "duration": 1.3022727,
                "tempo": 120.0
            },
            {
                "start_time": 74.925,
                "end_time": 75.0318182,
                "pitch": 35,
                "velocity": 127,
                "duration": 0.1068182,
                "tempo": 120.0
            },
            {
                "start_time": 74.6022727,
                "end_time": 75.0863636,
                "pitch": 19,
                "velocity": 127,
                "duration": 0.4840909,
                "tempo": 120.0
            },
            {
                "start_time": 75.0863636,
                "end_time": 75.1931818,
                "pitch": 40,
                "velocity": 127,
                "duration": 0.1068182,
                "tempo": 120.0
            },
            {
                "start_time": 75.2477273,
                "end_time": 75.3545455,
                "pitch": 40,
                "velocity": 127,
                "duration": 0.1068182,
                "tempo": 120.0
            },
            {
                "start_time": 74.4386364,
                "end_time": 75.4090909,
                "pitch": 54,
                "velocity": 127,
                "duration": 0.9704545,
                "tempo": 120.0
            },
            {
                "start_time": 75.4090909,
                "end_time": 75.5159091,
                "pitch": 43,
                "velocity": 127,
                "duration": 0.1068182,
                "tempo": 120.0
            },
            {
                "start_time": 75.5704545,
                "end_time": 75.6772727,
                "pitch": 43,
                "velocity": 127,
                "duration": 0.1068182,
                "tempo": 120.0
            },
            {
                "start_time": 72.8068182,
                "end_time": 75.7318182,
                "pitch": 0,
                "velocity": 127,
                "duration": 2.925,
                "tempo": 120.0
            },
            {
                "start_time": 75.7318182,
                "end_time": 75.8386364,
                "pitch": 38,
                "velocity": 127,
                "duration": 0.1068182,
                "tempo": 120.0
            },
            {
                "start_time": 71.9977273,
                "end_time": 75.8931818,
                "pitch": 53,
                "velocity": 127,
                "duration": 3.8954545,
                "tempo": 120.0
            },
            {
                "start_time": 75.8931818,
                "end_time": 76.1613636,
                "pitch": 43,
                "velocity": 127,
                "duration": 0.2681818,
                "tempo": 120.0
            },
            {
                "start_time": 75.7318182,
                "end_time": 76.2159091,
                "pitch": 0,
                "velocity": 127,
                "duration": 0.4840909,
                "tempo": 120.0
            },
            {
                "start_time": 76.2159091,
                "end_time": 76.3227273,
                "pitch": 36,
                "velocity": 127,
                "duration": 0.1068182,
                "tempo": 120.0
            },
            {
                "start_time": 72.4818182,
                "end_time": 76.3772727,
                "pitch": 52,
                "velocity": 127,
                "duration": 3.8954545,
                "tempo": 120.0
            },
            {
                "start_time": 76.3772727,
                "end_time": 76.4863636,
                "pitch": 43,
                "velocity": 127,
                "duration": 0.1090909,
                "tempo": 120.0
            },
            {
                "start_time": 76.5431818,
                "end_time": 76.6545455,
                "pitch": 43,
                "velocity": 127,
                "duration": 0.1113636,
                "tempo": 120.0
            },
            {
                "start_time": 76.7113636,
                "end_time": 76.8181818,
                "pitch": 43,
                "velocity": 127,
                "duration": 0.1068182,
                "tempo": 120.0
            },
            {
                "start_time": 76.8704545,
                "end_time": 76.9795455,
                "pitch": 43,
                "velocity": 127,
                "duration": 0.1090909,
                "tempo": 120.0
            },
            {
                "start_time": 76.2159091,
                "end_time": 77.0318182,
                "pitch": 0,
                "velocity": 127,
                "duration": 0.8159091,
                "tempo": 120.0
            },
            {
                "start_time": 77.0318182,
                "end_time": 77.1409091,
                "pitch": 38,
                "velocity": 127,
                "duration": 0.1090909,
                "tempo": 120.0
            },
            {
                "start_time": 75.8931818,
                "end_time": 77.1931818,
                "pitch": 53,
                "velocity": 127,
                "duration": 1.3,
                "tempo": 120.0
            },
            {
                "start_time": 77.1931818,
                "end_time": 77.4636364,
                "pitch": 43,
                "velocity": 127,
                "duration": 0.2704545,
                "tempo": 120.0
            },
            {
                "start_time": 77.0318182,
                "end_time": 77.5159091,
                "pitch": 0,
                "velocity": 127,
                "duration": 0.4840909,
                "tempo": 120.0
            },
            {
                "start_time": 77.5159091,
                "end_time": 77.625,
                "pitch": 36,
                "velocity": 127,
                "duration": 0.1090909,
                "tempo": 120.0
            },
            {
                "start_time": 76.3772727,
                "end_time": 77.6772727,
                "pitch": 52,
                "velocity": 127,
                "duration": 1.3,
                "tempo": 120.0
            },
            {
                "start_time": 77.6772727,
                "end_time": 77.7886364,
                "pitch": 43,
                "velocity": 127,
                "duration": 0.1113636,
                "tempo": 120.0
            },
            {
                "start_time": 77.8454545,
                "end_time": 77.9568182,
                "pitch": 43,
                "velocity": 127,
                "duration": 0.1113636,
                "tempo": 120.0
            },
            {
                "start_time": 77.5159091,
                "end_time": 78.0136364,
                "pitch": 0,
                "velocity": 127,
                "duration": 0.4977273,
                "tempo": 120.0
            },
            {
                "start_time": 78.0136364,
                "end_time": 78.1181818,
                "pitch": 40,
                "velocity": 127,
                "duration": 0.1045455,
                "tempo": 120.0
            },
            {
                "start_time": 78.1727273,
                "end_time": 78.2795455,
                "pitch": 40,
                "velocity": 127,
                "duration": 0.1068182,
                "tempo": 120.0
            }
        ]
    }
}