{
    "mood": "angry",
    "instruments": {
        "Electric Piano 1": [
            {
                "start_time": 0.1022727,
                "end_time": 0.1431818,
                "pitch": 83,
                "velocity": 64,
                "duration": 0.0409091,
                "tempo": 120.0
            },
            {
                "start_time": 0.1431818,
                "end_time": 0.2,
                "pitch": 82,
                "velocity": 64,
                "duration": 0.0568182,
                "tempo": 120.0
            },
            {
                "start_time": 0.2,
                "end_time": 0.2681818,
                "pitch": 81,
                "velocity": 64,
                "duration": 0.0681818,
                "tempo": 120.0
            },
            {
                "start_time": 0.2681818,
                "end_time": 0.3204545,
                "pitch": 80,
                "velocity": 64,
                "duration": 0.0522727,
                "tempo": 120.0
            },
            {
                "start_time": 0.3204545,
                "end_time": 0.3886364,
                "pitch": 79,
                "velocity": 64,
                "duration": 0.0681818,
                "tempo": 120.0
            },
            {
                "start_time": 0.3886364,
                "end_time": 0.4409091,
                "pitch": 78,
                "velocity": 64,
                "duration": 0.0522727,
                "tempo": 120.0
            },
            {
                "start_time": 0.4409091,
                "end_time": 0.5068182,
                "pitch": 77,
                "velocity": 64,
                "duration": 0.0659091,
                "tempo": 120.0
            },
            {
                "start_time": 0.5068182,
                "end_time": 0.575,
                "pitch": 76,
                "velocity": 64,
                "duration": 0.0681818,
                "tempo": 120.0
            },
            {
                "start_time": 0.5772727,
                "end_time": 0.6272727,
                "pitch": 75,
                "velocity": 64,
                "duration": 0.05,
                "tempo": 120.0
            },
            {
                "start_time": 0.6272727,
                "end_time": 0.6954545,
                "pitch": 74,
                "velocity": 64,
                "duration": 0.0681818,
                "tempo": 120.0
            },
            {
                "start_time": 0.6954545,
                "end_time": 0.7454545,
                "pitch": 73,
                "velocity": 64,
                "duration": 0.05,
                "tempo": 120.0
            },
            {
                "start_time": 0.7454545,
                "end_time": 0.8113636,
                "pitch": 72,
                "velocity": 64,
                "duration": 0.0659091,
                "tempo": 120.0
            },
            {
                "start_time": 0.8136364,
                "end_time": 0.8795455,
                "pitch": 71,
                "velocity": 64,
                "duration": 0.0659091,
                "tempo": 120.0
            },
            {
                "start_time": 0.8795455,
                "end_time": 0.9295455,
                "pitch": 70,
                "velocity": 64,
                "duration": 0.05,
                "tempo": 120.0
            },
            {
                "start_time": 0.9295455,
                "end_time": 0.9954545,
                "pitch": 69,
                "velocity": 64,
                "duration": 0.0659091,
                "tempo": 120.0
            },
            {
                "start_time": 0.9954545,
                "end_time": 1.0454545,
                "pitch": 68,
                "velocity": 64,
                "duration": 0.05,
                "tempo": 120.0
            },
            {
                "start_time": 1.0454545,
                "end_time": 1.1136364,
                "pitch": 67,
                "velocity": 64,
                "duration": 0.0681818,
                "tempo": 120.0
            },
            {
                "start_time": 1.1136364,
                "end_time": 1.1795455,
                "pitch": 66,
                "velocity": 64,
                "duration": 0.0659091,
                "tempo": 120.0
            },
            {
                "start_time": 1.1795455,
                "end_time": 1.2295455,
                "pitch": 65,
                "velocity": 64,
                "duration": 0.05,
                "tempo": 120.0
            },
            {
                "start_time": 1.2318182,
                "end_time": 1.3,
                "pitch": 64,
                "velocity": 64,
                "duration": 0.0681818,
                "tempo": 120.0
            },
            {
                "start_time": 1.3,
                "end_time": 1.35,
                "pitch": 63,
                "velocity": 64,
                "duration": 0.05,
                "tempo": 120.0
            },
            {
                "start_time": 1.35,
                "end_time": 1.4204545,
                "pitch": 62,
                "velocity": 64,
                "duration": 0.0704545,
                "tempo": 120.0
            },
            {
                "start_time": 1.4204545,
                "end_time": 1.4863636,
                "pitch": 61,
                "velocity": 64,
                "duration": 0.0659091,
                "tempo": 120.0
            },
            {
                "start_time": 1.4863636,
                "end_time": 1.5386364,
                "pitch": 60,
                "velocity": 64,
                "duration": 0.0522727,
                "tempo": 120.0
            },
            {
                "start_time": 1.5386364,
                "end_time": 1.6068182,
                "pitch": 59,
                "velocity": 64,
                "duration": 0.0681818,
                "tempo": 120.0
            },
            {
                "start_time": 1.6068182,
                "end_time": 1.6590909,
                "pitch": 58,
                "velocity": 64,
                "duration": 0.0522727,
                "tempo": 120.0
            },
            {
                "start_time": 1.6590909,
                "end_time": 1.725,
                "pitch": 57,
                "velocity": 64,
                "duration": 0.0659091,
                "tempo": 120.0
            },
            {
                "start_time": 1.725,
                "end_time": 1.7886364,
                "pitch": 56,
                "velocity": 64,
                "duration": 0.0636364,
                "tempo": 120.0
            },
            {
                "start_time": 1.7909091,
                "end_time": 1.8386364,
                "pitch": 55,
                "velocity": 64,
                "duration": 0.0477273,
                "tempo": 120.0
            },
            {
                "start_time": 1.8386364,
                "end_time": 1.9068182,
                "pitch": 54,
                "velocity": 64,
                "duration": 0.0681818,
                "tempo": 120.0
            },
            {
                "start_time": 1.9068182,
                "end_time": 2.0181818,
                "pitch": 79,
                "velocity": 101,
                "duration": 0.1113636,
                "tempo": 120.0
            },
            {
                "start_time": 2.0204545,
                "end_time": 2.2522727,
                "pitch": 72,
                "velocity": 101,
                "duration": 0.2318182,
                "tempo": 120.0
            },
            {
                "start_time": 2.2522727,
                "end_time": 2.3863636,
                "pitch": 79,
                "velocity": 101,
                "duration": 0.1340909,
                "tempo": 120.0
            },
            {
                "start_time": 2.3886364,
                "end_time": 2.6227273,
                "pitch": 72,
                "velocity": 101,
                "duration": 0.2340909,
                "tempo": 120.0
            },
            {
                "start_time": 2.6227273,
                "end_time": 2.7386364,
                "pitch": 79,
                "velocity": 101,
                "duration": 0.1159091,
                "tempo": 120.0
            },
            {
                "start_time": 2.7386364,
                "end_time": 2.9886364,
                "pitch": 72,
                "velocity": 101,
                "duration": 0.25,
                "tempo": 120.0
            },
            {
                "start_time": 2.9886364,
                "end_time": 3.1068182,
                "pitch": 79,
                "velocity": 101,
                "duration": 0.1181818,
                "tempo": 120.0
            },
            {
                "start_time": 3.1068182,
                "end_time": 3.3454545,
                "pitch": 72,
                "velocity": 101,
                "duration": 0.2386364,
                "tempo": 120.0
            },
            {
                "start_time": 3.3454545,
                "end_time": 3.4636364,
                "pitch": 80,
                "velocity": 101,
                "duration": 0.1181818,
                "tempo": 120.0
            },
            {
                "start_time": 3.4659091,
                "end_time": 3.6022727,
                "pitch": 72,
                "velocity": 101,
                "duration": 0.1363636,
                "tempo": 120.0
            },
            {
                "start_time": 3.6022727,
                "end_time": 3.7181818,
                "pitch": 77,
                "velocity": 101,
                "duration": 0.1159091,
                "tempo": 120.0
            },
            {
                "start_time": 3.7181818,
                "end_time": 3.8363636,
                "pitch": 72,
                "velocity": 101,
                "duration": 0.1181818,
                "tempo": 120.0
            },
            {
                "start_time": 3.8363636,
                "end_time": 3.9522727,
                "pitch": 79,
                "velocity": 101,
                "duration": 0.1159091,
                "tempo": 120.0
            },
            {
                "start_time": 3.9522727,
                "end_time": 4.2,
                "pitch": 72,
                "velocity": 101,
                "duration": 0.2477273,
                "tempo": 120.0
            },
            {
                "start_time": 4.2,
                "end_time": 4.3159091,
                "pitch": 79,
                "velocity": 101,
                "duration": 0.1159091,
                "tempo": 120.0
            },
            {
                "start_time": 4.3159091,
                "end_time": 4.5454545,
                "pitch": 72,
                "velocity": 101,
                "duration": 0.2295455,
                "tempo": 120.0
            },
            {
                "start_time": 4.5454545,
                "end_time": 4.6613636,
                "pitch": 79,
                "velocity": 101,
                "duration": 0.1159091,
                "tempo": 120.0
            },
            {
                "start_time": 4.6613636,
                "end_time": 4.9113636,
                "pitch": 72,
                "velocity": 101,
                "duration": 0.25,
                "tempo": 120.0
            },
            {
                "start_time": 4.9113636,
                "end_time": 5.0295455,
                "pitch": 79,
                "velocity": 101,
                "duration": 0.1181818,
                "tempo": 120.0
            },
            {
                "start_time": 5.0295455,
                "end_time": 5.2681818,
                "pitch": 72,
                "velocity": 101,
                "duration": 0.2386364,
                "tempo": 120.0
            },
            {
                "start_time": 5.2704545,
                "end_time": 5.4045455,
                "pitch": 82,
                "velocity": 101,
                "duration": 0.1340909,
                "tempo": 120.0
            },
            {
                "start_time": 5.4045455,
                "end_time": 5.5272727,
                "pitch": 72,
                "velocity": 101,
                "duration": 0.1227273,
                "tempo": 120.0
            },
            {
                "start_time": 5.5272727,
                "end_time": 5.6431818,
                "pitch": 77,
                "velocity": 101,
                "duration": 0.1159091,
                "tempo": 120.0
            },
            {
                "start_time": 5.6431818,
                "end_time": 5.7613636,
                "pitch": 72,
                "velocity": 101,
                "duration": 0.1181818,
                "tempo": 120.0
            },
            {
                "start_time": 5.7613636,
                "end_time": 5.8795455,
                "pitch": 79,
                "velocity": 101,
                "duration": 0.1181818,
                "tempo": 120.0
            },
            {
                "start_time": 5.8795455,
                "end_time": 6.1295455,
                "pitch": 72,
                "velocity": 101,
                "duration": 0.25,
                "tempo": 120.0
            },
            {
                "start_time": 6.1295455,
                "end_time": 6.2477273,
                "pitch": 79,
                "velocity": 101,
                "duration": 0.1181818,
                "tempo": 120.0
            },
            {
                "start_time": 6.2477273,
                "end_time": 6.4818182,
                "pitch": 72,
                "velocity": 101,
                "duration": 0.2340909,
                "tempo": 120.0
            },
            {
                "start_time": 6.4818182,
                "end_time": 6.6113636,
                "pitch": 79,
                "velocity": 101,
                "duration": 0.1295455,
                "tempo": 120.0
            },
            {
                "start_time": 6.6113636,
                "end_time": 6.8409091,
                "pitch": 72,
                "velocity": 101,
                "duration": 0.2295455,
                "tempo": 120.0
            },
            {
                "start_time": 6.8409091,
                "end_time": 6.9568182,
                "pitch": 79,
                "velocity": 101,
                "duration": 0.1159091,
                "tempo": 120.0
            },
            {
                "start_time": 6.9568182,
                "end_time": 7.2136364,
                "pitch": 72,
                "velocity": 101,
                "duration": 0.2568182,
                "tempo": 120.0
            },
            {
                "start_time": 7.2136364,
                "end_time": 7.3318182,
                "pitch": 80,
                "velocity": 101,
                "duration": 0.1181818,
                "tempo": 120.0
            },
            {
                "start_time": 7.3318182,
                "end_time": 7.4522727,
                "pitch": 72,
                "velocity": 101,
                "duration": 0.1204545,
                "tempo": 120.0
            },
            {
                "start_time": 7.4522727,
                "end_time": 7.5704545,
                "pitch": 77,
                "velocity": 101,
                "duration": 0.1181818,
                "tempo": 120.0
            },
            {
                "start_time": 7.5704545,
                "end_time": 7.6886364,
                "pitch": 72,
                "velocity": 101,
                "duration": 0.1181818,
                "tempo": 120.0
            },
            {
                "start_time": 7.6886364,
                "end_time": 7.8227273,
                "pitch": 79,
                "velocity": 101,
                "duration": 0.1340909,
                "tempo": 120.0
            },
            {
                "start_time": 7.8227273,
                "end_time": 8.0568182,
                "pitch": 72,
                "velocity": 101,
                "duration": 0.2340909,
                "tempo": 120.0
            },
            {
                "start_time": 8.0568182,
                "end_time": 8.175,
                "pitch": 79,
                "velocity": 101,
                "duration": 0.1181818,
                "tempo": 120.0
            },
            {
                "start_time": 8.175,
                "end_time": 8.425,
                "pitch": 72,
                "velocity": 101,
                "duration": 0.25,
                "tempo": 120.0
            },
            {
                "start_time": 8.425,
                "end_time": 8.5431818,
                "pitch": 79,
                "velocity": 101,
                "duration": 0.1181818,
                "tempo": 120.0
            },
            {
                "start_time": 8.5431818,
                "end_time": 8.7840909,
                "pitch": 72,
                "velocity": 101,
                "duration": 0.2409091,
                "tempo": 120.0
            },
            {
                "start_time": 8.7840909,
                "end_time": 8.9022727,
                "pitch": 79,
                "velocity": 101,
                "duration": 0.1181818,
                "tempo": 120.0
            },
            {
                "start_time": 8.9022727,
                "end_time": 9.15,
                "pitch": 72,
                "velocity": 101,
                "duration": 0.2477273,
                "tempo": 120.0
            },
            {
                "start_time": 9.15,
                "end_time": 9.2636364,
                "pitch": 79,
                "velocity": 101,
                "duration": 0.1136364,
                "tempo": 120.0
            },
            {
                "start_time": 9.2659091,
                "end_time": 9.3795455,
                "pitch": 72,
                "velocity": 101,
                "duration": 0.1136364,
                "tempo": 120.0
            },
            {
                "start_time": 9.3795455,
                "end_time": 9.5,
                "pitch": 77,
                "velocity": 101,
                "duration": 0.1204545,
                "tempo": 120.0
            },
            {
                "start_time": 9.5,
                "end_time": 9.6363636,
                "pitch": 72,
                "velocity": 101,
                "duration": 0.1363636,
                "tempo": 120.0
            },
            {
                "start_time": 9.6363636,
                "end_time": 9.7545455,
                "pitch": 79,
                "velocity": 101,
                "duration": 0.1181818,
                "tempo": 120.0
            },
            {
                "start_time": 9.7545455,
                "end_time": 9.9886364,
                "pitch": 72,
                "velocity": 101,
                "duration": 0.2340909,
                "tempo": 120.0
            },
            {
                "start_time": 9.9886364,
                "end_time": 10.1045455,
                "pitch": 79,
                "velocity": 101,
                "duration": 0.1159091,
                "tempo": 120.0
            },
            {
                "start_time": 10.1045455,
                "end_time": 10.35,
                "pitch": 72,
                "velocity": 101,
                "duration": 0.2454545,
                "tempo": 120.0
            },
            {
                "start_time": 10.3522727,
                "end_time": 10.4704545,
                "pitch": 79,
                "velocity": 101,
                "duration": 0.1181818,
                "tempo": 120.0
            },
            {
                "start_time": 10.4704545,
                "end_time": 10.7090909,
                "pitch": 72,
                "velocity": 101,
                "duration": 0.2386364,
                "tempo": 120.0
            },
            {
                "start_time": 10.7090909,
                "end_time": 10.8477273,
                "pitch": 79,
                "velocity": 101,
                "duration": 0.1386364,
                "tempo": 120.0
            },
            {
                "start_time": 10.8477273,
                "end_time": 11.0818182,
                "pitch": 72,
                "velocity": 101,
                "duration": 0.2340909,
                "tempo": 120.0
            },
            {
                "start_time": 11.0818182,
                "end_time": 11.2,
                "pitch": 80,
                "velocity": 101,
                "duration": 0.1181818,
                "tempo": 120.0
            },
            {
                "start_time": 11.2,
                "end_time": 11.3181818,
                "pitch": 72,
                "velocity": 101,
                "duration": 0.1181818,
                "tempo": 120.0
            },
            {
                "start_time": 11.3181818,
                "end_time": 11.4477273,
                "pitch": 77,
                "velocity": 101,
                "duration": 0.1295455,
                "tempo": 120.0
            },
            {
                "start_time": 11.4477273,
                "end_time": 11.5636364,
                "pitch": 72,
                "velocity": 101,
                "duration": 0.1159091,
                "tempo": 120.0
            },
            {
                "start_time": 11.5636364,
                "end_time": 11.6795455,
                "pitch": 79,
                "velocity": 101,
                "duration": 0.1159091,
                "tempo": 120.0
            },
            {
                "start_time": 11.6795455,
                "end_time": 11.9113636,
                "pitch": 72,
                "velocity": 101,
                "duration": 0.2318182,
                "tempo": 120.0
            },
            {
                "start_time": 11.9113636,
                "end_time": 12.0454545,
                "pitch": 79,
                "velocity": 101,
                "duration": 0.1340909,
                "tempo": 120.0
            },
            {
                "start_time": 12.0454545,
                "end_time": 12.2818182,
                "pitch": 72,
                "velocity": 101,
                "duration": 0.2363636,
                "tempo": 120.0
            },
            {
                "start_time": 12.2818182,
                "end_time": 12.3977273,
                "pitch": 79,
                "velocity": 101,
                "duration": 0.1159091,
                "tempo": 120.0
            },
            {
                "start_time": 12.3977273,
                "end_time": 12.65,
                "pitch": 72,
                "velocity": 101,
                "duration": 0.2522727,
                "tempo": 120.0
            },
            {
                "start_time": 12.65,
                "end_time": 12.7704545,
                "pitch": 79,
                "velocity": 101,
                "duration": 0.1204545,
                "tempo": 120.0
            },
            {
                "start_time": 12.7704545,
                "end_time": 13.0090909,
                "pitch": 72,
                "velocity": 101,
                "duration": 0.2386364,
                "tempo": 120.0
            },
            {
                "start_time": 13.0090909,
                "end_time": 13.1272727,
                "pitch": 82,
                "velocity": 101,
                "duration": 0.1181818,
                "tempo": 120.0
            },
            {
                "start_time": 13.1272727,
                "end_time": 13.2659091,
                "pitch": 72,
                "velocity": 101,
                "duration": 0.1386364,
                "tempo": 120.0
            },
            {
                "start_time": 13.2659091,
                "end_time": 13.3818182,
                "pitch": 77,
                "velocity": 101,
                "duration": 0.1159091,
                "tempo": 120.0
            },
            {
                "start_time": 13.3818182,
                "end_time": 13.5022727,
                "pitch": 72,
                "velocity": 101,
                "duration": 0.1204545,
                "tempo": 120.0
            },
            {
                "start_time": 13.5022727,
                "end_time": 13.6181818,
                "pitch": 79,
                "velocity": 101,
                "duration": 0.1159091,
                "tempo": 120.0
            },
            {
                "start_time": 13.6181818,
                "end_time": 13.8659091,
                "pitch": 72,
                "velocity": 101,
                "duration": 0.2477273,
                "tempo": 120.0
            },
            {
                "start_time": 13.8659091,
                "end_time": 13.9818182,
                "pitch": 79,
                "velocity": 101,
                "duration": 0.1159091,
                "tempo": 120.0
            },
            {
                "start_time": 13.9818182,
                "end_time": 14.2136364,
                "pitch": 72,
                "velocity": 101,
                "duration": 0.2318182,
                "tempo": 120.0
            },
            {
                "start_time": 14.2136364,
                "end_time": 14.3295455,
                "pitch": 79,
                "velocity": 101,
                "duration": 0.1159091,
                "tempo": 120.0
            },
            {
                "start_time": 14.3295455,
                "end_time": 14.5818182,
                "pitch": 72,
                "velocity": 101,
                "duration": 0.2522727,
                "tempo": 120.0
            },
            {
                "start_time": 14.5818182,
                "end_time": 14.7,
                "pitch": 79,
                "velocity": 101,
                "duration": 0.1181818,
                "tempo": 120.0
            },
            {
                "start_time": 14.7,
                "end_time": 14.9409091,
                "pitch": 72,
                "velocity": 101,
                "duration": 0.2409091,
                "tempo": 120.0
            },
            {
                "start_time": 14.9409091,
                "end_time": 15.075,
                "pitch": 80,
                "velocity": 101,
                "duration": 0.1340909,
                "tempo": 120.0
            },
            {
                "start_time": 15.075,
                "end_time": 15.1977273,
                "pitch": 72,
                "velocity": 101,
                "duration": 0.1227273,
                "tempo": 120.0
            },
            {
                "start_time": 15.1977273,
                "end_time": 15.3136364,
                "pitch": 77,
                "velocity": 101,
                "duration": 0.1159091,
                "tempo": 120.0
            },
            {
                "start_time": 15.3136364,
                "end_time": 15.4318182,
                "pitch": 72,
                "velocity": 101,
                "duration": 0.1181818,
                "tempo": 120.0
            },
            {
                "start_time": 15.4318182,
                "end_time": 15.55,
                "pitch": 79,
                "velocity": 101,
                "duration": 0.1181818,
                "tempo": 120.0
            },
            {
                "start_time": 15.55,
                "end_time": 15.8,
                "pitch": 72,
                "velocity": 101,
                "duration": 0.25,
                "tempo": 120.0
            },
            {
                "start_time": 15.8,
                "end_time": 15.9181818,
                "pitch": 79,
                "velocity": 101,
                "duration": 0.1181818,
                "tempo": 120.0
            },
            {
                "start_time": 15.9181818,
                "end_time": 16.1522727,
                "pitch": 72,
                "velocity": 101,
                "duration": 0.2340909,
                "tempo": 120.0
            },
            {
                "start_time": 16.1522727,
                "end_time": 16.2818182,
                "pitch": 79,
                "velocity": 101,
                "duration": 0.1295455,
                "tempo": 120.0
            },
            {
                "start_time": 16.2818182,
                "end_time": 16.5136364,
                "pitch": 72,
                "velocity": 101,
                "duration": 0.2318182,
                "tempo": 120.0
            },
            {
                "start_time": 16.5136364,
                "end_time": 16.6272727,
                "pitch": 79,
                "velocity": 101,
                "duration": 0.1136364,
                "tempo": 120.0
            },
            {
                "start_time": 16.6272727,
                "end_time": 16.8840909,
                "pitch": 72,
                "velocity": 101,
                "duration": 0.2568182,
                "tempo": 120.0
            },
            {
                "start_time": 16.8840909,
                "end_time": 17.0045455,
                "pitch": 79,
                "velocity": 101,
                "duration": 0.1204545,
                "tempo": 120.0
            },
            {
                "start_time": 17.0045455,
                "end_time": 17.125,
                "pitch": 72,
                "velocity": 101,
                "duration": 0.1204545,
                "tempo": 120.0
            },
            {
                "start_time": 17.125,
                "end_time": 17.2431818,
                "pitch": 77,
                "velocity": 101,
                "duration": 0.1181818,
                "tempo": 120.0
            },
            {
                "start_time": 17.2431818,
                "end_time": 17.3636364,
                "pitch": 72,
                "velocity": 101,
                "duration": 0.1204545,
                "tempo": 120.0
            },
            {
                "start_time": 17.3636364,
                "end_time": 17.4977273,
                "pitch": 80,
                "velocity": 101,
                "duration": 0.1340909,
                "tempo": 120.0
            },
            {
                "start_time": 17.4977273,
                "end_time": 17.7318182,
                "pitch": 73,
                "velocity": 101,
                "duration": 0.2340909,
                "tempo": 120.0
            },
            {
                "start_time": 17.7340909,
                "end_time": 17.8477273,
                "pitch": 80,
                "velocity": 101,
                "duration": 0.1136364,
                "tempo": 120.0
            },
            {
                "start_time": 17.85,
                "end_time": 18.0954545,
                "pitch": 73,
                "velocity": 101,
                "duration": 0.2454545,
                "tempo": 120.0
            },
            {
                "start_time": 18.0954545,
                "end_time": 18.2136364,
                "pitch": 80,
                "velocity": 101,
                "duration": 0.1181818,
                "tempo": 120.0
            },
            {
                "start_time": 18.2136364,
                "end_time": 18.4522727,
                "pitch": 73,
                "velocity": 101,
                "duration": 0.2386364,
                "tempo": 120.0
            },
            {
                "start_time": 18.4522727,
                "end_time": 18.575,
                "pitch": 80,
                "velocity": 101,
                "duration": 0.1227273,
                "tempo": 120.0
            },
            {
                "start_time": 18.575,
                "end_time": 18.8204545,
                "pitch": 73,
                "velocity": 101,
                "duration": 0.2454545,
                "tempo": 120.0
            },
            {
                "start_time": 18.8204545,
                "end_time": 18.9340909,
                "pitch": 81,
                "velocity": 101,
                "duration": 0.1136364,
                "tempo": 120.0
            },
            {
                "start_time": 18.9340909,
                "end_time": 19.05,
                "pitch": 73,
                "velocity": 101,
                "duration": 0.1159091,
                "tempo": 120.0
            },
            {
                "start_time": 19.05,
                "end_time": 19.1681818,
                "pitch": 78,
                "velocity": 101,
                "duration": 0.1181818,
                "tempo": 120.0
            },
            {
                "start_time": 19.1681818,
                "end_time": 19.3022727,
                "pitch": 73,
                "velocity": 101,
                "duration": 0.1340909,
                "tempo": 120.0
            },
            {
                "start_time": 19.3022727,
                "end_time": 19.4204545,
                "pitch": 80,
                "velocity": 101,
                "duration": 0.1181818,
                "tempo": 120.0
            },
            {
                "start_time": 19.4204545,
                "end_time": 19.6545455,
                "pitch": 73,
                "velocity": 101,
                "duration": 0.2340909,
                "tempo": 120.0
            },
            {
                "start_time": 19.6545455,
                "end_time": 19.7727273,
                "pitch": 80,
                "velocity": 101,
                "duration": 0.1181818,
                "tempo": 120.0
            },
            {
                "start_time": 19.7727273,
                "end_time": 20.025,
                "pitch": 73,
                "velocity": 101,
                "duration": 0.2522727,
                "tempo": 120.0
            },
            {
                "start_time": 20.0272727,
                "end_time": 20.1454545,
                "pitch": 80,
                "velocity": 101,
                "duration": 0.1181818,
                "tempo": 120.0
            },
            {
                "start_time": 20.1454545,
                "end_time": 20.3840909,
                "pitch": 73,
                "velocity": 101,
                "duration": 0.2386364,
                "tempo": 120.0
            },
            {
                "start_time": 20.3840909,
                "end_time": 20.5227273,
                "pitch": 80,
                "velocity": 101,
                "duration": 0.1386364,
                "tempo": 120.0
            },
            {
                "start_time": 20.5227273,
                "end_time": 20.7568182,
                "pitch": 73,
                "velocity": 101,
                "duration": 0.2340909,
                "tempo": 120.0
            },
            {
                "start_time": 20.7568182,
                "end_time": 20.8727273,
                "pitch": 83,
                "velocity": 101,
                "duration": 0.1159091,
                "tempo": 120.0
            },
            {
                "start_time": 20.875,
                "end_time": 20.9931818,
                "pitch": 73,
                "velocity": 101,
                "duration": 0.1181818,
                "tempo": 120.0
            },
            {
                "start_time": 20.9931818,
                "end_time": 21.1227273,
                "pitch": 78,
                "velocity": 101,
                "duration": 0.1295455,
                "tempo": 120.0
            },
            {
                "start_time": 21.1227273,
                "end_time": 21.2386364,
                "pitch": 73,
                "velocity": 101,
                "duration": 0.1159091,
                "tempo": 120.0
            },
            {
                "start_time": 21.2386364,
                "end_time": 21.3545455,
                "pitch": 80,
                "velocity": 101,
                "duration": 0.1159091,
                "tempo": 120.0
            },
            {
                "start_time": 21.3545455,
                "end_time": 21.5863636,
                "pitch": 73,
                "velocity": 101,
                "duration": 0.2318182,
                "tempo": 120.0
            },
            {
                "start_time": 21.5863636,
                "end_time": 21.7204545,
                "pitch": 80,
                "velocity": 101,
                "duration": 0.1340909,
                "tempo": 120.0
            },
            {
                "start_time": 21.7204545,
                "end_time": 21.9568182,
                "pitch": 73,
                "velocity": 101,
                "duration": 0.2363636,
                "tempo": 120.0
            },
            {
                "start_time": 21.9568182,
                "end_time": 22.075,
                "pitch": 80,
                "velocity": 101,
                "duration": 0.1181818,
                "tempo": 120.0
            },
            {
                "start_time": 22.075,
                "end_time": 22.3318182,
                "pitch": 73,
                "velocity": 101,
                "duration": 0.2568182,
                "tempo": 120.0
            },
            {
                "start_time": 22.3318182,
                "end_time": 22.4522727,
                "pitch": 80,
                "velocity": 101,
                "duration": 0.1204545,
                "tempo": 120.0
            },
            {
                "start_time": 22.4522727,
                "end_time": 22.6886364,
                "pitch": 73,
                "velocity": 101,
                "duration": 0.2363636,
                "tempo": 120.0
            },
            {
                "start_time": 22.6886364,
                "end_time": 22.8045455,
                "pitch": 81,
                "velocity": 101,
                "duration": 0.1159091,
                "tempo": 120.0
            },
            {
                "start_time": 22.8045455,
                "end_time": 22.9409091,
                "pitch": 73,
                "velocity": 101,
                "duration": 0.1363636,
                "tempo": 120.0
            },
            {
                "start_time": 22.9409091,
                "end_time": 23.0568182,
                "pitch": 78,
                "velocity": 101,
                "duration": 0.1159091,
                "tempo": 120.0
            },
            {
                "start_time": 23.0568182,
                "end_time": 23.175,
                "pitch": 73,
                "velocity": 101,
                "duration": 0.1181818,
                "tempo": 120.0
            },
            {
                "start_time": 23.175,
                "end_time": 23.2909091,
                "pitch": 80,
                "velocity": 101,
                "duration": 0.1159091,
                "tempo": 120.0
            },
            {
                "start_time": 23.2909091,
                "end_time": 23.5386364,
                "pitch": 73,
                "velocity": 101,
                "duration": 0.2477273,
                "tempo": 120.0
            },
            {
                "start_time": 23.5386364,
                "end_time": 23.6545455,
                "pitch": 80,
                "velocity": 101,
                "duration": 0.1159091,
                "tempo": 120.0
            },
            {
                "start_time": 23.6545455,
                "end_time": 23.8840909,
                "pitch": 73,
                "velocity": 101,
                "duration": 0.2295455,
                "tempo": 120.0
            },
            {
                "start_time": 23.8840909,
                "end_time": 24.0022727,
                "pitch": 80,
                "velocity": 101,
                "duration": 0.1181818,
                "tempo": 120.0
            },
            {
                "start_time": 24.0022727,
                "end_time": 24.2590909,
                "pitch": 73,
                "velocity": 101,
                "duration": 0.2568182,
                "tempo": 120.0
            },
            {
                "start_time": 24.2590909,
                "end_time": 24.3795455,
                "pitch": 80,
                "velocity": 101,
                "duration": 0.1204545,
                "tempo": 120.0
            },
            {
                "start_time": 24.3795455,
                "end_time": 24.6181818,
                "pitch": 73,
                "velocity": 101,
                "duration": 0.2386364,
                "tempo": 120.0
            },
            {
                "start_time": 24.6181818,
                "end_time": 24.7568182,
                "pitch": 80,
                "velocity": 101,
                "duration": 0.1386364,
                "tempo": 120.0
            },
            {
                "start_time": 24.7568182,
                "end_time": 24.875,
                "pitch": 73,
                "velocity": 101,
                "duration": 0.1181818,
                "tempo": 120.0
            },
            {
                "start_time": 24.8772727,
                "end_time": 24.9931818,
                "pitch": 78,
                "velocity": 101,
                "duration": 0.1159091,
                "tempo": 120.0
            },
            {
                "start_time": 24.9931818,
                "end_time": 25.1113636,
                "pitch": 73,
                "velocity": 101,
                "duration": 0.1181818,
                "tempo": 120.0
            },
            {
                "start_time": 25.1113636,
                "end_time": 25.2272727,
                "pitch": 80,
                "velocity": 101,
                "duration": 0.1159091,
                "tempo": 120.0
            },
            {
                "start_time": 25.2272727,
                "end_time": 25.4795455,
                "pitch": 73,
                "velocity": 101,
                "duration": 0.2522727,
                "tempo": 120.0
            },
            {
                "start_time": 25.4795455,
                "end_time": 25.5977273,
                "pitch": 80,
                "velocity": 101,
                "duration": 0.1181818,
                "tempo": 120.0
            },
            {
                "start_time": 25.5977273,
                "end_time": 25.8295455,
                "pitch": 73,
                "velocity": 101,
                "duration": 0.2318182,
                "tempo": 120.0
            },
            {
                "start_time": 25.8318182,
                "end_time": 25.9613636,
                "pitch": 80,
                "velocity": 101,
                "duration": 0.1295455,
                "tempo": 120.0
            },
            {
                "start_time": 25.9613636,
                "end_time": 26.1909091,
                "pitch": 73,
                "velocity": 101,
                "duration": 0.2295455,
                "tempo": 120.0
            },
            {
                "start_time": 26.1909091,
                "end_time": 26.3068182,
                "pitch": 80,
                "velocity": 101,
                "duration": 0.1159091,
                "tempo": 120.0
            },
            {
                "start_time": 26.3068182,
                "end_time": 26.5590909,
                "pitch": 73,
                "velocity": 101,
                "duration": 0.2522727,
                "tempo": 120.0
            },
            {
                "start_time": 26.5590909,
                "end_time": 26.675,
                "pitch": 81,
                "velocity": 101,
                "duration": 0.1159091,
                "tempo": 120.0
            },
            {
                "start_time": 26.675,
                "end_time": 26.7954545,
                "pitch": 73,
                "velocity": 101,
                "duration": 0.1204545,
                "tempo": 120.0
            },
            {
                "start_time": 26.7954545,
                "end_time": 26.9113636,
                "pitch": 78,
                "velocity": 101,
                "duration": 0.1159091,
                "tempo": 120.0
            },
            {
                "start_time": 26.9113636,
                "end_time": 27.0295455,
                "pitch": 73,
                "velocity": 101,
                "duration": 0.1181818,
                "tempo": 120.0
            },
            {
                "start_time": 27.0318182,
                "end_time": 27.1636364,
                "pitch": 80,
                "velocity": 101,
                "duration": 0.1318182,
                "tempo": 120.0
            },
            {
                "start_time": 27.1636364,
                "end_time": 27.4,
                "pitch": 73,
                "velocity": 101,
                "duration": 0.2363636,
                "tempo": 120.0
            },
            {
                "start_time": 27.4022727,
                "end_time": 27.5227273,
                "pitch": 80,
                "velocity": 101,
                "duration": 0.1204545,
                "tempo": 120.0
            },
            {
                "start_time": 27.5227273,
                "end_time": 27.7772727,
                "pitch": 73,
                "velocity": 101,
                "duration": 0.2545455,
                "tempo": 120.0
            },
            {
                "start_time": 27.7795455,
                "end_time": 27.8954545,
                "pitch": 80,
                "velocity": 101,
                "duration": 0.1159091,
                "tempo": 120.0
            },
            {
                "start_time": 27.8954545,
                "end_time": 28.1295455,
                "pitch": 73,
                "velocity": 101,
                "duration": 0.2340909,
                "tempo": 120.0
            },
            {
                "start_time": 28.1295455,
                "end_time": 28.25,
                "pitch": 80,
                "velocity": 101,
                "duration": 0.1204545,
                "tempo": 120.0
            },
            {
                "start_time": 28.25,
                "end_time": 28.4954545,
                "pitch": 73,
                "velocity": 101,
                "duration": 0.2454545,
                "tempo": 120.0
            },
            {
                "start_time": 28.4954545,
                "end_time": 28.6090909,
                "pitch": 83,
                "velocity": 101,
                "duration": 0.1136364,
                "tempo": 120.0
            },
            {
                "start_time": 28.6090909,
                "end_time": 28.725,
                "pitch": 73,
                "velocity": 101,
                "duration": 0.1159091,
                "tempo": 120.0
            },
            {
                "start_time": 28.7272727,
                "end_time": 28.8431818,
                "pitch": 78,
                "velocity": 101,
                "duration": 0.1159091,
                "tempo": 120.0
            },
            {
                "start_time": 28.8431818,
                "end_time": 28.9772727,
                "pitch": 73,
                "velocity": 101,
                "duration": 0.1340909,
                "tempo": 120.0
            },
            {
                "start_time": 28.9795455,
                "end_time": 29.0954545,
                "pitch": 80,
                "velocity": 101,
                "duration": 0.1159091,
                "tempo": 120.0
            },
            {
                "start_time": 29.0954545,
                "end_time": 29.3318182,
                "pitch": 73,
                "velocity": 101,
                "duration": 0.2363636,
                "tempo": 120.0
            },
            {
                "start_time": 29.3318182,
                "end_time": 29.4522727,
                "pitch": 80,
                "velocity": 101,
                "duration": 0.1204545,
                "tempo": 120.0
            },
            {
                "start_time": 29.4522727,
                "end_time": 29.7090909,
                "pitch": 73,
                "velocity": 101,
                "duration": 0.2568182,
                "tempo": 120.0
            },
            {
                "start_time": 29.7090909,
                "end_time": 29.825,
                "pitch": 80,
                "velocity": 101,
                "duration": 0.1159091,
                "tempo": 120.0
            },
            {
                "start_time": 29.825,
                "end_time": 30.0613636,
                "pitch": 73,
                "velocity": 101,
                "duration": 0.2363636,
                "tempo": 120.0
            },
            {
                "start_time": 30.0613636,
                "end_time": 30.1977273,
                "pitch": 80,
                "velocity": 101,
                "duration": 0.1363636,
                "tempo": 120.0
            },
            {
                "start_time": 30.1977273,
                "end_time": 30.4318182,
                "pitch": 73,
                "velocity": 101,
                "duration": 0.2340909,
                "tempo": 120.0
            },
            {
                "start_time": 30.4318182,
                "end_time": 30.55,
                "pitch": 81,
                "velocity": 101,
                "duration": 0.1181818,
                "tempo": 120.0
            },
            {
                "start_time": 30.55,
                "end_time": 30.6681818,
                "pitch": 73,
                "velocity": 101,
                "duration": 0.1181818,
                "tempo": 120.0
            },
            {
                "start_time": 30.6681818,
                "end_time": 30.7977273,
                "pitch": 78,
                "velocity": 101,
                "duration": 0.1295455,
                "tempo": 120.0
            },
            {
                "start_time": 30.8,
                "end_time": 30.9136364,
                "pitch": 73,
                "velocity": 101,
                "duration": 0.1136364,
                "tempo": 120.0
            },
            {
                "start_time": 30.9159091,
                "end_time": 31.0295455,
                "pitch": 80,
                "velocity": 101,
                "duration": 0.1136364,
                "tempo": 120.0
            },
            {
                "start_time": 31.0295455,
                "end_time": 31.2590909,
                "pitch": 73,
                "velocity": 101,
                "duration": 0.2295455,
                "tempo": 120.0
            },
            {
                "start_time": 31.2613636,
                "end_time": 31.3954545,
                "pitch": 80,
                "velocity": 101,
                "duration": 0.1340909,
                "tempo": 120.0
            },
            {
                "start_time": 31.3954545,
                "end_time": 31.6272727,
                "pitch": 73,
                "velocity": 101,
                "duration": 0.2318182,
                "tempo": 120.0
            },
            {
                "start_time": 31.6295455,
                "end_time": 31.7477273,
                "pitch": 80,
                "velocity": 101,
                "duration": 0.1181818,
                "tempo": 120.0
            },
            {
                "start_time": 31.7477273,
                "end_time": 32.0045455,
                "pitch": 73,
                "velocity": 101,
                "duration": 0.2568182,
                "tempo": 120.0
            },
            {
                "start_time": 32.0045455,
                "end_time": 32.125,
                "pitch": 80,
                "velocity": 101,
                "duration": 0.1204545,
                "tempo": 120.0
            },
            {
                "start_time": 32.125,
                "end_time": 32.3636364,
                "pitch": 73,
                "velocity": 101,
                "duration": 0.2386364,
                "tempo": 120.0
            },
            {
                "start_time": 32.3636364,
                "end_time": 32.4840909,
                "pitch": 80,
                "velocity": 101,
                "duration": 0.1204545,
                "tempo": 120.0
            },
            {
                "start_time": 32.4840909,
                "end_time": 32.6204545,
                "pitch": 73,
                "velocity": 101,
                "duration": 0.1363636,
                "tempo": 120.0
            },
            {
                "start_time": 32.6204545,
                "end_time": 32.7386364,
                "pitch": 78,
                "velocity": 101,
                "duration": 0.1181818,
                "tempo": 120.0
            },
            {
                "start_time": 32.7386364,
                "end_time": 32.8568182,
                "pitch": 73,
                "velocity": 101,
                "duration": 0.1181818,
                "tempo": 120.0
            },
            {
                "start_time": 32.8568182,
                "end_time": 32.9727273,
                "pitch": 81,
                "velocity": 101,
                "duration": 0.1159091,
                "tempo": 120.0
            },
            {
                "start_time": 32.9727273,
                "end_time": 33.2181818,
                "pitch": 74,
                "velocity": 101,
                "duration": 0.2454545,
                "tempo": 120.0
            },
            {
                "start_time": 33.2181818,
                "end_time": 33.3318182,
                "pitch": 81,
                "velocity": 101,
                "duration": 0.1136364,
                "tempo": 120.0
            },
            {
                "start_time": 33.3318182,
                "end_time": 33.5568182,
                "pitch": 74,
                "velocity": 101,
                "duration": 0.225,
                "tempo": 120.0
            },
            {
                "start_time": 33.5568182,
                "end_time": 33.675,
                "pitch": 81,
                "velocity": 101,
                "duration": 0.1181818,
                "tempo": 120.0
            },
            {
                "start_time": 33.675,
                "end_time": 33.9318182,
                "pitch": 74,
                "velocity": 101,
                "duration": 0.2568182,
                "tempo": 120.0
            },
            {
                "start_time": 33.9318182,
                "end_time": 34.0522727,
                "pitch": 81,
                "velocity": 101,
                "duration": 0.1204545,
                "tempo": 120.0
            },
            {
                "start_time": 34.0522727,
                "end_time": 34.2863636,
                "pitch": 74,
                "velocity": 101,
                "duration": 0.2340909,
                "tempo": 120.0
            },
            {
                "start_time": 34.2863636,
                "end_time": 34.4204545,
                "pitch": 82,
                "velocity": 101,
                "duration": 0.1340909,
                "tempo": 120.0
            },
            {
                "start_time": 34.4204545,
                "end_time": 34.5409091,
                "pitch": 74,
                "velocity": 101,
                "duration": 0.1204545,
                "tempo": 120.0
            },
            {
                "start_time": 34.5409091,
                "end_time": 34.6590909,
                "pitch": 79,
                "velocity": 101,
                "duration": 0.1181818,
                "tempo": 120.0
            },
            {
                "start_time": 34.6590909,
                "end_time": 34.7795455,
                "pitch": 74,
                "velocity": 101,
                "duration": 0.1204545,
                "tempo": 120.0
            },
            {
                "start_time": 34.7795455,
                "end_time": 34.8977273,
                "pitch": 81,
                "velocity": 101,
                "duration": 0.1181818,
                "tempo": 120.0
            },
            {
                "start_time": 34.8977273,
                "end_time": 35.1522727,
                "pitch": 74,
                "velocity": 101,
                "duration": 0.2545455,
                "tempo": 120.0
            },
            {
                "start_time": 35.1522727,
                "end_time": 35.2704545,
                "pitch": 81,
                "velocity": 101,
                "duration": 0.1181818,
                "tempo": 120.0
            },
            {
                "start_time": 35.2704545,
                "end_time": 35.5068182,
                "pitch": 74,
                "velocity": 101,
                "duration": 0.2363636,
                "tempo": 120.0
            },
            {
                "start_time": 35.5068182,
                "end_time": 35.6363636,
                "pitch": 81,
                "velocity": 101,
                "duration": 0.1295455,
                "tempo": 120.0
            },
            {
                "start_time": 35.6363636,
                "end_time": 35.8659091,
                "pitch": 74,
                "velocity": 101,
                "duration": 0.2295455,
                "tempo": 120.0
            },
            {
                "start_time": 35.8659091,
                "end_time": 35.9818182,
                "pitch": 81,
                "velocity": 101,
                "duration": 0.1159091,
                "tempo": 120.0
            },
            {
                "start_time": 35.9818182,
                "end_time": 36.2318182,
                "pitch": 74,
                "velocity": 101,
                "duration": 0.25,
                "tempo": 120.0
            },
            {
                "start_time": 36.2318182,
                "end_time": 36.3477273,
                "pitch": 84,
                "velocity": 101,
                "duration": 0.1159091,
                "tempo": 120.0
            },
            {
                "start_time": 36.3477273,
                "end_time": 36.4659091,
                "pitch": 74,
                "velocity": 101,
                "duration": 0.1181818,
                "tempo": 120.0
            },
            {
                "start_time": 36.4681818,
                "end_time": 36.5863636,
                "pitch": 79,
                "velocity": 101,
                "duration": 0.1181818,
                "tempo": 120.0
            },
            {
                "start_time": 36.5863636,
                "end_time": 36.7068182,
                "pitch": 74,
                "velocity": 101,
                "duration": 0.1204545,
                "tempo": 120.0
            },
            {
                "start_time": 36.7068182,
                "end_time": 36.8409091,
                "pitch": 81,
                "velocity": 101,
                "duration": 0.1340909,
                "tempo": 120.0
            },
            {
                "start_time": 36.8431818,
                "end_time": 37.0795455,
                "pitch": 74,
                "velocity": 101,
                "duration": 0.2363636,
                "tempo": 120.0
            },
            {
                "start_time": 37.0795455,
                "end_time": 37.1977273,
                "pitch": 81,
                "velocity": 101,
                "duration": 0.1181818,
                "tempo": 120.0
            },
            {
                "start_time": 37.1977273,
                "end_time": 37.45,
                "pitch": 74,
                "velocity": 101,
                "duration": 0.2522727,
                "tempo": 120.0
            },
            {
                "start_time": 37.45,
                "end_time": 37.5659091,
                "pitch": 81,
                "velocity": 101,
                "duration": 0.1159091,
                "tempo": 120.0
            },
            {
                "start_time": 37.5659091,
                "end_time": 37.8,
                "pitch": 74,
                "velocity": 101,
                "duration": 0.2340909,
                "tempo": 120.0
            },
            {
                "start_time": 37.8,
                "end_time": 37.9181818,
                "pitch": 81,
                "velocity": 101,
                "duration": 0.1181818,
                "tempo": 120.0
            },
            {
                "start_time": 37.9181818,
                "end_time": 38.1636364,
                "pitch": 74,
                "velocity": 101,
                "duration": 0.2454545,
                "tempo": 120.0
            },
            {
                "start_time": 38.1636364,
                "end_time": 38.2772727,
                "pitch": 82,
                "velocity": 101,
                "duration": 0.1136364,
                "tempo": 120.0
            },
            {
                "start_time": 38.2772727,
                "end_time": 38.3931818,
                "pitch": 74,
                "velocity": 101,
                "duration": 0.1159091,
                "tempo": 120.0
            },
            {
                "start_time": 38.3931818,
                "end_time": 38.5113636,
                "pitch": 79,
                "velocity": 101,
                "duration": 0.1181818,
                "tempo": 120.0
            },
            {
                "start_time": 38.5136364,
                "end_time": 38.65,
                "pitch": 74,
                "velocity": 101,
                "duration": 0.1363636,
                "tempo": 120.0
            },
            {
                "start_time": 38.65,
                "end_time": 38.7681818,
                "pitch": 81,
                "velocity": 101,
                "duration": 0.1181818,
                "tempo": 120.0
            },
            {
                "start_time": 38.7681818,
                "end_time": 39.0045455,
                "pitch": 74,
                "velocity": 101,
                "duration": 0.2363636,
                "tempo": 120.0
            },
            {
                "start_time": 39.0045455,
                "end_time": 39.1227273,
                "pitch": 81,
                "velocity": 101,
                "duration": 0.1181818,
                "tempo": 120.0
            },
            {
                "start_time": 39.1227273,
                "end_time": 39.3727273,
                "pitch": 74,
                "velocity": 101,
                "duration": 0.25,
                "tempo": 120.0
            },
            {
                "start_time": 39.3727273,
                "end_time": 39.4886364,
                "pitch": 81,
                "velocity": 101,
                "duration": 0.1159091,
                "tempo": 120.0
            },
            {
                "start_time": 39.4909091,
                "end_time": 39.7272727,
                "pitch": 74,
                "velocity": 101,
                "duration": 0.2363636,
                "tempo": 120.0
            },
            {
                "start_time": 39.7272727,
                "end_time": 39.8613636,
                "pitch": 81,
                "velocity": 101,
                "duration": 0.1340909,
                "tempo": 120.0
            },
            {
                "start_time": 39.8613636,
                "end_time": 40.1,
                "pitch": 74,
                "velocity": 101,
                "duration": 0.2386364,
                "tempo": 120.0
            },
            {
                "start_time": 40.1,
                "end_time": 40.2204545,
                "pitch": 81,
                "velocity": 101,
                "duration": 0.1204545,
                "tempo": 120.0
            },
            {
                "start_time": 40.2204545,
                "end_time": 40.3409091,
                "pitch": 74,
                "velocity": 101,
                "duration": 0.1204545,
                "tempo": 120.0
            },
            {
                "start_time": 40.3409091,
                "end_time": 40.4727273,
                "pitch": 79,
                "velocity": 101,
                "duration": 0.1318182,
                "tempo": 120.0
            },
            {
                "start_time": 40.4727273,
                "end_time": 40.5863636,
                "pitch": 74,
                "velocity": 101,
                "duration": 0.1136364,
                "tempo": 120.0
            },
            {
                "start_time": 40.5863636,
                "end_time": 40.7,
                "pitch": 81,
                "velocity": 101,
                "duration": 0.1136364,
                "tempo": 120.0
            },
            {
                "start_time": 40.7,
                "end_time": 40.9318182,
                "pitch": 74,
                "velocity": 101,
                "duration": 0.2318182,
                "tempo": 120.0
            },
            {
                "start_time": 40.9318182,
                "end_time": 41.0659091,
                "pitch": 81,
                "velocity": 101,
                "duration": 0.1340909,
                "tempo": 120.0
            },
            {
                "start_time": 41.0659091,
                "end_time": 41.3,
                "pitch": 74,
                "velocity": 101,
                "duration": 0.2340909,
                "tempo": 120.0
            },
            {
                "start_time": 41.3,
                "end_time": 41.4159091,
                "pitch": 81,
                "velocity": 101,
                "duration": 0.1159091,
                "tempo": 120.0
            },
            {
                "start_time": 41.4159091,
                "end_time": 41.6681818,
                "pitch": 74,
                "velocity": 101,
                "duration": 0.2522727,
                "tempo": 120.0
            },
            {
                "start_time": 41.6681818,
                "end_time": 41.7886364,
                "pitch": 81,
                "velocity": 101,
                "duration": 0.1204545,
                "tempo": 120.0
            },
            {
                "start_time": 41.7886364,
                "end_time": 42.0272727,
                "pitch": 74,
                "velocity": 101,
                "duration": 0.2386364,
                "tempo": 120.0
            },
            {
                "start_time": 42.0272727,
                "end_time": 42.1454545,
                "pitch": 82,
                "velocity": 101,
                "duration": 0.1181818,
                "tempo": 120.0
            },
            {
                "start_time": 42.1454545,
                "end_time": 42.2840909,
                "pitch": 74,
                "velocity": 101,
                "duration": 0.1386364,
                "tempo": 120.0
            },
            {
                "start_time": 42.2840909,
                "end_time": 42.4,
                "pitch": 79,
                "velocity": 101,
                "duration": 0.1159091,
                "tempo": 120.0
            },
            {
                "start_time": 42.4,
                "end_time": 42.5204545,
                "pitch": 74,
                "velocity": 101,
                "duration": 0.1204545,
                "tempo": 120.0
            },
            {
                "start_time": 42.5204545,
                "end_time": 42.6363636,
                "pitch": 81,
                "velocity": 101,
                "duration": 0.1159091,
                "tempo": 120.0
            },
            {
                "start_time": 42.6363636,
                "end_time": 42.8840909,
                "pitch": 74,
                "velocity": 101,
                "duration": 0.2477273,
                "tempo": 120.0
            },
            {
                "start_time": 42.8840909,
                "end_time": 43.0,
                "pitch": 81,
                "velocity": 101,
                "duration": 0.1159091,
                "tempo": 120.0
            },
            {
                "start_time": 43.0,
                "end_time": 43.2318182,
                "pitch": 74,
                "velocity": 101,
                "duration": 0.2318182,
                "tempo": 120.0
            },
            {
                "start_time": 43.2318182,
                "end_time": 43.3454545,
                "pitch": 81,
                "velocity": 101,
                "duration": 0.1136364,
                "tempo": 120.0
            },
            {
                "start_time": 43.3477273,
                "end_time": 43.5977273,
                "pitch": 74,
                "velocity": 101,
                "duration": 0.25,
                "tempo": 120.0
            },
            {
                "start_time": 43.5977273,
                "end_time": 43.7136364,
                "pitch": 81,
                "velocity": 101,
                "duration": 0.1159091,
                "tempo": 120.0
            },
            {
                "start_time": 43.7159091,
                "end_time": 43.9545455,
                "pitch": 74,
                "velocity": 101,
                "duration": 0.2386364,
                "tempo": 120.0
            },
            {
                "start_time": 43.9545455,
                "end_time": 44.0886364,
                "pitch": 84,
                "velocity": 101,
                "duration": 0.1340909,
                "tempo": 120.0
            },
            {
                "start_time": 44.0909091,
                "end_time": 44.2113636,
                "pitch": 74,
                "velocity": 101,
                "duration": 0.1204545,
                "tempo": 120.0
            },
            {
                "start_time": 44.2113636,
                "end_time": 44.3272727,
                "pitch": 79,
                "velocity": 101,
                "duration": 0.1159091,
                "tempo": 120.0
            },
            {
                "start_time": 44.3272727,
                "end_time": 44.4454545,
                "pitch": 74,
                "velocity": 101,
                "duration": 0.1181818,
                "tempo": 120.0
            },
            {
                "start_time": 44.4454545,
                "end_time": 44.5613636,
                "pitch": 81,
                "velocity": 101,
                "duration": 0.1159091,
                "tempo": 120.0
            },
            {
                "start_time": 44.5613636,
                "end_time": 44.8113636,
                "pitch": 74,
                "velocity": 101,
                "duration": 0.25,
                "tempo": 120.0
            },
            {
                "start_time": 44.8113636,
                "end_time": 44.9295455,
                "pitch": 81,
                "velocity": 101,
                "duration": 0.1181818,
                "tempo": 120.0
            },
            {
                "start_time": 44.9295455,
                "end_time": 45.1659091,
                "pitch": 74,
                "velocity": 101,
                "duration": 0.2363636,
                "tempo": 120.0
            },
            {
                "start_time": 45.1659091,
                "end_time": 45.2954545,
                "pitch": 81,
                "velocity": 101,
                "duration": 0.1295455,
                "tempo": 120.0
            },
            {
                "start_time": 45.2954545,
                "end_time": 45.525,
                "pitch": 74,
                "velocity": 101,
                "duration": 0.2295455,
                "tempo": 120.0
            },
            {
                "start_time": 45.525,
                "end_time": 45.6409091,
                "pitch": 81,
                "velocity": 101,
                "duration": 0.1159091,
                "tempo": 120.0
            },
            {
                "start_time": 45.6409091,
                "end_time": 45.8909091,
                "pitch": 74,
                "velocity": 101,
                "duration": 0.25,
                "tempo": 120.0
            },
            {
                "start_time": 45.8931818,
                "end_time": 46.0068182,
                "pitch": 82,
                "velocity": 101,
                "duration": 0.1136364,
                "tempo": 120.0
            },
            {
                "start_time": 46.0090909,
                "end_time": 46.1272727,
                "pitch": 74,
                "velocity": 101,
                "duration": 0.1181818,
                "tempo": 120.0
            },
            {
                "start_time": 46.1272727,
                "end_time": 46.2454545,
                "pitch": 79,
                "velocity": 101,
                "duration": 0.1181818,
                "tempo": 120.0
            },
            {
                "start_time": 46.2454545,
                "end_time": 46.3659091,
                "pitch": 74,
                "velocity": 101,
                "duration": 0.1204545,
                "tempo": 120.0
            },
            {
                "start_time": 46.3659091,
                "end_time": 46.5,
                "pitch": 81,
                "velocity": 101,
                "duration": 0.1340909,
                "tempo": 120.0
            },
            {
                "start_time": 46.5022727,
                "end_time": 46.7386364,
                "pitch": 74,
                "velocity": 101,
                "duration": 0.2363636,
                "tempo": 120.0
            },
            {
                "start_time": 46.7386364,
                "end_time": 46.8568182,
                "pitch": 81,
                "velocity": 101,
                "duration": 0.1181818,
                "tempo": 120.0
            },
            {
                "start_time": 46.8568182,
                "end_time": 47.1090909,
                "pitch": 74,
                "velocity": 101,
                "duration": 0.2522727,
                "tempo": 120.0
            },
            {
                "start_time": 47.1090909,
                "end_time": 47.2272727,
                "pitch": 81,
                "velocity": 101,
                "duration": 0.1181818,
                "tempo": 120.0
            },
            {
                "start_time": 47.2272727,
                "end_time": 47.4681818,
                "pitch": 74,
                "velocity": 101,
                "duration": 0.2409091,
                "tempo": 120.0
            },
            {
                "start_time": 47.4681818,
                "end_time": 47.5886364,
                "pitch": 81,
                "velocity": 101,
                "duration": 0.1204545,
                "tempo": 120.0
            },
            {
                "start_time": 47.5886364,
                "end_time": 47.8340909,
                "pitch": 74,
                "velocity": 101,
                "duration": 0.2454545,
                "tempo": 120.0
            },
            {
                "start_time": 47.8340909,
                "end_time": 47.95,
                "pitch": 81,
                "velocity": 101,
                "duration": 0.1159091,
                "tempo": 120.0
            },
            {
                "start_time": 47.95,
                "end_time": 48.0659091,
                "pitch": 74,
                "velocity": 101,
                "duration": 0.1159091,
                "tempo": 120.0
            },
            {
                "start_time": 48.0659091,
                "end_time": 48.1840909,
                "pitch": 79,
                "velocity": 101,
                "duration": 0.1181818,
                "tempo": 120.0
            },
            {
                "start_time": 48.1840909,
                "end_time": 48.3204545,
                "pitch": 74,
                "velocity": 101,
                "duration": 0.1363636,
                "tempo": 120.0
            },
            {
                "start_time": 48.3204545,
                "end_time": 48.4386364,
                "pitch": 82,
                "velocity": 101,
                "duration": 0.1181818,
                "tempo": 120.0
            },
            {
                "start_time": 48.4386364,
                "end_time": 48.6727273,
                "pitch": 75,
                "velocity": 101,
                "duration": 0.2340909,
                "tempo": 120.0
            },
            {
                "start_time": 48.6727273,
                "end_time": 48.7886364,
                "pitch": 82,
                "velocity": 101,
                "duration": 0.1159091,
                "tempo": 120.0
            },
            {
                "start_time": 48.7886364,
                "end_time": 49.0363636,
                "pitch": 75,
                "velocity": 101,
                "duration": 0.2477273,
                "tempo": 120.0
            },
            {
                "start_time": 49.0363636,
                "end_time": 49.1522727,
                "pitch": 82,
                "velocity": 101,
                "duration": 0.1159091,
                "tempo": 120.0
            },
            {
                "start_time": 49.1522727,
                "end_time": 49.3886364,
                "pitch": 75,
                "velocity": 101,
                "duration": 0.2363636,
                "tempo": 120.0
            },
            {
                "start_time": 49.3886364,
                "end_time": 49.525,
                "pitch": 82,
                "velocity": 101,
                "duration": 0.1363636,
                "tempo": 120.0
            },
            {
                "start_time": 49.525,
                "end_time": 49.7636364,
                "pitch": 75,
                "velocity": 101,
                "duration": 0.2386364,
                "tempo": 120.0
            },
            {
                "start_time": 49.7636364,
                "end_time": 49.8818182,
                "pitch": 83,
                "velocity": 101,
                "duration": 0.1181818,
                "tempo": 120.0
            },
            {
                "start_time": 49.8818182,
                "end_time": 50.0022727,
                "pitch": 75,
                "velocity": 101,
                "duration": 0.1204545,
                "tempo": 120.0
            },
            {
                "start_time": 50.0022727,
                "end_time": 50.1340909,
                "pitch": 80,
                "velocity": 101,
                "duration": 0.1318182,
                "tempo": 120.0
            },
            {
                "start_time": 50.1340909,
                "end_time": 50.25,
                "pitch": 75,
                "velocity": 101,
                "duration": 0.1159091,
                "tempo": 120.0
            },
            {
                "start_time": 50.25,
                "end_time": 50.3636364,
                "pitch": 82,
                "velocity": 101,
                "duration": 0.1136364,
                "tempo": 120.0
            },
            {
                "start_time": 50.3636364,
                "end_time": 50.5954545,
                "pitch": 75,
                "velocity": 101,
                "duration": 0.2318182,
                "tempo": 120.0
            },
            {
                "start_time": 50.5954545,
                "end_time": 50.7295455,
                "pitch": 82,
                "velocity": 101,
                "duration": 0.1340909,
                "tempo": 120.0
            },
            {
                "start_time": 50.7295455,
                "end_time": 50.9636364,
                "pitch": 75,
                "velocity": 101,
                "duration": 0.2340909,
                "tempo": 120.0
            },
            {
                "start_time": 50.9636364,
                "end_time": 51.0818182,
                "pitch": 82,
                "velocity": 101,
                "duration": 0.1181818,
                "tempo": 120.0
            },
            {
                "start_time": 51.0818182,
                "end_time": 51.3386364,
                "pitch": 75,
                "velocity": 101,
                "duration": 0.2568182,
                "tempo": 120.0
            },
            {
                "start_time": 51.3386364,
                "end_time": 51.4590909,
                "pitch": 82,
                "velocity": 101,
                "duration": 0.1204545,
                "tempo": 120.0
            },
            {
                "start_time": 51.4590909,
                "end_time": 51.6931818,
                "pitch": 75,
                "velocity": 101,
                "duration": 0.2340909,
                "tempo": 120.0
            },
            {
                "start_time": 51.6931818,
                "end_time": 51.8068182,
                "pitch": 85,
                "velocity": 101,
                "duration": 0.1136364,
                "tempo": 120.0
            },
            {
                "start_time": 51.8090909,
                "end_time": 51.9431818,
                "pitch": 75,
                "velocity": 101,
                "duration": 0.1340909,
                "tempo": 120.0
            },
            {
                "start_time": 51.9431818,
                "end_time": 52.0590909,
                "pitch": 80,
                "velocity": 101,
                "duration": 0.1159091,
                "tempo": 120.0
            },
            {
                "start_time": 52.0590909,
                "end_time": 52.1795455,
                "pitch": 75,
                "velocity": 101,
                "duration": 0.1204545,
                "tempo": 120.0
            },
            {
                "start_time": 52.1795455,
                "end_time": 52.2954545,
                "pitch": 82,
                "velocity": 101,
                "duration": 0.1159091,
                "tempo": 120.0
            },
            {
                "start_time": 52.2954545,
                "end_time": 52.5431818,
                "pitch": 75,
                "velocity": 101,
                "duration": 0.2477273,
                "tempo": 120.0
            },
            {
                "start_time": 52.5431818,
                "end_time": 52.6590909,
                "pitch": 82,
                "velocity": 101,
                "duration": 0.1159091,
                "tempo": 120.0
            },
            {
                "start_time": 52.6590909,
                "end_time": 52.8909091,
                "pitch": 75,
                "velocity": 101,
                "duration": 0.2318182,
                "tempo": 120.0
            },
            {
                "start_time": 52.8909091,
                "end_time": 53.0045455,
                "pitch": 82,
                "velocity": 101,
                "duration": 0.1136364,
                "tempo": 120.0
            },
            {
                "start_time": 53.0068182,
                "end_time": 53.2568182,
                "pitch": 75,
                "velocity": 101,
                "duration": 0.25,
                "tempo": 120.0
            },
            {
                "start_time": 53.2568182,
                "end_time": 53.3727273,
                "pitch": 82,
                "velocity": 101,
                "duration": 0.1159091,
                "tempo": 120.0
            },
            {
                "start_time": 53.375,
                "end_time": 53.6136364,
                "pitch": 75,
                "velocity": 101,
                "duration": 0.2386364,
                "tempo": 120.0
            },
            {
                "start_time": 53.6136364,
                "end_time": 53.7477273,
                "pitch": 83,
                "velocity": 101,
                "duration": 0.1340909,
                "tempo": 120.0
            },
            {
                "start_time": 53.75,
                "end_time": 53.8704545,
                "pitch": 75,
                "velocity": 101,
                "duration": 0.1204545,
                "tempo": 120.0
            },
            {
                "start_time": 53.8704545,
                "end_time": 53.9863636,
                "pitch": 80,
                "velocity": 101,
                "duration": 0.1159091,
                "tempo": 120.0
            },
            {
                "start_time": 53.9863636,
                "end_time": 54.1045455,
                "pitch": 75,
                "velocity": 101,
                "duration": 0.1181818,
                "tempo": 120.0
            },
            {
                "start_time": 54.1045455,
                "end_time": 54.2227273,
                "pitch": 82,
                "velocity": 101,
                "duration": 0.1181818,
                "tempo": 120.0
            },
            {
                "start_time": 54.2227273,
                "end_time": 54.4727273,
                "pitch": 75,
                "velocity": 101,
                "duration": 0.25,
                "tempo": 120.0
            },
            {
                "start_time": 54.4727273,
                "end_time": 54.5909091,
                "pitch": 82,
                "velocity": 101,
                "duration": 0.1181818,
                "tempo": 120.0
            },
            {
                "start_time": 54.5909091,
                "end_time": 54.825,
                "pitch": 75,
                "velocity": 101,
                "duration": 0.2340909,
                "tempo": 120.0
            },
            {
                "start_time": 54.825,
                "end_time": 54.9545455,
                "pitch": 82,
                "velocity": 101,
                "duration": 0.1295455,
                "tempo": 120.0
            },
            {
                "start_time": 54.9545455,
                "end_time": 55.1863636,
                "pitch": 75,
                "velocity": 101,
                "duration": 0.2318182,
                "tempo": 120.0
            },
            {
                "start_time": 55.1863636,
                "end_time": 55.3,
                "pitch": 82,
                "velocity": 101,
                "duration": 0.1136364,
                "tempo": 120.0
            },
            {
                "start_time": 55.3,
                "end_time": 55.5568182,
                "pitch": 75,
                "velocity": 101,
                "duration": 0.2568182,
                "tempo": 120.0
            },
            {
                "start_time": 55.5568182,
                "end_time": 55.6772727,
                "pitch": 82,
                "velocity": 101,
                "duration": 0.1204545,
                "tempo": 120.0
            },
            {
                "start_time": 55.6772727,
                "end_time": 55.7977273,
                "pitch": 75,
                "velocity": 101,
                "duration": 0.1204545,
                "tempo": 120.0
            },
            {
                "start_time": 55.7977273,
                "end_time": 55.9159091,
                "pitch": 80,
                "velocity": 101,
                "duration": 0.1181818,
                "tempo": 120.0
            },
            {
                "start_time": 55.9181818,
                "end_time": 56.0363636,
                "pitch": 75,
                "velocity": 101,
                "duration": 0.1181818,
                "tempo": 120.0
            },
            {
                "start_time": 56.0363636,
                "end_time": 56.1727273,
                "pitch": 82,
                "velocity": 101,
                "duration": 0.1363636,
                "tempo": 120.0
            },
            {
                "start_time": 56.1727273,
                "end_time": 56.4068182,
                "pitch": 75,
                "velocity": 101,
                "duration": 0.2340909,
                "tempo": 120.0
            },
            {
                "start_time": 56.4068182,
                "end_time": 56.5227273,
                "pitch": 82,
                "velocity": 101,
                "duration": 0.1159091,
                "tempo": 120.0
            },
            {
                "start_time": 56.5227273,
                "end_time": 56.7681818,
                "pitch": 75,
                "velocity": 101,
                "duration": 0.2454545,
                "tempo": 120.0
            },
            {
                "start_time": 56.7681818,
                "end_time": 56.8863636,
                "pitch": 82,
                "velocity": 101,
                "duration": 0.1181818,
                "tempo": 120.0
            },
            {
                "start_time": 56.8863636,
                "end_time": 57.1272727,
                "pitch": 75,
                "velocity": 101,
                "duration": 0.2409091,
                "tempo": 120.0
            },
            {
                "start_time": 57.1272727,
                "end_time": 57.2477273,
                "pitch": 82,
                "velocity": 101,
                "duration": 0.1204545,
                "tempo": 120.0
            },
            {
                "start_time": 57.2477273,
                "end_time": 57.4931818,
                "pitch": 75,
                "velocity": 101,
                "duration": 0.2454545,
                "tempo": 120.0
            },
            {
                "start_time": 57.4931818,
                "end_time": 57.6068182,
                "pitch": 83,
                "velocity": 101,
                "duration": 0.1136364,
                "tempo": 120.0
            },
            {
                "start_time": 57.6068182,
                "end_time": 57.725,
                "pitch": 75,
                "velocity": 101,
                "duration": 0.1181818,
                "tempo": 120.0
            },
            {
                "start_time": 57.725,
                "end_time": 57.8386364,
                "pitch": 80,
                "velocity": 101,
                "duration": 0.1136364,
                "tempo": 120.0
            },
            {
                "start_time": 57.8409091,
                "end_time": 57.975,
                "pitch": 75,
                "velocity": 101,
                "duration": 0.1340909,
                "tempo": 120.0
            },
            {
                "start_time": 57.975,
                "end_time": 58.0909091,
                "pitch": 82,
                "velocity": 101,
                "duration": 0.1159091,
                "tempo": 120.0
            },
            {
                "start_time": 58.0909091,
                "end_time": 58.3227273,
                "pitch": 75,
                "velocity": 101,
                "duration": 0.2318182,
                "tempo": 120.0
            },
            {
                "start_time": 58.3227273,
                "end_time": 58.4409091,
                "pitch": 82,
                "velocity": 101,
                "duration": 0.1181818,
                "tempo": 120.0
            },
            {
                "start_time": 58.4409091,
                "end_time": 58.6909091,
                "pitch": 75,
                "velocity": 101,
                "duration": 0.25,
                "tempo": 120.0
            },
            {
                "start_time": 58.6909091,
                "end_time": 58.8090909,
                "pitch": 82,
                "velocity": 101,
                "duration": 0.1181818,
                "tempo": 120.0
            },
            {
                "start_time": 58.8090909,
                "end_time": 59.05,
                "pitch": 75,
                "velocity": 101,
                "duration": 0.2409091,
                "tempo": 120.0
            },
            {
                "start_time": 59.05,
                "end_time": 59.1863636,
                "pitch": 82,
                "velocity": 101,
                "duration": 0.1363636,
                "tempo": 120.0
            },
            {
                "start_time": 59.1863636,
                "end_time": 59.4227273,
                "pitch": 75,
                "velocity": 101,
                "duration": 0.2363636,
                "tempo": 120.0
            },
            {
                "start_time": 59.4227273,
                "end_time": 59.5386364,
                "pitch": 85,
                "velocity": 101,
                "duration": 0.1159091,
                "tempo": 120.0
            },
            {
                "start_time": 59.5386364,
                "end_time": 59.6590909,
                "pitch": 75,
                "velocity": 101,
                "duration": 0.1204545,
                "tempo": 120.0
            },
            {
                "start_time": 59.6590909,
                "end_time": 59.7886364,
                "pitch": 80,
                "velocity": 101,
                "duration": 0.1295455,
                "tempo": 120.0
            },
            {
                "start_time": 59.7886364,
                "end_time": 59.9045455,
                "pitch": 75,
                "velocity": 101,
                "duration": 0.1159091,
                "tempo": 120.0
            },
            {
                "start_time": 59.9045455,
                "end_time": 60.0181818,
                "pitch": 82,
                "velocity": 101,
                "duration": 0.1136364,
                "tempo": 120.0
            },
            {
                "start_time": 60.0181818,
                "end_time": 60.25,
                "pitch": 75,
                "velocity": 101,
                "duration": 0.2318182,
                "tempo": 120.0
            },
            {
                "start_time": 60.25,
                "end_time": 60.3840909,
                "pitch": 82,
                "velocity": 101,
                "duration": 0.1340909,
                "tempo": 120.0
            },
            {
                "start_time": 60.3840909,
                "end_time": 60.6181818,
                "pitch": 75,
                "velocity": 101,
                "duration": 0.2340909,
                "tempo": 120.0
            },
            {
                "start_time": 60.6181818,
                "end_time": 60.7363636,
                "pitch": 82,
                "velocity": 101,
                "duration": 0.1181818,
                "tempo": 120.0
            },
            {
                "start_time": 60.7363636,
                "end_time": 60.9931818,
                "pitch": 75,
                "velocity": 101,
                "duration": 0.2568182,
                "tempo": 120.0
            },
            {
                "start_time": 60.9931818,
                "end_time": 61.1136364,
                "pitch": 82,
                "velocity": 101,
                "duration": 0.1204545,
                "tempo": 120.0
            },
            {
                "start_time": 61.1136364,
                "end_time": 61.3477273,
                "pitch": 75,
                "velocity": 101,
                "duration": 0.2340909,
                "tempo": 120.0
            },
            {
                "start_time": 61.3477273,
                "end_time": 61.4636364,
                "pitch": 83,
                "velocity": 101,
                "duration": 0.1159091,
                "tempo": 120.0
            },
            {
                "start_time": 61.4636364,
                "end_time": 61.5977273,
                "pitch": 75,
                "velocity": 101,
                "duration": 0.1340909,
                "tempo": 120.0
            },
            {
                "start_time": 61.5977273,
                "end_time": 61.7159091,
                "pitch": 80,
                "velocity": 101,
                "duration": 0.1181818,
                "tempo": 120.0
            },
            {
                "start_time": 61.7181818,
                "end_time": 61.8386364,
                "pitch": 75,
                "velocity": 101,
                "duration": 0.1204545,
                "tempo": 120.0
            },
            {
                "start_time": 61.8386364,
                "end_time": 61.9568182,
                "pitch": 82,
                "velocity": 101,
                "duration": 0.1181818,
                "tempo": 120.0
            },
            {
                "start_time": 61.9568182,
                "end_time": 62.2045455,
                "pitch": 75,
                "velocity": 101,
                "duration": 0.2477273,
                "tempo": 120.0
            },
            {
                "start_time": 62.2045455,
                "end_time": 62.3159091,
                "pitch": 82,
                "velocity": 101,
                "duration": 0.1113636,
                "tempo": 120.0
            },
            {
                "start_time": 62.3181818,
                "end_time": 62.5409091,
                "pitch": 75,
                "velocity": 101,
                "duration": 0.2227273,
                "tempo": 120.0
            },
            {
                "start_time": 62.5409091,
                "end_time": 62.6590909,
                "pitch": 82,
                "velocity": 101,
                "duration": 0.1181818,
                "tempo": 120.0
            },
            {
                "start_time": 62.6613636,
                "end_time": 62.9181818,
                "pitch": 75,
                "velocity": 101,
                "duration": 0.2568182,
                "tempo": 120.0
            },
            {
                "start_time": 62.9181818,
                "end_time": 63.0363636,
                "pitch": 82,
                "velocity": 101,
                "duration": 0.1181818,
                "tempo": 120.0
            },
            {
                "start_time": 63.0386364,
                "end_time": 63.2772727,
                "pitch": 75,
                "velocity": 101,
                "duration": 0.2386364,
                "tempo": 120.0
            },
            {
                "start_time": 63.2772727,
                "end_time": 63.4136364,
                "pitch": 82,
                "velocity": 101,
                "duration": 0.1363636,
                "tempo": 120.0
            },
            {
                "start_time": 63.4136364,
                "end_time": 63.5340909,
                "pitch": 75,
                "velocity": 101,
                "duration": 0.1204545,
                "tempo": 120.0
            },
            {
                "start_time": 63.5340909,
                "end_time": 63.6522727,
                "pitch": 80,
                "velocity": 101,
                "duration": 0.1181818,
                "tempo": 120.0
            },
            {
                "start_time": 63.6522727,
                "end_time": 63.7681818,
                "pitch": 75,
                "velocity": 101,
                "duration": 0.1159091,
                "tempo": 120.0
            },
            {
                "start_time": 63.7704545,
                "end_time": 63.8863636,
                "pitch": 83,
                "velocity": 101,
                "duration": 0.1159091,
                "tempo": 120.0
            },
            {
                "start_time": 63.8863636,
                "end_time": 64.1363636,
                "pitch": 76,
                "velocity": 101,
                "duration": 0.25,
                "tempo": 120.0
            },
            {
                "start_time": 64.1363636,
                "end_time": 64.2545455,
                "pitch": 83,
                "velocity": 101,
                "duration": 0.1181818,
                "tempo": 120.0
            },
            {
                "start_time": 64.2545455,
                "end_time": 64.4886364,
                "pitch": 76,
                "velocity": 101,
                "duration": 0.2340909,
                "tempo": 120.0
            },
            {
                "start_time": 64.4886364,
                "end_time": 64.6181818,
                "pitch": 83,
                "velocity": 101,
                "duration": 0.1295455,
                "tempo": 120.0
            },
            {
                "start_time": 64.6181818,
                "end_time": 64.8477273,
                "pitch": 76,
                "velocity": 101,
                "duration": 0.2295455,
                "tempo": 120.0
            },
            {
                "start_time": 64.8477273,
                "end_time": 64.9636364,
                "pitch": 83,
                "velocity": 101,
                "duration": 0.1159091,
                "tempo": 120.0
            },
            {
                "start_time": 64.9659091,
                "end_time": 65.2159091,
                "pitch": 76,
                "velocity": 101,
                "duration": 0.25,
                "tempo": 120.0
            },
            {
                "start_time": 65.2159091,
                "end_time": 65.3340909,
                "pitch": 84,
                "velocity": 101,
                "duration": 0.1181818,
                "tempo": 120.0
            },
            {
                "start_time": 65.3340909,
                "end_time": 65.4522727,
                "pitch": 76,
                "velocity": 101,
                "duration": 0.1181818,
                "tempo": 120.0
            },
            {
                "start_time": 65.4522727,
                "end_time": 65.5704545,
                "pitch": 81,
                "velocity": 101,
                "duration": 0.1181818,
                "tempo": 120.0
            },
            {
                "start_time": 65.5704545,
                "end_time": 65.6886364,
                "pitch": 76,
                "velocity": 101,
                "duration": 0.1181818,
                "tempo": 120.0
            },
            {
                "start_time": 65.6886364,
                "end_time": 65.8227273,
                "pitch": 83,
                "velocity": 101,
                "duration": 0.1340909,
                "tempo": 120.0
            },
            {
                "start_time": 65.8227273,
                "end_time": 66.0590909,
                "pitch": 76,
                "velocity": 101,
                "duration": 0.2363636,
                "tempo": 120.0
            },
            {
                "start_time": 66.0590909,
                "end_time": 66.1795455,
                "pitch": 83,
                "velocity": 101,
                "duration": 0.1204545,
                "tempo": 120.0
            },
            {
                "start_time": 66.1795455,
                "end_time": 66.4363636,
                "pitch": 76,
                "velocity": 101,
                "duration": 0.2568182,
                "tempo": 120.0
            },
            {
                "start_time": 66.4363636,
                "end_time": 66.5522727,
                "pitch": 83,
                "velocity": 101,
                "duration": 0.1159091,
                "tempo": 120.0
            },
            {
                "start_time": 66.5522727,
                "end_time": 66.7886364,
                "pitch": 76,
                "velocity": 101,
                "duration": 0.2363636,
                "tempo": 120.0
            },
            {
                "start_time": 66.7886364,
                "end_time": 66.9068182,
                "pitch": 83,
                "velocity": 101,
                "duration": 0.1181818,
                "tempo": 120.0
            },
            {
                "start_time": 66.9068182,
                "end_time": 67.1522727,
                "pitch": 76,
                "velocity": 101,
                "duration": 0.2454545,
                "tempo": 120.0
            },
            {
                "start_time": 67.1522727,
                "end_time": 67.2681818,
                "pitch": 86,
                "velocity": 101,
                "duration": 0.1159091,
                "tempo": 120.0
            },
            {
                "start_time": 67.2681818,
                "end_time": 67.3840909,
                "pitch": 76,
                "velocity": 101,
                "duration": 0.1159091,
                "tempo": 120.0
            },
            {
                "start_time": 67.3840909,
                "end_time": 67.5,
                "pitch": 81,
                "velocity": 101,
                "duration": 0.1159091,
                "tempo": 120.0
            },
            {
                "start_time": 67.5,
                "end_time": 67.6363636,
                "pitch": 76,
                "velocity": 101,
                "duration": 0.1363636,
                "tempo": 120.0
            },
            {
                "start_time": 67.6363636,
                "end_time": 67.7522727,
                "pitch": 83,
                "velocity": 101,
                "duration": 0.1159091,
                "tempo": 120.0
            },
            {
                "start_time": 67.7522727,
                "end_time": 67.9886364,
                "pitch": 76,
                "velocity": 101,
                "duration": 0.2363636,
                "tempo": 120.0
            },
            {
                "start_time": 67.9909091,
                "end_time": 68.1113636,
                "pitch": 83,
                "velocity": 101,
                "duration": 0.1204545,
                "tempo": 120.0
            },
            {
                "start_time": 68.1113636,
                "end_time": 68.3659091,
                "pitch": 76,
                "velocity": 101,
                "duration": 0.2545455,
                "tempo": 120.0
            },
            {
                "start_time": 68.3681818,
                "end_time": 68.4840909,
                "pitch": 83,
                "velocity": 101,
                "duration": 0.1159091,
                "tempo": 120.0
            },
            {
                "start_time": 68.4840909,
                "end_time": 68.7181818,
                "pitch": 76,
                "velocity": 101,
                "duration": 0.2340909,
                "tempo": 120.0
            },
            {
                "start_time": 68.7181818,
                "end_time": 68.8545455,
                "pitch": 83,
                "velocity": 101,
                "duration": 0.1363636,
                "tempo": 120.0
            },
            {
                "start_time": 68.8545455,
                "end_time": 69.0886364,
                "pitch": 76,
                "velocity": 101,
                "duration": 0.2340909,
                "tempo": 120.0
            },
            {
                "start_time": 69.0886364,
                "end_time": 69.2045455,
                "pitch": 84,
                "velocity": 101,
                "duration": 0.1159091,
                "tempo": 120.0
            },
            {
                "start_time": 69.2045455,
                "end_time": 69.3227273,
                "pitch": 76,
                "velocity": 101,
                "duration": 0.1181818,
                "tempo": 120.0
            },
            {
                "start_time": 69.3227273,
                "end_time": 69.4522727,
                "pitch": 81,
                "velocity": 101,
                "duration": 0.1295455,
                "tempo": 120.0
            },
            {
                "start_time": 69.4522727,
                "end_time": 69.5681818,
                "pitch": 76,
                "velocity": 101,
                "duration": 0.1159091,
                "tempo": 120.0
            },
            {
                "start_time": 69.5681818,
                "end_time": 69.6818182,
                "pitch": 83,
                "velocity": 101,
                "duration": 0.1136364,
                "tempo": 120.0
            },
            {
                "start_time": 69.6818182,
                "end_time": 69.9159091,
                "pitch": 76,
                "velocity": 101,
                "duration": 0.2340909,
                "tempo": 120.0
            },
            {
                "start_time": 69.9159091,
                "end_time": 70.05,
                "pitch": 83,
                "velocity": 101,
                "duration": 0.1340909,
                "tempo": 120.0
            },
            {
                "start_time": 70.05,
                "end_time": 70.2863636,
                "pitch": 76,
                "velocity": 101,
                "duration": 0.2363636,
                "tempo": 120.0
            },
            {
                "start_time": 70.2863636,
                "end_time": 70.4045455,
                "pitch": 83,
                "velocity": 101,
                "duration": 0.1181818,
                "tempo": 120.0
            },
            {
                "start_time": 70.4045455,
                "end_time": 70.6613636,
                "pitch": 76,
                "velocity": 101,
                "duration": 0.2568182,
                "tempo": 120.0
            },
            {
                "start_time": 70.6636364,
                "end_time": 70.7818182,
                "pitch": 83,
                "velocity": 101,
                "duration": 0.1181818,
                "tempo": 120.0
            },
            {
                "start_time": 70.7818182,
                "end_time": 71.0204545,
                "pitch": 76,
                "velocity": 101,
                "duration": 0.2386364,
                "tempo": 120.0
            },
            {
                "start_time": 71.0204545,
                "end_time": 71.1409091,
                "pitch": 83,
                "velocity": 101,
                "duration": 0.1204545,
                "tempo": 120.0
            },
            {
                "start_time": 71.1409091,
                "end_time": 71.2772727,
                "pitch": 76,
                "velocity": 101,
                "duration": 0.1363636,
                "tempo": 120.0
            },
            {
                "start_time": 71.2795455,
                "end_time": 71.3954545,
                "pitch": 81,
                "velocity": 101,
                "duration": 0.1159091,
                "tempo": 120.0
            },
            {
                "start_time": 71.3954545,
                "end_time": 71.5136364,
                "pitch": 76,
                "velocity": 101,
                "duration": 0.1181818,
                "tempo": 120.0
            },
            {
                "start_time": 71.5136364,
                "end_time": 71.6295455,
                "pitch": 83,
                "velocity": 101,
                "duration": 0.1159091,
                "tempo": 120.0
            },
            {
                "start_time": 71.6295455,
                "end_time": 71.875,
                "pitch": 76,
                "velocity": 101,
                "duration": 0.2454545,
                "tempo": 120.0
            },
            {
                "start_time": 71.875,
                "end_time": 71.9886364,
                "pitch": 83,
                "velocity": 101,
                "duration": 0.1136364,
                "tempo": 120.0
            },
            {
                "start_time": 71.9886364,
                "end_time": 72.2136364,
                "pitch": 76,
                "velocity": 101,
                "duration": 0.225,
                "tempo": 120.0
            },
            {
                "start_time": 72.2136364,
                "end_time": 72.3318182,
                "pitch": 83,
                "velocity": 101,
                "duration": 0.1181818,
                "tempo": 120.0
            },
            {
                "start_time": 72.3318182,
                "end_time": 72.5886364,
                "pitch": 76,
                "velocity": 101,
                "duration": 0.2568182,
                "tempo": 120.0
            },
            {
                "start_time": 72.5886364,
                "end_time": 72.7090909,
                "pitch": 83,
                "velocity": 101,
                "duration": 0.1204545,
                "tempo": 120.0
            },
            {
                "start_time": 72.7090909,
                "end_time": 72.9454545,
                "pitch": 76,
                "velocity": 101,
                "duration": 0.2363636,
                "tempo": 120.0
            },
            {
                "start_time": 72.9454545,
                "end_time": 73.0795455,
                "pitch": 84,
                "velocity": 101,
                "duration": 0.1340909,
                "tempo": 120.0
            },
            {
                "start_time": 73.0795455,
                "end_time": 73.1977273,
                "pitch": 76,
                "velocity": 101,
                "duration": 0.1181818,
                "tempo": 120.0
            },
            {
                "start_time": 73.1977273,
                "end_time": 73.3159091,
                "pitch": 81,
                "velocity": 101,
                "duration": 0.1181818,
                "tempo": 120.0
            },
            {
                "start_time": 73.3159091,
                "end_time": 73.4363636,
                "pitch": 76,
                "velocity": 101,
                "duration": 0.1204545,
                "tempo": 120.0
            },
            {
                "start_time": 73.4363636,
                "end_time": 73.5545455,
                "pitch": 83,
                "velocity": 101,
                "duration": 0.1181818,
                "tempo": 120.0
            },
            {
                "start_time": 73.5568182,
                "end_time": 73.8090909,
                "pitch": 76,
                "velocity": 101,
                "duration": 0.2522727,
                "tempo": 120.0
            },
            {
                "start_time": 73.8090909,
                "end_time": 73.9295455,
                "pitch": 83,
                "velocity": 101,
                "duration": 0.1204545,
                "tempo": 120.0
            },
            {
                "start_time": 73.9295455,
                "end_time": 74.1636364,
                "pitch": 76,
                "velocity": 101,
                "duration": 0.2340909,
                "tempo": 120.0
            },
            {
                "start_time": 74.1636364,
                "end_time": 74.2954545,
                "pitch": 83,
                "velocity": 101,
                "duration": 0.1318182,
                "tempo": 120.0
            },
            {
                "start_time": 74.2954545,
                "end_time": 74.525,
                "pitch": 76,
                "velocity": 101,
                "duration": 0.2295455,
                "tempo": 120.0
            },
            {
                "start_time": 74.525,
                "end_time": 74.6409091,
                "pitch": 83,
                "velocity": 101,
                "duration": 0.1159091,
                "tempo": 120.0
            },
            {
                "start_time": 74.6409091,
                "end_time": 74.8931818,
                "pitch": 76,
                "velocity": 101,
                "duration": 0.2522727,
                "tempo": 120.0
            },
            {
                "start_time": 74.8931818,
                "end_time": 75.0090909,
                "pitch": 86,
                "velocity": 101,
                "duration": 0.1159091,
                "tempo": 120.0
            },
            {
                "start_time": 75.0090909,
                "end_time": 75.1295455,
                "pitch": 76,
                "velocity": 101,
                "duration": 0.1204545,
                "tempo": 120.0
            },
            {
                "start_time": 75.1295455,
                "end_time": 75.2477273,
                "pitch": 81,
                "velocity": 101,
                "duration": 0.1181818,
                "tempo": 120.0
            },
            {
                "start_time": 75.2477273,
                "end_time": 75.3681818,
                "pitch": 76,
                "velocity": 101,
                "duration": 0.1204545,
                "tempo": 120.0
            },
            {
                "start_time": 75.3681818,
                "end_time": 75.5045455,
                "pitch": 83,
                "velocity": 101,
                "duration": 0.1363636,
                "tempo": 120.0
            },
            {
                "start_time": 75.5045455,
                "end_time": 75.7409091,
                "pitch": 76,
                "velocity": 101,
                "duration": 0.2363636,
                "tempo": 120.0
            },
            {
                "start_time": 75.7409091,
                "end_time": 75.8590909,
                "pitch": 83,
                "velocity": 101,
                "duration": 0.1181818,
                "tempo": 120.0
            },
            {
                "start_time": 75.8590909,
                "end_time": 76.1113636,
                "pitch": 76,
                "velocity": 101,
                "duration": 0.2522727,
                "tempo": 120.0
            },
            {
                "start_time": 76.1113636,
                "end_time": 76.2295455,
                "pitch": 83,
                "velocity": 101,
                "duration": 0.1181818,
                "tempo": 120.0
            },
            {
                "start_time": 76.2295455,
                "end_time": 76.4636364,
                "pitch": 76,
                "velocity": 101,
                "duration": 0.2340909,
                "tempo": 120.0
            },
            {
                "start_time": 76.4636364,
                "end_time": 76.5818182,
                "pitch": 83,
                "velocity": 101,
                "duration": 0.1181818,
                "tempo": 120.0
            },
            {
                "start_time": 76.5840909,
                "end_time": 76.8295455,
                "pitch": 76,
                "velocity": 101,
                "duration": 0.2454545,
                "tempo": 120.0
            },
            {
                "start_time": 76.8295455,
                "end_time": 76.9431818,
                "pitch": 84,
                "velocity": 101,
                "duration": 0.1136364,
                "tempo": 120.0
            },
            {
                "start_time": 76.9431818,
                "end_time": 77.0590909,
                "pitch": 76,
                "velocity": 101,
                "duration": 0.1159091,
                "tempo": 120.0
            },
            {
                "start_time": 77.0590909,
                "end_time": 77.1772727,
                "pitch": 81,
                "velocity": 101,
                "duration": 0.1181818,
                "tempo": 120.0
            },
            {
                "start_time": 77.1772727,
                "end_time": 77.3113636,
                "pitch": 76,
                "velocity": 101,
                "duration": 0.1340909,
                "tempo": 120.0
            },
            {
                "start_time": 77.3113636,
                "end_time": 77.4295455,
                "pitch": 83,
                "velocity": 101,
                "duration": 0.1181818,
                "tempo": 120.0
            },
            {
                "start_time": 77.4295455,
                "end_time": 77.6659091,
                "pitch": 76,
                "velocity": 101,
                "duration": 0.2363636,
                "tempo": 120.0
            },
            {
                "start_time": 77.6659091,
                "end_time": 77.7863636,
                "pitch": 83,
                "velocity": 101,
                "duration": 0.1204545,
                "tempo": 120.0
            },
            {
                "start_time": 77.7863636,
                "end_time": 78.0431818,
                "pitch": 76,
                "velocity": 101,
                "duration": 0.2568182,
                "tempo": 120.0
            },
            {
                "start_time": 78.0431818,
                "end_time": 78.1590909,
                "pitch": 83,
                "velocity": 101,
                "duration": 0.1159091,
                "tempo": 120.0
            },
            {
                "start_time": 78.1590909,
                "end_time": 78.3954545,
                "pitch": 76,
                "velocity": 101,
                "duration": 0.2363636,
                "tempo": 120.0
            },
            {
                "start_time": 78.3954545,
                "end_time": 78.5295455,
                "pitch": 83,
                "velocity": 101,
                "duration": 0.1340909,
                "tempo": 120.0
            },
            {
                "start_time": 78.5318182,
                "end_time": 78.7704545,
                "pitch": 76,
                "velocity": 101,
                "duration": 0.2386364,
                "tempo": 120.0
            },
            {
                "start_time": 78.7704545,
                "end_time": 78.8886364,
                "pitch": 83,
                "velocity": 101,
                "duration": 0.1181818,
                "tempo": 120.0
            },
            {
                "start_time": 78.8909091,
                "end_time": 79.0090909,
                "pitch": 76,
                "velocity": 101,
                "duration": 0.1181818,
                "tempo": 120.0
            },
            {
                "start_time": 79.0090909,
                "end_time": 79.1409091,
                "pitch": 81,
                "velocity": 101,
                "duration": 0.1318182,
                "tempo": 120.0
            },
            {
                "start_time": 79.1409091,
                "end_time": 79.2568182,
                "pitch": 76,
                "velocity": 101,
                "duration": 0.1159091,
                "tempo": 120.0
            },
            {
                "start_time": 79.2568182,
                "end_time": 79.3704545,
                "pitch": 84,
                "velocity": 101,
                "duration": 0.1136364,
                "tempo": 120.0
            },
            {
                "start_time": 79.3704545,
                "end_time": 79.6022727,
                "pitch": 77,
                "velocity": 101,
                "duration": 0.2318182,
                "tempo": 120.0
            },
            {
                "start_time": 79.6022727,
                "end_time": 79.7386364,
                "pitch": 84,
                "velocity": 101,
                "duration": 0.1363636,
                "tempo": 120.0
            },
            {
                "start_time": 79.7386364,
                "end_time": 79.9727273,
                "pitch": 77,
                "velocity": 101,
                "duration": 0.2340909,
                "tempo": 120.0
            },
            {
                "start_time": 79.9727273,
                "end_time": 80.0909091,
                "pitch": 84,
                "velocity": 101,
                "duration": 0.1181818,
                "tempo": 120.0
            },
            {
                "start_time": 80.0909091,
                "end_time": 80.3431818,
                "pitch": 77,
                "velocity": 101,
                "duration": 0.2522727,
                "tempo": 120.0
            },
            {
                "start_time": 80.3431818,
                "end_time": 80.4613636,
                "pitch": 84,
                "velocity": 101,
                "duration": 0.1181818,
                "tempo": 120.0
            },
            {
                "start_time": 80.4613636,
                "end_time": 80.7,
                "pitch": 77,
                "velocity": 101,
                "duration": 0.2386364,
                "tempo": 120.0
            },
            {
                "start_time": 80.7,
                "end_time": 80.8181818,
                "pitch": 85,
                "velocity": 101,
                "duration": 0.1181818,
                "tempo": 120.0
            },
            {
                "start_time": 80.8204545,
                "end_time": 80.9568182,
                "pitch": 77,
                "velocity": 101,
                "duration": 0.1363636,
                "tempo": 120.0
            },
            {
                "start_time": 80.9568182,
                "end_time": 81.075,
                "pitch": 82,
                "velocity": 101,
                "duration": 0.1181818,
                "tempo": 120.0
            },
            {
                "start_time": 81.075,
                "end_time": 81.1931818,
                "pitch": 77,
                "velocity": 101,
                "duration": 0.1181818,
                "tempo": 120.0
            },
            {
                "start_time": 81.1931818,
                "end_time": 81.3090909,
                "pitch": 84,
                "velocity": 101,
                "duration": 0.1159091,
                "tempo": 120.0
            },
            {
                "start_time": 81.3090909,
                "end_time": 81.5590909,
                "pitch": 77,
                "velocity": 101,
                "duration": 0.25,
                "tempo": 120.0
            },
            {
                "start_time": 81.5590909,
                "end_time": 81.675,
                "pitch": 84,
                "velocity": 101,
                "duration": 0.1159091,
                "tempo": 120.0
            },
            {
                "start_time": 81.675,
                "end_time": 81.9045455,
                "pitch": 77,
                "velocity": 101,
                "duration": 0.2295455,
                "tempo": 120.0
            },
            {
                "start_time": 81.9045455,
                "end_time": 82.0204545,
                "pitch": 84,
                "velocity": 101,
                "duration": 0.1159091,
                "tempo": 120.0
            },
            {
                "start_time": 82.0204545,
                "end_time": 82.2704545,
                "pitch": 77,
                "velocity": 101,
                "duration": 0.25,
                "tempo": 120.0
            },
            {
                "start_time": 82.2704545,
                "end_time": 82.3886364,
                "pitch": 84,
                "velocity": 101,
                "duration": 0.1181818,
                "tempo": 120.0
            },
            {
                "start_time": 82.3886364,
                "end_time": 82.6272727,
                "pitch": 77,
                "velocity": 101,
                "duration": 0.2386364,
                "tempo": 120.0
            },
            {
                "start_time": 82.6272727,
                "end_time": 82.7636364,
                "pitch": 87,
                "velocity": 101,
                "duration": 0.1363636,
                "tempo": 120.0
            },
            {
                "start_time": 82.7636364,
                "end_time": 82.8840909,
                "pitch": 77,
                "velocity": 101,
                "duration": 0.1204545,
                "tempo": 120.0
            },
            {
                "start_time": 82.8840909,
                "end_time": 83.0022727,
                "pitch": 82,
                "velocity": 101,
                "duration": 0.1181818,
                "tempo": 120.0
            },
            {
                "start_time": 83.0022727,
                "end_time": 83.1204545,
                "pitch": 77,
                "velocity": 101,
                "duration": 0.1181818,
                "tempo": 120.0
            },
            {
                "start_time": 83.1204545,
                "end_time": 83.2363636,
                "pitch": 84,
                "velocity": 101,
                "duration": 0.1159091,
                "tempo": 120.0
            },
            {
                "start_time": 83.2363636,
                "end_time": 83.4886364,
                "pitch": 77,
                "velocity": 101,
                "duration": 0.2522727,
                "tempo": 120.0
            },
            {
                "start_time": 83.4886364,
                "end_time": 83.6045455,
                "pitch": 84,
                "velocity": 101,
                "duration": 0.1159091,
                "tempo": 120.0
            },
            {
                "start_time": 83.6045455,
                "end_time": 83.8386364,
                "pitch": 77,
                "velocity": 101,
                "duration": 0.2340909,
                "tempo": 120.0
            },
            {
                "start_time": 83.8386364,
                "end_time": 83.9704545,
                "pitch": 84,
                "velocity": 101,
                "duration": 0.1318182,
                "tempo": 120.0
            },
            {
                "start_time": 83.9704545,
                "end_time": 84.2,
                "pitch": 77,
                "velocity": 101,
                "duration": 0.2295455,
                "tempo": 120.0
            },
            {
                "start_time": 84.2,
                "end_time": 84.3159091,
                "pitch": 84,
                "velocity": 101,
                "duration": 0.1159091,
                "tempo": 120.0
            },
            {
                "start_time": 84.3159091,
                "end_time": 84.5704545,
                "pitch": 77,
                "velocity": 101,
                "duration": 0.2545455,
                "tempo": 120.0
            },
            {
                "start_time": 84.5727273,
                "end_time": 84.6909091,
                "pitch": 85,
                "velocity": 101,
                "duration": 0.1181818,
                "tempo": 120.0
            },
            {
                "start_time": 84.6909091,
                "end_time": 84.8113636,
                "pitch": 77,
                "velocity": 101,
                "duration": 0.1204545,
                "tempo": 120.0
            },
            {
                "start_time": 84.8113636,
                "end_time": 84.9272727,
                "pitch": 82,
                "velocity": 101,
                "duration": 0.1159091,
                "tempo": 120.0
            },
            {
                "start_time": 84.9272727,
                "end_time": 85.0454545,
                "pitch": 77,
                "velocity": 101,
                "duration": 0.1181818,
                "tempo": 120.0
            },
            {
                "start_time": 85.0454545,
                "end_time": 85.1772727,
                "pitch": 84,
                "velocity": 101,
                "duration": 0.1318182,
                "tempo": 120.0
            },
            {
                "start_time": 85.1772727,
                "end_time": 85.4113636,
                "pitch": 77,
                "velocity": 101,
                "duration": 0.2340909,
                "tempo": 120.0
            },
            {
                "start_time": 85.4113636,
                "end_time": 85.5295455,
                "pitch": 84,
                "velocity": 101,
                "duration": 0.1181818,
                "tempo": 120.0
            },
            {
                "start_time": 85.5295455,
                "end_time": 85.7818182,
                "pitch": 77,
                "velocity": 101,
                "duration": 0.2522727,
                "tempo": 120.0
            },
            {
                "start_time": 85.7818182,
                "end_time": 85.9022727,
                "pitch": 84,
                "velocity": 101,
                "duration": 0.1204545,
                "tempo": 120.0
            },
            {
                "start_time": 85.9022727,
                "end_time": 86.1409091,
                "pitch": 77,
                "velocity": 101,
                "duration": 0.2386364,
                "tempo": 120.0
            },
            {
                "start_time": 86.1409091,
                "end_time": 86.2613636,
                "pitch": 84,
                "velocity": 101,
                "duration": 0.1204545,
                "tempo": 120.0
            },
            {
                "start_time": 86.2613636,
                "end_time": 86.5090909,
                "pitch": 77,
                "velocity": 101,
                "duration": 0.2477273,
                "tempo": 120.0
            },
            {
                "start_time": 86.5090909,
                "end_time": 86.6227273,
                "pitch": 84,
                "velocity": 101,
                "duration": 0.1136364,
                "tempo": 120.0
            },
            {
                "start_time": 86.6227273,
                "end_time": 86.7386364,
                "pitch": 77,
                "velocity": 101,
                "duration": 0.1159091,
                "tempo": 120.0
            },
            {
                "start_time": 86.7386364,
                "end_time": 86.8568182,
                "pitch": 82,
                "velocity": 101,
                "duration": 0.1181818,
                "tempo": 120.0
            },
            {
                "start_time": 86.8590909,
                "end_time": 86.9954545,
                "pitch": 77,
                "velocity": 101,
                "duration": 0.1363636,
                "tempo": 120.0
            },
            {
                "start_time": 86.9954545,
                "end_time": 87.1136364,
                "pitch": 84,
                "velocity": 101,
                "duration": 0.1181818,
                "tempo": 120.0
            },
            {
                "start_time": 87.1136364,
                "end_time": 87.3477273,
                "pitch": 77,
                "velocity": 101,
                "duration": 0.2340909,
                "tempo": 120.0
            },
            {
                "start_time": 87.3477273,
                "end_time": 87.4636364,
                "pitch": 84,
                "velocity": 101,
                "duration": 0.1159091,
                "tempo": 120.0
            },
            {
                "start_time": 87.4636364,
                "end_time": 87.7090909,
                "pitch": 77,
                "velocity": 101,
                "duration": 0.2454545,
                "tempo": 120.0
            },
            {
                "start_time": 87.7090909,
                "end_time": 87.8272727,
                "pitch": 84,
                "velocity": 101,
                "duration": 0.1181818,
                "tempo": 120.0
            },
            {
                "start_time": 87.8272727,
                "end_time": 88.0613636,
                "pitch": 77,
                "velocity": 101,
                "duration": 0.2340909,
                "tempo": 120.0
            },
            {
                "start_time": 88.0613636,
                "end_time": 88.1977273,
                "pitch": 84,
                "velocity": 101,
                "duration": 0.1363636,
                "tempo": 120.0
            },
            {
                "start_time": 88.1977273,
                "end_time": 88.4363636,
                "pitch": 77,
                "velocity": 101,
                "duration": 0.2386364,
                "tempo": 120.0
            },
            {
                "start_time": 88.4363636,
                "end_time": 88.5545455,
                "pitch": 85,
                "velocity": 101,
                "duration": 0.1181818,
                "tempo": 120.0
            },
            {
                "start_time": 88.5545455,
                "end_time": 88.6772727,
                "pitch": 77,
                "velocity": 101,
                "duration": 0.1227273,
                "tempo": 120.0
            },
            {
                "start_time": 88.6772727,
                "end_time": 88.8068182,
                "pitch": 82,
                "velocity": 101,
                "duration": 0.1295455,
                "tempo": 120.0
            },
            {
                "start_time": 88.8068182,
                "end_time": 88.9227273,
                "pitch": 77,
                "velocity": 101,
                "duration": 0.1159091,
                "tempo": 120.0
            },
            {
                "start_time": 88.9227273,
                "end_time": 89.0363636,
                "pitch": 84,
                "velocity": 101,
                "duration": 0.1136364,
                "tempo": 120.0
            },
            {
                "start_time": 89.0363636,
                "end_time": 89.2681818,
                "pitch": 77,
                "velocity": 101,
                "duration": 0.2318182,
                "tempo": 120.0
            },
            {
                "start_time": 89.2704545,
                "end_time": 89.4045455,
                "pitch": 84,
                "velocity": 101,
                "duration": 0.1340909,
                "tempo": 120.0
            },
            {
                "start_time": 89.4045455,
                "end_time": 89.6409091,
                "pitch": 77,
                "velocity": 101,
                "duration": 0.2363636,
                "tempo": 120.0
            },
            {
                "start_time": 89.6409091,
                "end_time": 89.7568182,
                "pitch": 84,
                "velocity": 101,
                "duration": 0.1159091,
                "tempo": 120.0
            },
            {
                "start_time": 89.7568182,
                "end_time": 90.0090909,
                "pitch": 77,
                "velocity": 101,
                "duration": 0.2522727,
                "tempo": 120.0
            },
            {
                "start_time": 90.0090909,
                "end_time": 90.1272727,
                "pitch": 84,
                "velocity": 101,
                "duration": 0.1181818,
                "tempo": 120.0
            },
            {
                "start_time": 90.1272727,
                "end_time": 90.3681818,
                "pitch": 77,
                "velocity": 101,
                "duration": 0.2409091,
                "tempo": 120.0
            },
            {
                "start_time": 90.3681818,
                "end_time": 90.4863636,
                "pitch": 87,
                "velocity": 101,
                "duration": 0.1181818,
                "tempo": 120.0
            },
            {
                "start_time": 90.4863636,
                "end_time": 90.625,
                "pitch": 77,
                "velocity": 101,
                "duration": 0.1386364,
                "tempo": 120.0
            },
            {
                "start_time": 90.625,
                "end_time": 90.7409091,
                "pitch": 82,
                "velocity": 101,
                "duration": 0.1159091,
                "tempo": 120.0
            },
            {
                "start_time": 90.7409091,
                "end_time": 90.8590909,
                "pitch": 77,
                "velocity": 101,
                "duration": 0.1181818,
                "tempo": 120.0
            },
            {
                "start_time": 90.8590909,
                "end_time": 90.9772727,
                "pitch": 84,
                "velocity": 101,
                "duration": 0.1181818,
                "tempo": 120.0
            },
            {
                "start_time": 90.9772727,
                "end_time": 91.225,
                "pitch": 77,
                "velocity": 101,
                "duration": 0.2477273,
                "tempo": 120.0
            },
            {
                "start_time": 91.225,
                "end_time": 91.3409091,
                "pitch": 84,
                "velocity": 101,
                "duration": 0.1159091,
                "tempo": 120.0
            },
            {
                "start_time": 91.3409091,
                "end_time": 91.5704545,
                "pitch": 77,
                "velocity": 101,
                "duration": 0.2295455,
                "tempo": 120.0
            },
            {
                "start_time": 91.5704545,
                "end_time": 91.6863636,
                "pitch": 84,
                "velocity": 101,
                "duration": 0.1159091,
                "tempo": 120.0
            },
            {
                "start_time": 91.6863636,
                "end_time": 91.9363636,
                "pitch": 77,
                "velocity": 101,
                "duration": 0.25,
                "tempo": 120.0
            },
            {
                "start_time": 91.9363636,
                "end_time": 92.0545455,
                "pitch": 84,
                "velocity": 101,
                "duration": 0.1181818,
                "tempo": 120.0
            },
            {
                "start_time": 92.0545455,
                "end_time": 92.2931818,
                "pitch": 77,
                "velocity": 101,
                "duration": 0.2386364,
                "tempo": 120.0
            },
            {
                "start_time": 92.2954545,
                "end_time": 92.4295455,
                "pitch": 85,
                "velocity": 101,
                "duration": 0.1340909,
                "tempo": 120.0
            },
            {
                "start_time": 92.4295455,
                "end_time": 92.5522727,
                "pitch": 77,
                "velocity": 101,
                "duration": 0.1227273,
                "tempo": 120.0
            },
            {
                "start_time": 92.5522727,
                "end_time": 92.6681818,
                "pitch": 82,
                "velocity": 101,
                "duration": 0.1159091,
                "tempo": 120.0
            },
            {
                "start_time": 92.6681818,
                "end_time": 92.7863636,
                "pitch": 77,
                "velocity": 101,
                "duration": 0.1181818,
                "tempo": 120.0
            },
            {
                "start_time": 92.7863636,
                "end_time": 92.9045455,
                "pitch": 84,
                "velocity": 101,
                "duration": 0.1181818,
                "tempo": 120.0
            },
            {
                "start_time": 92.9045455,
                "end_time": 93.1545455,
                "pitch": 77,
                "velocity": 101,
                "duration": 0.25,
                "tempo": 120.0
            },
            {
                "start_time": 93.1545455,
                "end_time": 93.2727273,
                "pitch": 84,
                "velocity": 101,
                "duration": 0.1181818,
                "tempo": 120.0
            },
            {
                "start_time": 93.2727273,
                "end_time": 93.5068182,
                "pitch": 77,
                "velocity": 101,
                "duration": 0.2340909,
                "tempo": 120.0
            },
            {
                "start_time": 93.5068182,
                "end_time": 93.6363636,
                "pitch": 84,
                "velocity": 101,
                "duration": 0.1295455,
                "tempo": 120.0
            },
            {
                "start_time": 93.6363636,
                "end_time": 93.8681818,
                "pitch": 77,
                "velocity": 101,
                "duration": 0.2318182,
                "tempo": 120.0
            },
            {
                "start_time": 93.8681818,
                "end_time": 93.9818182,
                "pitch": 84,
                "velocity": 101,
                "duration": 0.1136364,
                "tempo": 120.0
            },
            {
                "start_time": 93.9818182,
                "end_time": 94.2386364,
                "pitch": 77,
                "velocity": 101,
                "duration": 0.2568182,
                "tempo": 120.0
            },
            {
                "start_time": 94.2386364,
                "end_time": 94.3590909,
                "pitch": 84,
                "velocity": 101,
                "duration": 0.1204545,
                "tempo": 120.0
            },
            {
                "start_time": 94.3590909,
                "end_time": 94.4772727,
                "pitch": 77,
                "velocity": 101,
                "duration": 0.1181818,
                "tempo": 120.0
            },
            {
                "start_time": 94.4795455,
                "end_time": 94.5977273,
                "pitch": 82,
                "velocity": 101,
                "duration": 0.1181818,
                "tempo": 120.0
            },
            {
                "start_time": 94.5977273,
                "end_time": 94.7181818,
                "pitch": 77,
                "velocity": 101,
                "duration": 0.1204545,
                "tempo": 120.0
            },
            {
                "start_time": 94.7181818,
                "end_time": 94.8522727,
                "pitch": 85,
                "velocity": 101,
                "duration": 0.1340909,
                "tempo": 120.0
            },
            {
                "start_time": 94.8522727,
                "end_time": 95.0863636,
                "pitch": 78,
                "velocity": 101,
                "duration": 0.2340909,
                "tempo": 120.0
            },
            {
                "start_time": 95.0886364,
                "end_time": 95.2022727,
                "pitch": 85,
                "velocity": 101,
                "duration": 0.1136364,
                "tempo": 120.0
            },
            {
                "start_time": 95.2045455,
                "end_time": 95.45,
                "pitch": 78,
                "velocity": 101,
                "duration": 0.2454545,
                "tempo": 120.0
            },
            {
                "start_time": 95.45,
                "end_time": 95.5681818,
                "pitch": 85,
                "velocity": 101,
                "duration": 0.1181818,
                "tempo": 120.0
            },
            {
                "start_time": 95.5681818,
                "end_time": 95.8068182,
                "pitch": 78,
                "velocity": 101,
                "duration": 0.2386364,
                "tempo": 120.0
            },
            {
                "start_time": 95.8068182,
                "end_time": 95.9272727,
                "pitch": 85,
                "velocity": 101,
                "duration": 0.1204545,
                "tempo": 120.0
            },
            {
                "start_time": 95.9295455,
                "end_time": 96.175,
                "pitch": 78,
                "velocity": 101,
                "duration": 0.2454545,
                "tempo": 120.0
            },
            {
                "start_time": 96.175,
                "end_time": 96.2886364,
                "pitch": 86,
                "velocity": 101,
                "duration": 0.1136364,
                "tempo": 120.0
            },
            {
                "start_time": 96.2886364,
                "end_time": 96.4045455,
                "pitch": 78,
                "velocity": 101,
                "duration": 0.1159091,
                "tempo": 120.0
            },
            {
                "start_time": 96.4045455,
                "end_time": 96.5204545,
                "pitch": 83,
                "velocity": 101,
                "duration": 0.1159091,
                "tempo": 120.0
            },
            {
                "start_time": 96.5204545,
                "end_time": 96.6545455,
                "pitch": 78,
                "velocity": 101,
                "duration": 0.1340909,
                "tempo": 120.0
            },
            {
                "start_time": 96.6568182,
                "end_time": 96.7704545,
                "pitch": 85,
                "velocity": 101,
                "duration": 0.1136364,
                "tempo": 120.0
            },
            {
                "start_time": 96.7704545,
                "end_time": 97.0045455,
                "pitch": 78,
                "velocity": 101,
                "duration": 0.2340909,
                "tempo": 120.0
            },
            {
                "start_time": 97.0045455,
                "end_time": 97.125,
                "pitch": 85,
                "velocity": 101,
                "duration": 0.1204545,
                "tempo": 120.0
            },
            {
                "start_time": 97.125,
                "end_time": 97.3772727,
                "pitch": 78,
                "velocity": 101,
                "duration": 0.2522727,
                "tempo": 120.0
            },
            {
                "start_time": 97.3772727,
                "end_time": 97.4954545,
                "pitch": 85,
                "velocity": 101,
                "duration": 0.1181818,
                "tempo": 120.0
            },
            {
                "start_time": 97.4954545,
                "end_time": 97.7340909,
                "pitch": 78,
                "velocity": 101,
                "duration": 0.2386364,
                "tempo": 120.0
            },
            {
                "start_time": 97.7340909,
                "end_time": 97.8727273,
                "pitch": 85,
                "velocity": 101,
                "duration": 0.1386364,
                "tempo": 120.0
            },
            {
                "start_time": 97.8727273,
                "end_time": 98.1068182,
                "pitch": 78,
                "velocity": 101,
                "duration": 0.2340909,
                "tempo": 120.0
            },
            {
                "start_time": 98.1068182,
                "end_time": 98.225,
                "pitch": 88,
                "velocity": 101,
                "duration": 0.1181818,
                "tempo": 120.0
            },
            {
                "start_time": 98.225,
                "end_time": 98.3431818,
                "pitch": 78,
                "velocity": 101,
                "duration": 0.1181818,
                "tempo": 120.0
            },
            {
                "start_time": 98.3431818,
                "end_time": 98.475,
                "pitch": 83,
                "velocity": 101,
                "duration": 0.1318182,
                "tempo": 120.0
            },
            {
                "start_time": 98.475,
                "end_time": 98.5909091,
                "pitch": 78,
                "velocity": 101,
                "duration": 0.1159091,
                "tempo": 120.0
            },
            {
                "start_time": 98.5909091,
                "end_time": 98.7045455,
                "pitch": 85,
                "velocity": 101,
                "duration": 0.1136364,
                "tempo": 120.0
            },
            {
                "start_time": 98.7045455,
                "end_time": 98.9363636,
                "pitch": 78,
                "velocity": 101,
                "duration": 0.2318182,
                "tempo": 120.0
            },
            {
                "start_time": 98.9363636,
                "end_time": 99.0727273,
                "pitch": 85,
                "velocity": 101,
                "duration": 0.1363636,
                "tempo": 120.0
            },
            {
                "start_time": 99.0727273,
                "end_time": 99.3068182,
                "pitch": 78,
                "velocity": 101,
                "duration": 0.2340909,
                "tempo": 120.0
            },
            {
                "start_time": 99.3068182,
                "end_time": 99.425,
                "pitch": 85,
                "velocity": 101,
                "duration": 0.1181818,
                "tempo": 120.0
            },
            {
                "start_time": 99.4272727,
                "end_time": 99.6818182,
                "pitch": 78,
                "velocity": 101,
                "duration": 0.2545455,
                "tempo": 120.0
            },
            {
                "start_time": 99.6818182,
                "end_time": 99.8022727,
                "pitch": 85,
                "velocity": 101,
                "duration": 0.1204545,
                "tempo": 120.0
            },
            {
                "start_time": 99.8045455,
                "end_time": 100.0386364,
                "pitch": 78,
                "velocity": 101,
                "duration": 0.2340909,
                "tempo": 120.0
            },
            {
                "start_time": 100.0386364,
                "end_time": 100.1545455,
                "pitch": 86,
                "velocity": 101,
                "duration": 0.1159091,
                "tempo": 120.0
            },
            {
                "start_time": 100.1545455,
                "end_time": 100.2909091,
                "pitch": 78,
                "velocity": 101,
                "duration": 0.1363636,
                "tempo": 120.0
            },
            {
                "start_time": 100.2909091,
                "end_time": 100.4090909,
                "pitch": 83,
                "velocity": 101,
                "duration": 0.1181818,
                "tempo": 120.0
            },
            {
                "start_time": 100.4090909,
                "end_time": 100.5272727,
                "pitch": 78,
                "velocity": 101,
                "duration": 0.1181818,
                "tempo": 120.0
            },
            {
                "start_time": 100.5272727,
                "end_time": 100.6431818,
                "pitch": 85,
                "velocity": 101,
                "duration": 0.1159091,
                "tempo": 120.0
            },
            {
                "start_time": 100.6431818,
                "end_time": 100.8931818,
                "pitch": 78,
                "velocity": 101,
                "duration": 0.25,
                "tempo": 120.0
            },
            {
                "start_time": 100.8931818,
                "end_time": 101.0090909,
                "pitch": 85,
                "velocity": 101,
                "duration": 0.1159091,
                "tempo": 120.0
            },
            {
                "start_time": 101.0090909,
                "end_time": 101.2386364,
                "pitch": 78,
                "velocity": 101,
                "duration": 0.2295455,
                "tempo": 120.0
            },
            {
                "start_time": 101.2386364,
                "end_time": 101.3568182,
                "pitch": 85,
                "velocity": 101,
                "duration": 0.1181818,
                "tempo": 120.0
            },
            {
                "start_time": 101.3568182,
                "end_time": 101.6136364,
                "pitch": 78,
                "velocity": 101,
                "duration": 0.2568182,
                "tempo": 120.0
            },
            {
                "start_time": 101.6136364,
                "end_time": 101.7340909,
                "pitch": 85,
                "velocity": 101,
                "duration": 0.1204545,
                "tempo": 120.0
            },
            {
                "start_time": 101.7340909,
                "end_time": 101.9727273,
                "pitch": 78,
                "velocity": 101,
                "duration": 0.2386364,
                "tempo": 120.0
            },
            {
                "start_time": 101.9727273,
                "end_time": 102.1090909,
                "pitch": 85,
                "velocity": 101,
                "duration": 0.1363636,
                "tempo": 120.0
            },
            {
                "start_time": 102.1113636,
                "end_time": 102.2295455,
                "pitch": 78,
                "velocity": 101,
                "duration": 0.1181818,
                "tempo": 120.0
            },
            {
                "start_time": 102.2295455,
                "end_time": 102.3477273,
                "pitch": 83,
                "velocity": 101,
                "duration": 0.1181818,
                "tempo": 120.0
            },
            {
                "start_time": 102.3477273,
                "end_time": 102.4636364,
                "pitch": 78,
                "velocity": 101,
                "duration": 0.1159091,
                "tempo": 120.0
            },
            {
                "start_time": 102.4636364,
                "end_time": 102.5795455,
                "pitch": 85,
                "velocity": 101,
                "duration": 0.1159091,
                "tempo": 120.0
            },
            {
                "start_time": 102.5795455,
                "end_time": 102.8295455,
                "pitch": 78,
                "velocity": 101,
                "duration": 0.25,
                "tempo": 120.0
            },
            {
                "start_time": 102.8295455,
                "end_time": 102.95,
                "pitch": 85,
                "velocity": 101,
                "duration": 0.1204545,
                "tempo": 120.0
            },
            {
                "start_time": 102.95,
                "end_time": 103.1840909,
                "pitch": 78,
                "velocity": 101,
                "duration": 0.2340909,
                "tempo": 120.0
            },
            {
                "start_time": 103.1840909,
                "end_time": 103.3113636,
                "pitch": 85,
                "velocity": 101,
                "duration": 0.1272727,
                "tempo": 120.0
            },
            {
                "start_time": 103.3113636,
                "end_time": 103.5363636,
                "pitch": 78,
                "velocity": 101,
                "duration": 0.225,
                "tempo": 120.0
            },
            {
                "start_time": 103.5363636,
                "end_time": 103.65,
                "pitch": 85,
                "velocity": 101,
                "duration": 0.1136364,
                "tempo": 120.0
            },
            {
                "start_time": 103.65,
                "end_time": 103.9068182,
                "pitch": 78,
                "velocity": 101,
                "duration": 0.2568182,
                "tempo": 120.0
            },
            {
                "start_time": 103.9068182,
                "end_time": 104.025,
                "pitch": 86,
                "velocity": 101,
                "duration": 0.1181818,
                "tempo": 120.0
            },
            {
                "start_time": 104.025,
                "end_time": 104.1454545,
                "pitch": 78,
                "velocity": 101,
                "duration": 0.1204545,
                "tempo": 120.0
            },
            {
                "start_time": 104.1454545,
                "end_time": 104.2613636,
                "pitch": 83,
                "velocity": 101,
                "duration": 0.1159091,
                "tempo": 120.0
            },
            {
                "start_time": 104.2613636,
                "end_time": 104.3795455,
                "pitch": 78,
                "velocity": 101,
                "duration": 0.1181818,
                "tempo": 120.0
            },
            {
                "start_time": 104.3795455,
                "end_time": 104.5113636,
                "pitch": 85,
                "velocity": 101,
                "duration": 0.1318182,
                "tempo": 120.0
            },
            {
                "start_time": 104.5113636,
                "end_time": 104.7477273,
                "pitch": 78,
                "velocity": 101,
                "duration": 0.2363636,
                "tempo": 120.0
            },
            {
                "start_time": 104.7477273,
                "end_time": 104.8681818,
                "pitch": 85,
                "velocity": 101,
                "duration": 0.1204545,
                "tempo": 120.0
            },
            {
                "start_time": 104.8681818,
                "end_time": 105.125,
                "pitch": 78,
                "velocity": 101,
                "duration": 0.2568182,
                "tempo": 120.0
            },
            {
                "start_time": 105.125,
                "end_time": 105.2409091,
                "pitch": 85,
                "velocity": 101,
                "duration": 0.1159091,
                "tempo": 120.0
            },
            {
                "start_time": 105.2409091,
                "end_time": 105.4772727,
                "pitch": 78,
                "velocity": 101,
                "duration": 0.2363636,
                "tempo": 120.0
            },
            {
                "start_time": 105.4772727,
                "end_time": 105.5954545,
                "pitch": 85,
                "velocity": 101,
                "duration": 0.1181818,
                "tempo": 120.0
            },
            {
                "start_time": 105.5954545,
                "end_time": 105.8431818,
                "pitch": 78,
                "velocity": 101,
                "duration": 0.2477273,
                "tempo": 120.0
            },
            {
                "start_time": 105.8431818,
                "end_time": 105.9568182,
                "pitch": 88,
                "velocity": 101,
                "duration": 0.1136364,
                "tempo": 120.0
            },
            {
                "start_time": 105.9568182,
                "end_time": 106.0727273,
                "pitch": 78,
                "velocity": 101,
                "duration": 0.1159091,
                "tempo": 120.0
            },
            {
                "start_time": 106.0727273,
                "end_time": 106.1886364,
                "pitch": 83,
                "velocity": 101,
                "duration": 0.1159091,
                "tempo": 120.0
            },
            {
                "start_time": 106.1886364,
                "end_time": 106.3227273,
                "pitch": 78,
                "velocity": 101,
                "duration": 0.1340909,
                "tempo": 120.0
            },
            {
                "start_time": 106.3227273,
                "end_time": 106.4386364,
                "pitch": 85,
                "velocity": 101,
                "duration": 0.1159091,
                "tempo": 120.0
            },
            {
                "start_time": 106.4386364,
                "end_time": 106.675,
                "pitch": 78,
                "velocity": 101,
                "duration": 0.2363636,
                "tempo": 120.0
            },
            {
                "start_time": 106.675,
                "end_time": 106.7954545,
                "pitch": 85,
                "velocity": 101,
                "duration": 0.1204545,
                "tempo": 120.0
            },
            {
                "start_time": 106.7954545,
                "end_time": 107.0522727,
                "pitch": 78,
                "velocity": 101,
                "duration": 0.2568182,
                "tempo": 120.0
            },
            {
                "start_time": 107.0522727,
                "end_time": 107.1681818,
                "pitch": 85,
                "velocity": 101,
                "duration": 0.1159091,
                "tempo": 120.0
            },
            {
                "start_time": 107.1681818,
                "end_time": 107.4022727,
                "pitch": 78,
                "velocity": 101,
                "duration": 0.2340909,
                "tempo": 120.0
            },
            {
                "start_time": 107.4022727,
                "end_time": 107.5363636,
                "pitch": 85,
                "velocity": 101,
                "duration": 0.1340909,
                "tempo": 120.0
            },
            {
                "start_time": 107.5363636,
                "end_time": 107.7704545,
                "pitch": 78,
                "velocity": 101,
                "duration": 0.2340909,
                "tempo": 120.0
            },
            {
                "start_time": 107.7727273,
                "end_time": 107.8886364,
                "pitch": 86,
                "velocity": 101,
                "duration": 0.1159091,
                "tempo": 120.0
            },
            {
                "start_time": 107.8886364,
                "end_time": 108.0068182,
                "pitch": 78,
                "velocity": 101,
                "duration": 0.1181818,
                "tempo": 120.0
            },
            {
                "start_time": 108.0068182,
                "end_time": 108.1386364,
                "pitch": 83,
                "velocity": 101,
                "duration": 0.1318182,
                "tempo": 120.0
            },
            {
                "start_time": 108.1386364,
                "end_time": 108.2545455,
                "pitch": 78,
                "velocity": 101,
                "duration": 0.1159091,
                "tempo": 120.0
            },
            {
                "start_time": 108.2545455,
                "end_time": 108.3681818,
                "pitch": 85,
                "velocity": 101,
                "duration": 0.1136364,
                "tempo": 120.0
            },
            {
                "start_time": 108.3681818,
                "end_time": 108.6,
                "pitch": 78,
                "velocity": 101,
                "duration": 0.2318182,
                "tempo": 120.0
            },
            {
                "start_time": 108.6,
                "end_time": 108.7363636,
                "pitch": 85,
                "velocity": 101,
                "duration": 0.1363636,
                "tempo": 120.0
            },
            {
                "start_time": 108.7363636,
                "end_time": 108.9704545,
                "pitch": 78,
                "velocity": 101,
                "duration": 0.2340909,
                "tempo": 120.0
            },
            {
                "start_time": 108.9704545,
                "end_time": 109.0909091,
                "pitch": 85,
                "velocity": 101,
                "duration": 0.1204545,
                "tempo": 120.0
            },
            {
                "start_time": 109.0909091,
                "end_time": 109.3477273,
                "pitch": 78,
                "velocity": 101,
                "duration": 0.2568182,
                "tempo": 120.0
            },
            {
                "start_time": 109.3477273,
                "end_time": 109.4681818,
                "pitch": 85,
                "velocity": 101,
                "duration": 0.1204545,
                "tempo": 120.0
            },
            {
                "start_time": 109.4681818,
                "end_time": 109.7068182,
                "pitch": 78,
                "velocity": 101,
                "duration": 0.2386364,
                "tempo": 120.0
            },
            {
                "start_time": 109.7068182,
                "end_time": 109.8272727,
                "pitch": 85,
                "velocity": 101,
                "duration": 0.1204545,
                "tempo": 120.0
            },
            {
                "start_time": 109.8272727,
                "end_time": 109.9636364,
                "pitch": 78,
                "velocity": 101,
                "duration": 0.1363636,
                "tempo": 120.0
            },
            {
                "start_time": 109.9636364,
                "end_time": 110.0795455,
                "pitch": 83,
                "velocity": 101,
                "duration": 0.1159091,
                "tempo": 120.0
            },
            {
                "start_time": 110.0818182,
                "end_time": 110.1977273,
                "pitch": 78,
                "velocity": 101,
                "duration": 0.1159091,
                "tempo": 120.0
            },
            {
                "start_time": 110.1977273,
                "end_time": 110.3113636,
                "pitch": 86,
                "velocity": 101,
                "duration": 0.1136364,
                "tempo": 120.0
            },
            {
                "start_time": 110.3136364,
                "end_time": 110.5568182,
                "pitch": 79,
                "velocity": 101,
                "duration": 0.2431818,
                "tempo": 120.0
            },
            {
                "start_time": 110.5568182,
                "end_time": 110.6704545,
                "pitch": 86,
                "velocity": 101,
                "duration": 0.1136364,
                "tempo": 120.0
            },
            {
                "start_time": 110.6704545,
                "end_time": 110.8954545,
                "pitch": 79,
                "velocity": 101,
                "duration": 0.225,
                "tempo": 120.0
            },
            {
                "start_time": 110.8954545,
                "end_time": 111.0136364,
                "pitch": 86,
                "velocity": 101,
                "duration": 0.1181818,
                "tempo": 120.0
            },
            {
                "start_time": 111.0136364,
                "end_time": 111.2704545,
                "pitch": 79,
                "velocity": 101,
                "duration": 0.2568182,
                "tempo": 120.0
            },
            {
                "start_time": 111.2704545,
                "end_time": 111.3909091,
                "pitch": 86,
                "velocity": 101,
                "duration": 0.1204545,
                "tempo": 120.0
            },
            {
                "start_time": 111.3909091,
                "end_time": 111.6272727,
                "pitch": 79,
                "velocity": 101,
                "duration": 0.2363636,
                "tempo": 120.0
            },
            {
                "start_time": 111.6272727,
                "end_time": 111.7590909,
                "pitch": 87,
                "velocity": 101,
                "duration": 0.1318182,
                "tempo": 120.0
            },
            {
                "start_time": 111.7590909,
                "end_time": 111.8795455,
                "pitch": 79,
                "velocity": 101,
                "duration": 0.1204545,
                "tempo": 120.0
            },
            {
                "start_time": 111.8795455,
                "end_time": 111.9977273,
                "pitch": 84,
                "velocity": 101,
                "duration": 0.1181818,
                "tempo": 120.0
            },
            {
                "start_time": 111.9977273,
                "end_time": 112.1181818,
                "pitch": 79,
                "velocity": 101,
                "duration": 0.1204545,
                "tempo": 120.0
            },
            {
                "start_time": 112.1181818,
                "end_time": 112.2363636,
                "pitch": 86,
                "velocity": 101,
                "duration": 0.1181818,
                "tempo": 120.0
            },
            {
                "start_time": 112.2363636,
                "end_time": 112.4909091,
                "pitch": 79,
                "velocity": 101,
                "duration": 0.2545455,
                "tempo": 120.0
            },
            {
                "start_time": 112.4909091,
                "end_time": 112.6090909,
                "pitch": 86,
                "velocity": 101,
                "duration": 0.1181818,
                "tempo": 120.0
            },
            {
                "start_time": 112.6090909,
                "end_time": 112.8454545,
                "pitch": 79,
                "velocity": 101,
                "duration": 0.2363636,
                "tempo": 120.0
            },
            {
                "start_time": 112.8454545,
                "end_time": 112.975,
                "pitch": 86,
                "velocity": 101,
                "duration": 0.1295455,
                "tempo": 120.0
            },
            {
                "start_time": 112.975,
                "end_time": 113.2068182,
                "pitch": 79,
                "velocity": 101,
                "duration": 0.2318182,
                "tempo": 120.0
            },
            {
                "start_time": 113.2068182,
                "end_time": 113.3227273,
                "pitch": 86,
                "velocity": 101,
                "duration": 0.1159091,
                "tempo": 120.0
            },
            {
                "start_time": 113.3227273,
                "end_time": 113.575,
                "pitch": 79,
                "velocity": 101,
                "duration": 0.2522727,
                "tempo": 120.0
            },
            {
                "start_time": 113.575,
                "end_time": 113.6909091,
                "pitch": 89,
                "velocity": 101,
                "duration": 0.1159091,
                "tempo": 120.0
            },
            {
                "start_time": 113.6909091,
                "end_time": 113.8090909,
                "pitch": 79,
                "velocity": 101,
                "duration": 0.1181818,
                "tempo": 120.0
            },
            {
                "start_time": 113.8113636,
                "end_time": 113.9295455,
                "pitch": 84,
                "velocity": 101,
                "duration": 0.1181818,
                "tempo": 120.0
            },
            {
                "start_time": 113.9295455,
                "end_time": 114.05,
                "pitch": 79,
                "velocity": 101,
                "duration": 0.1204545,
                "tempo": 120.0
            },
            {
                "start_time": 114.05,
                "end_time": 114.1840909,
                "pitch": 86,
                "velocity": 101,
                "duration": 0.1340909,
                "tempo": 120.0
            },
            {
                "start_time": 114.1863636,
                "end_time": 114.4227273,
                "pitch": 79,
                "velocity": 101,
                "duration": 0.2363636,
                "tempo": 120.0
            },
            {
                "start_time": 114.4227273,
                "end_time": 114.5409091,
                "pitch": 86,
                "velocity": 101,
                "duration": 0.1181818,
                "tempo": 120.0
            },
            {
                "start_time": 114.5409091,
                "end_time": 114.7931818,
                "pitch": 79,
                "velocity": 101,
                "duration": 0.2522727,
                "tempo": 120.0
            },
            {
                "start_time": 114.7931818,
                "end_time": 114.9090909,
                "pitch": 86,
                "velocity": 101,
                "duration": 0.1159091,
                "tempo": 120.0
            },
            {
                "start_time": 114.9090909,
                "end_time": 115.1454545,
                "pitch": 79,
                "velocity": 101,
                "duration": 0.2363636,
                "tempo": 120.0
            },
            {
                "start_time": 115.1454545,
                "end_time": 115.2636364,
                "pitch": 86,
                "velocity": 101,
                "duration": 0.1181818,
                "tempo": 120.0
            },
            {
                "start_time": 115.2636364,
                "end_time": 115.5113636,
                "pitch": 79,
                "velocity": 101,
                "duration": 0.2477273,
                "tempo": 120.0
            },
            {
                "start_time": 115.5113636,
                "end_time": 115.625,
                "pitch": 87,
                "velocity": 101,
                "duration": 0.1136364,
                "tempo": 120.0
            },
            {
                "start_time": 115.625,
                "end_time": 115.7409091,
                "pitch": 79,
                "velocity": 101,
                "duration": 0.1159091,
                "tempo": 120.0
            },
            {
                "start_time": 115.7409091,
                "end_time": 115.8568182,
                "pitch": 84,
                "velocity": 101,
                "duration": 0.1159091,
                "tempo": 120.0
            },
            {
                "start_time": 115.8568182,
                "end_time": 115.9909091,
                "pitch": 79,
                "velocity": 101,
                "duration": 0.1340909,
                "tempo": 120.0
            },
            {
                "start_time": 115.9909091,
                "end_time": 116.1068182,
                "pitch": 86,
                "velocity": 101,
                "duration": 0.1159091,
                "tempo": 120.0
            },
            {
                "start_time": 116.1068182,
                "end_time": 116.3431818,
                "pitch": 79,
                "velocity": 101,
                "duration": 0.2363636,
                "tempo": 120.0
            },
            {
                "start_time": 116.3431818,
                "end_time": 116.4636364,
                "pitch": 86,
                "velocity": 101,
                "duration": 0.1204545,
                "tempo": 120.0
            },
            {
                "start_time": 116.4636364,
                "end_time": 116.7204545,
                "pitch": 79,
                "velocity": 101,
                "duration": 0.2568182,
                "tempo": 120.0
            },
            {
                "start_time": 116.7204545,
                "end_time": 116.8363636,
                "pitch": 86,
                "velocity": 101,
                "duration": 0.1159091,
                "tempo": 120.0
            },
            {
                "start_time": 116.8363636,
                "end_time": 117.0704545,
                "pitch": 79,
                "velocity": 101,
                "duration": 0.2340909,
                "tempo": 120.0
            },
            {
                "start_time": 117.0704545,
                "end_time": 117.2045455,
                "pitch": 86,
                "velocity": 101,
                "duration": 0.1340909,
                "tempo": 120.0
            },
            {
                "start_time": 117.2045455,
                "end_time": 117.4431818,
                "pitch": 79,
                "velocity": 101,
                "duration": 0.2386364,
                "tempo": 120.0
            },
            {
                "start_time": 117.4431818,
                "end_time": 117.5636364,
                "pitch": 86,
                "velocity": 101,
                "duration": 0.1204545,
                "tempo": 120.0
            },
            {
                "start_time": 117.5636364,
                "end_time": 117.6840909,
                "pitch": 79,
                "velocity": 101,
                "duration": 0.1204545,
                "tempo": 120.0
            },
            {
                "start_time": 117.6840909,
                "end_time": 117.8159091,
                "pitch": 84,
                "velocity": 101,
                "duration": 0.1318182,
                "tempo": 120.0
            },
            {
                "start_time": 117.8159091,
                "end_time": 117.9295455,
                "pitch": 79,
                "velocity": 101,
                "duration": 0.1136364,
                "tempo": 120.0
            },
            {
                "start_time": 117.9295455,
                "end_time": 118.0431818,
                "pitch": 86,
                "velocity": 101,
                "duration": 0.1136364,
                "tempo": 120.0
            },
            {
                "start_time": 118.0431818,
                "end_time": 118.275,
                "pitch": 79,
                "velocity": 101,
                "duration": 0.2318182,
                "tempo": 120.0
            },
            {
                "start_time": 118.2772727,
                "end_time": 118.4113636,
                "pitch": 86,
                "velocity": 101,
                "duration": 0.1340909,
                "tempo": 120.0
            },
            {
                "start_time": 118.4113636,
                "end_time": 118.6477273,
                "pitch": 79,
                "velocity": 101,
                "duration": 0.2363636,
                "tempo": 120.0
            },
            {
                "start_time": 118.6477273,
                "end_time": 118.7636364,
                "pitch": 86,
                "velocity": 101,
                "duration": 0.1159091,
                "tempo": 120.0
            },
            {
                "start_time": 118.7636364,
                "end_time": 119.0136364,
                "pitch": 79,
                "velocity": 101,
                "duration": 0.25,
                "tempo": 120.0
            },
            {
                "start_time": 119.0136364,
                "end_time": 119.1318182,
                "pitch": 86,
                "velocity": 101,
                "duration": 0.1181818,
                "tempo": 120.0
            },
            {
                "start_time": 119.1318182,
                "end_time": 119.3659091,
                "pitch": 79,
                "velocity": 101,
                "duration": 0.2340909,
                "tempo": 120.0
            },
            {
                "start_time": 119.3659091,
                "end_time": 119.4840909,
                "pitch": 87,
                "velocity": 101,
                "duration": 0.1181818,
                "tempo": 120.0
            },
            {
                "start_time": 119.4840909,
                "end_time": 119.6204545,
                "pitch": 79,
                "velocity": 101,
                "duration": 0.1363636,
                "tempo": 120.0
            },
            {
                "start_time": 119.6204545,
                "end_time": 119.7386364,
                "pitch": 84,
                "velocity": 101,
                "duration": 0.1181818,
                "tempo": 120.0
            },
            {
                "start_time": 119.7386364,
                "end_time": 119.8590909,
                "pitch": 79,
                "velocity": 101,
                "duration": 0.1204545,
                "tempo": 120.0
            },
            {
                "start_time": 119.8590909,
                "end_time": 119.9772727,
                "pitch": 86,
                "velocity": 101,
                "duration": 0.1181818,
                "tempo": 120.0
            },
            {
                "start_time": 119.9772727,
                "end_time": 120.2272727,
                "pitch": 79,
                "velocity": 101,
                "duration": 0.25,
                "tempo": 120.0
            },
            {
                "start_time": 120.2272727,
                "end_time": 120.3431818,
                "pitch": 86,
                "velocity": 101,
                "duration": 0.1159091,
                "tempo": 120.0
            },
            {
                "start_time": 120.3431818,
                "end_time": 120.575,
                "pitch": 79,
                "velocity": 101,
                "duration": 0.2318182,
                "tempo": 120.0
            },
            {
                "start_time": 120.575,
                "end_time": 120.6886364,
                "pitch": 86,
                "velocity": 101,
                "duration": 0.1136364,
                "tempo": 120.0
            },
            {
                "start_time": 120.6909091,
                "end_time": 120.9409091,
                "pitch": 79,
                "velocity": 101,
                "duration": 0.25,
                "tempo": 120.0
            },
            {
                "start_time": 120.9409091,
                "end_time": 121.0568182,
                "pitch": 86,
                "velocity": 101,
                "duration": 0.1159091,
                "tempo": 120.0
            },
            {
                "start_time": 121.0590909,
                "end_time": 121.2931818,
                "pitch": 79,
                "velocity": 101,
                "duration": 0.2340909,
                "tempo": 120.0
            },
            {
                "start_time": 121.2931818,
                "end_time": 121.4272727,
                "pitch": 89,
                "velocity": 101,
                "duration": 0.1340909,
                "tempo": 120.0
            },
            {
                "start_time": 121.4272727,
                "end_time": 121.5454545,
                "pitch": 79,
                "velocity": 101,
                "duration": 0.1181818,
                "tempo": 120.0
            },
            {
                "start_time": 121.5454545,
                "end_time": 121.6659091,
                "pitch": 84,
                "velocity": 101,
                "duration": 0.1204545,
                "tempo": 120.0
            },
            {
                "start_time": 121.6659091,
                "end_time": 121.7863636,
                "pitch": 79,
                "velocity": 101,
                "duration": 0.1204545,
                "tempo": 120.0
            },
            {
                "start_time": 121.7863636,
                "end_time": 121.9045455,
                "pitch": 86,
                "velocity": 101,
                "duration": 0.1181818,
                "tempo": 120.0
            },
            {
                "start_time": 121.9045455,
                "end_time": 122.1590909,
                "pitch": 79,
                "velocity": 101,
                "duration": 0.2545455,
                "tempo": 120.0
            },
            {
                "start_time": 122.1590909,
                "end_time": 122.2772727,
                "pitch": 86,
                "velocity": 101,
                "duration": 0.1181818,
                "tempo": 120.0
            },
            {
                "start_time": 122.2772727,
                "end_time": 122.5113636,
                "pitch": 79,
                "velocity": 101,
                "duration": 0.2340909,
                "tempo": 120.0
            },
            {
                "start_time": 122.5136364,
                "end_time": 122.6431818,
                "pitch": 86,
                "velocity": 101,
                "duration": 0.1295455,
                "tempo": 120.0
            },
            {
                "start_time": 122.6431818,
                "end_time": 122.8727273,
                "pitch": 79,
                "velocity": 101,
                "duration": 0.2295455,
                "tempo": 120.0
            },
            {
                "start_time": 122.8727273,
                "end_time": 122.9886364,
                "pitch": 86,
                "velocity": 101,
                "duration": 0.1159091,
                "tempo": 120.0
            },
            {
                "start_time": 122.9886364,
                "end_time": 123.2409091,
                "pitch": 79,
                "velocity": 101,
                "duration": 0.2522727,
                "tempo": 120.0
            },
            {
                "start_time": 123.2409091,
                "end_time": 123.3568182,
                "pitch": 87,
                "velocity": 101,
                "duration": 0.1159091,
                "tempo": 120.0
            },
            {
                "start_time": 123.3590909,
                "end_time": 123.4772727,
                "pitch": 79,
                "velocity": 101,
                "duration": 0.1181818,
                "tempo": 120.0
            },
            {
                "start_time": 123.4772727,
                "end_time": 123.5954545,
                "pitch": 84,
                "velocity": 101,
                "duration": 0.1181818,
                "tempo": 120.0
            },
            {
                "start_time": 123.5954545,
                "end_time": 123.7159091,
                "pitch": 79,
                "velocity": 101,
                "duration": 0.1204545,
                "tempo": 120.0
            },
            {
                "start_time": 123.7159091,
                "end_time": 123.8522727,
                "pitch": 86,
                "velocity": 101,
                "duration": 0.1363636,
                "tempo": 120.0
            },
            {
                "start_time": 123.8522727,
                "end_time": 124.0886364,
                "pitch": 79,
                "velocity": 101,
                "duration": 0.2363636,
                "tempo": 120.0
            },
            {
                "start_time": 124.0886364,
                "end_time": 124.2068182,
                "pitch": 86,
                "velocity": 101,
                "duration": 0.1181818,
                "tempo": 120.0
            },
            {
                "start_time": 124.2090909,
                "end_time": 124.4613636,
                "pitch": 79,
                "velocity": 101,
                "duration": 0.2522727,
                "tempo": 120.0
            },
            {
                "start_time": 124.4613636,
                "end_time": 124.5772727,
                "pitch": 86,
                "velocity": 101,
                "duration": 0.1159091,
                "tempo": 120.0
            },
            {
                "start_time": 124.5772727,
                "end_time": 124.8136364,
                "pitch": 79,
                "velocity": 101,
                "duration": 0.2363636,
                "tempo": 120.0
            },
            {
                "start_time": 124.8136364,
                "end_time": 124.9318182,
                "pitch": 86,
                "velocity": 101,
                "duration": 0.1181818,
                "tempo": 120.0
            },
            {
                "start_time": 124.9318182,
                "end_time": 125.1818182,
                "pitch": 79,
                "velocity": 101,
                "duration": 0.25,
                "tempo": 120.0
            },
            {
                "start_time": 125.1818182,
                "end_time": 125.2977273,
                "pitch": 86,
                "velocity": 101,
                "duration": 0.1159091,
                "tempo": 120.0
            },
            {
                "start_time": 125.2977273,
                "end_time": 125.4159091,
                "pitch": 79,
                "velocity": 101,
                "duration": 0.1181818,
                "tempo": 120.0
            },
            {
                "start_time": 125.4159091,
                "end_time": 125.5363636,
                "pitch": 84,
                "velocity": 101,
                "duration": 0.1204545,
                "tempo": 120.0
            },
            {
                "start_time": 125.5363636,
                "end_time": 125.6727273,
                "pitch": 79,
                "velocity": 101,
                "duration": 0.1363636,
                "tempo": 120.0
            }
        ],
        "Acoustic Bass": [
            {
                "start_time": 1.9068182,
                "end_time": 2.0204545,
                "pitch": 36,
                "velocity": 80,
                "duration": 0.1136364,
                "tempo": 120.0
            },
            {
                "start_time": 2.0204545,
                "end_time": 2.1340909,
                "pitch": 36,
                "velocity": 80,
                "duration": 0.1136364,
                "tempo": 120.0
            },
            {
                "start_time": 2.1340909,
                "end_time": 2.2522727,
                "pitch": 48,
                "velocity": 80,
                "duration": 0.1181818,
                "tempo": 120.0
            },
            {
                "start_time": 2.2522727,
                "end_time": 2.3886364,
                "pitch": 48,
                "velocity": 80,
                "duration": 0.1363636,
                "tempo": 120.0
            },
            {
                "start_time": 2.3886364,
                "end_time": 2.5045455,
                "pitch": 36,
                "velocity": 80,
                "duration": 0.1159091,
                "tempo": 120.0
            },
            {
                "start_time": 2.5045455,
                "end_time": 2.6227273,
                "pitch": 36,
                "velocity": 80,
                "duration": 0.1181818,
                "tempo": 120.0
            },
            {
                "start_time": 2.6227273,
                "end_time": 2.7386364,
                "pitch": 48,
                "velocity": 80,
                "duration": 0.1159091,
                "tempo": 120.0
            },
            {
                "start_time": 2.7386364,
                "end_time": 2.8568182,
                "pitch": 48,
                "velocity": 80,
                "duration": 0.1181818,
                "tempo": 120.0
            },
            {
                "start_time": 2.8568182,
                "end_time": 2.9886364,
                "pitch": 36,
                "velocity": 80,
                "duration": 0.1318182,
                "tempo": 120.0
            },
            {
                "start_time": 2.9886364,
                "end_time": 3.1068182,
                "pitch": 36,
                "velocity": 80,
                "duration": 0.1181818,
                "tempo": 120.0
            },
            {
                "start_time": 3.1068182,
                "end_time": 3.225,
                "pitch": 48,
                "velocity": 80,
                "duration": 0.1181818,
                "tempo": 120.0
            },
            {
                "start_time": 3.225,
                "end_time": 3.3454545,
                "pitch": 48,
                "velocity": 80,
                "duration": 0.1204545,
                "tempo": 120.0
            },
            {
                "start_time": 3.3477273,
                "end_time": 3.4659091,
                "pitch": 36,
                "velocity": 80,
                "duration": 0.1181818,
                "tempo": 120.0
            },
            {
                "start_time": 3.4659091,
                "end_time": 3.6045455,
                "pitch": 36,
                "velocity": 80,
                "duration": 0.1386364,
                "tempo": 120.0
            },
            {
                "start_time": 3.6045455,
                "end_time": 3.7181818,
                "pitch": 48,
                "velocity": 80,
                "duration": 0.1136364,
                "tempo": 120.0
            },
            {
                "start_time": 3.7204545,
                "end_time": 3.8363636,
                "pitch": 48,
                "velocity": 80,
                "duration": 0.1159091,
                "tempo": 120.0
            },
            {
                "start_time": 3.8363636,
                "end_time": 3.9522727,
                "pitch": 36,
                "velocity": 80,
                "duration": 0.1159091,
                "tempo": 120.0
            },
            {
                "start_time": 3.9522727,
                "end_time": 4.0704545,
                "pitch": 36,
                "velocity": 80,
                "duration": 0.1181818,
                "tempo": 120.0
            },
            {
                "start_time": 4.0704545,
                "end_time": 4.2,
                "pitch": 48,
                "velocity": 80,
                "duration": 0.1295455,
                "tempo": 120.0
            },
            {
                "start_time": 4.2,
                "end_time": 4.3159091,
                "pitch": 48,
                "velocity": 80,
                "duration": 0.1159091,
                "tempo": 120.0
            },
            {
                "start_time": 4.3159091,
                "end_time": 4.4295455,
                "pitch": 36,
                "velocity": 80,
                "duration": 0.1136364,
                "tempo": 120.0
            },
            {
                "start_time": 4.4295455,
                "end_time": 4.5477273,
                "pitch": 36,
                "velocity": 80,
                "duration": 0.1181818,
                "tempo": 120.0
            },
            {
                "start_time": 4.5477273,
                "end_time": 4.6613636,
                "pitch": 48,
                "velocity": 80,
                "duration": 0.1136364,
                "tempo": 120.0
            },
            {
                "start_time": 4.6636364,
                "end_time": 4.7954545,
                "pitch": 48,
                "velocity": 80,
                "duration": 0.1318182,
                "tempo": 120.0
            },
            {
                "start_time": 4.7954545,
                "end_time": 4.9136364,
                "pitch": 36,
                "velocity": 80,
                "duration": 0.1181818,
                "tempo": 120.0
            },
            {
                "start_time": 4.9136364,
                "end_time": 5.0295455,
                "pitch": 36,
                "velocity": 80,
                "duration": 0.1159091,
                "tempo": 120.0
            },
            {
                "start_time": 5.0318182,
                "end_time": 5.1477273,
                "pitch": 48,
                "velocity": 80,
                "duration": 0.1159091,
                "tempo": 120.0
            },
            {
                "start_time": 5.1477273,
                "end_time": 5.2704545,
                "pitch": 48,
                "velocity": 80,
                "duration": 0.1227273,
                "tempo": 120.0
            },
            {
                "start_time": 5.2704545,
                "end_time": 5.4045455,
                "pitch": 36,
                "velocity": 80,
                "duration": 0.1340909,
                "tempo": 120.0
            },
            {
                "start_time": 5.4068182,
                "end_time": 5.5272727,
                "pitch": 36,
                "velocity": 80,
                "duration": 0.1204545,
                "tempo": 120.0
            },
            {
                "start_time": 5.5272727,
                "end_time": 5.6431818,
                "pitch": 48,
                "velocity": 80,
                "duration": 0.1159091,
                "tempo": 120.0
            },
            {
                "start_time": 5.6431818,
                "end_time": 5.7613636,
                "pitch": 48,
                "velocity": 80,
                "duration": 0.1181818,
                "tempo": 120.0
            },
            {
                "start_time": 5.7613636,
                "end_time": 5.8795455,
                "pitch": 36,
                "velocity": 80,
                "duration": 0.1181818,
                "tempo": 120.0
            },
            {
                "start_time": 5.8795455,
                "end_time": 6.0136364,
                "pitch": 36,
                "velocity": 80,
                "duration": 0.1340909,
                "tempo": 120.0
            },
            {
                "start_time": 6.0136364,
                "end_time": 6.1295455,
                "pitch": 48,
                "velocity": 80,
                "duration": 0.1159091,
                "tempo": 120.0
            },
            {
                "start_time": 6.1295455,
                "end_time": 6.2477273,
                "pitch": 48,
                "velocity": 80,
                "duration": 0.1181818,
                "tempo": 120.0
            },
            {
                "start_time": 6.2477273,
                "end_time": 6.3613636,
                "pitch": 36,
                "velocity": 80,
                "duration": 0.1136364,
                "tempo": 120.0
            },
            {
                "start_time": 6.3636364,
                "end_time": 6.4818182,
                "pitch": 36,
                "velocity": 80,
                "duration": 0.1181818,
                "tempo": 120.0
            },
            {
                "start_time": 6.4818182,
                "end_time": 6.6113636,
                "pitch": 48,
                "velocity": 80,
                "duration": 0.1295455,
                "tempo": 120.0
            },
            {
                "start_time": 6.6113636,
                "end_time": 6.7272727,
                "pitch": 48,
                "velocity": 80,
                "duration": 0.1159091,
                "tempo": 120.0
            },
            {
                "start_time": 6.7272727,
                "end_time": 6.8409091,
                "pitch": 36,
                "velocity": 80,
                "duration": 0.1136364,
                "tempo": 120.0
            },
            {
                "start_time": 6.8409091,
                "end_time": 6.9568182,
                "pitch": 36,
                "velocity": 80,
                "duration": 0.1159091,
                "tempo": 120.0
            },
            {
                "start_time": 6.9568182,
                "end_time": 7.075,
                "pitch": 48,
                "velocity": 80,
                "duration": 0.1181818,
                "tempo": 120.0
            },
            {
                "start_time": 7.075,
                "end_time": 7.2136364,
                "pitch": 48,
                "velocity": 80,
                "duration": 0.1386364,
                "tempo": 120.0
            },
            {
                "start_time": 7.2136364,
                "end_time": 7.3318182,
                "pitch": 36,
                "velocity": 80,
                "duration": 0.1181818,
                "tempo": 120.0
            },
            {
                "start_time": 7.3318182,
                "end_time": 7.4545455,
                "pitch": 36,
                "velocity": 80,
                "duration": 0.1227273,
                "tempo": 120.0
            },
            {
                "start_time": 7.4545455,
                "end_time": 7.5704545,
                "pitch": 48,
                "velocity": 80,
                "duration": 0.1159091,
                "tempo": 120.0
            },
            {
                "start_time": 7.5704545,
                "end_time": 7.6886364,
                "pitch": 48,
                "velocity": 80,
                "duration": 0.1181818,
                "tempo": 120.0
            },
            {
                "start_time": 7.6886364,
                "end_time": 7.8227273,
                "pitch": 32,
                "velocity": 80,
                "duration": 0.1340909,
                "tempo": 120.0
            },
            {
                "start_time": 7.8227273,
                "end_time": 7.9409091,
                "pitch": 32,
                "velocity": 80,
                "duration": 0.1181818,
                "tempo": 120.0
            },
            {
                "start_time": 7.9409091,
                "end_time": 8.0568182,
                "pitch": 44,
                "velocity": 80,
                "duration": 0.1159091,
                "tempo": 120.0
            },
            {
                "start_time": 8.0568182,
                "end_time": 8.175,
                "pitch": 44,
                "velocity": 80,
                "duration": 0.1181818,
                "tempo": 120.0
            },
            {
                "start_time": 8.175,
                "end_time": 8.2886364,
                "pitch": 32,
                "velocity": 80,
                "duration": 0.1136364,
                "tempo": 120.0
            },
            {
                "start_time": 8.2886364,
                "end_time": 8.425,
                "pitch": 32,
                "velocity": 80,
                "duration": 0.1363636,
                "tempo": 120.0
            },
            {
                "start_time": 8.425,
                "end_time": 8.5431818,
                "pitch": 44,
                "velocity": 80,
                "duration": 0.1181818,
                "tempo": 120.0
            },
            {
                "start_time": 8.5431818,
                "end_time": 8.6636364,
                "pitch": 44,
                "velocity": 80,
                "duration": 0.1204545,
                "tempo": 120.0
            },
            {
                "start_time": 8.6636364,
                "end_time": 8.7840909,
                "pitch": 34,
                "velocity": 80,
                "duration": 0.1204545,
                "tempo": 120.0
            },
            {
                "start_time": 8.7840909,
                "end_time": 8.9045455,
                "pitch": 34,
                "velocity": 80,
                "duration": 0.1204545,
                "tempo": 120.0
            },
            {
                "start_time": 8.9045455,
                "end_time": 9.0340909,
                "pitch": 46,
                "velocity": 80,
                "duration": 0.1295455,
                "tempo": 120.0
            },
            {
                "start_time": 9.0340909,
                "end_time": 9.15,
                "pitch": 46,
                "velocity": 80,
                "duration": 0.1159091,
                "tempo": 120.0
            },
            {
                "start_time": 9.15,
                "end_time": 9.2659091,
                "pitch": 34,
                "velocity": 80,
                "duration": 0.1159091,
                "tempo": 120.0
            },
            {
                "start_time": 9.2659091,
                "end_time": 9.3795455,
                "pitch": 34,
                "velocity": 80,
                "duration": 0.1136364,
                "tempo": 120.0
            },
            {
                "start_time": 9.3818182,
                "end_time": 9.5,
                "pitch": 46,
                "velocity": 80,
                "duration": 0.1181818,
                "tempo": 120.0
            },
            {
                "start_time": 9.5,
                "end_time": 9.6363636,
                "pitch": 46,
                "velocity": 80,
                "duration": 0.1363636,
                "tempo": 120.0
            },
            {
                "start_time": 9.6386364,
                "end_time": 9.7545455,
                "pitch": 36,
                "velocity": 80,
                "duration": 0.1159091,
                "tempo": 120.0
            },
            {
                "start_time": 9.7545455,
                "end_time": 9.875,
                "pitch": 36,
                "velocity": 80,
                "duration": 0.1204545,
                "tempo": 120.0
            },
            {
                "start_time": 9.875,
                "end_time": 9.9886364,
                "pitch": 48,
                "velocity": 80,
                "duration": 0.1136364,
                "tempo": 120.0
            },
            {
                "start_time": 9.9886364,
                "end_time": 10.1045455,
                "pitch": 48,
                "velocity": 80,
                "duration": 0.1159091,
                "tempo": 120.0
            },
            {
                "start_time": 10.1045455,
                "end_time": 10.2340909,
                "pitch": 36,
                "velocity": 80,
                "duration": 0.1295455,
                "tempo": 120.0
            },
            {
                "start_time": 10.2340909,
                "end_time": 10.3522727,
                "pitch": 36,
                "velocity": 80,
                "duration": 0.1181818,
                "tempo": 120.0
            },
            {
                "start_time": 10.3522727,
                "end_time": 10.4704545,
                "pitch": 48,
                "velocity": 80,
                "duration": 0.1181818,
                "tempo": 120.0
            },
            {
                "start_time": 10.4704545,
                "end_time": 10.5886364,
                "pitch": 48,
                "velocity": 80,
                "duration": 0.1181818,
                "tempo": 120.0
            },
            {
                "start_time": 10.5909091,
                "end_time": 10.7090909,
                "pitch": 36,
                "velocity": 80,
                "duration": 0.1181818,
                "tempo": 120.0
            },
            {
                "start_time": 10.7090909,
                "end_time": 10.8477273,
                "pitch": 36,
                "velocity": 80,
                "duration": 0.1386364,
                "tempo": 120.0
            },
            {
                "start_time": 10.8477273,
                "end_time": 10.9636364,
                "pitch": 48,
                "velocity": 80,
                "duration": 0.1159091,
                "tempo": 120.0
            },
            {
                "start_time": 10.9636364,
                "end_time": 11.0818182,
                "pitch": 48,
                "velocity": 80,
                "duration": 0.1181818,
                "tempo": 120.0
            },
            {
                "start_time": 11.0818182,
                "end_time": 11.2,
                "pitch": 36,
                "velocity": 80,
                "duration": 0.1181818,
                "tempo": 120.0
            },
            {
                "start_time": 11.2,
                "end_time": 11.3181818,
                "pitch": 36,
                "velocity": 80,
                "duration": 0.1181818,
                "tempo": 120.0
            },
            {
                "start_time": 11.3181818,
                "end_time": 11.45,
                "pitch": 48,
                "velocity": 80,
                "duration": 0.1318182,
                "tempo": 120.0
            },
            {
                "start_time": 11.45,
                "end_time": 11.5659091,
                "pitch": 48,
                "velocity": 80,
                "duration": 0.1159091,
                "tempo": 120.0
            },
            {
                "start_time": 11.5659091,
                "end_time": 11.6795455,
                "pitch": 36,
                "velocity": 80,
                "duration": 0.1136364,
                "tempo": 120.0
            },
            {
                "start_time": 11.6795455,
                "end_time": 11.7931818,
                "pitch": 36,
                "velocity": 80,
                "duration": 0.1136364,
                "tempo": 120.0
            },
            {
                "start_time": 11.7931818,
                "end_time": 11.9113636,
                "pitch": 48,
                "velocity": 80,
                "duration": 0.1181818,
                "tempo": 120.0
            },
            {
                "start_time": 11.9113636,
                "end_time": 12.0477273,
                "pitch": 48,
                "velocity": 80,
                "duration": 0.1363636,
                "tempo": 120.0
            },
            {
                "start_time": 12.0477273,
                "end_time": 12.1636364,
                "pitch": 36,
                "velocity": 80,
                "duration": 0.1159091,
                "tempo": 120.0
            },
            {
                "start_time": 12.1636364,
                "end_time": 12.2818182,
                "pitch": 36,
                "velocity": 80,
                "duration": 0.1181818,
                "tempo": 120.0
            },
            {
                "start_time": 12.2818182,
                "end_time": 12.4,
                "pitch": 48,
                "velocity": 80,
                "duration": 0.1181818,
                "tempo": 120.0
            },
            {
                "start_time": 12.4,
                "end_time": 12.5159091,
                "pitch": 48,
                "velocity": 80,
                "duration": 0.1159091,
                "tempo": 120.0
            },
            {
                "start_time": 12.5181818,
                "end_time": 12.6522727,
                "pitch": 36,
                "velocity": 80,
                "duration": 0.1340909,
                "tempo": 120.0
            },
            {
                "start_time": 12.6522727,
                "end_time": 12.7704545,
                "pitch": 36,
                "velocity": 80,
                "duration": 0.1181818,
                "tempo": 120.0
            },
            {
                "start_time": 12.7704545,
                "end_time": 12.8886364,
                "pitch": 48,
                "velocity": 80,
                "duration": 0.1181818,
                "tempo": 120.0
            },
            {
                "start_time": 12.8886364,
                "end_time": 13.0090909,
                "pitch": 48,
                "velocity": 80,
                "duration": 0.1204545,
                "tempo": 120.0
            },
            {
                "start_time": 13.0090909,
                "end_time": 13.1272727,
                "pitch": 36,
                "velocity": 80,
                "duration": 0.1181818,
                "tempo": 120.0
            },
            {
                "start_time": 13.1295455,
                "end_time": 13.2659091,
                "pitch": 36,
                "velocity": 80,
                "duration": 0.1363636,
                "tempo": 120.0
            },
            {
                "start_time": 13.2659091,
                "end_time": 13.3840909,
                "pitch": 48,
                "velocity": 80,
                "duration": 0.1181818,
                "tempo": 120.0
            },
            {
                "start_time": 13.3840909,
                "end_time": 13.5022727,
                "pitch": 48,
                "velocity": 80,
                "duration": 0.1181818,
                "tempo": 120.0
            },
            {
                "start_time": 13.5022727,
                "end_time": 13.6181818,
                "pitch": 36,
                "velocity": 80,
                "duration": 0.1159091,
                "tempo": 120.0
            },
            {
                "start_time": 13.6181818,
                "end_time": 13.7363636,
                "pitch": 36,
                "velocity": 80,
                "duration": 0.1181818,
                "tempo": 120.0
            },
            {
                "start_time": 13.7363636,
                "end_time": 13.8681818,
                "pitch": 48,
                "velocity": 80,
                "duration": 0.1318182,
                "tempo": 120.0
            },
            {
                "start_time": 13.8681818,
                "end_time": 13.9840909,
                "pitch": 48,
                "velocity": 80,
                "duration": 0.1159091,
                "tempo": 120.0
            },
            {
                "start_time": 13.9840909,
                "end_time": 14.0954545,
                "pitch": 36,
                "velocity": 80,
                "duration": 0.1113636,
                "tempo": 120.0
            },
            {
                "start_time": 14.0954545,
                "end_time": 14.2136364,
                "pitch": 36,
                "velocity": 80,
                "duration": 0.1181818,
                "tempo": 120.0
            },
            {
                "start_time": 14.2136364,
                "end_time": 14.3295455,
                "pitch": 48,
                "velocity": 80,
                "duration": 0.1159091,
                "tempo": 120.0
            },
            {
                "start_time": 14.3295455,
                "end_time": 14.4636364,
                "pitch": 48,
                "velocity": 80,
                "duration": 0.1340909,
                "tempo": 120.0
            },
            {
                "start_time": 14.4659091,
                "end_time": 14.5818182,
                "pitch": 36,
                "velocity": 80,
                "duration": 0.1159091,
                "tempo": 120.0
            },
            {
                "start_time": 14.5818182,
                "end_time": 14.7022727,
                "pitch": 36,
                "velocity": 80,
                "duration": 0.1204545,
                "tempo": 120.0
            },
            {
                "start_time": 14.7022727,
                "end_time": 14.8181818,
                "pitch": 48,
                "velocity": 80,
                "duration": 0.1159091,
                "tempo": 120.0
            },
            {
                "start_time": 14.8181818,
                "end_time": 14.9409091,
                "pitch": 48,
                "velocity": 80,
                "duration": 0.1227273,
                "tempo": 120.0
            },
            {
                "start_time": 14.9409091,
                "end_time": 15.0772727,
                "pitch": 36,
                "velocity": 80,
                "duration": 0.1363636,
                "tempo": 120.0
            },
            {
                "start_time": 15.0772727,
                "end_time": 15.1977273,
                "pitch": 36,
                "velocity": 80,
                "duration": 0.1204545,
                "tempo": 120.0
            },
            {
                "start_time": 15.1977273,
                "end_time": 15.3136364,
                "pitch": 48,
                "velocity": 80,
                "duration": 0.1159091,
                "tempo": 120.0
            },
            {
                "start_time": 15.3136364,
                "end_time": 15.4318182,
                "pitch": 48,
                "velocity": 80,
                "duration": 0.1181818,
                "tempo": 120.0
            },
            {
                "start_time": 15.4340909,
                "end_time": 15.55,
                "pitch": 32,
                "velocity": 80,
                "duration": 0.1159091,
                "tempo": 120.0
            },
            {
                "start_time": 15.55,
                "end_time": 15.6840909,
                "pitch": 32,
                "velocity": 80,
                "duration": 0.1340909,
                "tempo": 120.0
            },
            {
                "start_time": 15.6840909,
                "end_time": 15.8,
                "pitch": 44,
                "velocity": 80,
                "duration": 0.1159091,
                "tempo": 120.0
            },
            {
                "start_time": 15.8,
                "end_time": 15.9181818,
                "pitch": 44,
                "velocity": 80,
                "duration": 0.1181818,
                "tempo": 120.0
            },
            {
                "start_time": 15.9181818,
                "end_time": 16.0340909,
                "pitch": 32,
                "velocity": 80,
                "duration": 0.1159091,
                "tempo": 120.0
            },
            {
                "start_time": 16.0340909,
                "end_time": 16.1522727,
                "pitch": 32,
                "velocity": 80,
                "duration": 0.1181818,
                "tempo": 120.0
            },
            {
                "start_time": 16.1522727,
                "end_time": 16.2818182,
                "pitch": 44,
                "velocity": 80,
                "duration": 0.1295455,
                "tempo": 120.0
            },
            {
                "start_time": 16.2818182,
                "end_time": 16.3977273,
                "pitch": 44,
                "velocity": 80,
                "duration": 0.1159091,
                "tempo": 120.0
            },
            {
                "start_time": 16.3977273,
                "end_time": 16.5136364,
                "pitch": 34,
                "velocity": 80,
                "duration": 0.1159091,
                "tempo": 120.0
            },
            {
                "start_time": 16.5136364,
                "end_time": 16.6272727,
                "pitch": 34,
                "velocity": 80,
                "duration": 0.1136364,
                "tempo": 120.0
            },
            {
                "start_time": 16.6295455,
                "end_time": 16.7477273,
                "pitch": 46,
                "velocity": 80,
                "duration": 0.1181818,
                "tempo": 120.0
            },
            {
                "start_time": 16.7477273,
                "end_time": 16.8840909,
                "pitch": 46,
                "velocity": 80,
                "duration": 0.1363636,
                "tempo": 120.0
            },
            {
                "start_time": 16.8840909,
                "end_time": 17.0045455,
                "pitch": 34,
                "velocity": 80,
                "duration": 0.1204545,
                "tempo": 120.0
            },
            {
                "start_time": 17.0045455,
                "end_time": 17.125,
                "pitch": 34,
                "velocity": 80,
                "duration": 0.1204545,
                "tempo": 120.0
            },
            {
                "start_time": 17.125,
                "end_time": 17.2431818,
                "pitch": 46,
                "velocity": 80,
                "duration": 0.1181818,
                "tempo": 120.0
            },
            {
                "start_time": 17.2454545,
                "end_time": 17.3636364,
                "pitch": 46,
                "velocity": 80,
                "duration": 0.1181818,
                "tempo": 120.0
            },
            {
                "start_time": 17.3636364,
                "end_time": 17.5,
                "pitch": 37,
                "velocity": 80,
                "duration": 0.1363636,
                "tempo": 120.0
            },
            {
                "start_time": 17.5,
                "end_time": 17.6181818,
                "pitch": 37,
                "velocity": 80,
                "duration": 0.1181818,
                "tempo": 120.0
            },
            {
                "start_time": 17.6181818,
                "end_time": 17.7340909,
                "pitch": 49,
                "velocity": 80,
                "duration": 0.1159091,
                "tempo": 120.0
            },
            {
                "start_time": 17.7340909,
                "end_time": 17.85,
                "pitch": 49,
                "velocity": 80,
                "duration": 0.1159091,
                "tempo": 120.0
            },
            {
                "start_time": 17.85,
                "end_time": 17.9613636,
                "pitch": 37,
                "velocity": 80,
                "duration": 0.1113636,
                "tempo": 120.0
            },
            {
                "start_time": 17.9636364,
                "end_time": 18.0954545,
                "pitch": 37,
                "velocity": 80,
                "duration": 0.1318182,
                "tempo": 120.0
            },
            {
                "start_time": 18.0954545,
                "end_time": 18.2136364,
                "pitch": 49,
                "velocity": 80,
                "duration": 0.1181818,
                "tempo": 120.0
            },
            {
                "start_time": 18.2136364,
                "end_time": 18.3340909,
                "pitch": 49,
                "velocity": 80,
                "duration": 0.1204545,
                "tempo": 120.0
            },
            {
                "start_time": 18.3340909,
                "end_time": 18.4545455,
                "pitch": 37,
                "velocity": 80,
                "duration": 0.1204545,
                "tempo": 120.0
            },
            {
                "start_time": 18.4545455,
                "end_time": 18.575,
                "pitch": 37,
                "velocity": 80,
                "duration": 0.1204545,
                "tempo": 120.0
            },
            {
                "start_time": 18.575,
                "end_time": 18.7045455,
                "pitch": 49,
                "velocity": 80,
                "duration": 0.1295455,
                "tempo": 120.0
            },
            {
                "start_time": 18.7045455,
                "end_time": 18.8204545,
                "pitch": 49,
                "velocity": 80,
                "duration": 0.1159091,
                "tempo": 120.0
            },
            {
                "start_time": 18.8204545,
                "end_time": 18.9340909,
                "pitch": 37,
                "velocity": 80,
                "duration": 0.1136364,
                "tempo": 120.0
            },
            {
                "start_time": 18.9340909,
                "end_time": 19.0522727,
                "pitch": 37,
                "velocity": 80,
                "duration": 0.1181818,
                "tempo": 120.0
            },
            {
                "start_time": 19.0522727,
                "end_time": 19.1681818,
                "pitch": 49,
                "velocity": 80,
                "duration": 0.1159091,
                "tempo": 120.0
            },
            {
                "start_time": 19.1681818,
                "end_time": 19.3045455,
                "pitch": 49,
                "velocity": 80,
                "duration": 0.1363636,
                "tempo": 120.0
            },
            {
                "start_time": 19.3045455,
                "end_time": 19.4204545,
                "pitch": 37,
                "velocity": 80,
                "duration": 0.1159091,
                "tempo": 120.0
            },
            {
                "start_time": 19.4204545,
                "end_time": 19.5386364,
                "pitch": 37,
                "velocity": 80,
                "duration": 0.1181818,
                "tempo": 120.0
            },
            {
                "start_time": 19.5386364,
                "end_time": 19.6545455,
                "pitch": 49,
                "velocity": 80,
                "duration": 0.1159091,
                "tempo": 120.0
            },
            {
                "start_time": 19.6545455,
                "end_time": 19.775,
                "pitch": 49,
                "velocity": 80,
                "duration": 0.1204545,
                "tempo": 120.0
            },
            {
                "start_time": 19.775,
                "end_time": 19.9068182,
                "pitch": 37,
                "velocity": 80,
                "duration": 0.1318182,
                "tempo": 120.0
            },
            {
                "start_time": 19.9068182,
                "end_time": 20.0272727,
                "pitch": 37,
                "velocity": 80,
                "duration": 0.1204545,
                "tempo": 120.0
            },
            {
                "start_time": 20.0272727,
                "end_time": 20.1454545,
                "pitch": 49,
                "velocity": 80,
                "duration": 0.1181818,
                "tempo": 120.0
            },
            {
                "start_time": 20.1454545,
                "end_time": 20.2636364,
                "pitch": 49,
                "velocity": 80,
                "duration": 0.1181818,
                "tempo": 120.0
            },
            {
                "start_time": 20.2659091,
                "end_time": 20.3840909,
                "pitch": 37,
                "velocity": 80,
                "duration": 0.1181818,
                "tempo": 120.0
            },
            {
                "start_time": 20.3840909,
                "end_time": 20.5227273,
                "pitch": 37,
                "velocity": 80,
                "duration": 0.1386364,
                "tempo": 120.0
            },
            {
                "start_time": 20.5227273,
                "end_time": 20.6386364,
                "pitch": 49,
                "velocity": 80,
                "duration": 0.1159091,
                "tempo": 120.0
            },
            {
                "start_time": 20.6386364,
                "end_time": 20.7568182,
                "pitch": 49,
                "velocity": 80,
                "duration": 0.1181818,
                "tempo": 120.0
            },
            {
                "start_time": 20.7568182,
                "end_time": 20.875,
                "pitch": 37,
                "velocity": 80,
                "duration": 0.1181818,
                "tempo": 120.0
            },
            {
                "start_time": 20.875,
                "end_time": 20.9931818,
                "pitch": 37,
                "velocity": 80,
                "duration": 0.1181818,
                "tempo": 120.0
            },
            {
                "start_time": 20.9931818,
                "end_time": 21.125,
                "pitch": 49,
                "velocity": 80,
                "duration": 0.1318182,
                "tempo": 120.0
            },
            {
                "start_time": 21.125,
                "end_time": 21.2409091,
                "pitch": 49,
                "velocity": 80,
                "duration": 0.1159091,
                "tempo": 120.0
            },
            {
                "start_time": 21.2409091,
                "end_time": 21.3545455,
                "pitch": 37,
                "velocity": 80,
                "duration": 0.1136364,
                "tempo": 120.0
            },
            {
                "start_time": 21.3545455,
                "end_time": 21.4681818,
                "pitch": 37,
                "velocity": 80,
                "duration": 0.1136364,
                "tempo": 120.0
            },
            {
                "start_time": 21.4681818,
                "end_time": 21.5863636,
                "pitch": 49,
                "velocity": 80,
                "duration": 0.1181818,
                "tempo": 120.0
            },
            {
                "start_time": 21.5863636,
                "end_time": 21.7227273,
                "pitch": 49,
                "velocity": 80,
                "duration": 0.1363636,
                "tempo": 120.0
            },
            {
                "start_time": 21.7227273,
                "end_time": 21.8386364,
                "pitch": 37,
                "velocity": 80,
                "duration": 0.1159091,
                "tempo": 120.0
            },
            {
                "start_time": 21.8386364,
                "end_time": 21.9568182,
                "pitch": 37,
                "velocity": 80,
                "duration": 0.1181818,
                "tempo": 120.0
            },
            {
                "start_time": 21.9568182,
                "end_time": 22.075,
                "pitch": 49,
                "velocity": 80,
                "duration": 0.1181818,
                "tempo": 120.0
            },
            {
                "start_time": 22.0772727,
                "end_time": 22.1954545,
                "pitch": 49,
                "velocity": 80,
                "duration": 0.1181818,
                "tempo": 120.0
            },
            {
                "start_time": 22.1954545,
                "end_time": 22.3318182,
                "pitch": 37,
                "velocity": 80,
                "duration": 0.1363636,
                "tempo": 120.0
            },
            {
                "start_time": 22.3318182,
                "end_time": 22.4522727,
                "pitch": 37,
                "velocity": 80,
                "duration": 0.1204545,
                "tempo": 120.0
            },
            {
                "start_time": 22.4545455,
                "end_time": 22.5681818,
                "pitch": 49,
                "velocity": 80,
                "duration": 0.1136364,
                "tempo": 120.0
            },
            {
                "start_time": 22.5681818,
                "end_time": 22.6886364,
                "pitch": 49,
                "velocity": 80,
                "duration": 0.1204545,
                "tempo": 120.0
            },
            {
                "start_time": 22.6886364,
                "end_time": 22.8045455,
                "pitch": 37,
                "velocity": 80,
                "duration": 0.1159091,
                "tempo": 120.0
            },
            {
                "start_time": 22.8045455,
                "end_time": 22.9409091,
                "pitch": 37,
                "velocity": 80,
                "duration": 0.1363636,
                "tempo": 120.0
            },
            {
                "start_time": 22.9409091,
                "end_time": 23.0568182,
                "pitch": 49,
                "velocity": 80,
                "duration": 0.1159091,
                "tempo": 120.0
            },
            {
                "start_time": 23.0568182,
                "end_time": 23.175,
                "pitch": 49,
                "velocity": 80,
                "duration": 0.1181818,
                "tempo": 120.0
            },
            {
                "start_time": 23.175,
                "end_time": 23.2909091,
                "pitch": 33,
                "velocity": 80,
                "duration": 0.1159091,
                "tempo": 120.0
            },
            {
                "start_time": 23.2909091,
                "end_time": 23.4068182,
                "pitch": 33,
                "velocity": 80,
                "duration": 0.1159091,
                "tempo": 120.0
            },
            {
                "start_time": 23.4068182,
                "end_time": 23.5386364,
                "pitch": 45,
                "velocity": 80,
                "duration": 0.1318182,
                "tempo": 120.0
            },
            {
                "start_time": 23.5386364,
                "end_time": 23.6545455,
                "pitch": 45,
                "velocity": 80,
                "duration": 0.1159091,
                "tempo": 120.0
            },
            {
                "start_time": 23.6545455,
                "end_time": 23.7681818,
                "pitch": 33,
                "velocity": 80,
                "duration": 0.1136364,
                "tempo": 120.0
            },
            {
                "start_time": 23.7681818,
                "end_time": 23.8840909,
                "pitch": 33,
                "velocity": 80,
                "duration": 0.1159091,
                "tempo": 120.0
            },
            {
                "start_time": 23.8840909,
                "end_time": 24.0022727,
                "pitch": 45,
                "velocity": 80,
                "duration": 0.1181818,
                "tempo": 120.0
            },
            {
                "start_time": 24.0022727,
                "end_time": 24.1409091,
                "pitch": 45,
                "velocity": 80,
                "duration": 0.1386364,
                "tempo": 120.0
            },
            {
                "start_time": 24.1409091,
                "end_time": 24.2613636,
                "pitch": 35,
                "velocity": 80,
                "duration": 0.1204545,
                "tempo": 120.0
            },
            {
                "start_time": 24.2613636,
                "end_time": 24.3795455,
                "pitch": 35,
                "velocity": 80,
                "duration": 0.1181818,
                "tempo": 120.0
            },
            {
                "start_time": 24.3795455,
                "end_time": 24.5,
                "pitch": 47,
                "velocity": 80,
                "duration": 0.1204545,
                "tempo": 120.0
            },
            {
                "start_time": 24.5,
                "end_time": 24.6204545,
                "pitch": 47,
                "velocity": 80,
                "duration": 0.1204545,
                "tempo": 120.0
            },
            {
                "start_time": 24.6204545,
                "end_time": 24.7568182,
                "pitch": 35,
                "velocity": 80,
                "duration": 0.1363636,
                "tempo": 120.0
            },
            {
                "start_time": 24.7568182,
                "end_time": 24.8772727,
                "pitch": 35,
                "velocity": 80,
                "duration": 0.1204545,
                "tempo": 120.0
            },
            {
                "start_time": 24.8772727,
                "end_time": 24.9954545,
                "pitch": 47,
                "velocity": 80,
                "duration": 0.1181818,
                "tempo": 120.0
            },
            {
                "start_time": 24.9954545,
                "end_time": 25.1113636,
                "pitch": 47,
                "velocity": 80,
                "duration": 0.1159091,
                "tempo": 120.0
            },
            {
                "start_time": 25.1113636,
                "end_time": 25.2272727,
                "pitch": 37,
                "velocity": 80,
                "duration": 0.1159091,
                "tempo": 120.0
            },
            {
                "start_time": 25.2295455,
                "end_time": 25.3636364,
                "pitch": 37,
                "velocity": 80,
                "duration": 0.1340909,
                "tempo": 120.0
            },
            {
                "start_time": 25.3636364,
                "end_time": 25.4795455,
                "pitch": 49,
                "velocity": 80,
                "duration": 0.1159091,
                "tempo": 120.0
            },
            {
                "start_time": 25.4795455,
                "end_time": 25.5977273,
                "pitch": 49,
                "velocity": 80,
                "duration": 0.1181818,
                "tempo": 120.0
            },
            {
                "start_time": 25.5977273,
                "end_time": 25.7113636,
                "pitch": 37,
                "velocity": 80,
                "duration": 0.1136364,
                "tempo": 120.0
            },
            {
                "start_time": 25.7113636,
                "end_time": 25.8318182,
                "pitch": 37,
                "velocity": 80,
                "duration": 0.1204545,
                "tempo": 120.0
            },
            {
                "start_time": 25.8318182,
                "end_time": 25.9613636,
                "pitch": 49,
                "velocity": 80,
                "duration": 0.1295455,
                "tempo": 120.0
            },
            {
                "start_time": 25.9613636,
                "end_time": 26.0772727,
                "pitch": 49,
                "velocity": 80,
                "duration": 0.1159091,
                "tempo": 120.0
            },
            {
                "start_time": 26.0772727,
                "end_time": 26.1909091,
                "pitch": 37,
                "velocity": 80,
                "duration": 0.1136364,
                "tempo": 120.0
            },
            {
                "start_time": 26.1909091,
                "end_time": 26.3068182,
                "pitch": 37,
                "velocity": 80,
                "duration": 0.1159091,
                "tempo": 120.0
            },
            {
                "start_time": 26.3068182,
                "end_time": 26.4227273,
                "pitch": 49,
                "velocity": 80,
                "duration": 0.1159091,
                "tempo": 120.0
            },
            {
                "start_time": 26.4227273,
                "end_time": 26.5590909,
                "pitch": 49,
                "velocity": 80,
                "duration": 0.1363636,
                "tempo": 120.0
            },
            {
                "start_time": 26.5590909,
                "end_time": 26.6772727,
                "pitch": 37,
                "velocity": 80,
                "duration": 0.1181818,
                "tempo": 120.0
            },
            {
                "start_time": 26.6772727,
                "end_time": 26.7954545,
                "pitch": 37,
                "velocity": 80,
                "duration": 0.1181818,
                "tempo": 120.0
            },
            {
                "start_time": 26.7954545,
                "end_time": 26.9113636,
                "pitch": 49,
                "velocity": 80,
                "duration": 0.1159091,
                "tempo": 120.0
            },
            {
                "start_time": 26.9136364,
                "end_time": 27.0318182,
                "pitch": 49,
                "velocity": 80,
                "duration": 0.1181818,
                "tempo": 120.0
            },
            {
                "start_time": 27.0318182,
                "end_time": 27.1636364,
                "pitch": 37,
                "velocity": 80,
                "duration": 0.1318182,
                "tempo": 120.0
            },
            {
                "start_time": 27.1659091,
                "end_time": 27.2818182,
                "pitch": 37,
                "velocity": 80,
                "duration": 0.1159091,
                "tempo": 120.0
            },
            {
                "start_time": 27.2818182,
                "end_time": 27.4022727,
                "pitch": 49,
                "velocity": 80,
                "duration": 0.1204545,
                "tempo": 120.0
            },
            {
                "start_time": 27.4022727,
                "end_time": 27.5227273,
                "pitch": 49,
                "velocity": 80,
                "duration": 0.1204545,
                "tempo": 120.0
            },
            {
                "start_time": 27.5227273,
                "end_time": 27.6409091,
                "pitch": 37,
                "velocity": 80,
                "duration": 0.1181818,
                "tempo": 120.0
            },
            {
                "start_time": 27.6409091,
                "end_time": 27.7795455,
                "pitch": 37,
                "velocity": 80,
                "duration": 0.1386364,
                "tempo": 120.0
            },
            {
                "start_time": 27.7795455,
                "end_time": 27.8954545,
                "pitch": 49,
                "velocity": 80,
                "duration": 0.1159091,
                "tempo": 120.0
            },
            {
                "start_time": 27.8954545,
                "end_time": 28.0136364,
                "pitch": 49,
                "velocity": 80,
                "duration": 0.1181818,
                "tempo": 120.0
            },
            {
                "start_time": 28.0136364,
                "end_time": 28.1318182,
                "pitch": 37,
                "velocity": 80,
                "duration": 0.1181818,
                "tempo": 120.0
            },
            {
                "start_time": 28.1318182,
                "end_time": 28.25,
                "pitch": 37,
                "velocity": 80,
                "duration": 0.1181818,
                "tempo": 120.0
            },
            {
                "start_time": 28.25,
                "end_time": 28.3795455,
                "pitch": 49,
                "velocity": 80,
                "duration": 0.1295455,
                "tempo": 120.0
            },
            {
                "start_time": 28.3795455,
                "end_time": 28.4954545,
                "pitch": 49,
                "velocity": 80,
                "duration": 0.1159091,
                "tempo": 120.0
            },
            {
                "start_time": 28.4954545,
                "end_time": 28.6090909,
                "pitch": 37,
                "velocity": 80,
                "duration": 0.1136364,
                "tempo": 120.0
            },
            {
                "start_time": 28.6113636,
                "end_time": 28.7272727,
                "pitch": 37,
                "velocity": 80,
                "duration": 0.1159091,
                "tempo": 120.0
            },
            {
                "start_time": 28.7272727,
                "end_time": 28.8431818,
                "pitch": 49,
                "velocity": 80,
                "duration": 0.1159091,
                "tempo": 120.0
            },
            {
                "start_time": 28.8431818,
                "end_time": 28.9795455,
                "pitch": 49,
                "velocity": 80,
                "duration": 0.1363636,
                "tempo": 120.0
            },
            {
                "start_time": 28.9795455,
                "end_time": 29.0954545,
                "pitch": 37,
                "velocity": 80,
                "duration": 0.1159091,
                "tempo": 120.0
            },
            {
                "start_time": 29.0954545,
                "end_time": 29.2136364,
                "pitch": 37,
                "velocity": 80,
                "duration": 0.1181818,
                "tempo": 120.0
            },
            {
                "start_time": 29.2136364,
                "end_time": 29.3318182,
                "pitch": 49,
                "velocity": 80,
                "duration": 0.1181818,
                "tempo": 120.0
            },
            {
                "start_time": 29.3318182,
                "end_time": 29.4522727,
                "pitch": 49,
                "velocity": 80,
                "duration": 0.1204545,
                "tempo": 120.0
            },
            {
                "start_time": 29.4545455,
                "end_time": 29.5886364,
                "pitch": 37,
                "velocity": 80,
                "duration": 0.1340909,
                "tempo": 120.0
            },
            {
                "start_time": 29.5886364,
                "end_time": 29.7090909,
                "pitch": 37,
                "velocity": 80,
                "duration": 0.1204545,
                "tempo": 120.0
            },
            {
                "start_time": 29.7090909,
                "end_time": 29.8272727,
                "pitch": 49,
                "velocity": 80,
                "duration": 0.1181818,
                "tempo": 120.0
            },
            {
                "start_time": 29.8272727,
                "end_time": 29.9431818,
                "pitch": 49,
                "velocity": 80,
                "duration": 0.1159091,
                "tempo": 120.0
            },
            {
                "start_time": 29.9454545,
                "end_time": 30.0613636,
                "pitch": 37,
                "velocity": 80,
                "duration": 0.1159091,
                "tempo": 120.0
            },
            {
                "start_time": 30.0613636,
                "end_time": 30.1977273,
                "pitch": 37,
                "velocity": 80,
                "duration": 0.1363636,
                "tempo": 120.0
            },
            {
                "start_time": 30.1977273,
                "end_time": 30.3136364,
                "pitch": 49,
                "velocity": 80,
                "duration": 0.1159091,
                "tempo": 120.0
            },
            {
                "start_time": 30.3136364,
                "end_time": 30.4318182,
                "pitch": 49,
                "velocity": 80,
                "duration": 0.1181818,
                "tempo": 120.0
            },
            {
                "start_time": 30.4340909,
                "end_time": 30.55,
                "pitch": 37,
                "velocity": 80,
                "duration": 0.1159091,
                "tempo": 120.0
            },
            {
                "start_time": 30.55,
                "end_time": 30.6681818,
                "pitch": 37,
                "velocity": 80,
                "duration": 0.1181818,
                "tempo": 120.0
            },
            {
                "start_time": 30.6681818,
                "end_time": 30.8,
                "pitch": 49,
                "velocity": 80,
                "duration": 0.1318182,
                "tempo": 120.0
            },
            {
                "start_time": 30.8,
                "end_time": 30.9159091,
                "pitch": 49,
                "velocity": 80,
                "duration": 0.1159091,
                "tempo": 120.0
            },
            {
                "start_time": 30.9159091,
                "end_time": 31.0295455,
                "pitch": 33,
                "velocity": 80,
                "duration": 0.1136364,
                "tempo": 120.0
            },
            {
                "start_time": 31.0295455,
                "end_time": 31.1431818,
                "pitch": 33,
                "velocity": 80,
                "duration": 0.1136364,
                "tempo": 120.0
            },
            {
                "start_time": 31.1431818,
                "end_time": 31.2613636,
                "pitch": 45,
                "velocity": 80,
                "duration": 0.1181818,
                "tempo": 120.0
            },
            {
                "start_time": 31.2613636,
                "end_time": 31.3954545,
                "pitch": 45,
                "velocity": 80,
                "duration": 0.1340909,
                "tempo": 120.0
            },
            {
                "start_time": 31.3954545,
                "end_time": 31.5090909,
                "pitch": 33,
                "velocity": 80,
                "duration": 0.1136364,
                "tempo": 120.0
            },
            {
                "start_time": 31.5090909,
                "end_time": 31.6295455,
                "pitch": 33,
                "velocity": 80,
                "duration": 0.1204545,
                "tempo": 120.0
            },
            {
                "start_time": 31.6295455,
                "end_time": 31.7477273,
                "pitch": 45,
                "velocity": 80,
                "duration": 0.1181818,
                "tempo": 120.0
            },
            {
                "start_time": 31.7477273,
                "end_time": 31.8681818,
                "pitch": 45,
                "velocity": 80,
                "duration": 0.1204545,
                "tempo": 120.0
            },
            {
                "start_time": 31.8681818,
                "end_time": 32.0045455,
                "pitch": 35,
                "velocity": 80,
                "duration": 0.1363636,
                "tempo": 120.0
            },
            {
                "start_time": 32.0045455,
                "end_time": 32.125,
                "pitch": 35,
                "velocity": 80,
                "duration": 0.1204545,
                "tempo": 120.0
            },
            {
                "start_time": 32.125,
                "end_time": 32.2431818,
                "pitch": 47,
                "velocity": 80,
                "duration": 0.1181818,
                "tempo": 120.0
            },
            {
                "start_time": 32.2431818,
                "end_time": 32.3636364,
                "pitch": 47,
                "velocity": 80,
                "duration": 0.1204545,
                "tempo": 120.0
            },
            {
                "start_time": 32.3636364,
                "end_time": 32.4840909,
                "pitch": 35,
                "velocity": 80,
                "duration": 0.1204545,
                "tempo": 120.0
            },
            {
                "start_time": 32.4840909,
                "end_time": 32.6204545,
                "pitch": 35,
                "velocity": 80,
                "duration": 0.1363636,
                "tempo": 120.0
            },
            {
                "start_time": 32.6204545,
                "end_time": 32.7386364,
                "pitch": 47,
                "velocity": 80,
                "duration": 0.1181818,
                "tempo": 120.0
            },
            {
                "start_time": 32.7386364,
                "end_time": 32.8568182,
                "pitch": 47,
                "velocity": 80,
                "duration": 0.1181818,
                "tempo": 120.0
            },
            {
                "start_time": 32.8568182,
                "end_time": 32.9727273,
                "pitch": 38,
                "velocity": 80,
                "duration": 0.1159091,
                "tempo": 120.0
            },
            {
                "start_time": 32.9727273,
                "end_time": 33.0909091,
                "pitch": 38,
                "velocity": 80,
                "duration": 0.1181818,
                "tempo": 120.0
            },
            {
                "start_time": 33.0909091,
                "end_time": 33.2181818,
                "pitch": 50,
                "velocity": 80,
                "duration": 0.1272727,
                "tempo": 120.0
            },
            {
                "start_time": 33.2181818,
                "end_time": 33.3318182,
                "pitch": 50,
                "velocity": 80,
                "duration": 0.1136364,
                "tempo": 120.0
            },
            {
                "start_time": 33.3318182,
                "end_time": 33.4431818,
                "pitch": 38,
                "velocity": 80,
                "duration": 0.1113636,
                "tempo": 120.0
            },
            {
                "start_time": 33.4431818,
                "end_time": 33.5568182,
                "pitch": 38,
                "velocity": 80,
                "duration": 0.1136364,
                "tempo": 120.0
            },
            {
                "start_time": 33.5568182,
                "end_time": 33.675,
                "pitch": 50,
                "velocity": 80,
                "duration": 0.1181818,
                "tempo": 120.0
            },
            {
                "start_time": 33.675,
                "end_time": 33.8113636,
                "pitch": 50,
                "velocity": 80,
                "duration": 0.1363636,
                "tempo": 120.0
            },
            {
                "start_time": 33.8113636,
                "end_time": 33.9318182,
                "pitch": 38,
                "velocity": 80,
                "duration": 0.1204545,
                "tempo": 120.0
            },
            {
                "start_time": 33.9318182,
                "end_time": 34.0522727,
                "pitch": 38,
                "velocity": 80,
                "duration": 0.1204545,
                "tempo": 120.0
            },
            {
                "start_time": 34.0522727,
                "end_time": 34.1681818,
                "pitch": 50,
                "velocity": 80,
                "duration": 0.1159091,
                "tempo": 120.0
            },
            {
                "start_time": 34.1681818,
                "end_time": 34.2886364,
                "pitch": 50,
                "velocity": 80,
                "duration": 0.1204545,
                "tempo": 120.0
            },
            {
                "start_time": 34.2886364,
                "end_time": 34.4204545,
                "pitch": 38,
                "velocity": 80,
                "duration": 0.1318182,
                "tempo": 120.0
            },
            {
                "start_time": 34.4204545,
                "end_time": 34.5409091,
                "pitch": 38,
                "velocity": 80,
                "duration": 0.1204545,
                "tempo": 120.0
            },
            {
                "start_time": 34.5409091,
                "end_time": 34.6590909,
                "pitch": 50,
                "velocity": 80,
                "duration": 0.1181818,
                "tempo": 120.0
            },
            {
                "start_time": 34.6590909,
                "end_time": 34.7795455,
                "pitch": 50,
                "velocity": 80,
                "duration": 0.1204545,
                "tempo": 120.0
            },
            {
                "start_time": 34.7795455,
                "end_time": 34.8977273,
                "pitch": 38,
                "velocity": 80,
                "duration": 0.1181818,
                "tempo": 120.0
            },
            {
                "start_time": 34.8977273,
                "end_time": 35.0340909,
                "pitch": 38,
                "velocity": 80,
                "duration": 0.1363636,
                "tempo": 120.0
            },
            {
                "start_time": 35.0340909,
                "end_time": 35.1522727,
                "pitch": 50,
                "velocity": 80,
                "duration": 0.1181818,
                "tempo": 120.0
            },
            {
                "start_time": 35.1522727,
                "end_time": 35.2704545,
                "pitch": 50,
                "velocity": 80,
                "duration": 0.1181818,
                "tempo": 120.0
            },
            {
                "start_time": 35.2704545,
                "end_time": 35.3863636,
                "pitch": 38,
                "velocity": 80,
                "duration": 0.1159091,
                "tempo": 120.0
            },
            {
                "start_time": 35.3863636,
                "end_time": 35.5068182,
                "pitch": 38,
                "velocity": 80,
                "duration": 0.1204545,
                "tempo": 120.0
            },
            {
                "start_time": 35.5068182,
                "end_time": 35.6363636,
                "pitch": 50,
                "velocity": 80,
                "duration": 0.1295455,
                "tempo": 120.0
            },
            {
                "start_time": 35.6363636,
                "end_time": 35.7522727,
                "pitch": 50,
                "velocity": 80,
                "duration": 0.1159091,
                "tempo": 120.0
            },
            {
                "start_time": 35.7522727,
                "end_time": 35.8659091,
                "pitch": 38,
                "velocity": 80,
                "duration": 0.1136364,
                "tempo": 120.0
            },
            {
                "start_time": 35.8681818,
                "end_time": 35.9840909,
                "pitch": 38,
                "velocity": 80,
                "duration": 0.1159091,
                "tempo": 120.0
            },
            {
                "start_time": 35.9840909,
                "end_time": 36.0977273,
                "pitch": 50,
                "velocity": 80,
                "duration": 0.1136364,
                "tempo": 120.0
            },
            {
                "start_time": 36.0977273,
                "end_time": 36.2340909,
                "pitch": 50,
                "velocity": 80,
                "duration": 0.1363636,
                "tempo": 120.0
            },
            {
                "start_time": 36.2340909,
                "end_time": 36.35,
                "pitch": 38,
                "velocity": 80,
                "duration": 0.1159091,
                "tempo": 120.0
            },
            {
                "start_time": 36.35,
                "end_time": 36.4681818,
                "pitch": 38,
                "velocity": 80,
                "duration": 0.1181818,
                "tempo": 120.0
            },
            {
                "start_time": 36.4681818,
                "end_time": 36.5863636,
                "pitch": 50,
                "velocity": 80,
                "duration": 0.1181818,
                "tempo": 120.0
            },
            {
                "start_time": 36.5863636,
                "end_time": 36.7068182,
                "pitch": 50,
                "velocity": 80,
                "duration": 0.1204545,
                "tempo": 120.0
            },
            {
                "start_time": 36.7068182,
                "end_time": 36.8431818,
                "pitch": 38,
                "velocity": 80,
                "duration": 0.1363636,
                "tempo": 120.0
            },
            {
                "start_time": 36.8431818,
                "end_time": 36.9613636,
                "pitch": 38,
                "velocity": 80,
                "duration": 0.1181818,
                "tempo": 120.0
            },
            {
                "start_time": 36.9613636,
                "end_time": 37.0795455,
                "pitch": 50,
                "velocity": 80,
                "duration": 0.1181818,
                "tempo": 120.0
            },
            {
                "start_time": 37.0795455,
                "end_time": 37.1977273,
                "pitch": 50,
                "velocity": 80,
                "duration": 0.1181818,
                "tempo": 120.0
            },
            {
                "start_time": 37.1977273,
                "end_time": 37.3136364,
                "pitch": 38,
                "velocity": 80,
                "duration": 0.1159091,
                "tempo": 120.0
            },
            {
                "start_time": 37.3136364,
                "end_time": 37.45,
                "pitch": 38,
                "velocity": 80,
                "duration": 0.1363636,
                "tempo": 120.0
            },
            {
                "start_time": 37.45,
                "end_time": 37.5659091,
                "pitch": 50,
                "velocity": 80,
                "duration": 0.1159091,
                "tempo": 120.0
            },
            {
                "start_time": 37.5659091,
                "end_time": 37.6840909,
                "pitch": 50,
                "velocity": 80,
                "duration": 0.1181818,
                "tempo": 120.0
            },
            {
                "start_time": 37.6840909,
                "end_time": 37.8,
                "pitch": 38,
                "velocity": 80,
                "duration": 0.1159091,
                "tempo": 120.0
            },
            {
                "start_time": 37.8,
                "end_time": 37.9181818,
                "pitch": 38,
                "velocity": 80,
                "duration": 0.1181818,
                "tempo": 120.0
            },
            {
                "start_time": 37.9181818,
                "end_time": 38.0477273,
                "pitch": 50,
                "velocity": 80,
                "duration": 0.1295455,
                "tempo": 120.0
            },
            {
                "start_time": 38.0477273,
                "end_time": 38.1636364,
                "pitch": 50,
                "velocity": 80,
                "duration": 0.1159091,
                "tempo": 120.0
            },
            {
                "start_time": 38.1636364,
                "end_time": 38.2772727,
                "pitch": 38,
                "velocity": 80,
                "duration": 0.1136364,
                "tempo": 120.0
            },
            {
                "start_time": 38.2772727,
                "end_time": 38.3954545,
                "pitch": 38,
                "velocity": 80,
                "duration": 0.1181818,
                "tempo": 120.0
            },
            {
                "start_time": 38.3954545,
                "end_time": 38.5136364,
                "pitch": 50,
                "velocity": 80,
                "duration": 0.1181818,
                "tempo": 120.0
            },
            {
                "start_time": 38.5136364,
                "end_time": 38.65,
                "pitch": 50,
                "velocity": 80,
                "duration": 0.1363636,
                "tempo": 120.0
            },
            {
                "start_time": 38.65,
                "end_time": 38.7704545,
                "pitch": 34,
                "velocity": 80,
                "duration": 0.1204545,
                "tempo": 120.0
            },
            {
                "start_time": 38.7704545,
                "end_time": 38.8886364,
                "pitch": 34,
                "velocity": 80,
                "duration": 0.1181818,
                "tempo": 120.0
            },
            {
                "start_time": 38.8886364,
                "end_time": 39.0045455,
                "pitch": 46,
                "velocity": 80,
                "duration": 0.1159091,
                "tempo": 120.0
            },
            {
                "start_time": 39.0045455,
                "end_time": 39.1227273,
                "pitch": 46,
                "velocity": 80,
                "duration": 0.1181818,
                "tempo": 120.0
            },
            {
                "start_time": 39.1227273,
                "end_time": 39.2545455,
                "pitch": 34,
                "velocity": 80,
                "duration": 0.1318182,
                "tempo": 120.0
            },
            {
                "start_time": 39.2545455,
                "end_time": 39.3727273,
                "pitch": 34,
                "velocity": 80,
                "duration": 0.1181818,
                "tempo": 120.0
            },
            {
                "start_time": 39.3727273,
                "end_time": 39.4909091,
                "pitch": 46,
                "velocity": 80,
                "duration": 0.1181818,
                "tempo": 120.0
            },
            {
                "start_time": 39.4909091,
                "end_time": 39.6090909,
                "pitch": 46,
                "velocity": 80,
                "duration": 0.1181818,
                "tempo": 120.0
            },
            {
                "start_time": 39.6090909,
                "end_time": 39.7272727,
                "pitch": 36,
                "velocity": 80,
                "duration": 0.1181818,
                "tempo": 120.0
            },
            {
                "start_time": 39.7272727,
                "end_time": 39.8613636,
                "pitch": 36,
                "velocity": 80,
                "duration": 0.1340909,
                "tempo": 120.0
            },
            {
                "start_time": 39.8613636,
                "end_time": 39.9795455,
                "pitch": 48,
                "velocity": 80,
                "duration": 0.1181818,
                "tempo": 120.0
            },
            {
                "start_time": 39.9795455,
                "end_time": 40.1,
                "pitch": 48,
                "velocity": 80,
                "duration": 0.1204545,
                "tempo": 120.0
            },
            {
                "start_time": 40.1,
                "end_time": 40.2204545,
                "pitch": 36,
                "velocity": 80,
                "duration": 0.1204545,
                "tempo": 120.0
            },
            {
                "start_time": 40.2204545,
                "end_time": 40.3409091,
                "pitch": 36,
                "velocity": 80,
                "duration": 0.1204545,
                "tempo": 120.0
            },
            {
                "start_time": 40.3409091,
                "end_time": 40.4727273,
                "pitch": 48,
                "velocity": 80,
                "duration": 0.1318182,
                "tempo": 120.0
            },
            {
                "start_time": 40.4727273,
                "end_time": 40.5863636,
                "pitch": 48,
                "velocity": 80,
                "duration": 0.1136364,
                "tempo": 120.0
            },
            {
                "start_time": 40.5886364,
                "end_time": 40.7,
                "pitch": 38,
                "velocity": 80,
                "duration": 0.1113636,
                "tempo": 120.0
            },
            {
                "start_time": 40.7,
                "end_time": 40.8159091,
                "pitch": 38,
                "velocity": 80,
                "duration": 0.1159091,
                "tempo": 120.0
            },
            {
                "start_time": 40.8159091,
                "end_time": 40.9318182,
                "pitch": 50,
                "velocity": 80,
                "duration": 0.1159091,
                "tempo": 120.0
            },
            {
                "start_time": 40.9318182,
                "end_time": 41.0659091,
                "pitch": 50,
                "velocity": 80,
                "duration": 0.1340909,
                "tempo": 120.0
            },
            {
                "start_time": 41.0659091,
                "end_time": 41.1818182,
                "pitch": 38,
                "velocity": 80,
                "duration": 0.1159091,
                "tempo": 120.0
            },
            {
                "start_time": 41.1818182,
                "end_time": 41.3,
                "pitch": 38,
                "velocity": 80,
                "duration": 0.1181818,
                "tempo": 120.0
            },
            {
                "start_time": 41.3,
                "end_time": 41.4181818,
                "pitch": 50,
                "velocity": 80,
                "duration": 0.1181818,
                "tempo": 120.0
            },
            {
                "start_time": 41.4181818,
                "end_time": 41.5340909,
                "pitch": 50,
                "velocity": 80,
                "duration": 0.1159091,
                "tempo": 120.0
            },
            {
                "start_time": 41.5340909,
                "end_time": 41.6704545,
                "pitch": 38,
                "velocity": 80,
                "duration": 0.1363636,
                "tempo": 120.0
            },
            {
                "start_time": 41.6704545,
                "end_time": 41.7886364,
                "pitch": 38,
                "velocity": 80,
                "duration": 0.1181818,
                "tempo": 120.0
            },
            {
                "start_time": 41.7886364,
                "end_time": 41.9068182,
                "pitch": 50,
                "velocity": 80,
                "duration": 0.1181818,
                "tempo": 120.0
            },
            {
                "start_time": 41.9068182,
                "end_time": 42.0272727,
                "pitch": 50,
                "velocity": 80,
                "duration": 0.1204545,
                "tempo": 120.0
            },
            {
                "start_time": 42.0272727,
                "end_time": 42.1454545,
                "pitch": 38,
                "velocity": 80,
                "duration": 0.1181818,
                "tempo": 120.0
            },
            {
                "start_time": 42.1454545,
                "end_time": 42.2840909,
                "pitch": 38,
                "velocity": 80,
                "duration": 0.1386364,
                "tempo": 120.0
            },
            {
                "start_time": 42.2840909,
                "end_time": 42.4022727,
                "pitch": 50,
                "velocity": 80,
                "duration": 0.1181818,
                "tempo": 120.0
            },
            {
                "start_time": 42.4022727,
                "end_time": 42.5204545,
                "pitch": 50,
                "velocity": 80,
                "duration": 0.1181818,
                "tempo": 120.0
            },
            {
                "start_time": 42.5204545,
                "end_time": 42.6363636,
                "pitch": 38,
                "velocity": 80,
                "duration": 0.1159091,
                "tempo": 120.0
            },
            {
                "start_time": 42.6363636,
                "end_time": 42.7545455,
                "pitch": 38,
                "velocity": 80,
                "duration": 0.1181818,
                "tempo": 120.0
            },
            {
                "start_time": 42.7545455,
                "end_time": 42.8863636,
                "pitch": 50,
                "velocity": 80,
                "duration": 0.1318182,
                "tempo": 120.0
            },
            {
                "start_time": 42.8863636,
                "end_time": 43.0022727,
                "pitch": 50,
                "velocity": 80,
                "duration": 0.1159091,
                "tempo": 120.0
            },
            {
                "start_time": 43.0022727,
                "end_time": 43.1136364,
                "pitch": 38,
                "velocity": 80,
                "duration": 0.1113636,
                "tempo": 120.0
            },
            {
                "start_time": 43.1136364,
                "end_time": 43.2318182,
                "pitch": 38,
                "velocity": 80,
                "duration": 0.1181818,
                "tempo": 120.0
            },
            {
                "start_time": 43.2318182,
                "end_time": 43.3477273,
                "pitch": 50,
                "velocity": 80,
                "duration": 0.1159091,
                "tempo": 120.0
            },
            {
                "start_time": 43.3477273,
                "end_time": 43.4795455,
                "pitch": 50,
                "velocity": 80,
                "duration": 0.1318182,
                "tempo": 120.0
            },
            {
                "start_time": 43.4818182,
                "end_time": 43.5977273,
                "pitch": 38,
                "velocity": 80,
                "duration": 0.1159091,
                "tempo": 120.0
            },
            {
                "start_time": 43.5977273,
                "end_time": 43.7159091,
                "pitch": 38,
                "velocity": 80,
                "duration": 0.1181818,
                "tempo": 120.0
            },
            {
                "start_time": 43.7159091,
                "end_time": 43.8318182,
                "pitch": 50,
                "velocity": 80,
                "duration": 0.1159091,
                "tempo": 120.0
            },
            {
                "start_time": 43.8340909,
                "end_time": 43.9545455,
                "pitch": 50,
                "velocity": 80,
                "duration": 0.1204545,
                "tempo": 120.0
            },
            {
                "start_time": 43.9545455,
                "end_time": 44.0909091,
                "pitch": 38,
                "velocity": 80,
                "duration": 0.1363636,
                "tempo": 120.0
            },
            {
                "start_time": 44.0909091,
                "end_time": 44.2113636,
                "pitch": 38,
                "velocity": 80,
                "duration": 0.1204545,
                "tempo": 120.0
            },
            {
                "start_time": 44.2113636,
                "end_time": 44.3272727,
                "pitch": 50,
                "velocity": 80,
                "duration": 0.1159091,
                "tempo": 120.0
            },
            {
                "start_time": 44.3272727,
                "end_time": 44.4454545,
                "pitch": 50,
                "velocity": 80,
                "duration": 0.1181818,
                "tempo": 120.0
            },
            {
                "start_time": 44.4454545,
                "end_time": 44.5613636,
                "pitch": 38,
                "velocity": 80,
                "duration": 0.1159091,
                "tempo": 120.0
            },
            {
                "start_time": 44.5613636,
                "end_time": 44.6931818,
                "pitch": 38,
                "velocity": 80,
                "duration": 0.1318182,
                "tempo": 120.0
            },
            {
                "start_time": 44.6931818,
                "end_time": 44.8113636,
                "pitch": 50,
                "velocity": 80,
                "duration": 0.1181818,
                "tempo": 120.0
            },
            {
                "start_time": 44.8113636,
                "end_time": 44.9295455,
                "pitch": 50,
                "velocity": 80,
                "duration": 0.1181818,
                "tempo": 120.0
            },
            {
                "start_time": 44.9295455,
                "end_time": 45.0454545,
                "pitch": 38,
                "velocity": 80,
                "duration": 0.1159091,
                "tempo": 120.0
            },
            {
                "start_time": 45.0454545,
                "end_time": 45.1659091,
                "pitch": 38,
                "velocity": 80,
                "duration": 0.1204545,
                "tempo": 120.0
            },
            {
                "start_time": 45.1659091,
                "end_time": 45.2954545,
                "pitch": 50,
                "velocity": 80,
                "duration": 0.1295455,
                "tempo": 120.0
            },
            {
                "start_time": 45.2954545,
                "end_time": 45.4113636,
                "pitch": 50,
                "velocity": 80,
                "duration": 0.1159091,
                "tempo": 120.0
            },
            {
                "start_time": 45.4113636,
                "end_time": 45.5272727,
                "pitch": 38,
                "velocity": 80,
                "duration": 0.1159091,
                "tempo": 120.0
            },
            {
                "start_time": 45.5272727,
                "end_time": 45.6431818,
                "pitch": 38,
                "velocity": 80,
                "duration": 0.1159091,
                "tempo": 120.0
            },
            {
                "start_time": 45.6431818,
                "end_time": 45.7568182,
                "pitch": 50,
                "velocity": 80,
                "duration": 0.1136364,
                "tempo": 120.0
            },
            {
                "start_time": 45.7568182,
                "end_time": 45.8931818,
                "pitch": 50,
                "velocity": 80,
                "duration": 0.1363636,
                "tempo": 120.0
            },
            {
                "start_time": 45.8931818,
                "end_time": 46.0090909,
                "pitch": 38,
                "velocity": 80,
                "duration": 0.1159091,
                "tempo": 120.0
            },
            {
                "start_time": 46.0090909,
                "end_time": 46.1272727,
                "pitch": 38,
                "velocity": 80,
                "duration": 0.1181818,
                "tempo": 120.0
            },
            {
                "start_time": 46.1272727,
                "end_time": 46.2454545,
                "pitch": 50,
                "velocity": 80,
                "duration": 0.1181818,
                "tempo": 120.0
            },
            {
                "start_time": 46.2454545,
                "end_time": 46.3659091,
                "pitch": 50,
                "velocity": 80,
                "duration": 0.1204545,
                "tempo": 120.0
            },
            {
                "start_time": 46.3659091,
                "end_time": 46.5022727,
                "pitch": 34,
                "velocity": 80,
                "duration": 0.1363636,
                "tempo": 120.0
            },
            {
                "start_time": 46.5022727,
                "end_time": 46.6204545,
                "pitch": 34,
                "velocity": 80,
                "duration": 0.1181818,
                "tempo": 120.0
            },
            {
                "start_time": 46.6204545,
                "end_time": 46.7386364,
                "pitch": 46,
                "velocity": 80,
                "duration": 0.1181818,
                "tempo": 120.0
            },
            {
                "start_time": 46.7386364,
                "end_time": 46.8568182,
                "pitch": 46,
                "velocity": 80,
                "duration": 0.1181818,
                "tempo": 120.0
            },
            {
                "start_time": 46.8568182,
                "end_time": 46.9727273,
                "pitch": 34,
                "velocity": 80,
                "duration": 0.1159091,
                "tempo": 120.0
            },
            {
                "start_time": 46.9727273,
                "end_time": 47.1090909,
                "pitch": 34,
                "velocity": 80,
                "duration": 0.1363636,
                "tempo": 120.0
            },
            {
                "start_time": 47.1090909,
                "end_time": 47.2272727,
                "pitch": 46,
                "velocity": 80,
                "duration": 0.1181818,
                "tempo": 120.0
            },
            {
                "start_time": 47.2295455,
                "end_time": 47.3477273,
                "pitch": 46,
                "velocity": 80,
                "duration": 0.1181818,
                "tempo": 120.0
            },
            {
                "start_time": 47.3477273,
                "end_time": 47.4681818,
                "pitch": 36,
                "velocity": 80,
                "duration": 0.1204545,
                "tempo": 120.0
            },
            {
                "start_time": 47.4681818,
                "end_time": 47.5886364,
                "pitch": 36,
                "velocity": 80,
                "duration": 0.1204545,
                "tempo": 120.0
            },
            {
                "start_time": 47.5886364,
                "end_time": 47.7181818,
                "pitch": 48,
                "velocity": 80,
                "duration": 0.1295455,
                "tempo": 120.0
            },
            {
                "start_time": 47.7204545,
                "end_time": 47.8340909,
                "pitch": 48,
                "velocity": 80,
                "duration": 0.1136364,
                "tempo": 120.0
            },
            {
                "start_time": 47.8363636,
                "end_time": 47.95,
                "pitch": 36,
                "velocity": 80,
                "duration": 0.1136364,
                "tempo": 120.0
            },
            {
                "start_time": 47.95,
                "end_time": 48.0659091,
                "pitch": 36,
                "velocity": 80,
                "duration": 0.1159091,
                "tempo": 120.0
            },
            {
                "start_time": 48.0659091,
                "end_time": 48.1840909,
                "pitch": 48,
                "velocity": 80,
                "duration": 0.1181818,
                "tempo": 120.0
            },
            {
                "start_time": 48.1840909,
                "end_time": 48.3227273,
                "pitch": 48,
                "velocity": 80,
                "duration": 0.1386364,
                "tempo": 120.0
            },
            {
                "start_time": 48.3227273,
                "end_time": 48.4386364,
                "pitch": 39,
                "velocity": 80,
                "duration": 0.1159091,
                "tempo": 120.0
            },
            {
                "start_time": 48.4409091,
                "end_time": 48.5590909,
                "pitch": 39,
                "velocity": 80,
                "duration": 0.1181818,
                "tempo": 120.0
            },
            {
                "start_time": 48.5590909,
                "end_time": 48.675,
                "pitch": 51,
                "velocity": 80,
                "duration": 0.1159091,
                "tempo": 120.0
            },
            {
                "start_time": 48.675,
                "end_time": 48.7909091,
                "pitch": 51,
                "velocity": 80,
                "duration": 0.1159091,
                "tempo": 120.0
            },
            {
                "start_time": 48.7909091,
                "end_time": 48.9204545,
                "pitch": 39,
                "velocity": 80,
                "duration": 0.1295455,
                "tempo": 120.0
            },
            {
                "start_time": 48.9204545,
                "end_time": 49.0363636,
                "pitch": 39,
                "velocity": 80,
                "duration": 0.1159091,
                "tempo": 120.0
            },
            {
                "start_time": 49.0363636,
                "end_time": 49.1522727,
                "pitch": 51,
                "velocity": 80,
                "duration": 0.1159091,
                "tempo": 120.0
            },
            {
                "start_time": 49.1545455,
                "end_time": 49.2704545,
                "pitch": 51,
                "velocity": 80,
                "duration": 0.1159091,
                "tempo": 120.0
            },
            {
                "start_time": 49.2704545,
                "end_time": 49.3886364,
                "pitch": 39,
                "velocity": 80,
                "duration": 0.1181818,
                "tempo": 120.0
            },
            {
                "start_time": 49.3886364,
                "end_time": 49.525,
                "pitch": 39,
                "velocity": 80,
                "duration": 0.1363636,
                "tempo": 120.0
            },
            {
                "start_time": 49.525,
                "end_time": 49.6409091,
                "pitch": 51,
                "velocity": 80,
                "duration": 0.1159091,
                "tempo": 120.0
            },
            {
                "start_time": 49.6431818,
                "end_time": 49.7636364,
                "pitch": 51,
                "velocity": 80,
                "duration": 0.1204545,
                "tempo": 120.0
            },
            {
                "start_time": 49.7636364,
                "end_time": 49.8818182,
                "pitch": 39,
                "velocity": 80,
                "duration": 0.1181818,
                "tempo": 120.0
            },
            {
                "start_time": 49.8818182,
                "end_time": 50.0045455,
                "pitch": 39,
                "velocity": 80,
                "duration": 0.1227273,
                "tempo": 120.0
            },
            {
                "start_time": 50.0045455,
                "end_time": 50.1340909,
                "pitch": 51,
                "velocity": 80,
                "duration": 0.1295455,
                "tempo": 120.0
            },
            {
                "start_time": 50.1340909,
                "end_time": 50.25,
                "pitch": 51,
                "velocity": 80,
                "duration": 0.1159091,
                "tempo": 120.0
            },
            {
                "start_time": 50.25,
                "end_time": 50.3636364,
                "pitch": 39,
                "velocity": 80,
                "duration": 0.1136364,
                "tempo": 120.0
            },
            {
                "start_time": 50.3636364,
                "end_time": 50.4795455,
                "pitch": 39,
                "velocity": 80,
                "duration": 0.1159091,
                "tempo": 120.0
            },
            {
                "start_time": 50.4795455,
                "end_time": 50.5954545,
                "pitch": 51,
                "velocity": 80,
                "duration": 0.1159091,
                "tempo": 120.0
            },
            {
                "start_time": 50.5954545,
                "end_time": 50.7295455,
                "pitch": 51,
                "velocity": 80,
                "duration": 0.1340909,
                "tempo": 120.0
            },
            {
                "start_time": 50.7295455,
                "end_time": 50.8454545,
                "pitch": 39,
                "velocity": 80,
                "duration": 0.1159091,
                "tempo": 120.0
            },
            {
                "start_time": 50.8454545,
                "end_time": 50.9636364,
                "pitch": 39,
                "velocity": 80,
                "duration": 0.1181818,
                "tempo": 120.0
            },
            {
                "start_time": 50.9636364,
                "end_time": 51.0818182,
                "pitch": 51,
                "velocity": 80,
                "duration": 0.1181818,
                "tempo": 120.0
            },
            {
                "start_time": 51.0818182,
                "end_time": 51.2022727,
                "pitch": 51,
                "velocity": 80,
                "duration": 0.1204545,
                "tempo": 120.0
            },
            {
                "start_time": 51.2022727,
                "end_time": 51.3386364,
                "pitch": 39,
                "velocity": 80,
                "duration": 0.1363636,
                "tempo": 120.0
            },
            {
                "start_time": 51.3386364,
                "end_time": 51.4590909,
                "pitch": 39,
                "velocity": 80,
                "duration": 0.1204545,
                "tempo": 120.0
            },
            {
                "start_time": 51.4590909,
                "end_time": 51.575,
                "pitch": 51,
                "velocity": 80,
                "duration": 0.1159091,
                "tempo": 120.0
            },
            {
                "start_time": 51.575,
                "end_time": 51.6931818,
                "pitch": 51,
                "velocity": 80,
                "duration": 0.1181818,
                "tempo": 120.0
            },
            {
                "start_time": 51.6931818,
                "end_time": 51.8090909,
                "pitch": 39,
                "velocity": 80,
                "duration": 0.1159091,
                "tempo": 120.0
            },
            {
                "start_time": 51.8090909,
                "end_time": 51.9431818,
                "pitch": 39,
                "velocity": 80,
                "duration": 0.1340909,
                "tempo": 120.0
            },
            {
                "start_time": 51.9431818,
                "end_time": 52.0613636,
                "pitch": 51,
                "velocity": 80,
                "duration": 0.1181818,
                "tempo": 120.0
            },
            {
                "start_time": 52.0613636,
                "end_time": 52.1795455,
                "pitch": 51,
                "velocity": 80,
                "duration": 0.1181818,
                "tempo": 120.0
            },
            {
                "start_time": 52.1795455,
                "end_time": 52.2954545,
                "pitch": 39,
                "velocity": 80,
                "duration": 0.1159091,
                "tempo": 120.0
            },
            {
                "start_time": 52.2954545,
                "end_time": 52.4136364,
                "pitch": 39,
                "velocity": 80,
                "duration": 0.1181818,
                "tempo": 120.0
            },
            {
                "start_time": 52.4136364,
                "end_time": 52.5454545,
                "pitch": 51,
                "velocity": 80,
                "duration": 0.1318182,
                "tempo": 120.0
            },
            {
                "start_time": 52.5454545,
                "end_time": 52.6613636,
                "pitch": 51,
                "velocity": 80,
                "duration": 0.1159091,
                "tempo": 120.0
            },
            {
                "start_time": 52.6613636,
                "end_time": 52.7727273,
                "pitch": 39,
                "velocity": 80,
                "duration": 0.1113636,
                "tempo": 120.0
            },
            {
                "start_time": 52.7727273,
                "end_time": 52.8909091,
                "pitch": 39,
                "velocity": 80,
                "duration": 0.1181818,
                "tempo": 120.0
            },
            {
                "start_time": 52.8909091,
                "end_time": 53.0068182,
                "pitch": 51,
                "velocity": 80,
                "duration": 0.1159091,
                "tempo": 120.0
            },
            {
                "start_time": 53.0068182,
                "end_time": 53.1386364,
                "pitch": 51,
                "velocity": 80,
                "duration": 0.1318182,
                "tempo": 120.0
            },
            {
                "start_time": 53.1409091,
                "end_time": 53.2568182,
                "pitch": 39,
                "velocity": 80,
                "duration": 0.1159091,
                "tempo": 120.0
            },
            {
                "start_time": 53.2568182,
                "end_time": 53.375,
                "pitch": 39,
                "velocity": 80,
                "duration": 0.1181818,
                "tempo": 120.0
            },
            {
                "start_time": 53.375,
                "end_time": 53.4909091,
                "pitch": 51,
                "velocity": 80,
                "duration": 0.1159091,
                "tempo": 120.0
            },
            {
                "start_time": 53.4931818,
                "end_time": 53.6136364,
                "pitch": 51,
                "velocity": 80,
                "duration": 0.1204545,
                "tempo": 120.0
            },
            {
                "start_time": 53.6136364,
                "end_time": 53.75,
                "pitch": 39,
                "velocity": 80,
                "duration": 0.1363636,
                "tempo": 120.0
            },
            {
                "start_time": 53.75,
                "end_time": 53.8704545,
                "pitch": 39,
                "velocity": 80,
                "duration": 0.1204545,
                "tempo": 120.0
            },
            {
                "start_time": 53.8704545,
                "end_time": 53.9863636,
                "pitch": 51,
                "velocity": 80,
                "duration": 0.1159091,
                "tempo": 120.0
            },
            {
                "start_time": 53.9863636,
                "end_time": 54.1068182,
                "pitch": 51,
                "velocity": 80,
                "duration": 0.1204545,
                "tempo": 120.0
            },
            {
                "start_time": 54.1068182,
                "end_time": 54.2227273,
                "pitch": 35,
                "velocity": 80,
                "duration": 0.1159091,
                "tempo": 120.0
            },
            {
                "start_time": 54.2227273,
                "end_time": 54.3568182,
                "pitch": 35,
                "velocity": 80,
                "duration": 0.1340909,
                "tempo": 120.0
            },
            {
                "start_time": 54.3568182,
                "end_time": 54.4727273,
                "pitch": 47,
                "velocity": 80,
                "duration": 0.1159091,
                "tempo": 120.0
            },
            {
                "start_time": 54.4727273,
                "end_time": 54.5909091,
                "pitch": 47,
                "velocity": 80,
                "duration": 0.1181818,
                "tempo": 120.0
            },
            {
                "start_time": 54.5909091,
                "end_time": 54.7068182,
                "pitch": 35,
                "velocity": 80,
                "duration": 0.1159091,
                "tempo": 120.0
            },
            {
                "start_time": 54.7068182,
                "end_time": 54.825,
                "pitch": 35,
                "velocity": 80,
                "duration": 0.1181818,
                "tempo": 120.0
            },
            {
                "start_time": 54.825,
                "end_time": 54.9545455,
                "pitch": 47,
                "velocity": 80,
                "duration": 0.1295455,
                "tempo": 120.0
            },
            {
                "start_time": 54.9545455,
                "end_time": 55.0704545,
                "pitch": 47,
                "velocity": 80,
                "duration": 0.1159091,
                "tempo": 120.0
            },
            {
                "start_time": 55.0704545,
                "end_time": 55.1863636,
                "pitch": 37,
                "velocity": 80,
                "duration": 0.1159091,
                "tempo": 120.0
            },
            {
                "start_time": 55.1863636,
                "end_time": 55.3022727,
                "pitch": 37,
                "velocity": 80,
                "duration": 0.1159091,
                "tempo": 120.0
            },
            {
                "start_time": 55.3022727,
                "end_time": 55.4204545,
                "pitch": 49,
                "velocity": 80,
                "duration": 0.1181818,
                "tempo": 120.0
            },
            {
                "start_time": 55.4204545,
                "end_time": 55.5568182,
                "pitch": 49,
                "velocity": 80,
                "duration": 0.1363636,
                "tempo": 120.0
            },
            {
                "start_time": 55.5590909,
                "end_time": 55.6772727,
                "pitch": 37,
                "velocity": 80,
                "duration": 0.1181818,
                "tempo": 120.0
            },
            {
                "start_time": 55.6772727,
                "end_time": 55.7977273,
                "pitch": 37,
                "velocity": 80,
                "duration": 0.1204545,
                "tempo": 120.0
            },
            {
                "start_time": 55.7977273,
                "end_time": 55.9181818,
                "pitch": 49,
                "velocity": 80,
                "duration": 0.1204545,
                "tempo": 120.0
            },
            {
                "start_time": 55.9181818,
                "end_time": 56.0363636,
                "pitch": 49,
                "velocity": 80,
                "duration": 0.1181818,
                "tempo": 120.0
            },
            {
                "start_time": 56.0363636,
                "end_time": 56.1727273,
                "pitch": 39,
                "velocity": 80,
                "duration": 0.1363636,
                "tempo": 120.0
            },
            {
                "start_time": 56.1727273,
                "end_time": 56.2909091,
                "pitch": 39,
                "velocity": 80,
                "duration": 0.1181818,
                "tempo": 120.0
            },
            {
                "start_time": 56.2909091,
                "end_time": 56.4068182,
                "pitch": 51,
                "velocity": 80,
                "duration": 0.1159091,
                "tempo": 120.0
            },
            {
                "start_time": 56.4068182,
                "end_time": 56.5227273,
                "pitch": 51,
                "velocity": 80,
                "duration": 0.1159091,
                "tempo": 120.0
            },
            {
                "start_time": 56.5227273,
                "end_time": 56.6363636,
                "pitch": 39,
                "velocity": 80,
                "duration": 0.1136364,
                "tempo": 120.0
            },
            {
                "start_time": 56.6363636,
                "end_time": 56.7681818,
                "pitch": 39,
                "velocity": 80,
                "duration": 0.1318182,
                "tempo": 120.0
            },
            {
                "start_time": 56.7681818,
                "end_time": 56.8863636,
                "pitch": 51,
                "velocity": 80,
                "duration": 0.1181818,
                "tempo": 120.0
            },
            {
                "start_time": 56.8886364,
                "end_time": 57.0068182,
                "pitch": 51,
                "velocity": 80,
                "duration": 0.1181818,
                "tempo": 120.0
            },
            {
                "start_time": 57.0068182,
                "end_time": 57.1272727,
                "pitch": 39,
                "velocity": 80,
                "duration": 0.1204545,
                "tempo": 120.0
            },
            {
                "start_time": 57.1272727,
                "end_time": 57.2477273,
                "pitch": 39,
                "velocity": 80,
                "duration": 0.1204545,
                "tempo": 120.0
            },
            {
                "start_time": 57.2477273,
                "end_time": 57.3772727,
                "pitch": 51,
                "velocity": 80,
                "duration": 0.1295455,
                "tempo": 120.0
            },
            {
                "start_time": 57.3772727,
                "end_time": 57.4931818,
                "pitch": 51,
                "velocity": 80,
                "duration": 0.1159091,
                "tempo": 120.0
            },
            {
                "start_time": 57.4931818,
                "end_time": 57.6090909,
                "pitch": 39,
                "velocity": 80,
                "duration": 0.1159091,
                "tempo": 120.0
            },
            {
                "start_time": 57.6090909,
                "end_time": 57.725,
                "pitch": 39,
                "velocity": 80,
                "duration": 0.1159091,
                "tempo": 120.0
            },
            {
                "start_time": 57.725,
                "end_time": 57.8409091,
                "pitch": 51,
                "velocity": 80,
                "duration": 0.1159091,
                "tempo": 120.0
            },
            {
                "start_time": 57.8409091,
                "end_time": 57.975,
                "pitch": 51,
                "velocity": 80,
                "duration": 0.1340909,
                "tempo": 120.0
            },
            {
                "start_time": 57.975,
                "end_time": 58.0909091,
                "pitch": 39,
                "velocity": 80,
                "duration": 0.1159091,
                "tempo": 120.0
            },
            {
                "start_time": 58.0909091,
                "end_time": 58.2068182,
                "pitch": 39,
                "velocity": 80,
                "duration": 0.1159091,
                "tempo": 120.0
            },
            {
                "start_time": 58.2068182,
                "end_time": 58.3227273,
                "pitch": 51,
                "velocity": 80,
                "duration": 0.1159091,
                "tempo": 120.0
            },
            {
                "start_time": 58.325,
                "end_time": 58.4409091,
                "pitch": 51,
                "velocity": 80,
                "duration": 0.1159091,
                "tempo": 120.0
            },
            {
                "start_time": 58.4409091,
                "end_time": 58.5727273,
                "pitch": 39,
                "velocity": 80,
                "duration": 0.1318182,
                "tempo": 120.0
            },
            {
                "start_time": 58.5727273,
                "end_time": 58.6909091,
                "pitch": 39,
                "velocity": 80,
                "duration": 0.1181818,
                "tempo": 120.0
            },
            {
                "start_time": 58.6931818,
                "end_time": 58.8113636,
                "pitch": 51,
                "velocity": 80,
                "duration": 0.1181818,
                "tempo": 120.0
            },
            {
                "start_time": 58.8113636,
                "end_time": 58.9295455,
                "pitch": 51,
                "velocity": 80,
                "duration": 0.1181818,
                "tempo": 120.0
            },
            {
                "start_time": 58.9295455,
                "end_time": 59.05,
                "pitch": 39,
                "velocity": 80,
                "duration": 0.1204545,
                "tempo": 120.0
            },
            {
                "start_time": 59.05,
                "end_time": 59.1886364,
                "pitch": 39,
                "velocity": 80,
                "duration": 0.1386364,
                "tempo": 120.0
            },
            {
                "start_time": 59.1886364,
                "end_time": 59.3022727,
                "pitch": 51,
                "velocity": 80,
                "duration": 0.1136364,
                "tempo": 120.0
            },
            {
                "start_time": 59.3045455,
                "end_time": 59.4227273,
                "pitch": 51,
                "velocity": 80,
                "duration": 0.1181818,
                "tempo": 120.0
            },
            {
                "start_time": 59.4227273,
                "end_time": 59.5386364,
                "pitch": 39,
                "velocity": 80,
                "duration": 0.1159091,
                "tempo": 120.0
            },
            {
                "start_time": 59.5409091,
                "end_time": 59.6590909,
                "pitch": 39,
                "velocity": 80,
                "duration": 0.1181818,
                "tempo": 120.0
            },
            {
                "start_time": 59.6590909,
                "end_time": 59.7886364,
                "pitch": 51,
                "velocity": 80,
                "duration": 0.1295455,
                "tempo": 120.0
            },
            {
                "start_time": 59.7886364,
                "end_time": 59.9045455,
                "pitch": 51,
                "velocity": 80,
                "duration": 0.1159091,
                "tempo": 120.0
            },
            {
                "start_time": 59.9045455,
                "end_time": 60.0181818,
                "pitch": 39,
                "velocity": 80,
                "duration": 0.1136364,
                "tempo": 120.0
            },
            {
                "start_time": 60.0204545,
                "end_time": 60.1340909,
                "pitch": 39,
                "velocity": 80,
                "duration": 0.1136364,
                "tempo": 120.0
            },
            {
                "start_time": 60.1340909,
                "end_time": 60.25,
                "pitch": 51,
                "velocity": 80,
                "duration": 0.1159091,
                "tempo": 120.0
            },
            {
                "start_time": 60.25,
                "end_time": 60.3840909,
                "pitch": 51,
                "velocity": 80,
                "duration": 0.1340909,
                "tempo": 120.0
            },
            {
                "start_time": 60.3863636,
                "end_time": 60.5,
                "pitch": 39,
                "velocity": 80,
                "duration": 0.1136364,
                "tempo": 120.0
            },
            {
                "start_time": 60.5,
                "end_time": 60.6181818,
                "pitch": 39,
                "velocity": 80,
                "duration": 0.1181818,
                "tempo": 120.0
            },
            {
                "start_time": 60.6181818,
                "end_time": 60.7363636,
                "pitch": 51,
                "velocity": 80,
                "duration": 0.1181818,
                "tempo": 120.0
            },
            {
                "start_time": 60.7386364,
                "end_time": 60.8568182,
                "pitch": 51,
                "velocity": 80,
                "duration": 0.1181818,
                "tempo": 120.0
            },
            {
                "start_time": 60.8568182,
                "end_time": 60.9931818,
                "pitch": 39,
                "velocity": 80,
                "duration": 0.1363636,
                "tempo": 120.0
            },
            {
                "start_time": 60.9931818,
                "end_time": 61.1136364,
                "pitch": 39,
                "velocity": 80,
                "duration": 0.1204545,
                "tempo": 120.0
            },
            {
                "start_time": 61.1159091,
                "end_time": 61.2295455,
                "pitch": 51,
                "velocity": 80,
                "duration": 0.1136364,
                "tempo": 120.0
            },
            {
                "start_time": 61.2295455,
                "end_time": 61.3477273,
                "pitch": 51,
                "velocity": 80,
                "duration": 0.1181818,
                "tempo": 120.0
            },
            {
                "start_time": 61.3477273,
                "end_time": 61.4636364,
                "pitch": 39,
                "velocity": 80,
                "duration": 0.1159091,
                "tempo": 120.0
            },
            {
                "start_time": 61.4636364,
                "end_time": 61.6,
                "pitch": 39,
                "velocity": 80,
                "duration": 0.1363636,
                "tempo": 120.0
            },
            {
                "start_time": 61.6,
                "end_time": 61.7181818,
                "pitch": 51,
                "velocity": 80,
                "duration": 0.1181818,
                "tempo": 120.0
            },
            {
                "start_time": 61.7181818,
                "end_time": 61.8386364,
                "pitch": 51,
                "velocity": 80,
                "duration": 0.1204545,
                "tempo": 120.0
            },
            {
                "start_time": 61.8386364,
                "end_time": 61.9568182,
                "pitch": 35,
                "velocity": 80,
                "duration": 0.1181818,
                "tempo": 120.0
            },
            {
                "start_time": 61.9568182,
                "end_time": 62.075,
                "pitch": 35,
                "velocity": 80,
                "duration": 0.1181818,
                "tempo": 120.0
            },
            {
                "start_time": 62.0772727,
                "end_time": 62.2045455,
                "pitch": 47,
                "velocity": 80,
                "duration": 0.1272727,
                "tempo": 120.0
            },
            {
                "start_time": 62.2045455,
                "end_time": 62.3181818,
                "pitch": 47,
                "velocity": 80,
                "duration": 0.1136364,
                "tempo": 120.0
            },
            {
                "start_time": 62.3181818,
                "end_time": 62.4272727,
                "pitch": 35,
                "velocity": 80,
                "duration": 0.1090909,
                "tempo": 120.0
            },
            {
                "start_time": 62.4272727,
                "end_time": 62.5431818,
                "pitch": 35,
                "velocity": 80,
                "duration": 0.1159091,
                "tempo": 120.0
            },
            {
                "start_time": 62.5431818,
                "end_time": 62.6613636,
                "pitch": 47,
                "velocity": 80,
                "duration": 0.1181818,
                "tempo": 120.0
            },
            {
                "start_time": 62.6613636,
                "end_time": 62.7977273,
                "pitch": 47,
                "velocity": 80,
                "duration": 0.1363636,
                "tempo": 120.0
            },
            {
                "start_time": 62.7977273,
                "end_time": 62.9181818,
                "pitch": 37,
                "velocity": 80,
                "duration": 0.1204545,
                "tempo": 120.0
            },
            {
                "start_time": 62.9181818,
                "end_time": 63.0386364,
                "pitch": 37,
                "velocity": 80,
                "duration": 0.1204545,
                "tempo": 120.0
            },
            {
                "start_time": 63.0386364,
                "end_time": 63.1568182,
                "pitch": 49,
                "velocity": 80,
                "duration": 0.1181818,
                "tempo": 120.0
            },
            {
                "start_time": 63.1568182,
                "end_time": 63.2772727,
                "pitch": 49,
                "velocity": 80,
                "duration": 0.1204545,
                "tempo": 120.0
            },
            {
                "start_time": 63.2772727,
                "end_time": 63.4136364,
                "pitch": 37,
                "velocity": 80,
                "duration": 0.1363636,
                "tempo": 120.0
            },
            {
                "start_time": 63.4136364,
                "end_time": 63.5340909,
                "pitch": 37,
                "velocity": 80,
                "duration": 0.1204545,
                "tempo": 120.0
            },
            {
                "start_time": 63.5340909,
                "end_time": 63.6522727,
                "pitch": 49,
                "velocity": 80,
                "duration": 0.1181818,
                "tempo": 120.0
            },
            {
                "start_time": 63.6522727,
                "end_time": 63.7704545,
                "pitch": 49,
                "velocity": 80,
                "duration": 0.1181818,
                "tempo": 120.0
            },
            {
                "start_time": 63.7704545,
                "end_time": 63.8863636,
                "pitch": 40,
                "velocity": 80,
                "duration": 0.1159091,
                "tempo": 120.0
            },
            {
                "start_time": 63.8863636,
                "end_time": 64.0204545,
                "pitch": 40,
                "velocity": 80,
                "duration": 0.1340909,
                "tempo": 120.0
            },
            {
                "start_time": 64.0204545,
                "end_time": 64.1363636,
                "pitch": 52,
                "velocity": 80,
                "duration": 0.1159091,
                "tempo": 120.0
            },
            {
                "start_time": 64.1363636,
                "end_time": 64.2545455,
                "pitch": 52,
                "velocity": 80,
                "duration": 0.1181818,
                "tempo": 120.0
            },
            {
                "start_time": 64.2545455,
                "end_time": 64.3704545,
                "pitch": 40,
                "velocity": 80,
                "duration": 0.1159091,
                "tempo": 120.0
            },
            {
                "start_time": 64.3704545,
                "end_time": 64.4886364,
                "pitch": 40,
                "velocity": 80,
                "duration": 0.1181818,
                "tempo": 120.0
            },
            {
                "start_time": 64.4886364,
                "end_time": 64.6181818,
                "pitch": 52,
                "velocity": 80,
                "duration": 0.1295455,
                "tempo": 120.0
            },
            {
                "start_time": 64.6204545,
                "end_time": 64.7340909,
                "pitch": 52,
                "velocity": 80,
                "duration": 0.1136364,
                "tempo": 120.0
            },
            {
                "start_time": 64.7340909,
                "end_time": 64.85,
                "pitch": 40,
                "velocity": 80,
                "duration": 0.1159091,
                "tempo": 120.0
            },
            {
                "start_time": 64.85,
                "end_time": 64.9659091,
                "pitch": 40,
                "velocity": 80,
                "duration": 0.1159091,
                "tempo": 120.0
            },
            {
                "start_time": 64.9659091,
                "end_time": 65.0818182,
                "pitch": 52,
                "velocity": 80,
                "duration": 0.1159091,
                "tempo": 120.0
            },
            {
                "start_time": 65.0818182,
                "end_time": 65.2181818,
                "pitch": 52,
                "velocity": 80,
                "duration": 0.1363636,
                "tempo": 120.0
            },
            {
                "start_time": 65.2181818,
                "end_time": 65.3340909,
                "pitch": 40,
                "velocity": 80,
                "duration": 0.1159091,
                "tempo": 120.0
            },
            {
                "start_time": 65.3340909,
                "end_time": 65.4545455,
                "pitch": 40,
                "velocity": 80,
                "duration": 0.1204545,
                "tempo": 120.0
            },
            {
                "start_time": 65.4545455,
                "end_time": 65.5704545,
                "pitch": 52,
                "velocity": 80,
                "duration": 0.1159091,
                "tempo": 120.0
            },
            {
                "start_time": 65.5704545,
                "end_time": 65.6886364,
                "pitch": 52,
                "velocity": 80,
                "duration": 0.1181818,
                "tempo": 120.0
            },
            {
                "start_time": 65.6886364,
                "end_time": 65.8227273,
                "pitch": 40,
                "velocity": 80,
                "duration": 0.1340909,
                "tempo": 120.0
            },
            {
                "start_time": 65.8227273,
                "end_time": 65.9386364,
                "pitch": 40,
                "velocity": 80,
                "duration": 0.1159091,
                "tempo": 120.0
            },
            {
                "start_time": 65.9409091,
                "end_time": 66.0590909,
                "pitch": 52,
                "velocity": 80,
                "duration": 0.1181818,
                "tempo": 120.0
            },
            {
                "start_time": 66.0590909,
                "end_time": 66.1795455,
                "pitch": 52,
                "velocity": 80,
                "duration": 0.1204545,
                "tempo": 120.0
            },
            {
                "start_time": 66.1795455,
                "end_time": 66.2977273,
                "pitch": 40,
                "velocity": 80,
                "duration": 0.1181818,
                "tempo": 120.0
            },
            {
                "start_time": 66.2977273,
                "end_time": 66.4363636,
                "pitch": 40,
                "velocity": 80,
                "duration": 0.1386364,
                "tempo": 120.0
            },
            {
                "start_time": 66.4363636,
                "end_time": 66.5522727,
                "pitch": 52,
                "velocity": 80,
                "duration": 0.1159091,
                "tempo": 120.0
            },
            {
                "start_time": 66.5522727,
                "end_time": 66.6704545,
                "pitch": 52,
                "velocity": 80,
                "duration": 0.1181818,
                "tempo": 120.0
            },
            {
                "start_time": 66.6704545,
                "end_time": 66.7886364,
                "pitch": 40,
                "velocity": 80,
                "duration": 0.1181818,
                "tempo": 120.0
            },
            {
                "start_time": 66.7886364,
                "end_time": 66.9068182,
                "pitch": 40,
                "velocity": 80,
                "duration": 0.1181818,
                "tempo": 120.0
            },
            {
                "start_time": 66.9068182,
                "end_time": 67.0363636,
                "pitch": 52,
                "velocity": 80,
                "duration": 0.1295455,
                "tempo": 120.0
            },
            {
                "start_time": 67.0363636,
                "end_time": 67.1545455,
                "pitch": 52,
                "velocity": 80,
                "duration": 0.1181818,
                "tempo": 120.0
            },
            {
                "start_time": 67.1545455,
                "end_time": 67.2681818,
                "pitch": 40,
                "velocity": 80,
                "duration": 0.1136364,
                "tempo": 120.0
            },
            {
                "start_time": 67.2681818,
                "end_time": 67.3840909,
                "pitch": 40,
                "velocity": 80,
                "duration": 0.1159091,
                "tempo": 120.0
            },
            {
                "start_time": 67.3840909,
                "end_time": 67.5,
                "pitch": 52,
                "velocity": 80,
                "duration": 0.1159091,
                "tempo": 120.0
            },
            {
                "start_time": 67.5022727,
                "end_time": 67.6363636,
                "pitch": 52,
                "velocity": 80,
                "duration": 0.1340909,
                "tempo": 120.0
            },
            {
                "start_time": 67.6363636,
                "end_time": 67.7522727,
                "pitch": 40,
                "velocity": 80,
                "duration": 0.1159091,
                "tempo": 120.0
            },
            {
                "start_time": 67.7545455,
                "end_time": 67.8704545,
                "pitch": 40,
                "velocity": 80,
                "duration": 0.1159091,
                "tempo": 120.0
            },
            {
                "start_time": 67.8704545,
                "end_time": 67.9909091,
                "pitch": 52,
                "velocity": 80,
                "duration": 0.1204545,
                "tempo": 120.0
            },
            {
                "start_time": 67.9909091,
                "end_time": 68.1113636,
                "pitch": 52,
                "velocity": 80,
                "duration": 0.1204545,
                "tempo": 120.0
            },
            {
                "start_time": 68.1113636,
                "end_time": 68.2454545,
                "pitch": 40,
                "velocity": 80,
                "duration": 0.1340909,
                "tempo": 120.0
            },
            {
                "start_time": 68.2454545,
                "end_time": 68.3681818,
                "pitch": 40,
                "velocity": 80,
                "duration": 0.1227273,
                "tempo": 120.0
            },
            {
                "start_time": 68.3681818,
                "end_time": 68.4840909,
                "pitch": 52,
                "velocity": 80,
                "duration": 0.1159091,
                "tempo": 120.0
            },
            {
                "start_time": 68.4840909,
                "end_time": 68.6022727,
                "pitch": 52,
                "velocity": 80,
                "duration": 0.1181818,
                "tempo": 120.0
            },
            {
                "start_time": 68.6022727,
                "end_time": 68.7204545,
                "pitch": 40,
                "velocity": 80,
                "duration": 0.1181818,
                "tempo": 120.0
            },
            {
                "start_time": 68.7204545,
                "end_time": 68.8545455,
                "pitch": 40,
                "velocity": 80,
                "duration": 0.1340909,
                "tempo": 120.0
            },
            {
                "start_time": 68.8545455,
                "end_time": 68.9704545,
                "pitch": 52,
                "velocity": 80,
                "duration": 0.1159091,
                "tempo": 120.0
            },
            {
                "start_time": 68.9704545,
                "end_time": 69.0886364,
                "pitch": 52,
                "velocity": 80,
                "duration": 0.1181818,
                "tempo": 120.0
            },
            {
                "start_time": 69.0886364,
                "end_time": 69.2045455,
                "pitch": 40,
                "velocity": 80,
                "duration": 0.1159091,
                "tempo": 120.0
            },
            {
                "start_time": 69.2045455,
                "end_time": 69.3227273,
                "pitch": 40,
                "velocity": 80,
                "duration": 0.1181818,
                "tempo": 120.0
            },
            {
                "start_time": 69.3227273,
                "end_time": 69.4522727,
                "pitch": 52,
                "velocity": 80,
                "duration": 0.1295455,
                "tempo": 120.0
            },
            {
                "start_time": 69.4522727,
                "end_time": 69.5681818,
                "pitch": 52,
                "velocity": 80,
                "duration": 0.1159091,
                "tempo": 120.0
            },
            {
                "start_time": 69.5681818,
                "end_time": 69.6840909,
                "pitch": 36,
                "velocity": 80,
                "duration": 0.1159091,
                "tempo": 120.0
            },
            {
                "start_time": 69.6840909,
                "end_time": 69.7977273,
                "pitch": 36,
                "velocity": 80,
                "duration": 0.1136364,
                "tempo": 120.0
            },
            {
                "start_time": 69.7977273,
                "end_time": 69.9159091,
                "pitch": 48,
                "velocity": 80,
                "duration": 0.1181818,
                "tempo": 120.0
            },
            {
                "start_time": 69.9159091,
                "end_time": 70.05,
                "pitch": 48,
                "velocity": 80,
                "duration": 0.1340909,
                "tempo": 120.0
            },
            {
                "start_time": 70.0522727,
                "end_time": 70.1659091,
                "pitch": 36,
                "velocity": 80,
                "duration": 0.1136364,
                "tempo": 120.0
            },
            {
                "start_time": 70.1659091,
                "end_time": 70.2863636,
                "pitch": 36,
                "velocity": 80,
                "duration": 0.1204545,
                "tempo": 120.0
            },
            {
                "start_time": 70.2863636,
                "end_time": 70.4045455,
                "pitch": 48,
                "velocity": 80,
                "duration": 0.1181818,
                "tempo": 120.0
            },
            {
                "start_time": 70.4045455,
                "end_time": 70.525,
                "pitch": 48,
                "velocity": 80,
                "duration": 0.1204545,
                "tempo": 120.0
            },
            {
                "start_time": 70.525,
                "end_time": 70.6636364,
                "pitch": 38,
                "velocity": 80,
                "duration": 0.1386364,
                "tempo": 120.0
            },
            {
                "start_time": 70.6636364,
                "end_time": 70.7818182,
                "pitch": 38,
                "velocity": 80,
                "duration": 0.1181818,
                "tempo": 120.0
            },
            {
                "start_time": 70.7818182,
                "end_time": 70.9022727,
                "pitch": 50,
                "velocity": 80,
                "duration": 0.1204545,
                "tempo": 120.0
            },
            {
                "start_time": 70.9022727,
                "end_time": 71.0227273,
                "pitch": 50,
                "velocity": 80,
                "duration": 0.1204545,
                "tempo": 120.0
            },
            {
                "start_time": 71.0227273,
                "end_time": 71.1409091,
                "pitch": 38,
                "velocity": 80,
                "duration": 0.1181818,
                "tempo": 120.0
            },
            {
                "start_time": 71.1409091,
                "end_time": 71.2795455,
                "pitch": 38,
                "velocity": 80,
                "duration": 0.1386364,
                "tempo": 120.0
            },
            {
                "start_time": 71.2795455,
                "end_time": 71.3977273,
                "pitch": 50,
                "velocity": 80,
                "duration": 0.1181818,
                "tempo": 120.0
            },
            {
                "start_time": 71.3977273,
                "end_time": 71.5136364,
                "pitch": 50,
                "velocity": 80,
                "duration": 0.1159091,
                "tempo": 120.0
            },
            {
                "start_time": 71.5136364,
                "end_time": 71.6295455,
                "pitch": 40,
                "velocity": 80,
                "duration": 0.1159091,
                "tempo": 120.0
            },
            {
                "start_time": 71.6318182,
                "end_time": 71.7477273,
                "pitch": 40,
                "velocity": 80,
                "duration": 0.1159091,
                "tempo": 120.0
            },
            {
                "start_time": 71.7477273,
                "end_time": 71.8772727,
                "pitch": 52,
                "velocity": 80,
                "duration": 0.1295455,
                "tempo": 120.0
            },
            {
                "start_time": 71.8772727,
                "end_time": 71.9886364,
                "pitch": 52,
                "velocity": 80,
                "duration": 0.1113636,
                "tempo": 120.0
            },
            {
                "start_time": 71.9886364,
                "end_time": 72.1,
                "pitch": 40,
                "velocity": 80,
                "duration": 0.1113636,
                "tempo": 120.0
            },
            {
                "start_time": 72.1,
                "end_time": 72.2136364,
                "pitch": 40,
                "velocity": 80,
                "duration": 0.1136364,
                "tempo": 120.0
            },
            {
                "start_time": 72.2136364,
                "end_time": 72.3318182,
                "pitch": 52,
                "velocity": 80,
                "duration": 0.1181818,
                "tempo": 120.0
            },
            {
                "start_time": 72.3340909,
                "end_time": 72.4704545,
                "pitch": 52,
                "velocity": 80,
                "duration": 0.1363636,
                "tempo": 120.0
            },
            {
                "start_time": 72.4704545,
                "end_time": 72.5886364,
                "pitch": 40,
                "velocity": 80,
                "duration": 0.1181818,
                "tempo": 120.0
            },
            {
                "start_time": 72.5886364,
                "end_time": 72.7090909,
                "pitch": 40,
                "velocity": 80,
                "duration": 0.1204545,
                "tempo": 120.0
            },
            {
                "start_time": 72.7113636,
                "end_time": 72.825,
                "pitch": 52,
                "velocity": 80,
                "duration": 0.1136364,
                "tempo": 120.0
            },
            {
                "start_time": 72.825,
                "end_time": 72.9454545,
                "pitch": 52,
                "velocity": 80,
                "duration": 0.1204545,
                "tempo": 120.0
            },
            {
                "start_time": 72.9454545,
                "end_time": 73.0795455,
                "pitch": 40,
                "velocity": 80,
                "duration": 0.1340909,
                "tempo": 120.0
            },
            {
                "start_time": 73.0795455,
                "end_time": 73.1977273,
                "pitch": 40,
                "velocity": 80,
                "duration": 0.1181818,
                "tempo": 120.0
            },
            {
                "start_time": 73.1977273,
                "end_time": 73.3159091,
                "pitch": 52,
                "velocity": 80,
                "duration": 0.1181818,
                "tempo": 120.0
            },
            {
                "start_time": 73.3181818,
                "end_time": 73.4386364,
                "pitch": 52,
                "velocity": 80,
                "duration": 0.1204545,
                "tempo": 120.0
            },
            {
                "start_time": 73.4386364,
                "end_time": 73.5568182,
                "pitch": 40,
                "velocity": 80,
                "duration": 0.1181818,
                "tempo": 120.0
            },
            {
                "start_time": 73.5568182,
                "end_time": 73.6931818,
                "pitch": 40,
                "velocity": 80,
                "duration": 0.1363636,
                "tempo": 120.0
            },
            {
                "start_time": 73.6931818,
                "end_time": 73.8090909,
                "pitch": 52,
                "velocity": 80,
                "duration": 0.1159091,
                "tempo": 120.0
            },
            {
                "start_time": 73.8113636,
                "end_time": 73.9295455,
                "pitch": 52,
                "velocity": 80,
                "duration": 0.1181818,
                "tempo": 120.0
            },
            {
                "start_time": 73.9295455,
                "end_time": 74.0454545,
                "pitch": 40,
                "velocity": 80,
                "duration": 0.1159091,
                "tempo": 120.0
            },
            {
                "start_time": 74.0454545,
                "end_time": 74.1636364,
                "pitch": 40,
                "velocity": 80,
                "duration": 0.1181818,
                "tempo": 120.0
            },
            {
                "start_time": 74.1659091,
                "end_time": 74.2954545,
                "pitch": 52,
                "velocity": 80,
                "duration": 0.1295455,
                "tempo": 120.0
            },
            {
                "start_time": 74.2954545,
                "end_time": 74.4090909,
                "pitch": 52,
                "velocity": 80,
                "duration": 0.1136364,
                "tempo": 120.0
            },
            {
                "start_time": 74.4090909,
                "end_time": 74.525,
                "pitch": 40,
                "velocity": 80,
                "duration": 0.1159091,
                "tempo": 120.0
            },
            {
                "start_time": 74.525,
                "end_time": 74.6409091,
                "pitch": 40,
                "velocity": 80,
                "duration": 0.1159091,
                "tempo": 120.0
            },
            {
                "start_time": 74.6409091,
                "end_time": 74.7568182,
                "pitch": 52,
                "velocity": 80,
                "duration": 0.1159091,
                "tempo": 120.0
            },
            {
                "start_time": 74.7568182,
                "end_time": 74.8931818,
                "pitch": 52,
                "velocity": 80,
                "duration": 0.1363636,
                "tempo": 120.0
            },
            {
                "start_time": 74.8931818,
                "end_time": 75.0090909,
                "pitch": 40,
                "velocity": 80,
                "duration": 0.1159091,
                "tempo": 120.0
            },
            {
                "start_time": 75.0090909,
                "end_time": 75.1295455,
                "pitch": 40,
                "velocity": 80,
                "duration": 0.1204545,
                "tempo": 120.0
            },
            {
                "start_time": 75.1295455,
                "end_time": 75.2477273,
                "pitch": 52,
                "velocity": 80,
                "duration": 0.1181818,
                "tempo": 120.0
            },
            {
                "start_time": 75.2477273,
                "end_time": 75.3681818,
                "pitch": 52,
                "velocity": 80,
                "duration": 0.1204545,
                "tempo": 120.0
            },
            {
                "start_time": 75.3681818,
                "end_time": 75.5045455,
                "pitch": 40,
                "velocity": 80,
                "duration": 0.1363636,
                "tempo": 120.0
            },
            {
                "start_time": 75.5045455,
                "end_time": 75.6227273,
                "pitch": 40,
                "velocity": 80,
                "duration": 0.1181818,
                "tempo": 120.0
            },
            {
                "start_time": 75.6227273,
                "end_time": 75.7409091,
                "pitch": 52,
                "velocity": 80,
                "duration": 0.1181818,
                "tempo": 120.0
            },
            {
                "start_time": 75.7409091,
                "end_time": 75.8590909,
                "pitch": 52,
                "velocity": 80,
                "duration": 0.1181818,
                "tempo": 120.0
            },
            {
                "start_time": 75.8590909,
                "end_time": 75.975,
                "pitch": 40,
                "velocity": 80,
                "duration": 0.1159091,
                "tempo": 120.0
            },
            {
                "start_time": 75.975,
                "end_time": 76.1113636,
                "pitch": 40,
                "velocity": 80,
                "duration": 0.1363636,
                "tempo": 120.0
            },
            {
                "start_time": 76.1136364,
                "end_time": 76.2295455,
                "pitch": 52,
                "velocity": 80,
                "duration": 0.1159091,
                "tempo": 120.0
            },
            {
                "start_time": 76.2295455,
                "end_time": 76.3477273,
                "pitch": 52,
                "velocity": 80,
                "duration": 0.1181818,
                "tempo": 120.0
            },
            {
                "start_time": 76.3477273,
                "end_time": 76.4636364,
                "pitch": 40,
                "velocity": 80,
                "duration": 0.1159091,
                "tempo": 120.0
            },
            {
                "start_time": 76.4636364,
                "end_time": 76.5840909,
                "pitch": 40,
                "velocity": 80,
                "duration": 0.1204545,
                "tempo": 120.0
            },
            {
                "start_time": 76.5840909,
                "end_time": 76.7136364,
                "pitch": 52,
                "velocity": 80,
                "duration": 0.1295455,
                "tempo": 120.0
            },
            {
                "start_time": 76.7136364,
                "end_time": 76.8295455,
                "pitch": 52,
                "velocity": 80,
                "duration": 0.1159091,
                "tempo": 120.0
            },
            {
                "start_time": 76.8295455,
                "end_time": 76.9431818,
                "pitch": 40,
                "velocity": 80,
                "duration": 0.1136364,
                "tempo": 120.0
            },
            {
                "start_time": 76.9431818,
                "end_time": 77.0590909,
                "pitch": 40,
                "velocity": 80,
                "duration": 0.1159091,
                "tempo": 120.0
            },
            {
                "start_time": 77.0613636,
                "end_time": 77.1772727,
                "pitch": 52,
                "velocity": 80,
                "duration": 0.1159091,
                "tempo": 120.0
            },
            {
                "start_time": 77.1772727,
                "end_time": 77.3113636,
                "pitch": 52,
                "velocity": 80,
                "duration": 0.1340909,
                "tempo": 120.0
            },
            {
                "start_time": 77.3136364,
                "end_time": 77.4295455,
                "pitch": 36,
                "velocity": 80,
                "duration": 0.1159091,
                "tempo": 120.0
            },
            {
                "start_time": 77.4295455,
                "end_time": 77.5454545,
                "pitch": 36,
                "velocity": 80,
                "duration": 0.1159091,
                "tempo": 120.0
            },
            {
                "start_time": 77.5477273,
                "end_time": 77.6659091,
                "pitch": 48,
                "velocity": 80,
                "duration": 0.1181818,
                "tempo": 120.0
            },
            {
                "start_time": 77.6659091,
                "end_time": 77.7863636,
                "pitch": 48,
                "velocity": 80,
                "duration": 0.1204545,
                "tempo": 120.0
            },
            {
                "start_time": 77.7863636,
                "end_time": 77.9204545,
                "pitch": 36,
                "velocity": 80,
                "duration": 0.1340909,
                "tempo": 120.0
            },
            {
                "start_time": 77.9227273,
                "end_time": 78.0431818,
                "pitch": 36,
                "velocity": 80,
                "duration": 0.1204545,
                "tempo": 120.0
            },
            {
                "start_time": 78.0431818,
                "end_time": 78.1590909,
                "pitch": 48,
                "velocity": 80,
                "duration": 0.1159091,
                "tempo": 120.0
            },
            {
                "start_time": 78.1590909,
                "end_time": 78.2772727,
                "pitch": 48,
                "velocity": 80,
                "duration": 0.1181818,
                "tempo": 120.0
            },
            {
                "start_time": 78.2772727,
                "end_time": 78.3977273,
                "pitch": 38,
                "velocity": 80,
                "duration": 0.1204545,
                "tempo": 120.0
            },
            {
                "start_time": 78.3977273,
                "end_time": 78.5318182,
                "pitch": 38,
                "velocity": 80,
                "duration": 0.1340909,
                "tempo": 120.0
            },
            {
                "start_time": 78.5318182,
                "end_time": 78.65,
                "pitch": 50,
                "velocity": 80,
                "duration": 0.1181818,
                "tempo": 120.0
            },
            {
                "start_time": 78.65,
                "end_time": 78.7704545,
                "pitch": 50,
                "velocity": 80,
                "duration": 0.1204545,
                "tempo": 120.0
            },
            {
                "start_time": 78.7704545,
                "end_time": 78.8909091,
                "pitch": 38,
                "velocity": 80,
                "duration": 0.1204545,
                "tempo": 120.0
            },
            {
                "start_time": 78.8909091,
                "end_time": 79.0113636,
                "pitch": 38,
                "velocity": 80,
                "duration": 0.1204545,
                "tempo": 120.0
            },
            {
                "start_time": 79.0113636,
                "end_time": 79.1431818,
                "pitch": 50,
                "velocity": 80,
                "duration": 0.1318182,
                "tempo": 120.0
            },
            {
                "start_time": 79.1431818,
                "end_time": 79.2568182,
                "pitch": 50,
                "velocity": 80,
                "duration": 0.1136364,
                "tempo": 120.0
            },
            {
                "start_time": 79.2568182,
                "end_time": 79.3704545,
                "pitch": 41,
                "velocity": 80,
                "duration": 0.1136364,
                "tempo": 120.0
            },
            {
                "start_time": 79.3704545,
                "end_time": 79.4863636,
                "pitch": 41,
                "velocity": 80,
                "duration": 0.1159091,
                "tempo": 120.0
            },
            {
                "start_time": 79.4863636,
                "end_time": 79.6022727,
                "pitch": 53,
                "velocity": 80,
                "duration": 0.1159091,
                "tempo": 120.0
            },
            {
                "start_time": 79.6022727,
                "end_time": 79.7386364,
                "pitch": 53,
                "velocity": 80,
                "duration": 0.1363636,
                "tempo": 120.0
            },
            {
                "start_time": 79.7386364,
                "end_time": 79.8545455,
                "pitch": 41,
                "velocity": 80,
                "duration": 0.1159091,
                "tempo": 120.0
            },
            {
                "start_time": 79.8545455,
                "end_time": 79.975,
                "pitch": 41,
                "velocity": 80,
                "duration": 0.1204545,
                "tempo": 120.0
            },
            {
                "start_time": 79.975,
                "end_time": 80.0909091,
                "pitch": 53,
                "velocity": 80,
                "duration": 0.1159091,
                "tempo": 120.0
            },
            {
                "start_time": 80.0909091,
                "end_time": 80.2090909,
                "pitch": 53,
                "velocity": 80,
                "duration": 0.1181818,
                "tempo": 120.0
            },
            {
                "start_time": 80.2090909,
                "end_time": 80.3431818,
                "pitch": 41,
                "velocity": 80,
                "duration": 0.1340909,
                "tempo": 120.0
            },
            {
                "start_time": 80.3431818,
                "end_time": 80.4613636,
                "pitch": 41,
                "velocity": 80,
                "duration": 0.1181818,
                "tempo": 120.0
            },
            {
                "start_time": 80.4613636,
                "end_time": 80.5795455,
                "pitch": 53,
                "velocity": 80,
                "duration": 0.1181818,
                "tempo": 120.0
            },
            {
                "start_time": 80.5795455,
                "end_time": 80.7,
                "pitch": 53,
                "velocity": 80,
                "duration": 0.1204545,
                "tempo": 120.0
            },
            {
                "start_time": 80.7022727,
                "end_time": 80.8204545,
                "pitch": 41,
                "velocity": 80,
                "duration": 0.1181818,
                "tempo": 120.0
            },
            {
                "start_time": 80.8204545,
                "end_time": 80.9590909,
                "pitch": 41,
                "velocity": 80,
                "duration": 0.1386364,
                "tempo": 120.0
            },
            {
                "start_time": 80.9590909,
                "end_time": 81.075,
                "pitch": 53,
                "velocity": 80,
                "duration": 0.1159091,
                "tempo": 120.0
            },
            {
                "start_time": 81.075,
                "end_time": 81.1931818,
                "pitch": 53,
                "velocity": 80,
                "duration": 0.1181818,
                "tempo": 120.0
            },
            {
                "start_time": 81.1931818,
                "end_time": 81.3113636,
                "pitch": 41,
                "velocity": 80,
                "duration": 0.1181818,
                "tempo": 120.0
            },
            {
                "start_time": 81.3113636,
                "end_time": 81.4272727,
                "pitch": 41,
                "velocity": 80,
                "duration": 0.1159091,
                "tempo": 120.0
            },
            {
                "start_time": 81.4272727,
                "end_time": 81.5590909,
                "pitch": 53,
                "velocity": 80,
                "duration": 0.1318182,
                "tempo": 120.0
            },
            {
                "start_time": 81.5590909,
                "end_time": 81.675,
                "pitch": 53,
                "velocity": 80,
                "duration": 0.1159091,
                "tempo": 120.0
            },
            {
                "start_time": 81.675,
                "end_time": 81.7886364,
                "pitch": 41,
                "velocity": 80,
                "duration": 0.1136364,
                "tempo": 120.0
            },
            {
                "start_time": 81.7886364,
                "end_time": 81.9045455,
                "pitch": 41,
                "velocity": 80,
                "duration": 0.1159091,
                "tempo": 120.0
            },
            {
                "start_time": 81.9045455,
                "end_time": 82.0204545,
                "pitch": 53,
                "velocity": 80,
                "duration": 0.1159091,
                "tempo": 120.0
            },
            {
                "start_time": 82.0204545,
                "end_time": 82.1545455,
                "pitch": 53,
                "velocity": 80,
                "duration": 0.1340909,
                "tempo": 120.0
            },
            {
                "start_time": 82.1545455,
                "end_time": 82.2704545,
                "pitch": 41,
                "velocity": 80,
                "duration": 0.1159091,
                "tempo": 120.0
            },
            {
                "start_time": 82.2704545,
                "end_time": 82.3886364,
                "pitch": 41,
                "velocity": 80,
                "duration": 0.1181818,
                "tempo": 120.0
            },
            {
                "start_time": 82.3886364,
                "end_time": 82.5068182,
                "pitch": 53,
                "velocity": 80,
                "duration": 0.1181818,
                "tempo": 120.0
            },
            {
                "start_time": 82.5068182,
                "end_time": 82.6272727,
                "pitch": 53,
                "velocity": 80,
                "duration": 0.1204545,
                "tempo": 120.0
            },
            {
                "start_time": 82.6272727,
                "end_time": 82.7636364,
                "pitch": 41,
                "velocity": 80,
                "duration": 0.1363636,
                "tempo": 120.0
            },
            {
                "start_time": 82.7636364,
                "end_time": 82.8840909,
                "pitch": 41,
                "velocity": 80,
                "duration": 0.1204545,
                "tempo": 120.0
            },
            {
                "start_time": 82.8863636,
                "end_time": 83.0022727,
                "pitch": 53,
                "velocity": 80,
                "duration": 0.1159091,
                "tempo": 120.0
            },
            {
                "start_time": 83.0022727,
                "end_time": 83.1204545,
                "pitch": 53,
                "velocity": 80,
                "duration": 0.1181818,
                "tempo": 120.0
            },
            {
                "start_time": 83.1204545,
                "end_time": 83.2363636,
                "pitch": 41,
                "velocity": 80,
                "duration": 0.1159091,
                "tempo": 120.0
            },
            {
                "start_time": 83.2363636,
                "end_time": 83.3704545,
                "pitch": 41,
                "velocity": 80,
                "duration": 0.1340909,
                "tempo": 120.0
            },
            {
                "start_time": 83.3704545,
                "end_time": 83.4886364,
                "pitch": 53,
                "velocity": 80,
                "duration": 0.1181818,
                "tempo": 120.0
            },
            {
                "start_time": 83.4886364,
                "end_time": 83.6068182,
                "pitch": 53,
                "velocity": 80,
                "duration": 0.1181818,
                "tempo": 120.0
            },
            {
                "start_time": 83.6068182,
                "end_time": 83.7204545,
                "pitch": 41,
                "velocity": 80,
                "duration": 0.1136364,
                "tempo": 120.0
            },
            {
                "start_time": 83.7204545,
                "end_time": 83.8386364,
                "pitch": 41,
                "velocity": 80,
                "duration": 0.1181818,
                "tempo": 120.0
            },
            {
                "start_time": 83.8409091,
                "end_time": 83.9704545,
                "pitch": 53,
                "velocity": 80,
                "duration": 0.1295455,
                "tempo": 120.0
            },
            {
                "start_time": 83.9704545,
                "end_time": 84.0840909,
                "pitch": 53,
                "velocity": 80,
                "duration": 0.1136364,
                "tempo": 120.0
            },
            {
                "start_time": 84.0840909,
                "end_time": 84.2,
                "pitch": 41,
                "velocity": 80,
                "duration": 0.1159091,
                "tempo": 120.0
            },
            {
                "start_time": 84.2,
                "end_time": 84.3159091,
                "pitch": 41,
                "velocity": 80,
                "duration": 0.1159091,
                "tempo": 120.0
            },
            {
                "start_time": 84.3159091,
                "end_time": 84.4340909,
                "pitch": 53,
                "velocity": 80,
                "duration": 0.1181818,
                "tempo": 120.0
            },
            {
                "start_time": 84.4340909,
                "end_time": 84.5727273,
                "pitch": 53,
                "velocity": 80,
                "duration": 0.1386364,
                "tempo": 120.0
            },
            {
                "start_time": 84.5727273,
                "end_time": 84.6909091,
                "pitch": 41,
                "velocity": 80,
                "duration": 0.1181818,
                "tempo": 120.0
            },
            {
                "start_time": 84.6909091,
                "end_time": 84.8113636,
                "pitch": 41,
                "velocity": 80,
                "duration": 0.1204545,
                "tempo": 120.0
            },
            {
                "start_time": 84.8113636,
                "end_time": 84.9272727,
                "pitch": 53,
                "velocity": 80,
                "duration": 0.1159091,
                "tempo": 120.0
            },
            {
                "start_time": 84.9272727,
                "end_time": 85.0454545,
                "pitch": 53,
                "velocity": 80,
                "duration": 0.1181818,
                "tempo": 120.0
            },
            {
                "start_time": 85.0454545,
                "end_time": 85.1772727,
                "pitch": 37,
                "velocity": 80,
                "duration": 0.1318182,
                "tempo": 120.0
            },
            {
                "start_time": 85.1772727,
                "end_time": 85.2954545,
                "pitch": 37,
                "velocity": 80,
                "duration": 0.1181818,
                "tempo": 120.0
            },
            {
                "start_time": 85.2954545,
                "end_time": 85.4113636,
                "pitch": 49,
                "velocity": 80,
                "duration": 0.1159091,
                "tempo": 120.0
            },
            {
                "start_time": 85.4113636,
                "end_time": 85.5318182,
                "pitch": 49,
                "velocity": 80,
                "duration": 0.1204545,
                "tempo": 120.0
            },
            {
                "start_time": 85.5318182,
                "end_time": 85.6454545,
                "pitch": 37,
                "velocity": 80,
                "duration": 0.1136364,
                "tempo": 120.0
            },
            {
                "start_time": 85.6477273,
                "end_time": 85.7840909,
                "pitch": 37,
                "velocity": 80,
                "duration": 0.1363636,
                "tempo": 120.0
            },
            {
                "start_time": 85.7840909,
                "end_time": 85.9022727,
                "pitch": 49,
                "velocity": 80,
                "duration": 0.1181818,
                "tempo": 120.0
            },
            {
                "start_time": 85.9022727,
                "end_time": 86.0227273,
                "pitch": 49,
                "velocity": 80,
                "duration": 0.1204545,
                "tempo": 120.0
            },
            {
                "start_time": 86.0227273,
                "end_time": 86.1431818,
                "pitch": 39,
                "velocity": 80,
                "duration": 0.1204545,
                "tempo": 120.0
            },
            {
                "start_time": 86.1431818,
                "end_time": 86.2613636,
                "pitch": 39,
                "velocity": 80,
                "duration": 0.1181818,
                "tempo": 120.0
            },
            {
                "start_time": 86.2613636,
                "end_time": 86.3931818,
                "pitch": 51,
                "velocity": 80,
                "duration": 0.1318182,
                "tempo": 120.0
            },
            {
                "start_time": 86.3931818,
                "end_time": 86.5090909,
                "pitch": 51,
                "velocity": 80,
                "duration": 0.1159091,
                "tempo": 120.0
            },
            {
                "start_time": 86.5090909,
                "end_time": 86.6227273,
                "pitch": 39,
                "velocity": 80,
                "duration": 0.1136364,
                "tempo": 120.0
            },
            {
                "start_time": 86.6227273,
                "end_time": 86.7386364,
                "pitch": 39,
                "velocity": 80,
                "duration": 0.1159091,
                "tempo": 120.0
            },
            {
                "start_time": 86.7386364,
                "end_time": 86.8590909,
                "pitch": 51,
                "velocity": 80,
                "duration": 0.1204545,
                "tempo": 120.0
            },
            {
                "start_time": 86.8590909,
                "end_time": 86.9954545,
                "pitch": 51,
                "velocity": 80,
                "duration": 0.1363636,
                "tempo": 120.0
            },
            {
                "start_time": 86.9954545,
                "end_time": 87.1136364,
                "pitch": 41,
                "velocity": 80,
                "duration": 0.1181818,
                "tempo": 120.0
            },
            {
                "start_time": 87.1136364,
                "end_time": 87.2318182,
                "pitch": 41,
                "velocity": 80,
                "duration": 0.1181818,
                "tempo": 120.0
            },
            {
                "start_time": 87.2340909,
                "end_time": 87.3477273,
                "pitch": 53,
                "velocity": 80,
                "duration": 0.1136364,
                "tempo": 120.0
            },
            {
                "start_time": 87.3477273,
                "end_time": 87.4636364,
                "pitch": 53,
                "velocity": 80,
                "duration": 0.1159091,
                "tempo": 120.0
            },
            {
                "start_time": 87.4636364,
                "end_time": 87.5931818,
                "pitch": 41,
                "velocity": 80,
                "duration": 0.1295455,
                "tempo": 120.0
            },
            {
                "start_time": 87.5931818,
                "end_time": 87.7090909,
                "pitch": 41,
                "velocity": 80,
                "duration": 0.1159091,
                "tempo": 120.0
            },
            {
                "start_time": 87.7113636,
                "end_time": 87.8272727,
                "pitch": 53,
                "velocity": 80,
                "duration": 0.1159091,
                "tempo": 120.0
            },
            {
                "start_time": 87.8272727,
                "end_time": 87.9454545,
                "pitch": 53,
                "velocity": 80,
                "duration": 0.1181818,
                "tempo": 120.0
            },
            {
                "start_time": 87.9454545,
                "end_time": 88.0613636,
                "pitch": 41,
                "velocity": 80,
                "duration": 0.1159091,
                "tempo": 120.0
            },
            {
                "start_time": 88.0613636,
                "end_time": 88.1977273,
                "pitch": 41,
                "velocity": 80,
                "duration": 0.1363636,
                "tempo": 120.0
            },
            {
                "start_time": 88.1977273,
                "end_time": 88.3159091,
                "pitch": 53,
                "velocity": 80,
                "duration": 0.1181818,
                "tempo": 120.0
            },
            {
                "start_time": 88.3159091,
                "end_time": 88.4363636,
                "pitch": 53,
                "velocity": 80,
                "duration": 0.1204545,
                "tempo": 120.0
            },
            {
                "start_time": 88.4363636,
                "end_time": 88.5568182,
                "pitch": 41,
                "velocity": 80,
                "duration": 0.1204545,
                "tempo": 120.0
            },
            {
                "start_time": 88.5568182,
                "end_time": 88.6772727,
                "pitch": 41,
                "velocity": 80,
                "duration": 0.1204545,
                "tempo": 120.0
            },
            {
                "start_time": 88.6772727,
                "end_time": 88.8068182,
                "pitch": 53,
                "velocity": 80,
                "duration": 0.1295455,
                "tempo": 120.0
            },
            {
                "start_time": 88.8068182,
                "end_time": 88.9227273,
                "pitch": 53,
                "velocity": 80,
                "duration": 0.1159091,
                "tempo": 120.0
            },
            {
                "start_time": 88.9227273,
                "end_time": 89.0363636,
                "pitch": 41,
                "velocity": 80,
                "duration": 0.1136364,
                "tempo": 120.0
            },
            {
                "start_time": 89.0386364,
                "end_time": 89.1522727,
                "pitch": 41,
                "velocity": 80,
                "duration": 0.1136364,
                "tempo": 120.0
            },
            {
                "start_time": 89.1522727,
                "end_time": 89.2704545,
                "pitch": 53,
                "velocity": 80,
                "duration": 0.1181818,
                "tempo": 120.0
            },
            {
                "start_time": 89.2704545,
                "end_time": 89.4045455,
                "pitch": 53,
                "velocity": 80,
                "duration": 0.1340909,
                "tempo": 120.0
            },
            {
                "start_time": 89.4045455,
                "end_time": 89.5204545,
                "pitch": 41,
                "velocity": 80,
                "duration": 0.1159091,
                "tempo": 120.0
            },
            {
                "start_time": 89.5204545,
                "end_time": 89.6409091,
                "pitch": 41,
                "velocity": 80,
                "duration": 0.1204545,
                "tempo": 120.0
            },
            {
                "start_time": 89.6409091,
                "end_time": 89.7568182,
                "pitch": 53,
                "velocity": 80,
                "duration": 0.1159091,
                "tempo": 120.0
            },
            {
                "start_time": 89.7568182,
                "end_time": 89.875,
                "pitch": 53,
                "velocity": 80,
                "duration": 0.1181818,
                "tempo": 120.0
            },
            {
                "start_time": 89.875,
                "end_time": 90.0090909,
                "pitch": 41,
                "velocity": 80,
                "duration": 0.1340909,
                "tempo": 120.0
            },
            {
                "start_time": 90.0090909,
                "end_time": 90.1295455,
                "pitch": 41,
                "velocity": 80,
                "duration": 0.1204545,
                "tempo": 120.0
            },
            {
                "start_time": 90.1295455,
                "end_time": 90.2454545,
                "pitch": 53,
                "velocity": 80,
                "duration": 0.1159091,
                "tempo": 120.0
            },
            {
                "start_time": 90.2454545,
                "end_time": 90.3681818,
                "pitch": 53,
                "velocity": 80,
                "duration": 0.1227273,
                "tempo": 120.0
            },
            {
                "start_time": 90.3681818,
                "end_time": 90.4863636,
                "pitch": 41,
                "velocity": 80,
                "duration": 0.1181818,
                "tempo": 120.0
            },
            {
                "start_time": 90.4863636,
                "end_time": 90.625,
                "pitch": 41,
                "velocity": 80,
                "duration": 0.1386364,
                "tempo": 120.0
            },
            {
                "start_time": 90.625,
                "end_time": 90.7409091,
                "pitch": 53,
                "velocity": 80,
                "duration": 0.1159091,
                "tempo": 120.0
            },
            {
                "start_time": 90.7409091,
                "end_time": 90.8613636,
                "pitch": 53,
                "velocity": 80,
                "duration": 0.1204545,
                "tempo": 120.0
            },
            {
                "start_time": 90.8613636,
                "end_time": 90.9772727,
                "pitch": 41,
                "velocity": 80,
                "duration": 0.1159091,
                "tempo": 120.0
            },
            {
                "start_time": 90.9772727,
                "end_time": 91.0954545,
                "pitch": 41,
                "velocity": 80,
                "duration": 0.1181818,
                "tempo": 120.0
            },
            {
                "start_time": 91.0954545,
                "end_time": 91.225,
                "pitch": 53,
                "velocity": 80,
                "duration": 0.1295455,
                "tempo": 120.0
            },
            {
                "start_time": 91.225,
                "end_time": 91.3409091,
                "pitch": 53,
                "velocity": 80,
                "duration": 0.1159091,
                "tempo": 120.0
            },
            {
                "start_time": 91.3409091,
                "end_time": 91.4545455,
                "pitch": 41,
                "velocity": 80,
                "duration": 0.1136364,
                "tempo": 120.0
            },
            {
                "start_time": 91.4545455,
                "end_time": 91.5727273,
                "pitch": 41,
                "velocity": 80,
                "duration": 0.1181818,
                "tempo": 120.0
            },
            {
                "start_time": 91.5727273,
                "end_time": 91.6863636,
                "pitch": 53,
                "velocity": 80,
                "duration": 0.1136364,
                "tempo": 120.0
            },
            {
                "start_time": 91.6886364,
                "end_time": 91.8204545,
                "pitch": 53,
                "velocity": 80,
                "duration": 0.1318182,
                "tempo": 120.0
            },
            {
                "start_time": 91.8204545,
                "end_time": 91.9386364,
                "pitch": 41,
                "velocity": 80,
                "duration": 0.1181818,
                "tempo": 120.0
            },
            {
                "start_time": 91.9386364,
                "end_time": 92.0568182,
                "pitch": 41,
                "velocity": 80,
                "duration": 0.1181818,
                "tempo": 120.0
            },
            {
                "start_time": 92.0568182,
                "end_time": 92.1727273,
                "pitch": 53,
                "velocity": 80,
                "duration": 0.1159091,
                "tempo": 120.0
            },
            {
                "start_time": 92.1727273,
                "end_time": 92.2954545,
                "pitch": 53,
                "velocity": 80,
                "duration": 0.1227273,
                "tempo": 120.0
            },
            {
                "start_time": 92.2954545,
                "end_time": 92.4295455,
                "pitch": 41,
                "velocity": 80,
                "duration": 0.1340909,
                "tempo": 120.0
            },
            {
                "start_time": 92.4318182,
                "end_time": 92.5522727,
                "pitch": 41,
                "velocity": 80,
                "duration": 0.1204545,
                "tempo": 120.0
            },
            {
                "start_time": 92.5522727,
                "end_time": 92.6681818,
                "pitch": 53,
                "velocity": 80,
                "duration": 0.1159091,
                "tempo": 120.0
            },
            {
                "start_time": 92.6681818,
                "end_time": 92.7863636,
                "pitch": 53,
                "velocity": 80,
                "duration": 0.1181818,
                "tempo": 120.0
            },
            {
                "start_time": 92.7886364,
                "end_time": 92.9045455,
                "pitch": 37,
                "velocity": 80,
                "duration": 0.1159091,
                "tempo": 120.0
            },
            {
                "start_time": 92.9045455,
                "end_time": 93.0386364,
                "pitch": 37,
                "velocity": 80,
                "duration": 0.1340909,
                "tempo": 120.0
            },
            {
                "start_time": 93.0386364,
                "end_time": 93.1545455,
                "pitch": 49,
                "velocity": 80,
                "duration": 0.1159091,
                "tempo": 120.0
            },
            {
                "start_time": 93.1545455,
                "end_time": 93.2727273,
                "pitch": 49,
                "velocity": 80,
                "duration": 0.1181818,
                "tempo": 120.0
            },
            {
                "start_time": 93.2727273,
                "end_time": 93.3863636,
                "pitch": 37,
                "velocity": 80,
                "duration": 0.1136364,
                "tempo": 120.0
            },
            {
                "start_time": 93.3886364,
                "end_time": 93.5068182,
                "pitch": 37,
                "velocity": 80,
                "duration": 0.1181818,
                "tempo": 120.0
            },
            {
                "start_time": 93.5068182,
                "end_time": 93.6363636,
                "pitch": 49,
                "velocity": 80,
                "duration": 0.1295455,
                "tempo": 120.0
            },
            {
                "start_time": 93.6363636,
                "end_time": 93.7522727,
                "pitch": 49,
                "velocity": 80,
                "duration": 0.1159091,
                "tempo": 120.0
            },
            {
                "start_time": 93.7522727,
                "end_time": 93.8681818,
                "pitch": 39,
                "velocity": 80,
                "duration": 0.1159091,
                "tempo": 120.0
            },
            {
                "start_time": 93.8681818,
                "end_time": 93.9818182,
                "pitch": 39,
                "velocity": 80,
                "duration": 0.1136364,
                "tempo": 120.0
            },
            {
                "start_time": 93.9840909,
                "end_time": 94.1022727,
                "pitch": 51,
                "velocity": 80,
                "duration": 0.1181818,
                "tempo": 120.0
            },
            {
                "start_time": 94.1022727,
                "end_time": 94.2386364,
                "pitch": 51,
                "velocity": 80,
                "duration": 0.1363636,
                "tempo": 120.0
            },
            {
                "start_time": 94.2386364,
                "end_time": 94.3590909,
                "pitch": 39,
                "velocity": 80,
                "duration": 0.1204545,
                "tempo": 120.0
            },
            {
                "start_time": 94.3590909,
                "end_time": 94.4795455,
                "pitch": 39,
                "velocity": 80,
                "duration": 0.1204545,
                "tempo": 120.0
            },
            {
                "start_time": 94.4795455,
                "end_time": 94.5977273,
                "pitch": 51,
                "velocity": 80,
                "duration": 0.1181818,
                "tempo": 120.0
            },
            {
                "start_time": 94.6,
                "end_time": 94.7181818,
                "pitch": 51,
                "velocity": 80,
                "duration": 0.1181818,
                "tempo": 120.0
            },
            {
                "start_time": 94.7181818,
                "end_time": 94.8545455,
                "pitch": 42,
                "velocity": 80,
                "duration": 0.1363636,
                "tempo": 120.0
            },
            {
                "start_time": 94.8545455,
                "end_time": 94.9727273,
                "pitch": 42,
                "velocity": 80,
                "duration": 0.1181818,
                "tempo": 120.0
            },
            {
                "start_time": 94.9727273,
                "end_time": 95.0886364,
                "pitch": 54,
                "velocity": 80,
                "duration": 0.1159091,
                "tempo": 120.0
            },
            {
                "start_time": 95.0886364,
                "end_time": 95.2045455,
                "pitch": 54,
                "velocity": 80,
                "duration": 0.1159091,
                "tempo": 120.0
            },
            {
                "start_time": 95.2045455,
                "end_time": 95.3159091,
                "pitch": 42,
                "velocity": 80,
                "duration": 0.1113636,
                "tempo": 120.0
            },
            {
                "start_time": 95.3159091,
                "end_time": 95.45,
                "pitch": 42,
                "velocity": 80,
                "duration": 0.1340909,
                "tempo": 120.0
            },
            {
                "start_time": 95.45,
                "end_time": 95.5681818,
                "pitch": 54,
                "velocity": 80,
                "duration": 0.1181818,
                "tempo": 120.0
            },
            {
                "start_time": 95.5681818,
                "end_time": 95.6886364,
                "pitch": 54,
                "velocity": 80,
                "duration": 0.1204545,
                "tempo": 120.0
            },
            {
                "start_time": 95.6886364,
                "end_time": 95.8090909,
                "pitch": 42,
                "velocity": 80,
                "duration": 0.1204545,
                "tempo": 120.0
            },
            {
                "start_time": 95.8090909,
                "end_time": 95.9295455,
                "pitch": 42,
                "velocity": 80,
                "duration": 0.1204545,
                "tempo": 120.0
            },
            {
                "start_time": 95.9295455,
                "end_time": 96.0590909,
                "pitch": 54,
                "velocity": 80,
                "duration": 0.1295455,
                "tempo": 120.0
            },
            {
                "start_time": 96.0590909,
                "end_time": 96.175,
                "pitch": 54,
                "velocity": 80,
                "duration": 0.1159091,
                "tempo": 120.0
            },
            {
                "start_time": 96.175,
                "end_time": 96.2886364,
                "pitch": 42,
                "velocity": 80,
                "duration": 0.1136364,
                "tempo": 120.0
            },
            {
                "start_time": 96.2886364,
                "end_time": 96.4068182,
                "pitch": 42,
                "velocity": 80,
                "duration": 0.1181818,
                "tempo": 120.0
            },
            {
                "start_time": 96.4068182,
                "end_time": 96.5204545,
                "pitch": 54,
                "velocity": 80,
                "duration": 0.1136364,
                "tempo": 120.0
            },
            {
                "start_time": 96.5227273,
                "end_time": 96.6568182,
                "pitch": 54,
                "velocity": 80,
                "duration": 0.1340909,
                "tempo": 120.0
            },
            {
                "start_time": 96.6568182,
                "end_time": 96.7727273,
                "pitch": 42,
                "velocity": 80,
                "duration": 0.1159091,
                "tempo": 120.0
            },
            {
                "start_time": 96.7727273,
                "end_time": 96.8886364,
                "pitch": 42,
                "velocity": 80,
                "duration": 0.1159091,
                "tempo": 120.0
            },
            {
                "start_time": 96.8886364,
                "end_time": 97.0068182,
                "pitch": 54,
                "velocity": 80,
                "duration": 0.1181818,
                "tempo": 120.0
            },
            {
                "start_time": 97.0068182,
                "end_time": 97.125,
                "pitch": 54,
                "velocity": 80,
                "duration": 0.1181818,
                "tempo": 120.0
            },
            {
                "start_time": 97.125,
                "end_time": 97.2568182,
                "pitch": 42,
                "velocity": 80,
                "duration": 0.1318182,
                "tempo": 120.0
            },
            {
                "start_time": 97.2568182,
                "end_time": 97.3772727,
                "pitch": 42,
                "velocity": 80,
                "duration": 0.1204545,
                "tempo": 120.0
            },
            {
                "start_time": 97.3772727,
                "end_time": 97.4954545,
                "pitch": 54,
                "velocity": 80,
                "duration": 0.1181818,
                "tempo": 120.0
            },
            {
                "start_time": 97.4954545,
                "end_time": 97.6159091,
                "pitch": 54,
                "velocity": 80,
                "duration": 0.1204545,
                "tempo": 120.0
            },
            {
                "start_time": 97.6159091,
                "end_time": 97.7340909,
                "pitch": 42,
                "velocity": 80,
                "duration": 0.1181818,
                "tempo": 120.0
            },
            {
                "start_time": 97.7363636,
                "end_time": 97.8727273,
                "pitch": 42,
                "velocity": 80,
                "duration": 0.1363636,
                "tempo": 120.0
            },
            {
                "start_time": 97.8727273,
                "end_time": 97.9886364,
                "pitch": 54,
                "velocity": 80,
                "duration": 0.1159091,
                "tempo": 120.0
            },
            {
                "start_time": 97.9886364,
                "end_time": 98.1090909,
                "pitch": 54,
                "velocity": 80,
                "duration": 0.1204545,
                "tempo": 120.0
            },
            {
                "start_time": 98.1090909,
                "end_time": 98.225,
                "pitch": 42,
                "velocity": 80,
                "duration": 0.1159091,
                "tempo": 120.0
            },
            {
                "start_time": 98.225,
                "end_time": 98.3454545,
                "pitch": 42,
                "velocity": 80,
                "duration": 0.1204545,
                "tempo": 120.0
            },
            {
                "start_time": 98.3454545,
                "end_time": 98.475,
                "pitch": 54,
                "velocity": 80,
                "duration": 0.1295455,
                "tempo": 120.0
            },
            {
                "start_time": 98.475,
                "end_time": 98.5909091,
                "pitch": 54,
                "velocity": 80,
                "duration": 0.1159091,
                "tempo": 120.0
            },
            {
                "start_time": 98.5909091,
                "end_time": 98.7045455,
                "pitch": 42,
                "velocity": 80,
                "duration": 0.1136364,
                "tempo": 120.0
            },
            {
                "start_time": 98.7045455,
                "end_time": 98.8181818,
                "pitch": 42,
                "velocity": 80,
                "duration": 0.1136364,
                "tempo": 120.0
            },
            {
                "start_time": 98.8204545,
                "end_time": 98.9363636,
                "pitch": 54,
                "velocity": 80,
                "duration": 0.1159091,
                "tempo": 120.0
            },
            {
                "start_time": 98.9363636,
                "end_time": 99.0727273,
                "pitch": 54,
                "velocity": 80,
                "duration": 0.1363636,
                "tempo": 120.0
            },
            {
                "start_time": 99.0727273,
                "end_time": 99.1886364,
                "pitch": 42,
                "velocity": 80,
                "duration": 0.1159091,
                "tempo": 120.0
            },
            {
                "start_time": 99.1886364,
                "end_time": 99.3090909,
                "pitch": 42,
                "velocity": 80,
                "duration": 0.1204545,
                "tempo": 120.0
            },
            {
                "start_time": 99.3090909,
                "end_time": 99.4272727,
                "pitch": 54,
                "velocity": 80,
                "duration": 0.1181818,
                "tempo": 120.0
            },
            {
                "start_time": 99.4272727,
                "end_time": 99.5454545,
                "pitch": 54,
                "velocity": 80,
                "duration": 0.1181818,
                "tempo": 120.0
            },
            {
                "start_time": 99.5454545,
                "end_time": 99.6840909,
                "pitch": 42,
                "velocity": 80,
                "duration": 0.1386364,
                "tempo": 120.0
            },
            {
                "start_time": 99.6840909,
                "end_time": 99.8045455,
                "pitch": 42,
                "velocity": 80,
                "duration": 0.1204545,
                "tempo": 120.0
            },
            {
                "start_time": 99.8045455,
                "end_time": 99.9204545,
                "pitch": 54,
                "velocity": 80,
                "duration": 0.1159091,
                "tempo": 120.0
            },
            {
                "start_time": 99.9204545,
                "end_time": 100.0386364,
                "pitch": 54,
                "velocity": 80,
                "duration": 0.1181818,
                "tempo": 120.0
            },
            {
                "start_time": 100.0386364,
                "end_time": 100.1568182,
                "pitch": 42,
                "velocity": 80,
                "duration": 0.1181818,
                "tempo": 120.0
            },
            {
                "start_time": 100.1568182,
                "end_time": 100.2931818,
                "pitch": 42,
                "velocity": 80,
                "duration": 0.1363636,
                "tempo": 120.0
            },
            {
                "start_time": 100.2931818,
                "end_time": 100.4090909,
                "pitch": 54,
                "velocity": 80,
                "duration": 0.1159091,
                "tempo": 120.0
            },
            {
                "start_time": 100.4090909,
                "end_time": 100.5272727,
                "pitch": 54,
                "velocity": 80,
                "duration": 0.1181818,
                "tempo": 120.0
            },
            {
                "start_time": 100.5272727,
                "end_time": 100.6431818,
                "pitch": 38,
                "velocity": 80,
                "duration": 0.1159091,
                "tempo": 120.0
            },
            {
                "start_time": 100.6454545,
                "end_time": 100.7613636,
                "pitch": 38,
                "velocity": 80,
                "duration": 0.1159091,
                "tempo": 120.0
            },
            {
                "start_time": 100.7613636,
                "end_time": 100.8931818,
                "pitch": 50,
                "velocity": 80,
                "duration": 0.1318182,
                "tempo": 120.0
            },
            {
                "start_time": 100.8931818,
                "end_time": 101.0090909,
                "pitch": 50,
                "velocity": 80,
                "duration": 0.1159091,
                "tempo": 120.0
            },
            {
                "start_time": 101.0090909,
                "end_time": 101.1227273,
                "pitch": 38,
                "velocity": 80,
                "duration": 0.1136364,
                "tempo": 120.0
            },
            {
                "start_time": 101.1227273,
                "end_time": 101.2386364,
                "pitch": 38,
                "velocity": 80,
                "duration": 0.1159091,
                "tempo": 120.0
            },
            {
                "start_time": 101.2386364,
                "end_time": 101.3568182,
                "pitch": 50,
                "velocity": 80,
                "duration": 0.1181818,
                "tempo": 120.0
            },
            {
                "start_time": 101.3568182,
                "end_time": 101.4931818,
                "pitch": 50,
                "velocity": 80,
                "duration": 0.1363636,
                "tempo": 120.0
            },
            {
                "start_time": 101.4954545,
                "end_time": 101.6159091,
                "pitch": 40,
                "velocity": 80,
                "duration": 0.1204545,
                "tempo": 120.0
            },
            {
                "start_time": 101.6159091,
                "end_time": 101.7340909,
                "pitch": 40,
                "velocity": 80,
                "duration": 0.1181818,
                "tempo": 120.0
            },
            {
                "start_time": 101.7340909,
                "end_time": 101.8522727,
                "pitch": 52,
                "velocity": 80,
                "duration": 0.1181818,
                "tempo": 120.0
            },
            {
                "start_time": 101.8545455,
                "end_time": 101.975,
                "pitch": 52,
                "velocity": 80,
                "duration": 0.1204545,
                "tempo": 120.0
            },
            {
                "start_time": 101.975,
                "end_time": 102.1113636,
                "pitch": 40,
                "velocity": 80,
                "duration": 0.1363636,
                "tempo": 120.0
            },
            {
                "start_time": 102.1113636,
                "end_time": 102.2318182,
                "pitch": 40,
                "velocity": 80,
                "duration": 0.1204545,
                "tempo": 120.0
            },
            {
                "start_time": 102.2318182,
                "end_time": 102.3477273,
                "pitch": 52,
                "velocity": 80,
                "duration": 0.1159091,
                "tempo": 120.0
            },
            {
                "start_time": 102.3477273,
                "end_time": 102.4659091,
                "pitch": 52,
                "velocity": 80,
                "duration": 0.1181818,
                "tempo": 120.0
            },
            {
                "start_time": 102.4659091,
                "end_time": 102.5795455,
                "pitch": 42,
                "velocity": 80,
                "duration": 0.1136364,
                "tempo": 120.0
            },
            {
                "start_time": 102.5795455,
                "end_time": 102.7136364,
                "pitch": 42,
                "velocity": 80,
                "duration": 0.1340909,
                "tempo": 120.0
            },
            {
                "start_time": 102.7136364,
                "end_time": 102.8318182,
                "pitch": 54,
                "velocity": 80,
                "duration": 0.1181818,
                "tempo": 120.0
            },
            {
                "start_time": 102.8318182,
                "end_time": 102.95,
                "pitch": 54,
                "velocity": 80,
                "duration": 0.1181818,
                "tempo": 120.0
            },
            {
                "start_time": 102.95,
                "end_time": 103.0659091,
                "pitch": 42,
                "velocity": 80,
                "duration": 0.1159091,
                "tempo": 120.0
            },
            {
                "start_time": 103.0659091,
                "end_time": 103.1840909,
                "pitch": 42,
                "velocity": 80,
                "duration": 0.1181818,
                "tempo": 120.0
            },
            {
                "start_time": 103.1863636,
                "end_time": 103.3113636,
                "pitch": 54,
                "velocity": 80,
                "duration": 0.125,
                "tempo": 120.0
            },
            {
                "start_time": 103.3136364,
                "end_time": 103.425,
                "pitch": 54,
                "velocity": 80,
                "duration": 0.1113636,
                "tempo": 120.0
            },
            {
                "start_time": 103.425,
                "end_time": 103.5363636,
                "pitch": 42,
                "velocity": 80,
                "duration": 0.1113636,
                "tempo": 120.0
            },
            {
                "start_time": 103.5363636,
                "end_time": 103.65,
                "pitch": 42,
                "velocity": 80,
                "duration": 0.1136364,
                "tempo": 120.0
            },
            {
                "start_time": 103.65,
                "end_time": 103.7681818,
                "pitch": 54,
                "velocity": 80,
                "duration": 0.1181818,
                "tempo": 120.0
            },
            {
                "start_time": 103.7681818,
                "end_time": 103.9068182,
                "pitch": 54,
                "velocity": 80,
                "duration": 0.1386364,
                "tempo": 120.0
            },
            {
                "start_time": 103.9068182,
                "end_time": 104.025,
                "pitch": 42,
                "velocity": 80,
                "duration": 0.1181818,
                "tempo": 120.0
            },
            {
                "start_time": 104.025,
                "end_time": 104.1454545,
                "pitch": 42,
                "velocity": 80,
                "duration": 0.1204545,
                "tempo": 120.0
            },
            {
                "start_time": 104.1477273,
                "end_time": 104.2613636,
                "pitch": 54,
                "velocity": 80,
                "duration": 0.1136364,
                "tempo": 120.0
            },
            {
                "start_time": 104.2636364,
                "end_time": 104.3795455,
                "pitch": 54,
                "velocity": 80,
                "duration": 0.1159091,
                "tempo": 120.0
            },
            {
                "start_time": 104.3795455,
                "end_time": 104.5136364,
                "pitch": 42,
                "velocity": 80,
                "duration": 0.1340909,
                "tempo": 120.0
            },
            {
                "start_time": 104.5136364,
                "end_time": 104.6295455,
                "pitch": 42,
                "velocity": 80,
                "duration": 0.1159091,
                "tempo": 120.0
            },
            {
                "start_time": 104.6295455,
                "end_time": 104.7477273,
                "pitch": 54,
                "velocity": 80,
                "duration": 0.1181818,
                "tempo": 120.0
            },
            {
                "start_time": 104.7477273,
                "end_time": 104.8681818,
                "pitch": 54,
                "velocity": 80,
                "duration": 0.1204545,
                "tempo": 120.0
            },
            {
                "start_time": 104.8704545,
                "end_time": 104.9863636,
                "pitch": 42,
                "velocity": 80,
                "duration": 0.1159091,
                "tempo": 120.0
            },
            {
                "start_time": 104.9863636,
                "end_time": 105.125,
                "pitch": 42,
                "velocity": 80,
                "duration": 0.1386364,
                "tempo": 120.0
            },
            {
                "start_time": 105.125,
                "end_time": 105.2431818,
                "pitch": 54,
                "velocity": 80,
                "duration": 0.1181818,
                "tempo": 120.0
            },
            {
                "start_time": 105.2431818,
                "end_time": 105.3590909,
                "pitch": 54,
                "velocity": 80,
                "duration": 0.1159091,
                "tempo": 120.0
            },
            {
                "start_time": 105.3613636,
                "end_time": 105.4772727,
                "pitch": 42,
                "velocity": 80,
                "duration": 0.1159091,
                "tempo": 120.0
            },
            {
                "start_time": 105.4772727,
                "end_time": 105.5977273,
                "pitch": 42,
                "velocity": 80,
                "duration": 0.1204545,
                "tempo": 120.0
            },
            {
                "start_time": 105.5977273,
                "end_time": 105.725,
                "pitch": 54,
                "velocity": 80,
                "duration": 0.1272727,
                "tempo": 120.0
            },
            {
                "start_time": 105.7272727,
                "end_time": 105.8431818,
                "pitch": 54,
                "velocity": 80,
                "duration": 0.1159091,
                "tempo": 120.0
            },
            {
                "start_time": 105.8431818,
                "end_time": 105.9568182,
                "pitch": 42,
                "velocity": 80,
                "duration": 0.1136364,
                "tempo": 120.0
            },
            {
                "start_time": 105.9568182,
                "end_time": 106.0727273,
                "pitch": 42,
                "velocity": 80,
                "duration": 0.1159091,
                "tempo": 120.0
            },
            {
                "start_time": 106.0727273,
                "end_time": 106.1886364,
                "pitch": 54,
                "velocity": 80,
                "duration": 0.1159091,
                "tempo": 120.0
            },
            {
                "start_time": 106.1886364,
                "end_time": 106.3227273,
                "pitch": 54,
                "velocity": 80,
                "duration": 0.1340909,
                "tempo": 120.0
            },
            {
                "start_time": 106.325,
                "end_time": 106.4386364,
                "pitch": 42,
                "velocity": 80,
                "duration": 0.1136364,
                "tempo": 120.0
            },
            {
                "start_time": 106.4409091,
                "end_time": 106.5568182,
                "pitch": 42,
                "velocity": 80,
                "duration": 0.1159091,
                "tempo": 120.0
            },
            {
                "start_time": 106.5568182,
                "end_time": 106.675,
                "pitch": 54,
                "velocity": 80,
                "duration": 0.1181818,
                "tempo": 120.0
            },
            {
                "start_time": 106.675,
                "end_time": 106.7954545,
                "pitch": 54,
                "velocity": 80,
                "duration": 0.1204545,
                "tempo": 120.0
            },
            {
                "start_time": 106.7954545,
                "end_time": 106.9318182,
                "pitch": 42,
                "velocity": 80,
                "duration": 0.1363636,
                "tempo": 120.0
            },
            {
                "start_time": 106.9318182,
                "end_time": 107.0522727,
                "pitch": 42,
                "velocity": 80,
                "duration": 0.1204545,
                "tempo": 120.0
            },
            {
                "start_time": 107.0522727,
                "end_time": 107.1681818,
                "pitch": 54,
                "velocity": 80,
                "duration": 0.1159091,
                "tempo": 120.0
            },
            {
                "start_time": 107.1681818,
                "end_time": 107.2840909,
                "pitch": 54,
                "velocity": 80,
                "duration": 0.1159091,
                "tempo": 120.0
            },
            {
                "start_time": 107.2863636,
                "end_time": 107.4022727,
                "pitch": 42,
                "velocity": 80,
                "duration": 0.1159091,
                "tempo": 120.0
            },
            {
                "start_time": 107.4022727,
                "end_time": 107.5363636,
                "pitch": 42,
                "velocity": 80,
                "duration": 0.1340909,
                "tempo": 120.0
            },
            {
                "start_time": 107.5363636,
                "end_time": 107.6522727,
                "pitch": 54,
                "velocity": 80,
                "duration": 0.1159091,
                "tempo": 120.0
            },
            {
                "start_time": 107.6522727,
                "end_time": 107.7727273,
                "pitch": 54,
                "velocity": 80,
                "duration": 0.1204545,
                "tempo": 120.0
            },
            {
                "start_time": 107.7727273,
                "end_time": 107.8886364,
                "pitch": 42,
                "velocity": 80,
                "duration": 0.1159091,
                "tempo": 120.0
            },
            {
                "start_time": 107.8886364,
                "end_time": 108.0090909,
                "pitch": 42,
                "velocity": 80,
                "duration": 0.1204545,
                "tempo": 120.0
            },
            {
                "start_time": 108.0090909,
                "end_time": 108.1386364,
                "pitch": 54,
                "velocity": 80,
                "duration": 0.1295455,
                "tempo": 120.0
            },
            {
                "start_time": 108.1386364,
                "end_time": 108.2545455,
                "pitch": 54,
                "velocity": 80,
                "duration": 0.1159091,
                "tempo": 120.0
            },
            {
                "start_time": 108.2545455,
                "end_time": 108.3681818,
                "pitch": 38,
                "velocity": 80,
                "duration": 0.1136364,
                "tempo": 120.0
            },
            {
                "start_time": 108.3681818,
                "end_time": 108.4840909,
                "pitch": 38,
                "velocity": 80,
                "duration": 0.1159091,
                "tempo": 120.0
            },
            {
                "start_time": 108.4840909,
                "end_time": 108.6,
                "pitch": 50,
                "velocity": 80,
                "duration": 0.1159091,
                "tempo": 120.0
            },
            {
                "start_time": 108.6,
                "end_time": 108.7363636,
                "pitch": 50,
                "velocity": 80,
                "duration": 0.1363636,
                "tempo": 120.0
            },
            {
                "start_time": 108.7363636,
                "end_time": 108.8522727,
                "pitch": 38,
                "velocity": 80,
                "duration": 0.1159091,
                "tempo": 120.0
            },
            {
                "start_time": 108.8522727,
                "end_time": 108.9727273,
                "pitch": 38,
                "velocity": 80,
                "duration": 0.1204545,
                "tempo": 120.0
            },
            {
                "start_time": 108.9727273,
                "end_time": 109.0909091,
                "pitch": 50,
                "velocity": 80,
                "duration": 0.1181818,
                "tempo": 120.0
            },
            {
                "start_time": 109.0909091,
                "end_time": 109.2090909,
                "pitch": 50,
                "velocity": 80,
                "duration": 0.1181818,
                "tempo": 120.0
            },
            {
                "start_time": 109.2113636,
                "end_time": 109.3477273,
                "pitch": 40,
                "velocity": 80,
                "duration": 0.1363636,
                "tempo": 120.0
            },
            {
                "start_time": 109.3477273,
                "end_time": 109.4681818,
                "pitch": 40,
                "velocity": 80,
                "duration": 0.1204545,
                "tempo": 120.0
            },
            {
                "start_time": 109.4681818,
                "end_time": 109.5863636,
                "pitch": 52,
                "velocity": 80,
                "duration": 0.1181818,
                "tempo": 120.0
            },
            {
                "start_time": 109.5863636,
                "end_time": 109.7068182,
                "pitch": 52,
                "velocity": 80,
                "duration": 0.1204545,
                "tempo": 120.0
            },
            {
                "start_time": 109.7068182,
                "end_time": 109.8272727,
                "pitch": 40,
                "velocity": 80,
                "duration": 0.1204545,
                "tempo": 120.0
            },
            {
                "start_time": 109.8272727,
                "end_time": 109.9636364,
                "pitch": 40,
                "velocity": 80,
                "duration": 0.1363636,
                "tempo": 120.0
            },
            {
                "start_time": 109.9636364,
                "end_time": 110.0818182,
                "pitch": 52,
                "velocity": 80,
                "duration": 0.1181818,
                "tempo": 120.0
            },
            {
                "start_time": 110.0818182,
                "end_time": 110.1977273,
                "pitch": 52,
                "velocity": 80,
                "duration": 0.1159091,
                "tempo": 120.0
            },
            {
                "start_time": 110.1977273,
                "end_time": 110.3136364,
                "pitch": 43,
                "velocity": 80,
                "duration": 0.1159091,
                "tempo": 120.0
            },
            {
                "start_time": 110.3136364,
                "end_time": 110.4295455,
                "pitch": 43,
                "velocity": 80,
                "duration": 0.1159091,
                "tempo": 120.0
            },
            {
                "start_time": 110.4295455,
                "end_time": 110.5568182,
                "pitch": 55,
                "velocity": 80,
                "duration": 0.1272727,
                "tempo": 120.0
            },
            {
                "start_time": 110.5590909,
                "end_time": 110.6704545,
                "pitch": 55,
                "velocity": 80,
                "duration": 0.1113636,
                "tempo": 120.0
            },
            {
                "start_time": 110.6704545,
                "end_time": 110.7818182,
                "pitch": 43,
                "velocity": 80,
                "duration": 0.1113636,
                "tempo": 120.0
            },
            {
                "start_time": 110.7818182,
                "end_time": 110.8954545,
                "pitch": 43,
                "velocity": 80,
                "duration": 0.1136364,
                "tempo": 120.0
            },
            {
                "start_time": 110.8954545,
                "end_time": 111.0136364,
                "pitch": 55,
                "velocity": 80,
                "duration": 0.1181818,
                "tempo": 120.0
            },
            {
                "start_time": 111.0136364,
                "end_time": 111.15,
                "pitch": 55,
                "velocity": 80,
                "duration": 0.1363636,
                "tempo": 120.0
            },
            {
                "start_time": 111.1522727,
                "end_time": 111.2704545,
                "pitch": 43,
                "velocity": 80,
                "duration": 0.1181818,
                "tempo": 120.0
            },
            {
                "start_time": 111.2704545,
                "end_time": 111.3909091,
                "pitch": 43,
                "velocity": 80,
                "duration": 0.1204545,
                "tempo": 120.0
            },
            {
                "start_time": 111.3909091,
                "end_time": 111.5068182,
                "pitch": 55,
                "velocity": 80,
                "duration": 0.1159091,
                "tempo": 120.0
            },
            {
                "start_time": 111.5068182,
                "end_time": 111.6272727,
                "pitch": 55,
                "velocity": 80,
                "duration": 0.1204545,
                "tempo": 120.0
            },
            {
                "start_time": 111.6272727,
                "end_time": 111.7613636,
                "pitch": 43,
                "velocity": 80,
                "duration": 0.1340909,
                "tempo": 120.0
            },
            {
                "start_time": 111.7613636,
                "end_time": 111.8795455,
                "pitch": 43,
                "velocity": 80,
                "duration": 0.1181818,
                "tempo": 120.0
            },
            {
                "start_time": 111.8795455,
                "end_time": 111.9977273,
                "pitch": 55,
                "velocity": 80,
                "duration": 0.1181818,
                "tempo": 120.0
            },
            {
                "start_time": 111.9977273,
                "end_time": 112.1181818,
                "pitch": 55,
                "velocity": 80,
                "duration": 0.1204545,
                "tempo": 120.0
            },
            {
                "start_time": 112.1181818,
                "end_time": 112.2386364,
                "pitch": 43,
                "velocity": 80,
                "duration": 0.1204545,
                "tempo": 120.0
            },
            {
                "start_time": 112.2386364,
                "end_time": 112.375,
                "pitch": 43,
                "velocity": 80,
                "duration": 0.1363636,
                "tempo": 120.0
            },
            {
                "start_time": 112.375,
                "end_time": 112.4909091,
                "pitch": 55,
                "velocity": 80,
                "duration": 0.1159091,
                "tempo": 120.0
            },
            {
                "start_time": 112.4909091,
                "end_time": 112.6113636,
                "pitch": 55,
                "velocity": 80,
                "duration": 0.1204545,
                "tempo": 120.0
            },
            {
                "start_time": 112.6113636,
                "end_time": 112.7272727,
                "pitch": 43,
                "velocity": 80,
                "duration": 0.1159091,
                "tempo": 120.0
            },
            {
                "start_time": 112.7272727,
                "end_time": 112.8454545,
                "pitch": 43,
                "velocity": 80,
                "duration": 0.1181818,
                "tempo": 120.0
            },
            {
                "start_time": 112.8454545,
                "end_time": 112.9772727,
                "pitch": 55,
                "velocity": 80,
                "duration": 0.1318182,
                "tempo": 120.0
            },
            {
                "start_time": 112.9772727,
                "end_time": 113.0909091,
                "pitch": 55,
                "velocity": 80,
                "duration": 0.1136364,
                "tempo": 120.0
            },
            {
                "start_time": 113.0909091,
                "end_time": 113.2068182,
                "pitch": 43,
                "velocity": 80,
                "duration": 0.1159091,
                "tempo": 120.0
            },
            {
                "start_time": 113.2068182,
                "end_time": 113.3227273,
                "pitch": 43,
                "velocity": 80,
                "duration": 0.1159091,
                "tempo": 120.0
            },
            {
                "start_time": 113.3227273,
                "end_time": 113.4386364,
                "pitch": 55,
                "velocity": 80,
                "duration": 0.1159091,
                "tempo": 120.0
            },
            {
                "start_time": 113.4386364,
                "end_time": 113.575,
                "pitch": 55,
                "velocity": 80,
                "duration": 0.1363636,
                "tempo": 120.0
            },
            {
                "start_time": 113.575,
                "end_time": 113.6909091,
                "pitch": 43,
                "velocity": 80,
                "duration": 0.1159091,
                "tempo": 120.0
            },
            {
                "start_time": 113.6909091,
                "end_time": 113.8113636,
                "pitch": 43,
                "velocity": 80,
                "duration": 0.1204545,
                "tempo": 120.0
            },
            {
                "start_time": 113.8113636,
                "end_time": 113.9295455,
                "pitch": 55,
                "velocity": 80,
                "duration": 0.1181818,
                "tempo": 120.0
            },
            {
                "start_time": 113.9295455,
                "end_time": 114.05,
                "pitch": 55,
                "velocity": 80,
                "duration": 0.1204545,
                "tempo": 120.0
            },
            {
                "start_time": 114.05,
                "end_time": 114.1863636,
                "pitch": 43,
                "velocity": 80,
                "duration": 0.1363636,
                "tempo": 120.0
            },
            {
                "start_time": 114.1863636,
                "end_time": 114.3045455,
                "pitch": 43,
                "velocity": 80,
                "duration": 0.1181818,
                "tempo": 120.0
            },
            {
                "start_time": 114.3045455,
                "end_time": 114.4227273,
                "pitch": 55,
                "velocity": 80,
                "duration": 0.1181818,
                "tempo": 120.0
            },
            {
                "start_time": 114.4227273,
                "end_time": 114.5409091,
                "pitch": 55,
                "velocity": 80,
                "duration": 0.1181818,
                "tempo": 120.0
            },
            {
                "start_time": 114.5409091,
                "end_time": 114.6568182,
                "pitch": 43,
                "velocity": 80,
                "duration": 0.1159091,
                "tempo": 120.0
            },
            {
                "start_time": 114.6568182,
                "end_time": 114.7931818,
                "pitch": 43,
                "velocity": 80,
                "duration": 0.1363636,
                "tempo": 120.0
            },
            {
                "start_time": 114.7931818,
                "end_time": 114.9113636,
                "pitch": 55,
                "velocity": 80,
                "duration": 0.1181818,
                "tempo": 120.0
            },
            {
                "start_time": 114.9113636,
                "end_time": 115.0272727,
                "pitch": 55,
                "velocity": 80,
                "duration": 0.1159091,
                "tempo": 120.0
            },
            {
                "start_time": 115.0295455,
                "end_time": 115.1454545,
                "pitch": 43,
                "velocity": 80,
                "duration": 0.1159091,
                "tempo": 120.0
            },
            {
                "start_time": 115.1454545,
                "end_time": 115.2636364,
                "pitch": 43,
                "velocity": 80,
                "duration": 0.1181818,
                "tempo": 120.0
            },
            {
                "start_time": 115.2659091,
                "end_time": 115.3931818,
                "pitch": 55,
                "velocity": 80,
                "duration": 0.1272727,
                "tempo": 120.0
            },
            {
                "start_time": 115.3954545,
                "end_time": 115.5113636,
                "pitch": 55,
                "velocity": 80,
                "duration": 0.1159091,
                "tempo": 120.0
            },
            {
                "start_time": 115.5113636,
                "end_time": 115.625,
                "pitch": 43,
                "velocity": 80,
                "duration": 0.1136364,
                "tempo": 120.0
            },
            {
                "start_time": 115.625,
                "end_time": 115.7409091,
                "pitch": 43,
                "velocity": 80,
                "duration": 0.1159091,
                "tempo": 120.0
            },
            {
                "start_time": 115.7409091,
                "end_time": 115.8568182,
                "pitch": 55,
                "velocity": 80,
                "duration": 0.1159091,
                "tempo": 120.0
            },
            {
                "start_time": 115.8568182,
                "end_time": 115.9909091,
                "pitch": 55,
                "velocity": 80,
                "duration": 0.1340909,
                "tempo": 120.0
            },
            {
                "start_time": 115.9931818,
                "end_time": 116.1068182,
                "pitch": 39,
                "velocity": 80,
                "duration": 0.1136364,
                "tempo": 120.0
            },
            {
                "start_time": 116.1068182,
                "end_time": 116.225,
                "pitch": 39,
                "velocity": 80,
                "duration": 0.1181818,
                "tempo": 120.0
            },
            {
                "start_time": 116.225,
                "end_time": 116.3431818,
                "pitch": 51,
                "velocity": 80,
                "duration": 0.1181818,
                "tempo": 120.0
            },
            {
                "start_time": 116.3431818,
                "end_time": 116.4636364,
                "pitch": 51,
                "velocity": 80,
                "duration": 0.1204545,
                "tempo": 120.0
            },
            {
                "start_time": 116.4636364,
                "end_time": 116.6,
                "pitch": 39,
                "velocity": 80,
                "duration": 0.1363636,
                "tempo": 120.0
            },
            {
                "start_time": 116.6,
                "end_time": 116.7204545,
                "pitch": 39,
                "velocity": 80,
                "duration": 0.1204545,
                "tempo": 120.0
            },
            {
                "start_time": 116.7204545,
                "end_time": 116.8363636,
                "pitch": 51,
                "velocity": 80,
                "duration": 0.1159091,
                "tempo": 120.0
            },
            {
                "start_time": 116.8363636,
                "end_time": 116.9545455,
                "pitch": 51,
                "velocity": 80,
                "duration": 0.1181818,
                "tempo": 120.0
            },
            {
                "start_time": 116.9545455,
                "end_time": 117.0704545,
                "pitch": 41,
                "velocity": 80,
                "duration": 0.1159091,
                "tempo": 120.0
            },
            {
                "start_time": 117.0704545,
                "end_time": 117.2045455,
                "pitch": 41,
                "velocity": 80,
                "duration": 0.1340909,
                "tempo": 120.0
            },
            {
                "start_time": 117.2045455,
                "end_time": 117.3227273,
                "pitch": 53,
                "velocity": 80,
                "duration": 0.1181818,
                "tempo": 120.0
            },
            {
                "start_time": 117.3227273,
                "end_time": 117.4431818,
                "pitch": 53,
                "velocity": 80,
                "duration": 0.1204545,
                "tempo": 120.0
            },
            {
                "start_time": 117.4431818,
                "end_time": 117.5636364,
                "pitch": 41,
                "velocity": 80,
                "duration": 0.1204545,
                "tempo": 120.0
            },
            {
                "start_time": 117.5636364,
                "end_time": 117.6840909,
                "pitch": 41,
                "velocity": 80,
                "duration": 0.1204545,
                "tempo": 120.0
            },
            {
                "start_time": 117.6840909,
                "end_time": 117.8159091,
                "pitch": 53,
                "velocity": 80,
                "duration": 0.1318182,
                "tempo": 120.0
            },
            {
                "start_time": 117.8159091,
                "end_time": 117.9295455,
                "pitch": 53,
                "velocity": 80,
                "duration": 0.1136364,
                "tempo": 120.0
            },
            {
                "start_time": 117.9318182,
                "end_time": 118.0431818,
                "pitch": 43,
                "velocity": 80,
                "duration": 0.1113636,
                "tempo": 120.0
            },
            {
                "start_time": 118.0431818,
                "end_time": 118.1590909,
                "pitch": 43,
                "velocity": 80,
                "duration": 0.1159091,
                "tempo": 120.0
            },
            {
                "start_time": 118.1590909,
                "end_time": 118.2772727,
                "pitch": 55,
                "velocity": 80,
                "duration": 0.1181818,
                "tempo": 120.0
            },
            {
                "start_time": 118.2772727,
                "end_time": 118.4113636,
                "pitch": 55,
                "velocity": 80,
                "duration": 0.1340909,
                "tempo": 120.0
            },
            {
                "start_time": 118.4113636,
                "end_time": 118.5272727,
                "pitch": 43,
                "velocity": 80,
                "duration": 0.1159091,
                "tempo": 120.0
            },
            {
                "start_time": 118.5272727,
                "end_time": 118.6477273,
                "pitch": 43,
                "velocity": 80,
                "duration": 0.1204545,
                "tempo": 120.0
            },
            {
                "start_time": 118.6477273,
                "end_time": 118.7636364,
                "pitch": 55,
                "velocity": 80,
                "duration": 0.1159091,
                "tempo": 120.0
            },
            {
                "start_time": 118.7636364,
                "end_time": 118.8795455,
                "pitch": 55,
                "velocity": 80,
                "duration": 0.1159091,
                "tempo": 120.0
            },
            {
                "start_time": 118.8795455,
                "end_time": 119.0136364,
                "pitch": 43,
                "velocity": 80,
                "duration": 0.1340909,
                "tempo": 120.0
            },
            {
                "start_time": 119.0136364,
                "end_time": 119.1318182,
                "pitch": 43,
                "velocity": 80,
                "duration": 0.1181818,
                "tempo": 120.0
            },
            {
                "start_time": 119.1318182,
                "end_time": 119.2477273,
                "pitch": 55,
                "velocity": 80,
                "duration": 0.1159091,
                "tempo": 120.0
            },
            {
                "start_time": 119.2477273,
                "end_time": 119.3659091,
                "pitch": 55,
                "velocity": 80,
                "duration": 0.1181818,
                "tempo": 120.0
            },
            {
                "start_time": 119.3681818,
                "end_time": 119.4840909,
                "pitch": 43,
                "velocity": 80,
                "duration": 0.1159091,
                "tempo": 120.0
            },
            {
                "start_time": 119.4840909,
                "end_time": 119.6204545,
                "pitch": 43,
                "velocity": 80,
                "duration": 0.1363636,
                "tempo": 120.0
            },
            {
                "start_time": 119.6204545,
                "end_time": 119.7386364,
                "pitch": 55,
                "velocity": 80,
                "duration": 0.1181818,
                "tempo": 120.0
            },
            {
                "start_time": 119.7386364,
                "end_time": 119.8590909,
                "pitch": 55,
                "velocity": 80,
                "duration": 0.1204545,
                "tempo": 120.0
            },
            {
                "start_time": 119.8590909,
                "end_time": 119.9772727,
                "pitch": 43,
                "velocity": 80,
                "duration": 0.1181818,
                "tempo": 120.0
            },
            {
                "start_time": 119.9772727,
                "end_time": 120.0977273,
                "pitch": 43,
                "velocity": 80,
                "duration": 0.1204545,
                "tempo": 120.0
            },
            {
                "start_time": 120.0977273,
                "end_time": 120.2295455,
                "pitch": 55,
                "velocity": 80,
                "duration": 0.1318182,
                "tempo": 120.0
            },
            {
                "start_time": 120.2295455,
                "end_time": 120.3454545,
                "pitch": 55,
                "velocity": 80,
                "duration": 0.1159091,
                "tempo": 120.0
            },
            {
                "start_time": 120.3454545,
                "end_time": 120.4568182,
                "pitch": 43,
                "velocity": 80,
                "duration": 0.1113636,
                "tempo": 120.0
            },
            {
                "start_time": 120.4568182,
                "end_time": 120.575,
                "pitch": 43,
                "velocity": 80,
                "duration": 0.1181818,
                "tempo": 120.0
            },
            {
                "start_time": 120.575,
                "end_time": 120.6909091,
                "pitch": 55,
                "velocity": 80,
                "duration": 0.1159091,
                "tempo": 120.0
            },
            {
                "start_time": 120.6909091,
                "end_time": 120.8227273,
                "pitch": 55,
                "velocity": 80,
                "duration": 0.1318182,
                "tempo": 120.0
            },
            {
                "start_time": 120.825,
                "end_time": 120.9409091,
                "pitch": 43,
                "velocity": 80,
                "duration": 0.1159091,
                "tempo": 120.0
            },
            {
                "start_time": 120.9409091,
                "end_time": 121.0590909,
                "pitch": 43,
                "velocity": 80,
                "duration": 0.1181818,
                "tempo": 120.0
            },
            {
                "start_time": 121.0590909,
                "end_time": 121.175,
                "pitch": 55,
                "velocity": 80,
                "duration": 0.1159091,
                "tempo": 120.0
            },
            {
                "start_time": 121.175,
                "end_time": 121.2931818,
                "pitch": 55,
                "velocity": 80,
                "duration": 0.1181818,
                "tempo": 120.0
            },
            {
                "start_time": 121.2931818,
                "end_time": 121.4272727,
                "pitch": 43,
                "velocity": 80,
                "duration": 0.1340909,
                "tempo": 120.0
            },
            {
                "start_time": 121.4272727,
                "end_time": 121.5477273,
                "pitch": 43,
                "velocity": 80,
                "duration": 0.1204545,
                "tempo": 120.0
            },
            {
                "start_time": 121.5477273,
                "end_time": 121.6659091,
                "pitch": 55,
                "velocity": 80,
                "duration": 0.1181818,
                "tempo": 120.0
            },
            {
                "start_time": 121.6659091,
                "end_time": 121.7863636,
                "pitch": 55,
                "velocity": 80,
                "duration": 0.1204545,
                "tempo": 120.0
            },
            {
                "start_time": 121.7863636,
                "end_time": 121.9045455,
                "pitch": 43,
                "velocity": 80,
                "duration": 0.1181818,
                "tempo": 120.0
            },
            {
                "start_time": 121.9045455,
                "end_time": 122.0409091,
                "pitch": 43,
                "velocity": 80,
                "duration": 0.1363636,
                "tempo": 120.0
            },
            {
                "start_time": 122.0409091,
                "end_time": 122.1590909,
                "pitch": 55,
                "velocity": 80,
                "duration": 0.1181818,
                "tempo": 120.0
            },
            {
                "start_time": 122.1590909,
                "end_time": 122.2772727,
                "pitch": 55,
                "velocity": 80,
                "duration": 0.1181818,
                "tempo": 120.0
            },
            {
                "start_time": 122.2772727,
                "end_time": 122.3931818,
                "pitch": 43,
                "velocity": 80,
                "duration": 0.1159091,
                "tempo": 120.0
            },
            {
                "start_time": 122.3931818,
                "end_time": 122.5136364,
                "pitch": 43,
                "velocity": 80,
                "duration": 0.1204545,
                "tempo": 120.0
            },
            {
                "start_time": 122.5136364,
                "end_time": 122.6431818,
                "pitch": 55,
                "velocity": 80,
                "duration": 0.1295455,
                "tempo": 120.0
            },
            {
                "start_time": 122.6431818,
                "end_time": 122.7590909,
                "pitch": 55,
                "velocity": 80,
                "duration": 0.1159091,
                "tempo": 120.0
            },
            {
                "start_time": 122.7590909,
                "end_time": 122.8727273,
                "pitch": 43,
                "velocity": 80,
                "duration": 0.1136364,
                "tempo": 120.0
            },
            {
                "start_time": 122.8727273,
                "end_time": 122.9886364,
                "pitch": 43,
                "velocity": 80,
                "duration": 0.1159091,
                "tempo": 120.0
            },
            {
                "start_time": 122.9886364,
                "end_time": 123.1045455,
                "pitch": 55,
                "velocity": 80,
                "duration": 0.1159091,
                "tempo": 120.0
            },
            {
                "start_time": 123.1045455,
                "end_time": 123.2409091,
                "pitch": 55,
                "velocity": 80,
                "duration": 0.1363636,
                "tempo": 120.0
            },
            {
                "start_time": 123.2409091,
                "end_time": 123.3590909,
                "pitch": 43,
                "velocity": 80,
                "duration": 0.1181818,
                "tempo": 120.0
            },
            {
                "start_time": 123.3590909,
                "end_time": 123.4772727,
                "pitch": 43,
                "velocity": 80,
                "duration": 0.1181818,
                "tempo": 120.0
            },
            {
                "start_time": 123.4772727,
                "end_time": 123.5954545,
                "pitch": 55,
                "velocity": 80,
                "duration": 0.1181818,
                "tempo": 120.0
            },
            {
                "start_time": 123.5954545,
                "end_time": 123.7159091,
                "pitch": 55,
                "velocity": 80,
                "duration": 0.1204545,
                "tempo": 120.0
            },
            {
                "start_time": 123.7181818,
                "end_time": 123.8522727,
                "pitch": 39,
                "velocity": 80,
                "duration": 0.1340909,
                "tempo": 120.0
            },
            {
                "start_time": 123.8522727,
                "end_time": 123.9727273,
                "pitch": 39,
                "velocity": 80,
                "duration": 0.1204545,
                "tempo": 120.0
            },
            {
                "start_time": 123.9727273,
                "end_time": 124.0886364,
                "pitch": 51,
                "velocity": 80,
                "duration": 0.1159091,
                "tempo": 120.0
            },
            {
                "start_time": 124.0909091,
                "end_time": 124.2090909,
                "pitch": 51,
                "velocity": 80,
                "duration": 0.1181818,
                "tempo": 120.0
            },
            {
                "start_time": 124.2090909,
                "end_time": 124.325,
                "pitch": 39,
                "velocity": 80,
                "duration": 0.1159091,
                "tempo": 120.0
            },
            {
                "start_time": 124.325,
                "end_time": 124.4613636,
                "pitch": 39,
                "velocity": 80,
                "duration": 0.1363636,
                "tempo": 120.0
            },
            {
                "start_time": 124.4613636,
                "end_time": 124.5772727,
                "pitch": 51,
                "velocity": 80,
                "duration": 0.1159091,
                "tempo": 120.0
            },
            {
                "start_time": 124.5772727,
                "end_time": 124.6954545,
                "pitch": 51,
                "velocity": 80,
                "duration": 0.1181818,
                "tempo": 120.0
            },
            {
                "start_time": 124.6954545,
                "end_time": 124.8136364,
                "pitch": 41,
                "velocity": 80,
                "duration": 0.1181818,
                "tempo": 120.0
            },
            {
                "start_time": 124.8136364,
                "end_time": 124.9318182,
                "pitch": 41,
                "velocity": 80,
                "duration": 0.1181818,
                "tempo": 120.0
            },
            {
                "start_time": 124.9318182,
                "end_time": 125.0636364,
                "pitch": 53,
                "velocity": 80,
                "duration": 0.1318182,
                "tempo": 120.0
            },
            {
                "start_time": 125.0636364,
                "end_time": 125.1818182,
                "pitch": 53,
                "velocity": 80,
                "duration": 0.1181818,
                "tempo": 120.0
            },
            {
                "start_time": 125.1818182,
                "end_time": 125.3,
                "pitch": 41,
                "velocity": 80,
                "duration": 0.1181818,
                "tempo": 120.0
            },
            {
                "start_time": 125.3,
                "end_time": 125.4159091,
                "pitch": 41,
                "velocity": 80,
                "duration": 0.1159091,
                "tempo": 120.0
            },
            {
                "start_time": 125.4159091,
                "end_time": 125.5363636,
                "pitch": 53,
                "velocity": 80,
                "duration": 0.1204545,
                "tempo": 120.0
            },
            {
                "start_time": 125.5363636,
                "end_time": 125.6727273,
                "pitch": 53,
                "velocity": 80,
                "duration": 0.1363636,
                "tempo": 120.0
            }
        ]
    }
}