{
    "mood": "angry",
    "instruments": {
        "Lead 2 (sawtooth)": [
            {
                "start_time": 0.0068182,
                "end_time": 0.1477273,
                "pitch": 45,
                "velocity": 101,
                "duration": 0.1409091,
                "tempo": 120.0
            },
            {
                "start_time": 0.1977273,
                "end_time": 0.2477273,
                "pitch": 45,
                "velocity": 101,
                "duration": 0.05,
                "tempo": 120.0
            },
            {
                "start_time": 0.2977273,
                "end_time": 0.3477273,
                "pitch": 57,
                "velocity": 80,
                "duration": 0.05,
                "tempo": 120.0
            },
            {
                "start_time": 0.4,
                "end_time": 0.5454545,
                "pitch": 45,
                "velocity": 101,
                "duration": 0.1454545,
                "tempo": 120.0
            },
            {
                "start_time": 0.5954545,
                "end_time": 0.6431818,
                "pitch": 45,
                "velocity": 101,
                "duration": 0.0477273,
                "tempo": 120.0
            },
            {
                "start_time": 0.6931818,
                "end_time": 0.7409091,
                "pitch": 57,
                "velocity": 80,
                "duration": 0.0477273,
                "tempo": 120.0
            },
            {
                "start_time": 0.7909091,
                "end_time": 0.9409091,
                "pitch": 45,
                "velocity": 101,
                "duration": 0.15,
                "tempo": 120.0
            },
            {
                "start_time": 0.9909091,
                "end_time": 1.0409091,
                "pitch": 45,
                "velocity": 101,
                "duration": 0.05,
                "tempo": 120.0
            },
            {
                "start_time": 1.0909091,
                "end_time": 1.1409091,
                "pitch": 57,
                "velocity": 80,
                "duration": 0.05,
                "tempo": 120.0
            },
            {
                "start_time": 1.1931818,
                "end_time": 1.3409091,
                "pitch": 45,
                "velocity": 101,
                "duration": 0.1477273,
                "tempo": 120.0
            },
            {
                "start_time": 1.3909091,
                "end_time": 1.4409091,
                "pitch": 45,
                "velocity": 101,
                "duration": 0.05,
                "tempo": 120.0
            },
            {
                "start_time": 1.4931818,
                "end_time": 1.5409091,
                "pitch": 57,
                "velocity": 80,
                "duration": 0.0477273,
                "tempo": 120.0
            },
            {
                "start_time": 1.5931818,
                "end_time": 1.7431818,
                "pitch": 45,
                "velocity": 101,
                "duration": 0.15,
                "tempo": 120.0
            },
            {
                "start_time": 1.7931818,
                "end_time": 1.8431818,
                "pitch": 45,
                "velocity": 101,
                "duration": 0.05,
                "tempo": 120.0
            },
            {
                "start_time": 1.8954545,
                "end_time": 1.9431818,
                "pitch": 57,
                "velocity": 80,
                "duration": 0.0477273,
                "tempo": 120.0
            },
            {
                "start_time": 1.9954545,
                "end_time": 2.1454545,
                "pitch": 45,
                "velocity": 101,
                "duration": 0.15,
                "tempo": 120.0
            },
            {
                "start_time": 2.1954545,
                "end_time": 2.2454545,
                "pitch": 45,
                "velocity": 101,
                "duration": 0.05,
                "tempo": 120.0
            },
            {
                "start_time": 2.2954545,
                "end_time": 2.3454545,
                "pitch": 57,
                "velocity": 80,
                "duration": 0.05,
                "tempo": 120.0
            },
            {
                "start_time": 2.3977273,
                "end_time": 2.5454545,
                "pitch": 45,
                "velocity": 101,
                "duration": 0.1477273,
                "tempo": 120.0
            },
            {
                "start_time": 2.5954545,
                "end_time": 2.6454545,
                "pitch": 45,
                "velocity": 101,
                "duration": 0.05,
                "tempo": 120.0
            },
            {
                "start_time": 2.6977273,
                "end_time": 2.7454545,
                "pitch": 57,
                "velocity": 80,
                "duration": 0.0477273,
                "tempo": 120.0
            },
            {
                "start_time": 2.7977273,
                "end_time": 2.9454545,
                "pitch": 45,
                "velocity": 101,
                "duration": 0.1477273,
                "tempo": 120.0
            },
            {
                "start_time": 2.9977273,
                "end_time": 3.0454545,
                "pitch": 45,
                "velocity": 101,
                "duration": 0.0477273,
                "tempo": 120.0
            },
            {
                "start_time": 3.0977273,
                "end_time": 3.1454545,
                "pitch": 57,
                "velocity": 80,
                "duration": 0.0477273,
                "tempo": 120.0
            },
            {
                "start_time": 3.2,
                "end_time": 3.35,
                "pitch": 45,
                "velocity": 101,
                "duration": 0.15,
                "tempo": 120.0
            },
            {
                "start_time": 3.4022727,
                "end_time": 3.4522727,
                "pitch": 45,
                "velocity": 101,
                "duration": 0.05,
                "tempo": 120.0
            },
            {
                "start_time": 3.5045455,
                "end_time": 3.5545455,
                "pitch": 57,
                "velocity": 80,
                "duration": 0.05,
                "tempo": 120.0
            },
            {
                "start_time": 3.6090909,
                "end_time": 3.7568182,
                "pitch": 45,
                "velocity": 101,
                "duration": 0.1477273,
                "tempo": 120.0
            },
            {
                "start_time": 3.8090909,
                "end_time": 3.8568182,
                "pitch": 45,
                "velocity": 101,
                "duration": 0.0477273,
                "tempo": 120.0
            },
            {
                "start_time": 3.9090909,
                "end_time": 3.9568182,
                "pitch": 57,
                "velocity": 80,
                "duration": 0.0477273,
                "tempo": 120.0
            },
            {
                "start_time": 4.0090909,
                "end_time": 4.1545455,
                "pitch": 45,
                "velocity": 101,
                "duration": 0.1454545,
                "tempo": 120.0
            },
            {
                "start_time": 4.2045455,
                "end_time": 4.2522727,
                "pitch": 45,
                "velocity": 101,
                "duration": 0.0477273,
                "tempo": 120.0
            },
            {
                "start_time": 4.3022727,
                "end_time": 4.3522727,
                "pitch": 57,
                "velocity": 80,
                "duration": 0.05,
                "tempo": 120.0
            },
            {
                "start_time": 4.4022727,
                "end_time": 4.5545455,
                "pitch": 45,
                "velocity": 101,
                "duration": 0.1522727,
                "tempo": 120.0
            },
            {
                "start_time": 4.6068182,
                "end_time": 4.6568182,
                "pitch": 45,
                "velocity": 101,
                "duration": 0.05,
                "tempo": 120.0
            },
            {
                "start_time": 4.7090909,
                "end_time": 4.7590909,
                "pitch": 57,
                "velocity": 80,
                "duration": 0.05,
                "tempo": 120.0
            },
            {
                "start_time": 4.8136364,
                "end_time": 4.9613636,
                "pitch": 45,
                "velocity": 101,
                "duration": 0.1477273,
                "tempo": 120.0
            },
            {
                "start_time": 5.0136364,
                "end_time": 5.0613636,
                "pitch": 45,
                "velocity": 101,
                "duration": 0.0477273,
                "tempo": 120.0
            },
            {
                "start_time": 5.1136364,
                "end_time": 5.1613636,
                "pitch": 57,
                "velocity": 80,
                "duration": 0.0477273,
                "tempo": 120.0
            },
            {
                "start_time": 5.2136364,
                "end_time": 5.3636364,
                "pitch": 45,
                "velocity": 101,
                "duration": 0.15,
                "tempo": 120.0
            },
            {
                "start_time": 5.4159091,
                "end_time": 5.4636364,
                "pitch": 45,
                "velocity": 101,
                "duration": 0.0477273,
                "tempo": 120.0
            },
            {
                "start_time": 5.5159091,
                "end_time": 5.5659091,
                "pitch": 57,
                "velocity": 80,
                "duration": 0.05,
                "tempo": 120.0
            },
            {
                "start_time": 5.6159091,
                "end_time": 5.7659091,
                "pitch": 45,
                "velocity": 101,
                "duration": 0.15,
                "tempo": 120.0
            },
            {
                "start_time": 5.8181818,
                "end_time": 5.8681818,
                "pitch": 45,
                "velocity": 101,
                "duration": 0.05,
                "tempo": 120.0
            },
            {
                "start_time": 5.9181818,
                "end_time": 5.9681818,
                "pitch": 57,
                "velocity": 80,
                "duration": 0.05,
                "tempo": 120.0
            },
            {
                "start_time": 6.0204545,
                "end_time": 6.1681818,
                "pitch": 45,
                "velocity": 101,
                "duration": 0.1477273,
                "tempo": 120.0
            },
            {
                "start_time": 6.2204545,
                "end_time": 6.2681818,
                "pitch": 45,
                "velocity": 101,
                "duration": 0.0477273,
                "tempo": 120.0
            },
            {
                "start_time": 6.3204545,
                "end_time": 6.3681818,
                "pitch": 57,
                "velocity": 80,
                "duration": 0.0477273,
                "tempo": 120.0
            },
            {
                "start_time": 6.4204545,
                "end_time": 6.5704545,
                "pitch": 45,
                "velocity": 101,
                "duration": 0.15,
                "tempo": 120.0
            },
            {
                "start_time": 6.6227273,
                "end_time": 6.6704545,
                "pitch": 45,
                "velocity": 101,
                "duration": 0.0477273,
                "tempo": 120.0
            },
            {
                "start_time": 6.7227273,
                "end_time": 6.7727273,
                "pitch": 57,
                "velocity": 80,
                "duration": 0.05,
                "tempo": 120.0
            },
            {
                "start_time": 6.825,
                "end_time": 6.9727273,
                "pitch": 45,
                "velocity": 101,
                "duration": 0.1477273,
                "tempo": 120.0
            },
            {
                "start_time": 7.025,
                "end_time": 7.0727273,
                "pitch": 45,
                "velocity": 101,
                "duration": 0.0477273,
                "tempo": 120.0
            },
            {
                "start_time": 7.125,
                "end_time": 7.1727273,
                "pitch": 57,
                "velocity": 80,
                "duration": 0.0477273,
                "tempo": 120.0
            },
            {
                "start_time": 7.225,
                "end_time": 7.375,
                "pitch": 45,
                "velocity": 101,
                "duration": 0.15,
                "tempo": 120.0
            },
            {
                "start_time": 7.425,
                "end_time": 7.475,
                "pitch": 45,
                "velocity": 101,
                "duration": 0.05,
                "tempo": 120.0
            },
            {
                "start_time": 7.5272727,
                "end_time": 7.575,
                "pitch": 57,
                "velocity": 80,
                "duration": 0.0477273,
                "tempo": 120.0
            },
            {
                "start_time": 7.6272727,
                "end_time": 7.7772727,
                "pitch": 45,
                "velocity": 101,
                "duration": 0.15,
                "tempo": 120.0
            },
            {
                "start_time": 7.8295455,
                "end_time": 7.8772727,
                "pitch": 45,
                "velocity": 101,
                "duration": 0.0477273,
                "tempo": 120.0
            },
            {
                "start_time": 7.9295455,
                "end_time": 7.9795455,
                "pitch": 57,
                "velocity": 80,
                "duration": 0.05,
                "tempo": 120.0
            },
            {
                "start_time": 8.0318182,
                "end_time": 8.1795455,
                "pitch": 45,
                "velocity": 101,
                "duration": 0.1477273,
                "tempo": 120.0
            },
            {
                "start_time": 8.2318182,
                "end_time": 8.2795455,
                "pitch": 45,
                "velocity": 101,
                "duration": 0.0477273,
                "tempo": 120.0
            },
            {
                "start_time": 8.3318182,
                "end_time": 8.3795455,
                "pitch": 57,
                "velocity": 80,
                "duration": 0.0477273,
                "tempo": 120.0
            },
            {
                "start_time": 8.4318182,
                "end_time": 8.5818182,
                "pitch": 45,
                "velocity": 101,
                "duration": 0.15,
                "tempo": 120.0
            },
            {
                "start_time": 8.6318182,
                "end_time": 8.6818182,
                "pitch": 45,
                "velocity": 101,
                "duration": 0.05,
                "tempo": 120.0
            },
            {
                "start_time": 8.7340909,
                "end_time": 8.7818182,
                "pitch": 57,
                "velocity": 80,
                "duration": 0.0477273,
                "tempo": 120.0
            },
            {
                "start_time": 8.8340909,
                "end_time": 8.9840909,
                "pitch": 45,
                "velocity": 101,
                "duration": 0.15,
                "tempo": 120.0
            },
            {
                "start_time": 9.0340909,
                "end_time": 9.0840909,
                "pitch": 45,
                "velocity": 101,
                "duration": 0.05,
                "tempo": 120.0
            },
            {
                "start_time": 9.1363636,
                "end_time": 9.1863636,
                "pitch": 57,
                "velocity": 80,
                "duration": 0.05,
                "tempo": 120.0
            },
            {
                "start_time": 9.2363636,
                "end_time": 9.3863636,
                "pitch": 45,
                "velocity": 101,
                "duration": 0.15,
                "tempo": 120.0
            },
            {
                "start_time": 9.4386364,
                "end_time": 9.4886364,
                "pitch": 45,
                "velocity": 101,
                "duration": 0.05,
                "tempo": 120.0
            },
            {
                "start_time": 9.5386364,
                "end_time": 9.5886364,
                "pitch": 57,
                "velocity": 80,
                "duration": 0.05,
                "tempo": 120.0
            },
            {
                "start_time": 9.6431818,
                "end_time": 9.6909091,
                "pitch": 40,
                "velocity": 127,
                "duration": 0.0477273,
                "tempo": 120.0
            },
            {
                "start_time": 9.7431818,
                "end_time": 9.7931818,
                "pitch": 40,
                "velocity": 101,
                "duration": 0.05,
                "tempo": 120.0
            },
            {
                "start_time": 9.8454545,
                "end_time": 9.8954545,
                "pitch": 52,
                "velocity": 101,
                "duration": 0.05,
                "tempo": 120.0
            },
            {
                "start_time": 9.95,
                "end_time": 10.0,
                "pitch": 40,
                "velocity": 101,
                "duration": 0.05,
                "tempo": 120.0
            },
            {
                "start_time": 10.0522727,
                "end_time": 10.1,
                "pitch": 40,
                "velocity": 127,
                "duration": 0.0477273,
                "tempo": 120.0
            },
            {
                "start_time": 10.15,
                "end_time": 10.1977273,
                "pitch": 52,
                "velocity": 101,
                "duration": 0.0477273,
                "tempo": 120.0
            },
            {
                "start_time": 10.2477273,
                "end_time": 10.2954545,
                "pitch": 40,
                "velocity": 101,
                "duration": 0.0477273,
                "tempo": 120.0
            },
            {
                "start_time": 10.3454545,
                "end_time": 10.3931818,
                "pitch": 40,
                "velocity": 101,
                "duration": 0.0477273,
                "tempo": 120.0
            },
            {
                "start_time": 10.4454545,
                "end_time": 10.4931818,
                "pitch": 40,
                "velocity": 127,
                "duration": 0.0477273,
                "tempo": 120.0
            },
            {
                "start_time": 10.5454545,
                "end_time": 10.5977273,
                "pitch": 40,
                "velocity": 101,
                "duration": 0.0522727,
                "tempo": 120.0
            },
            {
                "start_time": 10.65,
                "end_time": 10.7,
                "pitch": 52,
                "velocity": 101,
                "duration": 0.05,
                "tempo": 120.0
            },
            {
                "start_time": 10.7522727,
                "end_time": 10.8022727,
                "pitch": 40,
                "velocity": 101,
                "duration": 0.05,
                "tempo": 120.0
            },
            {
                "start_time": 10.8545455,
                "end_time": 10.9022727,
                "pitch": 40,
                "velocity": 127,
                "duration": 0.0477273,
                "tempo": 120.0
            },
            {
                "start_time": 10.9522727,
                "end_time": 11.0022727,
                "pitch": 52,
                "velocity": 101,
                "duration": 0.05,
                "tempo": 120.0
            },
            {
                "start_time": 11.0522727,
                "end_time": 11.1,
                "pitch": 40,
                "velocity": 101,
                "duration": 0.0477273,
                "tempo": 120.0
            },
            {
                "start_time": 11.15,
                "end_time": 11.1977273,
                "pitch": 40,
                "velocity": 101,
                "duration": 0.0477273,
                "tempo": 120.0
            },
            {
                "start_time": 11.25,
                "end_time": 11.2977273,
                "pitch": 40,
                "velocity": 127,
                "duration": 0.0477273,
                "tempo": 120.0
            },
            {
                "start_time": 11.35,
                "end_time": 11.4,
                "pitch": 40,
                "velocity": 101,
                "duration": 0.05,
                "tempo": 120.0
            },
            {
                "start_time": 11.4522727,
                "end_time": 11.5045455,
                "pitch": 52,
                "velocity": 101,
                "duration": 0.0522727,
                "tempo": 120.0
            },
            {
                "start_time": 11.5568182,
                "end_time": 11.6068182,
                "pitch": 40,
                "velocity": 101,
                "duration": 0.05,
                "tempo": 120.0
            },
            {
                "start_time": 11.6590909,
                "end_time": 11.7068182,
                "pitch": 40,
                "velocity": 127,
                "duration": 0.0477273,
                "tempo": 120.0
            },
            {
                "start_time": 11.7568182,
                "end_time": 11.8045455,
                "pitch": 52,
                "velocity": 101,
                "duration": 0.0477273,
                "tempo": 120.0
            },
            {
                "start_time": 11.8545455,
                "end_time": 11.9022727,
                "pitch": 40,
                "velocity": 101,
                "duration": 0.0477273,
                "tempo": 120.0
            },
            {
                "start_time": 11.9522727,
                "end_time": 12.0022727,
                "pitch": 40,
                "velocity": 101,
                "duration": 0.05,
                "tempo": 120.0
            },
            {
                "start_time": 12.0522727,
                "end_time": 12.1022727,
                "pitch": 40,
                "velocity": 127,
                "duration": 0.05,
                "tempo": 120.0
            },
            {
                "start_time": 12.1545455,
                "end_time": 12.2045455,
                "pitch": 40,
                "velocity": 101,
                "duration": 0.05,
                "tempo": 120.0
            },
            {
                "start_time": 12.2568182,
                "end_time": 12.3068182,
                "pitch": 52,
                "velocity": 101,
                "duration": 0.05,
                "tempo": 120.0
            },
            {
                "start_time": 12.3613636,
                "end_time": 12.4090909,
                "pitch": 40,
                "velocity": 101,
                "duration": 0.0477273,
                "tempo": 120.0
            },
            {
                "start_time": 12.4636364,
                "end_time": 12.5113636,
                "pitch": 40,
                "velocity": 127,
                "duration": 0.0477273,
                "tempo": 120.0
            },
            {
                "start_time": 12.5636364,
                "end_time": 12.6136364,
                "pitch": 52,
                "velocity": 101,
                "duration": 0.05,
                "tempo": 120.0
            },
            {
                "start_time": 12.6659091,
                "end_time": 12.7136364,
                "pitch": 40,
                "velocity": 101,
                "duration": 0.0477273,
                "tempo": 120.0
            },
            {
                "start_time": 12.7636364,
                "end_time": 12.8136364,
                "pitch": 40,
                "velocity": 101,
                "duration": 0.05,
                "tempo": 120.0
            },
            {
                "start_time": 12.8681818,
                "end_time": 13.0159091,
                "pitch": 45,
                "velocity": 101,
                "duration": 0.1477273,
                "tempo": 120.0
            },
            {
                "start_time": 13.0681818,
                "end_time": 13.1159091,
                "pitch": 45,
                "velocity": 101,
                "duration": 0.0477273,
                "tempo": 120.0
            },
            {
                "start_time": 13.1704545,
                "end_time": 13.2181818,
                "pitch": 57,
                "velocity": 80,
                "duration": 0.0477273,
                "tempo": 120.0
            },
            {
                "start_time": 13.2704545,
                "end_time": 13.4204545,
                "pitch": 45,
                "velocity": 101,
                "duration": 0.15,
                "tempo": 120.0
            },
            {
                "start_time": 13.4704545,
                "end_time": 13.5204545,
                "pitch": 45,
                "velocity": 101,
                "duration": 0.05,
                "tempo": 120.0
            },
            {
                "start_time": 13.5704545,
                "end_time": 13.6204545,
                "pitch": 57,
                "velocity": 80,
                "duration": 0.05,
                "tempo": 120.0
            },
            {
                "start_time": 13.6727273,
                "end_time": 13.8227273,
                "pitch": 45,
                "velocity": 101,
                "duration": 0.15,
                "tempo": 120.0
            },
            {
                "start_time": 13.8727273,
                "end_time": 13.9227273,
                "pitch": 45,
                "velocity": 101,
                "duration": 0.05,
                "tempo": 120.0
            },
            {
                "start_time": 13.9727273,
                "end_time": 14.0227273,
                "pitch": 57,
                "velocity": 80,
                "duration": 0.05,
                "tempo": 120.0
            },
            {
                "start_time": 14.0727273,
                "end_time": 14.2227273,
                "pitch": 45,
                "velocity": 101,
                "duration": 0.15,
                "tempo": 120.0
            },
            {
                "start_time": 14.275,
                "end_time": 14.325,
                "pitch": 45,
                "velocity": 101,
                "duration": 0.05,
                "tempo": 120.0
            },
            {
                "start_time": 14.375,
                "end_time": 14.425,
                "pitch": 57,
                "velocity": 80,
                "duration": 0.05,
                "tempo": 120.0
            },
            {
                "start_time": 14.4772727,
                "end_time": 14.6272727,
                "pitch": 45,
                "velocity": 101,
                "duration": 0.15,
                "tempo": 120.0
            },
            {
                "start_time": 14.6772727,
                "end_time": 14.7272727,
                "pitch": 45,
                "velocity": 101,
                "duration": 0.05,
                "tempo": 120.0
            },
            {
                "start_time": 14.7795455,
                "end_time": 14.8272727,
                "pitch": 57,
                "velocity": 80,
                "duration": 0.0477273,
                "tempo": 120.0
            },
            {
                "start_time": 14.8795455,
                "end_time": 15.0295455,
                "pitch": 45,
                "velocity": 101,
                "duration": 0.15,
                "tempo": 120.0
            },
            {
                "start_time": 15.0795455,
                "end_time": 15.1295455,
                "pitch": 45,
                "velocity": 101,
                "duration": 0.05,
                "tempo": 120.0
            },
            {
                "start_time": 15.1818182,
                "end_time": 15.2318182,
                "pitch": 57,
                "velocity": 80,
                "duration": 0.05,
                "tempo": 120.0
            },
            {
                "start_time": 15.2818182,
                "end_time": 15.4318182,
                "pitch": 45,
                "velocity": 101,
                "duration": 0.15,
                "tempo": 120.0
            },
            {
                "start_time": 15.4840909,
                "end_time": 15.5340909,
                "pitch": 45,
                "velocity": 101,
                "duration": 0.05,
                "tempo": 120.0
            },
            {
                "start_time": 15.5840909,
                "end_time": 15.6340909,
                "pitch": 57,
                "velocity": 80,
                "duration": 0.05,
                "tempo": 120.0
            },
            {
                "start_time": 15.6863636,
                "end_time": 15.8340909,
                "pitch": 45,
                "velocity": 101,
                "duration": 0.1477273,
                "tempo": 120.0
            },
            {
                "start_time": 15.8863636,
                "end_time": 15.9340909,
                "pitch": 45,
                "velocity": 101,
                "duration": 0.0477273,
                "tempo": 120.0
            },
            {
                "start_time": 15.9863636,
                "end_time": 16.0363636,
                "pitch": 57,
                "velocity": 80,
                "duration": 0.05,
                "tempo": 120.0
            },
            {
                "start_time": 16.0886364,
                "end_time": 16.1363636,
                "pitch": 40,
                "velocity": 127,
                "duration": 0.0477273,
                "tempo": 120.0
            },
            {
                "start_time": 16.1863636,
                "end_time": 16.2363636,
                "pitch": 40,
                "velocity": 101,
                "duration": 0.05,
                "tempo": 120.0
            },
            {
                "start_time": 16.2863636,
                "end_time": 16.3363636,
                "pitch": 52,
                "velocity": 101,
                "duration": 0.05,
                "tempo": 120.0
            },
            {
                "start_time": 16.3886364,
                "end_time": 16.4386364,
                "pitch": 40,
                "velocity": 101,
                "duration": 0.05,
                "tempo": 120.0
            },
            {
                "start_time": 16.4886364,
                "end_time": 16.5386364,
                "pitch": 40,
                "velocity": 127,
                "duration": 0.05,
                "tempo": 120.0
            },
            {
                "start_time": 16.5909091,
                "end_time": 16.6386364,
                "pitch": 52,
                "velocity": 101,
                "duration": 0.0477273,
                "tempo": 120.0
            },
            {
                "start_time": 16.6909091,
                "end_time": 16.7409091,
                "pitch": 40,
                "velocity": 101,
                "duration": 0.05,
                "tempo": 120.0
            },
            {
                "start_time": 16.7909091,
                "end_time": 16.8409091,
                "pitch": 40,
                "velocity": 101,
                "duration": 0.05,
                "tempo": 120.0
            },
            {
                "start_time": 16.8931818,
                "end_time": 16.9409091,
                "pitch": 40,
                "velocity": 127,
                "duration": 0.0477273,
                "tempo": 120.0
            },
            {
                "start_time": 16.9931818,
                "end_time": 17.0409091,
                "pitch": 40,
                "velocity": 101,
                "duration": 0.0477273,
                "tempo": 120.0
            },
            {
                "start_time": 17.0931818,
                "end_time": 17.1409091,
                "pitch": 52,
                "velocity": 101,
                "duration": 0.0477273,
                "tempo": 120.0
            },
            {
                "start_time": 17.1931818,
                "end_time": 17.2431818,
                "pitch": 40,
                "velocity": 101,
                "duration": 0.05,
                "tempo": 120.0
            },
            {
                "start_time": 17.2931818,
                "end_time": 17.3431818,
                "pitch": 40,
                "velocity": 127,
                "duration": 0.05,
                "tempo": 120.0
            },
            {
                "start_time": 17.3931818,
                "end_time": 17.4431818,
                "pitch": 52,
                "velocity": 101,
                "duration": 0.05,
                "tempo": 120.0
            },
            {
                "start_time": 17.4931818,
                "end_time": 17.5431818,
                "pitch": 40,
                "velocity": 101,
                "duration": 0.05,
                "tempo": 120.0
            },
            {
                "start_time": 17.5931818,
                "end_time": 17.6431818,
                "pitch": 40,
                "velocity": 101,
                "duration": 0.05,
                "tempo": 120.0
            },
            {
                "start_time": 17.6954545,
                "end_time": 17.7431818,
                "pitch": 40,
                "velocity": 127,
                "duration": 0.0477273,
                "tempo": 120.0
            },
            {
                "start_time": 17.7954545,
                "end_time": 17.8477273,
                "pitch": 40,
                "velocity": 101,
                "duration": 0.0522727,
                "tempo": 120.0
            },
            {
                "start_time": 17.8977273,
                "end_time": 17.95,
                "pitch": 52,
                "velocity": 101,
                "duration": 0.0522727,
                "tempo": 120.0
            },
            {
                "start_time": 18.0022727,
                "end_time": 18.0522727,
                "pitch": 40,
                "velocity": 101,
                "duration": 0.05,
                "tempo": 120.0
            },
            {
                "start_time": 18.1045455,
                "end_time": 18.1522727,
                "pitch": 40,
                "velocity": 127,
                "duration": 0.0477273,
                "tempo": 120.0
            },
            {
                "start_time": 18.2022727,
                "end_time": 18.2522727,
                "pitch": 52,
                "velocity": 101,
                "duration": 0.05,
                "tempo": 120.0
            },
            {
                "start_time": 18.3,
                "end_time": 18.35,
                "pitch": 40,
                "velocity": 101,
                "duration": 0.05,
                "tempo": 120.0
            },
            {
                "start_time": 18.4,
                "end_time": 18.4477273,
                "pitch": 40,
                "velocity": 101,
                "duration": 0.0477273,
                "tempo": 120.0
            },
            {
                "start_time": 18.4977273,
                "end_time": 18.5477273,
                "pitch": 40,
                "velocity": 127,
                "duration": 0.05,
                "tempo": 120.0
            },
            {
                "start_time": 18.6,
                "end_time": 18.65,
                "pitch": 40,
                "velocity": 101,
                "duration": 0.05,
                "tempo": 120.0
            },
            {
                "start_time": 18.7022727,
                "end_time": 18.7522727,
                "pitch": 52,
                "velocity": 101,
                "duration": 0.05,
                "tempo": 120.0
            },
            {
                "start_time": 18.8068182,
                "end_time": 18.8568182,
                "pitch": 40,
                "velocity": 101,
                "duration": 0.05,
                "tempo": 120.0
            },
            {
                "start_time": 18.9090909,
                "end_time": 18.9568182,
                "pitch": 40,
                "velocity": 127,
                "duration": 0.0477273,
                "tempo": 120.0
            },
            {
                "start_time": 19.0068182,
                "end_time": 19.0545455,
                "pitch": 52,
                "velocity": 101,
                "duration": 0.0477273,
                "tempo": 120.0
            },
            {
                "start_time": 19.1045455,
                "end_time": 19.1522727,
                "pitch": 40,
                "velocity": 101,
                "duration": 0.0477273,
                "tempo": 120.0
            },
            {
                "start_time": 19.2022727,
                "end_time": 19.2522727,
                "pitch": 40,
                "velocity": 101,
                "duration": 0.05,
                "tempo": 120.0
            },
            {
                "start_time": 19.3022727,
                "end_time": 19.4545455,
                "pitch": 45,
                "velocity": 101,
                "duration": 0.1522727,
                "tempo": 120.0
            },
            {
                "start_time": 19.5068182,
                "end_time": 19.5568182,
                "pitch": 45,
                "velocity": 101,
                "duration": 0.05,
                "tempo": 120.0
            },
            {
                "start_time": 19.6113636,
                "end_time": 19.6590909,
                "pitch": 57,
                "velocity": 80,
                "duration": 0.0477273,
                "tempo": 120.0
            },
            {
                "start_time": 19.7136364,
                "end_time": 19.8590909,
                "pitch": 45,
                "velocity": 101,
                "duration": 0.1454545,
                "tempo": 120.0
            },
            {
                "start_time": 19.9090909,
                "end_time": 19.9568182,
                "pitch": 45,
                "velocity": 101,
                "duration": 0.0477273,
                "tempo": 120.0
            },
            {
                "start_time": 20.0068182,
                "end_time": 20.0545455,
                "pitch": 57,
                "velocity": 80,
                "duration": 0.0477273,
                "tempo": 120.0
            },
            {
                "start_time": 20.1045455,
                "end_time": 20.2545455,
                "pitch": 45,
                "velocity": 101,
                "duration": 0.15,
                "tempo": 120.0
            },
            {
                "start_time": 20.3045455,
                "end_time": 20.3545455,
                "pitch": 45,
                "velocity": 101,
                "duration": 0.05,
                "tempo": 120.0
            },
            {
                "start_time": 20.4045455,
                "end_time": 20.4545455,
                "pitch": 57,
                "velocity": 80,
                "duration": 0.05,
                "tempo": 120.0
            },
            {
                "start_time": 20.5068182,
                "end_time": 20.6568182,
                "pitch": 45,
                "velocity": 101,
                "duration": 0.15,
                "tempo": 120.0
            },
            {
                "start_time": 20.7068182,
                "end_time": 20.7568182,
                "pitch": 45,
                "velocity": 101,
                "duration": 0.05,
                "tempo": 120.0
            },
            {
                "start_time": 20.8068182,
                "end_time": 20.8568182,
                "pitch": 57,
                "velocity": 80,
                "duration": 0.05,
                "tempo": 120.0
            },
            {
                "start_time": 20.9090909,
                "end_time": 21.0613636,
                "pitch": 45,
                "velocity": 101,
                "duration": 0.1522727,
                "tempo": 120.0
            },
            {
                "start_time": 21.1136364,
                "end_time": 21.1636364,
                "pitch": 45,
                "velocity": 101,
                "duration": 0.05,
                "tempo": 120.0
            },
            {
                "start_time": 21.2181818,
                "end_time": 21.2681818,
                "pitch": 57,
                "velocity": 80,
                "duration": 0.05,
                "tempo": 120.0
            },
            {
                "start_time": 21.3204545,
                "end_time": 21.4704545,
                "pitch": 45,
                "velocity": 101,
                "duration": 0.15,
                "tempo": 120.0
            },
            {
                "start_time": 21.5204545,
                "end_time": 21.5704545,
                "pitch": 45,
                "velocity": 101,
                "duration": 0.05,
                "tempo": 120.0
            },
            {
                "start_time": 21.6227273,
                "end_time": 21.6727273,
                "pitch": 57,
                "velocity": 80,
                "duration": 0.05,
                "tempo": 120.0
            },
            {
                "start_time": 21.7227273,
                "end_time": 21.8727273,
                "pitch": 45,
                "velocity": 101,
                "duration": 0.15,
                "tempo": 120.0
            },
            {
                "start_time": 21.9227273,
                "end_time": 21.9727273,
                "pitch": 45,
                "velocity": 101,
                "duration": 0.05,
                "tempo": 120.0
            },
            {
                "start_time": 22.0227273,
                "end_time": 22.0727273,
                "pitch": 57,
                "velocity": 80,
                "duration": 0.05,
                "tempo": 120.0
            },
            {
                "start_time": 22.125,
                "end_time": 22.275,
                "pitch": 45,
                "velocity": 101,
                "duration": 0.15,
                "tempo": 120.0
            },
            {
                "start_time": 22.325,
                "end_time": 22.375,
                "pitch": 45,
                "velocity": 101,
                "duration": 0.05,
                "tempo": 120.0
            },
            {
                "start_time": 22.4272727,
                "end_time": 22.475,
                "pitch": 57,
                "velocity": 80,
                "duration": 0.0477273,
                "tempo": 120.0
            },
            {
                "start_time": 22.5295455,
                "end_time": 22.6772727,
                "pitch": 45,
                "velocity": 101,
                "duration": 0.1477273,
                "tempo": 120.0
            },
            {
                "start_time": 22.7272727,
                "end_time": 22.7772727,
                "pitch": 45,
                "velocity": 101,
                "duration": 0.05,
                "tempo": 120.0
            },
            {
                "start_time": 22.8272727,
                "end_time": 22.8772727,
                "pitch": 57,
                "velocity": 80,
                "duration": 0.05,
                "tempo": 120.0
            },
            {
                "start_time": 22.9295455,
                "end_time": 23.0772727,
                "pitch": 45,
                "velocity": 101,
                "duration": 0.1477273,
                "tempo": 120.0
            },
            {
                "start_time": 23.1272727,
                "end_time": 23.1772727,
                "pitch": 45,
                "velocity": 101,
                "duration": 0.05,
                "tempo": 120.0
            },
            {
                "start_time": 23.2295455,
                "end_time": 23.2772727,
                "pitch": 57,
                "velocity": 80,
                "duration": 0.0477273,
                "tempo": 120.0
            },
            {
                "start_time": 23.3295455,
                "end_time": 23.4772727,
                "pitch": 45,
                "velocity": 101,
                "duration": 0.1477273,
                "tempo": 120.0
            },
            {
                "start_time": 23.5295455,
                "end_time": 23.5795455,
                "pitch": 45,
                "velocity": 101,
                "duration": 0.05,
                "tempo": 120.0
            },
            {
                "start_time": 23.6318182,
                "end_time": 23.6795455,
                "pitch": 57,
                "velocity": 80,
                "duration": 0.0477273,
                "tempo": 120.0
            },
            {
                "start_time": 23.7318182,
                "end_time": 23.8795455,
                "pitch": 45,
                "velocity": 101,
                "duration": 0.1477273,
                "tempo": 120.0
            },
            {
                "start_time": 23.9318182,
                "end_time": 23.9818182,
                "pitch": 45,
                "velocity": 101,
                "duration": 0.05,
                "tempo": 120.0
            },
            {
                "start_time": 24.0318182,
                "end_time": 24.0818182,
                "pitch": 57,
                "velocity": 80,
                "duration": 0.05,
                "tempo": 120.0
            },
            {
                "start_time": 24.1340909,
                "end_time": 24.2818182,
                "pitch": 45,
                "velocity": 101,
                "duration": 0.1477273,
                "tempo": 120.0
            },
            {
                "start_time": 24.3340909,
                "end_time": 24.3818182,
                "pitch": 45,
                "velocity": 101,
                "duration": 0.0477273,
                "tempo": 120.0
            },
            {
                "start_time": 24.4340909,
                "end_time": 24.4840909,
                "pitch": 57,
                "velocity": 80,
                "duration": 0.05,
                "tempo": 120.0
            },
            {
                "start_time": 24.5363636,
                "end_time": 24.6840909,
                "pitch": 45,
                "velocity": 101,
                "duration": 0.1477273,
                "tempo": 120.0
            },
            {
                "start_time": 24.7363636,
                "end_time": 24.7840909,
                "pitch": 45,
                "velocity": 101,
                "duration": 0.0477273,
                "tempo": 120.0
            },
            {
                "start_time": 24.8363636,
                "end_time": 24.8840909,
                "pitch": 57,
                "velocity": 80,
                "duration": 0.0477273,
                "tempo": 120.0
            },
            {
                "start_time": 24.9363636,
                "end_time": 25.0840909,
                "pitch": 45,
                "velocity": 101,
                "duration": 0.1477273,
                "tempo": 120.0
            },
            {
                "start_time": 25.1363636,
                "end_time": 25.1840909,
                "pitch": 45,
                "velocity": 101,
                "duration": 0.0477273,
                "tempo": 120.0
            },
            {
                "start_time": 25.2363636,
                "end_time": 25.2840909,
                "pitch": 57,
                "velocity": 80,
                "duration": 0.0477273,
                "tempo": 120.0
            },
            {
                "start_time": 25.3363636,
                "end_time": 25.4863636,
                "pitch": 45,
                "velocity": 101,
                "duration": 0.15,
                "tempo": 120.0
            },
            {
                "start_time": 25.5386364,
                "end_time": 25.5863636,
                "pitch": 45,
                "velocity": 101,
                "duration": 0.0477273,
                "tempo": 120.0
            },
            {
                "start_time": 25.6386364,
                "end_time": 25.6886364,
                "pitch": 57,
                "velocity": 80,
                "duration": 0.05,
                "tempo": 120.0
            },
            {
                "start_time": 25.7431818,
                "end_time": 25.8931818,
                "pitch": 45,
                "velocity": 101,
                "duration": 0.15,
                "tempo": 120.0
            },
            {
                "start_time": 25.9454545,
                "end_time": 25.9954545,
                "pitch": 45,
                "velocity": 101,
                "duration": 0.05,
                "tempo": 120.0
            },
            {
                "start_time": 26.0477273,
                "end_time": 26.0977273,
                "pitch": 57,
                "velocity": 80,
                "duration": 0.05,
                "tempo": 120.0
            },
            {
                "start_time": 26.1522727,
                "end_time": 26.2977273,
                "pitch": 45,
                "velocity": 101,
                "duration": 0.1454545,
                "tempo": 120.0
            },
            {
                "start_time": 26.3477273,
                "end_time": 26.3954545,
                "pitch": 45,
                "velocity": 101,
                "duration": 0.0477273,
                "tempo": 120.0
            },
            {
                "start_time": 26.4454545,
                "end_time": 26.4931818,
                "pitch": 57,
                "velocity": 80,
                "duration": 0.0477273,
                "tempo": 120.0
            },
            {
                "start_time": 26.5454545,
                "end_time": 26.6931818,
                "pitch": 45,
                "velocity": 101,
                "duration": 0.1477273,
                "tempo": 120.0
            },
            {
                "start_time": 26.7431818,
                "end_time": 26.7931818,
                "pitch": 45,
                "velocity": 101,
                "duration": 0.05,
                "tempo": 120.0
            },
            {
                "start_time": 26.8454545,
                "end_time": 26.8931818,
                "pitch": 57,
                "velocity": 80,
                "duration": 0.0477273,
                "tempo": 120.0
            },
            {
                "start_time": 26.9454545,
                "end_time": 27.0931818,
                "pitch": 45,
                "velocity": 101,
                "duration": 0.1477273,
                "tempo": 120.0
            },
            {
                "start_time": 27.1454545,
                "end_time": 27.1931818,
                "pitch": 45,
                "velocity": 101,
                "duration": 0.0477273,
                "tempo": 120.0
            },
            {
                "start_time": 27.2454545,
                "end_time": 27.2931818,
                "pitch": 57,
                "velocity": 80,
                "duration": 0.0477273,
                "tempo": 120.0
            },
            {
                "start_time": 27.3477273,
                "end_time": 27.4977273,
                "pitch": 45,
                "velocity": 101,
                "duration": 0.15,
                "tempo": 120.0
            },
            {
                "start_time": 27.55,
                "end_time": 27.6,
                "pitch": 45,
                "velocity": 101,
                "duration": 0.05,
                "tempo": 120.0
            },
            {
                "start_time": 27.6545455,
                "end_time": 27.7022727,
                "pitch": 57,
                "velocity": 80,
                "duration": 0.0477273,
                "tempo": 120.0
            },
            {
                "start_time": 27.7568182,
                "end_time": 27.9022727,
                "pitch": 45,
                "velocity": 101,
                "duration": 0.1454545,
                "tempo": 120.0
            },
            {
                "start_time": 27.9522727,
                "end_time": 28.0,
                "pitch": 45,
                "velocity": 101,
                "duration": 0.0477273,
                "tempo": 120.0
            },
            {
                "start_time": 28.05,
                "end_time": 28.0977273,
                "pitch": 57,
                "velocity": 80,
                "duration": 0.0477273,
                "tempo": 120.0
            },
            {
                "start_time": 28.15,
                "end_time": 28.3,
                "pitch": 45,
                "velocity": 101,
                "duration": 0.15,
                "tempo": 120.0
            },
            {
                "start_time": 28.3545455,
                "end_time": 28.4045455,
                "pitch": 45,
                "velocity": 101,
                "duration": 0.05,
                "tempo": 120.0
            },
            {
                "start_time": 28.4568182,
                "end_time": 28.5068182,
                "pitch": 57,
                "velocity": 80,
                "duration": 0.05,
                "tempo": 120.0
            },
            {
                "start_time": 28.5590909,
                "end_time": 28.7045455,
                "pitch": 45,
                "velocity": 101,
                "duration": 0.1454545,
                "tempo": 120.0
            },
            {
                "start_time": 28.7568182,
                "end_time": 28.8045455,
                "pitch": 45,
                "velocity": 101,
                "duration": 0.0477273,
                "tempo": 120.0
            },
            {
                "start_time": 28.8545455,
                "end_time": 28.9022727,
                "pitch": 57,
                "velocity": 80,
                "duration": 0.0477273,
                "tempo": 120.0
            },
            {
                "start_time": 28.9568182,
                "end_time": 29.0022727,
                "pitch": 40,
                "velocity": 127,
                "duration": 0.0454545,
                "tempo": 120.0
            },
            {
                "start_time": 29.0545455,
                "end_time": 29.1045455,
                "pitch": 40,
                "velocity": 101,
                "duration": 0.05,
                "tempo": 120.0
            },
            {
                "start_time": 29.1568182,
                "end_time": 29.2068182,
                "pitch": 52,
                "velocity": 101,
                "duration": 0.05,
                "tempo": 120.0
            },
            {
                "start_time": 29.2613636,
                "end_time": 29.3113636,
                "pitch": 40,
                "velocity": 101,
                "duration": 0.05,
                "tempo": 120.0
            },
            {
                "start_time": 29.3636364,
                "end_time": 29.4113636,
                "pitch": 40,
                "velocity": 127,
                "duration": 0.0477273,
                "tempo": 120.0
            },
            {
                "start_time": 29.4613636,
                "end_time": 29.5090909,
                "pitch": 52,
                "velocity": 101,
                "duration": 0.0477273,
                "tempo": 120.0
            },
            {
                "start_time": 29.5590909,
                "end_time": 29.6068182,
                "pitch": 40,
                "velocity": 101,
                "duration": 0.0477273,
                "tempo": 120.0
            },
            {
                "start_time": 29.6568182,
                "end_time": 29.7045455,
                "pitch": 40,
                "velocity": 101,
                "duration": 0.0477273,
                "tempo": 120.0
            },
            {
                "start_time": 29.7568182,
                "end_time": 29.8045455,
                "pitch": 40,
                "velocity": 127,
                "duration": 0.0477273,
                "tempo": 120.0
            },
            {
                "start_time": 29.8590909,
                "end_time": 29.9090909,
                "pitch": 40,
                "velocity": 101,
                "duration": 0.05,
                "tempo": 120.0
            },
            {
                "start_time": 29.9613636,
                "end_time": 30.0113636,
                "pitch": 52,
                "velocity": 101,
                "duration": 0.05,
                "tempo": 120.0
            },
            {
                "start_time": 30.0636364,
                "end_time": 30.1136364,
                "pitch": 40,
                "velocity": 101,
                "duration": 0.05,
                "tempo": 120.0
            },
            {
                "start_time": 30.1659091,
                "end_time": 30.2159091,
                "pitch": 40,
                "velocity": 127,
                "duration": 0.05,
                "tempo": 120.0
            },
            {
                "start_time": 30.2659091,
                "end_time": 30.3159091,
                "pitch": 52,
                "velocity": 101,
                "duration": 0.05,
                "tempo": 120.0
            },
            {
                "start_time": 30.3659091,
                "end_time": 30.4159091,
                "pitch": 40,
                "velocity": 101,
                "duration": 0.05,
                "tempo": 120.0
            },
            {
                "start_time": 30.4659091,
                "end_time": 30.5159091,
                "pitch": 40,
                "velocity": 101,
                "duration": 0.05,
                "tempo": 120.0
            },
            {
                "start_time": 30.5681818,
                "end_time": 30.6159091,
                "pitch": 40,
                "velocity": 127,
                "duration": 0.0477273,
                "tempo": 120.0
            },
            {
                "start_time": 30.6681818,
                "end_time": 30.7181818,
                "pitch": 40,
                "velocity": 101,
                "duration": 0.05,
                "tempo": 120.0
            },
            {
                "start_time": 30.7681818,
                "end_time": 30.8181818,
                "pitch": 52,
                "velocity": 101,
                "duration": 0.05,
                "tempo": 120.0
            },
            {
                "start_time": 30.8704545,
                "end_time": 30.9181818,
                "pitch": 40,
                "velocity": 101,
                "duration": 0.0477273,
                "tempo": 120.0
            },
            {
                "start_time": 30.9704545,
                "end_time": 31.0204545,
                "pitch": 40,
                "velocity": 127,
                "duration": 0.05,
                "tempo": 120.0
            },
            {
                "start_time": 31.0704545,
                "end_time": 31.1204545,
                "pitch": 52,
                "velocity": 101,
                "duration": 0.05,
                "tempo": 120.0
            },
            {
                "start_time": 31.1704545,
                "end_time": 31.2204545,
                "pitch": 40,
                "velocity": 101,
                "duration": 0.05,
                "tempo": 120.0
            },
            {
                "start_time": 31.2704545,
                "end_time": 31.3204545,
                "pitch": 40,
                "velocity": 101,
                "duration": 0.05,
                "tempo": 120.0
            },
            {
                "start_time": 31.3727273,
                "end_time": 31.4204545,
                "pitch": 40,
                "velocity": 127,
                "duration": 0.0477273,
                "tempo": 120.0
            },
            {
                "start_time": 31.4727273,
                "end_time": 31.5204545,
                "pitch": 40,
                "velocity": 101,
                "duration": 0.0477273,
                "tempo": 120.0
            },
            {
                "start_time": 31.5727273,
                "end_time": 31.6204545,
                "pitch": 52,
                "velocity": 101,
                "duration": 0.0477273,
                "tempo": 120.0
            },
            {
                "start_time": 31.6727273,
                "end_time": 31.7204545,
                "pitch": 40,
                "velocity": 101,
                "duration": 0.0477273,
                "tempo": 120.0
            },
            {
                "start_time": 31.7704545,
                "end_time": 31.8204545,
                "pitch": 40,
                "velocity": 127,
                "duration": 0.05,
                "tempo": 120.0
            },
            {
                "start_time": 31.8727273,
                "end_time": 31.9227273,
                "pitch": 52,
                "velocity": 101,
                "duration": 0.05,
                "tempo": 120.0
            },
            {
                "start_time": 31.9727273,
                "end_time": 32.0227273,
                "pitch": 40,
                "velocity": 101,
                "duration": 0.05,
                "tempo": 120.0
            },
            {
                "start_time": 32.0727273,
                "end_time": 32.1227273,
                "pitch": 40,
                "velocity": 101,
                "duration": 0.05,
                "tempo": 120.0
            },
            {
                "start_time": 32.1772727,
                "end_time": 32.325,
                "pitch": 45,
                "velocity": 101,
                "duration": 0.1477273,
                "tempo": 120.0
            },
            {
                "start_time": 32.375,
                "end_time": 32.425,
                "pitch": 45,
                "velocity": 101,
                "duration": 0.05,
                "tempo": 120.0
            },
            {
                "start_time": 32.4772727,
                "end_time": 32.525,
                "pitch": 57,
                "velocity": 80,
                "duration": 0.0477273,
                "tempo": 120.0
            },
            {
                "start_time": 32.575,
                "end_time": 32.725,
                "pitch": 45,
                "velocity": 101,
                "duration": 0.15,
                "tempo": 120.0
            },
            {
                "start_time": 32.775,
                "end_time": 32.825,
                "pitch": 45,
                "velocity": 101,
                "duration": 0.05,
                "tempo": 120.0
            },
            {
                "start_time": 32.875,
                "end_time": 32.925,
                "pitch": 57,
                "velocity": 80,
                "duration": 0.05,
                "tempo": 120.0
            },
            {
                "start_time": 32.975,
                "end_time": 33.125,
                "pitch": 45,
                "velocity": 101,
                "duration": 0.15,
                "tempo": 120.0
            },
            {
                "start_time": 33.1772727,
                "end_time": 33.2272727,
                "pitch": 45,
                "velocity": 101,
                "duration": 0.05,
                "tempo": 120.0
            },
            {
                "start_time": 33.2772727,
                "end_time": 33.3272727,
                "pitch": 57,
                "velocity": 80,
                "duration": 0.05,
                "tempo": 120.0
            },
            {
                "start_time": 33.3795455,
                "end_time": 33.5272727,
                "pitch": 45,
                "velocity": 101,
                "duration": 0.1477273,
                "tempo": 120.0
            },
            {
                "start_time": 33.5795455,
                "end_time": 33.6272727,
                "pitch": 45,
                "velocity": 101,
                "duration": 0.0477273,
                "tempo": 120.0
            },
            {
                "start_time": 33.6795455,
                "end_time": 33.7295455,
                "pitch": 57,
                "velocity": 80,
                "duration": 0.05,
                "tempo": 120.0
            },
            {
                "start_time": 33.7818182,
                "end_time": 33.9295455,
                "pitch": 45,
                "velocity": 101,
                "duration": 0.1477273,
                "tempo": 120.0
            },
            {
                "start_time": 33.9795455,
                "end_time": 34.0295455,
                "pitch": 45,
                "velocity": 101,
                "duration": 0.05,
                "tempo": 120.0
            },
            {
                "start_time": 34.0818182,
                "end_time": 34.1295455,
                "pitch": 57,
                "velocity": 80,
                "duration": 0.0477273,
                "tempo": 120.0
            },
            {
                "start_time": 34.1795455,
                "end_time": 34.3295455,
                "pitch": 45,
                "velocity": 101,
                "duration": 0.15,
                "tempo": 120.0
            },
            {
                "start_time": 34.3795455,
                "end_time": 34.4295455,
                "pitch": 45,
                "velocity": 101,
                "duration": 0.05,
                "tempo": 120.0
            },
            {
                "start_time": 34.4795455,
                "end_time": 34.5295455,
                "pitch": 57,
                "velocity": 80,
                "duration": 0.05,
                "tempo": 120.0
            },
            {
                "start_time": 34.5818182,
                "end_time": 34.7295455,
                "pitch": 45,
                "velocity": 101,
                "duration": 0.1477273,
                "tempo": 120.0
            },
            {
                "start_time": 34.7795455,
                "end_time": 34.8295455,
                "pitch": 45,
                "velocity": 101,
                "duration": 0.05,
                "tempo": 120.0
            },
            {
                "start_time": 34.8818182,
                "end_time": 34.9295455,
                "pitch": 57,
                "velocity": 80,
                "duration": 0.0477273,
                "tempo": 120.0
            },
            {
                "start_time": 34.9818182,
                "end_time": 35.1318182,
                "pitch": 45,
                "velocity": 101,
                "duration": 0.15,
                "tempo": 120.0
            },
            {
                "start_time": 35.1818182,
                "end_time": 35.2318182,
                "pitch": 45,
                "velocity": 101,
                "duration": 0.05,
                "tempo": 120.0
            },
            {
                "start_time": 35.2840909,
                "end_time": 35.3318182,
                "pitch": 57,
                "velocity": 80,
                "duration": 0.0477273,
                "tempo": 120.0
            },
            {
                "start_time": 35.3863636,
                "end_time": 35.4340909,
                "pitch": 40,
                "velocity": 127,
                "duration": 0.0477273,
                "tempo": 120.0
            },
            {
                "start_time": 35.4863636,
                "end_time": 35.5363636,
                "pitch": 40,
                "velocity": 101,
                "duration": 0.05,
                "tempo": 120.0
            },
            {
                "start_time": 35.5886364,
                "end_time": 35.6409091,
                "pitch": 52,
                "velocity": 101,
                "duration": 0.0522727,
                "tempo": 120.0
            },
            {
                "start_time": 35.6931818,
                "end_time": 35.7431818,
                "pitch": 40,
                "velocity": 101,
                "duration": 0.05,
                "tempo": 120.0
            },
            {
                "start_time": 35.7954545,
                "end_time": 35.8431818,
                "pitch": 40,
                "velocity": 127,
                "duration": 0.0477273,
                "tempo": 120.0
            },
            {
                "start_time": 35.8931818,
                "end_time": 35.9409091,
                "pitch": 52,
                "velocity": 101,
                "duration": 0.0477273,
                "tempo": 120.0
            },
            {
                "start_time": 35.9931818,
                "end_time": 36.0409091,
                "pitch": 40,
                "velocity": 101,
                "duration": 0.0477273,
                "tempo": 120.0
            },
            {
                "start_time": 36.0909091,
                "end_time": 36.1386364,
                "pitch": 40,
                "velocity": 101,
                "duration": 0.0477273,
                "tempo": 120.0
            },
            {
                "start_time": 36.1886364,
                "end_time": 36.2386364,
                "pitch": 40,
                "velocity": 127,
                "duration": 0.05,
                "tempo": 120.0
            },
            {
                "start_time": 36.2909091,
                "end_time": 36.3409091,
                "pitch": 40,
                "velocity": 101,
                "duration": 0.05,
                "tempo": 120.0
            },
            {
                "start_time": 36.3931818,
                "end_time": 36.4431818,
                "pitch": 52,
                "velocity": 101,
                "duration": 0.05,
                "tempo": 120.0
            },
            {
                "start_time": 36.4977273,
                "end_time": 36.5477273,
                "pitch": 40,
                "velocity": 101,
                "duration": 0.05,
                "tempo": 120.0
            },
            {
                "start_time": 36.6,
                "end_time": 36.6477273,
                "pitch": 40,
                "velocity": 127,
                "duration": 0.0477273,
                "tempo": 120.0
            },
            {
                "start_time": 36.6977273,
                "end_time": 36.7454545,
                "pitch": 52,
                "velocity": 101,
                "duration": 0.0477273,
                "tempo": 120.0
            },
            {
                "start_time": 36.7954545,
                "end_time": 36.8431818,
                "pitch": 40,
                "velocity": 101,
                "duration": 0.0477273,
                "tempo": 120.0
            },
            {
                "start_time": 36.8931818,
                "end_time": 36.9409091,
                "pitch": 40,
                "velocity": 101,
                "duration": 0.0477273,
                "tempo": 120.0
            },
            {
                "start_time": 36.9931818,
                "end_time": 37.0409091,
                "pitch": 40,
                "velocity": 127,
                "duration": 0.0477273,
                "tempo": 120.0
            },
            {
                "start_time": 37.0954545,
                "end_time": 37.1454545,
                "pitch": 40,
                "velocity": 101,
                "duration": 0.05,
                "tempo": 120.0
            },
            {
                "start_time": 37.1977273,
                "end_time": 37.2477273,
                "pitch": 52,
                "velocity": 101,
                "duration": 0.05,
                "tempo": 120.0
            },
            {
                "start_time": 37.3,
                "end_time": 37.35,
                "pitch": 40,
                "velocity": 101,
                "duration": 0.05,
                "tempo": 120.0
            },
            {
                "start_time": 37.4022727,
                "end_time": 37.4522727,
                "pitch": 40,
                "velocity": 127,
                "duration": 0.05,
                "tempo": 120.0
            },
            {
                "start_time": 37.5045455,
                "end_time": 37.5522727,
                "pitch": 52,
                "velocity": 101,
                "duration": 0.0477273,
                "tempo": 120.0
            },
            {
                "start_time": 37.6045455,
                "end_time": 37.6522727,
                "pitch": 40,
                "velocity": 101,
                "duration": 0.0477273,
                "tempo": 120.0
            },
            {
                "start_time": 37.7045455,
                "end_time": 37.7522727,
                "pitch": 40,
                "velocity": 101,
                "duration": 0.0477273,
                "tempo": 120.0
            },
            {
                "start_time": 37.8045455,
                "end_time": 37.8522727,
                "pitch": 40,
                "velocity": 127,
                "duration": 0.0477273,
                "tempo": 120.0
            },
            {
                "start_time": 37.9045455,
                "end_time": 37.9522727,
                "pitch": 40,
                "velocity": 101,
                "duration": 0.0477273,
                "tempo": 120.0
            },
            {
                "start_time": 38.0045455,
                "end_time": 38.0522727,
                "pitch": 52,
                "velocity": 101,
                "duration": 0.0477273,
                "tempo": 120.0
            },
            {
                "start_time": 38.1045455,
                "end_time": 38.1522727,
                "pitch": 40,
                "velocity": 101,
                "duration": 0.0477273,
                "tempo": 120.0
            },
            {
                "start_time": 38.2045455,
                "end_time": 38.2522727,
                "pitch": 40,
                "velocity": 127,
                "duration": 0.0477273,
                "tempo": 120.0
            },
            {
                "start_time": 38.3022727,
                "end_time": 38.35,
                "pitch": 52,
                "velocity": 101,
                "duration": 0.0477273,
                "tempo": 120.0
            },
            {
                "start_time": 38.4,
                "end_time": 38.4477273,
                "pitch": 40,
                "velocity": 101,
                "duration": 0.0477273,
                "tempo": 120.0
            },
            {
                "start_time": 38.5,
                "end_time": 38.5477273,
                "pitch": 40,
                "velocity": 101,
                "duration": 0.0477273,
                "tempo": 120.0
            },
            {
                "start_time": 38.5977273,
                "end_time": 38.75,
                "pitch": 45,
                "velocity": 101,
                "duration": 0.1522727,
                "tempo": 120.0
            },
            {
                "start_time": 38.8022727,
                "end_time": 38.8522727,
                "pitch": 45,
                "velocity": 101,
                "duration": 0.05,
                "tempo": 120.0
            },
            {
                "start_time": 38.9068182,
                "end_time": 38.9545455,
                "pitch": 57,
                "velocity": 80,
                "duration": 0.0477273,
                "tempo": 120.0
            },
            {
                "start_time": 39.0090909,
                "end_time": 39.1568182,
                "pitch": 45,
                "velocity": 101,
                "duration": 0.1477273,
                "tempo": 120.0
            },
            {
                "start_time": 39.2090909,
                "end_time": 39.2568182,
                "pitch": 45,
                "velocity": 101,
                "duration": 0.0477273,
                "tempo": 120.0
            },
            {
                "start_time": 39.3090909,
                "end_time": 39.3568182,
                "pitch": 57,
                "velocity": 80,
                "duration": 0.0477273,
                "tempo": 120.0
            },
            {
                "start_time": 39.4090909,
                "end_time": 39.5568182,
                "pitch": 45,
                "velocity": 101,
                "duration": 0.1477273,
                "tempo": 120.0
            },
            {
                "start_time": 39.6090909,
                "end_time": 39.6590909,
                "pitch": 45,
                "velocity": 101,
                "duration": 0.05,
                "tempo": 120.0
            },
            {
                "start_time": 39.7090909,
                "end_time": 39.7590909,
                "pitch": 57,
                "velocity": 80,
                "duration": 0.05,
                "tempo": 120.0
            },
            {
                "start_time": 39.8090909,
                "end_time": 39.9590909,
                "pitch": 45,
                "velocity": 101,
                "duration": 0.15,
                "tempo": 120.0
            },
            {
                "start_time": 40.0090909,
                "end_time": 40.0590909,
                "pitch": 45,
                "velocity": 101,
                "duration": 0.05,
                "tempo": 120.0
            },
            {
                "start_time": 40.1090909,
                "end_time": 40.1590909,
                "pitch": 57,
                "velocity": 80,
                "duration": 0.05,
                "tempo": 120.0
            },
            {
                "start_time": 40.2113636,
                "end_time": 40.3590909,
                "pitch": 45,
                "velocity": 101,
                "duration": 0.1477273,
                "tempo": 120.0
            },
            {
                "start_time": 40.4090909,
                "end_time": 40.4590909,
                "pitch": 45,
                "velocity": 101,
                "duration": 0.05,
                "tempo": 120.0
            },
            {
                "start_time": 40.5113636,
                "end_time": 40.5590909,
                "pitch": 57,
                "velocity": 80,
                "duration": 0.0477273,
                "tempo": 120.0
            },
            {
                "start_time": 40.6113636,
                "end_time": 40.7613636,
                "pitch": 45,
                "velocity": 101,
                "duration": 0.15,
                "tempo": 120.0
            },
            {
                "start_time": 40.8113636,
                "end_time": 40.8613636,
                "pitch": 45,
                "velocity": 101,
                "duration": 0.05,
                "tempo": 120.0
            },
            {
                "start_time": 40.9136364,
                "end_time": 40.9613636,
                "pitch": 57,
                "velocity": 80,
                "duration": 0.0477273,
                "tempo": 120.0
            },
            {
                "start_time": 41.0136364,
                "end_time": 41.1636364,
                "pitch": 45,
                "velocity": 101,
                "duration": 0.15,
                "tempo": 120.0
            },
            {
                "start_time": 41.2136364,
                "end_time": 41.2636364,
                "pitch": 45,
                "velocity": 101,
                "duration": 0.05,
                "tempo": 120.0
            },
            {
                "start_time": 41.3136364,
                "end_time": 41.3636364,
                "pitch": 57,
                "velocity": 80,
                "duration": 0.05,
                "tempo": 120.0
            },
            {
                "start_time": 41.4136364,
                "end_time": 41.5636364,
                "pitch": 45,
                "velocity": 101,
                "duration": 0.15,
                "tempo": 120.0
            },
            {
                "start_time": 41.6136364,
                "end_time": 41.6636364,
                "pitch": 45,
                "velocity": 101,
                "duration": 0.05,
                "tempo": 120.0
            },
            {
                "start_time": 41.7136364,
                "end_time": 41.7636364,
                "pitch": 57,
                "velocity": 80,
                "duration": 0.05,
                "tempo": 120.0
            },
            {
                "start_time": 41.8159091,
                "end_time": 41.8636364,
                "pitch": 43,
                "velocity": 101,
                "duration": 0.0477273,
                "tempo": 120.0
            },
            {
                "start_time": 41.9181818,
                "end_time": 41.9681818,
                "pitch": 55,
                "velocity": 101,
                "duration": 0.05,
                "tempo": 120.0
            },
            {
                "start_time": 42.0204545,
                "end_time": 42.0704545,
                "pitch": 43,
                "velocity": 101,
                "duration": 0.05,
                "tempo": 120.0
            },
            {
                "start_time": 42.1227273,
                "end_time": 42.1727273,
                "pitch": 55,
                "velocity": 101,
                "duration": 0.05,
                "tempo": 120.0
            },
            {
                "start_time": 42.2272727,
                "end_time": 42.275,
                "pitch": 43,
                "velocity": 101,
                "duration": 0.0477273,
                "tempo": 120.0
            },
            {
                "start_time": 42.3272727,
                "end_time": 42.375,
                "pitch": 55,
                "velocity": 101,
                "duration": 0.0477273,
                "tempo": 120.0
            },
            {
                "start_time": 42.4272727,
                "end_time": 42.4772727,
                "pitch": 43,
                "velocity": 101,
                "duration": 0.05,
                "tempo": 120.0
            },
            {
                "start_time": 42.5272727,
                "end_time": 42.5772727,
                "pitch": 55,
                "velocity": 101,
                "duration": 0.05,
                "tempo": 120.0
            },
            {
                "start_time": 42.6295455,
                "end_time": 42.6772727,
                "pitch": 43,
                "velocity": 101,
                "duration": 0.0477273,
                "tempo": 120.0
            },
            {
                "start_time": 42.7272727,
                "end_time": 42.775,
                "pitch": 55,
                "velocity": 101,
                "duration": 0.0477273,
                "tempo": 120.0
            },
            {
                "start_time": 42.8272727,
                "end_time": 42.8727273,
                "pitch": 43,
                "velocity": 101,
                "duration": 0.0454545,
                "tempo": 120.0
            },
            {
                "start_time": 42.9227273,
                "end_time": 42.9704545,
                "pitch": 43,
                "velocity": 101,
                "duration": 0.0477273,
                "tempo": 120.0
            },
            {
                "start_time": 43.0227273,
                "end_time": 43.0727273,
                "pitch": 43,
                "velocity": 101,
                "duration": 0.05,
                "tempo": 120.0
            },
            {
                "start_time": 43.1227273,
                "end_time": 43.175,
                "pitch": 43,
                "velocity": 101,
                "duration": 0.0522727,
                "tempo": 120.0
            },
            {
                "start_time": 43.2272727,
                "end_time": 43.2772727,
                "pitch": 43,
                "velocity": 101,
                "duration": 0.05,
                "tempo": 120.0
            },
            {
                "start_time": 43.3295455,
                "end_time": 43.3795455,
                "pitch": 43,
                "velocity": 101,
                "duration": 0.05,
                "tempo": 120.0
            },
            {
                "start_time": 43.4340909,
                "end_time": 43.4818182,
                "pitch": 45,
                "velocity": 101,
                "duration": 0.0477273,
                "tempo": 120.0
            },
            {
                "start_time": 43.5318182,
                "end_time": 43.5795455,
                "pitch": 57,
                "velocity": 101,
                "duration": 0.0477273,
                "tempo": 120.0
            },
            {
                "start_time": 43.6295455,
                "end_time": 43.6772727,
                "pitch": 45,
                "velocity": 101,
                "duration": 0.0477273,
                "tempo": 120.0
            },
            {
                "start_time": 43.7272727,
                "end_time": 43.775,
                "pitch": 57,
                "velocity": 101,
                "duration": 0.0477273,
                "tempo": 120.0
            },
            {
                "start_time": 43.8272727,
                "end_time": 43.875,
                "pitch": 45,
                "velocity": 101,
                "duration": 0.0477273,
                "tempo": 120.0
            },
            {
                "start_time": 43.925,
                "end_time": 43.975,
                "pitch": 57,
                "velocity": 101,
                "duration": 0.05,
                "tempo": 120.0
            },
            {
                "start_time": 44.025,
                "end_time": 44.075,
                "pitch": 45,
                "velocity": 101,
                "duration": 0.05,
                "tempo": 120.0
            },
            {
                "start_time": 44.125,
                "end_time": 44.175,
                "pitch": 57,
                "velocity": 101,
                "duration": 0.05,
                "tempo": 120.0
            },
            {
                "start_time": 44.225,
                "end_time": 44.275,
                "pitch": 45,
                "velocity": 101,
                "duration": 0.05,
                "tempo": 120.0
            },
            {
                "start_time": 44.325,
                "end_time": 44.375,
                "pitch": 57,
                "velocity": 101,
                "duration": 0.05,
                "tempo": 120.0
            },
            {
                "start_time": 44.4272727,
                "end_time": 44.475,
                "pitch": 45,
                "velocity": 101,
                "duration": 0.0477273,
                "tempo": 120.0
            },
            {
                "start_time": 44.525,
                "end_time": 44.575,
                "pitch": 45,
                "velocity": 101,
                "duration": 0.05,
                "tempo": 120.0
            },
            {
                "start_time": 44.625,
                "end_time": 44.6772727,
                "pitch": 45,
                "velocity": 101,
                "duration": 0.0522727,
                "tempo": 120.0
            },
            {
                "start_time": 44.7295455,
                "end_time": 44.7795455,
                "pitch": 45,
                "velocity": 101,
                "duration": 0.05,
                "tempo": 120.0
            },
            {
                "start_time": 44.8318182,
                "end_time": 44.8818182,
                "pitch": 45,
                "velocity": 101,
                "duration": 0.05,
                "tempo": 120.0
            },
            {
                "start_time": 44.9340909,
                "end_time": 44.9863636,
                "pitch": 45,
                "velocity": 101,
                "duration": 0.0522727,
                "tempo": 120.0
            },
            {
                "start_time": 45.0386364,
                "end_time": 45.0863636,
                "pitch": 43,
                "velocity": 101,
                "duration": 0.0477273,
                "tempo": 120.0
            },
            {
                "start_time": 45.1363636,
                "end_time": 45.1840909,
                "pitch": 55,
                "velocity": 101,
                "duration": 0.0477273,
                "tempo": 120.0
            },
            {
                "start_time": 45.2340909,
                "end_time": 45.2818182,
                "pitch": 43,
                "velocity": 101,
                "duration": 0.0477273,
                "tempo": 120.0
            },
            {
                "start_time": 45.3318182,
                "end_time": 45.3795455,
                "pitch": 55,
                "velocity": 101,
                "duration": 0.0477273,
                "tempo": 120.0
            },
            {
                "start_time": 45.4318182,
                "end_time": 45.4795455,
                "pitch": 43,
                "velocity": 101,
                "duration": 0.0477273,
                "tempo": 120.0
            },
            {
                "start_time": 45.5295455,
                "end_time": 45.5795455,
                "pitch": 55,
                "velocity": 101,
                "duration": 0.05,
                "tempo": 120.0
            },
            {
                "start_time": 45.6295455,
                "end_time": 45.6795455,
                "pitch": 43,
                "velocity": 101,
                "duration": 0.05,
                "tempo": 120.0
            },
            {
                "start_time": 45.7295455,
                "end_time": 45.7795455,
                "pitch": 55,
                "velocity": 101,
                "duration": 0.05,
                "tempo": 120.0
            },
            {
                "start_time": 45.8318182,
                "end_time": 45.8795455,
                "pitch": 43,
                "velocity": 101,
                "duration": 0.0477273,
                "tempo": 120.0
            },
            {
                "start_time": 45.9295455,
                "end_time": 45.9795455,
                "pitch": 55,
                "velocity": 101,
                "duration": 0.05,
                "tempo": 120.0
            },
            {
                "start_time": 46.0318182,
                "end_time": 46.0795455,
                "pitch": 43,
                "velocity": 101,
                "duration": 0.0477273,
                "tempo": 120.0
            },
            {
                "start_time": 46.1318182,
                "end_time": 46.1795455,
                "pitch": 43,
                "velocity": 101,
                "duration": 0.0477273,
                "tempo": 120.0
            },
            {
                "start_time": 46.2318182,
                "end_time": 46.2795455,
                "pitch": 43,
                "velocity": 101,
                "duration": 0.0477273,
                "tempo": 120.0
            },
            {
                "start_time": 46.3318182,
                "end_time": 46.3795455,
                "pitch": 43,
                "velocity": 101,
                "duration": 0.0477273,
                "tempo": 120.0
            },
            {
                "start_time": 46.4318182,
                "end_time": 46.4818182,
                "pitch": 43,
                "velocity": 101,
                "duration": 0.05,
                "tempo": 120.0
            },
            {
                "start_time": 46.5318182,
                "end_time": 46.5818182,
                "pitch": 43,
                "velocity": 101,
                "duration": 0.05,
                "tempo": 120.0
            },
            {
                "start_time": 46.6318182,
                "end_time": 46.6818182,
                "pitch": 45,
                "velocity": 101,
                "duration": 0.05,
                "tempo": 120.0
            },
            {
                "start_time": 46.7340909,
                "end_time": 46.7840909,
                "pitch": 57,
                "velocity": 101,
                "duration": 0.05,
                "tempo": 120.0
            },
            {
                "start_time": 46.8386364,
                "end_time": 46.8886364,
                "pitch": 45,
                "velocity": 101,
                "duration": 0.05,
                "tempo": 120.0
            },
            {
                "start_time": 46.9409091,
                "end_time": 46.9909091,
                "pitch": 57,
                "velocity": 101,
                "duration": 0.05,
                "tempo": 120.0
            },
            {
                "start_time": 47.0431818,
                "end_time": 47.0909091,
                "pitch": 45,
                "velocity": 101,
                "duration": 0.0477273,
                "tempo": 120.0
            },
            {
                "start_time": 47.1409091,
                "end_time": 47.1886364,
                "pitch": 57,
                "velocity": 101,
                "duration": 0.0477273,
                "tempo": 120.0
            },
            {
                "start_time": 47.2386364,
                "end_time": 47.2863636,
                "pitch": 45,
                "velocity": 101,
                "duration": 0.0477273,
                "tempo": 120.0
            },
            {
                "start_time": 47.3363636,
                "end_time": 47.3863636,
                "pitch": 57,
                "velocity": 101,
                "duration": 0.05,
                "tempo": 120.0
            },
            {
                "start_time": 47.4363636,
                "end_time": 47.4840909,
                "pitch": 45,
                "velocity": 101,
                "duration": 0.0477273,
                "tempo": 120.0
            },
            {
                "start_time": 47.5363636,
                "end_time": 47.5840909,
                "pitch": 57,
                "velocity": 101,
                "duration": 0.0477273,
                "tempo": 120.0
            },
            {
                "start_time": 47.6363636,
                "end_time": 47.6840909,
                "pitch": 45,
                "velocity": 101,
                "duration": 0.0477273,
                "tempo": 120.0
            },
            {
                "start_time": 47.7363636,
                "end_time": 47.7840909,
                "pitch": 45,
                "velocity": 101,
                "duration": 0.0477273,
                "tempo": 120.0
            },
            {
                "start_time": 47.8363636,
                "end_time": 47.8863636,
                "pitch": 45,
                "velocity": 101,
                "duration": 0.05,
                "tempo": 120.0
            },
            {
                "start_time": 47.9363636,
                "end_time": 47.9863636,
                "pitch": 45,
                "velocity": 101,
                "duration": 0.05,
                "tempo": 120.0
            },
            {
                "start_time": 48.0363636,
                "end_time": 48.0863636,
                "pitch": 45,
                "velocity": 101,
                "duration": 0.05,
                "tempo": 120.0
            },
            {
                "start_time": 48.1363636,
                "end_time": 48.1863636,
                "pitch": 45,
                "velocity": 101,
                "duration": 0.05,
                "tempo": 120.0
            },
            {
                "start_time": 48.2386364,
                "end_time": 48.2863636,
                "pitch": 41,
                "velocity": 101,
                "duration": 0.0477273,
                "tempo": 120.0
            },
            {
                "start_time": 48.3363636,
                "end_time": 48.3863636,
                "pitch": 53,
                "velocity": 101,
                "duration": 0.05,
                "tempo": 120.0
            },
            {
                "start_time": 48.4386364,
                "end_time": 48.4863636,
                "pitch": 41,
                "velocity": 101,
                "duration": 0.0477273,
                "tempo": 120.0
            },
            {
                "start_time": 48.5363636,
                "end_time": 48.5863636,
                "pitch": 53,
                "velocity": 101,
                "duration": 0.05,
                "tempo": 120.0
            },
            {
                "start_time": 48.6386364,
                "end_time": 48.6863636,
                "pitch": 41,
                "velocity": 101,
                "duration": 0.0477273,
                "tempo": 120.0
            },
            {
                "start_time": 48.7386364,
                "end_time": 48.7886364,
                "pitch": 53,
                "velocity": 101,
                "duration": 0.05,
                "tempo": 120.0
            },
            {
                "start_time": 48.8386364,
                "end_time": 48.8886364,
                "pitch": 41,
                "velocity": 101,
                "duration": 0.05,
                "tempo": 120.0
            },
            {
                "start_time": 48.9386364,
                "end_time": 48.9886364,
                "pitch": 53,
                "velocity": 101,
                "duration": 0.05,
                "tempo": 120.0
            },
            {
                "start_time": 49.0409091,
                "end_time": 49.0886364,
                "pitch": 41,
                "velocity": 101,
                "duration": 0.0477273,
                "tempo": 120.0
            },
            {
                "start_time": 49.1409091,
                "end_time": 49.1886364,
                "pitch": 53,
                "velocity": 101,
                "duration": 0.0477273,
                "tempo": 120.0
            },
            {
                "start_time": 49.2409091,
                "end_time": 49.2909091,
                "pitch": 41,
                "velocity": 101,
                "duration": 0.05,
                "tempo": 120.0
            },
            {
                "start_time": 49.3409091,
                "end_time": 49.3909091,
                "pitch": 41,
                "velocity": 101,
                "duration": 0.05,
                "tempo": 120.0
            },
            {
                "start_time": 49.4409091,
                "end_time": 49.4909091,
                "pitch": 41,
                "velocity": 101,
                "duration": 0.05,
                "tempo": 120.0
            },
            {
                "start_time": 49.5431818,
                "end_time": 49.5931818,
                "pitch": 41,
                "velocity": 101,
                "duration": 0.05,
                "tempo": 120.0
            },
            {
                "start_time": 49.6454545,
                "end_time": 49.6977273,
                "pitch": 41,
                "velocity": 101,
                "duration": 0.0522727,
                "tempo": 120.0
            },
            {
                "start_time": 49.75,
                "end_time": 49.8,
                "pitch": 41,
                "velocity": 101,
                "duration": 0.05,
                "tempo": 120.0
            },
            {
                "start_time": 49.8545455,
                "end_time": 49.9022727,
                "pitch": 48,
                "velocity": 101,
                "duration": 0.0477273,
                "tempo": 120.0
            },
            {
                "start_time": 49.9522727,
                "end_time": 50.0022727,
                "pitch": 60,
                "velocity": 101,
                "duration": 0.05,
                "tempo": 120.0
            },
            {
                "start_time": 50.0545455,
                "end_time": 50.1022727,
                "pitch": 48,
                "velocity": 101,
                "duration": 0.0477273,
                "tempo": 120.0
            },
            {
                "start_time": 50.1522727,
                "end_time": 50.2022727,
                "pitch": 60,
                "velocity": 101,
                "duration": 0.05,
                "tempo": 120.0
            },
            {
                "start_time": 50.2545455,
                "end_time": 50.3022727,
                "pitch": 48,
                "velocity": 101,
                "duration": 0.0477273,
                "tempo": 120.0
            },
            {
                "start_time": 50.3545455,
                "end_time": 50.4022727,
                "pitch": 60,
                "velocity": 101,
                "duration": 0.0477273,
                "tempo": 120.0
            },
            {
                "start_time": 50.4545455,
                "end_time": 50.5045455,
                "pitch": 48,
                "velocity": 101,
                "duration": 0.05,
                "tempo": 120.0
            },
            {
                "start_time": 50.5545455,
                "end_time": 50.6045455,
                "pitch": 60,
                "velocity": 101,
                "duration": 0.05,
                "tempo": 120.0
            },
            {
                "start_time": 50.6568182,
                "end_time": 50.7045455,
                "pitch": 48,
                "velocity": 101,
                "duration": 0.0477273,
                "tempo": 120.0
            },
            {
                "start_time": 50.7568182,
                "end_time": 50.8045455,
                "pitch": 60,
                "velocity": 101,
                "duration": 0.0477273,
                "tempo": 120.0
            },
            {
                "start_time": 50.8568182,
                "end_time": 50.9045455,
                "pitch": 48,
                "velocity": 101,
                "duration": 0.0477273,
                "tempo": 120.0
            },
            {
                "start_time": 50.9568182,
                "end_time": 51.0045455,
                "pitch": 48,
                "velocity": 101,
                "duration": 0.0477273,
                "tempo": 120.0
            },
            {
                "start_time": 51.0568182,
                "end_time": 51.1068182,
                "pitch": 48,
                "velocity": 101,
                "duration": 0.05,
                "tempo": 120.0
            },
            {
                "start_time": 51.1568182,
                "end_time": 51.2068182,
                "pitch": 48,
                "velocity": 101,
                "duration": 0.05,
                "tempo": 120.0
            },
            {
                "start_time": 51.2568182,
                "end_time": 51.3068182,
                "pitch": 48,
                "velocity": 101,
                "duration": 0.05,
                "tempo": 120.0
            },
            {
                "start_time": 51.3568182,
                "end_time": 51.4068182,
                "pitch": 48,
                "velocity": 101,
                "duration": 0.05,
                "tempo": 120.0
            },
            {
                "start_time": 51.4590909,
                "end_time": 51.7136364,
                "pitch": 47,
                "velocity": 127,
                "duration": 0.2545455,
                "tempo": 120.0
            },
            {
                "start_time": 51.7659091,
                "end_time": 52.0136364,
                "pitch": 45,
                "velocity": 127,
                "duration": 0.2477273,
                "tempo": 120.0
            },
            {
                "start_time": 52.0659091,
                "end_time": 52.3113636,
                "pitch": 43,
                "velocity": 127,
                "duration": 0.2454545,
                "tempo": 120.0
            },
            {
                "start_time": 52.3636364,
                "end_time": 52.6204545,
                "pitch": 41,
                "velocity": 127,
                "duration": 0.2568182,
                "tempo": 120.0
            },
            {
                "start_time": 52.6727273,
                "end_time": 52.9227273,
                "pitch": 40,
                "velocity": 127,
                "duration": 0.25,
                "tempo": 120.0
            },
            {
                "start_time": 52.9727273,
                "end_time": 53.0227273,
                "pitch": 40,
                "velocity": 127,
                "duration": 0.05,
                "tempo": 120.0
            },
            {
                "start_time": 53.0727273,
                "end_time": 53.4227273,
                "pitch": 40,
                "velocity": 64,
                "duration": 0.35,
                "tempo": 120.0
            },
            {
                "start_time": 53.4727273,
                "end_time": 53.5227273,
                "pitch": 40,
                "velocity": 40,
                "duration": 0.05,
                "tempo": 120.0
            },
            {
                "start_time": 53.575,
                "end_time": 53.6227273,
                "pitch": 40,
                "velocity": 51,
                "duration": 0.0477273,
                "tempo": 120.0
            },
            {
                "start_time": 53.675,
                "end_time": 53.725,
                "pitch": 40,
                "velocity": 64,
                "duration": 0.05,
                "tempo": 120.0
            },
            {
                "start_time": 53.7772727,
                "end_time": 53.825,
                "pitch": 40,
                "velocity": 80,
                "duration": 0.0477273,
                "tempo": 120.0
            },
            {
                "start_time": 53.8772727,
                "end_time": 53.925,
                "pitch": 40,
                "velocity": 101,
                "duration": 0.0477273,
                "tempo": 120.0
            },
            {
                "start_time": 53.9772727,
                "end_time": 54.025,
                "pitch": 40,
                "velocity": 127,
                "duration": 0.0477273,
                "tempo": 120.0
            },
            {
                "start_time": 54.0772727,
                "end_time": 54.125,
                "pitch": 40,
                "velocity": 127,
                "duration": 0.0477273,
                "tempo": 120.0
            },
            {
                "start_time": 54.1772727,
                "end_time": 54.225,
                "pitch": 52,
                "velocity": 127,
                "duration": 0.0477273,
                "tempo": 120.0
            },
            {
                "start_time": 54.2772727,
                "end_time": 54.3272727,
                "pitch": 40,
                "velocity": 127,
                "duration": 0.05,
                "tempo": 120.0
            },
            {
                "start_time": 54.3772727,
                "end_time": 54.4272727,
                "pitch": 52,
                "velocity": 127,
                "duration": 0.05,
                "tempo": 120.0
            },
            {
                "start_time": 54.4772727,
                "end_time": 54.5272727,
                "pitch": 40,
                "velocity": 127,
                "duration": 0.05,
                "tempo": 120.0
            },
            {
                "start_time": 54.5772727,
                "end_time": 54.6272727,
                "pitch": 52,
                "velocity": 127,
                "duration": 0.05,
                "tempo": 120.0
            },
            {
                "start_time": 54.6818182,
                "end_time": 54.7272727,
                "pitch": 45,
                "velocity": 127,
                "duration": 0.0454545,
                "tempo": 120.0
            }
        ],
        "Vibraphone": [
            {
                "start_time": 22.5272727,
                "end_time": 22.6272727,
                "pitch": 69,
                "velocity": 127,
                "duration": 0.1,
                "tempo": 120.0
            },
            {
                "start_time": 22.6272727,
                "end_time": 22.7272727,
                "pitch": 69,
                "velocity": 127,
                "duration": 0.1,
                "tempo": 120.0
            },
            {
                "start_time": 22.7272727,
                "end_time": 22.8431818,
                "pitch": 72,
                "velocity": 127,
                "duration": 0.1159091,
                "tempo": 120.0
            },
            {
                "start_time": 22.9272727,
                "end_time": 23.0431818,
                "pitch": 71,
                "velocity": 127,
                "duration": 0.1159091,
                "tempo": 120.0
            },
            {
                "start_time": 23.1272727,
                "end_time": 23.2272727,
                "pitch": 74,
                "velocity": 127,
                "duration": 0.1,
                "tempo": 120.0
            },
            {
                "start_time": 23.2272727,
                "end_time": 23.4272727,
                "pitch": 69,
                "velocity": 127,
                "duration": 0.2,
                "tempo": 120.0
            },
            {
                "start_time": 23.4272727,
                "end_time": 23.5295455,
                "pitch": 69,
                "velocity": 127,
                "duration": 0.1022727,
                "tempo": 120.0
            },
            {
                "start_time": 22.7272727,
                "end_time": 23.5295455,
                "pitch": 76,
                "velocity": 127,
                "duration": 0.8022727,
                "tempo": 120.0
            },
            {
                "start_time": 23.5295455,
                "end_time": 23.6454545,
                "pitch": 72,
                "velocity": 127,
                "duration": 0.1159091,
                "tempo": 120.0
            },
            {
                "start_time": 23.7318182,
                "end_time": 23.8477273,
                "pitch": 71,
                "velocity": 127,
                "duration": 0.1159091,
                "tempo": 120.0
            },
            {
                "start_time": 23.9318182,
                "end_time": 24.0477273,
                "pitch": 74,
                "velocity": 127,
                "duration": 0.1159091,
                "tempo": 120.0
            },
            {
                "start_time": 25.7409091,
                "end_time": 25.7886364,
                "pitch": 69,
                "velocity": 127,
                "duration": 0.0477273,
                "tempo": 120.0
            },
            {
                "start_time": 25.8068182,
                "end_time": 25.8568182,
                "pitch": 69,
                "velocity": 127,
                "duration": 0.05,
                "tempo": 120.0
            },
            {
                "start_time": 25.875,
                "end_time": 25.9272727,
                "pitch": 69,
                "velocity": 127,
                "duration": 0.0522727,
                "tempo": 120.0
            },
            {
                "start_time": 25.9454545,
                "end_time": 26.0477273,
                "pitch": 72,
                "velocity": 127,
                "duration": 0.1022727,
                "tempo": 120.0
            },
            {
                "start_time": 26.0477273,
                "end_time": 26.2477273,
                "pitch": 71,
                "velocity": 127,
                "duration": 0.2,
                "tempo": 120.0
            },
            {
                "start_time": 26.2477273,
                "end_time": 26.3454545,
                "pitch": 71,
                "velocity": 127,
                "duration": 0.0977273,
                "tempo": 120.0
            },
            {
                "start_time": 26.3454545,
                "end_time": 26.4454545,
                "pitch": 74,
                "velocity": 127,
                "duration": 0.1,
                "tempo": 120.0
            },
            {
                "start_time": 23.2272727,
                "end_time": 26.5431818,
                "pitch": 43,
                "velocity": 127,
                "duration": 3.3159091,
                "tempo": 120.0
            },
            {
                "start_time": 26.4454545,
                "end_time": 26.5431818,
                "pitch": 74,
                "velocity": 127,
                "duration": 0.0977273,
                "tempo": 120.0
            },
            {
                "start_time": 26.5431818,
                "end_time": 26.6431818,
                "pitch": 69,
                "velocity": 127,
                "duration": 0.1,
                "tempo": 120.0
            },
            {
                "start_time": 23.5295455,
                "end_time": 26.6431818,
                "pitch": 76,
                "velocity": 127,
                "duration": 3.1136364,
                "tempo": 120.0
            },
            {
                "start_time": 26.0477273,
                "end_time": 26.8431818,
                "pitch": 56,
                "velocity": 127,
                "duration": 0.7954545,
                "tempo": 120.0
            },
            {
                "start_time": 26.6431818,
                "end_time": 26.8431818,
                "pitch": 72,
                "velocity": 127,
                "duration": 0.2,
                "tempo": 120.0
            },
            {
                "start_time": 26.8431818,
                "end_time": 27.0431818,
                "pitch": 71,
                "velocity": 127,
                "duration": 0.2,
                "tempo": 120.0
            },
            {
                "start_time": 27.0431818,
                "end_time": 27.1431818,
                "pitch": 71,
                "velocity": 127,
                "duration": 0.1,
                "tempo": 120.0
            },
            {
                "start_time": 26.3454545,
                "end_time": 27.1431818,
                "pitch": 77,
                "velocity": 127,
                "duration": 0.7977273,
                "tempo": 120.0
            },
            {
                "start_time": 27.1431818,
                "end_time": 27.2431818,
                "pitch": 74,
                "velocity": 127,
                "duration": 0.1,
                "tempo": 120.0
            }
        ],
        "Trumpet": [
            {
                "start_time": 0.0090909,
                "end_time": 0.0977273,
                "pitch": 57,
                "velocity": 80,
                "duration": 0.0886364,
                "tempo": 120.0
            },
            {
                "start_time": 0.0977273,
                "end_time": 0.2,
                "pitch": 56,
                "velocity": 80,
                "duration": 0.1022727,
                "tempo": 120.0
            },
            {
                "start_time": 0.2,
                "end_time": 0.3,
                "pitch": 57,
                "velocity": 80,
                "duration": 0.1,
                "tempo": 120.0
            },
            {
                "start_time": 0.3,
                "end_time": 0.4,
                "pitch": 59,
                "velocity": 80,
                "duration": 0.1,
                "tempo": 120.0
            },
            {
                "start_time": 0.3,
                "end_time": 0.4,
                "pitch": 59,
                "velocity": 80,
                "duration": 0.1,
                "tempo": 120.0
            },
            {
                "start_time": 0.4,
                "end_time": 0.4977273,
                "pitch": 60,
                "velocity": 80,
                "duration": 0.0977273,
                "tempo": 120.0
            },
            {
                "start_time": 0.4977273,
                "end_time": 0.5954545,
                "pitch": 59,
                "velocity": 80,
                "duration": 0.0977273,
                "tempo": 120.0
            },
            {
                "start_time": 0.4,
                "end_time": 0.5954545,
                "pitch": 64,
                "velocity": 80,
                "duration": 0.1954545,
                "tempo": 120.0
            },
            {
                "start_time": 0.5954545,
                "end_time": 0.6931818,
                "pitch": 60,
                "velocity": 80,
                "duration": 0.0977273,
                "tempo": 120.0
            },
            {
                "start_time": 0.6954545,
                "end_time": 0.7931818,
                "pitch": 62,
                "velocity": 80,
                "duration": 0.0977273,
                "tempo": 120.0
            },
            {
                "start_time": 0.5954545,
                "end_time": 0.7931818,
                "pitch": 64,
                "velocity": 80,
                "duration": 0.1977273,
                "tempo": 120.0
            },
            {
                "start_time": 0.7931818,
                "end_time": 0.8909091,
                "pitch": 64,
                "velocity": 80,
                "duration": 0.0977273,
                "tempo": 120.0
            },
            {
                "start_time": 0.7931818,
                "end_time": 0.8909091,
                "pitch": 64,
                "velocity": 80,
                "duration": 0.0977273,
                "tempo": 120.0
            },
            {
                "start_time": 0.8909091,
                "end_time": 0.9931818,
                "pitch": 62,
                "velocity": 80,
                "duration": 0.1022727,
                "tempo": 120.0
            },
            {
                "start_time": 0.8909091,
                "end_time": 0.9931818,
                "pitch": 62,
                "velocity": 80,
                "duration": 0.1022727,
                "tempo": 120.0
            },
            {
                "start_time": 0.9931818,
                "end_time": 1.0931818,
                "pitch": 64,
                "velocity": 80,
                "duration": 0.1,
                "tempo": 120.0
            },
            {
                "start_time": 0.9931818,
                "end_time": 1.0931818,
                "pitch": 64,
                "velocity": 80,
                "duration": 0.1,
                "tempo": 120.0
            },
            {
                "start_time": 1.0931818,
                "end_time": 1.1931818,
                "pitch": 65,
                "velocity": 80,
                "duration": 0.1,
                "tempo": 120.0
            },
            {
                "start_time": 1.1931818,
                "end_time": 1.2909091,
                "pitch": 64,
                "velocity": 80,
                "duration": 0.0977273,
                "tempo": 120.0
            },
            {
                "start_time": 1.2909091,
                "end_time": 1.3931818,
                "pitch": 62,
                "velocity": 80,
                "duration": 0.1022727,
                "tempo": 120.0
            },
            {
                "start_time": 1.2909091,
                "end_time": 1.3931818,
                "pitch": 62,
                "velocity": 80,
                "duration": 0.1022727,
                "tempo": 120.0
            },
            {
                "start_time": 0.4977273,
                "end_time": 1.4931818,
                "pitch": 44,
                "velocity": 80,
                "duration": 0.9954545,
                "tempo": 120.0
            },
            {
                "start_time": 1.3931818,
                "end_time": 1.4931818,
                "pitch": 60,
                "velocity": 80,
                "duration": 0.1,
                "tempo": 120.0
            },
            {
                "start_time": 1.4931818,
                "end_time": 1.5954545,
                "pitch": 59,
                "velocity": 80,
                "duration": 0.1022727,
                "tempo": 120.0
            },
            {
                "start_time": 1.5954545,
                "end_time": 1.6931818,
                "pitch": 57,
                "velocity": 80,
                "duration": 0.0977273,
                "tempo": 120.0
            },
            {
                "start_time": 1.5954545,
                "end_time": 1.6931818,
                "pitch": 57,
                "velocity": 80,
                "duration": 0.0977273,
                "tempo": 120.0
            },
            {
                "start_time": 1.6931818,
                "end_time": 1.7954545,
                "pitch": 56,
                "velocity": 80,
                "duration": 0.1022727,
                "tempo": 120.0
            },
            {
                "start_time": 1.7954545,
                "end_time": 1.8954545,
                "pitch": 57,
                "velocity": 80,
                "duration": 0.1,
                "tempo": 120.0
            },
            {
                "start_time": 1.8954545,
                "end_time": 1.9977273,
                "pitch": 59,
                "velocity": 80,
                "duration": 0.1022727,
                "tempo": 120.0
            },
            {
                "start_time": 1.8954545,
                "end_time": 1.9977273,
                "pitch": 59,
                "velocity": 80,
                "duration": 0.1022727,
                "tempo": 120.0
            },
            {
                "start_time": 1.4931818,
                "end_time": 2.0954545,
                "pitch": 44,
                "velocity": 80,
                "duration": 0.6022727,
                "tempo": 120.0
            },
            {
                "start_time": 1.9977273,
                "end_time": 2.0954545,
                "pitch": 60,
                "velocity": 80,
                "duration": 0.0977273,
                "tempo": 120.0
            },
            {
                "start_time": 2.0954545,
                "end_time": 2.1954545,
                "pitch": 59,
                "velocity": 80,
                "duration": 0.1,
                "tempo": 120.0
            },
            {
                "start_time": 1.9977273,
                "end_time": 2.1977273,
                "pitch": 64,
                "velocity": 80,
                "duration": 0.2,
                "tempo": 120.0
            },
            {
                "start_time": 2.1954545,
                "end_time": 2.1977273,
                "pitch": 64,
                "velocity": 80,
                "duration": 0.0022727,
                "tempo": 120.0
            },
            {
                "start_time": 2.1977273,
                "end_time": 2.2977273,
                "pitch": 60,
                "velocity": 80,
                "duration": 0.1,
                "tempo": 120.0
            },
            {
                "start_time": 2.2977273,
                "end_time": 2.3977273,
                "pitch": 62,
                "velocity": 80,
                "duration": 0.1,
                "tempo": 120.0
            },
            {
                "start_time": 2.3977273,
                "end_time": 2.4954545,
                "pitch": 64,
                "velocity": 80,
                "duration": 0.0977273,
                "tempo": 120.0
            },
            {
                "start_time": 2.3977273,
                "end_time": 2.4954545,
                "pitch": 64,
                "velocity": 80,
                "duration": 0.0977273,
                "tempo": 120.0
            },
            {
                "start_time": 2.4954545,
                "end_time": 2.5977273,
                "pitch": 62,
                "velocity": 80,
                "duration": 0.1022727,
                "tempo": 120.0
            },
            {
                "start_time": 2.4954545,
                "end_time": 2.5977273,
                "pitch": 62,
                "velocity": 80,
                "duration": 0.1022727,
                "tempo": 120.0
            },
            {
                "start_time": 2.5977273,
                "end_time": 2.6977273,
                "pitch": 64,
                "velocity": 80,
                "duration": 0.1,
                "tempo": 120.0
            },
            {
                "start_time": 2.5977273,
                "end_time": 2.6977273,
                "pitch": 64,
                "velocity": 80,
                "duration": 0.1,
                "tempo": 120.0
            },
            {
                "start_time": 2.6977273,
                "end_time": 2.7977273,
                "pitch": 65,
                "velocity": 80,
                "duration": 0.1,
                "tempo": 120.0
            },
            {
                "start_time": 2.7977273,
                "end_time": 2.8977273,
                "pitch": 64,
                "velocity": 80,
                "duration": 0.1,
                "tempo": 120.0
            },
            {
                "start_time": 2.8977273,
                "end_time": 2.9977273,
                "pitch": 62,
                "velocity": 80,
                "duration": 0.1,
                "tempo": 120.0
            },
            {
                "start_time": 2.8977273,
                "end_time": 2.9977273,
                "pitch": 62,
                "velocity": 80,
                "duration": 0.1,
                "tempo": 120.0
            },
            {
                "start_time": 2.0954545,
                "end_time": 3.0977273,
                "pitch": 44,
                "velocity": 80,
                "duration": 1.0022727,
                "tempo": 120.0
            },
            {
                "start_time": 2.9977273,
                "end_time": 3.0977273,
                "pitch": 60,
                "velocity": 80,
                "duration": 0.1,
                "tempo": 120.0
            },
            {
                "start_time": 3.0977273,
                "end_time": 3.2136364,
                "pitch": 59,
                "velocity": 80,
                "duration": 0.1159091,
                "tempo": 120.0
            },
            {
                "start_time": 3.2477273,
                "end_time": 3.35,
                "pitch": 57,
                "velocity": 80,
                "duration": 0.1022727,
                "tempo": 120.0
            },
            {
                "start_time": 3.35,
                "end_time": 3.4522727,
                "pitch": 57,
                "velocity": 80,
                "duration": 0.1022727,
                "tempo": 120.0
            },
            {
                "start_time": 3.4522727,
                "end_time": 3.4545455,
                "pitch": 64,
                "velocity": 80,
                "duration": 0.0022727,
                "tempo": 120.0
            },
            {
                "start_time": 3.4545455,
                "end_time": 3.5727273,
                "pitch": 60,
                "velocity": 80,
                "duration": 0.1181818,
                "tempo": 120.0
            },
            {
                "start_time": 3.6590909,
                "end_time": 3.775,
                "pitch": 59,
                "velocity": 80,
                "duration": 0.1159091,
                "tempo": 120.0
            },
            {
                "start_time": 3.8590909,
                "end_time": 3.9590909,
                "pitch": 62,
                "velocity": 80,
                "duration": 0.1,
                "tempo": 120.0
            },
            {
                "start_time": 3.9590909,
                "end_time": 4.1545455,
                "pitch": 57,
                "velocity": 80,
                "duration": 0.1954545,
                "tempo": 120.0
            },
            {
                "start_time": 4.1545455,
                "end_time": 4.2545455,
                "pitch": 57,
                "velocity": 80,
                "duration": 0.1,
                "tempo": 120.0
            },
            {
                "start_time": 4.2545455,
                "end_time": 4.3681818,
                "pitch": 60,
                "velocity": 80,
                "duration": 0.1136364,
                "tempo": 120.0
            },
            {
                "start_time": 4.4522727,
                "end_time": 4.5704545,
                "pitch": 59,
                "velocity": 80,
                "duration": 0.1181818,
                "tempo": 120.0
            },
            {
                "start_time": 4.6590909,
                "end_time": 4.7772727,
                "pitch": 62,
                "velocity": 80,
                "duration": 0.1181818,
                "tempo": 120.0
            },
            {
                "start_time": 4.8613636,
                "end_time": 4.9636364,
                "pitch": 57,
                "velocity": 80,
                "duration": 0.1022727,
                "tempo": 120.0
            },
            {
                "start_time": 4.9636364,
                "end_time": 5.0636364,
                "pitch": 57,
                "velocity": 80,
                "duration": 0.1,
                "tempo": 120.0
            },
            {
                "start_time": 4.2545455,
                "end_time": 5.0636364,
                "pitch": 64,
                "velocity": 80,
                "duration": 0.8090909,
                "tempo": 120.0
            },
            {
                "start_time": 5.0636364,
                "end_time": 5.1795455,
                "pitch": 60,
                "velocity": 80,
                "duration": 0.1159091,
                "tempo": 120.0
            },
            {
                "start_time": 5.2636364,
                "end_time": 5.3795455,
                "pitch": 59,
                "velocity": 80,
                "duration": 0.1159091,
                "tempo": 120.0
            },
            {
                "start_time": 5.4659091,
                "end_time": 5.5659091,
                "pitch": 62,
                "velocity": 80,
                "duration": 0.1,
                "tempo": 120.0
            },
            {
                "start_time": 3.0977273,
                "end_time": 6.1704545,
                "pitch": 44,
                "velocity": 80,
                "duration": 3.0727273,
                "tempo": 120.0
            },
            {
                "start_time": 5.5659091,
                "end_time": 6.1704545,
                "pitch": 60,
                "velocity": 80,
                "duration": 0.6045455,
                "tempo": 120.0
            },
            {
                "start_time": 6.1704545,
                "end_time": 6.2704545,
                "pitch": 59,
                "velocity": 80,
                "duration": 0.1,
                "tempo": 120.0
            },
            {
                "start_time": 6.2704545,
                "end_time": 6.4704545,
                "pitch": 55,
                "velocity": 80,
                "duration": 0.2,
                "tempo": 120.0
            },
            {
                "start_time": 6.2704545,
                "end_time": 6.4704545,
                "pitch": 55,
                "velocity": 80,
                "duration": 0.2,
                "tempo": 120.0
            },
            {
                "start_time": 6.4704545,
                "end_time": 6.5704545,
                "pitch": 57,
                "velocity": 80,
                "duration": 0.1,
                "tempo": 120.0
            },
            {
                "start_time": 6.4704545,
                "end_time": 6.5704545,
                "pitch": 57,
                "velocity": 80,
                "duration": 0.1,
                "tempo": 120.0
            },
            {
                "start_time": 6.5704545,
                "end_time": 6.6727273,
                "pitch": 57,
                "velocity": 80,
                "duration": 0.1022727,
                "tempo": 120.0
            },
            {
                "start_time": 5.0636364,
                "end_time": 6.6727273,
                "pitch": 64,
                "velocity": 80,
                "duration": 1.6090909,
                "tempo": 120.0
            },
            {
                "start_time": 6.6727273,
                "end_time": 6.7886364,
                "pitch": 60,
                "velocity": 80,
                "duration": 0.1159091,
                "tempo": 120.0
            },
            {
                "start_time": 6.8727273,
                "end_time": 6.9886364,
                "pitch": 59,
                "velocity": 80,
                "duration": 0.1159091,
                "tempo": 120.0
            },
            {
                "start_time": 3.9590909,
                "end_time": 7.1727273,
                "pitch": 31,
                "velocity": 80,
                "duration": 3.2136364,
                "tempo": 120.0
            },
            {
                "start_time": 7.0727273,
                "end_time": 7.1727273,
                "pitch": 62,
                "velocity": 80,
                "duration": 0.1,
                "tempo": 120.0
            },
            {
                "start_time": 7.1727273,
                "end_time": 7.375,
                "pitch": 57,
                "velocity": 80,
                "duration": 0.2022727,
                "tempo": 120.0
            },
            {
                "start_time": 7.375,
                "end_time": 7.475,
                "pitch": 57,
                "velocity": 80,
                "duration": 0.1,
                "tempo": 120.0
            },
            {
                "start_time": 6.6727273,
                "end_time": 7.475,
                "pitch": 64,
                "velocity": 80,
                "duration": 0.8022727,
                "tempo": 120.0
            },
            {
                "start_time": 7.475,
                "end_time": 7.5931818,
                "pitch": 60,
                "velocity": 80,
                "duration": 0.1181818,
                "tempo": 120.0
            },
            {
                "start_time": 7.6772727,
                "end_time": 7.7931818,
                "pitch": 59,
                "velocity": 80,
                "duration": 0.1159091,
                "tempo": 120.0
            },
            {
                "start_time": 7.8795455,
                "end_time": 7.9954545,
                "pitch": 62,
                "velocity": 80,
                "duration": 0.1159091,
                "tempo": 120.0
            },
            {
                "start_time": 8.0795455,
                "end_time": 8.1795455,
                "pitch": 57,
                "velocity": 80,
                "duration": 0.1,
                "tempo": 120.0
            },
            {
                "start_time": 8.1795455,
                "end_time": 8.2795455,
                "pitch": 57,
                "velocity": 80,
                "duration": 0.1,
                "tempo": 120.0
            },
            {
                "start_time": 7.475,
                "end_time": 8.2795455,
                "pitch": 64,
                "velocity": 80,
                "duration": 0.8045455,
                "tempo": 120.0
            },
            {
                "start_time": 8.2795455,
                "end_time": 8.3954545,
                "pitch": 60,
                "velocity": 80,
                "duration": 0.1159091,
                "tempo": 120.0
            },
            {
                "start_time": 8.4818182,
                "end_time": 8.5977273,
                "pitch": 59,
                "velocity": 80,
                "duration": 0.1159091,
                "tempo": 120.0
            },
            {
                "start_time": 8.6818182,
                "end_time": 8.7840909,
                "pitch": 62,
                "velocity": 80,
                "duration": 0.1022727,
                "tempo": 120.0
            },
            {
                "start_time": 8.7840909,
                "end_time": 9.6454545,
                "pitch": 60,
                "velocity": 80,
                "duration": 0.8613636,
                "tempo": 120.0
            },
            {
                "start_time": 9.6454545,
                "end_time": 9.95,
                "pitch": 55,
                "velocity": 80,
                "duration": 0.3045455,
                "tempo": 120.0
            },
            {
                "start_time": 9.95,
                "end_time": 10.4454545,
                "pitch": 53,
                "velocity": 80,
                "duration": 0.4954545,
                "tempo": 120.0
            },
            {
                "start_time": 10.4454545,
                "end_time": 10.7545455,
                "pitch": 57,
                "velocity": 80,
                "duration": 0.3090909,
                "tempo": 120.0
            },
            {
                "start_time": 10.7545455,
                "end_time": 11.25,
                "pitch": 55,
                "velocity": 80,
                "duration": 0.4954545,
                "tempo": 120.0
            },
            {
                "start_time": 11.25,
                "end_time": 11.5590909,
                "pitch": 59,
                "velocity": 80,
                "duration": 0.3090909,
                "tempo": 120.0
            },
            {
                "start_time": 11.25,
                "end_time": 11.5590909,
                "pitch": 59,
                "velocity": 80,
                "duration": 0.3090909,
                "tempo": 120.0
            },
            {
                "start_time": 11.5590909,
                "end_time": 12.0545455,
                "pitch": 57,
                "velocity": 80,
                "duration": 0.4954545,
                "tempo": 120.0
            },
            {
                "start_time": 11.5590909,
                "end_time": 12.0545455,
                "pitch": 57,
                "velocity": 80,
                "duration": 0.4954545,
                "tempo": 120.0
            },
            {
                "start_time": 8.2795455,
                "end_time": 12.0545455,
                "pitch": 64,
                "velocity": 80,
                "duration": 3.775,
                "tempo": 120.0
            },
            {
                "start_time": 6.1704545,
                "end_time": 12.3613636,
                "pitch": 44,
                "velocity": 80,
                "duration": 6.1909091,
                "tempo": 120.0
            },
            {
                "start_time": 12.0545455,
                "end_time": 12.3613636,
                "pitch": 60,
                "velocity": 80,
                "duration": 0.3068182,
                "tempo": 120.0
            },
            {
                "start_time": 12.3613636,
                "end_time": 12.6659091,
                "pitch": 59,
                "velocity": 80,
                "duration": 0.3045455,
                "tempo": 120.0
            },
            {
                "start_time": 12.6659091,
                "end_time": 12.8681818,
                "pitch": 59,
                "velocity": 80,
                "duration": 0.2022727,
                "tempo": 120.0
            },
            {
                "start_time": 12.8681818,
                "end_time": 13.1704545,
                "pitch": 57,
                "velocity": 80,
                "duration": 0.3022727,
                "tempo": 120.0
            },
            {
                "start_time": 12.8681818,
                "end_time": 13.1704545,
                "pitch": 57,
                "velocity": 80,
                "duration": 0.3022727,
                "tempo": 120.0
            },
            {
                "start_time": 13.1704545,
                "end_time": 14.4772727,
                "pitch": 55,
                "velocity": 80,
                "duration": 1.3068182,
                "tempo": 120.0
            },
            {
                "start_time": 9.95,
                "end_time": 14.4772727,
                "pitch": 66,
                "velocity": 80,
                "duration": 4.5272727,
                "tempo": 120.0
            },
            {
                "start_time": 14.4795455,
                "end_time": 14.7818182,
                "pitch": 53,
                "velocity": 80,
                "duration": 0.3022727,
                "tempo": 120.0
            },
            {
                "start_time": 14.7818182,
                "end_time": 16.0886364,
                "pitch": 52,
                "velocity": 80,
                "duration": 1.3068182,
                "tempo": 120.0
            },
            {
                "start_time": 16.0886364,
                "end_time": 16.3909091,
                "pitch": 67,
                "velocity": 80,
                "duration": 0.3022727,
                "tempo": 120.0
            },
            {
                "start_time": 7.1727273,
                "end_time": 16.8954545,
                "pitch": 31,
                "velocity": 80,
                "duration": 9.7227273,
                "tempo": 120.0
            },
            {
                "start_time": 16.3909091,
                "end_time": 16.8954545,
                "pitch": 65,
                "velocity": 80,
                "duration": 0.5045455,
                "tempo": 120.0
            },
            {
                "start_time": 16.8954545,
                "end_time": 17.1954545,
                "pitch": 69,
                "velocity": 80,
                "duration": 0.3,
                "tempo": 120.0
            },
            {
                "start_time": 17.1954545,
                "end_time": 17.6954545,
                "pitch": 67,
                "velocity": 80,
                "duration": 0.5,
                "tempo": 120.0
            },
            {
                "start_time": 17.6954545,
                "end_time": 18.0045455,
                "pitch": 67,
                "velocity": 80,
                "duration": 0.3090909,
                "tempo": 120.0
            },
            {
                "start_time": 16.3909091,
                "end_time": 18.0045455,
                "pitch": 78,
                "velocity": 80,
                "duration": 1.6136364,
                "tempo": 120.0
            },
            {
                "start_time": 16.8954545,
                "end_time": 18.5,
                "pitch": 31,
                "velocity": 80,
                "duration": 1.6045455,
                "tempo": 120.0
            },
            {
                "start_time": 18.0045455,
                "end_time": 18.5,
                "pitch": 65,
                "velocity": 80,
                "duration": 0.4954545,
                "tempo": 120.0
            },
            {
                "start_time": 18.5,
                "end_time": 18.8068182,
                "pitch": 69,
                "velocity": 80,
                "duration": 0.3068182,
                "tempo": 120.0
            },
            {
                "start_time": 18.8068182,
                "end_time": 19.1068182,
                "pitch": 67,
                "velocity": 80,
                "duration": 0.3,
                "tempo": 120.0
            },
            {
                "start_time": 19.1068182,
                "end_time": 19.3045455,
                "pitch": 67,
                "velocity": 80,
                "duration": 0.1977273,
                "tempo": 120.0
            },
            {
                "start_time": 18.0045455,
                "end_time": 19.3045455,
                "pitch": 78,
                "velocity": 80,
                "duration": 1.3,
                "tempo": 120.0
            },
            {
                "start_time": 19.3045455,
                "end_time": 19.6113636,
                "pitch": 65,
                "velocity": 80,
                "duration": 0.3068182,
                "tempo": 120.0
            },
            {
                "start_time": 12.0545455,
                "end_time": 20.9113636,
                "pitch": 64,
                "velocity": 80,
                "duration": 8.8568182,
                "tempo": 120.0
            },
            {
                "start_time": 19.6113636,
                "end_time": 20.9113636,
                "pitch": 64,
                "velocity": 80,
                "duration": 1.3,
                "tempo": 120.0
            },
            {
                "start_time": 20.9113636,
                "end_time": 21.2204545,
                "pitch": 62,
                "velocity": 80,
                "duration": 0.3090909,
                "tempo": 120.0
            },
            {
                "start_time": 20.9113636,
                "end_time": 21.2204545,
                "pitch": 62,
                "velocity": 80,
                "duration": 0.3090909,
                "tempo": 120.0
            },
            {
                "start_time": 18.5,
                "end_time": 22.5318182,
                "pitch": 31,
                "velocity": 80,
                "duration": 4.0318182,
                "tempo": 120.0
            },
            {
                "start_time": 21.2204545,
                "end_time": 22.5318182,
                "pitch": 60,
                "velocity": 80,
                "duration": 1.3113636,
                "tempo": 120.0
            },
            {
                "start_time": 21.2204545,
                "end_time": 22.5318182,
                "pitch": 60,
                "velocity": 80,
                "duration": 1.3113636,
                "tempo": 120.0
            },
            {
                "start_time": 22.5318182,
                "end_time": 22.6272727,
                "pitch": 57,
                "velocity": 80,
                "duration": 0.0954545,
                "tempo": 120.0
            },
            {
                "start_time": 22.6272727,
                "end_time": 22.7295455,
                "pitch": 57,
                "velocity": 80,
                "duration": 0.1022727,
                "tempo": 120.0
            },
            {
                "start_time": 22.7295455,
                "end_time": 22.8431818,
                "pitch": 60,
                "velocity": 80,
                "duration": 0.1136364,
                "tempo": 120.0
            },
            {
                "start_time": 22.9295455,
                "end_time": 23.0431818,
                "pitch": 59,
                "velocity": 80,
                "duration": 0.1136364,
                "tempo": 120.0
            },
            {
                "start_time": 22.5318182,
                "end_time": 23.2295455,
                "pitch": 31,
                "velocity": 80,
                "duration": 0.6977273,
                "tempo": 120.0
            },
            {
                "start_time": 23.1295455,
                "end_time": 23.2295455,
                "pitch": 62,
                "velocity": 80,
                "duration": 0.1,
                "tempo": 120.0
            },
            {
                "start_time": 23.2295455,
                "end_time": 23.4295455,
                "pitch": 57,
                "velocity": 80,
                "duration": 0.2,
                "tempo": 120.0
            },
            {
                "start_time": 23.4295455,
                "end_time": 23.5318182,
                "pitch": 57,
                "velocity": 80,
                "duration": 0.1022727,
                "tempo": 120.0
            },
            {
                "start_time": 22.7295455,
                "end_time": 23.5318182,
                "pitch": 64,
                "velocity": 80,
                "duration": 0.8022727,
                "tempo": 120.0
            },
            {
                "start_time": 23.5318182,
                "end_time": 23.6477273,
                "pitch": 60,
                "velocity": 80,
                "duration": 0.1159091,
                "tempo": 120.0
            },
            {
                "start_time": 23.7340909,
                "end_time": 23.8477273,
                "pitch": 59,
                "velocity": 80,
                "duration": 0.1136364,
                "tempo": 120.0
            },
            {
                "start_time": 23.9340909,
                "end_time": 24.0477273,
                "pitch": 62,
                "velocity": 80,
                "duration": 0.1136364,
                "tempo": 120.0
            },
            {
                "start_time": 24.1363636,
                "end_time": 24.2340909,
                "pitch": 57,
                "velocity": 80,
                "duration": 0.0977273,
                "tempo": 120.0
            },
            {
                "start_time": 24.2340909,
                "end_time": 24.3340909,
                "pitch": 57,
                "velocity": 80,
                "duration": 0.1,
                "tempo": 120.0
            },
            {
                "start_time": 23.5318182,
                "end_time": 24.3340909,
                "pitch": 64,
                "velocity": 80,
                "duration": 0.8022727,
                "tempo": 120.0
            },
            {
                "start_time": 24.3340909,
                "end_time": 24.45,
                "pitch": 60,
                "velocity": 80,
                "duration": 0.1159091,
                "tempo": 120.0
            },
            {
                "start_time": 24.5363636,
                "end_time": 24.6522727,
                "pitch": 59,
                "velocity": 80,
                "duration": 0.1159091,
                "tempo": 120.0
            },
            {
                "start_time": 23.2295455,
                "end_time": 24.8363636,
                "pitch": 31,
                "velocity": 80,
                "duration": 1.6068182,
                "tempo": 120.0
            },
            {
                "start_time": 24.7363636,
                "end_time": 24.8363636,
                "pitch": 62,
                "velocity": 80,
                "duration": 0.1,
                "tempo": 120.0
            },
            {
                "start_time": 24.8363636,
                "end_time": 25.0363636,
                "pitch": 57,
                "velocity": 80,
                "duration": 0.2,
                "tempo": 120.0
            },
            {
                "start_time": 25.0363636,
                "end_time": 25.1363636,
                "pitch": 57,
                "velocity": 80,
                "duration": 0.1,
                "tempo": 120.0
            },
            {
                "start_time": 24.3340909,
                "end_time": 25.1363636,
                "pitch": 64,
                "velocity": 80,
                "duration": 0.8022727,
                "tempo": 120.0
            },
            {
                "start_time": 25.1363636,
                "end_time": 25.2522727,
                "pitch": 60,
                "velocity": 80,
                "duration": 0.1159091,
                "tempo": 120.0
            },
            {
                "start_time": 25.3386364,
                "end_time": 25.4522727,
                "pitch": 59,
                "velocity": 80,
                "duration": 0.1136364,
                "tempo": 120.0
            },
            {
                "start_time": 25.5386364,
                "end_time": 25.6545455,
                "pitch": 62,
                "velocity": 80,
                "duration": 0.1159091,
                "tempo": 120.0
            },
            {
                "start_time": 25.7454545,
                "end_time": 25.7909091,
                "pitch": 57,
                "velocity": 80,
                "duration": 0.0454545,
                "tempo": 120.0
            },
            {
                "start_time": 25.8090909,
                "end_time": 25.8590909,
                "pitch": 57,
                "velocity": 80,
                "duration": 0.05,
                "tempo": 120.0
            },
            {
                "start_time": 25.8772727,
                "end_time": 25.9272727,
                "pitch": 57,
                "velocity": 80,
                "duration": 0.05,
                "tempo": 120.0
            },
            {
                "start_time": 12.3613636,
                "end_time": 26.05,
                "pitch": 44,
                "velocity": 80,
                "duration": 13.6886364,
                "tempo": 120.0
            },
            {
                "start_time": 25.9477273,
                "end_time": 26.05,
                "pitch": 60,
                "velocity": 80,
                "duration": 0.1022727,
                "tempo": 120.0
            },
            {
                "start_time": 26.05,
                "end_time": 26.25,
                "pitch": 59,
                "velocity": 80,
                "duration": 0.2,
                "tempo": 120.0
            },
            {
                "start_time": 26.25,
                "end_time": 26.3477273,
                "pitch": 59,
                "velocity": 80,
                "duration": 0.0977273,
                "tempo": 120.0
            },
            {
                "start_time": 26.3477273,
                "end_time": 26.4477273,
                "pitch": 62,
                "velocity": 80,
                "duration": 0.1,
                "tempo": 120.0
            },
            {
                "start_time": 24.8363636,
                "end_time": 26.5454545,
                "pitch": 31,
                "velocity": 80,
                "duration": 1.7090909,
                "tempo": 120.0
            },
            {
                "start_time": 26.4477273,
                "end_time": 26.5454545,
                "pitch": 62,
                "velocity": 80,
                "duration": 0.0977273,
                "tempo": 120.0
            },
            {
                "start_time": 26.5454545,
                "end_time": 26.6431818,
                "pitch": 57,
                "velocity": 80,
                "duration": 0.0977273,
                "tempo": 120.0
            },
            {
                "start_time": 25.1363636,
                "end_time": 26.6431818,
                "pitch": 64,
                "velocity": 80,
                "duration": 1.5068182,
                "tempo": 120.0
            },
            {
                "start_time": 26.05,
                "end_time": 26.8454545,
                "pitch": 44,
                "velocity": 80,
                "duration": 0.7954545,
                "tempo": 120.0
            },
            {
                "start_time": 26.6431818,
                "end_time": 26.8454545,
                "pitch": 60,
                "velocity": 80,
                "duration": 0.2022727,
                "tempo": 120.0
            },
            {
                "start_time": 26.8454545,
                "end_time": 27.0454545,
                "pitch": 59,
                "velocity": 80,
                "duration": 0.2,
                "tempo": 120.0
            },
            {
                "start_time": 27.0454545,
                "end_time": 27.1454545,
                "pitch": 59,
                "velocity": 80,
                "duration": 0.1,
                "tempo": 120.0
            },
            {
                "start_time": 26.3477273,
                "end_time": 27.1454545,
                "pitch": 65,
                "velocity": 80,
                "duration": 0.7977273,
                "tempo": 120.0
            },
            {
                "start_time": 27.1454545,
                "end_time": 27.2454545,
                "pitch": 62,
                "velocity": 80,
                "duration": 0.1,
                "tempo": 120.0
            },
            {
                "start_time": 26.5454545,
                "end_time": 27.35,
                "pitch": 31,
                "velocity": 80,
                "duration": 0.8045455,
                "tempo": 120.0
            },
            {
                "start_time": 27.2454545,
                "end_time": 27.35,
                "pitch": 62,
                "velocity": 80,
                "duration": 0.1045455,
                "tempo": 120.0
            },
            {
                "start_time": 27.35,
                "end_time": 27.3954545,
                "pitch": 57,
                "velocity": 80,
                "duration": 0.0454545,
                "tempo": 120.0
            },
            {
                "start_time": 27.4136364,
                "end_time": 27.4636364,
                "pitch": 57,
                "velocity": 80,
                "duration": 0.05,
                "tempo": 120.0
            },
            {
                "start_time": 27.4818182,
                "end_time": 27.5318182,
                "pitch": 57,
                "velocity": 80,
                "duration": 0.05,
                "tempo": 120.0
            },
            {
                "start_time": 26.8454545,
                "end_time": 27.6545455,
                "pitch": 44,
                "velocity": 80,
                "duration": 0.8090909,
                "tempo": 120.0
            },
            {
                "start_time": 27.5522727,
                "end_time": 27.6545455,
                "pitch": 60,
                "velocity": 80,
                "duration": 0.1022727,
                "tempo": 120.0
            },
            {
                "start_time": 27.6545455,
                "end_time": 27.8545455,
                "pitch": 59,
                "velocity": 80,
                "duration": 0.2,
                "tempo": 120.0
            },
            {
                "start_time": 27.8545455,
                "end_time": 27.9522727,
                "pitch": 59,
                "velocity": 80,
                "duration": 0.0977273,
                "tempo": 120.0
            },
            {
                "start_time": 27.1454545,
                "end_time": 27.9522727,
                "pitch": 65,
                "velocity": 80,
                "duration": 0.8068182,
                "tempo": 120.0
            },
            {
                "start_time": 27.9522727,
                "end_time": 28.0522727,
                "pitch": 62,
                "velocity": 80,
                "duration": 0.1,
                "tempo": 120.0
            },
            {
                "start_time": 27.35,
                "end_time": 28.15,
                "pitch": 31,
                "velocity": 80,
                "duration": 0.8,
                "tempo": 120.0
            },
            {
                "start_time": 28.0522727,
                "end_time": 28.15,
                "pitch": 62,
                "velocity": 80,
                "duration": 0.0977273,
                "tempo": 120.0
            },
            {
                "start_time": 28.15,
                "end_time": 28.25,
                "pitch": 57,
                "velocity": 80,
                "duration": 0.1,
                "tempo": 120.0
            },
            {
                "start_time": 26.6431818,
                "end_time": 28.2522727,
                "pitch": 64,
                "velocity": 80,
                "duration": 1.6090909,
                "tempo": 120.0
            },
            {
                "start_time": 28.25,
                "end_time": 28.2522727,
                "pitch": 64,
                "velocity": 80,
                "duration": 0.0022727,
                "tempo": 120.0
            },
            {
                "start_time": 27.6545455,
                "end_time": 28.4590909,
                "pitch": 44,
                "velocity": 80,
                "duration": 0.8045455,
                "tempo": 120.0
            },
            {
                "start_time": 28.2522727,
                "end_time": 28.4590909,
                "pitch": 60,
                "velocity": 80,
                "duration": 0.2068182,
                "tempo": 120.0
            },
            {
                "start_time": 28.4590909,
                "end_time": 28.6568182,
                "pitch": 59,
                "velocity": 80,
                "duration": 0.1977273,
                "tempo": 120.0
            },
            {
                "start_time": 28.6568182,
                "end_time": 28.7568182,
                "pitch": 59,
                "velocity": 80,
                "duration": 0.1,
                "tempo": 120.0
            },
            {
                "start_time": 27.9522727,
                "end_time": 28.7568182,
                "pitch": 65,
                "velocity": 80,
                "duration": 0.8045455,
                "tempo": 120.0
            },
            {
                "start_time": 28.7568182,
                "end_time": 28.8545455,
                "pitch": 62,
                "velocity": 80,
                "duration": 0.0977273,
                "tempo": 120.0
            },
            {
                "start_time": 28.8545455,
                "end_time": 28.9568182,
                "pitch": 62,
                "velocity": 80,
                "duration": 0.1022727,
                "tempo": 120.0
            },
            {
                "start_time": 28.9568182,
                "end_time": 29.2613636,
                "pitch": 67,
                "velocity": 80,
                "duration": 0.3045455,
                "tempo": 120.0
            },
            {
                "start_time": 19.3045455,
                "end_time": 29.2613636,
                "pitch": 78,
                "velocity": 80,
                "duration": 9.9568182,
                "tempo": 120.0
            },
            {
                "start_time": 28.15,
                "end_time": 29.7568182,
                "pitch": 31,
                "velocity": 80,
                "duration": 1.6068182,
                "tempo": 120.0
            },
            {
                "start_time": 28.7568182,
                "end_time": 29.7568182,
                "pitch": 65,
                "velocity": 80,
                "duration": 1.0,
                "tempo": 120.0
            },
            {
                "start_time": 29.2613636,
                "end_time": 29.7568182,
                "pitch": 65,
                "velocity": 80,
                "duration": 0.4954545,
                "tempo": 120.0
            },
            {
                "start_time": 29.7568182,
                "end_time": 29.8590909,
                "pitch": 69,
                "velocity": 80,
                "duration": 0.1022727,
                "tempo": 120.0
            },
            {
                "start_time": 29.8590909,
                "end_time": 30.0659091,
                "pitch": 69,
                "velocity": 80,
                "duration": 0.2068182,
                "tempo": 120.0
            },
            {
                "start_time": 30.0659091,
                "end_time": 30.5681818,
                "pitch": 67,
                "velocity": 80,
                "duration": 0.5022727,
                "tempo": 120.0
            },
            {
                "start_time": 30.5681818,
                "end_time": 30.6704545,
                "pitch": 71,
                "velocity": 80,
                "duration": 0.1022727,
                "tempo": 120.0
            },
            {
                "start_time": 30.5704545,
                "end_time": 30.6704545,
                "pitch": 71,
                "velocity": 80,
                "duration": 0.1,
                "tempo": 120.0
            },
            {
                "start_time": 30.6704545,
                "end_time": 30.8704545,
                "pitch": 71,
                "velocity": 80,
                "duration": 0.2,
                "tempo": 120.0
            },
            {
                "start_time": 30.8704545,
                "end_time": 31.0727273,
                "pitch": 69,
                "velocity": 80,
                "duration": 0.2022727,
                "tempo": 120.0
            },
            {
                "start_time": 31.0727273,
                "end_time": 31.1727273,
                "pitch": 69,
                "velocity": 80,
                "duration": 0.1,
                "tempo": 120.0
            },
            {
                "start_time": 31.1727273,
                "end_time": 31.2727273,
                "pitch": 69,
                "velocity": 80,
                "duration": 0.1,
                "tempo": 120.0
            },
            {
                "start_time": 31.2727273,
                "end_time": 31.3727273,
                "pitch": 69,
                "velocity": 80,
                "duration": 0.1,
                "tempo": 120.0
            },
            {
                "start_time": 31.3727273,
                "end_time": 31.4727273,
                "pitch": 72,
                "velocity": 80,
                "duration": 0.1,
                "tempo": 120.0
            },
            {
                "start_time": 31.4727273,
                "end_time": 31.5727273,
                "pitch": 72,
                "velocity": 80,
                "duration": 0.1,
                "tempo": 120.0
            },
            {
                "start_time": 31.5727273,
                "end_time": 31.6727273,
                "pitch": 72,
                "velocity": 80,
                "duration": 0.1,
                "tempo": 120.0
            },
            {
                "start_time": 31.6727273,
                "end_time": 31.8727273,
                "pitch": 71,
                "velocity": 80,
                "duration": 0.2,
                "tempo": 120.0
            },
            {
                "start_time": 31.8727273,
                "end_time": 31.975,
                "pitch": 71,
                "velocity": 80,
                "duration": 0.1022727,
                "tempo": 120.0
            },
            {
                "start_time": 31.975,
                "end_time": 32.1772727,
                "pitch": 71,
                "velocity": 80,
                "duration": 0.2022727,
                "tempo": 120.0
            },
            {
                "start_time": 32.1772727,
                "end_time": 32.4772727,
                "pitch": 69,
                "velocity": 80,
                "duration": 0.3,
                "tempo": 120.0
            },
            {
                "start_time": 32.4772727,
                "end_time": 33.7818182,
                "pitch": 67,
                "velocity": 80,
                "duration": 1.3045455,
                "tempo": 120.0
            },
            {
                "start_time": 29.2613636,
                "end_time": 33.7818182,
                "pitch": 78,
                "velocity": 80,
                "duration": 4.5204545,
                "tempo": 120.0
            },
            {
                "start_time": 33.7818182,
                "end_time": 34.0818182,
                "pitch": 65,
                "velocity": 80,
                "duration": 0.3,
                "tempo": 120.0
            },
            {
                "start_time": 34.0818182,
                "end_time": 35.3863636,
                "pitch": 64,
                "velocity": 80,
                "duration": 1.3045455,
                "tempo": 120.0
            },
            {
                "start_time": 35.3863636,
                "end_time": 35.6931818,
                "pitch": 67,
                "velocity": 80,
                "duration": 0.3068182,
                "tempo": 120.0
            },
            {
                "start_time": 33.7818182,
                "end_time": 35.6931818,
                "pitch": 78,
                "velocity": 80,
                "duration": 1.9113636,
                "tempo": 120.0
            },
            {
                "start_time": 35.6954545,
                "end_time": 35.8954545,
                "pitch": 65,
                "velocity": 80,
                "duration": 0.2,
                "tempo": 120.0
            },
            {
                "start_time": 35.8954545,
                "end_time": 35.9931818,
                "pitch": 65,
                "velocity": 80,
                "duration": 0.0977273,
                "tempo": 120.0
            },
            {
                "start_time": 35.9931818,
                "end_time": 36.0909091,
                "pitch": 65,
                "velocity": 80,
                "duration": 0.0977273,
                "tempo": 120.0
            },
            {
                "start_time": 29.7568182,
                "end_time": 36.1909091,
                "pitch": 31,
                "velocity": 80,
                "duration": 6.4340909,
                "tempo": 120.0
            },
            {
                "start_time": 36.0909091,
                "end_time": 36.1909091,
                "pitch": 65,
                "velocity": 80,
                "duration": 0.1,
                "tempo": 120.0
            },
            {
                "start_time": 36.1909091,
                "end_time": 36.2931818,
                "pitch": 69,
                "velocity": 80,
                "duration": 0.1022727,
                "tempo": 120.0
            },
            {
                "start_time": 36.2931818,
                "end_time": 36.4977273,
                "pitch": 69,
                "velocity": 80,
                "duration": 0.2045455,
                "tempo": 120.0
            },
            {
                "start_time": 36.4977273,
                "end_time": 36.9931818,
                "pitch": 67,
                "velocity": 80,
                "duration": 0.4954545,
                "tempo": 120.0
            },
            {
                "start_time": 36.9931818,
                "end_time": 37.0954545,
                "pitch": 67,
                "velocity": 80,
                "duration": 0.1022727,
                "tempo": 120.0
            },
            {
                "start_time": 37.0954545,
                "end_time": 37.1977273,
                "pitch": 67,
                "velocity": 80,
                "duration": 0.1022727,
                "tempo": 120.0
            },
            {
                "start_time": 37.1977273,
                "end_time": 37.3022727,
                "pitch": 67,
                "velocity": 80,
                "duration": 0.1045455,
                "tempo": 120.0
            },
            {
                "start_time": 35.6931818,
                "end_time": 37.3022727,
                "pitch": 78,
                "velocity": 80,
                "duration": 1.6090909,
                "tempo": 120.0
            },
            {
                "start_time": 37.3022727,
                "end_time": 37.5045455,
                "pitch": 65,
                "velocity": 80,
                "duration": 0.2022727,
                "tempo": 120.0
            },
            {
                "start_time": 37.5045455,
                "end_time": 37.6045455,
                "pitch": 65,
                "velocity": 80,
                "duration": 0.1,
                "tempo": 120.0
            },
            {
                "start_time": 37.6045455,
                "end_time": 37.7045455,
                "pitch": 65,
                "velocity": 80,
                "duration": 0.1,
                "tempo": 120.0
            },
            {
                "start_time": 36.1909091,
                "end_time": 37.8045455,
                "pitch": 31,
                "velocity": 80,
                "duration": 1.6136364,
                "tempo": 120.0
            },
            {
                "start_time": 37.7045455,
                "end_time": 37.8045455,
                "pitch": 65,
                "velocity": 80,
                "duration": 0.1,
                "tempo": 120.0
            },
            {
                "start_time": 37.8068182,
                "end_time": 37.9045455,
                "pitch": 69,
                "velocity": 80,
                "duration": 0.0977273,
                "tempo": 120.0
            },
            {
                "start_time": 37.9045455,
                "end_time": 38.0045455,
                "pitch": 69,
                "velocity": 80,
                "duration": 0.1,
                "tempo": 120.0
            },
            {
                "start_time": 38.0045455,
                "end_time": 38.1045455,
                "pitch": 69,
                "velocity": 80,
                "duration": 0.1,
                "tempo": 120.0
            },
            {
                "start_time": 38.1045455,
                "end_time": 38.4022727,
                "pitch": 67,
                "velocity": 80,
                "duration": 0.2977273,
                "tempo": 120.0
            },
            {
                "start_time": 38.4022727,
                "end_time": 38.5,
                "pitch": 67,
                "velocity": 80,
                "duration": 0.0977273,
                "tempo": 120.0
            },
            {
                "start_time": 38.5,
                "end_time": 38.6,
                "pitch": 67,
                "velocity": 80,
                "duration": 0.1,
                "tempo": 120.0
            },
            {
                "start_time": 37.3022727,
                "end_time": 38.6,
                "pitch": 78,
                "velocity": 80,
                "duration": 1.2977273,
                "tempo": 120.0
            },
            {
                "start_time": 38.6,
                "end_time": 38.7,
                "pitch": 65,
                "velocity": 80,
                "duration": 0.1,
                "tempo": 120.0
            },
            {
                "start_time": 38.7,
                "end_time": 38.8045455,
                "pitch": 65,
                "velocity": 80,
                "duration": 0.1045455,
                "tempo": 120.0
            },
            {
                "start_time": 38.8045455,
                "end_time": 38.9068182,
                "pitch": 65,
                "velocity": 80,
                "duration": 0.1022727,
                "tempo": 120.0
            },
            {
                "start_time": 38.9068182,
                "end_time": 40.2113636,
                "pitch": 64,
                "velocity": 80,
                "duration": 1.3045455,
                "tempo": 120.0
            },
            {
                "start_time": 40.2113636,
                "end_time": 40.3113636,
                "pitch": 62,
                "velocity": 80,
                "duration": 0.1,
                "tempo": 120.0
            },
            {
                "start_time": 40.2113636,
                "end_time": 40.3113636,
                "pitch": 62,
                "velocity": 80,
                "duration": 0.1,
                "tempo": 120.0
            },
            {
                "start_time": 40.3113636,
                "end_time": 40.5113636,
                "pitch": 62,
                "velocity": 80,
                "duration": 0.2,
                "tempo": 120.0
            },
            {
                "start_time": 40.5113636,
                "end_time": 41.8181818,
                "pitch": 60,
                "velocity": 80,
                "duration": 1.3068182,
                "tempo": 120.0
            },
            {
                "start_time": 40.5136364,
                "end_time": 41.8181818,
                "pitch": 60,
                "velocity": 80,
                "duration": 1.3045455,
                "tempo": 120.0
            },
            {
                "start_time": 41.8181818,
                "end_time": 41.9181818,
                "pitch": 55,
                "velocity": 101,
                "duration": 0.1,
                "tempo": 120.0
            },
            {
                "start_time": 41.9181818,
                "end_time": 42.0227273,
                "pitch": 55,
                "velocity": 101,
                "duration": 0.1045455,
                "tempo": 120.0
            },
            {
                "start_time": 42.0227273,
                "end_time": 42.125,
                "pitch": 59,
                "velocity": 101,
                "duration": 0.1022727,
                "tempo": 120.0
            },
            {
                "start_time": 42.0227273,
                "end_time": 42.125,
                "pitch": 59,
                "velocity": 101,
                "duration": 0.1022727,
                "tempo": 120.0
            },
            {
                "start_time": 37.8045455,
                "end_time": 43.4340909,
                "pitch": 31,
                "velocity": 80,
                "duration": 5.6295455,
                "tempo": 120.0
            },
            {
                "start_time": 42.125,
                "end_time": 43.4340909,
                "pitch": 62,
                "velocity": 101,
                "duration": 1.3090909,
                "tempo": 120.0
            },
            {
                "start_time": 43.4340909,
                "end_time": 43.5318182,
                "pitch": 57,
                "velocity": 101,
                "duration": 0.0977273,
                "tempo": 120.0
            },
            {
                "start_time": 43.5318182,
                "end_time": 43.6295455,
                "pitch": 57,
                "velocity": 101,
                "duration": 0.0977273,
                "tempo": 120.0
            },
            {
                "start_time": 43.6295455,
                "end_time": 43.6318182,
                "pitch": 59,
                "velocity": 101,
                "duration": 0.0022727,
                "tempo": 120.0
            },
            {
                "start_time": 43.6318182,
                "end_time": 43.7272727,
                "pitch": 59,
                "velocity": 101,
                "duration": 0.0954545,
                "tempo": 120.0
            },
            {
                "start_time": 43.7295455,
                "end_time": 45.0386364,
                "pitch": 60,
                "velocity": 101,
                "duration": 1.3090909,
                "tempo": 120.0
            },
            {
                "start_time": 45.0386364,
                "end_time": 45.1363636,
                "pitch": 55,
                "velocity": 101,
                "duration": 0.0977273,
                "tempo": 120.0
            },
            {
                "start_time": 45.1363636,
                "end_time": 45.2363636,
                "pitch": 59,
                "velocity": 101,
                "duration": 0.1,
                "tempo": 120.0
            },
            {
                "start_time": 45.1363636,
                "end_time": 45.2363636,
                "pitch": 59,
                "velocity": 101,
                "duration": 0.1,
                "tempo": 120.0
            },
            {
                "start_time": 42.125,
                "end_time": 45.2363636,
                "pitch": 65,
                "velocity": 101,
                "duration": 3.1113636,
                "tempo": 120.0
            },
            {
                "start_time": 45.2363636,
                "end_time": 45.3340909,
                "pitch": 62,
                "velocity": 101,
                "duration": 0.0977273,
                "tempo": 120.0
            },
            {
                "start_time": 45.3340909,
                "end_time": 46.0318182,
                "pitch": 67,
                "velocity": 101,
                "duration": 0.6977273,
                "tempo": 120.0
            },
            {
                "start_time": 46.0340909,
                "end_time": 46.2318182,
                "pitch": 67,
                "velocity": 101,
                "duration": 0.1977273,
                "tempo": 120.0
            },
            {
                "start_time": 38.6,
                "end_time": 46.2318182,
                "pitch": 78,
                "velocity": 80,
                "duration": 7.6318182,
                "tempo": 120.0
            },
            {
                "start_time": 45.2363636,
                "end_time": 46.5318182,
                "pitch": 65,
                "velocity": 101,
                "duration": 1.2954545,
                "tempo": 120.0
            },
            {
                "start_time": 46.2318182,
                "end_time": 46.5318182,
                "pitch": 65,
                "velocity": 101,
                "duration": 0.3,
                "tempo": 120.0
            },
            {
                "start_time": 43.4340909,
                "end_time": 46.6340909,
                "pitch": 31,
                "velocity": 101,
                "duration": 3.2,
                "tempo": 120.0
            },
            {
                "start_time": 43.7272727,
                "end_time": 46.6340909,
                "pitch": 64,
                "velocity": 101,
                "duration": 2.9068182,
                "tempo": 120.0
            },
            {
                "start_time": 46.5340909,
                "end_time": 46.6340909,
                "pitch": 64,
                "velocity": 101,
                "duration": 0.1,
                "tempo": 120.0
            },
            {
                "start_time": 46.6340909,
                "end_time": 46.7363636,
                "pitch": 57,
                "velocity": 101,
                "duration": 0.1022727,
                "tempo": 120.0
            },
            {
                "start_time": 46.7363636,
                "end_time": 46.8386364,
                "pitch": 57,
                "velocity": 101,
                "duration": 0.1022727,
                "tempo": 120.0
            },
            {
                "start_time": 46.8386364,
                "end_time": 46.9409091,
                "pitch": 57,
                "velocity": 101,
                "duration": 0.1022727,
                "tempo": 120.0
            },
            {
                "start_time": 46.9409091,
                "end_time": 48.2386364,
                "pitch": 60,
                "velocity": 101,
                "duration": 1.2977273,
                "tempo": 120.0
            },
            {
                "start_time": 48.2386364,
                "end_time": 48.3386364,
                "pitch": 65,
                "velocity": 101,
                "duration": 0.1,
                "tempo": 120.0
            },
            {
                "start_time": 48.2386364,
                "end_time": 48.3386364,
                "pitch": 65,
                "velocity": 101,
                "duration": 0.1,
                "tempo": 120.0
            },
            {
                "start_time": 46.6340909,
                "end_time": 48.4386364,
                "pitch": 31,
                "velocity": 101,
                "duration": 1.8045455,
                "tempo": 120.0
            },
            {
                "start_time": 48.3386364,
                "end_time": 48.4386364,
                "pitch": 65,
                "velocity": 101,
                "duration": 0.1,
                "tempo": 120.0
            },
            {
                "start_time": 48.4386364,
                "end_time": 48.5386364,
                "pitch": 69,
                "velocity": 101,
                "duration": 0.1,
                "tempo": 120.0
            },
            {
                "start_time": 31.3727273,
                "end_time": 48.5386364,
                "pitch": 76,
                "velocity": 80,
                "duration": 17.1659091,
                "tempo": 120.0
            },
            {
                "start_time": 31.6727273,
                "end_time": 49.8545455,
                "pitch": 56,
                "velocity": 80,
                "duration": 18.1818182,
                "tempo": 120.0
            },
            {
                "start_time": 48.5386364,
                "end_time": 49.8545455,
                "pitch": 72,
                "velocity": 101,
                "duration": 1.3159091,
                "tempo": 120.0
            },
            {
                "start_time": 49.8545455,
                "end_time": 49.9545455,
                "pitch": 71,
                "velocity": 101,
                "duration": 0.1,
                "tempo": 120.0
            },
            {
                "start_time": 49.9545455,
                "end_time": 50.0545455,
                "pitch": 71,
                "velocity": 101,
                "duration": 0.1,
                "tempo": 120.0
            },
            {
                "start_time": 50.0545455,
                "end_time": 50.1545455,
                "pitch": 74,
                "velocity": 101,
                "duration": 0.1,
                "tempo": 120.0
            },
            {
                "start_time": 50.0545455,
                "end_time": 50.1545455,
                "pitch": 77,
                "velocity": 101,
                "duration": 0.1,
                "tempo": 120.0
            },
            {
                "start_time": 50.1545455,
                "end_time": 51.4590909,
                "pitch": 77,
                "velocity": 101,
                "duration": 1.3045455,
                "tempo": 120.0
            },
            {
                "start_time": 50.1545455,
                "end_time": 51.4590909,
                "pitch": 77,
                "velocity": 101,
                "duration": 1.3045455,
                "tempo": 120.0
            },
            {
                "start_time": 51.4590909,
                "end_time": 51.7681818,
                "pitch": 77,
                "velocity": 101,
                "duration": 0.3090909,
                "tempo": 120.0
            },
            {
                "start_time": 48.5386364,
                "end_time": 52.0659091,
                "pitch": 76,
                "velocity": 101,
                "duration": 3.5272727,
                "tempo": 120.0
            },
            {
                "start_time": 51.7681818,
                "end_time": 52.0659091,
                "pitch": 76,
                "velocity": 101,
                "duration": 0.2977273,
                "tempo": 120.0
            },
            {
                "start_time": 52.0659091,
                "end_time": 52.3659091,
                "pitch": 74,
                "velocity": 101,
                "duration": 0.3,
                "tempo": 120.0
            },
            {
                "start_time": 52.0659091,
                "end_time": 52.3659091,
                "pitch": 74,
                "velocity": 101,
                "duration": 0.3,
                "tempo": 120.0
            },
            {
                "start_time": 49.8545455,
                "end_time": 52.6727273,
                "pitch": 56,
                "velocity": 101,
                "duration": 2.8181818,
                "tempo": 120.0
            },
            {
                "start_time": 52.3659091,
                "end_time": 52.6727273,
                "pitch": 72,
                "velocity": 101,
                "duration": 0.3068182,
                "tempo": 120.0
            },
            {
                "start_time": 52.3659091,
                "end_time": 52.6727273,
                "pitch": 72,
                "velocity": 101,
                "duration": 0.3068182,
                "tempo": 120.0
            },
            {
                "start_time": 52.675,
                "end_time": 53.075,
                "pitch": 71,
                "velocity": 101,
                "duration": 0.4,
                "tempo": 120.0
            },
            {
                "start_time": 53.075,
                "end_time": 53.6772727,
                "pitch": 71,
                "velocity": 101,
                "duration": 0.6022727,
                "tempo": 120.0
            },
            {
                "start_time": 53.6772727,
                "end_time": 53.7772727,
                "pitch": 72,
                "velocity": 101,
                "duration": 0.1,
                "tempo": 120.0
            },
            {
                "start_time": 53.7772727,
                "end_time": 53.8772727,
                "pitch": 74,
                "velocity": 101,
                "duration": 0.1,
                "tempo": 120.0
            },
            {
                "start_time": 53.6772727,
                "end_time": 54.6931818,
                "pitch": 76,
                "velocity": 101,
                "duration": 1.0159091,
                "tempo": 120.0
            },
            {
                "start_time": 53.8772727,
                "end_time": 54.6931818,
                "pitch": 76,
                "velocity": 101,
                "duration": 0.8159091,
                "tempo": 120.0
            }
        ]
    }
}