{
    "mood": "angry",
    "instruments": {
        "Vibraphone": [
            {
                "start_time": 0.0227273,
                "end_time": 0.1886364,
                "pitch": 50,
                "velocity": 80,
                "duration": 0.1659091,
                "tempo": 120.0
            },
            {
                "start_time": 0.1886364,
                "end_time": 0.3386364,
                "pitch": 50,
                "velocity": 80,
                "duration": 0.15,
                "tempo": 120.0
            },
            {
                "start_time": 0.3386364,
                "end_time": 0.5068182,
                "pitch": 62,
                "velocity": 80,
                "duration": 0.1681818,
                "tempo": 120.0
            },
            {
                "start_time": 0.5068182,
                "end_time": 0.6568182,
                "pitch": 50,
                "velocity": 80,
                "duration": 0.15,
                "tempo": 120.0
            },
            {
                "start_time": 0.6568182,
                "end_time": 0.8227273,
                "pitch": 62,
                "velocity": 80,
                "duration": 0.1659091,
                "tempo": 120.0
            },
            {
                "start_time": 0.8227273,
                "end_time": 0.9727273,
                "pitch": 50,
                "velocity": 80,
                "duration": 0.15,
                "tempo": 120.0
            },
            {
                "start_time": 0.9727273,
                "end_time": 1.1386364,
                "pitch": 50,
                "velocity": 80,
                "duration": 0.1659091,
                "tempo": 120.0
            },
            {
                "start_time": 1.1386364,
                "end_time": 1.2886364,
                "pitch": 53,
                "velocity": 80,
                "duration": 0.15,
                "tempo": 120.0
            },
            {
                "start_time": 1.2886364,
                "end_time": 1.4522727,
                "pitch": 53,
                "velocity": 80,
                "duration": 0.1636364,
                "tempo": 120.0
            },
            {
                "start_time": 1.4522727,
                "end_time": 1.5954545,
                "pitch": 65,
                "velocity": 80,
                "duration": 0.1431818,
                "tempo": 120.0
            },
            {
                "start_time": 1.5954545,
                "end_time": 1.7568182,
                "pitch": 53,
                "velocity": 80,
                "duration": 0.1613636,
                "tempo": 120.0
            },
            {
                "start_time": 1.7568182,
                "end_time": 1.9022727,
                "pitch": 65,
                "velocity": 80,
                "duration": 0.1454545,
                "tempo": 120.0
            },
            {
                "start_time": 1.9022727,
                "end_time": 2.0704545,
                "pitch": 53,
                "velocity": 80,
                "duration": 0.1681818,
                "tempo": 120.0
            },
            {
                "start_time": 2.0704545,
                "end_time": 2.2204545,
                "pitch": 53,
                "velocity": 80,
                "duration": 0.15,
                "tempo": 120.0
            },
            {
                "start_time": 2.2204545,
                "end_time": 2.3818182,
                "pitch": 65,
                "velocity": 80,
                "duration": 0.1613636,
                "tempo": 120.0
            },
            {
                "start_time": 1.1386364,
                "end_time": 2.5272727,
                "pitch": 50,
                "velocity": 80,
                "duration": 1.3886364,
                "tempo": 120.0
            },
            {
                "start_time": 2.3818182,
                "end_time": 2.5272727,
                "pitch": 50,
                "velocity": 80,
                "duration": 0.1454545,
                "tempo": 120.0
            },
            {
                "start_time": 2.5272727,
                "end_time": 2.6931818,
                "pitch": 50,
                "velocity": 80,
                "duration": 0.1659091,
                "tempo": 120.0
            },
            {
                "start_time": 2.6931818,
                "end_time": 2.8431818,
                "pitch": 62,
                "velocity": 80,
                "duration": 0.15,
                "tempo": 120.0
            },
            {
                "start_time": 2.8431818,
                "end_time": 3.0090909,
                "pitch": 50,
                "velocity": 80,
                "duration": 0.1659091,
                "tempo": 120.0
            },
            {
                "start_time": 3.0090909,
                "end_time": 3.1590909,
                "pitch": 62,
                "velocity": 80,
                "duration": 0.15,
                "tempo": 120.0
            },
            {
                "start_time": 3.1590909,
                "end_time": 3.3204545,
                "pitch": 50,
                "velocity": 80,
                "duration": 0.1613636,
                "tempo": 120.0
            },
            {
                "start_time": 3.3204545,
                "end_time": 3.4659091,
                "pitch": 50,
                "velocity": 80,
                "duration": 0.1454545,
                "tempo": 120.0
            },
            {
                "start_time": 2.3818182,
                "end_time": 3.6318182,
                "pitch": 53,
                "velocity": 80,
                "duration": 1.25,
                "tempo": 120.0
            },
            {
                "start_time": 3.4659091,
                "end_time": 3.6318182,
                "pitch": 53,
                "velocity": 80,
                "duration": 0.1659091,
                "tempo": 120.0
            },
            {
                "start_time": 3.6318182,
                "end_time": 3.7818182,
                "pitch": 53,
                "velocity": 80,
                "duration": 0.15,
                "tempo": 120.0
            },
            {
                "start_time": 3.7818182,
                "end_time": 3.9431818,
                "pitch": 65,
                "velocity": 80,
                "duration": 0.1613636,
                "tempo": 120.0
            },
            {
                "start_time": 3.9431818,
                "end_time": 4.0886364,
                "pitch": 53,
                "velocity": 80,
                "duration": 0.1454545,
                "tempo": 120.0
            },
            {
                "start_time": 4.0886364,
                "end_time": 4.2340909,
                "pitch": 65,
                "velocity": 80,
                "duration": 0.1454545,
                "tempo": 120.0
            },
            {
                "start_time": 4.2340909,
                "end_time": 4.3954545,
                "pitch": 53,
                "velocity": 80,
                "duration": 0.1613636,
                "tempo": 120.0
            },
            {
                "start_time": 4.3954545,
                "end_time": 4.5454545,
                "pitch": 53,
                "velocity": 80,
                "duration": 0.15,
                "tempo": 120.0
            },
            {
                "start_time": 4.5454545,
                "end_time": 4.7136364,
                "pitch": 65,
                "velocity": 80,
                "duration": 0.1681818,
                "tempo": 120.0
            },
            {
                "start_time": 4.7136364,
                "end_time": 4.8590909,
                "pitch": 51,
                "velocity": 80,
                "duration": 0.1454545,
                "tempo": 120.0
            },
            {
                "start_time": 4.8590909,
                "end_time": 5.0204545,
                "pitch": 51,
                "velocity": 80,
                "duration": 0.1613636,
                "tempo": 120.0
            },
            {
                "start_time": 5.0204545,
                "end_time": 5.1704545,
                "pitch": 63,
                "velocity": 80,
                "duration": 0.15,
                "tempo": 120.0
            },
            {
                "start_time": 5.1704545,
                "end_time": 5.3363636,
                "pitch": 51,
                "velocity": 80,
                "duration": 0.1659091,
                "tempo": 120.0
            },
            {
                "start_time": 5.3363636,
                "end_time": 5.4863636,
                "pitch": 63,
                "velocity": 80,
                "duration": 0.15,
                "tempo": 120.0
            },
            {
                "start_time": 5.4863636,
                "end_time": 5.6522727,
                "pitch": 51,
                "velocity": 80,
                "duration": 0.1659091,
                "tempo": 120.0
            },
            {
                "start_time": 5.6522727,
                "end_time": 5.8022727,
                "pitch": 51,
                "velocity": 80,
                "duration": 0.15,
                "tempo": 120.0
            },
            {
                "start_time": 5.8022727,
                "end_time": 5.9704545,
                "pitch": 63,
                "velocity": 80,
                "duration": 0.1681818,
                "tempo": 120.0
            },
            {
                "start_time": 5.9704545,
                "end_time": 6.1159091,
                "pitch": 51,
                "velocity": 80,
                "duration": 0.1454545,
                "tempo": 120.0
            },
            {
                "start_time": 6.1159091,
                "end_time": 6.2772727,
                "pitch": 51,
                "velocity": 80,
                "duration": 0.1613636,
                "tempo": 120.0
            },
            {
                "start_time": 6.2772727,
                "end_time": 6.425,
                "pitch": 63,
                "velocity": 80,
                "duration": 0.1477273,
                "tempo": 120.0
            },
            {
                "start_time": 6.425,
                "end_time": 6.5931818,
                "pitch": 51,
                "velocity": 80,
                "duration": 0.1681818,
                "tempo": 120.0
            },
            {
                "start_time": 6.5931818,
                "end_time": 6.7431818,
                "pitch": 63,
                "velocity": 80,
                "duration": 0.15,
                "tempo": 120.0
            },
            {
                "start_time": 6.7431818,
                "end_time": 6.9090909,
                "pitch": 51,
                "velocity": 80,
                "duration": 0.1659091,
                "tempo": 120.0
            },
            {
                "start_time": 6.9090909,
                "end_time": 7.0590909,
                "pitch": 51,
                "velocity": 80,
                "duration": 0.15,
                "tempo": 120.0
            },
            {
                "start_time": 7.0590909,
                "end_time": 7.225,
                "pitch": 51,
                "velocity": 80,
                "duration": 0.1659091,
                "tempo": 120.0
            },
            {
                "start_time": 7.225,
                "end_time": 7.3704545,
                "pitch": 52,
                "velocity": 80,
                "duration": 0.1454545,
                "tempo": 120.0
            },
            {
                "start_time": 7.3704545,
                "end_time": 7.5340909,
                "pitch": 64,
                "velocity": 80,
                "duration": 0.1636364,
                "tempo": 120.0
            },
            {
                "start_time": 7.5340909,
                "end_time": 7.6772727,
                "pitch": 52,
                "velocity": 80,
                "duration": 0.1431818,
                "tempo": 120.0
            },
            {
                "start_time": 7.6772727,
                "end_time": 7.8409091,
                "pitch": 64,
                "velocity": 80,
                "duration": 0.1636364,
                "tempo": 120.0
            },
            {
                "start_time": 7.8409091,
                "end_time": 7.9840909,
                "pitch": 52,
                "velocity": 80,
                "duration": 0.1431818,
                "tempo": 120.0
            },
            {
                "start_time": 7.9840909,
                "end_time": 8.1477273,
                "pitch": 52,
                "velocity": 80,
                "duration": 0.1636364,
                "tempo": 120.0
            },
            {
                "start_time": 8.1477273,
                "end_time": 8.2977273,
                "pitch": 64,
                "velocity": 80,
                "duration": 0.15,
                "tempo": 120.0
            },
            {
                "start_time": 8.2977273,
                "end_time": 8.4477273,
                "pitch": 52,
                "velocity": 80,
                "duration": 0.15,
                "tempo": 120.0
            },
            {
                "start_time": 8.4477273,
                "end_time": 8.6090909,
                "pitch": 52,
                "velocity": 80,
                "duration": 0.1613636,
                "tempo": 120.0
            },
            {
                "start_time": 8.6090909,
                "end_time": 8.7545455,
                "pitch": 64,
                "velocity": 80,
                "duration": 0.1454545,
                "tempo": 120.0
            },
            {
                "start_time": 8.7545455,
                "end_time": 8.9113636,
                "pitch": 52,
                "velocity": 80,
                "duration": 0.1568182,
                "tempo": 120.0
            },
            {
                "start_time": 8.9113636,
                "end_time": 9.0522727,
                "pitch": 64,
                "velocity": 80,
                "duration": 0.1409091,
                "tempo": 120.0
            },
            {
                "start_time": 9.0522727,
                "end_time": 9.2181818,
                "pitch": 52,
                "velocity": 80,
                "duration": 0.1659091,
                "tempo": 120.0
            },
            {
                "start_time": 9.2181818,
                "end_time": 9.3681818,
                "pitch": 52,
                "velocity": 80,
                "duration": 0.15,
                "tempo": 120.0
            },
            {
                "start_time": 9.3681818,
                "end_time": 9.5090909,
                "pitch": 64,
                "velocity": 80,
                "duration": 0.1409091,
                "tempo": 120.0
            }
        ],
        "Electric Guitar (clean)": [
            {
                "start_time": 0.0227273,
                "end_time": 0.1886364,
                "pitch": 43,
                "velocity": 64,
                "duration": 0.1659091,
                "tempo": 120.0
            },
            {
                "start_time": 0.1886364,
                "end_time": 0.3386364,
                "pitch": 43,
                "velocity": 64,
                "duration": 0.15,
                "tempo": 120.0
            },
            {
                "start_time": 0.3386364,
                "end_time": 0.5068182,
                "pitch": 43,
                "velocity": 64,
                "duration": 0.1681818,
                "tempo": 120.0
            },
            {
                "start_time": 0.5068182,
                "end_time": 0.6568182,
                "pitch": 43,
                "velocity": 64,
                "duration": 0.15,
                "tempo": 120.0
            },
            {
                "start_time": 0.6568182,
                "end_time": 0.8227273,
                "pitch": 43,
                "velocity": 64,
                "duration": 0.1659091,
                "tempo": 120.0
            },
            {
                "start_time": 0.8227273,
                "end_time": 0.9727273,
                "pitch": 43,
                "velocity": 64,
                "duration": 0.15,
                "tempo": 120.0
            },
            {
                "start_time": 0.9727273,
                "end_time": 1.1386364,
                "pitch": 43,
                "velocity": 64,
                "duration": 0.1659091,
                "tempo": 120.0
            },
            {
                "start_time": 1.1386364,
                "end_time": 1.2886364,
                "pitch": 46,
                "velocity": 64,
                "duration": 0.15,
                "tempo": 120.0
            },
            {
                "start_time": 1.2886364,
                "end_time": 1.4522727,
                "pitch": 46,
                "velocity": 64,
                "duration": 0.1636364,
                "tempo": 120.0
            },
            {
                "start_time": 1.4522727,
                "end_time": 1.5954545,
                "pitch": 46,
                "velocity": 64,
                "duration": 0.1431818,
                "tempo": 120.0
            },
            {
                "start_time": 1.5954545,
                "end_time": 1.7590909,
                "pitch": 46,
                "velocity": 64,
                "duration": 0.1636364,
                "tempo": 120.0
            },
            {
                "start_time": 1.7590909,
                "end_time": 1.9022727,
                "pitch": 46,
                "velocity": 64,
                "duration": 0.1431818,
                "tempo": 120.0
            },
            {
                "start_time": 1.9022727,
                "end_time": 2.0704545,
                "pitch": 46,
                "velocity": 64,
                "duration": 0.1681818,
                "tempo": 120.0
            },
            {
                "start_time": 2.0704545,
                "end_time": 2.2204545,
                "pitch": 46,
                "velocity": 64,
                "duration": 0.15,
                "tempo": 120.0
            },
            {
                "start_time": 2.2204545,
                "end_time": 2.3818182,
                "pitch": 46,
                "velocity": 64,
                "duration": 0.1613636,
                "tempo": 120.0
            },
            {
                "start_time": 2.3818182,
                "end_time": 2.5272727,
                "pitch": 43,
                "velocity": 64,
                "duration": 0.1454545,
                "tempo": 120.0
            },
            {
                "start_time": 2.5272727,
                "end_time": 2.6931818,
                "pitch": 43,
                "velocity": 64,
                "duration": 0.1659091,
                "tempo": 120.0
            },
            {
                "start_time": 2.6931818,
                "end_time": 2.8431818,
                "pitch": 43,
                "velocity": 64,
                "duration": 0.15,
                "tempo": 120.0
            },
            {
                "start_time": 2.8431818,
                "end_time": 3.0090909,
                "pitch": 43,
                "velocity": 64,
                "duration": 0.1659091,
                "tempo": 120.0
            },
            {
                "start_time": 3.0090909,
                "end_time": 3.1590909,
                "pitch": 43,
                "velocity": 64,
                "duration": 0.15,
                "tempo": 120.0
            },
            {
                "start_time": 3.1590909,
                "end_time": 3.3204545,
                "pitch": 43,
                "velocity": 64,
                "duration": 0.1613636,
                "tempo": 120.0
            },
            {
                "start_time": 3.3204545,
                "end_time": 3.4659091,
                "pitch": 43,
                "velocity": 64,
                "duration": 0.1454545,
                "tempo": 120.0
            },
            {
                "start_time": 3.4659091,
                "end_time": 3.6318182,
                "pitch": 46,
                "velocity": 64,
                "duration": 0.1659091,
                "tempo": 120.0
            },
            {
                "start_time": 3.6318182,
                "end_time": 3.7818182,
                "pitch": 46,
                "velocity": 64,
                "duration": 0.15,
                "tempo": 120.0
            },
            {
                "start_time": 3.7818182,
                "end_time": 3.9454545,
                "pitch": 46,
                "velocity": 64,
                "duration": 0.1636364,
                "tempo": 120.0
            },
            {
                "start_time": 3.9454545,
                "end_time": 4.0886364,
                "pitch": 46,
                "velocity": 64,
                "duration": 0.1431818,
                "tempo": 120.0
            },
            {
                "start_time": 4.0886364,
                "end_time": 4.2340909,
                "pitch": 46,
                "velocity": 64,
                "duration": 0.1454545,
                "tempo": 120.0
            },
            {
                "start_time": 4.2340909,
                "end_time": 4.3954545,
                "pitch": 46,
                "velocity": 64,
                "duration": 0.1613636,
                "tempo": 120.0
            },
            {
                "start_time": 4.3954545,
                "end_time": 4.5454545,
                "pitch": 46,
                "velocity": 64,
                "duration": 0.15,
                "tempo": 120.0
            },
            {
                "start_time": 4.5454545,
                "end_time": 4.7136364,
                "pitch": 46,
                "velocity": 64,
                "duration": 0.1681818,
                "tempo": 120.0
            },
            {
                "start_time": 4.7136364,
                "end_time": 4.8590909,
                "pitch": 46,
                "velocity": 64,
                "duration": 0.1454545,
                "tempo": 120.0
            },
            {
                "start_time": 4.8590909,
                "end_time": 5.0204545,
                "pitch": 47,
                "velocity": 64,
                "duration": 0.1613636,
                "tempo": 120.0
            },
            {
                "start_time": 5.0204545,
                "end_time": 5.1704545,
                "pitch": 47,
                "velocity": 64,
                "duration": 0.15,
                "tempo": 120.0
            },
            {
                "start_time": 5.1704545,
                "end_time": 5.3363636,
                "pitch": 47,
                "velocity": 64,
                "duration": 0.1659091,
                "tempo": 120.0
            },
            {
                "start_time": 5.3363636,
                "end_time": 5.4863636,
                "pitch": 47,
                "velocity": 64,
                "duration": 0.15,
                "tempo": 120.0
            },
            {
                "start_time": 5.4863636,
                "end_time": 5.6522727,
                "pitch": 47,
                "velocity": 64,
                "duration": 0.1659091,
                "tempo": 120.0
            },
            {
                "start_time": 5.6522727,
                "end_time": 5.8022727,
                "pitch": 47,
                "velocity": 64,
                "duration": 0.15,
                "tempo": 120.0
            },
            {
                "start_time": 5.8022727,
                "end_time": 5.9704545,
                "pitch": 47,
                "velocity": 64,
                "duration": 0.1681818,
                "tempo": 120.0
            },
            {
                "start_time": 5.9704545,
                "end_time": 6.1159091,
                "pitch": 47,
                "velocity": 64,
                "duration": 0.1454545,
                "tempo": 120.0
            },
            {
                "start_time": 6.1159091,
                "end_time": 6.2772727,
                "pitch": 47,
                "velocity": 64,
                "duration": 0.1613636,
                "tempo": 120.0
            },
            {
                "start_time": 6.2772727,
                "end_time": 6.4272727,
                "pitch": 47,
                "velocity": 64,
                "duration": 0.15,
                "tempo": 120.0
            },
            {
                "start_time": 6.4272727,
                "end_time": 6.5931818,
                "pitch": 47,
                "velocity": 64,
                "duration": 0.1659091,
                "tempo": 120.0
            },
            {
                "start_time": 6.5931818,
                "end_time": 6.7431818,
                "pitch": 47,
                "velocity": 64,
                "duration": 0.15,
                "tempo": 120.0
            },
            {
                "start_time": 6.7431818,
                "end_time": 6.9090909,
                "pitch": 47,
                "velocity": 64,
                "duration": 0.1659091,
                "tempo": 120.0
            },
            {
                "start_time": 6.9090909,
                "end_time": 7.0590909,
                "pitch": 47,
                "velocity": 64,
                "duration": 0.15,
                "tempo": 120.0
            },
            {
                "start_time": 7.0590909,
                "end_time": 7.225,
                "pitch": 47,
                "velocity": 64,
                "duration": 0.1659091,
                "tempo": 120.0
            },
            {
                "start_time": 7.225,
                "end_time": 7.3727273,
                "pitch": 48,
                "velocity": 64,
                "duration": 0.1477273,
                "tempo": 120.0
            },
            {
                "start_time": 7.3727273,
                "end_time": 7.5340909,
                "pitch": 48,
                "velocity": 64,
                "duration": 0.1613636,
                "tempo": 120.0
            },
            {
                "start_time": 7.5340909,
                "end_time": 7.6772727,
                "pitch": 48,
                "velocity": 64,
                "duration": 0.1431818,
                "tempo": 120.0
            },
            {
                "start_time": 7.6795455,
                "end_time": 7.8409091,
                "pitch": 48,
                "velocity": 64,
                "duration": 0.1613636,
                "tempo": 120.0
            },
            {
                "start_time": 7.8409091,
                "end_time": 7.9863636,
                "pitch": 48,
                "velocity": 64,
                "duration": 0.1454545,
                "tempo": 120.0
            },
            {
                "start_time": 7.9863636,
                "end_time": 8.1477273,
                "pitch": 48,
                "velocity": 64,
                "duration": 0.1613636,
                "tempo": 120.0
            },
            {
                "start_time": 8.1477273,
                "end_time": 8.2977273,
                "pitch": 48,
                "velocity": 64,
                "duration": 0.15,
                "tempo": 120.0
            },
            {
                "start_time": 8.2977273,
                "end_time": 8.4477273,
                "pitch": 48,
                "velocity": 64,
                "duration": 0.15,
                "tempo": 120.0
            },
            {
                "start_time": 8.4477273,
                "end_time": 8.6090909,
                "pitch": 48,
                "velocity": 64,
                "duration": 0.1613636,
                "tempo": 120.0
            },
            {
                "start_time": 8.6090909,
                "end_time": 8.7545455,
                "pitch": 48,
                "velocity": 64,
                "duration": 0.1454545,
                "tempo": 120.0
            },
            {
                "start_time": 8.7545455,
                "end_time": 8.9113636,
                "pitch": 48,
                "velocity": 64,
                "duration": 0.1568182,
                "tempo": 120.0
            },
            {
                "start_time": 8.9113636,
                "end_time": 9.0522727,
                "pitch": 48,
                "velocity": 64,
                "duration": 0.1409091,
                "tempo": 120.0
            },
            {
                "start_time": 9.0522727,
                "end_time": 9.2181818,
                "pitch": 48,
                "velocity": 64,
                "duration": 0.1659091,
                "tempo": 120.0
            },
            {
                "start_time": 9.2181818,
                "end_time": 9.3681818,
                "pitch": 48,
                "velocity": 64,
                "duration": 0.15,
                "tempo": 120.0
            },
            {
                "start_time": 9.3681818,
                "end_time": 9.5090909,
                "pitch": 48,
                "velocity": 64,
                "duration": 0.1409091,
                "tempo": 120.0
            }
        ]
    }
}