{
    "mood": "angry",
    "instruments": {
        "Electric Piano 1": [
            {
                "start_time": 0.0295455,
                "end_time": 0.4613636,
                "pitch": 45,
                "velocity": 101,
                "duration": 0.4318182,
                "tempo": 120.0
            },
            {
                "start_time": 0.4636364,
                "end_time": 0.8795455,
                "pitch": 44,
                "velocity": 101,
                "duration": 0.4159091,
                "tempo": 120.0
            },
            {
                "start_time": 0.8795455,
                "end_time": 1.3136364,
                "pitch": 42,
                "velocity": 101,
                "duration": 0.4340909,
                "tempo": 120.0
            },
            {
                "start_time": 1.3159091,
                "end_time": 1.7386364,
                "pitch": 49,
                "velocity": 101,
                "duration": 0.4227273,
                "tempo": 120.0
            },
            {
                "start_time": 2.1840909,
                "end_time": 2.6,
                "pitch": 47,
                "velocity": 101,
                "duration": 0.4159091,
                "tempo": 120.0
            },
            {
                "start_time": 2.6,
                "end_time": 3.025,
                "pitch": 45,
                "velocity": 101,
                "duration": 0.425,
                "tempo": 120.0
            },
            {
                "start_time": 3.0272727,
                "end_time": 3.4590909,
                "pitch": 44,
                "velocity": 101,
                "duration": 0.4318182,
                "tempo": 120.0
            },
            {
                "start_time": 3.4613636,
                "end_time": 3.8772727,
                "pitch": 45,
                "velocity": 101,
                "duration": 0.4159091,
                "tempo": 120.0
            },
            {
                "start_time": 3.8772727,
                "end_time": 4.2909091,
                "pitch": 44,
                "velocity": 101,
                "duration": 0.4136364,
                "tempo": 120.0
            },
            {
                "start_time": 4.2909091,
                "end_time": 4.7431818,
                "pitch": 42,
                "velocity": 101,
                "duration": 0.4522727,
                "tempo": 120.0
            },
            {
                "start_time": 4.7431818,
                "end_time": 5.1681818,
                "pitch": 37,
                "velocity": 101,
                "duration": 0.425,
                "tempo": 120.0
            },
            {
                "start_time": 5.1704545,
                "end_time": 5.5863636,
                "pitch": 38,
                "velocity": 101,
                "duration": 0.4159091,
                "tempo": 120.0
            },
            {
                "start_time": 5.5863636,
                "end_time": 6.0113636,
                "pitch": 42,
                "velocity": 101,
                "duration": 0.425,
                "tempo": 120.0
            },
            {
                "start_time": 6.0113636,
                "end_time": 6.4545455,
                "pitch": 44,
                "velocity": 101,
                "duration": 0.4431818,
                "tempo": 120.0
            },
            {
                "start_time": 6.4545455,
                "end_time": 6.8636364,
                "pitch": 37,
                "velocity": 101,
                "duration": 0.4090909,
                "tempo": 120.0
            },
            {
                "start_time": 6.8636364,
                "end_time": 7.2886364,
                "pitch": 45,
                "velocity": 101,
                "duration": 0.425,
                "tempo": 120.0
            },
            {
                "start_time": 7.2886364,
                "end_time": 7.7227273,
                "pitch": 44,
                "velocity": 101,
                "duration": 0.4340909,
                "tempo": 120.0
            },
            {
                "start_time": 7.7227273,
                "end_time": 8.1659091,
                "pitch": 42,
                "velocity": 101,
                "duration": 0.4431818,
                "tempo": 120.0
            },
            {
                "start_time": 8.1659091,
                "end_time": 8.5840909,
                "pitch": 40,
                "velocity": 101,
                "duration": 0.4181818,
                "tempo": 120.0
            },
            {
                "start_time": 8.5840909,
                "end_time": 8.9977273,
                "pitch": 38,
                "velocity": 101,
                "duration": 0.4136364,
                "tempo": 120.0
            },
            {
                "start_time": 8.9977273,
                "end_time": 9.4409091,
                "pitch": 42,
                "velocity": 101,
                "duration": 0.4431818,
                "tempo": 120.0
            },
            {
                "start_time": 9.4409091,
                "end_time": 9.8659091,
                "pitch": 44,
                "velocity": 101,
                "duration": 0.425,
                "tempo": 120.0
            },
            {
                "start_time": 9.8681818,
                "end_time": 10.2681818,
                "pitch": 37,
                "velocity": 101,
                "duration": 0.4,
                "tempo": 120.0
            },
            {
                "start_time": 10.2704545,
                "end_time": 10.7113636,
                "pitch": 45,
                "velocity": 101,
                "duration": 0.4409091,
                "tempo": 120.0
            },
            {
                "start_time": 10.7136364,
                "end_time": 11.1477273,
                "pitch": 44,
                "velocity": 101,
                "duration": 0.4340909,
                "tempo": 120.0
            },
            {
                "start_time": 11.1477273,
                "end_time": 11.5727273,
                "pitch": 42,
                "velocity": 101,
                "duration": 0.425,
                "tempo": 120.0
            },
            {
                "start_time": 11.575,
                "end_time": 11.9863636,
                "pitch": 37,
                "velocity": 101,
                "duration": 0.4113636,
                "tempo": 120.0
            },
            {
                "start_time": 11.9886364,
                "end_time": 12.4204545,
                "pitch": 38,
                "velocity": 101,
                "duration": 0.4318182,
                "tempo": 120.0
            },
            {
                "start_time": 12.4204545,
                "end_time": 12.8295455,
                "pitch": 42,
                "velocity": 101,
                "duration": 0.4090909,
                "tempo": 120.0
            },
            {
                "start_time": 12.8295455,
                "end_time": 13.2636364,
                "pitch": 44,
                "velocity": 101,
                "duration": 0.4340909,
                "tempo": 120.0
            },
            {
                "start_time": 13.2636364,
                "end_time": 13.6977273,
                "pitch": 37,
                "velocity": 101,
                "duration": 0.4340909,
                "tempo": 120.0
            },
            {
                "start_time": 13.6977273,
                "end_time": 14.1227273,
                "pitch": 45,
                "velocity": 101,
                "duration": 0.425,
                "tempo": 120.0
            },
            {
                "start_time": 14.1227273,
                "end_time": 14.5409091,
                "pitch": 44,
                "velocity": 101,
                "duration": 0.4181818,
                "tempo": 120.0
            },
            {
                "start_time": 14.5409091,
                "end_time": 14.9840909,
                "pitch": 42,
                "velocity": 101,
                "duration": 0.4431818,
                "tempo": 120.0
            },
            {
                "start_time": 14.9840909,
                "end_time": 15.4090909,
                "pitch": 40,
                "velocity": 101,
                "duration": 0.425,
                "tempo": 120.0
            },
            {
                "start_time": 15.4090909,
                "end_time": 15.8181818,
                "pitch": 38,
                "velocity": 101,
                "duration": 0.4090909,
                "tempo": 120.0
            },
            {
                "start_time": 15.8181818,
                "end_time": 16.2522727,
                "pitch": 42,
                "velocity": 101,
                "duration": 0.4340909,
                "tempo": 120.0
            },
            {
                "start_time": 16.2522727,
                "end_time": 16.6931818,
                "pitch": 44,
                "velocity": 101,
                "duration": 0.4409091,
                "tempo": 120.0
            },
            {
                "start_time": 16.6954545,
                "end_time": 17.1068182,
                "pitch": 37,
                "velocity": 101,
                "duration": 0.4113636,
                "tempo": 120.0
            },
            {
                "start_time": 17.1090909,
                "end_time": 17.5340909,
                "pitch": 45,
                "velocity": 101,
                "duration": 0.425,
                "tempo": 120.0
            },
            {
                "start_time": 17.5363636,
                "end_time": 17.9681818,
                "pitch": 44,
                "velocity": 101,
                "duration": 0.4318182,
                "tempo": 120.0
            },
            {
                "start_time": 17.9704545,
                "end_time": 18.4022727,
                "pitch": 42,
                "velocity": 101,
                "duration": 0.4318182,
                "tempo": 120.0
            },
            {
                "start_time": 18.4022727,
                "end_time": 18.8,
                "pitch": 49,
                "velocity": 101,
                "duration": 0.3977273,
                "tempo": 120.0
            },
            {
                "start_time": 18.8022727,
                "end_time": 19.2431818,
                "pitch": 42,
                "velocity": 101,
                "duration": 0.4409091,
                "tempo": 120.0
            },
            {
                "start_time": 19.2454545,
                "end_time": 19.6772727,
                "pitch": 45,
                "velocity": 101,
                "duration": 0.4318182,
                "tempo": 120.0
            },
            {
                "start_time": 19.6772727,
                "end_time": 20.1022727,
                "pitch": 44,
                "velocity": 101,
                "duration": 0.425,
                "tempo": 120.0
            },
            {
                "start_time": 20.1022727,
                "end_time": 20.5204545,
                "pitch": 47,
                "velocity": 101,
                "duration": 0.4181818,
                "tempo": 120.0
            },
            {
                "start_time": 20.5204545,
                "end_time": 20.9545455,
                "pitch": 38,
                "velocity": 101,
                "duration": 0.4340909,
                "tempo": 120.0
            },
            {
                "start_time": 20.9545455,
                "end_time": 21.3886364,
                "pitch": 42,
                "velocity": 101,
                "duration": 0.4340909,
                "tempo": 120.0
            },
            {
                "start_time": 21.3886364,
                "end_time": 21.8068182,
                "pitch": 44,
                "velocity": 101,
                "duration": 0.4181818,
                "tempo": 120.0
            },
            {
                "start_time": 21.8068182,
                "end_time": 22.2318182,
                "pitch": 37,
                "velocity": 101,
                "duration": 0.425,
                "tempo": 120.0
            },
            {
                "start_time": 22.2318182,
                "end_time": 22.6659091,
                "pitch": 45,
                "velocity": 101,
                "duration": 0.4340909,
                "tempo": 120.0
            },
            {
                "start_time": 22.6659091,
                "end_time": 23.0909091,
                "pitch": 44,
                "velocity": 101,
                "duration": 0.425,
                "tempo": 120.0
            },
            {
                "start_time": 23.0909091,
                "end_time": 23.5181818,
                "pitch": 42,
                "velocity": 101,
                "duration": 0.4272727,
                "tempo": 120.0
            },
            {
                "start_time": 23.5181818,
                "end_time": 23.9431818,
                "pitch": 49,
                "velocity": 101,
                "duration": 0.425,
                "tempo": 120.0
            },
            {
                "start_time": 23.9431818,
                "end_time": 24.3840909,
                "pitch": 38,
                "velocity": 101,
                "duration": 0.4409091,
                "tempo": 120.0
            },
            {
                "start_time": 24.3840909,
                "end_time": 24.7818182,
                "pitch": 42,
                "velocity": 101,
                "duration": 0.3977273,
                "tempo": 120.0
            },
            {
                "start_time": 24.7840909,
                "end_time": 25.225,
                "pitch": 44,
                "velocity": 101,
                "duration": 0.4409091,
                "tempo": 120.0
            },
            {
                "start_time": 25.2272727,
                "end_time": 25.6590909,
                "pitch": 37,
                "velocity": 101,
                "duration": 0.4318182,
                "tempo": 120.0
            },
            {
                "start_time": 25.6590909,
                "end_time": 26.0727273,
                "pitch": 42,
                "velocity": 101,
                "duration": 0.4136364,
                "tempo": 120.0
            },
            {
                "start_time": 26.0727273,
                "end_time": 26.5,
                "pitch": 45,
                "velocity": 101,
                "duration": 0.4272727,
                "tempo": 120.0
            },
            {
                "start_time": 26.5,
                "end_time": 26.9340909,
                "pitch": 44,
                "velocity": 101,
                "duration": 0.4340909,
                "tempo": 120.0
            },
            {
                "start_time": 26.9340909,
                "end_time": 27.3477273,
                "pitch": 47,
                "velocity": 101,
                "duration": 0.4136364,
                "tempo": 120.0
            },
            {
                "start_time": 27.3477273,
                "end_time": 27.775,
                "pitch": 38,
                "velocity": 101,
                "duration": 0.4272727,
                "tempo": 120.0
            },
            {
                "start_time": 27.775,
                "end_time": 28.2090909,
                "pitch": 42,
                "velocity": 101,
                "duration": 0.4340909,
                "tempo": 120.0
            },
            {
                "start_time": 28.2090909,
                "end_time": 28.65,
                "pitch": 44,
                "velocity": 101,
                "duration": 0.4409091,
                "tempo": 120.0
            },
            {
                "start_time": 28.6522727,
                "end_time": 29.0659091,
                "pitch": 37,
                "velocity": 101,
                "duration": 0.4136364,
                "tempo": 120.0
            },
            {
                "start_time": 29.0659091,
                "end_time": 29.4818182,
                "pitch": 45,
                "velocity": 101,
                "duration": 0.4159091,
                "tempo": 120.0
            },
            {
                "start_time": 29.4840909,
                "end_time": 29.9159091,
                "pitch": 44,
                "velocity": 101,
                "duration": 0.4318182,
                "tempo": 120.0
            },
            {
                "start_time": 29.9181818,
                "end_time": 30.35,
                "pitch": 42,
                "velocity": 101,
                "duration": 0.4318182,
                "tempo": 120.0
            },
            {
                "start_time": 30.35,
                "end_time": 30.7590909,
                "pitch": 49,
                "velocity": 101,
                "duration": 0.4090909,
                "tempo": 120.0
            },
            {
                "start_time": 30.7613636,
                "end_time": 31.2022727,
                "pitch": 50,
                "velocity": 101,
                "duration": 0.4409091,
                "tempo": 120.0
            },
            {
                "start_time": 32.0545455,
                "end_time": 32.1568182,
                "pitch": 52,
                "velocity": 101,
                "duration": 0.1022727,
                "tempo": 120.0
            },
            {
                "start_time": 32.1568182,
                "end_time": 32.3772727,
                "pitch": 56,
                "velocity": 101,
                "duration": 0.2204545,
                "tempo": 120.0
            },
            {
                "start_time": 32.3772727,
                "end_time": 32.4795455,
                "pitch": 57,
                "velocity": 101,
                "duration": 0.1022727,
                "tempo": 120.0
            },
            {
                "start_time": 32.9136364,
                "end_time": 33.3272727,
                "pitch": 47,
                "velocity": 101,
                "duration": 0.4136364,
                "tempo": 120.0
            },
            {
                "start_time": 33.3272727,
                "end_time": 33.7545455,
                "pitch": 45,
                "velocity": 101,
                "duration": 0.4272727,
                "tempo": 120.0
            },
            {
                "start_time": 33.7545455,
                "end_time": 34.1795455,
                "pitch": 44,
                "velocity": 101,
                "duration": 0.425,
                "tempo": 120.0
            }
        ],
        "Electric Guitar (clean)": [
            {
                "start_time": 0.0295455,
                "end_time": 0.4613636,
                "pitch": 42,
                "velocity": 80,
                "duration": 0.4318182,
                "tempo": 120.0
            },
            {
                "start_time": 0.4636364,
                "end_time": 0.6795455,
                "pitch": 44,
                "velocity": 80,
                "duration": 0.2159091,
                "tempo": 120.0
            },
            {
                "start_time": 0.6795455,
                "end_time": 0.7795455,
                "pitch": 40,
                "velocity": 80,
                "duration": 0.1,
                "tempo": 120.0
            },
            {
                "start_time": 0.7795455,
                "end_time": 0.9954545,
                "pitch": 42,
                "velocity": 80,
                "duration": 0.2159091,
                "tempo": 120.0
            },
            {
                "start_time": 0.9977273,
                "end_time": 1.0977273,
                "pitch": 42,
                "velocity": 80,
                "duration": 0.1,
                "tempo": 120.0
            },
            {
                "start_time": 1.0977273,
                "end_time": 1.3136364,
                "pitch": 38,
                "velocity": 80,
                "duration": 0.2159091,
                "tempo": 120.0
            },
            {
                "start_time": 1.3159091,
                "end_time": 1.5272727,
                "pitch": 37,
                "velocity": 80,
                "duration": 0.2113636,
                "tempo": 120.0
            },
            {
                "start_time": 1.5272727,
                "end_time": 1.7386364,
                "pitch": 33,
                "velocity": 80,
                "duration": 0.2113636,
                "tempo": 120.0
            },
            {
                "start_time": 1.7409091,
                "end_time": 1.9613636,
                "pitch": 42,
                "velocity": 80,
                "duration": 0.2204545,
                "tempo": 120.0
            },
            {
                "start_time": 1.9613636,
                "end_time": 2.1818182,
                "pitch": 42,
                "velocity": 80,
                "duration": 0.2204545,
                "tempo": 120.0
            },
            {
                "start_time": 2.1840909,
                "end_time": 2.3840909,
                "pitch": 44,
                "velocity": 80,
                "duration": 0.2,
                "tempo": 120.0
            },
            {
                "start_time": 2.3840909,
                "end_time": 2.5,
                "pitch": 40,
                "velocity": 80,
                "duration": 0.1159091,
                "tempo": 120.0
            },
            {
                "start_time": 2.5,
                "end_time": 2.8136364,
                "pitch": 42,
                "velocity": 80,
                "duration": 0.3136364,
                "tempo": 120.0
            },
            {
                "start_time": 2.8136364,
                "end_time": 3.025,
                "pitch": 37,
                "velocity": 80,
                "duration": 0.2113636,
                "tempo": 120.0
            },
            {
                "start_time": 3.0272727,
                "end_time": 3.2431818,
                "pitch": 40,
                "velocity": 80,
                "duration": 0.2159091,
                "tempo": 120.0
            },
            {
                "start_time": 3.2431818,
                "end_time": 3.4590909,
                "pitch": 37,
                "velocity": 80,
                "duration": 0.2159091,
                "tempo": 120.0
            },
            {
                "start_time": 3.4613636,
                "end_time": 3.5590909,
                "pitch": 42,
                "velocity": 80,
                "duration": 0.0977273,
                "tempo": 120.0
            },
            {
                "start_time": 3.5613636,
                "end_time": 3.6772727,
                "pitch": 30,
                "velocity": 80,
                "duration": 0.1159091,
                "tempo": 120.0
            },
            {
                "start_time": 3.6772727,
                "end_time": 3.8772727,
                "pitch": 42,
                "velocity": 80,
                "duration": 0.2,
                "tempo": 120.0
            },
            {
                "start_time": 3.8772727,
                "end_time": 4.0840909,
                "pitch": 44,
                "velocity": 80,
                "duration": 0.2068182,
                "tempo": 120.0
            },
            {
                "start_time": 4.0840909,
                "end_time": 4.1954545,
                "pitch": 40,
                "velocity": 80,
                "duration": 0.1113636,
                "tempo": 120.0
            },
            {
                "start_time": 4.1954545,
                "end_time": 4.4113636,
                "pitch": 42,
                "velocity": 80,
                "duration": 0.2159091,
                "tempo": 120.0
            },
            {
                "start_time": 4.4113636,
                "end_time": 4.5159091,
                "pitch": 42,
                "velocity": 80,
                "duration": 0.1045455,
                "tempo": 120.0
            },
            {
                "start_time": 4.5159091,
                "end_time": 4.7431818,
                "pitch": 38,
                "velocity": 80,
                "duration": 0.2272727,
                "tempo": 120.0
            },
            {
                "start_time": 4.7431818,
                "end_time": 4.9545455,
                "pitch": 37,
                "velocity": 80,
                "duration": 0.2113636,
                "tempo": 120.0
            },
            {
                "start_time": 4.9568182,
                "end_time": 5.1681818,
                "pitch": 33,
                "velocity": 80,
                "duration": 0.2113636,
                "tempo": 120.0
            },
            {
                "start_time": 5.1704545,
                "end_time": 5.3681818,
                "pitch": 38,
                "velocity": 80,
                "duration": 0.1977273,
                "tempo": 120.0
            },
            {
                "start_time": 5.3681818,
                "end_time": 5.5863636,
                "pitch": 38,
                "velocity": 80,
                "duration": 0.2181818,
                "tempo": 120.0
            },
            {
                "start_time": 5.5863636,
                "end_time": 5.7977273,
                "pitch": 38,
                "velocity": 80,
                "duration": 0.2113636,
                "tempo": 120.0
            },
            {
                "start_time": 5.8,
                "end_time": 5.9136364,
                "pitch": 38,
                "velocity": 80,
                "duration": 0.1136364,
                "tempo": 120.0
            },
            {
                "start_time": 5.9136364,
                "end_time": 6.1136364,
                "pitch": 40,
                "velocity": 80,
                "duration": 0.2,
                "tempo": 120.0
            },
            {
                "start_time": 6.1136364,
                "end_time": 6.2318182,
                "pitch": 40,
                "velocity": 80,
                "duration": 0.1181818,
                "tempo": 120.0
            },
            {
                "start_time": 6.2340909,
                "end_time": 6.4545455,
                "pitch": 40,
                "velocity": 80,
                "duration": 0.2204545,
                "tempo": 120.0
            },
            {
                "start_time": 6.4545455,
                "end_time": 6.6659091,
                "pitch": 40,
                "velocity": 80,
                "duration": 0.2113636,
                "tempo": 120.0
            },
            {
                "start_time": 6.6681818,
                "end_time": 6.8636364,
                "pitch": 40,
                "velocity": 80,
                "duration": 0.1954545,
                "tempo": 120.0
            },
            {
                "start_time": 6.8636364,
                "end_time": 7.075,
                "pitch": 42,
                "velocity": 80,
                "duration": 0.2113636,
                "tempo": 120.0
            },
            {
                "start_time": 7.0772727,
                "end_time": 7.2886364,
                "pitch": 42,
                "velocity": 80,
                "duration": 0.2113636,
                "tempo": 120.0
            },
            {
                "start_time": 7.2886364,
                "end_time": 7.5045455,
                "pitch": 44,
                "velocity": 80,
                "duration": 0.2159091,
                "tempo": 120.0
            },
            {
                "start_time": 7.5068182,
                "end_time": 7.6045455,
                "pitch": 40,
                "velocity": 80,
                "duration": 0.0977273,
                "tempo": 120.0
            },
            {
                "start_time": 7.6068182,
                "end_time": 7.825,
                "pitch": 42,
                "velocity": 80,
                "duration": 0.2181818,
                "tempo": 120.0
            },
            {
                "start_time": 7.825,
                "end_time": 7.9431818,
                "pitch": 42,
                "velocity": 80,
                "duration": 0.1181818,
                "tempo": 120.0
            },
            {
                "start_time": 7.9454545,
                "end_time": 8.1659091,
                "pitch": 38,
                "velocity": 80,
                "duration": 0.2204545,
                "tempo": 120.0
            },
            {
                "start_time": 8.1659091,
                "end_time": 8.3659091,
                "pitch": 37,
                "velocity": 80,
                "duration": 0.2,
                "tempo": 120.0
            },
            {
                "start_time": 8.3659091,
                "end_time": 8.5840909,
                "pitch": 33,
                "velocity": 80,
                "duration": 0.2181818,
                "tempo": 120.0
            },
            {
                "start_time": 8.5840909,
                "end_time": 8.7909091,
                "pitch": 38,
                "velocity": 80,
                "duration": 0.2068182,
                "tempo": 120.0
            },
            {
                "start_time": 8.7909091,
                "end_time": 8.9977273,
                "pitch": 38,
                "velocity": 80,
                "duration": 0.2068182,
                "tempo": 120.0
            },
            {
                "start_time": 8.9977273,
                "end_time": 9.2181818,
                "pitch": 38,
                "velocity": 80,
                "duration": 0.2204545,
                "tempo": 120.0
            },
            {
                "start_time": 9.2181818,
                "end_time": 9.3204545,
                "pitch": 38,
                "velocity": 80,
                "duration": 0.1022727,
                "tempo": 120.0
            },
            {
                "start_time": 9.3204545,
                "end_time": 9.5431818,
                "pitch": 40,
                "velocity": 80,
                "duration": 0.2227273,
                "tempo": 120.0
            },
            {
                "start_time": 9.5431818,
                "end_time": 9.6613636,
                "pitch": 40,
                "velocity": 80,
                "duration": 0.1181818,
                "tempo": 120.0
            },
            {
                "start_time": 9.6636364,
                "end_time": 9.8659091,
                "pitch": 40,
                "velocity": 80,
                "duration": 0.2022727,
                "tempo": 120.0
            },
            {
                "start_time": 9.8681818,
                "end_time": 10.0681818,
                "pitch": 40,
                "velocity": 80,
                "duration": 0.2,
                "tempo": 120.0
            },
            {
                "start_time": 10.0681818,
                "end_time": 10.2704545,
                "pitch": 40,
                "velocity": 80,
                "duration": 0.2022727,
                "tempo": 120.0
            },
            {
                "start_time": 10.2704545,
                "end_time": 10.4909091,
                "pitch": 42,
                "velocity": 80,
                "duration": 0.2204545,
                "tempo": 120.0
            },
            {
                "start_time": 10.4909091,
                "end_time": 10.7136364,
                "pitch": 42,
                "velocity": 80,
                "duration": 0.2227273,
                "tempo": 120.0
            },
            {
                "start_time": 10.7136364,
                "end_time": 10.9295455,
                "pitch": 44,
                "velocity": 80,
                "duration": 0.2159091,
                "tempo": 120.0
            },
            {
                "start_time": 10.9295455,
                "end_time": 11.0295455,
                "pitch": 40,
                "velocity": 80,
                "duration": 0.1,
                "tempo": 120.0
            },
            {
                "start_time": 11.0295455,
                "end_time": 11.2477273,
                "pitch": 42,
                "velocity": 80,
                "duration": 0.2181818,
                "tempo": 120.0
            },
            {
                "start_time": 11.25,
                "end_time": 11.35,
                "pitch": 42,
                "velocity": 80,
                "duration": 0.1,
                "tempo": 120.0
            },
            {
                "start_time": 11.3522727,
                "end_time": 11.5727273,
                "pitch": 38,
                "velocity": 80,
                "duration": 0.2204545,
                "tempo": 120.0
            },
            {
                "start_time": 11.575,
                "end_time": 11.7795455,
                "pitch": 37,
                "velocity": 80,
                "duration": 0.2045455,
                "tempo": 120.0
            },
            {
                "start_time": 11.7818182,
                "end_time": 11.9863636,
                "pitch": 33,
                "velocity": 80,
                "duration": 0.2045455,
                "tempo": 120.0
            },
            {
                "start_time": 11.9886364,
                "end_time": 12.1863636,
                "pitch": 38,
                "velocity": 80,
                "duration": 0.1977273,
                "tempo": 120.0
            },
            {
                "start_time": 12.1886364,
                "end_time": 12.4045455,
                "pitch": 38,
                "velocity": 80,
                "duration": 0.2159091,
                "tempo": 120.0
            },
            {
                "start_time": 12.4045455,
                "end_time": 12.6159091,
                "pitch": 38,
                "velocity": 80,
                "duration": 0.2113636,
                "tempo": 120.0
            },
            {
                "start_time": 12.6181818,
                "end_time": 12.7318182,
                "pitch": 38,
                "velocity": 80,
                "duration": 0.1136364,
                "tempo": 120.0
            },
            {
                "start_time": 12.7318182,
                "end_time": 12.9295455,
                "pitch": 40,
                "velocity": 80,
                "duration": 0.1977273,
                "tempo": 120.0
            },
            {
                "start_time": 12.9295455,
                "end_time": 13.0454545,
                "pitch": 40,
                "velocity": 80,
                "duration": 0.1159091,
                "tempo": 120.0
            },
            {
                "start_time": 13.0477273,
                "end_time": 13.2636364,
                "pitch": 40,
                "velocity": 80,
                "duration": 0.2159091,
                "tempo": 120.0
            },
            {
                "start_time": 13.2636364,
                "end_time": 13.4795455,
                "pitch": 40,
                "velocity": 80,
                "duration": 0.2159091,
                "tempo": 120.0
            },
            {
                "start_time": 13.4818182,
                "end_time": 13.6818182,
                "pitch": 40,
                "velocity": 80,
                "duration": 0.2,
                "tempo": 120.0
            },
            {
                "start_time": 13.6818182,
                "end_time": 13.8931818,
                "pitch": 42,
                "velocity": 80,
                "duration": 0.2113636,
                "tempo": 120.0
            },
            {
                "start_time": 13.8954545,
                "end_time": 14.1068182,
                "pitch": 42,
                "velocity": 80,
                "duration": 0.2113636,
                "tempo": 120.0
            },
            {
                "start_time": 14.1068182,
                "end_time": 14.3227273,
                "pitch": 44,
                "velocity": 80,
                "duration": 0.2159091,
                "tempo": 120.0
            },
            {
                "start_time": 14.325,
                "end_time": 14.4227273,
                "pitch": 40,
                "velocity": 80,
                "duration": 0.0977273,
                "tempo": 120.0
            },
            {
                "start_time": 14.425,
                "end_time": 14.6431818,
                "pitch": 42,
                "velocity": 80,
                "duration": 0.2181818,
                "tempo": 120.0
            },
            {
                "start_time": 14.6431818,
                "end_time": 14.7613636,
                "pitch": 42,
                "velocity": 80,
                "duration": 0.1181818,
                "tempo": 120.0
            },
            {
                "start_time": 14.7636364,
                "end_time": 14.9840909,
                "pitch": 38,
                "velocity": 80,
                "duration": 0.2204545,
                "tempo": 120.0
            },
            {
                "start_time": 14.9840909,
                "end_time": 15.1795455,
                "pitch": 37,
                "velocity": 80,
                "duration": 0.1954545,
                "tempo": 120.0
            },
            {
                "start_time": 15.1795455,
                "end_time": 15.3931818,
                "pitch": 33,
                "velocity": 80,
                "duration": 0.2136364,
                "tempo": 120.0
            },
            {
                "start_time": 15.3931818,
                "end_time": 15.6045455,
                "pitch": 38,
                "velocity": 80,
                "duration": 0.2113636,
                "tempo": 120.0
            },
            {
                "start_time": 15.6045455,
                "end_time": 15.8181818,
                "pitch": 38,
                "velocity": 80,
                "duration": 0.2136364,
                "tempo": 120.0
            },
            {
                "start_time": 15.8181818,
                "end_time": 16.0340909,
                "pitch": 38,
                "velocity": 80,
                "duration": 0.2159091,
                "tempo": 120.0
            },
            {
                "start_time": 16.0363636,
                "end_time": 16.1340909,
                "pitch": 38,
                "velocity": 80,
                "duration": 0.0977273,
                "tempo": 120.0
            },
            {
                "start_time": 16.1363636,
                "end_time": 16.3545455,
                "pitch": 40,
                "velocity": 80,
                "duration": 0.2181818,
                "tempo": 120.0
            },
            {
                "start_time": 16.3545455,
                "end_time": 16.4727273,
                "pitch": 40,
                "velocity": 80,
                "duration": 0.1181818,
                "tempo": 120.0
            },
            {
                "start_time": 16.475,
                "end_time": 16.6772727,
                "pitch": 40,
                "velocity": 80,
                "duration": 0.2022727,
                "tempo": 120.0
            },
            {
                "start_time": 16.6795455,
                "end_time": 16.8840909,
                "pitch": 40,
                "velocity": 80,
                "duration": 0.2045455,
                "tempo": 120.0
            },
            {
                "start_time": 16.8863636,
                "end_time": 17.0909091,
                "pitch": 40,
                "velocity": 80,
                "duration": 0.2045455,
                "tempo": 120.0
            },
            {
                "start_time": 17.0931818,
                "end_time": 17.3136364,
                "pitch": 42,
                "velocity": 80,
                "duration": 0.2204545,
                "tempo": 120.0
            },
            {
                "start_time": 17.3136364,
                "end_time": 17.5340909,
                "pitch": 42,
                "velocity": 80,
                "duration": 0.2204545,
                "tempo": 120.0
            },
            {
                "start_time": 17.5363636,
                "end_time": 17.7522727,
                "pitch": 44,
                "velocity": 80,
                "duration": 0.2159091,
                "tempo": 120.0
            },
            {
                "start_time": 17.7522727,
                "end_time": 17.8522727,
                "pitch": 40,
                "velocity": 80,
                "duration": 0.1,
                "tempo": 120.0
            },
            {
                "start_time": 17.8522727,
                "end_time": 18.0681818,
                "pitch": 42,
                "velocity": 80,
                "duration": 0.2159091,
                "tempo": 120.0
            },
            {
                "start_time": 18.0704545,
                "end_time": 18.1704545,
                "pitch": 42,
                "velocity": 80,
                "duration": 0.1,
                "tempo": 120.0
            },
            {
                "start_time": 18.1704545,
                "end_time": 18.3863636,
                "pitch": 38,
                "velocity": 80,
                "duration": 0.2159091,
                "tempo": 120.0
            },
            {
                "start_time": 18.3863636,
                "end_time": 18.5931818,
                "pitch": 37,
                "velocity": 80,
                "duration": 0.2068182,
                "tempo": 120.0
            },
            {
                "start_time": 18.5931818,
                "end_time": 18.8,
                "pitch": 33,
                "velocity": 80,
                "duration": 0.2068182,
                "tempo": 120.0
            },
            {
                "start_time": 18.8022727,
                "end_time": 19.2431818,
                "pitch": 35,
                "velocity": 80,
                "duration": 0.4409091,
                "tempo": 120.0
            },
            {
                "start_time": 19.2454545,
                "end_time": 19.4613636,
                "pitch": 35,
                "velocity": 80,
                "duration": 0.2159091,
                "tempo": 120.0
            },
            {
                "start_time": 19.4613636,
                "end_time": 19.5613636,
                "pitch": 35,
                "velocity": 80,
                "duration": 0.1,
                "tempo": 120.0
            },
            {
                "start_time": 19.5613636,
                "end_time": 19.775,
                "pitch": 37,
                "velocity": 80,
                "duration": 0.2136364,
                "tempo": 120.0
            },
            {
                "start_time": 19.775,
                "end_time": 19.8727273,
                "pitch": 37,
                "velocity": 80,
                "duration": 0.0977273,
                "tempo": 120.0
            },
            {
                "start_time": 19.875,
                "end_time": 20.0863636,
                "pitch": 37,
                "velocity": 80,
                "duration": 0.2113636,
                "tempo": 120.0
            },
            {
                "start_time": 20.0863636,
                "end_time": 20.3022727,
                "pitch": 37,
                "velocity": 80,
                "duration": 0.2159091,
                "tempo": 120.0
            },
            {
                "start_time": 20.3045455,
                "end_time": 20.5204545,
                "pitch": 37,
                "velocity": 80,
                "duration": 0.2159091,
                "tempo": 120.0
            },
            {
                "start_time": 20.5204545,
                "end_time": 20.9545455,
                "pitch": 38,
                "velocity": 80,
                "duration": 0.4340909,
                "tempo": 120.0
            },
            {
                "start_time": 20.9568182,
                "end_time": 21.1545455,
                "pitch": 38,
                "velocity": 80,
                "duration": 0.1977273,
                "tempo": 120.0
            },
            {
                "start_time": 21.1568182,
                "end_time": 21.2727273,
                "pitch": 38,
                "velocity": 80,
                "duration": 0.1159091,
                "tempo": 120.0
            },
            {
                "start_time": 21.2727273,
                "end_time": 21.4886364,
                "pitch": 40,
                "velocity": 80,
                "duration": 0.2159091,
                "tempo": 120.0
            },
            {
                "start_time": 21.4886364,
                "end_time": 21.5886364,
                "pitch": 40,
                "velocity": 80,
                "duration": 0.1,
                "tempo": 120.0
            },
            {
                "start_time": 21.5909091,
                "end_time": 21.8068182,
                "pitch": 40,
                "velocity": 80,
                "duration": 0.2159091,
                "tempo": 120.0
            },
            {
                "start_time": 21.8068182,
                "end_time": 22.0181818,
                "pitch": 40,
                "velocity": 80,
                "duration": 0.2113636,
                "tempo": 120.0
            },
            {
                "start_time": 22.0204545,
                "end_time": 22.2318182,
                "pitch": 40,
                "velocity": 80,
                "duration": 0.2113636,
                "tempo": 120.0
            },
            {
                "start_time": 22.2318182,
                "end_time": 22.65,
                "pitch": 42,
                "velocity": 80,
                "duration": 0.4181818,
                "tempo": 120.0
            },
            {
                "start_time": 22.65,
                "end_time": 22.8613636,
                "pitch": 44,
                "velocity": 80,
                "duration": 0.2113636,
                "tempo": 120.0
            },
            {
                "start_time": 22.8613636,
                "end_time": 22.975,
                "pitch": 40,
                "velocity": 80,
                "duration": 0.1136364,
                "tempo": 120.0
            },
            {
                "start_time": 22.9772727,
                "end_time": 23.1931818,
                "pitch": 42,
                "velocity": 80,
                "duration": 0.2159091,
                "tempo": 120.0
            },
            {
                "start_time": 23.1931818,
                "end_time": 23.2954545,
                "pitch": 42,
                "velocity": 80,
                "duration": 0.1022727,
                "tempo": 120.0
            },
            {
                "start_time": 23.2954545,
                "end_time": 23.5181818,
                "pitch": 38,
                "velocity": 80,
                "duration": 0.2227273,
                "tempo": 120.0
            },
            {
                "start_time": 23.5181818,
                "end_time": 23.7295455,
                "pitch": 37,
                "velocity": 80,
                "duration": 0.2113636,
                "tempo": 120.0
            },
            {
                "start_time": 23.7295455,
                "end_time": 23.9431818,
                "pitch": 33,
                "velocity": 80,
                "duration": 0.2136364,
                "tempo": 120.0
            },
            {
                "start_time": 23.9431818,
                "end_time": 24.1477273,
                "pitch": 38,
                "velocity": 80,
                "duration": 0.2045455,
                "tempo": 120.0
            },
            {
                "start_time": 24.1477273,
                "end_time": 24.3681818,
                "pitch": 38,
                "velocity": 80,
                "duration": 0.2204545,
                "tempo": 120.0
            },
            {
                "start_time": 24.3704545,
                "end_time": 24.575,
                "pitch": 38,
                "velocity": 80,
                "duration": 0.2045455,
                "tempo": 120.0
            },
            {
                "start_time": 24.5772727,
                "end_time": 24.6863636,
                "pitch": 38,
                "velocity": 80,
                "duration": 0.1090909,
                "tempo": 120.0
            },
            {
                "start_time": 24.6886364,
                "end_time": 24.8840909,
                "pitch": 37,
                "velocity": 80,
                "duration": 0.1954545,
                "tempo": 120.0
            },
            {
                "start_time": 24.8840909,
                "end_time": 25.0022727,
                "pitch": 37,
                "velocity": 80,
                "duration": 0.1181818,
                "tempo": 120.0
            },
            {
                "start_time": 25.0045455,
                "end_time": 25.225,
                "pitch": 37,
                "velocity": 80,
                "duration": 0.2204545,
                "tempo": 120.0
            },
            {
                "start_time": 25.2272727,
                "end_time": 25.4431818,
                "pitch": 37,
                "velocity": 80,
                "duration": 0.2159091,
                "tempo": 120.0
            },
            {
                "start_time": 25.4431818,
                "end_time": 25.6431818,
                "pitch": 37,
                "velocity": 80,
                "duration": 0.2,
                "tempo": 120.0
            },
            {
                "start_time": 25.6431818,
                "end_time": 26.0568182,
                "pitch": 35,
                "velocity": 80,
                "duration": 0.4136364,
                "tempo": 120.0
            },
            {
                "start_time": 26.0568182,
                "end_time": 26.2772727,
                "pitch": 35,
                "velocity": 80,
                "duration": 0.2204545,
                "tempo": 120.0
            },
            {
                "start_time": 26.2795455,
                "end_time": 26.3795455,
                "pitch": 35,
                "velocity": 80,
                "duration": 0.1,
                "tempo": 120.0
            },
            {
                "start_time": 26.3818182,
                "end_time": 26.6,
                "pitch": 37,
                "velocity": 80,
                "duration": 0.2181818,
                "tempo": 120.0
            },
            {
                "start_time": 26.6,
                "end_time": 26.7159091,
                "pitch": 37,
                "velocity": 80,
                "duration": 0.1159091,
                "tempo": 120.0
            },
            {
                "start_time": 26.7181818,
                "end_time": 26.9340909,
                "pitch": 37,
                "velocity": 80,
                "duration": 0.2159091,
                "tempo": 120.0
            },
            {
                "start_time": 26.9340909,
                "end_time": 27.125,
                "pitch": 37,
                "velocity": 80,
                "duration": 0.1909091,
                "tempo": 120.0
            },
            {
                "start_time": 27.125,
                "end_time": 27.3318182,
                "pitch": 37,
                "velocity": 80,
                "duration": 0.2068182,
                "tempo": 120.0
            },
            {
                "start_time": 27.3318182,
                "end_time": 27.775,
                "pitch": 38,
                "velocity": 80,
                "duration": 0.4431818,
                "tempo": 120.0
            },
            {
                "start_time": 27.775,
                "end_time": 27.9909091,
                "pitch": 38,
                "velocity": 80,
                "duration": 0.2159091,
                "tempo": 120.0
            },
            {
                "start_time": 27.9931818,
                "end_time": 28.0909091,
                "pitch": 38,
                "velocity": 80,
                "duration": 0.0977273,
                "tempo": 120.0
            },
            {
                "start_time": 28.0931818,
                "end_time": 28.3113636,
                "pitch": 40,
                "velocity": 80,
                "duration": 0.2181818,
                "tempo": 120.0
            },
            {
                "start_time": 28.3113636,
                "end_time": 28.4295455,
                "pitch": 40,
                "velocity": 80,
                "duration": 0.1181818,
                "tempo": 120.0
            },
            {
                "start_time": 28.4295455,
                "end_time": 28.6340909,
                "pitch": 40,
                "velocity": 80,
                "duration": 0.2045455,
                "tempo": 120.0
            },
            {
                "start_time": 28.6363636,
                "end_time": 28.8409091,
                "pitch": 40,
                "velocity": 80,
                "duration": 0.2045455,
                "tempo": 120.0
            },
            {
                "start_time": 28.8431818,
                "end_time": 29.0477273,
                "pitch": 40,
                "velocity": 80,
                "duration": 0.2045455,
                "tempo": 120.0
            },
            {
                "start_time": 29.05,
                "end_time": 29.4840909,
                "pitch": 42,
                "velocity": 80,
                "duration": 0.4340909,
                "tempo": 120.0
            },
            {
                "start_time": 29.4840909,
                "end_time": 29.7,
                "pitch": 44,
                "velocity": 80,
                "duration": 0.2159091,
                "tempo": 120.0
            },
            {
                "start_time": 29.7,
                "end_time": 29.8,
                "pitch": 40,
                "velocity": 80,
                "duration": 0.1,
                "tempo": 120.0
            },
            {
                "start_time": 29.8,
                "end_time": 30.0181818,
                "pitch": 42,
                "velocity": 80,
                "duration": 0.2181818,
                "tempo": 120.0
            },
            {
                "start_time": 30.0181818,
                "end_time": 30.1181818,
                "pitch": 42,
                "velocity": 80,
                "duration": 0.1,
                "tempo": 120.0
            },
            {
                "start_time": 30.1181818,
                "end_time": 30.3340909,
                "pitch": 38,
                "velocity": 80,
                "duration": 0.2159091,
                "tempo": 120.0
            },
            {
                "start_time": 30.3363636,
                "end_time": 30.5477273,
                "pitch": 37,
                "velocity": 80,
                "duration": 0.2113636,
                "tempo": 120.0
            },
            {
                "start_time": 30.5477273,
                "end_time": 30.7590909,
                "pitch": 33,
                "velocity": 80,
                "duration": 0.2113636,
                "tempo": 120.0
            },
            {
                "start_time": 30.7613636,
                "end_time": 31.2022727,
                "pitch": 35,
                "velocity": 80,
                "duration": 0.4409091,
                "tempo": 120.0
            },
            {
                "start_time": 31.6136364,
                "end_time": 31.825,
                "pitch": 37,
                "velocity": 80,
                "duration": 0.2113636,
                "tempo": 120.0
            },
            {
                "start_time": 31.825,
                "end_time": 32.0363636,
                "pitch": 37,
                "velocity": 80,
                "duration": 0.2113636,
                "tempo": 120.0
            },
            {
                "start_time": 32.0386364,
                "end_time": 32.1568182,
                "pitch": 45,
                "velocity": 80,
                "duration": 0.1181818,
                "tempo": 120.0
            },
            {
                "start_time": 32.1568182,
                "end_time": 32.3613636,
                "pitch": 44,
                "velocity": 80,
                "duration": 0.2045455,
                "tempo": 120.0
            },
            {
                "start_time": 32.3613636,
                "end_time": 32.6977273,
                "pitch": 42,
                "velocity": 80,
                "duration": 0.3363636,
                "tempo": 120.0
            },
            {
                "start_time": 32.6977273,
                "end_time": 32.9136364,
                "pitch": 42,
                "velocity": 80,
                "duration": 0.2159091,
                "tempo": 120.0
            },
            {
                "start_time": 32.9136364,
                "end_time": 33.1045455,
                "pitch": 44,
                "velocity": 80,
                "duration": 0.1909091,
                "tempo": 120.0
            },
            {
                "start_time": 33.1045455,
                "end_time": 33.2159091,
                "pitch": 40,
                "velocity": 80,
                "duration": 0.1113636,
                "tempo": 120.0
            },
            {
                "start_time": 33.2159091,
                "end_time": 33.5318182,
                "pitch": 42,
                "velocity": 80,
                "duration": 0.3159091,
                "tempo": 120.0
            },
            {
                "start_time": 33.5340909,
                "end_time": 33.7545455,
                "pitch": 37,
                "velocity": 80,
                "duration": 0.2204545,
                "tempo": 120.0
            },
            {
                "start_time": 33.7545455,
                "end_time": 33.9659091,
                "pitch": 40,
                "velocity": 80,
                "duration": 0.2113636,
                "tempo": 120.0
            },
            {
                "start_time": 33.9681818,
                "end_time": 34.1795455,
                "pitch": 37,
                "velocity": 80,
                "duration": 0.2113636,
                "tempo": 120.0
            }
        ]
    }
}