{
    "mood": "angry",
    "instruments": {
        "Vibraphone": [
            {
                "start_time": 0.0,
                "end_time": 0.1704545,
                "pitch": 67,
                "velocity": 127,
                "duration": 0.1704545,
                "tempo": 120.0
            },
            {
                "start_time": 0.1704545,
                "end_time": 0.3204545,
                "pitch": 79,
                "velocity": 127,
                "duration": 0.15,
                "tempo": 120.0
            },
            {
                "start_time": 0.3204545,
                "end_time": 0.4704545,
                "pitch": 74,
                "velocity": 127,
                "duration": 0.15,
                "tempo": 120.0
            },
            {
                "start_time": 0.4704545,
                "end_time": 0.6204545,
                "pitch": 70,
                "velocity": 127,
                "duration": 0.15,
                "tempo": 120.0
            },
            {
                "start_time": 0.6204545,
                "end_time": 0.775,
                "pitch": 79,
                "velocity": 127,
                "duration": 0.1545455,
                "tempo": 120.0
            },
            {
                "start_time": 0.775,
                "end_time": 0.9318182,
                "pitch": 67,
                "velocity": 127,
                "duration": 0.1568182,
                "tempo": 120.0
            },
            {
                "start_time": 0.3204545,
                "end_time": 0.9318182,
                "pitch": 69,
                "velocity": 127,
                "duration": 0.6113636,
                "tempo": 120.0
            },
            {
                "start_time": 0.4704545,
                "end_time": 1.0818182,
                "pitch": 74,
                "velocity": 127,
                "duration": 0.6113636,
                "tempo": 120.0
            },
            {
                "start_time": 0.9318182,
                "end_time": 1.0818182,
                "pitch": 74,
                "velocity": 127,
                "duration": 0.15,
                "tempo": 120.0
            },
            {
                "start_time": 0.6204545,
                "end_time": 1.2340909,
                "pitch": 82,
                "velocity": 127,
                "duration": 0.6136364,
                "tempo": 120.0
            },
            {
                "start_time": 1.0818182,
                "end_time": 1.2340909,
                "pitch": 82,
                "velocity": 127,
                "duration": 0.1522727,
                "tempo": 120.0
            },
            {
                "start_time": 1.2340909,
                "end_time": 1.3795455,
                "pitch": 67,
                "velocity": 127,
                "duration": 0.1454545,
                "tempo": 120.0
            },
            {
                "start_time": 0.9318182,
                "end_time": 1.525,
                "pitch": 69,
                "velocity": 127,
                "duration": 0.5931818,
                "tempo": 120.0
            },
            {
                "start_time": 1.3795455,
                "end_time": 1.525,
                "pitch": 79,
                "velocity": 127,
                "duration": 0.1454545,
                "tempo": 120.0
            },
            {
                "start_time": 1.525,
                "end_time": 1.6772727,
                "pitch": 77,
                "velocity": 127,
                "duration": 0.1522727,
                "tempo": 120.0
            },
            {
                "start_time": 1.2340909,
                "end_time": 1.8272727,
                "pitch": 70,
                "velocity": 127,
                "duration": 0.5931818,
                "tempo": 120.0
            },
            {
                "start_time": 1.6772727,
                "end_time": 1.8272727,
                "pitch": 70,
                "velocity": 127,
                "duration": 0.15,
                "tempo": 120.0
            },
            {
                "start_time": 1.8272727,
                "end_time": 1.9818182,
                "pitch": 79,
                "velocity": 127,
                "duration": 0.1545455,
                "tempo": 120.0
            },
            {
                "start_time": 1.9818182,
                "end_time": 2.1386364,
                "pitch": 67,
                "velocity": 127,
                "duration": 0.1568182,
                "tempo": 120.0
            },
            {
                "start_time": 1.525,
                "end_time": 2.1386364,
                "pitch": 69,
                "velocity": 127,
                "duration": 0.6136364,
                "tempo": 120.0
            },
            {
                "start_time": 1.6772727,
                "end_time": 2.2840909,
                "pitch": 77,
                "velocity": 127,
                "duration": 0.6068182,
                "tempo": 120.0
            },
            {
                "start_time": 2.1386364,
                "end_time": 2.2840909,
                "pitch": 77,
                "velocity": 127,
                "duration": 0.1454545,
                "tempo": 120.0
            },
            {
                "start_time": 1.8272727,
                "end_time": 2.4295455,
                "pitch": 82,
                "velocity": 127,
                "duration": 0.6022727,
                "tempo": 120.0
            },
            {
                "start_time": 2.2840909,
                "end_time": 2.4295455,
                "pitch": 82,
                "velocity": 127,
                "duration": 0.1454545,
                "tempo": 120.0
            },
            {
                "start_time": 2.4295455,
                "end_time": 2.5818182,
                "pitch": 72,
                "velocity": 127,
                "duration": 0.1522727,
                "tempo": 120.0
            },
            {
                "start_time": 2.5818182,
                "end_time": 2.7318182,
                "pitch": 84,
                "velocity": 127,
                "duration": 0.15,
                "tempo": 120.0
            },
            {
                "start_time": 1.0818182,
                "end_time": 2.7318182,
                "pitch": 86,
                "velocity": 127,
                "duration": 1.65,
                "tempo": 120.0
            },
            {
                "start_time": 2.7318182,
                "end_time": 2.8818182,
                "pitch": 79,
                "velocity": 127,
                "duration": 0.15,
                "tempo": 120.0
            },
            {
                "start_time": 2.8818182,
                "end_time": 3.0318182,
                "pitch": 75,
                "velocity": 127,
                "duration": 0.15,
                "tempo": 120.0
            },
            {
                "start_time": 3.0318182,
                "end_time": 3.1886364,
                "pitch": 84,
                "velocity": 127,
                "duration": 0.1568182,
                "tempo": 120.0
            },
            {
                "start_time": 3.1886364,
                "end_time": 3.3431818,
                "pitch": 72,
                "velocity": 127,
                "duration": 0.1545455,
                "tempo": 120.0
            },
            {
                "start_time": 2.7318182,
                "end_time": 3.3431818,
                "pitch": 86,
                "velocity": 127,
                "duration": 0.6113636,
                "tempo": 120.0
            },
            {
                "start_time": 3.3431818,
                "end_time": 3.4886364,
                "pitch": 79,
                "velocity": 127,
                "duration": 0.1454545,
                "tempo": 120.0
            },
            {
                "start_time": 3.0318182,
                "end_time": 3.6340909,
                "pitch": 87,
                "velocity": 127,
                "duration": 0.6022727,
                "tempo": 120.0
            },
            {
                "start_time": 3.4886364,
                "end_time": 3.6340909,
                "pitch": 87,
                "velocity": 127,
                "duration": 0.1454545,
                "tempo": 120.0
            },
            {
                "start_time": 3.6340909,
                "end_time": 3.7909091,
                "pitch": 72,
                "velocity": 127,
                "duration": 0.1568182,
                "tempo": 120.0
            },
            {
                "start_time": 3.7909091,
                "end_time": 3.9454545,
                "pitch": 84,
                "velocity": 127,
                "duration": 0.1545455,
                "tempo": 120.0
            },
            {
                "start_time": 3.3431818,
                "end_time": 3.9454545,
                "pitch": 86,
                "velocity": 127,
                "duration": 0.6022727,
                "tempo": 120.0
            },
            {
                "start_time": 2.4295455,
                "end_time": 4.0954545,
                "pitch": 70,
                "velocity": 127,
                "duration": 1.6659091,
                "tempo": 120.0
            },
            {
                "start_time": 3.9454545,
                "end_time": 4.0954545,
                "pitch": 82,
                "velocity": 127,
                "duration": 0.15,
                "tempo": 120.0
            },
            {
                "start_time": 3.6340909,
                "end_time": 4.2454545,
                "pitch": 75,
                "velocity": 127,
                "duration": 0.6113636,
                "tempo": 120.0
            },
            {
                "start_time": 4.0954545,
                "end_time": 4.2454545,
                "pitch": 75,
                "velocity": 127,
                "duration": 0.15,
                "tempo": 120.0
            },
            {
                "start_time": 4.2454545,
                "end_time": 4.4181818,
                "pitch": 84,
                "velocity": 127,
                "duration": 0.1727273,
                "tempo": 120.0
            },
            {
                "start_time": 4.4181818,
                "end_time": 4.575,
                "pitch": 72,
                "velocity": 127,
                "duration": 0.1568182,
                "tempo": 120.0
            },
            {
                "start_time": 3.9454545,
                "end_time": 4.575,
                "pitch": 86,
                "velocity": 127,
                "duration": 0.6295455,
                "tempo": 120.0
            },
            {
                "start_time": 4.575,
                "end_time": 4.725,
                "pitch": 82,
                "velocity": 127,
                "duration": 0.15,
                "tempo": 120.0
            },
            {
                "start_time": 4.2454545,
                "end_time": 4.875,
                "pitch": 87,
                "velocity": 127,
                "duration": 0.6295455,
                "tempo": 120.0
            },
            {
                "start_time": 4.725,
                "end_time": 4.875,
                "pitch": 87,
                "velocity": 127,
                "duration": 0.15,
                "tempo": 120.0
            },
            {
                "start_time": 2.8818182,
                "end_time": 5.0295455,
                "pitch": 67,
                "velocity": 127,
                "duration": 2.1477273,
                "tempo": 120.0
            },
            {
                "start_time": 4.875,
                "end_time": 5.0295455,
                "pitch": 67,
                "velocity": 127,
                "duration": 0.1545455,
                "tempo": 120.0
            },
            {
                "start_time": 3.4886364,
                "end_time": 5.0636364,
                "pitch": 79,
                "velocity": 127,
                "duration": 1.575,
                "tempo": 120.0
            },
            {
                "start_time": 5.0295455,
                "end_time": 5.0636364,
                "pitch": 79,
                "velocity": 127,
                "duration": 0.0340909,
                "tempo": 120.0
            }
        ],
        "Acoustic Guitar (nylon)": [
            {
                "start_time": 0.0,
                "end_time": 0.1704545,
                "pitch": 91,
                "velocity": 80,
                "duration": 0.1704545,
                "tempo": 120.0
            },
            {
                "start_time": 0.1704545,
                "end_time": 0.3204545,
                "pitch": 103,
                "velocity": 80,
                "duration": 0.15,
                "tempo": 120.0
            },
            {
                "start_time": 0.3204545,
                "end_time": 0.4704545,
                "pitch": 98,
                "velocity": 80,
                "duration": 0.15,
                "tempo": 120.0
            },
            {
                "start_time": 0.4704545,
                "end_time": 0.6204545,
                "pitch": 94,
                "velocity": 80,
                "duration": 0.15,
                "tempo": 120.0
            },
            {
                "start_time": 0.6204545,
                "end_time": 0.7772727,
                "pitch": 103,
                "velocity": 80,
                "duration": 0.1568182,
                "tempo": 120.0
            },
            {
                "start_time": 0.7772727,
                "end_time": 0.9318182,
                "pitch": 91,
                "velocity": 80,
                "duration": 0.1545455,
                "tempo": 120.0
            },
            {
                "start_time": 0.3204545,
                "end_time": 0.9318182,
                "pitch": 93,
                "velocity": 80,
                "duration": 0.6113636,
                "tempo": 120.0
            },
            {
                "start_time": 0.4704545,
                "end_time": 1.0818182,
                "pitch": 98,
                "velocity": 80,
                "duration": 0.6113636,
                "tempo": 120.0
            },
            {
                "start_time": 0.9318182,
                "end_time": 1.0818182,
                "pitch": 98,
                "velocity": 80,
                "duration": 0.15,
                "tempo": 120.0
            },
            {
                "start_time": 0.6204545,
                "end_time": 1.2340909,
                "pitch": 106,
                "velocity": 80,
                "duration": 0.6136364,
                "tempo": 120.0
            },
            {
                "start_time": 1.0818182,
                "end_time": 1.2340909,
                "pitch": 106,
                "velocity": 80,
                "duration": 0.1522727,
                "tempo": 120.0
            },
            {
                "start_time": 1.2340909,
                "end_time": 1.3795455,
                "pitch": 91,
                "velocity": 80,
                "duration": 0.1454545,
                "tempo": 120.0
            },
            {
                "start_time": 0.9318182,
                "end_time": 1.525,
                "pitch": 93,
                "velocity": 80,
                "duration": 0.5931818,
                "tempo": 120.0
            },
            {
                "start_time": 1.3795455,
                "end_time": 1.525,
                "pitch": 103,
                "velocity": 80,
                "duration": 0.1454545,
                "tempo": 120.0
            },
            {
                "start_time": 1.525,
                "end_time": 1.6772727,
                "pitch": 101,
                "velocity": 80,
                "duration": 0.1522727,
                "tempo": 120.0
            },
            {
                "start_time": 1.2340909,
                "end_time": 1.8272727,
                "pitch": 94,
                "velocity": 80,
                "duration": 0.5931818,
                "tempo": 120.0
            },
            {
                "start_time": 1.6772727,
                "end_time": 1.8272727,
                "pitch": 94,
                "velocity": 80,
                "duration": 0.15,
                "tempo": 120.0
            },
            {
                "start_time": 1.8272727,
                "end_time": 1.9840909,
                "pitch": 103,
                "velocity": 80,
                "duration": 0.1568182,
                "tempo": 120.0
            },
            {
                "start_time": 1.9840909,
                "end_time": 2.1386364,
                "pitch": 91,
                "velocity": 80,
                "duration": 0.1545455,
                "tempo": 120.0
            },
            {
                "start_time": 1.525,
                "end_time": 2.1386364,
                "pitch": 93,
                "velocity": 80,
                "duration": 0.6136364,
                "tempo": 120.0
            },
            {
                "start_time": 1.6772727,
                "end_time": 2.2840909,
                "pitch": 101,
                "velocity": 80,
                "duration": 0.6068182,
                "tempo": 120.0
            },
            {
                "start_time": 2.1386364,
                "end_time": 2.2840909,
                "pitch": 101,
                "velocity": 80,
                "duration": 0.1454545,
                "tempo": 120.0
            },
            {
                "start_time": 1.8272727,
                "end_time": 2.4295455,
                "pitch": 106,
                "velocity": 80,
                "duration": 0.6022727,
                "tempo": 120.0
            },
            {
                "start_time": 2.2840909,
                "end_time": 2.4295455,
                "pitch": 106,
                "velocity": 80,
                "duration": 0.1454545,
                "tempo": 120.0
            },
            {
                "start_time": 0.0,
                "end_time": 2.5818182,
                "pitch": 96,
                "velocity": 80,
                "duration": 2.5818182,
                "tempo": 120.0
            },
            {
                "start_time": 2.4295455,
                "end_time": 2.5818182,
                "pitch": 96,
                "velocity": 80,
                "duration": 0.1522727,
                "tempo": 120.0
            },
            {
                "start_time": 2.5818182,
                "end_time": 2.7318182,
                "pitch": 108,
                "velocity": 80,
                "duration": 0.15,
                "tempo": 120.0
            },
            {
                "start_time": 1.0818182,
                "end_time": 2.7318182,
                "pitch": 110,
                "velocity": 80,
                "duration": 1.65,
                "tempo": 120.0
            },
            {
                "start_time": 2.7318182,
                "end_time": 2.8818182,
                "pitch": 103,
                "velocity": 80,
                "duration": 0.15,
                "tempo": 120.0
            },
            {
                "start_time": 2.8818182,
                "end_time": 3.0318182,
                "pitch": 99,
                "velocity": 80,
                "duration": 0.15,
                "tempo": 120.0
            },
            {
                "start_time": 3.0318182,
                "end_time": 3.1886364,
                "pitch": 108,
                "velocity": 80,
                "duration": 0.1568182,
                "tempo": 120.0
            },
            {
                "start_time": 3.1886364,
                "end_time": 3.3431818,
                "pitch": 96,
                "velocity": 80,
                "duration": 0.1545455,
                "tempo": 120.0
            },
            {
                "start_time": 2.7318182,
                "end_time": 3.3431818,
                "pitch": 110,
                "velocity": 80,
                "duration": 0.6113636,
                "tempo": 120.0
            },
            {
                "start_time": 3.3431818,
                "end_time": 3.4886364,
                "pitch": 103,
                "velocity": 80,
                "duration": 0.1454545,
                "tempo": 120.0
            },
            {
                "start_time": 3.0318182,
                "end_time": 3.6340909,
                "pitch": 111,
                "velocity": 80,
                "duration": 0.6022727,
                "tempo": 120.0
            },
            {
                "start_time": 3.4886364,
                "end_time": 3.6340909,
                "pitch": 111,
                "velocity": 80,
                "duration": 0.1454545,
                "tempo": 120.0
            },
            {
                "start_time": 3.6340909,
                "end_time": 3.7909091,
                "pitch": 96,
                "velocity": 80,
                "duration": 0.1568182,
                "tempo": 120.0
            },
            {
                "start_time": 3.7909091,
                "end_time": 3.9454545,
                "pitch": 108,
                "velocity": 80,
                "duration": 0.1545455,
                "tempo": 120.0
            },
            {
                "start_time": 3.3431818,
                "end_time": 3.9454545,
                "pitch": 110,
                "velocity": 80,
                "duration": 0.6022727,
                "tempo": 120.0
            },
            {
                "start_time": 2.4295455,
                "end_time": 4.0954545,
                "pitch": 94,
                "velocity": 80,
                "duration": 1.6659091,
                "tempo": 120.0
            },
            {
                "start_time": 3.9454545,
                "end_time": 4.0954545,
                "pitch": 106,
                "velocity": 80,
                "duration": 0.15,
                "tempo": 120.0
            },
            {
                "start_time": 3.6340909,
                "end_time": 4.2454545,
                "pitch": 99,
                "velocity": 80,
                "duration": 0.6113636,
                "tempo": 120.0
            },
            {
                "start_time": 4.0954545,
                "end_time": 4.2454545,
                "pitch": 99,
                "velocity": 80,
                "duration": 0.15,
                "tempo": 120.0
            },
            {
                "start_time": 4.2454545,
                "end_time": 4.4181818,
                "pitch": 108,
                "velocity": 80,
                "duration": 0.1727273,
                "tempo": 120.0
            },
            {
                "start_time": 4.4181818,
                "end_time": 4.575,
                "pitch": 96,
                "velocity": 80,
                "duration": 0.1568182,
                "tempo": 120.0
            },
            {
                "start_time": 3.9454545,
                "end_time": 4.575,
                "pitch": 110,
                "velocity": 80,
                "duration": 0.6295455,
                "tempo": 120.0
            },
            {
                "start_time": 4.575,
                "end_time": 4.725,
                "pitch": 106,
                "velocity": 80,
                "duration": 0.15,
                "tempo": 120.0
            },
            {
                "start_time": 4.2454545,
                "end_time": 4.875,
                "pitch": 111,
                "velocity": 80,
                "duration": 0.6295455,
                "tempo": 120.0
            },
            {
                "start_time": 4.725,
                "end_time": 4.875,
                "pitch": 111,
                "velocity": 80,
                "duration": 0.15,
                "tempo": 120.0
            },
            {
                "start_time": 2.8818182,
                "end_time": 5.0295455,
                "pitch": 91,
                "velocity": 80,
                "duration": 2.1477273,
                "tempo": 120.0
            },
            {
                "start_time": 4.875,
                "end_time": 5.0295455,
                "pitch": 91,
                "velocity": 80,
                "duration": 0.1545455,
                "tempo": 120.0
            },
            {
                "start_time": 3.4886364,
                "end_time": 5.0636364,
                "pitch": 103,
                "velocity": 80,
                "duration": 1.575,
                "tempo": 120.0
            },
            {
                "start_time": 5.0295455,
                "end_time": 5.0636364,
                "pitch": 103,
                "velocity": 80,
                "duration": 0.0340909,
                "tempo": 120.0
            }
        ]
    }
}