{
    "mood": "angry",
    "instruments": {
        "Acoustic Grand Piano": [
            {
                "start_time": 0.0386364,
                "end_time": 0.1113636,
                "pitch": 24,
                "velocity": 127,
                "duration": 0.0727273,
                "tempo": 120.0
            },
            {
                "start_time": 0.15,
                "end_time": 0.2227273,
                "pitch": 31,
                "velocity": 127,
                "duration": 0.0727273,
                "tempo": 120.0
            },
            {
                "start_time": 0.0386364,
                "end_time": 0.2590909,
                "pitch": 0,
                "velocity": 127,
                "duration": 0.2204545,
                "tempo": 120.0
            },
            {
                "start_time": 0.2590909,
                "end_time": 0.4068182,
                "pitch": 27,
                "velocity": 127,
                "duration": 0.1477273,
                "tempo": 120.0
            },
            {
                "start_time": 0.4795455,
                "end_time": 0.5545455,
                "pitch": 29,
                "velocity": 127,
                "duration": 0.075,
                "tempo": 120.0
            },
            {
                "start_time": 0.5931818,
                "end_time": 0.7431818,
                "pitch": 24,
                "velocity": 127,
                "duration": 0.15,
                "tempo": 120.0
            },
            {
                "start_time": 0.4795455,
                "end_time": 0.8181818,
                "pitch": 27,
                "velocity": 127,
                "duration": 0.3386364,
                "tempo": 120.0
            },
            {
                "start_time": 0.8181818,
                "end_time": 0.8931818,
                "pitch": 22,
                "velocity": 127,
                "duration": 0.075,
                "tempo": 120.0
            },
            {
                "start_time": 0.9318182,
                "end_time": 1.0045455,
                "pitch": 24,
                "velocity": 127,
                "duration": 0.0727273,
                "tempo": 120.0
            },
            {
                "start_time": 0.15,
                "end_time": 1.0431818,
                "pitch": 40,
                "velocity": 127,
                "duration": 0.8931818,
                "tempo": 120.0
            },
            {
                "start_time": 1.0431818,
                "end_time": 1.1159091,
                "pitch": 31,
                "velocity": 127,
                "duration": 0.0727273,
                "tempo": 120.0
            },
            {
                "start_time": 0.2590909,
                "end_time": 1.1522727,
                "pitch": 0,
                "velocity": 127,
                "duration": 0.8931818,
                "tempo": 120.0
            },
            {
                "start_time": 0.8181818,
                "end_time": 1.3,
                "pitch": 27,
                "velocity": 127,
                "duration": 0.4818182,
                "tempo": 120.0
            },
            {
                "start_time": 1.1522727,
                "end_time": 1.3,
                "pitch": 27,
                "velocity": 127,
                "duration": 0.1477273,
                "tempo": 120.0
            },
            {
                "start_time": 0.5931818,
                "end_time": 1.4477273,
                "pitch": 29,
                "velocity": 127,
                "duration": 0.8545455,
                "tempo": 120.0
            },
            {
                "start_time": 1.375,
                "end_time": 1.4477273,
                "pitch": 29,
                "velocity": 127,
                "duration": 0.0727273,
                "tempo": 120.0
            },
            {
                "start_time": 1.4840909,
                "end_time": 1.6318182,
                "pitch": 24,
                "velocity": 127,
                "duration": 0.1477273,
                "tempo": 120.0
            },
            {
                "start_time": 1.375,
                "end_time": 1.7045455,
                "pitch": 27,
                "velocity": 127,
                "duration": 0.3295455,
                "tempo": 120.0
            },
            {
                "start_time": 1.7045455,
                "end_time": 1.7795455,
                "pitch": 22,
                "velocity": 127,
                "duration": 0.075,
                "tempo": 120.0
            },
            {
                "start_time": 0.9318182,
                "end_time": 1.8159091,
                "pitch": 2,
                "velocity": 127,
                "duration": 0.8840909,
                "tempo": 120.0
            },
            {
                "start_time": 1.8159091,
                "end_time": 1.8886364,
                "pitch": 24,
                "velocity": 127,
                "duration": 0.0727273,
                "tempo": 120.0
            },
            {
                "start_time": 1.0431818,
                "end_time": 1.925,
                "pitch": 40,
                "velocity": 127,
                "duration": 0.8818182,
                "tempo": 120.0
            },
            {
                "start_time": 1.925,
                "end_time": 2.0,
                "pitch": 31,
                "velocity": 127,
                "duration": 0.075,
                "tempo": 120.0
            },
            {
                "start_time": 1.1522727,
                "end_time": 2.0363636,
                "pitch": 0,
                "velocity": 127,
                "duration": 0.8840909,
                "tempo": 120.0
            },
            {
                "start_time": 1.7045455,
                "end_time": 2.1840909,
                "pitch": 27,
                "velocity": 127,
                "duration": 0.4795455,
                "tempo": 120.0
            },
            {
                "start_time": 2.0363636,
                "end_time": 2.1840909,
                "pitch": 27,
                "velocity": 127,
                "duration": 0.1477273,
                "tempo": 120.0
            },
            {
                "start_time": 1.4840909,
                "end_time": 2.3318182,
                "pitch": 29,
                "velocity": 127,
                "duration": 0.8477273,
                "tempo": 120.0
            },
            {
                "start_time": 2.2568182,
                "end_time": 2.3318182,
                "pitch": 29,
                "velocity": 127,
                "duration": 0.075,
                "tempo": 120.0
            },
            {
                "start_time": 2.3681818,
                "end_time": 2.5159091,
                "pitch": 24,
                "velocity": 127,
                "duration": 0.1477273,
                "tempo": 120.0
            },
            {
                "start_time": 2.2568182,
                "end_time": 2.5886364,
                "pitch": 27,
                "velocity": 127,
                "duration": 0.3318182,
                "tempo": 120.0
            },
            {
                "start_time": 2.5886364,
                "end_time": 2.6613636,
                "pitch": 22,
                "velocity": 127,
                "duration": 0.0727273,
                "tempo": 120.0
            },
            {
                "start_time": 1.8159091,
                "end_time": 2.7,
                "pitch": 2,
                "velocity": 127,
                "duration": 0.8840909,
                "tempo": 120.0
            },
            {
                "start_time": 2.7,
                "end_time": 2.7727273,
                "pitch": 24,
                "velocity": 127,
                "duration": 0.0727273,
                "tempo": 120.0
            },
            {
                "start_time": 1.925,
                "end_time": 2.8090909,
                "pitch": 40,
                "velocity": 127,
                "duration": 0.8840909,
                "tempo": 120.0
            },
            {
                "start_time": 2.8090909,
                "end_time": 2.8818182,
                "pitch": 31,
                "velocity": 127,
                "duration": 0.0727273,
                "tempo": 120.0
            },
            {
                "start_time": 2.0363636,
                "end_time": 2.9204545,
                "pitch": 0,
                "velocity": 127,
                "duration": 0.8840909,
                "tempo": 120.0
            },
            {
                "start_time": 2.5886364,
                "end_time": 3.0659091,
                "pitch": 27,
                "velocity": 127,
                "duration": 0.4772727,
                "tempo": 120.0
            },
            {
                "start_time": 2.9204545,
                "end_time": 3.0659091,
                "pitch": 27,
                "velocity": 127,
                "duration": 0.1454545,
                "tempo": 120.0
            },
            {
                "start_time": 2.3681818,
                "end_time": 3.2136364,
                "pitch": 29,
                "velocity": 127,
                "duration": 0.8454545,
                "tempo": 120.0
            },
            {
                "start_time": 3.1409091,
                "end_time": 3.2136364,
                "pitch": 29,
                "velocity": 127,
                "duration": 0.0727273,
                "tempo": 120.0
            },
            {
                "start_time": 3.2522727,
                "end_time": 3.3977273,
                "pitch": 24,
                "velocity": 127,
                "duration": 0.1454545,
                "tempo": 120.0
            },
            {
                "start_time": 3.1409091,
                "end_time": 3.4727273,
                "pitch": 27,
                "velocity": 127,
                "duration": 0.3318182,
                "tempo": 120.0
            },
            {
                "start_time": 3.4727273,
                "end_time": 3.5454545,
                "pitch": 22,
                "velocity": 127,
                "duration": 0.0727273,
                "tempo": 120.0
            },
            {
                "start_time": 2.7,
                "end_time": 3.5818182,
                "pitch": 2,
                "velocity": 127,
                "duration": 0.8818182,
                "tempo": 120.0
            },
            {
                "start_time": 3.5818182,
                "end_time": 3.6568182,
                "pitch": 24,
                "velocity": 127,
                "duration": 0.075,
                "tempo": 120.0
            },
            {
                "start_time": 2.8090909,
                "end_time": 3.6954545,
                "pitch": 40,
                "velocity": 127,
                "duration": 0.8863636,
                "tempo": 120.0
            },
            {
                "start_time": 3.6954545,
                "end_time": 3.7704545,
                "pitch": 31,
                "velocity": 127,
                "duration": 0.075,
                "tempo": 120.0
            },
            {
                "start_time": 2.9204545,
                "end_time": 3.8090909,
                "pitch": 0,
                "velocity": 127,
                "duration": 0.8886364,
                "tempo": 120.0
            },
            {
                "start_time": 3.4727273,
                "end_time": 3.9590909,
                "pitch": 27,
                "velocity": 127,
                "duration": 0.4863636,
                "tempo": 120.0
            },
            {
                "start_time": 3.8090909,
                "end_time": 3.9590909,
                "pitch": 27,
                "velocity": 127,
                "duration": 0.15,
                "tempo": 120.0
            },
            {
                "start_time": 3.2522727,
                "end_time": 4.1068182,
                "pitch": 29,
                "velocity": 127,
                "duration": 0.8545455,
                "tempo": 120.0
            },
            {
                "start_time": 4.0340909,
                "end_time": 4.1068182,
                "pitch": 29,
                "velocity": 127,
                "duration": 0.0727273,
                "tempo": 120.0
            },
            {
                "start_time": 4.1431818,
                "end_time": 4.2863636,
                "pitch": 24,
                "velocity": 127,
                "duration": 0.1431818,
                "tempo": 120.0
            },
            {
                "start_time": 4.0340909,
                "end_time": 4.3590909,
                "pitch": 27,
                "velocity": 127,
                "duration": 0.325,
                "tempo": 120.0
            },
            {
                "start_time": 4.3590909,
                "end_time": 4.4295455,
                "pitch": 22,
                "velocity": 127,
                "duration": 0.0704545,
                "tempo": 120.0
            },
            {
                "start_time": 3.5818182,
                "end_time": 4.4659091,
                "pitch": 2,
                "velocity": 127,
                "duration": 0.8840909,
                "tempo": 120.0
            },
            {
                "start_time": 4.4659091,
                "end_time": 4.5386364,
                "pitch": 24,
                "velocity": 127,
                "duration": 0.0727273,
                "tempo": 120.0
            },
            {
                "start_time": 3.6954545,
                "end_time": 4.5772727,
                "pitch": 40,
                "velocity": 127,
                "duration": 0.8818182,
                "tempo": 120.0
            },
            {
                "start_time": 4.5772727,
                "end_time": 4.65,
                "pitch": 31,
                "velocity": 127,
                "duration": 0.0727273,
                "tempo": 120.0
            },
            {
                "start_time": 3.8090909,
                "end_time": 4.6863636,
                "pitch": 0,
                "velocity": 127,
                "duration": 0.8772727,
                "tempo": 120.0
            },
            {
                "start_time": 4.3590909,
                "end_time": 4.8340909,
                "pitch": 27,
                "velocity": 127,
                "duration": 0.475,
                "tempo": 120.0
            },
            {
                "start_time": 4.6863636,
                "end_time": 4.8340909,
                "pitch": 27,
                "velocity": 127,
                "duration": 0.1477273,
                "tempo": 120.0
            },
            {
                "start_time": 4.1431818,
                "end_time": 4.9818182,
                "pitch": 29,
                "velocity": 127,
                "duration": 0.8386364,
                "tempo": 120.0
            },
            {
                "start_time": 4.9090909,
                "end_time": 4.9818182,
                "pitch": 29,
                "velocity": 127,
                "duration": 0.0727273,
                "tempo": 120.0
            },
            {
                "start_time": 5.0181818,
                "end_time": 5.1659091,
                "pitch": 24,
                "velocity": 127,
                "duration": 0.1477273,
                "tempo": 120.0
            },
            {
                "start_time": 4.9090909,
                "end_time": 5.2386364,
                "pitch": 27,
                "velocity": 127,
                "duration": 0.3295455,
                "tempo": 120.0
            },
            {
                "start_time": 5.2386364,
                "end_time": 5.3136364,
                "pitch": 22,
                "velocity": 127,
                "duration": 0.075,
                "tempo": 120.0
            },
            {
                "start_time": 4.4659091,
                "end_time": 5.35,
                "pitch": 2,
                "velocity": 127,
                "duration": 0.8840909,
                "tempo": 120.0
            },
            {
                "start_time": 5.35,
                "end_time": 5.4227273,
                "pitch": 24,
                "velocity": 127,
                "duration": 0.0727273,
                "tempo": 120.0
            },
            {
                "start_time": 4.5772727,
                "end_time": 5.4613636,
                "pitch": 40,
                "velocity": 127,
                "duration": 0.8840909,
                "tempo": 120.0
            },
            {
                "start_time": 5.4590909,
                "end_time": 5.4613636,
                "pitch": 40,
                "velocity": 127,
                "duration": 0.0022727,
                "tempo": 120.0
            },
            {
                "start_time": 5.4613636,
                "end_time": 5.5340909,
                "pitch": 31,
                "velocity": 127,
                "duration": 0.0727273,
                "tempo": 120.0
            },
            {
                "start_time": 4.6863636,
                "end_time": 5.5704545,
                "pitch": 0,
                "velocity": 127,
                "duration": 0.8840909,
                "tempo": 120.0
            },
            {
                "start_time": 5.2386364,
                "end_time": 5.7181818,
                "pitch": 27,
                "velocity": 127,
                "duration": 0.4795455,
                "tempo": 120.0
            },
            {
                "start_time": 5.5704545,
                "end_time": 5.7181818,
                "pitch": 27,
                "velocity": 127,
                "duration": 0.1477273,
                "tempo": 120.0
            },
            {
                "start_time": 5.0181818,
                "end_time": 5.8659091,
                "pitch": 29,
                "velocity": 127,
                "duration": 0.8477273,
                "tempo": 120.0
            },
            {
                "start_time": 5.7909091,
                "end_time": 5.8659091,
                "pitch": 29,
                "velocity": 127,
                "duration": 0.075,
                "tempo": 120.0
            },
            {
                "start_time": 5.9022727,
                "end_time": 6.05,
                "pitch": 24,
                "velocity": 127,
                "duration": 0.1477273,
                "tempo": 120.0
            },
            {
                "start_time": 5.7909091,
                "end_time": 6.1227273,
                "pitch": 27,
                "velocity": 127,
                "duration": 0.3318182,
                "tempo": 120.0
            },
            {
                "start_time": 6.1227273,
                "end_time": 6.1954545,
                "pitch": 22,
                "velocity": 127,
                "duration": 0.0727273,
                "tempo": 120.0
            },
            {
                "start_time": 5.35,
                "end_time": 6.2340909,
                "pitch": 2,
                "velocity": 127,
                "duration": 0.8840909,
                "tempo": 120.0
            },
            {
                "start_time": 6.2340909,
                "end_time": 6.3068182,
                "pitch": 24,
                "velocity": 127,
                "duration": 0.0727273,
                "tempo": 120.0
            },
            {
                "start_time": 6.3431818,
                "end_time": 6.4181818,
                "pitch": 31,
                "velocity": 127,
                "duration": 0.075,
                "tempo": 120.0
            },
            {
                "start_time": 5.5704545,
                "end_time": 6.4545455,
                "pitch": 0,
                "velocity": 127,
                "duration": 0.8840909,
                "tempo": 120.0
            },
            {
                "start_time": 6.1227273,
                "end_time": 6.6,
                "pitch": 27,
                "velocity": 127,
                "duration": 0.4772727,
                "tempo": 120.0
            },
            {
                "start_time": 6.4545455,
                "end_time": 6.6,
                "pitch": 27,
                "velocity": 127,
                "duration": 0.1454545,
                "tempo": 120.0
            },
            {
                "start_time": 5.9022727,
                "end_time": 6.7477273,
                "pitch": 29,
                "velocity": 127,
                "duration": 0.8454545,
                "tempo": 120.0
            },
            {
                "start_time": 6.675,
                "end_time": 6.7477273,
                "pitch": 29,
                "velocity": 127,
                "duration": 0.0727273,
                "tempo": 120.0
            },
            {
                "start_time": 6.7863636,
                "end_time": 6.9318182,
                "pitch": 24,
                "velocity": 127,
                "duration": 0.1454545,
                "tempo": 120.0
            },
            {
                "start_time": 6.675,
                "end_time": 7.0068182,
                "pitch": 27,
                "velocity": 127,
                "duration": 0.3318182,
                "tempo": 120.0
            },
            {
                "start_time": 7.0068182,
                "end_time": 7.0795455,
                "pitch": 22,
                "velocity": 127,
                "duration": 0.0727273,
                "tempo": 120.0
            },
            {
                "start_time": 6.2340909,
                "end_time": 7.1159091,
                "pitch": 2,
                "velocity": 127,
                "duration": 0.8818182,
                "tempo": 120.0
            },
            {
                "start_time": 6.7863636,
                "end_time": 7.2659091,
                "pitch": 29,
                "velocity": 127,
                "duration": 0.4795455,
                "tempo": 120.0
            },
            {
                "start_time": 7.1159091,
                "end_time": 7.2659091,
                "pitch": 29,
                "velocity": 127,
                "duration": 0.15,
                "tempo": 120.0
            },
            {
                "start_time": 7.3431818,
                "end_time": 7.4931818,
                "pitch": 32,
                "velocity": 127,
                "duration": 0.15,
                "tempo": 120.0
            },
            {
                "start_time": 7.5681818,
                "end_time": 7.6409091,
                "pitch": 34,
                "velocity": 127,
                "duration": 0.0727273,
                "tempo": 120.0
            },
            {
                "start_time": 7.1159091,
                "end_time": 7.6795455,
                "pitch": 2,
                "velocity": 127,
                "duration": 0.5636364,
                "tempo": 120.0
            },
            {
                "start_time": 7.0068182,
                "end_time": 7.825,
                "pitch": 27,
                "velocity": 127,
                "duration": 0.8181818,
                "tempo": 120.0
            },
            {
                "start_time": 7.6795455,
                "end_time": 7.825,
                "pitch": 27,
                "velocity": 127,
                "duration": 0.1454545,
                "tempo": 120.0
            },
            {
                "start_time": 7.9,
                "end_time": 7.9727273,
                "pitch": 27,
                "velocity": 127,
                "duration": 0.0727273,
                "tempo": 120.0
            },
            {
                "start_time": 8.0113636,
                "end_time": 8.1568182,
                "pitch": 28,
                "velocity": 127,
                "duration": 0.1454545,
                "tempo": 120.0
            },
            {
                "start_time": 7.3431818,
                "end_time": 8.2318182,
                "pitch": 42,
                "velocity": 127,
                "duration": 0.8886364,
                "tempo": 120.0
            },
            {
                "start_time": 7.5681818,
                "end_time": 8.3772727,
                "pitch": 32,
                "velocity": 127,
                "duration": 0.8090909,
                "tempo": 120.0
            },
            {
                "start_time": 8.2318182,
                "end_time": 8.3772727,
                "pitch": 32,
                "velocity": 127,
                "duration": 0.1454545,
                "tempo": 120.0
            },
            {
                "start_time": 8.4522727,
                "end_time": 8.5227273,
                "pitch": 34,
                "velocity": 127,
                "duration": 0.0704545,
                "tempo": 120.0
            },
            {
                "start_time": 7.6795455,
                "end_time": 8.5590909,
                "pitch": 2,
                "velocity": 127,
                "duration": 0.8795455,
                "tempo": 120.0
            },
            {
                "start_time": 8.5590909,
                "end_time": 8.7045455,
                "pitch": 27,
                "velocity": 127,
                "duration": 0.1454545,
                "tempo": 120.0
            },
            {
                "start_time": 8.775,
                "end_time": 8.8477273,
                "pitch": 27,
                "velocity": 127,
                "duration": 0.0727273,
                "tempo": 120.0
            },
            {
                "start_time": 8.8840909,
                "end_time": 9.0340909,
                "pitch": 28,
                "velocity": 127,
                "duration": 0.15,
                "tempo": 120.0
            },
            {
                "start_time": 8.2318182,
                "end_time": 9.1090909,
                "pitch": 42,
                "velocity": 127,
                "duration": 0.8772727,
                "tempo": 120.0
            },
            {
                "start_time": 8.4522727,
                "end_time": 9.2590909,
                "pitch": 32,
                "velocity": 127,
                "duration": 0.8068182,
                "tempo": 120.0
            },
            {
                "start_time": 9.1090909,
                "end_time": 9.2590909,
                "pitch": 32,
                "velocity": 127,
                "duration": 0.15,
                "tempo": 120.0
            },
            {
                "start_time": 9.3363636,
                "end_time": 9.4090909,
                "pitch": 34,
                "velocity": 127,
                "duration": 0.0727273,
                "tempo": 120.0
            },
            {
                "start_time": 8.5590909,
                "end_time": 9.4454545,
                "pitch": 2,
                "velocity": 127,
                "duration": 0.8863636,
                "tempo": 120.0
            },
            {
                "start_time": 9.4454545,
                "end_time": 9.5931818,
                "pitch": 27,
                "velocity": 127,
                "duration": 0.1477273,
                "tempo": 120.0
            },
            {
                "start_time": 9.6659091,
                "end_time": 9.7409091,
                "pitch": 27,
                "velocity": 127,
                "duration": 0.075,
                "tempo": 120.0
            },
            {
                "start_time": 9.7772727,
                "end_time": 9.925,
                "pitch": 28,
                "velocity": 127,
                "duration": 0.1477273,
                "tempo": 120.0
            },
            {
                "start_time": 9.1090909,
                "end_time": 9.9977273,
                "pitch": 42,
                "velocity": 127,
                "duration": 0.8886364,
                "tempo": 120.0
            },
            {
                "start_time": 9.3363636,
                "end_time": 10.1454545,
                "pitch": 32,
                "velocity": 127,
                "duration": 0.8090909,
                "tempo": 120.0
            },
            {
                "start_time": 9.9977273,
                "end_time": 10.1454545,
                "pitch": 32,
                "velocity": 127,
                "duration": 0.1477273,
                "tempo": 120.0
            },
            {
                "start_time": 10.2181818,
                "end_time": 10.2931818,
                "pitch": 34,
                "velocity": 127,
                "duration": 0.075,
                "tempo": 120.0
            },
            {
                "start_time": 9.4454545,
                "end_time": 10.3295455,
                "pitch": 2,
                "velocity": 127,
                "duration": 0.8840909,
                "tempo": 120.0
            },
            {
                "start_time": 10.3295455,
                "end_time": 10.4772727,
                "pitch": 27,
                "velocity": 127,
                "duration": 0.1477273,
                "tempo": 120.0
            },
            {
                "start_time": 10.55,
                "end_time": 10.6227273,
                "pitch": 27,
                "velocity": 127,
                "duration": 0.0727273,
                "tempo": 120.0
            },
            {
                "start_time": 10.6613636,
                "end_time": 10.8068182,
                "pitch": 28,
                "velocity": 127,
                "duration": 0.1454545,
                "tempo": 120.0
            },
            {
                "start_time": 9.9977273,
                "end_time": 10.8818182,
                "pitch": 42,
                "velocity": 127,
                "duration": 0.8840909,
                "tempo": 120.0
            },
            {
                "start_time": 10.2181818,
                "end_time": 11.0295455,
                "pitch": 32,
                "velocity": 127,
                "duration": 0.8113636,
                "tempo": 120.0
            },
            {
                "start_time": 10.8818182,
                "end_time": 11.0295455,
                "pitch": 32,
                "velocity": 127,
                "duration": 0.1477273,
                "tempo": 120.0
            },
            {
                "start_time": 11.1022727,
                "end_time": 11.175,
                "pitch": 34,
                "velocity": 127,
                "duration": 0.0727273,
                "tempo": 120.0
            },
            {
                "start_time": 10.3295455,
                "end_time": 11.2136364,
                "pitch": 2,
                "velocity": 127,
                "duration": 0.8840909,
                "tempo": 120.0
            },
            {
                "start_time": 11.2136364,
                "end_time": 11.3590909,
                "pitch": 27,
                "velocity": 127,
                "duration": 0.1454545,
                "tempo": 120.0
            },
            {
                "start_time": 11.4340909,
                "end_time": 11.5068182,
                "pitch": 27,
                "velocity": 127,
                "duration": 0.0727273,
                "tempo": 120.0
            },
            {
                "start_time": 11.5454545,
                "end_time": 11.6909091,
                "pitch": 28,
                "velocity": 127,
                "duration": 0.1454545,
                "tempo": 120.0
            },
            {
                "start_time": 10.8818182,
                "end_time": 11.7659091,
                "pitch": 42,
                "velocity": 127,
                "duration": 0.8840909,
                "tempo": 120.0
            },
            {
                "start_time": 11.1022727,
                "end_time": 11.9113636,
                "pitch": 32,
                "velocity": 127,
                "duration": 0.8090909,
                "tempo": 120.0
            },
            {
                "start_time": 11.7659091,
                "end_time": 11.9113636,
                "pitch": 32,
                "velocity": 127,
                "duration": 0.1454545,
                "tempo": 120.0
            },
            {
                "start_time": 11.9863636,
                "end_time": 12.0590909,
                "pitch": 34,
                "velocity": 127,
                "duration": 0.0727273,
                "tempo": 120.0
            },
            {
                "start_time": 11.2136364,
                "end_time": 12.0954545,
                "pitch": 2,
                "velocity": 127,
                "duration": 0.8818182,
                "tempo": 120.0
            },
            {
                "start_time": 12.0954545,
                "end_time": 12.2431818,
                "pitch": 27,
                "velocity": 127,
                "duration": 0.1477273,
                "tempo": 120.0
            },
            {
                "start_time": 12.3181818,
                "end_time": 12.3909091,
                "pitch": 27,
                "velocity": 127,
                "duration": 0.0727273,
                "tempo": 120.0
            },
            {
                "start_time": 12.4272727,
                "end_time": 12.575,
                "pitch": 28,
                "velocity": 127,
                "duration": 0.1477273,
                "tempo": 120.0
            },
            {
                "start_time": 11.7659091,
                "end_time": 12.6477273,
                "pitch": 42,
                "velocity": 127,
                "duration": 0.8818182,
                "tempo": 120.0
            },
            {
                "start_time": 11.9863636,
                "end_time": 12.7954545,
                "pitch": 32,
                "velocity": 127,
                "duration": 0.8090909,
                "tempo": 120.0
            },
            {
                "start_time": 12.6477273,
                "end_time": 12.7954545,
                "pitch": 32,
                "velocity": 127,
                "duration": 0.1477273,
                "tempo": 120.0
            },
            {
                "start_time": 12.8704545,
                "end_time": 12.9431818,
                "pitch": 34,
                "velocity": 127,
                "duration": 0.0727273,
                "tempo": 120.0
            },
            {
                "start_time": 12.0954545,
                "end_time": 12.9795455,
                "pitch": 2,
                "velocity": 127,
                "duration": 0.8840909,
                "tempo": 120.0
            },
            {
                "start_time": 12.9795455,
                "end_time": 13.1272727,
                "pitch": 27,
                "velocity": 127,
                "duration": 0.1477273,
                "tempo": 120.0
            },
            {
                "start_time": 13.2,
                "end_time": 13.275,
                "pitch": 27,
                "velocity": 127,
                "duration": 0.075,
                "tempo": 120.0
            },
            {
                "start_time": 13.3113636,
                "end_time": 13.4590909,
                "pitch": 28,
                "velocity": 127,
                "duration": 0.1477273,
                "tempo": 120.0
            },
            {
                "start_time": 12.6477273,
                "end_time": 13.5318182,
                "pitch": 42,
                "velocity": 127,
                "duration": 0.8840909,
                "tempo": 120.0
            },
            {
                "start_time": 12.8704545,
                "end_time": 13.6795455,
                "pitch": 32,
                "velocity": 127,
                "duration": 0.8090909,
                "tempo": 120.0
            },
            {
                "start_time": 13.5318182,
                "end_time": 13.6795455,
                "pitch": 32,
                "velocity": 127,
                "duration": 0.1477273,
                "tempo": 120.0
            },
            {
                "start_time": 13.7522727,
                "end_time": 13.8272727,
                "pitch": 34,
                "velocity": 127,
                "duration": 0.075,
                "tempo": 120.0
            },
            {
                "start_time": 12.9795455,
                "end_time": 13.8636364,
                "pitch": 2,
                "velocity": 127,
                "duration": 0.8840909,
                "tempo": 120.0
            },
            {
                "start_time": 13.8636364,
                "end_time": 14.0113636,
                "pitch": 27,
                "velocity": 127,
                "duration": 0.1477273,
                "tempo": 120.0
            },
            {
                "start_time": 14.0840909,
                "end_time": 14.1568182,
                "pitch": 27,
                "velocity": 127,
                "duration": 0.0727273,
                "tempo": 120.0
            },
            {
                "start_time": 13.5318182,
                "end_time": 14.3045455,
                "pitch": 42,
                "velocity": 127,
                "duration": 0.7727273,
                "tempo": 120.0
            },
            {
                "start_time": 14.3045455,
                "end_time": 14.3795455,
                "pitch": 31,
                "velocity": 127,
                "duration": 0.075,
                "tempo": 120.0
            },
            {
                "start_time": 14.4159091,
                "end_time": 14.5636364,
                "pitch": 31,
                "velocity": 127,
                "duration": 0.1477273,
                "tempo": 120.0
            },
            {
                "start_time": 14.6363636,
                "end_time": 14.7090909,
                "pitch": 31,
                "velocity": 127,
                "duration": 0.0727273,
                "tempo": 120.0
            },
            {
                "start_time": 14.8568182,
                "end_time": 14.9295455,
                "pitch": 31,
                "velocity": 127,
                "duration": 0.0727273,
                "tempo": 120.0
            },
            {
                "start_time": 14.9681818,
                "end_time": 15.0409091,
                "pitch": 31,
                "velocity": 127,
                "duration": 0.0727273,
                "tempo": 120.0
            },
            {
                "start_time": 15.0772727,
                "end_time": 15.1522727,
                "pitch": 31,
                "velocity": 127,
                "duration": 0.075,
                "tempo": 120.0
            },
            {
                "start_time": 15.1909091,
                "end_time": 15.2659091,
                "pitch": 33,
                "velocity": 127,
                "duration": 0.075,
                "tempo": 120.0
            },
            {
                "start_time": 15.3045455,
                "end_time": 15.4545455,
                "pitch": 33,
                "velocity": 127,
                "duration": 0.15,
                "tempo": 120.0
            },
            {
                "start_time": 13.8636364,
                "end_time": 15.5295455,
                "pitch": 2,
                "velocity": 127,
                "duration": 1.6659091,
                "tempo": 120.0
            },
            {
                "start_time": 15.5295455,
                "end_time": 15.6022727,
                "pitch": 24,
                "velocity": 127,
                "duration": 0.0727273,
                "tempo": 120.0
            },
            {
                "start_time": 15.6386364,
                "end_time": 15.7090909,
                "pitch": 41,
                "velocity": 127,
                "duration": 0.0704545,
                "tempo": 120.0
            },
            {
                "start_time": 15.7454545,
                "end_time": 15.8181818,
                "pitch": 41,
                "velocity": 127,
                "duration": 0.0727273,
                "tempo": 120.0
            },
            {
                "start_time": 15.8545455,
                "end_time": 15.925,
                "pitch": 41,
                "velocity": 127,
                "duration": 0.0704545,
                "tempo": 120.0
            },
            {
                "start_time": 14.3045455,
                "end_time": 15.9613636,
                "pitch": 42,
                "velocity": 127,
                "duration": 1.6568182,
                "tempo": 120.0
            },
            {
                "start_time": 15.1909091,
                "end_time": 16.1113636,
                "pitch": 31,
                "velocity": 127,
                "duration": 0.9204545,
                "tempo": 120.0
            },
            {
                "start_time": 15.9613636,
                "end_time": 16.1113636,
                "pitch": 31,
                "velocity": 127,
                "duration": 0.15,
                "tempo": 120.0
            },
            {
                "start_time": 16.1863636,
                "end_time": 16.2613636,
                "pitch": 31,
                "velocity": 127,
                "duration": 0.075,
                "tempo": 120.0
            },
            {
                "start_time": 16.3,
                "end_time": 16.45,
                "pitch": 31,
                "velocity": 127,
                "duration": 0.15,
                "tempo": 120.0
            },
            {
                "start_time": 16.5204545,
                "end_time": 16.5931818,
                "pitch": 31,
                "velocity": 127,
                "duration": 0.0727273,
                "tempo": 120.0
            },
            {
                "start_time": 16.6295455,
                "end_time": 16.7,
                "pitch": 31,
                "velocity": 127,
                "duration": 0.0704545,
                "tempo": 120.0
            },
            {
                "start_time": 16.7363636,
                "end_time": 16.8090909,
                "pitch": 31,
                "velocity": 127,
                "duration": 0.0727273,
                "tempo": 120.0
            },
            {
                "start_time": 6.4545455,
                "end_time": 16.8454545,
                "pitch": 0,
                "velocity": 127,
                "duration": 10.3909091,
                "tempo": 120.0
            },
            {
                "start_time": 16.8454545,
                "end_time": 16.9204545,
                "pitch": 24,
                "velocity": 127,
                "duration": 0.075,
                "tempo": 120.0
            },
            {
                "start_time": 16.9568182,
                "end_time": 17.1090909,
                "pitch": 24,
                "velocity": 127,
                "duration": 0.1522727,
                "tempo": 120.0
            },
            {
                "start_time": 17.1840909,
                "end_time": 17.2590909,
                "pitch": 24,
                "velocity": 127,
                "duration": 0.075,
                "tempo": 120.0
            },
            {
                "start_time": 17.2977273,
                "end_time": 17.3681818,
                "pitch": 27,
                "velocity": 127,
                "duration": 0.0704545,
                "tempo": 120.0
            },
            {
                "start_time": 17.4045455,
                "end_time": 17.5477273,
                "pitch": 27,
                "velocity": 127,
                "duration": 0.1431818,
                "tempo": 120.0
            },
            {
                "start_time": 17.6204545,
                "end_time": 17.6931818,
                "pitch": 27,
                "velocity": 127,
                "duration": 0.0727273,
                "tempo": 120.0
            },
            {
                "start_time": 17.7295455,
                "end_time": 17.8022727,
                "pitch": 39,
                "velocity": 127,
                "duration": 0.0727273,
                "tempo": 120.0
            },
            {
                "start_time": 17.8409091,
                "end_time": 17.9159091,
                "pitch": 39,
                "velocity": 127,
                "duration": 0.075,
                "tempo": 120.0
            },
            {
                "start_time": 17.9545455,
                "end_time": 18.0295455,
                "pitch": 39,
                "velocity": 127,
                "duration": 0.075,
                "tempo": 120.0
            },
            {
                "start_time": 18.0681818,
                "end_time": 18.2159091,
                "pitch": 39,
                "velocity": 127,
                "duration": 0.1477273,
                "tempo": 120.0
            },
            {
                "start_time": 18.2886364,
                "end_time": 18.3590909,
                "pitch": 39,
                "velocity": 127,
                "duration": 0.0704545,
                "tempo": 120.0
            },
            {
                "start_time": 15.6386364,
                "end_time": 18.4681818,
                "pitch": 36,
                "velocity": 127,
                "duration": 2.8295455,
                "tempo": 120.0
            },
            {
                "start_time": 18.3954545,
                "end_time": 18.4681818,
                "pitch": 36,
                "velocity": 127,
                "duration": 0.0727273,
                "tempo": 120.0
            },
            {
                "start_time": 18.3954545,
                "end_time": 18.575,
                "pitch": 39,
                "velocity": 127,
                "duration": 0.1795455,
                "tempo": 120.0
            },
            {
                "start_time": 18.5045455,
                "end_time": 18.575,
                "pitch": 39,
                "velocity": 127,
                "duration": 0.0704545,
                "tempo": 120.0
            },
            {
                "start_time": 18.5045455,
                "end_time": 18.6863636,
                "pitch": 36,
                "velocity": 127,
                "duration": 0.1818182,
                "tempo": 120.0
            },
            {
                "start_time": 18.6113636,
                "end_time": 18.6863636,
                "pitch": 36,
                "velocity": 127,
                "duration": 0.075,
                "tempo": 120.0
            },
            {
                "start_time": 6.3431818,
                "end_time": 18.7227273,
                "pitch": 40,
                "velocity": 127,
                "duration": 12.3795455,
                "tempo": 120.0
            },
            {
                "start_time": 18.7227273,
                "end_time": 18.7954545,
                "pitch": 31,
                "velocity": 127,
                "duration": 0.0727273,
                "tempo": 120.0
            },
            {
                "start_time": 18.8340909,
                "end_time": 18.9068182,
                "pitch": 34,
                "velocity": 127,
                "duration": 0.0727273,
                "tempo": 120.0
            },
            {
                "start_time": 18.8340909,
                "end_time": 19.0159091,
                "pitch": 31,
                "velocity": 127,
                "duration": 0.1818182,
                "tempo": 120.0
            },
            {
                "start_time": 18.9431818,
                "end_time": 19.0159091,
                "pitch": 31,
                "velocity": 127,
                "duration": 0.0727273,
                "tempo": 120.0
            },
            {
                "start_time": 16.8454545,
                "end_time": 19.0545455,
                "pitch": 0,
                "velocity": 127,
                "duration": 2.2090909,
                "tempo": 120.0
            },
            {
                "start_time": 19.0545455,
                "end_time": 19.1295455,
                "pitch": 36,
                "velocity": 127,
                "duration": 0.075,
                "tempo": 120.0
            },
            {
                "start_time": 18.7227273,
                "end_time": 19.1659091,
                "pitch": 40,
                "velocity": 127,
                "duration": 0.4431818,
                "tempo": 120.0
            },
            {
                "start_time": 19.1659091,
                "end_time": 19.3181818,
                "pitch": 31,
                "velocity": 127,
                "duration": 0.1522727,
                "tempo": 120.0
            },
            {
                "start_time": 19.0545455,
                "end_time": 19.3931818,
                "pitch": 0,
                "velocity": 127,
                "duration": 0.3386364,
                "tempo": 120.0
            },
            {
                "start_time": 19.3931818,
                "end_time": 19.4681818,
                "pitch": 30,
                "velocity": 127,
                "duration": 0.075,
                "tempo": 120.0
            },
            {
                "start_time": 15.9613636,
                "end_time": 19.5045455,
                "pitch": 42,
                "velocity": 127,
                "duration": 3.5431818,
                "tempo": 120.0
            },
            {
                "start_time": 19.5045455,
                "end_time": 19.5795455,
                "pitch": 31,
                "velocity": 127,
                "duration": 0.075,
                "tempo": 120.0
            },
            {
                "start_time": 19.6159091,
                "end_time": 19.7636364,
                "pitch": 31,
                "velocity": 127,
                "duration": 0.1477273,
                "tempo": 120.0
            },
            {
                "start_time": 19.8363636,
                "end_time": 19.9113636,
                "pitch": 31,
                "velocity": 127,
                "duration": 0.075,
                "tempo": 120.0
            },
            {
                "start_time": 19.3931818,
                "end_time": 19.9477273,
                "pitch": 0,
                "velocity": 127,
                "duration": 0.5545455,
                "tempo": 120.0
            },
            {
                "start_time": 19.9477273,
                "end_time": 20.0204545,
                "pitch": 30,
                "velocity": 127,
                "duration": 0.0727273,
                "tempo": 120.0
            },
            {
                "start_time": 20.0590909,
                "end_time": 20.2045455,
                "pitch": 30,
                "velocity": 127,
                "duration": 0.1454545,
                "tempo": 120.0
            },
            {
                "start_time": 20.2795455,
                "end_time": 20.3522727,
                "pitch": 30,
                "velocity": 127,
                "duration": 0.0727273,
                "tempo": 120.0
            },
            {
                "start_time": 20.3886364,
                "end_time": 20.4636364,
                "pitch": 30,
                "velocity": 127,
                "duration": 0.075,
                "tempo": 120.0
            },
            {
                "start_time": 20.5,
                "end_time": 20.6477273,
                "pitch": 29,
                "velocity": 127,
                "duration": 0.1477273,
                "tempo": 120.0
            },
            {
                "start_time": 20.7204545,
                "end_time": 20.7931818,
                "pitch": 29,
                "velocity": 127,
                "duration": 0.0727273,
                "tempo": 120.0
            },
            {
                "start_time": 20.8318182,
                "end_time": 20.9045455,
                "pitch": 27,
                "velocity": 127,
                "duration": 0.0727273,
                "tempo": 120.0
            },
            {
                "start_time": 20.9409091,
                "end_time": 21.0136364,
                "pitch": 27,
                "velocity": 127,
                "duration": 0.0727273,
                "tempo": 120.0
            },
            {
                "start_time": 21.0522727,
                "end_time": 21.125,
                "pitch": 27,
                "velocity": 127,
                "duration": 0.0727273,
                "tempo": 120.0
            },
            {
                "start_time": 13.7522727,
                "end_time": 21.3477273,
                "pitch": 32,
                "velocity": 127,
                "duration": 7.5954545,
                "tempo": 120.0
            },
            {
                "start_time": 21.1613636,
                "end_time": 21.3477273,
                "pitch": 32,
                "velocity": 127,
                "duration": 0.1863636,
                "tempo": 120.0
            },
            {
                "start_time": 21.3863636,
                "end_time": 21.4613636,
                "pitch": 32,
                "velocity": 127,
                "duration": 0.075,
                "tempo": 120.0
            },
            {
                "start_time": 21.4977273,
                "end_time": 21.6477273,
                "pitch": 32,
                "velocity": 127,
                "duration": 0.15,
                "tempo": 120.0
            },
            {
                "start_time": 21.8318182,
                "end_time": 21.9045455,
                "pitch": 44,
                "velocity": 127,
                "duration": 0.0727273,
                "tempo": 120.0
            },
            {
                "start_time": 19.1659091,
                "end_time": 22.2659091,
                "pitch": 40,
                "velocity": 127,
                "duration": 3.1,
                "tempo": 120.0
            },
            {
                "start_time": 22.2659091,
                "end_time": 22.3409091,
                "pitch": 32,
                "velocity": 127,
                "duration": 0.075,
                "tempo": 120.0
            },
            {
                "start_time": 22.3772727,
                "end_time": 22.525,
                "pitch": 32,
                "velocity": 127,
                "duration": 0.1477273,
                "tempo": 120.0
            },
            {
                "start_time": 22.2659091,
                "end_time": 22.7090909,
                "pitch": 40,
                "velocity": 127,
                "duration": 0.4431818,
                "tempo": 120.0
            },
            {
                "start_time": 22.7090909,
                "end_time": 22.8545455,
                "pitch": 32,
                "velocity": 127,
                "duration": 0.1454545,
                "tempo": 120.0
            },
            {
                "start_time": 22.9295455,
                "end_time": 23.1136364,
                "pitch": 32,
                "velocity": 127,
                "duration": 0.1840909,
                "tempo": 120.0
            },
            {
                "start_time": 23.1522727,
                "end_time": 23.2272727,
                "pitch": 32,
                "velocity": 127,
                "duration": 0.075,
                "tempo": 120.0
            },
            {
                "start_time": 23.2659091,
                "end_time": 23.4159091,
                "pitch": 32,
                "velocity": 127,
                "duration": 0.15,
                "tempo": 120.0
            },
            {
                "start_time": 21.8318182,
                "end_time": 23.6,
                "pitch": 52,
                "velocity": 127,
                "duration": 1.7681818,
                "tempo": 120.0
            },
            {
                "start_time": 23.6,
                "end_time": 23.6704545,
                "pitch": 44,
                "velocity": 127,
                "duration": 0.0704545,
                "tempo": 120.0
            },
            {
                "start_time": 22.7090909,
                "end_time": 24.0340909,
                "pitch": 40,
                "velocity": 127,
                "duration": 1.325,
                "tempo": 120.0
            },
            {
                "start_time": 24.0340909,
                "end_time": 24.1068182,
                "pitch": 32,
                "velocity": 127,
                "duration": 0.0727273,
                "tempo": 120.0
            },
            {
                "start_time": 24.1454545,
                "end_time": 24.2909091,
                "pitch": 32,
                "velocity": 127,
                "duration": 0.1454545,
                "tempo": 120.0
            },
            {
                "start_time": 24.0340909,
                "end_time": 24.475,
                "pitch": 40,
                "velocity": 127,
                "duration": 0.4409091,
                "tempo": 120.0
            },
            {
                "start_time": 24.475,
                "end_time": 24.6227273,
                "pitch": 32,
                "velocity": 127,
                "duration": 0.1477273,
                "tempo": 120.0
            },
            {
                "start_time": 24.6977273,
                "end_time": 24.8818182,
                "pitch": 32,
                "velocity": 127,
                "duration": 0.1840909,
                "tempo": 120.0
            },
            {
                "start_time": 24.9204545,
                "end_time": 24.9954545,
                "pitch": 32,
                "velocity": 127,
                "duration": 0.075,
                "tempo": 120.0
            },
            {
                "start_time": 25.0318182,
                "end_time": 25.1818182,
                "pitch": 32,
                "velocity": 127,
                "duration": 0.15,
                "tempo": 120.0
            },
            {
                "start_time": 23.6,
                "end_time": 25.3659091,
                "pitch": 52,
                "velocity": 127,
                "duration": 1.7659091,
                "tempo": 120.0
            },
            {
                "start_time": 25.3659091,
                "end_time": 25.4386364,
                "pitch": 44,
                "velocity": 127,
                "duration": 0.0727273,
                "tempo": 120.0
            },
            {
                "start_time": 24.475,
                "end_time": 25.8022727,
                "pitch": 40,
                "velocity": 127,
                "duration": 1.3272727,
                "tempo": 120.0
            },
            {
                "start_time": 25.8022727,
                "end_time": 25.8772727,
                "pitch": 32,
                "velocity": 127,
                "duration": 0.075,
                "tempo": 120.0
            },
            {
                "start_time": 25.9159091,
                "end_time": 26.0659091,
                "pitch": 32,
                "velocity": 127,
                "duration": 0.15,
                "tempo": 120.0
            },
            {
                "start_time": 25.8022727,
                "end_time": 26.25,
                "pitch": 40,
                "velocity": 127,
                "duration": 0.4477273,
                "tempo": 120.0
            },
            {
                "start_time": 26.25,
                "end_time": 26.3931818,
                "pitch": 32,
                "velocity": 127,
                "duration": 0.1431818,
                "tempo": 120.0
            },
            {
                "start_time": 26.4659091,
                "end_time": 26.6477273,
                "pitch": 32,
                "velocity": 127,
                "duration": 0.1818182,
                "tempo": 120.0
            },
            {
                "start_time": 26.25,
                "end_time": 26.6477273,
                "pitch": 40,
                "velocity": 127,
                "duration": 0.3977273,
                "tempo": 120.0
            },
            {
                "start_time": 26.6477273,
                "end_time": 26.6863636,
                "pitch": 40,
                "velocity": 127,
                "duration": 0.0386364,
                "tempo": 120.0
            },
            {
                "start_time": 26.6863636,
                "end_time": 26.7613636,
                "pitch": 33,
                "velocity": 127,
                "duration": 0.075,
                "tempo": 120.0
            },
            {
                "start_time": 26.8,
                "end_time": 26.95,
                "pitch": 33,
                "velocity": 127,
                "duration": 0.15,
                "tempo": 120.0
            },
            {
                "start_time": 25.3659091,
                "end_time": 27.1340909,
                "pitch": 52,
                "velocity": 127,
                "duration": 1.7681818,
                "tempo": 120.0
            },
            {
                "start_time": 27.1340909,
                "end_time": 27.2045455,
                "pitch": 45,
                "velocity": 127,
                "duration": 0.0704545,
                "tempo": 120.0
            },
            {
                "start_time": 26.6863636,
                "end_time": 27.5704545,
                "pitch": 40,
                "velocity": 127,
                "duration": 0.8840909,
                "tempo": 120.0
            },
            {
                "start_time": 27.5704545,
                "end_time": 27.6454545,
                "pitch": 33,
                "velocity": 127,
                "duration": 0.075,
                "tempo": 120.0
            },
            {
                "start_time": 27.6840909,
                "end_time": 27.8340909,
                "pitch": 33,
                "velocity": 127,
                "duration": 0.15,
                "tempo": 120.0
            },
            {
                "start_time": 27.5704545,
                "end_time": 28.0159091,
                "pitch": 40,
                "velocity": 127,
                "duration": 0.4454545,
                "tempo": 120.0
            },
            {
                "start_time": 28.0159091,
                "end_time": 28.1613636,
                "pitch": 33,
                "velocity": 127,
                "duration": 0.1454545,
                "tempo": 120.0
            },
            {
                "start_time": 28.2318182,
                "end_time": 28.3045455,
                "pitch": 33,
                "velocity": 127,
                "duration": 0.0727273,
                "tempo": 120.0
            },
            {
                "start_time": 28.3409091,
                "end_time": 28.4159091,
                "pitch": 33,
                "velocity": 127,
                "duration": 0.075,
                "tempo": 120.0
            },
            {
                "start_time": 18.9431818,
                "end_time": 28.5295455,
                "pitch": 34,
                "velocity": 127,
                "duration": 9.5863636,
                "tempo": 120.0
            },
            {
                "start_time": 28.4545455,
                "end_time": 28.5295455,
                "pitch": 34,
                "velocity": 127,
                "duration": 0.075,
                "tempo": 120.0
            },
            {
                "start_time": 15.5295455,
                "end_time": 28.5659091,
                "pitch": 2,
                "velocity": 127,
                "duration": 13.0363636,
                "tempo": 120.0
            },
            {
                "start_time": 20.8318182,
                "end_time": 28.6409091,
                "pitch": 29,
                "velocity": 127,
                "duration": 7.8090909,
                "tempo": 120.0
            },
            {
                "start_time": 28.5659091,
                "end_time": 28.6409091,
                "pitch": 29,
                "velocity": 127,
                "duration": 0.075,
                "tempo": 120.0
            },
            {
                "start_time": 19.5045455,
                "end_time": 28.6795455,
                "pitch": 42,
                "velocity": 127,
                "duration": 9.175,
                "tempo": 120.0
            },
            {
                "start_time": 28.6795455,
                "end_time": 28.8272727,
                "pitch": 34,
                "velocity": 127,
                "duration": 0.1477273,
                "tempo": 120.0
            },
            {
                "start_time": 28.9,
                "end_time": 28.9727273,
                "pitch": 46,
                "velocity": 127,
                "duration": 0.0727273,
                "tempo": 120.0
            },
            {
                "start_time": 29.0090909,
                "end_time": 29.0795455,
                "pitch": 32,
                "velocity": 127,
                "duration": 0.0704545,
                "tempo": 120.0
            },
            {
                "start_time": 28.6795455,
                "end_time": 29.225,
                "pitch": 42,
                "velocity": 127,
                "duration": 0.5454545,
                "tempo": 120.0
            },
            {
                "start_time": 29.0090909,
                "end_time": 29.2977273,
                "pitch": 34,
                "velocity": 127,
                "duration": 0.2886364,
                "tempo": 120.0
            },
            {
                "start_time": 29.225,
                "end_time": 29.2977273,
                "pitch": 34,
                "velocity": 127,
                "duration": 0.0727273,
                "tempo": 120.0
            },
            {
                "start_time": 28.5659091,
                "end_time": 29.3340909,
                "pitch": 2,
                "velocity": 127,
                "duration": 0.7681818,
                "tempo": 120.0
            },
            {
                "start_time": 29.3340909,
                "end_time": 29.4818182,
                "pitch": 29,
                "velocity": 127,
                "duration": 0.1477273,
                "tempo": 120.0
            },
            {
                "start_time": 29.225,
                "end_time": 29.5568182,
                "pitch": 42,
                "velocity": 127,
                "duration": 0.3318182,
                "tempo": 120.0
            },
            {
                "start_time": 29.5568182,
                "end_time": 29.7022727,
                "pitch": 34,
                "velocity": 127,
                "duration": 0.1454545,
                "tempo": 120.0
            },
            {
                "start_time": 29.3340909,
                "end_time": 29.7772727,
                "pitch": 2,
                "velocity": 127,
                "duration": 0.4431818,
                "tempo": 120.0
            },
            {
                "start_time": 29.7772727,
                "end_time": 29.85,
                "pitch": 25,
                "velocity": 127,
                "duration": 0.0727273,
                "tempo": 120.0
            },
            {
                "start_time": 29.8863636,
                "end_time": 29.9613636,
                "pitch": 29,
                "velocity": 127,
                "duration": 0.075,
                "tempo": 120.0
            },
            {
                "start_time": 29.5568182,
                "end_time": 29.9977273,
                "pitch": 42,
                "velocity": 127,
                "duration": 0.4409091,
                "tempo": 120.0
            },
            {
                "start_time": 29.9977273,
                "end_time": 30.0704545,
                "pitch": 34,
                "velocity": 127,
                "duration": 0.0727273,
                "tempo": 120.0
            },
            {
                "start_time": 30.1090909,
                "end_time": 30.1818182,
                "pitch": 34,
                "velocity": 127,
                "duration": 0.0727273,
                "tempo": 120.0
            },
            {
                "start_time": 30.2181818,
                "end_time": 30.2909091,
                "pitch": 34,
                "velocity": 127,
                "duration": 0.0727273,
                "tempo": 120.0
            },
            {
                "start_time": 29.7772727,
                "end_time": 30.3295455,
                "pitch": 2,
                "velocity": 127,
                "duration": 0.5522727,
                "tempo": 120.0
            },
            {
                "start_time": 30.3295455,
                "end_time": 30.4022727,
                "pitch": 29,
                "velocity": 127,
                "duration": 0.0727273,
                "tempo": 120.0
            },
            {
                "start_time": 29.9977273,
                "end_time": 30.4386364,
                "pitch": 42,
                "velocity": 127,
                "duration": 0.4409091,
                "tempo": 120.0
            },
            {
                "start_time": 30.4386364,
                "end_time": 30.5863636,
                "pitch": 34,
                "velocity": 127,
                "duration": 0.1477273,
                "tempo": 120.0
            },
            {
                "start_time": 30.6636364,
                "end_time": 30.7386364,
                "pitch": 46,
                "velocity": 127,
                "duration": 0.075,
                "tempo": 120.0
            },
            {
                "start_time": 30.775,
                "end_time": 30.85,
                "pitch": 32,
                "velocity": 127,
                "duration": 0.075,
                "tempo": 120.0
            },
            {
                "start_time": 30.4386364,
                "end_time": 31.0022727,
                "pitch": 42,
                "velocity": 127,
                "duration": 0.5636364,
                "tempo": 120.0
            },
            {
                "start_time": 30.775,
                "end_time": 31.075,
                "pitch": 34,
                "velocity": 127,
                "duration": 0.3,
                "tempo": 120.0
            },
            {
                "start_time": 31.0022727,
                "end_time": 31.075,
                "pitch": 34,
                "velocity": 127,
                "duration": 0.0727273,
                "tempo": 120.0
            },
            {
                "start_time": 30.3295455,
                "end_time": 31.1113636,
                "pitch": 2,
                "velocity": 127,
                "duration": 0.7818182,
                "tempo": 120.0
            },
            {
                "start_time": 31.1113636,
                "end_time": 31.2590909,
                "pitch": 29,
                "velocity": 127,
                "duration": 0.1477273,
                "tempo": 120.0
            },
            {
                "start_time": 31.0022727,
                "end_time": 31.3318182,
                "pitch": 42,
                "velocity": 127,
                "duration": 0.3295455,
                "tempo": 120.0
            },
            {
                "start_time": 31.3318182,
                "end_time": 31.4795455,
                "pitch": 34,
                "velocity": 127,
                "duration": 0.1477273,
                "tempo": 120.0
            },
            {
                "start_time": 31.1113636,
                "end_time": 31.5545455,
                "pitch": 2,
                "velocity": 127,
                "duration": 0.4431818,
                "tempo": 120.0
            },
            {
                "start_time": 29.8863636,
                "end_time": 31.6272727,
                "pitch": 25,
                "velocity": 127,
                "duration": 1.7409091,
                "tempo": 120.0
            },
            {
                "start_time": 31.5545455,
                "end_time": 31.6272727,
                "pitch": 25,
                "velocity": 127,
                "duration": 0.0727273,
                "tempo": 120.0
            },
            {
                "start_time": 31.6636364,
                "end_time": 31.7363636,
                "pitch": 29,
                "velocity": 127,
                "duration": 0.0727273,
                "tempo": 120.0
            },
            {
                "start_time": 31.3318182,
                "end_time": 31.775,
                "pitch": 42,
                "velocity": 127,
                "duration": 0.4431818,
                "tempo": 120.0
            },
            {
                "start_time": 31.775,
                "end_time": 31.8477273,
                "pitch": 34,
                "velocity": 127,
                "duration": 0.0727273,
                "tempo": 120.0
            },
            {
                "start_time": 31.8840909,
                "end_time": 31.9590909,
                "pitch": 34,
                "velocity": 127,
                "duration": 0.075,
                "tempo": 120.0
            },
            {
                "start_time": 31.9954545,
                "end_time": 32.0681818,
                "pitch": 35,
                "velocity": 127,
                "duration": 0.0727273,
                "tempo": 120.0
            },
            {
                "start_time": 32.1068182,
                "end_time": 32.1795455,
                "pitch": 30,
                "velocity": 127,
                "duration": 0.0727273,
                "tempo": 120.0
            },
            {
                "start_time": 31.775,
                "end_time": 32.2159091,
                "pitch": 42,
                "velocity": 127,
                "duration": 0.4409091,
                "tempo": 120.0
            },
            {
                "start_time": 32.2159091,
                "end_time": 32.3636364,
                "pitch": 35,
                "velocity": 127,
                "duration": 0.1477273,
                "tempo": 120.0
            },
            {
                "start_time": 32.1068182,
                "end_time": 32.4363636,
                "pitch": 7,
                "velocity": 127,
                "duration": 0.3295455,
                "tempo": 120.0
            },
            {
                "start_time": 32.4363636,
                "end_time": 32.5113636,
                "pitch": 26,
                "velocity": 127,
                "duration": 0.075,
                "tempo": 120.0
            },
            {
                "start_time": 21.1613636,
                "end_time": 32.5477273,
                "pitch": 41,
                "velocity": 127,
                "duration": 11.3863636,
                "tempo": 120.0
            },
            {
                "start_time": 32.5477273,
                "end_time": 32.6204545,
                "pitch": 33,
                "velocity": 127,
                "duration": 0.0727273,
                "tempo": 120.0
            },
            {
                "start_time": 32.2159091,
                "end_time": 32.7681818,
                "pitch": 42,
                "velocity": 127,
                "duration": 0.5522727,
                "tempo": 120.0
            },
            {
                "start_time": 32.7681818,
                "end_time": 32.8409091,
                "pitch": 35,
                "velocity": 127,
                "duration": 0.0727273,
                "tempo": 120.0
            },
            {
                "start_time": 32.4363636,
                "end_time": 32.8795455,
                "pitch": 7,
                "velocity": 127,
                "duration": 0.4431818,
                "tempo": 120.0
            },
            {
                "start_time": 32.8795455,
                "end_time": 33.025,
                "pitch": 30,
                "velocity": 127,
                "duration": 0.1454545,
                "tempo": 120.0
            },
            {
                "start_time": 32.7681818,
                "end_time": 33.1,
                "pitch": 42,
                "velocity": 127,
                "duration": 0.3318182,
                "tempo": 120.0
            },
            {
                "start_time": 33.1,
                "end_time": 33.2477273,
                "pitch": 35,
                "velocity": 127,
                "duration": 0.1477273,
                "tempo": 120.0
            },
            {
                "start_time": 32.8795455,
                "end_time": 33.3204545,
                "pitch": 7,
                "velocity": 127,
                "duration": 0.4409091,
                "tempo": 120.0
            },
            {
                "start_time": 33.3204545,
                "end_time": 33.3931818,
                "pitch": 26,
                "velocity": 127,
                "duration": 0.0727273,
                "tempo": 120.0
            },
            {
                "start_time": 33.4318182,
                "end_time": 33.5045455,
                "pitch": 30,
                "velocity": 127,
                "duration": 0.0727273,
                "tempo": 120.0
            },
            {
                "start_time": 33.1,
                "end_time": 33.5409091,
                "pitch": 42,
                "velocity": 127,
                "duration": 0.4409091,
                "tempo": 120.0
            },
            {
                "start_time": 33.5409091,
                "end_time": 33.6159091,
                "pitch": 35,
                "velocity": 127,
                "duration": 0.075,
                "tempo": 120.0
            },
            {
                "start_time": 33.6522727,
                "end_time": 33.725,
                "pitch": 35,
                "velocity": 127,
                "duration": 0.0727273,
                "tempo": 120.0
            },
            {
                "start_time": 33.7613636,
                "end_time": 33.8363636,
                "pitch": 35,
                "velocity": 127,
                "duration": 0.075,
                "tempo": 120.0
            },
            {
                "start_time": 33.3204545,
                "end_time": 33.8727273,
                "pitch": 7,
                "velocity": 127,
                "duration": 0.5522727,
                "tempo": 120.0
            },
            {
                "start_time": 33.8727273,
                "end_time": 33.9454545,
                "pitch": 30,
                "velocity": 127,
                "duration": 0.0727273,
                "tempo": 120.0
            },
            {
                "start_time": 33.5409091,
                "end_time": 33.9840909,
                "pitch": 42,
                "velocity": 127,
                "duration": 0.4431818,
                "tempo": 120.0
            },
            {
                "start_time": 33.9840909,
                "end_time": 34.1295455,
                "pitch": 35,
                "velocity": 127,
                "duration": 0.1454545,
                "tempo": 120.0
            },
            {
                "start_time": 33.8727273,
                "end_time": 34.2045455,
                "pitch": 7,
                "velocity": 127,
                "duration": 0.3318182,
                "tempo": 120.0
            },
            {
                "start_time": 33.4318182,
                "end_time": 34.2772727,
                "pitch": 26,
                "velocity": 127,
                "duration": 0.8454545,
                "tempo": 120.0
            },
            {
                "start_time": 34.2045455,
                "end_time": 34.2772727,
                "pitch": 26,
                "velocity": 127,
                "duration": 0.0727273,
                "tempo": 120.0
            },
            {
                "start_time": 32.5477273,
                "end_time": 34.3136364,
                "pitch": 41,
                "velocity": 127,
                "duration": 1.7659091,
                "tempo": 120.0
            },
            {
                "start_time": 34.3136364,
                "end_time": 34.3886364,
                "pitch": 33,
                "velocity": 127,
                "duration": 0.075,
                "tempo": 120.0
            },
            {
                "start_time": 33.9840909,
                "end_time": 34.5363636,
                "pitch": 42,
                "velocity": 127,
                "duration": 0.5522727,
                "tempo": 120.0
            },
            {
                "start_time": 34.5363636,
                "end_time": 34.6090909,
                "pitch": 35,
                "velocity": 127,
                "duration": 0.0727273,
                "tempo": 120.0
            },
            {
                "start_time": 34.2045455,
                "end_time": 34.6454545,
                "pitch": 7,
                "velocity": 127,
                "duration": 0.4409091,
                "tempo": 120.0
            },
            {
                "start_time": 34.6454545,
                "end_time": 34.7931818,
                "pitch": 30,
                "velocity": 127,
                "duration": 0.1477273,
                "tempo": 120.0
            },
            {
                "start_time": 34.5363636,
                "end_time": 34.8659091,
                "pitch": 42,
                "velocity": 127,
                "duration": 0.3295455,
                "tempo": 120.0
            },
            {
                "start_time": 34.8659091,
                "end_time": 35.0136364,
                "pitch": 35,
                "velocity": 127,
                "duration": 0.1477273,
                "tempo": 120.0
            },
            {
                "start_time": 34.6454545,
                "end_time": 35.0886364,
                "pitch": 7,
                "velocity": 127,
                "duration": 0.4431818,
                "tempo": 120.0
            },
            {
                "start_time": 35.0863636,
                "end_time": 35.0886364,
                "pitch": 7,
                "velocity": 127,
                "duration": 0.0022727,
                "tempo": 120.0
            },
            {
                "start_time": 35.0886364,
                "end_time": 35.1613636,
                "pitch": 26,
                "velocity": 127,
                "duration": 0.0727273,
                "tempo": 120.0
            },
            {
                "start_time": 35.1977273,
                "end_time": 35.2704545,
                "pitch": 30,
                "velocity": 127,
                "duration": 0.0727273,
                "tempo": 120.0
            },
            {
                "start_time": 34.8659091,
                "end_time": 35.3090909,
                "pitch": 42,
                "velocity": 127,
                "duration": 0.4431818,
                "tempo": 120.0
            },
            {
                "start_time": 35.3090909,
                "end_time": 35.3818182,
                "pitch": 35,
                "velocity": 127,
                "duration": 0.0727273,
                "tempo": 120.0
            },
            {
                "start_time": 18.6113636,
                "end_time": 35.5681818,
                "pitch": 39,
                "velocity": 127,
                "duration": 16.9568182,
                "tempo": 120.0
            },
            {
                "start_time": 35.4181818,
                "end_time": 35.5681818,
                "pitch": 39,
                "velocity": 127,
                "duration": 0.15,
                "tempo": 120.0
            },
            {
                "start_time": 35.6454545,
                "end_time": 35.7204545,
                "pitch": 39,
                "velocity": 127,
                "duration": 0.075,
                "tempo": 120.0
            },
            {
                "start_time": 35.7568182,
                "end_time": 35.9068182,
                "pitch": 39,
                "velocity": 127,
                "duration": 0.15,
                "tempo": 120.0
            },
            {
                "start_time": 35.9772727,
                "end_time": 36.1227273,
                "pitch": 39,
                "velocity": 127,
                "duration": 0.1454545,
                "tempo": 120.0
            },
            {
                "start_time": 36.1954545,
                "end_time": 36.3386364,
                "pitch": 39,
                "velocity": 127,
                "duration": 0.1431818,
                "tempo": 120.0
            },
            {
                "start_time": 36.4136364,
                "end_time": 36.5590909,
                "pitch": 39,
                "velocity": 127,
                "duration": 0.1454545,
                "tempo": 120.0
            },
            {
                "start_time": 36.6340909,
                "end_time": 36.7818182,
                "pitch": 39,
                "velocity": 127,
                "duration": 0.1477273,
                "tempo": 120.0
            },
            {
                "start_time": 36.8545455,
                "end_time": 36.9272727,
                "pitch": 39,
                "velocity": 127,
                "duration": 0.0727273,
                "tempo": 120.0
            },
            {
                "start_time": 36.9659091,
                "end_time": 37.0386364,
                "pitch": 39,
                "velocity": 127,
                "duration": 0.0727273,
                "tempo": 120.0
            },
            {
                "start_time": 37.075,
                "end_time": 37.15,
                "pitch": 39,
                "velocity": 127,
                "duration": 0.075,
                "tempo": 120.0
            },
            {
                "start_time": 37.1863636,
                "end_time": 37.3363636,
                "pitch": 39,
                "velocity": 127,
                "duration": 0.15,
                "tempo": 120.0
            },
            {
                "start_time": 37.4113636,
                "end_time": 37.4863636,
                "pitch": 39,
                "velocity": 127,
                "duration": 0.075,
                "tempo": 120.0
            },
            {
                "start_time": 37.525,
                "end_time": 37.6727273,
                "pitch": 39,
                "velocity": 127,
                "duration": 0.1477273,
                "tempo": 120.0
            },
            {
                "start_time": 37.7454545,
                "end_time": 37.8886364,
                "pitch": 39,
                "velocity": 127,
                "duration": 0.1431818,
                "tempo": 120.0
            },
            {
                "start_time": 37.9613636,
                "end_time": 38.1068182,
                "pitch": 39,
                "velocity": 127,
                "duration": 0.1454545,
                "tempo": 120.0
            },
            {
                "start_time": 38.1818182,
                "end_time": 38.3318182,
                "pitch": 39,
                "velocity": 127,
                "duration": 0.15,
                "tempo": 120.0
            },
            {
                "start_time": 38.4090909,
                "end_time": 38.5568182,
                "pitch": 39,
                "velocity": 127,
                "duration": 0.1477273,
                "tempo": 120.0
            },
            {
                "start_time": 38.6295455,
                "end_time": 38.7,
                "pitch": 39,
                "velocity": 127,
                "duration": 0.0704545,
                "tempo": 120.0
            },
            {
                "start_time": 38.7363636,
                "end_time": 38.8090909,
                "pitch": 39,
                "velocity": 127,
                "duration": 0.0727273,
                "tempo": 120.0
            },
            {
                "start_time": 38.8454545,
                "end_time": 38.9159091,
                "pitch": 39,
                "velocity": 127,
                "duration": 0.0704545,
                "tempo": 120.0
            },
            {
                "start_time": 34.3136364,
                "end_time": 38.9522727,
                "pitch": 41,
                "velocity": 127,
                "duration": 4.6386364,
                "tempo": 120.0
            },
            {
                "start_time": 38.9522727,
                "end_time": 39.0295455,
                "pitch": 32,
                "velocity": 127,
                "duration": 0.0772727,
                "tempo": 120.0
            },
            {
                "start_time": 39.0681818,
                "end_time": 39.1431818,
                "pitch": 32,
                "velocity": 127,
                "duration": 0.075,
                "tempo": 120.0
            },
            {
                "start_time": 39.2977273,
                "end_time": 39.45,
                "pitch": 30,
                "velocity": 127,
                "duration": 0.1522727,
                "tempo": 120.0
            },
            {
                "start_time": 39.2977273,
                "end_time": 39.5931818,
                "pitch": 27,
                "velocity": 127,
                "duration": 0.2954545,
                "tempo": 120.0
            },
            {
                "start_time": 39.5227273,
                "end_time": 39.5931818,
                "pitch": 27,
                "velocity": 127,
                "duration": 0.0704545,
                "tempo": 120.0
            },
            {
                "start_time": 39.5227273,
                "end_time": 39.7022727,
                "pitch": 30,
                "velocity": 127,
                "duration": 0.1795455,
                "tempo": 120.0
            },
            {
                "start_time": 39.6295455,
                "end_time": 39.7022727,
                "pitch": 30,
                "velocity": 127,
                "duration": 0.0727273,
                "tempo": 120.0
            },
            {
                "start_time": 39.6295455,
                "end_time": 39.8113636,
                "pitch": 27,
                "velocity": 127,
                "duration": 0.1818182,
                "tempo": 120.0
            },
            {
                "start_time": 39.7386364,
                "end_time": 39.8113636,
                "pitch": 27,
                "velocity": 127,
                "duration": 0.0727273,
                "tempo": 120.0
            },
            {
                "start_time": 38.9522727,
                "end_time": 39.8477273,
                "pitch": 41,
                "velocity": 127,
                "duration": 0.8954545,
                "tempo": 120.0
            },
            {
                "start_time": 39.8477273,
                "end_time": 39.9204545,
                "pitch": 32,
                "velocity": 127,
                "duration": 0.0727273,
                "tempo": 120.0
            },
            {
                "start_time": 39.9568182,
                "end_time": 40.0295455,
                "pitch": 32,
                "velocity": 127,
                "duration": 0.0727273,
                "tempo": 120.0
            },
            {
                "start_time": 39.7386364,
                "end_time": 40.325,
                "pitch": 30,
                "velocity": 127,
                "duration": 0.5863636,
                "tempo": 120.0
            },
            {
                "start_time": 40.1772727,
                "end_time": 40.325,
                "pitch": 30,
                "velocity": 127,
                "duration": 0.1477273,
                "tempo": 120.0
            },
            {
                "start_time": 40.1772727,
                "end_time": 40.4681818,
                "pitch": 27,
                "velocity": 127,
                "duration": 0.2909091,
                "tempo": 120.0
            },
            {
                "start_time": 40.3954545,
                "end_time": 40.4681818,
                "pitch": 27,
                "velocity": 127,
                "duration": 0.0727273,
                "tempo": 120.0
            },
            {
                "start_time": 40.3954545,
                "end_time": 40.575,
                "pitch": 30,
                "velocity": 127,
                "duration": 0.1795455,
                "tempo": 120.0
            },
            {
                "start_time": 40.5045455,
                "end_time": 40.575,
                "pitch": 30,
                "velocity": 127,
                "duration": 0.0704545,
                "tempo": 120.0
            },
            {
                "start_time": 35.3090909,
                "end_time": 40.6113636,
                "pitch": 42,
                "velocity": 127,
                "duration": 5.3022727,
                "tempo": 120.0
            },
            {
                "start_time": 40.6113636,
                "end_time": 40.6840909,
                "pitch": 31,
                "velocity": 127,
                "duration": 0.0727273,
                "tempo": 120.0
            },
            {
                "start_time": 40.7204545,
                "end_time": 40.7954545,
                "pitch": 31,
                "velocity": 127,
                "duration": 0.075,
                "tempo": 120.0
            },
            {
                "start_time": 40.8340909,
                "end_time": 40.9090909,
                "pitch": 31,
                "velocity": 127,
                "duration": 0.075,
                "tempo": 120.0
            },
            {
                "start_time": 40.9454545,
                "end_time": 41.0204545,
                "pitch": 43,
                "velocity": 127,
                "duration": 0.075,
                "tempo": 120.0
            },
            {
                "start_time": 41.0590909,
                "end_time": 41.2090909,
                "pitch": 31,
                "velocity": 127,
                "duration": 0.15,
                "tempo": 120.0
            },
            {
                "start_time": 41.2818182,
                "end_time": 41.3568182,
                "pitch": 31,
                "velocity": 127,
                "duration": 0.075,
                "tempo": 120.0
            },
            {
                "start_time": 41.3931818,
                "end_time": 41.4659091,
                "pitch": 43,
                "velocity": 127,
                "duration": 0.0727273,
                "tempo": 120.0
            },
            {
                "start_time": 41.5022727,
                "end_time": 41.5772727,
                "pitch": 31,
                "velocity": 127,
                "duration": 0.075,
                "tempo": 120.0
            },
            {
                "start_time": 19.9477273,
                "end_time": 41.6136364,
                "pitch": 0,
                "velocity": 127,
                "duration": 21.6659091,
                "tempo": 120.0
            },
            {
                "start_time": 41.6136364,
                "end_time": 41.6863636,
                "pitch": 29,
                "velocity": 127,
                "duration": 0.0727273,
                "tempo": 120.0
            },
            {
                "start_time": 40.6113636,
                "end_time": 41.725,
                "pitch": 42,
                "velocity": 127,
                "duration": 1.1136364,
                "tempo": 120.0
            },
            {
                "start_time": 41.725,
                "end_time": 41.8704545,
                "pitch": 34,
                "velocity": 127,
                "duration": 0.1454545,
                "tempo": 120.0
            },
            {
                "start_time": 41.9454545,
                "end_time": 42.0181818,
                "pitch": 34,
                "velocity": 127,
                "duration": 0.0727273,
                "tempo": 120.0
            },
            {
                "start_time": 31.5545455,
                "end_time": 42.0545455,
                "pitch": 2,
                "velocity": 127,
                "duration": 10.5,
                "tempo": 120.0
            },
            {
                "start_time": 42.0545455,
                "end_time": 42.1295455,
                "pitch": 28,
                "velocity": 127,
                "duration": 0.075,
                "tempo": 120.0
            },
            {
                "start_time": 42.1659091,
                "end_time": 42.2386364,
                "pitch": 28,
                "velocity": 127,
                "duration": 0.0727273,
                "tempo": 120.0
            },
            {
                "start_time": 41.725,
                "end_time": 42.2772727,
                "pitch": 42,
                "velocity": 127,
                "duration": 0.5522727,
                "tempo": 120.0
            },
            {
                "start_time": 42.2772727,
                "end_time": 42.35,
                "pitch": 31,
                "velocity": 127,
                "duration": 0.0727273,
                "tempo": 120.0
            },
            {
                "start_time": 42.3863636,
                "end_time": 42.4590909,
                "pitch": 34,
                "velocity": 127,
                "duration": 0.0727273,
                "tempo": 120.0
            },
            {
                "start_time": 42.4977273,
                "end_time": 42.5704545,
                "pitch": 36,
                "velocity": 127,
                "duration": 0.0727273,
                "tempo": 120.0
            },
            {
                "start_time": 42.6068182,
                "end_time": 42.6818182,
                "pitch": 36,
                "velocity": 127,
                "duration": 0.075,
                "tempo": 120.0
            },
            {
                "start_time": 28.0159091,
                "end_time": 42.7181818,
                "pitch": 40,
                "velocity": 127,
                "duration": 14.7022727,
                "tempo": 120.0
            },
            {
                "start_time": 42.3863636,
                "end_time": 42.7909091,
                "pitch": 31,
                "velocity": 127,
                "duration": 0.4045455,
                "tempo": 120.0
            },
            {
                "start_time": 42.7181818,
                "end_time": 42.7909091,
                "pitch": 31,
                "velocity": 127,
                "duration": 0.0727273,
                "tempo": 120.0
            },
            {
                "start_time": 41.6136364,
                "end_time": 42.8295455,
                "pitch": 0,
                "velocity": 127,
                "duration": 1.2159091,
                "tempo": 120.0
            },
            {
                "start_time": 42.8295455,
                "end_time": 42.975,
                "pitch": 36,
                "velocity": 127,
                "duration": 0.1454545,
                "tempo": 120.0
            },
            {
                "start_time": 43.05,
                "end_time": 43.1227273,
                "pitch": 36,
                "velocity": 127,
                "duration": 0.0727273,
                "tempo": 120.0
            },
            {
                "start_time": 42.7181818,
                "end_time": 43.1590909,
                "pitch": 40,
                "velocity": 127,
                "duration": 0.4409091,
                "tempo": 120.0
            },
            {
                "start_time": 43.1590909,
                "end_time": 43.2340909,
                "pitch": 31,
                "velocity": 127,
                "duration": 0.075,
                "tempo": 120.0
            },
            {
                "start_time": 42.8295455,
                "end_time": 43.2704545,
                "pitch": 0,
                "velocity": 127,
                "duration": 0.4409091,
                "tempo": 120.0
            },
            {
                "start_time": 40.5045455,
                "end_time": 43.3431818,
                "pitch": 27,
                "velocity": 127,
                "duration": 2.8386364,
                "tempo": 120.0
            },
            {
                "start_time": 43.2704545,
                "end_time": 43.3431818,
                "pitch": 27,
                "velocity": 127,
                "duration": 0.0727273,
                "tempo": 120.0
            },
            {
                "start_time": 43.3818182,
                "end_time": 43.4545455,
                "pitch": 36,
                "velocity": 127,
                "duration": 0.0727273,
                "tempo": 120.0
            },
            {
                "start_time": 43.4909091,
                "end_time": 43.5636364,
                "pitch": 36,
                "velocity": 127,
                "duration": 0.0727273,
                "tempo": 120.0
            },
            {
                "start_time": 43.1590909,
                "end_time": 43.6022727,
                "pitch": 40,
                "velocity": 127,
                "duration": 0.4431818,
                "tempo": 120.0
            },
            {
                "start_time": 43.6022727,
                "end_time": 43.675,
                "pitch": 31,
                "velocity": 127,
                "duration": 0.0727273,
                "tempo": 120.0
            },
            {
                "start_time": 43.2704545,
                "end_time": 43.7113636,
                "pitch": 0,
                "velocity": 127,
                "duration": 0.4409091,
                "tempo": 120.0
            },
            {
                "start_time": 43.7113636,
                "end_time": 43.8590909,
                "pitch": 36,
                "velocity": 127,
                "duration": 0.1477273,
                "tempo": 120.0
            },
            {
                "start_time": 43.9318182,
                "end_time": 44.0068182,
                "pitch": 36,
                "velocity": 127,
                "duration": 0.075,
                "tempo": 120.0
            },
            {
                "start_time": 43.6022727,
                "end_time": 44.0431818,
                "pitch": 40,
                "velocity": 127,
                "duration": 0.4409091,
                "tempo": 120.0
            },
            {
                "start_time": 44.0431818,
                "end_time": 44.1159091,
                "pitch": 31,
                "velocity": 127,
                "duration": 0.0727273,
                "tempo": 120.0
            },
            {
                "start_time": 44.1545455,
                "end_time": 44.2272727,
                "pitch": 34,
                "velocity": 127,
                "duration": 0.0727273,
                "tempo": 120.0
            },
            {
                "start_time": 42.4977273,
                "end_time": 44.2636364,
                "pitch": 14,
                "velocity": 127,
                "duration": 1.7659091,
                "tempo": 120.0
            },
            {
                "start_time": 44.2636364,
                "end_time": 44.3386364,
                "pitch": 36,
                "velocity": 127,
                "duration": 0.075,
                "tempo": 120.0
            },
            {
                "start_time": 44.3772727,
                "end_time": 44.4522727,
                "pitch": 36,
                "velocity": 127,
                "duration": 0.075,
                "tempo": 120.0
            },
            {
                "start_time": 44.0431818,
                "end_time": 44.4909091,
                "pitch": 40,
                "velocity": 127,
                "duration": 0.4477273,
                "tempo": 120.0
            },
            {
                "start_time": 44.1545455,
                "end_time": 44.5659091,
                "pitch": 31,
                "velocity": 127,
                "duration": 0.4113636,
                "tempo": 120.0
            },
            {
                "start_time": 44.4909091,
                "end_time": 44.5659091,
                "pitch": 31,
                "velocity": 127,
                "duration": 0.075,
                "tempo": 120.0
            },
            {
                "start_time": 43.7113636,
                "end_time": 44.6022727,
                "pitch": 0,
                "velocity": 127,
                "duration": 0.8909091,
                "tempo": 120.0
            },
            {
                "start_time": 44.6022727,
                "end_time": 44.7522727,
                "pitch": 36,
                "velocity": 127,
                "duration": 0.15,
                "tempo": 120.0
            },
            {
                "start_time": 44.8227273,
                "end_time": 44.8954545,
                "pitch": 36,
                "velocity": 127,
                "duration": 0.0727273,
                "tempo": 120.0
            },
            {
                "start_time": 44.4909091,
                "end_time": 44.9318182,
                "pitch": 40,
                "velocity": 127,
                "duration": 0.4409091,
                "tempo": 120.0
            },
            {
                "start_time": 44.9318182,
                "end_time": 45.0045455,
                "pitch": 31,
                "velocity": 127,
                "duration": 0.0727273,
                "tempo": 120.0
            },
            {
                "start_time": 44.6022727,
                "end_time": 45.0409091,
                "pitch": 0,
                "velocity": 127,
                "duration": 0.4386364,
                "tempo": 120.0
            },
            {
                "start_time": 45.0386364,
                "end_time": 45.0409091,
                "pitch": 0,
                "velocity": 127,
                "duration": 0.0022727,
                "tempo": 120.0
            },
            {
                "start_time": 45.0409091,
                "end_time": 45.1113636,
                "pitch": 27,
                "velocity": 127,
                "duration": 0.0704545,
                "tempo": 120.0
            },
            {
                "start_time": 43.3818182,
                "end_time": 45.1477273,
                "pitch": 39,
                "velocity": 127,
                "duration": 1.7659091,
                "tempo": 120.0
            },
            {
                "start_time": 45.1477273,
                "end_time": 45.2227273,
                "pitch": 36,
                "velocity": 127,
                "duration": 0.075,
                "tempo": 120.0
            },
            {
                "start_time": 45.2613636,
                "end_time": 45.3363636,
                "pitch": 36,
                "velocity": 127,
                "duration": 0.075,
                "tempo": 120.0
            },
            {
                "start_time": 44.9318182,
                "end_time": 45.3727273,
                "pitch": 40,
                "velocity": 127,
                "duration": 0.4409091,
                "tempo": 120.0
            },
            {
                "start_time": 45.3727273,
                "end_time": 45.4477273,
                "pitch": 31,
                "velocity": 127,
                "duration": 0.075,
                "tempo": 120.0
            },
            {
                "start_time": 45.4863636,
                "end_time": 45.6340909,
                "pitch": 36,
                "velocity": 127,
                "duration": 0.1477273,
                "tempo": 120.0
            },
            {
                "start_time": 45.7068182,
                "end_time": 45.7795455,
                "pitch": 36,
                "velocity": 127,
                "duration": 0.0727273,
                "tempo": 120.0
            },
            {
                "start_time": 45.3727273,
                "end_time": 45.8159091,
                "pitch": 40,
                "velocity": 127,
                "duration": 0.4431818,
                "tempo": 120.0
            },
            {
                "start_time": 45.8159091,
                "end_time": 45.8863636,
                "pitch": 31,
                "velocity": 127,
                "duration": 0.0704545,
                "tempo": 120.0
            },
            {
                "start_time": 45.9227273,
                "end_time": 45.9954545,
                "pitch": 34,
                "velocity": 127,
                "duration": 0.0727273,
                "tempo": 120.0
            },
            {
                "start_time": 44.2636364,
                "end_time": 46.0318182,
                "pitch": 14,
                "velocity": 127,
                "duration": 1.7681818,
                "tempo": 120.0
            },
            {
                "start_time": 46.0318182,
                "end_time": 46.1068182,
                "pitch": 37,
                "velocity": 127,
                "duration": 0.075,
                "tempo": 120.0
            },
            {
                "start_time": 46.1431818,
                "end_time": 46.2181818,
                "pitch": 37,
                "velocity": 127,
                "duration": 0.075,
                "tempo": 120.0
            },
            {
                "start_time": 45.8159091,
                "end_time": 46.2568182,
                "pitch": 40,
                "velocity": 127,
                "duration": 0.4409091,
                "tempo": 120.0
            },
            {
                "start_time": 46.2568182,
                "end_time": 46.3318182,
                "pitch": 32,
                "velocity": 127,
                "duration": 0.075,
                "tempo": 120.0
            },
            {
                "start_time": 46.5909091,
                "end_time": 46.6613636,
                "pitch": 37,
                "velocity": 127,
                "duration": 0.0704545,
                "tempo": 120.0
            },
            {
                "start_time": 46.2568182,
                "end_time": 46.6977273,
                "pitch": 40,
                "velocity": 127,
                "duration": 0.4409091,
                "tempo": 120.0
            },
            {
                "start_time": 46.6977273,
                "end_time": 46.7704545,
                "pitch": 32,
                "velocity": 127,
                "duration": 0.0727273,
                "tempo": 120.0
            },
            {
                "start_time": 39.8477273,
                "end_time": 46.9159091,
                "pitch": 41,
                "velocity": 127,
                "duration": 7.0681818,
                "tempo": 120.0
            },
            {
                "start_time": 46.9159091,
                "end_time": 46.9886364,
                "pitch": 37,
                "velocity": 127,
                "duration": 0.0727273,
                "tempo": 120.0
            },
            {
                "start_time": 47.0272727,
                "end_time": 47.1022727,
                "pitch": 37,
                "velocity": 127,
                "duration": 0.075,
                "tempo": 120.0
            },
            {
                "start_time": 46.6977273,
                "end_time": 47.1409091,
                "pitch": 40,
                "velocity": 127,
                "duration": 0.4431818,
                "tempo": 120.0
            },
            {
                "start_time": 47.1409091,
                "end_time": 47.2159091,
                "pitch": 32,
                "velocity": 127,
                "duration": 0.075,
                "tempo": 120.0
            },
            {
                "start_time": 47.4772727,
                "end_time": 47.55,
                "pitch": 37,
                "velocity": 127,
                "duration": 0.0727273,
                "tempo": 120.0
            },
            {
                "start_time": 31.6636364,
                "end_time": 47.5863636,
                "pitch": 25,
                "velocity": 127,
                "duration": 15.9227273,
                "tempo": 120.0
            },
            {
                "start_time": 47.5863636,
                "end_time": 47.6613636,
                "pitch": 29,
                "velocity": 127,
                "duration": 0.075,
                "tempo": 120.0
            },
            {
                "start_time": 42.2772727,
                "end_time": 47.6977273,
                "pitch": 42,
                "velocity": 127,
                "duration": 5.4204545,
                "tempo": 120.0
            },
            {
                "start_time": 47.6977273,
                "end_time": 47.7704545,
                "pitch": 35,
                "velocity": 127,
                "duration": 0.0727273,
                "tempo": 120.0
            },
            {
                "start_time": 35.4181818,
                "end_time": 47.8090909,
                "pitch": 19,
                "velocity": 127,
                "duration": 12.3909091,
                "tempo": 120.0
            },
            {
                "start_time": 47.8090909,
                "end_time": 47.8818182,
                "pitch": 37,
                "velocity": 127,
                "duration": 0.0727273,
                "tempo": 120.0
            },
            {
                "start_time": 47.9181818,
                "end_time": 47.9909091,
                "pitch": 37,
                "velocity": 127,
                "duration": 0.0727273,
                "tempo": 120.0
            },
            {
                "start_time": 47.1409091,
                "end_time": 48.0295455,
                "pitch": 40,
                "velocity": 127,
                "duration": 0.8886364,
                "tempo": 120.0
            },
            {
                "start_time": 48.0295455,
                "end_time": 48.1022727,
                "pitch": 32,
                "velocity": 127,
                "duration": 0.0727273,
                "tempo": 120.0
            },
            {
                "start_time": 48.3568182,
                "end_time": 48.4295455,
                "pitch": 37,
                "velocity": 127,
                "duration": 0.0727273,
                "tempo": 120.0
            },
            {
                "start_time": 48.0295455,
                "end_time": 48.4659091,
                "pitch": 40,
                "velocity": 127,
                "duration": 0.4363636,
                "tempo": 120.0
            },
            {
                "start_time": 48.4659091,
                "end_time": 48.5386364,
                "pitch": 32,
                "velocity": 127,
                "duration": 0.0727273,
                "tempo": 120.0
            },
            {
                "start_time": 46.9159091,
                "end_time": 48.6818182,
                "pitch": 41,
                "velocity": 127,
                "duration": 1.7659091,
                "tempo": 120.0
            },
            {
                "start_time": 48.6818182,
                "end_time": 48.7568182,
                "pitch": 37,
                "velocity": 127,
                "duration": 0.075,
                "tempo": 120.0
            },
            {
                "start_time": 48.7954545,
                "end_time": 48.8704545,
                "pitch": 37,
                "velocity": 127,
                "duration": 0.075,
                "tempo": 120.0
            },
            {
                "start_time": 48.4659091,
                "end_time": 48.9068182,
                "pitch": 40,
                "velocity": 127,
                "duration": 0.4409091,
                "tempo": 120.0
            },
            {
                "start_time": 48.9068182,
                "end_time": 48.9818182,
                "pitch": 32,
                "velocity": 127,
                "duration": 0.075,
                "tempo": 120.0
            },
            {
                "start_time": 49.2431818,
                "end_time": 49.3181818,
                "pitch": 37,
                "velocity": 127,
                "duration": 0.075,
                "tempo": 120.0
            },
            {
                "start_time": 47.5863636,
                "end_time": 49.3545455,
                "pitch": 25,
                "velocity": 127,
                "duration": 1.7681818,
                "tempo": 120.0
            },
            {
                "start_time": 49.3545455,
                "end_time": 49.4272727,
                "pitch": 29,
                "velocity": 127,
                "duration": 0.0727273,
                "tempo": 120.0
            },
            {
                "start_time": 47.6977273,
                "end_time": 49.4636364,
                "pitch": 42,
                "velocity": 127,
                "duration": 1.7659091,
                "tempo": 120.0
            },
            {
                "start_time": 49.4636364,
                "end_time": 49.5386364,
                "pitch": 35,
                "velocity": 127,
                "duration": 0.075,
                "tempo": 120.0
            },
            {
                "start_time": 47.8090909,
                "end_time": 49.575,
                "pitch": 19,
                "velocity": 127,
                "duration": 1.7659091,
                "tempo": 120.0
            },
            {
                "start_time": 49.575,
                "end_time": 49.6477273,
                "pitch": 36,
                "velocity": 127,
                "duration": 0.0727273,
                "tempo": 120.0
            },
            {
                "start_time": 49.6863636,
                "end_time": 49.7590909,
                "pitch": 36,
                "velocity": 127,
                "duration": 0.0727273,
                "tempo": 120.0
            },
            {
                "start_time": 48.9068182,
                "end_time": 49.7954545,
                "pitch": 40,
                "velocity": 127,
                "duration": 0.8886364,
                "tempo": 120.0
            },
            {
                "start_time": 45.9227273,
                "end_time": 49.8704545,
                "pitch": 31,
                "velocity": 127,
                "duration": 3.9477273,
                "tempo": 120.0
            },
            {
                "start_time": 49.7954545,
                "end_time": 49.8704545,
                "pitch": 31,
                "velocity": 127,
                "duration": 0.075,
                "tempo": 120.0
            },
            {
                "start_time": 45.4863636,
                "end_time": 49.9068182,
                "pitch": 0,
                "velocity": 127,
                "duration": 4.4204545,
                "tempo": 120.0
            },
            {
                "start_time": 49.9068182,
                "end_time": 50.0522727,
                "pitch": 36,
                "velocity": 127,
                "duration": 0.1454545,
                "tempo": 120.0
            },
            {
                "start_time": 50.125,
                "end_time": 50.1977273,
                "pitch": 36,
                "velocity": 127,
                "duration": 0.0727273,
                "tempo": 120.0
            },
            {
                "start_time": 49.7954545,
                "end_time": 50.2340909,
                "pitch": 40,
                "velocity": 127,
                "duration": 0.4386364,
                "tempo": 120.0
            },
            {
                "start_time": 50.2318182,
                "end_time": 50.2340909,
                "pitch": 40,
                "velocity": 127,
                "duration": 0.0022727,
                "tempo": 120.0
            },
            {
                "start_time": 50.2340909,
                "end_time": 50.3045455,
                "pitch": 31,
                "velocity": 127,
                "duration": 0.0704545,
                "tempo": 120.0
            },
            {
                "start_time": 49.9068182,
                "end_time": 50.3409091,
                "pitch": 0,
                "velocity": 127,
                "duration": 0.4340909,
                "tempo": 120.0
            },
            {
                "start_time": 50.3409091,
                "end_time": 50.4136364,
                "pitch": 27,
                "velocity": 127,
                "duration": 0.0727273,
                "tempo": 120.0
            },
            {
                "start_time": 45.1477273,
                "end_time": 50.45,
                "pitch": 39,
                "velocity": 127,
                "duration": 5.3022727,
                "tempo": 120.0
            },
            {
                "start_time": 50.45,
                "end_time": 50.5227273,
                "pitch": 36,
                "velocity": 127,
                "duration": 0.0727273,
                "tempo": 120.0
            },
            {
                "start_time": 50.5613636,
                "end_time": 50.6363636,
                "pitch": 36,
                "velocity": 127,
                "duration": 0.075,
                "tempo": 120.0
            },
            {
                "start_time": 50.675,
                "end_time": 50.75,
                "pitch": 31,
                "velocity": 127,
                "duration": 0.075,
                "tempo": 120.0
            },
            {
                "start_time": 50.3409091,
                "end_time": 50.7886364,
                "pitch": 0,
                "velocity": 127,
                "duration": 0.4477273,
                "tempo": 120.0
            },
            {
                "start_time": 50.7886364,
                "end_time": 50.9363636,
                "pitch": 36,
                "velocity": 127,
                "duration": 0.1477273,
                "tempo": 120.0
            },
            {
                "start_time": 51.0090909,
                "end_time": 51.0795455,
                "pitch": 36,
                "velocity": 127,
                "duration": 0.0704545,
                "tempo": 120.0
            },
            {
                "start_time": 50.675,
                "end_time": 51.1159091,
                "pitch": 40,
                "velocity": 127,
                "duration": 0.4409091,
                "tempo": 120.0
            },
            {
                "start_time": 51.1159091,
                "end_time": 51.1886364,
                "pitch": 31,
                "velocity": 127,
                "duration": 0.0727273,
                "tempo": 120.0
            },
            {
                "start_time": 51.225,
                "end_time": 51.2954545,
                "pitch": 34,
                "velocity": 127,
                "duration": 0.0704545,
                "tempo": 120.0
            },
            {
                "start_time": 51.3318182,
                "end_time": 51.4068182,
                "pitch": 34,
                "velocity": 127,
                "duration": 0.075,
                "tempo": 120.0
            },
            {
                "start_time": 35.1977273,
                "end_time": 51.6340909,
                "pitch": 26,
                "velocity": 127,
                "duration": 16.4363636,
                "tempo": 120.0
            },
            {
                "start_time": 51.5590909,
                "end_time": 51.6340909,
                "pitch": 26,
                "velocity": 127,
                "duration": 0.075,
                "tempo": 120.0
            },
            {
                "start_time": 48.6818182,
                "end_time": 51.6704545,
                "pitch": 41,
                "velocity": 127,
                "duration": 2.9886364,
                "tempo": 120.0
            },
            {
                "start_time": 51.6704545,
                "end_time": 51.8204545,
                "pitch": 33,
                "velocity": 127,
                "duration": 0.15,
                "tempo": 120.0
            },
            {
                "start_time": 51.8954545,
                "end_time": 51.9681818,
                "pitch": 33,
                "velocity": 127,
                "duration": 0.0727273,
                "tempo": 120.0
            },
            {
                "start_time": 51.5590909,
                "end_time": 52.1159091,
                "pitch": 30,
                "velocity": 127,
                "duration": 0.5568182,
                "tempo": 120.0
            },
            {
                "start_time": 52.1159091,
                "end_time": 52.1886364,
                "pitch": 26,
                "velocity": 127,
                "duration": 0.0727273,
                "tempo": 120.0
            },
            {
                "start_time": 51.6704545,
                "end_time": 52.225,
                "pitch": 41,
                "velocity": 127,
                "duration": 0.5545455,
                "tempo": 120.0
            },
            {
                "start_time": 52.225,
                "end_time": 52.3,
                "pitch": 33,
                "velocity": 127,
                "duration": 0.075,
                "tempo": 120.0
            },
            {
                "start_time": 52.1159091,
                "end_time": 52.4477273,
                "pitch": 30,
                "velocity": 127,
                "duration": 0.3318182,
                "tempo": 120.0
            },
            {
                "start_time": 52.4477273,
                "end_time": 52.5204545,
                "pitch": 26,
                "velocity": 127,
                "duration": 0.0727273,
                "tempo": 120.0
            },
            {
                "start_time": 52.225,
                "end_time": 52.5568182,
                "pitch": 41,
                "velocity": 127,
                "duration": 0.3318182,
                "tempo": 120.0
            },
            {
                "start_time": 52.5568182,
                "end_time": 52.7045455,
                "pitch": 33,
                "velocity": 127,
                "duration": 0.1477273,
                "tempo": 120.0
            },
            {
                "start_time": 52.5568182,
                "end_time": 52.8886364,
                "pitch": 41,
                "velocity": 127,
                "duration": 0.3318182,
                "tempo": 120.0
            },
            {
                "start_time": 51.225,
                "end_time": 52.9613636,
                "pitch": 31,
                "velocity": 127,
                "duration": 1.7363636,
                "tempo": 120.0
            },
            {
                "start_time": 52.8886364,
                "end_time": 52.9613636,
                "pitch": 31,
                "velocity": 127,
                "duration": 0.0727273,
                "tempo": 120.0
            },
            {
                "start_time": 52.9977273,
                "end_time": 53.0,
                "pitch": 31,
                "velocity": 127,
                "duration": 0.0022727,
                "tempo": 120.0
            },
            {
                "start_time": 53.0,
                "end_time": 53.0727273,
                "pitch": 34,
                "velocity": 127,
                "duration": 0.0727273,
                "tempo": 120.0
            },
            {
                "start_time": 53.1090909,
                "end_time": 53.1818182,
                "pitch": 34,
                "velocity": 127,
                "duration": 0.0727273,
                "tempo": 120.0
            },
            {
                "start_time": 53.2204545,
                "end_time": 53.2931818,
                "pitch": 32,
                "velocity": 127,
                "duration": 0.0727273,
                "tempo": 120.0
            },
            {
                "start_time": 49.4636364,
                "end_time": 53.4409091,
                "pitch": 42,
                "velocity": 127,
                "duration": 3.9772727,
                "tempo": 120.0
            },
            {
                "start_time": 53.2204545,
                "end_time": 53.5886364,
                "pitch": 35,
                "velocity": 127,
                "duration": 0.3681818,
                "tempo": 120.0
            },
            {
                "start_time": 53.4409091,
                "end_time": 53.5886364,
                "pitch": 35,
                "velocity": 127,
                "duration": 0.1477273,
                "tempo": 120.0
            },
            {
                "start_time": 53.6613636,
                "end_time": 53.7340909,
                "pitch": 35,
                "velocity": 127,
                "duration": 0.0727273,
                "tempo": 120.0
            },
            {
                "start_time": 53.7727273,
                "end_time": 53.8454545,
                "pitch": 32,
                "velocity": 127,
                "duration": 0.0727273,
                "tempo": 120.0
            },
            {
                "start_time": 53.4409091,
                "end_time": 53.9931818,
                "pitch": 42,
                "velocity": 127,
                "duration": 0.5522727,
                "tempo": 120.0
            },
            {
                "start_time": 53.7727273,
                "end_time": 54.0659091,
                "pitch": 35,
                "velocity": 127,
                "duration": 0.2931818,
                "tempo": 120.0
            },
            {
                "start_time": 53.9931818,
                "end_time": 54.0659091,
                "pitch": 35,
                "velocity": 127,
                "duration": 0.0727273,
                "tempo": 120.0
            },
            {
                "start_time": 54.1022727,
                "end_time": 54.1772727,
                "pitch": 32,
                "velocity": 127,
                "duration": 0.075,
                "tempo": 120.0
            },
            {
                "start_time": 53.9931818,
                "end_time": 54.325,
                "pitch": 42,
                "velocity": 127,
                "duration": 0.3318182,
                "tempo": 120.0
            },
            {
                "start_time": 54.1022727,
                "end_time": 54.4704545,
                "pitch": 35,
                "velocity": 127,
                "duration": 0.3681818,
                "tempo": 120.0
            },
            {
                "start_time": 54.325,
                "end_time": 54.4704545,
                "pitch": 35,
                "velocity": 127,
                "duration": 0.1454545,
                "tempo": 120.0
            },
            {
                "start_time": 54.5454545,
                "end_time": 54.6181818,
                "pitch": 35,
                "velocity": 127,
                "duration": 0.0727273,
                "tempo": 120.0
            },
            {
                "start_time": 54.6545455,
                "end_time": 54.7295455,
                "pitch": 32,
                "velocity": 127,
                "duration": 0.075,
                "tempo": 120.0
            },
            {
                "start_time": 54.325,
                "end_time": 54.8772727,
                "pitch": 42,
                "velocity": 127,
                "duration": 0.5522727,
                "tempo": 120.0
            },
            {
                "start_time": 54.6545455,
                "end_time": 54.95,
                "pitch": 35,
                "velocity": 127,
                "duration": 0.2954545,
                "tempo": 120.0
            },
            {
                "start_time": 54.8772727,
                "end_time": 54.95,
                "pitch": 35,
                "velocity": 127,
                "duration": 0.0727273,
                "tempo": 120.0
            },
            {
                "start_time": 54.9886364,
                "end_time": 55.0636364,
                "pitch": 32,
                "velocity": 127,
                "duration": 0.075,
                "tempo": 120.0
            },
            {
                "start_time": 54.8772727,
                "end_time": 55.2159091,
                "pitch": 42,
                "velocity": 127,
                "duration": 0.3386364,
                "tempo": 120.0
            },
            {
                "start_time": 54.9886364,
                "end_time": 55.3636364,
                "pitch": 35,
                "velocity": 127,
                "duration": 0.375,
                "tempo": 120.0
            },
            {
                "start_time": 55.2159091,
                "end_time": 55.3636364,
                "pitch": 35,
                "velocity": 127,
                "duration": 0.1477273,
                "tempo": 120.0
            },
            {
                "start_time": 55.4363636,
                "end_time": 55.5068182,
                "pitch": 35,
                "velocity": 127,
                "duration": 0.0704545,
                "tempo": 120.0
            },
            {
                "start_time": 55.5431818,
                "end_time": 55.6159091,
                "pitch": 32,
                "velocity": 127,
                "duration": 0.0727273,
                "tempo": 120.0
            },
            {
                "start_time": 55.2159091,
                "end_time": 55.7590909,
                "pitch": 42,
                "velocity": 127,
                "duration": 0.5431818,
                "tempo": 120.0
            },
            {
                "start_time": 55.5431818,
                "end_time": 55.8340909,
                "pitch": 35,
                "velocity": 127,
                "duration": 0.2909091,
                "tempo": 120.0
            },
            {
                "start_time": 55.7590909,
                "end_time": 55.8340909,
                "pitch": 35,
                "velocity": 127,
                "duration": 0.075,
                "tempo": 120.0
            },
            {
                "start_time": 55.8704545,
                "end_time": 55.9431818,
                "pitch": 32,
                "velocity": 127,
                "duration": 0.0727273,
                "tempo": 120.0
            },
            {
                "start_time": 55.7590909,
                "end_time": 56.0909091,
                "pitch": 42,
                "velocity": 127,
                "duration": 0.3318182,
                "tempo": 120.0
            },
            {
                "start_time": 55.8704545,
                "end_time": 56.2386364,
                "pitch": 35,
                "velocity": 127,
                "duration": 0.3681818,
                "tempo": 120.0
            },
            {
                "start_time": 56.0909091,
                "end_time": 56.2386364,
                "pitch": 35,
                "velocity": 127,
                "duration": 0.1477273,
                "tempo": 120.0
            },
            {
                "start_time": 56.3136364,
                "end_time": 56.3886364,
                "pitch": 35,
                "velocity": 127,
                "duration": 0.075,
                "tempo": 120.0
            },
            {
                "start_time": 56.4272727,
                "end_time": 56.5022727,
                "pitch": 32,
                "velocity": 127,
                "duration": 0.075,
                "tempo": 120.0
            },
            {
                "start_time": 17.2977273,
                "end_time": 56.6590909,
                "pitch": 24,
                "velocity": 127,
                "duration": 39.3613636,
                "tempo": 120.0
            },
            {
                "start_time": 56.6545455,
                "end_time": 56.6590909,
                "pitch": 24,
                "velocity": 127,
                "duration": 0.0045455,
                "tempo": 120.0
            }
        ],
        "Harpsichord": [
            {
                "start_time": 19.95,
                "end_time": 20.0227273,
                "pitch": 60,
                "velocity": 80,
                "duration": 0.0727273,
                "tempo": 120.0
            },
            {
                "start_time": 20.0613636,
                "end_time": 20.2045455,
                "pitch": 60,
                "velocity": 80,
                "duration": 0.1431818,
                "tempo": 120.0
            },
            {
                "start_time": 20.2818182,
                "end_time": 20.3522727,
                "pitch": 60,
                "velocity": 80,
                "duration": 0.0704545,
                "tempo": 120.0
            },
            {
                "start_time": 20.5022727,
                "end_time": 20.5727273,
                "pitch": 60,
                "velocity": 80,
                "duration": 0.0704545,
                "tempo": 120.0
            },
            {
                "start_time": 20.6113636,
                "end_time": 20.6840909,
                "pitch": 60,
                "velocity": 80,
                "duration": 0.0727273,
                "tempo": 120.0
            },
            {
                "start_time": 20.7227273,
                "end_time": 20.7954545,
                "pitch": 60,
                "velocity": 80,
                "duration": 0.0727273,
                "tempo": 120.0
            },
            {
                "start_time": 20.9431818,
                "end_time": 21.0159091,
                "pitch": 60,
                "velocity": 80,
                "duration": 0.0727273,
                "tempo": 120.0
            },
            {
                "start_time": 21.1636364,
                "end_time": 21.2363636,
                "pitch": 60,
                "velocity": 80,
                "duration": 0.0727273,
                "tempo": 120.0
            }
        ],
        "Lead 2 (sawtooth)": [
            {
                "start_time": 0.0431818,
                "end_time": 3.2886364,
                "pitch": 63,
                "velocity": 64,
                "duration": 3.2454545,
                "tempo": 120.0
            },
            {
                "start_time": 3.5863636,
                "end_time": 6.8227273,
                "pitch": 63,
                "velocity": 64,
                "duration": 3.2363636,
                "tempo": 120.0
            },
            {
                "start_time": 7.1204545,
                "end_time": 10.4772727,
                "pitch": 68,
                "velocity": 64,
                "duration": 3.3568182,
                "tempo": 120.0
            },
            {
                "start_time": 10.5522727,
                "end_time": 10.6431818,
                "pitch": 68,
                "velocity": 64,
                "duration": 0.0909091,
                "tempo": 120.0
            },
            {
                "start_time": 10.6636364,
                "end_time": 13.9,
                "pitch": 67,
                "velocity": 64,
                "duration": 3.2363636,
                "tempo": 120.0
            },
            {
                "start_time": 14.3068182,
                "end_time": 14.3795455,
                "pitch": 68,
                "velocity": 64,
                "duration": 0.0727273,
                "tempo": 120.0
            },
            {
                "start_time": 14.6386364,
                "end_time": 14.7113636,
                "pitch": 67,
                "velocity": 64,
                "duration": 0.0727273,
                "tempo": 120.0
            },
            {
                "start_time": 14.9704545,
                "end_time": 15.0409091,
                "pitch": 67,
                "velocity": 64,
                "duration": 0.0704545,
                "tempo": 120.0
            },
            {
                "start_time": 15.0795455,
                "end_time": 15.0818182,
                "pitch": 67,
                "velocity": 64,
                "duration": 0.0022727,
                "tempo": 120.0
            },
            {
                "start_time": 15.0818182,
                "end_time": 15.1545455,
                "pitch": 69,
                "velocity": 64,
                "duration": 0.0727273,
                "tempo": 120.0
            },
            {
                "start_time": 15.1931818,
                "end_time": 15.2659091,
                "pitch": 69,
                "velocity": 64,
                "duration": 0.0727273,
                "tempo": 120.0
            },
            {
                "start_time": 15.4181818,
                "end_time": 15.4931818,
                "pitch": 69,
                "velocity": 64,
                "duration": 0.075,
                "tempo": 120.0
            },
            {
                "start_time": 15.6409091,
                "end_time": 15.7113636,
                "pitch": 69,
                "velocity": 64,
                "duration": 0.0704545,
                "tempo": 120.0
            },
            {
                "start_time": 15.8568182,
                "end_time": 15.9272727,
                "pitch": 69,
                "velocity": 64,
                "duration": 0.0704545,
                "tempo": 120.0
            },
            {
                "start_time": 16.075,
                "end_time": 16.0772727,
                "pitch": 69,
                "velocity": 64,
                "duration": 0.0022727,
                "tempo": 120.0
            },
            {
                "start_time": 16.0772727,
                "end_time": 16.15,
                "pitch": 67,
                "velocity": 64,
                "duration": 0.0727273,
                "tempo": 120.0
            },
            {
                "start_time": 16.1909091,
                "end_time": 16.2636364,
                "pitch": 67,
                "velocity": 64,
                "duration": 0.0727273,
                "tempo": 120.0
            },
            {
                "start_time": 16.5227273,
                "end_time": 16.5931818,
                "pitch": 67,
                "velocity": 64,
                "duration": 0.0704545,
                "tempo": 120.0
            },
            {
                "start_time": 16.7386364,
                "end_time": 16.8090909,
                "pitch": 67,
                "velocity": 64,
                "duration": 0.0704545,
                "tempo": 120.0
            },
            {
                "start_time": 16.8477273,
                "end_time": 16.9204545,
                "pitch": 69,
                "velocity": 64,
                "duration": 0.0727273,
                "tempo": 120.0
            },
            {
                "start_time": 16.9613636,
                "end_time": 17.0340909,
                "pitch": 69,
                "velocity": 64,
                "duration": 0.0727273,
                "tempo": 120.0
            },
            {
                "start_time": 17.0727273,
                "end_time": 17.1454545,
                "pitch": 69,
                "velocity": 64,
                "duration": 0.0727273,
                "tempo": 120.0
            },
            {
                "start_time": 17.1863636,
                "end_time": 17.2590909,
                "pitch": 69,
                "velocity": 64,
                "duration": 0.0727273,
                "tempo": 120.0
            },
            {
                "start_time": 17.4068182,
                "end_time": 17.4772727,
                "pitch": 69,
                "velocity": 64,
                "duration": 0.0704545,
                "tempo": 120.0
            },
            {
                "start_time": 17.6227273,
                "end_time": 17.6931818,
                "pitch": 69,
                "velocity": 64,
                "duration": 0.0704545,
                "tempo": 120.0
            },
            {
                "start_time": 21.2772727,
                "end_time": 24.5136364,
                "pitch": 76,
                "velocity": 101,
                "duration": 3.2363636,
                "tempo": 120.0
            },
            {
                "start_time": 24.8090909,
                "end_time": 26.2863636,
                "pitch": 76,
                "velocity": 101,
                "duration": 1.4772727,
                "tempo": 120.0
            },
            {
                "start_time": 7.1204545,
                "end_time": 28.0545455,
                "pitch": 77,
                "velocity": 64,
                "duration": 20.9340909,
                "tempo": 120.0
            },
            {
                "start_time": 26.5772727,
                "end_time": 28.0545455,
                "pitch": 77,
                "velocity": 101,
                "duration": 1.4772727,
                "tempo": 120.0
            },
            {
                "start_time": 28.3454545,
                "end_time": 31.5909091,
                "pitch": 73,
                "velocity": 101,
                "duration": 3.2454545,
                "tempo": 120.0
            },
            {
                "start_time": 31.8886364,
                "end_time": 35.125,
                "pitch": 68,
                "velocity": 101,
                "duration": 3.2363636,
                "tempo": 120.0
            },
            {
                "start_time": 35.4227273,
                "end_time": 38.6659091,
                "pitch": 60,
                "velocity": 101,
                "duration": 3.2431818,
                "tempo": 120.0
            },
            {
                "start_time": 31.8886364,
                "end_time": 38.9568182,
                "pitch": 76,
                "velocity": 101,
                "duration": 7.0681818,
                "tempo": 120.0
            },
            {
                "start_time": 38.9568182,
                "end_time": 40.4340909,
                "pitch": 68,
                "velocity": 127,
                "duration": 1.4772727,
                "tempo": 120.0
            },
            {
                "start_time": 40.7227273,
                "end_time": 42.2022727,
                "pitch": 86,
                "velocity": 127,
                "duration": 1.4795455,
                "tempo": 120.0
            },
            {
                "start_time": 42.5022727,
                "end_time": 45.7431818,
                "pitch": 62,
                "velocity": 127,
                "duration": 3.2409091,
                "tempo": 120.0
            },
            {
                "start_time": 46.0340909,
                "end_time": 49.2818182,
                "pitch": 63,
                "velocity": 127,
                "duration": 3.2477273,
                "tempo": 120.0
            },
            {
                "start_time": 49.5772727,
                "end_time": 51.0454545,
                "pitch": 61,
                "velocity": 127,
                "duration": 1.4681818,
                "tempo": 120.0
            },
            {
                "start_time": 51.3340909,
                "end_time": 52.8159091,
                "pitch": 63,
                "velocity": 127,
                "duration": 1.4818182,
                "tempo": 120.0
            },
            {
                "start_time": 53.1113636,
                "end_time": 53.1136364,
                "pitch": 77,
                "velocity": 127,
                "duration": 0.0022727,
                "tempo": 120.0
            },
            {
                "start_time": 53.1136364,
                "end_time": 54.5818182,
                "pitch": 68,
                "velocity": 127,
                "duration": 1.4681818,
                "tempo": 120.0
            },
            {
                "start_time": 35.4227273,
                "end_time": 54.8795455,
                "pitch": 19,
                "velocity": 101,
                "duration": 19.4568182,
                "tempo": 120.0
            },
            {
                "start_time": 54.8795455,
                "end_time": 56.3522727,
                "pitch": 64,
                "velocity": 127,
                "duration": 1.4727273,
                "tempo": 120.0
            }
        ],
        "Violin": [
            {
                "start_time": 0.0431818,
                "end_time": 3.325,
                "pitch": 67,
                "velocity": 127,
                "duration": 3.2818182,
                "tempo": 120.0
            },
            {
                "start_time": 3.3613636,
                "end_time": 3.4545455,
                "pitch": 63,
                "velocity": 127,
                "duration": 0.0931818,
                "tempo": 120.0
            },
            {
                "start_time": 3.4727273,
                "end_time": 3.5636364,
                "pitch": 65,
                "velocity": 127,
                "duration": 0.0909091,
                "tempo": 120.0
            },
            {
                "start_time": 3.5863636,
                "end_time": 6.8227273,
                "pitch": 67,
                "velocity": 127,
                "duration": 3.2363636,
                "tempo": 120.0
            },
            {
                "start_time": 3.3613636,
                "end_time": 7.1204545,
                "pitch": 0,
                "velocity": 127,
                "duration": 3.7590909,
                "tempo": 120.0
            },
            {
                "start_time": 7.1204545,
                "end_time": 10.4772727,
                "pitch": 72,
                "velocity": 127,
                "duration": 3.3568182,
                "tempo": 120.0
            },
            {
                "start_time": 10.5522727,
                "end_time": 10.6431818,
                "pitch": 72,
                "velocity": 127,
                "duration": 0.0909091,
                "tempo": 120.0
            },
            {
                "start_time": 10.6636364,
                "end_time": 13.9,
                "pitch": 72,
                "velocity": 127,
                "duration": 3.2363636,
                "tempo": 120.0
            },
            {
                "start_time": 21.275,
                "end_time": 24.5136364,
                "pitch": 80,
                "velocity": 127,
                "duration": 3.2386364,
                "tempo": 120.0
            },
            {
                "start_time": 24.8090909,
                "end_time": 26.2863636,
                "pitch": 80,
                "velocity": 127,
                "duration": 1.4772727,
                "tempo": 120.0
            },
            {
                "start_time": 26.575,
                "end_time": 28.0545455,
                "pitch": 80,
                "velocity": 127,
                "duration": 1.4795455,
                "tempo": 120.0
            },
            {
                "start_time": 28.3431818,
                "end_time": 31.5909091,
                "pitch": 77,
                "velocity": 127,
                "duration": 3.2477273,
                "tempo": 120.0
            },
            {
                "start_time": 3.5863636,
                "end_time": 31.8886364,
                "pitch": 78,
                "velocity": 127,
                "duration": 28.3022727,
                "tempo": 120.0
            },
            {
                "start_time": 31.8886364,
                "end_time": 35.125,
                "pitch": 71,
                "velocity": 127,
                "duration": 3.2363636,
                "tempo": 120.0
            },
            {
                "start_time": 3.4727273,
                "end_time": 38.6659091,
                "pitch": 63,
                "velocity": 127,
                "duration": 35.1931818,
                "tempo": 120.0
            },
            {
                "start_time": 35.4227273,
                "end_time": 38.6659091,
                "pitch": 63,
                "velocity": 127,
                "duration": 3.2431818,
                "tempo": 120.0
            },
            {
                "start_time": 38.9568182,
                "end_time": 40.4318182,
                "pitch": 72,
                "velocity": 127,
                "duration": 1.475,
                "tempo": 120.0
            },
            {
                "start_time": 40.8340909,
                "end_time": 42.425,
                "pitch": 103,
                "velocity": 127,
                "duration": 1.5909091,
                "tempo": 120.0
            },
            {
                "start_time": 53.1113636,
                "end_time": 54.5818182,
                "pitch": 80,
                "velocity": 101,
                "duration": 1.4704545,
                "tempo": 120.0
            },
            {
                "start_time": 54.8795455,
                "end_time": 56.3522727,
                "pitch": 68,
                "velocity": 101,
                "duration": 1.4727273,
                "tempo": 120.0
            },
            {
                "start_time": 56.6568182,
                "end_time": 56.6590909,
                "pitch": 68,
                "velocity": 127,
                "duration": 0.0022727,
                "tempo": 120.0
            }
        ],
        "Vibraphone": [
            {
                "start_time": 28.3409091,
                "end_time": 28.4340909,
                "pitch": 89,
                "velocity": 127,
                "duration": 0.0931818,
                "tempo": 120.0
            },
            {
                "start_time": 28.4545455,
                "end_time": 28.5477273,
                "pitch": 89,
                "velocity": 127,
                "duration": 0.0931818,
                "tempo": 120.0
            },
            {
                "start_time": 28.5659091,
                "end_time": 28.6613636,
                "pitch": 89,
                "velocity": 127,
                "duration": 0.0954545,
                "tempo": 120.0
            },
            {
                "start_time": 28.6795455,
                "end_time": 28.7727273,
                "pitch": 89,
                "velocity": 127,
                "duration": 0.0931818,
                "tempo": 120.0
            },
            {
                "start_time": 30.1090909,
                "end_time": 30.2,
                "pitch": 89,
                "velocity": 127,
                "duration": 0.0909091,
                "tempo": 120.0
            },
            {
                "start_time": 30.2181818,
                "end_time": 30.3113636,
                "pitch": 89,
                "velocity": 127,
                "duration": 0.0931818,
                "tempo": 120.0
            },
            {
                "start_time": 30.3295455,
                "end_time": 30.4204545,
                "pitch": 89,
                "velocity": 127,
                "duration": 0.0909091,
                "tempo": 120.0
            },
            {
                "start_time": 30.4409091,
                "end_time": 30.5318182,
                "pitch": 89,
                "velocity": 127,
                "duration": 0.0909091,
                "tempo": 120.0
            },
            {
                "start_time": 42.4977273,
                "end_time": 42.6818182,
                "pitch": 60,
                "velocity": 127,
                "duration": 0.1840909,
                "tempo": 120.0
            },
            {
                "start_time": 28.3409091,
                "end_time": 42.9022727,
                "pitch": 55,
                "velocity": 127,
                "duration": 14.5613636,
                "tempo": 120.0
            },
            {
                "start_time": 42.7181818,
                "end_time": 42.9022727,
                "pitch": 55,
                "velocity": 127,
                "duration": 0.1840909,
                "tempo": 120.0
            },
            {
                "start_time": 42.9386364,
                "end_time": 43.1227273,
                "pitch": 60,
                "velocity": 127,
                "duration": 0.1840909,
                "tempo": 120.0
            },
            {
                "start_time": 42.7181818,
                "end_time": 43.1613636,
                "pitch": 64,
                "velocity": 127,
                "duration": 0.4431818,
                "tempo": 120.0
            },
            {
                "start_time": 43.1613636,
                "end_time": 43.2522727,
                "pitch": 55,
                "velocity": 127,
                "duration": 0.0909091,
                "tempo": 120.0
            },
            {
                "start_time": 42.9386364,
                "end_time": 43.2704545,
                "pitch": 0,
                "velocity": 127,
                "duration": 0.3318182,
                "tempo": 120.0
            },
            {
                "start_time": 43.2704545,
                "end_time": 43.4545455,
                "pitch": 51,
                "velocity": 127,
                "duration": 0.1840909,
                "tempo": 120.0
            },
            {
                "start_time": 43.4909091,
                "end_time": 43.5840909,
                "pitch": 60,
                "velocity": 127,
                "duration": 0.0931818,
                "tempo": 120.0
            },
            {
                "start_time": 43.1613636,
                "end_time": 43.6022727,
                "pitch": 64,
                "velocity": 127,
                "duration": 0.4409091,
                "tempo": 120.0
            },
            {
                "start_time": 43.6022727,
                "end_time": 43.6931818,
                "pitch": 55,
                "velocity": 127,
                "duration": 0.0909091,
                "tempo": 120.0
            },
            {
                "start_time": 43.2704545,
                "end_time": 43.7136364,
                "pitch": 0,
                "velocity": 127,
                "duration": 0.4431818,
                "tempo": 120.0
            },
            {
                "start_time": 43.7136364,
                "end_time": 43.8045455,
                "pitch": 51,
                "velocity": 127,
                "duration": 0.0909091,
                "tempo": 120.0
            },
            {
                "start_time": 43.4909091,
                "end_time": 43.8227273,
                "pitch": 63,
                "velocity": 127,
                "duration": 0.3318182,
                "tempo": 120.0
            },
            {
                "start_time": 43.8227273,
                "end_time": 44.0068182,
                "pitch": 60,
                "velocity": 127,
                "duration": 0.1840909,
                "tempo": 120.0
            },
            {
                "start_time": 43.6022727,
                "end_time": 44.0431818,
                "pitch": 64,
                "velocity": 127,
                "duration": 0.4409091,
                "tempo": 120.0
            },
            {
                "start_time": 44.0431818,
                "end_time": 44.1363636,
                "pitch": 55,
                "velocity": 127,
                "duration": 0.0931818,
                "tempo": 120.0
            },
            {
                "start_time": 43.7136364,
                "end_time": 44.1545455,
                "pitch": 0,
                "velocity": 127,
                "duration": 0.4409091,
                "tempo": 120.0
            },
            {
                "start_time": 44.1545455,
                "end_time": 44.2454545,
                "pitch": 51,
                "velocity": 127,
                "duration": 0.0909091,
                "tempo": 120.0
            },
            {
                "start_time": 43.8227273,
                "end_time": 44.2659091,
                "pitch": 63,
                "velocity": 127,
                "duration": 0.4431818,
                "tempo": 120.0
            },
            {
                "start_time": 44.2659091,
                "end_time": 44.4522727,
                "pitch": 60,
                "velocity": 127,
                "duration": 0.1863636,
                "tempo": 120.0
            },
            {
                "start_time": 44.0431818,
                "end_time": 44.4909091,
                "pitch": 64,
                "velocity": 127,
                "duration": 0.4477273,
                "tempo": 120.0
            },
            {
                "start_time": 44.4909091,
                "end_time": 44.6772727,
                "pitch": 55,
                "velocity": 127,
                "duration": 0.1863636,
                "tempo": 120.0
            },
            {
                "start_time": 44.1545455,
                "end_time": 44.7159091,
                "pitch": 0,
                "velocity": 127,
                "duration": 0.5613636,
                "tempo": 120.0
            },
            {
                "start_time": 44.7159091,
                "end_time": 44.8954545,
                "pitch": 60,
                "velocity": 127,
                "duration": 0.1795455,
                "tempo": 120.0
            },
            {
                "start_time": 44.4909091,
                "end_time": 44.9318182,
                "pitch": 64,
                "velocity": 127,
                "duration": 0.4409091,
                "tempo": 120.0
            },
            {
                "start_time": 44.9318182,
                "end_time": 45.0227273,
                "pitch": 55,
                "velocity": 127,
                "duration": 0.0909091,
                "tempo": 120.0
            },
            {
                "start_time": 44.7159091,
                "end_time": 45.0409091,
                "pitch": 0,
                "velocity": 127,
                "duration": 0.325,
                "tempo": 120.0
            },
            {
                "start_time": 45.0409091,
                "end_time": 45.2227273,
                "pitch": 51,
                "velocity": 127,
                "duration": 0.1818182,
                "tempo": 120.0
            },
            {
                "start_time": 44.2659091,
                "end_time": 45.2613636,
                "pitch": 63,
                "velocity": 127,
                "duration": 0.9954545,
                "tempo": 120.0
            },
            {
                "start_time": 45.2613636,
                "end_time": 45.3545455,
                "pitch": 60,
                "velocity": 127,
                "duration": 0.0931818,
                "tempo": 120.0
            },
            {
                "start_time": 44.9318182,
                "end_time": 45.375,
                "pitch": 64,
                "velocity": 127,
                "duration": 0.4431818,
                "tempo": 120.0
            },
            {
                "start_time": 45.3727273,
                "end_time": 45.375,
                "pitch": 64,
                "velocity": 127,
                "duration": 0.0022727,
                "tempo": 120.0
            },
            {
                "start_time": 45.375,
                "end_time": 45.4681818,
                "pitch": 55,
                "velocity": 127,
                "duration": 0.0931818,
                "tempo": 120.0
            },
            {
                "start_time": 45.0409091,
                "end_time": 45.4863636,
                "pitch": 0,
                "velocity": 127,
                "duration": 0.4454545,
                "tempo": 120.0
            },
            {
                "start_time": 45.4863636,
                "end_time": 45.5795455,
                "pitch": 51,
                "velocity": 127,
                "duration": 0.0931818,
                "tempo": 120.0
            },
            {
                "start_time": 45.2613636,
                "end_time": 45.6,
                "pitch": 63,
                "velocity": 127,
                "duration": 0.3386364,
                "tempo": 120.0
            },
            {
                "start_time": 45.6,
                "end_time": 45.7795455,
                "pitch": 60,
                "velocity": 127,
                "duration": 0.1795455,
                "tempo": 120.0
            },
            {
                "start_time": 45.8159091,
                "end_time": 45.9045455,
                "pitch": 55,
                "velocity": 127,
                "duration": 0.0886364,
                "tempo": 120.0
            },
            {
                "start_time": 45.4863636,
                "end_time": 45.9227273,
                "pitch": 0,
                "velocity": 127,
                "duration": 0.4363636,
                "tempo": 120.0
            },
            {
                "start_time": 45.9227273,
                "end_time": 46.0136364,
                "pitch": 51,
                "velocity": 127,
                "duration": 0.0909091,
                "tempo": 120.0
            },
            {
                "start_time": 46.0318182,
                "end_time": 46.2181818,
                "pitch": 51,
                "velocity": 127,
                "duration": 0.1863636,
                "tempo": 120.0
            },
            {
                "start_time": 46.2568182,
                "end_time": 46.4454545,
                "pitch": 44,
                "velocity": 127,
                "duration": 0.1886364,
                "tempo": 120.0
            },
            {
                "start_time": 46.4818182,
                "end_time": 46.6636364,
                "pitch": 49,
                "velocity": 127,
                "duration": 0.1818182,
                "tempo": 120.0
            },
            {
                "start_time": 46.2568182,
                "end_time": 46.7,
                "pitch": 52,
                "velocity": 127,
                "duration": 0.4431818,
                "tempo": 120.0
            },
            {
                "start_time": 46.7,
                "end_time": 46.7886364,
                "pitch": 44,
                "velocity": 127,
                "duration": 0.0886364,
                "tempo": 120.0
            },
            {
                "start_time": 47.0272727,
                "end_time": 47.1204545,
                "pitch": 49,
                "velocity": 127,
                "duration": 0.0931818,
                "tempo": 120.0
            },
            {
                "start_time": 46.7,
                "end_time": 47.1409091,
                "pitch": 52,
                "velocity": 127,
                "duration": 0.4409091,
                "tempo": 120.0
            },
            {
                "start_time": 47.1409091,
                "end_time": 47.2340909,
                "pitch": 44,
                "velocity": 127,
                "duration": 0.0931818,
                "tempo": 120.0
            },
            {
                "start_time": 47.0272727,
                "end_time": 47.3659091,
                "pitch": 53,
                "velocity": 127,
                "duration": 0.3386364,
                "tempo": 120.0
            },
            {
                "start_time": 47.3659091,
                "end_time": 47.55,
                "pitch": 49,
                "velocity": 127,
                "duration": 0.1840909,
                "tempo": 120.0
            },
            {
                "start_time": 47.1409091,
                "end_time": 47.5886364,
                "pitch": 52,
                "velocity": 127,
                "duration": 0.4477273,
                "tempo": 120.0
            },
            {
                "start_time": 47.5886364,
                "end_time": 47.6795455,
                "pitch": 44,
                "velocity": 127,
                "duration": 0.0909091,
                "tempo": 120.0
            },
            {
                "start_time": 47.5886364,
                "end_time": 47.8090909,
                "pitch": 52,
                "velocity": 127,
                "duration": 0.2204545,
                "tempo": 120.0
            },
            {
                "start_time": 47.8090909,
                "end_time": 47.9931818,
                "pitch": 49,
                "velocity": 127,
                "duration": 0.1840909,
                "tempo": 120.0
            },
            {
                "start_time": 47.8090909,
                "end_time": 48.0295455,
                "pitch": 52,
                "velocity": 127,
                "duration": 0.2204545,
                "tempo": 120.0
            },
            {
                "start_time": 48.0295455,
                "end_time": 48.2136364,
                "pitch": 44,
                "velocity": 127,
                "duration": 0.1840909,
                "tempo": 120.0
            },
            {
                "start_time": 46.4818182,
                "end_time": 48.25,
                "pitch": 7,
                "velocity": 127,
                "duration": 1.7681818,
                "tempo": 120.0
            },
            {
                "start_time": 48.25,
                "end_time": 48.4295455,
                "pitch": 49,
                "velocity": 127,
                "duration": 0.1795455,
                "tempo": 120.0
            },
            {
                "start_time": 48.0295455,
                "end_time": 48.4659091,
                "pitch": 52,
                "velocity": 127,
                "duration": 0.4363636,
                "tempo": 120.0
            },
            {
                "start_time": 48.4659091,
                "end_time": 48.5568182,
                "pitch": 44,
                "velocity": 127,
                "duration": 0.0909091,
                "tempo": 120.0
            },
            {
                "start_time": 47.3659091,
                "end_time": 48.7954545,
                "pitch": 53,
                "velocity": 127,
                "duration": 1.4295455,
                "tempo": 120.0
            },
            {
                "start_time": 48.7954545,
                "end_time": 48.8886364,
                "pitch": 49,
                "velocity": 127,
                "duration": 0.0931818,
                "tempo": 120.0
            },
            {
                "start_time": 48.4659091,
                "end_time": 48.9090909,
                "pitch": 52,
                "velocity": 127,
                "duration": 0.4431818,
                "tempo": 120.0
            },
            {
                "start_time": 48.9090909,
                "end_time": 49.0022727,
                "pitch": 44,
                "velocity": 127,
                "duration": 0.0931818,
                "tempo": 120.0
            },
            {
                "start_time": 48.7954545,
                "end_time": 49.1340909,
                "pitch": 53,
                "velocity": 127,
                "duration": 0.3386364,
                "tempo": 120.0
            },
            {
                "start_time": 49.1340909,
                "end_time": 49.3181818,
                "pitch": 49,
                "velocity": 127,
                "duration": 0.1840909,
                "tempo": 120.0
            },
            {
                "start_time": 48.9090909,
                "end_time": 49.3545455,
                "pitch": 52,
                "velocity": 127,
                "duration": 0.4454545,
                "tempo": 120.0
            },
            {
                "start_time": 49.3545455,
                "end_time": 49.4454545,
                "pitch": 44,
                "velocity": 127,
                "duration": 0.0909091,
                "tempo": 120.0
            },
            {
                "start_time": 45.8159091,
                "end_time": 49.575,
                "pitch": 64,
                "velocity": 127,
                "duration": 3.7590909,
                "tempo": 120.0
            },
            {
                "start_time": 49.575,
                "end_time": 49.7590909,
                "pitch": 60,
                "velocity": 127,
                "duration": 0.1840909,
                "tempo": 120.0
            },
            {
                "start_time": 49.575,
                "end_time": 49.7977273,
                "pitch": 64,
                "velocity": 127,
                "duration": 0.2227273,
                "tempo": 120.0
            },
            {
                "start_time": 49.7954545,
                "end_time": 49.7977273,
                "pitch": 64,
                "velocity": 127,
                "duration": 0.0022727,
                "tempo": 120.0
            },
            {
                "start_time": 49.7977273,
                "end_time": 49.9795455,
                "pitch": 55,
                "velocity": 127,
                "duration": 0.1818182,
                "tempo": 120.0
            },
            {
                "start_time": 45.9227273,
                "end_time": 50.0159091,
                "pitch": 0,
                "velocity": 127,
                "duration": 4.0931818,
                "tempo": 120.0
            },
            {
                "start_time": 50.0159091,
                "end_time": 50.1977273,
                "pitch": 60,
                "velocity": 127,
                "duration": 0.1818182,
                "tempo": 120.0
            },
            {
                "start_time": 50.2340909,
                "end_time": 50.3227273,
                "pitch": 55,
                "velocity": 127,
                "duration": 0.0886364,
                "tempo": 120.0
            },
            {
                "start_time": 50.0159091,
                "end_time": 50.3409091,
                "pitch": 0,
                "velocity": 127,
                "duration": 0.325,
                "tempo": 120.0
            },
            {
                "start_time": 50.3409091,
                "end_time": 50.4318182,
                "pitch": 51,
                "velocity": 127,
                "duration": 0.0909091,
                "tempo": 120.0
            },
            {
                "start_time": 45.6,
                "end_time": 50.45,
                "pitch": 63,
                "velocity": 127,
                "duration": 4.85,
                "tempo": 120.0
            },
            {
                "start_time": 50.45,
                "end_time": 50.6363636,
                "pitch": 60,
                "velocity": 127,
                "duration": 0.1863636,
                "tempo": 120.0
            },
            {
                "start_time": 50.2340909,
                "end_time": 50.675,
                "pitch": 64,
                "velocity": 127,
                "duration": 0.4409091,
                "tempo": 120.0
            },
            {
                "start_time": 50.675,
                "end_time": 50.7681818,
                "pitch": 55,
                "velocity": 127,
                "duration": 0.0931818,
                "tempo": 120.0
            },
            {
                "start_time": 50.3409091,
                "end_time": 50.7886364,
                "pitch": 0,
                "velocity": 127,
                "duration": 0.4477273,
                "tempo": 120.0
            },
            {
                "start_time": 50.7886364,
                "end_time": 50.9727273,
                "pitch": 60,
                "velocity": 127,
                "duration": 0.1840909,
                "tempo": 120.0
            },
            {
                "start_time": 50.675,
                "end_time": 51.0090909,
                "pitch": 64,
                "velocity": 127,
                "duration": 0.3340909,
                "tempo": 120.0
            },
            {
                "start_time": 51.0090909,
                "end_time": 51.1886364,
                "pitch": 55,
                "velocity": 127,
                "duration": 0.1795455,
                "tempo": 120.0
            },
            {
                "start_time": 51.225,
                "end_time": 51.3136364,
                "pitch": 58,
                "velocity": 127,
                "duration": 0.0886364,
                "tempo": 120.0
            },
            {
                "start_time": 51.3318182,
                "end_time": 51.5204545,
                "pitch": 58,
                "velocity": 127,
                "duration": 0.1886364,
                "tempo": 120.0
            },
            {
                "start_time": 51.5590909,
                "end_time": 51.7454545,
                "pitch": 54,
                "velocity": 127,
                "duration": 0.1863636,
                "tempo": 120.0
            },
            {
                "start_time": 51.7840909,
                "end_time": 51.875,
                "pitch": 50,
                "velocity": 127,
                "duration": 0.0909091,
                "tempo": 120.0
            },
            {
                "start_time": 51.8954545,
                "end_time": 52.0795455,
                "pitch": 57,
                "velocity": 127,
                "duration": 0.1840909,
                "tempo": 120.0
            },
            {
                "start_time": 51.5590909,
                "end_time": 52.1159091,
                "pitch": 19,
                "velocity": 127,
                "duration": 0.5568182,
                "tempo": 120.0
            },
            {
                "start_time": 51.7840909,
                "end_time": 52.2068182,
                "pitch": 54,
                "velocity": 127,
                "duration": 0.4227273,
                "tempo": 120.0
            },
            {
                "start_time": 52.1159091,
                "end_time": 52.2068182,
                "pitch": 54,
                "velocity": 127,
                "duration": 0.0909091,
                "tempo": 120.0
            },
            {
                "start_time": 52.2272727,
                "end_time": 52.3181818,
                "pitch": 50,
                "velocity": 127,
                "duration": 0.0909091,
                "tempo": 120.0
            },
            {
                "start_time": 51.8954545,
                "end_time": 52.3363636,
                "pitch": 65,
                "velocity": 127,
                "duration": 0.4409091,
                "tempo": 120.0
            },
            {
                "start_time": 52.3363636,
                "end_time": 52.5204545,
                "pitch": 57,
                "velocity": 127,
                "duration": 0.1840909,
                "tempo": 120.0
            },
            {
                "start_time": 52.1159091,
                "end_time": 52.5568182,
                "pitch": 19,
                "velocity": 127,
                "duration": 0.4409091,
                "tempo": 120.0
            },
            {
                "start_time": 52.5568182,
                "end_time": 52.65,
                "pitch": 50,
                "velocity": 127,
                "duration": 0.0931818,
                "tempo": 120.0
            },
            {
                "start_time": 52.2272727,
                "end_time": 52.7590909,
                "pitch": 54,
                "velocity": 127,
                "duration": 0.5318182,
                "tempo": 120.0
            },
            {
                "start_time": 52.6681818,
                "end_time": 52.7590909,
                "pitch": 54,
                "velocity": 127,
                "duration": 0.0909091,
                "tempo": 120.0
            },
            {
                "start_time": 52.6681818,
                "end_time": 52.8704545,
                "pitch": 50,
                "velocity": 127,
                "duration": 0.2022727,
                "tempo": 120.0
            },
            {
                "start_time": 52.7795455,
                "end_time": 52.8704545,
                "pitch": 50,
                "velocity": 127,
                "duration": 0.0909091,
                "tempo": 120.0
            },
            {
                "start_time": 52.3363636,
                "end_time": 52.8886364,
                "pitch": 65,
                "velocity": 127,
                "duration": 0.5522727,
                "tempo": 120.0
            },
            {
                "start_time": 51.225,
                "end_time": 52.9795455,
                "pitch": 55,
                "velocity": 127,
                "duration": 1.7545455,
                "tempo": 120.0
            },
            {
                "start_time": 52.8886364,
                "end_time": 52.9795455,
                "pitch": 55,
                "velocity": 127,
                "duration": 0.0909091,
                "tempo": 120.0
            },
            {
                "start_time": 53.0,
                "end_time": 53.0909091,
                "pitch": 58,
                "velocity": 127,
                "duration": 0.0909091,
                "tempo": 120.0
            },
            {
                "start_time": 50.45,
                "end_time": 53.2022727,
                "pitch": 63,
                "velocity": 127,
                "duration": 2.7522727,
                "tempo": 120.0
            },
            {
                "start_time": 53.1090909,
                "end_time": 53.2022727,
                "pitch": 63,
                "velocity": 127,
                "duration": 0.0931818,
                "tempo": 120.0
            },
            {
                "start_time": 52.8886364,
                "end_time": 53.2204545,
                "pitch": 65,
                "velocity": 127,
                "duration": 0.3318182,
                "tempo": 120.0
            },
            {
                "start_time": 53.2204545,
                "end_time": 53.3113636,
                "pitch": 58,
                "velocity": 127,
                "duration": 0.0909091,
                "tempo": 120.0
            },
            {
                "start_time": 53.1090909,
                "end_time": 53.3318182,
                "pitch": 38,
                "velocity": 127,
                "duration": 0.2227273,
                "tempo": 120.0
            },
            {
                "start_time": 53.3318182,
                "end_time": 53.4227273,
                "pitch": 63,
                "velocity": 127,
                "duration": 0.0909091,
                "tempo": 120.0
            },
            {
                "start_time": 53.4409091,
                "end_time": 53.625,
                "pitch": 63,
                "velocity": 127,
                "duration": 0.1840909,
                "tempo": 120.0
            },
            {
                "start_time": 53.2204545,
                "end_time": 53.6613636,
                "pitch": 65,
                "velocity": 127,
                "duration": 0.4409091,
                "tempo": 120.0
            },
            {
                "start_time": 53.6613636,
                "end_time": 53.7522727,
                "pitch": 57,
                "velocity": 127,
                "duration": 0.0909091,
                "tempo": 120.0
            },
            {
                "start_time": 42.4977273,
                "end_time": 53.8636364,
                "pitch": 62,
                "velocity": 127,
                "duration": 11.3659091,
                "tempo": 120.0
            },
            {
                "start_time": 53.7727273,
                "end_time": 53.8636364,
                "pitch": 62,
                "velocity": 127,
                "duration": 0.0909091,
                "tempo": 120.0
            },
            {
                "start_time": 53.8818182,
                "end_time": 54.0659091,
                "pitch": 62,
                "velocity": 127,
                "duration": 0.1840909,
                "tempo": 120.0
            },
            {
                "start_time": 51.0090909,
                "end_time": 54.1045455,
                "pitch": 64,
                "velocity": 127,
                "duration": 3.0954545,
                "tempo": 120.0
            },
            {
                "start_time": 54.1045455,
                "end_time": 54.1954545,
                "pitch": 56,
                "velocity": 127,
                "duration": 0.0909091,
                "tempo": 120.0
            },
            {
                "start_time": 52.5568182,
                "end_time": 54.2136364,
                "pitch": 19,
                "velocity": 127,
                "duration": 1.6568182,
                "tempo": 120.0
            },
            {
                "start_time": 54.2136364,
                "end_time": 54.3045455,
                "pitch": 61,
                "velocity": 127,
                "duration": 0.0909091,
                "tempo": 120.0
            },
            {
                "start_time": 54.325,
                "end_time": 54.5090909,
                "pitch": 61,
                "velocity": 127,
                "duration": 0.1840909,
                "tempo": 120.0
            },
            {
                "start_time": 54.1045455,
                "end_time": 54.5454545,
                "pitch": 64,
                "velocity": 127,
                "duration": 0.4409091,
                "tempo": 120.0
            },
            {
                "start_time": 54.5454545,
                "end_time": 54.6363636,
                "pitch": 59,
                "velocity": 127,
                "duration": 0.0909091,
                "tempo": 120.0
            },
            {
                "start_time": 54.6568182,
                "end_time": 54.7477273,
                "pitch": 59,
                "velocity": 127,
                "duration": 0.0909091,
                "tempo": 120.0
            },
            {
                "start_time": 54.7659091,
                "end_time": 54.8568182,
                "pitch": 58,
                "velocity": 127,
                "duration": 0.0909091,
                "tempo": 120.0
            },
            {
                "start_time": 53.7727273,
                "end_time": 54.8772727,
                "pitch": 31,
                "velocity": 127,
                "duration": 1.1045455,
                "tempo": 120.0
            },
            {
                "start_time": 54.8772727,
                "end_time": 54.9704545,
                "pitch": 61,
                "velocity": 127,
                "duration": 0.0931818,
                "tempo": 120.0
            },
            {
                "start_time": 54.5454545,
                "end_time": 54.9886364,
                "pitch": 64,
                "velocity": 127,
                "duration": 0.4431818,
                "tempo": 120.0
            },
            {
                "start_time": 54.9886364,
                "end_time": 55.0840909,
                "pitch": 56,
                "velocity": 127,
                "duration": 0.0954545,
                "tempo": 120.0
            },
            {
                "start_time": 54.2136364,
                "end_time": 55.1022727,
                "pitch": 19,
                "velocity": 127,
                "duration": 0.8886364,
                "tempo": 120.0
            },
            {
                "start_time": 55.1022727,
                "end_time": 55.1954545,
                "pitch": 61,
                "velocity": 127,
                "duration": 0.0931818,
                "tempo": 120.0
            },
            {
                "start_time": 55.2159091,
                "end_time": 55.4,
                "pitch": 61,
                "velocity": 127,
                "duration": 0.1840909,
                "tempo": 120.0
            },
            {
                "start_time": 53.6613636,
                "end_time": 55.4363636,
                "pitch": 65,
                "velocity": 127,
                "duration": 1.775,
                "tempo": 120.0
            },
            {
                "start_time": 55.4363636,
                "end_time": 55.525,
                "pitch": 56,
                "velocity": 127,
                "duration": 0.0886364,
                "tempo": 120.0
            },
            {
                "start_time": 55.1022727,
                "end_time": 55.5454545,
                "pitch": 19,
                "velocity": 127,
                "duration": 0.4431818,
                "tempo": 120.0
            },
            {
                "start_time": 55.5454545,
                "end_time": 55.6340909,
                "pitch": 63,
                "velocity": 127,
                "duration": 0.0886364,
                "tempo": 120.0
            },
            {
                "start_time": 55.6522727,
                "end_time": 55.8340909,
                "pitch": 63,
                "velocity": 127,
                "duration": 0.1818182,
                "tempo": 120.0
            },
            {
                "start_time": 54.9886364,
                "end_time": 55.8704545,
                "pitch": 64,
                "velocity": 127,
                "duration": 0.8818182,
                "tempo": 120.0
            },
            {
                "start_time": 55.8704545,
                "end_time": 55.9613636,
                "pitch": 61,
                "velocity": 127,
                "duration": 0.0909091,
                "tempo": 120.0
            },
            {
                "start_time": 55.9818182,
                "end_time": 56.0727273,
                "pitch": 61,
                "velocity": 127,
                "duration": 0.0909091,
                "tempo": 120.0
            },
            {
                "start_time": 56.0909091,
                "end_time": 56.1840909,
                "pitch": 63,
                "velocity": 127,
                "duration": 0.0931818,
                "tempo": 120.0
            },
            {
                "start_time": 56.2022727,
                "end_time": 56.2954545,
                "pitch": 68,
                "velocity": 127,
                "duration": 0.0931818,
                "tempo": 120.0
            },
            {
                "start_time": 56.3159091,
                "end_time": 56.5772727,
                "pitch": 71,
                "velocity": 127,
                "duration": 0.2613636,
                "tempo": 120.0
            }
        ],
        "Trumpet": [
            {
                "start_time": 31.8863636,
                "end_time": 31.9772727,
                "pitch": 59,
                "velocity": 101,
                "duration": 0.0909091,
                "tempo": 120.0
            },
            {
                "start_time": 31.9954545,
                "end_time": 32.0863636,
                "pitch": 59,
                "velocity": 101,
                "duration": 0.0909091,
                "tempo": 120.0
            },
            {
                "start_time": 32.1068182,
                "end_time": 32.1977273,
                "pitch": 54,
                "velocity": 101,
                "duration": 0.0909091,
                "tempo": 120.0
            },
            {
                "start_time": 32.2159091,
                "end_time": 32.2181818,
                "pitch": 66,
                "velocity": 101,
                "duration": 0.0022727,
                "tempo": 120.0
            },
            {
                "start_time": 32.2181818,
                "end_time": 32.4,
                "pitch": 59,
                "velocity": 101,
                "duration": 0.1818182,
                "tempo": 120.0
            },
            {
                "start_time": 32.1068182,
                "end_time": 32.4386364,
                "pitch": 32,
                "velocity": 101,
                "duration": 0.3318182,
                "tempo": 120.0
            },
            {
                "start_time": 32.4386364,
                "end_time": 32.5295455,
                "pitch": 50,
                "velocity": 101,
                "duration": 0.0909091,
                "tempo": 120.0
            },
            {
                "start_time": 32.5477273,
                "end_time": 32.6386364,
                "pitch": 57,
                "velocity": 101,
                "duration": 0.0909091,
                "tempo": 120.0
            },
            {
                "start_time": 32.6590909,
                "end_time": 32.75,
                "pitch": 54,
                "velocity": 101,
                "duration": 0.0909091,
                "tempo": 120.0
            },
            {
                "start_time": 32.7681818,
                "end_time": 32.8613636,
                "pitch": 59,
                "velocity": 101,
                "duration": 0.0931818,
                "tempo": 120.0
            },
            {
                "start_time": 32.4386364,
                "end_time": 32.8795455,
                "pitch": 32,
                "velocity": 101,
                "duration": 0.4409091,
                "tempo": 120.0
            },
            {
                "start_time": 32.8795455,
                "end_time": 33.0636364,
                "pitch": 54,
                "velocity": 101,
                "duration": 0.1840909,
                "tempo": 120.0
            },
            {
                "start_time": 32.7681818,
                "end_time": 33.1,
                "pitch": 66,
                "velocity": 101,
                "duration": 0.3318182,
                "tempo": 120.0
            },
            {
                "start_time": 33.1,
                "end_time": 33.2840909,
                "pitch": 59,
                "velocity": 101,
                "duration": 0.1840909,
                "tempo": 120.0
            },
            {
                "start_time": 32.8795455,
                "end_time": 33.3204545,
                "pitch": 32,
                "velocity": 101,
                "duration": 0.4409091,
                "tempo": 120.0
            },
            {
                "start_time": 33.3204545,
                "end_time": 33.4136364,
                "pitch": 50,
                "velocity": 101,
                "duration": 0.0931818,
                "tempo": 120.0
            },
            {
                "start_time": 33.4318182,
                "end_time": 33.5227273,
                "pitch": 54,
                "velocity": 101,
                "duration": 0.0909091,
                "tempo": 120.0
            },
            {
                "start_time": 33.1,
                "end_time": 33.5431818,
                "pitch": 66,
                "velocity": 101,
                "duration": 0.4431818,
                "tempo": 120.0
            },
            {
                "start_time": 33.5431818,
                "end_time": 33.6340909,
                "pitch": 59,
                "velocity": 101,
                "duration": 0.0909091,
                "tempo": 120.0
            },
            {
                "start_time": 33.6522727,
                "end_time": 33.7431818,
                "pitch": 59,
                "velocity": 101,
                "duration": 0.0909091,
                "tempo": 120.0
            },
            {
                "start_time": 33.7636364,
                "end_time": 33.8545455,
                "pitch": 59,
                "velocity": 101,
                "duration": 0.0909091,
                "tempo": 120.0
            },
            {
                "start_time": 33.3204545,
                "end_time": 33.8727273,
                "pitch": 32,
                "velocity": 101,
                "duration": 0.5522727,
                "tempo": 120.0
            },
            {
                "start_time": 33.8727273,
                "end_time": 33.9659091,
                "pitch": 54,
                "velocity": 101,
                "duration": 0.0931818,
                "tempo": 120.0
            },
            {
                "start_time": 33.5431818,
                "end_time": 33.9840909,
                "pitch": 66,
                "velocity": 101,
                "duration": 0.4409091,
                "tempo": 120.0
            },
            {
                "start_time": 33.9840909,
                "end_time": 34.1681818,
                "pitch": 59,
                "velocity": 101,
                "duration": 0.1840909,
                "tempo": 120.0
            },
            {
                "start_time": 33.8727273,
                "end_time": 34.2045455,
                "pitch": 32,
                "velocity": 101,
                "duration": 0.3318182,
                "tempo": 120.0
            },
            {
                "start_time": 33.4318182,
                "end_time": 34.2954545,
                "pitch": 50,
                "velocity": 101,
                "duration": 0.8636364,
                "tempo": 120.0
            },
            {
                "start_time": 34.2045455,
                "end_time": 34.2954545,
                "pitch": 50,
                "velocity": 101,
                "duration": 0.0909091,
                "tempo": 120.0
            },
            {
                "start_time": 32.5477273,
                "end_time": 34.3159091,
                "pitch": 65,
                "velocity": 101,
                "duration": 1.7681818,
                "tempo": 120.0
            },
            {
                "start_time": 34.3159091,
                "end_time": 34.4068182,
                "pitch": 57,
                "velocity": 101,
                "duration": 0.0909091,
                "tempo": 120.0
            },
            {
                "start_time": 32.6590909,
                "end_time": 34.425,
                "pitch": 19,
                "velocity": 101,
                "duration": 1.7659091,
                "tempo": 120.0
            },
            {
                "start_time": 34.425,
                "end_time": 34.5159091,
                "pitch": 54,
                "velocity": 101,
                "duration": 0.0909091,
                "tempo": 120.0
            },
            {
                "start_time": 33.9840909,
                "end_time": 34.5363636,
                "pitch": 66,
                "velocity": 101,
                "duration": 0.5522727,
                "tempo": 120.0
            },
            {
                "start_time": 34.5363636,
                "end_time": 34.6272727,
                "pitch": 59,
                "velocity": 101,
                "duration": 0.0909091,
                "tempo": 120.0
            },
            {
                "start_time": 34.2045455,
                "end_time": 34.6477273,
                "pitch": 32,
                "velocity": 101,
                "duration": 0.4431818,
                "tempo": 120.0
            },
            {
                "start_time": 34.6477273,
                "end_time": 34.8295455,
                "pitch": 54,
                "velocity": 101,
                "duration": 0.1818182,
                "tempo": 120.0
            },
            {
                "start_time": 34.5363636,
                "end_time": 34.8681818,
                "pitch": 66,
                "velocity": 101,
                "duration": 0.3318182,
                "tempo": 120.0
            },
            {
                "start_time": 34.8681818,
                "end_time": 35.05,
                "pitch": 59,
                "velocity": 101,
                "duration": 0.1818182,
                "tempo": 120.0
            },
            {
                "start_time": 34.6477273,
                "end_time": 35.0886364,
                "pitch": 32,
                "velocity": 101,
                "duration": 0.4409091,
                "tempo": 120.0
            },
            {
                "start_time": 35.0886364,
                "end_time": 35.1795455,
                "pitch": 50,
                "velocity": 101,
                "duration": 0.0909091,
                "tempo": 120.0
            },
            {
                "start_time": 35.1977273,
                "end_time": 35.2909091,
                "pitch": 54,
                "velocity": 101,
                "duration": 0.0931818,
                "tempo": 120.0
            },
            {
                "start_time": 34.8681818,
                "end_time": 35.3090909,
                "pitch": 66,
                "velocity": 101,
                "duration": 0.4409091,
                "tempo": 120.0
            },
            {
                "start_time": 35.3090909,
                "end_time": 35.4,
                "pitch": 59,
                "velocity": 101,
                "duration": 0.0909091,
                "tempo": 120.0
            },
            {
                "start_time": 35.4204545,
                "end_time": 35.6068182,
                "pitch": 63,
                "velocity": 101,
                "duration": 0.1863636,
                "tempo": 120.0
            },
            {
                "start_time": 35.6454545,
                "end_time": 35.7386364,
                "pitch": 63,
                "velocity": 101,
                "duration": 0.0931818,
                "tempo": 120.0
            },
            {
                "start_time": 35.7590909,
                "end_time": 35.9431818,
                "pitch": 63,
                "velocity": 101,
                "duration": 0.1840909,
                "tempo": 120.0
            },
            {
                "start_time": 35.9795455,
                "end_time": 36.1590909,
                "pitch": 63,
                "velocity": 101,
                "duration": 0.1795455,
                "tempo": 120.0
            },
            {
                "start_time": 36.1954545,
                "end_time": 36.3772727,
                "pitch": 63,
                "velocity": 101,
                "duration": 0.1818182,
                "tempo": 120.0
            },
            {
                "start_time": 36.4136364,
                "end_time": 36.5977273,
                "pitch": 63,
                "velocity": 101,
                "duration": 0.1840909,
                "tempo": 120.0
            },
            {
                "start_time": 36.6340909,
                "end_time": 36.8181818,
                "pitch": 63,
                "velocity": 101,
                "duration": 0.1840909,
                "tempo": 120.0
            },
            {
                "start_time": 36.8568182,
                "end_time": 36.9477273,
                "pitch": 63,
                "velocity": 101,
                "duration": 0.0909091,
                "tempo": 120.0
            },
            {
                "start_time": 36.9659091,
                "end_time": 37.0568182,
                "pitch": 63,
                "velocity": 101,
                "duration": 0.0909091,
                "tempo": 120.0
            },
            {
                "start_time": 37.0772727,
                "end_time": 37.1681818,
                "pitch": 63,
                "velocity": 101,
                "duration": 0.0909091,
                "tempo": 120.0
            },
            {
                "start_time": 37.1863636,
                "end_time": 37.375,
                "pitch": 63,
                "velocity": 101,
                "duration": 0.1886364,
                "tempo": 120.0
            },
            {
                "start_time": 37.4113636,
                "end_time": 37.5068182,
                "pitch": 63,
                "velocity": 101,
                "duration": 0.0954545,
                "tempo": 120.0
            },
            {
                "start_time": 37.525,
                "end_time": 37.7090909,
                "pitch": 63,
                "velocity": 101,
                "duration": 0.1840909,
                "tempo": 120.0
            },
            {
                "start_time": 37.7454545,
                "end_time": 37.925,
                "pitch": 63,
                "velocity": 101,
                "duration": 0.1795455,
                "tempo": 120.0
            },
            {
                "start_time": 37.9636364,
                "end_time": 38.1454545,
                "pitch": 63,
                "velocity": 101,
                "duration": 0.1818182,
                "tempo": 120.0
            },
            {
                "start_time": 38.1840909,
                "end_time": 38.3704545,
                "pitch": 63,
                "velocity": 101,
                "duration": 0.1863636,
                "tempo": 120.0
            },
            {
                "start_time": 38.4090909,
                "end_time": 38.5931818,
                "pitch": 63,
                "velocity": 101,
                "duration": 0.1840909,
                "tempo": 120.0
            },
            {
                "start_time": 38.6295455,
                "end_time": 38.7181818,
                "pitch": 63,
                "velocity": 101,
                "duration": 0.0886364,
                "tempo": 120.0
            },
            {
                "start_time": 38.7386364,
                "end_time": 38.8272727,
                "pitch": 63,
                "velocity": 101,
                "duration": 0.0886364,
                "tempo": 120.0
            },
            {
                "start_time": 38.8454545,
                "end_time": 38.9340909,
                "pitch": 63,
                "velocity": 101,
                "duration": 0.0886364,
                "tempo": 120.0
            },
            {
                "start_time": 34.3159091,
                "end_time": 38.9545455,
                "pitch": 65,
                "velocity": 101,
                "duration": 4.6386364,
                "tempo": 120.0
            },
            {
                "start_time": 38.9545455,
                "end_time": 39.0477273,
                "pitch": 56,
                "velocity": 101,
                "duration": 0.0931818,
                "tempo": 120.0
            },
            {
                "start_time": 39.0681818,
                "end_time": 39.1636364,
                "pitch": 56,
                "velocity": 101,
                "duration": 0.0954545,
                "tempo": 120.0
            },
            {
                "start_time": 39.1840909,
                "end_time": 39.2795455,
                "pitch": 51,
                "velocity": 101,
                "duration": 0.0954545,
                "tempo": 120.0
            },
            {
                "start_time": 39.3,
                "end_time": 39.4863636,
                "pitch": 54,
                "velocity": 101,
                "duration": 0.1863636,
                "tempo": 120.0
            },
            {
                "start_time": 39.3,
                "end_time": 39.6136364,
                "pitch": 51,
                "velocity": 101,
                "duration": 0.3136364,
                "tempo": 120.0
            },
            {
                "start_time": 39.5227273,
                "end_time": 39.6136364,
                "pitch": 51,
                "velocity": 101,
                "duration": 0.0909091,
                "tempo": 120.0
            },
            {
                "start_time": 39.5227273,
                "end_time": 39.7204545,
                "pitch": 54,
                "velocity": 101,
                "duration": 0.1977273,
                "tempo": 120.0
            },
            {
                "start_time": 39.6318182,
                "end_time": 39.7204545,
                "pitch": 54,
                "velocity": 101,
                "duration": 0.0886364,
                "tempo": 120.0
            },
            {
                "start_time": 39.6318182,
                "end_time": 39.8295455,
                "pitch": 51,
                "velocity": 101,
                "duration": 0.1977273,
                "tempo": 120.0
            },
            {
                "start_time": 39.7386364,
                "end_time": 39.8295455,
                "pitch": 51,
                "velocity": 101,
                "duration": 0.0909091,
                "tempo": 120.0
            },
            {
                "start_time": 38.9545455,
                "end_time": 39.8477273,
                "pitch": 65,
                "velocity": 101,
                "duration": 0.8931818,
                "tempo": 120.0
            },
            {
                "start_time": 39.8477273,
                "end_time": 39.9386364,
                "pitch": 56,
                "velocity": 101,
                "duration": 0.0909091,
                "tempo": 120.0
            },
            {
                "start_time": 39.9568182,
                "end_time": 40.05,
                "pitch": 56,
                "velocity": 101,
                "duration": 0.0931818,
                "tempo": 120.0
            },
            {
                "start_time": 39.1840909,
                "end_time": 40.0681818,
                "pitch": 7,
                "velocity": 101,
                "duration": 0.8840909,
                "tempo": 120.0
            },
            {
                "start_time": 40.0681818,
                "end_time": 40.1590909,
                "pitch": 51,
                "velocity": 101,
                "duration": 0.0909091,
                "tempo": 120.0
            },
            {
                "start_time": 39.7386364,
                "end_time": 40.3613636,
                "pitch": 54,
                "velocity": 101,
                "duration": 0.6227273,
                "tempo": 120.0
            },
            {
                "start_time": 40.1795455,
                "end_time": 40.3613636,
                "pitch": 54,
                "velocity": 101,
                "duration": 0.1818182,
                "tempo": 120.0
            },
            {
                "start_time": 40.1795455,
                "end_time": 40.4863636,
                "pitch": 51,
                "velocity": 101,
                "duration": 0.3068182,
                "tempo": 120.0
            },
            {
                "start_time": 40.3977273,
                "end_time": 40.4863636,
                "pitch": 51,
                "velocity": 101,
                "duration": 0.0886364,
                "tempo": 120.0
            },
            {
                "start_time": 40.3977273,
                "end_time": 40.5954545,
                "pitch": 54,
                "velocity": 101,
                "duration": 0.1977273,
                "tempo": 120.0
            },
            {
                "start_time": 40.5045455,
                "end_time": 40.5954545,
                "pitch": 54,
                "velocity": 101,
                "duration": 0.0909091,
                "tempo": 120.0
            },
            {
                "start_time": 35.3090909,
                "end_time": 40.6136364,
                "pitch": 66,
                "velocity": 101,
                "duration": 5.3045455,
                "tempo": 120.0
            },
            {
                "start_time": 40.6136364,
                "end_time": 40.7022727,
                "pitch": 55,
                "velocity": 101,
                "duration": 0.0886364,
                "tempo": 120.0
            },
            {
                "start_time": 40.7227273,
                "end_time": 40.8136364,
                "pitch": 55,
                "velocity": 101,
                "duration": 0.0909091,
                "tempo": 120.0
            },
            {
                "start_time": 40.8340909,
                "end_time": 40.9272727,
                "pitch": 55,
                "velocity": 101,
                "duration": 0.0931818,
                "tempo": 120.0
            },
            {
                "start_time": 40.9477273,
                "end_time": 41.0409091,
                "pitch": 67,
                "velocity": 101,
                "duration": 0.0931818,
                "tempo": 120.0
            },
            {
                "start_time": 41.0590909,
                "end_time": 41.2454545,
                "pitch": 55,
                "velocity": 101,
                "duration": 0.1863636,
                "tempo": 120.0
            },
            {
                "start_time": 41.2840909,
                "end_time": 41.375,
                "pitch": 55,
                "velocity": 101,
                "duration": 0.0909091,
                "tempo": 120.0
            },
            {
                "start_time": 41.3931818,
                "end_time": 41.4840909,
                "pitch": 67,
                "velocity": 101,
                "duration": 0.0909091,
                "tempo": 120.0
            },
            {
                "start_time": 41.5045455,
                "end_time": 41.5954545,
                "pitch": 55,
                "velocity": 101,
                "duration": 0.0909091,
                "tempo": 120.0
            },
            {
                "start_time": 41.6136364,
                "end_time": 41.7068182,
                "pitch": 53,
                "velocity": 101,
                "duration": 0.0931818,
                "tempo": 120.0
            },
            {
                "start_time": 40.6136364,
                "end_time": 41.725,
                "pitch": 66,
                "velocity": 101,
                "duration": 1.1113636,
                "tempo": 120.0
            },
            {
                "start_time": 41.725,
                "end_time": 41.9090909,
                "pitch": 58,
                "velocity": 101,
                "duration": 0.1840909,
                "tempo": 120.0
            },
            {
                "start_time": 41.9454545,
                "end_time": 42.0363636,
                "pitch": 58,
                "velocity": 101,
                "duration": 0.0909091,
                "tempo": 120.0
            },
            {
                "start_time": 42.0568182,
                "end_time": 42.1477273,
                "pitch": 52,
                "velocity": 101,
                "duration": 0.0909091,
                "tempo": 120.0
            },
            {
                "start_time": 42.1659091,
                "end_time": 42.2590909,
                "pitch": 52,
                "velocity": 101,
                "duration": 0.0931818,
                "tempo": 120.0
            },
            {
                "start_time": 41.725,
                "end_time": 42.2772727,
                "pitch": 66,
                "velocity": 101,
                "duration": 0.5522727,
                "tempo": 120.0
            },
            {
                "start_time": 42.2772727,
                "end_time": 42.3681818,
                "pitch": 55,
                "velocity": 101,
                "duration": 0.0909091,
                "tempo": 120.0
            },
            {
                "start_time": 42.3863636,
                "end_time": 42.3886364,
                "pitch": 55,
                "velocity": 101,
                "duration": 0.0022727,
                "tempo": 120.0
            },
            {
                "start_time": 42.3886364,
                "end_time": 42.4795455,
                "pitch": 58,
                "velocity": 101,
                "duration": 0.0909091,
                "tempo": 120.0
            },
            {
                "start_time": 53.1113636,
                "end_time": 54.5818182,
                "pitch": 81,
                "velocity": 101,
                "duration": 1.4704545,
                "tempo": 120.0
            },
            {
                "start_time": 54.8772727,
                "end_time": 56.3522727,
                "pitch": 71,
                "velocity": 101,
                "duration": 1.475,
                "tempo": 120.0
            }
        ],
        "Electric Piano 1": [
            {
                "start_time": 38.9545455,
                "end_time": 40.4318182,
                "pitch": 72,
                "velocity": 101,
                "duration": 1.4772727,
                "tempo": 120.0
            },
            {
                "start_time": 40.7204545,
                "end_time": 40.7227273,
                "pitch": 96,
                "velocity": 101,
                "duration": 0.0022727,
                "tempo": 120.0
            },
            {
                "start_time": 40.7227273,
                "end_time": 42.2022727,
                "pitch": 98,
                "velocity": 101,
                "duration": 1.4795455,
                "tempo": 120.0
            }
        ],
        "Church Organ": [
            {
                "start_time": 23.0409091,
                "end_time": 24.5136364,
                "pitch": 73,
                "velocity": 127,
                "duration": 1.4727273,
                "tempo": 120.0
            },
            {
                "start_time": 24.8068182,
                "end_time": 26.2863636,
                "pitch": 73,
                "velocity": 127,
                "duration": 1.4795455,
                "tempo": 120.0
            },
            {
                "start_time": 26.575,
                "end_time": 28.0522727,
                "pitch": 74,
                "velocity": 127,
                "duration": 1.4772727,
                "tempo": 120.0
            }
        ]
    }
}