{
    "mood": "angry",
    "instruments": {
        "Lead 2 (sawtooth)": [
            {
                "start_time": 0.0068182,
                "end_time": 0.7545455,
                "pitch": 64,
                "velocity": 64,
                "duration": 0.7477273,
                "tempo": 120.0
            },
            {
                "start_time": 0.7545455,
                "end_time": 1.5181818,
                "pitch": 67,
                "velocity": 64,
                "duration": 0.7636364,
                "tempo": 120.0
            },
            {
                "start_time": 1.5181818,
                "end_time": 1.9090909,
                "pitch": 64,
                "velocity": 64,
                "duration": 0.3909091,
                "tempo": 120.0
            },
            {
                "start_time": 1.9090909,
                "end_time": 2.0977273,
                "pitch": 76,
                "velocity": 64,
                "duration": 0.1886364,
                "tempo": 120.0
            },
            {
                "start_time": 2.0977273,
                "end_time": 3.0659091,
                "pitch": 75,
                "velocity": 64,
                "duration": 0.9681818,
                "tempo": 120.0
            },
            {
                "start_time": 3.0659091,
                "end_time": 3.8522727,
                "pitch": 64,
                "velocity": 64,
                "duration": 0.7863636,
                "tempo": 120.0
            },
            {
                "start_time": 3.8522727,
                "end_time": 4.6159091,
                "pitch": 67,
                "velocity": 64,
                "duration": 0.7636364,
                "tempo": 120.0
            },
            {
                "start_time": 4.6159091,
                "end_time": 4.9909091,
                "pitch": 64,
                "velocity": 64,
                "duration": 0.375,
                "tempo": 120.0
            },
            {
                "start_time": 4.9909091,
                "end_time": 5.1931818,
                "pitch": 64,
                "velocity": 64,
                "duration": 0.2022727,
                "tempo": 120.0
            },
            {
                "start_time": 5.1931818,
                "end_time": 6.1636364,
                "pitch": 63,
                "velocity": 64,
                "duration": 0.9704545,
                "tempo": 120.0
            },
            {
                "start_time": 6.1636364,
                "end_time": 6.9409091,
                "pitch": 64,
                "velocity": 64,
                "duration": 0.7772727,
                "tempo": 120.0
            },
            {
                "start_time": 6.9431818,
                "end_time": 7.7159091,
                "pitch": 67,
                "velocity": 64,
                "duration": 0.7727273,
                "tempo": 120.0
            },
            {
                "start_time": 7.7159091,
                "end_time": 8.1,
                "pitch": 64,
                "velocity": 64,
                "duration": 0.3840909,
                "tempo": 120.0
            },
            {
                "start_time": 8.1,
                "end_time": 8.2954545,
                "pitch": 76,
                "velocity": 64,
                "duration": 0.1954545,
                "tempo": 120.0
            },
            {
                "start_time": 8.2977273,
                "end_time": 9.2727273,
                "pitch": 75,
                "velocity": 64,
                "duration": 0.975,
                "tempo": 120.0
            },
            {
                "start_time": 9.2727273,
                "end_time": 10.025,
                "pitch": 64,
                "velocity": 64,
                "duration": 0.7522727,
                "tempo": 120.0
            },
            {
                "start_time": 10.025,
                "end_time": 10.825,
                "pitch": 67,
                "velocity": 64,
                "duration": 0.8,
                "tempo": 120.0
            },
            {
                "start_time": 10.825,
                "end_time": 11.2,
                "pitch": 64,
                "velocity": 64,
                "duration": 0.375,
                "tempo": 120.0
            },
            {
                "start_time": 11.2,
                "end_time": 11.3954545,
                "pitch": 64,
                "velocity": 64,
                "duration": 0.1954545,
                "tempo": 120.0
            },
            {
                "start_time": 11.3977273,
                "end_time": 12.3545455,
                "pitch": 63,
                "velocity": 64,
                "duration": 0.9568182,
                "tempo": 120.0
            }
        ],
        "Synth Bass 1": [
            {
                "start_time": 0.0022727,
                "end_time": 0.1818182,
                "pitch": 45,
                "velocity": 80,
                "duration": 0.1795455,
                "tempo": 120.0
            },
            {
                "start_time": 0.1818182,
                "end_time": 0.3772727,
                "pitch": 45,
                "velocity": 80,
                "duration": 0.1954545,
                "tempo": 120.0
            },
            {
                "start_time": 0.3772727,
                "end_time": 0.5568182,
                "pitch": 45,
                "velocity": 80,
                "duration": 0.1795455,
                "tempo": 120.0
            },
            {
                "start_time": 0.5568182,
                "end_time": 0.7545455,
                "pitch": 45,
                "velocity": 80,
                "duration": 0.1977273,
                "tempo": 120.0
            },
            {
                "start_time": 0.7545455,
                "end_time": 0.95,
                "pitch": 45,
                "velocity": 80,
                "duration": 0.1954545,
                "tempo": 120.0
            },
            {
                "start_time": 0.95,
                "end_time": 1.1295455,
                "pitch": 45,
                "velocity": 80,
                "duration": 0.1795455,
                "tempo": 120.0
            },
            {
                "start_time": 1.1295455,
                "end_time": 1.3318182,
                "pitch": 45,
                "velocity": 80,
                "duration": 0.2022727,
                "tempo": 120.0
            },
            {
                "start_time": 1.3318182,
                "end_time": 1.5159091,
                "pitch": 45,
                "velocity": 80,
                "duration": 0.1840909,
                "tempo": 120.0
            },
            {
                "start_time": 1.5159091,
                "end_time": 1.7113636,
                "pitch": 45,
                "velocity": 80,
                "duration": 0.1954545,
                "tempo": 120.0
            },
            {
                "start_time": 1.7113636,
                "end_time": 1.9090909,
                "pitch": 45,
                "velocity": 80,
                "duration": 0.1977273,
                "tempo": 120.0
            },
            {
                "start_time": 1.9090909,
                "end_time": 2.0954545,
                "pitch": 45,
                "velocity": 80,
                "duration": 0.1863636,
                "tempo": 120.0
            },
            {
                "start_time": 2.0954545,
                "end_time": 2.3022727,
                "pitch": 45,
                "velocity": 80,
                "duration": 0.2068182,
                "tempo": 120.0
            },
            {
                "start_time": 2.3022727,
                "end_time": 2.4818182,
                "pitch": 45,
                "velocity": 80,
                "duration": 0.1795455,
                "tempo": 120.0
            },
            {
                "start_time": 2.4818182,
                "end_time": 2.6772727,
                "pitch": 42,
                "velocity": 80,
                "duration": 0.1954545,
                "tempo": 120.0
            },
            {
                "start_time": 2.6772727,
                "end_time": 2.8795455,
                "pitch": 43,
                "velocity": 80,
                "duration": 0.2022727,
                "tempo": 120.0
            },
            {
                "start_time": 2.8795455,
                "end_time": 3.0636364,
                "pitch": 44,
                "velocity": 80,
                "duration": 0.1840909,
                "tempo": 120.0
            },
            {
                "start_time": 3.0636364,
                "end_time": 3.2590909,
                "pitch": 45,
                "velocity": 80,
                "duration": 0.1954545,
                "tempo": 120.0
            },
            {
                "start_time": 3.2590909,
                "end_time": 3.4568182,
                "pitch": 45,
                "velocity": 80,
                "duration": 0.1977273,
                "tempo": 120.0
            },
            {
                "start_time": 3.4568182,
                "end_time": 3.6454545,
                "pitch": 45,
                "velocity": 80,
                "duration": 0.1886364,
                "tempo": 120.0
            },
            {
                "start_time": 3.6454545,
                "end_time": 3.8522727,
                "pitch": 45,
                "velocity": 80,
                "duration": 0.2068182,
                "tempo": 120.0
            },
            {
                "start_time": 3.8522727,
                "end_time": 4.0318182,
                "pitch": 45,
                "velocity": 80,
                "duration": 0.1795455,
                "tempo": 120.0
            },
            {
                "start_time": 4.0318182,
                "end_time": 4.2272727,
                "pitch": 45,
                "velocity": 80,
                "duration": 0.1954545,
                "tempo": 120.0
            },
            {
                "start_time": 4.2295455,
                "end_time": 4.4295455,
                "pitch": 45,
                "velocity": 80,
                "duration": 0.2,
                "tempo": 120.0
            },
            {
                "start_time": 4.4295455,
                "end_time": 4.6136364,
                "pitch": 45,
                "velocity": 80,
                "duration": 0.1840909,
                "tempo": 120.0
            },
            {
                "start_time": 4.6136364,
                "end_time": 4.8113636,
                "pitch": 45,
                "velocity": 80,
                "duration": 0.1977273,
                "tempo": 120.0
            },
            {
                "start_time": 4.8113636,
                "end_time": 4.9909091,
                "pitch": 45,
                "velocity": 80,
                "duration": 0.1795455,
                "tempo": 120.0
            },
            {
                "start_time": 4.9909091,
                "end_time": 5.1909091,
                "pitch": 45,
                "velocity": 80,
                "duration": 0.2,
                "tempo": 120.0
            },
            {
                "start_time": 5.1909091,
                "end_time": 5.3931818,
                "pitch": 45,
                "velocity": 80,
                "duration": 0.2022727,
                "tempo": 120.0
            },
            {
                "start_time": 5.3931818,
                "end_time": 5.5818182,
                "pitch": 45,
                "velocity": 80,
                "duration": 0.1886364,
                "tempo": 120.0
            },
            {
                "start_time": 5.5818182,
                "end_time": 5.7863636,
                "pitch": 42,
                "velocity": 80,
                "duration": 0.2045455,
                "tempo": 120.0
            },
            {
                "start_time": 5.7863636,
                "end_time": 5.9659091,
                "pitch": 43,
                "velocity": 80,
                "duration": 0.1795455,
                "tempo": 120.0
            },
            {
                "start_time": 5.9659091,
                "end_time": 6.1636364,
                "pitch": 44,
                "velocity": 80,
                "duration": 0.1977273,
                "tempo": 120.0
            },
            {
                "start_time": 6.1636364,
                "end_time": 6.3636364,
                "pitch": 45,
                "velocity": 80,
                "duration": 0.2,
                "tempo": 120.0
            },
            {
                "start_time": 6.3636364,
                "end_time": 6.5477273,
                "pitch": 45,
                "velocity": 80,
                "duration": 0.1840909,
                "tempo": 120.0
            },
            {
                "start_time": 6.5477273,
                "end_time": 6.7454545,
                "pitch": 45,
                "velocity": 80,
                "duration": 0.1977273,
                "tempo": 120.0
            },
            {
                "start_time": 6.7454545,
                "end_time": 6.9409091,
                "pitch": 45,
                "velocity": 80,
                "duration": 0.1954545,
                "tempo": 120.0
            },
            {
                "start_time": 6.9409091,
                "end_time": 7.1295455,
                "pitch": 45,
                "velocity": 80,
                "duration": 0.1886364,
                "tempo": 120.0
            },
            {
                "start_time": 7.1295455,
                "end_time": 7.3363636,
                "pitch": 45,
                "velocity": 80,
                "duration": 0.2068182,
                "tempo": 120.0
            },
            {
                "start_time": 7.3363636,
                "end_time": 7.5159091,
                "pitch": 45,
                "velocity": 80,
                "duration": 0.1795455,
                "tempo": 120.0
            },
            {
                "start_time": 7.5181818,
                "end_time": 7.7136364,
                "pitch": 45,
                "velocity": 80,
                "duration": 0.1954545,
                "tempo": 120.0
            },
            {
                "start_time": 7.7136364,
                "end_time": 7.9136364,
                "pitch": 45,
                "velocity": 80,
                "duration": 0.2,
                "tempo": 120.0
            },
            {
                "start_time": 7.9136364,
                "end_time": 8.1,
                "pitch": 45,
                "velocity": 80,
                "duration": 0.1863636,
                "tempo": 120.0
            },
            {
                "start_time": 8.1,
                "end_time": 8.2954545,
                "pitch": 45,
                "velocity": 80,
                "duration": 0.1954545,
                "tempo": 120.0
            },
            {
                "start_time": 8.2954545,
                "end_time": 8.475,
                "pitch": 45,
                "velocity": 80,
                "duration": 0.1795455,
                "tempo": 120.0
            },
            {
                "start_time": 8.475,
                "end_time": 8.6704545,
                "pitch": 45,
                "velocity": 80,
                "duration": 0.1954545,
                "tempo": 120.0
            },
            {
                "start_time": 8.6727273,
                "end_time": 8.8681818,
                "pitch": 42,
                "velocity": 80,
                "duration": 0.1954545,
                "tempo": 120.0
            },
            {
                "start_time": 8.8681818,
                "end_time": 9.0613636,
                "pitch": 43,
                "velocity": 80,
                "duration": 0.1931818,
                "tempo": 120.0
            },
            {
                "start_time": 9.0613636,
                "end_time": 9.2727273,
                "pitch": 44,
                "velocity": 80,
                "duration": 0.2113636,
                "tempo": 120.0
            },
            {
                "start_time": 9.2727273,
                "end_time": 9.4681818,
                "pitch": 45,
                "velocity": 80,
                "duration": 0.1954545,
                "tempo": 120.0
            },
            {
                "start_time": 9.4681818,
                "end_time": 9.6477273,
                "pitch": 45,
                "velocity": 80,
                "duration": 0.1795455,
                "tempo": 120.0
            },
            {
                "start_time": 9.6477273,
                "end_time": 9.8431818,
                "pitch": 45,
                "velocity": 80,
                "duration": 0.1954545,
                "tempo": 120.0
            },
            {
                "start_time": 9.8454545,
                "end_time": 10.025,
                "pitch": 45,
                "velocity": 80,
                "duration": 0.1795455,
                "tempo": 120.0
            },
            {
                "start_time": 10.025,
                "end_time": 10.225,
                "pitch": 45,
                "velocity": 80,
                "duration": 0.2,
                "tempo": 120.0
            },
            {
                "start_time": 10.225,
                "end_time": 10.4272727,
                "pitch": 45,
                "velocity": 80,
                "duration": 0.2022727,
                "tempo": 120.0
            },
            {
                "start_time": 10.4272727,
                "end_time": 10.6159091,
                "pitch": 45,
                "velocity": 80,
                "duration": 0.1886364,
                "tempo": 120.0
            },
            {
                "start_time": 10.6159091,
                "end_time": 10.8227273,
                "pitch": 45,
                "velocity": 80,
                "duration": 0.2068182,
                "tempo": 120.0
            },
            {
                "start_time": 10.8227273,
                "end_time": 11.0022727,
                "pitch": 45,
                "velocity": 80,
                "duration": 0.1795455,
                "tempo": 120.0
            },
            {
                "start_time": 11.0022727,
                "end_time": 11.2,
                "pitch": 45,
                "velocity": 80,
                "duration": 0.1977273,
                "tempo": 120.0
            },
            {
                "start_time": 11.2,
                "end_time": 11.3954545,
                "pitch": 45,
                "velocity": 80,
                "duration": 0.1954545,
                "tempo": 120.0
            },
            {
                "start_time": 11.3954545,
                "end_time": 11.575,
                "pitch": 45,
                "velocity": 80,
                "duration": 0.1795455,
                "tempo": 120.0
            },
            {
                "start_time": 11.575,
                "end_time": 11.7772727,
                "pitch": 45,
                "velocity": 80,
                "duration": 0.2022727,
                "tempo": 120.0
            },
            {
                "start_time": 11.7772727,
                "end_time": 11.9613636,
                "pitch": 42,
                "velocity": 80,
                "duration": 0.1840909,
                "tempo": 120.0
            },
            {
                "start_time": 11.9613636,
                "end_time": 12.1568182,
                "pitch": 43,
                "velocity": 80,
                "duration": 0.1954545,
                "tempo": 120.0
            },
            {
                "start_time": 12.1568182,
                "end_time": 12.3545455,
                "pitch": 44,
                "velocity": 80,
                "duration": 0.1977273,
                "tempo": 120.0
            },
            {
                "start_time": 12.3545455,
                "end_time": 13.125,
                "pitch": 45,
                "velocity": 80,
                "duration": 0.7704545,
                "tempo": 120.0
            },
            {
                "start_time": 13.125,
                "end_time": 13.9045455,
                "pitch": 51,
                "velocity": 80,
                "duration": 0.7795455,
                "tempo": 120.0
            },
            {
                "start_time": 13.9045455,
                "end_time": 14.6840909,
                "pitch": 45,
                "velocity": 80,
                "duration": 0.7795455,
                "tempo": 120.0
            },
            {
                "start_time": 14.6840909,
                "end_time": 15.4522727,
                "pitch": 55,
                "velocity": 80,
                "duration": 0.7681818,
                "tempo": 120.0
            },
            {
                "start_time": 15.4522727,
                "end_time": 16.2318182,
                "pitch": 45,
                "velocity": 80,
                "duration": 0.7795455,
                "tempo": 120.0
            },
            {
                "start_time": 16.2340909,
                "end_time": 16.9954545,
                "pitch": 51,
                "velocity": 80,
                "duration": 0.7613636,
                "tempo": 120.0
            },
            {
                "start_time": 16.9954545,
                "end_time": 17.7840909,
                "pitch": 45,
                "velocity": 80,
                "duration": 0.7886364,
                "tempo": 120.0
            },
            {
                "start_time": 17.7840909,
                "end_time": 18.5454545,
                "pitch": 55,
                "velocity": 80,
                "duration": 0.7613636,
                "tempo": 120.0
            }
        ],
        "Electric Piano 1": [
            {
                "start_time": 0.0068182,
                "end_time": 0.1818182,
                "pitch": 45,
                "velocity": 64,
                "duration": 0.175,
                "tempo": 120.0
            },
            {
                "start_time": 0.1818182,
                "end_time": 0.3772727,
                "pitch": 48,
                "velocity": 64,
                "duration": 0.1954545,
                "tempo": 120.0
            },
            {
                "start_time": 0.3795455,
                "end_time": 0.5590909,
                "pitch": 52,
                "velocity": 64,
                "duration": 0.1795455,
                "tempo": 120.0
            },
            {
                "start_time": 0.5590909,
                "end_time": 0.95,
                "pitch": 51,
                "velocity": 64,
                "duration": 0.3909091,
                "tempo": 120.0
            },
            {
                "start_time": 0.95,
                "end_time": 1.3318182,
                "pitch": 50,
                "velocity": 64,
                "duration": 0.3818182,
                "tempo": 120.0
            },
            {
                "start_time": 1.3318182,
                "end_time": 1.5159091,
                "pitch": 48,
                "velocity": 64,
                "duration": 0.1840909,
                "tempo": 120.0
            },
            {
                "start_time": 1.5159091,
                "end_time": 1.7136364,
                "pitch": 45,
                "velocity": 64,
                "duration": 0.1977273,
                "tempo": 120.0
            },
            {
                "start_time": 1.7136364,
                "end_time": 2.0977273,
                "pitch": 45,
                "velocity": 64,
                "duration": 0.3840909,
                "tempo": 120.0
            },
            {
                "start_time": 2.0977273,
                "end_time": 3.0636364,
                "pitch": 56,
                "velocity": 64,
                "duration": 0.9659091,
                "tempo": 120.0
            },
            {
                "start_time": 3.0659091,
                "end_time": 3.2613636,
                "pitch": 45,
                "velocity": 64,
                "duration": 0.1954545,
                "tempo": 120.0
            },
            {
                "start_time": 3.2613636,
                "end_time": 3.4568182,
                "pitch": 48,
                "velocity": 64,
                "duration": 0.1954545,
                "tempo": 120.0
            },
            {
                "start_time": 3.4568182,
                "end_time": 3.6454545,
                "pitch": 52,
                "velocity": 64,
                "duration": 0.1886364,
                "tempo": 120.0
            },
            {
                "start_time": 3.6477273,
                "end_time": 4.0318182,
                "pitch": 51,
                "velocity": 64,
                "duration": 0.3840909,
                "tempo": 120.0
            },
            {
                "start_time": 4.0340909,
                "end_time": 4.4295455,
                "pitch": 50,
                "velocity": 64,
                "duration": 0.3954545,
                "tempo": 120.0
            },
            {
                "start_time": 4.4295455,
                "end_time": 4.6159091,
                "pitch": 48,
                "velocity": 64,
                "duration": 0.1863636,
                "tempo": 120.0
            },
            {
                "start_time": 4.6159091,
                "end_time": 4.8113636,
                "pitch": 45,
                "velocity": 64,
                "duration": 0.1954545,
                "tempo": 120.0
            },
            {
                "start_time": 4.8113636,
                "end_time": 5.1931818,
                "pitch": 45,
                "velocity": 64,
                "duration": 0.3818182,
                "tempo": 120.0
            },
            {
                "start_time": 5.1931818,
                "end_time": 6.1636364,
                "pitch": 44,
                "velocity": 64,
                "duration": 0.9704545,
                "tempo": 120.0
            },
            {
                "start_time": 6.1636364,
                "end_time": 6.3636364,
                "pitch": 45,
                "velocity": 64,
                "duration": 0.2,
                "tempo": 120.0
            },
            {
                "start_time": 6.3659091,
                "end_time": 6.55,
                "pitch": 48,
                "velocity": 64,
                "duration": 0.1840909,
                "tempo": 120.0
            },
            {
                "start_time": 6.55,
                "end_time": 6.7454545,
                "pitch": 52,
                "velocity": 64,
                "duration": 0.1954545,
                "tempo": 120.0
            },
            {
                "start_time": 6.7454545,
                "end_time": 7.1318182,
                "pitch": 51,
                "velocity": 64,
                "duration": 0.3863636,
                "tempo": 120.0
            },
            {
                "start_time": 7.1318182,
                "end_time": 7.5181818,
                "pitch": 50,
                "velocity": 64,
                "duration": 0.3863636,
                "tempo": 120.0
            },
            {
                "start_time": 7.5181818,
                "end_time": 7.7136364,
                "pitch": 48,
                "velocity": 64,
                "duration": 0.1954545,
                "tempo": 120.0
            },
            {
                "start_time": 7.7136364,
                "end_time": 7.9159091,
                "pitch": 45,
                "velocity": 64,
                "duration": 0.2022727,
                "tempo": 120.0
            },
            {
                "start_time": 7.9159091,
                "end_time": 8.2954545,
                "pitch": 45,
                "velocity": 64,
                "duration": 0.3795455,
                "tempo": 120.0
            },
            {
                "start_time": 8.2954545,
                "end_time": 9.2727273,
                "pitch": 56,
                "velocity": 64,
                "duration": 0.9772727,
                "tempo": 120.0
            },
            {
                "start_time": 9.2727273,
                "end_time": 9.4681818,
                "pitch": 45,
                "velocity": 64,
                "duration": 0.1954545,
                "tempo": 120.0
            },
            {
                "start_time": 9.4681818,
                "end_time": 9.6477273,
                "pitch": 48,
                "velocity": 64,
                "duration": 0.1795455,
                "tempo": 120.0
            },
            {
                "start_time": 9.65,
                "end_time": 9.8454545,
                "pitch": 52,
                "velocity": 64,
                "duration": 0.1954545,
                "tempo": 120.0
            },
            {
                "start_time": 9.8454545,
                "end_time": 10.225,
                "pitch": 51,
                "velocity": 64,
                "duration": 0.3795455,
                "tempo": 120.0
            },
            {
                "start_time": 10.2272727,
                "end_time": 10.6159091,
                "pitch": 50,
                "velocity": 64,
                "duration": 0.3886364,
                "tempo": 120.0
            },
            {
                "start_time": 10.6181818,
                "end_time": 10.825,
                "pitch": 48,
                "velocity": 64,
                "duration": 0.2068182,
                "tempo": 120.0
            },
            {
                "start_time": 10.825,
                "end_time": 11.0045455,
                "pitch": 45,
                "velocity": 64,
                "duration": 0.1795455,
                "tempo": 120.0
            },
            {
                "start_time": 11.0045455,
                "end_time": 11.3954545,
                "pitch": 45,
                "velocity": 64,
                "duration": 0.3909091,
                "tempo": 120.0
            },
            {
                "start_time": 11.3954545,
                "end_time": 12.3545455,
                "pitch": 44,
                "velocity": 64,
                "duration": 0.9590909,
                "tempo": 120.0
            },
            {
                "start_time": 12.3545455,
                "end_time": 13.1272727,
                "pitch": 45,
                "velocity": 80,
                "duration": 0.7727273,
                "tempo": 120.0
            },
            {
                "start_time": 13.1272727,
                "end_time": 13.9045455,
                "pitch": 51,
                "velocity": 80,
                "duration": 0.7772727,
                "tempo": 120.0
            },
            {
                "start_time": 13.9068182,
                "end_time": 14.6840909,
                "pitch": 45,
                "velocity": 80,
                "duration": 0.7772727,
                "tempo": 120.0
            },
            {
                "start_time": 14.6840909,
                "end_time": 15.4545455,
                "pitch": 55,
                "velocity": 80,
                "duration": 0.7704545,
                "tempo": 120.0
            },
            {
                "start_time": 15.4545455,
                "end_time": 16.2340909,
                "pitch": 45,
                "velocity": 80,
                "duration": 0.7795455,
                "tempo": 120.0
            },
            {
                "start_time": 16.2340909,
                "end_time": 16.9954545,
                "pitch": 51,
                "velocity": 80,
                "duration": 0.7613636,
                "tempo": 120.0
            },
            {
                "start_time": 16.9954545,
                "end_time": 17.7840909,
                "pitch": 45,
                "velocity": 80,
                "duration": 0.7886364,
                "tempo": 120.0
            },
            {
                "start_time": 17.7840909,
                "end_time": 18.5454545,
                "pitch": 55,
                "velocity": 80,
                "duration": 0.7613636,
                "tempo": 120.0
            }
        ],
        "Trumpet": [
            {
                "start_time": 0.05,
                "end_time": 0.8181818,
                "pitch": 52,
                "velocity": 64,
                "duration": 0.7681818,
                "tempo": 120.0
            },
            {
                "start_time": 0.8181818,
                "end_time": 1.5159091,
                "pitch": 55,
                "velocity": 64,
                "duration": 0.6977273,
                "tempo": 120.0
            },
            {
                "start_time": 1.5818182,
                "end_time": 1.9590909,
                "pitch": 52,
                "velocity": 64,
                "duration": 0.3772727,
                "tempo": 120.0
            },
            {
                "start_time": 1.9590909,
                "end_time": 2.1636364,
                "pitch": 64,
                "velocity": 64,
                "duration": 0.2045455,
                "tempo": 120.0
            },
            {
                "start_time": 2.1636364,
                "end_time": 3.0636364,
                "pitch": 63,
                "velocity": 64,
                "duration": 0.9,
                "tempo": 120.0
            },
            {
                "start_time": 3.1295455,
                "end_time": 3.9181818,
                "pitch": 52,
                "velocity": 64,
                "duration": 0.7886364,
                "tempo": 120.0
            },
            {
                "start_time": 3.9181818,
                "end_time": 4.6136364,
                "pitch": 55,
                "velocity": 64,
                "duration": 0.6954545,
                "tempo": 120.0
            },
            {
                "start_time": 4.6795455,
                "end_time": 5.0568182,
                "pitch": 52,
                "velocity": 64,
                "duration": 0.3772727,
                "tempo": 120.0
            },
            {
                "start_time": 5.0568182,
                "end_time": 5.2590909,
                "pitch": 52,
                "velocity": 64,
                "duration": 0.2022727,
                "tempo": 120.0
            },
            {
                "start_time": 5.2590909,
                "end_time": 6.1636364,
                "pitch": 51,
                "velocity": 64,
                "duration": 0.9045455,
                "tempo": 120.0
            },
            {
                "start_time": 6.2295455,
                "end_time": 6.9909091,
                "pitch": 52,
                "velocity": 64,
                "duration": 0.7613636,
                "tempo": 120.0
            },
            {
                "start_time": 6.9931818,
                "end_time": 7.7136364,
                "pitch": 55,
                "velocity": 64,
                "duration": 0.7204545,
                "tempo": 120.0
            },
            {
                "start_time": 7.7795455,
                "end_time": 8.1636364,
                "pitch": 52,
                "velocity": 64,
                "duration": 0.3840909,
                "tempo": 120.0
            },
            {
                "start_time": 8.1636364,
                "end_time": 8.3613636,
                "pitch": 64,
                "velocity": 64,
                "duration": 0.1977273,
                "tempo": 120.0
            },
            {
                "start_time": 8.3613636,
                "end_time": 9.2727273,
                "pitch": 63,
                "velocity": 64,
                "duration": 0.9113636,
                "tempo": 120.0
            },
            {
                "start_time": 9.3363636,
                "end_time": 10.0909091,
                "pitch": 52,
                "velocity": 64,
                "duration": 0.7545455,
                "tempo": 120.0
            },
            {
                "start_time": 10.0909091,
                "end_time": 10.8227273,
                "pitch": 55,
                "velocity": 64,
                "duration": 0.7318182,
                "tempo": 120.0
            },
            {
                "start_time": 10.8886364,
                "end_time": 11.2636364,
                "pitch": 52,
                "velocity": 64,
                "duration": 0.375,
                "tempo": 120.0
            },
            {
                "start_time": 11.2636364,
                "end_time": 11.4613636,
                "pitch": 52,
                "velocity": 64,
                "duration": 0.1977273,
                "tempo": 120.0
            },
            {
                "start_time": 11.4613636,
                "end_time": 12.3545455,
                "pitch": 51,
                "velocity": 64,
                "duration": 0.8931818,
                "tempo": 120.0
            }
        ]
    }
}