{
    "mood": "angry",
    "instruments": {
        "Harpsichord": [
            {
                "start_time": 0.8409091,
                "end_time": 1.1704545,
                "pitch": 76,
                "velocity": 51,
                "duration": 0.3295455,
                "tempo": 120.0
            },
            {
                "start_time": 1.2363636,
                "end_time": 1.5636364,
                "pitch": 76,
                "velocity": 51,
                "duration": 0.3272727,
                "tempo": 120.0
            },
            {
                "start_time": 1.6295455,
                "end_time": 1.7977273,
                "pitch": 74,
                "velocity": 51,
                "duration": 0.1681818,
                "tempo": 120.0
            },
            {
                "start_time": 1.8318182,
                "end_time": 2.0,
                "pitch": 76,
                "velocity": 51,
                "duration": 0.1681818,
                "tempo": 120.0
            },
            {
                "start_time": 2.6272727,
                "end_time": 2.9545455,
                "pitch": 76,
                "velocity": 51,
                "duration": 0.3272727,
                "tempo": 120.0
            },
            {
                "start_time": 1.6295455,
                "end_time": 3.0227273,
                "pitch": 78,
                "velocity": 51,
                "duration": 1.3931818,
                "tempo": 120.0
            },
            {
                "start_time": 1.8318182,
                "end_time": 3.1863636,
                "pitch": 74,
                "velocity": 51,
                "duration": 1.3545455,
                "tempo": 120.0
            },
            {
                "start_time": 3.0227273,
                "end_time": 3.1863636,
                "pitch": 74,
                "velocity": 51,
                "duration": 0.1636364,
                "tempo": 120.0
            },
            {
                "start_time": 3.2181818,
                "end_time": 3.2204545,
                "pitch": 74,
                "velocity": 51,
                "duration": 0.0022727,
                "tempo": 120.0
            },
            {
                "start_time": 3.2204545,
                "end_time": 3.3863636,
                "pitch": 76,
                "velocity": 51,
                "duration": 0.1659091,
                "tempo": 120.0
            },
            {
                "start_time": 3.6227273,
                "end_time": 3.95,
                "pitch": 79,
                "velocity": 51,
                "duration": 0.3272727,
                "tempo": 120.0
            },
            {
                "start_time": 4.0159091,
                "end_time": 4.4590909,
                "pitch": 81,
                "velocity": 51,
                "duration": 0.4431818,
                "tempo": 120.0
            },
            {
                "start_time": 3.0227273,
                "end_time": 4.9386364,
                "pitch": 78,
                "velocity": 51,
                "duration": 1.9159091,
                "tempo": 120.0
            },
            {
                "start_time": 4.6090909,
                "end_time": 4.9386364,
                "pitch": 78,
                "velocity": 51,
                "duration": 0.3295455,
                "tempo": 120.0
            },
            {
                "start_time": 3.6227273,
                "end_time": 5.2090909,
                "pitch": 90,
                "velocity": 51,
                "duration": 1.5863636,
                "tempo": 120.0
            },
            {
                "start_time": 4.0159091,
                "end_time": 5.3727273,
                "pitch": 79,
                "velocity": 51,
                "duration": 1.3568182,
                "tempo": 120.0
            },
            {
                "start_time": 5.2090909,
                "end_time": 5.3727273,
                "pitch": 79,
                "velocity": 51,
                "duration": 0.1636364,
                "tempo": 120.0
            },
            {
                "start_time": 0.8409091,
                "end_time": 5.4045455,
                "pitch": 0,
                "velocity": 51,
                "duration": 4.5636364,
                "tempo": 120.0
            },
            {
                "start_time": 5.4045455,
                "end_time": 5.5681818,
                "pitch": 78,
                "velocity": 51,
                "duration": 0.1636364,
                "tempo": 120.0
            },
            {
                "start_time": 5.2090909,
                "end_time": 5.6022727,
                "pitch": 90,
                "velocity": 51,
                "duration": 0.3931818,
                "tempo": 120.0
            },
            {
                "start_time": 5.6022727,
                "end_time": 5.7659091,
                "pitch": 79,
                "velocity": 51,
                "duration": 0.1636364,
                "tempo": 120.0
            },
            {
                "start_time": 5.4045455,
                "end_time": 5.8,
                "pitch": 0,
                "velocity": 51,
                "duration": 0.3954545,
                "tempo": 120.0
            },
            {
                "start_time": 5.8,
                "end_time": 6.1272727,
                "pitch": 76,
                "velocity": 51,
                "duration": 0.3272727,
                "tempo": 120.0
            },
            {
                "start_time": 6.1954545,
                "end_time": 6.3590909,
                "pitch": 74,
                "velocity": 51,
                "duration": 0.1636364,
                "tempo": 120.0
            },
            {
                "start_time": 6.3909091,
                "end_time": 6.5590909,
                "pitch": 71,
                "velocity": 51,
                "duration": 0.1681818,
                "tempo": 120.0
            },
            {
                "start_time": 6.1954545,
                "end_time": 7.5204545,
                "pitch": 76,
                "velocity": 51,
                "duration": 1.325,
                "tempo": 120.0
            },
            {
                "start_time": 7.1909091,
                "end_time": 7.5204545,
                "pitch": 76,
                "velocity": 51,
                "duration": 0.3295455,
                "tempo": 120.0
            },
            {
                "start_time": 7.5863636,
                "end_time": 7.9136364,
                "pitch": 76,
                "velocity": 51,
                "duration": 0.3272727,
                "tempo": 120.0
            },
            {
                "start_time": 7.9818182,
                "end_time": 8.15,
                "pitch": 74,
                "velocity": 51,
                "duration": 0.1681818,
                "tempo": 120.0
            },
            {
                "start_time": 8.1818182,
                "end_time": 8.1840909,
                "pitch": 74,
                "velocity": 51,
                "duration": 0.0022727,
                "tempo": 120.0
            },
            {
                "start_time": 8.1840909,
                "end_time": 8.3522727,
                "pitch": 76,
                "velocity": 51,
                "duration": 0.1681818,
                "tempo": 120.0
            },
            {
                "start_time": 8.9772727,
                "end_time": 9.3068182,
                "pitch": 76,
                "velocity": 51,
                "duration": 0.3295455,
                "tempo": 120.0
            },
            {
                "start_time": 7.9818182,
                "end_time": 9.3727273,
                "pitch": 78,
                "velocity": 51,
                "duration": 1.3909091,
                "tempo": 120.0
            },
            {
                "start_time": 9.3727273,
                "end_time": 9.5363636,
                "pitch": 74,
                "velocity": 51,
                "duration": 0.1636364,
                "tempo": 120.0
            },
            {
                "start_time": 9.5704545,
                "end_time": 9.7386364,
                "pitch": 76,
                "velocity": 51,
                "duration": 0.1681818,
                "tempo": 120.0
            },
            {
                "start_time": 5.6022727,
                "end_time": 9.975,
                "pitch": 90,
                "velocity": 51,
                "duration": 4.3727273,
                "tempo": 120.0
            },
            {
                "start_time": 9.975,
                "end_time": 10.3022727,
                "pitch": 79,
                "velocity": 51,
                "duration": 0.3272727,
                "tempo": 120.0
            },
            {
                "start_time": 10.3681818,
                "end_time": 10.3704545,
                "pitch": 79,
                "velocity": 51,
                "duration": 0.0022727,
                "tempo": 120.0
            },
            {
                "start_time": 10.3704545,
                "end_time": 10.8136364,
                "pitch": 81,
                "velocity": 51,
                "duration": 0.4431818,
                "tempo": 120.0
            },
            {
                "start_time": 4.6090909,
                "end_time": 10.9613636,
                "pitch": 43,
                "velocity": 51,
                "duration": 6.3522727,
                "tempo": 120.0
            },
            {
                "start_time": 9.3727273,
                "end_time": 11.2909091,
                "pitch": 78,
                "velocity": 51,
                "duration": 1.9181818,
                "tempo": 120.0
            },
            {
                "start_time": 10.9613636,
                "end_time": 11.2909091,
                "pitch": 78,
                "velocity": 51,
                "duration": 0.3295455,
                "tempo": 120.0
            },
            {
                "start_time": 9.975,
                "end_time": 11.5545455,
                "pitch": 90,
                "velocity": 51,
                "duration": 1.5795455,
                "tempo": 120.0
            },
            {
                "start_time": 11.5545455,
                "end_time": 11.7227273,
                "pitch": 79,
                "velocity": 51,
                "duration": 0.1681818,
                "tempo": 120.0
            },
            {
                "start_time": 5.8,
                "end_time": 11.7568182,
                "pitch": 0,
                "velocity": 51,
                "duration": 5.9568182,
                "tempo": 120.0
            },
            {
                "start_time": 11.7568182,
                "end_time": 11.925,
                "pitch": 78,
                "velocity": 51,
                "duration": 0.1681818,
                "tempo": 120.0
            },
            {
                "start_time": 11.5545455,
                "end_time": 11.9590909,
                "pitch": 90,
                "velocity": 51,
                "duration": 0.4045455,
                "tempo": 120.0
            },
            {
                "start_time": 11.9590909,
                "end_time": 12.1227273,
                "pitch": 79,
                "velocity": 51,
                "duration": 0.1636364,
                "tempo": 120.0
            },
            {
                "start_time": 11.7568182,
                "end_time": 12.1568182,
                "pitch": 0,
                "velocity": 51,
                "duration": 0.4,
                "tempo": 120.0
            },
            {
                "start_time": 12.1568182,
                "end_time": 12.4840909,
                "pitch": 76,
                "velocity": 51,
                "duration": 0.3272727,
                "tempo": 120.0
            },
            {
                "start_time": 9.5704545,
                "end_time": 12.7136364,
                "pitch": 74,
                "velocity": 51,
                "duration": 3.1431818,
                "tempo": 120.0
            },
            {
                "start_time": 12.55,
                "end_time": 12.7136364,
                "pitch": 74,
                "velocity": 51,
                "duration": 0.1636364,
                "tempo": 120.0
            },
            {
                "start_time": 6.3909091,
                "end_time": 12.7477273,
                "pitch": 77,
                "velocity": 51,
                "duration": 6.3568182,
                "tempo": 120.0
            },
            {
                "start_time": 12.7477273,
                "end_time": 12.9159091,
                "pitch": 71,
                "velocity": 51,
                "duration": 0.1681818,
                "tempo": 120.0
            },
            {
                "start_time": 12.55,
                "end_time": 23.4045455,
                "pitch": 76,
                "velocity": 51,
                "duration": 10.8545455,
                "tempo": 120.0
            },
            {
                "start_time": 23.0772727,
                "end_time": 23.4045455,
                "pitch": 76,
                "velocity": 51,
                "duration": 0.3272727,
                "tempo": 120.0
            },
            {
                "start_time": 23.4704545,
                "end_time": 23.8,
                "pitch": 76,
                "velocity": 51,
                "duration": 0.3295455,
                "tempo": 120.0
            },
            {
                "start_time": 23.8659091,
                "end_time": 24.0295455,
                "pitch": 74,
                "velocity": 51,
                "duration": 0.1636364,
                "tempo": 120.0
            },
            {
                "start_time": 24.0613636,
                "end_time": 24.0636364,
                "pitch": 74,
                "velocity": 51,
                "duration": 0.0022727,
                "tempo": 120.0
            },
            {
                "start_time": 24.0636364,
                "end_time": 24.2272727,
                "pitch": 76,
                "velocity": 51,
                "duration": 0.1636364,
                "tempo": 120.0
            },
            {
                "start_time": 24.8590909,
                "end_time": 25.1886364,
                "pitch": 76,
                "velocity": 51,
                "duration": 0.3295455,
                "tempo": 120.0
            },
            {
                "start_time": 23.8659091,
                "end_time": 25.2545455,
                "pitch": 78,
                "velocity": 51,
                "duration": 1.3886364,
                "tempo": 120.0
            },
            {
                "start_time": 25.2545455,
                "end_time": 25.4181818,
                "pitch": 74,
                "velocity": 51,
                "duration": 0.1636364,
                "tempo": 120.0
            },
            {
                "start_time": 25.4522727,
                "end_time": 25.6204545,
                "pitch": 76,
                "velocity": 51,
                "duration": 0.1681818,
                "tempo": 120.0
            },
            {
                "start_time": 11.9590909,
                "end_time": 25.8568182,
                "pitch": 90,
                "velocity": 51,
                "duration": 13.8977273,
                "tempo": 120.0
            },
            {
                "start_time": 25.8568182,
                "end_time": 26.1840909,
                "pitch": 79,
                "velocity": 51,
                "duration": 0.3272727,
                "tempo": 120.0
            },
            {
                "start_time": 26.2522727,
                "end_time": 26.6954545,
                "pitch": 81,
                "velocity": 51,
                "duration": 0.4431818,
                "tempo": 120.0
            },
            {
                "start_time": 10.9613636,
                "end_time": 26.8431818,
                "pitch": 43,
                "velocity": 51,
                "duration": 15.8818182,
                "tempo": 120.0
            },
            {
                "start_time": 25.2545455,
                "end_time": 27.1727273,
                "pitch": 78,
                "velocity": 51,
                "duration": 1.9181818,
                "tempo": 120.0
            },
            {
                "start_time": 26.8431818,
                "end_time": 27.1727273,
                "pitch": 78,
                "velocity": 51,
                "duration": 0.3295455,
                "tempo": 120.0
            },
            {
                "start_time": 25.8568182,
                "end_time": 27.4363636,
                "pitch": 90,
                "velocity": 51,
                "duration": 1.5795455,
                "tempo": 120.0
            },
            {
                "start_time": 26.2522727,
                "end_time": 27.6022727,
                "pitch": 79,
                "velocity": 51,
                "duration": 1.35,
                "tempo": 120.0
            },
            {
                "start_time": 27.4363636,
                "end_time": 27.6022727,
                "pitch": 79,
                "velocity": 51,
                "duration": 0.1659091,
                "tempo": 120.0
            },
            {
                "start_time": 12.1568182,
                "end_time": 27.6363636,
                "pitch": 0,
                "velocity": 51,
                "duration": 15.4795455,
                "tempo": 120.0
            },
            {
                "start_time": 27.6363636,
                "end_time": 27.8045455,
                "pitch": 78,
                "velocity": 51,
                "duration": 0.1681818,
                "tempo": 120.0
            },
            {
                "start_time": 27.4363636,
                "end_time": 27.8386364,
                "pitch": 90,
                "velocity": 51,
                "duration": 0.4022727,
                "tempo": 120.0
            },
            {
                "start_time": 27.8363636,
                "end_time": 27.8386364,
                "pitch": 90,
                "velocity": 51,
                "duration": 0.0022727,
                "tempo": 120.0
            },
            {
                "start_time": 27.8386364,
                "end_time": 28.0022727,
                "pitch": 79,
                "velocity": 51,
                "duration": 0.1636364,
                "tempo": 120.0
            },
            {
                "start_time": 27.6363636,
                "end_time": 28.0363636,
                "pitch": 0,
                "velocity": 51,
                "duration": 0.4,
                "tempo": 120.0
            },
            {
                "start_time": 28.0363636,
                "end_time": 28.3636364,
                "pitch": 76,
                "velocity": 51,
                "duration": 0.3272727,
                "tempo": 120.0
            },
            {
                "start_time": 25.4522727,
                "end_time": 28.5931818,
                "pitch": 74,
                "velocity": 51,
                "duration": 3.1409091,
                "tempo": 120.0
            },
            {
                "start_time": 28.4295455,
                "end_time": 28.5931818,
                "pitch": 74,
                "velocity": 51,
                "duration": 0.1636364,
                "tempo": 120.0
            },
            {
                "start_time": 12.7477273,
                "end_time": 28.6272727,
                "pitch": 77,
                "velocity": 51,
                "duration": 15.8795455,
                "tempo": 120.0
            },
            {
                "start_time": 28.6272727,
                "end_time": 28.7909091,
                "pitch": 71,
                "velocity": 51,
                "duration": 0.1636364,
                "tempo": 120.0
            },
            {
                "start_time": 7.1909091,
                "end_time": 29.425,
                "pitch": 56,
                "velocity": 51,
                "duration": 22.2340909,
                "tempo": 120.0
            },
            {
                "start_time": 28.4295455,
                "end_time": 29.7522727,
                "pitch": 76,
                "velocity": 51,
                "duration": 1.3227273,
                "tempo": 120.0
            },
            {
                "start_time": 29.425,
                "end_time": 29.7522727,
                "pitch": 76,
                "velocity": 51,
                "duration": 0.3272727,
                "tempo": 120.0
            },
            {
                "start_time": 29.8181818,
                "end_time": 30.1477273,
                "pitch": 76,
                "velocity": 51,
                "duration": 0.3295455,
                "tempo": 120.0
            },
            {
                "start_time": 30.2136364,
                "end_time": 30.3772727,
                "pitch": 74,
                "velocity": 51,
                "duration": 0.1636364,
                "tempo": 120.0
            },
            {
                "start_time": 30.4113636,
                "end_time": 30.575,
                "pitch": 76,
                "velocity": 51,
                "duration": 0.1636364,
                "tempo": 120.0
            },
            {
                "start_time": 31.2068182,
                "end_time": 31.5363636,
                "pitch": 76,
                "velocity": 51,
                "duration": 0.3295455,
                "tempo": 120.0
            },
            {
                "start_time": 30.2136364,
                "end_time": 31.6022727,
                "pitch": 78,
                "velocity": 51,
                "duration": 1.3886364,
                "tempo": 120.0
            },
            {
                "start_time": 30.4113636,
                "end_time": 31.7659091,
                "pitch": 74,
                "velocity": 51,
                "duration": 1.3545455,
                "tempo": 120.0
            },
            {
                "start_time": 31.6022727,
                "end_time": 31.7659091,
                "pitch": 74,
                "velocity": 51,
                "duration": 0.1636364,
                "tempo": 120.0
            },
            {
                "start_time": 31.8,
                "end_time": 31.9636364,
                "pitch": 76,
                "velocity": 51,
                "duration": 0.1636364,
                "tempo": 120.0
            },
            {
                "start_time": 32.1954545,
                "end_time": 32.5295455,
                "pitch": 79,
                "velocity": 51,
                "duration": 0.3340909,
                "tempo": 120.0
            },
            {
                "start_time": 32.5954545,
                "end_time": 33.0409091,
                "pitch": 81,
                "velocity": 51,
                "duration": 0.4454545,
                "tempo": 120.0
            },
            {
                "start_time": 26.8431818,
                "end_time": 33.1886364,
                "pitch": 43,
                "velocity": 51,
                "duration": 6.3454545,
                "tempo": 120.0
            },
            {
                "start_time": 31.6022727,
                "end_time": 33.5159091,
                "pitch": 78,
                "velocity": 51,
                "duration": 1.9136364,
                "tempo": 120.0
            },
            {
                "start_time": 33.1886364,
                "end_time": 33.5159091,
                "pitch": 78,
                "velocity": 51,
                "duration": 0.3272727,
                "tempo": 120.0
            },
            {
                "start_time": 32.1954545,
                "end_time": 33.7818182,
                "pitch": 90,
                "velocity": 51,
                "duration": 1.5863636,
                "tempo": 120.0
            },
            {
                "start_time": 32.5954545,
                "end_time": 33.9477273,
                "pitch": 79,
                "velocity": 51,
                "duration": 1.3522727,
                "tempo": 120.0
            },
            {
                "start_time": 33.7818182,
                "end_time": 33.9477273,
                "pitch": 79,
                "velocity": 51,
                "duration": 0.1659091,
                "tempo": 120.0
            },
            {
                "start_time": 28.0363636,
                "end_time": 33.9818182,
                "pitch": 0,
                "velocity": 51,
                "duration": 5.9454545,
                "tempo": 120.0
            },
            {
                "start_time": 33.9818182,
                "end_time": 34.15,
                "pitch": 78,
                "velocity": 51,
                "duration": 0.1681818,
                "tempo": 120.0
            },
            {
                "start_time": 33.7818182,
                "end_time": 34.1818182,
                "pitch": 90,
                "velocity": 51,
                "duration": 0.4,
                "tempo": 120.0
            },
            {
                "start_time": 34.1818182,
                "end_time": 34.3477273,
                "pitch": 79,
                "velocity": 51,
                "duration": 0.1659091,
                "tempo": 120.0
            },
            {
                "start_time": 33.9818182,
                "end_time": 34.3795455,
                "pitch": 0,
                "velocity": 51,
                "duration": 0.3977273,
                "tempo": 120.0
            },
            {
                "start_time": 34.3795455,
                "end_time": 34.7090909,
                "pitch": 76,
                "velocity": 51,
                "duration": 0.3295455,
                "tempo": 120.0
            },
            {
                "start_time": 31.8,
                "end_time": 34.9386364,
                "pitch": 74,
                "velocity": 51,
                "duration": 3.1386364,
                "tempo": 120.0
            },
            {
                "start_time": 34.775,
                "end_time": 34.9386364,
                "pitch": 74,
                "velocity": 51,
                "duration": 0.1636364,
                "tempo": 120.0
            },
            {
                "start_time": 28.6272727,
                "end_time": 34.9727273,
                "pitch": 77,
                "velocity": 51,
                "duration": 6.3454545,
                "tempo": 120.0
            },
            {
                "start_time": 34.9727273,
                "end_time": 35.1363636,
                "pitch": 71,
                "velocity": 51,
                "duration": 0.1636364,
                "tempo": 120.0
            }
        ],
        "Acoustic Guitar (nylon)": [
            {
                "start_time": 12.7477273,
                "end_time": 12.8318182,
                "pitch": 51,
                "velocity": 80,
                "duration": 0.0840909,
                "tempo": 120.0
            },
            {
                "start_time": 12.8477273,
                "end_time": 12.9318182,
                "pitch": 54,
                "velocity": 80,
                "duration": 0.0840909,
                "tempo": 120.0
            },
            {
                "start_time": 12.9477273,
                "end_time": 13.0318182,
                "pitch": 56,
                "velocity": 80,
                "duration": 0.0840909,
                "tempo": 120.0
            },
            {
                "start_time": 13.05,
                "end_time": 13.1318182,
                "pitch": 59,
                "velocity": 80,
                "duration": 0.0818182,
                "tempo": 120.0
            },
            {
                "start_time": 13.15,
                "end_time": 13.2318182,
                "pitch": 63,
                "velocity": 80,
                "duration": 0.0818182,
                "tempo": 120.0
            },
            {
                "start_time": 12.9477273,
                "end_time": 13.3295455,
                "pitch": 66,
                "velocity": 80,
                "duration": 0.3818182,
                "tempo": 120.0
            },
            {
                "start_time": 13.2477273,
                "end_time": 13.3295455,
                "pitch": 66,
                "velocity": 80,
                "duration": 0.0818182,
                "tempo": 120.0
            },
            {
                "start_time": 13.3477273,
                "end_time": 13.4295455,
                "pitch": 68,
                "velocity": 80,
                "duration": 0.0818182,
                "tempo": 120.0
            },
            {
                "start_time": 13.4454545,
                "end_time": 13.5272727,
                "pitch": 71,
                "velocity": 80,
                "duration": 0.0818182,
                "tempo": 120.0
            },
            {
                "start_time": 13.05,
                "end_time": 13.5454545,
                "pitch": 56,
                "velocity": 80,
                "duration": 0.4954545,
                "tempo": 120.0
            },
            {
                "start_time": 13.5454545,
                "end_time": 13.6272727,
                "pitch": 75,
                "velocity": 80,
                "duration": 0.0818182,
                "tempo": 120.0
            },
            {
                "start_time": 13.3477273,
                "end_time": 13.725,
                "pitch": 78,
                "velocity": 80,
                "duration": 0.3772727,
                "tempo": 120.0
            },
            {
                "start_time": 13.6431818,
                "end_time": 13.725,
                "pitch": 78,
                "velocity": 80,
                "duration": 0.0818182,
                "tempo": 120.0
            },
            {
                "start_time": 13.7409091,
                "end_time": 13.8227273,
                "pitch": 80,
                "velocity": 80,
                "duration": 0.0818182,
                "tempo": 120.0
            },
            {
                "start_time": 13.8409091,
                "end_time": 13.9227273,
                "pitch": 83,
                "velocity": 80,
                "duration": 0.0818182,
                "tempo": 120.0
            },
            {
                "start_time": 13.4454545,
                "end_time": 13.9386364,
                "pitch": 68,
                "velocity": 80,
                "duration": 0.4931818,
                "tempo": 120.0
            },
            {
                "start_time": 13.9386364,
                "end_time": 14.0204545,
                "pitch": 87,
                "velocity": 80,
                "duration": 0.0818182,
                "tempo": 120.0
            },
            {
                "start_time": 13.7409091,
                "end_time": 14.1204545,
                "pitch": 90,
                "velocity": 80,
                "duration": 0.3795455,
                "tempo": 120.0
            },
            {
                "start_time": 14.0386364,
                "end_time": 14.1204545,
                "pitch": 90,
                "velocity": 80,
                "duration": 0.0818182,
                "tempo": 120.0
            },
            {
                "start_time": 14.1363636,
                "end_time": 14.2181818,
                "pitch": 92,
                "velocity": 80,
                "duration": 0.0818182,
                "tempo": 120.0
            },
            {
                "start_time": 14.2340909,
                "end_time": 14.3159091,
                "pitch": 95,
                "velocity": 80,
                "duration": 0.0818182,
                "tempo": 120.0
            },
            {
                "start_time": 13.15,
                "end_time": 14.3340909,
                "pitch": 44,
                "velocity": 80,
                "duration": 1.1840909,
                "tempo": 120.0
            },
            {
                "start_time": 13.2477273,
                "end_time": 14.4159091,
                "pitch": 63,
                "velocity": 80,
                "duration": 1.1681818,
                "tempo": 120.0
            },
            {
                "start_time": 14.3340909,
                "end_time": 14.4159091,
                "pitch": 63,
                "velocity": 80,
                "duration": 0.0818182,
                "tempo": 120.0
            },
            {
                "start_time": 14.4318182,
                "end_time": 14.5136364,
                "pitch": 66,
                "velocity": 80,
                "duration": 0.0818182,
                "tempo": 120.0
            },
            {
                "start_time": 13.9386364,
                "end_time": 14.6136364,
                "pitch": 68,
                "velocity": 80,
                "duration": 0.675,
                "tempo": 120.0
            },
            {
                "start_time": 14.5318182,
                "end_time": 14.6136364,
                "pitch": 68,
                "velocity": 80,
                "duration": 0.0818182,
                "tempo": 120.0
            },
            {
                "start_time": 14.6295455,
                "end_time": 14.7113636,
                "pitch": 71,
                "velocity": 80,
                "duration": 0.0818182,
                "tempo": 120.0
            },
            {
                "start_time": 13.5454545,
                "end_time": 14.7272727,
                "pitch": 56,
                "velocity": 80,
                "duration": 1.1818182,
                "tempo": 120.0
            },
            {
                "start_time": 13.6431818,
                "end_time": 14.8113636,
                "pitch": 75,
                "velocity": 80,
                "duration": 1.1681818,
                "tempo": 120.0
            },
            {
                "start_time": 14.7272727,
                "end_time": 14.8113636,
                "pitch": 75,
                "velocity": 80,
                "duration": 0.0840909,
                "tempo": 120.0
            },
            {
                "start_time": 14.5318182,
                "end_time": 14.9136364,
                "pitch": 78,
                "velocity": 80,
                "duration": 0.3818182,
                "tempo": 120.0
            },
            {
                "start_time": 14.8295455,
                "end_time": 14.9136364,
                "pitch": 78,
                "velocity": 80,
                "duration": 0.0840909,
                "tempo": 120.0
            },
            {
                "start_time": 13.8409091,
                "end_time": 15.0159091,
                "pitch": 80,
                "velocity": 80,
                "duration": 1.175,
                "tempo": 120.0
            },
            {
                "start_time": 14.9318182,
                "end_time": 15.0159091,
                "pitch": 80,
                "velocity": 80,
                "duration": 0.0840909,
                "tempo": 120.0
            },
            {
                "start_time": 15.0318182,
                "end_time": 15.1159091,
                "pitch": 83,
                "velocity": 80,
                "duration": 0.0840909,
                "tempo": 120.0
            },
            {
                "start_time": 14.6295455,
                "end_time": 15.1340909,
                "pitch": 68,
                "velocity": 80,
                "duration": 0.5045455,
                "tempo": 120.0
            },
            {
                "start_time": 14.0386364,
                "end_time": 15.2159091,
                "pitch": 87,
                "velocity": 80,
                "duration": 1.1772727,
                "tempo": 120.0
            },
            {
                "start_time": 15.1340909,
                "end_time": 15.2159091,
                "pitch": 87,
                "velocity": 80,
                "duration": 0.0818182,
                "tempo": 120.0
            },
            {
                "start_time": 14.9318182,
                "end_time": 15.3136364,
                "pitch": 90,
                "velocity": 80,
                "duration": 0.3818182,
                "tempo": 120.0
            },
            {
                "start_time": 15.2318182,
                "end_time": 15.3136364,
                "pitch": 90,
                "velocity": 80,
                "duration": 0.0818182,
                "tempo": 120.0
            },
            {
                "start_time": 14.1363636,
                "end_time": 15.3318182,
                "pitch": 102,
                "velocity": 80,
                "duration": 1.1954545,
                "tempo": 120.0
            },
            {
                "start_time": 14.2340909,
                "end_time": 15.4136364,
                "pitch": 92,
                "velocity": 80,
                "duration": 1.1795455,
                "tempo": 120.0
            },
            {
                "start_time": 15.3318182,
                "end_time": 15.4136364,
                "pitch": 92,
                "velocity": 80,
                "duration": 0.0818182,
                "tempo": 120.0
            },
            {
                "start_time": 15.4295455,
                "end_time": 15.5113636,
                "pitch": 95,
                "velocity": 80,
                "duration": 0.0818182,
                "tempo": 120.0
            },
            {
                "start_time": 15.0318182,
                "end_time": 15.5272727,
                "pitch": 80,
                "velocity": 80,
                "duration": 0.4954545,
                "tempo": 120.0
            },
            {
                "start_time": 15.5272727,
                "end_time": 15.6090909,
                "pitch": 99,
                "velocity": 80,
                "duration": 0.0818182,
                "tempo": 120.0
            },
            {
                "start_time": 15.3318182,
                "end_time": 15.7090909,
                "pitch": 102,
                "velocity": 80,
                "duration": 0.3772727,
                "tempo": 120.0
            },
            {
                "start_time": 15.6272727,
                "end_time": 15.7090909,
                "pitch": 102,
                "velocity": 80,
                "duration": 0.0818182,
                "tempo": 120.0
            },
            {
                "start_time": 15.725,
                "end_time": 15.8068182,
                "pitch": 104,
                "velocity": 80,
                "duration": 0.0818182,
                "tempo": 120.0
            },
            {
                "start_time": 15.825,
                "end_time": 15.9068182,
                "pitch": 107,
                "velocity": 80,
                "duration": 0.0818182,
                "tempo": 120.0
            },
            {
                "start_time": 14.3340909,
                "end_time": 15.9227273,
                "pitch": 44,
                "velocity": 80,
                "duration": 1.5886364,
                "tempo": 120.0
            },
            {
                "start_time": 15.9227273,
                "end_time": 16.0068182,
                "pitch": 60,
                "velocity": 80,
                "duration": 0.0840909,
                "tempo": 120.0
            },
            {
                "start_time": 16.0227273,
                "end_time": 16.1068182,
                "pitch": 62,
                "velocity": 80,
                "duration": 0.0840909,
                "tempo": 120.0
            },
            {
                "start_time": 16.125,
                "end_time": 16.2090909,
                "pitch": 65,
                "velocity": 80,
                "duration": 0.0840909,
                "tempo": 120.0
            },
            {
                "start_time": 16.2272727,
                "end_time": 16.3113636,
                "pitch": 69,
                "velocity": 80,
                "duration": 0.0840909,
                "tempo": 120.0
            },
            {
                "start_time": 16.3272727,
                "end_time": 16.4090909,
                "pitch": 72,
                "velocity": 80,
                "duration": 0.0818182,
                "tempo": 120.0
            },
            {
                "start_time": 16.4272727,
                "end_time": 16.5090909,
                "pitch": 74,
                "velocity": 80,
                "duration": 0.0818182,
                "tempo": 120.0
            },
            {
                "start_time": 16.525,
                "end_time": 16.6068182,
                "pitch": 77,
                "velocity": 80,
                "duration": 0.0818182,
                "tempo": 120.0
            },
            {
                "start_time": 16.6227273,
                "end_time": 16.7068182,
                "pitch": 81,
                "velocity": 80,
                "duration": 0.0840909,
                "tempo": 120.0
            },
            {
                "start_time": 16.7227273,
                "end_time": 16.8045455,
                "pitch": 84,
                "velocity": 80,
                "duration": 0.0818182,
                "tempo": 120.0
            },
            {
                "start_time": 16.8204545,
                "end_time": 16.9022727,
                "pitch": 86,
                "velocity": 80,
                "duration": 0.0818182,
                "tempo": 120.0
            },
            {
                "start_time": 16.9204545,
                "end_time": 17.0022727,
                "pitch": 89,
                "velocity": 80,
                "duration": 0.0818182,
                "tempo": 120.0
            },
            {
                "start_time": 17.0181818,
                "end_time": 17.1,
                "pitch": 93,
                "velocity": 80,
                "duration": 0.0818182,
                "tempo": 120.0
            },
            {
                "start_time": 17.1181818,
                "end_time": 17.2,
                "pitch": 96,
                "velocity": 80,
                "duration": 0.0818182,
                "tempo": 120.0
            },
            {
                "start_time": 17.2159091,
                "end_time": 17.2977273,
                "pitch": 98,
                "velocity": 80,
                "duration": 0.0818182,
                "tempo": 120.0
            },
            {
                "start_time": 17.3136364,
                "end_time": 17.3954545,
                "pitch": 101,
                "velocity": 80,
                "duration": 0.0818182,
                "tempo": 120.0
            },
            {
                "start_time": 15.725,
                "end_time": 17.4136364,
                "pitch": 114,
                "velocity": 80,
                "duration": 1.6886364,
                "tempo": 120.0
            },
            {
                "start_time": 17.4136364,
                "end_time": 17.4954545,
                "pitch": 105,
                "velocity": 80,
                "duration": 0.0818182,
                "tempo": 120.0
            },
            {
                "start_time": 16.125,
                "end_time": 17.5954545,
                "pitch": 62,
                "velocity": 80,
                "duration": 1.4704545,
                "tempo": 120.0
            },
            {
                "start_time": 17.5113636,
                "end_time": 17.5954545,
                "pitch": 62,
                "velocity": 80,
                "duration": 0.0840909,
                "tempo": 120.0
            },
            {
                "start_time": 17.6113636,
                "end_time": 17.6954545,
                "pitch": 65,
                "velocity": 80,
                "duration": 0.0840909,
                "tempo": 120.0
            },
            {
                "start_time": 16.2272727,
                "end_time": 17.7136364,
                "pitch": 78,
                "velocity": 80,
                "duration": 1.4863636,
                "tempo": 120.0
            },
            {
                "start_time": 17.1181818,
                "end_time": 17.7954545,
                "pitch": 67,
                "velocity": 80,
                "duration": 0.6772727,
                "tempo": 120.0
            },
            {
                "start_time": 17.7136364,
                "end_time": 17.7954545,
                "pitch": 67,
                "velocity": 80,
                "duration": 0.0818182,
                "tempo": 120.0
            },
            {
                "start_time": 17.8136364,
                "end_time": 17.8977273,
                "pitch": 70,
                "velocity": 80,
                "duration": 0.0840909,
                "tempo": 120.0
            },
            {
                "start_time": 16.525,
                "end_time": 17.9954545,
                "pitch": 74,
                "velocity": 80,
                "duration": 1.4704545,
                "tempo": 120.0
            },
            {
                "start_time": 17.9136364,
                "end_time": 17.9954545,
                "pitch": 74,
                "velocity": 80,
                "duration": 0.0818182,
                "tempo": 120.0
            },
            {
                "start_time": 18.0136364,
                "end_time": 18.0954545,
                "pitch": 77,
                "velocity": 80,
                "duration": 0.0818182,
                "tempo": 120.0
            },
            {
                "start_time": 16.6227273,
                "end_time": 18.1113636,
                "pitch": 90,
                "velocity": 80,
                "duration": 1.4886364,
                "tempo": 120.0
            },
            {
                "start_time": 18.1113636,
                "end_time": 18.1931818,
                "pitch": 79,
                "velocity": 80,
                "duration": 0.0818182,
                "tempo": 120.0
            },
            {
                "start_time": 18.2090909,
                "end_time": 18.2909091,
                "pitch": 82,
                "velocity": 80,
                "duration": 0.0818182,
                "tempo": 120.0
            },
            {
                "start_time": 17.6113636,
                "end_time": 18.3090909,
                "pitch": 62,
                "velocity": 80,
                "duration": 0.6977273,
                "tempo": 120.0
            },
            {
                "start_time": 16.9204545,
                "end_time": 18.3909091,
                "pitch": 86,
                "velocity": 80,
                "duration": 1.4704545,
                "tempo": 120.0
            },
            {
                "start_time": 18.3090909,
                "end_time": 18.3909091,
                "pitch": 86,
                "velocity": 80,
                "duration": 0.0818182,
                "tempo": 120.0
            },
            {
                "start_time": 18.4068182,
                "end_time": 18.4886364,
                "pitch": 89,
                "velocity": 80,
                "duration": 0.0818182,
                "tempo": 120.0
            },
            {
                "start_time": 17.0181818,
                "end_time": 18.5068182,
                "pitch": 102,
                "velocity": 80,
                "duration": 1.4886364,
                "tempo": 120.0
            },
            {
                "start_time": 18.5068182,
                "end_time": 18.5886364,
                "pitch": 91,
                "velocity": 80,
                "duration": 0.0818182,
                "tempo": 120.0
            },
            {
                "start_time": 18.6045455,
                "end_time": 18.6863636,
                "pitch": 94,
                "velocity": 80,
                "duration": 0.0818182,
                "tempo": 120.0
            },
            {
                "start_time": 18.0136364,
                "end_time": 18.7045455,
                "pitch": 74,
                "velocity": 80,
                "duration": 0.6909091,
                "tempo": 120.0
            },
            {
                "start_time": 18.7022727,
                "end_time": 18.7045455,
                "pitch": 74,
                "velocity": 80,
                "duration": 0.0022727,
                "tempo": 120.0
            },
            {
                "start_time": 17.3136364,
                "end_time": 18.7863636,
                "pitch": 98,
                "velocity": 80,
                "duration": 1.4727273,
                "tempo": 120.0
            },
            {
                "start_time": 18.7045455,
                "end_time": 18.7863636,
                "pitch": 98,
                "velocity": 80,
                "duration": 0.0818182,
                "tempo": 120.0
            },
            {
                "start_time": 18.8022727,
                "end_time": 18.8840909,
                "pitch": 101,
                "velocity": 80,
                "duration": 0.0818182,
                "tempo": 120.0
            },
            {
                "start_time": 17.4136364,
                "end_time": 18.9,
                "pitch": 114,
                "velocity": 80,
                "duration": 1.4863636,
                "tempo": 120.0
            },
            {
                "start_time": 18.9,
                "end_time": 18.9818182,
                "pitch": 103,
                "velocity": 80,
                "duration": 0.0818182,
                "tempo": 120.0
            },
            {
                "start_time": 19.0,
                "end_time": 19.0818182,
                "pitch": 106,
                "velocity": 80,
                "duration": 0.0818182,
                "tempo": 120.0
            },
            {
                "start_time": 16.0227273,
                "end_time": 19.1818182,
                "pitch": 60,
                "velocity": 80,
                "duration": 3.1590909,
                "tempo": 120.0
            },
            {
                "start_time": 19.0977273,
                "end_time": 19.1818182,
                "pitch": 60,
                "velocity": 80,
                "duration": 0.0840909,
                "tempo": 120.0
            },
            {
                "start_time": 18.3090909,
                "end_time": 19.2840909,
                "pitch": 62,
                "velocity": 80,
                "duration": 0.975,
                "tempo": 120.0
            },
            {
                "start_time": 19.2,
                "end_time": 19.2840909,
                "pitch": 62,
                "velocity": 80,
                "duration": 0.0840909,
                "tempo": 120.0
            },
            {
                "start_time": 19.3,
                "end_time": 19.3840909,
                "pitch": 65,
                "velocity": 80,
                "duration": 0.0840909,
                "tempo": 120.0
            },
            {
                "start_time": 17.7136364,
                "end_time": 19.4022727,
                "pitch": 78,
                "velocity": 80,
                "duration": 1.6886364,
                "tempo": 120.0
            },
            {
                "start_time": 19.4022727,
                "end_time": 19.4863636,
                "pitch": 69,
                "velocity": 80,
                "duration": 0.0840909,
                "tempo": 120.0
            },
            {
                "start_time": 16.3272727,
                "end_time": 19.5022727,
                "pitch": 43,
                "velocity": 80,
                "duration": 3.175,
                "tempo": 120.0
            },
            {
                "start_time": 16.4272727,
                "end_time": 19.5840909,
                "pitch": 72,
                "velocity": 80,
                "duration": 3.1568182,
                "tempo": 120.0
            },
            {
                "start_time": 19.5022727,
                "end_time": 19.5840909,
                "pitch": 72,
                "velocity": 80,
                "duration": 0.0818182,
                "tempo": 120.0
            },
            {
                "start_time": 19.6022727,
                "end_time": 19.6840909,
                "pitch": 74,
                "velocity": 80,
                "duration": 0.0818182,
                "tempo": 120.0
            },
            {
                "start_time": 19.7,
                "end_time": 19.7818182,
                "pitch": 77,
                "velocity": 80,
                "duration": 0.0818182,
                "tempo": 120.0
            },
            {
                "start_time": 18.1113636,
                "end_time": 19.8,
                "pitch": 90,
                "velocity": 80,
                "duration": 1.6886364,
                "tempo": 120.0
            },
            {
                "start_time": 19.8,
                "end_time": 19.8818182,
                "pitch": 81,
                "velocity": 80,
                "duration": 0.0818182,
                "tempo": 120.0
            },
            {
                "start_time": 16.7227273,
                "end_time": 19.8977273,
                "pitch": 55,
                "velocity": 80,
                "duration": 3.175,
                "tempo": 120.0
            },
            {
                "start_time": 16.8204545,
                "end_time": 19.9795455,
                "pitch": 84,
                "velocity": 80,
                "duration": 3.1590909,
                "tempo": 120.0
            },
            {
                "start_time": 19.8977273,
                "end_time": 19.9795455,
                "pitch": 84,
                "velocity": 80,
                "duration": 0.0818182,
                "tempo": 120.0
            },
            {
                "start_time": 18.4068182,
                "end_time": 20.0772727,
                "pitch": 86,
                "velocity": 80,
                "duration": 1.6704545,
                "tempo": 120.0
            },
            {
                "start_time": 19.9954545,
                "end_time": 20.0772727,
                "pitch": 86,
                "velocity": 80,
                "duration": 0.0818182,
                "tempo": 120.0
            },
            {
                "start_time": 20.0954545,
                "end_time": 20.1772727,
                "pitch": 89,
                "velocity": 80,
                "duration": 0.0818182,
                "tempo": 120.0
            },
            {
                "start_time": 18.5068182,
                "end_time": 20.1931818,
                "pitch": 102,
                "velocity": 80,
                "duration": 1.6863636,
                "tempo": 120.0
            },
            {
                "start_time": 20.1931818,
                "end_time": 20.275,
                "pitch": 93,
                "velocity": 80,
                "duration": 0.0818182,
                "tempo": 120.0
            },
            {
                "start_time": 17.8136364,
                "end_time": 20.2931818,
                "pitch": 67,
                "velocity": 80,
                "duration": 2.4795455,
                "tempo": 120.0
            },
            {
                "start_time": 17.2159091,
                "end_time": 20.375,
                "pitch": 96,
                "velocity": 80,
                "duration": 3.1590909,
                "tempo": 120.0
            },
            {
                "start_time": 20.2931818,
                "end_time": 20.375,
                "pitch": 96,
                "velocity": 80,
                "duration": 0.0818182,
                "tempo": 120.0
            },
            {
                "start_time": 18.8022727,
                "end_time": 20.4727273,
                "pitch": 98,
                "velocity": 80,
                "duration": 1.6704545,
                "tempo": 120.0
            },
            {
                "start_time": 20.3909091,
                "end_time": 20.4727273,
                "pitch": 98,
                "velocity": 80,
                "duration": 0.0818182,
                "tempo": 120.0
            },
            {
                "start_time": 20.4886364,
                "end_time": 20.5727273,
                "pitch": 101,
                "velocity": 80,
                "duration": 0.0840909,
                "tempo": 120.0
            },
            {
                "start_time": 18.9,
                "end_time": 20.5886364,
                "pitch": 114,
                "velocity": 80,
                "duration": 1.6886364,
                "tempo": 120.0
            },
            {
                "start_time": 20.5886364,
                "end_time": 20.6704545,
                "pitch": 105,
                "velocity": 80,
                "duration": 0.0818182,
                "tempo": 120.0
            },
            {
                "start_time": 20.6863636,
                "end_time": 20.7704545,
                "pitch": 105,
                "velocity": 80,
                "duration": 0.0840909,
                "tempo": 120.0
            },
            {
                "start_time": 20.2931818,
                "end_time": 20.7886364,
                "pitch": 67,
                "velocity": 80,
                "duration": 0.4954545,
                "tempo": 120.0
            },
            {
                "start_time": 20.7886364,
                "end_time": 20.8727273,
                "pitch": 101,
                "velocity": 80,
                "duration": 0.0840909,
                "tempo": 120.0
            },
            {
                "start_time": 20.4886364,
                "end_time": 20.9727273,
                "pitch": 98,
                "velocity": 80,
                "duration": 0.4840909,
                "tempo": 120.0
            },
            {
                "start_time": 20.8886364,
                "end_time": 20.9727273,
                "pitch": 98,
                "velocity": 80,
                "duration": 0.0840909,
                "tempo": 120.0
            },
            {
                "start_time": 20.3909091,
                "end_time": 21.075,
                "pitch": 96,
                "velocity": 80,
                "duration": 0.6840909,
                "tempo": 120.0
            },
            {
                "start_time": 20.9909091,
                "end_time": 21.075,
                "pitch": 96,
                "velocity": 80,
                "duration": 0.0840909,
                "tempo": 120.0
            },
            {
                "start_time": 21.0909091,
                "end_time": 21.175,
                "pitch": 93,
                "velocity": 80,
                "duration": 0.0840909,
                "tempo": 120.0
            },
            {
                "start_time": 19.8977273,
                "end_time": 21.1909091,
                "pitch": 55,
                "velocity": 80,
                "duration": 1.2931818,
                "tempo": 120.0
            },
            {
                "start_time": 21.1909091,
                "end_time": 21.2727273,
                "pitch": 89,
                "velocity": 80,
                "duration": 0.0818182,
                "tempo": 120.0
            },
            {
                "start_time": 20.0954545,
                "end_time": 21.3704545,
                "pitch": 86,
                "velocity": 80,
                "duration": 1.275,
                "tempo": 120.0
            },
            {
                "start_time": 21.2886364,
                "end_time": 21.3704545,
                "pitch": 86,
                "velocity": 80,
                "duration": 0.0818182,
                "tempo": 120.0
            },
            {
                "start_time": 19.9954545,
                "end_time": 21.4704545,
                "pitch": 84,
                "velocity": 80,
                "duration": 1.475,
                "tempo": 120.0
            },
            {
                "start_time": 21.3886364,
                "end_time": 21.4704545,
                "pitch": 84,
                "velocity": 80,
                "duration": 0.0818182,
                "tempo": 120.0
            },
            {
                "start_time": 21.4863636,
                "end_time": 21.5681818,
                "pitch": 81,
                "velocity": 80,
                "duration": 0.0818182,
                "tempo": 120.0
            },
            {
                "start_time": 19.5022727,
                "end_time": 21.5863636,
                "pitch": 43,
                "velocity": 80,
                "duration": 2.0840909,
                "tempo": 120.0
            },
            {
                "start_time": 21.5863636,
                "end_time": 21.6681818,
                "pitch": 77,
                "velocity": 80,
                "duration": 0.0818182,
                "tempo": 120.0
            },
            {
                "start_time": 19.7,
                "end_time": 21.7659091,
                "pitch": 74,
                "velocity": 80,
                "duration": 2.0659091,
                "tempo": 120.0
            },
            {
                "start_time": 21.6840909,
                "end_time": 21.7659091,
                "pitch": 74,
                "velocity": 80,
                "duration": 0.0818182,
                "tempo": 120.0
            },
            {
                "start_time": 19.6022727,
                "end_time": 21.8636364,
                "pitch": 72,
                "velocity": 80,
                "duration": 2.2613636,
                "tempo": 120.0
            },
            {
                "start_time": 21.7818182,
                "end_time": 21.8636364,
                "pitch": 72,
                "velocity": 80,
                "duration": 0.0818182,
                "tempo": 120.0
            },
            {
                "start_time": 21.8818182,
                "end_time": 21.9636364,
                "pitch": 69,
                "velocity": 80,
                "duration": 0.0818182,
                "tempo": 120.0
            },
            {
                "start_time": 17.5113636,
                "end_time": 21.9795455,
                "pitch": 31,
                "velocity": 80,
                "duration": 4.4681818,
                "tempo": 120.0
            },
            {
                "start_time": 21.9795455,
                "end_time": 22.0613636,
                "pitch": 65,
                "velocity": 80,
                "duration": 0.0818182,
                "tempo": 120.0
            },
            {
                "start_time": 19.3,
                "end_time": 22.1613636,
                "pitch": 62,
                "velocity": 80,
                "duration": 2.8613636,
                "tempo": 120.0
            },
            {
                "start_time": 22.0795455,
                "end_time": 22.1613636,
                "pitch": 62,
                "velocity": 80,
                "duration": 0.0818182,
                "tempo": 120.0
            },
            {
                "start_time": 19.2,
                "end_time": 22.2590909,
                "pitch": 60,
                "velocity": 80,
                "duration": 3.0590909,
                "tempo": 120.0
            },
            {
                "start_time": 22.1772727,
                "end_time": 22.2590909,
                "pitch": 60,
                "velocity": 80,
                "duration": 0.0818182,
                "tempo": 120.0
            },
            {
                "start_time": 12.7477273,
                "end_time": 34.9727273,
                "pitch": 32,
                "velocity": 80,
                "duration": 22.225,
                "tempo": 120.0
            },
            {
                "start_time": 12.8477273,
                "end_time": 35.0545455,
                "pitch": 51,
                "velocity": 80,
                "duration": 22.2068182,
                "tempo": 120.0
            },
            {
                "start_time": 34.9727273,
                "end_time": 35.0545455,
                "pitch": 51,
                "velocity": 80,
                "duration": 0.0818182,
                "tempo": 120.0
            },
            {
                "start_time": 35.0704545,
                "end_time": 35.1522727,
                "pitch": 54,
                "velocity": 80,
                "duration": 0.0818182,
                "tempo": 120.0
            },
            {
                "start_time": 14.7272727,
                "end_time": 35.2522727,
                "pitch": 56,
                "velocity": 80,
                "duration": 20.525,
                "tempo": 120.0
            },
            {
                "start_time": 35.1681818,
                "end_time": 35.2522727,
                "pitch": 56,
                "velocity": 80,
                "duration": 0.0840909,
                "tempo": 120.0
            },
            {
                "start_time": 35.2681818,
                "end_time": 35.35,
                "pitch": 59,
                "velocity": 80,
                "duration": 0.0818182,
                "tempo": 120.0
            },
            {
                "start_time": 15.9227273,
                "end_time": 35.3659091,
                "pitch": 44,
                "velocity": 80,
                "duration": 19.4431818,
                "tempo": 120.0
            },
            {
                "start_time": 14.4318182,
                "end_time": 35.45,
                "pitch": 63,
                "velocity": 80,
                "duration": 21.0181818,
                "tempo": 120.0
            },
            {
                "start_time": 35.3659091,
                "end_time": 35.45,
                "pitch": 63,
                "velocity": 80,
                "duration": 0.0840909,
                "tempo": 120.0
            },
            {
                "start_time": 35.1681818,
                "end_time": 35.55,
                "pitch": 66,
                "velocity": 80,
                "duration": 0.3818182,
                "tempo": 120.0
            },
            {
                "start_time": 35.4659091,
                "end_time": 35.55,
                "pitch": 66,
                "velocity": 80,
                "duration": 0.0840909,
                "tempo": 120.0
            },
            {
                "start_time": 19.4022727,
                "end_time": 35.5681818,
                "pitch": 78,
                "velocity": 80,
                "duration": 16.1659091,
                "tempo": 120.0
            },
            {
                "start_time": 15.1340909,
                "end_time": 35.6522727,
                "pitch": 68,
                "velocity": 80,
                "duration": 20.5181818,
                "tempo": 120.0
            },
            {
                "start_time": 35.5681818,
                "end_time": 35.6522727,
                "pitch": 68,
                "velocity": 80,
                "duration": 0.0840909,
                "tempo": 120.0
            },
            {
                "start_time": 35.6681818,
                "end_time": 35.7522727,
                "pitch": 71,
                "velocity": 80,
                "duration": 0.0840909,
                "tempo": 120.0
            },
            {
                "start_time": 35.2681818,
                "end_time": 35.7681818,
                "pitch": 56,
                "velocity": 80,
                "duration": 0.5,
                "tempo": 120.0
            },
            {
                "start_time": 14.8295455,
                "end_time": 35.85,
                "pitch": 75,
                "velocity": 80,
                "duration": 21.0204545,
                "tempo": 120.0
            },
            {
                "start_time": 35.7681818,
                "end_time": 35.85,
                "pitch": 75,
                "velocity": 80,
                "duration": 0.0818182,
                "tempo": 120.0
            },
            {
                "start_time": 35.5681818,
                "end_time": 35.95,
                "pitch": 78,
                "velocity": 80,
                "duration": 0.3818182,
                "tempo": 120.0
            },
            {
                "start_time": 35.8681818,
                "end_time": 35.95,
                "pitch": 78,
                "velocity": 80,
                "duration": 0.0818182,
                "tempo": 120.0
            },
            {
                "start_time": 19.8,
                "end_time": 35.9659091,
                "pitch": 90,
                "velocity": 80,
                "duration": 16.1659091,
                "tempo": 120.0
            },
            {
                "start_time": 15.5272727,
                "end_time": 36.0477273,
                "pitch": 80,
                "velocity": 80,
                "duration": 20.5204545,
                "tempo": 120.0
            },
            {
                "start_time": 35.9659091,
                "end_time": 36.0477273,
                "pitch": 80,
                "velocity": 80,
                "duration": 0.0818182,
                "tempo": 120.0
            },
            {
                "start_time": 36.0659091,
                "end_time": 36.1477273,
                "pitch": 83,
                "velocity": 80,
                "duration": 0.0818182,
                "tempo": 120.0
            },
            {
                "start_time": 35.6681818,
                "end_time": 36.1636364,
                "pitch": 68,
                "velocity": 80,
                "duration": 0.4954545,
                "tempo": 120.0
            },
            {
                "start_time": 15.2318182,
                "end_time": 36.2454545,
                "pitch": 87,
                "velocity": 80,
                "duration": 21.0136364,
                "tempo": 120.0
            },
            {
                "start_time": 36.1636364,
                "end_time": 36.2454545,
                "pitch": 87,
                "velocity": 80,
                "duration": 0.0818182,
                "tempo": 120.0
            },
            {
                "start_time": 35.9659091,
                "end_time": 36.3431818,
                "pitch": 90,
                "velocity": 80,
                "duration": 0.3772727,
                "tempo": 120.0
            },
            {
                "start_time": 36.2613636,
                "end_time": 36.3431818,
                "pitch": 90,
                "velocity": 80,
                "duration": 0.0818182,
                "tempo": 120.0
            },
            {
                "start_time": 20.1931818,
                "end_time": 36.3613636,
                "pitch": 102,
                "velocity": 80,
                "duration": 16.1681818,
                "tempo": 120.0
            },
            {
                "start_time": 15.4295455,
                "end_time": 36.4431818,
                "pitch": 92,
                "velocity": 80,
                "duration": 21.0136364,
                "tempo": 120.0
            },
            {
                "start_time": 36.3613636,
                "end_time": 36.4431818,
                "pitch": 92,
                "velocity": 80,
                "duration": 0.0818182,
                "tempo": 120.0
            },
            {
                "start_time": 36.4590909,
                "end_time": 36.5409091,
                "pitch": 95,
                "velocity": 80,
                "duration": 0.0818182,
                "tempo": 120.0
            },
            {
                "start_time": 35.3659091,
                "end_time": 36.5590909,
                "pitch": 44,
                "velocity": 80,
                "duration": 1.1931818,
                "tempo": 120.0
            },
            {
                "start_time": 35.4659091,
                "end_time": 36.6409091,
                "pitch": 63,
                "velocity": 80,
                "duration": 1.175,
                "tempo": 120.0
            },
            {
                "start_time": 36.5590909,
                "end_time": 36.6409091,
                "pitch": 63,
                "velocity": 80,
                "duration": 0.0818182,
                "tempo": 120.0
            },
            {
                "start_time": 36.6568182,
                "end_time": 36.7386364,
                "pitch": 66,
                "velocity": 80,
                "duration": 0.0818182,
                "tempo": 120.0
            },
            {
                "start_time": 36.1636364,
                "end_time": 36.8363636,
                "pitch": 68,
                "velocity": 80,
                "duration": 0.6727273,
                "tempo": 120.0
            },
            {
                "start_time": 36.7545455,
                "end_time": 36.8363636,
                "pitch": 68,
                "velocity": 80,
                "duration": 0.0818182,
                "tempo": 120.0
            },
            {
                "start_time": 36.8545455,
                "end_time": 36.9363636,
                "pitch": 71,
                "velocity": 80,
                "duration": 0.0818182,
                "tempo": 120.0
            },
            {
                "start_time": 35.7681818,
                "end_time": 36.9522727,
                "pitch": 56,
                "velocity": 80,
                "duration": 1.1840909,
                "tempo": 120.0
            },
            {
                "start_time": 35.8681818,
                "end_time": 37.0363636,
                "pitch": 75,
                "velocity": 80,
                "duration": 1.1681818,
                "tempo": 120.0
            },
            {
                "start_time": 36.9522727,
                "end_time": 37.0363636,
                "pitch": 75,
                "velocity": 80,
                "duration": 0.0840909,
                "tempo": 120.0
            },
            {
                "start_time": 36.7545455,
                "end_time": 37.1363636,
                "pitch": 78,
                "velocity": 80,
                "duration": 0.3818182,
                "tempo": 120.0
            },
            {
                "start_time": 37.0522727,
                "end_time": 37.1363636,
                "pitch": 78,
                "velocity": 80,
                "duration": 0.0840909,
                "tempo": 120.0
            },
            {
                "start_time": 36.0659091,
                "end_time": 37.2363636,
                "pitch": 80,
                "velocity": 80,
                "duration": 1.1704545,
                "tempo": 120.0
            },
            {
                "start_time": 37.1545455,
                "end_time": 37.2363636,
                "pitch": 80,
                "velocity": 80,
                "duration": 0.0818182,
                "tempo": 120.0
            },
            {
                "start_time": 37.2545455,
                "end_time": 37.3386364,
                "pitch": 83,
                "velocity": 80,
                "duration": 0.0840909,
                "tempo": 120.0
            },
            {
                "start_time": 36.8545455,
                "end_time": 37.3545455,
                "pitch": 68,
                "velocity": 80,
                "duration": 0.5,
                "tempo": 120.0
            },
            {
                "start_time": 36.2613636,
                "end_time": 37.4363636,
                "pitch": 87,
                "velocity": 80,
                "duration": 1.175,
                "tempo": 120.0
            },
            {
                "start_time": 37.3545455,
                "end_time": 37.4363636,
                "pitch": 87,
                "velocity": 80,
                "duration": 0.0818182,
                "tempo": 120.0
            },
            {
                "start_time": 37.1545455,
                "end_time": 37.5363636,
                "pitch": 90,
                "velocity": 80,
                "duration": 0.3818182,
                "tempo": 120.0
            },
            {
                "start_time": 37.4545455,
                "end_time": 37.5363636,
                "pitch": 90,
                "velocity": 80,
                "duration": 0.0818182,
                "tempo": 120.0
            },
            {
                "start_time": 36.3613636,
                "end_time": 37.5522727,
                "pitch": 102,
                "velocity": 80,
                "duration": 1.1909091,
                "tempo": 120.0
            },
            {
                "start_time": 36.4590909,
                "end_time": 37.6340909,
                "pitch": 92,
                "velocity": 80,
                "duration": 1.175,
                "tempo": 120.0
            },
            {
                "start_time": 37.5522727,
                "end_time": 37.6340909,
                "pitch": 92,
                "velocity": 80,
                "duration": 0.0818182,
                "tempo": 120.0
            },
            {
                "start_time": 37.6522727,
                "end_time": 37.7340909,
                "pitch": 95,
                "velocity": 80,
                "duration": 0.0818182,
                "tempo": 120.0
            },
            {
                "start_time": 37.2545455,
                "end_time": 37.75,
                "pitch": 80,
                "velocity": 80,
                "duration": 0.4954545,
                "tempo": 120.0
            },
            {
                "start_time": 15.6272727,
                "end_time": 37.8318182,
                "pitch": 99,
                "velocity": 80,
                "duration": 22.2045455,
                "tempo": 120.0
            },
            {
                "start_time": 37.75,
                "end_time": 37.8318182,
                "pitch": 99,
                "velocity": 80,
                "duration": 0.0818182,
                "tempo": 120.0
            },
            {
                "start_time": 37.5522727,
                "end_time": 37.9295455,
                "pitch": 102,
                "velocity": 80,
                "duration": 0.3772727,
                "tempo": 120.0
            },
            {
                "start_time": 37.8477273,
                "end_time": 37.9295455,
                "pitch": 102,
                "velocity": 80,
                "duration": 0.0818182,
                "tempo": 120.0
            },
            {
                "start_time": 20.5886364,
                "end_time": 37.9477273,
                "pitch": 114,
                "velocity": 80,
                "duration": 17.3590909,
                "tempo": 120.0
            },
            {
                "start_time": 15.825,
                "end_time": 38.0295455,
                "pitch": 104,
                "velocity": 80,
                "duration": 22.2045455,
                "tempo": 120.0
            },
            {
                "start_time": 37.9477273,
                "end_time": 38.0295455,
                "pitch": 104,
                "velocity": 80,
                "duration": 0.0818182,
                "tempo": 120.0
            },
            {
                "start_time": 38.0454545,
                "end_time": 38.1272727,
                "pitch": 107,
                "velocity": 80,
                "duration": 0.0818182,
                "tempo": 120.0
            },
            {
                "start_time": 36.5590909,
                "end_time": 38.1454545,
                "pitch": 44,
                "velocity": 80,
                "duration": 1.5863636,
                "tempo": 120.0
            },
            {
                "start_time": 38.1454545,
                "end_time": 38.2272727,
                "pitch": 60,
                "velocity": 80,
                "duration": 0.0818182,
                "tempo": 120.0
            },
            {
                "start_time": 22.1772727,
                "end_time": 38.325,
                "pitch": 62,
                "velocity": 80,
                "duration": 16.1477273,
                "tempo": 120.0
            },
            {
                "start_time": 38.2431818,
                "end_time": 38.325,
                "pitch": 62,
                "velocity": 80,
                "duration": 0.0818182,
                "tempo": 120.0
            },
            {
                "start_time": 22.0795455,
                "end_time": 38.4227273,
                "pitch": 65,
                "velocity": 80,
                "duration": 16.3431818,
                "tempo": 120.0
            },
            {
                "start_time": 38.3409091,
                "end_time": 38.4227273,
                "pitch": 65,
                "velocity": 80,
                "duration": 0.0818182,
                "tempo": 120.0
            },
            {
                "start_time": 38.4409091,
                "end_time": 38.5227273,
                "pitch": 69,
                "velocity": 80,
                "duration": 0.0818182,
                "tempo": 120.0
            },
            {
                "start_time": 21.5863636,
                "end_time": 38.5386364,
                "pitch": 43,
                "velocity": 80,
                "duration": 16.9522727,
                "tempo": 120.0
            },
            {
                "start_time": 38.5386364,
                "end_time": 38.6227273,
                "pitch": 72,
                "velocity": 80,
                "duration": 0.0840909,
                "tempo": 120.0
            },
            {
                "start_time": 21.7818182,
                "end_time": 38.7227273,
                "pitch": 74,
                "velocity": 80,
                "duration": 16.9409091,
                "tempo": 120.0
            },
            {
                "start_time": 38.6386364,
                "end_time": 38.7227273,
                "pitch": 74,
                "velocity": 80,
                "duration": 0.0840909,
                "tempo": 120.0
            },
            {
                "start_time": 21.6840909,
                "end_time": 38.8227273,
                "pitch": 77,
                "velocity": 80,
                "duration": 17.1386364,
                "tempo": 120.0
            },
            {
                "start_time": 38.7409091,
                "end_time": 38.8227273,
                "pitch": 77,
                "velocity": 80,
                "duration": 0.0818182,
                "tempo": 120.0
            },
            {
                "start_time": 38.8409091,
                "end_time": 38.925,
                "pitch": 81,
                "velocity": 80,
                "duration": 0.0840909,
                "tempo": 120.0
            },
            {
                "start_time": 21.1909091,
                "end_time": 38.9409091,
                "pitch": 55,
                "velocity": 80,
                "duration": 17.75,
                "tempo": 120.0
            },
            {
                "start_time": 38.9409091,
                "end_time": 39.0227273,
                "pitch": 84,
                "velocity": 80,
                "duration": 0.0818182,
                "tempo": 120.0
            },
            {
                "start_time": 21.3886364,
                "end_time": 39.1227273,
                "pitch": 86,
                "velocity": 80,
                "duration": 17.7340909,
                "tempo": 120.0
            },
            {
                "start_time": 39.0409091,
                "end_time": 39.1227273,
                "pitch": 86,
                "velocity": 80,
                "duration": 0.0818182,
                "tempo": 120.0
            },
            {
                "start_time": 21.2886364,
                "end_time": 39.2204545,
                "pitch": 89,
                "velocity": 80,
                "duration": 17.9318182,
                "tempo": 120.0
            },
            {
                "start_time": 39.1386364,
                "end_time": 39.2204545,
                "pitch": 89,
                "velocity": 80,
                "duration": 0.0818182,
                "tempo": 120.0
            },
            {
                "start_time": 39.2386364,
                "end_time": 39.3204545,
                "pitch": 93,
                "velocity": 80,
                "duration": 0.0818182,
                "tempo": 120.0
            },
            {
                "start_time": 20.7886364,
                "end_time": 39.3363636,
                "pitch": 67,
                "velocity": 80,
                "duration": 18.5477273,
                "tempo": 120.0
            },
            {
                "start_time": 39.3363636,
                "end_time": 39.4181818,
                "pitch": 96,
                "velocity": 80,
                "duration": 0.0818182,
                "tempo": 120.0
            },
            {
                "start_time": 20.9909091,
                "end_time": 39.5159091,
                "pitch": 98,
                "velocity": 80,
                "duration": 18.525,
                "tempo": 120.0
            },
            {
                "start_time": 39.4340909,
                "end_time": 39.5159091,
                "pitch": 98,
                "velocity": 80,
                "duration": 0.0818182,
                "tempo": 120.0
            },
            {
                "start_time": 20.8886364,
                "end_time": 39.6159091,
                "pitch": 101,
                "velocity": 80,
                "duration": 18.7272727,
                "tempo": 120.0
            },
            {
                "start_time": 39.5340909,
                "end_time": 39.6159091,
                "pitch": 101,
                "velocity": 80,
                "duration": 0.0818182,
                "tempo": 120.0
            },
            {
                "start_time": 37.9477273,
                "end_time": 39.6318182,
                "pitch": 114,
                "velocity": 80,
                "duration": 1.6840909,
                "tempo": 120.0
            },
            {
                "start_time": 39.6318182,
                "end_time": 39.7136364,
                "pitch": 105,
                "velocity": 80,
                "duration": 0.0818182,
                "tempo": 120.0
            },
            {
                "start_time": 21.9795455,
                "end_time": 39.7318182,
                "pitch": 31,
                "velocity": 80,
                "duration": 17.7522727,
                "tempo": 120.0
            },
            {
                "start_time": 38.3409091,
                "end_time": 39.8136364,
                "pitch": 62,
                "velocity": 80,
                "duration": 1.4727273,
                "tempo": 120.0
            },
            {
                "start_time": 39.7318182,
                "end_time": 39.8136364,
                "pitch": 62,
                "velocity": 80,
                "duration": 0.0818182,
                "tempo": 120.0
            },
            {
                "start_time": 39.8295455,
                "end_time": 39.9113636,
                "pitch": 65,
                "velocity": 80,
                "duration": 0.0818182,
                "tempo": 120.0
            },
            {
                "start_time": 38.4409091,
                "end_time": 39.9272727,
                "pitch": 78,
                "velocity": 80,
                "duration": 1.4863636,
                "tempo": 120.0
            },
            {
                "start_time": 39.3363636,
                "end_time": 40.0090909,
                "pitch": 67,
                "velocity": 80,
                "duration": 0.6727273,
                "tempo": 120.0
            },
            {
                "start_time": 39.9272727,
                "end_time": 40.0090909,
                "pitch": 67,
                "velocity": 80,
                "duration": 0.0818182,
                "tempo": 120.0
            },
            {
                "start_time": 40.0272727,
                "end_time": 40.1090909,
                "pitch": 70,
                "velocity": 80,
                "duration": 0.0818182,
                "tempo": 120.0
            },
            {
                "start_time": 17.9136364,
                "end_time": 40.125,
                "pitch": 50,
                "velocity": 80,
                "duration": 22.2113636,
                "tempo": 120.0
            },
            {
                "start_time": 38.7409091,
                "end_time": 40.2068182,
                "pitch": 74,
                "velocity": 80,
                "duration": 1.4659091,
                "tempo": 120.0
            },
            {
                "start_time": 40.125,
                "end_time": 40.2068182,
                "pitch": 74,
                "velocity": 80,
                "duration": 0.0818182,
                "tempo": 120.0
            },
            {
                "start_time": 40.225,
                "end_time": 40.3068182,
                "pitch": 77,
                "velocity": 80,
                "duration": 0.0818182,
                "tempo": 120.0
            },
            {
                "start_time": 38.8409091,
                "end_time": 40.3227273,
                "pitch": 90,
                "velocity": 80,
                "duration": 1.4818182,
                "tempo": 120.0
            },
            {
                "start_time": 18.2090909,
                "end_time": 40.4045455,
                "pitch": 79,
                "velocity": 80,
                "duration": 22.1954545,
                "tempo": 120.0
            },
            {
                "start_time": 40.3227273,
                "end_time": 40.4045455,
                "pitch": 79,
                "velocity": 80,
                "duration": 0.0818182,
                "tempo": 120.0
            },
            {
                "start_time": 40.4204545,
                "end_time": 40.5022727,
                "pitch": 82,
                "velocity": 80,
                "duration": 0.0818182,
                "tempo": 120.0
            },
            {
                "start_time": 39.8295455,
                "end_time": 40.5204545,
                "pitch": 62,
                "velocity": 80,
                "duration": 0.6909091,
                "tempo": 120.0
            },
            {
                "start_time": 39.1386364,
                "end_time": 40.6045455,
                "pitch": 86,
                "velocity": 80,
                "duration": 1.4659091,
                "tempo": 120.0
            },
            {
                "start_time": 40.5204545,
                "end_time": 40.6045455,
                "pitch": 86,
                "velocity": 80,
                "duration": 0.0840909,
                "tempo": 120.0
            },
            {
                "start_time": 40.6204545,
                "end_time": 40.7045455,
                "pitch": 89,
                "velocity": 80,
                "duration": 0.0840909,
                "tempo": 120.0
            },
            {
                "start_time": 39.2386364,
                "end_time": 40.7204545,
                "pitch": 102,
                "velocity": 80,
                "duration": 1.4818182,
                "tempo": 120.0
            },
            {
                "start_time": 18.6045455,
                "end_time": 40.8045455,
                "pitch": 91,
                "velocity": 80,
                "duration": 22.2,
                "tempo": 120.0
            },
            {
                "start_time": 40.7204545,
                "end_time": 40.8045455,
                "pitch": 91,
                "velocity": 80,
                "duration": 0.0840909,
                "tempo": 120.0
            },
            {
                "start_time": 40.8227273,
                "end_time": 40.9045455,
                "pitch": 94,
                "velocity": 80,
                "duration": 0.0818182,
                "tempo": 120.0
            },
            {
                "start_time": 40.225,
                "end_time": 40.9227273,
                "pitch": 74,
                "velocity": 80,
                "duration": 0.6977273,
                "tempo": 120.0
            },
            {
                "start_time": 39.5340909,
                "end_time": 41.0045455,
                "pitch": 98,
                "velocity": 80,
                "duration": 1.4704545,
                "tempo": 120.0
            },
            {
                "start_time": 40.9227273,
                "end_time": 41.0045455,
                "pitch": 98,
                "velocity": 80,
                "duration": 0.0818182,
                "tempo": 120.0
            },
            {
                "start_time": 41.0204545,
                "end_time": 41.1022727,
                "pitch": 101,
                "velocity": 80,
                "duration": 0.0818182,
                "tempo": 120.0
            },
            {
                "start_time": 39.6318182,
                "end_time": 41.1204545,
                "pitch": 114,
                "velocity": 80,
                "duration": 1.4886364,
                "tempo": 120.0
            },
            {
                "start_time": 19.0,
                "end_time": 41.2022727,
                "pitch": 103,
                "velocity": 80,
                "duration": 22.2022727,
                "tempo": 120.0
            },
            {
                "start_time": 41.1204545,
                "end_time": 41.2022727,
                "pitch": 103,
                "velocity": 80,
                "duration": 0.0818182,
                "tempo": 120.0
            },
            {
                "start_time": 41.2181818,
                "end_time": 41.3,
                "pitch": 106,
                "velocity": 80,
                "duration": 0.0818182,
                "tempo": 120.0
            },
            {
                "start_time": 19.0977273,
                "end_time": 41.3181818,
                "pitch": 38,
                "velocity": 80,
                "duration": 22.2204545,
                "tempo": 120.0
            },
            {
                "start_time": 38.2431818,
                "end_time": 41.4,
                "pitch": 60,
                "velocity": 80,
                "duration": 3.1568182,
                "tempo": 120.0
            },
            {
                "start_time": 41.3181818,
                "end_time": 41.4,
                "pitch": 60,
                "velocity": 80,
                "duration": 0.0818182,
                "tempo": 120.0
            },
            {
                "start_time": 40.5204545,
                "end_time": 41.4977273,
                "pitch": 62,
                "velocity": 80,
                "duration": 0.9772727,
                "tempo": 120.0
            },
            {
                "start_time": 41.4159091,
                "end_time": 41.4977273,
                "pitch": 62,
                "velocity": 80,
                "duration": 0.0818182,
                "tempo": 120.0
            },
            {
                "start_time": 41.5136364,
                "end_time": 41.5954545,
                "pitch": 65,
                "velocity": 80,
                "duration": 0.0818182,
                "tempo": 120.0
            },
            {
                "start_time": 39.9272727,
                "end_time": 41.6136364,
                "pitch": 78,
                "velocity": 80,
                "duration": 1.6863636,
                "tempo": 120.0
            },
            {
                "start_time": 41.6136364,
                "end_time": 41.6954545,
                "pitch": 69,
                "velocity": 80,
                "duration": 0.0818182,
                "tempo": 120.0
            },
            {
                "start_time": 38.5386364,
                "end_time": 41.7113636,
                "pitch": 43,
                "velocity": 80,
                "duration": 3.1727273,
                "tempo": 120.0
            },
            {
                "start_time": 38.6386364,
                "end_time": 41.7954545,
                "pitch": 72,
                "velocity": 80,
                "duration": 3.1568182,
                "tempo": 120.0
            },
            {
                "start_time": 41.7113636,
                "end_time": 41.7954545,
                "pitch": 72,
                "velocity": 80,
                "duration": 0.0840909,
                "tempo": 120.0
            },
            {
                "start_time": 40.9227273,
                "end_time": 41.8954545,
                "pitch": 74,
                "velocity": 80,
                "duration": 0.9727273,
                "tempo": 120.0
            },
            {
                "start_time": 41.8113636,
                "end_time": 41.8954545,
                "pitch": 74,
                "velocity": 80,
                "duration": 0.0840909,
                "tempo": 120.0
            },
            {
                "start_time": 41.9136364,
                "end_time": 41.9954545,
                "pitch": 77,
                "velocity": 80,
                "duration": 0.0818182,
                "tempo": 120.0
            },
            {
                "start_time": 40.3227273,
                "end_time": 42.0136364,
                "pitch": 90,
                "velocity": 80,
                "duration": 1.6909091,
                "tempo": 120.0
            },
            {
                "start_time": 42.0136364,
                "end_time": 42.0977273,
                "pitch": 81,
                "velocity": 80,
                "duration": 0.0840909,
                "tempo": 120.0
            },
            {
                "start_time": 38.9409091,
                "end_time": 42.1136364,
                "pitch": 55,
                "velocity": 80,
                "duration": 3.1727273,
                "tempo": 120.0
            },
            {
                "start_time": 39.0409091,
                "end_time": 42.1954545,
                "pitch": 84,
                "velocity": 80,
                "duration": 3.1545455,
                "tempo": 120.0
            },
            {
                "start_time": 42.1136364,
                "end_time": 42.1954545,
                "pitch": 84,
                "velocity": 80,
                "duration": 0.0818182,
                "tempo": 120.0
            },
            {
                "start_time": 40.6204545,
                "end_time": 42.2954545,
                "pitch": 86,
                "velocity": 80,
                "duration": 1.675,
                "tempo": 120.0
            },
            {
                "start_time": 42.2136364,
                "end_time": 42.2954545,
                "pitch": 86,
                "velocity": 80,
                "duration": 0.0818182,
                "tempo": 120.0
            },
            {
                "start_time": 42.3113636,
                "end_time": 42.3931818,
                "pitch": 89,
                "velocity": 80,
                "duration": 0.0818182,
                "tempo": 120.0
            },
            {
                "start_time": 40.7204545,
                "end_time": 42.4090909,
                "pitch": 102,
                "velocity": 80,
                "duration": 1.6886364,
                "tempo": 120.0
            },
            {
                "start_time": 42.4090909,
                "end_time": 42.4931818,
                "pitch": 93,
                "velocity": 80,
                "duration": 0.0840909,
                "tempo": 120.0
            },
            {
                "start_time": 40.0272727,
                "end_time": 42.5090909,
                "pitch": 67,
                "velocity": 80,
                "duration": 2.4818182,
                "tempo": 120.0
            },
            {
                "start_time": 39.4340909,
                "end_time": 42.5909091,
                "pitch": 96,
                "velocity": 80,
                "duration": 3.1568182,
                "tempo": 120.0
            },
            {
                "start_time": 42.5090909,
                "end_time": 42.5909091,
                "pitch": 96,
                "velocity": 80,
                "duration": 0.0818182,
                "tempo": 120.0
            },
            {
                "start_time": 41.0204545,
                "end_time": 42.6886364,
                "pitch": 98,
                "velocity": 80,
                "duration": 1.6681818,
                "tempo": 120.0
            },
            {
                "start_time": 42.6068182,
                "end_time": 42.6886364,
                "pitch": 98,
                "velocity": 80,
                "duration": 0.0818182,
                "tempo": 120.0
            },
            {
                "start_time": 42.7068182,
                "end_time": 42.7886364,
                "pitch": 101,
                "velocity": 80,
                "duration": 0.0818182,
                "tempo": 120.0
            },
            {
                "start_time": 41.1204545,
                "end_time": 42.8045455,
                "pitch": 114,
                "velocity": 80,
                "duration": 1.6840909,
                "tempo": 120.0
            },
            {
                "start_time": 42.8045455,
                "end_time": 42.8863636,
                "pitch": 105,
                "velocity": 80,
                "duration": 0.0818182,
                "tempo": 120.0
            },
            {
                "start_time": 42.9045455,
                "end_time": 42.9863636,
                "pitch": 105,
                "velocity": 80,
                "duration": 0.0818182,
                "tempo": 120.0
            },
            {
                "start_time": 42.5090909,
                "end_time": 43.0022727,
                "pitch": 67,
                "velocity": 80,
                "duration": 0.4931818,
                "tempo": 120.0
            },
            {
                "start_time": 43.0022727,
                "end_time": 43.0840909,
                "pitch": 101,
                "velocity": 80,
                "duration": 0.0818182,
                "tempo": 120.0
            },
            {
                "start_time": 42.7068182,
                "end_time": 43.1818182,
                "pitch": 98,
                "velocity": 80,
                "duration": 0.475,
                "tempo": 120.0
            },
            {
                "start_time": 43.1,
                "end_time": 43.1818182,
                "pitch": 98,
                "velocity": 80,
                "duration": 0.0818182,
                "tempo": 120.0
            },
            {
                "start_time": 42.6068182,
                "end_time": 43.2818182,
                "pitch": 96,
                "velocity": 80,
                "duration": 0.675,
                "tempo": 120.0
            },
            {
                "start_time": 43.2,
                "end_time": 43.2818182,
                "pitch": 96,
                "velocity": 80,
                "duration": 0.0818182,
                "tempo": 120.0
            },
            {
                "start_time": 21.0909091,
                "end_time": 43.2977273,
                "pitch": 100,
                "velocity": 80,
                "duration": 22.2068182,
                "tempo": 120.0
            },
            {
                "start_time": 43.2977273,
                "end_time": 43.3795455,
                "pitch": 93,
                "velocity": 80,
                "duration": 0.0818182,
                "tempo": 120.0
            },
            {
                "start_time": 42.1136364,
                "end_time": 43.3977273,
                "pitch": 55,
                "velocity": 80,
                "duration": 1.2840909,
                "tempo": 120.0
            },
            {
                "start_time": 43.3977273,
                "end_time": 43.4795455,
                "pitch": 89,
                "velocity": 80,
                "duration": 0.0818182,
                "tempo": 120.0
            },
            {
                "start_time": 42.3113636,
                "end_time": 43.5772727,
                "pitch": 86,
                "velocity": 80,
                "duration": 1.2659091,
                "tempo": 120.0
            },
            {
                "start_time": 43.4954545,
                "end_time": 43.5772727,
                "pitch": 86,
                "velocity": 80,
                "duration": 0.0818182,
                "tempo": 120.0
            },
            {
                "start_time": 42.2136364,
                "end_time": 43.675,
                "pitch": 84,
                "velocity": 80,
                "duration": 1.4613636,
                "tempo": 120.0
            },
            {
                "start_time": 43.5931818,
                "end_time": 43.675,
                "pitch": 84,
                "velocity": 80,
                "duration": 0.0818182,
                "tempo": 120.0
            },
            {
                "start_time": 21.4863636,
                "end_time": 43.6931818,
                "pitch": 88,
                "velocity": 80,
                "duration": 22.2068182,
                "tempo": 120.0
            },
            {
                "start_time": 43.6931818,
                "end_time": 43.7772727,
                "pitch": 81,
                "velocity": 80,
                "duration": 0.0840909,
                "tempo": 120.0
            },
            {
                "start_time": 41.7113636,
                "end_time": 43.7931818,
                "pitch": 43,
                "velocity": 80,
                "duration": 2.0818182,
                "tempo": 120.0
            },
            {
                "start_time": 43.7931818,
                "end_time": 43.8772727,
                "pitch": 77,
                "velocity": 80,
                "duration": 0.0840909,
                "tempo": 120.0
            },
            {
                "start_time": 41.9136364,
                "end_time": 43.9772727,
                "pitch": 74,
                "velocity": 80,
                "duration": 2.0636364,
                "tempo": 120.0
            },
            {
                "start_time": 43.8931818,
                "end_time": 43.9772727,
                "pitch": 74,
                "velocity": 80,
                "duration": 0.0840909,
                "tempo": 120.0
            },
            {
                "start_time": 41.8113636,
                "end_time": 44.0772727,
                "pitch": 72,
                "velocity": 80,
                "duration": 2.2659091,
                "tempo": 120.0
            },
            {
                "start_time": 43.9954545,
                "end_time": 44.0772727,
                "pitch": 72,
                "velocity": 80,
                "duration": 0.0818182,
                "tempo": 120.0
            },
            {
                "start_time": 21.8818182,
                "end_time": 44.0954545,
                "pitch": 76,
                "velocity": 80,
                "duration": 22.2136364,
                "tempo": 120.0
            },
            {
                "start_time": 44.0954545,
                "end_time": 44.1772727,
                "pitch": 69,
                "velocity": 80,
                "duration": 0.0818182,
                "tempo": 120.0
            },
            {
                "start_time": 39.7318182,
                "end_time": 44.1931818,
                "pitch": 31,
                "velocity": 80,
                "duration": 4.4613636,
                "tempo": 120.0
            },
            {
                "start_time": 44.1931818,
                "end_time": 44.275,
                "pitch": 65,
                "velocity": 80,
                "duration": 0.0818182,
                "tempo": 120.0
            },
            {
                "start_time": 41.5136364,
                "end_time": 44.375,
                "pitch": 62,
                "velocity": 80,
                "duration": 2.8613636,
                "tempo": 120.0
            },
            {
                "start_time": 44.2931818,
                "end_time": 44.375,
                "pitch": 62,
                "velocity": 80,
                "duration": 0.0818182,
                "tempo": 120.0
            },
            {
                "start_time": 41.4159091,
                "end_time": 44.4727273,
                "pitch": 60,
                "velocity": 80,
                "duration": 3.0568182,
                "tempo": 120.0
            },
            {
                "start_time": 44.3909091,
                "end_time": 44.4727273,
                "pitch": 60,
                "velocity": 80,
                "duration": 0.0818182,
                "tempo": 120.0
            }
        ],
        "Acoustic Bass": [
            {
                "start_time": 44.4909091,
                "end_time": 44.5727273,
                "pitch": 35,
                "velocity": 80,
                "duration": 0.0818182,
                "tempo": 120.0
            },
            {
                "start_time": 44.4909091,
                "end_time": 44.775,
                "pitch": 40,
                "velocity": 80,
                "duration": 0.2840909,
                "tempo": 120.0
            },
            {
                "start_time": 44.6909091,
                "end_time": 44.775,
                "pitch": 40,
                "velocity": 80,
                "duration": 0.0840909,
                "tempo": 120.0
            },
            {
                "start_time": 45.2772727,
                "end_time": 45.3590909,
                "pitch": 40,
                "velocity": 80,
                "duration": 0.0818182,
                "tempo": 120.0
            },
            {
                "start_time": 45.4772727,
                "end_time": 45.5613636,
                "pitch": 40,
                "velocity": 80,
                "duration": 0.0840909,
                "tempo": 120.0
            },
            {
                "start_time": 45.875,
                "end_time": 45.9590909,
                "pitch": 40,
                "velocity": 80,
                "duration": 0.0840909,
                "tempo": 120.0
            },
            {
                "start_time": 46.0727273,
                "end_time": 46.1545455,
                "pitch": 35,
                "velocity": 80,
                "duration": 0.0818182,
                "tempo": 120.0
            },
            {
                "start_time": 44.6909091,
                "end_time": 46.2704545,
                "pitch": 19,
                "velocity": 80,
                "duration": 1.5795455,
                "tempo": 120.0
            },
            {
                "start_time": 46.2704545,
                "end_time": 46.3522727,
                "pitch": 40,
                "velocity": 80,
                "duration": 0.0818182,
                "tempo": 120.0
            },
            {
                "start_time": 46.8636364,
                "end_time": 46.9454545,
                "pitch": 40,
                "velocity": 80,
                "duration": 0.0818182,
                "tempo": 120.0
            },
            {
                "start_time": 47.0636364,
                "end_time": 47.1477273,
                "pitch": 40,
                "velocity": 80,
                "duration": 0.0840909,
                "tempo": 120.0
            },
            {
                "start_time": 47.4613636,
                "end_time": 47.5454545,
                "pitch": 40,
                "velocity": 80,
                "duration": 0.0840909,
                "tempo": 120.0
            },
            {
                "start_time": 47.6590909,
                "end_time": 47.7409091,
                "pitch": 36,
                "velocity": 80,
                "duration": 0.0818182,
                "tempo": 120.0
            },
            {
                "start_time": 47.8568182,
                "end_time": 47.9386364,
                "pitch": 43,
                "velocity": 80,
                "duration": 0.0818182,
                "tempo": 120.0
            },
            {
                "start_time": 48.45,
                "end_time": 48.5318182,
                "pitch": 43,
                "velocity": 80,
                "duration": 0.0818182,
                "tempo": 120.0
            },
            {
                "start_time": 48.65,
                "end_time": 48.7340909,
                "pitch": 43,
                "velocity": 80,
                "duration": 0.0840909,
                "tempo": 120.0
            },
            {
                "start_time": 49.0477273,
                "end_time": 49.1318182,
                "pitch": 43,
                "velocity": 80,
                "duration": 0.0840909,
                "tempo": 120.0
            },
            {
                "start_time": 49.2454545,
                "end_time": 49.3272727,
                "pitch": 36,
                "velocity": 80,
                "duration": 0.0818182,
                "tempo": 120.0
            },
            {
                "start_time": 47.8568182,
                "end_time": 49.4431818,
                "pitch": 52,
                "velocity": 80,
                "duration": 1.5863636,
                "tempo": 120.0
            },
            {
                "start_time": 49.4431818,
                "end_time": 49.525,
                "pitch": 43,
                "velocity": 80,
                "duration": 0.0818182,
                "tempo": 120.0
            },
            {
                "start_time": 50.0363636,
                "end_time": 50.1181818,
                "pitch": 43,
                "velocity": 80,
                "duration": 0.0818182,
                "tempo": 120.0
            },
            {
                "start_time": 50.2318182,
                "end_time": 50.3136364,
                "pitch": 43,
                "velocity": 80,
                "duration": 0.0818182,
                "tempo": 120.0
            },
            {
                "start_time": 50.6318182,
                "end_time": 50.7136364,
                "pitch": 43,
                "velocity": 80,
                "duration": 0.0818182,
                "tempo": 120.0
            },
            {
                "start_time": 50.8318182,
                "end_time": 50.9136364,
                "pitch": 35,
                "velocity": 80,
                "duration": 0.0818182,
                "tempo": 120.0
            },
            {
                "start_time": 46.2704545,
                "end_time": 51.0295455,
                "pitch": 19,
                "velocity": 80,
                "duration": 4.7590909,
                "tempo": 120.0
            },
            {
                "start_time": 47.6590909,
                "end_time": 51.1113636,
                "pitch": 40,
                "velocity": 80,
                "duration": 3.4522727,
                "tempo": 120.0
            },
            {
                "start_time": 51.0295455,
                "end_time": 51.1113636,
                "pitch": 40,
                "velocity": 80,
                "duration": 0.0818182,
                "tempo": 120.0
            },
            {
                "start_time": 51.6227273,
                "end_time": 51.7045455,
                "pitch": 40,
                "velocity": 80,
                "duration": 0.0818182,
                "tempo": 120.0
            },
            {
                "start_time": 51.8181818,
                "end_time": 51.9,
                "pitch": 40,
                "velocity": 80,
                "duration": 0.0818182,
                "tempo": 120.0
            },
            {
                "start_time": 52.2181818,
                "end_time": 52.3,
                "pitch": 40,
                "velocity": 80,
                "duration": 0.0818182,
                "tempo": 120.0
            },
            {
                "start_time": 46.0727273,
                "end_time": 52.4181818,
                "pitch": 42,
                "velocity": 80,
                "duration": 6.3454545,
                "tempo": 120.0
            },
            {
                "start_time": 52.4181818,
                "end_time": 52.5,
                "pitch": 35,
                "velocity": 80,
                "duration": 0.0818182,
                "tempo": 120.0
            },
            {
                "start_time": 51.0295455,
                "end_time": 52.6159091,
                "pitch": 19,
                "velocity": 80,
                "duration": 1.5863636,
                "tempo": 120.0
            },
            {
                "start_time": 52.6159091,
                "end_time": 52.6977273,
                "pitch": 40,
                "velocity": 80,
                "duration": 0.0818182,
                "tempo": 120.0
            },
            {
                "start_time": 53.2068182,
                "end_time": 53.2909091,
                "pitch": 40,
                "velocity": 80,
                "duration": 0.0840909,
                "tempo": 120.0
            },
            {
                "start_time": 53.4090909,
                "end_time": 53.4931818,
                "pitch": 40,
                "velocity": 80,
                "duration": 0.0840909,
                "tempo": 120.0
            },
            {
                "start_time": 53.8068182,
                "end_time": 53.8886364,
                "pitch": 40,
                "velocity": 80,
                "duration": 0.0818182,
                "tempo": 120.0
            },
            {
                "start_time": 54.0045455,
                "end_time": 54.0863636,
                "pitch": 36,
                "velocity": 80,
                "duration": 0.0818182,
                "tempo": 120.0
            },
            {
                "start_time": 49.4431818,
                "end_time": 54.2022727,
                "pitch": 52,
                "velocity": 80,
                "duration": 4.7590909,
                "tempo": 120.0
            },
            {
                "start_time": 54.2022727,
                "end_time": 54.2840909,
                "pitch": 43,
                "velocity": 80,
                "duration": 0.0818182,
                "tempo": 120.0
            },
            {
                "start_time": 54.7931818,
                "end_time": 54.8772727,
                "pitch": 43,
                "velocity": 80,
                "duration": 0.0840909,
                "tempo": 120.0
            },
            {
                "start_time": 54.9909091,
                "end_time": 55.0727273,
                "pitch": 43,
                "velocity": 80,
                "duration": 0.0818182,
                "tempo": 120.0
            },
            {
                "start_time": 55.3909091,
                "end_time": 55.4727273,
                "pitch": 43,
                "velocity": 80,
                "duration": 0.0818182,
                "tempo": 120.0
            },
            {
                "start_time": 49.2454545,
                "end_time": 55.5909091,
                "pitch": 0,
                "velocity": 80,
                "duration": 6.3454545,
                "tempo": 120.0
            },
            {
                "start_time": 55.5909091,
                "end_time": 55.6727273,
                "pitch": 36,
                "velocity": 80,
                "duration": 0.0818182,
                "tempo": 120.0
            },
            {
                "start_time": 54.2022727,
                "end_time": 55.7886364,
                "pitch": 52,
                "velocity": 80,
                "duration": 1.5863636,
                "tempo": 120.0
            },
            {
                "start_time": 55.7886364,
                "end_time": 55.8704545,
                "pitch": 43,
                "velocity": 80,
                "duration": 0.0818182,
                "tempo": 120.0
            },
            {
                "start_time": 56.3795455,
                "end_time": 56.4636364,
                "pitch": 43,
                "velocity": 80,
                "duration": 0.0840909,
                "tempo": 120.0
            },
            {
                "start_time": 56.5772727,
                "end_time": 56.6590909,
                "pitch": 43,
                "velocity": 80,
                "duration": 0.0818182,
                "tempo": 120.0
            },
            {
                "start_time": 56.9772727,
                "end_time": 57.0590909,
                "pitch": 43,
                "velocity": 80,
                "duration": 0.0818182,
                "tempo": 120.0
            },
            {
                "start_time": 50.8318182,
                "end_time": 57.1772727,
                "pitch": 31,
                "velocity": 80,
                "duration": 6.3454545,
                "tempo": 120.0
            },
            {
                "start_time": 57.1772727,
                "end_time": 57.2590909,
                "pitch": 35,
                "velocity": 80,
                "duration": 0.0818182,
                "tempo": 120.0
            },
            {
                "start_time": 52.6159091,
                "end_time": 57.375,
                "pitch": 19,
                "velocity": 80,
                "duration": 4.7590909,
                "tempo": 120.0
            },
            {
                "start_time": 54.0045455,
                "end_time": 57.4568182,
                "pitch": 40,
                "velocity": 80,
                "duration": 3.4522727,
                "tempo": 120.0
            },
            {
                "start_time": 57.375,
                "end_time": 57.4568182,
                "pitch": 40,
                "velocity": 80,
                "duration": 0.0818182,
                "tempo": 120.0
            },
            {
                "start_time": 57.9659091,
                "end_time": 58.05,
                "pitch": 40,
                "velocity": 80,
                "duration": 0.0840909,
                "tempo": 120.0
            },
            {
                "start_time": 58.1636364,
                "end_time": 58.2454545,
                "pitch": 40,
                "velocity": 80,
                "duration": 0.0818182,
                "tempo": 120.0
            },
            {
                "start_time": 58.5636364,
                "end_time": 58.6454545,
                "pitch": 40,
                "velocity": 80,
                "duration": 0.0818182,
                "tempo": 120.0
            },
            {
                "start_time": 52.4181818,
                "end_time": 58.7636364,
                "pitch": 42,
                "velocity": 80,
                "duration": 6.3454545,
                "tempo": 120.0
            },
            {
                "start_time": 58.7636364,
                "end_time": 58.8454545,
                "pitch": 35,
                "velocity": 80,
                "duration": 0.0818182,
                "tempo": 120.0
            },
            {
                "start_time": 57.375,
                "end_time": 58.9613636,
                "pitch": 19,
                "velocity": 80,
                "duration": 1.5863636,
                "tempo": 120.0
            },
            {
                "start_time": 58.9613636,
                "end_time": 59.0431818,
                "pitch": 40,
                "velocity": 80,
                "duration": 0.0818182,
                "tempo": 120.0
            },
            {
                "start_time": 59.5522727,
                "end_time": 59.6340909,
                "pitch": 40,
                "velocity": 80,
                "duration": 0.0818182,
                "tempo": 120.0
            },
            {
                "start_time": 59.75,
                "end_time": 59.8318182,
                "pitch": 40,
                "velocity": 80,
                "duration": 0.0818182,
                "tempo": 120.0
            },
            {
                "start_time": 60.15,
                "end_time": 60.2340909,
                "pitch": 40,
                "velocity": 80,
                "duration": 0.0840909,
                "tempo": 120.0
            },
            {
                "start_time": 60.3522727,
                "end_time": 60.4340909,
                "pitch": 36,
                "velocity": 80,
                "duration": 0.0818182,
                "tempo": 120.0
            },
            {
                "start_time": 55.7886364,
                "end_time": 60.55,
                "pitch": 52,
                "velocity": 80,
                "duration": 4.7613636,
                "tempo": 120.0
            },
            {
                "start_time": 60.55,
                "end_time": 60.6318182,
                "pitch": 43,
                "velocity": 80,
                "duration": 0.0818182,
                "tempo": 120.0
            },
            {
                "start_time": 61.1431818,
                "end_time": 61.225,
                "pitch": 43,
                "velocity": 80,
                "duration": 0.0818182,
                "tempo": 120.0
            },
            {
                "start_time": 61.3386364,
                "end_time": 61.4204545,
                "pitch": 43,
                "velocity": 80,
                "duration": 0.0818182,
                "tempo": 120.0
            },
            {
                "start_time": 61.7386364,
                "end_time": 61.8227273,
                "pitch": 43,
                "velocity": 80,
                "duration": 0.0840909,
                "tempo": 120.0
            },
            {
                "start_time": 55.5909091,
                "end_time": 61.9409091,
                "pitch": 0,
                "velocity": 80,
                "duration": 6.35,
                "tempo": 120.0
            },
            {
                "start_time": 61.9409091,
                "end_time": 62.025,
                "pitch": 36,
                "velocity": 80,
                "duration": 0.0840909,
                "tempo": 120.0
            },
            {
                "start_time": 60.55,
                "end_time": 62.1386364,
                "pitch": 52,
                "velocity": 80,
                "duration": 1.5886364,
                "tempo": 120.0
            },
            {
                "start_time": 62.1386364,
                "end_time": 62.2204545,
                "pitch": 43,
                "velocity": 80,
                "duration": 0.0818182,
                "tempo": 120.0
            },
            {
                "start_time": 62.7318182,
                "end_time": 62.8136364,
                "pitch": 43,
                "velocity": 80,
                "duration": 0.0818182,
                "tempo": 120.0
            },
            {
                "start_time": 62.9295455,
                "end_time": 63.0113636,
                "pitch": 43,
                "velocity": 80,
                "duration": 0.0818182,
                "tempo": 120.0
            },
            {
                "start_time": 63.3272727,
                "end_time": 63.4136364,
                "pitch": 43,
                "velocity": 80,
                "duration": 0.0863636,
                "tempo": 120.0
            },
            {
                "start_time": 57.1772727,
                "end_time": 63.5318182,
                "pitch": 31,
                "velocity": 80,
                "duration": 6.3545455,
                "tempo": 120.0
            },
            {
                "start_time": 63.5318182,
                "end_time": 63.6136364,
                "pitch": 35,
                "velocity": 80,
                "duration": 0.0818182,
                "tempo": 120.0
            },
            {
                "start_time": 58.9613636,
                "end_time": 63.7272727,
                "pitch": 19,
                "velocity": 80,
                "duration": 4.7659091,
                "tempo": 120.0
            },
            {
                "start_time": 60.3522727,
                "end_time": 63.8113636,
                "pitch": 40,
                "velocity": 80,
                "duration": 3.4590909,
                "tempo": 120.0
            },
            {
                "start_time": 63.7272727,
                "end_time": 63.8113636,
                "pitch": 40,
                "velocity": 80,
                "duration": 0.0840909,
                "tempo": 120.0
            },
            {
                "start_time": 64.3204545,
                "end_time": 64.4022727,
                "pitch": 40,
                "velocity": 80,
                "duration": 0.0818182,
                "tempo": 120.0
            },
            {
                "start_time": 64.5181818,
                "end_time": 64.6,
                "pitch": 40,
                "velocity": 80,
                "duration": 0.0818182,
                "tempo": 120.0
            },
            {
                "start_time": 64.9159091,
                "end_time": 65.0,
                "pitch": 40,
                "velocity": 80,
                "duration": 0.0840909,
                "tempo": 120.0
            },
            {
                "start_time": 58.7636364,
                "end_time": 65.1181818,
                "pitch": 42,
                "velocity": 80,
                "duration": 6.3545455,
                "tempo": 120.0
            },
            {
                "start_time": 65.1181818,
                "end_time": 65.2,
                "pitch": 35,
                "velocity": 80,
                "duration": 0.0818182,
                "tempo": 120.0
            },
            {
                "start_time": 63.7272727,
                "end_time": 65.3136364,
                "pitch": 19,
                "velocity": 80,
                "duration": 1.5863636,
                "tempo": 120.0
            },
            {
                "start_time": 65.3136364,
                "end_time": 65.3977273,
                "pitch": 40,
                "velocity": 80,
                "duration": 0.0840909,
                "tempo": 120.0
            },
            {
                "start_time": 65.9068182,
                "end_time": 65.9886364,
                "pitch": 40,
                "velocity": 80,
                "duration": 0.0818182,
                "tempo": 120.0
            },
            {
                "start_time": 66.1045455,
                "end_time": 66.1863636,
                "pitch": 40,
                "velocity": 80,
                "duration": 0.0818182,
                "tempo": 120.0
            },
            {
                "start_time": 66.5045455,
                "end_time": 66.5886364,
                "pitch": 40,
                "velocity": 80,
                "duration": 0.0840909,
                "tempo": 120.0
            },
            {
                "start_time": 66.7068182,
                "end_time": 66.7886364,
                "pitch": 36,
                "velocity": 80,
                "duration": 0.0818182,
                "tempo": 120.0
            },
            {
                "start_time": 62.1386364,
                "end_time": 66.9045455,
                "pitch": 52,
                "velocity": 80,
                "duration": 4.7659091,
                "tempo": 120.0
            },
            {
                "start_time": 66.9045455,
                "end_time": 66.9863636,
                "pitch": 43,
                "velocity": 80,
                "duration": 0.0818182,
                "tempo": 120.0
            },
            {
                "start_time": 67.4954545,
                "end_time": 67.5772727,
                "pitch": 43,
                "velocity": 80,
                "duration": 0.0818182,
                "tempo": 120.0
            },
            {
                "start_time": 67.6931818,
                "end_time": 67.775,
                "pitch": 43,
                "velocity": 80,
                "duration": 0.0818182,
                "tempo": 120.0
            },
            {
                "start_time": 68.0909091,
                "end_time": 68.175,
                "pitch": 43,
                "velocity": 80,
                "duration": 0.0840909,
                "tempo": 120.0
            },
            {
                "start_time": 61.9409091,
                "end_time": 68.2931818,
                "pitch": 0,
                "velocity": 80,
                "duration": 6.3522727,
                "tempo": 120.0
            },
            {
                "start_time": 68.2931818,
                "end_time": 68.375,
                "pitch": 36,
                "velocity": 80,
                "duration": 0.0818182,
                "tempo": 120.0
            },
            {
                "start_time": 66.9045455,
                "end_time": 68.4909091,
                "pitch": 52,
                "velocity": 80,
                "duration": 1.5863636,
                "tempo": 120.0
            },
            {
                "start_time": 68.4909091,
                "end_time": 68.5727273,
                "pitch": 43,
                "velocity": 80,
                "duration": 0.0818182,
                "tempo": 120.0
            },
            {
                "start_time": 69.0818182,
                "end_time": 69.1636364,
                "pitch": 43,
                "velocity": 80,
                "duration": 0.0818182,
                "tempo": 120.0
            },
            {
                "start_time": 69.2795455,
                "end_time": 69.3613636,
                "pitch": 43,
                "velocity": 80,
                "duration": 0.0818182,
                "tempo": 120.0
            },
            {
                "start_time": 69.6795455,
                "end_time": 69.7636364,
                "pitch": 43,
                "velocity": 80,
                "duration": 0.0840909,
                "tempo": 120.0
            }
        ],
        "Violin": [
            {
                "start_time": 0.0477273,
                "end_time": 2.9568182,
                "pitch": 40,
                "velocity": 127,
                "duration": 2.9090909,
                "tempo": 120.0
            },
            {
                "start_time": 3.2227273,
                "end_time": 6.1295455,
                "pitch": 43,
                "velocity": 127,
                "duration": 2.9068182,
                "tempo": 120.0
            },
            {
                "start_time": 0.0477273,
                "end_time": 6.3931818,
                "pitch": 0,
                "velocity": 127,
                "duration": 6.3454545,
                "tempo": 120.0
            },
            {
                "start_time": 6.3931818,
                "end_time": 9.3068182,
                "pitch": 40,
                "velocity": 127,
                "duration": 2.9136364,
                "tempo": 120.0
            },
            {
                "start_time": 3.2227273,
                "end_time": 9.5727273,
                "pitch": 54,
                "velocity": 127,
                "duration": 6.35,
                "tempo": 120.0
            },
            {
                "start_time": 9.5727273,
                "end_time": 12.4863636,
                "pitch": 43,
                "velocity": 127,
                "duration": 2.9136364,
                "tempo": 120.0
            },
            {
                "start_time": 6.3931818,
                "end_time": 12.75,
                "pitch": 0,
                "velocity": 127,
                "duration": 6.3568182,
                "tempo": 120.0
            },
            {
                "start_time": 12.75,
                "end_time": 15.6613636,
                "pitch": 40,
                "velocity": 127,
                "duration": 2.9113636,
                "tempo": 120.0
            },
            {
                "start_time": 15.925,
                "end_time": 17.25,
                "pitch": 38,
                "velocity": 127,
                "duration": 1.325,
                "tempo": 120.0
            },
            {
                "start_time": 17.5136364,
                "end_time": 18.8363636,
                "pitch": 43,
                "velocity": 127,
                "duration": 1.3227273,
                "tempo": 120.0
            },
            {
                "start_time": 12.75,
                "end_time": 19.1,
                "pitch": 0,
                "velocity": 127,
                "duration": 6.35,
                "tempo": 120.0
            },
            {
                "start_time": 19.1,
                "end_time": 22.0136364,
                "pitch": 38,
                "velocity": 127,
                "duration": 2.9136364,
                "tempo": 120.0
            },
            {
                "start_time": 15.925,
                "end_time": 25.1886364,
                "pitch": 40,
                "velocity": 127,
                "duration": 9.2636364,
                "tempo": 120.0
            },
            {
                "start_time": 22.2795455,
                "end_time": 25.1886364,
                "pitch": 40,
                "velocity": 127,
                "duration": 2.9090909,
                "tempo": 120.0
            },
            {
                "start_time": 9.5727273,
                "end_time": 25.4545455,
                "pitch": 54,
                "velocity": 127,
                "duration": 15.8818182,
                "tempo": 120.0
            },
            {
                "start_time": 25.4545455,
                "end_time": 28.3636364,
                "pitch": 43,
                "velocity": 127,
                "duration": 2.9090909,
                "tempo": 120.0
            },
            {
                "start_time": 19.1,
                "end_time": 28.6295455,
                "pitch": 0,
                "velocity": 127,
                "duration": 9.5295455,
                "tempo": 120.0
            },
            {
                "start_time": 28.6295455,
                "end_time": 31.5363636,
                "pitch": 40,
                "velocity": 127,
                "duration": 2.9068182,
                "tempo": 120.0
            },
            {
                "start_time": 25.4545455,
                "end_time": 31.8022727,
                "pitch": 54,
                "velocity": 127,
                "duration": 6.3477273,
                "tempo": 120.0
            },
            {
                "start_time": 31.8022727,
                "end_time": 34.7090909,
                "pitch": 43,
                "velocity": 127,
                "duration": 2.9068182,
                "tempo": 120.0
            },
            {
                "start_time": 28.6295455,
                "end_time": 34.975,
                "pitch": 0,
                "velocity": 127,
                "duration": 6.3454545,
                "tempo": 120.0
            },
            {
                "start_time": 34.975,
                "end_time": 37.8818182,
                "pitch": 40,
                "velocity": 127,
                "duration": 2.9068182,
                "tempo": 120.0
            },
            {
                "start_time": 22.2795455,
                "end_time": 39.4681818,
                "pitch": 38,
                "velocity": 127,
                "duration": 17.1886364,
                "tempo": 120.0
            },
            {
                "start_time": 38.1477273,
                "end_time": 39.4681818,
                "pitch": 38,
                "velocity": 127,
                "duration": 1.3204545,
                "tempo": 120.0
            },
            {
                "start_time": 17.5136364,
                "end_time": 39.7340909,
                "pitch": 53,
                "velocity": 127,
                "duration": 22.2204545,
                "tempo": 120.0
            },
            {
                "start_time": 39.7340909,
                "end_time": 41.0545455,
                "pitch": 43,
                "velocity": 127,
                "duration": 1.3204545,
                "tempo": 120.0
            },
            {
                "start_time": 34.975,
                "end_time": 41.3204545,
                "pitch": 0,
                "velocity": 127,
                "duration": 6.3454545,
                "tempo": 120.0
            },
            {
                "start_time": 41.3204545,
                "end_time": 44.2272727,
                "pitch": 38,
                "velocity": 127,
                "duration": 2.9068182,
                "tempo": 120.0
            },
            {
                "start_time": 41.3204545,
                "end_time": 69.8863636,
                "pitch": 0,
                "velocity": 127,
                "duration": 28.5659091,
                "tempo": 120.0
            },
            {
                "start_time": 38.1477273,
                "end_time": 69.8977273,
                "pitch": 40,
                "velocity": 127,
                "duration": 31.75,
                "tempo": 120.0
            },
            {
                "start_time": 69.8863636,
                "end_time": 69.8977273,
                "pitch": 40,
                "velocity": 127,
                "duration": 0.0113636,
                "tempo": 120.0
            }
        ],
        "Electric Piano 1": [
            {
                "start_time": 44.4954545,
                "end_time": 47.3977273,
                "pitch": 76,
                "velocity": 80,
                "duration": 2.9022727,
                "tempo": 120.0
            },
            {
                "start_time": 47.6613636,
                "end_time": 50.5659091,
                "pitch": 79,
                "velocity": 80,
                "duration": 2.9045455,
                "tempo": 120.0
            },
            {
                "start_time": 50.8340909,
                "end_time": 53.7431818,
                "pitch": 76,
                "velocity": 80,
                "duration": 2.9090909,
                "tempo": 120.0
            },
            {
                "start_time": 47.6613636,
                "end_time": 54.0068182,
                "pitch": 90,
                "velocity": 80,
                "duration": 6.3454545,
                "tempo": 120.0
            },
            {
                "start_time": 54.0068182,
                "end_time": 56.9090909,
                "pitch": 79,
                "velocity": 80,
                "duration": 2.9022727,
                "tempo": 120.0
            },
            {
                "start_time": 50.8340909,
                "end_time": 57.1795455,
                "pitch": 0,
                "velocity": 80,
                "duration": 6.3454545,
                "tempo": 120.0
            },
            {
                "start_time": 57.1795455,
                "end_time": 60.0840909,
                "pitch": 76,
                "velocity": 80,
                "duration": 2.9045455,
                "tempo": 120.0
            },
            {
                "start_time": 54.0068182,
                "end_time": 60.3545455,
                "pitch": 90,
                "velocity": 80,
                "duration": 6.3477273,
                "tempo": 120.0
            },
            {
                "start_time": 60.3545455,
                "end_time": 63.2613636,
                "pitch": 79,
                "velocity": 80,
                "duration": 2.9068182,
                "tempo": 120.0
            },
            {
                "start_time": 57.1795455,
                "end_time": 63.5340909,
                "pitch": 0,
                "velocity": 80,
                "duration": 6.3545455,
                "tempo": 120.0
            },
            {
                "start_time": 63.5340909,
                "end_time": 66.4363636,
                "pitch": 76,
                "velocity": 80,
                "duration": 2.9022727,
                "tempo": 120.0
            },
            {
                "start_time": 60.3545455,
                "end_time": 66.7090909,
                "pitch": 90,
                "velocity": 80,
                "duration": 6.3545455,
                "tempo": 120.0
            },
            {
                "start_time": 66.7090909,
                "end_time": 69.6113636,
                "pitch": 79,
                "velocity": 80,
                "duration": 2.9022727,
                "tempo": 120.0
            }
        ]
    }
}