{
    "mood": "angry",
    "instruments": {
        "Clarinet": [
            {
                "start_time": 0.0068182,
                "end_time": 2.875,
                "pitch": 64,
                "velocity": 101,
                "duration": 2.8681818,
                "tempo": 120.0
            },
            {
                "start_time": 2.875,
                "end_time": 3.8363636,
                "pitch": 66,
                "velocity": 101,
                "duration": 0.9613636,
                "tempo": 120.0
            },
            {
                "start_time": 3.8363636,
                "end_time": 5.5340909,
                "pitch": 64,
                "velocity": 101,
                "duration": 1.6977273,
                "tempo": 120.0
            },
            {
                "start_time": 5.5340909,
                "end_time": 5.6454545,
                "pitch": 66,
                "velocity": 101,
                "duration": 0.1113636,
                "tempo": 120.0
            },
            {
                "start_time": 5.6454545,
                "end_time": 5.7590909,
                "pitch": 64,
                "velocity": 101,
                "duration": 0.1136364,
                "tempo": 120.0
            },
            {
                "start_time": 5.7590909,
                "end_time": 7.7068182,
                "pitch": 63,
                "velocity": 101,
                "duration": 1.9477273,
                "tempo": 120.0
            },
            {
                "start_time": 7.7068182,
                "end_time": 10.5931818,
                "pitch": 66,
                "velocity": 101,
                "duration": 2.8863636,
                "tempo": 120.0
            },
            {
                "start_time": 10.5931818,
                "end_time": 11.5772727,
                "pitch": 67,
                "velocity": 101,
                "duration": 0.9840909,
                "tempo": 120.0
            },
            {
                "start_time": 11.5772727,
                "end_time": 13.2681818,
                "pitch": 66,
                "velocity": 101,
                "duration": 1.6909091,
                "tempo": 120.0
            },
            {
                "start_time": 13.2681818,
                "end_time": 13.3840909,
                "pitch": 67,
                "velocity": 101,
                "duration": 0.1159091,
                "tempo": 120.0
            },
            {
                "start_time": 13.3840909,
                "end_time": 13.5045455,
                "pitch": 66,
                "velocity": 101,
                "duration": 0.1204545,
                "tempo": 120.0
            },
            {
                "start_time": 13.5045455,
                "end_time": 14.475,
                "pitch": 64,
                "velocity": 101,
                "duration": 0.9704545,
                "tempo": 120.0
            },
            {
                "start_time": 14.475,
                "end_time": 27.0386364,
                "pitch": 62,
                "velocity": 101,
                "duration": 12.5636364,
                "tempo": 120.0
            },
            {
                "start_time": 27.0409091,
                "end_time": 29.9340909,
                "pitch": 65,
                "velocity": 101,
                "duration": 2.8931818,
                "tempo": 120.0
            },
            {
                "start_time": 29.9340909,
                "end_time": 30.9181818,
                "pitch": 67,
                "velocity": 101,
                "duration": 0.9840909,
                "tempo": 120.0
            },
            {
                "start_time": 30.9181818,
                "end_time": 32.6136364,
                "pitch": 65,
                "velocity": 101,
                "duration": 1.6954545,
                "tempo": 120.0
            },
            {
                "start_time": 32.6136364,
                "end_time": 32.7295455,
                "pitch": 67,
                "velocity": 101,
                "duration": 0.1159091,
                "tempo": 120.0
            },
            {
                "start_time": 32.7295455,
                "end_time": 32.8477273,
                "pitch": 65,
                "velocity": 101,
                "duration": 0.1181818,
                "tempo": 120.0
            },
            {
                "start_time": 32.8477273,
                "end_time": 34.7704545,
                "pitch": 64,
                "velocity": 101,
                "duration": 1.9227273,
                "tempo": 120.0
            },
            {
                "start_time": 34.7727273,
                "end_time": 37.6772727,
                "pitch": 67,
                "velocity": 101,
                "duration": 2.9045455,
                "tempo": 120.0
            },
            {
                "start_time": 37.6795455,
                "end_time": 38.6613636,
                "pitch": 68,
                "velocity": 101,
                "duration": 0.9818182,
                "tempo": 120.0
            },
            {
                "start_time": 38.6613636,
                "end_time": 40.3295455,
                "pitch": 67,
                "velocity": 101,
                "duration": 1.6681818,
                "tempo": 120.0
            },
            {
                "start_time": 40.3295455,
                "end_time": 40.4613636,
                "pitch": 68,
                "velocity": 101,
                "duration": 0.1318182,
                "tempo": 120.0
            },
            {
                "start_time": 40.4613636,
                "end_time": 40.5818182,
                "pitch": 67,
                "velocity": 101,
                "duration": 0.1204545,
                "tempo": 120.0
            },
            {
                "start_time": 40.5818182,
                "end_time": 41.5431818,
                "pitch": 65,
                "velocity": 101,
                "duration": 0.9613636,
                "tempo": 120.0
            },
            {
                "start_time": 41.5431818,
                "end_time": 85.0545455,
                "pitch": 63,
                "velocity": 101,
                "duration": 43.5113636,
                "tempo": 120.0
            }
        ],
        "Trumpet": [
            {
                "start_time": 15.4318182,
                "end_time": 15.8068182,
                "pitch": 64,
                "velocity": 101,
                "duration": 0.375,
                "tempo": 120.0
            },
            {
                "start_time": 15.8068182,
                "end_time": 16.0409091,
                "pitch": 64,
                "velocity": 101,
                "duration": 0.2340909,
                "tempo": 120.0
            },
            {
                "start_time": 16.0409091,
                "end_time": 16.1386364,
                "pitch": 64,
                "velocity": 101,
                "duration": 0.0977273,
                "tempo": 120.0
            },
            {
                "start_time": 16.1386364,
                "end_time": 16.4045455,
                "pitch": 62,
                "velocity": 101,
                "duration": 0.2659091,
                "tempo": 120.0
            },
            {
                "start_time": 16.4045455,
                "end_time": 16.7613636,
                "pitch": 64,
                "velocity": 101,
                "duration": 0.3568182,
                "tempo": 120.0
            },
            {
                "start_time": 16.7636364,
                "end_time": 17.0159091,
                "pitch": 64,
                "velocity": 101,
                "duration": 0.2522727,
                "tempo": 120.0
            },
            {
                "start_time": 17.0159091,
                "end_time": 17.1340909,
                "pitch": 64,
                "velocity": 101,
                "duration": 0.1181818,
                "tempo": 120.0
            },
            {
                "start_time": 17.1340909,
                "end_time": 17.2295455,
                "pitch": 64,
                "velocity": 101,
                "duration": 0.0954545,
                "tempo": 120.0
            },
            {
                "start_time": 17.2295455,
                "end_time": 17.3659091,
                "pitch": 62,
                "velocity": 101,
                "duration": 0.1363636,
                "tempo": 120.0
            },
            {
                "start_time": 17.3659091,
                "end_time": 17.7272727,
                "pitch": 64,
                "velocity": 101,
                "duration": 0.3613636,
                "tempo": 120.0
            },
            {
                "start_time": 17.7272727,
                "end_time": 17.9590909,
                "pitch": 64,
                "velocity": 101,
                "duration": 0.2318182,
                "tempo": 120.0
            },
            {
                "start_time": 17.9590909,
                "end_time": 18.0590909,
                "pitch": 64,
                "velocity": 101,
                "duration": 0.1,
                "tempo": 120.0
            },
            {
                "start_time": 18.0590909,
                "end_time": 18.3295455,
                "pitch": 62,
                "velocity": 101,
                "duration": 0.2704545,
                "tempo": 120.0
            },
            {
                "start_time": 18.3318182,
                "end_time": 18.7068182,
                "pitch": 64,
                "velocity": 101,
                "duration": 0.375,
                "tempo": 120.0
            },
            {
                "start_time": 18.7068182,
                "end_time": 18.9431818,
                "pitch": 64,
                "velocity": 101,
                "duration": 0.2363636,
                "tempo": 120.0
            },
            {
                "start_time": 18.9431818,
                "end_time": 19.0613636,
                "pitch": 64,
                "velocity": 101,
                "duration": 0.1181818,
                "tempo": 120.0
            },
            {
                "start_time": 19.0613636,
                "end_time": 19.1613636,
                "pitch": 64,
                "velocity": 101,
                "duration": 0.1,
                "tempo": 120.0
            },
            {
                "start_time": 19.1613636,
                "end_time": 19.3136364,
                "pitch": 62,
                "velocity": 101,
                "duration": 0.1522727,
                "tempo": 120.0
            },
            {
                "start_time": 19.3136364,
                "end_time": 20.0318182,
                "pitch": 66,
                "velocity": 101,
                "duration": 0.7181818,
                "tempo": 120.0
            },
            {
                "start_time": 20.0318182,
                "end_time": 20.2613636,
                "pitch": 64,
                "velocity": 101,
                "duration": 0.2295455,
                "tempo": 120.0
            },
            {
                "start_time": 20.2613636,
                "end_time": 20.9931818,
                "pitch": 66,
                "velocity": 101,
                "duration": 0.7318182,
                "tempo": 120.0
            },
            {
                "start_time": 20.9931818,
                "end_time": 21.2454545,
                "pitch": 64,
                "velocity": 101,
                "duration": 0.2522727,
                "tempo": 120.0
            },
            {
                "start_time": 21.2454545,
                "end_time": 21.9681818,
                "pitch": 66,
                "velocity": 101,
                "duration": 0.7227273,
                "tempo": 120.0
            },
            {
                "start_time": 21.9681818,
                "end_time": 22.2068182,
                "pitch": 64,
                "velocity": 101,
                "duration": 0.2386364,
                "tempo": 120.0
            },
            {
                "start_time": 22.2068182,
                "end_time": 22.9363636,
                "pitch": 66,
                "velocity": 101,
                "duration": 0.7295455,
                "tempo": 120.0
            },
            {
                "start_time": 22.9363636,
                "end_time": 23.1727273,
                "pitch": 64,
                "velocity": 101,
                "duration": 0.2363636,
                "tempo": 120.0
            },
            {
                "start_time": 23.1727273,
                "end_time": 24.7568182,
                "pitch": 66,
                "velocity": 101,
                "duration": 1.5840909,
                "tempo": 120.0
            },
            {
                "start_time": 24.7568182,
                "end_time": 24.8727273,
                "pitch": 64,
                "velocity": 101,
                "duration": 0.1159091,
                "tempo": 120.0
            },
            {
                "start_time": 24.8727273,
                "end_time": 24.9863636,
                "pitch": 66,
                "velocity": 101,
                "duration": 0.1136364,
                "tempo": 120.0
            },
            {
                "start_time": 24.9863636,
                "end_time": 25.1022727,
                "pitch": 64,
                "velocity": 101,
                "duration": 0.1159091,
                "tempo": 120.0
            },
            {
                "start_time": 25.1022727,
                "end_time": 25.5863636,
                "pitch": 59,
                "velocity": 101,
                "duration": 0.4840909,
                "tempo": 120.0
            },
            {
                "start_time": 25.5863636,
                "end_time": 26.0818182,
                "pitch": 57,
                "velocity": 101,
                "duration": 0.4954545,
                "tempo": 120.0
            },
            {
                "start_time": 26.0818182,
                "end_time": 26.5704545,
                "pitch": 55,
                "velocity": 101,
                "duration": 0.4886364,
                "tempo": 120.0
            },
            {
                "start_time": 26.5704545,
                "end_time": 42.5181818,
                "pitch": 54,
                "velocity": 101,
                "duration": 15.9477273,
                "tempo": 120.0
            },
            {
                "start_time": 42.5181818,
                "end_time": 42.8840909,
                "pitch": 65,
                "velocity": 101,
                "duration": 0.3659091,
                "tempo": 120.0
            },
            {
                "start_time": 42.8840909,
                "end_time": 43.1181818,
                "pitch": 65,
                "velocity": 101,
                "duration": 0.2340909,
                "tempo": 120.0
            },
            {
                "start_time": 43.1181818,
                "end_time": 43.2181818,
                "pitch": 65,
                "velocity": 101,
                "duration": 0.1,
                "tempo": 120.0
            },
            {
                "start_time": 43.2181818,
                "end_time": 43.4886364,
                "pitch": 63,
                "velocity": 101,
                "duration": 0.2704545,
                "tempo": 120.0
            },
            {
                "start_time": 43.4886364,
                "end_time": 43.8477273,
                "pitch": 65,
                "velocity": 101,
                "duration": 0.3590909,
                "tempo": 120.0
            },
            {
                "start_time": 43.8477273,
                "end_time": 44.0954545,
                "pitch": 65,
                "velocity": 101,
                "duration": 0.2477273,
                "tempo": 120.0
            },
            {
                "start_time": 44.0954545,
                "end_time": 44.2090909,
                "pitch": 65,
                "velocity": 101,
                "duration": 0.1136364,
                "tempo": 120.0
            },
            {
                "start_time": 44.2090909,
                "end_time": 44.3022727,
                "pitch": 65,
                "velocity": 101,
                "duration": 0.0931818,
                "tempo": 120.0
            },
            {
                "start_time": 44.3022727,
                "end_time": 44.4340909,
                "pitch": 63,
                "velocity": 101,
                "duration": 0.1318182,
                "tempo": 120.0
            },
            {
                "start_time": 44.4340909,
                "end_time": 44.8022727,
                "pitch": 65,
                "velocity": 101,
                "duration": 0.3681818,
                "tempo": 120.0
            },
            {
                "start_time": 44.8022727,
                "end_time": 45.0386364,
                "pitch": 65,
                "velocity": 101,
                "duration": 0.2363636,
                "tempo": 120.0
            },
            {
                "start_time": 45.0386364,
                "end_time": 45.1409091,
                "pitch": 65,
                "velocity": 101,
                "duration": 0.1022727,
                "tempo": 120.0
            },
            {
                "start_time": 45.1409091,
                "end_time": 45.4159091,
                "pitch": 63,
                "velocity": 101,
                "duration": 0.275,
                "tempo": 120.0
            },
            {
                "start_time": 45.4181818,
                "end_time": 45.775,
                "pitch": 65,
                "velocity": 101,
                "duration": 0.3568182,
                "tempo": 120.0
            },
            {
                "start_time": 45.775,
                "end_time": 46.0295455,
                "pitch": 65,
                "velocity": 101,
                "duration": 0.2545455,
                "tempo": 120.0
            },
            {
                "start_time": 46.0295455,
                "end_time": 46.1477273,
                "pitch": 65,
                "velocity": 101,
                "duration": 0.1181818,
                "tempo": 120.0
            },
            {
                "start_time": 46.1477273,
                "end_time": 46.2477273,
                "pitch": 65,
                "velocity": 101,
                "duration": 0.1,
                "tempo": 120.0
            },
            {
                "start_time": 46.2477273,
                "end_time": 46.3840909,
                "pitch": 63,
                "velocity": 101,
                "duration": 0.1363636,
                "tempo": 120.0
            },
            {
                "start_time": 46.3840909,
                "end_time": 47.1113636,
                "pitch": 67,
                "velocity": 101,
                "duration": 0.7272727,
                "tempo": 120.0
            },
            {
                "start_time": 47.1113636,
                "end_time": 47.3431818,
                "pitch": 65,
                "velocity": 101,
                "duration": 0.2318182,
                "tempo": 120.0
            },
            {
                "start_time": 47.3431818,
                "end_time": 48.075,
                "pitch": 67,
                "velocity": 101,
                "duration": 0.7318182,
                "tempo": 120.0
            },
            {
                "start_time": 48.075,
                "end_time": 48.3272727,
                "pitch": 65,
                "velocity": 101,
                "duration": 0.2522727,
                "tempo": 120.0
            },
            {
                "start_time": 48.3272727,
                "end_time": 49.0409091,
                "pitch": 67,
                "velocity": 101,
                "duration": 0.7136364,
                "tempo": 120.0
            },
            {
                "start_time": 49.0409091,
                "end_time": 49.2704545,
                "pitch": 65,
                "velocity": 101,
                "duration": 0.2295455,
                "tempo": 120.0
            },
            {
                "start_time": 49.2704545,
                "end_time": 50.0,
                "pitch": 67,
                "velocity": 101,
                "duration": 0.7295455,
                "tempo": 120.0
            },
            {
                "start_time": 50.0,
                "end_time": 50.25,
                "pitch": 65,
                "velocity": 101,
                "duration": 0.25,
                "tempo": 120.0
            },
            {
                "start_time": 50.25,
                "end_time": 51.8,
                "pitch": 67,
                "velocity": 101,
                "duration": 1.55,
                "tempo": 120.0
            },
            {
                "start_time": 51.8,
                "end_time": 51.9386364,
                "pitch": 65,
                "velocity": 101,
                "duration": 0.1386364,
                "tempo": 120.0
            },
            {
                "start_time": 51.9386364,
                "end_time": 52.0568182,
                "pitch": 67,
                "velocity": 101,
                "duration": 0.1181818,
                "tempo": 120.0
            },
            {
                "start_time": 52.0568182,
                "end_time": 52.1772727,
                "pitch": 65,
                "velocity": 101,
                "duration": 0.1204545,
                "tempo": 120.0
            },
            {
                "start_time": 52.1772727,
                "end_time": 52.6613636,
                "pitch": 60,
                "velocity": 101,
                "duration": 0.4840909,
                "tempo": 120.0
            },
            {
                "start_time": 52.6613636,
                "end_time": 53.15,
                "pitch": 58,
                "velocity": 101,
                "duration": 0.4886364,
                "tempo": 120.0
            },
            {
                "start_time": 53.15,
                "end_time": 53.6272727,
                "pitch": 56,
                "velocity": 101,
                "duration": 0.4772727,
                "tempo": 120.0
            }
        ],
        "Acoustic Bass": [
            {
                "start_time": 0.0068182,
                "end_time": 0.1227273,
                "pitch": 40,
                "velocity": 80,
                "duration": 0.1159091,
                "tempo": 120.0
            },
            {
                "start_time": 0.1227273,
                "end_time": 0.2409091,
                "pitch": 40,
                "velocity": 80,
                "duration": 0.1181818,
                "tempo": 120.0
            },
            {
                "start_time": 0.2409091,
                "end_time": 0.3590909,
                "pitch": 40,
                "velocity": 80,
                "duration": 0.1181818,
                "tempo": 120.0
            },
            {
                "start_time": 0.3590909,
                "end_time": 0.475,
                "pitch": 40,
                "velocity": 80,
                "duration": 0.1159091,
                "tempo": 120.0
            },
            {
                "start_time": 0.4772727,
                "end_time": 0.6045455,
                "pitch": 40,
                "velocity": 80,
                "duration": 0.1272727,
                "tempo": 120.0
            },
            {
                "start_time": 0.6045455,
                "end_time": 0.7159091,
                "pitch": 40,
                "velocity": 80,
                "duration": 0.1113636,
                "tempo": 120.0
            },
            {
                "start_time": 0.7159091,
                "end_time": 0.8295455,
                "pitch": 40,
                "velocity": 80,
                "duration": 0.1136364,
                "tempo": 120.0
            },
            {
                "start_time": 0.8295455,
                "end_time": 0.9409091,
                "pitch": 40,
                "velocity": 80,
                "duration": 0.1113636,
                "tempo": 120.0
            },
            {
                "start_time": 0.9409091,
                "end_time": 1.0590909,
                "pitch": 40,
                "velocity": 80,
                "duration": 0.1181818,
                "tempo": 120.0
            },
            {
                "start_time": 1.0590909,
                "end_time": 1.1909091,
                "pitch": 40,
                "velocity": 80,
                "duration": 0.1318182,
                "tempo": 120.0
            },
            {
                "start_time": 1.1909091,
                "end_time": 1.3090909,
                "pitch": 40,
                "velocity": 80,
                "duration": 0.1181818,
                "tempo": 120.0
            },
            {
                "start_time": 1.3090909,
                "end_time": 1.425,
                "pitch": 40,
                "velocity": 80,
                "duration": 0.1159091,
                "tempo": 120.0
            },
            {
                "start_time": 1.425,
                "end_time": 1.5431818,
                "pitch": 40,
                "velocity": 80,
                "duration": 0.1181818,
                "tempo": 120.0
            },
            {
                "start_time": 1.5431818,
                "end_time": 1.6636364,
                "pitch": 40,
                "velocity": 80,
                "duration": 0.1204545,
                "tempo": 120.0
            },
            {
                "start_time": 1.6659091,
                "end_time": 1.8,
                "pitch": 40,
                "velocity": 80,
                "duration": 0.1340909,
                "tempo": 120.0
            },
            {
                "start_time": 1.8,
                "end_time": 1.9204545,
                "pitch": 40,
                "velocity": 80,
                "duration": 0.1204545,
                "tempo": 120.0
            },
            {
                "start_time": 1.9204545,
                "end_time": 2.0386364,
                "pitch": 40,
                "velocity": 80,
                "duration": 0.1181818,
                "tempo": 120.0
            },
            {
                "start_time": 2.0386364,
                "end_time": 2.1545455,
                "pitch": 40,
                "velocity": 80,
                "duration": 0.1159091,
                "tempo": 120.0
            },
            {
                "start_time": 2.1545455,
                "end_time": 2.2704545,
                "pitch": 40,
                "velocity": 80,
                "duration": 0.1159091,
                "tempo": 120.0
            },
            {
                "start_time": 2.2704545,
                "end_time": 2.4045455,
                "pitch": 40,
                "velocity": 80,
                "duration": 0.1340909,
                "tempo": 120.0
            },
            {
                "start_time": 2.4045455,
                "end_time": 2.5227273,
                "pitch": 40,
                "velocity": 80,
                "duration": 0.1181818,
                "tempo": 120.0
            },
            {
                "start_time": 2.5227273,
                "end_time": 2.6409091,
                "pitch": 40,
                "velocity": 80,
                "duration": 0.1181818,
                "tempo": 120.0
            },
            {
                "start_time": 2.6409091,
                "end_time": 2.7590909,
                "pitch": 40,
                "velocity": 80,
                "duration": 0.1181818,
                "tempo": 120.0
            },
            {
                "start_time": 2.7590909,
                "end_time": 2.8772727,
                "pitch": 40,
                "velocity": 80,
                "duration": 0.1181818,
                "tempo": 120.0
            },
            {
                "start_time": 2.8772727,
                "end_time": 3.0068182,
                "pitch": 40,
                "velocity": 80,
                "duration": 0.1295455,
                "tempo": 120.0
            },
            {
                "start_time": 3.0068182,
                "end_time": 3.1227273,
                "pitch": 40,
                "velocity": 80,
                "duration": 0.1159091,
                "tempo": 120.0
            },
            {
                "start_time": 3.1227273,
                "end_time": 3.2363636,
                "pitch": 40,
                "velocity": 80,
                "duration": 0.1136364,
                "tempo": 120.0
            },
            {
                "start_time": 3.2363636,
                "end_time": 3.3522727,
                "pitch": 40,
                "velocity": 80,
                "duration": 0.1159091,
                "tempo": 120.0
            },
            {
                "start_time": 3.3522727,
                "end_time": 3.4681818,
                "pitch": 40,
                "velocity": 80,
                "duration": 0.1159091,
                "tempo": 120.0
            },
            {
                "start_time": 3.4681818,
                "end_time": 3.6022727,
                "pitch": 40,
                "velocity": 80,
                "duration": 0.1340909,
                "tempo": 120.0
            },
            {
                "start_time": 3.6022727,
                "end_time": 3.7181818,
                "pitch": 40,
                "velocity": 80,
                "duration": 0.1159091,
                "tempo": 120.0
            },
            {
                "start_time": 3.7181818,
                "end_time": 3.8363636,
                "pitch": 40,
                "velocity": 80,
                "duration": 0.1181818,
                "tempo": 120.0
            },
            {
                "start_time": 3.8363636,
                "end_time": 3.9545455,
                "pitch": 39,
                "velocity": 80,
                "duration": 0.1181818,
                "tempo": 120.0
            },
            {
                "start_time": 3.9568182,
                "end_time": 4.075,
                "pitch": 39,
                "velocity": 80,
                "duration": 0.1181818,
                "tempo": 120.0
            },
            {
                "start_time": 4.075,
                "end_time": 4.2113636,
                "pitch": 39,
                "velocity": 80,
                "duration": 0.1363636,
                "tempo": 120.0
            },
            {
                "start_time": 4.2113636,
                "end_time": 4.3318182,
                "pitch": 39,
                "velocity": 80,
                "duration": 0.1204545,
                "tempo": 120.0
            },
            {
                "start_time": 4.3318182,
                "end_time": 4.4477273,
                "pitch": 39,
                "velocity": 80,
                "duration": 0.1159091,
                "tempo": 120.0
            },
            {
                "start_time": 4.4477273,
                "end_time": 4.5659091,
                "pitch": 39,
                "velocity": 80,
                "duration": 0.1181818,
                "tempo": 120.0
            },
            {
                "start_time": 4.5659091,
                "end_time": 4.6818182,
                "pitch": 39,
                "velocity": 80,
                "duration": 0.1159091,
                "tempo": 120.0
            },
            {
                "start_time": 4.6818182,
                "end_time": 4.8159091,
                "pitch": 39,
                "velocity": 80,
                "duration": 0.1340909,
                "tempo": 120.0
            },
            {
                "start_time": 4.8159091,
                "end_time": 4.9340909,
                "pitch": 39,
                "velocity": 80,
                "duration": 0.1181818,
                "tempo": 120.0
            },
            {
                "start_time": 4.9363636,
                "end_time": 5.0545455,
                "pitch": 39,
                "velocity": 80,
                "duration": 0.1181818,
                "tempo": 120.0
            },
            {
                "start_time": 5.0545455,
                "end_time": 5.175,
                "pitch": 39,
                "velocity": 80,
                "duration": 0.1204545,
                "tempo": 120.0
            },
            {
                "start_time": 5.175,
                "end_time": 5.2954545,
                "pitch": 39,
                "velocity": 80,
                "duration": 0.1204545,
                "tempo": 120.0
            },
            {
                "start_time": 5.2954545,
                "end_time": 5.4227273,
                "pitch": 39,
                "velocity": 80,
                "duration": 0.1272727,
                "tempo": 120.0
            },
            {
                "start_time": 5.4227273,
                "end_time": 5.5363636,
                "pitch": 39,
                "velocity": 80,
                "duration": 0.1136364,
                "tempo": 120.0
            },
            {
                "start_time": 5.5363636,
                "end_time": 5.6477273,
                "pitch": 39,
                "velocity": 80,
                "duration": 0.1113636,
                "tempo": 120.0
            },
            {
                "start_time": 5.6477273,
                "end_time": 5.7590909,
                "pitch": 39,
                "velocity": 80,
                "duration": 0.1113636,
                "tempo": 120.0
            },
            {
                "start_time": 5.7590909,
                "end_time": 5.8795455,
                "pitch": 39,
                "velocity": 80,
                "duration": 0.1204545,
                "tempo": 120.0
            },
            {
                "start_time": 5.8795455,
                "end_time": 6.0159091,
                "pitch": 39,
                "velocity": 80,
                "duration": 0.1363636,
                "tempo": 120.0
            },
            {
                "start_time": 6.0159091,
                "end_time": 6.1363636,
                "pitch": 39,
                "velocity": 80,
                "duration": 0.1204545,
                "tempo": 120.0
            },
            {
                "start_time": 6.1363636,
                "end_time": 6.2545455,
                "pitch": 39,
                "velocity": 80,
                "duration": 0.1181818,
                "tempo": 120.0
            },
            {
                "start_time": 6.2545455,
                "end_time": 6.3727273,
                "pitch": 39,
                "velocity": 80,
                "duration": 0.1181818,
                "tempo": 120.0
            },
            {
                "start_time": 6.3727273,
                "end_time": 6.4909091,
                "pitch": 39,
                "velocity": 80,
                "duration": 0.1181818,
                "tempo": 120.0
            },
            {
                "start_time": 6.4909091,
                "end_time": 6.625,
                "pitch": 39,
                "velocity": 80,
                "duration": 0.1340909,
                "tempo": 120.0
            },
            {
                "start_time": 6.625,
                "end_time": 6.7431818,
                "pitch": 39,
                "velocity": 80,
                "duration": 0.1181818,
                "tempo": 120.0
            },
            {
                "start_time": 6.7431818,
                "end_time": 6.8613636,
                "pitch": 39,
                "velocity": 80,
                "duration": 0.1181818,
                "tempo": 120.0
            },
            {
                "start_time": 6.8636364,
                "end_time": 6.9818182,
                "pitch": 39,
                "velocity": 80,
                "duration": 0.1181818,
                "tempo": 120.0
            },
            {
                "start_time": 6.9818182,
                "end_time": 7.1022727,
                "pitch": 39,
                "velocity": 80,
                "duration": 0.1204545,
                "tempo": 120.0
            },
            {
                "start_time": 7.1022727,
                "end_time": 7.2386364,
                "pitch": 39,
                "velocity": 80,
                "duration": 0.1363636,
                "tempo": 120.0
            },
            {
                "start_time": 7.2386364,
                "end_time": 7.3545455,
                "pitch": 39,
                "velocity": 80,
                "duration": 0.1159091,
                "tempo": 120.0
            },
            {
                "start_time": 7.3545455,
                "end_time": 7.4727273,
                "pitch": 39,
                "velocity": 80,
                "duration": 0.1181818,
                "tempo": 120.0
            },
            {
                "start_time": 7.4727273,
                "end_time": 7.5886364,
                "pitch": 39,
                "velocity": 80,
                "duration": 0.1159091,
                "tempo": 120.0
            },
            {
                "start_time": 7.5886364,
                "end_time": 7.7068182,
                "pitch": 39,
                "velocity": 80,
                "duration": 0.1181818,
                "tempo": 120.0
            },
            {
                "start_time": 7.7068182,
                "end_time": 7.8363636,
                "pitch": 39,
                "velocity": 80,
                "duration": 0.1295455,
                "tempo": 120.0
            },
            {
                "start_time": 7.8386364,
                "end_time": 7.9522727,
                "pitch": 39,
                "velocity": 80,
                "duration": 0.1136364,
                "tempo": 120.0
            },
            {
                "start_time": 7.9522727,
                "end_time": 8.0681818,
                "pitch": 39,
                "velocity": 80,
                "duration": 0.1159091,
                "tempo": 120.0
            },
            {
                "start_time": 8.0681818,
                "end_time": 8.1818182,
                "pitch": 39,
                "velocity": 80,
                "duration": 0.1136364,
                "tempo": 120.0
            },
            {
                "start_time": 8.1818182,
                "end_time": 8.2977273,
                "pitch": 39,
                "velocity": 80,
                "duration": 0.1159091,
                "tempo": 120.0
            },
            {
                "start_time": 8.2977273,
                "end_time": 8.4318182,
                "pitch": 39,
                "velocity": 80,
                "duration": 0.1340909,
                "tempo": 120.0
            },
            {
                "start_time": 8.4318182,
                "end_time": 8.55,
                "pitch": 39,
                "velocity": 80,
                "duration": 0.1181818,
                "tempo": 120.0
            },
            {
                "start_time": 8.55,
                "end_time": 8.6659091,
                "pitch": 39,
                "velocity": 80,
                "duration": 0.1159091,
                "tempo": 120.0
            },
            {
                "start_time": 8.6659091,
                "end_time": 8.7863636,
                "pitch": 39,
                "velocity": 80,
                "duration": 0.1204545,
                "tempo": 120.0
            },
            {
                "start_time": 8.7863636,
                "end_time": 8.9045455,
                "pitch": 39,
                "velocity": 80,
                "duration": 0.1181818,
                "tempo": 120.0
            },
            {
                "start_time": 8.9045455,
                "end_time": 9.0409091,
                "pitch": 39,
                "velocity": 80,
                "duration": 0.1363636,
                "tempo": 120.0
            },
            {
                "start_time": 9.0431818,
                "end_time": 9.1613636,
                "pitch": 39,
                "velocity": 80,
                "duration": 0.1181818,
                "tempo": 120.0
            },
            {
                "start_time": 9.1613636,
                "end_time": 9.2795455,
                "pitch": 39,
                "velocity": 80,
                "duration": 0.1181818,
                "tempo": 120.0
            },
            {
                "start_time": 9.2795455,
                "end_time": 9.3977273,
                "pitch": 39,
                "velocity": 80,
                "duration": 0.1181818,
                "tempo": 120.0
            },
            {
                "start_time": 9.3977273,
                "end_time": 9.5136364,
                "pitch": 39,
                "velocity": 80,
                "duration": 0.1159091,
                "tempo": 120.0
            },
            {
                "start_time": 9.5136364,
                "end_time": 9.65,
                "pitch": 39,
                "velocity": 80,
                "duration": 0.1363636,
                "tempo": 120.0
            },
            {
                "start_time": 9.65,
                "end_time": 9.7659091,
                "pitch": 39,
                "velocity": 80,
                "duration": 0.1159091,
                "tempo": 120.0
            },
            {
                "start_time": 9.7659091,
                "end_time": 9.8840909,
                "pitch": 39,
                "velocity": 80,
                "duration": 0.1181818,
                "tempo": 120.0
            },
            {
                "start_time": 9.8840909,
                "end_time": 10.0,
                "pitch": 39,
                "velocity": 80,
                "duration": 0.1159091,
                "tempo": 120.0
            },
            {
                "start_time": 10.0,
                "end_time": 10.1159091,
                "pitch": 39,
                "velocity": 80,
                "duration": 0.1159091,
                "tempo": 120.0
            },
            {
                "start_time": 10.1181818,
                "end_time": 10.2477273,
                "pitch": 39,
                "velocity": 80,
                "duration": 0.1295455,
                "tempo": 120.0
            },
            {
                "start_time": 10.2477273,
                "end_time": 10.3636364,
                "pitch": 39,
                "velocity": 80,
                "duration": 0.1159091,
                "tempo": 120.0
            },
            {
                "start_time": 10.3636364,
                "end_time": 10.4772727,
                "pitch": 39,
                "velocity": 80,
                "duration": 0.1136364,
                "tempo": 120.0
            },
            {
                "start_time": 10.4795455,
                "end_time": 10.5931818,
                "pitch": 39,
                "velocity": 80,
                "duration": 0.1136364,
                "tempo": 120.0
            },
            {
                "start_time": 10.5931818,
                "end_time": 10.7113636,
                "pitch": 39,
                "velocity": 80,
                "duration": 0.1181818,
                "tempo": 120.0
            },
            {
                "start_time": 10.7113636,
                "end_time": 10.8454545,
                "pitch": 39,
                "velocity": 80,
                "duration": 0.1340909,
                "tempo": 120.0
            },
            {
                "start_time": 10.8454545,
                "end_time": 10.9636364,
                "pitch": 39,
                "velocity": 80,
                "duration": 0.1181818,
                "tempo": 120.0
            },
            {
                "start_time": 10.9636364,
                "end_time": 11.0818182,
                "pitch": 39,
                "velocity": 80,
                "duration": 0.1181818,
                "tempo": 120.0
            },
            {
                "start_time": 11.0818182,
                "end_time": 11.2,
                "pitch": 39,
                "velocity": 80,
                "duration": 0.1181818,
                "tempo": 120.0
            },
            {
                "start_time": 11.2,
                "end_time": 11.3204545,
                "pitch": 39,
                "velocity": 80,
                "duration": 0.1204545,
                "tempo": 120.0
            },
            {
                "start_time": 11.3204545,
                "end_time": 11.4568182,
                "pitch": 39,
                "velocity": 80,
                "duration": 0.1363636,
                "tempo": 120.0
            },
            {
                "start_time": 11.4568182,
                "end_time": 11.5772727,
                "pitch": 39,
                "velocity": 80,
                "duration": 0.1204545,
                "tempo": 120.0
            },
            {
                "start_time": 11.5772727,
                "end_time": 11.6931818,
                "pitch": 40,
                "velocity": 80,
                "duration": 0.1159091,
                "tempo": 120.0
            },
            {
                "start_time": 11.6931818,
                "end_time": 11.8113636,
                "pitch": 40,
                "velocity": 80,
                "duration": 0.1181818,
                "tempo": 120.0
            },
            {
                "start_time": 11.8113636,
                "end_time": 11.9272727,
                "pitch": 40,
                "velocity": 80,
                "duration": 0.1159091,
                "tempo": 120.0
            },
            {
                "start_time": 11.9272727,
                "end_time": 12.0613636,
                "pitch": 40,
                "velocity": 80,
                "duration": 0.1340909,
                "tempo": 120.0
            },
            {
                "start_time": 12.0613636,
                "end_time": 12.1795455,
                "pitch": 40,
                "velocity": 80,
                "duration": 0.1181818,
                "tempo": 120.0
            },
            {
                "start_time": 12.1795455,
                "end_time": 12.3,
                "pitch": 40,
                "velocity": 80,
                "duration": 0.1204545,
                "tempo": 120.0
            },
            {
                "start_time": 12.3,
                "end_time": 12.4204545,
                "pitch": 40,
                "velocity": 80,
                "duration": 0.1204545,
                "tempo": 120.0
            },
            {
                "start_time": 12.4204545,
                "end_time": 12.5386364,
                "pitch": 40,
                "velocity": 80,
                "duration": 0.1181818,
                "tempo": 120.0
            },
            {
                "start_time": 12.5386364,
                "end_time": 12.6704545,
                "pitch": 40,
                "velocity": 80,
                "duration": 0.1318182,
                "tempo": 120.0
            },
            {
                "start_time": 12.6704545,
                "end_time": 12.7863636,
                "pitch": 40,
                "velocity": 80,
                "duration": 0.1159091,
                "tempo": 120.0
            },
            {
                "start_time": 12.7863636,
                "end_time": 12.9,
                "pitch": 40,
                "velocity": 80,
                "duration": 0.1136364,
                "tempo": 120.0
            },
            {
                "start_time": 12.9,
                "end_time": 13.0159091,
                "pitch": 40,
                "velocity": 80,
                "duration": 0.1159091,
                "tempo": 120.0
            },
            {
                "start_time": 13.0159091,
                "end_time": 13.1318182,
                "pitch": 40,
                "velocity": 80,
                "duration": 0.1159091,
                "tempo": 120.0
            },
            {
                "start_time": 13.1318182,
                "end_time": 13.2681818,
                "pitch": 40,
                "velocity": 80,
                "duration": 0.1363636,
                "tempo": 120.0
            },
            {
                "start_time": 13.2681818,
                "end_time": 13.3863636,
                "pitch": 40,
                "velocity": 80,
                "duration": 0.1181818,
                "tempo": 120.0
            },
            {
                "start_time": 13.3863636,
                "end_time": 13.5045455,
                "pitch": 40,
                "velocity": 80,
                "duration": 0.1181818,
                "tempo": 120.0
            },
            {
                "start_time": 13.5045455,
                "end_time": 13.6204545,
                "pitch": 40,
                "velocity": 80,
                "duration": 0.1159091,
                "tempo": 120.0
            },
            {
                "start_time": 13.6204545,
                "end_time": 13.7386364,
                "pitch": 40,
                "velocity": 80,
                "duration": 0.1181818,
                "tempo": 120.0
            },
            {
                "start_time": 13.7386364,
                "end_time": 13.8727273,
                "pitch": 40,
                "velocity": 80,
                "duration": 0.1340909,
                "tempo": 120.0
            },
            {
                "start_time": 13.8727273,
                "end_time": 13.9909091,
                "pitch": 40,
                "velocity": 80,
                "duration": 0.1181818,
                "tempo": 120.0
            },
            {
                "start_time": 13.9909091,
                "end_time": 14.1068182,
                "pitch": 40,
                "velocity": 80,
                "duration": 0.1159091,
                "tempo": 120.0
            },
            {
                "start_time": 14.1068182,
                "end_time": 14.225,
                "pitch": 40,
                "velocity": 80,
                "duration": 0.1181818,
                "tempo": 120.0
            },
            {
                "start_time": 14.225,
                "end_time": 14.3409091,
                "pitch": 40,
                "velocity": 80,
                "duration": 0.1159091,
                "tempo": 120.0
            },
            {
                "start_time": 14.3409091,
                "end_time": 14.475,
                "pitch": 40,
                "velocity": 80,
                "duration": 0.1340909,
                "tempo": 120.0
            },
            {
                "start_time": 14.475,
                "end_time": 14.5954545,
                "pitch": 40,
                "velocity": 80,
                "duration": 0.1204545,
                "tempo": 120.0
            },
            {
                "start_time": 14.5954545,
                "end_time": 14.7136364,
                "pitch": 40,
                "velocity": 80,
                "duration": 0.1181818,
                "tempo": 120.0
            },
            {
                "start_time": 14.7159091,
                "end_time": 14.8340909,
                "pitch": 40,
                "velocity": 80,
                "duration": 0.1181818,
                "tempo": 120.0
            },
            {
                "start_time": 14.8340909,
                "end_time": 14.9545455,
                "pitch": 40,
                "velocity": 80,
                "duration": 0.1204545,
                "tempo": 120.0
            },
            {
                "start_time": 14.9545455,
                "end_time": 15.0863636,
                "pitch": 40,
                "velocity": 80,
                "duration": 0.1318182,
                "tempo": 120.0
            },
            {
                "start_time": 15.0863636,
                "end_time": 15.2,
                "pitch": 40,
                "velocity": 80,
                "duration": 0.1136364,
                "tempo": 120.0
            },
            {
                "start_time": 15.2,
                "end_time": 15.3159091,
                "pitch": 40,
                "velocity": 80,
                "duration": 0.1159091,
                "tempo": 120.0
            },
            {
                "start_time": 15.3159091,
                "end_time": 15.4318182,
                "pitch": 40,
                "velocity": 80,
                "duration": 0.1159091,
                "tempo": 120.0
            },
            {
                "start_time": 15.4318182,
                "end_time": 15.55,
                "pitch": 36,
                "velocity": 80,
                "duration": 0.1181818,
                "tempo": 120.0
            },
            {
                "start_time": 15.55,
                "end_time": 15.6863636,
                "pitch": 36,
                "velocity": 80,
                "duration": 0.1363636,
                "tempo": 120.0
            },
            {
                "start_time": 15.6863636,
                "end_time": 15.8068182,
                "pitch": 36,
                "velocity": 80,
                "duration": 0.1204545,
                "tempo": 120.0
            },
            {
                "start_time": 15.8068182,
                "end_time": 15.925,
                "pitch": 36,
                "velocity": 80,
                "duration": 0.1181818,
                "tempo": 120.0
            },
            {
                "start_time": 15.925,
                "end_time": 16.0409091,
                "pitch": 36,
                "velocity": 80,
                "duration": 0.1159091,
                "tempo": 120.0
            },
            {
                "start_time": 16.0409091,
                "end_time": 16.1568182,
                "pitch": 36,
                "velocity": 80,
                "duration": 0.1159091,
                "tempo": 120.0
            },
            {
                "start_time": 16.1568182,
                "end_time": 16.2863636,
                "pitch": 36,
                "velocity": 80,
                "duration": 0.1295455,
                "tempo": 120.0
            },
            {
                "start_time": 16.2863636,
                "end_time": 16.4022727,
                "pitch": 36,
                "velocity": 80,
                "duration": 0.1159091,
                "tempo": 120.0
            },
            {
                "start_time": 16.4022727,
                "end_time": 16.5204545,
                "pitch": 36,
                "velocity": 80,
                "duration": 0.1181818,
                "tempo": 120.0
            },
            {
                "start_time": 16.5227273,
                "end_time": 16.6409091,
                "pitch": 36,
                "velocity": 80,
                "duration": 0.1181818,
                "tempo": 120.0
            },
            {
                "start_time": 16.6409091,
                "end_time": 16.7613636,
                "pitch": 36,
                "velocity": 80,
                "duration": 0.1204545,
                "tempo": 120.0
            },
            {
                "start_time": 16.7613636,
                "end_time": 16.8977273,
                "pitch": 36,
                "velocity": 80,
                "duration": 0.1363636,
                "tempo": 120.0
            },
            {
                "start_time": 16.8977273,
                "end_time": 17.0136364,
                "pitch": 36,
                "velocity": 80,
                "duration": 0.1159091,
                "tempo": 120.0
            },
            {
                "start_time": 17.0136364,
                "end_time": 17.1318182,
                "pitch": 36,
                "velocity": 80,
                "duration": 0.1181818,
                "tempo": 120.0
            },
            {
                "start_time": 17.1318182,
                "end_time": 17.2477273,
                "pitch": 36,
                "velocity": 80,
                "duration": 0.1159091,
                "tempo": 120.0
            },
            {
                "start_time": 17.2477273,
                "end_time": 17.3659091,
                "pitch": 36,
                "velocity": 80,
                "duration": 0.1181818,
                "tempo": 120.0
            },
            {
                "start_time": 17.3659091,
                "end_time": 17.4954545,
                "pitch": 35,
                "velocity": 80,
                "duration": 0.1295455,
                "tempo": 120.0
            },
            {
                "start_time": 17.4954545,
                "end_time": 17.6113636,
                "pitch": 35,
                "velocity": 80,
                "duration": 0.1159091,
                "tempo": 120.0
            },
            {
                "start_time": 17.6113636,
                "end_time": 17.7272727,
                "pitch": 35,
                "velocity": 80,
                "duration": 0.1159091,
                "tempo": 120.0
            },
            {
                "start_time": 17.7272727,
                "end_time": 17.8409091,
                "pitch": 35,
                "velocity": 80,
                "duration": 0.1136364,
                "tempo": 120.0
            },
            {
                "start_time": 17.8409091,
                "end_time": 17.9590909,
                "pitch": 35,
                "velocity": 80,
                "duration": 0.1181818,
                "tempo": 120.0
            },
            {
                "start_time": 17.9590909,
                "end_time": 18.0931818,
                "pitch": 35,
                "velocity": 80,
                "duration": 0.1340909,
                "tempo": 120.0
            },
            {
                "start_time": 18.0931818,
                "end_time": 18.2113636,
                "pitch": 35,
                "velocity": 80,
                "duration": 0.1181818,
                "tempo": 120.0
            },
            {
                "start_time": 18.2113636,
                "end_time": 18.3295455,
                "pitch": 35,
                "velocity": 80,
                "duration": 0.1181818,
                "tempo": 120.0
            },
            {
                "start_time": 18.3295455,
                "end_time": 18.4477273,
                "pitch": 35,
                "velocity": 80,
                "duration": 0.1181818,
                "tempo": 120.0
            },
            {
                "start_time": 18.4477273,
                "end_time": 18.5681818,
                "pitch": 35,
                "velocity": 80,
                "duration": 0.1204545,
                "tempo": 120.0
            },
            {
                "start_time": 18.5681818,
                "end_time": 18.7045455,
                "pitch": 35,
                "velocity": 80,
                "duration": 0.1363636,
                "tempo": 120.0
            },
            {
                "start_time": 18.7068182,
                "end_time": 18.825,
                "pitch": 35,
                "velocity": 80,
                "duration": 0.1181818,
                "tempo": 120.0
            },
            {
                "start_time": 18.825,
                "end_time": 18.9431818,
                "pitch": 35,
                "velocity": 80,
                "duration": 0.1181818,
                "tempo": 120.0
            },
            {
                "start_time": 18.9431818,
                "end_time": 19.0613636,
                "pitch": 35,
                "velocity": 80,
                "duration": 0.1181818,
                "tempo": 120.0
            },
            {
                "start_time": 19.0613636,
                "end_time": 19.1772727,
                "pitch": 35,
                "velocity": 80,
                "duration": 0.1159091,
                "tempo": 120.0
            },
            {
                "start_time": 19.1772727,
                "end_time": 19.3136364,
                "pitch": 35,
                "velocity": 80,
                "duration": 0.1363636,
                "tempo": 120.0
            },
            {
                "start_time": 19.3136364,
                "end_time": 19.4295455,
                "pitch": 34,
                "velocity": 80,
                "duration": 0.1159091,
                "tempo": 120.0
            },
            {
                "start_time": 19.4295455,
                "end_time": 19.5477273,
                "pitch": 34,
                "velocity": 80,
                "duration": 0.1181818,
                "tempo": 120.0
            },
            {
                "start_time": 19.5477273,
                "end_time": 19.6659091,
                "pitch": 34,
                "velocity": 80,
                "duration": 0.1181818,
                "tempo": 120.0
            },
            {
                "start_time": 19.6659091,
                "end_time": 19.7840909,
                "pitch": 34,
                "velocity": 80,
                "duration": 0.1181818,
                "tempo": 120.0
            },
            {
                "start_time": 19.7840909,
                "end_time": 19.9136364,
                "pitch": 34,
                "velocity": 80,
                "duration": 0.1295455,
                "tempo": 120.0
            },
            {
                "start_time": 19.9136364,
                "end_time": 20.0295455,
                "pitch": 34,
                "velocity": 80,
                "duration": 0.1159091,
                "tempo": 120.0
            },
            {
                "start_time": 20.0295455,
                "end_time": 20.1454545,
                "pitch": 34,
                "velocity": 80,
                "duration": 0.1159091,
                "tempo": 120.0
            },
            {
                "start_time": 20.1454545,
                "end_time": 20.2613636,
                "pitch": 34,
                "velocity": 80,
                "duration": 0.1159091,
                "tempo": 120.0
            },
            {
                "start_time": 20.2613636,
                "end_time": 20.3795455,
                "pitch": 34,
                "velocity": 80,
                "duration": 0.1181818,
                "tempo": 120.0
            },
            {
                "start_time": 20.3795455,
                "end_time": 20.5159091,
                "pitch": 34,
                "velocity": 80,
                "duration": 0.1363636,
                "tempo": 120.0
            },
            {
                "start_time": 20.5159091,
                "end_time": 20.6363636,
                "pitch": 34,
                "velocity": 80,
                "duration": 0.1204545,
                "tempo": 120.0
            },
            {
                "start_time": 20.6363636,
                "end_time": 20.7545455,
                "pitch": 34,
                "velocity": 80,
                "duration": 0.1181818,
                "tempo": 120.0
            },
            {
                "start_time": 20.7568182,
                "end_time": 20.8727273,
                "pitch": 34,
                "velocity": 80,
                "duration": 0.1159091,
                "tempo": 120.0
            },
            {
                "start_time": 20.8727273,
                "end_time": 20.9909091,
                "pitch": 34,
                "velocity": 80,
                "duration": 0.1181818,
                "tempo": 120.0
            },
            {
                "start_time": 20.9909091,
                "end_time": 21.125,
                "pitch": 34,
                "velocity": 80,
                "duration": 0.1340909,
                "tempo": 120.0
            },
            {
                "start_time": 21.125,
                "end_time": 21.2431818,
                "pitch": 34,
                "velocity": 80,
                "duration": 0.1181818,
                "tempo": 120.0
            },
            {
                "start_time": 21.2431818,
                "end_time": 21.3590909,
                "pitch": 34,
                "velocity": 80,
                "duration": 0.1159091,
                "tempo": 120.0
            },
            {
                "start_time": 21.3613636,
                "end_time": 21.4772727,
                "pitch": 34,
                "velocity": 80,
                "duration": 0.1159091,
                "tempo": 120.0
            },
            {
                "start_time": 21.4772727,
                "end_time": 21.5931818,
                "pitch": 34,
                "velocity": 80,
                "duration": 0.1159091,
                "tempo": 120.0
            },
            {
                "start_time": 21.5931818,
                "end_time": 21.7272727,
                "pitch": 34,
                "velocity": 80,
                "duration": 0.1340909,
                "tempo": 120.0
            },
            {
                "start_time": 21.7272727,
                "end_time": 21.8454545,
                "pitch": 34,
                "velocity": 80,
                "duration": 0.1181818,
                "tempo": 120.0
            },
            {
                "start_time": 21.8454545,
                "end_time": 21.9659091,
                "pitch": 34,
                "velocity": 80,
                "duration": 0.1204545,
                "tempo": 120.0
            },
            {
                "start_time": 21.9681818,
                "end_time": 22.0863636,
                "pitch": 34,
                "velocity": 80,
                "duration": 0.1181818,
                "tempo": 120.0
            },
            {
                "start_time": 22.0863636,
                "end_time": 22.2068182,
                "pitch": 34,
                "velocity": 80,
                "duration": 0.1204545,
                "tempo": 120.0
            },
            {
                "start_time": 22.2068182,
                "end_time": 22.3363636,
                "pitch": 34,
                "velocity": 80,
                "duration": 0.1295455,
                "tempo": 120.0
            },
            {
                "start_time": 22.3386364,
                "end_time": 22.4522727,
                "pitch": 34,
                "velocity": 80,
                "duration": 0.1136364,
                "tempo": 120.0
            },
            {
                "start_time": 22.4522727,
                "end_time": 22.5681818,
                "pitch": 34,
                "velocity": 80,
                "duration": 0.1159091,
                "tempo": 120.0
            },
            {
                "start_time": 22.5681818,
                "end_time": 22.6818182,
                "pitch": 34,
                "velocity": 80,
                "duration": 0.1136364,
                "tempo": 120.0
            },
            {
                "start_time": 22.6818182,
                "end_time": 22.8,
                "pitch": 34,
                "velocity": 80,
                "duration": 0.1181818,
                "tempo": 120.0
            },
            {
                "start_time": 22.8,
                "end_time": 22.9363636,
                "pitch": 34,
                "velocity": 80,
                "duration": 0.1363636,
                "tempo": 120.0
            },
            {
                "start_time": 22.9363636,
                "end_time": 23.0522727,
                "pitch": 34,
                "velocity": 80,
                "duration": 0.1159091,
                "tempo": 120.0
            },
            {
                "start_time": 23.0522727,
                "end_time": 23.1704545,
                "pitch": 34,
                "velocity": 80,
                "duration": 0.1181818,
                "tempo": 120.0
            },
            {
                "start_time": 23.1704545,
                "end_time": 23.2886364,
                "pitch": 35,
                "velocity": 80,
                "duration": 0.1181818,
                "tempo": 120.0
            },
            {
                "start_time": 23.2886364,
                "end_time": 23.4045455,
                "pitch": 35,
                "velocity": 80,
                "duration": 0.1159091,
                "tempo": 120.0
            },
            {
                "start_time": 23.4068182,
                "end_time": 23.5409091,
                "pitch": 35,
                "velocity": 80,
                "duration": 0.1340909,
                "tempo": 120.0
            },
            {
                "start_time": 23.5409091,
                "end_time": 23.6590909,
                "pitch": 35,
                "velocity": 80,
                "duration": 0.1181818,
                "tempo": 120.0
            },
            {
                "start_time": 23.6590909,
                "end_time": 23.7772727,
                "pitch": 35,
                "velocity": 80,
                "duration": 0.1181818,
                "tempo": 120.0
            },
            {
                "start_time": 23.7772727,
                "end_time": 23.8977273,
                "pitch": 35,
                "velocity": 80,
                "duration": 0.1204545,
                "tempo": 120.0
            },
            {
                "start_time": 23.8977273,
                "end_time": 24.0159091,
                "pitch": 35,
                "velocity": 80,
                "duration": 0.1181818,
                "tempo": 120.0
            },
            {
                "start_time": 24.0181818,
                "end_time": 24.1545455,
                "pitch": 35,
                "velocity": 80,
                "duration": 0.1363636,
                "tempo": 120.0
            },
            {
                "start_time": 24.1545455,
                "end_time": 24.2704545,
                "pitch": 35,
                "velocity": 80,
                "duration": 0.1159091,
                "tempo": 120.0
            },
            {
                "start_time": 24.2727273,
                "end_time": 24.3886364,
                "pitch": 35,
                "velocity": 80,
                "duration": 0.1159091,
                "tempo": 120.0
            },
            {
                "start_time": 24.3886364,
                "end_time": 24.5068182,
                "pitch": 35,
                "velocity": 80,
                "duration": 0.1181818,
                "tempo": 120.0
            },
            {
                "start_time": 24.5068182,
                "end_time": 24.625,
                "pitch": 35,
                "velocity": 80,
                "duration": 0.1181818,
                "tempo": 120.0
            },
            {
                "start_time": 24.625,
                "end_time": 24.7545455,
                "pitch": 35,
                "velocity": 80,
                "duration": 0.1295455,
                "tempo": 120.0
            },
            {
                "start_time": 24.7568182,
                "end_time": 24.8727273,
                "pitch": 35,
                "velocity": 80,
                "duration": 0.1159091,
                "tempo": 120.0
            },
            {
                "start_time": 24.8727273,
                "end_time": 24.9863636,
                "pitch": 35,
                "velocity": 80,
                "duration": 0.1136364,
                "tempo": 120.0
            },
            {
                "start_time": 24.9863636,
                "end_time": 25.1022727,
                "pitch": 35,
                "velocity": 80,
                "duration": 0.1159091,
                "tempo": 120.0
            },
            {
                "start_time": 25.1022727,
                "end_time": 25.2181818,
                "pitch": 35,
                "velocity": 80,
                "duration": 0.1159091,
                "tempo": 120.0
            },
            {
                "start_time": 25.2181818,
                "end_time": 25.3522727,
                "pitch": 35,
                "velocity": 80,
                "duration": 0.1340909,
                "tempo": 120.0
            },
            {
                "start_time": 25.3522727,
                "end_time": 25.4681818,
                "pitch": 35,
                "velocity": 80,
                "duration": 0.1159091,
                "tempo": 120.0
            },
            {
                "start_time": 25.4681818,
                "end_time": 25.5863636,
                "pitch": 35,
                "velocity": 80,
                "duration": 0.1181818,
                "tempo": 120.0
            },
            {
                "start_time": 25.5863636,
                "end_time": 25.7045455,
                "pitch": 35,
                "velocity": 80,
                "duration": 0.1181818,
                "tempo": 120.0
            },
            {
                "start_time": 25.7045455,
                "end_time": 25.825,
                "pitch": 35,
                "velocity": 80,
                "duration": 0.1204545,
                "tempo": 120.0
            },
            {
                "start_time": 25.825,
                "end_time": 25.9613636,
                "pitch": 35,
                "velocity": 80,
                "duration": 0.1363636,
                "tempo": 120.0
            },
            {
                "start_time": 25.9613636,
                "end_time": 26.0818182,
                "pitch": 35,
                "velocity": 80,
                "duration": 0.1204545,
                "tempo": 120.0
            },
            {
                "start_time": 26.0818182,
                "end_time": 26.1977273,
                "pitch": 35,
                "velocity": 80,
                "duration": 0.1159091,
                "tempo": 120.0
            },
            {
                "start_time": 26.1977273,
                "end_time": 26.3159091,
                "pitch": 35,
                "velocity": 80,
                "duration": 0.1181818,
                "tempo": 120.0
            },
            {
                "start_time": 26.3159091,
                "end_time": 26.4340909,
                "pitch": 35,
                "velocity": 80,
                "duration": 0.1181818,
                "tempo": 120.0
            },
            {
                "start_time": 26.4340909,
                "end_time": 26.5681818,
                "pitch": 35,
                "velocity": 80,
                "duration": 0.1340909,
                "tempo": 120.0
            },
            {
                "start_time": 26.5704545,
                "end_time": 26.6863636,
                "pitch": 35,
                "velocity": 80,
                "duration": 0.1159091,
                "tempo": 120.0
            },
            {
                "start_time": 26.6863636,
                "end_time": 26.8045455,
                "pitch": 35,
                "velocity": 80,
                "duration": 0.1181818,
                "tempo": 120.0
            },
            {
                "start_time": 26.8045455,
                "end_time": 26.9227273,
                "pitch": 35,
                "velocity": 80,
                "duration": 0.1181818,
                "tempo": 120.0
            },
            {
                "start_time": 26.9227273,
                "end_time": 27.0409091,
                "pitch": 35,
                "velocity": 80,
                "duration": 0.1181818,
                "tempo": 120.0
            },
            {
                "start_time": 27.0409091,
                "end_time": 27.175,
                "pitch": 41,
                "velocity": 80,
                "duration": 0.1340909,
                "tempo": 120.0
            },
            {
                "start_time": 27.175,
                "end_time": 27.2909091,
                "pitch": 41,
                "velocity": 80,
                "duration": 0.1159091,
                "tempo": 120.0
            },
            {
                "start_time": 27.2909091,
                "end_time": 27.4090909,
                "pitch": 41,
                "velocity": 80,
                "duration": 0.1181818,
                "tempo": 120.0
            },
            {
                "start_time": 27.4090909,
                "end_time": 27.5272727,
                "pitch": 41,
                "velocity": 80,
                "duration": 0.1181818,
                "tempo": 120.0
            },
            {
                "start_time": 27.5272727,
                "end_time": 27.6431818,
                "pitch": 41,
                "velocity": 80,
                "duration": 0.1159091,
                "tempo": 120.0
            },
            {
                "start_time": 27.6431818,
                "end_time": 27.7772727,
                "pitch": 41,
                "velocity": 80,
                "duration": 0.1340909,
                "tempo": 120.0
            },
            {
                "start_time": 27.7772727,
                "end_time": 27.8954545,
                "pitch": 41,
                "velocity": 80,
                "duration": 0.1181818,
                "tempo": 120.0
            },
            {
                "start_time": 27.8954545,
                "end_time": 28.0113636,
                "pitch": 41,
                "velocity": 80,
                "duration": 0.1159091,
                "tempo": 120.0
            },
            {
                "start_time": 28.0113636,
                "end_time": 28.1295455,
                "pitch": 41,
                "velocity": 80,
                "duration": 0.1181818,
                "tempo": 120.0
            },
            {
                "start_time": 28.1295455,
                "end_time": 28.2477273,
                "pitch": 41,
                "velocity": 80,
                "duration": 0.1181818,
                "tempo": 120.0
            },
            {
                "start_time": 28.2477273,
                "end_time": 28.3818182,
                "pitch": 41,
                "velocity": 80,
                "duration": 0.1340909,
                "tempo": 120.0
            },
            {
                "start_time": 28.3818182,
                "end_time": 28.5,
                "pitch": 41,
                "velocity": 80,
                "duration": 0.1181818,
                "tempo": 120.0
            },
            {
                "start_time": 28.5,
                "end_time": 28.6159091,
                "pitch": 41,
                "velocity": 80,
                "duration": 0.1159091,
                "tempo": 120.0
            },
            {
                "start_time": 28.6159091,
                "end_time": 28.7340909,
                "pitch": 41,
                "velocity": 80,
                "duration": 0.1181818,
                "tempo": 120.0
            },
            {
                "start_time": 28.7340909,
                "end_time": 28.8522727,
                "pitch": 41,
                "velocity": 80,
                "duration": 0.1181818,
                "tempo": 120.0
            },
            {
                "start_time": 28.8522727,
                "end_time": 28.9863636,
                "pitch": 41,
                "velocity": 80,
                "duration": 0.1340909,
                "tempo": 120.0
            },
            {
                "start_time": 28.9886364,
                "end_time": 29.1045455,
                "pitch": 41,
                "velocity": 80,
                "duration": 0.1159091,
                "tempo": 120.0
            },
            {
                "start_time": 29.1045455,
                "end_time": 29.2227273,
                "pitch": 41,
                "velocity": 80,
                "duration": 0.1181818,
                "tempo": 120.0
            },
            {
                "start_time": 29.2227273,
                "end_time": 29.3409091,
                "pitch": 41,
                "velocity": 80,
                "duration": 0.1181818,
                "tempo": 120.0
            },
            {
                "start_time": 29.3409091,
                "end_time": 29.4568182,
                "pitch": 41,
                "velocity": 80,
                "duration": 0.1159091,
                "tempo": 120.0
            },
            {
                "start_time": 29.4590909,
                "end_time": 29.5886364,
                "pitch": 41,
                "velocity": 80,
                "duration": 0.1295455,
                "tempo": 120.0
            },
            {
                "start_time": 29.5886364,
                "end_time": 29.7045455,
                "pitch": 41,
                "velocity": 80,
                "duration": 0.1159091,
                "tempo": 120.0
            },
            {
                "start_time": 29.7045455,
                "end_time": 29.8181818,
                "pitch": 41,
                "velocity": 80,
                "duration": 0.1136364,
                "tempo": 120.0
            },
            {
                "start_time": 29.8204545,
                "end_time": 29.9340909,
                "pitch": 41,
                "velocity": 80,
                "duration": 0.1136364,
                "tempo": 120.0
            },
            {
                "start_time": 29.9340909,
                "end_time": 30.0545455,
                "pitch": 41,
                "velocity": 80,
                "duration": 0.1204545,
                "tempo": 120.0
            },
            {
                "start_time": 30.0545455,
                "end_time": 30.1909091,
                "pitch": 41,
                "velocity": 80,
                "duration": 0.1363636,
                "tempo": 120.0
            },
            {
                "start_time": 30.1909091,
                "end_time": 30.3090909,
                "pitch": 41,
                "velocity": 80,
                "duration": 0.1181818,
                "tempo": 120.0
            },
            {
                "start_time": 30.3113636,
                "end_time": 30.4295455,
                "pitch": 41,
                "velocity": 80,
                "duration": 0.1181818,
                "tempo": 120.0
            },
            {
                "start_time": 30.4295455,
                "end_time": 30.5454545,
                "pitch": 41,
                "velocity": 80,
                "duration": 0.1159091,
                "tempo": 120.0
            },
            {
                "start_time": 30.5477273,
                "end_time": 30.6659091,
                "pitch": 41,
                "velocity": 80,
                "duration": 0.1181818,
                "tempo": 120.0
            },
            {
                "start_time": 30.6659091,
                "end_time": 30.7977273,
                "pitch": 41,
                "velocity": 80,
                "duration": 0.1318182,
                "tempo": 120.0
            },
            {
                "start_time": 30.8,
                "end_time": 30.9181818,
                "pitch": 41,
                "velocity": 80,
                "duration": 0.1181818,
                "tempo": 120.0
            },
            {
                "start_time": 30.9181818,
                "end_time": 31.0340909,
                "pitch": 40,
                "velocity": 80,
                "duration": 0.1159091,
                "tempo": 120.0
            },
            {
                "start_time": 31.0363636,
                "end_time": 31.1522727,
                "pitch": 40,
                "velocity": 80,
                "duration": 0.1159091,
                "tempo": 120.0
            },
            {
                "start_time": 31.1522727,
                "end_time": 31.2704545,
                "pitch": 40,
                "velocity": 80,
                "duration": 0.1181818,
                "tempo": 120.0
            },
            {
                "start_time": 31.2704545,
                "end_time": 31.4045455,
                "pitch": 40,
                "velocity": 80,
                "duration": 0.1340909,
                "tempo": 120.0
            },
            {
                "start_time": 31.4068182,
                "end_time": 31.525,
                "pitch": 40,
                "velocity": 80,
                "duration": 0.1181818,
                "tempo": 120.0
            },
            {
                "start_time": 31.525,
                "end_time": 31.6454545,
                "pitch": 40,
                "velocity": 80,
                "duration": 0.1204545,
                "tempo": 120.0
            },
            {
                "start_time": 31.6454545,
                "end_time": 31.7636364,
                "pitch": 40,
                "velocity": 80,
                "duration": 0.1181818,
                "tempo": 120.0
            },
            {
                "start_time": 31.7636364,
                "end_time": 31.8840909,
                "pitch": 40,
                "velocity": 80,
                "duration": 0.1204545,
                "tempo": 120.0
            },
            {
                "start_time": 31.8840909,
                "end_time": 32.0159091,
                "pitch": 40,
                "velocity": 80,
                "duration": 0.1318182,
                "tempo": 120.0
            },
            {
                "start_time": 32.0159091,
                "end_time": 32.1295455,
                "pitch": 40,
                "velocity": 80,
                "duration": 0.1136364,
                "tempo": 120.0
            },
            {
                "start_time": 32.1318182,
                "end_time": 32.2454545,
                "pitch": 40,
                "velocity": 80,
                "duration": 0.1136364,
                "tempo": 120.0
            },
            {
                "start_time": 32.2454545,
                "end_time": 32.3613636,
                "pitch": 40,
                "velocity": 80,
                "duration": 0.1159091,
                "tempo": 120.0
            },
            {
                "start_time": 32.3613636,
                "end_time": 32.4772727,
                "pitch": 40,
                "velocity": 80,
                "duration": 0.1159091,
                "tempo": 120.0
            },
            {
                "start_time": 32.4772727,
                "end_time": 32.6136364,
                "pitch": 40,
                "velocity": 80,
                "duration": 0.1363636,
                "tempo": 120.0
            },
            {
                "start_time": 32.6136364,
                "end_time": 32.7295455,
                "pitch": 40,
                "velocity": 80,
                "duration": 0.1159091,
                "tempo": 120.0
            },
            {
                "start_time": 32.7295455,
                "end_time": 32.8477273,
                "pitch": 40,
                "velocity": 80,
                "duration": 0.1181818,
                "tempo": 120.0
            },
            {
                "start_time": 32.85,
                "end_time": 32.9659091,
                "pitch": 40,
                "velocity": 80,
                "duration": 0.1159091,
                "tempo": 120.0
            },
            {
                "start_time": 32.9659091,
                "end_time": 33.0818182,
                "pitch": 40,
                "velocity": 80,
                "duration": 0.1159091,
                "tempo": 120.0
            },
            {
                "start_time": 33.0818182,
                "end_time": 33.2159091,
                "pitch": 40,
                "velocity": 80,
                "duration": 0.1340909,
                "tempo": 120.0
            },
            {
                "start_time": 33.2159091,
                "end_time": 33.3318182,
                "pitch": 40,
                "velocity": 80,
                "duration": 0.1159091,
                "tempo": 120.0
            },
            {
                "start_time": 33.3318182,
                "end_time": 33.45,
                "pitch": 40,
                "velocity": 80,
                "duration": 0.1181818,
                "tempo": 120.0
            },
            {
                "start_time": 33.45,
                "end_time": 33.5704545,
                "pitch": 40,
                "velocity": 80,
                "duration": 0.1204545,
                "tempo": 120.0
            },
            {
                "start_time": 33.5727273,
                "end_time": 33.6909091,
                "pitch": 40,
                "velocity": 80,
                "duration": 0.1181818,
                "tempo": 120.0
            },
            {
                "start_time": 33.6909091,
                "end_time": 33.8272727,
                "pitch": 40,
                "velocity": 80,
                "duration": 0.1363636,
                "tempo": 120.0
            },
            {
                "start_time": 33.8272727,
                "end_time": 33.9454545,
                "pitch": 40,
                "velocity": 80,
                "duration": 0.1181818,
                "tempo": 120.0
            },
            {
                "start_time": 33.9454545,
                "end_time": 34.0613636,
                "pitch": 40,
                "velocity": 80,
                "duration": 0.1159091,
                "tempo": 120.0
            },
            {
                "start_time": 34.0613636,
                "end_time": 34.1772727,
                "pitch": 40,
                "velocity": 80,
                "duration": 0.1159091,
                "tempo": 120.0
            },
            {
                "start_time": 34.1795455,
                "end_time": 34.2954545,
                "pitch": 40,
                "velocity": 80,
                "duration": 0.1159091,
                "tempo": 120.0
            },
            {
                "start_time": 34.2954545,
                "end_time": 34.425,
                "pitch": 40,
                "velocity": 80,
                "duration": 0.1295455,
                "tempo": 120.0
            },
            {
                "start_time": 34.425,
                "end_time": 34.5409091,
                "pitch": 40,
                "velocity": 80,
                "duration": 0.1159091,
                "tempo": 120.0
            },
            {
                "start_time": 34.5409091,
                "end_time": 34.6545455,
                "pitch": 40,
                "velocity": 80,
                "duration": 0.1136364,
                "tempo": 120.0
            },
            {
                "start_time": 34.6568182,
                "end_time": 34.7727273,
                "pitch": 40,
                "velocity": 80,
                "duration": 0.1159091,
                "tempo": 120.0
            },
            {
                "start_time": 34.7727273,
                "end_time": 34.8886364,
                "pitch": 40,
                "velocity": 80,
                "duration": 0.1159091,
                "tempo": 120.0
            },
            {
                "start_time": 34.8886364,
                "end_time": 35.0227273,
                "pitch": 40,
                "velocity": 80,
                "duration": 0.1340909,
                "tempo": 120.0
            },
            {
                "start_time": 35.025,
                "end_time": 35.1409091,
                "pitch": 40,
                "velocity": 80,
                "duration": 0.1159091,
                "tempo": 120.0
            },
            {
                "start_time": 35.1409091,
                "end_time": 35.2590909,
                "pitch": 40,
                "velocity": 80,
                "duration": 0.1181818,
                "tempo": 120.0
            },
            {
                "start_time": 35.2590909,
                "end_time": 35.3772727,
                "pitch": 40,
                "velocity": 80,
                "duration": 0.1181818,
                "tempo": 120.0
            },
            {
                "start_time": 35.3772727,
                "end_time": 35.4977273,
                "pitch": 40,
                "velocity": 80,
                "duration": 0.1204545,
                "tempo": 120.0
            },
            {
                "start_time": 35.4977273,
                "end_time": 35.6363636,
                "pitch": 40,
                "velocity": 80,
                "duration": 0.1386364,
                "tempo": 120.0
            },
            {
                "start_time": 35.6363636,
                "end_time": 35.7545455,
                "pitch": 40,
                "velocity": 80,
                "duration": 0.1181818,
                "tempo": 120.0
            },
            {
                "start_time": 35.7545455,
                "end_time": 35.8727273,
                "pitch": 40,
                "velocity": 80,
                "duration": 0.1181818,
                "tempo": 120.0
            },
            {
                "start_time": 35.8727273,
                "end_time": 35.9886364,
                "pitch": 40,
                "velocity": 80,
                "duration": 0.1159091,
                "tempo": 120.0
            },
            {
                "start_time": 35.9886364,
                "end_time": 36.1045455,
                "pitch": 40,
                "velocity": 80,
                "duration": 0.1159091,
                "tempo": 120.0
            },
            {
                "start_time": 36.1045455,
                "end_time": 36.2386364,
                "pitch": 40,
                "velocity": 80,
                "duration": 0.1340909,
                "tempo": 120.0
            },
            {
                "start_time": 36.2386364,
                "end_time": 36.3568182,
                "pitch": 40,
                "velocity": 80,
                "duration": 0.1181818,
                "tempo": 120.0
            },
            {
                "start_time": 36.3568182,
                "end_time": 36.4772727,
                "pitch": 40,
                "velocity": 80,
                "duration": 0.1204545,
                "tempo": 120.0
            },
            {
                "start_time": 36.4795455,
                "end_time": 36.5977273,
                "pitch": 40,
                "velocity": 80,
                "duration": 0.1181818,
                "tempo": 120.0
            },
            {
                "start_time": 36.5977273,
                "end_time": 36.7181818,
                "pitch": 40,
                "velocity": 80,
                "duration": 0.1204545,
                "tempo": 120.0
            },
            {
                "start_time": 36.7181818,
                "end_time": 36.8454545,
                "pitch": 40,
                "velocity": 80,
                "duration": 0.1272727,
                "tempo": 120.0
            },
            {
                "start_time": 36.8454545,
                "end_time": 36.9590909,
                "pitch": 40,
                "velocity": 80,
                "duration": 0.1136364,
                "tempo": 120.0
            },
            {
                "start_time": 36.9590909,
                "end_time": 37.0704545,
                "pitch": 40,
                "velocity": 80,
                "duration": 0.1113636,
                "tempo": 120.0
            },
            {
                "start_time": 37.0704545,
                "end_time": 37.1818182,
                "pitch": 40,
                "velocity": 80,
                "duration": 0.1113636,
                "tempo": 120.0
            },
            {
                "start_time": 37.1840909,
                "end_time": 37.3022727,
                "pitch": 40,
                "velocity": 80,
                "duration": 0.1181818,
                "tempo": 120.0
            },
            {
                "start_time": 37.3022727,
                "end_time": 37.4386364,
                "pitch": 40,
                "velocity": 80,
                "duration": 0.1363636,
                "tempo": 120.0
            },
            {
                "start_time": 37.4386364,
                "end_time": 37.5590909,
                "pitch": 40,
                "velocity": 80,
                "duration": 0.1204545,
                "tempo": 120.0
            },
            {
                "start_time": 37.5590909,
                "end_time": 37.6795455,
                "pitch": 40,
                "velocity": 80,
                "duration": 0.1204545,
                "tempo": 120.0
            },
            {
                "start_time": 37.6795455,
                "end_time": 37.7954545,
                "pitch": 40,
                "velocity": 80,
                "duration": 0.1159091,
                "tempo": 120.0
            },
            {
                "start_time": 37.7954545,
                "end_time": 37.9136364,
                "pitch": 40,
                "velocity": 80,
                "duration": 0.1181818,
                "tempo": 120.0
            },
            {
                "start_time": 37.9136364,
                "end_time": 38.0477273,
                "pitch": 40,
                "velocity": 80,
                "duration": 0.1340909,
                "tempo": 120.0
            },
            {
                "start_time": 38.0477273,
                "end_time": 38.1659091,
                "pitch": 40,
                "velocity": 80,
                "duration": 0.1181818,
                "tempo": 120.0
            },
            {
                "start_time": 38.1659091,
                "end_time": 38.2840909,
                "pitch": 40,
                "velocity": 80,
                "duration": 0.1181818,
                "tempo": 120.0
            },
            {
                "start_time": 38.2840909,
                "end_time": 38.4045455,
                "pitch": 40,
                "velocity": 80,
                "duration": 0.1204545,
                "tempo": 120.0
            },
            {
                "start_time": 38.4068182,
                "end_time": 38.525,
                "pitch": 40,
                "velocity": 80,
                "duration": 0.1181818,
                "tempo": 120.0
            },
            {
                "start_time": 38.525,
                "end_time": 38.6613636,
                "pitch": 40,
                "velocity": 80,
                "duration": 0.1363636,
                "tempo": 120.0
            },
            {
                "start_time": 38.6636364,
                "end_time": 38.7795455,
                "pitch": 41,
                "velocity": 80,
                "duration": 0.1159091,
                "tempo": 120.0
            },
            {
                "start_time": 38.7795455,
                "end_time": 38.8977273,
                "pitch": 41,
                "velocity": 80,
                "duration": 0.1181818,
                "tempo": 120.0
            },
            {
                "start_time": 38.8977273,
                "end_time": 39.0159091,
                "pitch": 41,
                "velocity": 80,
                "duration": 0.1181818,
                "tempo": 120.0
            },
            {
                "start_time": 39.0159091,
                "end_time": 39.1318182,
                "pitch": 41,
                "velocity": 80,
                "duration": 0.1159091,
                "tempo": 120.0
            },
            {
                "start_time": 39.1340909,
                "end_time": 39.2636364,
                "pitch": 41,
                "velocity": 80,
                "duration": 0.1295455,
                "tempo": 120.0
            },
            {
                "start_time": 39.2636364,
                "end_time": 39.3795455,
                "pitch": 41,
                "velocity": 80,
                "duration": 0.1159091,
                "tempo": 120.0
            },
            {
                "start_time": 39.3795455,
                "end_time": 39.4931818,
                "pitch": 41,
                "velocity": 80,
                "duration": 0.1136364,
                "tempo": 120.0
            },
            {
                "start_time": 39.4954545,
                "end_time": 39.6090909,
                "pitch": 41,
                "velocity": 80,
                "duration": 0.1136364,
                "tempo": 120.0
            },
            {
                "start_time": 39.6090909,
                "end_time": 39.725,
                "pitch": 41,
                "velocity": 80,
                "duration": 0.1159091,
                "tempo": 120.0
            },
            {
                "start_time": 39.7272727,
                "end_time": 39.8590909,
                "pitch": 41,
                "velocity": 80,
                "duration": 0.1318182,
                "tempo": 120.0
            },
            {
                "start_time": 39.8590909,
                "end_time": 39.9772727,
                "pitch": 41,
                "velocity": 80,
                "duration": 0.1181818,
                "tempo": 120.0
            },
            {
                "start_time": 39.9772727,
                "end_time": 40.0931818,
                "pitch": 41,
                "velocity": 80,
                "duration": 0.1159091,
                "tempo": 120.0
            },
            {
                "start_time": 40.0931818,
                "end_time": 40.2090909,
                "pitch": 41,
                "velocity": 80,
                "duration": 0.1159091,
                "tempo": 120.0
            },
            {
                "start_time": 40.2090909,
                "end_time": 40.3295455,
                "pitch": 41,
                "velocity": 80,
                "duration": 0.1204545,
                "tempo": 120.0
            },
            {
                "start_time": 40.3295455,
                "end_time": 40.4636364,
                "pitch": 41,
                "velocity": 80,
                "duration": 0.1340909,
                "tempo": 120.0
            },
            {
                "start_time": 40.4636364,
                "end_time": 40.5818182,
                "pitch": 41,
                "velocity": 80,
                "duration": 0.1181818,
                "tempo": 120.0
            },
            {
                "start_time": 40.5818182,
                "end_time": 40.7,
                "pitch": 41,
                "velocity": 80,
                "duration": 0.1181818,
                "tempo": 120.0
            },
            {
                "start_time": 40.7,
                "end_time": 40.8204545,
                "pitch": 41,
                "velocity": 80,
                "duration": 0.1204545,
                "tempo": 120.0
            },
            {
                "start_time": 40.8204545,
                "end_time": 40.9409091,
                "pitch": 41,
                "velocity": 80,
                "duration": 0.1204545,
                "tempo": 120.0
            },
            {
                "start_time": 40.9409091,
                "end_time": 41.0772727,
                "pitch": 41,
                "velocity": 80,
                "duration": 0.1363636,
                "tempo": 120.0
            },
            {
                "start_time": 41.0772727,
                "end_time": 41.1931818,
                "pitch": 41,
                "velocity": 80,
                "duration": 0.1159091,
                "tempo": 120.0
            },
            {
                "start_time": 41.1931818,
                "end_time": 41.3113636,
                "pitch": 41,
                "velocity": 80,
                "duration": 0.1181818,
                "tempo": 120.0
            },
            {
                "start_time": 41.3113636,
                "end_time": 41.4272727,
                "pitch": 41,
                "velocity": 80,
                "duration": 0.1159091,
                "tempo": 120.0
            },
            {
                "start_time": 41.4272727,
                "end_time": 41.5454545,
                "pitch": 41,
                "velocity": 80,
                "duration": 0.1181818,
                "tempo": 120.0
            },
            {
                "start_time": 41.5454545,
                "end_time": 41.675,
                "pitch": 41,
                "velocity": 80,
                "duration": 0.1295455,
                "tempo": 120.0
            },
            {
                "start_time": 41.675,
                "end_time": 41.7909091,
                "pitch": 41,
                "velocity": 80,
                "duration": 0.1159091,
                "tempo": 120.0
            },
            {
                "start_time": 41.7909091,
                "end_time": 41.9045455,
                "pitch": 41,
                "velocity": 80,
                "duration": 0.1136364,
                "tempo": 120.0
            },
            {
                "start_time": 41.9045455,
                "end_time": 42.0204545,
                "pitch": 41,
                "velocity": 80,
                "duration": 0.1159091,
                "tempo": 120.0
            },
            {
                "start_time": 42.0204545,
                "end_time": 42.1386364,
                "pitch": 41,
                "velocity": 80,
                "duration": 0.1181818,
                "tempo": 120.0
            },
            {
                "start_time": 42.1409091,
                "end_time": 42.2772727,
                "pitch": 41,
                "velocity": 80,
                "duration": 0.1363636,
                "tempo": 120.0
            },
            {
                "start_time": 42.2772727,
                "end_time": 42.3954545,
                "pitch": 41,
                "velocity": 80,
                "duration": 0.1181818,
                "tempo": 120.0
            },
            {
                "start_time": 42.3954545,
                "end_time": 42.5159091,
                "pitch": 41,
                "velocity": 80,
                "duration": 0.1204545,
                "tempo": 120.0
            },
            {
                "start_time": 42.5159091,
                "end_time": 42.6318182,
                "pitch": 37,
                "velocity": 80,
                "duration": 0.1159091,
                "tempo": 120.0
            },
            {
                "start_time": 42.6318182,
                "end_time": 42.75,
                "pitch": 37,
                "velocity": 80,
                "duration": 0.1181818,
                "tempo": 120.0
            },
            {
                "start_time": 42.75,
                "end_time": 42.8840909,
                "pitch": 37,
                "velocity": 80,
                "duration": 0.1340909,
                "tempo": 120.0
            },
            {
                "start_time": 42.8840909,
                "end_time": 43.0,
                "pitch": 37,
                "velocity": 80,
                "duration": 0.1159091,
                "tempo": 120.0
            },
            {
                "start_time": 43.0,
                "end_time": 43.1181818,
                "pitch": 37,
                "velocity": 80,
                "duration": 0.1181818,
                "tempo": 120.0
            },
            {
                "start_time": 43.1181818,
                "end_time": 43.2363636,
                "pitch": 37,
                "velocity": 80,
                "duration": 0.1181818,
                "tempo": 120.0
            },
            {
                "start_time": 43.2363636,
                "end_time": 43.3522727,
                "pitch": 37,
                "velocity": 80,
                "duration": 0.1159091,
                "tempo": 120.0
            },
            {
                "start_time": 43.3522727,
                "end_time": 43.4886364,
                "pitch": 37,
                "velocity": 80,
                "duration": 0.1363636,
                "tempo": 120.0
            },
            {
                "start_time": 43.4886364,
                "end_time": 43.6068182,
                "pitch": 37,
                "velocity": 80,
                "duration": 0.1181818,
                "tempo": 120.0
            },
            {
                "start_time": 43.6068182,
                "end_time": 43.7272727,
                "pitch": 37,
                "velocity": 80,
                "duration": 0.1204545,
                "tempo": 120.0
            },
            {
                "start_time": 43.7272727,
                "end_time": 43.8477273,
                "pitch": 37,
                "velocity": 80,
                "duration": 0.1204545,
                "tempo": 120.0
            },
            {
                "start_time": 43.8477273,
                "end_time": 43.9659091,
                "pitch": 37,
                "velocity": 80,
                "duration": 0.1181818,
                "tempo": 120.0
            },
            {
                "start_time": 43.9659091,
                "end_time": 44.0931818,
                "pitch": 37,
                "velocity": 80,
                "duration": 0.1272727,
                "tempo": 120.0
            },
            {
                "start_time": 44.0931818,
                "end_time": 44.2068182,
                "pitch": 37,
                "velocity": 80,
                "duration": 0.1136364,
                "tempo": 120.0
            },
            {
                "start_time": 44.2068182,
                "end_time": 44.3181818,
                "pitch": 37,
                "velocity": 80,
                "duration": 0.1113636,
                "tempo": 120.0
            },
            {
                "start_time": 44.3181818,
                "end_time": 44.4318182,
                "pitch": 37,
                "velocity": 80,
                "duration": 0.1136364,
                "tempo": 120.0
            },
            {
                "start_time": 44.4318182,
                "end_time": 44.55,
                "pitch": 36,
                "velocity": 80,
                "duration": 0.1181818,
                "tempo": 120.0
            },
            {
                "start_time": 44.55,
                "end_time": 44.6840909,
                "pitch": 36,
                "velocity": 80,
                "duration": 0.1340909,
                "tempo": 120.0
            },
            {
                "start_time": 44.6840909,
                "end_time": 44.8022727,
                "pitch": 36,
                "velocity": 80,
                "duration": 0.1181818,
                "tempo": 120.0
            },
            {
                "start_time": 44.8022727,
                "end_time": 44.9204545,
                "pitch": 36,
                "velocity": 80,
                "duration": 0.1181818,
                "tempo": 120.0
            },
            {
                "start_time": 44.9204545,
                "end_time": 45.0386364,
                "pitch": 36,
                "velocity": 80,
                "duration": 0.1181818,
                "tempo": 120.0
            },
            {
                "start_time": 45.0386364,
                "end_time": 45.1590909,
                "pitch": 36,
                "velocity": 80,
                "duration": 0.1204545,
                "tempo": 120.0
            },
            {
                "start_time": 45.1590909,
                "end_time": 45.2954545,
                "pitch": 36,
                "velocity": 80,
                "duration": 0.1363636,
                "tempo": 120.0
            },
            {
                "start_time": 45.2954545,
                "end_time": 45.4159091,
                "pitch": 36,
                "velocity": 80,
                "duration": 0.1204545,
                "tempo": 120.0
            },
            {
                "start_time": 45.4159091,
                "end_time": 45.5340909,
                "pitch": 36,
                "velocity": 80,
                "duration": 0.1181818,
                "tempo": 120.0
            },
            {
                "start_time": 45.5340909,
                "end_time": 45.6545455,
                "pitch": 36,
                "velocity": 80,
                "duration": 0.1204545,
                "tempo": 120.0
            },
            {
                "start_time": 45.6545455,
                "end_time": 45.775,
                "pitch": 36,
                "velocity": 80,
                "duration": 0.1204545,
                "tempo": 120.0
            },
            {
                "start_time": 45.775,
                "end_time": 45.9113636,
                "pitch": 36,
                "velocity": 80,
                "duration": 0.1363636,
                "tempo": 120.0
            },
            {
                "start_time": 45.9113636,
                "end_time": 46.0272727,
                "pitch": 36,
                "velocity": 80,
                "duration": 0.1159091,
                "tempo": 120.0
            },
            {
                "start_time": 46.0295455,
                "end_time": 46.1477273,
                "pitch": 36,
                "velocity": 80,
                "duration": 0.1181818,
                "tempo": 120.0
            },
            {
                "start_time": 46.1477273,
                "end_time": 46.2636364,
                "pitch": 36,
                "velocity": 80,
                "duration": 0.1159091,
                "tempo": 120.0
            },
            {
                "start_time": 46.2636364,
                "end_time": 46.3818182,
                "pitch": 36,
                "velocity": 80,
                "duration": 0.1181818,
                "tempo": 120.0
            },
            {
                "start_time": 46.3818182,
                "end_time": 46.5136364,
                "pitch": 35,
                "velocity": 80,
                "duration": 0.1318182,
                "tempo": 120.0
            },
            {
                "start_time": 46.5136364,
                "end_time": 46.6295455,
                "pitch": 35,
                "velocity": 80,
                "duration": 0.1159091,
                "tempo": 120.0
            },
            {
                "start_time": 46.6295455,
                "end_time": 46.7431818,
                "pitch": 35,
                "velocity": 80,
                "duration": 0.1136364,
                "tempo": 120.0
            },
            {
                "start_time": 46.7431818,
                "end_time": 46.8590909,
                "pitch": 35,
                "velocity": 80,
                "duration": 0.1159091,
                "tempo": 120.0
            },
            {
                "start_time": 46.8590909,
                "end_time": 46.975,
                "pitch": 35,
                "velocity": 80,
                "duration": 0.1159091,
                "tempo": 120.0
            },
            {
                "start_time": 46.975,
                "end_time": 47.1090909,
                "pitch": 35,
                "velocity": 80,
                "duration": 0.1340909,
                "tempo": 120.0
            },
            {
                "start_time": 47.1090909,
                "end_time": 47.225,
                "pitch": 35,
                "velocity": 80,
                "duration": 0.1159091,
                "tempo": 120.0
            },
            {
                "start_time": 47.225,
                "end_time": 47.3431818,
                "pitch": 35,
                "velocity": 80,
                "duration": 0.1181818,
                "tempo": 120.0
            },
            {
                "start_time": 47.3431818,
                "end_time": 47.4613636,
                "pitch": 35,
                "velocity": 80,
                "duration": 0.1181818,
                "tempo": 120.0
            },
            {
                "start_time": 47.4613636,
                "end_time": 47.5818182,
                "pitch": 35,
                "velocity": 80,
                "duration": 0.1204545,
                "tempo": 120.0
            },
            {
                "start_time": 47.5818182,
                "end_time": 47.7181818,
                "pitch": 35,
                "velocity": 80,
                "duration": 0.1363636,
                "tempo": 120.0
            },
            {
                "start_time": 47.7181818,
                "end_time": 47.8386364,
                "pitch": 35,
                "velocity": 80,
                "duration": 0.1204545,
                "tempo": 120.0
            },
            {
                "start_time": 47.8386364,
                "end_time": 47.9545455,
                "pitch": 35,
                "velocity": 80,
                "duration": 0.1159091,
                "tempo": 120.0
            },
            {
                "start_time": 47.9545455,
                "end_time": 48.075,
                "pitch": 35,
                "velocity": 80,
                "duration": 0.1204545,
                "tempo": 120.0
            },
            {
                "start_time": 48.075,
                "end_time": 48.1909091,
                "pitch": 35,
                "velocity": 80,
                "duration": 0.1159091,
                "tempo": 120.0
            },
            {
                "start_time": 48.1909091,
                "end_time": 48.3272727,
                "pitch": 35,
                "velocity": 80,
                "duration": 0.1363636,
                "tempo": 120.0
            },
            {
                "start_time": 48.3272727,
                "end_time": 48.4431818,
                "pitch": 35,
                "velocity": 80,
                "duration": 0.1159091,
                "tempo": 120.0
            },
            {
                "start_time": 48.4431818,
                "end_time": 48.5590909,
                "pitch": 35,
                "velocity": 80,
                "duration": 0.1159091,
                "tempo": 120.0
            },
            {
                "start_time": 48.5590909,
                "end_time": 48.6772727,
                "pitch": 35,
                "velocity": 80,
                "duration": 0.1181818,
                "tempo": 120.0
            },
            {
                "start_time": 48.6772727,
                "end_time": 48.7931818,
                "pitch": 35,
                "velocity": 80,
                "duration": 0.1159091,
                "tempo": 120.0
            },
            {
                "start_time": 48.7931818,
                "end_time": 48.9227273,
                "pitch": 35,
                "velocity": 80,
                "duration": 0.1295455,
                "tempo": 120.0
            },
            {
                "start_time": 48.9227273,
                "end_time": 49.0409091,
                "pitch": 35,
                "velocity": 80,
                "duration": 0.1181818,
                "tempo": 120.0
            },
            {
                "start_time": 49.0409091,
                "end_time": 49.1545455,
                "pitch": 35,
                "velocity": 80,
                "duration": 0.1136364,
                "tempo": 120.0
            },
            {
                "start_time": 49.1545455,
                "end_time": 49.2704545,
                "pitch": 35,
                "velocity": 80,
                "duration": 0.1159091,
                "tempo": 120.0
            },
            {
                "start_time": 49.2704545,
                "end_time": 49.3886364,
                "pitch": 35,
                "velocity": 80,
                "duration": 0.1181818,
                "tempo": 120.0
            },
            {
                "start_time": 49.3886364,
                "end_time": 49.525,
                "pitch": 35,
                "velocity": 80,
                "duration": 0.1363636,
                "tempo": 120.0
            },
            {
                "start_time": 49.525,
                "end_time": 49.6454545,
                "pitch": 35,
                "velocity": 80,
                "duration": 0.1204545,
                "tempo": 120.0
            },
            {
                "start_time": 49.6454545,
                "end_time": 49.7659091,
                "pitch": 35,
                "velocity": 80,
                "duration": 0.1204545,
                "tempo": 120.0
            },
            {
                "start_time": 49.7659091,
                "end_time": 49.8818182,
                "pitch": 35,
                "velocity": 80,
                "duration": 0.1159091,
                "tempo": 120.0
            },
            {
                "start_time": 49.8818182,
                "end_time": 50.0,
                "pitch": 35,
                "velocity": 80,
                "duration": 0.1181818,
                "tempo": 120.0
            },
            {
                "start_time": 50.0,
                "end_time": 50.1318182,
                "pitch": 35,
                "velocity": 80,
                "duration": 0.1318182,
                "tempo": 120.0
            },
            {
                "start_time": 50.1318182,
                "end_time": 50.25,
                "pitch": 35,
                "velocity": 80,
                "duration": 0.1181818,
                "tempo": 120.0
            },
            {
                "start_time": 50.25,
                "end_time": 50.3659091,
                "pitch": 36,
                "velocity": 80,
                "duration": 0.1159091,
                "tempo": 120.0
            },
            {
                "start_time": 50.3659091,
                "end_time": 50.4840909,
                "pitch": 36,
                "velocity": 80,
                "duration": 0.1181818,
                "tempo": 120.0
            },
            {
                "start_time": 50.4840909,
                "end_time": 50.6022727,
                "pitch": 36,
                "velocity": 80,
                "duration": 0.1181818,
                "tempo": 120.0
            },
            {
                "start_time": 50.6022727,
                "end_time": 50.7363636,
                "pitch": 36,
                "velocity": 80,
                "duration": 0.1340909,
                "tempo": 120.0
            },
            {
                "start_time": 50.7363636,
                "end_time": 50.8545455,
                "pitch": 36,
                "velocity": 80,
                "duration": 0.1181818,
                "tempo": 120.0
            },
            {
                "start_time": 50.8545455,
                "end_time": 50.975,
                "pitch": 36,
                "velocity": 80,
                "duration": 0.1204545,
                "tempo": 120.0
            },
            {
                "start_time": 50.9772727,
                "end_time": 51.0954545,
                "pitch": 36,
                "velocity": 80,
                "duration": 0.1181818,
                "tempo": 120.0
            },
            {
                "start_time": 51.0954545,
                "end_time": 51.2159091,
                "pitch": 36,
                "velocity": 80,
                "duration": 0.1204545,
                "tempo": 120.0
            },
            {
                "start_time": 51.2159091,
                "end_time": 51.3431818,
                "pitch": 36,
                "velocity": 80,
                "duration": 0.1272727,
                "tempo": 120.0
            },
            {
                "start_time": 51.3431818,
                "end_time": 51.4568182,
                "pitch": 36,
                "velocity": 80,
                "duration": 0.1136364,
                "tempo": 120.0
            },
            {
                "start_time": 51.4568182,
                "end_time": 51.5681818,
                "pitch": 36,
                "velocity": 80,
                "duration": 0.1113636,
                "tempo": 120.0
            },
            {
                "start_time": 51.5681818,
                "end_time": 51.6818182,
                "pitch": 36,
                "velocity": 80,
                "duration": 0.1136364,
                "tempo": 120.0
            },
            {
                "start_time": 51.6818182,
                "end_time": 51.8,
                "pitch": 36,
                "velocity": 80,
                "duration": 0.1181818,
                "tempo": 120.0
            },
            {
                "start_time": 51.8,
                "end_time": 51.9363636,
                "pitch": 36,
                "velocity": 80,
                "duration": 0.1363636,
                "tempo": 120.0
            },
            {
                "start_time": 51.9386364,
                "end_time": 52.0568182,
                "pitch": 36,
                "velocity": 80,
                "duration": 0.1181818,
                "tempo": 120.0
            },
            {
                "start_time": 52.0568182,
                "end_time": 52.1772727,
                "pitch": 36,
                "velocity": 80,
                "duration": 0.1204545,
                "tempo": 120.0
            },
            {
                "start_time": 52.1772727,
                "end_time": 52.2931818,
                "pitch": 36,
                "velocity": 80,
                "duration": 0.1159091,
                "tempo": 120.0
            },
            {
                "start_time": 52.2931818,
                "end_time": 52.4090909,
                "pitch": 36,
                "velocity": 80,
                "duration": 0.1159091,
                "tempo": 120.0
            },
            {
                "start_time": 52.4090909,
                "end_time": 52.5431818,
                "pitch": 36,
                "velocity": 80,
                "duration": 0.1340909,
                "tempo": 120.0
            },
            {
                "start_time": 52.5431818,
                "end_time": 52.6613636,
                "pitch": 36,
                "velocity": 80,
                "duration": 0.1181818,
                "tempo": 120.0
            },
            {
                "start_time": 52.6613636,
                "end_time": 52.7772727,
                "pitch": 36,
                "velocity": 80,
                "duration": 0.1159091,
                "tempo": 120.0
            },
            {
                "start_time": 52.7772727,
                "end_time": 52.8954545,
                "pitch": 36,
                "velocity": 80,
                "duration": 0.1181818,
                "tempo": 120.0
            },
            {
                "start_time": 52.8954545,
                "end_time": 53.0136364,
                "pitch": 36,
                "velocity": 80,
                "duration": 0.1181818,
                "tempo": 120.0
            },
            {
                "start_time": 53.0136364,
                "end_time": 53.1477273,
                "pitch": 36,
                "velocity": 80,
                "duration": 0.1340909,
                "tempo": 120.0
            },
            {
                "start_time": 53.1477273,
                "end_time": 53.2681818,
                "pitch": 36,
                "velocity": 80,
                "duration": 0.1204545,
                "tempo": 120.0
            },
            {
                "start_time": 53.2681818,
                "end_time": 53.3863636,
                "pitch": 36,
                "velocity": 80,
                "duration": 0.1181818,
                "tempo": 120.0
            },
            {
                "start_time": 53.3886364,
                "end_time": 53.5068182,
                "pitch": 36,
                "velocity": 80,
                "duration": 0.1181818,
                "tempo": 120.0
            },
            {
                "start_time": 53.5068182,
                "end_time": 53.6272727,
                "pitch": 36,
                "velocity": 80,
                "duration": 0.1204545,
                "tempo": 120.0
            },
            {
                "start_time": 53.6272727,
                "end_time": 53.7590909,
                "pitch": 36,
                "velocity": 80,
                "duration": 0.1318182,
                "tempo": 120.0
            },
            {
                "start_time": 53.7590909,
                "end_time": 53.8727273,
                "pitch": 36,
                "velocity": 80,
                "duration": 0.1136364,
                "tempo": 120.0
            },
            {
                "start_time": 53.8727273,
                "end_time": 53.9886364,
                "pitch": 36,
                "velocity": 80,
                "duration": 0.1159091,
                "tempo": 120.0
            },
            {
                "start_time": 53.9886364,
                "end_time": 85.0545455,
                "pitch": 36,
                "velocity": 80,
                "duration": 31.0659091,
                "tempo": 120.0
            }
        ],
        "Electric Piano 1": [
            {
                "start_time": 61.8386364,
                "end_time": 61.9545455,
                "pitch": 75,
                "velocity": 40,
                "duration": 0.1159091,
                "tempo": 120.0
            },
            {
                "start_time": 61.9545455,
                "end_time": 62.0727273,
                "pitch": 71,
                "velocity": 40,
                "duration": 0.1181818,
                "tempo": 120.0
            },
            {
                "start_time": 62.0727273,
                "end_time": 62.2068182,
                "pitch": 75,
                "velocity": 40,
                "duration": 0.1340909,
                "tempo": 120.0
            },
            {
                "start_time": 62.2068182,
                "end_time": 62.5636364,
                "pitch": 76,
                "velocity": 40,
                "duration": 0.3568182,
                "tempo": 120.0
            },
            {
                "start_time": 62.5636364,
                "end_time": 62.8204545,
                "pitch": 71,
                "velocity": 40,
                "duration": 0.2568182,
                "tempo": 120.0
            },
            {
                "start_time": 62.8204545,
                "end_time": 63.0568182,
                "pitch": 75,
                "velocity": 40,
                "duration": 0.2363636,
                "tempo": 120.0
            },
            {
                "start_time": 63.0568182,
                "end_time": 63.2909091,
                "pitch": 71,
                "velocity": 40,
                "duration": 0.2340909,
                "tempo": 120.0
            },
            {
                "start_time": 63.2909091,
                "end_time": 63.5363636,
                "pitch": 76,
                "velocity": 40,
                "duration": 0.2454545,
                "tempo": 120.0
            },
            {
                "start_time": 63.5386364,
                "end_time": 63.6522727,
                "pitch": 71,
                "velocity": 40,
                "duration": 0.1136364,
                "tempo": 120.0
            },
            {
                "start_time": 63.6522727,
                "end_time": 63.7681818,
                "pitch": 75,
                "velocity": 40,
                "duration": 0.1159091,
                "tempo": 120.0
            },
            {
                "start_time": 63.7704545,
                "end_time": 63.8840909,
                "pitch": 75,
                "velocity": 40,
                "duration": 0.1136364,
                "tempo": 120.0
            },
            {
                "start_time": 63.8840909,
                "end_time": 64.0181818,
                "pitch": 71,
                "velocity": 40,
                "duration": 0.1340909,
                "tempo": 120.0
            },
            {
                "start_time": 64.0181818,
                "end_time": 64.1340909,
                "pitch": 75,
                "velocity": 40,
                "duration": 0.1159091,
                "tempo": 120.0
            },
            {
                "start_time": 64.1340909,
                "end_time": 64.4909091,
                "pitch": 76,
                "velocity": 40,
                "duration": 0.3568182,
                "tempo": 120.0
            },
            {
                "start_time": 64.4909091,
                "end_time": 64.7477273,
                "pitch": 71,
                "velocity": 40,
                "duration": 0.2568182,
                "tempo": 120.0
            },
            {
                "start_time": 64.7477273,
                "end_time": 64.9818182,
                "pitch": 75,
                "velocity": 40,
                "duration": 0.2340909,
                "tempo": 120.0
            },
            {
                "start_time": 64.9818182,
                "end_time": 65.2318182,
                "pitch": 71,
                "velocity": 40,
                "duration": 0.25,
                "tempo": 120.0
            },
            {
                "start_time": 65.2318182,
                "end_time": 65.4659091,
                "pitch": 76,
                "velocity": 40,
                "duration": 0.2340909,
                "tempo": 120.0
            },
            {
                "start_time": 65.4659091,
                "end_time": 65.5840909,
                "pitch": 71,
                "velocity": 40,
                "duration": 0.1181818,
                "tempo": 120.0
            },
            {
                "start_time": 65.5840909,
                "end_time": 65.7045455,
                "pitch": 75,
                "velocity": 40,
                "duration": 0.1204545,
                "tempo": 120.0
            },
            {
                "start_time": 65.7045455,
                "end_time": 65.8340909,
                "pitch": 75,
                "velocity": 40,
                "duration": 0.1295455,
                "tempo": 120.0
            },
            {
                "start_time": 65.8340909,
                "end_time": 65.9477273,
                "pitch": 71,
                "velocity": 40,
                "duration": 0.1136364,
                "tempo": 120.0
            },
            {
                "start_time": 65.9477273,
                "end_time": 66.0636364,
                "pitch": 75,
                "velocity": 40,
                "duration": 0.1159091,
                "tempo": 120.0
            },
            {
                "start_time": 66.0636364,
                "end_time": 66.4340909,
                "pitch": 76,
                "velocity": 40,
                "duration": 0.3704545,
                "tempo": 120.0
            },
            {
                "start_time": 66.4340909,
                "end_time": 66.675,
                "pitch": 71,
                "velocity": 40,
                "duration": 0.2409091,
                "tempo": 120.0
            },
            {
                "start_time": 66.675,
                "end_time": 66.9090909,
                "pitch": 75,
                "velocity": 40,
                "duration": 0.2340909,
                "tempo": 120.0
            },
            {
                "start_time": 66.9090909,
                "end_time": 67.1613636,
                "pitch": 71,
                "velocity": 40,
                "duration": 0.2522727,
                "tempo": 120.0
            },
            {
                "start_time": 67.1613636,
                "end_time": 67.3977273,
                "pitch": 76,
                "velocity": 40,
                "duration": 0.2363636,
                "tempo": 120.0
            },
            {
                "start_time": 67.3977273,
                "end_time": 67.5159091,
                "pitch": 71,
                "velocity": 40,
                "duration": 0.1181818,
                "tempo": 120.0
            },
            {
                "start_time": 67.5159091,
                "end_time": 67.6522727,
                "pitch": 75,
                "velocity": 40,
                "duration": 0.1363636,
                "tempo": 120.0
            },
            {
                "start_time": 67.6522727,
                "end_time": 67.7681818,
                "pitch": 75,
                "velocity": 40,
                "duration": 0.1159091,
                "tempo": 120.0
            },
            {
                "start_time": 67.7681818,
                "end_time": 67.8840909,
                "pitch": 71,
                "velocity": 40,
                "duration": 0.1159091,
                "tempo": 120.0
            },
            {
                "start_time": 67.8863636,
                "end_time": 68.0022727,
                "pitch": 75,
                "velocity": 40,
                "duration": 0.1159091,
                "tempo": 120.0
            },
            {
                "start_time": 68.0022727,
                "end_time": 68.3704545,
                "pitch": 76,
                "velocity": 40,
                "duration": 0.3681818,
                "tempo": 120.0
            },
            {
                "start_time": 68.3704545,
                "end_time": 68.6045455,
                "pitch": 71,
                "velocity": 40,
                "duration": 0.2340909,
                "tempo": 120.0
            },
            {
                "start_time": 68.6045455,
                "end_time": 68.8568182,
                "pitch": 75,
                "velocity": 40,
                "duration": 0.2522727,
                "tempo": 120.0
            },
            {
                "start_time": 68.8568182,
                "end_time": 69.0931818,
                "pitch": 71,
                "velocity": 40,
                "duration": 0.2363636,
                "tempo": 120.0
            },
            {
                "start_time": 69.0931818,
                "end_time": 69.3318182,
                "pitch": 76,
                "velocity": 40,
                "duration": 0.2386364,
                "tempo": 120.0
            },
            {
                "start_time": 69.3318182,
                "end_time": 69.4681818,
                "pitch": 71,
                "velocity": 40,
                "duration": 0.1363636,
                "tempo": 120.0
            },
            {
                "start_time": 69.4681818,
                "end_time": 69.5909091,
                "pitch": 75,
                "velocity": 40,
                "duration": 0.1227273,
                "tempo": 120.0
            },
            {
                "start_time": 69.5909091,
                "end_time": 69.7022727,
                "pitch": 77,
                "velocity": 40,
                "duration": 0.1113636,
                "tempo": 120.0
            },
            {
                "start_time": 69.7022727,
                "end_time": 69.8181818,
                "pitch": 73,
                "velocity": 40,
                "duration": 0.1159091,
                "tempo": 120.0
            },
            {
                "start_time": 69.8181818,
                "end_time": 69.9318182,
                "pitch": 77,
                "velocity": 40,
                "duration": 0.1136364,
                "tempo": 120.0
            },
            {
                "start_time": 69.9318182,
                "end_time": 70.3045455,
                "pitch": 78,
                "velocity": 40,
                "duration": 0.3727273,
                "tempo": 120.0
            },
            {
                "start_time": 70.3045455,
                "end_time": 70.5431818,
                "pitch": 73,
                "velocity": 40,
                "duration": 0.2386364,
                "tempo": 120.0
            },
            {
                "start_time": 70.5431818,
                "end_time": 70.7886364,
                "pitch": 77,
                "velocity": 40,
                "duration": 0.2454545,
                "tempo": 120.0
            },
            {
                "start_time": 70.7886364,
                "end_time": 71.0181818,
                "pitch": 73,
                "velocity": 40,
                "duration": 0.2295455,
                "tempo": 120.0
            },
            {
                "start_time": 71.0181818,
                "end_time": 71.2704545,
                "pitch": 78,
                "velocity": 40,
                "duration": 0.2522727,
                "tempo": 120.0
            },
            {
                "start_time": 71.2727273,
                "end_time": 71.3886364,
                "pitch": 73,
                "velocity": 40,
                "duration": 0.1159091,
                "tempo": 120.0
            },
            {
                "start_time": 71.3909091,
                "end_time": 71.5090909,
                "pitch": 77,
                "velocity": 40,
                "duration": 0.1181818,
                "tempo": 120.0
            },
            {
                "start_time": 71.5090909,
                "end_time": 71.6227273,
                "pitch": 77,
                "velocity": 40,
                "duration": 0.1136364,
                "tempo": 120.0
            },
            {
                "start_time": 71.6227273,
                "end_time": 71.7409091,
                "pitch": 73,
                "velocity": 40,
                "duration": 0.1181818,
                "tempo": 120.0
            },
            {
                "start_time": 71.7409091,
                "end_time": 71.8727273,
                "pitch": 77,
                "velocity": 40,
                "duration": 0.1318182,
                "tempo": 120.0
            },
            {
                "start_time": 71.8727273,
                "end_time": 72.2295455,
                "pitch": 78,
                "velocity": 40,
                "duration": 0.3568182,
                "tempo": 120.0
            },
            {
                "start_time": 72.2318182,
                "end_time": 72.4863636,
                "pitch": 73,
                "velocity": 40,
                "duration": 0.2545455,
                "tempo": 120.0
            },
            {
                "start_time": 72.4863636,
                "end_time": 72.7204545,
                "pitch": 77,
                "velocity": 40,
                "duration": 0.2340909,
                "tempo": 120.0
            },
            {
                "start_time": 72.7204545,
                "end_time": 72.9545455,
                "pitch": 73,
                "velocity": 40,
                "duration": 0.2340909,
                "tempo": 120.0
            },
            {
                "start_time": 72.9545455,
                "end_time": 73.2,
                "pitch": 78,
                "velocity": 40,
                "duration": 0.2454545,
                "tempo": 120.0
            },
            {
                "start_time": 73.2,
                "end_time": 73.3159091,
                "pitch": 73,
                "velocity": 40,
                "duration": 0.1159091,
                "tempo": 120.0
            },
            {
                "start_time": 73.3159091,
                "end_time": 73.4318182,
                "pitch": 77,
                "velocity": 40,
                "duration": 0.1159091,
                "tempo": 120.0
            },
            {
                "start_time": 73.4318182,
                "end_time": 73.5477273,
                "pitch": 77,
                "velocity": 40,
                "duration": 0.1159091,
                "tempo": 120.0
            },
            {
                "start_time": 73.5477273,
                "end_time": 73.6818182,
                "pitch": 73,
                "velocity": 40,
                "duration": 0.1340909,
                "tempo": 120.0
            },
            {
                "start_time": 73.6818182,
                "end_time": 73.8,
                "pitch": 77,
                "velocity": 40,
                "duration": 0.1181818,
                "tempo": 120.0
            },
            {
                "start_time": 73.8,
                "end_time": 74.1568182,
                "pitch": 78,
                "velocity": 40,
                "duration": 0.3568182,
                "tempo": 120.0
            },
            {
                "start_time": 74.1568182,
                "end_time": 74.4136364,
                "pitch": 73,
                "velocity": 40,
                "duration": 0.2568182,
                "tempo": 120.0
            },
            {
                "start_time": 74.4136364,
                "end_time": 74.6477273,
                "pitch": 77,
                "velocity": 40,
                "duration": 0.2340909,
                "tempo": 120.0
            },
            {
                "start_time": 74.6477273,
                "end_time": 74.8977273,
                "pitch": 73,
                "velocity": 40,
                "duration": 0.25,
                "tempo": 120.0
            },
            {
                "start_time": 74.8977273,
                "end_time": 75.1340909,
                "pitch": 78,
                "velocity": 40,
                "duration": 0.2363636,
                "tempo": 120.0
            },
            {
                "start_time": 75.1340909,
                "end_time": 75.2522727,
                "pitch": 73,
                "velocity": 40,
                "duration": 0.1181818,
                "tempo": 120.0
            },
            {
                "start_time": 75.2522727,
                "end_time": 75.3704545,
                "pitch": 77,
                "velocity": 40,
                "duration": 0.1181818,
                "tempo": 120.0
            },
            {
                "start_time": 75.3704545,
                "end_time": 75.5,
                "pitch": 77,
                "velocity": 40,
                "duration": 0.1295455,
                "tempo": 120.0
            },
            {
                "start_time": 75.5,
                "end_time": 75.6159091,
                "pitch": 73,
                "velocity": 40,
                "duration": 0.1159091,
                "tempo": 120.0
            },
            {
                "start_time": 75.6159091,
                "end_time": 75.7295455,
                "pitch": 77,
                "velocity": 40,
                "duration": 0.1136364,
                "tempo": 120.0
            },
            {
                "start_time": 75.7295455,
                "end_time": 76.1022727,
                "pitch": 78,
                "velocity": 40,
                "duration": 0.3727273,
                "tempo": 120.0
            },
            {
                "start_time": 76.1022727,
                "end_time": 76.3409091,
                "pitch": 73,
                "velocity": 40,
                "duration": 0.2386364,
                "tempo": 120.0
            },
            {
                "start_time": 76.3409091,
                "end_time": 76.5772727,
                "pitch": 77,
                "velocity": 40,
                "duration": 0.2363636,
                "tempo": 120.0
            },
            {
                "start_time": 76.5772727,
                "end_time": 76.8272727,
                "pitch": 73,
                "velocity": 40,
                "duration": 0.25,
                "tempo": 120.0
            },
            {
                "start_time": 76.8295455,
                "end_time": 77.0636364,
                "pitch": 78,
                "velocity": 40,
                "duration": 0.2340909,
                "tempo": 120.0
            },
            {
                "start_time": 77.0636364,
                "end_time": 77.1818182,
                "pitch": 73,
                "velocity": 40,
                "duration": 0.1181818,
                "tempo": 120.0
            },
            {
                "start_time": 77.1818182,
                "end_time": 77.3181818,
                "pitch": 77,
                "velocity": 40,
                "duration": 0.1363636,
                "tempo": 120.0
            },
            {
                "start_time": 77.3181818,
                "end_time": 77.4340909,
                "pitch": 77,
                "velocity": 40,
                "duration": 0.1159091,
                "tempo": 120.0
            },
            {
                "start_time": 77.4340909,
                "end_time": 77.5522727,
                "pitch": 73,
                "velocity": 40,
                "duration": 0.1181818,
                "tempo": 120.0
            },
            {
                "start_time": 77.5522727,
                "end_time": 77.6681818,
                "pitch": 77,
                "velocity": 40,
                "duration": 0.1159091,
                "tempo": 120.0
            },
            {
                "start_time": 77.6681818,
                "end_time": 78.0386364,
                "pitch": 78,
                "velocity": 40,
                "duration": 0.3704545,
                "tempo": 120.0
            },
            {
                "start_time": 78.0386364,
                "end_time": 78.2704545,
                "pitch": 73,
                "velocity": 40,
                "duration": 0.2318182,
                "tempo": 120.0
            },
            {
                "start_time": 78.2727273,
                "end_time": 78.5227273,
                "pitch": 77,
                "velocity": 40,
                "duration": 0.25,
                "tempo": 120.0
            },
            {
                "start_time": 78.525,
                "end_time": 78.7590909,
                "pitch": 73,
                "velocity": 40,
                "duration": 0.2340909,
                "tempo": 120.0
            },
            {
                "start_time": 78.7590909,
                "end_time": 78.9977273,
                "pitch": 78,
                "velocity": 40,
                "duration": 0.2386364,
                "tempo": 120.0
            },
            {
                "start_time": 78.9977273,
                "end_time": 79.1340909,
                "pitch": 73,
                "velocity": 40,
                "duration": 0.1363636,
                "tempo": 120.0
            },
            {
                "start_time": 79.1340909,
                "end_time": 79.2568182,
                "pitch": 77,
                "velocity": 40,
                "duration": 0.1227273,
                "tempo": 120.0
            },
            {
                "start_time": 79.2568182,
                "end_time": 79.3727273,
                "pitch": 77,
                "velocity": 40,
                "duration": 0.1159091,
                "tempo": 120.0
            },
            {
                "start_time": 79.3727273,
                "end_time": 79.4909091,
                "pitch": 73,
                "velocity": 40,
                "duration": 0.1181818,
                "tempo": 120.0
            },
            {
                "start_time": 79.4909091,
                "end_time": 79.6068182,
                "pitch": 77,
                "velocity": 40,
                "duration": 0.1159091,
                "tempo": 120.0
            },
            {
                "start_time": 79.6068182,
                "end_time": 79.9772727,
                "pitch": 78,
                "velocity": 40,
                "duration": 0.3704545,
                "tempo": 120.0
            },
            {
                "start_time": 79.9795455,
                "end_time": 80.2136364,
                "pitch": 73,
                "velocity": 40,
                "duration": 0.2340909,
                "tempo": 120.0
            },
            {
                "start_time": 80.2136364,
                "end_time": 80.4590909,
                "pitch": 77,
                "velocity": 40,
                "duration": 0.2454545,
                "tempo": 120.0
            },
            {
                "start_time": 80.4613636,
                "end_time": 80.6909091,
                "pitch": 73,
                "velocity": 40,
                "duration": 0.2295455,
                "tempo": 120.0
            },
            {
                "start_time": 80.6909091,
                "end_time": 80.9431818,
                "pitch": 78,
                "velocity": 40,
                "duration": 0.2522727,
                "tempo": 120.0
            },
            {
                "start_time": 80.9431818,
                "end_time": 81.0590909,
                "pitch": 73,
                "velocity": 40,
                "duration": 0.1159091,
                "tempo": 120.0
            },
            {
                "start_time": 81.0590909,
                "end_time": 81.1795455,
                "pitch": 77,
                "velocity": 40,
                "duration": 0.1204545,
                "tempo": 120.0
            },
            {
                "start_time": 81.1795455,
                "end_time": 81.2977273,
                "pitch": 77,
                "velocity": 40,
                "duration": 0.1181818,
                "tempo": 120.0
            },
            {
                "start_time": 81.2977273,
                "end_time": 81.4181818,
                "pitch": 73,
                "velocity": 40,
                "duration": 0.1204545,
                "tempo": 120.0
            },
            {
                "start_time": 81.4181818,
                "end_time": 81.5522727,
                "pitch": 77,
                "velocity": 40,
                "duration": 0.1340909,
                "tempo": 120.0
            },
            {
                "start_time": 81.5522727,
                "end_time": 81.9090909,
                "pitch": 78,
                "velocity": 40,
                "duration": 0.3568182,
                "tempo": 120.0
            },
            {
                "start_time": 81.9090909,
                "end_time": 82.1613636,
                "pitch": 73,
                "velocity": 40,
                "duration": 0.2522727,
                "tempo": 120.0
            },
            {
                "start_time": 82.1613636,
                "end_time": 82.4,
                "pitch": 77,
                "velocity": 40,
                "duration": 0.2386364,
                "tempo": 120.0
            },
            {
                "start_time": 82.4,
                "end_time": 82.6386364,
                "pitch": 73,
                "velocity": 40,
                "duration": 0.2386364,
                "tempo": 120.0
            },
            {
                "start_time": 82.6409091,
                "end_time": 82.8795455,
                "pitch": 78,
                "velocity": 40,
                "duration": 0.2386364,
                "tempo": 120.0
            },
            {
                "start_time": 82.8795455,
                "end_time": 82.9931818,
                "pitch": 73,
                "velocity": 40,
                "duration": 0.1136364,
                "tempo": 120.0
            },
            {
                "start_time": 82.9931818,
                "end_time": 83.1068182,
                "pitch": 77,
                "velocity": 40,
                "duration": 0.1136364,
                "tempo": 120.0
            },
            {
                "start_time": 83.1068182,
                "end_time": 83.225,
                "pitch": 77,
                "velocity": 40,
                "duration": 0.1181818,
                "tempo": 120.0
            },
            {
                "start_time": 83.225,
                "end_time": 83.3613636,
                "pitch": 73,
                "velocity": 40,
                "duration": 0.1363636,
                "tempo": 120.0
            },
            {
                "start_time": 83.3613636,
                "end_time": 83.4795455,
                "pitch": 77,
                "velocity": 40,
                "duration": 0.1181818,
                "tempo": 120.0
            },
            {
                "start_time": 83.4795455,
                "end_time": 83.8363636,
                "pitch": 78,
                "velocity": 40,
                "duration": 0.3568182,
                "tempo": 120.0
            },
            {
                "start_time": 83.8363636,
                "end_time": 84.0886364,
                "pitch": 73,
                "velocity": 40,
                "duration": 0.2522727,
                "tempo": 120.0
            },
            {
                "start_time": 84.0886364,
                "end_time": 84.3272727,
                "pitch": 77,
                "velocity": 40,
                "duration": 0.2386364,
                "tempo": 120.0
            },
            {
                "start_time": 84.3272727,
                "end_time": 84.5840909,
                "pitch": 73,
                "velocity": 40,
                "duration": 0.2568182,
                "tempo": 120.0
            },
            {
                "start_time": 84.5840909,
                "end_time": 84.8204545,
                "pitch": 78,
                "velocity": 40,
                "duration": 0.2363636,
                "tempo": 120.0
            },
            {
                "start_time": 84.8204545,
                "end_time": 84.9386364,
                "pitch": 73,
                "velocity": 40,
                "duration": 0.1181818,
                "tempo": 120.0
            },
            {
                "start_time": 84.9386364,
                "end_time": 85.0545455,
                "pitch": 77,
                "velocity": 40,
                "duration": 0.1159091,
                "tempo": 120.0
            }
        ],
        "Acoustic Guitar (nylon)": [
            {
                "start_time": 54.1068182,
                "end_time": 54.2204545,
                "pitch": 71,
                "velocity": 101,
                "duration": 0.1136364,
                "tempo": 120.0
            },
            {
                "start_time": 54.2227273,
                "end_time": 54.3545455,
                "pitch": 59,
                "velocity": 101,
                "duration": 0.1318182,
                "tempo": 120.0
            },
            {
                "start_time": 54.3545455,
                "end_time": 54.4704545,
                "pitch": 59,
                "velocity": 101,
                "duration": 0.1159091,
                "tempo": 120.0
            },
            {
                "start_time": 54.4704545,
                "end_time": 54.5886364,
                "pitch": 71,
                "velocity": 101,
                "duration": 0.1181818,
                "tempo": 120.0
            },
            {
                "start_time": 54.5886364,
                "end_time": 54.7045455,
                "pitch": 59,
                "velocity": 101,
                "duration": 0.1159091,
                "tempo": 120.0
            },
            {
                "start_time": 54.7045455,
                "end_time": 54.825,
                "pitch": 59,
                "velocity": 101,
                "duration": 0.1204545,
                "tempo": 120.0
            },
            {
                "start_time": 54.825,
                "end_time": 54.9568182,
                "pitch": 71,
                "velocity": 101,
                "duration": 0.1318182,
                "tempo": 120.0
            },
            {
                "start_time": 54.9568182,
                "end_time": 55.0772727,
                "pitch": 59,
                "velocity": 101,
                "duration": 0.1204545,
                "tempo": 120.0
            },
            {
                "start_time": 55.0772727,
                "end_time": 55.1954545,
                "pitch": 59,
                "velocity": 101,
                "duration": 0.1181818,
                "tempo": 120.0
            },
            {
                "start_time": 55.1954545,
                "end_time": 55.3159091,
                "pitch": 71,
                "velocity": 101,
                "duration": 0.1204545,
                "tempo": 120.0
            },
            {
                "start_time": 55.3159091,
                "end_time": 55.4340909,
                "pitch": 59,
                "velocity": 101,
                "duration": 0.1181818,
                "tempo": 120.0
            },
            {
                "start_time": 55.4340909,
                "end_time": 55.5727273,
                "pitch": 59,
                "velocity": 101,
                "duration": 0.1386364,
                "tempo": 120.0
            },
            {
                "start_time": 55.5727273,
                "end_time": 55.6886364,
                "pitch": 71,
                "velocity": 101,
                "duration": 0.1159091,
                "tempo": 120.0
            },
            {
                "start_time": 55.6886364,
                "end_time": 55.8068182,
                "pitch": 59,
                "velocity": 101,
                "duration": 0.1181818,
                "tempo": 120.0
            },
            {
                "start_time": 55.8090909,
                "end_time": 55.925,
                "pitch": 71,
                "velocity": 101,
                "duration": 0.1159091,
                "tempo": 120.0
            },
            {
                "start_time": 55.925,
                "end_time": 56.0454545,
                "pitch": 59,
                "velocity": 101,
                "duration": 0.1204545,
                "tempo": 120.0
            },
            {
                "start_time": 56.0454545,
                "end_time": 56.175,
                "pitch": 71,
                "velocity": 101,
                "duration": 0.1295455,
                "tempo": 120.0
            },
            {
                "start_time": 56.175,
                "end_time": 56.2909091,
                "pitch": 57,
                "velocity": 101,
                "duration": 0.1159091,
                "tempo": 120.0
            },
            {
                "start_time": 56.2909091,
                "end_time": 56.4045455,
                "pitch": 57,
                "velocity": 101,
                "duration": 0.1136364,
                "tempo": 120.0
            },
            {
                "start_time": 56.4045455,
                "end_time": 56.5204545,
                "pitch": 71,
                "velocity": 101,
                "duration": 0.1159091,
                "tempo": 120.0
            },
            {
                "start_time": 56.5204545,
                "end_time": 56.6340909,
                "pitch": 57,
                "velocity": 101,
                "duration": 0.1136364,
                "tempo": 120.0
            },
            {
                "start_time": 56.6340909,
                "end_time": 56.7704545,
                "pitch": 57,
                "velocity": 101,
                "duration": 0.1363636,
                "tempo": 120.0
            },
            {
                "start_time": 56.7704545,
                "end_time": 56.8863636,
                "pitch": 71,
                "velocity": 101,
                "duration": 0.1159091,
                "tempo": 120.0
            },
            {
                "start_time": 56.8863636,
                "end_time": 57.0045455,
                "pitch": 57,
                "velocity": 101,
                "duration": 0.1181818,
                "tempo": 120.0
            },
            {
                "start_time": 57.0045455,
                "end_time": 57.1227273,
                "pitch": 57,
                "velocity": 101,
                "duration": 0.1181818,
                "tempo": 120.0
            },
            {
                "start_time": 57.1227273,
                "end_time": 57.2431818,
                "pitch": 71,
                "velocity": 101,
                "duration": 0.1204545,
                "tempo": 120.0
            },
            {
                "start_time": 57.2431818,
                "end_time": 57.3795455,
                "pitch": 57,
                "velocity": 101,
                "duration": 0.1363636,
                "tempo": 120.0
            },
            {
                "start_time": 57.3795455,
                "end_time": 57.5,
                "pitch": 57,
                "velocity": 101,
                "duration": 0.1204545,
                "tempo": 120.0
            },
            {
                "start_time": 57.5,
                "end_time": 57.6159091,
                "pitch": 71,
                "velocity": 101,
                "duration": 0.1159091,
                "tempo": 120.0
            },
            {
                "start_time": 57.6159091,
                "end_time": 57.7340909,
                "pitch": 57,
                "velocity": 101,
                "duration": 0.1181818,
                "tempo": 120.0
            },
            {
                "start_time": 57.7340909,
                "end_time": 57.8522727,
                "pitch": 71,
                "velocity": 101,
                "duration": 0.1181818,
                "tempo": 120.0
            },
            {
                "start_time": 57.8522727,
                "end_time": 57.9886364,
                "pitch": 57,
                "velocity": 101,
                "duration": 0.1363636,
                "tempo": 120.0
            },
            {
                "start_time": 57.9886364,
                "end_time": 58.1045455,
                "pitch": 71,
                "velocity": 101,
                "duration": 0.1159091,
                "tempo": 120.0
            },
            {
                "start_time": 58.1045455,
                "end_time": 58.2204545,
                "pitch": 56,
                "velocity": 101,
                "duration": 0.1159091,
                "tempo": 120.0
            },
            {
                "start_time": 58.2204545,
                "end_time": 58.3363636,
                "pitch": 56,
                "velocity": 101,
                "duration": 0.1159091,
                "tempo": 120.0
            },
            {
                "start_time": 58.3363636,
                "end_time": 58.4545455,
                "pitch": 71,
                "velocity": 101,
                "duration": 0.1181818,
                "tempo": 120.0
            },
            {
                "start_time": 58.4545455,
                "end_time": 58.5840909,
                "pitch": 56,
                "velocity": 101,
                "duration": 0.1295455,
                "tempo": 120.0
            },
            {
                "start_time": 58.5840909,
                "end_time": 58.7,
                "pitch": 56,
                "velocity": 101,
                "duration": 0.1159091,
                "tempo": 120.0
            },
            {
                "start_time": 58.7022727,
                "end_time": 58.8136364,
                "pitch": 71,
                "velocity": 101,
                "duration": 0.1113636,
                "tempo": 120.0
            },
            {
                "start_time": 58.8136364,
                "end_time": 58.9318182,
                "pitch": 56,
                "velocity": 101,
                "duration": 0.1181818,
                "tempo": 120.0
            },
            {
                "start_time": 58.9318182,
                "end_time": 59.0477273,
                "pitch": 56,
                "velocity": 101,
                "duration": 0.1159091,
                "tempo": 120.0
            },
            {
                "start_time": 59.05,
                "end_time": 59.1863636,
                "pitch": 71,
                "velocity": 101,
                "duration": 0.1363636,
                "tempo": 120.0
            },
            {
                "start_time": 59.1863636,
                "end_time": 59.3068182,
                "pitch": 56,
                "velocity": 101,
                "duration": 0.1204545,
                "tempo": 120.0
            },
            {
                "start_time": 59.3068182,
                "end_time": 59.4272727,
                "pitch": 56,
                "velocity": 101,
                "duration": 0.1204545,
                "tempo": 120.0
            },
            {
                "start_time": 59.4272727,
                "end_time": 59.5409091,
                "pitch": 71,
                "velocity": 101,
                "duration": 0.1136364,
                "tempo": 120.0
            },
            {
                "start_time": 59.5431818,
                "end_time": 59.6590909,
                "pitch": 56,
                "velocity": 101,
                "duration": 0.1159091,
                "tempo": 120.0
            },
            {
                "start_time": 59.6590909,
                "end_time": 59.7931818,
                "pitch": 71,
                "velocity": 101,
                "duration": 0.1340909,
                "tempo": 120.0
            },
            {
                "start_time": 59.7931818,
                "end_time": 59.9113636,
                "pitch": 56,
                "velocity": 101,
                "duration": 0.1181818,
                "tempo": 120.0
            },
            {
                "start_time": 59.9113636,
                "end_time": 60.0272727,
                "pitch": 71,
                "velocity": 101,
                "duration": 0.1159091,
                "tempo": 120.0
            },
            {
                "start_time": 60.0272727,
                "end_time": 60.1454545,
                "pitch": 57,
                "velocity": 101,
                "duration": 0.1181818,
                "tempo": 120.0
            },
            {
                "start_time": 60.1454545,
                "end_time": 60.2636364,
                "pitch": 57,
                "velocity": 101,
                "duration": 0.1181818,
                "tempo": 120.0
            },
            {
                "start_time": 60.2636364,
                "end_time": 60.3977273,
                "pitch": 71,
                "velocity": 101,
                "duration": 0.1340909,
                "tempo": 120.0
            },
            {
                "start_time": 60.3977273,
                "end_time": 60.5159091,
                "pitch": 57,
                "velocity": 101,
                "duration": 0.1181818,
                "tempo": 120.0
            },
            {
                "start_time": 60.5159091,
                "end_time": 60.6386364,
                "pitch": 57,
                "velocity": 101,
                "duration": 0.1227273,
                "tempo": 120.0
            },
            {
                "start_time": 60.6386364,
                "end_time": 60.7568182,
                "pitch": 71,
                "velocity": 101,
                "duration": 0.1181818,
                "tempo": 120.0
            },
            {
                "start_time": 60.7568182,
                "end_time": 60.8772727,
                "pitch": 57,
                "velocity": 101,
                "duration": 0.1204545,
                "tempo": 120.0
            },
            {
                "start_time": 60.8772727,
                "end_time": 61.0068182,
                "pitch": 57,
                "velocity": 101,
                "duration": 0.1295455,
                "tempo": 120.0
            },
            {
                "start_time": 61.0068182,
                "end_time": 61.1227273,
                "pitch": 71,
                "velocity": 101,
                "duration": 0.1159091,
                "tempo": 120.0
            },
            {
                "start_time": 61.125,
                "end_time": 61.2386364,
                "pitch": 57,
                "velocity": 101,
                "duration": 0.1136364,
                "tempo": 120.0
            },
            {
                "start_time": 61.2386364,
                "end_time": 61.3522727,
                "pitch": 57,
                "velocity": 101,
                "duration": 0.1136364,
                "tempo": 120.0
            },
            {
                "start_time": 61.3522727,
                "end_time": 61.4704545,
                "pitch": 71,
                "velocity": 101,
                "duration": 0.1181818,
                "tempo": 120.0
            },
            {
                "start_time": 61.4704545,
                "end_time": 61.6045455,
                "pitch": 57,
                "velocity": 101,
                "duration": 0.1340909,
                "tempo": 120.0
            },
            {
                "start_time": 61.6045455,
                "end_time": 61.7204545,
                "pitch": 71,
                "velocity": 101,
                "duration": 0.1159091,
                "tempo": 120.0
            },
            {
                "start_time": 61.7204545,
                "end_time": 61.8386364,
                "pitch": 57,
                "velocity": 101,
                "duration": 0.1181818,
                "tempo": 120.0
            },
            {
                "start_time": 61.8409091,
                "end_time": 61.9545455,
                "pitch": 71,
                "velocity": 101,
                "duration": 0.1136364,
                "tempo": 120.0
            },
            {
                "start_time": 61.9545455,
                "end_time": 62.0727273,
                "pitch": 59,
                "velocity": 101,
                "duration": 0.1181818,
                "tempo": 120.0
            },
            {
                "start_time": 62.0727273,
                "end_time": 62.2068182,
                "pitch": 59,
                "velocity": 101,
                "duration": 0.1340909,
                "tempo": 120.0
            },
            {
                "start_time": 62.2068182,
                "end_time": 62.325,
                "pitch": 71,
                "velocity": 101,
                "duration": 0.1181818,
                "tempo": 120.0
            },
            {
                "start_time": 62.325,
                "end_time": 62.4431818,
                "pitch": 59,
                "velocity": 101,
                "duration": 0.1181818,
                "tempo": 120.0
            },
            {
                "start_time": 62.4431818,
                "end_time": 62.5636364,
                "pitch": 59,
                "velocity": 101,
                "duration": 0.1204545,
                "tempo": 120.0
            },
            {
                "start_time": 62.5659091,
                "end_time": 62.6818182,
                "pitch": 71,
                "velocity": 101,
                "duration": 0.1159091,
                "tempo": 120.0
            },
            {
                "start_time": 62.6818182,
                "end_time": 62.8204545,
                "pitch": 59,
                "velocity": 101,
                "duration": 0.1386364,
                "tempo": 120.0
            },
            {
                "start_time": 62.8204545,
                "end_time": 62.9363636,
                "pitch": 59,
                "velocity": 101,
                "duration": 0.1159091,
                "tempo": 120.0
            },
            {
                "start_time": 62.9386364,
                "end_time": 63.0568182,
                "pitch": 71,
                "velocity": 101,
                "duration": 0.1181818,
                "tempo": 120.0
            },
            {
                "start_time": 63.0568182,
                "end_time": 63.1727273,
                "pitch": 59,
                "velocity": 101,
                "duration": 0.1159091,
                "tempo": 120.0
            },
            {
                "start_time": 63.1727273,
                "end_time": 63.2909091,
                "pitch": 59,
                "velocity": 101,
                "duration": 0.1181818,
                "tempo": 120.0
            },
            {
                "start_time": 63.2909091,
                "end_time": 63.4227273,
                "pitch": 71,
                "velocity": 101,
                "duration": 0.1318182,
                "tempo": 120.0
            },
            {
                "start_time": 63.4227273,
                "end_time": 63.5386364,
                "pitch": 59,
                "velocity": 101,
                "duration": 0.1159091,
                "tempo": 120.0
            },
            {
                "start_time": 63.5386364,
                "end_time": 63.6545455,
                "pitch": 71,
                "velocity": 101,
                "duration": 0.1159091,
                "tempo": 120.0
            },
            {
                "start_time": 63.6545455,
                "end_time": 63.7704545,
                "pitch": 59,
                "velocity": 101,
                "duration": 0.1159091,
                "tempo": 120.0
            },
            {
                "start_time": 63.7704545,
                "end_time": 63.8840909,
                "pitch": 71,
                "velocity": 101,
                "duration": 0.1136364,
                "tempo": 120.0
            },
            {
                "start_time": 63.8840909,
                "end_time": 64.0181818,
                "pitch": 57,
                "velocity": 101,
                "duration": 0.1340909,
                "tempo": 120.0
            },
            {
                "start_time": 64.0181818,
                "end_time": 64.1340909,
                "pitch": 57,
                "velocity": 101,
                "duration": 0.1159091,
                "tempo": 120.0
            },
            {
                "start_time": 64.1340909,
                "end_time": 64.2522727,
                "pitch": 71,
                "velocity": 101,
                "duration": 0.1181818,
                "tempo": 120.0
            },
            {
                "start_time": 64.2522727,
                "end_time": 64.3704545,
                "pitch": 57,
                "velocity": 101,
                "duration": 0.1181818,
                "tempo": 120.0
            },
            {
                "start_time": 64.3704545,
                "end_time": 64.4909091,
                "pitch": 57,
                "velocity": 101,
                "duration": 0.1204545,
                "tempo": 120.0
            },
            {
                "start_time": 64.4909091,
                "end_time": 64.6272727,
                "pitch": 71,
                "velocity": 101,
                "duration": 0.1363636,
                "tempo": 120.0
            },
            {
                "start_time": 64.6272727,
                "end_time": 64.7477273,
                "pitch": 57,
                "velocity": 101,
                "duration": 0.1204545,
                "tempo": 120.0
            },
            {
                "start_time": 64.7477273,
                "end_time": 64.8636364,
                "pitch": 57,
                "velocity": 101,
                "duration": 0.1159091,
                "tempo": 120.0
            },
            {
                "start_time": 64.8636364,
                "end_time": 64.9818182,
                "pitch": 71,
                "velocity": 101,
                "duration": 0.1181818,
                "tempo": 120.0
            },
            {
                "start_time": 64.9818182,
                "end_time": 65.0977273,
                "pitch": 57,
                "velocity": 101,
                "duration": 0.1159091,
                "tempo": 120.0
            },
            {
                "start_time": 65.0977273,
                "end_time": 65.2318182,
                "pitch": 57,
                "velocity": 101,
                "duration": 0.1340909,
                "tempo": 120.0
            },
            {
                "start_time": 65.2318182,
                "end_time": 65.35,
                "pitch": 71,
                "velocity": 101,
                "duration": 0.1181818,
                "tempo": 120.0
            },
            {
                "start_time": 65.35,
                "end_time": 65.4659091,
                "pitch": 57,
                "velocity": 101,
                "duration": 0.1159091,
                "tempo": 120.0
            },
            {
                "start_time": 65.4681818,
                "end_time": 65.5863636,
                "pitch": 71,
                "velocity": 101,
                "duration": 0.1181818,
                "tempo": 120.0
            },
            {
                "start_time": 65.5863636,
                "end_time": 65.7045455,
                "pitch": 57,
                "velocity": 101,
                "duration": 0.1181818,
                "tempo": 120.0
            },
            {
                "start_time": 65.7045455,
                "end_time": 65.8340909,
                "pitch": 71,
                "velocity": 101,
                "duration": 0.1295455,
                "tempo": 120.0
            },
            {
                "start_time": 65.8340909,
                "end_time": 65.95,
                "pitch": 56,
                "velocity": 101,
                "duration": 0.1159091,
                "tempo": 120.0
            },
            {
                "start_time": 65.95,
                "end_time": 66.0636364,
                "pitch": 56,
                "velocity": 101,
                "duration": 0.1136364,
                "tempo": 120.0
            },
            {
                "start_time": 66.0636364,
                "end_time": 66.1795455,
                "pitch": 71,
                "velocity": 101,
                "duration": 0.1159091,
                "tempo": 120.0
            },
            {
                "start_time": 66.1795455,
                "end_time": 66.2977273,
                "pitch": 56,
                "velocity": 101,
                "duration": 0.1181818,
                "tempo": 120.0
            },
            {
                "start_time": 66.2977273,
                "end_time": 66.4363636,
                "pitch": 56,
                "velocity": 101,
                "duration": 0.1386364,
                "tempo": 120.0
            },
            {
                "start_time": 66.4363636,
                "end_time": 66.5545455,
                "pitch": 71,
                "velocity": 101,
                "duration": 0.1181818,
                "tempo": 120.0
            },
            {
                "start_time": 66.5545455,
                "end_time": 66.675,
                "pitch": 56,
                "velocity": 101,
                "duration": 0.1204545,
                "tempo": 120.0
            },
            {
                "start_time": 66.675,
                "end_time": 66.7909091,
                "pitch": 56,
                "velocity": 101,
                "duration": 0.1159091,
                "tempo": 120.0
            },
            {
                "start_time": 66.7909091,
                "end_time": 66.9090909,
                "pitch": 71,
                "velocity": 101,
                "duration": 0.1181818,
                "tempo": 120.0
            },
            {
                "start_time": 66.9113636,
                "end_time": 67.0431818,
                "pitch": 56,
                "velocity": 101,
                "duration": 0.1318182,
                "tempo": 120.0
            },
            {
                "start_time": 67.0431818,
                "end_time": 67.1613636,
                "pitch": 56,
                "velocity": 101,
                "duration": 0.1181818,
                "tempo": 120.0
            },
            {
                "start_time": 67.1613636,
                "end_time": 67.2795455,
                "pitch": 71,
                "velocity": 101,
                "duration": 0.1181818,
                "tempo": 120.0
            },
            {
                "start_time": 67.2795455,
                "end_time": 67.3977273,
                "pitch": 56,
                "velocity": 101,
                "duration": 0.1181818,
                "tempo": 120.0
            },
            {
                "start_time": 67.3977273,
                "end_time": 67.5159091,
                "pitch": 71,
                "velocity": 101,
                "duration": 0.1181818,
                "tempo": 120.0
            },
            {
                "start_time": 67.5159091,
                "end_time": 67.6522727,
                "pitch": 56,
                "velocity": 101,
                "duration": 0.1363636,
                "tempo": 120.0
            },
            {
                "start_time": 67.6522727,
                "end_time": 67.7681818,
                "pitch": 71,
                "velocity": 101,
                "duration": 0.1159091,
                "tempo": 120.0
            },
            {
                "start_time": 67.7681818,
                "end_time": 67.8863636,
                "pitch": 57,
                "velocity": 101,
                "duration": 0.1181818,
                "tempo": 120.0
            },
            {
                "start_time": 67.8863636,
                "end_time": 68.0022727,
                "pitch": 57,
                "velocity": 101,
                "duration": 0.1159091,
                "tempo": 120.0
            },
            {
                "start_time": 68.0022727,
                "end_time": 68.1204545,
                "pitch": 71,
                "velocity": 101,
                "duration": 0.1181818,
                "tempo": 120.0
            },
            {
                "start_time": 68.1204545,
                "end_time": 68.2522727,
                "pitch": 57,
                "velocity": 101,
                "duration": 0.1318182,
                "tempo": 120.0
            },
            {
                "start_time": 68.2545455,
                "end_time": 68.3727273,
                "pitch": 57,
                "velocity": 101,
                "duration": 0.1181818,
                "tempo": 120.0
            },
            {
                "start_time": 68.3727273,
                "end_time": 68.4863636,
                "pitch": 71,
                "velocity": 101,
                "duration": 0.1136364,
                "tempo": 120.0
            },
            {
                "start_time": 68.4863636,
                "end_time": 68.6045455,
                "pitch": 57,
                "velocity": 101,
                "duration": 0.1181818,
                "tempo": 120.0
            },
            {
                "start_time": 68.6045455,
                "end_time": 68.7227273,
                "pitch": 57,
                "velocity": 101,
                "duration": 0.1181818,
                "tempo": 120.0
            },
            {
                "start_time": 68.7227273,
                "end_time": 68.8568182,
                "pitch": 71,
                "velocity": 101,
                "duration": 0.1340909,
                "tempo": 120.0
            },
            {
                "start_time": 68.8568182,
                "end_time": 68.975,
                "pitch": 57,
                "velocity": 101,
                "duration": 0.1181818,
                "tempo": 120.0
            },
            {
                "start_time": 68.975,
                "end_time": 69.0931818,
                "pitch": 57,
                "velocity": 101,
                "duration": 0.1181818,
                "tempo": 120.0
            },
            {
                "start_time": 69.0931818,
                "end_time": 69.2113636,
                "pitch": 71,
                "velocity": 101,
                "duration": 0.1181818,
                "tempo": 120.0
            },
            {
                "start_time": 69.2136364,
                "end_time": 69.3318182,
                "pitch": 57,
                "velocity": 101,
                "duration": 0.1181818,
                "tempo": 120.0
            },
            {
                "start_time": 69.3318182,
                "end_time": 69.4704545,
                "pitch": 71,
                "velocity": 101,
                "duration": 0.1386364,
                "tempo": 120.0
            },
            {
                "start_time": 69.4704545,
                "end_time": 69.5909091,
                "pitch": 57,
                "velocity": 101,
                "duration": 0.1204545,
                "tempo": 120.0
            },
            {
                "start_time": 69.5909091,
                "end_time": 69.7022727,
                "pitch": 73,
                "velocity": 101,
                "duration": 0.1113636,
                "tempo": 120.0
            },
            {
                "start_time": 69.7022727,
                "end_time": 69.8181818,
                "pitch": 61,
                "velocity": 101,
                "duration": 0.1159091,
                "tempo": 120.0
            },
            {
                "start_time": 69.8181818,
                "end_time": 69.9318182,
                "pitch": 61,
                "velocity": 101,
                "duration": 0.1136364,
                "tempo": 120.0
            },
            {
                "start_time": 69.9318182,
                "end_time": 70.0636364,
                "pitch": 73,
                "velocity": 101,
                "duration": 0.1318182,
                "tempo": 120.0
            },
            {
                "start_time": 70.0659091,
                "end_time": 70.1840909,
                "pitch": 61,
                "velocity": 101,
                "duration": 0.1181818,
                "tempo": 120.0
            },
            {
                "start_time": 70.1840909,
                "end_time": 70.3045455,
                "pitch": 61,
                "velocity": 101,
                "duration": 0.1204545,
                "tempo": 120.0
            },
            {
                "start_time": 70.3045455,
                "end_time": 70.4227273,
                "pitch": 73,
                "velocity": 101,
                "duration": 0.1181818,
                "tempo": 120.0
            },
            {
                "start_time": 70.4227273,
                "end_time": 70.5431818,
                "pitch": 61,
                "velocity": 101,
                "duration": 0.1204545,
                "tempo": 120.0
            },
            {
                "start_time": 70.5431818,
                "end_time": 70.6727273,
                "pitch": 61,
                "velocity": 101,
                "duration": 0.1295455,
                "tempo": 120.0
            },
            {
                "start_time": 70.675,
                "end_time": 70.7909091,
                "pitch": 73,
                "velocity": 101,
                "duration": 0.1159091,
                "tempo": 120.0
            },
            {
                "start_time": 70.7909091,
                "end_time": 70.9045455,
                "pitch": 61,
                "velocity": 101,
                "duration": 0.1136364,
                "tempo": 120.0
            },
            {
                "start_time": 70.9045455,
                "end_time": 71.0204545,
                "pitch": 61,
                "velocity": 101,
                "duration": 0.1159091,
                "tempo": 120.0
            },
            {
                "start_time": 71.0204545,
                "end_time": 71.1363636,
                "pitch": 73,
                "velocity": 101,
                "duration": 0.1159091,
                "tempo": 120.0
            },
            {
                "start_time": 71.1363636,
                "end_time": 71.2727273,
                "pitch": 61,
                "velocity": 101,
                "duration": 0.1363636,
                "tempo": 120.0
            },
            {
                "start_time": 71.2727273,
                "end_time": 71.3909091,
                "pitch": 73,
                "velocity": 101,
                "duration": 0.1181818,
                "tempo": 120.0
            },
            {
                "start_time": 71.3909091,
                "end_time": 71.5090909,
                "pitch": 61,
                "velocity": 101,
                "duration": 0.1181818,
                "tempo": 120.0
            },
            {
                "start_time": 71.5090909,
                "end_time": 71.625,
                "pitch": 73,
                "velocity": 101,
                "duration": 0.1159091,
                "tempo": 120.0
            },
            {
                "start_time": 71.625,
                "end_time": 71.7409091,
                "pitch": 59,
                "velocity": 101,
                "duration": 0.1159091,
                "tempo": 120.0
            },
            {
                "start_time": 71.7409091,
                "end_time": 71.875,
                "pitch": 59,
                "velocity": 101,
                "duration": 0.1340909,
                "tempo": 120.0
            },
            {
                "start_time": 71.875,
                "end_time": 71.9909091,
                "pitch": 73,
                "velocity": 101,
                "duration": 0.1159091,
                "tempo": 120.0
            },
            {
                "start_time": 71.9909091,
                "end_time": 72.1090909,
                "pitch": 59,
                "velocity": 101,
                "duration": 0.1181818,
                "tempo": 120.0
            },
            {
                "start_time": 72.1090909,
                "end_time": 72.2318182,
                "pitch": 59,
                "velocity": 101,
                "duration": 0.1227273,
                "tempo": 120.0
            },
            {
                "start_time": 72.2318182,
                "end_time": 72.35,
                "pitch": 73,
                "velocity": 101,
                "duration": 0.1181818,
                "tempo": 120.0
            },
            {
                "start_time": 72.35,
                "end_time": 72.4863636,
                "pitch": 59,
                "velocity": 101,
                "duration": 0.1363636,
                "tempo": 120.0
            },
            {
                "start_time": 72.4886364,
                "end_time": 72.6022727,
                "pitch": 59,
                "velocity": 101,
                "duration": 0.1136364,
                "tempo": 120.0
            },
            {
                "start_time": 72.6022727,
                "end_time": 72.7204545,
                "pitch": 73,
                "velocity": 101,
                "duration": 0.1181818,
                "tempo": 120.0
            },
            {
                "start_time": 72.7204545,
                "end_time": 72.8363636,
                "pitch": 59,
                "velocity": 101,
                "duration": 0.1159091,
                "tempo": 120.0
            },
            {
                "start_time": 72.8363636,
                "end_time": 72.9545455,
                "pitch": 59,
                "velocity": 101,
                "duration": 0.1181818,
                "tempo": 120.0
            },
            {
                "start_time": 72.9545455,
                "end_time": 73.0863636,
                "pitch": 73,
                "velocity": 101,
                "duration": 0.1318182,
                "tempo": 120.0
            },
            {
                "start_time": 73.0863636,
                "end_time": 73.2,
                "pitch": 59,
                "velocity": 101,
                "duration": 0.1136364,
                "tempo": 120.0
            },
            {
                "start_time": 73.2,
                "end_time": 73.3159091,
                "pitch": 73,
                "velocity": 101,
                "duration": 0.1159091,
                "tempo": 120.0
            },
            {
                "start_time": 73.3159091,
                "end_time": 73.4318182,
                "pitch": 59,
                "velocity": 101,
                "duration": 0.1159091,
                "tempo": 120.0
            },
            {
                "start_time": 73.4318182,
                "end_time": 73.5477273,
                "pitch": 73,
                "velocity": 101,
                "duration": 0.1159091,
                "tempo": 120.0
            },
            {
                "start_time": 73.5477273,
                "end_time": 73.6840909,
                "pitch": 58,
                "velocity": 101,
                "duration": 0.1363636,
                "tempo": 120.0
            },
            {
                "start_time": 73.6840909,
                "end_time": 73.8,
                "pitch": 58,
                "velocity": 101,
                "duration": 0.1159091,
                "tempo": 120.0
            },
            {
                "start_time": 73.8,
                "end_time": 73.9181818,
                "pitch": 73,
                "velocity": 101,
                "duration": 0.1181818,
                "tempo": 120.0
            },
            {
                "start_time": 73.9181818,
                "end_time": 74.0363636,
                "pitch": 58,
                "velocity": 101,
                "duration": 0.1181818,
                "tempo": 120.0
            },
            {
                "start_time": 74.0363636,
                "end_time": 74.1590909,
                "pitch": 58,
                "velocity": 101,
                "duration": 0.1227273,
                "tempo": 120.0
            },
            {
                "start_time": 74.1590909,
                "end_time": 74.2931818,
                "pitch": 73,
                "velocity": 101,
                "duration": 0.1340909,
                "tempo": 120.0
            },
            {
                "start_time": 74.2931818,
                "end_time": 74.4136364,
                "pitch": 58,
                "velocity": 101,
                "duration": 0.1204545,
                "tempo": 120.0
            },
            {
                "start_time": 74.4136364,
                "end_time": 74.5295455,
                "pitch": 58,
                "velocity": 101,
                "duration": 0.1159091,
                "tempo": 120.0
            },
            {
                "start_time": 74.5295455,
                "end_time": 74.6477273,
                "pitch": 73,
                "velocity": 101,
                "duration": 0.1181818,
                "tempo": 120.0
            },
            {
                "start_time": 74.6477273,
                "end_time": 74.7636364,
                "pitch": 58,
                "velocity": 101,
                "duration": 0.1159091,
                "tempo": 120.0
            },
            {
                "start_time": 74.7636364,
                "end_time": 74.8977273,
                "pitch": 58,
                "velocity": 101,
                "duration": 0.1340909,
                "tempo": 120.0
            },
            {
                "start_time": 74.8977273,
                "end_time": 75.0159091,
                "pitch": 73,
                "velocity": 101,
                "duration": 0.1181818,
                "tempo": 120.0
            },
            {
                "start_time": 75.0159091,
                "end_time": 75.1340909,
                "pitch": 58,
                "velocity": 101,
                "duration": 0.1181818,
                "tempo": 120.0
            },
            {
                "start_time": 75.1340909,
                "end_time": 75.2522727,
                "pitch": 73,
                "velocity": 101,
                "duration": 0.1181818,
                "tempo": 120.0
            },
            {
                "start_time": 75.2522727,
                "end_time": 75.3704545,
                "pitch": 58,
                "velocity": 101,
                "duration": 0.1181818,
                "tempo": 120.0
            },
            {
                "start_time": 75.3704545,
                "end_time": 75.5,
                "pitch": 73,
                "velocity": 101,
                "duration": 0.1295455,
                "tempo": 120.0
            },
            {
                "start_time": 75.5,
                "end_time": 75.6159091,
                "pitch": 59,
                "velocity": 101,
                "duration": 0.1159091,
                "tempo": 120.0
            },
            {
                "start_time": 75.6159091,
                "end_time": 75.7295455,
                "pitch": 59,
                "velocity": 101,
                "duration": 0.1136364,
                "tempo": 120.0
            },
            {
                "start_time": 75.7295455,
                "end_time": 75.8454545,
                "pitch": 73,
                "velocity": 101,
                "duration": 0.1159091,
                "tempo": 120.0
            },
            {
                "start_time": 75.8454545,
                "end_time": 75.9636364,
                "pitch": 59,
                "velocity": 101,
                "duration": 0.1181818,
                "tempo": 120.0
            },
            {
                "start_time": 75.9636364,
                "end_time": 76.1022727,
                "pitch": 59,
                "velocity": 101,
                "duration": 0.1386364,
                "tempo": 120.0
            },
            {
                "start_time": 76.1022727,
                "end_time": 76.2204545,
                "pitch": 73,
                "velocity": 101,
                "duration": 0.1181818,
                "tempo": 120.0
            },
            {
                "start_time": 76.2204545,
                "end_time": 76.3409091,
                "pitch": 59,
                "velocity": 101,
                "duration": 0.1204545,
                "tempo": 120.0
            },
            {
                "start_time": 76.3409091,
                "end_time": 76.4568182,
                "pitch": 59,
                "velocity": 101,
                "duration": 0.1159091,
                "tempo": 120.0
            },
            {
                "start_time": 76.4590909,
                "end_time": 76.5772727,
                "pitch": 73,
                "velocity": 101,
                "duration": 0.1181818,
                "tempo": 120.0
            },
            {
                "start_time": 76.5772727,
                "end_time": 76.7113636,
                "pitch": 59,
                "velocity": 101,
                "duration": 0.1340909,
                "tempo": 120.0
            },
            {
                "start_time": 76.7113636,
                "end_time": 76.8295455,
                "pitch": 59,
                "velocity": 101,
                "duration": 0.1181818,
                "tempo": 120.0
            },
            {
                "start_time": 76.8295455,
                "end_time": 76.9477273,
                "pitch": 73,
                "velocity": 101,
                "duration": 0.1181818,
                "tempo": 120.0
            },
            {
                "start_time": 76.9477273,
                "end_time": 77.0636364,
                "pitch": 59,
                "velocity": 101,
                "duration": 0.1159091,
                "tempo": 120.0
            },
            {
                "start_time": 77.0636364,
                "end_time": 77.1818182,
                "pitch": 73,
                "velocity": 101,
                "duration": 0.1181818,
                "tempo": 120.0
            },
            {
                "start_time": 77.1840909,
                "end_time": 77.3181818,
                "pitch": 59,
                "velocity": 101,
                "duration": 0.1340909,
                "tempo": 120.0
            },
            {
                "start_time": 77.3204545,
                "end_time": 77.4340909,
                "pitch": 73,
                "velocity": 101,
                "duration": 0.1136364,
                "tempo": 120.0
            },
            {
                "start_time": 77.4340909,
                "end_time": 77.5522727,
                "pitch": 61,
                "velocity": 101,
                "duration": 0.1181818,
                "tempo": 120.0
            },
            {
                "start_time": 77.5522727,
                "end_time": 77.6681818,
                "pitch": 61,
                "velocity": 101,
                "duration": 0.1159091,
                "tempo": 120.0
            },
            {
                "start_time": 77.6704545,
                "end_time": 77.7886364,
                "pitch": 73,
                "velocity": 101,
                "duration": 0.1181818,
                "tempo": 120.0
            },
            {
                "start_time": 77.7886364,
                "end_time": 77.9181818,
                "pitch": 61,
                "velocity": 101,
                "duration": 0.1295455,
                "tempo": 120.0
            },
            {
                "start_time": 77.9204545,
                "end_time": 78.0386364,
                "pitch": 61,
                "velocity": 101,
                "duration": 0.1181818,
                "tempo": 120.0
            },
            {
                "start_time": 78.0386364,
                "end_time": 78.1545455,
                "pitch": 73,
                "velocity": 101,
                "duration": 0.1159091,
                "tempo": 120.0
            },
            {
                "start_time": 78.1545455,
                "end_time": 78.2727273,
                "pitch": 61,
                "velocity": 101,
                "duration": 0.1181818,
                "tempo": 120.0
            },
            {
                "start_time": 78.2727273,
                "end_time": 78.3886364,
                "pitch": 61,
                "velocity": 101,
                "duration": 0.1159091,
                "tempo": 120.0
            },
            {
                "start_time": 78.3886364,
                "end_time": 78.525,
                "pitch": 73,
                "velocity": 101,
                "duration": 0.1363636,
                "tempo": 120.0
            },
            {
                "start_time": 78.525,
                "end_time": 78.6409091,
                "pitch": 61,
                "velocity": 101,
                "duration": 0.1159091,
                "tempo": 120.0
            },
            {
                "start_time": 78.6409091,
                "end_time": 78.7590909,
                "pitch": 61,
                "velocity": 101,
                "duration": 0.1181818,
                "tempo": 120.0
            },
            {
                "start_time": 78.7590909,
                "end_time": 78.8772727,
                "pitch": 73,
                "velocity": 101,
                "duration": 0.1181818,
                "tempo": 120.0
            },
            {
                "start_time": 78.8772727,
                "end_time": 78.9977273,
                "pitch": 61,
                "velocity": 101,
                "duration": 0.1204545,
                "tempo": 120.0
            },
            {
                "start_time": 79.0,
                "end_time": 79.1340909,
                "pitch": 73,
                "velocity": 101,
                "duration": 0.1340909,
                "tempo": 120.0
            },
            {
                "start_time": 79.1363636,
                "end_time": 79.2568182,
                "pitch": 61,
                "velocity": 101,
                "duration": 0.1204545,
                "tempo": 120.0
            },
            {
                "start_time": 79.2568182,
                "end_time": 79.3727273,
                "pitch": 73,
                "velocity": 101,
                "duration": 0.1159091,
                "tempo": 120.0
            },
            {
                "start_time": 79.3727273,
                "end_time": 79.4909091,
                "pitch": 59,
                "velocity": 101,
                "duration": 0.1181818,
                "tempo": 120.0
            },
            {
                "start_time": 79.4909091,
                "end_time": 79.6068182,
                "pitch": 59,
                "velocity": 101,
                "duration": 0.1159091,
                "tempo": 120.0
            },
            {
                "start_time": 79.6090909,
                "end_time": 79.7431818,
                "pitch": 73,
                "velocity": 101,
                "duration": 0.1340909,
                "tempo": 120.0
            },
            {
                "start_time": 79.7431818,
                "end_time": 79.8590909,
                "pitch": 59,
                "velocity": 101,
                "duration": 0.1159091,
                "tempo": 120.0
            },
            {
                "start_time": 79.8590909,
                "end_time": 79.9795455,
                "pitch": 59,
                "velocity": 101,
                "duration": 0.1204545,
                "tempo": 120.0
            },
            {
                "start_time": 79.9795455,
                "end_time": 80.0954545,
                "pitch": 73,
                "velocity": 101,
                "duration": 0.1159091,
                "tempo": 120.0
            },
            {
                "start_time": 80.0954545,
                "end_time": 80.2136364,
                "pitch": 59,
                "velocity": 101,
                "duration": 0.1181818,
                "tempo": 120.0
            },
            {
                "start_time": 80.2136364,
                "end_time": 80.3431818,
                "pitch": 59,
                "velocity": 101,
                "duration": 0.1295455,
                "tempo": 120.0
            },
            {
                "start_time": 80.3454545,
                "end_time": 80.4613636,
                "pitch": 73,
                "velocity": 101,
                "duration": 0.1159091,
                "tempo": 120.0
            },
            {
                "start_time": 80.4613636,
                "end_time": 80.575,
                "pitch": 59,
                "velocity": 101,
                "duration": 0.1136364,
                "tempo": 120.0
            },
            {
                "start_time": 80.575,
                "end_time": 80.6909091,
                "pitch": 59,
                "velocity": 101,
                "duration": 0.1159091,
                "tempo": 120.0
            },
            {
                "start_time": 80.6909091,
                "end_time": 80.8068182,
                "pitch": 73,
                "velocity": 101,
                "duration": 0.1159091,
                "tempo": 120.0
            },
            {
                "start_time": 80.8068182,
                "end_time": 80.9431818,
                "pitch": 59,
                "velocity": 101,
                "duration": 0.1363636,
                "tempo": 120.0
            },
            {
                "start_time": 80.9431818,
                "end_time": 81.0590909,
                "pitch": 73,
                "velocity": 101,
                "duration": 0.1159091,
                "tempo": 120.0
            },
            {
                "start_time": 81.0613636,
                "end_time": 81.1795455,
                "pitch": 59,
                "velocity": 101,
                "duration": 0.1181818,
                "tempo": 120.0
            },
            {
                "start_time": 81.1795455,
                "end_time": 81.2977273,
                "pitch": 73,
                "velocity": 101,
                "duration": 0.1181818,
                "tempo": 120.0
            },
            {
                "start_time": 81.2977273,
                "end_time": 81.4181818,
                "pitch": 58,
                "velocity": 101,
                "duration": 0.1204545,
                "tempo": 120.0
            },
            {
                "start_time": 81.4181818,
                "end_time": 81.5545455,
                "pitch": 58,
                "velocity": 101,
                "duration": 0.1363636,
                "tempo": 120.0
            },
            {
                "start_time": 81.5545455,
                "end_time": 81.675,
                "pitch": 73,
                "velocity": 101,
                "duration": 0.1204545,
                "tempo": 120.0
            },
            {
                "start_time": 81.675,
                "end_time": 81.7886364,
                "pitch": 58,
                "velocity": 101,
                "duration": 0.1136364,
                "tempo": 120.0
            },
            {
                "start_time": 81.7909091,
                "end_time": 81.9090909,
                "pitch": 58,
                "velocity": 101,
                "duration": 0.1181818,
                "tempo": 120.0
            },
            {
                "start_time": 81.9090909,
                "end_time": 82.025,
                "pitch": 73,
                "velocity": 101,
                "duration": 0.1159091,
                "tempo": 120.0
            },
            {
                "start_time": 82.0272727,
                "end_time": 82.1613636,
                "pitch": 58,
                "velocity": 101,
                "duration": 0.1340909,
                "tempo": 120.0
            },
            {
                "start_time": 82.1613636,
                "end_time": 82.2795455,
                "pitch": 58,
                "velocity": 101,
                "duration": 0.1181818,
                "tempo": 120.0
            },
            {
                "start_time": 82.2795455,
                "end_time": 82.4022727,
                "pitch": 73,
                "velocity": 101,
                "duration": 0.1227273,
                "tempo": 120.0
            },
            {
                "start_time": 82.4022727,
                "end_time": 82.5204545,
                "pitch": 58,
                "velocity": 101,
                "duration": 0.1181818,
                "tempo": 120.0
            },
            {
                "start_time": 82.5204545,
                "end_time": 82.6409091,
                "pitch": 58,
                "velocity": 101,
                "duration": 0.1204545,
                "tempo": 120.0
            },
            {
                "start_time": 82.6409091,
                "end_time": 82.7681818,
                "pitch": 73,
                "velocity": 101,
                "duration": 0.1272727,
                "tempo": 120.0
            },
            {
                "start_time": 82.7681818,
                "end_time": 82.8818182,
                "pitch": 58,
                "velocity": 101,
                "duration": 0.1136364,
                "tempo": 120.0
            },
            {
                "start_time": 82.8818182,
                "end_time": 82.9931818,
                "pitch": 73,
                "velocity": 101,
                "duration": 0.1113636,
                "tempo": 120.0
            },
            {
                "start_time": 82.9931818,
                "end_time": 83.1068182,
                "pitch": 58,
                "velocity": 101,
                "duration": 0.1136364,
                "tempo": 120.0
            },
            {
                "start_time": 83.1068182,
                "end_time": 83.225,
                "pitch": 73,
                "velocity": 101,
                "duration": 0.1181818,
                "tempo": 120.0
            },
            {
                "start_time": 83.225,
                "end_time": 83.3613636,
                "pitch": 59,
                "velocity": 101,
                "duration": 0.1363636,
                "tempo": 120.0
            },
            {
                "start_time": 83.3613636,
                "end_time": 83.4818182,
                "pitch": 59,
                "velocity": 101,
                "duration": 0.1204545,
                "tempo": 120.0
            },
            {
                "start_time": 83.4818182,
                "end_time": 83.6022727,
                "pitch": 73,
                "velocity": 101,
                "duration": 0.1204545,
                "tempo": 120.0
            },
            {
                "start_time": 83.6022727,
                "end_time": 83.7159091,
                "pitch": 59,
                "velocity": 101,
                "duration": 0.1136364,
                "tempo": 120.0
            },
            {
                "start_time": 83.7159091,
                "end_time": 83.8363636,
                "pitch": 59,
                "velocity": 101,
                "duration": 0.1204545,
                "tempo": 120.0
            },
            {
                "start_time": 83.8363636,
                "end_time": 83.9704545,
                "pitch": 73,
                "velocity": 101,
                "duration": 0.1340909,
                "tempo": 120.0
            },
            {
                "start_time": 83.9704545,
                "end_time": 84.0886364,
                "pitch": 59,
                "velocity": 101,
                "duration": 0.1181818,
                "tempo": 120.0
            },
            {
                "start_time": 84.0886364,
                "end_time": 84.2068182,
                "pitch": 59,
                "velocity": 101,
                "duration": 0.1181818,
                "tempo": 120.0
            },
            {
                "start_time": 84.2068182,
                "end_time": 84.3295455,
                "pitch": 73,
                "velocity": 101,
                "duration": 0.1227273,
                "tempo": 120.0
            },
            {
                "start_time": 84.3295455,
                "end_time": 84.4477273,
                "pitch": 59,
                "velocity": 101,
                "duration": 0.1181818,
                "tempo": 120.0
            },
            {
                "start_time": 84.4477273,
                "end_time": 84.5840909,
                "pitch": 59,
                "velocity": 101,
                "duration": 0.1363636,
                "tempo": 120.0
            },
            {
                "start_time": 84.5840909,
                "end_time": 84.7022727,
                "pitch": 73,
                "velocity": 101,
                "duration": 0.1181818,
                "tempo": 120.0
            },
            {
                "start_time": 84.7022727,
                "end_time": 84.8204545,
                "pitch": 59,
                "velocity": 101,
                "duration": 0.1181818,
                "tempo": 120.0
            },
            {
                "start_time": 84.8204545,
                "end_time": 84.9386364,
                "pitch": 73,
                "velocity": 101,
                "duration": 0.1181818,
                "tempo": 120.0
            },
            {
                "start_time": 84.9386364,
                "end_time": 85.0545455,
                "pitch": 59,
                "velocity": 101,
                "duration": 0.1159091,
                "tempo": 120.0
            }
        ],
        "Vibraphone": [
            {
                "start_time": 0.0113636,
                "end_time": 0.1227273,
                "pitch": 67,
                "velocity": 80,
                "duration": 0.1113636,
                "tempo": 120.0
            },
            {
                "start_time": 0.125,
                "end_time": 0.2409091,
                "pitch": 52,
                "velocity": 80,
                "duration": 0.1159091,
                "tempo": 120.0
            },
            {
                "start_time": 0.2431818,
                "end_time": 0.3590909,
                "pitch": 52,
                "velocity": 80,
                "duration": 0.1159091,
                "tempo": 120.0
            },
            {
                "start_time": 0.3590909,
                "end_time": 0.4772727,
                "pitch": 67,
                "velocity": 80,
                "duration": 0.1181818,
                "tempo": 120.0
            },
            {
                "start_time": 0.4772727,
                "end_time": 0.6045455,
                "pitch": 52,
                "velocity": 80,
                "duration": 0.1272727,
                "tempo": 120.0
            },
            {
                "start_time": 0.6045455,
                "end_time": 0.7181818,
                "pitch": 52,
                "velocity": 80,
                "duration": 0.1136364,
                "tempo": 120.0
            },
            {
                "start_time": 0.7181818,
                "end_time": 0.8295455,
                "pitch": 67,
                "velocity": 80,
                "duration": 0.1113636,
                "tempo": 120.0
            },
            {
                "start_time": 0.8295455,
                "end_time": 0.9431818,
                "pitch": 52,
                "velocity": 80,
                "duration": 0.1136364,
                "tempo": 120.0
            },
            {
                "start_time": 0.9431818,
                "end_time": 1.0590909,
                "pitch": 52,
                "velocity": 80,
                "duration": 0.1159091,
                "tempo": 120.0
            },
            {
                "start_time": 1.0590909,
                "end_time": 1.1931818,
                "pitch": 67,
                "velocity": 80,
                "duration": 0.1340909,
                "tempo": 120.0
            },
            {
                "start_time": 1.1931818,
                "end_time": 1.3090909,
                "pitch": 52,
                "velocity": 80,
                "duration": 0.1159091,
                "tempo": 120.0
            },
            {
                "start_time": 1.3113636,
                "end_time": 1.4272727,
                "pitch": 52,
                "velocity": 80,
                "duration": 0.1159091,
                "tempo": 120.0
            },
            {
                "start_time": 1.4272727,
                "end_time": 1.5454545,
                "pitch": 67,
                "velocity": 80,
                "duration": 0.1181818,
                "tempo": 120.0
            },
            {
                "start_time": 1.5454545,
                "end_time": 1.6659091,
                "pitch": 52,
                "velocity": 80,
                "duration": 0.1204545,
                "tempo": 120.0
            },
            {
                "start_time": 1.6659091,
                "end_time": 1.8022727,
                "pitch": 67,
                "velocity": 80,
                "duration": 0.1363636,
                "tempo": 120.0
            },
            {
                "start_time": 1.8022727,
                "end_time": 1.9227273,
                "pitch": 52,
                "velocity": 80,
                "duration": 0.1204545,
                "tempo": 120.0
            },
            {
                "start_time": 1.9227273,
                "end_time": 2.0386364,
                "pitch": 67,
                "velocity": 80,
                "duration": 0.1159091,
                "tempo": 120.0
            },
            {
                "start_time": 2.0386364,
                "end_time": 2.1568182,
                "pitch": 52,
                "velocity": 80,
                "duration": 0.1181818,
                "tempo": 120.0
            },
            {
                "start_time": 2.1568182,
                "end_time": 2.2727273,
                "pitch": 52,
                "velocity": 80,
                "duration": 0.1159091,
                "tempo": 120.0
            },
            {
                "start_time": 2.2727273,
                "end_time": 2.4068182,
                "pitch": 67,
                "velocity": 80,
                "duration": 0.1340909,
                "tempo": 120.0
            },
            {
                "start_time": 2.4068182,
                "end_time": 2.5227273,
                "pitch": 52,
                "velocity": 80,
                "duration": 0.1159091,
                "tempo": 120.0
            },
            {
                "start_time": 2.5227273,
                "end_time": 2.6409091,
                "pitch": 52,
                "velocity": 80,
                "duration": 0.1181818,
                "tempo": 120.0
            },
            {
                "start_time": 2.6431818,
                "end_time": 2.7590909,
                "pitch": 67,
                "velocity": 80,
                "duration": 0.1159091,
                "tempo": 120.0
            },
            {
                "start_time": 2.7590909,
                "end_time": 2.8795455,
                "pitch": 52,
                "velocity": 80,
                "duration": 0.1204545,
                "tempo": 120.0
            },
            {
                "start_time": 2.8795455,
                "end_time": 3.0090909,
                "pitch": 52,
                "velocity": 80,
                "duration": 0.1295455,
                "tempo": 120.0
            },
            {
                "start_time": 3.0090909,
                "end_time": 3.125,
                "pitch": 67,
                "velocity": 80,
                "duration": 0.1159091,
                "tempo": 120.0
            },
            {
                "start_time": 3.125,
                "end_time": 3.2386364,
                "pitch": 52,
                "velocity": 80,
                "duration": 0.1136364,
                "tempo": 120.0
            },
            {
                "start_time": 3.2386364,
                "end_time": 3.3545455,
                "pitch": 52,
                "velocity": 80,
                "duration": 0.1159091,
                "tempo": 120.0
            },
            {
                "start_time": 3.3545455,
                "end_time": 3.4704545,
                "pitch": 67,
                "velocity": 80,
                "duration": 0.1159091,
                "tempo": 120.0
            },
            {
                "start_time": 3.4704545,
                "end_time": 3.6045455,
                "pitch": 52,
                "velocity": 80,
                "duration": 0.1340909,
                "tempo": 120.0
            },
            {
                "start_time": 3.6045455,
                "end_time": 3.7204545,
                "pitch": 67,
                "velocity": 80,
                "duration": 0.1159091,
                "tempo": 120.0
            },
            {
                "start_time": 3.7204545,
                "end_time": 3.8386364,
                "pitch": 52,
                "velocity": 80,
                "duration": 0.1181818,
                "tempo": 120.0
            },
            {
                "start_time": 3.8386364,
                "end_time": 3.9568182,
                "pitch": 66,
                "velocity": 80,
                "duration": 0.1181818,
                "tempo": 120.0
            },
            {
                "start_time": 3.9568182,
                "end_time": 4.0772727,
                "pitch": 47,
                "velocity": 80,
                "duration": 0.1204545,
                "tempo": 120.0
            },
            {
                "start_time": 4.0772727,
                "end_time": 4.2136364,
                "pitch": 47,
                "velocity": 80,
                "duration": 0.1363636,
                "tempo": 120.0
            },
            {
                "start_time": 4.2136364,
                "end_time": 4.3340909,
                "pitch": 66,
                "velocity": 80,
                "duration": 0.1204545,
                "tempo": 120.0
            },
            {
                "start_time": 4.3340909,
                "end_time": 4.45,
                "pitch": 47,
                "velocity": 80,
                "duration": 0.1159091,
                "tempo": 120.0
            },
            {
                "start_time": 4.45,
                "end_time": 4.5681818,
                "pitch": 47,
                "velocity": 80,
                "duration": 0.1181818,
                "tempo": 120.0
            },
            {
                "start_time": 4.5681818,
                "end_time": 4.6840909,
                "pitch": 66,
                "velocity": 80,
                "duration": 0.1159091,
                "tempo": 120.0
            },
            {
                "start_time": 4.6840909,
                "end_time": 4.8181818,
                "pitch": 47,
                "velocity": 80,
                "duration": 0.1340909,
                "tempo": 120.0
            },
            {
                "start_time": 4.8181818,
                "end_time": 4.9363636,
                "pitch": 47,
                "velocity": 80,
                "duration": 0.1181818,
                "tempo": 120.0
            },
            {
                "start_time": 4.9363636,
                "end_time": 5.0568182,
                "pitch": 66,
                "velocity": 80,
                "duration": 0.1204545,
                "tempo": 120.0
            },
            {
                "start_time": 5.0568182,
                "end_time": 5.1772727,
                "pitch": 47,
                "velocity": 80,
                "duration": 0.1204545,
                "tempo": 120.0
            },
            {
                "start_time": 5.1772727,
                "end_time": 5.2954545,
                "pitch": 47,
                "velocity": 80,
                "duration": 0.1181818,
                "tempo": 120.0
            },
            {
                "start_time": 5.2954545,
                "end_time": 5.4227273,
                "pitch": 66,
                "velocity": 80,
                "duration": 0.1272727,
                "tempo": 120.0
            },
            {
                "start_time": 5.4227273,
                "end_time": 5.5386364,
                "pitch": 47,
                "velocity": 80,
                "duration": 0.1159091,
                "tempo": 120.0
            },
            {
                "start_time": 5.5386364,
                "end_time": 5.65,
                "pitch": 66,
                "velocity": 80,
                "duration": 0.1113636,
                "tempo": 120.0
            },
            {
                "start_time": 5.65,
                "end_time": 5.7613636,
                "pitch": 47,
                "velocity": 80,
                "duration": 0.1113636,
                "tempo": 120.0
            },
            {
                "start_time": 5.7613636,
                "end_time": 5.8795455,
                "pitch": 66,
                "velocity": 80,
                "duration": 0.1181818,
                "tempo": 120.0
            },
            {
                "start_time": 5.8795455,
                "end_time": 6.0181818,
                "pitch": 47,
                "velocity": 80,
                "duration": 0.1386364,
                "tempo": 120.0
            },
            {
                "start_time": 6.0181818,
                "end_time": 6.1363636,
                "pitch": 47,
                "velocity": 80,
                "duration": 0.1181818,
                "tempo": 120.0
            },
            {
                "start_time": 6.1363636,
                "end_time": 6.2568182,
                "pitch": 66,
                "velocity": 80,
                "duration": 0.1204545,
                "tempo": 120.0
            },
            {
                "start_time": 6.2568182,
                "end_time": 6.3727273,
                "pitch": 47,
                "velocity": 80,
                "duration": 0.1159091,
                "tempo": 120.0
            },
            {
                "start_time": 6.3727273,
                "end_time": 6.4931818,
                "pitch": 47,
                "velocity": 80,
                "duration": 0.1204545,
                "tempo": 120.0
            },
            {
                "start_time": 6.4931818,
                "end_time": 6.6272727,
                "pitch": 66,
                "velocity": 80,
                "duration": 0.1340909,
                "tempo": 120.0
            },
            {
                "start_time": 6.6272727,
                "end_time": 6.7454545,
                "pitch": 47,
                "velocity": 80,
                "duration": 0.1181818,
                "tempo": 120.0
            },
            {
                "start_time": 6.7454545,
                "end_time": 6.8636364,
                "pitch": 47,
                "velocity": 80,
                "duration": 0.1181818,
                "tempo": 120.0
            },
            {
                "start_time": 6.8636364,
                "end_time": 6.9840909,
                "pitch": 66,
                "velocity": 80,
                "duration": 0.1204545,
                "tempo": 120.0
            },
            {
                "start_time": 6.9840909,
                "end_time": 7.1045455,
                "pitch": 47,
                "velocity": 80,
                "duration": 0.1204545,
                "tempo": 120.0
            },
            {
                "start_time": 7.1045455,
                "end_time": 7.2409091,
                "pitch": 47,
                "velocity": 80,
                "duration": 0.1363636,
                "tempo": 120.0
            },
            {
                "start_time": 7.2409091,
                "end_time": 7.3568182,
                "pitch": 66,
                "velocity": 80,
                "duration": 0.1159091,
                "tempo": 120.0
            },
            {
                "start_time": 7.3568182,
                "end_time": 7.475,
                "pitch": 47,
                "velocity": 80,
                "duration": 0.1181818,
                "tempo": 120.0
            },
            {
                "start_time": 7.475,
                "end_time": 7.5909091,
                "pitch": 66,
                "velocity": 80,
                "duration": 0.1159091,
                "tempo": 120.0
            },
            {
                "start_time": 7.5909091,
                "end_time": 7.7090909,
                "pitch": 47,
                "velocity": 80,
                "duration": 0.1181818,
                "tempo": 120.0
            },
            {
                "start_time": 7.7090909,
                "end_time": 7.8386364,
                "pitch": 66,
                "velocity": 80,
                "duration": 0.1295455,
                "tempo": 120.0
            },
            {
                "start_time": 7.8386364,
                "end_time": 7.9545455,
                "pitch": 47,
                "velocity": 80,
                "duration": 0.1159091,
                "tempo": 120.0
            },
            {
                "start_time": 7.9545455,
                "end_time": 8.0681818,
                "pitch": 47,
                "velocity": 80,
                "duration": 0.1136364,
                "tempo": 120.0
            },
            {
                "start_time": 8.0681818,
                "end_time": 8.1840909,
                "pitch": 66,
                "velocity": 80,
                "duration": 0.1159091,
                "tempo": 120.0
            },
            {
                "start_time": 8.1840909,
                "end_time": 8.3,
                "pitch": 47,
                "velocity": 80,
                "duration": 0.1159091,
                "tempo": 120.0
            },
            {
                "start_time": 8.3,
                "end_time": 8.4340909,
                "pitch": 47,
                "velocity": 80,
                "duration": 0.1340909,
                "tempo": 120.0
            },
            {
                "start_time": 8.4340909,
                "end_time": 8.55,
                "pitch": 66,
                "velocity": 80,
                "duration": 0.1159091,
                "tempo": 120.0
            },
            {
                "start_time": 8.55,
                "end_time": 8.6681818,
                "pitch": 47,
                "velocity": 80,
                "duration": 0.1181818,
                "tempo": 120.0
            },
            {
                "start_time": 8.6681818,
                "end_time": 8.7863636,
                "pitch": 47,
                "velocity": 80,
                "duration": 0.1181818,
                "tempo": 120.0
            },
            {
                "start_time": 8.7863636,
                "end_time": 8.9068182,
                "pitch": 66,
                "velocity": 80,
                "duration": 0.1204545,
                "tempo": 120.0
            },
            {
                "start_time": 8.9068182,
                "end_time": 9.0431818,
                "pitch": 47,
                "velocity": 80,
                "duration": 0.1363636,
                "tempo": 120.0
            },
            {
                "start_time": 9.0431818,
                "end_time": 9.1636364,
                "pitch": 47,
                "velocity": 80,
                "duration": 0.1204545,
                "tempo": 120.0
            },
            {
                "start_time": 9.1636364,
                "end_time": 9.2795455,
                "pitch": 66,
                "velocity": 80,
                "duration": 0.1159091,
                "tempo": 120.0
            },
            {
                "start_time": 9.2795455,
                "end_time": 9.4,
                "pitch": 47,
                "velocity": 80,
                "duration": 0.1204545,
                "tempo": 120.0
            },
            {
                "start_time": 9.4,
                "end_time": 9.5159091,
                "pitch": 66,
                "velocity": 80,
                "duration": 0.1159091,
                "tempo": 120.0
            },
            {
                "start_time": 9.5159091,
                "end_time": 9.6522727,
                "pitch": 47,
                "velocity": 80,
                "duration": 0.1363636,
                "tempo": 120.0
            },
            {
                "start_time": 9.6522727,
                "end_time": 9.7681818,
                "pitch": 66,
                "velocity": 80,
                "duration": 0.1159091,
                "tempo": 120.0
            },
            {
                "start_time": 9.7681818,
                "end_time": 9.8840909,
                "pitch": 47,
                "velocity": 80,
                "duration": 0.1159091,
                "tempo": 120.0
            },
            {
                "start_time": 9.8840909,
                "end_time": 10.0022727,
                "pitch": 47,
                "velocity": 80,
                "duration": 0.1181818,
                "tempo": 120.0
            },
            {
                "start_time": 10.0022727,
                "end_time": 10.1181818,
                "pitch": 66,
                "velocity": 80,
                "duration": 0.1159091,
                "tempo": 120.0
            },
            {
                "start_time": 10.1181818,
                "end_time": 10.2477273,
                "pitch": 47,
                "velocity": 80,
                "duration": 0.1295455,
                "tempo": 120.0
            },
            {
                "start_time": 10.2477273,
                "end_time": 10.3659091,
                "pitch": 47,
                "velocity": 80,
                "duration": 0.1181818,
                "tempo": 120.0
            },
            {
                "start_time": 10.3659091,
                "end_time": 10.4795455,
                "pitch": 66,
                "velocity": 80,
                "duration": 0.1136364,
                "tempo": 120.0
            },
            {
                "start_time": 10.4795455,
                "end_time": 10.5954545,
                "pitch": 47,
                "velocity": 80,
                "duration": 0.1159091,
                "tempo": 120.0
            },
            {
                "start_time": 10.5954545,
                "end_time": 10.7113636,
                "pitch": 47,
                "velocity": 80,
                "duration": 0.1159091,
                "tempo": 120.0
            },
            {
                "start_time": 10.7113636,
                "end_time": 10.8477273,
                "pitch": 66,
                "velocity": 80,
                "duration": 0.1363636,
                "tempo": 120.0
            },
            {
                "start_time": 10.8477273,
                "end_time": 10.9659091,
                "pitch": 47,
                "velocity": 80,
                "duration": 0.1181818,
                "tempo": 120.0
            },
            {
                "start_time": 10.9659091,
                "end_time": 11.0818182,
                "pitch": 47,
                "velocity": 80,
                "duration": 0.1159091,
                "tempo": 120.0
            },
            {
                "start_time": 11.0818182,
                "end_time": 11.2022727,
                "pitch": 66,
                "velocity": 80,
                "duration": 0.1204545,
                "tempo": 120.0
            },
            {
                "start_time": 11.2022727,
                "end_time": 11.3227273,
                "pitch": 47,
                "velocity": 80,
                "duration": 0.1204545,
                "tempo": 120.0
            },
            {
                "start_time": 11.3227273,
                "end_time": 11.4568182,
                "pitch": 66,
                "velocity": 80,
                "duration": 0.1340909,
                "tempo": 120.0
            },
            {
                "start_time": 11.4590909,
                "end_time": 11.5795455,
                "pitch": 47,
                "velocity": 80,
                "duration": 0.1204545,
                "tempo": 120.0
            },
            {
                "start_time": 11.5795455,
                "end_time": 11.6954545,
                "pitch": 64,
                "velocity": 80,
                "duration": 0.1159091,
                "tempo": 120.0
            },
            {
                "start_time": 11.6954545,
                "end_time": 11.8113636,
                "pitch": 47,
                "velocity": 80,
                "duration": 0.1159091,
                "tempo": 120.0
            },
            {
                "start_time": 11.8113636,
                "end_time": 11.9272727,
                "pitch": 47,
                "velocity": 80,
                "duration": 0.1159091,
                "tempo": 120.0
            },
            {
                "start_time": 11.9295455,
                "end_time": 12.0636364,
                "pitch": 64,
                "velocity": 80,
                "duration": 0.1340909,
                "tempo": 120.0
            },
            {
                "start_time": 12.0636364,
                "end_time": 12.1795455,
                "pitch": 47,
                "velocity": 80,
                "duration": 0.1159091,
                "tempo": 120.0
            },
            {
                "start_time": 12.1818182,
                "end_time": 12.3022727,
                "pitch": 47,
                "velocity": 80,
                "duration": 0.1204545,
                "tempo": 120.0
            },
            {
                "start_time": 12.3022727,
                "end_time": 12.4204545,
                "pitch": 64,
                "velocity": 80,
                "duration": 0.1181818,
                "tempo": 120.0
            },
            {
                "start_time": 12.4204545,
                "end_time": 12.5409091,
                "pitch": 47,
                "velocity": 80,
                "duration": 0.1204545,
                "tempo": 120.0
            },
            {
                "start_time": 12.5409091,
                "end_time": 12.6727273,
                "pitch": 47,
                "velocity": 80,
                "duration": 0.1318182,
                "tempo": 120.0
            },
            {
                "start_time": 12.6727273,
                "end_time": 12.7886364,
                "pitch": 64,
                "velocity": 80,
                "duration": 0.1159091,
                "tempo": 120.0
            },
            {
                "start_time": 12.7886364,
                "end_time": 12.9022727,
                "pitch": 47,
                "velocity": 80,
                "duration": 0.1136364,
                "tempo": 120.0
            },
            {
                "start_time": 12.9022727,
                "end_time": 13.0181818,
                "pitch": 47,
                "velocity": 80,
                "duration": 0.1159091,
                "tempo": 120.0
            },
            {
                "start_time": 13.0181818,
                "end_time": 13.1340909,
                "pitch": 64,
                "velocity": 80,
                "duration": 0.1159091,
                "tempo": 120.0
            },
            {
                "start_time": 13.1340909,
                "end_time": 13.2704545,
                "pitch": 47,
                "velocity": 80,
                "duration": 0.1363636,
                "tempo": 120.0
            },
            {
                "start_time": 13.2704545,
                "end_time": 13.3886364,
                "pitch": 64,
                "velocity": 80,
                "duration": 0.1181818,
                "tempo": 120.0
            },
            {
                "start_time": 13.3886364,
                "end_time": 13.5068182,
                "pitch": 47,
                "velocity": 80,
                "duration": 0.1181818,
                "tempo": 120.0
            },
            {
                "start_time": 13.5068182,
                "end_time": 13.6227273,
                "pitch": 64,
                "velocity": 80,
                "duration": 0.1159091,
                "tempo": 120.0
            },
            {
                "start_time": 13.6227273,
                "end_time": 13.7409091,
                "pitch": 47,
                "velocity": 80,
                "duration": 0.1181818,
                "tempo": 120.0
            },
            {
                "start_time": 13.7409091,
                "end_time": 13.875,
                "pitch": 47,
                "velocity": 80,
                "duration": 0.1340909,
                "tempo": 120.0
            },
            {
                "start_time": 13.875,
                "end_time": 13.9931818,
                "pitch": 64,
                "velocity": 80,
                "duration": 0.1181818,
                "tempo": 120.0
            },
            {
                "start_time": 13.9931818,
                "end_time": 14.1090909,
                "pitch": 47,
                "velocity": 80,
                "duration": 0.1159091,
                "tempo": 120.0
            },
            {
                "start_time": 14.1090909,
                "end_time": 14.2272727,
                "pitch": 47,
                "velocity": 80,
                "duration": 0.1181818,
                "tempo": 120.0
            },
            {
                "start_time": 14.2272727,
                "end_time": 14.3431818,
                "pitch": 64,
                "velocity": 80,
                "duration": 0.1159091,
                "tempo": 120.0
            },
            {
                "start_time": 14.3431818,
                "end_time": 14.4772727,
                "pitch": 47,
                "velocity": 80,
                "duration": 0.1340909,
                "tempo": 120.0
            },
            {
                "start_time": 14.4772727,
                "end_time": 14.5954545,
                "pitch": 47,
                "velocity": 80,
                "duration": 0.1181818,
                "tempo": 120.0
            },
            {
                "start_time": 14.5954545,
                "end_time": 14.7159091,
                "pitch": 64,
                "velocity": 80,
                "duration": 0.1204545,
                "tempo": 120.0
            },
            {
                "start_time": 14.7159091,
                "end_time": 14.8363636,
                "pitch": 47,
                "velocity": 80,
                "duration": 0.1204545,
                "tempo": 120.0
            },
            {
                "start_time": 14.8363636,
                "end_time": 14.9545455,
                "pitch": 47,
                "velocity": 80,
                "duration": 0.1181818,
                "tempo": 120.0
            },
            {
                "start_time": 14.9545455,
                "end_time": 15.0863636,
                "pitch": 64,
                "velocity": 80,
                "duration": 0.1318182,
                "tempo": 120.0
            },
            {
                "start_time": 15.0886364,
                "end_time": 15.2022727,
                "pitch": 47,
                "velocity": 80,
                "duration": 0.1136364,
                "tempo": 120.0
            },
            {
                "start_time": 15.2022727,
                "end_time": 15.3181818,
                "pitch": 64,
                "velocity": 80,
                "duration": 0.1159091,
                "tempo": 120.0
            },
            {
                "start_time": 15.3181818,
                "end_time": 15.4340909,
                "pitch": 47,
                "velocity": 80,
                "duration": 0.1159091,
                "tempo": 120.0
            },
            {
                "start_time": 15.4340909,
                "end_time": 15.55,
                "pitch": 64,
                "velocity": 80,
                "duration": 0.1159091,
                "tempo": 120.0
            },
            {
                "start_time": 15.55,
                "end_time": 15.6886364,
                "pitch": 48,
                "velocity": 80,
                "duration": 0.1386364,
                "tempo": 120.0
            },
            {
                "start_time": 15.6886364,
                "end_time": 15.8090909,
                "pitch": 48,
                "velocity": 80,
                "duration": 0.1204545,
                "tempo": 120.0
            },
            {
                "start_time": 15.8090909,
                "end_time": 15.9272727,
                "pitch": 64,
                "velocity": 80,
                "duration": 0.1181818,
                "tempo": 120.0
            },
            {
                "start_time": 15.9272727,
                "end_time": 16.0409091,
                "pitch": 48,
                "velocity": 80,
                "duration": 0.1136364,
                "tempo": 120.0
            },
            {
                "start_time": 16.0431818,
                "end_time": 16.1590909,
                "pitch": 48,
                "velocity": 80,
                "duration": 0.1159091,
                "tempo": 120.0
            },
            {
                "start_time": 16.1590909,
                "end_time": 16.2886364,
                "pitch": 64,
                "velocity": 80,
                "duration": 0.1295455,
                "tempo": 120.0
            },
            {
                "start_time": 16.2886364,
                "end_time": 16.4045455,
                "pitch": 48,
                "velocity": 80,
                "duration": 0.1159091,
                "tempo": 120.0
            },
            {
                "start_time": 16.4045455,
                "end_time": 16.5227273,
                "pitch": 48,
                "velocity": 80,
                "duration": 0.1181818,
                "tempo": 120.0
            },
            {
                "start_time": 16.5227273,
                "end_time": 16.6431818,
                "pitch": 64,
                "velocity": 80,
                "duration": 0.1204545,
                "tempo": 120.0
            },
            {
                "start_time": 16.6431818,
                "end_time": 16.7636364,
                "pitch": 48,
                "velocity": 80,
                "duration": 0.1204545,
                "tempo": 120.0
            },
            {
                "start_time": 16.7636364,
                "end_time": 16.9,
                "pitch": 48,
                "velocity": 80,
                "duration": 0.1363636,
                "tempo": 120.0
            },
            {
                "start_time": 16.9,
                "end_time": 17.0159091,
                "pitch": 64,
                "velocity": 80,
                "duration": 0.1159091,
                "tempo": 120.0
            },
            {
                "start_time": 17.0159091,
                "end_time": 17.1340909,
                "pitch": 48,
                "velocity": 80,
                "duration": 0.1181818,
                "tempo": 120.0
            },
            {
                "start_time": 17.1340909,
                "end_time": 17.25,
                "pitch": 64,
                "velocity": 80,
                "duration": 0.1159091,
                "tempo": 120.0
            },
            {
                "start_time": 17.25,
                "end_time": 17.3681818,
                "pitch": 48,
                "velocity": 80,
                "duration": 0.1181818,
                "tempo": 120.0
            },
            {
                "start_time": 17.3681818,
                "end_time": 17.4977273,
                "pitch": 64,
                "velocity": 80,
                "duration": 0.1295455,
                "tempo": 120.0
            },
            {
                "start_time": 17.4977273,
                "end_time": 17.6136364,
                "pitch": 47,
                "velocity": 80,
                "duration": 0.1159091,
                "tempo": 120.0
            },
            {
                "start_time": 17.6136364,
                "end_time": 17.7272727,
                "pitch": 47,
                "velocity": 80,
                "duration": 0.1136364,
                "tempo": 120.0
            },
            {
                "start_time": 17.7295455,
                "end_time": 17.8431818,
                "pitch": 64,
                "velocity": 80,
                "duration": 0.1136364,
                "tempo": 120.0
            },
            {
                "start_time": 17.8431818,
                "end_time": 17.9613636,
                "pitch": 47,
                "velocity": 80,
                "duration": 0.1181818,
                "tempo": 120.0
            },
            {
                "start_time": 17.9613636,
                "end_time": 18.0954545,
                "pitch": 47,
                "velocity": 80,
                "duration": 0.1340909,
                "tempo": 120.0
            },
            {
                "start_time": 18.0954545,
                "end_time": 18.2113636,
                "pitch": 64,
                "velocity": 80,
                "duration": 0.1159091,
                "tempo": 120.0
            },
            {
                "start_time": 18.2136364,
                "end_time": 18.3318182,
                "pitch": 47,
                "velocity": 80,
                "duration": 0.1181818,
                "tempo": 120.0
            },
            {
                "start_time": 18.3318182,
                "end_time": 18.45,
                "pitch": 47,
                "velocity": 80,
                "duration": 0.1181818,
                "tempo": 120.0
            },
            {
                "start_time": 18.45,
                "end_time": 18.5704545,
                "pitch": 64,
                "velocity": 80,
                "duration": 0.1204545,
                "tempo": 120.0
            },
            {
                "start_time": 18.5704545,
                "end_time": 18.7068182,
                "pitch": 47,
                "velocity": 80,
                "duration": 0.1363636,
                "tempo": 120.0
            },
            {
                "start_time": 18.7090909,
                "end_time": 18.825,
                "pitch": 47,
                "velocity": 80,
                "duration": 0.1159091,
                "tempo": 120.0
            },
            {
                "start_time": 18.8272727,
                "end_time": 18.9431818,
                "pitch": 64,
                "velocity": 80,
                "duration": 0.1159091,
                "tempo": 120.0
            },
            {
                "start_time": 18.9454545,
                "end_time": 19.0636364,
                "pitch": 47,
                "velocity": 80,
                "duration": 0.1181818,
                "tempo": 120.0
            },
            {
                "start_time": 19.0636364,
                "end_time": 19.1795455,
                "pitch": 64,
                "velocity": 80,
                "duration": 0.1159091,
                "tempo": 120.0
            },
            {
                "start_time": 19.1795455,
                "end_time": 19.3159091,
                "pitch": 47,
                "velocity": 80,
                "duration": 0.1363636,
                "tempo": 120.0
            },
            {
                "start_time": 19.3159091,
                "end_time": 19.4318182,
                "pitch": 64,
                "velocity": 80,
                "duration": 0.1159091,
                "tempo": 120.0
            },
            {
                "start_time": 19.4318182,
                "end_time": 19.55,
                "pitch": 52,
                "velocity": 80,
                "duration": 0.1181818,
                "tempo": 120.0
            },
            {
                "start_time": 19.55,
                "end_time": 19.6659091,
                "pitch": 52,
                "velocity": 80,
                "duration": 0.1159091,
                "tempo": 120.0
            },
            {
                "start_time": 19.6681818,
                "end_time": 19.7863636,
                "pitch": 64,
                "velocity": 80,
                "duration": 0.1181818,
                "tempo": 120.0
            },
            {
                "start_time": 19.7863636,
                "end_time": 19.9159091,
                "pitch": 52,
                "velocity": 80,
                "duration": 0.1295455,
                "tempo": 120.0
            },
            {
                "start_time": 19.9159091,
                "end_time": 20.0318182,
                "pitch": 52,
                "velocity": 80,
                "duration": 0.1159091,
                "tempo": 120.0
            },
            {
                "start_time": 20.0318182,
                "end_time": 20.1454545,
                "pitch": 64,
                "velocity": 80,
                "duration": 0.1136364,
                "tempo": 120.0
            },
            {
                "start_time": 20.1454545,
                "end_time": 20.2636364,
                "pitch": 52,
                "velocity": 80,
                "duration": 0.1181818,
                "tempo": 120.0
            },
            {
                "start_time": 20.2636364,
                "end_time": 20.3795455,
                "pitch": 52,
                "velocity": 80,
                "duration": 0.1159091,
                "tempo": 120.0
            },
            {
                "start_time": 20.3818182,
                "end_time": 20.5181818,
                "pitch": 64,
                "velocity": 80,
                "duration": 0.1363636,
                "tempo": 120.0
            },
            {
                "start_time": 20.5181818,
                "end_time": 20.6363636,
                "pitch": 52,
                "velocity": 80,
                "duration": 0.1181818,
                "tempo": 120.0
            },
            {
                "start_time": 20.6386364,
                "end_time": 20.7568182,
                "pitch": 52,
                "velocity": 80,
                "duration": 0.1181818,
                "tempo": 120.0
            },
            {
                "start_time": 20.7568182,
                "end_time": 20.875,
                "pitch": 64,
                "velocity": 80,
                "duration": 0.1181818,
                "tempo": 120.0
            },
            {
                "start_time": 20.875,
                "end_time": 20.9931818,
                "pitch": 52,
                "velocity": 80,
                "duration": 0.1181818,
                "tempo": 120.0
            },
            {
                "start_time": 20.9931818,
                "end_time": 21.1272727,
                "pitch": 64,
                "velocity": 80,
                "duration": 0.1340909,
                "tempo": 120.0
            },
            {
                "start_time": 21.1272727,
                "end_time": 21.2454545,
                "pitch": 52,
                "velocity": 80,
                "duration": 0.1181818,
                "tempo": 120.0
            },
            {
                "start_time": 21.2454545,
                "end_time": 21.3613636,
                "pitch": 64,
                "velocity": 80,
                "duration": 0.1159091,
                "tempo": 120.0
            },
            {
                "start_time": 21.3613636,
                "end_time": 21.4795455,
                "pitch": 52,
                "velocity": 80,
                "duration": 0.1181818,
                "tempo": 120.0
            },
            {
                "start_time": 21.4795455,
                "end_time": 21.5954545,
                "pitch": 52,
                "velocity": 80,
                "duration": 0.1159091,
                "tempo": 120.0
            },
            {
                "start_time": 21.5954545,
                "end_time": 21.7295455,
                "pitch": 64,
                "velocity": 80,
                "duration": 0.1340909,
                "tempo": 120.0
            },
            {
                "start_time": 21.7295455,
                "end_time": 21.8477273,
                "pitch": 52,
                "velocity": 80,
                "duration": 0.1181818,
                "tempo": 120.0
            },
            {
                "start_time": 21.8477273,
                "end_time": 21.9681818,
                "pitch": 52,
                "velocity": 80,
                "duration": 0.1204545,
                "tempo": 120.0
            },
            {
                "start_time": 21.9704545,
                "end_time": 22.0863636,
                "pitch": 64,
                "velocity": 80,
                "duration": 0.1159091,
                "tempo": 120.0
            },
            {
                "start_time": 22.0886364,
                "end_time": 22.2090909,
                "pitch": 52,
                "velocity": 80,
                "duration": 0.1204545,
                "tempo": 120.0
            },
            {
                "start_time": 22.2090909,
                "end_time": 22.3386364,
                "pitch": 52,
                "velocity": 80,
                "duration": 0.1295455,
                "tempo": 120.0
            },
            {
                "start_time": 22.3386364,
                "end_time": 22.4545455,
                "pitch": 64,
                "velocity": 80,
                "duration": 0.1159091,
                "tempo": 120.0
            },
            {
                "start_time": 22.4545455,
                "end_time": 22.5681818,
                "pitch": 52,
                "velocity": 80,
                "duration": 0.1136364,
                "tempo": 120.0
            },
            {
                "start_time": 22.5681818,
                "end_time": 22.6840909,
                "pitch": 52,
                "velocity": 80,
                "duration": 0.1159091,
                "tempo": 120.0
            },
            {
                "start_time": 22.6840909,
                "end_time": 22.8,
                "pitch": 64,
                "velocity": 80,
                "duration": 0.1159091,
                "tempo": 120.0
            },
            {
                "start_time": 22.8,
                "end_time": 22.9363636,
                "pitch": 52,
                "velocity": 80,
                "duration": 0.1363636,
                "tempo": 120.0
            },
            {
                "start_time": 22.9386364,
                "end_time": 23.0522727,
                "pitch": 64,
                "velocity": 80,
                "duration": 0.1136364,
                "tempo": 120.0
            },
            {
                "start_time": 23.0522727,
                "end_time": 23.1727273,
                "pitch": 52,
                "velocity": 80,
                "duration": 0.1204545,
                "tempo": 120.0
            },
            {
                "start_time": 23.1727273,
                "end_time": 23.2886364,
                "pitch": 64,
                "velocity": 80,
                "duration": 0.1159091,
                "tempo": 120.0
            },
            {
                "start_time": 23.2886364,
                "end_time": 23.4068182,
                "pitch": 47,
                "velocity": 80,
                "duration": 0.1181818,
                "tempo": 120.0
            },
            {
                "start_time": 23.4068182,
                "end_time": 23.5409091,
                "pitch": 47,
                "velocity": 80,
                "duration": 0.1340909,
                "tempo": 120.0
            },
            {
                "start_time": 23.5409091,
                "end_time": 23.6590909,
                "pitch": 64,
                "velocity": 80,
                "duration": 0.1181818,
                "tempo": 120.0
            },
            {
                "start_time": 23.6590909,
                "end_time": 23.7772727,
                "pitch": 47,
                "velocity": 80,
                "duration": 0.1181818,
                "tempo": 120.0
            },
            {
                "start_time": 23.7772727,
                "end_time": 23.9,
                "pitch": 47,
                "velocity": 80,
                "duration": 0.1227273,
                "tempo": 120.0
            },
            {
                "start_time": 23.9,
                "end_time": 24.0181818,
                "pitch": 64,
                "velocity": 80,
                "duration": 0.1181818,
                "tempo": 120.0
            },
            {
                "start_time": 24.0181818,
                "end_time": 24.1545455,
                "pitch": 47,
                "velocity": 80,
                "duration": 0.1363636,
                "tempo": 120.0
            },
            {
                "start_time": 24.1545455,
                "end_time": 24.2727273,
                "pitch": 47,
                "velocity": 80,
                "duration": 0.1181818,
                "tempo": 120.0
            },
            {
                "start_time": 24.2727273,
                "end_time": 24.3909091,
                "pitch": 64,
                "velocity": 80,
                "duration": 0.1181818,
                "tempo": 120.0
            },
            {
                "start_time": 24.3909091,
                "end_time": 24.5090909,
                "pitch": 47,
                "velocity": 80,
                "duration": 0.1181818,
                "tempo": 120.0
            },
            {
                "start_time": 24.5090909,
                "end_time": 24.6272727,
                "pitch": 47,
                "velocity": 80,
                "duration": 0.1181818,
                "tempo": 120.0
            },
            {
                "start_time": 24.6272727,
                "end_time": 24.7568182,
                "pitch": 64,
                "velocity": 80,
                "duration": 0.1295455,
                "tempo": 120.0
            },
            {
                "start_time": 24.7590909,
                "end_time": 24.875,
                "pitch": 47,
                "velocity": 80,
                "duration": 0.1159091,
                "tempo": 120.0
            },
            {
                "start_time": 24.875,
                "end_time": 24.9886364,
                "pitch": 64,
                "velocity": 80,
                "duration": 0.1136364,
                "tempo": 120.0
            },
            {
                "start_time": 24.9886364,
                "end_time": 25.1045455,
                "pitch": 47,
                "velocity": 80,
                "duration": 0.1159091,
                "tempo": 120.0
            },
            {
                "start_time": 25.1045455,
                "end_time": 25.2181818,
                "pitch": 64,
                "velocity": 80,
                "duration": 0.1136364,
                "tempo": 120.0
            },
            {
                "start_time": 25.2181818,
                "end_time": 25.3522727,
                "pitch": 47,
                "velocity": 80,
                "duration": 0.1340909,
                "tempo": 120.0
            },
            {
                "start_time": 25.3522727,
                "end_time": 25.4681818,
                "pitch": 47,
                "velocity": 80,
                "duration": 0.1159091,
                "tempo": 120.0
            },
            {
                "start_time": 25.4704545,
                "end_time": 25.5886364,
                "pitch": 64,
                "velocity": 80,
                "duration": 0.1181818,
                "tempo": 120.0
            },
            {
                "start_time": 25.5886364,
                "end_time": 25.7045455,
                "pitch": 47,
                "velocity": 80,
                "duration": 0.1159091,
                "tempo": 120.0
            },
            {
                "start_time": 25.7045455,
                "end_time": 25.825,
                "pitch": 47,
                "velocity": 80,
                "duration": 0.1204545,
                "tempo": 120.0
            },
            {
                "start_time": 25.825,
                "end_time": 25.9613636,
                "pitch": 64,
                "velocity": 80,
                "duration": 0.1363636,
                "tempo": 120.0
            },
            {
                "start_time": 25.9613636,
                "end_time": 26.0840909,
                "pitch": 47,
                "velocity": 80,
                "duration": 0.1227273,
                "tempo": 120.0
            },
            {
                "start_time": 26.0840909,
                "end_time": 26.2,
                "pitch": 47,
                "velocity": 80,
                "duration": 0.1159091,
                "tempo": 120.0
            },
            {
                "start_time": 26.2,
                "end_time": 26.3181818,
                "pitch": 64,
                "velocity": 80,
                "duration": 0.1181818,
                "tempo": 120.0
            },
            {
                "start_time": 26.3181818,
                "end_time": 26.4363636,
                "pitch": 47,
                "velocity": 80,
                "duration": 0.1181818,
                "tempo": 120.0
            },
            {
                "start_time": 26.4363636,
                "end_time": 26.5704545,
                "pitch": 47,
                "velocity": 80,
                "duration": 0.1340909,
                "tempo": 120.0
            },
            {
                "start_time": 26.5704545,
                "end_time": 26.6886364,
                "pitch": 64,
                "velocity": 80,
                "duration": 0.1181818,
                "tempo": 120.0
            },
            {
                "start_time": 26.6886364,
                "end_time": 26.8068182,
                "pitch": 47,
                "velocity": 80,
                "duration": 0.1181818,
                "tempo": 120.0
            },
            {
                "start_time": 26.8068182,
                "end_time": 26.9227273,
                "pitch": 64,
                "velocity": 80,
                "duration": 0.1159091,
                "tempo": 120.0
            },
            {
                "start_time": 26.925,
                "end_time": 27.0431818,
                "pitch": 47,
                "velocity": 80,
                "duration": 0.1181818,
                "tempo": 120.0
            },
            {
                "start_time": 27.0431818,
                "end_time": 27.175,
                "pitch": 68,
                "velocity": 80,
                "duration": 0.1318182,
                "tempo": 120.0
            },
            {
                "start_time": 27.175,
                "end_time": 27.2931818,
                "pitch": 53,
                "velocity": 80,
                "duration": 0.1181818,
                "tempo": 120.0
            },
            {
                "start_time": 27.2931818,
                "end_time": 27.4113636,
                "pitch": 53,
                "velocity": 80,
                "duration": 0.1181818,
                "tempo": 120.0
            },
            {
                "start_time": 27.4113636,
                "end_time": 27.5295455,
                "pitch": 68,
                "velocity": 80,
                "duration": 0.1181818,
                "tempo": 120.0
            },
            {
                "start_time": 27.5295455,
                "end_time": 27.6454545,
                "pitch": 53,
                "velocity": 80,
                "duration": 0.1159091,
                "tempo": 120.0
            },
            {
                "start_time": 27.6454545,
                "end_time": 27.7795455,
                "pitch": 53,
                "velocity": 80,
                "duration": 0.1340909,
                "tempo": 120.0
            },
            {
                "start_time": 27.7795455,
                "end_time": 27.8954545,
                "pitch": 68,
                "velocity": 80,
                "duration": 0.1159091,
                "tempo": 120.0
            },
            {
                "start_time": 27.8954545,
                "end_time": 28.0136364,
                "pitch": 53,
                "velocity": 80,
                "duration": 0.1181818,
                "tempo": 120.0
            },
            {
                "start_time": 28.0136364,
                "end_time": 28.1295455,
                "pitch": 53,
                "velocity": 80,
                "duration": 0.1159091,
                "tempo": 120.0
            },
            {
                "start_time": 28.1295455,
                "end_time": 28.2477273,
                "pitch": 68,
                "velocity": 80,
                "duration": 0.1181818,
                "tempo": 120.0
            },
            {
                "start_time": 28.2477273,
                "end_time": 28.3818182,
                "pitch": 53,
                "velocity": 80,
                "duration": 0.1340909,
                "tempo": 120.0
            },
            {
                "start_time": 28.3840909,
                "end_time": 28.5,
                "pitch": 53,
                "velocity": 80,
                "duration": 0.1159091,
                "tempo": 120.0
            },
            {
                "start_time": 28.5,
                "end_time": 28.6181818,
                "pitch": 68,
                "velocity": 80,
                "duration": 0.1181818,
                "tempo": 120.0
            },
            {
                "start_time": 28.6181818,
                "end_time": 28.7363636,
                "pitch": 53,
                "velocity": 80,
                "duration": 0.1181818,
                "tempo": 120.0
            },
            {
                "start_time": 28.7363636,
                "end_time": 28.8522727,
                "pitch": 68,
                "velocity": 80,
                "duration": 0.1159091,
                "tempo": 120.0
            },
            {
                "start_time": 28.8522727,
                "end_time": 28.9886364,
                "pitch": 53,
                "velocity": 80,
                "duration": 0.1363636,
                "tempo": 120.0
            },
            {
                "start_time": 28.9886364,
                "end_time": 29.1068182,
                "pitch": 68,
                "velocity": 80,
                "duration": 0.1181818,
                "tempo": 120.0
            },
            {
                "start_time": 29.1068182,
                "end_time": 29.225,
                "pitch": 53,
                "velocity": 80,
                "duration": 0.1181818,
                "tempo": 120.0
            },
            {
                "start_time": 29.225,
                "end_time": 29.3409091,
                "pitch": 53,
                "velocity": 80,
                "duration": 0.1159091,
                "tempo": 120.0
            },
            {
                "start_time": 29.3409091,
                "end_time": 29.4590909,
                "pitch": 68,
                "velocity": 80,
                "duration": 0.1181818,
                "tempo": 120.0
            },
            {
                "start_time": 29.4590909,
                "end_time": 29.5886364,
                "pitch": 53,
                "velocity": 80,
                "duration": 0.1295455,
                "tempo": 120.0
            },
            {
                "start_time": 29.5886364,
                "end_time": 29.7068182,
                "pitch": 53,
                "velocity": 80,
                "duration": 0.1181818,
                "tempo": 120.0
            },
            {
                "start_time": 29.7068182,
                "end_time": 29.8204545,
                "pitch": 68,
                "velocity": 80,
                "duration": 0.1136364,
                "tempo": 120.0
            },
            {
                "start_time": 29.8204545,
                "end_time": 29.9363636,
                "pitch": 53,
                "velocity": 80,
                "duration": 0.1159091,
                "tempo": 120.0
            },
            {
                "start_time": 29.9363636,
                "end_time": 30.0545455,
                "pitch": 53,
                "velocity": 80,
                "duration": 0.1181818,
                "tempo": 120.0
            },
            {
                "start_time": 30.0545455,
                "end_time": 30.1931818,
                "pitch": 68,
                "velocity": 80,
                "duration": 0.1386364,
                "tempo": 120.0
            },
            {
                "start_time": 30.1931818,
                "end_time": 30.3113636,
                "pitch": 53,
                "velocity": 80,
                "duration": 0.1181818,
                "tempo": 120.0
            },
            {
                "start_time": 30.3113636,
                "end_time": 30.4318182,
                "pitch": 53,
                "velocity": 80,
                "duration": 0.1204545,
                "tempo": 120.0
            },
            {
                "start_time": 30.4318182,
                "end_time": 30.5477273,
                "pitch": 68,
                "velocity": 80,
                "duration": 0.1159091,
                "tempo": 120.0
            },
            {
                "start_time": 30.5477273,
                "end_time": 30.6681818,
                "pitch": 53,
                "velocity": 80,
                "duration": 0.1204545,
                "tempo": 120.0
            },
            {
                "start_time": 30.6681818,
                "end_time": 30.8,
                "pitch": 68,
                "velocity": 80,
                "duration": 0.1318182,
                "tempo": 120.0
            },
            {
                "start_time": 30.8,
                "end_time": 30.9204545,
                "pitch": 53,
                "velocity": 80,
                "duration": 0.1204545,
                "tempo": 120.0
            },
            {
                "start_time": 30.9204545,
                "end_time": 31.0363636,
                "pitch": 67,
                "velocity": 80,
                "duration": 0.1159091,
                "tempo": 120.0
            },
            {
                "start_time": 31.0363636,
                "end_time": 31.1545455,
                "pitch": 48,
                "velocity": 80,
                "duration": 0.1181818,
                "tempo": 120.0
            },
            {
                "start_time": 31.1545455,
                "end_time": 31.2727273,
                "pitch": 48,
                "velocity": 80,
                "duration": 0.1181818,
                "tempo": 120.0
            },
            {
                "start_time": 31.2727273,
                "end_time": 31.4068182,
                "pitch": 67,
                "velocity": 80,
                "duration": 0.1340909,
                "tempo": 120.0
            },
            {
                "start_time": 31.4068182,
                "end_time": 31.525,
                "pitch": 48,
                "velocity": 80,
                "duration": 0.1181818,
                "tempo": 120.0
            },
            {
                "start_time": 31.525,
                "end_time": 31.6454545,
                "pitch": 48,
                "velocity": 80,
                "duration": 0.1204545,
                "tempo": 120.0
            },
            {
                "start_time": 31.6454545,
                "end_time": 31.7659091,
                "pitch": 67,
                "velocity": 80,
                "duration": 0.1204545,
                "tempo": 120.0
            },
            {
                "start_time": 31.7659091,
                "end_time": 31.8863636,
                "pitch": 48,
                "velocity": 80,
                "duration": 0.1204545,
                "tempo": 120.0
            },
            {
                "start_time": 31.8863636,
                "end_time": 32.0159091,
                "pitch": 48,
                "velocity": 80,
                "duration": 0.1295455,
                "tempo": 120.0
            },
            {
                "start_time": 32.0159091,
                "end_time": 32.1318182,
                "pitch": 67,
                "velocity": 80,
                "duration": 0.1159091,
                "tempo": 120.0
            },
            {
                "start_time": 32.1318182,
                "end_time": 32.2477273,
                "pitch": 48,
                "velocity": 80,
                "duration": 0.1159091,
                "tempo": 120.0
            },
            {
                "start_time": 32.2477273,
                "end_time": 32.3636364,
                "pitch": 48,
                "velocity": 80,
                "duration": 0.1159091,
                "tempo": 120.0
            },
            {
                "start_time": 32.3636364,
                "end_time": 32.4795455,
                "pitch": 67,
                "velocity": 80,
                "duration": 0.1159091,
                "tempo": 120.0
            },
            {
                "start_time": 32.4795455,
                "end_time": 32.6159091,
                "pitch": 48,
                "velocity": 80,
                "duration": 0.1363636,
                "tempo": 120.0
            },
            {
                "start_time": 32.6159091,
                "end_time": 32.7318182,
                "pitch": 67,
                "velocity": 80,
                "duration": 0.1159091,
                "tempo": 120.0
            },
            {
                "start_time": 32.7318182,
                "end_time": 32.85,
                "pitch": 48,
                "velocity": 80,
                "duration": 0.1181818,
                "tempo": 120.0
            },
            {
                "start_time": 32.85,
                "end_time": 32.9659091,
                "pitch": 67,
                "velocity": 80,
                "duration": 0.1159091,
                "tempo": 120.0
            },
            {
                "start_time": 32.9659091,
                "end_time": 33.0840909,
                "pitch": 48,
                "velocity": 80,
                "duration": 0.1181818,
                "tempo": 120.0
            },
            {
                "start_time": 33.0840909,
                "end_time": 33.2159091,
                "pitch": 48,
                "velocity": 80,
                "duration": 0.1318182,
                "tempo": 120.0
            },
            {
                "start_time": 33.2159091,
                "end_time": 33.3340909,
                "pitch": 67,
                "velocity": 80,
                "duration": 0.1181818,
                "tempo": 120.0
            },
            {
                "start_time": 33.3340909,
                "end_time": 33.4522727,
                "pitch": 48,
                "velocity": 80,
                "duration": 0.1181818,
                "tempo": 120.0
            },
            {
                "start_time": 33.4522727,
                "end_time": 33.5727273,
                "pitch": 48,
                "velocity": 80,
                "duration": 0.1204545,
                "tempo": 120.0
            },
            {
                "start_time": 33.5727273,
                "end_time": 33.6931818,
                "pitch": 67,
                "velocity": 80,
                "duration": 0.1204545,
                "tempo": 120.0
            },
            {
                "start_time": 33.6931818,
                "end_time": 33.8295455,
                "pitch": 48,
                "velocity": 80,
                "duration": 0.1363636,
                "tempo": 120.0
            },
            {
                "start_time": 33.8295455,
                "end_time": 33.9454545,
                "pitch": 48,
                "velocity": 80,
                "duration": 0.1159091,
                "tempo": 120.0
            },
            {
                "start_time": 33.9454545,
                "end_time": 34.0636364,
                "pitch": 67,
                "velocity": 80,
                "duration": 0.1181818,
                "tempo": 120.0
            },
            {
                "start_time": 34.0636364,
                "end_time": 34.1795455,
                "pitch": 48,
                "velocity": 80,
                "duration": 0.1159091,
                "tempo": 120.0
            },
            {
                "start_time": 34.1795455,
                "end_time": 34.2954545,
                "pitch": 48,
                "velocity": 80,
                "duration": 0.1159091,
                "tempo": 120.0
            },
            {
                "start_time": 34.2977273,
                "end_time": 34.4272727,
                "pitch": 67,
                "velocity": 80,
                "duration": 0.1295455,
                "tempo": 120.0
            },
            {
                "start_time": 34.4272727,
                "end_time": 34.5431818,
                "pitch": 48,
                "velocity": 80,
                "duration": 0.1159091,
                "tempo": 120.0
            },
            {
                "start_time": 34.5431818,
                "end_time": 34.6568182,
                "pitch": 67,
                "velocity": 80,
                "duration": 0.1136364,
                "tempo": 120.0
            },
            {
                "start_time": 34.6568182,
                "end_time": 34.775,
                "pitch": 48,
                "velocity": 80,
                "duration": 0.1181818,
                "tempo": 120.0
            },
            {
                "start_time": 34.775,
                "end_time": 34.8909091,
                "pitch": 67,
                "velocity": 80,
                "duration": 0.1159091,
                "tempo": 120.0
            },
            {
                "start_time": 34.8909091,
                "end_time": 35.025,
                "pitch": 48,
                "velocity": 80,
                "duration": 0.1340909,
                "tempo": 120.0
            },
            {
                "start_time": 35.025,
                "end_time": 35.1431818,
                "pitch": 48,
                "velocity": 80,
                "duration": 0.1181818,
                "tempo": 120.0
            },
            {
                "start_time": 35.1431818,
                "end_time": 35.2613636,
                "pitch": 67,
                "velocity": 80,
                "duration": 0.1181818,
                "tempo": 120.0
            },
            {
                "start_time": 35.2613636,
                "end_time": 35.3795455,
                "pitch": 48,
                "velocity": 80,
                "duration": 0.1181818,
                "tempo": 120.0
            },
            {
                "start_time": 35.3795455,
                "end_time": 35.5,
                "pitch": 48,
                "velocity": 80,
                "duration": 0.1204545,
                "tempo": 120.0
            },
            {
                "start_time": 35.5,
                "end_time": 35.6363636,
                "pitch": 67,
                "velocity": 80,
                "duration": 0.1363636,
                "tempo": 120.0
            },
            {
                "start_time": 35.6363636,
                "end_time": 35.7568182,
                "pitch": 48,
                "velocity": 80,
                "duration": 0.1204545,
                "tempo": 120.0
            },
            {
                "start_time": 35.7568182,
                "end_time": 35.8727273,
                "pitch": 48,
                "velocity": 80,
                "duration": 0.1159091,
                "tempo": 120.0
            },
            {
                "start_time": 35.8727273,
                "end_time": 35.9909091,
                "pitch": 67,
                "velocity": 80,
                "duration": 0.1181818,
                "tempo": 120.0
            },
            {
                "start_time": 35.9909091,
                "end_time": 36.1068182,
                "pitch": 48,
                "velocity": 80,
                "duration": 0.1159091,
                "tempo": 120.0
            },
            {
                "start_time": 36.1068182,
                "end_time": 36.2409091,
                "pitch": 48,
                "velocity": 80,
                "duration": 0.1340909,
                "tempo": 120.0
            },
            {
                "start_time": 36.2409091,
                "end_time": 36.3590909,
                "pitch": 67,
                "velocity": 80,
                "duration": 0.1181818,
                "tempo": 120.0
            },
            {
                "start_time": 36.3590909,
                "end_time": 36.4795455,
                "pitch": 48,
                "velocity": 80,
                "duration": 0.1204545,
                "tempo": 120.0
            },
            {
                "start_time": 36.4795455,
                "end_time": 36.5977273,
                "pitch": 67,
                "velocity": 80,
                "duration": 0.1181818,
                "tempo": 120.0
            },
            {
                "start_time": 36.5977273,
                "end_time": 36.7204545,
                "pitch": 48,
                "velocity": 80,
                "duration": 0.1227273,
                "tempo": 120.0
            },
            {
                "start_time": 36.7204545,
                "end_time": 36.8477273,
                "pitch": 67,
                "velocity": 80,
                "duration": 0.1272727,
                "tempo": 120.0
            },
            {
                "start_time": 36.8477273,
                "end_time": 36.9590909,
                "pitch": 48,
                "velocity": 80,
                "duration": 0.1113636,
                "tempo": 120.0
            },
            {
                "start_time": 36.9590909,
                "end_time": 37.0704545,
                "pitch": 48,
                "velocity": 80,
                "duration": 0.1113636,
                "tempo": 120.0
            },
            {
                "start_time": 37.0727273,
                "end_time": 37.1840909,
                "pitch": 67,
                "velocity": 80,
                "duration": 0.1113636,
                "tempo": 120.0
            },
            {
                "start_time": 37.1840909,
                "end_time": 37.3022727,
                "pitch": 48,
                "velocity": 80,
                "duration": 0.1181818,
                "tempo": 120.0
            },
            {
                "start_time": 37.3022727,
                "end_time": 37.4409091,
                "pitch": 48,
                "velocity": 80,
                "duration": 0.1386364,
                "tempo": 120.0
            },
            {
                "start_time": 37.4409091,
                "end_time": 37.5590909,
                "pitch": 67,
                "velocity": 80,
                "duration": 0.1181818,
                "tempo": 120.0
            },
            {
                "start_time": 37.5590909,
                "end_time": 37.6818182,
                "pitch": 48,
                "velocity": 80,
                "duration": 0.1227273,
                "tempo": 120.0
            },
            {
                "start_time": 37.6818182,
                "end_time": 37.7977273,
                "pitch": 48,
                "velocity": 80,
                "duration": 0.1159091,
                "tempo": 120.0
            },
            {
                "start_time": 37.7977273,
                "end_time": 37.9159091,
                "pitch": 67,
                "velocity": 80,
                "duration": 0.1181818,
                "tempo": 120.0
            },
            {
                "start_time": 37.9159091,
                "end_time": 38.05,
                "pitch": 48,
                "velocity": 80,
                "duration": 0.1340909,
                "tempo": 120.0
            },
            {
                "start_time": 38.05,
                "end_time": 38.1681818,
                "pitch": 48,
                "velocity": 80,
                "duration": 0.1181818,
                "tempo": 120.0
            },
            {
                "start_time": 38.1681818,
                "end_time": 38.2863636,
                "pitch": 67,
                "velocity": 80,
                "duration": 0.1181818,
                "tempo": 120.0
            },
            {
                "start_time": 38.2863636,
                "end_time": 38.4068182,
                "pitch": 48,
                "velocity": 80,
                "duration": 0.1204545,
                "tempo": 120.0
            },
            {
                "start_time": 38.4068182,
                "end_time": 38.525,
                "pitch": 67,
                "velocity": 80,
                "duration": 0.1181818,
                "tempo": 120.0
            },
            {
                "start_time": 38.525,
                "end_time": 38.6636364,
                "pitch": 48,
                "velocity": 80,
                "duration": 0.1386364,
                "tempo": 120.0
            },
            {
                "start_time": 38.6659091,
                "end_time": 38.7818182,
                "pitch": 65,
                "velocity": 80,
                "duration": 0.1159091,
                "tempo": 120.0
            },
            {
                "start_time": 38.7818182,
                "end_time": 38.9,
                "pitch": 48,
                "velocity": 80,
                "duration": 0.1181818,
                "tempo": 120.0
            },
            {
                "start_time": 38.9,
                "end_time": 39.0159091,
                "pitch": 48,
                "velocity": 80,
                "duration": 0.1159091,
                "tempo": 120.0
            },
            {
                "start_time": 39.0159091,
                "end_time": 39.1340909,
                "pitch": 65,
                "velocity": 80,
                "duration": 0.1181818,
                "tempo": 120.0
            },
            {
                "start_time": 39.1340909,
                "end_time": 39.2636364,
                "pitch": 48,
                "velocity": 80,
                "duration": 0.1295455,
                "tempo": 120.0
            },
            {
                "start_time": 39.2659091,
                "end_time": 39.3818182,
                "pitch": 48,
                "velocity": 80,
                "duration": 0.1159091,
                "tempo": 120.0
            },
            {
                "start_time": 39.3818182,
                "end_time": 39.4954545,
                "pitch": 65,
                "velocity": 80,
                "duration": 0.1136364,
                "tempo": 120.0
            },
            {
                "start_time": 39.4954545,
                "end_time": 39.6113636,
                "pitch": 48,
                "velocity": 80,
                "duration": 0.1159091,
                "tempo": 120.0
            },
            {
                "start_time": 39.6113636,
                "end_time": 39.7272727,
                "pitch": 48,
                "velocity": 80,
                "duration": 0.1159091,
                "tempo": 120.0
            },
            {
                "start_time": 39.7272727,
                "end_time": 39.8613636,
                "pitch": 65,
                "velocity": 80,
                "duration": 0.1340909,
                "tempo": 120.0
            },
            {
                "start_time": 39.8613636,
                "end_time": 39.9772727,
                "pitch": 48,
                "velocity": 80,
                "duration": 0.1159091,
                "tempo": 120.0
            },
            {
                "start_time": 39.9772727,
                "end_time": 40.0954545,
                "pitch": 48,
                "velocity": 80,
                "duration": 0.1181818,
                "tempo": 120.0
            },
            {
                "start_time": 40.0954545,
                "end_time": 40.2113636,
                "pitch": 65,
                "velocity": 80,
                "duration": 0.1159091,
                "tempo": 120.0
            },
            {
                "start_time": 40.2113636,
                "end_time": 40.3318182,
                "pitch": 48,
                "velocity": 80,
                "duration": 0.1204545,
                "tempo": 120.0
            },
            {
                "start_time": 40.3318182,
                "end_time": 40.4659091,
                "pitch": 65,
                "velocity": 80,
                "duration": 0.1340909,
                "tempo": 120.0
            },
            {
                "start_time": 40.4659091,
                "end_time": 40.5840909,
                "pitch": 48,
                "velocity": 80,
                "duration": 0.1181818,
                "tempo": 120.0
            },
            {
                "start_time": 40.5840909,
                "end_time": 40.7022727,
                "pitch": 65,
                "velocity": 80,
                "duration": 0.1181818,
                "tempo": 120.0
            },
            {
                "start_time": 40.7022727,
                "end_time": 40.8227273,
                "pitch": 48,
                "velocity": 80,
                "duration": 0.1204545,
                "tempo": 120.0
            },
            {
                "start_time": 40.8227273,
                "end_time": 40.9409091,
                "pitch": 48,
                "velocity": 80,
                "duration": 0.1181818,
                "tempo": 120.0
            },
            {
                "start_time": 40.9409091,
                "end_time": 41.0795455,
                "pitch": 65,
                "velocity": 80,
                "duration": 0.1386364,
                "tempo": 120.0
            },
            {
                "start_time": 41.0795455,
                "end_time": 41.1931818,
                "pitch": 48,
                "velocity": 80,
                "duration": 0.1136364,
                "tempo": 120.0
            },
            {
                "start_time": 41.1931818,
                "end_time": 41.3113636,
                "pitch": 48,
                "velocity": 80,
                "duration": 0.1181818,
                "tempo": 120.0
            },
            {
                "start_time": 41.3113636,
                "end_time": 41.4272727,
                "pitch": 65,
                "velocity": 80,
                "duration": 0.1159091,
                "tempo": 120.0
            },
            {
                "start_time": 41.4295455,
                "end_time": 41.5477273,
                "pitch": 48,
                "velocity": 80,
                "duration": 0.1181818,
                "tempo": 120.0
            },
            {
                "start_time": 41.5477273,
                "end_time": 41.6772727,
                "pitch": 48,
                "velocity": 80,
                "duration": 0.1295455,
                "tempo": 120.0
            },
            {
                "start_time": 41.6772727,
                "end_time": 41.7931818,
                "pitch": 65,
                "velocity": 80,
                "duration": 0.1159091,
                "tempo": 120.0
            },
            {
                "start_time": 41.7931818,
                "end_time": 41.9068182,
                "pitch": 48,
                "velocity": 80,
                "duration": 0.1136364,
                "tempo": 120.0
            },
            {
                "start_time": 41.9068182,
                "end_time": 42.0204545,
                "pitch": 48,
                "velocity": 80,
                "duration": 0.1136364,
                "tempo": 120.0
            },
            {
                "start_time": 42.0227273,
                "end_time": 42.1409091,
                "pitch": 65,
                "velocity": 80,
                "duration": 0.1181818,
                "tempo": 120.0
            },
            {
                "start_time": 42.1409091,
                "end_time": 42.2772727,
                "pitch": 48,
                "velocity": 80,
                "duration": 0.1363636,
                "tempo": 120.0
            },
            {
                "start_time": 42.2795455,
                "end_time": 42.3977273,
                "pitch": 65,
                "velocity": 80,
                "duration": 0.1181818,
                "tempo": 120.0
            },
            {
                "start_time": 42.3977273,
                "end_time": 42.5181818,
                "pitch": 48,
                "velocity": 80,
                "duration": 0.1204545,
                "tempo": 120.0
            },
            {
                "start_time": 42.5181818,
                "end_time": 42.6340909,
                "pitch": 65,
                "velocity": 80,
                "duration": 0.1159091,
                "tempo": 120.0
            },
            {
                "start_time": 42.6340909,
                "end_time": 42.75,
                "pitch": 49,
                "velocity": 80,
                "duration": 0.1159091,
                "tempo": 120.0
            },
            {
                "start_time": 42.7522727,
                "end_time": 42.8840909,
                "pitch": 49,
                "velocity": 80,
                "duration": 0.1318182,
                "tempo": 120.0
            },
            {
                "start_time": 42.8863636,
                "end_time": 43.0022727,
                "pitch": 65,
                "velocity": 80,
                "duration": 0.1159091,
                "tempo": 120.0
            },
            {
                "start_time": 43.0022727,
                "end_time": 43.1181818,
                "pitch": 49,
                "velocity": 80,
                "duration": 0.1159091,
                "tempo": 120.0
            },
            {
                "start_time": 43.1181818,
                "end_time": 43.2386364,
                "pitch": 49,
                "velocity": 80,
                "duration": 0.1204545,
                "tempo": 120.0
            },
            {
                "start_time": 43.2386364,
                "end_time": 43.3545455,
                "pitch": 65,
                "velocity": 80,
                "duration": 0.1159091,
                "tempo": 120.0
            },
            {
                "start_time": 43.3545455,
                "end_time": 43.4909091,
                "pitch": 49,
                "velocity": 80,
                "duration": 0.1363636,
                "tempo": 120.0
            },
            {
                "start_time": 43.4909091,
                "end_time": 43.6090909,
                "pitch": 49,
                "velocity": 80,
                "duration": 0.1181818,
                "tempo": 120.0
            },
            {
                "start_time": 43.6090909,
                "end_time": 43.7295455,
                "pitch": 65,
                "velocity": 80,
                "duration": 0.1204545,
                "tempo": 120.0
            },
            {
                "start_time": 43.7295455,
                "end_time": 43.85,
                "pitch": 49,
                "velocity": 80,
                "duration": 0.1204545,
                "tempo": 120.0
            },
            {
                "start_time": 43.85,
                "end_time": 43.9681818,
                "pitch": 49,
                "velocity": 80,
                "duration": 0.1181818,
                "tempo": 120.0
            },
            {
                "start_time": 43.9681818,
                "end_time": 44.0954545,
                "pitch": 65,
                "velocity": 80,
                "duration": 0.1272727,
                "tempo": 120.0
            },
            {
                "start_time": 44.0954545,
                "end_time": 44.2090909,
                "pitch": 49,
                "velocity": 80,
                "duration": 0.1136364,
                "tempo": 120.0
            },
            {
                "start_time": 44.2090909,
                "end_time": 44.3204545,
                "pitch": 65,
                "velocity": 80,
                "duration": 0.1113636,
                "tempo": 120.0
            },
            {
                "start_time": 44.3204545,
                "end_time": 44.4340909,
                "pitch": 49,
                "velocity": 80,
                "duration": 0.1136364,
                "tempo": 120.0
            },
            {
                "start_time": 44.4340909,
                "end_time": 44.55,
                "pitch": 65,
                "velocity": 80,
                "duration": 0.1159091,
                "tempo": 120.0
            },
            {
                "start_time": 44.55,
                "end_time": 44.6863636,
                "pitch": 48,
                "velocity": 80,
                "duration": 0.1363636,
                "tempo": 120.0
            },
            {
                "start_time": 44.6863636,
                "end_time": 44.8045455,
                "pitch": 48,
                "velocity": 80,
                "duration": 0.1181818,
                "tempo": 120.0
            },
            {
                "start_time": 44.8045455,
                "end_time": 44.9204545,
                "pitch": 65,
                "velocity": 80,
                "duration": 0.1159091,
                "tempo": 120.0
            },
            {
                "start_time": 44.9204545,
                "end_time": 45.0409091,
                "pitch": 48,
                "velocity": 80,
                "duration": 0.1204545,
                "tempo": 120.0
            },
            {
                "start_time": 45.0409091,
                "end_time": 45.1613636,
                "pitch": 48,
                "velocity": 80,
                "duration": 0.1204545,
                "tempo": 120.0
            },
            {
                "start_time": 45.1613636,
                "end_time": 45.2977273,
                "pitch": 65,
                "velocity": 80,
                "duration": 0.1363636,
                "tempo": 120.0
            },
            {
                "start_time": 45.2977273,
                "end_time": 45.4181818,
                "pitch": 48,
                "velocity": 80,
                "duration": 0.1204545,
                "tempo": 120.0
            },
            {
                "start_time": 45.4181818,
                "end_time": 45.5363636,
                "pitch": 48,
                "velocity": 80,
                "duration": 0.1181818,
                "tempo": 120.0
            },
            {
                "start_time": 45.5363636,
                "end_time": 45.6568182,
                "pitch": 65,
                "velocity": 80,
                "duration": 0.1204545,
                "tempo": 120.0
            },
            {
                "start_time": 45.6568182,
                "end_time": 45.7772727,
                "pitch": 48,
                "velocity": 80,
                "duration": 0.1204545,
                "tempo": 120.0
            },
            {
                "start_time": 45.7772727,
                "end_time": 45.9113636,
                "pitch": 48,
                "velocity": 80,
                "duration": 0.1340909,
                "tempo": 120.0
            },
            {
                "start_time": 45.9136364,
                "end_time": 46.0295455,
                "pitch": 65,
                "velocity": 80,
                "duration": 0.1159091,
                "tempo": 120.0
            },
            {
                "start_time": 46.0318182,
                "end_time": 46.15,
                "pitch": 48,
                "velocity": 80,
                "duration": 0.1181818,
                "tempo": 120.0
            },
            {
                "start_time": 46.15,
                "end_time": 46.2659091,
                "pitch": 65,
                "velocity": 80,
                "duration": 0.1159091,
                "tempo": 120.0
            },
            {
                "start_time": 46.2659091,
                "end_time": 46.3840909,
                "pitch": 48,
                "velocity": 80,
                "duration": 0.1181818,
                "tempo": 120.0
            },
            {
                "start_time": 46.3840909,
                "end_time": 46.5136364,
                "pitch": 65,
                "velocity": 80,
                "duration": 0.1295455,
                "tempo": 120.0
            },
            {
                "start_time": 46.5159091,
                "end_time": 46.6295455,
                "pitch": 53,
                "velocity": 80,
                "duration": 0.1136364,
                "tempo": 120.0
            },
            {
                "start_time": 46.6295455,
                "end_time": 46.7454545,
                "pitch": 53,
                "velocity": 80,
                "duration": 0.1159091,
                "tempo": 120.0
            },
            {
                "start_time": 46.7454545,
                "end_time": 46.8613636,
                "pitch": 65,
                "velocity": 80,
                "duration": 0.1159091,
                "tempo": 120.0
            },
            {
                "start_time": 46.8613636,
                "end_time": 46.975,
                "pitch": 53,
                "velocity": 80,
                "duration": 0.1136364,
                "tempo": 120.0
            },
            {
                "start_time": 46.975,
                "end_time": 47.1113636,
                "pitch": 53,
                "velocity": 80,
                "duration": 0.1363636,
                "tempo": 120.0
            },
            {
                "start_time": 47.1113636,
                "end_time": 47.2272727,
                "pitch": 65,
                "velocity": 80,
                "duration": 0.1159091,
                "tempo": 120.0
            },
            {
                "start_time": 47.2272727,
                "end_time": 47.3454545,
                "pitch": 53,
                "velocity": 80,
                "duration": 0.1181818,
                "tempo": 120.0
            },
            {
                "start_time": 47.3454545,
                "end_time": 47.4636364,
                "pitch": 53,
                "velocity": 80,
                "duration": 0.1181818,
                "tempo": 120.0
            },
            {
                "start_time": 47.4636364,
                "end_time": 47.5840909,
                "pitch": 65,
                "velocity": 80,
                "duration": 0.1204545,
                "tempo": 120.0
            },
            {
                "start_time": 47.5840909,
                "end_time": 47.7204545,
                "pitch": 53,
                "velocity": 80,
                "duration": 0.1363636,
                "tempo": 120.0
            },
            {
                "start_time": 47.7204545,
                "end_time": 47.8386364,
                "pitch": 53,
                "velocity": 80,
                "duration": 0.1181818,
                "tempo": 120.0
            },
            {
                "start_time": 47.8386364,
                "end_time": 47.9568182,
                "pitch": 65,
                "velocity": 80,
                "duration": 0.1181818,
                "tempo": 120.0
            },
            {
                "start_time": 47.9568182,
                "end_time": 48.0772727,
                "pitch": 53,
                "velocity": 80,
                "duration": 0.1204545,
                "tempo": 120.0
            },
            {
                "start_time": 48.0772727,
                "end_time": 48.1931818,
                "pitch": 65,
                "velocity": 80,
                "duration": 0.1159091,
                "tempo": 120.0
            },
            {
                "start_time": 48.1931818,
                "end_time": 48.3295455,
                "pitch": 53,
                "velocity": 80,
                "duration": 0.1363636,
                "tempo": 120.0
            },
            {
                "start_time": 48.3295455,
                "end_time": 48.4431818,
                "pitch": 65,
                "velocity": 80,
                "duration": 0.1136364,
                "tempo": 120.0
            },
            {
                "start_time": 48.4431818,
                "end_time": 48.5613636,
                "pitch": 53,
                "velocity": 80,
                "duration": 0.1181818,
                "tempo": 120.0
            },
            {
                "start_time": 48.5613636,
                "end_time": 48.6772727,
                "pitch": 53,
                "velocity": 80,
                "duration": 0.1159091,
                "tempo": 120.0
            },
            {
                "start_time": 48.6772727,
                "end_time": 48.7954545,
                "pitch": 65,
                "velocity": 80,
                "duration": 0.1181818,
                "tempo": 120.0
            },
            {
                "start_time": 48.7954545,
                "end_time": 48.925,
                "pitch": 53,
                "velocity": 80,
                "duration": 0.1295455,
                "tempo": 120.0
            },
            {
                "start_time": 48.925,
                "end_time": 49.0431818,
                "pitch": 53,
                "velocity": 80,
                "duration": 0.1181818,
                "tempo": 120.0
            },
            {
                "start_time": 49.0431818,
                "end_time": 49.1545455,
                "pitch": 65,
                "velocity": 80,
                "duration": 0.1113636,
                "tempo": 120.0
            },
            {
                "start_time": 49.1568182,
                "end_time": 49.2727273,
                "pitch": 53,
                "velocity": 80,
                "duration": 0.1159091,
                "tempo": 120.0
            },
            {
                "start_time": 49.2727273,
                "end_time": 49.3909091,
                "pitch": 53,
                "velocity": 80,
                "duration": 0.1181818,
                "tempo": 120.0
            },
            {
                "start_time": 49.3909091,
                "end_time": 49.5272727,
                "pitch": 65,
                "velocity": 80,
                "duration": 0.1363636,
                "tempo": 120.0
            },
            {
                "start_time": 49.5272727,
                "end_time": 49.6477273,
                "pitch": 53,
                "velocity": 80,
                "duration": 0.1204545,
                "tempo": 120.0
            },
            {
                "start_time": 49.6477273,
                "end_time": 49.7659091,
                "pitch": 53,
                "velocity": 80,
                "duration": 0.1181818,
                "tempo": 120.0
            },
            {
                "start_time": 49.7659091,
                "end_time": 49.8818182,
                "pitch": 65,
                "velocity": 80,
                "duration": 0.1159091,
                "tempo": 120.0
            },
            {
                "start_time": 49.8818182,
                "end_time": 50.0022727,
                "pitch": 53,
                "velocity": 80,
                "duration": 0.1204545,
                "tempo": 120.0
            },
            {
                "start_time": 50.0022727,
                "end_time": 50.1318182,
                "pitch": 65,
                "velocity": 80,
                "duration": 0.1295455,
                "tempo": 120.0
            },
            {
                "start_time": 50.1340909,
                "end_time": 50.2522727,
                "pitch": 53,
                "velocity": 80,
                "duration": 0.1181818,
                "tempo": 120.0
            },
            {
                "start_time": 50.2522727,
                "end_time": 50.3681818,
                "pitch": 65,
                "velocity": 80,
                "duration": 0.1159091,
                "tempo": 120.0
            },
            {
                "start_time": 50.3681818,
                "end_time": 50.4863636,
                "pitch": 48,
                "velocity": 80,
                "duration": 0.1181818,
                "tempo": 120.0
            },
            {
                "start_time": 50.4863636,
                "end_time": 50.6022727,
                "pitch": 48,
                "velocity": 80,
                "duration": 0.1159091,
                "tempo": 120.0
            },
            {
                "start_time": 50.6045455,
                "end_time": 50.7386364,
                "pitch": 65,
                "velocity": 80,
                "duration": 0.1340909,
                "tempo": 120.0
            },
            {
                "start_time": 50.7386364,
                "end_time": 50.8568182,
                "pitch": 48,
                "velocity": 80,
                "duration": 0.1181818,
                "tempo": 120.0
            },
            {
                "start_time": 50.8568182,
                "end_time": 50.9772727,
                "pitch": 48,
                "velocity": 80,
                "duration": 0.1204545,
                "tempo": 120.0
            },
            {
                "start_time": 50.9772727,
                "end_time": 51.0977273,
                "pitch": 65,
                "velocity": 80,
                "duration": 0.1204545,
                "tempo": 120.0
            },
            {
                "start_time": 51.0977273,
                "end_time": 51.2159091,
                "pitch": 48,
                "velocity": 80,
                "duration": 0.1181818,
                "tempo": 120.0
            },
            {
                "start_time": 51.2181818,
                "end_time": 51.3454545,
                "pitch": 48,
                "velocity": 80,
                "duration": 0.1272727,
                "tempo": 120.0
            },
            {
                "start_time": 51.3454545,
                "end_time": 51.4568182,
                "pitch": 65,
                "velocity": 80,
                "duration": 0.1113636,
                "tempo": 120.0
            },
            {
                "start_time": 51.4568182,
                "end_time": 51.5704545,
                "pitch": 48,
                "velocity": 80,
                "duration": 0.1136364,
                "tempo": 120.0
            },
            {
                "start_time": 51.5704545,
                "end_time": 51.6818182,
                "pitch": 48,
                "velocity": 80,
                "duration": 0.1113636,
                "tempo": 120.0
            },
            {
                "start_time": 51.6818182,
                "end_time": 51.8022727,
                "pitch": 65,
                "velocity": 80,
                "duration": 0.1204545,
                "tempo": 120.0
            },
            {
                "start_time": 51.8022727,
                "end_time": 51.9386364,
                "pitch": 48,
                "velocity": 80,
                "duration": 0.1363636,
                "tempo": 120.0
            },
            {
                "start_time": 51.9409091,
                "end_time": 52.0590909,
                "pitch": 65,
                "velocity": 80,
                "duration": 0.1181818,
                "tempo": 120.0
            },
            {
                "start_time": 52.0590909,
                "end_time": 52.1795455,
                "pitch": 48,
                "velocity": 80,
                "duration": 0.1204545,
                "tempo": 120.0
            },
            {
                "start_time": 52.1795455,
                "end_time": 52.2931818,
                "pitch": 65,
                "velocity": 80,
                "duration": 0.1136364,
                "tempo": 120.0
            },
            {
                "start_time": 52.2931818,
                "end_time": 52.4113636,
                "pitch": 48,
                "velocity": 80,
                "duration": 0.1181818,
                "tempo": 120.0
            },
            {
                "start_time": 52.4113636,
                "end_time": 52.5454545,
                "pitch": 48,
                "velocity": 80,
                "duration": 0.1340909,
                "tempo": 120.0
            },
            {
                "start_time": 52.5454545,
                "end_time": 52.6636364,
                "pitch": 65,
                "velocity": 80,
                "duration": 0.1181818,
                "tempo": 120.0
            },
            {
                "start_time": 52.6636364,
                "end_time": 52.7772727,
                "pitch": 48,
                "velocity": 80,
                "duration": 0.1136364,
                "tempo": 120.0
            },
            {
                "start_time": 52.7772727,
                "end_time": 52.8977273,
                "pitch": 48,
                "velocity": 80,
                "duration": 0.1204545,
                "tempo": 120.0
            },
            {
                "start_time": 52.8977273,
                "end_time": 53.0136364,
                "pitch": 65,
                "velocity": 80,
                "duration": 0.1159091,
                "tempo": 120.0
            },
            {
                "start_time": 53.0136364,
                "end_time": 53.15,
                "pitch": 48,
                "velocity": 80,
                "duration": 0.1363636,
                "tempo": 120.0
            },
            {
                "start_time": 53.15,
                "end_time": 53.2681818,
                "pitch": 48,
                "velocity": 80,
                "duration": 0.1181818,
                "tempo": 120.0
            },
            {
                "start_time": 53.2681818,
                "end_time": 53.3886364,
                "pitch": 65,
                "velocity": 80,
                "duration": 0.1204545,
                "tempo": 120.0
            },
            {
                "start_time": 53.3886364,
                "end_time": 53.5090909,
                "pitch": 48,
                "velocity": 80,
                "duration": 0.1204545,
                "tempo": 120.0
            },
            {
                "start_time": 53.5090909,
                "end_time": 53.6295455,
                "pitch": 48,
                "velocity": 80,
                "duration": 0.1204545,
                "tempo": 120.0
            },
            {
                "start_time": 53.6295455,
                "end_time": 53.7590909,
                "pitch": 65,
                "velocity": 80,
                "duration": 0.1295455,
                "tempo": 120.0
            },
            {
                "start_time": 53.7590909,
                "end_time": 53.875,
                "pitch": 48,
                "velocity": 80,
                "duration": 0.1159091,
                "tempo": 120.0
            },
            {
                "start_time": 53.875,
                "end_time": 53.9909091,
                "pitch": 65,
                "velocity": 80,
                "duration": 0.1159091,
                "tempo": 120.0
            }
        ]
    }
}