{
    "mood": "angry",
    "instruments": {
        "Harpsichord": [
            {
                "start_time": 0.0954545,
                "end_time": 0.6795455,
                "pitch": 64,
                "velocity": 64,
                "duration": 0.5840909,
                "tempo": 120.0
            },
            {
                "start_time": 0.6795455,
                "end_time": 0.8772727,
                "pitch": 62,
                "velocity": 64,
                "duration": 0.1977273,
                "tempo": 120.0
            },
            {
                "start_time": 0.8772727,
                "end_time": 1.2863636,
                "pitch": 62,
                "velocity": 64,
                "duration": 0.4090909,
                "tempo": 120.0
            },
            {
                "start_time": 1.2863636,
                "end_time": 1.4863636,
                "pitch": 60,
                "velocity": 64,
                "duration": 0.2,
                "tempo": 120.0
            },
            {
                "start_time": 1.2863636,
                "end_time": 1.4863636,
                "pitch": 60,
                "velocity": 64,
                "duration": 0.2,
                "tempo": 120.0
            },
            {
                "start_time": 1.4863636,
                "end_time": 1.6886364,
                "pitch": 59,
                "velocity": 64,
                "duration": 0.2022727,
                "tempo": 120.0
            },
            {
                "start_time": 1.6886364,
                "end_time": 1.7886364,
                "pitch": 60,
                "velocity": 64,
                "duration": 0.1,
                "tempo": 120.0
            },
            {
                "start_time": 1.7886364,
                "end_time": 1.8886364,
                "pitch": 62,
                "velocity": 64,
                "duration": 0.1,
                "tempo": 120.0
            },
            {
                "start_time": 1.7886364,
                "end_time": 1.8886364,
                "pitch": 62,
                "velocity": 64,
                "duration": 0.1,
                "tempo": 120.0
            },
            {
                "start_time": 1.4863636,
                "end_time": 2.2909091,
                "pitch": 44,
                "velocity": 64,
                "duration": 0.8045455,
                "tempo": 120.0
            },
            {
                "start_time": 1.8886364,
                "end_time": 2.2909091,
                "pitch": 60,
                "velocity": 64,
                "duration": 0.4022727,
                "tempo": 120.0
            },
            {
                "start_time": 1.8886364,
                "end_time": 2.2909091,
                "pitch": 60,
                "velocity": 64,
                "duration": 0.4022727,
                "tempo": 120.0
            },
            {
                "start_time": 2.2909091,
                "end_time": 2.4909091,
                "pitch": 59,
                "velocity": 64,
                "duration": 0.2,
                "tempo": 120.0
            },
            {
                "start_time": 2.4909091,
                "end_time": 2.8909091,
                "pitch": 57,
                "velocity": 64,
                "duration": 0.4,
                "tempo": 120.0
            },
            {
                "start_time": 2.8909091,
                "end_time": 3.0909091,
                "pitch": 57,
                "velocity": 64,
                "duration": 0.2,
                "tempo": 120.0
            },
            {
                "start_time": 3.0909091,
                "end_time": 3.2931818,
                "pitch": 59,
                "velocity": 64,
                "duration": 0.2022727,
                "tempo": 120.0
            },
            {
                "start_time": 1.6886364,
                "end_time": 3.2931818,
                "pitch": 64,
                "velocity": 64,
                "duration": 1.6045455,
                "tempo": 120.0
            },
            {
                "start_time": 2.2909091,
                "end_time": 4.0954545,
                "pitch": 44,
                "velocity": 64,
                "duration": 1.8045455,
                "tempo": 120.0
            },
            {
                "start_time": 3.2931818,
                "end_time": 4.0954545,
                "pitch": 60,
                "velocity": 64,
                "duration": 0.8022727,
                "tempo": 120.0
            },
            {
                "start_time": 4.0954545,
                "end_time": 4.6977273,
                "pitch": 59,
                "velocity": 64,
                "duration": 0.6022727,
                "tempo": 120.0
            },
            {
                "start_time": 4.6977273,
                "end_time": 4.9,
                "pitch": 55,
                "velocity": 64,
                "duration": 0.2022727,
                "tempo": 120.0
            },
            {
                "start_time": 4.6977273,
                "end_time": 4.9,
                "pitch": 55,
                "velocity": 64,
                "duration": 0.2022727,
                "tempo": 120.0
            },
            {
                "start_time": 4.9,
                "end_time": 5.0,
                "pitch": 57,
                "velocity": 64,
                "duration": 0.1,
                "tempo": 120.0
            },
            {
                "start_time": 5.0,
                "end_time": 5.1,
                "pitch": 59,
                "velocity": 64,
                "duration": 0.1,
                "tempo": 120.0
            },
            {
                "start_time": 5.1,
                "end_time": 6.3068182,
                "pitch": 57,
                "velocity": 64,
                "duration": 1.2068182,
                "tempo": 120.0
            },
            {
                "start_time": 6.3068182,
                "end_time": 6.3568182,
                "pitch": 57,
                "velocity": 64,
                "duration": 0.05,
                "tempo": 120.0
            },
            {
                "start_time": 6.3568182,
                "end_time": 6.4090909,
                "pitch": 59,
                "velocity": 64,
                "duration": 0.0522727,
                "tempo": 120.0
            },
            {
                "start_time": 3.2931818,
                "end_time": 6.4090909,
                "pitch": 64,
                "velocity": 64,
                "duration": 3.1159091,
                "tempo": 120.0
            },
            {
                "start_time": 6.4090909,
                "end_time": 6.4568182,
                "pitch": 60,
                "velocity": 64,
                "duration": 0.0477273,
                "tempo": 120.0
            },
            {
                "start_time": 6.4568182,
                "end_time": 6.5090909,
                "pitch": 62,
                "velocity": 64,
                "duration": 0.0522727,
                "tempo": 120.0
            },
            {
                "start_time": 6.4568182,
                "end_time": 6.5090909,
                "pitch": 62,
                "velocity": 64,
                "duration": 0.0522727,
                "tempo": 120.0
            },
            {
                "start_time": 6.4090909,
                "end_time": 7.1113636,
                "pitch": 64,
                "velocity": 64,
                "duration": 0.7022727,
                "tempo": 120.0
            },
            {
                "start_time": 6.5090909,
                "end_time": 7.1113636,
                "pitch": 64,
                "velocity": 64,
                "duration": 0.6022727,
                "tempo": 120.0
            },
            {
                "start_time": 7.1113636,
                "end_time": 7.3113636,
                "pitch": 62,
                "velocity": 64,
                "duration": 0.2,
                "tempo": 120.0
            },
            {
                "start_time": 7.3113636,
                "end_time": 7.7159091,
                "pitch": 62,
                "velocity": 64,
                "duration": 0.4045455,
                "tempo": 120.0
            },
            {
                "start_time": 4.0954545,
                "end_time": 7.9227273,
                "pitch": 44,
                "velocity": 64,
                "duration": 3.8272727,
                "tempo": 120.0
            },
            {
                "start_time": 7.7159091,
                "end_time": 7.9227273,
                "pitch": 60,
                "velocity": 64,
                "duration": 0.2068182,
                "tempo": 120.0
            },
            {
                "start_time": 7.7159091,
                "end_time": 7.9227273,
                "pitch": 60,
                "velocity": 64,
                "duration": 0.2068182,
                "tempo": 120.0
            },
            {
                "start_time": 7.9227273,
                "end_time": 8.125,
                "pitch": 59,
                "velocity": 64,
                "duration": 0.2022727,
                "tempo": 120.0
            },
            {
                "start_time": 8.1272727,
                "end_time": 8.225,
                "pitch": 60,
                "velocity": 64,
                "duration": 0.0977273,
                "tempo": 120.0
            },
            {
                "start_time": 8.225,
                "end_time": 8.325,
                "pitch": 62,
                "velocity": 64,
                "duration": 0.1,
                "tempo": 120.0
            },
            {
                "start_time": 8.2272727,
                "end_time": 8.325,
                "pitch": 62,
                "velocity": 64,
                "duration": 0.0977273,
                "tempo": 120.0
            },
            {
                "start_time": 7.9227273,
                "end_time": 8.7272727,
                "pitch": 44,
                "velocity": 64,
                "duration": 0.8045455,
                "tempo": 120.0
            },
            {
                "start_time": 8.325,
                "end_time": 8.7272727,
                "pitch": 60,
                "velocity": 64,
                "duration": 0.4022727,
                "tempo": 120.0
            },
            {
                "start_time": 8.325,
                "end_time": 8.7272727,
                "pitch": 60,
                "velocity": 64,
                "duration": 0.4022727,
                "tempo": 120.0
            },
            {
                "start_time": 8.7272727,
                "end_time": 8.9295455,
                "pitch": 59,
                "velocity": 64,
                "duration": 0.2022727,
                "tempo": 120.0
            },
            {
                "start_time": 8.9295455,
                "end_time": 9.3318182,
                "pitch": 57,
                "velocity": 64,
                "duration": 0.4022727,
                "tempo": 120.0
            },
            {
                "start_time": 9.3318182,
                "end_time": 9.5340909,
                "pitch": 57,
                "velocity": 64,
                "duration": 0.2022727,
                "tempo": 120.0
            },
            {
                "start_time": 9.5340909,
                "end_time": 9.7363636,
                "pitch": 59,
                "velocity": 64,
                "duration": 0.2022727,
                "tempo": 120.0
            },
            {
                "start_time": 8.125,
                "end_time": 9.7363636,
                "pitch": 64,
                "velocity": 64,
                "duration": 1.6113636,
                "tempo": 120.0
            },
            {
                "start_time": 8.7272727,
                "end_time": 10.5409091,
                "pitch": 44,
                "velocity": 64,
                "duration": 1.8136364,
                "tempo": 120.0
            },
            {
                "start_time": 9.7363636,
                "end_time": 10.5409091,
                "pitch": 60,
                "velocity": 64,
                "duration": 0.8045455,
                "tempo": 120.0
            },
            {
                "start_time": 10.5409091,
                "end_time": 11.1454545,
                "pitch": 59,
                "velocity": 64,
                "duration": 0.6045455,
                "tempo": 120.0
            },
            {
                "start_time": 11.1454545,
                "end_time": 11.3477273,
                "pitch": 55,
                "velocity": 64,
                "duration": 0.2022727,
                "tempo": 120.0
            },
            {
                "start_time": 11.1454545,
                "end_time": 11.3477273,
                "pitch": 55,
                "velocity": 64,
                "duration": 0.2022727,
                "tempo": 120.0
            },
            {
                "start_time": 11.3477273,
                "end_time": 11.4477273,
                "pitch": 57,
                "velocity": 64,
                "duration": 0.1,
                "tempo": 120.0
            },
            {
                "start_time": 11.4477273,
                "end_time": 11.5477273,
                "pitch": 59,
                "velocity": 64,
                "duration": 0.1,
                "tempo": 120.0
            },
            {
                "start_time": 11.5477273,
                "end_time": 12.7545455,
                "pitch": 57,
                "velocity": 64,
                "duration": 1.2068182,
                "tempo": 120.0
            },
            {
                "start_time": 12.7545455,
                "end_time": 12.8568182,
                "pitch": 57,
                "velocity": 64,
                "duration": 0.1022727,
                "tempo": 120.0
            },
            {
                "start_time": 12.8568182,
                "end_time": 12.9568182,
                "pitch": 59,
                "velocity": 64,
                "duration": 0.1,
                "tempo": 120.0
            },
            {
                "start_time": 9.7363636,
                "end_time": 12.9568182,
                "pitch": 64,
                "velocity": 64,
                "duration": 3.2204545,
                "tempo": 120.0
            },
            {
                "start_time": 10.5409091,
                "end_time": 14.3659091,
                "pitch": 44,
                "velocity": 64,
                "duration": 3.825,
                "tempo": 120.0
            },
            {
                "start_time": 12.9568182,
                "end_time": 14.3659091,
                "pitch": 60,
                "velocity": 64,
                "duration": 1.4090909,
                "tempo": 120.0
            },
            {
                "start_time": 14.3659091,
                "end_time": 14.4681818,
                "pitch": 59,
                "velocity": 64,
                "duration": 0.1022727,
                "tempo": 120.0
            },
            {
                "start_time": 12.9568182,
                "end_time": 14.4681818,
                "pitch": 64,
                "velocity": 64,
                "duration": 1.5113636,
                "tempo": 120.0
            },
            {
                "start_time": 14.4681818,
                "end_time": 14.5681818,
                "pitch": 60,
                "velocity": 64,
                "duration": 0.1,
                "tempo": 120.0
            },
            {
                "start_time": 14.5681818,
                "end_time": 15.975,
                "pitch": 62,
                "velocity": 64,
                "duration": 1.4068182,
                "tempo": 120.0
            },
            {
                "start_time": 14.5681818,
                "end_time": 15.975,
                "pitch": 62,
                "velocity": 64,
                "duration": 1.4068182,
                "tempo": 120.0
            },
            {
                "start_time": 15.975,
                "end_time": 16.075,
                "pitch": 60,
                "velocity": 64,
                "duration": 0.1,
                "tempo": 120.0
            },
            {
                "start_time": 15.975,
                "end_time": 16.075,
                "pitch": 60,
                "velocity": 64,
                "duration": 0.1,
                "tempo": 120.0
            },
            {
                "start_time": 16.075,
                "end_time": 16.1772727,
                "pitch": 62,
                "velocity": 64,
                "duration": 0.1022727,
                "tempo": 120.0
            },
            {
                "start_time": 16.075,
                "end_time": 16.1772727,
                "pitch": 62,
                "velocity": 64,
                "duration": 0.1022727,
                "tempo": 120.0
            },
            {
                "start_time": 14.4681818,
                "end_time": 17.5886364,
                "pitch": 64,
                "velocity": 64,
                "duration": 3.1204545,
                "tempo": 120.0
            },
            {
                "start_time": 16.1772727,
                "end_time": 17.5886364,
                "pitch": 64,
                "velocity": 64,
                "duration": 1.4113636,
                "tempo": 120.0
            },
            {
                "start_time": 17.5886364,
                "end_time": 17.6909091,
                "pitch": 62,
                "velocity": 64,
                "duration": 0.1022727,
                "tempo": 120.0
            },
            {
                "start_time": 17.6909091,
                "end_time": 17.7909091,
                "pitch": 64,
                "velocity": 64,
                "duration": 0.1,
                "tempo": 120.0
            },
            {
                "start_time": 17.7909091,
                "end_time": 18.5931818,
                "pitch": 65,
                "velocity": 64,
                "duration": 0.8022727,
                "tempo": 120.0
            },
            {
                "start_time": 18.5931818,
                "end_time": 18.9954545,
                "pitch": 68,
                "velocity": 64,
                "duration": 0.4022727,
                "tempo": 120.0
            },
            {
                "start_time": 18.9954545,
                "end_time": 35.4818182,
                "pitch": 71,
                "velocity": 64,
                "duration": 16.4863636,
                "tempo": 120.0
            },
            {
                "start_time": 18.9954545,
                "end_time": 35.4818182,
                "pitch": 71,
                "velocity": 64,
                "duration": 16.4863636,
                "tempo": 120.0
            },
            {
                "start_time": 35.4818182,
                "end_time": 35.6795455,
                "pitch": 52,
                "velocity": 64,
                "duration": 0.1977273,
                "tempo": 120.0
            },
            {
                "start_time": 35.6795455,
                "end_time": 35.8795455,
                "pitch": 55,
                "velocity": 64,
                "duration": 0.2,
                "tempo": 120.0
            },
            {
                "start_time": 35.8795455,
                "end_time": 36.0795455,
                "pitch": 57,
                "velocity": 64,
                "duration": 0.2,
                "tempo": 120.0
            },
            {
                "start_time": 36.0795455,
                "end_time": 36.2795455,
                "pitch": 52,
                "velocity": 64,
                "duration": 0.2,
                "tempo": 120.0
            },
            {
                "start_time": 36.2795455,
                "end_time": 36.4795455,
                "pitch": 55,
                "velocity": 64,
                "duration": 0.2,
                "tempo": 120.0
            },
            {
                "start_time": 36.4795455,
                "end_time": 36.6818182,
                "pitch": 57,
                "velocity": 64,
                "duration": 0.2022727,
                "tempo": 120.0
            },
            {
                "start_time": 36.0795455,
                "end_time": 36.6818182,
                "pitch": 66,
                "velocity": 64,
                "duration": 0.6022727,
                "tempo": 120.0
            },
            {
                "start_time": 36.6818182,
                "end_time": 36.8818182,
                "pitch": 52,
                "velocity": 64,
                "duration": 0.2,
                "tempo": 120.0
            },
            {
                "start_time": 36.8818182,
                "end_time": 37.0818182,
                "pitch": 55,
                "velocity": 64,
                "duration": 0.2,
                "tempo": 120.0
            },
            {
                "start_time": 37.0818182,
                "end_time": 37.2840909,
                "pitch": 57,
                "velocity": 64,
                "duration": 0.2022727,
                "tempo": 120.0
            },
            {
                "start_time": 36.6818182,
                "end_time": 37.2840909,
                "pitch": 66,
                "velocity": 64,
                "duration": 0.6022727,
                "tempo": 120.0
            },
            {
                "start_time": 37.2840909,
                "end_time": 37.4840909,
                "pitch": 52,
                "velocity": 64,
                "duration": 0.2,
                "tempo": 120.0
            },
            {
                "start_time": 37.4840909,
                "end_time": 37.6840909,
                "pitch": 55,
                "velocity": 64,
                "duration": 0.2,
                "tempo": 120.0
            },
            {
                "start_time": 37.6840909,
                "end_time": 37.8863636,
                "pitch": 57,
                "velocity": 64,
                "duration": 0.2022727,
                "tempo": 120.0
            },
            {
                "start_time": 14.3659091,
                "end_time": 38.0840909,
                "pitch": 44,
                "velocity": 64,
                "duration": 23.7181818,
                "tempo": 120.0
            },
            {
                "start_time": 37.8863636,
                "end_time": 38.0840909,
                "pitch": 60,
                "velocity": 64,
                "duration": 0.1977273,
                "tempo": 120.0
            },
            {
                "start_time": 38.0840909,
                "end_time": 38.2863636,
                "pitch": 59,
                "velocity": 64,
                "duration": 0.2022727,
                "tempo": 120.0
            },
            {
                "start_time": 38.2863636,
                "end_time": 38.4863636,
                "pitch": 57,
                "velocity": 64,
                "duration": 0.2,
                "tempo": 120.0
            },
            {
                "start_time": 37.2840909,
                "end_time": 38.4863636,
                "pitch": 66,
                "velocity": 64,
                "duration": 1.2022727,
                "tempo": 120.0
            },
            {
                "start_time": 38.4863636,
                "end_time": 38.6863636,
                "pitch": 52,
                "velocity": 64,
                "duration": 0.2,
                "tempo": 120.0
            },
            {
                "start_time": 38.6863636,
                "end_time": 38.8863636,
                "pitch": 50,
                "velocity": 64,
                "duration": 0.2,
                "tempo": 120.0
            },
            {
                "start_time": 38.8863636,
                "end_time": 39.0863636,
                "pitch": 53,
                "velocity": 64,
                "duration": 0.2,
                "tempo": 120.0
            },
            {
                "start_time": 38.8863636,
                "end_time": 39.0863636,
                "pitch": 53,
                "velocity": 64,
                "duration": 0.2,
                "tempo": 120.0
            },
            {
                "start_time": 39.0863636,
                "end_time": 39.2886364,
                "pitch": 55,
                "velocity": 64,
                "duration": 0.2022727,
                "tempo": 120.0
            },
            {
                "start_time": 39.2886364,
                "end_time": 39.4909091,
                "pitch": 50,
                "velocity": 64,
                "duration": 0.2022727,
                "tempo": 120.0
            },
            {
                "start_time": 39.4909091,
                "end_time": 39.6909091,
                "pitch": 53,
                "velocity": 64,
                "duration": 0.2,
                "tempo": 120.0
            },
            {
                "start_time": 39.4909091,
                "end_time": 39.6909091,
                "pitch": 53,
                "velocity": 64,
                "duration": 0.2,
                "tempo": 120.0
            },
            {
                "start_time": 39.6909091,
                "end_time": 39.8909091,
                "pitch": 55,
                "velocity": 64,
                "duration": 0.2,
                "tempo": 120.0
            },
            {
                "start_time": 39.2886364,
                "end_time": 39.8909091,
                "pitch": 65,
                "velocity": 64,
                "duration": 0.6022727,
                "tempo": 120.0
            },
            {
                "start_time": 39.8909091,
                "end_time": 40.0909091,
                "pitch": 50,
                "velocity": 64,
                "duration": 0.2,
                "tempo": 120.0
            },
            {
                "start_time": 40.0909091,
                "end_time": 40.2909091,
                "pitch": 53,
                "velocity": 64,
                "duration": 0.2,
                "tempo": 120.0
            },
            {
                "start_time": 40.0909091,
                "end_time": 40.2909091,
                "pitch": 53,
                "velocity": 64,
                "duration": 0.2,
                "tempo": 120.0
            },
            {
                "start_time": 40.2909091,
                "end_time": 40.4909091,
                "pitch": 55,
                "velocity": 64,
                "duration": 0.2,
                "tempo": 120.0
            },
            {
                "start_time": 39.8909091,
                "end_time": 40.4909091,
                "pitch": 65,
                "velocity": 64,
                "duration": 0.6,
                "tempo": 120.0
            },
            {
                "start_time": 40.4909091,
                "end_time": 40.6931818,
                "pitch": 50,
                "velocity": 64,
                "duration": 0.2022727,
                "tempo": 120.0
            },
            {
                "start_time": 40.6931818,
                "end_time": 40.9,
                "pitch": 53,
                "velocity": 64,
                "duration": 0.2068182,
                "tempo": 120.0
            },
            {
                "start_time": 40.6931818,
                "end_time": 40.9,
                "pitch": 53,
                "velocity": 64,
                "duration": 0.2068182,
                "tempo": 120.0
            },
            {
                "start_time": 40.9,
                "end_time": 41.1022727,
                "pitch": 55,
                "velocity": 64,
                "duration": 0.2022727,
                "tempo": 120.0
            },
            {
                "start_time": 41.1022727,
                "end_time": 41.3022727,
                "pitch": 59,
                "velocity": 64,
                "duration": 0.2,
                "tempo": 120.0
            },
            {
                "start_time": 41.1022727,
                "end_time": 41.3022727,
                "pitch": 59,
                "velocity": 64,
                "duration": 0.2,
                "tempo": 120.0
            },
            {
                "start_time": 41.3022727,
                "end_time": 41.5045455,
                "pitch": 57,
                "velocity": 64,
                "duration": 0.2022727,
                "tempo": 120.0
            },
            {
                "start_time": 41.5045455,
                "end_time": 41.7045455,
                "pitch": 55,
                "velocity": 64,
                "duration": 0.2,
                "tempo": 120.0
            },
            {
                "start_time": 38.4863636,
                "end_time": 41.7045455,
                "pitch": 66,
                "velocity": 64,
                "duration": 3.2181818,
                "tempo": 120.0
            },
            {
                "start_time": 41.7045455,
                "end_time": 41.9045455,
                "pitch": 53,
                "velocity": 64,
                "duration": 0.2,
                "tempo": 120.0
            },
            {
                "start_time": 41.9045455,
                "end_time": 42.1045455,
                "pitch": 52,
                "velocity": 64,
                "duration": 0.2,
                "tempo": 120.0
            },
            {
                "start_time": 42.1045455,
                "end_time": 42.3045455,
                "pitch": 55,
                "velocity": 64,
                "duration": 0.2,
                "tempo": 120.0
            },
            {
                "start_time": 42.3045455,
                "end_time": 42.5045455,
                "pitch": 57,
                "velocity": 64,
                "duration": 0.2,
                "tempo": 120.0
            },
            {
                "start_time": 41.7045455,
                "end_time": 42.5045455,
                "pitch": 66,
                "velocity": 64,
                "duration": 0.8,
                "tempo": 120.0
            },
            {
                "start_time": 42.5045455,
                "end_time": 42.7068182,
                "pitch": 52,
                "velocity": 64,
                "duration": 0.2022727,
                "tempo": 120.0
            },
            {
                "start_time": 42.7068182,
                "end_time": 42.9068182,
                "pitch": 55,
                "velocity": 64,
                "duration": 0.2,
                "tempo": 120.0
            },
            {
                "start_time": 42.9068182,
                "end_time": 43.1090909,
                "pitch": 57,
                "velocity": 64,
                "duration": 0.2022727,
                "tempo": 120.0
            },
            {
                "start_time": 42.5045455,
                "end_time": 43.1090909,
                "pitch": 66,
                "velocity": 64,
                "duration": 0.6045455,
                "tempo": 120.0
            },
            {
                "start_time": 43.1090909,
                "end_time": 43.3090909,
                "pitch": 52,
                "velocity": 64,
                "duration": 0.2,
                "tempo": 120.0
            },
            {
                "start_time": 43.3090909,
                "end_time": 43.5090909,
                "pitch": 55,
                "velocity": 64,
                "duration": 0.2,
                "tempo": 120.0
            },
            {
                "start_time": 43.5090909,
                "end_time": 43.7090909,
                "pitch": 57,
                "velocity": 64,
                "duration": 0.2,
                "tempo": 120.0
            },
            {
                "start_time": 43.1090909,
                "end_time": 43.7090909,
                "pitch": 66,
                "velocity": 64,
                "duration": 0.6,
                "tempo": 120.0
            },
            {
                "start_time": 43.7090909,
                "end_time": 43.9090909,
                "pitch": 52,
                "velocity": 64,
                "duration": 0.2,
                "tempo": 120.0
            },
            {
                "start_time": 43.9090909,
                "end_time": 44.1090909,
                "pitch": 55,
                "velocity": 64,
                "duration": 0.2,
                "tempo": 120.0
            },
            {
                "start_time": 44.1090909,
                "end_time": 44.3090909,
                "pitch": 57,
                "velocity": 64,
                "duration": 0.2,
                "tempo": 120.0
            },
            {
                "start_time": 37.8863636,
                "end_time": 44.3090909,
                "pitch": 64,
                "velocity": 64,
                "duration": 6.4227273,
                "tempo": 120.0
            },
            {
                "start_time": 38.0840909,
                "end_time": 44.5090909,
                "pitch": 44,
                "velocity": 64,
                "duration": 6.425,
                "tempo": 120.0
            },
            {
                "start_time": 44.3090909,
                "end_time": 44.5090909,
                "pitch": 60,
                "velocity": 64,
                "duration": 0.2,
                "tempo": 120.0
            },
            {
                "start_time": 44.5090909,
                "end_time": 44.7113636,
                "pitch": 59,
                "velocity": 64,
                "duration": 0.2022727,
                "tempo": 120.0
            },
            {
                "start_time": 44.7113636,
                "end_time": 44.9136364,
                "pitch": 57,
                "velocity": 64,
                "duration": 0.2022727,
                "tempo": 120.0
            },
            {
                "start_time": 43.7090909,
                "end_time": 44.9136364,
                "pitch": 66,
                "velocity": 64,
                "duration": 1.2045455,
                "tempo": 120.0
            },
            {
                "start_time": 44.9136364,
                "end_time": 45.1136364,
                "pitch": 52,
                "velocity": 64,
                "duration": 0.2,
                "tempo": 120.0
            },
            {
                "start_time": 45.1136364,
                "end_time": 45.3136364,
                "pitch": 50,
                "velocity": 64,
                "duration": 0.2,
                "tempo": 120.0
            },
            {
                "start_time": 45.3136364,
                "end_time": 45.5136364,
                "pitch": 53,
                "velocity": 64,
                "duration": 0.2,
                "tempo": 120.0
            },
            {
                "start_time": 45.3136364,
                "end_time": 45.5136364,
                "pitch": 53,
                "velocity": 64,
                "duration": 0.2,
                "tempo": 120.0
            },
            {
                "start_time": 45.5136364,
                "end_time": 45.7136364,
                "pitch": 55,
                "velocity": 64,
                "duration": 0.2,
                "tempo": 120.0
            },
            {
                "start_time": 40.4909091,
                "end_time": 45.7136364,
                "pitch": 65,
                "velocity": 64,
                "duration": 5.2227273,
                "tempo": 120.0
            },
            {
                "start_time": 45.7136364,
                "end_time": 45.9136364,
                "pitch": 50,
                "velocity": 64,
                "duration": 0.2,
                "tempo": 120.0
            },
            {
                "start_time": 45.9136364,
                "end_time": 46.1136364,
                "pitch": 53,
                "velocity": 64,
                "duration": 0.2,
                "tempo": 120.0
            },
            {
                "start_time": 45.9136364,
                "end_time": 46.1136364,
                "pitch": 53,
                "velocity": 64,
                "duration": 0.2,
                "tempo": 120.0
            },
            {
                "start_time": 46.1136364,
                "end_time": 46.3159091,
                "pitch": 55,
                "velocity": 64,
                "duration": 0.2022727,
                "tempo": 120.0
            },
            {
                "start_time": 45.7136364,
                "end_time": 46.3159091,
                "pitch": 65,
                "velocity": 64,
                "duration": 0.6022727,
                "tempo": 120.0
            },
            {
                "start_time": 46.3159091,
                "end_time": 46.5159091,
                "pitch": 50,
                "velocity": 64,
                "duration": 0.2,
                "tempo": 120.0
            },
            {
                "start_time": 46.5159091,
                "end_time": 46.7159091,
                "pitch": 53,
                "velocity": 64,
                "duration": 0.2,
                "tempo": 120.0
            },
            {
                "start_time": 46.5159091,
                "end_time": 46.7159091,
                "pitch": 53,
                "velocity": 64,
                "duration": 0.2,
                "tempo": 120.0
            },
            {
                "start_time": 46.7159091,
                "end_time": 46.9181818,
                "pitch": 55,
                "velocity": 64,
                "duration": 0.2022727,
                "tempo": 120.0
            },
            {
                "start_time": 46.3159091,
                "end_time": 46.9181818,
                "pitch": 65,
                "velocity": 64,
                "duration": 0.6022727,
                "tempo": 120.0
            },
            {
                "start_time": 46.9181818,
                "end_time": 47.1181818,
                "pitch": 50,
                "velocity": 64,
                "duration": 0.2,
                "tempo": 120.0
            },
            {
                "start_time": 47.1181818,
                "end_time": 47.3181818,
                "pitch": 53,
                "velocity": 64,
                "duration": 0.2,
                "tempo": 120.0
            },
            {
                "start_time": 47.1181818,
                "end_time": 47.3181818,
                "pitch": 53,
                "velocity": 64,
                "duration": 0.2,
                "tempo": 120.0
            },
            {
                "start_time": 47.3181818,
                "end_time": 47.5204545,
                "pitch": 55,
                "velocity": 64,
                "duration": 0.2022727,
                "tempo": 120.0
            },
            {
                "start_time": 47.5204545,
                "end_time": 47.7181818,
                "pitch": 57,
                "velocity": 64,
                "duration": 0.1977273,
                "tempo": 120.0
            },
            {
                "start_time": 47.7181818,
                "end_time": 47.9204545,
                "pitch": 55,
                "velocity": 64,
                "duration": 0.2022727,
                "tempo": 120.0
            },
            {
                "start_time": 47.9204545,
                "end_time": 48.1204545,
                "pitch": 57,
                "velocity": 64,
                "duration": 0.2,
                "tempo": 120.0
            },
            {
                "start_time": 48.1204545,
                "end_time": 48.3227273,
                "pitch": 59,
                "velocity": 64,
                "duration": 0.2022727,
                "tempo": 120.0
            },
            {
                "start_time": 48.3227273,
                "end_time": 48.5295455,
                "pitch": 57,
                "velocity": 64,
                "duration": 0.2068182,
                "tempo": 120.0
            },
            {
                "start_time": 44.3090909,
                "end_time": 48.5295455,
                "pitch": 64,
                "velocity": 64,
                "duration": 4.2204545,
                "tempo": 120.0
            },
            {
                "start_time": 48.5295455,
                "end_time": 48.7295455,
                "pitch": 60,
                "velocity": 64,
                "duration": 0.2,
                "tempo": 120.0
            },
            {
                "start_time": 48.5295455,
                "end_time": 48.7295455,
                "pitch": 64,
                "velocity": 64,
                "duration": 0.2,
                "tempo": 120.0
            },
            {
                "start_time": 48.7295455,
                "end_time": 48.925,
                "pitch": 64,
                "velocity": 64,
                "duration": 0.1954545,
                "tempo": 120.0
            },
            {
                "start_time": 48.7295455,
                "end_time": 48.925,
                "pitch": 64,
                "velocity": 64,
                "duration": 0.1954545,
                "tempo": 120.0
            },
            {
                "start_time": 48.925,
                "end_time": 49.1272727,
                "pitch": 57,
                "velocity": 64,
                "duration": 0.2022727,
                "tempo": 120.0
            },
            {
                "start_time": 49.1272727,
                "end_time": 49.3318182,
                "pitch": 60,
                "velocity": 64,
                "duration": 0.2045455,
                "tempo": 120.0
            },
            {
                "start_time": 49.1272727,
                "end_time": 49.3318182,
                "pitch": 64,
                "velocity": 64,
                "duration": 0.2045455,
                "tempo": 120.0
            },
            {
                "start_time": 48.925,
                "end_time": 49.5363636,
                "pitch": 32,
                "velocity": 64,
                "duration": 0.6113636,
                "tempo": 120.0
            },
            {
                "start_time": 49.3318182,
                "end_time": 49.5363636,
                "pitch": 64,
                "velocity": 64,
                "duration": 0.2045455,
                "tempo": 120.0
            },
            {
                "start_time": 49.3318182,
                "end_time": 49.5363636,
                "pitch": 64,
                "velocity": 64,
                "duration": 0.2045455,
                "tempo": 120.0
            },
            {
                "start_time": 49.5363636,
                "end_time": 49.7363636,
                "pitch": 57,
                "velocity": 64,
                "duration": 0.2,
                "tempo": 120.0
            },
            {
                "start_time": 49.7363636,
                "end_time": 49.9340909,
                "pitch": 60,
                "velocity": 64,
                "duration": 0.1977273,
                "tempo": 120.0
            },
            {
                "start_time": 49.7363636,
                "end_time": 49.9340909,
                "pitch": 64,
                "velocity": 64,
                "duration": 0.1977273,
                "tempo": 120.0
            },
            {
                "start_time": 49.5363636,
                "end_time": 50.1295455,
                "pitch": 32,
                "velocity": 64,
                "duration": 0.5931818,
                "tempo": 120.0
            },
            {
                "start_time": 49.9340909,
                "end_time": 50.1295455,
                "pitch": 64,
                "velocity": 64,
                "duration": 0.1954545,
                "tempo": 120.0
            },
            {
                "start_time": 49.9340909,
                "end_time": 50.1295455,
                "pitch": 64,
                "velocity": 64,
                "duration": 0.1954545,
                "tempo": 120.0
            },
            {
                "start_time": 50.1295455,
                "end_time": 50.3318182,
                "pitch": 57,
                "velocity": 64,
                "duration": 0.2022727,
                "tempo": 120.0
            },
            {
                "start_time": 50.3318182,
                "end_time": 50.5363636,
                "pitch": 60,
                "velocity": 64,
                "duration": 0.2045455,
                "tempo": 120.0
            },
            {
                "start_time": 50.3318182,
                "end_time": 50.5363636,
                "pitch": 64,
                "velocity": 64,
                "duration": 0.2045455,
                "tempo": 120.0
            },
            {
                "start_time": 50.1295455,
                "end_time": 50.7409091,
                "pitch": 32,
                "velocity": 64,
                "duration": 0.6113636,
                "tempo": 120.0
            },
            {
                "start_time": 50.5363636,
                "end_time": 50.7409091,
                "pitch": 64,
                "velocity": 64,
                "duration": 0.2045455,
                "tempo": 120.0
            },
            {
                "start_time": 50.5363636,
                "end_time": 50.7409091,
                "pitch": 64,
                "velocity": 64,
                "duration": 0.2045455,
                "tempo": 120.0
            },
            {
                "start_time": 50.7409091,
                "end_time": 50.9386364,
                "pitch": 69,
                "velocity": 64,
                "duration": 0.1977273,
                "tempo": 120.0
            },
            {
                "start_time": 35.4818182,
                "end_time": 50.9386364,
                "pitch": 78,
                "velocity": 64,
                "duration": 15.4568182,
                "tempo": 120.0
            },
            {
                "start_time": 50.9386364,
                "end_time": 51.1409091,
                "pitch": 64,
                "velocity": 64,
                "duration": 0.2022727,
                "tempo": 120.0
            },
            {
                "start_time": 51.1409091,
                "end_time": 51.3409091,
                "pitch": 62,
                "velocity": 64,
                "duration": 0.2,
                "tempo": 120.0
            },
            {
                "start_time": 51.3409091,
                "end_time": 51.5409091,
                "pitch": 60,
                "velocity": 64,
                "duration": 0.2,
                "tempo": 120.0
            },
            {
                "start_time": 51.3409091,
                "end_time": 51.5409091,
                "pitch": 60,
                "velocity": 64,
                "duration": 0.2,
                "tempo": 120.0
            },
            {
                "start_time": 51.5409091,
                "end_time": 51.7409091,
                "pitch": 55,
                "velocity": 64,
                "duration": 0.2,
                "tempo": 120.0
            },
            {
                "start_time": 51.7409091,
                "end_time": 51.9409091,
                "pitch": 59,
                "velocity": 64,
                "duration": 0.2,
                "tempo": 120.0
            },
            {
                "start_time": 51.7409091,
                "end_time": 51.9409091,
                "pitch": 59,
                "velocity": 64,
                "duration": 0.2,
                "tempo": 120.0
            },
            {
                "start_time": 46.9181818,
                "end_time": 51.9409091,
                "pitch": 65,
                "velocity": 64,
                "duration": 5.0227273,
                "tempo": 120.0
            },
            {
                "start_time": 51.9409091,
                "end_time": 52.1409091,
                "pitch": 62,
                "velocity": 64,
                "duration": 0.2,
                "tempo": 120.0
            },
            {
                "start_time": 52.1409091,
                "end_time": 52.3431818,
                "pitch": 55,
                "velocity": 64,
                "duration": 0.2022727,
                "tempo": 120.0
            },
            {
                "start_time": 52.3431818,
                "end_time": 52.5431818,
                "pitch": 59,
                "velocity": 64,
                "duration": 0.2,
                "tempo": 120.0
            },
            {
                "start_time": 52.3431818,
                "end_time": 52.5431818,
                "pitch": 59,
                "velocity": 64,
                "duration": 0.2,
                "tempo": 120.0
            },
            {
                "start_time": 51.9409091,
                "end_time": 52.5431818,
                "pitch": 65,
                "velocity": 64,
                "duration": 0.6022727,
                "tempo": 120.0
            },
            {
                "start_time": 52.5431818,
                "end_time": 52.7454545,
                "pitch": 62,
                "velocity": 64,
                "duration": 0.2022727,
                "tempo": 120.0
            },
            {
                "start_time": 52.7454545,
                "end_time": 52.9454545,
                "pitch": 55,
                "velocity": 64,
                "duration": 0.2,
                "tempo": 120.0
            },
            {
                "start_time": 52.9454545,
                "end_time": 53.1454545,
                "pitch": 59,
                "velocity": 64,
                "duration": 0.2,
                "tempo": 120.0
            },
            {
                "start_time": 52.9454545,
                "end_time": 53.1454545,
                "pitch": 59,
                "velocity": 64,
                "duration": 0.2,
                "tempo": 120.0
            },
            {
                "start_time": 52.5431818,
                "end_time": 53.1454545,
                "pitch": 65,
                "velocity": 64,
                "duration": 0.6022727,
                "tempo": 120.0
            },
            {
                "start_time": 53.1454545,
                "end_time": 53.3454545,
                "pitch": 62,
                "velocity": 64,
                "duration": 0.2,
                "tempo": 120.0
            },
            {
                "start_time": 53.3454545,
                "end_time": 53.5454545,
                "pitch": 55,
                "velocity": 64,
                "duration": 0.2,
                "tempo": 120.0
            },
            {
                "start_time": 53.5454545,
                "end_time": 53.7454545,
                "pitch": 59,
                "velocity": 64,
                "duration": 0.2,
                "tempo": 120.0
            },
            {
                "start_time": 53.5454545,
                "end_time": 53.7454545,
                "pitch": 59,
                "velocity": 64,
                "duration": 0.2,
                "tempo": 120.0
            },
            {
                "start_time": 53.1454545,
                "end_time": 53.7454545,
                "pitch": 65,
                "velocity": 64,
                "duration": 0.6,
                "tempo": 120.0
            },
            {
                "start_time": 53.7454545,
                "end_time": 53.9477273,
                "pitch": 62,
                "velocity": 64,
                "duration": 0.2022727,
                "tempo": 120.0
            },
            {
                "start_time": 53.9477273,
                "end_time": 54.1454545,
                "pitch": 64,
                "velocity": 64,
                "duration": 0.1977273,
                "tempo": 120.0
            },
            {
                "start_time": 54.1454545,
                "end_time": 54.3477273,
                "pitch": 62,
                "velocity": 64,
                "duration": 0.2022727,
                "tempo": 120.0
            },
            {
                "start_time": 44.5090909,
                "end_time": 54.55,
                "pitch": 44,
                "velocity": 64,
                "duration": 10.0409091,
                "tempo": 120.0
            },
            {
                "start_time": 54.3477273,
                "end_time": 54.55,
                "pitch": 60,
                "velocity": 64,
                "duration": 0.2022727,
                "tempo": 120.0
            },
            {
                "start_time": 54.3477273,
                "end_time": 54.55,
                "pitch": 60,
                "velocity": 64,
                "duration": 0.2022727,
                "tempo": 120.0
            },
            {
                "start_time": 54.55,
                "end_time": 54.7522727,
                "pitch": 59,
                "velocity": 64,
                "duration": 0.2022727,
                "tempo": 120.0
            },
            {
                "start_time": 54.7522727,
                "end_time": 54.9590909,
                "pitch": 57,
                "velocity": 64,
                "duration": 0.2068182,
                "tempo": 120.0
            },
            {
                "start_time": 54.9590909,
                "end_time": 55.1590909,
                "pitch": 60,
                "velocity": 64,
                "duration": 0.2,
                "tempo": 120.0
            },
            {
                "start_time": 54.9590909,
                "end_time": 55.1590909,
                "pitch": 64,
                "velocity": 64,
                "duration": 0.2,
                "tempo": 120.0
            },
            {
                "start_time": 50.7409091,
                "end_time": 55.3568182,
                "pitch": 32,
                "velocity": 64,
                "duration": 4.6159091,
                "tempo": 120.0
            },
            {
                "start_time": 55.1590909,
                "end_time": 55.3568182,
                "pitch": 64,
                "velocity": 64,
                "duration": 0.1977273,
                "tempo": 120.0
            },
            {
                "start_time": 55.1590909,
                "end_time": 55.3568182,
                "pitch": 64,
                "velocity": 64,
                "duration": 0.1977273,
                "tempo": 120.0
            },
            {
                "start_time": 55.3568182,
                "end_time": 55.5545455,
                "pitch": 57,
                "velocity": 64,
                "duration": 0.1977273,
                "tempo": 120.0
            },
            {
                "start_time": 55.5545455,
                "end_time": 55.7545455,
                "pitch": 60,
                "velocity": 64,
                "duration": 0.2,
                "tempo": 120.0
            },
            {
                "start_time": 55.5545455,
                "end_time": 55.7545455,
                "pitch": 64,
                "velocity": 64,
                "duration": 0.2,
                "tempo": 120.0
            },
            {
                "start_time": 55.3568182,
                "end_time": 55.9568182,
                "pitch": 32,
                "velocity": 64,
                "duration": 0.6,
                "tempo": 120.0
            },
            {
                "start_time": 55.7545455,
                "end_time": 55.9568182,
                "pitch": 64,
                "velocity": 64,
                "duration": 0.2022727,
                "tempo": 120.0
            },
            {
                "start_time": 55.7545455,
                "end_time": 55.9568182,
                "pitch": 64,
                "velocity": 64,
                "duration": 0.2022727,
                "tempo": 120.0
            },
            {
                "start_time": 55.9568182,
                "end_time": 56.1636364,
                "pitch": 57,
                "velocity": 64,
                "duration": 0.2068182,
                "tempo": 120.0
            },
            {
                "start_time": 56.1636364,
                "end_time": 56.3636364,
                "pitch": 60,
                "velocity": 64,
                "duration": 0.2,
                "tempo": 120.0
            },
            {
                "start_time": 56.1636364,
                "end_time": 56.3636364,
                "pitch": 64,
                "velocity": 64,
                "duration": 0.2,
                "tempo": 120.0
            },
            {
                "start_time": 55.9568182,
                "end_time": 56.5613636,
                "pitch": 32,
                "velocity": 64,
                "duration": 0.6045455,
                "tempo": 120.0
            },
            {
                "start_time": 56.3636364,
                "end_time": 56.5613636,
                "pitch": 64,
                "velocity": 64,
                "duration": 0.1977273,
                "tempo": 120.0
            },
            {
                "start_time": 56.3636364,
                "end_time": 56.5613636,
                "pitch": 64,
                "velocity": 64,
                "duration": 0.1977273,
                "tempo": 120.0
            },
            {
                "start_time": 56.5613636,
                "end_time": 56.7613636,
                "pitch": 57,
                "velocity": 64,
                "duration": 0.2,
                "tempo": 120.0
            },
            {
                "start_time": 56.7613636,
                "end_time": 56.9659091,
                "pitch": 60,
                "velocity": 64,
                "duration": 0.2045455,
                "tempo": 120.0
            },
            {
                "start_time": 56.7613636,
                "end_time": 56.9659091,
                "pitch": 64,
                "velocity": 64,
                "duration": 0.2045455,
                "tempo": 120.0
            },
            {
                "start_time": 56.5613636,
                "end_time": 57.1704545,
                "pitch": 32,
                "velocity": 64,
                "duration": 0.6090909,
                "tempo": 120.0
            },
            {
                "start_time": 56.9659091,
                "end_time": 57.1704545,
                "pitch": 64,
                "velocity": 64,
                "duration": 0.2045455,
                "tempo": 120.0
            },
            {
                "start_time": 56.9659091,
                "end_time": 57.1704545,
                "pitch": 64,
                "velocity": 64,
                "duration": 0.2045455,
                "tempo": 120.0
            },
            {
                "start_time": 57.1704545,
                "end_time": 57.3704545,
                "pitch": 69,
                "velocity": 64,
                "duration": 0.2,
                "tempo": 120.0
            },
            {
                "start_time": 50.9386364,
                "end_time": 57.3704545,
                "pitch": 78,
                "velocity": 64,
                "duration": 6.4318182,
                "tempo": 120.0
            },
            {
                "start_time": 57.3704545,
                "end_time": 57.5704545,
                "pitch": 64,
                "velocity": 64,
                "duration": 0.2,
                "tempo": 120.0
            },
            {
                "start_time": 57.5704545,
                "end_time": 57.7727273,
                "pitch": 62,
                "velocity": 64,
                "duration": 0.2022727,
                "tempo": 120.0
            },
            {
                "start_time": 57.7727273,
                "end_time": 57.975,
                "pitch": 60,
                "velocity": 64,
                "duration": 0.2022727,
                "tempo": 120.0
            },
            {
                "start_time": 57.7727273,
                "end_time": 57.975,
                "pitch": 60,
                "velocity": 64,
                "duration": 0.2022727,
                "tempo": 120.0
            },
            {
                "start_time": 57.975,
                "end_time": 58.175,
                "pitch": 55,
                "velocity": 64,
                "duration": 0.2,
                "tempo": 120.0
            },
            {
                "start_time": 58.175,
                "end_time": 58.375,
                "pitch": 59,
                "velocity": 64,
                "duration": 0.2,
                "tempo": 120.0
            },
            {
                "start_time": 58.175,
                "end_time": 58.375,
                "pitch": 59,
                "velocity": 64,
                "duration": 0.2,
                "tempo": 120.0
            },
            {
                "start_time": 53.7454545,
                "end_time": 58.375,
                "pitch": 65,
                "velocity": 64,
                "duration": 4.6295455,
                "tempo": 120.0
            },
            {
                "start_time": 58.375,
                "end_time": 58.575,
                "pitch": 62,
                "velocity": 64,
                "duration": 0.2,
                "tempo": 120.0
            },
            {
                "start_time": 58.575,
                "end_time": 58.775,
                "pitch": 55,
                "velocity": 64,
                "duration": 0.2,
                "tempo": 120.0
            },
            {
                "start_time": 58.775,
                "end_time": 58.975,
                "pitch": 59,
                "velocity": 64,
                "duration": 0.2,
                "tempo": 120.0
            },
            {
                "start_time": 58.775,
                "end_time": 58.975,
                "pitch": 59,
                "velocity": 64,
                "duration": 0.2,
                "tempo": 120.0
            },
            {
                "start_time": 58.375,
                "end_time": 58.975,
                "pitch": 65,
                "velocity": 64,
                "duration": 0.6,
                "tempo": 120.0
            },
            {
                "start_time": 58.975,
                "end_time": 59.175,
                "pitch": 62,
                "velocity": 64,
                "duration": 0.2,
                "tempo": 120.0
            },
            {
                "start_time": 59.175,
                "end_time": 59.375,
                "pitch": 55,
                "velocity": 64,
                "duration": 0.2,
                "tempo": 120.0
            },
            {
                "start_time": 59.375,
                "end_time": 59.5772727,
                "pitch": 59,
                "velocity": 64,
                "duration": 0.2022727,
                "tempo": 120.0
            },
            {
                "start_time": 59.375,
                "end_time": 59.5772727,
                "pitch": 59,
                "velocity": 64,
                "duration": 0.2022727,
                "tempo": 120.0
            },
            {
                "start_time": 58.975,
                "end_time": 59.5772727,
                "pitch": 65,
                "velocity": 64,
                "duration": 0.6022727,
                "tempo": 120.0
            },
            {
                "start_time": 59.5772727,
                "end_time": 59.7772727,
                "pitch": 62,
                "velocity": 64,
                "duration": 0.2,
                "tempo": 120.0
            },
            {
                "start_time": 59.7772727,
                "end_time": 59.9795455,
                "pitch": 55,
                "velocity": 64,
                "duration": 0.2022727,
                "tempo": 120.0
            },
            {
                "start_time": 59.9795455,
                "end_time": 60.1795455,
                "pitch": 59,
                "velocity": 64,
                "duration": 0.2,
                "tempo": 120.0
            },
            {
                "start_time": 59.9795455,
                "end_time": 60.1795455,
                "pitch": 59,
                "velocity": 64,
                "duration": 0.2,
                "tempo": 120.0
            },
            {
                "start_time": 59.5772727,
                "end_time": 60.1795455,
                "pitch": 65,
                "velocity": 64,
                "duration": 0.6022727,
                "tempo": 120.0
            },
            {
                "start_time": 60.1795455,
                "end_time": 60.3795455,
                "pitch": 62,
                "velocity": 64,
                "duration": 0.2,
                "tempo": 120.0
            },
            {
                "start_time": 60.1795455,
                "end_time": 60.3795455,
                "pitch": 65,
                "velocity": 64,
                "duration": 0.2,
                "tempo": 120.0
            },
            {
                "start_time": 60.3795455,
                "end_time": 60.5795455,
                "pitch": 65,
                "velocity": 64,
                "duration": 0.2,
                "tempo": 120.0
            },
            {
                "start_time": 60.3795455,
                "end_time": 60.5795455,
                "pitch": 65,
                "velocity": 64,
                "duration": 0.2,
                "tempo": 120.0
            },
            {
                "start_time": 60.5795455,
                "end_time": 60.7795455,
                "pitch": 64,
                "velocity": 64,
                "duration": 0.2,
                "tempo": 120.0
            },
            {
                "start_time": 60.7795455,
                "end_time": 60.9795455,
                "pitch": 62,
                "velocity": 64,
                "duration": 0.2,
                "tempo": 120.0
            },
            {
                "start_time": 54.55,
                "end_time": 61.1818182,
                "pitch": 44,
                "velocity": 64,
                "duration": 6.6318182,
                "tempo": 120.0
            },
            {
                "start_time": 60.9795455,
                "end_time": 61.1818182,
                "pitch": 60,
                "velocity": 64,
                "duration": 0.2022727,
                "tempo": 120.0
            },
            {
                "start_time": 60.9795455,
                "end_time": 61.1818182,
                "pitch": 60,
                "velocity": 64,
                "duration": 0.2022727,
                "tempo": 120.0
            },
            {
                "start_time": 61.1818182,
                "end_time": 61.7840909,
                "pitch": 59,
                "velocity": 64,
                "duration": 0.6022727,
                "tempo": 120.0
            },
            {
                "start_time": 61.1818182,
                "end_time": 61.8863636,
                "pitch": 44,
                "velocity": 64,
                "duration": 0.7045455,
                "tempo": 120.0
            },
            {
                "start_time": 61.7840909,
                "end_time": 61.8863636,
                "pitch": 60,
                "velocity": 64,
                "duration": 0.1022727,
                "tempo": 120.0
            },
            {
                "start_time": 61.8863636,
                "end_time": 61.9863636,
                "pitch": 59,
                "velocity": 64,
                "duration": 0.1,
                "tempo": 120.0
            },
            {
                "start_time": 61.9863636,
                "end_time": 64.4045455,
                "pitch": 57,
                "velocity": 64,
                "duration": 2.4181818,
                "tempo": 120.0
            }
        ],
        "French Horn": [
            {
                "start_time": 19.3136364,
                "end_time": 19.5136364,
                "pitch": 69,
                "velocity": 127,
                "duration": 0.2,
                "tempo": 120.0
            },
            {
                "start_time": 19.5136364,
                "end_time": 19.9136364,
                "pitch": 69,
                "velocity": 127,
                "duration": 0.4,
                "tempo": 120.0
            },
            {
                "start_time": 19.9159091,
                "end_time": 20.9204545,
                "pitch": 67,
                "velocity": 127,
                "duration": 1.0045455,
                "tempo": 120.0
            },
            {
                "start_time": 20.9204545,
                "end_time": 21.1204545,
                "pitch": 69,
                "velocity": 127,
                "duration": 0.2,
                "tempo": 120.0
            },
            {
                "start_time": 21.1204545,
                "end_time": 21.5204545,
                "pitch": 69,
                "velocity": 127,
                "duration": 0.4,
                "tempo": 120.0
            },
            {
                "start_time": 21.5204545,
                "end_time": 22.525,
                "pitch": 67,
                "velocity": 127,
                "duration": 1.0045455,
                "tempo": 120.0
            },
            {
                "start_time": 22.525,
                "end_time": 22.7272727,
                "pitch": 64,
                "velocity": 127,
                "duration": 0.2022727,
                "tempo": 120.0
            },
            {
                "start_time": 22.7272727,
                "end_time": 23.1272727,
                "pitch": 64,
                "velocity": 127,
                "duration": 0.4,
                "tempo": 120.0
            },
            {
                "start_time": 23.1272727,
                "end_time": 24.1318182,
                "pitch": 62,
                "velocity": 127,
                "duration": 1.0045455,
                "tempo": 120.0
            },
            {
                "start_time": 23.1272727,
                "end_time": 24.1318182,
                "pitch": 62,
                "velocity": 127,
                "duration": 1.0045455,
                "tempo": 120.0
            },
            {
                "start_time": 24.1318182,
                "end_time": 24.3386364,
                "pitch": 64,
                "velocity": 127,
                "duration": 0.2068182,
                "tempo": 120.0
            },
            {
                "start_time": 24.1318182,
                "end_time": 24.3386364,
                "pitch": 64,
                "velocity": 127,
                "duration": 0.2068182,
                "tempo": 120.0
            },
            {
                "start_time": 24.3386364,
                "end_time": 24.7386364,
                "pitch": 64,
                "velocity": 127,
                "duration": 0.4,
                "tempo": 120.0
            },
            {
                "start_time": 24.7386364,
                "end_time": 25.75,
                "pitch": 62,
                "velocity": 127,
                "duration": 1.0113636,
                "tempo": 120.0
            },
            {
                "start_time": 24.7386364,
                "end_time": 25.75,
                "pitch": 62,
                "velocity": 127,
                "duration": 1.0113636,
                "tempo": 120.0
            },
            {
                "start_time": 25.75,
                "end_time": 25.95,
                "pitch": 69,
                "velocity": 127,
                "duration": 0.2,
                "tempo": 120.0
            },
            {
                "start_time": 25.95,
                "end_time": 26.3522727,
                "pitch": 69,
                "velocity": 127,
                "duration": 0.4022727,
                "tempo": 120.0
            },
            {
                "start_time": 26.3522727,
                "end_time": 27.3545455,
                "pitch": 67,
                "velocity": 127,
                "duration": 1.0022727,
                "tempo": 120.0
            },
            {
                "start_time": 27.3545455,
                "end_time": 27.5568182,
                "pitch": 69,
                "velocity": 127,
                "duration": 0.2022727,
                "tempo": 120.0
            },
            {
                "start_time": 27.5568182,
                "end_time": 27.9590909,
                "pitch": 69,
                "velocity": 127,
                "duration": 0.4022727,
                "tempo": 120.0
            },
            {
                "start_time": 27.9590909,
                "end_time": 28.9613636,
                "pitch": 67,
                "velocity": 127,
                "duration": 1.0022727,
                "tempo": 120.0
            },
            {
                "start_time": 22.525,
                "end_time": 28.9636364,
                "pitch": 78,
                "velocity": 127,
                "duration": 6.4386364,
                "tempo": 120.0
            },
            {
                "start_time": 28.9613636,
                "end_time": 28.9636364,
                "pitch": 78,
                "velocity": 127,
                "duration": 0.0022727,
                "tempo": 120.0
            },
            {
                "start_time": 28.9636364,
                "end_time": 29.1636364,
                "pitch": 64,
                "velocity": 127,
                "duration": 0.2,
                "tempo": 120.0
            },
            {
                "start_time": 29.1636364,
                "end_time": 29.5659091,
                "pitch": 64,
                "velocity": 127,
                "duration": 0.4022727,
                "tempo": 120.0
            },
            {
                "start_time": 29.5659091,
                "end_time": 30.5704545,
                "pitch": 62,
                "velocity": 127,
                "duration": 1.0045455,
                "tempo": 120.0
            },
            {
                "start_time": 29.5659091,
                "end_time": 30.5704545,
                "pitch": 62,
                "velocity": 127,
                "duration": 1.0045455,
                "tempo": 120.0
            },
            {
                "start_time": 30.5704545,
                "end_time": 30.7704545,
                "pitch": 60,
                "velocity": 127,
                "duration": 0.2,
                "tempo": 120.0
            },
            {
                "start_time": 30.5704545,
                "end_time": 30.7704545,
                "pitch": 60,
                "velocity": 127,
                "duration": 0.2,
                "tempo": 120.0
            },
            {
                "start_time": 30.7704545,
                "end_time": 31.1704545,
                "pitch": 60,
                "velocity": 127,
                "duration": 0.4,
                "tempo": 120.0
            },
            {
                "start_time": 31.1704545,
                "end_time": 31.775,
                "pitch": 59,
                "velocity": 127,
                "duration": 0.6045455,
                "tempo": 120.0
            },
            {
                "start_time": 31.775,
                "end_time": 32.175,
                "pitch": 59,
                "velocity": 127,
                "duration": 0.4,
                "tempo": 120.0
            },
            {
                "start_time": 32.175,
                "end_time": 33.5909091,
                "pitch": 57,
                "velocity": 127,
                "duration": 1.4159091,
                "tempo": 120.0
            },
            {
                "start_time": 32.175,
                "end_time": 33.5909091,
                "pitch": 57,
                "velocity": 127,
                "duration": 1.4159091,
                "tempo": 120.0
            },
            {
                "start_time": 33.5909091,
                "end_time": 33.6409091,
                "pitch": 56,
                "velocity": 127,
                "duration": 0.05,
                "tempo": 120.0
            },
            {
                "start_time": 33.6409091,
                "end_time": 33.6909091,
                "pitch": 55,
                "velocity": 127,
                "duration": 0.05,
                "tempo": 120.0
            },
            {
                "start_time": 33.6909091,
                "end_time": 33.7409091,
                "pitch": 54,
                "velocity": 127,
                "duration": 0.05,
                "tempo": 120.0
            },
            {
                "start_time": 33.7409091,
                "end_time": 33.7909091,
                "pitch": 53,
                "velocity": 127,
                "duration": 0.05,
                "tempo": 120.0
            }
        ],
        "Electric Guitar (clean)": [
            {
                "start_time": 0.0068182,
                "end_time": 0.075,
                "pitch": 45,
                "velocity": 80,
                "duration": 0.0681818,
                "tempo": 120.0
            },
            {
                "start_time": 0.0909091,
                "end_time": 0.175,
                "pitch": 45,
                "velocity": 80,
                "duration": 0.0840909,
                "tempo": 120.0
            },
            {
                "start_time": 0.1909091,
                "end_time": 0.275,
                "pitch": 45,
                "velocity": 80,
                "duration": 0.0840909,
                "tempo": 120.0
            },
            {
                "start_time": 0.2909091,
                "end_time": 0.375,
                "pitch": 33,
                "velocity": 80,
                "duration": 0.0840909,
                "tempo": 120.0
            },
            {
                "start_time": 0.3909091,
                "end_time": 0.4704545,
                "pitch": 45,
                "velocity": 80,
                "duration": 0.0795455,
                "tempo": 120.0
            },
            {
                "start_time": 0.4863636,
                "end_time": 0.5659091,
                "pitch": 45,
                "velocity": 80,
                "duration": 0.0795455,
                "tempo": 120.0
            },
            {
                "start_time": 0.5840909,
                "end_time": 0.6613636,
                "pitch": 45,
                "velocity": 80,
                "duration": 0.0772727,
                "tempo": 120.0
            },
            {
                "start_time": 0.6795455,
                "end_time": 0.7568182,
                "pitch": 33,
                "velocity": 80,
                "duration": 0.0772727,
                "tempo": 120.0
            },
            {
                "start_time": 0.775,
                "end_time": 0.8590909,
                "pitch": 45,
                "velocity": 80,
                "duration": 0.0840909,
                "tempo": 120.0
            },
            {
                "start_time": 0.8772727,
                "end_time": 0.9613636,
                "pitch": 45,
                "velocity": 80,
                "duration": 0.0840909,
                "tempo": 120.0
            },
            {
                "start_time": 0.9795455,
                "end_time": 1.0636364,
                "pitch": 45,
                "velocity": 80,
                "duration": 0.0840909,
                "tempo": 120.0
            },
            {
                "start_time": 1.0818182,
                "end_time": 1.1681818,
                "pitch": 33,
                "velocity": 80,
                "duration": 0.0863636,
                "tempo": 120.0
            },
            {
                "start_time": 1.1863636,
                "end_time": 1.2681818,
                "pitch": 45,
                "velocity": 80,
                "duration": 0.0818182,
                "tempo": 120.0
            },
            {
                "start_time": 1.2863636,
                "end_time": 1.3681818,
                "pitch": 45,
                "velocity": 80,
                "duration": 0.0818182,
                "tempo": 120.0
            },
            {
                "start_time": 1.3863636,
                "end_time": 1.4681818,
                "pitch": 45,
                "velocity": 80,
                "duration": 0.0818182,
                "tempo": 120.0
            },
            {
                "start_time": 1.4863636,
                "end_time": 1.5681818,
                "pitch": 33,
                "velocity": 80,
                "duration": 0.0818182,
                "tempo": 120.0
            },
            {
                "start_time": 1.5863636,
                "end_time": 1.6681818,
                "pitch": 45,
                "velocity": 80,
                "duration": 0.0818182,
                "tempo": 120.0
            },
            {
                "start_time": 1.6863636,
                "end_time": 1.7704545,
                "pitch": 45,
                "velocity": 80,
                "duration": 0.0840909,
                "tempo": 120.0
            },
            {
                "start_time": 1.7886364,
                "end_time": 1.8704545,
                "pitch": 45,
                "velocity": 80,
                "duration": 0.0818182,
                "tempo": 120.0
            },
            {
                "start_time": 1.8886364,
                "end_time": 1.9727273,
                "pitch": 33,
                "velocity": 80,
                "duration": 0.0840909,
                "tempo": 120.0
            },
            {
                "start_time": 1.9886364,
                "end_time": 2.0727273,
                "pitch": 45,
                "velocity": 80,
                "duration": 0.0840909,
                "tempo": 120.0
            },
            {
                "start_time": 2.0886364,
                "end_time": 2.1727273,
                "pitch": 45,
                "velocity": 80,
                "duration": 0.0840909,
                "tempo": 120.0
            },
            {
                "start_time": 2.1909091,
                "end_time": 2.2727273,
                "pitch": 45,
                "velocity": 80,
                "duration": 0.0818182,
                "tempo": 120.0
            },
            {
                "start_time": 2.2886364,
                "end_time": 2.3727273,
                "pitch": 33,
                "velocity": 80,
                "duration": 0.0840909,
                "tempo": 120.0
            },
            {
                "start_time": 2.3909091,
                "end_time": 2.4727273,
                "pitch": 45,
                "velocity": 80,
                "duration": 0.0818182,
                "tempo": 120.0
            },
            {
                "start_time": 2.4886364,
                "end_time": 2.5727273,
                "pitch": 45,
                "velocity": 80,
                "duration": 0.0840909,
                "tempo": 120.0
            },
            {
                "start_time": 2.5886364,
                "end_time": 2.6727273,
                "pitch": 45,
                "velocity": 80,
                "duration": 0.0840909,
                "tempo": 120.0
            },
            {
                "start_time": 2.6909091,
                "end_time": 2.7727273,
                "pitch": 33,
                "velocity": 80,
                "duration": 0.0818182,
                "tempo": 120.0
            },
            {
                "start_time": 2.7909091,
                "end_time": 2.8727273,
                "pitch": 45,
                "velocity": 80,
                "duration": 0.0818182,
                "tempo": 120.0
            },
            {
                "start_time": 2.8909091,
                "end_time": 2.9727273,
                "pitch": 45,
                "velocity": 80,
                "duration": 0.0818182,
                "tempo": 120.0
            },
            {
                "start_time": 2.9909091,
                "end_time": 3.0727273,
                "pitch": 45,
                "velocity": 80,
                "duration": 0.0818182,
                "tempo": 120.0
            },
            {
                "start_time": 3.0909091,
                "end_time": 3.1727273,
                "pitch": 33,
                "velocity": 80,
                "duration": 0.0818182,
                "tempo": 120.0
            },
            {
                "start_time": 3.1931818,
                "end_time": 3.275,
                "pitch": 43,
                "velocity": 80,
                "duration": 0.0818182,
                "tempo": 120.0
            },
            {
                "start_time": 3.2909091,
                "end_time": 3.375,
                "pitch": 43,
                "velocity": 80,
                "duration": 0.0840909,
                "tempo": 120.0
            },
            {
                "start_time": 3.3931818,
                "end_time": 3.475,
                "pitch": 43,
                "velocity": 80,
                "duration": 0.0818182,
                "tempo": 120.0
            },
            {
                "start_time": 3.4931818,
                "end_time": 3.5772727,
                "pitch": 31,
                "velocity": 80,
                "duration": 0.0840909,
                "tempo": 120.0
            },
            {
                "start_time": 3.5931818,
                "end_time": 3.6772727,
                "pitch": 43,
                "velocity": 80,
                "duration": 0.0840909,
                "tempo": 120.0
            },
            {
                "start_time": 3.6931818,
                "end_time": 3.7772727,
                "pitch": 43,
                "velocity": 80,
                "duration": 0.0840909,
                "tempo": 120.0
            },
            {
                "start_time": 3.7931818,
                "end_time": 3.8772727,
                "pitch": 43,
                "velocity": 80,
                "duration": 0.0840909,
                "tempo": 120.0
            },
            {
                "start_time": 3.8931818,
                "end_time": 3.9772727,
                "pitch": 31,
                "velocity": 80,
                "duration": 0.0840909,
                "tempo": 120.0
            },
            {
                "start_time": 3.9954545,
                "end_time": 4.0772727,
                "pitch": 43,
                "velocity": 80,
                "duration": 0.0818182,
                "tempo": 120.0
            },
            {
                "start_time": 4.0954545,
                "end_time": 4.1772727,
                "pitch": 43,
                "velocity": 80,
                "duration": 0.0818182,
                "tempo": 120.0
            },
            {
                "start_time": 4.1954545,
                "end_time": 4.2772727,
                "pitch": 43,
                "velocity": 80,
                "duration": 0.0818182,
                "tempo": 120.0
            },
            {
                "start_time": 4.2954545,
                "end_time": 4.3772727,
                "pitch": 31,
                "velocity": 80,
                "duration": 0.0818182,
                "tempo": 120.0
            },
            {
                "start_time": 4.3954545,
                "end_time": 4.4772727,
                "pitch": 43,
                "velocity": 80,
                "duration": 0.0818182,
                "tempo": 120.0
            },
            {
                "start_time": 4.4954545,
                "end_time": 4.5795455,
                "pitch": 43,
                "velocity": 80,
                "duration": 0.0840909,
                "tempo": 120.0
            },
            {
                "start_time": 4.5977273,
                "end_time": 4.6795455,
                "pitch": 43,
                "velocity": 80,
                "duration": 0.0818182,
                "tempo": 120.0
            },
            {
                "start_time": 4.6977273,
                "end_time": 4.7795455,
                "pitch": 31,
                "velocity": 80,
                "duration": 0.0818182,
                "tempo": 120.0
            },
            {
                "start_time": 4.8,
                "end_time": 4.8818182,
                "pitch": 45,
                "velocity": 80,
                "duration": 0.0818182,
                "tempo": 120.0
            },
            {
                "start_time": 4.9,
                "end_time": 4.9818182,
                "pitch": 45,
                "velocity": 80,
                "duration": 0.0818182,
                "tempo": 120.0
            },
            {
                "start_time": 5.0,
                "end_time": 5.0818182,
                "pitch": 45,
                "velocity": 80,
                "duration": 0.0818182,
                "tempo": 120.0
            },
            {
                "start_time": 5.0977273,
                "end_time": 5.1818182,
                "pitch": 33,
                "velocity": 80,
                "duration": 0.0840909,
                "tempo": 120.0
            },
            {
                "start_time": 5.1977273,
                "end_time": 5.2818182,
                "pitch": 45,
                "velocity": 80,
                "duration": 0.0840909,
                "tempo": 120.0
            },
            {
                "start_time": 5.3,
                "end_time": 5.3818182,
                "pitch": 45,
                "velocity": 80,
                "duration": 0.0818182,
                "tempo": 120.0
            },
            {
                "start_time": 5.4,
                "end_time": 5.4840909,
                "pitch": 45,
                "velocity": 80,
                "duration": 0.0840909,
                "tempo": 120.0
            },
            {
                "start_time": 5.5,
                "end_time": 5.5840909,
                "pitch": 33,
                "velocity": 80,
                "duration": 0.0840909,
                "tempo": 120.0
            },
            {
                "start_time": 5.6022727,
                "end_time": 5.6840909,
                "pitch": 45,
                "velocity": 80,
                "duration": 0.0818182,
                "tempo": 120.0
            },
            {
                "start_time": 5.7022727,
                "end_time": 5.7840909,
                "pitch": 45,
                "velocity": 80,
                "duration": 0.0818182,
                "tempo": 120.0
            },
            {
                "start_time": 5.8022727,
                "end_time": 5.8840909,
                "pitch": 45,
                "velocity": 80,
                "duration": 0.0818182,
                "tempo": 120.0
            },
            {
                "start_time": 5.9022727,
                "end_time": 5.9840909,
                "pitch": 33,
                "velocity": 80,
                "duration": 0.0818182,
                "tempo": 120.0
            },
            {
                "start_time": 6.0022727,
                "end_time": 6.0863636,
                "pitch": 45,
                "velocity": 80,
                "duration": 0.0840909,
                "tempo": 120.0
            },
            {
                "start_time": 6.1022727,
                "end_time": 6.1863636,
                "pitch": 45,
                "velocity": 80,
                "duration": 0.0840909,
                "tempo": 120.0
            },
            {
                "start_time": 6.2045455,
                "end_time": 6.2863636,
                "pitch": 45,
                "velocity": 80,
                "duration": 0.0818182,
                "tempo": 120.0
            },
            {
                "start_time": 6.3045455,
                "end_time": 6.3886364,
                "pitch": 33,
                "velocity": 80,
                "duration": 0.0840909,
                "tempo": 120.0
            },
            {
                "start_time": 6.4068182,
                "end_time": 6.4909091,
                "pitch": 45,
                "velocity": 80,
                "duration": 0.0840909,
                "tempo": 120.0
            },
            {
                "start_time": 6.5090909,
                "end_time": 6.5931818,
                "pitch": 45,
                "velocity": 80,
                "duration": 0.0840909,
                "tempo": 120.0
            },
            {
                "start_time": 6.6113636,
                "end_time": 6.6954545,
                "pitch": 45,
                "velocity": 80,
                "duration": 0.0840909,
                "tempo": 120.0
            },
            {
                "start_time": 6.7136364,
                "end_time": 6.8,
                "pitch": 33,
                "velocity": 80,
                "duration": 0.0863636,
                "tempo": 120.0
            },
            {
                "start_time": 6.8159091,
                "end_time": 6.8977273,
                "pitch": 45,
                "velocity": 80,
                "duration": 0.0818182,
                "tempo": 120.0
            },
            {
                "start_time": 6.9159091,
                "end_time": 6.9954545,
                "pitch": 45,
                "velocity": 80,
                "duration": 0.0795455,
                "tempo": 120.0
            },
            {
                "start_time": 7.0136364,
                "end_time": 7.0931818,
                "pitch": 45,
                "velocity": 80,
                "duration": 0.0795455,
                "tempo": 120.0
            },
            {
                "start_time": 7.1113636,
                "end_time": 7.1931818,
                "pitch": 33,
                "velocity": 80,
                "duration": 0.0818182,
                "tempo": 120.0
            },
            {
                "start_time": 7.2113636,
                "end_time": 7.2931818,
                "pitch": 45,
                "velocity": 80,
                "duration": 0.0818182,
                "tempo": 120.0
            },
            {
                "start_time": 7.3090909,
                "end_time": 7.3931818,
                "pitch": 45,
                "velocity": 80,
                "duration": 0.0840909,
                "tempo": 120.0
            },
            {
                "start_time": 7.4113636,
                "end_time": 7.4954545,
                "pitch": 45,
                "velocity": 80,
                "duration": 0.0840909,
                "tempo": 120.0
            },
            {
                "start_time": 7.5113636,
                "end_time": 7.5954545,
                "pitch": 33,
                "velocity": 80,
                "duration": 0.0840909,
                "tempo": 120.0
            },
            {
                "start_time": 7.6136364,
                "end_time": 7.6977273,
                "pitch": 45,
                "velocity": 80,
                "duration": 0.0840909,
                "tempo": 120.0
            },
            {
                "start_time": 7.7159091,
                "end_time": 7.8,
                "pitch": 45,
                "velocity": 80,
                "duration": 0.0840909,
                "tempo": 120.0
            },
            {
                "start_time": 7.8181818,
                "end_time": 7.9022727,
                "pitch": 45,
                "velocity": 80,
                "duration": 0.0840909,
                "tempo": 120.0
            },
            {
                "start_time": 7.9204545,
                "end_time": 8.0068182,
                "pitch": 33,
                "velocity": 80,
                "duration": 0.0863636,
                "tempo": 120.0
            },
            {
                "start_time": 8.025,
                "end_time": 8.1068182,
                "pitch": 45,
                "velocity": 80,
                "duration": 0.0818182,
                "tempo": 120.0
            },
            {
                "start_time": 8.125,
                "end_time": 8.2068182,
                "pitch": 45,
                "velocity": 80,
                "duration": 0.0818182,
                "tempo": 120.0
            },
            {
                "start_time": 8.225,
                "end_time": 8.3068182,
                "pitch": 45,
                "velocity": 80,
                "duration": 0.0818182,
                "tempo": 120.0
            },
            {
                "start_time": 8.325,
                "end_time": 8.4068182,
                "pitch": 33,
                "velocity": 80,
                "duration": 0.0818182,
                "tempo": 120.0
            },
            {
                "start_time": 8.425,
                "end_time": 8.5090909,
                "pitch": 45,
                "velocity": 80,
                "duration": 0.0840909,
                "tempo": 120.0
            },
            {
                "start_time": 8.525,
                "end_time": 8.6090909,
                "pitch": 45,
                "velocity": 80,
                "duration": 0.0840909,
                "tempo": 120.0
            },
            {
                "start_time": 8.6272727,
                "end_time": 8.7090909,
                "pitch": 45,
                "velocity": 80,
                "duration": 0.0818182,
                "tempo": 120.0
            },
            {
                "start_time": 8.7272727,
                "end_time": 8.8113636,
                "pitch": 33,
                "velocity": 80,
                "duration": 0.0840909,
                "tempo": 120.0
            },
            {
                "start_time": 8.8295455,
                "end_time": 8.9113636,
                "pitch": 45,
                "velocity": 80,
                "duration": 0.0818182,
                "tempo": 120.0
            },
            {
                "start_time": 8.9295455,
                "end_time": 9.0113636,
                "pitch": 45,
                "velocity": 80,
                "duration": 0.0818182,
                "tempo": 120.0
            },
            {
                "start_time": 9.0295455,
                "end_time": 9.1136364,
                "pitch": 45,
                "velocity": 80,
                "duration": 0.0840909,
                "tempo": 120.0
            },
            {
                "start_time": 9.1295455,
                "end_time": 9.2136364,
                "pitch": 33,
                "velocity": 80,
                "duration": 0.0840909,
                "tempo": 120.0
            },
            {
                "start_time": 9.2318182,
                "end_time": 9.3136364,
                "pitch": 45,
                "velocity": 80,
                "duration": 0.0818182,
                "tempo": 120.0
            },
            {
                "start_time": 9.3318182,
                "end_time": 9.4159091,
                "pitch": 45,
                "velocity": 80,
                "duration": 0.0840909,
                "tempo": 120.0
            },
            {
                "start_time": 9.4340909,
                "end_time": 9.5159091,
                "pitch": 45,
                "velocity": 80,
                "duration": 0.0818182,
                "tempo": 120.0
            },
            {
                "start_time": 9.5340909,
                "end_time": 9.6159091,
                "pitch": 33,
                "velocity": 80,
                "duration": 0.0818182,
                "tempo": 120.0
            },
            {
                "start_time": 9.6363636,
                "end_time": 9.7181818,
                "pitch": 43,
                "velocity": 80,
                "duration": 0.0818182,
                "tempo": 120.0
            },
            {
                "start_time": 9.7340909,
                "end_time": 9.8181818,
                "pitch": 43,
                "velocity": 80,
                "duration": 0.0840909,
                "tempo": 120.0
            },
            {
                "start_time": 9.8340909,
                "end_time": 9.9181818,
                "pitch": 43,
                "velocity": 80,
                "duration": 0.0840909,
                "tempo": 120.0
            },
            {
                "start_time": 9.9340909,
                "end_time": 10.0181818,
                "pitch": 31,
                "velocity": 80,
                "duration": 0.0840909,
                "tempo": 120.0
            },
            {
                "start_time": 10.0340909,
                "end_time": 10.1181818,
                "pitch": 43,
                "velocity": 80,
                "duration": 0.0840909,
                "tempo": 120.0
            },
            {
                "start_time": 10.1363636,
                "end_time": 10.2181818,
                "pitch": 43,
                "velocity": 80,
                "duration": 0.0818182,
                "tempo": 120.0
            },
            {
                "start_time": 10.2363636,
                "end_time": 10.3204545,
                "pitch": 43,
                "velocity": 80,
                "duration": 0.0840909,
                "tempo": 120.0
            },
            {
                "start_time": 10.3363636,
                "end_time": 10.4204545,
                "pitch": 31,
                "velocity": 80,
                "duration": 0.0840909,
                "tempo": 120.0
            },
            {
                "start_time": 10.4386364,
                "end_time": 10.5204545,
                "pitch": 43,
                "velocity": 80,
                "duration": 0.0818182,
                "tempo": 120.0
            },
            {
                "start_time": 10.5386364,
                "end_time": 10.6227273,
                "pitch": 43,
                "velocity": 80,
                "duration": 0.0840909,
                "tempo": 120.0
            },
            {
                "start_time": 10.6386364,
                "end_time": 10.7227273,
                "pitch": 43,
                "velocity": 80,
                "duration": 0.0840909,
                "tempo": 120.0
            },
            {
                "start_time": 10.7409091,
                "end_time": 10.8227273,
                "pitch": 31,
                "velocity": 80,
                "duration": 0.0818182,
                "tempo": 120.0
            },
            {
                "start_time": 10.8409091,
                "end_time": 10.925,
                "pitch": 43,
                "velocity": 80,
                "duration": 0.0840909,
                "tempo": 120.0
            },
            {
                "start_time": 10.9409091,
                "end_time": 11.025,
                "pitch": 43,
                "velocity": 80,
                "duration": 0.0840909,
                "tempo": 120.0
            },
            {
                "start_time": 11.0431818,
                "end_time": 11.1272727,
                "pitch": 43,
                "velocity": 80,
                "duration": 0.0840909,
                "tempo": 120.0
            },
            {
                "start_time": 11.1431818,
                "end_time": 11.2272727,
                "pitch": 31,
                "velocity": 80,
                "duration": 0.0840909,
                "tempo": 120.0
            },
            {
                "start_time": 11.2454545,
                "end_time": 11.3272727,
                "pitch": 45,
                "velocity": 80,
                "duration": 0.0818182,
                "tempo": 120.0
            },
            {
                "start_time": 11.3454545,
                "end_time": 11.4295455,
                "pitch": 45,
                "velocity": 80,
                "duration": 0.0840909,
                "tempo": 120.0
            },
            {
                "start_time": 11.4477273,
                "end_time": 11.5295455,
                "pitch": 45,
                "velocity": 80,
                "duration": 0.0818182,
                "tempo": 120.0
            },
            {
                "start_time": 11.5477273,
                "end_time": 11.6295455,
                "pitch": 33,
                "velocity": 80,
                "duration": 0.0818182,
                "tempo": 120.0
            },
            {
                "start_time": 11.6477273,
                "end_time": 11.7295455,
                "pitch": 45,
                "velocity": 80,
                "duration": 0.0818182,
                "tempo": 120.0
            },
            {
                "start_time": 11.7477273,
                "end_time": 11.8295455,
                "pitch": 45,
                "velocity": 80,
                "duration": 0.0818182,
                "tempo": 120.0
            },
            {
                "start_time": 11.8477273,
                "end_time": 11.9318182,
                "pitch": 45,
                "velocity": 80,
                "duration": 0.0840909,
                "tempo": 120.0
            },
            {
                "start_time": 11.9477273,
                "end_time": 12.0318182,
                "pitch": 33,
                "velocity": 80,
                "duration": 0.0840909,
                "tempo": 120.0
            },
            {
                "start_time": 12.0477273,
                "end_time": 12.1318182,
                "pitch": 45,
                "velocity": 80,
                "duration": 0.0840909,
                "tempo": 120.0
            },
            {
                "start_time": 12.1477273,
                "end_time": 12.2318182,
                "pitch": 45,
                "velocity": 80,
                "duration": 0.0840909,
                "tempo": 120.0
            },
            {
                "start_time": 12.25,
                "end_time": 12.3340909,
                "pitch": 45,
                "velocity": 80,
                "duration": 0.0840909,
                "tempo": 120.0
            },
            {
                "start_time": 12.35,
                "end_time": 12.4340909,
                "pitch": 33,
                "velocity": 80,
                "duration": 0.0840909,
                "tempo": 120.0
            },
            {
                "start_time": 12.4522727,
                "end_time": 12.5340909,
                "pitch": 45,
                "velocity": 80,
                "duration": 0.0818182,
                "tempo": 120.0
            },
            {
                "start_time": 12.5522727,
                "end_time": 12.6363636,
                "pitch": 45,
                "velocity": 80,
                "duration": 0.0840909,
                "tempo": 120.0
            },
            {
                "start_time": 12.6545455,
                "end_time": 12.7363636,
                "pitch": 45,
                "velocity": 80,
                "duration": 0.0818182,
                "tempo": 120.0
            },
            {
                "start_time": 12.7545455,
                "end_time": 12.8363636,
                "pitch": 33,
                "velocity": 80,
                "duration": 0.0818182,
                "tempo": 120.0
            },
            {
                "start_time": 12.8568182,
                "end_time": 12.9386364,
                "pitch": 45,
                "velocity": 80,
                "duration": 0.0818182,
                "tempo": 120.0
            },
            {
                "start_time": 12.9545455,
                "end_time": 13.0386364,
                "pitch": 45,
                "velocity": 80,
                "duration": 0.0840909,
                "tempo": 120.0
            },
            {
                "start_time": 13.0568182,
                "end_time": 13.1386364,
                "pitch": 45,
                "velocity": 80,
                "duration": 0.0818182,
                "tempo": 120.0
            },
            {
                "start_time": 13.1568182,
                "end_time": 13.2409091,
                "pitch": 33,
                "velocity": 80,
                "duration": 0.0840909,
                "tempo": 120.0
            },
            {
                "start_time": 13.2568182,
                "end_time": 13.3409091,
                "pitch": 45,
                "velocity": 80,
                "duration": 0.0840909,
                "tempo": 120.0
            },
            {
                "start_time": 13.3590909,
                "end_time": 13.4409091,
                "pitch": 45,
                "velocity": 80,
                "duration": 0.0818182,
                "tempo": 120.0
            },
            {
                "start_time": 13.4590909,
                "end_time": 13.5431818,
                "pitch": 45,
                "velocity": 80,
                "duration": 0.0840909,
                "tempo": 120.0
            },
            {
                "start_time": 13.5590909,
                "end_time": 13.6431818,
                "pitch": 33,
                "velocity": 80,
                "duration": 0.0840909,
                "tempo": 120.0
            },
            {
                "start_time": 13.6613636,
                "end_time": 13.7431818,
                "pitch": 45,
                "velocity": 80,
                "duration": 0.0818182,
                "tempo": 120.0
            },
            {
                "start_time": 13.7613636,
                "end_time": 13.8431818,
                "pitch": 45,
                "velocity": 80,
                "duration": 0.0818182,
                "tempo": 120.0
            },
            {
                "start_time": 13.8613636,
                "end_time": 13.9431818,
                "pitch": 45,
                "velocity": 80,
                "duration": 0.0818182,
                "tempo": 120.0
            },
            {
                "start_time": 13.9613636,
                "end_time": 14.0431818,
                "pitch": 33,
                "velocity": 80,
                "duration": 0.0818182,
                "tempo": 120.0
            },
            {
                "start_time": 14.0613636,
                "end_time": 14.1454545,
                "pitch": 45,
                "velocity": 80,
                "duration": 0.0840909,
                "tempo": 120.0
            },
            {
                "start_time": 14.1613636,
                "end_time": 14.2454545,
                "pitch": 45,
                "velocity": 80,
                "duration": 0.0840909,
                "tempo": 120.0
            },
            {
                "start_time": 14.2636364,
                "end_time": 14.3454545,
                "pitch": 45,
                "velocity": 80,
                "duration": 0.0818182,
                "tempo": 120.0
            },
            {
                "start_time": 14.3636364,
                "end_time": 14.4477273,
                "pitch": 33,
                "velocity": 80,
                "duration": 0.0840909,
                "tempo": 120.0
            },
            {
                "start_time": 14.4659091,
                "end_time": 14.55,
                "pitch": 43,
                "velocity": 80,
                "duration": 0.0840909,
                "tempo": 120.0
            },
            {
                "start_time": 14.5681818,
                "end_time": 14.6522727,
                "pitch": 43,
                "velocity": 80,
                "duration": 0.0840909,
                "tempo": 120.0
            },
            {
                "start_time": 14.6704545,
                "end_time": 14.7545455,
                "pitch": 43,
                "velocity": 80,
                "duration": 0.0840909,
                "tempo": 120.0
            },
            {
                "start_time": 14.7727273,
                "end_time": 14.8590909,
                "pitch": 31,
                "velocity": 80,
                "duration": 0.0863636,
                "tempo": 120.0
            },
            {
                "start_time": 14.875,
                "end_time": 14.9568182,
                "pitch": 43,
                "velocity": 80,
                "duration": 0.0818182,
                "tempo": 120.0
            },
            {
                "start_time": 14.975,
                "end_time": 15.0545455,
                "pitch": 43,
                "velocity": 80,
                "duration": 0.0795455,
                "tempo": 120.0
            },
            {
                "start_time": 15.0727273,
                "end_time": 15.1545455,
                "pitch": 43,
                "velocity": 80,
                "duration": 0.0818182,
                "tempo": 120.0
            },
            {
                "start_time": 15.1704545,
                "end_time": 15.2522727,
                "pitch": 31,
                "velocity": 80,
                "duration": 0.0818182,
                "tempo": 120.0
            },
            {
                "start_time": 15.2681818,
                "end_time": 15.3522727,
                "pitch": 43,
                "velocity": 80,
                "duration": 0.0840909,
                "tempo": 120.0
            },
            {
                "start_time": 15.3704545,
                "end_time": 15.4522727,
                "pitch": 43,
                "velocity": 80,
                "duration": 0.0818182,
                "tempo": 120.0
            },
            {
                "start_time": 15.4704545,
                "end_time": 15.5545455,
                "pitch": 43,
                "velocity": 80,
                "duration": 0.0840909,
                "tempo": 120.0
            },
            {
                "start_time": 15.5704545,
                "end_time": 15.6545455,
                "pitch": 31,
                "velocity": 80,
                "duration": 0.0840909,
                "tempo": 120.0
            },
            {
                "start_time": 15.6727273,
                "end_time": 15.7545455,
                "pitch": 43,
                "velocity": 80,
                "duration": 0.0818182,
                "tempo": 120.0
            },
            {
                "start_time": 15.7727273,
                "end_time": 15.8545455,
                "pitch": 43,
                "velocity": 80,
                "duration": 0.0818182,
                "tempo": 120.0
            },
            {
                "start_time": 15.8727273,
                "end_time": 15.9545455,
                "pitch": 43,
                "velocity": 80,
                "duration": 0.0818182,
                "tempo": 120.0
            },
            {
                "start_time": 15.9727273,
                "end_time": 16.0545455,
                "pitch": 31,
                "velocity": 80,
                "duration": 0.0818182,
                "tempo": 120.0
            },
            {
                "start_time": 16.075,
                "end_time": 16.1568182,
                "pitch": 40,
                "velocity": 80,
                "duration": 0.0818182,
                "tempo": 120.0
            },
            {
                "start_time": 16.175,
                "end_time": 16.2590909,
                "pitch": 40,
                "velocity": 80,
                "duration": 0.0840909,
                "tempo": 120.0
            },
            {
                "start_time": 16.2772727,
                "end_time": 16.3636364,
                "pitch": 40,
                "velocity": 80,
                "duration": 0.0863636,
                "tempo": 120.0
            },
            {
                "start_time": 16.3818182,
                "end_time": 16.4659091,
                "pitch": 28,
                "velocity": 80,
                "duration": 0.0840909,
                "tempo": 120.0
            },
            {
                "start_time": 16.4840909,
                "end_time": 16.5681818,
                "pitch": 40,
                "velocity": 80,
                "duration": 0.0840909,
                "tempo": 120.0
            },
            {
                "start_time": 16.5840909,
                "end_time": 16.6681818,
                "pitch": 40,
                "velocity": 80,
                "duration": 0.0840909,
                "tempo": 120.0
            },
            {
                "start_time": 16.6863636,
                "end_time": 16.7681818,
                "pitch": 40,
                "velocity": 80,
                "duration": 0.0818182,
                "tempo": 120.0
            },
            {
                "start_time": 16.7863636,
                "end_time": 16.8704545,
                "pitch": 28,
                "velocity": 80,
                "duration": 0.0840909,
                "tempo": 120.0
            },
            {
                "start_time": 16.8863636,
                "end_time": 16.9704545,
                "pitch": 40,
                "velocity": 80,
                "duration": 0.0840909,
                "tempo": 120.0
            },
            {
                "start_time": 16.9863636,
                "end_time": 17.0704545,
                "pitch": 40,
                "velocity": 80,
                "duration": 0.0840909,
                "tempo": 120.0
            },
            {
                "start_time": 17.0863636,
                "end_time": 17.1704545,
                "pitch": 40,
                "velocity": 80,
                "duration": 0.0840909,
                "tempo": 120.0
            },
            {
                "start_time": 17.1863636,
                "end_time": 17.2704545,
                "pitch": 28,
                "velocity": 80,
                "duration": 0.0840909,
                "tempo": 120.0
            },
            {
                "start_time": 17.2863636,
                "end_time": 17.3704545,
                "pitch": 40,
                "velocity": 80,
                "duration": 0.0840909,
                "tempo": 120.0
            },
            {
                "start_time": 17.3886364,
                "end_time": 17.4704545,
                "pitch": 40,
                "velocity": 80,
                "duration": 0.0818182,
                "tempo": 120.0
            },
            {
                "start_time": 17.4886364,
                "end_time": 17.5704545,
                "pitch": 40,
                "velocity": 80,
                "duration": 0.0818182,
                "tempo": 120.0
            },
            {
                "start_time": 17.5886364,
                "end_time": 17.6704545,
                "pitch": 28,
                "velocity": 80,
                "duration": 0.0818182,
                "tempo": 120.0
            },
            {
                "start_time": 17.6886364,
                "end_time": 17.7704545,
                "pitch": 41,
                "velocity": 80,
                "duration": 0.0818182,
                "tempo": 120.0
            },
            {
                "start_time": 17.7886364,
                "end_time": 17.8727273,
                "pitch": 41,
                "velocity": 80,
                "duration": 0.0840909,
                "tempo": 120.0
            },
            {
                "start_time": 17.8886364,
                "end_time": 17.9727273,
                "pitch": 41,
                "velocity": 80,
                "duration": 0.0840909,
                "tempo": 120.0
            },
            {
                "start_time": 17.9909091,
                "end_time": 18.0727273,
                "pitch": 29,
                "velocity": 80,
                "duration": 0.0818182,
                "tempo": 120.0
            },
            {
                "start_time": 18.0909091,
                "end_time": 18.175,
                "pitch": 41,
                "velocity": 80,
                "duration": 0.0840909,
                "tempo": 120.0
            },
            {
                "start_time": 18.1909091,
                "end_time": 18.275,
                "pitch": 41,
                "velocity": 80,
                "duration": 0.0840909,
                "tempo": 120.0
            },
            {
                "start_time": 18.2909091,
                "end_time": 18.375,
                "pitch": 41,
                "velocity": 80,
                "duration": 0.0840909,
                "tempo": 120.0
            },
            {
                "start_time": 18.3909091,
                "end_time": 18.475,
                "pitch": 29,
                "velocity": 80,
                "duration": 0.0840909,
                "tempo": 120.0
            },
            {
                "start_time": 18.4931818,
                "end_time": 18.575,
                "pitch": 44,
                "velocity": 80,
                "duration": 0.0818182,
                "tempo": 120.0
            },
            {
                "start_time": 18.5931818,
                "end_time": 18.675,
                "pitch": 44,
                "velocity": 80,
                "duration": 0.0818182,
                "tempo": 120.0
            },
            {
                "start_time": 18.6931818,
                "end_time": 18.7772727,
                "pitch": 44,
                "velocity": 80,
                "duration": 0.0840909,
                "tempo": 120.0
            },
            {
                "start_time": 18.7931818,
                "end_time": 18.8772727,
                "pitch": 32,
                "velocity": 80,
                "duration": 0.0840909,
                "tempo": 120.0
            },
            {
                "start_time": 18.8954545,
                "end_time": 18.9772727,
                "pitch": 44,
                "velocity": 80,
                "duration": 0.0818182,
                "tempo": 120.0
            },
            {
                "start_time": 18.9954545,
                "end_time": 19.0772727,
                "pitch": 44,
                "velocity": 80,
                "duration": 0.0818182,
                "tempo": 120.0
            },
            {
                "start_time": 19.0954545,
                "end_time": 19.1772727,
                "pitch": 44,
                "velocity": 80,
                "duration": 0.0818182,
                "tempo": 120.0
            },
            {
                "start_time": 19.1954545,
                "end_time": 19.2772727,
                "pitch": 32,
                "velocity": 80,
                "duration": 0.0818182,
                "tempo": 120.0
            },
            {
                "start_time": 19.2977273,
                "end_time": 19.3772727,
                "pitch": 45,
                "velocity": 80,
                "duration": 0.0795455,
                "tempo": 120.0
            },
            {
                "start_time": 19.3954545,
                "end_time": 19.4795455,
                "pitch": 45,
                "velocity": 80,
                "duration": 0.0840909,
                "tempo": 120.0
            },
            {
                "start_time": 19.4954545,
                "end_time": 19.5795455,
                "pitch": 45,
                "velocity": 80,
                "duration": 0.0840909,
                "tempo": 120.0
            },
            {
                "start_time": 19.5954545,
                "end_time": 19.6795455,
                "pitch": 33,
                "velocity": 80,
                "duration": 0.0840909,
                "tempo": 120.0
            },
            {
                "start_time": 19.6954545,
                "end_time": 19.7795455,
                "pitch": 45,
                "velocity": 80,
                "duration": 0.0840909,
                "tempo": 120.0
            },
            {
                "start_time": 19.7977273,
                "end_time": 19.8795455,
                "pitch": 45,
                "velocity": 80,
                "duration": 0.0818182,
                "tempo": 120.0
            },
            {
                "start_time": 19.8977273,
                "end_time": 19.9818182,
                "pitch": 45,
                "velocity": 80,
                "duration": 0.0840909,
                "tempo": 120.0
            },
            {
                "start_time": 19.9977273,
                "end_time": 20.0818182,
                "pitch": 33,
                "velocity": 80,
                "duration": 0.0840909,
                "tempo": 120.0
            },
            {
                "start_time": 20.1,
                "end_time": 20.1818182,
                "pitch": 43,
                "velocity": 80,
                "duration": 0.0818182,
                "tempo": 120.0
            },
            {
                "start_time": 20.2,
                "end_time": 20.2818182,
                "pitch": 43,
                "velocity": 80,
                "duration": 0.0818182,
                "tempo": 120.0
            },
            {
                "start_time": 20.3,
                "end_time": 20.3818182,
                "pitch": 43,
                "velocity": 80,
                "duration": 0.0818182,
                "tempo": 120.0
            },
            {
                "start_time": 20.4,
                "end_time": 20.4818182,
                "pitch": 31,
                "velocity": 80,
                "duration": 0.0818182,
                "tempo": 120.0
            },
            {
                "start_time": 20.5,
                "end_time": 20.5840909,
                "pitch": 43,
                "velocity": 80,
                "duration": 0.0840909,
                "tempo": 120.0
            },
            {
                "start_time": 20.6,
                "end_time": 20.6840909,
                "pitch": 43,
                "velocity": 80,
                "duration": 0.0840909,
                "tempo": 120.0
            },
            {
                "start_time": 20.7022727,
                "end_time": 20.7840909,
                "pitch": 43,
                "velocity": 80,
                "duration": 0.0818182,
                "tempo": 120.0
            },
            {
                "start_time": 20.8022727,
                "end_time": 20.8863636,
                "pitch": 31,
                "velocity": 80,
                "duration": 0.0840909,
                "tempo": 120.0
            },
            {
                "start_time": 20.9045455,
                "end_time": 20.9863636,
                "pitch": 45,
                "velocity": 80,
                "duration": 0.0818182,
                "tempo": 120.0
            },
            {
                "start_time": 21.0022727,
                "end_time": 21.0863636,
                "pitch": 45,
                "velocity": 80,
                "duration": 0.0840909,
                "tempo": 120.0
            },
            {
                "start_time": 21.1045455,
                "end_time": 21.1863636,
                "pitch": 45,
                "velocity": 80,
                "duration": 0.0818182,
                "tempo": 120.0
            },
            {
                "start_time": 21.2022727,
                "end_time": 21.2863636,
                "pitch": 33,
                "velocity": 80,
                "duration": 0.0840909,
                "tempo": 120.0
            },
            {
                "start_time": 21.3022727,
                "end_time": 21.3863636,
                "pitch": 45,
                "velocity": 80,
                "duration": 0.0840909,
                "tempo": 120.0
            },
            {
                "start_time": 21.4045455,
                "end_time": 21.4863636,
                "pitch": 45,
                "velocity": 80,
                "duration": 0.0818182,
                "tempo": 120.0
            },
            {
                "start_time": 21.5045455,
                "end_time": 21.5863636,
                "pitch": 45,
                "velocity": 80,
                "duration": 0.0818182,
                "tempo": 120.0
            },
            {
                "start_time": 21.6045455,
                "end_time": 21.6863636,
                "pitch": 33,
                "velocity": 80,
                "duration": 0.0818182,
                "tempo": 120.0
            },
            {
                "start_time": 21.7045455,
                "end_time": 21.7863636,
                "pitch": 43,
                "velocity": 80,
                "duration": 0.0818182,
                "tempo": 120.0
            },
            {
                "start_time": 21.8045455,
                "end_time": 21.8886364,
                "pitch": 43,
                "velocity": 80,
                "duration": 0.0840909,
                "tempo": 120.0
            },
            {
                "start_time": 21.9045455,
                "end_time": 21.9886364,
                "pitch": 43,
                "velocity": 80,
                "duration": 0.0840909,
                "tempo": 120.0
            },
            {
                "start_time": 22.0068182,
                "end_time": 22.0886364,
                "pitch": 31,
                "velocity": 80,
                "duration": 0.0818182,
                "tempo": 120.0
            },
            {
                "start_time": 22.1068182,
                "end_time": 22.1909091,
                "pitch": 43,
                "velocity": 80,
                "duration": 0.0840909,
                "tempo": 120.0
            },
            {
                "start_time": 22.2068182,
                "end_time": 22.2909091,
                "pitch": 43,
                "velocity": 80,
                "duration": 0.0840909,
                "tempo": 120.0
            },
            {
                "start_time": 22.3068182,
                "end_time": 22.3909091,
                "pitch": 43,
                "velocity": 80,
                "duration": 0.0840909,
                "tempo": 120.0
            },
            {
                "start_time": 22.4068182,
                "end_time": 22.4909091,
                "pitch": 31,
                "velocity": 80,
                "duration": 0.0840909,
                "tempo": 120.0
            },
            {
                "start_time": 22.5090909,
                "end_time": 22.5909091,
                "pitch": 45,
                "velocity": 80,
                "duration": 0.0818182,
                "tempo": 120.0
            },
            {
                "start_time": 22.6090909,
                "end_time": 22.6909091,
                "pitch": 45,
                "velocity": 80,
                "duration": 0.0818182,
                "tempo": 120.0
            },
            {
                "start_time": 22.7090909,
                "end_time": 22.7931818,
                "pitch": 45,
                "velocity": 80,
                "duration": 0.0840909,
                "tempo": 120.0
            },
            {
                "start_time": 22.8090909,
                "end_time": 22.8931818,
                "pitch": 33,
                "velocity": 80,
                "duration": 0.0840909,
                "tempo": 120.0
            },
            {
                "start_time": 22.9113636,
                "end_time": 22.9931818,
                "pitch": 45,
                "velocity": 80,
                "duration": 0.0818182,
                "tempo": 120.0
            },
            {
                "start_time": 23.0113636,
                "end_time": 23.0931818,
                "pitch": 45,
                "velocity": 80,
                "duration": 0.0818182,
                "tempo": 120.0
            },
            {
                "start_time": 23.1113636,
                "end_time": 23.1931818,
                "pitch": 45,
                "velocity": 80,
                "duration": 0.0818182,
                "tempo": 120.0
            },
            {
                "start_time": 23.2113636,
                "end_time": 23.2931818,
                "pitch": 33,
                "velocity": 80,
                "duration": 0.0818182,
                "tempo": 120.0
            },
            {
                "start_time": 23.3113636,
                "end_time": 23.3931818,
                "pitch": 43,
                "velocity": 80,
                "duration": 0.0818182,
                "tempo": 120.0
            },
            {
                "start_time": 23.4113636,
                "end_time": 23.4954545,
                "pitch": 43,
                "velocity": 80,
                "duration": 0.0840909,
                "tempo": 120.0
            },
            {
                "start_time": 23.5113636,
                "end_time": 23.5954545,
                "pitch": 43,
                "velocity": 80,
                "duration": 0.0840909,
                "tempo": 120.0
            },
            {
                "start_time": 23.6113636,
                "end_time": 23.6954545,
                "pitch": 31,
                "velocity": 80,
                "duration": 0.0840909,
                "tempo": 120.0
            },
            {
                "start_time": 23.7113636,
                "end_time": 23.7954545,
                "pitch": 43,
                "velocity": 80,
                "duration": 0.0840909,
                "tempo": 120.0
            },
            {
                "start_time": 23.8136364,
                "end_time": 23.8954545,
                "pitch": 43,
                "velocity": 80,
                "duration": 0.0818182,
                "tempo": 120.0
            },
            {
                "start_time": 23.9136364,
                "end_time": 23.9977273,
                "pitch": 43,
                "velocity": 80,
                "duration": 0.0840909,
                "tempo": 120.0
            },
            {
                "start_time": 24.0136364,
                "end_time": 24.0977273,
                "pitch": 31,
                "velocity": 80,
                "duration": 0.0840909,
                "tempo": 120.0
            },
            {
                "start_time": 24.1159091,
                "end_time": 24.2,
                "pitch": 45,
                "velocity": 80,
                "duration": 0.0840909,
                "tempo": 120.0
            },
            {
                "start_time": 24.2181818,
                "end_time": 24.3022727,
                "pitch": 45,
                "velocity": 80,
                "duration": 0.0840909,
                "tempo": 120.0
            },
            {
                "start_time": 24.3204545,
                "end_time": 24.4068182,
                "pitch": 45,
                "velocity": 80,
                "duration": 0.0863636,
                "tempo": 120.0
            },
            {
                "start_time": 24.4227273,
                "end_time": 24.5090909,
                "pitch": 33,
                "velocity": 80,
                "duration": 0.0863636,
                "tempo": 120.0
            },
            {
                "start_time": 24.5272727,
                "end_time": 24.6068182,
                "pitch": 45,
                "velocity": 80,
                "duration": 0.0795455,
                "tempo": 120.0
            },
            {
                "start_time": 24.625,
                "end_time": 24.7045455,
                "pitch": 45,
                "velocity": 80,
                "duration": 0.0795455,
                "tempo": 120.0
            },
            {
                "start_time": 24.7227273,
                "end_time": 24.8045455,
                "pitch": 45,
                "velocity": 80,
                "duration": 0.0818182,
                "tempo": 120.0
            },
            {
                "start_time": 24.8204545,
                "end_time": 24.9022727,
                "pitch": 33,
                "velocity": 80,
                "duration": 0.0818182,
                "tempo": 120.0
            },
            {
                "start_time": 24.9181818,
                "end_time": 25.0045455,
                "pitch": 43,
                "velocity": 80,
                "duration": 0.0863636,
                "tempo": 120.0
            },
            {
                "start_time": 25.0204545,
                "end_time": 25.1068182,
                "pitch": 43,
                "velocity": 80,
                "duration": 0.0863636,
                "tempo": 120.0
            },
            {
                "start_time": 25.125,
                "end_time": 25.2090909,
                "pitch": 43,
                "velocity": 80,
                "duration": 0.0840909,
                "tempo": 120.0
            },
            {
                "start_time": 25.2272727,
                "end_time": 25.3113636,
                "pitch": 31,
                "velocity": 80,
                "duration": 0.0840909,
                "tempo": 120.0
            },
            {
                "start_time": 25.3318182,
                "end_time": 25.4136364,
                "pitch": 43,
                "velocity": 80,
                "duration": 0.0818182,
                "tempo": 120.0
            },
            {
                "start_time": 25.4318182,
                "end_time": 25.5136364,
                "pitch": 43,
                "velocity": 80,
                "duration": 0.0818182,
                "tempo": 120.0
            },
            {
                "start_time": 25.5318182,
                "end_time": 25.6159091,
                "pitch": 43,
                "velocity": 80,
                "duration": 0.0840909,
                "tempo": 120.0
            },
            {
                "start_time": 25.6340909,
                "end_time": 25.7159091,
                "pitch": 31,
                "velocity": 80,
                "duration": 0.0818182,
                "tempo": 120.0
            },
            {
                "start_time": 25.7340909,
                "end_time": 25.8159091,
                "pitch": 45,
                "velocity": 80,
                "duration": 0.0818182,
                "tempo": 120.0
            },
            {
                "start_time": 25.8340909,
                "end_time": 25.9159091,
                "pitch": 45,
                "velocity": 80,
                "duration": 0.0818182,
                "tempo": 120.0
            },
            {
                "start_time": 25.9340909,
                "end_time": 26.0159091,
                "pitch": 45,
                "velocity": 80,
                "duration": 0.0818182,
                "tempo": 120.0
            },
            {
                "start_time": 26.0340909,
                "end_time": 26.1159091,
                "pitch": 33,
                "velocity": 80,
                "duration": 0.0818182,
                "tempo": 120.0
            },
            {
                "start_time": 26.1340909,
                "end_time": 26.2181818,
                "pitch": 45,
                "velocity": 80,
                "duration": 0.0840909,
                "tempo": 120.0
            },
            {
                "start_time": 26.2340909,
                "end_time": 26.3181818,
                "pitch": 45,
                "velocity": 80,
                "duration": 0.0840909,
                "tempo": 120.0
            },
            {
                "start_time": 26.3363636,
                "end_time": 26.4181818,
                "pitch": 45,
                "velocity": 80,
                "duration": 0.0818182,
                "tempo": 120.0
            },
            {
                "start_time": 26.4363636,
                "end_time": 26.5204545,
                "pitch": 33,
                "velocity": 80,
                "duration": 0.0840909,
                "tempo": 120.0
            },
            {
                "start_time": 26.5363636,
                "end_time": 26.6204545,
                "pitch": 43,
                "velocity": 80,
                "duration": 0.0840909,
                "tempo": 120.0
            },
            {
                "start_time": 26.6363636,
                "end_time": 26.7204545,
                "pitch": 43,
                "velocity": 80,
                "duration": 0.0840909,
                "tempo": 120.0
            },
            {
                "start_time": 26.7363636,
                "end_time": 26.8204545,
                "pitch": 43,
                "velocity": 80,
                "duration": 0.0840909,
                "tempo": 120.0
            },
            {
                "start_time": 26.8386364,
                "end_time": 26.9204545,
                "pitch": 31,
                "velocity": 80,
                "duration": 0.0818182,
                "tempo": 120.0
            },
            {
                "start_time": 26.9386364,
                "end_time": 27.0204545,
                "pitch": 43,
                "velocity": 80,
                "duration": 0.0818182,
                "tempo": 120.0
            },
            {
                "start_time": 27.0386364,
                "end_time": 27.1204545,
                "pitch": 43,
                "velocity": 80,
                "duration": 0.0818182,
                "tempo": 120.0
            },
            {
                "start_time": 27.1386364,
                "end_time": 27.2204545,
                "pitch": 43,
                "velocity": 80,
                "duration": 0.0818182,
                "tempo": 120.0
            },
            {
                "start_time": 27.2386364,
                "end_time": 27.3204545,
                "pitch": 31,
                "velocity": 80,
                "duration": 0.0818182,
                "tempo": 120.0
            },
            {
                "start_time": 27.3386364,
                "end_time": 27.4227273,
                "pitch": 45,
                "velocity": 80,
                "duration": 0.0840909,
                "tempo": 120.0
            },
            {
                "start_time": 27.4386364,
                "end_time": 27.5227273,
                "pitch": 45,
                "velocity": 80,
                "duration": 0.0840909,
                "tempo": 120.0
            },
            {
                "start_time": 27.5409091,
                "end_time": 27.6227273,
                "pitch": 45,
                "velocity": 80,
                "duration": 0.0818182,
                "tempo": 120.0
            },
            {
                "start_time": 27.6409091,
                "end_time": 27.725,
                "pitch": 33,
                "velocity": 80,
                "duration": 0.0840909,
                "tempo": 120.0
            },
            {
                "start_time": 27.7409091,
                "end_time": 27.825,
                "pitch": 45,
                "velocity": 80,
                "duration": 0.0840909,
                "tempo": 120.0
            },
            {
                "start_time": 27.8409091,
                "end_time": 27.925,
                "pitch": 45,
                "velocity": 80,
                "duration": 0.0840909,
                "tempo": 120.0
            },
            {
                "start_time": 27.9431818,
                "end_time": 28.025,
                "pitch": 45,
                "velocity": 80,
                "duration": 0.0818182,
                "tempo": 120.0
            },
            {
                "start_time": 28.0409091,
                "end_time": 28.125,
                "pitch": 33,
                "velocity": 80,
                "duration": 0.0840909,
                "tempo": 120.0
            },
            {
                "start_time": 28.1409091,
                "end_time": 28.225,
                "pitch": 43,
                "velocity": 80,
                "duration": 0.0840909,
                "tempo": 120.0
            },
            {
                "start_time": 28.2431818,
                "end_time": 28.3272727,
                "pitch": 43,
                "velocity": 80,
                "duration": 0.0840909,
                "tempo": 120.0
            },
            {
                "start_time": 28.3431818,
                "end_time": 28.4272727,
                "pitch": 43,
                "velocity": 80,
                "duration": 0.0840909,
                "tempo": 120.0
            },
            {
                "start_time": 28.4454545,
                "end_time": 28.5272727,
                "pitch": 31,
                "velocity": 80,
                "duration": 0.0818182,
                "tempo": 120.0
            },
            {
                "start_time": 28.5454545,
                "end_time": 28.6272727,
                "pitch": 43,
                "velocity": 80,
                "duration": 0.0818182,
                "tempo": 120.0
            },
            {
                "start_time": 28.6454545,
                "end_time": 28.7272727,
                "pitch": 43,
                "velocity": 80,
                "duration": 0.0818182,
                "tempo": 120.0
            },
            {
                "start_time": 28.7454545,
                "end_time": 28.8272727,
                "pitch": 43,
                "velocity": 80,
                "duration": 0.0818182,
                "tempo": 120.0
            },
            {
                "start_time": 28.8454545,
                "end_time": 28.9272727,
                "pitch": 31,
                "velocity": 80,
                "duration": 0.0818182,
                "tempo": 120.0
            },
            {
                "start_time": 28.9477273,
                "end_time": 29.0295455,
                "pitch": 45,
                "velocity": 80,
                "duration": 0.0818182,
                "tempo": 120.0
            },
            {
                "start_time": 29.0454545,
                "end_time": 29.1295455,
                "pitch": 45,
                "velocity": 80,
                "duration": 0.0840909,
                "tempo": 120.0
            },
            {
                "start_time": 29.1477273,
                "end_time": 29.2295455,
                "pitch": 45,
                "velocity": 80,
                "duration": 0.0818182,
                "tempo": 120.0
            },
            {
                "start_time": 29.2454545,
                "end_time": 29.3295455,
                "pitch": 33,
                "velocity": 80,
                "duration": 0.0840909,
                "tempo": 120.0
            },
            {
                "start_time": 29.3454545,
                "end_time": 29.4295455,
                "pitch": 45,
                "velocity": 80,
                "duration": 0.0840909,
                "tempo": 120.0
            },
            {
                "start_time": 29.4477273,
                "end_time": 29.5295455,
                "pitch": 45,
                "velocity": 80,
                "duration": 0.0818182,
                "tempo": 120.0
            },
            {
                "start_time": 29.5477273,
                "end_time": 29.6318182,
                "pitch": 45,
                "velocity": 80,
                "duration": 0.0840909,
                "tempo": 120.0
            },
            {
                "start_time": 29.6477273,
                "end_time": 29.7318182,
                "pitch": 33,
                "velocity": 80,
                "duration": 0.0840909,
                "tempo": 120.0
            },
            {
                "start_time": 29.75,
                "end_time": 29.8318182,
                "pitch": 43,
                "velocity": 80,
                "duration": 0.0818182,
                "tempo": 120.0
            },
            {
                "start_time": 29.85,
                "end_time": 29.9318182,
                "pitch": 43,
                "velocity": 80,
                "duration": 0.0818182,
                "tempo": 120.0
            },
            {
                "start_time": 29.95,
                "end_time": 30.0318182,
                "pitch": 43,
                "velocity": 80,
                "duration": 0.0818182,
                "tempo": 120.0
            },
            {
                "start_time": 30.05,
                "end_time": 30.1318182,
                "pitch": 31,
                "velocity": 80,
                "duration": 0.0818182,
                "tempo": 120.0
            },
            {
                "start_time": 30.15,
                "end_time": 30.2340909,
                "pitch": 43,
                "velocity": 80,
                "duration": 0.0840909,
                "tempo": 120.0
            },
            {
                "start_time": 30.25,
                "end_time": 30.3340909,
                "pitch": 43,
                "velocity": 80,
                "duration": 0.0840909,
                "tempo": 120.0
            },
            {
                "start_time": 30.3522727,
                "end_time": 30.4340909,
                "pitch": 43,
                "velocity": 80,
                "duration": 0.0818182,
                "tempo": 120.0
            },
            {
                "start_time": 30.4522727,
                "end_time": 30.5363636,
                "pitch": 31,
                "velocity": 80,
                "duration": 0.0840909,
                "tempo": 120.0
            },
            {
                "start_time": 30.5545455,
                "end_time": 30.6363636,
                "pitch": 45,
                "velocity": 80,
                "duration": 0.0818182,
                "tempo": 120.0
            },
            {
                "start_time": 30.6522727,
                "end_time": 30.7363636,
                "pitch": 45,
                "velocity": 80,
                "duration": 0.0840909,
                "tempo": 120.0
            },
            {
                "start_time": 30.7545455,
                "end_time": 30.8363636,
                "pitch": 45,
                "velocity": 80,
                "duration": 0.0818182,
                "tempo": 120.0
            },
            {
                "start_time": 30.8545455,
                "end_time": 30.9363636,
                "pitch": 33,
                "velocity": 80,
                "duration": 0.0818182,
                "tempo": 120.0
            },
            {
                "start_time": 30.9545455,
                "end_time": 31.0363636,
                "pitch": 45,
                "velocity": 80,
                "duration": 0.0818182,
                "tempo": 120.0
            },
            {
                "start_time": 31.0545455,
                "end_time": 31.1363636,
                "pitch": 45,
                "velocity": 80,
                "duration": 0.0818182,
                "tempo": 120.0
            },
            {
                "start_time": 31.1545455,
                "end_time": 31.2363636,
                "pitch": 45,
                "velocity": 80,
                "duration": 0.0818182,
                "tempo": 120.0
            },
            {
                "start_time": 31.2545455,
                "end_time": 31.3363636,
                "pitch": 33,
                "velocity": 80,
                "duration": 0.0818182,
                "tempo": 120.0
            },
            {
                "start_time": 31.3545455,
                "end_time": 31.4386364,
                "pitch": 43,
                "velocity": 80,
                "duration": 0.0840909,
                "tempo": 120.0
            },
            {
                "start_time": 31.4545455,
                "end_time": 31.5386364,
                "pitch": 43,
                "velocity": 80,
                "duration": 0.0840909,
                "tempo": 120.0
            },
            {
                "start_time": 31.5545455,
                "end_time": 31.6386364,
                "pitch": 43,
                "velocity": 80,
                "duration": 0.0840909,
                "tempo": 120.0
            },
            {
                "start_time": 31.6568182,
                "end_time": 31.7409091,
                "pitch": 31,
                "velocity": 80,
                "duration": 0.0840909,
                "tempo": 120.0
            },
            {
                "start_time": 31.7590909,
                "end_time": 31.8409091,
                "pitch": 43,
                "velocity": 80,
                "duration": 0.0818182,
                "tempo": 120.0
            },
            {
                "start_time": 31.8568182,
                "end_time": 31.9409091,
                "pitch": 43,
                "velocity": 80,
                "duration": 0.0840909,
                "tempo": 120.0
            },
            {
                "start_time": 31.9568182,
                "end_time": 32.0409091,
                "pitch": 43,
                "velocity": 80,
                "duration": 0.0840909,
                "tempo": 120.0
            },
            {
                "start_time": 32.0568182,
                "end_time": 32.1409091,
                "pitch": 31,
                "velocity": 80,
                "duration": 0.0840909,
                "tempo": 120.0
            },
            {
                "start_time": 32.1613636,
                "end_time": 32.2431818,
                "pitch": 45,
                "velocity": 80,
                "duration": 0.0818182,
                "tempo": 120.0
            },
            {
                "start_time": 32.2613636,
                "end_time": 32.3454545,
                "pitch": 45,
                "velocity": 80,
                "duration": 0.0840909,
                "tempo": 120.0
            },
            {
                "start_time": 32.3636364,
                "end_time": 32.4477273,
                "pitch": 45,
                "velocity": 80,
                "duration": 0.0840909,
                "tempo": 120.0
            },
            {
                "start_time": 32.4659091,
                "end_time": 32.5522727,
                "pitch": 33,
                "velocity": 80,
                "duration": 0.0863636,
                "tempo": 120.0
            },
            {
                "start_time": 32.5681818,
                "end_time": 32.6522727,
                "pitch": 45,
                "velocity": 80,
                "duration": 0.0840909,
                "tempo": 120.0
            },
            {
                "start_time": 32.6704545,
                "end_time": 32.7522727,
                "pitch": 45,
                "velocity": 80,
                "duration": 0.0818182,
                "tempo": 120.0
            },
            {
                "start_time": 32.7704545,
                "end_time": 32.8522727,
                "pitch": 45,
                "velocity": 80,
                "duration": 0.0818182,
                "tempo": 120.0
            },
            {
                "start_time": 32.8704545,
                "end_time": 32.9522727,
                "pitch": 33,
                "velocity": 80,
                "duration": 0.0818182,
                "tempo": 120.0
            },
            {
                "start_time": 32.9704545,
                "end_time": 33.0522727,
                "pitch": 45,
                "velocity": 80,
                "duration": 0.0818182,
                "tempo": 120.0
            },
            {
                "start_time": 33.0704545,
                "end_time": 33.1545455,
                "pitch": 45,
                "velocity": 80,
                "duration": 0.0840909,
                "tempo": 120.0
            },
            {
                "start_time": 33.1704545,
                "end_time": 33.2545455,
                "pitch": 45,
                "velocity": 80,
                "duration": 0.0840909,
                "tempo": 120.0
            },
            {
                "start_time": 33.2727273,
                "end_time": 33.3545455,
                "pitch": 33,
                "velocity": 80,
                "duration": 0.0818182,
                "tempo": 120.0
            },
            {
                "start_time": 33.3727273,
                "end_time": 33.4568182,
                "pitch": 45,
                "velocity": 80,
                "duration": 0.0840909,
                "tempo": 120.0
            },
            {
                "start_time": 33.4727273,
                "end_time": 33.5568182,
                "pitch": 45,
                "velocity": 80,
                "duration": 0.0840909,
                "tempo": 120.0
            },
            {
                "start_time": 33.575,
                "end_time": 33.6568182,
                "pitch": 45,
                "velocity": 80,
                "duration": 0.0818182,
                "tempo": 120.0
            },
            {
                "start_time": 33.675,
                "end_time": 33.7568182,
                "pitch": 33,
                "velocity": 80,
                "duration": 0.0818182,
                "tempo": 120.0
            },
            {
                "start_time": 33.775,
                "end_time": 33.8568182,
                "pitch": 45,
                "velocity": 80,
                "duration": 0.0818182,
                "tempo": 120.0
            },
            {
                "start_time": 33.8727273,
                "end_time": 33.9568182,
                "pitch": 45,
                "velocity": 80,
                "duration": 0.0840909,
                "tempo": 120.0
            },
            {
                "start_time": 33.9727273,
                "end_time": 34.0568182,
                "pitch": 45,
                "velocity": 80,
                "duration": 0.0840909,
                "tempo": 120.0
            },
            {
                "start_time": 34.075,
                "end_time": 34.1568182,
                "pitch": 33,
                "velocity": 80,
                "duration": 0.0818182,
                "tempo": 120.0
            },
            {
                "start_time": 34.175,
                "end_time": 34.2568182,
                "pitch": 45,
                "velocity": 80,
                "duration": 0.0818182,
                "tempo": 120.0
            },
            {
                "start_time": 34.275,
                "end_time": 34.3568182,
                "pitch": 45,
                "velocity": 80,
                "duration": 0.0818182,
                "tempo": 120.0
            },
            {
                "start_time": 34.375,
                "end_time": 34.4568182,
                "pitch": 45,
                "velocity": 80,
                "duration": 0.0818182,
                "tempo": 120.0
            },
            {
                "start_time": 34.475,
                "end_time": 34.5568182,
                "pitch": 33,
                "velocity": 80,
                "duration": 0.0818182,
                "tempo": 120.0
            },
            {
                "start_time": 34.575,
                "end_time": 34.6568182,
                "pitch": 45,
                "velocity": 101,
                "duration": 0.0818182,
                "tempo": 120.0
            },
            {
                "start_time": 34.675,
                "end_time": 34.7568182,
                "pitch": 33,
                "velocity": 101,
                "duration": 0.0818182,
                "tempo": 120.0
            },
            {
                "start_time": 34.775,
                "end_time": 34.8568182,
                "pitch": 45,
                "velocity": 101,
                "duration": 0.0818182,
                "tempo": 120.0
            },
            {
                "start_time": 34.875,
                "end_time": 34.9568182,
                "pitch": 33,
                "velocity": 101,
                "duration": 0.0818182,
                "tempo": 120.0
            },
            {
                "start_time": 34.975,
                "end_time": 35.0590909,
                "pitch": 45,
                "velocity": 101,
                "duration": 0.0840909,
                "tempo": 120.0
            },
            {
                "start_time": 35.075,
                "end_time": 35.1590909,
                "pitch": 48,
                "velocity": 101,
                "duration": 0.0840909,
                "tempo": 120.0
            },
            {
                "start_time": 35.1772727,
                "end_time": 35.2590909,
                "pitch": 52,
                "velocity": 101,
                "duration": 0.0818182,
                "tempo": 120.0
            },
            {
                "start_time": 35.2772727,
                "end_time": 35.3613636,
                "pitch": 57,
                "velocity": 101,
                "duration": 0.0840909,
                "tempo": 120.0
            },
            {
                "start_time": 35.3818182,
                "end_time": 35.4272727,
                "pitch": 45,
                "velocity": 101,
                "duration": 0.0454545,
                "tempo": 120.0
            },
            {
                "start_time": 35.4795455,
                "end_time": 35.5272727,
                "pitch": 45,
                "velocity": 80,
                "duration": 0.0477273,
                "tempo": 120.0
            },
            {
                "start_time": 35.5795455,
                "end_time": 35.6272727,
                "pitch": 45,
                "velocity": 80,
                "duration": 0.0477273,
                "tempo": 120.0
            },
            {
                "start_time": 35.6795455,
                "end_time": 35.7272727,
                "pitch": 33,
                "velocity": 80,
                "duration": 0.0477273,
                "tempo": 120.0
            },
            {
                "start_time": 35.7795455,
                "end_time": 35.8272727,
                "pitch": 45,
                "velocity": 80,
                "duration": 0.0477273,
                "tempo": 120.0
            },
            {
                "start_time": 35.8795455,
                "end_time": 35.9295455,
                "pitch": 45,
                "velocity": 80,
                "duration": 0.05,
                "tempo": 120.0
            },
            {
                "start_time": 35.9795455,
                "end_time": 36.0295455,
                "pitch": 45,
                "velocity": 101,
                "duration": 0.05,
                "tempo": 120.0
            },
            {
                "start_time": 36.0795455,
                "end_time": 36.1295455,
                "pitch": 45,
                "velocity": 80,
                "duration": 0.05,
                "tempo": 120.0
            },
            {
                "start_time": 36.1795455,
                "end_time": 36.2295455,
                "pitch": 45,
                "velocity": 80,
                "duration": 0.05,
                "tempo": 120.0
            },
            {
                "start_time": 36.2795455,
                "end_time": 36.3295455,
                "pitch": 33,
                "velocity": 80,
                "duration": 0.05,
                "tempo": 120.0
            },
            {
                "start_time": 36.3795455,
                "end_time": 36.4295455,
                "pitch": 45,
                "velocity": 80,
                "duration": 0.05,
                "tempo": 120.0
            },
            {
                "start_time": 36.4795455,
                "end_time": 36.5295455,
                "pitch": 45,
                "velocity": 80,
                "duration": 0.05,
                "tempo": 120.0
            },
            {
                "start_time": 36.5818182,
                "end_time": 36.6295455,
                "pitch": 45,
                "velocity": 101,
                "duration": 0.0477273,
                "tempo": 120.0
            },
            {
                "start_time": 36.6795455,
                "end_time": 36.7295455,
                "pitch": 45,
                "velocity": 80,
                "duration": 0.05,
                "tempo": 120.0
            },
            {
                "start_time": 36.7818182,
                "end_time": 36.8295455,
                "pitch": 45,
                "velocity": 80,
                "duration": 0.0477273,
                "tempo": 120.0
            },
            {
                "start_time": 36.8795455,
                "end_time": 36.9295455,
                "pitch": 33,
                "velocity": 80,
                "duration": 0.05,
                "tempo": 120.0
            },
            {
                "start_time": 36.9818182,
                "end_time": 37.0295455,
                "pitch": 45,
                "velocity": 80,
                "duration": 0.0477273,
                "tempo": 120.0
            },
            {
                "start_time": 37.0818182,
                "end_time": 37.1318182,
                "pitch": 45,
                "velocity": 80,
                "duration": 0.05,
                "tempo": 120.0
            },
            {
                "start_time": 37.1840909,
                "end_time": 37.2318182,
                "pitch": 45,
                "velocity": 101,
                "duration": 0.0477273,
                "tempo": 120.0
            },
            {
                "start_time": 37.2818182,
                "end_time": 37.3318182,
                "pitch": 45,
                "velocity": 80,
                "duration": 0.05,
                "tempo": 120.0
            },
            {
                "start_time": 37.3840909,
                "end_time": 37.4340909,
                "pitch": 45,
                "velocity": 80,
                "duration": 0.05,
                "tempo": 120.0
            },
            {
                "start_time": 37.4840909,
                "end_time": 37.5340909,
                "pitch": 33,
                "velocity": 80,
                "duration": 0.05,
                "tempo": 120.0
            },
            {
                "start_time": 37.5840909,
                "end_time": 37.6340909,
                "pitch": 45,
                "velocity": 80,
                "duration": 0.05,
                "tempo": 120.0
            },
            {
                "start_time": 37.6840909,
                "end_time": 37.7340909,
                "pitch": 45,
                "velocity": 80,
                "duration": 0.05,
                "tempo": 120.0
            },
            {
                "start_time": 37.7840909,
                "end_time": 37.8340909,
                "pitch": 45,
                "velocity": 101,
                "duration": 0.05,
                "tempo": 120.0
            },
            {
                "start_time": 37.8840909,
                "end_time": 37.9340909,
                "pitch": 33,
                "velocity": 80,
                "duration": 0.05,
                "tempo": 120.0
            },
            {
                "start_time": 37.9863636,
                "end_time": 38.1340909,
                "pitch": 45,
                "velocity": 101,
                "duration": 0.1477273,
                "tempo": 120.0
            },
            {
                "start_time": 38.1863636,
                "end_time": 38.2340909,
                "pitch": 33,
                "velocity": 101,
                "duration": 0.0477273,
                "tempo": 120.0
            },
            {
                "start_time": 38.2840909,
                "end_time": 38.3340909,
                "pitch": 45,
                "velocity": 80,
                "duration": 0.05,
                "tempo": 120.0
            },
            {
                "start_time": 38.3863636,
                "end_time": 38.4340909,
                "pitch": 45,
                "velocity": 80,
                "duration": 0.0477273,
                "tempo": 120.0
            },
            {
                "start_time": 38.4840909,
                "end_time": 38.5340909,
                "pitch": 33,
                "velocity": 80,
                "duration": 0.05,
                "tempo": 120.0
            },
            {
                "start_time": 38.5863636,
                "end_time": 38.6340909,
                "pitch": 43,
                "velocity": 101,
                "duration": 0.0477273,
                "tempo": 120.0
            },
            {
                "start_time": 38.6863636,
                "end_time": 38.7340909,
                "pitch": 43,
                "velocity": 80,
                "duration": 0.0477273,
                "tempo": 120.0
            },
            {
                "start_time": 38.7863636,
                "end_time": 38.8340909,
                "pitch": 43,
                "velocity": 80,
                "duration": 0.0477273,
                "tempo": 120.0
            },
            {
                "start_time": 38.8863636,
                "end_time": 38.9340909,
                "pitch": 31,
                "velocity": 80,
                "duration": 0.0477273,
                "tempo": 120.0
            },
            {
                "start_time": 38.9863636,
                "end_time": 39.0363636,
                "pitch": 43,
                "velocity": 80,
                "duration": 0.05,
                "tempo": 120.0
            },
            {
                "start_time": 39.0863636,
                "end_time": 39.1363636,
                "pitch": 43,
                "velocity": 80,
                "duration": 0.05,
                "tempo": 120.0
            },
            {
                "start_time": 39.1886364,
                "end_time": 39.2363636,
                "pitch": 43,
                "velocity": 101,
                "duration": 0.0477273,
                "tempo": 120.0
            },
            {
                "start_time": 39.2886364,
                "end_time": 39.3386364,
                "pitch": 43,
                "velocity": 80,
                "duration": 0.05,
                "tempo": 120.0
            },
            {
                "start_time": 39.3886364,
                "end_time": 39.4386364,
                "pitch": 43,
                "velocity": 80,
                "duration": 0.05,
                "tempo": 120.0
            },
            {
                "start_time": 39.4886364,
                "end_time": 39.5386364,
                "pitch": 31,
                "velocity": 80,
                "duration": 0.05,
                "tempo": 120.0
            },
            {
                "start_time": 39.5909091,
                "end_time": 39.6386364,
                "pitch": 43,
                "velocity": 80,
                "duration": 0.0477273,
                "tempo": 120.0
            },
            {
                "start_time": 39.6886364,
                "end_time": 39.7386364,
                "pitch": 43,
                "velocity": 80,
                "duration": 0.05,
                "tempo": 120.0
            },
            {
                "start_time": 39.7909091,
                "end_time": 39.8386364,
                "pitch": 43,
                "velocity": 101,
                "duration": 0.0477273,
                "tempo": 120.0
            },
            {
                "start_time": 39.8886364,
                "end_time": 39.9386364,
                "pitch": 43,
                "velocity": 80,
                "duration": 0.05,
                "tempo": 120.0
            },
            {
                "start_time": 39.9909091,
                "end_time": 40.0386364,
                "pitch": 43,
                "velocity": 80,
                "duration": 0.0477273,
                "tempo": 120.0
            },
            {
                "start_time": 40.0909091,
                "end_time": 40.1386364,
                "pitch": 31,
                "velocity": 80,
                "duration": 0.0477273,
                "tempo": 120.0
            },
            {
                "start_time": 40.1909091,
                "end_time": 40.2386364,
                "pitch": 43,
                "velocity": 80,
                "duration": 0.0477273,
                "tempo": 120.0
            },
            {
                "start_time": 40.2909091,
                "end_time": 40.3386364,
                "pitch": 43,
                "velocity": 80,
                "duration": 0.0477273,
                "tempo": 120.0
            },
            {
                "start_time": 40.3909091,
                "end_time": 40.4386364,
                "pitch": 43,
                "velocity": 101,
                "duration": 0.0477273,
                "tempo": 120.0
            },
            {
                "start_time": 40.4909091,
                "end_time": 40.5386364,
                "pitch": 43,
                "velocity": 80,
                "duration": 0.0477273,
                "tempo": 120.0
            },
            {
                "start_time": 40.5909091,
                "end_time": 40.6409091,
                "pitch": 43,
                "velocity": 80,
                "duration": 0.05,
                "tempo": 120.0
            },
            {
                "start_time": 40.6931818,
                "end_time": 40.7431818,
                "pitch": 31,
                "velocity": 80,
                "duration": 0.05,
                "tempo": 120.0
            },
            {
                "start_time": 40.7977273,
                "end_time": 40.8477273,
                "pitch": 43,
                "velocity": 80,
                "duration": 0.05,
                "tempo": 120.0
            },
            {
                "start_time": 40.8977273,
                "end_time": 40.95,
                "pitch": 43,
                "velocity": 80,
                "duration": 0.0522727,
                "tempo": 120.0
            },
            {
                "start_time": 41.0022727,
                "end_time": 41.0522727,
                "pitch": 43,
                "velocity": 101,
                "duration": 0.05,
                "tempo": 120.0
            },
            {
                "start_time": 41.1022727,
                "end_time": 41.1522727,
                "pitch": 31,
                "velocity": 80,
                "duration": 0.05,
                "tempo": 120.0
            },
            {
                "start_time": 41.2022727,
                "end_time": 41.3522727,
                "pitch": 43,
                "velocity": 101,
                "duration": 0.15,
                "tempo": 120.0
            },
            {
                "start_time": 41.4045455,
                "end_time": 41.4522727,
                "pitch": 31,
                "velocity": 101,
                "duration": 0.0477273,
                "tempo": 120.0
            },
            {
                "start_time": 41.5022727,
                "end_time": 41.5522727,
                "pitch": 43,
                "velocity": 80,
                "duration": 0.05,
                "tempo": 120.0
            },
            {
                "start_time": 41.6022727,
                "end_time": 41.6522727,
                "pitch": 43,
                "velocity": 80,
                "duration": 0.05,
                "tempo": 120.0
            },
            {
                "start_time": 41.7022727,
                "end_time": 41.7522727,
                "pitch": 31,
                "velocity": 80,
                "duration": 0.05,
                "tempo": 120.0
            },
            {
                "start_time": 41.8045455,
                "end_time": 41.8522727,
                "pitch": 45,
                "velocity": 101,
                "duration": 0.0477273,
                "tempo": 120.0
            },
            {
                "start_time": 41.9022727,
                "end_time": 41.9522727,
                "pitch": 45,
                "velocity": 80,
                "duration": 0.05,
                "tempo": 120.0
            },
            {
                "start_time": 42.0045455,
                "end_time": 42.0522727,
                "pitch": 45,
                "velocity": 80,
                "duration": 0.0477273,
                "tempo": 120.0
            },
            {
                "start_time": 42.1022727,
                "end_time": 42.1522727,
                "pitch": 33,
                "velocity": 80,
                "duration": 0.05,
                "tempo": 120.0
            },
            {
                "start_time": 42.2045455,
                "end_time": 42.2522727,
                "pitch": 45,
                "velocity": 80,
                "duration": 0.0477273,
                "tempo": 120.0
            },
            {
                "start_time": 42.3045455,
                "end_time": 42.3522727,
                "pitch": 45,
                "velocity": 80,
                "duration": 0.0477273,
                "tempo": 120.0
            },
            {
                "start_time": 42.4045455,
                "end_time": 42.4522727,
                "pitch": 45,
                "velocity": 101,
                "duration": 0.0477273,
                "tempo": 120.0
            },
            {
                "start_time": 42.5045455,
                "end_time": 42.5522727,
                "pitch": 45,
                "velocity": 80,
                "duration": 0.0477273,
                "tempo": 120.0
            },
            {
                "start_time": 42.6045455,
                "end_time": 42.6545455,
                "pitch": 45,
                "velocity": 80,
                "duration": 0.05,
                "tempo": 120.0
            },
            {
                "start_time": 42.7045455,
                "end_time": 42.7545455,
                "pitch": 33,
                "velocity": 80,
                "duration": 0.05,
                "tempo": 120.0
            },
            {
                "start_time": 42.8068182,
                "end_time": 42.8545455,
                "pitch": 45,
                "velocity": 80,
                "duration": 0.0477273,
                "tempo": 120.0
            },
            {
                "start_time": 42.9068182,
                "end_time": 42.9568182,
                "pitch": 45,
                "velocity": 80,
                "duration": 0.05,
                "tempo": 120.0
            },
            {
                "start_time": 43.0090909,
                "end_time": 43.0568182,
                "pitch": 45,
                "velocity": 101,
                "duration": 0.0477273,
                "tempo": 120.0
            },
            {
                "start_time": 43.1068182,
                "end_time": 43.1568182,
                "pitch": 45,
                "velocity": 80,
                "duration": 0.05,
                "tempo": 120.0
            },
            {
                "start_time": 43.2090909,
                "end_time": 43.2568182,
                "pitch": 45,
                "velocity": 80,
                "duration": 0.0477273,
                "tempo": 120.0
            },
            {
                "start_time": 43.3068182,
                "end_time": 43.3568182,
                "pitch": 33,
                "velocity": 80,
                "duration": 0.05,
                "tempo": 120.0
            },
            {
                "start_time": 43.4090909,
                "end_time": 43.4568182,
                "pitch": 45,
                "velocity": 80,
                "duration": 0.0477273,
                "tempo": 120.0
            },
            {
                "start_time": 43.5068182,
                "end_time": 43.5568182,
                "pitch": 45,
                "velocity": 80,
                "duration": 0.05,
                "tempo": 120.0
            },
            {
                "start_time": 43.6090909,
                "end_time": 43.6568182,
                "pitch": 45,
                "velocity": 101,
                "duration": 0.0477273,
                "tempo": 120.0
            },
            {
                "start_time": 43.7090909,
                "end_time": 43.7568182,
                "pitch": 45,
                "velocity": 80,
                "duration": 0.0477273,
                "tempo": 120.0
            },
            {
                "start_time": 43.8090909,
                "end_time": 43.8568182,
                "pitch": 45,
                "velocity": 80,
                "duration": 0.0477273,
                "tempo": 120.0
            },
            {
                "start_time": 43.9090909,
                "end_time": 43.9568182,
                "pitch": 33,
                "velocity": 80,
                "duration": 0.0477273,
                "tempo": 120.0
            },
            {
                "start_time": 44.0090909,
                "end_time": 44.0568182,
                "pitch": 45,
                "velocity": 80,
                "duration": 0.0477273,
                "tempo": 120.0
            },
            {
                "start_time": 44.1090909,
                "end_time": 44.1590909,
                "pitch": 45,
                "velocity": 80,
                "duration": 0.05,
                "tempo": 120.0
            },
            {
                "start_time": 44.2090909,
                "end_time": 44.2590909,
                "pitch": 45,
                "velocity": 101,
                "duration": 0.05,
                "tempo": 120.0
            },
            {
                "start_time": 44.3090909,
                "end_time": 44.3590909,
                "pitch": 33,
                "velocity": 80,
                "duration": 0.05,
                "tempo": 120.0
            },
            {
                "start_time": 44.4113636,
                "end_time": 44.5590909,
                "pitch": 45,
                "velocity": 101,
                "duration": 0.1477273,
                "tempo": 120.0
            },
            {
                "start_time": 44.6113636,
                "end_time": 44.6590909,
                "pitch": 33,
                "velocity": 101,
                "duration": 0.0477273,
                "tempo": 120.0
            },
            {
                "start_time": 44.7090909,
                "end_time": 44.7590909,
                "pitch": 45,
                "velocity": 80,
                "duration": 0.05,
                "tempo": 120.0
            },
            {
                "start_time": 44.8113636,
                "end_time": 44.8613636,
                "pitch": 45,
                "velocity": 80,
                "duration": 0.05,
                "tempo": 120.0
            },
            {
                "start_time": 44.9113636,
                "end_time": 44.9613636,
                "pitch": 33,
                "velocity": 80,
                "duration": 0.05,
                "tempo": 120.0
            },
            {
                "start_time": 45.0136364,
                "end_time": 45.0613636,
                "pitch": 43,
                "velocity": 101,
                "duration": 0.0477273,
                "tempo": 120.0
            },
            {
                "start_time": 45.1136364,
                "end_time": 45.1613636,
                "pitch": 43,
                "velocity": 80,
                "duration": 0.0477273,
                "tempo": 120.0
            },
            {
                "start_time": 45.2136364,
                "end_time": 45.2613636,
                "pitch": 43,
                "velocity": 80,
                "duration": 0.0477273,
                "tempo": 120.0
            },
            {
                "start_time": 45.3136364,
                "end_time": 45.3613636,
                "pitch": 31,
                "velocity": 80,
                "duration": 0.0477273,
                "tempo": 120.0
            },
            {
                "start_time": 45.4136364,
                "end_time": 45.4613636,
                "pitch": 43,
                "velocity": 80,
                "duration": 0.0477273,
                "tempo": 120.0
            },
            {
                "start_time": 45.5136364,
                "end_time": 45.5636364,
                "pitch": 43,
                "velocity": 80,
                "duration": 0.05,
                "tempo": 120.0
            },
            {
                "start_time": 45.6136364,
                "end_time": 45.6636364,
                "pitch": 43,
                "velocity": 101,
                "duration": 0.05,
                "tempo": 120.0
            },
            {
                "start_time": 45.7136364,
                "end_time": 45.7636364,
                "pitch": 43,
                "velocity": 80,
                "duration": 0.05,
                "tempo": 120.0
            },
            {
                "start_time": 45.8136364,
                "end_time": 45.8636364,
                "pitch": 43,
                "velocity": 80,
                "duration": 0.05,
                "tempo": 120.0
            },
            {
                "start_time": 45.9136364,
                "end_time": 45.9636364,
                "pitch": 31,
                "velocity": 80,
                "duration": 0.05,
                "tempo": 120.0
            },
            {
                "start_time": 46.0136364,
                "end_time": 46.0636364,
                "pitch": 43,
                "velocity": 80,
                "duration": 0.05,
                "tempo": 120.0
            },
            {
                "start_time": 46.1136364,
                "end_time": 46.1636364,
                "pitch": 43,
                "velocity": 80,
                "duration": 0.05,
                "tempo": 120.0
            },
            {
                "start_time": 46.2159091,
                "end_time": 46.2636364,
                "pitch": 43,
                "velocity": 101,
                "duration": 0.0477273,
                "tempo": 120.0
            },
            {
                "start_time": 46.3136364,
                "end_time": 46.3636364,
                "pitch": 43,
                "velocity": 80,
                "duration": 0.05,
                "tempo": 120.0
            },
            {
                "start_time": 46.4159091,
                "end_time": 46.4636364,
                "pitch": 43,
                "velocity": 80,
                "duration": 0.0477273,
                "tempo": 120.0
            },
            {
                "start_time": 46.5136364,
                "end_time": 46.5636364,
                "pitch": 31,
                "velocity": 80,
                "duration": 0.05,
                "tempo": 120.0
            },
            {
                "start_time": 46.6159091,
                "end_time": 46.6636364,
                "pitch": 43,
                "velocity": 80,
                "duration": 0.0477273,
                "tempo": 120.0
            },
            {
                "start_time": 46.7159091,
                "end_time": 46.7659091,
                "pitch": 43,
                "velocity": 80,
                "duration": 0.05,
                "tempo": 120.0
            },
            {
                "start_time": 46.8181818,
                "end_time": 46.8659091,
                "pitch": 43,
                "velocity": 101,
                "duration": 0.0477273,
                "tempo": 120.0
            },
            {
                "start_time": 46.9159091,
                "end_time": 46.9659091,
                "pitch": 43,
                "velocity": 80,
                "duration": 0.05,
                "tempo": 120.0
            },
            {
                "start_time": 47.0181818,
                "end_time": 47.0681818,
                "pitch": 43,
                "velocity": 80,
                "duration": 0.05,
                "tempo": 120.0
            },
            {
                "start_time": 47.1181818,
                "end_time": 47.1681818,
                "pitch": 31,
                "velocity": 80,
                "duration": 0.05,
                "tempo": 120.0
            },
            {
                "start_time": 47.2181818,
                "end_time": 47.2681818,
                "pitch": 43,
                "velocity": 80,
                "duration": 0.05,
                "tempo": 120.0
            },
            {
                "start_time": 47.3181818,
                "end_time": 47.3681818,
                "pitch": 43,
                "velocity": 80,
                "duration": 0.05,
                "tempo": 120.0
            },
            {
                "start_time": 47.4181818,
                "end_time": 47.4681818,
                "pitch": 43,
                "velocity": 101,
                "duration": 0.05,
                "tempo": 120.0
            },
            {
                "start_time": 47.5181818,
                "end_time": 47.5681818,
                "pitch": 31,
                "velocity": 80,
                "duration": 0.05,
                "tempo": 120.0
            },
            {
                "start_time": 47.6204545,
                "end_time": 47.7681818,
                "pitch": 43,
                "velocity": 101,
                "duration": 0.1477273,
                "tempo": 120.0
            },
            {
                "start_time": 47.8204545,
                "end_time": 47.8681818,
                "pitch": 31,
                "velocity": 101,
                "duration": 0.0477273,
                "tempo": 120.0
            },
            {
                "start_time": 47.9181818,
                "end_time": 47.9681818,
                "pitch": 43,
                "velocity": 80,
                "duration": 0.05,
                "tempo": 120.0
            },
            {
                "start_time": 48.0204545,
                "end_time": 48.0681818,
                "pitch": 43,
                "velocity": 80,
                "duration": 0.0477273,
                "tempo": 120.0
            },
            {
                "start_time": 48.1181818,
                "end_time": 48.1681818,
                "pitch": 31,
                "velocity": 80,
                "duration": 0.05,
                "tempo": 120.0
            },
            {
                "start_time": 48.2204545,
                "end_time": 48.2704545,
                "pitch": 45,
                "velocity": 101,
                "duration": 0.05,
                "tempo": 120.0
            },
            {
                "start_time": 48.3227273,
                "end_time": 48.3727273,
                "pitch": 45,
                "velocity": 80,
                "duration": 0.05,
                "tempo": 120.0
            },
            {
                "start_time": 48.425,
                "end_time": 48.475,
                "pitch": 45,
                "velocity": 80,
                "duration": 0.05,
                "tempo": 120.0
            },
            {
                "start_time": 48.5272727,
                "end_time": 48.5795455,
                "pitch": 33,
                "velocity": 80,
                "duration": 0.0522727,
                "tempo": 120.0
            },
            {
                "start_time": 48.6318182,
                "end_time": 48.6795455,
                "pitch": 45,
                "velocity": 80,
                "duration": 0.0477273,
                "tempo": 120.0
            },
            {
                "start_time": 48.7295455,
                "end_time": 48.7772727,
                "pitch": 45,
                "velocity": 80,
                "duration": 0.0477273,
                "tempo": 120.0
            },
            {
                "start_time": 48.8272727,
                "end_time": 48.875,
                "pitch": 45,
                "velocity": 101,
                "duration": 0.0477273,
                "tempo": 120.0
            },
            {
                "start_time": 48.925,
                "end_time": 48.9727273,
                "pitch": 45,
                "velocity": 80,
                "duration": 0.0477273,
                "tempo": 120.0
            },
            {
                "start_time": 49.0227273,
                "end_time": 49.0727273,
                "pitch": 45,
                "velocity": 80,
                "duration": 0.05,
                "tempo": 120.0
            },
            {
                "start_time": 49.125,
                "end_time": 49.1772727,
                "pitch": 33,
                "velocity": 80,
                "duration": 0.0522727,
                "tempo": 120.0
            },
            {
                "start_time": 49.2295455,
                "end_time": 49.2795455,
                "pitch": 45,
                "velocity": 80,
                "duration": 0.05,
                "tempo": 120.0
            },
            {
                "start_time": 49.3318182,
                "end_time": 49.3818182,
                "pitch": 45,
                "velocity": 80,
                "duration": 0.05,
                "tempo": 120.0
            },
            {
                "start_time": 49.4363636,
                "end_time": 49.4840909,
                "pitch": 45,
                "velocity": 101,
                "duration": 0.0477273,
                "tempo": 120.0
            },
            {
                "start_time": 49.5340909,
                "end_time": 49.5840909,
                "pitch": 45,
                "velocity": 80,
                "duration": 0.05,
                "tempo": 120.0
            },
            {
                "start_time": 49.6363636,
                "end_time": 49.6840909,
                "pitch": 45,
                "velocity": 80,
                "duration": 0.0477273,
                "tempo": 120.0
            },
            {
                "start_time": 49.7340909,
                "end_time": 49.7840909,
                "pitch": 33,
                "velocity": 80,
                "duration": 0.05,
                "tempo": 120.0
            },
            {
                "start_time": 49.8363636,
                "end_time": 49.8840909,
                "pitch": 45,
                "velocity": 80,
                "duration": 0.0477273,
                "tempo": 120.0
            },
            {
                "start_time": 49.9318182,
                "end_time": 49.9818182,
                "pitch": 45,
                "velocity": 80,
                "duration": 0.05,
                "tempo": 120.0
            },
            {
                "start_time": 50.0318182,
                "end_time": 50.0795455,
                "pitch": 45,
                "velocity": 101,
                "duration": 0.0477273,
                "tempo": 120.0
            },
            {
                "start_time": 50.1295455,
                "end_time": 50.1772727,
                "pitch": 45,
                "velocity": 80,
                "duration": 0.0477273,
                "tempo": 120.0
            },
            {
                "start_time": 50.2272727,
                "end_time": 50.2772727,
                "pitch": 45,
                "velocity": 80,
                "duration": 0.05,
                "tempo": 120.0
            },
            {
                "start_time": 50.3295455,
                "end_time": 50.3818182,
                "pitch": 33,
                "velocity": 80,
                "duration": 0.0522727,
                "tempo": 120.0
            },
            {
                "start_time": 50.4340909,
                "end_time": 50.4840909,
                "pitch": 45,
                "velocity": 80,
                "duration": 0.05,
                "tempo": 120.0
            },
            {
                "start_time": 50.5363636,
                "end_time": 50.5863636,
                "pitch": 45,
                "velocity": 80,
                "duration": 0.05,
                "tempo": 120.0
            },
            {
                "start_time": 50.6409091,
                "end_time": 50.6886364,
                "pitch": 45,
                "velocity": 101,
                "duration": 0.0477273,
                "tempo": 120.0
            },
            {
                "start_time": 50.7386364,
                "end_time": 50.7886364,
                "pitch": 33,
                "velocity": 80,
                "duration": 0.05,
                "tempo": 120.0
            },
            {
                "start_time": 50.8409091,
                "end_time": 50.9886364,
                "pitch": 45,
                "velocity": 101,
                "duration": 0.1477273,
                "tempo": 120.0
            },
            {
                "start_time": 51.0409091,
                "end_time": 51.0886364,
                "pitch": 33,
                "velocity": 101,
                "duration": 0.0477273,
                "tempo": 120.0
            },
            {
                "start_time": 51.1386364,
                "end_time": 51.1886364,
                "pitch": 45,
                "velocity": 80,
                "duration": 0.05,
                "tempo": 120.0
            },
            {
                "start_time": 51.2409091,
                "end_time": 51.2886364,
                "pitch": 45,
                "velocity": 80,
                "duration": 0.0477273,
                "tempo": 120.0
            },
            {
                "start_time": 51.3409091,
                "end_time": 51.3886364,
                "pitch": 33,
                "velocity": 80,
                "duration": 0.0477273,
                "tempo": 120.0
            },
            {
                "start_time": 51.4409091,
                "end_time": 51.4886364,
                "pitch": 43,
                "velocity": 101,
                "duration": 0.0477273,
                "tempo": 120.0
            },
            {
                "start_time": 51.5409091,
                "end_time": 51.5886364,
                "pitch": 43,
                "velocity": 80,
                "duration": 0.0477273,
                "tempo": 120.0
            },
            {
                "start_time": 51.6409091,
                "end_time": 51.6886364,
                "pitch": 43,
                "velocity": 80,
                "duration": 0.0477273,
                "tempo": 120.0
            },
            {
                "start_time": 51.7409091,
                "end_time": 51.7886364,
                "pitch": 31,
                "velocity": 80,
                "duration": 0.0477273,
                "tempo": 120.0
            },
            {
                "start_time": 51.8409091,
                "end_time": 51.8909091,
                "pitch": 43,
                "velocity": 80,
                "duration": 0.05,
                "tempo": 120.0
            },
            {
                "start_time": 51.9409091,
                "end_time": 51.9909091,
                "pitch": 43,
                "velocity": 80,
                "duration": 0.05,
                "tempo": 120.0
            },
            {
                "start_time": 52.0409091,
                "end_time": 52.0909091,
                "pitch": 43,
                "velocity": 101,
                "duration": 0.05,
                "tempo": 120.0
            },
            {
                "start_time": 52.1409091,
                "end_time": 52.1909091,
                "pitch": 43,
                "velocity": 80,
                "duration": 0.05,
                "tempo": 120.0
            },
            {
                "start_time": 52.2409091,
                "end_time": 52.2909091,
                "pitch": 43,
                "velocity": 80,
                "duration": 0.05,
                "tempo": 120.0
            },
            {
                "start_time": 52.3409091,
                "end_time": 52.3909091,
                "pitch": 31,
                "velocity": 80,
                "duration": 0.05,
                "tempo": 120.0
            },
            {
                "start_time": 52.4431818,
                "end_time": 52.4931818,
                "pitch": 43,
                "velocity": 80,
                "duration": 0.05,
                "tempo": 120.0
            },
            {
                "start_time": 52.5431818,
                "end_time": 52.5931818,
                "pitch": 43,
                "velocity": 80,
                "duration": 0.05,
                "tempo": 120.0
            },
            {
                "start_time": 52.6454545,
                "end_time": 52.6931818,
                "pitch": 43,
                "velocity": 101,
                "duration": 0.0477273,
                "tempo": 120.0
            },
            {
                "start_time": 52.7431818,
                "end_time": 52.7931818,
                "pitch": 43,
                "velocity": 80,
                "duration": 0.05,
                "tempo": 120.0
            },
            {
                "start_time": 52.8454545,
                "end_time": 52.8931818,
                "pitch": 43,
                "velocity": 80,
                "duration": 0.0477273,
                "tempo": 120.0
            },
            {
                "start_time": 52.9454545,
                "end_time": 52.9931818,
                "pitch": 31,
                "velocity": 80,
                "duration": 0.0477273,
                "tempo": 120.0
            },
            {
                "start_time": 53.0454545,
                "end_time": 53.0931818,
                "pitch": 43,
                "velocity": 80,
                "duration": 0.0477273,
                "tempo": 120.0
            },
            {
                "start_time": 53.1454545,
                "end_time": 53.1931818,
                "pitch": 43,
                "velocity": 80,
                "duration": 0.0477273,
                "tempo": 120.0
            },
            {
                "start_time": 53.2454545,
                "end_time": 53.2954545,
                "pitch": 43,
                "velocity": 101,
                "duration": 0.05,
                "tempo": 120.0
            },
            {
                "start_time": 53.3454545,
                "end_time": 53.3954545,
                "pitch": 43,
                "velocity": 80,
                "duration": 0.05,
                "tempo": 120.0
            },
            {
                "start_time": 53.4454545,
                "end_time": 53.4954545,
                "pitch": 43,
                "velocity": 80,
                "duration": 0.05,
                "tempo": 120.0
            },
            {
                "start_time": 53.5454545,
                "end_time": 53.5954545,
                "pitch": 31,
                "velocity": 80,
                "duration": 0.05,
                "tempo": 120.0
            },
            {
                "start_time": 53.6454545,
                "end_time": 53.6954545,
                "pitch": 43,
                "velocity": 80,
                "duration": 0.05,
                "tempo": 120.0
            },
            {
                "start_time": 53.7454545,
                "end_time": 53.7954545,
                "pitch": 43,
                "velocity": 80,
                "duration": 0.05,
                "tempo": 120.0
            },
            {
                "start_time": 53.8477273,
                "end_time": 53.8954545,
                "pitch": 43,
                "velocity": 101,
                "duration": 0.0477273,
                "tempo": 120.0
            },
            {
                "start_time": 53.9454545,
                "end_time": 53.9954545,
                "pitch": 31,
                "velocity": 80,
                "duration": 0.05,
                "tempo": 120.0
            },
            {
                "start_time": 54.0477273,
                "end_time": 54.1954545,
                "pitch": 43,
                "velocity": 101,
                "duration": 0.1477273,
                "tempo": 120.0
            },
            {
                "start_time": 54.2477273,
                "end_time": 54.2954545,
                "pitch": 31,
                "velocity": 101,
                "duration": 0.0477273,
                "tempo": 120.0
            },
            {
                "start_time": 54.3477273,
                "end_time": 54.3977273,
                "pitch": 43,
                "velocity": 80,
                "duration": 0.05,
                "tempo": 120.0
            },
            {
                "start_time": 54.4477273,
                "end_time": 54.4977273,
                "pitch": 43,
                "velocity": 80,
                "duration": 0.05,
                "tempo": 120.0
            },
            {
                "start_time": 54.5477273,
                "end_time": 54.5977273,
                "pitch": 31,
                "velocity": 80,
                "duration": 0.05,
                "tempo": 120.0
            },
            {
                "start_time": 54.65,
                "end_time": 54.7,
                "pitch": 45,
                "velocity": 101,
                "duration": 0.05,
                "tempo": 120.0
            },
            {
                "start_time": 54.7522727,
                "end_time": 54.8022727,
                "pitch": 45,
                "velocity": 80,
                "duration": 0.05,
                "tempo": 120.0
            },
            {
                "start_time": 54.8545455,
                "end_time": 54.9068182,
                "pitch": 45,
                "velocity": 80,
                "duration": 0.0522727,
                "tempo": 120.0
            },
            {
                "start_time": 54.9568182,
                "end_time": 55.0090909,
                "pitch": 33,
                "velocity": 80,
                "duration": 0.0522727,
                "tempo": 120.0
            },
            {
                "start_time": 55.0613636,
                "end_time": 55.1090909,
                "pitch": 45,
                "velocity": 80,
                "duration": 0.0477273,
                "tempo": 120.0
            },
            {
                "start_time": 55.1590909,
                "end_time": 55.2068182,
                "pitch": 45,
                "velocity": 80,
                "duration": 0.0477273,
                "tempo": 120.0
            },
            {
                "start_time": 55.2590909,
                "end_time": 55.3045455,
                "pitch": 45,
                "velocity": 101,
                "duration": 0.0454545,
                "tempo": 120.0
            },
            {
                "start_time": 55.3545455,
                "end_time": 55.4045455,
                "pitch": 45,
                "velocity": 80,
                "duration": 0.05,
                "tempo": 120.0
            },
            {
                "start_time": 55.4545455,
                "end_time": 55.5022727,
                "pitch": 45,
                "velocity": 80,
                "duration": 0.0477273,
                "tempo": 120.0
            },
            {
                "start_time": 55.5545455,
                "end_time": 55.6022727,
                "pitch": 33,
                "velocity": 80,
                "duration": 0.0477273,
                "tempo": 120.0
            },
            {
                "start_time": 55.6545455,
                "end_time": 55.7022727,
                "pitch": 45,
                "velocity": 80,
                "duration": 0.0477273,
                "tempo": 120.0
            },
            {
                "start_time": 55.7545455,
                "end_time": 55.8022727,
                "pitch": 45,
                "velocity": 80,
                "duration": 0.0477273,
                "tempo": 120.0
            },
            {
                "start_time": 55.8545455,
                "end_time": 55.9045455,
                "pitch": 45,
                "velocity": 101,
                "duration": 0.05,
                "tempo": 120.0
            },
            {
                "start_time": 55.9568182,
                "end_time": 56.0068182,
                "pitch": 45,
                "velocity": 80,
                "duration": 0.05,
                "tempo": 120.0
            },
            {
                "start_time": 56.0590909,
                "end_time": 56.1113636,
                "pitch": 45,
                "velocity": 80,
                "duration": 0.0522727,
                "tempo": 120.0
            },
            {
                "start_time": 56.1613636,
                "end_time": 56.2136364,
                "pitch": 33,
                "velocity": 80,
                "duration": 0.0522727,
                "tempo": 120.0
            },
            {
                "start_time": 56.2659091,
                "end_time": 56.3136364,
                "pitch": 45,
                "velocity": 80,
                "duration": 0.0477273,
                "tempo": 120.0
            },
            {
                "start_time": 56.3636364,
                "end_time": 56.4113636,
                "pitch": 45,
                "velocity": 80,
                "duration": 0.0477273,
                "tempo": 120.0
            },
            {
                "start_time": 56.4613636,
                "end_time": 56.5090909,
                "pitch": 45,
                "velocity": 101,
                "duration": 0.0477273,
                "tempo": 120.0
            },
            {
                "start_time": 56.5590909,
                "end_time": 56.6090909,
                "pitch": 45,
                "velocity": 80,
                "duration": 0.05,
                "tempo": 120.0
            },
            {
                "start_time": 56.6590909,
                "end_time": 56.7090909,
                "pitch": 45,
                "velocity": 80,
                "duration": 0.05,
                "tempo": 120.0
            },
            {
                "start_time": 56.7613636,
                "end_time": 56.8113636,
                "pitch": 33,
                "velocity": 80,
                "duration": 0.05,
                "tempo": 120.0
            },
            {
                "start_time": 56.8636364,
                "end_time": 56.9136364,
                "pitch": 45,
                "velocity": 80,
                "duration": 0.05,
                "tempo": 120.0
            },
            {
                "start_time": 56.9659091,
                "end_time": 57.0159091,
                "pitch": 45,
                "velocity": 80,
                "duration": 0.05,
                "tempo": 120.0
            },
            {
                "start_time": 57.0704545,
                "end_time": 57.1181818,
                "pitch": 45,
                "velocity": 101,
                "duration": 0.0477273,
                "tempo": 120.0
            },
            {
                "start_time": 57.1681818,
                "end_time": 57.2181818,
                "pitch": 33,
                "velocity": 80,
                "duration": 0.05,
                "tempo": 120.0
            },
            {
                "start_time": 57.2704545,
                "end_time": 57.4181818,
                "pitch": 45,
                "velocity": 101,
                "duration": 0.1477273,
                "tempo": 120.0
            },
            {
                "start_time": 57.4704545,
                "end_time": 57.5181818,
                "pitch": 33,
                "velocity": 101,
                "duration": 0.0477273,
                "tempo": 120.0
            },
            {
                "start_time": 57.5704545,
                "end_time": 57.6204545,
                "pitch": 45,
                "velocity": 80,
                "duration": 0.05,
                "tempo": 120.0
            },
            {
                "start_time": 57.6727273,
                "end_time": 57.7204545,
                "pitch": 45,
                "velocity": 80,
                "duration": 0.0477273,
                "tempo": 120.0
            },
            {
                "start_time": 57.7727273,
                "end_time": 57.8227273,
                "pitch": 33,
                "velocity": 80,
                "duration": 0.05,
                "tempo": 120.0
            },
            {
                "start_time": 57.8727273,
                "end_time": 57.9227273,
                "pitch": 43,
                "velocity": 101,
                "duration": 0.05,
                "tempo": 120.0
            },
            {
                "start_time": 57.9727273,
                "end_time": 58.0227273,
                "pitch": 43,
                "velocity": 80,
                "duration": 0.05,
                "tempo": 120.0
            },
            {
                "start_time": 58.0727273,
                "end_time": 58.1227273,
                "pitch": 43,
                "velocity": 80,
                "duration": 0.05,
                "tempo": 120.0
            },
            {
                "start_time": 58.1727273,
                "end_time": 58.2227273,
                "pitch": 31,
                "velocity": 80,
                "duration": 0.05,
                "tempo": 120.0
            },
            {
                "start_time": 58.275,
                "end_time": 58.3227273,
                "pitch": 43,
                "velocity": 80,
                "duration": 0.0477273,
                "tempo": 120.0
            },
            {
                "start_time": 58.3727273,
                "end_time": 58.4227273,
                "pitch": 43,
                "velocity": 80,
                "duration": 0.05,
                "tempo": 120.0
            },
            {
                "start_time": 58.475,
                "end_time": 58.5227273,
                "pitch": 43,
                "velocity": 101,
                "duration": 0.0477273,
                "tempo": 120.0
            },
            {
                "start_time": 58.5727273,
                "end_time": 58.6227273,
                "pitch": 43,
                "velocity": 80,
                "duration": 0.05,
                "tempo": 120.0
            },
            {
                "start_time": 58.675,
                "end_time": 58.7227273,
                "pitch": 43,
                "velocity": 80,
                "duration": 0.0477273,
                "tempo": 120.0
            },
            {
                "start_time": 58.775,
                "end_time": 58.8227273,
                "pitch": 31,
                "velocity": 80,
                "duration": 0.0477273,
                "tempo": 120.0
            },
            {
                "start_time": 58.875,
                "end_time": 58.9227273,
                "pitch": 43,
                "velocity": 80,
                "duration": 0.0477273,
                "tempo": 120.0
            },
            {
                "start_time": 58.975,
                "end_time": 59.0227273,
                "pitch": 43,
                "velocity": 80,
                "duration": 0.0477273,
                "tempo": 120.0
            },
            {
                "start_time": 59.075,
                "end_time": 59.1227273,
                "pitch": 43,
                "velocity": 101,
                "duration": 0.0477273,
                "tempo": 120.0
            },
            {
                "start_time": 59.175,
                "end_time": 59.2227273,
                "pitch": 43,
                "velocity": 80,
                "duration": 0.0477273,
                "tempo": 120.0
            },
            {
                "start_time": 59.275,
                "end_time": 59.325,
                "pitch": 43,
                "velocity": 80,
                "duration": 0.05,
                "tempo": 120.0
            },
            {
                "start_time": 59.375,
                "end_time": 59.425,
                "pitch": 31,
                "velocity": 80,
                "duration": 0.05,
                "tempo": 120.0
            },
            {
                "start_time": 59.475,
                "end_time": 59.525,
                "pitch": 43,
                "velocity": 80,
                "duration": 0.05,
                "tempo": 120.0
            },
            {
                "start_time": 59.575,
                "end_time": 59.625,
                "pitch": 43,
                "velocity": 80,
                "duration": 0.05,
                "tempo": 120.0
            },
            {
                "start_time": 59.6772727,
                "end_time": 59.7272727,
                "pitch": 43,
                "velocity": 101,
                "duration": 0.05,
                "tempo": 120.0
            },
            {
                "start_time": 59.7772727,
                "end_time": 59.8272727,
                "pitch": 43,
                "velocity": 80,
                "duration": 0.05,
                "tempo": 120.0
            },
            {
                "start_time": 59.8795455,
                "end_time": 59.9272727,
                "pitch": 43,
                "velocity": 80,
                "duration": 0.0477273,
                "tempo": 120.0
            },
            {
                "start_time": 59.9772727,
                "end_time": 60.0272727,
                "pitch": 31,
                "velocity": 80,
                "duration": 0.05,
                "tempo": 120.0
            },
            {
                "start_time": 60.0795455,
                "end_time": 60.1272727,
                "pitch": 43,
                "velocity": 80,
                "duration": 0.0477273,
                "tempo": 120.0
            },
            {
                "start_time": 60.1772727,
                "end_time": 60.2272727,
                "pitch": 43,
                "velocity": 80,
                "duration": 0.05,
                "tempo": 120.0
            },
            {
                "start_time": 60.2795455,
                "end_time": 60.3272727,
                "pitch": 43,
                "velocity": 101,
                "duration": 0.0477273,
                "tempo": 120.0
            },
            {
                "start_time": 60.3795455,
                "end_time": 60.4272727,
                "pitch": 31,
                "velocity": 80,
                "duration": 0.0477273,
                "tempo": 120.0
            },
            {
                "start_time": 60.4795455,
                "end_time": 60.6272727,
                "pitch": 43,
                "velocity": 101,
                "duration": 0.1477273,
                "tempo": 120.0
            },
            {
                "start_time": 60.6795455,
                "end_time": 60.7295455,
                "pitch": 31,
                "velocity": 101,
                "duration": 0.05,
                "tempo": 120.0
            },
            {
                "start_time": 60.7795455,
                "end_time": 60.8295455,
                "pitch": 43,
                "velocity": 80,
                "duration": 0.05,
                "tempo": 120.0
            },
            {
                "start_time": 60.8795455,
                "end_time": 60.9295455,
                "pitch": 43,
                "velocity": 80,
                "duration": 0.05,
                "tempo": 120.0
            },
            {
                "start_time": 60.9795455,
                "end_time": 61.0295455,
                "pitch": 31,
                "velocity": 80,
                "duration": 0.05,
                "tempo": 120.0
            },
            {
                "start_time": 61.0818182,
                "end_time": 61.1613636,
                "pitch": 45,
                "velocity": 80,
                "duration": 0.0795455,
                "tempo": 120.0
            },
            {
                "start_time": 61.1795455,
                "end_time": 61.2613636,
                "pitch": 45,
                "velocity": 80,
                "duration": 0.0818182,
                "tempo": 120.0
            },
            {
                "start_time": 61.2795455,
                "end_time": 61.3636364,
                "pitch": 45,
                "velocity": 80,
                "duration": 0.0840909,
                "tempo": 120.0
            },
            {
                "start_time": 61.3795455,
                "end_time": 61.4636364,
                "pitch": 33,
                "velocity": 80,
                "duration": 0.0840909,
                "tempo": 120.0
            },
            {
                "start_time": 61.4795455,
                "end_time": 61.5636364,
                "pitch": 45,
                "velocity": 80,
                "duration": 0.0840909,
                "tempo": 120.0
            },
            {
                "start_time": 61.5818182,
                "end_time": 61.6636364,
                "pitch": 45,
                "velocity": 80,
                "duration": 0.0818182,
                "tempo": 120.0
            },
            {
                "start_time": 61.6818182,
                "end_time": 61.7659091,
                "pitch": 45,
                "velocity": 80,
                "duration": 0.0840909,
                "tempo": 120.0
            },
            {
                "start_time": 61.7840909,
                "end_time": 61.8659091,
                "pitch": 33,
                "velocity": 80,
                "duration": 0.0818182,
                "tempo": 120.0
            },
            {
                "start_time": 61.8840909,
                "end_time": 61.9681818,
                "pitch": 45,
                "velocity": 80,
                "duration": 0.0840909,
                "tempo": 120.0
            },
            {
                "start_time": 61.9863636,
                "end_time": 62.0704545,
                "pitch": 45,
                "velocity": 80,
                "duration": 0.0840909,
                "tempo": 120.0
            },
            {
                "start_time": 62.0886364,
                "end_time": 62.175,
                "pitch": 45,
                "velocity": 80,
                "duration": 0.0863636,
                "tempo": 120.0
            },
            {
                "start_time": 62.1909091,
                "end_time": 62.2772727,
                "pitch": 33,
                "velocity": 80,
                "duration": 0.0863636,
                "tempo": 120.0
            },
            {
                "start_time": 62.2954545,
                "end_time": 62.375,
                "pitch": 45,
                "velocity": 80,
                "duration": 0.0795455,
                "tempo": 120.0
            },
            {
                "start_time": 62.3931818,
                "end_time": 62.475,
                "pitch": 45,
                "velocity": 80,
                "duration": 0.0818182,
                "tempo": 120.0
            },
            {
                "start_time": 62.4909091,
                "end_time": 62.5727273,
                "pitch": 45,
                "velocity": 80,
                "duration": 0.0818182,
                "tempo": 120.0
            },
            {
                "start_time": 62.5886364,
                "end_time": 62.6704545,
                "pitch": 33,
                "velocity": 80,
                "duration": 0.0818182,
                "tempo": 120.0
            },
            {
                "start_time": 62.6863636,
                "end_time": 62.7704545,
                "pitch": 45,
                "velocity": 80,
                "duration": 0.0840909,
                "tempo": 120.0
            },
            {
                "start_time": 62.7863636,
                "end_time": 62.8704545,
                "pitch": 45,
                "velocity": 80,
                "duration": 0.0840909,
                "tempo": 120.0
            },
            {
                "start_time": 62.8863636,
                "end_time": 62.9704545,
                "pitch": 45,
                "velocity": 80,
                "duration": 0.0840909,
                "tempo": 120.0
            },
            {
                "start_time": 62.9886364,
                "end_time": 63.0704545,
                "pitch": 33,
                "velocity": 80,
                "duration": 0.0818182,
                "tempo": 120.0
            },
            {
                "start_time": 63.0886364,
                "end_time": 63.1727273,
                "pitch": 45,
                "velocity": 80,
                "duration": 0.0840909,
                "tempo": 120.0
            },
            {
                "start_time": 63.1909091,
                "end_time": 63.275,
                "pitch": 45,
                "velocity": 80,
                "duration": 0.0840909,
                "tempo": 120.0
            },
            {
                "start_time": 63.2931818,
                "end_time": 63.3772727,
                "pitch": 45,
                "velocity": 80,
                "duration": 0.0840909,
                "tempo": 120.0
            },
            {
                "start_time": 63.3954545,
                "end_time": 63.4818182,
                "pitch": 33,
                "velocity": 80,
                "duration": 0.0863636,
                "tempo": 120.0
            },
            {
                "start_time": 63.4977273,
                "end_time": 63.5795455,
                "pitch": 45,
                "velocity": 80,
                "duration": 0.0818182,
                "tempo": 120.0
            },
            {
                "start_time": 63.5977273,
                "end_time": 63.6772727,
                "pitch": 45,
                "velocity": 80,
                "duration": 0.0795455,
                "tempo": 120.0
            },
            {
                "start_time": 63.6954545,
                "end_time": 63.7772727,
                "pitch": 33,
                "velocity": 80,
                "duration": 0.0818182,
                "tempo": 120.0
            },
            {
                "start_time": 63.7931818,
                "end_time": 63.875,
                "pitch": 45,
                "velocity": 80,
                "duration": 0.0818182,
                "tempo": 120.0
            },
            {
                "start_time": 63.8909091,
                "end_time": 63.9772727,
                "pitch": 33,
                "velocity": 80,
                "duration": 0.0863636,
                "tempo": 120.0
            },
            {
                "start_time": 63.9931818,
                "end_time": 64.0795455,
                "pitch": 36,
                "velocity": 80,
                "duration": 0.0863636,
                "tempo": 120.0
            },
            {
                "start_time": 64.0977273,
                "end_time": 64.1818182,
                "pitch": 40,
                "velocity": 80,
                "duration": 0.0840909,
                "tempo": 120.0
            },
            {
                "start_time": 64.2,
                "end_time": 64.2840909,
                "pitch": 43,
                "velocity": 80,
                "duration": 0.0840909,
                "tempo": 120.0
            },
            {
                "start_time": 64.3090909,
                "end_time": 64.3863636,
                "pitch": 45,
                "velocity": 80,
                "duration": 0.0772727,
                "tempo": 120.0
            },
            {
                "start_time": 64.4022727,
                "end_time": 64.4045455,
                "pitch": 45,
                "velocity": 80,
                "duration": 0.0022727,
                "tempo": 120.0
            }
        ]
    }
}