{
    "mood": "angry",
    "instruments": {
        "Electric Piano 1": [
            {
                "start_time": 6.2431818,
                "end_time": 6.75,
                "pitch": 57,
                "velocity": 32,
                "duration": 0.5068182,
                "tempo": 120.0
            },
            {
                "start_time": 6.7681818,
                "end_time": 7.2681818,
                "pitch": 52,
                "velocity": 32,
                "duration": 0.5,
                "tempo": 120.0
            },
            {
                "start_time": 7.3022727,
                "end_time": 7.6204545,
                "pitch": 57,
                "velocity": 32,
                "duration": 0.3181818,
                "tempo": 120.0
            },
            {
                "start_time": 7.6545455,
                "end_time": 8.1545455,
                "pitch": 63,
                "velocity": 32,
                "duration": 0.5,
                "tempo": 120.0
            },
            {
                "start_time": 8.1886364,
                "end_time": 8.675,
                "pitch": 62,
                "velocity": 32,
                "duration": 0.4863636,
                "tempo": 120.0
            },
            {
                "start_time": 8.7090909,
                "end_time": 9.025,
                "pitch": 60,
                "velocity": 32,
                "duration": 0.3159091,
                "tempo": 120.0
            },
            {
                "start_time": 9.0590909,
                "end_time": 9.5613636,
                "pitch": 59,
                "velocity": 32,
                "duration": 0.5022727,
                "tempo": 120.0
            },
            {
                "start_time": 9.5954545,
                "end_time": 10.0977273,
                "pitch": 60,
                "velocity": 32,
                "duration": 0.5022727,
                "tempo": 120.0
            },
            {
                "start_time": 10.1159091,
                "end_time": 10.4568182,
                "pitch": 59,
                "velocity": 32,
                "duration": 0.3409091,
                "tempo": 120.0
            },
            {
                "start_time": 10.475,
                "end_time": 10.9704545,
                "pitch": 57,
                "velocity": 32,
                "duration": 0.4954545,
                "tempo": 120.0
            },
            {
                "start_time": 11.0022727,
                "end_time": 11.5022727,
                "pitch": 59,
                "velocity": 32,
                "duration": 0.5,
                "tempo": 120.0
            },
            {
                "start_time": 11.5386364,
                "end_time": 11.8636364,
                "pitch": 60,
                "velocity": 32,
                "duration": 0.325,
                "tempo": 120.0
            },
            {
                "start_time": 11.8977273,
                "end_time": 12.4159091,
                "pitch": 51,
                "velocity": 32,
                "duration": 0.5181818,
                "tempo": 120.0
            },
            {
                "start_time": 12.4159091,
                "end_time": 12.5954545,
                "pitch": 55,
                "velocity": 32,
                "duration": 0.1795455,
                "tempo": 120.0
            },
            {
                "start_time": 12.5954545,
                "end_time": 13.6568182,
                "pitch": 53,
                "velocity": 32,
                "duration": 1.0613636,
                "tempo": 120.0
            },
            {
                "start_time": 13.6568182,
                "end_time": 14.6931818,
                "pitch": 57,
                "velocity": 32,
                "duration": 1.0363636,
                "tempo": 120.0
            },
            {
                "start_time": 14.7272727,
                "end_time": 15.2454545,
                "pitch": 51,
                "velocity": 32,
                "duration": 0.5181818,
                "tempo": 120.0
            },
            {
                "start_time": 15.2454545,
                "end_time": 15.4295455,
                "pitch": 55,
                "velocity": 32,
                "duration": 0.1840909,
                "tempo": 120.0
            },
            {
                "start_time": 12.5954545,
                "end_time": 15.4295455,
                "pitch": 66,
                "velocity": 32,
                "duration": 2.8340909,
                "tempo": 120.0
            },
            {
                "start_time": 15.4295455,
                "end_time": 16.4818182,
                "pitch": 53,
                "velocity": 32,
                "duration": 1.0522727,
                "tempo": 120.0
            },
            {
                "start_time": 16.4818182,
                "end_time": 17.5022727,
                "pitch": 57,
                "velocity": 32,
                "duration": 1.0204545,
                "tempo": 120.0
            },
            {
                "start_time": 17.5363636,
                "end_time": 18.0363636,
                "pitch": 57,
                "velocity": 32,
                "duration": 0.5,
                "tempo": 120.0
            },
            {
                "start_time": 18.0704545,
                "end_time": 18.5727273,
                "pitch": 52,
                "velocity": 32,
                "duration": 0.5022727,
                "tempo": 120.0
            },
            {
                "start_time": 18.5886364,
                "end_time": 18.9227273,
                "pitch": 57,
                "velocity": 32,
                "duration": 0.3340909,
                "tempo": 120.0
            },
            {
                "start_time": 18.9409091,
                "end_time": 19.4431818,
                "pitch": 63,
                "velocity": 32,
                "duration": 0.5022727,
                "tempo": 120.0
            },
            {
                "start_time": 19.475,
                "end_time": 19.9772727,
                "pitch": 62,
                "velocity": 32,
                "duration": 0.5022727,
                "tempo": 120.0
            },
            {
                "start_time": 20.0113636,
                "end_time": 20.3295455,
                "pitch": 60,
                "velocity": 32,
                "duration": 0.3181818,
                "tempo": 120.0
            },
            {
                "start_time": 20.3613636,
                "end_time": 20.8477273,
                "pitch": 59,
                "velocity": 32,
                "duration": 0.4863636,
                "tempo": 120.0
            },
            {
                "start_time": 20.8818182,
                "end_time": 21.3840909,
                "pitch": 60,
                "velocity": 32,
                "duration": 0.5022727,
                "tempo": 120.0
            },
            {
                "start_time": 21.4181818,
                "end_time": 21.7409091,
                "pitch": 59,
                "velocity": 32,
                "duration": 0.3227273,
                "tempo": 120.0
            },
            {
                "start_time": 21.775,
                "end_time": 22.2818182,
                "pitch": 57,
                "velocity": 32,
                "duration": 0.5068182,
                "tempo": 120.0
            },
            {
                "start_time": 22.3,
                "end_time": 22.8068182,
                "pitch": 59,
                "velocity": 32,
                "duration": 0.5068182,
                "tempo": 120.0
            },
            {
                "start_time": 22.8409091,
                "end_time": 23.1590909,
                "pitch": 60,
                "velocity": 32,
                "duration": 0.3181818,
                "tempo": 120.0
            },
            {
                "start_time": 23.1931818,
                "end_time": 23.7204545,
                "pitch": 51,
                "velocity": 32,
                "duration": 0.5272727,
                "tempo": 120.0
            },
            {
                "start_time": 23.7204545,
                "end_time": 23.9022727,
                "pitch": 55,
                "velocity": 32,
                "duration": 0.1818182,
                "tempo": 120.0
            },
            {
                "start_time": 15.4295455,
                "end_time": 23.9022727,
                "pitch": 66,
                "velocity": 32,
                "duration": 8.4727273,
                "tempo": 120.0
            },
            {
                "start_time": 23.9022727,
                "end_time": 24.9590909,
                "pitch": 53,
                "velocity": 32,
                "duration": 1.0568182,
                "tempo": 120.0
            },
            {
                "start_time": 24.9590909,
                "end_time": 25.9772727,
                "pitch": 57,
                "velocity": 32,
                "duration": 1.0181818,
                "tempo": 120.0
            },
            {
                "start_time": 26.0113636,
                "end_time": 26.5477273,
                "pitch": 51,
                "velocity": 32,
                "duration": 0.5363636,
                "tempo": 120.0
            },
            {
                "start_time": 26.5477273,
                "end_time": 26.7136364,
                "pitch": 55,
                "velocity": 32,
                "duration": 0.1659091,
                "tempo": 120.0
            },
            {
                "start_time": 23.9022727,
                "end_time": 26.7136364,
                "pitch": 66,
                "velocity": 32,
                "duration": 2.8113636,
                "tempo": 120.0
            },
            {
                "start_time": 26.7136364,
                "end_time": 27.7681818,
                "pitch": 53,
                "velocity": 32,
                "duration": 1.0545455,
                "tempo": 120.0
            },
            {
                "start_time": 27.7681818,
                "end_time": 28.8068182,
                "pitch": 57,
                "velocity": 32,
                "duration": 1.0386364,
                "tempo": 120.0
            },
            {
                "start_time": 28.8409091,
                "end_time": 28.9772727,
                "pitch": 57,
                "velocity": 32,
                "duration": 0.1363636,
                "tempo": 120.0
            },
            {
                "start_time": 29.0136364,
                "end_time": 29.3272727,
                "pitch": 57,
                "velocity": 20,
                "duration": 0.3136364,
                "tempo": 120.0
            },
            {
                "start_time": 29.3590909,
                "end_time": 29.675,
                "pitch": 59,
                "velocity": 32,
                "duration": 0.3159091,
                "tempo": 120.0
            },
            {
                "start_time": 29.7090909,
                "end_time": 30.025,
                "pitch": 59,
                "velocity": 20,
                "duration": 0.3159091,
                "tempo": 120.0
            },
            {
                "start_time": 30.2454545,
                "end_time": 30.3840909,
                "pitch": 60,
                "velocity": 32,
                "duration": 0.1386364,
                "tempo": 120.0
            },
            {
                "start_time": 30.4181818,
                "end_time": 30.7477273,
                "pitch": 60,
                "velocity": 20,
                "duration": 0.3295455,
                "tempo": 120.0
            },
            {
                "start_time": 30.7636364,
                "end_time": 31.1090909,
                "pitch": 62,
                "velocity": 32,
                "duration": 0.3454545,
                "tempo": 120.0
            },
            {
                "start_time": 31.1272727,
                "end_time": 31.4659091,
                "pitch": 62,
                "velocity": 20,
                "duration": 0.3386364,
                "tempo": 120.0
            },
            {
                "start_time": 31.6681818,
                "end_time": 31.825,
                "pitch": 60,
                "velocity": 32,
                "duration": 0.1568182,
                "tempo": 120.0
            },
            {
                "start_time": 31.8409091,
                "end_time": 32.1727273,
                "pitch": 60,
                "velocity": 20,
                "duration": 0.3318182,
                "tempo": 120.0
            },
            {
                "start_time": 32.1886364,
                "end_time": 32.5204545,
                "pitch": 59,
                "velocity": 32,
                "duration": 0.3318182,
                "tempo": 120.0
            },
            {
                "start_time": 32.5363636,
                "end_time": 32.8704545,
                "pitch": 59,
                "velocity": 20,
                "duration": 0.3340909,
                "tempo": 120.0
            },
            {
                "start_time": 33.075,
                "end_time": 33.2295455,
                "pitch": 60,
                "velocity": 32,
                "duration": 0.1545455,
                "tempo": 120.0
            },
            {
                "start_time": 33.2636364,
                "end_time": 33.5772727,
                "pitch": 60,
                "velocity": 20,
                "duration": 0.3136364,
                "tempo": 120.0
            },
            {
                "start_time": 33.6113636,
                "end_time": 33.925,
                "pitch": 60,
                "velocity": 32,
                "duration": 0.3136364,
                "tempo": 120.0
            },
            {
                "start_time": 33.9590909,
                "end_time": 34.0931818,
                "pitch": 59,
                "velocity": 32,
                "duration": 0.1340909,
                "tempo": 120.0
            },
            {
                "start_time": 34.1295455,
                "end_time": 34.2840909,
                "pitch": 57,
                "velocity": 32,
                "duration": 0.1545455,
                "tempo": 120.0
            },
            {
                "start_time": 34.3181818,
                "end_time": 34.4545455,
                "pitch": 55,
                "velocity": 32,
                "duration": 0.1363636,
                "tempo": 120.0
            },
            {
                "start_time": 34.4886364,
                "end_time": 34.9909091,
                "pitch": 57,
                "velocity": 32,
                "duration": 0.5022727,
                "tempo": 120.0
            },
            {
                "start_time": 35.0227273,
                "end_time": 35.5159091,
                "pitch": 52,
                "velocity": 32,
                "duration": 0.4931818,
                "tempo": 120.0
            },
            {
                "start_time": 35.5340909,
                "end_time": 35.8772727,
                "pitch": 57,
                "velocity": 32,
                "duration": 0.3431818,
                "tempo": 120.0
            },
            {
                "start_time": 35.8931818,
                "end_time": 36.3954545,
                "pitch": 63,
                "velocity": 32,
                "duration": 0.5022727,
                "tempo": 120.0
            },
            {
                "start_time": 36.4295455,
                "end_time": 36.9295455,
                "pitch": 62,
                "velocity": 32,
                "duration": 0.5,
                "tempo": 120.0
            },
            {
                "start_time": 36.9477273,
                "end_time": 37.2818182,
                "pitch": 60,
                "velocity": 32,
                "duration": 0.3340909,
                "tempo": 120.0
            },
            {
                "start_time": 37.3159091,
                "end_time": 37.8,
                "pitch": 59,
                "velocity": 32,
                "duration": 0.4840909,
                "tempo": 120.0
            },
            {
                "start_time": 37.8340909,
                "end_time": 38.3340909,
                "pitch": 60,
                "velocity": 32,
                "duration": 0.5,
                "tempo": 120.0
            },
            {
                "start_time": 38.3681818,
                "end_time": 38.6863636,
                "pitch": 59,
                "velocity": 32,
                "duration": 0.3181818,
                "tempo": 120.0
            },
            {
                "start_time": 38.7204545,
                "end_time": 39.2204545,
                "pitch": 57,
                "velocity": 32,
                "duration": 0.5,
                "tempo": 120.0
            },
            {
                "start_time": 39.2386364,
                "end_time": 39.7590909,
                "pitch": 59,
                "velocity": 32,
                "duration": 0.5204545,
                "tempo": 120.0
            },
            {
                "start_time": 39.7931818,
                "end_time": 40.1113636,
                "pitch": 60,
                "velocity": 32,
                "duration": 0.3181818,
                "tempo": 120.0
            },
            {
                "start_time": 40.1454545,
                "end_time": 40.2954545,
                "pitch": 57,
                "velocity": 32,
                "duration": 0.15,
                "tempo": 120.0
            },
            {
                "start_time": 40.3113636,
                "end_time": 40.6454545,
                "pitch": 57,
                "velocity": 20,
                "duration": 0.3340909,
                "tempo": 120.0
            },
            {
                "start_time": 40.6636364,
                "end_time": 40.9977273,
                "pitch": 59,
                "velocity": 32,
                "duration": 0.3340909,
                "tempo": 120.0
            },
            {
                "start_time": 41.0136364,
                "end_time": 41.3477273,
                "pitch": 59,
                "velocity": 20,
                "duration": 0.3340909,
                "tempo": 120.0
            },
            {
                "start_time": 41.55,
                "end_time": 41.7068182,
                "pitch": 60,
                "velocity": 32,
                "duration": 0.1568182,
                "tempo": 120.0
            },
            {
                "start_time": 41.7409091,
                "end_time": 42.0545455,
                "pitch": 60,
                "velocity": 20,
                "duration": 0.3136364,
                "tempo": 120.0
            },
            {
                "start_time": 42.0863636,
                "end_time": 42.4022727,
                "pitch": 62,
                "velocity": 32,
                "duration": 0.3159091,
                "tempo": 120.0
            },
            {
                "start_time": 42.4363636,
                "end_time": 42.7522727,
                "pitch": 62,
                "velocity": 20,
                "duration": 0.3159091,
                "tempo": 120.0
            },
            {
                "start_time": 42.9568182,
                "end_time": 43.1113636,
                "pitch": 60,
                "velocity": 32,
                "duration": 0.1545455,
                "tempo": 120.0
            },
            {
                "start_time": 43.1454545,
                "end_time": 43.4590909,
                "pitch": 60,
                "velocity": 20,
                "duration": 0.3136364,
                "tempo": 120.0
            },
            {
                "start_time": 43.4931818,
                "end_time": 43.8068182,
                "pitch": 59,
                "velocity": 32,
                "duration": 0.3136364,
                "tempo": 120.0
            },
            {
                "start_time": 43.8409091,
                "end_time": 44.1590909,
                "pitch": 59,
                "velocity": 20,
                "duration": 0.3181818,
                "tempo": 120.0
            },
            {
                "start_time": 44.3613636,
                "end_time": 44.5159091,
                "pitch": 60,
                "velocity": 32,
                "duration": 0.1545455,
                "tempo": 120.0
            },
            {
                "start_time": 44.55,
                "end_time": 44.8636364,
                "pitch": 60,
                "velocity": 20,
                "duration": 0.3136364,
                "tempo": 120.0
            },
            {
                "start_time": 44.8977273,
                "end_time": 45.2113636,
                "pitch": 60,
                "velocity": 32,
                "duration": 0.3136364,
                "tempo": 120.0
            },
            {
                "start_time": 45.2454545,
                "end_time": 45.3977273,
                "pitch": 59,
                "velocity": 32,
                "duration": 0.1522727,
                "tempo": 120.0
            },
            {
                "start_time": 45.4159091,
                "end_time": 45.5704545,
                "pitch": 60,
                "velocity": 32,
                "duration": 0.1545455,
                "tempo": 120.0
            },
            {
                "start_time": 45.6045455,
                "end_time": 45.7590909,
                "pitch": 62,
                "velocity": 32,
                "duration": 0.1545455,
                "tempo": 120.0
            },
            {
                "start_time": 45.7931818,
                "end_time": 46.2772727,
                "pitch": 64,
                "velocity": 32,
                "duration": 0.4840909,
                "tempo": 120.0
            },
            {
                "start_time": 46.3113636,
                "end_time": 46.8022727,
                "pitch": 65,
                "velocity": 32,
                "duration": 0.4909091,
                "tempo": 120.0
            },
            {
                "start_time": 46.8386364,
                "end_time": 47.1636364,
                "pitch": 64,
                "velocity": 32,
                "duration": 0.325,
                "tempo": 120.0
            },
            {
                "start_time": 47.1977273,
                "end_time": 47.6818182,
                "pitch": 62,
                "velocity": 32,
                "duration": 0.4840909,
                "tempo": 120.0
            },
            {
                "start_time": 47.7159091,
                "end_time": 48.2295455,
                "pitch": 60,
                "velocity": 32,
                "duration": 0.5136364,
                "tempo": 120.0
            },
            {
                "start_time": 48.2636364,
                "end_time": 48.5886364,
                "pitch": 59,
                "velocity": 32,
                "duration": 0.325,
                "tempo": 120.0
            },
            {
                "start_time": 48.6227273,
                "end_time": 49.125,
                "pitch": 64,
                "velocity": 32,
                "duration": 0.5022727,
                "tempo": 120.0
            },
            {
                "start_time": 49.1431818,
                "end_time": 49.6340909,
                "pitch": 65,
                "velocity": 32,
                "duration": 0.4909091,
                "tempo": 120.0
            },
            {
                "start_time": 49.6704545,
                "end_time": 49.9954545,
                "pitch": 67,
                "velocity": 32,
                "duration": 0.325,
                "tempo": 120.0
            },
            {
                "start_time": 50.0295455,
                "end_time": 51.4,
                "pitch": 68,
                "velocity": 32,
                "duration": 1.3704545,
                "tempo": 120.0
            }
        ],
        "Vibraphone": [
            {
                "start_time": 6.1545455,
                "end_time": 6.2068182,
                "pitch": 76,
                "velocity": 80,
                "duration": 0.0522727,
                "tempo": 120.0
            },
            {
                "start_time": 6.2409091,
                "end_time": 6.2909091,
                "pitch": 81,
                "velocity": 80,
                "duration": 0.05,
                "tempo": 120.0
            },
            {
                "start_time": 6.3272727,
                "end_time": 6.3954545,
                "pitch": 83,
                "velocity": 80,
                "duration": 0.0681818,
                "tempo": 120.0
            },
            {
                "start_time": 6.4136364,
                "end_time": 6.4818182,
                "pitch": 86,
                "velocity": 80,
                "duration": 0.0681818,
                "tempo": 120.0
            },
            {
                "start_time": 6.5159091,
                "end_time": 6.5659091,
                "pitch": 84,
                "velocity": 80,
                "duration": 0.05,
                "tempo": 120.0
            },
            {
                "start_time": 6.6,
                "end_time": 6.65,
                "pitch": 83,
                "velocity": 80,
                "duration": 0.05,
                "tempo": 120.0
            },
            {
                "start_time": 6.6840909,
                "end_time": 6.75,
                "pitch": 84,
                "velocity": 80,
                "duration": 0.0659091,
                "tempo": 120.0
            },
            {
                "start_time": 6.7681818,
                "end_time": 6.8340909,
                "pitch": 81,
                "velocity": 80,
                "duration": 0.0659091,
                "tempo": 120.0
            },
            {
                "start_time": 6.8681818,
                "end_time": 6.9181818,
                "pitch": 83,
                "velocity": 80,
                "duration": 0.05,
                "tempo": 120.0
            },
            {
                "start_time": 6.9522727,
                "end_time": 7.0181818,
                "pitch": 84,
                "velocity": 80,
                "duration": 0.0659091,
                "tempo": 120.0
            },
            {
                "start_time": 7.0340909,
                "end_time": 7.1022727,
                "pitch": 86,
                "velocity": 80,
                "duration": 0.0681818,
                "tempo": 120.0
            },
            {
                "start_time": 7.1363636,
                "end_time": 7.1840909,
                "pitch": 83,
                "velocity": 80,
                "duration": 0.0477273,
                "tempo": 120.0
            },
            {
                "start_time": 7.2181818,
                "end_time": 7.2681818,
                "pitch": 84,
                "velocity": 80,
                "duration": 0.05,
                "tempo": 120.0
            },
            {
                "start_time": 7.3022727,
                "end_time": 7.3681818,
                "pitch": 86,
                "velocity": 80,
                "duration": 0.0659091,
                "tempo": 120.0
            },
            {
                "start_time": 7.3863636,
                "end_time": 7.4522727,
                "pitch": 88,
                "velocity": 80,
                "duration": 0.0659091,
                "tempo": 120.0
            },
            {
                "start_time": 7.4863636,
                "end_time": 7.5363636,
                "pitch": 84,
                "velocity": 80,
                "duration": 0.05,
                "tempo": 120.0
            },
            {
                "start_time": 7.5704545,
                "end_time": 7.6204545,
                "pitch": 76,
                "velocity": 80,
                "duration": 0.05,
                "tempo": 120.0
            },
            {
                "start_time": 7.6545455,
                "end_time": 7.7204545,
                "pitch": 81,
                "velocity": 80,
                "duration": 0.0659091,
                "tempo": 120.0
            },
            {
                "start_time": 7.7363636,
                "end_time": 7.8045455,
                "pitch": 83,
                "velocity": 80,
                "duration": 0.0681818,
                "tempo": 120.0
            },
            {
                "start_time": 7.8386364,
                "end_time": 7.8886364,
                "pitch": 86,
                "velocity": 80,
                "duration": 0.05,
                "tempo": 120.0
            },
            {
                "start_time": 7.9204545,
                "end_time": 7.9704545,
                "pitch": 84,
                "velocity": 80,
                "duration": 0.05,
                "tempo": 120.0
            },
            {
                "start_time": 8.0045455,
                "end_time": 8.0704545,
                "pitch": 83,
                "velocity": 80,
                "duration": 0.0659091,
                "tempo": 120.0
            },
            {
                "start_time": 8.0886364,
                "end_time": 8.1545455,
                "pitch": 84,
                "velocity": 80,
                "duration": 0.0659091,
                "tempo": 120.0
            },
            {
                "start_time": 8.1886364,
                "end_time": 8.2386364,
                "pitch": 81,
                "velocity": 80,
                "duration": 0.05,
                "tempo": 120.0
            },
            {
                "start_time": 8.2727273,
                "end_time": 8.3227273,
                "pitch": 83,
                "velocity": 80,
                "duration": 0.05,
                "tempo": 120.0
            },
            {
                "start_time": 8.3568182,
                "end_time": 8.4227273,
                "pitch": 84,
                "velocity": 80,
                "duration": 0.0659091,
                "tempo": 120.0
            },
            {
                "start_time": 8.4386364,
                "end_time": 8.5068182,
                "pitch": 86,
                "velocity": 80,
                "duration": 0.0681818,
                "tempo": 120.0
            },
            {
                "start_time": 8.5409091,
                "end_time": 8.5909091,
                "pitch": 83,
                "velocity": 80,
                "duration": 0.05,
                "tempo": 120.0
            },
            {
                "start_time": 8.6227273,
                "end_time": 8.6727273,
                "pitch": 84,
                "velocity": 80,
                "duration": 0.05,
                "tempo": 120.0
            },
            {
                "start_time": 8.7068182,
                "end_time": 8.775,
                "pitch": 86,
                "velocity": 80,
                "duration": 0.0681818,
                "tempo": 120.0
            },
            {
                "start_time": 8.7909091,
                "end_time": 8.8568182,
                "pitch": 88,
                "velocity": 80,
                "duration": 0.0659091,
                "tempo": 120.0
            },
            {
                "start_time": 8.8909091,
                "end_time": 8.9409091,
                "pitch": 84,
                "velocity": 80,
                "duration": 0.05,
                "tempo": 120.0
            },
            {
                "start_time": 8.975,
                "end_time": 9.025,
                "pitch": 76,
                "velocity": 80,
                "duration": 0.05,
                "tempo": 120.0
            },
            {
                "start_time": 9.0590909,
                "end_time": 9.125,
                "pitch": 81,
                "velocity": 80,
                "duration": 0.0659091,
                "tempo": 120.0
            },
            {
                "start_time": 9.1590909,
                "end_time": 9.2090909,
                "pitch": 83,
                "velocity": 80,
                "duration": 0.05,
                "tempo": 120.0
            },
            {
                "start_time": 9.2431818,
                "end_time": 9.2931818,
                "pitch": 86,
                "velocity": 80,
                "duration": 0.05,
                "tempo": 120.0
            },
            {
                "start_time": 9.325,
                "end_time": 9.3931818,
                "pitch": 84,
                "velocity": 80,
                "duration": 0.0681818,
                "tempo": 120.0
            },
            {
                "start_time": 9.4090909,
                "end_time": 9.4772727,
                "pitch": 83,
                "velocity": 80,
                "duration": 0.0681818,
                "tempo": 120.0
            },
            {
                "start_time": 9.5090909,
                "end_time": 9.5590909,
                "pitch": 84,
                "velocity": 80,
                "duration": 0.05,
                "tempo": 120.0
            },
            {
                "start_time": 9.5931818,
                "end_time": 9.6431818,
                "pitch": 81,
                "velocity": 80,
                "duration": 0.05,
                "tempo": 120.0
            },
            {
                "start_time": 9.6772727,
                "end_time": 9.7431818,
                "pitch": 83,
                "velocity": 80,
                "duration": 0.0659091,
                "tempo": 120.0
            },
            {
                "start_time": 9.7613636,
                "end_time": 9.8272727,
                "pitch": 84,
                "velocity": 80,
                "duration": 0.0659091,
                "tempo": 120.0
            },
            {
                "start_time": 9.8613636,
                "end_time": 9.9113636,
                "pitch": 86,
                "velocity": 80,
                "duration": 0.05,
                "tempo": 120.0
            },
            {
                "start_time": 9.9454545,
                "end_time": 9.9954545,
                "pitch": 83,
                "velocity": 80,
                "duration": 0.05,
                "tempo": 120.0
            },
            {
                "start_time": 10.0295455,
                "end_time": 10.0977273,
                "pitch": 84,
                "velocity": 80,
                "duration": 0.0681818,
                "tempo": 120.0
            },
            {
                "start_time": 10.1136364,
                "end_time": 10.1840909,
                "pitch": 86,
                "velocity": 80,
                "duration": 0.0704545,
                "tempo": 120.0
            },
            {
                "start_time": 10.2181818,
                "end_time": 10.2681818,
                "pitch": 88,
                "velocity": 80,
                "duration": 0.05,
                "tempo": 120.0
            },
            {
                "start_time": 10.3045455,
                "end_time": 10.3545455,
                "pitch": 84,
                "velocity": 80,
                "duration": 0.05,
                "tempo": 120.0
            },
            {
                "start_time": 10.3909091,
                "end_time": 10.4568182,
                "pitch": 76,
                "velocity": 80,
                "duration": 0.0659091,
                "tempo": 120.0
            },
            {
                "start_time": 10.475,
                "end_time": 10.5409091,
                "pitch": 81,
                "velocity": 80,
                "duration": 0.0659091,
                "tempo": 120.0
            },
            {
                "start_time": 10.575,
                "end_time": 10.625,
                "pitch": 83,
                "velocity": 80,
                "duration": 0.05,
                "tempo": 120.0
            },
            {
                "start_time": 10.6590909,
                "end_time": 10.7068182,
                "pitch": 86,
                "velocity": 80,
                "duration": 0.0477273,
                "tempo": 120.0
            },
            {
                "start_time": 10.7409091,
                "end_time": 10.8068182,
                "pitch": 84,
                "velocity": 80,
                "duration": 0.0659091,
                "tempo": 120.0
            },
            {
                "start_time": 10.8227273,
                "end_time": 10.8886364,
                "pitch": 83,
                "velocity": 80,
                "duration": 0.0659091,
                "tempo": 120.0
            },
            {
                "start_time": 10.9204545,
                "end_time": 10.9681818,
                "pitch": 84,
                "velocity": 80,
                "duration": 0.0477273,
                "tempo": 120.0
            },
            {
                "start_time": 11.0022727,
                "end_time": 11.05,
                "pitch": 81,
                "velocity": 80,
                "duration": 0.0477273,
                "tempo": 120.0
            },
            {
                "start_time": 11.0818182,
                "end_time": 11.15,
                "pitch": 83,
                "velocity": 80,
                "duration": 0.0681818,
                "tempo": 120.0
            },
            {
                "start_time": 11.1659091,
                "end_time": 11.2340909,
                "pitch": 84,
                "velocity": 80,
                "duration": 0.0681818,
                "tempo": 120.0
            },
            {
                "start_time": 11.2659091,
                "end_time": 11.3159091,
                "pitch": 86,
                "velocity": 80,
                "duration": 0.05,
                "tempo": 120.0
            },
            {
                "start_time": 11.35,
                "end_time": 11.4181818,
                "pitch": 83,
                "velocity": 80,
                "duration": 0.0681818,
                "tempo": 120.0
            },
            {
                "start_time": 11.4340909,
                "end_time": 11.5022727,
                "pitch": 84,
                "velocity": 80,
                "duration": 0.0681818,
                "tempo": 120.0
            },
            {
                "start_time": 11.5363636,
                "end_time": 11.5886364,
                "pitch": 86,
                "velocity": 80,
                "duration": 0.0522727,
                "tempo": 120.0
            },
            {
                "start_time": 11.6227273,
                "end_time": 11.675,
                "pitch": 88,
                "velocity": 80,
                "duration": 0.0522727,
                "tempo": 120.0
            },
            {
                "start_time": 11.7090909,
                "end_time": 11.7772727,
                "pitch": 84,
                "velocity": 80,
                "duration": 0.0681818,
                "tempo": 120.0
            },
            {
                "start_time": 11.7954545,
                "end_time": 11.8613636,
                "pitch": 76,
                "velocity": 80,
                "duration": 0.0659091,
                "tempo": 120.0
            },
            {
                "start_time": 11.8954545,
                "end_time": 11.9454545,
                "pitch": 81,
                "velocity": 80,
                "duration": 0.05,
                "tempo": 120.0
            },
            {
                "start_time": 11.9795455,
                "end_time": 12.0295455,
                "pitch": 83,
                "velocity": 80,
                "duration": 0.05,
                "tempo": 120.0
            },
            {
                "start_time": 12.0636364,
                "end_time": 12.1295455,
                "pitch": 86,
                "velocity": 80,
                "duration": 0.0659091,
                "tempo": 120.0
            },
            {
                "start_time": 12.1477273,
                "end_time": 12.2136364,
                "pitch": 84,
                "velocity": 80,
                "duration": 0.0659091,
                "tempo": 120.0
            },
            {
                "start_time": 12.2477273,
                "end_time": 12.2977273,
                "pitch": 83,
                "velocity": 80,
                "duration": 0.05,
                "tempo": 120.0
            },
            {
                "start_time": 12.3318182,
                "end_time": 12.3818182,
                "pitch": 84,
                "velocity": 80,
                "duration": 0.05,
                "tempo": 120.0
            },
            {
                "start_time": 12.4136364,
                "end_time": 12.4818182,
                "pitch": 81,
                "velocity": 80,
                "duration": 0.0681818,
                "tempo": 120.0
            },
            {
                "start_time": 12.4977273,
                "end_time": 12.5636364,
                "pitch": 83,
                "velocity": 80,
                "duration": 0.0659091,
                "tempo": 120.0
            },
            {
                "start_time": 12.5954545,
                "end_time": 12.6431818,
                "pitch": 84,
                "velocity": 80,
                "duration": 0.0477273,
                "tempo": 120.0
            },
            {
                "start_time": 12.6772727,
                "end_time": 12.725,
                "pitch": 86,
                "velocity": 80,
                "duration": 0.0477273,
                "tempo": 120.0
            },
            {
                "start_time": 12.7590909,
                "end_time": 12.8227273,
                "pitch": 83,
                "velocity": 80,
                "duration": 0.0636364,
                "tempo": 120.0
            },
            {
                "start_time": 12.8386364,
                "end_time": 12.9068182,
                "pitch": 84,
                "velocity": 80,
                "duration": 0.0681818,
                "tempo": 120.0
            },
            {
                "start_time": 12.9431818,
                "end_time": 12.9931818,
                "pitch": 86,
                "velocity": 80,
                "duration": 0.05,
                "tempo": 120.0
            },
            {
                "start_time": 13.0295455,
                "end_time": 13.0795455,
                "pitch": 88,
                "velocity": 80,
                "duration": 0.05,
                "tempo": 120.0
            },
            {
                "start_time": 13.1136364,
                "end_time": 13.1840909,
                "pitch": 84,
                "velocity": 80,
                "duration": 0.0704545,
                "tempo": 120.0
            },
            {
                "start_time": 13.2,
                "end_time": 13.2681818,
                "pitch": 76,
                "velocity": 80,
                "duration": 0.0681818,
                "tempo": 120.0
            },
            {
                "start_time": 13.3022727,
                "end_time": 13.3522727,
                "pitch": 81,
                "velocity": 80,
                "duration": 0.05,
                "tempo": 120.0
            },
            {
                "start_time": 13.3840909,
                "end_time": 13.4522727,
                "pitch": 83,
                "velocity": 80,
                "duration": 0.0681818,
                "tempo": 120.0
            },
            {
                "start_time": 13.4681818,
                "end_time": 13.5363636,
                "pitch": 86,
                "velocity": 80,
                "duration": 0.0681818,
                "tempo": 120.0
            },
            {
                "start_time": 13.5681818,
                "end_time": 13.6204545,
                "pitch": 84,
                "velocity": 80,
                "duration": 0.0522727,
                "tempo": 120.0
            },
            {
                "start_time": 13.6568182,
                "end_time": 13.7090909,
                "pitch": 83,
                "velocity": 80,
                "duration": 0.0522727,
                "tempo": 120.0
            },
            {
                "start_time": 13.7454545,
                "end_time": 13.8159091,
                "pitch": 84,
                "velocity": 80,
                "duration": 0.0704545,
                "tempo": 120.0
            },
            {
                "start_time": 13.8340909,
                "end_time": 13.9045455,
                "pitch": 81,
                "velocity": 80,
                "duration": 0.0704545,
                "tempo": 120.0
            },
            {
                "start_time": 13.9386364,
                "end_time": 13.9886364,
                "pitch": 83,
                "velocity": 80,
                "duration": 0.05,
                "tempo": 120.0
            },
            {
                "start_time": 14.0204545,
                "end_time": 14.0681818,
                "pitch": 84,
                "velocity": 80,
                "duration": 0.0477273,
                "tempo": 120.0
            },
            {
                "start_time": 14.1022727,
                "end_time": 14.1659091,
                "pitch": 86,
                "velocity": 80,
                "duration": 0.0636364,
                "tempo": 120.0
            },
            {
                "start_time": 14.1818182,
                "end_time": 14.2477273,
                "pitch": 83,
                "velocity": 80,
                "duration": 0.0659091,
                "tempo": 120.0
            },
            {
                "start_time": 14.2795455,
                "end_time": 14.3318182,
                "pitch": 84,
                "velocity": 80,
                "duration": 0.0522727,
                "tempo": 120.0
            },
            {
                "start_time": 14.3659091,
                "end_time": 14.4181818,
                "pitch": 86,
                "velocity": 80,
                "duration": 0.0522727,
                "tempo": 120.0
            },
            {
                "start_time": 14.4522727,
                "end_time": 14.5204545,
                "pitch": 88,
                "velocity": 80,
                "duration": 0.0681818,
                "tempo": 120.0
            },
            {
                "start_time": 14.5386364,
                "end_time": 14.6068182,
                "pitch": 84,
                "velocity": 80,
                "duration": 0.0681818,
                "tempo": 120.0
            },
            {
                "start_time": 14.6431818,
                "end_time": 14.6909091,
                "pitch": 76,
                "velocity": 80,
                "duration": 0.0477273,
                "tempo": 120.0
            },
            {
                "start_time": 14.725,
                "end_time": 14.775,
                "pitch": 81,
                "velocity": 80,
                "duration": 0.05,
                "tempo": 120.0
            },
            {
                "start_time": 14.8090909,
                "end_time": 14.875,
                "pitch": 83,
                "velocity": 80,
                "duration": 0.0659091,
                "tempo": 120.0
            },
            {
                "start_time": 14.8931818,
                "end_time": 14.9590909,
                "pitch": 86,
                "velocity": 80,
                "duration": 0.0659091,
                "tempo": 120.0
            },
            {
                "start_time": 14.9931818,
                "end_time": 15.0431818,
                "pitch": 84,
                "velocity": 80,
                "duration": 0.05,
                "tempo": 120.0
            },
            {
                "start_time": 15.0772727,
                "end_time": 15.1272727,
                "pitch": 83,
                "velocity": 80,
                "duration": 0.05,
                "tempo": 120.0
            },
            {
                "start_time": 15.1613636,
                "end_time": 15.2272727,
                "pitch": 84,
                "velocity": 80,
                "duration": 0.0659091,
                "tempo": 120.0
            },
            {
                "start_time": 15.2431818,
                "end_time": 15.3113636,
                "pitch": 81,
                "velocity": 80,
                "duration": 0.0681818,
                "tempo": 120.0
            },
            {
                "start_time": 15.3431818,
                "end_time": 15.3931818,
                "pitch": 83,
                "velocity": 80,
                "duration": 0.05,
                "tempo": 120.0
            },
            {
                "start_time": 15.4272727,
                "end_time": 15.4772727,
                "pitch": 84,
                "velocity": 80,
                "duration": 0.05,
                "tempo": 120.0
            },
            {
                "start_time": 15.5113636,
                "end_time": 15.5772727,
                "pitch": 86,
                "velocity": 80,
                "duration": 0.0659091,
                "tempo": 120.0
            },
            {
                "start_time": 15.6113636,
                "end_time": 15.6613636,
                "pitch": 83,
                "velocity": 80,
                "duration": 0.05,
                "tempo": 120.0
            },
            {
                "start_time": 15.6954545,
                "end_time": 15.7454545,
                "pitch": 84,
                "velocity": 80,
                "duration": 0.05,
                "tempo": 120.0
            },
            {
                "start_time": 15.7795455,
                "end_time": 15.8454545,
                "pitch": 86,
                "velocity": 80,
                "duration": 0.0659091,
                "tempo": 120.0
            },
            {
                "start_time": 15.8636364,
                "end_time": 15.9295455,
                "pitch": 88,
                "velocity": 80,
                "duration": 0.0659091,
                "tempo": 120.0
            },
            {
                "start_time": 15.9636364,
                "end_time": 16.0136364,
                "pitch": 84,
                "velocity": 80,
                "duration": 0.05,
                "tempo": 120.0
            },
            {
                "start_time": 16.0477273,
                "end_time": 16.0977273,
                "pitch": 76,
                "velocity": 80,
                "duration": 0.05,
                "tempo": 120.0
            },
            {
                "start_time": 16.1295455,
                "end_time": 16.1977273,
                "pitch": 81,
                "velocity": 80,
                "duration": 0.0681818,
                "tempo": 120.0
            },
            {
                "start_time": 16.2136364,
                "end_time": 16.2795455,
                "pitch": 83,
                "velocity": 80,
                "duration": 0.0659091,
                "tempo": 120.0
            },
            {
                "start_time": 16.3136364,
                "end_time": 16.3636364,
                "pitch": 86,
                "velocity": 80,
                "duration": 0.05,
                "tempo": 120.0
            },
            {
                "start_time": 16.3977273,
                "end_time": 16.4477273,
                "pitch": 84,
                "velocity": 80,
                "duration": 0.05,
                "tempo": 120.0
            },
            {
                "start_time": 16.4818182,
                "end_time": 16.5477273,
                "pitch": 83,
                "velocity": 80,
                "duration": 0.0659091,
                "tempo": 120.0
            },
            {
                "start_time": 16.5659091,
                "end_time": 16.6318182,
                "pitch": 84,
                "velocity": 80,
                "duration": 0.0659091,
                "tempo": 120.0
            },
            {
                "start_time": 16.6659091,
                "end_time": 16.7159091,
                "pitch": 81,
                "velocity": 80,
                "duration": 0.05,
                "tempo": 120.0
            },
            {
                "start_time": 16.75,
                "end_time": 16.8,
                "pitch": 83,
                "velocity": 80,
                "duration": 0.05,
                "tempo": 120.0
            },
            {
                "start_time": 16.8318182,
                "end_time": 16.9,
                "pitch": 84,
                "velocity": 80,
                "duration": 0.0681818,
                "tempo": 120.0
            },
            {
                "start_time": 16.9159091,
                "end_time": 16.9840909,
                "pitch": 86,
                "velocity": 80,
                "duration": 0.0681818,
                "tempo": 120.0
            },
            {
                "start_time": 17.0159091,
                "end_time": 17.0659091,
                "pitch": 83,
                "velocity": 80,
                "duration": 0.05,
                "tempo": 120.0
            },
            {
                "start_time": 17.1,
                "end_time": 17.15,
                "pitch": 84,
                "velocity": 80,
                "duration": 0.05,
                "tempo": 120.0
            },
            {
                "start_time": 17.1840909,
                "end_time": 17.25,
                "pitch": 86,
                "velocity": 80,
                "duration": 0.0659091,
                "tempo": 120.0
            },
            {
                "start_time": 17.2681818,
                "end_time": 17.3340909,
                "pitch": 88,
                "velocity": 80,
                "duration": 0.0659091,
                "tempo": 120.0
            },
            {
                "start_time": 17.3681818,
                "end_time": 17.4181818,
                "pitch": 84,
                "velocity": 80,
                "duration": 0.05,
                "tempo": 120.0
            },
            {
                "start_time": 17.4522727,
                "end_time": 17.5022727,
                "pitch": 76,
                "velocity": 80,
                "duration": 0.05,
                "tempo": 120.0
            },
            {
                "start_time": 17.5340909,
                "end_time": 17.6022727,
                "pitch": 81,
                "velocity": 80,
                "duration": 0.0681818,
                "tempo": 120.0
            },
            {
                "start_time": 17.6181818,
                "end_time": 17.6863636,
                "pitch": 83,
                "velocity": 80,
                "duration": 0.0681818,
                "tempo": 120.0
            },
            {
                "start_time": 17.7181818,
                "end_time": 17.7681818,
                "pitch": 86,
                "velocity": 80,
                "duration": 0.05,
                "tempo": 120.0
            },
            {
                "start_time": 17.8022727,
                "end_time": 17.8704545,
                "pitch": 84,
                "velocity": 80,
                "duration": 0.0681818,
                "tempo": 120.0
            },
            {
                "start_time": 17.8863636,
                "end_time": 17.9522727,
                "pitch": 83,
                "velocity": 80,
                "duration": 0.0659091,
                "tempo": 120.0
            },
            {
                "start_time": 17.9863636,
                "end_time": 18.0363636,
                "pitch": 84,
                "velocity": 80,
                "duration": 0.05,
                "tempo": 120.0
            },
            {
                "start_time": 18.0704545,
                "end_time": 18.1204545,
                "pitch": 81,
                "velocity": 80,
                "duration": 0.05,
                "tempo": 120.0
            },
            {
                "start_time": 18.1545455,
                "end_time": 18.2204545,
                "pitch": 83,
                "velocity": 80,
                "duration": 0.0659091,
                "tempo": 120.0
            },
            {
                "start_time": 18.2386364,
                "end_time": 18.3045455,
                "pitch": 84,
                "velocity": 80,
                "duration": 0.0659091,
                "tempo": 120.0
            },
            {
                "start_time": 18.3386364,
                "end_time": 18.3886364,
                "pitch": 86,
                "velocity": 80,
                "duration": 0.05,
                "tempo": 120.0
            },
            {
                "start_time": 18.4227273,
                "end_time": 18.4704545,
                "pitch": 83,
                "velocity": 80,
                "duration": 0.0477273,
                "tempo": 120.0
            },
            {
                "start_time": 18.5045455,
                "end_time": 18.5727273,
                "pitch": 84,
                "velocity": 80,
                "duration": 0.0681818,
                "tempo": 120.0
            },
            {
                "start_time": 18.5886364,
                "end_time": 18.6545455,
                "pitch": 86,
                "velocity": 80,
                "duration": 0.0659091,
                "tempo": 120.0
            },
            {
                "start_time": 18.6886364,
                "end_time": 18.7386364,
                "pitch": 88,
                "velocity": 80,
                "duration": 0.05,
                "tempo": 120.0
            },
            {
                "start_time": 18.7727273,
                "end_time": 18.8227273,
                "pitch": 84,
                "velocity": 80,
                "duration": 0.05,
                "tempo": 120.0
            },
            {
                "start_time": 18.8568182,
                "end_time": 18.9227273,
                "pitch": 76,
                "velocity": 80,
                "duration": 0.0659091,
                "tempo": 120.0
            },
            {
                "start_time": 18.9409091,
                "end_time": 19.0068182,
                "pitch": 81,
                "velocity": 80,
                "duration": 0.0659091,
                "tempo": 120.0
            },
            {
                "start_time": 19.0409091,
                "end_time": 19.0909091,
                "pitch": 83,
                "velocity": 80,
                "duration": 0.05,
                "tempo": 120.0
            },
            {
                "start_time": 19.125,
                "end_time": 19.175,
                "pitch": 86,
                "velocity": 80,
                "duration": 0.05,
                "tempo": 120.0
            },
            {
                "start_time": 19.2068182,
                "end_time": 19.275,
                "pitch": 84,
                "velocity": 80,
                "duration": 0.0681818,
                "tempo": 120.0
            },
            {
                "start_time": 19.2909091,
                "end_time": 19.3568182,
                "pitch": 83,
                "velocity": 80,
                "duration": 0.0659091,
                "tempo": 120.0
            },
            {
                "start_time": 19.3909091,
                "end_time": 19.4409091,
                "pitch": 84,
                "velocity": 80,
                "duration": 0.05,
                "tempo": 120.0
            },
            {
                "start_time": 19.475,
                "end_time": 19.525,
                "pitch": 81,
                "velocity": 80,
                "duration": 0.05,
                "tempo": 120.0
            },
            {
                "start_time": 19.5590909,
                "end_time": 19.625,
                "pitch": 83,
                "velocity": 80,
                "duration": 0.0659091,
                "tempo": 120.0
            },
            {
                "start_time": 19.6431818,
                "end_time": 19.7090909,
                "pitch": 84,
                "velocity": 80,
                "duration": 0.0659091,
                "tempo": 120.0
            },
            {
                "start_time": 19.7431818,
                "end_time": 19.7931818,
                "pitch": 86,
                "velocity": 80,
                "duration": 0.05,
                "tempo": 120.0
            },
            {
                "start_time": 19.8272727,
                "end_time": 19.8931818,
                "pitch": 83,
                "velocity": 80,
                "duration": 0.0659091,
                "tempo": 120.0
            },
            {
                "start_time": 19.9090909,
                "end_time": 19.9772727,
                "pitch": 84,
                "velocity": 80,
                "duration": 0.0681818,
                "tempo": 120.0
            },
            {
                "start_time": 20.0113636,
                "end_time": 20.0613636,
                "pitch": 86,
                "velocity": 80,
                "duration": 0.05,
                "tempo": 120.0
            },
            {
                "start_time": 20.0931818,
                "end_time": 20.1431818,
                "pitch": 88,
                "velocity": 80,
                "duration": 0.05,
                "tempo": 120.0
            },
            {
                "start_time": 20.1772727,
                "end_time": 20.2431818,
                "pitch": 84,
                "velocity": 80,
                "duration": 0.0659091,
                "tempo": 120.0
            },
            {
                "start_time": 20.2613636,
                "end_time": 20.3272727,
                "pitch": 76,
                "velocity": 80,
                "duration": 0.0659091,
                "tempo": 120.0
            },
            {
                "start_time": 20.3613636,
                "end_time": 20.4113636,
                "pitch": 81,
                "velocity": 80,
                "duration": 0.05,
                "tempo": 120.0
            },
            {
                "start_time": 20.4454545,
                "end_time": 20.4954545,
                "pitch": 83,
                "velocity": 80,
                "duration": 0.05,
                "tempo": 120.0
            },
            {
                "start_time": 20.5295455,
                "end_time": 20.5954545,
                "pitch": 86,
                "velocity": 80,
                "duration": 0.0659091,
                "tempo": 120.0
            },
            {
                "start_time": 20.6113636,
                "end_time": 20.6795455,
                "pitch": 84,
                "velocity": 80,
                "duration": 0.0681818,
                "tempo": 120.0
            },
            {
                "start_time": 20.7136364,
                "end_time": 20.7636364,
                "pitch": 83,
                "velocity": 80,
                "duration": 0.05,
                "tempo": 120.0
            },
            {
                "start_time": 20.7954545,
                "end_time": 20.8454545,
                "pitch": 84,
                "velocity": 80,
                "duration": 0.05,
                "tempo": 120.0
            },
            {
                "start_time": 20.8795455,
                "end_time": 20.9477273,
                "pitch": 81,
                "velocity": 80,
                "duration": 0.0681818,
                "tempo": 120.0
            },
            {
                "start_time": 20.9636364,
                "end_time": 21.0295455,
                "pitch": 83,
                "velocity": 80,
                "duration": 0.0659091,
                "tempo": 120.0
            },
            {
                "start_time": 21.0636364,
                "end_time": 21.1136364,
                "pitch": 84,
                "velocity": 80,
                "duration": 0.05,
                "tempo": 120.0
            },
            {
                "start_time": 21.1477273,
                "end_time": 21.1977273,
                "pitch": 86,
                "velocity": 80,
                "duration": 0.05,
                "tempo": 120.0
            },
            {
                "start_time": 21.2318182,
                "end_time": 21.2977273,
                "pitch": 83,
                "velocity": 80,
                "duration": 0.0659091,
                "tempo": 120.0
            },
            {
                "start_time": 21.3159091,
                "end_time": 21.3840909,
                "pitch": 84,
                "velocity": 80,
                "duration": 0.0681818,
                "tempo": 120.0
            },
            {
                "start_time": 21.4181818,
                "end_time": 21.4704545,
                "pitch": 86,
                "velocity": 80,
                "duration": 0.0522727,
                "tempo": 120.0
            },
            {
                "start_time": 21.5045455,
                "end_time": 21.5545455,
                "pitch": 88,
                "velocity": 80,
                "duration": 0.05,
                "tempo": 120.0
            },
            {
                "start_time": 21.5909091,
                "end_time": 21.6590909,
                "pitch": 84,
                "velocity": 80,
                "duration": 0.0681818,
                "tempo": 120.0
            },
            {
                "start_time": 21.6772727,
                "end_time": 21.7409091,
                "pitch": 76,
                "velocity": 80,
                "duration": 0.0636364,
                "tempo": 120.0
            },
            {
                "start_time": 21.775,
                "end_time": 21.8227273,
                "pitch": 81,
                "velocity": 80,
                "duration": 0.0477273,
                "tempo": 120.0
            },
            {
                "start_time": 21.8545455,
                "end_time": 21.9045455,
                "pitch": 83,
                "velocity": 80,
                "duration": 0.05,
                "tempo": 120.0
            },
            {
                "start_time": 21.9363636,
                "end_time": 22.0022727,
                "pitch": 86,
                "velocity": 80,
                "duration": 0.0659091,
                "tempo": 120.0
            },
            {
                "start_time": 22.0340909,
                "end_time": 22.0863636,
                "pitch": 84,
                "velocity": 80,
                "duration": 0.0522727,
                "tempo": 120.0
            },
            {
                "start_time": 22.1227273,
                "end_time": 22.175,
                "pitch": 83,
                "velocity": 80,
                "duration": 0.0522727,
                "tempo": 120.0
            },
            {
                "start_time": 22.2113636,
                "end_time": 22.2795455,
                "pitch": 84,
                "velocity": 80,
                "duration": 0.0681818,
                "tempo": 120.0
            },
            {
                "start_time": 22.2977273,
                "end_time": 22.3681818,
                "pitch": 81,
                "velocity": 80,
                "duration": 0.0704545,
                "tempo": 120.0
            },
            {
                "start_time": 22.4045455,
                "end_time": 22.4545455,
                "pitch": 83,
                "velocity": 80,
                "duration": 0.05,
                "tempo": 120.0
            },
            {
                "start_time": 22.4886364,
                "end_time": 22.5386364,
                "pitch": 84,
                "velocity": 80,
                "duration": 0.05,
                "tempo": 120.0
            },
            {
                "start_time": 22.5727273,
                "end_time": 22.6386364,
                "pitch": 86,
                "velocity": 80,
                "duration": 0.0659091,
                "tempo": 120.0
            },
            {
                "start_time": 22.6545455,
                "end_time": 22.7227273,
                "pitch": 83,
                "velocity": 80,
                "duration": 0.0681818,
                "tempo": 120.0
            },
            {
                "start_time": 22.7568182,
                "end_time": 22.8045455,
                "pitch": 84,
                "velocity": 80,
                "duration": 0.0477273,
                "tempo": 120.0
            },
            {
                "start_time": 22.8386364,
                "end_time": 22.8886364,
                "pitch": 86,
                "velocity": 80,
                "duration": 0.05,
                "tempo": 120.0
            },
            {
                "start_time": 22.9227273,
                "end_time": 22.9886364,
                "pitch": 88,
                "velocity": 80,
                "duration": 0.0659091,
                "tempo": 120.0
            },
            {
                "start_time": 23.0068182,
                "end_time": 23.0727273,
                "pitch": 84,
                "velocity": 80,
                "duration": 0.0659091,
                "tempo": 120.0
            },
            {
                "start_time": 23.1068182,
                "end_time": 23.1590909,
                "pitch": 76,
                "velocity": 80,
                "duration": 0.0522727,
                "tempo": 120.0
            },
            {
                "start_time": 23.1931818,
                "end_time": 23.2431818,
                "pitch": 81,
                "velocity": 80,
                "duration": 0.05,
                "tempo": 120.0
            },
            {
                "start_time": 23.2795455,
                "end_time": 23.3477273,
                "pitch": 83,
                "velocity": 80,
                "duration": 0.0681818,
                "tempo": 120.0
            },
            {
                "start_time": 23.3659091,
                "end_time": 23.4340909,
                "pitch": 86,
                "velocity": 80,
                "duration": 0.0681818,
                "tempo": 120.0
            },
            {
                "start_time": 23.4681818,
                "end_time": 23.5181818,
                "pitch": 84,
                "velocity": 80,
                "duration": 0.05,
                "tempo": 120.0
            },
            {
                "start_time": 23.5522727,
                "end_time": 23.6022727,
                "pitch": 83,
                "velocity": 80,
                "duration": 0.05,
                "tempo": 120.0
            },
            {
                "start_time": 23.6363636,
                "end_time": 23.7022727,
                "pitch": 84,
                "velocity": 80,
                "duration": 0.0659091,
                "tempo": 120.0
            },
            {
                "start_time": 23.7204545,
                "end_time": 23.7863636,
                "pitch": 81,
                "velocity": 80,
                "duration": 0.0659091,
                "tempo": 120.0
            },
            {
                "start_time": 23.8204545,
                "end_time": 23.8681818,
                "pitch": 83,
                "velocity": 80,
                "duration": 0.0477273,
                "tempo": 120.0
            },
            {
                "start_time": 23.9022727,
                "end_time": 23.95,
                "pitch": 84,
                "velocity": 80,
                "duration": 0.0477273,
                "tempo": 120.0
            },
            {
                "start_time": 23.9818182,
                "end_time": 24.0477273,
                "pitch": 86,
                "velocity": 80,
                "duration": 0.0659091,
                "tempo": 120.0
            },
            {
                "start_time": 24.0636364,
                "end_time": 24.1295455,
                "pitch": 83,
                "velocity": 80,
                "duration": 0.0659091,
                "tempo": 120.0
            },
            {
                "start_time": 24.1613636,
                "end_time": 24.2113636,
                "pitch": 84,
                "velocity": 80,
                "duration": 0.05,
                "tempo": 120.0
            },
            {
                "start_time": 24.2477273,
                "end_time": 24.3159091,
                "pitch": 86,
                "velocity": 80,
                "duration": 0.0681818,
                "tempo": 120.0
            },
            {
                "start_time": 24.3318182,
                "end_time": 24.4022727,
                "pitch": 88,
                "velocity": 80,
                "duration": 0.0704545,
                "tempo": 120.0
            },
            {
                "start_time": 24.4363636,
                "end_time": 24.4886364,
                "pitch": 84,
                "velocity": 80,
                "duration": 0.0522727,
                "tempo": 120.0
            },
            {
                "start_time": 24.5227273,
                "end_time": 24.5727273,
                "pitch": 76,
                "velocity": 80,
                "duration": 0.05,
                "tempo": 120.0
            },
            {
                "start_time": 24.6068182,
                "end_time": 24.6727273,
                "pitch": 81,
                "velocity": 80,
                "duration": 0.0659091,
                "tempo": 120.0
            },
            {
                "start_time": 24.6909091,
                "end_time": 24.7568182,
                "pitch": 83,
                "velocity": 80,
                "duration": 0.0659091,
                "tempo": 120.0
            },
            {
                "start_time": 24.7909091,
                "end_time": 24.8409091,
                "pitch": 86,
                "velocity": 80,
                "duration": 0.05,
                "tempo": 120.0
            },
            {
                "start_time": 24.875,
                "end_time": 24.9227273,
                "pitch": 84,
                "velocity": 80,
                "duration": 0.0477273,
                "tempo": 120.0
            },
            {
                "start_time": 24.9568182,
                "end_time": 25.025,
                "pitch": 83,
                "velocity": 80,
                "duration": 0.0681818,
                "tempo": 120.0
            },
            {
                "start_time": 25.0409091,
                "end_time": 25.1068182,
                "pitch": 84,
                "velocity": 80,
                "duration": 0.0659091,
                "tempo": 120.0
            },
            {
                "start_time": 25.1409091,
                "end_time": 25.1909091,
                "pitch": 81,
                "velocity": 80,
                "duration": 0.05,
                "tempo": 120.0
            },
            {
                "start_time": 25.225,
                "end_time": 25.275,
                "pitch": 83,
                "velocity": 80,
                "duration": 0.05,
                "tempo": 120.0
            },
            {
                "start_time": 25.3090909,
                "end_time": 25.375,
                "pitch": 84,
                "velocity": 80,
                "duration": 0.0659091,
                "tempo": 120.0
            },
            {
                "start_time": 25.3931818,
                "end_time": 25.4590909,
                "pitch": 86,
                "velocity": 80,
                "duration": 0.0659091,
                "tempo": 120.0
            },
            {
                "start_time": 25.4931818,
                "end_time": 25.5431818,
                "pitch": 83,
                "velocity": 80,
                "duration": 0.05,
                "tempo": 120.0
            },
            {
                "start_time": 25.5772727,
                "end_time": 25.6272727,
                "pitch": 84,
                "velocity": 80,
                "duration": 0.05,
                "tempo": 120.0
            },
            {
                "start_time": 25.6590909,
                "end_time": 25.7272727,
                "pitch": 86,
                "velocity": 80,
                "duration": 0.0681818,
                "tempo": 120.0
            },
            {
                "start_time": 25.7431818,
                "end_time": 25.8113636,
                "pitch": 88,
                "velocity": 80,
                "duration": 0.0681818,
                "tempo": 120.0
            },
            {
                "start_time": 25.8431818,
                "end_time": 25.8931818,
                "pitch": 84,
                "velocity": 80,
                "duration": 0.05,
                "tempo": 120.0
            },
            {
                "start_time": 25.9272727,
                "end_time": 25.9772727,
                "pitch": 76,
                "velocity": 80,
                "duration": 0.05,
                "tempo": 120.0
            },
            {
                "start_time": 26.0113636,
                "end_time": 26.0772727,
                "pitch": 81,
                "velocity": 80,
                "duration": 0.0659091,
                "tempo": 120.0
            },
            {
                "start_time": 26.0954545,
                "end_time": 26.1613636,
                "pitch": 83,
                "velocity": 80,
                "duration": 0.0659091,
                "tempo": 120.0
            },
            {
                "start_time": 26.1954545,
                "end_time": 26.2454545,
                "pitch": 86,
                "velocity": 80,
                "duration": 0.05,
                "tempo": 120.0
            },
            {
                "start_time": 26.2795455,
                "end_time": 26.3454545,
                "pitch": 84,
                "velocity": 80,
                "duration": 0.0659091,
                "tempo": 120.0
            },
            {
                "start_time": 26.3613636,
                "end_time": 26.4295455,
                "pitch": 83,
                "velocity": 80,
                "duration": 0.0681818,
                "tempo": 120.0
            },
            {
                "start_time": 26.4636364,
                "end_time": 26.5136364,
                "pitch": 84,
                "velocity": 80,
                "duration": 0.05,
                "tempo": 120.0
            },
            {
                "start_time": 26.5454545,
                "end_time": 26.5954545,
                "pitch": 81,
                "velocity": 80,
                "duration": 0.05,
                "tempo": 120.0
            },
            {
                "start_time": 26.6295455,
                "end_time": 26.6977273,
                "pitch": 83,
                "velocity": 80,
                "duration": 0.0681818,
                "tempo": 120.0
            },
            {
                "start_time": 26.7136364,
                "end_time": 26.7795455,
                "pitch": 84,
                "velocity": 80,
                "duration": 0.0659091,
                "tempo": 120.0
            },
            {
                "start_time": 26.8136364,
                "end_time": 26.8636364,
                "pitch": 86,
                "velocity": 80,
                "duration": 0.05,
                "tempo": 120.0
            },
            {
                "start_time": 26.8977273,
                "end_time": 26.9477273,
                "pitch": 83,
                "velocity": 80,
                "duration": 0.05,
                "tempo": 120.0
            },
            {
                "start_time": 26.9818182,
                "end_time": 27.0477273,
                "pitch": 84,
                "velocity": 80,
                "duration": 0.0659091,
                "tempo": 120.0
            },
            {
                "start_time": 27.0659091,
                "end_time": 27.1318182,
                "pitch": 86,
                "velocity": 80,
                "duration": 0.0659091,
                "tempo": 120.0
            },
            {
                "start_time": 27.1659091,
                "end_time": 27.2159091,
                "pitch": 88,
                "velocity": 80,
                "duration": 0.05,
                "tempo": 120.0
            },
            {
                "start_time": 27.2477273,
                "end_time": 27.2977273,
                "pitch": 84,
                "velocity": 80,
                "duration": 0.05,
                "tempo": 120.0
            },
            {
                "start_time": 27.3318182,
                "end_time": 27.4,
                "pitch": 76,
                "velocity": 80,
                "duration": 0.0681818,
                "tempo": 120.0
            },
            {
                "start_time": 27.4159091,
                "end_time": 27.4818182,
                "pitch": 81,
                "velocity": 80,
                "duration": 0.0659091,
                "tempo": 120.0
            },
            {
                "start_time": 27.5159091,
                "end_time": 27.5659091,
                "pitch": 83,
                "velocity": 80,
                "duration": 0.05,
                "tempo": 120.0
            },
            {
                "start_time": 27.6,
                "end_time": 27.65,
                "pitch": 86,
                "velocity": 80,
                "duration": 0.05,
                "tempo": 120.0
            },
            {
                "start_time": 27.6840909,
                "end_time": 27.75,
                "pitch": 84,
                "velocity": 80,
                "duration": 0.0659091,
                "tempo": 120.0
            },
            {
                "start_time": 27.7681818,
                "end_time": 27.8340909,
                "pitch": 83,
                "velocity": 80,
                "duration": 0.0659091,
                "tempo": 120.0
            },
            {
                "start_time": 27.8681818,
                "end_time": 27.9181818,
                "pitch": 84,
                "velocity": 80,
                "duration": 0.05,
                "tempo": 120.0
            },
            {
                "start_time": 27.9522727,
                "end_time": 28.0022727,
                "pitch": 81,
                "velocity": 80,
                "duration": 0.05,
                "tempo": 120.0
            },
            {
                "start_time": 28.0340909,
                "end_time": 28.1022727,
                "pitch": 83,
                "velocity": 80,
                "duration": 0.0681818,
                "tempo": 120.0
            },
            {
                "start_time": 28.1181818,
                "end_time": 28.1840909,
                "pitch": 84,
                "velocity": 80,
                "duration": 0.0659091,
                "tempo": 120.0
            },
            {
                "start_time": 28.2181818,
                "end_time": 28.2681818,
                "pitch": 86,
                "velocity": 80,
                "duration": 0.05,
                "tempo": 120.0
            },
            {
                "start_time": 28.3022727,
                "end_time": 28.3522727,
                "pitch": 83,
                "velocity": 80,
                "duration": 0.05,
                "tempo": 120.0
            },
            {
                "start_time": 28.3863636,
                "end_time": 28.4522727,
                "pitch": 84,
                "velocity": 80,
                "duration": 0.0659091,
                "tempo": 120.0
            },
            {
                "start_time": 28.4863636,
                "end_time": 28.5363636,
                "pitch": 86,
                "velocity": 80,
                "duration": 0.05,
                "tempo": 120.0
            },
            {
                "start_time": 28.5704545,
                "end_time": 28.6204545,
                "pitch": 88,
                "velocity": 80,
                "duration": 0.05,
                "tempo": 120.0
            },
            {
                "start_time": 28.6545455,
                "end_time": 28.7204545,
                "pitch": 84,
                "velocity": 80,
                "duration": 0.0659091,
                "tempo": 120.0
            },
            {
                "start_time": 34.4045455,
                "end_time": 34.4545455,
                "pitch": 76,
                "velocity": 80,
                "duration": 0.05,
                "tempo": 120.0
            },
            {
                "start_time": 34.4886364,
                "end_time": 34.5545455,
                "pitch": 81,
                "velocity": 80,
                "duration": 0.0659091,
                "tempo": 120.0
            },
            {
                "start_time": 34.5704545,
                "end_time": 34.6386364,
                "pitch": 83,
                "velocity": 80,
                "duration": 0.0681818,
                "tempo": 120.0
            },
            {
                "start_time": 34.6727273,
                "end_time": 34.7227273,
                "pitch": 86,
                "velocity": 80,
                "duration": 0.05,
                "tempo": 120.0
            },
            {
                "start_time": 34.7545455,
                "end_time": 34.8045455,
                "pitch": 84,
                "velocity": 80,
                "duration": 0.05,
                "tempo": 120.0
            },
            {
                "start_time": 34.8386364,
                "end_time": 34.9045455,
                "pitch": 83,
                "velocity": 80,
                "duration": 0.0659091,
                "tempo": 120.0
            },
            {
                "start_time": 34.9386364,
                "end_time": 34.9886364,
                "pitch": 84,
                "velocity": 80,
                "duration": 0.05,
                "tempo": 120.0
            },
            {
                "start_time": 35.0227273,
                "end_time": 35.0727273,
                "pitch": 81,
                "velocity": 80,
                "duration": 0.05,
                "tempo": 120.0
            },
            {
                "start_time": 35.1068182,
                "end_time": 35.1704545,
                "pitch": 83,
                "velocity": 80,
                "duration": 0.0636364,
                "tempo": 120.0
            },
            {
                "start_time": 35.1886364,
                "end_time": 35.2522727,
                "pitch": 84,
                "velocity": 80,
                "duration": 0.0636364,
                "tempo": 120.0
            },
            {
                "start_time": 35.2863636,
                "end_time": 35.3340909,
                "pitch": 86,
                "velocity": 80,
                "duration": 0.0477273,
                "tempo": 120.0
            },
            {
                "start_time": 35.3659091,
                "end_time": 35.4159091,
                "pitch": 83,
                "velocity": 80,
                "duration": 0.05,
                "tempo": 120.0
            },
            {
                "start_time": 35.4477273,
                "end_time": 35.5159091,
                "pitch": 84,
                "velocity": 80,
                "duration": 0.0681818,
                "tempo": 120.0
            },
            {
                "start_time": 35.5340909,
                "end_time": 35.6022727,
                "pitch": 86,
                "velocity": 80,
                "duration": 0.0681818,
                "tempo": 120.0
            },
            {
                "start_time": 35.6363636,
                "end_time": 35.6886364,
                "pitch": 88,
                "velocity": 80,
                "duration": 0.0522727,
                "tempo": 120.0
            },
            {
                "start_time": 35.7227273,
                "end_time": 35.775,
                "pitch": 84,
                "velocity": 80,
                "duration": 0.0522727,
                "tempo": 120.0
            },
            {
                "start_time": 35.8090909,
                "end_time": 35.875,
                "pitch": 76,
                "velocity": 80,
                "duration": 0.0659091,
                "tempo": 120.0
            },
            {
                "start_time": 35.8931818,
                "end_time": 35.9590909,
                "pitch": 81,
                "velocity": 80,
                "duration": 0.0659091,
                "tempo": 120.0
            },
            {
                "start_time": 35.9931818,
                "end_time": 36.0431818,
                "pitch": 83,
                "velocity": 80,
                "duration": 0.05,
                "tempo": 120.0
            },
            {
                "start_time": 36.0772727,
                "end_time": 36.1272727,
                "pitch": 86,
                "velocity": 80,
                "duration": 0.05,
                "tempo": 120.0
            },
            {
                "start_time": 36.1613636,
                "end_time": 36.2272727,
                "pitch": 84,
                "velocity": 80,
                "duration": 0.0659091,
                "tempo": 120.0
            },
            {
                "start_time": 36.2431818,
                "end_time": 36.3113636,
                "pitch": 83,
                "velocity": 80,
                "duration": 0.0681818,
                "tempo": 120.0
            },
            {
                "start_time": 36.3454545,
                "end_time": 36.3954545,
                "pitch": 84,
                "velocity": 80,
                "duration": 0.05,
                "tempo": 120.0
            },
            {
                "start_time": 36.4272727,
                "end_time": 36.4772727,
                "pitch": 81,
                "velocity": 80,
                "duration": 0.05,
                "tempo": 120.0
            },
            {
                "start_time": 36.5113636,
                "end_time": 36.5772727,
                "pitch": 83,
                "velocity": 80,
                "duration": 0.0659091,
                "tempo": 120.0
            },
            {
                "start_time": 36.5954545,
                "end_time": 36.6613636,
                "pitch": 84,
                "velocity": 80,
                "duration": 0.0659091,
                "tempo": 120.0
            },
            {
                "start_time": 36.6954545,
                "end_time": 36.7454545,
                "pitch": 86,
                "velocity": 80,
                "duration": 0.05,
                "tempo": 120.0
            },
            {
                "start_time": 36.7795455,
                "end_time": 36.8295455,
                "pitch": 83,
                "velocity": 80,
                "duration": 0.05,
                "tempo": 120.0
            },
            {
                "start_time": 36.8636364,
                "end_time": 36.9295455,
                "pitch": 84,
                "velocity": 80,
                "duration": 0.0659091,
                "tempo": 120.0
            },
            {
                "start_time": 36.9454545,
                "end_time": 37.0136364,
                "pitch": 86,
                "velocity": 80,
                "duration": 0.0681818,
                "tempo": 120.0
            },
            {
                "start_time": 37.0477273,
                "end_time": 37.0977273,
                "pitch": 88,
                "velocity": 80,
                "duration": 0.05,
                "tempo": 120.0
            },
            {
                "start_time": 37.1295455,
                "end_time": 37.1977273,
                "pitch": 84,
                "velocity": 80,
                "duration": 0.0681818,
                "tempo": 120.0
            },
            {
                "start_time": 37.2159091,
                "end_time": 37.2818182,
                "pitch": 76,
                "velocity": 80,
                "duration": 0.0659091,
                "tempo": 120.0
            },
            {
                "start_time": 37.3136364,
                "end_time": 37.3636364,
                "pitch": 81,
                "velocity": 80,
                "duration": 0.05,
                "tempo": 120.0
            },
            {
                "start_time": 37.3977273,
                "end_time": 37.4477273,
                "pitch": 83,
                "velocity": 80,
                "duration": 0.05,
                "tempo": 120.0
            },
            {
                "start_time": 37.4818182,
                "end_time": 37.5477273,
                "pitch": 86,
                "velocity": 80,
                "duration": 0.0659091,
                "tempo": 120.0
            },
            {
                "start_time": 37.5659091,
                "end_time": 37.6318182,
                "pitch": 84,
                "velocity": 80,
                "duration": 0.0659091,
                "tempo": 120.0
            },
            {
                "start_time": 37.6659091,
                "end_time": 37.7159091,
                "pitch": 83,
                "velocity": 80,
                "duration": 0.05,
                "tempo": 120.0
            },
            {
                "start_time": 37.75,
                "end_time": 37.8,
                "pitch": 84,
                "velocity": 80,
                "duration": 0.05,
                "tempo": 120.0
            },
            {
                "start_time": 37.8340909,
                "end_time": 37.9,
                "pitch": 81,
                "velocity": 80,
                "duration": 0.0659091,
                "tempo": 120.0
            },
            {
                "start_time": 37.9159091,
                "end_time": 37.9840909,
                "pitch": 83,
                "velocity": 80,
                "duration": 0.0681818,
                "tempo": 120.0
            },
            {
                "start_time": 38.0159091,
                "end_time": 38.0659091,
                "pitch": 84,
                "velocity": 80,
                "duration": 0.05,
                "tempo": 120.0
            },
            {
                "start_time": 38.1,
                "end_time": 38.15,
                "pitch": 86,
                "velocity": 80,
                "duration": 0.05,
                "tempo": 120.0
            },
            {
                "start_time": 38.1840909,
                "end_time": 38.25,
                "pitch": 83,
                "velocity": 80,
                "duration": 0.0659091,
                "tempo": 120.0
            },
            {
                "start_time": 38.2681818,
                "end_time": 38.3340909,
                "pitch": 84,
                "velocity": 80,
                "duration": 0.0659091,
                "tempo": 120.0
            },
            {
                "start_time": 38.3681818,
                "end_time": 38.4181818,
                "pitch": 86,
                "velocity": 80,
                "duration": 0.05,
                "tempo": 120.0
            },
            {
                "start_time": 38.4522727,
                "end_time": 38.5022727,
                "pitch": 88,
                "velocity": 80,
                "duration": 0.05,
                "tempo": 120.0
            },
            {
                "start_time": 38.5363636,
                "end_time": 38.6022727,
                "pitch": 84,
                "velocity": 80,
                "duration": 0.0659091,
                "tempo": 120.0
            },
            {
                "start_time": 38.6204545,
                "end_time": 38.6863636,
                "pitch": 76,
                "velocity": 80,
                "duration": 0.0659091,
                "tempo": 120.0
            },
            {
                "start_time": 38.7204545,
                "end_time": 38.7681818,
                "pitch": 81,
                "velocity": 80,
                "duration": 0.0477273,
                "tempo": 120.0
            },
            {
                "start_time": 38.8022727,
                "end_time": 38.8522727,
                "pitch": 83,
                "velocity": 80,
                "duration": 0.05,
                "tempo": 120.0
            },
            {
                "start_time": 38.8863636,
                "end_time": 38.9522727,
                "pitch": 86,
                "velocity": 80,
                "duration": 0.0659091,
                "tempo": 120.0
            },
            {
                "start_time": 38.9704545,
                "end_time": 39.0363636,
                "pitch": 84,
                "velocity": 80,
                "duration": 0.0659091,
                "tempo": 120.0
            },
            {
                "start_time": 39.0704545,
                "end_time": 39.1204545,
                "pitch": 83,
                "velocity": 80,
                "duration": 0.05,
                "tempo": 120.0
            },
            {
                "start_time": 39.1545455,
                "end_time": 39.2204545,
                "pitch": 84,
                "velocity": 80,
                "duration": 0.0659091,
                "tempo": 120.0
            },
            {
                "start_time": 39.2386364,
                "end_time": 39.3045455,
                "pitch": 81,
                "velocity": 80,
                "duration": 0.0659091,
                "tempo": 120.0
            },
            {
                "start_time": 39.3386364,
                "end_time": 39.3909091,
                "pitch": 83,
                "velocity": 80,
                "duration": 0.0522727,
                "tempo": 120.0
            },
            {
                "start_time": 39.4272727,
                "end_time": 39.4795455,
                "pitch": 84,
                "velocity": 80,
                "duration": 0.0522727,
                "tempo": 120.0
            },
            {
                "start_time": 39.5136364,
                "end_time": 39.5840909,
                "pitch": 86,
                "velocity": 80,
                "duration": 0.0704545,
                "tempo": 120.0
            },
            {
                "start_time": 39.6022727,
                "end_time": 39.6727273,
                "pitch": 83,
                "velocity": 80,
                "duration": 0.0704545,
                "tempo": 120.0
            },
            {
                "start_time": 39.7090909,
                "end_time": 39.7590909,
                "pitch": 84,
                "velocity": 80,
                "duration": 0.05,
                "tempo": 120.0
            },
            {
                "start_time": 39.7931818,
                "end_time": 39.8431818,
                "pitch": 86,
                "velocity": 80,
                "duration": 0.05,
                "tempo": 120.0
            },
            {
                "start_time": 39.875,
                "end_time": 39.9431818,
                "pitch": 88,
                "velocity": 80,
                "duration": 0.0681818,
                "tempo": 120.0
            },
            {
                "start_time": 39.9590909,
                "end_time": 40.0272727,
                "pitch": 84,
                "velocity": 80,
                "duration": 0.0681818,
                "tempo": 120.0
            },
            {
                "start_time": 45.6909091,
                "end_time": 45.7568182,
                "pitch": 76,
                "velocity": 80,
                "duration": 0.0659091,
                "tempo": 120.0
            },
            {
                "start_time": 45.7909091,
                "end_time": 45.8409091,
                "pitch": 80,
                "velocity": 80,
                "duration": 0.05,
                "tempo": 120.0
            },
            {
                "start_time": 45.875,
                "end_time": 45.925,
                "pitch": 83,
                "velocity": 80,
                "duration": 0.05,
                "tempo": 120.0
            },
            {
                "start_time": 45.9590909,
                "end_time": 46.025,
                "pitch": 86,
                "velocity": 80,
                "duration": 0.0659091,
                "tempo": 120.0
            },
            {
                "start_time": 46.0431818,
                "end_time": 46.1090909,
                "pitch": 84,
                "velocity": 80,
                "duration": 0.0659091,
                "tempo": 120.0
            },
            {
                "start_time": 46.1431818,
                "end_time": 46.1931818,
                "pitch": 83,
                "velocity": 80,
                "duration": 0.05,
                "tempo": 120.0
            },
            {
                "start_time": 46.2272727,
                "end_time": 46.2772727,
                "pitch": 84,
                "velocity": 80,
                "duration": 0.05,
                "tempo": 120.0
            },
            {
                "start_time": 46.3090909,
                "end_time": 46.3772727,
                "pitch": 80,
                "velocity": 80,
                "duration": 0.0681818,
                "tempo": 120.0
            },
            {
                "start_time": 46.3931818,
                "end_time": 46.4590909,
                "pitch": 83,
                "velocity": 80,
                "duration": 0.0659091,
                "tempo": 120.0
            },
            {
                "start_time": 46.4909091,
                "end_time": 46.5386364,
                "pitch": 84,
                "velocity": 80,
                "duration": 0.0477273,
                "tempo": 120.0
            },
            {
                "start_time": 46.5727273,
                "end_time": 46.6204545,
                "pitch": 86,
                "velocity": 80,
                "duration": 0.0477273,
                "tempo": 120.0
            },
            {
                "start_time": 46.6545455,
                "end_time": 46.7181818,
                "pitch": 83,
                "velocity": 80,
                "duration": 0.0636364,
                "tempo": 120.0
            },
            {
                "start_time": 46.7340909,
                "end_time": 46.8022727,
                "pitch": 84,
                "velocity": 80,
                "duration": 0.0681818,
                "tempo": 120.0
            },
            {
                "start_time": 46.8386364,
                "end_time": 46.8886364,
                "pitch": 86,
                "velocity": 80,
                "duration": 0.05,
                "tempo": 120.0
            },
            {
                "start_time": 46.9227273,
                "end_time": 46.975,
                "pitch": 88,
                "velocity": 80,
                "duration": 0.0522727,
                "tempo": 120.0
            },
            {
                "start_time": 47.0090909,
                "end_time": 47.0795455,
                "pitch": 84,
                "velocity": 80,
                "duration": 0.0704545,
                "tempo": 120.0
            },
            {
                "start_time": 47.0954545,
                "end_time": 47.1636364,
                "pitch": 76,
                "velocity": 80,
                "duration": 0.0681818,
                "tempo": 120.0
            },
            {
                "start_time": 47.1954545,
                "end_time": 47.2454545,
                "pitch": 80,
                "velocity": 80,
                "duration": 0.05,
                "tempo": 120.0
            },
            {
                "start_time": 47.2795455,
                "end_time": 47.3295455,
                "pitch": 83,
                "velocity": 80,
                "duration": 0.05,
                "tempo": 120.0
            },
            {
                "start_time": 47.3636364,
                "end_time": 47.4295455,
                "pitch": 86,
                "velocity": 80,
                "duration": 0.0659091,
                "tempo": 120.0
            },
            {
                "start_time": 47.4477273,
                "end_time": 47.5136364,
                "pitch": 84,
                "velocity": 80,
                "duration": 0.0659091,
                "tempo": 120.0
            },
            {
                "start_time": 47.5477273,
                "end_time": 47.5977273,
                "pitch": 83,
                "velocity": 80,
                "duration": 0.05,
                "tempo": 120.0
            },
            {
                "start_time": 47.6318182,
                "end_time": 47.6818182,
                "pitch": 84,
                "velocity": 80,
                "duration": 0.05,
                "tempo": 120.0
            },
            {
                "start_time": 47.7159091,
                "end_time": 47.7818182,
                "pitch": 80,
                "velocity": 80,
                "duration": 0.0659091,
                "tempo": 120.0
            },
            {
                "start_time": 47.8159091,
                "end_time": 47.8659091,
                "pitch": 83,
                "velocity": 80,
                "duration": 0.05,
                "tempo": 120.0
            },
            {
                "start_time": 47.9022727,
                "end_time": 47.9522727,
                "pitch": 84,
                "velocity": 80,
                "duration": 0.05,
                "tempo": 120.0
            },
            {
                "start_time": 47.9886364,
                "end_time": 48.0568182,
                "pitch": 86,
                "velocity": 80,
                "duration": 0.0681818,
                "tempo": 120.0
            },
            {
                "start_time": 48.075,
                "end_time": 48.1431818,
                "pitch": 83,
                "velocity": 80,
                "duration": 0.0681818,
                "tempo": 120.0
            },
            {
                "start_time": 48.1772727,
                "end_time": 48.2295455,
                "pitch": 84,
                "velocity": 80,
                "duration": 0.0522727,
                "tempo": 120.0
            },
            {
                "start_time": 48.2636364,
                "end_time": 48.3136364,
                "pitch": 86,
                "velocity": 80,
                "duration": 0.05,
                "tempo": 120.0
            },
            {
                "start_time": 48.35,
                "end_time": 48.4181818,
                "pitch": 88,
                "velocity": 80,
                "duration": 0.0681818,
                "tempo": 120.0
            },
            {
                "start_time": 48.4363636,
                "end_time": 48.5045455,
                "pitch": 84,
                "velocity": 80,
                "duration": 0.0681818,
                "tempo": 120.0
            },
            {
                "start_time": 48.5386364,
                "end_time": 48.5886364,
                "pitch": 76,
                "velocity": 80,
                "duration": 0.05,
                "tempo": 120.0
            },
            {
                "start_time": 48.6227273,
                "end_time": 48.6727273,
                "pitch": 80,
                "velocity": 80,
                "duration": 0.05,
                "tempo": 120.0
            },
            {
                "start_time": 48.7068182,
                "end_time": 48.7727273,
                "pitch": 83,
                "velocity": 80,
                "duration": 0.0659091,
                "tempo": 120.0
            },
            {
                "start_time": 48.7909091,
                "end_time": 48.8568182,
                "pitch": 86,
                "velocity": 80,
                "duration": 0.0659091,
                "tempo": 120.0
            },
            {
                "start_time": 48.8909091,
                "end_time": 48.9409091,
                "pitch": 84,
                "velocity": 80,
                "duration": 0.05,
                "tempo": 120.0
            },
            {
                "start_time": 48.975,
                "end_time": 49.025,
                "pitch": 83,
                "velocity": 80,
                "duration": 0.05,
                "tempo": 120.0
            },
            {
                "start_time": 49.0568182,
                "end_time": 49.125,
                "pitch": 84,
                "velocity": 80,
                "duration": 0.0681818,
                "tempo": 120.0
            },
            {
                "start_time": 49.1409091,
                "end_time": 49.2090909,
                "pitch": 80,
                "velocity": 80,
                "duration": 0.0681818,
                "tempo": 120.0
            },
            {
                "start_time": 49.2409091,
                "end_time": 49.2909091,
                "pitch": 83,
                "velocity": 80,
                "duration": 0.05,
                "tempo": 120.0
            },
            {
                "start_time": 49.3227273,
                "end_time": 49.3704545,
                "pitch": 84,
                "velocity": 80,
                "duration": 0.0477273,
                "tempo": 120.0
            },
            {
                "start_time": 49.4045455,
                "end_time": 49.4681818,
                "pitch": 86,
                "velocity": 80,
                "duration": 0.0636364,
                "tempo": 120.0
            },
            {
                "start_time": 49.4863636,
                "end_time": 49.55,
                "pitch": 83,
                "velocity": 80,
                "duration": 0.0636364,
                "tempo": 120.0
            },
            {
                "start_time": 49.5818182,
                "end_time": 49.6340909,
                "pitch": 84,
                "velocity": 80,
                "duration": 0.0522727,
                "tempo": 120.0
            },
            {
                "start_time": 49.6681818,
                "end_time": 49.7204545,
                "pitch": 86,
                "velocity": 80,
                "duration": 0.0522727,
                "tempo": 120.0
            },
            {
                "start_time": 49.7545455,
                "end_time": 49.8227273,
                "pitch": 88,
                "velocity": 80,
                "duration": 0.0681818,
                "tempo": 120.0
            },
            {
                "start_time": 49.8409091,
                "end_time": 49.9090909,
                "pitch": 84,
                "velocity": 80,
                "duration": 0.0681818,
                "tempo": 120.0
            },
            {
                "start_time": 49.9454545,
                "end_time": 49.9954545,
                "pitch": 76,
                "velocity": 80,
                "duration": 0.05,
                "tempo": 120.0
            },
            {
                "start_time": 50.0272727,
                "end_time": 50.0954545,
                "pitch": 80,
                "velocity": 80,
                "duration": 0.0681818,
                "tempo": 120.0
            },
            {
                "start_time": 50.1113636,
                "end_time": 50.1772727,
                "pitch": 83,
                "velocity": 80,
                "duration": 0.0659091,
                "tempo": 120.0
            },
            {
                "start_time": 50.2113636,
                "end_time": 50.2613636,
                "pitch": 86,
                "velocity": 80,
                "duration": 0.05,
                "tempo": 120.0
            },
            {
                "start_time": 50.2954545,
                "end_time": 50.3454545,
                "pitch": 84,
                "velocity": 80,
                "duration": 0.05,
                "tempo": 120.0
            },
            {
                "start_time": 50.3795455,
                "end_time": 50.4454545,
                "pitch": 83,
                "velocity": 80,
                "duration": 0.0659091,
                "tempo": 120.0
            },
            {
                "start_time": 50.4636364,
                "end_time": 50.5295455,
                "pitch": 84,
                "velocity": 80,
                "duration": 0.0659091,
                "tempo": 120.0
            },
            {
                "start_time": 50.5636364,
                "end_time": 50.6136364,
                "pitch": 80,
                "velocity": 80,
                "duration": 0.05,
                "tempo": 120.0
            },
            {
                "start_time": 50.6477273,
                "end_time": 50.6977273,
                "pitch": 83,
                "velocity": 80,
                "duration": 0.05,
                "tempo": 120.0
            },
            {
                "start_time": 50.7295455,
                "end_time": 50.7977273,
                "pitch": 84,
                "velocity": 80,
                "duration": 0.0681818,
                "tempo": 120.0
            },
            {
                "start_time": 50.8136364,
                "end_time": 50.8818182,
                "pitch": 86,
                "velocity": 80,
                "duration": 0.0681818,
                "tempo": 120.0
            },
            {
                "start_time": 50.9136364,
                "end_time": 50.9636364,
                "pitch": 83,
                "velocity": 80,
                "duration": 0.05,
                "tempo": 120.0
            },
            {
                "start_time": 50.9977273,
                "end_time": 51.0477273,
                "pitch": 84,
                "velocity": 80,
                "duration": 0.05,
                "tempo": 120.0
            },
            {
                "start_time": 51.0818182,
                "end_time": 51.1477273,
                "pitch": 86,
                "velocity": 80,
                "duration": 0.0659091,
                "tempo": 120.0
            },
            {
                "start_time": 51.1659091,
                "end_time": 51.2318182,
                "pitch": 88,
                "velocity": 80,
                "duration": 0.0659091,
                "tempo": 120.0
            },
            {
                "start_time": 51.2659091,
                "end_time": 51.3159091,
                "pitch": 84,
                "velocity": 80,
                "duration": 0.05,
                "tempo": 120.0
            },
            {
                "start_time": 51.35,
                "end_time": 51.4,
                "pitch": 76,
                "velocity": 80,
                "duration": 0.05,
                "tempo": 120.0
            },
            {
                "start_time": 51.4318182,
                "end_time": 51.5,
                "pitch": 81,
                "velocity": 80,
                "duration": 0.0681818,
                "tempo": 120.0
            },
            {
                "start_time": 51.5159091,
                "end_time": 51.5840909,
                "pitch": 83,
                "velocity": 80,
                "duration": 0.0681818,
                "tempo": 120.0
            },
            {
                "start_time": 51.6159091,
                "end_time": 51.6659091,
                "pitch": 86,
                "velocity": 80,
                "duration": 0.05,
                "tempo": 120.0
            },
            {
                "start_time": 51.7,
                "end_time": 51.75,
                "pitch": 84,
                "velocity": 80,
                "duration": 0.05,
                "tempo": 120.0
            },
            {
                "start_time": 51.7840909,
                "end_time": 51.85,
                "pitch": 83,
                "velocity": 80,
                "duration": 0.0659091,
                "tempo": 120.0
            },
            {
                "start_time": 51.8681818,
                "end_time": 51.9340909,
                "pitch": 84,
                "velocity": 80,
                "duration": 0.0659091,
                "tempo": 120.0
            },
            {
                "start_time": 51.9681818,
                "end_time": 52.0181818,
                "pitch": 81,
                "velocity": 80,
                "duration": 0.05,
                "tempo": 120.0
            },
            {
                "start_time": 52.0522727,
                "end_time": 52.1181818,
                "pitch": 83,
                "velocity": 80,
                "duration": 0.0659091,
                "tempo": 120.0
            },
            {
                "start_time": 52.1363636,
                "end_time": 52.2022727,
                "pitch": 84,
                "velocity": 80,
                "duration": 0.0659091,
                "tempo": 120.0
            },
            {
                "start_time": 52.2363636,
                "end_time": 52.2863636,
                "pitch": 86,
                "velocity": 80,
                "duration": 0.05,
                "tempo": 120.0
            },
            {
                "start_time": 52.3204545,
                "end_time": 52.3681818,
                "pitch": 83,
                "velocity": 80,
                "duration": 0.0477273,
                "tempo": 120.0
            },
            {
                "start_time": 52.4022727,
                "end_time": 52.4704545,
                "pitch": 84,
                "velocity": 80,
                "duration": 0.0681818,
                "tempo": 120.0
            },
            {
                "start_time": 52.4863636,
                "end_time": 52.5522727,
                "pitch": 86,
                "velocity": 80,
                "duration": 0.0659091,
                "tempo": 120.0
            },
            {
                "start_time": 52.5863636,
                "end_time": 52.6363636,
                "pitch": 88,
                "velocity": 80,
                "duration": 0.05,
                "tempo": 120.0
            },
            {
                "start_time": 52.6704545,
                "end_time": 52.7204545,
                "pitch": 84,
                "velocity": 80,
                "duration": 0.05,
                "tempo": 120.0
            },
            {
                "start_time": 52.7545455,
                "end_time": 52.8227273,
                "pitch": 76,
                "velocity": 80,
                "duration": 0.0681818,
                "tempo": 120.0
            },
            {
                "start_time": 52.8409091,
                "end_time": 52.9090909,
                "pitch": 81,
                "velocity": 80,
                "duration": 0.0681818,
                "tempo": 120.0
            },
            {
                "start_time": 52.9431818,
                "end_time": 52.9954545,
                "pitch": 83,
                "velocity": 80,
                "duration": 0.0522727,
                "tempo": 120.0
            },
            {
                "start_time": 53.0295455,
                "end_time": 53.0818182,
                "pitch": 86,
                "velocity": 80,
                "duration": 0.0522727,
                "tempo": 120.0
            },
            {
                "start_time": 53.1159091,
                "end_time": 53.1818182,
                "pitch": 84,
                "velocity": 80,
                "duration": 0.0659091,
                "tempo": 120.0
            },
            {
                "start_time": 53.2,
                "end_time": 53.2659091,
                "pitch": 83,
                "velocity": 80,
                "duration": 0.0659091,
                "tempo": 120.0
            },
            {
                "start_time": 53.3,
                "end_time": 53.35,
                "pitch": 84,
                "velocity": 80,
                "duration": 0.05,
                "tempo": 120.0
            },
            {
                "start_time": 53.3840909,
                "end_time": 53.4340909,
                "pitch": 81,
                "velocity": 80,
                "duration": 0.05,
                "tempo": 120.0
            },
            {
                "start_time": 53.4681818,
                "end_time": 53.5340909,
                "pitch": 83,
                "velocity": 80,
                "duration": 0.0659091,
                "tempo": 120.0
            },
            {
                "start_time": 53.55,
                "end_time": 53.6181818,
                "pitch": 84,
                "velocity": 80,
                "duration": 0.0681818,
                "tempo": 120.0
            },
            {
                "start_time": 53.65,
                "end_time": 53.7,
                "pitch": 86,
                "velocity": 80,
                "duration": 0.05,
                "tempo": 120.0
            },
            {
                "start_time": 53.7340909,
                "end_time": 53.7840909,
                "pitch": 83,
                "velocity": 80,
                "duration": 0.05,
                "tempo": 120.0
            },
            {
                "start_time": 53.8181818,
                "end_time": 53.8840909,
                "pitch": 84,
                "velocity": 80,
                "duration": 0.0659091,
                "tempo": 120.0
            },
            {
                "start_time": 53.9022727,
                "end_time": 53.9681818,
                "pitch": 86,
                "velocity": 80,
                "duration": 0.0659091,
                "tempo": 120.0
            },
            {
                "start_time": 54.0022727,
                "end_time": 54.0522727,
                "pitch": 88,
                "velocity": 80,
                "duration": 0.05,
                "tempo": 120.0
            },
            {
                "start_time": 54.0863636,
                "end_time": 54.1363636,
                "pitch": 84,
                "velocity": 80,
                "duration": 0.05,
                "tempo": 120.0
            },
            {
                "start_time": 54.1704545,
                "end_time": 54.2363636,
                "pitch": 76,
                "velocity": 80,
                "duration": 0.0659091,
                "tempo": 120.0
            },
            {
                "start_time": 54.2704545,
                "end_time": 54.3204545,
                "pitch": 81,
                "velocity": 80,
                "duration": 0.05,
                "tempo": 120.0
            },
            {
                "start_time": 54.3545455,
                "end_time": 54.4045455,
                "pitch": 83,
                "velocity": 80,
                "duration": 0.05,
                "tempo": 120.0
            },
            {
                "start_time": 54.4363636,
                "end_time": 54.5045455,
                "pitch": 86,
                "velocity": 80,
                "duration": 0.0681818,
                "tempo": 120.0
            },
            {
                "start_time": 54.5204545,
                "end_time": 54.5863636,
                "pitch": 84,
                "velocity": 80,
                "duration": 0.0659091,
                "tempo": 120.0
            },
            {
                "start_time": 54.6204545,
                "end_time": 54.6704545,
                "pitch": 83,
                "velocity": 80,
                "duration": 0.05,
                "tempo": 120.0
            },
            {
                "start_time": 54.7045455,
                "end_time": 54.7545455,
                "pitch": 84,
                "velocity": 80,
                "duration": 0.05,
                "tempo": 120.0
            },
            {
                "start_time": 54.7886364,
                "end_time": 54.8545455,
                "pitch": 81,
                "velocity": 80,
                "duration": 0.0659091,
                "tempo": 120.0
            },
            {
                "start_time": 54.8727273,
                "end_time": 54.9386364,
                "pitch": 83,
                "velocity": 80,
                "duration": 0.0659091,
                "tempo": 120.0
            },
            {
                "start_time": 54.9727273,
                "end_time": 55.0227273,
                "pitch": 84,
                "velocity": 80,
                "duration": 0.05,
                "tempo": 120.0
            },
            {
                "start_time": 55.0568182,
                "end_time": 55.1068182,
                "pitch": 86,
                "velocity": 80,
                "duration": 0.05,
                "tempo": 120.0
            },
            {
                "start_time": 55.1386364,
                "end_time": 55.2068182,
                "pitch": 83,
                "velocity": 80,
                "duration": 0.0681818,
                "tempo": 120.0
            },
            {
                "start_time": 55.2227273,
                "end_time": 55.2909091,
                "pitch": 84,
                "velocity": 80,
                "duration": 0.0681818,
                "tempo": 120.0
            },
            {
                "start_time": 55.3227273,
                "end_time": 55.3727273,
                "pitch": 86,
                "velocity": 80,
                "duration": 0.05,
                "tempo": 120.0
            },
            {
                "start_time": 55.4068182,
                "end_time": 55.4568182,
                "pitch": 88,
                "velocity": 80,
                "duration": 0.05,
                "tempo": 120.0
            },
            {
                "start_time": 55.4909091,
                "end_time": 55.5568182,
                "pitch": 84,
                "velocity": 80,
                "duration": 0.0659091,
                "tempo": 120.0
            },
            {
                "start_time": 55.575,
                "end_time": 55.6409091,
                "pitch": 76,
                "velocity": 80,
                "duration": 0.0659091,
                "tempo": 120.0
            },
            {
                "start_time": 55.675,
                "end_time": 55.725,
                "pitch": 81,
                "velocity": 80,
                "duration": 0.05,
                "tempo": 120.0
            },
            {
                "start_time": 55.7590909,
                "end_time": 55.8090909,
                "pitch": 83,
                "velocity": 80,
                "duration": 0.05,
                "tempo": 120.0
            },
            {
                "start_time": 55.8431818,
                "end_time": 55.9090909,
                "pitch": 86,
                "velocity": 80,
                "duration": 0.0659091,
                "tempo": 120.0
            },
            {
                "start_time": 55.925,
                "end_time": 55.9931818,
                "pitch": 84,
                "velocity": 80,
                "duration": 0.0681818,
                "tempo": 120.0
            },
            {
                "start_time": 56.025,
                "end_time": 56.075,
                "pitch": 83,
                "velocity": 80,
                "duration": 0.05,
                "tempo": 120.0
            },
            {
                "start_time": 56.1090909,
                "end_time": 56.1590909,
                "pitch": 84,
                "velocity": 80,
                "duration": 0.05,
                "tempo": 120.0
            },
            {
                "start_time": 56.1931818,
                "end_time": 56.2590909,
                "pitch": 81,
                "velocity": 80,
                "duration": 0.0659091,
                "tempo": 120.0
            },
            {
                "start_time": 56.2772727,
                "end_time": 56.3431818,
                "pitch": 83,
                "velocity": 80,
                "duration": 0.0659091,
                "tempo": 120.0
            },
            {
                "start_time": 56.3772727,
                "end_time": 56.4272727,
                "pitch": 84,
                "velocity": 80,
                "duration": 0.05,
                "tempo": 120.0
            },
            {
                "start_time": 56.4613636,
                "end_time": 56.5272727,
                "pitch": 86,
                "velocity": 80,
                "duration": 0.0659091,
                "tempo": 120.0
            },
            {
                "start_time": 56.5454545,
                "end_time": 56.6113636,
                "pitch": 83,
                "velocity": 80,
                "duration": 0.0659091,
                "tempo": 120.0
            },
            {
                "start_time": 56.6454545,
                "end_time": 56.6954545,
                "pitch": 84,
                "velocity": 80,
                "duration": 0.05,
                "tempo": 120.0
            },
            {
                "start_time": 56.7318182,
                "end_time": 56.7818182,
                "pitch": 86,
                "velocity": 80,
                "duration": 0.05,
                "tempo": 120.0
            },
            {
                "start_time": 56.8159091,
                "end_time": 56.8863636,
                "pitch": 88,
                "velocity": 80,
                "duration": 0.0704545,
                "tempo": 120.0
            },
            {
                "start_time": 56.9022727,
                "end_time": 56.9727273,
                "pitch": 84,
                "velocity": 80,
                "duration": 0.0704545,
                "tempo": 120.0
            },
            {
                "start_time": 57.0068182,
                "end_time": 57.0590909,
                "pitch": 74,
                "velocity": 80,
                "duration": 0.0522727,
                "tempo": 120.0
            },
            {
                "start_time": 57.0931818,
                "end_time": 57.1431818,
                "pitch": 79,
                "velocity": 80,
                "duration": 0.05,
                "tempo": 120.0
            },
            {
                "start_time": 57.1795455,
                "end_time": 57.2477273,
                "pitch": 83,
                "velocity": 80,
                "duration": 0.0681818,
                "tempo": 120.0
            },
            {
                "start_time": 57.2659091,
                "end_time": 57.3340909,
                "pitch": 86,
                "velocity": 80,
                "duration": 0.0681818,
                "tempo": 120.0
            },
            {
                "start_time": 57.3681818,
                "end_time": 57.4181818,
                "pitch": 84,
                "velocity": 80,
                "duration": 0.05,
                "tempo": 120.0
            },
            {
                "start_time": 57.4522727,
                "end_time": 57.5022727,
                "pitch": 83,
                "velocity": 80,
                "duration": 0.05,
                "tempo": 120.0
            },
            {
                "start_time": 57.5363636,
                "end_time": 57.6022727,
                "pitch": 84,
                "velocity": 80,
                "duration": 0.0659091,
                "tempo": 120.0
            },
            {
                "start_time": 57.6204545,
                "end_time": 57.6863636,
                "pitch": 74,
                "velocity": 80,
                "duration": 0.0659091,
                "tempo": 120.0
            },
            {
                "start_time": 57.7204545,
                "end_time": 57.7704545,
                "pitch": 83,
                "velocity": 80,
                "duration": 0.05,
                "tempo": 120.0
            },
            {
                "start_time": 57.8045455,
                "end_time": 57.8545455,
                "pitch": 84,
                "velocity": 80,
                "duration": 0.05,
                "tempo": 120.0
            },
            {
                "start_time": 57.8863636,
                "end_time": 57.9545455,
                "pitch": 86,
                "velocity": 80,
                "duration": 0.0681818,
                "tempo": 120.0
            },
            {
                "start_time": 57.9704545,
                "end_time": 58.0363636,
                "pitch": 83,
                "velocity": 80,
                "duration": 0.0659091,
                "tempo": 120.0
            },
            {
                "start_time": 58.0704545,
                "end_time": 58.1204545,
                "pitch": 84,
                "velocity": 80,
                "duration": 0.05,
                "tempo": 120.0
            },
            {
                "start_time": 58.1545455,
                "end_time": 58.2045455,
                "pitch": 86,
                "velocity": 80,
                "duration": 0.05,
                "tempo": 120.0
            },
            {
                "start_time": 58.2386364,
                "end_time": 58.3045455,
                "pitch": 83,
                "velocity": 80,
                "duration": 0.0659091,
                "tempo": 120.0
            },
            {
                "start_time": 58.3227273,
                "end_time": 58.3886364,
                "pitch": 79,
                "velocity": 80,
                "duration": 0.0659091,
                "tempo": 120.0
            },
            {
                "start_time": 58.4227273,
                "end_time": 58.4727273,
                "pitch": 74,
                "velocity": 80,
                "duration": 0.05,
                "tempo": 120.0
            },
            {
                "start_time": 58.5068182,
                "end_time": 58.5727273,
                "pitch": 79,
                "velocity": 80,
                "duration": 0.0659091,
                "tempo": 120.0
            },
            {
                "start_time": 58.5886364,
                "end_time": 58.6568182,
                "pitch": 83,
                "velocity": 80,
                "duration": 0.0681818,
                "tempo": 120.0
            },
            {
                "start_time": 58.6909091,
                "end_time": 58.7409091,
                "pitch": 86,
                "velocity": 80,
                "duration": 0.05,
                "tempo": 120.0
            },
            {
                "start_time": 58.7727273,
                "end_time": 58.8227273,
                "pitch": 84,
                "velocity": 80,
                "duration": 0.05,
                "tempo": 120.0
            },
            {
                "start_time": 58.8568182,
                "end_time": 58.9227273,
                "pitch": 83,
                "velocity": 80,
                "duration": 0.0659091,
                "tempo": 120.0
            },
            {
                "start_time": 58.9409091,
                "end_time": 59.0068182,
                "pitch": 84,
                "velocity": 80,
                "duration": 0.0659091,
                "tempo": 120.0
            },
            {
                "start_time": 59.0409091,
                "end_time": 59.0909091,
                "pitch": 74,
                "velocity": 80,
                "duration": 0.05,
                "tempo": 120.0
            },
            {
                "start_time": 59.125,
                "end_time": 59.175,
                "pitch": 83,
                "velocity": 80,
                "duration": 0.05,
                "tempo": 120.0
            },
            {
                "start_time": 59.2090909,
                "end_time": 59.275,
                "pitch": 84,
                "velocity": 80,
                "duration": 0.0659091,
                "tempo": 120.0
            },
            {
                "start_time": 59.2909091,
                "end_time": 59.3590909,
                "pitch": 86,
                "velocity": 80,
                "duration": 0.0681818,
                "tempo": 120.0
            },
            {
                "start_time": 59.3931818,
                "end_time": 59.4431818,
                "pitch": 83,
                "velocity": 80,
                "duration": 0.05,
                "tempo": 120.0
            },
            {
                "start_time": 59.475,
                "end_time": 59.525,
                "pitch": 84,
                "velocity": 80,
                "duration": 0.05,
                "tempo": 120.0
            },
            {
                "start_time": 59.5590909,
                "end_time": 59.6272727,
                "pitch": 86,
                "velocity": 80,
                "duration": 0.0681818,
                "tempo": 120.0
            },
            {
                "start_time": 59.6431818,
                "end_time": 59.7090909,
                "pitch": 83,
                "velocity": 80,
                "duration": 0.0659091,
                "tempo": 120.0
            },
            {
                "start_time": 59.7431818,
                "end_time": 59.7931818,
                "pitch": 79,
                "velocity": 80,
                "duration": 0.05,
                "tempo": 120.0
            },
            {
                "start_time": 59.8272727,
                "end_time": 59.8772727,
                "pitch": 74,
                "velocity": 80,
                "duration": 0.05,
                "tempo": 120.0
            },
            {
                "start_time": 59.9113636,
                "end_time": 59.9772727,
                "pitch": 79,
                "velocity": 80,
                "duration": 0.0659091,
                "tempo": 120.0
            },
            {
                "start_time": 59.9954545,
                "end_time": 60.0613636,
                "pitch": 83,
                "velocity": 80,
                "duration": 0.0659091,
                "tempo": 120.0
            },
            {
                "start_time": 60.0954545,
                "end_time": 60.1454545,
                "pitch": 86,
                "velocity": 80,
                "duration": 0.05,
                "tempo": 120.0
            },
            {
                "start_time": 60.1772727,
                "end_time": 60.2272727,
                "pitch": 84,
                "velocity": 80,
                "duration": 0.05,
                "tempo": 120.0
            },
            {
                "start_time": 60.2613636,
                "end_time": 60.3295455,
                "pitch": 83,
                "velocity": 80,
                "duration": 0.0681818,
                "tempo": 120.0
            },
            {
                "start_time": 60.3454545,
                "end_time": 60.4113636,
                "pitch": 84,
                "velocity": 80,
                "duration": 0.0659091,
                "tempo": 120.0
            },
            {
                "start_time": 60.4454545,
                "end_time": 60.4954545,
                "pitch": 74,
                "velocity": 80,
                "duration": 0.05,
                "tempo": 120.0
            },
            {
                "start_time": 60.5295455,
                "end_time": 60.5795455,
                "pitch": 83,
                "velocity": 80,
                "duration": 0.05,
                "tempo": 120.0
            },
            {
                "start_time": 60.6136364,
                "end_time": 60.6795455,
                "pitch": 84,
                "velocity": 80,
                "duration": 0.0659091,
                "tempo": 120.0
            },
            {
                "start_time": 60.7136364,
                "end_time": 60.7636364,
                "pitch": 86,
                "velocity": 80,
                "duration": 0.05,
                "tempo": 120.0
            },
            {
                "start_time": 60.7977273,
                "end_time": 60.8477273,
                "pitch": 83,
                "velocity": 80,
                "duration": 0.05,
                "tempo": 120.0
            },
            {
                "start_time": 60.8818182,
                "end_time": 60.9477273,
                "pitch": 84,
                "velocity": 80,
                "duration": 0.0659091,
                "tempo": 120.0
            },
            {
                "start_time": 60.9636364,
                "end_time": 61.0318182,
                "pitch": 86,
                "velocity": 80,
                "duration": 0.0681818,
                "tempo": 120.0
            },
            {
                "start_time": 61.0659091,
                "end_time": 61.1136364,
                "pitch": 83,
                "velocity": 80,
                "duration": 0.0477273,
                "tempo": 120.0
            },
            {
                "start_time": 61.1477273,
                "end_time": 61.1977273,
                "pitch": 79,
                "velocity": 80,
                "duration": 0.05,
                "tempo": 120.0
            },
            {
                "start_time": 61.2318182,
                "end_time": 61.2977273,
                "pitch": 74,
                "velocity": 80,
                "duration": 0.0659091,
                "tempo": 120.0
            },
            {
                "start_time": 61.3159091,
                "end_time": 61.3818182,
                "pitch": 79,
                "velocity": 80,
                "duration": 0.0659091,
                "tempo": 120.0
            },
            {
                "start_time": 61.4159091,
                "end_time": 61.4659091,
                "pitch": 83,
                "velocity": 80,
                "duration": 0.05,
                "tempo": 120.0
            },
            {
                "start_time": 61.5,
                "end_time": 61.55,
                "pitch": 86,
                "velocity": 80,
                "duration": 0.05,
                "tempo": 120.0
            },
            {
                "start_time": 61.5840909,
                "end_time": 61.65,
                "pitch": 84,
                "velocity": 80,
                "duration": 0.0659091,
                "tempo": 120.0
            },
            {
                "start_time": 61.6659091,
                "end_time": 61.7340909,
                "pitch": 83,
                "velocity": 80,
                "duration": 0.0681818,
                "tempo": 120.0
            },
            {
                "start_time": 61.7681818,
                "end_time": 61.8181818,
                "pitch": 84,
                "velocity": 80,
                "duration": 0.05,
                "tempo": 120.0
            },
            {
                "start_time": 61.85,
                "end_time": 61.9,
                "pitch": 74,
                "velocity": 80,
                "duration": 0.05,
                "tempo": 120.0
            },
            {
                "start_time": 61.9340909,
                "end_time": 62.0022727,
                "pitch": 83,
                "velocity": 80,
                "duration": 0.0681818,
                "tempo": 120.0
            },
            {
                "start_time": 62.0181818,
                "end_time": 62.0840909,
                "pitch": 84,
                "velocity": 80,
                "duration": 0.0659091,
                "tempo": 120.0
            },
            {
                "start_time": 62.1181818,
                "end_time": 62.1681818,
                "pitch": 86,
                "velocity": 80,
                "duration": 0.05,
                "tempo": 120.0
            },
            {
                "start_time": 62.2022727,
                "end_time": 62.2522727,
                "pitch": 83,
                "velocity": 80,
                "duration": 0.05,
                "tempo": 120.0
            },
            {
                "start_time": 62.2863636,
                "end_time": 62.3522727,
                "pitch": 84,
                "velocity": 80,
                "duration": 0.0659091,
                "tempo": 120.0
            },
            {
                "start_time": 62.3681818,
                "end_time": 62.4363636,
                "pitch": 86,
                "velocity": 80,
                "duration": 0.0681818,
                "tempo": 120.0
            },
            {
                "start_time": 62.4704545,
                "end_time": 62.5204545,
                "pitch": 83,
                "velocity": 80,
                "duration": 0.05,
                "tempo": 120.0
            },
            {
                "start_time": 62.5522727,
                "end_time": 62.6022727,
                "pitch": 79,
                "velocity": 80,
                "duration": 0.05,
                "tempo": 120.0
            },
            {
                "start_time": 62.6363636,
                "end_time": 62.7045455,
                "pitch": 76,
                "velocity": 80,
                "duration": 0.0681818,
                "tempo": 120.0
            },
            {
                "start_time": 62.7227273,
                "end_time": 62.7909091,
                "pitch": 81,
                "velocity": 80,
                "duration": 0.0681818,
                "tempo": 120.0
            },
            {
                "start_time": 62.825,
                "end_time": 62.8772727,
                "pitch": 83,
                "velocity": 80,
                "duration": 0.0522727,
                "tempo": 120.0
            },
            {
                "start_time": 62.9113636,
                "end_time": 62.9818182,
                "pitch": 86,
                "velocity": 80,
                "duration": 0.0704545,
                "tempo": 120.0
            },
            {
                "start_time": 62.9977273,
                "end_time": 63.0636364,
                "pitch": 84,
                "velocity": 80,
                "duration": 0.0659091,
                "tempo": 120.0
            },
            {
                "start_time": 63.0954545,
                "end_time": 63.1454545,
                "pitch": 83,
                "velocity": 80,
                "duration": 0.05,
                "tempo": 120.0
            },
            {
                "start_time": 63.1772727,
                "end_time": 63.225,
                "pitch": 84,
                "velocity": 80,
                "duration": 0.0477273,
                "tempo": 120.0
            },
            {
                "start_time": 63.2590909,
                "end_time": 63.3227273,
                "pitch": 81,
                "velocity": 80,
                "duration": 0.0636364,
                "tempo": 120.0
            },
            {
                "start_time": 63.3386364,
                "end_time": 63.4068182,
                "pitch": 83,
                "velocity": 80,
                "duration": 0.0681818,
                "tempo": 120.0
            },
            {
                "start_time": 63.4409091,
                "end_time": 63.4909091,
                "pitch": 84,
                "velocity": 80,
                "duration": 0.05,
                "tempo": 120.0
            },
            {
                "start_time": 63.5227273,
                "end_time": 63.5727273,
                "pitch": 86,
                "velocity": 80,
                "duration": 0.05,
                "tempo": 120.0
            },
            {
                "start_time": 63.6068182,
                "end_time": 63.675,
                "pitch": 83,
                "velocity": 80,
                "duration": 0.0681818,
                "tempo": 120.0
            },
            {
                "start_time": 63.6909091,
                "end_time": 63.7568182,
                "pitch": 84,
                "velocity": 80,
                "duration": 0.0659091,
                "tempo": 120.0
            },
            {
                "start_time": 63.7909091,
                "end_time": 63.8409091,
                "pitch": 86,
                "velocity": 80,
                "duration": 0.05,
                "tempo": 120.0
            },
            {
                "start_time": 63.875,
                "end_time": 63.925,
                "pitch": 88,
                "velocity": 80,
                "duration": 0.05,
                "tempo": 120.0
            },
            {
                "start_time": 63.9590909,
                "end_time": 64.025,
                "pitch": 84,
                "velocity": 80,
                "duration": 0.0659091,
                "tempo": 120.0
            },
            {
                "start_time": 64.0431818,
                "end_time": 64.1113636,
                "pitch": 76,
                "velocity": 80,
                "duration": 0.0681818,
                "tempo": 120.0
            },
            {
                "start_time": 64.1454545,
                "end_time": 64.1954545,
                "pitch": 81,
                "velocity": 80,
                "duration": 0.05,
                "tempo": 120.0
            },
            {
                "start_time": 64.2318182,
                "end_time": 64.2818182,
                "pitch": 83,
                "velocity": 80,
                "duration": 0.05,
                "tempo": 120.0
            },
            {
                "start_time": 64.3181818,
                "end_time": 64.3863636,
                "pitch": 86,
                "velocity": 80,
                "duration": 0.0681818,
                "tempo": 120.0
            },
            {
                "start_time": 64.4045455,
                "end_time": 64.4704545,
                "pitch": 84,
                "velocity": 80,
                "duration": 0.0659091,
                "tempo": 120.0
            },
            {
                "start_time": 64.5045455,
                "end_time": 64.5545455,
                "pitch": 83,
                "velocity": 80,
                "duration": 0.05,
                "tempo": 120.0
            },
            {
                "start_time": 64.5886364,
                "end_time": 64.6386364,
                "pitch": 84,
                "velocity": 80,
                "duration": 0.05,
                "tempo": 120.0
            },
            {
                "start_time": 64.6704545,
                "end_time": 64.7386364,
                "pitch": 81,
                "velocity": 80,
                "duration": 0.0681818,
                "tempo": 120.0
            },
            {
                "start_time": 64.7545455,
                "end_time": 64.8227273,
                "pitch": 83,
                "velocity": 80,
                "duration": 0.0681818,
                "tempo": 120.0
            },
            {
                "start_time": 64.8545455,
                "end_time": 64.9045455,
                "pitch": 84,
                "velocity": 80,
                "duration": 0.05,
                "tempo": 120.0
            },
            {
                "start_time": 64.9386364,
                "end_time": 65.0068182,
                "pitch": 86,
                "velocity": 80,
                "duration": 0.0681818,
                "tempo": 120.0
            },
            {
                "start_time": 65.0227273,
                "end_time": 65.0886364,
                "pitch": 83,
                "velocity": 80,
                "duration": 0.0659091,
                "tempo": 120.0
            },
            {
                "start_time": 65.1227273,
                "end_time": 65.175,
                "pitch": 84,
                "velocity": 80,
                "duration": 0.0522727,
                "tempo": 120.0
            },
            {
                "start_time": 65.2090909,
                "end_time": 65.2613636,
                "pitch": 86,
                "velocity": 80,
                "duration": 0.0522727,
                "tempo": 120.0
            },
            {
                "start_time": 65.2954545,
                "end_time": 65.3636364,
                "pitch": 88,
                "velocity": 80,
                "duration": 0.0681818,
                "tempo": 120.0
            },
            {
                "start_time": 65.3818182,
                "end_time": 65.45,
                "pitch": 84,
                "velocity": 80,
                "duration": 0.0681818,
                "tempo": 120.0
            },
            {
                "start_time": 65.4863636,
                "end_time": 65.5363636,
                "pitch": 76,
                "velocity": 80,
                "duration": 0.05,
                "tempo": 120.0
            },
            {
                "start_time": 65.5704545,
                "end_time": 65.6227273,
                "pitch": 81,
                "velocity": 80,
                "duration": 0.0522727,
                "tempo": 120.0
            },
            {
                "start_time": 65.6568182,
                "end_time": 65.725,
                "pitch": 83,
                "velocity": 80,
                "duration": 0.0681818,
                "tempo": 120.0
            },
            {
                "start_time": 65.7431818,
                "end_time": 65.8113636,
                "pitch": 86,
                "velocity": 80,
                "duration": 0.0681818,
                "tempo": 120.0
            },
            {
                "start_time": 65.8454545,
                "end_time": 65.8977273,
                "pitch": 84,
                "velocity": 80,
                "duration": 0.0522727,
                "tempo": 120.0
            },
            {
                "start_time": 65.9295455,
                "end_time": 65.9795455,
                "pitch": 83,
                "velocity": 80,
                "duration": 0.05,
                "tempo": 120.0
            },
            {
                "start_time": 66.0136364,
                "end_time": 66.0818182,
                "pitch": 84,
                "velocity": 80,
                "duration": 0.0681818,
                "tempo": 120.0
            },
            {
                "start_time": 66.0977273,
                "end_time": 66.1636364,
                "pitch": 81,
                "velocity": 80,
                "duration": 0.0659091,
                "tempo": 120.0
            },
            {
                "start_time": 66.1977273,
                "end_time": 66.2477273,
                "pitch": 83,
                "velocity": 80,
                "duration": 0.05,
                "tempo": 120.0
            },
            {
                "start_time": 66.2818182,
                "end_time": 66.3318182,
                "pitch": 84,
                "velocity": 80,
                "duration": 0.05,
                "tempo": 120.0
            },
            {
                "start_time": 66.3659091,
                "end_time": 66.4318182,
                "pitch": 86,
                "velocity": 80,
                "duration": 0.0659091,
                "tempo": 120.0
            },
            {
                "start_time": 66.45,
                "end_time": 66.5159091,
                "pitch": 83,
                "velocity": 80,
                "duration": 0.0659091,
                "tempo": 120.0
            },
            {
                "start_time": 66.55,
                "end_time": 66.5977273,
                "pitch": 84,
                "velocity": 80,
                "duration": 0.0477273,
                "tempo": 120.0
            },
            {
                "start_time": 66.6295455,
                "end_time": 66.6795455,
                "pitch": 86,
                "velocity": 80,
                "duration": 0.05,
                "tempo": 120.0
            },
            {
                "start_time": 66.7113636,
                "end_time": 66.7772727,
                "pitch": 88,
                "velocity": 80,
                "duration": 0.0659091,
                "tempo": 120.0
            },
            {
                "start_time": 66.7931818,
                "end_time": 66.8568182,
                "pitch": 84,
                "velocity": 80,
                "duration": 0.0636364,
                "tempo": 120.0
            },
            {
                "start_time": 66.8909091,
                "end_time": 66.9409091,
                "pitch": 76,
                "velocity": 80,
                "duration": 0.05,
                "tempo": 120.0
            },
            {
                "start_time": 66.975,
                "end_time": 67.0272727,
                "pitch": 81,
                "velocity": 80,
                "duration": 0.0522727,
                "tempo": 120.0
            },
            {
                "start_time": 67.0613636,
                "end_time": 67.1318182,
                "pitch": 83,
                "velocity": 80,
                "duration": 0.0704545,
                "tempo": 120.0
            },
            {
                "start_time": 67.1659091,
                "end_time": 67.2159091,
                "pitch": 86,
                "velocity": 80,
                "duration": 0.05,
                "tempo": 120.0
            },
            {
                "start_time": 67.2522727,
                "end_time": 67.3022727,
                "pitch": 84,
                "velocity": 80,
                "duration": 0.05,
                "tempo": 120.0
            },
            {
                "start_time": 67.3363636,
                "end_time": 67.4022727,
                "pitch": 83,
                "velocity": 80,
                "duration": 0.0659091,
                "tempo": 120.0
            },
            {
                "start_time": 67.4204545,
                "end_time": 67.4863636,
                "pitch": 84,
                "velocity": 80,
                "duration": 0.0659091,
                "tempo": 120.0
            },
            {
                "start_time": 67.5204545,
                "end_time": 67.5704545,
                "pitch": 81,
                "velocity": 80,
                "duration": 0.05,
                "tempo": 120.0
            },
            {
                "start_time": 67.6022727,
                "end_time": 67.6522727,
                "pitch": 83,
                "velocity": 80,
                "duration": 0.05,
                "tempo": 120.0
            },
            {
                "start_time": 67.6863636,
                "end_time": 67.7545455,
                "pitch": 84,
                "velocity": 80,
                "duration": 0.0681818,
                "tempo": 120.0
            },
            {
                "start_time": 67.7704545,
                "end_time": 67.8363636,
                "pitch": 86,
                "velocity": 80,
                "duration": 0.0659091,
                "tempo": 120.0
            },
            {
                "start_time": 67.8704545,
                "end_time": 67.9204545,
                "pitch": 83,
                "velocity": 80,
                "duration": 0.05,
                "tempo": 120.0
            },
            {
                "start_time": 67.9545455,
                "end_time": 68.0045455,
                "pitch": 84,
                "velocity": 80,
                "duration": 0.05,
                "tempo": 120.0
            },
            {
                "start_time": 68.0386364,
                "end_time": 68.1045455,
                "pitch": 86,
                "velocity": 80,
                "duration": 0.0659091,
                "tempo": 120.0
            },
            {
                "start_time": 68.1227273,
                "end_time": 68.1886364,
                "pitch": 88,
                "velocity": 80,
                "duration": 0.0659091,
                "tempo": 120.0
            },
            {
                "start_time": 68.2227273,
                "end_time": 68.2727273,
                "pitch": 84,
                "velocity": 80,
                "duration": 0.05,
                "tempo": 120.0
            },
            {
                "start_time": 68.3068182,
                "end_time": 68.3545455,
                "pitch": 74,
                "velocity": 80,
                "duration": 0.0477273,
                "tempo": 120.0
            },
            {
                "start_time": 68.3886364,
                "end_time": 68.4568182,
                "pitch": 79,
                "velocity": 80,
                "duration": 0.0681818,
                "tempo": 120.0
            },
            {
                "start_time": 68.4727273,
                "end_time": 68.5386364,
                "pitch": 83,
                "velocity": 80,
                "duration": 0.0659091,
                "tempo": 120.0
            },
            {
                "start_time": 68.5727273,
                "end_time": 68.6227273,
                "pitch": 86,
                "velocity": 80,
                "duration": 0.05,
                "tempo": 120.0
            },
            {
                "start_time": 68.6568182,
                "end_time": 68.7068182,
                "pitch": 84,
                "velocity": 80,
                "duration": 0.05,
                "tempo": 120.0
            },
            {
                "start_time": 68.7409091,
                "end_time": 68.8068182,
                "pitch": 83,
                "velocity": 80,
                "duration": 0.0659091,
                "tempo": 120.0
            },
            {
                "start_time": 68.825,
                "end_time": 68.8909091,
                "pitch": 84,
                "velocity": 80,
                "duration": 0.0659091,
                "tempo": 120.0
            },
            {
                "start_time": 68.925,
                "end_time": 68.975,
                "pitch": 74,
                "velocity": 80,
                "duration": 0.05,
                "tempo": 120.0
            },
            {
                "start_time": 69.0090909,
                "end_time": 69.0590909,
                "pitch": 83,
                "velocity": 80,
                "duration": 0.05,
                "tempo": 120.0
            },
            {
                "start_time": 69.0909091,
                "end_time": 69.1590909,
                "pitch": 84,
                "velocity": 80,
                "duration": 0.0681818,
                "tempo": 120.0
            },
            {
                "start_time": 69.175,
                "end_time": 69.2409091,
                "pitch": 86,
                "velocity": 80,
                "duration": 0.0659091,
                "tempo": 120.0
            },
            {
                "start_time": 69.275,
                "end_time": 69.325,
                "pitch": 83,
                "velocity": 80,
                "duration": 0.05,
                "tempo": 120.0
            },
            {
                "start_time": 69.3590909,
                "end_time": 69.425,
                "pitch": 84,
                "velocity": 80,
                "duration": 0.0659091,
                "tempo": 120.0
            },
            {
                "start_time": 69.4431818,
                "end_time": 69.5090909,
                "pitch": 86,
                "velocity": 80,
                "duration": 0.0659091,
                "tempo": 120.0
            },
            {
                "start_time": 69.5431818,
                "end_time": 69.5931818,
                "pitch": 83,
                "velocity": 80,
                "duration": 0.05,
                "tempo": 120.0
            },
            {
                "start_time": 69.6272727,
                "end_time": 69.6772727,
                "pitch": 79,
                "velocity": 80,
                "duration": 0.05,
                "tempo": 120.0
            },
            {
                "start_time": 69.7113636,
                "end_time": 69.7772727,
                "pitch": 74,
                "velocity": 80,
                "duration": 0.0659091,
                "tempo": 120.0
            },
            {
                "start_time": 69.7931818,
                "end_time": 69.8613636,
                "pitch": 79,
                "velocity": 80,
                "duration": 0.0681818,
                "tempo": 120.0
            },
            {
                "start_time": 69.8954545,
                "end_time": 69.9454545,
                "pitch": 83,
                "velocity": 80,
                "duration": 0.05,
                "tempo": 120.0
            },
            {
                "start_time": 69.9772727,
                "end_time": 70.0272727,
                "pitch": 86,
                "velocity": 80,
                "duration": 0.05,
                "tempo": 120.0
            },
            {
                "start_time": 70.0613636,
                "end_time": 70.1295455,
                "pitch": 84,
                "velocity": 80,
                "duration": 0.0681818,
                "tempo": 120.0
            },
            {
                "start_time": 70.1454545,
                "end_time": 70.2113636,
                "pitch": 83,
                "velocity": 80,
                "duration": 0.0659091,
                "tempo": 120.0
            },
            {
                "start_time": 70.2454545,
                "end_time": 70.2954545,
                "pitch": 84,
                "velocity": 80,
                "duration": 0.05,
                "tempo": 120.0
            },
            {
                "start_time": 70.3295455,
                "end_time": 70.3795455,
                "pitch": 74,
                "velocity": 80,
                "duration": 0.05,
                "tempo": 120.0
            },
            {
                "start_time": 70.4136364,
                "end_time": 70.4795455,
                "pitch": 83,
                "velocity": 80,
                "duration": 0.0659091,
                "tempo": 120.0
            },
            {
                "start_time": 70.4977273,
                "end_time": 70.5636364,
                "pitch": 84,
                "velocity": 80,
                "duration": 0.0659091,
                "tempo": 120.0
            },
            {
                "start_time": 70.5977273,
                "end_time": 70.6477273,
                "pitch": 86,
                "velocity": 80,
                "duration": 0.05,
                "tempo": 120.0
            },
            {
                "start_time": 70.6795455,
                "end_time": 70.7295455,
                "pitch": 83,
                "velocity": 80,
                "duration": 0.05,
                "tempo": 120.0
            },
            {
                "start_time": 70.7636364,
                "end_time": 70.8318182,
                "pitch": 84,
                "velocity": 80,
                "duration": 0.0681818,
                "tempo": 120.0
            },
            {
                "start_time": 70.8477273,
                "end_time": 70.9136364,
                "pitch": 86,
                "velocity": 80,
                "duration": 0.0659091,
                "tempo": 120.0
            },
            {
                "start_time": 70.9477273,
                "end_time": 70.9977273,
                "pitch": 83,
                "velocity": 80,
                "duration": 0.05,
                "tempo": 120.0
            },
            {
                "start_time": 71.0318182,
                "end_time": 71.0818182,
                "pitch": 79,
                "velocity": 80,
                "duration": 0.05,
                "tempo": 120.0
            },
            {
                "start_time": 71.1159091,
                "end_time": 71.1818182,
                "pitch": 74,
                "velocity": 80,
                "duration": 0.0659091,
                "tempo": 120.0
            },
            {
                "start_time": 71.2,
                "end_time": 71.2659091,
                "pitch": 79,
                "velocity": 80,
                "duration": 0.0659091,
                "tempo": 120.0
            },
            {
                "start_time": 71.3,
                "end_time": 71.35,
                "pitch": 83,
                "velocity": 80,
                "duration": 0.05,
                "tempo": 120.0
            },
            {
                "start_time": 71.3840909,
                "end_time": 71.45,
                "pitch": 86,
                "velocity": 80,
                "duration": 0.0659091,
                "tempo": 120.0
            },
            {
                "start_time": 71.4659091,
                "end_time": 71.5340909,
                "pitch": 84,
                "velocity": 80,
                "duration": 0.0681818,
                "tempo": 120.0
            },
            {
                "start_time": 71.5681818,
                "end_time": 71.6159091,
                "pitch": 83,
                "velocity": 80,
                "duration": 0.0477273,
                "tempo": 120.0
            },
            {
                "start_time": 71.65,
                "end_time": 71.7,
                "pitch": 84,
                "velocity": 80,
                "duration": 0.05,
                "tempo": 120.0
            },
            {
                "start_time": 71.7340909,
                "end_time": 71.8,
                "pitch": 74,
                "velocity": 80,
                "duration": 0.0659091,
                "tempo": 120.0
            },
            {
                "start_time": 71.8181818,
                "end_time": 71.8840909,
                "pitch": 83,
                "velocity": 80,
                "duration": 0.0659091,
                "tempo": 120.0
            },
            {
                "start_time": 71.9181818,
                "end_time": 71.9681818,
                "pitch": 84,
                "velocity": 80,
                "duration": 0.05,
                "tempo": 120.0
            },
            {
                "start_time": 72.0022727,
                "end_time": 72.0522727,
                "pitch": 86,
                "velocity": 80,
                "duration": 0.05,
                "tempo": 120.0
            },
            {
                "start_time": 72.0863636,
                "end_time": 72.1522727,
                "pitch": 83,
                "velocity": 80,
                "duration": 0.0659091,
                "tempo": 120.0
            },
            {
                "start_time": 72.1681818,
                "end_time": 72.2363636,
                "pitch": 84,
                "velocity": 80,
                "duration": 0.0681818,
                "tempo": 120.0
            },
            {
                "start_time": 72.2704545,
                "end_time": 72.3204545,
                "pitch": 86,
                "velocity": 80,
                "duration": 0.05,
                "tempo": 120.0
            },
            {
                "start_time": 72.3522727,
                "end_time": 72.4022727,
                "pitch": 83,
                "velocity": 80,
                "duration": 0.05,
                "tempo": 120.0
            },
            {
                "start_time": 72.4363636,
                "end_time": 72.5022727,
                "pitch": 79,
                "velocity": 80,
                "duration": 0.0659091,
                "tempo": 120.0
            },
            {
                "start_time": 72.5204545,
                "end_time": 72.5863636,
                "pitch": 74,
                "velocity": 80,
                "duration": 0.0659091,
                "tempo": 120.0
            },
            {
                "start_time": 72.6204545,
                "end_time": 72.6704545,
                "pitch": 79,
                "velocity": 80,
                "duration": 0.05,
                "tempo": 120.0
            },
            {
                "start_time": 72.7045455,
                "end_time": 72.7545455,
                "pitch": 83,
                "velocity": 80,
                "duration": 0.05,
                "tempo": 120.0
            },
            {
                "start_time": 72.7886364,
                "end_time": 72.8545455,
                "pitch": 86,
                "velocity": 80,
                "duration": 0.0659091,
                "tempo": 120.0
            },
            {
                "start_time": 72.8704545,
                "end_time": 72.9386364,
                "pitch": 84,
                "velocity": 80,
                "duration": 0.0681818,
                "tempo": 120.0
            },
            {
                "start_time": 72.9727273,
                "end_time": 73.0227273,
                "pitch": 83,
                "velocity": 80,
                "duration": 0.05,
                "tempo": 120.0
            },
            {
                "start_time": 73.0545455,
                "end_time": 73.1045455,
                "pitch": 84,
                "velocity": 80,
                "duration": 0.05,
                "tempo": 120.0
            },
            {
                "start_time": 73.1386364,
                "end_time": 73.2068182,
                "pitch": 74,
                "velocity": 80,
                "duration": 0.0681818,
                "tempo": 120.0
            },
            {
                "start_time": 73.2227273,
                "end_time": 73.2909091,
                "pitch": 83,
                "velocity": 80,
                "duration": 0.0681818,
                "tempo": 120.0
            },
            {
                "start_time": 73.325,
                "end_time": 73.3772727,
                "pitch": 84,
                "velocity": 80,
                "duration": 0.0522727,
                "tempo": 120.0
            },
            {
                "start_time": 73.4113636,
                "end_time": 73.4636364,
                "pitch": 86,
                "velocity": 80,
                "duration": 0.0522727,
                "tempo": 120.0
            },
            {
                "start_time": 73.4977273,
                "end_time": 73.5659091,
                "pitch": 83,
                "velocity": 80,
                "duration": 0.0681818,
                "tempo": 120.0
            },
            {
                "start_time": 73.6022727,
                "end_time": 73.6522727,
                "pitch": 84,
                "velocity": 80,
                "duration": 0.05,
                "tempo": 120.0
            },
            {
                "start_time": 73.6863636,
                "end_time": 73.7386364,
                "pitch": 86,
                "velocity": 80,
                "duration": 0.0522727,
                "tempo": 120.0
            },
            {
                "start_time": 73.7727273,
                "end_time": 73.8431818,
                "pitch": 83,
                "velocity": 80,
                "duration": 0.0704545,
                "tempo": 120.0
            },
            {
                "start_time": 73.8590909,
                "end_time": 73.9295455,
                "pitch": 79,
                "velocity": 80,
                "duration": 0.0704545,
                "tempo": 120.0
            },
            {
                "start_time": 73.9636364,
                "end_time": 74.0136364,
                "pitch": 76,
                "velocity": 80,
                "duration": 0.05,
                "tempo": 120.0
            },
            {
                "start_time": 74.0477273,
                "end_time": 74.0977273,
                "pitch": 81,
                "velocity": 80,
                "duration": 0.05,
                "tempo": 120.0
            },
            {
                "start_time": 74.1295455,
                "end_time": 74.1977273,
                "pitch": 83,
                "velocity": 80,
                "duration": 0.0681818,
                "tempo": 120.0
            },
            {
                "start_time": 74.2136364,
                "end_time": 74.2818182,
                "pitch": 86,
                "velocity": 80,
                "duration": 0.0681818,
                "tempo": 120.0
            },
            {
                "start_time": 74.3136364,
                "end_time": 74.3636364,
                "pitch": 84,
                "velocity": 80,
                "duration": 0.05,
                "tempo": 120.0
            },
            {
                "start_time": 74.3977273,
                "end_time": 74.4477273,
                "pitch": 83,
                "velocity": 80,
                "duration": 0.05,
                "tempo": 120.0
            },
            {
                "start_time": 74.4818182,
                "end_time": 74.5477273,
                "pitch": 84,
                "velocity": 80,
                "duration": 0.0659091,
                "tempo": 120.0
            },
            {
                "start_time": 74.5659091,
                "end_time": 74.6318182,
                "pitch": 81,
                "velocity": 80,
                "duration": 0.0659091,
                "tempo": 120.0
            },
            {
                "start_time": 74.6659091,
                "end_time": 74.7159091,
                "pitch": 83,
                "velocity": 80,
                "duration": 0.05,
                "tempo": 120.0
            },
            {
                "start_time": 74.75,
                "end_time": 74.8,
                "pitch": 84,
                "velocity": 80,
                "duration": 0.05,
                "tempo": 120.0
            },
            {
                "start_time": 74.8340909,
                "end_time": 74.9,
                "pitch": 86,
                "velocity": 80,
                "duration": 0.0659091,
                "tempo": 120.0
            },
            {
                "start_time": 74.9159091,
                "end_time": 74.9840909,
                "pitch": 83,
                "velocity": 80,
                "duration": 0.0681818,
                "tempo": 120.0
            },
            {
                "start_time": 75.0159091,
                "end_time": 75.0659091,
                "pitch": 84,
                "velocity": 80,
                "duration": 0.05,
                "tempo": 120.0
            },
            {
                "start_time": 75.1,
                "end_time": 75.15,
                "pitch": 86,
                "velocity": 80,
                "duration": 0.05,
                "tempo": 120.0
            },
            {
                "start_time": 75.1840909,
                "end_time": 75.25,
                "pitch": 88,
                "velocity": 80,
                "duration": 0.0659091,
                "tempo": 120.0
            },
            {
                "start_time": 75.2681818,
                "end_time": 75.3340909,
                "pitch": 84,
                "velocity": 80,
                "duration": 0.0659091,
                "tempo": 120.0
            },
            {
                "start_time": 75.3681818,
                "end_time": 75.4181818,
                "pitch": 76,
                "velocity": 80,
                "duration": 0.05,
                "tempo": 120.0
            },
            {
                "start_time": 75.4522727,
                "end_time": 75.5022727,
                "pitch": 81,
                "velocity": 80,
                "duration": 0.05,
                "tempo": 120.0
            },
            {
                "start_time": 75.5363636,
                "end_time": 75.6022727,
                "pitch": 83,
                "velocity": 80,
                "duration": 0.0659091,
                "tempo": 120.0
            },
            {
                "start_time": 75.6181818,
                "end_time": 75.6863636,
                "pitch": 86,
                "velocity": 80,
                "duration": 0.0681818,
                "tempo": 120.0
            },
            {
                "start_time": 75.7204545,
                "end_time": 75.7704545,
                "pitch": 84,
                "velocity": 80,
                "duration": 0.05,
                "tempo": 120.0
            },
            {
                "start_time": 75.8022727,
                "end_time": 75.8704545,
                "pitch": 83,
                "velocity": 80,
                "duration": 0.0681818,
                "tempo": 120.0
            },
            {
                "start_time": 75.8863636,
                "end_time": 75.9522727,
                "pitch": 84,
                "velocity": 80,
                "duration": 0.0659091,
                "tempo": 120.0
            },
            {
                "start_time": 75.9863636,
                "end_time": 76.0363636,
                "pitch": 81,
                "velocity": 80,
                "duration": 0.05,
                "tempo": 120.0
            },
            {
                "start_time": 76.0704545,
                "end_time": 76.1204545,
                "pitch": 83,
                "velocity": 80,
                "duration": 0.05,
                "tempo": 120.0
            },
            {
                "start_time": 76.1545455,
                "end_time": 76.2204545,
                "pitch": 84,
                "velocity": 80,
                "duration": 0.0659091,
                "tempo": 120.0
            },
            {
                "start_time": 76.2386364,
                "end_time": 76.3045455,
                "pitch": 86,
                "velocity": 80,
                "duration": 0.0659091,
                "tempo": 120.0
            },
            {
                "start_time": 76.3386364,
                "end_time": 76.3886364,
                "pitch": 83,
                "velocity": 80,
                "duration": 0.05,
                "tempo": 120.0
            },
            {
                "start_time": 76.4227273,
                "end_time": 76.4727273,
                "pitch": 84,
                "velocity": 80,
                "duration": 0.05,
                "tempo": 120.0
            },
            {
                "start_time": 76.5045455,
                "end_time": 76.5727273,
                "pitch": 86,
                "velocity": 80,
                "duration": 0.0681818,
                "tempo": 120.0
            },
            {
                "start_time": 76.5886364,
                "end_time": 76.6568182,
                "pitch": 88,
                "velocity": 80,
                "duration": 0.0681818,
                "tempo": 120.0
            },
            {
                "start_time": 76.6886364,
                "end_time": 76.7386364,
                "pitch": 84,
                "velocity": 80,
                "duration": 0.05,
                "tempo": 120.0
            },
            {
                "start_time": 76.7727273,
                "end_time": 76.825,
                "pitch": 76,
                "velocity": 80,
                "duration": 0.0522727,
                "tempo": 120.0
            },
            {
                "start_time": 76.8590909,
                "end_time": 76.9272727,
                "pitch": 81,
                "velocity": 80,
                "duration": 0.0681818,
                "tempo": 120.0
            },
            {
                "start_time": 76.9454545,
                "end_time": 77.0136364,
                "pitch": 83,
                "velocity": 80,
                "duration": 0.0681818,
                "tempo": 120.0
            },
            {
                "start_time": 77.0477273,
                "end_time": 77.1,
                "pitch": 86,
                "velocity": 80,
                "duration": 0.0522727,
                "tempo": 120.0
            },
            {
                "start_time": 77.1340909,
                "end_time": 77.1840909,
                "pitch": 84,
                "velocity": 80,
                "duration": 0.05,
                "tempo": 120.0
            },
            {
                "start_time": 77.2159091,
                "end_time": 77.2795455,
                "pitch": 83,
                "velocity": 80,
                "duration": 0.0636364,
                "tempo": 120.0
            },
            {
                "start_time": 77.2977273,
                "end_time": 77.3613636,
                "pitch": 84,
                "velocity": 80,
                "duration": 0.0636364,
                "tempo": 120.0
            },
            {
                "start_time": 77.3954545,
                "end_time": 77.4431818,
                "pitch": 81,
                "velocity": 80,
                "duration": 0.0477273,
                "tempo": 120.0
            },
            {
                "start_time": 77.475,
                "end_time": 77.5272727,
                "pitch": 83,
                "velocity": 80,
                "duration": 0.0522727,
                "tempo": 120.0
            },
            {
                "start_time": 77.5613636,
                "end_time": 77.6295455,
                "pitch": 84,
                "velocity": 80,
                "duration": 0.0681818,
                "tempo": 120.0
            },
            {
                "start_time": 77.6477273,
                "end_time": 77.7159091,
                "pitch": 86,
                "velocity": 80,
                "duration": 0.0681818,
                "tempo": 120.0
            },
            {
                "start_time": 77.75,
                "end_time": 77.8022727,
                "pitch": 83,
                "velocity": 80,
                "duration": 0.0522727,
                "tempo": 120.0
            },
            {
                "start_time": 77.8363636,
                "end_time": 77.9045455,
                "pitch": 84,
                "velocity": 80,
                "duration": 0.0681818,
                "tempo": 120.0
            },
            {
                "start_time": 77.9204545,
                "end_time": 77.9886364,
                "pitch": 86,
                "velocity": 80,
                "duration": 0.0681818,
                "tempo": 120.0
            },
            {
                "start_time": 78.0204545,
                "end_time": 78.0704545,
                "pitch": 88,
                "velocity": 80,
                "duration": 0.05,
                "tempo": 120.0
            },
            {
                "start_time": 78.1045455,
                "end_time": 78.1545455,
                "pitch": 84,
                "velocity": 80,
                "duration": 0.05,
                "tempo": 120.0
            },
            {
                "start_time": 78.1886364,
                "end_time": 78.2545455,
                "pitch": 76,
                "velocity": 80,
                "duration": 0.0659091,
                "tempo": 120.0
            },
            {
                "start_time": 78.2727273,
                "end_time": 78.3386364,
                "pitch": 81,
                "velocity": 80,
                "duration": 0.0659091,
                "tempo": 120.0
            },
            {
                "start_time": 78.3727273,
                "end_time": 78.4227273,
                "pitch": 83,
                "velocity": 80,
                "duration": 0.05,
                "tempo": 120.0
            },
            {
                "start_time": 78.4568182,
                "end_time": 78.5068182,
                "pitch": 86,
                "velocity": 80,
                "duration": 0.05,
                "tempo": 120.0
            },
            {
                "start_time": 78.5386364,
                "end_time": 78.6068182,
                "pitch": 84,
                "velocity": 80,
                "duration": 0.0681818,
                "tempo": 120.0
            },
            {
                "start_time": 78.6227273,
                "end_time": 78.6909091,
                "pitch": 83,
                "velocity": 80,
                "duration": 0.0681818,
                "tempo": 120.0
            },
            {
                "start_time": 78.7227273,
                "end_time": 78.7727273,
                "pitch": 84,
                "velocity": 80,
                "duration": 0.05,
                "tempo": 120.0
            },
            {
                "start_time": 78.8068182,
                "end_time": 78.8568182,
                "pitch": 81,
                "velocity": 80,
                "duration": 0.05,
                "tempo": 120.0
            },
            {
                "start_time": 78.8909091,
                "end_time": 78.9568182,
                "pitch": 83,
                "velocity": 80,
                "duration": 0.0659091,
                "tempo": 120.0
            },
            {
                "start_time": 78.975,
                "end_time": 79.0409091,
                "pitch": 84,
                "velocity": 80,
                "duration": 0.0659091,
                "tempo": 120.0
            },
            {
                "start_time": 79.075,
                "end_time": 79.125,
                "pitch": 86,
                "velocity": 80,
                "duration": 0.05,
                "tempo": 120.0
            },
            {
                "start_time": 79.1590909,
                "end_time": 79.2090909,
                "pitch": 83,
                "velocity": 80,
                "duration": 0.05,
                "tempo": 120.0
            },
            {
                "start_time": 79.2431818,
                "end_time": 79.3090909,
                "pitch": 84,
                "velocity": 80,
                "duration": 0.0659091,
                "tempo": 120.0
            },
            {
                "start_time": 79.325,
                "end_time": 79.3931818,
                "pitch": 86,
                "velocity": 80,
                "duration": 0.0681818,
                "tempo": 120.0
            },
            {
                "start_time": 79.425,
                "end_time": 79.475,
                "pitch": 88,
                "velocity": 80,
                "duration": 0.05,
                "tempo": 120.0
            },
            {
                "start_time": 79.5090909,
                "end_time": 79.5590909,
                "pitch": 84,
                "velocity": 80,
                "duration": 0.05,
                "tempo": 120.0
            },
            {
                "start_time": 79.5954545,
                "end_time": 79.6590909,
                "pitch": 76,
                "velocity": 80,
                "duration": 0.0636364,
                "tempo": 120.0
            },
            {
                "start_time": 79.6772727,
                "end_time": 79.6795455,
                "pitch": 81,
                "velocity": 80,
                "duration": 0.0022727,
                "tempo": 120.0
            }
        ],
        "Violin": [
            {
                "start_time": 0.0045455,
                "end_time": 0.4227273,
                "pitch": 60,
                "velocity": 101,
                "duration": 0.4181818,
                "tempo": 120.0
            },
            {
                "start_time": 0.4227273,
                "end_time": 0.975,
                "pitch": 62,
                "velocity": 101,
                "duration": 0.5522727,
                "tempo": 120.0
            },
            {
                "start_time": 0.975,
                "end_time": 1.0295455,
                "pitch": 64,
                "velocity": 101,
                "duration": 0.0545455,
                "tempo": 120.0
            },
            {
                "start_time": 1.0659091,
                "end_time": 1.5113636,
                "pitch": 60,
                "velocity": 101,
                "duration": 0.4454545,
                "tempo": 120.0
            },
            {
                "start_time": 1.5113636,
                "end_time": 2.0795455,
                "pitch": 62,
                "velocity": 101,
                "duration": 0.5681818,
                "tempo": 120.0
            },
            {
                "start_time": 2.0795455,
                "end_time": 2.0954545,
                "pitch": 64,
                "velocity": 101,
                "duration": 0.0159091,
                "tempo": 120.0
            },
            {
                "start_time": 2.1318182,
                "end_time": 2.5659091,
                "pitch": 60,
                "velocity": 101,
                "duration": 0.4340909,
                "tempo": 120.0
            },
            {
                "start_time": 2.5659091,
                "end_time": 3.1136364,
                "pitch": 62,
                "velocity": 101,
                "duration": 0.5477273,
                "tempo": 120.0
            },
            {
                "start_time": 3.1136364,
                "end_time": 3.1318182,
                "pitch": 64,
                "velocity": 101,
                "duration": 0.0181818,
                "tempo": 120.0
            },
            {
                "start_time": 3.1659091,
                "end_time": 3.6068182,
                "pitch": 60,
                "velocity": 101,
                "duration": 0.4409091,
                "tempo": 120.0
            },
            {
                "start_time": 3.6068182,
                "end_time": 4.1454545,
                "pitch": 62,
                "velocity": 101,
                "duration": 0.5386364,
                "tempo": 120.0
            },
            {
                "start_time": 4.1795455,
                "end_time": 4.6136364,
                "pitch": 60,
                "velocity": 101,
                "duration": 0.4340909,
                "tempo": 120.0
            },
            {
                "start_time": 4.6136364,
                "end_time": 5.1477273,
                "pitch": 62,
                "velocity": 101,
                "duration": 0.5340909,
                "tempo": 120.0
            },
            {
                "start_time": 5.1840909,
                "end_time": 5.6090909,
                "pitch": 60,
                "velocity": 101,
                "duration": 0.425,
                "tempo": 120.0
            },
            {
                "start_time": 5.6090909,
                "end_time": 6.1204545,
                "pitch": 62,
                "velocity": 101,
                "duration": 0.5113636,
                "tempo": 120.0
            }
        ],
        "Church Organ": [
            {
                "start_time": 51.3522727,
                "end_time": 51.4,
                "pitch": 64,
                "velocity": 80,
                "duration": 0.0477273,
                "tempo": 120.0
            },
            {
                "start_time": 51.4340909,
                "end_time": 51.5,
                "pitch": 60,
                "velocity": 80,
                "duration": 0.0659091,
                "tempo": 120.0
            },
            {
                "start_time": 51.5181818,
                "end_time": 51.5840909,
                "pitch": 64,
                "velocity": 80,
                "duration": 0.0659091,
                "tempo": 120.0
            },
            {
                "start_time": 51.6181818,
                "end_time": 51.6681818,
                "pitch": 60,
                "velocity": 80,
                "duration": 0.05,
                "tempo": 120.0
            },
            {
                "start_time": 51.7022727,
                "end_time": 51.75,
                "pitch": 64,
                "velocity": 80,
                "duration": 0.0477273,
                "tempo": 120.0
            },
            {
                "start_time": 51.8681818,
                "end_time": 51.9340909,
                "pitch": 64,
                "velocity": 80,
                "duration": 0.0659091,
                "tempo": 120.0
            },
            {
                "start_time": 51.9681818,
                "end_time": 52.0181818,
                "pitch": 60,
                "velocity": 80,
                "duration": 0.05,
                "tempo": 120.0
            },
            {
                "start_time": 52.0522727,
                "end_time": 52.1181818,
                "pitch": 64,
                "velocity": 80,
                "duration": 0.0659091,
                "tempo": 120.0
            },
            {
                "start_time": 52.1363636,
                "end_time": 52.2022727,
                "pitch": 60,
                "velocity": 80,
                "duration": 0.0659091,
                "tempo": 120.0
            },
            {
                "start_time": 52.2363636,
                "end_time": 52.2863636,
                "pitch": 64,
                "velocity": 80,
                "duration": 0.05,
                "tempo": 120.0
            },
            {
                "start_time": 52.4045455,
                "end_time": 52.4704545,
                "pitch": 64,
                "velocity": 80,
                "duration": 0.0659091,
                "tempo": 120.0
            },
            {
                "start_time": 52.4886364,
                "end_time": 52.5545455,
                "pitch": 63,
                "velocity": 80,
                "duration": 0.0659091,
                "tempo": 120.0
            },
            {
                "start_time": 52.5886364,
                "end_time": 52.6363636,
                "pitch": 62,
                "velocity": 80,
                "duration": 0.0477273,
                "tempo": 120.0
            },
            {
                "start_time": 52.6704545,
                "end_time": 52.7204545,
                "pitch": 61,
                "velocity": 80,
                "duration": 0.05,
                "tempo": 120.0
            },
            {
                "start_time": 52.7568182,
                "end_time": 52.8227273,
                "pitch": 64,
                "velocity": 80,
                "duration": 0.0659091,
                "tempo": 120.0
            },
            {
                "start_time": 52.8409091,
                "end_time": 52.9090909,
                "pitch": 60,
                "velocity": 80,
                "duration": 0.0681818,
                "tempo": 120.0
            },
            {
                "start_time": 52.9454545,
                "end_time": 52.9954545,
                "pitch": 64,
                "velocity": 80,
                "duration": 0.05,
                "tempo": 120.0
            },
            {
                "start_time": 53.0295455,
                "end_time": 53.0818182,
                "pitch": 60,
                "velocity": 80,
                "duration": 0.0522727,
                "tempo": 120.0
            },
            {
                "start_time": 53.1159091,
                "end_time": 53.1840909,
                "pitch": 64,
                "velocity": 80,
                "duration": 0.0681818,
                "tempo": 120.0
            },
            {
                "start_time": 53.3022727,
                "end_time": 53.35,
                "pitch": 64,
                "velocity": 80,
                "duration": 0.0477273,
                "tempo": 120.0
            },
            {
                "start_time": 53.3840909,
                "end_time": 53.4340909,
                "pitch": 60,
                "velocity": 80,
                "duration": 0.05,
                "tempo": 120.0
            },
            {
                "start_time": 53.4681818,
                "end_time": 53.5340909,
                "pitch": 64,
                "velocity": 80,
                "duration": 0.0659091,
                "tempo": 120.0
            },
            {
                "start_time": 53.5522727,
                "end_time": 53.6181818,
                "pitch": 60,
                "velocity": 80,
                "duration": 0.0659091,
                "tempo": 120.0
            },
            {
                "start_time": 53.6522727,
                "end_time": 53.7022727,
                "pitch": 64,
                "velocity": 80,
                "duration": 0.05,
                "tempo": 120.0
            },
            {
                "start_time": 53.8204545,
                "end_time": 53.8863636,
                "pitch": 64,
                "velocity": 80,
                "duration": 0.0659091,
                "tempo": 120.0
            },
            {
                "start_time": 53.9022727,
                "end_time": 53.9704545,
                "pitch": 63,
                "velocity": 80,
                "duration": 0.0681818,
                "tempo": 120.0
            },
            {
                "start_time": 54.0045455,
                "end_time": 54.0522727,
                "pitch": 62,
                "velocity": 80,
                "duration": 0.0477273,
                "tempo": 120.0
            },
            {
                "start_time": 54.0863636,
                "end_time": 54.1363636,
                "pitch": 61,
                "velocity": 80,
                "duration": 0.05,
                "tempo": 120.0
            },
            {
                "start_time": 54.1727273,
                "end_time": 54.2363636,
                "pitch": 62,
                "velocity": 80,
                "duration": 0.0636364,
                "tempo": 120.0
            },
            {
                "start_time": 54.2704545,
                "end_time": 54.3204545,
                "pitch": 59,
                "velocity": 80,
                "duration": 0.05,
                "tempo": 120.0
            },
            {
                "start_time": 54.3545455,
                "end_time": 54.4045455,
                "pitch": 62,
                "velocity": 80,
                "duration": 0.05,
                "tempo": 120.0
            },
            {
                "start_time": 54.4386364,
                "end_time": 54.5045455,
                "pitch": 59,
                "velocity": 80,
                "duration": 0.0659091,
                "tempo": 120.0
            },
            {
                "start_time": 54.5227273,
                "end_time": 54.5886364,
                "pitch": 62,
                "velocity": 80,
                "duration": 0.0659091,
                "tempo": 120.0
            },
            {
                "start_time": 54.7068182,
                "end_time": 54.7545455,
                "pitch": 62,
                "velocity": 80,
                "duration": 0.0477273,
                "tempo": 120.0
            },
            {
                "start_time": 54.7886364,
                "end_time": 54.8568182,
                "pitch": 59,
                "velocity": 80,
                "duration": 0.0681818,
                "tempo": 120.0
            },
            {
                "start_time": 54.8727273,
                "end_time": 54.9386364,
                "pitch": 62,
                "velocity": 80,
                "duration": 0.0659091,
                "tempo": 120.0
            },
            {
                "start_time": 54.9727273,
                "end_time": 55.0227273,
                "pitch": 59,
                "velocity": 80,
                "duration": 0.05,
                "tempo": 120.0
            },
            {
                "start_time": 55.0568182,
                "end_time": 55.1068182,
                "pitch": 62,
                "velocity": 80,
                "duration": 0.05,
                "tempo": 120.0
            },
            {
                "start_time": 55.225,
                "end_time": 55.2909091,
                "pitch": 62,
                "velocity": 80,
                "duration": 0.0659091,
                "tempo": 120.0
            },
            {
                "start_time": 55.325,
                "end_time": 55.375,
                "pitch": 61,
                "velocity": 80,
                "duration": 0.05,
                "tempo": 120.0
            },
            {
                "start_time": 55.4090909,
                "end_time": 55.4568182,
                "pitch": 60,
                "velocity": 80,
                "duration": 0.0477273,
                "tempo": 120.0
            },
            {
                "start_time": 55.4909091,
                "end_time": 55.5590909,
                "pitch": 59,
                "velocity": 80,
                "duration": 0.0681818,
                "tempo": 120.0
            },
            {
                "start_time": 55.5772727,
                "end_time": 55.6409091,
                "pitch": 62,
                "velocity": 80,
                "duration": 0.0636364,
                "tempo": 120.0
            },
            {
                "start_time": 55.675,
                "end_time": 55.725,
                "pitch": 59,
                "velocity": 80,
                "duration": 0.05,
                "tempo": 120.0
            },
            {
                "start_time": 55.7590909,
                "end_time": 55.8090909,
                "pitch": 62,
                "velocity": 80,
                "duration": 0.05,
                "tempo": 120.0
            },
            {
                "start_time": 55.8431818,
                "end_time": 55.9090909,
                "pitch": 59,
                "velocity": 80,
                "duration": 0.0659091,
                "tempo": 120.0
            },
            {
                "start_time": 55.9272727,
                "end_time": 55.9931818,
                "pitch": 62,
                "velocity": 80,
                "duration": 0.0659091,
                "tempo": 120.0
            },
            {
                "start_time": 56.1113636,
                "end_time": 56.1590909,
                "pitch": 62,
                "velocity": 80,
                "duration": 0.0477273,
                "tempo": 120.0
            },
            {
                "start_time": 56.1954545,
                "end_time": 56.2613636,
                "pitch": 59,
                "velocity": 80,
                "duration": 0.0659091,
                "tempo": 120.0
            },
            {
                "start_time": 56.2772727,
                "end_time": 56.3431818,
                "pitch": 62,
                "velocity": 80,
                "duration": 0.0659091,
                "tempo": 120.0
            },
            {
                "start_time": 56.3795455,
                "end_time": 56.4272727,
                "pitch": 59,
                "velocity": 80,
                "duration": 0.0477273,
                "tempo": 120.0
            },
            {
                "start_time": 56.4613636,
                "end_time": 56.5272727,
                "pitch": 62,
                "velocity": 80,
                "duration": 0.0659091,
                "tempo": 120.0
            },
            {
                "start_time": 56.6454545,
                "end_time": 56.6977273,
                "pitch": 62,
                "velocity": 80,
                "duration": 0.0522727,
                "tempo": 120.0
            },
            {
                "start_time": 56.7318182,
                "end_time": 56.7840909,
                "pitch": 61,
                "velocity": 80,
                "duration": 0.0522727,
                "tempo": 120.0
            },
            {
                "start_time": 56.8181818,
                "end_time": 56.8863636,
                "pitch": 60,
                "velocity": 80,
                "duration": 0.0681818,
                "tempo": 120.0
            },
            {
                "start_time": 56.9045455,
                "end_time": 56.9727273,
                "pitch": 59,
                "velocity": 80,
                "duration": 0.0681818,
                "tempo": 120.0
            },
            {
                "start_time": 57.0090909,
                "end_time": 57.0590909,
                "pitch": 60,
                "velocity": 80,
                "duration": 0.05,
                "tempo": 120.0
            },
            {
                "start_time": 57.0931818,
                "end_time": 57.1454545,
                "pitch": 57,
                "velocity": 80,
                "duration": 0.0522727,
                "tempo": 120.0
            },
            {
                "start_time": 57.1795455,
                "end_time": 57.2477273,
                "pitch": 60,
                "velocity": 80,
                "duration": 0.0681818,
                "tempo": 120.0
            },
            {
                "start_time": 57.2659091,
                "end_time": 57.3340909,
                "pitch": 57,
                "velocity": 80,
                "duration": 0.0681818,
                "tempo": 120.0
            },
            {
                "start_time": 57.3704545,
                "end_time": 57.4181818,
                "pitch": 60,
                "velocity": 80,
                "duration": 0.0477273,
                "tempo": 120.0
            },
            {
                "start_time": 57.5363636,
                "end_time": 57.6022727,
                "pitch": 60,
                "velocity": 80,
                "duration": 0.0659091,
                "tempo": 120.0
            },
            {
                "start_time": 57.6204545,
                "end_time": 57.6863636,
                "pitch": 57,
                "velocity": 80,
                "duration": 0.0659091,
                "tempo": 120.0
            },
            {
                "start_time": 57.7204545,
                "end_time": 57.7704545,
                "pitch": 60,
                "velocity": 80,
                "duration": 0.05,
                "tempo": 120.0
            },
            {
                "start_time": 57.8045455,
                "end_time": 57.8545455,
                "pitch": 57,
                "velocity": 80,
                "duration": 0.05,
                "tempo": 120.0
            },
            {
                "start_time": 57.8886364,
                "end_time": 57.9545455,
                "pitch": 60,
                "velocity": 80,
                "duration": 0.0659091,
                "tempo": 120.0
            },
            {
                "start_time": 58.0727273,
                "end_time": 58.1227273,
                "pitch": 60,
                "velocity": 80,
                "duration": 0.05,
                "tempo": 120.0
            },
            {
                "start_time": 58.1568182,
                "end_time": 58.2045455,
                "pitch": 62,
                "velocity": 80,
                "duration": 0.0477273,
                "tempo": 120.0
            },
            {
                "start_time": 58.2409091,
                "end_time": 58.3045455,
                "pitch": 65,
                "velocity": 80,
                "duration": 0.0636364,
                "tempo": 120.0
            },
            {
                "start_time": 58.3227273,
                "end_time": 58.3886364,
                "pitch": 60,
                "velocity": 80,
                "duration": 0.0659091,
                "tempo": 120.0
            },
            {
                "start_time": 58.425,
                "end_time": 58.4727273,
                "pitch": 60,
                "velocity": 80,
                "duration": 0.0477273,
                "tempo": 120.0
            },
            {
                "start_time": 58.5068182,
                "end_time": 58.5727273,
                "pitch": 57,
                "velocity": 80,
                "duration": 0.0659091,
                "tempo": 120.0
            },
            {
                "start_time": 58.5909091,
                "end_time": 58.6568182,
                "pitch": 60,
                "velocity": 80,
                "duration": 0.0659091,
                "tempo": 120.0
            },
            {
                "start_time": 58.6909091,
                "end_time": 58.7409091,
                "pitch": 57,
                "velocity": 80,
                "duration": 0.05,
                "tempo": 120.0
            },
            {
                "start_time": 58.775,
                "end_time": 58.825,
                "pitch": 60,
                "velocity": 80,
                "duration": 0.05,
                "tempo": 120.0
            },
            {
                "start_time": 58.9431818,
                "end_time": 59.0090909,
                "pitch": 60,
                "velocity": 80,
                "duration": 0.0659091,
                "tempo": 120.0
            },
            {
                "start_time": 59.0431818,
                "end_time": 59.0909091,
                "pitch": 57,
                "velocity": 80,
                "duration": 0.0477273,
                "tempo": 120.0
            },
            {
                "start_time": 59.1272727,
                "end_time": 59.175,
                "pitch": 60,
                "velocity": 80,
                "duration": 0.0477273,
                "tempo": 120.0
            },
            {
                "start_time": 59.2090909,
                "end_time": 59.275,
                "pitch": 57,
                "velocity": 80,
                "duration": 0.0659091,
                "tempo": 120.0
            },
            {
                "start_time": 59.2931818,
                "end_time": 59.3590909,
                "pitch": 60,
                "velocity": 80,
                "duration": 0.0659091,
                "tempo": 120.0
            },
            {
                "start_time": 59.4772727,
                "end_time": 59.5272727,
                "pitch": 60,
                "velocity": 80,
                "duration": 0.05,
                "tempo": 120.0
            },
            {
                "start_time": 59.5613636,
                "end_time": 59.6272727,
                "pitch": 62,
                "velocity": 80,
                "duration": 0.0659091,
                "tempo": 120.0
            },
            {
                "start_time": 59.6454545,
                "end_time": 59.7113636,
                "pitch": 65,
                "velocity": 80,
                "duration": 0.0659091,
                "tempo": 120.0
            },
            {
                "start_time": 59.7454545,
                "end_time": 59.7931818,
                "pitch": 60,
                "velocity": 80,
                "duration": 0.0477273,
                "tempo": 120.0
            },
            {
                "start_time": 59.8295455,
                "end_time": 59.8772727,
                "pitch": 62,
                "velocity": 80,
                "duration": 0.0477273,
                "tempo": 120.0
            },
            {
                "start_time": 59.9113636,
                "end_time": 59.9772727,
                "pitch": 59,
                "velocity": 80,
                "duration": 0.0659091,
                "tempo": 120.0
            },
            {
                "start_time": 59.9954545,
                "end_time": 60.0613636,
                "pitch": 62,
                "velocity": 80,
                "duration": 0.0659091,
                "tempo": 120.0
            },
            {
                "start_time": 60.0954545,
                "end_time": 60.1454545,
                "pitch": 59,
                "velocity": 80,
                "duration": 0.05,
                "tempo": 120.0
            },
            {
                "start_time": 60.1795455,
                "end_time": 60.2295455,
                "pitch": 62,
                "velocity": 80,
                "duration": 0.05,
                "tempo": 120.0
            },
            {
                "start_time": 60.3477273,
                "end_time": 60.4136364,
                "pitch": 62,
                "velocity": 80,
                "duration": 0.0659091,
                "tempo": 120.0
            },
            {
                "start_time": 60.4477273,
                "end_time": 60.4977273,
                "pitch": 59,
                "velocity": 80,
                "duration": 0.05,
                "tempo": 120.0
            },
            {
                "start_time": 60.5318182,
                "end_time": 60.5795455,
                "pitch": 62,
                "velocity": 80,
                "duration": 0.0477273,
                "tempo": 120.0
            },
            {
                "start_time": 60.6136364,
                "end_time": 60.6818182,
                "pitch": 59,
                "velocity": 80,
                "duration": 0.0681818,
                "tempo": 120.0
            },
            {
                "start_time": 60.7159091,
                "end_time": 60.7636364,
                "pitch": 62,
                "velocity": 80,
                "duration": 0.0477273,
                "tempo": 120.0
            },
            {
                "start_time": 60.8818182,
                "end_time": 60.9477273,
                "pitch": 62,
                "velocity": 80,
                "duration": 0.0659091,
                "tempo": 120.0
            },
            {
                "start_time": 60.9659091,
                "end_time": 61.0318182,
                "pitch": 65,
                "velocity": 80,
                "duration": 0.0659091,
                "tempo": 120.0
            },
            {
                "start_time": 61.0659091,
                "end_time": 61.1159091,
                "pitch": 67,
                "velocity": 80,
                "duration": 0.05,
                "tempo": 120.0
            },
            {
                "start_time": 61.15,
                "end_time": 61.2,
                "pitch": 62,
                "velocity": 80,
                "duration": 0.05,
                "tempo": 120.0
            },
            {
                "start_time": 61.2340909,
                "end_time": 61.3,
                "pitch": 62,
                "velocity": 80,
                "duration": 0.0659091,
                "tempo": 120.0
            },
            {
                "start_time": 61.3159091,
                "end_time": 61.3840909,
                "pitch": 59,
                "velocity": 80,
                "duration": 0.0681818,
                "tempo": 120.0
            },
            {
                "start_time": 61.4181818,
                "end_time": 61.4659091,
                "pitch": 62,
                "velocity": 80,
                "duration": 0.0477273,
                "tempo": 120.0
            },
            {
                "start_time": 61.5,
                "end_time": 61.55,
                "pitch": 59,
                "velocity": 80,
                "duration": 0.05,
                "tempo": 120.0
            },
            {
                "start_time": 61.5840909,
                "end_time": 61.65,
                "pitch": 62,
                "velocity": 80,
                "duration": 0.0659091,
                "tempo": 120.0
            },
            {
                "start_time": 61.7681818,
                "end_time": 61.8181818,
                "pitch": 62,
                "velocity": 80,
                "duration": 0.05,
                "tempo": 120.0
            },
            {
                "start_time": 61.8522727,
                "end_time": 61.9022727,
                "pitch": 59,
                "velocity": 80,
                "duration": 0.05,
                "tempo": 120.0
            },
            {
                "start_time": 61.9363636,
                "end_time": 62.0022727,
                "pitch": 62,
                "velocity": 80,
                "duration": 0.0659091,
                "tempo": 120.0
            },
            {
                "start_time": 62.0181818,
                "end_time": 62.0863636,
                "pitch": 59,
                "velocity": 80,
                "duration": 0.0681818,
                "tempo": 120.0
            },
            {
                "start_time": 62.1204545,
                "end_time": 62.1681818,
                "pitch": 62,
                "velocity": 80,
                "duration": 0.0477273,
                "tempo": 120.0
            },
            {
                "start_time": 62.2863636,
                "end_time": 62.3522727,
                "pitch": 62,
                "velocity": 80,
                "duration": 0.0659091,
                "tempo": 120.0
            },
            {
                "start_time": 62.3704545,
                "end_time": 62.4363636,
                "pitch": 65,
                "velocity": 80,
                "duration": 0.0659091,
                "tempo": 120.0
            },
            {
                "start_time": 62.4704545,
                "end_time": 62.5204545,
                "pitch": 67,
                "velocity": 80,
                "duration": 0.05,
                "tempo": 120.0
            },
            {
                "start_time": 62.5545455,
                "end_time": 62.6045455,
                "pitch": 62,
                "velocity": 80,
                "duration": 0.05,
                "tempo": 120.0
            },
            {
                "start_time": 62.6409091,
                "end_time": 62.7068182,
                "pitch": 64,
                "velocity": 80,
                "duration": 0.0659091,
                "tempo": 120.0
            },
            {
                "start_time": 62.7227273,
                "end_time": 62.7931818,
                "pitch": 60,
                "velocity": 80,
                "duration": 0.0704545,
                "tempo": 120.0
            },
            {
                "start_time": 62.8272727,
                "end_time": 62.8772727,
                "pitch": 64,
                "velocity": 80,
                "duration": 0.05,
                "tempo": 120.0
            },
            {
                "start_time": 62.9136364,
                "end_time": 62.9818182,
                "pitch": 60,
                "velocity": 80,
                "duration": 0.0681818,
                "tempo": 120.0
            },
            {
                "start_time": 63.0,
                "end_time": 63.0636364,
                "pitch": 64,
                "velocity": 80,
                "duration": 0.0636364,
                "tempo": 120.0
            },
            {
                "start_time": 63.1795455,
                "end_time": 63.2272727,
                "pitch": 64,
                "velocity": 80,
                "duration": 0.0477273,
                "tempo": 120.0
            },
            {
                "start_time": 63.2590909,
                "end_time": 63.325,
                "pitch": 60,
                "velocity": 80,
                "duration": 0.0659091,
                "tempo": 120.0
            },
            {
                "start_time": 63.3409091,
                "end_time": 63.4068182,
                "pitch": 64,
                "velocity": 80,
                "duration": 0.0659091,
                "tempo": 120.0
            },
            {
                "start_time": 63.4409091,
                "end_time": 63.4909091,
                "pitch": 60,
                "velocity": 80,
                "duration": 0.05,
                "tempo": 120.0
            },
            {
                "start_time": 63.525,
                "end_time": 63.575,
                "pitch": 64,
                "velocity": 80,
                "duration": 0.05,
                "tempo": 120.0
            },
            {
                "start_time": 63.6931818,
                "end_time": 63.7590909,
                "pitch": 64,
                "velocity": 80,
                "duration": 0.0659091,
                "tempo": 120.0
            },
            {
                "start_time": 63.7931818,
                "end_time": 63.8409091,
                "pitch": 63,
                "velocity": 80,
                "duration": 0.0477273,
                "tempo": 120.0
            },
            {
                "start_time": 63.8772727,
                "end_time": 63.925,
                "pitch": 62,
                "velocity": 80,
                "duration": 0.0477273,
                "tempo": 120.0
            },
            {
                "start_time": 63.9590909,
                "end_time": 64.025,
                "pitch": 61,
                "velocity": 80,
                "duration": 0.0659091,
                "tempo": 120.0
            },
            {
                "start_time": 64.0454545,
                "end_time": 64.1113636,
                "pitch": 64,
                "velocity": 80,
                "duration": 0.0659091,
                "tempo": 120.0
            },
            {
                "start_time": 64.1454545,
                "end_time": 64.1977273,
                "pitch": 60,
                "velocity": 80,
                "duration": 0.0522727,
                "tempo": 120.0
            },
            {
                "start_time": 64.2318182,
                "end_time": 64.2840909,
                "pitch": 64,
                "velocity": 80,
                "duration": 0.0522727,
                "tempo": 120.0
            },
            {
                "start_time": 64.3181818,
                "end_time": 64.3863636,
                "pitch": 60,
                "velocity": 80,
                "duration": 0.0681818,
                "tempo": 120.0
            },
            {
                "start_time": 64.4045455,
                "end_time": 64.4704545,
                "pitch": 64,
                "velocity": 80,
                "duration": 0.0659091,
                "tempo": 120.0
            },
            {
                "start_time": 64.5886364,
                "end_time": 64.6386364,
                "pitch": 64,
                "velocity": 80,
                "duration": 0.05,
                "tempo": 120.0
            },
            {
                "start_time": 64.6727273,
                "end_time": 64.7386364,
                "pitch": 60,
                "velocity": 80,
                "duration": 0.0659091,
                "tempo": 120.0
            },
            {
                "start_time": 64.7568182,
                "end_time": 64.8227273,
                "pitch": 64,
                "velocity": 80,
                "duration": 0.0659091,
                "tempo": 120.0
            },
            {
                "start_time": 64.8568182,
                "end_time": 64.9068182,
                "pitch": 60,
                "velocity": 80,
                "duration": 0.05,
                "tempo": 120.0
            },
            {
                "start_time": 64.9409091,
                "end_time": 65.0068182,
                "pitch": 64,
                "velocity": 80,
                "duration": 0.0659091,
                "tempo": 120.0
            },
            {
                "start_time": 65.125,
                "end_time": 65.175,
                "pitch": 64,
                "velocity": 80,
                "duration": 0.05,
                "tempo": 120.0
            },
            {
                "start_time": 65.2090909,
                "end_time": 65.2613636,
                "pitch": 63,
                "velocity": 80,
                "duration": 0.0522727,
                "tempo": 120.0
            },
            {
                "start_time": 65.2977273,
                "end_time": 65.3636364,
                "pitch": 62,
                "velocity": 80,
                "duration": 0.0659091,
                "tempo": 120.0
            },
            {
                "start_time": 65.3818182,
                "end_time": 65.45,
                "pitch": 61,
                "velocity": 80,
                "duration": 0.0681818,
                "tempo": 120.0
            },
            {
                "start_time": 65.4886364,
                "end_time": 65.5363636,
                "pitch": 62,
                "velocity": 80,
                "duration": 0.0477273,
                "tempo": 120.0
            },
            {
                "start_time": 65.5727273,
                "end_time": 65.6227273,
                "pitch": 59,
                "velocity": 80,
                "duration": 0.05,
                "tempo": 120.0
            },
            {
                "start_time": 65.6590909,
                "end_time": 65.7272727,
                "pitch": 62,
                "velocity": 80,
                "duration": 0.0681818,
                "tempo": 120.0
            },
            {
                "start_time": 65.7454545,
                "end_time": 65.8136364,
                "pitch": 59,
                "velocity": 80,
                "duration": 0.0681818,
                "tempo": 120.0
            },
            {
                "start_time": 65.8477273,
                "end_time": 65.8977273,
                "pitch": 62,
                "velocity": 80,
                "duration": 0.05,
                "tempo": 120.0
            },
            {
                "start_time": 66.0159091,
                "end_time": 66.0818182,
                "pitch": 62,
                "velocity": 80,
                "duration": 0.0659091,
                "tempo": 120.0
            },
            {
                "start_time": 66.1,
                "end_time": 66.1659091,
                "pitch": 59,
                "velocity": 80,
                "duration": 0.0659091,
                "tempo": 120.0
            },
            {
                "start_time": 66.2,
                "end_time": 66.2477273,
                "pitch": 62,
                "velocity": 80,
                "duration": 0.0477273,
                "tempo": 120.0
            },
            {
                "start_time": 66.2818182,
                "end_time": 66.3318182,
                "pitch": 59,
                "velocity": 80,
                "duration": 0.05,
                "tempo": 120.0
            },
            {
                "start_time": 66.3659091,
                "end_time": 66.4318182,
                "pitch": 62,
                "velocity": 80,
                "duration": 0.0659091,
                "tempo": 120.0
            },
            {
                "start_time": 66.55,
                "end_time": 66.5977273,
                "pitch": 62,
                "velocity": 80,
                "duration": 0.0477273,
                "tempo": 120.0
            },
            {
                "start_time": 66.6318182,
                "end_time": 66.6795455,
                "pitch": 61,
                "velocity": 80,
                "duration": 0.0477273,
                "tempo": 120.0
            },
            {
                "start_time": 66.7136364,
                "end_time": 66.7772727,
                "pitch": 60,
                "velocity": 80,
                "duration": 0.0636364,
                "tempo": 120.0
            },
            {
                "start_time": 66.7931818,
                "end_time": 66.8590909,
                "pitch": 59,
                "velocity": 80,
                "duration": 0.0659091,
                "tempo": 120.0
            },
            {
                "start_time": 66.8931818,
                "end_time": 66.9409091,
                "pitch": 62,
                "velocity": 80,
                "duration": 0.0477273,
                "tempo": 120.0
            },
            {
                "start_time": 66.9772727,
                "end_time": 67.0272727,
                "pitch": 59,
                "velocity": 80,
                "duration": 0.05,
                "tempo": 120.0
            },
            {
                "start_time": 67.0636364,
                "end_time": 67.1318182,
                "pitch": 62,
                "velocity": 80,
                "duration": 0.0681818,
                "tempo": 120.0
            },
            {
                "start_time": 67.1659091,
                "end_time": 67.2181818,
                "pitch": 59,
                "velocity": 80,
                "duration": 0.0522727,
                "tempo": 120.0
            },
            {
                "start_time": 67.2522727,
                "end_time": 67.3022727,
                "pitch": 62,
                "velocity": 80,
                "duration": 0.05,
                "tempo": 120.0
            },
            {
                "start_time": 67.4204545,
                "end_time": 67.4863636,
                "pitch": 62,
                "velocity": 80,
                "duration": 0.0659091,
                "tempo": 120.0
            },
            {
                "start_time": 67.5204545,
                "end_time": 67.5704545,
                "pitch": 59,
                "velocity": 80,
                "duration": 0.05,
                "tempo": 120.0
            },
            {
                "start_time": 67.6045455,
                "end_time": 67.6545455,
                "pitch": 62,
                "velocity": 80,
                "duration": 0.05,
                "tempo": 120.0
            },
            {
                "start_time": 67.6886364,
                "end_time": 67.7545455,
                "pitch": 59,
                "velocity": 80,
                "duration": 0.0659091,
                "tempo": 120.0
            },
            {
                "start_time": 67.7727273,
                "end_time": 67.8386364,
                "pitch": 62,
                "velocity": 80,
                "duration": 0.0659091,
                "tempo": 120.0
            },
            {
                "start_time": 67.9568182,
                "end_time": 68.0045455,
                "pitch": 62,
                "velocity": 80,
                "duration": 0.0477273,
                "tempo": 120.0
            },
            {
                "start_time": 68.0386364,
                "end_time": 68.1045455,
                "pitch": 61,
                "velocity": 80,
                "duration": 0.0659091,
                "tempo": 120.0
            },
            {
                "start_time": 68.1227273,
                "end_time": 68.1886364,
                "pitch": 60,
                "velocity": 80,
                "duration": 0.0659091,
                "tempo": 120.0
            },
            {
                "start_time": 68.2227273,
                "end_time": 68.2727273,
                "pitch": 59,
                "velocity": 80,
                "duration": 0.05,
                "tempo": 120.0
            },
            {
                "start_time": 68.3090909,
                "end_time": 68.3568182,
                "pitch": 60,
                "velocity": 80,
                "duration": 0.0477273,
                "tempo": 120.0
            },
            {
                "start_time": 68.3909091,
                "end_time": 68.4568182,
                "pitch": 57,
                "velocity": 80,
                "duration": 0.0659091,
                "tempo": 120.0
            },
            {
                "start_time": 68.475,
                "end_time": 68.5409091,
                "pitch": 60,
                "velocity": 80,
                "duration": 0.0659091,
                "tempo": 120.0
            },
            {
                "start_time": 68.575,
                "end_time": 68.625,
                "pitch": 57,
                "velocity": 80,
                "duration": 0.05,
                "tempo": 120.0
            },
            {
                "start_time": 68.6590909,
                "end_time": 68.7068182,
                "pitch": 60,
                "velocity": 80,
                "duration": 0.0477273,
                "tempo": 120.0
            },
            {
                "start_time": 68.825,
                "end_time": 68.8909091,
                "pitch": 60,
                "velocity": 80,
                "duration": 0.0659091,
                "tempo": 120.0
            },
            {
                "start_time": 68.925,
                "end_time": 68.975,
                "pitch": 57,
                "velocity": 80,
                "duration": 0.05,
                "tempo": 120.0
            },
            {
                "start_time": 69.0090909,
                "end_time": 69.0590909,
                "pitch": 60,
                "velocity": 80,
                "duration": 0.05,
                "tempo": 120.0
            },
            {
                "start_time": 69.0931818,
                "end_time": 69.1590909,
                "pitch": 57,
                "velocity": 80,
                "duration": 0.0659091,
                "tempo": 120.0
            },
            {
                "start_time": 69.1772727,
                "end_time": 69.2431818,
                "pitch": 60,
                "velocity": 80,
                "duration": 0.0659091,
                "tempo": 120.0
            },
            {
                "start_time": 69.3613636,
                "end_time": 69.4272727,
                "pitch": 60,
                "velocity": 80,
                "duration": 0.0659091,
                "tempo": 120.0
            },
            {
                "start_time": 69.4431818,
                "end_time": 69.5113636,
                "pitch": 62,
                "velocity": 80,
                "duration": 0.0681818,
                "tempo": 120.0
            },
            {
                "start_time": 69.5454545,
                "end_time": 69.5931818,
                "pitch": 65,
                "velocity": 80,
                "duration": 0.0477273,
                "tempo": 120.0
            },
            {
                "start_time": 69.6272727,
                "end_time": 69.6772727,
                "pitch": 60,
                "velocity": 80,
                "duration": 0.05,
                "tempo": 120.0
            },
            {
                "start_time": 69.7136364,
                "end_time": 69.7772727,
                "pitch": 60,
                "velocity": 80,
                "duration": 0.0636364,
                "tempo": 120.0
            },
            {
                "start_time": 69.7954545,
                "end_time": 69.8613636,
                "pitch": 57,
                "velocity": 80,
                "duration": 0.0659091,
                "tempo": 120.0
            },
            {
                "start_time": 69.8954545,
                "end_time": 69.9454545,
                "pitch": 60,
                "velocity": 80,
                "duration": 0.05,
                "tempo": 120.0
            },
            {
                "start_time": 69.9795455,
                "end_time": 70.0295455,
                "pitch": 57,
                "velocity": 80,
                "duration": 0.05,
                "tempo": 120.0
            },
            {
                "start_time": 70.0636364,
                "end_time": 70.1295455,
                "pitch": 60,
                "velocity": 80,
                "duration": 0.0659091,
                "tempo": 120.0
            },
            {
                "start_time": 70.2477273,
                "end_time": 70.2954545,
                "pitch": 60,
                "velocity": 80,
                "duration": 0.0477273,
                "tempo": 120.0
            },
            {
                "start_time": 70.3295455,
                "end_time": 70.3795455,
                "pitch": 57,
                "velocity": 80,
                "duration": 0.05,
                "tempo": 120.0
            },
            {
                "start_time": 70.4136364,
                "end_time": 70.4795455,
                "pitch": 60,
                "velocity": 80,
                "duration": 0.0659091,
                "tempo": 120.0
            },
            {
                "start_time": 70.4977273,
                "end_time": 70.5636364,
                "pitch": 57,
                "velocity": 80,
                "duration": 0.0659091,
                "tempo": 120.0
            },
            {
                "start_time": 70.5977273,
                "end_time": 70.6477273,
                "pitch": 60,
                "velocity": 80,
                "duration": 0.05,
                "tempo": 120.0
            },
            {
                "start_time": 70.7659091,
                "end_time": 70.8318182,
                "pitch": 60,
                "velocity": 80,
                "duration": 0.0659091,
                "tempo": 120.0
            },
            {
                "start_time": 70.85,
                "end_time": 70.9159091,
                "pitch": 62,
                "velocity": 80,
                "duration": 0.0659091,
                "tempo": 120.0
            },
            {
                "start_time": 70.95,
                "end_time": 70.9977273,
                "pitch": 65,
                "velocity": 80,
                "duration": 0.0477273,
                "tempo": 120.0
            },
            {
                "start_time": 71.0318182,
                "end_time": 71.0818182,
                "pitch": 60,
                "velocity": 80,
                "duration": 0.05,
                "tempo": 120.0
            },
            {
                "start_time": 71.1181818,
                "end_time": 71.1818182,
                "pitch": 62,
                "velocity": 80,
                "duration": 0.0636364,
                "tempo": 120.0
            },
            {
                "start_time": 71.2,
                "end_time": 71.2659091,
                "pitch": 59,
                "velocity": 80,
                "duration": 0.0659091,
                "tempo": 120.0
            },
            {
                "start_time": 71.3,
                "end_time": 71.35,
                "pitch": 62,
                "velocity": 80,
                "duration": 0.05,
                "tempo": 120.0
            },
            {
                "start_time": 71.3840909,
                "end_time": 71.45,
                "pitch": 59,
                "velocity": 80,
                "duration": 0.0659091,
                "tempo": 120.0
            },
            {
                "start_time": 71.4681818,
                "end_time": 71.5340909,
                "pitch": 62,
                "velocity": 80,
                "duration": 0.0659091,
                "tempo": 120.0
            },
            {
                "start_time": 71.6522727,
                "end_time": 71.7022727,
                "pitch": 62,
                "velocity": 80,
                "duration": 0.05,
                "tempo": 120.0
            },
            {
                "start_time": 71.7363636,
                "end_time": 71.8022727,
                "pitch": 59,
                "velocity": 80,
                "duration": 0.0659091,
                "tempo": 120.0
            },
            {
                "start_time": 71.8204545,
                "end_time": 71.8840909,
                "pitch": 62,
                "velocity": 80,
                "duration": 0.0636364,
                "tempo": 120.0
            },
            {
                "start_time": 71.9204545,
                "end_time": 71.9681818,
                "pitch": 59,
                "velocity": 80,
                "duration": 0.0477273,
                "tempo": 120.0
            },
            {
                "start_time": 72.0045455,
                "end_time": 72.0522727,
                "pitch": 62,
                "velocity": 80,
                "duration": 0.0477273,
                "tempo": 120.0
            },
            {
                "start_time": 72.1704545,
                "end_time": 72.2363636,
                "pitch": 62,
                "velocity": 80,
                "duration": 0.0659091,
                "tempo": 120.0
            },
            {
                "start_time": 72.2704545,
                "end_time": 72.3204545,
                "pitch": 65,
                "velocity": 80,
                "duration": 0.05,
                "tempo": 120.0
            },
            {
                "start_time": 72.3545455,
                "end_time": 72.4045455,
                "pitch": 67,
                "velocity": 80,
                "duration": 0.05,
                "tempo": 120.0
            },
            {
                "start_time": 72.4386364,
                "end_time": 72.5045455,
                "pitch": 62,
                "velocity": 80,
                "duration": 0.0659091,
                "tempo": 120.0
            },
            {
                "start_time": 72.5227273,
                "end_time": 72.5886364,
                "pitch": 62,
                "velocity": 80,
                "duration": 0.0659091,
                "tempo": 120.0
            },
            {
                "start_time": 72.6227273,
                "end_time": 72.6704545,
                "pitch": 59,
                "velocity": 80,
                "duration": 0.0477273,
                "tempo": 120.0
            },
            {
                "start_time": 72.7068182,
                "end_time": 72.7545455,
                "pitch": 62,
                "velocity": 80,
                "duration": 0.0477273,
                "tempo": 120.0
            },
            {
                "start_time": 72.7886364,
                "end_time": 72.8545455,
                "pitch": 59,
                "velocity": 80,
                "duration": 0.0659091,
                "tempo": 120.0
            },
            {
                "start_time": 72.8727273,
                "end_time": 72.9386364,
                "pitch": 62,
                "velocity": 80,
                "duration": 0.0659091,
                "tempo": 120.0
            },
            {
                "start_time": 73.0568182,
                "end_time": 73.1068182,
                "pitch": 62,
                "velocity": 80,
                "duration": 0.05,
                "tempo": 120.0
            },
            {
                "start_time": 73.1409091,
                "end_time": 73.2068182,
                "pitch": 59,
                "velocity": 80,
                "duration": 0.0659091,
                "tempo": 120.0
            },
            {
                "start_time": 73.225,
                "end_time": 73.2909091,
                "pitch": 62,
                "velocity": 80,
                "duration": 0.0659091,
                "tempo": 120.0
            },
            {
                "start_time": 73.3272727,
                "end_time": 73.3772727,
                "pitch": 59,
                "velocity": 80,
                "duration": 0.05,
                "tempo": 120.0
            },
            {
                "start_time": 73.4136364,
                "end_time": 73.4636364,
                "pitch": 62,
                "velocity": 80,
                "duration": 0.05,
                "tempo": 120.0
            },
            {
                "start_time": 73.6022727,
                "end_time": 73.6545455,
                "pitch": 62,
                "velocity": 80,
                "duration": 0.0522727,
                "tempo": 120.0
            },
            {
                "start_time": 73.6886364,
                "end_time": 73.7386364,
                "pitch": 65,
                "velocity": 80,
                "duration": 0.05,
                "tempo": 120.0
            },
            {
                "start_time": 73.775,
                "end_time": 73.8431818,
                "pitch": 67,
                "velocity": 80,
                "duration": 0.0681818,
                "tempo": 120.0
            },
            {
                "start_time": 73.8613636,
                "end_time": 73.9295455,
                "pitch": 62,
                "velocity": 80,
                "duration": 0.0681818,
                "tempo": 120.0
            },
            {
                "start_time": 73.9659091,
                "end_time": 73.9795455,
                "pitch": 64,
                "velocity": 80,
                "duration": 0.0136364,
                "tempo": 120.0
            },
            {
                "start_time": 74.0136364,
                "end_time": 74.0477273,
                "pitch": 65,
                "velocity": 80,
                "duration": 0.0340909,
                "tempo": 120.0
            },
            {
                "start_time": 74.0818182,
                "end_time": 74.0977273,
                "pitch": 66,
                "velocity": 80,
                "duration": 0.0159091,
                "tempo": 120.0
            },
            {
                "start_time": 74.1318182,
                "end_time": 74.1636364,
                "pitch": 67,
                "velocity": 80,
                "duration": 0.0318182,
                "tempo": 120.0
            },
            {
                "start_time": 74.1977273,
                "end_time": 74.2159091,
                "pitch": 68,
                "velocity": 80,
                "duration": 0.0181818,
                "tempo": 120.0
            },
            {
                "start_time": 74.2477273,
                "end_time": 74.2818182,
                "pitch": 69,
                "velocity": 80,
                "duration": 0.0340909,
                "tempo": 120.0
            },
            {
                "start_time": 74.3159091,
                "end_time": 74.3318182,
                "pitch": 70,
                "velocity": 80,
                "duration": 0.0159091,
                "tempo": 120.0
            },
            {
                "start_time": 74.3659091,
                "end_time": 74.3977273,
                "pitch": 71,
                "velocity": 80,
                "duration": 0.0318182,
                "tempo": 120.0
            },
            {
                "start_time": 74.4318182,
                "end_time": 74.45,
                "pitch": 72,
                "velocity": 80,
                "duration": 0.0181818,
                "tempo": 120.0
            },
            {
                "start_time": 74.4840909,
                "end_time": 74.5159091,
                "pitch": 73,
                "velocity": 80,
                "duration": 0.0318182,
                "tempo": 120.0
            },
            {
                "start_time": 74.55,
                "end_time": 74.5659091,
                "pitch": 74,
                "velocity": 80,
                "duration": 0.0159091,
                "tempo": 120.0
            },
            {
                "start_time": 74.6,
                "end_time": 74.6318182,
                "pitch": 75,
                "velocity": 80,
                "duration": 0.0318182,
                "tempo": 120.0
            },
            {
                "start_time": 74.6681818,
                "end_time": 74.6818182,
                "pitch": 76,
                "velocity": 80,
                "duration": 0.0136364,
                "tempo": 120.0
            },
            {
                "start_time": 74.7159091,
                "end_time": 74.75,
                "pitch": 77,
                "velocity": 80,
                "duration": 0.0340909,
                "tempo": 120.0
            },
            {
                "start_time": 74.7840909,
                "end_time": 74.8,
                "pitch": 78,
                "velocity": 80,
                "duration": 0.0159091,
                "tempo": 120.0
            },
            {
                "start_time": 74.8340909,
                "end_time": 74.8659091,
                "pitch": 79,
                "velocity": 80,
                "duration": 0.0318182,
                "tempo": 120.0
            },
            {
                "start_time": 74.9,
                "end_time": 74.9181818,
                "pitch": 80,
                "velocity": 80,
                "duration": 0.0181818,
                "tempo": 120.0
            },
            {
                "start_time": 74.95,
                "end_time": 74.9840909,
                "pitch": 81,
                "velocity": 80,
                "duration": 0.0340909,
                "tempo": 120.0
            },
            {
                "start_time": 75.0181818,
                "end_time": 75.0340909,
                "pitch": 82,
                "velocity": 80,
                "duration": 0.0159091,
                "tempo": 120.0
            },
            {
                "start_time": 75.0681818,
                "end_time": 75.1022727,
                "pitch": 83,
                "velocity": 80,
                "duration": 0.0340909,
                "tempo": 120.0
            },
            {
                "start_time": 75.1340909,
                "end_time": 75.1522727,
                "pitch": 84,
                "velocity": 80,
                "duration": 0.0181818,
                "tempo": 120.0
            },
            {
                "start_time": 75.1863636,
                "end_time": 75.2181818,
                "pitch": 85,
                "velocity": 80,
                "duration": 0.0318182,
                "tempo": 120.0
            },
            {
                "start_time": 75.2522727,
                "end_time": 75.2681818,
                "pitch": 86,
                "velocity": 80,
                "duration": 0.0159091,
                "tempo": 120.0
            },
            {
                "start_time": 75.3022727,
                "end_time": 75.3363636,
                "pitch": 87,
                "velocity": 80,
                "duration": 0.0340909,
                "tempo": 120.0
            },
            {
                "start_time": 75.3704545,
                "end_time": 75.3840909,
                "pitch": 88,
                "velocity": 80,
                "duration": 0.0136364,
                "tempo": 120.0
            },
            {
                "start_time": 75.4181818,
                "end_time": 75.4522727,
                "pitch": 89,
                "velocity": 80,
                "duration": 0.0340909,
                "tempo": 120.0
            },
            {
                "start_time": 75.4863636,
                "end_time": 75.5022727,
                "pitch": 90,
                "velocity": 80,
                "duration": 0.0159091,
                "tempo": 120.0
            },
            {
                "start_time": 75.5363636,
                "end_time": 75.5681818,
                "pitch": 91,
                "velocity": 80,
                "duration": 0.0318182,
                "tempo": 120.0
            },
            {
                "start_time": 75.6022727,
                "end_time": 75.6204545,
                "pitch": 92,
                "velocity": 80,
                "duration": 0.0181818,
                "tempo": 120.0
            },
            {
                "start_time": 75.6522727,
                "end_time": 75.6863636,
                "pitch": 93,
                "velocity": 80,
                "duration": 0.0340909,
                "tempo": 120.0
            },
            {
                "start_time": 75.7204545,
                "end_time": 75.7522727,
                "pitch": 94,
                "velocity": 80,
                "duration": 0.0318182,
                "tempo": 120.0
            },
            {
                "start_time": 75.7704545,
                "end_time": 75.8045455,
                "pitch": 95,
                "velocity": 80,
                "duration": 0.0340909,
                "tempo": 120.0
            },
            {
                "start_time": 75.8363636,
                "end_time": 75.8704545,
                "pitch": 96,
                "velocity": 80,
                "duration": 0.0340909,
                "tempo": 120.0
            },
            {
                "start_time": 75.8886364,
                "end_time": 75.9204545,
                "pitch": 97,
                "velocity": 80,
                "duration": 0.0318182,
                "tempo": 120.0
            },
            {
                "start_time": 75.9545455,
                "end_time": 75.9886364,
                "pitch": 98,
                "velocity": 80,
                "duration": 0.0340909,
                "tempo": 120.0
            },
            {
                "start_time": 76.0045455,
                "end_time": 76.0386364,
                "pitch": 99,
                "velocity": 80,
                "duration": 0.0340909,
                "tempo": 120.0
            },
            {
                "start_time": 76.0727273,
                "end_time": 76.1045455,
                "pitch": 100,
                "velocity": 80,
                "duration": 0.0318182,
                "tempo": 120.0
            },
            {
                "start_time": 76.1227273,
                "end_time": 76.1545455,
                "pitch": 99,
                "velocity": 80,
                "duration": 0.0318182,
                "tempo": 120.0
            },
            {
                "start_time": 76.1886364,
                "end_time": 76.2227273,
                "pitch": 98,
                "velocity": 80,
                "duration": 0.0340909,
                "tempo": 120.0
            },
            {
                "start_time": 76.2386364,
                "end_time": 76.2704545,
                "pitch": 97,
                "velocity": 80,
                "duration": 0.0318182,
                "tempo": 120.0
            },
            {
                "start_time": 76.3045455,
                "end_time": 76.3386364,
                "pitch": 96,
                "velocity": 80,
                "duration": 0.0340909,
                "tempo": 120.0
            },
            {
                "start_time": 76.3545455,
                "end_time": 76.3886364,
                "pitch": 95,
                "velocity": 80,
                "duration": 0.0340909,
                "tempo": 120.0
            },
            {
                "start_time": 76.4227273,
                "end_time": 76.4545455,
                "pitch": 94,
                "velocity": 80,
                "duration": 0.0318182,
                "tempo": 120.0
            },
            {
                "start_time": 76.4727273,
                "end_time": 76.5068182,
                "pitch": 93,
                "velocity": 80,
                "duration": 0.0340909,
                "tempo": 120.0
            },
            {
                "start_time": 76.5386364,
                "end_time": 76.5727273,
                "pitch": 92,
                "velocity": 80,
                "duration": 0.0340909,
                "tempo": 120.0
            },
            {
                "start_time": 76.5909091,
                "end_time": 76.6227273,
                "pitch": 91,
                "velocity": 80,
                "duration": 0.0318182,
                "tempo": 120.0
            },
            {
                "start_time": 76.6568182,
                "end_time": 76.6909091,
                "pitch": 90,
                "velocity": 80,
                "duration": 0.0340909,
                "tempo": 120.0
            },
            {
                "start_time": 76.7068182,
                "end_time": 76.7409091,
                "pitch": 89,
                "velocity": 80,
                "duration": 0.0340909,
                "tempo": 120.0
            },
            {
                "start_time": 76.7772727,
                "end_time": 76.8068182,
                "pitch": 88,
                "velocity": 80,
                "duration": 0.0295455,
                "tempo": 120.0
            },
            {
                "start_time": 76.825,
                "end_time": 76.8590909,
                "pitch": 87,
                "velocity": 80,
                "duration": 0.0340909,
                "tempo": 120.0
            },
            {
                "start_time": 76.8931818,
                "end_time": 76.9272727,
                "pitch": 86,
                "velocity": 80,
                "duration": 0.0340909,
                "tempo": 120.0
            },
            {
                "start_time": 76.9454545,
                "end_time": 76.9795455,
                "pitch": 85,
                "velocity": 80,
                "duration": 0.0340909,
                "tempo": 120.0
            },
            {
                "start_time": 77.0136364,
                "end_time": 77.05,
                "pitch": 84,
                "velocity": 80,
                "duration": 0.0363636,
                "tempo": 120.0
            },
            {
                "start_time": 77.0659091,
                "end_time": 77.1,
                "pitch": 83,
                "velocity": 80,
                "duration": 0.0340909,
                "tempo": 120.0
            },
            {
                "start_time": 77.1363636,
                "end_time": 77.1681818,
                "pitch": 82,
                "velocity": 80,
                "duration": 0.0318182,
                "tempo": 120.0
            },
            {
                "start_time": 77.1840909,
                "end_time": 77.2159091,
                "pitch": 81,
                "velocity": 80,
                "duration": 0.0318182,
                "tempo": 120.0
            },
            {
                "start_time": 77.25,
                "end_time": 77.2818182,
                "pitch": 80,
                "velocity": 80,
                "duration": 0.0318182,
                "tempo": 120.0
            },
            {
                "start_time": 77.2977273,
                "end_time": 77.3295455,
                "pitch": 79,
                "velocity": 80,
                "duration": 0.0318182,
                "tempo": 120.0
            },
            {
                "start_time": 77.3636364,
                "end_time": 77.3954545,
                "pitch": 78,
                "velocity": 80,
                "duration": 0.0318182,
                "tempo": 120.0
            },
            {
                "start_time": 77.4113636,
                "end_time": 77.4431818,
                "pitch": 77,
                "velocity": 80,
                "duration": 0.0318182,
                "tempo": 120.0
            },
            {
                "start_time": 77.4772727,
                "end_time": 77.5090909,
                "pitch": 76,
                "velocity": 80,
                "duration": 0.0318182,
                "tempo": 120.0
            },
            {
                "start_time": 77.5272727,
                "end_time": 77.5613636,
                "pitch": 75,
                "velocity": 80,
                "duration": 0.0340909,
                "tempo": 120.0
            },
            {
                "start_time": 77.5954545,
                "end_time": 77.6318182,
                "pitch": 74,
                "velocity": 80,
                "duration": 0.0363636,
                "tempo": 120.0
            },
            {
                "start_time": 77.65,
                "end_time": 77.6818182,
                "pitch": 73,
                "velocity": 80,
                "duration": 0.0318182,
                "tempo": 120.0
            },
            {
                "start_time": 77.7181818,
                "end_time": 77.7522727,
                "pitch": 72,
                "velocity": 80,
                "duration": 0.0340909,
                "tempo": 120.0
            },
            {
                "start_time": 77.7681818,
                "end_time": 77.8022727,
                "pitch": 71,
                "velocity": 80,
                "duration": 0.0340909,
                "tempo": 120.0
            },
            {
                "start_time": 77.8386364,
                "end_time": 77.8704545,
                "pitch": 70,
                "velocity": 80,
                "duration": 0.0318182,
                "tempo": 120.0
            },
            {
                "start_time": 77.9045455,
                "end_time": 77.9204545,
                "pitch": 69,
                "velocity": 80,
                "duration": 0.0159091,
                "tempo": 120.0
            },
            {
                "start_time": 77.9545455,
                "end_time": 77.9886364,
                "pitch": 68,
                "velocity": 80,
                "duration": 0.0340909,
                "tempo": 120.0
            },
            {
                "start_time": 78.0227273,
                "end_time": 78.0386364,
                "pitch": 67,
                "velocity": 80,
                "duration": 0.0159091,
                "tempo": 120.0
            },
            {
                "start_time": 78.0727273,
                "end_time": 78.1045455,
                "pitch": 66,
                "velocity": 80,
                "duration": 0.0318182,
                "tempo": 120.0
            },
            {
                "start_time": 78.1386364,
                "end_time": 78.1545455,
                "pitch": 65,
                "velocity": 80,
                "duration": 0.0159091,
                "tempo": 120.0
            },
            {
                "start_time": 78.1909091,
                "end_time": 78.2227273,
                "pitch": 64,
                "velocity": 80,
                "duration": 0.0318182,
                "tempo": 120.0
            },
            {
                "start_time": 78.2568182,
                "end_time": 78.2727273,
                "pitch": 65,
                "velocity": 80,
                "duration": 0.0159091,
                "tempo": 120.0
            },
            {
                "start_time": 78.3068182,
                "end_time": 78.3386364,
                "pitch": 66,
                "velocity": 80,
                "duration": 0.0318182,
                "tempo": 120.0
            },
            {
                "start_time": 78.375,
                "end_time": 78.3886364,
                "pitch": 67,
                "velocity": 80,
                "duration": 0.0136364,
                "tempo": 120.0
            },
            {
                "start_time": 78.4227273,
                "end_time": 78.4568182,
                "pitch": 68,
                "velocity": 80,
                "duration": 0.0340909,
                "tempo": 120.0
            },
            {
                "start_time": 78.4909091,
                "end_time": 78.5068182,
                "pitch": 69,
                "velocity": 80,
                "duration": 0.0159091,
                "tempo": 120.0
            },
            {
                "start_time": 78.5409091,
                "end_time": 78.5727273,
                "pitch": 70,
                "velocity": 80,
                "duration": 0.0318182,
                "tempo": 120.0
            },
            {
                "start_time": 78.6068182,
                "end_time": 78.625,
                "pitch": 71,
                "velocity": 80,
                "duration": 0.0181818,
                "tempo": 120.0
            },
            {
                "start_time": 78.6568182,
                "end_time": 78.6909091,
                "pitch": 72,
                "velocity": 80,
                "duration": 0.0340909,
                "tempo": 120.0
            },
            {
                "start_time": 78.725,
                "end_time": 78.7409091,
                "pitch": 73,
                "velocity": 80,
                "duration": 0.0159091,
                "tempo": 120.0
            },
            {
                "start_time": 78.775,
                "end_time": 78.8090909,
                "pitch": 74,
                "velocity": 80,
                "duration": 0.0340909,
                "tempo": 120.0
            },
            {
                "start_time": 78.8409091,
                "end_time": 78.8590909,
                "pitch": 75,
                "velocity": 80,
                "duration": 0.0181818,
                "tempo": 120.0
            },
            {
                "start_time": 78.8931818,
                "end_time": 78.925,
                "pitch": 76,
                "velocity": 80,
                "duration": 0.0318182,
                "tempo": 120.0
            },
            {
                "start_time": 78.9590909,
                "end_time": 78.975,
                "pitch": 77,
                "velocity": 80,
                "duration": 0.0159091,
                "tempo": 120.0
            },
            {
                "start_time": 79.0090909,
                "end_time": 79.0409091,
                "pitch": 78,
                "velocity": 80,
                "duration": 0.0318182,
                "tempo": 120.0
            },
            {
                "start_time": 79.0772727,
                "end_time": 79.0909091,
                "pitch": 79,
                "velocity": 80,
                "duration": 0.0136364,
                "tempo": 120.0
            },
            {
                "start_time": 79.125,
                "end_time": 79.1590909,
                "pitch": 80,
                "velocity": 80,
                "duration": 0.0340909,
                "tempo": 120.0
            },
            {
                "start_time": 79.1931818,
                "end_time": 79.2090909,
                "pitch": 81,
                "velocity": 80,
                "duration": 0.0159091,
                "tempo": 120.0
            },
            {
                "start_time": 79.2431818,
                "end_time": 79.275,
                "pitch": 82,
                "velocity": 80,
                "duration": 0.0318182,
                "tempo": 120.0
            },
            {
                "start_time": 79.3090909,
                "end_time": 79.3272727,
                "pitch": 83,
                "velocity": 80,
                "duration": 0.0181818,
                "tempo": 120.0
            },
            {
                "start_time": 79.3590909,
                "end_time": 79.3931818,
                "pitch": 84,
                "velocity": 80,
                "duration": 0.0340909,
                "tempo": 120.0
            },
            {
                "start_time": 79.4272727,
                "end_time": 79.4431818,
                "pitch": 85,
                "velocity": 80,
                "duration": 0.0159091,
                "tempo": 120.0
            },
            {
                "start_time": 79.4772727,
                "end_time": 79.5113636,
                "pitch": 86,
                "velocity": 80,
                "duration": 0.0340909,
                "tempo": 120.0
            },
            {
                "start_time": 79.5431818,
                "end_time": 79.5613636,
                "pitch": 87,
                "velocity": 80,
                "duration": 0.0181818,
                "tempo": 120.0
            }
        ],
        "Acoustic Bass": [
            {
                "start_time": 0.0068182,
                "end_time": 0.1704545,
                "pitch": 33,
                "velocity": 101,
                "duration": 0.1636364,
                "tempo": 120.0
            },
            {
                "start_time": 0.2022727,
                "end_time": 0.3545455,
                "pitch": 33,
                "velocity": 101,
                "duration": 0.1522727,
                "tempo": 120.0
            },
            {
                "start_time": 0.3863636,
                "end_time": 0.5454545,
                "pitch": 33,
                "velocity": 101,
                "duration": 0.1590909,
                "tempo": 120.0
            },
            {
                "start_time": 0.5818182,
                "end_time": 0.6522727,
                "pitch": 33,
                "velocity": 101,
                "duration": 0.0704545,
                "tempo": 120.0
            },
            {
                "start_time": 0.6863636,
                "end_time": 0.8477273,
                "pitch": 33,
                "velocity": 101,
                "duration": 0.1613636,
                "tempo": 120.0
            },
            {
                "start_time": 0.8840909,
                "end_time": 0.9568182,
                "pitch": 33,
                "velocity": 101,
                "duration": 0.0727273,
                "tempo": 120.0
            },
            {
                "start_time": 0.9931818,
                "end_time": 1.0659091,
                "pitch": 33,
                "velocity": 101,
                "duration": 0.0727273,
                "tempo": 120.0
            },
            {
                "start_time": 1.0840909,
                "end_time": 1.1568182,
                "pitch": 33,
                "velocity": 101,
                "duration": 0.0727273,
                "tempo": 120.0
            },
            {
                "start_time": 1.1931818,
                "end_time": 1.3704545,
                "pitch": 33,
                "velocity": 101,
                "duration": 0.1772727,
                "tempo": 120.0
            },
            {
                "start_time": 1.3886364,
                "end_time": 1.4590909,
                "pitch": 33,
                "velocity": 101,
                "duration": 0.0704545,
                "tempo": 120.0
            },
            {
                "start_time": 1.4931818,
                "end_time": 1.5636364,
                "pitch": 33,
                "velocity": 101,
                "duration": 0.0704545,
                "tempo": 120.0
            },
            {
                "start_time": 1.6022727,
                "end_time": 1.7681818,
                "pitch": 33,
                "velocity": 101,
                "duration": 0.1659091,
                "tempo": 120.0
            },
            {
                "start_time": 1.8045455,
                "end_time": 1.9727273,
                "pitch": 33,
                "velocity": 101,
                "duration": 0.1681818,
                "tempo": 120.0
            },
            {
                "start_time": 2.0113636,
                "end_time": 2.1659091,
                "pitch": 33,
                "velocity": 101,
                "duration": 0.1545455,
                "tempo": 120.0
            },
            {
                "start_time": 2.2,
                "end_time": 2.2681818,
                "pitch": 33,
                "velocity": 101,
                "duration": 0.0681818,
                "tempo": 120.0
            },
            {
                "start_time": 2.2863636,
                "end_time": 2.4590909,
                "pitch": 33,
                "velocity": 101,
                "duration": 0.1727273,
                "tempo": 120.0
            },
            {
                "start_time": 2.4772727,
                "end_time": 2.5477273,
                "pitch": 33,
                "velocity": 101,
                "duration": 0.0704545,
                "tempo": 120.0
            },
            {
                "start_time": 2.5840909,
                "end_time": 2.6545455,
                "pitch": 33,
                "velocity": 101,
                "duration": 0.0704545,
                "tempo": 120.0
            },
            {
                "start_time": 2.6909091,
                "end_time": 2.7431818,
                "pitch": 33,
                "velocity": 101,
                "duration": 0.0522727,
                "tempo": 120.0
            },
            {
                "start_time": 2.7772727,
                "end_time": 2.9363636,
                "pitch": 33,
                "velocity": 101,
                "duration": 0.1590909,
                "tempo": 120.0
            },
            {
                "start_time": 2.9727273,
                "end_time": 3.0431818,
                "pitch": 33,
                "velocity": 101,
                "duration": 0.0704545,
                "tempo": 120.0
            },
            {
                "start_time": 3.0772727,
                "end_time": 3.1318182,
                "pitch": 33,
                "velocity": 101,
                "duration": 0.0545455,
                "tempo": 120.0
            },
            {
                "start_time": 3.1681818,
                "end_time": 3.325,
                "pitch": 33,
                "velocity": 101,
                "duration": 0.1568182,
                "tempo": 120.0
            },
            {
                "start_time": 3.3613636,
                "end_time": 3.5204545,
                "pitch": 33,
                "velocity": 101,
                "duration": 0.1590909,
                "tempo": 120.0
            },
            {
                "start_time": 3.5545455,
                "end_time": 3.7090909,
                "pitch": 33,
                "velocity": 101,
                "duration": 0.1545455,
                "tempo": 120.0
            },
            {
                "start_time": 3.7454545,
                "end_time": 3.7954545,
                "pitch": 33,
                "velocity": 101,
                "duration": 0.05,
                "tempo": 120.0
            },
            {
                "start_time": 3.8318182,
                "end_time": 3.9863636,
                "pitch": 33,
                "velocity": 101,
                "duration": 0.1545455,
                "tempo": 120.0
            },
            {
                "start_time": 4.0227273,
                "end_time": 4.0931818,
                "pitch": 33,
                "velocity": 101,
                "duration": 0.0704545,
                "tempo": 120.0
            },
            {
                "start_time": 4.1272727,
                "end_time": 4.1818182,
                "pitch": 33,
                "velocity": 101,
                "duration": 0.0545455,
                "tempo": 120.0
            },
            {
                "start_time": 4.2159091,
                "end_time": 4.2863636,
                "pitch": 33,
                "velocity": 101,
                "duration": 0.0704545,
                "tempo": 120.0
            },
            {
                "start_time": 4.3227273,
                "end_time": 4.4772727,
                "pitch": 33,
                "velocity": 101,
                "duration": 0.1545455,
                "tempo": 120.0
            },
            {
                "start_time": 4.4954545,
                "end_time": 4.5636364,
                "pitch": 33,
                "velocity": 101,
                "duration": 0.0681818,
                "tempo": 120.0
            },
            {
                "start_time": 4.5977273,
                "end_time": 4.65,
                "pitch": 33,
                "velocity": 101,
                "duration": 0.0522727,
                "tempo": 120.0
            },
            {
                "start_time": 4.6840909,
                "end_time": 4.8386364,
                "pitch": 33,
                "velocity": 101,
                "duration": 0.1545455,
                "tempo": 120.0
            },
            {
                "start_time": 4.8727273,
                "end_time": 5.0295455,
                "pitch": 33,
                "velocity": 101,
                "duration": 0.1568182,
                "tempo": 120.0
            },
            {
                "start_time": 5.0636364,
                "end_time": 5.2181818,
                "pitch": 33,
                "velocity": 101,
                "duration": 0.1545455,
                "tempo": 120.0
            },
            {
                "start_time": 5.2340909,
                "end_time": 5.3045455,
                "pitch": 33,
                "velocity": 101,
                "duration": 0.0704545,
                "tempo": 120.0
            },
            {
                "start_time": 5.3386364,
                "end_time": 5.4909091,
                "pitch": 33,
                "velocity": 101,
                "duration": 0.1522727,
                "tempo": 120.0
            },
            {
                "start_time": 5.5090909,
                "end_time": 5.575,
                "pitch": 33,
                "velocity": 101,
                "duration": 0.0659091,
                "tempo": 120.0
            },
            {
                "start_time": 5.6090909,
                "end_time": 5.6590909,
                "pitch": 33,
                "velocity": 101,
                "duration": 0.05,
                "tempo": 120.0
            },
            {
                "start_time": 5.6931818,
                "end_time": 5.7590909,
                "pitch": 33,
                "velocity": 101,
                "duration": 0.0659091,
                "tempo": 120.0
            },
            {
                "start_time": 5.7772727,
                "end_time": 5.9318182,
                "pitch": 33,
                "velocity": 101,
                "duration": 0.1545455,
                "tempo": 120.0
            },
            {
                "start_time": 5.9659091,
                "end_time": 6.0340909,
                "pitch": 33,
                "velocity": 101,
                "duration": 0.0681818,
                "tempo": 120.0
            },
            {
                "start_time": 6.0522727,
                "end_time": 6.1204545,
                "pitch": 33,
                "velocity": 101,
                "duration": 0.0681818,
                "tempo": 120.0
            },
            {
                "start_time": 6.1568182,
                "end_time": 6.2931818,
                "pitch": 33,
                "velocity": 101,
                "duration": 0.1363636,
                "tempo": 120.0
            },
            {
                "start_time": 6.3272727,
                "end_time": 6.4818182,
                "pitch": 33,
                "velocity": 101,
                "duration": 0.1545455,
                "tempo": 120.0
            },
            {
                "start_time": 6.5159091,
                "end_time": 6.65,
                "pitch": 33,
                "velocity": 101,
                "duration": 0.1340909,
                "tempo": 120.0
            },
            {
                "start_time": 6.6840909,
                "end_time": 6.8340909,
                "pitch": 28,
                "velocity": 101,
                "duration": 0.15,
                "tempo": 120.0
            },
            {
                "start_time": 6.8681818,
                "end_time": 7.0181818,
                "pitch": 33,
                "velocity": 101,
                "duration": 0.15,
                "tempo": 120.0
            },
            {
                "start_time": 7.0363636,
                "end_time": 7.1863636,
                "pitch": 40,
                "velocity": 101,
                "duration": 0.15,
                "tempo": 120.0
            },
            {
                "start_time": 7.2204545,
                "end_time": 7.3704545,
                "pitch": 38,
                "velocity": 101,
                "duration": 0.15,
                "tempo": 120.0
            },
            {
                "start_time": 7.3863636,
                "end_time": 7.5363636,
                "pitch": 36,
                "velocity": 101,
                "duration": 0.15,
                "tempo": 120.0
            },
            {
                "start_time": 7.5704545,
                "end_time": 7.7204545,
                "pitch": 33,
                "velocity": 101,
                "duration": 0.15,
                "tempo": 120.0
            },
            {
                "start_time": 7.7386364,
                "end_time": 7.8886364,
                "pitch": 33,
                "velocity": 101,
                "duration": 0.15,
                "tempo": 120.0
            },
            {
                "start_time": 7.9227273,
                "end_time": 8.0727273,
                "pitch": 33,
                "velocity": 101,
                "duration": 0.15,
                "tempo": 120.0
            },
            {
                "start_time": 8.0886364,
                "end_time": 8.2386364,
                "pitch": 28,
                "velocity": 101,
                "duration": 0.15,
                "tempo": 120.0
            },
            {
                "start_time": 8.2727273,
                "end_time": 8.4227273,
                "pitch": 33,
                "velocity": 101,
                "duration": 0.15,
                "tempo": 120.0
            },
            {
                "start_time": 8.4409091,
                "end_time": 8.5909091,
                "pitch": 40,
                "velocity": 101,
                "duration": 0.15,
                "tempo": 120.0
            },
            {
                "start_time": 8.625,
                "end_time": 8.775,
                "pitch": 38,
                "velocity": 101,
                "duration": 0.15,
                "tempo": 120.0
            },
            {
                "start_time": 8.7909091,
                "end_time": 8.9409091,
                "pitch": 36,
                "velocity": 101,
                "duration": 0.15,
                "tempo": 120.0
            },
            {
                "start_time": 8.9772727,
                "end_time": 9.125,
                "pitch": 33,
                "velocity": 101,
                "duration": 0.1477273,
                "tempo": 120.0
            },
            {
                "start_time": 9.1590909,
                "end_time": 9.2931818,
                "pitch": 33,
                "velocity": 101,
                "duration": 0.1340909,
                "tempo": 120.0
            },
            {
                "start_time": 9.3272727,
                "end_time": 9.4772727,
                "pitch": 33,
                "velocity": 101,
                "duration": 0.15,
                "tempo": 120.0
            },
            {
                "start_time": 9.5113636,
                "end_time": 9.6431818,
                "pitch": 28,
                "velocity": 101,
                "duration": 0.1318182,
                "tempo": 120.0
            },
            {
                "start_time": 9.6772727,
                "end_time": 9.8272727,
                "pitch": 33,
                "velocity": 101,
                "duration": 0.15,
                "tempo": 120.0
            },
            {
                "start_time": 9.8613636,
                "end_time": 9.9954545,
                "pitch": 40,
                "velocity": 101,
                "duration": 0.1340909,
                "tempo": 120.0
            },
            {
                "start_time": 10.0295455,
                "end_time": 10.1840909,
                "pitch": 38,
                "velocity": 101,
                "duration": 0.1545455,
                "tempo": 120.0
            },
            {
                "start_time": 10.2181818,
                "end_time": 10.3568182,
                "pitch": 36,
                "velocity": 101,
                "duration": 0.1386364,
                "tempo": 120.0
            },
            {
                "start_time": 10.3909091,
                "end_time": 10.5409091,
                "pitch": 33,
                "velocity": 101,
                "duration": 0.15,
                "tempo": 120.0
            },
            {
                "start_time": 10.575,
                "end_time": 10.7090909,
                "pitch": 33,
                "velocity": 101,
                "duration": 0.1340909,
                "tempo": 120.0
            },
            {
                "start_time": 10.7431818,
                "end_time": 10.8886364,
                "pitch": 33,
                "velocity": 101,
                "duration": 0.1454545,
                "tempo": 120.0
            },
            {
                "start_time": 10.9204545,
                "end_time": 11.05,
                "pitch": 28,
                "velocity": 101,
                "duration": 0.1295455,
                "tempo": 120.0
            },
            {
                "start_time": 11.0840909,
                "end_time": 11.2340909,
                "pitch": 33,
                "velocity": 101,
                "duration": 0.15,
                "tempo": 120.0
            },
            {
                "start_time": 11.2681818,
                "end_time": 11.4181818,
                "pitch": 40,
                "velocity": 101,
                "duration": 0.15,
                "tempo": 120.0
            },
            {
                "start_time": 11.4340909,
                "end_time": 11.5886364,
                "pitch": 38,
                "velocity": 101,
                "duration": 0.1545455,
                "tempo": 120.0
            },
            {
                "start_time": 11.6227273,
                "end_time": 11.7795455,
                "pitch": 36,
                "velocity": 101,
                "duration": 0.1568182,
                "tempo": 120.0
            },
            {
                "start_time": 11.7977273,
                "end_time": 11.9454545,
                "pitch": 33,
                "velocity": 101,
                "duration": 0.1477273,
                "tempo": 120.0
            },
            {
                "start_time": 11.9818182,
                "end_time": 12.1295455,
                "pitch": 33,
                "velocity": 101,
                "duration": 0.1477273,
                "tempo": 120.0
            },
            {
                "start_time": 12.1477273,
                "end_time": 12.2977273,
                "pitch": 33,
                "velocity": 101,
                "duration": 0.15,
                "tempo": 120.0
            },
            {
                "start_time": 12.3318182,
                "end_time": 12.4818182,
                "pitch": 28,
                "velocity": 101,
                "duration": 0.15,
                "tempo": 120.0
            },
            {
                "start_time": 12.5,
                "end_time": 12.6454545,
                "pitch": 33,
                "velocity": 101,
                "duration": 0.1454545,
                "tempo": 120.0
            },
            {
                "start_time": 12.6772727,
                "end_time": 12.8227273,
                "pitch": 40,
                "velocity": 101,
                "duration": 0.1454545,
                "tempo": 120.0
            },
            {
                "start_time": 12.8409091,
                "end_time": 12.9931818,
                "pitch": 38,
                "velocity": 101,
                "duration": 0.1522727,
                "tempo": 120.0
            },
            {
                "start_time": 13.0295455,
                "end_time": 13.1840909,
                "pitch": 36,
                "velocity": 101,
                "duration": 0.1545455,
                "tempo": 120.0
            },
            {
                "start_time": 13.2022727,
                "end_time": 13.3522727,
                "pitch": 33,
                "velocity": 101,
                "duration": 0.15,
                "tempo": 120.0
            },
            {
                "start_time": 13.3863636,
                "end_time": 13.5363636,
                "pitch": 33,
                "velocity": 101,
                "duration": 0.15,
                "tempo": 120.0
            },
            {
                "start_time": 13.5704545,
                "end_time": 13.7090909,
                "pitch": 33,
                "velocity": 101,
                "duration": 0.1386364,
                "tempo": 120.0
            },
            {
                "start_time": 13.7454545,
                "end_time": 13.9045455,
                "pitch": 28,
                "velocity": 101,
                "duration": 0.1590909,
                "tempo": 120.0
            },
            {
                "start_time": 13.9409091,
                "end_time": 14.0681818,
                "pitch": 33,
                "velocity": 101,
                "duration": 0.1272727,
                "tempo": 120.0
            },
            {
                "start_time": 14.1022727,
                "end_time": 14.2477273,
                "pitch": 40,
                "velocity": 101,
                "duration": 0.1454545,
                "tempo": 120.0
            },
            {
                "start_time": 14.2818182,
                "end_time": 14.4181818,
                "pitch": 38,
                "velocity": 101,
                "duration": 0.1363636,
                "tempo": 120.0
            },
            {
                "start_time": 14.4522727,
                "end_time": 14.6068182,
                "pitch": 36,
                "velocity": 101,
                "duration": 0.1545455,
                "tempo": 120.0
            },
            {
                "start_time": 14.6431818,
                "end_time": 14.775,
                "pitch": 33,
                "velocity": 101,
                "duration": 0.1318182,
                "tempo": 120.0
            },
            {
                "start_time": 14.8090909,
                "end_time": 14.9590909,
                "pitch": 33,
                "velocity": 101,
                "duration": 0.15,
                "tempo": 120.0
            },
            {
                "start_time": 14.9931818,
                "end_time": 15.1272727,
                "pitch": 33,
                "velocity": 101,
                "duration": 0.1340909,
                "tempo": 120.0
            },
            {
                "start_time": 15.1613636,
                "end_time": 15.3113636,
                "pitch": 28,
                "velocity": 101,
                "duration": 0.15,
                "tempo": 120.0
            },
            {
                "start_time": 15.3454545,
                "end_time": 15.4772727,
                "pitch": 33,
                "velocity": 101,
                "duration": 0.1318182,
                "tempo": 120.0
            },
            {
                "start_time": 15.5136364,
                "end_time": 15.6613636,
                "pitch": 40,
                "velocity": 101,
                "duration": 0.1477273,
                "tempo": 120.0
            },
            {
                "start_time": 15.6954545,
                "end_time": 15.8454545,
                "pitch": 38,
                "velocity": 101,
                "duration": 0.15,
                "tempo": 120.0
            },
            {
                "start_time": 15.8636364,
                "end_time": 16.0136364,
                "pitch": 36,
                "velocity": 101,
                "duration": 0.15,
                "tempo": 120.0
            },
            {
                "start_time": 16.0477273,
                "end_time": 16.1977273,
                "pitch": 33,
                "velocity": 101,
                "duration": 0.15,
                "tempo": 120.0
            },
            {
                "start_time": 16.2159091,
                "end_time": 16.3636364,
                "pitch": 33,
                "velocity": 101,
                "duration": 0.1477273,
                "tempo": 120.0
            },
            {
                "start_time": 16.4,
                "end_time": 16.5477273,
                "pitch": 33,
                "velocity": 101,
                "duration": 0.1477273,
                "tempo": 120.0
            },
            {
                "start_time": 16.5659091,
                "end_time": 16.7159091,
                "pitch": 28,
                "velocity": 101,
                "duration": 0.15,
                "tempo": 120.0
            },
            {
                "start_time": 16.75,
                "end_time": 16.9,
                "pitch": 33,
                "velocity": 101,
                "duration": 0.15,
                "tempo": 120.0
            },
            {
                "start_time": 16.9181818,
                "end_time": 17.0659091,
                "pitch": 40,
                "velocity": 101,
                "duration": 0.1477273,
                "tempo": 120.0
            },
            {
                "start_time": 17.1022727,
                "end_time": 17.25,
                "pitch": 38,
                "velocity": 101,
                "duration": 0.1477273,
                "tempo": 120.0
            },
            {
                "start_time": 17.2681818,
                "end_time": 17.4181818,
                "pitch": 36,
                "velocity": 101,
                "duration": 0.15,
                "tempo": 120.0
            },
            {
                "start_time": 17.4545455,
                "end_time": 17.6022727,
                "pitch": 33,
                "velocity": 101,
                "duration": 0.1477273,
                "tempo": 120.0
            },
            {
                "start_time": 17.6204545,
                "end_time": 17.7704545,
                "pitch": 33,
                "velocity": 101,
                "duration": 0.15,
                "tempo": 120.0
            },
            {
                "start_time": 17.8022727,
                "end_time": 17.9545455,
                "pitch": 33,
                "velocity": 101,
                "duration": 0.1522727,
                "tempo": 120.0
            },
            {
                "start_time": 17.9886364,
                "end_time": 18.1204545,
                "pitch": 28,
                "velocity": 101,
                "duration": 0.1318182,
                "tempo": 120.0
            },
            {
                "start_time": 18.1545455,
                "end_time": 18.3045455,
                "pitch": 33,
                "velocity": 101,
                "duration": 0.15,
                "tempo": 120.0
            },
            {
                "start_time": 18.3386364,
                "end_time": 18.4727273,
                "pitch": 40,
                "velocity": 101,
                "duration": 0.1340909,
                "tempo": 120.0
            },
            {
                "start_time": 18.5068182,
                "end_time": 18.6568182,
                "pitch": 38,
                "velocity": 101,
                "duration": 0.15,
                "tempo": 120.0
            },
            {
                "start_time": 18.6886364,
                "end_time": 18.8227273,
                "pitch": 36,
                "velocity": 101,
                "duration": 0.1340909,
                "tempo": 120.0
            },
            {
                "start_time": 18.8568182,
                "end_time": 19.0068182,
                "pitch": 33,
                "velocity": 101,
                "duration": 0.15,
                "tempo": 120.0
            },
            {
                "start_time": 19.0409091,
                "end_time": 19.175,
                "pitch": 33,
                "velocity": 101,
                "duration": 0.1340909,
                "tempo": 120.0
            },
            {
                "start_time": 19.2090909,
                "end_time": 19.3590909,
                "pitch": 33,
                "velocity": 101,
                "duration": 0.15,
                "tempo": 120.0
            },
            {
                "start_time": 19.3931818,
                "end_time": 19.525,
                "pitch": 28,
                "velocity": 101,
                "duration": 0.1318182,
                "tempo": 120.0
            },
            {
                "start_time": 19.5590909,
                "end_time": 19.7090909,
                "pitch": 33,
                "velocity": 101,
                "duration": 0.15,
                "tempo": 120.0
            },
            {
                "start_time": 19.7431818,
                "end_time": 19.8931818,
                "pitch": 40,
                "velocity": 101,
                "duration": 0.15,
                "tempo": 120.0
            },
            {
                "start_time": 19.9113636,
                "end_time": 20.0613636,
                "pitch": 38,
                "velocity": 101,
                "duration": 0.15,
                "tempo": 120.0
            },
            {
                "start_time": 20.0954545,
                "end_time": 20.2454545,
                "pitch": 36,
                "velocity": 101,
                "duration": 0.15,
                "tempo": 120.0
            },
            {
                "start_time": 20.2636364,
                "end_time": 20.4113636,
                "pitch": 33,
                "velocity": 101,
                "duration": 0.1477273,
                "tempo": 120.0
            },
            {
                "start_time": 20.4454545,
                "end_time": 20.5954545,
                "pitch": 33,
                "velocity": 101,
                "duration": 0.15,
                "tempo": 120.0
            },
            {
                "start_time": 20.6136364,
                "end_time": 20.7636364,
                "pitch": 33,
                "velocity": 101,
                "duration": 0.15,
                "tempo": 120.0
            },
            {
                "start_time": 20.7977273,
                "end_time": 20.9477273,
                "pitch": 28,
                "velocity": 101,
                "duration": 0.15,
                "tempo": 120.0
            },
            {
                "start_time": 20.9636364,
                "end_time": 21.1136364,
                "pitch": 33,
                "velocity": 101,
                "duration": 0.15,
                "tempo": 120.0
            },
            {
                "start_time": 21.1477273,
                "end_time": 21.2977273,
                "pitch": 40,
                "velocity": 101,
                "duration": 0.15,
                "tempo": 120.0
            },
            {
                "start_time": 21.3159091,
                "end_time": 21.4704545,
                "pitch": 38,
                "velocity": 101,
                "duration": 0.1545455,
                "tempo": 120.0
            },
            {
                "start_time": 21.5045455,
                "end_time": 21.6590909,
                "pitch": 36,
                "velocity": 101,
                "duration": 0.1545455,
                "tempo": 120.0
            },
            {
                "start_time": 21.6772727,
                "end_time": 21.8227273,
                "pitch": 33,
                "velocity": 101,
                "duration": 0.1454545,
                "tempo": 120.0
            },
            {
                "start_time": 21.8545455,
                "end_time": 22.0022727,
                "pitch": 33,
                "velocity": 101,
                "duration": 0.1477273,
                "tempo": 120.0
            },
            {
                "start_time": 22.0340909,
                "end_time": 22.175,
                "pitch": 33,
                "velocity": 101,
                "duration": 0.1409091,
                "tempo": 120.0
            },
            {
                "start_time": 22.2113636,
                "end_time": 22.3681818,
                "pitch": 28,
                "velocity": 101,
                "duration": 0.1568182,
                "tempo": 120.0
            },
            {
                "start_time": 22.4045455,
                "end_time": 22.5386364,
                "pitch": 33,
                "velocity": 101,
                "duration": 0.1340909,
                "tempo": 120.0
            },
            {
                "start_time": 22.5727273,
                "end_time": 22.7227273,
                "pitch": 40,
                "velocity": 101,
                "duration": 0.15,
                "tempo": 120.0
            },
            {
                "start_time": 22.7568182,
                "end_time": 22.8886364,
                "pitch": 38,
                "velocity": 101,
                "duration": 0.1318182,
                "tempo": 120.0
            },
            {
                "start_time": 22.9227273,
                "end_time": 23.0727273,
                "pitch": 36,
                "velocity": 101,
                "duration": 0.15,
                "tempo": 120.0
            },
            {
                "start_time": 23.1090909,
                "end_time": 23.2454545,
                "pitch": 33,
                "velocity": 101,
                "duration": 0.1363636,
                "tempo": 120.0
            },
            {
                "start_time": 23.2795455,
                "end_time": 23.4340909,
                "pitch": 33,
                "velocity": 101,
                "duration": 0.1545455,
                "tempo": 120.0
            },
            {
                "start_time": 23.4704545,
                "end_time": 23.6022727,
                "pitch": 33,
                "velocity": 101,
                "duration": 0.1318182,
                "tempo": 120.0
            },
            {
                "start_time": 23.6363636,
                "end_time": 23.7863636,
                "pitch": 28,
                "velocity": 101,
                "duration": 0.15,
                "tempo": 120.0
            },
            {
                "start_time": 23.8204545,
                "end_time": 23.95,
                "pitch": 33,
                "velocity": 101,
                "duration": 0.1295455,
                "tempo": 120.0
            },
            {
                "start_time": 23.9840909,
                "end_time": 24.1295455,
                "pitch": 40,
                "velocity": 101,
                "duration": 0.1454545,
                "tempo": 120.0
            },
            {
                "start_time": 24.1613636,
                "end_time": 24.3159091,
                "pitch": 38,
                "velocity": 101,
                "duration": 0.1545455,
                "tempo": 120.0
            },
            {
                "start_time": 24.3340909,
                "end_time": 24.4886364,
                "pitch": 36,
                "velocity": 101,
                "duration": 0.1545455,
                "tempo": 120.0
            },
            {
                "start_time": 24.5227273,
                "end_time": 24.6727273,
                "pitch": 33,
                "velocity": 101,
                "duration": 0.15,
                "tempo": 120.0
            },
            {
                "start_time": 24.6909091,
                "end_time": 24.8409091,
                "pitch": 33,
                "velocity": 101,
                "duration": 0.15,
                "tempo": 120.0
            },
            {
                "start_time": 24.875,
                "end_time": 25.025,
                "pitch": 33,
                "velocity": 101,
                "duration": 0.15,
                "tempo": 120.0
            },
            {
                "start_time": 25.0431818,
                "end_time": 25.1909091,
                "pitch": 28,
                "velocity": 101,
                "duration": 0.1477273,
                "tempo": 120.0
            },
            {
                "start_time": 25.225,
                "end_time": 25.375,
                "pitch": 33,
                "velocity": 101,
                "duration": 0.15,
                "tempo": 120.0
            },
            {
                "start_time": 25.3931818,
                "end_time": 25.5431818,
                "pitch": 40,
                "velocity": 101,
                "duration": 0.15,
                "tempo": 120.0
            },
            {
                "start_time": 25.5772727,
                "end_time": 25.7272727,
                "pitch": 38,
                "velocity": 101,
                "duration": 0.15,
                "tempo": 120.0
            },
            {
                "start_time": 25.7454545,
                "end_time": 25.8954545,
                "pitch": 36,
                "velocity": 101,
                "duration": 0.15,
                "tempo": 120.0
            },
            {
                "start_time": 25.9295455,
                "end_time": 26.0772727,
                "pitch": 33,
                "velocity": 101,
                "duration": 0.1477273,
                "tempo": 120.0
            },
            {
                "start_time": 26.0954545,
                "end_time": 26.2454545,
                "pitch": 33,
                "velocity": 101,
                "duration": 0.15,
                "tempo": 120.0
            },
            {
                "start_time": 26.2795455,
                "end_time": 26.4295455,
                "pitch": 33,
                "velocity": 101,
                "duration": 0.15,
                "tempo": 120.0
            },
            {
                "start_time": 26.4636364,
                "end_time": 26.5977273,
                "pitch": 28,
                "velocity": 101,
                "duration": 0.1340909,
                "tempo": 120.0
            },
            {
                "start_time": 26.6318182,
                "end_time": 26.7795455,
                "pitch": 33,
                "velocity": 101,
                "duration": 0.1477273,
                "tempo": 120.0
            },
            {
                "start_time": 26.8159091,
                "end_time": 26.9477273,
                "pitch": 40,
                "velocity": 101,
                "duration": 0.1318182,
                "tempo": 120.0
            },
            {
                "start_time": 26.9818182,
                "end_time": 27.1318182,
                "pitch": 38,
                "velocity": 101,
                "duration": 0.15,
                "tempo": 120.0
            },
            {
                "start_time": 27.1659091,
                "end_time": 27.3,
                "pitch": 36,
                "velocity": 101,
                "duration": 0.1340909,
                "tempo": 120.0
            },
            {
                "start_time": 27.3340909,
                "end_time": 27.4840909,
                "pitch": 33,
                "velocity": 101,
                "duration": 0.15,
                "tempo": 120.0
            },
            {
                "start_time": 27.5181818,
                "end_time": 27.65,
                "pitch": 33,
                "velocity": 101,
                "duration": 0.1318182,
                "tempo": 120.0
            },
            {
                "start_time": 27.6840909,
                "end_time": 27.8340909,
                "pitch": 33,
                "velocity": 101,
                "duration": 0.15,
                "tempo": 120.0
            },
            {
                "start_time": 27.8681818,
                "end_time": 28.0022727,
                "pitch": 28,
                "velocity": 101,
                "duration": 0.1340909,
                "tempo": 120.0
            },
            {
                "start_time": 28.0363636,
                "end_time": 28.1863636,
                "pitch": 33,
                "velocity": 101,
                "duration": 0.15,
                "tempo": 120.0
            },
            {
                "start_time": 28.2204545,
                "end_time": 28.3522727,
                "pitch": 40,
                "velocity": 101,
                "duration": 0.1318182,
                "tempo": 120.0
            },
            {
                "start_time": 28.3863636,
                "end_time": 28.5363636,
                "pitch": 38,
                "velocity": 101,
                "duration": 0.15,
                "tempo": 120.0
            },
            {
                "start_time": 28.5704545,
                "end_time": 28.7204545,
                "pitch": 36,
                "velocity": 101,
                "duration": 0.15,
                "tempo": 120.0
            },
            {
                "start_time": 28.7409091,
                "end_time": 28.8931818,
                "pitch": 29,
                "velocity": 101,
                "duration": 0.1522727,
                "tempo": 120.0
            },
            {
                "start_time": 28.9272727,
                "end_time": 29.0818182,
                "pitch": 29,
                "velocity": 101,
                "duration": 0.1545455,
                "tempo": 120.0
            },
            {
                "start_time": 29.0977273,
                "end_time": 29.2454545,
                "pitch": 29,
                "velocity": 101,
                "duration": 0.1477273,
                "tempo": 120.0
            },
            {
                "start_time": 29.2795455,
                "end_time": 29.4227273,
                "pitch": 33,
                "velocity": 101,
                "duration": 0.1431818,
                "tempo": 120.0
            },
            {
                "start_time": 29.4409091,
                "end_time": 29.5909091,
                "pitch": 29,
                "velocity": 101,
                "duration": 0.15,
                "tempo": 120.0
            },
            {
                "start_time": 29.625,
                "end_time": 29.775,
                "pitch": 33,
                "velocity": 101,
                "duration": 0.15,
                "tempo": 120.0
            },
            {
                "start_time": 29.7909091,
                "end_time": 29.9409091,
                "pitch": 35,
                "velocity": 101,
                "duration": 0.15,
                "tempo": 120.0
            },
            {
                "start_time": 29.9772727,
                "end_time": 30.125,
                "pitch": 36,
                "velocity": 101,
                "duration": 0.1477273,
                "tempo": 120.0
            },
            {
                "start_time": 30.1431818,
                "end_time": 30.2977273,
                "pitch": 29,
                "velocity": 101,
                "duration": 0.1545455,
                "tempo": 120.0
            },
            {
                "start_time": 30.3318182,
                "end_time": 30.4863636,
                "pitch": 29,
                "velocity": 101,
                "duration": 0.1545455,
                "tempo": 120.0
            },
            {
                "start_time": 30.5045455,
                "end_time": 30.65,
                "pitch": 29,
                "velocity": 101,
                "duration": 0.1454545,
                "tempo": 120.0
            },
            {
                "start_time": 30.6840909,
                "end_time": 30.8295455,
                "pitch": 33,
                "velocity": 101,
                "duration": 0.1454545,
                "tempo": 120.0
            },
            {
                "start_time": 30.8613636,
                "end_time": 31.0022727,
                "pitch": 29,
                "velocity": 101,
                "duration": 0.1409091,
                "tempo": 120.0
            },
            {
                "start_time": 31.0386364,
                "end_time": 31.1954545,
                "pitch": 33,
                "velocity": 101,
                "duration": 0.1568182,
                "tempo": 120.0
            },
            {
                "start_time": 31.2318182,
                "end_time": 31.3659091,
                "pitch": 35,
                "velocity": 101,
                "duration": 0.1340909,
                "tempo": 120.0
            },
            {
                "start_time": 31.4,
                "end_time": 31.55,
                "pitch": 36,
                "velocity": 101,
                "duration": 0.15,
                "tempo": 120.0
            },
            {
                "start_time": 31.5840909,
                "end_time": 31.7204545,
                "pitch": 29,
                "velocity": 101,
                "duration": 0.1363636,
                "tempo": 120.0
            },
            {
                "start_time": 31.7568182,
                "end_time": 31.9090909,
                "pitch": 29,
                "velocity": 101,
                "duration": 0.1522727,
                "tempo": 120.0
            },
            {
                "start_time": 31.9454545,
                "end_time": 32.075,
                "pitch": 29,
                "velocity": 101,
                "duration": 0.1295455,
                "tempo": 120.0
            },
            {
                "start_time": 32.1090909,
                "end_time": 32.2545455,
                "pitch": 33,
                "velocity": 101,
                "duration": 0.1454545,
                "tempo": 120.0
            },
            {
                "start_time": 32.2863636,
                "end_time": 32.4204545,
                "pitch": 29,
                "velocity": 101,
                "duration": 0.1340909,
                "tempo": 120.0
            },
            {
                "start_time": 32.4545455,
                "end_time": 32.6045455,
                "pitch": 33,
                "velocity": 101,
                "duration": 0.15,
                "tempo": 120.0
            },
            {
                "start_time": 32.6363636,
                "end_time": 32.7886364,
                "pitch": 35,
                "velocity": 101,
                "duration": 0.1522727,
                "tempo": 120.0
            },
            {
                "start_time": 32.8045455,
                "end_time": 32.9545455,
                "pitch": 36,
                "velocity": 101,
                "duration": 0.15,
                "tempo": 120.0
            },
            {
                "start_time": 32.9909091,
                "end_time": 33.1431818,
                "pitch": 29,
                "velocity": 101,
                "duration": 0.1522727,
                "tempo": 120.0
            },
            {
                "start_time": 33.1613636,
                "end_time": 33.3159091,
                "pitch": 29,
                "velocity": 101,
                "duration": 0.1545455,
                "tempo": 120.0
            },
            {
                "start_time": 33.35,
                "end_time": 33.4954545,
                "pitch": 29,
                "velocity": 101,
                "duration": 0.1454545,
                "tempo": 120.0
            },
            {
                "start_time": 33.5136364,
                "end_time": 33.6590909,
                "pitch": 33,
                "velocity": 101,
                "duration": 0.1454545,
                "tempo": 120.0
            },
            {
                "start_time": 33.6909091,
                "end_time": 33.8409091,
                "pitch": 29,
                "velocity": 101,
                "duration": 0.15,
                "tempo": 120.0
            },
            {
                "start_time": 33.8590909,
                "end_time": 34.0090909,
                "pitch": 33,
                "velocity": 101,
                "duration": 0.15,
                "tempo": 120.0
            },
            {
                "start_time": 34.0431818,
                "end_time": 34.1977273,
                "pitch": 35,
                "velocity": 101,
                "duration": 0.1545455,
                "tempo": 120.0
            },
            {
                "start_time": 34.2159091,
                "end_time": 34.3704545,
                "pitch": 36,
                "velocity": 101,
                "duration": 0.1545455,
                "tempo": 120.0
            },
            {
                "start_time": 34.4068182,
                "end_time": 34.5545455,
                "pitch": 33,
                "velocity": 101,
                "duration": 0.1477273,
                "tempo": 120.0
            },
            {
                "start_time": 34.5727273,
                "end_time": 34.7227273,
                "pitch": 33,
                "velocity": 101,
                "duration": 0.15,
                "tempo": 120.0
            },
            {
                "start_time": 34.7568182,
                "end_time": 34.9068182,
                "pitch": 33,
                "velocity": 101,
                "duration": 0.15,
                "tempo": 120.0
            },
            {
                "start_time": 34.9409091,
                "end_time": 35.0727273,
                "pitch": 28,
                "velocity": 101,
                "duration": 0.1318182,
                "tempo": 120.0
            },
            {
                "start_time": 35.1068182,
                "end_time": 35.2522727,
                "pitch": 33,
                "velocity": 101,
                "duration": 0.1454545,
                "tempo": 120.0
            },
            {
                "start_time": 35.2863636,
                "end_time": 35.4159091,
                "pitch": 40,
                "velocity": 101,
                "duration": 0.1295455,
                "tempo": 120.0
            },
            {
                "start_time": 35.4477273,
                "end_time": 35.6022727,
                "pitch": 38,
                "velocity": 101,
                "duration": 0.1545455,
                "tempo": 120.0
            },
            {
                "start_time": 35.6363636,
                "end_time": 35.775,
                "pitch": 36,
                "velocity": 101,
                "duration": 0.1386364,
                "tempo": 120.0
            },
            {
                "start_time": 35.8113636,
                "end_time": 35.9590909,
                "pitch": 33,
                "velocity": 101,
                "duration": 0.1477273,
                "tempo": 120.0
            },
            {
                "start_time": 35.9931818,
                "end_time": 36.1272727,
                "pitch": 33,
                "velocity": 101,
                "duration": 0.1340909,
                "tempo": 120.0
            },
            {
                "start_time": 36.1613636,
                "end_time": 36.3113636,
                "pitch": 33,
                "velocity": 101,
                "duration": 0.15,
                "tempo": 120.0
            },
            {
                "start_time": 36.3454545,
                "end_time": 36.4772727,
                "pitch": 28,
                "velocity": 101,
                "duration": 0.1318182,
                "tempo": 120.0
            },
            {
                "start_time": 36.5113636,
                "end_time": 36.6613636,
                "pitch": 33,
                "velocity": 101,
                "duration": 0.15,
                "tempo": 120.0
            },
            {
                "start_time": 36.6954545,
                "end_time": 36.8295455,
                "pitch": 40,
                "velocity": 101,
                "duration": 0.1340909,
                "tempo": 120.0
            },
            {
                "start_time": 36.8636364,
                "end_time": 37.0136364,
                "pitch": 38,
                "velocity": 101,
                "duration": 0.15,
                "tempo": 120.0
            },
            {
                "start_time": 37.0477273,
                "end_time": 37.1977273,
                "pitch": 36,
                "velocity": 101,
                "duration": 0.15,
                "tempo": 120.0
            },
            {
                "start_time": 37.2159091,
                "end_time": 37.3659091,
                "pitch": 33,
                "velocity": 101,
                "duration": 0.15,
                "tempo": 120.0
            },
            {
                "start_time": 37.3977273,
                "end_time": 37.5477273,
                "pitch": 33,
                "velocity": 101,
                "duration": 0.15,
                "tempo": 120.0
            },
            {
                "start_time": 37.5659091,
                "end_time": 37.7159091,
                "pitch": 33,
                "velocity": 101,
                "duration": 0.15,
                "tempo": 120.0
            },
            {
                "start_time": 37.75,
                "end_time": 37.9,
                "pitch": 28,
                "velocity": 101,
                "duration": 0.15,
                "tempo": 120.0
            },
            {
                "start_time": 37.9181818,
                "end_time": 38.0681818,
                "pitch": 33,
                "velocity": 101,
                "duration": 0.15,
                "tempo": 120.0
            },
            {
                "start_time": 38.1022727,
                "end_time": 38.2522727,
                "pitch": 40,
                "velocity": 101,
                "duration": 0.15,
                "tempo": 120.0
            },
            {
                "start_time": 38.2681818,
                "end_time": 38.4181818,
                "pitch": 38,
                "velocity": 101,
                "duration": 0.15,
                "tempo": 120.0
            },
            {
                "start_time": 38.4522727,
                "end_time": 38.6022727,
                "pitch": 36,
                "velocity": 101,
                "duration": 0.15,
                "tempo": 120.0
            },
            {
                "start_time": 38.6204545,
                "end_time": 38.7704545,
                "pitch": 33,
                "velocity": 101,
                "duration": 0.15,
                "tempo": 120.0
            },
            {
                "start_time": 38.8045455,
                "end_time": 38.9545455,
                "pitch": 33,
                "velocity": 101,
                "duration": 0.15,
                "tempo": 120.0
            },
            {
                "start_time": 38.9704545,
                "end_time": 39.1204545,
                "pitch": 33,
                "velocity": 101,
                "duration": 0.15,
                "tempo": 120.0
            },
            {
                "start_time": 39.1545455,
                "end_time": 39.3045455,
                "pitch": 28,
                "velocity": 101,
                "duration": 0.15,
                "tempo": 120.0
            },
            {
                "start_time": 39.3386364,
                "end_time": 39.4795455,
                "pitch": 33,
                "velocity": 101,
                "duration": 0.1409091,
                "tempo": 120.0
            },
            {
                "start_time": 39.5159091,
                "end_time": 39.6727273,
                "pitch": 40,
                "velocity": 101,
                "duration": 0.1568182,
                "tempo": 120.0
            },
            {
                "start_time": 39.7090909,
                "end_time": 39.8431818,
                "pitch": 38,
                "velocity": 101,
                "duration": 0.1340909,
                "tempo": 120.0
            },
            {
                "start_time": 39.8772727,
                "end_time": 40.0272727,
                "pitch": 36,
                "velocity": 101,
                "duration": 0.15,
                "tempo": 120.0
            },
            {
                "start_time": 40.0636364,
                "end_time": 40.1931818,
                "pitch": 29,
                "velocity": 101,
                "duration": 0.1295455,
                "tempo": 120.0
            },
            {
                "start_time": 40.2295455,
                "end_time": 40.3772727,
                "pitch": 29,
                "velocity": 101,
                "duration": 0.1477273,
                "tempo": 120.0
            },
            {
                "start_time": 40.4113636,
                "end_time": 40.5454545,
                "pitch": 29,
                "velocity": 101,
                "duration": 0.1340909,
                "tempo": 120.0
            },
            {
                "start_time": 40.5795455,
                "end_time": 40.7295455,
                "pitch": 33,
                "velocity": 101,
                "duration": 0.15,
                "tempo": 120.0
            },
            {
                "start_time": 40.7636364,
                "end_time": 40.8977273,
                "pitch": 29,
                "velocity": 101,
                "duration": 0.1340909,
                "tempo": 120.0
            },
            {
                "start_time": 40.9318182,
                "end_time": 41.0795455,
                "pitch": 33,
                "velocity": 101,
                "duration": 0.1477273,
                "tempo": 120.0
            },
            {
                "start_time": 41.1136364,
                "end_time": 41.2477273,
                "pitch": 35,
                "velocity": 101,
                "duration": 0.1340909,
                "tempo": 120.0
            },
            {
                "start_time": 41.2818182,
                "end_time": 41.4318182,
                "pitch": 36,
                "velocity": 101,
                "duration": 0.15,
                "tempo": 120.0
            },
            {
                "start_time": 41.4659091,
                "end_time": 41.6204545,
                "pitch": 29,
                "velocity": 101,
                "duration": 0.1545455,
                "tempo": 120.0
            },
            {
                "start_time": 41.6386364,
                "end_time": 41.7909091,
                "pitch": 29,
                "velocity": 101,
                "duration": 0.1522727,
                "tempo": 120.0
            },
            {
                "start_time": 41.8272727,
                "end_time": 41.9727273,
                "pitch": 29,
                "velocity": 101,
                "duration": 0.1454545,
                "tempo": 120.0
            },
            {
                "start_time": 41.9909091,
                "end_time": 42.1363636,
                "pitch": 33,
                "velocity": 101,
                "duration": 0.1454545,
                "tempo": 120.0
            },
            {
                "start_time": 42.1681818,
                "end_time": 42.3181818,
                "pitch": 29,
                "velocity": 101,
                "duration": 0.15,
                "tempo": 120.0
            },
            {
                "start_time": 42.3363636,
                "end_time": 42.4863636,
                "pitch": 33,
                "velocity": 101,
                "duration": 0.15,
                "tempo": 120.0
            },
            {
                "start_time": 42.5181818,
                "end_time": 42.6704545,
                "pitch": 35,
                "velocity": 101,
                "duration": 0.1522727,
                "tempo": 120.0
            },
            {
                "start_time": 42.6863636,
                "end_time": 42.8363636,
                "pitch": 36,
                "velocity": 101,
                "duration": 0.15,
                "tempo": 120.0
            },
            {
                "start_time": 42.8704545,
                "end_time": 43.025,
                "pitch": 29,
                "velocity": 101,
                "duration": 0.1545455,
                "tempo": 120.0
            },
            {
                "start_time": 43.0431818,
                "end_time": 43.1977273,
                "pitch": 29,
                "velocity": 101,
                "duration": 0.1545455,
                "tempo": 120.0
            },
            {
                "start_time": 43.2318182,
                "end_time": 43.3772727,
                "pitch": 29,
                "velocity": 101,
                "duration": 0.1454545,
                "tempo": 120.0
            },
            {
                "start_time": 43.3954545,
                "end_time": 43.5409091,
                "pitch": 33,
                "velocity": 101,
                "duration": 0.1454545,
                "tempo": 120.0
            },
            {
                "start_time": 43.5727273,
                "end_time": 43.7227273,
                "pitch": 29,
                "velocity": 101,
                "duration": 0.15,
                "tempo": 120.0
            },
            {
                "start_time": 43.7590909,
                "end_time": 43.8909091,
                "pitch": 33,
                "velocity": 101,
                "duration": 0.1318182,
                "tempo": 120.0
            },
            {
                "start_time": 43.925,
                "end_time": 44.075,
                "pitch": 35,
                "velocity": 101,
                "duration": 0.15,
                "tempo": 120.0
            },
            {
                "start_time": 44.1090909,
                "end_time": 44.2431818,
                "pitch": 36,
                "velocity": 101,
                "duration": 0.1340909,
                "tempo": 120.0
            },
            {
                "start_time": 44.2772727,
                "end_time": 44.4295455,
                "pitch": 29,
                "velocity": 101,
                "duration": 0.1522727,
                "tempo": 120.0
            },
            {
                "start_time": 44.4659091,
                "end_time": 44.6022727,
                "pitch": 29,
                "velocity": 101,
                "duration": 0.1363636,
                "tempo": 120.0
            },
            {
                "start_time": 44.6363636,
                "end_time": 44.7840909,
                "pitch": 29,
                "velocity": 101,
                "duration": 0.1477273,
                "tempo": 120.0
            },
            {
                "start_time": 44.8159091,
                "end_time": 44.9454545,
                "pitch": 33,
                "velocity": 101,
                "duration": 0.1295455,
                "tempo": 120.0
            },
            {
                "start_time": 44.9772727,
                "end_time": 45.1295455,
                "pitch": 29,
                "velocity": 101,
                "duration": 0.1522727,
                "tempo": 120.0
            },
            {
                "start_time": 45.1636364,
                "end_time": 45.2954545,
                "pitch": 33,
                "velocity": 101,
                "duration": 0.1318182,
                "tempo": 120.0
            },
            {
                "start_time": 45.3295455,
                "end_time": 45.4840909,
                "pitch": 35,
                "velocity": 101,
                "duration": 0.1545455,
                "tempo": 120.0
            },
            {
                "start_time": 45.5204545,
                "end_time": 45.6727273,
                "pitch": 36,
                "velocity": 101,
                "duration": 0.1522727,
                "tempo": 120.0
            },
            {
                "start_time": 45.6931818,
                "end_time": 45.8409091,
                "pitch": 28,
                "velocity": 101,
                "duration": 0.1477273,
                "tempo": 120.0
            },
            {
                "start_time": 45.875,
                "end_time": 46.025,
                "pitch": 28,
                "velocity": 101,
                "duration": 0.15,
                "tempo": 120.0
            },
            {
                "start_time": 46.0431818,
                "end_time": 46.1931818,
                "pitch": 28,
                "velocity": 101,
                "duration": 0.15,
                "tempo": 120.0
            },
            {
                "start_time": 46.2272727,
                "end_time": 46.3772727,
                "pitch": 35,
                "velocity": 101,
                "duration": 0.15,
                "tempo": 120.0
            },
            {
                "start_time": 46.3931818,
                "end_time": 46.5409091,
                "pitch": 28,
                "velocity": 101,
                "duration": 0.1477273,
                "tempo": 120.0
            },
            {
                "start_time": 46.5727273,
                "end_time": 46.7181818,
                "pitch": 38,
                "velocity": 101,
                "duration": 0.1454545,
                "tempo": 120.0
            },
            {
                "start_time": 46.7363636,
                "end_time": 46.8886364,
                "pitch": 36,
                "velocity": 101,
                "duration": 0.1522727,
                "tempo": 120.0
            },
            {
                "start_time": 46.925,
                "end_time": 47.0795455,
                "pitch": 35,
                "velocity": 101,
                "duration": 0.1545455,
                "tempo": 120.0
            },
            {
                "start_time": 47.0977273,
                "end_time": 47.2477273,
                "pitch": 28,
                "velocity": 101,
                "duration": 0.15,
                "tempo": 120.0
            },
            {
                "start_time": 47.2818182,
                "end_time": 47.4318182,
                "pitch": 28,
                "velocity": 101,
                "duration": 0.15,
                "tempo": 120.0
            },
            {
                "start_time": 47.4477273,
                "end_time": 47.5977273,
                "pitch": 28,
                "velocity": 101,
                "duration": 0.15,
                "tempo": 120.0
            },
            {
                "start_time": 47.6318182,
                "end_time": 47.7818182,
                "pitch": 35,
                "velocity": 101,
                "duration": 0.15,
                "tempo": 120.0
            },
            {
                "start_time": 47.8159091,
                "end_time": 47.9522727,
                "pitch": 28,
                "velocity": 101,
                "duration": 0.1363636,
                "tempo": 120.0
            },
            {
                "start_time": 47.9886364,
                "end_time": 48.1431818,
                "pitch": 38,
                "velocity": 101,
                "duration": 0.1545455,
                "tempo": 120.0
            },
            {
                "start_time": 48.1772727,
                "end_time": 48.3159091,
                "pitch": 36,
                "velocity": 101,
                "duration": 0.1386364,
                "tempo": 120.0
            },
            {
                "start_time": 48.35,
                "end_time": 48.5045455,
                "pitch": 35,
                "velocity": 101,
                "duration": 0.1545455,
                "tempo": 120.0
            },
            {
                "start_time": 48.5409091,
                "end_time": 48.6727273,
                "pitch": 28,
                "velocity": 101,
                "duration": 0.1318182,
                "tempo": 120.0
            },
            {
                "start_time": 48.7068182,
                "end_time": 48.8568182,
                "pitch": 28,
                "velocity": 101,
                "duration": 0.15,
                "tempo": 120.0
            },
            {
                "start_time": 48.8909091,
                "end_time": 49.025,
                "pitch": 28,
                "velocity": 101,
                "duration": 0.1340909,
                "tempo": 120.0
            },
            {
                "start_time": 49.0590909,
                "end_time": 49.2090909,
                "pitch": 35,
                "velocity": 101,
                "duration": 0.15,
                "tempo": 120.0
            },
            {
                "start_time": 49.2431818,
                "end_time": 49.3727273,
                "pitch": 28,
                "velocity": 101,
                "duration": 0.1295455,
                "tempo": 120.0
            },
            {
                "start_time": 49.4045455,
                "end_time": 49.55,
                "pitch": 38,
                "velocity": 101,
                "duration": 0.1454545,
                "tempo": 120.0
            },
            {
                "start_time": 49.5840909,
                "end_time": 49.7204545,
                "pitch": 36,
                "velocity": 101,
                "duration": 0.1363636,
                "tempo": 120.0
            },
            {
                "start_time": 49.7545455,
                "end_time": 49.9090909,
                "pitch": 35,
                "velocity": 101,
                "duration": 0.1545455,
                "tempo": 120.0
            },
            {
                "start_time": 49.9454545,
                "end_time": 50.0954545,
                "pitch": 28,
                "velocity": 101,
                "duration": 0.15,
                "tempo": 120.0
            },
            {
                "start_time": 50.1113636,
                "end_time": 50.2613636,
                "pitch": 28,
                "velocity": 101,
                "duration": 0.15,
                "tempo": 120.0
            },
            {
                "start_time": 50.2954545,
                "end_time": 50.4454545,
                "pitch": 28,
                "velocity": 101,
                "duration": 0.15,
                "tempo": 120.0
            },
            {
                "start_time": 50.4636364,
                "end_time": 50.6136364,
                "pitch": 35,
                "velocity": 101,
                "duration": 0.15,
                "tempo": 120.0
            },
            {
                "start_time": 50.6477273,
                "end_time": 50.7977273,
                "pitch": 28,
                "velocity": 101,
                "duration": 0.15,
                "tempo": 120.0
            },
            {
                "start_time": 50.8136364,
                "end_time": 50.9636364,
                "pitch": 38,
                "velocity": 101,
                "duration": 0.15,
                "tempo": 120.0
            },
            {
                "start_time": 50.9977273,
                "end_time": 51.1477273,
                "pitch": 36,
                "velocity": 101,
                "duration": 0.15,
                "tempo": 120.0
            },
            {
                "start_time": 51.1659091,
                "end_time": 51.3159091,
                "pitch": 35,
                "velocity": 101,
                "duration": 0.15,
                "tempo": 120.0
            },
            {
                "start_time": 51.3522727,
                "end_time": 51.5,
                "pitch": 33,
                "velocity": 101,
                "duration": 0.1477273,
                "tempo": 120.0
            },
            {
                "start_time": 51.5181818,
                "end_time": 51.6681818,
                "pitch": 33,
                "velocity": 101,
                "duration": 0.15,
                "tempo": 120.0
            },
            {
                "start_time": 51.7022727,
                "end_time": 51.8522727,
                "pitch": 33,
                "velocity": 101,
                "duration": 0.15,
                "tempo": 120.0
            },
            {
                "start_time": 51.8681818,
                "end_time": 52.0181818,
                "pitch": 28,
                "velocity": 101,
                "duration": 0.15,
                "tempo": 120.0
            },
            {
                "start_time": 52.0522727,
                "end_time": 52.2022727,
                "pitch": 33,
                "velocity": 101,
                "duration": 0.15,
                "tempo": 120.0
            },
            {
                "start_time": 52.2363636,
                "end_time": 52.3704545,
                "pitch": 40,
                "velocity": 101,
                "duration": 0.1340909,
                "tempo": 120.0
            },
            {
                "start_time": 52.4045455,
                "end_time": 52.5545455,
                "pitch": 38,
                "velocity": 101,
                "duration": 0.15,
                "tempo": 120.0
            },
            {
                "start_time": 52.5886364,
                "end_time": 52.7204545,
                "pitch": 36,
                "velocity": 101,
                "duration": 0.1318182,
                "tempo": 120.0
            },
            {
                "start_time": 52.7568182,
                "end_time": 52.9090909,
                "pitch": 33,
                "velocity": 101,
                "duration": 0.1522727,
                "tempo": 120.0
            },
            {
                "start_time": 52.9431818,
                "end_time": 53.0818182,
                "pitch": 33,
                "velocity": 101,
                "duration": 0.1386364,
                "tempo": 120.0
            },
            {
                "start_time": 53.1159091,
                "end_time": 53.2659091,
                "pitch": 33,
                "velocity": 101,
                "duration": 0.15,
                "tempo": 120.0
            },
            {
                "start_time": 53.3,
                "end_time": 53.4340909,
                "pitch": 28,
                "velocity": 101,
                "duration": 0.1340909,
                "tempo": 120.0
            },
            {
                "start_time": 53.4681818,
                "end_time": 53.6181818,
                "pitch": 33,
                "velocity": 101,
                "duration": 0.15,
                "tempo": 120.0
            },
            {
                "start_time": 53.6522727,
                "end_time": 53.7840909,
                "pitch": 40,
                "velocity": 101,
                "duration": 0.1318182,
                "tempo": 120.0
            },
            {
                "start_time": 53.8204545,
                "end_time": 53.9681818,
                "pitch": 38,
                "velocity": 101,
                "duration": 0.1477273,
                "tempo": 120.0
            },
            {
                "start_time": 54.0022727,
                "end_time": 54.1363636,
                "pitch": 36,
                "velocity": 101,
                "duration": 0.1340909,
                "tempo": 120.0
            },
            {
                "start_time": 54.1727273,
                "end_time": 54.3204545,
                "pitch": 31,
                "velocity": 101,
                "duration": 0.1477273,
                "tempo": 120.0
            },
            {
                "start_time": 54.3545455,
                "end_time": 54.5045455,
                "pitch": 31,
                "velocity": 101,
                "duration": 0.15,
                "tempo": 120.0
            },
            {
                "start_time": 54.5227273,
                "end_time": 54.6727273,
                "pitch": 31,
                "velocity": 101,
                "duration": 0.15,
                "tempo": 120.0
            },
            {
                "start_time": 54.7068182,
                "end_time": 54.8545455,
                "pitch": 35,
                "velocity": 101,
                "duration": 0.1477273,
                "tempo": 120.0
            },
            {
                "start_time": 54.8727273,
                "end_time": 55.0227273,
                "pitch": 31,
                "velocity": 101,
                "duration": 0.15,
                "tempo": 120.0
            },
            {
                "start_time": 55.0568182,
                "end_time": 55.2068182,
                "pitch": 38,
                "velocity": 101,
                "duration": 0.15,
                "tempo": 120.0
            },
            {
                "start_time": 55.225,
                "end_time": 55.375,
                "pitch": 36,
                "velocity": 101,
                "duration": 0.15,
                "tempo": 120.0
            },
            {
                "start_time": 55.4090909,
                "end_time": 55.5590909,
                "pitch": 35,
                "velocity": 101,
                "duration": 0.15,
                "tempo": 120.0
            },
            {
                "start_time": 55.575,
                "end_time": 55.725,
                "pitch": 31,
                "velocity": 101,
                "duration": 0.15,
                "tempo": 120.0
            },
            {
                "start_time": 55.7590909,
                "end_time": 55.9090909,
                "pitch": 31,
                "velocity": 101,
                "duration": 0.15,
                "tempo": 120.0
            },
            {
                "start_time": 55.9272727,
                "end_time": 56.0772727,
                "pitch": 31,
                "velocity": 101,
                "duration": 0.15,
                "tempo": 120.0
            },
            {
                "start_time": 56.1113636,
                "end_time": 56.2613636,
                "pitch": 35,
                "velocity": 101,
                "duration": 0.15,
                "tempo": 120.0
            },
            {
                "start_time": 56.2772727,
                "end_time": 56.4272727,
                "pitch": 31,
                "velocity": 101,
                "duration": 0.15,
                "tempo": 120.0
            },
            {
                "start_time": 56.4613636,
                "end_time": 56.6113636,
                "pitch": 38,
                "velocity": 101,
                "duration": 0.15,
                "tempo": 120.0
            },
            {
                "start_time": 56.6454545,
                "end_time": 56.7818182,
                "pitch": 36,
                "velocity": 101,
                "duration": 0.1363636,
                "tempo": 120.0
            },
            {
                "start_time": 56.8181818,
                "end_time": 56.9727273,
                "pitch": 35,
                "velocity": 101,
                "duration": 0.1545455,
                "tempo": 120.0
            },
            {
                "start_time": 57.0090909,
                "end_time": 57.1454545,
                "pitch": 29,
                "velocity": 101,
                "duration": 0.1363636,
                "tempo": 120.0
            },
            {
                "start_time": 57.1795455,
                "end_time": 57.3340909,
                "pitch": 29,
                "velocity": 101,
                "duration": 0.1545455,
                "tempo": 120.0
            },
            {
                "start_time": 57.3704545,
                "end_time": 57.5022727,
                "pitch": 29,
                "velocity": 101,
                "duration": 0.1318182,
                "tempo": 120.0
            },
            {
                "start_time": 57.5363636,
                "end_time": 57.6863636,
                "pitch": 33,
                "velocity": 101,
                "duration": 0.15,
                "tempo": 120.0
            },
            {
                "start_time": 57.7204545,
                "end_time": 57.8545455,
                "pitch": 29,
                "velocity": 101,
                "duration": 0.1340909,
                "tempo": 120.0
            },
            {
                "start_time": 57.8886364,
                "end_time": 58.0386364,
                "pitch": 33,
                "velocity": 101,
                "duration": 0.15,
                "tempo": 120.0
            },
            {
                "start_time": 58.0727273,
                "end_time": 58.2045455,
                "pitch": 35,
                "velocity": 101,
                "duration": 0.1318182,
                "tempo": 120.0
            },
            {
                "start_time": 58.2386364,
                "end_time": 58.3886364,
                "pitch": 36,
                "velocity": 101,
                "duration": 0.15,
                "tempo": 120.0
            },
            {
                "start_time": 58.4227273,
                "end_time": 58.5727273,
                "pitch": 29,
                "velocity": 101,
                "duration": 0.15,
                "tempo": 120.0
            },
            {
                "start_time": 58.5909091,
                "end_time": 58.7409091,
                "pitch": 29,
                "velocity": 101,
                "duration": 0.15,
                "tempo": 120.0
            },
            {
                "start_time": 58.775,
                "end_time": 58.925,
                "pitch": 29,
                "velocity": 101,
                "duration": 0.15,
                "tempo": 120.0
            },
            {
                "start_time": 58.9409091,
                "end_time": 59.0909091,
                "pitch": 33,
                "velocity": 101,
                "duration": 0.15,
                "tempo": 120.0
            },
            {
                "start_time": 59.125,
                "end_time": 59.275,
                "pitch": 29,
                "velocity": 101,
                "duration": 0.15,
                "tempo": 120.0
            },
            {
                "start_time": 59.2931818,
                "end_time": 59.4431818,
                "pitch": 33,
                "velocity": 101,
                "duration": 0.15,
                "tempo": 120.0
            },
            {
                "start_time": 59.4772727,
                "end_time": 59.6272727,
                "pitch": 35,
                "velocity": 101,
                "duration": 0.15,
                "tempo": 120.0
            },
            {
                "start_time": 59.6454545,
                "end_time": 59.7931818,
                "pitch": 36,
                "velocity": 101,
                "duration": 0.1477273,
                "tempo": 120.0
            },
            {
                "start_time": 59.8295455,
                "end_time": 59.9772727,
                "pitch": 31,
                "velocity": 101,
                "duration": 0.1477273,
                "tempo": 120.0
            },
            {
                "start_time": 59.9954545,
                "end_time": 60.1454545,
                "pitch": 31,
                "velocity": 101,
                "duration": 0.15,
                "tempo": 120.0
            },
            {
                "start_time": 60.1795455,
                "end_time": 60.3295455,
                "pitch": 31,
                "velocity": 101,
                "duration": 0.15,
                "tempo": 120.0
            },
            {
                "start_time": 60.3477273,
                "end_time": 60.4954545,
                "pitch": 35,
                "velocity": 101,
                "duration": 0.1477273,
                "tempo": 120.0
            },
            {
                "start_time": 60.5295455,
                "end_time": 60.6795455,
                "pitch": 31,
                "velocity": 101,
                "duration": 0.15,
                "tempo": 120.0
            },
            {
                "start_time": 60.7136364,
                "end_time": 60.8477273,
                "pitch": 38,
                "velocity": 101,
                "duration": 0.1340909,
                "tempo": 120.0
            },
            {
                "start_time": 60.8818182,
                "end_time": 61.0318182,
                "pitch": 36,
                "velocity": 101,
                "duration": 0.15,
                "tempo": 120.0
            },
            {
                "start_time": 61.0659091,
                "end_time": 61.2,
                "pitch": 35,
                "velocity": 101,
                "duration": 0.1340909,
                "tempo": 120.0
            },
            {
                "start_time": 61.2340909,
                "end_time": 61.3818182,
                "pitch": 31,
                "velocity": 101,
                "duration": 0.1477273,
                "tempo": 120.0
            },
            {
                "start_time": 61.4159091,
                "end_time": 61.55,
                "pitch": 31,
                "velocity": 101,
                "duration": 0.1340909,
                "tempo": 120.0
            },
            {
                "start_time": 61.5840909,
                "end_time": 61.7340909,
                "pitch": 31,
                "velocity": 101,
                "duration": 0.15,
                "tempo": 120.0
            },
            {
                "start_time": 61.7681818,
                "end_time": 61.9022727,
                "pitch": 35,
                "velocity": 101,
                "duration": 0.1340909,
                "tempo": 120.0
            },
            {
                "start_time": 61.9363636,
                "end_time": 62.0863636,
                "pitch": 31,
                "velocity": 101,
                "duration": 0.15,
                "tempo": 120.0
            },
            {
                "start_time": 62.1204545,
                "end_time": 62.2522727,
                "pitch": 38,
                "velocity": 101,
                "duration": 0.1318182,
                "tempo": 120.0
            },
            {
                "start_time": 62.2863636,
                "end_time": 62.4363636,
                "pitch": 36,
                "velocity": 101,
                "duration": 0.15,
                "tempo": 120.0
            },
            {
                "start_time": 62.4704545,
                "end_time": 62.6045455,
                "pitch": 35,
                "velocity": 101,
                "duration": 0.1340909,
                "tempo": 120.0
            },
            {
                "start_time": 62.6386364,
                "end_time": 62.7909091,
                "pitch": 33,
                "velocity": 101,
                "duration": 0.1522727,
                "tempo": 120.0
            },
            {
                "start_time": 62.8272727,
                "end_time": 62.9818182,
                "pitch": 33,
                "velocity": 101,
                "duration": 0.1545455,
                "tempo": 120.0
            },
            {
                "start_time": 63.0,
                "end_time": 63.1454545,
                "pitch": 33,
                "velocity": 101,
                "duration": 0.1454545,
                "tempo": 120.0
            },
            {
                "start_time": 63.1772727,
                "end_time": 63.3227273,
                "pitch": 28,
                "velocity": 101,
                "duration": 0.1454545,
                "tempo": 120.0
            },
            {
                "start_time": 63.3409091,
                "end_time": 63.4909091,
                "pitch": 33,
                "velocity": 101,
                "duration": 0.15,
                "tempo": 120.0
            },
            {
                "start_time": 63.525,
                "end_time": 63.675,
                "pitch": 40,
                "velocity": 101,
                "duration": 0.15,
                "tempo": 120.0
            },
            {
                "start_time": 63.6909091,
                "end_time": 63.8409091,
                "pitch": 38,
                "velocity": 101,
                "duration": 0.15,
                "tempo": 120.0
            },
            {
                "start_time": 63.875,
                "end_time": 64.025,
                "pitch": 36,
                "velocity": 101,
                "duration": 0.15,
                "tempo": 120.0
            },
            {
                "start_time": 64.0431818,
                "end_time": 64.1977273,
                "pitch": 33,
                "velocity": 101,
                "duration": 0.1545455,
                "tempo": 120.0
            },
            {
                "start_time": 64.2318182,
                "end_time": 64.3863636,
                "pitch": 33,
                "velocity": 101,
                "duration": 0.1545455,
                "tempo": 120.0
            },
            {
                "start_time": 64.4045455,
                "end_time": 64.5545455,
                "pitch": 33,
                "velocity": 101,
                "duration": 0.15,
                "tempo": 120.0
            },
            {
                "start_time": 64.5886364,
                "end_time": 64.7386364,
                "pitch": 28,
                "velocity": 101,
                "duration": 0.15,
                "tempo": 120.0
            },
            {
                "start_time": 64.7568182,
                "end_time": 64.9068182,
                "pitch": 33,
                "velocity": 101,
                "duration": 0.15,
                "tempo": 120.0
            },
            {
                "start_time": 64.9409091,
                "end_time": 65.0909091,
                "pitch": 40,
                "velocity": 101,
                "duration": 0.15,
                "tempo": 120.0
            },
            {
                "start_time": 65.125,
                "end_time": 65.2613636,
                "pitch": 38,
                "velocity": 101,
                "duration": 0.1363636,
                "tempo": 120.0
            },
            {
                "start_time": 65.2954545,
                "end_time": 65.45,
                "pitch": 36,
                "velocity": 101,
                "duration": 0.1545455,
                "tempo": 120.0
            },
            {
                "start_time": 65.4863636,
                "end_time": 65.6227273,
                "pitch": 31,
                "velocity": 101,
                "duration": 0.1363636,
                "tempo": 120.0
            },
            {
                "start_time": 65.6590909,
                "end_time": 65.8113636,
                "pitch": 31,
                "velocity": 101,
                "duration": 0.1522727,
                "tempo": 120.0
            },
            {
                "start_time": 65.8477273,
                "end_time": 65.9818182,
                "pitch": 31,
                "velocity": 101,
                "duration": 0.1340909,
                "tempo": 120.0
            },
            {
                "start_time": 66.0159091,
                "end_time": 66.1659091,
                "pitch": 35,
                "velocity": 101,
                "duration": 0.15,
                "tempo": 120.0
            },
            {
                "start_time": 66.2,
                "end_time": 66.3318182,
                "pitch": 31,
                "velocity": 101,
                "duration": 0.1318182,
                "tempo": 120.0
            },
            {
                "start_time": 66.3659091,
                "end_time": 66.5159091,
                "pitch": 38,
                "velocity": 101,
                "duration": 0.15,
                "tempo": 120.0
            },
            {
                "start_time": 66.55,
                "end_time": 66.6795455,
                "pitch": 36,
                "velocity": 101,
                "duration": 0.1295455,
                "tempo": 120.0
            },
            {
                "start_time": 66.7136364,
                "end_time": 66.8590909,
                "pitch": 35,
                "velocity": 101,
                "duration": 0.1454545,
                "tempo": 120.0
            },
            {
                "start_time": 66.8909091,
                "end_time": 67.0272727,
                "pitch": 31,
                "velocity": 101,
                "duration": 0.1363636,
                "tempo": 120.0
            },
            {
                "start_time": 67.0636364,
                "end_time": 67.2181818,
                "pitch": 31,
                "velocity": 101,
                "duration": 0.1545455,
                "tempo": 120.0
            },
            {
                "start_time": 67.2522727,
                "end_time": 67.4022727,
                "pitch": 31,
                "velocity": 101,
                "duration": 0.15,
                "tempo": 120.0
            },
            {
                "start_time": 67.4204545,
                "end_time": 67.5704545,
                "pitch": 35,
                "velocity": 101,
                "duration": 0.15,
                "tempo": 120.0
            },
            {
                "start_time": 67.6045455,
                "end_time": 67.7545455,
                "pitch": 31,
                "velocity": 101,
                "duration": 0.15,
                "tempo": 120.0
            },
            {
                "start_time": 67.7704545,
                "end_time": 67.9204545,
                "pitch": 38,
                "velocity": 101,
                "duration": 0.15,
                "tempo": 120.0
            },
            {
                "start_time": 67.9545455,
                "end_time": 68.1045455,
                "pitch": 36,
                "velocity": 101,
                "duration": 0.15,
                "tempo": 120.0
            },
            {
                "start_time": 68.1227273,
                "end_time": 68.2727273,
                "pitch": 35,
                "velocity": 101,
                "duration": 0.15,
                "tempo": 120.0
            },
            {
                "start_time": 68.3090909,
                "end_time": 68.4568182,
                "pitch": 29,
                "velocity": 101,
                "duration": 0.1477273,
                "tempo": 120.0
            },
            {
                "start_time": 68.475,
                "end_time": 68.6227273,
                "pitch": 29,
                "velocity": 101,
                "duration": 0.1477273,
                "tempo": 120.0
            },
            {
                "start_time": 68.6568182,
                "end_time": 68.8068182,
                "pitch": 29,
                "velocity": 101,
                "duration": 0.15,
                "tempo": 120.0
            },
            {
                "start_time": 68.825,
                "end_time": 68.975,
                "pitch": 33,
                "velocity": 101,
                "duration": 0.15,
                "tempo": 120.0
            },
            {
                "start_time": 69.0090909,
                "end_time": 69.1590909,
                "pitch": 29,
                "velocity": 101,
                "duration": 0.15,
                "tempo": 120.0
            },
            {
                "start_time": 69.1772727,
                "end_time": 69.3272727,
                "pitch": 33,
                "velocity": 101,
                "duration": 0.15,
                "tempo": 120.0
            },
            {
                "start_time": 69.3613636,
                "end_time": 69.5090909,
                "pitch": 35,
                "velocity": 101,
                "duration": 0.1477273,
                "tempo": 120.0
            },
            {
                "start_time": 69.5454545,
                "end_time": 69.6772727,
                "pitch": 36,
                "velocity": 101,
                "duration": 0.1318182,
                "tempo": 120.0
            },
            {
                "start_time": 69.7113636,
                "end_time": 69.8613636,
                "pitch": 29,
                "velocity": 101,
                "duration": 0.15,
                "tempo": 120.0
            },
            {
                "start_time": 69.8954545,
                "end_time": 70.0295455,
                "pitch": 29,
                "velocity": 101,
                "duration": 0.1340909,
                "tempo": 120.0
            },
            {
                "start_time": 70.0636364,
                "end_time": 70.2136364,
                "pitch": 29,
                "velocity": 101,
                "duration": 0.15,
                "tempo": 120.0
            },
            {
                "start_time": 70.2477273,
                "end_time": 70.3795455,
                "pitch": 33,
                "velocity": 101,
                "duration": 0.1318182,
                "tempo": 120.0
            },
            {
                "start_time": 70.4136364,
                "end_time": 70.5636364,
                "pitch": 29,
                "velocity": 101,
                "duration": 0.15,
                "tempo": 120.0
            },
            {
                "start_time": 70.5977273,
                "end_time": 70.7318182,
                "pitch": 33,
                "velocity": 101,
                "duration": 0.1340909,
                "tempo": 120.0
            },
            {
                "start_time": 70.7659091,
                "end_time": 70.9159091,
                "pitch": 35,
                "velocity": 101,
                "duration": 0.15,
                "tempo": 120.0
            },
            {
                "start_time": 70.95,
                "end_time": 71.0818182,
                "pitch": 36,
                "velocity": 101,
                "duration": 0.1318182,
                "tempo": 120.0
            },
            {
                "start_time": 71.1181818,
                "end_time": 71.2659091,
                "pitch": 31,
                "velocity": 101,
                "duration": 0.1477273,
                "tempo": 120.0
            },
            {
                "start_time": 71.3,
                "end_time": 71.45,
                "pitch": 31,
                "velocity": 101,
                "duration": 0.15,
                "tempo": 120.0
            },
            {
                "start_time": 71.4681818,
                "end_time": 71.6181818,
                "pitch": 31,
                "velocity": 101,
                "duration": 0.15,
                "tempo": 120.0
            },
            {
                "start_time": 71.6522727,
                "end_time": 71.8022727,
                "pitch": 35,
                "velocity": 101,
                "duration": 0.15,
                "tempo": 120.0
            },
            {
                "start_time": 71.8181818,
                "end_time": 71.9681818,
                "pitch": 31,
                "velocity": 101,
                "duration": 0.15,
                "tempo": 120.0
            },
            {
                "start_time": 72.0022727,
                "end_time": 72.1522727,
                "pitch": 38,
                "velocity": 101,
                "duration": 0.15,
                "tempo": 120.0
            },
            {
                "start_time": 72.1704545,
                "end_time": 72.3204545,
                "pitch": 36,
                "velocity": 101,
                "duration": 0.15,
                "tempo": 120.0
            },
            {
                "start_time": 72.3545455,
                "end_time": 72.5045455,
                "pitch": 35,
                "velocity": 101,
                "duration": 0.15,
                "tempo": 120.0
            },
            {
                "start_time": 72.5227273,
                "end_time": 72.6704545,
                "pitch": 31,
                "velocity": 101,
                "duration": 0.1477273,
                "tempo": 120.0
            },
            {
                "start_time": 72.7045455,
                "end_time": 72.8545455,
                "pitch": 31,
                "velocity": 101,
                "duration": 0.15,
                "tempo": 120.0
            },
            {
                "start_time": 72.8727273,
                "end_time": 73.0227273,
                "pitch": 31,
                "velocity": 101,
                "duration": 0.15,
                "tempo": 120.0
            },
            {
                "start_time": 73.0568182,
                "end_time": 73.2068182,
                "pitch": 35,
                "velocity": 101,
                "duration": 0.15,
                "tempo": 120.0
            },
            {
                "start_time": 73.2227273,
                "end_time": 73.3772727,
                "pitch": 31,
                "velocity": 101,
                "duration": 0.1545455,
                "tempo": 120.0
            },
            {
                "start_time": 73.4136364,
                "end_time": 73.5681818,
                "pitch": 38,
                "velocity": 101,
                "duration": 0.1545455,
                "tempo": 120.0
            },
            {
                "start_time": 73.6022727,
                "end_time": 73.7386364,
                "pitch": 36,
                "velocity": 101,
                "duration": 0.1363636,
                "tempo": 120.0
            },
            {
                "start_time": 73.775,
                "end_time": 73.9295455,
                "pitch": 35,
                "velocity": 101,
                "duration": 0.1545455,
                "tempo": 120.0
            },
            {
                "start_time": 73.9659091,
                "end_time": 74.0977273,
                "pitch": 33,
                "velocity": 101,
                "duration": 0.1318182,
                "tempo": 120.0
            },
            {
                "start_time": 74.1318182,
                "end_time": 74.2818182,
                "pitch": 33,
                "velocity": 101,
                "duration": 0.15,
                "tempo": 120.0
            },
            {
                "start_time": 74.3159091,
                "end_time": 74.4477273,
                "pitch": 33,
                "velocity": 101,
                "duration": 0.1318182,
                "tempo": 120.0
            },
            {
                "start_time": 74.4818182,
                "end_time": 74.6318182,
                "pitch": 28,
                "velocity": 101,
                "duration": 0.15,
                "tempo": 120.0
            },
            {
                "start_time": 74.6659091,
                "end_time": 74.8,
                "pitch": 33,
                "velocity": 101,
                "duration": 0.1340909,
                "tempo": 120.0
            },
            {
                "start_time": 74.8340909,
                "end_time": 74.9840909,
                "pitch": 40,
                "velocity": 101,
                "duration": 0.15,
                "tempo": 120.0
            },
            {
                "start_time": 75.0181818,
                "end_time": 75.15,
                "pitch": 38,
                "velocity": 101,
                "duration": 0.1318182,
                "tempo": 120.0
            },
            {
                "start_time": 75.1840909,
                "end_time": 75.3340909,
                "pitch": 36,
                "velocity": 101,
                "duration": 0.15,
                "tempo": 120.0
            },
            {
                "start_time": 75.3704545,
                "end_time": 75.5022727,
                "pitch": 33,
                "velocity": 101,
                "duration": 0.1318182,
                "tempo": 120.0
            },
            {
                "start_time": 75.5363636,
                "end_time": 75.6863636,
                "pitch": 33,
                "velocity": 101,
                "duration": 0.15,
                "tempo": 120.0
            },
            {
                "start_time": 75.7204545,
                "end_time": 75.8704545,
                "pitch": 33,
                "velocity": 101,
                "duration": 0.15,
                "tempo": 120.0
            },
            {
                "start_time": 75.8886364,
                "end_time": 76.0363636,
                "pitch": 28,
                "velocity": 101,
                "duration": 0.1477273,
                "tempo": 120.0
            },
            {
                "start_time": 76.0727273,
                "end_time": 76.2204545,
                "pitch": 33,
                "velocity": 101,
                "duration": 0.1477273,
                "tempo": 120.0
            },
            {
                "start_time": 76.2386364,
                "end_time": 76.3886364,
                "pitch": 40,
                "velocity": 101,
                "duration": 0.15,
                "tempo": 120.0
            },
            {
                "start_time": 76.4227273,
                "end_time": 76.5727273,
                "pitch": 38,
                "velocity": 101,
                "duration": 0.15,
                "tempo": 120.0
            },
            {
                "start_time": 76.5909091,
                "end_time": 76.7409091,
                "pitch": 36,
                "velocity": 101,
                "duration": 0.15,
                "tempo": 120.0
            },
            {
                "start_time": 76.775,
                "end_time": 76.9272727,
                "pitch": 33,
                "velocity": 101,
                "duration": 0.1522727,
                "tempo": 120.0
            },
            {
                "start_time": 76.9454545,
                "end_time": 77.1,
                "pitch": 33,
                "velocity": 101,
                "duration": 0.1545455,
                "tempo": 120.0
            },
            {
                "start_time": 77.1363636,
                "end_time": 77.2818182,
                "pitch": 33,
                "velocity": 101,
                "duration": 0.1454545,
                "tempo": 120.0
            },
            {
                "start_time": 77.2977273,
                "end_time": 77.4431818,
                "pitch": 28,
                "velocity": 101,
                "duration": 0.1454545,
                "tempo": 120.0
            },
            {
                "start_time": 77.4772727,
                "end_time": 77.6295455,
                "pitch": 33,
                "velocity": 101,
                "duration": 0.1522727,
                "tempo": 120.0
            },
            {
                "start_time": 77.6477273,
                "end_time": 77.8022727,
                "pitch": 40,
                "velocity": 101,
                "duration": 0.1545455,
                "tempo": 120.0
            },
            {
                "start_time": 77.8386364,
                "end_time": 77.9886364,
                "pitch": 38,
                "velocity": 101,
                "duration": 0.15,
                "tempo": 120.0
            },
            {
                "start_time": 78.0227273,
                "end_time": 78.1545455,
                "pitch": 36,
                "velocity": 101,
                "duration": 0.1318182,
                "tempo": 120.0
            },
            {
                "start_time": 78.1909091,
                "end_time": 78.3386364,
                "pitch": 33,
                "velocity": 101,
                "duration": 0.1477273,
                "tempo": 120.0
            },
            {
                "start_time": 78.3727273,
                "end_time": 78.5068182,
                "pitch": 33,
                "velocity": 101,
                "duration": 0.1340909,
                "tempo": 120.0
            },
            {
                "start_time": 78.5409091,
                "end_time": 78.6909091,
                "pitch": 33,
                "velocity": 101,
                "duration": 0.15,
                "tempo": 120.0
            },
            {
                "start_time": 78.725,
                "end_time": 78.8568182,
                "pitch": 28,
                "velocity": 101,
                "duration": 0.1318182,
                "tempo": 120.0
            },
            {
                "start_time": 78.8931818,
                "end_time": 79.0409091,
                "pitch": 33,
                "velocity": 101,
                "duration": 0.1477273,
                "tempo": 120.0
            },
            {
                "start_time": 79.075,
                "end_time": 79.2090909,
                "pitch": 40,
                "velocity": 101,
                "duration": 0.1340909,
                "tempo": 120.0
            },
            {
                "start_time": 79.2431818,
                "end_time": 79.3931818,
                "pitch": 38,
                "velocity": 101,
                "duration": 0.15,
                "tempo": 120.0
            },
            {
                "start_time": 79.4272727,
                "end_time": 79.5590909,
                "pitch": 36,
                "velocity": 101,
                "duration": 0.1318182,
                "tempo": 120.0
            },
            {
                "start_time": 79.5977273,
                "end_time": 79.6795455,
                "pitch": 33,
                "velocity": 101,
                "duration": 0.0818182,
                "tempo": 120.0
            }
        ]
    }
}