{
    "mood": "angry",
    "instruments": {
        "Lead 2 (sawtooth)": [
            {
                "start_time": 0.125,
                "end_time": 0.4204545,
                "pitch": 69,
                "velocity": 64,
                "duration": 0.2954545,
                "tempo": 120.0
            },
            {
                "start_time": 0.4204545,
                "end_time": 0.6931818,
                "pitch": 71,
                "velocity": 64,
                "duration": 0.2727273,
                "tempo": 120.0
            },
            {
                "start_time": 0.6931818,
                "end_time": 1.0795455,
                "pitch": 72,
                "velocity": 64,
                "duration": 0.3863636,
                "tempo": 120.0
            },
            {
                "start_time": 1.0795455,
                "end_time": 1.2681818,
                "pitch": 71,
                "velocity": 64,
                "duration": 0.1886364,
                "tempo": 120.0
            },
            {
                "start_time": 0.6931818,
                "end_time": 1.2681818,
                "pitch": 76,
                "velocity": 64,
                "duration": 0.575,
                "tempo": 120.0
            },
            {
                "start_time": 1.2681818,
                "end_time": 1.3613636,
                "pitch": 72,
                "velocity": 64,
                "duration": 0.0931818,
                "tempo": 120.0
            },
            {
                "start_time": 1.3613636,
                "end_time": 1.6454545,
                "pitch": 74,
                "velocity": 64,
                "duration": 0.2840909,
                "tempo": 120.0
            },
            {
                "start_time": 1.3613636,
                "end_time": 1.6454545,
                "pitch": 74,
                "velocity": 64,
                "duration": 0.2840909,
                "tempo": 120.0
            },
            {
                "start_time": 1.6454545,
                "end_time": 1.8477273,
                "pitch": 72,
                "velocity": 64,
                "duration": 0.2022727,
                "tempo": 120.0
            },
            {
                "start_time": 1.6454545,
                "end_time": 1.8477273,
                "pitch": 72,
                "velocity": 64,
                "duration": 0.2022727,
                "tempo": 120.0
            },
            {
                "start_time": 1.9272727,
                "end_time": 2.1295455,
                "pitch": 71,
                "velocity": 64,
                "duration": 0.2022727,
                "tempo": 120.0
            },
            {
                "start_time": 2.2113636,
                "end_time": 3.2409091,
                "pitch": 69,
                "velocity": 64,
                "duration": 1.0295455,
                "tempo": 120.0
            },
            {
                "start_time": 3.2409091,
                "end_time": 3.5386364,
                "pitch": 69,
                "velocity": 64,
                "duration": 0.2977273,
                "tempo": 120.0
            },
            {
                "start_time": 3.5386364,
                "end_time": 3.8340909,
                "pitch": 71,
                "velocity": 64,
                "duration": 0.2954545,
                "tempo": 120.0
            },
            {
                "start_time": 1.2681818,
                "end_time": 3.8340909,
                "pitch": 76,
                "velocity": 64,
                "duration": 2.5659091,
                "tempo": 120.0
            },
            {
                "start_time": 3.8340909,
                "end_time": 4.2340909,
                "pitch": 72,
                "velocity": 64,
                "duration": 0.4,
                "tempo": 120.0
            },
            {
                "start_time": 1.0795455,
                "end_time": 4.2363636,
                "pitch": 56,
                "velocity": 64,
                "duration": 3.1568182,
                "tempo": 120.0
            },
            {
                "start_time": 4.2340909,
                "end_time": 4.2363636,
                "pitch": 56,
                "velocity": 64,
                "duration": 0.0022727,
                "tempo": 120.0
            },
            {
                "start_time": 4.2363636,
                "end_time": 4.4363636,
                "pitch": 71,
                "velocity": 64,
                "duration": 0.2,
                "tempo": 120.0
            },
            {
                "start_time": 3.8340909,
                "end_time": 4.4386364,
                "pitch": 76,
                "velocity": 64,
                "duration": 0.6045455,
                "tempo": 120.0
            },
            {
                "start_time": 4.4363636,
                "end_time": 4.4386364,
                "pitch": 76,
                "velocity": 64,
                "duration": 0.0022727,
                "tempo": 120.0
            },
            {
                "start_time": 4.4386364,
                "end_time": 4.5386364,
                "pitch": 72,
                "velocity": 64,
                "duration": 0.1,
                "tempo": 120.0
            },
            {
                "start_time": 4.5386364,
                "end_time": 4.8477273,
                "pitch": 74,
                "velocity": 64,
                "duration": 0.3090909,
                "tempo": 120.0
            },
            {
                "start_time": 4.5386364,
                "end_time": 4.8477273,
                "pitch": 74,
                "velocity": 64,
                "duration": 0.3090909,
                "tempo": 120.0
            },
            {
                "start_time": 4.8477273,
                "end_time": 5.0636364,
                "pitch": 72,
                "velocity": 64,
                "duration": 0.2159091,
                "tempo": 120.0
            },
            {
                "start_time": 4.8477273,
                "end_time": 5.0636364,
                "pitch": 72,
                "velocity": 64,
                "duration": 0.2159091,
                "tempo": 120.0
            },
            {
                "start_time": 5.1454545,
                "end_time": 5.3545455,
                "pitch": 71,
                "velocity": 64,
                "duration": 0.2090909,
                "tempo": 120.0
            },
            {
                "start_time": 5.4409091,
                "end_time": 6.4045455,
                "pitch": 72,
                "velocity": 64,
                "duration": 0.9636364,
                "tempo": 120.0
            },
            {
                "start_time": 6.4045455,
                "end_time": 6.7045455,
                "pitch": 72,
                "velocity": 80,
                "duration": 0.3,
                "tempo": 120.0
            },
            {
                "start_time": 6.7045455,
                "end_time": 6.9954545,
                "pitch": 74,
                "velocity": 80,
                "duration": 0.2909091,
                "tempo": 120.0
            },
            {
                "start_time": 6.7045455,
                "end_time": 6.9954545,
                "pitch": 74,
                "velocity": 80,
                "duration": 0.2909091,
                "tempo": 120.0
            },
            {
                "start_time": 6.9954545,
                "end_time": 7.4,
                "pitch": 76,
                "velocity": 80,
                "duration": 0.4045455,
                "tempo": 120.0
            },
            {
                "start_time": 6.9954545,
                "end_time": 7.4,
                "pitch": 76,
                "velocity": 80,
                "duration": 0.4045455,
                "tempo": 120.0
            },
            {
                "start_time": 7.4,
                "end_time": 7.6090909,
                "pitch": 74,
                "velocity": 80,
                "duration": 0.2090909,
                "tempo": 120.0
            },
            {
                "start_time": 7.4,
                "end_time": 7.6090909,
                "pitch": 74,
                "velocity": 80,
                "duration": 0.2090909,
                "tempo": 120.0
            },
            {
                "start_time": 7.6090909,
                "end_time": 7.7090909,
                "pitch": 76,
                "velocity": 80,
                "duration": 0.1,
                "tempo": 120.0
            },
            {
                "start_time": 7.6090909,
                "end_time": 7.7090909,
                "pitch": 76,
                "velocity": 80,
                "duration": 0.1,
                "tempo": 120.0
            },
            {
                "start_time": 7.7090909,
                "end_time": 8.0113636,
                "pitch": 77,
                "velocity": 80,
                "duration": 0.3022727,
                "tempo": 120.0
            },
            {
                "start_time": 8.0113636,
                "end_time": 8.2272727,
                "pitch": 76,
                "velocity": 80,
                "duration": 0.2159091,
                "tempo": 120.0
            },
            {
                "start_time": 8.3113636,
                "end_time": 8.5204545,
                "pitch": 74,
                "velocity": 80,
                "duration": 0.2090909,
                "tempo": 120.0
            },
            {
                "start_time": 8.6045455,
                "end_time": 9.6181818,
                "pitch": 72,
                "velocity": 80,
                "duration": 1.0136364,
                "tempo": 120.0
            },
            {
                "start_time": 9.6181818,
                "end_time": 9.9181818,
                "pitch": 72,
                "velocity": 80,
                "duration": 0.3,
                "tempo": 120.0
            },
            {
                "start_time": 9.9181818,
                "end_time": 10.2113636,
                "pitch": 74,
                "velocity": 80,
                "duration": 0.2931818,
                "tempo": 120.0
            },
            {
                "start_time": 9.9181818,
                "end_time": 10.2113636,
                "pitch": 74,
                "velocity": 80,
                "duration": 0.2931818,
                "tempo": 120.0
            },
            {
                "start_time": 10.2113636,
                "end_time": 10.6159091,
                "pitch": 76,
                "velocity": 80,
                "duration": 0.4045455,
                "tempo": 120.0
            },
            {
                "start_time": 10.2113636,
                "end_time": 10.6159091,
                "pitch": 76,
                "velocity": 80,
                "duration": 0.4045455,
                "tempo": 120.0
            },
            {
                "start_time": 10.6159091,
                "end_time": 10.8227273,
                "pitch": 74,
                "velocity": 80,
                "duration": 0.2068182,
                "tempo": 120.0
            },
            {
                "start_time": 10.6159091,
                "end_time": 10.8227273,
                "pitch": 74,
                "velocity": 80,
                "duration": 0.2068182,
                "tempo": 120.0
            },
            {
                "start_time": 10.8227273,
                "end_time": 10.925,
                "pitch": 76,
                "velocity": 80,
                "duration": 0.1022727,
                "tempo": 120.0
            },
            {
                "start_time": 10.8227273,
                "end_time": 10.925,
                "pitch": 76,
                "velocity": 80,
                "duration": 0.1022727,
                "tempo": 120.0
            },
            {
                "start_time": 10.925,
                "end_time": 11.225,
                "pitch": 77,
                "velocity": 80,
                "duration": 0.3,
                "tempo": 120.0
            },
            {
                "start_time": 11.225,
                "end_time": 11.4431818,
                "pitch": 76,
                "velocity": 80,
                "duration": 0.2181818,
                "tempo": 120.0
            },
            {
                "start_time": 11.525,
                "end_time": 11.7340909,
                "pitch": 74,
                "velocity": 80,
                "duration": 0.2090909,
                "tempo": 120.0
            },
            {
                "start_time": 11.8181818,
                "end_time": 36.9568182,
                "pitch": 76,
                "velocity": 80,
                "duration": 25.1386364,
                "tempo": 120.0
            },
            {
                "start_time": 36.9568182,
                "end_time": 37.2136364,
                "pitch": 76,
                "velocity": 64,
                "duration": 0.2568182,
                "tempo": 120.0
            },
            {
                "start_time": 37.2136364,
                "end_time": 37.3431818,
                "pitch": 74,
                "velocity": 64,
                "duration": 0.1295455,
                "tempo": 120.0
            },
            {
                "start_time": 37.2136364,
                "end_time": 37.3431818,
                "pitch": 74,
                "velocity": 64,
                "duration": 0.1295455,
                "tempo": 120.0
            },
            {
                "start_time": 37.3431818,
                "end_time": 38.2204545,
                "pitch": 72,
                "velocity": 64,
                "duration": 0.8772727,
                "tempo": 120.0
            },
            {
                "start_time": 37.3431818,
                "end_time": 38.2204545,
                "pitch": 72,
                "velocity": 64,
                "duration": 0.8772727,
                "tempo": 120.0
            },
            {
                "start_time": 38.2204545,
                "end_time": 38.4727273,
                "pitch": 64,
                "velocity": 64,
                "duration": 0.2522727,
                "tempo": 120.0
            },
            {
                "start_time": 38.4727273,
                "end_time": 38.5954545,
                "pitch": 67,
                "velocity": 64,
                "duration": 0.1227273,
                "tempo": 120.0
            },
            {
                "start_time": 38.2204545,
                "end_time": 38.9727273,
                "pitch": 76,
                "velocity": 64,
                "duration": 0.7522727,
                "tempo": 120.0
            },
            {
                "start_time": 38.5977273,
                "end_time": 38.9727273,
                "pitch": 76,
                "velocity": 64,
                "duration": 0.375,
                "tempo": 120.0
            },
            {
                "start_time": 38.9727273,
                "end_time": 39.2227273,
                "pitch": 74,
                "velocity": 64,
                "duration": 0.25,
                "tempo": 120.0
            },
            {
                "start_time": 38.9727273,
                "end_time": 39.2227273,
                "pitch": 74,
                "velocity": 64,
                "duration": 0.25,
                "tempo": 120.0
            },
            {
                "start_time": 39.2227273,
                "end_time": 39.3477273,
                "pitch": 71,
                "velocity": 64,
                "duration": 0.125,
                "tempo": 120.0
            },
            {
                "start_time": 39.3477273,
                "end_time": 40.2227273,
                "pitch": 67,
                "velocity": 64,
                "duration": 0.875,
                "tempo": 120.0
            },
            {
                "start_time": 39.3477273,
                "end_time": 40.2227273,
                "pitch": 67,
                "velocity": 64,
                "duration": 0.875,
                "tempo": 120.0
            },
            {
                "start_time": 38.5954545,
                "end_time": 40.2227273,
                "pitch": 78,
                "velocity": 64,
                "duration": 1.6272727,
                "tempo": 120.0
            },
            {
                "start_time": 40.2227273,
                "end_time": 40.475,
                "pitch": 64,
                "velocity": 64,
                "duration": 0.2522727,
                "tempo": 120.0
            },
            {
                "start_time": 40.475,
                "end_time": 40.6,
                "pitch": 67,
                "velocity": 64,
                "duration": 0.125,
                "tempo": 120.0
            },
            {
                "start_time": 40.6022727,
                "end_time": 40.9772727,
                "pitch": 74,
                "velocity": 64,
                "duration": 0.375,
                "tempo": 120.0
            },
            {
                "start_time": 40.9772727,
                "end_time": 41.2295455,
                "pitch": 72,
                "velocity": 64,
                "duration": 0.2522727,
                "tempo": 120.0
            },
            {
                "start_time": 40.9772727,
                "end_time": 41.2295455,
                "pitch": 72,
                "velocity": 64,
                "duration": 0.2522727,
                "tempo": 120.0
            },
            {
                "start_time": 41.2295455,
                "end_time": 41.3545455,
                "pitch": 69,
                "velocity": 64,
                "duration": 0.125,
                "tempo": 120.0
            },
            {
                "start_time": 40.2227273,
                "end_time": 41.3545455,
                "pitch": 78,
                "velocity": 64,
                "duration": 1.1318182,
                "tempo": 120.0
            },
            {
                "start_time": 41.3545455,
                "end_time": 42.2295455,
                "pitch": 65,
                "velocity": 64,
                "duration": 0.875,
                "tempo": 120.0
            },
            {
                "start_time": 42.2295455,
                "end_time": 42.4818182,
                "pitch": 62,
                "velocity": 64,
                "duration": 0.2522727,
                "tempo": 120.0
            },
            {
                "start_time": 42.2295455,
                "end_time": 42.4818182,
                "pitch": 62,
                "velocity": 64,
                "duration": 0.2522727,
                "tempo": 120.0
            },
            {
                "start_time": 42.4818182,
                "end_time": 42.6045455,
                "pitch": 65,
                "velocity": 64,
                "duration": 0.1227273,
                "tempo": 120.0
            },
            {
                "start_time": 42.4818182,
                "end_time": 42.6045455,
                "pitch": 65,
                "velocity": 64,
                "duration": 0.1227273,
                "tempo": 120.0
            },
            {
                "start_time": 39.2227273,
                "end_time": 42.9840909,
                "pitch": 56,
                "velocity": 64,
                "duration": 3.7613636,
                "tempo": 120.0
            },
            {
                "start_time": 42.6068182,
                "end_time": 42.9840909,
                "pitch": 72,
                "velocity": 64,
                "duration": 0.3772727,
                "tempo": 120.0
            },
            {
                "start_time": 42.9840909,
                "end_time": 43.1318182,
                "pitch": 71,
                "velocity": 64,
                "duration": 0.1477273,
                "tempo": 120.0
            },
            {
                "start_time": 42.9840909,
                "end_time": 43.3704545,
                "pitch": 56,
                "velocity": 64,
                "duration": 0.3863636,
                "tempo": 120.0
            },
            {
                "start_time": 43.2431818,
                "end_time": 43.3704545,
                "pitch": 72,
                "velocity": 64,
                "duration": 0.1272727,
                "tempo": 120.0
            },
            {
                "start_time": 43.3704545,
                "end_time": 43.5136364,
                "pitch": 71,
                "velocity": 64,
                "duration": 0.1431818,
                "tempo": 120.0
            },
            {
                "start_time": 43.6204545,
                "end_time": 43.7636364,
                "pitch": 72,
                "velocity": 64,
                "duration": 0.1431818,
                "tempo": 120.0
            },
            {
                "start_time": 43.8727273,
                "end_time": 44.2454545,
                "pitch": 76,
                "velocity": 64,
                "duration": 0.3727273,
                "tempo": 120.0
            },
            {
                "start_time": 44.2454545,
                "end_time": 44.4977273,
                "pitch": 74,
                "velocity": 64,
                "duration": 0.2522727,
                "tempo": 120.0
            },
            {
                "start_time": 44.2454545,
                "end_time": 44.4977273,
                "pitch": 74,
                "velocity": 64,
                "duration": 0.2522727,
                "tempo": 120.0
            },
            {
                "start_time": 43.3704545,
                "end_time": 44.7477273,
                "pitch": 56,
                "velocity": 64,
                "duration": 1.3772727,
                "tempo": 120.0
            },
            {
                "start_time": 44.4977273,
                "end_time": 44.7477273,
                "pitch": 72,
                "velocity": 64,
                "duration": 0.25,
                "tempo": 120.0
            },
            {
                "start_time": 44.4977273,
                "end_time": 44.7477273,
                "pitch": 72,
                "velocity": 64,
                "duration": 0.25,
                "tempo": 120.0
            }
        ],
        "French Horn": [
            {
                "start_time": 12.9022727,
                "end_time": 13.1931818,
                "pitch": 64,
                "velocity": 64,
                "duration": 0.2909091,
                "tempo": 120.0
            },
            {
                "start_time": 13.1931818,
                "end_time": 13.5704545,
                "pitch": 62,
                "velocity": 64,
                "duration": 0.3772727,
                "tempo": 120.0
            },
            {
                "start_time": 13.5704545,
                "end_time": 13.8204545,
                "pitch": 60,
                "velocity": 64,
                "duration": 0.25,
                "tempo": 120.0
            },
            {
                "start_time": 13.5704545,
                "end_time": 13.8204545,
                "pitch": 60,
                "velocity": 64,
                "duration": 0.25,
                "tempo": 120.0
            },
            {
                "start_time": 13.8204545,
                "end_time": 13.8227273,
                "pitch": 65,
                "velocity": 64,
                "duration": 0.0022727,
                "tempo": 120.0
            },
            {
                "start_time": 13.8227273,
                "end_time": 14.1977273,
                "pitch": 65,
                "velocity": 64,
                "duration": 0.375,
                "tempo": 120.0
            },
            {
                "start_time": 14.1977273,
                "end_time": 14.575,
                "pitch": 62,
                "velocity": 64,
                "duration": 0.3772727,
                "tempo": 120.0
            },
            {
                "start_time": 14.1977273,
                "end_time": 14.575,
                "pitch": 62,
                "velocity": 64,
                "duration": 0.3772727,
                "tempo": 120.0
            },
            {
                "start_time": 14.575,
                "end_time": 14.8272727,
                "pitch": 59,
                "velocity": 64,
                "duration": 0.2522727,
                "tempo": 120.0
            },
            {
                "start_time": 14.8272727,
                "end_time": 15.2045455,
                "pitch": 56,
                "velocity": 64,
                "duration": 0.3772727,
                "tempo": 120.0
            },
            {
                "start_time": 14.8272727,
                "end_time": 15.2045455,
                "pitch": 56,
                "velocity": 64,
                "duration": 0.3772727,
                "tempo": 120.0
            },
            {
                "start_time": 15.2045455,
                "end_time": 15.5840909,
                "pitch": 59,
                "velocity": 64,
                "duration": 0.3795455,
                "tempo": 120.0
            },
            {
                "start_time": 15.2045455,
                "end_time": 15.5840909,
                "pitch": 59,
                "velocity": 64,
                "duration": 0.3795455,
                "tempo": 120.0
            },
            {
                "start_time": 15.5840909,
                "end_time": 15.8363636,
                "pitch": 60,
                "velocity": 64,
                "duration": 0.2522727,
                "tempo": 120.0
            },
            {
                "start_time": 15.8363636,
                "end_time": 16.2136364,
                "pitch": 62,
                "velocity": 64,
                "duration": 0.3772727,
                "tempo": 120.0
            },
            {
                "start_time": 15.8363636,
                "end_time": 16.2136364,
                "pitch": 62,
                "velocity": 64,
                "duration": 0.3772727,
                "tempo": 120.0
            },
            {
                "start_time": 15.5840909,
                "end_time": 16.5886364,
                "pitch": 64,
                "velocity": 64,
                "duration": 1.0045455,
                "tempo": 120.0
            },
            {
                "start_time": 16.2136364,
                "end_time": 16.5886364,
                "pitch": 64,
                "velocity": 64,
                "duration": 0.375,
                "tempo": 120.0
            },
            {
                "start_time": 16.5886364,
                "end_time": 16.8409091,
                "pitch": 65,
                "velocity": 64,
                "duration": 0.2522727,
                "tempo": 120.0
            },
            {
                "start_time": 16.8409091,
                "end_time": 17.2181818,
                "pitch": 64,
                "velocity": 64,
                "duration": 0.3772727,
                "tempo": 120.0
            },
            {
                "start_time": 17.2181818,
                "end_time": 17.5931818,
                "pitch": 62,
                "velocity": 64,
                "duration": 0.375,
                "tempo": 120.0
            },
            {
                "start_time": 14.575,
                "end_time": 17.8431818,
                "pitch": 44,
                "velocity": 64,
                "duration": 3.2681818,
                "tempo": 120.0
            },
            {
                "start_time": 17.5931818,
                "end_time": 17.8431818,
                "pitch": 60,
                "velocity": 64,
                "duration": 0.25,
                "tempo": 120.0
            },
            {
                "start_time": 17.5931818,
                "end_time": 17.8431818,
                "pitch": 60,
                "velocity": 64,
                "duration": 0.25,
                "tempo": 120.0
            },
            {
                "start_time": 17.8454545,
                "end_time": 18.2204545,
                "pitch": 59,
                "velocity": 64,
                "duration": 0.375,
                "tempo": 120.0
            },
            {
                "start_time": 18.2204545,
                "end_time": 18.5977273,
                "pitch": 57,
                "velocity": 64,
                "duration": 0.3772727,
                "tempo": 120.0
            },
            {
                "start_time": 18.5977273,
                "end_time": 18.85,
                "pitch": 59,
                "velocity": 64,
                "duration": 0.2522727,
                "tempo": 120.0
            },
            {
                "start_time": 17.8431818,
                "end_time": 19.225,
                "pitch": 44,
                "velocity": 64,
                "duration": 1.3818182,
                "tempo": 120.0
            },
            {
                "start_time": 18.85,
                "end_time": 19.225,
                "pitch": 65,
                "velocity": 64,
                "duration": 0.375,
                "tempo": 120.0
            },
            {
                "start_time": 19.225,
                "end_time": 19.6090909,
                "pitch": 59,
                "velocity": 64,
                "duration": 0.3840909,
                "tempo": 120.0
            },
            {
                "start_time": 19.6090909,
                "end_time": 19.8659091,
                "pitch": 56,
                "velocity": 64,
                "duration": 0.2568182,
                "tempo": 120.0
            },
            {
                "start_time": 19.6113636,
                "end_time": 19.8659091,
                "pitch": 56,
                "velocity": 64,
                "duration": 0.2545455,
                "tempo": 120.0
            },
            {
                "start_time": 18.85,
                "end_time": 19.8659091,
                "pitch": 66,
                "velocity": 64,
                "duration": 1.0159091,
                "tempo": 120.0
            },
            {
                "start_time": 19.8659091,
                "end_time": 51.4477273,
                "pitch": 52,
                "velocity": 64,
                "duration": 31.5818182,
                "tempo": 120.0
            },
            {
                "start_time": 51.45,
                "end_time": 51.5477273,
                "pitch": 67,
                "velocity": 51,
                "duration": 0.0977273,
                "tempo": 120.0
            },
            {
                "start_time": 51.5477273,
                "end_time": 51.65,
                "pitch": 65,
                "velocity": 51,
                "duration": 0.1022727,
                "tempo": 120.0
            },
            {
                "start_time": 51.65,
                "end_time": 51.75,
                "pitch": 64,
                "velocity": 51,
                "duration": 0.1,
                "tempo": 120.0
            },
            {
                "start_time": 51.75,
                "end_time": 51.85,
                "pitch": 65,
                "velocity": 51,
                "duration": 0.1,
                "tempo": 120.0
            },
            {
                "start_time": 51.85,
                "end_time": 51.95,
                "pitch": 64,
                "velocity": 51,
                "duration": 0.1,
                "tempo": 120.0
            },
            {
                "start_time": 51.95,
                "end_time": 52.05,
                "pitch": 62,
                "velocity": 51,
                "duration": 0.1,
                "tempo": 120.0
            },
            {
                "start_time": 52.05,
                "end_time": 52.15,
                "pitch": 64,
                "velocity": 51,
                "duration": 0.1,
                "tempo": 120.0
            },
            {
                "start_time": 52.15,
                "end_time": 52.2522727,
                "pitch": 62,
                "velocity": 51,
                "duration": 0.1022727,
                "tempo": 120.0
            },
            {
                "start_time": 52.2522727,
                "end_time": 52.3454545,
                "pitch": 60,
                "velocity": 51,
                "duration": 0.0931818,
                "tempo": 120.0
            },
            {
                "start_time": 52.2522727,
                "end_time": 52.3454545,
                "pitch": 60,
                "velocity": 51,
                "duration": 0.0931818,
                "tempo": 120.0
            },
            {
                "start_time": 52.3454545,
                "end_time": 52.4386364,
                "pitch": 62,
                "velocity": 51,
                "duration": 0.0931818,
                "tempo": 120.0
            },
            {
                "start_time": 52.3454545,
                "end_time": 52.4386364,
                "pitch": 62,
                "velocity": 51,
                "duration": 0.0931818,
                "tempo": 120.0
            },
            {
                "start_time": 19.225,
                "end_time": 52.5340909,
                "pitch": 44,
                "velocity": 64,
                "duration": 33.3090909,
                "tempo": 120.0
            },
            {
                "start_time": 52.4386364,
                "end_time": 52.5340909,
                "pitch": 60,
                "velocity": 51,
                "duration": 0.0954545,
                "tempo": 120.0
            },
            {
                "start_time": 52.4386364,
                "end_time": 52.5340909,
                "pitch": 60,
                "velocity": 51,
                "duration": 0.0954545,
                "tempo": 120.0
            },
            {
                "start_time": 52.5340909,
                "end_time": 52.6272727,
                "pitch": 59,
                "velocity": 51,
                "duration": 0.0931818,
                "tempo": 120.0
            },
            {
                "start_time": 52.5340909,
                "end_time": 52.7227273,
                "pitch": 44,
                "velocity": 51,
                "duration": 0.1886364,
                "tempo": 120.0
            },
            {
                "start_time": 52.6272727,
                "end_time": 52.7227273,
                "pitch": 60,
                "velocity": 51,
                "duration": 0.0954545,
                "tempo": 120.0
            },
            {
                "start_time": 52.7227273,
                "end_time": 52.8159091,
                "pitch": 59,
                "velocity": 51,
                "duration": 0.0931818,
                "tempo": 120.0
            },
            {
                "start_time": 52.8159091,
                "end_time": 52.9113636,
                "pitch": 57,
                "velocity": 51,
                "duration": 0.0954545,
                "tempo": 120.0
            },
            {
                "start_time": 52.9113636,
                "end_time": 53.0045455,
                "pitch": 55,
                "velocity": 51,
                "duration": 0.0931818,
                "tempo": 120.0
            },
            {
                "start_time": 19.8659091,
                "end_time": 53.0045455,
                "pitch": 66,
                "velocity": 64,
                "duration": 33.1386364,
                "tempo": 120.0
            },
            {
                "start_time": 53.0045455,
                "end_time": 53.6636364,
                "pitch": 53,
                "velocity": 64,
                "duration": 0.6590909,
                "tempo": 120.0
            },
            {
                "start_time": 53.6636364,
                "end_time": 53.7568182,
                "pitch": 52,
                "velocity": 64,
                "duration": 0.0931818,
                "tempo": 120.0
            }
        ],
        "Trumpet": [
            {
                "start_time": 20.3659091,
                "end_time": 20.4909091,
                "pitch": 69,
                "velocity": 127,
                "duration": 0.125,
                "tempo": 120.0
            },
            {
                "start_time": 20.4909091,
                "end_time": 20.6159091,
                "pitch": 71,
                "velocity": 127,
                "duration": 0.125,
                "tempo": 120.0
            },
            {
                "start_time": 20.6159091,
                "end_time": 21.2431818,
                "pitch": 72,
                "velocity": 127,
                "duration": 0.6272727,
                "tempo": 120.0
            },
            {
                "start_time": 21.2431818,
                "end_time": 21.4954545,
                "pitch": 71,
                "velocity": 127,
                "duration": 0.2522727,
                "tempo": 120.0
            },
            {
                "start_time": 20.6159091,
                "end_time": 21.4954545,
                "pitch": 76,
                "velocity": 127,
                "duration": 0.8795455,
                "tempo": 120.0
            },
            {
                "start_time": 21.4954545,
                "end_time": 21.6204545,
                "pitch": 72,
                "velocity": 127,
                "duration": 0.125,
                "tempo": 120.0
            },
            {
                "start_time": 21.6204545,
                "end_time": 21.9977273,
                "pitch": 74,
                "velocity": 127,
                "duration": 0.3772727,
                "tempo": 120.0
            },
            {
                "start_time": 21.6204545,
                "end_time": 21.9977273,
                "pitch": 74,
                "velocity": 127,
                "duration": 0.3772727,
                "tempo": 120.0
            },
            {
                "start_time": 21.2431818,
                "end_time": 22.2477273,
                "pitch": 56,
                "velocity": 127,
                "duration": 1.0045455,
                "tempo": 120.0
            },
            {
                "start_time": 21.9977273,
                "end_time": 22.2477273,
                "pitch": 72,
                "velocity": 127,
                "duration": 0.25,
                "tempo": 120.0
            },
            {
                "start_time": 21.9977273,
                "end_time": 22.2477273,
                "pitch": 72,
                "velocity": 127,
                "duration": 0.25,
                "tempo": 120.0
            },
            {
                "start_time": 22.2477273,
                "end_time": 22.5,
                "pitch": 71,
                "velocity": 127,
                "duration": 0.2522727,
                "tempo": 120.0
            },
            {
                "start_time": 21.4954545,
                "end_time": 22.5,
                "pitch": 76,
                "velocity": 127,
                "duration": 1.0045455,
                "tempo": 120.0
            },
            {
                "start_time": 22.2477273,
                "end_time": 22.625,
                "pitch": 56,
                "velocity": 127,
                "duration": 0.3772727,
                "tempo": 120.0
            },
            {
                "start_time": 22.5,
                "end_time": 22.625,
                "pitch": 72,
                "velocity": 127,
                "duration": 0.125,
                "tempo": 120.0
            },
            {
                "start_time": 22.625,
                "end_time": 23.0022727,
                "pitch": 71,
                "velocity": 127,
                "duration": 0.3772727,
                "tempo": 120.0
            },
            {
                "start_time": 23.0022727,
                "end_time": 23.2522727,
                "pitch": 67,
                "velocity": 127,
                "duration": 0.25,
                "tempo": 120.0
            },
            {
                "start_time": 23.0022727,
                "end_time": 23.2522727,
                "pitch": 67,
                "velocity": 127,
                "duration": 0.25,
                "tempo": 120.0
            },
            {
                "start_time": 23.2522727,
                "end_time": 23.3795455,
                "pitch": 64,
                "velocity": 127,
                "duration": 0.1272727,
                "tempo": 120.0
            },
            {
                "start_time": 23.3795455,
                "end_time": 23.5295455,
                "pitch": 71,
                "velocity": 127,
                "duration": 0.15,
                "tempo": 120.0
            },
            {
                "start_time": 23.6386364,
                "end_time": 24.3909091,
                "pitch": 69,
                "velocity": 127,
                "duration": 0.7522727,
                "tempo": 120.0
            },
            {
                "start_time": 24.3909091,
                "end_time": 24.5136364,
                "pitch": 69,
                "velocity": 127,
                "duration": 0.1227273,
                "tempo": 120.0
            },
            {
                "start_time": 24.5136364,
                "end_time": 24.6363636,
                "pitch": 71,
                "velocity": 127,
                "duration": 0.1227273,
                "tempo": 120.0
            },
            {
                "start_time": 22.5,
                "end_time": 24.6363636,
                "pitch": 76,
                "velocity": 127,
                "duration": 2.1363636,
                "tempo": 120.0
            },
            {
                "start_time": 24.6363636,
                "end_time": 25.2613636,
                "pitch": 72,
                "velocity": 127,
                "duration": 0.625,
                "tempo": 120.0
            },
            {
                "start_time": 22.625,
                "end_time": 25.2636364,
                "pitch": 56,
                "velocity": 127,
                "duration": 2.6386364,
                "tempo": 120.0
            },
            {
                "start_time": 25.2613636,
                "end_time": 25.2636364,
                "pitch": 56,
                "velocity": 127,
                "duration": 0.0022727,
                "tempo": 120.0
            },
            {
                "start_time": 25.2636364,
                "end_time": 25.5181818,
                "pitch": 71,
                "velocity": 127,
                "duration": 0.2545455,
                "tempo": 120.0
            },
            {
                "start_time": 24.6363636,
                "end_time": 25.5204545,
                "pitch": 76,
                "velocity": 127,
                "duration": 0.8840909,
                "tempo": 120.0
            },
            {
                "start_time": 25.5181818,
                "end_time": 25.5204545,
                "pitch": 76,
                "velocity": 127,
                "duration": 0.0022727,
                "tempo": 120.0
            },
            {
                "start_time": 25.5204545,
                "end_time": 25.6477273,
                "pitch": 72,
                "velocity": 127,
                "duration": 0.1272727,
                "tempo": 120.0
            },
            {
                "start_time": 25.6477273,
                "end_time": 26.0295455,
                "pitch": 74,
                "velocity": 127,
                "duration": 0.3818182,
                "tempo": 120.0
            },
            {
                "start_time": 25.6477273,
                "end_time": 26.0295455,
                "pitch": 74,
                "velocity": 127,
                "duration": 0.3818182,
                "tempo": 120.0
            },
            {
                "start_time": 26.0295455,
                "end_time": 26.2818182,
                "pitch": 72,
                "velocity": 127,
                "duration": 0.2522727,
                "tempo": 120.0
            },
            {
                "start_time": 26.0295455,
                "end_time": 26.2818182,
                "pitch": 72,
                "velocity": 127,
                "duration": 0.2522727,
                "tempo": 120.0
            },
            {
                "start_time": 26.2818182,
                "end_time": 26.5318182,
                "pitch": 71,
                "velocity": 127,
                "duration": 0.25,
                "tempo": 120.0
            },
            {
                "start_time": 26.2818182,
                "end_time": 26.6568182,
                "pitch": 56,
                "velocity": 127,
                "duration": 0.375,
                "tempo": 120.0
            },
            {
                "start_time": 26.5318182,
                "end_time": 26.6568182,
                "pitch": 72,
                "velocity": 127,
                "duration": 0.125,
                "tempo": 120.0
            },
            {
                "start_time": 26.6568182,
                "end_time": 28.4045455,
                "pitch": 71,
                "velocity": 127,
                "duration": 1.7477273,
                "tempo": 120.0
            },
            {
                "start_time": 28.4045455,
                "end_time": 28.5340909,
                "pitch": 69,
                "velocity": 127,
                "duration": 0.1295455,
                "tempo": 120.0
            },
            {
                "start_time": 28.5340909,
                "end_time": 28.6636364,
                "pitch": 71,
                "velocity": 127,
                "duration": 0.1295455,
                "tempo": 120.0
            },
            {
                "start_time": 26.5318182,
                "end_time": 28.6636364,
                "pitch": 76,
                "velocity": 127,
                "duration": 2.1318182,
                "tempo": 120.0
            },
            {
                "start_time": 26.6568182,
                "end_time": 29.2931818,
                "pitch": 56,
                "velocity": 127,
                "duration": 2.6363636,
                "tempo": 120.0
            },
            {
                "start_time": 28.6636364,
                "end_time": 29.2931818,
                "pitch": 72,
                "velocity": 127,
                "duration": 0.6295455,
                "tempo": 120.0
            },
            {
                "start_time": 29.2931818,
                "end_time": 29.5431818,
                "pitch": 71,
                "velocity": 127,
                "duration": 0.25,
                "tempo": 120.0
            },
            {
                "start_time": 28.6636364,
                "end_time": 29.5431818,
                "pitch": 76,
                "velocity": 127,
                "duration": 0.8795455,
                "tempo": 120.0
            },
            {
                "start_time": 29.5431818,
                "end_time": 29.6704545,
                "pitch": 72,
                "velocity": 127,
                "duration": 0.1272727,
                "tempo": 120.0
            },
            {
                "start_time": 29.6704545,
                "end_time": 30.0477273,
                "pitch": 74,
                "velocity": 127,
                "duration": 0.3772727,
                "tempo": 120.0
            },
            {
                "start_time": 29.6704545,
                "end_time": 30.0477273,
                "pitch": 74,
                "velocity": 127,
                "duration": 0.3772727,
                "tempo": 120.0
            },
            {
                "start_time": 29.2931818,
                "end_time": 30.2977273,
                "pitch": 56,
                "velocity": 127,
                "duration": 1.0045455,
                "tempo": 120.0
            },
            {
                "start_time": 30.0477273,
                "end_time": 30.2977273,
                "pitch": 72,
                "velocity": 127,
                "duration": 0.25,
                "tempo": 120.0
            },
            {
                "start_time": 30.0477273,
                "end_time": 30.2977273,
                "pitch": 72,
                "velocity": 127,
                "duration": 0.25,
                "tempo": 120.0
            },
            {
                "start_time": 30.2977273,
                "end_time": 30.5477273,
                "pitch": 71,
                "velocity": 127,
                "duration": 0.25,
                "tempo": 120.0
            },
            {
                "start_time": 29.5431818,
                "end_time": 30.5477273,
                "pitch": 76,
                "velocity": 127,
                "duration": 1.0045455,
                "tempo": 120.0
            },
            {
                "start_time": 30.2977273,
                "end_time": 30.6727273,
                "pitch": 56,
                "velocity": 127,
                "duration": 0.375,
                "tempo": 120.0
            },
            {
                "start_time": 30.5477273,
                "end_time": 30.6727273,
                "pitch": 72,
                "velocity": 127,
                "duration": 0.125,
                "tempo": 120.0
            },
            {
                "start_time": 30.6727273,
                "end_time": 31.05,
                "pitch": 71,
                "velocity": 127,
                "duration": 0.3772727,
                "tempo": 120.0
            },
            {
                "start_time": 31.05,
                "end_time": 31.3022727,
                "pitch": 67,
                "velocity": 127,
                "duration": 0.2522727,
                "tempo": 120.0
            },
            {
                "start_time": 31.05,
                "end_time": 31.3022727,
                "pitch": 67,
                "velocity": 127,
                "duration": 0.2522727,
                "tempo": 120.0
            },
            {
                "start_time": 23.2522727,
                "end_time": 31.3022727,
                "pitch": 78,
                "velocity": 127,
                "duration": 8.05,
                "tempo": 120.0
            },
            {
                "start_time": 23.3795455,
                "end_time": 31.4295455,
                "pitch": 44,
                "velocity": 127,
                "duration": 8.05,
                "tempo": 120.0
            },
            {
                "start_time": 31.3022727,
                "end_time": 31.4295455,
                "pitch": 64,
                "velocity": 127,
                "duration": 0.1272727,
                "tempo": 120.0
            },
            {
                "start_time": 31.4295455,
                "end_time": 31.5795455,
                "pitch": 71,
                "velocity": 127,
                "duration": 0.15,
                "tempo": 120.0
            },
            {
                "start_time": 31.6863636,
                "end_time": 32.4318182,
                "pitch": 69,
                "velocity": 127,
                "duration": 0.7454545,
                "tempo": 120.0
            },
            {
                "start_time": 32.4318182,
                "end_time": 32.5568182,
                "pitch": 69,
                "velocity": 127,
                "duration": 0.125,
                "tempo": 120.0
            },
            {
                "start_time": 32.5568182,
                "end_time": 32.6818182,
                "pitch": 71,
                "velocity": 127,
                "duration": 0.125,
                "tempo": 120.0
            },
            {
                "start_time": 30.5477273,
                "end_time": 32.6818182,
                "pitch": 76,
                "velocity": 127,
                "duration": 2.1340909,
                "tempo": 120.0
            },
            {
                "start_time": 30.6727273,
                "end_time": 33.3090909,
                "pitch": 56,
                "velocity": 127,
                "duration": 2.6363636,
                "tempo": 120.0
            },
            {
                "start_time": 32.6818182,
                "end_time": 33.3090909,
                "pitch": 72,
                "velocity": 127,
                "duration": 0.6272727,
                "tempo": 120.0
            },
            {
                "start_time": 33.3090909,
                "end_time": 33.5659091,
                "pitch": 71,
                "velocity": 127,
                "duration": 0.2568182,
                "tempo": 120.0
            },
            {
                "start_time": 32.6818182,
                "end_time": 33.5659091,
                "pitch": 76,
                "velocity": 127,
                "duration": 0.8840909,
                "tempo": 120.0
            },
            {
                "start_time": 33.5659091,
                "end_time": 33.6931818,
                "pitch": 72,
                "velocity": 127,
                "duration": 0.1272727,
                "tempo": 120.0
            },
            {
                "start_time": 33.6931818,
                "end_time": 34.3272727,
                "pitch": 74,
                "velocity": 127,
                "duration": 0.6340909,
                "tempo": 120.0
            },
            {
                "start_time": 33.6931818,
                "end_time": 34.3272727,
                "pitch": 74,
                "velocity": 127,
                "duration": 0.6340909,
                "tempo": 120.0
            },
            {
                "start_time": 34.3272727,
                "end_time": 34.45,
                "pitch": 74,
                "velocity": 127,
                "duration": 0.1227273,
                "tempo": 120.0
            },
            {
                "start_time": 34.45,
                "end_time": 34.5909091,
                "pitch": 79,
                "velocity": 127,
                "duration": 0.1409091,
                "tempo": 120.0
            }
        ],
        "Electric Guitar (clean)": [
            {
                "start_time": 54.5068182,
                "end_time": 54.7931818,
                "pitch": 69,
                "velocity": 64,
                "duration": 0.2863636,
                "tempo": 120.0
            },
            {
                "start_time": 54.7931818,
                "end_time": 55.0659091,
                "pitch": 71,
                "velocity": 64,
                "duration": 0.2727273,
                "tempo": 120.0
            },
            {
                "start_time": 55.0659091,
                "end_time": 55.0681818,
                "pitch": 76,
                "velocity": 64,
                "duration": 0.0022727,
                "tempo": 120.0
            },
            {
                "start_time": 55.0681818,
                "end_time": 55.4522727,
                "pitch": 72,
                "velocity": 64,
                "duration": 0.3840909,
                "tempo": 120.0
            },
            {
                "start_time": 55.4522727,
                "end_time": 55.6431818,
                "pitch": 71,
                "velocity": 64,
                "duration": 0.1909091,
                "tempo": 120.0
            },
            {
                "start_time": 55.6431818,
                "end_time": 55.7340909,
                "pitch": 72,
                "velocity": 64,
                "duration": 0.0909091,
                "tempo": 120.0
            },
            {
                "start_time": 55.7340909,
                "end_time": 56.0159091,
                "pitch": 74,
                "velocity": 64,
                "duration": 0.2818182,
                "tempo": 120.0
            },
            {
                "start_time": 55.7340909,
                "end_time": 56.0159091,
                "pitch": 74,
                "velocity": 64,
                "duration": 0.2818182,
                "tempo": 120.0
            },
            {
                "start_time": 56.0159091,
                "end_time": 56.2181818,
                "pitch": 72,
                "velocity": 64,
                "duration": 0.2022727,
                "tempo": 120.0
            },
            {
                "start_time": 56.0159091,
                "end_time": 56.2181818,
                "pitch": 72,
                "velocity": 64,
                "duration": 0.2022727,
                "tempo": 120.0
            },
            {
                "start_time": 56.3,
                "end_time": 56.5022727,
                "pitch": 71,
                "velocity": 64,
                "duration": 0.2022727,
                "tempo": 120.0
            },
            {
                "start_time": 56.5818182,
                "end_time": 57.6113636,
                "pitch": 69,
                "velocity": 64,
                "duration": 1.0295455,
                "tempo": 120.0
            },
            {
                "start_time": 57.6113636,
                "end_time": 57.9090909,
                "pitch": 69,
                "velocity": 64,
                "duration": 0.2977273,
                "tempo": 120.0
            },
            {
                "start_time": 57.9090909,
                "end_time": 58.2045455,
                "pitch": 71,
                "velocity": 64,
                "duration": 0.2954545,
                "tempo": 120.0
            },
            {
                "start_time": 55.6431818,
                "end_time": 58.2045455,
                "pitch": 76,
                "velocity": 64,
                "duration": 2.5613636,
                "tempo": 120.0
            },
            {
                "start_time": 55.4522727,
                "end_time": 58.6113636,
                "pitch": 56,
                "velocity": 64,
                "duration": 3.1590909,
                "tempo": 120.0
            },
            {
                "start_time": 58.2045455,
                "end_time": 58.6113636,
                "pitch": 72,
                "velocity": 64,
                "duration": 0.4068182,
                "tempo": 120.0
            },
            {
                "start_time": 58.6113636,
                "end_time": 58.8181818,
                "pitch": 71,
                "velocity": 64,
                "duration": 0.2068182,
                "tempo": 120.0
            },
            {
                "start_time": 58.2045455,
                "end_time": 58.8181818,
                "pitch": 76,
                "velocity": 64,
                "duration": 0.6136364,
                "tempo": 120.0
            },
            {
                "start_time": 58.8181818,
                "end_time": 58.9159091,
                "pitch": 72,
                "velocity": 64,
                "duration": 0.0977273,
                "tempo": 120.0
            },
            {
                "start_time": 58.9159091,
                "end_time": 59.2181818,
                "pitch": 74,
                "velocity": 64,
                "duration": 0.3022727,
                "tempo": 120.0
            },
            {
                "start_time": 58.9159091,
                "end_time": 59.2181818,
                "pitch": 74,
                "velocity": 64,
                "duration": 0.3022727,
                "tempo": 120.0
            },
            {
                "start_time": 59.2181818,
                "end_time": 59.4340909,
                "pitch": 72,
                "velocity": 64,
                "duration": 0.2159091,
                "tempo": 120.0
            },
            {
                "start_time": 59.2181818,
                "end_time": 59.4340909,
                "pitch": 72,
                "velocity": 64,
                "duration": 0.2159091,
                "tempo": 120.0
            },
            {
                "start_time": 59.5159091,
                "end_time": 59.725,
                "pitch": 71,
                "velocity": 64,
                "duration": 0.2090909,
                "tempo": 120.0
            },
            {
                "start_time": 59.8113636,
                "end_time": 60.775,
                "pitch": 72,
                "velocity": 64,
                "duration": 0.9636364,
                "tempo": 120.0
            },
            {
                "start_time": 60.775,
                "end_time": 61.075,
                "pitch": 72,
                "velocity": 80,
                "duration": 0.3,
                "tempo": 120.0
            },
            {
                "start_time": 61.075,
                "end_time": 61.3659091,
                "pitch": 74,
                "velocity": 80,
                "duration": 0.2909091,
                "tempo": 120.0
            },
            {
                "start_time": 61.075,
                "end_time": 61.3659091,
                "pitch": 74,
                "velocity": 80,
                "duration": 0.2909091,
                "tempo": 120.0
            },
            {
                "start_time": 58.8181818,
                "end_time": 61.3659091,
                "pitch": 76,
                "velocity": 64,
                "duration": 2.5477273,
                "tempo": 120.0
            },
            {
                "start_time": 61.3659091,
                "end_time": 61.7704545,
                "pitch": 76,
                "velocity": 80,
                "duration": 0.4045455,
                "tempo": 120.0
            },
            {
                "start_time": 61.3659091,
                "end_time": 61.7704545,
                "pitch": 76,
                "velocity": 80,
                "duration": 0.4045455,
                "tempo": 120.0
            },
            {
                "start_time": 61.7704545,
                "end_time": 61.9795455,
                "pitch": 74,
                "velocity": 80,
                "duration": 0.2090909,
                "tempo": 120.0
            },
            {
                "start_time": 61.7704545,
                "end_time": 61.9795455,
                "pitch": 74,
                "velocity": 80,
                "duration": 0.2090909,
                "tempo": 120.0
            },
            {
                "start_time": 61.9795455,
                "end_time": 62.0795455,
                "pitch": 76,
                "velocity": 80,
                "duration": 0.1,
                "tempo": 120.0
            },
            {
                "start_time": 61.9795455,
                "end_time": 62.0795455,
                "pitch": 76,
                "velocity": 80,
                "duration": 0.1,
                "tempo": 120.0
            },
            {
                "start_time": 62.0795455,
                "end_time": 62.3818182,
                "pitch": 77,
                "velocity": 80,
                "duration": 0.3022727,
                "tempo": 120.0
            },
            {
                "start_time": 62.3818182,
                "end_time": 62.5977273,
                "pitch": 76,
                "velocity": 80,
                "duration": 0.2159091,
                "tempo": 120.0
            },
            {
                "start_time": 62.6818182,
                "end_time": 62.8909091,
                "pitch": 74,
                "velocity": 80,
                "duration": 0.2090909,
                "tempo": 120.0
            },
            {
                "start_time": 62.975,
                "end_time": 63.9886364,
                "pitch": 72,
                "velocity": 80,
                "duration": 1.0136364,
                "tempo": 120.0
            },
            {
                "start_time": 63.9886364,
                "end_time": 64.2886364,
                "pitch": 72,
                "velocity": 80,
                "duration": 0.3,
                "tempo": 120.0
            },
            {
                "start_time": 64.2886364,
                "end_time": 64.5818182,
                "pitch": 74,
                "velocity": 80,
                "duration": 0.2931818,
                "tempo": 120.0
            },
            {
                "start_time": 64.2886364,
                "end_time": 64.5818182,
                "pitch": 74,
                "velocity": 80,
                "duration": 0.2931818,
                "tempo": 120.0
            },
            {
                "start_time": 64.5818182,
                "end_time": 64.9863636,
                "pitch": 76,
                "velocity": 80,
                "duration": 0.4045455,
                "tempo": 120.0
            },
            {
                "start_time": 64.5818182,
                "end_time": 64.9863636,
                "pitch": 76,
                "velocity": 80,
                "duration": 0.4045455,
                "tempo": 120.0
            },
            {
                "start_time": 64.9863636,
                "end_time": 65.1931818,
                "pitch": 74,
                "velocity": 80,
                "duration": 0.2068182,
                "tempo": 120.0
            },
            {
                "start_time": 64.9863636,
                "end_time": 65.1931818,
                "pitch": 74,
                "velocity": 80,
                "duration": 0.2068182,
                "tempo": 120.0
            },
            {
                "start_time": 65.1931818,
                "end_time": 65.2954545,
                "pitch": 76,
                "velocity": 80,
                "duration": 0.1022727,
                "tempo": 120.0
            },
            {
                "start_time": 65.1931818,
                "end_time": 65.2954545,
                "pitch": 76,
                "velocity": 80,
                "duration": 0.1022727,
                "tempo": 120.0
            },
            {
                "start_time": 65.2954545,
                "end_time": 65.5954545,
                "pitch": 77,
                "velocity": 80,
                "duration": 0.3,
                "tempo": 120.0
            },
            {
                "start_time": 65.5954545,
                "end_time": 65.8136364,
                "pitch": 76,
                "velocity": 80,
                "duration": 0.2181818,
                "tempo": 120.0
            },
            {
                "start_time": 65.8977273,
                "end_time": 66.1136364,
                "pitch": 74,
                "velocity": 80,
                "duration": 0.2159091,
                "tempo": 120.0
            },
            {
                "start_time": 66.1977273,
                "end_time": 66.5409091,
                "pitch": 76,
                "velocity": 80,
                "duration": 0.3431818,
                "tempo": 120.0
            }
        ],
        "Vibraphone": [
            {
                "start_time": 27.7886364,
                "end_time": 27.9295455,
                "pitch": 64,
                "velocity": 101,
                "duration": 0.1409091,
                "tempo": 120.0
            },
            {
                "start_time": 28.0340909,
                "end_time": 28.175,
                "pitch": 64,
                "velocity": 101,
                "duration": 0.1409091,
                "tempo": 120.0
            },
            {
                "start_time": 28.2795455,
                "end_time": 28.4272727,
                "pitch": 64,
                "velocity": 101,
                "duration": 0.1477273,
                "tempo": 120.0
            },
            {
                "start_time": 28.5386364,
                "end_time": 28.6840909,
                "pitch": 64,
                "velocity": 101,
                "duration": 0.1454545,
                "tempo": 120.0
            },
            {
                "start_time": 44.9977273,
                "end_time": 45.2409091,
                "pitch": 69,
                "velocity": 101,
                "duration": 0.2431818,
                "tempo": 120.0
            },
            {
                "start_time": 45.2409091,
                "end_time": 45.3340909,
                "pitch": 72,
                "velocity": 101,
                "duration": 0.0931818,
                "tempo": 120.0
            },
            {
                "start_time": 45.3340909,
                "end_time": 45.5227273,
                "pitch": 69,
                "velocity": 101,
                "duration": 0.1886364,
                "tempo": 120.0
            },
            {
                "start_time": 45.2409091,
                "end_time": 45.5227273,
                "pitch": 76,
                "velocity": 101,
                "duration": 0.2818182,
                "tempo": 120.0
            },
            {
                "start_time": 45.3340909,
                "end_time": 45.6204545,
                "pitch": 44,
                "velocity": 101,
                "duration": 0.2863636,
                "tempo": 120.0
            },
            {
                "start_time": 45.5227273,
                "end_time": 45.6204545,
                "pitch": 72,
                "velocity": 101,
                "duration": 0.0977273,
                "tempo": 120.0
            },
            {
                "start_time": 45.6204545,
                "end_time": 45.8136364,
                "pitch": 69,
                "velocity": 101,
                "duration": 0.1931818,
                "tempo": 120.0
            },
            {
                "start_time": 45.5227273,
                "end_time": 45.8136364,
                "pitch": 76,
                "velocity": 101,
                "duration": 0.2909091,
                "tempo": 120.0
            },
            {
                "start_time": 45.6204545,
                "end_time": 45.9136364,
                "pitch": 44,
                "velocity": 101,
                "duration": 0.2931818,
                "tempo": 120.0
            },
            {
                "start_time": 45.8136364,
                "end_time": 45.9136364,
                "pitch": 72,
                "velocity": 101,
                "duration": 0.1,
                "tempo": 120.0
            },
            {
                "start_time": 45.9136364,
                "end_time": 46.1159091,
                "pitch": 69,
                "velocity": 101,
                "duration": 0.2022727,
                "tempo": 120.0
            },
            {
                "start_time": 45.8136364,
                "end_time": 46.1159091,
                "pitch": 76,
                "velocity": 101,
                "duration": 0.3022727,
                "tempo": 120.0
            },
            {
                "start_time": 45.9136364,
                "end_time": 46.2159091,
                "pitch": 44,
                "velocity": 101,
                "duration": 0.3022727,
                "tempo": 120.0
            },
            {
                "start_time": 46.1159091,
                "end_time": 46.2159091,
                "pitch": 72,
                "velocity": 101,
                "duration": 0.1,
                "tempo": 120.0
            },
            {
                "start_time": 46.2159091,
                "end_time": 46.4227273,
                "pitch": 69,
                "velocity": 101,
                "duration": 0.2068182,
                "tempo": 120.0
            },
            {
                "start_time": 46.1159091,
                "end_time": 46.4227273,
                "pitch": 76,
                "velocity": 101,
                "duration": 0.3068182,
                "tempo": 120.0
            },
            {
                "start_time": 46.4227273,
                "end_time": 46.5272727,
                "pitch": 72,
                "velocity": 101,
                "duration": 0.1045455,
                "tempo": 120.0
            },
            {
                "start_time": 46.2159091,
                "end_time": 46.5295455,
                "pitch": 44,
                "velocity": 101,
                "duration": 0.3136364,
                "tempo": 120.0
            },
            {
                "start_time": 46.5272727,
                "end_time": 46.5295455,
                "pitch": 44,
                "velocity": 101,
                "duration": 0.0022727,
                "tempo": 120.0
            },
            {
                "start_time": 46.5295455,
                "end_time": 46.6272727,
                "pitch": 69,
                "velocity": 101,
                "duration": 0.0977273,
                "tempo": 120.0
            },
            {
                "start_time": 46.6272727,
                "end_time": 46.7272727,
                "pitch": 71,
                "velocity": 101,
                "duration": 0.1,
                "tempo": 120.0
            },
            {
                "start_time": 46.4227273,
                "end_time": 46.7272727,
                "pitch": 76,
                "velocity": 101,
                "duration": 0.3045455,
                "tempo": 120.0
            },
            {
                "start_time": 46.7272727,
                "end_time": 46.8295455,
                "pitch": 72,
                "velocity": 101,
                "duration": 0.1022727,
                "tempo": 120.0
            },
            {
                "start_time": 46.8295455,
                "end_time": 46.9295455,
                "pitch": 74,
                "velocity": 101,
                "duration": 0.1,
                "tempo": 120.0
            },
            {
                "start_time": 46.9295455,
                "end_time": 47.0272727,
                "pitch": 71,
                "velocity": 101,
                "duration": 0.0977273,
                "tempo": 120.0
            },
            {
                "start_time": 46.7272727,
                "end_time": 47.0272727,
                "pitch": 76,
                "velocity": 101,
                "duration": 0.3,
                "tempo": 120.0
            },
            {
                "start_time": 47.0272727,
                "end_time": 47.1295455,
                "pitch": 72,
                "velocity": 101,
                "duration": 0.1022727,
                "tempo": 120.0
            },
            {
                "start_time": 46.9295455,
                "end_time": 47.2272727,
                "pitch": 56,
                "velocity": 101,
                "duration": 0.2977273,
                "tempo": 120.0
            },
            {
                "start_time": 47.1295455,
                "end_time": 47.2272727,
                "pitch": 74,
                "velocity": 101,
                "duration": 0.0977273,
                "tempo": 120.0
            },
            {
                "start_time": 47.2272727,
                "end_time": 47.3227273,
                "pitch": 71,
                "velocity": 101,
                "duration": 0.0954545,
                "tempo": 120.0
            },
            {
                "start_time": 47.0272727,
                "end_time": 47.3227273,
                "pitch": 76,
                "velocity": 101,
                "duration": 0.2954545,
                "tempo": 120.0
            },
            {
                "start_time": 47.3227273,
                "end_time": 47.4227273,
                "pitch": 72,
                "velocity": 101,
                "duration": 0.1,
                "tempo": 120.0
            },
            {
                "start_time": 47.2272727,
                "end_time": 47.5204545,
                "pitch": 56,
                "velocity": 101,
                "duration": 0.2931818,
                "tempo": 120.0
            },
            {
                "start_time": 47.4227273,
                "end_time": 47.5204545,
                "pitch": 74,
                "velocity": 101,
                "duration": 0.0977273,
                "tempo": 120.0
            },
            {
                "start_time": 47.5204545,
                "end_time": 47.6204545,
                "pitch": 71,
                "velocity": 101,
                "duration": 0.1,
                "tempo": 120.0
            },
            {
                "start_time": 47.3227273,
                "end_time": 47.6204545,
                "pitch": 76,
                "velocity": 101,
                "duration": 0.2977273,
                "tempo": 120.0
            },
            {
                "start_time": 47.6204545,
                "end_time": 47.7227273,
                "pitch": 72,
                "velocity": 101,
                "duration": 0.1022727,
                "tempo": 120.0
            },
            {
                "start_time": 47.5204545,
                "end_time": 47.825,
                "pitch": 56,
                "velocity": 101,
                "duration": 0.3045455,
                "tempo": 120.0
            },
            {
                "start_time": 47.7227273,
                "end_time": 47.825,
                "pitch": 74,
                "velocity": 101,
                "duration": 0.1022727,
                "tempo": 120.0
            },
            {
                "start_time": 47.825,
                "end_time": 47.9272727,
                "pitch": 71,
                "velocity": 101,
                "duration": 0.1022727,
                "tempo": 120.0
            },
            {
                "start_time": 47.6204545,
                "end_time": 47.9272727,
                "pitch": 76,
                "velocity": 101,
                "duration": 0.3068182,
                "tempo": 120.0
            },
            {
                "start_time": 47.9272727,
                "end_time": 48.0318182,
                "pitch": 72,
                "velocity": 101,
                "duration": 0.1045455,
                "tempo": 120.0
            },
            {
                "start_time": 47.825,
                "end_time": 48.1363636,
                "pitch": 56,
                "velocity": 101,
                "duration": 0.3113636,
                "tempo": 120.0
            },
            {
                "start_time": 48.0318182,
                "end_time": 48.1363636,
                "pitch": 74,
                "velocity": 101,
                "duration": 0.1045455,
                "tempo": 120.0
            },
            {
                "start_time": 48.1363636,
                "end_time": 48.2340909,
                "pitch": 71,
                "velocity": 101,
                "duration": 0.0977273,
                "tempo": 120.0
            },
            {
                "start_time": 47.9272727,
                "end_time": 48.2340909,
                "pitch": 76,
                "velocity": 101,
                "duration": 0.3068182,
                "tempo": 120.0
            },
            {
                "start_time": 48.2340909,
                "end_time": 48.3340909,
                "pitch": 72,
                "velocity": 101,
                "duration": 0.1,
                "tempo": 120.0
            },
            {
                "start_time": 48.3340909,
                "end_time": 48.4363636,
                "pitch": 74,
                "velocity": 101,
                "duration": 0.1022727,
                "tempo": 120.0
            },
            {
                "start_time": 48.2340909,
                "end_time": 48.5363636,
                "pitch": 76,
                "velocity": 101,
                "duration": 0.3022727,
                "tempo": 120.0
            },
            {
                "start_time": 48.4363636,
                "end_time": 48.5363636,
                "pitch": 76,
                "velocity": 101,
                "duration": 0.1,
                "tempo": 120.0
            },
            {
                "start_time": 48.5363636,
                "end_time": 48.6340909,
                "pitch": 72,
                "velocity": 101,
                "duration": 0.0977273,
                "tempo": 120.0
            },
            {
                "start_time": 48.6340909,
                "end_time": 48.7363636,
                "pitch": 74,
                "velocity": 101,
                "duration": 0.1022727,
                "tempo": 120.0
            },
            {
                "start_time": 48.7363636,
                "end_time": 48.8340909,
                "pitch": 76,
                "velocity": 101,
                "duration": 0.0977273,
                "tempo": 120.0
            },
            {
                "start_time": 48.8340909,
                "end_time": 48.9295455,
                "pitch": 72,
                "velocity": 101,
                "duration": 0.0954545,
                "tempo": 120.0
            },
            {
                "start_time": 48.9295455,
                "end_time": 49.0295455,
                "pitch": 74,
                "velocity": 101,
                "duration": 0.1,
                "tempo": 120.0
            },
            {
                "start_time": 49.0295455,
                "end_time": 49.1272727,
                "pitch": 76,
                "velocity": 101,
                "duration": 0.0977273,
                "tempo": 120.0
            },
            {
                "start_time": 49.1272727,
                "end_time": 49.2272727,
                "pitch": 72,
                "velocity": 101,
                "duration": 0.1,
                "tempo": 120.0
            },
            {
                "start_time": 49.2272727,
                "end_time": 49.3295455,
                "pitch": 74,
                "velocity": 101,
                "duration": 0.1022727,
                "tempo": 120.0
            },
            {
                "start_time": 49.3295455,
                "end_time": 49.4318182,
                "pitch": 76,
                "velocity": 101,
                "duration": 0.1022727,
                "tempo": 120.0
            },
            {
                "start_time": 49.4318182,
                "end_time": 49.5363636,
                "pitch": 72,
                "velocity": 101,
                "duration": 0.1045455,
                "tempo": 120.0
            },
            {
                "start_time": 49.5363636,
                "end_time": 49.6386364,
                "pitch": 74,
                "velocity": 101,
                "duration": 0.1022727,
                "tempo": 120.0
            },
            {
                "start_time": 49.6386364,
                "end_time": 49.7431818,
                "pitch": 76,
                "velocity": 101,
                "duration": 0.1045455,
                "tempo": 120.0
            },
            {
                "start_time": 49.7431818,
                "end_time": 49.8431818,
                "pitch": 72,
                "velocity": 101,
                "duration": 0.1,
                "tempo": 120.0
            },
            {
                "start_time": 49.8431818,
                "end_time": 49.9409091,
                "pitch": 74,
                "velocity": 101,
                "duration": 0.0977273,
                "tempo": 120.0
            },
            {
                "start_time": 49.8431818,
                "end_time": 49.9409091,
                "pitch": 74,
                "velocity": 101,
                "duration": 0.0977273,
                "tempo": 120.0
            },
            {
                "start_time": 49.9409091,
                "end_time": 50.1431818,
                "pitch": 76,
                "velocity": 101,
                "duration": 0.2022727,
                "tempo": 120.0
            },
            {
                "start_time": 50.1431818,
                "end_time": 50.2431818,
                "pitch": 74,
                "velocity": 101,
                "duration": 0.1,
                "tempo": 120.0
            },
            {
                "start_time": 50.2431818,
                "end_time": 50.4409091,
                "pitch": 76,
                "velocity": 101,
                "duration": 0.1977273,
                "tempo": 120.0
            },
            {
                "start_time": 50.4409091,
                "end_time": 50.5363636,
                "pitch": 74,
                "velocity": 101,
                "duration": 0.0954545,
                "tempo": 120.0
            },
            {
                "start_time": 50.5363636,
                "end_time": 50.7363636,
                "pitch": 76,
                "velocity": 101,
                "duration": 0.2,
                "tempo": 120.0
            },
            {
                "start_time": 50.7363636,
                "end_time": 50.8340909,
                "pitch": 74,
                "velocity": 101,
                "duration": 0.0977273,
                "tempo": 120.0
            },
            {
                "start_time": 50.8340909,
                "end_time": 51.0386364,
                "pitch": 76,
                "velocity": 101,
                "duration": 0.2045455,
                "tempo": 120.0
            },
            {
                "start_time": 51.0386364,
                "end_time": 51.1431818,
                "pitch": 74,
                "velocity": 101,
                "duration": 0.1045455,
                "tempo": 120.0
            },
            {
                "start_time": 51.1431818,
                "end_time": 51.35,
                "pitch": 76,
                "velocity": 101,
                "duration": 0.2068182,
                "tempo": 120.0
            }
        ]
    }
}