{
    "mood": "angry",
    "instruments": {
        "Lead 2 (sawtooth)": [
            {
                "start_time": 28.0204545,
                "end_time": 28.2863636,
                "pitch": 76,
                "velocity": 127,
                "duration": 0.2659091,
                "tempo": 120.0
            },
            {
                "start_time": 28.3409091,
                "end_time": 28.6022727,
                "pitch": 74,
                "velocity": 127,
                "duration": 0.2613636,
                "tempo": 120.0
            },
            {
                "start_time": 28.6568182,
                "end_time": 28.925,
                "pitch": 72,
                "velocity": 127,
                "duration": 0.2681818,
                "tempo": 120.0
            },
            {
                "start_time": 28.3409091,
                "end_time": 28.9818182,
                "pitch": 76,
                "velocity": 127,
                "duration": 0.6409091,
                "tempo": 120.0
            },
            {
                "start_time": 28.9818182,
                "end_time": 29.2409091,
                "pitch": 71,
                "velocity": 127,
                "duration": 0.2590909,
                "tempo": 120.0
            },
            {
                "start_time": 29.2954545,
                "end_time": 29.5545455,
                "pitch": 64,
                "velocity": 127,
                "duration": 0.2590909,
                "tempo": 120.0
            },
            {
                "start_time": 29.6090909,
                "end_time": 29.8772727,
                "pitch": 62,
                "velocity": 127,
                "duration": 0.2681818,
                "tempo": 120.0
            },
            {
                "start_time": 29.9340909,
                "end_time": 30.1954545,
                "pitch": 60,
                "velocity": 127,
                "duration": 0.2613636,
                "tempo": 120.0
            },
            {
                "start_time": 29.6090909,
                "end_time": 30.2477273,
                "pitch": 64,
                "velocity": 127,
                "duration": 0.6386364,
                "tempo": 120.0
            },
            {
                "start_time": 30.2477273,
                "end_time": 30.5090909,
                "pitch": 59,
                "velocity": 127,
                "duration": 0.2613636,
                "tempo": 120.0
            },
            {
                "start_time": 30.5636364,
                "end_time": 31.0954545,
                "pitch": 52,
                "velocity": 127,
                "duration": 0.5318182,
                "tempo": 120.0
            },
            {
                "start_time": 31.2022727,
                "end_time": 31.7227273,
                "pitch": 52,
                "velocity": 127,
                "duration": 0.5204545,
                "tempo": 120.0
            },
            {
                "start_time": 31.8295455,
                "end_time": 32.0977273,
                "pitch": 65,
                "velocity": 127,
                "duration": 0.2681818,
                "tempo": 120.0
            },
            {
                "start_time": 30.2477273,
                "end_time": 32.4136364,
                "pitch": 64,
                "velocity": 127,
                "duration": 2.1659091,
                "tempo": 120.0
            },
            {
                "start_time": 32.1545455,
                "end_time": 32.4136364,
                "pitch": 64,
                "velocity": 127,
                "duration": 0.2590909,
                "tempo": 120.0
            },
            {
                "start_time": 32.4681818,
                "end_time": 32.7363636,
                "pitch": 65,
                "velocity": 127,
                "duration": 0.2681818,
                "tempo": 120.0
            },
            {
                "start_time": 32.7931818,
                "end_time": 33.0522727,
                "pitch": 68,
                "velocity": 127,
                "duration": 0.2590909,
                "tempo": 120.0
            },
            {
                "start_time": 32.7931818,
                "end_time": 40.7318182,
                "pitch": 78,
                "velocity": 127,
                "duration": 7.9386364,
                "tempo": 120.0
            },
            {
                "start_time": 40.7318182,
                "end_time": 40.8090909,
                "pitch": 71,
                "velocity": 101,
                "duration": 0.0772727,
                "tempo": 120.0
            },
            {
                "start_time": 40.8386364,
                "end_time": 40.9181818,
                "pitch": 68,
                "velocity": 101,
                "duration": 0.0795455,
                "tempo": 120.0
            },
            {
                "start_time": 40.9454545,
                "end_time": 41.0272727,
                "pitch": 64,
                "velocity": 101,
                "duration": 0.0818182,
                "tempo": 120.0
            },
            {
                "start_time": 40.7318182,
                "end_time": 41.0545455,
                "pitch": 78,
                "velocity": 101,
                "duration": 0.3227273,
                "tempo": 120.0
            },
            {
                "start_time": 41.0545455,
                "end_time": 41.1318182,
                "pitch": 67,
                "velocity": 101,
                "duration": 0.0772727,
                "tempo": 120.0
            },
            {
                "start_time": 41.1590909,
                "end_time": 41.2363636,
                "pitch": 65,
                "velocity": 101,
                "duration": 0.0772727,
                "tempo": 120.0
            },
            {
                "start_time": 41.2636364,
                "end_time": 41.3409091,
                "pitch": 65,
                "velocity": 101,
                "duration": 0.0772727,
                "tempo": 120.0
            },
            {
                "start_time": 41.0545455,
                "end_time": 41.3681818,
                "pitch": 78,
                "velocity": 101,
                "duration": 0.3136364,
                "tempo": 120.0
            },
            {
                "start_time": 41.3681818,
                "end_time": 41.4454545,
                "pitch": 67,
                "velocity": 101,
                "duration": 0.0772727,
                "tempo": 120.0
            },
            {
                "start_time": 41.1590909,
                "end_time": 41.4727273,
                "pitch": 0,
                "velocity": 101,
                "duration": 0.3136364,
                "tempo": 120.0
            },
            {
                "start_time": 41.4727273,
                "end_time": 41.55,
                "pitch": 65,
                "velocity": 101,
                "duration": 0.0772727,
                "tempo": 120.0
            },
            {
                "start_time": 41.5772727,
                "end_time": 41.6568182,
                "pitch": 65,
                "velocity": 101,
                "duration": 0.0795455,
                "tempo": 120.0
            },
            {
                "start_time": 41.3681818,
                "end_time": 41.6818182,
                "pitch": 78,
                "velocity": 101,
                "duration": 0.3136364,
                "tempo": 120.0
            },
            {
                "start_time": 41.6818182,
                "end_time": 41.7613636,
                "pitch": 68,
                "velocity": 101,
                "duration": 0.0795455,
                "tempo": 120.0
            },
            {
                "start_time": 41.7886364,
                "end_time": 41.8659091,
                "pitch": 68,
                "velocity": 101,
                "duration": 0.0772727,
                "tempo": 120.0
            },
            {
                "start_time": 41.4727273,
                "end_time": 41.8931818,
                "pitch": 0,
                "velocity": 101,
                "duration": 0.4204545,
                "tempo": 120.0
            },
            {
                "start_time": 41.8931818,
                "end_time": 41.9704545,
                "pitch": 65,
                "velocity": 101,
                "duration": 0.0772727,
                "tempo": 120.0
            },
            {
                "start_time": 41.6818182,
                "end_time": 41.9977273,
                "pitch": 78,
                "velocity": 101,
                "duration": 0.3159091,
                "tempo": 120.0
            },
            {
                "start_time": 41.9977273,
                "end_time": 42.0772727,
                "pitch": 67,
                "velocity": 101,
                "duration": 0.0795455,
                "tempo": 120.0
            },
            {
                "start_time": 41.8931818,
                "end_time": 42.1045455,
                "pitch": 0,
                "velocity": 101,
                "duration": 0.2113636,
                "tempo": 120.0
            },
            {
                "start_time": 42.1045455,
                "end_time": 42.1863636,
                "pitch": 65,
                "velocity": 101,
                "duration": 0.0818182,
                "tempo": 120.0
            },
            {
                "start_time": 42.2136364,
                "end_time": 42.2931818,
                "pitch": 65,
                "velocity": 101,
                "duration": 0.0795455,
                "tempo": 120.0
            },
            {
                "start_time": 42.3227273,
                "end_time": 42.4,
                "pitch": 64,
                "velocity": 101,
                "duration": 0.0772727,
                "tempo": 120.0
            },
            {
                "start_time": 42.425,
                "end_time": 42.5045455,
                "pitch": 65,
                "velocity": 101,
                "duration": 0.0795455,
                "tempo": 120.0
            },
            {
                "start_time": 29.9340909,
                "end_time": 42.6090909,
                "pitch": 62,
                "velocity": 127,
                "duration": 12.675,
                "tempo": 120.0
            },
            {
                "start_time": 42.5318182,
                "end_time": 42.6090909,
                "pitch": 62,
                "velocity": 101,
                "duration": 0.0772727,
                "tempo": 120.0
            },
            {
                "start_time": 42.5318182,
                "end_time": 42.7159091,
                "pitch": 64,
                "velocity": 101,
                "duration": 0.1840909,
                "tempo": 120.0
            },
            {
                "start_time": 42.6363636,
                "end_time": 42.7159091,
                "pitch": 64,
                "velocity": 101,
                "duration": 0.0795455,
                "tempo": 120.0
            },
            {
                "start_time": 42.6363636,
                "end_time": 42.825,
                "pitch": 62,
                "velocity": 101,
                "duration": 0.1886364,
                "tempo": 120.0
            },
            {
                "start_time": 42.7431818,
                "end_time": 42.825,
                "pitch": 62,
                "velocity": 101,
                "duration": 0.0818182,
                "tempo": 120.0
            },
            {
                "start_time": 42.8522727,
                "end_time": 42.9318182,
                "pitch": 60,
                "velocity": 101,
                "duration": 0.0795455,
                "tempo": 120.0
            },
            {
                "start_time": 42.8522727,
                "end_time": 43.0386364,
                "pitch": 62,
                "velocity": 101,
                "duration": 0.1863636,
                "tempo": 120.0
            },
            {
                "start_time": 42.9613636,
                "end_time": 43.0386364,
                "pitch": 62,
                "velocity": 101,
                "duration": 0.0772727,
                "tempo": 120.0
            },
            {
                "start_time": 42.9613636,
                "end_time": 43.1431818,
                "pitch": 60,
                "velocity": 101,
                "duration": 0.1818182,
                "tempo": 120.0
            },
            {
                "start_time": 43.0636364,
                "end_time": 43.1431818,
                "pitch": 60,
                "velocity": 101,
                "duration": 0.0795455,
                "tempo": 120.0
            },
            {
                "start_time": 42.7431818,
                "end_time": 43.1704545,
                "pitch": 64,
                "velocity": 101,
                "duration": 0.4272727,
                "tempo": 120.0
            },
            {
                "start_time": 43.1704545,
                "end_time": 43.2477273,
                "pitch": 59,
                "velocity": 101,
                "duration": 0.0772727,
                "tempo": 120.0
            }
        ],
        "Church Organ": [
            {
                "start_time": 17.8613636,
                "end_time": 18.9090909,
                "pitch": 52,
                "velocity": 80,
                "duration": 1.0477273,
                "tempo": 120.0
            },
            {
                "start_time": 19.1272727,
                "end_time": 19.9159091,
                "pitch": 50,
                "velocity": 80,
                "duration": 0.7886364,
                "tempo": 120.0
            },
            {
                "start_time": 19.9704545,
                "end_time": 20.2340909,
                "pitch": 45,
                "velocity": 80,
                "duration": 0.2636364,
                "tempo": 120.0
            },
            {
                "start_time": 20.2909091,
                "end_time": 21.4545455,
                "pitch": 48,
                "velocity": 80,
                "duration": 1.1636364,
                "tempo": 120.0
            },
            {
                "start_time": 19.1272727,
                "end_time": 21.6704545,
                "pitch": 52,
                "velocity": 80,
                "duration": 2.5431818,
                "tempo": 120.0
            },
            {
                "start_time": 21.6704545,
                "end_time": 22.1931818,
                "pitch": 47,
                "velocity": 80,
                "duration": 0.5227273,
                "tempo": 120.0
            },
            {
                "start_time": 22.5159091,
                "end_time": 22.675,
                "pitch": 48,
                "velocity": 80,
                "duration": 0.1590909,
                "tempo": 120.0
            },
            {
                "start_time": 22.7295455,
                "end_time": 22.8840909,
                "pitch": 50,
                "velocity": 80,
                "duration": 0.1545455,
                "tempo": 120.0
            },
            {
                "start_time": 21.6704545,
                "end_time": 23.9954545,
                "pitch": 52,
                "velocity": 80,
                "duration": 2.325,
                "tempo": 120.0
            },
            {
                "start_time": 22.9386364,
                "end_time": 23.9954545,
                "pitch": 52,
                "velocity": 80,
                "duration": 1.0568182,
                "tempo": 120.0
            },
            {
                "start_time": 22.9386364,
                "end_time": 25.0,
                "pitch": 50,
                "velocity": 80,
                "duration": 2.0613636,
                "tempo": 120.0
            },
            {
                "start_time": 24.2068182,
                "end_time": 25.0,
                "pitch": 50,
                "velocity": 80,
                "duration": 0.7931818,
                "tempo": 120.0
            },
            {
                "start_time": 19.9704545,
                "end_time": 25.0522727,
                "pitch": 53,
                "velocity": 80,
                "duration": 5.0818182,
                "tempo": 120.0
            },
            {
                "start_time": 25.0522727,
                "end_time": 25.3181818,
                "pitch": 45,
                "velocity": 80,
                "duration": 0.2659091,
                "tempo": 120.0
            },
            {
                "start_time": 20.2909091,
                "end_time": 25.375,
                "pitch": 19,
                "velocity": 80,
                "duration": 5.0840909,
                "tempo": 120.0
            },
            {
                "start_time": 22.7295455,
                "end_time": 26.5409091,
                "pitch": 48,
                "velocity": 80,
                "duration": 3.8113636,
                "tempo": 120.0
            },
            {
                "start_time": 25.375,
                "end_time": 26.5409091,
                "pitch": 48,
                "velocity": 80,
                "duration": 1.1659091,
                "tempo": 120.0
            },
            {
                "start_time": 24.2068182,
                "end_time": 26.75,
                "pitch": 52,
                "velocity": 80,
                "duration": 2.5431818,
                "tempo": 120.0
            },
            {
                "start_time": 26.75,
                "end_time": 27.8068182,
                "pitch": 47,
                "velocity": 80,
                "duration": 1.0568182,
                "tempo": 120.0
            }
        ],
        "Harpsichord": [
            {
                "start_time": 28.0159091,
                "end_time": 28.1772727,
                "pitch": 64,
                "velocity": 101,
                "duration": 0.1613636,
                "tempo": 120.0
            },
            {
                "start_time": 28.2318182,
                "end_time": 28.3113636,
                "pitch": 64,
                "velocity": 101,
                "duration": 0.0795455,
                "tempo": 120.0
            },
            {
                "start_time": 28.3386364,
                "end_time": 28.4181818,
                "pitch": 64,
                "velocity": 101,
                "duration": 0.0795455,
                "tempo": 120.0
            },
            {
                "start_time": 28.4431818,
                "end_time": 28.5227273,
                "pitch": 64,
                "velocity": 101,
                "duration": 0.0795455,
                "tempo": 120.0
            },
            {
                "start_time": 28.55,
                "end_time": 28.6272727,
                "pitch": 64,
                "velocity": 101,
                "duration": 0.0772727,
                "tempo": 120.0
            },
            {
                "start_time": 28.6545455,
                "end_time": 28.6931818,
                "pitch": 64,
                "velocity": 101,
                "duration": 0.0386364,
                "tempo": 120.0
            },
            {
                "start_time": 28.7068182,
                "end_time": 28.7477273,
                "pitch": 65,
                "velocity": 101,
                "duration": 0.0409091,
                "tempo": 120.0
            },
            {
                "start_time": 28.7613636,
                "end_time": 28.8022727,
                "pitch": 65,
                "velocity": 101,
                "duration": 0.0409091,
                "tempo": 120.0
            },
            {
                "start_time": 28.8159091,
                "end_time": 28.8568182,
                "pitch": 65,
                "velocity": 101,
                "duration": 0.0409091,
                "tempo": 120.0
            },
            {
                "start_time": 28.8704545,
                "end_time": 28.9090909,
                "pitch": 65,
                "velocity": 101,
                "duration": 0.0386364,
                "tempo": 120.0
            },
            {
                "start_time": 28.9227273,
                "end_time": 28.9636364,
                "pitch": 65,
                "velocity": 101,
                "duration": 0.0409091,
                "tempo": 120.0
            },
            {
                "start_time": 28.9772727,
                "end_time": 29.0181818,
                "pitch": 65,
                "velocity": 101,
                "duration": 0.0409091,
                "tempo": 120.0
            },
            {
                "start_time": 29.0295455,
                "end_time": 29.0704545,
                "pitch": 65,
                "velocity": 101,
                "duration": 0.0409091,
                "tempo": 120.0
            },
            {
                "start_time": 29.0818182,
                "end_time": 29.1227273,
                "pitch": 65,
                "velocity": 101,
                "duration": 0.0409091,
                "tempo": 120.0
            },
            {
                "start_time": 29.1340909,
                "end_time": 29.175,
                "pitch": 65,
                "velocity": 101,
                "duration": 0.0409091,
                "tempo": 120.0
            },
            {
                "start_time": 29.1886364,
                "end_time": 29.2272727,
                "pitch": 65,
                "velocity": 101,
                "duration": 0.0386364,
                "tempo": 120.0
            },
            {
                "start_time": 29.2409091,
                "end_time": 29.2795455,
                "pitch": 65,
                "velocity": 101,
                "duration": 0.0386364,
                "tempo": 120.0
            },
            {
                "start_time": 29.2931818,
                "end_time": 29.45,
                "pitch": 65,
                "velocity": 101,
                "duration": 0.1568182,
                "tempo": 120.0
            },
            {
                "start_time": 29.5022727,
                "end_time": 29.5795455,
                "pitch": 64,
                "velocity": 101,
                "duration": 0.0772727,
                "tempo": 120.0
            },
            {
                "start_time": 29.6068182,
                "end_time": 29.6863636,
                "pitch": 64,
                "velocity": 101,
                "duration": 0.0795455,
                "tempo": 120.0
            },
            {
                "start_time": 29.7136364,
                "end_time": 29.7954545,
                "pitch": 64,
                "velocity": 101,
                "duration": 0.0818182,
                "tempo": 120.0
            },
            {
                "start_time": 29.8227273,
                "end_time": 29.9045455,
                "pitch": 64,
                "velocity": 101,
                "duration": 0.0818182,
                "tempo": 120.0
            },
            {
                "start_time": 29.9318182,
                "end_time": 29.9704545,
                "pitch": 64,
                "velocity": 101,
                "duration": 0.0386364,
                "tempo": 120.0
            },
            {
                "start_time": 29.9840909,
                "end_time": 30.0227273,
                "pitch": 65,
                "velocity": 101,
                "duration": 0.0386364,
                "tempo": 120.0
            },
            {
                "start_time": 30.0363636,
                "end_time": 30.075,
                "pitch": 65,
                "velocity": 101,
                "duration": 0.0386364,
                "tempo": 120.0
            },
            {
                "start_time": 30.0886364,
                "end_time": 30.1272727,
                "pitch": 65,
                "velocity": 101,
                "duration": 0.0386364,
                "tempo": 120.0
            },
            {
                "start_time": 30.1409091,
                "end_time": 30.1795455,
                "pitch": 65,
                "velocity": 101,
                "duration": 0.0386364,
                "tempo": 120.0
            },
            {
                "start_time": 30.1931818,
                "end_time": 30.2318182,
                "pitch": 65,
                "velocity": 101,
                "duration": 0.0386364,
                "tempo": 120.0
            },
            {
                "start_time": 30.2454545,
                "end_time": 30.2840909,
                "pitch": 65,
                "velocity": 101,
                "duration": 0.0386364,
                "tempo": 120.0
            },
            {
                "start_time": 30.2977273,
                "end_time": 30.3363636,
                "pitch": 65,
                "velocity": 101,
                "duration": 0.0386364,
                "tempo": 120.0
            },
            {
                "start_time": 30.35,
                "end_time": 30.3886364,
                "pitch": 65,
                "velocity": 101,
                "duration": 0.0386364,
                "tempo": 120.0
            },
            {
                "start_time": 30.4022727,
                "end_time": 30.4409091,
                "pitch": 65,
                "velocity": 101,
                "duration": 0.0386364,
                "tempo": 120.0
            },
            {
                "start_time": 30.4545455,
                "end_time": 30.4931818,
                "pitch": 65,
                "velocity": 101,
                "duration": 0.0386364,
                "tempo": 120.0
            },
            {
                "start_time": 30.5068182,
                "end_time": 30.5454545,
                "pitch": 65,
                "velocity": 101,
                "duration": 0.0386364,
                "tempo": 120.0
            },
            {
                "start_time": 33.1045455,
                "end_time": 33.2863636,
                "pitch": 57,
                "velocity": 101,
                "duration": 0.1818182,
                "tempo": 120.0
            },
            {
                "start_time": 33.3136364,
                "end_time": 33.3931818,
                "pitch": 58,
                "velocity": 101,
                "duration": 0.0795455,
                "tempo": 120.0
            },
            {
                "start_time": 33.4181818,
                "end_time": 33.5,
                "pitch": 58,
                "velocity": 101,
                "duration": 0.0818182,
                "tempo": 120.0
            },
            {
                "start_time": 33.5272727,
                "end_time": 33.6068182,
                "pitch": 58,
                "velocity": 101,
                "duration": 0.0795455,
                "tempo": 120.0
            },
            {
                "start_time": 33.6340909,
                "end_time": 33.7159091,
                "pitch": 58,
                "velocity": 101,
                "duration": 0.0818182,
                "tempo": 120.0
            },
            {
                "start_time": 33.7431818,
                "end_time": 33.7818182,
                "pitch": 58,
                "velocity": 101,
                "duration": 0.0386364,
                "tempo": 120.0
            },
            {
                "start_time": 33.7954545,
                "end_time": 33.8340909,
                "pitch": 59,
                "velocity": 101,
                "duration": 0.0386364,
                "tempo": 120.0
            },
            {
                "start_time": 33.8477273,
                "end_time": 33.8863636,
                "pitch": 59,
                "velocity": 101,
                "duration": 0.0386364,
                "tempo": 120.0
            },
            {
                "start_time": 33.9,
                "end_time": 33.9386364,
                "pitch": 59,
                "velocity": 101,
                "duration": 0.0386364,
                "tempo": 120.0
            },
            {
                "start_time": 33.9522727,
                "end_time": 33.9909091,
                "pitch": 59,
                "velocity": 101,
                "duration": 0.0386364,
                "tempo": 120.0
            },
            {
                "start_time": 34.0045455,
                "end_time": 34.0431818,
                "pitch": 59,
                "velocity": 101,
                "duration": 0.0386364,
                "tempo": 120.0
            },
            {
                "start_time": 34.0568182,
                "end_time": 34.0954545,
                "pitch": 59,
                "velocity": 101,
                "duration": 0.0386364,
                "tempo": 120.0
            },
            {
                "start_time": 34.1090909,
                "end_time": 34.1477273,
                "pitch": 59,
                "velocity": 101,
                "duration": 0.0386364,
                "tempo": 120.0
            },
            {
                "start_time": 34.1613636,
                "end_time": 34.2,
                "pitch": 59,
                "velocity": 101,
                "duration": 0.0386364,
                "tempo": 120.0
            },
            {
                "start_time": 34.2136364,
                "end_time": 34.2522727,
                "pitch": 59,
                "velocity": 101,
                "duration": 0.0386364,
                "tempo": 120.0
            },
            {
                "start_time": 34.2659091,
                "end_time": 34.3068182,
                "pitch": 59,
                "velocity": 101,
                "duration": 0.0409091,
                "tempo": 120.0
            },
            {
                "start_time": 34.3181818,
                "end_time": 34.3590909,
                "pitch": 59,
                "velocity": 101,
                "duration": 0.0409091,
                "tempo": 120.0
            },
            {
                "start_time": 34.3727273,
                "end_time": 34.5545455,
                "pitch": 59,
                "velocity": 101,
                "duration": 0.1818182,
                "tempo": 120.0
            },
            {
                "start_time": 34.5818182,
                "end_time": 34.6590909,
                "pitch": 58,
                "velocity": 101,
                "duration": 0.0772727,
                "tempo": 120.0
            },
            {
                "start_time": 34.6863636,
                "end_time": 34.7659091,
                "pitch": 58,
                "velocity": 101,
                "duration": 0.0795455,
                "tempo": 120.0
            },
            {
                "start_time": 34.7931818,
                "end_time": 34.875,
                "pitch": 58,
                "velocity": 101,
                "duration": 0.0818182,
                "tempo": 120.0
            },
            {
                "start_time": 34.9022727,
                "end_time": 34.9818182,
                "pitch": 58,
                "velocity": 101,
                "duration": 0.0795455,
                "tempo": 120.0
            },
            {
                "start_time": 35.0090909,
                "end_time": 35.05,
                "pitch": 58,
                "velocity": 101,
                "duration": 0.0409091,
                "tempo": 120.0
            },
            {
                "start_time": 35.0613636,
                "end_time": 35.1022727,
                "pitch": 59,
                "velocity": 101,
                "duration": 0.0409091,
                "tempo": 120.0
            },
            {
                "start_time": 35.1159091,
                "end_time": 35.1545455,
                "pitch": 59,
                "velocity": 101,
                "duration": 0.0386364,
                "tempo": 120.0
            },
            {
                "start_time": 35.1681818,
                "end_time": 35.2068182,
                "pitch": 59,
                "velocity": 101,
                "duration": 0.0386364,
                "tempo": 120.0
            },
            {
                "start_time": 35.2204545,
                "end_time": 35.2590909,
                "pitch": 59,
                "velocity": 101,
                "duration": 0.0386364,
                "tempo": 120.0
            },
            {
                "start_time": 35.2727273,
                "end_time": 35.3113636,
                "pitch": 59,
                "velocity": 101,
                "duration": 0.0386364,
                "tempo": 120.0
            },
            {
                "start_time": 35.325,
                "end_time": 35.3636364,
                "pitch": 59,
                "velocity": 101,
                "duration": 0.0386364,
                "tempo": 120.0
            },
            {
                "start_time": 35.3772727,
                "end_time": 35.4181818,
                "pitch": 59,
                "velocity": 101,
                "duration": 0.0409091,
                "tempo": 120.0
            },
            {
                "start_time": 35.4318182,
                "end_time": 35.4727273,
                "pitch": 59,
                "velocity": 101,
                "duration": 0.0409091,
                "tempo": 120.0
            },
            {
                "start_time": 35.4863636,
                "end_time": 35.5272727,
                "pitch": 59,
                "velocity": 101,
                "duration": 0.0409091,
                "tempo": 120.0
            },
            {
                "start_time": 35.5409091,
                "end_time": 35.5818182,
                "pitch": 59,
                "velocity": 101,
                "duration": 0.0409091,
                "tempo": 120.0
            },
            {
                "start_time": 35.5954545,
                "end_time": 35.6340909,
                "pitch": 59,
                "velocity": 101,
                "duration": 0.0386364,
                "tempo": 120.0
            }
        ],
        "Electric Piano 1": [
            {
                "start_time": 30.5613636,
                "end_time": 30.6409091,
                "pitch": 41,
                "velocity": 127,
                "duration": 0.0795455,
                "tempo": 120.0
            },
            {
                "start_time": 30.6681818,
                "end_time": 30.7477273,
                "pitch": 40,
                "velocity": 127,
                "duration": 0.0795455,
                "tempo": 120.0
            },
            {
                "start_time": 30.775,
                "end_time": 30.8568182,
                "pitch": 41,
                "velocity": 127,
                "duration": 0.0818182,
                "tempo": 120.0
            },
            {
                "start_time": 30.8840909,
                "end_time": 30.9613636,
                "pitch": 43,
                "velocity": 127,
                "duration": 0.0772727,
                "tempo": 120.0
            },
            {
                "start_time": 30.9886364,
                "end_time": 31.0681818,
                "pitch": 38,
                "velocity": 127,
                "duration": 0.0795455,
                "tempo": 120.0
            },
            {
                "start_time": 31.0931818,
                "end_time": 31.1727273,
                "pitch": 40,
                "velocity": 127,
                "duration": 0.0795455,
                "tempo": 120.0
            },
            {
                "start_time": 31.1977273,
                "end_time": 31.2772727,
                "pitch": 40,
                "velocity": 127,
                "duration": 0.0795455,
                "tempo": 120.0
            },
            {
                "start_time": 31.3022727,
                "end_time": 31.3818182,
                "pitch": 40,
                "velocity": 127,
                "duration": 0.0795455,
                "tempo": 120.0
            },
            {
                "start_time": 31.4068182,
                "end_time": 31.4863636,
                "pitch": 41,
                "velocity": 127,
                "duration": 0.0795455,
                "tempo": 120.0
            },
            {
                "start_time": 30.8840909,
                "end_time": 31.5136364,
                "pitch": 54,
                "velocity": 127,
                "duration": 0.6295455,
                "tempo": 120.0
            },
            {
                "start_time": 31.5136364,
                "end_time": 31.5909091,
                "pitch": 43,
                "velocity": 127,
                "duration": 0.0772727,
                "tempo": 120.0
            },
            {
                "start_time": 30.9886364,
                "end_time": 31.6181818,
                "pitch": 0,
                "velocity": 127,
                "duration": 0.6295455,
                "tempo": 120.0
            },
            {
                "start_time": 31.0931818,
                "end_time": 31.6954545,
                "pitch": 38,
                "velocity": 127,
                "duration": 0.6022727,
                "tempo": 120.0
            },
            {
                "start_time": 31.6181818,
                "end_time": 31.6954545,
                "pitch": 38,
                "velocity": 127,
                "duration": 0.0772727,
                "tempo": 120.0
            },
            {
                "start_time": 31.7227273,
                "end_time": 31.8,
                "pitch": 40,
                "velocity": 127,
                "duration": 0.0772727,
                "tempo": 120.0
            },
            {
                "start_time": 31.7227273,
                "end_time": 31.9068182,
                "pitch": 38,
                "velocity": 127,
                "duration": 0.1840909,
                "tempo": 120.0
            },
            {
                "start_time": 31.8272727,
                "end_time": 31.9068182,
                "pitch": 38,
                "velocity": 127,
                "duration": 0.0795455,
                "tempo": 120.0
            },
            {
                "start_time": 31.8272727,
                "end_time": 32.0159091,
                "pitch": 40,
                "velocity": 127,
                "duration": 0.1886364,
                "tempo": 120.0
            },
            {
                "start_time": 31.9340909,
                "end_time": 32.0159091,
                "pitch": 40,
                "velocity": 127,
                "duration": 0.0818182,
                "tempo": 120.0
            },
            {
                "start_time": 31.9340909,
                "end_time": 32.1227273,
                "pitch": 38,
                "velocity": 127,
                "duration": 0.1886364,
                "tempo": 120.0
            },
            {
                "start_time": 32.0431818,
                "end_time": 32.1227273,
                "pitch": 38,
                "velocity": 127,
                "duration": 0.0795455,
                "tempo": 120.0
            },
            {
                "start_time": 32.15,
                "end_time": 32.1522727,
                "pitch": 38,
                "velocity": 127,
                "duration": 0.0022727,
                "tempo": 120.0
            },
            {
                "start_time": 32.1522727,
                "end_time": 32.2295455,
                "pitch": 41,
                "velocity": 127,
                "duration": 0.0772727,
                "tempo": 120.0
            },
            {
                "start_time": 32.2568182,
                "end_time": 32.3340909,
                "pitch": 41,
                "velocity": 127,
                "duration": 0.0772727,
                "tempo": 120.0
            },
            {
                "start_time": 32.0431818,
                "end_time": 32.4386364,
                "pitch": 40,
                "velocity": 127,
                "duration": 0.3954545,
                "tempo": 120.0
            },
            {
                "start_time": 32.3613636,
                "end_time": 32.4386364,
                "pitch": 40,
                "velocity": 127,
                "duration": 0.0772727,
                "tempo": 120.0
            },
            {
                "start_time": 31.5136364,
                "end_time": 32.4659091,
                "pitch": 54,
                "velocity": 127,
                "duration": 0.9522727,
                "tempo": 120.0
            },
            {
                "start_time": 32.4659091,
                "end_time": 32.5454545,
                "pitch": 44,
                "velocity": 127,
                "duration": 0.0795455,
                "tempo": 120.0
            },
            {
                "start_time": 32.4659091,
                "end_time": 32.6818182,
                "pitch": 54,
                "velocity": 127,
                "duration": 0.2159091,
                "tempo": 120.0
            },
            {
                "start_time": 32.6818182,
                "end_time": 32.7613636,
                "pitch": 44,
                "velocity": 127,
                "duration": 0.0795455,
                "tempo": 120.0
            },
            {
                "start_time": 32.7886364,
                "end_time": 32.8681818,
                "pitch": 44,
                "velocity": 127,
                "duration": 0.0795455,
                "tempo": 120.0
            },
            {
                "start_time": 32.8954545,
                "end_time": 32.9727273,
                "pitch": 45,
                "velocity": 127,
                "duration": 0.0772727,
                "tempo": 120.0
            },
            {
                "start_time": 33.0,
                "end_time": 33.0772727,
                "pitch": 44,
                "velocity": 127,
                "duration": 0.0772727,
                "tempo": 120.0
            }
        ],
        "Electric Guitar (clean)": [
            {
                "start_time": 0.0545455,
                "end_time": 0.2363636,
                "pitch": 28,
                "velocity": 127,
                "duration": 0.1818182,
                "tempo": 120.0
            },
            {
                "start_time": 0.2636364,
                "end_time": 0.3431818,
                "pitch": 28,
                "velocity": 127,
                "duration": 0.0795455,
                "tempo": 120.0
            },
            {
                "start_time": 1.0181818,
                "end_time": 1.2,
                "pitch": 28,
                "velocity": 127,
                "duration": 0.1818182,
                "tempo": 120.0
            },
            {
                "start_time": 1.2272727,
                "end_time": 1.3045455,
                "pitch": 28,
                "velocity": 127,
                "duration": 0.0772727,
                "tempo": 120.0
            },
            {
                "start_time": 1.3318182,
                "end_time": 1.5204545,
                "pitch": 28,
                "velocity": 127,
                "duration": 0.1886364,
                "tempo": 120.0
            },
            {
                "start_time": 1.5477273,
                "end_time": 1.6295455,
                "pitch": 28,
                "velocity": 127,
                "duration": 0.0818182,
                "tempo": 120.0
            },
            {
                "start_time": 2.6,
                "end_time": 2.7818182,
                "pitch": 28,
                "velocity": 127,
                "duration": 0.1818182,
                "tempo": 120.0
            },
            {
                "start_time": 2.8090909,
                "end_time": 2.8863636,
                "pitch": 28,
                "velocity": 127,
                "duration": 0.0772727,
                "tempo": 120.0
            },
            {
                "start_time": 3.5522727,
                "end_time": 3.7340909,
                "pitch": 28,
                "velocity": 127,
                "duration": 0.1818182,
                "tempo": 120.0
            },
            {
                "start_time": 3.7613636,
                "end_time": 3.8409091,
                "pitch": 28,
                "velocity": 127,
                "duration": 0.0795455,
                "tempo": 120.0
            },
            {
                "start_time": 3.8659091,
                "end_time": 4.0545455,
                "pitch": 28,
                "velocity": 127,
                "duration": 0.1886364,
                "tempo": 120.0
            },
            {
                "start_time": 4.0818182,
                "end_time": 4.1636364,
                "pitch": 28,
                "velocity": 127,
                "duration": 0.0818182,
                "tempo": 120.0
            },
            {
                "start_time": 5.1431818,
                "end_time": 5.1454545,
                "pitch": 42,
                "velocity": 127,
                "duration": 0.0022727,
                "tempo": 120.0
            },
            {
                "start_time": 5.1454545,
                "end_time": 5.3318182,
                "pitch": 33,
                "velocity": 127,
                "duration": 0.1863636,
                "tempo": 120.0
            },
            {
                "start_time": 5.3590909,
                "end_time": 5.4409091,
                "pitch": 33,
                "velocity": 127,
                "duration": 0.0818182,
                "tempo": 120.0
            },
            {
                "start_time": 5.4681818,
                "end_time": 5.5454545,
                "pitch": 45,
                "velocity": 127,
                "duration": 0.0772727,
                "tempo": 120.0
            },
            {
                "start_time": 5.5727273,
                "end_time": 5.6522727,
                "pitch": 40,
                "velocity": 127,
                "duration": 0.0795455,
                "tempo": 120.0
            },
            {
                "start_time": 5.6772727,
                "end_time": 5.7568182,
                "pitch": 43,
                "velocity": 127,
                "duration": 0.0795455,
                "tempo": 120.0
            },
            {
                "start_time": 5.7818182,
                "end_time": 5.9659091,
                "pitch": 33,
                "velocity": 127,
                "duration": 0.1840909,
                "tempo": 120.0
            },
            {
                "start_time": 5.9909091,
                "end_time": 6.0704545,
                "pitch": 33,
                "velocity": 127,
                "duration": 0.0795455,
                "tempo": 120.0
            },
            {
                "start_time": 6.0977273,
                "end_time": 6.175,
                "pitch": 43,
                "velocity": 127,
                "duration": 0.0772727,
                "tempo": 120.0
            },
            {
                "start_time": 0.0545455,
                "end_time": 6.2022727,
                "pitch": 0,
                "velocity": 127,
                "duration": 6.1477273,
                "tempo": 120.0
            },
            {
                "start_time": 6.2022727,
                "end_time": 6.2795455,
                "pitch": 38,
                "velocity": 127,
                "duration": 0.0772727,
                "tempo": 120.0
            },
            {
                "start_time": 6.3068182,
                "end_time": 6.3840909,
                "pitch": 41,
                "velocity": 127,
                "duration": 0.0772727,
                "tempo": 120.0
            },
            {
                "start_time": 6.4113636,
                "end_time": 6.6,
                "pitch": 33,
                "velocity": 127,
                "duration": 0.1886364,
                "tempo": 120.0
            },
            {
                "start_time": 6.6272727,
                "end_time": 6.7068182,
                "pitch": 33,
                "velocity": 127,
                "duration": 0.0795455,
                "tempo": 120.0
            },
            {
                "start_time": 5.5727273,
                "end_time": 6.7363636,
                "pitch": 7,
                "velocity": 127,
                "duration": 1.1636364,
                "tempo": 120.0
            },
            {
                "start_time": 6.7363636,
                "end_time": 6.9977273,
                "pitch": 41,
                "velocity": 127,
                "duration": 0.2613636,
                "tempo": 120.0
            },
            {
                "start_time": 6.3068182,
                "end_time": 7.3113636,
                "pitch": 38,
                "velocity": 127,
                "duration": 1.0045455,
                "tempo": 120.0
            },
            {
                "start_time": 7.05,
                "end_time": 7.3113636,
                "pitch": 38,
                "velocity": 127,
                "duration": 0.2613636,
                "tempo": 120.0
            },
            {
                "start_time": 7.3636364,
                "end_time": 7.6340909,
                "pitch": 40,
                "velocity": 127,
                "duration": 0.2704545,
                "tempo": 120.0
            },
            {
                "start_time": 6.4113636,
                "end_time": 7.6886364,
                "pitch": 42,
                "velocity": 127,
                "duration": 1.2772727,
                "tempo": 120.0
            },
            {
                "start_time": 7.6886364,
                "end_time": 7.8704545,
                "pitch": 33,
                "velocity": 127,
                "duration": 0.1818182,
                "tempo": 120.0
            },
            {
                "start_time": 7.8977273,
                "end_time": 7.9772727,
                "pitch": 33,
                "velocity": 127,
                "duration": 0.0795455,
                "tempo": 120.0
            },
            {
                "start_time": 6.0977273,
                "end_time": 8.0818182,
                "pitch": 45,
                "velocity": 127,
                "duration": 1.9840909,
                "tempo": 120.0
            },
            {
                "start_time": 8.0022727,
                "end_time": 8.0818182,
                "pitch": 45,
                "velocity": 127,
                "duration": 0.0795455,
                "tempo": 120.0
            },
            {
                "start_time": 6.7363636,
                "end_time": 8.1068182,
                "pitch": 7,
                "velocity": 127,
                "duration": 1.3704545,
                "tempo": 120.0
            },
            {
                "start_time": 8.1068182,
                "end_time": 8.1863636,
                "pitch": 40,
                "velocity": 127,
                "duration": 0.0795455,
                "tempo": 120.0
            },
            {
                "start_time": 5.6772727,
                "end_time": 8.2113636,
                "pitch": 54,
                "velocity": 127,
                "duration": 2.5340909,
                "tempo": 120.0
            },
            {
                "start_time": 8.2113636,
                "end_time": 8.2909091,
                "pitch": 43,
                "velocity": 127,
                "duration": 0.0795455,
                "tempo": 120.0
            },
            {
                "start_time": 5.7818182,
                "end_time": 8.3181818,
                "pitch": 31,
                "velocity": 127,
                "duration": 2.5363636,
                "tempo": 120.0
            },
            {
                "start_time": 8.3159091,
                "end_time": 8.3181818,
                "pitch": 31,
                "velocity": 127,
                "duration": 0.0022727,
                "tempo": 120.0
            },
            {
                "start_time": 8.3181818,
                "end_time": 8.5068182,
                "pitch": 33,
                "velocity": 127,
                "duration": 0.1886364,
                "tempo": 120.0
            },
            {
                "start_time": 8.5318182,
                "end_time": 8.6136364,
                "pitch": 33,
                "velocity": 127,
                "duration": 0.0818182,
                "tempo": 120.0
            },
            {
                "start_time": 8.6409091,
                "end_time": 8.7204545,
                "pitch": 43,
                "velocity": 127,
                "duration": 0.0795455,
                "tempo": 120.0
            },
            {
                "start_time": 6.2022727,
                "end_time": 8.7454545,
                "pitch": 0,
                "velocity": 127,
                "duration": 2.5431818,
                "tempo": 120.0
            },
            {
                "start_time": 7.3636364,
                "end_time": 8.825,
                "pitch": 38,
                "velocity": 127,
                "duration": 1.4613636,
                "tempo": 120.0
            },
            {
                "start_time": 8.7454545,
                "end_time": 8.825,
                "pitch": 38,
                "velocity": 127,
                "duration": 0.0795455,
                "tempo": 120.0
            },
            {
                "start_time": 7.05,
                "end_time": 8.9295455,
                "pitch": 41,
                "velocity": 127,
                "duration": 1.8795455,
                "tempo": 120.0
            },
            {
                "start_time": 8.85,
                "end_time": 8.9295455,
                "pitch": 41,
                "velocity": 127,
                "duration": 0.0795455,
                "tempo": 120.0
            },
            {
                "start_time": 7.6886364,
                "end_time": 8.9568182,
                "pitch": 42,
                "velocity": 127,
                "duration": 1.2681818,
                "tempo": 120.0
            },
            {
                "start_time": 8.9568182,
                "end_time": 9.1431818,
                "pitch": 33,
                "velocity": 127,
                "duration": 0.1863636,
                "tempo": 120.0
            },
            {
                "start_time": 9.1704545,
                "end_time": 9.2522727,
                "pitch": 33,
                "velocity": 127,
                "duration": 0.0818182,
                "tempo": 120.0
            },
            {
                "start_time": 8.1068182,
                "end_time": 9.2795455,
                "pitch": 7,
                "velocity": 127,
                "duration": 1.1727273,
                "tempo": 120.0
            },
            {
                "start_time": 9.2795455,
                "end_time": 9.5409091,
                "pitch": 41,
                "velocity": 127,
                "duration": 0.2613636,
                "tempo": 120.0
            },
            {
                "start_time": 9.5931818,
                "end_time": 9.5954545,
                "pitch": 41,
                "velocity": 127,
                "duration": 0.0022727,
                "tempo": 120.0
            },
            {
                "start_time": 8.85,
                "end_time": 9.8568182,
                "pitch": 38,
                "velocity": 127,
                "duration": 1.0068182,
                "tempo": 120.0
            },
            {
                "start_time": 9.5954545,
                "end_time": 9.8568182,
                "pitch": 38,
                "velocity": 127,
                "duration": 0.2613636,
                "tempo": 120.0
            },
            {
                "start_time": 9.9090909,
                "end_time": 10.1772727,
                "pitch": 40,
                "velocity": 127,
                "duration": 0.2681818,
                "tempo": 120.0
            },
            {
                "start_time": 8.9568182,
                "end_time": 10.2340909,
                "pitch": 42,
                "velocity": 127,
                "duration": 1.2772727,
                "tempo": 120.0
            },
            {
                "start_time": 10.2340909,
                "end_time": 10.4159091,
                "pitch": 33,
                "velocity": 127,
                "duration": 0.1818182,
                "tempo": 120.0
            },
            {
                "start_time": 10.4431818,
                "end_time": 10.5204545,
                "pitch": 33,
                "velocity": 127,
                "duration": 0.0772727,
                "tempo": 120.0
            },
            {
                "start_time": 8.6409091,
                "end_time": 10.625,
                "pitch": 45,
                "velocity": 127,
                "duration": 1.9840909,
                "tempo": 120.0
            },
            {
                "start_time": 10.5477273,
                "end_time": 10.625,
                "pitch": 45,
                "velocity": 127,
                "duration": 0.0772727,
                "tempo": 120.0
            },
            {
                "start_time": 9.2795455,
                "end_time": 10.6522727,
                "pitch": 7,
                "velocity": 127,
                "duration": 1.3727273,
                "tempo": 120.0
            },
            {
                "start_time": 10.6522727,
                "end_time": 10.7295455,
                "pitch": 40,
                "velocity": 127,
                "duration": 0.0772727,
                "tempo": 120.0
            },
            {
                "start_time": 8.2113636,
                "end_time": 10.7568182,
                "pitch": 54,
                "velocity": 127,
                "duration": 2.5454545,
                "tempo": 120.0
            },
            {
                "start_time": 10.7568182,
                "end_time": 10.8363636,
                "pitch": 43,
                "velocity": 127,
                "duration": 0.0795455,
                "tempo": 120.0
            },
            {
                "start_time": 10.8613636,
                "end_time": 11.0454545,
                "pitch": 33,
                "velocity": 127,
                "duration": 0.1840909,
                "tempo": 120.0
            },
            {
                "start_time": 11.0704545,
                "end_time": 11.15,
                "pitch": 33,
                "velocity": 127,
                "duration": 0.0795455,
                "tempo": 120.0
            },
            {
                "start_time": 11.1772727,
                "end_time": 11.2568182,
                "pitch": 43,
                "velocity": 127,
                "duration": 0.0795455,
                "tempo": 120.0
            },
            {
                "start_time": 8.7454545,
                "end_time": 11.2840909,
                "pitch": 0,
                "velocity": 127,
                "duration": 2.5386364,
                "tempo": 120.0
            },
            {
                "start_time": 9.9090909,
                "end_time": 11.3636364,
                "pitch": 38,
                "velocity": 127,
                "duration": 1.4545455,
                "tempo": 120.0
            },
            {
                "start_time": 11.2840909,
                "end_time": 11.3636364,
                "pitch": 38,
                "velocity": 127,
                "duration": 0.0795455,
                "tempo": 120.0
            },
            {
                "start_time": 11.3931818,
                "end_time": 11.4727273,
                "pitch": 41,
                "velocity": 127,
                "duration": 0.0795455,
                "tempo": 120.0
            },
            {
                "start_time": 10.2340909,
                "end_time": 11.5,
                "pitch": 42,
                "velocity": 127,
                "duration": 1.2659091,
                "tempo": 120.0
            },
            {
                "start_time": 11.5,
                "end_time": 11.6840909,
                "pitch": 33,
                "velocity": 127,
                "duration": 0.1840909,
                "tempo": 120.0
            },
            {
                "start_time": 11.7090909,
                "end_time": 11.7886364,
                "pitch": 33,
                "velocity": 127,
                "duration": 0.0795455,
                "tempo": 120.0
            },
            {
                "start_time": 10.6522727,
                "end_time": 11.8159091,
                "pitch": 7,
                "velocity": 127,
                "duration": 1.1636364,
                "tempo": 120.0
            },
            {
                "start_time": 11.8159091,
                "end_time": 12.0840909,
                "pitch": 41,
                "velocity": 127,
                "duration": 0.2681818,
                "tempo": 120.0
            },
            {
                "start_time": 11.3931818,
                "end_time": 12.4,
                "pitch": 38,
                "velocity": 127,
                "duration": 1.0068182,
                "tempo": 120.0
            },
            {
                "start_time": 12.1386364,
                "end_time": 12.4,
                "pitch": 38,
                "velocity": 127,
                "duration": 0.2613636,
                "tempo": 120.0
            },
            {
                "start_time": 12.4545455,
                "end_time": 12.7159091,
                "pitch": 40,
                "velocity": 127,
                "duration": 0.2613636,
                "tempo": 120.0
            },
            {
                "start_time": 11.5,
                "end_time": 12.7681818,
                "pitch": 42,
                "velocity": 127,
                "duration": 1.2681818,
                "tempo": 120.0
            },
            {
                "start_time": 12.7681818,
                "end_time": 12.9568182,
                "pitch": 33,
                "velocity": 127,
                "duration": 0.1886364,
                "tempo": 120.0
            },
            {
                "start_time": 12.9840909,
                "end_time": 13.0636364,
                "pitch": 33,
                "velocity": 127,
                "duration": 0.0795455,
                "tempo": 120.0
            },
            {
                "start_time": 11.1772727,
                "end_time": 13.1704545,
                "pitch": 45,
                "velocity": 127,
                "duration": 1.9931818,
                "tempo": 120.0
            },
            {
                "start_time": 13.0909091,
                "end_time": 13.1704545,
                "pitch": 45,
                "velocity": 127,
                "duration": 0.0795455,
                "tempo": 120.0
            },
            {
                "start_time": 11.8159091,
                "end_time": 13.1977273,
                "pitch": 7,
                "velocity": 127,
                "duration": 1.3818182,
                "tempo": 120.0
            },
            {
                "start_time": 13.1977273,
                "end_time": 13.275,
                "pitch": 40,
                "velocity": 127,
                "duration": 0.0772727,
                "tempo": 120.0
            },
            {
                "start_time": 10.7568182,
                "end_time": 13.3022727,
                "pitch": 54,
                "velocity": 127,
                "duration": 2.5454545,
                "tempo": 120.0
            },
            {
                "start_time": 13.3022727,
                "end_time": 13.3795455,
                "pitch": 43,
                "velocity": 127,
                "duration": 0.0772727,
                "tempo": 120.0
            },
            {
                "start_time": 10.8613636,
                "end_time": 13.4068182,
                "pitch": 31,
                "velocity": 127,
                "duration": 2.5454545,
                "tempo": 120.0
            },
            {
                "start_time": 13.4068182,
                "end_time": 13.5886364,
                "pitch": 33,
                "velocity": 127,
                "duration": 0.1818182,
                "tempo": 120.0
            },
            {
                "start_time": 13.6159091,
                "end_time": 13.6931818,
                "pitch": 33,
                "velocity": 127,
                "duration": 0.0772727,
                "tempo": 120.0
            },
            {
                "start_time": 13.7204545,
                "end_time": 13.7977273,
                "pitch": 43,
                "velocity": 127,
                "duration": 0.0772727,
                "tempo": 120.0
            },
            {
                "start_time": 11.2840909,
                "end_time": 13.825,
                "pitch": 0,
                "velocity": 127,
                "duration": 2.5409091,
                "tempo": 120.0
            },
            {
                "start_time": 12.4545455,
                "end_time": 13.9045455,
                "pitch": 38,
                "velocity": 127,
                "duration": 1.45,
                "tempo": 120.0
            },
            {
                "start_time": 13.825,
                "end_time": 13.9045455,
                "pitch": 38,
                "velocity": 127,
                "duration": 0.0795455,
                "tempo": 120.0
            },
            {
                "start_time": 12.1386364,
                "end_time": 14.0090909,
                "pitch": 41,
                "velocity": 127,
                "duration": 1.8704545,
                "tempo": 120.0
            },
            {
                "start_time": 13.9295455,
                "end_time": 14.0090909,
                "pitch": 41,
                "velocity": 127,
                "duration": 0.0795455,
                "tempo": 120.0
            },
            {
                "start_time": 12.7681818,
                "end_time": 14.0363636,
                "pitch": 42,
                "velocity": 127,
                "duration": 1.2681818,
                "tempo": 120.0
            },
            {
                "start_time": 14.0340909,
                "end_time": 14.0363636,
                "pitch": 42,
                "velocity": 127,
                "duration": 0.0022727,
                "tempo": 120.0
            },
            {
                "start_time": 14.0363636,
                "end_time": 14.2227273,
                "pitch": 33,
                "velocity": 127,
                "duration": 0.1863636,
                "tempo": 120.0
            },
            {
                "start_time": 14.25,
                "end_time": 14.3318182,
                "pitch": 33,
                "velocity": 127,
                "duration": 0.0818182,
                "tempo": 120.0
            },
            {
                "start_time": 13.1977273,
                "end_time": 14.3590909,
                "pitch": 7,
                "velocity": 127,
                "duration": 1.1613636,
                "tempo": 120.0
            },
            {
                "start_time": 14.3590909,
                "end_time": 14.6204545,
                "pitch": 41,
                "velocity": 127,
                "duration": 0.2613636,
                "tempo": 120.0
            },
            {
                "start_time": 13.9295455,
                "end_time": 14.9431818,
                "pitch": 38,
                "velocity": 127,
                "duration": 1.0136364,
                "tempo": 120.0
            },
            {
                "start_time": 14.6727273,
                "end_time": 14.9431818,
                "pitch": 38,
                "velocity": 127,
                "duration": 0.2704545,
                "tempo": 120.0
            },
            {
                "start_time": 14.9977273,
                "end_time": 15.2590909,
                "pitch": 40,
                "velocity": 127,
                "duration": 0.2613636,
                "tempo": 120.0
            },
            {
                "start_time": 15.3136364,
                "end_time": 17.1022727,
                "pitch": 28,
                "velocity": 127,
                "duration": 1.7886364,
                "tempo": 120.0
            },
            {
                "start_time": 17.2090909,
                "end_time": 17.2886364,
                "pitch": 40,
                "velocity": 127,
                "duration": 0.0795455,
                "tempo": 120.0
            },
            {
                "start_time": 17.3159091,
                "end_time": 17.3977273,
                "pitch": 40,
                "velocity": 127,
                "duration": 0.0818182,
                "tempo": 120.0
            },
            {
                "start_time": 14.6727273,
                "end_time": 17.5045455,
                "pitch": 41,
                "velocity": 127,
                "duration": 2.8318182,
                "tempo": 120.0
            },
            {
                "start_time": 17.425,
                "end_time": 17.5045455,
                "pitch": 41,
                "velocity": 127,
                "duration": 0.0795455,
                "tempo": 120.0
            },
            {
                "start_time": 14.9977273,
                "end_time": 17.6136364,
                "pitch": 38,
                "velocity": 127,
                "duration": 2.6159091,
                "tempo": 120.0
            },
            {
                "start_time": 17.5318182,
                "end_time": 17.6136364,
                "pitch": 38,
                "velocity": 127,
                "duration": 0.0818182,
                "tempo": 120.0
            },
            {
                "start_time": 17.6409091,
                "end_time": 17.7204545,
                "pitch": 35,
                "velocity": 127,
                "duration": 0.0795455,
                "tempo": 120.0
            },
            {
                "start_time": 17.75,
                "end_time": 17.8295455,
                "pitch": 36,
                "velocity": 127,
                "duration": 0.0795455,
                "tempo": 120.0
            },
            {
                "start_time": 17.5318182,
                "end_time": 17.8568182,
                "pitch": 40,
                "velocity": 127,
                "duration": 0.325,
                "tempo": 120.0
            },
            {
                "start_time": 17.8568182,
                "end_time": 18.0409091,
                "pitch": 33,
                "velocity": 127,
                "duration": 0.1840909,
                "tempo": 120.0
            },
            {
                "start_time": 18.0659091,
                "end_time": 18.1454545,
                "pitch": 33,
                "velocity": 127,
                "duration": 0.0795455,
                "tempo": 120.0
            },
            {
                "start_time": 18.1704545,
                "end_time": 18.25,
                "pitch": 33,
                "velocity": 127,
                "duration": 0.0795455,
                "tempo": 120.0
            },
            {
                "start_time": 13.4068182,
                "end_time": 18.4590909,
                "pitch": 31,
                "velocity": 127,
                "duration": 5.0522727,
                "tempo": 120.0
            },
            {
                "start_time": 18.3818182,
                "end_time": 18.4590909,
                "pitch": 31,
                "velocity": 127,
                "duration": 0.0772727,
                "tempo": 120.0
            },
            {
                "start_time": 18.4863636,
                "end_time": 18.6681818,
                "pitch": 33,
                "velocity": 127,
                "duration": 0.1818182,
                "tempo": 120.0
            },
            {
                "start_time": 18.6954545,
                "end_time": 18.7727273,
                "pitch": 33,
                "velocity": 127,
                "duration": 0.0772727,
                "tempo": 120.0
            },
            {
                "start_time": 14.3590909,
                "end_time": 18.8,
                "pitch": 7,
                "velocity": 127,
                "duration": 4.4409091,
                "tempo": 120.0
            },
            {
                "start_time": 18.8,
                "end_time": 18.8795455,
                "pitch": 36,
                "velocity": 127,
                "duration": 0.0795455,
                "tempo": 120.0
            },
            {
                "start_time": 17.8568182,
                "end_time": 18.9090909,
                "pitch": 40,
                "velocity": 127,
                "duration": 1.0522727,
                "tempo": 120.0
            },
            {
                "start_time": 18.9090909,
                "end_time": 18.9886364,
                "pitch": 35,
                "velocity": 127,
                "duration": 0.0795455,
                "tempo": 120.0
            },
            {
                "start_time": 17.75,
                "end_time": 19.0159091,
                "pitch": 19,
                "velocity": 127,
                "duration": 1.2659091,
                "tempo": 120.0
            },
            {
                "start_time": 19.0159091,
                "end_time": 19.0977273,
                "pitch": 38,
                "velocity": 127,
                "duration": 0.0818182,
                "tempo": 120.0
            },
            {
                "start_time": 17.6409091,
                "end_time": 19.125,
                "pitch": 41,
                "velocity": 127,
                "duration": 1.4840909,
                "tempo": 120.0
            },
            {
                "start_time": 19.125,
                "end_time": 19.3068182,
                "pitch": 33,
                "velocity": 127,
                "duration": 0.1818182,
                "tempo": 120.0
            },
            {
                "start_time": 19.3340909,
                "end_time": 19.4113636,
                "pitch": 33,
                "velocity": 127,
                "duration": 0.0772727,
                "tempo": 120.0
            },
            {
                "start_time": 19.4386364,
                "end_time": 19.5159091,
                "pitch": 33,
                "velocity": 127,
                "duration": 0.0772727,
                "tempo": 120.0
            },
            {
                "start_time": 18.3818182,
                "end_time": 19.6477273,
                "pitch": 42,
                "velocity": 127,
                "duration": 1.2659091,
                "tempo": 120.0
            },
            {
                "start_time": 18.4863636,
                "end_time": 19.7272727,
                "pitch": 31,
                "velocity": 127,
                "duration": 1.2409091,
                "tempo": 120.0
            },
            {
                "start_time": 19.6477273,
                "end_time": 19.7272727,
                "pitch": 31,
                "velocity": 127,
                "duration": 0.0795455,
                "tempo": 120.0
            },
            {
                "start_time": 19.7522727,
                "end_time": 19.9409091,
                "pitch": 33,
                "velocity": 127,
                "duration": 0.1886364,
                "tempo": 120.0
            },
            {
                "start_time": 19.9681818,
                "end_time": 20.05,
                "pitch": 33,
                "velocity": 127,
                "duration": 0.0818182,
                "tempo": 120.0
            },
            {
                "start_time": 18.8,
                "end_time": 20.0772727,
                "pitch": 7,
                "velocity": 127,
                "duration": 1.2772727,
                "tempo": 120.0
            },
            {
                "start_time": 20.0772727,
                "end_time": 20.1545455,
                "pitch": 36,
                "velocity": 127,
                "duration": 0.0772727,
                "tempo": 120.0
            },
            {
                "start_time": 18.9090909,
                "end_time": 20.1818182,
                "pitch": 40,
                "velocity": 127,
                "duration": 1.2727273,
                "tempo": 120.0
            },
            {
                "start_time": 20.1818182,
                "end_time": 20.2613636,
                "pitch": 35,
                "velocity": 127,
                "duration": 0.0795455,
                "tempo": 120.0
            },
            {
                "start_time": 19.0159091,
                "end_time": 20.2863636,
                "pitch": 19,
                "velocity": 127,
                "duration": 1.2704545,
                "tempo": 120.0
            },
            {
                "start_time": 20.2863636,
                "end_time": 20.3659091,
                "pitch": 38,
                "velocity": 127,
                "duration": 0.0795455,
                "tempo": 120.0
            },
            {
                "start_time": 19.125,
                "end_time": 20.3909091,
                "pitch": 41,
                "velocity": 127,
                "duration": 1.2659091,
                "tempo": 120.0
            },
            {
                "start_time": 20.3909091,
                "end_time": 20.5795455,
                "pitch": 33,
                "velocity": 127,
                "duration": 0.1886364,
                "tempo": 120.0
            },
            {
                "start_time": 20.6068182,
                "end_time": 20.6886364,
                "pitch": 33,
                "velocity": 127,
                "duration": 0.0818182,
                "tempo": 120.0
            },
            {
                "start_time": 20.7159091,
                "end_time": 20.7931818,
                "pitch": 33,
                "velocity": 127,
                "duration": 0.0772727,
                "tempo": 120.0
            },
            {
                "start_time": 19.6477273,
                "end_time": 20.925,
                "pitch": 42,
                "velocity": 127,
                "duration": 1.2772727,
                "tempo": 120.0
            },
            {
                "start_time": 19.7522727,
                "end_time": 21.0045455,
                "pitch": 31,
                "velocity": 127,
                "duration": 1.2522727,
                "tempo": 120.0
            },
            {
                "start_time": 20.925,
                "end_time": 21.0045455,
                "pitch": 31,
                "velocity": 127,
                "duration": 0.0795455,
                "tempo": 120.0
            },
            {
                "start_time": 21.0295455,
                "end_time": 21.2136364,
                "pitch": 33,
                "velocity": 127,
                "duration": 0.1840909,
                "tempo": 120.0
            },
            {
                "start_time": 21.2409091,
                "end_time": 21.3181818,
                "pitch": 33,
                "velocity": 127,
                "duration": 0.0772727,
                "tempo": 120.0
            },
            {
                "start_time": 20.0772727,
                "end_time": 21.3454545,
                "pitch": 7,
                "velocity": 127,
                "duration": 1.2681818,
                "tempo": 120.0
            },
            {
                "start_time": 21.3454545,
                "end_time": 21.425,
                "pitch": 36,
                "velocity": 127,
                "duration": 0.0795455,
                "tempo": 120.0
            },
            {
                "start_time": 20.1818182,
                "end_time": 21.4522727,
                "pitch": 40,
                "velocity": 127,
                "duration": 1.2704545,
                "tempo": 120.0
            },
            {
                "start_time": 21.4522727,
                "end_time": 21.5340909,
                "pitch": 35,
                "velocity": 127,
                "duration": 0.0818182,
                "tempo": 120.0
            },
            {
                "start_time": 20.2863636,
                "end_time": 21.5613636,
                "pitch": 19,
                "velocity": 127,
                "duration": 1.275,
                "tempo": 120.0
            },
            {
                "start_time": 21.5613636,
                "end_time": 21.6409091,
                "pitch": 36,
                "velocity": 127,
                "duration": 0.0795455,
                "tempo": 120.0
            },
            {
                "start_time": 21.4522727,
                "end_time": 21.8522727,
                "pitch": 40,
                "velocity": 127,
                "duration": 0.4,
                "tempo": 120.0
            },
            {
                "start_time": 21.6681818,
                "end_time": 21.8522727,
                "pitch": 40,
                "velocity": 127,
                "duration": 0.1840909,
                "tempo": 120.0
            },
            {
                "start_time": 21.8795455,
                "end_time": 21.9568182,
                "pitch": 40,
                "velocity": 127,
                "duration": 0.0772727,
                "tempo": 120.0
            },
            {
                "start_time": 21.9840909,
                "end_time": 22.1659091,
                "pitch": 40,
                "velocity": 127,
                "duration": 0.1818182,
                "tempo": 120.0
            },
            {
                "start_time": 22.1931818,
                "end_time": 22.2704545,
                "pitch": 40,
                "velocity": 127,
                "duration": 0.0772727,
                "tempo": 120.0
            },
            {
                "start_time": 22.2977273,
                "end_time": 22.3772727,
                "pitch": 40,
                "velocity": 127,
                "duration": 0.0795455,
                "tempo": 120.0
            },
            {
                "start_time": 22.4045455,
                "end_time": 22.4863636,
                "pitch": 38,
                "velocity": 127,
                "duration": 0.0818182,
                "tempo": 120.0
            },
            {
                "start_time": 21.6681818,
                "end_time": 22.5931818,
                "pitch": 36,
                "velocity": 127,
                "duration": 0.925,
                "tempo": 120.0
            },
            {
                "start_time": 22.5136364,
                "end_time": 22.5931818,
                "pitch": 36,
                "velocity": 127,
                "duration": 0.0795455,
                "tempo": 120.0
            },
            {
                "start_time": 22.5136364,
                "end_time": 22.7,
                "pitch": 38,
                "velocity": 127,
                "duration": 0.1863636,
                "tempo": 120.0
            },
            {
                "start_time": 22.6227273,
                "end_time": 22.7,
                "pitch": 38,
                "velocity": 127,
                "duration": 0.0772727,
                "tempo": 120.0
            },
            {
                "start_time": 22.6227273,
                "end_time": 22.8045455,
                "pitch": 36,
                "velocity": 127,
                "duration": 0.1818182,
                "tempo": 120.0
            },
            {
                "start_time": 22.7272727,
                "end_time": 22.8045455,
                "pitch": 36,
                "velocity": 127,
                "duration": 0.0772727,
                "tempo": 120.0
            },
            {
                "start_time": 22.4045455,
                "end_time": 22.8318182,
                "pitch": 40,
                "velocity": 127,
                "duration": 0.4272727,
                "tempo": 120.0
            },
            {
                "start_time": 22.8318182,
                "end_time": 22.9090909,
                "pitch": 35,
                "velocity": 127,
                "duration": 0.0772727,
                "tempo": 120.0
            },
            {
                "start_time": 22.9363636,
                "end_time": 23.125,
                "pitch": 33,
                "velocity": 127,
                "duration": 0.1886364,
                "tempo": 120.0
            },
            {
                "start_time": 23.1522727,
                "end_time": 23.2318182,
                "pitch": 33,
                "velocity": 127,
                "duration": 0.0795455,
                "tempo": 120.0
            },
            {
                "start_time": 23.2613636,
                "end_time": 23.3386364,
                "pitch": 33,
                "velocity": 127,
                "duration": 0.0772727,
                "tempo": 120.0
            },
            {
                "start_time": 20.925,
                "end_time": 23.4704545,
                "pitch": 42,
                "velocity": 127,
                "duration": 2.5454545,
                "tempo": 120.0
            },
            {
                "start_time": 21.0295455,
                "end_time": 23.5477273,
                "pitch": 31,
                "velocity": 127,
                "duration": 2.5181818,
                "tempo": 120.0
            },
            {
                "start_time": 23.4704545,
                "end_time": 23.5477273,
                "pitch": 31,
                "velocity": 127,
                "duration": 0.0772727,
                "tempo": 120.0
            },
            {
                "start_time": 23.575,
                "end_time": 23.7568182,
                "pitch": 33,
                "velocity": 127,
                "duration": 0.1818182,
                "tempo": 120.0
            },
            {
                "start_time": 23.7840909,
                "end_time": 23.8636364,
                "pitch": 33,
                "velocity": 127,
                "duration": 0.0795455,
                "tempo": 120.0
            },
            {
                "start_time": 21.3454545,
                "end_time": 23.8886364,
                "pitch": 7,
                "velocity": 127,
                "duration": 2.5431818,
                "tempo": 120.0
            },
            {
                "start_time": 23.8886364,
                "end_time": 23.9681818,
                "pitch": 36,
                "velocity": 127,
                "duration": 0.0795455,
                "tempo": 120.0
            },
            {
                "start_time": 22.8318182,
                "end_time": 23.9931818,
                "pitch": 40,
                "velocity": 127,
                "duration": 1.1613636,
                "tempo": 120.0
            },
            {
                "start_time": 22.9363636,
                "end_time": 24.0727273,
                "pitch": 35,
                "velocity": 127,
                "duration": 1.1363636,
                "tempo": 120.0
            },
            {
                "start_time": 23.9931818,
                "end_time": 24.0727273,
                "pitch": 35,
                "velocity": 127,
                "duration": 0.0795455,
                "tempo": 120.0
            },
            {
                "start_time": 21.5613636,
                "end_time": 24.1,
                "pitch": 19,
                "velocity": 127,
                "duration": 2.5386364,
                "tempo": 120.0
            },
            {
                "start_time": 24.0977273,
                "end_time": 24.1,
                "pitch": 19,
                "velocity": 127,
                "duration": 0.0022727,
                "tempo": 120.0
            },
            {
                "start_time": 22.7272727,
                "end_time": 24.1772727,
                "pitch": 38,
                "velocity": 127,
                "duration": 1.45,
                "tempo": 120.0
            },
            {
                "start_time": 24.1,
                "end_time": 24.1772727,
                "pitch": 38,
                "velocity": 127,
                "duration": 0.0772727,
                "tempo": 120.0
            },
            {
                "start_time": 20.3909091,
                "end_time": 24.2045455,
                "pitch": 41,
                "velocity": 127,
                "duration": 3.8136364,
                "tempo": 120.0
            },
            {
                "start_time": 24.2045455,
                "end_time": 24.3909091,
                "pitch": 33,
                "velocity": 127,
                "duration": 0.1863636,
                "tempo": 120.0
            },
            {
                "start_time": 24.4204545,
                "end_time": 24.5,
                "pitch": 33,
                "velocity": 127,
                "duration": 0.0795455,
                "tempo": 120.0
            },
            {
                "start_time": 24.5272727,
                "end_time": 24.6068182,
                "pitch": 33,
                "velocity": 127,
                "duration": 0.0795455,
                "tempo": 120.0
            },
            {
                "start_time": 23.4704545,
                "end_time": 24.7363636,
                "pitch": 42,
                "velocity": 127,
                "duration": 1.2659091,
                "tempo": 120.0
            },
            {
                "start_time": 23.575,
                "end_time": 24.8159091,
                "pitch": 31,
                "velocity": 127,
                "duration": 1.2409091,
                "tempo": 120.0
            },
            {
                "start_time": 24.7363636,
                "end_time": 24.8159091,
                "pitch": 31,
                "velocity": 127,
                "duration": 0.0795455,
                "tempo": 120.0
            },
            {
                "start_time": 24.8431818,
                "end_time": 25.025,
                "pitch": 33,
                "velocity": 127,
                "duration": 0.1818182,
                "tempo": 120.0
            },
            {
                "start_time": 25.0522727,
                "end_time": 25.1295455,
                "pitch": 33,
                "velocity": 127,
                "duration": 0.0772727,
                "tempo": 120.0
            },
            {
                "start_time": 23.8886364,
                "end_time": 25.1568182,
                "pitch": 7,
                "velocity": 127,
                "duration": 1.2681818,
                "tempo": 120.0
            },
            {
                "start_time": 25.1568182,
                "end_time": 25.2363636,
                "pitch": 36,
                "velocity": 127,
                "duration": 0.0795455,
                "tempo": 120.0
            },
            {
                "start_time": 23.9931818,
                "end_time": 25.2636364,
                "pitch": 40,
                "velocity": 127,
                "duration": 1.2704545,
                "tempo": 120.0
            },
            {
                "start_time": 25.2636364,
                "end_time": 25.3454545,
                "pitch": 35,
                "velocity": 127,
                "duration": 0.0818182,
                "tempo": 120.0
            },
            {
                "start_time": 25.3727273,
                "end_time": 25.4522727,
                "pitch": 38,
                "velocity": 127,
                "duration": 0.0795455,
                "tempo": 120.0
            },
            {
                "start_time": 24.2045455,
                "end_time": 25.4818182,
                "pitch": 41,
                "velocity": 127,
                "duration": 1.2772727,
                "tempo": 120.0
            },
            {
                "start_time": 25.4818182,
                "end_time": 25.6704545,
                "pitch": 33,
                "velocity": 127,
                "duration": 0.1886364,
                "tempo": 120.0
            },
            {
                "start_time": 25.6977273,
                "end_time": 25.7772727,
                "pitch": 33,
                "velocity": 127,
                "duration": 0.0795455,
                "tempo": 120.0
            },
            {
                "start_time": 25.8045455,
                "end_time": 25.8818182,
                "pitch": 33,
                "velocity": 127,
                "duration": 0.0772727,
                "tempo": 120.0
            },
            {
                "start_time": 24.7363636,
                "end_time": 26.0090909,
                "pitch": 42,
                "velocity": 127,
                "duration": 1.2727273,
                "tempo": 120.0
            },
            {
                "start_time": 24.8431818,
                "end_time": 26.0840909,
                "pitch": 31,
                "velocity": 127,
                "duration": 1.2409091,
                "tempo": 120.0
            },
            {
                "start_time": 26.0090909,
                "end_time": 26.0840909,
                "pitch": 31,
                "velocity": 127,
                "duration": 0.075,
                "tempo": 120.0
            },
            {
                "start_time": 26.1090909,
                "end_time": 26.2977273,
                "pitch": 33,
                "velocity": 127,
                "duration": 0.1886364,
                "tempo": 120.0
            },
            {
                "start_time": 26.325,
                "end_time": 26.4068182,
                "pitch": 33,
                "velocity": 127,
                "duration": 0.0818182,
                "tempo": 120.0
            },
            {
                "start_time": 25.1568182,
                "end_time": 26.4340909,
                "pitch": 7,
                "velocity": 127,
                "duration": 1.2772727,
                "tempo": 120.0
            },
            {
                "start_time": 26.4340909,
                "end_time": 26.5113636,
                "pitch": 36,
                "velocity": 127,
                "duration": 0.0772727,
                "tempo": 120.0
            },
            {
                "start_time": 25.2636364,
                "end_time": 26.5386364,
                "pitch": 40,
                "velocity": 127,
                "duration": 1.275,
                "tempo": 120.0
            },
            {
                "start_time": 26.5386364,
                "end_time": 26.6159091,
                "pitch": 35,
                "velocity": 127,
                "duration": 0.0772727,
                "tempo": 120.0
            },
            {
                "start_time": 25.3727273,
                "end_time": 26.6431818,
                "pitch": 19,
                "velocity": 127,
                "duration": 1.2704545,
                "tempo": 120.0
            },
            {
                "start_time": 26.6431818,
                "end_time": 26.7227273,
                "pitch": 36,
                "velocity": 127,
                "duration": 0.0795455,
                "tempo": 120.0
            },
            {
                "start_time": 26.5386364,
                "end_time": 26.7477273,
                "pitch": 40,
                "velocity": 127,
                "duration": 0.2090909,
                "tempo": 120.0
            },
            {
                "start_time": 26.7477273,
                "end_time": 26.8272727,
                "pitch": 33,
                "velocity": 127,
                "duration": 0.0795455,
                "tempo": 120.0
            },
            {
                "start_time": 26.8522727,
                "end_time": 26.9318182,
                "pitch": 35,
                "velocity": 127,
                "duration": 0.0795455,
                "tempo": 120.0
            },
            {
                "start_time": 26.6431818,
                "end_time": 26.9590909,
                "pitch": 19,
                "velocity": 127,
                "duration": 0.3159091,
                "tempo": 120.0
            },
            {
                "start_time": 26.9568182,
                "end_time": 26.9590909,
                "pitch": 19,
                "velocity": 127,
                "duration": 0.0022727,
                "tempo": 120.0
            },
            {
                "start_time": 26.9590909,
                "end_time": 27.0363636,
                "pitch": 36,
                "velocity": 127,
                "duration": 0.0772727,
                "tempo": 120.0
            },
            {
                "start_time": 26.7477273,
                "end_time": 27.0636364,
                "pitch": 40,
                "velocity": 127,
                "duration": 0.3159091,
                "tempo": 120.0
            },
            {
                "start_time": 27.0636364,
                "end_time": 27.1409091,
                "pitch": 35,
                "velocity": 127,
                "duration": 0.0772727,
                "tempo": 120.0
            },
            {
                "start_time": 27.1681818,
                "end_time": 27.2454545,
                "pitch": 36,
                "velocity": 127,
                "duration": 0.0772727,
                "tempo": 120.0
            },
            {
                "start_time": 27.2727273,
                "end_time": 27.35,
                "pitch": 38,
                "velocity": 127,
                "duration": 0.0772727,
                "tempo": 120.0
            },
            {
                "start_time": 27.2727273,
                "end_time": 27.4568182,
                "pitch": 36,
                "velocity": 127,
                "duration": 0.1840909,
                "tempo": 120.0
            },
            {
                "start_time": 27.3772727,
                "end_time": 27.4568182,
                "pitch": 36,
                "velocity": 127,
                "duration": 0.0795455,
                "tempo": 120.0
            },
            {
                "start_time": 27.3772727,
                "end_time": 27.5659091,
                "pitch": 38,
                "velocity": 127,
                "duration": 0.1886364,
                "tempo": 120.0
            },
            {
                "start_time": 27.4840909,
                "end_time": 27.5659091,
                "pitch": 38,
                "velocity": 127,
                "duration": 0.0818182,
                "tempo": 120.0
            },
            {
                "start_time": 27.0636364,
                "end_time": 27.6727273,
                "pitch": 40,
                "velocity": 127,
                "duration": 0.6090909,
                "tempo": 120.0
            },
            {
                "start_time": 27.5931818,
                "end_time": 27.6727273,
                "pitch": 40,
                "velocity": 127,
                "duration": 0.0795455,
                "tempo": 120.0
            },
            {
                "start_time": 27.5931818,
                "end_time": 27.7795455,
                "pitch": 38,
                "velocity": 127,
                "duration": 0.1863636,
                "tempo": 120.0
            },
            {
                "start_time": 27.7022727,
                "end_time": 27.7795455,
                "pitch": 38,
                "velocity": 127,
                "duration": 0.0772727,
                "tempo": 120.0
            },
            {
                "start_time": 27.7022727,
                "end_time": 27.8840909,
                "pitch": 40,
                "velocity": 127,
                "duration": 0.1818182,
                "tempo": 120.0
            },
            {
                "start_time": 27.8068182,
                "end_time": 27.8840909,
                "pitch": 40,
                "velocity": 127,
                "duration": 0.0772727,
                "tempo": 120.0
            },
            {
                "start_time": 27.9113636,
                "end_time": 27.9886364,
                "pitch": 40,
                "velocity": 127,
                "duration": 0.0772727,
                "tempo": 120.0
            },
            {
                "start_time": 28.0159091,
                "end_time": 28.2840909,
                "pitch": 29,
                "velocity": 127,
                "duration": 0.2681818,
                "tempo": 120.0
            },
            {
                "start_time": 28.3409091,
                "end_time": 28.4181818,
                "pitch": 28,
                "velocity": 127,
                "duration": 0.0772727,
                "tempo": 120.0
            },
            {
                "start_time": 28.4454545,
                "end_time": 28.5227273,
                "pitch": 28,
                "velocity": 127,
                "duration": 0.0772727,
                "tempo": 120.0
            },
            {
                "start_time": 28.55,
                "end_time": 28.6272727,
                "pitch": 28,
                "velocity": 127,
                "duration": 0.0772727,
                "tempo": 120.0
            },
            {
                "start_time": 28.6545455,
                "end_time": 28.925,
                "pitch": 23,
                "velocity": 127,
                "duration": 0.2704545,
                "tempo": 120.0
            },
            {
                "start_time": 26.4340909,
                "end_time": 28.9795455,
                "pitch": 7,
                "velocity": 127,
                "duration": 2.5454545,
                "tempo": 120.0
            },
            {
                "start_time": 28.9795455,
                "end_time": 29.2409091,
                "pitch": 29,
                "velocity": 127,
                "duration": 0.2613636,
                "tempo": 120.0
            },
            {
                "start_time": 29.2931818,
                "end_time": 29.5545455,
                "pitch": 29,
                "velocity": 127,
                "duration": 0.2613636,
                "tempo": 120.0
            },
            {
                "start_time": 29.6068182,
                "end_time": 29.6886364,
                "pitch": 28,
                "velocity": 127,
                "duration": 0.0818182,
                "tempo": 120.0
            },
            {
                "start_time": 29.7159091,
                "end_time": 29.7954545,
                "pitch": 28,
                "velocity": 127,
                "duration": 0.0795455,
                "tempo": 120.0
            },
            {
                "start_time": 29.8227273,
                "end_time": 29.9045455,
                "pitch": 28,
                "velocity": 127,
                "duration": 0.0818182,
                "tempo": 120.0
            },
            {
                "start_time": 28.6545455,
                "end_time": 29.9318182,
                "pitch": 30,
                "velocity": 127,
                "duration": 1.2772727,
                "tempo": 120.0
            },
            {
                "start_time": 29.9318182,
                "end_time": 30.1931818,
                "pitch": 23,
                "velocity": 127,
                "duration": 0.2613636,
                "tempo": 120.0
            },
            {
                "start_time": 28.9795455,
                "end_time": 30.2454545,
                "pitch": 7,
                "velocity": 127,
                "duration": 1.2659091,
                "tempo": 120.0
            },
            {
                "start_time": 30.2454545,
                "end_time": 30.5068182,
                "pitch": 29,
                "velocity": 127,
                "duration": 0.2613636,
                "tempo": 120.0
            },
            {
                "start_time": 30.5613636,
                "end_time": 30.7477273,
                "pitch": 29,
                "velocity": 127,
                "duration": 0.1863636,
                "tempo": 120.0
            },
            {
                "start_time": 30.775,
                "end_time": 30.8568182,
                "pitch": 28,
                "velocity": 127,
                "duration": 0.0818182,
                "tempo": 120.0
            },
            {
                "start_time": 30.8840909,
                "end_time": 30.9636364,
                "pitch": 28,
                "velocity": 127,
                "duration": 0.0795455,
                "tempo": 120.0
            },
            {
                "start_time": 30.9886364,
                "end_time": 31.0681818,
                "pitch": 28,
                "velocity": 127,
                "duration": 0.0795455,
                "tempo": 120.0
            },
            {
                "start_time": 31.0931818,
                "end_time": 31.1727273,
                "pitch": 28,
                "velocity": 127,
                "duration": 0.0795455,
                "tempo": 120.0
            },
            {
                "start_time": 31.2,
                "end_time": 31.3818182,
                "pitch": 28,
                "velocity": 127,
                "duration": 0.1818182,
                "tempo": 120.0
            },
            {
                "start_time": 31.4090909,
                "end_time": 31.4863636,
                "pitch": 28,
                "velocity": 127,
                "duration": 0.0772727,
                "tempo": 120.0
            },
            {
                "start_time": 31.5136364,
                "end_time": 31.5909091,
                "pitch": 28,
                "velocity": 127,
                "duration": 0.0772727,
                "tempo": 120.0
            },
            {
                "start_time": 31.6181818,
                "end_time": 31.6954545,
                "pitch": 28,
                "velocity": 127,
                "duration": 0.0772727,
                "tempo": 120.0
            },
            {
                "start_time": 31.7227273,
                "end_time": 31.8,
                "pitch": 28,
                "velocity": 127,
                "duration": 0.0772727,
                "tempo": 120.0
            },
            {
                "start_time": 26.0090909,
                "end_time": 31.8272727,
                "pitch": 42,
                "velocity": 127,
                "duration": 5.8181818,
                "tempo": 120.0
            },
            {
                "start_time": 31.8272727,
                "end_time": 32.0977273,
                "pitch": 35,
                "velocity": 127,
                "duration": 0.2704545,
                "tempo": 120.0
            },
            {
                "start_time": 27.1681818,
                "end_time": 32.1522727,
                "pitch": 19,
                "velocity": 127,
                "duration": 4.9840909,
                "tempo": 120.0
            },
            {
                "start_time": 27.4840909,
                "end_time": 32.4136364,
                "pitch": 36,
                "velocity": 127,
                "duration": 4.9295455,
                "tempo": 120.0
            },
            {
                "start_time": 32.1522727,
                "end_time": 32.4136364,
                "pitch": 36,
                "velocity": 127,
                "duration": 0.2613636,
                "tempo": 120.0
            },
            {
                "start_time": 27.8068182,
                "end_time": 32.7363636,
                "pitch": 38,
                "velocity": 127,
                "duration": 4.9295455,
                "tempo": 120.0
            },
            {
                "start_time": 32.4659091,
                "end_time": 32.7363636,
                "pitch": 38,
                "velocity": 127,
                "duration": 0.2704545,
                "tempo": 120.0
            },
            {
                "start_time": 32.7909091,
                "end_time": 33.0522727,
                "pitch": 40,
                "velocity": 127,
                "duration": 0.2613636,
                "tempo": 120.0
            },
            {
                "start_time": 31.8272727,
                "end_time": 33.1045455,
                "pitch": 42,
                "velocity": 127,
                "duration": 1.2772727,
                "tempo": 120.0
            },
            {
                "start_time": 33.1045455,
                "end_time": 33.3659091,
                "pitch": 34,
                "velocity": 127,
                "duration": 0.2613636,
                "tempo": 120.0
            },
            {
                "start_time": 33.4181818,
                "end_time": 33.5,
                "pitch": 34,
                "velocity": 127,
                "duration": 0.0818182,
                "tempo": 120.0
            },
            {
                "start_time": 33.5272727,
                "end_time": 33.6068182,
                "pitch": 34,
                "velocity": 127,
                "duration": 0.0795455,
                "tempo": 120.0
            },
            {
                "start_time": 33.6340909,
                "end_time": 33.7159091,
                "pitch": 34,
                "velocity": 127,
                "duration": 0.0818182,
                "tempo": 120.0
            },
            {
                "start_time": 33.7431818,
                "end_time": 34.0045455,
                "pitch": 28,
                "velocity": 127,
                "duration": 0.2613636,
                "tempo": 120.0
            },
            {
                "start_time": 33.1045455,
                "end_time": 34.0568182,
                "pitch": 42,
                "velocity": 127,
                "duration": 0.9522727,
                "tempo": 120.0
            },
            {
                "start_time": 34.0568182,
                "end_time": 34.3204545,
                "pitch": 35,
                "velocity": 127,
                "duration": 0.2636364,
                "tempo": 120.0
            },
            {
                "start_time": 34.3727273,
                "end_time": 34.6340909,
                "pitch": 35,
                "velocity": 127,
                "duration": 0.2613636,
                "tempo": 120.0
            },
            {
                "start_time": 34.6863636,
                "end_time": 34.7659091,
                "pitch": 34,
                "velocity": 127,
                "duration": 0.0795455,
                "tempo": 120.0
            },
            {
                "start_time": 34.7931818,
                "end_time": 34.875,
                "pitch": 34,
                "velocity": 127,
                "duration": 0.0818182,
                "tempo": 120.0
            },
            {
                "start_time": 34.9022727,
                "end_time": 34.9840909,
                "pitch": 34,
                "velocity": 127,
                "duration": 0.0818182,
                "tempo": 120.0
            },
            {
                "start_time": 33.7431818,
                "end_time": 35.0113636,
                "pitch": 2,
                "velocity": 127,
                "duration": 1.2681818,
                "tempo": 120.0
            },
            {
                "start_time": 35.0113636,
                "end_time": 35.2727273,
                "pitch": 28,
                "velocity": 127,
                "duration": 0.2613636,
                "tempo": 120.0
            },
            {
                "start_time": 34.0568182,
                "end_time": 35.325,
                "pitch": 42,
                "velocity": 127,
                "duration": 1.2681818,
                "tempo": 120.0
            },
            {
                "start_time": 35.325,
                "end_time": 35.5954545,
                "pitch": 35,
                "velocity": 127,
                "duration": 0.2704545,
                "tempo": 120.0
            },
            {
                "start_time": 35.65,
                "end_time": 35.8386364,
                "pitch": 35,
                "velocity": 127,
                "duration": 0.1886364,
                "tempo": 120.0
            },
            {
                "start_time": 35.8659091,
                "end_time": 35.9454545,
                "pitch": 34,
                "velocity": 127,
                "duration": 0.0795455,
                "tempo": 120.0
            },
            {
                "start_time": 35.9727273,
                "end_time": 36.05,
                "pitch": 34,
                "velocity": 127,
                "duration": 0.0772727,
                "tempo": 120.0
            },
            {
                "start_time": 36.075,
                "end_time": 36.15,
                "pitch": 34,
                "velocity": 127,
                "duration": 0.075,
                "tempo": 120.0
            },
            {
                "start_time": 36.1772727,
                "end_time": 36.2522727,
                "pitch": 34,
                "velocity": 127,
                "duration": 0.075,
                "tempo": 120.0
            },
            {
                "start_time": 36.2795455,
                "end_time": 36.4613636,
                "pitch": 34,
                "velocity": 127,
                "duration": 0.1818182,
                "tempo": 120.0
            },
            {
                "start_time": 36.4886364,
                "end_time": 36.5659091,
                "pitch": 34,
                "velocity": 127,
                "duration": 0.0772727,
                "tempo": 120.0
            },
            {
                "start_time": 36.5931818,
                "end_time": 36.6727273,
                "pitch": 34,
                "velocity": 127,
                "duration": 0.0795455,
                "tempo": 120.0
            },
            {
                "start_time": 36.7,
                "end_time": 36.7818182,
                "pitch": 34,
                "velocity": 127,
                "duration": 0.0818182,
                "tempo": 120.0
            },
            {
                "start_time": 36.8090909,
                "end_time": 36.8886364,
                "pitch": 34,
                "velocity": 127,
                "duration": 0.0795455,
                "tempo": 120.0
            },
            {
                "start_time": 36.9181818,
                "end_time": 36.9954545,
                "pitch": 40,
                "velocity": 127,
                "duration": 0.0772727,
                "tempo": 120.0
            },
            {
                "start_time": 37.0227273,
                "end_time": 37.1,
                "pitch": 40,
                "velocity": 127,
                "duration": 0.0772727,
                "tempo": 120.0
            },
            {
                "start_time": 37.1272727,
                "end_time": 37.2045455,
                "pitch": 40,
                "velocity": 127,
                "duration": 0.0772727,
                "tempo": 120.0
            },
            {
                "start_time": 37.2318182,
                "end_time": 37.3090909,
                "pitch": 40,
                "velocity": 127,
                "duration": 0.0772727,
                "tempo": 120.0
            },
            {
                "start_time": 37.3363636,
                "end_time": 37.4136364,
                "pitch": 40,
                "velocity": 127,
                "duration": 0.0772727,
                "tempo": 120.0
            },
            {
                "start_time": 37.4409091,
                "end_time": 37.5181818,
                "pitch": 40,
                "velocity": 127,
                "duration": 0.0772727,
                "tempo": 120.0
            },
            {
                "start_time": 37.5454545,
                "end_time": 37.6272727,
                "pitch": 40,
                "velocity": 127,
                "duration": 0.0818182,
                "tempo": 120.0
            },
            {
                "start_time": 37.6545455,
                "end_time": 37.7340909,
                "pitch": 40,
                "velocity": 127,
                "duration": 0.0795455,
                "tempo": 120.0
            },
            {
                "start_time": 37.7613636,
                "end_time": 37.8431818,
                "pitch": 40,
                "velocity": 127,
                "duration": 0.0818182,
                "tempo": 120.0
            },
            {
                "start_time": 37.8704545,
                "end_time": 37.9477273,
                "pitch": 40,
                "velocity": 127,
                "duration": 0.0772727,
                "tempo": 120.0
            },
            {
                "start_time": 37.975,
                "end_time": 38.0522727,
                "pitch": 40,
                "velocity": 127,
                "duration": 0.0772727,
                "tempo": 120.0
            },
            {
                "start_time": 38.0795455,
                "end_time": 38.1568182,
                "pitch": 40,
                "velocity": 127,
                "duration": 0.0772727,
                "tempo": 120.0
            },
            {
                "start_time": 35.325,
                "end_time": 38.1840909,
                "pitch": 42,
                "velocity": 127,
                "duration": 2.8590909,
                "tempo": 120.0
            },
            {
                "start_time": 26.8522727,
                "end_time": 38.3727273,
                "pitch": 33,
                "velocity": 127,
                "duration": 11.5204545,
                "tempo": 120.0
            },
            {
                "start_time": 38.1840909,
                "end_time": 38.3727273,
                "pitch": 33,
                "velocity": 127,
                "duration": 0.1886364,
                "tempo": 120.0
            },
            {
                "start_time": 38.4,
                "end_time": 38.4818182,
                "pitch": 33,
                "velocity": 127,
                "duration": 0.0818182,
                "tempo": 120.0
            },
            {
                "start_time": 38.5090909,
                "end_time": 38.6909091,
                "pitch": 33,
                "velocity": 127,
                "duration": 0.1818182,
                "tempo": 120.0
            },
            {
                "start_time": 38.7181818,
                "end_time": 38.7954545,
                "pitch": 33,
                "velocity": 127,
                "duration": 0.0772727,
                "tempo": 120.0
            },
            {
                "start_time": 38.8227273,
                "end_time": 39.0068182,
                "pitch": 33,
                "velocity": 127,
                "duration": 0.1840909,
                "tempo": 120.0
            },
            {
                "start_time": 39.0318182,
                "end_time": 39.1113636,
                "pitch": 33,
                "velocity": 127,
                "duration": 0.0795455,
                "tempo": 120.0
            },
            {
                "start_time": 39.1363636,
                "end_time": 39.325,
                "pitch": 33,
                "velocity": 127,
                "duration": 0.1886364,
                "tempo": 120.0
            },
            {
                "start_time": 39.3522727,
                "end_time": 39.4340909,
                "pitch": 33,
                "velocity": 127,
                "duration": 0.0818182,
                "tempo": 120.0
            },
            {
                "start_time": 39.4613636,
                "end_time": 39.6454545,
                "pitch": 33,
                "velocity": 127,
                "duration": 0.1840909,
                "tempo": 120.0
            },
            {
                "start_time": 39.6704545,
                "end_time": 39.75,
                "pitch": 33,
                "velocity": 127,
                "duration": 0.0795455,
                "tempo": 120.0
            },
            {
                "start_time": 39.775,
                "end_time": 39.9590909,
                "pitch": 33,
                "velocity": 127,
                "duration": 0.1840909,
                "tempo": 120.0
            },
            {
                "start_time": 39.9863636,
                "end_time": 40.0636364,
                "pitch": 33,
                "velocity": 127,
                "duration": 0.0772727,
                "tempo": 120.0
            },
            {
                "start_time": 40.0909091,
                "end_time": 40.2795455,
                "pitch": 33,
                "velocity": 127,
                "duration": 0.1886364,
                "tempo": 120.0
            },
            {
                "start_time": 40.3068182,
                "end_time": 40.3863636,
                "pitch": 33,
                "velocity": 127,
                "duration": 0.0795455,
                "tempo": 120.0
            },
            {
                "start_time": 40.4136364,
                "end_time": 40.5977273,
                "pitch": 33,
                "velocity": 127,
                "duration": 0.1840909,
                "tempo": 120.0
            },
            {
                "start_time": 40.625,
                "end_time": 40.7022727,
                "pitch": 33,
                "velocity": 127,
                "duration": 0.0772727,
                "tempo": 120.0
            },
            {
                "start_time": 40.9454545,
                "end_time": 41.025,
                "pitch": 28,
                "velocity": 127,
                "duration": 0.0795455,
                "tempo": 120.0
            },
            {
                "start_time": 41.0522727,
                "end_time": 41.2363636,
                "pitch": 28,
                "velocity": 127,
                "duration": 0.1840909,
                "tempo": 120.0
            },
            {
                "start_time": 41.2636364,
                "end_time": 41.3409091,
                "pitch": 28,
                "velocity": 127,
                "duration": 0.0772727,
                "tempo": 120.0
            },
            {
                "start_time": 41.3681818,
                "end_time": 41.55,
                "pitch": 28,
                "velocity": 127,
                "duration": 0.1818182,
                "tempo": 120.0
            },
            {
                "start_time": 41.5772727,
                "end_time": 41.6545455,
                "pitch": 28,
                "velocity": 127,
                "duration": 0.0772727,
                "tempo": 120.0
            },
            {
                "start_time": 41.6818182,
                "end_time": 41.8659091,
                "pitch": 28,
                "velocity": 127,
                "duration": 0.1840909,
                "tempo": 120.0
            },
            {
                "start_time": 41.8909091,
                "end_time": 41.9704545,
                "pitch": 28,
                "velocity": 127,
                "duration": 0.0795455,
                "tempo": 120.0
            },
            {
                "start_time": 41.9954545,
                "end_time": 42.1840909,
                "pitch": 28,
                "velocity": 127,
                "duration": 0.1886364,
                "tempo": 120.0
            },
            {
                "start_time": 42.2113636,
                "end_time": 42.2931818,
                "pitch": 28,
                "velocity": 127,
                "duration": 0.0818182,
                "tempo": 120.0
            },
            {
                "start_time": 42.3204545,
                "end_time": 42.5022727,
                "pitch": 28,
                "velocity": 127,
                "duration": 0.1818182,
                "tempo": 120.0
            },
            {
                "start_time": 42.5295455,
                "end_time": 42.6090909,
                "pitch": 28,
                "velocity": 127,
                "duration": 0.0795455,
                "tempo": 120.0
            },
            {
                "start_time": 42.6340909,
                "end_time": 42.8227273,
                "pitch": 28,
                "velocity": 127,
                "duration": 0.1886364,
                "tempo": 120.0
            },
            {
                "start_time": 42.85,
                "end_time": 42.9318182,
                "pitch": 28,
                "velocity": 127,
                "duration": 0.0818182,
                "tempo": 120.0
            },
            {
                "start_time": 42.9590909,
                "end_time": 43.1409091,
                "pitch": 28,
                "velocity": 127,
                "duration": 0.1818182,
                "tempo": 120.0
            },
            {
                "start_time": 43.1681818,
                "end_time": 43.2477273,
                "pitch": 28,
                "velocity": 127,
                "duration": 0.0795455,
                "tempo": 120.0
            },
            {
                "start_time": 43.2727273,
                "end_time": 43.4613636,
                "pitch": 28,
                "velocity": 127,
                "duration": 0.1886364,
                "tempo": 120.0
            },
            {
                "start_time": 43.4886364,
                "end_time": 43.5704545,
                "pitch": 29,
                "velocity": 127,
                "duration": 0.0818182,
                "tempo": 120.0
            },
            {
                "start_time": 43.5977273,
                "end_time": 43.7795455,
                "pitch": 29,
                "velocity": 127,
                "duration": 0.1818182,
                "tempo": 120.0
            },
            {
                "start_time": 43.8068182,
                "end_time": 43.8863636,
                "pitch": 29,
                "velocity": 127,
                "duration": 0.0795455,
                "tempo": 120.0
            },
            {
                "start_time": 38.1840909,
                "end_time": 43.9113636,
                "pitch": 42,
                "velocity": 127,
                "duration": 5.7272727,
                "tempo": 120.0
            },
            {
                "start_time": 26.1090909,
                "end_time": 44.0954545,
                "pitch": 31,
                "velocity": 127,
                "duration": 17.9863636,
                "tempo": 120.0
            },
            {
                "start_time": 43.9113636,
                "end_time": 44.0954545,
                "pitch": 31,
                "velocity": 127,
                "duration": 0.1840909,
                "tempo": 120.0
            },
            {
                "start_time": 44.1227273,
                "end_time": 44.2,
                "pitch": 31,
                "velocity": 127,
                "duration": 0.0772727,
                "tempo": 120.0
            },
            {
                "start_time": 44.2272727,
                "end_time": 44.4090909,
                "pitch": 31,
                "velocity": 127,
                "duration": 0.1818182,
                "tempo": 120.0
            },
            {
                "start_time": 44.4363636,
                "end_time": 44.5136364,
                "pitch": 31,
                "velocity": 127,
                "duration": 0.0772727,
                "tempo": 120.0
            },
            {
                "start_time": 13.825,
                "end_time": 44.5409091,
                "pitch": 0,
                "velocity": 127,
                "duration": 30.7159091,
                "tempo": 120.0
            },
            {
                "start_time": 44.5409091,
                "end_time": 44.7295455,
                "pitch": 28,
                "velocity": 127,
                "duration": 0.1886364,
                "tempo": 120.0
            },
            {
                "start_time": 44.7568182,
                "end_time": 44.8363636,
                "pitch": 28,
                "velocity": 127,
                "duration": 0.0795455,
                "tempo": 120.0
            },
            {
                "start_time": 44.8659091,
                "end_time": 45.0477273,
                "pitch": 28,
                "velocity": 127,
                "duration": 0.1818182,
                "tempo": 120.0
            },
            {
                "start_time": 45.075,
                "end_time": 45.1522727,
                "pitch": 28,
                "velocity": 127,
                "duration": 0.0772727,
                "tempo": 120.0
            },
            {
                "start_time": 43.9113636,
                "end_time": 45.1795455,
                "pitch": 42,
                "velocity": 127,
                "duration": 1.2681818,
                "tempo": 120.0
            },
            {
                "start_time": 45.1795455,
                "end_time": 45.3613636,
                "pitch": 35,
                "velocity": 127,
                "duration": 0.1818182,
                "tempo": 120.0
            },
            {
                "start_time": 45.3886364,
                "end_time": 45.4659091,
                "pitch": 35,
                "velocity": 127,
                "duration": 0.0772727,
                "tempo": 120.0
            },
            {
                "start_time": 45.4931818,
                "end_time": 45.6818182,
                "pitch": 35,
                "velocity": 127,
                "duration": 0.1886364,
                "tempo": 120.0
            },
            {
                "start_time": 45.7090909,
                "end_time": 45.7909091,
                "pitch": 35,
                "velocity": 127,
                "duration": 0.0818182,
                "tempo": 120.0
            },
            {
                "start_time": 45.8181818,
                "end_time": 46.0,
                "pitch": 33,
                "velocity": 127,
                "duration": 0.1818182,
                "tempo": 120.0
            },
            {
                "start_time": 46.0272727,
                "end_time": 46.1045455,
                "pitch": 33,
                "velocity": 127,
                "duration": 0.0772727,
                "tempo": 120.0
            },
            {
                "start_time": 46.1318182,
                "end_time": 46.3159091,
                "pitch": 33,
                "velocity": 127,
                "duration": 0.1840909,
                "tempo": 120.0
            },
            {
                "start_time": 46.3409091,
                "end_time": 46.4204545,
                "pitch": 33,
                "velocity": 127,
                "duration": 0.0795455,
                "tempo": 120.0
            },
            {
                "start_time": 46.4477273,
                "end_time": 46.6340909,
                "pitch": 33,
                "velocity": 127,
                "duration": 0.1863636,
                "tempo": 120.0
            },
            {
                "start_time": 46.6636364,
                "end_time": 46.7431818,
                "pitch": 33,
                "velocity": 127,
                "duration": 0.0795455,
                "tempo": 120.0
            },
            {
                "start_time": 46.7704545,
                "end_time": 46.9545455,
                "pitch": 33,
                "velocity": 127,
                "duration": 0.1840909,
                "tempo": 120.0
            },
            {
                "start_time": 46.9795455,
                "end_time": 47.0590909,
                "pitch": 33,
                "velocity": 127,
                "duration": 0.0795455,
                "tempo": 120.0
            },
            {
                "start_time": 30.2454545,
                "end_time": 47.0863636,
                "pitch": 7,
                "velocity": 127,
                "duration": 16.8409091,
                "tempo": 120.0
            },
            {
                "start_time": 47.0863636,
                "end_time": 47.1636364,
                "pitch": 40,
                "velocity": 127,
                "duration": 0.0772727,
                "tempo": 120.0
            },
            {
                "start_time": 47.1886364,
                "end_time": 47.2681818,
                "pitch": 40,
                "velocity": 127,
                "duration": 0.0795455,
                "tempo": 120.0
            },
            {
                "start_time": 47.2954545,
                "end_time": 47.3727273,
                "pitch": 40,
                "velocity": 127,
                "duration": 0.0772727,
                "tempo": 120.0
            },
            {
                "start_time": 47.4,
                "end_time": 47.4772727,
                "pitch": 40,
                "velocity": 127,
                "duration": 0.0772727,
                "tempo": 120.0
            },
            {
                "start_time": 47.5045455,
                "end_time": 47.5818182,
                "pitch": 40,
                "velocity": 127,
                "duration": 0.0772727,
                "tempo": 120.0
            },
            {
                "start_time": 47.6090909,
                "end_time": 47.6863636,
                "pitch": 40,
                "velocity": 127,
                "duration": 0.0772727,
                "tempo": 120.0
            },
            {
                "start_time": 47.7136364,
                "end_time": 47.7931818,
                "pitch": 40,
                "velocity": 127,
                "duration": 0.0795455,
                "tempo": 120.0
            },
            {
                "start_time": 32.7909091,
                "end_time": 47.9022727,
                "pitch": 38,
                "velocity": 127,
                "duration": 15.1113636,
                "tempo": 120.0
            },
            {
                "start_time": 47.8204545,
                "end_time": 47.9022727,
                "pitch": 38,
                "velocity": 127,
                "duration": 0.0818182,
                "tempo": 120.0
            },
            {
                "start_time": 32.4659091,
                "end_time": 48.0113636,
                "pitch": 36,
                "velocity": 127,
                "duration": 15.5454545,
                "tempo": 120.0
            },
            {
                "start_time": 47.9295455,
                "end_time": 48.0113636,
                "pitch": 36,
                "velocity": 127,
                "duration": 0.0818182,
                "tempo": 120.0
            },
            {
                "start_time": 47.8204545,
                "end_time": 48.0386364,
                "pitch": 40,
                "velocity": 127,
                "duration": 0.2181818,
                "tempo": 120.0
            },
            {
                "start_time": 48.0386364,
                "end_time": 48.1159091,
                "pitch": 32,
                "velocity": 127,
                "duration": 0.0772727,
                "tempo": 120.0
            },
            {
                "start_time": 48.1431818,
                "end_time": 48.2204545,
                "pitch": 32,
                "velocity": 127,
                "duration": 0.0772727,
                "tempo": 120.0
            },
            {
                "start_time": 45.8181818,
                "end_time": 48.325,
                "pitch": 35,
                "velocity": 127,
                "duration": 2.5068182,
                "tempo": 120.0
            },
            {
                "start_time": 48.2477273,
                "end_time": 48.325,
                "pitch": 35,
                "velocity": 127,
                "duration": 0.0772727,
                "tempo": 120.0
            },
            {
                "start_time": 47.0863636,
                "end_time": 48.3545455,
                "pitch": 7,
                "velocity": 127,
                "duration": 1.2681818,
                "tempo": 120.0
            },
            {
                "start_time": 48.3545455,
                "end_time": 48.3590909,
                "pitch": 28,
                "velocity": 127,
                "duration": 0.0045455,
                "tempo": 120.0
            }
        ],
        "French Horn": [
            {
                "start_time": 28.0159091,
                "end_time": 28.0181818,
                "pitch": 56,
                "velocity": 101,
                "duration": 0.0022727,
                "tempo": 120.0
            },
            {
                "start_time": 28.0181818,
                "end_time": 28.2863636,
                "pitch": 76,
                "velocity": 101,
                "duration": 0.2681818,
                "tempo": 120.0
            },
            {
                "start_time": 28.3409091,
                "end_time": 28.6022727,
                "pitch": 74,
                "velocity": 101,
                "duration": 0.2613636,
                "tempo": 120.0
            },
            {
                "start_time": 28.6545455,
                "end_time": 28.925,
                "pitch": 72,
                "velocity": 101,
                "duration": 0.2704545,
                "tempo": 120.0
            },
            {
                "start_time": 28.3409091,
                "end_time": 28.9795455,
                "pitch": 76,
                "velocity": 101,
                "duration": 0.6386364,
                "tempo": 120.0
            },
            {
                "start_time": 28.9795455,
                "end_time": 29.2409091,
                "pitch": 71,
                "velocity": 101,
                "duration": 0.2613636,
                "tempo": 120.0
            },
            {
                "start_time": 28.9795455,
                "end_time": 29.5545455,
                "pitch": 76,
                "velocity": 101,
                "duration": 0.575,
                "tempo": 120.0
            },
            {
                "start_time": 29.2931818,
                "end_time": 29.5545455,
                "pitch": 76,
                "velocity": 101,
                "duration": 0.2613636,
                "tempo": 120.0
            },
            {
                "start_time": 28.6545455,
                "end_time": 29.8772727,
                "pitch": 74,
                "velocity": 101,
                "duration": 1.2227273,
                "tempo": 120.0
            },
            {
                "start_time": 29.6068182,
                "end_time": 29.8772727,
                "pitch": 74,
                "velocity": 101,
                "duration": 0.2704545,
                "tempo": 120.0
            },
            {
                "start_time": 29.9318182,
                "end_time": 30.1931818,
                "pitch": 72,
                "velocity": 101,
                "duration": 0.2613636,
                "tempo": 120.0
            },
            {
                "start_time": 29.6068182,
                "end_time": 30.2454545,
                "pitch": 76,
                "velocity": 101,
                "duration": 0.6386364,
                "tempo": 120.0
            },
            {
                "start_time": 30.2454545,
                "end_time": 30.5068182,
                "pitch": 71,
                "velocity": 101,
                "duration": 0.2613636,
                "tempo": 120.0
            },
            {
                "start_time": 30.5613636,
                "end_time": 31.0931818,
                "pitch": 64,
                "velocity": 101,
                "duration": 0.5318182,
                "tempo": 120.0
            },
            {
                "start_time": 31.2,
                "end_time": 31.7227273,
                "pitch": 64,
                "velocity": 101,
                "duration": 0.5227273,
                "tempo": 120.0
            },
            {
                "start_time": 31.8272727,
                "end_time": 32.0977273,
                "pitch": 77,
                "velocity": 101,
                "duration": 0.2704545,
                "tempo": 120.0
            },
            {
                "start_time": 30.2454545,
                "end_time": 32.4136364,
                "pitch": 76,
                "velocity": 101,
                "duration": 2.1681818,
                "tempo": 120.0
            },
            {
                "start_time": 32.1522727,
                "end_time": 32.4136364,
                "pitch": 76,
                "velocity": 101,
                "duration": 0.2613636,
                "tempo": 120.0
            },
            {
                "start_time": 32.4659091,
                "end_time": 32.7363636,
                "pitch": 77,
                "velocity": 101,
                "duration": 0.2704545,
                "tempo": 120.0
            },
            {
                "start_time": 32.7909091,
                "end_time": 33.0522727,
                "pitch": 80,
                "velocity": 101,
                "duration": 0.2613636,
                "tempo": 120.0
            },
            {
                "start_time": 40.7295455,
                "end_time": 41.9431818,
                "pitch": 76,
                "velocity": 101,
                "duration": 1.2136364,
                "tempo": 120.0
            },
            {
                "start_time": 41.9977273,
                "end_time": 42.2659091,
                "pitch": 76,
                "velocity": 127,
                "duration": 0.2681818,
                "tempo": 120.0
            },
            {
                "start_time": 42.3204545,
                "end_time": 42.5818182,
                "pitch": 76,
                "velocity": 127,
                "duration": 0.2613636,
                "tempo": 120.0
            },
            {
                "start_time": 32.7909091,
                "end_time": 42.6363636,
                "pitch": 90,
                "velocity": 101,
                "duration": 9.8454545,
                "tempo": 120.0
            },
            {
                "start_time": 42.6363636,
                "end_time": 42.9045455,
                "pitch": 79,
                "velocity": 127,
                "duration": 0.2681818,
                "tempo": 120.0
            },
            {
                "start_time": 42.9590909,
                "end_time": 43.2204545,
                "pitch": 77,
                "velocity": 127,
                "duration": 0.2613636,
                "tempo": 120.0
            },
            {
                "start_time": 29.9318182,
                "end_time": 43.675,
                "pitch": 74,
                "velocity": 101,
                "duration": 13.7431818,
                "tempo": 120.0
            },
            {
                "start_time": 43.275,
                "end_time": 43.675,
                "pitch": 74,
                "velocity": 101,
                "duration": 0.4,
                "tempo": 120.0
            },
            {
                "start_time": 43.275,
                "end_time": 43.7022727,
                "pitch": 77,
                "velocity": 101,
                "duration": 0.4272727,
                "tempo": 120.0
            },
            {
                "start_time": 43.7022727,
                "end_time": 44.4886364,
                "pitch": 69,
                "velocity": 101,
                "duration": 0.7863636,
                "tempo": 120.0
            },
            {
                "start_time": 44.5409091,
                "end_time": 44.9431818,
                "pitch": 69,
                "velocity": 101,
                "duration": 0.4022727,
                "tempo": 120.0
            },
            {
                "start_time": 44.9704545,
                "end_time": 45.7636364,
                "pitch": 68,
                "velocity": 101,
                "duration": 0.7931818,
                "tempo": 120.0
            },
            {
                "start_time": 45.8181818,
                "end_time": 46.2113636,
                "pitch": 62,
                "velocity": 101,
                "duration": 0.3931818,
                "tempo": 120.0
            },
            {
                "start_time": 46.2386364,
                "end_time": 47.0318182,
                "pitch": 62,
                "velocity": 101,
                "duration": 0.7931818,
                "tempo": 120.0
            },
            {
                "start_time": 47.0863636,
                "end_time": 47.2431818,
                "pitch": 64,
                "velocity": 101,
                "duration": 0.1568182,
                "tempo": 120.0
            },
            {
                "start_time": 47.2954545,
                "end_time": 47.4522727,
                "pitch": 64,
                "velocity": 101,
                "duration": 0.1568182,
                "tempo": 120.0
            },
            {
                "start_time": 47.5045455,
                "end_time": 47.6613636,
                "pitch": 64,
                "velocity": 101,
                "duration": 0.1568182,
                "tempo": 120.0
            },
            {
                "start_time": 47.7136364,
                "end_time": 48.0772727,
                "pitch": 64,
                "velocity": 101,
                "duration": 0.3636364,
                "tempo": 120.0
            }
        ],
        "Trumpet": [
            {
                "start_time": 33.1090909,
                "end_time": 33.6363636,
                "pitch": 56,
                "velocity": 101,
                "duration": 0.5272727,
                "tempo": 120.0
            },
            {
                "start_time": 33.7454545,
                "end_time": 34.2681818,
                "pitch": 57,
                "velocity": 101,
                "duration": 0.5227273,
                "tempo": 120.0
            },
            {
                "start_time": 34.375,
                "end_time": 34.9022727,
                "pitch": 58,
                "velocity": 101,
                "duration": 0.5272727,
                "tempo": 120.0
            },
            {
                "start_time": 35.0113636,
                "end_time": 35.5409091,
                "pitch": 57,
                "velocity": 101,
                "duration": 0.5295455,
                "tempo": 120.0
            },
            {
                "start_time": 35.6522727,
                "end_time": 35.7295455,
                "pitch": 52,
                "velocity": 101,
                "duration": 0.0772727,
                "tempo": 120.0
            },
            {
                "start_time": 35.8659091,
                "end_time": 35.9477273,
                "pitch": 52,
                "velocity": 101,
                "duration": 0.0818182,
                "tempo": 120.0
            },
            {
                "start_time": 35.975,
                "end_time": 36.05,
                "pitch": 52,
                "velocity": 101,
                "duration": 0.075,
                "tempo": 120.0
            },
            {
                "start_time": 36.075,
                "end_time": 36.1522727,
                "pitch": 52,
                "velocity": 101,
                "duration": 0.0772727,
                "tempo": 120.0
            },
            {
                "start_time": 36.1772727,
                "end_time": 36.2522727,
                "pitch": 52,
                "velocity": 101,
                "duration": 0.075,
                "tempo": 120.0
            },
            {
                "start_time": 36.2795455,
                "end_time": 36.3568182,
                "pitch": 52,
                "velocity": 101,
                "duration": 0.0772727,
                "tempo": 120.0
            },
            {
                "start_time": 36.4886364,
                "end_time": 36.5659091,
                "pitch": 52,
                "velocity": 101,
                "duration": 0.0772727,
                "tempo": 120.0
            },
            {
                "start_time": 36.5931818,
                "end_time": 36.675,
                "pitch": 52,
                "velocity": 101,
                "duration": 0.0818182,
                "tempo": 120.0
            },
            {
                "start_time": 36.7022727,
                "end_time": 36.7818182,
                "pitch": 52,
                "velocity": 101,
                "duration": 0.0795455,
                "tempo": 120.0
            },
            {
                "start_time": 36.8090909,
                "end_time": 36.8909091,
                "pitch": 52,
                "velocity": 101,
                "duration": 0.0818182,
                "tempo": 120.0
            },
            {
                "start_time": 36.9204545,
                "end_time": 37.075,
                "pitch": 64,
                "velocity": 101,
                "duration": 0.1545455,
                "tempo": 120.0
            },
            {
                "start_time": 37.1272727,
                "end_time": 37.2840909,
                "pitch": 64,
                "velocity": 101,
                "duration": 0.1568182,
                "tempo": 120.0
            },
            {
                "start_time": 37.3363636,
                "end_time": 37.4931818,
                "pitch": 64,
                "velocity": 101,
                "duration": 0.1568182,
                "tempo": 120.0
            },
            {
                "start_time": 37.5477273,
                "end_time": 37.7068182,
                "pitch": 64,
                "velocity": 101,
                "duration": 0.1590909,
                "tempo": 120.0
            },
            {
                "start_time": 37.7636364,
                "end_time": 37.9227273,
                "pitch": 64,
                "velocity": 101,
                "duration": 0.1590909,
                "tempo": 120.0
            },
            {
                "start_time": 37.9772727,
                "end_time": 38.1318182,
                "pitch": 64,
                "velocity": 101,
                "duration": 0.1545455,
                "tempo": 120.0
            },
            {
                "start_time": 47.0886364,
                "end_time": 47.2431818,
                "pitch": 64,
                "velocity": 101,
                "duration": 0.1545455,
                "tempo": 120.0
            },
            {
                "start_time": 47.2954545,
                "end_time": 47.4522727,
                "pitch": 64,
                "velocity": 101,
                "duration": 0.1568182,
                "tempo": 120.0
            },
            {
                "start_time": 47.5068182,
                "end_time": 47.6613636,
                "pitch": 64,
                "velocity": 101,
                "duration": 0.1545455,
                "tempo": 120.0
            },
            {
                "start_time": 47.7159091,
                "end_time": 47.9840909,
                "pitch": 64,
                "velocity": 101,
                "duration": 0.2681818,
                "tempo": 120.0
            }
        ],
        "Vibraphone": [
            {
                "start_time": 15.3159091,
                "end_time": 15.8363636,
                "pitch": 52,
                "velocity": 127,
                "duration": 0.5204545,
                "tempo": 120.0
            },
            {
                "start_time": 15.9409091,
                "end_time": 16.4704545,
                "pitch": 52,
                "velocity": 127,
                "duration": 0.5295455,
                "tempo": 120.0
            },
            {
                "start_time": 16.5818182,
                "end_time": 16.8409091,
                "pitch": 53,
                "velocity": 127,
                "duration": 0.2590909,
                "tempo": 120.0
            },
            {
                "start_time": 16.8954545,
                "end_time": 17.1568182,
                "pitch": 52,
                "velocity": 127,
                "duration": 0.2613636,
                "tempo": 120.0
            },
            {
                "start_time": 17.2090909,
                "end_time": 17.4772727,
                "pitch": 52,
                "velocity": 127,
                "duration": 0.2681818,
                "tempo": 120.0
            },
            {
                "start_time": 17.5340909,
                "end_time": 17.8022727,
                "pitch": 52,
                "velocity": 127,
                "duration": 0.2681818,
                "tempo": 120.0
            }
        ],
        "Acoustic Bass": [
            {
                "start_time": 0.0590909,
                "end_time": 0.2386364,
                "pitch": 45,
                "velocity": 101,
                "duration": 0.1795455,
                "tempo": 120.0
            },
            {
                "start_time": 0.2659091,
                "end_time": 0.3431818,
                "pitch": 45,
                "velocity": 101,
                "duration": 0.0772727,
                "tempo": 120.0
            },
            {
                "start_time": 0.3704545,
                "end_time": 0.45,
                "pitch": 45,
                "velocity": 101,
                "duration": 0.0795455,
                "tempo": 120.0
            },
            {
                "start_time": 0.4772727,
                "end_time": 0.5590909,
                "pitch": 38,
                "velocity": 101,
                "duration": 0.0818182,
                "tempo": 120.0
            },
            {
                "start_time": 0.5863636,
                "end_time": 0.6659091,
                "pitch": 40,
                "velocity": 101,
                "duration": 0.0795455,
                "tempo": 120.0
            },
            {
                "start_time": 0.6931818,
                "end_time": 0.8818182,
                "pitch": 45,
                "velocity": 101,
                "duration": 0.1886364,
                "tempo": 120.0
            },
            {
                "start_time": 0.9113636,
                "end_time": 0.9909091,
                "pitch": 45,
                "velocity": 101,
                "duration": 0.0795455,
                "tempo": 120.0
            },
            {
                "start_time": 1.0204545,
                "end_time": 1.0954545,
                "pitch": 48,
                "velocity": 101,
                "duration": 0.075,
                "tempo": 120.0
            },
            {
                "start_time": 1.1227273,
                "end_time": 1.2022727,
                "pitch": 47,
                "velocity": 101,
                "duration": 0.0795455,
                "tempo": 120.0
            },
            {
                "start_time": 1.2295455,
                "end_time": 1.3068182,
                "pitch": 50,
                "velocity": 101,
                "duration": 0.0772727,
                "tempo": 120.0
            },
            {
                "start_time": 1.3340909,
                "end_time": 1.5204545,
                "pitch": 45,
                "velocity": 101,
                "duration": 0.1863636,
                "tempo": 120.0
            },
            {
                "start_time": 1.55,
                "end_time": 1.6295455,
                "pitch": 45,
                "velocity": 101,
                "duration": 0.0795455,
                "tempo": 120.0
            },
            {
                "start_time": 1.6568182,
                "end_time": 1.7318182,
                "pitch": 45,
                "velocity": 101,
                "duration": 0.075,
                "tempo": 120.0
            },
            {
                "start_time": 0.4772727,
                "end_time": 1.7590909,
                "pitch": 7,
                "velocity": 101,
                "duration": 1.2818182,
                "tempo": 120.0
            },
            {
                "start_time": 0.5863636,
                "end_time": 1.8340909,
                "pitch": 38,
                "velocity": 101,
                "duration": 1.2477273,
                "tempo": 120.0
            },
            {
                "start_time": 1.7590909,
                "end_time": 1.8340909,
                "pitch": 38,
                "velocity": 101,
                "duration": 0.075,
                "tempo": 120.0
            },
            {
                "start_time": 1.8590909,
                "end_time": 1.9363636,
                "pitch": 40,
                "velocity": 101,
                "duration": 0.0772727,
                "tempo": 120.0
            },
            {
                "start_time": 0.6931818,
                "end_time": 1.9613636,
                "pitch": 54,
                "velocity": 101,
                "duration": 1.2681818,
                "tempo": 120.0
            },
            {
                "start_time": 1.9613636,
                "end_time": 2.15,
                "pitch": 45,
                "velocity": 101,
                "duration": 0.1886364,
                "tempo": 120.0
            },
            {
                "start_time": 2.1772727,
                "end_time": 2.2568182,
                "pitch": 45,
                "velocity": 101,
                "duration": 0.0795455,
                "tempo": 120.0
            },
            {
                "start_time": 1.0204545,
                "end_time": 2.2863636,
                "pitch": 19,
                "velocity": 101,
                "duration": 1.2659091,
                "tempo": 120.0
            },
            {
                "start_time": 2.2863636,
                "end_time": 2.3636364,
                "pitch": 48,
                "velocity": 101,
                "duration": 0.0772727,
                "tempo": 120.0
            },
            {
                "start_time": 1.1227273,
                "end_time": 2.3909091,
                "pitch": 52,
                "velocity": 101,
                "duration": 1.2681818,
                "tempo": 120.0
            },
            {
                "start_time": 2.3909091,
                "end_time": 2.4681818,
                "pitch": 47,
                "velocity": 101,
                "duration": 0.0772727,
                "tempo": 120.0
            },
            {
                "start_time": 1.2295455,
                "end_time": 2.4954545,
                "pitch": 32,
                "velocity": 101,
                "duration": 1.2659091,
                "tempo": 120.0
            },
            {
                "start_time": 2.4954545,
                "end_time": 2.5727273,
                "pitch": 50,
                "velocity": 101,
                "duration": 0.0772727,
                "tempo": 120.0
            },
            {
                "start_time": 1.3340909,
                "end_time": 2.6045455,
                "pitch": 53,
                "velocity": 101,
                "duration": 1.2704545,
                "tempo": 120.0
            },
            {
                "start_time": 2.6045455,
                "end_time": 2.7818182,
                "pitch": 45,
                "velocity": 101,
                "duration": 0.1772727,
                "tempo": 120.0
            },
            {
                "start_time": 2.8113636,
                "end_time": 2.8886364,
                "pitch": 45,
                "velocity": 101,
                "duration": 0.0772727,
                "tempo": 120.0
            },
            {
                "start_time": 2.9159091,
                "end_time": 2.9931818,
                "pitch": 45,
                "velocity": 101,
                "duration": 0.0772727,
                "tempo": 120.0
            },
            {
                "start_time": 1.7590909,
                "end_time": 3.0181818,
                "pitch": 7,
                "velocity": 101,
                "duration": 1.2590909,
                "tempo": 120.0
            },
            {
                "start_time": 1.8590909,
                "end_time": 3.0977273,
                "pitch": 38,
                "velocity": 101,
                "duration": 1.2386364,
                "tempo": 120.0
            },
            {
                "start_time": 3.0181818,
                "end_time": 3.0977273,
                "pitch": 38,
                "velocity": 101,
                "duration": 0.0795455,
                "tempo": 120.0
            },
            {
                "start_time": 3.1227273,
                "end_time": 3.2022727,
                "pitch": 40,
                "velocity": 101,
                "duration": 0.0795455,
                "tempo": 120.0
            },
            {
                "start_time": 1.9613636,
                "end_time": 3.2295455,
                "pitch": 54,
                "velocity": 101,
                "duration": 1.2681818,
                "tempo": 120.0
            },
            {
                "start_time": 3.2295455,
                "end_time": 3.4181818,
                "pitch": 45,
                "velocity": 101,
                "duration": 0.1886364,
                "tempo": 120.0
            },
            {
                "start_time": 3.4454545,
                "end_time": 3.525,
                "pitch": 45,
                "velocity": 101,
                "duration": 0.0795455,
                "tempo": 120.0
            },
            {
                "start_time": 2.2863636,
                "end_time": 3.5545455,
                "pitch": 19,
                "velocity": 101,
                "duration": 1.2681818,
                "tempo": 120.0
            },
            {
                "start_time": 3.5545455,
                "end_time": 3.6318182,
                "pitch": 48,
                "velocity": 101,
                "duration": 0.0772727,
                "tempo": 120.0
            },
            {
                "start_time": 2.3909091,
                "end_time": 3.6568182,
                "pitch": 52,
                "velocity": 101,
                "duration": 1.2659091,
                "tempo": 120.0
            },
            {
                "start_time": 3.6568182,
                "end_time": 3.7363636,
                "pitch": 47,
                "velocity": 101,
                "duration": 0.0795455,
                "tempo": 120.0
            },
            {
                "start_time": 2.4954545,
                "end_time": 3.7636364,
                "pitch": 32,
                "velocity": 101,
                "duration": 1.2681818,
                "tempo": 120.0
            },
            {
                "start_time": 3.7636364,
                "end_time": 3.8409091,
                "pitch": 50,
                "velocity": 101,
                "duration": 0.0772727,
                "tempo": 120.0
            },
            {
                "start_time": 2.6045455,
                "end_time": 3.8704545,
                "pitch": 53,
                "velocity": 101,
                "duration": 1.2659091,
                "tempo": 120.0
            },
            {
                "start_time": 3.8704545,
                "end_time": 4.0568182,
                "pitch": 45,
                "velocity": 101,
                "duration": 0.1863636,
                "tempo": 120.0
            },
            {
                "start_time": 4.0840909,
                "end_time": 4.1636364,
                "pitch": 45,
                "velocity": 101,
                "duration": 0.0795455,
                "tempo": 120.0
            },
            {
                "start_time": 4.1931818,
                "end_time": 4.2727273,
                "pitch": 45,
                "velocity": 101,
                "duration": 0.0795455,
                "tempo": 120.0
            },
            {
                "start_time": 3.0181818,
                "end_time": 4.3,
                "pitch": 7,
                "velocity": 101,
                "duration": 1.2818182,
                "tempo": 120.0
            },
            {
                "start_time": 3.1227273,
                "end_time": 4.3795455,
                "pitch": 38,
                "velocity": 101,
                "duration": 1.2568182,
                "tempo": 120.0
            },
            {
                "start_time": 4.3,
                "end_time": 4.3795455,
                "pitch": 38,
                "velocity": 101,
                "duration": 0.0795455,
                "tempo": 120.0
            },
            {
                "start_time": 4.4068182,
                "end_time": 4.4886364,
                "pitch": 40,
                "velocity": 101,
                "duration": 0.0818182,
                "tempo": 120.0
            },
            {
                "start_time": 3.2295455,
                "end_time": 4.5159091,
                "pitch": 54,
                "velocity": 101,
                "duration": 1.2863636,
                "tempo": 120.0
            },
            {
                "start_time": 4.5159091,
                "end_time": 4.7,
                "pitch": 45,
                "velocity": 101,
                "duration": 0.1840909,
                "tempo": 120.0
            },
            {
                "start_time": 4.725,
                "end_time": 4.8045455,
                "pitch": 45,
                "velocity": 101,
                "duration": 0.0795455,
                "tempo": 120.0
            },
            {
                "start_time": 3.5545455,
                "end_time": 4.8318182,
                "pitch": 19,
                "velocity": 101,
                "duration": 1.2772727,
                "tempo": 120.0
            },
            {
                "start_time": 4.8318182,
                "end_time": 4.9090909,
                "pitch": 48,
                "velocity": 101,
                "duration": 0.0772727,
                "tempo": 120.0
            },
            {
                "start_time": 3.6568182,
                "end_time": 4.9340909,
                "pitch": 52,
                "velocity": 101,
                "duration": 1.2772727,
                "tempo": 120.0
            },
            {
                "start_time": 4.9340909,
                "end_time": 5.0136364,
                "pitch": 47,
                "velocity": 101,
                "duration": 0.0795455,
                "tempo": 120.0
            },
            {
                "start_time": 3.7636364,
                "end_time": 5.0409091,
                "pitch": 32,
                "velocity": 101,
                "duration": 1.2772727,
                "tempo": 120.0
            },
            {
                "start_time": 5.0409091,
                "end_time": 5.1181818,
                "pitch": 50,
                "velocity": 101,
                "duration": 0.0772727,
                "tempo": 120.0
            },
            {
                "start_time": 3.8704545,
                "end_time": 5.1477273,
                "pitch": 53,
                "velocity": 101,
                "duration": 1.2772727,
                "tempo": 120.0
            },
            {
                "start_time": 5.1477273,
                "end_time": 5.3340909,
                "pitch": 45,
                "velocity": 101,
                "duration": 0.1863636,
                "tempo": 120.0
            },
            {
                "start_time": 5.3613636,
                "end_time": 5.4409091,
                "pitch": 45,
                "velocity": 101,
                "duration": 0.0795455,
                "tempo": 120.0
            },
            {
                "start_time": 5.4704545,
                "end_time": 5.5477273,
                "pitch": 57,
                "velocity": 101,
                "duration": 0.0772727,
                "tempo": 120.0
            },
            {
                "start_time": 4.8318182,
                "end_time": 5.5727273,
                "pitch": 19,
                "velocity": 101,
                "duration": 0.7409091,
                "tempo": 120.0
            },
            {
                "start_time": 4.9340909,
                "end_time": 5.6522727,
                "pitch": 52,
                "velocity": 101,
                "duration": 0.7181818,
                "tempo": 120.0
            },
            {
                "start_time": 5.5727273,
                "end_time": 5.6522727,
                "pitch": 52,
                "velocity": 101,
                "duration": 0.0795455,
                "tempo": 120.0
            },
            {
                "start_time": 5.6795455,
                "end_time": 5.7568182,
                "pitch": 55,
                "velocity": 101,
                "duration": 0.0772727,
                "tempo": 120.0
            },
            {
                "start_time": 0.0590909,
                "end_time": 5.7840909,
                "pitch": 43,
                "velocity": 101,
                "duration": 5.725,
                "tempo": 120.0
            },
            {
                "start_time": 5.7840909,
                "end_time": 5.9659091,
                "pitch": 45,
                "velocity": 101,
                "duration": 0.1818182,
                "tempo": 120.0
            },
            {
                "start_time": 5.9931818,
                "end_time": 6.0704545,
                "pitch": 45,
                "velocity": 101,
                "duration": 0.0772727,
                "tempo": 120.0
            },
            {
                "start_time": 6.1,
                "end_time": 6.175,
                "pitch": 55,
                "velocity": 101,
                "duration": 0.075,
                "tempo": 120.0
            },
            {
                "start_time": 6.2022727,
                "end_time": 6.2795455,
                "pitch": 50,
                "velocity": 101,
                "duration": 0.0772727,
                "tempo": 120.0
            },
            {
                "start_time": 5.1477273,
                "end_time": 6.3863636,
                "pitch": 53,
                "velocity": 101,
                "duration": 1.2386364,
                "tempo": 120.0
            },
            {
                "start_time": 6.3068182,
                "end_time": 6.3863636,
                "pitch": 53,
                "velocity": 101,
                "duration": 0.0795455,
                "tempo": 120.0
            },
            {
                "start_time": 4.5159091,
                "end_time": 6.4136364,
                "pitch": 54,
                "velocity": 101,
                "duration": 1.8977273,
                "tempo": 120.0
            },
            {
                "start_time": 6.4136364,
                "end_time": 6.6,
                "pitch": 45,
                "velocity": 101,
                "duration": 0.1863636,
                "tempo": 120.0
            },
            {
                "start_time": 6.6295455,
                "end_time": 6.7090909,
                "pitch": 45,
                "velocity": 101,
                "duration": 0.0795455,
                "tempo": 120.0
            },
            {
                "start_time": 5.5727273,
                "end_time": 6.7386364,
                "pitch": 19,
                "velocity": 101,
                "duration": 1.1659091,
                "tempo": 120.0
            },
            {
                "start_time": 6.7386364,
                "end_time": 6.9977273,
                "pitch": 53,
                "velocity": 101,
                "duration": 0.2590909,
                "tempo": 120.0
            },
            {
                "start_time": 6.3068182,
                "end_time": 7.3113636,
                "pitch": 50,
                "velocity": 101,
                "duration": 1.0045455,
                "tempo": 120.0
            },
            {
                "start_time": 7.0522727,
                "end_time": 7.3113636,
                "pitch": 50,
                "velocity": 101,
                "duration": 0.2590909,
                "tempo": 120.0
            },
            {
                "start_time": 7.3659091,
                "end_time": 7.6340909,
                "pitch": 52,
                "velocity": 101,
                "duration": 0.2681818,
                "tempo": 120.0
            },
            {
                "start_time": 6.4136364,
                "end_time": 7.6909091,
                "pitch": 54,
                "velocity": 101,
                "duration": 1.2772727,
                "tempo": 120.0
            },
            {
                "start_time": 7.6909091,
                "end_time": 7.8727273,
                "pitch": 45,
                "velocity": 101,
                "duration": 0.1818182,
                "tempo": 120.0
            },
            {
                "start_time": 7.9,
                "end_time": 7.9772727,
                "pitch": 45,
                "velocity": 101,
                "duration": 0.0772727,
                "tempo": 120.0
            },
            {
                "start_time": 6.1,
                "end_time": 8.0818182,
                "pitch": 57,
                "velocity": 101,
                "duration": 1.9818182,
                "tempo": 120.0
            },
            {
                "start_time": 8.0045455,
                "end_time": 8.0818182,
                "pitch": 57,
                "velocity": 101,
                "duration": 0.0772727,
                "tempo": 120.0
            },
            {
                "start_time": 6.7386364,
                "end_time": 8.1090909,
                "pitch": 19,
                "velocity": 101,
                "duration": 1.3704545,
                "tempo": 120.0
            },
            {
                "start_time": 8.1090909,
                "end_time": 8.1863636,
                "pitch": 52,
                "velocity": 101,
                "duration": 0.0772727,
                "tempo": 120.0
            },
            {
                "start_time": 5.6795455,
                "end_time": 8.2136364,
                "pitch": 66,
                "velocity": 101,
                "duration": 2.5340909,
                "tempo": 120.0
            },
            {
                "start_time": 8.2136364,
                "end_time": 8.2909091,
                "pitch": 55,
                "velocity": 101,
                "duration": 0.0772727,
                "tempo": 120.0
            },
            {
                "start_time": 5.7840909,
                "end_time": 8.3181818,
                "pitch": 43,
                "velocity": 101,
                "duration": 2.5340909,
                "tempo": 120.0
            },
            {
                "start_time": 8.3181818,
                "end_time": 8.5068182,
                "pitch": 45,
                "velocity": 101,
                "duration": 0.1886364,
                "tempo": 120.0
            },
            {
                "start_time": 8.5340909,
                "end_time": 8.6159091,
                "pitch": 45,
                "velocity": 101,
                "duration": 0.0818182,
                "tempo": 120.0
            },
            {
                "start_time": 8.6431818,
                "end_time": 8.7204545,
                "pitch": 55,
                "velocity": 101,
                "duration": 0.0772727,
                "tempo": 120.0
            },
            {
                "start_time": 6.2022727,
                "end_time": 8.7477273,
                "pitch": 0,
                "velocity": 101,
                "duration": 2.5454545,
                "tempo": 120.0
            },
            {
                "start_time": 7.3659091,
                "end_time": 8.825,
                "pitch": 50,
                "velocity": 101,
                "duration": 1.4590909,
                "tempo": 120.0
            },
            {
                "start_time": 8.7477273,
                "end_time": 8.825,
                "pitch": 50,
                "velocity": 101,
                "duration": 0.0772727,
                "tempo": 120.0
            },
            {
                "start_time": 7.0522727,
                "end_time": 8.9295455,
                "pitch": 53,
                "velocity": 101,
                "duration": 1.8772727,
                "tempo": 120.0
            },
            {
                "start_time": 8.8522727,
                "end_time": 8.9295455,
                "pitch": 53,
                "velocity": 101,
                "duration": 0.0772727,
                "tempo": 120.0
            },
            {
                "start_time": 7.6909091,
                "end_time": 8.9590909,
                "pitch": 54,
                "velocity": 101,
                "duration": 1.2681818,
                "tempo": 120.0
            },
            {
                "start_time": 8.9590909,
                "end_time": 9.1454545,
                "pitch": 45,
                "velocity": 101,
                "duration": 0.1863636,
                "tempo": 120.0
            },
            {
                "start_time": 9.1727273,
                "end_time": 9.2522727,
                "pitch": 45,
                "velocity": 101,
                "duration": 0.0795455,
                "tempo": 120.0
            },
            {
                "start_time": 8.1090909,
                "end_time": 9.2818182,
                "pitch": 19,
                "velocity": 101,
                "duration": 1.1727273,
                "tempo": 120.0
            },
            {
                "start_time": 9.2818182,
                "end_time": 9.5431818,
                "pitch": 53,
                "velocity": 101,
                "duration": 0.2613636,
                "tempo": 120.0
            },
            {
                "start_time": 8.8522727,
                "end_time": 9.8568182,
                "pitch": 50,
                "velocity": 101,
                "duration": 1.0045455,
                "tempo": 120.0
            },
            {
                "start_time": 9.5977273,
                "end_time": 9.8568182,
                "pitch": 50,
                "velocity": 101,
                "duration": 0.2590909,
                "tempo": 120.0
            },
            {
                "start_time": 9.9113636,
                "end_time": 10.1795455,
                "pitch": 52,
                "velocity": 101,
                "duration": 0.2681818,
                "tempo": 120.0
            },
            {
                "start_time": 8.9590909,
                "end_time": 10.2363636,
                "pitch": 54,
                "velocity": 101,
                "duration": 1.2772727,
                "tempo": 120.0
            },
            {
                "start_time": 10.2363636,
                "end_time": 10.4159091,
                "pitch": 45,
                "velocity": 101,
                "duration": 0.1795455,
                "tempo": 120.0
            },
            {
                "start_time": 10.4454545,
                "end_time": 10.5227273,
                "pitch": 45,
                "velocity": 101,
                "duration": 0.0772727,
                "tempo": 120.0
            },
            {
                "start_time": 8.6431818,
                "end_time": 10.6272727,
                "pitch": 57,
                "velocity": 101,
                "duration": 1.9840909,
                "tempo": 120.0
            },
            {
                "start_time": 10.55,
                "end_time": 10.6272727,
                "pitch": 57,
                "velocity": 101,
                "duration": 0.0772727,
                "tempo": 120.0
            },
            {
                "start_time": 9.2818182,
                "end_time": 10.6522727,
                "pitch": 19,
                "velocity": 101,
                "duration": 1.3704545,
                "tempo": 120.0
            },
            {
                "start_time": 10.6522727,
                "end_time": 10.7318182,
                "pitch": 52,
                "velocity": 101,
                "duration": 0.0795455,
                "tempo": 120.0
            },
            {
                "start_time": 8.2136364,
                "end_time": 10.7590909,
                "pitch": 66,
                "velocity": 101,
                "duration": 2.5454545,
                "tempo": 120.0
            },
            {
                "start_time": 10.7590909,
                "end_time": 10.8363636,
                "pitch": 55,
                "velocity": 101,
                "duration": 0.0772727,
                "tempo": 120.0
            },
            {
                "start_time": 8.3181818,
                "end_time": 10.8636364,
                "pitch": 43,
                "velocity": 101,
                "duration": 2.5454545,
                "tempo": 120.0
            },
            {
                "start_time": 10.8636364,
                "end_time": 11.0454545,
                "pitch": 45,
                "velocity": 101,
                "duration": 0.1818182,
                "tempo": 120.0
            },
            {
                "start_time": 11.0727273,
                "end_time": 11.15,
                "pitch": 45,
                "velocity": 101,
                "duration": 0.0772727,
                "tempo": 120.0
            },
            {
                "start_time": 11.1795455,
                "end_time": 11.2568182,
                "pitch": 55,
                "velocity": 101,
                "duration": 0.0772727,
                "tempo": 120.0
            },
            {
                "start_time": 8.7477273,
                "end_time": 11.2840909,
                "pitch": 0,
                "velocity": 101,
                "duration": 2.5363636,
                "tempo": 120.0
            },
            {
                "start_time": 9.9113636,
                "end_time": 11.3659091,
                "pitch": 50,
                "velocity": 101,
                "duration": 1.4545455,
                "tempo": 120.0
            },
            {
                "start_time": 11.2840909,
                "end_time": 11.3659091,
                "pitch": 50,
                "velocity": 101,
                "duration": 0.0818182,
                "tempo": 120.0
            },
            {
                "start_time": 9.5977273,
                "end_time": 11.4727273,
                "pitch": 53,
                "velocity": 101,
                "duration": 1.875,
                "tempo": 120.0
            },
            {
                "start_time": 11.3931818,
                "end_time": 11.4727273,
                "pitch": 53,
                "velocity": 101,
                "duration": 0.0795455,
                "tempo": 120.0
            },
            {
                "start_time": 10.2363636,
                "end_time": 11.5022727,
                "pitch": 54,
                "velocity": 101,
                "duration": 1.2659091,
                "tempo": 120.0
            },
            {
                "start_time": 11.5022727,
                "end_time": 11.6840909,
                "pitch": 45,
                "velocity": 101,
                "duration": 0.1818182,
                "tempo": 120.0
            },
            {
                "start_time": 11.7113636,
                "end_time": 11.7886364,
                "pitch": 45,
                "velocity": 101,
                "duration": 0.0772727,
                "tempo": 120.0
            },
            {
                "start_time": 10.6522727,
                "end_time": 11.8181818,
                "pitch": 19,
                "velocity": 101,
                "duration": 1.1659091,
                "tempo": 120.0
            },
            {
                "start_time": 11.8181818,
                "end_time": 12.0863636,
                "pitch": 53,
                "velocity": 101,
                "duration": 0.2681818,
                "tempo": 120.0
            },
            {
                "start_time": 11.3931818,
                "end_time": 12.4022727,
                "pitch": 50,
                "velocity": 101,
                "duration": 1.0090909,
                "tempo": 120.0
            },
            {
                "start_time": 12.1409091,
                "end_time": 12.4022727,
                "pitch": 50,
                "velocity": 101,
                "duration": 0.2613636,
                "tempo": 120.0
            },
            {
                "start_time": 12.4568182,
                "end_time": 12.7159091,
                "pitch": 52,
                "velocity": 101,
                "duration": 0.2590909,
                "tempo": 120.0
            },
            {
                "start_time": 11.5022727,
                "end_time": 12.7704545,
                "pitch": 54,
                "velocity": 101,
                "duration": 1.2681818,
                "tempo": 120.0
            },
            {
                "start_time": 12.7704545,
                "end_time": 12.9568182,
                "pitch": 45,
                "velocity": 101,
                "duration": 0.1863636,
                "tempo": 120.0
            },
            {
                "start_time": 12.9863636,
                "end_time": 13.0659091,
                "pitch": 45,
                "velocity": 101,
                "duration": 0.0795455,
                "tempo": 120.0
            },
            {
                "start_time": 11.1795455,
                "end_time": 13.1704545,
                "pitch": 57,
                "velocity": 101,
                "duration": 1.9909091,
                "tempo": 120.0
            },
            {
                "start_time": 13.0954545,
                "end_time": 13.1704545,
                "pitch": 57,
                "velocity": 101,
                "duration": 0.075,
                "tempo": 120.0
            },
            {
                "start_time": 11.8181818,
                "end_time": 13.1977273,
                "pitch": 19,
                "velocity": 101,
                "duration": 1.3795455,
                "tempo": 120.0
            },
            {
                "start_time": 13.1977273,
                "end_time": 13.275,
                "pitch": 52,
                "velocity": 101,
                "duration": 0.0772727,
                "tempo": 120.0
            },
            {
                "start_time": 10.7590909,
                "end_time": 13.3022727,
                "pitch": 66,
                "velocity": 101,
                "duration": 2.5431818,
                "tempo": 120.0
            },
            {
                "start_time": 13.3022727,
                "end_time": 13.3795455,
                "pitch": 55,
                "velocity": 101,
                "duration": 0.0772727,
                "tempo": 120.0
            },
            {
                "start_time": 10.8636364,
                "end_time": 13.4090909,
                "pitch": 43,
                "velocity": 101,
                "duration": 2.5454545,
                "tempo": 120.0
            },
            {
                "start_time": 13.4090909,
                "end_time": 13.5909091,
                "pitch": 45,
                "velocity": 101,
                "duration": 0.1818182,
                "tempo": 120.0
            },
            {
                "start_time": 13.6181818,
                "end_time": 13.6954545,
                "pitch": 45,
                "velocity": 101,
                "duration": 0.0772727,
                "tempo": 120.0
            },
            {
                "start_time": 13.7227273,
                "end_time": 13.8,
                "pitch": 55,
                "velocity": 101,
                "duration": 0.0772727,
                "tempo": 120.0
            },
            {
                "start_time": 11.2840909,
                "end_time": 13.8272727,
                "pitch": 0,
                "velocity": 101,
                "duration": 2.5431818,
                "tempo": 120.0
            },
            {
                "start_time": 12.4568182,
                "end_time": 13.9045455,
                "pitch": 50,
                "velocity": 101,
                "duration": 1.4477273,
                "tempo": 120.0
            },
            {
                "start_time": 13.8272727,
                "end_time": 13.9045455,
                "pitch": 50,
                "velocity": 101,
                "duration": 0.0772727,
                "tempo": 120.0
            },
            {
                "start_time": 12.1409091,
                "end_time": 14.0090909,
                "pitch": 53,
                "velocity": 101,
                "duration": 1.8681818,
                "tempo": 120.0
            },
            {
                "start_time": 13.9318182,
                "end_time": 14.0090909,
                "pitch": 53,
                "velocity": 101,
                "duration": 0.0772727,
                "tempo": 120.0
            },
            {
                "start_time": 12.7704545,
                "end_time": 14.0363636,
                "pitch": 54,
                "velocity": 101,
                "duration": 1.2659091,
                "tempo": 120.0
            },
            {
                "start_time": 14.0363636,
                "end_time": 14.225,
                "pitch": 45,
                "velocity": 101,
                "duration": 0.1886364,
                "tempo": 120.0
            },
            {
                "start_time": 14.2522727,
                "end_time": 14.3318182,
                "pitch": 45,
                "velocity": 101,
                "duration": 0.0795455,
                "tempo": 120.0
            },
            {
                "start_time": 13.1977273,
                "end_time": 14.3613636,
                "pitch": 19,
                "velocity": 101,
                "duration": 1.1636364,
                "tempo": 120.0
            },
            {
                "start_time": 14.3613636,
                "end_time": 14.6227273,
                "pitch": 53,
                "velocity": 101,
                "duration": 0.2613636,
                "tempo": 120.0
            },
            {
                "start_time": 13.9318182,
                "end_time": 14.9431818,
                "pitch": 50,
                "velocity": 101,
                "duration": 1.0113636,
                "tempo": 120.0
            },
            {
                "start_time": 14.6772727,
                "end_time": 14.9431818,
                "pitch": 50,
                "velocity": 101,
                "duration": 0.2659091,
                "tempo": 120.0
            },
            {
                "start_time": 15.0,
                "end_time": 15.2613636,
                "pitch": 52,
                "velocity": 101,
                "duration": 0.2613636,
                "tempo": 120.0
            },
            {
                "start_time": 14.0363636,
                "end_time": 48.3568182,
                "pitch": 54,
                "velocity": 101,
                "duration": 34.3204545,
                "tempo": 120.0
            },
            {
                "start_time": 48.3568182,
                "end_time": 48.3590909,
                "pitch": 45,
                "velocity": 101,
                "duration": 0.0022727,
                "tempo": 120.0
            }
        ],
        "Acoustic Guitar (nylon)": [
            {
                "start_time": 45.8204545,
                "end_time": 45.8568182,
                "pitch": 62,
                "velocity": 101,
                "duration": 0.0363636,
                "tempo": 120.0
            },
            {
                "start_time": 45.8704545,
                "end_time": 45.9090909,
                "pitch": 62,
                "velocity": 101,
                "duration": 0.0386364,
                "tempo": 120.0
            },
            {
                "start_time": 45.9227273,
                "end_time": 45.9613636,
                "pitch": 62,
                "velocity": 101,
                "duration": 0.0386364,
                "tempo": 120.0
            },
            {
                "start_time": 45.975,
                "end_time": 46.0136364,
                "pitch": 62,
                "velocity": 101,
                "duration": 0.0386364,
                "tempo": 120.0
            },
            {
                "start_time": 46.0295455,
                "end_time": 46.0659091,
                "pitch": 62,
                "velocity": 101,
                "duration": 0.0363636,
                "tempo": 120.0
            },
            {
                "start_time": 46.0795455,
                "end_time": 46.1181818,
                "pitch": 62,
                "velocity": 101,
                "duration": 0.0386364,
                "tempo": 120.0
            },
            {
                "start_time": 46.1340909,
                "end_time": 46.1704545,
                "pitch": 64,
                "velocity": 101,
                "duration": 0.0363636,
                "tempo": 120.0
            },
            {
                "start_time": 46.1840909,
                "end_time": 46.225,
                "pitch": 64,
                "velocity": 101,
                "duration": 0.0409091,
                "tempo": 120.0
            },
            {
                "start_time": 46.2386364,
                "end_time": 46.2772727,
                "pitch": 64,
                "velocity": 101,
                "duration": 0.0386364,
                "tempo": 120.0
            },
            {
                "start_time": 46.2886364,
                "end_time": 46.3295455,
                "pitch": 64,
                "velocity": 101,
                "duration": 0.0409091,
                "tempo": 120.0
            },
            {
                "start_time": 46.3431818,
                "end_time": 46.3818182,
                "pitch": 64,
                "velocity": 101,
                "duration": 0.0386364,
                "tempo": 120.0
            },
            {
                "start_time": 46.3954545,
                "end_time": 46.4340909,
                "pitch": 64,
                "velocity": 101,
                "duration": 0.0386364,
                "tempo": 120.0
            },
            {
                "start_time": 46.4477273,
                "end_time": 46.4863636,
                "pitch": 64,
                "velocity": 101,
                "duration": 0.0386364,
                "tempo": 120.0
            },
            {
                "start_time": 46.5,
                "end_time": 46.5409091,
                "pitch": 65,
                "velocity": 101,
                "duration": 0.0409091,
                "tempo": 120.0
            },
            {
                "start_time": 46.5545455,
                "end_time": 46.5954545,
                "pitch": 65,
                "velocity": 101,
                "duration": 0.0409091,
                "tempo": 120.0
            },
            {
                "start_time": 46.6090909,
                "end_time": 46.65,
                "pitch": 65,
                "velocity": 101,
                "duration": 0.0409091,
                "tempo": 120.0
            },
            {
                "start_time": 46.6636364,
                "end_time": 46.7022727,
                "pitch": 65,
                "velocity": 101,
                "duration": 0.0386364,
                "tempo": 120.0
            },
            {
                "start_time": 46.7159091,
                "end_time": 46.7568182,
                "pitch": 65,
                "velocity": 101,
                "duration": 0.0409091,
                "tempo": 120.0
            },
            {
                "start_time": 46.7727273,
                "end_time": 46.8090909,
                "pitch": 68,
                "velocity": 101,
                "duration": 0.0363636,
                "tempo": 120.0
            },
            {
                "start_time": 46.8227273,
                "end_time": 46.8636364,
                "pitch": 68,
                "velocity": 101,
                "duration": 0.0409091,
                "tempo": 120.0
            },
            {
                "start_time": 46.8772727,
                "end_time": 46.9159091,
                "pitch": 68,
                "velocity": 101,
                "duration": 0.0386364,
                "tempo": 120.0
            },
            {
                "start_time": 46.9272727,
                "end_time": 46.9681818,
                "pitch": 68,
                "velocity": 101,
                "duration": 0.0409091,
                "tempo": 120.0
            },
            {
                "start_time": 46.9818182,
                "end_time": 47.0204545,
                "pitch": 68,
                "velocity": 101,
                "duration": 0.0386364,
                "tempo": 120.0
            },
            {
                "start_time": 47.0340909,
                "end_time": 47.0727273,
                "pitch": 68,
                "velocity": 101,
                "duration": 0.0386364,
                "tempo": 120.0
            }
        ]
    }
}