{
    "mood": "angry",
    "instruments": {
        "Electric Piano 1": [
            {
                "start_time": 0.1977273,
                "end_time": 0.2954545,
                "pitch": 62,
                "velocity": 51,
                "duration": 0.0977273,
                "tempo": 120.0
            },
            {
                "start_time": 0.2954545,
                "end_time": 0.3909091,
                "pitch": 59,
                "velocity": 51,
                "duration": 0.0954545,
                "tempo": 120.0
            },
            {
                "start_time": 0.3931818,
                "end_time": 0.5227273,
                "pitch": 55,
                "velocity": 51,
                "duration": 0.1295455,
                "tempo": 120.0
            },
            {
                "start_time": 0.5227273,
                "end_time": 0.6386364,
                "pitch": 63,
                "velocity": 51,
                "duration": 0.1159091,
                "tempo": 120.0
            },
            {
                "start_time": 0.6386364,
                "end_time": 0.7522727,
                "pitch": 60,
                "velocity": 51,
                "duration": 0.1136364,
                "tempo": 120.0
            },
            {
                "start_time": 0.7522727,
                "end_time": 0.8681818,
                "pitch": 55,
                "velocity": 51,
                "duration": 0.1159091,
                "tempo": 120.0
            },
            {
                "start_time": 0.8681818,
                "end_time": 0.9840909,
                "pitch": 62,
                "velocity": 51,
                "duration": 0.1159091,
                "tempo": 120.0
            },
            {
                "start_time": 0.9840909,
                "end_time": 1.1181818,
                "pitch": 59,
                "velocity": 51,
                "duration": 0.1340909,
                "tempo": 120.0
            },
            {
                "start_time": 1.1181818,
                "end_time": 1.2340909,
                "pitch": 55,
                "velocity": 51,
                "duration": 0.1159091,
                "tempo": 120.0
            },
            {
                "start_time": 1.2363636,
                "end_time": 1.3522727,
                "pitch": 63,
                "velocity": 51,
                "duration": 0.1159091,
                "tempo": 120.0
            },
            {
                "start_time": 1.3522727,
                "end_time": 1.4727273,
                "pitch": 60,
                "velocity": 51,
                "duration": 0.1204545,
                "tempo": 120.0
            },
            {
                "start_time": 1.4727273,
                "end_time": 1.5909091,
                "pitch": 55,
                "velocity": 51,
                "duration": 0.1181818,
                "tempo": 120.0
            },
            {
                "start_time": 1.5909091,
                "end_time": 1.7272727,
                "pitch": 62,
                "velocity": 51,
                "duration": 0.1363636,
                "tempo": 120.0
            },
            {
                "start_time": 1.7295455,
                "end_time": 1.8477273,
                "pitch": 59,
                "velocity": 51,
                "duration": 0.1181818,
                "tempo": 120.0
            },
            {
                "start_time": 2.0818182,
                "end_time": 2.1977273,
                "pitch": 62,
                "velocity": 51,
                "duration": 0.1159091,
                "tempo": 120.0
            },
            {
                "start_time": 2.1977273,
                "end_time": 2.3318182,
                "pitch": 59,
                "velocity": 51,
                "duration": 0.1340909,
                "tempo": 120.0
            },
            {
                "start_time": 2.3318182,
                "end_time": 2.4522727,
                "pitch": 55,
                "velocity": 51,
                "duration": 0.1204545,
                "tempo": 120.0
            },
            {
                "start_time": 2.4522727,
                "end_time": 2.5704545,
                "pitch": 63,
                "velocity": 51,
                "duration": 0.1181818,
                "tempo": 120.0
            },
            {
                "start_time": 2.5704545,
                "end_time": 2.6909091,
                "pitch": 60,
                "velocity": 51,
                "duration": 0.1204545,
                "tempo": 120.0
            },
            {
                "start_time": 2.6909091,
                "end_time": 2.8090909,
                "pitch": 55,
                "velocity": 51,
                "duration": 0.1181818,
                "tempo": 120.0
            },
            {
                "start_time": 2.8113636,
                "end_time": 2.9386364,
                "pitch": 62,
                "velocity": 51,
                "duration": 0.1272727,
                "tempo": 120.0
            },
            {
                "start_time": 2.9386364,
                "end_time": 3.05,
                "pitch": 59,
                "velocity": 51,
                "duration": 0.1113636,
                "tempo": 120.0
            },
            {
                "start_time": 3.05,
                "end_time": 3.1636364,
                "pitch": 55,
                "velocity": 51,
                "duration": 0.1136364,
                "tempo": 120.0
            },
            {
                "start_time": 3.1636364,
                "end_time": 3.275,
                "pitch": 63,
                "velocity": 51,
                "duration": 0.1113636,
                "tempo": 120.0
            },
            {
                "start_time": 3.275,
                "end_time": 3.3954545,
                "pitch": 60,
                "velocity": 51,
                "duration": 0.1204545,
                "tempo": 120.0
            },
            {
                "start_time": 3.3954545,
                "end_time": 3.5318182,
                "pitch": 55,
                "velocity": 51,
                "duration": 0.1363636,
                "tempo": 120.0
            },
            {
                "start_time": 3.5318182,
                "end_time": 3.6522727,
                "pitch": 62,
                "velocity": 51,
                "duration": 0.1204545,
                "tempo": 120.0
            },
            {
                "start_time": 3.6522727,
                "end_time": 3.7704545,
                "pitch": 59,
                "velocity": 51,
                "duration": 0.1181818,
                "tempo": 120.0
            },
            {
                "start_time": 4.0045455,
                "end_time": 4.1386364,
                "pitch": 64,
                "velocity": 51,
                "duration": 0.1340909,
                "tempo": 120.0
            },
            {
                "start_time": 4.1386364,
                "end_time": 4.2545455,
                "pitch": 60,
                "velocity": 51,
                "duration": 0.1159091,
                "tempo": 120.0
            },
            {
                "start_time": 4.2545455,
                "end_time": 4.375,
                "pitch": 57,
                "velocity": 51,
                "duration": 0.1204545,
                "tempo": 120.0
            },
            {
                "start_time": 4.375,
                "end_time": 4.4931818,
                "pitch": 65,
                "velocity": 51,
                "duration": 0.1181818,
                "tempo": 120.0
            },
            {
                "start_time": 4.4954545,
                "end_time": 4.6136364,
                "pitch": 62,
                "velocity": 51,
                "duration": 0.1181818,
                "tempo": 120.0
            },
            {
                "start_time": 4.6136364,
                "end_time": 4.75,
                "pitch": 57,
                "velocity": 51,
                "duration": 0.1363636,
                "tempo": 120.0
            },
            {
                "start_time": 4.75,
                "end_time": 4.8681818,
                "pitch": 64,
                "velocity": 51,
                "duration": 0.1181818,
                "tempo": 120.0
            },
            {
                "start_time": 4.8681818,
                "end_time": 4.9840909,
                "pitch": 60,
                "velocity": 51,
                "duration": 0.1159091,
                "tempo": 120.0
            },
            {
                "start_time": 4.9840909,
                "end_time": 5.1,
                "pitch": 57,
                "velocity": 51,
                "duration": 0.1159091,
                "tempo": 120.0
            },
            {
                "start_time": 5.1022727,
                "end_time": 5.2181818,
                "pitch": 65,
                "velocity": 51,
                "duration": 0.1159091,
                "tempo": 120.0
            },
            {
                "start_time": 5.2181818,
                "end_time": 5.35,
                "pitch": 62,
                "velocity": 51,
                "duration": 0.1318182,
                "tempo": 120.0
            },
            {
                "start_time": 5.35,
                "end_time": 5.4636364,
                "pitch": 57,
                "velocity": 51,
                "duration": 0.1136364,
                "tempo": 120.0
            },
            {
                "start_time": 5.4636364,
                "end_time": 5.5795455,
                "pitch": 64,
                "velocity": 51,
                "duration": 0.1159091,
                "tempo": 120.0
            },
            {
                "start_time": 5.5795455,
                "end_time": 5.6931818,
                "pitch": 60,
                "velocity": 51,
                "duration": 0.1136364,
                "tempo": 120.0
            },
            {
                "start_time": 5.9454545,
                "end_time": 6.0613636,
                "pitch": 64,
                "velocity": 51,
                "duration": 0.1159091,
                "tempo": 120.0
            },
            {
                "start_time": 6.0613636,
                "end_time": 6.1772727,
                "pitch": 60,
                "velocity": 51,
                "duration": 0.1159091,
                "tempo": 120.0
            },
            {
                "start_time": 6.1795455,
                "end_time": 6.2977273,
                "pitch": 57,
                "velocity": 51,
                "duration": 0.1181818,
                "tempo": 120.0
            },
            {
                "start_time": 6.2977273,
                "end_time": 6.4181818,
                "pitch": 65,
                "velocity": 51,
                "duration": 0.1204545,
                "tempo": 120.0
            },
            {
                "start_time": 6.4181818,
                "end_time": 6.5545455,
                "pitch": 62,
                "velocity": 51,
                "duration": 0.1363636,
                "tempo": 120.0
            },
            {
                "start_time": 6.5545455,
                "end_time": 6.6727273,
                "pitch": 57,
                "velocity": 51,
                "duration": 0.1181818,
                "tempo": 120.0
            },
            {
                "start_time": 6.675,
                "end_time": 6.7909091,
                "pitch": 64,
                "velocity": 51,
                "duration": 0.1159091,
                "tempo": 120.0
            },
            {
                "start_time": 6.7909091,
                "end_time": 6.9090909,
                "pitch": 60,
                "velocity": 51,
                "duration": 0.1181818,
                "tempo": 120.0
            },
            {
                "start_time": 6.9090909,
                "end_time": 7.0272727,
                "pitch": 57,
                "velocity": 51,
                "duration": 0.1181818,
                "tempo": 120.0
            },
            {
                "start_time": 7.0272727,
                "end_time": 7.1613636,
                "pitch": 65,
                "velocity": 51,
                "duration": 0.1340909,
                "tempo": 120.0
            },
            {
                "start_time": 7.1613636,
                "end_time": 7.2772727,
                "pitch": 62,
                "velocity": 51,
                "duration": 0.1159091,
                "tempo": 120.0
            },
            {
                "start_time": 7.2795455,
                "end_time": 7.3954545,
                "pitch": 57,
                "velocity": 51,
                "duration": 0.1159091,
                "tempo": 120.0
            },
            {
                "start_time": 7.3954545,
                "end_time": 7.5113636,
                "pitch": 64,
                "velocity": 51,
                "duration": 0.1159091,
                "tempo": 120.0
            },
            {
                "start_time": 7.5113636,
                "end_time": 7.6295455,
                "pitch": 60,
                "velocity": 51,
                "duration": 0.1181818,
                "tempo": 120.0
            },
            {
                "start_time": 7.875,
                "end_time": 7.9909091,
                "pitch": 60,
                "velocity": 51,
                "duration": 0.1159091,
                "tempo": 120.0
            },
            {
                "start_time": 7.9909091,
                "end_time": 8.1045455,
                "pitch": 56,
                "velocity": 51,
                "duration": 0.1136364,
                "tempo": 120.0
            },
            {
                "start_time": 8.1045455,
                "end_time": 8.2227273,
                "pitch": 53,
                "velocity": 51,
                "duration": 0.1181818,
                "tempo": 120.0
            },
            {
                "start_time": 8.2227273,
                "end_time": 8.3568182,
                "pitch": 62,
                "velocity": 51,
                "duration": 0.1340909,
                "tempo": 120.0
            },
            {
                "start_time": 8.3568182,
                "end_time": 8.475,
                "pitch": 58,
                "velocity": 51,
                "duration": 0.1181818,
                "tempo": 120.0
            },
            {
                "start_time": 8.475,
                "end_time": 8.5931818,
                "pitch": 53,
                "velocity": 51,
                "duration": 0.1181818,
                "tempo": 120.0
            },
            {
                "start_time": 8.5931818,
                "end_time": 8.7136364,
                "pitch": 63,
                "velocity": 51,
                "duration": 0.1204545,
                "tempo": 120.0
            },
            {
                "start_time": 8.7136364,
                "end_time": 8.8318182,
                "pitch": 60,
                "velocity": 51,
                "duration": 0.1181818,
                "tempo": 120.0
            },
            {
                "start_time": 8.8318182,
                "end_time": 8.9681818,
                "pitch": 53,
                "velocity": 51,
                "duration": 0.1363636,
                "tempo": 120.0
            },
            {
                "start_time": 8.9681818,
                "end_time": 9.0886364,
                "pitch": 62,
                "velocity": 51,
                "duration": 0.1204545,
                "tempo": 120.0
            },
            {
                "start_time": 9.0886364,
                "end_time": 9.2068182,
                "pitch": 58,
                "velocity": 51,
                "duration": 0.1181818,
                "tempo": 120.0
            },
            {
                "start_time": 9.2068182,
                "end_time": 9.325,
                "pitch": 53,
                "velocity": 51,
                "duration": 0.1181818,
                "tempo": 120.0
            },
            {
                "start_time": 9.325,
                "end_time": 9.4431818,
                "pitch": 60,
                "velocity": 51,
                "duration": 0.1181818,
                "tempo": 120.0
            },
            {
                "start_time": 9.4431818,
                "end_time": 9.5772727,
                "pitch": 56,
                "velocity": 51,
                "duration": 0.1340909,
                "tempo": 120.0
            },
            {
                "start_time": 9.8113636,
                "end_time": 9.9272727,
                "pitch": 60,
                "velocity": 51,
                "duration": 0.1159091,
                "tempo": 120.0
            },
            {
                "start_time": 9.9272727,
                "end_time": 10.0431818,
                "pitch": 56,
                "velocity": 51,
                "duration": 0.1159091,
                "tempo": 120.0
            },
            {
                "start_time": 10.0431818,
                "end_time": 10.175,
                "pitch": 53,
                "velocity": 51,
                "duration": 0.1318182,
                "tempo": 120.0
            },
            {
                "start_time": 10.175,
                "end_time": 10.2909091,
                "pitch": 62,
                "velocity": 51,
                "duration": 0.1159091,
                "tempo": 120.0
            },
            {
                "start_time": 10.2909091,
                "end_time": 10.4045455,
                "pitch": 58,
                "velocity": 51,
                "duration": 0.1136364,
                "tempo": 120.0
            },
            {
                "start_time": 10.4045455,
                "end_time": 10.5204545,
                "pitch": 53,
                "velocity": 51,
                "duration": 0.1159091,
                "tempo": 120.0
            },
            {
                "start_time": 10.5204545,
                "end_time": 10.6386364,
                "pitch": 63,
                "velocity": 51,
                "duration": 0.1181818,
                "tempo": 120.0
            },
            {
                "start_time": 10.6386364,
                "end_time": 10.7772727,
                "pitch": 60,
                "velocity": 51,
                "duration": 0.1386364,
                "tempo": 120.0
            },
            {
                "start_time": 10.7772727,
                "end_time": 10.8954545,
                "pitch": 53,
                "velocity": 51,
                "duration": 0.1181818,
                "tempo": 120.0
            },
            {
                "start_time": 10.8954545,
                "end_time": 11.0159091,
                "pitch": 62,
                "velocity": 51,
                "duration": 0.1204545,
                "tempo": 120.0
            },
            {
                "start_time": 11.0159091,
                "end_time": 11.1340909,
                "pitch": 58,
                "velocity": 51,
                "duration": 0.1181818,
                "tempo": 120.0
            },
            {
                "start_time": 11.1340909,
                "end_time": 11.25,
                "pitch": 53,
                "velocity": 51,
                "duration": 0.1159091,
                "tempo": 120.0
            },
            {
                "start_time": 11.2522727,
                "end_time": 11.3863636,
                "pitch": 60,
                "velocity": 51,
                "duration": 0.1340909,
                "tempo": 120.0
            },
            {
                "start_time": 11.3863636,
                "end_time": 11.5045455,
                "pitch": 56,
                "velocity": 51,
                "duration": 0.1181818,
                "tempo": 120.0
            },
            {
                "start_time": 11.7363636,
                "end_time": 11.8545455,
                "pitch": 62,
                "velocity": 51,
                "duration": 0.1181818,
                "tempo": 120.0
            },
            {
                "start_time": 11.8545455,
                "end_time": 11.9863636,
                "pitch": 58,
                "velocity": 51,
                "duration": 0.1318182,
                "tempo": 120.0
            },
            {
                "start_time": 11.9886364,
                "end_time": 12.1068182,
                "pitch": 55,
                "velocity": 51,
                "duration": 0.1181818,
                "tempo": 120.0
            },
            {
                "start_time": 12.1068182,
                "end_time": 12.2272727,
                "pitch": 63,
                "velocity": 51,
                "duration": 0.1204545,
                "tempo": 120.0
            },
            {
                "start_time": 12.2272727,
                "end_time": 12.3454545,
                "pitch": 60,
                "velocity": 51,
                "duration": 0.1181818,
                "tempo": 120.0
            },
            {
                "start_time": 12.3477273,
                "end_time": 12.4659091,
                "pitch": 55,
                "velocity": 51,
                "duration": 0.1181818,
                "tempo": 120.0
            },
            {
                "start_time": 12.4659091,
                "end_time": 12.5977273,
                "pitch": 65,
                "velocity": 51,
                "duration": 0.1318182,
                "tempo": 120.0
            },
            {
                "start_time": 12.5977273,
                "end_time": 12.7136364,
                "pitch": 62,
                "velocity": 51,
                "duration": 0.1159091,
                "tempo": 120.0
            },
            {
                "start_time": 12.7136364,
                "end_time": 12.8272727,
                "pitch": 55,
                "velocity": 51,
                "duration": 0.1136364,
                "tempo": 120.0
            },
            {
                "start_time": 12.8272727,
                "end_time": 12.9431818,
                "pitch": 63,
                "velocity": 51,
                "duration": 0.1159091,
                "tempo": 120.0
            },
            {
                "start_time": 12.9431818,
                "end_time": 13.0590909,
                "pitch": 60,
                "velocity": 51,
                "duration": 0.1159091,
                "tempo": 120.0
            },
            {
                "start_time": 13.0613636,
                "end_time": 13.1954545,
                "pitch": 55,
                "velocity": 51,
                "duration": 0.1340909,
                "tempo": 120.0
            },
            {
                "start_time": 13.1954545,
                "end_time": 13.3136364,
                "pitch": 62,
                "velocity": 51,
                "duration": 0.1181818,
                "tempo": 120.0
            },
            {
                "start_time": 13.3136364,
                "end_time": 13.4295455,
                "pitch": 58,
                "velocity": 51,
                "duration": 0.1159091,
                "tempo": 120.0
            },
            {
                "start_time": 13.6636364,
                "end_time": 13.7977273,
                "pitch": 62,
                "velocity": 51,
                "duration": 0.1340909,
                "tempo": 120.0
            },
            {
                "start_time": 13.7977273,
                "end_time": 13.9136364,
                "pitch": 58,
                "velocity": 51,
                "duration": 0.1159091,
                "tempo": 120.0
            },
            {
                "start_time": 13.9136364,
                "end_time": 14.0340909,
                "pitch": 55,
                "velocity": 51,
                "duration": 0.1204545,
                "tempo": 120.0
            },
            {
                "start_time": 14.0340909,
                "end_time": 14.1545455,
                "pitch": 63,
                "velocity": 51,
                "duration": 0.1204545,
                "tempo": 120.0
            },
            {
                "start_time": 14.1545455,
                "end_time": 14.2727273,
                "pitch": 60,
                "velocity": 51,
                "duration": 0.1181818,
                "tempo": 120.0
            },
            {
                "start_time": 14.2727273,
                "end_time": 14.4090909,
                "pitch": 55,
                "velocity": 51,
                "duration": 0.1363636,
                "tempo": 120.0
            },
            {
                "start_time": 14.4090909,
                "end_time": 14.5272727,
                "pitch": 65,
                "velocity": 51,
                "duration": 0.1181818,
                "tempo": 120.0
            },
            {
                "start_time": 14.5272727,
                "end_time": 14.6454545,
                "pitch": 62,
                "velocity": 51,
                "duration": 0.1181818,
                "tempo": 120.0
            },
            {
                "start_time": 14.6454545,
                "end_time": 14.7636364,
                "pitch": 55,
                "velocity": 51,
                "duration": 0.1181818,
                "tempo": 120.0
            },
            {
                "start_time": 14.7636364,
                "end_time": 14.8818182,
                "pitch": 63,
                "velocity": 51,
                "duration": 0.1181818,
                "tempo": 120.0
            },
            {
                "start_time": 14.8818182,
                "end_time": 15.0136364,
                "pitch": 60,
                "velocity": 51,
                "duration": 0.1318182,
                "tempo": 120.0
            },
            {
                "start_time": 15.0136364,
                "end_time": 15.1272727,
                "pitch": 55,
                "velocity": 51,
                "duration": 0.1136364,
                "tempo": 120.0
            },
            {
                "start_time": 15.1272727,
                "end_time": 15.2431818,
                "pitch": 62,
                "velocity": 51,
                "duration": 0.1159091,
                "tempo": 120.0
            },
            {
                "start_time": 15.2431818,
                "end_time": 15.3568182,
                "pitch": 58,
                "velocity": 51,
                "duration": 0.1136364,
                "tempo": 120.0
            },
            {
                "start_time": 15.6181818,
                "end_time": 15.7386364,
                "pitch": 64,
                "velocity": 51,
                "duration": 0.1204545,
                "tempo": 120.0
            },
            {
                "start_time": 15.7386364,
                "end_time": 15.8613636,
                "pitch": 61,
                "velocity": 51,
                "duration": 0.1227273,
                "tempo": 120.0
            },
            {
                "start_time": 15.8613636,
                "end_time": 15.975,
                "pitch": 57,
                "velocity": 51,
                "duration": 0.1136364,
                "tempo": 120.0
            },
            {
                "start_time": 15.975,
                "end_time": 16.0909091,
                "pitch": 65,
                "velocity": 51,
                "duration": 0.1159091,
                "tempo": 120.0
            },
            {
                "start_time": 16.0909091,
                "end_time": 16.2227273,
                "pitch": 62,
                "velocity": 51,
                "duration": 0.1318182,
                "tempo": 120.0
            },
            {
                "start_time": 16.2227273,
                "end_time": 16.3363636,
                "pitch": 57,
                "velocity": 51,
                "duration": 0.1136364,
                "tempo": 120.0
            },
            {
                "start_time": 16.3363636,
                "end_time": 16.4545455,
                "pitch": 64,
                "velocity": 51,
                "duration": 0.1181818,
                "tempo": 120.0
            },
            {
                "start_time": 16.4545455,
                "end_time": 16.5727273,
                "pitch": 61,
                "velocity": 51,
                "duration": 0.1181818,
                "tempo": 120.0
            },
            {
                "start_time": 16.5727273,
                "end_time": 16.6909091,
                "pitch": 57,
                "velocity": 51,
                "duration": 0.1181818,
                "tempo": 120.0
            },
            {
                "start_time": 16.6909091,
                "end_time": 16.825,
                "pitch": 65,
                "velocity": 51,
                "duration": 0.1340909,
                "tempo": 120.0
            },
            {
                "start_time": 16.825,
                "end_time": 16.9431818,
                "pitch": 62,
                "velocity": 51,
                "duration": 0.1181818,
                "tempo": 120.0
            },
            {
                "start_time": 16.9431818,
                "end_time": 17.0590909,
                "pitch": 57,
                "velocity": 51,
                "duration": 0.1159091,
                "tempo": 120.0
            },
            {
                "start_time": 17.0613636,
                "end_time": 17.1772727,
                "pitch": 64,
                "velocity": 51,
                "duration": 0.1159091,
                "tempo": 120.0
            },
            {
                "start_time": 17.1772727,
                "end_time": 17.2954545,
                "pitch": 61,
                "velocity": 51,
                "duration": 0.1181818,
                "tempo": 120.0
            },
            {
                "start_time": 17.5431818,
                "end_time": 17.6568182,
                "pitch": 64,
                "velocity": 51,
                "duration": 0.1136364,
                "tempo": 120.0
            },
            {
                "start_time": 17.6568182,
                "end_time": 17.7727273,
                "pitch": 61,
                "velocity": 51,
                "duration": 0.1159091,
                "tempo": 120.0
            },
            {
                "start_time": 17.7727273,
                "end_time": 17.8909091,
                "pitch": 57,
                "velocity": 51,
                "duration": 0.1181818,
                "tempo": 120.0
            },
            {
                "start_time": 17.8909091,
                "end_time": 18.0272727,
                "pitch": 65,
                "velocity": 51,
                "duration": 0.1363636,
                "tempo": 120.0
            },
            {
                "start_time": 18.0272727,
                "end_time": 18.1477273,
                "pitch": 62,
                "velocity": 51,
                "duration": 0.1204545,
                "tempo": 120.0
            },
            {
                "start_time": 18.1477273,
                "end_time": 18.2681818,
                "pitch": 57,
                "velocity": 51,
                "duration": 0.1204545,
                "tempo": 120.0
            },
            {
                "start_time": 18.2681818,
                "end_time": 18.3840909,
                "pitch": 64,
                "velocity": 51,
                "duration": 0.1159091,
                "tempo": 120.0
            },
            {
                "start_time": 18.3863636,
                "end_time": 18.5022727,
                "pitch": 61,
                "velocity": 51,
                "duration": 0.1159091,
                "tempo": 120.0
            },
            {
                "start_time": 18.5022727,
                "end_time": 18.6386364,
                "pitch": 57,
                "velocity": 51,
                "duration": 0.1363636,
                "tempo": 120.0
            },
            {
                "start_time": 18.6386364,
                "end_time": 18.7545455,
                "pitch": 65,
                "velocity": 51,
                "duration": 0.1159091,
                "tempo": 120.0
            },
            {
                "start_time": 18.7545455,
                "end_time": 18.8727273,
                "pitch": 62,
                "velocity": 51,
                "duration": 0.1181818,
                "tempo": 120.0
            },
            {
                "start_time": 18.8727273,
                "end_time": 18.9886364,
                "pitch": 57,
                "velocity": 51,
                "duration": 0.1159091,
                "tempo": 120.0
            },
            {
                "start_time": 18.9886364,
                "end_time": 19.1068182,
                "pitch": 64,
                "velocity": 51,
                "duration": 0.1181818,
                "tempo": 120.0
            },
            {
                "start_time": 19.1068182,
                "end_time": 19.2386364,
                "pitch": 61,
                "velocity": 51,
                "duration": 0.1318182,
                "tempo": 120.0
            },
            {
                "start_time": 19.4795455,
                "end_time": 19.5977273,
                "pitch": 66,
                "velocity": 51,
                "duration": 0.1181818,
                "tempo": 120.0
            },
            {
                "start_time": 19.5977273,
                "end_time": 19.7181818,
                "pitch": 62,
                "velocity": 51,
                "duration": 0.1204545,
                "tempo": 120.0
            },
            {
                "start_time": 19.7181818,
                "end_time": 19.85,
                "pitch": 59,
                "velocity": 51,
                "duration": 0.1318182,
                "tempo": 120.0
            },
            {
                "start_time": 19.85,
                "end_time": 19.9636364,
                "pitch": 67,
                "velocity": 51,
                "duration": 0.1136364,
                "tempo": 120.0
            },
            {
                "start_time": 19.9636364,
                "end_time": 20.0795455,
                "pitch": 64,
                "velocity": 51,
                "duration": 0.1159091,
                "tempo": 120.0
            },
            {
                "start_time": 20.0795455,
                "end_time": 20.1954545,
                "pitch": 59,
                "velocity": 51,
                "duration": 0.1159091,
                "tempo": 120.0
            },
            {
                "start_time": 20.1954545,
                "end_time": 20.3113636,
                "pitch": 66,
                "velocity": 51,
                "duration": 0.1159091,
                "tempo": 120.0
            },
            {
                "start_time": 20.3113636,
                "end_time": 20.4477273,
                "pitch": 62,
                "velocity": 51,
                "duration": 0.1363636,
                "tempo": 120.0
            },
            {
                "start_time": 20.4477273,
                "end_time": 20.5636364,
                "pitch": 59,
                "velocity": 51,
                "duration": 0.1159091,
                "tempo": 120.0
            },
            {
                "start_time": 20.5636364,
                "end_time": 20.6818182,
                "pitch": 67,
                "velocity": 51,
                "duration": 0.1181818,
                "tempo": 120.0
            },
            {
                "start_time": 20.6818182,
                "end_time": 20.8,
                "pitch": 64,
                "velocity": 51,
                "duration": 0.1181818,
                "tempo": 120.0
            },
            {
                "start_time": 20.8,
                "end_time": 20.9181818,
                "pitch": 59,
                "velocity": 51,
                "duration": 0.1181818,
                "tempo": 120.0
            },
            {
                "start_time": 20.9181818,
                "end_time": 21.0522727,
                "pitch": 66,
                "velocity": 51,
                "duration": 0.1340909,
                "tempo": 120.0
            },
            {
                "start_time": 21.0522727,
                "end_time": 21.1704545,
                "pitch": 62,
                "velocity": 51,
                "duration": 0.1181818,
                "tempo": 120.0
            },
            {
                "start_time": 21.4090909,
                "end_time": 21.5295455,
                "pitch": 66,
                "velocity": 51,
                "duration": 0.1204545,
                "tempo": 120.0
            },
            {
                "start_time": 21.5295455,
                "end_time": 21.6659091,
                "pitch": 62,
                "velocity": 51,
                "duration": 0.1363636,
                "tempo": 120.0
            },
            {
                "start_time": 21.6659091,
                "end_time": 21.7840909,
                "pitch": 59,
                "velocity": 51,
                "duration": 0.1181818,
                "tempo": 120.0
            },
            {
                "start_time": 21.7840909,
                "end_time": 21.9022727,
                "pitch": 67,
                "velocity": 51,
                "duration": 0.1181818,
                "tempo": 120.0
            },
            {
                "start_time": 21.9022727,
                "end_time": 22.0181818,
                "pitch": 64,
                "velocity": 51,
                "duration": 0.1159091,
                "tempo": 120.0
            },
            {
                "start_time": 22.0181818,
                "end_time": 22.1363636,
                "pitch": 59,
                "velocity": 51,
                "duration": 0.1181818,
                "tempo": 120.0
            },
            {
                "start_time": 22.1363636,
                "end_time": 22.2681818,
                "pitch": 66,
                "velocity": 51,
                "duration": 0.1318182,
                "tempo": 120.0
            },
            {
                "start_time": 22.2681818,
                "end_time": 22.3840909,
                "pitch": 62,
                "velocity": 51,
                "duration": 0.1159091,
                "tempo": 120.0
            },
            {
                "start_time": 22.3840909,
                "end_time": 22.4977273,
                "pitch": 59,
                "velocity": 51,
                "duration": 0.1136364,
                "tempo": 120.0
            },
            {
                "start_time": 22.4977273,
                "end_time": 22.6136364,
                "pitch": 67,
                "velocity": 51,
                "duration": 0.1159091,
                "tempo": 120.0
            },
            {
                "start_time": 22.6136364,
                "end_time": 22.7295455,
                "pitch": 64,
                "velocity": 51,
                "duration": 0.1159091,
                "tempo": 120.0
            },
            {
                "start_time": 22.7295455,
                "end_time": 22.8636364,
                "pitch": 59,
                "velocity": 51,
                "duration": 0.1340909,
                "tempo": 120.0
            },
            {
                "start_time": 22.8636364,
                "end_time": 22.9795455,
                "pitch": 66,
                "velocity": 51,
                "duration": 0.1159091,
                "tempo": 120.0
            },
            {
                "start_time": 22.9795455,
                "end_time": 23.0977273,
                "pitch": 62,
                "velocity": 51,
                "duration": 0.1181818,
                "tempo": 120.0
            },
            {
                "start_time": 23.3318182,
                "end_time": 23.4659091,
                "pitch": 62,
                "velocity": 51,
                "duration": 0.1340909,
                "tempo": 120.0
            },
            {
                "start_time": 23.4681818,
                "end_time": 23.5840909,
                "pitch": 58,
                "velocity": 51,
                "duration": 0.1159091,
                "tempo": 120.0
            },
            {
                "start_time": 23.5840909,
                "end_time": 23.7045455,
                "pitch": 55,
                "velocity": 51,
                "duration": 0.1204545,
                "tempo": 120.0
            },
            {
                "start_time": 23.7045455,
                "end_time": 23.825,
                "pitch": 64,
                "velocity": 51,
                "duration": 0.1204545,
                "tempo": 120.0
            },
            {
                "start_time": 23.825,
                "end_time": 23.9431818,
                "pitch": 60,
                "velocity": 51,
                "duration": 0.1181818,
                "tempo": 120.0
            },
            {
                "start_time": 23.9431818,
                "end_time": 24.0795455,
                "pitch": 55,
                "velocity": 51,
                "duration": 0.1363636,
                "tempo": 120.0
            },
            {
                "start_time": 24.0818182,
                "end_time": 24.1977273,
                "pitch": 65,
                "velocity": 51,
                "duration": 0.1159091,
                "tempo": 120.0
            },
            {
                "start_time": 24.1977273,
                "end_time": 24.3159091,
                "pitch": 62,
                "velocity": 51,
                "duration": 0.1181818,
                "tempo": 120.0
            },
            {
                "start_time": 24.3159091,
                "end_time": 24.4340909,
                "pitch": 55,
                "velocity": 51,
                "duration": 0.1181818,
                "tempo": 120.0
            },
            {
                "start_time": 24.4340909,
                "end_time": 24.5522727,
                "pitch": 64,
                "velocity": 51,
                "duration": 0.1181818,
                "tempo": 120.0
            },
            {
                "start_time": 24.5522727,
                "end_time": 24.6818182,
                "pitch": 60,
                "velocity": 51,
                "duration": 0.1295455,
                "tempo": 120.0
            },
            {
                "start_time": 24.6840909,
                "end_time": 24.7977273,
                "pitch": 55,
                "velocity": 51,
                "duration": 0.1136364,
                "tempo": 120.0
            },
            {
                "start_time": 24.7977273,
                "end_time": 24.9136364,
                "pitch": 62,
                "velocity": 51,
                "duration": 0.1159091,
                "tempo": 120.0
            },
            {
                "start_time": 24.9136364,
                "end_time": 25.0272727,
                "pitch": 58,
                "velocity": 51,
                "duration": 0.1136364,
                "tempo": 120.0
            },
            {
                "start_time": 25.2795455,
                "end_time": 25.3977273,
                "pitch": 62,
                "velocity": 51,
                "duration": 0.1181818,
                "tempo": 120.0
            },
            {
                "start_time": 25.3977273,
                "end_time": 25.5159091,
                "pitch": 58,
                "velocity": 51,
                "duration": 0.1181818,
                "tempo": 120.0
            },
            {
                "start_time": 25.5159091,
                "end_time": 25.6363636,
                "pitch": 55,
                "velocity": 51,
                "duration": 0.1204545,
                "tempo": 120.0
            },
            {
                "start_time": 25.6363636,
                "end_time": 25.7545455,
                "pitch": 64,
                "velocity": 51,
                "duration": 0.1181818,
                "tempo": 120.0
            },
            {
                "start_time": 25.7545455,
                "end_time": 25.8909091,
                "pitch": 60,
                "velocity": 51,
                "duration": 0.1363636,
                "tempo": 120.0
            },
            {
                "start_time": 25.8931818,
                "end_time": 26.0113636,
                "pitch": 55,
                "velocity": 51,
                "duration": 0.1181818,
                "tempo": 120.0
            },
            {
                "start_time": 26.0113636,
                "end_time": 26.1295455,
                "pitch": 65,
                "velocity": 51,
                "duration": 0.1181818,
                "tempo": 120.0
            },
            {
                "start_time": 26.1295455,
                "end_time": 26.2477273,
                "pitch": 62,
                "velocity": 51,
                "duration": 0.1181818,
                "tempo": 120.0
            },
            {
                "start_time": 26.2477273,
                "end_time": 26.3636364,
                "pitch": 55,
                "velocity": 51,
                "duration": 0.1159091,
                "tempo": 120.0
            },
            {
                "start_time": 26.3659091,
                "end_time": 26.5,
                "pitch": 64,
                "velocity": 51,
                "duration": 0.1340909,
                "tempo": 120.0
            },
            {
                "start_time": 26.5,
                "end_time": 26.6181818,
                "pitch": 60,
                "velocity": 51,
                "duration": 0.1181818,
                "tempo": 120.0
            },
            {
                "start_time": 26.6181818,
                "end_time": 26.7386364,
                "pitch": 55,
                "velocity": 51,
                "duration": 0.1204545,
                "tempo": 120.0
            },
            {
                "start_time": 26.7386364,
                "end_time": 26.8590909,
                "pitch": 62,
                "velocity": 51,
                "duration": 0.1204545,
                "tempo": 120.0
            },
            {
                "start_time": 26.8590909,
                "end_time": 26.9772727,
                "pitch": 58,
                "velocity": 51,
                "duration": 0.1181818,
                "tempo": 120.0
            },
            {
                "start_time": 27.2181818,
                "end_time": 27.3295455,
                "pitch": 64,
                "velocity": 51,
                "duration": 0.1113636,
                "tempo": 120.0
            },
            {
                "start_time": 27.3318182,
                "end_time": 27.4431818,
                "pitch": 60,
                "velocity": 51,
                "duration": 0.1113636,
                "tempo": 120.0
            },
            {
                "start_time": 27.4431818,
                "end_time": 27.5636364,
                "pitch": 57,
                "velocity": 51,
                "duration": 0.1204545,
                "tempo": 120.0
            },
            {
                "start_time": 27.5636364,
                "end_time": 27.7,
                "pitch": 65,
                "velocity": 51,
                "duration": 0.1363636,
                "tempo": 120.0
            },
            {
                "start_time": 27.7,
                "end_time": 27.8181818,
                "pitch": 62,
                "velocity": 51,
                "duration": 0.1181818,
                "tempo": 120.0
            },
            {
                "start_time": 27.8181818,
                "end_time": 27.9386364,
                "pitch": 57,
                "velocity": 51,
                "duration": 0.1204545,
                "tempo": 120.0
            },
            {
                "start_time": 27.9386364,
                "end_time": 28.0568182,
                "pitch": 67,
                "velocity": 51,
                "duration": 0.1181818,
                "tempo": 120.0
            },
            {
                "start_time": 28.0568182,
                "end_time": 28.175,
                "pitch": 64,
                "velocity": 51,
                "duration": 0.1181818,
                "tempo": 120.0
            },
            {
                "start_time": 28.175,
                "end_time": 28.3090909,
                "pitch": 57,
                "velocity": 51,
                "duration": 0.1340909,
                "tempo": 120.0
            },
            {
                "start_time": 28.3090909,
                "end_time": 28.4272727,
                "pitch": 65,
                "velocity": 51,
                "duration": 0.1181818,
                "tempo": 120.0
            },
            {
                "start_time": 28.4272727,
                "end_time": 28.5454545,
                "pitch": 62,
                "velocity": 51,
                "duration": 0.1181818,
                "tempo": 120.0
            },
            {
                "start_time": 28.5454545,
                "end_time": 28.6659091,
                "pitch": 57,
                "velocity": 51,
                "duration": 0.1204545,
                "tempo": 120.0
            },
            {
                "start_time": 28.6659091,
                "end_time": 28.7863636,
                "pitch": 64,
                "velocity": 51,
                "duration": 0.1204545,
                "tempo": 120.0
            },
            {
                "start_time": 28.7863636,
                "end_time": 28.9227273,
                "pitch": 60,
                "velocity": 51,
                "duration": 0.1363636,
                "tempo": 120.0
            },
            {
                "start_time": 29.1590909,
                "end_time": 29.275,
                "pitch": 64,
                "velocity": 51,
                "duration": 0.1159091,
                "tempo": 120.0
            },
            {
                "start_time": 29.275,
                "end_time": 29.3931818,
                "pitch": 60,
                "velocity": 51,
                "duration": 0.1181818,
                "tempo": 120.0
            },
            {
                "start_time": 29.3931818,
                "end_time": 29.525,
                "pitch": 57,
                "velocity": 51,
                "duration": 0.1318182,
                "tempo": 120.0
            },
            {
                "start_time": 29.525,
                "end_time": 29.6386364,
                "pitch": 65,
                "velocity": 51,
                "duration": 0.1136364,
                "tempo": 120.0
            },
            {
                "start_time": 29.6409091,
                "end_time": 29.7545455,
                "pitch": 62,
                "velocity": 51,
                "duration": 0.1136364,
                "tempo": 120.0
            },
            {
                "start_time": 29.7545455,
                "end_time": 29.8704545,
                "pitch": 57,
                "velocity": 51,
                "duration": 0.1159091,
                "tempo": 120.0
            },
            {
                "start_time": 29.8704545,
                "end_time": 29.9863636,
                "pitch": 67,
                "velocity": 51,
                "duration": 0.1159091,
                "tempo": 120.0
            },
            {
                "start_time": 29.9886364,
                "end_time": 30.1227273,
                "pitch": 64,
                "velocity": 51,
                "duration": 0.1340909,
                "tempo": 120.0
            },
            {
                "start_time": 30.1227273,
                "end_time": 30.2386364,
                "pitch": 57,
                "velocity": 51,
                "duration": 0.1159091,
                "tempo": 120.0
            },
            {
                "start_time": 30.2409091,
                "end_time": 30.3568182,
                "pitch": 65,
                "velocity": 51,
                "duration": 0.1159091,
                "tempo": 120.0
            },
            {
                "start_time": 30.3568182,
                "end_time": 30.4772727,
                "pitch": 62,
                "velocity": 51,
                "duration": 0.1204545,
                "tempo": 120.0
            },
            {
                "start_time": 30.4772727,
                "end_time": 30.5977273,
                "pitch": 57,
                "velocity": 51,
                "duration": 0.1204545,
                "tempo": 120.0
            },
            {
                "start_time": 30.5977273,
                "end_time": 30.7340909,
                "pitch": 64,
                "velocity": 51,
                "duration": 0.1363636,
                "tempo": 120.0
            },
            {
                "start_time": 30.7340909,
                "end_time": 30.8545455,
                "pitch": 60,
                "velocity": 51,
                "duration": 0.1204545,
                "tempo": 120.0
            }
        ],
        "Acoustic Bass": [
            {
                "start_time": 0.0045455,
                "end_time": 0.1977273,
                "pitch": 36,
                "velocity": 80,
                "duration": 0.1931818,
                "tempo": 120.0
            },
            {
                "start_time": 0.1977273,
                "end_time": 0.3931818,
                "pitch": 36,
                "velocity": 80,
                "duration": 0.1954545,
                "tempo": 120.0
            },
            {
                "start_time": 0.3931818,
                "end_time": 0.4727273,
                "pitch": 45,
                "velocity": 80,
                "duration": 0.0795455,
                "tempo": 120.0
            },
            {
                "start_time": 0.4727273,
                "end_time": 0.4886364,
                "pitch": 47,
                "velocity": 80,
                "duration": 0.0159091,
                "tempo": 120.0
            },
            {
                "start_time": 0.4886364,
                "end_time": 0.6386364,
                "pitch": 48,
                "velocity": 80,
                "duration": 0.15,
                "tempo": 120.0
            },
            {
                "start_time": 0.4886364,
                "end_time": 0.7545455,
                "pitch": 36,
                "velocity": 80,
                "duration": 0.2659091,
                "tempo": 120.0
            },
            {
                "start_time": 0.6386364,
                "end_time": 0.7545455,
                "pitch": 36,
                "velocity": 80,
                "duration": 0.1159091,
                "tempo": 120.0
            },
            {
                "start_time": 0.7545455,
                "end_time": 0.9863636,
                "pitch": 36,
                "velocity": 80,
                "duration": 0.2318182,
                "tempo": 120.0
            },
            {
                "start_time": 0.9863636,
                "end_time": 1.2363636,
                "pitch": 36,
                "velocity": 80,
                "duration": 0.25,
                "tempo": 120.0
            },
            {
                "start_time": 1.2363636,
                "end_time": 1.4727273,
                "pitch": 36,
                "velocity": 80,
                "duration": 0.2363636,
                "tempo": 120.0
            },
            {
                "start_time": 1.4727273,
                "end_time": 1.5909091,
                "pitch": 36,
                "velocity": 80,
                "duration": 0.1181818,
                "tempo": 120.0
            },
            {
                "start_time": 1.5931818,
                "end_time": 1.675,
                "pitch": 45,
                "velocity": 80,
                "duration": 0.0818182,
                "tempo": 120.0
            },
            {
                "start_time": 1.675,
                "end_time": 1.6931818,
                "pitch": 47,
                "velocity": 80,
                "duration": 0.0181818,
                "tempo": 120.0
            },
            {
                "start_time": 1.6931818,
                "end_time": 1.85,
                "pitch": 48,
                "velocity": 80,
                "duration": 0.1568182,
                "tempo": 120.0
            },
            {
                "start_time": 1.6931818,
                "end_time": 2.0818182,
                "pitch": 36,
                "velocity": 80,
                "duration": 0.3886364,
                "tempo": 120.0
            },
            {
                "start_time": 1.85,
                "end_time": 2.0818182,
                "pitch": 36,
                "velocity": 80,
                "duration": 0.2318182,
                "tempo": 120.0
            },
            {
                "start_time": 2.0818182,
                "end_time": 2.3318182,
                "pitch": 36,
                "velocity": 80,
                "duration": 0.25,
                "tempo": 120.0
            },
            {
                "start_time": 2.3318182,
                "end_time": 2.3977273,
                "pitch": 45,
                "velocity": 80,
                "duration": 0.0659091,
                "tempo": 120.0
            },
            {
                "start_time": 2.3977273,
                "end_time": 2.4318182,
                "pitch": 47,
                "velocity": 80,
                "duration": 0.0340909,
                "tempo": 120.0
            },
            {
                "start_time": 2.4318182,
                "end_time": 2.5704545,
                "pitch": 48,
                "velocity": 80,
                "duration": 0.1386364,
                "tempo": 120.0
            },
            {
                "start_time": 2.4318182,
                "end_time": 2.6909091,
                "pitch": 36,
                "velocity": 80,
                "duration": 0.2590909,
                "tempo": 120.0
            },
            {
                "start_time": 2.5727273,
                "end_time": 2.6909091,
                "pitch": 36,
                "velocity": 80,
                "duration": 0.1181818,
                "tempo": 120.0
            },
            {
                "start_time": 2.6909091,
                "end_time": 2.9386364,
                "pitch": 36,
                "velocity": 80,
                "duration": 0.2477273,
                "tempo": 120.0
            },
            {
                "start_time": 2.9386364,
                "end_time": 3.1636364,
                "pitch": 36,
                "velocity": 80,
                "duration": 0.225,
                "tempo": 120.0
            },
            {
                "start_time": 3.1636364,
                "end_time": 3.275,
                "pitch": 36,
                "velocity": 80,
                "duration": 0.1113636,
                "tempo": 120.0
            },
            {
                "start_time": 3.2772727,
                "end_time": 3.3590909,
                "pitch": 45,
                "velocity": 80,
                "duration": 0.0818182,
                "tempo": 120.0
            },
            {
                "start_time": 3.3590909,
                "end_time": 3.3772727,
                "pitch": 47,
                "velocity": 80,
                "duration": 0.0181818,
                "tempo": 120.0
            },
            {
                "start_time": 3.3772727,
                "end_time": 3.5318182,
                "pitch": 48,
                "velocity": 80,
                "duration": 0.1545455,
                "tempo": 120.0
            },
            {
                "start_time": 3.5318182,
                "end_time": 3.5977273,
                "pitch": 45,
                "velocity": 80,
                "duration": 0.0659091,
                "tempo": 120.0
            },
            {
                "start_time": 3.3772727,
                "end_time": 3.6318182,
                "pitch": 36,
                "velocity": 80,
                "duration": 0.2545455,
                "tempo": 120.0
            },
            {
                "start_time": 3.5977273,
                "end_time": 3.6318182,
                "pitch": 47,
                "velocity": 80,
                "duration": 0.0340909,
                "tempo": 120.0
            },
            {
                "start_time": 3.6318182,
                "end_time": 3.7727273,
                "pitch": 48,
                "velocity": 80,
                "duration": 0.1409091,
                "tempo": 120.0
            },
            {
                "start_time": 3.7727273,
                "end_time": 4.0045455,
                "pitch": 33,
                "velocity": 80,
                "duration": 0.2318182,
                "tempo": 120.0
            },
            {
                "start_time": 4.0045455,
                "end_time": 4.2568182,
                "pitch": 33,
                "velocity": 80,
                "duration": 0.2522727,
                "tempo": 120.0
            },
            {
                "start_time": 4.2568182,
                "end_time": 4.3045455,
                "pitch": 42,
                "velocity": 80,
                "duration": 0.0477273,
                "tempo": 120.0
            },
            {
                "start_time": 4.3045455,
                "end_time": 4.4954545,
                "pitch": 44,
                "velocity": 80,
                "duration": 0.1909091,
                "tempo": 120.0
            },
            {
                "start_time": 4.4954545,
                "end_time": 4.6136364,
                "pitch": 33,
                "velocity": 80,
                "duration": 0.1181818,
                "tempo": 120.0
            },
            {
                "start_time": 4.6136364,
                "end_time": 4.8681818,
                "pitch": 33,
                "velocity": 80,
                "duration": 0.2545455,
                "tempo": 120.0
            },
            {
                "start_time": 4.8681818,
                "end_time": 5.1022727,
                "pitch": 33,
                "velocity": 80,
                "duration": 0.2340909,
                "tempo": 120.0
            },
            {
                "start_time": 5.1022727,
                "end_time": 5.35,
                "pitch": 33,
                "velocity": 80,
                "duration": 0.2477273,
                "tempo": 120.0
            },
            {
                "start_time": 5.35,
                "end_time": 5.4659091,
                "pitch": 33,
                "velocity": 80,
                "duration": 0.1159091,
                "tempo": 120.0
            },
            {
                "start_time": 5.4659091,
                "end_time": 5.5113636,
                "pitch": 42,
                "velocity": 80,
                "duration": 0.0454545,
                "tempo": 120.0
            },
            {
                "start_time": 5.5113636,
                "end_time": 5.6954545,
                "pitch": 44,
                "velocity": 80,
                "duration": 0.1840909,
                "tempo": 120.0
            },
            {
                "start_time": 5.6954545,
                "end_time": 5.9454545,
                "pitch": 33,
                "velocity": 80,
                "duration": 0.25,
                "tempo": 120.0
            },
            {
                "start_time": 5.9454545,
                "end_time": 6.1795455,
                "pitch": 33,
                "velocity": 80,
                "duration": 0.2340909,
                "tempo": 120.0
            },
            {
                "start_time": 6.1795455,
                "end_time": 6.2454545,
                "pitch": 42,
                "velocity": 80,
                "duration": 0.0659091,
                "tempo": 120.0
            },
            {
                "start_time": 6.2454545,
                "end_time": 6.4181818,
                "pitch": 44,
                "velocity": 80,
                "duration": 0.1727273,
                "tempo": 120.0
            },
            {
                "start_time": 6.4181818,
                "end_time": 6.5545455,
                "pitch": 33,
                "velocity": 80,
                "duration": 0.1363636,
                "tempo": 120.0
            },
            {
                "start_time": 6.5545455,
                "end_time": 6.7931818,
                "pitch": 33,
                "velocity": 80,
                "duration": 0.2386364,
                "tempo": 120.0
            },
            {
                "start_time": 6.7931818,
                "end_time": 7.0272727,
                "pitch": 33,
                "velocity": 80,
                "duration": 0.2340909,
                "tempo": 120.0
            },
            {
                "start_time": 7.0272727,
                "end_time": 7.1613636,
                "pitch": 33,
                "velocity": 80,
                "duration": 0.1340909,
                "tempo": 120.0
            },
            {
                "start_time": 7.1636364,
                "end_time": 7.2090909,
                "pitch": 42,
                "velocity": 80,
                "duration": 0.0454545,
                "tempo": 120.0
            },
            {
                "start_time": 7.2090909,
                "end_time": 7.3954545,
                "pitch": 44,
                "velocity": 80,
                "duration": 0.1863636,
                "tempo": 120.0
            },
            {
                "start_time": 7.3954545,
                "end_time": 7.4613636,
                "pitch": 42,
                "velocity": 80,
                "duration": 0.0659091,
                "tempo": 120.0
            },
            {
                "start_time": 7.4613636,
                "end_time": 7.6295455,
                "pitch": 44,
                "velocity": 80,
                "duration": 0.1681818,
                "tempo": 120.0
            },
            {
                "start_time": 7.6295455,
                "end_time": 7.875,
                "pitch": 29,
                "velocity": 80,
                "duration": 0.2454545,
                "tempo": 120.0
            },
            {
                "start_time": 7.875,
                "end_time": 8.1068182,
                "pitch": 29,
                "velocity": 80,
                "duration": 0.2318182,
                "tempo": 120.0
            },
            {
                "start_time": 8.1068182,
                "end_time": 8.1704545,
                "pitch": 38,
                "velocity": 80,
                "duration": 0.0636364,
                "tempo": 120.0
            },
            {
                "start_time": 8.1704545,
                "end_time": 8.3590909,
                "pitch": 41,
                "velocity": 80,
                "duration": 0.1886364,
                "tempo": 120.0
            },
            {
                "start_time": 8.3590909,
                "end_time": 8.475,
                "pitch": 29,
                "velocity": 80,
                "duration": 0.1159091,
                "tempo": 120.0
            },
            {
                "start_time": 8.475,
                "end_time": 8.7136364,
                "pitch": 29,
                "velocity": 80,
                "duration": 0.2386364,
                "tempo": 120.0
            },
            {
                "start_time": 8.7136364,
                "end_time": 8.9704545,
                "pitch": 29,
                "velocity": 80,
                "duration": 0.2568182,
                "tempo": 120.0
            },
            {
                "start_time": 8.9704545,
                "end_time": 9.2068182,
                "pitch": 29,
                "velocity": 80,
                "duration": 0.2363636,
                "tempo": 120.0
            },
            {
                "start_time": 9.2068182,
                "end_time": 9.325,
                "pitch": 29,
                "velocity": 80,
                "duration": 0.1181818,
                "tempo": 120.0
            },
            {
                "start_time": 9.325,
                "end_time": 9.3909091,
                "pitch": 38,
                "velocity": 80,
                "duration": 0.0659091,
                "tempo": 120.0
            },
            {
                "start_time": 9.3909091,
                "end_time": 9.5772727,
                "pitch": 41,
                "velocity": 80,
                "duration": 0.1863636,
                "tempo": 120.0
            },
            {
                "start_time": 9.5772727,
                "end_time": 9.8113636,
                "pitch": 29,
                "velocity": 80,
                "duration": 0.2340909,
                "tempo": 120.0
            },
            {
                "start_time": 9.8113636,
                "end_time": 10.0454545,
                "pitch": 29,
                "velocity": 80,
                "duration": 0.2340909,
                "tempo": 120.0
            },
            {
                "start_time": 10.0454545,
                "end_time": 10.1068182,
                "pitch": 38,
                "velocity": 80,
                "duration": 0.0613636,
                "tempo": 120.0
            },
            {
                "start_time": 10.1068182,
                "end_time": 10.2909091,
                "pitch": 41,
                "velocity": 80,
                "duration": 0.1840909,
                "tempo": 120.0
            },
            {
                "start_time": 10.2909091,
                "end_time": 10.4045455,
                "pitch": 29,
                "velocity": 80,
                "duration": 0.1136364,
                "tempo": 120.0
            },
            {
                "start_time": 10.4068182,
                "end_time": 10.6409091,
                "pitch": 29,
                "velocity": 80,
                "duration": 0.2340909,
                "tempo": 120.0
            },
            {
                "start_time": 10.6409091,
                "end_time": 10.8954545,
                "pitch": 29,
                "velocity": 80,
                "duration": 0.2545455,
                "tempo": 120.0
            },
            {
                "start_time": 10.8977273,
                "end_time": 11.0159091,
                "pitch": 29,
                "velocity": 80,
                "duration": 0.1181818,
                "tempo": 120.0
            },
            {
                "start_time": 11.0159091,
                "end_time": 11.0818182,
                "pitch": 38,
                "velocity": 80,
                "duration": 0.0659091,
                "tempo": 120.0
            },
            {
                "start_time": 11.0818182,
                "end_time": 11.2522727,
                "pitch": 41,
                "velocity": 80,
                "duration": 0.1704545,
                "tempo": 120.0
            },
            {
                "start_time": 11.2522727,
                "end_time": 11.3159091,
                "pitch": 38,
                "velocity": 80,
                "duration": 0.0636364,
                "tempo": 120.0
            },
            {
                "start_time": 11.3159091,
                "end_time": 11.5045455,
                "pitch": 41,
                "velocity": 80,
                "duration": 0.1886364,
                "tempo": 120.0
            },
            {
                "start_time": 11.5045455,
                "end_time": 11.7386364,
                "pitch": 31,
                "velocity": 80,
                "duration": 0.2340909,
                "tempo": 120.0
            },
            {
                "start_time": 11.7386364,
                "end_time": 11.9886364,
                "pitch": 31,
                "velocity": 80,
                "duration": 0.25,
                "tempo": 120.0
            },
            {
                "start_time": 11.9886364,
                "end_time": 12.0363636,
                "pitch": 40,
                "velocity": 80,
                "duration": 0.0477273,
                "tempo": 120.0
            },
            {
                "start_time": 12.0363636,
                "end_time": 12.2272727,
                "pitch": 43,
                "velocity": 80,
                "duration": 0.1909091,
                "tempo": 120.0
            },
            {
                "start_time": 12.2272727,
                "end_time": 12.3477273,
                "pitch": 31,
                "velocity": 80,
                "duration": 0.1204545,
                "tempo": 120.0
            },
            {
                "start_time": 12.3477273,
                "end_time": 12.5977273,
                "pitch": 31,
                "velocity": 80,
                "duration": 0.25,
                "tempo": 120.0
            },
            {
                "start_time": 12.5977273,
                "end_time": 12.8272727,
                "pitch": 31,
                "velocity": 80,
                "duration": 0.2295455,
                "tempo": 120.0
            },
            {
                "start_time": 12.8272727,
                "end_time": 13.0613636,
                "pitch": 31,
                "velocity": 80,
                "duration": 0.2340909,
                "tempo": 120.0
            },
            {
                "start_time": 13.0613636,
                "end_time": 13.1954545,
                "pitch": 31,
                "velocity": 80,
                "duration": 0.1340909,
                "tempo": 120.0
            },
            {
                "start_time": 13.1954545,
                "end_time": 13.2431818,
                "pitch": 40,
                "velocity": 80,
                "duration": 0.0477273,
                "tempo": 120.0
            },
            {
                "start_time": 13.2431818,
                "end_time": 13.4318182,
                "pitch": 43,
                "velocity": 80,
                "duration": 0.1886364,
                "tempo": 120.0
            },
            {
                "start_time": 13.4318182,
                "end_time": 13.6636364,
                "pitch": 31,
                "velocity": 80,
                "duration": 0.2318182,
                "tempo": 120.0
            },
            {
                "start_time": 13.6636364,
                "end_time": 13.9159091,
                "pitch": 31,
                "velocity": 80,
                "duration": 0.2522727,
                "tempo": 120.0
            },
            {
                "start_time": 13.9159091,
                "end_time": 13.9636364,
                "pitch": 40,
                "velocity": 80,
                "duration": 0.0477273,
                "tempo": 120.0
            },
            {
                "start_time": 13.9636364,
                "end_time": 14.1545455,
                "pitch": 43,
                "velocity": 80,
                "duration": 0.1909091,
                "tempo": 120.0
            },
            {
                "start_time": 14.1545455,
                "end_time": 14.2727273,
                "pitch": 31,
                "velocity": 80,
                "duration": 0.1181818,
                "tempo": 120.0
            },
            {
                "start_time": 14.275,
                "end_time": 14.5272727,
                "pitch": 31,
                "velocity": 80,
                "duration": 0.2522727,
                "tempo": 120.0
            },
            {
                "start_time": 14.5272727,
                "end_time": 14.7636364,
                "pitch": 31,
                "velocity": 80,
                "duration": 0.2363636,
                "tempo": 120.0
            },
            {
                "start_time": 14.7636364,
                "end_time": 14.8818182,
                "pitch": 31,
                "velocity": 80,
                "duration": 0.1181818,
                "tempo": 120.0
            },
            {
                "start_time": 14.8818182,
                "end_time": 14.9454545,
                "pitch": 40,
                "velocity": 80,
                "duration": 0.0636364,
                "tempo": 120.0
            },
            {
                "start_time": 14.9454545,
                "end_time": 15.1272727,
                "pitch": 43,
                "velocity": 80,
                "duration": 0.1818182,
                "tempo": 120.0
            },
            {
                "start_time": 15.1272727,
                "end_time": 15.1772727,
                "pitch": 40,
                "velocity": 80,
                "duration": 0.05,
                "tempo": 120.0
            },
            {
                "start_time": 15.1772727,
                "end_time": 15.3590909,
                "pitch": 43,
                "velocity": 80,
                "duration": 0.1818182,
                "tempo": 120.0
            },
            {
                "start_time": 15.3590909,
                "end_time": 15.6181818,
                "pitch": 38,
                "velocity": 80,
                "duration": 0.2590909,
                "tempo": 120.0
            },
            {
                "start_time": 15.6181818,
                "end_time": 15.8613636,
                "pitch": 38,
                "velocity": 80,
                "duration": 0.2431818,
                "tempo": 120.0
            },
            {
                "start_time": 3.6318182,
                "end_time": 15.8909091,
                "pitch": 36,
                "velocity": 80,
                "duration": 12.2590909,
                "tempo": 120.0
            },
            {
                "start_time": 15.8613636,
                "end_time": 15.8909091,
                "pitch": 47,
                "velocity": 80,
                "duration": 0.0295455,
                "tempo": 120.0
            },
            {
                "start_time": 15.8909091,
                "end_time": 16.0909091,
                "pitch": 48,
                "velocity": 80,
                "duration": 0.2,
                "tempo": 120.0
            },
            {
                "start_time": 16.0909091,
                "end_time": 16.2227273,
                "pitch": 38,
                "velocity": 80,
                "duration": 0.1318182,
                "tempo": 120.0
            },
            {
                "start_time": 16.2227273,
                "end_time": 16.4545455,
                "pitch": 38,
                "velocity": 80,
                "duration": 0.2318182,
                "tempo": 120.0
            },
            {
                "start_time": 16.4545455,
                "end_time": 16.6909091,
                "pitch": 38,
                "velocity": 80,
                "duration": 0.2363636,
                "tempo": 120.0
            },
            {
                "start_time": 16.6909091,
                "end_time": 16.9431818,
                "pitch": 38,
                "velocity": 80,
                "duration": 0.2522727,
                "tempo": 120.0
            },
            {
                "start_time": 16.9431818,
                "end_time": 17.0613636,
                "pitch": 38,
                "velocity": 80,
                "duration": 0.1181818,
                "tempo": 120.0
            },
            {
                "start_time": 15.8909091,
                "end_time": 17.0931818,
                "pitch": 36,
                "velocity": 80,
                "duration": 1.2022727,
                "tempo": 120.0
            },
            {
                "start_time": 17.0613636,
                "end_time": 17.0931818,
                "pitch": 47,
                "velocity": 80,
                "duration": 0.0318182,
                "tempo": 120.0
            },
            {
                "start_time": 17.0931818,
                "end_time": 17.2977273,
                "pitch": 48,
                "velocity": 80,
                "duration": 0.2045455,
                "tempo": 120.0
            },
            {
                "start_time": 17.2977273,
                "end_time": 17.5431818,
                "pitch": 38,
                "velocity": 80,
                "duration": 0.2454545,
                "tempo": 120.0
            },
            {
                "start_time": 17.5431818,
                "end_time": 17.7727273,
                "pitch": 38,
                "velocity": 80,
                "duration": 0.2295455,
                "tempo": 120.0
            },
            {
                "start_time": 17.0931818,
                "end_time": 17.8204545,
                "pitch": 36,
                "velocity": 80,
                "duration": 0.7272727,
                "tempo": 120.0
            },
            {
                "start_time": 17.7727273,
                "end_time": 17.8204545,
                "pitch": 47,
                "velocity": 80,
                "duration": 0.0477273,
                "tempo": 120.0
            },
            {
                "start_time": 17.8204545,
                "end_time": 18.0295455,
                "pitch": 48,
                "velocity": 80,
                "duration": 0.2090909,
                "tempo": 120.0
            },
            {
                "start_time": 18.0295455,
                "end_time": 18.1477273,
                "pitch": 38,
                "velocity": 80,
                "duration": 0.1181818,
                "tempo": 120.0
            },
            {
                "start_time": 18.1477273,
                "end_time": 18.3863636,
                "pitch": 38,
                "velocity": 80,
                "duration": 0.2386364,
                "tempo": 120.0
            },
            {
                "start_time": 18.3863636,
                "end_time": 18.6386364,
                "pitch": 38,
                "velocity": 80,
                "duration": 0.2522727,
                "tempo": 120.0
            },
            {
                "start_time": 18.6386364,
                "end_time": 18.7568182,
                "pitch": 38,
                "velocity": 80,
                "duration": 0.1181818,
                "tempo": 120.0
            },
            {
                "start_time": 17.8204545,
                "end_time": 18.7863636,
                "pitch": 36,
                "velocity": 80,
                "duration": 0.9659091,
                "tempo": 120.0
            },
            {
                "start_time": 18.7568182,
                "end_time": 18.7863636,
                "pitch": 47,
                "velocity": 80,
                "duration": 0.0295455,
                "tempo": 120.0
            },
            {
                "start_time": 18.7863636,
                "end_time": 18.9886364,
                "pitch": 48,
                "velocity": 80,
                "duration": 0.2022727,
                "tempo": 120.0
            },
            {
                "start_time": 18.9886364,
                "end_time": 19.0363636,
                "pitch": 47,
                "velocity": 80,
                "duration": 0.0477273,
                "tempo": 120.0
            },
            {
                "start_time": 18.7863636,
                "end_time": 19.0386364,
                "pitch": 36,
                "velocity": 80,
                "duration": 0.2522727,
                "tempo": 120.0
            },
            {
                "start_time": 19.0363636,
                "end_time": 19.0386364,
                "pitch": 36,
                "velocity": 80,
                "duration": 0.0022727,
                "tempo": 120.0
            },
            {
                "start_time": 19.0386364,
                "end_time": 19.2409091,
                "pitch": 48,
                "velocity": 80,
                "duration": 0.2022727,
                "tempo": 120.0
            },
            {
                "start_time": 19.2409091,
                "end_time": 19.4795455,
                "pitch": 35,
                "velocity": 80,
                "duration": 0.2386364,
                "tempo": 120.0
            },
            {
                "start_time": 19.4795455,
                "end_time": 19.7181818,
                "pitch": 35,
                "velocity": 80,
                "duration": 0.2386364,
                "tempo": 120.0
            },
            {
                "start_time": 19.7181818,
                "end_time": 19.7818182,
                "pitch": 44,
                "velocity": 80,
                "duration": 0.0636364,
                "tempo": 120.0
            },
            {
                "start_time": 19.7818182,
                "end_time": 19.9659091,
                "pitch": 46,
                "velocity": 80,
                "duration": 0.1840909,
                "tempo": 120.0
            },
            {
                "start_time": 19.9659091,
                "end_time": 20.0795455,
                "pitch": 35,
                "velocity": 80,
                "duration": 0.1136364,
                "tempo": 120.0
            },
            {
                "start_time": 20.0795455,
                "end_time": 20.3136364,
                "pitch": 35,
                "velocity": 80,
                "duration": 0.2340909,
                "tempo": 120.0
            },
            {
                "start_time": 20.3136364,
                "end_time": 20.5659091,
                "pitch": 35,
                "velocity": 80,
                "duration": 0.2522727,
                "tempo": 120.0
            },
            {
                "start_time": 20.5659091,
                "end_time": 20.8,
                "pitch": 35,
                "velocity": 80,
                "duration": 0.2340909,
                "tempo": 120.0
            },
            {
                "start_time": 20.8,
                "end_time": 20.9181818,
                "pitch": 35,
                "velocity": 80,
                "duration": 0.1181818,
                "tempo": 120.0
            },
            {
                "start_time": 20.9181818,
                "end_time": 20.9840909,
                "pitch": 44,
                "velocity": 80,
                "duration": 0.0659091,
                "tempo": 120.0
            },
            {
                "start_time": 20.9840909,
                "end_time": 21.1704545,
                "pitch": 46,
                "velocity": 80,
                "duration": 0.1863636,
                "tempo": 120.0
            },
            {
                "start_time": 21.1704545,
                "end_time": 21.4090909,
                "pitch": 35,
                "velocity": 80,
                "duration": 0.2386364,
                "tempo": 120.0
            },
            {
                "start_time": 21.4090909,
                "end_time": 21.6659091,
                "pitch": 35,
                "velocity": 80,
                "duration": 0.2568182,
                "tempo": 120.0
            },
            {
                "start_time": 21.6659091,
                "end_time": 21.7136364,
                "pitch": 44,
                "velocity": 80,
                "duration": 0.0477273,
                "tempo": 120.0
            },
            {
                "start_time": 21.7136364,
                "end_time": 21.9022727,
                "pitch": 46,
                "velocity": 80,
                "duration": 0.1886364,
                "tempo": 120.0
            },
            {
                "start_time": 21.9022727,
                "end_time": 22.0204545,
                "pitch": 35,
                "velocity": 80,
                "duration": 0.1181818,
                "tempo": 120.0
            },
            {
                "start_time": 22.0204545,
                "end_time": 22.2681818,
                "pitch": 35,
                "velocity": 80,
                "duration": 0.2477273,
                "tempo": 120.0
            },
            {
                "start_time": 22.2681818,
                "end_time": 22.4977273,
                "pitch": 35,
                "velocity": 80,
                "duration": 0.2295455,
                "tempo": 120.0
            },
            {
                "start_time": 22.4977273,
                "end_time": 22.6136364,
                "pitch": 35,
                "velocity": 80,
                "duration": 0.1159091,
                "tempo": 120.0
            },
            {
                "start_time": 22.6136364,
                "end_time": 22.6772727,
                "pitch": 44,
                "velocity": 80,
                "duration": 0.0636364,
                "tempo": 120.0
            },
            {
                "start_time": 22.6772727,
                "end_time": 22.8636364,
                "pitch": 46,
                "velocity": 80,
                "duration": 0.1863636,
                "tempo": 120.0
            },
            {
                "start_time": 22.8636364,
                "end_time": 22.9113636,
                "pitch": 44,
                "velocity": 80,
                "duration": 0.0477273,
                "tempo": 120.0
            },
            {
                "start_time": 22.9113636,
                "end_time": 23.0977273,
                "pitch": 46,
                "velocity": 80,
                "duration": 0.1863636,
                "tempo": 120.0
            },
            {
                "start_time": 23.0977273,
                "end_time": 23.3340909,
                "pitch": 31,
                "velocity": 80,
                "duration": 0.2363636,
                "tempo": 120.0
            },
            {
                "start_time": 23.3340909,
                "end_time": 23.5863636,
                "pitch": 31,
                "velocity": 80,
                "duration": 0.2522727,
                "tempo": 120.0
            },
            {
                "start_time": 23.5863636,
                "end_time": 23.6340909,
                "pitch": 40,
                "velocity": 80,
                "duration": 0.0477273,
                "tempo": 120.0
            },
            {
                "start_time": 23.6340909,
                "end_time": 23.825,
                "pitch": 43,
                "velocity": 80,
                "duration": 0.1909091,
                "tempo": 120.0
            },
            {
                "start_time": 23.825,
                "end_time": 23.9454545,
                "pitch": 31,
                "velocity": 80,
                "duration": 0.1204545,
                "tempo": 120.0
            },
            {
                "start_time": 23.9454545,
                "end_time": 24.1977273,
                "pitch": 31,
                "velocity": 80,
                "duration": 0.2522727,
                "tempo": 120.0
            },
            {
                "start_time": 24.2,
                "end_time": 24.4340909,
                "pitch": 31,
                "velocity": 80,
                "duration": 0.2340909,
                "tempo": 120.0
            },
            {
                "start_time": 24.4340909,
                "end_time": 24.6840909,
                "pitch": 31,
                "velocity": 80,
                "duration": 0.25,
                "tempo": 120.0
            },
            {
                "start_time": 24.6840909,
                "end_time": 24.7977273,
                "pitch": 31,
                "velocity": 80,
                "duration": 0.1136364,
                "tempo": 120.0
            },
            {
                "start_time": 24.7977273,
                "end_time": 24.8454545,
                "pitch": 40,
                "velocity": 80,
                "duration": 0.0477273,
                "tempo": 120.0
            },
            {
                "start_time": 24.8454545,
                "end_time": 25.0295455,
                "pitch": 43,
                "velocity": 80,
                "duration": 0.1840909,
                "tempo": 120.0
            },
            {
                "start_time": 25.0295455,
                "end_time": 25.2818182,
                "pitch": 31,
                "velocity": 80,
                "duration": 0.2522727,
                "tempo": 120.0
            },
            {
                "start_time": 25.2818182,
                "end_time": 25.5159091,
                "pitch": 31,
                "velocity": 80,
                "duration": 0.2340909,
                "tempo": 120.0
            },
            {
                "start_time": 25.5159091,
                "end_time": 25.5818182,
                "pitch": 40,
                "velocity": 80,
                "duration": 0.0659091,
                "tempo": 120.0
            },
            {
                "start_time": 25.5818182,
                "end_time": 25.7545455,
                "pitch": 43,
                "velocity": 80,
                "duration": 0.1727273,
                "tempo": 120.0
            },
            {
                "start_time": 25.7568182,
                "end_time": 25.8931818,
                "pitch": 31,
                "velocity": 80,
                "duration": 0.1363636,
                "tempo": 120.0
            },
            {
                "start_time": 25.8931818,
                "end_time": 26.1295455,
                "pitch": 31,
                "velocity": 80,
                "duration": 0.2363636,
                "tempo": 120.0
            },
            {
                "start_time": 26.1295455,
                "end_time": 26.3659091,
                "pitch": 31,
                "velocity": 80,
                "duration": 0.2363636,
                "tempo": 120.0
            },
            {
                "start_time": 26.3659091,
                "end_time": 26.5,
                "pitch": 31,
                "velocity": 80,
                "duration": 0.1340909,
                "tempo": 120.0
            },
            {
                "start_time": 26.5,
                "end_time": 26.55,
                "pitch": 40,
                "velocity": 80,
                "duration": 0.05,
                "tempo": 120.0
            },
            {
                "start_time": 26.55,
                "end_time": 26.7386364,
                "pitch": 43,
                "velocity": 80,
                "duration": 0.1886364,
                "tempo": 120.0
            },
            {
                "start_time": 26.7386364,
                "end_time": 26.8045455,
                "pitch": 40,
                "velocity": 80,
                "duration": 0.0659091,
                "tempo": 120.0
            },
            {
                "start_time": 26.8045455,
                "end_time": 26.9795455,
                "pitch": 43,
                "velocity": 80,
                "duration": 0.175,
                "tempo": 120.0
            },
            {
                "start_time": 26.9795455,
                "end_time": 27.2181818,
                "pitch": 33,
                "velocity": 80,
                "duration": 0.2386364,
                "tempo": 120.0
            },
            {
                "start_time": 27.2181818,
                "end_time": 27.4431818,
                "pitch": 33,
                "velocity": 80,
                "duration": 0.225,
                "tempo": 120.0
            },
            {
                "start_time": 27.4431818,
                "end_time": 27.5090909,
                "pitch": 42,
                "velocity": 80,
                "duration": 0.0659091,
                "tempo": 120.0
            },
            {
                "start_time": 27.5090909,
                "end_time": 27.7,
                "pitch": 44,
                "velocity": 80,
                "duration": 0.1909091,
                "tempo": 120.0
            },
            {
                "start_time": 27.7,
                "end_time": 27.8204545,
                "pitch": 33,
                "velocity": 80,
                "duration": 0.1204545,
                "tempo": 120.0
            },
            {
                "start_time": 27.8204545,
                "end_time": 28.0568182,
                "pitch": 33,
                "velocity": 80,
                "duration": 0.2363636,
                "tempo": 120.0
            },
            {
                "start_time": 28.0568182,
                "end_time": 28.3090909,
                "pitch": 33,
                "velocity": 80,
                "duration": 0.2522727,
                "tempo": 120.0
            },
            {
                "start_time": 28.3090909,
                "end_time": 28.5477273,
                "pitch": 33,
                "velocity": 80,
                "duration": 0.2386364,
                "tempo": 120.0
            },
            {
                "start_time": 28.5477273,
                "end_time": 28.6659091,
                "pitch": 33,
                "velocity": 80,
                "duration": 0.1181818,
                "tempo": 120.0
            },
            {
                "start_time": 28.6659091,
                "end_time": 28.7318182,
                "pitch": 42,
                "velocity": 80,
                "duration": 0.0659091,
                "tempo": 120.0
            },
            {
                "start_time": 28.7318182,
                "end_time": 28.9227273,
                "pitch": 44,
                "velocity": 80,
                "duration": 0.1909091,
                "tempo": 120.0
            },
            {
                "start_time": 28.9227273,
                "end_time": 29.1590909,
                "pitch": 33,
                "velocity": 80,
                "duration": 0.2363636,
                "tempo": 120.0
            },
            {
                "start_time": 29.1590909,
                "end_time": 29.3931818,
                "pitch": 33,
                "velocity": 80,
                "duration": 0.2340909,
                "tempo": 120.0
            },
            {
                "start_time": 29.3931818,
                "end_time": 29.4568182,
                "pitch": 42,
                "velocity": 80,
                "duration": 0.0636364,
                "tempo": 120.0
            },
            {
                "start_time": 29.4568182,
                "end_time": 29.6409091,
                "pitch": 44,
                "velocity": 80,
                "duration": 0.1840909,
                "tempo": 120.0
            },
            {
                "start_time": 29.6409091,
                "end_time": 29.7545455,
                "pitch": 33,
                "velocity": 80,
                "duration": 0.1136364,
                "tempo": 120.0
            },
            {
                "start_time": 29.7545455,
                "end_time": 29.9886364,
                "pitch": 33,
                "velocity": 80,
                "duration": 0.2340909,
                "tempo": 120.0
            },
            {
                "start_time": 29.9886364,
                "end_time": 30.2409091,
                "pitch": 33,
                "velocity": 80,
                "duration": 0.2522727,
                "tempo": 120.0
            },
            {
                "start_time": 30.2409091,
                "end_time": 30.3590909,
                "pitch": 33,
                "velocity": 80,
                "duration": 0.1181818,
                "tempo": 120.0
            },
            {
                "start_time": 30.3590909,
                "end_time": 30.425,
                "pitch": 42,
                "velocity": 80,
                "duration": 0.0659091,
                "tempo": 120.0
            },
            {
                "start_time": 30.425,
                "end_time": 30.5977273,
                "pitch": 44,
                "velocity": 80,
                "duration": 0.1727273,
                "tempo": 120.0
            },
            {
                "start_time": 30.5977273,
                "end_time": 30.6636364,
                "pitch": 42,
                "velocity": 80,
                "duration": 0.0659091,
                "tempo": 120.0
            },
            {
                "start_time": 30.6636364,
                "end_time": 30.8545455,
                "pitch": 44,
                "velocity": 80,
                "duration": 0.1909091,
                "tempo": 120.0
            }
        ],
        "Acoustic Guitar (nylon)": [
            {
                "start_time": 0.0045455,
                "end_time": 0.1,
                "pitch": 79,
                "velocity": 40,
                "duration": 0.0954545,
                "tempo": 120.0
            },
            {
                "start_time": 0.1,
                "end_time": 0.2,
                "pitch": 84,
                "velocity": 40,
                "duration": 0.1,
                "tempo": 120.0
            },
            {
                "start_time": 0.2,
                "end_time": 0.2954545,
                "pitch": 55,
                "velocity": 40,
                "duration": 0.0954545,
                "tempo": 120.0
            },
            {
                "start_time": 0.2954545,
                "end_time": 0.3931818,
                "pitch": 60,
                "velocity": 40,
                "duration": 0.0977273,
                "tempo": 120.0
            },
            {
                "start_time": 0.3931818,
                "end_time": 0.525,
                "pitch": 67,
                "velocity": 40,
                "duration": 0.1318182,
                "tempo": 120.0
            },
            {
                "start_time": 0.525,
                "end_time": 0.6386364,
                "pitch": 72,
                "velocity": 40,
                "duration": 0.1136364,
                "tempo": 120.0
            },
            {
                "start_time": 0.6409091,
                "end_time": 0.7545455,
                "pitch": 67,
                "velocity": 40,
                "duration": 0.1136364,
                "tempo": 120.0
            },
            {
                "start_time": 0.7545455,
                "end_time": 0.8681818,
                "pitch": 72,
                "velocity": 40,
                "duration": 0.1136364,
                "tempo": 120.0
            },
            {
                "start_time": 0.8704545,
                "end_time": 0.9863636,
                "pitch": 79,
                "velocity": 40,
                "duration": 0.1159091,
                "tempo": 120.0
            },
            {
                "start_time": 0.9863636,
                "end_time": 1.1204545,
                "pitch": 84,
                "velocity": 40,
                "duration": 0.1340909,
                "tempo": 120.0
            },
            {
                "start_time": 1.1204545,
                "end_time": 1.2363636,
                "pitch": 55,
                "velocity": 40,
                "duration": 0.1159091,
                "tempo": 120.0
            },
            {
                "start_time": 1.2363636,
                "end_time": 1.3522727,
                "pitch": 60,
                "velocity": 40,
                "duration": 0.1159091,
                "tempo": 120.0
            },
            {
                "start_time": 1.3545455,
                "end_time": 1.4727273,
                "pitch": 67,
                "velocity": 40,
                "duration": 0.1181818,
                "tempo": 120.0
            },
            {
                "start_time": 1.4727273,
                "end_time": 1.5931818,
                "pitch": 72,
                "velocity": 40,
                "duration": 0.1204545,
                "tempo": 120.0
            },
            {
                "start_time": 1.5931818,
                "end_time": 1.7295455,
                "pitch": 67,
                "velocity": 40,
                "duration": 0.1363636,
                "tempo": 120.0
            },
            {
                "start_time": 1.7295455,
                "end_time": 1.85,
                "pitch": 72,
                "velocity": 40,
                "duration": 0.1204545,
                "tempo": 120.0
            },
            {
                "start_time": 1.85,
                "end_time": 1.9659091,
                "pitch": 79,
                "velocity": 40,
                "duration": 0.1159091,
                "tempo": 120.0
            },
            {
                "start_time": 1.9659091,
                "end_time": 2.0840909,
                "pitch": 84,
                "velocity": 40,
                "duration": 0.1181818,
                "tempo": 120.0
            },
            {
                "start_time": 2.0840909,
                "end_time": 2.2,
                "pitch": 55,
                "velocity": 40,
                "duration": 0.1159091,
                "tempo": 120.0
            },
            {
                "start_time": 2.2,
                "end_time": 2.3340909,
                "pitch": 60,
                "velocity": 40,
                "duration": 0.1340909,
                "tempo": 120.0
            },
            {
                "start_time": 2.3340909,
                "end_time": 2.4522727,
                "pitch": 67,
                "velocity": 40,
                "duration": 0.1181818,
                "tempo": 120.0
            },
            {
                "start_time": 2.4522727,
                "end_time": 2.5727273,
                "pitch": 72,
                "velocity": 40,
                "duration": 0.1204545,
                "tempo": 120.0
            },
            {
                "start_time": 2.5727273,
                "end_time": 2.6931818,
                "pitch": 67,
                "velocity": 40,
                "duration": 0.1204545,
                "tempo": 120.0
            },
            {
                "start_time": 2.6931818,
                "end_time": 2.8113636,
                "pitch": 72,
                "velocity": 40,
                "duration": 0.1181818,
                "tempo": 120.0
            },
            {
                "start_time": 2.8113636,
                "end_time": 2.9409091,
                "pitch": 79,
                "velocity": 40,
                "duration": 0.1295455,
                "tempo": 120.0
            },
            {
                "start_time": 2.9409091,
                "end_time": 3.0522727,
                "pitch": 84,
                "velocity": 40,
                "duration": 0.1113636,
                "tempo": 120.0
            },
            {
                "start_time": 3.0522727,
                "end_time": 3.1636364,
                "pitch": 55,
                "velocity": 40,
                "duration": 0.1113636,
                "tempo": 120.0
            },
            {
                "start_time": 3.1659091,
                "end_time": 3.2772727,
                "pitch": 60,
                "velocity": 40,
                "duration": 0.1113636,
                "tempo": 120.0
            },
            {
                "start_time": 3.2772727,
                "end_time": 3.3954545,
                "pitch": 67,
                "velocity": 40,
                "duration": 0.1181818,
                "tempo": 120.0
            },
            {
                "start_time": 3.3977273,
                "end_time": 3.5340909,
                "pitch": 72,
                "velocity": 40,
                "duration": 0.1363636,
                "tempo": 120.0
            },
            {
                "start_time": 3.5340909,
                "end_time": 3.6522727,
                "pitch": 67,
                "velocity": 40,
                "duration": 0.1181818,
                "tempo": 120.0
            },
            {
                "start_time": 3.6545455,
                "end_time": 3.7727273,
                "pitch": 72,
                "velocity": 40,
                "duration": 0.1181818,
                "tempo": 120.0
            },
            {
                "start_time": 3.7727273,
                "end_time": 3.8886364,
                "pitch": 76,
                "velocity": 40,
                "duration": 0.1159091,
                "tempo": 120.0
            },
            {
                "start_time": 3.8886364,
                "end_time": 4.0068182,
                "pitch": 81,
                "velocity": 40,
                "duration": 0.1181818,
                "tempo": 120.0
            },
            {
                "start_time": 4.0068182,
                "end_time": 4.1386364,
                "pitch": 52,
                "velocity": 40,
                "duration": 0.1318182,
                "tempo": 120.0
            },
            {
                "start_time": 4.1386364,
                "end_time": 4.2568182,
                "pitch": 57,
                "velocity": 40,
                "duration": 0.1181818,
                "tempo": 120.0
            },
            {
                "start_time": 4.2568182,
                "end_time": 4.375,
                "pitch": 64,
                "velocity": 40,
                "duration": 0.1181818,
                "tempo": 120.0
            },
            {
                "start_time": 4.3772727,
                "end_time": 4.4954545,
                "pitch": 69,
                "velocity": 40,
                "duration": 0.1181818,
                "tempo": 120.0
            },
            {
                "start_time": 4.4954545,
                "end_time": 4.6159091,
                "pitch": 64,
                "velocity": 40,
                "duration": 0.1204545,
                "tempo": 120.0
            },
            {
                "start_time": 4.6159091,
                "end_time": 4.7522727,
                "pitch": 69,
                "velocity": 40,
                "duration": 0.1363636,
                "tempo": 120.0
            },
            {
                "start_time": 4.7522727,
                "end_time": 4.8681818,
                "pitch": 76,
                "velocity": 40,
                "duration": 0.1159091,
                "tempo": 120.0
            },
            {
                "start_time": 4.8681818,
                "end_time": 4.9863636,
                "pitch": 81,
                "velocity": 40,
                "duration": 0.1181818,
                "tempo": 120.0
            },
            {
                "start_time": 4.9863636,
                "end_time": 5.1022727,
                "pitch": 52,
                "velocity": 40,
                "duration": 0.1159091,
                "tempo": 120.0
            },
            {
                "start_time": 5.1022727,
                "end_time": 5.2181818,
                "pitch": 57,
                "velocity": 40,
                "duration": 0.1159091,
                "tempo": 120.0
            },
            {
                "start_time": 5.2204545,
                "end_time": 5.35,
                "pitch": 64,
                "velocity": 40,
                "duration": 0.1295455,
                "tempo": 120.0
            },
            {
                "start_time": 5.35,
                "end_time": 5.4659091,
                "pitch": 69,
                "velocity": 40,
                "duration": 0.1159091,
                "tempo": 120.0
            },
            {
                "start_time": 5.4659091,
                "end_time": 5.5818182,
                "pitch": 64,
                "velocity": 40,
                "duration": 0.1159091,
                "tempo": 120.0
            },
            {
                "start_time": 5.5818182,
                "end_time": 5.6954545,
                "pitch": 69,
                "velocity": 40,
                "duration": 0.1136364,
                "tempo": 120.0
            },
            {
                "start_time": 5.6954545,
                "end_time": 5.8113636,
                "pitch": 76,
                "velocity": 40,
                "duration": 0.1159091,
                "tempo": 120.0
            },
            {
                "start_time": 5.8113636,
                "end_time": 5.9454545,
                "pitch": 81,
                "velocity": 40,
                "duration": 0.1340909,
                "tempo": 120.0
            },
            {
                "start_time": 5.9454545,
                "end_time": 6.0613636,
                "pitch": 52,
                "velocity": 40,
                "duration": 0.1159091,
                "tempo": 120.0
            },
            {
                "start_time": 6.0636364,
                "end_time": 6.1795455,
                "pitch": 57,
                "velocity": 40,
                "duration": 0.1159091,
                "tempo": 120.0
            },
            {
                "start_time": 6.1795455,
                "end_time": 6.3,
                "pitch": 64,
                "velocity": 40,
                "duration": 0.1204545,
                "tempo": 120.0
            },
            {
                "start_time": 6.3,
                "end_time": 6.4181818,
                "pitch": 69,
                "velocity": 40,
                "duration": 0.1181818,
                "tempo": 120.0
            },
            {
                "start_time": 6.4181818,
                "end_time": 6.5568182,
                "pitch": 64,
                "velocity": 40,
                "duration": 0.1386364,
                "tempo": 120.0
            },
            {
                "start_time": 6.5568182,
                "end_time": 6.675,
                "pitch": 69,
                "velocity": 40,
                "duration": 0.1181818,
                "tempo": 120.0
            },
            {
                "start_time": 6.675,
                "end_time": 6.7931818,
                "pitch": 76,
                "velocity": 40,
                "duration": 0.1181818,
                "tempo": 120.0
            },
            {
                "start_time": 6.7931818,
                "end_time": 6.9113636,
                "pitch": 81,
                "velocity": 40,
                "duration": 0.1181818,
                "tempo": 120.0
            },
            {
                "start_time": 6.9113636,
                "end_time": 7.0295455,
                "pitch": 52,
                "velocity": 40,
                "duration": 0.1181818,
                "tempo": 120.0
            },
            {
                "start_time": 7.0295455,
                "end_time": 7.1636364,
                "pitch": 57,
                "velocity": 40,
                "duration": 0.1340909,
                "tempo": 120.0
            },
            {
                "start_time": 7.1636364,
                "end_time": 7.2795455,
                "pitch": 64,
                "velocity": 40,
                "duration": 0.1159091,
                "tempo": 120.0
            },
            {
                "start_time": 7.2795455,
                "end_time": 7.3977273,
                "pitch": 69,
                "velocity": 40,
                "duration": 0.1181818,
                "tempo": 120.0
            },
            {
                "start_time": 7.3977273,
                "end_time": 7.5136364,
                "pitch": 64,
                "velocity": 40,
                "duration": 0.1159091,
                "tempo": 120.0
            },
            {
                "start_time": 7.5136364,
                "end_time": 7.6318182,
                "pitch": 69,
                "velocity": 40,
                "duration": 0.1181818,
                "tempo": 120.0
            },
            {
                "start_time": 7.6318182,
                "end_time": 7.7613636,
                "pitch": 72,
                "velocity": 40,
                "duration": 0.1295455,
                "tempo": 120.0
            },
            {
                "start_time": 7.7613636,
                "end_time": 7.8772727,
                "pitch": 77,
                "velocity": 40,
                "duration": 0.1159091,
                "tempo": 120.0
            },
            {
                "start_time": 7.8772727,
                "end_time": 7.9909091,
                "pitch": 48,
                "velocity": 40,
                "duration": 0.1136364,
                "tempo": 120.0
            },
            {
                "start_time": 7.9909091,
                "end_time": 8.1068182,
                "pitch": 53,
                "velocity": 40,
                "duration": 0.1159091,
                "tempo": 120.0
            },
            {
                "start_time": 8.1068182,
                "end_time": 8.225,
                "pitch": 60,
                "velocity": 40,
                "duration": 0.1181818,
                "tempo": 120.0
            },
            {
                "start_time": 8.225,
                "end_time": 8.3590909,
                "pitch": 65,
                "velocity": 40,
                "duration": 0.1340909,
                "tempo": 120.0
            },
            {
                "start_time": 8.3590909,
                "end_time": 8.4772727,
                "pitch": 60,
                "velocity": 40,
                "duration": 0.1181818,
                "tempo": 120.0
            },
            {
                "start_time": 8.4772727,
                "end_time": 8.5931818,
                "pitch": 65,
                "velocity": 40,
                "duration": 0.1159091,
                "tempo": 120.0
            },
            {
                "start_time": 8.5954545,
                "end_time": 8.7136364,
                "pitch": 72,
                "velocity": 40,
                "duration": 0.1181818,
                "tempo": 120.0
            },
            {
                "start_time": 8.7136364,
                "end_time": 8.8340909,
                "pitch": 77,
                "velocity": 40,
                "duration": 0.1204545,
                "tempo": 120.0
            },
            {
                "start_time": 8.8340909,
                "end_time": 8.9704545,
                "pitch": 48,
                "velocity": 40,
                "duration": 0.1363636,
                "tempo": 120.0
            },
            {
                "start_time": 8.9704545,
                "end_time": 9.0909091,
                "pitch": 53,
                "velocity": 40,
                "duration": 0.1204545,
                "tempo": 120.0
            },
            {
                "start_time": 9.0909091,
                "end_time": 9.2090909,
                "pitch": 60,
                "velocity": 40,
                "duration": 0.1181818,
                "tempo": 120.0
            },
            {
                "start_time": 9.2090909,
                "end_time": 9.325,
                "pitch": 65,
                "velocity": 40,
                "duration": 0.1159091,
                "tempo": 120.0
            },
            {
                "start_time": 9.3272727,
                "end_time": 9.4431818,
                "pitch": 60,
                "velocity": 40,
                "duration": 0.1159091,
                "tempo": 120.0
            },
            {
                "start_time": 9.4431818,
                "end_time": 9.5795455,
                "pitch": 65,
                "velocity": 40,
                "duration": 0.1363636,
                "tempo": 120.0
            },
            {
                "start_time": 9.5795455,
                "end_time": 9.6931818,
                "pitch": 72,
                "velocity": 40,
                "duration": 0.1136364,
                "tempo": 120.0
            },
            {
                "start_time": 9.6931818,
                "end_time": 9.8113636,
                "pitch": 77,
                "velocity": 40,
                "duration": 0.1181818,
                "tempo": 120.0
            },
            {
                "start_time": 9.8113636,
                "end_time": 9.9272727,
                "pitch": 48,
                "velocity": 40,
                "duration": 0.1159091,
                "tempo": 120.0
            },
            {
                "start_time": 9.9272727,
                "end_time": 10.0454545,
                "pitch": 53,
                "velocity": 40,
                "duration": 0.1181818,
                "tempo": 120.0
            },
            {
                "start_time": 10.0454545,
                "end_time": 10.1772727,
                "pitch": 60,
                "velocity": 40,
                "duration": 0.1318182,
                "tempo": 120.0
            },
            {
                "start_time": 10.1772727,
                "end_time": 10.2909091,
                "pitch": 65,
                "velocity": 40,
                "duration": 0.1136364,
                "tempo": 120.0
            },
            {
                "start_time": 10.2909091,
                "end_time": 10.4068182,
                "pitch": 60,
                "velocity": 40,
                "duration": 0.1159091,
                "tempo": 120.0
            },
            {
                "start_time": 10.4068182,
                "end_time": 10.5204545,
                "pitch": 65,
                "velocity": 40,
                "duration": 0.1136364,
                "tempo": 120.0
            },
            {
                "start_time": 10.5204545,
                "end_time": 10.6409091,
                "pitch": 72,
                "velocity": 40,
                "duration": 0.1204545,
                "tempo": 120.0
            },
            {
                "start_time": 10.6409091,
                "end_time": 10.7772727,
                "pitch": 77,
                "velocity": 40,
                "duration": 0.1363636,
                "tempo": 120.0
            },
            {
                "start_time": 10.7772727,
                "end_time": 10.8977273,
                "pitch": 48,
                "velocity": 40,
                "duration": 0.1204545,
                "tempo": 120.0
            },
            {
                "start_time": 10.8977273,
                "end_time": 11.0181818,
                "pitch": 53,
                "velocity": 40,
                "duration": 0.1204545,
                "tempo": 120.0
            },
            {
                "start_time": 11.0181818,
                "end_time": 11.1340909,
                "pitch": 60,
                "velocity": 40,
                "duration": 0.1159091,
                "tempo": 120.0
            },
            {
                "start_time": 11.1340909,
                "end_time": 11.2522727,
                "pitch": 65,
                "velocity": 40,
                "duration": 0.1181818,
                "tempo": 120.0
            },
            {
                "start_time": 11.2522727,
                "end_time": 11.3886364,
                "pitch": 60,
                "velocity": 40,
                "duration": 0.1363636,
                "tempo": 120.0
            },
            {
                "start_time": 11.3886364,
                "end_time": 11.5045455,
                "pitch": 65,
                "velocity": 40,
                "duration": 0.1159091,
                "tempo": 120.0
            },
            {
                "start_time": 11.5068182,
                "end_time": 11.6204545,
                "pitch": 74,
                "velocity": 40,
                "duration": 0.1136364,
                "tempo": 120.0
            },
            {
                "start_time": 11.6204545,
                "end_time": 11.7386364,
                "pitch": 79,
                "velocity": 40,
                "duration": 0.1181818,
                "tempo": 120.0
            },
            {
                "start_time": 11.7386364,
                "end_time": 11.8545455,
                "pitch": 50,
                "velocity": 40,
                "duration": 0.1159091,
                "tempo": 120.0
            },
            {
                "start_time": 11.8545455,
                "end_time": 11.9886364,
                "pitch": 55,
                "velocity": 40,
                "duration": 0.1340909,
                "tempo": 120.0
            },
            {
                "start_time": 11.9886364,
                "end_time": 12.1090909,
                "pitch": 62,
                "velocity": 40,
                "duration": 0.1204545,
                "tempo": 120.0
            },
            {
                "start_time": 12.1090909,
                "end_time": 12.2272727,
                "pitch": 67,
                "velocity": 40,
                "duration": 0.1181818,
                "tempo": 120.0
            },
            {
                "start_time": 12.2295455,
                "end_time": 12.3477273,
                "pitch": 62,
                "velocity": 40,
                "duration": 0.1181818,
                "tempo": 120.0
            },
            {
                "start_time": 12.3477273,
                "end_time": 12.4681818,
                "pitch": 67,
                "velocity": 40,
                "duration": 0.1204545,
                "tempo": 120.0
            },
            {
                "start_time": 12.4681818,
                "end_time": 12.6,
                "pitch": 74,
                "velocity": 40,
                "duration": 0.1318182,
                "tempo": 120.0
            },
            {
                "start_time": 12.6,
                "end_time": 12.7136364,
                "pitch": 79,
                "velocity": 40,
                "duration": 0.1136364,
                "tempo": 120.0
            },
            {
                "start_time": 12.7136364,
                "end_time": 12.8295455,
                "pitch": 50,
                "velocity": 40,
                "duration": 0.1159091,
                "tempo": 120.0
            },
            {
                "start_time": 12.8295455,
                "end_time": 12.9431818,
                "pitch": 55,
                "velocity": 40,
                "duration": 0.1136364,
                "tempo": 120.0
            },
            {
                "start_time": 12.9431818,
                "end_time": 13.0613636,
                "pitch": 62,
                "velocity": 40,
                "duration": 0.1181818,
                "tempo": 120.0
            },
            {
                "start_time": 13.0613636,
                "end_time": 13.1954545,
                "pitch": 67,
                "velocity": 40,
                "duration": 0.1340909,
                "tempo": 120.0
            },
            {
                "start_time": 13.1977273,
                "end_time": 13.3136364,
                "pitch": 62,
                "velocity": 40,
                "duration": 0.1159091,
                "tempo": 120.0
            },
            {
                "start_time": 13.3136364,
                "end_time": 13.4318182,
                "pitch": 67,
                "velocity": 40,
                "duration": 0.1181818,
                "tempo": 120.0
            },
            {
                "start_time": 13.4318182,
                "end_time": 13.5477273,
                "pitch": 74,
                "velocity": 40,
                "duration": 0.1159091,
                "tempo": 120.0
            },
            {
                "start_time": 13.5477273,
                "end_time": 13.6659091,
                "pitch": 79,
                "velocity": 40,
                "duration": 0.1181818,
                "tempo": 120.0
            },
            {
                "start_time": 13.6659091,
                "end_time": 13.7977273,
                "pitch": 50,
                "velocity": 40,
                "duration": 0.1318182,
                "tempo": 120.0
            },
            {
                "start_time": 13.7977273,
                "end_time": 13.9159091,
                "pitch": 55,
                "velocity": 40,
                "duration": 0.1181818,
                "tempo": 120.0
            },
            {
                "start_time": 13.9159091,
                "end_time": 14.0363636,
                "pitch": 62,
                "velocity": 40,
                "duration": 0.1204545,
                "tempo": 120.0
            },
            {
                "start_time": 14.0363636,
                "end_time": 14.1545455,
                "pitch": 67,
                "velocity": 40,
                "duration": 0.1181818,
                "tempo": 120.0
            },
            {
                "start_time": 14.1545455,
                "end_time": 14.275,
                "pitch": 62,
                "velocity": 40,
                "duration": 0.1204545,
                "tempo": 120.0
            },
            {
                "start_time": 14.275,
                "end_time": 14.4113636,
                "pitch": 67,
                "velocity": 40,
                "duration": 0.1363636,
                "tempo": 120.0
            },
            {
                "start_time": 14.4113636,
                "end_time": 14.5295455,
                "pitch": 74,
                "velocity": 40,
                "duration": 0.1181818,
                "tempo": 120.0
            },
            {
                "start_time": 14.5295455,
                "end_time": 14.6477273,
                "pitch": 79,
                "velocity": 40,
                "duration": 0.1181818,
                "tempo": 120.0
            },
            {
                "start_time": 14.6477273,
                "end_time": 14.7636364,
                "pitch": 50,
                "velocity": 40,
                "duration": 0.1159091,
                "tempo": 120.0
            },
            {
                "start_time": 14.7659091,
                "end_time": 14.8818182,
                "pitch": 55,
                "velocity": 40,
                "duration": 0.1159091,
                "tempo": 120.0
            },
            {
                "start_time": 14.8840909,
                "end_time": 15.0136364,
                "pitch": 62,
                "velocity": 40,
                "duration": 0.1295455,
                "tempo": 120.0
            },
            {
                "start_time": 15.0136364,
                "end_time": 15.1295455,
                "pitch": 67,
                "velocity": 40,
                "duration": 0.1159091,
                "tempo": 120.0
            },
            {
                "start_time": 15.1295455,
                "end_time": 15.2431818,
                "pitch": 62,
                "velocity": 40,
                "duration": 0.1136364,
                "tempo": 120.0
            },
            {
                "start_time": 15.2454545,
                "end_time": 15.3590909,
                "pitch": 67,
                "velocity": 40,
                "duration": 0.1136364,
                "tempo": 120.0
            },
            {
                "start_time": 15.3590909,
                "end_time": 15.4795455,
                "pitch": 81,
                "velocity": 40,
                "duration": 0.1204545,
                "tempo": 120.0
            },
            {
                "start_time": 15.4795455,
                "end_time": 15.6181818,
                "pitch": 86,
                "velocity": 40,
                "duration": 0.1386364,
                "tempo": 120.0
            },
            {
                "start_time": 15.6204545,
                "end_time": 15.7409091,
                "pitch": 57,
                "velocity": 40,
                "duration": 0.1204545,
                "tempo": 120.0
            },
            {
                "start_time": 15.7409091,
                "end_time": 15.8613636,
                "pitch": 62,
                "velocity": 40,
                "duration": 0.1204545,
                "tempo": 120.0
            },
            {
                "start_time": 15.8613636,
                "end_time": 15.9772727,
                "pitch": 69,
                "velocity": 40,
                "duration": 0.1159091,
                "tempo": 120.0
            },
            {
                "start_time": 15.9772727,
                "end_time": 16.0909091,
                "pitch": 74,
                "velocity": 40,
                "duration": 0.1136364,
                "tempo": 120.0
            },
            {
                "start_time": 16.0931818,
                "end_time": 16.2227273,
                "pitch": 69,
                "velocity": 40,
                "duration": 0.1295455,
                "tempo": 120.0
            },
            {
                "start_time": 16.2227273,
                "end_time": 16.3386364,
                "pitch": 74,
                "velocity": 40,
                "duration": 0.1159091,
                "tempo": 120.0
            },
            {
                "start_time": 16.3386364,
                "end_time": 16.4568182,
                "pitch": 81,
                "velocity": 40,
                "duration": 0.1181818,
                "tempo": 120.0
            },
            {
                "start_time": 16.4568182,
                "end_time": 16.5727273,
                "pitch": 86,
                "velocity": 40,
                "duration": 0.1159091,
                "tempo": 120.0
            },
            {
                "start_time": 16.5727273,
                "end_time": 16.6909091,
                "pitch": 57,
                "velocity": 40,
                "duration": 0.1181818,
                "tempo": 120.0
            },
            {
                "start_time": 16.6909091,
                "end_time": 16.825,
                "pitch": 62,
                "velocity": 40,
                "duration": 0.1340909,
                "tempo": 120.0
            },
            {
                "start_time": 16.8272727,
                "end_time": 16.9431818,
                "pitch": 69,
                "velocity": 40,
                "duration": 0.1159091,
                "tempo": 120.0
            },
            {
                "start_time": 16.9431818,
                "end_time": 17.0613636,
                "pitch": 74,
                "velocity": 40,
                "duration": 0.1181818,
                "tempo": 120.0
            },
            {
                "start_time": 17.0613636,
                "end_time": 17.1795455,
                "pitch": 69,
                "velocity": 40,
                "duration": 0.1181818,
                "tempo": 120.0
            },
            {
                "start_time": 17.1795455,
                "end_time": 17.2977273,
                "pitch": 74,
                "velocity": 40,
                "duration": 0.1181818,
                "tempo": 120.0
            },
            {
                "start_time": 17.2977273,
                "end_time": 17.4272727,
                "pitch": 81,
                "velocity": 40,
                "duration": 0.1295455,
                "tempo": 120.0
            },
            {
                "start_time": 17.4272727,
                "end_time": 17.5431818,
                "pitch": 86,
                "velocity": 40,
                "duration": 0.1159091,
                "tempo": 120.0
            },
            {
                "start_time": 17.5431818,
                "end_time": 17.6590909,
                "pitch": 57,
                "velocity": 40,
                "duration": 0.1159091,
                "tempo": 120.0
            },
            {
                "start_time": 17.6590909,
                "end_time": 17.7727273,
                "pitch": 62,
                "velocity": 40,
                "duration": 0.1136364,
                "tempo": 120.0
            },
            {
                "start_time": 17.775,
                "end_time": 17.8931818,
                "pitch": 69,
                "velocity": 40,
                "duration": 0.1181818,
                "tempo": 120.0
            },
            {
                "start_time": 17.8931818,
                "end_time": 18.0295455,
                "pitch": 74,
                "velocity": 40,
                "duration": 0.1363636,
                "tempo": 120.0
            },
            {
                "start_time": 18.0295455,
                "end_time": 18.15,
                "pitch": 69,
                "velocity": 40,
                "duration": 0.1204545,
                "tempo": 120.0
            },
            {
                "start_time": 18.15,
                "end_time": 18.2681818,
                "pitch": 74,
                "velocity": 40,
                "duration": 0.1181818,
                "tempo": 120.0
            },
            {
                "start_time": 18.2681818,
                "end_time": 18.3863636,
                "pitch": 81,
                "velocity": 40,
                "duration": 0.1181818,
                "tempo": 120.0
            },
            {
                "start_time": 18.3863636,
                "end_time": 18.5045455,
                "pitch": 86,
                "velocity": 40,
                "duration": 0.1181818,
                "tempo": 120.0
            },
            {
                "start_time": 18.5045455,
                "end_time": 18.6386364,
                "pitch": 57,
                "velocity": 40,
                "duration": 0.1340909,
                "tempo": 120.0
            },
            {
                "start_time": 18.6386364,
                "end_time": 18.7568182,
                "pitch": 62,
                "velocity": 40,
                "duration": 0.1181818,
                "tempo": 120.0
            },
            {
                "start_time": 18.7568182,
                "end_time": 18.8727273,
                "pitch": 69,
                "velocity": 40,
                "duration": 0.1159091,
                "tempo": 120.0
            },
            {
                "start_time": 18.8727273,
                "end_time": 18.9909091,
                "pitch": 74,
                "velocity": 40,
                "duration": 0.1181818,
                "tempo": 120.0
            },
            {
                "start_time": 18.9909091,
                "end_time": 19.1068182,
                "pitch": 69,
                "velocity": 40,
                "duration": 0.1159091,
                "tempo": 120.0
            },
            {
                "start_time": 19.1068182,
                "end_time": 19.2409091,
                "pitch": 74,
                "velocity": 40,
                "duration": 0.1340909,
                "tempo": 120.0
            },
            {
                "start_time": 19.2409091,
                "end_time": 19.3590909,
                "pitch": 78,
                "velocity": 40,
                "duration": 0.1181818,
                "tempo": 120.0
            },
            {
                "start_time": 19.3590909,
                "end_time": 19.4795455,
                "pitch": 83,
                "velocity": 40,
                "duration": 0.1204545,
                "tempo": 120.0
            },
            {
                "start_time": 19.4795455,
                "end_time": 19.6,
                "pitch": 54,
                "velocity": 40,
                "duration": 0.1204545,
                "tempo": 120.0
            },
            {
                "start_time": 19.6,
                "end_time": 19.7204545,
                "pitch": 59,
                "velocity": 40,
                "duration": 0.1204545,
                "tempo": 120.0
            },
            {
                "start_time": 19.7204545,
                "end_time": 19.85,
                "pitch": 66,
                "velocity": 40,
                "duration": 0.1295455,
                "tempo": 120.0
            },
            {
                "start_time": 19.8522727,
                "end_time": 19.9659091,
                "pitch": 71,
                "velocity": 40,
                "duration": 0.1136364,
                "tempo": 120.0
            },
            {
                "start_time": 19.9659091,
                "end_time": 20.0818182,
                "pitch": 66,
                "velocity": 40,
                "duration": 0.1159091,
                "tempo": 120.0
            },
            {
                "start_time": 20.0818182,
                "end_time": 20.1954545,
                "pitch": 71,
                "velocity": 40,
                "duration": 0.1136364,
                "tempo": 120.0
            },
            {
                "start_time": 20.1954545,
                "end_time": 20.3136364,
                "pitch": 78,
                "velocity": 40,
                "duration": 0.1181818,
                "tempo": 120.0
            },
            {
                "start_time": 20.3136364,
                "end_time": 20.4477273,
                "pitch": 83,
                "velocity": 40,
                "duration": 0.1340909,
                "tempo": 120.0
            },
            {
                "start_time": 20.4477273,
                "end_time": 20.5659091,
                "pitch": 54,
                "velocity": 40,
                "duration": 0.1181818,
                "tempo": 120.0
            },
            {
                "start_time": 20.5659091,
                "end_time": 20.6840909,
                "pitch": 59,
                "velocity": 40,
                "duration": 0.1181818,
                "tempo": 120.0
            },
            {
                "start_time": 20.6840909,
                "end_time": 20.8022727,
                "pitch": 66,
                "velocity": 40,
                "duration": 0.1181818,
                "tempo": 120.0
            },
            {
                "start_time": 20.8022727,
                "end_time": 20.9204545,
                "pitch": 71,
                "velocity": 40,
                "duration": 0.1181818,
                "tempo": 120.0
            },
            {
                "start_time": 20.9204545,
                "end_time": 21.0545455,
                "pitch": 66,
                "velocity": 40,
                "duration": 0.1340909,
                "tempo": 120.0
            },
            {
                "start_time": 21.0545455,
                "end_time": 21.1727273,
                "pitch": 71,
                "velocity": 40,
                "duration": 0.1181818,
                "tempo": 120.0
            },
            {
                "start_time": 21.1727273,
                "end_time": 21.2909091,
                "pitch": 78,
                "velocity": 40,
                "duration": 0.1181818,
                "tempo": 120.0
            },
            {
                "start_time": 21.2909091,
                "end_time": 21.4113636,
                "pitch": 83,
                "velocity": 40,
                "duration": 0.1204545,
                "tempo": 120.0
            },
            {
                "start_time": 21.4113636,
                "end_time": 21.5295455,
                "pitch": 54,
                "velocity": 40,
                "duration": 0.1181818,
                "tempo": 120.0
            },
            {
                "start_time": 21.5295455,
                "end_time": 21.6681818,
                "pitch": 59,
                "velocity": 40,
                "duration": 0.1386364,
                "tempo": 120.0
            },
            {
                "start_time": 21.6681818,
                "end_time": 21.7840909,
                "pitch": 66,
                "velocity": 40,
                "duration": 0.1159091,
                "tempo": 120.0
            },
            {
                "start_time": 21.7840909,
                "end_time": 21.9022727,
                "pitch": 71,
                "velocity": 40,
                "duration": 0.1181818,
                "tempo": 120.0
            },
            {
                "start_time": 21.9022727,
                "end_time": 22.0204545,
                "pitch": 66,
                "velocity": 40,
                "duration": 0.1181818,
                "tempo": 120.0
            },
            {
                "start_time": 22.0204545,
                "end_time": 22.1386364,
                "pitch": 71,
                "velocity": 40,
                "duration": 0.1181818,
                "tempo": 120.0
            },
            {
                "start_time": 22.1386364,
                "end_time": 22.2704545,
                "pitch": 78,
                "velocity": 40,
                "duration": 0.1318182,
                "tempo": 120.0
            },
            {
                "start_time": 22.2704545,
                "end_time": 22.3840909,
                "pitch": 83,
                "velocity": 40,
                "duration": 0.1136364,
                "tempo": 120.0
            },
            {
                "start_time": 22.3840909,
                "end_time": 22.5,
                "pitch": 54,
                "velocity": 40,
                "duration": 0.1159091,
                "tempo": 120.0
            },
            {
                "start_time": 22.5,
                "end_time": 22.6159091,
                "pitch": 59,
                "velocity": 40,
                "duration": 0.1159091,
                "tempo": 120.0
            },
            {
                "start_time": 22.6159091,
                "end_time": 22.7318182,
                "pitch": 66,
                "velocity": 40,
                "duration": 0.1159091,
                "tempo": 120.0
            },
            {
                "start_time": 22.7318182,
                "end_time": 22.8659091,
                "pitch": 71,
                "velocity": 40,
                "duration": 0.1340909,
                "tempo": 120.0
            },
            {
                "start_time": 22.8659091,
                "end_time": 22.9818182,
                "pitch": 66,
                "velocity": 40,
                "duration": 0.1159091,
                "tempo": 120.0
            },
            {
                "start_time": 22.9818182,
                "end_time": 23.1,
                "pitch": 71,
                "velocity": 40,
                "duration": 0.1181818,
                "tempo": 120.0
            },
            {
                "start_time": 23.1,
                "end_time": 23.2159091,
                "pitch": 74,
                "velocity": 40,
                "duration": 0.1159091,
                "tempo": 120.0
            },
            {
                "start_time": 23.2159091,
                "end_time": 23.3340909,
                "pitch": 79,
                "velocity": 40,
                "duration": 0.1181818,
                "tempo": 120.0
            },
            {
                "start_time": 23.3340909,
                "end_time": 23.4681818,
                "pitch": 50,
                "velocity": 40,
                "duration": 0.1340909,
                "tempo": 120.0
            },
            {
                "start_time": 23.4681818,
                "end_time": 23.5863636,
                "pitch": 55,
                "velocity": 40,
                "duration": 0.1181818,
                "tempo": 120.0
            },
            {
                "start_time": 23.5863636,
                "end_time": 23.7068182,
                "pitch": 62,
                "velocity": 40,
                "duration": 0.1204545,
                "tempo": 120.0
            },
            {
                "start_time": 23.7068182,
                "end_time": 23.825,
                "pitch": 67,
                "velocity": 40,
                "duration": 0.1181818,
                "tempo": 120.0
            },
            {
                "start_time": 23.825,
                "end_time": 23.9454545,
                "pitch": 62,
                "velocity": 40,
                "duration": 0.1204545,
                "tempo": 120.0
            },
            {
                "start_time": 23.9454545,
                "end_time": 24.0818182,
                "pitch": 67,
                "velocity": 40,
                "duration": 0.1363636,
                "tempo": 120.0
            },
            {
                "start_time": 24.0818182,
                "end_time": 24.2,
                "pitch": 74,
                "velocity": 40,
                "duration": 0.1181818,
                "tempo": 120.0
            },
            {
                "start_time": 24.2,
                "end_time": 24.3181818,
                "pitch": 79,
                "velocity": 40,
                "duration": 0.1181818,
                "tempo": 120.0
            },
            {
                "start_time": 24.3181818,
                "end_time": 24.4363636,
                "pitch": 50,
                "velocity": 40,
                "duration": 0.1181818,
                "tempo": 120.0
            },
            {
                "start_time": 24.4363636,
                "end_time": 24.5522727,
                "pitch": 55,
                "velocity": 40,
                "duration": 0.1159091,
                "tempo": 120.0
            },
            {
                "start_time": 24.5522727,
                "end_time": 24.6840909,
                "pitch": 62,
                "velocity": 40,
                "duration": 0.1318182,
                "tempo": 120.0
            },
            {
                "start_time": 24.6840909,
                "end_time": 24.8,
                "pitch": 67,
                "velocity": 40,
                "duration": 0.1159091,
                "tempo": 120.0
            },
            {
                "start_time": 24.8,
                "end_time": 24.9136364,
                "pitch": 62,
                "velocity": 40,
                "duration": 0.1136364,
                "tempo": 120.0
            },
            {
                "start_time": 24.9159091,
                "end_time": 25.0295455,
                "pitch": 67,
                "velocity": 40,
                "duration": 0.1136364,
                "tempo": 120.0
            },
            {
                "start_time": 25.0295455,
                "end_time": 25.1454545,
                "pitch": 74,
                "velocity": 40,
                "duration": 0.1159091,
                "tempo": 120.0
            },
            {
                "start_time": 25.1454545,
                "end_time": 25.2818182,
                "pitch": 79,
                "velocity": 40,
                "duration": 0.1363636,
                "tempo": 120.0
            },
            {
                "start_time": 25.2818182,
                "end_time": 25.4,
                "pitch": 50,
                "velocity": 40,
                "duration": 0.1181818,
                "tempo": 120.0
            },
            {
                "start_time": 25.4,
                "end_time": 25.5181818,
                "pitch": 55,
                "velocity": 40,
                "duration": 0.1181818,
                "tempo": 120.0
            },
            {
                "start_time": 25.5181818,
                "end_time": 25.6363636,
                "pitch": 62,
                "velocity": 40,
                "duration": 0.1181818,
                "tempo": 120.0
            },
            {
                "start_time": 25.6363636,
                "end_time": 25.7568182,
                "pitch": 67,
                "velocity": 40,
                "duration": 0.1204545,
                "tempo": 120.0
            },
            {
                "start_time": 25.7568182,
                "end_time": 25.8931818,
                "pitch": 62,
                "velocity": 40,
                "duration": 0.1363636,
                "tempo": 120.0
            },
            {
                "start_time": 25.8931818,
                "end_time": 26.0136364,
                "pitch": 67,
                "velocity": 40,
                "duration": 0.1204545,
                "tempo": 120.0
            },
            {
                "start_time": 26.0136364,
                "end_time": 26.1318182,
                "pitch": 74,
                "velocity": 40,
                "duration": 0.1181818,
                "tempo": 120.0
            },
            {
                "start_time": 26.1318182,
                "end_time": 26.2477273,
                "pitch": 79,
                "velocity": 40,
                "duration": 0.1159091,
                "tempo": 120.0
            },
            {
                "start_time": 26.2477273,
                "end_time": 26.3659091,
                "pitch": 50,
                "velocity": 40,
                "duration": 0.1181818,
                "tempo": 120.0
            },
            {
                "start_time": 26.3659091,
                "end_time": 26.5022727,
                "pitch": 55,
                "velocity": 40,
                "duration": 0.1363636,
                "tempo": 120.0
            },
            {
                "start_time": 26.5022727,
                "end_time": 26.6204545,
                "pitch": 62,
                "velocity": 40,
                "duration": 0.1181818,
                "tempo": 120.0
            },
            {
                "start_time": 26.6204545,
                "end_time": 26.7409091,
                "pitch": 67,
                "velocity": 40,
                "duration": 0.1204545,
                "tempo": 120.0
            },
            {
                "start_time": 26.7409091,
                "end_time": 26.8590909,
                "pitch": 62,
                "velocity": 40,
                "duration": 0.1181818,
                "tempo": 120.0
            },
            {
                "start_time": 26.8613636,
                "end_time": 26.9795455,
                "pitch": 67,
                "velocity": 40,
                "duration": 0.1181818,
                "tempo": 120.0
            },
            {
                "start_time": 26.9795455,
                "end_time": 27.1068182,
                "pitch": 76,
                "velocity": 40,
                "duration": 0.1272727,
                "tempo": 120.0
            },
            {
                "start_time": 27.1068182,
                "end_time": 27.2204545,
                "pitch": 81,
                "velocity": 40,
                "duration": 0.1136364,
                "tempo": 120.0
            },
            {
                "start_time": 27.2204545,
                "end_time": 27.3318182,
                "pitch": 52,
                "velocity": 40,
                "duration": 0.1113636,
                "tempo": 120.0
            },
            {
                "start_time": 27.3318182,
                "end_time": 27.4454545,
                "pitch": 57,
                "velocity": 40,
                "duration": 0.1136364,
                "tempo": 120.0
            },
            {
                "start_time": 27.4454545,
                "end_time": 27.5636364,
                "pitch": 64,
                "velocity": 40,
                "duration": 0.1181818,
                "tempo": 120.0
            },
            {
                "start_time": 27.5636364,
                "end_time": 27.7,
                "pitch": 69,
                "velocity": 40,
                "duration": 0.1363636,
                "tempo": 120.0
            },
            {
                "start_time": 27.7022727,
                "end_time": 27.8204545,
                "pitch": 64,
                "velocity": 40,
                "duration": 0.1181818,
                "tempo": 120.0
            },
            {
                "start_time": 27.8204545,
                "end_time": 27.9409091,
                "pitch": 69,
                "velocity": 40,
                "duration": 0.1204545,
                "tempo": 120.0
            },
            {
                "start_time": 27.9409091,
                "end_time": 28.0590909,
                "pitch": 76,
                "velocity": 40,
                "duration": 0.1181818,
                "tempo": 120.0
            },
            {
                "start_time": 28.0590909,
                "end_time": 28.175,
                "pitch": 81,
                "velocity": 40,
                "duration": 0.1159091,
                "tempo": 120.0
            },
            {
                "start_time": 28.175,
                "end_time": 28.3113636,
                "pitch": 52,
                "velocity": 40,
                "duration": 0.1363636,
                "tempo": 120.0
            },
            {
                "start_time": 28.3113636,
                "end_time": 28.4272727,
                "pitch": 57,
                "velocity": 40,
                "duration": 0.1159091,
                "tempo": 120.0
            },
            {
                "start_time": 28.4272727,
                "end_time": 28.5477273,
                "pitch": 64,
                "velocity": 40,
                "duration": 0.1204545,
                "tempo": 120.0
            },
            {
                "start_time": 28.5477273,
                "end_time": 28.6681818,
                "pitch": 69,
                "velocity": 40,
                "duration": 0.1204545,
                "tempo": 120.0
            },
            {
                "start_time": 28.6681818,
                "end_time": 28.7863636,
                "pitch": 64,
                "velocity": 40,
                "duration": 0.1181818,
                "tempo": 120.0
            },
            {
                "start_time": 28.7863636,
                "end_time": 28.925,
                "pitch": 69,
                "velocity": 40,
                "duration": 0.1386364,
                "tempo": 120.0
            },
            {
                "start_time": 28.925,
                "end_time": 29.0409091,
                "pitch": 76,
                "velocity": 40,
                "duration": 0.1159091,
                "tempo": 120.0
            },
            {
                "start_time": 29.0409091,
                "end_time": 29.1590909,
                "pitch": 81,
                "velocity": 40,
                "duration": 0.1181818,
                "tempo": 120.0
            },
            {
                "start_time": 29.1590909,
                "end_time": 29.2772727,
                "pitch": 52,
                "velocity": 40,
                "duration": 0.1181818,
                "tempo": 120.0
            },
            {
                "start_time": 29.2772727,
                "end_time": 29.3954545,
                "pitch": 57,
                "velocity": 40,
                "duration": 0.1181818,
                "tempo": 120.0
            },
            {
                "start_time": 29.3954545,
                "end_time": 29.5272727,
                "pitch": 64,
                "velocity": 40,
                "duration": 0.1318182,
                "tempo": 120.0
            },
            {
                "start_time": 29.5272727,
                "end_time": 29.6409091,
                "pitch": 69,
                "velocity": 40,
                "duration": 0.1136364,
                "tempo": 120.0
            },
            {
                "start_time": 29.6409091,
                "end_time": 29.7568182,
                "pitch": 64,
                "velocity": 40,
                "duration": 0.1159091,
                "tempo": 120.0
            },
            {
                "start_time": 29.7568182,
                "end_time": 29.8704545,
                "pitch": 69,
                "velocity": 40,
                "duration": 0.1136364,
                "tempo": 120.0
            },
            {
                "start_time": 29.8704545,
                "end_time": 29.9886364,
                "pitch": 76,
                "velocity": 40,
                "duration": 0.1181818,
                "tempo": 120.0
            },
            {
                "start_time": 29.9886364,
                "end_time": 30.1227273,
                "pitch": 81,
                "velocity": 40,
                "duration": 0.1340909,
                "tempo": 120.0
            },
            {
                "start_time": 30.1227273,
                "end_time": 30.2409091,
                "pitch": 52,
                "velocity": 40,
                "duration": 0.1181818,
                "tempo": 120.0
            },
            {
                "start_time": 30.2409091,
                "end_time": 30.3590909,
                "pitch": 57,
                "velocity": 40,
                "duration": 0.1181818,
                "tempo": 120.0
            },
            {
                "start_time": 30.3590909,
                "end_time": 30.4795455,
                "pitch": 64,
                "velocity": 40,
                "duration": 0.1204545,
                "tempo": 120.0
            },
            {
                "start_time": 30.4795455,
                "end_time": 30.5977273,
                "pitch": 69,
                "velocity": 40,
                "duration": 0.1181818,
                "tempo": 120.0
            },
            {
                "start_time": 30.6,
                "end_time": 30.7363636,
                "pitch": 64,
                "velocity": 40,
                "duration": 0.1363636,
                "tempo": 120.0
            },
            {
                "start_time": 30.7363636,
                "end_time": 30.8545455,
                "pitch": 69,
                "velocity": 40,
                "duration": 0.1181818,
                "tempo": 120.0
            }
        ],
        "Church Organ": [
            {
                "start_time": 0.0045455,
                "end_time": 3.7727273,
                "pitch": 67,
                "velocity": 80,
                "duration": 3.7681818,
                "tempo": 120.0
            },
            {
                "start_time": 3.775,
                "end_time": 7.6318182,
                "pitch": 64,
                "velocity": 80,
                "duration": 3.8568182,
                "tempo": 120.0
            },
            {
                "start_time": 7.6318182,
                "end_time": 11.5068182,
                "pitch": 60,
                "velocity": 80,
                "duration": 3.875,
                "tempo": 120.0
            },
            {
                "start_time": 11.5068182,
                "end_time": 15.3613636,
                "pitch": 62,
                "velocity": 80,
                "duration": 3.8545455,
                "tempo": 120.0
            },
            {
                "start_time": 15.3613636,
                "end_time": 19.2409091,
                "pitch": 69,
                "velocity": 80,
                "duration": 3.8795455,
                "tempo": 120.0
            },
            {
                "start_time": 19.2431818,
                "end_time": 23.1,
                "pitch": 66,
                "velocity": 80,
                "duration": 3.8568182,
                "tempo": 120.0
            },
            {
                "start_time": 23.1,
                "end_time": 26.9795455,
                "pitch": 62,
                "velocity": 80,
                "duration": 3.8795455,
                "tempo": 120.0
            },
            {
                "start_time": 26.9795455,
                "end_time": 30.8545455,
                "pitch": 64,
                "velocity": 80,
                "duration": 3.875,
                "tempo": 120.0
            }
        ]
    }
}