{
    "mood": "angry",
    "instruments": {
        "Trumpet": [
            {
                "start_time": 12.8659091,
                "end_time": 14.2522727,
                "pitch": 69,
                "velocity": 101,
                "duration": 1.3863636,
                "tempo": 120.0
            },
            {
                "start_time": 14.2704545,
                "end_time": 14.3522727,
                "pitch": 69,
                "velocity": 101,
                "duration": 0.0818182,
                "tempo": 120.0
            },
            {
                "start_time": 14.3704545,
                "end_time": 14.4522727,
                "pitch": 69,
                "velocity": 101,
                "duration": 0.0818182,
                "tempo": 120.0
            },
            {
                "start_time": 14.4727273,
                "end_time": 15.8636364,
                "pitch": 67,
                "velocity": 101,
                "duration": 1.3909091,
                "tempo": 120.0
            },
            {
                "start_time": 15.8818182,
                "end_time": 15.9636364,
                "pitch": 67,
                "velocity": 101,
                "duration": 0.0818182,
                "tempo": 120.0
            },
            {
                "start_time": 15.9818182,
                "end_time": 16.0636364,
                "pitch": 67,
                "velocity": 101,
                "duration": 0.0818182,
                "tempo": 120.0
            },
            {
                "start_time": 16.0818182,
                "end_time": 17.4681818,
                "pitch": 71,
                "velocity": 101,
                "duration": 1.3863636,
                "tempo": 120.0
            },
            {
                "start_time": 17.4863636,
                "end_time": 17.5681818,
                "pitch": 71,
                "velocity": 101,
                "duration": 0.0818182,
                "tempo": 120.0
            },
            {
                "start_time": 17.5863636,
                "end_time": 17.6681818,
                "pitch": 71,
                "velocity": 101,
                "duration": 0.0818182,
                "tempo": 120.0
            },
            {
                "start_time": 17.6863636,
                "end_time": 19.2772727,
                "pitch": 72,
                "velocity": 101,
                "duration": 1.5909091,
                "tempo": 120.0
            },
            {
                "start_time": 19.2954545,
                "end_time": 20.6909091,
                "pitch": 72,
                "velocity": 101,
                "duration": 1.3954545,
                "tempo": 120.0
            },
            {
                "start_time": 20.7090909,
                "end_time": 20.7909091,
                "pitch": 72,
                "velocity": 101,
                "duration": 0.0818182,
                "tempo": 120.0
            },
            {
                "start_time": 20.8090909,
                "end_time": 20.8909091,
                "pitch": 72,
                "velocity": 101,
                "duration": 0.0818182,
                "tempo": 120.0
            },
            {
                "start_time": 20.9113636,
                "end_time": 22.2977273,
                "pitch": 71,
                "velocity": 101,
                "duration": 1.3863636,
                "tempo": 120.0
            },
            {
                "start_time": 22.3159091,
                "end_time": 22.3977273,
                "pitch": 71,
                "velocity": 101,
                "duration": 0.0818182,
                "tempo": 120.0
            },
            {
                "start_time": 22.4159091,
                "end_time": 22.5,
                "pitch": 71,
                "velocity": 101,
                "duration": 0.0840909,
                "tempo": 120.0
            },
            {
                "start_time": 22.5181818,
                "end_time": 23.9068182,
                "pitch": 74,
                "velocity": 101,
                "duration": 1.3886364,
                "tempo": 120.0
            },
            {
                "start_time": 23.925,
                "end_time": 24.0068182,
                "pitch": 76,
                "velocity": 101,
                "duration": 0.0818182,
                "tempo": 120.0
            },
            {
                "start_time": 24.025,
                "end_time": 24.1068182,
                "pitch": 74,
                "velocity": 101,
                "duration": 0.0818182,
                "tempo": 120.0
            },
            {
                "start_time": 24.125,
                "end_time": 25.7136364,
                "pitch": 72,
                "velocity": 101,
                "duration": 1.5886364,
                "tempo": 120.0
            }
        ],
        "Electric Guitar (clean)": [
            {
                "start_time": 0.0090909,
                "end_time": 0.0977273,
                "pitch": 33,
                "velocity": 101,
                "duration": 0.0886364,
                "tempo": 120.0
            },
            {
                "start_time": 0.0977273,
                "end_time": 0.1977273,
                "pitch": 36,
                "velocity": 51,
                "duration": 0.1,
                "tempo": 120.0
            },
            {
                "start_time": 0.1977273,
                "end_time": 0.2977273,
                "pitch": 35,
                "velocity": 51,
                "duration": 0.1,
                "tempo": 120.0
            },
            {
                "start_time": 0.0977273,
                "end_time": 0.2977273,
                "pitch": 40,
                "velocity": 101,
                "duration": 0.2,
                "tempo": 120.0
            },
            {
                "start_time": 0.2977273,
                "end_time": 0.3977273,
                "pitch": 36,
                "velocity": 51,
                "duration": 0.1,
                "tempo": 120.0
            },
            {
                "start_time": 0.3977273,
                "end_time": 0.4931818,
                "pitch": 33,
                "velocity": 101,
                "duration": 0.0954545,
                "tempo": 120.0
            },
            {
                "start_time": 0.2977273,
                "end_time": 0.4931818,
                "pitch": 40,
                "velocity": 51,
                "duration": 0.1954545,
                "tempo": 120.0
            },
            {
                "start_time": 0.1977273,
                "end_time": 0.5886364,
                "pitch": 19,
                "velocity": 51,
                "duration": 0.3909091,
                "tempo": 120.0
            },
            {
                "start_time": 0.4931818,
                "end_time": 0.5886364,
                "pitch": 36,
                "velocity": 51,
                "duration": 0.0954545,
                "tempo": 120.0
            },
            {
                "start_time": 0.5886364,
                "end_time": 0.6840909,
                "pitch": 35,
                "velocity": 51,
                "duration": 0.0954545,
                "tempo": 120.0
            },
            {
                "start_time": 0.4931818,
                "end_time": 0.6840909,
                "pitch": 40,
                "velocity": 101,
                "duration": 0.1909091,
                "tempo": 120.0
            },
            {
                "start_time": 0.3977273,
                "end_time": 0.7795455,
                "pitch": 7,
                "velocity": 51,
                "duration": 0.3818182,
                "tempo": 120.0
            },
            {
                "start_time": 0.6840909,
                "end_time": 0.7795455,
                "pitch": 36,
                "velocity": 51,
                "duration": 0.0954545,
                "tempo": 120.0
            },
            {
                "start_time": 0.7795455,
                "end_time": 0.8795455,
                "pitch": 33,
                "velocity": 101,
                "duration": 0.1,
                "tempo": 120.0
            },
            {
                "start_time": 0.6840909,
                "end_time": 0.8795455,
                "pitch": 40,
                "velocity": 51,
                "duration": 0.1954545,
                "tempo": 120.0
            },
            {
                "start_time": 0.5886364,
                "end_time": 0.9795455,
                "pitch": 19,
                "velocity": 51,
                "duration": 0.3909091,
                "tempo": 120.0
            },
            {
                "start_time": 0.8795455,
                "end_time": 0.9795455,
                "pitch": 36,
                "velocity": 51,
                "duration": 0.1,
                "tempo": 120.0
            },
            {
                "start_time": 0.9795455,
                "end_time": 1.0795455,
                "pitch": 35,
                "velocity": 51,
                "duration": 0.1,
                "tempo": 120.0
            },
            {
                "start_time": 0.8795455,
                "end_time": 1.0795455,
                "pitch": 40,
                "velocity": 101,
                "duration": 0.2,
                "tempo": 120.0
            },
            {
                "start_time": 0.7795455,
                "end_time": 1.1818182,
                "pitch": 7,
                "velocity": 51,
                "duration": 0.4022727,
                "tempo": 120.0
            },
            {
                "start_time": 1.0795455,
                "end_time": 1.1818182,
                "pitch": 36,
                "velocity": 51,
                "duration": 0.1022727,
                "tempo": 120.0
            },
            {
                "start_time": 1.1818182,
                "end_time": 1.2795455,
                "pitch": 33,
                "velocity": 101,
                "duration": 0.0977273,
                "tempo": 120.0
            },
            {
                "start_time": 1.0795455,
                "end_time": 1.2795455,
                "pitch": 40,
                "velocity": 51,
                "duration": 0.2,
                "tempo": 120.0
            },
            {
                "start_time": 0.9795455,
                "end_time": 1.3795455,
                "pitch": 19,
                "velocity": 51,
                "duration": 0.4,
                "tempo": 120.0
            },
            {
                "start_time": 1.2795455,
                "end_time": 1.3795455,
                "pitch": 36,
                "velocity": 51,
                "duration": 0.1,
                "tempo": 120.0
            },
            {
                "start_time": 1.3795455,
                "end_time": 1.4795455,
                "pitch": 35,
                "velocity": 51,
                "duration": 0.1,
                "tempo": 120.0
            },
            {
                "start_time": 1.2795455,
                "end_time": 1.4795455,
                "pitch": 40,
                "velocity": 101,
                "duration": 0.2,
                "tempo": 120.0
            },
            {
                "start_time": 1.4818182,
                "end_time": 1.5840909,
                "pitch": 36,
                "velocity": 51,
                "duration": 0.1022727,
                "tempo": 120.0
            },
            {
                "start_time": 1.5840909,
                "end_time": 1.6818182,
                "pitch": 31,
                "velocity": 101,
                "duration": 0.0977273,
                "tempo": 120.0
            },
            {
                "start_time": 1.6818182,
                "end_time": 1.7818182,
                "pitch": 35,
                "velocity": 51,
                "duration": 0.1,
                "tempo": 120.0
            },
            {
                "start_time": 1.6818182,
                "end_time": 1.7818182,
                "pitch": 35,
                "velocity": 101,
                "duration": 0.1,
                "tempo": 120.0
            },
            {
                "start_time": 1.7818182,
                "end_time": 1.8840909,
                "pitch": 33,
                "velocity": 51,
                "duration": 0.1022727,
                "tempo": 120.0
            },
            {
                "start_time": 1.8840909,
                "end_time": 1.9840909,
                "pitch": 35,
                "velocity": 51,
                "duration": 0.1,
                "tempo": 120.0
            },
            {
                "start_time": 1.9840909,
                "end_time": 2.0863636,
                "pitch": 31,
                "velocity": 51,
                "duration": 0.1022727,
                "tempo": 120.0
            },
            {
                "start_time": 1.9840909,
                "end_time": 2.0863636,
                "pitch": 31,
                "velocity": 101,
                "duration": 0.1022727,
                "tempo": 120.0
            },
            {
                "start_time": 2.0863636,
                "end_time": 2.1886364,
                "pitch": 35,
                "velocity": 51,
                "duration": 0.1022727,
                "tempo": 120.0
            },
            {
                "start_time": 2.0863636,
                "end_time": 2.1886364,
                "pitch": 35,
                "velocity": 101,
                "duration": 0.1022727,
                "tempo": 120.0
            },
            {
                "start_time": 2.1886364,
                "end_time": 2.2931818,
                "pitch": 33,
                "velocity": 51,
                "duration": 0.1045455,
                "tempo": 120.0
            },
            {
                "start_time": 2.2931818,
                "end_time": 2.3954545,
                "pitch": 35,
                "velocity": 51,
                "duration": 0.1022727,
                "tempo": 120.0
            },
            {
                "start_time": 2.3954545,
                "end_time": 2.4954545,
                "pitch": 31,
                "velocity": 51,
                "duration": 0.1,
                "tempo": 120.0
            },
            {
                "start_time": 2.3954545,
                "end_time": 2.4954545,
                "pitch": 31,
                "velocity": 101,
                "duration": 0.1,
                "tempo": 120.0
            },
            {
                "start_time": 2.4954545,
                "end_time": 2.5977273,
                "pitch": 35,
                "velocity": 51,
                "duration": 0.1022727,
                "tempo": 120.0
            },
            {
                "start_time": 2.4954545,
                "end_time": 2.5977273,
                "pitch": 35,
                "velocity": 101,
                "duration": 0.1022727,
                "tempo": 120.0
            },
            {
                "start_time": 2.5977273,
                "end_time": 2.6977273,
                "pitch": 33,
                "velocity": 51,
                "duration": 0.1,
                "tempo": 120.0
            },
            {
                "start_time": 2.6977273,
                "end_time": 2.8,
                "pitch": 35,
                "velocity": 51,
                "duration": 0.1022727,
                "tempo": 120.0
            },
            {
                "start_time": 2.8,
                "end_time": 2.8977273,
                "pitch": 31,
                "velocity": 51,
                "duration": 0.0977273,
                "tempo": 120.0
            },
            {
                "start_time": 2.8,
                "end_time": 2.8977273,
                "pitch": 31,
                "velocity": 101,
                "duration": 0.0977273,
                "tempo": 120.0
            },
            {
                "start_time": 2.8977273,
                "end_time": 2.9,
                "pitch": 35,
                "velocity": 101,
                "duration": 0.0022727,
                "tempo": 120.0
            },
            {
                "start_time": 2.9,
                "end_time": 3.0,
                "pitch": 35,
                "velocity": 51,
                "duration": 0.1,
                "tempo": 120.0
            },
            {
                "start_time": 3.0,
                "end_time": 3.1,
                "pitch": 33,
                "velocity": 51,
                "duration": 0.1,
                "tempo": 120.0
            },
            {
                "start_time": 3.1,
                "end_time": 3.2022727,
                "pitch": 35,
                "velocity": 51,
                "duration": 0.1022727,
                "tempo": 120.0
            },
            {
                "start_time": 3.2022727,
                "end_time": 3.3,
                "pitch": 35,
                "velocity": 101,
                "duration": 0.0977273,
                "tempo": 120.0
            },
            {
                "start_time": 3.3,
                "end_time": 3.4,
                "pitch": 38,
                "velocity": 51,
                "duration": 0.1,
                "tempo": 120.0
            },
            {
                "start_time": 3.4,
                "end_time": 3.5,
                "pitch": 36,
                "velocity": 51,
                "duration": 0.1,
                "tempo": 120.0
            },
            {
                "start_time": 3.4,
                "end_time": 3.5,
                "pitch": 36,
                "velocity": 51,
                "duration": 0.1,
                "tempo": 120.0
            },
            {
                "start_time": 1.3795455,
                "end_time": 3.6,
                "pitch": 19,
                "velocity": 51,
                "duration": 2.2204545,
                "tempo": 120.0
            },
            {
                "start_time": 3.5,
                "end_time": 3.6,
                "pitch": 38,
                "velocity": 51,
                "duration": 0.1,
                "tempo": 120.0
            },
            {
                "start_time": 3.5,
                "end_time": 3.6,
                "pitch": 38,
                "velocity": 51,
                "duration": 0.1,
                "tempo": 120.0
            },
            {
                "start_time": 3.6,
                "end_time": 3.7,
                "pitch": 35,
                "velocity": 101,
                "duration": 0.1,
                "tempo": 120.0
            },
            {
                "start_time": 3.3,
                "end_time": 3.7,
                "pitch": 41,
                "velocity": 101,
                "duration": 0.4,
                "tempo": 120.0
            },
            {
                "start_time": 3.7,
                "end_time": 3.8,
                "pitch": 38,
                "velocity": 51,
                "duration": 0.1,
                "tempo": 120.0
            },
            {
                "start_time": 3.8,
                "end_time": 3.9,
                "pitch": 36,
                "velocity": 51,
                "duration": 0.1,
                "tempo": 120.0
            },
            {
                "start_time": 3.8,
                "end_time": 3.9,
                "pitch": 36,
                "velocity": 51,
                "duration": 0.1,
                "tempo": 120.0
            },
            {
                "start_time": 3.6,
                "end_time": 4.0,
                "pitch": 19,
                "velocity": 51,
                "duration": 0.4,
                "tempo": 120.0
            },
            {
                "start_time": 3.9,
                "end_time": 4.0,
                "pitch": 38,
                "velocity": 51,
                "duration": 0.1,
                "tempo": 120.0
            },
            {
                "start_time": 3.9,
                "end_time": 4.0,
                "pitch": 38,
                "velocity": 51,
                "duration": 0.1,
                "tempo": 120.0
            },
            {
                "start_time": 4.0,
                "end_time": 4.1,
                "pitch": 35,
                "velocity": 101,
                "duration": 0.1,
                "tempo": 120.0
            },
            {
                "start_time": 3.7,
                "end_time": 4.1,
                "pitch": 41,
                "velocity": 101,
                "duration": 0.4,
                "tempo": 120.0
            },
            {
                "start_time": 4.1,
                "end_time": 4.2,
                "pitch": 38,
                "velocity": 51,
                "duration": 0.1,
                "tempo": 120.0
            },
            {
                "start_time": 4.2,
                "end_time": 4.3,
                "pitch": 36,
                "velocity": 51,
                "duration": 0.1,
                "tempo": 120.0
            },
            {
                "start_time": 4.2,
                "end_time": 4.3,
                "pitch": 36,
                "velocity": 51,
                "duration": 0.1,
                "tempo": 120.0
            },
            {
                "start_time": 4.0,
                "end_time": 4.4022727,
                "pitch": 19,
                "velocity": 51,
                "duration": 0.4022727,
                "tempo": 120.0
            },
            {
                "start_time": 4.3,
                "end_time": 4.4022727,
                "pitch": 38,
                "velocity": 51,
                "duration": 0.1022727,
                "tempo": 120.0
            },
            {
                "start_time": 4.3,
                "end_time": 4.4022727,
                "pitch": 38,
                "velocity": 51,
                "duration": 0.1022727,
                "tempo": 120.0
            },
            {
                "start_time": 4.4022727,
                "end_time": 4.5022727,
                "pitch": 35,
                "velocity": 101,
                "duration": 0.1,
                "tempo": 120.0
            },
            {
                "start_time": 4.1,
                "end_time": 4.5022727,
                "pitch": 41,
                "velocity": 101,
                "duration": 0.4022727,
                "tempo": 120.0
            },
            {
                "start_time": 4.5022727,
                "end_time": 4.6022727,
                "pitch": 38,
                "velocity": 51,
                "duration": 0.1,
                "tempo": 120.0
            },
            {
                "start_time": 4.6022727,
                "end_time": 4.7022727,
                "pitch": 36,
                "velocity": 51,
                "duration": 0.1,
                "tempo": 120.0
            },
            {
                "start_time": 4.6022727,
                "end_time": 4.7022727,
                "pitch": 36,
                "velocity": 51,
                "duration": 0.1,
                "tempo": 120.0
            },
            {
                "start_time": 1.1818182,
                "end_time": 4.8068182,
                "pitch": 7,
                "velocity": 51,
                "duration": 3.625,
                "tempo": 120.0
            },
            {
                "start_time": 4.7022727,
                "end_time": 4.8068182,
                "pitch": 38,
                "velocity": 51,
                "duration": 0.1045455,
                "tempo": 120.0
            },
            {
                "start_time": 4.7022727,
                "end_time": 4.8068182,
                "pitch": 38,
                "velocity": 51,
                "duration": 0.1045455,
                "tempo": 120.0
            },
            {
                "start_time": 4.8068182,
                "end_time": 4.9045455,
                "pitch": 33,
                "velocity": 101,
                "duration": 0.0977273,
                "tempo": 120.0
            },
            {
                "start_time": 1.4795455,
                "end_time": 4.9045455,
                "pitch": 40,
                "velocity": 51,
                "duration": 3.425,
                "tempo": 120.0
            },
            {
                "start_time": 4.4022727,
                "end_time": 5.0045455,
                "pitch": 19,
                "velocity": 51,
                "duration": 0.6022727,
                "tempo": 120.0
            },
            {
                "start_time": 4.9045455,
                "end_time": 5.0045455,
                "pitch": 36,
                "velocity": 51,
                "duration": 0.1,
                "tempo": 120.0
            },
            {
                "start_time": 5.0045455,
                "end_time": 5.1045455,
                "pitch": 35,
                "velocity": 51,
                "duration": 0.1,
                "tempo": 120.0
            },
            {
                "start_time": 4.9045455,
                "end_time": 5.1045455,
                "pitch": 40,
                "velocity": 101,
                "duration": 0.2,
                "tempo": 120.0
            },
            {
                "start_time": 4.8068182,
                "end_time": 5.2045455,
                "pitch": 7,
                "velocity": 51,
                "duration": 0.3977273,
                "tempo": 120.0
            },
            {
                "start_time": 5.1045455,
                "end_time": 5.2045455,
                "pitch": 36,
                "velocity": 51,
                "duration": 0.1,
                "tempo": 120.0
            },
            {
                "start_time": 5.2045455,
                "end_time": 5.3045455,
                "pitch": 33,
                "velocity": 101,
                "duration": 0.1,
                "tempo": 120.0
            },
            {
                "start_time": 5.1045455,
                "end_time": 5.3045455,
                "pitch": 40,
                "velocity": 51,
                "duration": 0.2,
                "tempo": 120.0
            },
            {
                "start_time": 5.0045455,
                "end_time": 5.4068182,
                "pitch": 19,
                "velocity": 51,
                "duration": 0.4022727,
                "tempo": 120.0
            },
            {
                "start_time": 5.3045455,
                "end_time": 5.4068182,
                "pitch": 36,
                "velocity": 51,
                "duration": 0.1022727,
                "tempo": 120.0
            },
            {
                "start_time": 5.4068182,
                "end_time": 5.5068182,
                "pitch": 35,
                "velocity": 51,
                "duration": 0.1,
                "tempo": 120.0
            },
            {
                "start_time": 5.3045455,
                "end_time": 5.5068182,
                "pitch": 40,
                "velocity": 101,
                "duration": 0.2022727,
                "tempo": 120.0
            },
            {
                "start_time": 5.2045455,
                "end_time": 5.6090909,
                "pitch": 7,
                "velocity": 51,
                "duration": 0.4045455,
                "tempo": 120.0
            },
            {
                "start_time": 5.5068182,
                "end_time": 5.6090909,
                "pitch": 36,
                "velocity": 51,
                "duration": 0.1022727,
                "tempo": 120.0
            },
            {
                "start_time": 5.6090909,
                "end_time": 5.7090909,
                "pitch": 33,
                "velocity": 101,
                "duration": 0.1,
                "tempo": 120.0
            },
            {
                "start_time": 5.5068182,
                "end_time": 5.7090909,
                "pitch": 40,
                "velocity": 51,
                "duration": 0.2022727,
                "tempo": 120.0
            },
            {
                "start_time": 5.4068182,
                "end_time": 5.8090909,
                "pitch": 19,
                "velocity": 51,
                "duration": 0.4022727,
                "tempo": 120.0
            },
            {
                "start_time": 5.7090909,
                "end_time": 5.8090909,
                "pitch": 36,
                "velocity": 51,
                "duration": 0.1,
                "tempo": 120.0
            },
            {
                "start_time": 5.8090909,
                "end_time": 5.9090909,
                "pitch": 35,
                "velocity": 51,
                "duration": 0.1,
                "tempo": 120.0
            },
            {
                "start_time": 5.7090909,
                "end_time": 5.9090909,
                "pitch": 40,
                "velocity": 101,
                "duration": 0.2,
                "tempo": 120.0
            },
            {
                "start_time": 5.6090909,
                "end_time": 6.0113636,
                "pitch": 7,
                "velocity": 51,
                "duration": 0.4022727,
                "tempo": 120.0
            },
            {
                "start_time": 5.9090909,
                "end_time": 6.0113636,
                "pitch": 36,
                "velocity": 51,
                "duration": 0.1022727,
                "tempo": 120.0
            },
            {
                "start_time": 6.0113636,
                "end_time": 6.1113636,
                "pitch": 33,
                "velocity": 101,
                "duration": 0.1,
                "tempo": 120.0
            },
            {
                "start_time": 5.9090909,
                "end_time": 6.1113636,
                "pitch": 40,
                "velocity": 51,
                "duration": 0.2022727,
                "tempo": 120.0
            },
            {
                "start_time": 5.8090909,
                "end_time": 6.2113636,
                "pitch": 19,
                "velocity": 51,
                "duration": 0.4022727,
                "tempo": 120.0
            },
            {
                "start_time": 6.1113636,
                "end_time": 6.2113636,
                "pitch": 36,
                "velocity": 51,
                "duration": 0.1,
                "tempo": 120.0
            },
            {
                "start_time": 6.2113636,
                "end_time": 6.3113636,
                "pitch": 35,
                "velocity": 51,
                "duration": 0.1,
                "tempo": 120.0
            },
            {
                "start_time": 6.1113636,
                "end_time": 6.3113636,
                "pitch": 40,
                "velocity": 101,
                "duration": 0.2,
                "tempo": 120.0
            },
            {
                "start_time": 6.0113636,
                "end_time": 6.4159091,
                "pitch": 7,
                "velocity": 51,
                "duration": 0.4045455,
                "tempo": 120.0
            },
            {
                "start_time": 6.3113636,
                "end_time": 6.4159091,
                "pitch": 36,
                "velocity": 51,
                "duration": 0.1045455,
                "tempo": 120.0
            },
            {
                "start_time": 6.4159091,
                "end_time": 6.5113636,
                "pitch": 33,
                "velocity": 101,
                "duration": 0.0954545,
                "tempo": 120.0
            },
            {
                "start_time": 6.3113636,
                "end_time": 6.5113636,
                "pitch": 40,
                "velocity": 51,
                "duration": 0.2,
                "tempo": 120.0
            },
            {
                "start_time": 6.2113636,
                "end_time": 6.6136364,
                "pitch": 19,
                "velocity": 51,
                "duration": 0.4022727,
                "tempo": 120.0
            },
            {
                "start_time": 6.5113636,
                "end_time": 6.6136364,
                "pitch": 36,
                "velocity": 51,
                "duration": 0.1022727,
                "tempo": 120.0
            },
            {
                "start_time": 6.6136364,
                "end_time": 6.7136364,
                "pitch": 35,
                "velocity": 51,
                "duration": 0.1,
                "tempo": 120.0
            },
            {
                "start_time": 6.5113636,
                "end_time": 6.7136364,
                "pitch": 40,
                "velocity": 101,
                "duration": 0.2022727,
                "tempo": 120.0
            },
            {
                "start_time": 6.4159091,
                "end_time": 6.8159091,
                "pitch": 7,
                "velocity": 51,
                "duration": 0.4,
                "tempo": 120.0
            },
            {
                "start_time": 6.7136364,
                "end_time": 6.8159091,
                "pitch": 36,
                "velocity": 51,
                "duration": 0.1022727,
                "tempo": 120.0
            },
            {
                "start_time": 6.8159091,
                "end_time": 6.9159091,
                "pitch": 33,
                "velocity": 101,
                "duration": 0.1,
                "tempo": 120.0
            },
            {
                "start_time": 6.7136364,
                "end_time": 6.9159091,
                "pitch": 40,
                "velocity": 51,
                "duration": 0.2022727,
                "tempo": 120.0
            },
            {
                "start_time": 6.6136364,
                "end_time": 7.0159091,
                "pitch": 19,
                "velocity": 51,
                "duration": 0.4022727,
                "tempo": 120.0
            },
            {
                "start_time": 6.9159091,
                "end_time": 7.0159091,
                "pitch": 36,
                "velocity": 51,
                "duration": 0.1,
                "tempo": 120.0
            },
            {
                "start_time": 7.0159091,
                "end_time": 7.1159091,
                "pitch": 35,
                "velocity": 51,
                "duration": 0.1,
                "tempo": 120.0
            },
            {
                "start_time": 6.9159091,
                "end_time": 7.1159091,
                "pitch": 40,
                "velocity": 101,
                "duration": 0.2,
                "tempo": 120.0
            },
            {
                "start_time": 6.8159091,
                "end_time": 7.2159091,
                "pitch": 7,
                "velocity": 51,
                "duration": 0.4,
                "tempo": 120.0
            },
            {
                "start_time": 7.1159091,
                "end_time": 7.2159091,
                "pitch": 36,
                "velocity": 51,
                "duration": 0.1,
                "tempo": 120.0
            },
            {
                "start_time": 7.2159091,
                "end_time": 7.3159091,
                "pitch": 33,
                "velocity": 101,
                "duration": 0.1,
                "tempo": 120.0
            },
            {
                "start_time": 7.1159091,
                "end_time": 7.3159091,
                "pitch": 40,
                "velocity": 51,
                "duration": 0.2,
                "tempo": 120.0
            },
            {
                "start_time": 7.0159091,
                "end_time": 7.4159091,
                "pitch": 19,
                "velocity": 51,
                "duration": 0.4,
                "tempo": 120.0
            },
            {
                "start_time": 7.3159091,
                "end_time": 7.4159091,
                "pitch": 36,
                "velocity": 51,
                "duration": 0.1,
                "tempo": 120.0
            },
            {
                "start_time": 7.4159091,
                "end_time": 7.5181818,
                "pitch": 35,
                "velocity": 51,
                "duration": 0.1022727,
                "tempo": 120.0
            },
            {
                "start_time": 7.3159091,
                "end_time": 7.5181818,
                "pitch": 40,
                "velocity": 101,
                "duration": 0.2022727,
                "tempo": 120.0
            },
            {
                "start_time": 7.2159091,
                "end_time": 7.6181818,
                "pitch": 7,
                "velocity": 51,
                "duration": 0.4022727,
                "tempo": 120.0
            },
            {
                "start_time": 7.5181818,
                "end_time": 7.6181818,
                "pitch": 36,
                "velocity": 51,
                "duration": 0.1,
                "tempo": 120.0
            },
            {
                "start_time": 7.6181818,
                "end_time": 7.7181818,
                "pitch": 33,
                "velocity": 101,
                "duration": 0.1,
                "tempo": 120.0
            },
            {
                "start_time": 7.5181818,
                "end_time": 7.7181818,
                "pitch": 40,
                "velocity": 51,
                "duration": 0.2,
                "tempo": 120.0
            },
            {
                "start_time": 7.4159091,
                "end_time": 7.8204545,
                "pitch": 19,
                "velocity": 51,
                "duration": 0.4045455,
                "tempo": 120.0
            },
            {
                "start_time": 7.7181818,
                "end_time": 7.8204545,
                "pitch": 36,
                "velocity": 51,
                "duration": 0.1022727,
                "tempo": 120.0
            },
            {
                "start_time": 7.8204545,
                "end_time": 7.9204545,
                "pitch": 35,
                "velocity": 51,
                "duration": 0.1,
                "tempo": 120.0
            },
            {
                "start_time": 7.7181818,
                "end_time": 7.9204545,
                "pitch": 40,
                "velocity": 101,
                "duration": 0.2022727,
                "tempo": 120.0
            },
            {
                "start_time": 1.5840909,
                "end_time": 8.025,
                "pitch": 0,
                "velocity": 51,
                "duration": 6.4409091,
                "tempo": 120.0
            },
            {
                "start_time": 7.9204545,
                "end_time": 8.025,
                "pitch": 36,
                "velocity": 51,
                "duration": 0.1045455,
                "tempo": 120.0
            },
            {
                "start_time": 8.025,
                "end_time": 8.1227273,
                "pitch": 31,
                "velocity": 101,
                "duration": 0.0977273,
                "tempo": 120.0
            },
            {
                "start_time": 8.1227273,
                "end_time": 8.2227273,
                "pitch": 35,
                "velocity": 51,
                "duration": 0.1,
                "tempo": 120.0
            },
            {
                "start_time": 8.1227273,
                "end_time": 8.2227273,
                "pitch": 35,
                "velocity": 101,
                "duration": 0.1,
                "tempo": 120.0
            },
            {
                "start_time": 8.2227273,
                "end_time": 8.3227273,
                "pitch": 33,
                "velocity": 51,
                "duration": 0.1,
                "tempo": 120.0
            },
            {
                "start_time": 8.3227273,
                "end_time": 8.4227273,
                "pitch": 35,
                "velocity": 51,
                "duration": 0.1,
                "tempo": 120.0
            },
            {
                "start_time": 8.4227273,
                "end_time": 8.5227273,
                "pitch": 31,
                "velocity": 51,
                "duration": 0.1,
                "tempo": 120.0
            },
            {
                "start_time": 8.4227273,
                "end_time": 8.5227273,
                "pitch": 31,
                "velocity": 101,
                "duration": 0.1,
                "tempo": 120.0
            },
            {
                "start_time": 8.5227273,
                "end_time": 8.6227273,
                "pitch": 35,
                "velocity": 51,
                "duration": 0.1,
                "tempo": 120.0
            },
            {
                "start_time": 8.5227273,
                "end_time": 8.6227273,
                "pitch": 35,
                "velocity": 101,
                "duration": 0.1,
                "tempo": 120.0
            },
            {
                "start_time": 8.6227273,
                "end_time": 8.725,
                "pitch": 33,
                "velocity": 51,
                "duration": 0.1022727,
                "tempo": 120.0
            },
            {
                "start_time": 8.725,
                "end_time": 8.825,
                "pitch": 35,
                "velocity": 51,
                "duration": 0.1,
                "tempo": 120.0
            },
            {
                "start_time": 8.825,
                "end_time": 8.925,
                "pitch": 31,
                "velocity": 51,
                "duration": 0.1,
                "tempo": 120.0
            },
            {
                "start_time": 8.825,
                "end_time": 8.925,
                "pitch": 31,
                "velocity": 101,
                "duration": 0.1,
                "tempo": 120.0
            },
            {
                "start_time": 8.925,
                "end_time": 9.0272727,
                "pitch": 35,
                "velocity": 101,
                "duration": 0.1022727,
                "tempo": 120.0
            },
            {
                "start_time": 8.9272727,
                "end_time": 9.0272727,
                "pitch": 35,
                "velocity": 51,
                "duration": 0.1,
                "tempo": 120.0
            },
            {
                "start_time": 9.0272727,
                "end_time": 9.1272727,
                "pitch": 33,
                "velocity": 51,
                "duration": 0.1,
                "tempo": 120.0
            },
            {
                "start_time": 9.1272727,
                "end_time": 9.2295455,
                "pitch": 35,
                "velocity": 51,
                "duration": 0.1022727,
                "tempo": 120.0
            },
            {
                "start_time": 9.2295455,
                "end_time": 9.3295455,
                "pitch": 31,
                "velocity": 51,
                "duration": 0.1,
                "tempo": 120.0
            },
            {
                "start_time": 9.2295455,
                "end_time": 9.3295455,
                "pitch": 31,
                "velocity": 101,
                "duration": 0.1,
                "tempo": 120.0
            },
            {
                "start_time": 9.3295455,
                "end_time": 9.4295455,
                "pitch": 35,
                "velocity": 51,
                "duration": 0.1,
                "tempo": 120.0
            },
            {
                "start_time": 9.3295455,
                "end_time": 9.4295455,
                "pitch": 35,
                "velocity": 101,
                "duration": 0.1,
                "tempo": 120.0
            },
            {
                "start_time": 9.4295455,
                "end_time": 9.5318182,
                "pitch": 33,
                "velocity": 51,
                "duration": 0.1022727,
                "tempo": 120.0
            },
            {
                "start_time": 9.5318182,
                "end_time": 9.6340909,
                "pitch": 35,
                "velocity": 51,
                "duration": 0.1022727,
                "tempo": 120.0
            },
            {
                "start_time": 9.6340909,
                "end_time": 9.7340909,
                "pitch": 35,
                "velocity": 101,
                "duration": 0.1,
                "tempo": 120.0
            },
            {
                "start_time": 4.5022727,
                "end_time": 9.7340909,
                "pitch": 41,
                "velocity": 101,
                "duration": 5.2318182,
                "tempo": 120.0
            },
            {
                "start_time": 9.7340909,
                "end_time": 9.8363636,
                "pitch": 38,
                "velocity": 51,
                "duration": 0.1022727,
                "tempo": 120.0
            },
            {
                "start_time": 9.8363636,
                "end_time": 9.9409091,
                "pitch": 36,
                "velocity": 51,
                "duration": 0.1045455,
                "tempo": 120.0
            },
            {
                "start_time": 9.8363636,
                "end_time": 9.9409091,
                "pitch": 36,
                "velocity": 51,
                "duration": 0.1045455,
                "tempo": 120.0
            },
            {
                "start_time": 7.8204545,
                "end_time": 10.0431818,
                "pitch": 19,
                "velocity": 51,
                "duration": 2.2227273,
                "tempo": 120.0
            },
            {
                "start_time": 9.9409091,
                "end_time": 10.0431818,
                "pitch": 38,
                "velocity": 51,
                "duration": 0.1022727,
                "tempo": 120.0
            },
            {
                "start_time": 9.9409091,
                "end_time": 10.0431818,
                "pitch": 38,
                "velocity": 51,
                "duration": 0.1022727,
                "tempo": 120.0
            },
            {
                "start_time": 10.0431818,
                "end_time": 10.1431818,
                "pitch": 35,
                "velocity": 101,
                "duration": 0.1,
                "tempo": 120.0
            },
            {
                "start_time": 9.7340909,
                "end_time": 10.1431818,
                "pitch": 41,
                "velocity": 101,
                "duration": 0.4090909,
                "tempo": 120.0
            },
            {
                "start_time": 10.1431818,
                "end_time": 10.2454545,
                "pitch": 38,
                "velocity": 51,
                "duration": 0.1022727,
                "tempo": 120.0
            },
            {
                "start_time": 10.2454545,
                "end_time": 10.3454545,
                "pitch": 36,
                "velocity": 51,
                "duration": 0.1,
                "tempo": 120.0
            },
            {
                "start_time": 10.2454545,
                "end_time": 10.3454545,
                "pitch": 36,
                "velocity": 51,
                "duration": 0.1,
                "tempo": 120.0
            },
            {
                "start_time": 10.0431818,
                "end_time": 10.4477273,
                "pitch": 19,
                "velocity": 51,
                "duration": 0.4045455,
                "tempo": 120.0
            },
            {
                "start_time": 10.3454545,
                "end_time": 10.4477273,
                "pitch": 38,
                "velocity": 51,
                "duration": 0.1022727,
                "tempo": 120.0
            },
            {
                "start_time": 10.3454545,
                "end_time": 10.4477273,
                "pitch": 38,
                "velocity": 51,
                "duration": 0.1022727,
                "tempo": 120.0
            },
            {
                "start_time": 10.4477273,
                "end_time": 10.5477273,
                "pitch": 35,
                "velocity": 101,
                "duration": 0.1,
                "tempo": 120.0
            },
            {
                "start_time": 10.1431818,
                "end_time": 10.5477273,
                "pitch": 41,
                "velocity": 101,
                "duration": 0.4045455,
                "tempo": 120.0
            },
            {
                "start_time": 10.5477273,
                "end_time": 10.6477273,
                "pitch": 38,
                "velocity": 51,
                "duration": 0.1,
                "tempo": 120.0
            },
            {
                "start_time": 10.6477273,
                "end_time": 10.7477273,
                "pitch": 36,
                "velocity": 51,
                "duration": 0.1,
                "tempo": 120.0
            },
            {
                "start_time": 10.6477273,
                "end_time": 10.7477273,
                "pitch": 36,
                "velocity": 51,
                "duration": 0.1,
                "tempo": 120.0
            },
            {
                "start_time": 10.4477273,
                "end_time": 10.85,
                "pitch": 19,
                "velocity": 51,
                "duration": 0.4022727,
                "tempo": 120.0
            },
            {
                "start_time": 10.7477273,
                "end_time": 10.85,
                "pitch": 38,
                "velocity": 51,
                "duration": 0.1022727,
                "tempo": 120.0
            },
            {
                "start_time": 10.7477273,
                "end_time": 10.85,
                "pitch": 38,
                "velocity": 51,
                "duration": 0.1022727,
                "tempo": 120.0
            },
            {
                "start_time": 10.85,
                "end_time": 10.95,
                "pitch": 35,
                "velocity": 101,
                "duration": 0.1,
                "tempo": 120.0
            },
            {
                "start_time": 10.5477273,
                "end_time": 10.95,
                "pitch": 41,
                "velocity": 101,
                "duration": 0.4022727,
                "tempo": 120.0
            },
            {
                "start_time": 10.95,
                "end_time": 11.05,
                "pitch": 38,
                "velocity": 51,
                "duration": 0.1,
                "tempo": 120.0
            },
            {
                "start_time": 11.05,
                "end_time": 11.1522727,
                "pitch": 36,
                "velocity": 51,
                "duration": 0.1022727,
                "tempo": 120.0
            },
            {
                "start_time": 11.0522727,
                "end_time": 11.1522727,
                "pitch": 36,
                "velocity": 51,
                "duration": 0.1,
                "tempo": 120.0
            },
            {
                "start_time": 7.6181818,
                "end_time": 11.2545455,
                "pitch": 7,
                "velocity": 51,
                "duration": 3.6363636,
                "tempo": 120.0
            },
            {
                "start_time": 11.1522727,
                "end_time": 11.2545455,
                "pitch": 38,
                "velocity": 51,
                "duration": 0.1022727,
                "tempo": 120.0
            },
            {
                "start_time": 11.1522727,
                "end_time": 11.2545455,
                "pitch": 38,
                "velocity": 51,
                "duration": 0.1022727,
                "tempo": 120.0
            },
            {
                "start_time": 11.2545455,
                "end_time": 11.3545455,
                "pitch": 33,
                "velocity": 101,
                "duration": 0.1,
                "tempo": 120.0
            },
            {
                "start_time": 7.9204545,
                "end_time": 11.3545455,
                "pitch": 40,
                "velocity": 51,
                "duration": 3.4340909,
                "tempo": 120.0
            },
            {
                "start_time": 10.85,
                "end_time": 11.4545455,
                "pitch": 19,
                "velocity": 51,
                "duration": 0.6045455,
                "tempo": 120.0
            },
            {
                "start_time": 11.3545455,
                "end_time": 11.4545455,
                "pitch": 36,
                "velocity": 51,
                "duration": 0.1,
                "tempo": 120.0
            },
            {
                "start_time": 11.4545455,
                "end_time": 11.5545455,
                "pitch": 35,
                "velocity": 51,
                "duration": 0.1,
                "tempo": 120.0
            },
            {
                "start_time": 11.3545455,
                "end_time": 11.5545455,
                "pitch": 40,
                "velocity": 101,
                "duration": 0.2,
                "tempo": 120.0
            },
            {
                "start_time": 11.2545455,
                "end_time": 11.6568182,
                "pitch": 7,
                "velocity": 51,
                "duration": 0.4022727,
                "tempo": 120.0
            },
            {
                "start_time": 11.5545455,
                "end_time": 11.6568182,
                "pitch": 36,
                "velocity": 51,
                "duration": 0.1022727,
                "tempo": 120.0
            },
            {
                "start_time": 11.6568182,
                "end_time": 11.7568182,
                "pitch": 33,
                "velocity": 101,
                "duration": 0.1,
                "tempo": 120.0
            },
            {
                "start_time": 11.5545455,
                "end_time": 11.7568182,
                "pitch": 40,
                "velocity": 51,
                "duration": 0.2022727,
                "tempo": 120.0
            },
            {
                "start_time": 11.4545455,
                "end_time": 11.8568182,
                "pitch": 19,
                "velocity": 51,
                "duration": 0.4022727,
                "tempo": 120.0
            },
            {
                "start_time": 11.7568182,
                "end_time": 11.8568182,
                "pitch": 36,
                "velocity": 51,
                "duration": 0.1,
                "tempo": 120.0
            },
            {
                "start_time": 11.8568182,
                "end_time": 11.9568182,
                "pitch": 35,
                "velocity": 51,
                "duration": 0.1,
                "tempo": 120.0
            },
            {
                "start_time": 11.7568182,
                "end_time": 11.9568182,
                "pitch": 40,
                "velocity": 101,
                "duration": 0.2,
                "tempo": 120.0
            },
            {
                "start_time": 11.6568182,
                "end_time": 12.0568182,
                "pitch": 7,
                "velocity": 51,
                "duration": 0.4,
                "tempo": 120.0
            },
            {
                "start_time": 11.9568182,
                "end_time": 12.0568182,
                "pitch": 36,
                "velocity": 51,
                "duration": 0.1,
                "tempo": 120.0
            },
            {
                "start_time": 12.0568182,
                "end_time": 12.1568182,
                "pitch": 33,
                "velocity": 101,
                "duration": 0.1,
                "tempo": 120.0
            },
            {
                "start_time": 11.9568182,
                "end_time": 12.1568182,
                "pitch": 40,
                "velocity": 51,
                "duration": 0.2,
                "tempo": 120.0
            },
            {
                "start_time": 11.8568182,
                "end_time": 12.2590909,
                "pitch": 19,
                "velocity": 51,
                "duration": 0.4022727,
                "tempo": 120.0
            },
            {
                "start_time": 12.1568182,
                "end_time": 12.2590909,
                "pitch": 36,
                "velocity": 51,
                "duration": 0.1022727,
                "tempo": 120.0
            },
            {
                "start_time": 12.2590909,
                "end_time": 12.3590909,
                "pitch": 35,
                "velocity": 51,
                "duration": 0.1,
                "tempo": 120.0
            },
            {
                "start_time": 12.1568182,
                "end_time": 12.3590909,
                "pitch": 40,
                "velocity": 101,
                "duration": 0.2022727,
                "tempo": 120.0
            },
            {
                "start_time": 12.0568182,
                "end_time": 12.4613636,
                "pitch": 7,
                "velocity": 51,
                "duration": 0.4045455,
                "tempo": 120.0
            },
            {
                "start_time": 12.3590909,
                "end_time": 12.4613636,
                "pitch": 36,
                "velocity": 51,
                "duration": 0.1022727,
                "tempo": 120.0
            },
            {
                "start_time": 12.4613636,
                "end_time": 12.5613636,
                "pitch": 33,
                "velocity": 101,
                "duration": 0.1,
                "tempo": 120.0
            },
            {
                "start_time": 12.3590909,
                "end_time": 12.5613636,
                "pitch": 40,
                "velocity": 51,
                "duration": 0.2022727,
                "tempo": 120.0
            },
            {
                "start_time": 12.2590909,
                "end_time": 12.6613636,
                "pitch": 19,
                "velocity": 51,
                "duration": 0.4022727,
                "tempo": 120.0
            },
            {
                "start_time": 12.5613636,
                "end_time": 12.6613636,
                "pitch": 36,
                "velocity": 51,
                "duration": 0.1,
                "tempo": 120.0
            },
            {
                "start_time": 12.6613636,
                "end_time": 12.7613636,
                "pitch": 35,
                "velocity": 51,
                "duration": 0.1,
                "tempo": 120.0
            },
            {
                "start_time": 12.5613636,
                "end_time": 12.7613636,
                "pitch": 40,
                "velocity": 101,
                "duration": 0.2,
                "tempo": 120.0
            },
            {
                "start_time": 12.4613636,
                "end_time": 12.8704545,
                "pitch": 7,
                "velocity": 51,
                "duration": 0.4090909,
                "tempo": 120.0
            },
            {
                "start_time": 12.7613636,
                "end_time": 12.8704545,
                "pitch": 36,
                "velocity": 51,
                "duration": 0.1090909,
                "tempo": 120.0
            },
            {
                "start_time": 12.8704545,
                "end_time": 12.9659091,
                "pitch": 33,
                "velocity": 101,
                "duration": 0.0954545,
                "tempo": 120.0
            },
            {
                "start_time": 12.7613636,
                "end_time": 12.9659091,
                "pitch": 40,
                "velocity": 51,
                "duration": 0.2045455,
                "tempo": 120.0
            },
            {
                "start_time": 12.6613636,
                "end_time": 13.0681818,
                "pitch": 19,
                "velocity": 51,
                "duration": 0.4068182,
                "tempo": 120.0
            },
            {
                "start_time": 12.9659091,
                "end_time": 13.0681818,
                "pitch": 36,
                "velocity": 51,
                "duration": 0.1022727,
                "tempo": 120.0
            },
            {
                "start_time": 13.0681818,
                "end_time": 13.1704545,
                "pitch": 35,
                "velocity": 51,
                "duration": 0.1022727,
                "tempo": 120.0
            },
            {
                "start_time": 12.9659091,
                "end_time": 13.1704545,
                "pitch": 40,
                "velocity": 101,
                "duration": 0.2045455,
                "tempo": 120.0
            },
            {
                "start_time": 12.8704545,
                "end_time": 13.275,
                "pitch": 7,
                "velocity": 51,
                "duration": 0.4045455,
                "tempo": 120.0
            },
            {
                "start_time": 13.1704545,
                "end_time": 13.275,
                "pitch": 36,
                "velocity": 51,
                "duration": 0.1045455,
                "tempo": 120.0
            },
            {
                "start_time": 13.275,
                "end_time": 13.3727273,
                "pitch": 33,
                "velocity": 101,
                "duration": 0.0977273,
                "tempo": 120.0
            },
            {
                "start_time": 13.1704545,
                "end_time": 13.3727273,
                "pitch": 40,
                "velocity": 51,
                "duration": 0.2022727,
                "tempo": 120.0
            },
            {
                "start_time": 13.0681818,
                "end_time": 13.4704545,
                "pitch": 19,
                "velocity": 51,
                "duration": 0.4022727,
                "tempo": 120.0
            },
            {
                "start_time": 13.3727273,
                "end_time": 13.4704545,
                "pitch": 36,
                "velocity": 51,
                "duration": 0.0977273,
                "tempo": 120.0
            },
            {
                "start_time": 13.4704545,
                "end_time": 13.5681818,
                "pitch": 35,
                "velocity": 51,
                "duration": 0.0977273,
                "tempo": 120.0
            },
            {
                "start_time": 13.3727273,
                "end_time": 13.5681818,
                "pitch": 40,
                "velocity": 101,
                "duration": 0.1954545,
                "tempo": 120.0
            },
            {
                "start_time": 13.275,
                "end_time": 13.6681818,
                "pitch": 7,
                "velocity": 51,
                "duration": 0.3931818,
                "tempo": 120.0
            },
            {
                "start_time": 13.5681818,
                "end_time": 13.6681818,
                "pitch": 36,
                "velocity": 51,
                "duration": 0.1,
                "tempo": 120.0
            },
            {
                "start_time": 13.6681818,
                "end_time": 13.7681818,
                "pitch": 33,
                "velocity": 101,
                "duration": 0.1,
                "tempo": 120.0
            },
            {
                "start_time": 13.5681818,
                "end_time": 13.7681818,
                "pitch": 40,
                "velocity": 51,
                "duration": 0.2,
                "tempo": 120.0
            },
            {
                "start_time": 13.4704545,
                "end_time": 13.8681818,
                "pitch": 19,
                "velocity": 51,
                "duration": 0.3977273,
                "tempo": 120.0
            },
            {
                "start_time": 13.7681818,
                "end_time": 13.8681818,
                "pitch": 36,
                "velocity": 51,
                "duration": 0.1,
                "tempo": 120.0
            },
            {
                "start_time": 13.8681818,
                "end_time": 13.9681818,
                "pitch": 35,
                "velocity": 51,
                "duration": 0.1,
                "tempo": 120.0
            },
            {
                "start_time": 13.7681818,
                "end_time": 13.9681818,
                "pitch": 40,
                "velocity": 101,
                "duration": 0.2,
                "tempo": 120.0
            },
            {
                "start_time": 13.6681818,
                "end_time": 14.0681818,
                "pitch": 7,
                "velocity": 51,
                "duration": 0.4,
                "tempo": 120.0
            },
            {
                "start_time": 13.9681818,
                "end_time": 14.0681818,
                "pitch": 36,
                "velocity": 51,
                "duration": 0.1,
                "tempo": 120.0
            },
            {
                "start_time": 14.0681818,
                "end_time": 14.1681818,
                "pitch": 33,
                "velocity": 101,
                "duration": 0.1,
                "tempo": 120.0
            },
            {
                "start_time": 13.9681818,
                "end_time": 14.1681818,
                "pitch": 40,
                "velocity": 51,
                "duration": 0.2,
                "tempo": 120.0
            },
            {
                "start_time": 13.8681818,
                "end_time": 14.2704545,
                "pitch": 19,
                "velocity": 51,
                "duration": 0.4022727,
                "tempo": 120.0
            },
            {
                "start_time": 14.1681818,
                "end_time": 14.2704545,
                "pitch": 36,
                "velocity": 51,
                "duration": 0.1022727,
                "tempo": 120.0
            },
            {
                "start_time": 14.2704545,
                "end_time": 14.3704545,
                "pitch": 35,
                "velocity": 51,
                "duration": 0.1,
                "tempo": 120.0
            },
            {
                "start_time": 14.1681818,
                "end_time": 14.3704545,
                "pitch": 40,
                "velocity": 101,
                "duration": 0.2022727,
                "tempo": 120.0
            },
            {
                "start_time": 8.025,
                "end_time": 14.475,
                "pitch": 0,
                "velocity": 51,
                "duration": 6.45,
                "tempo": 120.0
            },
            {
                "start_time": 14.3704545,
                "end_time": 14.475,
                "pitch": 36,
                "velocity": 51,
                "duration": 0.1045455,
                "tempo": 120.0
            },
            {
                "start_time": 14.475,
                "end_time": 14.5704545,
                "pitch": 31,
                "velocity": 101,
                "duration": 0.0954545,
                "tempo": 120.0
            },
            {
                "start_time": 14.5704545,
                "end_time": 14.6727273,
                "pitch": 35,
                "velocity": 51,
                "duration": 0.1022727,
                "tempo": 120.0
            },
            {
                "start_time": 14.5704545,
                "end_time": 14.6727273,
                "pitch": 35,
                "velocity": 101,
                "duration": 0.1022727,
                "tempo": 120.0
            },
            {
                "start_time": 14.6727273,
                "end_time": 14.7727273,
                "pitch": 33,
                "velocity": 51,
                "duration": 0.1,
                "tempo": 120.0
            },
            {
                "start_time": 14.7727273,
                "end_time": 14.875,
                "pitch": 35,
                "velocity": 51,
                "duration": 0.1022727,
                "tempo": 120.0
            },
            {
                "start_time": 14.875,
                "end_time": 14.975,
                "pitch": 31,
                "velocity": 51,
                "duration": 0.1,
                "tempo": 120.0
            },
            {
                "start_time": 14.875,
                "end_time": 14.975,
                "pitch": 31,
                "velocity": 101,
                "duration": 0.1,
                "tempo": 120.0
            },
            {
                "start_time": 14.975,
                "end_time": 15.075,
                "pitch": 35,
                "velocity": 51,
                "duration": 0.1,
                "tempo": 120.0
            },
            {
                "start_time": 14.975,
                "end_time": 15.075,
                "pitch": 35,
                "velocity": 101,
                "duration": 0.1,
                "tempo": 120.0
            },
            {
                "start_time": 15.075,
                "end_time": 15.1772727,
                "pitch": 33,
                "velocity": 51,
                "duration": 0.1022727,
                "tempo": 120.0
            },
            {
                "start_time": 15.1772727,
                "end_time": 15.2772727,
                "pitch": 35,
                "velocity": 51,
                "duration": 0.1,
                "tempo": 120.0
            },
            {
                "start_time": 15.2772727,
                "end_time": 15.3772727,
                "pitch": 31,
                "velocity": 51,
                "duration": 0.1,
                "tempo": 120.0
            },
            {
                "start_time": 15.2772727,
                "end_time": 15.3772727,
                "pitch": 31,
                "velocity": 101,
                "duration": 0.1,
                "tempo": 120.0
            },
            {
                "start_time": 15.3772727,
                "end_time": 15.4795455,
                "pitch": 35,
                "velocity": 51,
                "duration": 0.1022727,
                "tempo": 120.0
            },
            {
                "start_time": 15.3772727,
                "end_time": 15.4795455,
                "pitch": 35,
                "velocity": 101,
                "duration": 0.1022727,
                "tempo": 120.0
            },
            {
                "start_time": 15.4795455,
                "end_time": 15.5795455,
                "pitch": 33,
                "velocity": 51,
                "duration": 0.1,
                "tempo": 120.0
            },
            {
                "start_time": 15.5795455,
                "end_time": 15.6818182,
                "pitch": 35,
                "velocity": 51,
                "duration": 0.1022727,
                "tempo": 120.0
            },
            {
                "start_time": 15.6818182,
                "end_time": 15.7795455,
                "pitch": 31,
                "velocity": 51,
                "duration": 0.0977273,
                "tempo": 120.0
            },
            {
                "start_time": 15.6818182,
                "end_time": 15.7795455,
                "pitch": 31,
                "velocity": 101,
                "duration": 0.0977273,
                "tempo": 120.0
            },
            {
                "start_time": 15.7795455,
                "end_time": 15.8818182,
                "pitch": 35,
                "velocity": 51,
                "duration": 0.1022727,
                "tempo": 120.0
            },
            {
                "start_time": 15.7795455,
                "end_time": 15.8818182,
                "pitch": 35,
                "velocity": 101,
                "duration": 0.1022727,
                "tempo": 120.0
            },
            {
                "start_time": 15.8818182,
                "end_time": 15.9818182,
                "pitch": 33,
                "velocity": 51,
                "duration": 0.1,
                "tempo": 120.0
            },
            {
                "start_time": 15.9818182,
                "end_time": 16.0840909,
                "pitch": 35,
                "velocity": 51,
                "duration": 0.1022727,
                "tempo": 120.0
            },
            {
                "start_time": 16.0840909,
                "end_time": 16.1840909,
                "pitch": 35,
                "velocity": 101,
                "duration": 0.1,
                "tempo": 120.0
            },
            {
                "start_time": 10.95,
                "end_time": 16.1840909,
                "pitch": 41,
                "velocity": 101,
                "duration": 5.2340909,
                "tempo": 120.0
            },
            {
                "start_time": 16.1840909,
                "end_time": 16.2863636,
                "pitch": 38,
                "velocity": 51,
                "duration": 0.1022727,
                "tempo": 120.0
            },
            {
                "start_time": 16.2863636,
                "end_time": 16.3886364,
                "pitch": 36,
                "velocity": 51,
                "duration": 0.1022727,
                "tempo": 120.0
            },
            {
                "start_time": 16.2863636,
                "end_time": 16.3886364,
                "pitch": 36,
                "velocity": 51,
                "duration": 0.1022727,
                "tempo": 120.0
            },
            {
                "start_time": 14.2704545,
                "end_time": 16.4931818,
                "pitch": 19,
                "velocity": 51,
                "duration": 2.2227273,
                "tempo": 120.0
            },
            {
                "start_time": 16.3886364,
                "end_time": 16.4931818,
                "pitch": 38,
                "velocity": 51,
                "duration": 0.1045455,
                "tempo": 120.0
            },
            {
                "start_time": 16.3886364,
                "end_time": 16.4931818,
                "pitch": 38,
                "velocity": 51,
                "duration": 0.1045455,
                "tempo": 120.0
            },
            {
                "start_time": 16.4931818,
                "end_time": 16.5909091,
                "pitch": 35,
                "velocity": 101,
                "duration": 0.0977273,
                "tempo": 120.0
            },
            {
                "start_time": 16.1840909,
                "end_time": 16.5909091,
                "pitch": 41,
                "velocity": 101,
                "duration": 0.4068182,
                "tempo": 120.0
            },
            {
                "start_time": 16.5909091,
                "end_time": 16.6886364,
                "pitch": 38,
                "velocity": 51,
                "duration": 0.0977273,
                "tempo": 120.0
            },
            {
                "start_time": 16.6886364,
                "end_time": 16.7863636,
                "pitch": 36,
                "velocity": 51,
                "duration": 0.0977273,
                "tempo": 120.0
            },
            {
                "start_time": 16.6886364,
                "end_time": 16.7863636,
                "pitch": 36,
                "velocity": 51,
                "duration": 0.0977273,
                "tempo": 120.0
            },
            {
                "start_time": 16.4931818,
                "end_time": 16.8863636,
                "pitch": 19,
                "velocity": 51,
                "duration": 0.3931818,
                "tempo": 120.0
            },
            {
                "start_time": 16.7863636,
                "end_time": 16.8863636,
                "pitch": 38,
                "velocity": 51,
                "duration": 0.1,
                "tempo": 120.0
            },
            {
                "start_time": 16.7863636,
                "end_time": 16.8863636,
                "pitch": 38,
                "velocity": 51,
                "duration": 0.1,
                "tempo": 120.0
            },
            {
                "start_time": 16.8863636,
                "end_time": 16.9840909,
                "pitch": 35,
                "velocity": 101,
                "duration": 0.0977273,
                "tempo": 120.0
            },
            {
                "start_time": 16.5909091,
                "end_time": 16.9840909,
                "pitch": 41,
                "velocity": 101,
                "duration": 0.3931818,
                "tempo": 120.0
            },
            {
                "start_time": 16.9840909,
                "end_time": 17.0840909,
                "pitch": 38,
                "velocity": 51,
                "duration": 0.1,
                "tempo": 120.0
            },
            {
                "start_time": 17.0840909,
                "end_time": 17.1840909,
                "pitch": 36,
                "velocity": 51,
                "duration": 0.1,
                "tempo": 120.0
            },
            {
                "start_time": 17.0840909,
                "end_time": 17.1840909,
                "pitch": 36,
                "velocity": 51,
                "duration": 0.1,
                "tempo": 120.0
            },
            {
                "start_time": 16.8863636,
                "end_time": 17.2863636,
                "pitch": 19,
                "velocity": 51,
                "duration": 0.4,
                "tempo": 120.0
            },
            {
                "start_time": 17.1840909,
                "end_time": 17.2863636,
                "pitch": 38,
                "velocity": 51,
                "duration": 0.1022727,
                "tempo": 120.0
            },
            {
                "start_time": 17.1840909,
                "end_time": 17.2863636,
                "pitch": 38,
                "velocity": 51,
                "duration": 0.1022727,
                "tempo": 120.0
            },
            {
                "start_time": 17.2863636,
                "end_time": 17.3863636,
                "pitch": 35,
                "velocity": 101,
                "duration": 0.1,
                "tempo": 120.0
            },
            {
                "start_time": 16.9840909,
                "end_time": 17.3863636,
                "pitch": 41,
                "velocity": 101,
                "duration": 0.4022727,
                "tempo": 120.0
            },
            {
                "start_time": 17.3863636,
                "end_time": 17.4863636,
                "pitch": 38,
                "velocity": 51,
                "duration": 0.1,
                "tempo": 120.0
            },
            {
                "start_time": 17.4863636,
                "end_time": 17.5863636,
                "pitch": 36,
                "velocity": 51,
                "duration": 0.1,
                "tempo": 120.0
            },
            {
                "start_time": 17.4863636,
                "end_time": 17.5863636,
                "pitch": 36,
                "velocity": 51,
                "duration": 0.1,
                "tempo": 120.0
            },
            {
                "start_time": 14.0681818,
                "end_time": 17.6886364,
                "pitch": 7,
                "velocity": 51,
                "duration": 3.6204545,
                "tempo": 120.0
            },
            {
                "start_time": 17.5863636,
                "end_time": 17.6886364,
                "pitch": 38,
                "velocity": 51,
                "duration": 0.1022727,
                "tempo": 120.0
            },
            {
                "start_time": 17.5863636,
                "end_time": 17.6886364,
                "pitch": 38,
                "velocity": 51,
                "duration": 0.1022727,
                "tempo": 120.0
            },
            {
                "start_time": 17.6886364,
                "end_time": 17.7886364,
                "pitch": 33,
                "velocity": 101,
                "duration": 0.1,
                "tempo": 120.0
            },
            {
                "start_time": 14.3704545,
                "end_time": 17.7886364,
                "pitch": 40,
                "velocity": 51,
                "duration": 3.4181818,
                "tempo": 120.0
            },
            {
                "start_time": 17.2863636,
                "end_time": 17.8909091,
                "pitch": 19,
                "velocity": 51,
                "duration": 0.6045455,
                "tempo": 120.0
            },
            {
                "start_time": 17.7886364,
                "end_time": 17.8909091,
                "pitch": 36,
                "velocity": 51,
                "duration": 0.1022727,
                "tempo": 120.0
            },
            {
                "start_time": 17.8909091,
                "end_time": 17.9931818,
                "pitch": 35,
                "velocity": 51,
                "duration": 0.1022727,
                "tempo": 120.0
            },
            {
                "start_time": 17.7886364,
                "end_time": 17.9931818,
                "pitch": 40,
                "velocity": 101,
                "duration": 0.2045455,
                "tempo": 120.0
            },
            {
                "start_time": 17.6886364,
                "end_time": 18.0977273,
                "pitch": 7,
                "velocity": 51,
                "duration": 0.4090909,
                "tempo": 120.0
            },
            {
                "start_time": 17.9931818,
                "end_time": 18.0977273,
                "pitch": 36,
                "velocity": 51,
                "duration": 0.1045455,
                "tempo": 120.0
            },
            {
                "start_time": 18.0977273,
                "end_time": 18.1977273,
                "pitch": 33,
                "velocity": 101,
                "duration": 0.1,
                "tempo": 120.0
            },
            {
                "start_time": 17.9931818,
                "end_time": 18.1977273,
                "pitch": 40,
                "velocity": 51,
                "duration": 0.2045455,
                "tempo": 120.0
            },
            {
                "start_time": 17.8909091,
                "end_time": 18.2977273,
                "pitch": 19,
                "velocity": 51,
                "duration": 0.4068182,
                "tempo": 120.0
            },
            {
                "start_time": 18.1977273,
                "end_time": 18.2977273,
                "pitch": 36,
                "velocity": 51,
                "duration": 0.1,
                "tempo": 120.0
            },
            {
                "start_time": 18.2977273,
                "end_time": 18.4,
                "pitch": 35,
                "velocity": 51,
                "duration": 0.1022727,
                "tempo": 120.0
            },
            {
                "start_time": 18.1977273,
                "end_time": 18.4,
                "pitch": 40,
                "velocity": 101,
                "duration": 0.2022727,
                "tempo": 120.0
            },
            {
                "start_time": 18.0977273,
                "end_time": 18.5,
                "pitch": 7,
                "velocity": 51,
                "duration": 0.4022727,
                "tempo": 120.0
            },
            {
                "start_time": 18.4,
                "end_time": 18.5,
                "pitch": 36,
                "velocity": 51,
                "duration": 0.1,
                "tempo": 120.0
            },
            {
                "start_time": 18.5022727,
                "end_time": 18.6,
                "pitch": 33,
                "velocity": 101,
                "duration": 0.0977273,
                "tempo": 120.0
            },
            {
                "start_time": 18.4,
                "end_time": 18.6,
                "pitch": 40,
                "velocity": 51,
                "duration": 0.2,
                "tempo": 120.0
            },
            {
                "start_time": 18.2977273,
                "end_time": 18.7,
                "pitch": 19,
                "velocity": 51,
                "duration": 0.4022727,
                "tempo": 120.0
            },
            {
                "start_time": 18.6,
                "end_time": 18.7,
                "pitch": 36,
                "velocity": 51,
                "duration": 0.1,
                "tempo": 120.0
            },
            {
                "start_time": 18.7,
                "end_time": 18.8,
                "pitch": 35,
                "velocity": 51,
                "duration": 0.1,
                "tempo": 120.0
            },
            {
                "start_time": 18.6,
                "end_time": 18.8,
                "pitch": 40,
                "velocity": 101,
                "duration": 0.2,
                "tempo": 120.0
            },
            {
                "start_time": 18.5,
                "end_time": 18.9022727,
                "pitch": 7,
                "velocity": 51,
                "duration": 0.4022727,
                "tempo": 120.0
            },
            {
                "start_time": 18.8,
                "end_time": 18.9022727,
                "pitch": 36,
                "velocity": 51,
                "duration": 0.1022727,
                "tempo": 120.0
            },
            {
                "start_time": 18.9022727,
                "end_time": 19.0,
                "pitch": 33,
                "velocity": 101,
                "duration": 0.0977273,
                "tempo": 120.0
            },
            {
                "start_time": 18.8,
                "end_time": 19.0,
                "pitch": 40,
                "velocity": 51,
                "duration": 0.2,
                "tempo": 120.0
            },
            {
                "start_time": 18.7,
                "end_time": 19.0977273,
                "pitch": 19,
                "velocity": 51,
                "duration": 0.3977273,
                "tempo": 120.0
            },
            {
                "start_time": 19.0,
                "end_time": 19.0977273,
                "pitch": 36,
                "velocity": 51,
                "duration": 0.0977273,
                "tempo": 120.0
            },
            {
                "start_time": 19.0977273,
                "end_time": 19.1954545,
                "pitch": 35,
                "velocity": 51,
                "duration": 0.0977273,
                "tempo": 120.0
            },
            {
                "start_time": 19.0,
                "end_time": 19.1954545,
                "pitch": 40,
                "velocity": 101,
                "duration": 0.1954545,
                "tempo": 120.0
            },
            {
                "start_time": 18.9022727,
                "end_time": 19.3,
                "pitch": 7,
                "velocity": 51,
                "duration": 0.3977273,
                "tempo": 120.0
            },
            {
                "start_time": 19.1954545,
                "end_time": 19.3,
                "pitch": 36,
                "velocity": 51,
                "duration": 0.1045455,
                "tempo": 120.0
            },
            {
                "start_time": 19.3,
                "end_time": 19.3954545,
                "pitch": 33,
                "velocity": 101,
                "duration": 0.0954545,
                "tempo": 120.0
            },
            {
                "start_time": 19.1954545,
                "end_time": 19.3954545,
                "pitch": 40,
                "velocity": 51,
                "duration": 0.2,
                "tempo": 120.0
            },
            {
                "start_time": 19.3954545,
                "end_time": 19.4977273,
                "pitch": 36,
                "velocity": 51,
                "duration": 0.1022727,
                "tempo": 120.0
            },
            {
                "start_time": 19.0977273,
                "end_time": 19.5,
                "pitch": 19,
                "velocity": 51,
                "duration": 0.4022727,
                "tempo": 120.0
            },
            {
                "start_time": 19.4977273,
                "end_time": 19.5,
                "pitch": 19,
                "velocity": 51,
                "duration": 0.0022727,
                "tempo": 120.0
            },
            {
                "start_time": 19.5,
                "end_time": 19.6022727,
                "pitch": 35,
                "velocity": 51,
                "duration": 0.1022727,
                "tempo": 120.0
            },
            {
                "start_time": 19.3954545,
                "end_time": 19.6022727,
                "pitch": 40,
                "velocity": 101,
                "duration": 0.2068182,
                "tempo": 120.0
            },
            {
                "start_time": 19.3,
                "end_time": 19.7045455,
                "pitch": 7,
                "velocity": 51,
                "duration": 0.4045455,
                "tempo": 120.0
            },
            {
                "start_time": 19.6022727,
                "end_time": 19.7045455,
                "pitch": 36,
                "velocity": 51,
                "duration": 0.1022727,
                "tempo": 120.0
            },
            {
                "start_time": 19.7045455,
                "end_time": 19.8045455,
                "pitch": 33,
                "velocity": 101,
                "duration": 0.1,
                "tempo": 120.0
            },
            {
                "start_time": 19.6022727,
                "end_time": 19.8045455,
                "pitch": 40,
                "velocity": 51,
                "duration": 0.2022727,
                "tempo": 120.0
            },
            {
                "start_time": 19.8045455,
                "end_time": 19.9045455,
                "pitch": 36,
                "velocity": 51,
                "duration": 0.1,
                "tempo": 120.0
            },
            {
                "start_time": 19.9045455,
                "end_time": 20.0045455,
                "pitch": 35,
                "velocity": 51,
                "duration": 0.1,
                "tempo": 120.0
            },
            {
                "start_time": 19.8045455,
                "end_time": 20.0045455,
                "pitch": 40,
                "velocity": 101,
                "duration": 0.2,
                "tempo": 120.0
            },
            {
                "start_time": 19.7045455,
                "end_time": 20.1068182,
                "pitch": 7,
                "velocity": 51,
                "duration": 0.4022727,
                "tempo": 120.0
            },
            {
                "start_time": 20.0045455,
                "end_time": 20.1068182,
                "pitch": 36,
                "velocity": 51,
                "duration": 0.1022727,
                "tempo": 120.0
            },
            {
                "start_time": 20.1068182,
                "end_time": 20.2068182,
                "pitch": 33,
                "velocity": 101,
                "duration": 0.1,
                "tempo": 120.0
            },
            {
                "start_time": 20.0045455,
                "end_time": 20.2068182,
                "pitch": 40,
                "velocity": 51,
                "duration": 0.2022727,
                "tempo": 120.0
            },
            {
                "start_time": 19.9045455,
                "end_time": 20.3068182,
                "pitch": 19,
                "velocity": 51,
                "duration": 0.4022727,
                "tempo": 120.0
            },
            {
                "start_time": 20.2068182,
                "end_time": 20.3068182,
                "pitch": 36,
                "velocity": 51,
                "duration": 0.1,
                "tempo": 120.0
            },
            {
                "start_time": 20.3068182,
                "end_time": 20.4068182,
                "pitch": 35,
                "velocity": 51,
                "duration": 0.1,
                "tempo": 120.0
            },
            {
                "start_time": 20.2068182,
                "end_time": 20.4068182,
                "pitch": 40,
                "velocity": 101,
                "duration": 0.2,
                "tempo": 120.0
            },
            {
                "start_time": 20.1068182,
                "end_time": 20.5090909,
                "pitch": 7,
                "velocity": 51,
                "duration": 0.4022727,
                "tempo": 120.0
            },
            {
                "start_time": 20.4068182,
                "end_time": 20.5090909,
                "pitch": 36,
                "velocity": 51,
                "duration": 0.1022727,
                "tempo": 120.0
            },
            {
                "start_time": 20.5090909,
                "end_time": 20.6090909,
                "pitch": 33,
                "velocity": 101,
                "duration": 0.1,
                "tempo": 120.0
            },
            {
                "start_time": 20.4068182,
                "end_time": 20.6090909,
                "pitch": 40,
                "velocity": 51,
                "duration": 0.2022727,
                "tempo": 120.0
            },
            {
                "start_time": 20.3068182,
                "end_time": 20.7113636,
                "pitch": 19,
                "velocity": 51,
                "duration": 0.4045455,
                "tempo": 120.0
            },
            {
                "start_time": 20.6090909,
                "end_time": 20.7113636,
                "pitch": 36,
                "velocity": 51,
                "duration": 0.1022727,
                "tempo": 120.0
            },
            {
                "start_time": 20.7113636,
                "end_time": 20.8113636,
                "pitch": 35,
                "velocity": 51,
                "duration": 0.1,
                "tempo": 120.0
            },
            {
                "start_time": 20.6090909,
                "end_time": 20.8113636,
                "pitch": 40,
                "velocity": 101,
                "duration": 0.2022727,
                "tempo": 120.0
            },
            {
                "start_time": 14.475,
                "end_time": 20.9136364,
                "pitch": 0,
                "velocity": 51,
                "duration": 6.4386364,
                "tempo": 120.0
            },
            {
                "start_time": 20.8113636,
                "end_time": 20.9136364,
                "pitch": 36,
                "velocity": 51,
                "duration": 0.1022727,
                "tempo": 120.0
            },
            {
                "start_time": 20.9136364,
                "end_time": 21.0090909,
                "pitch": 31,
                "velocity": 101,
                "duration": 0.0954545,
                "tempo": 120.0
            },
            {
                "start_time": 21.0090909,
                "end_time": 21.1090909,
                "pitch": 35,
                "velocity": 51,
                "duration": 0.1,
                "tempo": 120.0
            },
            {
                "start_time": 21.0090909,
                "end_time": 21.1090909,
                "pitch": 35,
                "velocity": 101,
                "duration": 0.1,
                "tempo": 120.0
            },
            {
                "start_time": 21.1090909,
                "end_time": 21.2090909,
                "pitch": 33,
                "velocity": 51,
                "duration": 0.1,
                "tempo": 120.0
            },
            {
                "start_time": 21.2090909,
                "end_time": 21.3113636,
                "pitch": 35,
                "velocity": 51,
                "duration": 0.1022727,
                "tempo": 120.0
            },
            {
                "start_time": 21.3113636,
                "end_time": 21.4113636,
                "pitch": 31,
                "velocity": 51,
                "duration": 0.1,
                "tempo": 120.0
            },
            {
                "start_time": 21.3113636,
                "end_time": 21.4113636,
                "pitch": 31,
                "velocity": 101,
                "duration": 0.1,
                "tempo": 120.0
            },
            {
                "start_time": 21.4113636,
                "end_time": 21.5113636,
                "pitch": 35,
                "velocity": 51,
                "duration": 0.1,
                "tempo": 120.0
            },
            {
                "start_time": 21.4113636,
                "end_time": 21.5113636,
                "pitch": 35,
                "velocity": 101,
                "duration": 0.1,
                "tempo": 120.0
            },
            {
                "start_time": 21.5113636,
                "end_time": 21.6113636,
                "pitch": 33,
                "velocity": 51,
                "duration": 0.1,
                "tempo": 120.0
            },
            {
                "start_time": 21.6113636,
                "end_time": 21.7136364,
                "pitch": 35,
                "velocity": 51,
                "duration": 0.1022727,
                "tempo": 120.0
            },
            {
                "start_time": 21.7136364,
                "end_time": 21.8136364,
                "pitch": 31,
                "velocity": 51,
                "duration": 0.1,
                "tempo": 120.0
            },
            {
                "start_time": 21.7136364,
                "end_time": 21.8136364,
                "pitch": 31,
                "velocity": 101,
                "duration": 0.1,
                "tempo": 120.0
            },
            {
                "start_time": 21.8136364,
                "end_time": 21.9136364,
                "pitch": 35,
                "velocity": 51,
                "duration": 0.1,
                "tempo": 120.0
            },
            {
                "start_time": 21.8136364,
                "end_time": 21.9136364,
                "pitch": 35,
                "velocity": 101,
                "duration": 0.1,
                "tempo": 120.0
            },
            {
                "start_time": 21.9136364,
                "end_time": 22.0136364,
                "pitch": 33,
                "velocity": 51,
                "duration": 0.1,
                "tempo": 120.0
            },
            {
                "start_time": 22.0136364,
                "end_time": 22.1136364,
                "pitch": 35,
                "velocity": 51,
                "duration": 0.1,
                "tempo": 120.0
            },
            {
                "start_time": 22.1136364,
                "end_time": 22.2136364,
                "pitch": 31,
                "velocity": 51,
                "duration": 0.1,
                "tempo": 120.0
            },
            {
                "start_time": 22.1136364,
                "end_time": 22.2136364,
                "pitch": 31,
                "velocity": 101,
                "duration": 0.1,
                "tempo": 120.0
            },
            {
                "start_time": 22.2136364,
                "end_time": 22.3159091,
                "pitch": 35,
                "velocity": 51,
                "duration": 0.1022727,
                "tempo": 120.0
            },
            {
                "start_time": 22.2136364,
                "end_time": 22.3159091,
                "pitch": 35,
                "velocity": 101,
                "duration": 0.1022727,
                "tempo": 120.0
            },
            {
                "start_time": 22.3159091,
                "end_time": 22.4181818,
                "pitch": 33,
                "velocity": 51,
                "duration": 0.1022727,
                "tempo": 120.0
            },
            {
                "start_time": 22.4181818,
                "end_time": 22.5204545,
                "pitch": 35,
                "velocity": 51,
                "duration": 0.1022727,
                "tempo": 120.0
            },
            {
                "start_time": 22.5204545,
                "end_time": 22.6181818,
                "pitch": 35,
                "velocity": 101,
                "duration": 0.0977273,
                "tempo": 120.0
            },
            {
                "start_time": 17.3863636,
                "end_time": 22.6181818,
                "pitch": 41,
                "velocity": 101,
                "duration": 5.2318182,
                "tempo": 120.0
            },
            {
                "start_time": 22.6181818,
                "end_time": 22.7227273,
                "pitch": 38,
                "velocity": 51,
                "duration": 0.1045455,
                "tempo": 120.0
            },
            {
                "start_time": 22.7227273,
                "end_time": 22.825,
                "pitch": 36,
                "velocity": 51,
                "duration": 0.1022727,
                "tempo": 120.0
            },
            {
                "start_time": 22.7227273,
                "end_time": 22.825,
                "pitch": 36,
                "velocity": 51,
                "duration": 0.1022727,
                "tempo": 120.0
            },
            {
                "start_time": 20.7113636,
                "end_time": 22.9295455,
                "pitch": 19,
                "velocity": 51,
                "duration": 2.2181818,
                "tempo": 120.0
            },
            {
                "start_time": 22.825,
                "end_time": 22.9295455,
                "pitch": 38,
                "velocity": 51,
                "duration": 0.1045455,
                "tempo": 120.0
            },
            {
                "start_time": 22.825,
                "end_time": 22.9295455,
                "pitch": 38,
                "velocity": 51,
                "duration": 0.1045455,
                "tempo": 120.0
            },
            {
                "start_time": 22.9295455,
                "end_time": 23.025,
                "pitch": 35,
                "velocity": 101,
                "duration": 0.0954545,
                "tempo": 120.0
            },
            {
                "start_time": 22.6181818,
                "end_time": 23.0272727,
                "pitch": 41,
                "velocity": 101,
                "duration": 0.4090909,
                "tempo": 120.0
            },
            {
                "start_time": 23.025,
                "end_time": 23.0272727,
                "pitch": 41,
                "velocity": 101,
                "duration": 0.0022727,
                "tempo": 120.0
            },
            {
                "start_time": 23.0272727,
                "end_time": 23.125,
                "pitch": 38,
                "velocity": 51,
                "duration": 0.0977273,
                "tempo": 120.0
            },
            {
                "start_time": 23.125,
                "end_time": 23.2227273,
                "pitch": 36,
                "velocity": 51,
                "duration": 0.0977273,
                "tempo": 120.0
            },
            {
                "start_time": 23.125,
                "end_time": 23.2227273,
                "pitch": 36,
                "velocity": 51,
                "duration": 0.0977273,
                "tempo": 120.0
            },
            {
                "start_time": 22.9295455,
                "end_time": 23.3204545,
                "pitch": 19,
                "velocity": 51,
                "duration": 0.3909091,
                "tempo": 120.0
            },
            {
                "start_time": 23.2227273,
                "end_time": 23.3204545,
                "pitch": 38,
                "velocity": 51,
                "duration": 0.0977273,
                "tempo": 120.0
            },
            {
                "start_time": 23.2227273,
                "end_time": 23.3204545,
                "pitch": 38,
                "velocity": 51,
                "duration": 0.0977273,
                "tempo": 120.0
            },
            {
                "start_time": 23.3204545,
                "end_time": 23.4204545,
                "pitch": 35,
                "velocity": 101,
                "duration": 0.1,
                "tempo": 120.0
            },
            {
                "start_time": 23.4204545,
                "end_time": 23.5227273,
                "pitch": 38,
                "velocity": 51,
                "duration": 0.1022727,
                "tempo": 120.0
            },
            {
                "start_time": 23.5227273,
                "end_time": 23.6227273,
                "pitch": 36,
                "velocity": 51,
                "duration": 0.1,
                "tempo": 120.0
            },
            {
                "start_time": 23.5227273,
                "end_time": 23.6227273,
                "pitch": 36,
                "velocity": 51,
                "duration": 0.1,
                "tempo": 120.0
            },
            {
                "start_time": 23.3204545,
                "end_time": 23.725,
                "pitch": 19,
                "velocity": 51,
                "duration": 0.4045455,
                "tempo": 120.0
            },
            {
                "start_time": 23.6227273,
                "end_time": 23.725,
                "pitch": 38,
                "velocity": 51,
                "duration": 0.1022727,
                "tempo": 120.0
            },
            {
                "start_time": 23.6227273,
                "end_time": 23.725,
                "pitch": 38,
                "velocity": 51,
                "duration": 0.1022727,
                "tempo": 120.0
            },
            {
                "start_time": 23.725,
                "end_time": 23.8227273,
                "pitch": 35,
                "velocity": 101,
                "duration": 0.0977273,
                "tempo": 120.0
            },
            {
                "start_time": 23.4204545,
                "end_time": 23.825,
                "pitch": 41,
                "velocity": 101,
                "duration": 0.4045455,
                "tempo": 120.0
            },
            {
                "start_time": 23.8227273,
                "end_time": 23.825,
                "pitch": 41,
                "velocity": 101,
                "duration": 0.0022727,
                "tempo": 120.0
            },
            {
                "start_time": 23.825,
                "end_time": 23.925,
                "pitch": 38,
                "velocity": 51,
                "duration": 0.1,
                "tempo": 120.0
            },
            {
                "start_time": 23.925,
                "end_time": 24.025,
                "pitch": 36,
                "velocity": 51,
                "duration": 0.1,
                "tempo": 120.0
            },
            {
                "start_time": 23.925,
                "end_time": 24.025,
                "pitch": 36,
                "velocity": 51,
                "duration": 0.1,
                "tempo": 120.0
            },
            {
                "start_time": 20.5090909,
                "end_time": 24.1272727,
                "pitch": 7,
                "velocity": 51,
                "duration": 3.6181818,
                "tempo": 120.0
            },
            {
                "start_time": 24.025,
                "end_time": 24.1272727,
                "pitch": 38,
                "velocity": 51,
                "duration": 0.1022727,
                "tempo": 120.0
            },
            {
                "start_time": 24.025,
                "end_time": 24.1272727,
                "pitch": 38,
                "velocity": 51,
                "duration": 0.1022727,
                "tempo": 120.0
            },
            {
                "start_time": 24.1272727,
                "end_time": 24.2272727,
                "pitch": 33,
                "velocity": 101,
                "duration": 0.1,
                "tempo": 120.0
            },
            {
                "start_time": 20.8113636,
                "end_time": 24.2272727,
                "pitch": 40,
                "velocity": 51,
                "duration": 3.4159091,
                "tempo": 120.0
            },
            {
                "start_time": 23.725,
                "end_time": 24.3295455,
                "pitch": 19,
                "velocity": 51,
                "duration": 0.6045455,
                "tempo": 120.0
            },
            {
                "start_time": 24.2272727,
                "end_time": 24.3295455,
                "pitch": 36,
                "velocity": 51,
                "duration": 0.1022727,
                "tempo": 120.0
            },
            {
                "start_time": 24.3295455,
                "end_time": 24.4318182,
                "pitch": 35,
                "velocity": 51,
                "duration": 0.1022727,
                "tempo": 120.0
            },
            {
                "start_time": 24.2272727,
                "end_time": 24.4318182,
                "pitch": 40,
                "velocity": 101,
                "duration": 0.2045455,
                "tempo": 120.0
            },
            {
                "start_time": 24.1272727,
                "end_time": 24.5363636,
                "pitch": 7,
                "velocity": 51,
                "duration": 0.4090909,
                "tempo": 120.0
            },
            {
                "start_time": 24.4318182,
                "end_time": 24.5363636,
                "pitch": 36,
                "velocity": 51,
                "duration": 0.1045455,
                "tempo": 120.0
            },
            {
                "start_time": 24.5363636,
                "end_time": 24.6340909,
                "pitch": 33,
                "velocity": 101,
                "duration": 0.0977273,
                "tempo": 120.0
            },
            {
                "start_time": 24.4318182,
                "end_time": 24.6340909,
                "pitch": 40,
                "velocity": 51,
                "duration": 0.2022727,
                "tempo": 120.0
            },
            {
                "start_time": 24.3295455,
                "end_time": 24.7318182,
                "pitch": 19,
                "velocity": 51,
                "duration": 0.4022727,
                "tempo": 120.0
            },
            {
                "start_time": 24.6340909,
                "end_time": 24.7318182,
                "pitch": 36,
                "velocity": 51,
                "duration": 0.0977273,
                "tempo": 120.0
            },
            {
                "start_time": 24.7318182,
                "end_time": 24.8295455,
                "pitch": 35,
                "velocity": 51,
                "duration": 0.0977273,
                "tempo": 120.0
            },
            {
                "start_time": 24.6340909,
                "end_time": 24.8295455,
                "pitch": 40,
                "velocity": 101,
                "duration": 0.1954545,
                "tempo": 120.0
            },
            {
                "start_time": 24.5363636,
                "end_time": 24.9295455,
                "pitch": 7,
                "velocity": 51,
                "duration": 0.3931818,
                "tempo": 120.0
            },
            {
                "start_time": 24.8295455,
                "end_time": 24.9295455,
                "pitch": 36,
                "velocity": 51,
                "duration": 0.1,
                "tempo": 120.0
            },
            {
                "start_time": 24.9295455,
                "end_time": 25.0272727,
                "pitch": 33,
                "velocity": 101,
                "duration": 0.0977273,
                "tempo": 120.0
            },
            {
                "start_time": 24.8295455,
                "end_time": 25.0272727,
                "pitch": 40,
                "velocity": 51,
                "duration": 0.1977273,
                "tempo": 120.0
            },
            {
                "start_time": 24.7318182,
                "end_time": 25.1272727,
                "pitch": 19,
                "velocity": 51,
                "duration": 0.3954545,
                "tempo": 120.0
            },
            {
                "start_time": 25.0272727,
                "end_time": 25.1272727,
                "pitch": 36,
                "velocity": 51,
                "duration": 0.1,
                "tempo": 120.0
            },
            {
                "start_time": 25.1295455,
                "end_time": 25.2272727,
                "pitch": 35,
                "velocity": 51,
                "duration": 0.0977273,
                "tempo": 120.0
            },
            {
                "start_time": 25.0272727,
                "end_time": 25.2295455,
                "pitch": 40,
                "velocity": 101,
                "duration": 0.2022727,
                "tempo": 120.0
            },
            {
                "start_time": 25.2272727,
                "end_time": 25.2295455,
                "pitch": 40,
                "velocity": 51,
                "duration": 0.0022727,
                "tempo": 120.0
            },
            {
                "start_time": 24.9295455,
                "end_time": 25.3295455,
                "pitch": 7,
                "velocity": 51,
                "duration": 0.4,
                "tempo": 120.0
            },
            {
                "start_time": 25.2295455,
                "end_time": 25.3295455,
                "pitch": 36,
                "velocity": 51,
                "duration": 0.1,
                "tempo": 120.0
            },
            {
                "start_time": 25.3295455,
                "end_time": 25.4295455,
                "pitch": 33,
                "velocity": 101,
                "duration": 0.1,
                "tempo": 120.0
            },
            {
                "start_time": 25.1272727,
                "end_time": 25.5295455,
                "pitch": 19,
                "velocity": 51,
                "duration": 0.4022727,
                "tempo": 120.0
            },
            {
                "start_time": 25.4295455,
                "end_time": 25.5295455,
                "pitch": 36,
                "velocity": 51,
                "duration": 0.1,
                "tempo": 120.0
            },
            {
                "start_time": 25.5295455,
                "end_time": 25.6318182,
                "pitch": 35,
                "velocity": 51,
                "duration": 0.1022727,
                "tempo": 120.0
            },
            {
                "start_time": 25.4295455,
                "end_time": 25.6318182,
                "pitch": 40,
                "velocity": 101,
                "duration": 0.2022727,
                "tempo": 120.0
            },
            {
                "start_time": 25.3295455,
                "end_time": 25.7409091,
                "pitch": 7,
                "velocity": 51,
                "duration": 0.4113636,
                "tempo": 120.0
            },
            {
                "start_time": 25.6318182,
                "end_time": 25.7409091,
                "pitch": 36,
                "velocity": 51,
                "duration": 0.1090909,
                "tempo": 120.0
            },
            {
                "start_time": 25.7409091,
                "end_time": 25.8340909,
                "pitch": 33,
                "velocity": 101,
                "duration": 0.0931818,
                "tempo": 120.0
            },
            {
                "start_time": 25.6318182,
                "end_time": 25.8340909,
                "pitch": 40,
                "velocity": 51,
                "duration": 0.2022727,
                "tempo": 120.0
            },
            {
                "start_time": 25.8340909,
                "end_time": 25.8363636,
                "pitch": 36,
                "velocity": 51,
                "duration": 0.0022727,
                "tempo": 120.0
            }
        ],
        "Vibraphone": [
            {
                "start_time": 0.0136364,
                "end_time": 0.0454545,
                "pitch": 72,
                "velocity": 80,
                "duration": 0.0318182,
                "tempo": 120.0
            },
            {
                "start_time": 0.0977273,
                "end_time": 0.1454545,
                "pitch": 76,
                "velocity": 64,
                "duration": 0.0477273,
                "tempo": 120.0
            },
            {
                "start_time": 0.1977273,
                "end_time": 0.2454545,
                "pitch": 74,
                "velocity": 64,
                "duration": 0.0477273,
                "tempo": 120.0
            },
            {
                "start_time": 0.2977273,
                "end_time": 0.3477273,
                "pitch": 76,
                "velocity": 64,
                "duration": 0.05,
                "tempo": 120.0
            },
            {
                "start_time": 0.4,
                "end_time": 0.4454545,
                "pitch": 72,
                "velocity": 80,
                "duration": 0.0454545,
                "tempo": 120.0
            },
            {
                "start_time": 0.4931818,
                "end_time": 0.5409091,
                "pitch": 76,
                "velocity": 64,
                "duration": 0.0477273,
                "tempo": 120.0
            },
            {
                "start_time": 0.5886364,
                "end_time": 0.6363636,
                "pitch": 74,
                "velocity": 64,
                "duration": 0.0477273,
                "tempo": 120.0
            },
            {
                "start_time": 0.6840909,
                "end_time": 0.7318182,
                "pitch": 76,
                "velocity": 64,
                "duration": 0.0477273,
                "tempo": 120.0
            },
            {
                "start_time": 0.7818182,
                "end_time": 0.8295455,
                "pitch": 72,
                "velocity": 80,
                "duration": 0.0477273,
                "tempo": 120.0
            },
            {
                "start_time": 0.8818182,
                "end_time": 0.9295455,
                "pitch": 76,
                "velocity": 64,
                "duration": 0.0477273,
                "tempo": 120.0
            },
            {
                "start_time": 0.9818182,
                "end_time": 1.0295455,
                "pitch": 74,
                "velocity": 64,
                "duration": 0.0477273,
                "tempo": 120.0
            },
            {
                "start_time": 1.0818182,
                "end_time": 1.1295455,
                "pitch": 76,
                "velocity": 64,
                "duration": 0.0477273,
                "tempo": 120.0
            },
            {
                "start_time": 1.1818182,
                "end_time": 1.2295455,
                "pitch": 72,
                "velocity": 80,
                "duration": 0.0477273,
                "tempo": 120.0
            },
            {
                "start_time": 1.2818182,
                "end_time": 1.3295455,
                "pitch": 76,
                "velocity": 64,
                "duration": 0.0477273,
                "tempo": 120.0
            },
            {
                "start_time": 1.3818182,
                "end_time": 1.4295455,
                "pitch": 74,
                "velocity": 64,
                "duration": 0.0477273,
                "tempo": 120.0
            },
            {
                "start_time": 1.4818182,
                "end_time": 1.5295455,
                "pitch": 76,
                "velocity": 64,
                "duration": 0.0477273,
                "tempo": 120.0
            },
            {
                "start_time": 1.5863636,
                "end_time": 1.6318182,
                "pitch": 71,
                "velocity": 80,
                "duration": 0.0454545,
                "tempo": 120.0
            },
            {
                "start_time": 1.6818182,
                "end_time": 1.7318182,
                "pitch": 74,
                "velocity": 64,
                "duration": 0.05,
                "tempo": 120.0
            },
            {
                "start_time": 1.7840909,
                "end_time": 1.8318182,
                "pitch": 72,
                "velocity": 64,
                "duration": 0.0477273,
                "tempo": 120.0
            },
            {
                "start_time": 1.8840909,
                "end_time": 1.9340909,
                "pitch": 74,
                "velocity": 64,
                "duration": 0.05,
                "tempo": 120.0
            },
            {
                "start_time": 1.9863636,
                "end_time": 2.0340909,
                "pitch": 71,
                "velocity": 80,
                "duration": 0.0477273,
                "tempo": 120.0
            },
            {
                "start_time": 2.0886364,
                "end_time": 2.1386364,
                "pitch": 74,
                "velocity": 64,
                "duration": 0.05,
                "tempo": 120.0
            },
            {
                "start_time": 2.1909091,
                "end_time": 2.2409091,
                "pitch": 72,
                "velocity": 64,
                "duration": 0.05,
                "tempo": 120.0
            },
            {
                "start_time": 2.2931818,
                "end_time": 2.3431818,
                "pitch": 74,
                "velocity": 64,
                "duration": 0.05,
                "tempo": 120.0
            },
            {
                "start_time": 2.3977273,
                "end_time": 2.4454545,
                "pitch": 71,
                "velocity": 80,
                "duration": 0.0477273,
                "tempo": 120.0
            },
            {
                "start_time": 2.4977273,
                "end_time": 2.5454545,
                "pitch": 74,
                "velocity": 64,
                "duration": 0.0477273,
                "tempo": 120.0
            },
            {
                "start_time": 2.5977273,
                "end_time": 2.6477273,
                "pitch": 72,
                "velocity": 64,
                "duration": 0.05,
                "tempo": 120.0
            },
            {
                "start_time": 2.7,
                "end_time": 2.7477273,
                "pitch": 74,
                "velocity": 64,
                "duration": 0.0477273,
                "tempo": 120.0
            },
            {
                "start_time": 2.8022727,
                "end_time": 2.8477273,
                "pitch": 71,
                "velocity": 80,
                "duration": 0.0454545,
                "tempo": 120.0
            },
            {
                "start_time": 2.9,
                "end_time": 2.9477273,
                "pitch": 74,
                "velocity": 64,
                "duration": 0.0477273,
                "tempo": 120.0
            },
            {
                "start_time": 3.0,
                "end_time": 3.0477273,
                "pitch": 72,
                "velocity": 64,
                "duration": 0.0477273,
                "tempo": 120.0
            },
            {
                "start_time": 3.1,
                "end_time": 3.1477273,
                "pitch": 74,
                "velocity": 64,
                "duration": 0.0477273,
                "tempo": 120.0
            },
            {
                "start_time": 3.2045455,
                "end_time": 3.25,
                "pitch": 74,
                "velocity": 80,
                "duration": 0.0454545,
                "tempo": 120.0
            },
            {
                "start_time": 3.3,
                "end_time": 3.35,
                "pitch": 77,
                "velocity": 64,
                "duration": 0.05,
                "tempo": 120.0
            },
            {
                "start_time": 3.4,
                "end_time": 3.45,
                "pitch": 76,
                "velocity": 64,
                "duration": 0.05,
                "tempo": 120.0
            },
            {
                "start_time": 3.5,
                "end_time": 3.55,
                "pitch": 77,
                "velocity": 64,
                "duration": 0.05,
                "tempo": 120.0
            },
            {
                "start_time": 3.6022727,
                "end_time": 3.65,
                "pitch": 74,
                "velocity": 80,
                "duration": 0.0477273,
                "tempo": 120.0
            },
            {
                "start_time": 3.7022727,
                "end_time": 3.75,
                "pitch": 77,
                "velocity": 64,
                "duration": 0.0477273,
                "tempo": 120.0
            },
            {
                "start_time": 3.8,
                "end_time": 3.85,
                "pitch": 76,
                "velocity": 64,
                "duration": 0.05,
                "tempo": 120.0
            },
            {
                "start_time": 3.9,
                "end_time": 3.95,
                "pitch": 77,
                "velocity": 64,
                "duration": 0.05,
                "tempo": 120.0
            },
            {
                "start_time": 4.0022727,
                "end_time": 4.05,
                "pitch": 74,
                "velocity": 80,
                "duration": 0.0477273,
                "tempo": 120.0
            },
            {
                "start_time": 4.1022727,
                "end_time": 4.15,
                "pitch": 77,
                "velocity": 64,
                "duration": 0.0477273,
                "tempo": 120.0
            },
            {
                "start_time": 4.2022727,
                "end_time": 4.25,
                "pitch": 76,
                "velocity": 64,
                "duration": 0.0477273,
                "tempo": 120.0
            },
            {
                "start_time": 4.3022727,
                "end_time": 4.35,
                "pitch": 77,
                "velocity": 64,
                "duration": 0.0477273,
                "tempo": 120.0
            },
            {
                "start_time": 4.4045455,
                "end_time": 4.45,
                "pitch": 74,
                "velocity": 80,
                "duration": 0.0454545,
                "tempo": 120.0
            },
            {
                "start_time": 4.5022727,
                "end_time": 4.5522727,
                "pitch": 77,
                "velocity": 64,
                "duration": 0.05,
                "tempo": 120.0
            },
            {
                "start_time": 4.6022727,
                "end_time": 4.6522727,
                "pitch": 76,
                "velocity": 64,
                "duration": 0.05,
                "tempo": 120.0
            },
            {
                "start_time": 4.7045455,
                "end_time": 4.7522727,
                "pitch": 77,
                "velocity": 64,
                "duration": 0.0477273,
                "tempo": 120.0
            },
            {
                "start_time": 4.8090909,
                "end_time": 4.8545455,
                "pitch": 72,
                "velocity": 80,
                "duration": 0.0454545,
                "tempo": 120.0
            },
            {
                "start_time": 4.9045455,
                "end_time": 4.9545455,
                "pitch": 76,
                "velocity": 64,
                "duration": 0.05,
                "tempo": 120.0
            },
            {
                "start_time": 5.0045455,
                "end_time": 5.0545455,
                "pitch": 74,
                "velocity": 64,
                "duration": 0.05,
                "tempo": 120.0
            },
            {
                "start_time": 5.1045455,
                "end_time": 5.1545455,
                "pitch": 76,
                "velocity": 64,
                "duration": 0.05,
                "tempo": 120.0
            },
            {
                "start_time": 5.2068182,
                "end_time": 5.2545455,
                "pitch": 72,
                "velocity": 80,
                "duration": 0.0477273,
                "tempo": 120.0
            },
            {
                "start_time": 5.3068182,
                "end_time": 5.3545455,
                "pitch": 76,
                "velocity": 64,
                "duration": 0.0477273,
                "tempo": 120.0
            },
            {
                "start_time": 5.4068182,
                "end_time": 5.4568182,
                "pitch": 74,
                "velocity": 64,
                "duration": 0.05,
                "tempo": 120.0
            },
            {
                "start_time": 5.5068182,
                "end_time": 5.5568182,
                "pitch": 76,
                "velocity": 64,
                "duration": 0.05,
                "tempo": 120.0
            },
            {
                "start_time": 5.6113636,
                "end_time": 5.6568182,
                "pitch": 72,
                "velocity": 80,
                "duration": 0.0454545,
                "tempo": 120.0
            },
            {
                "start_time": 5.7090909,
                "end_time": 5.7590909,
                "pitch": 76,
                "velocity": 64,
                "duration": 0.05,
                "tempo": 120.0
            },
            {
                "start_time": 5.8113636,
                "end_time": 5.8590909,
                "pitch": 74,
                "velocity": 64,
                "duration": 0.0477273,
                "tempo": 120.0
            },
            {
                "start_time": 5.9113636,
                "end_time": 5.9590909,
                "pitch": 76,
                "velocity": 64,
                "duration": 0.0477273,
                "tempo": 120.0
            },
            {
                "start_time": 6.0136364,
                "end_time": 6.0613636,
                "pitch": 72,
                "velocity": 80,
                "duration": 0.0477273,
                "tempo": 120.0
            },
            {
                "start_time": 6.1113636,
                "end_time": 6.1613636,
                "pitch": 76,
                "velocity": 64,
                "duration": 0.05,
                "tempo": 120.0
            },
            {
                "start_time": 6.2113636,
                "end_time": 6.2613636,
                "pitch": 74,
                "velocity": 64,
                "duration": 0.05,
                "tempo": 120.0
            },
            {
                "start_time": 6.3113636,
                "end_time": 6.3613636,
                "pitch": 76,
                "velocity": 64,
                "duration": 0.05,
                "tempo": 120.0
            },
            {
                "start_time": 6.4204545,
                "end_time": 6.4613636,
                "pitch": 72,
                "velocity": 80,
                "duration": 0.0409091,
                "tempo": 120.0
            },
            {
                "start_time": 6.5136364,
                "end_time": 6.5613636,
                "pitch": 76,
                "velocity": 64,
                "duration": 0.0477273,
                "tempo": 120.0
            },
            {
                "start_time": 6.6136364,
                "end_time": 6.6636364,
                "pitch": 74,
                "velocity": 64,
                "duration": 0.05,
                "tempo": 120.0
            },
            {
                "start_time": 6.7159091,
                "end_time": 6.7636364,
                "pitch": 76,
                "velocity": 64,
                "duration": 0.0477273,
                "tempo": 120.0
            },
            {
                "start_time": 6.8181818,
                "end_time": 6.8636364,
                "pitch": 72,
                "velocity": 80,
                "duration": 0.0454545,
                "tempo": 120.0
            },
            {
                "start_time": 6.9159091,
                "end_time": 6.9636364,
                "pitch": 76,
                "velocity": 64,
                "duration": 0.0477273,
                "tempo": 120.0
            },
            {
                "start_time": 7.0159091,
                "end_time": 7.0636364,
                "pitch": 74,
                "velocity": 64,
                "duration": 0.0477273,
                "tempo": 120.0
            },
            {
                "start_time": 7.1159091,
                "end_time": 7.1636364,
                "pitch": 76,
                "velocity": 64,
                "duration": 0.0477273,
                "tempo": 120.0
            },
            {
                "start_time": 7.2181818,
                "end_time": 7.2659091,
                "pitch": 72,
                "velocity": 80,
                "duration": 0.0477273,
                "tempo": 120.0
            },
            {
                "start_time": 7.3181818,
                "end_time": 7.3659091,
                "pitch": 76,
                "velocity": 64,
                "duration": 0.0477273,
                "tempo": 120.0
            },
            {
                "start_time": 7.4181818,
                "end_time": 7.4659091,
                "pitch": 74,
                "velocity": 64,
                "duration": 0.0477273,
                "tempo": 120.0
            },
            {
                "start_time": 7.5181818,
                "end_time": 7.5681818,
                "pitch": 76,
                "velocity": 64,
                "duration": 0.05,
                "tempo": 120.0
            },
            {
                "start_time": 7.6204545,
                "end_time": 7.6681818,
                "pitch": 72,
                "velocity": 80,
                "duration": 0.0477273,
                "tempo": 120.0
            },
            {
                "start_time": 7.7204545,
                "end_time": 7.7681818,
                "pitch": 76,
                "velocity": 64,
                "duration": 0.0477273,
                "tempo": 120.0
            },
            {
                "start_time": 7.8204545,
                "end_time": 7.8704545,
                "pitch": 74,
                "velocity": 64,
                "duration": 0.05,
                "tempo": 120.0
            },
            {
                "start_time": 7.9227273,
                "end_time": 7.9704545,
                "pitch": 76,
                "velocity": 64,
                "duration": 0.0477273,
                "tempo": 120.0
            },
            {
                "start_time": 8.0272727,
                "end_time": 8.0704545,
                "pitch": 71,
                "velocity": 80,
                "duration": 0.0431818,
                "tempo": 120.0
            },
            {
                "start_time": 8.1227273,
                "end_time": 8.1704545,
                "pitch": 74,
                "velocity": 64,
                "duration": 0.0477273,
                "tempo": 120.0
            },
            {
                "start_time": 8.2227273,
                "end_time": 8.2704545,
                "pitch": 72,
                "velocity": 64,
                "duration": 0.0477273,
                "tempo": 120.0
            },
            {
                "start_time": 8.3227273,
                "end_time": 8.3727273,
                "pitch": 74,
                "velocity": 64,
                "duration": 0.05,
                "tempo": 120.0
            },
            {
                "start_time": 8.425,
                "end_time": 8.4727273,
                "pitch": 71,
                "velocity": 80,
                "duration": 0.0477273,
                "tempo": 120.0
            },
            {
                "start_time": 8.525,
                "end_time": 8.5727273,
                "pitch": 74,
                "velocity": 64,
                "duration": 0.0477273,
                "tempo": 120.0
            },
            {
                "start_time": 8.625,
                "end_time": 8.6727273,
                "pitch": 72,
                "velocity": 64,
                "duration": 0.0477273,
                "tempo": 120.0
            },
            {
                "start_time": 8.725,
                "end_time": 8.775,
                "pitch": 74,
                "velocity": 64,
                "duration": 0.05,
                "tempo": 120.0
            },
            {
                "start_time": 8.8272727,
                "end_time": 8.875,
                "pitch": 71,
                "velocity": 80,
                "duration": 0.0477273,
                "tempo": 120.0
            },
            {
                "start_time": 8.9272727,
                "end_time": 8.975,
                "pitch": 74,
                "velocity": 64,
                "duration": 0.0477273,
                "tempo": 120.0
            },
            {
                "start_time": 9.0272727,
                "end_time": 9.0772727,
                "pitch": 72,
                "velocity": 64,
                "duration": 0.05,
                "tempo": 120.0
            },
            {
                "start_time": 9.1295455,
                "end_time": 9.1772727,
                "pitch": 74,
                "velocity": 64,
                "duration": 0.0477273,
                "tempo": 120.0
            },
            {
                "start_time": 9.2318182,
                "end_time": 9.2795455,
                "pitch": 71,
                "velocity": 80,
                "duration": 0.0477273,
                "tempo": 120.0
            },
            {
                "start_time": 9.3295455,
                "end_time": 9.3795455,
                "pitch": 74,
                "velocity": 64,
                "duration": 0.05,
                "tempo": 120.0
            },
            {
                "start_time": 9.4318182,
                "end_time": 9.4795455,
                "pitch": 72,
                "velocity": 64,
                "duration": 0.0477273,
                "tempo": 120.0
            },
            {
                "start_time": 9.5318182,
                "end_time": 9.5818182,
                "pitch": 74,
                "velocity": 64,
                "duration": 0.05,
                "tempo": 120.0
            },
            {
                "start_time": 9.6363636,
                "end_time": 9.6818182,
                "pitch": 74,
                "velocity": 80,
                "duration": 0.0454545,
                "tempo": 120.0
            },
            {
                "start_time": 9.7363636,
                "end_time": 9.7863636,
                "pitch": 77,
                "velocity": 64,
                "duration": 0.05,
                "tempo": 120.0
            },
            {
                "start_time": 9.8386364,
                "end_time": 9.8886364,
                "pitch": 76,
                "velocity": 64,
                "duration": 0.05,
                "tempo": 120.0
            },
            {
                "start_time": 9.9409091,
                "end_time": 9.9909091,
                "pitch": 77,
                "velocity": 64,
                "duration": 0.05,
                "tempo": 120.0
            },
            {
                "start_time": 10.0454545,
                "end_time": 10.0931818,
                "pitch": 74,
                "velocity": 80,
                "duration": 0.0477273,
                "tempo": 120.0
            },
            {
                "start_time": 10.1454545,
                "end_time": 10.1931818,
                "pitch": 77,
                "velocity": 64,
                "duration": 0.0477273,
                "tempo": 120.0
            },
            {
                "start_time": 10.2454545,
                "end_time": 10.2954545,
                "pitch": 76,
                "velocity": 64,
                "duration": 0.05,
                "tempo": 120.0
            },
            {
                "start_time": 10.3454545,
                "end_time": 10.3954545,
                "pitch": 77,
                "velocity": 64,
                "duration": 0.05,
                "tempo": 120.0
            },
            {
                "start_time": 10.45,
                "end_time": 10.4954545,
                "pitch": 74,
                "velocity": 80,
                "duration": 0.0454545,
                "tempo": 120.0
            },
            {
                "start_time": 10.5477273,
                "end_time": 10.5977273,
                "pitch": 77,
                "velocity": 64,
                "duration": 0.05,
                "tempo": 120.0
            },
            {
                "start_time": 10.65,
                "end_time": 10.6977273,
                "pitch": 76,
                "velocity": 64,
                "duration": 0.0477273,
                "tempo": 120.0
            },
            {
                "start_time": 10.75,
                "end_time": 10.7977273,
                "pitch": 77,
                "velocity": 64,
                "duration": 0.0477273,
                "tempo": 120.0
            },
            {
                "start_time": 10.8522727,
                "end_time": 10.9,
                "pitch": 74,
                "velocity": 80,
                "duration": 0.0477273,
                "tempo": 120.0
            },
            {
                "start_time": 10.9522727,
                "end_time": 11.0,
                "pitch": 77,
                "velocity": 64,
                "duration": 0.0477273,
                "tempo": 120.0
            },
            {
                "start_time": 11.0522727,
                "end_time": 11.1022727,
                "pitch": 76,
                "velocity": 64,
                "duration": 0.05,
                "tempo": 120.0
            },
            {
                "start_time": 11.1522727,
                "end_time": 11.2022727,
                "pitch": 77,
                "velocity": 64,
                "duration": 0.05,
                "tempo": 120.0
            },
            {
                "start_time": 11.2568182,
                "end_time": 11.3022727,
                "pitch": 72,
                "velocity": 80,
                "duration": 0.0454545,
                "tempo": 120.0
            },
            {
                "start_time": 11.3545455,
                "end_time": 11.4045455,
                "pitch": 76,
                "velocity": 64,
                "duration": 0.05,
                "tempo": 120.0
            },
            {
                "start_time": 11.4545455,
                "end_time": 11.5045455,
                "pitch": 74,
                "velocity": 64,
                "duration": 0.05,
                "tempo": 120.0
            },
            {
                "start_time": 11.5568182,
                "end_time": 11.6045455,
                "pitch": 76,
                "velocity": 64,
                "duration": 0.0477273,
                "tempo": 120.0
            },
            {
                "start_time": 11.6590909,
                "end_time": 11.7068182,
                "pitch": 72,
                "velocity": 80,
                "duration": 0.0477273,
                "tempo": 120.0
            },
            {
                "start_time": 11.7568182,
                "end_time": 11.8068182,
                "pitch": 76,
                "velocity": 64,
                "duration": 0.05,
                "tempo": 120.0
            },
            {
                "start_time": 11.8568182,
                "end_time": 11.9068182,
                "pitch": 74,
                "velocity": 64,
                "duration": 0.05,
                "tempo": 120.0
            },
            {
                "start_time": 11.9568182,
                "end_time": 12.0068182,
                "pitch": 76,
                "velocity": 64,
                "duration": 0.05,
                "tempo": 120.0
            },
            {
                "start_time": 12.0590909,
                "end_time": 12.1068182,
                "pitch": 72,
                "velocity": 80,
                "duration": 0.0477273,
                "tempo": 120.0
            },
            {
                "start_time": 12.1590909,
                "end_time": 12.2068182,
                "pitch": 76,
                "velocity": 64,
                "duration": 0.0477273,
                "tempo": 120.0
            },
            {
                "start_time": 12.2590909,
                "end_time": 12.3090909,
                "pitch": 74,
                "velocity": 64,
                "duration": 0.05,
                "tempo": 120.0
            },
            {
                "start_time": 12.3590909,
                "end_time": 12.4090909,
                "pitch": 76,
                "velocity": 64,
                "duration": 0.05,
                "tempo": 120.0
            },
            {
                "start_time": 12.4613636,
                "end_time": 12.5090909,
                "pitch": 72,
                "velocity": 80,
                "duration": 0.0477273,
                "tempo": 120.0
            },
            {
                "start_time": 12.5613636,
                "end_time": 12.6113636,
                "pitch": 76,
                "velocity": 64,
                "duration": 0.05,
                "tempo": 120.0
            },
            {
                "start_time": 12.6613636,
                "end_time": 12.7113636,
                "pitch": 74,
                "velocity": 64,
                "duration": 0.05,
                "tempo": 120.0
            },
            {
                "start_time": 12.7636364,
                "end_time": 12.8113636,
                "pitch": 76,
                "velocity": 64,
                "duration": 0.0477273,
                "tempo": 120.0
            },
            {
                "start_time": 12.875,
                "end_time": 12.9136364,
                "pitch": 72,
                "velocity": 80,
                "duration": 0.0386364,
                "tempo": 120.0
            },
            {
                "start_time": 12.9659091,
                "end_time": 13.0159091,
                "pitch": 76,
                "velocity": 64,
                "duration": 0.05,
                "tempo": 120.0
            },
            {
                "start_time": 13.0704545,
                "end_time": 13.1204545,
                "pitch": 74,
                "velocity": 64,
                "duration": 0.05,
                "tempo": 120.0
            },
            {
                "start_time": 13.1727273,
                "end_time": 13.2227273,
                "pitch": 76,
                "velocity": 64,
                "duration": 0.05,
                "tempo": 120.0
            },
            {
                "start_time": 13.2772727,
                "end_time": 13.3227273,
                "pitch": 72,
                "velocity": 80,
                "duration": 0.0454545,
                "tempo": 120.0
            },
            {
                "start_time": 13.3727273,
                "end_time": 13.4204545,
                "pitch": 76,
                "velocity": 64,
                "duration": 0.0477273,
                "tempo": 120.0
            },
            {
                "start_time": 13.4727273,
                "end_time": 13.5204545,
                "pitch": 74,
                "velocity": 64,
                "duration": 0.0477273,
                "tempo": 120.0
            },
            {
                "start_time": 13.5704545,
                "end_time": 13.6181818,
                "pitch": 76,
                "velocity": 64,
                "duration": 0.0477273,
                "tempo": 120.0
            },
            {
                "start_time": 13.6704545,
                "end_time": 13.7159091,
                "pitch": 72,
                "velocity": 80,
                "duration": 0.0454545,
                "tempo": 120.0
            },
            {
                "start_time": 13.7681818,
                "end_time": 13.8159091,
                "pitch": 76,
                "velocity": 64,
                "duration": 0.0477273,
                "tempo": 120.0
            },
            {
                "start_time": 13.8681818,
                "end_time": 13.9159091,
                "pitch": 74,
                "velocity": 64,
                "duration": 0.0477273,
                "tempo": 120.0
            },
            {
                "start_time": 13.9681818,
                "end_time": 14.0181818,
                "pitch": 76,
                "velocity": 64,
                "duration": 0.05,
                "tempo": 120.0
            },
            {
                "start_time": 14.0704545,
                "end_time": 14.1181818,
                "pitch": 72,
                "velocity": 80,
                "duration": 0.0477273,
                "tempo": 120.0
            },
            {
                "start_time": 14.1704545,
                "end_time": 14.2181818,
                "pitch": 76,
                "velocity": 64,
                "duration": 0.0477273,
                "tempo": 120.0
            },
            {
                "start_time": 14.2727273,
                "end_time": 14.3181818,
                "pitch": 74,
                "velocity": 64,
                "duration": 0.0454545,
                "tempo": 120.0
            },
            {
                "start_time": 14.3727273,
                "end_time": 14.4204545,
                "pitch": 76,
                "velocity": 64,
                "duration": 0.0477273,
                "tempo": 120.0
            },
            {
                "start_time": 14.4772727,
                "end_time": 14.5204545,
                "pitch": 71,
                "velocity": 80,
                "duration": 0.0431818,
                "tempo": 120.0
            },
            {
                "start_time": 14.5727273,
                "end_time": 14.6204545,
                "pitch": 74,
                "velocity": 64,
                "duration": 0.0477273,
                "tempo": 120.0
            },
            {
                "start_time": 14.6727273,
                "end_time": 14.7227273,
                "pitch": 72,
                "velocity": 64,
                "duration": 0.05,
                "tempo": 120.0
            },
            {
                "start_time": 14.775,
                "end_time": 14.8227273,
                "pitch": 74,
                "velocity": 64,
                "duration": 0.0477273,
                "tempo": 120.0
            },
            {
                "start_time": 14.8772727,
                "end_time": 14.925,
                "pitch": 71,
                "velocity": 80,
                "duration": 0.0477273,
                "tempo": 120.0
            },
            {
                "start_time": 14.975,
                "end_time": 15.025,
                "pitch": 74,
                "velocity": 64,
                "duration": 0.05,
                "tempo": 120.0
            },
            {
                "start_time": 15.0772727,
                "end_time": 15.125,
                "pitch": 72,
                "velocity": 64,
                "duration": 0.0477273,
                "tempo": 120.0
            },
            {
                "start_time": 15.1772727,
                "end_time": 15.2272727,
                "pitch": 74,
                "velocity": 64,
                "duration": 0.05,
                "tempo": 120.0
            },
            {
                "start_time": 15.2795455,
                "end_time": 15.3272727,
                "pitch": 71,
                "velocity": 80,
                "duration": 0.0477273,
                "tempo": 120.0
            },
            {
                "start_time": 15.3795455,
                "end_time": 15.4272727,
                "pitch": 74,
                "velocity": 64,
                "duration": 0.0477273,
                "tempo": 120.0
            },
            {
                "start_time": 15.4795455,
                "end_time": 15.5295455,
                "pitch": 72,
                "velocity": 64,
                "duration": 0.05,
                "tempo": 120.0
            },
            {
                "start_time": 15.5795455,
                "end_time": 15.6295455,
                "pitch": 74,
                "velocity": 64,
                "duration": 0.05,
                "tempo": 120.0
            },
            {
                "start_time": 15.6840909,
                "end_time": 15.7295455,
                "pitch": 71,
                "velocity": 80,
                "duration": 0.0454545,
                "tempo": 120.0
            },
            {
                "start_time": 15.7818182,
                "end_time": 15.8295455,
                "pitch": 74,
                "velocity": 64,
                "duration": 0.0477273,
                "tempo": 120.0
            },
            {
                "start_time": 15.8840909,
                "end_time": 15.9295455,
                "pitch": 72,
                "velocity": 64,
                "duration": 0.0454545,
                "tempo": 120.0
            },
            {
                "start_time": 15.9840909,
                "end_time": 16.0295455,
                "pitch": 74,
                "velocity": 64,
                "duration": 0.0454545,
                "tempo": 120.0
            },
            {
                "start_time": 16.0863636,
                "end_time": 16.1318182,
                "pitch": 74,
                "velocity": 80,
                "duration": 0.0454545,
                "tempo": 120.0
            },
            {
                "start_time": 16.1840909,
                "end_time": 16.2340909,
                "pitch": 77,
                "velocity": 64,
                "duration": 0.05,
                "tempo": 120.0
            },
            {
                "start_time": 16.2863636,
                "end_time": 16.3363636,
                "pitch": 76,
                "velocity": 64,
                "duration": 0.05,
                "tempo": 120.0
            },
            {
                "start_time": 16.3909091,
                "end_time": 16.4409091,
                "pitch": 77,
                "velocity": 64,
                "duration": 0.05,
                "tempo": 120.0
            },
            {
                "start_time": 16.4954545,
                "end_time": 16.5409091,
                "pitch": 74,
                "velocity": 80,
                "duration": 0.0454545,
                "tempo": 120.0
            },
            {
                "start_time": 16.5909091,
                "end_time": 16.6386364,
                "pitch": 77,
                "velocity": 64,
                "duration": 0.0477273,
                "tempo": 120.0
            },
            {
                "start_time": 16.6886364,
                "end_time": 16.7363636,
                "pitch": 76,
                "velocity": 64,
                "duration": 0.0477273,
                "tempo": 120.0
            },
            {
                "start_time": 16.7886364,
                "end_time": 16.8363636,
                "pitch": 77,
                "velocity": 64,
                "duration": 0.0477273,
                "tempo": 120.0
            },
            {
                "start_time": 16.8863636,
                "end_time": 16.9340909,
                "pitch": 74,
                "velocity": 80,
                "duration": 0.0477273,
                "tempo": 120.0
            },
            {
                "start_time": 16.9863636,
                "end_time": 17.0340909,
                "pitch": 77,
                "velocity": 64,
                "duration": 0.0477273,
                "tempo": 120.0
            },
            {
                "start_time": 17.0863636,
                "end_time": 17.1340909,
                "pitch": 76,
                "velocity": 64,
                "duration": 0.0477273,
                "tempo": 120.0
            },
            {
                "start_time": 17.1863636,
                "end_time": 17.2340909,
                "pitch": 77,
                "velocity": 64,
                "duration": 0.0477273,
                "tempo": 120.0
            },
            {
                "start_time": 17.2886364,
                "end_time": 17.3340909,
                "pitch": 74,
                "velocity": 80,
                "duration": 0.0454545,
                "tempo": 120.0
            },
            {
                "start_time": 17.3863636,
                "end_time": 17.4340909,
                "pitch": 77,
                "velocity": 64,
                "duration": 0.0477273,
                "tempo": 120.0
            },
            {
                "start_time": 17.4886364,
                "end_time": 17.5340909,
                "pitch": 76,
                "velocity": 64,
                "duration": 0.0454545,
                "tempo": 120.0
            },
            {
                "start_time": 17.5886364,
                "end_time": 17.6363636,
                "pitch": 77,
                "velocity": 64,
                "duration": 0.0477273,
                "tempo": 120.0
            },
            {
                "start_time": 17.6909091,
                "end_time": 17.7363636,
                "pitch": 72,
                "velocity": 80,
                "duration": 0.0454545,
                "tempo": 120.0
            },
            {
                "start_time": 17.7886364,
                "end_time": 17.8386364,
                "pitch": 76,
                "velocity": 64,
                "duration": 0.05,
                "tempo": 120.0
            },
            {
                "start_time": 17.8931818,
                "end_time": 17.9431818,
                "pitch": 74,
                "velocity": 64,
                "duration": 0.05,
                "tempo": 120.0
            },
            {
                "start_time": 17.9954545,
                "end_time": 18.0454545,
                "pitch": 76,
                "velocity": 64,
                "duration": 0.05,
                "tempo": 120.0
            },
            {
                "start_time": 18.1,
                "end_time": 18.1477273,
                "pitch": 72,
                "velocity": 80,
                "duration": 0.0477273,
                "tempo": 120.0
            },
            {
                "start_time": 18.2,
                "end_time": 18.2477273,
                "pitch": 76,
                "velocity": 64,
                "duration": 0.0477273,
                "tempo": 120.0
            },
            {
                "start_time": 18.3,
                "end_time": 18.3477273,
                "pitch": 74,
                "velocity": 64,
                "duration": 0.0477273,
                "tempo": 120.0
            },
            {
                "start_time": 18.4,
                "end_time": 18.45,
                "pitch": 76,
                "velocity": 64,
                "duration": 0.05,
                "tempo": 120.0
            },
            {
                "start_time": 18.5022727,
                "end_time": 18.55,
                "pitch": 72,
                "velocity": 80,
                "duration": 0.0477273,
                "tempo": 120.0
            },
            {
                "start_time": 18.6022727,
                "end_time": 18.65,
                "pitch": 76,
                "velocity": 64,
                "duration": 0.0477273,
                "tempo": 120.0
            },
            {
                "start_time": 18.7022727,
                "end_time": 18.75,
                "pitch": 74,
                "velocity": 64,
                "duration": 0.0477273,
                "tempo": 120.0
            },
            {
                "start_time": 18.8022727,
                "end_time": 18.85,
                "pitch": 76,
                "velocity": 64,
                "duration": 0.0477273,
                "tempo": 120.0
            },
            {
                "start_time": 18.9045455,
                "end_time": 18.95,
                "pitch": 72,
                "velocity": 80,
                "duration": 0.0454545,
                "tempo": 120.0
            },
            {
                "start_time": 19.0,
                "end_time": 19.0477273,
                "pitch": 76,
                "velocity": 64,
                "duration": 0.0477273,
                "tempo": 120.0
            },
            {
                "start_time": 19.0977273,
                "end_time": 19.1454545,
                "pitch": 74,
                "velocity": 64,
                "duration": 0.0477273,
                "tempo": 120.0
            },
            {
                "start_time": 19.1954545,
                "end_time": 19.2431818,
                "pitch": 76,
                "velocity": 64,
                "duration": 0.0477273,
                "tempo": 120.0
            },
            {
                "start_time": 19.3022727,
                "end_time": 19.3431818,
                "pitch": 72,
                "velocity": 80,
                "duration": 0.0409091,
                "tempo": 120.0
            },
            {
                "start_time": 19.3977273,
                "end_time": 19.4477273,
                "pitch": 76,
                "velocity": 64,
                "duration": 0.05,
                "tempo": 120.0
            },
            {
                "start_time": 19.5,
                "end_time": 19.55,
                "pitch": 74,
                "velocity": 64,
                "duration": 0.05,
                "tempo": 120.0
            },
            {
                "start_time": 19.6022727,
                "end_time": 19.6522727,
                "pitch": 76,
                "velocity": 64,
                "duration": 0.05,
                "tempo": 120.0
            },
            {
                "start_time": 19.7068182,
                "end_time": 19.7545455,
                "pitch": 72,
                "velocity": 80,
                "duration": 0.0477273,
                "tempo": 120.0
            },
            {
                "start_time": 19.8068182,
                "end_time": 19.8545455,
                "pitch": 76,
                "velocity": 64,
                "duration": 0.0477273,
                "tempo": 120.0
            },
            {
                "start_time": 19.9068182,
                "end_time": 19.9545455,
                "pitch": 74,
                "velocity": 64,
                "duration": 0.0477273,
                "tempo": 120.0
            },
            {
                "start_time": 20.0068182,
                "end_time": 20.0545455,
                "pitch": 76,
                "velocity": 64,
                "duration": 0.0477273,
                "tempo": 120.0
            },
            {
                "start_time": 20.1090909,
                "end_time": 20.1545455,
                "pitch": 72,
                "velocity": 80,
                "duration": 0.0454545,
                "tempo": 120.0
            },
            {
                "start_time": 20.2068182,
                "end_time": 20.2568182,
                "pitch": 76,
                "velocity": 64,
                "duration": 0.05,
                "tempo": 120.0
            },
            {
                "start_time": 20.3090909,
                "end_time": 20.3568182,
                "pitch": 74,
                "velocity": 64,
                "duration": 0.0477273,
                "tempo": 120.0
            },
            {
                "start_time": 20.4090909,
                "end_time": 20.4568182,
                "pitch": 76,
                "velocity": 64,
                "duration": 0.0477273,
                "tempo": 120.0
            },
            {
                "start_time": 20.5113636,
                "end_time": 20.5590909,
                "pitch": 72,
                "velocity": 80,
                "duration": 0.0477273,
                "tempo": 120.0
            },
            {
                "start_time": 20.6090909,
                "end_time": 20.6590909,
                "pitch": 76,
                "velocity": 64,
                "duration": 0.05,
                "tempo": 120.0
            },
            {
                "start_time": 20.7113636,
                "end_time": 20.7590909,
                "pitch": 74,
                "velocity": 64,
                "duration": 0.0477273,
                "tempo": 120.0
            },
            {
                "start_time": 20.8113636,
                "end_time": 20.8590909,
                "pitch": 76,
                "velocity": 64,
                "duration": 0.0477273,
                "tempo": 120.0
            },
            {
                "start_time": 20.9159091,
                "end_time": 20.9590909,
                "pitch": 71,
                "velocity": 80,
                "duration": 0.0431818,
                "tempo": 120.0
            },
            {
                "start_time": 21.0113636,
                "end_time": 21.0590909,
                "pitch": 74,
                "velocity": 64,
                "duration": 0.0477273,
                "tempo": 120.0
            },
            {
                "start_time": 21.1113636,
                "end_time": 21.1590909,
                "pitch": 72,
                "velocity": 64,
                "duration": 0.0477273,
                "tempo": 120.0
            },
            {
                "start_time": 21.2113636,
                "end_time": 21.2590909,
                "pitch": 74,
                "velocity": 64,
                "duration": 0.0477273,
                "tempo": 120.0
            },
            {
                "start_time": 21.3113636,
                "end_time": 21.3590909,
                "pitch": 71,
                "velocity": 80,
                "duration": 0.0477273,
                "tempo": 120.0
            },
            {
                "start_time": 21.4113636,
                "end_time": 21.4613636,
                "pitch": 74,
                "velocity": 64,
                "duration": 0.05,
                "tempo": 120.0
            },
            {
                "start_time": 21.5113636,
                "end_time": 21.5613636,
                "pitch": 72,
                "velocity": 64,
                "duration": 0.05,
                "tempo": 120.0
            },
            {
                "start_time": 21.6136364,
                "end_time": 21.6613636,
                "pitch": 74,
                "velocity": 64,
                "duration": 0.0477273,
                "tempo": 120.0
            },
            {
                "start_time": 21.7159091,
                "end_time": 21.7636364,
                "pitch": 71,
                "velocity": 80,
                "duration": 0.0477273,
                "tempo": 120.0
            },
            {
                "start_time": 21.8136364,
                "end_time": 21.8636364,
                "pitch": 74,
                "velocity": 64,
                "duration": 0.05,
                "tempo": 120.0
            },
            {
                "start_time": 21.9136364,
                "end_time": 21.9636364,
                "pitch": 72,
                "velocity": 64,
                "duration": 0.05,
                "tempo": 120.0
            },
            {
                "start_time": 22.0136364,
                "end_time": 22.0636364,
                "pitch": 74,
                "velocity": 64,
                "duration": 0.05,
                "tempo": 120.0
            },
            {
                "start_time": 22.1159091,
                "end_time": 22.1636364,
                "pitch": 71,
                "velocity": 80,
                "duration": 0.0477273,
                "tempo": 120.0
            },
            {
                "start_time": 22.2159091,
                "end_time": 22.2636364,
                "pitch": 74,
                "velocity": 64,
                "duration": 0.0477273,
                "tempo": 120.0
            },
            {
                "start_time": 22.3181818,
                "end_time": 22.3659091,
                "pitch": 72,
                "velocity": 64,
                "duration": 0.0477273,
                "tempo": 120.0
            },
            {
                "start_time": 22.4181818,
                "end_time": 22.4659091,
                "pitch": 74,
                "velocity": 64,
                "duration": 0.0477273,
                "tempo": 120.0
            },
            {
                "start_time": 22.5227273,
                "end_time": 22.5681818,
                "pitch": 74,
                "velocity": 80,
                "duration": 0.0454545,
                "tempo": 120.0
            },
            {
                "start_time": 22.6204545,
                "end_time": 22.6704545,
                "pitch": 77,
                "velocity": 64,
                "duration": 0.05,
                "tempo": 120.0
            },
            {
                "start_time": 22.7227273,
                "end_time": 22.7727273,
                "pitch": 76,
                "velocity": 64,
                "duration": 0.05,
                "tempo": 120.0
            },
            {
                "start_time": 22.825,
                "end_time": 22.875,
                "pitch": 77,
                "velocity": 64,
                "duration": 0.05,
                "tempo": 120.0
            },
            {
                "start_time": 22.9295455,
                "end_time": 22.9772727,
                "pitch": 74,
                "velocity": 80,
                "duration": 0.0477273,
                "tempo": 120.0
            },
            {
                "start_time": 23.0272727,
                "end_time": 23.075,
                "pitch": 77,
                "velocity": 64,
                "duration": 0.0477273,
                "tempo": 120.0
            },
            {
                "start_time": 23.125,
                "end_time": 23.1727273,
                "pitch": 76,
                "velocity": 64,
                "duration": 0.0477273,
                "tempo": 120.0
            },
            {
                "start_time": 23.2227273,
                "end_time": 23.2704545,
                "pitch": 77,
                "velocity": 64,
                "duration": 0.0477273,
                "tempo": 120.0
            },
            {
                "start_time": 23.3227273,
                "end_time": 23.3704545,
                "pitch": 74,
                "velocity": 80,
                "duration": 0.0477273,
                "tempo": 120.0
            },
            {
                "start_time": 23.4227273,
                "end_time": 23.4704545,
                "pitch": 77,
                "velocity": 64,
                "duration": 0.0477273,
                "tempo": 120.0
            },
            {
                "start_time": 23.5227273,
                "end_time": 23.5727273,
                "pitch": 76,
                "velocity": 64,
                "duration": 0.05,
                "tempo": 120.0
            },
            {
                "start_time": 23.6227273,
                "end_time": 23.6727273,
                "pitch": 77,
                "velocity": 64,
                "duration": 0.05,
                "tempo": 120.0
            },
            {
                "start_time": 23.7272727,
                "end_time": 23.7727273,
                "pitch": 74,
                "velocity": 80,
                "duration": 0.0454545,
                "tempo": 120.0
            },
            {
                "start_time": 23.825,
                "end_time": 23.8727273,
                "pitch": 77,
                "velocity": 64,
                "duration": 0.0477273,
                "tempo": 120.0
            },
            {
                "start_time": 23.9272727,
                "end_time": 23.9727273,
                "pitch": 76,
                "velocity": 64,
                "duration": 0.0454545,
                "tempo": 120.0
            },
            {
                "start_time": 24.0272727,
                "end_time": 24.0727273,
                "pitch": 77,
                "velocity": 64,
                "duration": 0.0454545,
                "tempo": 120.0
            },
            {
                "start_time": 24.1295455,
                "end_time": 24.175,
                "pitch": 72,
                "velocity": 80,
                "duration": 0.0454545,
                "tempo": 120.0
            },
            {
                "start_time": 24.2272727,
                "end_time": 24.2772727,
                "pitch": 76,
                "velocity": 64,
                "duration": 0.05,
                "tempo": 120.0
            },
            {
                "start_time": 24.3295455,
                "end_time": 24.3818182,
                "pitch": 74,
                "velocity": 64,
                "duration": 0.0522727,
                "tempo": 120.0
            },
            {
                "start_time": 24.4340909,
                "end_time": 24.4840909,
                "pitch": 76,
                "velocity": 64,
                "duration": 0.05,
                "tempo": 120.0
            },
            {
                "start_time": 24.5386364,
                "end_time": 24.5840909,
                "pitch": 72,
                "velocity": 80,
                "duration": 0.0454545,
                "tempo": 120.0
            },
            {
                "start_time": 24.6340909,
                "end_time": 24.6818182,
                "pitch": 76,
                "velocity": 64,
                "duration": 0.0477273,
                "tempo": 120.0
            },
            {
                "start_time": 24.7318182,
                "end_time": 24.7795455,
                "pitch": 74,
                "velocity": 64,
                "duration": 0.0477273,
                "tempo": 120.0
            },
            {
                "start_time": 24.8318182,
                "end_time": 24.8795455,
                "pitch": 76,
                "velocity": 64,
                "duration": 0.0477273,
                "tempo": 120.0
            },
            {
                "start_time": 24.9318182,
                "end_time": 24.9772727,
                "pitch": 72,
                "velocity": 80,
                "duration": 0.0454545,
                "tempo": 120.0
            },
            {
                "start_time": 25.0295455,
                "end_time": 25.0772727,
                "pitch": 76,
                "velocity": 64,
                "duration": 0.0477273,
                "tempo": 120.0
            },
            {
                "start_time": 25.1295455,
                "end_time": 25.1772727,
                "pitch": 74,
                "velocity": 64,
                "duration": 0.0477273,
                "tempo": 120.0
            },
            {
                "start_time": 25.2295455,
                "end_time": 25.2772727,
                "pitch": 76,
                "velocity": 64,
                "duration": 0.0477273,
                "tempo": 120.0
            },
            {
                "start_time": 25.3318182,
                "end_time": 25.3795455,
                "pitch": 72,
                "velocity": 80,
                "duration": 0.0477273,
                "tempo": 120.0
            },
            {
                "start_time": 25.4295455,
                "end_time": 25.4795455,
                "pitch": 76,
                "velocity": 64,
                "duration": 0.05,
                "tempo": 120.0
            },
            {
                "start_time": 25.5318182,
                "end_time": 25.5795455,
                "pitch": 74,
                "velocity": 64,
                "duration": 0.0477273,
                "tempo": 120.0
            },
            {
                "start_time": 25.6318182,
                "end_time": 25.6818182,
                "pitch": 76,
                "velocity": 64,
                "duration": 0.05,
                "tempo": 120.0
            },
            {
                "start_time": 25.7454545,
                "end_time": 25.7818182,
                "pitch": 72,
                "velocity": 80,
                "duration": 0.0363636,
                "tempo": 120.0
            }
        ],
        "Harpsichord": [
            {
                "start_time": 0.1022727,
                "end_time": 1.6840909,
                "pitch": 60,
                "velocity": 80,
                "duration": 1.5818182,
                "tempo": 120.0
            },
            {
                "start_time": 1.6840909,
                "end_time": 3.3022727,
                "pitch": 59,
                "velocity": 80,
                "duration": 1.6181818,
                "tempo": 120.0
            },
            {
                "start_time": 3.3022727,
                "end_time": 4.9068182,
                "pitch": 62,
                "velocity": 80,
                "duration": 1.6045455,
                "tempo": 120.0
            },
            {
                "start_time": 4.9068182,
                "end_time": 6.5136364,
                "pitch": 60,
                "velocity": 80,
                "duration": 1.6068182,
                "tempo": 120.0
            },
            {
                "start_time": 6.5136364,
                "end_time": 8.1227273,
                "pitch": 60,
                "velocity": 80,
                "duration": 1.6090909,
                "tempo": 120.0
            },
            {
                "start_time": 1.6840909,
                "end_time": 8.125,
                "pitch": 44,
                "velocity": 80,
                "duration": 6.4409091,
                "tempo": 120.0
            },
            {
                "start_time": 8.1227273,
                "end_time": 8.125,
                "pitch": 44,
                "velocity": 80,
                "duration": 0.0022727,
                "tempo": 120.0
            },
            {
                "start_time": 8.125,
                "end_time": 9.7363636,
                "pitch": 59,
                "velocity": 80,
                "duration": 1.6113636,
                "tempo": 120.0
            },
            {
                "start_time": 3.3022727,
                "end_time": 9.7363636,
                "pitch": 65,
                "velocity": 80,
                "duration": 6.4340909,
                "tempo": 120.0
            },
            {
                "start_time": 9.7363636,
                "end_time": 11.3545455,
                "pitch": 62,
                "velocity": 80,
                "duration": 1.6181818,
                "tempo": 120.0
            }
        ]
    }
}