{
    "mood": "angry",
    "instruments": {
        "Vibraphone": [
            {
                "start_time": 0.6227273,
                "end_time": 0.7568182,
                "pitch": 67,
                "velocity": 64,
                "duration": 0.1340909,
                "tempo": 120.0
            },
            {
                "start_time": 0.7568182,
                "end_time": 1.0227273,
                "pitch": 67,
                "velocity": 64,
                "duration": 0.2659091,
                "tempo": 120.0
            },
            {
                "start_time": 1.0227273,
                "end_time": 1.1545455,
                "pitch": 79,
                "velocity": 64,
                "duration": 0.1318182,
                "tempo": 120.0
            },
            {
                "start_time": 1.1545455,
                "end_time": 1.4227273,
                "pitch": 79,
                "velocity": 64,
                "duration": 0.2681818,
                "tempo": 120.0
            },
            {
                "start_time": 1.4227273,
                "end_time": 1.8204545,
                "pitch": 74,
                "velocity": 64,
                "duration": 0.3977273,
                "tempo": 120.0
            },
            {
                "start_time": 1.8204545,
                "end_time": 2.2204545,
                "pitch": 70,
                "velocity": 64,
                "duration": 0.4,
                "tempo": 120.0
            },
            {
                "start_time": 2.2204545,
                "end_time": 2.3522727,
                "pitch": 67,
                "velocity": 64,
                "duration": 0.1318182,
                "tempo": 120.0
            },
            {
                "start_time": 2.3522727,
                "end_time": 2.6181818,
                "pitch": 67,
                "velocity": 64,
                "duration": 0.2659091,
                "tempo": 120.0
            },
            {
                "start_time": 2.6181818,
                "end_time": 3.0181818,
                "pitch": 62,
                "velocity": 64,
                "duration": 0.4,
                "tempo": 120.0
            },
            {
                "start_time": 3.0181818,
                "end_time": 3.4159091,
                "pitch": 72,
                "velocity": 64,
                "duration": 0.3977273,
                "tempo": 120.0
            },
            {
                "start_time": 3.4159091,
                "end_time": 3.8159091,
                "pitch": 69,
                "velocity": 64,
                "duration": 0.4,
                "tempo": 120.0
            },
            {
                "start_time": 3.8159091,
                "end_time": 3.9477273,
                "pitch": 67,
                "velocity": 64,
                "duration": 0.1318182,
                "tempo": 120.0
            },
            {
                "start_time": 3.9477273,
                "end_time": 4.2159091,
                "pitch": 67,
                "velocity": 64,
                "duration": 0.2681818,
                "tempo": 120.0
            },
            {
                "start_time": 4.2159091,
                "end_time": 4.3477273,
                "pitch": 79,
                "velocity": 64,
                "duration": 0.1318182,
                "tempo": 120.0
            },
            {
                "start_time": 4.3477273,
                "end_time": 4.6136364,
                "pitch": 79,
                "velocity": 64,
                "duration": 0.2659091,
                "tempo": 120.0
            },
            {
                "start_time": 4.6136364,
                "end_time": 5.0136364,
                "pitch": 74,
                "velocity": 64,
                "duration": 0.4,
                "tempo": 120.0
            },
            {
                "start_time": 5.0136364,
                "end_time": 5.4113636,
                "pitch": 70,
                "velocity": 64,
                "duration": 0.3977273,
                "tempo": 120.0
            },
            {
                "start_time": 5.4113636,
                "end_time": 5.5454545,
                "pitch": 67,
                "velocity": 64,
                "duration": 0.1340909,
                "tempo": 120.0
            },
            {
                "start_time": 5.5454545,
                "end_time": 5.8113636,
                "pitch": 67,
                "velocity": 64,
                "duration": 0.2659091,
                "tempo": 120.0
            },
            {
                "start_time": 5.8113636,
                "end_time": 6.2090909,
                "pitch": 62,
                "velocity": 64,
                "duration": 0.3977273,
                "tempo": 120.0
            },
            {
                "start_time": 5.0136364,
                "end_time": 6.2090909,
                "pitch": 74,
                "velocity": 64,
                "duration": 1.1954545,
                "tempo": 120.0
            },
            {
                "start_time": 6.2090909,
                "end_time": 6.5613636,
                "pitch": 69,
                "velocity": 64,
                "duration": 0.3522727,
                "tempo": 120.0
            },
            {
                "start_time": 3.4159091,
                "end_time": 6.9136364,
                "pitch": 72,
                "velocity": 64,
                "duration": 3.4977273,
                "tempo": 120.0
            },
            {
                "start_time": 6.5613636,
                "end_time": 6.9136364,
                "pitch": 72,
                "velocity": 64,
                "duration": 0.3522727,
                "tempo": 120.0
            },
            {
                "start_time": 6.9136364,
                "end_time": 7.0318182,
                "pitch": 67,
                "velocity": 64,
                "duration": 0.1181818,
                "tempo": 120.0
            },
            {
                "start_time": 5.5454545,
                "end_time": 7.0318182,
                "pitch": 79,
                "velocity": 64,
                "duration": 1.4863636,
                "tempo": 120.0
            },
            {
                "start_time": 7.0318182,
                "end_time": 7.2659091,
                "pitch": 67,
                "velocity": 64,
                "duration": 0.2340909,
                "tempo": 120.0
            },
            {
                "start_time": 7.0318182,
                "end_time": 7.3818182,
                "pitch": 79,
                "velocity": 64,
                "duration": 0.35,
                "tempo": 120.0
            },
            {
                "start_time": 7.2659091,
                "end_time": 7.3818182,
                "pitch": 79,
                "velocity": 64,
                "duration": 0.1159091,
                "tempo": 120.0
            },
            {
                "start_time": 7.3818182,
                "end_time": 7.6181818,
                "pitch": 79,
                "velocity": 64,
                "duration": 0.2363636,
                "tempo": 120.0
            },
            {
                "start_time": 6.2090909,
                "end_time": 8.0204545,
                "pitch": 74,
                "velocity": 64,
                "duration": 1.8113636,
                "tempo": 120.0
            },
            {
                "start_time": 7.6181818,
                "end_time": 8.0204545,
                "pitch": 74,
                "velocity": 64,
                "duration": 0.4022727,
                "tempo": 120.0
            },
            {
                "start_time": 8.0204545,
                "end_time": 8.425,
                "pitch": 70,
                "velocity": 64,
                "duration": 0.4045455,
                "tempo": 120.0
            },
            {
                "start_time": 8.425,
                "end_time": 8.5590909,
                "pitch": 67,
                "velocity": 64,
                "duration": 0.1340909,
                "tempo": 120.0
            },
            {
                "start_time": 7.6181818,
                "end_time": 8.5590909,
                "pitch": 79,
                "velocity": 64,
                "duration": 0.9409091,
                "tempo": 120.0
            },
            {
                "start_time": 8.5590909,
                "end_time": 8.8295455,
                "pitch": 67,
                "velocity": 64,
                "duration": 0.2704545,
                "tempo": 120.0
            },
            {
                "start_time": 8.8295455,
                "end_time": 9.2340909,
                "pitch": 62,
                "velocity": 64,
                "duration": 0.4045455,
                "tempo": 120.0
            },
            {
                "start_time": 9.2340909,
                "end_time": 9.6318182,
                "pitch": 72,
                "velocity": 64,
                "duration": 0.3977273,
                "tempo": 120.0
            },
            {
                "start_time": 9.6318182,
                "end_time": 10.0318182,
                "pitch": 69,
                "velocity": 64,
                "duration": 0.4,
                "tempo": 120.0
            },
            {
                "start_time": 10.0318182,
                "end_time": 10.1636364,
                "pitch": 67,
                "velocity": 64,
                "duration": 0.1318182,
                "tempo": 120.0
            },
            {
                "start_time": 10.1636364,
                "end_time": 10.4295455,
                "pitch": 67,
                "velocity": 64,
                "duration": 0.2659091,
                "tempo": 120.0
            },
            {
                "start_time": 8.5590909,
                "end_time": 10.5636364,
                "pitch": 79,
                "velocity": 64,
                "duration": 2.0045455,
                "tempo": 120.0
            },
            {
                "start_time": 10.4295455,
                "end_time": 10.5636364,
                "pitch": 79,
                "velocity": 64,
                "duration": 0.1340909,
                "tempo": 120.0
            },
            {
                "start_time": 7.3818182,
                "end_time": 10.5636364,
                "pitch": 91,
                "velocity": 64,
                "duration": 3.1818182,
                "tempo": 120.0
            },
            {
                "start_time": 10.5636364,
                "end_time": 10.8295455,
                "pitch": 79,
                "velocity": 64,
                "duration": 0.2659091,
                "tempo": 120.0
            },
            {
                "start_time": 9.2340909,
                "end_time": 11.2272727,
                "pitch": 74,
                "velocity": 64,
                "duration": 1.9931818,
                "tempo": 120.0
            },
            {
                "start_time": 10.8295455,
                "end_time": 11.2272727,
                "pitch": 74,
                "velocity": 64,
                "duration": 0.3977273,
                "tempo": 120.0
            },
            {
                "start_time": 8.425,
                "end_time": 11.6272727,
                "pitch": 37,
                "velocity": 64,
                "duration": 3.2022727,
                "tempo": 120.0
            },
            {
                "start_time": 11.2272727,
                "end_time": 11.6272727,
                "pitch": 70,
                "velocity": 64,
                "duration": 0.4,
                "tempo": 120.0
            },
            {
                "start_time": 11.6272727,
                "end_time": 11.7590909,
                "pitch": 67,
                "velocity": 64,
                "duration": 0.1318182,
                "tempo": 120.0
            },
            {
                "start_time": 10.8295455,
                "end_time": 11.7590909,
                "pitch": 79,
                "velocity": 64,
                "duration": 0.9295455,
                "tempo": 120.0
            },
            {
                "start_time": 11.7590909,
                "end_time": 12.025,
                "pitch": 67,
                "velocity": 64,
                "duration": 0.2659091,
                "tempo": 120.0
            },
            {
                "start_time": 12.025,
                "end_time": 12.425,
                "pitch": 62,
                "velocity": 64,
                "duration": 0.4,
                "tempo": 120.0
            },
            {
                "start_time": 12.425,
                "end_time": 12.8272727,
                "pitch": 69,
                "velocity": 64,
                "duration": 0.4022727,
                "tempo": 120.0
            },
            {
                "start_time": 12.8272727,
                "end_time": 13.2318182,
                "pitch": 72,
                "velocity": 64,
                "duration": 0.4045455,
                "tempo": 120.0
            },
            {
                "start_time": 13.2318182,
                "end_time": 13.6363636,
                "pitch": 62,
                "velocity": 64,
                "duration": 0.4045455,
                "tempo": 120.0
            },
            {
                "start_time": 12.425,
                "end_time": 14.0409091,
                "pitch": 74,
                "velocity": 64,
                "duration": 1.6159091,
                "tempo": 120.0
            },
            {
                "start_time": 13.6363636,
                "end_time": 14.0409091,
                "pitch": 74,
                "velocity": 64,
                "duration": 0.4045455,
                "tempo": 120.0
            },
            {
                "start_time": 14.0409091,
                "end_time": 14.4386364,
                "pitch": 69,
                "velocity": 64,
                "duration": 0.3977273,
                "tempo": 120.0
            },
            {
                "start_time": 14.4386364,
                "end_time": 14.8386364,
                "pitch": 65,
                "velocity": 64,
                "duration": 0.4,
                "tempo": 120.0
            },
            {
                "start_time": 14.8386364,
                "end_time": 15.2363636,
                "pitch": 62,
                "velocity": 64,
                "duration": 0.3977273,
                "tempo": 120.0
            },
            {
                "start_time": 10.0318182,
                "end_time": 15.6363636,
                "pitch": 30,
                "velocity": 64,
                "duration": 5.6045455,
                "tempo": 120.0
            },
            {
                "start_time": 15.2363636,
                "end_time": 15.6363636,
                "pitch": 57,
                "velocity": 64,
                "duration": 0.4,
                "tempo": 120.0
            },
            {
                "start_time": 15.6363636,
                "end_time": 15.7704545,
                "pitch": 67,
                "velocity": 64,
                "duration": 0.1340909,
                "tempo": 120.0
            },
            {
                "start_time": 11.7590909,
                "end_time": 15.7704545,
                "pitch": 79,
                "velocity": 64,
                "duration": 4.0113636,
                "tempo": 120.0
            },
            {
                "start_time": 15.7704545,
                "end_time": 16.0409091,
                "pitch": 67,
                "velocity": 64,
                "duration": 0.2704545,
                "tempo": 120.0
            },
            {
                "start_time": 16.0409091,
                "end_time": 16.4431818,
                "pitch": 64,
                "velocity": 64,
                "duration": 0.4022727,
                "tempo": 120.0
            },
            {
                "start_time": 15.2363636,
                "end_time": 16.8477273,
                "pitch": 62,
                "velocity": 64,
                "duration": 1.6113636,
                "tempo": 120.0
            },
            {
                "start_time": 16.4431818,
                "end_time": 16.8477273,
                "pitch": 62,
                "velocity": 64,
                "duration": 0.4045455,
                "tempo": 120.0
            },
            {
                "start_time": 14.0409091,
                "end_time": 17.2522727,
                "pitch": 74,
                "velocity": 64,
                "duration": 3.2113636,
                "tempo": 120.0
            },
            {
                "start_time": 16.8477273,
                "end_time": 17.2522727,
                "pitch": 74,
                "velocity": 64,
                "duration": 0.4045455,
                "tempo": 120.0
            },
            {
                "start_time": 17.2522727,
                "end_time": 17.65,
                "pitch": 69,
                "velocity": 64,
                "duration": 0.3977273,
                "tempo": 120.0
            },
            {
                "start_time": 14.8386364,
                "end_time": 18.05,
                "pitch": 65,
                "velocity": 64,
                "duration": 3.2113636,
                "tempo": 120.0
            },
            {
                "start_time": 17.65,
                "end_time": 18.05,
                "pitch": 65,
                "velocity": 64,
                "duration": 0.4,
                "tempo": 120.0
            },
            {
                "start_time": 18.05,
                "end_time": 18.4477273,
                "pitch": 62,
                "velocity": 64,
                "duration": 0.3977273,
                "tempo": 120.0
            },
            {
                "start_time": 18.4477273,
                "end_time": 18.8477273,
                "pitch": 57,
                "velocity": 64,
                "duration": 0.4,
                "tempo": 120.0
            },
            {
                "start_time": 16.4431818,
                "end_time": 19.2522727,
                "pitch": 64,
                "velocity": 64,
                "duration": 2.8090909,
                "tempo": 120.0
            },
            {
                "start_time": 18.8477273,
                "end_time": 19.2522727,
                "pitch": 64,
                "velocity": 64,
                "duration": 0.4045455,
                "tempo": 120.0
            },
            {
                "start_time": 16.0409091,
                "end_time": 19.3863636,
                "pitch": 67,
                "velocity": 64,
                "duration": 3.3454545,
                "tempo": 120.0
            },
            {
                "start_time": 19.2522727,
                "end_time": 19.3863636,
                "pitch": 67,
                "velocity": 64,
                "duration": 0.1340909,
                "tempo": 120.0
            },
            {
                "start_time": 19.3863636,
                "end_time": 19.6545455,
                "pitch": 67,
                "velocity": 64,
                "duration": 0.2681818,
                "tempo": 120.0
            },
            {
                "start_time": 19.6545455,
                "end_time": 20.0590909,
                "pitch": 60,
                "velocity": 64,
                "duration": 0.4045455,
                "tempo": 120.0
            },
            {
                "start_time": 20.0590909,
                "end_time": 20.4636364,
                "pitch": 72,
                "velocity": 64,
                "duration": 0.4045455,
                "tempo": 120.0
            },
            {
                "start_time": 20.4636364,
                "end_time": 20.5954545,
                "pitch": 67,
                "velocity": 64,
                "duration": 0.1318182,
                "tempo": 120.0
            },
            {
                "start_time": 15.7704545,
                "end_time": 20.5954545,
                "pitch": 79,
                "velocity": 64,
                "duration": 4.825,
                "tempo": 120.0
            },
            {
                "start_time": 20.5954545,
                "end_time": 20.8613636,
                "pitch": 67,
                "velocity": 64,
                "duration": 0.2659091,
                "tempo": 120.0
            },
            {
                "start_time": 20.8613636,
                "end_time": 21.2613636,
                "pitch": 63,
                "velocity": 64,
                "duration": 0.4,
                "tempo": 120.0
            },
            {
                "start_time": 21.2613636,
                "end_time": 21.6590909,
                "pitch": 60,
                "velocity": 64,
                "duration": 0.3977273,
                "tempo": 120.0
            },
            {
                "start_time": 21.6590909,
                "end_time": 21.7931818,
                "pitch": 55,
                "velocity": 64,
                "duration": 0.1340909,
                "tempo": 120.0
            },
            {
                "start_time": 21.7931818,
                "end_time": 21.925,
                "pitch": 55,
                "velocity": 64,
                "duration": 0.1318182,
                "tempo": 120.0
            },
            {
                "start_time": 21.925,
                "end_time": 22.0590909,
                "pitch": 55,
                "velocity": 64,
                "duration": 0.1340909,
                "tempo": 120.0
            },
            {
                "start_time": 20.8613636,
                "end_time": 22.4636364,
                "pitch": 67,
                "velocity": 64,
                "duration": 1.6022727,
                "tempo": 120.0
            },
            {
                "start_time": 22.0590909,
                "end_time": 22.4636364,
                "pitch": 67,
                "velocity": 64,
                "duration": 0.4045455,
                "tempo": 120.0
            },
            {
                "start_time": 18.4477273,
                "end_time": 22.8659091,
                "pitch": 62,
                "velocity": 64,
                "duration": 4.4181818,
                "tempo": 120.0
            },
            {
                "start_time": 22.4636364,
                "end_time": 22.8659091,
                "pitch": 62,
                "velocity": 64,
                "duration": 0.4022727,
                "tempo": 120.0
            },
            {
                "start_time": 22.8659091,
                "end_time": 22.8681818,
                "pitch": 62,
                "velocity": 64,
                "duration": 0.0022727,
                "tempo": 120.0
            },
            {
                "start_time": 22.8681818,
                "end_time": 23.2704545,
                "pitch": 60,
                "velocity": 64,
                "duration": 0.4022727,
                "tempo": 120.0
            },
            {
                "start_time": 20.4636364,
                "end_time": 23.675,
                "pitch": 48,
                "velocity": 64,
                "duration": 3.2113636,
                "tempo": 120.0
            },
            {
                "start_time": 23.2704545,
                "end_time": 23.675,
                "pitch": 72,
                "velocity": 64,
                "duration": 0.4045455,
                "tempo": 120.0
            },
            {
                "start_time": 23.675,
                "end_time": 23.8068182,
                "pitch": 67,
                "velocity": 64,
                "duration": 0.1318182,
                "tempo": 120.0
            },
            {
                "start_time": 20.5954545,
                "end_time": 23.8068182,
                "pitch": 79,
                "velocity": 64,
                "duration": 3.2113636,
                "tempo": 120.0
            },
            {
                "start_time": 23.8068182,
                "end_time": 24.075,
                "pitch": 67,
                "velocity": 64,
                "duration": 0.2681818,
                "tempo": 120.0
            },
            {
                "start_time": 21.2613636,
                "end_time": 24.4727273,
                "pitch": 63,
                "velocity": 64,
                "duration": 3.2113636,
                "tempo": 120.0
            },
            {
                "start_time": 24.075,
                "end_time": 24.4727273,
                "pitch": 63,
                "velocity": 64,
                "duration": 0.3977273,
                "tempo": 120.0
            },
            {
                "start_time": 24.4727273,
                "end_time": 24.8727273,
                "pitch": 60,
                "velocity": 64,
                "duration": 0.4,
                "tempo": 120.0
            },
            {
                "start_time": 24.8727273,
                "end_time": 25.0045455,
                "pitch": 55,
                "velocity": 64,
                "duration": 0.1318182,
                "tempo": 120.0
            },
            {
                "start_time": 21.925,
                "end_time": 25.1363636,
                "pitch": 0,
                "velocity": 64,
                "duration": 3.2113636,
                "tempo": 120.0
            },
            {
                "start_time": 25.0045455,
                "end_time": 25.1363636,
                "pitch": 55,
                "velocity": 64,
                "duration": 0.1318182,
                "tempo": 120.0
            },
            {
                "start_time": 25.1363636,
                "end_time": 25.2704545,
                "pitch": 55,
                "velocity": 64,
                "duration": 0.1340909,
                "tempo": 120.0
            },
            {
                "start_time": 25.2704545,
                "end_time": 25.6681818,
                "pitch": 62,
                "velocity": 64,
                "duration": 0.3977273,
                "tempo": 120.0
            },
            {
                "start_time": 18.05,
                "end_time": 26.0681818,
                "pitch": 65,
                "velocity": 64,
                "duration": 8.0181818,
                "tempo": 120.0
            },
            {
                "start_time": 25.6681818,
                "end_time": 26.0681818,
                "pitch": 65,
                "velocity": 64,
                "duration": 0.4,
                "tempo": 120.0
            },
            {
                "start_time": 25.2704545,
                "end_time": 26.2,
                "pitch": 67,
                "velocity": 64,
                "duration": 0.9295455,
                "tempo": 120.0
            },
            {
                "start_time": 26.0681818,
                "end_time": 26.2,
                "pitch": 67,
                "velocity": 64,
                "duration": 0.1318182,
                "tempo": 120.0
            },
            {
                "start_time": 26.2,
                "end_time": 26.4659091,
                "pitch": 67,
                "velocity": 64,
                "duration": 0.2659091,
                "tempo": 120.0
            },
            {
                "start_time": 23.8068182,
                "end_time": 26.6,
                "pitch": 79,
                "velocity": 64,
                "duration": 2.7931818,
                "tempo": 120.0
            },
            {
                "start_time": 26.4659091,
                "end_time": 26.6,
                "pitch": 79,
                "velocity": 64,
                "duration": 0.1340909,
                "tempo": 120.0
            },
            {
                "start_time": 10.5636364,
                "end_time": 26.6,
                "pitch": 91,
                "velocity": 64,
                "duration": 16.0363636,
                "tempo": 120.0
            },
            {
                "start_time": 26.6,
                "end_time": 26.8659091,
                "pitch": 79,
                "velocity": 64,
                "duration": 0.2659091,
                "tempo": 120.0
            },
            {
                "start_time": 17.2522727,
                "end_time": 27.2704545,
                "pitch": 74,
                "velocity": 64,
                "duration": 10.0181818,
                "tempo": 120.0
            },
            {
                "start_time": 26.8659091,
                "end_time": 27.2704545,
                "pitch": 74,
                "velocity": 64,
                "duration": 0.4045455,
                "tempo": 120.0
            },
            {
                "start_time": 11.6272727,
                "end_time": 27.675,
                "pitch": 37,
                "velocity": 64,
                "duration": 16.0477273,
                "tempo": 120.0
            },
            {
                "start_time": 27.2704545,
                "end_time": 27.675,
                "pitch": 70,
                "velocity": 64,
                "duration": 0.4045455,
                "tempo": 120.0
            },
            {
                "start_time": 27.675,
                "end_time": 27.8068182,
                "pitch": 67,
                "velocity": 64,
                "duration": 0.1318182,
                "tempo": 120.0
            },
            {
                "start_time": 26.8659091,
                "end_time": 27.8068182,
                "pitch": 79,
                "velocity": 64,
                "duration": 0.9409091,
                "tempo": 120.0
            },
            {
                "start_time": 27.8068182,
                "end_time": 28.0772727,
                "pitch": 67,
                "velocity": 64,
                "duration": 0.2704545,
                "tempo": 120.0
            },
            {
                "start_time": 28.0772727,
                "end_time": 28.4818182,
                "pitch": 62,
                "velocity": 64,
                "duration": 0.4045455,
                "tempo": 120.0
            },
            {
                "start_time": 28.4818182,
                "end_time": 28.8818182,
                "pitch": 72,
                "velocity": 64,
                "duration": 0.4,
                "tempo": 120.0
            },
            {
                "start_time": 28.8818182,
                "end_time": 29.2795455,
                "pitch": 69,
                "velocity": 64,
                "duration": 0.3977273,
                "tempo": 120.0
            },
            {
                "start_time": 29.2795455,
                "end_time": 29.4113636,
                "pitch": 67,
                "velocity": 64,
                "duration": 0.1318182,
                "tempo": 120.0
            },
            {
                "start_time": 29.4113636,
                "end_time": 29.6795455,
                "pitch": 67,
                "velocity": 64,
                "duration": 0.2681818,
                "tempo": 120.0
            },
            {
                "start_time": 27.8068182,
                "end_time": 29.8113636,
                "pitch": 79,
                "velocity": 64,
                "duration": 2.0045455,
                "tempo": 120.0
            },
            {
                "start_time": 29.6795455,
                "end_time": 29.8113636,
                "pitch": 79,
                "velocity": 64,
                "duration": 0.1318182,
                "tempo": 120.0
            },
            {
                "start_time": 29.8113636,
                "end_time": 30.0772727,
                "pitch": 79,
                "velocity": 64,
                "duration": 0.2659091,
                "tempo": 120.0
            },
            {
                "start_time": 28.4818182,
                "end_time": 30.475,
                "pitch": 74,
                "velocity": 64,
                "duration": 1.9931818,
                "tempo": 120.0
            },
            {
                "start_time": 30.0772727,
                "end_time": 30.475,
                "pitch": 74,
                "velocity": 64,
                "duration": 0.3977273,
                "tempo": 120.0
            },
            {
                "start_time": 27.675,
                "end_time": 30.875,
                "pitch": 37,
                "velocity": 64,
                "duration": 3.2,
                "tempo": 120.0
            },
            {
                "start_time": 30.475,
                "end_time": 30.875,
                "pitch": 70,
                "velocity": 64,
                "duration": 0.4,
                "tempo": 120.0
            },
            {
                "start_time": 30.875,
                "end_time": 31.0068182,
                "pitch": 67,
                "velocity": 64,
                "duration": 0.1318182,
                "tempo": 120.0
            },
            {
                "start_time": 30.0772727,
                "end_time": 31.0068182,
                "pitch": 79,
                "velocity": 64,
                "duration": 0.9295455,
                "tempo": 120.0
            },
            {
                "start_time": 31.0068182,
                "end_time": 31.2727273,
                "pitch": 67,
                "velocity": 64,
                "duration": 0.2659091,
                "tempo": 120.0
            },
            {
                "start_time": 31.2727273,
                "end_time": 31.6727273,
                "pitch": 62,
                "velocity": 64,
                "duration": 0.4,
                "tempo": 120.0
            },
            {
                "start_time": 31.6727273,
                "end_time": 31.875,
                "pitch": 69,
                "velocity": 64,
                "duration": 0.2022727,
                "tempo": 120.0
            }
        ],
        "Acoustic Bass": [
            {
                "start_time": 6.3863636,
                "end_time": 6.5613636,
                "pitch": 43,
                "velocity": 80,
                "duration": 0.175,
                "tempo": 120.0
            },
            {
                "start_time": 6.5613636,
                "end_time": 6.7386364,
                "pitch": 43,
                "velocity": 80,
                "duration": 0.1772727,
                "tempo": 120.0
            },
            {
                "start_time": 6.7386364,
                "end_time": 6.9136364,
                "pitch": 43,
                "velocity": 80,
                "duration": 0.175,
                "tempo": 120.0
            },
            {
                "start_time": 6.9136364,
                "end_time": 7.0909091,
                "pitch": 43,
                "velocity": 80,
                "duration": 0.1772727,
                "tempo": 120.0
            },
            {
                "start_time": 7.0909091,
                "end_time": 7.2659091,
                "pitch": 55,
                "velocity": 80,
                "duration": 0.175,
                "tempo": 120.0
            },
            {
                "start_time": 7.2659091,
                "end_time": 7.4431818,
                "pitch": 43,
                "velocity": 80,
                "duration": 0.1772727,
                "tempo": 120.0
            },
            {
                "start_time": 7.4431818,
                "end_time": 7.6181818,
                "pitch": 50,
                "velocity": 80,
                "duration": 0.175,
                "tempo": 120.0
            },
            {
                "start_time": 7.6181818,
                "end_time": 7.8204545,
                "pitch": 43,
                "velocity": 80,
                "duration": 0.2022727,
                "tempo": 120.0
            },
            {
                "start_time": 7.8204545,
                "end_time": 8.0227273,
                "pitch": 53,
                "velocity": 80,
                "duration": 0.2022727,
                "tempo": 120.0
            },
            {
                "start_time": 7.8204545,
                "end_time": 8.2227273,
                "pitch": 43,
                "velocity": 80,
                "duration": 0.4022727,
                "tempo": 120.0
            },
            {
                "start_time": 8.0227273,
                "end_time": 8.2227273,
                "pitch": 43,
                "velocity": 80,
                "duration": 0.2,
                "tempo": 120.0
            },
            {
                "start_time": 8.2227273,
                "end_time": 8.225,
                "pitch": 43,
                "velocity": 80,
                "duration": 0.0022727,
                "tempo": 120.0
            },
            {
                "start_time": 8.225,
                "end_time": 8.425,
                "pitch": 52,
                "velocity": 80,
                "duration": 0.2,
                "tempo": 120.0
            },
            {
                "start_time": 8.425,
                "end_time": 8.6272727,
                "pitch": 43,
                "velocity": 80,
                "duration": 0.2022727,
                "tempo": 120.0
            },
            {
                "start_time": 8.6272727,
                "end_time": 8.8295455,
                "pitch": 50,
                "velocity": 80,
                "duration": 0.2022727,
                "tempo": 120.0
            },
            {
                "start_time": 8.6272727,
                "end_time": 9.0318182,
                "pitch": 43,
                "velocity": 80,
                "duration": 0.4045455,
                "tempo": 120.0
            },
            {
                "start_time": 8.8295455,
                "end_time": 9.0318182,
                "pitch": 43,
                "velocity": 80,
                "duration": 0.2022727,
                "tempo": 120.0
            },
            {
                "start_time": 9.0318182,
                "end_time": 9.2340909,
                "pitch": 55,
                "velocity": 80,
                "duration": 0.2022727,
                "tempo": 120.0
            },
            {
                "start_time": 9.2340909,
                "end_time": 9.4340909,
                "pitch": 43,
                "velocity": 80,
                "duration": 0.2,
                "tempo": 120.0
            },
            {
                "start_time": 9.4340909,
                "end_time": 9.6340909,
                "pitch": 43,
                "velocity": 80,
                "duration": 0.2,
                "tempo": 120.0
            },
            {
                "start_time": 9.6340909,
                "end_time": 9.8318182,
                "pitch": 43,
                "velocity": 80,
                "duration": 0.1977273,
                "tempo": 120.0
            },
            {
                "start_time": 9.8318182,
                "end_time": 10.0318182,
                "pitch": 43,
                "velocity": 80,
                "duration": 0.2,
                "tempo": 120.0
            },
            {
                "start_time": 10.0318182,
                "end_time": 10.2318182,
                "pitch": 43,
                "velocity": 80,
                "duration": 0.2,
                "tempo": 120.0
            },
            {
                "start_time": 10.2318182,
                "end_time": 10.4295455,
                "pitch": 55,
                "velocity": 80,
                "duration": 0.1977273,
                "tempo": 120.0
            },
            {
                "start_time": 10.4295455,
                "end_time": 10.6295455,
                "pitch": 43,
                "velocity": 80,
                "duration": 0.2,
                "tempo": 120.0
            },
            {
                "start_time": 8.8295455,
                "end_time": 10.8295455,
                "pitch": 50,
                "velocity": 80,
                "duration": 2.0,
                "tempo": 120.0
            },
            {
                "start_time": 10.6295455,
                "end_time": 10.8295455,
                "pitch": 50,
                "velocity": 80,
                "duration": 0.2,
                "tempo": 120.0
            },
            {
                "start_time": 10.8295455,
                "end_time": 11.0295455,
                "pitch": 43,
                "velocity": 80,
                "duration": 0.2,
                "tempo": 120.0
            },
            {
                "start_time": 8.0227273,
                "end_time": 11.2272727,
                "pitch": 53,
                "velocity": 80,
                "duration": 3.2045455,
                "tempo": 120.0
            },
            {
                "start_time": 11.0295455,
                "end_time": 11.2272727,
                "pitch": 53,
                "velocity": 80,
                "duration": 0.1977273,
                "tempo": 120.0
            },
            {
                "start_time": 11.0295455,
                "end_time": 11.4272727,
                "pitch": 43,
                "velocity": 80,
                "duration": 0.3977273,
                "tempo": 120.0
            },
            {
                "start_time": 11.2272727,
                "end_time": 11.4272727,
                "pitch": 43,
                "velocity": 80,
                "duration": 0.2,
                "tempo": 120.0
            },
            {
                "start_time": 8.425,
                "end_time": 11.6272727,
                "pitch": 52,
                "velocity": 80,
                "duration": 3.2022727,
                "tempo": 120.0
            },
            {
                "start_time": 11.4272727,
                "end_time": 11.6272727,
                "pitch": 52,
                "velocity": 80,
                "duration": 0.2,
                "tempo": 120.0
            },
            {
                "start_time": 11.4272727,
                "end_time": 11.8272727,
                "pitch": 43,
                "velocity": 80,
                "duration": 0.4,
                "tempo": 120.0
            },
            {
                "start_time": 11.6272727,
                "end_time": 11.8272727,
                "pitch": 43,
                "velocity": 80,
                "duration": 0.2,
                "tempo": 120.0
            },
            {
                "start_time": 11.8272727,
                "end_time": 12.025,
                "pitch": 50,
                "velocity": 80,
                "duration": 0.1977273,
                "tempo": 120.0
            },
            {
                "start_time": 11.8272727,
                "end_time": 12.225,
                "pitch": 43,
                "velocity": 80,
                "duration": 0.3977273,
                "tempo": 120.0
            },
            {
                "start_time": 12.025,
                "end_time": 12.225,
                "pitch": 43,
                "velocity": 80,
                "duration": 0.2,
                "tempo": 120.0
            },
            {
                "start_time": 12.225,
                "end_time": 12.425,
                "pitch": 55,
                "velocity": 80,
                "duration": 0.2,
                "tempo": 120.0
            },
            {
                "start_time": 12.425,
                "end_time": 12.6272727,
                "pitch": 43,
                "velocity": 80,
                "duration": 0.2022727,
                "tempo": 120.0
            },
            {
                "start_time": 12.6272727,
                "end_time": 12.8272727,
                "pitch": 38,
                "velocity": 80,
                "duration": 0.2,
                "tempo": 120.0
            },
            {
                "start_time": 12.8272727,
                "end_time": 13.0295455,
                "pitch": 38,
                "velocity": 80,
                "duration": 0.2022727,
                "tempo": 120.0
            },
            {
                "start_time": 13.0295455,
                "end_time": 13.2318182,
                "pitch": 38,
                "velocity": 80,
                "duration": 0.2022727,
                "tempo": 120.0
            },
            {
                "start_time": 13.2318182,
                "end_time": 13.4340909,
                "pitch": 38,
                "velocity": 80,
                "duration": 0.2022727,
                "tempo": 120.0
            },
            {
                "start_time": 12.025,
                "end_time": 13.6363636,
                "pitch": 50,
                "velocity": 80,
                "duration": 1.6113636,
                "tempo": 120.0
            },
            {
                "start_time": 13.4340909,
                "end_time": 13.6363636,
                "pitch": 50,
                "velocity": 80,
                "duration": 0.2022727,
                "tempo": 120.0
            },
            {
                "start_time": 13.6363636,
                "end_time": 13.8386364,
                "pitch": 38,
                "velocity": 80,
                "duration": 0.2022727,
                "tempo": 120.0
            },
            {
                "start_time": 13.8386364,
                "end_time": 14.0409091,
                "pitch": 45,
                "velocity": 80,
                "duration": 0.2022727,
                "tempo": 120.0
            },
            {
                "start_time": 14.0409091,
                "end_time": 14.2409091,
                "pitch": 38,
                "velocity": 80,
                "duration": 0.2,
                "tempo": 120.0
            },
            {
                "start_time": 13.8386364,
                "end_time": 14.2409091,
                "pitch": 50,
                "velocity": 80,
                "duration": 0.4022727,
                "tempo": 120.0
            },
            {
                "start_time": 14.2409091,
                "end_time": 14.4386364,
                "pitch": 48,
                "velocity": 80,
                "duration": 0.1977273,
                "tempo": 120.0
            },
            {
                "start_time": 14.4386364,
                "end_time": 14.6386364,
                "pitch": 38,
                "velocity": 80,
                "duration": 0.2,
                "tempo": 120.0
            },
            {
                "start_time": 14.2409091,
                "end_time": 14.6386364,
                "pitch": 50,
                "velocity": 80,
                "duration": 0.3977273,
                "tempo": 120.0
            },
            {
                "start_time": 14.6386364,
                "end_time": 14.8386364,
                "pitch": 47,
                "velocity": 80,
                "duration": 0.2,
                "tempo": 120.0
            },
            {
                "start_time": 14.8386364,
                "end_time": 15.0386364,
                "pitch": 38,
                "velocity": 80,
                "duration": 0.2,
                "tempo": 120.0
            },
            {
                "start_time": 14.6386364,
                "end_time": 15.0386364,
                "pitch": 50,
                "velocity": 80,
                "duration": 0.4,
                "tempo": 120.0
            },
            {
                "start_time": 14.0409091,
                "end_time": 15.2363636,
                "pitch": 33,
                "velocity": 80,
                "duration": 1.1954545,
                "tempo": 120.0
            },
            {
                "start_time": 15.0386364,
                "end_time": 15.2363636,
                "pitch": 45,
                "velocity": 80,
                "duration": 0.1977273,
                "tempo": 120.0
            },
            {
                "start_time": 15.2363636,
                "end_time": 15.4363636,
                "pitch": 38,
                "velocity": 80,
                "duration": 0.2,
                "tempo": 120.0
            },
            {
                "start_time": 15.0386364,
                "end_time": 15.6363636,
                "pitch": 50,
                "velocity": 80,
                "duration": 0.5977273,
                "tempo": 120.0
            },
            {
                "start_time": 15.4363636,
                "end_time": 15.6363636,
                "pitch": 50,
                "velocity": 80,
                "duration": 0.2,
                "tempo": 120.0
            },
            {
                "start_time": 15.6363636,
                "end_time": 15.8386364,
                "pitch": 38,
                "velocity": 80,
                "duration": 0.2022727,
                "tempo": 120.0
            },
            {
                "start_time": 15.8386364,
                "end_time": 16.0409091,
                "pitch": 38,
                "velocity": 80,
                "duration": 0.2022727,
                "tempo": 120.0
            },
            {
                "start_time": 16.0409091,
                "end_time": 16.2431818,
                "pitch": 38,
                "velocity": 80,
                "duration": 0.2022727,
                "tempo": 120.0
            },
            {
                "start_time": 16.2431818,
                "end_time": 16.4431818,
                "pitch": 38,
                "velocity": 80,
                "duration": 0.2,
                "tempo": 120.0
            },
            {
                "start_time": 16.4431818,
                "end_time": 16.6454545,
                "pitch": 38,
                "velocity": 80,
                "duration": 0.2022727,
                "tempo": 120.0
            },
            {
                "start_time": 16.6454545,
                "end_time": 16.8477273,
                "pitch": 50,
                "velocity": 80,
                "duration": 0.2022727,
                "tempo": 120.0
            },
            {
                "start_time": 16.8477273,
                "end_time": 17.05,
                "pitch": 38,
                "velocity": 80,
                "duration": 0.2022727,
                "tempo": 120.0
            },
            {
                "start_time": 15.2363636,
                "end_time": 17.2522727,
                "pitch": 33,
                "velocity": 80,
                "duration": 2.0159091,
                "tempo": 120.0
            },
            {
                "start_time": 17.05,
                "end_time": 17.2522727,
                "pitch": 45,
                "velocity": 80,
                "duration": 0.2022727,
                "tempo": 120.0
            },
            {
                "start_time": 17.2522727,
                "end_time": 17.4522727,
                "pitch": 38,
                "velocity": 80,
                "duration": 0.2,
                "tempo": 120.0
            },
            {
                "start_time": 17.05,
                "end_time": 17.4522727,
                "pitch": 50,
                "velocity": 80,
                "duration": 0.4022727,
                "tempo": 120.0
            },
            {
                "start_time": 17.4522727,
                "end_time": 17.65,
                "pitch": 48,
                "velocity": 80,
                "duration": 0.1977273,
                "tempo": 120.0
            },
            {
                "start_time": 14.4386364,
                "end_time": 17.6522727,
                "pitch": 36,
                "velocity": 80,
                "duration": 3.2136364,
                "tempo": 120.0
            },
            {
                "start_time": 17.65,
                "end_time": 17.6522727,
                "pitch": 36,
                "velocity": 80,
                "duration": 0.0022727,
                "tempo": 120.0
            },
            {
                "start_time": 17.6522727,
                "end_time": 17.85,
                "pitch": 38,
                "velocity": 80,
                "duration": 0.1977273,
                "tempo": 120.0
            },
            {
                "start_time": 17.4522727,
                "end_time": 17.85,
                "pitch": 50,
                "velocity": 80,
                "duration": 0.3977273,
                "tempo": 120.0
            },
            {
                "start_time": 14.8386364,
                "end_time": 18.05,
                "pitch": 35,
                "velocity": 80,
                "duration": 3.2113636,
                "tempo": 120.0
            },
            {
                "start_time": 17.85,
                "end_time": 18.05,
                "pitch": 47,
                "velocity": 80,
                "duration": 0.2,
                "tempo": 120.0
            },
            {
                "start_time": 18.05,
                "end_time": 18.25,
                "pitch": 38,
                "velocity": 80,
                "duration": 0.2,
                "tempo": 120.0
            },
            {
                "start_time": 17.85,
                "end_time": 18.25,
                "pitch": 50,
                "velocity": 80,
                "duration": 0.4,
                "tempo": 120.0
            },
            {
                "start_time": 17.2522727,
                "end_time": 18.4477273,
                "pitch": 33,
                "velocity": 80,
                "duration": 1.1954545,
                "tempo": 120.0
            },
            {
                "start_time": 18.25,
                "end_time": 18.4477273,
                "pitch": 45,
                "velocity": 80,
                "duration": 0.1977273,
                "tempo": 120.0
            },
            {
                "start_time": 18.4477273,
                "end_time": 18.6477273,
                "pitch": 38,
                "velocity": 80,
                "duration": 0.2,
                "tempo": 120.0
            },
            {
                "start_time": 18.25,
                "end_time": 18.8477273,
                "pitch": 50,
                "velocity": 80,
                "duration": 0.5977273,
                "tempo": 120.0
            },
            {
                "start_time": 18.6477273,
                "end_time": 18.8477273,
                "pitch": 50,
                "velocity": 80,
                "duration": 0.2,
                "tempo": 120.0
            },
            {
                "start_time": 18.8477273,
                "end_time": 19.05,
                "pitch": 38,
                "velocity": 80,
                "duration": 0.2022727,
                "tempo": 120.0
            },
            {
                "start_time": 19.05,
                "end_time": 19.2522727,
                "pitch": 36,
                "velocity": 80,
                "duration": 0.2022727,
                "tempo": 120.0
            },
            {
                "start_time": 19.2522727,
                "end_time": 19.4545455,
                "pitch": 36,
                "velocity": 80,
                "duration": 0.2022727,
                "tempo": 120.0
            },
            {
                "start_time": 19.4545455,
                "end_time": 19.6545455,
                "pitch": 36,
                "velocity": 80,
                "duration": 0.2,
                "tempo": 120.0
            },
            {
                "start_time": 19.6545455,
                "end_time": 19.8568182,
                "pitch": 36,
                "velocity": 80,
                "duration": 0.2022727,
                "tempo": 120.0
            },
            {
                "start_time": 19.8568182,
                "end_time": 20.0590909,
                "pitch": 48,
                "velocity": 80,
                "duration": 0.2022727,
                "tempo": 120.0
            },
            {
                "start_time": 20.0590909,
                "end_time": 20.2613636,
                "pitch": 36,
                "velocity": 80,
                "duration": 0.2022727,
                "tempo": 120.0
            },
            {
                "start_time": 12.6272727,
                "end_time": 20.4636364,
                "pitch": 31,
                "velocity": 80,
                "duration": 7.8363636,
                "tempo": 120.0
            },
            {
                "start_time": 20.2613636,
                "end_time": 20.4636364,
                "pitch": 43,
                "velocity": 80,
                "duration": 0.2022727,
                "tempo": 120.0
            },
            {
                "start_time": 20.4636364,
                "end_time": 20.6636364,
                "pitch": 36,
                "velocity": 80,
                "duration": 0.2,
                "tempo": 120.0
            },
            {
                "start_time": 20.2613636,
                "end_time": 20.8636364,
                "pitch": 48,
                "velocity": 80,
                "duration": 0.6022727,
                "tempo": 120.0
            },
            {
                "start_time": 20.6636364,
                "end_time": 20.8636364,
                "pitch": 48,
                "velocity": 80,
                "duration": 0.2,
                "tempo": 120.0
            },
            {
                "start_time": 20.8636364,
                "end_time": 21.0613636,
                "pitch": 34,
                "velocity": 80,
                "duration": 0.1977273,
                "tempo": 120.0
            },
            {
                "start_time": 18.4477273,
                "end_time": 21.2613636,
                "pitch": 33,
                "velocity": 80,
                "duration": 2.8136364,
                "tempo": 120.0
            },
            {
                "start_time": 21.0613636,
                "end_time": 21.2613636,
                "pitch": 45,
                "velocity": 80,
                "duration": 0.2,
                "tempo": 120.0
            },
            {
                "start_time": 21.2613636,
                "end_time": 21.4613636,
                "pitch": 36,
                "velocity": 80,
                "duration": 0.2,
                "tempo": 120.0
            },
            {
                "start_time": 21.0613636,
                "end_time": 21.4613636,
                "pitch": 48,
                "velocity": 80,
                "duration": 0.4,
                "tempo": 120.0
            },
            {
                "start_time": 20.4636364,
                "end_time": 21.6590909,
                "pitch": 31,
                "velocity": 80,
                "duration": 1.1954545,
                "tempo": 120.0
            },
            {
                "start_time": 21.4613636,
                "end_time": 21.6590909,
                "pitch": 43,
                "velocity": 80,
                "duration": 0.1977273,
                "tempo": 120.0
            },
            {
                "start_time": 21.6590909,
                "end_time": 21.8590909,
                "pitch": 36,
                "velocity": 80,
                "duration": 0.2,
                "tempo": 120.0
            },
            {
                "start_time": 21.4613636,
                "end_time": 22.0590909,
                "pitch": 48,
                "velocity": 80,
                "duration": 0.5977273,
                "tempo": 120.0
            },
            {
                "start_time": 21.8590909,
                "end_time": 22.0590909,
                "pitch": 48,
                "velocity": 80,
                "duration": 0.2,
                "tempo": 120.0
            },
            {
                "start_time": 22.0590909,
                "end_time": 22.2613636,
                "pitch": 36,
                "velocity": 80,
                "duration": 0.2022727,
                "tempo": 120.0
            },
            {
                "start_time": 22.2613636,
                "end_time": 22.4636364,
                "pitch": 36,
                "velocity": 80,
                "duration": 0.2022727,
                "tempo": 120.0
            },
            {
                "start_time": 22.4636364,
                "end_time": 22.6659091,
                "pitch": 36,
                "velocity": 80,
                "duration": 0.2022727,
                "tempo": 120.0
            },
            {
                "start_time": 22.6659091,
                "end_time": 22.8681818,
                "pitch": 36,
                "velocity": 80,
                "duration": 0.2022727,
                "tempo": 120.0
            },
            {
                "start_time": 22.8681818,
                "end_time": 23.0704545,
                "pitch": 36,
                "velocity": 80,
                "duration": 0.2022727,
                "tempo": 120.0
            },
            {
                "start_time": 23.0704545,
                "end_time": 23.2704545,
                "pitch": 48,
                "velocity": 80,
                "duration": 0.2,
                "tempo": 120.0
            },
            {
                "start_time": 23.2704545,
                "end_time": 23.4727273,
                "pitch": 36,
                "velocity": 80,
                "duration": 0.2022727,
                "tempo": 120.0
            },
            {
                "start_time": 23.4727273,
                "end_time": 23.675,
                "pitch": 43,
                "velocity": 80,
                "duration": 0.2022727,
                "tempo": 120.0
            },
            {
                "start_time": 23.675,
                "end_time": 23.875,
                "pitch": 36,
                "velocity": 80,
                "duration": 0.2,
                "tempo": 120.0
            },
            {
                "start_time": 23.875,
                "end_time": 24.075,
                "pitch": 48,
                "velocity": 80,
                "duration": 0.2,
                "tempo": 120.0
            },
            {
                "start_time": 24.075,
                "end_time": 24.2727273,
                "pitch": 34,
                "velocity": 80,
                "duration": 0.1977273,
                "tempo": 120.0
            },
            {
                "start_time": 21.2613636,
                "end_time": 24.4727273,
                "pitch": 33,
                "velocity": 80,
                "duration": 3.2113636,
                "tempo": 120.0
            },
            {
                "start_time": 24.2727273,
                "end_time": 24.4727273,
                "pitch": 45,
                "velocity": 80,
                "duration": 0.2,
                "tempo": 120.0
            },
            {
                "start_time": 24.4727273,
                "end_time": 24.6727273,
                "pitch": 36,
                "velocity": 80,
                "duration": 0.2,
                "tempo": 120.0
            },
            {
                "start_time": 24.2727273,
                "end_time": 24.6727273,
                "pitch": 48,
                "velocity": 80,
                "duration": 0.4,
                "tempo": 120.0
            },
            {
                "start_time": 21.6590909,
                "end_time": 24.8727273,
                "pitch": 31,
                "velocity": 80,
                "duration": 3.2136364,
                "tempo": 120.0
            },
            {
                "start_time": 24.6727273,
                "end_time": 24.8727273,
                "pitch": 43,
                "velocity": 80,
                "duration": 0.2,
                "tempo": 120.0
            },
            {
                "start_time": 24.8727273,
                "end_time": 25.0704545,
                "pitch": 36,
                "velocity": 80,
                "duration": 0.1977273,
                "tempo": 120.0
            },
            {
                "start_time": 24.6727273,
                "end_time": 25.2704545,
                "pitch": 48,
                "velocity": 80,
                "duration": 0.5977273,
                "tempo": 120.0
            },
            {
                "start_time": 25.0704545,
                "end_time": 25.2704545,
                "pitch": 48,
                "velocity": 80,
                "duration": 0.2,
                "tempo": 120.0
            },
            {
                "start_time": 25.2704545,
                "end_time": 25.4704545,
                "pitch": 36,
                "velocity": 80,
                "duration": 0.2,
                "tempo": 120.0
            },
            {
                "start_time": 25.4704545,
                "end_time": 25.6681818,
                "pitch": 43,
                "velocity": 80,
                "duration": 0.1977273,
                "tempo": 120.0
            },
            {
                "start_time": 25.6681818,
                "end_time": 25.8681818,
                "pitch": 43,
                "velocity": 80,
                "duration": 0.2,
                "tempo": 120.0
            },
            {
                "start_time": 25.8681818,
                "end_time": 26.0681818,
                "pitch": 43,
                "velocity": 80,
                "duration": 0.2,
                "tempo": 120.0
            },
            {
                "start_time": 26.0681818,
                "end_time": 26.2681818,
                "pitch": 43,
                "velocity": 80,
                "duration": 0.2,
                "tempo": 120.0
            },
            {
                "start_time": 26.2681818,
                "end_time": 26.4659091,
                "pitch": 55,
                "velocity": 80,
                "duration": 0.1977273,
                "tempo": 120.0
            },
            {
                "start_time": 26.4659091,
                "end_time": 26.6659091,
                "pitch": 43,
                "velocity": 80,
                "duration": 0.2,
                "tempo": 120.0
            },
            {
                "start_time": 26.6659091,
                "end_time": 26.8659091,
                "pitch": 50,
                "velocity": 80,
                "duration": 0.2,
                "tempo": 120.0
            },
            {
                "start_time": 26.8659091,
                "end_time": 27.0681818,
                "pitch": 43,
                "velocity": 80,
                "duration": 0.2022727,
                "tempo": 120.0
            },
            {
                "start_time": 11.2272727,
                "end_time": 27.2704545,
                "pitch": 53,
                "velocity": 80,
                "duration": 16.0431818,
                "tempo": 120.0
            },
            {
                "start_time": 27.0681818,
                "end_time": 27.2704545,
                "pitch": 53,
                "velocity": 80,
                "duration": 0.2022727,
                "tempo": 120.0
            },
            {
                "start_time": 27.0681818,
                "end_time": 27.4727273,
                "pitch": 43,
                "velocity": 80,
                "duration": 0.4045455,
                "tempo": 120.0
            },
            {
                "start_time": 27.2704545,
                "end_time": 27.4727273,
                "pitch": 43,
                "velocity": 80,
                "duration": 0.2022727,
                "tempo": 120.0
            },
            {
                "start_time": 11.6272727,
                "end_time": 27.675,
                "pitch": 52,
                "velocity": 80,
                "duration": 16.0477273,
                "tempo": 120.0
            },
            {
                "start_time": 27.4727273,
                "end_time": 27.675,
                "pitch": 52,
                "velocity": 80,
                "duration": 0.2022727,
                "tempo": 120.0
            },
            {
                "start_time": 27.4727273,
                "end_time": 27.875,
                "pitch": 43,
                "velocity": 80,
                "duration": 0.4022727,
                "tempo": 120.0
            },
            {
                "start_time": 27.675,
                "end_time": 27.875,
                "pitch": 43,
                "velocity": 80,
                "duration": 0.2,
                "tempo": 120.0
            },
            {
                "start_time": 27.8772727,
                "end_time": 28.0772727,
                "pitch": 50,
                "velocity": 80,
                "duration": 0.2,
                "tempo": 120.0
            },
            {
                "start_time": 27.8772727,
                "end_time": 28.2795455,
                "pitch": 43,
                "velocity": 80,
                "duration": 0.4022727,
                "tempo": 120.0
            },
            {
                "start_time": 28.0772727,
                "end_time": 28.2795455,
                "pitch": 43,
                "velocity": 80,
                "duration": 0.2022727,
                "tempo": 120.0
            },
            {
                "start_time": 28.2795455,
                "end_time": 28.4818182,
                "pitch": 55,
                "velocity": 80,
                "duration": 0.2022727,
                "tempo": 120.0
            },
            {
                "start_time": 28.4818182,
                "end_time": 28.6818182,
                "pitch": 43,
                "velocity": 80,
                "duration": 0.2,
                "tempo": 120.0
            },
            {
                "start_time": 28.6818182,
                "end_time": 28.8818182,
                "pitch": 43,
                "velocity": 80,
                "duration": 0.2,
                "tempo": 120.0
            },
            {
                "start_time": 28.8818182,
                "end_time": 29.0795455,
                "pitch": 43,
                "velocity": 80,
                "duration": 0.1977273,
                "tempo": 120.0
            },
            {
                "start_time": 29.0795455,
                "end_time": 29.2795455,
                "pitch": 43,
                "velocity": 80,
                "duration": 0.2,
                "tempo": 120.0
            },
            {
                "start_time": 29.2795455,
                "end_time": 29.4795455,
                "pitch": 43,
                "velocity": 80,
                "duration": 0.2,
                "tempo": 120.0
            },
            {
                "start_time": 29.4795455,
                "end_time": 29.6795455,
                "pitch": 55,
                "velocity": 80,
                "duration": 0.2,
                "tempo": 120.0
            },
            {
                "start_time": 29.6795455,
                "end_time": 29.8772727,
                "pitch": 43,
                "velocity": 80,
                "duration": 0.1977273,
                "tempo": 120.0
            },
            {
                "start_time": 28.0772727,
                "end_time": 30.0772727,
                "pitch": 50,
                "velocity": 80,
                "duration": 2.0,
                "tempo": 120.0
            },
            {
                "start_time": 29.8772727,
                "end_time": 30.0772727,
                "pitch": 50,
                "velocity": 80,
                "duration": 0.2,
                "tempo": 120.0
            },
            {
                "start_time": 30.0772727,
                "end_time": 30.2772727,
                "pitch": 43,
                "velocity": 80,
                "duration": 0.2,
                "tempo": 120.0
            },
            {
                "start_time": 27.2704545,
                "end_time": 30.4772727,
                "pitch": 53,
                "velocity": 80,
                "duration": 3.2068182,
                "tempo": 120.0
            },
            {
                "start_time": 30.2772727,
                "end_time": 30.4772727,
                "pitch": 53,
                "velocity": 80,
                "duration": 0.2,
                "tempo": 120.0
            },
            {
                "start_time": 30.2772727,
                "end_time": 30.675,
                "pitch": 43,
                "velocity": 80,
                "duration": 0.3977273,
                "tempo": 120.0
            },
            {
                "start_time": 30.4772727,
                "end_time": 30.675,
                "pitch": 43,
                "velocity": 80,
                "duration": 0.1977273,
                "tempo": 120.0
            },
            {
                "start_time": 27.675,
                "end_time": 30.875,
                "pitch": 52,
                "velocity": 80,
                "duration": 3.2,
                "tempo": 120.0
            },
            {
                "start_time": 30.675,
                "end_time": 30.875,
                "pitch": 52,
                "velocity": 80,
                "duration": 0.2,
                "tempo": 120.0
            },
            {
                "start_time": 30.675,
                "end_time": 31.075,
                "pitch": 43,
                "velocity": 80,
                "duration": 0.4,
                "tempo": 120.0
            },
            {
                "start_time": 30.875,
                "end_time": 31.075,
                "pitch": 43,
                "velocity": 80,
                "duration": 0.2,
                "tempo": 120.0
            },
            {
                "start_time": 30.0772727,
                "end_time": 31.2727273,
                "pitch": 50,
                "velocity": 80,
                "duration": 1.1954545,
                "tempo": 120.0
            },
            {
                "start_time": 31.075,
                "end_time": 31.2727273,
                "pitch": 50,
                "velocity": 80,
                "duration": 0.1977273,
                "tempo": 120.0
            },
            {
                "start_time": 31.075,
                "end_time": 31.4727273,
                "pitch": 43,
                "velocity": 80,
                "duration": 0.3977273,
                "tempo": 120.0
            },
            {
                "start_time": 31.2727273,
                "end_time": 31.4727273,
                "pitch": 43,
                "velocity": 80,
                "duration": 0.2,
                "tempo": 120.0
            },
            {
                "start_time": 31.4727273,
                "end_time": 31.6727273,
                "pitch": 55,
                "velocity": 80,
                "duration": 0.2,
                "tempo": 120.0
            },
            {
                "start_time": 31.6727273,
                "end_time": 31.875,
                "pitch": 43,
                "velocity": 80,
                "duration": 0.2022727,
                "tempo": 120.0
            }
        ],
        "Harpsichord": [
            {
                "start_time": 6.3863636,
                "end_time": 6.5636364,
                "pitch": 43,
                "velocity": 51,
                "duration": 0.1772727,
                "tempo": 120.0
            },
            {
                "start_time": 6.5636364,
                "end_time": 6.7386364,
                "pitch": 43,
                "velocity": 51,
                "duration": 0.175,
                "tempo": 120.0
            },
            {
                "start_time": 6.7386364,
                "end_time": 6.9136364,
                "pitch": 43,
                "velocity": 51,
                "duration": 0.175,
                "tempo": 120.0
            },
            {
                "start_time": 6.9136364,
                "end_time": 7.0909091,
                "pitch": 43,
                "velocity": 51,
                "duration": 0.1772727,
                "tempo": 120.0
            },
            {
                "start_time": 7.0909091,
                "end_time": 7.2659091,
                "pitch": 55,
                "velocity": 51,
                "duration": 0.175,
                "tempo": 120.0
            },
            {
                "start_time": 7.2659091,
                "end_time": 7.4431818,
                "pitch": 43,
                "velocity": 51,
                "duration": 0.1772727,
                "tempo": 120.0
            },
            {
                "start_time": 7.4431818,
                "end_time": 7.6181818,
                "pitch": 50,
                "velocity": 51,
                "duration": 0.175,
                "tempo": 120.0
            },
            {
                "start_time": 7.4431818,
                "end_time": 7.8204545,
                "pitch": 43,
                "velocity": 51,
                "duration": 0.3772727,
                "tempo": 120.0
            },
            {
                "start_time": 7.6181818,
                "end_time": 7.8204545,
                "pitch": 43,
                "velocity": 51,
                "duration": 0.2022727,
                "tempo": 120.0
            },
            {
                "start_time": 7.8204545,
                "end_time": 8.0227273,
                "pitch": 53,
                "velocity": 51,
                "duration": 0.2022727,
                "tempo": 120.0
            },
            {
                "start_time": 8.0227273,
                "end_time": 8.225,
                "pitch": 43,
                "velocity": 51,
                "duration": 0.2022727,
                "tempo": 120.0
            },
            {
                "start_time": 8.225,
                "end_time": 8.4272727,
                "pitch": 52,
                "velocity": 51,
                "duration": 0.2022727,
                "tempo": 120.0
            },
            {
                "start_time": 8.4272727,
                "end_time": 8.6272727,
                "pitch": 43,
                "velocity": 51,
                "duration": 0.2,
                "tempo": 120.0
            },
            {
                "start_time": 7.6181818,
                "end_time": 8.8295455,
                "pitch": 50,
                "velocity": 51,
                "duration": 1.2113636,
                "tempo": 120.0
            },
            {
                "start_time": 8.6272727,
                "end_time": 8.8295455,
                "pitch": 50,
                "velocity": 51,
                "duration": 0.2022727,
                "tempo": 120.0
            },
            {
                "start_time": 8.6272727,
                "end_time": 9.0318182,
                "pitch": 43,
                "velocity": 51,
                "duration": 0.4045455,
                "tempo": 120.0
            },
            {
                "start_time": 8.8295455,
                "end_time": 9.0318182,
                "pitch": 43,
                "velocity": 51,
                "duration": 0.2022727,
                "tempo": 120.0
            },
            {
                "start_time": 9.0318182,
                "end_time": 9.2340909,
                "pitch": 55,
                "velocity": 51,
                "duration": 0.2022727,
                "tempo": 120.0
            },
            {
                "start_time": 9.2340909,
                "end_time": 9.4340909,
                "pitch": 43,
                "velocity": 51,
                "duration": 0.2,
                "tempo": 120.0
            },
            {
                "start_time": 9.4340909,
                "end_time": 9.6340909,
                "pitch": 43,
                "velocity": 51,
                "duration": 0.2,
                "tempo": 120.0
            },
            {
                "start_time": 9.6340909,
                "end_time": 9.8318182,
                "pitch": 43,
                "velocity": 51,
                "duration": 0.1977273,
                "tempo": 120.0
            },
            {
                "start_time": 9.8318182,
                "end_time": 10.0318182,
                "pitch": 43,
                "velocity": 51,
                "duration": 0.2,
                "tempo": 120.0
            },
            {
                "start_time": 10.0318182,
                "end_time": 10.2318182,
                "pitch": 43,
                "velocity": 51,
                "duration": 0.2,
                "tempo": 120.0
            },
            {
                "start_time": 10.2318182,
                "end_time": 10.4318182,
                "pitch": 55,
                "velocity": 51,
                "duration": 0.2,
                "tempo": 120.0
            },
            {
                "start_time": 10.4318182,
                "end_time": 10.6295455,
                "pitch": 43,
                "velocity": 51,
                "duration": 0.1977273,
                "tempo": 120.0
            },
            {
                "start_time": 10.6295455,
                "end_time": 10.8295455,
                "pitch": 50,
                "velocity": 51,
                "duration": 0.2,
                "tempo": 120.0
            },
            {
                "start_time": 10.6295455,
                "end_time": 11.0295455,
                "pitch": 43,
                "velocity": 51,
                "duration": 0.4,
                "tempo": 120.0
            },
            {
                "start_time": 10.8295455,
                "end_time": 11.0295455,
                "pitch": 43,
                "velocity": 51,
                "duration": 0.2,
                "tempo": 120.0
            },
            {
                "start_time": 11.0295455,
                "end_time": 11.2272727,
                "pitch": 53,
                "velocity": 51,
                "duration": 0.1977273,
                "tempo": 120.0
            },
            {
                "start_time": 11.2272727,
                "end_time": 11.4272727,
                "pitch": 43,
                "velocity": 51,
                "duration": 0.2,
                "tempo": 120.0
            },
            {
                "start_time": 11.4272727,
                "end_time": 11.6272727,
                "pitch": 52,
                "velocity": 51,
                "duration": 0.2,
                "tempo": 120.0
            },
            {
                "start_time": 11.6272727,
                "end_time": 11.8272727,
                "pitch": 43,
                "velocity": 51,
                "duration": 0.2,
                "tempo": 120.0
            },
            {
                "start_time": 10.8295455,
                "end_time": 12.025,
                "pitch": 50,
                "velocity": 51,
                "duration": 1.1954545,
                "tempo": 120.0
            },
            {
                "start_time": 11.8272727,
                "end_time": 12.025,
                "pitch": 50,
                "velocity": 51,
                "duration": 0.1977273,
                "tempo": 120.0
            },
            {
                "start_time": 11.8272727,
                "end_time": 12.225,
                "pitch": 43,
                "velocity": 51,
                "duration": 0.3977273,
                "tempo": 120.0
            },
            {
                "start_time": 12.025,
                "end_time": 12.225,
                "pitch": 43,
                "velocity": 51,
                "duration": 0.2,
                "tempo": 120.0
            },
            {
                "start_time": 12.225,
                "end_time": 12.425,
                "pitch": 55,
                "velocity": 51,
                "duration": 0.2,
                "tempo": 120.0
            },
            {
                "start_time": 12.425,
                "end_time": 12.6272727,
                "pitch": 43,
                "velocity": 51,
                "duration": 0.2022727,
                "tempo": 120.0
            },
            {
                "start_time": 12.6272727,
                "end_time": 12.8295455,
                "pitch": 38,
                "velocity": 51,
                "duration": 0.2022727,
                "tempo": 120.0
            },
            {
                "start_time": 12.8295455,
                "end_time": 13.0295455,
                "pitch": 38,
                "velocity": 51,
                "duration": 0.2,
                "tempo": 120.0
            },
            {
                "start_time": 13.0295455,
                "end_time": 13.2318182,
                "pitch": 38,
                "velocity": 51,
                "duration": 0.2022727,
                "tempo": 120.0
            },
            {
                "start_time": 13.2318182,
                "end_time": 13.4340909,
                "pitch": 38,
                "velocity": 51,
                "duration": 0.2022727,
                "tempo": 120.0
            },
            {
                "start_time": 13.4340909,
                "end_time": 13.6363636,
                "pitch": 50,
                "velocity": 51,
                "duration": 0.2022727,
                "tempo": 120.0
            },
            {
                "start_time": 13.6363636,
                "end_time": 13.8386364,
                "pitch": 38,
                "velocity": 51,
                "duration": 0.2022727,
                "tempo": 120.0
            },
            {
                "start_time": 13.8386364,
                "end_time": 14.0409091,
                "pitch": 45,
                "velocity": 51,
                "duration": 0.2022727,
                "tempo": 120.0
            },
            {
                "start_time": 14.0409091,
                "end_time": 14.2409091,
                "pitch": 38,
                "velocity": 51,
                "duration": 0.2,
                "tempo": 120.0
            },
            {
                "start_time": 14.2409091,
                "end_time": 14.4386364,
                "pitch": 48,
                "velocity": 51,
                "duration": 0.1977273,
                "tempo": 120.0
            },
            {
                "start_time": 14.4386364,
                "end_time": 14.6386364,
                "pitch": 38,
                "velocity": 51,
                "duration": 0.2,
                "tempo": 120.0
            },
            {
                "start_time": 14.6386364,
                "end_time": 14.8386364,
                "pitch": 47,
                "velocity": 51,
                "duration": 0.2,
                "tempo": 120.0
            },
            {
                "start_time": 14.8386364,
                "end_time": 15.0386364,
                "pitch": 38,
                "velocity": 51,
                "duration": 0.2,
                "tempo": 120.0
            },
            {
                "start_time": 15.0386364,
                "end_time": 15.2363636,
                "pitch": 45,
                "velocity": 51,
                "duration": 0.1977273,
                "tempo": 120.0
            },
            {
                "start_time": 15.2363636,
                "end_time": 15.4363636,
                "pitch": 38,
                "velocity": 51,
                "duration": 0.2,
                "tempo": 120.0
            },
            {
                "start_time": 15.0386364,
                "end_time": 15.6363636,
                "pitch": 50,
                "velocity": 51,
                "duration": 0.5977273,
                "tempo": 120.0
            },
            {
                "start_time": 15.4363636,
                "end_time": 15.6363636,
                "pitch": 50,
                "velocity": 51,
                "duration": 0.2,
                "tempo": 120.0
            },
            {
                "start_time": 15.6363636,
                "end_time": 15.8386364,
                "pitch": 38,
                "velocity": 51,
                "duration": 0.2022727,
                "tempo": 120.0
            },
            {
                "start_time": 15.8386364,
                "end_time": 16.0409091,
                "pitch": 38,
                "velocity": 51,
                "duration": 0.2022727,
                "tempo": 120.0
            },
            {
                "start_time": 16.0409091,
                "end_time": 16.2431818,
                "pitch": 38,
                "velocity": 51,
                "duration": 0.2022727,
                "tempo": 120.0
            },
            {
                "start_time": 16.2431818,
                "end_time": 16.4431818,
                "pitch": 38,
                "velocity": 51,
                "duration": 0.2,
                "tempo": 120.0
            },
            {
                "start_time": 16.4431818,
                "end_time": 16.6454545,
                "pitch": 38,
                "velocity": 51,
                "duration": 0.2022727,
                "tempo": 120.0
            },
            {
                "start_time": 16.6454545,
                "end_time": 16.8477273,
                "pitch": 50,
                "velocity": 51,
                "duration": 0.2022727,
                "tempo": 120.0
            },
            {
                "start_time": 16.8477273,
                "end_time": 17.05,
                "pitch": 38,
                "velocity": 51,
                "duration": 0.2022727,
                "tempo": 120.0
            },
            {
                "start_time": 17.05,
                "end_time": 17.2522727,
                "pitch": 45,
                "velocity": 51,
                "duration": 0.2022727,
                "tempo": 120.0
            },
            {
                "start_time": 17.2522727,
                "end_time": 17.4522727,
                "pitch": 38,
                "velocity": 51,
                "duration": 0.2,
                "tempo": 120.0
            },
            {
                "start_time": 17.4522727,
                "end_time": 17.6522727,
                "pitch": 48,
                "velocity": 51,
                "duration": 0.2,
                "tempo": 120.0
            },
            {
                "start_time": 17.6522727,
                "end_time": 17.85,
                "pitch": 38,
                "velocity": 51,
                "duration": 0.1977273,
                "tempo": 120.0
            },
            {
                "start_time": 17.85,
                "end_time": 18.05,
                "pitch": 47,
                "velocity": 51,
                "duration": 0.2,
                "tempo": 120.0
            },
            {
                "start_time": 18.05,
                "end_time": 18.25,
                "pitch": 38,
                "velocity": 51,
                "duration": 0.2,
                "tempo": 120.0
            },
            {
                "start_time": 18.25,
                "end_time": 18.4477273,
                "pitch": 45,
                "velocity": 51,
                "duration": 0.1977273,
                "tempo": 120.0
            },
            {
                "start_time": 15.2363636,
                "end_time": 18.45,
                "pitch": 33,
                "velocity": 51,
                "duration": 3.2136364,
                "tempo": 120.0
            },
            {
                "start_time": 18.4477273,
                "end_time": 18.45,
                "pitch": 33,
                "velocity": 51,
                "duration": 0.0022727,
                "tempo": 120.0
            },
            {
                "start_time": 18.45,
                "end_time": 18.6477273,
                "pitch": 38,
                "velocity": 51,
                "duration": 0.1977273,
                "tempo": 120.0
            },
            {
                "start_time": 18.6477273,
                "end_time": 18.8477273,
                "pitch": 50,
                "velocity": 51,
                "duration": 0.2,
                "tempo": 120.0
            },
            {
                "start_time": 18.8477273,
                "end_time": 19.05,
                "pitch": 38,
                "velocity": 51,
                "duration": 0.2022727,
                "tempo": 120.0
            },
            {
                "start_time": 19.05,
                "end_time": 19.2522727,
                "pitch": 36,
                "velocity": 51,
                "duration": 0.2022727,
                "tempo": 120.0
            },
            {
                "start_time": 19.2522727,
                "end_time": 19.4545455,
                "pitch": 36,
                "velocity": 51,
                "duration": 0.2022727,
                "tempo": 120.0
            },
            {
                "start_time": 19.4545455,
                "end_time": 19.6568182,
                "pitch": 36,
                "velocity": 51,
                "duration": 0.2022727,
                "tempo": 120.0
            },
            {
                "start_time": 19.6568182,
                "end_time": 19.8568182,
                "pitch": 36,
                "velocity": 51,
                "duration": 0.2,
                "tempo": 120.0
            },
            {
                "start_time": 19.8568182,
                "end_time": 20.0590909,
                "pitch": 48,
                "velocity": 51,
                "duration": 0.2022727,
                "tempo": 120.0
            },
            {
                "start_time": 20.0590909,
                "end_time": 20.2613636,
                "pitch": 36,
                "velocity": 51,
                "duration": 0.2022727,
                "tempo": 120.0
            },
            {
                "start_time": 20.2613636,
                "end_time": 20.4636364,
                "pitch": 43,
                "velocity": 51,
                "duration": 0.2022727,
                "tempo": 120.0
            },
            {
                "start_time": 20.4636364,
                "end_time": 20.6636364,
                "pitch": 36,
                "velocity": 51,
                "duration": 0.2,
                "tempo": 120.0
            },
            {
                "start_time": 20.6636364,
                "end_time": 20.8636364,
                "pitch": 48,
                "velocity": 51,
                "duration": 0.2,
                "tempo": 120.0
            },
            {
                "start_time": 20.8636364,
                "end_time": 21.0613636,
                "pitch": 34,
                "velocity": 51,
                "duration": 0.1977273,
                "tempo": 120.0
            },
            {
                "start_time": 21.0613636,
                "end_time": 21.2613636,
                "pitch": 45,
                "velocity": 51,
                "duration": 0.2,
                "tempo": 120.0
            },
            {
                "start_time": 21.2613636,
                "end_time": 21.4613636,
                "pitch": 36,
                "velocity": 51,
                "duration": 0.2,
                "tempo": 120.0
            },
            {
                "start_time": 21.4613636,
                "end_time": 21.6613636,
                "pitch": 43,
                "velocity": 51,
                "duration": 0.2,
                "tempo": 120.0
            },
            {
                "start_time": 21.6613636,
                "end_time": 21.8590909,
                "pitch": 36,
                "velocity": 51,
                "duration": 0.1977273,
                "tempo": 120.0
            },
            {
                "start_time": 21.4613636,
                "end_time": 22.0590909,
                "pitch": 48,
                "velocity": 51,
                "duration": 0.5977273,
                "tempo": 120.0
            },
            {
                "start_time": 21.8590909,
                "end_time": 22.0590909,
                "pitch": 48,
                "velocity": 51,
                "duration": 0.2,
                "tempo": 120.0
            },
            {
                "start_time": 22.0590909,
                "end_time": 22.2613636,
                "pitch": 36,
                "velocity": 51,
                "duration": 0.2022727,
                "tempo": 120.0
            },
            {
                "start_time": 22.2613636,
                "end_time": 22.4636364,
                "pitch": 36,
                "velocity": 51,
                "duration": 0.2022727,
                "tempo": 120.0
            },
            {
                "start_time": 22.4636364,
                "end_time": 22.6659091,
                "pitch": 36,
                "velocity": 51,
                "duration": 0.2022727,
                "tempo": 120.0
            },
            {
                "start_time": 22.6659091,
                "end_time": 22.8681818,
                "pitch": 36,
                "velocity": 51,
                "duration": 0.2022727,
                "tempo": 120.0
            },
            {
                "start_time": 22.8681818,
                "end_time": 23.0704545,
                "pitch": 36,
                "velocity": 51,
                "duration": 0.2022727,
                "tempo": 120.0
            },
            {
                "start_time": 23.0704545,
                "end_time": 23.2704545,
                "pitch": 48,
                "velocity": 51,
                "duration": 0.2,
                "tempo": 120.0
            },
            {
                "start_time": 23.2704545,
                "end_time": 23.4727273,
                "pitch": 36,
                "velocity": 51,
                "duration": 0.2022727,
                "tempo": 120.0
            },
            {
                "start_time": 20.4636364,
                "end_time": 23.675,
                "pitch": 31,
                "velocity": 51,
                "duration": 3.2113636,
                "tempo": 120.0
            },
            {
                "start_time": 23.4727273,
                "end_time": 23.675,
                "pitch": 43,
                "velocity": 51,
                "duration": 0.2022727,
                "tempo": 120.0
            },
            {
                "start_time": 23.675,
                "end_time": 23.875,
                "pitch": 36,
                "velocity": 51,
                "duration": 0.2,
                "tempo": 120.0
            },
            {
                "start_time": 23.4727273,
                "end_time": 24.075,
                "pitch": 48,
                "velocity": 51,
                "duration": 0.6022727,
                "tempo": 120.0
            },
            {
                "start_time": 23.875,
                "end_time": 24.075,
                "pitch": 48,
                "velocity": 51,
                "duration": 0.2,
                "tempo": 120.0
            },
            {
                "start_time": 24.075,
                "end_time": 24.2727273,
                "pitch": 34,
                "velocity": 51,
                "duration": 0.1977273,
                "tempo": 120.0
            },
            {
                "start_time": 24.275,
                "end_time": 24.4727273,
                "pitch": 45,
                "velocity": 51,
                "duration": 0.1977273,
                "tempo": 120.0
            },
            {
                "start_time": 24.4727273,
                "end_time": 24.6727273,
                "pitch": 36,
                "velocity": 51,
                "duration": 0.2,
                "tempo": 120.0
            },
            {
                "start_time": 24.6727273,
                "end_time": 24.8727273,
                "pitch": 43,
                "velocity": 51,
                "duration": 0.2,
                "tempo": 120.0
            },
            {
                "start_time": 24.8727273,
                "end_time": 25.0704545,
                "pitch": 36,
                "velocity": 51,
                "duration": 0.1977273,
                "tempo": 120.0
            },
            {
                "start_time": 24.6727273,
                "end_time": 25.2704545,
                "pitch": 48,
                "velocity": 51,
                "duration": 0.5977273,
                "tempo": 120.0
            },
            {
                "start_time": 25.0704545,
                "end_time": 25.2704545,
                "pitch": 48,
                "velocity": 51,
                "duration": 0.2,
                "tempo": 120.0
            },
            {
                "start_time": 25.2704545,
                "end_time": 25.4704545,
                "pitch": 36,
                "velocity": 51,
                "duration": 0.2,
                "tempo": 120.0
            },
            {
                "start_time": 25.4704545,
                "end_time": 25.6704545,
                "pitch": 43,
                "velocity": 51,
                "duration": 0.2,
                "tempo": 120.0
            },
            {
                "start_time": 25.6704545,
                "end_time": 25.8681818,
                "pitch": 43,
                "velocity": 51,
                "duration": 0.1977273,
                "tempo": 120.0
            },
            {
                "start_time": 25.8681818,
                "end_time": 26.0681818,
                "pitch": 43,
                "velocity": 51,
                "duration": 0.2,
                "tempo": 120.0
            },
            {
                "start_time": 26.0681818,
                "end_time": 26.2681818,
                "pitch": 43,
                "velocity": 51,
                "duration": 0.2,
                "tempo": 120.0
            },
            {
                "start_time": 26.2681818,
                "end_time": 26.4659091,
                "pitch": 55,
                "velocity": 51,
                "duration": 0.1977273,
                "tempo": 120.0
            },
            {
                "start_time": 26.4659091,
                "end_time": 26.6659091,
                "pitch": 43,
                "velocity": 51,
                "duration": 0.2,
                "tempo": 120.0
            },
            {
                "start_time": 26.6659091,
                "end_time": 26.8659091,
                "pitch": 50,
                "velocity": 51,
                "duration": 0.2,
                "tempo": 120.0
            },
            {
                "start_time": 26.6659091,
                "end_time": 27.0681818,
                "pitch": 43,
                "velocity": 51,
                "duration": 0.4022727,
                "tempo": 120.0
            },
            {
                "start_time": 26.8659091,
                "end_time": 27.0681818,
                "pitch": 43,
                "velocity": 51,
                "duration": 0.2022727,
                "tempo": 120.0
            },
            {
                "start_time": 27.0681818,
                "end_time": 27.2704545,
                "pitch": 53,
                "velocity": 51,
                "duration": 0.2022727,
                "tempo": 120.0
            },
            {
                "start_time": 27.2704545,
                "end_time": 27.4727273,
                "pitch": 43,
                "velocity": 51,
                "duration": 0.2022727,
                "tempo": 120.0
            },
            {
                "start_time": 27.4727273,
                "end_time": 27.675,
                "pitch": 52,
                "velocity": 51,
                "duration": 0.2022727,
                "tempo": 120.0
            },
            {
                "start_time": 27.675,
                "end_time": 27.8772727,
                "pitch": 43,
                "velocity": 51,
                "duration": 0.2022727,
                "tempo": 120.0
            },
            {
                "start_time": 26.8659091,
                "end_time": 28.0772727,
                "pitch": 50,
                "velocity": 51,
                "duration": 1.2113636,
                "tempo": 120.0
            },
            {
                "start_time": 27.8772727,
                "end_time": 28.0772727,
                "pitch": 50,
                "velocity": 51,
                "duration": 0.2,
                "tempo": 120.0
            },
            {
                "start_time": 27.8772727,
                "end_time": 28.2795455,
                "pitch": 43,
                "velocity": 51,
                "duration": 0.4022727,
                "tempo": 120.0
            },
            {
                "start_time": 28.0772727,
                "end_time": 28.2795455,
                "pitch": 43,
                "velocity": 51,
                "duration": 0.2022727,
                "tempo": 120.0
            },
            {
                "start_time": 28.2795455,
                "end_time": 28.4818182,
                "pitch": 55,
                "velocity": 51,
                "duration": 0.2022727,
                "tempo": 120.0
            },
            {
                "start_time": 28.4818182,
                "end_time": 28.6818182,
                "pitch": 43,
                "velocity": 51,
                "duration": 0.2,
                "tempo": 120.0
            },
            {
                "start_time": 28.6818182,
                "end_time": 28.8818182,
                "pitch": 43,
                "velocity": 51,
                "duration": 0.2,
                "tempo": 120.0
            },
            {
                "start_time": 28.8818182,
                "end_time": 29.0818182,
                "pitch": 43,
                "velocity": 51,
                "duration": 0.2,
                "tempo": 120.0
            },
            {
                "start_time": 29.0818182,
                "end_time": 29.2795455,
                "pitch": 43,
                "velocity": 51,
                "duration": 0.1977273,
                "tempo": 120.0
            },
            {
                "start_time": 29.2795455,
                "end_time": 29.4795455,
                "pitch": 43,
                "velocity": 51,
                "duration": 0.2,
                "tempo": 120.0
            },
            {
                "start_time": 29.4795455,
                "end_time": 29.6795455,
                "pitch": 55,
                "velocity": 51,
                "duration": 0.2,
                "tempo": 120.0
            },
            {
                "start_time": 29.6795455,
                "end_time": 29.8772727,
                "pitch": 43,
                "velocity": 51,
                "duration": 0.1977273,
                "tempo": 120.0
            },
            {
                "start_time": 29.8772727,
                "end_time": 30.0772727,
                "pitch": 50,
                "velocity": 51,
                "duration": 0.2,
                "tempo": 120.0
            },
            {
                "start_time": 29.8772727,
                "end_time": 30.2772727,
                "pitch": 43,
                "velocity": 51,
                "duration": 0.4,
                "tempo": 120.0
            },
            {
                "start_time": 30.0772727,
                "end_time": 30.2772727,
                "pitch": 43,
                "velocity": 51,
                "duration": 0.2,
                "tempo": 120.0
            },
            {
                "start_time": 30.2772727,
                "end_time": 30.4772727,
                "pitch": 53,
                "velocity": 51,
                "duration": 0.2,
                "tempo": 120.0
            },
            {
                "start_time": 30.4772727,
                "end_time": 30.675,
                "pitch": 43,
                "velocity": 51,
                "duration": 0.1977273,
                "tempo": 120.0
            },
            {
                "start_time": 30.675,
                "end_time": 30.875,
                "pitch": 52,
                "velocity": 51,
                "duration": 0.2,
                "tempo": 120.0
            },
            {
                "start_time": 30.675,
                "end_time": 31.075,
                "pitch": 43,
                "velocity": 51,
                "duration": 0.4,
                "tempo": 120.0
            },
            {
                "start_time": 30.875,
                "end_time": 31.075,
                "pitch": 43,
                "velocity": 51,
                "duration": 0.2,
                "tempo": 120.0
            },
            {
                "start_time": 31.075,
                "end_time": 31.2727273,
                "pitch": 50,
                "velocity": 51,
                "duration": 0.1977273,
                "tempo": 120.0
            },
            {
                "start_time": 31.275,
                "end_time": 31.4727273,
                "pitch": 43,
                "velocity": 51,
                "duration": 0.1977273,
                "tempo": 120.0
            },
            {
                "start_time": 31.4727273,
                "end_time": 31.6727273,
                "pitch": 55,
                "velocity": 51,
                "duration": 0.2,
                "tempo": 120.0
            },
            {
                "start_time": 31.6727273,
                "end_time": 31.875,
                "pitch": 43,
                "velocity": 51,
                "duration": 0.2022727,
                "tempo": 120.0
            }
        ]
    }
}