{
    "mood": "angry",
    "instruments": {
        "Electric Piano 1": [
            {
                "start_time": 0.0386364,
                "end_time": 0.1022727,
                "pitch": 33,
                "velocity": 101,
                "duration": 0.0636364,
                "tempo": 120.0
            },
            {
                "start_time": 0.1022727,
                "end_time": 0.1681818,
                "pitch": 33,
                "velocity": 101,
                "duration": 0.0659091,
                "tempo": 120.0
            },
            {
                "start_time": 0.1704545,
                "end_time": 0.3022727,
                "pitch": 45,
                "velocity": 101,
                "duration": 0.1318182,
                "tempo": 120.0
            },
            {
                "start_time": 0.3022727,
                "end_time": 0.4522727,
                "pitch": 33,
                "velocity": 101,
                "duration": 0.15,
                "tempo": 120.0
            },
            {
                "start_time": 0.4522727,
                "end_time": 0.5840909,
                "pitch": 45,
                "velocity": 101,
                "duration": 0.1318182,
                "tempo": 120.0
            },
            {
                "start_time": 0.5863636,
                "end_time": 0.7204545,
                "pitch": 33,
                "velocity": 101,
                "duration": 0.1340909,
                "tempo": 120.0
            },
            {
                "start_time": 0.7204545,
                "end_time": 0.8568182,
                "pitch": 45,
                "velocity": 101,
                "duration": 0.1363636,
                "tempo": 120.0
            },
            {
                "start_time": 0.8568182,
                "end_time": 0.9909091,
                "pitch": 33,
                "velocity": 101,
                "duration": 0.1340909,
                "tempo": 120.0
            },
            {
                "start_time": 0.9931818,
                "end_time": 1.1272727,
                "pitch": 45,
                "velocity": 101,
                "duration": 0.1340909,
                "tempo": 120.0
            },
            {
                "start_time": 1.1295455,
                "end_time": 1.2068182,
                "pitch": 33,
                "velocity": 101,
                "duration": 0.0772727,
                "tempo": 120.0
            },
            {
                "start_time": 1.2090909,
                "end_time": 1.2727273,
                "pitch": 33,
                "velocity": 101,
                "duration": 0.0636364,
                "tempo": 120.0
            },
            {
                "start_time": 1.2727273,
                "end_time": 1.4,
                "pitch": 45,
                "velocity": 101,
                "duration": 0.1272727,
                "tempo": 120.0
            },
            {
                "start_time": 1.4022727,
                "end_time": 1.6568182,
                "pitch": 33,
                "velocity": 101,
                "duration": 0.2545455,
                "tempo": 120.0
            },
            {
                "start_time": 1.6590909,
                "end_time": 1.9409091,
                "pitch": 33,
                "velocity": 101,
                "duration": 0.2818182,
                "tempo": 120.0
            },
            {
                "start_time": 1.9409091,
                "end_time": 2.2068182,
                "pitch": 33,
                "velocity": 101,
                "duration": 0.2659091,
                "tempo": 120.0
            },
            {
                "start_time": 2.2090909,
                "end_time": 2.2727273,
                "pitch": 33,
                "velocity": 101,
                "duration": 0.0636364,
                "tempo": 120.0
            },
            {
                "start_time": 2.2727273,
                "end_time": 2.3363636,
                "pitch": 33,
                "velocity": 101,
                "duration": 0.0636364,
                "tempo": 120.0
            },
            {
                "start_time": 2.3386364,
                "end_time": 2.4681818,
                "pitch": 45,
                "velocity": 101,
                "duration": 0.1295455,
                "tempo": 120.0
            },
            {
                "start_time": 2.4704545,
                "end_time": 2.6,
                "pitch": 33,
                "velocity": 101,
                "duration": 0.1295455,
                "tempo": 120.0
            },
            {
                "start_time": 2.6,
                "end_time": 2.7454545,
                "pitch": 45,
                "velocity": 101,
                "duration": 0.1454545,
                "tempo": 120.0
            },
            {
                "start_time": 2.7477273,
                "end_time": 2.8818182,
                "pitch": 33,
                "velocity": 101,
                "duration": 0.1340909,
                "tempo": 120.0
            },
            {
                "start_time": 2.8818182,
                "end_time": 3.0181818,
                "pitch": 45,
                "velocity": 101,
                "duration": 0.1363636,
                "tempo": 120.0
            },
            {
                "start_time": 3.0181818,
                "end_time": 3.1522727,
                "pitch": 33,
                "velocity": 101,
                "duration": 0.1340909,
                "tempo": 120.0
            },
            {
                "start_time": 3.1545455,
                "end_time": 3.2886364,
                "pitch": 45,
                "velocity": 101,
                "duration": 0.1340909,
                "tempo": 120.0
            },
            {
                "start_time": 3.2909091,
                "end_time": 3.3522727,
                "pitch": 33,
                "velocity": 101,
                "duration": 0.0613636,
                "tempo": 120.0
            },
            {
                "start_time": 3.3545455,
                "end_time": 3.4340909,
                "pitch": 33,
                "velocity": 101,
                "duration": 0.0795455,
                "tempo": 120.0
            },
            {
                "start_time": 3.4340909,
                "end_time": 3.5613636,
                "pitch": 45,
                "velocity": 101,
                "duration": 0.1272727,
                "tempo": 120.0
            },
            {
                "start_time": 3.5636364,
                "end_time": 3.8181818,
                "pitch": 33,
                "velocity": 101,
                "duration": 0.2545455,
                "tempo": 120.0
            },
            {
                "start_time": 3.8204545,
                "end_time": 4.0840909,
                "pitch": 33,
                "velocity": 101,
                "duration": 0.2636364,
                "tempo": 120.0
            },
            {
                "start_time": 4.0863636,
                "end_time": 4.3681818,
                "pitch": 33,
                "velocity": 101,
                "duration": 0.2818182,
                "tempo": 120.0
            },
            {
                "start_time": 4.3704545,
                "end_time": 4.4340909,
                "pitch": 33,
                "velocity": 101,
                "duration": 0.0636364,
                "tempo": 120.0
            },
            {
                "start_time": 4.4340909,
                "end_time": 4.4977273,
                "pitch": 33,
                "velocity": 101,
                "duration": 0.0636364,
                "tempo": 120.0
            },
            {
                "start_time": 4.5,
                "end_time": 4.6295455,
                "pitch": 45,
                "velocity": 101,
                "duration": 0.1295455,
                "tempo": 120.0
            },
            {
                "start_time": 4.6295455,
                "end_time": 4.7613636,
                "pitch": 33,
                "velocity": 101,
                "duration": 0.1318182,
                "tempo": 120.0
            },
            {
                "start_time": 4.7613636,
                "end_time": 4.9068182,
                "pitch": 45,
                "velocity": 101,
                "duration": 0.1454545,
                "tempo": 120.0
            },
            {
                "start_time": 4.9090909,
                "end_time": 5.0409091,
                "pitch": 33,
                "velocity": 101,
                "duration": 0.1318182,
                "tempo": 120.0
            },
            {
                "start_time": 5.0409091,
                "end_time": 5.175,
                "pitch": 45,
                "velocity": 101,
                "duration": 0.1340909,
                "tempo": 120.0
            },
            {
                "start_time": 5.175,
                "end_time": 5.3068182,
                "pitch": 33,
                "velocity": 101,
                "duration": 0.1318182,
                "tempo": 120.0
            },
            {
                "start_time": 5.3090909,
                "end_time": 5.4409091,
                "pitch": 45,
                "velocity": 101,
                "duration": 0.1318182,
                "tempo": 120.0
            },
            {
                "start_time": 5.4409091,
                "end_time": 5.5045455,
                "pitch": 33,
                "velocity": 101,
                "duration": 0.0636364,
                "tempo": 120.0
            },
            {
                "start_time": 5.5068182,
                "end_time": 5.5704545,
                "pitch": 33,
                "velocity": 101,
                "duration": 0.0636364,
                "tempo": 120.0
            },
            {
                "start_time": 5.5727273,
                "end_time": 5.7181818,
                "pitch": 45,
                "velocity": 101,
                "duration": 0.1454545,
                "tempo": 120.0
            },
            {
                "start_time": 5.7181818,
                "end_time": 5.9795455,
                "pitch": 33,
                "velocity": 101,
                "duration": 0.2613636,
                "tempo": 120.0
            },
            {
                "start_time": 5.9818182,
                "end_time": 6.2454545,
                "pitch": 33,
                "velocity": 101,
                "duration": 0.2636364,
                "tempo": 120.0
            },
            {
                "start_time": 6.2477273,
                "end_time": 6.5295455,
                "pitch": 33,
                "velocity": 101,
                "duration": 0.2818182,
                "tempo": 120.0
            },
            {
                "start_time": 6.5295455,
                "end_time": 6.5954545,
                "pitch": 33,
                "velocity": 101,
                "duration": 0.0659091,
                "tempo": 120.0
            },
            {
                "start_time": 6.5954545,
                "end_time": 6.6613636,
                "pitch": 33,
                "velocity": 101,
                "duration": 0.0659091,
                "tempo": 120.0
            },
            {
                "start_time": 6.6613636,
                "end_time": 6.7909091,
                "pitch": 45,
                "velocity": 101,
                "duration": 0.1295455,
                "tempo": 120.0
            },
            {
                "start_time": 6.7909091,
                "end_time": 6.9227273,
                "pitch": 33,
                "velocity": 101,
                "duration": 0.1318182,
                "tempo": 120.0
            },
            {
                "start_time": 6.9227273,
                "end_time": 7.0522727,
                "pitch": 45,
                "velocity": 101,
                "duration": 0.1295455,
                "tempo": 120.0
            },
            {
                "start_time": 7.0545455,
                "end_time": 7.2,
                "pitch": 33,
                "velocity": 101,
                "duration": 0.1454545,
                "tempo": 120.0
            },
            {
                "start_time": 7.2,
                "end_time": 7.3295455,
                "pitch": 45,
                "velocity": 101,
                "duration": 0.1295455,
                "tempo": 120.0
            },
            {
                "start_time": 7.3318182,
                "end_time": 7.4613636,
                "pitch": 33,
                "velocity": 101,
                "duration": 0.1295455,
                "tempo": 120.0
            },
            {
                "start_time": 7.4613636,
                "end_time": 7.5931818,
                "pitch": 45,
                "velocity": 101,
                "duration": 0.1318182,
                "tempo": 120.0
            },
            {
                "start_time": 7.5931818,
                "end_time": 7.6590909,
                "pitch": 33,
                "velocity": 101,
                "duration": 0.0659091,
                "tempo": 120.0
            },
            {
                "start_time": 7.6590909,
                "end_time": 7.725,
                "pitch": 33,
                "velocity": 101,
                "duration": 0.0659091,
                "tempo": 120.0
            },
            {
                "start_time": 7.725,
                "end_time": 7.8568182,
                "pitch": 45,
                "velocity": 101,
                "duration": 0.1318182,
                "tempo": 120.0
            },
            {
                "start_time": 7.8590909,
                "end_time": 8.1409091,
                "pitch": 33,
                "velocity": 101,
                "duration": 0.2818182,
                "tempo": 120.0
            },
            {
                "start_time": 8.1431818,
                "end_time": 8.4068182,
                "pitch": 33,
                "velocity": 101,
                "duration": 0.2636364,
                "tempo": 120.0
            },
            {
                "start_time": 8.4090909,
                "end_time": 8.6909091,
                "pitch": 33,
                "velocity": 101,
                "duration": 0.2818182,
                "tempo": 120.0
            },
            {
                "start_time": 8.6909091,
                "end_time": 8.7568182,
                "pitch": 33,
                "velocity": 101,
                "duration": 0.0659091,
                "tempo": 120.0
            },
            {
                "start_time": 8.7568182,
                "end_time": 8.8227273,
                "pitch": 33,
                "velocity": 101,
                "duration": 0.0659091,
                "tempo": 120.0
            },
            {
                "start_time": 8.8227273,
                "end_time": 8.9522727,
                "pitch": 45,
                "velocity": 101,
                "duration": 0.1295455,
                "tempo": 120.0
            },
            {
                "start_time": 8.9522727,
                "end_time": 9.0840909,
                "pitch": 33,
                "velocity": 101,
                "duration": 0.1318182,
                "tempo": 120.0
            },
            {
                "start_time": 9.0840909,
                "end_time": 9.2136364,
                "pitch": 45,
                "velocity": 101,
                "duration": 0.1295455,
                "tempo": 120.0
            },
            {
                "start_time": 9.2159091,
                "end_time": 9.3431818,
                "pitch": 33,
                "velocity": 101,
                "duration": 0.1272727,
                "tempo": 120.0
            },
            {
                "start_time": 9.3454545,
                "end_time": 9.4909091,
                "pitch": 45,
                "velocity": 101,
                "duration": 0.1454545,
                "tempo": 120.0
            },
            {
                "start_time": 9.4931818,
                "end_time": 9.6227273,
                "pitch": 33,
                "velocity": 101,
                "duration": 0.1295455,
                "tempo": 120.0
            },
            {
                "start_time": 9.6227273,
                "end_time": 9.7545455,
                "pitch": 45,
                "velocity": 101,
                "duration": 0.1318182,
                "tempo": 120.0
            },
            {
                "start_time": 9.7545455,
                "end_time": 9.8181818,
                "pitch": 33,
                "velocity": 101,
                "duration": 0.0636364,
                "tempo": 120.0
            },
            {
                "start_time": 9.8181818,
                "end_time": 9.8840909,
                "pitch": 33,
                "velocity": 101,
                "duration": 0.0659091,
                "tempo": 120.0
            },
            {
                "start_time": 9.8840909,
                "end_time": 10.0159091,
                "pitch": 45,
                "velocity": 101,
                "duration": 0.1318182,
                "tempo": 120.0
            },
            {
                "start_time": 10.0159091,
                "end_time": 10.2931818,
                "pitch": 33,
                "velocity": 101,
                "duration": 0.2772727,
                "tempo": 120.0
            },
            {
                "start_time": 10.2931818,
                "end_time": 10.5590909,
                "pitch": 33,
                "velocity": 101,
                "duration": 0.2659091,
                "tempo": 120.0
            },
            {
                "start_time": 10.5590909,
                "end_time": 10.825,
                "pitch": 33,
                "velocity": 101,
                "duration": 0.2659091,
                "tempo": 120.0
            },
            {
                "start_time": 10.825,
                "end_time": 10.9045455,
                "pitch": 33,
                "velocity": 101,
                "duration": 0.0795455,
                "tempo": 120.0
            },
            {
                "start_time": 10.9068182,
                "end_time": 10.9704545,
                "pitch": 33,
                "velocity": 101,
                "duration": 0.0636364,
                "tempo": 120.0
            },
            {
                "start_time": 10.9704545,
                "end_time": 11.0977273,
                "pitch": 45,
                "velocity": 101,
                "duration": 0.1272727,
                "tempo": 120.0
            },
            {
                "start_time": 11.1,
                "end_time": 11.2272727,
                "pitch": 33,
                "velocity": 101,
                "duration": 0.1272727,
                "tempo": 120.0
            },
            {
                "start_time": 11.2272727,
                "end_time": 11.3545455,
                "pitch": 45,
                "velocity": 101,
                "duration": 0.1272727,
                "tempo": 120.0
            },
            {
                "start_time": 11.3568182,
                "end_time": 11.4909091,
                "pitch": 33,
                "velocity": 101,
                "duration": 0.1340909,
                "tempo": 120.0
            },
            {
                "start_time": 11.4909091,
                "end_time": 11.6431818,
                "pitch": 45,
                "velocity": 101,
                "duration": 0.1522727,
                "tempo": 120.0
            },
            {
                "start_time": 11.6454545,
                "end_time": 11.7795455,
                "pitch": 33,
                "velocity": 101,
                "duration": 0.1340909,
                "tempo": 120.0
            },
            {
                "start_time": 11.7795455,
                "end_time": 11.9159091,
                "pitch": 45,
                "velocity": 101,
                "duration": 0.1363636,
                "tempo": 120.0
            },
            {
                "start_time": 11.9159091,
                "end_time": 11.9795455,
                "pitch": 33,
                "velocity": 101,
                "duration": 0.0636364,
                "tempo": 120.0
            },
            {
                "start_time": 11.9818182,
                "end_time": 12.0454545,
                "pitch": 33,
                "velocity": 101,
                "duration": 0.0636364,
                "tempo": 120.0
            },
            {
                "start_time": 12.0454545,
                "end_time": 12.1772727,
                "pitch": 45,
                "velocity": 101,
                "duration": 0.1318182,
                "tempo": 120.0
            },
            {
                "start_time": 12.1772727,
                "end_time": 12.4545455,
                "pitch": 33,
                "velocity": 101,
                "duration": 0.2772727,
                "tempo": 120.0
            },
            {
                "start_time": 12.4545455,
                "end_time": 12.7204545,
                "pitch": 33,
                "velocity": 101,
                "duration": 0.2659091,
                "tempo": 120.0
            },
            {
                "start_time": 12.7204545,
                "end_time": 12.9863636,
                "pitch": 33,
                "velocity": 101,
                "duration": 0.2659091,
                "tempo": 120.0
            },
            {
                "start_time": 12.9886364,
                "end_time": 13.2590909,
                "pitch": 34,
                "velocity": 101,
                "duration": 0.2704545,
                "tempo": 120.0
            },
            {
                "start_time": 13.2613636,
                "end_time": 13.5159091,
                "pitch": 34,
                "velocity": 101,
                "duration": 0.2545455,
                "tempo": 120.0
            },
            {
                "start_time": 13.5181818,
                "end_time": 13.7840909,
                "pitch": 34,
                "velocity": 101,
                "duration": 0.2659091,
                "tempo": 120.0
            },
            {
                "start_time": 13.7840909,
                "end_time": 14.0659091,
                "pitch": 34,
                "velocity": 101,
                "duration": 0.2818182,
                "tempo": 120.0
            },
            {
                "start_time": 14.0681818,
                "end_time": 14.3318182,
                "pitch": 34,
                "velocity": 101,
                "duration": 0.2636364,
                "tempo": 120.0
            },
            {
                "start_time": 14.3340909,
                "end_time": 14.6159091,
                "pitch": 34,
                "velocity": 101,
                "duration": 0.2818182,
                "tempo": 120.0
            },
            {
                "start_time": 14.6159091,
                "end_time": 14.8818182,
                "pitch": 34,
                "velocity": 101,
                "duration": 0.2659091,
                "tempo": 120.0
            },
            {
                "start_time": 14.8818182,
                "end_time": 15.1477273,
                "pitch": 34,
                "velocity": 101,
                "duration": 0.2659091,
                "tempo": 120.0
            },
            {
                "start_time": 15.15,
                "end_time": 15.2772727,
                "pitch": 34,
                "velocity": 101,
                "duration": 0.1272727,
                "tempo": 120.0
            },
            {
                "start_time": 15.2772727,
                "end_time": 15.4204545,
                "pitch": 41,
                "velocity": 101,
                "duration": 0.1431818,
                "tempo": 120.0
            },
            {
                "start_time": 15.4227273,
                "end_time": 15.55,
                "pitch": 46,
                "velocity": 101,
                "duration": 0.1272727,
                "tempo": 120.0
            },
            {
                "start_time": 15.55,
                "end_time": 15.6772727,
                "pitch": 41,
                "velocity": 101,
                "duration": 0.1272727,
                "tempo": 120.0
            },
            {
                "start_time": 15.6795455,
                "end_time": 15.8113636,
                "pitch": 47,
                "velocity": 101,
                "duration": 0.1318182,
                "tempo": 120.0
            },
            {
                "start_time": 15.8113636,
                "end_time": 15.9454545,
                "pitch": 42,
                "velocity": 101,
                "duration": 0.1340909,
                "tempo": 120.0
            },
            {
                "start_time": 15.9454545,
                "end_time": 16.0931818,
                "pitch": 48,
                "velocity": 101,
                "duration": 0.1477273,
                "tempo": 120.0
            },
            {
                "start_time": 16.0954545,
                "end_time": 16.2272727,
                "pitch": 43,
                "velocity": 101,
                "duration": 0.1318182,
                "tempo": 120.0
            },
            {
                "start_time": 16.2295455,
                "end_time": 16.4931818,
                "pitch": 49,
                "velocity": 101,
                "duration": 0.2636364,
                "tempo": 120.0
            },
            {
                "start_time": 16.4954545,
                "end_time": 16.6272727,
                "pitch": 37,
                "velocity": 101,
                "duration": 0.1318182,
                "tempo": 120.0
            },
            {
                "start_time": 16.6272727,
                "end_time": 16.9068182,
                "pitch": 49,
                "velocity": 101,
                "duration": 0.2795455,
                "tempo": 120.0
            },
            {
                "start_time": 16.9090909,
                "end_time": 17.0386364,
                "pitch": 49,
                "velocity": 101,
                "duration": 0.1295455,
                "tempo": 120.0
            },
            {
                "start_time": 17.0386364,
                "end_time": 17.1681818,
                "pitch": 44,
                "velocity": 101,
                "duration": 0.1295455,
                "tempo": 120.0
            },
            {
                "start_time": 17.1704545,
                "end_time": 17.3,
                "pitch": 46,
                "velocity": 101,
                "duration": 0.1295455,
                "tempo": 120.0
            },
            {
                "start_time": 17.3022727,
                "end_time": 17.5772727,
                "pitch": 34,
                "velocity": 101,
                "duration": 0.275,
                "tempo": 120.0
            },
            {
                "start_time": 17.5795455,
                "end_time": 17.8386364,
                "pitch": 34,
                "velocity": 101,
                "duration": 0.2590909,
                "tempo": 120.0
            },
            {
                "start_time": 17.8409091,
                "end_time": 18.1068182,
                "pitch": 34,
                "velocity": 101,
                "duration": 0.2659091,
                "tempo": 120.0
            },
            {
                "start_time": 18.1068182,
                "end_time": 18.3886364,
                "pitch": 34,
                "velocity": 101,
                "duration": 0.2818182,
                "tempo": 120.0
            },
            {
                "start_time": 18.3909091,
                "end_time": 18.6545455,
                "pitch": 34,
                "velocity": 101,
                "duration": 0.2636364,
                "tempo": 120.0
            },
            {
                "start_time": 18.6568182,
                "end_time": 18.9227273,
                "pitch": 34,
                "velocity": 101,
                "duration": 0.2659091,
                "tempo": 120.0
            },
            {
                "start_time": 18.9227273,
                "end_time": 19.1954545,
                "pitch": 34,
                "velocity": 101,
                "duration": 0.2727273,
                "tempo": 120.0
            },
            {
                "start_time": 19.1954545,
                "end_time": 19.4522727,
                "pitch": 34,
                "velocity": 101,
                "duration": 0.2568182,
                "tempo": 120.0
            },
            {
                "start_time": 19.4522727,
                "end_time": 19.5840909,
                "pitch": 34,
                "velocity": 101,
                "duration": 0.1318182,
                "tempo": 120.0
            },
            {
                "start_time": 19.5863636,
                "end_time": 19.7181818,
                "pitch": 41,
                "velocity": 101,
                "duration": 0.1318182,
                "tempo": 120.0
            },
            {
                "start_time": 19.7181818,
                "end_time": 19.8681818,
                "pitch": 46,
                "velocity": 101,
                "duration": 0.15,
                "tempo": 120.0
            },
            {
                "start_time": 19.8681818,
                "end_time": 20.0,
                "pitch": 41,
                "velocity": 101,
                "duration": 0.1318182,
                "tempo": 120.0
            },
            {
                "start_time": 20.0022727,
                "end_time": 20.1340909,
                "pitch": 47,
                "velocity": 101,
                "duration": 0.1318182,
                "tempo": 120.0
            },
            {
                "start_time": 20.1363636,
                "end_time": 20.2681818,
                "pitch": 42,
                "velocity": 101,
                "duration": 0.1318182,
                "tempo": 120.0
            },
            {
                "start_time": 20.2681818,
                "end_time": 20.4,
                "pitch": 48,
                "velocity": 101,
                "duration": 0.1318182,
                "tempo": 120.0
            },
            {
                "start_time": 20.4022727,
                "end_time": 20.55,
                "pitch": 43,
                "velocity": 101,
                "duration": 0.1477273,
                "tempo": 120.0
            },
            {
                "start_time": 20.5522727,
                "end_time": 20.8159091,
                "pitch": 49,
                "velocity": 101,
                "duration": 0.2636364,
                "tempo": 120.0
            },
            {
                "start_time": 20.8181818,
                "end_time": 20.95,
                "pitch": 37,
                "velocity": 101,
                "duration": 0.1318182,
                "tempo": 120.0
            },
            {
                "start_time": 20.95,
                "end_time": 21.2113636,
                "pitch": 49,
                "velocity": 101,
                "duration": 0.2613636,
                "tempo": 120.0
            },
            {
                "start_time": 21.2113636,
                "end_time": 21.3568182,
                "pitch": 49,
                "velocity": 101,
                "duration": 0.1454545,
                "tempo": 120.0
            },
            {
                "start_time": 21.3568182,
                "end_time": 21.4840909,
                "pitch": 48,
                "velocity": 101,
                "duration": 0.1272727,
                "tempo": 120.0
            },
            {
                "start_time": 21.4863636,
                "end_time": 21.6136364,
                "pitch": 44,
                "velocity": 101,
                "duration": 0.1272727,
                "tempo": 120.0
            },
            {
                "start_time": 21.6159091,
                "end_time": 21.6795455,
                "pitch": 33,
                "velocity": 101,
                "duration": 0.0636364,
                "tempo": 120.0
            },
            {
                "start_time": 21.6795455,
                "end_time": 21.7454545,
                "pitch": 33,
                "velocity": 101,
                "duration": 0.0659091,
                "tempo": 120.0
            },
            {
                "start_time": 21.7477273,
                "end_time": 21.8795455,
                "pitch": 45,
                "velocity": 101,
                "duration": 0.1318182,
                "tempo": 120.0
            },
            {
                "start_time": 21.8795455,
                "end_time": 22.0136364,
                "pitch": 33,
                "velocity": 101,
                "duration": 0.1340909,
                "tempo": 120.0
            },
            {
                "start_time": 22.0136364,
                "end_time": 22.1636364,
                "pitch": 45,
                "velocity": 101,
                "duration": 0.15,
                "tempo": 120.0
            },
            {
                "start_time": 22.1636364,
                "end_time": 22.2954545,
                "pitch": 33,
                "velocity": 101,
                "duration": 0.1318182,
                "tempo": 120.0
            },
            {
                "start_time": 22.2977273,
                "end_time": 22.4295455,
                "pitch": 45,
                "velocity": 101,
                "duration": 0.1318182,
                "tempo": 120.0
            },
            {
                "start_time": 22.4295455,
                "end_time": 22.5613636,
                "pitch": 33,
                "velocity": 101,
                "duration": 0.1318182,
                "tempo": 120.0
            },
            {
                "start_time": 22.5636364,
                "end_time": 22.6954545,
                "pitch": 45,
                "velocity": 101,
                "duration": 0.1318182,
                "tempo": 120.0
            },
            {
                "start_time": 22.6977273,
                "end_time": 22.7590909,
                "pitch": 33,
                "velocity": 101,
                "duration": 0.0613636,
                "tempo": 120.0
            },
            {
                "start_time": 22.7613636,
                "end_time": 22.825,
                "pitch": 33,
                "velocity": 101,
                "duration": 0.0636364,
                "tempo": 120.0
            },
            {
                "start_time": 22.825,
                "end_time": 22.9681818,
                "pitch": 45,
                "velocity": 101,
                "duration": 0.1431818,
                "tempo": 120.0
            },
            {
                "start_time": 22.9704545,
                "end_time": 23.225,
                "pitch": 33,
                "velocity": 101,
                "duration": 0.2545455,
                "tempo": 120.0
            },
            {
                "start_time": 23.2272727,
                "end_time": 23.4909091,
                "pitch": 33,
                "velocity": 101,
                "duration": 0.2636364,
                "tempo": 120.0
            },
            {
                "start_time": 23.4931818,
                "end_time": 23.775,
                "pitch": 33,
                "velocity": 101,
                "duration": 0.2818182,
                "tempo": 120.0
            },
            {
                "start_time": 23.775,
                "end_time": 23.8409091,
                "pitch": 33,
                "velocity": 101,
                "duration": 0.0659091,
                "tempo": 120.0
            },
            {
                "start_time": 23.8431818,
                "end_time": 23.9090909,
                "pitch": 33,
                "velocity": 101,
                "duration": 0.0659091,
                "tempo": 120.0
            },
            {
                "start_time": 23.9090909,
                "end_time": 24.0409091,
                "pitch": 45,
                "velocity": 101,
                "duration": 0.1318182,
                "tempo": 120.0
            },
            {
                "start_time": 24.0431818,
                "end_time": 24.175,
                "pitch": 33,
                "velocity": 101,
                "duration": 0.1318182,
                "tempo": 120.0
            },
            {
                "start_time": 24.175,
                "end_time": 24.3068182,
                "pitch": 45,
                "velocity": 101,
                "duration": 0.1318182,
                "tempo": 120.0
            },
            {
                "start_time": 24.3090909,
                "end_time": 24.4522727,
                "pitch": 33,
                "velocity": 101,
                "duration": 0.1431818,
                "tempo": 120.0
            },
            {
                "start_time": 24.4522727,
                "end_time": 24.5818182,
                "pitch": 45,
                "velocity": 101,
                "duration": 0.1295455,
                "tempo": 120.0
            },
            {
                "start_time": 24.5818182,
                "end_time": 24.7090909,
                "pitch": 33,
                "velocity": 101,
                "duration": 0.1272727,
                "tempo": 120.0
            },
            {
                "start_time": 24.7090909,
                "end_time": 24.8386364,
                "pitch": 45,
                "velocity": 101,
                "duration": 0.1295455,
                "tempo": 120.0
            },
            {
                "start_time": 24.8386364,
                "end_time": 24.9045455,
                "pitch": 33,
                "velocity": 101,
                "duration": 0.0659091,
                "tempo": 120.0
            },
            {
                "start_time": 24.9045455,
                "end_time": 24.9704545,
                "pitch": 33,
                "velocity": 101,
                "duration": 0.0659091,
                "tempo": 120.0
            },
            {
                "start_time": 24.9727273,
                "end_time": 25.1045455,
                "pitch": 45,
                "velocity": 101,
                "duration": 0.1318182,
                "tempo": 120.0
            },
            {
                "start_time": 25.1045455,
                "end_time": 25.3863636,
                "pitch": 33,
                "velocity": 101,
                "duration": 0.2818182,
                "tempo": 120.0
            },
            {
                "start_time": 25.3886364,
                "end_time": 25.6522727,
                "pitch": 33,
                "velocity": 101,
                "duration": 0.2636364,
                "tempo": 120.0
            },
            {
                "start_time": 25.6545455,
                "end_time": 25.9363636,
                "pitch": 33,
                "velocity": 101,
                "duration": 0.2818182,
                "tempo": 120.0
            },
            {
                "start_time": 25.9363636,
                "end_time": 26.0022727,
                "pitch": 33,
                "velocity": 101,
                "duration": 0.0659091,
                "tempo": 120.0
            },
            {
                "start_time": 26.0022727,
                "end_time": 26.0681818,
                "pitch": 33,
                "velocity": 101,
                "duration": 0.0659091,
                "tempo": 120.0
            },
            {
                "start_time": 26.0681818,
                "end_time": 26.1977273,
                "pitch": 45,
                "velocity": 101,
                "duration": 0.1295455,
                "tempo": 120.0
            },
            {
                "start_time": 26.2,
                "end_time": 26.3295455,
                "pitch": 33,
                "velocity": 101,
                "duration": 0.1295455,
                "tempo": 120.0
            },
            {
                "start_time": 26.3295455,
                "end_time": 26.4590909,
                "pitch": 45,
                "velocity": 101,
                "duration": 0.1295455,
                "tempo": 120.0
            },
            {
                "start_time": 26.4613636,
                "end_time": 26.5909091,
                "pitch": 33,
                "velocity": 101,
                "duration": 0.1295455,
                "tempo": 120.0
            },
            {
                "start_time": 26.5909091,
                "end_time": 26.7386364,
                "pitch": 45,
                "velocity": 101,
                "duration": 0.1477273,
                "tempo": 120.0
            },
            {
                "start_time": 26.7386364,
                "end_time": 26.8681818,
                "pitch": 33,
                "velocity": 101,
                "duration": 0.1295455,
                "tempo": 120.0
            },
            {
                "start_time": 26.8681818,
                "end_time": 27.0,
                "pitch": 45,
                "velocity": 101,
                "duration": 0.1318182,
                "tempo": 120.0
            },
            {
                "start_time": 27.0,
                "end_time": 27.0659091,
                "pitch": 33,
                "velocity": 101,
                "duration": 0.0659091,
                "tempo": 120.0
            },
            {
                "start_time": 27.0659091,
                "end_time": 27.1318182,
                "pitch": 33,
                "velocity": 101,
                "duration": 0.0659091,
                "tempo": 120.0
            },
            {
                "start_time": 27.1318182,
                "end_time": 27.2659091,
                "pitch": 45,
                "velocity": 101,
                "duration": 0.1340909,
                "tempo": 120.0
            },
            {
                "start_time": 27.2659091,
                "end_time": 27.5477273,
                "pitch": 33,
                "velocity": 101,
                "duration": 0.2818182,
                "tempo": 120.0
            },
            {
                "start_time": 27.55,
                "end_time": 27.8136364,
                "pitch": 33,
                "velocity": 101,
                "duration": 0.2636364,
                "tempo": 120.0
            },
            {
                "start_time": 27.8159091,
                "end_time": 28.0818182,
                "pitch": 33,
                "velocity": 101,
                "duration": 0.2659091,
                "tempo": 120.0
            },
            {
                "start_time": 28.0818182,
                "end_time": 28.1613636,
                "pitch": 33,
                "velocity": 101,
                "duration": 0.0795455,
                "tempo": 120.0
            },
            {
                "start_time": 28.1613636,
                "end_time": 28.225,
                "pitch": 33,
                "velocity": 101,
                "duration": 0.0636364,
                "tempo": 120.0
            },
            {
                "start_time": 28.2272727,
                "end_time": 28.3545455,
                "pitch": 45,
                "velocity": 101,
                "duration": 0.1272727,
                "tempo": 120.0
            },
            {
                "start_time": 28.3545455,
                "end_time": 28.4818182,
                "pitch": 33,
                "velocity": 101,
                "duration": 0.1272727,
                "tempo": 120.0
            },
            {
                "start_time": 28.4840909,
                "end_time": 28.6113636,
                "pitch": 45,
                "velocity": 101,
                "duration": 0.1272727,
                "tempo": 120.0
            },
            {
                "start_time": 28.6113636,
                "end_time": 28.7454545,
                "pitch": 33,
                "velocity": 101,
                "duration": 0.1340909,
                "tempo": 120.0
            },
            {
                "start_time": 28.7454545,
                "end_time": 28.8931818,
                "pitch": 45,
                "velocity": 101,
                "duration": 0.1477273,
                "tempo": 120.0
            },
            {
                "start_time": 28.8954545,
                "end_time": 29.0272727,
                "pitch": 33,
                "velocity": 101,
                "duration": 0.1318182,
                "tempo": 120.0
            },
            {
                "start_time": 29.0272727,
                "end_time": 29.1613636,
                "pitch": 45,
                "velocity": 101,
                "duration": 0.1340909,
                "tempo": 120.0
            },
            {
                "start_time": 29.1613636,
                "end_time": 29.2272727,
                "pitch": 33,
                "velocity": 101,
                "duration": 0.0659091,
                "tempo": 120.0
            },
            {
                "start_time": 29.2272727,
                "end_time": 29.2931818,
                "pitch": 33,
                "velocity": 101,
                "duration": 0.0659091,
                "tempo": 120.0
            },
            {
                "start_time": 29.2954545,
                "end_time": 29.4272727,
                "pitch": 45,
                "velocity": 101,
                "duration": 0.1318182,
                "tempo": 120.0
            },
            {
                "start_time": 29.4272727,
                "end_time": 29.7090909,
                "pitch": 33,
                "velocity": 101,
                "duration": 0.2818182,
                "tempo": 120.0
            },
            {
                "start_time": 29.7113636,
                "end_time": 29.975,
                "pitch": 33,
                "velocity": 101,
                "duration": 0.2636364,
                "tempo": 120.0
            },
            {
                "start_time": 29.9772727,
                "end_time": 30.2431818,
                "pitch": 33,
                "velocity": 101,
                "duration": 0.2659091,
                "tempo": 120.0
            },
            {
                "start_time": 30.2431818,
                "end_time": 30.5159091,
                "pitch": 34,
                "velocity": 101,
                "duration": 0.2727273,
                "tempo": 120.0
            },
            {
                "start_time": 30.5159091,
                "end_time": 30.7727273,
                "pitch": 34,
                "velocity": 101,
                "duration": 0.2568182,
                "tempo": 120.0
            },
            {
                "start_time": 30.7727273,
                "end_time": 31.0386364,
                "pitch": 34,
                "velocity": 101,
                "duration": 0.2659091,
                "tempo": 120.0
            },
            {
                "start_time": 31.0409091,
                "end_time": 31.3227273,
                "pitch": 34,
                "velocity": 101,
                "duration": 0.2818182,
                "tempo": 120.0
            },
            {
                "start_time": 31.3227273,
                "end_time": 31.5840909,
                "pitch": 34,
                "velocity": 101,
                "duration": 0.2613636,
                "tempo": 120.0
            },
            {
                "start_time": 31.5840909,
                "end_time": 31.8613636,
                "pitch": 34,
                "velocity": 101,
                "duration": 0.2772727,
                "tempo": 120.0
            },
            {
                "start_time": 31.8636364,
                "end_time": 32.1272727,
                "pitch": 34,
                "velocity": 101,
                "duration": 0.2636364,
                "tempo": 120.0
            },
            {
                "start_time": 32.1295455,
                "end_time": 32.3931818,
                "pitch": 34,
                "velocity": 101,
                "duration": 0.2636364,
                "tempo": 120.0
            },
            {
                "start_time": 32.3954545,
                "end_time": 32.5227273,
                "pitch": 34,
                "velocity": 101,
                "duration": 0.1272727,
                "tempo": 120.0
            },
            {
                "start_time": 32.5227273,
                "end_time": 32.6659091,
                "pitch": 41,
                "velocity": 101,
                "duration": 0.1431818,
                "tempo": 120.0
            },
            {
                "start_time": 32.6681818,
                "end_time": 32.7954545,
                "pitch": 46,
                "velocity": 101,
                "duration": 0.1272727,
                "tempo": 120.0
            },
            {
                "start_time": 32.7954545,
                "end_time": 32.9227273,
                "pitch": 41,
                "velocity": 101,
                "duration": 0.1272727,
                "tempo": 120.0
            },
            {
                "start_time": 32.925,
                "end_time": 33.0568182,
                "pitch": 47,
                "velocity": 101,
                "duration": 0.1318182,
                "tempo": 120.0
            },
            {
                "start_time": 33.0590909,
                "end_time": 33.1909091,
                "pitch": 42,
                "velocity": 101,
                "duration": 0.1318182,
                "tempo": 120.0
            },
            {
                "start_time": 33.1909091,
                "end_time": 33.3409091,
                "pitch": 48,
                "velocity": 101,
                "duration": 0.15,
                "tempo": 120.0
            },
            {
                "start_time": 33.3409091,
                "end_time": 33.4727273,
                "pitch": 43,
                "velocity": 101,
                "duration": 0.1318182,
                "tempo": 120.0
            },
            {
                "start_time": 33.475,
                "end_time": 33.7386364,
                "pitch": 49,
                "velocity": 101,
                "duration": 0.2636364,
                "tempo": 120.0
            },
            {
                "start_time": 33.7409091,
                "end_time": 33.8727273,
                "pitch": 37,
                "velocity": 101,
                "duration": 0.1318182,
                "tempo": 120.0
            },
            {
                "start_time": 33.8727273,
                "end_time": 34.1522727,
                "pitch": 49,
                "velocity": 101,
                "duration": 0.2795455,
                "tempo": 120.0
            },
            {
                "start_time": 34.1545455,
                "end_time": 34.2840909,
                "pitch": 49,
                "velocity": 101,
                "duration": 0.1295455,
                "tempo": 120.0
            },
            {
                "start_time": 34.2840909,
                "end_time": 34.4136364,
                "pitch": 44,
                "velocity": 101,
                "duration": 0.1295455,
                "tempo": 120.0
            },
            {
                "start_time": 34.4159091,
                "end_time": 34.5454545,
                "pitch": 46,
                "velocity": 101,
                "duration": 0.1295455,
                "tempo": 120.0
            },
            {
                "start_time": 34.5477273,
                "end_time": 34.8227273,
                "pitch": 34,
                "velocity": 101,
                "duration": 0.275,
                "tempo": 120.0
            },
            {
                "start_time": 34.825,
                "end_time": 35.0840909,
                "pitch": 34,
                "velocity": 101,
                "duration": 0.2590909,
                "tempo": 120.0
            },
            {
                "start_time": 35.0863636,
                "end_time": 35.3522727,
                "pitch": 34,
                "velocity": 101,
                "duration": 0.2659091,
                "tempo": 120.0
            },
            {
                "start_time": 35.3522727,
                "end_time": 35.6340909,
                "pitch": 34,
                "velocity": 101,
                "duration": 0.2818182,
                "tempo": 120.0
            },
            {
                "start_time": 35.6363636,
                "end_time": 35.9,
                "pitch": 34,
                "velocity": 101,
                "duration": 0.2636364,
                "tempo": 120.0
            },
            {
                "start_time": 35.9022727,
                "end_time": 36.1681818,
                "pitch": 34,
                "velocity": 101,
                "duration": 0.2659091,
                "tempo": 120.0
            },
            {
                "start_time": 36.1681818,
                "end_time": 36.4409091,
                "pitch": 34,
                "velocity": 101,
                "duration": 0.2727273,
                "tempo": 120.0
            },
            {
                "start_time": 36.4409091,
                "end_time": 36.6977273,
                "pitch": 34,
                "velocity": 101,
                "duration": 0.2568182,
                "tempo": 120.0
            },
            {
                "start_time": 36.6977273,
                "end_time": 36.8295455,
                "pitch": 34,
                "velocity": 101,
                "duration": 0.1318182,
                "tempo": 120.0
            },
            {
                "start_time": 36.8318182,
                "end_time": 36.9636364,
                "pitch": 41,
                "velocity": 101,
                "duration": 0.1318182,
                "tempo": 120.0
            },
            {
                "start_time": 36.9636364,
                "end_time": 37.1136364,
                "pitch": 46,
                "velocity": 101,
                "duration": 0.15,
                "tempo": 120.0
            },
            {
                "start_time": 37.1136364,
                "end_time": 37.2454545,
                "pitch": 41,
                "velocity": 101,
                "duration": 0.1318182,
                "tempo": 120.0
            },
            {
                "start_time": 37.2477273,
                "end_time": 37.3795455,
                "pitch": 47,
                "velocity": 101,
                "duration": 0.1318182,
                "tempo": 120.0
            },
            {
                "start_time": 37.3818182,
                "end_time": 37.5136364,
                "pitch": 42,
                "velocity": 101,
                "duration": 0.1318182,
                "tempo": 120.0
            },
            {
                "start_time": 37.5136364,
                "end_time": 37.6454545,
                "pitch": 48,
                "velocity": 101,
                "duration": 0.1318182,
                "tempo": 120.0
            },
            {
                "start_time": 37.6477273,
                "end_time": 37.7954545,
                "pitch": 43,
                "velocity": 101,
                "duration": 0.1477273,
                "tempo": 120.0
            },
            {
                "start_time": 37.7977273,
                "end_time": 38.0613636,
                "pitch": 49,
                "velocity": 101,
                "duration": 0.2636364,
                "tempo": 120.0
            },
            {
                "start_time": 38.0636364,
                "end_time": 38.1954545,
                "pitch": 37,
                "velocity": 101,
                "duration": 0.1318182,
                "tempo": 120.0
            },
            {
                "start_time": 38.1954545,
                "end_time": 38.4568182,
                "pitch": 49,
                "velocity": 101,
                "duration": 0.2613636,
                "tempo": 120.0
            },
            {
                "start_time": 38.4568182,
                "end_time": 38.6022727,
                "pitch": 49,
                "velocity": 101,
                "duration": 0.1454545,
                "tempo": 120.0
            },
            {
                "start_time": 38.6022727,
                "end_time": 38.7295455,
                "pitch": 48,
                "velocity": 101,
                "duration": 0.1272727,
                "tempo": 120.0
            },
            {
                "start_time": 38.7318182,
                "end_time": 38.8590909,
                "pitch": 44,
                "velocity": 101,
                "duration": 0.1272727,
                "tempo": 120.0
            },
            {
                "start_time": 38.8613636,
                "end_time": 38.925,
                "pitch": 33,
                "velocity": 101,
                "duration": 0.0636364,
                "tempo": 120.0
            },
            {
                "start_time": 38.925,
                "end_time": 38.9909091,
                "pitch": 33,
                "velocity": 101,
                "duration": 0.0659091,
                "tempo": 120.0
            },
            {
                "start_time": 38.9931818,
                "end_time": 39.125,
                "pitch": 45,
                "velocity": 101,
                "duration": 0.1318182,
                "tempo": 120.0
            },
            {
                "start_time": 39.1272727,
                "end_time": 39.275,
                "pitch": 33,
                "velocity": 101,
                "duration": 0.1477273,
                "tempo": 120.0
            },
            {
                "start_time": 39.275,
                "end_time": 39.4090909,
                "pitch": 45,
                "velocity": 101,
                "duration": 0.1340909,
                "tempo": 120.0
            },
            {
                "start_time": 39.4090909,
                "end_time": 39.5409091,
                "pitch": 33,
                "velocity": 101,
                "duration": 0.1318182,
                "tempo": 120.0
            },
            {
                "start_time": 39.5431818,
                "end_time": 39.675,
                "pitch": 45,
                "velocity": 101,
                "duration": 0.1318182,
                "tempo": 120.0
            },
            {
                "start_time": 39.675,
                "end_time": 39.8068182,
                "pitch": 33,
                "velocity": 101,
                "duration": 0.1318182,
                "tempo": 120.0
            },
            {
                "start_time": 39.8090909,
                "end_time": 39.9409091,
                "pitch": 45,
                "velocity": 101,
                "duration": 0.1318182,
                "tempo": 120.0
            },
            {
                "start_time": 39.9431818,
                "end_time": 40.0227273,
                "pitch": 33,
                "velocity": 101,
                "duration": 0.0795455,
                "tempo": 120.0
            },
            {
                "start_time": 40.025,
                "end_time": 40.0909091,
                "pitch": 33,
                "velocity": 101,
                "duration": 0.0659091,
                "tempo": 120.0
            },
            {
                "start_time": 40.0909091,
                "end_time": 40.2568182,
                "pitch": 45,
                "velocity": 101,
                "duration": 0.1659091,
                "tempo": 120.0
            },
            {
                "start_time": 40.2568182,
                "end_time": 40.5863636,
                "pitch": 33,
                "velocity": 101,
                "duration": 0.3295455,
                "tempo": 120.0
            },
            {
                "start_time": 40.5863636,
                "end_time": 40.9363636,
                "pitch": 33,
                "velocity": 101,
                "duration": 0.35,
                "tempo": 120.0
            },
            {
                "start_time": 40.9363636,
                "end_time": 41.2636364,
                "pitch": 33,
                "velocity": 101,
                "duration": 0.3272727,
                "tempo": 120.0
            },
            {
                "start_time": 41.2636364,
                "end_time": 41.3431818,
                "pitch": 33,
                "velocity": 101,
                "duration": 0.0795455,
                "tempo": 120.0
            },
            {
                "start_time": 41.3454545,
                "end_time": 41.425,
                "pitch": 33,
                "velocity": 101,
                "duration": 0.0795455,
                "tempo": 120.0
            },
            {
                "start_time": 41.4272727,
                "end_time": 41.5886364,
                "pitch": 45,
                "velocity": 101,
                "duration": 0.1613636,
                "tempo": 120.0
            },
            {
                "start_time": 41.5909091,
                "end_time": 41.7227273,
                "pitch": 33,
                "velocity": 101,
                "duration": 0.1318182,
                "tempo": 120.0
            },
            {
                "start_time": 41.725,
                "end_time": 41.8727273,
                "pitch": 45,
                "velocity": 101,
                "duration": 0.1477273,
                "tempo": 120.0
            },
            {
                "start_time": 41.875,
                "end_time": 42.0068182,
                "pitch": 33,
                "velocity": 101,
                "duration": 0.1318182,
                "tempo": 120.0
            },
            {
                "start_time": 42.0068182,
                "end_time": 42.1386364,
                "pitch": 45,
                "velocity": 101,
                "duration": 0.1318182,
                "tempo": 120.0
            },
            {
                "start_time": 42.1409091,
                "end_time": 42.2727273,
                "pitch": 33,
                "velocity": 101,
                "duration": 0.1318182,
                "tempo": 120.0
            },
            {
                "start_time": 42.2727273,
                "end_time": 42.4068182,
                "pitch": 45,
                "velocity": 101,
                "duration": 0.1340909,
                "tempo": 120.0
            },
            {
                "start_time": 42.4068182,
                "end_time": 42.4727273,
                "pitch": 33,
                "velocity": 101,
                "duration": 0.0659091,
                "tempo": 120.0
            },
            {
                "start_time": 42.4727273,
                "end_time": 42.5545455,
                "pitch": 33,
                "velocity": 101,
                "duration": 0.0818182,
                "tempo": 120.0
            },
            {
                "start_time": 42.5568182,
                "end_time": 42.6886364,
                "pitch": 45,
                "velocity": 101,
                "duration": 0.1318182,
                "tempo": 120.0
            },
            {
                "start_time": 42.6909091,
                "end_time": 42.95,
                "pitch": 33,
                "velocity": 101,
                "duration": 0.2590909,
                "tempo": 120.0
            },
            {
                "start_time": 42.9522727,
                "end_time": 43.2113636,
                "pitch": 33,
                "velocity": 101,
                "duration": 0.2590909,
                "tempo": 120.0
            },
            {
                "start_time": 43.2136364,
                "end_time": 43.4909091,
                "pitch": 33,
                "velocity": 101,
                "duration": 0.2772727,
                "tempo": 120.0
            },
            {
                "start_time": 43.4909091,
                "end_time": 43.5545455,
                "pitch": 33,
                "velocity": 101,
                "duration": 0.0636364,
                "tempo": 120.0
            },
            {
                "start_time": 43.5568182,
                "end_time": 43.6204545,
                "pitch": 33,
                "velocity": 101,
                "duration": 0.0636364,
                "tempo": 120.0
            },
            {
                "start_time": 43.6227273,
                "end_time": 43.7522727,
                "pitch": 45,
                "velocity": 101,
                "duration": 0.1295455,
                "tempo": 120.0
            },
            {
                "start_time": 43.7522727,
                "end_time": 43.8818182,
                "pitch": 33,
                "velocity": 101,
                "duration": 0.1295455,
                "tempo": 120.0
            },
            {
                "start_time": 43.8840909,
                "end_time": 44.0295455,
                "pitch": 45,
                "velocity": 101,
                "duration": 0.1454545,
                "tempo": 120.0
            },
            {
                "start_time": 44.0295455,
                "end_time": 44.1613636,
                "pitch": 33,
                "velocity": 101,
                "duration": 0.1318182,
                "tempo": 120.0
            },
            {
                "start_time": 44.1613636,
                "end_time": 44.2909091,
                "pitch": 45,
                "velocity": 101,
                "duration": 0.1295455,
                "tempo": 120.0
            },
            {
                "start_time": 44.2931818,
                "end_time": 44.4272727,
                "pitch": 33,
                "velocity": 101,
                "duration": 0.1340909,
                "tempo": 120.0
            },
            {
                "start_time": 44.4272727,
                "end_time": 44.5613636,
                "pitch": 45,
                "velocity": 101,
                "duration": 0.1340909,
                "tempo": 120.0
            },
            {
                "start_time": 44.5636364,
                "end_time": 44.6295455,
                "pitch": 33,
                "velocity": 101,
                "duration": 0.0659091,
                "tempo": 120.0
            },
            {
                "start_time": 44.6295455,
                "end_time": 44.6977273,
                "pitch": 33,
                "velocity": 101,
                "duration": 0.0681818,
                "tempo": 120.0
            },
            {
                "start_time": 44.6977273,
                "end_time": 44.85,
                "pitch": 45,
                "velocity": 101,
                "duration": 0.1522727,
                "tempo": 120.0
            },
            {
                "start_time": 44.8522727,
                "end_time": 45.1113636,
                "pitch": 33,
                "velocity": 101,
                "duration": 0.2590909,
                "tempo": 120.0
            },
            {
                "start_time": 45.1136364,
                "end_time": 45.3727273,
                "pitch": 33,
                "velocity": 101,
                "duration": 0.2590909,
                "tempo": 120.0
            },
            {
                "start_time": 45.375,
                "end_time": 45.6522727,
                "pitch": 33,
                "velocity": 101,
                "duration": 0.2772727,
                "tempo": 120.0
            },
            {
                "start_time": 45.6522727,
                "end_time": 45.7159091,
                "pitch": 33,
                "velocity": 101,
                "duration": 0.0636364,
                "tempo": 120.0
            },
            {
                "start_time": 45.7181818,
                "end_time": 45.7818182,
                "pitch": 33,
                "velocity": 101,
                "duration": 0.0636364,
                "tempo": 120.0
            },
            {
                "start_time": 45.7840909,
                "end_time": 45.9136364,
                "pitch": 45,
                "velocity": 101,
                "duration": 0.1295455,
                "tempo": 120.0
            },
            {
                "start_time": 45.9136364,
                "end_time": 46.0431818,
                "pitch": 33,
                "velocity": 101,
                "duration": 0.1295455,
                "tempo": 120.0
            },
            {
                "start_time": 46.0454545,
                "end_time": 46.175,
                "pitch": 45,
                "velocity": 101,
                "duration": 0.1295455,
                "tempo": 120.0
            },
            {
                "start_time": 46.175,
                "end_time": 46.3227273,
                "pitch": 33,
                "velocity": 101,
                "duration": 0.1477273,
                "tempo": 120.0
            },
            {
                "start_time": 46.3227273,
                "end_time": 46.4522727,
                "pitch": 45,
                "velocity": 101,
                "duration": 0.1295455,
                "tempo": 120.0
            },
            {
                "start_time": 46.4545455,
                "end_time": 46.5886364,
                "pitch": 33,
                "velocity": 101,
                "duration": 0.1340909,
                "tempo": 120.0
            },
            {
                "start_time": 46.5886364,
                "end_time": 46.725,
                "pitch": 45,
                "velocity": 101,
                "duration": 0.1363636,
                "tempo": 120.0
            },
            {
                "start_time": 46.725,
                "end_time": 46.7909091,
                "pitch": 33,
                "velocity": 101,
                "duration": 0.0659091,
                "tempo": 120.0
            },
            {
                "start_time": 46.7931818,
                "end_time": 46.8590909,
                "pitch": 33,
                "velocity": 101,
                "duration": 0.0659091,
                "tempo": 120.0
            },
            {
                "start_time": 46.8613636,
                "end_time": 46.9954545,
                "pitch": 45,
                "velocity": 101,
                "duration": 0.1340909,
                "tempo": 120.0
            },
            {
                "start_time": 46.9954545,
                "end_time": 47.2681818,
                "pitch": 33,
                "velocity": 101,
                "duration": 0.2727273,
                "tempo": 120.0
            },
            {
                "start_time": 47.2704545,
                "end_time": 47.525,
                "pitch": 33,
                "velocity": 101,
                "duration": 0.2545455,
                "tempo": 120.0
            },
            {
                "start_time": 47.5272727,
                "end_time": 47.8045455,
                "pitch": 33,
                "velocity": 101,
                "duration": 0.2772727,
                "tempo": 120.0
            },
            {
                "start_time": 47.8045455,
                "end_time": 47.8681818,
                "pitch": 33,
                "velocity": 101,
                "duration": 0.0636364,
                "tempo": 120.0
            },
            {
                "start_time": 47.8681818,
                "end_time": 47.9340909,
                "pitch": 33,
                "velocity": 101,
                "duration": 0.0659091,
                "tempo": 120.0
            },
            {
                "start_time": 47.9340909,
                "end_time": 48.0636364,
                "pitch": 45,
                "velocity": 101,
                "duration": 0.1295455,
                "tempo": 120.0
            },
            {
                "start_time": 48.0659091,
                "end_time": 48.1977273,
                "pitch": 33,
                "velocity": 101,
                "duration": 0.1318182,
                "tempo": 120.0
            },
            {
                "start_time": 48.2,
                "end_time": 48.3318182,
                "pitch": 45,
                "velocity": 101,
                "duration": 0.1318182,
                "tempo": 120.0
            },
            {
                "start_time": 48.3318182,
                "end_time": 48.4636364,
                "pitch": 33,
                "velocity": 101,
                "duration": 0.1318182,
                "tempo": 120.0
            },
            {
                "start_time": 48.4659091,
                "end_time": 48.6136364,
                "pitch": 45,
                "velocity": 101,
                "duration": 0.1477273,
                "tempo": 120.0
            },
            {
                "start_time": 48.6159091,
                "end_time": 48.7477273,
                "pitch": 33,
                "velocity": 101,
                "duration": 0.1318182,
                "tempo": 120.0
            },
            {
                "start_time": 48.7477273,
                "end_time": 48.8795455,
                "pitch": 45,
                "velocity": 101,
                "duration": 0.1318182,
                "tempo": 120.0
            },
            {
                "start_time": 48.8818182,
                "end_time": 48.9477273,
                "pitch": 33,
                "velocity": 101,
                "duration": 0.0659091,
                "tempo": 120.0
            },
            {
                "start_time": 48.9477273,
                "end_time": 49.0136364,
                "pitch": 33,
                "velocity": 101,
                "duration": 0.0659091,
                "tempo": 120.0
            },
            {
                "start_time": 49.0136364,
                "end_time": 49.1454545,
                "pitch": 45,
                "velocity": 101,
                "duration": 0.1318182,
                "tempo": 120.0
            },
            {
                "start_time": 49.1477273,
                "end_time": 49.4204545,
                "pitch": 33,
                "velocity": 101,
                "duration": 0.2727273,
                "tempo": 120.0
            },
            {
                "start_time": 49.4204545,
                "end_time": 49.6772727,
                "pitch": 33,
                "velocity": 101,
                "duration": 0.2568182,
                "tempo": 120.0
            },
            {
                "start_time": 49.6772727,
                "end_time": 49.9431818,
                "pitch": 33,
                "velocity": 101,
                "duration": 0.2659091,
                "tempo": 120.0
            },
            {
                "start_time": 49.9431818,
                "end_time": 50.025,
                "pitch": 33,
                "velocity": 101,
                "duration": 0.0818182,
                "tempo": 120.0
            },
            {
                "start_time": 50.0272727,
                "end_time": 50.0931818,
                "pitch": 33,
                "velocity": 101,
                "duration": 0.0659091,
                "tempo": 120.0
            },
            {
                "start_time": 50.0931818,
                "end_time": 50.2272727,
                "pitch": 45,
                "velocity": 101,
                "duration": 0.1340909,
                "tempo": 120.0
            },
            {
                "start_time": 50.2272727,
                "end_time": 50.3590909,
                "pitch": 33,
                "velocity": 101,
                "duration": 0.1318182,
                "tempo": 120.0
            },
            {
                "start_time": 50.3613636,
                "end_time": 50.4931818,
                "pitch": 45,
                "velocity": 101,
                "duration": 0.1318182,
                "tempo": 120.0
            },
            {
                "start_time": 50.4931818,
                "end_time": 50.625,
                "pitch": 33,
                "velocity": 101,
                "duration": 0.1318182,
                "tempo": 120.0
            },
            {
                "start_time": 50.6272727,
                "end_time": 50.775,
                "pitch": 45,
                "velocity": 101,
                "duration": 0.1477273,
                "tempo": 120.0
            },
            {
                "start_time": 50.7772727,
                "end_time": 50.9090909,
                "pitch": 33,
                "velocity": 101,
                "duration": 0.1318182,
                "tempo": 120.0
            },
            {
                "start_time": 50.9090909,
                "end_time": 51.0409091,
                "pitch": 45,
                "velocity": 101,
                "duration": 0.1318182,
                "tempo": 120.0
            },
            {
                "start_time": 51.0431818,
                "end_time": 51.1090909,
                "pitch": 33,
                "velocity": 101,
                "duration": 0.0659091,
                "tempo": 120.0
            },
            {
                "start_time": 51.1090909,
                "end_time": 51.175,
                "pitch": 33,
                "velocity": 101,
                "duration": 0.0659091,
                "tempo": 120.0
            },
            {
                "start_time": 51.175,
                "end_time": 51.3068182,
                "pitch": 45,
                "velocity": 101,
                "duration": 0.1318182,
                "tempo": 120.0
            },
            {
                "start_time": 51.3090909,
                "end_time": 51.5818182,
                "pitch": 33,
                "velocity": 101,
                "duration": 0.2727273,
                "tempo": 120.0
            },
            {
                "start_time": 51.5818182,
                "end_time": 51.8386364,
                "pitch": 33,
                "velocity": 101,
                "duration": 0.2568182,
                "tempo": 120.0
            },
            {
                "start_time": 51.8386364,
                "end_time": 52.1045455,
                "pitch": 33,
                "velocity": 101,
                "duration": 0.2659091,
                "tempo": 120.0
            },
            {
                "start_time": 52.1045455,
                "end_time": 52.1704545,
                "pitch": 33,
                "velocity": 101,
                "duration": 0.0659091,
                "tempo": 120.0
            },
            {
                "start_time": 52.1727273,
                "end_time": 52.2545455,
                "pitch": 33,
                "velocity": 101,
                "duration": 0.0818182,
                "tempo": 120.0
            },
            {
                "start_time": 52.2545455,
                "end_time": 52.3863636,
                "pitch": 45,
                "velocity": 101,
                "duration": 0.1318182,
                "tempo": 120.0
            },
            {
                "start_time": 52.3886364,
                "end_time": 52.5204545,
                "pitch": 33,
                "velocity": 101,
                "duration": 0.1318182,
                "tempo": 120.0
            },
            {
                "start_time": 52.5227273,
                "end_time": 52.6545455,
                "pitch": 45,
                "velocity": 101,
                "duration": 0.1318182,
                "tempo": 120.0
            },
            {
                "start_time": 52.6545455,
                "end_time": 52.7863636,
                "pitch": 33,
                "velocity": 101,
                "duration": 0.1318182,
                "tempo": 120.0
            },
            {
                "start_time": 52.7863636,
                "end_time": 52.9204545,
                "pitch": 45,
                "velocity": 101,
                "duration": 0.1340909,
                "tempo": 120.0
            },
            {
                "start_time": 52.9204545,
                "end_time": 53.0681818,
                "pitch": 33,
                "velocity": 101,
                "duration": 0.1477273,
                "tempo": 120.0
            },
            {
                "start_time": 53.0681818,
                "end_time": 53.1977273,
                "pitch": 45,
                "velocity": 101,
                "duration": 0.1295455,
                "tempo": 120.0
            },
            {
                "start_time": 53.2,
                "end_time": 53.2636364,
                "pitch": 33,
                "velocity": 101,
                "duration": 0.0636364,
                "tempo": 120.0
            },
            {
                "start_time": 53.2636364,
                "end_time": 53.3295455,
                "pitch": 33,
                "velocity": 101,
                "duration": 0.0659091,
                "tempo": 120.0
            },
            {
                "start_time": 53.3295455,
                "end_time": 53.4590909,
                "pitch": 45,
                "velocity": 101,
                "duration": 0.1295455,
                "tempo": 120.0
            },
            {
                "start_time": 53.4613636,
                "end_time": 53.7363636,
                "pitch": 33,
                "velocity": 101,
                "duration": 0.275,
                "tempo": 120.0
            },
            {
                "start_time": 53.7386364,
                "end_time": 54.0,
                "pitch": 33,
                "velocity": 101,
                "duration": 0.2613636,
                "tempo": 120.0
            },
            {
                "start_time": 54.0,
                "end_time": 54.2659091,
                "pitch": 33,
                "velocity": 101,
                "duration": 0.2659091,
                "tempo": 120.0
            },
            {
                "start_time": 54.2659091,
                "end_time": 54.3977273,
                "pitch": 33,
                "velocity": 101,
                "duration": 0.1318182,
                "tempo": 120.0
            },
            {
                "start_time": 54.4,
                "end_time": 54.5477273,
                "pitch": 40,
                "velocity": 101,
                "duration": 0.1477273,
                "tempo": 120.0
            },
            {
                "start_time": 54.55,
                "end_time": 54.6818182,
                "pitch": 45,
                "velocity": 101,
                "duration": 0.1318182,
                "tempo": 120.0
            },
            {
                "start_time": 54.6818182,
                "end_time": 54.8136364,
                "pitch": 40,
                "velocity": 101,
                "duration": 0.1318182,
                "tempo": 120.0
            },
            {
                "start_time": 54.8159091,
                "end_time": 54.9477273,
                "pitch": 46,
                "velocity": 101,
                "duration": 0.1318182,
                "tempo": 120.0
            },
            {
                "start_time": 54.9477273,
                "end_time": 55.0818182,
                "pitch": 41,
                "velocity": 101,
                "duration": 0.1340909,
                "tempo": 120.0
            },
            {
                "start_time": 55.0818182,
                "end_time": 55.2272727,
                "pitch": 47,
                "velocity": 101,
                "duration": 0.1454545,
                "tempo": 120.0
            },
            {
                "start_time": 55.2295455,
                "end_time": 55.3590909,
                "pitch": 42,
                "velocity": 101,
                "duration": 0.1295455,
                "tempo": 120.0
            },
            {
                "start_time": 55.3613636,
                "end_time": 55.6204545,
                "pitch": 48,
                "velocity": 101,
                "duration": 0.2590909,
                "tempo": 120.0
            },
            {
                "start_time": 55.6227273,
                "end_time": 55.7522727,
                "pitch": 36,
                "velocity": 101,
                "duration": 0.1295455,
                "tempo": 120.0
            },
            {
                "start_time": 55.7522727,
                "end_time": 56.0295455,
                "pitch": 48,
                "velocity": 101,
                "duration": 0.2772727,
                "tempo": 120.0
            },
            {
                "start_time": 56.0295455,
                "end_time": 56.1590909,
                "pitch": 48,
                "velocity": 101,
                "duration": 0.1295455,
                "tempo": 120.0
            },
            {
                "start_time": 56.1613636,
                "end_time": 56.2931818,
                "pitch": 43,
                "velocity": 101,
                "duration": 0.1318182,
                "tempo": 120.0
            },
            {
                "start_time": 56.2954545,
                "end_time": 56.4272727,
                "pitch": 45,
                "velocity": 101,
                "duration": 0.1318182,
                "tempo": 120.0
            }
        ]
    }
}