{
    "mood": "angry",
    "instruments": {
        "Trumpet": [
            {
                "start_time": 0.0136364,
                "end_time": 0.2113636,
                "pitch": 62,
                "velocity": 101,
                "duration": 0.1977273,
                "tempo": 120.0
            },
            {
                "start_time": 0.2113636,
                "end_time": 0.5795455,
                "pitch": 67,
                "velocity": 101,
                "duration": 0.3681818,
                "tempo": 120.0
            },
            {
                "start_time": 0.5795455,
                "end_time": 0.9454545,
                "pitch": 69,
                "velocity": 101,
                "duration": 0.3659091,
                "tempo": 120.0
            },
            {
                "start_time": 0.9477273,
                "end_time": 1.125,
                "pitch": 70,
                "velocity": 101,
                "duration": 0.1772727,
                "tempo": 120.0
            },
            {
                "start_time": 1.1272727,
                "end_time": 1.3045455,
                "pitch": 72,
                "velocity": 101,
                "duration": 0.1772727,
                "tempo": 120.0
            },
            {
                "start_time": 1.3068182,
                "end_time": 1.4886364,
                "pitch": 75,
                "velocity": 101,
                "duration": 0.1818182,
                "tempo": 120.0
            },
            {
                "start_time": 1.4886364,
                "end_time": 1.6727273,
                "pitch": 74,
                "velocity": 101,
                "duration": 0.1840909,
                "tempo": 120.0
            },
            {
                "start_time": 1.6727273,
                "end_time": 1.8568182,
                "pitch": 72,
                "velocity": 101,
                "duration": 0.1840909,
                "tempo": 120.0
            },
            {
                "start_time": 1.8568182,
                "end_time": 2.0409091,
                "pitch": 70,
                "velocity": 101,
                "duration": 0.1840909,
                "tempo": 120.0
            },
            {
                "start_time": 2.0409091,
                "end_time": 2.2227273,
                "pitch": 69,
                "velocity": 101,
                "duration": 0.1818182,
                "tempo": 120.0
            },
            {
                "start_time": 2.225,
                "end_time": 2.4068182,
                "pitch": 62,
                "velocity": 101,
                "duration": 0.1818182,
                "tempo": 120.0
            },
            {
                "start_time": 2.4090909,
                "end_time": 2.7659091,
                "pitch": 67,
                "velocity": 101,
                "duration": 0.3568182,
                "tempo": 120.0
            },
            {
                "start_time": 2.7659091,
                "end_time": 3.1340909,
                "pitch": 69,
                "velocity": 101,
                "duration": 0.3681818,
                "tempo": 120.0
            },
            {
                "start_time": 3.1340909,
                "end_time": 3.3136364,
                "pitch": 70,
                "velocity": 101,
                "duration": 0.1795455,
                "tempo": 120.0
            },
            {
                "start_time": 3.3136364,
                "end_time": 3.4909091,
                "pitch": 72,
                "velocity": 101,
                "duration": 0.1772727,
                "tempo": 120.0
            },
            {
                "start_time": 3.4931818,
                "end_time": 3.675,
                "pitch": 75,
                "velocity": 101,
                "duration": 0.1818182,
                "tempo": 120.0
            },
            {
                "start_time": 3.6772727,
                "end_time": 3.8590909,
                "pitch": 74,
                "velocity": 101,
                "duration": 0.1818182,
                "tempo": 120.0
            },
            {
                "start_time": 3.8590909,
                "end_time": 4.0431818,
                "pitch": 72,
                "velocity": 101,
                "duration": 0.1840909,
                "tempo": 120.0
            },
            {
                "start_time": 4.0431818,
                "end_time": 4.2272727,
                "pitch": 70,
                "velocity": 101,
                "duration": 0.1840909,
                "tempo": 120.0
            },
            {
                "start_time": 4.2272727,
                "end_time": 4.4113636,
                "pitch": 69,
                "velocity": 101,
                "duration": 0.1840909,
                "tempo": 120.0
            },
            {
                "start_time": 4.4113636,
                "end_time": 4.5931818,
                "pitch": 60,
                "velocity": 101,
                "duration": 0.1818182,
                "tempo": 120.0
            },
            {
                "start_time": 4.5954545,
                "end_time": 4.9613636,
                "pitch": 65,
                "velocity": 101,
                "duration": 0.3659091,
                "tempo": 120.0
            },
            {
                "start_time": 4.9613636,
                "end_time": 5.3204545,
                "pitch": 67,
                "velocity": 101,
                "duration": 0.3590909,
                "tempo": 120.0
            },
            {
                "start_time": 5.3204545,
                "end_time": 5.5045455,
                "pitch": 68,
                "velocity": 101,
                "duration": 0.1840909,
                "tempo": 120.0
            },
            {
                "start_time": 5.5045455,
                "end_time": 5.6863636,
                "pitch": 70,
                "velocity": 101,
                "duration": 0.1818182,
                "tempo": 120.0
            },
            {
                "start_time": 5.6886364,
                "end_time": 5.8659091,
                "pitch": 73,
                "velocity": 101,
                "duration": 0.1772727,
                "tempo": 120.0
            },
            {
                "start_time": 5.8681818,
                "end_time": 6.0454545,
                "pitch": 72,
                "velocity": 101,
                "duration": 0.1772727,
                "tempo": 120.0
            },
            {
                "start_time": 6.0477273,
                "end_time": 6.2295455,
                "pitch": 70,
                "velocity": 101,
                "duration": 0.1818182,
                "tempo": 120.0
            },
            {
                "start_time": 6.2295455,
                "end_time": 6.4136364,
                "pitch": 68,
                "velocity": 101,
                "duration": 0.1840909,
                "tempo": 120.0
            },
            {
                "start_time": 6.4136364,
                "end_time": 6.5977273,
                "pitch": 67,
                "velocity": 101,
                "duration": 0.1840909,
                "tempo": 120.0
            },
            {
                "start_time": 6.5977273,
                "end_time": 6.7818182,
                "pitch": 60,
                "velocity": 101,
                "duration": 0.1840909,
                "tempo": 120.0
            },
            {
                "start_time": 6.7818182,
                "end_time": 7.1477273,
                "pitch": 65,
                "velocity": 101,
                "duration": 0.3659091,
                "tempo": 120.0
            },
            {
                "start_time": 7.15,
                "end_time": 7.5159091,
                "pitch": 67,
                "velocity": 101,
                "duration": 0.3659091,
                "tempo": 120.0
            },
            {
                "start_time": 7.5159091,
                "end_time": 7.6954545,
                "pitch": 68,
                "velocity": 101,
                "duration": 0.1795455,
                "tempo": 120.0
            },
            {
                "start_time": 7.6954545,
                "end_time": 7.875,
                "pitch": 70,
                "velocity": 101,
                "duration": 0.1795455,
                "tempo": 120.0
            },
            {
                "start_time": 7.875,
                "end_time": 8.0568182,
                "pitch": 73,
                "velocity": 101,
                "duration": 0.1818182,
                "tempo": 120.0
            },
            {
                "start_time": 8.0590909,
                "end_time": 8.2409091,
                "pitch": 72,
                "velocity": 101,
                "duration": 0.1818182,
                "tempo": 120.0
            },
            {
                "start_time": 8.2431818,
                "end_time": 8.425,
                "pitch": 70,
                "velocity": 101,
                "duration": 0.1818182,
                "tempo": 120.0
            },
            {
                "start_time": 8.4272727,
                "end_time": 8.6090909,
                "pitch": 68,
                "velocity": 101,
                "duration": 0.1818182,
                "tempo": 120.0
            },
            {
                "start_time": 8.6090909,
                "end_time": 8.7931818,
                "pitch": 67,
                "velocity": 101,
                "duration": 0.1840909,
                "tempo": 120.0
            },
            {
                "start_time": 8.7977273,
                "end_time": 8.8022727,
                "pitch": 62,
                "velocity": 101,
                "duration": 0.0045455,
                "tempo": 120.0
            }
        ],
        "Acoustic Bass": [
            {
                "start_time": 0.0159091,
                "end_time": 0.3954545,
                "pitch": 38,
                "velocity": 80,
                "duration": 0.3795455,
                "tempo": 120.0
            },
            {
                "start_time": 0.3977273,
                "end_time": 0.7636364,
                "pitch": 34,
                "velocity": 80,
                "duration": 0.3659091,
                "tempo": 120.0
            },
            {
                "start_time": 0.7636364,
                "end_time": 0.9477273,
                "pitch": 33,
                "velocity": 80,
                "duration": 0.1840909,
                "tempo": 120.0
            },
            {
                "start_time": 0.95,
                "end_time": 1.1272727,
                "pitch": 31,
                "velocity": 80,
                "duration": 0.1772727,
                "tempo": 120.0
            },
            {
                "start_time": 1.1295455,
                "end_time": 1.3068182,
                "pitch": 33,
                "velocity": 80,
                "duration": 0.1772727,
                "tempo": 120.0
            },
            {
                "start_time": 1.3068182,
                "end_time": 1.4909091,
                "pitch": 38,
                "velocity": 80,
                "duration": 0.1840909,
                "tempo": 120.0
            },
            {
                "start_time": 1.4909091,
                "end_time": 1.675,
                "pitch": 34,
                "velocity": 80,
                "duration": 0.1840909,
                "tempo": 120.0
            },
            {
                "start_time": 1.675,
                "end_time": 1.8590909,
                "pitch": 33,
                "velocity": 80,
                "duration": 0.1840909,
                "tempo": 120.0
            },
            {
                "start_time": 1.8590909,
                "end_time": 2.0409091,
                "pitch": 31,
                "velocity": 80,
                "duration": 0.1818182,
                "tempo": 120.0
            },
            {
                "start_time": 2.0431818,
                "end_time": 2.225,
                "pitch": 33,
                "velocity": 80,
                "duration": 0.1818182,
                "tempo": 120.0
            },
            {
                "start_time": 2.2272727,
                "end_time": 2.5863636,
                "pitch": 38,
                "velocity": 80,
                "duration": 0.3590909,
                "tempo": 120.0
            },
            {
                "start_time": 2.5886364,
                "end_time": 2.95,
                "pitch": 34,
                "velocity": 80,
                "duration": 0.3613636,
                "tempo": 120.0
            },
            {
                "start_time": 2.95,
                "end_time": 3.1340909,
                "pitch": 33,
                "velocity": 80,
                "duration": 0.1840909,
                "tempo": 120.0
            },
            {
                "start_time": 3.1363636,
                "end_time": 3.3136364,
                "pitch": 31,
                "velocity": 80,
                "duration": 0.1772727,
                "tempo": 120.0
            },
            {
                "start_time": 3.3159091,
                "end_time": 3.4931818,
                "pitch": 33,
                "velocity": 80,
                "duration": 0.1772727,
                "tempo": 120.0
            },
            {
                "start_time": 3.4954545,
                "end_time": 3.6772727,
                "pitch": 38,
                "velocity": 80,
                "duration": 0.1818182,
                "tempo": 120.0
            },
            {
                "start_time": 3.6772727,
                "end_time": 3.8613636,
                "pitch": 34,
                "velocity": 80,
                "duration": 0.1840909,
                "tempo": 120.0
            },
            {
                "start_time": 3.8613636,
                "end_time": 4.0454545,
                "pitch": 33,
                "velocity": 80,
                "duration": 0.1840909,
                "tempo": 120.0
            },
            {
                "start_time": 4.0454545,
                "end_time": 4.2295455,
                "pitch": 31,
                "velocity": 80,
                "duration": 0.1840909,
                "tempo": 120.0
            },
            {
                "start_time": 4.2295455,
                "end_time": 4.4113636,
                "pitch": 33,
                "velocity": 80,
                "duration": 0.1818182,
                "tempo": 120.0
            },
            {
                "start_time": 4.4136364,
                "end_time": 4.7772727,
                "pitch": 36,
                "velocity": 80,
                "duration": 0.3636364,
                "tempo": 120.0
            },
            {
                "start_time": 4.7795455,
                "end_time": 5.1409091,
                "pitch": 32,
                "velocity": 80,
                "duration": 0.3613636,
                "tempo": 120.0
            },
            {
                "start_time": 5.1431818,
                "end_time": 5.3227273,
                "pitch": 31,
                "velocity": 80,
                "duration": 0.1795455,
                "tempo": 120.0
            },
            {
                "start_time": 5.3227273,
                "end_time": 5.5045455,
                "pitch": 29,
                "velocity": 80,
                "duration": 0.1818182,
                "tempo": 120.0
            },
            {
                "start_time": 5.5068182,
                "end_time": 5.6886364,
                "pitch": 31,
                "velocity": 80,
                "duration": 0.1818182,
                "tempo": 120.0
            },
            {
                "start_time": 5.6909091,
                "end_time": 5.8681818,
                "pitch": 36,
                "velocity": 80,
                "duration": 0.1772727,
                "tempo": 120.0
            },
            {
                "start_time": 5.8704545,
                "end_time": 6.0477273,
                "pitch": 32,
                "velocity": 80,
                "duration": 0.1772727,
                "tempo": 120.0
            },
            {
                "start_time": 6.05,
                "end_time": 6.2318182,
                "pitch": 31,
                "velocity": 80,
                "duration": 0.1818182,
                "tempo": 120.0
            },
            {
                "start_time": 6.2318182,
                "end_time": 6.4159091,
                "pitch": 29,
                "velocity": 80,
                "duration": 0.1840909,
                "tempo": 120.0
            },
            {
                "start_time": 6.4159091,
                "end_time": 6.6,
                "pitch": 31,
                "velocity": 80,
                "duration": 0.1840909,
                "tempo": 120.0
            },
            {
                "start_time": 6.6,
                "end_time": 6.9659091,
                "pitch": 36,
                "velocity": 80,
                "duration": 0.3659091,
                "tempo": 120.0
            },
            {
                "start_time": 6.9659091,
                "end_time": 7.3318182,
                "pitch": 32,
                "velocity": 80,
                "duration": 0.3659091,
                "tempo": 120.0
            },
            {
                "start_time": 7.3340909,
                "end_time": 7.5181818,
                "pitch": 31,
                "velocity": 80,
                "duration": 0.1840909,
                "tempo": 120.0
            },
            {
                "start_time": 7.5181818,
                "end_time": 7.6977273,
                "pitch": 29,
                "velocity": 80,
                "duration": 0.1795455,
                "tempo": 120.0
            },
            {
                "start_time": 7.6977273,
                "end_time": 7.8772727,
                "pitch": 31,
                "velocity": 80,
                "duration": 0.1795455,
                "tempo": 120.0
            },
            {
                "start_time": 7.8772727,
                "end_time": 8.0590909,
                "pitch": 36,
                "velocity": 80,
                "duration": 0.1818182,
                "tempo": 120.0
            },
            {
                "start_time": 8.0613636,
                "end_time": 8.2431818,
                "pitch": 32,
                "velocity": 80,
                "duration": 0.1818182,
                "tempo": 120.0
            },
            {
                "start_time": 8.2454545,
                "end_time": 8.4272727,
                "pitch": 31,
                "velocity": 80,
                "duration": 0.1818182,
                "tempo": 120.0
            },
            {
                "start_time": 8.4272727,
                "end_time": 8.6113636,
                "pitch": 29,
                "velocity": 80,
                "duration": 0.1840909,
                "tempo": 120.0
            },
            {
                "start_time": 8.6113636,
                "end_time": 8.7931818,
                "pitch": 31,
                "velocity": 80,
                "duration": 0.1818182,
                "tempo": 120.0
            }
        ]
    }
}