{
    "mood": "angry",
    "instruments": {
        "Trumpet": [
            {
                "start_time": 0.0227273,
                "end_time": 0.1022727,
                "pitch": 75,
                "velocity": 25,
                "duration": 0.0795455,
                "tempo": 120.0
            },
            {
                "start_time": 0.1204545,
                "end_time": 0.2204545,
                "pitch": 79,
                "velocity": 25,
                "duration": 0.1,
                "tempo": 120.0
            },
            {
                "start_time": 0.2363636,
                "end_time": 0.3204545,
                "pitch": 74,
                "velocity": 25,
                "duration": 0.0840909,
                "tempo": 120.0
            },
            {
                "start_time": 0.3545455,
                "end_time": 0.4363636,
                "pitch": 78,
                "velocity": 25,
                "duration": 0.0818182,
                "tempo": 120.0
            },
            {
                "start_time": 0.4704545,
                "end_time": 0.5545455,
                "pitch": 73,
                "velocity": 25,
                "duration": 0.0840909,
                "tempo": 120.0
            },
            {
                "start_time": 0.5886364,
                "end_time": 0.6704545,
                "pitch": 77,
                "velocity": 25,
                "duration": 0.0818182,
                "tempo": 120.0
            },
            {
                "start_time": 0.6886364,
                "end_time": 0.7704545,
                "pitch": 74,
                "velocity": 25,
                "duration": 0.0818182,
                "tempo": 120.0
            },
            {
                "start_time": 0.8022727,
                "end_time": 0.8840909,
                "pitch": 78,
                "velocity": 25,
                "duration": 0.0818182,
                "tempo": 120.0
            },
            {
                "start_time": 0.9159091,
                "end_time": 0.9977273,
                "pitch": 75,
                "velocity": 25,
                "duration": 0.0818182,
                "tempo": 120.0
            },
            {
                "start_time": 1.0318182,
                "end_time": 1.1159091,
                "pitch": 79,
                "velocity": 25,
                "duration": 0.0840909,
                "tempo": 120.0
            },
            {
                "start_time": 1.1340909,
                "end_time": 1.2363636,
                "pitch": 76,
                "velocity": 25,
                "duration": 0.1022727,
                "tempo": 120.0
            },
            {
                "start_time": 1.2545455,
                "end_time": 1.3409091,
                "pitch": 80,
                "velocity": 25,
                "duration": 0.0863636,
                "tempo": 120.0
            },
            {
                "start_time": 1.3772727,
                "end_time": 1.4590909,
                "pitch": 75,
                "velocity": 25,
                "duration": 0.0818182,
                "tempo": 120.0
            },
            {
                "start_time": 1.4909091,
                "end_time": 1.575,
                "pitch": 79,
                "velocity": 25,
                "duration": 0.0840909,
                "tempo": 120.0
            },
            {
                "start_time": 1.6090909,
                "end_time": 1.6931818,
                "pitch": 74,
                "velocity": 25,
                "duration": 0.0840909,
                "tempo": 120.0
            },
            {
                "start_time": 1.7090909,
                "end_time": 1.7909091,
                "pitch": 78,
                "velocity": 25,
                "duration": 0.0818182,
                "tempo": 120.0
            },
            {
                "start_time": 1.8227273,
                "end_time": 1.9045455,
                "pitch": 73,
                "velocity": 25,
                "duration": 0.0818182,
                "tempo": 120.0
            },
            {
                "start_time": 1.9386364,
                "end_time": 2.0181818,
                "pitch": 77,
                "velocity": 25,
                "duration": 0.0795455,
                "tempo": 120.0
            },
            {
                "start_time": 2.0522727,
                "end_time": 2.1363636,
                "pitch": 74,
                "velocity": 25,
                "duration": 0.0840909,
                "tempo": 120.0
            },
            {
                "start_time": 2.1545455,
                "end_time": 2.2568182,
                "pitch": 78,
                "velocity": 25,
                "duration": 0.1022727,
                "tempo": 120.0
            },
            {
                "start_time": 2.275,
                "end_time": 2.3613636,
                "pitch": 75,
                "velocity": 25,
                "duration": 0.0863636,
                "tempo": 120.0
            },
            {
                "start_time": 2.3977273,
                "end_time": 2.4772727,
                "pitch": 79,
                "velocity": 25,
                "duration": 0.0795455,
                "tempo": 120.0
            },
            {
                "start_time": 2.5113636,
                "end_time": 2.5909091,
                "pitch": 76,
                "velocity": 25,
                "duration": 0.0795455,
                "tempo": 120.0
            },
            {
                "start_time": 2.625,
                "end_time": 2.7045455,
                "pitch": 80,
                "velocity": 25,
                "duration": 0.0795455,
                "tempo": 120.0
            },
            {
                "start_time": 2.7227273,
                "end_time": 2.8045455,
                "pitch": 75,
                "velocity": 25,
                "duration": 0.0818182,
                "tempo": 120.0
            },
            {
                "start_time": 2.8386364,
                "end_time": 2.9227273,
                "pitch": 79,
                "velocity": 25,
                "duration": 0.0840909,
                "tempo": 120.0
            },
            {
                "start_time": 2.9568182,
                "end_time": 3.0386364,
                "pitch": 74,
                "velocity": 25,
                "duration": 0.0818182,
                "tempo": 120.0
            },
            {
                "start_time": 3.0727273,
                "end_time": 3.1568182,
                "pitch": 78,
                "velocity": 25,
                "duration": 0.0840909,
                "tempo": 120.0
            },
            {
                "start_time": 3.1886364,
                "end_time": 3.2727273,
                "pitch": 73,
                "velocity": 25,
                "duration": 0.0840909,
                "tempo": 120.0
            },
            {
                "start_time": 3.2909091,
                "end_time": 3.3727273,
                "pitch": 77,
                "velocity": 25,
                "duration": 0.0818182,
                "tempo": 120.0
            },
            {
                "start_time": 3.4068182,
                "end_time": 3.4909091,
                "pitch": 74,
                "velocity": 25,
                "duration": 0.0840909,
                "tempo": 120.0
            },
            {
                "start_time": 3.525,
                "end_time": 3.6068182,
                "pitch": 78,
                "velocity": 25,
                "duration": 0.0818182,
                "tempo": 120.0
            },
            {
                "start_time": 3.6409091,
                "end_time": 3.725,
                "pitch": 75,
                "velocity": 25,
                "duration": 0.0840909,
                "tempo": 120.0
            },
            {
                "start_time": 3.7431818,
                "end_time": 3.8431818,
                "pitch": 79,
                "velocity": 25,
                "duration": 0.1,
                "tempo": 120.0
            },
            {
                "start_time": 3.8590909,
                "end_time": 3.9431818,
                "pitch": 76,
                "velocity": 25,
                "duration": 0.0840909,
                "tempo": 120.0
            },
            {
                "start_time": 3.9772727,
                "end_time": 4.0590909,
                "pitch": 80,
                "velocity": 25,
                "duration": 0.0818182,
                "tempo": 120.0
            },
            {
                "start_time": 4.0954545,
                "end_time": 4.1772727,
                "pitch": 75,
                "velocity": 25,
                "duration": 0.0818182,
                "tempo": 120.0
            },
            {
                "start_time": 4.2113636,
                "end_time": 4.2931818,
                "pitch": 79,
                "velocity": 25,
                "duration": 0.0818182,
                "tempo": 120.0
            },
            {
                "start_time": 4.3113636,
                "end_time": 4.3931818,
                "pitch": 74,
                "velocity": 25,
                "duration": 0.0818182,
                "tempo": 120.0
            },
            {
                "start_time": 4.4295455,
                "end_time": 4.5113636,
                "pitch": 78,
                "velocity": 25,
                "duration": 0.0818182,
                "tempo": 120.0
            },
            {
                "start_time": 4.5454545,
                "end_time": 4.6295455,
                "pitch": 73,
                "velocity": 25,
                "duration": 0.0840909,
                "tempo": 120.0
            },
            {
                "start_time": 4.6636364,
                "end_time": 4.7454545,
                "pitch": 77,
                "velocity": 25,
                "duration": 0.0818182,
                "tempo": 120.0
            },
            {
                "start_time": 4.7636364,
                "end_time": 4.8613636,
                "pitch": 74,
                "velocity": 25,
                "duration": 0.0977273,
                "tempo": 120.0
            },
            {
                "start_time": 4.8772727,
                "end_time": 4.9590909,
                "pitch": 78,
                "velocity": 25,
                "duration": 0.0818182,
                "tempo": 120.0
            },
            {
                "start_time": 4.9909091,
                "end_time": 5.0727273,
                "pitch": 75,
                "velocity": 25,
                "duration": 0.0818182,
                "tempo": 120.0
            },
            {
                "start_time": 5.1068182,
                "end_time": 5.1931818,
                "pitch": 79,
                "velocity": 25,
                "duration": 0.0863636,
                "tempo": 120.0
            },
            {
                "start_time": 5.2295455,
                "end_time": 5.3159091,
                "pitch": 76,
                "velocity": 25,
                "duration": 0.0863636,
                "tempo": 120.0
            },
            {
                "start_time": 5.3363636,
                "end_time": 5.4227273,
                "pitch": 80,
                "velocity": 25,
                "duration": 0.0863636,
                "tempo": 120.0
            },
            {
                "start_time": 5.4613636,
                "end_time": 5.5409091,
                "pitch": 75,
                "velocity": 25,
                "duration": 0.0795455,
                "tempo": 120.0
            },
            {
                "start_time": 5.575,
                "end_time": 5.6545455,
                "pitch": 79,
                "velocity": 25,
                "duration": 0.0795455,
                "tempo": 120.0
            },
            {
                "start_time": 5.6886364,
                "end_time": 5.7681818,
                "pitch": 74,
                "velocity": 25,
                "duration": 0.0795455,
                "tempo": 120.0
            },
            {
                "start_time": 5.8022727,
                "end_time": 5.8863636,
                "pitch": 78,
                "velocity": 25,
                "duration": 0.0840909,
                "tempo": 120.0
            },
            {
                "start_time": 5.9045455,
                "end_time": 5.9886364,
                "pitch": 73,
                "velocity": 25,
                "duration": 0.0840909,
                "tempo": 120.0
            },
            {
                "start_time": 6.025,
                "end_time": 6.1113636,
                "pitch": 77,
                "velocity": 25,
                "duration": 0.0863636,
                "tempo": 120.0
            },
            {
                "start_time": 6.1454545,
                "end_time": 6.2272727,
                "pitch": 74,
                "velocity": 25,
                "duration": 0.0818182,
                "tempo": 120.0
            },
            {
                "start_time": 6.2590909,
                "end_time": 6.3409091,
                "pitch": 78,
                "velocity": 25,
                "duration": 0.0818182,
                "tempo": 120.0
            },
            {
                "start_time": 6.3568182,
                "end_time": 6.4386364,
                "pitch": 75,
                "velocity": 25,
                "duration": 0.0818182,
                "tempo": 120.0
            },
            {
                "start_time": 6.4727273,
                "end_time": 6.5545455,
                "pitch": 79,
                "velocity": 25,
                "duration": 0.0818182,
                "tempo": 120.0
            },
            {
                "start_time": 6.5886364,
                "end_time": 6.6704545,
                "pitch": 76,
                "velocity": 25,
                "duration": 0.0818182,
                "tempo": 120.0
            },
            {
                "start_time": 6.7068182,
                "end_time": 6.7886364,
                "pitch": 80,
                "velocity": 25,
                "duration": 0.0818182,
                "tempo": 120.0
            },
            {
                "start_time": 6.825,
                "end_time": 6.9068182,
                "pitch": 75,
                "velocity": 25,
                "duration": 0.0818182,
                "tempo": 120.0
            },
            {
                "start_time": 6.925,
                "end_time": 7.0113636,
                "pitch": 79,
                "velocity": 25,
                "duration": 0.0863636,
                "tempo": 120.0
            },
            {
                "start_time": 7.0454545,
                "end_time": 7.1318182,
                "pitch": 74,
                "velocity": 25,
                "duration": 0.0863636,
                "tempo": 120.0
            },
            {
                "start_time": 7.1659091,
                "end_time": 7.2477273,
                "pitch": 78,
                "velocity": 25,
                "duration": 0.0818182,
                "tempo": 120.0
            },
            {
                "start_time": 7.2818182,
                "end_time": 7.3613636,
                "pitch": 73,
                "velocity": 25,
                "duration": 0.0795455,
                "tempo": 120.0
            },
            {
                "start_time": 7.3795455,
                "end_time": 7.475,
                "pitch": 77,
                "velocity": 25,
                "duration": 0.0954545,
                "tempo": 120.0
            },
            {
                "start_time": 7.4931818,
                "end_time": 7.575,
                "pitch": 74,
                "velocity": 25,
                "duration": 0.0818182,
                "tempo": 120.0
            },
            {
                "start_time": 7.6090909,
                "end_time": 7.6931818,
                "pitch": 78,
                "velocity": 25,
                "duration": 0.0840909,
                "tempo": 120.0
            },
            {
                "start_time": 7.7272727,
                "end_time": 7.8090909,
                "pitch": 75,
                "velocity": 25,
                "duration": 0.0818182,
                "tempo": 120.0
            },
            {
                "start_time": 7.8454545,
                "end_time": 7.9295455,
                "pitch": 79,
                "velocity": 25,
                "duration": 0.0840909,
                "tempo": 120.0
            },
            {
                "start_time": 7.9477273,
                "end_time": 8.0318182,
                "pitch": 76,
                "velocity": 25,
                "duration": 0.0840909,
                "tempo": 120.0
            },
            {
                "start_time": 8.0681818,
                "end_time": 8.1522727,
                "pitch": 80,
                "velocity": 25,
                "duration": 0.0840909,
                "tempo": 120.0
            },
            {
                "start_time": 8.1909091,
                "end_time": 8.2704545,
                "pitch": 75,
                "velocity": 25,
                "duration": 0.0795455,
                "tempo": 120.0
            },
            {
                "start_time": 8.3022727,
                "end_time": 8.3840909,
                "pitch": 79,
                "velocity": 25,
                "duration": 0.0818182,
                "tempo": 120.0
            },
            {
                "start_time": 8.4,
                "end_time": 8.4977273,
                "pitch": 74,
                "velocity": 25,
                "duration": 0.0977273,
                "tempo": 120.0
            },
            {
                "start_time": 8.5136364,
                "end_time": 8.5954545,
                "pitch": 78,
                "velocity": 25,
                "duration": 0.0818182,
                "tempo": 120.0
            },
            {
                "start_time": 8.6272727,
                "end_time": 8.7090909,
                "pitch": 73,
                "velocity": 25,
                "duration": 0.0818182,
                "tempo": 120.0
            },
            {
                "start_time": 8.7409091,
                "end_time": 8.8227273,
                "pitch": 77,
                "velocity": 25,
                "duration": 0.0818182,
                "tempo": 120.0
            },
            {
                "start_time": 8.8545455,
                "end_time": 8.9409091,
                "pitch": 74,
                "velocity": 25,
                "duration": 0.0863636,
                "tempo": 120.0
            },
            {
                "start_time": 8.9590909,
                "end_time": 9.0431818,
                "pitch": 78,
                "velocity": 25,
                "duration": 0.0840909,
                "tempo": 120.0
            },
            {
                "start_time": 9.0795455,
                "end_time": 9.1659091,
                "pitch": 75,
                "velocity": 25,
                "duration": 0.0863636,
                "tempo": 120.0
            },
            {
                "start_time": 9.2,
                "end_time": 9.2840909,
                "pitch": 79,
                "velocity": 25,
                "duration": 0.0840909,
                "tempo": 120.0
            },
            {
                "start_time": 9.3181818,
                "end_time": 9.4,
                "pitch": 76,
                "velocity": 25,
                "duration": 0.0818182,
                "tempo": 120.0
            },
            {
                "start_time": 9.4363636,
                "end_time": 9.5181818,
                "pitch": 80,
                "velocity": 25,
                "duration": 0.0818182,
                "tempo": 120.0
            },
            {
                "start_time": 9.5363636,
                "end_time": 9.6159091,
                "pitch": 75,
                "velocity": 25,
                "duration": 0.0795455,
                "tempo": 120.0
            },
            {
                "start_time": 9.65,
                "end_time": 9.7295455,
                "pitch": 79,
                "velocity": 25,
                "duration": 0.0795455,
                "tempo": 120.0
            },
            {
                "start_time": 9.7636364,
                "end_time": 9.8431818,
                "pitch": 74,
                "velocity": 25,
                "duration": 0.0795455,
                "tempo": 120.0
            },
            {
                "start_time": 9.8772727,
                "end_time": 9.9613636,
                "pitch": 78,
                "velocity": 25,
                "duration": 0.0840909,
                "tempo": 120.0
            },
            {
                "start_time": 9.9795455,
                "end_time": 10.0818182,
                "pitch": 73,
                "velocity": 25,
                "duration": 0.1022727,
                "tempo": 120.0
            },
            {
                "start_time": 10.1,
                "end_time": 10.1863636,
                "pitch": 77,
                "velocity": 25,
                "duration": 0.0863636,
                "tempo": 120.0
            },
            {
                "start_time": 10.2227273,
                "end_time": 10.3022727,
                "pitch": 74,
                "velocity": 25,
                "duration": 0.0795455,
                "tempo": 120.0
            },
            {
                "start_time": 10.3340909,
                "end_time": 10.4159091,
                "pitch": 78,
                "velocity": 25,
                "duration": 0.0818182,
                "tempo": 120.0
            },
            {
                "start_time": 10.45,
                "end_time": 10.5295455,
                "pitch": 75,
                "velocity": 25,
                "duration": 0.0795455,
                "tempo": 120.0
            },
            {
                "start_time": 10.5477273,
                "end_time": 10.6318182,
                "pitch": 79,
                "velocity": 25,
                "duration": 0.0840909,
                "tempo": 120.0
            },
            {
                "start_time": 10.6659091,
                "end_time": 10.7522727,
                "pitch": 76,
                "velocity": 25,
                "duration": 0.0863636,
                "tempo": 120.0
            },
            {
                "start_time": 10.7886364,
                "end_time": 10.8727273,
                "pitch": 80,
                "velocity": 25,
                "duration": 0.0840909,
                "tempo": 120.0
            },
            {
                "start_time": 10.9113636,
                "end_time": 10.9909091,
                "pitch": 63,
                "velocity": 64,
                "duration": 0.0795455,
                "tempo": 120.0
            },
            {
                "start_time": 11.125,
                "end_time": 11.2090909,
                "pitch": 63,
                "velocity": 64,
                "duration": 0.0840909,
                "tempo": 120.0
            },
            {
                "start_time": 11.2431818,
                "end_time": 11.5590909,
                "pitch": 60,
                "velocity": 64,
                "duration": 0.3159091,
                "tempo": 120.0
            },
            {
                "start_time": 11.5772727,
                "end_time": 11.6590909,
                "pitch": 66,
                "velocity": 64,
                "duration": 0.0818182,
                "tempo": 120.0
            },
            {
                "start_time": 11.6909091,
                "end_time": 11.7727273,
                "pitch": 68,
                "velocity": 64,
                "duration": 0.0818182,
                "tempo": 120.0
            },
            {
                "start_time": 11.8045455,
                "end_time": 11.8863636,
                "pitch": 69,
                "velocity": 64,
                "duration": 0.0818182,
                "tempo": 120.0
            },
            {
                "start_time": 11.9204545,
                "end_time": 12.0045455,
                "pitch": 69,
                "velocity": 64,
                "duration": 0.0840909,
                "tempo": 120.0
            },
            {
                "start_time": 12.2636364,
                "end_time": 12.3454545,
                "pitch": 66,
                "velocity": 64,
                "duration": 0.0818182,
                "tempo": 120.0
            },
            {
                "start_time": 12.4931818,
                "end_time": 12.5727273,
                "pitch": 66,
                "velocity": 64,
                "duration": 0.0795455,
                "tempo": 120.0
            },
            {
                "start_time": 12.5909091,
                "end_time": 12.9068182,
                "pitch": 63,
                "velocity": 64,
                "duration": 0.3159091,
                "tempo": 120.0
            },
            {
                "start_time": 12.9409091,
                "end_time": 13.0227273,
                "pitch": 69,
                "velocity": 64,
                "duration": 0.0818182,
                "tempo": 120.0
            },
            {
                "start_time": 13.0568182,
                "end_time": 13.1409091,
                "pitch": 71,
                "velocity": 64,
                "duration": 0.0840909,
                "tempo": 120.0
            },
            {
                "start_time": 13.1568182,
                "end_time": 13.2409091,
                "pitch": 72,
                "velocity": 64,
                "duration": 0.0840909,
                "tempo": 120.0
            },
            {
                "start_time": 13.275,
                "end_time": 13.3590909,
                "pitch": 72,
                "velocity": 64,
                "duration": 0.0840909,
                "tempo": 120.0
            },
            {
                "start_time": 13.6113636,
                "end_time": 13.7068182,
                "pitch": 69,
                "velocity": 64,
                "duration": 0.0954545,
                "tempo": 120.0
            },
            {
                "start_time": 13.8386364,
                "end_time": 13.9181818,
                "pitch": 69,
                "velocity": 64,
                "duration": 0.0795455,
                "tempo": 120.0
            },
            {
                "start_time": 13.9522727,
                "end_time": 14.2681818,
                "pitch": 66,
                "velocity": 64,
                "duration": 0.3159091,
                "tempo": 120.0
            },
            {
                "start_time": 14.3045455,
                "end_time": 14.3840909,
                "pitch": 72,
                "velocity": 64,
                "duration": 0.0795455,
                "tempo": 120.0
            },
            {
                "start_time": 14.4159091,
                "end_time": 14.4931818,
                "pitch": 73,
                "velocity": 64,
                "duration": 0.0772727,
                "tempo": 120.0
            },
            {
                "start_time": 14.525,
                "end_time": 14.6045455,
                "pitch": 75,
                "velocity": 64,
                "duration": 0.0795455,
                "tempo": 120.0
            },
            {
                "start_time": 14.6204545,
                "end_time": 14.7204545,
                "pitch": 75,
                "velocity": 64,
                "duration": 0.1,
                "tempo": 120.0
            },
            {
                "start_time": 14.9727273,
                "end_time": 15.0568182,
                "pitch": 72,
                "velocity": 64,
                "duration": 0.0840909,
                "tempo": 120.0
            },
            {
                "start_time": 15.1954545,
                "end_time": 15.2818182,
                "pitch": 72,
                "velocity": 64,
                "duration": 0.0863636,
                "tempo": 120.0
            },
            {
                "start_time": 15.3159091,
                "end_time": 15.6340909,
                "pitch": 69,
                "velocity": 64,
                "duration": 0.3181818,
                "tempo": 120.0
            },
            {
                "start_time": 15.65,
                "end_time": 15.7454545,
                "pitch": 51,
                "velocity": 64,
                "duration": 0.0954545,
                "tempo": 120.0
            },
            {
                "start_time": 15.7613636,
                "end_time": 15.8386364,
                "pitch": 53,
                "velocity": 64,
                "duration": 0.0772727,
                "tempo": 120.0
            },
            {
                "start_time": 15.8704545,
                "end_time": 15.95,
                "pitch": 54,
                "velocity": 64,
                "duration": 0.0795455,
                "tempo": 120.0
            },
            {
                "start_time": 15.9818182,
                "end_time": 16.0681818,
                "pitch": 56,
                "velocity": 64,
                "duration": 0.0863636,
                "tempo": 120.0
            },
            {
                "start_time": 16.1045455,
                "end_time": 16.1931818,
                "pitch": 57,
                "velocity": 64,
                "duration": 0.0886364,
                "tempo": 120.0
            },
            {
                "start_time": 16.2113636,
                "end_time": 16.3,
                "pitch": 59,
                "velocity": 64,
                "duration": 0.0886364,
                "tempo": 120.0
            },
            {
                "start_time": 16.6772727,
                "end_time": 16.7636364,
                "pitch": 71,
                "velocity": 64,
                "duration": 0.0863636,
                "tempo": 120.0
            },
            {
                "start_time": 16.7818182,
                "end_time": 16.8659091,
                "pitch": 72,
                "velocity": 64,
                "duration": 0.0840909,
                "tempo": 120.0
            },
            {
                "start_time": 16.9022727,
                "end_time": 16.9863636,
                "pitch": 74,
                "velocity": 64,
                "duration": 0.0840909,
                "tempo": 120.0
            },
            {
                "start_time": 17.3568182,
                "end_time": 17.4386364,
                "pitch": 68,
                "velocity": 64,
                "duration": 0.0818182,
                "tempo": 120.0
            },
            {
                "start_time": 17.4704545,
                "end_time": 17.5522727,
                "pitch": 69,
                "velocity": 64,
                "duration": 0.0818182,
                "tempo": 120.0
            },
            {
                "start_time": 17.5840909,
                "end_time": 17.6659091,
                "pitch": 71,
                "velocity": 64,
                "duration": 0.0818182,
                "tempo": 120.0
            },
            {
                "start_time": 18.0431818,
                "end_time": 18.125,
                "pitch": 64,
                "velocity": 64,
                "duration": 0.0818182,
                "tempo": 120.0
            },
            {
                "start_time": 18.1568182,
                "end_time": 18.2386364,
                "pitch": 66,
                "velocity": 64,
                "duration": 0.0818182,
                "tempo": 120.0
            },
            {
                "start_time": 18.2545455,
                "end_time": 18.3522727,
                "pitch": 68,
                "velocity": 64,
                "duration": 0.0977273,
                "tempo": 120.0
            },
            {
                "start_time": 18.7204545,
                "end_time": 18.8045455,
                "pitch": 68,
                "velocity": 64,
                "duration": 0.0840909,
                "tempo": 120.0
            },
            {
                "start_time": 18.8227273,
                "end_time": 18.9090909,
                "pitch": 69,
                "velocity": 64,
                "duration": 0.0863636,
                "tempo": 120.0
            },
            {
                "start_time": 18.9431818,
                "end_time": 19.0295455,
                "pitch": 71,
                "velocity": 64,
                "duration": 0.0863636,
                "tempo": 120.0
            },
            {
                "start_time": 19.3909091,
                "end_time": 19.4727273,
                "pitch": 71,
                "velocity": 64,
                "duration": 0.0818182,
                "tempo": 120.0
            },
            {
                "start_time": 19.5068182,
                "end_time": 19.5909091,
                "pitch": 72,
                "velocity": 64,
                "duration": 0.0840909,
                "tempo": 120.0
            },
            {
                "start_time": 19.625,
                "end_time": 19.7068182,
                "pitch": 74,
                "velocity": 64,
                "duration": 0.0818182,
                "tempo": 120.0
            },
            {
                "start_time": 19.7431818,
                "end_time": 19.8272727,
                "pitch": 68,
                "velocity": 64,
                "duration": 0.0840909,
                "tempo": 120.0
            },
            {
                "start_time": 19.8454545,
                "end_time": 19.9295455,
                "pitch": 69,
                "velocity": 64,
                "duration": 0.0840909,
                "tempo": 120.0
            },
            {
                "start_time": 19.9659091,
                "end_time": 20.05,
                "pitch": 71,
                "velocity": 64,
                "duration": 0.0840909,
                "tempo": 120.0
            },
            {
                "start_time": 20.0863636,
                "end_time": 20.1659091,
                "pitch": 64,
                "velocity": 64,
                "duration": 0.0795455,
                "tempo": 120.0
            },
            {
                "start_time": 20.2,
                "end_time": 20.2795455,
                "pitch": 66,
                "velocity": 64,
                "duration": 0.0795455,
                "tempo": 120.0
            },
            {
                "start_time": 20.3136364,
                "end_time": 20.3954545,
                "pitch": 68,
                "velocity": 64,
                "duration": 0.0818182,
                "tempo": 120.0
            },
            {
                "start_time": 20.4113636,
                "end_time": 20.4954545,
                "pitch": 64,
                "velocity": 64,
                "duration": 0.0840909,
                "tempo": 120.0
            },
            {
                "start_time": 20.5295455,
                "end_time": 20.6113636,
                "pitch": 65,
                "velocity": 64,
                "duration": 0.0818182,
                "tempo": 120.0
            },
            {
                "start_time": 20.6454545,
                "end_time": 20.7295455,
                "pitch": 66,
                "velocity": 64,
                "duration": 0.0840909,
                "tempo": 120.0
            },
            {
                "start_time": 20.7636364,
                "end_time": 20.8454545,
                "pitch": 67,
                "velocity": 64,
                "duration": 0.0818182,
                "tempo": 120.0
            },
            {
                "start_time": 20.8636364,
                "end_time": 20.9636364,
                "pitch": 66,
                "velocity": 64,
                "duration": 0.1,
                "tempo": 120.0
            },
            {
                "start_time": 20.9818182,
                "end_time": 21.0636364,
                "pitch": 65,
                "velocity": 64,
                "duration": 0.0818182,
                "tempo": 120.0
            },
            {
                "start_time": 21.0977273,
                "end_time": 21.1795455,
                "pitch": 64,
                "velocity": 64,
                "duration": 0.0818182,
                "tempo": 120.0
            },
            {
                "start_time": 21.2159091,
                "end_time": 21.2977273,
                "pitch": 66,
                "velocity": 64,
                "duration": 0.0818182,
                "tempo": 120.0
            },
            {
                "start_time": 21.3318182,
                "end_time": 21.4159091,
                "pitch": 67,
                "velocity": 64,
                "duration": 0.0840909,
                "tempo": 120.0
            },
            {
                "start_time": 21.4318182,
                "end_time": 21.5159091,
                "pitch": 68,
                "velocity": 64,
                "duration": 0.0840909,
                "tempo": 120.0
            },
            {
                "start_time": 21.7863636,
                "end_time": 21.8659091,
                "pitch": 75,
                "velocity": 25,
                "duration": 0.0795455,
                "tempo": 120.0
            },
            {
                "start_time": 21.8840909,
                "end_time": 21.9840909,
                "pitch": 79,
                "velocity": 25,
                "duration": 0.1,
                "tempo": 120.0
            },
            {
                "start_time": 22.0,
                "end_time": 22.0840909,
                "pitch": 74,
                "velocity": 25,
                "duration": 0.0840909,
                "tempo": 120.0
            },
            {
                "start_time": 22.1181818,
                "end_time": 22.2,
                "pitch": 78,
                "velocity": 25,
                "duration": 0.0818182,
                "tempo": 120.0
            },
            {
                "start_time": 22.2318182,
                "end_time": 22.3136364,
                "pitch": 73,
                "velocity": 25,
                "duration": 0.0818182,
                "tempo": 120.0
            },
            {
                "start_time": 22.3454545,
                "end_time": 22.4272727,
                "pitch": 77,
                "velocity": 25,
                "duration": 0.0818182,
                "tempo": 120.0
            },
            {
                "start_time": 22.4431818,
                "end_time": 22.5272727,
                "pitch": 74,
                "velocity": 25,
                "duration": 0.0840909,
                "tempo": 120.0
            },
            {
                "start_time": 22.5613636,
                "end_time": 22.6431818,
                "pitch": 78,
                "velocity": 25,
                "duration": 0.0818182,
                "tempo": 120.0
            },
            {
                "start_time": 22.6772727,
                "end_time": 22.7613636,
                "pitch": 75,
                "velocity": 25,
                "duration": 0.0840909,
                "tempo": 120.0
            },
            {
                "start_time": 22.7954545,
                "end_time": 22.8795455,
                "pitch": 79,
                "velocity": 25,
                "duration": 0.0840909,
                "tempo": 120.0
            },
            {
                "start_time": 22.9159091,
                "end_time": 23.0,
                "pitch": 76,
                "velocity": 25,
                "duration": 0.0840909,
                "tempo": 120.0
            },
            {
                "start_time": 23.0181818,
                "end_time": 23.1045455,
                "pitch": 80,
                "velocity": 25,
                "duration": 0.0863636,
                "tempo": 120.0
            },
            {
                "start_time": 23.1386364,
                "end_time": 23.2204545,
                "pitch": 75,
                "velocity": 25,
                "duration": 0.0818182,
                "tempo": 120.0
            },
            {
                "start_time": 23.2522727,
                "end_time": 23.3340909,
                "pitch": 79,
                "velocity": 25,
                "duration": 0.0818182,
                "tempo": 120.0
            },
            {
                "start_time": 23.3681818,
                "end_time": 23.4477273,
                "pitch": 74,
                "velocity": 25,
                "duration": 0.0795455,
                "tempo": 120.0
            },
            {
                "start_time": 23.4659091,
                "end_time": 23.5477273,
                "pitch": 78,
                "velocity": 25,
                "duration": 0.0818182,
                "tempo": 120.0
            },
            {
                "start_time": 23.5818182,
                "end_time": 23.6659091,
                "pitch": 73,
                "velocity": 25,
                "duration": 0.0840909,
                "tempo": 120.0
            },
            {
                "start_time": 23.7,
                "end_time": 23.7818182,
                "pitch": 77,
                "velocity": 25,
                "duration": 0.0818182,
                "tempo": 120.0
            },
            {
                "start_time": 23.8159091,
                "end_time": 23.9,
                "pitch": 74,
                "velocity": 25,
                "duration": 0.0840909,
                "tempo": 120.0
            },
            {
                "start_time": 23.9340909,
                "end_time": 24.0159091,
                "pitch": 78,
                "velocity": 25,
                "duration": 0.0818182,
                "tempo": 120.0
            },
            {
                "start_time": 24.0340909,
                "end_time": 24.1159091,
                "pitch": 75,
                "velocity": 25,
                "duration": 0.0818182,
                "tempo": 120.0
            },
            {
                "start_time": 24.15,
                "end_time": 24.2340909,
                "pitch": 79,
                "velocity": 25,
                "duration": 0.0840909,
                "tempo": 120.0
            },
            {
                "start_time": 24.2681818,
                "end_time": 24.35,
                "pitch": 76,
                "velocity": 25,
                "duration": 0.0818182,
                "tempo": 120.0
            },
            {
                "start_time": 24.3863636,
                "end_time": 24.4681818,
                "pitch": 80,
                "velocity": 25,
                "duration": 0.0818182,
                "tempo": 120.0
            },
            {
                "start_time": 24.4863636,
                "end_time": 24.5818182,
                "pitch": 75,
                "velocity": 25,
                "duration": 0.0954545,
                "tempo": 120.0
            },
            {
                "start_time": 24.6,
                "end_time": 24.6795455,
                "pitch": 79,
                "velocity": 25,
                "duration": 0.0795455,
                "tempo": 120.0
            },
            {
                "start_time": 24.7136364,
                "end_time": 24.7954545,
                "pitch": 74,
                "velocity": 25,
                "duration": 0.0818182,
                "tempo": 120.0
            },
            {
                "start_time": 24.8272727,
                "end_time": 24.9136364,
                "pitch": 78,
                "velocity": 25,
                "duration": 0.0863636,
                "tempo": 120.0
            },
            {
                "start_time": 24.9477273,
                "end_time": 25.0340909,
                "pitch": 73,
                "velocity": 25,
                "duration": 0.0863636,
                "tempo": 120.0
            },
            {
                "start_time": 25.0522727,
                "end_time": 25.1363636,
                "pitch": 77,
                "velocity": 25,
                "duration": 0.0840909,
                "tempo": 120.0
            },
            {
                "start_time": 25.1727273,
                "end_time": 25.2522727,
                "pitch": 74,
                "velocity": 25,
                "duration": 0.0795455,
                "tempo": 120.0
            },
            {
                "start_time": 25.2863636,
                "end_time": 25.3659091,
                "pitch": 78,
                "velocity": 25,
                "duration": 0.0795455,
                "tempo": 120.0
            },
            {
                "start_time": 25.4,
                "end_time": 25.4795455,
                "pitch": 75,
                "velocity": 25,
                "duration": 0.0795455,
                "tempo": 120.0
            },
            {
                "start_time": 25.4977273,
                "end_time": 25.5977273,
                "pitch": 79,
                "velocity": 25,
                "duration": 0.1,
                "tempo": 120.0
            },
            {
                "start_time": 25.6136364,
                "end_time": 25.6977273,
                "pitch": 76,
                "velocity": 25,
                "duration": 0.0840909,
                "tempo": 120.0
            },
            {
                "start_time": 25.7318182,
                "end_time": 25.8159091,
                "pitch": 80,
                "velocity": 25,
                "duration": 0.0840909,
                "tempo": 120.0
            },
            {
                "start_time": 25.85,
                "end_time": 25.9340909,
                "pitch": 70,
                "velocity": 40,
                "duration": 0.0840909,
                "tempo": 120.0
            },
            {
                "start_time": 25.9704545,
                "end_time": 26.0545455,
                "pitch": 70,
                "velocity": 40,
                "duration": 0.0840909,
                "tempo": 120.0
            },
            {
                "start_time": 26.0727273,
                "end_time": 26.1590909,
                "pitch": 70,
                "velocity": 40,
                "duration": 0.0863636,
                "tempo": 120.0
            },
            {
                "start_time": 26.1931818,
                "end_time": 26.2772727,
                "pitch": 70,
                "velocity": 40,
                "duration": 0.0840909,
                "tempo": 120.0
            },
            {
                "start_time": 26.5454545,
                "end_time": 26.6272727,
                "pitch": 69,
                "velocity": 40,
                "duration": 0.0818182,
                "tempo": 120.0
            },
            {
                "start_time": 26.6454545,
                "end_time": 26.7295455,
                "pitch": 69,
                "velocity": 40,
                "duration": 0.0840909,
                "tempo": 120.0
            },
            {
                "start_time": 26.7636364,
                "end_time": 26.8454545,
                "pitch": 69,
                "velocity": 40,
                "duration": 0.0818182,
                "tempo": 120.0
            },
            {
                "start_time": 26.8795455,
                "end_time": 26.9636364,
                "pitch": 67,
                "velocity": 40,
                "duration": 0.0840909,
                "tempo": 120.0
            },
            {
                "start_time": 27.2181818,
                "end_time": 27.2977273,
                "pitch": 75,
                "velocity": 25,
                "duration": 0.0795455,
                "tempo": 120.0
            },
            {
                "start_time": 27.3318182,
                "end_time": 27.4159091,
                "pitch": 79,
                "velocity": 25,
                "duration": 0.0840909,
                "tempo": 120.0
            }
        ],
        "Acoustic Bass": [
            {
                "start_time": 0.0204545,
                "end_time": 0.1022727,
                "pitch": 33,
                "velocity": 80,
                "duration": 0.0818182,
                "tempo": 120.0
            },
            {
                "start_time": 0.2363636,
                "end_time": 0.3204545,
                "pitch": 33,
                "velocity": 80,
                "duration": 0.0840909,
                "tempo": 120.0
            },
            {
                "start_time": 0.3545455,
                "end_time": 0.4363636,
                "pitch": 33,
                "velocity": 80,
                "duration": 0.0818182,
                "tempo": 120.0
            },
            {
                "start_time": 0.5863636,
                "end_time": 0.6704545,
                "pitch": 33,
                "velocity": 80,
                "duration": 0.0840909,
                "tempo": 120.0
            },
            {
                "start_time": 0.6863636,
                "end_time": 0.7681818,
                "pitch": 33,
                "velocity": 80,
                "duration": 0.0818182,
                "tempo": 120.0
            },
            {
                "start_time": 0.9159091,
                "end_time": 0.9977273,
                "pitch": 33,
                "velocity": 80,
                "duration": 0.0818182,
                "tempo": 120.0
            },
            {
                "start_time": 1.0295455,
                "end_time": 1.1159091,
                "pitch": 33,
                "velocity": 80,
                "duration": 0.0863636,
                "tempo": 120.0
            },
            {
                "start_time": 1.2545455,
                "end_time": 1.3386364,
                "pitch": 33,
                "velocity": 80,
                "duration": 0.0840909,
                "tempo": 120.0
            },
            {
                "start_time": 1.375,
                "end_time": 1.4568182,
                "pitch": 36,
                "velocity": 80,
                "duration": 0.0818182,
                "tempo": 120.0
            },
            {
                "start_time": 1.6090909,
                "end_time": 1.6909091,
                "pitch": 36,
                "velocity": 80,
                "duration": 0.0818182,
                "tempo": 120.0
            },
            {
                "start_time": 1.7090909,
                "end_time": 1.7909091,
                "pitch": 36,
                "velocity": 80,
                "duration": 0.0818182,
                "tempo": 120.0
            },
            {
                "start_time": 1.9363636,
                "end_time": 2.0181818,
                "pitch": 36,
                "velocity": 80,
                "duration": 0.0818182,
                "tempo": 120.0
            },
            {
                "start_time": 2.0522727,
                "end_time": 2.1363636,
                "pitch": 38,
                "velocity": 80,
                "duration": 0.0840909,
                "tempo": 120.0
            },
            {
                "start_time": 2.275,
                "end_time": 2.3613636,
                "pitch": 38,
                "velocity": 80,
                "duration": 0.0863636,
                "tempo": 120.0
            },
            {
                "start_time": 2.3954545,
                "end_time": 2.4772727,
                "pitch": 38,
                "velocity": 80,
                "duration": 0.0818182,
                "tempo": 120.0
            },
            {
                "start_time": 2.5090909,
                "end_time": 2.5909091,
                "pitch": 39,
                "velocity": 80,
                "duration": 0.0818182,
                "tempo": 120.0
            },
            {
                "start_time": 2.6227273,
                "end_time": 2.7045455,
                "pitch": 38,
                "velocity": 80,
                "duration": 0.0818182,
                "tempo": 120.0
            },
            {
                "start_time": 2.7227273,
                "end_time": 2.8045455,
                "pitch": 33,
                "velocity": 80,
                "duration": 0.0818182,
                "tempo": 120.0
            },
            {
                "start_time": 2.9545455,
                "end_time": 3.0386364,
                "pitch": 33,
                "velocity": 80,
                "duration": 0.0840909,
                "tempo": 120.0
            },
            {
                "start_time": 3.0727273,
                "end_time": 3.1545455,
                "pitch": 33,
                "velocity": 80,
                "duration": 0.0818182,
                "tempo": 120.0
            },
            {
                "start_time": 3.2886364,
                "end_time": 3.3727273,
                "pitch": 33,
                "velocity": 80,
                "duration": 0.0840909,
                "tempo": 120.0
            },
            {
                "start_time": 3.4068182,
                "end_time": 3.4909091,
                "pitch": 33,
                "velocity": 80,
                "duration": 0.0840909,
                "tempo": 120.0
            },
            {
                "start_time": 3.6409091,
                "end_time": 3.725,
                "pitch": 33,
                "velocity": 80,
                "duration": 0.0840909,
                "tempo": 120.0
            },
            {
                "start_time": 3.7431818,
                "end_time": 3.8409091,
                "pitch": 33,
                "velocity": 80,
                "duration": 0.0977273,
                "tempo": 120.0
            },
            {
                "start_time": 3.9772727,
                "end_time": 4.0590909,
                "pitch": 33,
                "velocity": 80,
                "duration": 0.0818182,
                "tempo": 120.0
            },
            {
                "start_time": 4.0931818,
                "end_time": 4.1772727,
                "pitch": 36,
                "velocity": 80,
                "duration": 0.0840909,
                "tempo": 120.0
            },
            {
                "start_time": 4.3113636,
                "end_time": 4.3931818,
                "pitch": 36,
                "velocity": 80,
                "duration": 0.0818182,
                "tempo": 120.0
            },
            {
                "start_time": 4.4272727,
                "end_time": 4.5113636,
                "pitch": 36,
                "velocity": 80,
                "duration": 0.0840909,
                "tempo": 120.0
            },
            {
                "start_time": 4.6613636,
                "end_time": 4.7454545,
                "pitch": 36,
                "velocity": 80,
                "duration": 0.0840909,
                "tempo": 120.0
            },
            {
                "start_time": 4.7636364,
                "end_time": 4.8590909,
                "pitch": 38,
                "velocity": 80,
                "duration": 0.0954545,
                "tempo": 120.0
            },
            {
                "start_time": 4.9909091,
                "end_time": 5.0727273,
                "pitch": 38,
                "velocity": 80,
                "duration": 0.0818182,
                "tempo": 120.0
            },
            {
                "start_time": 5.1045455,
                "end_time": 5.1909091,
                "pitch": 38,
                "velocity": 80,
                "duration": 0.0863636,
                "tempo": 120.0
            },
            {
                "start_time": 5.2272727,
                "end_time": 5.3159091,
                "pitch": 39,
                "velocity": 80,
                "duration": 0.0886364,
                "tempo": 120.0
            },
            {
                "start_time": 5.3340909,
                "end_time": 5.4227273,
                "pitch": 38,
                "velocity": 80,
                "duration": 0.0886364,
                "tempo": 120.0
            },
            {
                "start_time": 5.4590909,
                "end_time": 5.5409091,
                "pitch": 33,
                "velocity": 80,
                "duration": 0.0818182,
                "tempo": 120.0
            },
            {
                "start_time": 5.6863636,
                "end_time": 5.7681818,
                "pitch": 33,
                "velocity": 80,
                "duration": 0.0818182,
                "tempo": 120.0
            },
            {
                "start_time": 5.8022727,
                "end_time": 5.8863636,
                "pitch": 33,
                "velocity": 80,
                "duration": 0.0840909,
                "tempo": 120.0
            },
            {
                "start_time": 6.0227273,
                "end_time": 6.1090909,
                "pitch": 33,
                "velocity": 80,
                "duration": 0.0863636,
                "tempo": 120.0
            },
            {
                "start_time": 6.1454545,
                "end_time": 6.225,
                "pitch": 33,
                "velocity": 80,
                "duration": 0.0795455,
                "tempo": 120.0
            },
            {
                "start_time": 6.3568182,
                "end_time": 6.4386364,
                "pitch": 33,
                "velocity": 80,
                "duration": 0.0818182,
                "tempo": 120.0
            },
            {
                "start_time": 6.4704545,
                "end_time": 6.5545455,
                "pitch": 33,
                "velocity": 80,
                "duration": 0.0840909,
                "tempo": 120.0
            },
            {
                "start_time": 6.7045455,
                "end_time": 6.7886364,
                "pitch": 33,
                "velocity": 80,
                "duration": 0.0840909,
                "tempo": 120.0
            },
            {
                "start_time": 6.8227273,
                "end_time": 6.9068182,
                "pitch": 36,
                "velocity": 80,
                "duration": 0.0840909,
                "tempo": 120.0
            },
            {
                "start_time": 7.0454545,
                "end_time": 7.1318182,
                "pitch": 36,
                "velocity": 80,
                "duration": 0.0863636,
                "tempo": 120.0
            },
            {
                "start_time": 7.1659091,
                "end_time": 7.2477273,
                "pitch": 36,
                "velocity": 80,
                "duration": 0.0818182,
                "tempo": 120.0
            },
            {
                "start_time": 7.3772727,
                "end_time": 7.475,
                "pitch": 36,
                "velocity": 80,
                "duration": 0.0977273,
                "tempo": 120.0
            },
            {
                "start_time": 7.4931818,
                "end_time": 7.575,
                "pitch": 38,
                "velocity": 80,
                "duration": 0.0818182,
                "tempo": 120.0
            },
            {
                "start_time": 7.725,
                "end_time": 7.8090909,
                "pitch": 38,
                "velocity": 80,
                "duration": 0.0840909,
                "tempo": 120.0
            },
            {
                "start_time": 7.8431818,
                "end_time": 7.9295455,
                "pitch": 38,
                "velocity": 80,
                "duration": 0.0863636,
                "tempo": 120.0
            },
            {
                "start_time": 7.9454545,
                "end_time": 8.0318182,
                "pitch": 39,
                "velocity": 80,
                "duration": 0.0863636,
                "tempo": 120.0
            },
            {
                "start_time": 8.0659091,
                "end_time": 8.1522727,
                "pitch": 38,
                "velocity": 80,
                "duration": 0.0863636,
                "tempo": 120.0
            },
            {
                "start_time": 8.1886364,
                "end_time": 8.2681818,
                "pitch": 33,
                "velocity": 80,
                "duration": 0.0795455,
                "tempo": 120.0
            },
            {
                "start_time": 8.4,
                "end_time": 8.4954545,
                "pitch": 33,
                "velocity": 80,
                "duration": 0.0954545,
                "tempo": 120.0
            },
            {
                "start_time": 8.5136364,
                "end_time": 8.5931818,
                "pitch": 33,
                "velocity": 80,
                "duration": 0.0795455,
                "tempo": 120.0
            },
            {
                "start_time": 8.7409091,
                "end_time": 8.8227273,
                "pitch": 33,
                "velocity": 80,
                "duration": 0.0818182,
                "tempo": 120.0
            },
            {
                "start_time": 8.8545455,
                "end_time": 8.9409091,
                "pitch": 33,
                "velocity": 80,
                "duration": 0.0863636,
                "tempo": 120.0
            },
            {
                "start_time": 9.0772727,
                "end_time": 9.1636364,
                "pitch": 33,
                "velocity": 80,
                "duration": 0.0863636,
                "tempo": 120.0
            },
            {
                "start_time": 9.2,
                "end_time": 9.2840909,
                "pitch": 33,
                "velocity": 80,
                "duration": 0.0840909,
                "tempo": 120.0
            },
            {
                "start_time": 9.4340909,
                "end_time": 9.5181818,
                "pitch": 33,
                "velocity": 80,
                "duration": 0.0840909,
                "tempo": 120.0
            },
            {
                "start_time": 9.5340909,
                "end_time": 9.6159091,
                "pitch": 36,
                "velocity": 80,
                "duration": 0.0818182,
                "tempo": 120.0
            },
            {
                "start_time": 9.7613636,
                "end_time": 9.8431818,
                "pitch": 36,
                "velocity": 80,
                "duration": 0.0818182,
                "tempo": 120.0
            },
            {
                "start_time": 9.875,
                "end_time": 9.9613636,
                "pitch": 36,
                "velocity": 80,
                "duration": 0.0863636,
                "tempo": 120.0
            },
            {
                "start_time": 10.1,
                "end_time": 10.1863636,
                "pitch": 36,
                "velocity": 80,
                "duration": 0.0863636,
                "tempo": 120.0
            },
            {
                "start_time": 10.2204545,
                "end_time": 10.3022727,
                "pitch": 38,
                "velocity": 80,
                "duration": 0.0818182,
                "tempo": 120.0
            },
            {
                "start_time": 10.4477273,
                "end_time": 10.5295455,
                "pitch": 38,
                "velocity": 80,
                "duration": 0.0818182,
                "tempo": 120.0
            },
            {
                "start_time": 10.5454545,
                "end_time": 10.6318182,
                "pitch": 38,
                "velocity": 80,
                "duration": 0.0863636,
                "tempo": 120.0
            },
            {
                "start_time": 10.6659091,
                "end_time": 10.7522727,
                "pitch": 39,
                "velocity": 80,
                "duration": 0.0863636,
                "tempo": 120.0
            },
            {
                "start_time": 10.7863636,
                "end_time": 10.8727273,
                "pitch": 38,
                "velocity": 80,
                "duration": 0.0863636,
                "tempo": 120.0
            },
            {
                "start_time": 10.9090909,
                "end_time": 10.9909091,
                "pitch": 36,
                "velocity": 80,
                "duration": 0.0818182,
                "tempo": 120.0
            },
            {
                "start_time": 11.0068182,
                "end_time": 11.1068182,
                "pitch": 43,
                "velocity": 80,
                "duration": 0.1,
                "tempo": 120.0
            },
            {
                "start_time": 11.125,
                "end_time": 11.2090909,
                "pitch": 36,
                "velocity": 80,
                "duration": 0.0840909,
                "tempo": 120.0
            },
            {
                "start_time": 11.2431818,
                "end_time": 11.325,
                "pitch": 48,
                "velocity": 80,
                "duration": 0.0818182,
                "tempo": 120.0
            },
            {
                "start_time": 11.3590909,
                "end_time": 11.4409091,
                "pitch": 36,
                "velocity": 80,
                "duration": 0.0818182,
                "tempo": 120.0
            },
            {
                "start_time": 11.475,
                "end_time": 11.5590909,
                "pitch": 43,
                "velocity": 80,
                "duration": 0.0840909,
                "tempo": 120.0
            },
            {
                "start_time": 11.575,
                "end_time": 11.6568182,
                "pitch": 36,
                "velocity": 80,
                "duration": 0.0818182,
                "tempo": 120.0
            },
            {
                "start_time": 11.6909091,
                "end_time": 11.7704545,
                "pitch": 43,
                "velocity": 80,
                "duration": 0.0795455,
                "tempo": 120.0
            },
            {
                "start_time": 11.8045455,
                "end_time": 11.8863636,
                "pitch": 36,
                "velocity": 80,
                "duration": 0.0818182,
                "tempo": 120.0
            },
            {
                "start_time": 11.9181818,
                "end_time": 12.0045455,
                "pitch": 48,
                "velocity": 80,
                "duration": 0.0863636,
                "tempo": 120.0
            },
            {
                "start_time": 12.0227273,
                "end_time": 12.125,
                "pitch": 36,
                "velocity": 80,
                "duration": 0.1022727,
                "tempo": 120.0
            },
            {
                "start_time": 12.1431818,
                "end_time": 12.2272727,
                "pitch": 43,
                "velocity": 80,
                "duration": 0.0840909,
                "tempo": 120.0
            },
            {
                "start_time": 12.2636364,
                "end_time": 12.3431818,
                "pitch": 39,
                "velocity": 80,
                "duration": 0.0795455,
                "tempo": 120.0
            },
            {
                "start_time": 12.3772727,
                "end_time": 12.4590909,
                "pitch": 42,
                "velocity": 80,
                "duration": 0.0818182,
                "tempo": 120.0
            },
            {
                "start_time": 12.4909091,
                "end_time": 12.5727273,
                "pitch": 39,
                "velocity": 80,
                "duration": 0.0818182,
                "tempo": 120.0
            },
            {
                "start_time": 12.5886364,
                "end_time": 12.6704545,
                "pitch": 45,
                "velocity": 80,
                "duration": 0.0818182,
                "tempo": 120.0
            },
            {
                "start_time": 12.7045455,
                "end_time": 12.7886364,
                "pitch": 39,
                "velocity": 80,
                "duration": 0.0840909,
                "tempo": 120.0
            },
            {
                "start_time": 12.8227273,
                "end_time": 12.9045455,
                "pitch": 42,
                "velocity": 80,
                "duration": 0.0818182,
                "tempo": 120.0
            },
            {
                "start_time": 12.9386364,
                "end_time": 13.0227273,
                "pitch": 39,
                "velocity": 80,
                "duration": 0.0840909,
                "tempo": 120.0
            },
            {
                "start_time": 13.0568182,
                "end_time": 13.1386364,
                "pitch": 48,
                "velocity": 80,
                "duration": 0.0818182,
                "tempo": 120.0
            },
            {
                "start_time": 13.1568182,
                "end_time": 13.2409091,
                "pitch": 39,
                "velocity": 80,
                "duration": 0.0840909,
                "tempo": 120.0
            },
            {
                "start_time": 13.275,
                "end_time": 13.3568182,
                "pitch": 45,
                "velocity": 80,
                "duration": 0.0818182,
                "tempo": 120.0
            },
            {
                "start_time": 13.3909091,
                "end_time": 13.475,
                "pitch": 39,
                "velocity": 80,
                "duration": 0.0840909,
                "tempo": 120.0
            },
            {
                "start_time": 13.5090909,
                "end_time": 13.5909091,
                "pitch": 42,
                "velocity": 80,
                "duration": 0.0818182,
                "tempo": 120.0
            },
            {
                "start_time": 13.6090909,
                "end_time": 13.7068182,
                "pitch": 42,
                "velocity": 80,
                "duration": 0.0977273,
                "tempo": 120.0
            },
            {
                "start_time": 13.7227273,
                "end_time": 13.8045455,
                "pitch": 45,
                "velocity": 80,
                "duration": 0.0818182,
                "tempo": 120.0
            },
            {
                "start_time": 13.8386364,
                "end_time": 13.9181818,
                "pitch": 48,
                "velocity": 80,
                "duration": 0.0795455,
                "tempo": 120.0
            },
            {
                "start_time": 13.9522727,
                "end_time": 14.0386364,
                "pitch": 45,
                "velocity": 80,
                "duration": 0.0863636,
                "tempo": 120.0
            },
            {
                "start_time": 14.0727273,
                "end_time": 14.1613636,
                "pitch": 48,
                "velocity": 80,
                "duration": 0.0886364,
                "tempo": 120.0
            },
            {
                "start_time": 14.1795455,
                "end_time": 14.2681818,
                "pitch": 51,
                "velocity": 80,
                "duration": 0.0886364,
                "tempo": 120.0
            },
            {
                "start_time": 14.3045455,
                "end_time": 14.3840909,
                "pitch": 54,
                "velocity": 80,
                "duration": 0.0795455,
                "tempo": 120.0
            },
            {
                "start_time": 14.4136364,
                "end_time": 14.4931818,
                "pitch": 51,
                "velocity": 80,
                "duration": 0.0795455,
                "tempo": 120.0
            },
            {
                "start_time": 14.525,
                "end_time": 14.6045455,
                "pitch": 48,
                "velocity": 80,
                "duration": 0.0795455,
                "tempo": 120.0
            },
            {
                "start_time": 14.6204545,
                "end_time": 14.7204545,
                "pitch": 51,
                "velocity": 80,
                "duration": 0.1,
                "tempo": 120.0
            },
            {
                "start_time": 14.7363636,
                "end_time": 14.8204545,
                "pitch": 48,
                "velocity": 80,
                "duration": 0.0840909,
                "tempo": 120.0
            },
            {
                "start_time": 14.8545455,
                "end_time": 14.9363636,
                "pitch": 42,
                "velocity": 80,
                "duration": 0.0818182,
                "tempo": 120.0
            },
            {
                "start_time": 14.9704545,
                "end_time": 15.0568182,
                "pitch": 45,
                "velocity": 80,
                "duration": 0.0863636,
                "tempo": 120.0
            },
            {
                "start_time": 15.0909091,
                "end_time": 15.1772727,
                "pitch": 48,
                "velocity": 80,
                "duration": 0.0863636,
                "tempo": 120.0
            },
            {
                "start_time": 15.1954545,
                "end_time": 15.2795455,
                "pitch": 51,
                "velocity": 80,
                "duration": 0.0840909,
                "tempo": 120.0
            },
            {
                "start_time": 15.3159091,
                "end_time": 15.95,
                "pitch": 54,
                "velocity": 80,
                "duration": 0.6340909,
                "tempo": 120.0
            },
            {
                "start_time": 15.9818182,
                "end_time": 16.0681818,
                "pitch": 54,
                "velocity": 80,
                "duration": 0.0863636,
                "tempo": 120.0
            },
            {
                "start_time": 16.1045455,
                "end_time": 16.1931818,
                "pitch": 54,
                "velocity": 80,
                "duration": 0.0886364,
                "tempo": 120.0
            },
            {
                "start_time": 16.2113636,
                "end_time": 16.3,
                "pitch": 54,
                "velocity": 80,
                "duration": 0.0886364,
                "tempo": 120.0
            },
            {
                "start_time": 16.3363636,
                "end_time": 16.4159091,
                "pitch": 28,
                "velocity": 80,
                "duration": 0.0795455,
                "tempo": 120.0
            },
            {
                "start_time": 16.45,
                "end_time": 16.5295455,
                "pitch": 28,
                "velocity": 80,
                "duration": 0.0795455,
                "tempo": 120.0
            },
            {
                "start_time": 16.5636364,
                "end_time": 16.6431818,
                "pitch": 28,
                "velocity": 80,
                "duration": 0.0795455,
                "tempo": 120.0
            },
            {
                "start_time": 16.6772727,
                "end_time": 16.7613636,
                "pitch": 39,
                "velocity": 80,
                "duration": 0.0840909,
                "tempo": 120.0
            },
            {
                "start_time": 16.7795455,
                "end_time": 16.8659091,
                "pitch": 35,
                "velocity": 80,
                "duration": 0.0863636,
                "tempo": 120.0
            },
            {
                "start_time": 16.9,
                "end_time": 16.9863636,
                "pitch": 38,
                "velocity": 80,
                "duration": 0.0863636,
                "tempo": 120.0
            },
            {
                "start_time": 17.0227273,
                "end_time": 17.1045455,
                "pitch": 28,
                "velocity": 80,
                "duration": 0.0818182,
                "tempo": 120.0
            },
            {
                "start_time": 17.1386364,
                "end_time": 17.2227273,
                "pitch": 28,
                "velocity": 80,
                "duration": 0.0840909,
                "tempo": 120.0
            },
            {
                "start_time": 17.2386364,
                "end_time": 17.3386364,
                "pitch": 28,
                "velocity": 80,
                "duration": 0.1,
                "tempo": 120.0
            },
            {
                "start_time": 17.3568182,
                "end_time": 17.4363636,
                "pitch": 39,
                "velocity": 80,
                "duration": 0.0795455,
                "tempo": 120.0
            },
            {
                "start_time": 17.4704545,
                "end_time": 17.5522727,
                "pitch": 35,
                "velocity": 80,
                "duration": 0.0818182,
                "tempo": 120.0
            },
            {
                "start_time": 17.5840909,
                "end_time": 17.6659091,
                "pitch": 38,
                "velocity": 80,
                "duration": 0.0818182,
                "tempo": 120.0
            },
            {
                "start_time": 17.7,
                "end_time": 17.7840909,
                "pitch": 28,
                "velocity": 80,
                "duration": 0.0840909,
                "tempo": 120.0
            },
            {
                "start_time": 17.8,
                "end_time": 17.8863636,
                "pitch": 28,
                "velocity": 80,
                "duration": 0.0863636,
                "tempo": 120.0
            },
            {
                "start_time": 17.9204545,
                "end_time": 18.0068182,
                "pitch": 28,
                "velocity": 80,
                "duration": 0.0863636,
                "tempo": 120.0
            },
            {
                "start_time": 18.0431818,
                "end_time": 18.1227273,
                "pitch": 39,
                "velocity": 80,
                "duration": 0.0795455,
                "tempo": 120.0
            },
            {
                "start_time": 18.1568182,
                "end_time": 18.2363636,
                "pitch": 35,
                "velocity": 80,
                "duration": 0.0795455,
                "tempo": 120.0
            },
            {
                "start_time": 18.2545455,
                "end_time": 18.3522727,
                "pitch": 38,
                "velocity": 80,
                "duration": 0.0977273,
                "tempo": 120.0
            },
            {
                "start_time": 18.3681818,
                "end_time": 18.45,
                "pitch": 28,
                "velocity": 80,
                "duration": 0.0818182,
                "tempo": 120.0
            },
            {
                "start_time": 18.4840909,
                "end_time": 18.5681818,
                "pitch": 28,
                "velocity": 80,
                "duration": 0.0840909,
                "tempo": 120.0
            },
            {
                "start_time": 18.6022727,
                "end_time": 18.6863636,
                "pitch": 28,
                "velocity": 80,
                "duration": 0.0840909,
                "tempo": 120.0
            },
            {
                "start_time": 18.7181818,
                "end_time": 18.8045455,
                "pitch": 39,
                "velocity": 80,
                "duration": 0.0863636,
                "tempo": 120.0
            },
            {
                "start_time": 18.8227273,
                "end_time": 18.9068182,
                "pitch": 35,
                "velocity": 80,
                "duration": 0.0840909,
                "tempo": 120.0
            },
            {
                "start_time": 18.9431818,
                "end_time": 19.0295455,
                "pitch": 38,
                "velocity": 80,
                "duration": 0.0863636,
                "tempo": 120.0
            },
            {
                "start_time": 19.0636364,
                "end_time": 19.1454545,
                "pitch": 28,
                "velocity": 80,
                "duration": 0.0818182,
                "tempo": 120.0
            },
            {
                "start_time": 19.1772727,
                "end_time": 19.2590909,
                "pitch": 28,
                "velocity": 80,
                "duration": 0.0818182,
                "tempo": 120.0
            },
            {
                "start_time": 19.275,
                "end_time": 19.3727273,
                "pitch": 28,
                "velocity": 80,
                "duration": 0.0977273,
                "tempo": 120.0
            },
            {
                "start_time": 19.3909091,
                "end_time": 19.4727273,
                "pitch": 39,
                "velocity": 80,
                "duration": 0.0818182,
                "tempo": 120.0
            },
            {
                "start_time": 19.5068182,
                "end_time": 19.5886364,
                "pitch": 35,
                "velocity": 80,
                "duration": 0.0818182,
                "tempo": 120.0
            },
            {
                "start_time": 19.6227273,
                "end_time": 19.7068182,
                "pitch": 38,
                "velocity": 80,
                "duration": 0.0840909,
                "tempo": 120.0
            },
            {
                "start_time": 19.7409091,
                "end_time": 19.825,
                "pitch": 28,
                "velocity": 80,
                "duration": 0.0840909,
                "tempo": 120.0
            },
            {
                "start_time": 19.8431818,
                "end_time": 19.9295455,
                "pitch": 28,
                "velocity": 80,
                "duration": 0.0863636,
                "tempo": 120.0
            },
            {
                "start_time": 19.9636364,
                "end_time": 20.05,
                "pitch": 28,
                "velocity": 80,
                "duration": 0.0863636,
                "tempo": 120.0
            },
            {
                "start_time": 20.0863636,
                "end_time": 20.1659091,
                "pitch": 39,
                "velocity": 80,
                "duration": 0.0795455,
                "tempo": 120.0
            },
            {
                "start_time": 20.2,
                "end_time": 20.2795455,
                "pitch": 35,
                "velocity": 80,
                "duration": 0.0795455,
                "tempo": 120.0
            },
            {
                "start_time": 20.3136364,
                "end_time": 20.3931818,
                "pitch": 38,
                "velocity": 80,
                "duration": 0.0795455,
                "tempo": 120.0
            },
            {
                "start_time": 20.4113636,
                "end_time": 20.4931818,
                "pitch": 28,
                "velocity": 80,
                "duration": 0.0818182,
                "tempo": 120.0
            },
            {
                "start_time": 20.5272727,
                "end_time": 20.6113636,
                "pitch": 29,
                "velocity": 80,
                "duration": 0.0840909,
                "tempo": 120.0
            },
            {
                "start_time": 20.6454545,
                "end_time": 20.7272727,
                "pitch": 30,
                "velocity": 80,
                "duration": 0.0818182,
                "tempo": 120.0
            },
            {
                "start_time": 20.7613636,
                "end_time": 20.8454545,
                "pitch": 31,
                "velocity": 80,
                "duration": 0.0840909,
                "tempo": 120.0
            },
            {
                "start_time": 20.8636364,
                "end_time": 20.9613636,
                "pitch": 30,
                "velocity": 80,
                "duration": 0.0977273,
                "tempo": 120.0
            },
            {
                "start_time": 20.9795455,
                "end_time": 21.0636364,
                "pitch": 29,
                "velocity": 80,
                "duration": 0.0840909,
                "tempo": 120.0
            },
            {
                "start_time": 21.0977273,
                "end_time": 21.1795455,
                "pitch": 28,
                "velocity": 80,
                "duration": 0.0818182,
                "tempo": 120.0
            },
            {
                "start_time": 21.2136364,
                "end_time": 21.2977273,
                "pitch": 30,
                "velocity": 80,
                "duration": 0.0840909,
                "tempo": 120.0
            },
            {
                "start_time": 21.3318182,
                "end_time": 21.4136364,
                "pitch": 31,
                "velocity": 80,
                "duration": 0.0818182,
                "tempo": 120.0
            },
            {
                "start_time": 21.4318182,
                "end_time": 21.5159091,
                "pitch": 32,
                "velocity": 80,
                "duration": 0.0840909,
                "tempo": 120.0
            },
            {
                "start_time": 21.7840909,
                "end_time": 21.8659091,
                "pitch": 33,
                "velocity": 80,
                "duration": 0.0818182,
                "tempo": 120.0
            },
            {
                "start_time": 22.0,
                "end_time": 22.0840909,
                "pitch": 33,
                "velocity": 80,
                "duration": 0.0840909,
                "tempo": 120.0
            },
            {
                "start_time": 22.1181818,
                "end_time": 22.1977273,
                "pitch": 33,
                "velocity": 80,
                "duration": 0.0795455,
                "tempo": 120.0
            },
            {
                "start_time": 22.3454545,
                "end_time": 22.4272727,
                "pitch": 33,
                "velocity": 80,
                "duration": 0.0818182,
                "tempo": 120.0
            },
            {
                "start_time": 22.4431818,
                "end_time": 22.525,
                "pitch": 33,
                "velocity": 80,
                "duration": 0.0818182,
                "tempo": 120.0
            },
            {
                "start_time": 22.6772727,
                "end_time": 22.7613636,
                "pitch": 33,
                "velocity": 80,
                "duration": 0.0840909,
                "tempo": 120.0
            },
            {
                "start_time": 22.7931818,
                "end_time": 22.8795455,
                "pitch": 33,
                "velocity": 80,
                "duration": 0.0863636,
                "tempo": 120.0
            },
            {
                "start_time": 23.0181818,
                "end_time": 23.1045455,
                "pitch": 33,
                "velocity": 80,
                "duration": 0.0863636,
                "tempo": 120.0
            },
            {
                "start_time": 23.1386364,
                "end_time": 23.2204545,
                "pitch": 36,
                "velocity": 80,
                "duration": 0.0818182,
                "tempo": 120.0
            },
            {
                "start_time": 23.3659091,
                "end_time": 23.4477273,
                "pitch": 36,
                "velocity": 80,
                "duration": 0.0818182,
                "tempo": 120.0
            },
            {
                "start_time": 23.4636364,
                "end_time": 23.5477273,
                "pitch": 36,
                "velocity": 80,
                "duration": 0.0840909,
                "tempo": 120.0
            },
            {
                "start_time": 23.6977273,
                "end_time": 23.7818182,
                "pitch": 36,
                "velocity": 80,
                "duration": 0.0840909,
                "tempo": 120.0
            },
            {
                "start_time": 23.8159091,
                "end_time": 23.8977273,
                "pitch": 38,
                "velocity": 80,
                "duration": 0.0818182,
                "tempo": 120.0
            },
            {
                "start_time": 24.0318182,
                "end_time": 24.1159091,
                "pitch": 38,
                "velocity": 80,
                "duration": 0.0840909,
                "tempo": 120.0
            },
            {
                "start_time": 24.15,
                "end_time": 24.2340909,
                "pitch": 38,
                "velocity": 80,
                "duration": 0.0840909,
                "tempo": 120.0
            },
            {
                "start_time": 24.2681818,
                "end_time": 24.35,
                "pitch": 39,
                "velocity": 80,
                "duration": 0.0818182,
                "tempo": 120.0
            },
            {
                "start_time": 24.3840909,
                "end_time": 24.4681818,
                "pitch": 38,
                "velocity": 80,
                "duration": 0.0840909,
                "tempo": 120.0
            },
            {
                "start_time": 24.4863636,
                "end_time": 24.5818182,
                "pitch": 33,
                "velocity": 80,
                "duration": 0.0954545,
                "tempo": 120.0
            },
            {
                "start_time": 24.7136364,
                "end_time": 24.7931818,
                "pitch": 33,
                "velocity": 80,
                "duration": 0.0795455,
                "tempo": 120.0
            },
            {
                "start_time": 24.8272727,
                "end_time": 24.9113636,
                "pitch": 33,
                "velocity": 80,
                "duration": 0.0840909,
                "tempo": 120.0
            },
            {
                "start_time": 25.05,
                "end_time": 25.1363636,
                "pitch": 33,
                "velocity": 80,
                "duration": 0.0863636,
                "tempo": 120.0
            },
            {
                "start_time": 25.1704545,
                "end_time": 25.2522727,
                "pitch": 33,
                "velocity": 80,
                "duration": 0.0818182,
                "tempo": 120.0
            },
            {
                "start_time": 25.3977273,
                "end_time": 25.4795455,
                "pitch": 33,
                "velocity": 80,
                "duration": 0.0818182,
                "tempo": 120.0
            },
            {
                "start_time": 25.4954545,
                "end_time": 25.5954545,
                "pitch": 33,
                "velocity": 80,
                "duration": 0.1,
                "tempo": 120.0
            },
            {
                "start_time": 25.7295455,
                "end_time": 25.8136364,
                "pitch": 33,
                "velocity": 80,
                "duration": 0.0840909,
                "tempo": 120.0
            },
            {
                "start_time": 25.85,
                "end_time": 25.9340909,
                "pitch": 39,
                "velocity": 80,
                "duration": 0.0840909,
                "tempo": 120.0
            },
            {
                "start_time": 25.9681818,
                "end_time": 26.0545455,
                "pitch": 39,
                "velocity": 80,
                "duration": 0.0863636,
                "tempo": 120.0
            },
            {
                "start_time": 26.0727273,
                "end_time": 26.1568182,
                "pitch": 39,
                "velocity": 80,
                "duration": 0.0840909,
                "tempo": 120.0
            },
            {
                "start_time": 26.1931818,
                "end_time": 26.2772727,
                "pitch": 39,
                "velocity": 80,
                "duration": 0.0840909,
                "tempo": 120.0
            },
            {
                "start_time": 26.5454545,
                "end_time": 26.6272727,
                "pitch": 38,
                "velocity": 80,
                "duration": 0.0818182,
                "tempo": 120.0
            },
            {
                "start_time": 26.6454545,
                "end_time": 26.7272727,
                "pitch": 38,
                "velocity": 80,
                "duration": 0.0818182,
                "tempo": 120.0
            },
            {
                "start_time": 26.7613636,
                "end_time": 26.8454545,
                "pitch": 38,
                "velocity": 80,
                "duration": 0.0840909,
                "tempo": 120.0
            },
            {
                "start_time": 26.8795455,
                "end_time": 26.9613636,
                "pitch": 36,
                "velocity": 80,
                "duration": 0.0818182,
                "tempo": 120.0
            },
            {
                "start_time": 27.2159091,
                "end_time": 27.2977273,
                "pitch": 33,
                "velocity": 80,
                "duration": 0.0818182,
                "tempo": 120.0
            }
        ],
        "Electric Piano 1": [
            {
                "start_time": 0.3545455,
                "end_time": 0.3704545,
                "pitch": 24,
                "velocity": 80,
                "duration": 0.0159091,
                "tempo": 120.0
            },
            {
                "start_time": 0.3704545,
                "end_time": 0.4022727,
                "pitch": 21,
                "velocity": 80,
                "duration": 0.0318182,
                "tempo": 120.0
            },
            {
                "start_time": 0.4022727,
                "end_time": 0.4363636,
                "pitch": 19,
                "velocity": 80,
                "duration": 0.0340909,
                "tempo": 120.0
            },
            {
                "start_time": 0.4363636,
                "end_time": 0.4522727,
                "pitch": 15,
                "velocity": 80,
                "duration": 0.0159091,
                "tempo": 120.0
            },
            {
                "start_time": 0.4522727,
                "end_time": 0.4704545,
                "pitch": 13,
                "velocity": 80,
                "duration": 0.0181818,
                "tempo": 120.0
            },
            {
                "start_time": 0.4704545,
                "end_time": 0.4863636,
                "pitch": 11,
                "velocity": 80,
                "duration": 0.0159091,
                "tempo": 120.0
            },
            {
                "start_time": 0.4863636,
                "end_time": 0.5022727,
                "pitch": 8,
                "velocity": 80,
                "duration": 0.0159091,
                "tempo": 120.0
            },
            {
                "start_time": 0.5022727,
                "end_time": 0.5204545,
                "pitch": 5,
                "velocity": 80,
                "duration": 0.0181818,
                "tempo": 120.0
            },
            {
                "start_time": 0.5204545,
                "end_time": 0.6045455,
                "pitch": 2,
                "velocity": 80,
                "duration": 0.0840909,
                "tempo": 120.0
            },
            {
                "start_time": 0.6045455,
                "end_time": 0.6704545,
                "pitch": 31,
                "velocity": 80,
                "duration": 0.0659091,
                "tempo": 120.0
            },
            {
                "start_time": 1.0318182,
                "end_time": 1.0454545,
                "pitch": 24,
                "velocity": 80,
                "duration": 0.0136364,
                "tempo": 120.0
            },
            {
                "start_time": 1.0454545,
                "end_time": 1.0818182,
                "pitch": 21,
                "velocity": 80,
                "duration": 0.0363636,
                "tempo": 120.0
            },
            {
                "start_time": 1.0818182,
                "end_time": 1.1159091,
                "pitch": 19,
                "velocity": 80,
                "duration": 0.0340909,
                "tempo": 120.0
            },
            {
                "start_time": 1.1159091,
                "end_time": 1.1340909,
                "pitch": 15,
                "velocity": 80,
                "duration": 0.0181818,
                "tempo": 120.0
            },
            {
                "start_time": 1.1340909,
                "end_time": 1.15,
                "pitch": 13,
                "velocity": 80,
                "duration": 0.0159091,
                "tempo": 120.0
            },
            {
                "start_time": 1.15,
                "end_time": 1.1659091,
                "pitch": 11,
                "velocity": 80,
                "duration": 0.0159091,
                "tempo": 120.0
            },
            {
                "start_time": 1.1659091,
                "end_time": 1.1840909,
                "pitch": 8,
                "velocity": 80,
                "duration": 0.0181818,
                "tempo": 120.0
            },
            {
                "start_time": 1.1840909,
                "end_time": 1.2022727,
                "pitch": 5,
                "velocity": 80,
                "duration": 0.0181818,
                "tempo": 120.0
            },
            {
                "start_time": 1.2022727,
                "end_time": 1.2886364,
                "pitch": 2,
                "velocity": 80,
                "duration": 0.0863636,
                "tempo": 120.0
            },
            {
                "start_time": 1.2886364,
                "end_time": 1.3409091,
                "pitch": 31,
                "velocity": 80,
                "duration": 0.0522727,
                "tempo": 120.0
            },
            {
                "start_time": 1.7113636,
                "end_time": 1.725,
                "pitch": 24,
                "velocity": 80,
                "duration": 0.0136364,
                "tempo": 120.0
            },
            {
                "start_time": 1.725,
                "end_time": 1.7568182,
                "pitch": 21,
                "velocity": 80,
                "duration": 0.0318182,
                "tempo": 120.0
            },
            {
                "start_time": 1.7568182,
                "end_time": 1.7909091,
                "pitch": 19,
                "velocity": 80,
                "duration": 0.0340909,
                "tempo": 120.0
            },
            {
                "start_time": 1.7909091,
                "end_time": 1.8068182,
                "pitch": 15,
                "velocity": 80,
                "duration": 0.0159091,
                "tempo": 120.0
            },
            {
                "start_time": 1.8068182,
                "end_time": 1.825,
                "pitch": 13,
                "velocity": 80,
                "duration": 0.0181818,
                "tempo": 120.0
            },
            {
                "start_time": 1.825,
                "end_time": 1.8386364,
                "pitch": 11,
                "velocity": 80,
                "duration": 0.0136364,
                "tempo": 120.0
            },
            {
                "start_time": 1.8386364,
                "end_time": 1.8545455,
                "pitch": 8,
                "velocity": 80,
                "duration": 0.0159091,
                "tempo": 120.0
            },
            {
                "start_time": 1.8545455,
                "end_time": 1.8727273,
                "pitch": 5,
                "velocity": 80,
                "duration": 0.0181818,
                "tempo": 120.0
            },
            {
                "start_time": 1.8727273,
                "end_time": 1.9522727,
                "pitch": 2,
                "velocity": 80,
                "duration": 0.0795455,
                "tempo": 120.0
            },
            {
                "start_time": 1.9522727,
                "end_time": 2.0181818,
                "pitch": 31,
                "velocity": 80,
                "duration": 0.0659091,
                "tempo": 120.0
            },
            {
                "start_time": 2.3977273,
                "end_time": 2.4113636,
                "pitch": 24,
                "velocity": 80,
                "duration": 0.0136364,
                "tempo": 120.0
            },
            {
                "start_time": 2.4113636,
                "end_time": 2.4431818,
                "pitch": 21,
                "velocity": 80,
                "duration": 0.0318182,
                "tempo": 120.0
            },
            {
                "start_time": 2.4431818,
                "end_time": 2.4772727,
                "pitch": 19,
                "velocity": 80,
                "duration": 0.0340909,
                "tempo": 120.0
            },
            {
                "start_time": 2.5113636,
                "end_time": 2.525,
                "pitch": 24,
                "velocity": 80,
                "duration": 0.0136364,
                "tempo": 120.0
            },
            {
                "start_time": 2.525,
                "end_time": 2.5568182,
                "pitch": 21,
                "velocity": 80,
                "duration": 0.0318182,
                "tempo": 120.0
            },
            {
                "start_time": 2.5568182,
                "end_time": 2.5909091,
                "pitch": 19,
                "velocity": 80,
                "duration": 0.0340909,
                "tempo": 120.0
            },
            {
                "start_time": 2.625,
                "end_time": 2.6386364,
                "pitch": 24,
                "velocity": 80,
                "duration": 0.0136364,
                "tempo": 120.0
            },
            {
                "start_time": 2.6386364,
                "end_time": 2.6727273,
                "pitch": 21,
                "velocity": 80,
                "duration": 0.0340909,
                "tempo": 120.0
            },
            {
                "start_time": 2.6727273,
                "end_time": 2.7045455,
                "pitch": 19,
                "velocity": 80,
                "duration": 0.0318182,
                "tempo": 120.0
            },
            {
                "start_time": 3.0727273,
                "end_time": 3.0886364,
                "pitch": 24,
                "velocity": 80,
                "duration": 0.0159091,
                "tempo": 120.0
            },
            {
                "start_time": 3.0886364,
                "end_time": 3.1227273,
                "pitch": 21,
                "velocity": 80,
                "duration": 0.0340909,
                "tempo": 120.0
            },
            {
                "start_time": 3.1227273,
                "end_time": 3.1568182,
                "pitch": 19,
                "velocity": 80,
                "duration": 0.0340909,
                "tempo": 120.0
            },
            {
                "start_time": 3.1568182,
                "end_time": 3.1727273,
                "pitch": 15,
                "velocity": 80,
                "duration": 0.0159091,
                "tempo": 120.0
            },
            {
                "start_time": 3.1727273,
                "end_time": 3.1909091,
                "pitch": 13,
                "velocity": 80,
                "duration": 0.0181818,
                "tempo": 120.0
            },
            {
                "start_time": 3.1909091,
                "end_time": 3.2068182,
                "pitch": 11,
                "velocity": 80,
                "duration": 0.0159091,
                "tempo": 120.0
            },
            {
                "start_time": 3.2068182,
                "end_time": 3.2227273,
                "pitch": 8,
                "velocity": 80,
                "duration": 0.0159091,
                "tempo": 120.0
            },
            {
                "start_time": 3.2227273,
                "end_time": 3.2386364,
                "pitch": 5,
                "velocity": 80,
                "duration": 0.0159091,
                "tempo": 120.0
            },
            {
                "start_time": 3.2386364,
                "end_time": 3.3227273,
                "pitch": 2,
                "velocity": 80,
                "duration": 0.0840909,
                "tempo": 120.0
            },
            {
                "start_time": 3.3227273,
                "end_time": 3.3727273,
                "pitch": 31,
                "velocity": 80,
                "duration": 0.05,
                "tempo": 120.0
            },
            {
                "start_time": 3.7431818,
                "end_time": 3.7568182,
                "pitch": 24,
                "velocity": 80,
                "duration": 0.0136364,
                "tempo": 120.0
            },
            {
                "start_time": 3.7568182,
                "end_time": 3.7909091,
                "pitch": 21,
                "velocity": 80,
                "duration": 0.0340909,
                "tempo": 120.0
            },
            {
                "start_time": 3.7909091,
                "end_time": 3.825,
                "pitch": 19,
                "velocity": 80,
                "duration": 0.0340909,
                "tempo": 120.0
            },
            {
                "start_time": 3.825,
                "end_time": 3.8431818,
                "pitch": 15,
                "velocity": 80,
                "duration": 0.0181818,
                "tempo": 120.0
            },
            {
                "start_time": 3.8431818,
                "end_time": 3.8613636,
                "pitch": 13,
                "velocity": 80,
                "duration": 0.0181818,
                "tempo": 120.0
            },
            {
                "start_time": 3.8613636,
                "end_time": 3.875,
                "pitch": 11,
                "velocity": 80,
                "duration": 0.0136364,
                "tempo": 120.0
            },
            {
                "start_time": 3.875,
                "end_time": 3.8909091,
                "pitch": 8,
                "velocity": 80,
                "duration": 0.0159091,
                "tempo": 120.0
            },
            {
                "start_time": 3.8909091,
                "end_time": 3.9090909,
                "pitch": 5,
                "velocity": 80,
                "duration": 0.0181818,
                "tempo": 120.0
            },
            {
                "start_time": 3.9090909,
                "end_time": 3.9931818,
                "pitch": 2,
                "velocity": 80,
                "duration": 0.0840909,
                "tempo": 120.0
            },
            {
                "start_time": 3.9931818,
                "end_time": 4.0590909,
                "pitch": 31,
                "velocity": 80,
                "duration": 0.0659091,
                "tempo": 120.0
            },
            {
                "start_time": 4.4295455,
                "end_time": 4.4431818,
                "pitch": 24,
                "velocity": 80,
                "duration": 0.0136364,
                "tempo": 120.0
            },
            {
                "start_time": 4.4431818,
                "end_time": 4.4772727,
                "pitch": 21,
                "velocity": 80,
                "duration": 0.0340909,
                "tempo": 120.0
            },
            {
                "start_time": 4.4772727,
                "end_time": 4.5113636,
                "pitch": 19,
                "velocity": 80,
                "duration": 0.0340909,
                "tempo": 120.0
            },
            {
                "start_time": 4.5113636,
                "end_time": 4.5272727,
                "pitch": 15,
                "velocity": 80,
                "duration": 0.0159091,
                "tempo": 120.0
            },
            {
                "start_time": 4.5272727,
                "end_time": 4.5454545,
                "pitch": 13,
                "velocity": 80,
                "duration": 0.0181818,
                "tempo": 120.0
            },
            {
                "start_time": 4.5454545,
                "end_time": 4.5613636,
                "pitch": 11,
                "velocity": 80,
                "duration": 0.0159091,
                "tempo": 120.0
            },
            {
                "start_time": 4.5613636,
                "end_time": 4.5772727,
                "pitch": 8,
                "velocity": 80,
                "duration": 0.0159091,
                "tempo": 120.0
            },
            {
                "start_time": 4.5772727,
                "end_time": 4.5954545,
                "pitch": 5,
                "velocity": 80,
                "duration": 0.0181818,
                "tempo": 120.0
            },
            {
                "start_time": 4.5954545,
                "end_time": 4.6795455,
                "pitch": 2,
                "velocity": 80,
                "duration": 0.0840909,
                "tempo": 120.0
            },
            {
                "start_time": 4.6795455,
                "end_time": 4.7454545,
                "pitch": 31,
                "velocity": 80,
                "duration": 0.0659091,
                "tempo": 120.0
            },
            {
                "start_time": 4.9909091,
                "end_time": 5.0068182,
                "pitch": 24,
                "velocity": 80,
                "duration": 0.0159091,
                "tempo": 120.0
            },
            {
                "start_time": 5.0068182,
                "end_time": 5.0386364,
                "pitch": 21,
                "velocity": 80,
                "duration": 0.0318182,
                "tempo": 120.0
            },
            {
                "start_time": 5.0386364,
                "end_time": 5.0727273,
                "pitch": 19,
                "velocity": 80,
                "duration": 0.0340909,
                "tempo": 120.0
            },
            {
                "start_time": 5.1068182,
                "end_time": 5.1204545,
                "pitch": 24,
                "velocity": 80,
                "duration": 0.0136364,
                "tempo": 120.0
            },
            {
                "start_time": 5.1204545,
                "end_time": 5.1568182,
                "pitch": 21,
                "velocity": 80,
                "duration": 0.0363636,
                "tempo": 120.0
            },
            {
                "start_time": 5.1568182,
                "end_time": 5.1931818,
                "pitch": 19,
                "velocity": 80,
                "duration": 0.0363636,
                "tempo": 120.0
            },
            {
                "start_time": 5.2295455,
                "end_time": 5.2454545,
                "pitch": 24,
                "velocity": 80,
                "duration": 0.0159091,
                "tempo": 120.0
            },
            {
                "start_time": 5.2454545,
                "end_time": 5.2795455,
                "pitch": 21,
                "velocity": 80,
                "duration": 0.0340909,
                "tempo": 120.0
            },
            {
                "start_time": 5.2795455,
                "end_time": 5.3159091,
                "pitch": 19,
                "velocity": 80,
                "duration": 0.0363636,
                "tempo": 120.0
            },
            {
                "start_time": 5.3363636,
                "end_time": 5.3522727,
                "pitch": 24,
                "velocity": 80,
                "duration": 0.0159091,
                "tempo": 120.0
            },
            {
                "start_time": 5.3522727,
                "end_time": 5.3863636,
                "pitch": 21,
                "velocity": 80,
                "duration": 0.0340909,
                "tempo": 120.0
            },
            {
                "start_time": 5.3863636,
                "end_time": 5.4227273,
                "pitch": 19,
                "velocity": 80,
                "duration": 0.0363636,
                "tempo": 120.0
            },
            {
                "start_time": 5.8022727,
                "end_time": 5.8181818,
                "pitch": 24,
                "velocity": 80,
                "duration": 0.0159091,
                "tempo": 120.0
            },
            {
                "start_time": 5.8181818,
                "end_time": 5.8522727,
                "pitch": 21,
                "velocity": 80,
                "duration": 0.0340909,
                "tempo": 120.0
            },
            {
                "start_time": 5.8522727,
                "end_time": 5.8863636,
                "pitch": 19,
                "velocity": 80,
                "duration": 0.0340909,
                "tempo": 120.0
            },
            {
                "start_time": 5.8863636,
                "end_time": 5.9045455,
                "pitch": 15,
                "velocity": 80,
                "duration": 0.0181818,
                "tempo": 120.0
            },
            {
                "start_time": 5.9045455,
                "end_time": 5.9204545,
                "pitch": 13,
                "velocity": 80,
                "duration": 0.0159091,
                "tempo": 120.0
            },
            {
                "start_time": 5.9204545,
                "end_time": 5.9386364,
                "pitch": 11,
                "velocity": 80,
                "duration": 0.0181818,
                "tempo": 120.0
            },
            {
                "start_time": 5.9386364,
                "end_time": 5.9545455,
                "pitch": 8,
                "velocity": 80,
                "duration": 0.0159091,
                "tempo": 120.0
            },
            {
                "start_time": 5.9545455,
                "end_time": 5.9727273,
                "pitch": 5,
                "velocity": 80,
                "duration": 0.0181818,
                "tempo": 120.0
            },
            {
                "start_time": 5.9727273,
                "end_time": 6.0590909,
                "pitch": 2,
                "velocity": 80,
                "duration": 0.0863636,
                "tempo": 120.0
            },
            {
                "start_time": 6.0590909,
                "end_time": 6.1113636,
                "pitch": 31,
                "velocity": 80,
                "duration": 0.0522727,
                "tempo": 120.0
            },
            {
                "start_time": 6.4727273,
                "end_time": 6.4863636,
                "pitch": 24,
                "velocity": 80,
                "duration": 0.0136364,
                "tempo": 120.0
            },
            {
                "start_time": 6.4863636,
                "end_time": 6.5204545,
                "pitch": 21,
                "velocity": 80,
                "duration": 0.0340909,
                "tempo": 120.0
            },
            {
                "start_time": 6.5204545,
                "end_time": 6.5545455,
                "pitch": 19,
                "velocity": 80,
                "duration": 0.0340909,
                "tempo": 120.0
            },
            {
                "start_time": 6.5545455,
                "end_time": 6.5704545,
                "pitch": 15,
                "velocity": 80,
                "duration": 0.0159091,
                "tempo": 120.0
            },
            {
                "start_time": 6.5704545,
                "end_time": 6.5886364,
                "pitch": 13,
                "velocity": 80,
                "duration": 0.0181818,
                "tempo": 120.0
            },
            {
                "start_time": 6.5886364,
                "end_time": 6.6045455,
                "pitch": 11,
                "velocity": 80,
                "duration": 0.0159091,
                "tempo": 120.0
            },
            {
                "start_time": 6.6045455,
                "end_time": 6.6204545,
                "pitch": 8,
                "velocity": 80,
                "duration": 0.0159091,
                "tempo": 120.0
            },
            {
                "start_time": 6.6204545,
                "end_time": 6.6363636,
                "pitch": 5,
                "velocity": 80,
                "duration": 0.0159091,
                "tempo": 120.0
            },
            {
                "start_time": 6.6363636,
                "end_time": 6.7204545,
                "pitch": 2,
                "velocity": 80,
                "duration": 0.0840909,
                "tempo": 120.0
            },
            {
                "start_time": 6.7204545,
                "end_time": 6.7886364,
                "pitch": 31,
                "velocity": 80,
                "duration": 0.0681818,
                "tempo": 120.0
            },
            {
                "start_time": 7.1681818,
                "end_time": 7.1818182,
                "pitch": 24,
                "velocity": 80,
                "duration": 0.0136364,
                "tempo": 120.0
            },
            {
                "start_time": 7.1818182,
                "end_time": 7.2159091,
                "pitch": 21,
                "velocity": 80,
                "duration": 0.0340909,
                "tempo": 120.0
            },
            {
                "start_time": 7.2159091,
                "end_time": 7.2477273,
                "pitch": 19,
                "velocity": 80,
                "duration": 0.0318182,
                "tempo": 120.0
            },
            {
                "start_time": 7.2477273,
                "end_time": 7.2636364,
                "pitch": 15,
                "velocity": 80,
                "duration": 0.0159091,
                "tempo": 120.0
            },
            {
                "start_time": 7.2636364,
                "end_time": 7.2818182,
                "pitch": 13,
                "velocity": 80,
                "duration": 0.0181818,
                "tempo": 120.0
            },
            {
                "start_time": 7.2818182,
                "end_time": 7.2954545,
                "pitch": 11,
                "velocity": 80,
                "duration": 0.0136364,
                "tempo": 120.0
            },
            {
                "start_time": 7.2954545,
                "end_time": 7.3136364,
                "pitch": 8,
                "velocity": 80,
                "duration": 0.0181818,
                "tempo": 120.0
            },
            {
                "start_time": 7.3136364,
                "end_time": 7.3295455,
                "pitch": 5,
                "velocity": 80,
                "duration": 0.0159091,
                "tempo": 120.0
            },
            {
                "start_time": 7.3295455,
                "end_time": 7.4113636,
                "pitch": 2,
                "velocity": 80,
                "duration": 0.0818182,
                "tempo": 120.0
            },
            {
                "start_time": 7.4113636,
                "end_time": 7.4772727,
                "pitch": 31,
                "velocity": 80,
                "duration": 0.0659091,
                "tempo": 120.0
            },
            {
                "start_time": 7.6090909,
                "end_time": 7.625,
                "pitch": 24,
                "velocity": 80,
                "duration": 0.0159091,
                "tempo": 120.0
            },
            {
                "start_time": 7.625,
                "end_time": 7.6590909,
                "pitch": 21,
                "velocity": 80,
                "duration": 0.0340909,
                "tempo": 120.0
            },
            {
                "start_time": 7.6590909,
                "end_time": 7.6931818,
                "pitch": 19,
                "velocity": 80,
                "duration": 0.0340909,
                "tempo": 120.0
            },
            {
                "start_time": 7.7272727,
                "end_time": 7.7431818,
                "pitch": 24,
                "velocity": 80,
                "duration": 0.0159091,
                "tempo": 120.0
            },
            {
                "start_time": 7.7431818,
                "end_time": 7.775,
                "pitch": 21,
                "velocity": 80,
                "duration": 0.0318182,
                "tempo": 120.0
            },
            {
                "start_time": 7.775,
                "end_time": 7.8090909,
                "pitch": 19,
                "velocity": 80,
                "duration": 0.0340909,
                "tempo": 120.0
            },
            {
                "start_time": 7.8454545,
                "end_time": 7.8590909,
                "pitch": 24,
                "velocity": 80,
                "duration": 0.0136364,
                "tempo": 120.0
            },
            {
                "start_time": 7.8590909,
                "end_time": 7.8931818,
                "pitch": 21,
                "velocity": 80,
                "duration": 0.0340909,
                "tempo": 120.0
            },
            {
                "start_time": 7.8931818,
                "end_time": 7.9295455,
                "pitch": 19,
                "velocity": 80,
                "duration": 0.0363636,
                "tempo": 120.0
            },
            {
                "start_time": 7.9477273,
                "end_time": 7.9636364,
                "pitch": 24,
                "velocity": 80,
                "duration": 0.0159091,
                "tempo": 120.0
            },
            {
                "start_time": 7.9636364,
                "end_time": 7.9977273,
                "pitch": 21,
                "velocity": 80,
                "duration": 0.0340909,
                "tempo": 120.0
            },
            {
                "start_time": 7.9977273,
                "end_time": 8.0318182,
                "pitch": 19,
                "velocity": 80,
                "duration": 0.0340909,
                "tempo": 120.0
            },
            {
                "start_time": 8.0681818,
                "end_time": 8.0840909,
                "pitch": 24,
                "velocity": 80,
                "duration": 0.0159091,
                "tempo": 120.0
            },
            {
                "start_time": 8.0840909,
                "end_time": 8.1181818,
                "pitch": 21,
                "velocity": 80,
                "duration": 0.0340909,
                "tempo": 120.0
            },
            {
                "start_time": 8.1181818,
                "end_time": 8.1522727,
                "pitch": 19,
                "velocity": 80,
                "duration": 0.0340909,
                "tempo": 120.0
            },
            {
                "start_time": 8.5136364,
                "end_time": 8.5295455,
                "pitch": 24,
                "velocity": 80,
                "duration": 0.0159091,
                "tempo": 120.0
            },
            {
                "start_time": 8.5295455,
                "end_time": 8.5613636,
                "pitch": 21,
                "velocity": 80,
                "duration": 0.0318182,
                "tempo": 120.0
            },
            {
                "start_time": 8.5613636,
                "end_time": 8.5954545,
                "pitch": 19,
                "velocity": 80,
                "duration": 0.0340909,
                "tempo": 120.0
            },
            {
                "start_time": 8.5954545,
                "end_time": 8.6113636,
                "pitch": 15,
                "velocity": 80,
                "duration": 0.0159091,
                "tempo": 120.0
            },
            {
                "start_time": 8.6113636,
                "end_time": 8.6272727,
                "pitch": 13,
                "velocity": 80,
                "duration": 0.0159091,
                "tempo": 120.0
            },
            {
                "start_time": 8.6272727,
                "end_time": 8.6431818,
                "pitch": 11,
                "velocity": 80,
                "duration": 0.0159091,
                "tempo": 120.0
            },
            {
                "start_time": 8.6431818,
                "end_time": 8.6590909,
                "pitch": 8,
                "velocity": 80,
                "duration": 0.0159091,
                "tempo": 120.0
            },
            {
                "start_time": 8.6590909,
                "end_time": 8.675,
                "pitch": 5,
                "velocity": 80,
                "duration": 0.0159091,
                "tempo": 120.0
            },
            {
                "start_time": 8.675,
                "end_time": 8.7568182,
                "pitch": 2,
                "velocity": 80,
                "duration": 0.0818182,
                "tempo": 120.0
            },
            {
                "start_time": 8.7568182,
                "end_time": 8.8227273,
                "pitch": 31,
                "velocity": 80,
                "duration": 0.0659091,
                "tempo": 120.0
            },
            {
                "start_time": 9.2022727,
                "end_time": 9.2159091,
                "pitch": 24,
                "velocity": 80,
                "duration": 0.0136364,
                "tempo": 120.0
            },
            {
                "start_time": 9.2159091,
                "end_time": 9.25,
                "pitch": 21,
                "velocity": 80,
                "duration": 0.0340909,
                "tempo": 120.0
            },
            {
                "start_time": 9.25,
                "end_time": 9.2840909,
                "pitch": 19,
                "velocity": 80,
                "duration": 0.0340909,
                "tempo": 120.0
            },
            {
                "start_time": 9.2840909,
                "end_time": 9.3,
                "pitch": 15,
                "velocity": 80,
                "duration": 0.0159091,
                "tempo": 120.0
            },
            {
                "start_time": 9.3,
                "end_time": 9.3181818,
                "pitch": 13,
                "velocity": 80,
                "duration": 0.0181818,
                "tempo": 120.0
            },
            {
                "start_time": 9.3181818,
                "end_time": 9.3340909,
                "pitch": 11,
                "velocity": 80,
                "duration": 0.0159091,
                "tempo": 120.0
            },
            {
                "start_time": 9.3340909,
                "end_time": 9.35,
                "pitch": 8,
                "velocity": 80,
                "duration": 0.0159091,
                "tempo": 120.0
            },
            {
                "start_time": 9.35,
                "end_time": 9.3659091,
                "pitch": 5,
                "velocity": 80,
                "duration": 0.0159091,
                "tempo": 120.0
            },
            {
                "start_time": 9.3659091,
                "end_time": 9.45,
                "pitch": 2,
                "velocity": 80,
                "duration": 0.0840909,
                "tempo": 120.0
            },
            {
                "start_time": 9.45,
                "end_time": 9.5181818,
                "pitch": 31,
                "velocity": 80,
                "duration": 0.0681818,
                "tempo": 120.0
            },
            {
                "start_time": 9.8772727,
                "end_time": 9.8931818,
                "pitch": 24,
                "velocity": 80,
                "duration": 0.0159091,
                "tempo": 120.0
            },
            {
                "start_time": 9.8931818,
                "end_time": 9.9272727,
                "pitch": 21,
                "velocity": 80,
                "duration": 0.0340909,
                "tempo": 120.0
            },
            {
                "start_time": 9.9272727,
                "end_time": 9.9613636,
                "pitch": 19,
                "velocity": 80,
                "duration": 0.0340909,
                "tempo": 120.0
            },
            {
                "start_time": 9.9613636,
                "end_time": 9.9795455,
                "pitch": 15,
                "velocity": 80,
                "duration": 0.0181818,
                "tempo": 120.0
            },
            {
                "start_time": 9.9795455,
                "end_time": 9.9954545,
                "pitch": 13,
                "velocity": 80,
                "duration": 0.0159091,
                "tempo": 120.0
            },
            {
                "start_time": 9.9954545,
                "end_time": 10.0136364,
                "pitch": 11,
                "velocity": 80,
                "duration": 0.0181818,
                "tempo": 120.0
            },
            {
                "start_time": 10.0136364,
                "end_time": 10.0295455,
                "pitch": 8,
                "velocity": 80,
                "duration": 0.0159091,
                "tempo": 120.0
            },
            {
                "start_time": 10.0295455,
                "end_time": 10.0477273,
                "pitch": 5,
                "velocity": 80,
                "duration": 0.0181818,
                "tempo": 120.0
            },
            {
                "start_time": 10.0477273,
                "end_time": 10.1340909,
                "pitch": 2,
                "velocity": 80,
                "duration": 0.0863636,
                "tempo": 120.0
            },
            {
                "start_time": 10.1340909,
                "end_time": 10.1863636,
                "pitch": 31,
                "velocity": 80,
                "duration": 0.0522727,
                "tempo": 120.0
            },
            {
                "start_time": 10.45,
                "end_time": 10.4636364,
                "pitch": 36,
                "velocity": 80,
                "duration": 0.0136364,
                "tempo": 120.0
            },
            {
                "start_time": 10.4977273,
                "end_time": 10.5136364,
                "pitch": 36,
                "velocity": 80,
                "duration": 0.0159091,
                "tempo": 120.0
            },
            {
                "start_time": 10.5136364,
                "end_time": 10.5295455,
                "pitch": 33,
                "velocity": 80,
                "duration": 0.0159091,
                "tempo": 120.0
            },
            {
                "start_time": 10.5477273,
                "end_time": 10.5613636,
                "pitch": 36,
                "velocity": 80,
                "duration": 0.0136364,
                "tempo": 120.0
            },
            {
                "start_time": 10.5613636,
                "end_time": 10.5954545,
                "pitch": 33,
                "velocity": 80,
                "duration": 0.0340909,
                "tempo": 120.0
            },
            {
                "start_time": 10.5954545,
                "end_time": 10.6318182,
                "pitch": 31,
                "velocity": 80,
                "duration": 0.0363636,
                "tempo": 120.0
            },
            {
                "start_time": 10.6681818,
                "end_time": 10.6818182,
                "pitch": 32,
                "velocity": 80,
                "duration": 0.0136364,
                "tempo": 120.0
            },
            {
                "start_time": 10.6818182,
                "end_time": 10.7159091,
                "pitch": 30,
                "velocity": 80,
                "duration": 0.0340909,
                "tempo": 120.0
            },
            {
                "start_time": 10.7159091,
                "end_time": 10.7522727,
                "pitch": 27,
                "velocity": 80,
                "duration": 0.0363636,
                "tempo": 120.0
            },
            {
                "start_time": 10.7886364,
                "end_time": 10.8022727,
                "pitch": 28,
                "velocity": 80,
                "duration": 0.0136364,
                "tempo": 120.0
            },
            {
                "start_time": 10.8022727,
                "end_time": 10.8363636,
                "pitch": 26,
                "velocity": 80,
                "duration": 0.0340909,
                "tempo": 120.0
            },
            {
                "start_time": 10.8363636,
                "end_time": 10.8727273,
                "pitch": 23,
                "velocity": 80,
                "duration": 0.0363636,
                "tempo": 120.0
            },
            {
                "start_time": 11.2454545,
                "end_time": 11.2590909,
                "pitch": 24,
                "velocity": 80,
                "duration": 0.0136364,
                "tempo": 120.0
            },
            {
                "start_time": 11.2590909,
                "end_time": 11.2909091,
                "pitch": 21,
                "velocity": 80,
                "duration": 0.0318182,
                "tempo": 120.0
            },
            {
                "start_time": 11.2909091,
                "end_time": 11.325,
                "pitch": 19,
                "velocity": 80,
                "duration": 0.0340909,
                "tempo": 120.0
            },
            {
                "start_time": 11.325,
                "end_time": 11.3409091,
                "pitch": 15,
                "velocity": 80,
                "duration": 0.0159091,
                "tempo": 120.0
            },
            {
                "start_time": 11.3409091,
                "end_time": 11.3590909,
                "pitch": 13,
                "velocity": 80,
                "duration": 0.0181818,
                "tempo": 120.0
            },
            {
                "start_time": 11.3590909,
                "end_time": 11.375,
                "pitch": 11,
                "velocity": 80,
                "duration": 0.0159091,
                "tempo": 120.0
            },
            {
                "start_time": 11.375,
                "end_time": 11.3909091,
                "pitch": 8,
                "velocity": 80,
                "duration": 0.0159091,
                "tempo": 120.0
            },
            {
                "start_time": 11.3909091,
                "end_time": 11.4090909,
                "pitch": 5,
                "velocity": 80,
                "duration": 0.0181818,
                "tempo": 120.0
            },
            {
                "start_time": 11.4090909,
                "end_time": 11.4931818,
                "pitch": 2,
                "velocity": 80,
                "duration": 0.0840909,
                "tempo": 120.0
            },
            {
                "start_time": 11.4931818,
                "end_time": 11.5590909,
                "pitch": 31,
                "velocity": 80,
                "duration": 0.0659091,
                "tempo": 120.0
            },
            {
                "start_time": 11.5795455,
                "end_time": 11.5931818,
                "pitch": 36,
                "velocity": 80,
                "duration": 0.0136364,
                "tempo": 120.0
            },
            {
                "start_time": 11.5931818,
                "end_time": 11.625,
                "pitch": 33,
                "velocity": 80,
                "duration": 0.0318182,
                "tempo": 120.0
            },
            {
                "start_time": 11.625,
                "end_time": 11.6590909,
                "pitch": 31,
                "velocity": 80,
                "duration": 0.0340909,
                "tempo": 120.0
            },
            {
                "start_time": 11.6909091,
                "end_time": 11.7068182,
                "pitch": 36,
                "velocity": 80,
                "duration": 0.0159091,
                "tempo": 120.0
            },
            {
                "start_time": 11.7068182,
                "end_time": 11.7386364,
                "pitch": 33,
                "velocity": 80,
                "duration": 0.0318182,
                "tempo": 120.0
            },
            {
                "start_time": 11.7386364,
                "end_time": 11.7727273,
                "pitch": 31,
                "velocity": 80,
                "duration": 0.0340909,
                "tempo": 120.0
            },
            {
                "start_time": 11.8068182,
                "end_time": 11.8204545,
                "pitch": 36,
                "velocity": 80,
                "duration": 0.0136364,
                "tempo": 120.0
            },
            {
                "start_time": 11.8204545,
                "end_time": 11.8522727,
                "pitch": 33,
                "velocity": 80,
                "duration": 0.0318182,
                "tempo": 120.0
            },
            {
                "start_time": 11.8522727,
                "end_time": 11.8863636,
                "pitch": 31,
                "velocity": 80,
                "duration": 0.0340909,
                "tempo": 120.0
            },
            {
                "start_time": 11.9204545,
                "end_time": 11.9340909,
                "pitch": 32,
                "velocity": 80,
                "duration": 0.0136364,
                "tempo": 120.0
            },
            {
                "start_time": 10.6818182,
                "end_time": 11.9340909,
                "pitch": 42,
                "velocity": 80,
                "duration": 1.2522727,
                "tempo": 120.0
            },
            {
                "start_time": 11.9340909,
                "end_time": 11.9681818,
                "pitch": 30,
                "velocity": 80,
                "duration": 0.0340909,
                "tempo": 120.0
            },
            {
                "start_time": 11.9681818,
                "end_time": 12.0045455,
                "pitch": 27,
                "velocity": 80,
                "duration": 0.0363636,
                "tempo": 120.0
            },
            {
                "start_time": 12.0227273,
                "end_time": 12.0386364,
                "pitch": 32,
                "velocity": 80,
                "duration": 0.0159091,
                "tempo": 120.0
            },
            {
                "start_time": 11.9340909,
                "end_time": 12.0386364,
                "pitch": 42,
                "velocity": 80,
                "duration": 0.1045455,
                "tempo": 120.0
            },
            {
                "start_time": 12.0386364,
                "end_time": 12.0727273,
                "pitch": 30,
                "velocity": 80,
                "duration": 0.0340909,
                "tempo": 120.0
            },
            {
                "start_time": 12.0727273,
                "end_time": 12.1068182,
                "pitch": 27,
                "velocity": 80,
                "duration": 0.0340909,
                "tempo": 120.0
            },
            {
                "start_time": 12.1068182,
                "end_time": 12.125,
                "pitch": 24,
                "velocity": 80,
                "duration": 0.0181818,
                "tempo": 120.0
            },
            {
                "start_time": 12.1431818,
                "end_time": 12.1590909,
                "pitch": 32,
                "velocity": 80,
                "duration": 0.0159091,
                "tempo": 120.0
            },
            {
                "start_time": 12.0386364,
                "end_time": 12.1590909,
                "pitch": 42,
                "velocity": 80,
                "duration": 0.1204545,
                "tempo": 120.0
            },
            {
                "start_time": 12.1590909,
                "end_time": 12.1931818,
                "pitch": 30,
                "velocity": 80,
                "duration": 0.0340909,
                "tempo": 120.0
            },
            {
                "start_time": 12.1931818,
                "end_time": 12.2295455,
                "pitch": 27,
                "velocity": 80,
                "duration": 0.0363636,
                "tempo": 120.0
            },
            {
                "start_time": 12.5909091,
                "end_time": 12.6045455,
                "pitch": 24,
                "velocity": 80,
                "duration": 0.0136364,
                "tempo": 120.0
            },
            {
                "start_time": 12.6045455,
                "end_time": 12.6386364,
                "pitch": 21,
                "velocity": 80,
                "duration": 0.0340909,
                "tempo": 120.0
            },
            {
                "start_time": 12.6386364,
                "end_time": 12.6704545,
                "pitch": 19,
                "velocity": 80,
                "duration": 0.0318182,
                "tempo": 120.0
            },
            {
                "start_time": 12.6704545,
                "end_time": 12.6886364,
                "pitch": 15,
                "velocity": 80,
                "duration": 0.0181818,
                "tempo": 120.0
            },
            {
                "start_time": 12.6886364,
                "end_time": 12.7045455,
                "pitch": 13,
                "velocity": 80,
                "duration": 0.0159091,
                "tempo": 120.0
            },
            {
                "start_time": 12.7045455,
                "end_time": 12.7204545,
                "pitch": 11,
                "velocity": 80,
                "duration": 0.0159091,
                "tempo": 120.0
            },
            {
                "start_time": 12.7204545,
                "end_time": 12.7386364,
                "pitch": 8,
                "velocity": 80,
                "duration": 0.0181818,
                "tempo": 120.0
            },
            {
                "start_time": 12.7386364,
                "end_time": 12.7545455,
                "pitch": 5,
                "velocity": 80,
                "duration": 0.0159091,
                "tempo": 120.0
            },
            {
                "start_time": 12.7545455,
                "end_time": 12.8386364,
                "pitch": 2,
                "velocity": 80,
                "duration": 0.0840909,
                "tempo": 120.0
            },
            {
                "start_time": 12.8386364,
                "end_time": 12.9068182,
                "pitch": 31,
                "velocity": 80,
                "duration": 0.0681818,
                "tempo": 120.0
            },
            {
                "start_time": 12.9409091,
                "end_time": 12.9568182,
                "pitch": 36,
                "velocity": 80,
                "duration": 0.0159091,
                "tempo": 120.0
            },
            {
                "start_time": 12.9886364,
                "end_time": 13.0068182,
                "pitch": 36,
                "velocity": 80,
                "duration": 0.0181818,
                "tempo": 120.0
            },
            {
                "start_time": 13.0068182,
                "end_time": 13.0227273,
                "pitch": 33,
                "velocity": 80,
                "duration": 0.0159091,
                "tempo": 120.0
            },
            {
                "start_time": 13.0568182,
                "end_time": 13.0727273,
                "pitch": 32,
                "velocity": 80,
                "duration": 0.0159091,
                "tempo": 120.0
            },
            {
                "start_time": 12.1590909,
                "end_time": 13.0727273,
                "pitch": 42,
                "velocity": 80,
                "duration": 0.9136364,
                "tempo": 120.0
            },
            {
                "start_time": 13.0727273,
                "end_time": 13.1068182,
                "pitch": 30,
                "velocity": 80,
                "duration": 0.0340909,
                "tempo": 120.0
            },
            {
                "start_time": 13.1068182,
                "end_time": 13.1409091,
                "pitch": 27,
                "velocity": 80,
                "duration": 0.0340909,
                "tempo": 120.0
            },
            {
                "start_time": 13.1590909,
                "end_time": 13.1727273,
                "pitch": 28,
                "velocity": 80,
                "duration": 0.0136364,
                "tempo": 120.0
            },
            {
                "start_time": 13.1727273,
                "end_time": 13.2068182,
                "pitch": 26,
                "velocity": 80,
                "duration": 0.0340909,
                "tempo": 120.0
            },
            {
                "start_time": 13.2068182,
                "end_time": 13.2409091,
                "pitch": 23,
                "velocity": 80,
                "duration": 0.0340909,
                "tempo": 120.0
            },
            {
                "start_time": 13.2772727,
                "end_time": 13.2909091,
                "pitch": 32,
                "velocity": 80,
                "duration": 0.0136364,
                "tempo": 120.0
            },
            {
                "start_time": 13.0727273,
                "end_time": 13.2909091,
                "pitch": 42,
                "velocity": 80,
                "duration": 0.2181818,
                "tempo": 120.0
            },
            {
                "start_time": 13.2909091,
                "end_time": 13.325,
                "pitch": 30,
                "velocity": 80,
                "duration": 0.0340909,
                "tempo": 120.0
            },
            {
                "start_time": 13.325,
                "end_time": 13.3590909,
                "pitch": 27,
                "velocity": 80,
                "duration": 0.0340909,
                "tempo": 120.0
            },
            {
                "start_time": 13.3931818,
                "end_time": 13.4068182,
                "pitch": 28,
                "velocity": 80,
                "duration": 0.0136364,
                "tempo": 120.0
            },
            {
                "start_time": 13.4068182,
                "end_time": 13.4409091,
                "pitch": 26,
                "velocity": 80,
                "duration": 0.0340909,
                "tempo": 120.0
            },
            {
                "start_time": 13.4409091,
                "end_time": 13.475,
                "pitch": 23,
                "velocity": 80,
                "duration": 0.0340909,
                "tempo": 120.0
            },
            {
                "start_time": 13.5090909,
                "end_time": 13.525,
                "pitch": 28,
                "velocity": 80,
                "duration": 0.0159091,
                "tempo": 120.0
            },
            {
                "start_time": 13.525,
                "end_time": 13.5590909,
                "pitch": 26,
                "velocity": 80,
                "duration": 0.0340909,
                "tempo": 120.0
            },
            {
                "start_time": 13.5590909,
                "end_time": 13.5931818,
                "pitch": 23,
                "velocity": 80,
                "duration": 0.0340909,
                "tempo": 120.0
            },
            {
                "start_time": 13.9545455,
                "end_time": 13.9659091,
                "pitch": 24,
                "velocity": 80,
                "duration": 0.0113636,
                "tempo": 120.0
            },
            {
                "start_time": 13.9659091,
                "end_time": 14.0022727,
                "pitch": 21,
                "velocity": 80,
                "duration": 0.0363636,
                "tempo": 120.0
            },
            {
                "start_time": 14.0022727,
                "end_time": 14.0386364,
                "pitch": 19,
                "velocity": 80,
                "duration": 0.0363636,
                "tempo": 120.0
            },
            {
                "start_time": 14.0386364,
                "end_time": 14.0545455,
                "pitch": 15,
                "velocity": 80,
                "duration": 0.0159091,
                "tempo": 120.0
            },
            {
                "start_time": 14.0545455,
                "end_time": 14.075,
                "pitch": 13,
                "velocity": 80,
                "duration": 0.0204545,
                "tempo": 120.0
            },
            {
                "start_time": 14.075,
                "end_time": 14.0909091,
                "pitch": 11,
                "velocity": 80,
                "duration": 0.0159091,
                "tempo": 120.0
            },
            {
                "start_time": 14.0909091,
                "end_time": 14.1090909,
                "pitch": 8,
                "velocity": 80,
                "duration": 0.0181818,
                "tempo": 120.0
            },
            {
                "start_time": 14.1090909,
                "end_time": 14.1272727,
                "pitch": 5,
                "velocity": 80,
                "duration": 0.0181818,
                "tempo": 120.0
            },
            {
                "start_time": 14.1272727,
                "end_time": 14.2159091,
                "pitch": 2,
                "velocity": 80,
                "duration": 0.0886364,
                "tempo": 120.0
            },
            {
                "start_time": 14.2159091,
                "end_time": 14.2681818,
                "pitch": 31,
                "velocity": 80,
                "duration": 0.0522727,
                "tempo": 120.0
            },
            {
                "start_time": 14.3068182,
                "end_time": 14.3204545,
                "pitch": 40,
                "velocity": 80,
                "duration": 0.0136364,
                "tempo": 120.0
            },
            {
                "start_time": 14.3204545,
                "end_time": 14.3522727,
                "pitch": 38,
                "velocity": 80,
                "duration": 0.0318182,
                "tempo": 120.0
            },
            {
                "start_time": 14.3522727,
                "end_time": 14.3840909,
                "pitch": 35,
                "velocity": 80,
                "duration": 0.0318182,
                "tempo": 120.0
            },
            {
                "start_time": 14.4159091,
                "end_time": 14.4295455,
                "pitch": 40,
                "velocity": 80,
                "duration": 0.0136364,
                "tempo": 120.0
            },
            {
                "start_time": 14.4295455,
                "end_time": 14.4613636,
                "pitch": 38,
                "velocity": 80,
                "duration": 0.0318182,
                "tempo": 120.0
            },
            {
                "start_time": 14.4613636,
                "end_time": 14.4931818,
                "pitch": 35,
                "velocity": 80,
                "duration": 0.0318182,
                "tempo": 120.0
            },
            {
                "start_time": 14.5272727,
                "end_time": 14.5409091,
                "pitch": 40,
                "velocity": 80,
                "duration": 0.0136364,
                "tempo": 120.0
            },
            {
                "start_time": 14.5409091,
                "end_time": 14.5727273,
                "pitch": 38,
                "velocity": 80,
                "duration": 0.0318182,
                "tempo": 120.0
            },
            {
                "start_time": 14.5727273,
                "end_time": 14.6045455,
                "pitch": 35,
                "velocity": 80,
                "duration": 0.0318182,
                "tempo": 120.0
            },
            {
                "start_time": 14.6227273,
                "end_time": 14.6363636,
                "pitch": 48,
                "velocity": 80,
                "duration": 0.0136364,
                "tempo": 120.0
            },
            {
                "start_time": 14.6363636,
                "end_time": 14.6681818,
                "pitch": 45,
                "velocity": 80,
                "duration": 0.0318182,
                "tempo": 120.0
            },
            {
                "start_time": 14.6681818,
                "end_time": 14.7022727,
                "pitch": 43,
                "velocity": 80,
                "duration": 0.0340909,
                "tempo": 120.0
            },
            {
                "start_time": 14.7022727,
                "end_time": 14.7204545,
                "pitch": 39,
                "velocity": 80,
                "duration": 0.0181818,
                "tempo": 120.0
            },
            {
                "start_time": 14.7386364,
                "end_time": 14.7522727,
                "pitch": 48,
                "velocity": 80,
                "duration": 0.0136364,
                "tempo": 120.0
            },
            {
                "start_time": 14.7522727,
                "end_time": 14.7863636,
                "pitch": 45,
                "velocity": 80,
                "duration": 0.0340909,
                "tempo": 120.0
            },
            {
                "start_time": 14.7863636,
                "end_time": 14.8204545,
                "pitch": 43,
                "velocity": 80,
                "duration": 0.0340909,
                "tempo": 120.0
            },
            {
                "start_time": 14.8545455,
                "end_time": 14.8704545,
                "pitch": 48,
                "velocity": 80,
                "duration": 0.0159091,
                "tempo": 120.0
            },
            {
                "start_time": 14.8704545,
                "end_time": 14.9045455,
                "pitch": 45,
                "velocity": 80,
                "duration": 0.0340909,
                "tempo": 120.0
            },
            {
                "start_time": 14.9045455,
                "end_time": 14.9386364,
                "pitch": 43,
                "velocity": 80,
                "duration": 0.0340909,
                "tempo": 120.0
            },
            {
                "start_time": 15.3181818,
                "end_time": 15.3318182,
                "pitch": 24,
                "velocity": 80,
                "duration": 0.0136364,
                "tempo": 120.0
            },
            {
                "start_time": 15.3318182,
                "end_time": 15.3659091,
                "pitch": 21,
                "velocity": 80,
                "duration": 0.0340909,
                "tempo": 120.0
            },
            {
                "start_time": 15.3659091,
                "end_time": 15.3977273,
                "pitch": 19,
                "velocity": 80,
                "duration": 0.0318182,
                "tempo": 120.0
            },
            {
                "start_time": 15.3977273,
                "end_time": 15.4159091,
                "pitch": 15,
                "velocity": 80,
                "duration": 0.0181818,
                "tempo": 120.0
            },
            {
                "start_time": 15.4159091,
                "end_time": 15.4318182,
                "pitch": 13,
                "velocity": 80,
                "duration": 0.0159091,
                "tempo": 120.0
            },
            {
                "start_time": 15.4318182,
                "end_time": 15.45,
                "pitch": 11,
                "velocity": 80,
                "duration": 0.0181818,
                "tempo": 120.0
            },
            {
                "start_time": 15.45,
                "end_time": 15.4659091,
                "pitch": 8,
                "velocity": 80,
                "duration": 0.0159091,
                "tempo": 120.0
            },
            {
                "start_time": 15.4659091,
                "end_time": 15.4818182,
                "pitch": 5,
                "velocity": 80,
                "duration": 0.0159091,
                "tempo": 120.0
            },
            {
                "start_time": 15.4818182,
                "end_time": 15.5659091,
                "pitch": 2,
                "velocity": 80,
                "duration": 0.0840909,
                "tempo": 120.0
            },
            {
                "start_time": 15.5659091,
                "end_time": 15.6340909,
                "pitch": 31,
                "velocity": 80,
                "duration": 0.0681818,
                "tempo": 120.0
            },
            {
                "start_time": 15.6522727,
                "end_time": 15.6659091,
                "pitch": 28,
                "velocity": 80,
                "duration": 0.0136364,
                "tempo": 120.0
            },
            {
                "start_time": 15.6659091,
                "end_time": 15.6977273,
                "pitch": 26,
                "velocity": 80,
                "duration": 0.0318182,
                "tempo": 120.0
            },
            {
                "start_time": 15.6977273,
                "end_time": 15.7295455,
                "pitch": 23,
                "velocity": 80,
                "duration": 0.0318182,
                "tempo": 120.0
            },
            {
                "start_time": 15.7295455,
                "end_time": 15.7454545,
                "pitch": 20,
                "velocity": 80,
                "duration": 0.0159091,
                "tempo": 120.0
            },
            {
                "start_time": 15.7613636,
                "end_time": 15.775,
                "pitch": 32,
                "velocity": 80,
                "duration": 0.0136364,
                "tempo": 120.0
            },
            {
                "start_time": 13.2909091,
                "end_time": 15.775,
                "pitch": 42,
                "velocity": 80,
                "duration": 2.4840909,
                "tempo": 120.0
            },
            {
                "start_time": 15.775,
                "end_time": 15.8068182,
                "pitch": 30,
                "velocity": 80,
                "duration": 0.0318182,
                "tempo": 120.0
            },
            {
                "start_time": 15.8068182,
                "end_time": 15.8386364,
                "pitch": 27,
                "velocity": 80,
                "duration": 0.0318182,
                "tempo": 120.0
            },
            {
                "start_time": 15.8704545,
                "end_time": 15.8863636,
                "pitch": 36,
                "velocity": 80,
                "duration": 0.0159091,
                "tempo": 120.0
            },
            {
                "start_time": 15.8863636,
                "end_time": 15.9022727,
                "pitch": 33,
                "velocity": 80,
                "duration": 0.0159091,
                "tempo": 120.0
            },
            {
                "start_time": 15.9181818,
                "end_time": 15.9340909,
                "pitch": 36,
                "velocity": 80,
                "duration": 0.0159091,
                "tempo": 120.0
            },
            {
                "start_time": 15.9340909,
                "end_time": 15.95,
                "pitch": 33,
                "velocity": 80,
                "duration": 0.0159091,
                "tempo": 120.0
            },
            {
                "start_time": 15.9840909,
                "end_time": 15.9977273,
                "pitch": 36,
                "velocity": 80,
                "duration": 0.0136364,
                "tempo": 120.0
            },
            {
                "start_time": 15.9977273,
                "end_time": 16.0318182,
                "pitch": 33,
                "velocity": 80,
                "duration": 0.0340909,
                "tempo": 120.0
            },
            {
                "start_time": 16.0318182,
                "end_time": 16.0681818,
                "pitch": 31,
                "velocity": 80,
                "duration": 0.0363636,
                "tempo": 120.0
            },
            {
                "start_time": 16.1068182,
                "end_time": 16.1204545,
                "pitch": 32,
                "velocity": 80,
                "duration": 0.0136364,
                "tempo": 120.0
            },
            {
                "start_time": 15.775,
                "end_time": 16.1204545,
                "pitch": 42,
                "velocity": 80,
                "duration": 0.3454545,
                "tempo": 120.0
            },
            {
                "start_time": 16.1204545,
                "end_time": 16.1568182,
                "pitch": 30,
                "velocity": 80,
                "duration": 0.0363636,
                "tempo": 120.0
            },
            {
                "start_time": 16.1568182,
                "end_time": 16.1931818,
                "pitch": 27,
                "velocity": 80,
                "duration": 0.0363636,
                "tempo": 120.0
            },
            {
                "start_time": 16.2113636,
                "end_time": 16.2272727,
                "pitch": 28,
                "velocity": 80,
                "duration": 0.0159091,
                "tempo": 120.0
            },
            {
                "start_time": 16.2272727,
                "end_time": 16.2636364,
                "pitch": 26,
                "velocity": 80,
                "duration": 0.0363636,
                "tempo": 120.0
            },
            {
                "start_time": 16.2636364,
                "end_time": 16.3,
                "pitch": 23,
                "velocity": 80,
                "duration": 0.0363636,
                "tempo": 120.0
            },
            {
                "start_time": 16.6772727,
                "end_time": 16.6931818,
                "pitch": 24,
                "velocity": 80,
                "duration": 0.0159091,
                "tempo": 120.0
            },
            {
                "start_time": 16.6931818,
                "end_time": 16.7272727,
                "pitch": 21,
                "velocity": 80,
                "duration": 0.0340909,
                "tempo": 120.0
            },
            {
                "start_time": 16.7272727,
                "end_time": 16.7636364,
                "pitch": 19,
                "velocity": 80,
                "duration": 0.0363636,
                "tempo": 120.0
            },
            {
                "start_time": 16.7636364,
                "end_time": 16.7818182,
                "pitch": 15,
                "velocity": 80,
                "duration": 0.0181818,
                "tempo": 120.0
            },
            {
                "start_time": 16.7818182,
                "end_time": 16.7977273,
                "pitch": 13,
                "velocity": 80,
                "duration": 0.0159091,
                "tempo": 120.0
            },
            {
                "start_time": 16.7977273,
                "end_time": 16.8136364,
                "pitch": 11,
                "velocity": 80,
                "duration": 0.0159091,
                "tempo": 120.0
            },
            {
                "start_time": 16.8136364,
                "end_time": 16.8318182,
                "pitch": 8,
                "velocity": 80,
                "duration": 0.0181818,
                "tempo": 120.0
            },
            {
                "start_time": 16.8318182,
                "end_time": 16.8477273,
                "pitch": 5,
                "velocity": 80,
                "duration": 0.0159091,
                "tempo": 120.0
            },
            {
                "start_time": 16.8477273,
                "end_time": 16.9340909,
                "pitch": 2,
                "velocity": 80,
                "duration": 0.0863636,
                "tempo": 120.0
            },
            {
                "start_time": 16.9340909,
                "end_time": 16.9863636,
                "pitch": 31,
                "velocity": 80,
                "duration": 0.0522727,
                "tempo": 120.0
            },
            {
                "start_time": 17.3568182,
                "end_time": 17.3727273,
                "pitch": 24,
                "velocity": 80,
                "duration": 0.0159091,
                "tempo": 120.0
            },
            {
                "start_time": 17.3727273,
                "end_time": 17.4045455,
                "pitch": 21,
                "velocity": 80,
                "duration": 0.0318182,
                "tempo": 120.0
            },
            {
                "start_time": 17.4045455,
                "end_time": 17.4386364,
                "pitch": 19,
                "velocity": 80,
                "duration": 0.0340909,
                "tempo": 120.0
            },
            {
                "start_time": 17.4386364,
                "end_time": 17.4545455,
                "pitch": 15,
                "velocity": 80,
                "duration": 0.0159091,
                "tempo": 120.0
            },
            {
                "start_time": 17.4545455,
                "end_time": 17.4727273,
                "pitch": 13,
                "velocity": 80,
                "duration": 0.0181818,
                "tempo": 120.0
            },
            {
                "start_time": 17.4727273,
                "end_time": 17.4863636,
                "pitch": 11,
                "velocity": 80,
                "duration": 0.0136364,
                "tempo": 120.0
            },
            {
                "start_time": 17.4863636,
                "end_time": 17.5022727,
                "pitch": 8,
                "velocity": 80,
                "duration": 0.0159091,
                "tempo": 120.0
            },
            {
                "start_time": 17.5022727,
                "end_time": 17.5181818,
                "pitch": 5,
                "velocity": 80,
                "duration": 0.0159091,
                "tempo": 120.0
            },
            {
                "start_time": 17.5181818,
                "end_time": 17.6,
                "pitch": 2,
                "velocity": 80,
                "duration": 0.0818182,
                "tempo": 120.0
            },
            {
                "start_time": 17.6,
                "end_time": 17.6659091,
                "pitch": 31,
                "velocity": 80,
                "duration": 0.0659091,
                "tempo": 120.0
            },
            {
                "start_time": 18.0431818,
                "end_time": 18.0590909,
                "pitch": 24,
                "velocity": 80,
                "duration": 0.0159091,
                "tempo": 120.0
            },
            {
                "start_time": 18.0590909,
                "end_time": 18.0909091,
                "pitch": 21,
                "velocity": 80,
                "duration": 0.0318182,
                "tempo": 120.0
            },
            {
                "start_time": 18.0909091,
                "end_time": 18.125,
                "pitch": 19,
                "velocity": 80,
                "duration": 0.0340909,
                "tempo": 120.0
            },
            {
                "start_time": 18.125,
                "end_time": 18.1409091,
                "pitch": 15,
                "velocity": 80,
                "duration": 0.0159091,
                "tempo": 120.0
            },
            {
                "start_time": 18.1409091,
                "end_time": 18.1568182,
                "pitch": 13,
                "velocity": 80,
                "duration": 0.0159091,
                "tempo": 120.0
            },
            {
                "start_time": 18.1568182,
                "end_time": 18.1727273,
                "pitch": 11,
                "velocity": 80,
                "duration": 0.0159091,
                "tempo": 120.0
            },
            {
                "start_time": 18.1727273,
                "end_time": 18.1886364,
                "pitch": 8,
                "velocity": 80,
                "duration": 0.0159091,
                "tempo": 120.0
            },
            {
                "start_time": 18.1886364,
                "end_time": 18.2045455,
                "pitch": 5,
                "velocity": 80,
                "duration": 0.0159091,
                "tempo": 120.0
            },
            {
                "start_time": 18.2045455,
                "end_time": 18.2863636,
                "pitch": 2,
                "velocity": 80,
                "duration": 0.0818182,
                "tempo": 120.0
            },
            {
                "start_time": 18.2863636,
                "end_time": 18.3522727,
                "pitch": 31,
                "velocity": 80,
                "duration": 0.0659091,
                "tempo": 120.0
            },
            {
                "start_time": 18.7204545,
                "end_time": 18.7363636,
                "pitch": 24,
                "velocity": 80,
                "duration": 0.0159091,
                "tempo": 120.0
            },
            {
                "start_time": 18.7363636,
                "end_time": 18.7704545,
                "pitch": 21,
                "velocity": 80,
                "duration": 0.0340909,
                "tempo": 120.0
            },
            {
                "start_time": 18.7704545,
                "end_time": 18.8045455,
                "pitch": 19,
                "velocity": 80,
                "duration": 0.0340909,
                "tempo": 120.0
            },
            {
                "start_time": 18.9431818,
                "end_time": 18.9590909,
                "pitch": 24,
                "velocity": 80,
                "duration": 0.0159091,
                "tempo": 120.0
            },
            {
                "start_time": 18.9590909,
                "end_time": 18.9931818,
                "pitch": 21,
                "velocity": 80,
                "duration": 0.0340909,
                "tempo": 120.0
            },
            {
                "start_time": 18.9931818,
                "end_time": 19.0295455,
                "pitch": 19,
                "velocity": 80,
                "duration": 0.0363636,
                "tempo": 120.0
            },
            {
                "start_time": 19.3909091,
                "end_time": 19.4045455,
                "pitch": 24,
                "velocity": 80,
                "duration": 0.0136364,
                "tempo": 120.0
            },
            {
                "start_time": 19.4045455,
                "end_time": 19.4386364,
                "pitch": 21,
                "velocity": 80,
                "duration": 0.0340909,
                "tempo": 120.0
            },
            {
                "start_time": 19.4386364,
                "end_time": 19.4727273,
                "pitch": 19,
                "velocity": 80,
                "duration": 0.0340909,
                "tempo": 120.0
            },
            {
                "start_time": 19.4727273,
                "end_time": 19.4886364,
                "pitch": 15,
                "velocity": 80,
                "duration": 0.0159091,
                "tempo": 120.0
            },
            {
                "start_time": 19.4886364,
                "end_time": 19.5068182,
                "pitch": 13,
                "velocity": 80,
                "duration": 0.0181818,
                "tempo": 120.0
            },
            {
                "start_time": 19.5068182,
                "end_time": 19.5227273,
                "pitch": 11,
                "velocity": 80,
                "duration": 0.0159091,
                "tempo": 120.0
            },
            {
                "start_time": 19.5227273,
                "end_time": 19.5386364,
                "pitch": 8,
                "velocity": 80,
                "duration": 0.0159091,
                "tempo": 120.0
            },
            {
                "start_time": 19.5386364,
                "end_time": 19.5568182,
                "pitch": 5,
                "velocity": 80,
                "duration": 0.0181818,
                "tempo": 120.0
            },
            {
                "start_time": 19.5568182,
                "end_time": 19.6409091,
                "pitch": 2,
                "velocity": 80,
                "duration": 0.0840909,
                "tempo": 120.0
            },
            {
                "start_time": 19.6409091,
                "end_time": 19.7068182,
                "pitch": 31,
                "velocity": 80,
                "duration": 0.0659091,
                "tempo": 120.0
            },
            {
                "start_time": 20.0863636,
                "end_time": 20.1022727,
                "pitch": 24,
                "velocity": 80,
                "duration": 0.0159091,
                "tempo": 120.0
            },
            {
                "start_time": 20.1022727,
                "end_time": 20.1340909,
                "pitch": 21,
                "velocity": 80,
                "duration": 0.0318182,
                "tempo": 120.0
            },
            {
                "start_time": 20.1340909,
                "end_time": 20.1659091,
                "pitch": 19,
                "velocity": 80,
                "duration": 0.0318182,
                "tempo": 120.0
            },
            {
                "start_time": 20.1659091,
                "end_time": 20.1818182,
                "pitch": 15,
                "velocity": 80,
                "duration": 0.0159091,
                "tempo": 120.0
            },
            {
                "start_time": 20.1818182,
                "end_time": 20.2,
                "pitch": 13,
                "velocity": 80,
                "duration": 0.0181818,
                "tempo": 120.0
            },
            {
                "start_time": 20.2,
                "end_time": 20.2159091,
                "pitch": 11,
                "velocity": 80,
                "duration": 0.0159091,
                "tempo": 120.0
            },
            {
                "start_time": 20.2159091,
                "end_time": 20.2318182,
                "pitch": 8,
                "velocity": 80,
                "duration": 0.0159091,
                "tempo": 120.0
            },
            {
                "start_time": 20.2318182,
                "end_time": 20.2477273,
                "pitch": 5,
                "velocity": 80,
                "duration": 0.0159091,
                "tempo": 120.0
            },
            {
                "start_time": 20.2477273,
                "end_time": 20.3295455,
                "pitch": 2,
                "velocity": 80,
                "duration": 0.0818182,
                "tempo": 120.0
            },
            {
                "start_time": 20.3295455,
                "end_time": 20.3954545,
                "pitch": 31,
                "velocity": 80,
                "duration": 0.0659091,
                "tempo": 120.0
            },
            {
                "start_time": 20.4136364,
                "end_time": 20.4272727,
                "pitch": 24,
                "velocity": 80,
                "duration": 0.0136364,
                "tempo": 120.0
            },
            {
                "start_time": 20.4272727,
                "end_time": 20.4590909,
                "pitch": 21,
                "velocity": 80,
                "duration": 0.0318182,
                "tempo": 120.0
            },
            {
                "start_time": 20.4590909,
                "end_time": 20.4954545,
                "pitch": 19,
                "velocity": 80,
                "duration": 0.0363636,
                "tempo": 120.0
            },
            {
                "start_time": 20.5295455,
                "end_time": 20.5431818,
                "pitch": 24,
                "velocity": 80,
                "duration": 0.0136364,
                "tempo": 120.0
            },
            {
                "start_time": 20.5431818,
                "end_time": 20.5772727,
                "pitch": 21,
                "velocity": 80,
                "duration": 0.0340909,
                "tempo": 120.0
            },
            {
                "start_time": 20.5772727,
                "end_time": 20.6113636,
                "pitch": 19,
                "velocity": 80,
                "duration": 0.0340909,
                "tempo": 120.0
            },
            {
                "start_time": 20.6477273,
                "end_time": 20.6613636,
                "pitch": 24,
                "velocity": 80,
                "duration": 0.0136364,
                "tempo": 120.0
            },
            {
                "start_time": 20.6613636,
                "end_time": 20.6954545,
                "pitch": 21,
                "velocity": 80,
                "duration": 0.0340909,
                "tempo": 120.0
            },
            {
                "start_time": 20.6954545,
                "end_time": 20.7295455,
                "pitch": 19,
                "velocity": 80,
                "duration": 0.0340909,
                "tempo": 120.0
            },
            {
                "start_time": 21.1,
                "end_time": 21.1136364,
                "pitch": 36,
                "velocity": 80,
                "duration": 0.0136364,
                "tempo": 120.0
            },
            {
                "start_time": 21.1136364,
                "end_time": 21.1454545,
                "pitch": 33,
                "velocity": 80,
                "duration": 0.0318182,
                "tempo": 120.0
            },
            {
                "start_time": 21.1454545,
                "end_time": 21.1818182,
                "pitch": 31,
                "velocity": 80,
                "duration": 0.0363636,
                "tempo": 120.0
            },
            {
                "start_time": 21.2159091,
                "end_time": 21.2295455,
                "pitch": 36,
                "velocity": 80,
                "duration": 0.0136364,
                "tempo": 120.0
            },
            {
                "start_time": 21.2295455,
                "end_time": 21.2636364,
                "pitch": 33,
                "velocity": 80,
                "duration": 0.0340909,
                "tempo": 120.0
            },
            {
                "start_time": 21.2636364,
                "end_time": 21.2977273,
                "pitch": 31,
                "velocity": 80,
                "duration": 0.0340909,
                "tempo": 120.0
            },
            {
                "start_time": 21.3318182,
                "end_time": 21.3477273,
                "pitch": 32,
                "velocity": 80,
                "duration": 0.0159091,
                "tempo": 120.0
            },
            {
                "start_time": 21.3818182,
                "end_time": 21.3977273,
                "pitch": 32,
                "velocity": 80,
                "duration": 0.0159091,
                "tempo": 120.0
            },
            {
                "start_time": 16.1204545,
                "end_time": 21.3977273,
                "pitch": 42,
                "velocity": 80,
                "duration": 5.2772727,
                "tempo": 120.0
            },
            {
                "start_time": 21.3977273,
                "end_time": 21.4159091,
                "pitch": 30,
                "velocity": 80,
                "duration": 0.0181818,
                "tempo": 120.0
            },
            {
                "start_time": 21.3977273,
                "end_time": 21.4340909,
                "pitch": 42,
                "velocity": 80,
                "duration": 0.0363636,
                "tempo": 120.0
            },
            {
                "start_time": 21.4340909,
                "end_time": 21.4636364,
                "pitch": 30,
                "velocity": 80,
                "duration": 0.0295455,
                "tempo": 120.0
            },
            {
                "start_time": 21.4636364,
                "end_time": 21.4977273,
                "pitch": 27,
                "velocity": 80,
                "duration": 0.0340909,
                "tempo": 120.0
            },
            {
                "start_time": 21.4977273,
                "end_time": 21.5159091,
                "pitch": 25,
                "velocity": 80,
                "duration": 0.0181818,
                "tempo": 120.0
            },
            {
                "start_time": 21.55,
                "end_time": 21.5659091,
                "pitch": 28,
                "velocity": 80,
                "duration": 0.0159091,
                "tempo": 120.0
            },
            {
                "start_time": 21.5659091,
                "end_time": 21.5977273,
                "pitch": 26,
                "velocity": 80,
                "duration": 0.0318182,
                "tempo": 120.0
            },
            {
                "start_time": 21.5977273,
                "end_time": 21.6318182,
                "pitch": 23,
                "velocity": 80,
                "duration": 0.0340909,
                "tempo": 120.0
            },
            {
                "start_time": 21.6659091,
                "end_time": 21.6818182,
                "pitch": 28,
                "velocity": 80,
                "duration": 0.0159091,
                "tempo": 120.0
            },
            {
                "start_time": 21.6818182,
                "end_time": 21.7159091,
                "pitch": 26,
                "velocity": 80,
                "duration": 0.0340909,
                "tempo": 120.0
            },
            {
                "start_time": 21.7159091,
                "end_time": 21.75,
                "pitch": 23,
                "velocity": 80,
                "duration": 0.0340909,
                "tempo": 120.0
            },
            {
                "start_time": 22.1181818,
                "end_time": 22.1340909,
                "pitch": 24,
                "velocity": 80,
                "duration": 0.0159091,
                "tempo": 120.0
            },
            {
                "start_time": 22.1340909,
                "end_time": 22.1659091,
                "pitch": 21,
                "velocity": 80,
                "duration": 0.0318182,
                "tempo": 120.0
            },
            {
                "start_time": 22.1659091,
                "end_time": 22.2,
                "pitch": 19,
                "velocity": 80,
                "duration": 0.0340909,
                "tempo": 120.0
            },
            {
                "start_time": 22.2,
                "end_time": 22.2159091,
                "pitch": 15,
                "velocity": 80,
                "duration": 0.0159091,
                "tempo": 120.0
            },
            {
                "start_time": 22.2159091,
                "end_time": 22.2318182,
                "pitch": 13,
                "velocity": 80,
                "duration": 0.0159091,
                "tempo": 120.0
            },
            {
                "start_time": 22.2318182,
                "end_time": 22.2477273,
                "pitch": 11,
                "velocity": 80,
                "duration": 0.0159091,
                "tempo": 120.0
            },
            {
                "start_time": 22.2477273,
                "end_time": 22.2636364,
                "pitch": 8,
                "velocity": 80,
                "duration": 0.0159091,
                "tempo": 120.0
            },
            {
                "start_time": 22.2636364,
                "end_time": 22.2795455,
                "pitch": 5,
                "velocity": 80,
                "duration": 0.0159091,
                "tempo": 120.0
            },
            {
                "start_time": 22.2795455,
                "end_time": 22.3613636,
                "pitch": 2,
                "velocity": 80,
                "duration": 0.0818182,
                "tempo": 120.0
            },
            {
                "start_time": 21.4340909,
                "end_time": 22.4272727,
                "pitch": 31,
                "velocity": 80,
                "duration": 0.9931818,
                "tempo": 120.0
            },
            {
                "start_time": 22.3613636,
                "end_time": 22.4272727,
                "pitch": 31,
                "velocity": 80,
                "duration": 0.0659091,
                "tempo": 120.0
            },
            {
                "start_time": 22.7954545,
                "end_time": 22.8113636,
                "pitch": 24,
                "velocity": 80,
                "duration": 0.0159091,
                "tempo": 120.0
            },
            {
                "start_time": 22.8113636,
                "end_time": 22.8454545,
                "pitch": 21,
                "velocity": 80,
                "duration": 0.0340909,
                "tempo": 120.0
            },
            {
                "start_time": 22.8454545,
                "end_time": 22.8795455,
                "pitch": 19,
                "velocity": 80,
                "duration": 0.0340909,
                "tempo": 120.0
            },
            {
                "start_time": 22.8795455,
                "end_time": 22.8977273,
                "pitch": 15,
                "velocity": 80,
                "duration": 0.0181818,
                "tempo": 120.0
            },
            {
                "start_time": 22.8977273,
                "end_time": 22.9159091,
                "pitch": 13,
                "velocity": 80,
                "duration": 0.0181818,
                "tempo": 120.0
            },
            {
                "start_time": 22.9159091,
                "end_time": 22.9318182,
                "pitch": 11,
                "velocity": 80,
                "duration": 0.0159091,
                "tempo": 120.0
            },
            {
                "start_time": 22.9318182,
                "end_time": 22.9477273,
                "pitch": 8,
                "velocity": 80,
                "duration": 0.0159091,
                "tempo": 120.0
            },
            {
                "start_time": 22.9477273,
                "end_time": 22.9659091,
                "pitch": 5,
                "velocity": 80,
                "duration": 0.0181818,
                "tempo": 120.0
            },
            {
                "start_time": 22.9659091,
                "end_time": 23.0522727,
                "pitch": 2,
                "velocity": 80,
                "duration": 0.0863636,
                "tempo": 120.0
            },
            {
                "start_time": 23.0522727,
                "end_time": 23.1045455,
                "pitch": 31,
                "velocity": 80,
                "duration": 0.0522727,
                "tempo": 120.0
            },
            {
                "start_time": 23.4659091,
                "end_time": 23.4795455,
                "pitch": 24,
                "velocity": 80,
                "duration": 0.0136364,
                "tempo": 120.0
            },
            {
                "start_time": 23.4795455,
                "end_time": 23.5136364,
                "pitch": 21,
                "velocity": 80,
                "duration": 0.0340909,
                "tempo": 120.0
            },
            {
                "start_time": 23.5136364,
                "end_time": 23.5477273,
                "pitch": 19,
                "velocity": 80,
                "duration": 0.0340909,
                "tempo": 120.0
            },
            {
                "start_time": 23.5477273,
                "end_time": 23.5636364,
                "pitch": 15,
                "velocity": 80,
                "duration": 0.0159091,
                "tempo": 120.0
            },
            {
                "start_time": 23.5636364,
                "end_time": 23.5818182,
                "pitch": 13,
                "velocity": 80,
                "duration": 0.0181818,
                "tempo": 120.0
            },
            {
                "start_time": 23.5818182,
                "end_time": 23.5977273,
                "pitch": 11,
                "velocity": 80,
                "duration": 0.0159091,
                "tempo": 120.0
            },
            {
                "start_time": 23.5977273,
                "end_time": 23.6136364,
                "pitch": 8,
                "velocity": 80,
                "duration": 0.0159091,
                "tempo": 120.0
            },
            {
                "start_time": 23.6136364,
                "end_time": 23.6318182,
                "pitch": 5,
                "velocity": 80,
                "duration": 0.0181818,
                "tempo": 120.0
            },
            {
                "start_time": 23.6318182,
                "end_time": 23.7136364,
                "pitch": 2,
                "velocity": 80,
                "duration": 0.0818182,
                "tempo": 120.0
            },
            {
                "start_time": 23.7136364,
                "end_time": 23.7818182,
                "pitch": 31,
                "velocity": 80,
                "duration": 0.0681818,
                "tempo": 120.0
            },
            {
                "start_time": 24.0363636,
                "end_time": 24.05,
                "pitch": 36,
                "velocity": 80,
                "duration": 0.0136364,
                "tempo": 120.0
            },
            {
                "start_time": 24.05,
                "end_time": 24.0659091,
                "pitch": 33,
                "velocity": 80,
                "duration": 0.0159091,
                "tempo": 120.0
            },
            {
                "start_time": 24.1,
                "end_time": 24.1181818,
                "pitch": 36,
                "velocity": 80,
                "duration": 0.0181818,
                "tempo": 120.0
            },
            {
                "start_time": 24.1522727,
                "end_time": 24.1659091,
                "pitch": 36,
                "velocity": 80,
                "duration": 0.0136364,
                "tempo": 120.0
            },
            {
                "start_time": 24.1659091,
                "end_time": 24.2,
                "pitch": 33,
                "velocity": 80,
                "duration": 0.0340909,
                "tempo": 120.0
            },
            {
                "start_time": 24.2,
                "end_time": 24.2340909,
                "pitch": 31,
                "velocity": 80,
                "duration": 0.0340909,
                "tempo": 120.0
            },
            {
                "start_time": 24.2681818,
                "end_time": 24.2840909,
                "pitch": 32,
                "velocity": 80,
                "duration": 0.0159091,
                "tempo": 120.0
            },
            {
                "start_time": 21.4340909,
                "end_time": 24.2840909,
                "pitch": 42,
                "velocity": 80,
                "duration": 2.85,
                "tempo": 120.0
            },
            {
                "start_time": 24.2840909,
                "end_time": 24.3181818,
                "pitch": 30,
                "velocity": 80,
                "duration": 0.0340909,
                "tempo": 120.0
            },
            {
                "start_time": 24.3181818,
                "end_time": 24.3522727,
                "pitch": 27,
                "velocity": 80,
                "duration": 0.0340909,
                "tempo": 120.0
            },
            {
                "start_time": 24.3863636,
                "end_time": 24.4,
                "pitch": 28,
                "velocity": 80,
                "duration": 0.0136364,
                "tempo": 120.0
            },
            {
                "start_time": 24.4,
                "end_time": 24.4340909,
                "pitch": 26,
                "velocity": 80,
                "duration": 0.0340909,
                "tempo": 120.0
            },
            {
                "start_time": 24.4340909,
                "end_time": 24.4681818,
                "pitch": 23,
                "velocity": 80,
                "duration": 0.0340909,
                "tempo": 120.0
            },
            {
                "start_time": 24.8272727,
                "end_time": 24.8431818,
                "pitch": 24,
                "velocity": 80,
                "duration": 0.0159091,
                "tempo": 120.0
            },
            {
                "start_time": 24.8431818,
                "end_time": 24.8772727,
                "pitch": 21,
                "velocity": 80,
                "duration": 0.0340909,
                "tempo": 120.0
            },
            {
                "start_time": 24.8772727,
                "end_time": 24.9136364,
                "pitch": 19,
                "velocity": 80,
                "duration": 0.0363636,
                "tempo": 120.0
            },
            {
                "start_time": 24.9136364,
                "end_time": 24.9295455,
                "pitch": 15,
                "velocity": 80,
                "duration": 0.0159091,
                "tempo": 120.0
            },
            {
                "start_time": 24.9295455,
                "end_time": 24.9477273,
                "pitch": 13,
                "velocity": 80,
                "duration": 0.0181818,
                "tempo": 120.0
            },
            {
                "start_time": 24.9477273,
                "end_time": 24.9636364,
                "pitch": 11,
                "velocity": 80,
                "duration": 0.0159091,
                "tempo": 120.0
            },
            {
                "start_time": 24.9636364,
                "end_time": 24.9818182,
                "pitch": 8,
                "velocity": 80,
                "duration": 0.0181818,
                "tempo": 120.0
            },
            {
                "start_time": 24.9818182,
                "end_time": 24.9977273,
                "pitch": 5,
                "velocity": 80,
                "duration": 0.0159091,
                "tempo": 120.0
            },
            {
                "start_time": 24.9977273,
                "end_time": 25.0840909,
                "pitch": 2,
                "velocity": 80,
                "duration": 0.0863636,
                "tempo": 120.0
            },
            {
                "start_time": 25.0840909,
                "end_time": 25.1363636,
                "pitch": 31,
                "velocity": 80,
                "duration": 0.0522727,
                "tempo": 120.0
            },
            {
                "start_time": 25.4977273,
                "end_time": 25.5136364,
                "pitch": 24,
                "velocity": 80,
                "duration": 0.0159091,
                "tempo": 120.0
            },
            {
                "start_time": 25.5136364,
                "end_time": 25.5454545,
                "pitch": 21,
                "velocity": 80,
                "duration": 0.0318182,
                "tempo": 120.0
            },
            {
                "start_time": 25.5454545,
                "end_time": 25.5795455,
                "pitch": 19,
                "velocity": 80,
                "duration": 0.0340909,
                "tempo": 120.0
            },
            {
                "start_time": 25.5795455,
                "end_time": 25.5977273,
                "pitch": 15,
                "velocity": 80,
                "duration": 0.0181818,
                "tempo": 120.0
            },
            {
                "start_time": 25.5977273,
                "end_time": 25.6136364,
                "pitch": 13,
                "velocity": 80,
                "duration": 0.0159091,
                "tempo": 120.0
            },
            {
                "start_time": 25.6136364,
                "end_time": 25.6295455,
                "pitch": 11,
                "velocity": 80,
                "duration": 0.0159091,
                "tempo": 120.0
            },
            {
                "start_time": 25.6295455,
                "end_time": 25.6477273,
                "pitch": 8,
                "velocity": 80,
                "duration": 0.0181818,
                "tempo": 120.0
            },
            {
                "start_time": 25.6477273,
                "end_time": 25.6636364,
                "pitch": 5,
                "velocity": 80,
                "duration": 0.0159091,
                "tempo": 120.0
            },
            {
                "start_time": 25.6636364,
                "end_time": 25.7477273,
                "pitch": 2,
                "velocity": 80,
                "duration": 0.0840909,
                "tempo": 120.0
            },
            {
                "start_time": 25.7477273,
                "end_time": 25.8159091,
                "pitch": 31,
                "velocity": 80,
                "duration": 0.0681818,
                "tempo": 120.0
            },
            {
                "start_time": 25.8522727,
                "end_time": 25.8636364,
                "pitch": 24,
                "velocity": 80,
                "duration": 0.0113636,
                "tempo": 120.0
            },
            {
                "start_time": 25.8636364,
                "end_time": 25.9,
                "pitch": 21,
                "velocity": 80,
                "duration": 0.0363636,
                "tempo": 120.0
            },
            {
                "start_time": 25.9,
                "end_time": 25.9340909,
                "pitch": 19,
                "velocity": 80,
                "duration": 0.0340909,
                "tempo": 120.0
            },
            {
                "start_time": 25.9704545,
                "end_time": 25.9863636,
                "pitch": 24,
                "velocity": 80,
                "duration": 0.0159091,
                "tempo": 120.0
            },
            {
                "start_time": 25.9863636,
                "end_time": 26.0204545,
                "pitch": 21,
                "velocity": 80,
                "duration": 0.0340909,
                "tempo": 120.0
            },
            {
                "start_time": 26.0204545,
                "end_time": 26.0545455,
                "pitch": 19,
                "velocity": 80,
                "duration": 0.0340909,
                "tempo": 120.0
            },
            {
                "start_time": 26.0727273,
                "end_time": 26.0886364,
                "pitch": 24,
                "velocity": 80,
                "duration": 0.0159091,
                "tempo": 120.0
            },
            {
                "start_time": 26.0886364,
                "end_time": 26.1227273,
                "pitch": 21,
                "velocity": 80,
                "duration": 0.0340909,
                "tempo": 120.0
            },
            {
                "start_time": 26.1227273,
                "end_time": 26.1590909,
                "pitch": 19,
                "velocity": 80,
                "duration": 0.0363636,
                "tempo": 120.0
            },
            {
                "start_time": 26.1954545,
                "end_time": 26.2090909,
                "pitch": 24,
                "velocity": 80,
                "duration": 0.0136364,
                "tempo": 120.0
            },
            {
                "start_time": 26.2090909,
                "end_time": 26.2431818,
                "pitch": 21,
                "velocity": 80,
                "duration": 0.0340909,
                "tempo": 120.0
            },
            {
                "start_time": 26.2431818,
                "end_time": 26.2772727,
                "pitch": 19,
                "velocity": 80,
                "duration": 0.0340909,
                "tempo": 120.0
            },
            {
                "start_time": 26.5477273,
                "end_time": 26.5613636,
                "pitch": 32,
                "velocity": 80,
                "duration": 0.0136364,
                "tempo": 120.0
            },
            {
                "start_time": 24.2840909,
                "end_time": 26.5613636,
                "pitch": 42,
                "velocity": 80,
                "duration": 2.2772727,
                "tempo": 120.0
            },
            {
                "start_time": 26.5613636,
                "end_time": 26.5931818,
                "pitch": 30,
                "velocity": 80,
                "duration": 0.0318182,
                "tempo": 120.0
            },
            {
                "start_time": 26.5931818,
                "end_time": 26.6295455,
                "pitch": 27,
                "velocity": 80,
                "duration": 0.0363636,
                "tempo": 120.0
            },
            {
                "start_time": 26.6477273,
                "end_time": 26.6613636,
                "pitch": 32,
                "velocity": 80,
                "duration": 0.0136364,
                "tempo": 120.0
            },
            {
                "start_time": 26.5613636,
                "end_time": 26.6613636,
                "pitch": 42,
                "velocity": 80,
                "duration": 0.1,
                "tempo": 120.0
            },
            {
                "start_time": 26.6613636,
                "end_time": 26.6954545,
                "pitch": 30,
                "velocity": 80,
                "duration": 0.0340909,
                "tempo": 120.0
            },
            {
                "start_time": 26.6954545,
                "end_time": 26.7295455,
                "pitch": 27,
                "velocity": 80,
                "duration": 0.0340909,
                "tempo": 120.0
            },
            {
                "start_time": 26.7636364,
                "end_time": 26.7772727,
                "pitch": 32,
                "velocity": 80,
                "duration": 0.0136364,
                "tempo": 120.0
            },
            {
                "start_time": 26.6613636,
                "end_time": 26.7772727,
                "pitch": 42,
                "velocity": 80,
                "duration": 0.1159091,
                "tempo": 120.0
            },
            {
                "start_time": 26.7772727,
                "end_time": 26.8113636,
                "pitch": 30,
                "velocity": 80,
                "duration": 0.0340909,
                "tempo": 120.0
            },
            {
                "start_time": 26.8113636,
                "end_time": 26.8454545,
                "pitch": 27,
                "velocity": 80,
                "duration": 0.0340909,
                "tempo": 120.0
            },
            {
                "start_time": 26.8818182,
                "end_time": 26.8954545,
                "pitch": 28,
                "velocity": 80,
                "duration": 0.0136364,
                "tempo": 120.0
            },
            {
                "start_time": 26.8954545,
                "end_time": 26.9295455,
                "pitch": 26,
                "velocity": 80,
                "duration": 0.0340909,
                "tempo": 120.0
            },
            {
                "start_time": 26.9295455,
                "end_time": 26.9636364,
                "pitch": 23,
                "velocity": 80,
                "duration": 0.0340909,
                "tempo": 120.0
            }
        ]
    }
}