{
    "mood": "angry",
    "instruments": {
        "Trumpet": [
            {
                "start_time": 0.0068182,
                "end_time": 1.8545455,
                "pitch": 64,
                "velocity": 64,
                "duration": 1.8477273,
                "tempo": 120.0
            },
            {
                "start_time": 1.8931818,
                "end_time": 3.8159091,
                "pitch": 65,
                "velocity": 64,
                "duration": 1.9227273,
                "tempo": 120.0
            },
            {
                "start_time": 3.8363636,
                "end_time": 5.6727273,
                "pitch": 67,
                "velocity": 64,
                "duration": 1.8363636,
                "tempo": 120.0
            },
            {
                "start_time": 5.6909091,
                "end_time": 7.3477273,
                "pitch": 69,
                "velocity": 64,
                "duration": 1.6568182,
                "tempo": 120.0
            },
            {
                "start_time": 7.3681818,
                "end_time": 7.4681818,
                "pitch": 62,
                "velocity": 80,
                "duration": 0.1,
                "tempo": 120.0
            },
            {
                "start_time": 7.4863636,
                "end_time": 7.9613636,
                "pitch": 62,
                "velocity": 51,
                "duration": 0.475,
                "tempo": 120.0
            },
            {
                "start_time": 7.9954545,
                "end_time": 8.0931818,
                "pitch": 62,
                "velocity": 80,
                "duration": 0.0977273,
                "tempo": 120.0
            },
            {
                "start_time": 8.1113636,
                "end_time": 8.4363636,
                "pitch": 62,
                "velocity": 51,
                "duration": 0.325,
                "tempo": 120.0
            },
            {
                "start_time": 8.4704545,
                "end_time": 8.5704545,
                "pitch": 62,
                "velocity": 80,
                "duration": 0.1,
                "tempo": 120.0
            },
            {
                "start_time": 8.5886364,
                "end_time": 9.0545455,
                "pitch": 62,
                "velocity": 51,
                "duration": 0.4659091,
                "tempo": 120.0
            },
            {
                "start_time": 9.0727273,
                "end_time": 9.1704545,
                "pitch": 62,
                "velocity": 80,
                "duration": 0.0977273,
                "tempo": 120.0
            },
            {
                "start_time": 9.1886364,
                "end_time": 9.5204545,
                "pitch": 62,
                "velocity": 51,
                "duration": 0.3318182,
                "tempo": 120.0
            },
            {
                "start_time": 9.5363636,
                "end_time": 9.6363636,
                "pitch": 62,
                "velocity": 80,
                "duration": 0.1,
                "tempo": 120.0
            },
            {
                "start_time": 9.6522727,
                "end_time": 10.2545455,
                "pitch": 62,
                "velocity": 51,
                "duration": 0.6022727,
                "tempo": 120.0
            },
            {
                "start_time": 10.2727273,
                "end_time": 10.3681818,
                "pitch": 62,
                "velocity": 80,
                "duration": 0.0954545,
                "tempo": 120.0
            },
            {
                "start_time": 10.3863636,
                "end_time": 10.8409091,
                "pitch": 62,
                "velocity": 51,
                "duration": 0.4545455,
                "tempo": 120.0
            },
            {
                "start_time": 10.8590909,
                "end_time": 10.9545455,
                "pitch": 62,
                "velocity": 80,
                "duration": 0.0954545,
                "tempo": 120.0
            },
            {
                "start_time": 10.9886364,
                "end_time": 11.3227273,
                "pitch": 62,
                "velocity": 51,
                "duration": 0.3340909,
                "tempo": 120.0
            },
            {
                "start_time": 11.3386364,
                "end_time": 11.4363636,
                "pitch": 62,
                "velocity": 80,
                "duration": 0.0977273,
                "tempo": 120.0
            },
            {
                "start_time": 11.4704545,
                "end_time": 11.925,
                "pitch": 62,
                "velocity": 51,
                "duration": 0.4545455,
                "tempo": 120.0
            },
            {
                "start_time": 11.9431818,
                "end_time": 12.0386364,
                "pitch": 62,
                "velocity": 80,
                "duration": 0.0954545,
                "tempo": 120.0
            },
            {
                "start_time": 12.0568182,
                "end_time": 12.4068182,
                "pitch": 62,
                "velocity": 51,
                "duration": 0.35,
                "tempo": 120.0
            },
            {
                "start_time": 12.425,
                "end_time": 12.5227273,
                "pitch": 62,
                "velocity": 80,
                "duration": 0.0977273,
                "tempo": 120.0
            },
            {
                "start_time": 12.5409091,
                "end_time": 13.125,
                "pitch": 62,
                "velocity": 51,
                "duration": 0.5840909,
                "tempo": 120.0
            },
            {
                "start_time": 64.9386364,
                "end_time": 65.0318182,
                "pitch": 62,
                "velocity": 80,
                "duration": 0.0931818,
                "tempo": 120.0
            }
        ],
        "Electric Piano 1": [
            {
                "start_time": 36.1522727,
                "end_time": 36.7272727,
                "pitch": 55,
                "velocity": 40,
                "duration": 0.575,
                "tempo": 120.0
            },
            {
                "start_time": 36.7613636,
                "end_time": 37.225,
                "pitch": 57,
                "velocity": 40,
                "duration": 0.4636364,
                "tempo": 120.0
            },
            {
                "start_time": 37.2431818,
                "end_time": 37.575,
                "pitch": 58,
                "velocity": 40,
                "duration": 0.3318182,
                "tempo": 120.0
            },
            {
                "start_time": 37.6113636,
                "end_time": 38.1727273,
                "pitch": 57,
                "velocity": 40,
                "duration": 0.5613636,
                "tempo": 120.0
            },
            {
                "start_time": 38.1909091,
                "end_time": 38.65,
                "pitch": 58,
                "velocity": 40,
                "duration": 0.4590909,
                "tempo": 120.0
            },
            {
                "start_time": 38.6681818,
                "end_time": 39.0181818,
                "pitch": 60,
                "velocity": 40,
                "duration": 0.35,
                "tempo": 120.0
            },
            {
                "start_time": 39.0363636,
                "end_time": 39.6136364,
                "pitch": 58,
                "velocity": 40,
                "duration": 0.5772727,
                "tempo": 120.0
            },
            {
                "start_time": 39.6318182,
                "end_time": 40.0954545,
                "pitch": 57,
                "velocity": 40,
                "duration": 0.4636364,
                "tempo": 120.0
            },
            {
                "start_time": 40.1295455,
                "end_time": 40.4613636,
                "pitch": 53,
                "velocity": 40,
                "duration": 0.3318182,
                "tempo": 120.0
            },
            {
                "start_time": 40.4795455,
                "end_time": 40.575,
                "pitch": 52,
                "velocity": 40,
                "duration": 0.0954545,
                "tempo": 120.0
            },
            {
                "start_time": 40.6068182,
                "end_time": 40.7,
                "pitch": 55,
                "velocity": 40,
                "duration": 0.0931818,
                "tempo": 120.0
            },
            {
                "start_time": 40.7181818,
                "end_time": 40.8113636,
                "pitch": 60,
                "velocity": 40,
                "duration": 0.0931818,
                "tempo": 120.0
            },
            {
                "start_time": 40.8272727,
                "end_time": 40.925,
                "pitch": 52,
                "velocity": 40,
                "duration": 0.0977273,
                "tempo": 120.0
            },
            {
                "start_time": 40.9409091,
                "end_time": 41.0545455,
                "pitch": 55,
                "velocity": 40,
                "duration": 0.1136364,
                "tempo": 120.0
            },
            {
                "start_time": 41.0727273,
                "end_time": 41.1704545,
                "pitch": 60,
                "velocity": 40,
                "duration": 0.0977273,
                "tempo": 120.0
            },
            {
                "start_time": 41.1886364,
                "end_time": 41.2863636,
                "pitch": 52,
                "velocity": 40,
                "duration": 0.0977273,
                "tempo": 120.0
            },
            {
                "start_time": 41.3022727,
                "end_time": 41.4022727,
                "pitch": 55,
                "velocity": 40,
                "duration": 0.1,
                "tempo": 120.0
            },
            {
                "start_time": 41.4363636,
                "end_time": 41.5363636,
                "pitch": 60,
                "velocity": 40,
                "duration": 0.1,
                "tempo": 120.0
            },
            {
                "start_time": 41.5545455,
                "end_time": 41.6545455,
                "pitch": 52,
                "velocity": 40,
                "duration": 0.1,
                "tempo": 120.0
            },
            {
                "start_time": 41.6727273,
                "end_time": 41.7704545,
                "pitch": 55,
                "velocity": 40,
                "duration": 0.0977273,
                "tempo": 120.0
            },
            {
                "start_time": 41.7886364,
                "end_time": 41.8863636,
                "pitch": 60,
                "velocity": 40,
                "duration": 0.0977273,
                "tempo": 120.0
            },
            {
                "start_time": 41.9227273,
                "end_time": 42.5,
                "pitch": 55,
                "velocity": 40,
                "duration": 0.5772727,
                "tempo": 120.0
            },
            {
                "start_time": 42.5181818,
                "end_time": 42.9636364,
                "pitch": 57,
                "velocity": 40,
                "duration": 0.4454545,
                "tempo": 120.0
            },
            {
                "start_time": 42.9795455,
                "end_time": 43.3295455,
                "pitch": 58,
                "velocity": 40,
                "duration": 0.35,
                "tempo": 120.0
            },
            {
                "start_time": 43.3477273,
                "end_time": 43.925,
                "pitch": 57,
                "velocity": 40,
                "duration": 0.5772727,
                "tempo": 120.0
            },
            {
                "start_time": 43.9431818,
                "end_time": 44.4068182,
                "pitch": 58,
                "velocity": 40,
                "duration": 0.4636364,
                "tempo": 120.0
            },
            {
                "start_time": 44.4409091,
                "end_time": 44.7727273,
                "pitch": 60,
                "velocity": 40,
                "duration": 0.3318182,
                "tempo": 120.0
            },
            {
                "start_time": 44.7931818,
                "end_time": 45.3727273,
                "pitch": 58,
                "velocity": 40,
                "duration": 0.5795455,
                "tempo": 120.0
            },
            {
                "start_time": 45.3909091,
                "end_time": 45.8477273,
                "pitch": 57,
                "velocity": 40,
                "duration": 0.4568182,
                "tempo": 120.0
            },
            {
                "start_time": 45.8659091,
                "end_time": 46.2136364,
                "pitch": 53,
                "velocity": 40,
                "duration": 0.3477273,
                "tempo": 120.0
            },
            {
                "start_time": 46.2318182,
                "end_time": 46.3318182,
                "pitch": 58,
                "velocity": 40,
                "duration": 0.1,
                "tempo": 120.0
            },
            {
                "start_time": 46.35,
                "end_time": 46.4477273,
                "pitch": 55,
                "velocity": 40,
                "duration": 0.0977273,
                "tempo": 120.0
            },
            {
                "start_time": 46.4659091,
                "end_time": 46.5659091,
                "pitch": 50,
                "velocity": 40,
                "duration": 0.1,
                "tempo": 120.0
            },
            {
                "start_time": 46.6,
                "end_time": 46.6954545,
                "pitch": 58,
                "velocity": 40,
                "duration": 0.0954545,
                "tempo": 120.0
            },
            {
                "start_time": 46.7136364,
                "end_time": 46.8113636,
                "pitch": 55,
                "velocity": 40,
                "duration": 0.0977273,
                "tempo": 120.0
            },
            {
                "start_time": 46.8295455,
                "end_time": 46.925,
                "pitch": 50,
                "velocity": 40,
                "duration": 0.0954545,
                "tempo": 120.0
            },
            {
                "start_time": 46.9431818,
                "end_time": 47.0545455,
                "pitch": 58,
                "velocity": 40,
                "duration": 0.1113636,
                "tempo": 120.0
            },
            {
                "start_time": 47.0704545,
                "end_time": 47.1681818,
                "pitch": 55,
                "velocity": 40,
                "duration": 0.0977273,
                "tempo": 120.0
            },
            {
                "start_time": 47.1863636,
                "end_time": 47.2840909,
                "pitch": 50,
                "velocity": 40,
                "duration": 0.0977273,
                "tempo": 120.0
            },
            {
                "start_time": 47.3022727,
                "end_time": 47.4,
                "pitch": 58,
                "velocity": 40,
                "duration": 0.0977273,
                "tempo": 120.0
            },
            {
                "start_time": 47.4340909,
                "end_time": 47.5318182,
                "pitch": 55,
                "velocity": 40,
                "duration": 0.0977273,
                "tempo": 120.0
            },
            {
                "start_time": 47.55,
                "end_time": 47.65,
                "pitch": 50,
                "velocity": 40,
                "duration": 0.1,
                "tempo": 120.0
            },
            {
                "start_time": 47.6704545,
                "end_time": 48.2431818,
                "pitch": 50,
                "velocity": 51,
                "duration": 0.5727273,
                "tempo": 120.0
            },
            {
                "start_time": 48.2772727,
                "end_time": 48.7181818,
                "pitch": 51,
                "velocity": 51,
                "duration": 0.4409091,
                "tempo": 120.0
            },
            {
                "start_time": 48.7522727,
                "end_time": 49.0840909,
                "pitch": 54,
                "velocity": 51,
                "duration": 0.3318182,
                "tempo": 120.0
            },
            {
                "start_time": 49.1045455,
                "end_time": 49.6840909,
                "pitch": 57,
                "velocity": 51,
                "duration": 0.5795455,
                "tempo": 120.0
            },
            {
                "start_time": 49.7022727,
                "end_time": 50.1590909,
                "pitch": 55,
                "velocity": 51,
                "duration": 0.4568182,
                "tempo": 120.0
            },
            {
                "start_time": 50.1772727,
                "end_time": 50.5363636,
                "pitch": 54,
                "velocity": 51,
                "duration": 0.3590909,
                "tempo": 120.0
            },
            {
                "start_time": 50.5568182,
                "end_time": 51.1295455,
                "pitch": 50,
                "velocity": 51,
                "duration": 0.5727273,
                "tempo": 120.0
            },
            {
                "start_time": 51.1477273,
                "end_time": 51.6068182,
                "pitch": 51,
                "velocity": 51,
                "duration": 0.4590909,
                "tempo": 120.0
            },
            {
                "start_time": 51.625,
                "end_time": 51.9659091,
                "pitch": 54,
                "velocity": 51,
                "duration": 0.3409091,
                "tempo": 120.0
            },
            {
                "start_time": 51.9818182,
                "end_time": 52.5568182,
                "pitch": 57,
                "velocity": 51,
                "duration": 0.575,
                "tempo": 120.0
            },
            {
                "start_time": 52.5909091,
                "end_time": 53.0568182,
                "pitch": 55,
                "velocity": 51,
                "duration": 0.4659091,
                "tempo": 120.0
            },
            {
                "start_time": 53.075,
                "end_time": 53.4090909,
                "pitch": 54,
                "velocity": 51,
                "duration": 0.3340909,
                "tempo": 120.0
            },
            {
                "start_time": 53.4477273,
                "end_time": 53.4909091,
                "pitch": 54,
                "velocity": 51,
                "duration": 0.0431818,
                "tempo": 120.0
            },
            {
                "start_time": 53.4909091,
                "end_time": 53.5409091,
                "pitch": 51,
                "velocity": 51,
                "duration": 0.05,
                "tempo": 120.0
            },
            {
                "start_time": 53.4477273,
                "end_time": 53.5590909,
                "pitch": 55,
                "velocity": 51,
                "duration": 0.1113636,
                "tempo": 120.0
            },
            {
                "start_time": 53.4477273,
                "end_time": 53.5590909,
                "pitch": 67,
                "velocity": 51,
                "duration": 0.1113636,
                "tempo": 120.0
            },
            {
                "start_time": 53.5590909,
                "end_time": 53.6045455,
                "pitch": 54,
                "velocity": 51,
                "duration": 0.0454545,
                "tempo": 120.0
            },
            {
                "start_time": 53.6045455,
                "end_time": 53.6545455,
                "pitch": 51,
                "velocity": 51,
                "duration": 0.05,
                "tempo": 120.0
            },
            {
                "start_time": 53.5590909,
                "end_time": 53.6727273,
                "pitch": 55,
                "velocity": 51,
                "duration": 0.1136364,
                "tempo": 120.0
            },
            {
                "start_time": 53.5590909,
                "end_time": 53.6727273,
                "pitch": 67,
                "velocity": 51,
                "duration": 0.1136364,
                "tempo": 120.0
            },
            {
                "start_time": 53.6727273,
                "end_time": 53.7181818,
                "pitch": 54,
                "velocity": 51,
                "duration": 0.0454545,
                "tempo": 120.0
            },
            {
                "start_time": 53.7181818,
                "end_time": 53.7681818,
                "pitch": 51,
                "velocity": 51,
                "duration": 0.05,
                "tempo": 120.0
            },
            {
                "start_time": 53.6727273,
                "end_time": 53.7863636,
                "pitch": 55,
                "velocity": 51,
                "duration": 0.1136364,
                "tempo": 120.0
            },
            {
                "start_time": 53.6727273,
                "end_time": 53.7863636,
                "pitch": 67,
                "velocity": 51,
                "duration": 0.1136364,
                "tempo": 120.0
            },
            {
                "start_time": 53.7863636,
                "end_time": 53.8318182,
                "pitch": 54,
                "velocity": 64,
                "duration": 0.0454545,
                "tempo": 120.0
            },
            {
                "start_time": 53.8318182,
                "end_time": 53.8818182,
                "pitch": 51,
                "velocity": 64,
                "duration": 0.05,
                "tempo": 120.0
            },
            {
                "start_time": 53.7863636,
                "end_time": 53.9181818,
                "pitch": 55,
                "velocity": 64,
                "duration": 0.1318182,
                "tempo": 120.0
            },
            {
                "start_time": 53.9159091,
                "end_time": 53.9181818,
                "pitch": 55,
                "velocity": 64,
                "duration": 0.0022727,
                "tempo": 120.0
            },
            {
                "start_time": 53.7863636,
                "end_time": 53.9181818,
                "pitch": 67,
                "velocity": 64,
                "duration": 0.1318182,
                "tempo": 120.0
            },
            {
                "start_time": 53.9181818,
                "end_time": 53.9636364,
                "pitch": 54,
                "velocity": 64,
                "duration": 0.0454545,
                "tempo": 120.0
            },
            {
                "start_time": 53.9636364,
                "end_time": 54.0136364,
                "pitch": 51,
                "velocity": 64,
                "duration": 0.05,
                "tempo": 120.0
            },
            {
                "start_time": 53.9181818,
                "end_time": 54.0318182,
                "pitch": 67,
                "velocity": 64,
                "duration": 0.1136364,
                "tempo": 120.0
            },
            {
                "start_time": 54.0318182,
                "end_time": 54.0772727,
                "pitch": 54,
                "velocity": 64,
                "duration": 0.0454545,
                "tempo": 120.0
            },
            {
                "start_time": 54.0772727,
                "end_time": 54.1272727,
                "pitch": 51,
                "velocity": 64,
                "duration": 0.05,
                "tempo": 120.0
            },
            {
                "start_time": 54.0318182,
                "end_time": 54.1454545,
                "pitch": 55,
                "velocity": 64,
                "duration": 0.1136364,
                "tempo": 120.0
            },
            {
                "start_time": 54.0318182,
                "end_time": 54.1454545,
                "pitch": 67,
                "velocity": 64,
                "duration": 0.1136364,
                "tempo": 120.0
            },
            {
                "start_time": 54.1454545,
                "end_time": 54.1909091,
                "pitch": 54,
                "velocity": 80,
                "duration": 0.0454545,
                "tempo": 120.0
            },
            {
                "start_time": 54.1909091,
                "end_time": 54.2409091,
                "pitch": 51,
                "velocity": 80,
                "duration": 0.05,
                "tempo": 120.0
            },
            {
                "start_time": 54.1454545,
                "end_time": 54.275,
                "pitch": 55,
                "velocity": 80,
                "duration": 0.1295455,
                "tempo": 120.0
            },
            {
                "start_time": 54.1454545,
                "end_time": 54.275,
                "pitch": 67,
                "velocity": 80,
                "duration": 0.1295455,
                "tempo": 120.0
            },
            {
                "start_time": 54.275,
                "end_time": 54.3227273,
                "pitch": 54,
                "velocity": 80,
                "duration": 0.0477273,
                "tempo": 120.0
            },
            {
                "start_time": 54.3227273,
                "end_time": 54.3704545,
                "pitch": 51,
                "velocity": 80,
                "duration": 0.0477273,
                "tempo": 120.0
            },
            {
                "start_time": 54.275,
                "end_time": 54.3909091,
                "pitch": 55,
                "velocity": 80,
                "duration": 0.1159091,
                "tempo": 120.0
            },
            {
                "start_time": 54.3886364,
                "end_time": 54.3909091,
                "pitch": 55,
                "velocity": 80,
                "duration": 0.0022727,
                "tempo": 120.0
            },
            {
                "start_time": 54.275,
                "end_time": 54.3909091,
                "pitch": 67,
                "velocity": 80,
                "duration": 0.1159091,
                "tempo": 120.0
            },
            {
                "start_time": 54.3909091,
                "end_time": 54.4363636,
                "pitch": 54,
                "velocity": 80,
                "duration": 0.0454545,
                "tempo": 120.0
            },
            {
                "start_time": 54.4363636,
                "end_time": 54.4863636,
                "pitch": 51,
                "velocity": 80,
                "duration": 0.05,
                "tempo": 120.0
            },
            {
                "start_time": 54.3909091,
                "end_time": 54.5045455,
                "pitch": 67,
                "velocity": 80,
                "duration": 0.1136364,
                "tempo": 120.0
            },
            {
                "start_time": 54.5045455,
                "end_time": 54.55,
                "pitch": 54,
                "velocity": 101,
                "duration": 0.0454545,
                "tempo": 120.0
            },
            {
                "start_time": 54.55,
                "end_time": 54.6022727,
                "pitch": 51,
                "velocity": 101,
                "duration": 0.0522727,
                "tempo": 120.0
            },
            {
                "start_time": 54.5045455,
                "end_time": 54.6204545,
                "pitch": 55,
                "velocity": 101,
                "duration": 0.1159091,
                "tempo": 120.0
            },
            {
                "start_time": 54.5045455,
                "end_time": 54.6204545,
                "pitch": 67,
                "velocity": 101,
                "duration": 0.1159091,
                "tempo": 120.0
            },
            {
                "start_time": 54.6204545,
                "end_time": 54.6681818,
                "pitch": 54,
                "velocity": 101,
                "duration": 0.0477273,
                "tempo": 120.0
            },
            {
                "start_time": 54.6681818,
                "end_time": 54.7181818,
                "pitch": 51,
                "velocity": 101,
                "duration": 0.05,
                "tempo": 120.0
            },
            {
                "start_time": 54.6204545,
                "end_time": 54.7545455,
                "pitch": 55,
                "velocity": 101,
                "duration": 0.1340909,
                "tempo": 120.0
            },
            {
                "start_time": 54.6204545,
                "end_time": 54.7545455,
                "pitch": 67,
                "velocity": 101,
                "duration": 0.1340909,
                "tempo": 120.0
            },
            {
                "start_time": 54.7545455,
                "end_time": 54.8022727,
                "pitch": 54,
                "velocity": 101,
                "duration": 0.0477273,
                "tempo": 120.0
            },
            {
                "start_time": 54.8022727,
                "end_time": 54.8522727,
                "pitch": 51,
                "velocity": 101,
                "duration": 0.05,
                "tempo": 120.0
            },
            {
                "start_time": 54.7545455,
                "end_time": 54.8704545,
                "pitch": 55,
                "velocity": 101,
                "duration": 0.1159091,
                "tempo": 120.0
            },
            {
                "start_time": 54.7545455,
                "end_time": 54.8727273,
                "pitch": 67,
                "velocity": 101,
                "duration": 0.1181818,
                "tempo": 120.0
            },
            {
                "start_time": 54.8704545,
                "end_time": 54.8727273,
                "pitch": 67,
                "velocity": 51,
                "duration": 0.0022727,
                "tempo": 120.0
            },
            {
                "start_time": 54.8727273,
                "end_time": 54.9181818,
                "pitch": 54,
                "velocity": 51,
                "duration": 0.0454545,
                "tempo": 120.0
            },
            {
                "start_time": 54.9181818,
                "end_time": 54.9659091,
                "pitch": 51,
                "velocity": 51,
                "duration": 0.0477273,
                "tempo": 120.0
            },
            {
                "start_time": 54.8704545,
                "end_time": 54.9863636,
                "pitch": 55,
                "velocity": 51,
                "duration": 0.1159091,
                "tempo": 120.0
            },
            {
                "start_time": 54.9840909,
                "end_time": 54.9863636,
                "pitch": 55,
                "velocity": 51,
                "duration": 0.0022727,
                "tempo": 120.0
            },
            {
                "start_time": 54.9863636,
                "end_time": 55.0318182,
                "pitch": 54,
                "velocity": 51,
                "duration": 0.0454545,
                "tempo": 120.0
            },
            {
                "start_time": 55.0318182,
                "end_time": 55.0818182,
                "pitch": 51,
                "velocity": 51,
                "duration": 0.05,
                "tempo": 120.0
            },
            {
                "start_time": 54.9863636,
                "end_time": 55.1,
                "pitch": 67,
                "velocity": 51,
                "duration": 0.1136364,
                "tempo": 120.0
            },
            {
                "start_time": 55.1,
                "end_time": 55.1454545,
                "pitch": 54,
                "velocity": 51,
                "duration": 0.0454545,
                "tempo": 120.0
            },
            {
                "start_time": 55.1454545,
                "end_time": 55.1931818,
                "pitch": 51,
                "velocity": 51,
                "duration": 0.0477273,
                "tempo": 120.0
            },
            {
                "start_time": 55.1931818,
                "end_time": 55.2113636,
                "pitch": 48,
                "velocity": 51,
                "duration": 0.0181818,
                "tempo": 120.0
            },
            {
                "start_time": 55.1,
                "end_time": 55.2295455,
                "pitch": 55,
                "velocity": 51,
                "duration": 0.1295455,
                "tempo": 120.0
            },
            {
                "start_time": 55.1,
                "end_time": 55.2295455,
                "pitch": 67,
                "velocity": 51,
                "duration": 0.1295455,
                "tempo": 120.0
            },
            {
                "start_time": 55.2295455,
                "end_time": 55.2772727,
                "pitch": 54,
                "velocity": 64,
                "duration": 0.0477273,
                "tempo": 120.0
            },
            {
                "start_time": 55.2772727,
                "end_time": 55.3272727,
                "pitch": 51,
                "velocity": 64,
                "duration": 0.05,
                "tempo": 120.0
            },
            {
                "start_time": 55.2295455,
                "end_time": 55.3477273,
                "pitch": 55,
                "velocity": 64,
                "duration": 0.1181818,
                "tempo": 120.0
            },
            {
                "start_time": 55.3454545,
                "end_time": 55.3477273,
                "pitch": 55,
                "velocity": 64,
                "duration": 0.0022727,
                "tempo": 120.0
            },
            {
                "start_time": 55.2295455,
                "end_time": 55.3477273,
                "pitch": 67,
                "velocity": 64,
                "duration": 0.1181818,
                "tempo": 120.0
            },
            {
                "start_time": 55.3477273,
                "end_time": 55.3931818,
                "pitch": 54,
                "velocity": 64,
                "duration": 0.0454545,
                "tempo": 120.0
            },
            {
                "start_time": 55.3931818,
                "end_time": 55.4454545,
                "pitch": 51,
                "velocity": 64,
                "duration": 0.0522727,
                "tempo": 120.0
            },
            {
                "start_time": 55.3477273,
                "end_time": 55.4636364,
                "pitch": 67,
                "velocity": 64,
                "duration": 0.1159091,
                "tempo": 120.0
            },
            {
                "start_time": 55.4636364,
                "end_time": 55.5113636,
                "pitch": 54,
                "velocity": 64,
                "duration": 0.0477273,
                "tempo": 120.0
            },
            {
                "start_time": 55.5113636,
                "end_time": 55.5613636,
                "pitch": 51,
                "velocity": 64,
                "duration": 0.05,
                "tempo": 120.0
            },
            {
                "start_time": 55.4636364,
                "end_time": 55.5977273,
                "pitch": 55,
                "velocity": 64,
                "duration": 0.1340909,
                "tempo": 120.0
            },
            {
                "start_time": 55.4636364,
                "end_time": 55.5977273,
                "pitch": 67,
                "velocity": 64,
                "duration": 0.1340909,
                "tempo": 120.0
            },
            {
                "start_time": 55.5977273,
                "end_time": 55.6454545,
                "pitch": 54,
                "velocity": 80,
                "duration": 0.0477273,
                "tempo": 120.0
            },
            {
                "start_time": 55.6454545,
                "end_time": 55.6954545,
                "pitch": 51,
                "velocity": 80,
                "duration": 0.05,
                "tempo": 120.0
            },
            {
                "start_time": 55.5977273,
                "end_time": 55.7136364,
                "pitch": 55,
                "velocity": 80,
                "duration": 0.1159091,
                "tempo": 120.0
            },
            {
                "start_time": 55.5977273,
                "end_time": 55.7136364,
                "pitch": 67,
                "velocity": 80,
                "duration": 0.1159091,
                "tempo": 120.0
            },
            {
                "start_time": 55.7136364,
                "end_time": 55.7613636,
                "pitch": 54,
                "velocity": 80,
                "duration": 0.0477273,
                "tempo": 120.0
            },
            {
                "start_time": 55.7613636,
                "end_time": 55.8113636,
                "pitch": 51,
                "velocity": 80,
                "duration": 0.05,
                "tempo": 120.0
            },
            {
                "start_time": 55.7136364,
                "end_time": 55.8318182,
                "pitch": 55,
                "velocity": 80,
                "duration": 0.1181818,
                "tempo": 120.0
            },
            {
                "start_time": 55.7136364,
                "end_time": 55.8318182,
                "pitch": 67,
                "velocity": 80,
                "duration": 0.1181818,
                "tempo": 120.0
            },
            {
                "start_time": 55.8318182,
                "end_time": 55.8772727,
                "pitch": 54,
                "velocity": 80,
                "duration": 0.0454545,
                "tempo": 120.0
            },
            {
                "start_time": 55.8772727,
                "end_time": 55.9295455,
                "pitch": 51,
                "velocity": 80,
                "duration": 0.0522727,
                "tempo": 120.0
            },
            {
                "start_time": 55.8318182,
                "end_time": 55.9477273,
                "pitch": 55,
                "velocity": 80,
                "duration": 0.1159091,
                "tempo": 120.0
            },
            {
                "start_time": 55.8318182,
                "end_time": 55.9477273,
                "pitch": 67,
                "velocity": 80,
                "duration": 0.1159091,
                "tempo": 120.0
            },
            {
                "start_time": 55.9477273,
                "end_time": 55.9931818,
                "pitch": 54,
                "velocity": 101,
                "duration": 0.0454545,
                "tempo": 120.0
            },
            {
                "start_time": 55.9931818,
                "end_time": 56.0409091,
                "pitch": 51,
                "velocity": 101,
                "duration": 0.0477273,
                "tempo": 120.0
            },
            {
                "start_time": 55.9477273,
                "end_time": 56.075,
                "pitch": 55,
                "velocity": 101,
                "duration": 0.1272727,
                "tempo": 120.0
            },
            {
                "start_time": 55.9477273,
                "end_time": 56.075,
                "pitch": 67,
                "velocity": 101,
                "duration": 0.1272727,
                "tempo": 120.0
            },
            {
                "start_time": 56.075,
                "end_time": 56.1204545,
                "pitch": 54,
                "velocity": 101,
                "duration": 0.0454545,
                "tempo": 120.0
            },
            {
                "start_time": 56.1204545,
                "end_time": 56.1681818,
                "pitch": 51,
                "velocity": 101,
                "duration": 0.0477273,
                "tempo": 120.0
            },
            {
                "start_time": 56.075,
                "end_time": 56.1863636,
                "pitch": 55,
                "velocity": 101,
                "duration": 0.1113636,
                "tempo": 120.0
            },
            {
                "start_time": 56.1840909,
                "end_time": 56.1863636,
                "pitch": 55,
                "velocity": 101,
                "duration": 0.0022727,
                "tempo": 120.0
            },
            {
                "start_time": 56.075,
                "end_time": 56.1863636,
                "pitch": 67,
                "velocity": 101,
                "duration": 0.1113636,
                "tempo": 120.0
            },
            {
                "start_time": 56.1863636,
                "end_time": 56.2295455,
                "pitch": 54,
                "velocity": 101,
                "duration": 0.0431818,
                "tempo": 120.0
            },
            {
                "start_time": 56.2295455,
                "end_time": 56.2795455,
                "pitch": 51,
                "velocity": 101,
                "duration": 0.05,
                "tempo": 120.0
            },
            {
                "start_time": 56.1863636,
                "end_time": 56.2977273,
                "pitch": 67,
                "velocity": 101,
                "duration": 0.1113636,
                "tempo": 120.0
            },
            {
                "start_time": 56.2977273,
                "end_time": 56.3431818,
                "pitch": 54,
                "velocity": 51,
                "duration": 0.0454545,
                "tempo": 120.0
            },
            {
                "start_time": 56.3431818,
                "end_time": 56.3931818,
                "pitch": 51,
                "velocity": 51,
                "duration": 0.05,
                "tempo": 120.0
            },
            {
                "start_time": 56.2977273,
                "end_time": 56.4295455,
                "pitch": 55,
                "velocity": 51,
                "duration": 0.1318182,
                "tempo": 120.0
            },
            {
                "start_time": 56.2977273,
                "end_time": 56.4295455,
                "pitch": 67,
                "velocity": 51,
                "duration": 0.1318182,
                "tempo": 120.0
            },
            {
                "start_time": 56.4295455,
                "end_time": 56.4772727,
                "pitch": 54,
                "velocity": 51,
                "duration": 0.0477273,
                "tempo": 120.0
            },
            {
                "start_time": 56.4772727,
                "end_time": 56.5272727,
                "pitch": 51,
                "velocity": 51,
                "duration": 0.05,
                "tempo": 120.0
            },
            {
                "start_time": 56.4295455,
                "end_time": 56.5454545,
                "pitch": 55,
                "velocity": 51,
                "duration": 0.1159091,
                "tempo": 120.0
            },
            {
                "start_time": 56.4295455,
                "end_time": 56.5454545,
                "pitch": 67,
                "velocity": 51,
                "duration": 0.1159091,
                "tempo": 120.0
            },
            {
                "start_time": 56.5454545,
                "end_time": 56.5931818,
                "pitch": 54,
                "velocity": 51,
                "duration": 0.0477273,
                "tempo": 120.0
            },
            {
                "start_time": 56.5931818,
                "end_time": 56.6431818,
                "pitch": 51,
                "velocity": 51,
                "duration": 0.05,
                "tempo": 120.0
            },
            {
                "start_time": 56.5454545,
                "end_time": 56.6636364,
                "pitch": 55,
                "velocity": 51,
                "duration": 0.1181818,
                "tempo": 120.0
            },
            {
                "start_time": 56.5454545,
                "end_time": 56.6636364,
                "pitch": 67,
                "velocity": 51,
                "duration": 0.1181818,
                "tempo": 120.0
            },
            {
                "start_time": 56.6636364,
                "end_time": 56.7113636,
                "pitch": 54,
                "velocity": 64,
                "duration": 0.0477273,
                "tempo": 120.0
            },
            {
                "start_time": 56.7113636,
                "end_time": 56.7613636,
                "pitch": 51,
                "velocity": 64,
                "duration": 0.05,
                "tempo": 120.0
            },
            {
                "start_time": 56.6636364,
                "end_time": 56.7795455,
                "pitch": 55,
                "velocity": 64,
                "duration": 0.1159091,
                "tempo": 120.0
            },
            {
                "start_time": 56.6636364,
                "end_time": 56.7795455,
                "pitch": 67,
                "velocity": 64,
                "duration": 0.1159091,
                "tempo": 120.0
            },
            {
                "start_time": 56.7795455,
                "end_time": 56.8272727,
                "pitch": 54,
                "velocity": 64,
                "duration": 0.0477273,
                "tempo": 120.0
            },
            {
                "start_time": 56.8272727,
                "end_time": 56.8772727,
                "pitch": 51,
                "velocity": 64,
                "duration": 0.05,
                "tempo": 120.0
            },
            {
                "start_time": 56.7795455,
                "end_time": 56.9136364,
                "pitch": 55,
                "velocity": 64,
                "duration": 0.1340909,
                "tempo": 120.0
            },
            {
                "start_time": 56.7795455,
                "end_time": 56.9136364,
                "pitch": 67,
                "velocity": 64,
                "duration": 0.1340909,
                "tempo": 120.0
            },
            {
                "start_time": 56.9136364,
                "end_time": 56.9613636,
                "pitch": 54,
                "velocity": 64,
                "duration": 0.0477273,
                "tempo": 120.0
            },
            {
                "start_time": 56.9613636,
                "end_time": 57.0113636,
                "pitch": 51,
                "velocity": 64,
                "duration": 0.05,
                "tempo": 120.0
            },
            {
                "start_time": 56.9136364,
                "end_time": 57.0318182,
                "pitch": 55,
                "velocity": 64,
                "duration": 0.1181818,
                "tempo": 120.0
            },
            {
                "start_time": 56.9136364,
                "end_time": 57.0318182,
                "pitch": 67,
                "velocity": 64,
                "duration": 0.1181818,
                "tempo": 120.0
            },
            {
                "start_time": 57.0318182,
                "end_time": 57.0772727,
                "pitch": 54,
                "velocity": 80,
                "duration": 0.0454545,
                "tempo": 120.0
            },
            {
                "start_time": 57.0772727,
                "end_time": 57.1272727,
                "pitch": 51,
                "velocity": 80,
                "duration": 0.05,
                "tempo": 120.0
            },
            {
                "start_time": 57.0318182,
                "end_time": 57.1454545,
                "pitch": 55,
                "velocity": 80,
                "duration": 0.1136364,
                "tempo": 120.0
            },
            {
                "start_time": 57.0318182,
                "end_time": 57.1454545,
                "pitch": 67,
                "velocity": 80,
                "duration": 0.1136364,
                "tempo": 120.0
            },
            {
                "start_time": 57.1454545,
                "end_time": 57.1909091,
                "pitch": 54,
                "velocity": 80,
                "duration": 0.0454545,
                "tempo": 120.0
            },
            {
                "start_time": 57.1909091,
                "end_time": 57.2409091,
                "pitch": 51,
                "velocity": 80,
                "duration": 0.05,
                "tempo": 120.0
            },
            {
                "start_time": 57.1454545,
                "end_time": 57.275,
                "pitch": 55,
                "velocity": 80,
                "duration": 0.1295455,
                "tempo": 120.0
            },
            {
                "start_time": 57.1454545,
                "end_time": 57.275,
                "pitch": 67,
                "velocity": 80,
                "duration": 0.1295455,
                "tempo": 120.0
            },
            {
                "start_time": 57.275,
                "end_time": 57.3204545,
                "pitch": 54,
                "velocity": 80,
                "duration": 0.0454545,
                "tempo": 120.0
            },
            {
                "start_time": 57.3204545,
                "end_time": 57.3704545,
                "pitch": 51,
                "velocity": 80,
                "duration": 0.05,
                "tempo": 120.0
            },
            {
                "start_time": 57.275,
                "end_time": 57.3909091,
                "pitch": 55,
                "velocity": 80,
                "duration": 0.1159091,
                "tempo": 120.0
            },
            {
                "start_time": 57.3886364,
                "end_time": 57.3909091,
                "pitch": 55,
                "velocity": 101,
                "duration": 0.0022727,
                "tempo": 120.0
            },
            {
                "start_time": 57.275,
                "end_time": 57.3909091,
                "pitch": 67,
                "velocity": 80,
                "duration": 0.1159091,
                "tempo": 120.0
            },
            {
                "start_time": 57.3909091,
                "end_time": 57.4363636,
                "pitch": 54,
                "velocity": 101,
                "duration": 0.0454545,
                "tempo": 120.0
            },
            {
                "start_time": 57.4363636,
                "end_time": 57.4863636,
                "pitch": 51,
                "velocity": 101,
                "duration": 0.05,
                "tempo": 120.0
            },
            {
                "start_time": 57.3909091,
                "end_time": 57.5068182,
                "pitch": 67,
                "velocity": 101,
                "duration": 0.1159091,
                "tempo": 120.0
            },
            {
                "start_time": 57.5068182,
                "end_time": 57.5522727,
                "pitch": 54,
                "velocity": 101,
                "duration": 0.0454545,
                "tempo": 120.0
            },
            {
                "start_time": 57.5522727,
                "end_time": 57.6045455,
                "pitch": 51,
                "velocity": 101,
                "duration": 0.0522727,
                "tempo": 120.0
            },
            {
                "start_time": 57.5068182,
                "end_time": 57.6227273,
                "pitch": 55,
                "velocity": 101,
                "duration": 0.1159091,
                "tempo": 120.0
            },
            {
                "start_time": 57.5068182,
                "end_time": 57.6227273,
                "pitch": 67,
                "velocity": 101,
                "duration": 0.1159091,
                "tempo": 120.0
            },
            {
                "start_time": 57.6227273,
                "end_time": 57.6704545,
                "pitch": 54,
                "velocity": 101,
                "duration": 0.0477273,
                "tempo": 120.0
            },
            {
                "start_time": 57.6704545,
                "end_time": 57.7204545,
                "pitch": 51,
                "velocity": 101,
                "duration": 0.05,
                "tempo": 120.0
            },
            {
                "start_time": 57.6227273,
                "end_time": 57.7568182,
                "pitch": 55,
                "velocity": 101,
                "duration": 0.1340909,
                "tempo": 120.0
            },
            {
                "start_time": 57.6227273,
                "end_time": 57.7568182,
                "pitch": 67,
                "velocity": 101,
                "duration": 0.1340909,
                "tempo": 120.0
            },
            {
                "start_time": 57.7568182,
                "end_time": 57.8022727,
                "pitch": 54,
                "velocity": 51,
                "duration": 0.0454545,
                "tempo": 120.0
            },
            {
                "start_time": 57.8022727,
                "end_time": 57.8522727,
                "pitch": 51,
                "velocity": 51,
                "duration": 0.05,
                "tempo": 120.0
            },
            {
                "start_time": 57.7568182,
                "end_time": 57.8704545,
                "pitch": 55,
                "velocity": 51,
                "duration": 0.1136364,
                "tempo": 120.0
            },
            {
                "start_time": 57.7568182,
                "end_time": 57.8704545,
                "pitch": 67,
                "velocity": 51,
                "duration": 0.1136364,
                "tempo": 120.0
            },
            {
                "start_time": 57.8704545,
                "end_time": 57.9159091,
                "pitch": 54,
                "velocity": 51,
                "duration": 0.0454545,
                "tempo": 120.0
            },
            {
                "start_time": 57.9159091,
                "end_time": 57.9659091,
                "pitch": 51,
                "velocity": 51,
                "duration": 0.05,
                "tempo": 120.0
            },
            {
                "start_time": 57.8704545,
                "end_time": 57.9840909,
                "pitch": 55,
                "velocity": 51,
                "duration": 0.1136364,
                "tempo": 120.0
            },
            {
                "start_time": 57.8704545,
                "end_time": 57.9840909,
                "pitch": 67,
                "velocity": 51,
                "duration": 0.1136364,
                "tempo": 120.0
            },
            {
                "start_time": 57.9840909,
                "end_time": 58.0318182,
                "pitch": 54,
                "velocity": 51,
                "duration": 0.0477273,
                "tempo": 120.0
            },
            {
                "start_time": 58.0318182,
                "end_time": 58.0795455,
                "pitch": 51,
                "velocity": 51,
                "duration": 0.0477273,
                "tempo": 120.0
            },
            {
                "start_time": 57.9840909,
                "end_time": 58.1,
                "pitch": 55,
                "velocity": 51,
                "duration": 0.1159091,
                "tempo": 120.0
            },
            {
                "start_time": 57.9840909,
                "end_time": 58.1,
                "pitch": 67,
                "velocity": 51,
                "duration": 0.1159091,
                "tempo": 120.0
            },
            {
                "start_time": 58.1,
                "end_time": 58.1454545,
                "pitch": 54,
                "velocity": 64,
                "duration": 0.0454545,
                "tempo": 120.0
            },
            {
                "start_time": 58.1454545,
                "end_time": 58.1931818,
                "pitch": 51,
                "velocity": 64,
                "duration": 0.0477273,
                "tempo": 120.0
            },
            {
                "start_time": 58.1931818,
                "end_time": 58.2113636,
                "pitch": 48,
                "velocity": 64,
                "duration": 0.0181818,
                "tempo": 120.0
            },
            {
                "start_time": 58.1,
                "end_time": 58.2295455,
                "pitch": 55,
                "velocity": 64,
                "duration": 0.1295455,
                "tempo": 120.0
            },
            {
                "start_time": 58.1,
                "end_time": 58.2295455,
                "pitch": 67,
                "velocity": 64,
                "duration": 0.1295455,
                "tempo": 120.0
            },
            {
                "start_time": 58.2295455,
                "end_time": 58.275,
                "pitch": 54,
                "velocity": 64,
                "duration": 0.0454545,
                "tempo": 120.0
            },
            {
                "start_time": 58.275,
                "end_time": 58.325,
                "pitch": 51,
                "velocity": 64,
                "duration": 0.05,
                "tempo": 120.0
            },
            {
                "start_time": 58.2295455,
                "end_time": 58.3431818,
                "pitch": 55,
                "velocity": 64,
                "duration": 0.1136364,
                "tempo": 120.0
            },
            {
                "start_time": 58.2295455,
                "end_time": 58.3431818,
                "pitch": 67,
                "velocity": 64,
                "duration": 0.1136364,
                "tempo": 120.0
            },
            {
                "start_time": 58.3431818,
                "end_time": 58.3886364,
                "pitch": 54,
                "velocity": 64,
                "duration": 0.0454545,
                "tempo": 120.0
            },
            {
                "start_time": 58.3886364,
                "end_time": 58.4386364,
                "pitch": 51,
                "velocity": 64,
                "duration": 0.05,
                "tempo": 120.0
            },
            {
                "start_time": 58.3431818,
                "end_time": 58.4590909,
                "pitch": 55,
                "velocity": 64,
                "duration": 0.1159091,
                "tempo": 120.0
            },
            {
                "start_time": 58.4568182,
                "end_time": 58.4590909,
                "pitch": 55,
                "velocity": 80,
                "duration": 0.0022727,
                "tempo": 120.0
            },
            {
                "start_time": 58.3431818,
                "end_time": 58.4590909,
                "pitch": 67,
                "velocity": 64,
                "duration": 0.1159091,
                "tempo": 120.0
            },
            {
                "start_time": 58.4590909,
                "end_time": 58.5045455,
                "pitch": 54,
                "velocity": 80,
                "duration": 0.0454545,
                "tempo": 120.0
            },
            {
                "start_time": 58.5045455,
                "end_time": 58.5522727,
                "pitch": 51,
                "velocity": 80,
                "duration": 0.0477273,
                "tempo": 120.0
            },
            {
                "start_time": 58.4590909,
                "end_time": 58.5886364,
                "pitch": 67,
                "velocity": 80,
                "duration": 0.1295455,
                "tempo": 120.0
            },
            {
                "start_time": 58.5886364,
                "end_time": 58.6340909,
                "pitch": 54,
                "velocity": 80,
                "duration": 0.0454545,
                "tempo": 120.0
            },
            {
                "start_time": 58.6340909,
                "end_time": 58.6840909,
                "pitch": 51,
                "velocity": 80,
                "duration": 0.05,
                "tempo": 120.0
            },
            {
                "start_time": 58.5886364,
                "end_time": 58.7022727,
                "pitch": 55,
                "velocity": 80,
                "duration": 0.1136364,
                "tempo": 120.0
            },
            {
                "start_time": 58.5886364,
                "end_time": 58.7022727,
                "pitch": 67,
                "velocity": 80,
                "duration": 0.1136364,
                "tempo": 120.0
            },
            {
                "start_time": 58.7022727,
                "end_time": 58.7477273,
                "pitch": 54,
                "velocity": 80,
                "duration": 0.0454545,
                "tempo": 120.0
            },
            {
                "start_time": 58.7477273,
                "end_time": 58.7977273,
                "pitch": 51,
                "velocity": 80,
                "duration": 0.05,
                "tempo": 120.0
            },
            {
                "start_time": 58.7022727,
                "end_time": 58.8159091,
                "pitch": 55,
                "velocity": 80,
                "duration": 0.1136364,
                "tempo": 120.0
            },
            {
                "start_time": 58.7022727,
                "end_time": 58.8159091,
                "pitch": 67,
                "velocity": 80,
                "duration": 0.1136364,
                "tempo": 120.0
            },
            {
                "start_time": 58.8159091,
                "end_time": 58.8636364,
                "pitch": 54,
                "velocity": 101,
                "duration": 0.0477273,
                "tempo": 120.0
            },
            {
                "start_time": 58.8636364,
                "end_time": 58.9136364,
                "pitch": 51,
                "velocity": 101,
                "duration": 0.05,
                "tempo": 120.0
            },
            {
                "start_time": 58.8159091,
                "end_time": 58.9340909,
                "pitch": 55,
                "velocity": 101,
                "duration": 0.1181818,
                "tempo": 120.0
            },
            {
                "start_time": 58.9318182,
                "end_time": 58.9340909,
                "pitch": 55,
                "velocity": 101,
                "duration": 0.0022727,
                "tempo": 120.0
            },
            {
                "start_time": 58.8159091,
                "end_time": 58.9340909,
                "pitch": 67,
                "velocity": 101,
                "duration": 0.1181818,
                "tempo": 120.0
            },
            {
                "start_time": 58.9340909,
                "end_time": 58.9795455,
                "pitch": 54,
                "velocity": 101,
                "duration": 0.0454545,
                "tempo": 120.0
            },
            {
                "start_time": 58.9795455,
                "end_time": 59.0318182,
                "pitch": 51,
                "velocity": 101,
                "duration": 0.0522727,
                "tempo": 120.0
            },
            {
                "start_time": 58.9340909,
                "end_time": 59.0659091,
                "pitch": 67,
                "velocity": 101,
                "duration": 0.1318182,
                "tempo": 120.0
            },
            {
                "start_time": 59.0659091,
                "end_time": 59.1136364,
                "pitch": 54,
                "velocity": 101,
                "duration": 0.0477273,
                "tempo": 120.0
            },
            {
                "start_time": 59.1136364,
                "end_time": 59.1636364,
                "pitch": 51,
                "velocity": 101,
                "duration": 0.05,
                "tempo": 120.0
            },
            {
                "start_time": 59.0659091,
                "end_time": 59.1863636,
                "pitch": 55,
                "velocity": 101,
                "duration": 0.1204545,
                "tempo": 120.0
            },
            {
                "start_time": 59.0659091,
                "end_time": 59.1863636,
                "pitch": 67,
                "velocity": 101,
                "duration": 0.1204545,
                "tempo": 120.0
            },
            {
                "start_time": 59.1863636,
                "end_time": 59.2295455,
                "pitch": 54,
                "velocity": 51,
                "duration": 0.0431818,
                "tempo": 120.0
            },
            {
                "start_time": 59.2295455,
                "end_time": 59.2818182,
                "pitch": 51,
                "velocity": 51,
                "duration": 0.0522727,
                "tempo": 120.0
            },
            {
                "start_time": 59.1863636,
                "end_time": 59.3,
                "pitch": 55,
                "velocity": 51,
                "duration": 0.1136364,
                "tempo": 120.0
            },
            {
                "start_time": 59.1863636,
                "end_time": 59.3,
                "pitch": 67,
                "velocity": 51,
                "duration": 0.1136364,
                "tempo": 120.0
            },
            {
                "start_time": 59.3,
                "end_time": 59.3477273,
                "pitch": 54,
                "velocity": 51,
                "duration": 0.0477273,
                "tempo": 120.0
            },
            {
                "start_time": 59.3477273,
                "end_time": 59.3977273,
                "pitch": 51,
                "velocity": 51,
                "duration": 0.05,
                "tempo": 120.0
            },
            {
                "start_time": 59.3,
                "end_time": 59.4340909,
                "pitch": 55,
                "velocity": 51,
                "duration": 0.1340909,
                "tempo": 120.0
            },
            {
                "start_time": 59.3,
                "end_time": 59.4340909,
                "pitch": 67,
                "velocity": 51,
                "duration": 0.1340909,
                "tempo": 120.0
            },
            {
                "start_time": 59.4340909,
                "end_time": 59.4818182,
                "pitch": 54,
                "velocity": 51,
                "duration": 0.0477273,
                "tempo": 120.0
            },
            {
                "start_time": 59.4818182,
                "end_time": 59.5318182,
                "pitch": 51,
                "velocity": 51,
                "duration": 0.05,
                "tempo": 120.0
            },
            {
                "start_time": 59.4340909,
                "end_time": 59.5522727,
                "pitch": 55,
                "velocity": 51,
                "duration": 0.1181818,
                "tempo": 120.0
            },
            {
                "start_time": 59.55,
                "end_time": 59.5522727,
                "pitch": 55,
                "velocity": 64,
                "duration": 0.0022727,
                "tempo": 120.0
            },
            {
                "start_time": 59.4340909,
                "end_time": 59.5522727,
                "pitch": 67,
                "velocity": 51,
                "duration": 0.1181818,
                "tempo": 120.0
            },
            {
                "start_time": 59.5522727,
                "end_time": 59.5977273,
                "pitch": 54,
                "velocity": 64,
                "duration": 0.0454545,
                "tempo": 120.0
            },
            {
                "start_time": 59.5977273,
                "end_time": 59.6477273,
                "pitch": 51,
                "velocity": 64,
                "duration": 0.05,
                "tempo": 120.0
            },
            {
                "start_time": 59.5522727,
                "end_time": 59.6681818,
                "pitch": 67,
                "velocity": 64,
                "duration": 0.1159091,
                "tempo": 120.0
            },
            {
                "start_time": 59.6681818,
                "end_time": 59.7159091,
                "pitch": 54,
                "velocity": 64,
                "duration": 0.0477273,
                "tempo": 120.0
            },
            {
                "start_time": 59.7159091,
                "end_time": 59.7659091,
                "pitch": 51,
                "velocity": 64,
                "duration": 0.05,
                "tempo": 120.0
            },
            {
                "start_time": 59.6681818,
                "end_time": 59.7840909,
                "pitch": 55,
                "velocity": 64,
                "duration": 0.1159091,
                "tempo": 120.0
            },
            {
                "start_time": 59.6681818,
                "end_time": 59.7840909,
                "pitch": 67,
                "velocity": 64,
                "duration": 0.1159091,
                "tempo": 120.0
            },
            {
                "start_time": 59.7840909,
                "end_time": 59.8318182,
                "pitch": 54,
                "velocity": 64,
                "duration": 0.0477273,
                "tempo": 120.0
            },
            {
                "start_time": 59.8318182,
                "end_time": 59.8818182,
                "pitch": 51,
                "velocity": 64,
                "duration": 0.05,
                "tempo": 120.0
            },
            {
                "start_time": 59.7840909,
                "end_time": 59.9181818,
                "pitch": 55,
                "velocity": 64,
                "duration": 0.1340909,
                "tempo": 120.0
            },
            {
                "start_time": 59.7840909,
                "end_time": 59.9181818,
                "pitch": 67,
                "velocity": 64,
                "duration": 0.1340909,
                "tempo": 120.0
            },
            {
                "start_time": 59.9181818,
                "end_time": 59.9636364,
                "pitch": 54,
                "velocity": 80,
                "duration": 0.0454545,
                "tempo": 120.0
            },
            {
                "start_time": 59.9636364,
                "end_time": 60.0136364,
                "pitch": 51,
                "velocity": 80,
                "duration": 0.05,
                "tempo": 120.0
            },
            {
                "start_time": 59.9181818,
                "end_time": 60.0318182,
                "pitch": 55,
                "velocity": 80,
                "duration": 0.1136364,
                "tempo": 120.0
            },
            {
                "start_time": 59.9181818,
                "end_time": 60.0318182,
                "pitch": 67,
                "velocity": 80,
                "duration": 0.1136364,
                "tempo": 120.0
            },
            {
                "start_time": 60.0318182,
                "end_time": 60.0795455,
                "pitch": 54,
                "velocity": 80,
                "duration": 0.0477273,
                "tempo": 120.0
            },
            {
                "start_time": 60.0795455,
                "end_time": 60.1272727,
                "pitch": 51,
                "velocity": 80,
                "duration": 0.0477273,
                "tempo": 120.0
            },
            {
                "start_time": 60.0318182,
                "end_time": 60.1477273,
                "pitch": 55,
                "velocity": 80,
                "duration": 0.1159091,
                "tempo": 120.0
            },
            {
                "start_time": 60.1454545,
                "end_time": 60.1477273,
                "pitch": 55,
                "velocity": 80,
                "duration": 0.0022727,
                "tempo": 120.0
            },
            {
                "start_time": 60.0318182,
                "end_time": 60.1477273,
                "pitch": 67,
                "velocity": 80,
                "duration": 0.1159091,
                "tempo": 120.0
            },
            {
                "start_time": 60.1477273,
                "end_time": 60.1931818,
                "pitch": 54,
                "velocity": 80,
                "duration": 0.0454545,
                "tempo": 120.0
            },
            {
                "start_time": 60.1931818,
                "end_time": 60.2409091,
                "pitch": 51,
                "velocity": 80,
                "duration": 0.0477273,
                "tempo": 120.0
            },
            {
                "start_time": 60.1477273,
                "end_time": 60.2613636,
                "pitch": 67,
                "velocity": 80,
                "duration": 0.1136364,
                "tempo": 120.0
            },
            {
                "start_time": 60.2613636,
                "end_time": 60.3045455,
                "pitch": 54,
                "velocity": 101,
                "duration": 0.0431818,
                "tempo": 120.0
            },
            {
                "start_time": 60.3045455,
                "end_time": 60.3522727,
                "pitch": 51,
                "velocity": 101,
                "duration": 0.0477273,
                "tempo": 120.0
            },
            {
                "start_time": 60.3522727,
                "end_time": 60.3681818,
                "pitch": 48,
                "velocity": 101,
                "duration": 0.0159091,
                "tempo": 120.0
            },
            {
                "start_time": 60.2613636,
                "end_time": 60.3863636,
                "pitch": 55,
                "velocity": 101,
                "duration": 0.125,
                "tempo": 120.0
            },
            {
                "start_time": 60.2613636,
                "end_time": 60.3886364,
                "pitch": 67,
                "velocity": 101,
                "duration": 0.1272727,
                "tempo": 120.0
            },
            {
                "start_time": 60.3863636,
                "end_time": 60.3886364,
                "pitch": 67,
                "velocity": 101,
                "duration": 0.0022727,
                "tempo": 120.0
            },
            {
                "start_time": 60.3886364,
                "end_time": 60.4318182,
                "pitch": 54,
                "velocity": 101,
                "duration": 0.0431818,
                "tempo": 120.0
            },
            {
                "start_time": 60.4318182,
                "end_time": 60.4795455,
                "pitch": 51,
                "velocity": 101,
                "duration": 0.0477273,
                "tempo": 120.0
            },
            {
                "start_time": 60.3863636,
                "end_time": 60.4977273,
                "pitch": 55,
                "velocity": 101,
                "duration": 0.1113636,
                "tempo": 120.0
            },
            {
                "start_time": 60.4977273,
                "end_time": 60.5431818,
                "pitch": 54,
                "velocity": 101,
                "duration": 0.0454545,
                "tempo": 120.0
            },
            {
                "start_time": 60.5431818,
                "end_time": 60.5909091,
                "pitch": 51,
                "velocity": 101,
                "duration": 0.0477273,
                "tempo": 120.0
            },
            {
                "start_time": 60.4977273,
                "end_time": 60.6090909,
                "pitch": 55,
                "velocity": 101,
                "duration": 0.1113636,
                "tempo": 120.0
            },
            {
                "start_time": 60.4977273,
                "end_time": 60.6090909,
                "pitch": 67,
                "velocity": 101,
                "duration": 0.1113636,
                "tempo": 120.0
            },
            {
                "start_time": 60.6090909,
                "end_time": 60.6568182,
                "pitch": 54,
                "velocity": 51,
                "duration": 0.0477273,
                "tempo": 120.0
            },
            {
                "start_time": 60.6568182,
                "end_time": 60.7068182,
                "pitch": 51,
                "velocity": 51,
                "duration": 0.05,
                "tempo": 120.0
            },
            {
                "start_time": 60.6090909,
                "end_time": 60.7431818,
                "pitch": 55,
                "velocity": 51,
                "duration": 0.1340909,
                "tempo": 120.0
            },
            {
                "start_time": 60.7409091,
                "end_time": 60.7431818,
                "pitch": 55,
                "velocity": 51,
                "duration": 0.0022727,
                "tempo": 120.0
            },
            {
                "start_time": 60.6090909,
                "end_time": 60.7431818,
                "pitch": 67,
                "velocity": 51,
                "duration": 0.1340909,
                "tempo": 120.0
            },
            {
                "start_time": 60.7431818,
                "end_time": 60.7886364,
                "pitch": 54,
                "velocity": 51,
                "duration": 0.0454545,
                "tempo": 120.0
            },
            {
                "start_time": 60.7886364,
                "end_time": 60.8409091,
                "pitch": 51,
                "velocity": 51,
                "duration": 0.0522727,
                "tempo": 120.0
            },
            {
                "start_time": 60.7431818,
                "end_time": 60.8590909,
                "pitch": 67,
                "velocity": 51,
                "duration": 0.1159091,
                "tempo": 120.0
            },
            {
                "start_time": 60.8590909,
                "end_time": 60.9068182,
                "pitch": 54,
                "velocity": 51,
                "duration": 0.0477273,
                "tempo": 120.0
            },
            {
                "start_time": 60.9068182,
                "end_time": 60.9568182,
                "pitch": 51,
                "velocity": 51,
                "duration": 0.05,
                "tempo": 120.0
            },
            {
                "start_time": 60.8590909,
                "end_time": 60.9772727,
                "pitch": 55,
                "velocity": 51,
                "duration": 0.1181818,
                "tempo": 120.0
            },
            {
                "start_time": 60.8590909,
                "end_time": 60.9772727,
                "pitch": 67,
                "velocity": 51,
                "duration": 0.1181818,
                "tempo": 120.0
            },
            {
                "start_time": 60.9772727,
                "end_time": 61.0227273,
                "pitch": 54,
                "velocity": 64,
                "duration": 0.0454545,
                "tempo": 120.0
            },
            {
                "start_time": 61.0227273,
                "end_time": 61.0727273,
                "pitch": 51,
                "velocity": 64,
                "duration": 0.05,
                "tempo": 120.0
            },
            {
                "start_time": 60.9772727,
                "end_time": 61.0931818,
                "pitch": 55,
                "velocity": 64,
                "duration": 0.1159091,
                "tempo": 120.0
            },
            {
                "start_time": 60.9772727,
                "end_time": 61.0931818,
                "pitch": 67,
                "velocity": 64,
                "duration": 0.1159091,
                "tempo": 120.0
            },
            {
                "start_time": 61.0931818,
                "end_time": 61.1409091,
                "pitch": 54,
                "velocity": 64,
                "duration": 0.0477273,
                "tempo": 120.0
            },
            {
                "start_time": 61.1409091,
                "end_time": 61.1909091,
                "pitch": 51,
                "velocity": 64,
                "duration": 0.05,
                "tempo": 120.0
            },
            {
                "start_time": 61.1909091,
                "end_time": 61.2068182,
                "pitch": 48,
                "velocity": 64,
                "duration": 0.0159091,
                "tempo": 120.0
            },
            {
                "start_time": 61.0931818,
                "end_time": 61.2272727,
                "pitch": 55,
                "velocity": 64,
                "duration": 0.1340909,
                "tempo": 120.0
            },
            {
                "start_time": 61.0931818,
                "end_time": 61.2272727,
                "pitch": 67,
                "velocity": 64,
                "duration": 0.1340909,
                "tempo": 120.0
            },
            {
                "start_time": 61.2272727,
                "end_time": 61.2727273,
                "pitch": 54,
                "velocity": 64,
                "duration": 0.0454545,
                "tempo": 120.0
            },
            {
                "start_time": 61.2727273,
                "end_time": 61.325,
                "pitch": 51,
                "velocity": 64,
                "duration": 0.0522727,
                "tempo": 120.0
            },
            {
                "start_time": 61.2272727,
                "end_time": 61.3431818,
                "pitch": 55,
                "velocity": 64,
                "duration": 0.1159091,
                "tempo": 120.0
            },
            {
                "start_time": 61.2272727,
                "end_time": 61.3431818,
                "pitch": 67,
                "velocity": 64,
                "duration": 0.1159091,
                "tempo": 120.0
            },
            {
                "start_time": 61.3431818,
                "end_time": 61.3886364,
                "pitch": 54,
                "velocity": 80,
                "duration": 0.0454545,
                "tempo": 120.0
            },
            {
                "start_time": 61.3886364,
                "end_time": 61.4386364,
                "pitch": 51,
                "velocity": 80,
                "duration": 0.05,
                "tempo": 120.0
            },
            {
                "start_time": 61.3431818,
                "end_time": 61.4568182,
                "pitch": 55,
                "velocity": 80,
                "duration": 0.1136364,
                "tempo": 120.0
            },
            {
                "start_time": 61.3431818,
                "end_time": 61.4568182,
                "pitch": 67,
                "velocity": 80,
                "duration": 0.1136364,
                "tempo": 120.0
            },
            {
                "start_time": 61.4568182,
                "end_time": 61.5045455,
                "pitch": 54,
                "velocity": 80,
                "duration": 0.0477273,
                "tempo": 120.0
            },
            {
                "start_time": 61.5045455,
                "end_time": 61.5522727,
                "pitch": 51,
                "velocity": 80,
                "duration": 0.0477273,
                "tempo": 120.0
            },
            {
                "start_time": 61.4568182,
                "end_time": 61.5886364,
                "pitch": 55,
                "velocity": 80,
                "duration": 0.1318182,
                "tempo": 120.0
            },
            {
                "start_time": 61.4568182,
                "end_time": 61.5886364,
                "pitch": 67,
                "velocity": 80,
                "duration": 0.1318182,
                "tempo": 120.0
            },
            {
                "start_time": 61.5886364,
                "end_time": 61.6340909,
                "pitch": 54,
                "velocity": 80,
                "duration": 0.0454545,
                "tempo": 120.0
            },
            {
                "start_time": 61.6340909,
                "end_time": 61.6840909,
                "pitch": 51,
                "velocity": 80,
                "duration": 0.05,
                "tempo": 120.0
            },
            {
                "start_time": 61.5886364,
                "end_time": 61.7022727,
                "pitch": 55,
                "velocity": 80,
                "duration": 0.1136364,
                "tempo": 120.0
            },
            {
                "start_time": 61.5886364,
                "end_time": 61.7022727,
                "pitch": 67,
                "velocity": 80,
                "duration": 0.1136364,
                "tempo": 120.0
            },
            {
                "start_time": 61.7022727,
                "end_time": 61.75,
                "pitch": 54,
                "velocity": 101,
                "duration": 0.0477273,
                "tempo": 120.0
            },
            {
                "start_time": 61.75,
                "end_time": 61.8,
                "pitch": 51,
                "velocity": 101,
                "duration": 0.05,
                "tempo": 120.0
            },
            {
                "start_time": 61.7022727,
                "end_time": 61.8181818,
                "pitch": 55,
                "velocity": 101,
                "duration": 0.1159091,
                "tempo": 120.0
            },
            {
                "start_time": 61.7022727,
                "end_time": 61.8181818,
                "pitch": 67,
                "velocity": 101,
                "duration": 0.1159091,
                "tempo": 120.0
            },
            {
                "start_time": 61.8181818,
                "end_time": 61.8659091,
                "pitch": 54,
                "velocity": 101,
                "duration": 0.0477273,
                "tempo": 120.0
            },
            {
                "start_time": 61.8659091,
                "end_time": 61.9159091,
                "pitch": 51,
                "velocity": 101,
                "duration": 0.05,
                "tempo": 120.0
            },
            {
                "start_time": 61.8181818,
                "end_time": 61.9363636,
                "pitch": 55,
                "velocity": 101,
                "duration": 0.1181818,
                "tempo": 120.0
            },
            {
                "start_time": 61.8181818,
                "end_time": 61.9363636,
                "pitch": 67,
                "velocity": 101,
                "duration": 0.1181818,
                "tempo": 120.0
            },
            {
                "start_time": 61.9363636,
                "end_time": 61.9840909,
                "pitch": 54,
                "velocity": 101,
                "duration": 0.0477273,
                "tempo": 120.0
            },
            {
                "start_time": 61.9840909,
                "end_time": 62.0340909,
                "pitch": 51,
                "velocity": 101,
                "duration": 0.05,
                "tempo": 120.0
            },
            {
                "start_time": 61.9363636,
                "end_time": 62.0704545,
                "pitch": 55,
                "velocity": 101,
                "duration": 0.1340909,
                "tempo": 120.0
            },
            {
                "start_time": 61.9363636,
                "end_time": 62.0704545,
                "pitch": 67,
                "velocity": 101,
                "duration": 0.1340909,
                "tempo": 120.0
            },
            {
                "start_time": 62.0704545,
                "end_time": 62.1159091,
                "pitch": 54,
                "velocity": 51,
                "duration": 0.0454545,
                "tempo": 120.0
            },
            {
                "start_time": 62.1159091,
                "end_time": 62.1681818,
                "pitch": 51,
                "velocity": 51,
                "duration": 0.0522727,
                "tempo": 120.0
            },
            {
                "start_time": 62.0704545,
                "end_time": 62.1863636,
                "pitch": 55,
                "velocity": 51,
                "duration": 0.1159091,
                "tempo": 120.0
            },
            {
                "start_time": 62.0704545,
                "end_time": 62.1863636,
                "pitch": 67,
                "velocity": 51,
                "duration": 0.1159091,
                "tempo": 120.0
            },
            {
                "start_time": 62.1863636,
                "end_time": 62.2340909,
                "pitch": 54,
                "velocity": 51,
                "duration": 0.0477273,
                "tempo": 120.0
            },
            {
                "start_time": 62.2340909,
                "end_time": 62.2840909,
                "pitch": 51,
                "velocity": 51,
                "duration": 0.05,
                "tempo": 120.0
            },
            {
                "start_time": 62.1863636,
                "end_time": 62.3022727,
                "pitch": 55,
                "velocity": 51,
                "duration": 0.1159091,
                "tempo": 120.0
            },
            {
                "start_time": 62.1863636,
                "end_time": 62.3045455,
                "pitch": 67,
                "velocity": 51,
                "duration": 0.1181818,
                "tempo": 120.0
            },
            {
                "start_time": 62.3022727,
                "end_time": 62.3045455,
                "pitch": 67,
                "velocity": 51,
                "duration": 0.0022727,
                "tempo": 120.0
            },
            {
                "start_time": 62.3045455,
                "end_time": 62.35,
                "pitch": 54,
                "velocity": 51,
                "duration": 0.0454545,
                "tempo": 120.0
            },
            {
                "start_time": 62.35,
                "end_time": 62.4,
                "pitch": 51,
                "velocity": 51,
                "duration": 0.05,
                "tempo": 120.0
            },
            {
                "start_time": 62.3022727,
                "end_time": 62.4363636,
                "pitch": 55,
                "velocity": 51,
                "duration": 0.1340909,
                "tempo": 120.0
            },
            {
                "start_time": 62.4363636,
                "end_time": 62.4818182,
                "pitch": 54,
                "velocity": 64,
                "duration": 0.0454545,
                "tempo": 120.0
            },
            {
                "start_time": 62.4818182,
                "end_time": 62.5318182,
                "pitch": 51,
                "velocity": 64,
                "duration": 0.05,
                "tempo": 120.0
            },
            {
                "start_time": 62.4363636,
                "end_time": 62.55,
                "pitch": 55,
                "velocity": 64,
                "duration": 0.1136364,
                "tempo": 120.0
            },
            {
                "start_time": 62.4363636,
                "end_time": 62.5522727,
                "pitch": 67,
                "velocity": 64,
                "duration": 0.1159091,
                "tempo": 120.0
            },
            {
                "start_time": 62.55,
                "end_time": 62.5522727,
                "pitch": 67,
                "velocity": 64,
                "duration": 0.0022727,
                "tempo": 120.0
            },
            {
                "start_time": 62.5522727,
                "end_time": 62.5977273,
                "pitch": 54,
                "velocity": 64,
                "duration": 0.0454545,
                "tempo": 120.0
            },
            {
                "start_time": 62.5977273,
                "end_time": 62.6454545,
                "pitch": 51,
                "velocity": 64,
                "duration": 0.0477273,
                "tempo": 120.0
            },
            {
                "start_time": 62.55,
                "end_time": 62.6659091,
                "pitch": 55,
                "velocity": 64,
                "duration": 0.1159091,
                "tempo": 120.0
            },
            {
                "start_time": 62.6636364,
                "end_time": 62.6659091,
                "pitch": 55,
                "velocity": 64,
                "duration": 0.0022727,
                "tempo": 120.0
            },
            {
                "start_time": 62.6659091,
                "end_time": 62.7113636,
                "pitch": 54,
                "velocity": 64,
                "duration": 0.0454545,
                "tempo": 120.0
            },
            {
                "start_time": 62.7113636,
                "end_time": 62.7613636,
                "pitch": 51,
                "velocity": 64,
                "duration": 0.05,
                "tempo": 120.0
            },
            {
                "start_time": 62.6659091,
                "end_time": 62.7795455,
                "pitch": 67,
                "velocity": 64,
                "duration": 0.1136364,
                "tempo": 120.0
            },
            {
                "start_time": 62.7795455,
                "end_time": 62.8227273,
                "pitch": 54,
                "velocity": 80,
                "duration": 0.0431818,
                "tempo": 120.0
            },
            {
                "start_time": 62.8227273,
                "end_time": 62.8727273,
                "pitch": 51,
                "velocity": 80,
                "duration": 0.05,
                "tempo": 120.0
            },
            {
                "start_time": 62.7795455,
                "end_time": 62.9068182,
                "pitch": 55,
                "velocity": 80,
                "duration": 0.1272727,
                "tempo": 120.0
            },
            {
                "start_time": 62.9045455,
                "end_time": 62.9068182,
                "pitch": 55,
                "velocity": 80,
                "duration": 0.0022727,
                "tempo": 120.0
            },
            {
                "start_time": 62.7795455,
                "end_time": 62.9068182,
                "pitch": 67,
                "velocity": 80,
                "duration": 0.1272727,
                "tempo": 120.0
            },
            {
                "start_time": 62.9068182,
                "end_time": 62.95,
                "pitch": 54,
                "velocity": 80,
                "duration": 0.0431818,
                "tempo": 120.0
            },
            {
                "start_time": 62.95,
                "end_time": 62.9977273,
                "pitch": 51,
                "velocity": 80,
                "duration": 0.0477273,
                "tempo": 120.0
            },
            {
                "start_time": 62.9068182,
                "end_time": 63.0159091,
                "pitch": 67,
                "velocity": 80,
                "duration": 0.1090909,
                "tempo": 120.0
            },
            {
                "start_time": 63.0159091,
                "end_time": 63.0613636,
                "pitch": 54,
                "velocity": 80,
                "duration": 0.0454545,
                "tempo": 120.0
            },
            {
                "start_time": 63.0613636,
                "end_time": 63.1090909,
                "pitch": 51,
                "velocity": 80,
                "duration": 0.0477273,
                "tempo": 120.0
            },
            {
                "start_time": 63.0159091,
                "end_time": 63.1272727,
                "pitch": 55,
                "velocity": 80,
                "duration": 0.1113636,
                "tempo": 120.0
            },
            {
                "start_time": 63.0159091,
                "end_time": 63.1272727,
                "pitch": 67,
                "velocity": 80,
                "duration": 0.1113636,
                "tempo": 120.0
            },
            {
                "start_time": 63.1272727,
                "end_time": 63.175,
                "pitch": 54,
                "velocity": 101,
                "duration": 0.0477273,
                "tempo": 120.0
            },
            {
                "start_time": 63.175,
                "end_time": 63.225,
                "pitch": 51,
                "velocity": 101,
                "duration": 0.05,
                "tempo": 120.0
            },
            {
                "start_time": 63.1272727,
                "end_time": 63.2431818,
                "pitch": 55,
                "velocity": 101,
                "duration": 0.1159091,
                "tempo": 120.0
            },
            {
                "start_time": 63.1272727,
                "end_time": 63.2431818,
                "pitch": 67,
                "velocity": 101,
                "duration": 0.1159091,
                "tempo": 120.0
            },
            {
                "start_time": 63.2431818,
                "end_time": 63.2909091,
                "pitch": 54,
                "velocity": 101,
                "duration": 0.0477273,
                "tempo": 120.0
            },
            {
                "start_time": 63.2909091,
                "end_time": 63.3409091,
                "pitch": 51,
                "velocity": 101,
                "duration": 0.05,
                "tempo": 120.0
            },
            {
                "start_time": 63.3409091,
                "end_time": 63.3590909,
                "pitch": 48,
                "velocity": 101,
                "duration": 0.0181818,
                "tempo": 120.0
            },
            {
                "start_time": 63.2431818,
                "end_time": 63.3772727,
                "pitch": 55,
                "velocity": 101,
                "duration": 0.1340909,
                "tempo": 120.0
            },
            {
                "start_time": 63.2431818,
                "end_time": 63.3772727,
                "pitch": 67,
                "velocity": 101,
                "duration": 0.1340909,
                "tempo": 120.0
            },
            {
                "start_time": 63.3772727,
                "end_time": 63.425,
                "pitch": 54,
                "velocity": 101,
                "duration": 0.0477273,
                "tempo": 120.0
            },
            {
                "start_time": 63.425,
                "end_time": 63.475,
                "pitch": 51,
                "velocity": 101,
                "duration": 0.05,
                "tempo": 120.0
            },
            {
                "start_time": 63.3772727,
                "end_time": 63.4954545,
                "pitch": 55,
                "velocity": 101,
                "duration": 0.1181818,
                "tempo": 120.0
            },
            {
                "start_time": 63.3772727,
                "end_time": 63.4954545,
                "pitch": 67,
                "velocity": 101,
                "duration": 0.1181818,
                "tempo": 120.0
            },
            {
                "start_time": 63.4954545,
                "end_time": 63.5409091,
                "pitch": 54,
                "velocity": 51,
                "duration": 0.0454545,
                "tempo": 120.0
            },
            {
                "start_time": 63.5409091,
                "end_time": 63.5931818,
                "pitch": 51,
                "velocity": 51,
                "duration": 0.0522727,
                "tempo": 120.0
            },
            {
                "start_time": 63.4954545,
                "end_time": 63.6113636,
                "pitch": 55,
                "velocity": 51,
                "duration": 0.1159091,
                "tempo": 120.0
            },
            {
                "start_time": 63.4954545,
                "end_time": 63.6113636,
                "pitch": 67,
                "velocity": 51,
                "duration": 0.1159091,
                "tempo": 120.0
            },
            {
                "start_time": 63.6113636,
                "end_time": 63.6590909,
                "pitch": 54,
                "velocity": 51,
                "duration": 0.0477273,
                "tempo": 120.0
            },
            {
                "start_time": 63.6590909,
                "end_time": 63.7090909,
                "pitch": 51,
                "velocity": 51,
                "duration": 0.05,
                "tempo": 120.0
            },
            {
                "start_time": 63.6113636,
                "end_time": 63.7454545,
                "pitch": 55,
                "velocity": 51,
                "duration": 0.1340909,
                "tempo": 120.0
            },
            {
                "start_time": 63.6113636,
                "end_time": 63.7454545,
                "pitch": 67,
                "velocity": 51,
                "duration": 0.1340909,
                "tempo": 120.0
            },
            {
                "start_time": 63.7454545,
                "end_time": 63.7931818,
                "pitch": 54,
                "velocity": 51,
                "duration": 0.0477273,
                "tempo": 120.0
            },
            {
                "start_time": 63.7931818,
                "end_time": 63.8431818,
                "pitch": 51,
                "velocity": 51,
                "duration": 0.05,
                "tempo": 120.0
            },
            {
                "start_time": 63.7454545,
                "end_time": 63.8636364,
                "pitch": 55,
                "velocity": 51,
                "duration": 0.1181818,
                "tempo": 120.0
            },
            {
                "start_time": 63.8613636,
                "end_time": 63.8636364,
                "pitch": 55,
                "velocity": 64,
                "duration": 0.0022727,
                "tempo": 120.0
            },
            {
                "start_time": 63.7454545,
                "end_time": 63.8636364,
                "pitch": 67,
                "velocity": 51,
                "duration": 0.1181818,
                "tempo": 120.0
            },
            {
                "start_time": 63.8636364,
                "end_time": 63.9090909,
                "pitch": 54,
                "velocity": 64,
                "duration": 0.0454545,
                "tempo": 120.0
            },
            {
                "start_time": 63.9090909,
                "end_time": 63.9590909,
                "pitch": 51,
                "velocity": 64,
                "duration": 0.05,
                "tempo": 120.0
            },
            {
                "start_time": 63.8636364,
                "end_time": 63.9795455,
                "pitch": 67,
                "velocity": 64,
                "duration": 0.1159091,
                "tempo": 120.0
            },
            {
                "start_time": 63.9795455,
                "end_time": 64.025,
                "pitch": 54,
                "velocity": 64,
                "duration": 0.0454545,
                "tempo": 120.0
            },
            {
                "start_time": 64.025,
                "end_time": 64.0772727,
                "pitch": 51,
                "velocity": 64,
                "duration": 0.0522727,
                "tempo": 120.0
            },
            {
                "start_time": 63.9795455,
                "end_time": 64.0954545,
                "pitch": 55,
                "velocity": 64,
                "duration": 0.1159091,
                "tempo": 120.0
            },
            {
                "start_time": 63.9795455,
                "end_time": 64.0954545,
                "pitch": 67,
                "velocity": 64,
                "duration": 0.1159091,
                "tempo": 120.0
            },
            {
                "start_time": 64.0954545,
                "end_time": 64.1431818,
                "pitch": 54,
                "velocity": 64,
                "duration": 0.0477273,
                "tempo": 120.0
            },
            {
                "start_time": 64.1431818,
                "end_time": 64.1931818,
                "pitch": 51,
                "velocity": 64,
                "duration": 0.05,
                "tempo": 120.0
            },
            {
                "start_time": 64.1931818,
                "end_time": 64.2113636,
                "pitch": 48,
                "velocity": 64,
                "duration": 0.0181818,
                "tempo": 120.0
            },
            {
                "start_time": 64.0954545,
                "end_time": 64.2295455,
                "pitch": 55,
                "velocity": 64,
                "duration": 0.1340909,
                "tempo": 120.0
            },
            {
                "start_time": 64.0954545,
                "end_time": 64.2295455,
                "pitch": 67,
                "velocity": 64,
                "duration": 0.1340909,
                "tempo": 120.0
            },
            {
                "start_time": 64.2295455,
                "end_time": 64.275,
                "pitch": 54,
                "velocity": 80,
                "duration": 0.0454545,
                "tempo": 120.0
            },
            {
                "start_time": 64.275,
                "end_time": 64.325,
                "pitch": 51,
                "velocity": 80,
                "duration": 0.05,
                "tempo": 120.0
            },
            {
                "start_time": 64.2295455,
                "end_time": 64.3431818,
                "pitch": 55,
                "velocity": 80,
                "duration": 0.1136364,
                "tempo": 120.0
            },
            {
                "start_time": 64.2295455,
                "end_time": 64.3431818,
                "pitch": 67,
                "velocity": 80,
                "duration": 0.1136364,
                "tempo": 120.0
            },
            {
                "start_time": 64.3431818,
                "end_time": 64.3886364,
                "pitch": 54,
                "velocity": 80,
                "duration": 0.0454545,
                "tempo": 120.0
            },
            {
                "start_time": 64.3886364,
                "end_time": 64.4386364,
                "pitch": 51,
                "velocity": 80,
                "duration": 0.05,
                "tempo": 120.0
            },
            {
                "start_time": 64.3431818,
                "end_time": 64.4568182,
                "pitch": 55,
                "velocity": 80,
                "duration": 0.1136364,
                "tempo": 120.0
            },
            {
                "start_time": 64.3431818,
                "end_time": 64.4590909,
                "pitch": 67,
                "velocity": 80,
                "duration": 0.1159091,
                "tempo": 120.0
            },
            {
                "start_time": 64.4568182,
                "end_time": 64.4590909,
                "pitch": 67,
                "velocity": 80,
                "duration": 0.0022727,
                "tempo": 120.0
            },
            {
                "start_time": 64.4590909,
                "end_time": 64.5045455,
                "pitch": 54,
                "velocity": 80,
                "duration": 0.0454545,
                "tempo": 120.0
            },
            {
                "start_time": 64.5045455,
                "end_time": 64.5522727,
                "pitch": 51,
                "velocity": 80,
                "duration": 0.0477273,
                "tempo": 120.0
            },
            {
                "start_time": 64.4568182,
                "end_time": 64.5886364,
                "pitch": 55,
                "velocity": 80,
                "duration": 0.1318182,
                "tempo": 120.0
            },
            {
                "start_time": 64.5886364,
                "end_time": 64.6340909,
                "pitch": 54,
                "velocity": 101,
                "duration": 0.0454545,
                "tempo": 120.0
            },
            {
                "start_time": 64.6340909,
                "end_time": 64.6863636,
                "pitch": 51,
                "velocity": 101,
                "duration": 0.0522727,
                "tempo": 120.0
            },
            {
                "start_time": 64.5886364,
                "end_time": 64.7045455,
                "pitch": 55,
                "velocity": 101,
                "duration": 0.1159091,
                "tempo": 120.0
            },
            {
                "start_time": 64.5886364,
                "end_time": 64.7045455,
                "pitch": 67,
                "velocity": 101,
                "duration": 0.1159091,
                "tempo": 120.0
            },
            {
                "start_time": 64.7045455,
                "end_time": 64.7522727,
                "pitch": 54,
                "velocity": 101,
                "duration": 0.0477273,
                "tempo": 120.0
            },
            {
                "start_time": 64.7522727,
                "end_time": 64.8022727,
                "pitch": 51,
                "velocity": 101,
                "duration": 0.05,
                "tempo": 120.0
            },
            {
                "start_time": 64.7045455,
                "end_time": 64.8227273,
                "pitch": 55,
                "velocity": 101,
                "duration": 0.1181818,
                "tempo": 120.0
            },
            {
                "start_time": 64.8204545,
                "end_time": 64.8227273,
                "pitch": 55,
                "velocity": 101,
                "duration": 0.0022727,
                "tempo": 120.0
            },
            {
                "start_time": 64.7045455,
                "end_time": 64.8227273,
                "pitch": 67,
                "velocity": 101,
                "duration": 0.1181818,
                "tempo": 120.0
            },
            {
                "start_time": 64.8227273,
                "end_time": 64.8681818,
                "pitch": 54,
                "velocity": 101,
                "duration": 0.0454545,
                "tempo": 120.0
            },
            {
                "start_time": 64.8681818,
                "end_time": 64.9204545,
                "pitch": 51,
                "velocity": 101,
                "duration": 0.0522727,
                "tempo": 120.0
            }
        ],
        "Church Organ": [
            {
                "start_time": 13.1636364,
                "end_time": 14.5659091,
                "pitch": 67,
                "velocity": 64,
                "duration": 1.4022727,
                "tempo": 120.0
            },
            {
                "start_time": 14.5840909,
                "end_time": 15.9931818,
                "pitch": 69,
                "velocity": 64,
                "duration": 1.4090909,
                "tempo": 120.0
            },
            {
                "start_time": 16.0113636,
                "end_time": 16.5863636,
                "pitch": 70,
                "velocity": 64,
                "duration": 0.575,
                "tempo": 120.0
            },
            {
                "start_time": 16.6204545,
                "end_time": 17.0840909,
                "pitch": 72,
                "velocity": 64,
                "duration": 0.4636364,
                "tempo": 120.0
            },
            {
                "start_time": 17.1022727,
                "end_time": 17.4363636,
                "pitch": 69,
                "velocity": 64,
                "duration": 0.3340909,
                "tempo": 120.0
            },
            {
                "start_time": 17.4704545,
                "end_time": 18.8772727,
                "pitch": 67,
                "velocity": 64,
                "duration": 1.4068182,
                "tempo": 120.0
            },
            {
                "start_time": 18.8954545,
                "end_time": 20.3204545,
                "pitch": 67,
                "velocity": 64,
                "duration": 1.425,
                "tempo": 120.0
            },
            {
                "start_time": 20.3386364,
                "end_time": 21.7636364,
                "pitch": 69,
                "velocity": 64,
                "duration": 1.425,
                "tempo": 120.0
            },
            {
                "start_time": 21.7818182,
                "end_time": 22.3590909,
                "pitch": 70,
                "velocity": 64,
                "duration": 0.5772727,
                "tempo": 120.0
            },
            {
                "start_time": 22.3772727,
                "end_time": 22.8204545,
                "pitch": 72,
                "velocity": 64,
                "duration": 0.4431818,
                "tempo": 120.0
            },
            {
                "start_time": 22.8386364,
                "end_time": 23.1886364,
                "pitch": 69,
                "velocity": 64,
                "duration": 0.35,
                "tempo": 120.0
            },
            {
                "start_time": 23.2068182,
                "end_time": 24.6318182,
                "pitch": 67,
                "velocity": 64,
                "duration": 1.425,
                "tempo": 120.0
            },
            {
                "start_time": 24.65,
                "end_time": 26.0727273,
                "pitch": 63,
                "velocity": 64,
                "duration": 1.4227273,
                "tempo": 120.0
            },
            {
                "start_time": 26.0909091,
                "end_time": 26.7840909,
                "pitch": 67,
                "velocity": 64,
                "duration": 0.6931818,
                "tempo": 120.0
            },
            {
                "start_time": 26.8,
                "end_time": 27.5090909,
                "pitch": 70,
                "velocity": 64,
                "duration": 0.7090909,
                "tempo": 120.0
            },
            {
                "start_time": 27.5272727,
                "end_time": 28.9431818,
                "pitch": 67,
                "velocity": 64,
                "duration": 1.4159091,
                "tempo": 120.0
            },
            {
                "start_time": 28.9795455,
                "end_time": 29.0772727,
                "pitch": 70,
                "velocity": 64,
                "duration": 0.0977273,
                "tempo": 120.0
            },
            {
                "start_time": 29.0931818,
                "end_time": 29.1931818,
                "pitch": 69,
                "velocity": 64,
                "duration": 0.1,
                "tempo": 120.0
            },
            {
                "start_time": 29.2113636,
                "end_time": 29.3113636,
                "pitch": 67,
                "velocity": 64,
                "duration": 0.1,
                "tempo": 120.0
            },
            {
                "start_time": 29.3295455,
                "end_time": 29.4227273,
                "pitch": 70,
                "velocity": 64,
                "duration": 0.0931818,
                "tempo": 120.0
            },
            {
                "start_time": 29.4545455,
                "end_time": 29.55,
                "pitch": 69,
                "velocity": 64,
                "duration": 0.0954545,
                "tempo": 120.0
            },
            {
                "start_time": 29.5659091,
                "end_time": 29.6613636,
                "pitch": 67,
                "velocity": 64,
                "duration": 0.0954545,
                "tempo": 120.0
            },
            {
                "start_time": 29.6772727,
                "end_time": 29.775,
                "pitch": 70,
                "velocity": 64,
                "duration": 0.0977273,
                "tempo": 120.0
            },
            {
                "start_time": 29.7931818,
                "end_time": 29.9090909,
                "pitch": 69,
                "velocity": 64,
                "duration": 0.1159091,
                "tempo": 120.0
            },
            {
                "start_time": 29.9272727,
                "end_time": 30.0272727,
                "pitch": 67,
                "velocity": 64,
                "duration": 0.1,
                "tempo": 120.0
            },
            {
                "start_time": 30.0431818,
                "end_time": 30.1431818,
                "pitch": 70,
                "velocity": 64,
                "duration": 0.1,
                "tempo": 120.0
            },
            {
                "start_time": 30.1613636,
                "end_time": 30.2613636,
                "pitch": 69,
                "velocity": 64,
                "duration": 0.1,
                "tempo": 120.0
            },
            {
                "start_time": 30.2954545,
                "end_time": 30.3954545,
                "pitch": 67,
                "velocity": 64,
                "duration": 0.1,
                "tempo": 120.0
            },
            {
                "start_time": 30.4136364,
                "end_time": 31.8204545,
                "pitch": 63,
                "velocity": 64,
                "duration": 1.4068182,
                "tempo": 120.0
            },
            {
                "start_time": 31.8386364,
                "end_time": 32.5477273,
                "pitch": 67,
                "velocity": 64,
                "duration": 0.7090909,
                "tempo": 120.0
            },
            {
                "start_time": 32.5636364,
                "end_time": 33.2659091,
                "pitch": 70,
                "velocity": 64,
                "duration": 0.7022727,
                "tempo": 120.0
            },
            {
                "start_time": 33.3,
                "end_time": 34.7068182,
                "pitch": 62,
                "velocity": 64,
                "duration": 1.4068182,
                "tempo": 120.0
            },
            {
                "start_time": 34.725,
                "end_time": 34.8204545,
                "pitch": 72,
                "velocity": 64,
                "duration": 0.0954545,
                "tempo": 120.0
            },
            {
                "start_time": 34.8386364,
                "end_time": 34.9363636,
                "pitch": 69,
                "velocity": 64,
                "duration": 0.0977273,
                "tempo": 120.0
            },
            {
                "start_time": 34.9522727,
                "end_time": 35.0659091,
                "pitch": 66,
                "velocity": 64,
                "duration": 0.1136364,
                "tempo": 120.0
            },
            {
                "start_time": 35.0818182,
                "end_time": 35.1818182,
                "pitch": 72,
                "velocity": 64,
                "duration": 0.1,
                "tempo": 120.0
            },
            {
                "start_time": 35.2,
                "end_time": 35.3,
                "pitch": 69,
                "velocity": 64,
                "duration": 0.1,
                "tempo": 120.0
            },
            {
                "start_time": 35.3159091,
                "end_time": 35.4159091,
                "pitch": 66,
                "velocity": 64,
                "duration": 0.1,
                "tempo": 120.0
            },
            {
                "start_time": 35.45,
                "end_time": 35.55,
                "pitch": 72,
                "velocity": 64,
                "duration": 0.1,
                "tempo": 120.0
            },
            {
                "start_time": 35.5659091,
                "end_time": 35.6659091,
                "pitch": 69,
                "velocity": 64,
                "duration": 0.1,
                "tempo": 120.0
            },
            {
                "start_time": 35.6840909,
                "end_time": 35.7840909,
                "pitch": 66,
                "velocity": 64,
                "duration": 0.1,
                "tempo": 120.0
            },
            {
                "start_time": 35.8,
                "end_time": 35.9113636,
                "pitch": 72,
                "velocity": 64,
                "duration": 0.1113636,
                "tempo": 120.0
            },
            {
                "start_time": 35.9272727,
                "end_time": 36.0227273,
                "pitch": 69,
                "velocity": 64,
                "duration": 0.0954545,
                "tempo": 120.0
            },
            {
                "start_time": 36.0386364,
                "end_time": 36.1340909,
                "pitch": 66,
                "velocity": 64,
                "duration": 0.0954545,
                "tempo": 120.0
            }
        ],
        "Acoustic Grand Piano": [
            {
                "start_time": 7.3659091,
                "end_time": 7.4659091,
                "pitch": 79,
                "velocity": 64,
                "duration": 0.1,
                "tempo": 120.0
            },
            {
                "start_time": 7.4840909,
                "end_time": 7.6045455,
                "pitch": 81,
                "velocity": 64,
                "duration": 0.1204545,
                "tempo": 120.0
            },
            {
                "start_time": 7.6227273,
                "end_time": 7.725,
                "pitch": 82,
                "velocity": 64,
                "duration": 0.1022727,
                "tempo": 120.0
            },
            {
                "start_time": 7.7431818,
                "end_time": 7.8431818,
                "pitch": 86,
                "velocity": 64,
                "duration": 0.1,
                "tempo": 120.0
            },
            {
                "start_time": 7.8590909,
                "end_time": 7.9590909,
                "pitch": 84,
                "velocity": 64,
                "duration": 0.1,
                "tempo": 120.0
            },
            {
                "start_time": 7.9931818,
                "end_time": 8.0931818,
                "pitch": 82,
                "velocity": 64,
                "duration": 0.1,
                "tempo": 120.0
            },
            {
                "start_time": 8.1113636,
                "end_time": 8.2090909,
                "pitch": 81,
                "velocity": 64,
                "duration": 0.0977273,
                "tempo": 120.0
            },
            {
                "start_time": 8.225,
                "end_time": 8.3227273,
                "pitch": 82,
                "velocity": 64,
                "duration": 0.0977273,
                "tempo": 120.0
            },
            {
                "start_time": 8.3386364,
                "end_time": 8.4363636,
                "pitch": 84,
                "velocity": 64,
                "duration": 0.0977273,
                "tempo": 120.0
            },
            {
                "start_time": 8.4704545,
                "end_time": 8.5681818,
                "pitch": 82,
                "velocity": 64,
                "duration": 0.0977273,
                "tempo": 120.0
            },
            {
                "start_time": 8.5863636,
                "end_time": 8.6863636,
                "pitch": 81,
                "velocity": 64,
                "duration": 0.1,
                "tempo": 120.0
            },
            {
                "start_time": 8.7022727,
                "end_time": 8.8022727,
                "pitch": 77,
                "velocity": 64,
                "duration": 0.1,
                "tempo": 120.0
            },
            {
                "start_time": 8.8363636,
                "end_time": 8.9363636,
                "pitch": 79,
                "velocity": 64,
                "duration": 0.1,
                "tempo": 120.0
            },
            {
                "start_time": 8.9522727,
                "end_time": 9.0522727,
                "pitch": 81,
                "velocity": 64,
                "duration": 0.1,
                "tempo": 120.0
            },
            {
                "start_time": 9.0704545,
                "end_time": 9.1704545,
                "pitch": 82,
                "velocity": 64,
                "duration": 0.1,
                "tempo": 120.0
            },
            {
                "start_time": 9.1886364,
                "end_time": 9.2818182,
                "pitch": 86,
                "velocity": 64,
                "duration": 0.0931818,
                "tempo": 120.0
            },
            {
                "start_time": 9.3136364,
                "end_time": 9.4090909,
                "pitch": 84,
                "velocity": 64,
                "duration": 0.0954545,
                "tempo": 120.0
            },
            {
                "start_time": 9.425,
                "end_time": 9.5204545,
                "pitch": 82,
                "velocity": 64,
                "duration": 0.0954545,
                "tempo": 120.0
            },
            {
                "start_time": 9.5363636,
                "end_time": 9.6340909,
                "pitch": 81,
                "velocity": 64,
                "duration": 0.0977273,
                "tempo": 120.0
            },
            {
                "start_time": 9.6522727,
                "end_time": 9.7681818,
                "pitch": 82,
                "velocity": 64,
                "duration": 0.1159091,
                "tempo": 120.0
            },
            {
                "start_time": 9.7863636,
                "end_time": 9.8863636,
                "pitch": 84,
                "velocity": 64,
                "duration": 0.1,
                "tempo": 120.0
            },
            {
                "start_time": 9.9022727,
                "end_time": 10.0022727,
                "pitch": 82,
                "velocity": 64,
                "duration": 0.1,
                "tempo": 120.0
            },
            {
                "start_time": 10.0204545,
                "end_time": 10.1204545,
                "pitch": 81,
                "velocity": 64,
                "duration": 0.1,
                "tempo": 120.0
            },
            {
                "start_time": 10.1522727,
                "end_time": 10.2522727,
                "pitch": 77,
                "velocity": 64,
                "duration": 0.1,
                "tempo": 120.0
            },
            {
                "start_time": 10.2704545,
                "end_time": 10.3681818,
                "pitch": 79,
                "velocity": 64,
                "duration": 0.0977273,
                "tempo": 120.0
            },
            {
                "start_time": 10.3840909,
                "end_time": 10.4818182,
                "pitch": 81,
                "velocity": 64,
                "duration": 0.0977273,
                "tempo": 120.0
            },
            {
                "start_time": 10.4977273,
                "end_time": 10.6113636,
                "pitch": 82,
                "velocity": 64,
                "duration": 0.1136364,
                "tempo": 120.0
            },
            {
                "start_time": 10.6295455,
                "end_time": 10.7272727,
                "pitch": 86,
                "velocity": 64,
                "duration": 0.0977273,
                "tempo": 120.0
            },
            {
                "start_time": 10.7431818,
                "end_time": 10.8409091,
                "pitch": 84,
                "velocity": 64,
                "duration": 0.0977273,
                "tempo": 120.0
            },
            {
                "start_time": 10.8568182,
                "end_time": 10.9545455,
                "pitch": 82,
                "velocity": 64,
                "duration": 0.0977273,
                "tempo": 120.0
            },
            {
                "start_time": 10.9886364,
                "end_time": 11.0863636,
                "pitch": 81,
                "velocity": 64,
                "duration": 0.0977273,
                "tempo": 120.0
            },
            {
                "start_time": 11.1045455,
                "end_time": 11.2045455,
                "pitch": 82,
                "velocity": 64,
                "duration": 0.1,
                "tempo": 120.0
            },
            {
                "start_time": 11.2204545,
                "end_time": 11.3204545,
                "pitch": 84,
                "velocity": 64,
                "duration": 0.1,
                "tempo": 120.0
            },
            {
                "start_time": 11.3386364,
                "end_time": 11.4363636,
                "pitch": 82,
                "velocity": 64,
                "duration": 0.0977273,
                "tempo": 120.0
            },
            {
                "start_time": 11.4681818,
                "end_time": 11.5659091,
                "pitch": 81,
                "velocity": 64,
                "duration": 0.0977273,
                "tempo": 120.0
            },
            {
                "start_time": 11.5818182,
                "end_time": 11.6795455,
                "pitch": 77,
                "velocity": 64,
                "duration": 0.0977273,
                "tempo": 120.0
            },
            {
                "start_time": 11.6977273,
                "end_time": 11.7931818,
                "pitch": 79,
                "velocity": 64,
                "duration": 0.0954545,
                "tempo": 120.0
            },
            {
                "start_time": 11.8272727,
                "end_time": 11.925,
                "pitch": 81,
                "velocity": 64,
                "duration": 0.0977273,
                "tempo": 120.0
            },
            {
                "start_time": 11.9409091,
                "end_time": 12.0386364,
                "pitch": 82,
                "velocity": 64,
                "duration": 0.0977273,
                "tempo": 120.0
            },
            {
                "start_time": 12.0568182,
                "end_time": 12.1545455,
                "pitch": 86,
                "velocity": 64,
                "duration": 0.0977273,
                "tempo": 120.0
            },
            {
                "start_time": 12.1727273,
                "end_time": 12.2727273,
                "pitch": 84,
                "velocity": 64,
                "duration": 0.1,
                "tempo": 120.0
            },
            {
                "start_time": 12.3068182,
                "end_time": 12.4068182,
                "pitch": 82,
                "velocity": 64,
                "duration": 0.1,
                "tempo": 120.0
            },
            {
                "start_time": 12.4227273,
                "end_time": 12.5227273,
                "pitch": 81,
                "velocity": 64,
                "duration": 0.1,
                "tempo": 120.0
            },
            {
                "start_time": 12.5409091,
                "end_time": 12.6386364,
                "pitch": 82,
                "velocity": 64,
                "duration": 0.0977273,
                "tempo": 120.0
            },
            {
                "start_time": 12.6568182,
                "end_time": 12.7727273,
                "pitch": 84,
                "velocity": 64,
                "duration": 0.1159091,
                "tempo": 120.0
            },
            {
                "start_time": 12.7909091,
                "end_time": 12.8909091,
                "pitch": 82,
                "velocity": 64,
                "duration": 0.1,
                "tempo": 120.0
            },
            {
                "start_time": 12.9068182,
                "end_time": 13.0068182,
                "pitch": 81,
                "velocity": 64,
                "duration": 0.1,
                "tempo": 120.0
            },
            {
                "start_time": 13.025,
                "end_time": 13.125,
                "pitch": 77,
                "velocity": 64,
                "duration": 0.1,
                "tempo": 120.0
            },
            {
                "start_time": 13.1590909,
                "end_time": 13.2545455,
                "pitch": 79,
                "velocity": 64,
                "duration": 0.0954545,
                "tempo": 120.0
            },
            {
                "start_time": 13.2727273,
                "end_time": 13.3681818,
                "pitch": 81,
                "velocity": 64,
                "duration": 0.0954545,
                "tempo": 120.0
            },
            {
                "start_time": 13.3863636,
                "end_time": 13.4840909,
                "pitch": 82,
                "velocity": 64,
                "duration": 0.0977273,
                "tempo": 120.0
            },
            {
                "start_time": 13.5,
                "end_time": 13.6113636,
                "pitch": 86,
                "velocity": 64,
                "duration": 0.1113636,
                "tempo": 120.0
            },
            {
                "start_time": 13.6272727,
                "end_time": 13.7204545,
                "pitch": 84,
                "velocity": 64,
                "duration": 0.0931818,
                "tempo": 120.0
            },
            {
                "start_time": 13.7386364,
                "end_time": 13.8318182,
                "pitch": 82,
                "velocity": 64,
                "duration": 0.0931818,
                "tempo": 120.0
            },
            {
                "start_time": 13.8477273,
                "end_time": 13.9477273,
                "pitch": 81,
                "velocity": 64,
                "duration": 0.1,
                "tempo": 120.0
            },
            {
                "start_time": 13.9818182,
                "end_time": 14.0818182,
                "pitch": 82,
                "velocity": 64,
                "duration": 0.1,
                "tempo": 120.0
            },
            {
                "start_time": 14.0977273,
                "end_time": 14.1977273,
                "pitch": 84,
                "velocity": 64,
                "duration": 0.1,
                "tempo": 120.0
            },
            {
                "start_time": 14.2159091,
                "end_time": 14.3159091,
                "pitch": 82,
                "velocity": 64,
                "duration": 0.1,
                "tempo": 120.0
            },
            {
                "start_time": 14.3318182,
                "end_time": 14.4318182,
                "pitch": 81,
                "velocity": 64,
                "duration": 0.1,
                "tempo": 120.0
            },
            {
                "start_time": 14.4659091,
                "end_time": 14.5659091,
                "pitch": 77,
                "velocity": 64,
                "duration": 0.1,
                "tempo": 120.0
            },
            {
                "start_time": 14.5840909,
                "end_time": 14.6795455,
                "pitch": 79,
                "velocity": 64,
                "duration": 0.0954545,
                "tempo": 120.0
            },
            {
                "start_time": 14.6977273,
                "end_time": 14.7954545,
                "pitch": 81,
                "velocity": 64,
                "duration": 0.0977273,
                "tempo": 120.0
            },
            {
                "start_time": 14.8272727,
                "end_time": 14.925,
                "pitch": 82,
                "velocity": 64,
                "duration": 0.0977273,
                "tempo": 120.0
            },
            {
                "start_time": 14.9409091,
                "end_time": 15.0409091,
                "pitch": 86,
                "velocity": 64,
                "duration": 0.1,
                "tempo": 120.0
            },
            {
                "start_time": 15.0590909,
                "end_time": 15.1590909,
                "pitch": 84,
                "velocity": 64,
                "duration": 0.1,
                "tempo": 120.0
            },
            {
                "start_time": 15.175,
                "end_time": 15.275,
                "pitch": 82,
                "velocity": 64,
                "duration": 0.1,
                "tempo": 120.0
            },
            {
                "start_time": 15.3090909,
                "end_time": 15.4090909,
                "pitch": 81,
                "velocity": 64,
                "duration": 0.1,
                "tempo": 120.0
            },
            {
                "start_time": 15.425,
                "end_time": 15.525,
                "pitch": 82,
                "velocity": 64,
                "duration": 0.1,
                "tempo": 120.0
            },
            {
                "start_time": 15.5431818,
                "end_time": 15.6431818,
                "pitch": 84,
                "velocity": 64,
                "duration": 0.1,
                "tempo": 120.0
            },
            {
                "start_time": 15.6590909,
                "end_time": 15.7704545,
                "pitch": 82,
                "velocity": 64,
                "duration": 0.1113636,
                "tempo": 120.0
            },
            {
                "start_time": 15.7863636,
                "end_time": 15.8818182,
                "pitch": 81,
                "velocity": 64,
                "duration": 0.0954545,
                "tempo": 120.0
            },
            {
                "start_time": 15.8977273,
                "end_time": 15.9909091,
                "pitch": 77,
                "velocity": 64,
                "duration": 0.0931818,
                "tempo": 120.0
            },
            {
                "start_time": 16.0090909,
                "end_time": 16.1068182,
                "pitch": 79,
                "velocity": 64,
                "duration": 0.0977273,
                "tempo": 120.0
            },
            {
                "start_time": 16.1409091,
                "end_time": 16.2409091,
                "pitch": 81,
                "velocity": 64,
                "duration": 0.1,
                "tempo": 120.0
            },
            {
                "start_time": 16.2568182,
                "end_time": 16.3568182,
                "pitch": 82,
                "velocity": 64,
                "duration": 0.1,
                "tempo": 120.0
            },
            {
                "start_time": 16.375,
                "end_time": 16.4727273,
                "pitch": 86,
                "velocity": 64,
                "duration": 0.0977273,
                "tempo": 120.0
            },
            {
                "start_time": 16.4886364,
                "end_time": 16.5863636,
                "pitch": 84,
                "velocity": 64,
                "duration": 0.0977273,
                "tempo": 120.0
            },
            {
                "start_time": 16.6204545,
                "end_time": 16.7159091,
                "pitch": 82,
                "velocity": 64,
                "duration": 0.0954545,
                "tempo": 120.0
            },
            {
                "start_time": 16.7340909,
                "end_time": 16.8340909,
                "pitch": 81,
                "velocity": 64,
                "duration": 0.1,
                "tempo": 120.0
            },
            {
                "start_time": 16.85,
                "end_time": 16.95,
                "pitch": 82,
                "velocity": 64,
                "duration": 0.1,
                "tempo": 120.0
            },
            {
                "start_time": 16.9840909,
                "end_time": 17.0840909,
                "pitch": 84,
                "velocity": 64,
                "duration": 0.1,
                "tempo": 120.0
            },
            {
                "start_time": 17.1022727,
                "end_time": 17.2,
                "pitch": 82,
                "velocity": 64,
                "duration": 0.0977273,
                "tempo": 120.0
            },
            {
                "start_time": 17.2181818,
                "end_time": 17.3181818,
                "pitch": 81,
                "velocity": 64,
                "duration": 0.1,
                "tempo": 120.0
            },
            {
                "start_time": 17.3340909,
                "end_time": 17.4340909,
                "pitch": 77,
                "velocity": 64,
                "duration": 0.1,
                "tempo": 120.0
            },
            {
                "start_time": 17.4681818,
                "end_time": 17.5659091,
                "pitch": 79,
                "velocity": 64,
                "duration": 0.0977273,
                "tempo": 120.0
            },
            {
                "start_time": 17.5818182,
                "end_time": 17.6795455,
                "pitch": 81,
                "velocity": 64,
                "duration": 0.0977273,
                "tempo": 120.0
            },
            {
                "start_time": 17.6954545,
                "end_time": 17.7931818,
                "pitch": 82,
                "velocity": 64,
                "duration": 0.0977273,
                "tempo": 120.0
            },
            {
                "start_time": 17.8272727,
                "end_time": 17.9272727,
                "pitch": 86,
                "velocity": 64,
                "duration": 0.1,
                "tempo": 120.0
            },
            {
                "start_time": 17.9431818,
                "end_time": 18.0431818,
                "pitch": 84,
                "velocity": 64,
                "duration": 0.1,
                "tempo": 120.0
            },
            {
                "start_time": 18.0613636,
                "end_time": 18.1613636,
                "pitch": 82,
                "velocity": 64,
                "duration": 0.1,
                "tempo": 120.0
            },
            {
                "start_time": 18.1772727,
                "end_time": 18.2727273,
                "pitch": 81,
                "velocity": 64,
                "duration": 0.0954545,
                "tempo": 120.0
            },
            {
                "start_time": 18.3045455,
                "end_time": 18.4,
                "pitch": 82,
                "velocity": 64,
                "duration": 0.0954545,
                "tempo": 120.0
            },
            {
                "start_time": 18.4159091,
                "end_time": 18.5090909,
                "pitch": 84,
                "velocity": 64,
                "duration": 0.0931818,
                "tempo": 120.0
            },
            {
                "start_time": 18.525,
                "end_time": 18.625,
                "pitch": 82,
                "velocity": 64,
                "duration": 0.1,
                "tempo": 120.0
            },
            {
                "start_time": 18.6431818,
                "end_time": 18.7590909,
                "pitch": 81,
                "velocity": 64,
                "duration": 0.1159091,
                "tempo": 120.0
            },
            {
                "start_time": 18.775,
                "end_time": 18.875,
                "pitch": 77,
                "velocity": 64,
                "duration": 0.1,
                "tempo": 120.0
            },
            {
                "start_time": 18.8931818,
                "end_time": 18.9931818,
                "pitch": 79,
                "velocity": 64,
                "duration": 0.1,
                "tempo": 120.0
            },
            {
                "start_time": 19.0090909,
                "end_time": 19.1090909,
                "pitch": 81,
                "velocity": 64,
                "duration": 0.1,
                "tempo": 120.0
            },
            {
                "start_time": 19.1431818,
                "end_time": 19.2431818,
                "pitch": 82,
                "velocity": 64,
                "duration": 0.1,
                "tempo": 120.0
            },
            {
                "start_time": 19.2613636,
                "end_time": 19.3568182,
                "pitch": 86,
                "velocity": 64,
                "duration": 0.0954545,
                "tempo": 120.0
            },
            {
                "start_time": 19.375,
                "end_time": 19.4727273,
                "pitch": 84,
                "velocity": 64,
                "duration": 0.0977273,
                "tempo": 120.0
            },
            {
                "start_time": 19.4886364,
                "end_time": 19.5863636,
                "pitch": 82,
                "velocity": 64,
                "duration": 0.0977273,
                "tempo": 120.0
            },
            {
                "start_time": 19.6181818,
                "end_time": 19.7181818,
                "pitch": 81,
                "velocity": 64,
                "duration": 0.1,
                "tempo": 120.0
            },
            {
                "start_time": 19.7363636,
                "end_time": 19.8363636,
                "pitch": 82,
                "velocity": 64,
                "duration": 0.1,
                "tempo": 120.0
            },
            {
                "start_time": 19.8522727,
                "end_time": 19.9522727,
                "pitch": 84,
                "velocity": 64,
                "duration": 0.1,
                "tempo": 120.0
            },
            {
                "start_time": 19.9863636,
                "end_time": 20.0863636,
                "pitch": 82,
                "velocity": 64,
                "duration": 0.1,
                "tempo": 120.0
            },
            {
                "start_time": 20.1022727,
                "end_time": 20.2022727,
                "pitch": 81,
                "velocity": 64,
                "duration": 0.1,
                "tempo": 120.0
            },
            {
                "start_time": 20.2204545,
                "end_time": 20.3204545,
                "pitch": 77,
                "velocity": 64,
                "duration": 0.1,
                "tempo": 120.0
            },
            {
                "start_time": 20.3363636,
                "end_time": 20.4318182,
                "pitch": 79,
                "velocity": 64,
                "duration": 0.0954545,
                "tempo": 120.0
            },
            {
                "start_time": 20.4636364,
                "end_time": 20.5590909,
                "pitch": 81,
                "velocity": 64,
                "duration": 0.0954545,
                "tempo": 120.0
            },
            {
                "start_time": 20.575,
                "end_time": 20.6704545,
                "pitch": 82,
                "velocity": 64,
                "duration": 0.0954545,
                "tempo": 120.0
            },
            {
                "start_time": 20.6863636,
                "end_time": 20.7840909,
                "pitch": 86,
                "velocity": 64,
                "duration": 0.0977273,
                "tempo": 120.0
            },
            {
                "start_time": 20.8,
                "end_time": 20.9136364,
                "pitch": 84,
                "velocity": 64,
                "duration": 0.1136364,
                "tempo": 120.0
            },
            {
                "start_time": 20.9295455,
                "end_time": 21.0272727,
                "pitch": 82,
                "velocity": 64,
                "duration": 0.0977273,
                "tempo": 120.0
            },
            {
                "start_time": 21.0431818,
                "end_time": 21.1431818,
                "pitch": 81,
                "velocity": 64,
                "duration": 0.1,
                "tempo": 120.0
            },
            {
                "start_time": 21.1613636,
                "end_time": 21.2613636,
                "pitch": 82,
                "velocity": 64,
                "duration": 0.1,
                "tempo": 120.0
            },
            {
                "start_time": 21.2954545,
                "end_time": 21.3954545,
                "pitch": 84,
                "velocity": 64,
                "duration": 0.1,
                "tempo": 120.0
            },
            {
                "start_time": 21.4113636,
                "end_time": 21.5113636,
                "pitch": 82,
                "velocity": 64,
                "duration": 0.1,
                "tempo": 120.0
            },
            {
                "start_time": 21.5272727,
                "end_time": 21.6272727,
                "pitch": 81,
                "velocity": 64,
                "duration": 0.1,
                "tempo": 120.0
            },
            {
                "start_time": 21.6454545,
                "end_time": 21.7613636,
                "pitch": 77,
                "velocity": 64,
                "duration": 0.1159091,
                "tempo": 120.0
            },
            {
                "start_time": 21.7795455,
                "end_time": 21.8795455,
                "pitch": 79,
                "velocity": 64,
                "duration": 0.1,
                "tempo": 120.0
            },
            {
                "start_time": 21.8954545,
                "end_time": 21.9954545,
                "pitch": 81,
                "velocity": 64,
                "duration": 0.1,
                "tempo": 120.0
            },
            {
                "start_time": 22.0136364,
                "end_time": 22.1136364,
                "pitch": 82,
                "velocity": 64,
                "duration": 0.1,
                "tempo": 120.0
            },
            {
                "start_time": 22.1454545,
                "end_time": 22.2431818,
                "pitch": 86,
                "velocity": 64,
                "duration": 0.0977273,
                "tempo": 120.0
            },
            {
                "start_time": 22.2613636,
                "end_time": 22.3590909,
                "pitch": 84,
                "velocity": 64,
                "duration": 0.0977273,
                "tempo": 120.0
            },
            {
                "start_time": 22.375,
                "end_time": 22.4727273,
                "pitch": 82,
                "velocity": 64,
                "duration": 0.0977273,
                "tempo": 120.0
            },
            {
                "start_time": 22.4886364,
                "end_time": 22.5840909,
                "pitch": 81,
                "velocity": 64,
                "duration": 0.0954545,
                "tempo": 120.0
            },
            {
                "start_time": 22.6159091,
                "end_time": 22.7090909,
                "pitch": 82,
                "velocity": 64,
                "duration": 0.0931818,
                "tempo": 120.0
            },
            {
                "start_time": 22.725,
                "end_time": 22.8204545,
                "pitch": 84,
                "velocity": 64,
                "duration": 0.0954545,
                "tempo": 120.0
            },
            {
                "start_time": 22.8363636,
                "end_time": 22.9363636,
                "pitch": 82,
                "velocity": 64,
                "duration": 0.1,
                "tempo": 120.0
            },
            {
                "start_time": 22.9704545,
                "end_time": 23.0704545,
                "pitch": 81,
                "velocity": 64,
                "duration": 0.1,
                "tempo": 120.0
            },
            {
                "start_time": 23.0863636,
                "end_time": 23.1863636,
                "pitch": 77,
                "velocity": 64,
                "duration": 0.1,
                "tempo": 120.0
            },
            {
                "start_time": 23.2045455,
                "end_time": 23.3045455,
                "pitch": 79,
                "velocity": 64,
                "duration": 0.1,
                "tempo": 120.0
            },
            {
                "start_time": 23.3204545,
                "end_time": 23.4204545,
                "pitch": 81,
                "velocity": 64,
                "duration": 0.1,
                "tempo": 120.0
            },
            {
                "start_time": 23.4545455,
                "end_time": 23.5545455,
                "pitch": 82,
                "velocity": 64,
                "duration": 0.1,
                "tempo": 120.0
            },
            {
                "start_time": 23.5727273,
                "end_time": 23.6681818,
                "pitch": 86,
                "velocity": 64,
                "duration": 0.0954545,
                "tempo": 120.0
            },
            {
                "start_time": 23.6863636,
                "end_time": 23.7840909,
                "pitch": 84,
                "velocity": 64,
                "duration": 0.0977273,
                "tempo": 120.0
            },
            {
                "start_time": 23.8,
                "end_time": 23.9136364,
                "pitch": 82,
                "velocity": 64,
                "duration": 0.1136364,
                "tempo": 120.0
            },
            {
                "start_time": 23.9295455,
                "end_time": 24.0295455,
                "pitch": 81,
                "velocity": 64,
                "duration": 0.1,
                "tempo": 120.0
            },
            {
                "start_time": 24.0477273,
                "end_time": 24.1477273,
                "pitch": 82,
                "velocity": 64,
                "duration": 0.1,
                "tempo": 120.0
            },
            {
                "start_time": 24.1636364,
                "end_time": 24.2636364,
                "pitch": 84,
                "velocity": 64,
                "duration": 0.1,
                "tempo": 120.0
            },
            {
                "start_time": 24.2977273,
                "end_time": 24.3977273,
                "pitch": 82,
                "velocity": 64,
                "duration": 0.1,
                "tempo": 120.0
            },
            {
                "start_time": 24.4136364,
                "end_time": 24.5136364,
                "pitch": 81,
                "velocity": 64,
                "duration": 0.1,
                "tempo": 120.0
            },
            {
                "start_time": 24.5318182,
                "end_time": 24.6318182,
                "pitch": 77,
                "velocity": 64,
                "duration": 0.1,
                "tempo": 120.0
            },
            {
                "start_time": 24.65,
                "end_time": 24.7590909,
                "pitch": 75,
                "velocity": 64,
                "duration": 0.1090909,
                "tempo": 120.0
            },
            {
                "start_time": 24.775,
                "end_time": 24.8704545,
                "pitch": 79,
                "velocity": 64,
                "duration": 0.0954545,
                "tempo": 120.0
            },
            {
                "start_time": 24.8863636,
                "end_time": 24.9795455,
                "pitch": 82,
                "velocity": 64,
                "duration": 0.0931818,
                "tempo": 120.0
            },
            {
                "start_time": 24.9954545,
                "end_time": 25.0954545,
                "pitch": 81,
                "velocity": 64,
                "duration": 0.1,
                "tempo": 120.0
            },
            {
                "start_time": 25.1295455,
                "end_time": 25.2295455,
                "pitch": 77,
                "velocity": 64,
                "duration": 0.1,
                "tempo": 120.0
            },
            {
                "start_time": 25.2477273,
                "end_time": 25.3454545,
                "pitch": 72,
                "velocity": 64,
                "duration": 0.0977273,
                "tempo": 120.0
            },
            {
                "start_time": 25.3636364,
                "end_time": 25.4613636,
                "pitch": 79,
                "velocity": 64,
                "duration": 0.0977273,
                "tempo": 120.0
            },
            {
                "start_time": 25.4772727,
                "end_time": 25.575,
                "pitch": 75,
                "velocity": 64,
                "duration": 0.0977273,
                "tempo": 120.0
            },
            {
                "start_time": 25.6090909,
                "end_time": 25.7045455,
                "pitch": 70,
                "velocity": 64,
                "duration": 0.0954545,
                "tempo": 120.0
            },
            {
                "start_time": 25.7227273,
                "end_time": 25.8227273,
                "pitch": 79,
                "velocity": 64,
                "duration": 0.1,
                "tempo": 120.0
            },
            {
                "start_time": 25.8386364,
                "end_time": 25.9386364,
                "pitch": 81,
                "velocity": 64,
                "duration": 0.1,
                "tempo": 120.0
            },
            {
                "start_time": 25.9727273,
                "end_time": 26.0727273,
                "pitch": 82,
                "velocity": 64,
                "duration": 0.1,
                "tempo": 120.0
            },
            {
                "start_time": 26.0909091,
                "end_time": 26.1886364,
                "pitch": 75,
                "velocity": 64,
                "duration": 0.0977273,
                "tempo": 120.0
            },
            {
                "start_time": 26.2068182,
                "end_time": 26.3068182,
                "pitch": 79,
                "velocity": 64,
                "duration": 0.1,
                "tempo": 120.0
            },
            {
                "start_time": 26.3227273,
                "end_time": 26.4227273,
                "pitch": 82,
                "velocity": 64,
                "duration": 0.1,
                "tempo": 120.0
            },
            {
                "start_time": 26.4568182,
                "end_time": 26.5545455,
                "pitch": 81,
                "velocity": 64,
                "duration": 0.0977273,
                "tempo": 120.0
            },
            {
                "start_time": 26.5704545,
                "end_time": 26.6681818,
                "pitch": 77,
                "velocity": 64,
                "duration": 0.0977273,
                "tempo": 120.0
            },
            {
                "start_time": 26.6863636,
                "end_time": 26.7818182,
                "pitch": 72,
                "velocity": 64,
                "duration": 0.0954545,
                "tempo": 120.0
            },
            {
                "start_time": 26.8,
                "end_time": 26.9136364,
                "pitch": 79,
                "velocity": 64,
                "duration": 0.1136364,
                "tempo": 120.0
            },
            {
                "start_time": 26.9295455,
                "end_time": 27.0272727,
                "pitch": 75,
                "velocity": 64,
                "duration": 0.0977273,
                "tempo": 120.0
            },
            {
                "start_time": 27.0431818,
                "end_time": 27.1409091,
                "pitch": 70,
                "velocity": 64,
                "duration": 0.0977273,
                "tempo": 120.0
            },
            {
                "start_time": 27.1590909,
                "end_time": 27.2568182,
                "pitch": 79,
                "velocity": 64,
                "duration": 0.0977273,
                "tempo": 120.0
            },
            {
                "start_time": 27.2909091,
                "end_time": 27.3909091,
                "pitch": 81,
                "velocity": 64,
                "duration": 0.1,
                "tempo": 120.0
            },
            {
                "start_time": 27.4068182,
                "end_time": 27.5090909,
                "pitch": 82,
                "velocity": 64,
                "duration": 0.1022727,
                "tempo": 120.0
            },
            {
                "start_time": 27.525,
                "end_time": 27.6227273,
                "pitch": 79,
                "velocity": 64,
                "duration": 0.0977273,
                "tempo": 120.0
            },
            {
                "start_time": 27.6386364,
                "end_time": 27.7522727,
                "pitch": 81,
                "velocity": 64,
                "duration": 0.1136364,
                "tempo": 120.0
            },
            {
                "start_time": 27.7704545,
                "end_time": 27.8681818,
                "pitch": 82,
                "velocity": 64,
                "duration": 0.0977273,
                "tempo": 120.0
            },
            {
                "start_time": 27.8840909,
                "end_time": 27.9840909,
                "pitch": 86,
                "velocity": 64,
                "duration": 0.1,
                "tempo": 120.0
            },
            {
                "start_time": 28.0,
                "end_time": 28.1,
                "pitch": 84,
                "velocity": 64,
                "duration": 0.1,
                "tempo": 120.0
            },
            {
                "start_time": 28.1340909,
                "end_time": 28.2340909,
                "pitch": 82,
                "velocity": 64,
                "duration": 0.1,
                "tempo": 120.0
            },
            {
                "start_time": 28.2522727,
                "end_time": 28.3477273,
                "pitch": 81,
                "velocity": 64,
                "duration": 0.0954545,
                "tempo": 120.0
            },
            {
                "start_time": 28.3659091,
                "end_time": 28.4636364,
                "pitch": 82,
                "velocity": 64,
                "duration": 0.0977273,
                "tempo": 120.0
            },
            {
                "start_time": 28.4795455,
                "end_time": 28.5772727,
                "pitch": 84,
                "velocity": 64,
                "duration": 0.0977273,
                "tempo": 120.0
            },
            {
                "start_time": 28.6090909,
                "end_time": 28.7090909,
                "pitch": 82,
                "velocity": 64,
                "duration": 0.1,
                "tempo": 120.0
            },
            {
                "start_time": 28.7272727,
                "end_time": 28.8272727,
                "pitch": 81,
                "velocity": 64,
                "duration": 0.1,
                "tempo": 120.0
            },
            {
                "start_time": 28.8431818,
                "end_time": 28.9431818,
                "pitch": 77,
                "velocity": 64,
                "duration": 0.1,
                "tempo": 120.0
            },
            {
                "start_time": 28.9772727,
                "end_time": 29.0772727,
                "pitch": 79,
                "velocity": 64,
                "duration": 0.1,
                "tempo": 120.0
            },
            {
                "start_time": 29.0931818,
                "end_time": 29.1931818,
                "pitch": 81,
                "velocity": 64,
                "duration": 0.1,
                "tempo": 120.0
            },
            {
                "start_time": 29.2113636,
                "end_time": 29.3113636,
                "pitch": 82,
                "velocity": 64,
                "duration": 0.1,
                "tempo": 120.0
            },
            {
                "start_time": 29.3272727,
                "end_time": 29.4227273,
                "pitch": 86,
                "velocity": 64,
                "duration": 0.0954545,
                "tempo": 120.0
            },
            {
                "start_time": 29.4545455,
                "end_time": 29.55,
                "pitch": 84,
                "velocity": 64,
                "duration": 0.0954545,
                "tempo": 120.0
            },
            {
                "start_time": 29.5659091,
                "end_time": 29.6590909,
                "pitch": 82,
                "velocity": 64,
                "duration": 0.0931818,
                "tempo": 120.0
            },
            {
                "start_time": 29.675,
                "end_time": 29.775,
                "pitch": 81,
                "velocity": 64,
                "duration": 0.1,
                "tempo": 120.0
            },
            {
                "start_time": 29.7931818,
                "end_time": 29.9090909,
                "pitch": 82,
                "velocity": 64,
                "duration": 0.1159091,
                "tempo": 120.0
            },
            {
                "start_time": 29.925,
                "end_time": 30.025,
                "pitch": 84,
                "velocity": 64,
                "duration": 0.1,
                "tempo": 120.0
            },
            {
                "start_time": 30.0431818,
                "end_time": 30.1431818,
                "pitch": 82,
                "velocity": 64,
                "duration": 0.1,
                "tempo": 120.0
            },
            {
                "start_time": 30.1590909,
                "end_time": 30.2590909,
                "pitch": 81,
                "velocity": 64,
                "duration": 0.1,
                "tempo": 120.0
            },
            {
                "start_time": 30.2931818,
                "end_time": 30.3931818,
                "pitch": 77,
                "velocity": 64,
                "duration": 0.1,
                "tempo": 120.0
            },
            {
                "start_time": 30.4113636,
                "end_time": 30.5090909,
                "pitch": 75,
                "velocity": 64,
                "duration": 0.0977273,
                "tempo": 120.0
            },
            {
                "start_time": 30.525,
                "end_time": 30.6227273,
                "pitch": 79,
                "velocity": 64,
                "duration": 0.0977273,
                "tempo": 120.0
            },
            {
                "start_time": 30.6386364,
                "end_time": 30.7363636,
                "pitch": 82,
                "velocity": 64,
                "duration": 0.0977273,
                "tempo": 120.0
            },
            {
                "start_time": 30.7681818,
                "end_time": 30.8659091,
                "pitch": 81,
                "velocity": 64,
                "duration": 0.0977273,
                "tempo": 120.0
            },
            {
                "start_time": 30.8840909,
                "end_time": 30.9818182,
                "pitch": 77,
                "velocity": 64,
                "duration": 0.0977273,
                "tempo": 120.0
            },
            {
                "start_time": 30.9977273,
                "end_time": 31.0954545,
                "pitch": 72,
                "velocity": 64,
                "duration": 0.0977273,
                "tempo": 120.0
            },
            {
                "start_time": 31.1272727,
                "end_time": 31.2272727,
                "pitch": 79,
                "velocity": 64,
                "duration": 0.1,
                "tempo": 120.0
            },
            {
                "start_time": 31.2454545,
                "end_time": 31.3454545,
                "pitch": 75,
                "velocity": 64,
                "duration": 0.1,
                "tempo": 120.0
            },
            {
                "start_time": 31.3613636,
                "end_time": 31.4613636,
                "pitch": 70,
                "velocity": 64,
                "duration": 0.1,
                "tempo": 120.0
            },
            {
                "start_time": 31.4795455,
                "end_time": 31.575,
                "pitch": 79,
                "velocity": 64,
                "duration": 0.0954545,
                "tempo": 120.0
            },
            {
                "start_time": 31.6090909,
                "end_time": 31.7068182,
                "pitch": 81,
                "velocity": 64,
                "duration": 0.0977273,
                "tempo": 120.0
            },
            {
                "start_time": 31.7227273,
                "end_time": 31.8204545,
                "pitch": 82,
                "velocity": 64,
                "duration": 0.0977273,
                "tempo": 120.0
            },
            {
                "start_time": 31.8386364,
                "end_time": 31.9340909,
                "pitch": 75,
                "velocity": 64,
                "duration": 0.0954545,
                "tempo": 120.0
            },
            {
                "start_time": 31.9681818,
                "end_time": 32.0659091,
                "pitch": 79,
                "velocity": 64,
                "duration": 0.0977273,
                "tempo": 120.0
            },
            {
                "start_time": 32.0818182,
                "end_time": 32.1795455,
                "pitch": 82,
                "velocity": 64,
                "duration": 0.0977273,
                "tempo": 120.0
            },
            {
                "start_time": 32.1954545,
                "end_time": 32.2954545,
                "pitch": 81,
                "velocity": 64,
                "duration": 0.1,
                "tempo": 120.0
            },
            {
                "start_time": 32.3113636,
                "end_time": 32.4136364,
                "pitch": 77,
                "velocity": 64,
                "duration": 0.1022727,
                "tempo": 120.0
            },
            {
                "start_time": 32.4477273,
                "end_time": 32.5454545,
                "pitch": 72,
                "velocity": 64,
                "duration": 0.0977273,
                "tempo": 120.0
            },
            {
                "start_time": 32.5636364,
                "end_time": 32.6636364,
                "pitch": 79,
                "velocity": 64,
                "duration": 0.1,
                "tempo": 120.0
            },
            {
                "start_time": 32.6795455,
                "end_time": 32.7795455,
                "pitch": 75,
                "velocity": 64,
                "duration": 0.1,
                "tempo": 120.0
            },
            {
                "start_time": 32.7977273,
                "end_time": 32.9136364,
                "pitch": 70,
                "velocity": 64,
                "duration": 0.1159091,
                "tempo": 120.0
            },
            {
                "start_time": 32.9318182,
                "end_time": 33.0295455,
                "pitch": 79,
                "velocity": 64,
                "duration": 0.0977273,
                "tempo": 120.0
            },
            {
                "start_time": 33.0477273,
                "end_time": 33.1477273,
                "pitch": 81,
                "velocity": 64,
                "duration": 0.1,
                "tempo": 120.0
            },
            {
                "start_time": 33.1636364,
                "end_time": 33.2636364,
                "pitch": 82,
                "velocity": 64,
                "duration": 0.1,
                "tempo": 120.0
            },
            {
                "start_time": 33.2977273,
                "end_time": 33.3954545,
                "pitch": 74,
                "velocity": 64,
                "duration": 0.0977273,
                "tempo": 120.0
            },
            {
                "start_time": 33.4136364,
                "end_time": 33.5090909,
                "pitch": 78,
                "velocity": 64,
                "duration": 0.0954545,
                "tempo": 120.0
            },
            {
                "start_time": 33.5272727,
                "end_time": 33.625,
                "pitch": 81,
                "velocity": 64,
                "duration": 0.0977273,
                "tempo": 120.0
            },
            {
                "start_time": 33.6409091,
                "end_time": 33.7363636,
                "pitch": 74,
                "velocity": 64,
                "duration": 0.0954545,
                "tempo": 120.0
            },
            {
                "start_time": 33.7681818,
                "end_time": 33.8613636,
                "pitch": 78,
                "velocity": 64,
                "duration": 0.0931818,
                "tempo": 120.0
            },
            {
                "start_time": 33.8772727,
                "end_time": 33.9727273,
                "pitch": 81,
                "velocity": 64,
                "duration": 0.0954545,
                "tempo": 120.0
            },
            {
                "start_time": 33.9886364,
                "end_time": 34.0886364,
                "pitch": 84,
                "velocity": 64,
                "duration": 0.1,
                "tempo": 120.0
            },
            {
                "start_time": 34.1227273,
                "end_time": 34.2227273,
                "pitch": 81,
                "velocity": 64,
                "duration": 0.1,
                "tempo": 120.0
            },
            {
                "start_time": 34.2386364,
                "end_time": 34.3386364,
                "pitch": 78,
                "velocity": 64,
                "duration": 0.1,
                "tempo": 120.0
            },
            {
                "start_time": 34.3568182,
                "end_time": 34.4568182,
                "pitch": 74,
                "velocity": 64,
                "duration": 0.1,
                "tempo": 120.0
            },
            {
                "start_time": 34.4727273,
                "end_time": 34.5727273,
                "pitch": 78,
                "velocity": 64,
                "duration": 0.1,
                "tempo": 120.0
            },
            {
                "start_time": 34.6068182,
                "end_time": 34.7068182,
                "pitch": 81,
                "velocity": 64,
                "duration": 0.1,
                "tempo": 120.0
            },
            {
                "start_time": 34.7227273,
                "end_time": 34.8204545,
                "pitch": 74,
                "velocity": 64,
                "duration": 0.0977273,
                "tempo": 120.0
            },
            {
                "start_time": 34.8363636,
                "end_time": 34.9340909,
                "pitch": 78,
                "velocity": 64,
                "duration": 0.0977273,
                "tempo": 120.0
            },
            {
                "start_time": 34.9522727,
                "end_time": 35.0659091,
                "pitch": 81,
                "velocity": 64,
                "duration": 0.1136364,
                "tempo": 120.0
            },
            {
                "start_time": 35.0818182,
                "end_time": 35.1818182,
                "pitch": 74,
                "velocity": 64,
                "duration": 0.1,
                "tempo": 120.0
            },
            {
                "start_time": 35.1977273,
                "end_time": 35.2977273,
                "pitch": 78,
                "velocity": 64,
                "duration": 0.1,
                "tempo": 120.0
            },
            {
                "start_time": 35.3159091,
                "end_time": 35.4159091,
                "pitch": 81,
                "velocity": 64,
                "duration": 0.1,
                "tempo": 120.0
            },
            {
                "start_time": 35.45,
                "end_time": 35.55,
                "pitch": 74,
                "velocity": 64,
                "duration": 0.1,
                "tempo": 120.0
            },
            {
                "start_time": 35.5659091,
                "end_time": 35.6659091,
                "pitch": 76,
                "velocity": 64,
                "duration": 0.1,
                "tempo": 120.0
            },
            {
                "start_time": 35.6818182,
                "end_time": 35.7818182,
                "pitch": 78,
                "velocity": 64,
                "duration": 0.1,
                "tempo": 120.0
            },
            {
                "start_time": 35.8,
                "end_time": 35.9113636,
                "pitch": 79,
                "velocity": 64,
                "duration": 0.1113636,
                "tempo": 120.0
            },
            {
                "start_time": 35.9272727,
                "end_time": 36.0204545,
                "pitch": 81,
                "velocity": 64,
                "duration": 0.0931818,
                "tempo": 120.0
            },
            {
                "start_time": 36.0386364,
                "end_time": 36.1318182,
                "pitch": 86,
                "velocity": 64,
                "duration": 0.0931818,
                "tempo": 120.0
            },
            {
                "start_time": 36.15,
                "end_time": 36.2477273,
                "pitch": 79,
                "velocity": 64,
                "duration": 0.0977273,
                "tempo": 120.0
            },
            {
                "start_time": 36.2818182,
                "end_time": 36.3818182,
                "pitch": 81,
                "velocity": 64,
                "duration": 0.1,
                "tempo": 120.0
            },
            {
                "start_time": 36.3977273,
                "end_time": 36.4977273,
                "pitch": 82,
                "velocity": 64,
                "duration": 0.1,
                "tempo": 120.0
            },
            {
                "start_time": 36.5159091,
                "end_time": 36.6136364,
                "pitch": 86,
                "velocity": 64,
                "duration": 0.0977273,
                "tempo": 120.0
            },
            {
                "start_time": 36.6295455,
                "end_time": 36.7272727,
                "pitch": 84,
                "velocity": 64,
                "duration": 0.0977273,
                "tempo": 120.0
            },
            {
                "start_time": 36.7590909,
                "end_time": 36.8568182,
                "pitch": 82,
                "velocity": 64,
                "duration": 0.0977273,
                "tempo": 120.0
            },
            {
                "start_time": 36.875,
                "end_time": 36.9727273,
                "pitch": 81,
                "velocity": 64,
                "duration": 0.0977273,
                "tempo": 120.0
            },
            {
                "start_time": 36.9909091,
                "end_time": 37.0909091,
                "pitch": 82,
                "velocity": 64,
                "duration": 0.1,
                "tempo": 120.0
            },
            {
                "start_time": 37.125,
                "end_time": 37.225,
                "pitch": 84,
                "velocity": 64,
                "duration": 0.1,
                "tempo": 120.0
            },
            {
                "start_time": 37.2409091,
                "end_time": 37.3409091,
                "pitch": 82,
                "velocity": 64,
                "duration": 0.1,
                "tempo": 120.0
            },
            {
                "start_time": 37.3590909,
                "end_time": 37.4590909,
                "pitch": 81,
                "velocity": 64,
                "duration": 0.1,
                "tempo": 120.0
            },
            {
                "start_time": 37.475,
                "end_time": 37.575,
                "pitch": 77,
                "velocity": 64,
                "duration": 0.1,
                "tempo": 120.0
            },
            {
                "start_time": 37.6090909,
                "end_time": 37.7068182,
                "pitch": 79,
                "velocity": 64,
                "duration": 0.0977273,
                "tempo": 120.0
            },
            {
                "start_time": 37.7227273,
                "end_time": 37.8204545,
                "pitch": 81,
                "velocity": 64,
                "duration": 0.0977273,
                "tempo": 120.0
            },
            {
                "start_time": 37.8363636,
                "end_time": 37.9340909,
                "pitch": 82,
                "velocity": 64,
                "duration": 0.0977273,
                "tempo": 120.0
            },
            {
                "start_time": 37.95,
                "end_time": 38.0613636,
                "pitch": 86,
                "velocity": 64,
                "duration": 0.1113636,
                "tempo": 120.0
            },
            {
                "start_time": 38.0772727,
                "end_time": 38.1727273,
                "pitch": 84,
                "velocity": 64,
                "duration": 0.0954545,
                "tempo": 120.0
            },
            {
                "start_time": 38.1886364,
                "end_time": 38.2840909,
                "pitch": 82,
                "velocity": 64,
                "duration": 0.0954545,
                "tempo": 120.0
            },
            {
                "start_time": 38.3,
                "end_time": 38.3977273,
                "pitch": 81,
                "velocity": 64,
                "duration": 0.0977273,
                "tempo": 120.0
            },
            {
                "start_time": 38.4318182,
                "end_time": 38.5318182,
                "pitch": 82,
                "velocity": 64,
                "duration": 0.1,
                "tempo": 120.0
            },
            {
                "start_time": 38.55,
                "end_time": 38.65,
                "pitch": 84,
                "velocity": 64,
                "duration": 0.1,
                "tempo": 120.0
            },
            {
                "start_time": 38.6659091,
                "end_time": 38.7659091,
                "pitch": 82,
                "velocity": 64,
                "duration": 0.1,
                "tempo": 120.0
            },
            {
                "start_time": 38.7840909,
                "end_time": 38.9,
                "pitch": 81,
                "velocity": 64,
                "duration": 0.1159091,
                "tempo": 120.0
            },
            {
                "start_time": 38.9159091,
                "end_time": 39.0159091,
                "pitch": 77,
                "velocity": 64,
                "duration": 0.1,
                "tempo": 120.0
            },
            {
                "start_time": 39.0340909,
                "end_time": 39.1340909,
                "pitch": 79,
                "velocity": 64,
                "duration": 0.1,
                "tempo": 120.0
            },
            {
                "start_time": 39.15,
                "end_time": 39.25,
                "pitch": 81,
                "velocity": 64,
                "duration": 0.1,
                "tempo": 120.0
            },
            {
                "start_time": 39.2840909,
                "end_time": 39.3840909,
                "pitch": 82,
                "velocity": 64,
                "duration": 0.1,
                "tempo": 120.0
            },
            {
                "start_time": 39.4022727,
                "end_time": 39.5,
                "pitch": 86,
                "velocity": 64,
                "duration": 0.0977273,
                "tempo": 120.0
            },
            {
                "start_time": 39.5159091,
                "end_time": 39.6136364,
                "pitch": 84,
                "velocity": 64,
                "duration": 0.0977273,
                "tempo": 120.0
            },
            {
                "start_time": 39.6295455,
                "end_time": 39.7272727,
                "pitch": 82,
                "velocity": 64,
                "duration": 0.0977273,
                "tempo": 120.0
            },
            {
                "start_time": 39.7590909,
                "end_time": 39.8590909,
                "pitch": 81,
                "velocity": 64,
                "duration": 0.1,
                "tempo": 120.0
            },
            {
                "start_time": 39.8772727,
                "end_time": 39.9772727,
                "pitch": 82,
                "velocity": 64,
                "duration": 0.1,
                "tempo": 120.0
            },
            {
                "start_time": 39.9931818,
                "end_time": 40.0931818,
                "pitch": 84,
                "velocity": 64,
                "duration": 0.1,
                "tempo": 120.0
            },
            {
                "start_time": 40.1272727,
                "end_time": 40.2272727,
                "pitch": 82,
                "velocity": 64,
                "duration": 0.1,
                "tempo": 120.0
            },
            {
                "start_time": 40.2454545,
                "end_time": 40.3431818,
                "pitch": 81,
                "velocity": 64,
                "duration": 0.0977273,
                "tempo": 120.0
            },
            {
                "start_time": 40.3613636,
                "end_time": 40.4613636,
                "pitch": 77,
                "velocity": 64,
                "duration": 0.1,
                "tempo": 120.0
            },
            {
                "start_time": 40.4772727,
                "end_time": 40.5727273,
                "pitch": 79,
                "velocity": 64,
                "duration": 0.0954545,
                "tempo": 120.0
            },
            {
                "start_time": 40.6045455,
                "end_time": 40.7,
                "pitch": 81,
                "velocity": 64,
                "duration": 0.0954545,
                "tempo": 120.0
            },
            {
                "start_time": 40.7159091,
                "end_time": 40.8113636,
                "pitch": 82,
                "velocity": 64,
                "duration": 0.0954545,
                "tempo": 120.0
            },
            {
                "start_time": 40.8272727,
                "end_time": 40.9227273,
                "pitch": 86,
                "velocity": 64,
                "duration": 0.0954545,
                "tempo": 120.0
            },
            {
                "start_time": 40.9409091,
                "end_time": 41.0545455,
                "pitch": 84,
                "velocity": 64,
                "duration": 0.1136364,
                "tempo": 120.0
            },
            {
                "start_time": 41.0704545,
                "end_time": 41.1681818,
                "pitch": 82,
                "velocity": 64,
                "duration": 0.0977273,
                "tempo": 120.0
            },
            {
                "start_time": 41.1863636,
                "end_time": 41.2840909,
                "pitch": 81,
                "velocity": 64,
                "duration": 0.0977273,
                "tempo": 120.0
            },
            {
                "start_time": 41.3022727,
                "end_time": 41.4022727,
                "pitch": 82,
                "velocity": 64,
                "duration": 0.1,
                "tempo": 120.0
            },
            {
                "start_time": 41.4363636,
                "end_time": 41.5363636,
                "pitch": 84,
                "velocity": 64,
                "duration": 0.1,
                "tempo": 120.0
            },
            {
                "start_time": 41.5522727,
                "end_time": 41.6522727,
                "pitch": 82,
                "velocity": 64,
                "duration": 0.1,
                "tempo": 120.0
            },
            {
                "start_time": 41.6704545,
                "end_time": 41.7681818,
                "pitch": 81,
                "velocity": 64,
                "duration": 0.0977273,
                "tempo": 120.0
            },
            {
                "start_time": 41.7863636,
                "end_time": 41.8863636,
                "pitch": 77,
                "velocity": 64,
                "duration": 0.1,
                "tempo": 120.0
            },
            {
                "start_time": 41.9204545,
                "end_time": 42.0204545,
                "pitch": 79,
                "velocity": 64,
                "duration": 0.1,
                "tempo": 120.0
            },
            {
                "start_time": 42.0363636,
                "end_time": 42.1363636,
                "pitch": 81,
                "velocity": 64,
                "duration": 0.1,
                "tempo": 120.0
            },
            {
                "start_time": 42.1545455,
                "end_time": 42.2545455,
                "pitch": 82,
                "velocity": 64,
                "duration": 0.1,
                "tempo": 120.0
            },
            {
                "start_time": 42.2886364,
                "end_time": 42.3840909,
                "pitch": 86,
                "velocity": 64,
                "duration": 0.0954545,
                "tempo": 120.0
            },
            {
                "start_time": 42.4022727,
                "end_time": 42.5,
                "pitch": 84,
                "velocity": 64,
                "duration": 0.0977273,
                "tempo": 120.0
            },
            {
                "start_time": 42.5159091,
                "end_time": 42.6136364,
                "pitch": 82,
                "velocity": 64,
                "duration": 0.0977273,
                "tempo": 120.0
            },
            {
                "start_time": 42.6295455,
                "end_time": 42.725,
                "pitch": 81,
                "velocity": 64,
                "duration": 0.0954545,
                "tempo": 120.0
            },
            {
                "start_time": 42.7568182,
                "end_time": 42.85,
                "pitch": 82,
                "velocity": 64,
                "duration": 0.0931818,
                "tempo": 120.0
            },
            {
                "start_time": 42.8681818,
                "end_time": 42.9613636,
                "pitch": 84,
                "velocity": 64,
                "duration": 0.0931818,
                "tempo": 120.0
            },
            {
                "start_time": 42.9772727,
                "end_time": 43.0772727,
                "pitch": 82,
                "velocity": 64,
                "duration": 0.1,
                "tempo": 120.0
            },
            {
                "start_time": 43.1113636,
                "end_time": 43.2113636,
                "pitch": 81,
                "velocity": 64,
                "duration": 0.1,
                "tempo": 120.0
            },
            {
                "start_time": 43.2272727,
                "end_time": 43.3272727,
                "pitch": 77,
                "velocity": 64,
                "duration": 0.1,
                "tempo": 120.0
            },
            {
                "start_time": 43.3454545,
                "end_time": 43.4454545,
                "pitch": 79,
                "velocity": 64,
                "duration": 0.1,
                "tempo": 120.0
            },
            {
                "start_time": 43.4613636,
                "end_time": 43.5613636,
                "pitch": 81,
                "velocity": 64,
                "duration": 0.1,
                "tempo": 120.0
            },
            {
                "start_time": 43.5954545,
                "end_time": 43.6954545,
                "pitch": 82,
                "velocity": 64,
                "duration": 0.1,
                "tempo": 120.0
            },
            {
                "start_time": 43.7113636,
                "end_time": 43.8090909,
                "pitch": 86,
                "velocity": 64,
                "duration": 0.0977273,
                "tempo": 120.0
            },
            {
                "start_time": 43.8272727,
                "end_time": 43.925,
                "pitch": 84,
                "velocity": 64,
                "duration": 0.0977273,
                "tempo": 120.0
            },
            {
                "start_time": 43.9409091,
                "end_time": 44.0545455,
                "pitch": 82,
                "velocity": 64,
                "duration": 0.1136364,
                "tempo": 120.0
            },
            {
                "start_time": 44.0704545,
                "end_time": 44.1704545,
                "pitch": 81,
                "velocity": 64,
                "duration": 0.1,
                "tempo": 120.0
            },
            {
                "start_time": 44.1886364,
                "end_time": 44.2886364,
                "pitch": 82,
                "velocity": 64,
                "duration": 0.1,
                "tempo": 120.0
            },
            {
                "start_time": 44.3045455,
                "end_time": 44.4045455,
                "pitch": 84,
                "velocity": 64,
                "duration": 0.1,
                "tempo": 120.0
            },
            {
                "start_time": 44.4386364,
                "end_time": 44.5386364,
                "pitch": 82,
                "velocity": 64,
                "duration": 0.1,
                "tempo": 120.0
            },
            {
                "start_time": 44.5545455,
                "end_time": 44.6545455,
                "pitch": 81,
                "velocity": 64,
                "duration": 0.1,
                "tempo": 120.0
            },
            {
                "start_time": 44.6727273,
                "end_time": 44.7727273,
                "pitch": 77,
                "velocity": 64,
                "duration": 0.1,
                "tempo": 120.0
            },
            {
                "start_time": 44.7909091,
                "end_time": 44.8840909,
                "pitch": 79,
                "velocity": 64,
                "duration": 0.0931818,
                "tempo": 120.0
            },
            {
                "start_time": 44.9159091,
                "end_time": 45.0113636,
                "pitch": 81,
                "velocity": 64,
                "duration": 0.0954545,
                "tempo": 120.0
            },
            {
                "start_time": 45.0272727,
                "end_time": 45.1204545,
                "pitch": 82,
                "velocity": 64,
                "duration": 0.0931818,
                "tempo": 120.0
            },
            {
                "start_time": 45.1386364,
                "end_time": 45.2363636,
                "pitch": 86,
                "velocity": 64,
                "duration": 0.0977273,
                "tempo": 120.0
            },
            {
                "start_time": 45.2704545,
                "end_time": 45.3704545,
                "pitch": 84,
                "velocity": 64,
                "duration": 0.1,
                "tempo": 120.0
            },
            {
                "start_time": 45.3886364,
                "end_time": 45.4886364,
                "pitch": 82,
                "velocity": 64,
                "duration": 0.1,
                "tempo": 120.0
            },
            {
                "start_time": 45.5045455,
                "end_time": 45.6022727,
                "pitch": 81,
                "velocity": 64,
                "duration": 0.0977273,
                "tempo": 120.0
            },
            {
                "start_time": 45.6181818,
                "end_time": 45.7159091,
                "pitch": 82,
                "velocity": 64,
                "duration": 0.0977273,
                "tempo": 120.0
            },
            {
                "start_time": 45.75,
                "end_time": 45.8454545,
                "pitch": 84,
                "velocity": 64,
                "duration": 0.0954545,
                "tempo": 120.0
            },
            {
                "start_time": 45.8636364,
                "end_time": 45.9636364,
                "pitch": 82,
                "velocity": 64,
                "duration": 0.1,
                "tempo": 120.0
            },
            {
                "start_time": 45.9795455,
                "end_time": 46.0795455,
                "pitch": 81,
                "velocity": 64,
                "duration": 0.1,
                "tempo": 120.0
            },
            {
                "start_time": 46.0977273,
                "end_time": 46.2136364,
                "pitch": 77,
                "velocity": 64,
                "duration": 0.1159091,
                "tempo": 120.0
            },
            {
                "start_time": 46.2295455,
                "end_time": 46.3295455,
                "pitch": 79,
                "velocity": 64,
                "duration": 0.1,
                "tempo": 120.0
            },
            {
                "start_time": 46.3477273,
                "end_time": 46.4477273,
                "pitch": 81,
                "velocity": 64,
                "duration": 0.1,
                "tempo": 120.0
            },
            {
                "start_time": 46.4636364,
                "end_time": 46.5636364,
                "pitch": 82,
                "velocity": 64,
                "duration": 0.1,
                "tempo": 120.0
            },
            {
                "start_time": 46.5977273,
                "end_time": 46.6954545,
                "pitch": 86,
                "velocity": 64,
                "duration": 0.0977273,
                "tempo": 120.0
            },
            {
                "start_time": 46.7113636,
                "end_time": 46.8090909,
                "pitch": 84,
                "velocity": 64,
                "duration": 0.0977273,
                "tempo": 120.0
            },
            {
                "start_time": 46.8272727,
                "end_time": 46.9227273,
                "pitch": 82,
                "velocity": 64,
                "duration": 0.0954545,
                "tempo": 120.0
            },
            {
                "start_time": 46.9409091,
                "end_time": 47.0545455,
                "pitch": 81,
                "velocity": 64,
                "duration": 0.1136364,
                "tempo": 120.0
            },
            {
                "start_time": 47.0704545,
                "end_time": 47.1681818,
                "pitch": 82,
                "velocity": 64,
                "duration": 0.0977273,
                "tempo": 120.0
            },
            {
                "start_time": 47.1840909,
                "end_time": 47.2818182,
                "pitch": 84,
                "velocity": 64,
                "duration": 0.0977273,
                "tempo": 120.0
            },
            {
                "start_time": 47.3,
                "end_time": 47.3977273,
                "pitch": 82,
                "velocity": 64,
                "duration": 0.0977273,
                "tempo": 120.0
            },
            {
                "start_time": 47.4318182,
                "end_time": 47.5318182,
                "pitch": 81,
                "velocity": 64,
                "duration": 0.1,
                "tempo": 120.0
            },
            {
                "start_time": 47.5477273,
                "end_time": 47.65,
                "pitch": 77,
                "velocity": 64,
                "duration": 0.1022727,
                "tempo": 120.0
            },
            {
                "start_time": 47.6659091,
                "end_time": 47.7636364,
                "pitch": 78,
                "velocity": 64,
                "duration": 0.0977273,
                "tempo": 120.0
            },
            {
                "start_time": 47.7795455,
                "end_time": 47.8772727,
                "pitch": 81,
                "velocity": 64,
                "duration": 0.0977273,
                "tempo": 120.0
            },
            {
                "start_time": 47.9113636,
                "end_time": 48.0090909,
                "pitch": 86,
                "velocity": 64,
                "duration": 0.0977273,
                "tempo": 120.0
            },
            {
                "start_time": 48.025,
                "end_time": 48.125,
                "pitch": 84,
                "velocity": 64,
                "duration": 0.1,
                "tempo": 120.0
            },
            {
                "start_time": 48.1409091,
                "end_time": 48.2409091,
                "pitch": 81,
                "velocity": 64,
                "duration": 0.1,
                "tempo": 120.0
            },
            {
                "start_time": 48.275,
                "end_time": 48.375,
                "pitch": 84,
                "velocity": 64,
                "duration": 0.1,
                "tempo": 120.0
            },
            {
                "start_time": 48.3931818,
                "end_time": 48.4886364,
                "pitch": 78,
                "velocity": 64,
                "duration": 0.0954545,
                "tempo": 120.0
            },
            {
                "start_time": 48.5068182,
                "end_time": 48.6045455,
                "pitch": 81,
                "velocity": 64,
                "duration": 0.0977273,
                "tempo": 120.0
            },
            {
                "start_time": 48.6204545,
                "end_time": 48.7181818,
                "pitch": 86,
                "velocity": 64,
                "duration": 0.0977273,
                "tempo": 120.0
            },
            {
                "start_time": 48.75,
                "end_time": 48.85,
                "pitch": 84,
                "velocity": 64,
                "duration": 0.1,
                "tempo": 120.0
            },
            {
                "start_time": 48.8681818,
                "end_time": 48.9681818,
                "pitch": 81,
                "velocity": 64,
                "duration": 0.1,
                "tempo": 120.0
            },
            {
                "start_time": 48.9840909,
                "end_time": 49.0840909,
                "pitch": 84,
                "velocity": 64,
                "duration": 0.1,
                "tempo": 120.0
            },
            {
                "start_time": 49.1022727,
                "end_time": 49.2113636,
                "pitch": 78,
                "velocity": 64,
                "duration": 0.1090909,
                "tempo": 120.0
            },
            {
                "start_time": 49.2272727,
                "end_time": 49.3227273,
                "pitch": 81,
                "velocity": 64,
                "duration": 0.0954545,
                "tempo": 120.0
            },
            {
                "start_time": 49.3386364,
                "end_time": 49.4340909,
                "pitch": 86,
                "velocity": 64,
                "duration": 0.0954545,
                "tempo": 120.0
            },
            {
                "start_time": 49.45,
                "end_time": 49.5477273,
                "pitch": 84,
                "velocity": 64,
                "duration": 0.0977273,
                "tempo": 120.0
            },
            {
                "start_time": 49.5818182,
                "end_time": 49.6818182,
                "pitch": 81,
                "velocity": 64,
                "duration": 0.1,
                "tempo": 120.0
            },
            {
                "start_time": 49.7,
                "end_time": 49.8,
                "pitch": 84,
                "velocity": 64,
                "duration": 0.1,
                "tempo": 120.0
            },
            {
                "start_time": 49.8159091,
                "end_time": 49.9136364,
                "pitch": 78,
                "velocity": 64,
                "duration": 0.0977273,
                "tempo": 120.0
            },
            {
                "start_time": 49.9295455,
                "end_time": 50.0431818,
                "pitch": 81,
                "velocity": 64,
                "duration": 0.1136364,
                "tempo": 120.0
            },
            {
                "start_time": 50.0613636,
                "end_time": 50.1590909,
                "pitch": 86,
                "velocity": 64,
                "duration": 0.0977273,
                "tempo": 120.0
            },
            {
                "start_time": 50.175,
                "end_time": 50.2772727,
                "pitch": 84,
                "velocity": 64,
                "duration": 0.1022727,
                "tempo": 120.0
            },
            {
                "start_time": 50.2954545,
                "end_time": 50.3977273,
                "pitch": 81,
                "velocity": 64,
                "duration": 0.1022727,
                "tempo": 120.0
            },
            {
                "start_time": 50.4318182,
                "end_time": 50.5363636,
                "pitch": 84,
                "velocity": 64,
                "duration": 0.1045455,
                "tempo": 120.0
            },
            {
                "start_time": 50.5545455,
                "end_time": 50.6522727,
                "pitch": 78,
                "velocity": 64,
                "duration": 0.0977273,
                "tempo": 120.0
            },
            {
                "start_time": 50.6681818,
                "end_time": 50.7659091,
                "pitch": 81,
                "velocity": 64,
                "duration": 0.0977273,
                "tempo": 120.0
            },
            {
                "start_time": 50.7818182,
                "end_time": 50.8795455,
                "pitch": 86,
                "velocity": 64,
                "duration": 0.0977273,
                "tempo": 120.0
            },
            {
                "start_time": 50.9136364,
                "end_time": 51.0113636,
                "pitch": 84,
                "velocity": 64,
                "duration": 0.0977273,
                "tempo": 120.0
            },
            {
                "start_time": 51.0295455,
                "end_time": 51.1295455,
                "pitch": 81,
                "velocity": 64,
                "duration": 0.1,
                "tempo": 120.0
            },
            {
                "start_time": 51.1454545,
                "end_time": 51.2454545,
                "pitch": 84,
                "velocity": 64,
                "duration": 0.1,
                "tempo": 120.0
            },
            {
                "start_time": 51.2795455,
                "end_time": 51.3772727,
                "pitch": 78,
                "velocity": 64,
                "duration": 0.0977273,
                "tempo": 120.0
            },
            {
                "start_time": 51.3931818,
                "end_time": 51.4909091,
                "pitch": 81,
                "velocity": 64,
                "duration": 0.0977273,
                "tempo": 120.0
            },
            {
                "start_time": 51.5090909,
                "end_time": 51.6045455,
                "pitch": 86,
                "velocity": 64,
                "duration": 0.0954545,
                "tempo": 120.0
            },
            {
                "start_time": 51.6227273,
                "end_time": 51.7204545,
                "pitch": 84,
                "velocity": 64,
                "duration": 0.0977273,
                "tempo": 120.0
            },
            {
                "start_time": 51.7522727,
                "end_time": 51.85,
                "pitch": 81,
                "velocity": 64,
                "duration": 0.0977273,
                "tempo": 120.0
            },
            {
                "start_time": 51.8659091,
                "end_time": 51.9636364,
                "pitch": 84,
                "velocity": 64,
                "duration": 0.0977273,
                "tempo": 120.0
            },
            {
                "start_time": 51.9818182,
                "end_time": 52.0772727,
                "pitch": 78,
                "velocity": 64,
                "duration": 0.0954545,
                "tempo": 120.0
            },
            {
                "start_time": 52.0954545,
                "end_time": 52.2090909,
                "pitch": 81,
                "velocity": 64,
                "duration": 0.1136364,
                "tempo": 120.0
            },
            {
                "start_time": 52.225,
                "end_time": 52.3227273,
                "pitch": 86,
                "velocity": 64,
                "duration": 0.0977273,
                "tempo": 120.0
            },
            {
                "start_time": 52.3386364,
                "end_time": 52.4386364,
                "pitch": 84,
                "velocity": 64,
                "duration": 0.1,
                "tempo": 120.0
            },
            {
                "start_time": 52.4568182,
                "end_time": 52.5568182,
                "pitch": 81,
                "velocity": 64,
                "duration": 0.1,
                "tempo": 120.0
            },
            {
                "start_time": 52.5909091,
                "end_time": 52.6886364,
                "pitch": 84,
                "velocity": 64,
                "duration": 0.0977273,
                "tempo": 120.0
            },
            {
                "start_time": 52.7068182,
                "end_time": 52.8068182,
                "pitch": 78,
                "velocity": 64,
                "duration": 0.1,
                "tempo": 120.0
            },
            {
                "start_time": 52.8227273,
                "end_time": 52.9227273,
                "pitch": 81,
                "velocity": 64,
                "duration": 0.1,
                "tempo": 120.0
            },
            {
                "start_time": 52.9409091,
                "end_time": 53.0568182,
                "pitch": 86,
                "velocity": 64,
                "duration": 0.1159091,
                "tempo": 120.0
            },
            {
                "start_time": 53.075,
                "end_time": 53.1727273,
                "pitch": 84,
                "velocity": 64,
                "duration": 0.0977273,
                "tempo": 120.0
            },
            {
                "start_time": 53.1909091,
                "end_time": 53.2909091,
                "pitch": 81,
                "velocity": 64,
                "duration": 0.1,
                "tempo": 120.0
            },
            {
                "start_time": 53.3068182,
                "end_time": 53.4068182,
                "pitch": 84,
                "velocity": 64,
                "duration": 0.1,
                "tempo": 120.0
            },
            {
                "start_time": 53.4431818,
                "end_time": 53.5386364,
                "pitch": 79,
                "velocity": 64,
                "duration": 0.0954545,
                "tempo": 120.0
            },
            {
                "start_time": 53.5568182,
                "end_time": 53.6522727,
                "pitch": 81,
                "velocity": 64,
                "duration": 0.0954545,
                "tempo": 120.0
            },
            {
                "start_time": 53.6704545,
                "end_time": 53.7659091,
                "pitch": 82,
                "velocity": 64,
                "duration": 0.0954545,
                "tempo": 120.0
            },
            {
                "start_time": 53.7840909,
                "end_time": 53.8818182,
                "pitch": 86,
                "velocity": 64,
                "duration": 0.0977273,
                "tempo": 120.0
            },
            {
                "start_time": 53.9136364,
                "end_time": 54.0113636,
                "pitch": 84,
                "velocity": 64,
                "duration": 0.0977273,
                "tempo": 120.0
            },
            {
                "start_time": 54.0295455,
                "end_time": 54.125,
                "pitch": 82,
                "velocity": 64,
                "duration": 0.0954545,
                "tempo": 120.0
            },
            {
                "start_time": 54.1431818,
                "end_time": 54.2386364,
                "pitch": 81,
                "velocity": 64,
                "duration": 0.0954545,
                "tempo": 120.0
            },
            {
                "start_time": 54.2727273,
                "end_time": 54.3704545,
                "pitch": 82,
                "velocity": 64,
                "duration": 0.0977273,
                "tempo": 120.0
            },
            {
                "start_time": 54.3863636,
                "end_time": 54.4840909,
                "pitch": 84,
                "velocity": 64,
                "duration": 0.0977273,
                "tempo": 120.0
            },
            {
                "start_time": 54.5022727,
                "end_time": 54.6,
                "pitch": 82,
                "velocity": 64,
                "duration": 0.0977273,
                "tempo": 120.0
            },
            {
                "start_time": 54.6181818,
                "end_time": 54.7181818,
                "pitch": 81,
                "velocity": 64,
                "duration": 0.1,
                "tempo": 120.0
            },
            {
                "start_time": 54.7522727,
                "end_time": 54.85,
                "pitch": 77,
                "velocity": 64,
                "duration": 0.0977273,
                "tempo": 120.0
            },
            {
                "start_time": 54.8681818,
                "end_time": 54.9659091,
                "pitch": 79,
                "velocity": 64,
                "duration": 0.0977273,
                "tempo": 120.0
            },
            {
                "start_time": 54.9818182,
                "end_time": 55.0795455,
                "pitch": 81,
                "velocity": 64,
                "duration": 0.0977273,
                "tempo": 120.0
            },
            {
                "start_time": 55.0977273,
                "end_time": 55.2090909,
                "pitch": 82,
                "velocity": 64,
                "duration": 0.1113636,
                "tempo": 120.0
            },
            {
                "start_time": 55.2272727,
                "end_time": 55.3272727,
                "pitch": 86,
                "velocity": 64,
                "duration": 0.1,
                "tempo": 120.0
            },
            {
                "start_time": 55.3431818,
                "end_time": 55.4431818,
                "pitch": 84,
                "velocity": 64,
                "duration": 0.1,
                "tempo": 120.0
            },
            {
                "start_time": 55.4613636,
                "end_time": 55.5590909,
                "pitch": 82,
                "velocity": 64,
                "duration": 0.0977273,
                "tempo": 120.0
            },
            {
                "start_time": 55.5931818,
                "end_time": 55.6931818,
                "pitch": 81,
                "velocity": 64,
                "duration": 0.1,
                "tempo": 120.0
            },
            {
                "start_time": 55.7113636,
                "end_time": 55.8113636,
                "pitch": 82,
                "velocity": 64,
                "duration": 0.1,
                "tempo": 120.0
            },
            {
                "start_time": 55.8272727,
                "end_time": 55.9272727,
                "pitch": 84,
                "velocity": 64,
                "duration": 0.1,
                "tempo": 120.0
            },
            {
                "start_time": 55.9454545,
                "end_time": 56.0386364,
                "pitch": 82,
                "velocity": 64,
                "duration": 0.0931818,
                "tempo": 120.0
            },
            {
                "start_time": 56.0727273,
                "end_time": 56.1659091,
                "pitch": 81,
                "velocity": 64,
                "duration": 0.0931818,
                "tempo": 120.0
            },
            {
                "start_time": 56.1818182,
                "end_time": 56.2772727,
                "pitch": 77,
                "velocity": 64,
                "duration": 0.0954545,
                "tempo": 120.0
            },
            {
                "start_time": 56.2931818,
                "end_time": 56.3931818,
                "pitch": 79,
                "velocity": 64,
                "duration": 0.1,
                "tempo": 120.0
            },
            {
                "start_time": 56.4272727,
                "end_time": 56.525,
                "pitch": 81,
                "velocity": 64,
                "duration": 0.0977273,
                "tempo": 120.0
            },
            {
                "start_time": 56.5431818,
                "end_time": 56.6431818,
                "pitch": 82,
                "velocity": 64,
                "duration": 0.1,
                "tempo": 120.0
            },
            {
                "start_time": 56.6613636,
                "end_time": 56.7590909,
                "pitch": 86,
                "velocity": 64,
                "duration": 0.0977273,
                "tempo": 120.0
            },
            {
                "start_time": 56.7772727,
                "end_time": 56.8772727,
                "pitch": 84,
                "velocity": 64,
                "duration": 0.1,
                "tempo": 120.0
            },
            {
                "start_time": 56.9113636,
                "end_time": 57.0113636,
                "pitch": 82,
                "velocity": 64,
                "duration": 0.1,
                "tempo": 120.0
            },
            {
                "start_time": 57.0272727,
                "end_time": 57.125,
                "pitch": 81,
                "velocity": 64,
                "duration": 0.0977273,
                "tempo": 120.0
            },
            {
                "start_time": 57.1431818,
                "end_time": 57.2386364,
                "pitch": 82,
                "velocity": 64,
                "duration": 0.0954545,
                "tempo": 120.0
            },
            {
                "start_time": 57.2727273,
                "end_time": 57.3704545,
                "pitch": 84,
                "velocity": 64,
                "duration": 0.0977273,
                "tempo": 120.0
            },
            {
                "start_time": 57.3863636,
                "end_time": 57.4863636,
                "pitch": 82,
                "velocity": 64,
                "duration": 0.1,
                "tempo": 120.0
            },
            {
                "start_time": 57.5022727,
                "end_time": 57.6022727,
                "pitch": 81,
                "velocity": 64,
                "duration": 0.1,
                "tempo": 120.0
            },
            {
                "start_time": 57.6204545,
                "end_time": 57.7204545,
                "pitch": 77,
                "velocity": 64,
                "duration": 0.1,
                "tempo": 120.0
            },
            {
                "start_time": 57.7545455,
                "end_time": 57.85,
                "pitch": 79,
                "velocity": 64,
                "duration": 0.0954545,
                "tempo": 120.0
            },
            {
                "start_time": 57.8681818,
                "end_time": 57.9659091,
                "pitch": 81,
                "velocity": 64,
                "duration": 0.0977273,
                "tempo": 120.0
            },
            {
                "start_time": 57.9818182,
                "end_time": 58.0795455,
                "pitch": 82,
                "velocity": 64,
                "duration": 0.0977273,
                "tempo": 120.0
            },
            {
                "start_time": 58.0954545,
                "end_time": 58.2090909,
                "pitch": 86,
                "velocity": 64,
                "duration": 0.1136364,
                "tempo": 120.0
            },
            {
                "start_time": 58.2272727,
                "end_time": 58.3227273,
                "pitch": 84,
                "velocity": 64,
                "duration": 0.0954545,
                "tempo": 120.0
            },
            {
                "start_time": 58.3409091,
                "end_time": 58.4386364,
                "pitch": 82,
                "velocity": 64,
                "duration": 0.0977273,
                "tempo": 120.0
            },
            {
                "start_time": 58.4545455,
                "end_time": 58.5522727,
                "pitch": 81,
                "velocity": 64,
                "duration": 0.0977273,
                "tempo": 120.0
            },
            {
                "start_time": 58.5840909,
                "end_time": 58.6818182,
                "pitch": 82,
                "velocity": 64,
                "duration": 0.0977273,
                "tempo": 120.0
            },
            {
                "start_time": 58.7,
                "end_time": 58.7954545,
                "pitch": 84,
                "velocity": 64,
                "duration": 0.0954545,
                "tempo": 120.0
            },
            {
                "start_time": 58.8136364,
                "end_time": 58.9136364,
                "pitch": 82,
                "velocity": 64,
                "duration": 0.1,
                "tempo": 120.0
            },
            {
                "start_time": 58.9295455,
                "end_time": 59.0295455,
                "pitch": 81,
                "velocity": 64,
                "duration": 0.1,
                "tempo": 120.0
            },
            {
                "start_time": 59.0636364,
                "end_time": 59.1636364,
                "pitch": 77,
                "velocity": 64,
                "duration": 0.1,
                "tempo": 120.0
            },
            {
                "start_time": 59.1818182,
                "end_time": 59.2795455,
                "pitch": 79,
                "velocity": 64,
                "duration": 0.0977273,
                "tempo": 120.0
            },
            {
                "start_time": 59.2977273,
                "end_time": 59.3977273,
                "pitch": 81,
                "velocity": 64,
                "duration": 0.1,
                "tempo": 120.0
            },
            {
                "start_time": 59.4318182,
                "end_time": 59.5295455,
                "pitch": 82,
                "velocity": 64,
                "duration": 0.0977273,
                "tempo": 120.0
            },
            {
                "start_time": 59.5477273,
                "end_time": 59.6477273,
                "pitch": 86,
                "velocity": 64,
                "duration": 0.1,
                "tempo": 120.0
            },
            {
                "start_time": 59.6659091,
                "end_time": 59.7636364,
                "pitch": 84,
                "velocity": 64,
                "duration": 0.0977273,
                "tempo": 120.0
            },
            {
                "start_time": 59.7818182,
                "end_time": 59.8818182,
                "pitch": 82,
                "velocity": 64,
                "duration": 0.1,
                "tempo": 120.0
            },
            {
                "start_time": 59.9159091,
                "end_time": 60.0136364,
                "pitch": 81,
                "velocity": 64,
                "duration": 0.0977273,
                "tempo": 120.0
            },
            {
                "start_time": 60.0295455,
                "end_time": 60.1272727,
                "pitch": 82,
                "velocity": 64,
                "duration": 0.0977273,
                "tempo": 120.0
            },
            {
                "start_time": 60.1431818,
                "end_time": 60.2409091,
                "pitch": 84,
                "velocity": 64,
                "duration": 0.0977273,
                "tempo": 120.0
            },
            {
                "start_time": 60.2590909,
                "end_time": 60.3681818,
                "pitch": 82,
                "velocity": 64,
                "duration": 0.1090909,
                "tempo": 120.0
            },
            {
                "start_time": 60.3840909,
                "end_time": 60.4795455,
                "pitch": 81,
                "velocity": 64,
                "duration": 0.0954545,
                "tempo": 120.0
            },
            {
                "start_time": 60.4954545,
                "end_time": 60.5909091,
                "pitch": 77,
                "velocity": 64,
                "duration": 0.0954545,
                "tempo": 120.0
            },
            {
                "start_time": 60.6068182,
                "end_time": 60.7045455,
                "pitch": 79,
                "velocity": 64,
                "duration": 0.0977273,
                "tempo": 120.0
            },
            {
                "start_time": 60.7386364,
                "end_time": 60.8386364,
                "pitch": 81,
                "velocity": 64,
                "duration": 0.1,
                "tempo": 120.0
            },
            {
                "start_time": 60.8568182,
                "end_time": 60.9568182,
                "pitch": 82,
                "velocity": 64,
                "duration": 0.1,
                "tempo": 120.0
            },
            {
                "start_time": 60.9727273,
                "end_time": 61.0727273,
                "pitch": 86,
                "velocity": 64,
                "duration": 0.1,
                "tempo": 120.0
            },
            {
                "start_time": 61.0909091,
                "end_time": 61.2068182,
                "pitch": 84,
                "velocity": 64,
                "duration": 0.1159091,
                "tempo": 120.0
            },
            {
                "start_time": 61.2227273,
                "end_time": 61.3227273,
                "pitch": 82,
                "velocity": 64,
                "duration": 0.1,
                "tempo": 120.0
            },
            {
                "start_time": 61.3409091,
                "end_time": 61.4386364,
                "pitch": 81,
                "velocity": 64,
                "duration": 0.0977273,
                "tempo": 120.0
            },
            {
                "start_time": 61.4545455,
                "end_time": 61.5522727,
                "pitch": 82,
                "velocity": 64,
                "duration": 0.0977273,
                "tempo": 120.0
            },
            {
                "start_time": 61.5863636,
                "end_time": 61.6818182,
                "pitch": 84,
                "velocity": 64,
                "duration": 0.0954545,
                "tempo": 120.0
            },
            {
                "start_time": 61.7,
                "end_time": 61.7977273,
                "pitch": 82,
                "velocity": 64,
                "duration": 0.0977273,
                "tempo": 120.0
            },
            {
                "start_time": 61.8159091,
                "end_time": 61.9159091,
                "pitch": 81,
                "velocity": 64,
                "duration": 0.1,
                "tempo": 120.0
            },
            {
                "start_time": 61.9318182,
                "end_time": 62.0318182,
                "pitch": 77,
                "velocity": 64,
                "duration": 0.1,
                "tempo": 120.0
            },
            {
                "start_time": 62.0659091,
                "end_time": 62.1659091,
                "pitch": 79,
                "velocity": 64,
                "duration": 0.1,
                "tempo": 120.0
            },
            {
                "start_time": 62.1840909,
                "end_time": 62.2840909,
                "pitch": 81,
                "velocity": 64,
                "duration": 0.1,
                "tempo": 120.0
            },
            {
                "start_time": 62.3,
                "end_time": 62.4,
                "pitch": 82,
                "velocity": 64,
                "duration": 0.1,
                "tempo": 120.0
            },
            {
                "start_time": 62.4340909,
                "end_time": 62.5318182,
                "pitch": 86,
                "velocity": 64,
                "duration": 0.0977273,
                "tempo": 120.0
            },
            {
                "start_time": 62.5477273,
                "end_time": 62.6454545,
                "pitch": 84,
                "velocity": 64,
                "duration": 0.0977273,
                "tempo": 120.0
            },
            {
                "start_time": 62.6613636,
                "end_time": 62.7590909,
                "pitch": 82,
                "velocity": 64,
                "duration": 0.0977273,
                "tempo": 120.0
            },
            {
                "start_time": 62.7772727,
                "end_time": 62.8704545,
                "pitch": 81,
                "velocity": 64,
                "duration": 0.0931818,
                "tempo": 120.0
            },
            {
                "start_time": 62.9022727,
                "end_time": 62.9977273,
                "pitch": 82,
                "velocity": 64,
                "duration": 0.0954545,
                "tempo": 120.0
            },
            {
                "start_time": 63.0136364,
                "end_time": 63.1090909,
                "pitch": 84,
                "velocity": 64,
                "duration": 0.0954545,
                "tempo": 120.0
            },
            {
                "start_time": 63.125,
                "end_time": 63.2227273,
                "pitch": 82,
                "velocity": 64,
                "duration": 0.0977273,
                "tempo": 120.0
            },
            {
                "start_time": 63.2409091,
                "end_time": 63.3568182,
                "pitch": 81,
                "velocity": 64,
                "duration": 0.1159091,
                "tempo": 120.0
            },
            {
                "start_time": 63.375,
                "end_time": 63.475,
                "pitch": 77,
                "velocity": 64,
                "duration": 0.1,
                "tempo": 120.0
            },
            {
                "start_time": 63.4909091,
                "end_time": 63.5909091,
                "pitch": 79,
                "velocity": 64,
                "duration": 0.1,
                "tempo": 120.0
            },
            {
                "start_time": 63.6090909,
                "end_time": 63.7090909,
                "pitch": 81,
                "velocity": 64,
                "duration": 0.1,
                "tempo": 120.0
            },
            {
                "start_time": 63.7431818,
                "end_time": 63.8409091,
                "pitch": 82,
                "velocity": 64,
                "duration": 0.0977273,
                "tempo": 120.0
            },
            {
                "start_time": 63.8590909,
                "end_time": 63.9590909,
                "pitch": 86,
                "velocity": 64,
                "duration": 0.1,
                "tempo": 120.0
            },
            {
                "start_time": 63.975,
                "end_time": 64.075,
                "pitch": 84,
                "velocity": 64,
                "duration": 0.1,
                "tempo": 120.0
            },
            {
                "start_time": 64.0931818,
                "end_time": 64.2090909,
                "pitch": 82,
                "velocity": 64,
                "duration": 0.1159091,
                "tempo": 120.0
            },
            {
                "start_time": 64.2272727,
                "end_time": 64.3227273,
                "pitch": 81,
                "velocity": 64,
                "duration": 0.0954545,
                "tempo": 120.0
            },
            {
                "start_time": 64.3409091,
                "end_time": 64.4386364,
                "pitch": 82,
                "velocity": 64,
                "duration": 0.0977273,
                "tempo": 120.0
            },
            {
                "start_time": 64.4545455,
                "end_time": 64.5522727,
                "pitch": 84,
                "velocity": 64,
                "duration": 0.0977273,
                "tempo": 120.0
            },
            {
                "start_time": 64.5863636,
                "end_time": 64.6840909,
                "pitch": 82,
                "velocity": 64,
                "duration": 0.0977273,
                "tempo": 120.0
            },
            {
                "start_time": 64.7022727,
                "end_time": 64.8022727,
                "pitch": 81,
                "velocity": 64,
                "duration": 0.1,
                "tempo": 120.0
            },
            {
                "start_time": 64.8181818,
                "end_time": 64.9181818,
                "pitch": 77,
                "velocity": 64,
                "duration": 0.1,
                "tempo": 120.0
            },
            {
                "start_time": 64.9363636,
                "end_time": 65.0295455,
                "pitch": 79,
                "velocity": 64,
                "duration": 0.0931818,
                "tempo": 120.0
            }
        ],
        "French Horn": [
            {
                "start_time": 0.0068182,
                "end_time": 0.4068182,
                "pitch": 33,
                "velocity": 101,
                "duration": 0.4,
                "tempo": 120.0
            },
            {
                "start_time": 0.4227273,
                "end_time": 0.8840909,
                "pitch": 33,
                "velocity": 101,
                "duration": 0.4613636,
                "tempo": 120.0
            },
            {
                "start_time": 0.925,
                "end_time": 1.3681818,
                "pitch": 33,
                "velocity": 101,
                "duration": 0.4431818,
                "tempo": 120.0
            },
            {
                "start_time": 1.3886364,
                "end_time": 1.8545455,
                "pitch": 33,
                "velocity": 101,
                "duration": 0.4659091,
                "tempo": 120.0
            },
            {
                "start_time": 1.8931818,
                "end_time": 2.35,
                "pitch": 33,
                "velocity": 101,
                "duration": 0.4568182,
                "tempo": 120.0
            },
            {
                "start_time": 2.3681818,
                "end_time": 2.8454545,
                "pitch": 33,
                "velocity": 101,
                "duration": 0.4772727,
                "tempo": 120.0
            },
            {
                "start_time": 2.8840909,
                "end_time": 3.3295455,
                "pitch": 33,
                "velocity": 101,
                "duration": 0.4454545,
                "tempo": 120.0
            },
            {
                "start_time": 3.3477273,
                "end_time": 3.8159091,
                "pitch": 33,
                "velocity": 101,
                "duration": 0.4681818,
                "tempo": 120.0
            },
            {
                "start_time": 3.8363636,
                "end_time": 4.2977273,
                "pitch": 33,
                "velocity": 101,
                "duration": 0.4613636,
                "tempo": 120.0
            },
            {
                "start_time": 4.3159091,
                "end_time": 4.7840909,
                "pitch": 33,
                "velocity": 101,
                "duration": 0.4681818,
                "tempo": 120.0
            },
            {
                "start_time": 4.8022727,
                "end_time": 5.2431818,
                "pitch": 33,
                "velocity": 101,
                "duration": 0.4409091,
                "tempo": 120.0
            },
            {
                "start_time": 5.2772727,
                "end_time": 5.6727273,
                "pitch": 33,
                "velocity": 101,
                "duration": 0.3954545,
                "tempo": 120.0
            }
        ],
        "Acoustic Bass": [
            {
                "start_time": 7.3659091,
                "end_time": 7.6045455,
                "pitch": 31,
                "velocity": 80,
                "duration": 0.2386364,
                "tempo": 120.0
            },
            {
                "start_time": 7.6227273,
                "end_time": 7.725,
                "pitch": 31,
                "velocity": 80,
                "duration": 0.1022727,
                "tempo": 120.0
            },
            {
                "start_time": 7.7431818,
                "end_time": 7.8431818,
                "pitch": 34,
                "velocity": 80,
                "duration": 0.1,
                "tempo": 120.0
            },
            {
                "start_time": 7.8613636,
                "end_time": 7.9613636,
                "pitch": 38,
                "velocity": 80,
                "duration": 0.1,
                "tempo": 120.0
            },
            {
                "start_time": 7.9954545,
                "end_time": 8.0931818,
                "pitch": 36,
                "velocity": 80,
                "duration": 0.0977273,
                "tempo": 120.0
            },
            {
                "start_time": 8.1113636,
                "end_time": 8.3227273,
                "pitch": 31,
                "velocity": 80,
                "duration": 0.2113636,
                "tempo": 120.0
            },
            {
                "start_time": 8.3386364,
                "end_time": 8.4363636,
                "pitch": 31,
                "velocity": 80,
                "duration": 0.0977273,
                "tempo": 120.0
            },
            {
                "start_time": 8.4704545,
                "end_time": 8.5681818,
                "pitch": 34,
                "velocity": 80,
                "duration": 0.0977273,
                "tempo": 120.0
            },
            {
                "start_time": 8.5863636,
                "end_time": 8.6863636,
                "pitch": 38,
                "velocity": 80,
                "duration": 0.1,
                "tempo": 120.0
            },
            {
                "start_time": 8.7022727,
                "end_time": 8.8022727,
                "pitch": 36,
                "velocity": 80,
                "duration": 0.1,
                "tempo": 120.0
            },
            {
                "start_time": 8.8363636,
                "end_time": 9.0545455,
                "pitch": 31,
                "velocity": 80,
                "duration": 0.2181818,
                "tempo": 120.0
            },
            {
                "start_time": 9.0704545,
                "end_time": 9.1704545,
                "pitch": 31,
                "velocity": 80,
                "duration": 0.1,
                "tempo": 120.0
            },
            {
                "start_time": 9.1886364,
                "end_time": 9.2818182,
                "pitch": 34,
                "velocity": 80,
                "duration": 0.0931818,
                "tempo": 120.0
            },
            {
                "start_time": 9.3136364,
                "end_time": 9.4090909,
                "pitch": 38,
                "velocity": 80,
                "duration": 0.0954545,
                "tempo": 120.0
            },
            {
                "start_time": 9.425,
                "end_time": 9.5204545,
                "pitch": 36,
                "velocity": 80,
                "duration": 0.0954545,
                "tempo": 120.0
            },
            {
                "start_time": 9.5363636,
                "end_time": 9.7681818,
                "pitch": 31,
                "velocity": 80,
                "duration": 0.2318182,
                "tempo": 120.0
            },
            {
                "start_time": 9.7863636,
                "end_time": 9.8863636,
                "pitch": 31,
                "velocity": 80,
                "duration": 0.1,
                "tempo": 120.0
            },
            {
                "start_time": 9.9022727,
                "end_time": 10.0022727,
                "pitch": 34,
                "velocity": 80,
                "duration": 0.1,
                "tempo": 120.0
            },
            {
                "start_time": 10.0204545,
                "end_time": 10.1204545,
                "pitch": 38,
                "velocity": 80,
                "duration": 0.1,
                "tempo": 120.0
            },
            {
                "start_time": 10.1545455,
                "end_time": 10.2545455,
                "pitch": 36,
                "velocity": 80,
                "duration": 0.1,
                "tempo": 120.0
            },
            {
                "start_time": 10.2727273,
                "end_time": 10.4818182,
                "pitch": 31,
                "velocity": 80,
                "duration": 0.2090909,
                "tempo": 120.0
            },
            {
                "start_time": 10.4977273,
                "end_time": 10.6113636,
                "pitch": 31,
                "velocity": 80,
                "duration": 0.1136364,
                "tempo": 120.0
            },
            {
                "start_time": 10.6295455,
                "end_time": 10.7272727,
                "pitch": 34,
                "velocity": 80,
                "duration": 0.0977273,
                "tempo": 120.0
            },
            {
                "start_time": 10.7431818,
                "end_time": 10.8409091,
                "pitch": 38,
                "velocity": 80,
                "duration": 0.0977273,
                "tempo": 120.0
            },
            {
                "start_time": 10.8568182,
                "end_time": 10.9545455,
                "pitch": 36,
                "velocity": 80,
                "duration": 0.0977273,
                "tempo": 120.0
            },
            {
                "start_time": 10.9886364,
                "end_time": 11.2045455,
                "pitch": 31,
                "velocity": 80,
                "duration": 0.2159091,
                "tempo": 120.0
            },
            {
                "start_time": 11.2204545,
                "end_time": 11.3204545,
                "pitch": 31,
                "velocity": 80,
                "duration": 0.1,
                "tempo": 120.0
            },
            {
                "start_time": 11.3386364,
                "end_time": 11.4363636,
                "pitch": 34,
                "velocity": 80,
                "duration": 0.0977273,
                "tempo": 120.0
            },
            {
                "start_time": 11.4704545,
                "end_time": 11.5659091,
                "pitch": 38,
                "velocity": 80,
                "duration": 0.0954545,
                "tempo": 120.0
            },
            {
                "start_time": 11.5840909,
                "end_time": 11.6795455,
                "pitch": 36,
                "velocity": 80,
                "duration": 0.0954545,
                "tempo": 120.0
            },
            {
                "start_time": 11.6977273,
                "end_time": 11.925,
                "pitch": 31,
                "velocity": 80,
                "duration": 0.2272727,
                "tempo": 120.0
            },
            {
                "start_time": 11.9431818,
                "end_time": 12.0386364,
                "pitch": 31,
                "velocity": 80,
                "duration": 0.0954545,
                "tempo": 120.0
            },
            {
                "start_time": 12.0568182,
                "end_time": 12.1545455,
                "pitch": 34,
                "velocity": 80,
                "duration": 0.0977273,
                "tempo": 120.0
            },
            {
                "start_time": 12.1727273,
                "end_time": 12.2727273,
                "pitch": 38,
                "velocity": 80,
                "duration": 0.1,
                "tempo": 120.0
            },
            {
                "start_time": 12.3068182,
                "end_time": 12.4068182,
                "pitch": 36,
                "velocity": 80,
                "duration": 0.1,
                "tempo": 120.0
            },
            {
                "start_time": 12.4227273,
                "end_time": 12.6409091,
                "pitch": 31,
                "velocity": 80,
                "duration": 0.2181818,
                "tempo": 120.0
            },
            {
                "start_time": 12.6568182,
                "end_time": 12.7727273,
                "pitch": 31,
                "velocity": 80,
                "duration": 0.1159091,
                "tempo": 120.0
            },
            {
                "start_time": 12.7909091,
                "end_time": 12.8909091,
                "pitch": 34,
                "velocity": 80,
                "duration": 0.1,
                "tempo": 120.0
            },
            {
                "start_time": 12.9068182,
                "end_time": 13.0068182,
                "pitch": 38,
                "velocity": 80,
                "duration": 0.1,
                "tempo": 120.0
            },
            {
                "start_time": 13.025,
                "end_time": 13.125,
                "pitch": 36,
                "velocity": 80,
                "duration": 0.1,
                "tempo": 120.0
            },
            {
                "start_time": 13.1613636,
                "end_time": 13.3704545,
                "pitch": 31,
                "velocity": 80,
                "duration": 0.2090909,
                "tempo": 120.0
            },
            {
                "start_time": 13.3863636,
                "end_time": 13.4840909,
                "pitch": 31,
                "velocity": 80,
                "duration": 0.0977273,
                "tempo": 120.0
            },
            {
                "start_time": 13.5,
                "end_time": 13.6113636,
                "pitch": 34,
                "velocity": 80,
                "duration": 0.1113636,
                "tempo": 120.0
            },
            {
                "start_time": 13.6272727,
                "end_time": 13.7227273,
                "pitch": 38,
                "velocity": 80,
                "duration": 0.0954545,
                "tempo": 120.0
            },
            {
                "start_time": 13.7386364,
                "end_time": 13.8318182,
                "pitch": 36,
                "velocity": 80,
                "duration": 0.0931818,
                "tempo": 120.0
            },
            {
                "start_time": 13.8477273,
                "end_time": 14.0818182,
                "pitch": 31,
                "velocity": 80,
                "duration": 0.2340909,
                "tempo": 120.0
            },
            {
                "start_time": 14.0977273,
                "end_time": 14.1977273,
                "pitch": 31,
                "velocity": 80,
                "duration": 0.1,
                "tempo": 120.0
            },
            {
                "start_time": 14.2159091,
                "end_time": 14.3159091,
                "pitch": 34,
                "velocity": 80,
                "duration": 0.1,
                "tempo": 120.0
            },
            {
                "start_time": 14.3318182,
                "end_time": 14.4318182,
                "pitch": 38,
                "velocity": 80,
                "duration": 0.1,
                "tempo": 120.0
            },
            {
                "start_time": 14.4659091,
                "end_time": 14.5659091,
                "pitch": 36,
                "velocity": 80,
                "duration": 0.1,
                "tempo": 120.0
            },
            {
                "start_time": 14.5840909,
                "end_time": 14.7954545,
                "pitch": 31,
                "velocity": 80,
                "duration": 0.2113636,
                "tempo": 120.0
            },
            {
                "start_time": 14.8272727,
                "end_time": 14.925,
                "pitch": 31,
                "velocity": 80,
                "duration": 0.0977273,
                "tempo": 120.0
            },
            {
                "start_time": 14.9409091,
                "end_time": 15.0409091,
                "pitch": 34,
                "velocity": 80,
                "duration": 0.1,
                "tempo": 120.0
            },
            {
                "start_time": 15.0590909,
                "end_time": 15.1590909,
                "pitch": 38,
                "velocity": 80,
                "duration": 0.1,
                "tempo": 120.0
            },
            {
                "start_time": 15.175,
                "end_time": 15.275,
                "pitch": 36,
                "velocity": 80,
                "duration": 0.1,
                "tempo": 120.0
            },
            {
                "start_time": 15.3090909,
                "end_time": 15.525,
                "pitch": 31,
                "velocity": 80,
                "duration": 0.2159091,
                "tempo": 120.0
            },
            {
                "start_time": 15.5431818,
                "end_time": 15.6431818,
                "pitch": 31,
                "velocity": 80,
                "duration": 0.1,
                "tempo": 120.0
            },
            {
                "start_time": 15.6613636,
                "end_time": 15.7704545,
                "pitch": 34,
                "velocity": 80,
                "duration": 0.1090909,
                "tempo": 120.0
            },
            {
                "start_time": 15.7863636,
                "end_time": 15.8818182,
                "pitch": 38,
                "velocity": 80,
                "duration": 0.0954545,
                "tempo": 120.0
            },
            {
                "start_time": 15.8977273,
                "end_time": 15.9931818,
                "pitch": 36,
                "velocity": 80,
                "duration": 0.0954545,
                "tempo": 120.0
            },
            {
                "start_time": 16.0090909,
                "end_time": 16.2409091,
                "pitch": 31,
                "velocity": 80,
                "duration": 0.2318182,
                "tempo": 120.0
            },
            {
                "start_time": 16.2590909,
                "end_time": 16.3590909,
                "pitch": 31,
                "velocity": 80,
                "duration": 0.1,
                "tempo": 120.0
            },
            {
                "start_time": 16.375,
                "end_time": 16.4727273,
                "pitch": 34,
                "velocity": 80,
                "duration": 0.0977273,
                "tempo": 120.0
            },
            {
                "start_time": 16.4886364,
                "end_time": 16.5863636,
                "pitch": 38,
                "velocity": 80,
                "duration": 0.0977273,
                "tempo": 120.0
            },
            {
                "start_time": 16.6204545,
                "end_time": 16.7181818,
                "pitch": 36,
                "velocity": 80,
                "duration": 0.0977273,
                "tempo": 120.0
            },
            {
                "start_time": 16.7340909,
                "end_time": 16.95,
                "pitch": 31,
                "velocity": 80,
                "duration": 0.2159091,
                "tempo": 120.0
            },
            {
                "start_time": 16.9840909,
                "end_time": 17.0840909,
                "pitch": 31,
                "velocity": 80,
                "duration": 0.1,
                "tempo": 120.0
            },
            {
                "start_time": 17.1022727,
                "end_time": 17.2,
                "pitch": 34,
                "velocity": 80,
                "duration": 0.0977273,
                "tempo": 120.0
            },
            {
                "start_time": 17.2181818,
                "end_time": 17.3181818,
                "pitch": 38,
                "velocity": 80,
                "duration": 0.1,
                "tempo": 120.0
            },
            {
                "start_time": 17.3340909,
                "end_time": 17.4340909,
                "pitch": 36,
                "velocity": 80,
                "duration": 0.1,
                "tempo": 120.0
            },
            {
                "start_time": 17.4681818,
                "end_time": 17.6795455,
                "pitch": 31,
                "velocity": 80,
                "duration": 0.2113636,
                "tempo": 120.0
            },
            {
                "start_time": 17.6977273,
                "end_time": 17.7931818,
                "pitch": 31,
                "velocity": 80,
                "duration": 0.0954545,
                "tempo": 120.0
            },
            {
                "start_time": 17.8272727,
                "end_time": 17.9272727,
                "pitch": 34,
                "velocity": 80,
                "duration": 0.1,
                "tempo": 120.0
            },
            {
                "start_time": 17.9431818,
                "end_time": 18.0431818,
                "pitch": 38,
                "velocity": 80,
                "duration": 0.1,
                "tempo": 120.0
            },
            {
                "start_time": 18.0613636,
                "end_time": 18.1613636,
                "pitch": 36,
                "velocity": 80,
                "duration": 0.1,
                "tempo": 120.0
            },
            {
                "start_time": 18.1772727,
                "end_time": 18.4,
                "pitch": 31,
                "velocity": 80,
                "duration": 0.2227273,
                "tempo": 120.0
            },
            {
                "start_time": 18.4159091,
                "end_time": 18.5090909,
                "pitch": 31,
                "velocity": 80,
                "duration": 0.0931818,
                "tempo": 120.0
            },
            {
                "start_time": 18.5272727,
                "end_time": 18.625,
                "pitch": 34,
                "velocity": 80,
                "duration": 0.0977273,
                "tempo": 120.0
            },
            {
                "start_time": 18.6431818,
                "end_time": 18.7590909,
                "pitch": 38,
                "velocity": 80,
                "duration": 0.1159091,
                "tempo": 120.0
            },
            {
                "start_time": 18.7772727,
                "end_time": 18.8772727,
                "pitch": 36,
                "velocity": 80,
                "duration": 0.1,
                "tempo": 120.0
            },
            {
                "start_time": 18.8954545,
                "end_time": 19.1090909,
                "pitch": 31,
                "velocity": 80,
                "duration": 0.2136364,
                "tempo": 120.0
            },
            {
                "start_time": 19.1431818,
                "end_time": 19.2431818,
                "pitch": 31,
                "velocity": 80,
                "duration": 0.1,
                "tempo": 120.0
            },
            {
                "start_time": 19.2613636,
                "end_time": 19.3590909,
                "pitch": 34,
                "velocity": 80,
                "duration": 0.0977273,
                "tempo": 120.0
            },
            {
                "start_time": 19.375,
                "end_time": 19.4727273,
                "pitch": 38,
                "velocity": 80,
                "duration": 0.0977273,
                "tempo": 120.0
            },
            {
                "start_time": 19.4886364,
                "end_time": 19.5863636,
                "pitch": 36,
                "velocity": 80,
                "duration": 0.0977273,
                "tempo": 120.0
            },
            {
                "start_time": 19.6204545,
                "end_time": 19.8363636,
                "pitch": 31,
                "velocity": 80,
                "duration": 0.2159091,
                "tempo": 120.0
            },
            {
                "start_time": 19.8522727,
                "end_time": 19.9522727,
                "pitch": 31,
                "velocity": 80,
                "duration": 0.1,
                "tempo": 120.0
            },
            {
                "start_time": 19.9863636,
                "end_time": 20.0863636,
                "pitch": 34,
                "velocity": 80,
                "duration": 0.1,
                "tempo": 120.0
            },
            {
                "start_time": 20.1045455,
                "end_time": 20.2022727,
                "pitch": 38,
                "velocity": 80,
                "duration": 0.0977273,
                "tempo": 120.0
            },
            {
                "start_time": 20.2204545,
                "end_time": 20.3204545,
                "pitch": 36,
                "velocity": 80,
                "duration": 0.1,
                "tempo": 120.0
            },
            {
                "start_time": 20.3386364,
                "end_time": 20.5590909,
                "pitch": 31,
                "velocity": 80,
                "duration": 0.2204545,
                "tempo": 120.0
            },
            {
                "start_time": 20.575,
                "end_time": 20.6704545,
                "pitch": 31,
                "velocity": 80,
                "duration": 0.0954545,
                "tempo": 120.0
            },
            {
                "start_time": 20.6863636,
                "end_time": 20.7840909,
                "pitch": 34,
                "velocity": 80,
                "duration": 0.0977273,
                "tempo": 120.0
            },
            {
                "start_time": 20.8,
                "end_time": 20.9136364,
                "pitch": 38,
                "velocity": 80,
                "duration": 0.1136364,
                "tempo": 120.0
            },
            {
                "start_time": 20.9318182,
                "end_time": 21.0272727,
                "pitch": 36,
                "velocity": 80,
                "duration": 0.0954545,
                "tempo": 120.0
            },
            {
                "start_time": 21.0454545,
                "end_time": 21.2613636,
                "pitch": 31,
                "velocity": 80,
                "duration": 0.2159091,
                "tempo": 120.0
            },
            {
                "start_time": 21.2954545,
                "end_time": 21.3954545,
                "pitch": 31,
                "velocity": 80,
                "duration": 0.1,
                "tempo": 120.0
            },
            {
                "start_time": 21.4113636,
                "end_time": 21.5113636,
                "pitch": 34,
                "velocity": 80,
                "duration": 0.1,
                "tempo": 120.0
            },
            {
                "start_time": 21.5295455,
                "end_time": 21.6295455,
                "pitch": 38,
                "velocity": 80,
                "duration": 0.1,
                "tempo": 120.0
            },
            {
                "start_time": 21.6454545,
                "end_time": 21.7613636,
                "pitch": 36,
                "velocity": 80,
                "duration": 0.1159091,
                "tempo": 120.0
            },
            {
                "start_time": 21.7795455,
                "end_time": 21.9954545,
                "pitch": 31,
                "velocity": 80,
                "duration": 0.2159091,
                "tempo": 120.0
            },
            {
                "start_time": 22.0136364,
                "end_time": 22.1136364,
                "pitch": 31,
                "velocity": 80,
                "duration": 0.1,
                "tempo": 120.0
            },
            {
                "start_time": 22.1477273,
                "end_time": 22.2431818,
                "pitch": 34,
                "velocity": 80,
                "duration": 0.0954545,
                "tempo": 120.0
            },
            {
                "start_time": 22.2613636,
                "end_time": 22.3590909,
                "pitch": 38,
                "velocity": 80,
                "duration": 0.0977273,
                "tempo": 120.0
            },
            {
                "start_time": 22.375,
                "end_time": 22.4727273,
                "pitch": 36,
                "velocity": 80,
                "duration": 0.0977273,
                "tempo": 120.0
            },
            {
                "start_time": 22.4886364,
                "end_time": 22.7090909,
                "pitch": 31,
                "velocity": 80,
                "duration": 0.2204545,
                "tempo": 120.0
            },
            {
                "start_time": 22.7272727,
                "end_time": 22.8204545,
                "pitch": 31,
                "velocity": 80,
                "duration": 0.0931818,
                "tempo": 120.0
            },
            {
                "start_time": 22.8386364,
                "end_time": 22.9363636,
                "pitch": 34,
                "velocity": 80,
                "duration": 0.0977273,
                "tempo": 120.0
            },
            {
                "start_time": 22.9704545,
                "end_time": 23.0704545,
                "pitch": 38,
                "velocity": 80,
                "duration": 0.1,
                "tempo": 120.0
            },
            {
                "start_time": 23.0863636,
                "end_time": 23.1863636,
                "pitch": 36,
                "velocity": 80,
                "duration": 0.1,
                "tempo": 120.0
            },
            {
                "start_time": 23.2045455,
                "end_time": 23.4204545,
                "pitch": 31,
                "velocity": 80,
                "duration": 0.2159091,
                "tempo": 120.0
            },
            {
                "start_time": 23.4545455,
                "end_time": 23.5545455,
                "pitch": 31,
                "velocity": 80,
                "duration": 0.1,
                "tempo": 120.0
            },
            {
                "start_time": 23.5727273,
                "end_time": 23.6681818,
                "pitch": 34,
                "velocity": 80,
                "duration": 0.0954545,
                "tempo": 120.0
            },
            {
                "start_time": 23.6863636,
                "end_time": 23.7840909,
                "pitch": 38,
                "velocity": 80,
                "duration": 0.0977273,
                "tempo": 120.0
            },
            {
                "start_time": 23.8,
                "end_time": 23.9136364,
                "pitch": 36,
                "velocity": 80,
                "duration": 0.1136364,
                "tempo": 120.0
            },
            {
                "start_time": 23.9318182,
                "end_time": 24.1477273,
                "pitch": 31,
                "velocity": 80,
                "duration": 0.2159091,
                "tempo": 120.0
            },
            {
                "start_time": 24.1636364,
                "end_time": 24.2636364,
                "pitch": 31,
                "velocity": 80,
                "duration": 0.1,
                "tempo": 120.0
            },
            {
                "start_time": 24.2977273,
                "end_time": 24.3977273,
                "pitch": 34,
                "velocity": 80,
                "duration": 0.1,
                "tempo": 120.0
            },
            {
                "start_time": 24.4159091,
                "end_time": 24.5136364,
                "pitch": 38,
                "velocity": 80,
                "duration": 0.0977273,
                "tempo": 120.0
            },
            {
                "start_time": 24.5318182,
                "end_time": 24.6318182,
                "pitch": 36,
                "velocity": 80,
                "duration": 0.1,
                "tempo": 120.0
            },
            {
                "start_time": 24.65,
                "end_time": 24.8704545,
                "pitch": 27,
                "velocity": 80,
                "duration": 0.2204545,
                "tempo": 120.0
            },
            {
                "start_time": 24.8863636,
                "end_time": 24.9795455,
                "pitch": 27,
                "velocity": 80,
                "duration": 0.0931818,
                "tempo": 120.0
            },
            {
                "start_time": 24.9977273,
                "end_time": 25.0954545,
                "pitch": 31,
                "velocity": 80,
                "duration": 0.0977273,
                "tempo": 120.0
            },
            {
                "start_time": 25.1295455,
                "end_time": 25.2295455,
                "pitch": 33,
                "velocity": 80,
                "duration": 0.1,
                "tempo": 120.0
            },
            {
                "start_time": 25.2477273,
                "end_time": 25.3477273,
                "pitch": 34,
                "velocity": 80,
                "duration": 0.1,
                "tempo": 120.0
            },
            {
                "start_time": 25.3636364,
                "end_time": 25.575,
                "pitch": 27,
                "velocity": 80,
                "duration": 0.2113636,
                "tempo": 120.0
            },
            {
                "start_time": 25.6090909,
                "end_time": 25.7068182,
                "pitch": 27,
                "velocity": 80,
                "duration": 0.0977273,
                "tempo": 120.0
            },
            {
                "start_time": 25.7227273,
                "end_time": 25.8227273,
                "pitch": 31,
                "velocity": 80,
                "duration": 0.1,
                "tempo": 120.0
            },
            {
                "start_time": 25.8386364,
                "end_time": 25.9386364,
                "pitch": 33,
                "velocity": 80,
                "duration": 0.1,
                "tempo": 120.0
            },
            {
                "start_time": 25.9727273,
                "end_time": 26.0727273,
                "pitch": 34,
                "velocity": 80,
                "duration": 0.1,
                "tempo": 120.0
            },
            {
                "start_time": 26.0909091,
                "end_time": 26.3068182,
                "pitch": 27,
                "velocity": 80,
                "duration": 0.2159091,
                "tempo": 120.0
            },
            {
                "start_time": 26.3227273,
                "end_time": 26.4227273,
                "pitch": 27,
                "velocity": 80,
                "duration": 0.1,
                "tempo": 120.0
            },
            {
                "start_time": 26.4568182,
                "end_time": 26.5545455,
                "pitch": 31,
                "velocity": 80,
                "duration": 0.0977273,
                "tempo": 120.0
            },
            {
                "start_time": 26.5704545,
                "end_time": 26.6681818,
                "pitch": 33,
                "velocity": 80,
                "duration": 0.0977273,
                "tempo": 120.0
            },
            {
                "start_time": 26.6863636,
                "end_time": 26.7818182,
                "pitch": 34,
                "velocity": 80,
                "duration": 0.0954545,
                "tempo": 120.0
            },
            {
                "start_time": 26.8,
                "end_time": 27.0272727,
                "pitch": 27,
                "velocity": 80,
                "duration": 0.2272727,
                "tempo": 120.0
            },
            {
                "start_time": 27.0431818,
                "end_time": 27.1409091,
                "pitch": 27,
                "velocity": 80,
                "duration": 0.0977273,
                "tempo": 120.0
            },
            {
                "start_time": 27.1590909,
                "end_time": 27.2568182,
                "pitch": 31,
                "velocity": 80,
                "duration": 0.0977273,
                "tempo": 120.0
            },
            {
                "start_time": 27.2909091,
                "end_time": 27.3909091,
                "pitch": 33,
                "velocity": 80,
                "duration": 0.1,
                "tempo": 120.0
            },
            {
                "start_time": 27.4090909,
                "end_time": 27.5090909,
                "pitch": 34,
                "velocity": 80,
                "duration": 0.1,
                "tempo": 120.0
            },
            {
                "start_time": 27.5272727,
                "end_time": 27.7522727,
                "pitch": 31,
                "velocity": 80,
                "duration": 0.225,
                "tempo": 120.0
            },
            {
                "start_time": 27.7704545,
                "end_time": 27.8681818,
                "pitch": 31,
                "velocity": 80,
                "duration": 0.0977273,
                "tempo": 120.0
            },
            {
                "start_time": 27.8840909,
                "end_time": 27.9840909,
                "pitch": 34,
                "velocity": 80,
                "duration": 0.1,
                "tempo": 120.0
            },
            {
                "start_time": 28.0022727,
                "end_time": 28.1,
                "pitch": 38,
                "velocity": 80,
                "duration": 0.0977273,
                "tempo": 120.0
            },
            {
                "start_time": 28.1340909,
                "end_time": 28.2340909,
                "pitch": 36,
                "velocity": 80,
                "duration": 0.1,
                "tempo": 120.0
            },
            {
                "start_time": 28.2522727,
                "end_time": 28.4636364,
                "pitch": 31,
                "velocity": 80,
                "duration": 0.2113636,
                "tempo": 120.0
            },
            {
                "start_time": 28.4795455,
                "end_time": 28.5772727,
                "pitch": 31,
                "velocity": 80,
                "duration": 0.0977273,
                "tempo": 120.0
            },
            {
                "start_time": 28.6113636,
                "end_time": 28.7090909,
                "pitch": 34,
                "velocity": 80,
                "duration": 0.0977273,
                "tempo": 120.0
            },
            {
                "start_time": 28.7272727,
                "end_time": 28.8272727,
                "pitch": 38,
                "velocity": 80,
                "duration": 0.1,
                "tempo": 120.0
            },
            {
                "start_time": 28.8431818,
                "end_time": 28.9431818,
                "pitch": 36,
                "velocity": 80,
                "duration": 0.1,
                "tempo": 120.0
            },
            {
                "start_time": 28.9772727,
                "end_time": 29.1931818,
                "pitch": 31,
                "velocity": 80,
                "duration": 0.2159091,
                "tempo": 120.0
            },
            {
                "start_time": 29.2113636,
                "end_time": 29.3113636,
                "pitch": 31,
                "velocity": 80,
                "duration": 0.1,
                "tempo": 120.0
            },
            {
                "start_time": 29.3272727,
                "end_time": 29.4227273,
                "pitch": 34,
                "velocity": 80,
                "duration": 0.0954545,
                "tempo": 120.0
            },
            {
                "start_time": 29.4545455,
                "end_time": 29.55,
                "pitch": 38,
                "velocity": 80,
                "duration": 0.0954545,
                "tempo": 120.0
            },
            {
                "start_time": 29.5659091,
                "end_time": 29.6590909,
                "pitch": 36,
                "velocity": 80,
                "duration": 0.0931818,
                "tempo": 120.0
            },
            {
                "start_time": 29.6772727,
                "end_time": 29.9090909,
                "pitch": 31,
                "velocity": 80,
                "duration": 0.2318182,
                "tempo": 120.0
            },
            {
                "start_time": 29.9272727,
                "end_time": 30.0272727,
                "pitch": 31,
                "velocity": 80,
                "duration": 0.1,
                "tempo": 120.0
            },
            {
                "start_time": 30.0431818,
                "end_time": 30.1431818,
                "pitch": 34,
                "velocity": 80,
                "duration": 0.1,
                "tempo": 120.0
            },
            {
                "start_time": 30.1613636,
                "end_time": 30.2590909,
                "pitch": 38,
                "velocity": 80,
                "duration": 0.0977273,
                "tempo": 120.0
            },
            {
                "start_time": 30.2931818,
                "end_time": 30.3931818,
                "pitch": 36,
                "velocity": 80,
                "duration": 0.1,
                "tempo": 120.0
            },
            {
                "start_time": 30.4113636,
                "end_time": 30.6227273,
                "pitch": 27,
                "velocity": 80,
                "duration": 0.2113636,
                "tempo": 120.0
            },
            {
                "start_time": 30.6386364,
                "end_time": 30.7363636,
                "pitch": 27,
                "velocity": 80,
                "duration": 0.0977273,
                "tempo": 120.0
            },
            {
                "start_time": 30.7704545,
                "end_time": 30.8659091,
                "pitch": 31,
                "velocity": 80,
                "duration": 0.0954545,
                "tempo": 120.0
            },
            {
                "start_time": 30.8840909,
                "end_time": 30.9818182,
                "pitch": 33,
                "velocity": 80,
                "duration": 0.0977273,
                "tempo": 120.0
            },
            {
                "start_time": 30.9977273,
                "end_time": 31.0954545,
                "pitch": 34,
                "velocity": 80,
                "duration": 0.0977273,
                "tempo": 120.0
            },
            {
                "start_time": 31.1272727,
                "end_time": 31.3454545,
                "pitch": 27,
                "velocity": 80,
                "duration": 0.2181818,
                "tempo": 120.0
            },
            {
                "start_time": 31.3613636,
                "end_time": 31.4613636,
                "pitch": 27,
                "velocity": 80,
                "duration": 0.1,
                "tempo": 120.0
            },
            {
                "start_time": 31.4795455,
                "end_time": 31.5772727,
                "pitch": 31,
                "velocity": 80,
                "duration": 0.0977273,
                "tempo": 120.0
            },
            {
                "start_time": 31.6090909,
                "end_time": 31.7068182,
                "pitch": 33,
                "velocity": 80,
                "duration": 0.0977273,
                "tempo": 120.0
            },
            {
                "start_time": 31.7227273,
                "end_time": 31.8204545,
                "pitch": 34,
                "velocity": 80,
                "duration": 0.0977273,
                "tempo": 120.0
            },
            {
                "start_time": 31.8386364,
                "end_time": 32.0659091,
                "pitch": 27,
                "velocity": 80,
                "duration": 0.2272727,
                "tempo": 120.0
            },
            {
                "start_time": 32.0818182,
                "end_time": 32.1795455,
                "pitch": 27,
                "velocity": 80,
                "duration": 0.0977273,
                "tempo": 120.0
            },
            {
                "start_time": 32.1954545,
                "end_time": 32.2954545,
                "pitch": 31,
                "velocity": 80,
                "duration": 0.1,
                "tempo": 120.0
            },
            {
                "start_time": 32.3136364,
                "end_time": 32.4136364,
                "pitch": 33,
                "velocity": 80,
                "duration": 0.1,
                "tempo": 120.0
            },
            {
                "start_time": 32.4477273,
                "end_time": 32.5454545,
                "pitch": 34,
                "velocity": 80,
                "duration": 0.0977273,
                "tempo": 120.0
            },
            {
                "start_time": 32.5636364,
                "end_time": 32.7795455,
                "pitch": 27,
                "velocity": 80,
                "duration": 0.2159091,
                "tempo": 120.0
            },
            {
                "start_time": 32.7977273,
                "end_time": 32.9136364,
                "pitch": 27,
                "velocity": 80,
                "duration": 0.1159091,
                "tempo": 120.0
            },
            {
                "start_time": 32.9318182,
                "end_time": 33.0318182,
                "pitch": 31,
                "velocity": 80,
                "duration": 0.1,
                "tempo": 120.0
            },
            {
                "start_time": 33.0477273,
                "end_time": 33.1477273,
                "pitch": 33,
                "velocity": 80,
                "duration": 0.1,
                "tempo": 120.0
            },
            {
                "start_time": 33.1659091,
                "end_time": 33.2636364,
                "pitch": 34,
                "velocity": 80,
                "duration": 0.0977273,
                "tempo": 120.0
            },
            {
                "start_time": 33.3,
                "end_time": 33.5090909,
                "pitch": 26,
                "velocity": 80,
                "duration": 0.2090909,
                "tempo": 120.0
            },
            {
                "start_time": 33.5272727,
                "end_time": 33.625,
                "pitch": 26,
                "velocity": 80,
                "duration": 0.0977273,
                "tempo": 120.0
            },
            {
                "start_time": 33.6409091,
                "end_time": 33.7363636,
                "pitch": 30,
                "velocity": 80,
                "duration": 0.0954545,
                "tempo": 120.0
            },
            {
                "start_time": 33.7681818,
                "end_time": 33.8613636,
                "pitch": 33,
                "velocity": 80,
                "duration": 0.0931818,
                "tempo": 120.0
            },
            {
                "start_time": 33.8795455,
                "end_time": 33.9727273,
                "pitch": 31,
                "velocity": 80,
                "duration": 0.0931818,
                "tempo": 120.0
            },
            {
                "start_time": 33.9886364,
                "end_time": 34.2227273,
                "pitch": 26,
                "velocity": 80,
                "duration": 0.2340909,
                "tempo": 120.0
            },
            {
                "start_time": 34.2386364,
                "end_time": 34.3386364,
                "pitch": 26,
                "velocity": 80,
                "duration": 0.1,
                "tempo": 120.0
            },
            {
                "start_time": 34.3568182,
                "end_time": 34.4568182,
                "pitch": 30,
                "velocity": 80,
                "duration": 0.1,
                "tempo": 120.0
            },
            {
                "start_time": 34.4727273,
                "end_time": 34.5727273,
                "pitch": 33,
                "velocity": 80,
                "duration": 0.1,
                "tempo": 120.0
            },
            {
                "start_time": 34.6068182,
                "end_time": 34.7068182,
                "pitch": 31,
                "velocity": 80,
                "duration": 0.1,
                "tempo": 120.0
            },
            {
                "start_time": 34.725,
                "end_time": 34.9340909,
                "pitch": 26,
                "velocity": 80,
                "duration": 0.2090909,
                "tempo": 120.0
            },
            {
                "start_time": 34.9522727,
                "end_time": 35.0659091,
                "pitch": 26,
                "velocity": 80,
                "duration": 0.1136364,
                "tempo": 120.0
            },
            {
                "start_time": 35.0818182,
                "end_time": 35.1818182,
                "pitch": 30,
                "velocity": 80,
                "duration": 0.1,
                "tempo": 120.0
            },
            {
                "start_time": 35.2,
                "end_time": 35.2977273,
                "pitch": 33,
                "velocity": 80,
                "duration": 0.0977273,
                "tempo": 120.0
            },
            {
                "start_time": 35.3159091,
                "end_time": 35.4159091,
                "pitch": 31,
                "velocity": 80,
                "duration": 0.1,
                "tempo": 120.0
            },
            {
                "start_time": 35.45,
                "end_time": 35.6659091,
                "pitch": 26,
                "velocity": 80,
                "duration": 0.2159091,
                "tempo": 120.0
            },
            {
                "start_time": 35.6840909,
                "end_time": 35.7840909,
                "pitch": 26,
                "velocity": 80,
                "duration": 0.1,
                "tempo": 120.0
            },
            {
                "start_time": 35.8,
                "end_time": 35.9113636,
                "pitch": 30,
                "velocity": 80,
                "duration": 0.1113636,
                "tempo": 120.0
            },
            {
                "start_time": 35.9272727,
                "end_time": 36.0227273,
                "pitch": 33,
                "velocity": 80,
                "duration": 0.0954545,
                "tempo": 120.0
            },
            {
                "start_time": 36.0386364,
                "end_time": 36.1318182,
                "pitch": 31,
                "velocity": 80,
                "duration": 0.0931818,
                "tempo": 120.0
            },
            {
                "start_time": 36.15,
                "end_time": 36.3818182,
                "pitch": 31,
                "velocity": 80,
                "duration": 0.2318182,
                "tempo": 120.0
            },
            {
                "start_time": 36.4,
                "end_time": 36.4977273,
                "pitch": 31,
                "velocity": 80,
                "duration": 0.0977273,
                "tempo": 120.0
            },
            {
                "start_time": 36.5159091,
                "end_time": 36.6136364,
                "pitch": 34,
                "velocity": 80,
                "duration": 0.0977273,
                "tempo": 120.0
            },
            {
                "start_time": 36.6295455,
                "end_time": 36.7272727,
                "pitch": 38,
                "velocity": 80,
                "duration": 0.0977273,
                "tempo": 120.0
            },
            {
                "start_time": 36.7613636,
                "end_time": 36.8568182,
                "pitch": 36,
                "velocity": 80,
                "duration": 0.0954545,
                "tempo": 120.0
            },
            {
                "start_time": 36.875,
                "end_time": 37.0909091,
                "pitch": 31,
                "velocity": 80,
                "duration": 0.2159091,
                "tempo": 120.0
            },
            {
                "start_time": 37.125,
                "end_time": 37.225,
                "pitch": 31,
                "velocity": 80,
                "duration": 0.1,
                "tempo": 120.0
            },
            {
                "start_time": 37.2409091,
                "end_time": 37.3409091,
                "pitch": 34,
                "velocity": 80,
                "duration": 0.1,
                "tempo": 120.0
            },
            {
                "start_time": 37.3590909,
                "end_time": 37.4590909,
                "pitch": 38,
                "velocity": 80,
                "duration": 0.1,
                "tempo": 120.0
            },
            {
                "start_time": 37.475,
                "end_time": 37.575,
                "pitch": 36,
                "velocity": 80,
                "duration": 0.1,
                "tempo": 120.0
            },
            {
                "start_time": 37.6090909,
                "end_time": 37.8204545,
                "pitch": 31,
                "velocity": 80,
                "duration": 0.2113636,
                "tempo": 120.0
            },
            {
                "start_time": 37.8363636,
                "end_time": 37.9340909,
                "pitch": 31,
                "velocity": 80,
                "duration": 0.0977273,
                "tempo": 120.0
            },
            {
                "start_time": 37.9522727,
                "end_time": 38.0613636,
                "pitch": 34,
                "velocity": 80,
                "duration": 0.1090909,
                "tempo": 120.0
            },
            {
                "start_time": 38.0772727,
                "end_time": 38.1727273,
                "pitch": 38,
                "velocity": 80,
                "duration": 0.0954545,
                "tempo": 120.0
            },
            {
                "start_time": 38.1886364,
                "end_time": 38.2840909,
                "pitch": 36,
                "velocity": 80,
                "duration": 0.0954545,
                "tempo": 120.0
            },
            {
                "start_time": 38.3,
                "end_time": 38.5318182,
                "pitch": 31,
                "velocity": 80,
                "duration": 0.2318182,
                "tempo": 120.0
            },
            {
                "start_time": 38.55,
                "end_time": 38.65,
                "pitch": 31,
                "velocity": 80,
                "duration": 0.1,
                "tempo": 120.0
            },
            {
                "start_time": 38.6681818,
                "end_time": 38.7659091,
                "pitch": 34,
                "velocity": 80,
                "duration": 0.0977273,
                "tempo": 120.0
            },
            {
                "start_time": 38.7840909,
                "end_time": 38.9,
                "pitch": 38,
                "velocity": 80,
                "duration": 0.1159091,
                "tempo": 120.0
            },
            {
                "start_time": 38.9181818,
                "end_time": 39.0181818,
                "pitch": 36,
                "velocity": 80,
                "duration": 0.1,
                "tempo": 120.0
            },
            {
                "start_time": 39.0363636,
                "end_time": 39.25,
                "pitch": 31,
                "velocity": 80,
                "duration": 0.2136364,
                "tempo": 120.0
            },
            {
                "start_time": 39.2840909,
                "end_time": 39.3840909,
                "pitch": 31,
                "velocity": 80,
                "duration": 0.1,
                "tempo": 120.0
            },
            {
                "start_time": 39.4022727,
                "end_time": 39.5,
                "pitch": 34,
                "velocity": 80,
                "duration": 0.0977273,
                "tempo": 120.0
            },
            {
                "start_time": 39.5159091,
                "end_time": 39.6136364,
                "pitch": 38,
                "velocity": 80,
                "duration": 0.0977273,
                "tempo": 120.0
            },
            {
                "start_time": 39.6295455,
                "end_time": 39.7272727,
                "pitch": 36,
                "velocity": 80,
                "duration": 0.0977273,
                "tempo": 120.0
            },
            {
                "start_time": 39.7613636,
                "end_time": 39.9772727,
                "pitch": 31,
                "velocity": 80,
                "duration": 0.2159091,
                "tempo": 120.0
            },
            {
                "start_time": 39.9954545,
                "end_time": 40.0931818,
                "pitch": 31,
                "velocity": 80,
                "duration": 0.0977273,
                "tempo": 120.0
            },
            {
                "start_time": 40.1272727,
                "end_time": 40.2272727,
                "pitch": 34,
                "velocity": 80,
                "duration": 0.1,
                "tempo": 120.0
            },
            {
                "start_time": 40.2454545,
                "end_time": 40.3454545,
                "pitch": 38,
                "velocity": 80,
                "duration": 0.1,
                "tempo": 120.0
            },
            {
                "start_time": 40.3613636,
                "end_time": 40.4613636,
                "pitch": 36,
                "velocity": 80,
                "duration": 0.1,
                "tempo": 120.0
            },
            {
                "start_time": 40.4795455,
                "end_time": 40.7,
                "pitch": 31,
                "velocity": 80,
                "duration": 0.2204545,
                "tempo": 120.0
            },
            {
                "start_time": 40.7159091,
                "end_time": 40.8113636,
                "pitch": 31,
                "velocity": 80,
                "duration": 0.0954545,
                "tempo": 120.0
            },
            {
                "start_time": 40.8272727,
                "end_time": 40.925,
                "pitch": 34,
                "velocity": 80,
                "duration": 0.0977273,
                "tempo": 120.0
            },
            {
                "start_time": 40.9409091,
                "end_time": 41.0545455,
                "pitch": 38,
                "velocity": 80,
                "duration": 0.1136364,
                "tempo": 120.0
            },
            {
                "start_time": 41.0727273,
                "end_time": 41.1681818,
                "pitch": 36,
                "velocity": 80,
                "duration": 0.0954545,
                "tempo": 120.0
            },
            {
                "start_time": 41.1863636,
                "end_time": 41.4022727,
                "pitch": 31,
                "velocity": 80,
                "duration": 0.2159091,
                "tempo": 120.0
            },
            {
                "start_time": 41.4363636,
                "end_time": 41.5363636,
                "pitch": 31,
                "velocity": 80,
                "duration": 0.1,
                "tempo": 120.0
            },
            {
                "start_time": 41.5522727,
                "end_time": 41.6522727,
                "pitch": 34,
                "velocity": 80,
                "duration": 0.1,
                "tempo": 120.0
            },
            {
                "start_time": 41.6704545,
                "end_time": 41.7704545,
                "pitch": 38,
                "velocity": 80,
                "duration": 0.1,
                "tempo": 120.0
            },
            {
                "start_time": 41.7863636,
                "end_time": 41.8863636,
                "pitch": 36,
                "velocity": 80,
                "duration": 0.1,
                "tempo": 120.0
            },
            {
                "start_time": 41.9204545,
                "end_time": 42.1363636,
                "pitch": 31,
                "velocity": 80,
                "duration": 0.2159091,
                "tempo": 120.0
            },
            {
                "start_time": 42.1545455,
                "end_time": 42.2545455,
                "pitch": 31,
                "velocity": 80,
                "duration": 0.1,
                "tempo": 120.0
            },
            {
                "start_time": 42.2886364,
                "end_time": 42.3840909,
                "pitch": 34,
                "velocity": 80,
                "duration": 0.0954545,
                "tempo": 120.0
            },
            {
                "start_time": 42.4022727,
                "end_time": 42.5,
                "pitch": 38,
                "velocity": 80,
                "duration": 0.0977273,
                "tempo": 120.0
            },
            {
                "start_time": 42.5159091,
                "end_time": 42.6136364,
                "pitch": 36,
                "velocity": 80,
                "duration": 0.0977273,
                "tempo": 120.0
            },
            {
                "start_time": 42.6295455,
                "end_time": 42.8522727,
                "pitch": 31,
                "velocity": 80,
                "duration": 0.2227273,
                "tempo": 120.0
            },
            {
                "start_time": 42.8681818,
                "end_time": 42.9613636,
                "pitch": 31,
                "velocity": 80,
                "duration": 0.0931818,
                "tempo": 120.0
            },
            {
                "start_time": 42.9795455,
                "end_time": 43.0772727,
                "pitch": 34,
                "velocity": 80,
                "duration": 0.0977273,
                "tempo": 120.0
            },
            {
                "start_time": 43.1113636,
                "end_time": 43.2113636,
                "pitch": 38,
                "velocity": 80,
                "duration": 0.1,
                "tempo": 120.0
            },
            {
                "start_time": 43.2295455,
                "end_time": 43.3272727,
                "pitch": 36,
                "velocity": 80,
                "duration": 0.0977273,
                "tempo": 120.0
            },
            {
                "start_time": 43.3454545,
                "end_time": 43.5613636,
                "pitch": 31,
                "velocity": 80,
                "duration": 0.2159091,
                "tempo": 120.0
            },
            {
                "start_time": 43.5954545,
                "end_time": 43.6954545,
                "pitch": 31,
                "velocity": 80,
                "duration": 0.1,
                "tempo": 120.0
            },
            {
                "start_time": 43.7136364,
                "end_time": 43.8090909,
                "pitch": 34,
                "velocity": 80,
                "duration": 0.0954545,
                "tempo": 120.0
            },
            {
                "start_time": 43.8272727,
                "end_time": 43.925,
                "pitch": 38,
                "velocity": 80,
                "duration": 0.0977273,
                "tempo": 120.0
            },
            {
                "start_time": 43.9409091,
                "end_time": 44.0545455,
                "pitch": 36,
                "velocity": 80,
                "duration": 0.1136364,
                "tempo": 120.0
            },
            {
                "start_time": 44.0727273,
                "end_time": 44.2886364,
                "pitch": 31,
                "velocity": 80,
                "duration": 0.2159091,
                "tempo": 120.0
            },
            {
                "start_time": 44.3045455,
                "end_time": 44.4045455,
                "pitch": 31,
                "velocity": 80,
                "duration": 0.1,
                "tempo": 120.0
            },
            {
                "start_time": 44.4386364,
                "end_time": 44.5386364,
                "pitch": 34,
                "velocity": 80,
                "duration": 0.1,
                "tempo": 120.0
            },
            {
                "start_time": 44.5568182,
                "end_time": 44.6545455,
                "pitch": 38,
                "velocity": 80,
                "duration": 0.0977273,
                "tempo": 120.0
            },
            {
                "start_time": 44.6727273,
                "end_time": 44.7727273,
                "pitch": 36,
                "velocity": 80,
                "duration": 0.1,
                "tempo": 120.0
            },
            {
                "start_time": 44.7909091,
                "end_time": 45.0113636,
                "pitch": 31,
                "velocity": 80,
                "duration": 0.2204545,
                "tempo": 120.0
            },
            {
                "start_time": 45.0272727,
                "end_time": 45.1227273,
                "pitch": 31,
                "velocity": 80,
                "duration": 0.0954545,
                "tempo": 120.0
            },
            {
                "start_time": 45.1386364,
                "end_time": 45.2363636,
                "pitch": 34,
                "velocity": 80,
                "duration": 0.0977273,
                "tempo": 120.0
            },
            {
                "start_time": 45.2704545,
                "end_time": 45.3704545,
                "pitch": 38,
                "velocity": 80,
                "duration": 0.1,
                "tempo": 120.0
            },
            {
                "start_time": 45.3886364,
                "end_time": 45.4886364,
                "pitch": 36,
                "velocity": 80,
                "duration": 0.1,
                "tempo": 120.0
            },
            {
                "start_time": 45.5045455,
                "end_time": 45.7159091,
                "pitch": 31,
                "velocity": 80,
                "duration": 0.2113636,
                "tempo": 120.0
            },
            {
                "start_time": 45.75,
                "end_time": 45.8477273,
                "pitch": 31,
                "velocity": 80,
                "duration": 0.0977273,
                "tempo": 120.0
            },
            {
                "start_time": 45.8636364,
                "end_time": 45.9636364,
                "pitch": 34,
                "velocity": 80,
                "duration": 0.1,
                "tempo": 120.0
            },
            {
                "start_time": 45.9818182,
                "end_time": 46.0795455,
                "pitch": 38,
                "velocity": 80,
                "duration": 0.0977273,
                "tempo": 120.0
            },
            {
                "start_time": 46.0977273,
                "end_time": 46.2136364,
                "pitch": 36,
                "velocity": 80,
                "duration": 0.1159091,
                "tempo": 120.0
            },
            {
                "start_time": 46.2318182,
                "end_time": 46.4477273,
                "pitch": 31,
                "velocity": 80,
                "duration": 0.2159091,
                "tempo": 120.0
            },
            {
                "start_time": 46.4636364,
                "end_time": 46.5636364,
                "pitch": 31,
                "velocity": 80,
                "duration": 0.1,
                "tempo": 120.0
            },
            {
                "start_time": 46.5977273,
                "end_time": 46.6954545,
                "pitch": 34,
                "velocity": 80,
                "duration": 0.0977273,
                "tempo": 120.0
            },
            {
                "start_time": 46.7113636,
                "end_time": 46.8090909,
                "pitch": 38,
                "velocity": 80,
                "duration": 0.0977273,
                "tempo": 120.0
            },
            {
                "start_time": 46.8272727,
                "end_time": 46.925,
                "pitch": 36,
                "velocity": 80,
                "duration": 0.0977273,
                "tempo": 120.0
            },
            {
                "start_time": 46.9409091,
                "end_time": 47.1681818,
                "pitch": 31,
                "velocity": 80,
                "duration": 0.2272727,
                "tempo": 120.0
            },
            {
                "start_time": 47.1840909,
                "end_time": 47.2818182,
                "pitch": 31,
                "velocity": 80,
                "duration": 0.0977273,
                "tempo": 120.0
            },
            {
                "start_time": 47.3,
                "end_time": 47.3977273,
                "pitch": 34,
                "velocity": 80,
                "duration": 0.0977273,
                "tempo": 120.0
            },
            {
                "start_time": 47.4340909,
                "end_time": 47.5318182,
                "pitch": 38,
                "velocity": 80,
                "duration": 0.0977273,
                "tempo": 120.0
            },
            {
                "start_time": 47.55,
                "end_time": 47.65,
                "pitch": 36,
                "velocity": 80,
                "duration": 0.1,
                "tempo": 120.0
            },
            {
                "start_time": 47.6681818,
                "end_time": 47.8772727,
                "pitch": 26,
                "velocity": 80,
                "duration": 0.2090909,
                "tempo": 120.0
            },
            {
                "start_time": 47.9113636,
                "end_time": 48.0090909,
                "pitch": 26,
                "velocity": 80,
                "duration": 0.0977273,
                "tempo": 120.0
            },
            {
                "start_time": 48.025,
                "end_time": 48.125,
                "pitch": 30,
                "velocity": 80,
                "duration": 0.1,
                "tempo": 120.0
            },
            {
                "start_time": 48.1431818,
                "end_time": 48.2409091,
                "pitch": 33,
                "velocity": 80,
                "duration": 0.0977273,
                "tempo": 120.0
            },
            {
                "start_time": 48.275,
                "end_time": 48.375,
                "pitch": 31,
                "velocity": 80,
                "duration": 0.1,
                "tempo": 120.0
            },
            {
                "start_time": 48.3931818,
                "end_time": 48.6045455,
                "pitch": 26,
                "velocity": 80,
                "duration": 0.2113636,
                "tempo": 120.0
            },
            {
                "start_time": 48.6204545,
                "end_time": 48.7181818,
                "pitch": 26,
                "velocity": 80,
                "duration": 0.0977273,
                "tempo": 120.0
            },
            {
                "start_time": 48.75,
                "end_time": 48.85,
                "pitch": 30,
                "velocity": 80,
                "duration": 0.1,
                "tempo": 120.0
            },
            {
                "start_time": 48.8681818,
                "end_time": 48.9681818,
                "pitch": 33,
                "velocity": 80,
                "duration": 0.1,
                "tempo": 120.0
            },
            {
                "start_time": 48.9840909,
                "end_time": 49.0840909,
                "pitch": 31,
                "velocity": 80,
                "duration": 0.1,
                "tempo": 120.0
            },
            {
                "start_time": 49.1022727,
                "end_time": 49.3227273,
                "pitch": 26,
                "velocity": 80,
                "duration": 0.2204545,
                "tempo": 120.0
            },
            {
                "start_time": 49.3386364,
                "end_time": 49.4340909,
                "pitch": 26,
                "velocity": 80,
                "duration": 0.0954545,
                "tempo": 120.0
            },
            {
                "start_time": 49.45,
                "end_time": 49.55,
                "pitch": 30,
                "velocity": 80,
                "duration": 0.1,
                "tempo": 120.0
            },
            {
                "start_time": 49.5840909,
                "end_time": 49.6818182,
                "pitch": 33,
                "velocity": 80,
                "duration": 0.0977273,
                "tempo": 120.0
            },
            {
                "start_time": 49.7,
                "end_time": 49.8,
                "pitch": 31,
                "velocity": 80,
                "duration": 0.1,
                "tempo": 120.0
            },
            {
                "start_time": 49.8159091,
                "end_time": 50.0454545,
                "pitch": 26,
                "velocity": 80,
                "duration": 0.2295455,
                "tempo": 120.0
            },
            {
                "start_time": 50.0613636,
                "end_time": 50.1590909,
                "pitch": 26,
                "velocity": 80,
                "duration": 0.0977273,
                "tempo": 120.0
            },
            {
                "start_time": 50.175,
                "end_time": 50.2772727,
                "pitch": 30,
                "velocity": 80,
                "duration": 0.1022727,
                "tempo": 120.0
            },
            {
                "start_time": 50.2954545,
                "end_time": 50.3977273,
                "pitch": 33,
                "velocity": 80,
                "duration": 0.1022727,
                "tempo": 120.0
            },
            {
                "start_time": 50.4340909,
                "end_time": 50.5363636,
                "pitch": 31,
                "velocity": 80,
                "duration": 0.1022727,
                "tempo": 120.0
            },
            {
                "start_time": 50.5545455,
                "end_time": 50.7659091,
                "pitch": 26,
                "velocity": 80,
                "duration": 0.2113636,
                "tempo": 120.0
            },
            {
                "start_time": 50.7818182,
                "end_time": 50.8795455,
                "pitch": 26,
                "velocity": 80,
                "duration": 0.0977273,
                "tempo": 120.0
            },
            {
                "start_time": 50.9136364,
                "end_time": 51.0113636,
                "pitch": 30,
                "velocity": 80,
                "duration": 0.0977273,
                "tempo": 120.0
            },
            {
                "start_time": 51.0295455,
                "end_time": 51.1295455,
                "pitch": 33,
                "velocity": 80,
                "duration": 0.1,
                "tempo": 120.0
            },
            {
                "start_time": 51.1477273,
                "end_time": 51.2454545,
                "pitch": 31,
                "velocity": 80,
                "duration": 0.0977273,
                "tempo": 120.0
            },
            {
                "start_time": 51.2795455,
                "end_time": 51.4909091,
                "pitch": 26,
                "velocity": 80,
                "duration": 0.2113636,
                "tempo": 120.0
            },
            {
                "start_time": 51.5090909,
                "end_time": 51.6045455,
                "pitch": 26,
                "velocity": 80,
                "duration": 0.0954545,
                "tempo": 120.0
            },
            {
                "start_time": 51.6227273,
                "end_time": 51.7204545,
                "pitch": 30,
                "velocity": 80,
                "duration": 0.0977273,
                "tempo": 120.0
            },
            {
                "start_time": 51.7522727,
                "end_time": 51.85,
                "pitch": 33,
                "velocity": 80,
                "duration": 0.0977273,
                "tempo": 120.0
            },
            {
                "start_time": 51.8681818,
                "end_time": 51.9636364,
                "pitch": 31,
                "velocity": 80,
                "duration": 0.0954545,
                "tempo": 120.0
            },
            {
                "start_time": 51.9818182,
                "end_time": 52.2090909,
                "pitch": 26,
                "velocity": 80,
                "duration": 0.2272727,
                "tempo": 120.0
            },
            {
                "start_time": 52.225,
                "end_time": 52.3227273,
                "pitch": 26,
                "velocity": 80,
                "duration": 0.0977273,
                "tempo": 120.0
            },
            {
                "start_time": 52.3386364,
                "end_time": 52.4386364,
                "pitch": 30,
                "velocity": 80,
                "duration": 0.1,
                "tempo": 120.0
            },
            {
                "start_time": 52.4568182,
                "end_time": 52.5568182,
                "pitch": 33,
                "velocity": 80,
                "duration": 0.1,
                "tempo": 120.0
            },
            {
                "start_time": 52.5909091,
                "end_time": 52.6886364,
                "pitch": 31,
                "velocity": 80,
                "duration": 0.0977273,
                "tempo": 120.0
            },
            {
                "start_time": 52.7068182,
                "end_time": 52.9227273,
                "pitch": 26,
                "velocity": 80,
                "duration": 0.2159091,
                "tempo": 120.0
            },
            {
                "start_time": 52.9409091,
                "end_time": 53.0568182,
                "pitch": 26,
                "velocity": 80,
                "duration": 0.1159091,
                "tempo": 120.0
            },
            {
                "start_time": 53.075,
                "end_time": 53.175,
                "pitch": 30,
                "velocity": 80,
                "duration": 0.1,
                "tempo": 120.0
            },
            {
                "start_time": 53.1909091,
                "end_time": 53.2909091,
                "pitch": 33,
                "velocity": 80,
                "duration": 0.1,
                "tempo": 120.0
            },
            {
                "start_time": 53.3090909,
                "end_time": 53.4068182,
                "pitch": 31,
                "velocity": 80,
                "duration": 0.0977273,
                "tempo": 120.0
            },
            {
                "start_time": 53.4431818,
                "end_time": 53.5386364,
                "pitch": 31,
                "velocity": 80,
                "duration": 0.0954545,
                "tempo": 120.0
            },
            {
                "start_time": 53.5568182,
                "end_time": 53.6522727,
                "pitch": 31,
                "velocity": 80,
                "duration": 0.0954545,
                "tempo": 120.0
            },
            {
                "start_time": 53.6704545,
                "end_time": 53.7681818,
                "pitch": 31,
                "velocity": 80,
                "duration": 0.0977273,
                "tempo": 120.0
            },
            {
                "start_time": 53.7840909,
                "end_time": 53.8818182,
                "pitch": 31,
                "velocity": 80,
                "duration": 0.0977273,
                "tempo": 120.0
            },
            {
                "start_time": 53.9159091,
                "end_time": 54.0113636,
                "pitch": 31,
                "velocity": 80,
                "duration": 0.0954545,
                "tempo": 120.0
            },
            {
                "start_time": 54.0295455,
                "end_time": 54.125,
                "pitch": 31,
                "velocity": 80,
                "duration": 0.0954545,
                "tempo": 120.0
            },
            {
                "start_time": 54.1431818,
                "end_time": 54.2409091,
                "pitch": 31,
                "velocity": 80,
                "duration": 0.0977273,
                "tempo": 120.0
            },
            {
                "start_time": 54.2727273,
                "end_time": 54.3704545,
                "pitch": 31,
                "velocity": 80,
                "duration": 0.0977273,
                "tempo": 120.0
            },
            {
                "start_time": 54.3886364,
                "end_time": 54.4840909,
                "pitch": 31,
                "velocity": 80,
                "duration": 0.0954545,
                "tempo": 120.0
            },
            {
                "start_time": 54.5022727,
                "end_time": 54.6,
                "pitch": 31,
                "velocity": 80,
                "duration": 0.0977273,
                "tempo": 120.0
            },
            {
                "start_time": 54.6181818,
                "end_time": 54.7181818,
                "pitch": 31,
                "velocity": 80,
                "duration": 0.1,
                "tempo": 120.0
            },
            {
                "start_time": 54.7522727,
                "end_time": 54.8522727,
                "pitch": 31,
                "velocity": 80,
                "duration": 0.1,
                "tempo": 120.0
            },
            {
                "start_time": 54.8681818,
                "end_time": 54.9659091,
                "pitch": 29,
                "velocity": 80,
                "duration": 0.0977273,
                "tempo": 120.0
            },
            {
                "start_time": 54.9818182,
                "end_time": 55.0795455,
                "pitch": 29,
                "velocity": 80,
                "duration": 0.0977273,
                "tempo": 120.0
            },
            {
                "start_time": 55.0977273,
                "end_time": 55.2113636,
                "pitch": 29,
                "velocity": 80,
                "duration": 0.1136364,
                "tempo": 120.0
            },
            {
                "start_time": 55.2272727,
                "end_time": 55.3272727,
                "pitch": 29,
                "velocity": 80,
                "duration": 0.1,
                "tempo": 120.0
            },
            {
                "start_time": 55.3431818,
                "end_time": 55.4431818,
                "pitch": 29,
                "velocity": 80,
                "duration": 0.1,
                "tempo": 120.0
            },
            {
                "start_time": 55.4613636,
                "end_time": 55.5613636,
                "pitch": 29,
                "velocity": 80,
                "duration": 0.1,
                "tempo": 120.0
            },
            {
                "start_time": 55.5954545,
                "end_time": 55.6931818,
                "pitch": 29,
                "velocity": 80,
                "duration": 0.0977273,
                "tempo": 120.0
            },
            {
                "start_time": 55.7113636,
                "end_time": 55.8113636,
                "pitch": 29,
                "velocity": 80,
                "duration": 0.1,
                "tempo": 120.0
            },
            {
                "start_time": 55.8295455,
                "end_time": 55.9272727,
                "pitch": 29,
                "velocity": 80,
                "duration": 0.0977273,
                "tempo": 120.0
            },
            {
                "start_time": 55.9454545,
                "end_time": 56.0409091,
                "pitch": 29,
                "velocity": 80,
                "duration": 0.0954545,
                "tempo": 120.0
            },
            {
                "start_time": 56.0727273,
                "end_time": 56.1659091,
                "pitch": 29,
                "velocity": 80,
                "duration": 0.0931818,
                "tempo": 120.0
            },
            {
                "start_time": 56.1840909,
                "end_time": 56.2772727,
                "pitch": 29,
                "velocity": 80,
                "duration": 0.0931818,
                "tempo": 120.0
            },
            {
                "start_time": 56.2931818,
                "end_time": 56.3931818,
                "pitch": 28,
                "velocity": 80,
                "duration": 0.1,
                "tempo": 120.0
            },
            {
                "start_time": 56.4272727,
                "end_time": 56.5272727,
                "pitch": 28,
                "velocity": 80,
                "duration": 0.1,
                "tempo": 120.0
            },
            {
                "start_time": 56.5431818,
                "end_time": 56.6431818,
                "pitch": 28,
                "velocity": 80,
                "duration": 0.1,
                "tempo": 120.0
            },
            {
                "start_time": 56.6613636,
                "end_time": 56.7590909,
                "pitch": 28,
                "velocity": 80,
                "duration": 0.0977273,
                "tempo": 120.0
            },
            {
                "start_time": 56.7772727,
                "end_time": 56.8772727,
                "pitch": 28,
                "velocity": 80,
                "duration": 0.1,
                "tempo": 120.0
            },
            {
                "start_time": 56.9113636,
                "end_time": 57.0113636,
                "pitch": 28,
                "velocity": 80,
                "duration": 0.1,
                "tempo": 120.0
            },
            {
                "start_time": 57.0272727,
                "end_time": 57.125,
                "pitch": 28,
                "velocity": 80,
                "duration": 0.0977273,
                "tempo": 120.0
            },
            {
                "start_time": 57.1431818,
                "end_time": 57.2386364,
                "pitch": 28,
                "velocity": 80,
                "duration": 0.0954545,
                "tempo": 120.0
            },
            {
                "start_time": 57.2727273,
                "end_time": 57.3704545,
                "pitch": 28,
                "velocity": 80,
                "duration": 0.0977273,
                "tempo": 120.0
            },
            {
                "start_time": 57.3863636,
                "end_time": 57.4863636,
                "pitch": 28,
                "velocity": 80,
                "duration": 0.1,
                "tempo": 120.0
            },
            {
                "start_time": 57.5045455,
                "end_time": 57.6022727,
                "pitch": 28,
                "velocity": 80,
                "duration": 0.0977273,
                "tempo": 120.0
            },
            {
                "start_time": 57.6204545,
                "end_time": 57.7204545,
                "pitch": 28,
                "velocity": 80,
                "duration": 0.1,
                "tempo": 120.0
            },
            {
                "start_time": 57.7545455,
                "end_time": 57.8522727,
                "pitch": 27,
                "velocity": 80,
                "duration": 0.0977273,
                "tempo": 120.0
            },
            {
                "start_time": 57.8681818,
                "end_time": 57.9659091,
                "pitch": 27,
                "velocity": 80,
                "duration": 0.0977273,
                "tempo": 120.0
            },
            {
                "start_time": 57.9818182,
                "end_time": 58.0795455,
                "pitch": 27,
                "velocity": 80,
                "duration": 0.0977273,
                "tempo": 120.0
            },
            {
                "start_time": 58.0977273,
                "end_time": 58.2090909,
                "pitch": 27,
                "velocity": 80,
                "duration": 0.1113636,
                "tempo": 120.0
            },
            {
                "start_time": 58.2272727,
                "end_time": 58.325,
                "pitch": 27,
                "velocity": 80,
                "duration": 0.0977273,
                "tempo": 120.0
            },
            {
                "start_time": 58.3409091,
                "end_time": 58.4386364,
                "pitch": 27,
                "velocity": 80,
                "duration": 0.0977273,
                "tempo": 120.0
            },
            {
                "start_time": 58.4545455,
                "end_time": 58.5522727,
                "pitch": 27,
                "velocity": 80,
                "duration": 0.0977273,
                "tempo": 120.0
            },
            {
                "start_time": 58.5863636,
                "end_time": 58.6818182,
                "pitch": 27,
                "velocity": 80,
                "duration": 0.0954545,
                "tempo": 120.0
            },
            {
                "start_time": 58.7,
                "end_time": 58.7977273,
                "pitch": 27,
                "velocity": 80,
                "duration": 0.0977273,
                "tempo": 120.0
            },
            {
                "start_time": 58.8136364,
                "end_time": 58.9136364,
                "pitch": 27,
                "velocity": 80,
                "duration": 0.1,
                "tempo": 120.0
            },
            {
                "start_time": 58.9295455,
                "end_time": 59.0295455,
                "pitch": 27,
                "velocity": 80,
                "duration": 0.1,
                "tempo": 120.0
            },
            {
                "start_time": 59.0636364,
                "end_time": 59.1636364,
                "pitch": 27,
                "velocity": 80,
                "duration": 0.1,
                "tempo": 120.0
            },
            {
                "start_time": 59.1818182,
                "end_time": 59.2795455,
                "pitch": 31,
                "velocity": 80,
                "duration": 0.0977273,
                "tempo": 120.0
            },
            {
                "start_time": 59.2977273,
                "end_time": 59.3977273,
                "pitch": 31,
                "velocity": 80,
                "duration": 0.1,
                "tempo": 120.0
            },
            {
                "start_time": 59.4318182,
                "end_time": 59.5318182,
                "pitch": 31,
                "velocity": 80,
                "duration": 0.1,
                "tempo": 120.0
            },
            {
                "start_time": 59.5477273,
                "end_time": 59.6477273,
                "pitch": 31,
                "velocity": 80,
                "duration": 0.1,
                "tempo": 120.0
            },
            {
                "start_time": 59.6659091,
                "end_time": 59.7636364,
                "pitch": 31,
                "velocity": 80,
                "duration": 0.0977273,
                "tempo": 120.0
            },
            {
                "start_time": 59.7818182,
                "end_time": 59.8818182,
                "pitch": 31,
                "velocity": 80,
                "duration": 0.1,
                "tempo": 120.0
            },
            {
                "start_time": 59.9159091,
                "end_time": 60.0136364,
                "pitch": 31,
                "velocity": 80,
                "duration": 0.0977273,
                "tempo": 120.0
            },
            {
                "start_time": 60.0295455,
                "end_time": 60.1272727,
                "pitch": 31,
                "velocity": 80,
                "duration": 0.0977273,
                "tempo": 120.0
            },
            {
                "start_time": 60.1454545,
                "end_time": 60.2409091,
                "pitch": 31,
                "velocity": 80,
                "duration": 0.0954545,
                "tempo": 120.0
            },
            {
                "start_time": 60.2590909,
                "end_time": 60.3681818,
                "pitch": 31,
                "velocity": 80,
                "duration": 0.1090909,
                "tempo": 120.0
            },
            {
                "start_time": 60.3840909,
                "end_time": 60.4795455,
                "pitch": 31,
                "velocity": 80,
                "duration": 0.0954545,
                "tempo": 120.0
            },
            {
                "start_time": 60.4954545,
                "end_time": 60.5909091,
                "pitch": 31,
                "velocity": 80,
                "duration": 0.0954545,
                "tempo": 120.0
            },
            {
                "start_time": 60.6068182,
                "end_time": 60.7045455,
                "pitch": 29,
                "velocity": 80,
                "duration": 0.0977273,
                "tempo": 120.0
            },
            {
                "start_time": 60.7386364,
                "end_time": 60.8386364,
                "pitch": 29,
                "velocity": 80,
                "duration": 0.1,
                "tempo": 120.0
            },
            {
                "start_time": 60.8568182,
                "end_time": 60.9568182,
                "pitch": 29,
                "velocity": 80,
                "duration": 0.1,
                "tempo": 120.0
            },
            {
                "start_time": 60.9727273,
                "end_time": 61.0727273,
                "pitch": 29,
                "velocity": 80,
                "duration": 0.1,
                "tempo": 120.0
            },
            {
                "start_time": 61.0909091,
                "end_time": 61.2068182,
                "pitch": 29,
                "velocity": 80,
                "duration": 0.1159091,
                "tempo": 120.0
            },
            {
                "start_time": 61.225,
                "end_time": 61.3227273,
                "pitch": 29,
                "velocity": 80,
                "duration": 0.0977273,
                "tempo": 120.0
            },
            {
                "start_time": 61.3409091,
                "end_time": 61.4386364,
                "pitch": 29,
                "velocity": 80,
                "duration": 0.0977273,
                "tempo": 120.0
            },
            {
                "start_time": 61.4545455,
                "end_time": 61.5522727,
                "pitch": 29,
                "velocity": 80,
                "duration": 0.0977273,
                "tempo": 120.0
            },
            {
                "start_time": 61.5863636,
                "end_time": 61.6818182,
                "pitch": 29,
                "velocity": 80,
                "duration": 0.0954545,
                "tempo": 120.0
            },
            {
                "start_time": 61.7,
                "end_time": 61.8,
                "pitch": 29,
                "velocity": 80,
                "duration": 0.1,
                "tempo": 120.0
            },
            {
                "start_time": 61.8159091,
                "end_time": 61.9159091,
                "pitch": 29,
                "velocity": 80,
                "duration": 0.1,
                "tempo": 120.0
            },
            {
                "start_time": 61.9340909,
                "end_time": 62.0318182,
                "pitch": 29,
                "velocity": 80,
                "duration": 0.0977273,
                "tempo": 120.0
            },
            {
                "start_time": 62.0681818,
                "end_time": 62.1659091,
                "pitch": 28,
                "velocity": 80,
                "duration": 0.0977273,
                "tempo": 120.0
            },
            {
                "start_time": 62.1840909,
                "end_time": 62.2840909,
                "pitch": 28,
                "velocity": 80,
                "duration": 0.1,
                "tempo": 120.0
            },
            {
                "start_time": 62.3,
                "end_time": 62.4,
                "pitch": 28,
                "velocity": 80,
                "duration": 0.1,
                "tempo": 120.0
            },
            {
                "start_time": 62.4340909,
                "end_time": 62.5318182,
                "pitch": 28,
                "velocity": 80,
                "duration": 0.0977273,
                "tempo": 120.0
            },
            {
                "start_time": 62.5477273,
                "end_time": 62.6454545,
                "pitch": 28,
                "velocity": 80,
                "duration": 0.0977273,
                "tempo": 120.0
            },
            {
                "start_time": 62.6636364,
                "end_time": 62.7590909,
                "pitch": 28,
                "velocity": 80,
                "duration": 0.0954545,
                "tempo": 120.0
            },
            {
                "start_time": 62.7772727,
                "end_time": 62.8704545,
                "pitch": 28,
                "velocity": 80,
                "duration": 0.0931818,
                "tempo": 120.0
            },
            {
                "start_time": 62.9022727,
                "end_time": 62.9977273,
                "pitch": 28,
                "velocity": 80,
                "duration": 0.0954545,
                "tempo": 120.0
            },
            {
                "start_time": 63.0136364,
                "end_time": 63.1090909,
                "pitch": 28,
                "velocity": 80,
                "duration": 0.0954545,
                "tempo": 120.0
            },
            {
                "start_time": 63.125,
                "end_time": 63.225,
                "pitch": 28,
                "velocity": 80,
                "duration": 0.1,
                "tempo": 120.0
            },
            {
                "start_time": 63.2409091,
                "end_time": 63.3568182,
                "pitch": 28,
                "velocity": 80,
                "duration": 0.1159091,
                "tempo": 120.0
            },
            {
                "start_time": 63.375,
                "end_time": 63.475,
                "pitch": 28,
                "velocity": 80,
                "duration": 0.1,
                "tempo": 120.0
            },
            {
                "start_time": 63.4931818,
                "end_time": 63.5909091,
                "pitch": 27,
                "velocity": 80,
                "duration": 0.0977273,
                "tempo": 120.0
            },
            {
                "start_time": 63.6090909,
                "end_time": 63.7090909,
                "pitch": 27,
                "velocity": 80,
                "duration": 0.1,
                "tempo": 120.0
            },
            {
                "start_time": 63.7431818,
                "end_time": 63.8409091,
                "pitch": 27,
                "velocity": 80,
                "duration": 0.0977273,
                "tempo": 120.0
            },
            {
                "start_time": 63.8590909,
                "end_time": 63.9590909,
                "pitch": 27,
                "velocity": 80,
                "duration": 0.1,
                "tempo": 120.0
            },
            {
                "start_time": 63.9772727,
                "end_time": 64.075,
                "pitch": 27,
                "velocity": 80,
                "duration": 0.0977273,
                "tempo": 120.0
            },
            {
                "start_time": 64.0931818,
                "end_time": 64.2090909,
                "pitch": 27,
                "velocity": 80,
                "duration": 0.1159091,
                "tempo": 120.0
            },
            {
                "start_time": 64.2272727,
                "end_time": 64.325,
                "pitch": 27,
                "velocity": 80,
                "duration": 0.0977273,
                "tempo": 120.0
            },
            {
                "start_time": 64.3409091,
                "end_time": 64.4386364,
                "pitch": 27,
                "velocity": 80,
                "duration": 0.0977273,
                "tempo": 120.0
            },
            {
                "start_time": 64.4545455,
                "end_time": 64.5522727,
                "pitch": 27,
                "velocity": 80,
                "duration": 0.0977273,
                "tempo": 120.0
            },
            {
                "start_time": 64.5863636,
                "end_time": 64.6840909,
                "pitch": 27,
                "velocity": 80,
                "duration": 0.0977273,
                "tempo": 120.0
            },
            {
                "start_time": 64.7022727,
                "end_time": 64.8022727,
                "pitch": 27,
                "velocity": 80,
                "duration": 0.1,
                "tempo": 120.0
            },
            {
                "start_time": 64.8204545,
                "end_time": 64.9181818,
                "pitch": 27,
                "velocity": 80,
                "duration": 0.0977273,
                "tempo": 120.0
            },
            {
                "start_time": 64.9386364,
                "end_time": 65.0636364,
                "pitch": 31,
                "velocity": 80,
                "duration": 0.125,
                "tempo": 120.0
            }
        ],
        "Clarinet": [
            {
                "start_time": 7.3681818,
                "end_time": 8.8363636,
                "pitch": 79,
                "velocity": 64,
                "duration": 1.4681818,
                "tempo": 120.0
            },
            {
                "start_time": 8.8363636,
                "end_time": 9.0045455,
                "pitch": 78,
                "velocity": 64,
                "duration": 0.1681818,
                "tempo": 120.0
            },
            {
                "start_time": 9.0045455,
                "end_time": 9.1886364,
                "pitch": 75,
                "velocity": 64,
                "duration": 0.1840909,
                "tempo": 120.0
            },
            {
                "start_time": 9.1886364,
                "end_time": 9.25,
                "pitch": 72,
                "velocity": 64,
                "duration": 0.0613636,
                "tempo": 120.0
            },
            {
                "start_time": 9.25,
                "end_time": 9.3613636,
                "pitch": 71,
                "velocity": 64,
                "duration": 0.1113636,
                "tempo": 120.0
            },
            {
                "start_time": 9.3613636,
                "end_time": 11.8772727,
                "pitch": 69,
                "velocity": 64,
                "duration": 2.5159091,
                "tempo": 120.0
            },
            {
                "start_time": 11.8772727,
                "end_time": 11.9431818,
                "pitch": 71,
                "velocity": 64,
                "duration": 0.0659091,
                "tempo": 120.0
            },
            {
                "start_time": 11.9431818,
                "end_time": 12.0568182,
                "pitch": 72,
                "velocity": 64,
                "duration": 0.1136364,
                "tempo": 120.0
            },
            {
                "start_time": 12.0568182,
                "end_time": 12.1727273,
                "pitch": 74,
                "velocity": 64,
                "duration": 0.1159091,
                "tempo": 120.0
            },
            {
                "start_time": 11.9431818,
                "end_time": 12.3568182,
                "pitch": 76,
                "velocity": 64,
                "duration": 0.4136364,
                "tempo": 120.0
            },
            {
                "start_time": 12.1727273,
                "end_time": 12.3568182,
                "pitch": 76,
                "velocity": 64,
                "duration": 0.1840909,
                "tempo": 120.0
            },
            {
                "start_time": 12.3568182,
                "end_time": 13.125,
                "pitch": 79,
                "velocity": 64,
                "duration": 0.7681818,
                "tempo": 120.0
            }
        ]
    }
}