{
    "mood": "angry",
    "instruments": {
        "Clarinet": [
            {
                "start_time": 0.0,
                "end_time": 0.0613636,
                "pitch": 56,
                "velocity": 80,
                "duration": 0.0613636,
                "tempo": 120.0
            },
            {
                "start_time": 0.0772727,
                "end_time": 0.1545455,
                "pitch": 56,
                "velocity": 80,
                "duration": 0.0772727,
                "tempo": 120.0
            },
            {
                "start_time": 0.1704545,
                "end_time": 0.2636364,
                "pitch": 56,
                "velocity": 80,
                "duration": 0.0931818,
                "tempo": 120.0
            },
            {
                "start_time": 0.2795455,
                "end_time": 0.4522727,
                "pitch": 66,
                "velocity": 80,
                "duration": 0.1727273,
                "tempo": 120.0
            },
            {
                "start_time": 0.4681818,
                "end_time": 0.5636364,
                "pitch": 66,
                "velocity": 80,
                "duration": 0.0954545,
                "tempo": 120.0
            },
            {
                "start_time": 0.5795455,
                "end_time": 0.7704545,
                "pitch": 68,
                "velocity": 80,
                "duration": 0.1909091,
                "tempo": 120.0
            },
            {
                "start_time": 0.7863636,
                "end_time": 0.9659091,
                "pitch": 56,
                "velocity": 80,
                "duration": 0.1795455,
                "tempo": 120.0
            },
            {
                "start_time": 0.9818182,
                "end_time": 1.1795455,
                "pitch": 65,
                "velocity": 80,
                "duration": 0.1977273,
                "tempo": 120.0
            },
            {
                "start_time": 1.1954545,
                "end_time": 1.3954545,
                "pitch": 66,
                "velocity": 80,
                "duration": 0.2,
                "tempo": 120.0
            },
            {
                "start_time": 1.4136364,
                "end_time": 1.6136364,
                "pitch": 65,
                "velocity": 80,
                "duration": 0.2,
                "tempo": 120.0
            },
            {
                "start_time": 1.6295455,
                "end_time": 1.7113636,
                "pitch": 56,
                "velocity": 80,
                "duration": 0.0818182,
                "tempo": 120.0
            },
            {
                "start_time": 1.7295455,
                "end_time": 1.8272727,
                "pitch": 56,
                "velocity": 80,
                "duration": 0.0977273,
                "tempo": 120.0
            },
            {
                "start_time": 1.8431818,
                "end_time": 1.925,
                "pitch": 56,
                "velocity": 80,
                "duration": 0.0818182,
                "tempo": 120.0
            },
            {
                "start_time": 1.9409091,
                "end_time": 2.1409091,
                "pitch": 66,
                "velocity": 80,
                "duration": 0.2,
                "tempo": 120.0
            },
            {
                "start_time": 2.1568182,
                "end_time": 2.2409091,
                "pitch": 66,
                "velocity": 80,
                "duration": 0.0840909,
                "tempo": 120.0
            },
            {
                "start_time": 2.2568182,
                "end_time": 2.4590909,
                "pitch": 68,
                "velocity": 80,
                "duration": 0.2022727,
                "tempo": 120.0
            },
            {
                "start_time": 2.475,
                "end_time": 2.6704545,
                "pitch": 56,
                "velocity": 80,
                "duration": 0.1954545,
                "tempo": 120.0
            },
            {
                "start_time": 2.6886364,
                "end_time": 2.8840909,
                "pitch": 65,
                "velocity": 80,
                "duration": 0.1954545,
                "tempo": 120.0
            },
            {
                "start_time": 2.9,
                "end_time": 3.3113636,
                "pitch": 66,
                "velocity": 80,
                "duration": 0.4113636,
                "tempo": 120.0
            },
            {
                "start_time": 3.3272727,
                "end_time": 3.4272727,
                "pitch": 56,
                "velocity": 80,
                "duration": 0.1,
                "tempo": 120.0
            },
            {
                "start_time": 3.4431818,
                "end_time": 3.525,
                "pitch": 56,
                "velocity": 80,
                "duration": 0.0818182,
                "tempo": 120.0
            },
            {
                "start_time": 3.5409091,
                "end_time": 3.6227273,
                "pitch": 56,
                "velocity": 80,
                "duration": 0.0818182,
                "tempo": 120.0
            },
            {
                "start_time": 3.6386364,
                "end_time": 3.8386364,
                "pitch": 66,
                "velocity": 80,
                "duration": 0.2,
                "tempo": 120.0
            },
            {
                "start_time": 3.8545455,
                "end_time": 3.9545455,
                "pitch": 66,
                "velocity": 80,
                "duration": 0.1,
                "tempo": 120.0
            },
            {
                "start_time": 3.9727273,
                "end_time": 4.1568182,
                "pitch": 68,
                "velocity": 80,
                "duration": 0.1840909,
                "tempo": 120.0
            },
            {
                "start_time": 4.1727273,
                "end_time": 4.3636364,
                "pitch": 56,
                "velocity": 80,
                "duration": 0.1909091,
                "tempo": 120.0
            },
            {
                "start_time": 4.3795455,
                "end_time": 4.5704545,
                "pitch": 65,
                "velocity": 80,
                "duration": 0.1909091,
                "tempo": 120.0
            },
            {
                "start_time": 4.5863636,
                "end_time": 4.7909091,
                "pitch": 66,
                "velocity": 80,
                "duration": 0.2045455,
                "tempo": 120.0
            },
            {
                "start_time": 4.8090909,
                "end_time": 5.0136364,
                "pitch": 65,
                "velocity": 80,
                "duration": 0.2045455,
                "tempo": 120.0
            },
            {
                "start_time": 5.0318182,
                "end_time": 5.1136364,
                "pitch": 56,
                "velocity": 80,
                "duration": 0.0818182,
                "tempo": 120.0
            },
            {
                "start_time": 5.1318182,
                "end_time": 5.2159091,
                "pitch": 56,
                "velocity": 80,
                "duration": 0.0840909,
                "tempo": 120.0
            },
            {
                "start_time": 5.2318182,
                "end_time": 5.3318182,
                "pitch": 56,
                "velocity": 80,
                "duration": 0.1,
                "tempo": 120.0
            },
            {
                "start_time": 5.35,
                "end_time": 5.4318182,
                "pitch": 56,
                "velocity": 80,
                "duration": 0.0818182,
                "tempo": 120.0
            },
            {
                "start_time": 5.5636364,
                "end_time": 5.6454545,
                "pitch": 56,
                "velocity": 80,
                "duration": 0.0818182,
                "tempo": 120.0
            },
            {
                "start_time": 5.6613636,
                "end_time": 5.7431818,
                "pitch": 56,
                "velocity": 80,
                "duration": 0.0818182,
                "tempo": 120.0
            },
            {
                "start_time": 5.7613636,
                "end_time": 5.8590909,
                "pitch": 56,
                "velocity": 80,
                "duration": 0.0977273,
                "tempo": 120.0
            },
            {
                "start_time": 6.0931818,
                "end_time": 6.2772727,
                "pitch": 53,
                "velocity": 80,
                "duration": 0.1840909,
                "tempo": 120.0
            },
            {
                "start_time": 6.2931818,
                "end_time": 6.4909091,
                "pitch": 54,
                "velocity": 80,
                "duration": 0.1977273,
                "tempo": 120.0
            },
            {
                "start_time": 6.5068182,
                "end_time": 6.7022727,
                "pitch": 55,
                "velocity": 80,
                "duration": 0.1954545,
                "tempo": 120.0
            },
            {
                "start_time": 6.7204545,
                "end_time": 13.6159091,
                "pitch": 56,
                "velocity": 80,
                "duration": 6.8954545,
                "tempo": 120.0
            },
            {
                "start_time": 13.6340909,
                "end_time": 13.7204545,
                "pitch": 56,
                "velocity": 80,
                "duration": 0.0863636,
                "tempo": 120.0
            },
            {
                "start_time": 13.7386364,
                "end_time": 13.8431818,
                "pitch": 56,
                "velocity": 80,
                "duration": 0.1045455,
                "tempo": 120.0
            },
            {
                "start_time": 13.8613636,
                "end_time": 14.0613636,
                "pitch": 66,
                "velocity": 80,
                "duration": 0.2,
                "tempo": 120.0
            },
            {
                "start_time": 14.0772727,
                "end_time": 14.1568182,
                "pitch": 66,
                "velocity": 80,
                "duration": 0.0795455,
                "tempo": 120.0
            },
            {
                "start_time": 14.1727273,
                "end_time": 14.3659091,
                "pitch": 68,
                "velocity": 80,
                "duration": 0.1931818,
                "tempo": 120.0
            },
            {
                "start_time": 14.3818182,
                "end_time": 14.5772727,
                "pitch": 56,
                "velocity": 80,
                "duration": 0.1954545,
                "tempo": 120.0
            },
            {
                "start_time": 14.5931818,
                "end_time": 14.775,
                "pitch": 65,
                "velocity": 80,
                "duration": 0.1818182,
                "tempo": 120.0
            },
            {
                "start_time": 14.7909091,
                "end_time": 14.9863636,
                "pitch": 66,
                "velocity": 80,
                "duration": 0.1954545,
                "tempo": 120.0
            },
            {
                "start_time": 15.0022727,
                "end_time": 15.2,
                "pitch": 65,
                "velocity": 80,
                "duration": 0.1977273,
                "tempo": 120.0
            },
            {
                "start_time": 15.2159091,
                "end_time": 15.3,
                "pitch": 56,
                "velocity": 80,
                "duration": 0.0840909,
                "tempo": 120.0
            },
            {
                "start_time": 15.3159091,
                "end_time": 15.4181818,
                "pitch": 56,
                "velocity": 80,
                "duration": 0.1022727,
                "tempo": 120.0
            },
            {
                "start_time": 15.4340909,
                "end_time": 15.5181818,
                "pitch": 56,
                "velocity": 80,
                "duration": 0.0840909,
                "tempo": 120.0
            },
            {
                "start_time": 15.5340909,
                "end_time": 15.7363636,
                "pitch": 66,
                "velocity": 80,
                "duration": 0.2022727,
                "tempo": 120.0
            },
            {
                "start_time": 15.7545455,
                "end_time": 15.8386364,
                "pitch": 66,
                "velocity": 80,
                "duration": 0.0840909,
                "tempo": 120.0
            },
            {
                "start_time": 15.8568182,
                "end_time": 16.0613636,
                "pitch": 68,
                "velocity": 80,
                "duration": 0.2045455,
                "tempo": 120.0
            },
            {
                "start_time": 16.0795455,
                "end_time": 16.2704545,
                "pitch": 56,
                "velocity": 80,
                "duration": 0.1909091,
                "tempo": 120.0
            },
            {
                "start_time": 16.2863636,
                "end_time": 16.4772727,
                "pitch": 65,
                "velocity": 80,
                "duration": 0.1909091,
                "tempo": 120.0
            },
            {
                "start_time": 16.4931818,
                "end_time": 16.9022727,
                "pitch": 66,
                "velocity": 80,
                "duration": 0.4090909,
                "tempo": 120.0
            },
            {
                "start_time": 16.9204545,
                "end_time": 17.0181818,
                "pitch": 56,
                "velocity": 80,
                "duration": 0.0977273,
                "tempo": 120.0
            },
            {
                "start_time": 17.0340909,
                "end_time": 17.1159091,
                "pitch": 56,
                "velocity": 80,
                "duration": 0.0818182,
                "tempo": 120.0
            },
            {
                "start_time": 17.1340909,
                "end_time": 17.2318182,
                "pitch": 56,
                "velocity": 80,
                "duration": 0.0977273,
                "tempo": 120.0
            },
            {
                "start_time": 17.2477273,
                "end_time": 17.4295455,
                "pitch": 66,
                "velocity": 80,
                "duration": 0.1818182,
                "tempo": 120.0
            },
            {
                "start_time": 17.4477273,
                "end_time": 17.5477273,
                "pitch": 66,
                "velocity": 80,
                "duration": 0.1,
                "tempo": 120.0
            },
            {
                "start_time": 17.5636364,
                "end_time": 17.7636364,
                "pitch": 68,
                "velocity": 80,
                "duration": 0.2,
                "tempo": 120.0
            },
            {
                "start_time": 17.7818182,
                "end_time": 17.9659091,
                "pitch": 56,
                "velocity": 80,
                "duration": 0.1840909,
                "tempo": 120.0
            },
            {
                "start_time": 17.9818182,
                "end_time": 18.1818182,
                "pitch": 65,
                "velocity": 80,
                "duration": 0.2,
                "tempo": 120.0
            },
            {
                "start_time": 18.2,
                "end_time": 18.3954545,
                "pitch": 66,
                "velocity": 80,
                "duration": 0.1954545,
                "tempo": 120.0
            },
            {
                "start_time": 18.4136364,
                "end_time": 18.6090909,
                "pitch": 65,
                "velocity": 80,
                "duration": 0.1954545,
                "tempo": 120.0
            },
            {
                "start_time": 18.625,
                "end_time": 18.7090909,
                "pitch": 56,
                "velocity": 80,
                "duration": 0.0840909,
                "tempo": 120.0
            },
            {
                "start_time": 18.725,
                "end_time": 18.8272727,
                "pitch": 56,
                "velocity": 80,
                "duration": 0.1022727,
                "tempo": 120.0
            },
            {
                "start_time": 18.8431818,
                "end_time": 18.9272727,
                "pitch": 56,
                "velocity": 80,
                "duration": 0.0840909,
                "tempo": 120.0
            },
            {
                "start_time": 18.9431818,
                "end_time": 19.0272727,
                "pitch": 56,
                "velocity": 80,
                "duration": 0.0840909,
                "tempo": 120.0
            },
            {
                "start_time": 19.1590909,
                "end_time": 19.2409091,
                "pitch": 56,
                "velocity": 80,
                "duration": 0.0818182,
                "tempo": 120.0
            },
            {
                "start_time": 19.2568182,
                "end_time": 19.3545455,
                "pitch": 56,
                "velocity": 80,
                "duration": 0.0977273,
                "tempo": 120.0
            },
            {
                "start_time": 19.3704545,
                "end_time": 19.4545455,
                "pitch": 56,
                "velocity": 80,
                "duration": 0.0840909,
                "tempo": 120.0
            },
            {
                "start_time": 19.6863636,
                "end_time": 19.8886364,
                "pitch": 53,
                "velocity": 80,
                "duration": 0.2022727,
                "tempo": 120.0
            },
            {
                "start_time": 19.9045455,
                "end_time": 20.0931818,
                "pitch": 54,
                "velocity": 80,
                "duration": 0.1886364,
                "tempo": 120.0
            },
            {
                "start_time": 20.1090909,
                "end_time": 20.3159091,
                "pitch": 55,
                "velocity": 80,
                "duration": 0.2068182,
                "tempo": 120.0
            },
            {
                "start_time": 20.3318182,
                "end_time": 20.4340909,
                "pitch": 56,
                "velocity": 80,
                "duration": 0.1022727,
                "tempo": 120.0
            },
            {
                "start_time": 20.45,
                "end_time": 20.5340909,
                "pitch": 56,
                "velocity": 80,
                "duration": 0.0840909,
                "tempo": 120.0
            },
            {
                "start_time": 20.55,
                "end_time": 20.6340909,
                "pitch": 56,
                "velocity": 80,
                "duration": 0.0840909,
                "tempo": 120.0
            },
            {
                "start_time": 20.65,
                "end_time": 20.85,
                "pitch": 66,
                "velocity": 80,
                "duration": 0.2,
                "tempo": 120.0
            },
            {
                "start_time": 20.8659091,
                "end_time": 20.9636364,
                "pitch": 66,
                "velocity": 80,
                "duration": 0.0977273,
                "tempo": 120.0
            },
            {
                "start_time": 20.9818182,
                "end_time": 21.1613636,
                "pitch": 68,
                "velocity": 80,
                "duration": 0.1795455,
                "tempo": 120.0
            },
            {
                "start_time": 21.1772727,
                "end_time": 21.3681818,
                "pitch": 56,
                "velocity": 80,
                "duration": 0.1909091,
                "tempo": 120.0
            },
            {
                "start_time": 21.3840909,
                "end_time": 21.575,
                "pitch": 65,
                "velocity": 80,
                "duration": 0.1909091,
                "tempo": 120.0
            },
            {
                "start_time": 21.5909091,
                "end_time": 21.7954545,
                "pitch": 66,
                "velocity": 80,
                "duration": 0.2045455,
                "tempo": 120.0
            },
            {
                "start_time": 21.8136364,
                "end_time": 22.0181818,
                "pitch": 65,
                "velocity": 80,
                "duration": 0.2045455,
                "tempo": 120.0
            },
            {
                "start_time": 22.0363636,
                "end_time": 22.1204545,
                "pitch": 56,
                "velocity": 80,
                "duration": 0.0840909,
                "tempo": 120.0
            },
            {
                "start_time": 22.1363636,
                "end_time": 22.2204545,
                "pitch": 56,
                "velocity": 80,
                "duration": 0.0840909,
                "tempo": 120.0
            },
            {
                "start_time": 22.2363636,
                "end_time": 22.3363636,
                "pitch": 56,
                "velocity": 80,
                "duration": 0.1,
                "tempo": 120.0
            },
            {
                "start_time": 22.3545455,
                "end_time": 22.5522727,
                "pitch": 66,
                "velocity": 80,
                "duration": 0.1977273,
                "tempo": 120.0
            },
            {
                "start_time": 22.5681818,
                "end_time": 22.65,
                "pitch": 66,
                "velocity": 80,
                "duration": 0.0818182,
                "tempo": 120.0
            },
            {
                "start_time": 22.6681818,
                "end_time": 22.8636364,
                "pitch": 68,
                "velocity": 80,
                "duration": 0.1954545,
                "tempo": 120.0
            },
            {
                "start_time": 22.8795455,
                "end_time": 23.0818182,
                "pitch": 56,
                "velocity": 80,
                "duration": 0.2022727,
                "tempo": 120.0
            },
            {
                "start_time": 23.0977273,
                "end_time": 23.2818182,
                "pitch": 65,
                "velocity": 80,
                "duration": 0.1840909,
                "tempo": 120.0
            },
            {
                "start_time": 23.2977273,
                "end_time": 23.7090909,
                "pitch": 66,
                "velocity": 80,
                "duration": 0.4113636,
                "tempo": 120.0
            },
            {
                "start_time": 23.725,
                "end_time": 23.8090909,
                "pitch": 56,
                "velocity": 80,
                "duration": 0.0840909,
                "tempo": 120.0
            },
            {
                "start_time": 23.825,
                "end_time": 23.925,
                "pitch": 56,
                "velocity": 80,
                "duration": 0.1,
                "tempo": 120.0
            },
            {
                "start_time": 23.9431818,
                "end_time": 24.025,
                "pitch": 56,
                "velocity": 80,
                "duration": 0.0818182,
                "tempo": 120.0
            },
            {
                "start_time": 24.0431818,
                "end_time": 24.2431818,
                "pitch": 66,
                "velocity": 80,
                "duration": 0.2,
                "tempo": 120.0
            },
            {
                "start_time": 24.2590909,
                "end_time": 24.3431818,
                "pitch": 66,
                "velocity": 80,
                "duration": 0.0840909,
                "tempo": 120.0
            },
            {
                "start_time": 24.3613636,
                "end_time": 24.5613636,
                "pitch": 68,
                "velocity": 80,
                "duration": 0.2,
                "tempo": 120.0
            },
            {
                "start_time": 24.5772727,
                "end_time": 24.775,
                "pitch": 56,
                "velocity": 80,
                "duration": 0.1977273,
                "tempo": 120.0
            },
            {
                "start_time": 24.7909091,
                "end_time": 24.9886364,
                "pitch": 65,
                "velocity": 80,
                "duration": 0.1977273,
                "tempo": 120.0
            },
            {
                "start_time": 25.0045455,
                "end_time": 25.2045455,
                "pitch": 66,
                "velocity": 80,
                "duration": 0.2,
                "tempo": 120.0
            },
            {
                "start_time": 25.2204545,
                "end_time": 25.4045455,
                "pitch": 65,
                "velocity": 80,
                "duration": 0.1840909,
                "tempo": 120.0
            },
            {
                "start_time": 25.4227273,
                "end_time": 25.5204545,
                "pitch": 56,
                "velocity": 80,
                "duration": 0.0977273,
                "tempo": 120.0
            },
            {
                "start_time": 25.5363636,
                "end_time": 25.6181818,
                "pitch": 56,
                "velocity": 80,
                "duration": 0.0818182,
                "tempo": 120.0
            },
            {
                "start_time": 25.6363636,
                "end_time": 25.7340909,
                "pitch": 56,
                "velocity": 80,
                "duration": 0.0977273,
                "tempo": 120.0
            },
            {
                "start_time": 25.75,
                "end_time": 25.8318182,
                "pitch": 56,
                "velocity": 80,
                "duration": 0.0818182,
                "tempo": 120.0
            },
            {
                "start_time": 25.95,
                "end_time": 26.0522727,
                "pitch": 56,
                "velocity": 80,
                "duration": 0.1022727,
                "tempo": 120.0
            },
            {
                "start_time": 26.0704545,
                "end_time": 26.1545455,
                "pitch": 56,
                "velocity": 80,
                "duration": 0.0840909,
                "tempo": 120.0
            },
            {
                "start_time": 26.1727273,
                "end_time": 26.275,
                "pitch": 56,
                "velocity": 80,
                "duration": 0.1022727,
                "tempo": 120.0
            },
            {
                "start_time": 26.4886364,
                "end_time": 26.6863636,
                "pitch": 53,
                "velocity": 80,
                "duration": 0.1977273,
                "tempo": 120.0
            },
            {
                "start_time": 26.7022727,
                "end_time": 26.8977273,
                "pitch": 54,
                "velocity": 80,
                "duration": 0.1954545,
                "tempo": 120.0
            },
            {
                "start_time": 26.9136364,
                "end_time": 27.1113636,
                "pitch": 55,
                "velocity": 80,
                "duration": 0.1977273,
                "tempo": 120.0
            },
            {
                "start_time": 27.1272727,
                "end_time": 47.5454545,
                "pitch": 56,
                "velocity": 80,
                "duration": 20.4181818,
                "tempo": 120.0
            }
        ],
        "Acoustic Bass": [
            {
                "start_time": 8.4227273,
                "end_time": 9.675,
                "pitch": 56,
                "velocity": 101,
                "duration": 1.2522727,
                "tempo": 120.0
            },
            {
                "start_time": 10.125,
                "end_time": 11.3886364,
                "pitch": 54,
                "velocity": 101,
                "duration": 1.2636364,
                "tempo": 120.0
            },
            {
                "start_time": 11.8227273,
                "end_time": 13.0772727,
                "pitch": 54,
                "velocity": 101,
                "duration": 1.2545455,
                "tempo": 120.0
            }
        ],
        "Electric Guitar (clean)": [
            {
                "start_time": 0.0,
                "end_time": 0.1545455,
                "pitch": 32,
                "velocity": 64,
                "duration": 0.1545455,
                "tempo": 120.0
            },
            {
                "start_time": 0.1704545,
                "end_time": 0.3568182,
                "pitch": 32,
                "velocity": 64,
                "duration": 0.1863636,
                "tempo": 120.0
            },
            {
                "start_time": 0.3727273,
                "end_time": 0.5636364,
                "pitch": 44,
                "velocity": 64,
                "duration": 0.1909091,
                "tempo": 120.0
            },
            {
                "start_time": 0.5795455,
                "end_time": 0.6590909,
                "pitch": 32,
                "velocity": 64,
                "duration": 0.0795455,
                "tempo": 120.0
            },
            {
                "start_time": 0.675,
                "end_time": 0.8681818,
                "pitch": 42,
                "velocity": 64,
                "duration": 0.1931818,
                "tempo": 120.0
            },
            {
                "start_time": 0.8840909,
                "end_time": 0.9659091,
                "pitch": 32,
                "velocity": 64,
                "duration": 0.0818182,
                "tempo": 120.0
            },
            {
                "start_time": 0.9818182,
                "end_time": 1.1795455,
                "pitch": 41,
                "velocity": 64,
                "duration": 0.1977273,
                "tempo": 120.0
            },
            {
                "start_time": 1.1954545,
                "end_time": 1.3954545,
                "pitch": 39,
                "velocity": 64,
                "duration": 0.2,
                "tempo": 120.0
            },
            {
                "start_time": 1.4136364,
                "end_time": 1.6136364,
                "pitch": 41,
                "velocity": 64,
                "duration": 0.2,
                "tempo": 120.0
            },
            {
                "start_time": 1.6295455,
                "end_time": 1.8272727,
                "pitch": 32,
                "velocity": 64,
                "duration": 0.1977273,
                "tempo": 120.0
            },
            {
                "start_time": 1.8431818,
                "end_time": 2.0227273,
                "pitch": 32,
                "velocity": 64,
                "duration": 0.1795455,
                "tempo": 120.0
            },
            {
                "start_time": 2.0409091,
                "end_time": 2.2409091,
                "pitch": 44,
                "velocity": 64,
                "duration": 0.2,
                "tempo": 120.0
            },
            {
                "start_time": 2.2568182,
                "end_time": 2.3568182,
                "pitch": 32,
                "velocity": 64,
                "duration": 0.1,
                "tempo": 120.0
            },
            {
                "start_time": 2.375,
                "end_time": 2.5568182,
                "pitch": 42,
                "velocity": 64,
                "duration": 0.1818182,
                "tempo": 120.0
            },
            {
                "start_time": 2.5727273,
                "end_time": 2.6704545,
                "pitch": 32,
                "velocity": 64,
                "duration": 0.0977273,
                "tempo": 120.0
            },
            {
                "start_time": 2.6886364,
                "end_time": 2.8840909,
                "pitch": 41,
                "velocity": 64,
                "duration": 0.1954545,
                "tempo": 120.0
            },
            {
                "start_time": 2.9,
                "end_time": 3.3113636,
                "pitch": 39,
                "velocity": 64,
                "duration": 0.4113636,
                "tempo": 120.0
            },
            {
                "start_time": 3.3272727,
                "end_time": 3.525,
                "pitch": 32,
                "velocity": 64,
                "duration": 0.1977273,
                "tempo": 120.0
            },
            {
                "start_time": 3.5409091,
                "end_time": 3.7386364,
                "pitch": 32,
                "velocity": 64,
                "duration": 0.1977273,
                "tempo": 120.0
            },
            {
                "start_time": 3.7545455,
                "end_time": 3.9545455,
                "pitch": 44,
                "velocity": 64,
                "duration": 0.2,
                "tempo": 120.0
            },
            {
                "start_time": 3.9727273,
                "end_time": 4.0545455,
                "pitch": 32,
                "velocity": 64,
                "duration": 0.0818182,
                "tempo": 120.0
            },
            {
                "start_time": 4.0727273,
                "end_time": 4.2681818,
                "pitch": 42,
                "velocity": 64,
                "duration": 0.1954545,
                "tempo": 120.0
            },
            {
                "start_time": 4.2840909,
                "end_time": 4.3636364,
                "pitch": 32,
                "velocity": 64,
                "duration": 0.0795455,
                "tempo": 120.0
            },
            {
                "start_time": 4.3795455,
                "end_time": 4.5704545,
                "pitch": 41,
                "velocity": 64,
                "duration": 0.1909091,
                "tempo": 120.0
            },
            {
                "start_time": 4.5863636,
                "end_time": 4.7909091,
                "pitch": 39,
                "velocity": 64,
                "duration": 0.2045455,
                "tempo": 120.0
            },
            {
                "start_time": 4.8090909,
                "end_time": 5.0136364,
                "pitch": 41,
                "velocity": 64,
                "duration": 0.2045455,
                "tempo": 120.0
            },
            {
                "start_time": 5.0318182,
                "end_time": 5.2159091,
                "pitch": 32,
                "velocity": 64,
                "duration": 0.1840909,
                "tempo": 120.0
            },
            {
                "start_time": 5.2318182,
                "end_time": 5.4318182,
                "pitch": 32,
                "velocity": 64,
                "duration": 0.2,
                "tempo": 120.0
            },
            {
                "start_time": 5.45,
                "end_time": 5.6454545,
                "pitch": 44,
                "velocity": 64,
                "duration": 0.1954545,
                "tempo": 120.0
            },
            {
                "start_time": 5.6613636,
                "end_time": 5.7431818,
                "pitch": 32,
                "velocity": 64,
                "duration": 0.0818182,
                "tempo": 120.0
            },
            {
                "start_time": 5.7613636,
                "end_time": 5.8590909,
                "pitch": 44,
                "velocity": 64,
                "duration": 0.0977273,
                "tempo": 120.0
            },
            {
                "start_time": 6.0931818,
                "end_time": 6.2772727,
                "pitch": 37,
                "velocity": 64,
                "duration": 0.1840909,
                "tempo": 120.0
            },
            {
                "start_time": 6.2931818,
                "end_time": 6.4909091,
                "pitch": 38,
                "velocity": 64,
                "duration": 0.1977273,
                "tempo": 120.0
            },
            {
                "start_time": 6.5068182,
                "end_time": 6.7022727,
                "pitch": 39,
                "velocity": 64,
                "duration": 0.1954545,
                "tempo": 120.0
            },
            {
                "start_time": 6.7204545,
                "end_time": 6.925,
                "pitch": 44,
                "velocity": 64,
                "duration": 0.2045455,
                "tempo": 120.0
            },
            {
                "start_time": 6.9409091,
                "end_time": 7.0272727,
                "pitch": 32,
                "velocity": 64,
                "duration": 0.0863636,
                "tempo": 120.0
            },
            {
                "start_time": 7.0431818,
                "end_time": 7.1477273,
                "pitch": 42,
                "velocity": 64,
                "duration": 0.1045455,
                "tempo": 120.0
            },
            {
                "start_time": 7.1636364,
                "end_time": 7.3477273,
                "pitch": 32,
                "velocity": 64,
                "duration": 0.1840909,
                "tempo": 120.0
            },
            {
                "start_time": 7.3636364,
                "end_time": 7.5659091,
                "pitch": 41,
                "velocity": 64,
                "duration": 0.2022727,
                "tempo": 120.0
            },
            {
                "start_time": 7.5818182,
                "end_time": 7.7727273,
                "pitch": 32,
                "velocity": 64,
                "duration": 0.1909091,
                "tempo": 120.0
            },
            {
                "start_time": 7.7886364,
                "end_time": 7.9795455,
                "pitch": 39,
                "velocity": 64,
                "duration": 0.1909091,
                "tempo": 120.0
            },
            {
                "start_time": 7.9954545,
                "end_time": 8.2022727,
                "pitch": 32,
                "velocity": 64,
                "duration": 0.2068182,
                "tempo": 120.0
            },
            {
                "start_time": 8.2181818,
                "end_time": 8.4068182,
                "pitch": 41,
                "velocity": 64,
                "duration": 0.1886364,
                "tempo": 120.0
            },
            {
                "start_time": 8.4227273,
                "end_time": 8.6136364,
                "pitch": 44,
                "velocity": 64,
                "duration": 0.1909091,
                "tempo": 120.0
            },
            {
                "start_time": 8.6295455,
                "end_time": 8.7272727,
                "pitch": 32,
                "velocity": 64,
                "duration": 0.0977273,
                "tempo": 120.0
            },
            {
                "start_time": 8.7431818,
                "end_time": 8.8227273,
                "pitch": 42,
                "velocity": 64,
                "duration": 0.0795455,
                "tempo": 120.0
            },
            {
                "start_time": 8.8386364,
                "end_time": 9.0431818,
                "pitch": 32,
                "velocity": 64,
                "duration": 0.2045455,
                "tempo": 120.0
            },
            {
                "start_time": 9.0590909,
                "end_time": 9.2659091,
                "pitch": 41,
                "velocity": 64,
                "duration": 0.2068182,
                "tempo": 120.0
            },
            {
                "start_time": 9.2818182,
                "end_time": 9.4613636,
                "pitch": 32,
                "velocity": 64,
                "duration": 0.1795455,
                "tempo": 120.0
            },
            {
                "start_time": 9.4772727,
                "end_time": 9.675,
                "pitch": 39,
                "velocity": 64,
                "duration": 0.1977273,
                "tempo": 120.0
            },
            {
                "start_time": 9.6909091,
                "end_time": 9.8909091,
                "pitch": 32,
                "velocity": 64,
                "duration": 0.2,
                "tempo": 120.0
            },
            {
                "start_time": 9.9090909,
                "end_time": 10.1090909,
                "pitch": 41,
                "velocity": 64,
                "duration": 0.2,
                "tempo": 120.0
            },
            {
                "start_time": 10.125,
                "end_time": 10.3272727,
                "pitch": 42,
                "velocity": 64,
                "duration": 0.2022727,
                "tempo": 120.0
            },
            {
                "start_time": 10.3431818,
                "end_time": 10.4272727,
                "pitch": 30,
                "velocity": 64,
                "duration": 0.0840909,
                "tempo": 120.0
            },
            {
                "start_time": 10.4431818,
                "end_time": 10.5272727,
                "pitch": 41,
                "velocity": 64,
                "duration": 0.0840909,
                "tempo": 120.0
            },
            {
                "start_time": 10.5454545,
                "end_time": 10.7409091,
                "pitch": 30,
                "velocity": 64,
                "duration": 0.1954545,
                "tempo": 120.0
            },
            {
                "start_time": 10.7568182,
                "end_time": 10.9545455,
                "pitch": 39,
                "velocity": 64,
                "duration": 0.1977273,
                "tempo": 120.0
            },
            {
                "start_time": 10.9704545,
                "end_time": 11.1704545,
                "pitch": 30,
                "velocity": 64,
                "duration": 0.2,
                "tempo": 120.0
            },
            {
                "start_time": 11.1886364,
                "end_time": 11.3886364,
                "pitch": 37,
                "velocity": 64,
                "duration": 0.2,
                "tempo": 120.0
            },
            {
                "start_time": 11.4045455,
                "end_time": 11.5886364,
                "pitch": 30,
                "velocity": 64,
                "duration": 0.1840909,
                "tempo": 120.0
            },
            {
                "start_time": 11.6068182,
                "end_time": 11.8068182,
                "pitch": 39,
                "velocity": 64,
                "duration": 0.2,
                "tempo": 120.0
            },
            {
                "start_time": 11.8227273,
                "end_time": 12.0204545,
                "pitch": 42,
                "velocity": 64,
                "duration": 0.1977273,
                "tempo": 120.0
            },
            {
                "start_time": 12.0363636,
                "end_time": 12.1181818,
                "pitch": 30,
                "velocity": 64,
                "duration": 0.0818182,
                "tempo": 120.0
            },
            {
                "start_time": 12.1340909,
                "end_time": 12.2340909,
                "pitch": 41,
                "velocity": 64,
                "duration": 0.1,
                "tempo": 120.0
            },
            {
                "start_time": 12.25,
                "end_time": 12.45,
                "pitch": 30,
                "velocity": 64,
                "duration": 0.2,
                "tempo": 120.0
            },
            {
                "start_time": 12.4681818,
                "end_time": 12.6522727,
                "pitch": 39,
                "velocity": 64,
                "duration": 0.1840909,
                "tempo": 120.0
            },
            {
                "start_time": 12.6681818,
                "end_time": 12.8636364,
                "pitch": 30,
                "velocity": 64,
                "duration": 0.1954545,
                "tempo": 120.0
            },
            {
                "start_time": 12.8818182,
                "end_time": 13.0772727,
                "pitch": 37,
                "velocity": 64,
                "duration": 0.1954545,
                "tempo": 120.0
            },
            {
                "start_time": 13.0931818,
                "end_time": 13.2954545,
                "pitch": 30,
                "velocity": 64,
                "duration": 0.2022727,
                "tempo": 120.0
            },
            {
                "start_time": 13.3113636,
                "end_time": 13.5113636,
                "pitch": 39,
                "velocity": 64,
                "duration": 0.2,
                "tempo": 120.0
            },
            {
                "start_time": 13.5295455,
                "end_time": 13.7204545,
                "pitch": 32,
                "velocity": 64,
                "duration": 0.1909091,
                "tempo": 120.0
            },
            {
                "start_time": 13.7386364,
                "end_time": 13.9477273,
                "pitch": 32,
                "velocity": 64,
                "duration": 0.2090909,
                "tempo": 120.0
            },
            {
                "start_time": 13.9659091,
                "end_time": 14.1568182,
                "pitch": 44,
                "velocity": 64,
                "duration": 0.1909091,
                "tempo": 120.0
            },
            {
                "start_time": 14.1727273,
                "end_time": 14.2522727,
                "pitch": 32,
                "velocity": 64,
                "duration": 0.0795455,
                "tempo": 120.0
            },
            {
                "start_time": 14.2681818,
                "end_time": 14.4636364,
                "pitch": 42,
                "velocity": 64,
                "duration": 0.1954545,
                "tempo": 120.0
            },
            {
                "start_time": 14.4795455,
                "end_time": 14.5772727,
                "pitch": 32,
                "velocity": 64,
                "duration": 0.0977273,
                "tempo": 120.0
            },
            {
                "start_time": 14.5931818,
                "end_time": 14.775,
                "pitch": 41,
                "velocity": 64,
                "duration": 0.1818182,
                "tempo": 120.0
            },
            {
                "start_time": 14.7909091,
                "end_time": 14.9863636,
                "pitch": 39,
                "velocity": 64,
                "duration": 0.1954545,
                "tempo": 120.0
            },
            {
                "start_time": 15.0022727,
                "end_time": 15.2,
                "pitch": 41,
                "velocity": 64,
                "duration": 0.1977273,
                "tempo": 120.0
            },
            {
                "start_time": 15.2159091,
                "end_time": 15.4181818,
                "pitch": 32,
                "velocity": 64,
                "duration": 0.2022727,
                "tempo": 120.0
            },
            {
                "start_time": 15.4340909,
                "end_time": 15.6340909,
                "pitch": 32,
                "velocity": 64,
                "duration": 0.2,
                "tempo": 120.0
            },
            {
                "start_time": 15.6522727,
                "end_time": 15.8386364,
                "pitch": 44,
                "velocity": 64,
                "duration": 0.1863636,
                "tempo": 120.0
            },
            {
                "start_time": 15.8568182,
                "end_time": 15.9590909,
                "pitch": 32,
                "velocity": 64,
                "duration": 0.1022727,
                "tempo": 120.0
            },
            {
                "start_time": 15.9772727,
                "end_time": 16.175,
                "pitch": 42,
                "velocity": 64,
                "duration": 0.1977273,
                "tempo": 120.0
            },
            {
                "start_time": 16.1909091,
                "end_time": 16.2704545,
                "pitch": 32,
                "velocity": 64,
                "duration": 0.0795455,
                "tempo": 120.0
            },
            {
                "start_time": 16.2863636,
                "end_time": 16.4772727,
                "pitch": 41,
                "velocity": 64,
                "duration": 0.1909091,
                "tempo": 120.0
            },
            {
                "start_time": 16.4931818,
                "end_time": 16.9022727,
                "pitch": 39,
                "velocity": 64,
                "duration": 0.4090909,
                "tempo": 120.0
            },
            {
                "start_time": 16.9204545,
                "end_time": 17.1159091,
                "pitch": 32,
                "velocity": 64,
                "duration": 0.1954545,
                "tempo": 120.0
            },
            {
                "start_time": 17.1340909,
                "end_time": 17.3295455,
                "pitch": 32,
                "velocity": 64,
                "duration": 0.1954545,
                "tempo": 120.0
            },
            {
                "start_time": 17.3454545,
                "end_time": 17.5477273,
                "pitch": 44,
                "velocity": 64,
                "duration": 0.2022727,
                "tempo": 120.0
            },
            {
                "start_time": 17.5636364,
                "end_time": 17.6477273,
                "pitch": 32,
                "velocity": 64,
                "duration": 0.0840909,
                "tempo": 120.0
            },
            {
                "start_time": 17.6636364,
                "end_time": 17.8659091,
                "pitch": 42,
                "velocity": 64,
                "duration": 0.2022727,
                "tempo": 120.0
            },
            {
                "start_time": 17.8818182,
                "end_time": 17.9659091,
                "pitch": 32,
                "velocity": 64,
                "duration": 0.0840909,
                "tempo": 120.0
            },
            {
                "start_time": 17.9818182,
                "end_time": 18.1818182,
                "pitch": 41,
                "velocity": 64,
                "duration": 0.2,
                "tempo": 120.0
            },
            {
                "start_time": 18.2,
                "end_time": 18.3954545,
                "pitch": 39,
                "velocity": 64,
                "duration": 0.1954545,
                "tempo": 120.0
            },
            {
                "start_time": 18.4136364,
                "end_time": 18.6090909,
                "pitch": 41,
                "velocity": 64,
                "duration": 0.1954545,
                "tempo": 120.0
            },
            {
                "start_time": 18.625,
                "end_time": 18.8272727,
                "pitch": 32,
                "velocity": 64,
                "duration": 0.2022727,
                "tempo": 120.0
            },
            {
                "start_time": 18.8431818,
                "end_time": 19.0272727,
                "pitch": 32,
                "velocity": 64,
                "duration": 0.1840909,
                "tempo": 120.0
            },
            {
                "start_time": 19.0431818,
                "end_time": 19.2409091,
                "pitch": 44,
                "velocity": 64,
                "duration": 0.1977273,
                "tempo": 120.0
            },
            {
                "start_time": 19.2568182,
                "end_time": 19.3545455,
                "pitch": 32,
                "velocity": 64,
                "duration": 0.0977273,
                "tempo": 120.0
            },
            {
                "start_time": 19.3704545,
                "end_time": 19.4545455,
                "pitch": 44,
                "velocity": 64,
                "duration": 0.0840909,
                "tempo": 120.0
            },
            {
                "start_time": 19.6863636,
                "end_time": 19.8886364,
                "pitch": 37,
                "velocity": 64,
                "duration": 0.2022727,
                "tempo": 120.0
            },
            {
                "start_time": 19.9045455,
                "end_time": 20.0931818,
                "pitch": 38,
                "velocity": 64,
                "duration": 0.1886364,
                "tempo": 120.0
            },
            {
                "start_time": 20.1090909,
                "end_time": 20.3159091,
                "pitch": 39,
                "velocity": 64,
                "duration": 0.2068182,
                "tempo": 120.0
            },
            {
                "start_time": 20.3318182,
                "end_time": 20.5340909,
                "pitch": 32,
                "velocity": 64,
                "duration": 0.2022727,
                "tempo": 120.0
            },
            {
                "start_time": 20.55,
                "end_time": 20.75,
                "pitch": 32,
                "velocity": 64,
                "duration": 0.2,
                "tempo": 120.0
            },
            {
                "start_time": 20.7681818,
                "end_time": 20.9636364,
                "pitch": 44,
                "velocity": 64,
                "duration": 0.1954545,
                "tempo": 120.0
            },
            {
                "start_time": 20.9818182,
                "end_time": 21.0636364,
                "pitch": 32,
                "velocity": 64,
                "duration": 0.0818182,
                "tempo": 120.0
            },
            {
                "start_time": 21.0795455,
                "end_time": 21.2727273,
                "pitch": 42,
                "velocity": 64,
                "duration": 0.1931818,
                "tempo": 120.0
            },
            {
                "start_time": 21.2886364,
                "end_time": 21.3681818,
                "pitch": 32,
                "velocity": 64,
                "duration": 0.0795455,
                "tempo": 120.0
            },
            {
                "start_time": 21.3840909,
                "end_time": 21.575,
                "pitch": 41,
                "velocity": 64,
                "duration": 0.1909091,
                "tempo": 120.0
            },
            {
                "start_time": 21.5909091,
                "end_time": 21.7954545,
                "pitch": 39,
                "velocity": 64,
                "duration": 0.2045455,
                "tempo": 120.0
            },
            {
                "start_time": 21.8136364,
                "end_time": 22.0181818,
                "pitch": 41,
                "velocity": 64,
                "duration": 0.2045455,
                "tempo": 120.0
            },
            {
                "start_time": 22.0363636,
                "end_time": 22.2204545,
                "pitch": 32,
                "velocity": 64,
                "duration": 0.1840909,
                "tempo": 120.0
            },
            {
                "start_time": 22.2363636,
                "end_time": 22.4386364,
                "pitch": 32,
                "velocity": 64,
                "duration": 0.2022727,
                "tempo": 120.0
            },
            {
                "start_time": 22.4545455,
                "end_time": 22.65,
                "pitch": 44,
                "velocity": 64,
                "duration": 0.1954545,
                "tempo": 120.0
            },
            {
                "start_time": 22.6681818,
                "end_time": 22.75,
                "pitch": 32,
                "velocity": 64,
                "duration": 0.0818182,
                "tempo": 120.0
            },
            {
                "start_time": 22.7659091,
                "end_time": 22.9636364,
                "pitch": 42,
                "velocity": 64,
                "duration": 0.1977273,
                "tempo": 120.0
            },
            {
                "start_time": 22.9795455,
                "end_time": 23.0818182,
                "pitch": 32,
                "velocity": 64,
                "duration": 0.1022727,
                "tempo": 120.0
            },
            {
                "start_time": 23.0977273,
                "end_time": 23.2818182,
                "pitch": 41,
                "velocity": 64,
                "duration": 0.1840909,
                "tempo": 120.0
            },
            {
                "start_time": 23.2977273,
                "end_time": 23.7090909,
                "pitch": 39,
                "velocity": 64,
                "duration": 0.4113636,
                "tempo": 120.0
            },
            {
                "start_time": 23.725,
                "end_time": 23.925,
                "pitch": 32,
                "velocity": 64,
                "duration": 0.2,
                "tempo": 120.0
            },
            {
                "start_time": 23.9431818,
                "end_time": 24.1431818,
                "pitch": 32,
                "velocity": 64,
                "duration": 0.2,
                "tempo": 120.0
            },
            {
                "start_time": 24.1590909,
                "end_time": 24.3431818,
                "pitch": 44,
                "velocity": 64,
                "duration": 0.1840909,
                "tempo": 120.0
            },
            {
                "start_time": 24.3613636,
                "end_time": 24.4613636,
                "pitch": 32,
                "velocity": 64,
                "duration": 0.1,
                "tempo": 120.0
            },
            {
                "start_time": 24.4772727,
                "end_time": 24.6772727,
                "pitch": 42,
                "velocity": 64,
                "duration": 0.2,
                "tempo": 120.0
            },
            {
                "start_time": 24.6931818,
                "end_time": 24.775,
                "pitch": 32,
                "velocity": 64,
                "duration": 0.0818182,
                "tempo": 120.0
            },
            {
                "start_time": 24.7909091,
                "end_time": 24.9886364,
                "pitch": 41,
                "velocity": 64,
                "duration": 0.1977273,
                "tempo": 120.0
            },
            {
                "start_time": 25.0045455,
                "end_time": 25.2045455,
                "pitch": 39,
                "velocity": 64,
                "duration": 0.2,
                "tempo": 120.0
            },
            {
                "start_time": 25.2204545,
                "end_time": 25.4045455,
                "pitch": 41,
                "velocity": 64,
                "duration": 0.1840909,
                "tempo": 120.0
            },
            {
                "start_time": 25.4227273,
                "end_time": 25.6181818,
                "pitch": 32,
                "velocity": 64,
                "duration": 0.1954545,
                "tempo": 120.0
            },
            {
                "start_time": 25.6363636,
                "end_time": 25.8318182,
                "pitch": 32,
                "velocity": 64,
                "duration": 0.1954545,
                "tempo": 120.0
            },
            {
                "start_time": 25.8477273,
                "end_time": 26.0522727,
                "pitch": 44,
                "velocity": 64,
                "duration": 0.2045455,
                "tempo": 120.0
            },
            {
                "start_time": 26.0704545,
                "end_time": 26.1545455,
                "pitch": 32,
                "velocity": 64,
                "duration": 0.0840909,
                "tempo": 120.0
            },
            {
                "start_time": 26.1727273,
                "end_time": 26.275,
                "pitch": 44,
                "velocity": 64,
                "duration": 0.1022727,
                "tempo": 120.0
            },
            {
                "start_time": 26.4886364,
                "end_time": 26.6863636,
                "pitch": 37,
                "velocity": 64,
                "duration": 0.1977273,
                "tempo": 120.0
            },
            {
                "start_time": 26.7022727,
                "end_time": 26.8977273,
                "pitch": 38,
                "velocity": 64,
                "duration": 0.1954545,
                "tempo": 120.0
            },
            {
                "start_time": 26.9136364,
                "end_time": 27.1113636,
                "pitch": 39,
                "velocity": 64,
                "duration": 0.1977273,
                "tempo": 120.0
            },
            {
                "start_time": 27.1272727,
                "end_time": 27.4409091,
                "pitch": 32,
                "velocity": 64,
                "duration": 0.3136364,
                "tempo": 120.0
            },
            {
                "start_time": 27.4590909,
                "end_time": 27.5454545,
                "pitch": 32,
                "velocity": 64,
                "duration": 0.0863636,
                "tempo": 120.0
            },
            {
                "start_time": 27.5636364,
                "end_time": 27.9636364,
                "pitch": 44,
                "velocity": 64,
                "duration": 0.4,
                "tempo": 120.0
            },
            {
                "start_time": 27.9795455,
                "end_time": 28.0613636,
                "pitch": 32,
                "velocity": 64,
                "duration": 0.0818182,
                "tempo": 120.0
            },
            {
                "start_time": 28.0772727,
                "end_time": 28.175,
                "pitch": 42,
                "velocity": 64,
                "duration": 0.0977273,
                "tempo": 120.0
            },
            {
                "start_time": 28.1909091,
                "end_time": 28.2727273,
                "pitch": 32,
                "velocity": 64,
                "duration": 0.0818182,
                "tempo": 120.0
            },
            {
                "start_time": 28.2909091,
                "end_time": 28.3886364,
                "pitch": 41,
                "velocity": 64,
                "duration": 0.0977273,
                "tempo": 120.0
            },
            {
                "start_time": 28.4045455,
                "end_time": 28.8159091,
                "pitch": 39,
                "velocity": 64,
                "duration": 0.4113636,
                "tempo": 120.0
            },
            {
                "start_time": 28.8318182,
                "end_time": 29.1181818,
                "pitch": 32,
                "velocity": 64,
                "duration": 0.2863636,
                "tempo": 120.0
            },
            {
                "start_time": 29.1340909,
                "end_time": 29.2295455,
                "pitch": 32,
                "velocity": 64,
                "duration": 0.0954545,
                "tempo": 120.0
            },
            {
                "start_time": 29.2454545,
                "end_time": 29.4522727,
                "pitch": 44,
                "velocity": 64,
                "duration": 0.2068182,
                "tempo": 120.0
            },
            {
                "start_time": 29.4681818,
                "end_time": 29.6568182,
                "pitch": 32,
                "velocity": 64,
                "duration": 0.1886364,
                "tempo": 120.0
            },
            {
                "start_time": 29.6727273,
                "end_time": 29.7727273,
                "pitch": 42,
                "velocity": 64,
                "duration": 0.1,
                "tempo": 120.0
            },
            {
                "start_time": 29.7886364,
                "end_time": 29.8704545,
                "pitch": 32,
                "velocity": 64,
                "duration": 0.0818182,
                "tempo": 120.0
            },
            {
                "start_time": 29.8863636,
                "end_time": 29.9840909,
                "pitch": 41,
                "velocity": 64,
                "duration": 0.0977273,
                "tempo": 120.0
            },
            {
                "start_time": 30.0022727,
                "end_time": 30.0840909,
                "pitch": 32,
                "velocity": 64,
                "duration": 0.0818182,
                "tempo": 120.0
            },
            {
                "start_time": 30.1,
                "end_time": 30.3,
                "pitch": 39,
                "velocity": 64,
                "duration": 0.2,
                "tempo": 120.0
            },
            {
                "start_time": 30.3181818,
                "end_time": 30.5181818,
                "pitch": 41,
                "velocity": 64,
                "duration": 0.2,
                "tempo": 120.0
            },
            {
                "start_time": 30.5340909,
                "end_time": 30.8363636,
                "pitch": 30,
                "velocity": 64,
                "duration": 0.3022727,
                "tempo": 120.0
            },
            {
                "start_time": 30.8522727,
                "end_time": 30.9363636,
                "pitch": 30,
                "velocity": 64,
                "duration": 0.0840909,
                "tempo": 120.0
            },
            {
                "start_time": 30.9522727,
                "end_time": 31.15,
                "pitch": 42,
                "velocity": 64,
                "duration": 0.1977273,
                "tempo": 120.0
            },
            {
                "start_time": 31.1659091,
                "end_time": 31.3636364,
                "pitch": 30,
                "velocity": 64,
                "duration": 0.1977273,
                "tempo": 120.0
            },
            {
                "start_time": 31.3795455,
                "end_time": 31.4636364,
                "pitch": 41,
                "velocity": 64,
                "duration": 0.0840909,
                "tempo": 120.0
            },
            {
                "start_time": 31.4795455,
                "end_time": 31.5795455,
                "pitch": 30,
                "velocity": 64,
                "duration": 0.1,
                "tempo": 120.0
            },
            {
                "start_time": 31.5954545,
                "end_time": 31.6795455,
                "pitch": 39,
                "velocity": 64,
                "duration": 0.0840909,
                "tempo": 120.0
            },
            {
                "start_time": 31.6977273,
                "end_time": 31.7795455,
                "pitch": 30,
                "velocity": 64,
                "duration": 0.0818182,
                "tempo": 120.0
            },
            {
                "start_time": 31.7977273,
                "end_time": 31.9931818,
                "pitch": 37,
                "velocity": 64,
                "duration": 0.1954545,
                "tempo": 120.0
            },
            {
                "start_time": 32.0113636,
                "end_time": 32.2068182,
                "pitch": 39,
                "velocity": 64,
                "duration": 0.1954545,
                "tempo": 120.0
            },
            {
                "start_time": 32.2227273,
                "end_time": 32.425,
                "pitch": 30,
                "velocity": 64,
                "duration": 0.2022727,
                "tempo": 120.0
            },
            {
                "start_time": 32.4409091,
                "end_time": 32.525,
                "pitch": 42,
                "velocity": 64,
                "duration": 0.0840909,
                "tempo": 120.0
            },
            {
                "start_time": 32.5409091,
                "end_time": 32.6409091,
                "pitch": 30,
                "velocity": 64,
                "duration": 0.1,
                "tempo": 120.0
            },
            {
                "start_time": 32.6590909,
                "end_time": 32.8454545,
                "pitch": 41,
                "velocity": 64,
                "duration": 0.1863636,
                "tempo": 120.0
            },
            {
                "start_time": 32.8636364,
                "end_time": 33.0681818,
                "pitch": 30,
                "velocity": 64,
                "duration": 0.2045455,
                "tempo": 120.0
            },
            {
                "start_time": 33.0863636,
                "end_time": 33.1818182,
                "pitch": 39,
                "velocity": 64,
                "duration": 0.0954545,
                "tempo": 120.0
            },
            {
                "start_time": 33.1977273,
                "end_time": 33.2772727,
                "pitch": 30,
                "velocity": 64,
                "duration": 0.0795455,
                "tempo": 120.0
            },
            {
                "start_time": 33.2931818,
                "end_time": 33.3727273,
                "pitch": 41,
                "velocity": 64,
                "duration": 0.0795455,
                "tempo": 120.0
            },
            {
                "start_time": 33.3886364,
                "end_time": 33.4840909,
                "pitch": 30,
                "velocity": 64,
                "duration": 0.0954545,
                "tempo": 120.0
            },
            {
                "start_time": 33.5,
                "end_time": 33.5840909,
                "pitch": 39,
                "velocity": 64,
                "duration": 0.0840909,
                "tempo": 120.0
            },
            {
                "start_time": 33.6022727,
                "end_time": 33.7045455,
                "pitch": 41,
                "velocity": 64,
                "duration": 0.1022727,
                "tempo": 120.0
            },
            {
                "start_time": 33.7227273,
                "end_time": 33.9090909,
                "pitch": 39,
                "velocity": 64,
                "duration": 0.1863636,
                "tempo": 120.0
            },
            {
                "start_time": 33.9272727,
                "end_time": 34.2386364,
                "pitch": 32,
                "velocity": 64,
                "duration": 0.3113636,
                "tempo": 120.0
            },
            {
                "start_time": 34.2545455,
                "end_time": 34.3363636,
                "pitch": 32,
                "velocity": 64,
                "duration": 0.0818182,
                "tempo": 120.0
            },
            {
                "start_time": 34.3545455,
                "end_time": 34.7727273,
                "pitch": 44,
                "velocity": 64,
                "duration": 0.4181818,
                "tempo": 120.0
            },
            {
                "start_time": 34.7886364,
                "end_time": 34.8727273,
                "pitch": 32,
                "velocity": 64,
                "duration": 0.0840909,
                "tempo": 120.0
            },
            {
                "start_time": 34.8886364,
                "end_time": 34.9727273,
                "pitch": 42,
                "velocity": 64,
                "duration": 0.0840909,
                "tempo": 120.0
            },
            {
                "start_time": 34.9886364,
                "end_time": 35.0886364,
                "pitch": 32,
                "velocity": 64,
                "duration": 0.1,
                "tempo": 120.0
            },
            {
                "start_time": 35.1068182,
                "end_time": 35.1909091,
                "pitch": 41,
                "velocity": 64,
                "duration": 0.0840909,
                "tempo": 120.0
            },
            {
                "start_time": 35.2068182,
                "end_time": 35.6045455,
                "pitch": 39,
                "velocity": 64,
                "duration": 0.3977273,
                "tempo": 120.0
            },
            {
                "start_time": 35.6204545,
                "end_time": 35.9272727,
                "pitch": 32,
                "velocity": 64,
                "duration": 0.3068182,
                "tempo": 120.0
            },
            {
                "start_time": 35.9454545,
                "end_time": 36.0318182,
                "pitch": 32,
                "velocity": 64,
                "duration": 0.0863636,
                "tempo": 120.0
            },
            {
                "start_time": 36.0477273,
                "end_time": 36.2454545,
                "pitch": 44,
                "velocity": 64,
                "duration": 0.1977273,
                "tempo": 120.0
            },
            {
                "start_time": 36.2613636,
                "end_time": 36.4568182,
                "pitch": 32,
                "velocity": 64,
                "duration": 0.1954545,
                "tempo": 120.0
            },
            {
                "start_time": 36.475,
                "end_time": 36.5568182,
                "pitch": 42,
                "velocity": 64,
                "duration": 0.0818182,
                "tempo": 120.0
            },
            {
                "start_time": 36.575,
                "end_time": 36.675,
                "pitch": 32,
                "velocity": 64,
                "duration": 0.1,
                "tempo": 120.0
            },
            {
                "start_time": 36.6909091,
                "end_time": 36.775,
                "pitch": 41,
                "velocity": 64,
                "duration": 0.0840909,
                "tempo": 120.0
            },
            {
                "start_time": 36.7931818,
                "end_time": 36.8931818,
                "pitch": 32,
                "velocity": 64,
                "duration": 0.1,
                "tempo": 120.0
            },
            {
                "start_time": 36.9090909,
                "end_time": 37.0931818,
                "pitch": 39,
                "velocity": 64,
                "duration": 0.1840909,
                "tempo": 120.0
            },
            {
                "start_time": 37.1090909,
                "end_time": 37.3113636,
                "pitch": 41,
                "velocity": 64,
                "duration": 0.2022727,
                "tempo": 120.0
            },
            {
                "start_time": 37.3272727,
                "end_time": 37.6227273,
                "pitch": 32,
                "velocity": 64,
                "duration": 0.2954545,
                "tempo": 120.0
            },
            {
                "start_time": 37.6386364,
                "end_time": 37.7363636,
                "pitch": 32,
                "velocity": 64,
                "duration": 0.0977273,
                "tempo": 120.0
            },
            {
                "start_time": 37.7545455,
                "end_time": 37.9590909,
                "pitch": 44,
                "velocity": 64,
                "duration": 0.2045455,
                "tempo": 120.0
            },
            {
                "start_time": 37.975,
                "end_time": 38.1636364,
                "pitch": 32,
                "velocity": 64,
                "duration": 0.1886364,
                "tempo": 120.0
            },
            {
                "start_time": 38.1795455,
                "end_time": 38.2772727,
                "pitch": 42,
                "velocity": 64,
                "duration": 0.0977273,
                "tempo": 120.0
            },
            {
                "start_time": 38.2931818,
                "end_time": 38.3727273,
                "pitch": 32,
                "velocity": 64,
                "duration": 0.0795455,
                "tempo": 120.0
            },
            {
                "start_time": 38.3886364,
                "end_time": 38.4840909,
                "pitch": 41,
                "velocity": 64,
                "duration": 0.0954545,
                "tempo": 120.0
            },
            {
                "start_time": 38.5,
                "end_time": 38.5795455,
                "pitch": 32,
                "velocity": 64,
                "duration": 0.0795455,
                "tempo": 120.0
            },
            {
                "start_time": 38.5954545,
                "end_time": 38.7954545,
                "pitch": 39,
                "velocity": 64,
                "duration": 0.2,
                "tempo": 120.0
            },
            {
                "start_time": 38.8136364,
                "end_time": 39.0136364,
                "pitch": 41,
                "velocity": 64,
                "duration": 0.2,
                "tempo": 120.0
            },
            {
                "start_time": 39.0295455,
                "end_time": 39.2136364,
                "pitch": 32,
                "velocity": 64,
                "duration": 0.1840909,
                "tempo": 120.0
            },
            {
                "start_time": 39.2318182,
                "end_time": 39.3318182,
                "pitch": 44,
                "velocity": 64,
                "duration": 0.1,
                "tempo": 120.0
            },
            {
                "start_time": 39.3477273,
                "end_time": 39.4318182,
                "pitch": 32,
                "velocity": 64,
                "duration": 0.0840909,
                "tempo": 120.0
            },
            {
                "start_time": 39.4477273,
                "end_time": 39.6454545,
                "pitch": 44,
                "velocity": 64,
                "duration": 0.1977273,
                "tempo": 120.0
            },
            {
                "start_time": 39.6613636,
                "end_time": 39.8590909,
                "pitch": 32,
                "velocity": 64,
                "duration": 0.1977273,
                "tempo": 120.0
            },
            {
                "start_time": 39.875,
                "end_time": 39.9590909,
                "pitch": 42,
                "velocity": 64,
                "duration": 0.0840909,
                "tempo": 120.0
            },
            {
                "start_time": 39.975,
                "end_time": 40.075,
                "pitch": 32,
                "velocity": 64,
                "duration": 0.1,
                "tempo": 120.0
            },
            {
                "start_time": 40.0909091,
                "end_time": 40.175,
                "pitch": 41,
                "velocity": 64,
                "duration": 0.0840909,
                "tempo": 120.0
            },
            {
                "start_time": 40.1931818,
                "end_time": 40.275,
                "pitch": 32,
                "velocity": 64,
                "duration": 0.0818182,
                "tempo": 120.0
            },
            {
                "start_time": 40.2931818,
                "end_time": 40.3909091,
                "pitch": 39,
                "velocity": 64,
                "duration": 0.0977273,
                "tempo": 120.0
            },
            {
                "start_time": 40.4068182,
                "end_time": 40.4886364,
                "pitch": 41,
                "velocity": 64,
                "duration": 0.0818182,
                "tempo": 120.0
            },
            {
                "start_time": 40.5068182,
                "end_time": 40.7022727,
                "pitch": 39,
                "velocity": 64,
                "duration": 0.1954545,
                "tempo": 120.0
            },
            {
                "start_time": 40.7181818,
                "end_time": 41.0272727,
                "pitch": 32,
                "velocity": 64,
                "duration": 0.3090909,
                "tempo": 120.0
            },
            {
                "start_time": 41.0431818,
                "end_time": 41.1454545,
                "pitch": 32,
                "velocity": 64,
                "duration": 0.1022727,
                "tempo": 120.0
            },
            {
                "start_time": 41.1636364,
                "end_time": 41.5636364,
                "pitch": 44,
                "velocity": 64,
                "duration": 0.4,
                "tempo": 120.0
            },
            {
                "start_time": 41.5818182,
                "end_time": 41.6772727,
                "pitch": 32,
                "velocity": 64,
                "duration": 0.0954545,
                "tempo": 120.0
            },
            {
                "start_time": 41.6931818,
                "end_time": 41.7727273,
                "pitch": 42,
                "velocity": 64,
                "duration": 0.0795455,
                "tempo": 120.0
            },
            {
                "start_time": 41.7886364,
                "end_time": 41.8681818,
                "pitch": 32,
                "velocity": 64,
                "duration": 0.0795455,
                "tempo": 120.0
            },
            {
                "start_time": 41.8840909,
                "end_time": 41.9795455,
                "pitch": 41,
                "velocity": 64,
                "duration": 0.0954545,
                "tempo": 120.0
            },
            {
                "start_time": 41.9954545,
                "end_time": 42.4068182,
                "pitch": 39,
                "velocity": 64,
                "duration": 0.4113636,
                "tempo": 120.0
            },
            {
                "start_time": 42.4227273,
                "end_time": 42.7340909,
                "pitch": 32,
                "velocity": 64,
                "duration": 0.3113636,
                "tempo": 120.0
            },
            {
                "start_time": 42.75,
                "end_time": 42.8318182,
                "pitch": 32,
                "velocity": 64,
                "duration": 0.0818182,
                "tempo": 120.0
            },
            {
                "start_time": 42.85,
                "end_time": 43.05,
                "pitch": 44,
                "velocity": 64,
                "duration": 0.2,
                "tempo": 120.0
            },
            {
                "start_time": 43.0659091,
                "end_time": 43.2681818,
                "pitch": 32,
                "velocity": 64,
                "duration": 0.2022727,
                "tempo": 120.0
            },
            {
                "start_time": 43.2840909,
                "end_time": 43.3681818,
                "pitch": 42,
                "velocity": 64,
                "duration": 0.0840909,
                "tempo": 120.0
            },
            {
                "start_time": 43.3840909,
                "end_time": 43.4681818,
                "pitch": 32,
                "velocity": 64,
                "duration": 0.0840909,
                "tempo": 120.0
            },
            {
                "start_time": 43.4840909,
                "end_time": 43.5840909,
                "pitch": 41,
                "velocity": 64,
                "duration": 0.1,
                "tempo": 120.0
            },
            {
                "start_time": 43.6022727,
                "end_time": 43.6863636,
                "pitch": 32,
                "velocity": 64,
                "duration": 0.0840909,
                "tempo": 120.0
            },
            {
                "start_time": 43.7022727,
                "end_time": 43.9,
                "pitch": 39,
                "velocity": 64,
                "duration": 0.1977273,
                "tempo": 120.0
            },
            {
                "start_time": 43.9159091,
                "end_time": 44.1113636,
                "pitch": 41,
                "velocity": 64,
                "duration": 0.1954545,
                "tempo": 120.0
            },
            {
                "start_time": 44.1272727,
                "end_time": 44.4295455,
                "pitch": 30,
                "velocity": 64,
                "duration": 0.3022727,
                "tempo": 120.0
            },
            {
                "start_time": 44.4454545,
                "end_time": 44.5295455,
                "pitch": 30,
                "velocity": 64,
                "duration": 0.0840909,
                "tempo": 120.0
            },
            {
                "start_time": 44.5477273,
                "end_time": 44.7431818,
                "pitch": 42,
                "velocity": 64,
                "duration": 0.1954545,
                "tempo": 120.0
            },
            {
                "start_time": 44.7590909,
                "end_time": 44.9568182,
                "pitch": 30,
                "velocity": 64,
                "duration": 0.1977273,
                "tempo": 120.0
            },
            {
                "start_time": 44.9727273,
                "end_time": 45.0568182,
                "pitch": 41,
                "velocity": 64,
                "duration": 0.0840909,
                "tempo": 120.0
            },
            {
                "start_time": 45.0727273,
                "end_time": 45.1727273,
                "pitch": 30,
                "velocity": 64,
                "duration": 0.1,
                "tempo": 120.0
            },
            {
                "start_time": 45.1909091,
                "end_time": 45.2727273,
                "pitch": 39,
                "velocity": 64,
                "duration": 0.0818182,
                "tempo": 120.0
            },
            {
                "start_time": 45.2909091,
                "end_time": 45.3909091,
                "pitch": 30,
                "velocity": 64,
                "duration": 0.1,
                "tempo": 120.0
            },
            {
                "start_time": 45.4068182,
                "end_time": 45.5909091,
                "pitch": 37,
                "velocity": 64,
                "duration": 0.1840909,
                "tempo": 120.0
            },
            {
                "start_time": 45.6090909,
                "end_time": 45.8090909,
                "pitch": 39,
                "velocity": 64,
                "duration": 0.2,
                "tempo": 120.0
            },
            {
                "start_time": 45.825,
                "end_time": 46.0227273,
                "pitch": 30,
                "velocity": 64,
                "duration": 0.1977273,
                "tempo": 120.0
            },
            {
                "start_time": 46.0386364,
                "end_time": 46.1204545,
                "pitch": 42,
                "velocity": 64,
                "duration": 0.0818182,
                "tempo": 120.0
            },
            {
                "start_time": 46.1363636,
                "end_time": 46.2363636,
                "pitch": 30,
                "velocity": 64,
                "duration": 0.1,
                "tempo": 120.0
            },
            {
                "start_time": 46.2522727,
                "end_time": 46.4568182,
                "pitch": 41,
                "velocity": 64,
                "duration": 0.2045455,
                "tempo": 120.0
            },
            {
                "start_time": 46.475,
                "end_time": 46.6613636,
                "pitch": 30,
                "velocity": 64,
                "duration": 0.1863636,
                "tempo": 120.0
            },
            {
                "start_time": 46.6795455,
                "end_time": 46.775,
                "pitch": 39,
                "velocity": 64,
                "duration": 0.0954545,
                "tempo": 120.0
            },
            {
                "start_time": 46.7909091,
                "end_time": 46.8704545,
                "pitch": 30,
                "velocity": 64,
                "duration": 0.0795455,
                "tempo": 120.0
            },
            {
                "start_time": 46.8863636,
                "end_time": 46.9818182,
                "pitch": 41,
                "velocity": 64,
                "duration": 0.0954545,
                "tempo": 120.0
            },
            {
                "start_time": 46.9977273,
                "end_time": 47.0772727,
                "pitch": 30,
                "velocity": 64,
                "duration": 0.0795455,
                "tempo": 120.0
            },
            {
                "start_time": 47.0931818,
                "end_time": 47.1772727,
                "pitch": 39,
                "velocity": 64,
                "duration": 0.0840909,
                "tempo": 120.0
            },
            {
                "start_time": 47.1931818,
                "end_time": 47.2931818,
                "pitch": 41,
                "velocity": 64,
                "duration": 0.1,
                "tempo": 120.0
            },
            {
                "start_time": 47.3113636,
                "end_time": 47.5113636,
                "pitch": 39,
                "velocity": 64,
                "duration": 0.2,
                "tempo": 120.0
            },
            {
                "start_time": 47.5295455,
                "end_time": 47.5454545,
                "pitch": 32,
                "velocity": 64,
                "duration": 0.0159091,
                "tempo": 120.0
            }
        ],
        "Oboe": [
            {
                "start_time": 0.0,
                "end_time": 0.0613636,
                "pitch": 48,
                "velocity": 64,
                "duration": 0.0613636,
                "tempo": 120.0
            },
            {
                "start_time": 0.0772727,
                "end_time": 0.1545455,
                "pitch": 48,
                "velocity": 64,
                "duration": 0.0772727,
                "tempo": 120.0
            },
            {
                "start_time": 0.1704545,
                "end_time": 0.2636364,
                "pitch": 48,
                "velocity": 64,
                "duration": 0.0931818,
                "tempo": 120.0
            },
            {
                "start_time": 0.2795455,
                "end_time": 0.4522727,
                "pitch": 58,
                "velocity": 64,
                "duration": 0.1727273,
                "tempo": 120.0
            },
            {
                "start_time": 0.4681818,
                "end_time": 0.5636364,
                "pitch": 58,
                "velocity": 64,
                "duration": 0.0954545,
                "tempo": 120.0
            },
            {
                "start_time": 0.5795455,
                "end_time": 0.7704545,
                "pitch": 60,
                "velocity": 64,
                "duration": 0.1909091,
                "tempo": 120.0
            },
            {
                "start_time": 0.7863636,
                "end_time": 0.9659091,
                "pitch": 48,
                "velocity": 64,
                "duration": 0.1795455,
                "tempo": 120.0
            },
            {
                "start_time": 0.9818182,
                "end_time": 1.1795455,
                "pitch": 57,
                "velocity": 64,
                "duration": 0.1977273,
                "tempo": 120.0
            },
            {
                "start_time": 1.1954545,
                "end_time": 1.3954545,
                "pitch": 58,
                "velocity": 64,
                "duration": 0.2,
                "tempo": 120.0
            },
            {
                "start_time": 1.4136364,
                "end_time": 1.6136364,
                "pitch": 57,
                "velocity": 64,
                "duration": 0.2,
                "tempo": 120.0
            },
            {
                "start_time": 1.6295455,
                "end_time": 1.7113636,
                "pitch": 48,
                "velocity": 64,
                "duration": 0.0818182,
                "tempo": 120.0
            },
            {
                "start_time": 1.7295455,
                "end_time": 1.8272727,
                "pitch": 48,
                "velocity": 64,
                "duration": 0.0977273,
                "tempo": 120.0
            },
            {
                "start_time": 1.8431818,
                "end_time": 1.925,
                "pitch": 48,
                "velocity": 64,
                "duration": 0.0818182,
                "tempo": 120.0
            },
            {
                "start_time": 1.9409091,
                "end_time": 2.1409091,
                "pitch": 58,
                "velocity": 64,
                "duration": 0.2,
                "tempo": 120.0
            },
            {
                "start_time": 2.1568182,
                "end_time": 2.2409091,
                "pitch": 58,
                "velocity": 64,
                "duration": 0.0840909,
                "tempo": 120.0
            },
            {
                "start_time": 2.2568182,
                "end_time": 2.4590909,
                "pitch": 60,
                "velocity": 64,
                "duration": 0.2022727,
                "tempo": 120.0
            },
            {
                "start_time": 2.475,
                "end_time": 2.6704545,
                "pitch": 48,
                "velocity": 64,
                "duration": 0.1954545,
                "tempo": 120.0
            },
            {
                "start_time": 2.6886364,
                "end_time": 2.8840909,
                "pitch": 57,
                "velocity": 64,
                "duration": 0.1954545,
                "tempo": 120.0
            },
            {
                "start_time": 2.9,
                "end_time": 3.3113636,
                "pitch": 58,
                "velocity": 64,
                "duration": 0.4113636,
                "tempo": 120.0
            },
            {
                "start_time": 3.3272727,
                "end_time": 3.4272727,
                "pitch": 48,
                "velocity": 64,
                "duration": 0.1,
                "tempo": 120.0
            },
            {
                "start_time": 3.4431818,
                "end_time": 3.525,
                "pitch": 48,
                "velocity": 64,
                "duration": 0.0818182,
                "tempo": 120.0
            },
            {
                "start_time": 3.5409091,
                "end_time": 3.6227273,
                "pitch": 48,
                "velocity": 64,
                "duration": 0.0818182,
                "tempo": 120.0
            },
            {
                "start_time": 3.6386364,
                "end_time": 3.8386364,
                "pitch": 58,
                "velocity": 64,
                "duration": 0.2,
                "tempo": 120.0
            },
            {
                "start_time": 3.8545455,
                "end_time": 3.9545455,
                "pitch": 58,
                "velocity": 64,
                "duration": 0.1,
                "tempo": 120.0
            },
            {
                "start_time": 3.9727273,
                "end_time": 4.1568182,
                "pitch": 60,
                "velocity": 64,
                "duration": 0.1840909,
                "tempo": 120.0
            },
            {
                "start_time": 4.1727273,
                "end_time": 4.3636364,
                "pitch": 48,
                "velocity": 64,
                "duration": 0.1909091,
                "tempo": 120.0
            },
            {
                "start_time": 4.3795455,
                "end_time": 4.5704545,
                "pitch": 57,
                "velocity": 64,
                "duration": 0.1909091,
                "tempo": 120.0
            },
            {
                "start_time": 4.5863636,
                "end_time": 4.7909091,
                "pitch": 58,
                "velocity": 64,
                "duration": 0.2045455,
                "tempo": 120.0
            },
            {
                "start_time": 4.8090909,
                "end_time": 5.0136364,
                "pitch": 57,
                "velocity": 64,
                "duration": 0.2045455,
                "tempo": 120.0
            },
            {
                "start_time": 5.0318182,
                "end_time": 5.1136364,
                "pitch": 48,
                "velocity": 64,
                "duration": 0.0818182,
                "tempo": 120.0
            },
            {
                "start_time": 5.1318182,
                "end_time": 5.2159091,
                "pitch": 48,
                "velocity": 64,
                "duration": 0.0840909,
                "tempo": 120.0
            },
            {
                "start_time": 5.2318182,
                "end_time": 5.3318182,
                "pitch": 48,
                "velocity": 64,
                "duration": 0.1,
                "tempo": 120.0
            },
            {
                "start_time": 5.35,
                "end_time": 5.4318182,
                "pitch": 48,
                "velocity": 64,
                "duration": 0.0818182,
                "tempo": 120.0
            },
            {
                "start_time": 5.5636364,
                "end_time": 5.6454545,
                "pitch": 48,
                "velocity": 64,
                "duration": 0.0818182,
                "tempo": 120.0
            },
            {
                "start_time": 5.6613636,
                "end_time": 5.7431818,
                "pitch": 48,
                "velocity": 64,
                "duration": 0.0818182,
                "tempo": 120.0
            },
            {
                "start_time": 5.7613636,
                "end_time": 5.8590909,
                "pitch": 48,
                "velocity": 64,
                "duration": 0.0977273,
                "tempo": 120.0
            },
            {
                "start_time": 6.0931818,
                "end_time": 6.2772727,
                "pitch": 45,
                "velocity": 64,
                "duration": 0.1840909,
                "tempo": 120.0
            },
            {
                "start_time": 6.2931818,
                "end_time": 6.4909091,
                "pitch": 46,
                "velocity": 64,
                "duration": 0.1977273,
                "tempo": 120.0
            },
            {
                "start_time": 6.5068182,
                "end_time": 6.7022727,
                "pitch": 47,
                "velocity": 64,
                "duration": 0.1954545,
                "tempo": 120.0
            },
            {
                "start_time": 6.7204545,
                "end_time": 7.9795455,
                "pitch": 48,
                "velocity": 64,
                "duration": 1.2590909,
                "tempo": 120.0
            },
            {
                "start_time": 8.4227273,
                "end_time": 9.675,
                "pitch": 48,
                "velocity": 80,
                "duration": 1.2522727,
                "tempo": 120.0
            },
            {
                "start_time": 10.125,
                "end_time": 11.3886364,
                "pitch": 46,
                "velocity": 80,
                "duration": 1.2636364,
                "tempo": 120.0
            },
            {
                "start_time": 11.8227273,
                "end_time": 13.0772727,
                "pitch": 46,
                "velocity": 80,
                "duration": 1.2545455,
                "tempo": 120.0
            },
            {
                "start_time": 13.5454545,
                "end_time": 13.6159091,
                "pitch": 48,
                "velocity": 64,
                "duration": 0.0704545,
                "tempo": 120.0
            },
            {
                "start_time": 13.6340909,
                "end_time": 13.7204545,
                "pitch": 48,
                "velocity": 64,
                "duration": 0.0863636,
                "tempo": 120.0
            },
            {
                "start_time": 13.7386364,
                "end_time": 13.8431818,
                "pitch": 48,
                "velocity": 64,
                "duration": 0.1045455,
                "tempo": 120.0
            },
            {
                "start_time": 13.8613636,
                "end_time": 14.0613636,
                "pitch": 58,
                "velocity": 64,
                "duration": 0.2,
                "tempo": 120.0
            },
            {
                "start_time": 14.0772727,
                "end_time": 14.1568182,
                "pitch": 58,
                "velocity": 64,
                "duration": 0.0795455,
                "tempo": 120.0
            },
            {
                "start_time": 14.1727273,
                "end_time": 14.3659091,
                "pitch": 60,
                "velocity": 64,
                "duration": 0.1931818,
                "tempo": 120.0
            },
            {
                "start_time": 14.3818182,
                "end_time": 14.5772727,
                "pitch": 48,
                "velocity": 64,
                "duration": 0.1954545,
                "tempo": 120.0
            },
            {
                "start_time": 14.5931818,
                "end_time": 14.775,
                "pitch": 57,
                "velocity": 64,
                "duration": 0.1818182,
                "tempo": 120.0
            },
            {
                "start_time": 14.7909091,
                "end_time": 14.9863636,
                "pitch": 58,
                "velocity": 64,
                "duration": 0.1954545,
                "tempo": 120.0
            },
            {
                "start_time": 15.0022727,
                "end_time": 15.2,
                "pitch": 57,
                "velocity": 64,
                "duration": 0.1977273,
                "tempo": 120.0
            },
            {
                "start_time": 15.2159091,
                "end_time": 15.3,
                "pitch": 48,
                "velocity": 64,
                "duration": 0.0840909,
                "tempo": 120.0
            },
            {
                "start_time": 15.3159091,
                "end_time": 15.4181818,
                "pitch": 48,
                "velocity": 64,
                "duration": 0.1022727,
                "tempo": 120.0
            },
            {
                "start_time": 15.4340909,
                "end_time": 15.5181818,
                "pitch": 48,
                "velocity": 64,
                "duration": 0.0840909,
                "tempo": 120.0
            },
            {
                "start_time": 15.5340909,
                "end_time": 15.7363636,
                "pitch": 58,
                "velocity": 64,
                "duration": 0.2022727,
                "tempo": 120.0
            },
            {
                "start_time": 15.7545455,
                "end_time": 15.8386364,
                "pitch": 58,
                "velocity": 64,
                "duration": 0.0840909,
                "tempo": 120.0
            },
            {
                "start_time": 15.8568182,
                "end_time": 16.0613636,
                "pitch": 60,
                "velocity": 64,
                "duration": 0.2045455,
                "tempo": 120.0
            },
            {
                "start_time": 16.0795455,
                "end_time": 16.2704545,
                "pitch": 48,
                "velocity": 64,
                "duration": 0.1909091,
                "tempo": 120.0
            },
            {
                "start_time": 16.2863636,
                "end_time": 16.4772727,
                "pitch": 57,
                "velocity": 64,
                "duration": 0.1909091,
                "tempo": 120.0
            },
            {
                "start_time": 16.4931818,
                "end_time": 16.9022727,
                "pitch": 58,
                "velocity": 64,
                "duration": 0.4090909,
                "tempo": 120.0
            },
            {
                "start_time": 16.9204545,
                "end_time": 17.0181818,
                "pitch": 48,
                "velocity": 64,
                "duration": 0.0977273,
                "tempo": 120.0
            },
            {
                "start_time": 17.0340909,
                "end_time": 17.1159091,
                "pitch": 48,
                "velocity": 64,
                "duration": 0.0818182,
                "tempo": 120.0
            },
            {
                "start_time": 17.1340909,
                "end_time": 17.2318182,
                "pitch": 48,
                "velocity": 64,
                "duration": 0.0977273,
                "tempo": 120.0
            },
            {
                "start_time": 17.2477273,
                "end_time": 17.4295455,
                "pitch": 58,
                "velocity": 64,
                "duration": 0.1818182,
                "tempo": 120.0
            },
            {
                "start_time": 17.4477273,
                "end_time": 17.5477273,
                "pitch": 58,
                "velocity": 64,
                "duration": 0.1,
                "tempo": 120.0
            },
            {
                "start_time": 17.5636364,
                "end_time": 17.7636364,
                "pitch": 60,
                "velocity": 64,
                "duration": 0.2,
                "tempo": 120.0
            },
            {
                "start_time": 17.7818182,
                "end_time": 17.9659091,
                "pitch": 48,
                "velocity": 64,
                "duration": 0.1840909,
                "tempo": 120.0
            },
            {
                "start_time": 17.9818182,
                "end_time": 18.1818182,
                "pitch": 57,
                "velocity": 64,
                "duration": 0.2,
                "tempo": 120.0
            },
            {
                "start_time": 18.2,
                "end_time": 18.3954545,
                "pitch": 58,
                "velocity": 64,
                "duration": 0.1954545,
                "tempo": 120.0
            },
            {
                "start_time": 18.4136364,
                "end_time": 18.6090909,
                "pitch": 57,
                "velocity": 64,
                "duration": 0.1954545,
                "tempo": 120.0
            },
            {
                "start_time": 18.625,
                "end_time": 18.7090909,
                "pitch": 48,
                "velocity": 64,
                "duration": 0.0840909,
                "tempo": 120.0
            },
            {
                "start_time": 18.725,
                "end_time": 18.8272727,
                "pitch": 48,
                "velocity": 64,
                "duration": 0.1022727,
                "tempo": 120.0
            },
            {
                "start_time": 18.8431818,
                "end_time": 18.9272727,
                "pitch": 48,
                "velocity": 64,
                "duration": 0.0840909,
                "tempo": 120.0
            },
            {
                "start_time": 18.9431818,
                "end_time": 19.0272727,
                "pitch": 48,
                "velocity": 64,
                "duration": 0.0840909,
                "tempo": 120.0
            },
            {
                "start_time": 19.1590909,
                "end_time": 19.2409091,
                "pitch": 48,
                "velocity": 64,
                "duration": 0.0818182,
                "tempo": 120.0
            },
            {
                "start_time": 19.2568182,
                "end_time": 19.3545455,
                "pitch": 48,
                "velocity": 64,
                "duration": 0.0977273,
                "tempo": 120.0
            },
            {
                "start_time": 19.3704545,
                "end_time": 19.4545455,
                "pitch": 48,
                "velocity": 64,
                "duration": 0.0840909,
                "tempo": 120.0
            },
            {
                "start_time": 19.6863636,
                "end_time": 19.8886364,
                "pitch": 45,
                "velocity": 64,
                "duration": 0.2022727,
                "tempo": 120.0
            },
            {
                "start_time": 19.9045455,
                "end_time": 20.0931818,
                "pitch": 46,
                "velocity": 64,
                "duration": 0.1886364,
                "tempo": 120.0
            },
            {
                "start_time": 20.1090909,
                "end_time": 20.3159091,
                "pitch": 47,
                "velocity": 64,
                "duration": 0.2068182,
                "tempo": 120.0
            },
            {
                "start_time": 20.3318182,
                "end_time": 20.4340909,
                "pitch": 48,
                "velocity": 64,
                "duration": 0.1022727,
                "tempo": 120.0
            },
            {
                "start_time": 20.45,
                "end_time": 20.5340909,
                "pitch": 48,
                "velocity": 64,
                "duration": 0.0840909,
                "tempo": 120.0
            },
            {
                "start_time": 20.55,
                "end_time": 20.6340909,
                "pitch": 48,
                "velocity": 64,
                "duration": 0.0840909,
                "tempo": 120.0
            },
            {
                "start_time": 20.65,
                "end_time": 20.85,
                "pitch": 58,
                "velocity": 64,
                "duration": 0.2,
                "tempo": 120.0
            },
            {
                "start_time": 20.8659091,
                "end_time": 20.9636364,
                "pitch": 58,
                "velocity": 64,
                "duration": 0.0977273,
                "tempo": 120.0
            },
            {
                "start_time": 20.9818182,
                "end_time": 21.1613636,
                "pitch": 60,
                "velocity": 64,
                "duration": 0.1795455,
                "tempo": 120.0
            },
            {
                "start_time": 21.1772727,
                "end_time": 21.3681818,
                "pitch": 48,
                "velocity": 64,
                "duration": 0.1909091,
                "tempo": 120.0
            },
            {
                "start_time": 21.3840909,
                "end_time": 21.575,
                "pitch": 57,
                "velocity": 64,
                "duration": 0.1909091,
                "tempo": 120.0
            },
            {
                "start_time": 21.5909091,
                "end_time": 21.7954545,
                "pitch": 58,
                "velocity": 64,
                "duration": 0.2045455,
                "tempo": 120.0
            },
            {
                "start_time": 21.8136364,
                "end_time": 22.0181818,
                "pitch": 57,
                "velocity": 64,
                "duration": 0.2045455,
                "tempo": 120.0
            },
            {
                "start_time": 22.0363636,
                "end_time": 22.1204545,
                "pitch": 48,
                "velocity": 64,
                "duration": 0.0840909,
                "tempo": 120.0
            },
            {
                "start_time": 22.1363636,
                "end_time": 22.2204545,
                "pitch": 48,
                "velocity": 64,
                "duration": 0.0840909,
                "tempo": 120.0
            },
            {
                "start_time": 22.2363636,
                "end_time": 22.3363636,
                "pitch": 48,
                "velocity": 64,
                "duration": 0.1,
                "tempo": 120.0
            },
            {
                "start_time": 22.3545455,
                "end_time": 22.5522727,
                "pitch": 58,
                "velocity": 64,
                "duration": 0.1977273,
                "tempo": 120.0
            },
            {
                "start_time": 22.5681818,
                "end_time": 22.65,
                "pitch": 58,
                "velocity": 64,
                "duration": 0.0818182,
                "tempo": 120.0
            },
            {
                "start_time": 22.6681818,
                "end_time": 22.8636364,
                "pitch": 60,
                "velocity": 64,
                "duration": 0.1954545,
                "tempo": 120.0
            },
            {
                "start_time": 22.8795455,
                "end_time": 23.0818182,
                "pitch": 48,
                "velocity": 64,
                "duration": 0.2022727,
                "tempo": 120.0
            },
            {
                "start_time": 23.0977273,
                "end_time": 23.2818182,
                "pitch": 57,
                "velocity": 64,
                "duration": 0.1840909,
                "tempo": 120.0
            },
            {
                "start_time": 23.2977273,
                "end_time": 23.7090909,
                "pitch": 58,
                "velocity": 64,
                "duration": 0.4113636,
                "tempo": 120.0
            },
            {
                "start_time": 23.725,
                "end_time": 23.8090909,
                "pitch": 48,
                "velocity": 64,
                "duration": 0.0840909,
                "tempo": 120.0
            },
            {
                "start_time": 23.825,
                "end_time": 23.925,
                "pitch": 48,
                "velocity": 64,
                "duration": 0.1,
                "tempo": 120.0
            },
            {
                "start_time": 23.9431818,
                "end_time": 24.025,
                "pitch": 48,
                "velocity": 64,
                "duration": 0.0818182,
                "tempo": 120.0
            },
            {
                "start_time": 24.0431818,
                "end_time": 24.2431818,
                "pitch": 58,
                "velocity": 64,
                "duration": 0.2,
                "tempo": 120.0
            },
            {
                "start_time": 24.2590909,
                "end_time": 24.3431818,
                "pitch": 58,
                "velocity": 64,
                "duration": 0.0840909,
                "tempo": 120.0
            },
            {
                "start_time": 24.3613636,
                "end_time": 24.5613636,
                "pitch": 60,
                "velocity": 64,
                "duration": 0.2,
                "tempo": 120.0
            },
            {
                "start_time": 24.5772727,
                "end_time": 24.775,
                "pitch": 48,
                "velocity": 64,
                "duration": 0.1977273,
                "tempo": 120.0
            },
            {
                "start_time": 24.7909091,
                "end_time": 24.9886364,
                "pitch": 57,
                "velocity": 64,
                "duration": 0.1977273,
                "tempo": 120.0
            },
            {
                "start_time": 25.0045455,
                "end_time": 25.2045455,
                "pitch": 58,
                "velocity": 64,
                "duration": 0.2,
                "tempo": 120.0
            },
            {
                "start_time": 25.2204545,
                "end_time": 25.4045455,
                "pitch": 57,
                "velocity": 64,
                "duration": 0.1840909,
                "tempo": 120.0
            },
            {
                "start_time": 25.4227273,
                "end_time": 25.5204545,
                "pitch": 48,
                "velocity": 64,
                "duration": 0.0977273,
                "tempo": 120.0
            },
            {
                "start_time": 25.5363636,
                "end_time": 25.6181818,
                "pitch": 48,
                "velocity": 64,
                "duration": 0.0818182,
                "tempo": 120.0
            },
            {
                "start_time": 25.6363636,
                "end_time": 25.7340909,
                "pitch": 48,
                "velocity": 64,
                "duration": 0.0977273,
                "tempo": 120.0
            },
            {
                "start_time": 25.75,
                "end_time": 25.8318182,
                "pitch": 48,
                "velocity": 64,
                "duration": 0.0818182,
                "tempo": 120.0
            },
            {
                "start_time": 25.95,
                "end_time": 26.0522727,
                "pitch": 48,
                "velocity": 64,
                "duration": 0.1022727,
                "tempo": 120.0
            },
            {
                "start_time": 26.0704545,
                "end_time": 26.1545455,
                "pitch": 48,
                "velocity": 64,
                "duration": 0.0840909,
                "tempo": 120.0
            },
            {
                "start_time": 26.1727273,
                "end_time": 26.275,
                "pitch": 48,
                "velocity": 64,
                "duration": 0.1022727,
                "tempo": 120.0
            },
            {
                "start_time": 26.4886364,
                "end_time": 26.6863636,
                "pitch": 45,
                "velocity": 64,
                "duration": 0.1977273,
                "tempo": 120.0
            },
            {
                "start_time": 26.7022727,
                "end_time": 26.8977273,
                "pitch": 46,
                "velocity": 64,
                "duration": 0.1954545,
                "tempo": 120.0
            },
            {
                "start_time": 26.9136364,
                "end_time": 27.1113636,
                "pitch": 47,
                "velocity": 64,
                "duration": 0.1977273,
                "tempo": 120.0
            },
            {
                "start_time": 27.1272727,
                "end_time": 27.2136364,
                "pitch": 48,
                "velocity": 64,
                "duration": 0.0863636,
                "tempo": 120.0
            },
            {
                "start_time": 27.2318182,
                "end_time": 27.3363636,
                "pitch": 48,
                "velocity": 64,
                "duration": 0.1045455,
                "tempo": 120.0
            },
            {
                "start_time": 27.3545455,
                "end_time": 27.4409091,
                "pitch": 48,
                "velocity": 64,
                "duration": 0.0863636,
                "tempo": 120.0
            },
            {
                "start_time": 27.4590909,
                "end_time": 27.5454545,
                "pitch": 48,
                "velocity": 64,
                "duration": 0.0863636,
                "tempo": 120.0
            },
            {
                "start_time": 27.5636364,
                "end_time": 27.7568182,
                "pitch": 48,
                "velocity": 64,
                "duration": 0.1931818,
                "tempo": 120.0
            },
            {
                "start_time": 28.6090909,
                "end_time": 28.7136364,
                "pitch": 46,
                "velocity": 64,
                "duration": 0.1045455,
                "tempo": 120.0
            },
            {
                "start_time": 28.7295455,
                "end_time": 28.8159091,
                "pitch": 46,
                "velocity": 64,
                "duration": 0.0863636,
                "tempo": 120.0
            },
            {
                "start_time": 28.8318182,
                "end_time": 28.9272727,
                "pitch": 48,
                "velocity": 64,
                "duration": 0.0954545,
                "tempo": 120.0
            },
            {
                "start_time": 28.9431818,
                "end_time": 29.0227273,
                "pitch": 48,
                "velocity": 64,
                "duration": 0.0795455,
                "tempo": 120.0
            },
            {
                "start_time": 29.0386364,
                "end_time": 29.1181818,
                "pitch": 48,
                "velocity": 64,
                "duration": 0.0795455,
                "tempo": 120.0
            },
            {
                "start_time": 29.1340909,
                "end_time": 29.2295455,
                "pitch": 48,
                "velocity": 64,
                "duration": 0.0954545,
                "tempo": 120.0
            },
            {
                "start_time": 29.2454545,
                "end_time": 29.4522727,
                "pitch": 48,
                "velocity": 64,
                "duration": 0.2068182,
                "tempo": 120.0
            },
            {
                "start_time": 30.5340909,
                "end_time": 30.6181818,
                "pitch": 46,
                "velocity": 64,
                "duration": 0.0840909,
                "tempo": 120.0
            },
            {
                "start_time": 30.6340909,
                "end_time": 30.7181818,
                "pitch": 46,
                "velocity": 64,
                "duration": 0.0840909,
                "tempo": 120.0
            },
            {
                "start_time": 30.7363636,
                "end_time": 30.8363636,
                "pitch": 46,
                "velocity": 64,
                "duration": 0.1,
                "tempo": 120.0
            },
            {
                "start_time": 30.8522727,
                "end_time": 30.9363636,
                "pitch": 46,
                "velocity": 64,
                "duration": 0.0840909,
                "tempo": 120.0
            },
            {
                "start_time": 30.9522727,
                "end_time": 31.15,
                "pitch": 46,
                "velocity": 64,
                "duration": 0.1977273,
                "tempo": 120.0
            },
            {
                "start_time": 32.0113636,
                "end_time": 32.1090909,
                "pitch": 45,
                "velocity": 64,
                "duration": 0.0977273,
                "tempo": 120.0
            },
            {
                "start_time": 32.125,
                "end_time": 32.2068182,
                "pitch": 45,
                "velocity": 64,
                "duration": 0.0818182,
                "tempo": 120.0
            },
            {
                "start_time": 32.2227273,
                "end_time": 32.3068182,
                "pitch": 46,
                "velocity": 64,
                "duration": 0.0840909,
                "tempo": 120.0
            },
            {
                "start_time": 32.3227273,
                "end_time": 32.425,
                "pitch": 46,
                "velocity": 64,
                "duration": 0.1022727,
                "tempo": 120.0
            },
            {
                "start_time": 32.4409091,
                "end_time": 32.525,
                "pitch": 46,
                "velocity": 64,
                "duration": 0.0840909,
                "tempo": 120.0
            },
            {
                "start_time": 32.5409091,
                "end_time": 32.6409091,
                "pitch": 46,
                "velocity": 64,
                "duration": 0.1,
                "tempo": 120.0
            },
            {
                "start_time": 32.6590909,
                "end_time": 32.8454545,
                "pitch": 46,
                "velocity": 64,
                "duration": 0.1863636,
                "tempo": 120.0
            },
            {
                "start_time": 33.9272727,
                "end_time": 34.025,
                "pitch": 48,
                "velocity": 64,
                "duration": 0.0977273,
                "tempo": 120.0
            },
            {
                "start_time": 34.0431818,
                "end_time": 34.125,
                "pitch": 48,
                "velocity": 64,
                "duration": 0.0818182,
                "tempo": 120.0
            },
            {
                "start_time": 34.1409091,
                "end_time": 34.2386364,
                "pitch": 48,
                "velocity": 64,
                "duration": 0.0977273,
                "tempo": 120.0
            },
            {
                "start_time": 34.2545455,
                "end_time": 34.3363636,
                "pitch": 48,
                "velocity": 64,
                "duration": 0.0818182,
                "tempo": 120.0
            },
            {
                "start_time": 34.3545455,
                "end_time": 34.5545455,
                "pitch": 48,
                "velocity": 64,
                "duration": 0.2,
                "tempo": 120.0
            },
            {
                "start_time": 35.4136364,
                "end_time": 35.4931818,
                "pitch": 46,
                "velocity": 64,
                "duration": 0.0795455,
                "tempo": 120.0
            },
            {
                "start_time": 35.5090909,
                "end_time": 35.6045455,
                "pitch": 46,
                "velocity": 64,
                "duration": 0.0954545,
                "tempo": 120.0
            },
            {
                "start_time": 35.6204545,
                "end_time": 35.7068182,
                "pitch": 48,
                "velocity": 64,
                "duration": 0.0863636,
                "tempo": 120.0
            },
            {
                "start_time": 35.7227273,
                "end_time": 35.825,
                "pitch": 48,
                "velocity": 64,
                "duration": 0.1022727,
                "tempo": 120.0
            },
            {
                "start_time": 35.8431818,
                "end_time": 35.9272727,
                "pitch": 48,
                "velocity": 64,
                "duration": 0.0840909,
                "tempo": 120.0
            },
            {
                "start_time": 35.9454545,
                "end_time": 36.0318182,
                "pitch": 48,
                "velocity": 64,
                "duration": 0.0863636,
                "tempo": 120.0
            },
            {
                "start_time": 36.0477273,
                "end_time": 36.2454545,
                "pitch": 48,
                "velocity": 64,
                "duration": 0.1977273,
                "tempo": 120.0
            },
            {
                "start_time": 37.3272727,
                "end_time": 37.425,
                "pitch": 48,
                "velocity": 64,
                "duration": 0.0977273,
                "tempo": 120.0
            },
            {
                "start_time": 37.4431818,
                "end_time": 37.525,
                "pitch": 48,
                "velocity": 64,
                "duration": 0.0818182,
                "tempo": 120.0
            },
            {
                "start_time": 37.5409091,
                "end_time": 37.6227273,
                "pitch": 48,
                "velocity": 64,
                "duration": 0.0818182,
                "tempo": 120.0
            },
            {
                "start_time": 37.6386364,
                "end_time": 37.7363636,
                "pitch": 48,
                "velocity": 64,
                "duration": 0.0977273,
                "tempo": 120.0
            },
            {
                "start_time": 37.7545455,
                "end_time": 37.9590909,
                "pitch": 48,
                "velocity": 64,
                "duration": 0.2045455,
                "tempo": 120.0
            },
            {
                "start_time": 38.8136364,
                "end_time": 38.8954545,
                "pitch": 46,
                "velocity": 64,
                "duration": 0.0818182,
                "tempo": 120.0
            },
            {
                "start_time": 38.9136364,
                "end_time": 39.0136364,
                "pitch": 46,
                "velocity": 64,
                "duration": 0.1,
                "tempo": 120.0
            },
            {
                "start_time": 39.0295455,
                "end_time": 39.1136364,
                "pitch": 48,
                "velocity": 64,
                "duration": 0.0840909,
                "tempo": 120.0
            },
            {
                "start_time": 39.1295455,
                "end_time": 39.2136364,
                "pitch": 48,
                "velocity": 64,
                "duration": 0.0840909,
                "tempo": 120.0
            },
            {
                "start_time": 39.2318182,
                "end_time": 39.3318182,
                "pitch": 48,
                "velocity": 64,
                "duration": 0.1,
                "tempo": 120.0
            },
            {
                "start_time": 39.3477273,
                "end_time": 39.4318182,
                "pitch": 48,
                "velocity": 64,
                "duration": 0.0840909,
                "tempo": 120.0
            },
            {
                "start_time": 39.4477273,
                "end_time": 39.5477273,
                "pitch": 48,
                "velocity": 64,
                "duration": 0.1,
                "tempo": 120.0
            },
            {
                "start_time": 39.5636364,
                "end_time": 39.6454545,
                "pitch": 48,
                "velocity": 64,
                "duration": 0.0818182,
                "tempo": 120.0
            },
            {
                "start_time": 39.6613636,
                "end_time": 39.7431818,
                "pitch": 48,
                "velocity": 64,
                "duration": 0.0818182,
                "tempo": 120.0
            },
            {
                "start_time": 39.7590909,
                "end_time": 39.8590909,
                "pitch": 48,
                "velocity": 64,
                "duration": 0.1,
                "tempo": 120.0
            },
            {
                "start_time": 40.7181818,
                "end_time": 40.8045455,
                "pitch": 48,
                "velocity": 64,
                "duration": 0.0863636,
                "tempo": 120.0
            },
            {
                "start_time": 40.8204545,
                "end_time": 40.9227273,
                "pitch": 48,
                "velocity": 64,
                "duration": 0.1022727,
                "tempo": 120.0
            },
            {
                "start_time": 40.9409091,
                "end_time": 41.0272727,
                "pitch": 48,
                "velocity": 64,
                "duration": 0.0863636,
                "tempo": 120.0
            },
            {
                "start_time": 41.0431818,
                "end_time": 41.1454545,
                "pitch": 48,
                "velocity": 64,
                "duration": 0.1022727,
                "tempo": 120.0
            },
            {
                "start_time": 41.1636364,
                "end_time": 41.3477273,
                "pitch": 48,
                "velocity": 64,
                "duration": 0.1840909,
                "tempo": 120.0
            },
            {
                "start_time": 42.2181818,
                "end_time": 42.3022727,
                "pitch": 46,
                "velocity": 64,
                "duration": 0.0840909,
                "tempo": 120.0
            },
            {
                "start_time": 42.3204545,
                "end_time": 42.4068182,
                "pitch": 46,
                "velocity": 64,
                "duration": 0.0863636,
                "tempo": 120.0
            },
            {
                "start_time": 42.4227273,
                "end_time": 42.5204545,
                "pitch": 48,
                "velocity": 64,
                "duration": 0.0977273,
                "tempo": 120.0
            },
            {
                "start_time": 42.5386364,
                "end_time": 42.6204545,
                "pitch": 48,
                "velocity": 64,
                "duration": 0.0818182,
                "tempo": 120.0
            },
            {
                "start_time": 42.6363636,
                "end_time": 42.7340909,
                "pitch": 48,
                "velocity": 64,
                "duration": 0.0977273,
                "tempo": 120.0
            },
            {
                "start_time": 42.75,
                "end_time": 42.8318182,
                "pitch": 48,
                "velocity": 64,
                "duration": 0.0818182,
                "tempo": 120.0
            },
            {
                "start_time": 42.85,
                "end_time": 43.05,
                "pitch": 48,
                "velocity": 64,
                "duration": 0.2,
                "tempo": 120.0
            },
            {
                "start_time": 44.1272727,
                "end_time": 44.2113636,
                "pitch": 46,
                "velocity": 64,
                "duration": 0.0840909,
                "tempo": 120.0
            },
            {
                "start_time": 44.2295455,
                "end_time": 44.3295455,
                "pitch": 46,
                "velocity": 64,
                "duration": 0.1,
                "tempo": 120.0
            },
            {
                "start_time": 44.3454545,
                "end_time": 44.4295455,
                "pitch": 46,
                "velocity": 64,
                "duration": 0.0840909,
                "tempo": 120.0
            },
            {
                "start_time": 44.4454545,
                "end_time": 44.5295455,
                "pitch": 46,
                "velocity": 64,
                "duration": 0.0840909,
                "tempo": 120.0
            },
            {
                "start_time": 44.5477273,
                "end_time": 44.7431818,
                "pitch": 46,
                "velocity": 64,
                "duration": 0.1954545,
                "tempo": 120.0
            },
            {
                "start_time": 45.6090909,
                "end_time": 45.7090909,
                "pitch": 45,
                "velocity": 64,
                "duration": 0.1,
                "tempo": 120.0
            },
            {
                "start_time": 45.725,
                "end_time": 45.8090909,
                "pitch": 45,
                "velocity": 64,
                "duration": 0.0840909,
                "tempo": 120.0
            },
            {
                "start_time": 45.825,
                "end_time": 45.925,
                "pitch": 46,
                "velocity": 64,
                "duration": 0.1,
                "tempo": 120.0
            },
            {
                "start_time": 45.9409091,
                "end_time": 46.0227273,
                "pitch": 46,
                "velocity": 64,
                "duration": 0.0818182,
                "tempo": 120.0
            },
            {
                "start_time": 46.0386364,
                "end_time": 46.1204545,
                "pitch": 46,
                "velocity": 64,
                "duration": 0.0818182,
                "tempo": 120.0
            },
            {
                "start_time": 46.1363636,
                "end_time": 46.2363636,
                "pitch": 46,
                "velocity": 64,
                "duration": 0.1,
                "tempo": 120.0
            },
            {
                "start_time": 46.2522727,
                "end_time": 46.4568182,
                "pitch": 46,
                "velocity": 64,
                "duration": 0.2045455,
                "tempo": 120.0
            }
        ],
        "Vibraphone": [
            {
                "start_time": 0.0159091,
                "end_time": 0.0318182,
                "pitch": 81,
                "velocity": 51,
                "duration": 0.0159091,
                "tempo": 120.0
            },
            {
                "start_time": 0.0454545,
                "end_time": 0.125,
                "pitch": 56,
                "velocity": 51,
                "duration": 0.0795455,
                "tempo": 120.0
            },
            {
                "start_time": 0.1386364,
                "end_time": 0.2181818,
                "pitch": 56,
                "velocity": 51,
                "duration": 0.0795455,
                "tempo": 120.0
            },
            {
                "start_time": 0.2477273,
                "end_time": 0.325,
                "pitch": 56,
                "velocity": 51,
                "duration": 0.0772727,
                "tempo": 120.0
            },
            {
                "start_time": 0.3409091,
                "end_time": 0.5318182,
                "pitch": 66,
                "velocity": 51,
                "duration": 0.1909091,
                "tempo": 120.0
            },
            {
                "start_time": 0.5477273,
                "end_time": 0.6272727,
                "pitch": 66,
                "velocity": 51,
                "duration": 0.0795455,
                "tempo": 120.0
            },
            {
                "start_time": 0.6431818,
                "end_time": 0.8363636,
                "pitch": 68,
                "velocity": 51,
                "duration": 0.1931818,
                "tempo": 120.0
            },
            {
                "start_time": 0.8522727,
                "end_time": 1.0477273,
                "pitch": 56,
                "velocity": 51,
                "duration": 0.1954545,
                "tempo": 120.0
            },
            {
                "start_time": 1.0636364,
                "end_time": 1.2454545,
                "pitch": 65,
                "velocity": 51,
                "duration": 0.1818182,
                "tempo": 120.0
            },
            {
                "start_time": 1.2795455,
                "end_time": 1.4636364,
                "pitch": 66,
                "velocity": 51,
                "duration": 0.1840909,
                "tempo": 120.0
            },
            {
                "start_time": 1.4795455,
                "end_time": 1.6795455,
                "pitch": 65,
                "velocity": 51,
                "duration": 0.2,
                "tempo": 120.0
            },
            {
                "start_time": 1.6954545,
                "end_time": 1.7772727,
                "pitch": 56,
                "velocity": 51,
                "duration": 0.0818182,
                "tempo": 120.0
            },
            {
                "start_time": 1.8113636,
                "end_time": 1.8931818,
                "pitch": 56,
                "velocity": 51,
                "duration": 0.0818182,
                "tempo": 120.0
            },
            {
                "start_time": 1.9090909,
                "end_time": 1.9909091,
                "pitch": 56,
                "velocity": 51,
                "duration": 0.0818182,
                "tempo": 120.0
            },
            {
                "start_time": 2.0068182,
                "end_time": 2.2068182,
                "pitch": 66,
                "velocity": 51,
                "duration": 0.2,
                "tempo": 120.0
            },
            {
                "start_time": 2.2227273,
                "end_time": 2.3068182,
                "pitch": 66,
                "velocity": 51,
                "duration": 0.0840909,
                "tempo": 120.0
            },
            {
                "start_time": 2.3409091,
                "end_time": 2.525,
                "pitch": 68,
                "velocity": 51,
                "duration": 0.1840909,
                "tempo": 120.0
            },
            {
                "start_time": 2.5409091,
                "end_time": 2.7363636,
                "pitch": 56,
                "velocity": 51,
                "duration": 0.1954545,
                "tempo": 120.0
            },
            {
                "start_time": 2.7522727,
                "end_time": 2.9522727,
                "pitch": 65,
                "velocity": 51,
                "duration": 0.2,
                "tempo": 120.0
            },
            {
                "start_time": 2.9681818,
                "end_time": 3.3772727,
                "pitch": 66,
                "velocity": 51,
                "duration": 0.4090909,
                "tempo": 120.0
            },
            {
                "start_time": 3.4113636,
                "end_time": 3.4931818,
                "pitch": 56,
                "velocity": 51,
                "duration": 0.0818182,
                "tempo": 120.0
            },
            {
                "start_time": 3.5090909,
                "end_time": 3.5909091,
                "pitch": 56,
                "velocity": 51,
                "duration": 0.0818182,
                "tempo": 120.0
            },
            {
                "start_time": 3.6068182,
                "end_time": 3.7045455,
                "pitch": 56,
                "velocity": 51,
                "duration": 0.0977273,
                "tempo": 120.0
            },
            {
                "start_time": 3.7204545,
                "end_time": 3.9045455,
                "pitch": 66,
                "velocity": 51,
                "duration": 0.1840909,
                "tempo": 120.0
            },
            {
                "start_time": 3.9386364,
                "end_time": 4.0227273,
                "pitch": 66,
                "velocity": 51,
                "duration": 0.0840909,
                "tempo": 120.0
            },
            {
                "start_time": 4.0386364,
                "end_time": 4.2363636,
                "pitch": 68,
                "velocity": 51,
                "duration": 0.1977273,
                "tempo": 120.0
            },
            {
                "start_time": 4.2522727,
                "end_time": 4.4272727,
                "pitch": 56,
                "velocity": 51,
                "duration": 0.175,
                "tempo": 120.0
            },
            {
                "start_time": 4.4590909,
                "end_time": 4.6386364,
                "pitch": 65,
                "velocity": 51,
                "duration": 0.1795455,
                "tempo": 120.0
            },
            {
                "start_time": 4.6545455,
                "end_time": 4.8590909,
                "pitch": 66,
                "velocity": 51,
                "duration": 0.2045455,
                "tempo": 120.0
            },
            {
                "start_time": 4.8772727,
                "end_time": 5.0818182,
                "pitch": 65,
                "velocity": 51,
                "duration": 0.2045455,
                "tempo": 120.0
            },
            {
                "start_time": 5.0977273,
                "end_time": 5.1818182,
                "pitch": 56,
                "velocity": 51,
                "duration": 0.0840909,
                "tempo": 120.0
            },
            {
                "start_time": 5.1977273,
                "end_time": 5.2977273,
                "pitch": 56,
                "velocity": 51,
                "duration": 0.1,
                "tempo": 120.0
            },
            {
                "start_time": 5.3159091,
                "end_time": 5.4,
                "pitch": 56,
                "velocity": 51,
                "duration": 0.0840909,
                "tempo": 120.0
            },
            {
                "start_time": 5.4159091,
                "end_time": 5.4977273,
                "pitch": 56,
                "velocity": 51,
                "duration": 0.0818182,
                "tempo": 120.0
            },
            {
                "start_time": 5.6295455,
                "end_time": 5.7113636,
                "pitch": 56,
                "velocity": 51,
                "duration": 0.0818182,
                "tempo": 120.0
            },
            {
                "start_time": 5.7272727,
                "end_time": 5.825,
                "pitch": 56,
                "velocity": 51,
                "duration": 0.0977273,
                "tempo": 120.0
            },
            {
                "start_time": 5.8431818,
                "end_time": 5.925,
                "pitch": 56,
                "velocity": 51,
                "duration": 0.0818182,
                "tempo": 120.0
            },
            {
                "start_time": 6.1590909,
                "end_time": 6.3590909,
                "pitch": 53,
                "velocity": 51,
                "duration": 0.2,
                "tempo": 120.0
            },
            {
                "start_time": 6.375,
                "end_time": 6.5568182,
                "pitch": 54,
                "velocity": 51,
                "duration": 0.1818182,
                "tempo": 120.0
            },
            {
                "start_time": 6.5886364,
                "end_time": 6.7704545,
                "pitch": 55,
                "velocity": 51,
                "duration": 0.1818182,
                "tempo": 120.0
            },
            {
                "start_time": 6.7886364,
                "end_time": 8.0477273,
                "pitch": 56,
                "velocity": 51,
                "duration": 1.2590909,
                "tempo": 120.0
            },
            {
                "start_time": 8.5022727,
                "end_time": 9.7409091,
                "pitch": 56,
                "velocity": 64,
                "duration": 1.2386364,
                "tempo": 120.0
            },
            {
                "start_time": 10.1931818,
                "end_time": 11.4545455,
                "pitch": 54,
                "velocity": 64,
                "duration": 1.2613636,
                "tempo": 120.0
            },
            {
                "start_time": 11.9068182,
                "end_time": 13.1431818,
                "pitch": 54,
                "velocity": 64,
                "duration": 1.2363636,
                "tempo": 120.0
            },
            {
                "start_time": 13.5977273,
                "end_time": 13.6863636,
                "pitch": 56,
                "velocity": 64,
                "duration": 0.0886364,
                "tempo": 120.0
            },
            {
                "start_time": 13.7022727,
                "end_time": 13.8090909,
                "pitch": 56,
                "velocity": 51,
                "duration": 0.1068182,
                "tempo": 120.0
            },
            {
                "start_time": 13.825,
                "end_time": 13.9136364,
                "pitch": 56,
                "velocity": 51,
                "duration": 0.0886364,
                "tempo": 120.0
            },
            {
                "start_time": 13.9295455,
                "end_time": 14.125,
                "pitch": 66,
                "velocity": 51,
                "duration": 0.1954545,
                "tempo": 120.0
            },
            {
                "start_time": 14.1409091,
                "end_time": 14.2204545,
                "pitch": 66,
                "velocity": 51,
                "duration": 0.0795455,
                "tempo": 120.0
            },
            {
                "start_time": 14.2363636,
                "end_time": 14.4295455,
                "pitch": 68,
                "velocity": 51,
                "duration": 0.1931818,
                "tempo": 120.0
            },
            {
                "start_time": 14.4454545,
                "end_time": 14.6431818,
                "pitch": 56,
                "velocity": 51,
                "duration": 0.1977273,
                "tempo": 120.0
            },
            {
                "start_time": 14.6590909,
                "end_time": 14.8568182,
                "pitch": 65,
                "velocity": 51,
                "duration": 0.1977273,
                "tempo": 120.0
            },
            {
                "start_time": 14.8727273,
                "end_time": 15.0522727,
                "pitch": 66,
                "velocity": 51,
                "duration": 0.1795455,
                "tempo": 120.0
            },
            {
                "start_time": 15.0840909,
                "end_time": 15.2659091,
                "pitch": 65,
                "velocity": 51,
                "duration": 0.1818182,
                "tempo": 120.0
            },
            {
                "start_time": 15.2840909,
                "end_time": 15.3840909,
                "pitch": 56,
                "velocity": 51,
                "duration": 0.1,
                "tempo": 120.0
            },
            {
                "start_time": 15.4,
                "end_time": 15.4840909,
                "pitch": 56,
                "velocity": 51,
                "duration": 0.0840909,
                "tempo": 120.0
            },
            {
                "start_time": 15.5,
                "end_time": 15.5840909,
                "pitch": 56,
                "velocity": 51,
                "duration": 0.0840909,
                "tempo": 120.0
            },
            {
                "start_time": 15.6181818,
                "end_time": 15.8045455,
                "pitch": 66,
                "velocity": 51,
                "duration": 0.1863636,
                "tempo": 120.0
            },
            {
                "start_time": 15.8227273,
                "end_time": 15.925,
                "pitch": 66,
                "velocity": 51,
                "duration": 0.1022727,
                "tempo": 120.0
            },
            {
                "start_time": 15.9409091,
                "end_time": 16.1272727,
                "pitch": 68,
                "velocity": 51,
                "duration": 0.1863636,
                "tempo": 120.0
            },
            {
                "start_time": 16.1590909,
                "end_time": 16.3340909,
                "pitch": 56,
                "velocity": 51,
                "duration": 0.175,
                "tempo": 120.0
            },
            {
                "start_time": 16.35,
                "end_time": 16.5431818,
                "pitch": 65,
                "velocity": 51,
                "duration": 0.1931818,
                "tempo": 120.0
            },
            {
                "start_time": 16.5613636,
                "end_time": 16.9863636,
                "pitch": 66,
                "velocity": 51,
                "duration": 0.425,
                "tempo": 120.0
            },
            {
                "start_time": 17.0022727,
                "end_time": 17.0840909,
                "pitch": 56,
                "velocity": 51,
                "duration": 0.0818182,
                "tempo": 120.0
            },
            {
                "start_time": 17.1,
                "end_time": 17.1818182,
                "pitch": 56,
                "velocity": 51,
                "duration": 0.0818182,
                "tempo": 120.0
            },
            {
                "start_time": 17.2159091,
                "end_time": 17.2977273,
                "pitch": 56,
                "velocity": 51,
                "duration": 0.0818182,
                "tempo": 120.0
            },
            {
                "start_time": 17.3136364,
                "end_time": 17.5136364,
                "pitch": 66,
                "velocity": 51,
                "duration": 0.2,
                "tempo": 120.0
            },
            {
                "start_time": 17.5295455,
                "end_time": 17.6136364,
                "pitch": 66,
                "velocity": 51,
                "duration": 0.0840909,
                "tempo": 120.0
            },
            {
                "start_time": 17.6295455,
                "end_time": 17.8318182,
                "pitch": 68,
                "velocity": 51,
                "duration": 0.2022727,
                "tempo": 120.0
            },
            {
                "start_time": 17.8477273,
                "end_time": 18.05,
                "pitch": 56,
                "velocity": 51,
                "duration": 0.2022727,
                "tempo": 120.0
            },
            {
                "start_time": 18.0659091,
                "end_time": 18.2477273,
                "pitch": 65,
                "velocity": 51,
                "duration": 0.1818182,
                "tempo": 120.0
            },
            {
                "start_time": 18.2818182,
                "end_time": 18.4613636,
                "pitch": 66,
                "velocity": 51,
                "duration": 0.1795455,
                "tempo": 120.0
            },
            {
                "start_time": 18.4772727,
                "end_time": 18.675,
                "pitch": 65,
                "velocity": 51,
                "duration": 0.1977273,
                "tempo": 120.0
            },
            {
                "start_time": 18.6931818,
                "end_time": 18.7772727,
                "pitch": 56,
                "velocity": 51,
                "duration": 0.0840909,
                "tempo": 120.0
            },
            {
                "start_time": 18.8090909,
                "end_time": 18.8931818,
                "pitch": 56,
                "velocity": 51,
                "duration": 0.0840909,
                "tempo": 120.0
            },
            {
                "start_time": 18.9090909,
                "end_time": 18.9931818,
                "pitch": 56,
                "velocity": 51,
                "duration": 0.0840909,
                "tempo": 120.0
            },
            {
                "start_time": 19.0113636,
                "end_time": 19.1090909,
                "pitch": 56,
                "velocity": 51,
                "duration": 0.0977273,
                "tempo": 120.0
            },
            {
                "start_time": 19.225,
                "end_time": 19.3068182,
                "pitch": 56,
                "velocity": 51,
                "duration": 0.0818182,
                "tempo": 120.0
            },
            {
                "start_time": 19.3386364,
                "end_time": 19.4204545,
                "pitch": 56,
                "velocity": 51,
                "duration": 0.0818182,
                "tempo": 120.0
            },
            {
                "start_time": 19.4363636,
                "end_time": 19.5204545,
                "pitch": 56,
                "velocity": 51,
                "duration": 0.0840909,
                "tempo": 120.0
            },
            {
                "start_time": 19.7545455,
                "end_time": 19.9568182,
                "pitch": 53,
                "velocity": 51,
                "duration": 0.2022727,
                "tempo": 120.0
            },
            {
                "start_time": 19.9727273,
                "end_time": 20.1795455,
                "pitch": 54,
                "velocity": 51,
                "duration": 0.2068182,
                "tempo": 120.0
            },
            {
                "start_time": 20.1954545,
                "end_time": 20.3840909,
                "pitch": 55,
                "velocity": 51,
                "duration": 0.1886364,
                "tempo": 120.0
            },
            {
                "start_time": 20.4159091,
                "end_time": 20.5,
                "pitch": 56,
                "velocity": 51,
                "duration": 0.0840909,
                "tempo": 120.0
            },
            {
                "start_time": 20.5159091,
                "end_time": 20.6,
                "pitch": 56,
                "velocity": 51,
                "duration": 0.0840909,
                "tempo": 120.0
            },
            {
                "start_time": 20.6181818,
                "end_time": 20.7181818,
                "pitch": 56,
                "velocity": 51,
                "duration": 0.1,
                "tempo": 120.0
            },
            {
                "start_time": 20.7340909,
                "end_time": 20.9159091,
                "pitch": 66,
                "velocity": 51,
                "duration": 0.1818182,
                "tempo": 120.0
            },
            {
                "start_time": 20.9477273,
                "end_time": 21.0295455,
                "pitch": 66,
                "velocity": 51,
                "duration": 0.0818182,
                "tempo": 120.0
            },
            {
                "start_time": 21.0454545,
                "end_time": 21.2409091,
                "pitch": 68,
                "velocity": 51,
                "duration": 0.1954545,
                "tempo": 120.0
            },
            {
                "start_time": 21.2568182,
                "end_time": 21.4318182,
                "pitch": 56,
                "velocity": 51,
                "duration": 0.175,
                "tempo": 120.0
            },
            {
                "start_time": 21.4636364,
                "end_time": 21.6431818,
                "pitch": 65,
                "velocity": 51,
                "duration": 0.1795455,
                "tempo": 120.0
            },
            {
                "start_time": 21.6590909,
                "end_time": 21.8659091,
                "pitch": 66,
                "velocity": 51,
                "duration": 0.2068182,
                "tempo": 120.0
            },
            {
                "start_time": 21.8818182,
                "end_time": 22.0863636,
                "pitch": 65,
                "velocity": 51,
                "duration": 0.2045455,
                "tempo": 120.0
            },
            {
                "start_time": 22.1022727,
                "end_time": 22.1863636,
                "pitch": 56,
                "velocity": 51,
                "duration": 0.0840909,
                "tempo": 120.0
            },
            {
                "start_time": 22.2022727,
                "end_time": 22.3045455,
                "pitch": 56,
                "velocity": 51,
                "duration": 0.1022727,
                "tempo": 120.0
            },
            {
                "start_time": 22.3204545,
                "end_time": 22.4045455,
                "pitch": 56,
                "velocity": 51,
                "duration": 0.0840909,
                "tempo": 120.0
            },
            {
                "start_time": 22.4204545,
                "end_time": 22.6181818,
                "pitch": 66,
                "velocity": 51,
                "duration": 0.1977273,
                "tempo": 120.0
            },
            {
                "start_time": 22.6340909,
                "end_time": 22.7159091,
                "pitch": 66,
                "velocity": 51,
                "duration": 0.0818182,
                "tempo": 120.0
            },
            {
                "start_time": 22.7318182,
                "end_time": 22.9295455,
                "pitch": 68,
                "velocity": 51,
                "duration": 0.1977273,
                "tempo": 120.0
            },
            {
                "start_time": 22.9477273,
                "end_time": 23.1477273,
                "pitch": 56,
                "velocity": 51,
                "duration": 0.2,
                "tempo": 120.0
            },
            {
                "start_time": 23.1636364,
                "end_time": 23.3636364,
                "pitch": 65,
                "velocity": 51,
                "duration": 0.2,
                "tempo": 120.0
            },
            {
                "start_time": 23.3795455,
                "end_time": 23.775,
                "pitch": 66,
                "velocity": 51,
                "duration": 0.3954545,
                "tempo": 120.0
            },
            {
                "start_time": 23.7909091,
                "end_time": 23.8909091,
                "pitch": 56,
                "velocity": 51,
                "duration": 0.1,
                "tempo": 120.0
            },
            {
                "start_time": 23.9090909,
                "end_time": 23.9931818,
                "pitch": 56,
                "velocity": 51,
                "duration": 0.0840909,
                "tempo": 120.0
            },
            {
                "start_time": 24.0090909,
                "end_time": 24.0931818,
                "pitch": 56,
                "velocity": 51,
                "duration": 0.0840909,
                "tempo": 120.0
            },
            {
                "start_time": 24.1272727,
                "end_time": 24.3090909,
                "pitch": 66,
                "velocity": 51,
                "duration": 0.1818182,
                "tempo": 120.0
            },
            {
                "start_time": 24.3272727,
                "end_time": 24.4272727,
                "pitch": 66,
                "velocity": 51,
                "duration": 0.1,
                "tempo": 120.0
            },
            {
                "start_time": 24.4431818,
                "end_time": 24.6272727,
                "pitch": 68,
                "velocity": 51,
                "duration": 0.1840909,
                "tempo": 120.0
            },
            {
                "start_time": 24.6590909,
                "end_time": 24.8409091,
                "pitch": 56,
                "velocity": 51,
                "duration": 0.1818182,
                "tempo": 120.0
            },
            {
                "start_time": 24.8568182,
                "end_time": 25.0545455,
                "pitch": 65,
                "velocity": 51,
                "duration": 0.1977273,
                "tempo": 120.0
            },
            {
                "start_time": 25.0704545,
                "end_time": 25.2727273,
                "pitch": 66,
                "velocity": 51,
                "duration": 0.2022727,
                "tempo": 120.0
            },
            {
                "start_time": 25.2886364,
                "end_time": 25.4886364,
                "pitch": 65,
                "velocity": 51,
                "duration": 0.2,
                "tempo": 120.0
            },
            {
                "start_time": 25.5045455,
                "end_time": 25.5863636,
                "pitch": 56,
                "velocity": 51,
                "duration": 0.0818182,
                "tempo": 120.0
            },
            {
                "start_time": 25.6022727,
                "end_time": 25.6840909,
                "pitch": 56,
                "velocity": 51,
                "duration": 0.0818182,
                "tempo": 120.0
            },
            {
                "start_time": 25.7181818,
                "end_time": 25.8,
                "pitch": 56,
                "velocity": 51,
                "duration": 0.0818182,
                "tempo": 120.0
            },
            {
                "start_time": 25.8159091,
                "end_time": 25.9,
                "pitch": 56,
                "velocity": 51,
                "duration": 0.0840909,
                "tempo": 120.0
            },
            {
                "start_time": 26.0363636,
                "end_time": 26.1204545,
                "pitch": 56,
                "velocity": 51,
                "duration": 0.0840909,
                "tempo": 120.0
            },
            {
                "start_time": 26.1386364,
                "end_time": 26.225,
                "pitch": 56,
                "velocity": 51,
                "duration": 0.0863636,
                "tempo": 120.0
            },
            {
                "start_time": 26.2590909,
                "end_time": 26.3409091,
                "pitch": 56,
                "velocity": 51,
                "duration": 0.0818182,
                "tempo": 120.0
            },
            {
                "start_time": 26.5704545,
                "end_time": 26.75,
                "pitch": 53,
                "velocity": 51,
                "duration": 0.1795455,
                "tempo": 120.0
            },
            {
                "start_time": 26.7840909,
                "end_time": 26.9636364,
                "pitch": 54,
                "velocity": 51,
                "duration": 0.1795455,
                "tempo": 120.0
            },
            {
                "start_time": 26.9795455,
                "end_time": 27.1795455,
                "pitch": 55,
                "velocity": 51,
                "duration": 0.2,
                "tempo": 120.0
            },
            {
                "start_time": 27.1954545,
                "end_time": 27.2840909,
                "pitch": 56,
                "velocity": 51,
                "duration": 0.0886364,
                "tempo": 120.0
            },
            {
                "start_time": 27.3181818,
                "end_time": 27.4068182,
                "pitch": 56,
                "velocity": 51,
                "duration": 0.0886364,
                "tempo": 120.0
            },
            {
                "start_time": 27.4227273,
                "end_time": 27.5113636,
                "pitch": 56,
                "velocity": 51,
                "duration": 0.0886364,
                "tempo": 120.0
            },
            {
                "start_time": 27.5295455,
                "end_time": 27.6272727,
                "pitch": 56,
                "velocity": 51,
                "duration": 0.0977273,
                "tempo": 120.0
            },
            {
                "start_time": 27.6454545,
                "end_time": 27.8204545,
                "pitch": 56,
                "velocity": 51,
                "duration": 0.175,
                "tempo": 120.0
            },
            {
                "start_time": 28.6954545,
                "end_time": 28.7818182,
                "pitch": 54,
                "velocity": 51,
                "duration": 0.0863636,
                "tempo": 120.0
            },
            {
                "start_time": 28.7977273,
                "end_time": 28.8795455,
                "pitch": 54,
                "velocity": 51,
                "duration": 0.0818182,
                "tempo": 120.0
            },
            {
                "start_time": 28.9113636,
                "end_time": 28.9909091,
                "pitch": 56,
                "velocity": 51,
                "duration": 0.0795455,
                "tempo": 120.0
            },
            {
                "start_time": 29.0068182,
                "end_time": 29.0863636,
                "pitch": 56,
                "velocity": 51,
                "duration": 0.0795455,
                "tempo": 120.0
            },
            {
                "start_time": 29.1022727,
                "end_time": 29.1977273,
                "pitch": 56,
                "velocity": 51,
                "duration": 0.0954545,
                "tempo": 120.0
            },
            {
                "start_time": 29.2136364,
                "end_time": 29.2977273,
                "pitch": 56,
                "velocity": 51,
                "duration": 0.0840909,
                "tempo": 120.0
            },
            {
                "start_time": 29.3136364,
                "end_time": 29.5204545,
                "pitch": 56,
                "velocity": 51,
                "duration": 0.2068182,
                "tempo": 120.0
            },
            {
                "start_time": 30.6022727,
                "end_time": 30.6863636,
                "pitch": 54,
                "velocity": 51,
                "duration": 0.0840909,
                "tempo": 120.0
            },
            {
                "start_time": 30.7022727,
                "end_time": 30.8022727,
                "pitch": 54,
                "velocity": 51,
                "duration": 0.1,
                "tempo": 120.0
            },
            {
                "start_time": 30.8181818,
                "end_time": 30.9022727,
                "pitch": 54,
                "velocity": 51,
                "duration": 0.0840909,
                "tempo": 120.0
            },
            {
                "start_time": 30.9204545,
                "end_time": 31.0022727,
                "pitch": 54,
                "velocity": 51,
                "duration": 0.0818182,
                "tempo": 120.0
            },
            {
                "start_time": 31.0340909,
                "end_time": 31.2159091,
                "pitch": 54,
                "velocity": 51,
                "duration": 0.1818182,
                "tempo": 120.0
            },
            {
                "start_time": 32.0931818,
                "end_time": 32.175,
                "pitch": 53,
                "velocity": 51,
                "duration": 0.0818182,
                "tempo": 120.0
            },
            {
                "start_time": 32.1909091,
                "end_time": 32.2727273,
                "pitch": 53,
                "velocity": 51,
                "duration": 0.0818182,
                "tempo": 120.0
            },
            {
                "start_time": 32.2909091,
                "end_time": 32.3909091,
                "pitch": 54,
                "velocity": 51,
                "duration": 0.1,
                "tempo": 120.0
            },
            {
                "start_time": 32.4068182,
                "end_time": 32.4909091,
                "pitch": 54,
                "velocity": 51,
                "duration": 0.0840909,
                "tempo": 120.0
            },
            {
                "start_time": 32.5068182,
                "end_time": 32.5909091,
                "pitch": 54,
                "velocity": 51,
                "duration": 0.0840909,
                "tempo": 120.0
            },
            {
                "start_time": 32.625,
                "end_time": 32.7090909,
                "pitch": 54,
                "velocity": 51,
                "duration": 0.0840909,
                "tempo": 120.0
            },
            {
                "start_time": 32.7272727,
                "end_time": 32.9318182,
                "pitch": 54,
                "velocity": 51,
                "duration": 0.2045455,
                "tempo": 120.0
            },
            {
                "start_time": 34.0090909,
                "end_time": 34.0909091,
                "pitch": 56,
                "velocity": 51,
                "duration": 0.0818182,
                "tempo": 120.0
            },
            {
                "start_time": 34.1068182,
                "end_time": 34.1886364,
                "pitch": 56,
                "velocity": 51,
                "duration": 0.0818182,
                "tempo": 120.0
            },
            {
                "start_time": 34.2227273,
                "end_time": 34.3045455,
                "pitch": 56,
                "velocity": 51,
                "duration": 0.0818182,
                "tempo": 120.0
            },
            {
                "start_time": 34.3204545,
                "end_time": 34.4045455,
                "pitch": 56,
                "velocity": 51,
                "duration": 0.0840909,
                "tempo": 120.0
            },
            {
                "start_time": 34.4204545,
                "end_time": 34.6204545,
                "pitch": 56,
                "velocity": 51,
                "duration": 0.2,
                "tempo": 120.0
            },
            {
                "start_time": 35.4772727,
                "end_time": 35.5727273,
                "pitch": 54,
                "velocity": 51,
                "duration": 0.0954545,
                "tempo": 120.0
            },
            {
                "start_time": 35.5886364,
                "end_time": 35.6727273,
                "pitch": 54,
                "velocity": 51,
                "duration": 0.0840909,
                "tempo": 120.0
            },
            {
                "start_time": 35.6886364,
                "end_time": 35.775,
                "pitch": 56,
                "velocity": 51,
                "duration": 0.0863636,
                "tempo": 120.0
            },
            {
                "start_time": 35.8090909,
                "end_time": 35.8931818,
                "pitch": 56,
                "velocity": 51,
                "duration": 0.0840909,
                "tempo": 120.0
            },
            {
                "start_time": 35.9113636,
                "end_time": 35.9977273,
                "pitch": 56,
                "velocity": 51,
                "duration": 0.0863636,
                "tempo": 120.0
            },
            {
                "start_time": 36.0136364,
                "end_time": 36.1136364,
                "pitch": 56,
                "velocity": 51,
                "duration": 0.1,
                "tempo": 120.0
            },
            {
                "start_time": 36.1295455,
                "end_time": 36.3113636,
                "pitch": 56,
                "velocity": 51,
                "duration": 0.1818182,
                "tempo": 120.0
            },
            {
                "start_time": 37.4090909,
                "end_time": 37.4909091,
                "pitch": 56,
                "velocity": 51,
                "duration": 0.0818182,
                "tempo": 120.0
            },
            {
                "start_time": 37.5068182,
                "end_time": 37.5886364,
                "pitch": 56,
                "velocity": 51,
                "duration": 0.0818182,
                "tempo": 120.0
            },
            {
                "start_time": 37.6068182,
                "end_time": 37.7045455,
                "pitch": 56,
                "velocity": 51,
                "duration": 0.0977273,
                "tempo": 120.0
            },
            {
                "start_time": 37.7204545,
                "end_time": 37.8045455,
                "pitch": 56,
                "velocity": 51,
                "duration": 0.0840909,
                "tempo": 120.0
            },
            {
                "start_time": 37.8204545,
                "end_time": 38.0272727,
                "pitch": 56,
                "velocity": 51,
                "duration": 0.2068182,
                "tempo": 120.0
            },
            {
                "start_time": 38.8795455,
                "end_time": 38.9636364,
                "pitch": 54,
                "velocity": 51,
                "duration": 0.0840909,
                "tempo": 120.0
            },
            {
                "start_time": 38.9977273,
                "end_time": 39.0795455,
                "pitch": 54,
                "velocity": 51,
                "duration": 0.0818182,
                "tempo": 120.0
            },
            {
                "start_time": 39.0977273,
                "end_time": 39.1818182,
                "pitch": 56,
                "velocity": 51,
                "duration": 0.0840909,
                "tempo": 120.0
            },
            {
                "start_time": 39.1977273,
                "end_time": 39.2977273,
                "pitch": 56,
                "velocity": 51,
                "duration": 0.1,
                "tempo": 120.0
            },
            {
                "start_time": 39.3136364,
                "end_time": 39.3977273,
                "pitch": 56,
                "velocity": 51,
                "duration": 0.0840909,
                "tempo": 120.0
            },
            {
                "start_time": 39.4159091,
                "end_time": 39.4977273,
                "pitch": 56,
                "velocity": 51,
                "duration": 0.0818182,
                "tempo": 120.0
            },
            {
                "start_time": 39.5295455,
                "end_time": 39.6113636,
                "pitch": 56,
                "velocity": 51,
                "duration": 0.0818182,
                "tempo": 120.0
            },
            {
                "start_time": 39.6295455,
                "end_time": 39.7113636,
                "pitch": 56,
                "velocity": 51,
                "duration": 0.0818182,
                "tempo": 120.0
            },
            {
                "start_time": 39.7272727,
                "end_time": 39.825,
                "pitch": 56,
                "velocity": 51,
                "duration": 0.0977273,
                "tempo": 120.0
            },
            {
                "start_time": 39.8409091,
                "end_time": 39.925,
                "pitch": 56,
                "velocity": 51,
                "duration": 0.0840909,
                "tempo": 120.0
            },
            {
                "start_time": 40.7863636,
                "end_time": 40.8886364,
                "pitch": 56,
                "velocity": 51,
                "duration": 0.1022727,
                "tempo": 120.0
            },
            {
                "start_time": 40.9068182,
                "end_time": 40.9909091,
                "pitch": 56,
                "velocity": 51,
                "duration": 0.0840909,
                "tempo": 120.0
            },
            {
                "start_time": 41.0090909,
                "end_time": 41.0954545,
                "pitch": 56,
                "velocity": 51,
                "duration": 0.0863636,
                "tempo": 120.0
            },
            {
                "start_time": 41.1295455,
                "end_time": 41.2136364,
                "pitch": 56,
                "velocity": 51,
                "duration": 0.0840909,
                "tempo": 120.0
            },
            {
                "start_time": 41.2295455,
                "end_time": 41.4318182,
                "pitch": 56,
                "velocity": 51,
                "duration": 0.2022727,
                "tempo": 120.0
            },
            {
                "start_time": 42.2863636,
                "end_time": 42.3704545,
                "pitch": 54,
                "velocity": 51,
                "duration": 0.0840909,
                "tempo": 120.0
            },
            {
                "start_time": 42.3886364,
                "end_time": 42.4886364,
                "pitch": 54,
                "velocity": 51,
                "duration": 0.1,
                "tempo": 120.0
            },
            {
                "start_time": 42.5045455,
                "end_time": 42.5863636,
                "pitch": 56,
                "velocity": 51,
                "duration": 0.0818182,
                "tempo": 120.0
            },
            {
                "start_time": 42.6022727,
                "end_time": 42.6840909,
                "pitch": 56,
                "velocity": 51,
                "duration": 0.0818182,
                "tempo": 120.0
            },
            {
                "start_time": 42.7181818,
                "end_time": 42.8,
                "pitch": 56,
                "velocity": 51,
                "duration": 0.0818182,
                "tempo": 120.0
            },
            {
                "start_time": 42.8159091,
                "end_time": 42.9,
                "pitch": 56,
                "velocity": 51,
                "duration": 0.0840909,
                "tempo": 120.0
            },
            {
                "start_time": 42.9159091,
                "end_time": 43.1159091,
                "pitch": 56,
                "velocity": 51,
                "duration": 0.2,
                "tempo": 120.0
            },
            {
                "start_time": 44.1954545,
                "end_time": 44.2795455,
                "pitch": 54,
                "velocity": 51,
                "duration": 0.0840909,
                "tempo": 120.0
            },
            {
                "start_time": 44.3113636,
                "end_time": 44.3954545,
                "pitch": 54,
                "velocity": 51,
                "duration": 0.0840909,
                "tempo": 120.0
            },
            {
                "start_time": 44.4136364,
                "end_time": 44.4954545,
                "pitch": 54,
                "velocity": 51,
                "duration": 0.0818182,
                "tempo": 120.0
            },
            {
                "start_time": 44.5136364,
                "end_time": 44.6113636,
                "pitch": 54,
                "velocity": 51,
                "duration": 0.0977273,
                "tempo": 120.0
            },
            {
                "start_time": 44.6295455,
                "end_time": 44.8090909,
                "pitch": 54,
                "velocity": 51,
                "duration": 0.1795455,
                "tempo": 120.0
            },
            {
                "start_time": 45.6931818,
                "end_time": 45.775,
                "pitch": 53,
                "velocity": 51,
                "duration": 0.0818182,
                "tempo": 120.0
            },
            {
                "start_time": 45.7931818,
                "end_time": 45.875,
                "pitch": 53,
                "velocity": 51,
                "duration": 0.0818182,
                "tempo": 120.0
            },
            {
                "start_time": 45.9068182,
                "end_time": 45.9886364,
                "pitch": 54,
                "velocity": 51,
                "duration": 0.0818182,
                "tempo": 120.0
            },
            {
                "start_time": 46.0068182,
                "end_time": 46.0886364,
                "pitch": 54,
                "velocity": 51,
                "duration": 0.0818182,
                "tempo": 120.0
            },
            {
                "start_time": 46.1045455,
                "end_time": 46.2022727,
                "pitch": 54,
                "velocity": 51,
                "duration": 0.0977273,
                "tempo": 120.0
            },
            {
                "start_time": 46.2181818,
                "end_time": 46.3022727,
                "pitch": 54,
                "velocity": 51,
                "duration": 0.0840909,
                "tempo": 120.0
            },
            {
                "start_time": 46.3204545,
                "end_time": 46.525,
                "pitch": 54,
                "velocity": 51,
                "duration": 0.2045455,
                "tempo": 120.0
            }
        ]
    }
}