{
    "mood": "angry",
    "instruments": {
        "Oboe": [
            {
                "start_time": 0.0,
                "end_time": 0.0477273,
                "pitch": 76,
                "velocity": 20,
                "duration": 0.0477273,
                "tempo": 120.0
            },
            {
                "start_time": 0.0477273,
                "end_time": 3.5568182,
                "pitch": 64,
                "velocity": 20,
                "duration": 3.5090909,
                "tempo": 120.0
            },
            {
                "start_time": 3.5727273,
                "end_time": 3.7613636,
                "pitch": 66,
                "velocity": 40,
                "duration": 0.1886364,
                "tempo": 120.0
            },
            {
                "start_time": 3.7772727,
                "end_time": 3.9772727,
                "pitch": 66,
                "velocity": 40,
                "duration": 0.2,
                "tempo": 120.0
            },
            {
                "start_time": 3.9954545,
                "end_time": 4.1772727,
                "pitch": 64,
                "velocity": 40,
                "duration": 0.1818182,
                "tempo": 120.0
            },
            {
                "start_time": 4.1954545,
                "end_time": 4.5977273,
                "pitch": 66,
                "velocity": 40,
                "duration": 0.4022727,
                "tempo": 120.0
            },
            {
                "start_time": 4.6136364,
                "end_time": 4.8045455,
                "pitch": 66,
                "velocity": 40,
                "duration": 0.1909091,
                "tempo": 120.0
            },
            {
                "start_time": 4.8204545,
                "end_time": 5.0272727,
                "pitch": 64,
                "velocity": 40,
                "duration": 0.2068182,
                "tempo": 120.0
            },
            {
                "start_time": 5.0431818,
                "end_time": 5.4363636,
                "pitch": 66,
                "velocity": 40,
                "duration": 0.3931818,
                "tempo": 120.0
            },
            {
                "start_time": 5.4522727,
                "end_time": 5.8431818,
                "pitch": 66,
                "velocity": 40,
                "duration": 0.3909091,
                "tempo": 120.0
            },
            {
                "start_time": 5.8613636,
                "end_time": 6.0613636,
                "pitch": 69,
                "velocity": 40,
                "duration": 0.2,
                "tempo": 120.0
            },
            {
                "start_time": 6.0772727,
                "end_time": 6.2636364,
                "pitch": 66,
                "velocity": 40,
                "duration": 0.1863636,
                "tempo": 120.0
            },
            {
                "start_time": 6.2795455,
                "end_time": 6.6931818,
                "pitch": 64,
                "velocity": 40,
                "duration": 0.4136364,
                "tempo": 120.0
            },
            {
                "start_time": 6.7090909,
                "end_time": 6.9,
                "pitch": 64,
                "velocity": 40,
                "duration": 0.1909091,
                "tempo": 120.0
            },
            {
                "start_time": 6.9159091,
                "end_time": 7.1022727,
                "pitch": 66,
                "velocity": 40,
                "duration": 0.1863636,
                "tempo": 120.0
            },
            {
                "start_time": 7.1363636,
                "end_time": 7.3159091,
                "pitch": 66,
                "velocity": 40,
                "duration": 0.1795455,
                "tempo": 120.0
            },
            {
                "start_time": 7.3318182,
                "end_time": 7.5136364,
                "pitch": 64,
                "velocity": 40,
                "duration": 0.1818182,
                "tempo": 120.0
            },
            {
                "start_time": 7.5318182,
                "end_time": 7.9431818,
                "pitch": 66,
                "velocity": 40,
                "duration": 0.4113636,
                "tempo": 120.0
            },
            {
                "start_time": 7.9590909,
                "end_time": 8.1431818,
                "pitch": 66,
                "velocity": 40,
                "duration": 0.1840909,
                "tempo": 120.0
            },
            {
                "start_time": 8.1590909,
                "end_time": 8.3613636,
                "pitch": 64,
                "velocity": 40,
                "duration": 0.2022727,
                "tempo": 120.0
            },
            {
                "start_time": 8.3795455,
                "end_time": 8.5681818,
                "pitch": 69,
                "velocity": 40,
                "duration": 0.1886364,
                "tempo": 120.0
            },
            {
                "start_time": 8.5840909,
                "end_time": 8.7863636,
                "pitch": 69,
                "velocity": 40,
                "duration": 0.2022727,
                "tempo": 120.0
            },
            {
                "start_time": 8.8045455,
                "end_time": 8.8863636,
                "pitch": 69,
                "velocity": 40,
                "duration": 0.0818182,
                "tempo": 120.0
            },
            {
                "start_time": 8.9022727,
                "end_time": 8.9840909,
                "pitch": 66,
                "velocity": 40,
                "duration": 0.0818182,
                "tempo": 120.0
            },
            {
                "start_time": 9.0,
                "end_time": 9.1818182,
                "pitch": 64,
                "velocity": 40,
                "duration": 0.1818182,
                "tempo": 120.0
            },
            {
                "start_time": 9.2,
                "end_time": 9.4068182,
                "pitch": 71,
                "velocity": 40,
                "duration": 0.2068182,
                "tempo": 120.0
            },
            {
                "start_time": 9.4227273,
                "end_time": 9.6113636,
                "pitch": 71,
                "velocity": 40,
                "duration": 0.1886364,
                "tempo": 120.0
            },
            {
                "start_time": 9.6272727,
                "end_time": 9.7113636,
                "pitch": 71,
                "velocity": 40,
                "duration": 0.0840909,
                "tempo": 120.0
            },
            {
                "start_time": 9.7272727,
                "end_time": 9.8272727,
                "pitch": 66,
                "velocity": 40,
                "duration": 0.1,
                "tempo": 120.0
            },
            {
                "start_time": 9.8454545,
                "end_time": 10.0295455,
                "pitch": 64,
                "velocity": 40,
                "duration": 0.1840909,
                "tempo": 120.0
            },
            {
                "start_time": 10.0477273,
                "end_time": 10.8681818,
                "pitch": 76,
                "velocity": 40,
                "duration": 0.8204545,
                "tempo": 120.0
            },
            {
                "start_time": 10.8863636,
                "end_time": 11.6977273,
                "pitch": 75,
                "velocity": 40,
                "duration": 0.8113636,
                "tempo": 120.0
            },
            {
                "start_time": 11.7159091,
                "end_time": 12.5431818,
                "pitch": 71,
                "velocity": 40,
                "duration": 0.8272727,
                "tempo": 120.0
            },
            {
                "start_time": 12.5613636,
                "end_time": 13.375,
                "pitch": 75,
                "velocity": 40,
                "duration": 0.8136364,
                "tempo": 120.0
            },
            {
                "start_time": 13.3909091,
                "end_time": 13.7931818,
                "pitch": 73,
                "velocity": 40,
                "duration": 0.4022727,
                "tempo": 120.0
            },
            {
                "start_time": 13.8113636,
                "end_time": 16.7159091,
                "pitch": 76,
                "velocity": 40,
                "duration": 2.9045455,
                "tempo": 120.0
            },
            {
                "start_time": 16.7159091,
                "end_time": 16.9227273,
                "pitch": 64,
                "velocity": 40,
                "duration": 0.2068182,
                "tempo": 120.0
            },
            {
                "start_time": 16.9386364,
                "end_time": 17.1272727,
                "pitch": 66,
                "velocity": 40,
                "duration": 0.1886364,
                "tempo": 120.0
            },
            {
                "start_time": 17.1431818,
                "end_time": 17.3272727,
                "pitch": 66,
                "velocity": 40,
                "duration": 0.1840909,
                "tempo": 120.0
            },
            {
                "start_time": 17.3431818,
                "end_time": 17.5431818,
                "pitch": 64,
                "velocity": 40,
                "duration": 0.2,
                "tempo": 120.0
            },
            {
                "start_time": 17.5613636,
                "end_time": 17.9590909,
                "pitch": 66,
                "velocity": 40,
                "duration": 0.3977273,
                "tempo": 120.0
            },
            {
                "start_time": 17.975,
                "end_time": 18.1545455,
                "pitch": 66,
                "velocity": 40,
                "duration": 0.1795455,
                "tempo": 120.0
            },
            {
                "start_time": 18.1704545,
                "end_time": 18.3522727,
                "pitch": 64,
                "velocity": 40,
                "duration": 0.1818182,
                "tempo": 120.0
            },
            {
                "start_time": 18.3704545,
                "end_time": 18.7818182,
                "pitch": 66,
                "velocity": 40,
                "duration": 0.4113636,
                "tempo": 120.0
            },
            {
                "start_time": 18.7977273,
                "end_time": 19.2,
                "pitch": 66,
                "velocity": 40,
                "duration": 0.4022727,
                "tempo": 120.0
            },
            {
                "start_time": 19.2181818,
                "end_time": 19.4068182,
                "pitch": 69,
                "velocity": 40,
                "duration": 0.1886364,
                "tempo": 120.0
            },
            {
                "start_time": 19.4227273,
                "end_time": 19.6318182,
                "pitch": 66,
                "velocity": 40,
                "duration": 0.2090909,
                "tempo": 120.0
            },
            {
                "start_time": 19.6477273,
                "end_time": 20.0477273,
                "pitch": 64,
                "velocity": 40,
                "duration": 0.4,
                "tempo": 120.0
            },
            {
                "start_time": 20.0818182,
                "end_time": 20.2613636,
                "pitch": 64,
                "velocity": 40,
                "duration": 0.1795455,
                "tempo": 120.0
            },
            {
                "start_time": 20.2772727,
                "end_time": 20.4590909,
                "pitch": 66,
                "velocity": 40,
                "duration": 0.1818182,
                "tempo": 120.0
            },
            {
                "start_time": 20.4772727,
                "end_time": 20.6840909,
                "pitch": 66,
                "velocity": 40,
                "duration": 0.2068182,
                "tempo": 120.0
            },
            {
                "start_time": 20.7,
                "end_time": 20.8886364,
                "pitch": 64,
                "velocity": 40,
                "duration": 0.1886364,
                "tempo": 120.0
            },
            {
                "start_time": 20.9045455,
                "end_time": 21.3068182,
                "pitch": 66,
                "velocity": 40,
                "duration": 0.4022727,
                "tempo": 120.0
            },
            {
                "start_time": 21.325,
                "end_time": 21.5136364,
                "pitch": 66,
                "velocity": 40,
                "duration": 0.1886364,
                "tempo": 120.0
            },
            {
                "start_time": 21.5295455,
                "end_time": 21.7318182,
                "pitch": 64,
                "velocity": 40,
                "duration": 0.2022727,
                "tempo": 120.0
            },
            {
                "start_time": 21.75,
                "end_time": 21.9272727,
                "pitch": 69,
                "velocity": 40,
                "duration": 0.1772727,
                "tempo": 120.0
            },
            {
                "start_time": 21.9431818,
                "end_time": 22.125,
                "pitch": 69,
                "velocity": 40,
                "duration": 0.1818182,
                "tempo": 120.0
            },
            {
                "start_time": 22.1431818,
                "end_time": 22.2454545,
                "pitch": 69,
                "velocity": 40,
                "duration": 0.1022727,
                "tempo": 120.0
            },
            {
                "start_time": 22.2636364,
                "end_time": 22.35,
                "pitch": 66,
                "velocity": 40,
                "duration": 0.0863636,
                "tempo": 120.0
            },
            {
                "start_time": 22.3659091,
                "end_time": 22.5545455,
                "pitch": 64,
                "velocity": 40,
                "duration": 0.1886364,
                "tempo": 120.0
            },
            {
                "start_time": 22.5704545,
                "end_time": 22.7704545,
                "pitch": 71,
                "velocity": 40,
                "duration": 0.2,
                "tempo": 120.0
            },
            {
                "start_time": 22.7863636,
                "end_time": 22.9704545,
                "pitch": 71,
                "velocity": 40,
                "duration": 0.1840909,
                "tempo": 120.0
            },
            {
                "start_time": 22.9886364,
                "end_time": 23.0704545,
                "pitch": 71,
                "velocity": 40,
                "duration": 0.0818182,
                "tempo": 120.0
            },
            {
                "start_time": 23.0886364,
                "end_time": 23.1727273,
                "pitch": 66,
                "velocity": 40,
                "duration": 0.0840909,
                "tempo": 120.0
            },
            {
                "start_time": 23.1886364,
                "end_time": 23.3909091,
                "pitch": 64,
                "velocity": 40,
                "duration": 0.2022727,
                "tempo": 120.0
            },
            {
                "start_time": 23.4068182,
                "end_time": 24.2181818,
                "pitch": 76,
                "velocity": 40,
                "duration": 0.8113636,
                "tempo": 120.0
            },
            {
                "start_time": 24.2363636,
                "end_time": 25.0659091,
                "pitch": 75,
                "velocity": 40,
                "duration": 0.8295455,
                "tempo": 120.0
            },
            {
                "start_time": 25.0818182,
                "end_time": 25.8840909,
                "pitch": 71,
                "velocity": 40,
                "duration": 0.8022727,
                "tempo": 120.0
            },
            {
                "start_time": 25.9022727,
                "end_time": 26.7318182,
                "pitch": 75,
                "velocity": 40,
                "duration": 0.8295455,
                "tempo": 120.0
            },
            {
                "start_time": 26.7477273,
                "end_time": 27.15,
                "pitch": 73,
                "velocity": 40,
                "duration": 0.4022727,
                "tempo": 120.0
            },
            {
                "start_time": 27.1681818,
                "end_time": 30.0318182,
                "pitch": 76,
                "velocity": 40,
                "duration": 2.8636364,
                "tempo": 120.0
            }
        ],
        "Electric Guitar (clean)": [
            {
                "start_time": 0.0,
                "end_time": 0.1795455,
                "pitch": 54,
                "velocity": 51,
                "duration": 0.1795455,
                "tempo": 120.0
            },
            {
                "start_time": 0.3909091,
                "end_time": 0.5681818,
                "pitch": 54,
                "velocity": 51,
                "duration": 0.1772727,
                "tempo": 120.0
            },
            {
                "start_time": 0.5863636,
                "end_time": 0.7795455,
                "pitch": 49,
                "velocity": 51,
                "duration": 0.1931818,
                "tempo": 120.0
            },
            {
                "start_time": 0.7977273,
                "end_time": 0.9818182,
                "pitch": 52,
                "velocity": 51,
                "duration": 0.1840909,
                "tempo": 120.0
            },
            {
                "start_time": 0.9977273,
                "end_time": 1.1977273,
                "pitch": 54,
                "velocity": 51,
                "duration": 0.2,
                "tempo": 120.0
            },
            {
                "start_time": 1.2136364,
                "end_time": 1.3977273,
                "pitch": 52,
                "velocity": 51,
                "duration": 0.1840909,
                "tempo": 120.0
            },
            {
                "start_time": 1.4159091,
                "end_time": 1.6,
                "pitch": 49,
                "velocity": 51,
                "duration": 0.1840909,
                "tempo": 120.0
            },
            {
                "start_time": 1.6159091,
                "end_time": 1.8159091,
                "pitch": 54,
                "velocity": 51,
                "duration": 0.2,
                "tempo": 120.0
            },
            {
                "start_time": 2.0340909,
                "end_time": 2.2227273,
                "pitch": 54,
                "velocity": 51,
                "duration": 0.1886364,
                "tempo": 120.0
            },
            {
                "start_time": 2.2386364,
                "end_time": 2.4454545,
                "pitch": 49,
                "velocity": 51,
                "duration": 0.2068182,
                "tempo": 120.0
            },
            {
                "start_time": 2.4613636,
                "end_time": 2.6454545,
                "pitch": 52,
                "velocity": 51,
                "duration": 0.1840909,
                "tempo": 120.0
            },
            {
                "start_time": 2.6636364,
                "end_time": 2.8636364,
                "pitch": 54,
                "velocity": 51,
                "duration": 0.2,
                "tempo": 120.0
            },
            {
                "start_time": 2.8795455,
                "end_time": 3.0636364,
                "pitch": 52,
                "velocity": 51,
                "duration": 0.1840909,
                "tempo": 120.0
            },
            {
                "start_time": 3.0795455,
                "end_time": 3.2636364,
                "pitch": 49,
                "velocity": 51,
                "duration": 0.1840909,
                "tempo": 120.0
            },
            {
                "start_time": 3.2818182,
                "end_time": 3.4863636,
                "pitch": 54,
                "velocity": 51,
                "duration": 0.2045455,
                "tempo": 120.0
            },
            {
                "start_time": 3.7113636,
                "end_time": 3.9113636,
                "pitch": 54,
                "velocity": 51,
                "duration": 0.2,
                "tempo": 120.0
            },
            {
                "start_time": 3.9272727,
                "end_time": 4.1113636,
                "pitch": 49,
                "velocity": 51,
                "duration": 0.1840909,
                "tempo": 120.0
            },
            {
                "start_time": 4.1272727,
                "end_time": 4.3113636,
                "pitch": 52,
                "velocity": 51,
                "duration": 0.1840909,
                "tempo": 120.0
            },
            {
                "start_time": 4.3295455,
                "end_time": 4.5295455,
                "pitch": 54,
                "velocity": 51,
                "duration": 0.2,
                "tempo": 120.0
            },
            {
                "start_time": 4.5454545,
                "end_time": 4.7340909,
                "pitch": 52,
                "velocity": 51,
                "duration": 0.1886364,
                "tempo": 120.0
            },
            {
                "start_time": 4.7522727,
                "end_time": 4.9409091,
                "pitch": 49,
                "velocity": 51,
                "duration": 0.1886364,
                "tempo": 120.0
            },
            {
                "start_time": 4.975,
                "end_time": 5.1636364,
                "pitch": 54,
                "velocity": 51,
                "duration": 0.1886364,
                "tempo": 120.0
            },
            {
                "start_time": 5.3863636,
                "end_time": 5.5818182,
                "pitch": 54,
                "velocity": 51,
                "duration": 0.1954545,
                "tempo": 120.0
            },
            {
                "start_time": 5.5977273,
                "end_time": 5.7772727,
                "pitch": 49,
                "velocity": 51,
                "duration": 0.1795455,
                "tempo": 120.0
            },
            {
                "start_time": 5.7931818,
                "end_time": 5.9772727,
                "pitch": 52,
                "velocity": 51,
                "duration": 0.1840909,
                "tempo": 120.0
            },
            {
                "start_time": 5.9954545,
                "end_time": 6.1954545,
                "pitch": 54,
                "velocity": 51,
                "duration": 0.2,
                "tempo": 120.0
            },
            {
                "start_time": 6.2113636,
                "end_time": 6.4,
                "pitch": 52,
                "velocity": 51,
                "duration": 0.1886364,
                "tempo": 120.0
            },
            {
                "start_time": 6.4181818,
                "end_time": 6.625,
                "pitch": 49,
                "velocity": 51,
                "duration": 0.2068182,
                "tempo": 120.0
            },
            {
                "start_time": 6.6409091,
                "end_time": 6.8295455,
                "pitch": 54,
                "velocity": 51,
                "duration": 0.1886364,
                "tempo": 120.0
            },
            {
                "start_time": 7.0545455,
                "end_time": 7.25,
                "pitch": 54,
                "velocity": 51,
                "duration": 0.1954545,
                "tempo": 120.0
            },
            {
                "start_time": 7.2659091,
                "end_time": 7.4454545,
                "pitch": 49,
                "velocity": 51,
                "duration": 0.1795455,
                "tempo": 120.0
            },
            {
                "start_time": 7.4636364,
                "end_time": 7.6681818,
                "pitch": 52,
                "velocity": 51,
                "duration": 0.2045455,
                "tempo": 120.0
            },
            {
                "start_time": 7.6863636,
                "end_time": 7.875,
                "pitch": 54,
                "velocity": 51,
                "duration": 0.1886364,
                "tempo": 120.0
            },
            {
                "start_time": 7.8909091,
                "end_time": 8.075,
                "pitch": 52,
                "velocity": 51,
                "duration": 0.1840909,
                "tempo": 120.0
            },
            {
                "start_time": 8.0931818,
                "end_time": 8.2931818,
                "pitch": 49,
                "velocity": 51,
                "duration": 0.2,
                "tempo": 120.0
            },
            {
                "start_time": 8.3090909,
                "end_time": 8.4977273,
                "pitch": 54,
                "velocity": 51,
                "duration": 0.1886364,
                "tempo": 120.0
            },
            {
                "start_time": 8.7227273,
                "end_time": 8.9181818,
                "pitch": 54,
                "velocity": 51,
                "duration": 0.1954545,
                "tempo": 120.0
            },
            {
                "start_time": 8.9340909,
                "end_time": 9.1159091,
                "pitch": 49,
                "velocity": 51,
                "duration": 0.1818182,
                "tempo": 120.0
            },
            {
                "start_time": 9.1318182,
                "end_time": 9.3363636,
                "pitch": 52,
                "velocity": 51,
                "duration": 0.2045455,
                "tempo": 120.0
            },
            {
                "start_time": 9.3545455,
                "end_time": 9.5431818,
                "pitch": 54,
                "velocity": 51,
                "duration": 0.1886364,
                "tempo": 120.0
            },
            {
                "start_time": 9.5613636,
                "end_time": 9.7431818,
                "pitch": 52,
                "velocity": 51,
                "duration": 0.1818182,
                "tempo": 120.0
            },
            {
                "start_time": 9.7613636,
                "end_time": 9.9613636,
                "pitch": 49,
                "velocity": 51,
                "duration": 0.2,
                "tempo": 120.0
            },
            {
                "start_time": 9.9772727,
                "end_time": 10.1659091,
                "pitch": 47,
                "velocity": 51,
                "duration": 0.1886364,
                "tempo": 120.0
            },
            {
                "start_time": 10.1840909,
                "end_time": 10.3909091,
                "pitch": 47,
                "velocity": 51,
                "duration": 0.2068182,
                "tempo": 120.0
            },
            {
                "start_time": 10.4068182,
                "end_time": 10.5954545,
                "pitch": 47,
                "velocity": 51,
                "duration": 0.1886364,
                "tempo": 120.0
            },
            {
                "start_time": 10.6136364,
                "end_time": 10.8022727,
                "pitch": 47,
                "velocity": 51,
                "duration": 0.1886364,
                "tempo": 120.0
            },
            {
                "start_time": 10.8204545,
                "end_time": 11.0159091,
                "pitch": 47,
                "velocity": 51,
                "duration": 0.1954545,
                "tempo": 120.0
            },
            {
                "start_time": 11.0318182,
                "end_time": 11.2136364,
                "pitch": 47,
                "velocity": 51,
                "duration": 0.1818182,
                "tempo": 120.0
            },
            {
                "start_time": 11.2295455,
                "end_time": 11.4136364,
                "pitch": 47,
                "velocity": 51,
                "duration": 0.1840909,
                "tempo": 120.0
            },
            {
                "start_time": 11.4454545,
                "end_time": 11.6295455,
                "pitch": 47,
                "velocity": 51,
                "duration": 0.1840909,
                "tempo": 120.0
            },
            {
                "start_time": 11.6477273,
                "end_time": 11.8363636,
                "pitch": 51,
                "velocity": 51,
                "duration": 0.1886364,
                "tempo": 120.0
            },
            {
                "start_time": 11.8522727,
                "end_time": 12.0590909,
                "pitch": 51,
                "velocity": 51,
                "duration": 0.2068182,
                "tempo": 120.0
            },
            {
                "start_time": 12.075,
                "end_time": 12.2590909,
                "pitch": 51,
                "velocity": 51,
                "duration": 0.1840909,
                "tempo": 120.0
            },
            {
                "start_time": 12.2772727,
                "end_time": 12.4613636,
                "pitch": 51,
                "velocity": 51,
                "duration": 0.1840909,
                "tempo": 120.0
            },
            {
                "start_time": 12.4772727,
                "end_time": 12.6772727,
                "pitch": 52,
                "velocity": 51,
                "duration": 0.2,
                "tempo": 120.0
            },
            {
                "start_time": 12.6931818,
                "end_time": 12.8772727,
                "pitch": 52,
                "velocity": 51,
                "duration": 0.1840909,
                "tempo": 120.0
            },
            {
                "start_time": 12.8954545,
                "end_time": 13.1,
                "pitch": 52,
                "velocity": 51,
                "duration": 0.2045455,
                "tempo": 120.0
            },
            {
                "start_time": 13.1181818,
                "end_time": 13.3068182,
                "pitch": 52,
                "velocity": 51,
                "duration": 0.1886364,
                "tempo": 120.0
            },
            {
                "start_time": 13.325,
                "end_time": 13.5068182,
                "pitch": 54,
                "velocity": 51,
                "duration": 0.1818182,
                "tempo": 120.0
            },
            {
                "start_time": 13.7409091,
                "end_time": 13.9295455,
                "pitch": 54,
                "velocity": 51,
                "duration": 0.1886364,
                "tempo": 120.0
            },
            {
                "start_time": 13.9477273,
                "end_time": 14.1545455,
                "pitch": 49,
                "velocity": 51,
                "duration": 0.2068182,
                "tempo": 120.0
            },
            {
                "start_time": 14.1704545,
                "end_time": 14.3545455,
                "pitch": 52,
                "velocity": 51,
                "duration": 0.1840909,
                "tempo": 120.0
            },
            {
                "start_time": 14.3704545,
                "end_time": 14.5545455,
                "pitch": 54,
                "velocity": 51,
                "duration": 0.1840909,
                "tempo": 120.0
            },
            {
                "start_time": 14.5727273,
                "end_time": 14.7681818,
                "pitch": 52,
                "velocity": 51,
                "duration": 0.1954545,
                "tempo": 120.0
            },
            {
                "start_time": 14.7840909,
                "end_time": 14.9636364,
                "pitch": 49,
                "velocity": 51,
                "duration": 0.1795455,
                "tempo": 120.0
            },
            {
                "start_time": 14.9818182,
                "end_time": 15.1704545,
                "pitch": 54,
                "velocity": 51,
                "duration": 0.1886364,
                "tempo": 120.0
            },
            {
                "start_time": 15.4113636,
                "end_time": 15.6,
                "pitch": 54,
                "velocity": 51,
                "duration": 0.1886364,
                "tempo": 120.0
            },
            {
                "start_time": 15.6159091,
                "end_time": 15.8227273,
                "pitch": 49,
                "velocity": 51,
                "duration": 0.2068182,
                "tempo": 120.0
            },
            {
                "start_time": 15.8409091,
                "end_time": 16.0227273,
                "pitch": 52,
                "velocity": 51,
                "duration": 0.1818182,
                "tempo": 120.0
            },
            {
                "start_time": 16.0409091,
                "end_time": 16.225,
                "pitch": 54,
                "velocity": 51,
                "duration": 0.1840909,
                "tempo": 120.0
            },
            {
                "start_time": 16.2409091,
                "end_time": 16.4363636,
                "pitch": 52,
                "velocity": 51,
                "duration": 0.1954545,
                "tempo": 120.0
            },
            {
                "start_time": 16.4522727,
                "end_time": 16.6318182,
                "pitch": 49,
                "velocity": 51,
                "duration": 0.1795455,
                "tempo": 120.0
            },
            {
                "start_time": 16.6477273,
                "end_time": 16.8522727,
                "pitch": 54,
                "velocity": 51,
                "duration": 0.2045455,
                "tempo": 120.0
            },
            {
                "start_time": 19.3545455,
                "end_time": 19.5613636,
                "pitch": 52,
                "velocity": 51,
                "duration": 0.2068182,
                "tempo": 120.0
            },
            {
                "start_time": 19.5772727,
                "end_time": 19.7704545,
                "pitch": 52,
                "velocity": 51,
                "duration": 0.1931818,
                "tempo": 120.0
            },
            {
                "start_time": 19.7886364,
                "end_time": 19.9818182,
                "pitch": 52,
                "velocity": 51,
                "duration": 0.1931818,
                "tempo": 120.0
            },
            {
                "start_time": 20.0,
                "end_time": 20.1954545,
                "pitch": 54,
                "velocity": 51,
                "duration": 0.1954545,
                "tempo": 120.0
            },
            {
                "start_time": 20.4090909,
                "end_time": 20.6136364,
                "pitch": 54,
                "velocity": 51,
                "duration": 0.2045455,
                "tempo": 120.0
            },
            {
                "start_time": 20.6318182,
                "end_time": 20.8204545,
                "pitch": 49,
                "velocity": 51,
                "duration": 0.1886364,
                "tempo": 120.0
            },
            {
                "start_time": 20.8386364,
                "end_time": 21.0204545,
                "pitch": 52,
                "velocity": 51,
                "duration": 0.1818182,
                "tempo": 120.0
            },
            {
                "start_time": 21.0386364,
                "end_time": 21.2386364,
                "pitch": 54,
                "velocity": 51,
                "duration": 0.2,
                "tempo": 120.0
            },
            {
                "start_time": 21.2545455,
                "end_time": 21.4454545,
                "pitch": 52,
                "velocity": 51,
                "duration": 0.1909091,
                "tempo": 120.0
            },
            {
                "start_time": 21.4613636,
                "end_time": 21.65,
                "pitch": 49,
                "velocity": 51,
                "duration": 0.1886364,
                "tempo": 120.0
            },
            {
                "start_time": 21.6681818,
                "end_time": 21.8636364,
                "pitch": 54,
                "velocity": 51,
                "duration": 0.1954545,
                "tempo": 120.0
            },
            {
                "start_time": 22.075,
                "end_time": 22.2795455,
                "pitch": 54,
                "velocity": 51,
                "duration": 0.2045455,
                "tempo": 120.0
            },
            {
                "start_time": 22.2977273,
                "end_time": 22.4863636,
                "pitch": 49,
                "velocity": 51,
                "duration": 0.1886364,
                "tempo": 120.0
            },
            {
                "start_time": 22.5022727,
                "end_time": 22.6863636,
                "pitch": 52,
                "velocity": 51,
                "duration": 0.1840909,
                "tempo": 120.0
            },
            {
                "start_time": 22.7045455,
                "end_time": 22.9045455,
                "pitch": 54,
                "velocity": 51,
                "duration": 0.2,
                "tempo": 120.0
            },
            {
                "start_time": 22.9204545,
                "end_time": 23.1045455,
                "pitch": 52,
                "velocity": 51,
                "duration": 0.1840909,
                "tempo": 120.0
            },
            {
                "start_time": 23.1204545,
                "end_time": 23.3227273,
                "pitch": 49,
                "velocity": 51,
                "duration": 0.2022727,
                "tempo": 120.0
            },
            {
                "start_time": 23.3386364,
                "end_time": 23.5272727,
                "pitch": 47,
                "velocity": 51,
                "duration": 0.1886364,
                "tempo": 120.0
            },
            {
                "start_time": 23.5454545,
                "end_time": 23.7340909,
                "pitch": 47,
                "velocity": 51,
                "duration": 0.1886364,
                "tempo": 120.0
            },
            {
                "start_time": 23.7522727,
                "end_time": 23.9522727,
                "pitch": 47,
                "velocity": 51,
                "duration": 0.2,
                "tempo": 120.0
            },
            {
                "start_time": 23.9681818,
                "end_time": 24.1522727,
                "pitch": 47,
                "velocity": 51,
                "duration": 0.1840909,
                "tempo": 120.0
            },
            {
                "start_time": 24.1681818,
                "end_time": 24.3522727,
                "pitch": 47,
                "velocity": 51,
                "duration": 0.1840909,
                "tempo": 120.0
            },
            {
                "start_time": 24.3863636,
                "end_time": 24.5704545,
                "pitch": 47,
                "velocity": 51,
                "duration": 0.1840909,
                "tempo": 120.0
            },
            {
                "start_time": 24.5863636,
                "end_time": 24.775,
                "pitch": 47,
                "velocity": 51,
                "duration": 0.1886364,
                "tempo": 120.0
            },
            {
                "start_time": 24.7931818,
                "end_time": 24.9977273,
                "pitch": 47,
                "velocity": 51,
                "duration": 0.2045455,
                "tempo": 120.0
            },
            {
                "start_time": 25.0159091,
                "end_time": 25.2,
                "pitch": 51,
                "velocity": 51,
                "duration": 0.1840909,
                "tempo": 120.0
            },
            {
                "start_time": 25.2159091,
                "end_time": 25.4,
                "pitch": 51,
                "velocity": 51,
                "duration": 0.1840909,
                "tempo": 120.0
            },
            {
                "start_time": 25.4159091,
                "end_time": 25.6181818,
                "pitch": 51,
                "velocity": 51,
                "duration": 0.2022727,
                "tempo": 120.0
            },
            {
                "start_time": 25.6340909,
                "end_time": 25.8181818,
                "pitch": 51,
                "velocity": 51,
                "duration": 0.1840909,
                "tempo": 120.0
            },
            {
                "start_time": 25.8340909,
                "end_time": 26.0340909,
                "pitch": 52,
                "velocity": 51,
                "duration": 0.2,
                "tempo": 120.0
            },
            {
                "start_time": 26.0522727,
                "end_time": 26.2363636,
                "pitch": 52,
                "velocity": 51,
                "duration": 0.1840909,
                "tempo": 120.0
            },
            {
                "start_time": 26.2522727,
                "end_time": 26.4409091,
                "pitch": 52,
                "velocity": 51,
                "duration": 0.1886364,
                "tempo": 120.0
            },
            {
                "start_time": 26.4590909,
                "end_time": 26.6636364,
                "pitch": 52,
                "velocity": 51,
                "duration": 0.2045455,
                "tempo": 120.0
            },
            {
                "start_time": 26.6818182,
                "end_time": 26.8659091,
                "pitch": 54,
                "velocity": 51,
                "duration": 0.1840909,
                "tempo": 120.0
            },
            {
                "start_time": 27.1,
                "end_time": 27.2886364,
                "pitch": 54,
                "velocity": 51,
                "duration": 0.1886364,
                "tempo": 120.0
            },
            {
                "start_time": 27.3045455,
                "end_time": 27.4931818,
                "pitch": 49,
                "velocity": 51,
                "duration": 0.1886364,
                "tempo": 120.0
            },
            {
                "start_time": 27.5113636,
                "end_time": 27.7068182,
                "pitch": 52,
                "velocity": 51,
                "duration": 0.1954545,
                "tempo": 120.0
            },
            {
                "start_time": 27.725,
                "end_time": 27.9045455,
                "pitch": 54,
                "velocity": 51,
                "duration": 0.1795455,
                "tempo": 120.0
            },
            {
                "start_time": 27.9204545,
                "end_time": 28.1090909,
                "pitch": 52,
                "velocity": 51,
                "duration": 0.1886364,
                "tempo": 120.0
            },
            {
                "start_time": 28.1272727,
                "end_time": 28.3318182,
                "pitch": 49,
                "velocity": 51,
                "duration": 0.2045455,
                "tempo": 120.0
            },
            {
                "start_time": 28.35,
                "end_time": 28.5340909,
                "pitch": 54,
                "velocity": 51,
                "duration": 0.1840909,
                "tempo": 120.0
            },
            {
                "start_time": 28.7681818,
                "end_time": 28.9568182,
                "pitch": 54,
                "velocity": 51,
                "duration": 0.1886364,
                "tempo": 120.0
            },
            {
                "start_time": 28.9727273,
                "end_time": 29.1636364,
                "pitch": 49,
                "velocity": 51,
                "duration": 0.1909091,
                "tempo": 120.0
            },
            {
                "start_time": 29.1795455,
                "end_time": 29.375,
                "pitch": 52,
                "velocity": 51,
                "duration": 0.1954545,
                "tempo": 120.0
            },
            {
                "start_time": 29.3909091,
                "end_time": 29.5704545,
                "pitch": 54,
                "velocity": 51,
                "duration": 0.1795455,
                "tempo": 120.0
            },
            {
                "start_time": 29.5863636,
                "end_time": 29.7931818,
                "pitch": 52,
                "velocity": 51,
                "duration": 0.2068182,
                "tempo": 120.0
            },
            {
                "start_time": 29.8090909,
                "end_time": 29.9977273,
                "pitch": 49,
                "velocity": 51,
                "duration": 0.1886364,
                "tempo": 120.0
            },
            {
                "start_time": 30.0159091,
                "end_time": 30.0318182,
                "pitch": 54,
                "velocity": 51,
                "duration": 0.0159091,
                "tempo": 120.0
            }
        ],
        "Clarinet": [
            {
                "start_time": 0.0,
                "end_time": 4.3113636,
                "pitch": 66,
                "velocity": 20,
                "duration": 4.3113636,
                "tempo": 120.0
            },
            {
                "start_time": 4.3295455,
                "end_time": 4.5295455,
                "pitch": 66,
                "velocity": 40,
                "duration": 0.2,
                "tempo": 120.0
            },
            {
                "start_time": 4.5454545,
                "end_time": 4.7340909,
                "pitch": 68,
                "velocity": 40,
                "duration": 0.1886364,
                "tempo": 120.0
            },
            {
                "start_time": 4.7522727,
                "end_time": 4.9409091,
                "pitch": 69,
                "velocity": 40,
                "duration": 0.1886364,
                "tempo": 120.0
            },
            {
                "start_time": 4.975,
                "end_time": 5.9772727,
                "pitch": 66,
                "velocity": 40,
                "duration": 1.0022727,
                "tempo": 120.0
            },
            {
                "start_time": 5.9954545,
                "end_time": 6.1954545,
                "pitch": 66,
                "velocity": 40,
                "duration": 0.2,
                "tempo": 120.0
            },
            {
                "start_time": 6.2113636,
                "end_time": 6.4,
                "pitch": 68,
                "velocity": 40,
                "duration": 0.1886364,
                "tempo": 120.0
            },
            {
                "start_time": 6.4181818,
                "end_time": 6.625,
                "pitch": 69,
                "velocity": 40,
                "duration": 0.2068182,
                "tempo": 120.0
            },
            {
                "start_time": 6.6409091,
                "end_time": 7.6681818,
                "pitch": 66,
                "velocity": 40,
                "duration": 1.0272727,
                "tempo": 120.0
            },
            {
                "start_time": 7.6863636,
                "end_time": 7.875,
                "pitch": 66,
                "velocity": 40,
                "duration": 0.1886364,
                "tempo": 120.0
            },
            {
                "start_time": 7.8909091,
                "end_time": 8.075,
                "pitch": 68,
                "velocity": 40,
                "duration": 0.1840909,
                "tempo": 120.0
            },
            {
                "start_time": 8.0931818,
                "end_time": 8.2931818,
                "pitch": 69,
                "velocity": 40,
                "duration": 0.2,
                "tempo": 120.0
            },
            {
                "start_time": 8.3090909,
                "end_time": 9.3363636,
                "pitch": 66,
                "velocity": 40,
                "duration": 1.0272727,
                "tempo": 120.0
            },
            {
                "start_time": 9.3545455,
                "end_time": 9.5431818,
                "pitch": 66,
                "velocity": 40,
                "duration": 0.1886364,
                "tempo": 120.0
            },
            {
                "start_time": 9.5613636,
                "end_time": 9.7431818,
                "pitch": 68,
                "velocity": 40,
                "duration": 0.1818182,
                "tempo": 120.0
            },
            {
                "start_time": 9.7613636,
                "end_time": 9.9613636,
                "pitch": 69,
                "velocity": 40,
                "duration": 0.2,
                "tempo": 120.0
            },
            {
                "start_time": 9.9772727,
                "end_time": 11.0159091,
                "pitch": 59,
                "velocity": 40,
                "duration": 1.0386364,
                "tempo": 120.0
            },
            {
                "start_time": 11.0318182,
                "end_time": 11.2136364,
                "pitch": 59,
                "velocity": 40,
                "duration": 0.1818182,
                "tempo": 120.0
            },
            {
                "start_time": 11.2295455,
                "end_time": 11.4136364,
                "pitch": 61,
                "velocity": 40,
                "duration": 0.1840909,
                "tempo": 120.0
            },
            {
                "start_time": 11.4454545,
                "end_time": 11.6295455,
                "pitch": 63,
                "velocity": 40,
                "duration": 0.1840909,
                "tempo": 120.0
            },
            {
                "start_time": 11.6477273,
                "end_time": 12.6772727,
                "pitch": 59,
                "velocity": 40,
                "duration": 1.0295455,
                "tempo": 120.0
            },
            {
                "start_time": 12.6931818,
                "end_time": 12.8772727,
                "pitch": 59,
                "velocity": 40,
                "duration": 0.1840909,
                "tempo": 120.0
            },
            {
                "start_time": 12.8954545,
                "end_time": 13.1,
                "pitch": 61,
                "velocity": 40,
                "duration": 0.2045455,
                "tempo": 120.0
            },
            {
                "start_time": 13.1181818,
                "end_time": 13.3068182,
                "pitch": 63,
                "velocity": 40,
                "duration": 0.1886364,
                "tempo": 120.0
            },
            {
                "start_time": 13.325,
                "end_time": 13.725,
                "pitch": 64,
                "velocity": 40,
                "duration": 0.4,
                "tempo": 120.0
            },
            {
                "start_time": 13.7409091,
                "end_time": 16.6477273,
                "pitch": 78,
                "velocity": 40,
                "duration": 2.9068182,
                "tempo": 120.0
            },
            {
                "start_time": 16.6477273,
                "end_time": 16.8522727,
                "pitch": 66,
                "velocity": 40,
                "duration": 0.2045455,
                "tempo": 120.0
            },
            {
                "start_time": 16.8704545,
                "end_time": 17.0590909,
                "pitch": 54,
                "velocity": 40,
                "duration": 0.1886364,
                "tempo": 120.0
            },
            {
                "start_time": 17.0772727,
                "end_time": 17.2590909,
                "pitch": 54,
                "velocity": 40,
                "duration": 0.1818182,
                "tempo": 120.0
            },
            {
                "start_time": 17.2772727,
                "end_time": 17.4772727,
                "pitch": 52,
                "velocity": 40,
                "duration": 0.2,
                "tempo": 120.0
            },
            {
                "start_time": 17.4931818,
                "end_time": 17.8772727,
                "pitch": 54,
                "velocity": 40,
                "duration": 0.3840909,
                "tempo": 120.0
            },
            {
                "start_time": 17.9113636,
                "end_time": 18.0909091,
                "pitch": 54,
                "velocity": 40,
                "duration": 0.1795455,
                "tempo": 120.0
            },
            {
                "start_time": 18.1068182,
                "end_time": 18.2840909,
                "pitch": 52,
                "velocity": 40,
                "duration": 0.1772727,
                "tempo": 120.0
            },
            {
                "start_time": 18.3022727,
                "end_time": 18.7136364,
                "pitch": 73,
                "velocity": 40,
                "duration": 0.4113636,
                "tempo": 120.0
            },
            {
                "start_time": 18.7318182,
                "end_time": 19.1318182,
                "pitch": 73,
                "velocity": 40,
                "duration": 0.4,
                "tempo": 120.0
            },
            {
                "start_time": 19.1477273,
                "end_time": 19.5613636,
                "pitch": 76,
                "velocity": 40,
                "duration": 0.4136364,
                "tempo": 120.0
            },
            {
                "start_time": 20.0,
                "end_time": 21.0204545,
                "pitch": 66,
                "velocity": 40,
                "duration": 1.0204545,
                "tempo": 120.0
            },
            {
                "start_time": 21.0386364,
                "end_time": 21.2386364,
                "pitch": 66,
                "velocity": 40,
                "duration": 0.2,
                "tempo": 120.0
            },
            {
                "start_time": 21.2545455,
                "end_time": 21.4454545,
                "pitch": 68,
                "velocity": 40,
                "duration": 0.1909091,
                "tempo": 120.0
            },
            {
                "start_time": 21.4613636,
                "end_time": 21.65,
                "pitch": 69,
                "velocity": 40,
                "duration": 0.1886364,
                "tempo": 120.0
            },
            {
                "start_time": 21.6681818,
                "end_time": 22.6863636,
                "pitch": 66,
                "velocity": 40,
                "duration": 1.0181818,
                "tempo": 120.0
            },
            {
                "start_time": 22.7045455,
                "end_time": 22.9045455,
                "pitch": 66,
                "velocity": 40,
                "duration": 0.2,
                "tempo": 120.0
            },
            {
                "start_time": 22.9204545,
                "end_time": 23.1045455,
                "pitch": 68,
                "velocity": 40,
                "duration": 0.1840909,
                "tempo": 120.0
            },
            {
                "start_time": 23.1204545,
                "end_time": 23.3227273,
                "pitch": 69,
                "velocity": 40,
                "duration": 0.2022727,
                "tempo": 120.0
            },
            {
                "start_time": 23.3386364,
                "end_time": 24.3522727,
                "pitch": 59,
                "velocity": 40,
                "duration": 1.0136364,
                "tempo": 120.0
            },
            {
                "start_time": 24.3863636,
                "end_time": 24.5704545,
                "pitch": 59,
                "velocity": 40,
                "duration": 0.1840909,
                "tempo": 120.0
            },
            {
                "start_time": 24.5863636,
                "end_time": 24.775,
                "pitch": 61,
                "velocity": 40,
                "duration": 0.1886364,
                "tempo": 120.0
            },
            {
                "start_time": 24.7931818,
                "end_time": 24.9977273,
                "pitch": 63,
                "velocity": 40,
                "duration": 0.2045455,
                "tempo": 120.0
            },
            {
                "start_time": 25.0159091,
                "end_time": 26.0340909,
                "pitch": 59,
                "velocity": 40,
                "duration": 1.0181818,
                "tempo": 120.0
            },
            {
                "start_time": 26.0522727,
                "end_time": 26.2363636,
                "pitch": 59,
                "velocity": 40,
                "duration": 0.1840909,
                "tempo": 120.0
            },
            {
                "start_time": 26.2522727,
                "end_time": 26.4409091,
                "pitch": 61,
                "velocity": 40,
                "duration": 0.1886364,
                "tempo": 120.0
            },
            {
                "start_time": 26.4590909,
                "end_time": 26.6636364,
                "pitch": 63,
                "velocity": 40,
                "duration": 0.2045455,
                "tempo": 120.0
            },
            {
                "start_time": 26.6818182,
                "end_time": 27.0818182,
                "pitch": 64,
                "velocity": 40,
                "duration": 0.4,
                "tempo": 120.0
            },
            {
                "start_time": 27.1,
                "end_time": 30.0159091,
                "pitch": 78,
                "velocity": 40,
                "duration": 2.9159091,
                "tempo": 120.0
            },
            {
                "start_time": 30.0159091,
                "end_time": 30.0318182,
                "pitch": 66,
                "velocity": 40,
                "duration": 0.0159091,
                "tempo": 120.0
            }
        ]
    }
}