{
    "mood": "angry",
    "instruments": {
        "Trumpet": [
            {
                "start_time": 0.7840909,
                "end_time": 0.9727273,
                "pitch": 55,
                "velocity": 51,
                "duration": 0.1886364,
                "tempo": 120.0
            },
            {
                "start_time": 0.9886364,
                "end_time": 1.1772727,
                "pitch": 52,
                "velocity": 51,
                "duration": 0.1886364,
                "tempo": 120.0
            },
            {
                "start_time": 1.1954545,
                "end_time": 1.375,
                "pitch": 55,
                "velocity": 51,
                "duration": 0.1795455,
                "tempo": 120.0
            },
            {
                "start_time": 1.3909091,
                "end_time": 1.7727273,
                "pitch": 57,
                "velocity": 51,
                "duration": 0.3818182,
                "tempo": 120.0
            },
            {
                "start_time": 1.7886364,
                "end_time": 1.9727273,
                "pitch": 50,
                "velocity": 51,
                "duration": 0.1840909,
                "tempo": 120.0
            },
            {
                "start_time": 1.9909091,
                "end_time": 2.3727273,
                "pitch": 54,
                "velocity": 51,
                "duration": 0.3818182,
                "tempo": 120.0
            },
            {
                "start_time": 2.3909091,
                "end_time": 2.5772727,
                "pitch": 60,
                "velocity": 51,
                "duration": 0.1863636,
                "tempo": 120.0
            },
            {
                "start_time": 2.5954545,
                "end_time": 2.7840909,
                "pitch": 55,
                "velocity": 51,
                "duration": 0.1886364,
                "tempo": 120.0
            },
            {
                "start_time": 2.8,
                "end_time": 2.9795455,
                "pitch": 60,
                "velocity": 51,
                "duration": 0.1795455,
                "tempo": 120.0
            },
            {
                "start_time": 2.9977273,
                "end_time": 3.3772727,
                "pitch": 62,
                "velocity": 51,
                "duration": 0.3795455,
                "tempo": 120.0
            },
            {
                "start_time": 3.3931818,
                "end_time": 3.5795455,
                "pitch": 57,
                "velocity": 51,
                "duration": 0.1863636,
                "tempo": 120.0
            },
            {
                "start_time": 3.5954545,
                "end_time": 3.9795455,
                "pitch": 60,
                "velocity": 51,
                "duration": 0.3840909,
                "tempo": 120.0
            },
            {
                "start_time": 3.9954545,
                "end_time": 4.1840909,
                "pitch": 55,
                "velocity": 51,
                "duration": 0.1886364,
                "tempo": 120.0
            },
            {
                "start_time": 4.2,
                "end_time": 4.3886364,
                "pitch": 52,
                "velocity": 51,
                "duration": 0.1886364,
                "tempo": 120.0
            },
            {
                "start_time": 4.4068182,
                "end_time": 4.5863636,
                "pitch": 55,
                "velocity": 51,
                "duration": 0.1795455,
                "tempo": 120.0
            },
            {
                "start_time": 4.6022727,
                "end_time": 4.9818182,
                "pitch": 57,
                "velocity": 51,
                "duration": 0.3795455,
                "tempo": 120.0
            },
            {
                "start_time": 4.9977273,
                "end_time": 5.1818182,
                "pitch": 50,
                "velocity": 51,
                "duration": 0.1840909,
                "tempo": 120.0
            },
            {
                "start_time": 5.1977273,
                "end_time": 5.5840909,
                "pitch": 54,
                "velocity": 51,
                "duration": 0.3863636,
                "tempo": 120.0
            },
            {
                "start_time": 5.6,
                "end_time": 5.7886364,
                "pitch": 60,
                "velocity": 51,
                "duration": 0.1886364,
                "tempo": 120.0
            },
            {
                "start_time": 5.8068182,
                "end_time": 5.9954545,
                "pitch": 55,
                "velocity": 51,
                "duration": 0.1886364,
                "tempo": 120.0
            },
            {
                "start_time": 6.0113636,
                "end_time": 6.1909091,
                "pitch": 60,
                "velocity": 51,
                "duration": 0.1795455,
                "tempo": 120.0
            },
            {
                "start_time": 6.2068182,
                "end_time": 6.5886364,
                "pitch": 62,
                "velocity": 51,
                "duration": 0.3818182,
                "tempo": 120.0
            },
            {
                "start_time": 6.6045455,
                "end_time": 6.7886364,
                "pitch": 57,
                "velocity": 51,
                "duration": 0.1840909,
                "tempo": 120.0
            },
            {
                "start_time": 6.8068182,
                "end_time": 7.1909091,
                "pitch": 60,
                "velocity": 51,
                "duration": 0.3840909,
                "tempo": 120.0
            },
            {
                "start_time": 7.2068182,
                "end_time": 7.3954545,
                "pitch": 55,
                "velocity": 51,
                "duration": 0.1886364,
                "tempo": 120.0
            },
            {
                "start_time": 7.4113636,
                "end_time": 7.6,
                "pitch": 52,
                "velocity": 51,
                "duration": 0.1886364,
                "tempo": 120.0
            },
            {
                "start_time": 7.6181818,
                "end_time": 7.7977273,
                "pitch": 55,
                "velocity": 51,
                "duration": 0.1795455,
                "tempo": 120.0
            },
            {
                "start_time": 7.8136364,
                "end_time": 8.1931818,
                "pitch": 57,
                "velocity": 51,
                "duration": 0.3795455,
                "tempo": 120.0
            },
            {
                "start_time": 8.2113636,
                "end_time": 8.3954545,
                "pitch": 50,
                "velocity": 51,
                "duration": 0.1840909,
                "tempo": 120.0
            },
            {
                "start_time": 8.4113636,
                "end_time": 8.7977273,
                "pitch": 54,
                "velocity": 51,
                "duration": 0.3863636,
                "tempo": 120.0
            },
            {
                "start_time": 8.8136364,
                "end_time": 9.0022727,
                "pitch": 60,
                "velocity": 51,
                "duration": 0.1886364,
                "tempo": 120.0
            },
            {
                "start_time": 9.0204545,
                "end_time": 9.2090909,
                "pitch": 55,
                "velocity": 51,
                "duration": 0.1886364,
                "tempo": 120.0
            },
            {
                "start_time": 9.225,
                "end_time": 9.4045455,
                "pitch": 60,
                "velocity": 51,
                "duration": 0.1795455,
                "tempo": 120.0
            },
            {
                "start_time": 9.4204545,
                "end_time": 9.8022727,
                "pitch": 62,
                "velocity": 51,
                "duration": 0.3818182,
                "tempo": 120.0
            },
            {
                "start_time": 9.8181818,
                "end_time": 10.0045455,
                "pitch": 57,
                "velocity": 51,
                "duration": 0.1863636,
                "tempo": 120.0
            },
            {
                "start_time": 10.0204545,
                "end_time": 10.4068182,
                "pitch": 60,
                "velocity": 51,
                "duration": 0.3863636,
                "tempo": 120.0
            },
            {
                "start_time": 10.4227273,
                "end_time": 12.0113636,
                "pitch": 52,
                "velocity": 51,
                "duration": 1.5886364,
                "tempo": 120.0
            },
            {
                "start_time": 12.0295455,
                "end_time": 12.2159091,
                "pitch": 54,
                "velocity": 51,
                "duration": 0.1863636,
                "tempo": 120.0
            },
            {
                "start_time": 12.2340909,
                "end_time": 12.4227273,
                "pitch": 54,
                "velocity": 51,
                "duration": 0.1886364,
                "tempo": 120.0
            },
            {
                "start_time": 12.4386364,
                "end_time": 12.6227273,
                "pitch": 54,
                "velocity": 51,
                "duration": 0.1840909,
                "tempo": 120.0
            },
            {
                "start_time": 12.6409091,
                "end_time": 12.825,
                "pitch": 54,
                "velocity": 51,
                "duration": 0.1840909,
                "tempo": 120.0
            },
            {
                "start_time": 13.6272727,
                "end_time": 15.2454545,
                "pitch": 64,
                "velocity": 51,
                "duration": 1.6181818,
                "tempo": 120.0
            },
            {
                "start_time": 15.2613636,
                "end_time": 16.8545455,
                "pitch": 66,
                "velocity": 51,
                "duration": 1.5931818,
                "tempo": 120.0
            },
            {
                "start_time": 16.8727273,
                "end_time": 18.4613636,
                "pitch": 67,
                "velocity": 51,
                "duration": 1.5886364,
                "tempo": 120.0
            },
            {
                "start_time": 18.4772727,
                "end_time": 20.05,
                "pitch": 69,
                "velocity": 51,
                "duration": 1.5727273,
                "tempo": 120.0
            },
            {
                "start_time": 20.0659091,
                "end_time": 21.6727273,
                "pitch": 67,
                "velocity": 51,
                "duration": 1.6068182,
                "tempo": 120.0
            },
            {
                "start_time": 21.6909091,
                "end_time": 23.2795455,
                "pitch": 74,
                "velocity": 51,
                "duration": 1.5886364,
                "tempo": 120.0
            },
            {
                "start_time": 23.2954545,
                "end_time": 24.8613636,
                "pitch": 76,
                "velocity": 51,
                "duration": 1.5659091,
                "tempo": 120.0
            },
            {
                "start_time": 26.4727273,
                "end_time": 28.0954545,
                "pitch": 64,
                "velocity": 51,
                "duration": 1.6227273,
                "tempo": 120.0
            },
            {
                "start_time": 28.1113636,
                "end_time": 29.7022727,
                "pitch": 66,
                "velocity": 51,
                "duration": 1.5909091,
                "tempo": 120.0
            },
            {
                "start_time": 29.7181818,
                "end_time": 31.3068182,
                "pitch": 67,
                "velocity": 51,
                "duration": 1.5886364,
                "tempo": 120.0
            },
            {
                "start_time": 31.325,
                "end_time": 32.8954545,
                "pitch": 69,
                "velocity": 51,
                "duration": 1.5704545,
                "tempo": 120.0
            },
            {
                "start_time": 32.9113636,
                "end_time": 34.5181818,
                "pitch": 67,
                "velocity": 51,
                "duration": 1.6068182,
                "tempo": 120.0
            },
            {
                "start_time": 34.5363636,
                "end_time": 36.1227273,
                "pitch": 74,
                "velocity": 51,
                "duration": 1.5863636,
                "tempo": 120.0
            },
            {
                "start_time": 36.1409091,
                "end_time": 36.9090909,
                "pitch": 76,
                "velocity": 51,
                "duration": 0.7681818,
                "tempo": 120.0
            },
            {
                "start_time": 37.1340909,
                "end_time": 37.3272727,
                "pitch": 76,
                "velocity": 51,
                "duration": 0.1931818,
                "tempo": 120.0
            },
            {
                "start_time": 37.3454545,
                "end_time": 37.5295455,
                "pitch": 78,
                "velocity": 51,
                "duration": 0.1840909,
                "tempo": 120.0
            },
            {
                "start_time": 37.5477273,
                "end_time": 39.3136364,
                "pitch": 79,
                "velocity": 51,
                "duration": 1.7659091,
                "tempo": 120.0
            },
            {
                "start_time": 39.3295455,
                "end_time": 39.7227273,
                "pitch": 55,
                "velocity": 51,
                "duration": 0.3931818,
                "tempo": 120.0
            },
            {
                "start_time": 39.9409091,
                "end_time": 40.3204545,
                "pitch": 57,
                "velocity": 51,
                "duration": 0.3795455,
                "tempo": 120.0
            },
            {
                "start_time": 40.7318182,
                "end_time": 41.7181818,
                "pitch": 59,
                "velocity": 51,
                "duration": 0.9863636,
                "tempo": 120.0
            },
            {
                "start_time": 42.5386364,
                "end_time": 42.9318182,
                "pitch": 55,
                "velocity": 51,
                "duration": 0.3931818,
                "tempo": 120.0
            },
            {
                "start_time": 43.15,
                "end_time": 43.5318182,
                "pitch": 57,
                "velocity": 51,
                "duration": 0.3818182,
                "tempo": 120.0
            },
            {
                "start_time": 43.9454545,
                "end_time": 45.7340909,
                "pitch": 64,
                "velocity": 51,
                "duration": 1.7886364,
                "tempo": 120.0
            },
            {
                "start_time": 45.75,
                "end_time": 46.1431818,
                "pitch": 55,
                "velocity": 51,
                "duration": 0.3931818,
                "tempo": 120.0
            },
            {
                "start_time": 46.3613636,
                "end_time": 46.7409091,
                "pitch": 57,
                "velocity": 51,
                "duration": 0.3795455,
                "tempo": 120.0
            },
            {
                "start_time": 47.1522727,
                "end_time": 48.1386364,
                "pitch": 59,
                "velocity": 51,
                "duration": 0.9863636,
                "tempo": 120.0
            },
            {
                "start_time": 48.3613636,
                "end_time": 48.55,
                "pitch": 60,
                "velocity": 51,
                "duration": 0.1886364,
                "tempo": 120.0
            },
            {
                "start_time": 48.5681818,
                "end_time": 48.75,
                "pitch": 64,
                "velocity": 51,
                "duration": 0.1818182,
                "tempo": 120.0
            },
            {
                "start_time": 48.7681818,
                "end_time": 51.3454545,
                "pitch": 66,
                "velocity": 51,
                "duration": 2.5772727,
                "tempo": 120.0
            },
            {
                "start_time": 52.1659091,
                "end_time": 52.3522727,
                "pitch": 55,
                "velocity": 51,
                "duration": 0.1863636,
                "tempo": 120.0
            }
        ],
        "Electric Guitar (clean)": [
            {
                "start_time": 0.7840909,
                "end_time": 0.9727273,
                "pitch": 33,
                "velocity": 64,
                "duration": 0.1886364,
                "tempo": 120.0
            },
            {
                "start_time": 0.9886364,
                "end_time": 1.1772727,
                "pitch": 33,
                "velocity": 64,
                "duration": 0.1886364,
                "tempo": 120.0
            },
            {
                "start_time": 1.1954545,
                "end_time": 1.375,
                "pitch": 33,
                "velocity": 64,
                "duration": 0.1795455,
                "tempo": 120.0
            },
            {
                "start_time": 1.3909091,
                "end_time": 1.7727273,
                "pitch": 33,
                "velocity": 64,
                "duration": 0.3818182,
                "tempo": 120.0
            },
            {
                "start_time": 1.7886364,
                "end_time": 1.9727273,
                "pitch": 33,
                "velocity": 64,
                "duration": 0.1840909,
                "tempo": 120.0
            },
            {
                "start_time": 1.9909091,
                "end_time": 2.3727273,
                "pitch": 33,
                "velocity": 64,
                "duration": 0.3818182,
                "tempo": 120.0
            },
            {
                "start_time": 2.3909091,
                "end_time": 2.5772727,
                "pitch": 33,
                "velocity": 64,
                "duration": 0.1863636,
                "tempo": 120.0
            },
            {
                "start_time": 2.5954545,
                "end_time": 2.7840909,
                "pitch": 33,
                "velocity": 64,
                "duration": 0.1886364,
                "tempo": 120.0
            },
            {
                "start_time": 2.8,
                "end_time": 2.9795455,
                "pitch": 33,
                "velocity": 64,
                "duration": 0.1795455,
                "tempo": 120.0
            },
            {
                "start_time": 2.9977273,
                "end_time": 3.3772727,
                "pitch": 33,
                "velocity": 64,
                "duration": 0.3795455,
                "tempo": 120.0
            },
            {
                "start_time": 3.3931818,
                "end_time": 3.5795455,
                "pitch": 33,
                "velocity": 64,
                "duration": 0.1863636,
                "tempo": 120.0
            },
            {
                "start_time": 3.5954545,
                "end_time": 3.9795455,
                "pitch": 33,
                "velocity": 64,
                "duration": 0.3840909,
                "tempo": 120.0
            },
            {
                "start_time": 3.9954545,
                "end_time": 4.1840909,
                "pitch": 33,
                "velocity": 64,
                "duration": 0.1886364,
                "tempo": 120.0
            },
            {
                "start_time": 4.2,
                "end_time": 4.3886364,
                "pitch": 33,
                "velocity": 64,
                "duration": 0.1886364,
                "tempo": 120.0
            },
            {
                "start_time": 4.4068182,
                "end_time": 4.5863636,
                "pitch": 33,
                "velocity": 64,
                "duration": 0.1795455,
                "tempo": 120.0
            },
            {
                "start_time": 4.6022727,
                "end_time": 4.9818182,
                "pitch": 33,
                "velocity": 64,
                "duration": 0.3795455,
                "tempo": 120.0
            },
            {
                "start_time": 4.9977273,
                "end_time": 5.1818182,
                "pitch": 33,
                "velocity": 64,
                "duration": 0.1840909,
                "tempo": 120.0
            },
            {
                "start_time": 5.1977273,
                "end_time": 5.5840909,
                "pitch": 33,
                "velocity": 64,
                "duration": 0.3863636,
                "tempo": 120.0
            },
            {
                "start_time": 5.6,
                "end_time": 5.7886364,
                "pitch": 33,
                "velocity": 64,
                "duration": 0.1886364,
                "tempo": 120.0
            },
            {
                "start_time": 5.8068182,
                "end_time": 5.9954545,
                "pitch": 33,
                "velocity": 64,
                "duration": 0.1886364,
                "tempo": 120.0
            },
            {
                "start_time": 6.0113636,
                "end_time": 6.1909091,
                "pitch": 33,
                "velocity": 64,
                "duration": 0.1795455,
                "tempo": 120.0
            },
            {
                "start_time": 6.2068182,
                "end_time": 6.5886364,
                "pitch": 33,
                "velocity": 64,
                "duration": 0.3818182,
                "tempo": 120.0
            },
            {
                "start_time": 6.6045455,
                "end_time": 6.7886364,
                "pitch": 33,
                "velocity": 64,
                "duration": 0.1840909,
                "tempo": 120.0
            },
            {
                "start_time": 6.8068182,
                "end_time": 7.1909091,
                "pitch": 33,
                "velocity": 64,
                "duration": 0.3840909,
                "tempo": 120.0
            },
            {
                "start_time": 7.2068182,
                "end_time": 7.3954545,
                "pitch": 33,
                "velocity": 64,
                "duration": 0.1886364,
                "tempo": 120.0
            },
            {
                "start_time": 7.4113636,
                "end_time": 7.6,
                "pitch": 33,
                "velocity": 64,
                "duration": 0.1886364,
                "tempo": 120.0
            },
            {
                "start_time": 7.6181818,
                "end_time": 7.7977273,
                "pitch": 33,
                "velocity": 64,
                "duration": 0.1795455,
                "tempo": 120.0
            },
            {
                "start_time": 7.8136364,
                "end_time": 8.1931818,
                "pitch": 33,
                "velocity": 64,
                "duration": 0.3795455,
                "tempo": 120.0
            },
            {
                "start_time": 8.2113636,
                "end_time": 8.3954545,
                "pitch": 33,
                "velocity": 64,
                "duration": 0.1840909,
                "tempo": 120.0
            },
            {
                "start_time": 8.4113636,
                "end_time": 8.7977273,
                "pitch": 33,
                "velocity": 64,
                "duration": 0.3863636,
                "tempo": 120.0
            },
            {
                "start_time": 8.8136364,
                "end_time": 9.0022727,
                "pitch": 33,
                "velocity": 64,
                "duration": 0.1886364,
                "tempo": 120.0
            },
            {
                "start_time": 9.0204545,
                "end_time": 9.2090909,
                "pitch": 33,
                "velocity": 64,
                "duration": 0.1886364,
                "tempo": 120.0
            },
            {
                "start_time": 9.225,
                "end_time": 9.4045455,
                "pitch": 33,
                "velocity": 64,
                "duration": 0.1795455,
                "tempo": 120.0
            },
            {
                "start_time": 9.4204545,
                "end_time": 9.8022727,
                "pitch": 33,
                "velocity": 64,
                "duration": 0.3818182,
                "tempo": 120.0
            },
            {
                "start_time": 9.8181818,
                "end_time": 10.0045455,
                "pitch": 33,
                "velocity": 64,
                "duration": 0.1863636,
                "tempo": 120.0
            },
            {
                "start_time": 10.0204545,
                "end_time": 10.4068182,
                "pitch": 33,
                "velocity": 64,
                "duration": 0.3863636,
                "tempo": 120.0
            },
            {
                "start_time": 10.4227273,
                "end_time": 10.6113636,
                "pitch": 36,
                "velocity": 64,
                "duration": 0.1886364,
                "tempo": 120.0
            },
            {
                "start_time": 10.6272727,
                "end_time": 10.8159091,
                "pitch": 36,
                "velocity": 64,
                "duration": 0.1886364,
                "tempo": 120.0
            },
            {
                "start_time": 10.8340909,
                "end_time": 11.0136364,
                "pitch": 36,
                "velocity": 64,
                "duration": 0.1795455,
                "tempo": 120.0
            },
            {
                "start_time": 11.0295455,
                "end_time": 11.2090909,
                "pitch": 36,
                "velocity": 64,
                "duration": 0.1795455,
                "tempo": 120.0
            },
            {
                "start_time": 11.225,
                "end_time": 11.4136364,
                "pitch": 36,
                "velocity": 64,
                "duration": 0.1886364,
                "tempo": 120.0
            },
            {
                "start_time": 11.4318182,
                "end_time": 11.6181818,
                "pitch": 36,
                "velocity": 64,
                "duration": 0.1863636,
                "tempo": 120.0
            },
            {
                "start_time": 11.6363636,
                "end_time": 11.8159091,
                "pitch": 36,
                "velocity": 64,
                "duration": 0.1795455,
                "tempo": 120.0
            },
            {
                "start_time": 11.8318182,
                "end_time": 12.2159091,
                "pitch": 39,
                "velocity": 64,
                "duration": 0.3840909,
                "tempo": 120.0
            },
            {
                "start_time": 12.2340909,
                "end_time": 12.4227273,
                "pitch": 39,
                "velocity": 64,
                "duration": 0.1886364,
                "tempo": 120.0
            },
            {
                "start_time": 12.4386364,
                "end_time": 12.6227273,
                "pitch": 39,
                "velocity": 64,
                "duration": 0.1840909,
                "tempo": 120.0
            },
            {
                "start_time": 12.6409091,
                "end_time": 12.825,
                "pitch": 39,
                "velocity": 64,
                "duration": 0.1840909,
                "tempo": 120.0
            },
            {
                "start_time": 13.6272727,
                "end_time": 13.8204545,
                "pitch": 40,
                "velocity": 64,
                "duration": 0.1931818,
                "tempo": 120.0
            },
            {
                "start_time": 13.8386364,
                "end_time": 14.0318182,
                "pitch": 40,
                "velocity": 64,
                "duration": 0.1931818,
                "tempo": 120.0
            },
            {
                "start_time": 14.0477273,
                "end_time": 14.2295455,
                "pitch": 40,
                "velocity": 64,
                "duration": 0.1818182,
                "tempo": 120.0
            },
            {
                "start_time": 14.2454545,
                "end_time": 14.425,
                "pitch": 40,
                "velocity": 64,
                "duration": 0.1795455,
                "tempo": 120.0
            },
            {
                "start_time": 14.4409091,
                "end_time": 14.6295455,
                "pitch": 40,
                "velocity": 64,
                "duration": 0.1886364,
                "tempo": 120.0
            },
            {
                "start_time": 14.6454545,
                "end_time": 14.8340909,
                "pitch": 40,
                "velocity": 64,
                "duration": 0.1886364,
                "tempo": 120.0
            },
            {
                "start_time": 14.8522727,
                "end_time": 15.0409091,
                "pitch": 40,
                "velocity": 64,
                "duration": 0.1886364,
                "tempo": 120.0
            },
            {
                "start_time": 15.0568182,
                "end_time": 15.2454545,
                "pitch": 40,
                "velocity": 64,
                "duration": 0.1886364,
                "tempo": 120.0
            },
            {
                "start_time": 15.2613636,
                "end_time": 15.4431818,
                "pitch": 38,
                "velocity": 64,
                "duration": 0.1818182,
                "tempo": 120.0
            },
            {
                "start_time": 15.4590909,
                "end_time": 15.6386364,
                "pitch": 38,
                "velocity": 64,
                "duration": 0.1795455,
                "tempo": 120.0
            },
            {
                "start_time": 15.6545455,
                "end_time": 15.8340909,
                "pitch": 38,
                "velocity": 64,
                "duration": 0.1795455,
                "tempo": 120.0
            },
            {
                "start_time": 15.85,
                "end_time": 16.0318182,
                "pitch": 38,
                "velocity": 64,
                "duration": 0.1818182,
                "tempo": 120.0
            },
            {
                "start_time": 16.0477273,
                "end_time": 16.2386364,
                "pitch": 38,
                "velocity": 64,
                "duration": 0.1909091,
                "tempo": 120.0
            },
            {
                "start_time": 16.2568182,
                "end_time": 16.45,
                "pitch": 38,
                "velocity": 64,
                "duration": 0.1931818,
                "tempo": 120.0
            },
            {
                "start_time": 16.4681818,
                "end_time": 16.6545455,
                "pitch": 38,
                "velocity": 64,
                "duration": 0.1863636,
                "tempo": 120.0
            },
            {
                "start_time": 16.6704545,
                "end_time": 16.8545455,
                "pitch": 38,
                "velocity": 64,
                "duration": 0.1840909,
                "tempo": 120.0
            },
            {
                "start_time": 16.8727273,
                "end_time": 17.0522727,
                "pitch": 43,
                "velocity": 64,
                "duration": 0.1795455,
                "tempo": 120.0
            },
            {
                "start_time": 17.0681818,
                "end_time": 17.2477273,
                "pitch": 43,
                "velocity": 64,
                "duration": 0.1795455,
                "tempo": 120.0
            },
            {
                "start_time": 17.2636364,
                "end_time": 17.4431818,
                "pitch": 43,
                "velocity": 64,
                "duration": 0.1795455,
                "tempo": 120.0
            },
            {
                "start_time": 17.4613636,
                "end_time": 17.6409091,
                "pitch": 43,
                "velocity": 64,
                "duration": 0.1795455,
                "tempo": 120.0
            },
            {
                "start_time": 17.6568182,
                "end_time": 17.8454545,
                "pitch": 43,
                "velocity": 64,
                "duration": 0.1886364,
                "tempo": 120.0
            },
            {
                "start_time": 17.8613636,
                "end_time": 18.05,
                "pitch": 43,
                "velocity": 64,
                "duration": 0.1886364,
                "tempo": 120.0
            },
            {
                "start_time": 18.0659091,
                "end_time": 18.2545455,
                "pitch": 43,
                "velocity": 64,
                "duration": 0.1886364,
                "tempo": 120.0
            },
            {
                "start_time": 18.2727273,
                "end_time": 18.4613636,
                "pitch": 43,
                "velocity": 64,
                "duration": 0.1886364,
                "tempo": 120.0
            },
            {
                "start_time": 18.4772727,
                "end_time": 18.6590909,
                "pitch": 45,
                "velocity": 64,
                "duration": 0.1818182,
                "tempo": 120.0
            },
            {
                "start_time": 18.675,
                "end_time": 18.8545455,
                "pitch": 45,
                "velocity": 64,
                "duration": 0.1795455,
                "tempo": 120.0
            },
            {
                "start_time": 18.8704545,
                "end_time": 19.05,
                "pitch": 45,
                "velocity": 64,
                "duration": 0.1795455,
                "tempo": 120.0
            },
            {
                "start_time": 19.0659091,
                "end_time": 19.2454545,
                "pitch": 45,
                "velocity": 64,
                "duration": 0.1795455,
                "tempo": 120.0
            },
            {
                "start_time": 19.2636364,
                "end_time": 19.45,
                "pitch": 45,
                "velocity": 64,
                "duration": 0.1863636,
                "tempo": 120.0
            },
            {
                "start_time": 19.4681818,
                "end_time": 19.6568182,
                "pitch": 45,
                "velocity": 64,
                "duration": 0.1886364,
                "tempo": 120.0
            },
            {
                "start_time": 19.6727273,
                "end_time": 19.8522727,
                "pitch": 33,
                "velocity": 64,
                "duration": 0.1795455,
                "tempo": 120.0
            },
            {
                "start_time": 19.8681818,
                "end_time": 20.05,
                "pitch": 35,
                "velocity": 64,
                "duration": 0.1818182,
                "tempo": 120.0
            },
            {
                "start_time": 20.0659091,
                "end_time": 20.2522727,
                "pitch": 36,
                "velocity": 64,
                "duration": 0.1863636,
                "tempo": 120.0
            },
            {
                "start_time": 20.2704545,
                "end_time": 20.4590909,
                "pitch": 36,
                "velocity": 64,
                "duration": 0.1886364,
                "tempo": 120.0
            },
            {
                "start_time": 20.475,
                "end_time": 20.6545455,
                "pitch": 36,
                "velocity": 64,
                "duration": 0.1795455,
                "tempo": 120.0
            },
            {
                "start_time": 20.6727273,
                "end_time": 20.8522727,
                "pitch": 36,
                "velocity": 64,
                "duration": 0.1795455,
                "tempo": 120.0
            },
            {
                "start_time": 20.8681818,
                "end_time": 21.0590909,
                "pitch": 36,
                "velocity": 64,
                "duration": 0.1909091,
                "tempo": 120.0
            },
            {
                "start_time": 21.0772727,
                "end_time": 21.2704545,
                "pitch": 36,
                "velocity": 64,
                "duration": 0.1931818,
                "tempo": 120.0
            },
            {
                "start_time": 21.2886364,
                "end_time": 21.4727273,
                "pitch": 36,
                "velocity": 64,
                "duration": 0.1840909,
                "tempo": 120.0
            },
            {
                "start_time": 21.4909091,
                "end_time": 21.6727273,
                "pitch": 36,
                "velocity": 64,
                "duration": 0.1818182,
                "tempo": 120.0
            },
            {
                "start_time": 21.6909091,
                "end_time": 21.875,
                "pitch": 35,
                "velocity": 64,
                "duration": 0.1840909,
                "tempo": 120.0
            },
            {
                "start_time": 21.8909091,
                "end_time": 22.075,
                "pitch": 35,
                "velocity": 64,
                "duration": 0.1840909,
                "tempo": 120.0
            },
            {
                "start_time": 22.0931818,
                "end_time": 22.2681818,
                "pitch": 35,
                "velocity": 64,
                "duration": 0.175,
                "tempo": 120.0
            },
            {
                "start_time": 22.2840909,
                "end_time": 22.4590909,
                "pitch": 35,
                "velocity": 64,
                "duration": 0.175,
                "tempo": 120.0
            },
            {
                "start_time": 22.475,
                "end_time": 22.6659091,
                "pitch": 35,
                "velocity": 64,
                "duration": 0.1909091,
                "tempo": 120.0
            },
            {
                "start_time": 22.6840909,
                "end_time": 22.8772727,
                "pitch": 35,
                "velocity": 64,
                "duration": 0.1931818,
                "tempo": 120.0
            },
            {
                "start_time": 22.8954545,
                "end_time": 23.0795455,
                "pitch": 35,
                "velocity": 64,
                "duration": 0.1840909,
                "tempo": 120.0
            },
            {
                "start_time": 23.0954545,
                "end_time": 23.2795455,
                "pitch": 35,
                "velocity": 64,
                "duration": 0.1840909,
                "tempo": 120.0
            },
            {
                "start_time": 23.2954545,
                "end_time": 23.4795455,
                "pitch": 33,
                "velocity": 64,
                "duration": 0.1840909,
                "tempo": 120.0
            },
            {
                "start_time": 23.4954545,
                "end_time": 23.6795455,
                "pitch": 33,
                "velocity": 64,
                "duration": 0.1840909,
                "tempo": 120.0
            },
            {
                "start_time": 23.6954545,
                "end_time": 23.8727273,
                "pitch": 33,
                "velocity": 64,
                "duration": 0.1772727,
                "tempo": 120.0
            },
            {
                "start_time": 23.8886364,
                "end_time": 24.0636364,
                "pitch": 33,
                "velocity": 64,
                "duration": 0.175,
                "tempo": 120.0
            },
            {
                "start_time": 24.0795455,
                "end_time": 24.2613636,
                "pitch": 33,
                "velocity": 64,
                "duration": 0.1818182,
                "tempo": 120.0
            },
            {
                "start_time": 24.2795455,
                "end_time": 24.4613636,
                "pitch": 33,
                "velocity": 64,
                "duration": 0.1818182,
                "tempo": 120.0
            },
            {
                "start_time": 24.4795455,
                "end_time": 24.6613636,
                "pitch": 33,
                "velocity": 64,
                "duration": 0.1818182,
                "tempo": 120.0
            },
            {
                "start_time": 24.6795455,
                "end_time": 24.8613636,
                "pitch": 33,
                "velocity": 64,
                "duration": 0.1818182,
                "tempo": 120.0
            },
            {
                "start_time": 24.8795455,
                "end_time": 25.0659091,
                "pitch": 33,
                "velocity": 64,
                "duration": 0.1863636,
                "tempo": 120.0
            },
            {
                "start_time": 25.0840909,
                "end_time": 25.2727273,
                "pitch": 33,
                "velocity": 64,
                "duration": 0.1886364,
                "tempo": 120.0
            },
            {
                "start_time": 25.2886364,
                "end_time": 25.4681818,
                "pitch": 33,
                "velocity": 64,
                "duration": 0.1795455,
                "tempo": 120.0
            },
            {
                "start_time": 25.4863636,
                "end_time": 25.6659091,
                "pitch": 33,
                "velocity": 64,
                "duration": 0.1795455,
                "tempo": 120.0
            },
            {
                "start_time": 25.6818182,
                "end_time": 25.8704545,
                "pitch": 33,
                "velocity": 64,
                "duration": 0.1886364,
                "tempo": 120.0
            },
            {
                "start_time": 26.4727273,
                "end_time": 26.6659091,
                "pitch": 40,
                "velocity": 64,
                "duration": 0.1931818,
                "tempo": 120.0
            },
            {
                "start_time": 26.6840909,
                "end_time": 26.8772727,
                "pitch": 40,
                "velocity": 64,
                "duration": 0.1931818,
                "tempo": 120.0
            },
            {
                "start_time": 26.8954545,
                "end_time": 27.075,
                "pitch": 40,
                "velocity": 64,
                "duration": 0.1795455,
                "tempo": 120.0
            },
            {
                "start_time": 27.0909091,
                "end_time": 27.2704545,
                "pitch": 40,
                "velocity": 64,
                "duration": 0.1795455,
                "tempo": 120.0
            },
            {
                "start_time": 27.2863636,
                "end_time": 27.4795455,
                "pitch": 40,
                "velocity": 64,
                "duration": 0.1931818,
                "tempo": 120.0
            },
            {
                "start_time": 27.4977273,
                "end_time": 27.6909091,
                "pitch": 40,
                "velocity": 64,
                "duration": 0.1931818,
                "tempo": 120.0
            },
            {
                "start_time": 27.7090909,
                "end_time": 27.8931818,
                "pitch": 40,
                "velocity": 64,
                "duration": 0.1840909,
                "tempo": 120.0
            },
            {
                "start_time": 27.9113636,
                "end_time": 28.0954545,
                "pitch": 40,
                "velocity": 64,
                "duration": 0.1840909,
                "tempo": 120.0
            },
            {
                "start_time": 28.1113636,
                "end_time": 28.2909091,
                "pitch": 38,
                "velocity": 64,
                "duration": 0.1795455,
                "tempo": 120.0
            },
            {
                "start_time": 28.3090909,
                "end_time": 28.4886364,
                "pitch": 38,
                "velocity": 64,
                "duration": 0.1795455,
                "tempo": 120.0
            },
            {
                "start_time": 28.5045455,
                "end_time": 28.6840909,
                "pitch": 38,
                "velocity": 64,
                "duration": 0.1795455,
                "tempo": 120.0
            },
            {
                "start_time": 28.7,
                "end_time": 28.8795455,
                "pitch": 38,
                "velocity": 64,
                "duration": 0.1795455,
                "tempo": 120.0
            },
            {
                "start_time": 28.8954545,
                "end_time": 29.0886364,
                "pitch": 38,
                "velocity": 64,
                "duration": 0.1931818,
                "tempo": 120.0
            },
            {
                "start_time": 29.1068182,
                "end_time": 29.3,
                "pitch": 38,
                "velocity": 64,
                "duration": 0.1931818,
                "tempo": 120.0
            },
            {
                "start_time": 29.3181818,
                "end_time": 29.5022727,
                "pitch": 38,
                "velocity": 64,
                "duration": 0.1840909,
                "tempo": 120.0
            },
            {
                "start_time": 29.5181818,
                "end_time": 29.7022727,
                "pitch": 38,
                "velocity": 64,
                "duration": 0.1840909,
                "tempo": 120.0
            },
            {
                "start_time": 29.7181818,
                "end_time": 29.9022727,
                "pitch": 43,
                "velocity": 64,
                "duration": 0.1840909,
                "tempo": 120.0
            },
            {
                "start_time": 29.9204545,
                "end_time": 30.1045455,
                "pitch": 43,
                "velocity": 64,
                "duration": 0.1840909,
                "tempo": 120.0
            },
            {
                "start_time": 30.1204545,
                "end_time": 30.2954545,
                "pitch": 43,
                "velocity": 64,
                "duration": 0.175,
                "tempo": 120.0
            },
            {
                "start_time": 30.3113636,
                "end_time": 30.4863636,
                "pitch": 43,
                "velocity": 64,
                "duration": 0.175,
                "tempo": 120.0
            },
            {
                "start_time": 30.5022727,
                "end_time": 30.6909091,
                "pitch": 43,
                "velocity": 64,
                "duration": 0.1886364,
                "tempo": 120.0
            },
            {
                "start_time": 30.7090909,
                "end_time": 30.8954545,
                "pitch": 43,
                "velocity": 64,
                "duration": 0.1863636,
                "tempo": 120.0
            },
            {
                "start_time": 30.9136364,
                "end_time": 31.1022727,
                "pitch": 43,
                "velocity": 64,
                "duration": 0.1886364,
                "tempo": 120.0
            },
            {
                "start_time": 31.1181818,
                "end_time": 31.3068182,
                "pitch": 43,
                "velocity": 64,
                "duration": 0.1886364,
                "tempo": 120.0
            },
            {
                "start_time": 31.325,
                "end_time": 31.5045455,
                "pitch": 45,
                "velocity": 64,
                "duration": 0.1795455,
                "tempo": 120.0
            },
            {
                "start_time": 31.5204545,
                "end_time": 31.7,
                "pitch": 45,
                "velocity": 64,
                "duration": 0.1795455,
                "tempo": 120.0
            },
            {
                "start_time": 31.7181818,
                "end_time": 31.8977273,
                "pitch": 45,
                "velocity": 64,
                "duration": 0.1795455,
                "tempo": 120.0
            },
            {
                "start_time": 31.9136364,
                "end_time": 32.0931818,
                "pitch": 45,
                "velocity": 64,
                "duration": 0.1795455,
                "tempo": 120.0
            },
            {
                "start_time": 32.1090909,
                "end_time": 32.2977273,
                "pitch": 45,
                "velocity": 64,
                "duration": 0.1886364,
                "tempo": 120.0
            },
            {
                "start_time": 32.3136364,
                "end_time": 32.5022727,
                "pitch": 45,
                "velocity": 64,
                "duration": 0.1886364,
                "tempo": 120.0
            },
            {
                "start_time": 32.5204545,
                "end_time": 32.7,
                "pitch": 33,
                "velocity": 64,
                "duration": 0.1795455,
                "tempo": 120.0
            },
            {
                "start_time": 32.7159091,
                "end_time": 32.8954545,
                "pitch": 35,
                "velocity": 64,
                "duration": 0.1795455,
                "tempo": 120.0
            },
            {
                "start_time": 32.9113636,
                "end_time": 33.1,
                "pitch": 36,
                "velocity": 64,
                "duration": 0.1886364,
                "tempo": 120.0
            },
            {
                "start_time": 33.1159091,
                "end_time": 33.3045455,
                "pitch": 36,
                "velocity": 64,
                "duration": 0.1886364,
                "tempo": 120.0
            },
            {
                "start_time": 33.3227273,
                "end_time": 33.5022727,
                "pitch": 36,
                "velocity": 64,
                "duration": 0.1795455,
                "tempo": 120.0
            },
            {
                "start_time": 33.5181818,
                "end_time": 33.6977273,
                "pitch": 36,
                "velocity": 64,
                "duration": 0.1795455,
                "tempo": 120.0
            },
            {
                "start_time": 33.7136364,
                "end_time": 33.9022727,
                "pitch": 36,
                "velocity": 64,
                "duration": 0.1886364,
                "tempo": 120.0
            },
            {
                "start_time": 33.9204545,
                "end_time": 34.1068182,
                "pitch": 36,
                "velocity": 64,
                "duration": 0.1863636,
                "tempo": 120.0
            },
            {
                "start_time": 34.125,
                "end_time": 34.3136364,
                "pitch": 36,
                "velocity": 64,
                "duration": 0.1886364,
                "tempo": 120.0
            },
            {
                "start_time": 34.3295455,
                "end_time": 34.5181818,
                "pitch": 36,
                "velocity": 64,
                "duration": 0.1886364,
                "tempo": 120.0
            },
            {
                "start_time": 34.5363636,
                "end_time": 34.7204545,
                "pitch": 35,
                "velocity": 64,
                "duration": 0.1840909,
                "tempo": 120.0
            },
            {
                "start_time": 34.7363636,
                "end_time": 34.9204545,
                "pitch": 35,
                "velocity": 64,
                "duration": 0.1840909,
                "tempo": 120.0
            },
            {
                "start_time": 34.9363636,
                "end_time": 35.1113636,
                "pitch": 35,
                "velocity": 64,
                "duration": 0.175,
                "tempo": 120.0
            },
            {
                "start_time": 35.1272727,
                "end_time": 35.3022727,
                "pitch": 35,
                "velocity": 64,
                "duration": 0.175,
                "tempo": 120.0
            },
            {
                "start_time": 35.3181818,
                "end_time": 35.5068182,
                "pitch": 35,
                "velocity": 64,
                "duration": 0.1886364,
                "tempo": 120.0
            },
            {
                "start_time": 35.5227273,
                "end_time": 35.7113636,
                "pitch": 35,
                "velocity": 64,
                "duration": 0.1886364,
                "tempo": 120.0
            },
            {
                "start_time": 35.7295455,
                "end_time": 35.9181818,
                "pitch": 35,
                "velocity": 64,
                "duration": 0.1886364,
                "tempo": 120.0
            },
            {
                "start_time": 35.9340909,
                "end_time": 36.1227273,
                "pitch": 35,
                "velocity": 64,
                "duration": 0.1886364,
                "tempo": 120.0
            },
            {
                "start_time": 36.1409091,
                "end_time": 36.325,
                "pitch": 36,
                "velocity": 64,
                "duration": 0.1840909,
                "tempo": 120.0
            },
            {
                "start_time": 36.3409091,
                "end_time": 36.5272727,
                "pitch": 36,
                "velocity": 64,
                "duration": 0.1863636,
                "tempo": 120.0
            },
            {
                "start_time": 36.5431818,
                "end_time": 36.7181818,
                "pitch": 36,
                "velocity": 64,
                "duration": 0.175,
                "tempo": 120.0
            },
            {
                "start_time": 36.7340909,
                "end_time": 36.9090909,
                "pitch": 36,
                "velocity": 64,
                "duration": 0.175,
                "tempo": 120.0
            },
            {
                "start_time": 36.925,
                "end_time": 37.1159091,
                "pitch": 36,
                "velocity": 64,
                "duration": 0.1909091,
                "tempo": 120.0
            },
            {
                "start_time": 37.1340909,
                "end_time": 37.3272727,
                "pitch": 36,
                "velocity": 64,
                "duration": 0.1931818,
                "tempo": 120.0
            },
            {
                "start_time": 37.3454545,
                "end_time": 37.5295455,
                "pitch": 35,
                "velocity": 64,
                "duration": 0.1840909,
                "tempo": 120.0
            },
            {
                "start_time": 37.5477273,
                "end_time": 37.9159091,
                "pitch": 33,
                "velocity": 64,
                "duration": 0.3681818,
                "tempo": 120.0
            },
            {
                "start_time": 37.9318182,
                "end_time": 38.1,
                "pitch": 38,
                "velocity": 64,
                "duration": 0.1681818,
                "tempo": 120.0
            },
            {
                "start_time": 38.1159091,
                "end_time": 38.5204545,
                "pitch": 38,
                "velocity": 64,
                "duration": 0.4045455,
                "tempo": 120.0
            },
            {
                "start_time": 38.7340909,
                "end_time": 38.9136364,
                "pitch": 38,
                "velocity": 64,
                "duration": 0.1795455,
                "tempo": 120.0
            },
            {
                "start_time": 38.9295455,
                "end_time": 39.1136364,
                "pitch": 38,
                "velocity": 64,
                "duration": 0.1840909,
                "tempo": 120.0
            },
            {
                "start_time": 39.3295455,
                "end_time": 39.7227273,
                "pitch": 36,
                "velocity": 64,
                "duration": 0.3931818,
                "tempo": 120.0
            },
            {
                "start_time": 39.9409091,
                "end_time": 40.3204545,
                "pitch": 38,
                "velocity": 64,
                "duration": 0.3795455,
                "tempo": 120.0
            },
            {
                "start_time": 40.7318182,
                "end_time": 41.1113636,
                "pitch": 40,
                "velocity": 64,
                "duration": 0.3795455,
                "tempo": 120.0
            },
            {
                "start_time": 41.1295455,
                "end_time": 41.3090909,
                "pitch": 52,
                "velocity": 64,
                "duration": 0.1795455,
                "tempo": 120.0
            },
            {
                "start_time": 41.325,
                "end_time": 41.5136364,
                "pitch": 50,
                "velocity": 64,
                "duration": 0.1886364,
                "tempo": 120.0
            },
            {
                "start_time": 41.5295455,
                "end_time": 41.7181818,
                "pitch": 48,
                "velocity": 64,
                "duration": 0.1886364,
                "tempo": 120.0
            },
            {
                "start_time": 41.7363636,
                "end_time": 41.925,
                "pitch": 43,
                "velocity": 64,
                "duration": 0.1886364,
                "tempo": 120.0
            },
            {
                "start_time": 41.9409091,
                "end_time": 42.1295455,
                "pitch": 50,
                "velocity": 64,
                "duration": 0.1886364,
                "tempo": 120.0
            },
            {
                "start_time": 42.1477273,
                "end_time": 42.3272727,
                "pitch": 48,
                "velocity": 64,
                "duration": 0.1795455,
                "tempo": 120.0
            },
            {
                "start_time": 42.3431818,
                "end_time": 42.5227273,
                "pitch": 47,
                "velocity": 64,
                "duration": 0.1795455,
                "tempo": 120.0
            },
            {
                "start_time": 42.5386364,
                "end_time": 42.9318182,
                "pitch": 36,
                "velocity": 64,
                "duration": 0.3931818,
                "tempo": 120.0
            },
            {
                "start_time": 43.15,
                "end_time": 43.5318182,
                "pitch": 38,
                "velocity": 64,
                "duration": 0.3818182,
                "tempo": 120.0
            },
            {
                "start_time": 43.7454545,
                "end_time": 43.9272727,
                "pitch": 35,
                "velocity": 64,
                "duration": 0.1818182,
                "tempo": 120.0
            },
            {
                "start_time": 43.9454545,
                "end_time": 44.325,
                "pitch": 40,
                "velocity": 64,
                "duration": 0.3795455,
                "tempo": 120.0
            },
            {
                "start_time": 44.3409091,
                "end_time": 44.725,
                "pitch": 43,
                "velocity": 64,
                "duration": 0.3840909,
                "tempo": 120.0
            },
            {
                "start_time": 44.7409091,
                "end_time": 44.9295455,
                "pitch": 55,
                "velocity": 64,
                "duration": 0.1886364,
                "tempo": 120.0
            },
            {
                "start_time": 44.9477273,
                "end_time": 45.1318182,
                "pitch": 45,
                "velocity": 64,
                "duration": 0.1840909,
                "tempo": 120.0
            },
            {
                "start_time": 45.1477273,
                "end_time": 45.3318182,
                "pitch": 57,
                "velocity": 64,
                "duration": 0.1840909,
                "tempo": 120.0
            },
            {
                "start_time": 45.3477273,
                "end_time": 45.5318182,
                "pitch": 47,
                "velocity": 64,
                "duration": 0.1840909,
                "tempo": 120.0
            },
            {
                "start_time": 45.5477273,
                "end_time": 45.7340909,
                "pitch": 59,
                "velocity": 64,
                "duration": 0.1863636,
                "tempo": 120.0
            },
            {
                "start_time": 45.75,
                "end_time": 46.1431818,
                "pitch": 36,
                "velocity": 64,
                "duration": 0.3931818,
                "tempo": 120.0
            },
            {
                "start_time": 46.3613636,
                "end_time": 46.7409091,
                "pitch": 38,
                "velocity": 64,
                "duration": 0.3795455,
                "tempo": 120.0
            },
            {
                "start_time": 47.1522727,
                "end_time": 47.5318182,
                "pitch": 40,
                "velocity": 64,
                "duration": 0.3795455,
                "tempo": 120.0
            },
            {
                "start_time": 47.55,
                "end_time": 47.7295455,
                "pitch": 48,
                "velocity": 64,
                "duration": 0.1795455,
                "tempo": 120.0
            },
            {
                "start_time": 47.7454545,
                "end_time": 47.9340909,
                "pitch": 35,
                "velocity": 64,
                "duration": 0.1886364,
                "tempo": 120.0
            },
            {
                "start_time": 47.95,
                "end_time": 48.1386364,
                "pitch": 47,
                "velocity": 64,
                "duration": 0.1886364,
                "tempo": 120.0
            },
            {
                "start_time": 48.1568182,
                "end_time": 48.3454545,
                "pitch": 45,
                "velocity": 64,
                "duration": 0.1886364,
                "tempo": 120.0
            },
            {
                "start_time": 48.3613636,
                "end_time": 48.55,
                "pitch": 45,
                "velocity": 64,
                "duration": 0.1886364,
                "tempo": 120.0
            },
            {
                "start_time": 48.5681818,
                "end_time": 48.75,
                "pitch": 48,
                "velocity": 64,
                "duration": 0.1818182,
                "tempo": 120.0
            },
            {
                "start_time": 48.7681818,
                "end_time": 48.95,
                "pitch": 50,
                "velocity": 64,
                "duration": 0.1818182,
                "tempo": 120.0
            },
            {
                "start_time": 48.9681818,
                "end_time": 49.1477273,
                "pitch": 50,
                "velocity": 64,
                "duration": 0.1795455,
                "tempo": 120.0
            },
            {
                "start_time": 49.1636364,
                "end_time": 49.3431818,
                "pitch": 50,
                "velocity": 64,
                "duration": 0.1795455,
                "tempo": 120.0
            },
            {
                "start_time": 49.3590909,
                "end_time": 49.5431818,
                "pitch": 50,
                "velocity": 64,
                "duration": 0.1840909,
                "tempo": 120.0
            },
            {
                "start_time": 49.5613636,
                "end_time": 49.7454545,
                "pitch": 50,
                "velocity": 64,
                "duration": 0.1840909,
                "tempo": 120.0
            },
            {
                "start_time": 49.7613636,
                "end_time": 49.9454545,
                "pitch": 50,
                "velocity": 64,
                "duration": 0.1840909,
                "tempo": 120.0
            },
            {
                "start_time": 49.9613636,
                "end_time": 50.1454545,
                "pitch": 50,
                "velocity": 64,
                "duration": 0.1840909,
                "tempo": 120.0
            },
            {
                "start_time": 50.1613636,
                "end_time": 50.3454545,
                "pitch": 50,
                "velocity": 64,
                "duration": 0.1840909,
                "tempo": 120.0
            },
            {
                "start_time": 50.3613636,
                "end_time": 50.5454545,
                "pitch": 50,
                "velocity": 64,
                "duration": 0.1840909,
                "tempo": 120.0
            },
            {
                "start_time": 50.5613636,
                "end_time": 50.7454545,
                "pitch": 50,
                "velocity": 64,
                "duration": 0.1840909,
                "tempo": 120.0
            },
            {
                "start_time": 50.7613636,
                "end_time": 50.9454545,
                "pitch": 50,
                "velocity": 64,
                "duration": 0.1840909,
                "tempo": 120.0
            },
            {
                "start_time": 50.9613636,
                "end_time": 51.1454545,
                "pitch": 50,
                "velocity": 64,
                "duration": 0.1840909,
                "tempo": 120.0
            },
            {
                "start_time": 51.1613636,
                "end_time": 51.3454545,
                "pitch": 50,
                "velocity": 64,
                "duration": 0.1840909,
                "tempo": 120.0
            },
            {
                "start_time": 51.3613636,
                "end_time": 51.55,
                "pitch": 50,
                "velocity": 64,
                "duration": 0.1886364,
                "tempo": 120.0
            },
            {
                "start_time": 51.5681818,
                "end_time": 51.7568182,
                "pitch": 50,
                "velocity": 64,
                "duration": 0.1886364,
                "tempo": 120.0
            },
            {
                "start_time": 51.7727273,
                "end_time": 51.9522727,
                "pitch": 50,
                "velocity": 64,
                "duration": 0.1795455,
                "tempo": 120.0
            },
            {
                "start_time": 51.9681818,
                "end_time": 52.1477273,
                "pitch": 50,
                "velocity": 64,
                "duration": 0.1795455,
                "tempo": 120.0
            },
            {
                "start_time": 52.1659091,
                "end_time": 52.3522727,
                "pitch": 33,
                "velocity": 64,
                "duration": 0.1863636,
                "tempo": 120.0
            }
        ],
        "Lead 2 (sawtooth)": [
            {
                "start_time": 39.3477273,
                "end_time": 39.7227273,
                "pitch": 55,
                "velocity": 51,
                "duration": 0.375,
                "tempo": 120.0
            },
            {
                "start_time": 39.9409091,
                "end_time": 40.3204545,
                "pitch": 57,
                "velocity": 51,
                "duration": 0.3795455,
                "tempo": 120.0
            },
            {
                "start_time": 40.7318182,
                "end_time": 41.3090909,
                "pitch": 59,
                "velocity": 51,
                "duration": 0.5772727,
                "tempo": 120.0
            },
            {
                "start_time": 41.325,
                "end_time": 41.7181818,
                "pitch": 76,
                "velocity": 51,
                "duration": 0.3931818,
                "tempo": 120.0
            },
            {
                "start_time": 41.7363636,
                "end_time": 41.8204545,
                "pitch": 76,
                "velocity": 51,
                "duration": 0.0840909,
                "tempo": 120.0
            },
            {
                "start_time": 41.8386364,
                "end_time": 42.0272727,
                "pitch": 76,
                "velocity": 51,
                "duration": 0.1886364,
                "tempo": 120.0
            },
            {
                "start_time": 42.0431818,
                "end_time": 42.1295455,
                "pitch": 76,
                "velocity": 51,
                "duration": 0.0863636,
                "tempo": 120.0
            },
            {
                "start_time": 42.1477273,
                "end_time": 42.3272727,
                "pitch": 76,
                "velocity": 51,
                "duration": 0.1795455,
                "tempo": 120.0
            },
            {
                "start_time": 42.3431818,
                "end_time": 42.5227273,
                "pitch": 76,
                "velocity": 51,
                "duration": 0.1795455,
                "tempo": 120.0
            },
            {
                "start_time": 42.5386364,
                "end_time": 42.9318182,
                "pitch": 55,
                "velocity": 51,
                "duration": 0.3931818,
                "tempo": 120.0
            },
            {
                "start_time": 43.15,
                "end_time": 43.5318182,
                "pitch": 57,
                "velocity": 51,
                "duration": 0.3818182,
                "tempo": 120.0
            },
            {
                "start_time": 43.9454545,
                "end_time": 44.5204545,
                "pitch": 64,
                "velocity": 51,
                "duration": 0.575,
                "tempo": 120.0
            },
            {
                "start_time": 44.5363636,
                "end_time": 44.6227273,
                "pitch": 76,
                "velocity": 51,
                "duration": 0.0863636,
                "tempo": 120.0
            },
            {
                "start_time": 44.6386364,
                "end_time": 44.8272727,
                "pitch": 76,
                "velocity": 51,
                "duration": 0.1886364,
                "tempo": 120.0
            },
            {
                "start_time": 44.8454545,
                "end_time": 45.0318182,
                "pitch": 76,
                "velocity": 51,
                "duration": 0.1863636,
                "tempo": 120.0
            },
            {
                "start_time": 45.0477273,
                "end_time": 45.1318182,
                "pitch": 76,
                "velocity": 51,
                "duration": 0.0840909,
                "tempo": 120.0
            },
            {
                "start_time": 45.1477273,
                "end_time": 45.3318182,
                "pitch": 76,
                "velocity": 51,
                "duration": 0.1840909,
                "tempo": 120.0
            },
            {
                "start_time": 45.3477273,
                "end_time": 45.4318182,
                "pitch": 76,
                "velocity": 51,
                "duration": 0.0840909,
                "tempo": 120.0
            },
            {
                "start_time": 45.4477273,
                "end_time": 45.6318182,
                "pitch": 76,
                "velocity": 51,
                "duration": 0.1840909,
                "tempo": 120.0
            },
            {
                "start_time": 45.65,
                "end_time": 45.7340909,
                "pitch": 76,
                "velocity": 51,
                "duration": 0.0840909,
                "tempo": 120.0
            },
            {
                "start_time": 45.7659091,
                "end_time": 46.1431818,
                "pitch": 55,
                "velocity": 51,
                "duration": 0.3772727,
                "tempo": 120.0
            },
            {
                "start_time": 46.3613636,
                "end_time": 46.7409091,
                "pitch": 57,
                "velocity": 51,
                "duration": 0.3795455,
                "tempo": 120.0
            },
            {
                "start_time": 47.1522727,
                "end_time": 47.7295455,
                "pitch": 59,
                "velocity": 51,
                "duration": 0.5772727,
                "tempo": 120.0
            },
            {
                "start_time": 47.7454545,
                "end_time": 48.1386364,
                "pitch": 76,
                "velocity": 51,
                "duration": 0.3931818,
                "tempo": 120.0
            },
            {
                "start_time": 48.1568182,
                "end_time": 48.2409091,
                "pitch": 76,
                "velocity": 51,
                "duration": 0.0840909,
                "tempo": 120.0
            },
            {
                "start_time": 48.2590909,
                "end_time": 48.3454545,
                "pitch": 76,
                "velocity": 51,
                "duration": 0.0863636,
                "tempo": 120.0
            },
            {
                "start_time": 48.3613636,
                "end_time": 48.55,
                "pitch": 67,
                "velocity": 51,
                "duration": 0.1886364,
                "tempo": 120.0
            },
            {
                "start_time": 48.5681818,
                "end_time": 48.75,
                "pitch": 69,
                "velocity": 51,
                "duration": 0.1818182,
                "tempo": 120.0
            },
            {
                "start_time": 48.7681818,
                "end_time": 51.3454545,
                "pitch": 74,
                "velocity": 51,
                "duration": 2.5772727,
                "tempo": 120.0
            }
        ],
        "Violin": [
            {
                "start_time": 0.8022727,
                "end_time": 1.375,
                "pitch": 55,
                "velocity": 51,
                "duration": 0.5727273,
                "tempo": 120.0
            },
            {
                "start_time": 1.3909091,
                "end_time": 2.3727273,
                "pitch": 57,
                "velocity": 51,
                "duration": 0.9818182,
                "tempo": 120.0
            },
            {
                "start_time": 2.4068182,
                "end_time": 2.9795455,
                "pitch": 60,
                "velocity": 51,
                "duration": 0.5727273,
                "tempo": 120.0
            },
            {
                "start_time": 2.9977273,
                "end_time": 3.9795455,
                "pitch": 62,
                "velocity": 51,
                "duration": 0.9818182,
                "tempo": 120.0
            },
            {
                "start_time": 4.0113636,
                "end_time": 4.5863636,
                "pitch": 55,
                "velocity": 51,
                "duration": 0.575,
                "tempo": 120.0
            },
            {
                "start_time": 4.6022727,
                "end_time": 5.5840909,
                "pitch": 57,
                "velocity": 51,
                "duration": 0.9818182,
                "tempo": 120.0
            },
            {
                "start_time": 5.6181818,
                "end_time": 6.1909091,
                "pitch": 60,
                "velocity": 51,
                "duration": 0.5727273,
                "tempo": 120.0
            },
            {
                "start_time": 6.2068182,
                "end_time": 7.1909091,
                "pitch": 62,
                "velocity": 51,
                "duration": 0.9840909,
                "tempo": 120.0
            },
            {
                "start_time": 7.2227273,
                "end_time": 7.7977273,
                "pitch": 55,
                "velocity": 51,
                "duration": 0.575,
                "tempo": 120.0
            },
            {
                "start_time": 7.8136364,
                "end_time": 8.7977273,
                "pitch": 57,
                "velocity": 51,
                "duration": 0.9840909,
                "tempo": 120.0
            },
            {
                "start_time": 8.8318182,
                "end_time": 9.4045455,
                "pitch": 60,
                "velocity": 51,
                "duration": 0.5727273,
                "tempo": 120.0
            },
            {
                "start_time": 9.4204545,
                "end_time": 10.4068182,
                "pitch": 62,
                "velocity": 51,
                "duration": 0.9863636,
                "tempo": 120.0
            }
        ],
        "Acoustic Bass": [
            {
                "start_time": 10.4409091,
                "end_time": 10.6113636,
                "pitch": 55,
                "velocity": 51,
                "duration": 0.1704545,
                "tempo": 120.0
            },
            {
                "start_time": 10.6272727,
                "end_time": 10.8159091,
                "pitch": 55,
                "velocity": 51,
                "duration": 0.1886364,
                "tempo": 120.0
            },
            {
                "start_time": 10.8340909,
                "end_time": 11.0136364,
                "pitch": 55,
                "velocity": 51,
                "duration": 0.1795455,
                "tempo": 120.0
            },
            {
                "start_time": 11.0295455,
                "end_time": 11.2090909,
                "pitch": 55,
                "velocity": 51,
                "duration": 0.1795455,
                "tempo": 120.0
            },
            {
                "start_time": 11.225,
                "end_time": 11.4136364,
                "pitch": 55,
                "velocity": 51,
                "duration": 0.1886364,
                "tempo": 120.0
            },
            {
                "start_time": 11.4318182,
                "end_time": 11.6181818,
                "pitch": 55,
                "velocity": 51,
                "duration": 0.1863636,
                "tempo": 120.0
            },
            {
                "start_time": 11.6363636,
                "end_time": 11.8159091,
                "pitch": 55,
                "velocity": 51,
                "duration": 0.1795455,
                "tempo": 120.0
            },
            {
                "start_time": 11.8318182,
                "end_time": 12.2159091,
                "pitch": 59,
                "velocity": 51,
                "duration": 0.3840909,
                "tempo": 120.0
            },
            {
                "start_time": 12.2340909,
                "end_time": 12.4227273,
                "pitch": 59,
                "velocity": 51,
                "duration": 0.1886364,
                "tempo": 120.0
            },
            {
                "start_time": 12.4568182,
                "end_time": 12.6227273,
                "pitch": 59,
                "velocity": 51,
                "duration": 0.1659091,
                "tempo": 120.0
            },
            {
                "start_time": 12.6409091,
                "end_time": 12.825,
                "pitch": 59,
                "velocity": 51,
                "duration": 0.1840909,
                "tempo": 120.0
            },
            {
                "start_time": 13.6431818,
                "end_time": 13.7136364,
                "pitch": 52,
                "velocity": 51,
                "duration": 0.0704545,
                "tempo": 120.0
            },
            {
                "start_time": 13.7318182,
                "end_time": 13.8204545,
                "pitch": 52,
                "velocity": 51,
                "duration": 0.0886364,
                "tempo": 120.0
            },
            {
                "start_time": 13.9431818,
                "end_time": 14.0318182,
                "pitch": 52,
                "velocity": 51,
                "duration": 0.0886364,
                "tempo": 120.0
            },
            {
                "start_time": 14.0477273,
                "end_time": 14.2295455,
                "pitch": 52,
                "velocity": 51,
                "duration": 0.1818182,
                "tempo": 120.0
            },
            {
                "start_time": 14.2454545,
                "end_time": 14.3272727,
                "pitch": 52,
                "velocity": 51,
                "duration": 0.0818182,
                "tempo": 120.0
            },
            {
                "start_time": 14.3431818,
                "end_time": 14.425,
                "pitch": 52,
                "velocity": 51,
                "duration": 0.0818182,
                "tempo": 120.0
            },
            {
                "start_time": 14.5431818,
                "end_time": 14.6295455,
                "pitch": 52,
                "velocity": 51,
                "duration": 0.0863636,
                "tempo": 120.0
            },
            {
                "start_time": 14.6454545,
                "end_time": 14.8340909,
                "pitch": 52,
                "velocity": 51,
                "duration": 0.1886364,
                "tempo": 120.0
            },
            {
                "start_time": 14.8522727,
                "end_time": 15.0409091,
                "pitch": 52,
                "velocity": 51,
                "duration": 0.1886364,
                "tempo": 120.0
            },
            {
                "start_time": 15.0568182,
                "end_time": 15.2454545,
                "pitch": 52,
                "velocity": 51,
                "duration": 0.1886364,
                "tempo": 120.0
            },
            {
                "start_time": 15.2795455,
                "end_time": 15.3454545,
                "pitch": 54,
                "velocity": 51,
                "duration": 0.0659091,
                "tempo": 120.0
            },
            {
                "start_time": 15.3613636,
                "end_time": 15.4431818,
                "pitch": 54,
                "velocity": 51,
                "duration": 0.0818182,
                "tempo": 120.0
            },
            {
                "start_time": 15.5568182,
                "end_time": 15.6386364,
                "pitch": 54,
                "velocity": 51,
                "duration": 0.0818182,
                "tempo": 120.0
            },
            {
                "start_time": 15.6545455,
                "end_time": 15.8340909,
                "pitch": 54,
                "velocity": 51,
                "duration": 0.1795455,
                "tempo": 120.0
            },
            {
                "start_time": 15.85,
                "end_time": 15.9318182,
                "pitch": 54,
                "velocity": 51,
                "duration": 0.0818182,
                "tempo": 120.0
            },
            {
                "start_time": 15.95,
                "end_time": 16.0318182,
                "pitch": 54,
                "velocity": 51,
                "duration": 0.0818182,
                "tempo": 120.0
            },
            {
                "start_time": 16.1522727,
                "end_time": 16.2386364,
                "pitch": 54,
                "velocity": 51,
                "duration": 0.0863636,
                "tempo": 120.0
            },
            {
                "start_time": 16.2568182,
                "end_time": 16.45,
                "pitch": 54,
                "velocity": 51,
                "duration": 0.1931818,
                "tempo": 120.0
            },
            {
                "start_time": 16.4681818,
                "end_time": 16.6545455,
                "pitch": 54,
                "velocity": 51,
                "duration": 0.1863636,
                "tempo": 120.0
            },
            {
                "start_time": 16.6704545,
                "end_time": 16.8545455,
                "pitch": 54,
                "velocity": 51,
                "duration": 0.1840909,
                "tempo": 120.0
            },
            {
                "start_time": 16.8886364,
                "end_time": 16.9545455,
                "pitch": 55,
                "velocity": 51,
                "duration": 0.0659091,
                "tempo": 120.0
            },
            {
                "start_time": 16.9704545,
                "end_time": 17.0522727,
                "pitch": 55,
                "velocity": 51,
                "duration": 0.0818182,
                "tempo": 120.0
            },
            {
                "start_time": 17.1659091,
                "end_time": 17.2477273,
                "pitch": 55,
                "velocity": 51,
                "duration": 0.0818182,
                "tempo": 120.0
            },
            {
                "start_time": 17.2636364,
                "end_time": 17.4431818,
                "pitch": 55,
                "velocity": 51,
                "duration": 0.1795455,
                "tempo": 120.0
            },
            {
                "start_time": 17.4613636,
                "end_time": 17.5431818,
                "pitch": 55,
                "velocity": 51,
                "duration": 0.0818182,
                "tempo": 120.0
            },
            {
                "start_time": 17.5590909,
                "end_time": 17.6409091,
                "pitch": 55,
                "velocity": 51,
                "duration": 0.0818182,
                "tempo": 120.0
            },
            {
                "start_time": 17.7590909,
                "end_time": 17.8454545,
                "pitch": 55,
                "velocity": 51,
                "duration": 0.0863636,
                "tempo": 120.0
            },
            {
                "start_time": 17.8613636,
                "end_time": 18.05,
                "pitch": 55,
                "velocity": 51,
                "duration": 0.1886364,
                "tempo": 120.0
            },
            {
                "start_time": 18.0659091,
                "end_time": 18.2545455,
                "pitch": 55,
                "velocity": 51,
                "duration": 0.1886364,
                "tempo": 120.0
            },
            {
                "start_time": 18.2727273,
                "end_time": 18.4613636,
                "pitch": 55,
                "velocity": 51,
                "duration": 0.1886364,
                "tempo": 120.0
            },
            {
                "start_time": 18.4954545,
                "end_time": 18.5590909,
                "pitch": 57,
                "velocity": 51,
                "duration": 0.0636364,
                "tempo": 120.0
            },
            {
                "start_time": 18.5772727,
                "end_time": 18.6590909,
                "pitch": 57,
                "velocity": 51,
                "duration": 0.0818182,
                "tempo": 120.0
            },
            {
                "start_time": 18.7727273,
                "end_time": 18.8545455,
                "pitch": 57,
                "velocity": 51,
                "duration": 0.0818182,
                "tempo": 120.0
            },
            {
                "start_time": 18.8704545,
                "end_time": 19.05,
                "pitch": 57,
                "velocity": 51,
                "duration": 0.1795455,
                "tempo": 120.0
            },
            {
                "start_time": 19.0659091,
                "end_time": 19.1477273,
                "pitch": 57,
                "velocity": 51,
                "duration": 0.0818182,
                "tempo": 120.0
            },
            {
                "start_time": 19.1636364,
                "end_time": 19.2454545,
                "pitch": 57,
                "velocity": 51,
                "duration": 0.0818182,
                "tempo": 120.0
            },
            {
                "start_time": 19.3659091,
                "end_time": 19.45,
                "pitch": 57,
                "velocity": 51,
                "duration": 0.0840909,
                "tempo": 120.0
            },
            {
                "start_time": 19.4681818,
                "end_time": 19.6568182,
                "pitch": 57,
                "velocity": 51,
                "duration": 0.1886364,
                "tempo": 120.0
            },
            {
                "start_time": 19.6727273,
                "end_time": 19.8522727,
                "pitch": 57,
                "velocity": 51,
                "duration": 0.1795455,
                "tempo": 120.0
            },
            {
                "start_time": 19.8681818,
                "end_time": 20.05,
                "pitch": 57,
                "velocity": 51,
                "duration": 0.1818182,
                "tempo": 120.0
            },
            {
                "start_time": 20.0818182,
                "end_time": 20.15,
                "pitch": 55,
                "velocity": 51,
                "duration": 0.0681818,
                "tempo": 120.0
            },
            {
                "start_time": 20.1681818,
                "end_time": 20.2522727,
                "pitch": 55,
                "velocity": 51,
                "duration": 0.0840909,
                "tempo": 120.0
            },
            {
                "start_time": 20.3727273,
                "end_time": 20.4590909,
                "pitch": 55,
                "velocity": 51,
                "duration": 0.0863636,
                "tempo": 120.0
            },
            {
                "start_time": 20.475,
                "end_time": 20.6545455,
                "pitch": 55,
                "velocity": 51,
                "duration": 0.1795455,
                "tempo": 120.0
            },
            {
                "start_time": 20.6727273,
                "end_time": 20.7545455,
                "pitch": 55,
                "velocity": 51,
                "duration": 0.0818182,
                "tempo": 120.0
            },
            {
                "start_time": 20.7704545,
                "end_time": 20.8522727,
                "pitch": 55,
                "velocity": 51,
                "duration": 0.0818182,
                "tempo": 120.0
            },
            {
                "start_time": 20.9727273,
                "end_time": 21.0590909,
                "pitch": 55,
                "velocity": 51,
                "duration": 0.0863636,
                "tempo": 120.0
            },
            {
                "start_time": 21.0772727,
                "end_time": 21.2704545,
                "pitch": 55,
                "velocity": 51,
                "duration": 0.1931818,
                "tempo": 120.0
            },
            {
                "start_time": 21.2886364,
                "end_time": 21.4727273,
                "pitch": 55,
                "velocity": 51,
                "duration": 0.1840909,
                "tempo": 120.0
            },
            {
                "start_time": 21.4909091,
                "end_time": 21.6727273,
                "pitch": 55,
                "velocity": 51,
                "duration": 0.1818182,
                "tempo": 120.0
            },
            {
                "start_time": 21.7068182,
                "end_time": 21.775,
                "pitch": 50,
                "velocity": 51,
                "duration": 0.0681818,
                "tempo": 120.0
            },
            {
                "start_time": 21.7909091,
                "end_time": 21.875,
                "pitch": 50,
                "velocity": 51,
                "duration": 0.0840909,
                "tempo": 120.0
            },
            {
                "start_time": 21.9909091,
                "end_time": 22.075,
                "pitch": 50,
                "velocity": 51,
                "duration": 0.0840909,
                "tempo": 120.0
            },
            {
                "start_time": 22.0931818,
                "end_time": 22.2681818,
                "pitch": 50,
                "velocity": 51,
                "duration": 0.175,
                "tempo": 120.0
            },
            {
                "start_time": 22.2840909,
                "end_time": 22.3636364,
                "pitch": 50,
                "velocity": 51,
                "duration": 0.0795455,
                "tempo": 120.0
            },
            {
                "start_time": 22.3795455,
                "end_time": 22.4590909,
                "pitch": 50,
                "velocity": 51,
                "duration": 0.0795455,
                "tempo": 120.0
            },
            {
                "start_time": 22.5795455,
                "end_time": 22.6659091,
                "pitch": 50,
                "velocity": 51,
                "duration": 0.0863636,
                "tempo": 120.0
            },
            {
                "start_time": 22.6840909,
                "end_time": 22.8772727,
                "pitch": 50,
                "velocity": 51,
                "duration": 0.1931818,
                "tempo": 120.0
            },
            {
                "start_time": 22.8954545,
                "end_time": 23.0795455,
                "pitch": 50,
                "velocity": 51,
                "duration": 0.1840909,
                "tempo": 120.0
            },
            {
                "start_time": 23.0954545,
                "end_time": 23.2795455,
                "pitch": 50,
                "velocity": 51,
                "duration": 0.1840909,
                "tempo": 120.0
            },
            {
                "start_time": 23.3136364,
                "end_time": 23.3795455,
                "pitch": 52,
                "velocity": 51,
                "duration": 0.0659091,
                "tempo": 120.0
            },
            {
                "start_time": 23.3954545,
                "end_time": 23.4795455,
                "pitch": 52,
                "velocity": 51,
                "duration": 0.0840909,
                "tempo": 120.0
            },
            {
                "start_time": 23.5954545,
                "end_time": 23.6795455,
                "pitch": 52,
                "velocity": 51,
                "duration": 0.0840909,
                "tempo": 120.0
            },
            {
                "start_time": 23.6954545,
                "end_time": 23.8727273,
                "pitch": 52,
                "velocity": 51,
                "duration": 0.1772727,
                "tempo": 120.0
            },
            {
                "start_time": 23.8886364,
                "end_time": 23.9681818,
                "pitch": 52,
                "velocity": 51,
                "duration": 0.0795455,
                "tempo": 120.0
            },
            {
                "start_time": 23.9840909,
                "end_time": 24.0636364,
                "pitch": 52,
                "velocity": 51,
                "duration": 0.0795455,
                "tempo": 120.0
            },
            {
                "start_time": 24.1795455,
                "end_time": 24.2613636,
                "pitch": 52,
                "velocity": 51,
                "duration": 0.0818182,
                "tempo": 120.0
            },
            {
                "start_time": 24.2795455,
                "end_time": 24.4613636,
                "pitch": 52,
                "velocity": 51,
                "duration": 0.1818182,
                "tempo": 120.0
            },
            {
                "start_time": 24.4795455,
                "end_time": 24.6613636,
                "pitch": 52,
                "velocity": 51,
                "duration": 0.1818182,
                "tempo": 120.0
            },
            {
                "start_time": 24.6795455,
                "end_time": 24.8613636,
                "pitch": 52,
                "velocity": 51,
                "duration": 0.1818182,
                "tempo": 120.0
            },
            {
                "start_time": 26.4909091,
                "end_time": 26.5613636,
                "pitch": 52,
                "velocity": 51,
                "duration": 0.0704545,
                "tempo": 120.0
            },
            {
                "start_time": 26.5772727,
                "end_time": 26.6659091,
                "pitch": 52,
                "velocity": 51,
                "duration": 0.0886364,
                "tempo": 120.0
            },
            {
                "start_time": 26.7886364,
                "end_time": 26.8772727,
                "pitch": 52,
                "velocity": 51,
                "duration": 0.0886364,
                "tempo": 120.0
            },
            {
                "start_time": 26.8954545,
                "end_time": 27.075,
                "pitch": 52,
                "velocity": 51,
                "duration": 0.1795455,
                "tempo": 120.0
            },
            {
                "start_time": 27.0909091,
                "end_time": 27.1727273,
                "pitch": 52,
                "velocity": 51,
                "duration": 0.0818182,
                "tempo": 120.0
            },
            {
                "start_time": 27.1886364,
                "end_time": 27.2704545,
                "pitch": 52,
                "velocity": 51,
                "duration": 0.0818182,
                "tempo": 120.0
            },
            {
                "start_time": 27.3909091,
                "end_time": 27.4795455,
                "pitch": 52,
                "velocity": 51,
                "duration": 0.0886364,
                "tempo": 120.0
            },
            {
                "start_time": 27.4977273,
                "end_time": 27.6909091,
                "pitch": 52,
                "velocity": 51,
                "duration": 0.1931818,
                "tempo": 120.0
            },
            {
                "start_time": 27.7090909,
                "end_time": 27.8931818,
                "pitch": 52,
                "velocity": 51,
                "duration": 0.1840909,
                "tempo": 120.0
            },
            {
                "start_time": 27.9113636,
                "end_time": 28.0954545,
                "pitch": 52,
                "velocity": 51,
                "duration": 0.1840909,
                "tempo": 120.0
            },
            {
                "start_time": 28.1295455,
                "end_time": 28.1931818,
                "pitch": 54,
                "velocity": 51,
                "duration": 0.0636364,
                "tempo": 120.0
            },
            {
                "start_time": 28.2090909,
                "end_time": 28.2909091,
                "pitch": 54,
                "velocity": 51,
                "duration": 0.0818182,
                "tempo": 120.0
            },
            {
                "start_time": 28.4068182,
                "end_time": 28.4886364,
                "pitch": 54,
                "velocity": 51,
                "duration": 0.0818182,
                "tempo": 120.0
            },
            {
                "start_time": 28.5045455,
                "end_time": 28.6840909,
                "pitch": 54,
                "velocity": 51,
                "duration": 0.1795455,
                "tempo": 120.0
            },
            {
                "start_time": 28.7,
                "end_time": 28.7818182,
                "pitch": 54,
                "velocity": 51,
                "duration": 0.0818182,
                "tempo": 120.0
            },
            {
                "start_time": 28.7977273,
                "end_time": 28.8795455,
                "pitch": 54,
                "velocity": 51,
                "duration": 0.0818182,
                "tempo": 120.0
            },
            {
                "start_time": 29.0,
                "end_time": 29.0886364,
                "pitch": 54,
                "velocity": 51,
                "duration": 0.0886364,
                "tempo": 120.0
            },
            {
                "start_time": 29.1068182,
                "end_time": 29.3,
                "pitch": 54,
                "velocity": 51,
                "duration": 0.1931818,
                "tempo": 120.0
            },
            {
                "start_time": 29.3181818,
                "end_time": 29.5022727,
                "pitch": 54,
                "velocity": 51,
                "duration": 0.1840909,
                "tempo": 120.0
            },
            {
                "start_time": 29.5181818,
                "end_time": 29.7022727,
                "pitch": 54,
                "velocity": 51,
                "duration": 0.1840909,
                "tempo": 120.0
            },
            {
                "start_time": 29.7340909,
                "end_time": 29.8022727,
                "pitch": 55,
                "velocity": 51,
                "duration": 0.0681818,
                "tempo": 120.0
            },
            {
                "start_time": 29.8181818,
                "end_time": 29.9022727,
                "pitch": 55,
                "velocity": 51,
                "duration": 0.0840909,
                "tempo": 120.0
            },
            {
                "start_time": 30.0204545,
                "end_time": 30.1045455,
                "pitch": 55,
                "velocity": 51,
                "duration": 0.0840909,
                "tempo": 120.0
            },
            {
                "start_time": 30.1204545,
                "end_time": 30.2954545,
                "pitch": 55,
                "velocity": 51,
                "duration": 0.175,
                "tempo": 120.0
            },
            {
                "start_time": 30.3113636,
                "end_time": 30.3909091,
                "pitch": 55,
                "velocity": 51,
                "duration": 0.0795455,
                "tempo": 120.0
            },
            {
                "start_time": 30.4068182,
                "end_time": 30.4863636,
                "pitch": 55,
                "velocity": 51,
                "duration": 0.0795455,
                "tempo": 120.0
            },
            {
                "start_time": 30.6045455,
                "end_time": 30.6909091,
                "pitch": 55,
                "velocity": 51,
                "duration": 0.0863636,
                "tempo": 120.0
            },
            {
                "start_time": 30.7090909,
                "end_time": 30.8954545,
                "pitch": 55,
                "velocity": 51,
                "duration": 0.1863636,
                "tempo": 120.0
            },
            {
                "start_time": 30.9136364,
                "end_time": 31.1022727,
                "pitch": 55,
                "velocity": 51,
                "duration": 0.1886364,
                "tempo": 120.0
            },
            {
                "start_time": 31.1181818,
                "end_time": 31.3068182,
                "pitch": 55,
                "velocity": 51,
                "duration": 0.1886364,
                "tempo": 120.0
            },
            {
                "start_time": 31.3409091,
                "end_time": 31.4068182,
                "pitch": 57,
                "velocity": 51,
                "duration": 0.0659091,
                "tempo": 120.0
            },
            {
                "start_time": 31.4227273,
                "end_time": 31.5045455,
                "pitch": 57,
                "velocity": 51,
                "duration": 0.0818182,
                "tempo": 120.0
            },
            {
                "start_time": 31.6181818,
                "end_time": 31.7,
                "pitch": 57,
                "velocity": 51,
                "duration": 0.0818182,
                "tempo": 120.0
            },
            {
                "start_time": 31.7181818,
                "end_time": 31.8977273,
                "pitch": 57,
                "velocity": 51,
                "duration": 0.1795455,
                "tempo": 120.0
            },
            {
                "start_time": 31.9136364,
                "end_time": 31.9954545,
                "pitch": 57,
                "velocity": 51,
                "duration": 0.0818182,
                "tempo": 120.0
            },
            {
                "start_time": 32.0113636,
                "end_time": 32.0931818,
                "pitch": 57,
                "velocity": 51,
                "duration": 0.0818182,
                "tempo": 120.0
            },
            {
                "start_time": 32.2113636,
                "end_time": 32.2977273,
                "pitch": 57,
                "velocity": 51,
                "duration": 0.0863636,
                "tempo": 120.0
            },
            {
                "start_time": 32.3136364,
                "end_time": 32.5022727,
                "pitch": 57,
                "velocity": 51,
                "duration": 0.1886364,
                "tempo": 120.0
            },
            {
                "start_time": 32.5204545,
                "end_time": 32.7,
                "pitch": 57,
                "velocity": 51,
                "duration": 0.1795455,
                "tempo": 120.0
            },
            {
                "start_time": 32.7159091,
                "end_time": 32.8954545,
                "pitch": 57,
                "velocity": 51,
                "duration": 0.1795455,
                "tempo": 120.0
            },
            {
                "start_time": 32.9295455,
                "end_time": 32.9977273,
                "pitch": 55,
                "velocity": 51,
                "duration": 0.0681818,
                "tempo": 120.0
            },
            {
                "start_time": 33.0136364,
                "end_time": 33.1,
                "pitch": 55,
                "velocity": 51,
                "duration": 0.0863636,
                "tempo": 120.0
            },
            {
                "start_time": 33.2204545,
                "end_time": 33.3045455,
                "pitch": 55,
                "velocity": 51,
                "duration": 0.0840909,
                "tempo": 120.0
            },
            {
                "start_time": 33.3227273,
                "end_time": 33.5022727,
                "pitch": 55,
                "velocity": 51,
                "duration": 0.1795455,
                "tempo": 120.0
            },
            {
                "start_time": 33.5181818,
                "end_time": 33.6,
                "pitch": 55,
                "velocity": 51,
                "duration": 0.0818182,
                "tempo": 120.0
            },
            {
                "start_time": 33.6159091,
                "end_time": 33.6977273,
                "pitch": 55,
                "velocity": 51,
                "duration": 0.0818182,
                "tempo": 120.0
            },
            {
                "start_time": 33.8159091,
                "end_time": 33.9022727,
                "pitch": 55,
                "velocity": 51,
                "duration": 0.0863636,
                "tempo": 120.0
            },
            {
                "start_time": 33.9204545,
                "end_time": 34.1068182,
                "pitch": 55,
                "velocity": 51,
                "duration": 0.1863636,
                "tempo": 120.0
            },
            {
                "start_time": 34.125,
                "end_time": 34.3136364,
                "pitch": 55,
                "velocity": 51,
                "duration": 0.1886364,
                "tempo": 120.0
            },
            {
                "start_time": 34.3295455,
                "end_time": 34.5181818,
                "pitch": 55,
                "velocity": 51,
                "duration": 0.1886364,
                "tempo": 120.0
            },
            {
                "start_time": 34.5522727,
                "end_time": 34.6204545,
                "pitch": 50,
                "velocity": 51,
                "duration": 0.0681818,
                "tempo": 120.0
            },
            {
                "start_time": 34.6363636,
                "end_time": 34.7204545,
                "pitch": 50,
                "velocity": 51,
                "duration": 0.0840909,
                "tempo": 120.0
            },
            {
                "start_time": 34.8363636,
                "end_time": 34.9204545,
                "pitch": 50,
                "velocity": 51,
                "duration": 0.0840909,
                "tempo": 120.0
            },
            {
                "start_time": 34.9363636,
                "end_time": 35.1113636,
                "pitch": 50,
                "velocity": 51,
                "duration": 0.175,
                "tempo": 120.0
            },
            {
                "start_time": 35.1272727,
                "end_time": 35.2068182,
                "pitch": 50,
                "velocity": 51,
                "duration": 0.0795455,
                "tempo": 120.0
            },
            {
                "start_time": 35.2227273,
                "end_time": 35.3022727,
                "pitch": 50,
                "velocity": 51,
                "duration": 0.0795455,
                "tempo": 120.0
            },
            {
                "start_time": 35.4204545,
                "end_time": 35.5068182,
                "pitch": 50,
                "velocity": 51,
                "duration": 0.0863636,
                "tempo": 120.0
            },
            {
                "start_time": 35.5227273,
                "end_time": 35.7113636,
                "pitch": 50,
                "velocity": 51,
                "duration": 0.1886364,
                "tempo": 120.0
            },
            {
                "start_time": 35.7295455,
                "end_time": 35.9181818,
                "pitch": 50,
                "velocity": 51,
                "duration": 0.1886364,
                "tempo": 120.0
            },
            {
                "start_time": 35.9340909,
                "end_time": 36.1227273,
                "pitch": 50,
                "velocity": 51,
                "duration": 0.1886364,
                "tempo": 120.0
            },
            {
                "start_time": 36.1568182,
                "end_time": 36.225,
                "pitch": 52,
                "velocity": 51,
                "duration": 0.0681818,
                "tempo": 120.0
            },
            {
                "start_time": 36.2409091,
                "end_time": 36.325,
                "pitch": 52,
                "velocity": 51,
                "duration": 0.0840909,
                "tempo": 120.0
            },
            {
                "start_time": 36.4431818,
                "end_time": 36.5272727,
                "pitch": 52,
                "velocity": 51,
                "duration": 0.0840909,
                "tempo": 120.0
            },
            {
                "start_time": 36.5431818,
                "end_time": 36.7181818,
                "pitch": 52,
                "velocity": 51,
                "duration": 0.175,
                "tempo": 120.0
            },
            {
                "start_time": 36.7340909,
                "end_time": 36.8136364,
                "pitch": 52,
                "velocity": 51,
                "duration": 0.0795455,
                "tempo": 120.0
            },
            {
                "start_time": 36.8295455,
                "end_time": 36.9090909,
                "pitch": 52,
                "velocity": 51,
                "duration": 0.0795455,
                "tempo": 120.0
            },
            {
                "start_time": 37.0295455,
                "end_time": 37.1159091,
                "pitch": 52,
                "velocity": 51,
                "duration": 0.0863636,
                "tempo": 120.0
            },
            {
                "start_time": 37.1522727,
                "end_time": 37.3272727,
                "pitch": 52,
                "velocity": 51,
                "duration": 0.175,
                "tempo": 120.0
            },
            {
                "start_time": 37.3636364,
                "end_time": 37.5295455,
                "pitch": 52,
                "velocity": 51,
                "duration": 0.1659091,
                "tempo": 120.0
            },
            {
                "start_time": 37.5636364,
                "end_time": 37.7295455,
                "pitch": 52,
                "velocity": 51,
                "duration": 0.1659091,
                "tempo": 120.0
            },
            {
                "start_time": 37.7454545,
                "end_time": 39.3136364,
                "pitch": 50,
                "velocity": 51,
                "duration": 1.5681818,
                "tempo": 120.0
            }
        ]
    }
}