{
    "mood": "angry",
    "instruments": {
        "Harpsichord": [
            {
                "start_time": 0.0090909,
                "end_time": 0.3136364,
                "pitch": 62,
                "velocity": 64,
                "duration": 0.3045455,
                "tempo": 120.0
            },
            {
                "start_time": 0.3318182,
                "end_time": 0.4318182,
                "pitch": 62,
                "velocity": 64,
                "duration": 0.1,
                "tempo": 120.0
            },
            {
                "start_time": 0.6977273,
                "end_time": 0.8181818,
                "pitch": 62,
                "velocity": 64,
                "duration": 0.1204545,
                "tempo": 120.0
            },
            {
                "start_time": 1.2113636,
                "end_time": 1.4431818,
                "pitch": 60,
                "velocity": 64,
                "duration": 0.2318182,
                "tempo": 120.0
            },
            {
                "start_time": 1.4613636,
                "end_time": 1.6931818,
                "pitch": 62,
                "velocity": 64,
                "duration": 0.2318182,
                "tempo": 120.0
            },
            {
                "start_time": 2.0931818,
                "end_time": 2.1113636,
                "pitch": 61,
                "velocity": 64,
                "duration": 0.0181818,
                "tempo": 120.0
            },
            {
                "start_time": 2.1272727,
                "end_time": 2.1931818,
                "pitch": 62,
                "velocity": 64,
                "duration": 0.0659091,
                "tempo": 120.0
            },
            {
                "start_time": 2.2113636,
                "end_time": 2.3295455,
                "pitch": 62,
                "velocity": 64,
                "duration": 0.1181818,
                "tempo": 120.0
            },
            {
                "start_time": 2.3477273,
                "end_time": 2.45,
                "pitch": 62,
                "velocity": 64,
                "duration": 0.1022727,
                "tempo": 120.0
            },
            {
                "start_time": 2.4659091,
                "end_time": 2.5863636,
                "pitch": 62,
                "velocity": 64,
                "duration": 0.1204545,
                "tempo": 120.0
            },
            {
                "start_time": 2.6022727,
                "end_time": 2.7068182,
                "pitch": 62,
                "velocity": 64,
                "duration": 0.1045455,
                "tempo": 120.0
            },
            {
                "start_time": 2.7227273,
                "end_time": 2.8386364,
                "pitch": 62,
                "velocity": 64,
                "duration": 0.1159091,
                "tempo": 120.0
            },
            {
                "start_time": 2.8568182,
                "end_time": 2.9568182,
                "pitch": 62,
                "velocity": 64,
                "duration": 0.1,
                "tempo": 120.0
            },
            {
                "start_time": 2.9727273,
                "end_time": 3.0886364,
                "pitch": 62,
                "velocity": 64,
                "duration": 0.1159091,
                "tempo": 120.0
            },
            {
                "start_time": 3.1068182,
                "end_time": 3.2068182,
                "pitch": 62,
                "velocity": 64,
                "duration": 0.1,
                "tempo": 120.0
            },
            {
                "start_time": 3.2227273,
                "end_time": 3.3431818,
                "pitch": 62,
                "velocity": 64,
                "duration": 0.1204545,
                "tempo": 120.0
            },
            {
                "start_time": 3.3590909,
                "end_time": 3.4613636,
                "pitch": 62,
                "velocity": 64,
                "duration": 0.1022727,
                "tempo": 120.0
            },
            {
                "start_time": 3.4795455,
                "end_time": 3.5977273,
                "pitch": 62,
                "velocity": 64,
                "duration": 0.1181818,
                "tempo": 120.0
            },
            {
                "start_time": 3.6159091,
                "end_time": 3.7181818,
                "pitch": 62,
                "velocity": 64,
                "duration": 0.1022727,
                "tempo": 120.0
            },
            {
                "start_time": 3.7363636,
                "end_time": 3.85,
                "pitch": 62,
                "velocity": 64,
                "duration": 0.1136364,
                "tempo": 120.0
            },
            {
                "start_time": 3.8659091,
                "end_time": 3.9659091,
                "pitch": 62,
                "velocity": 64,
                "duration": 0.1,
                "tempo": 120.0
            },
            {
                "start_time": 3.9818182,
                "end_time": 4.0477273,
                "pitch": 65,
                "velocity": 64,
                "duration": 0.0659091,
                "tempo": 120.0
            },
            {
                "start_time": 4.0636364,
                "end_time": 4.3431818,
                "pitch": 66,
                "velocity": 64,
                "duration": 0.2795455,
                "tempo": 120.0
            },
            {
                "start_time": 4.3613636,
                "end_time": 4.5931818,
                "pitch": 62,
                "velocity": 64,
                "duration": 0.2318182,
                "tempo": 120.0
            },
            {
                "start_time": 5.6113636,
                "end_time": 5.7113636,
                "pitch": 57,
                "velocity": 64,
                "duration": 0.1,
                "tempo": 120.0
            },
            {
                "start_time": 5.7272727,
                "end_time": 5.8431818,
                "pitch": 60,
                "velocity": 64,
                "duration": 0.1159091,
                "tempo": 120.0
            },
            {
                "start_time": 5.8613636,
                "end_time": 5.9613636,
                "pitch": 62,
                "velocity": 64,
                "duration": 0.1,
                "tempo": 120.0
            },
            {
                "start_time": 6.0613636,
                "end_time": 6.0931818,
                "pitch": 61,
                "velocity": 64,
                "duration": 0.0318182,
                "tempo": 120.0
            },
            {
                "start_time": 6.1113636,
                "end_time": 6.2113636,
                "pitch": 62,
                "velocity": 64,
                "duration": 0.1,
                "tempo": 120.0
            },
            {
                "start_time": 6.2272727,
                "end_time": 6.3431818,
                "pitch": 62,
                "velocity": 64,
                "duration": 0.1159091,
                "tempo": 120.0
            },
            {
                "start_time": 6.3613636,
                "end_time": 6.4613636,
                "pitch": 62,
                "velocity": 64,
                "duration": 0.1,
                "tempo": 120.0
            },
            {
                "start_time": 6.4772727,
                "end_time": 6.5931818,
                "pitch": 62,
                "velocity": 64,
                "duration": 0.1159091,
                "tempo": 120.0
            },
            {
                "start_time": 6.6113636,
                "end_time": 6.7113636,
                "pitch": 62,
                "velocity": 64,
                "duration": 0.1,
                "tempo": 120.0
            },
            {
                "start_time": 6.7272727,
                "end_time": 6.8431818,
                "pitch": 62,
                "velocity": 64,
                "duration": 0.1159091,
                "tempo": 120.0
            },
            {
                "start_time": 6.8613636,
                "end_time": 6.9613636,
                "pitch": 62,
                "velocity": 64,
                "duration": 0.1,
                "tempo": 120.0
            },
            {
                "start_time": 6.9772727,
                "end_time": 7.2113636,
                "pitch": 62,
                "velocity": 64,
                "duration": 0.2340909,
                "tempo": 120.0
            },
            {
                "start_time": 7.2272727,
                "end_time": 7.3431818,
                "pitch": 62,
                "velocity": 64,
                "duration": 0.1159091,
                "tempo": 120.0
            },
            {
                "start_time": 7.3613636,
                "end_time": 7.5931818,
                "pitch": 62,
                "velocity": 64,
                "duration": 0.2318182,
                "tempo": 120.0
            },
            {
                "start_time": 7.6113636,
                "end_time": 7.7113636,
                "pitch": 60,
                "velocity": 64,
                "duration": 0.1,
                "tempo": 120.0
            },
            {
                "start_time": 7.7272727,
                "end_time": 7.8431818,
                "pitch": 57,
                "velocity": 64,
                "duration": 0.1159091,
                "tempo": 120.0
            },
            {
                "start_time": 7.8613636,
                "end_time": 7.9613636,
                "pitch": 55,
                "velocity": 64,
                "duration": 0.1,
                "tempo": 120.0
            },
            {
                "start_time": 8.1113636,
                "end_time": 8.2113636,
                "pitch": 57,
                "velocity": 64,
                "duration": 0.1,
                "tempo": 120.0
            },
            {
                "start_time": 8.2272727,
                "end_time": 8.3431818,
                "pitch": 53,
                "velocity": 64,
                "duration": 0.1159091,
                "tempo": 120.0
            },
            {
                "start_time": 8.3613636,
                "end_time": 8.5931818,
                "pitch": 50,
                "velocity": 64,
                "duration": 0.2318182,
                "tempo": 120.0
            },
            {
                "start_time": 9.3613636,
                "end_time": 9.4613636,
                "pitch": 48,
                "velocity": 64,
                "duration": 0.1,
                "tempo": 120.0
            },
            {
                "start_time": 9.4772727,
                "end_time": 9.5931818,
                "pitch": 50,
                "velocity": 64,
                "duration": 0.1159091,
                "tempo": 120.0
            },
            {
                "start_time": 9.6113636,
                "end_time": 9.9613636,
                "pitch": 53,
                "velocity": 64,
                "duration": 0.35,
                "tempo": 120.0
            },
            {
                "start_time": 9.9772727,
                "end_time": 10.0113636,
                "pitch": 54,
                "velocity": 64,
                "duration": 0.0340909,
                "tempo": 120.0
            },
            {
                "start_time": 10.0272727,
                "end_time": 10.4613636,
                "pitch": 55,
                "velocity": 64,
                "duration": 0.4340909,
                "tempo": 120.0
            },
            {
                "start_time": 10.4772727,
                "end_time": 10.7113636,
                "pitch": 53,
                "velocity": 64,
                "duration": 0.2340909,
                "tempo": 120.0
            },
            {
                "start_time": 10.7272727,
                "end_time": 10.9613636,
                "pitch": 50,
                "velocity": 64,
                "duration": 0.2340909,
                "tempo": 120.0
            },
            {
                "start_time": 10.9772727,
                "end_time": 11.0931818,
                "pitch": 55,
                "velocity": 64,
                "duration": 0.1159091,
                "tempo": 120.0
            },
            {
                "start_time": 11.1113636,
                "end_time": 11.3431818,
                "pitch": 53,
                "velocity": 64,
                "duration": 0.2318182,
                "tempo": 120.0
            },
            {
                "start_time": 11.3613636,
                "end_time": 11.4613636,
                "pitch": 50,
                "velocity": 64,
                "duration": 0.1,
                "tempo": 120.0
            },
            {
                "start_time": 12.0613636,
                "end_time": 12.0931818,
                "pitch": 56,
                "velocity": 64,
                "duration": 0.0318182,
                "tempo": 120.0
            },
            {
                "start_time": 12.1113636,
                "end_time": 12.4613636,
                "pitch": 57,
                "velocity": 64,
                "duration": 0.35,
                "tempo": 120.0
            },
            {
                "start_time": 12.4772727,
                "end_time": 12.7113636,
                "pitch": 55,
                "velocity": 64,
                "duration": 0.2340909,
                "tempo": 120.0
            },
            {
                "start_time": 12.7272727,
                "end_time": 12.9613636,
                "pitch": 57,
                "velocity": 64,
                "duration": 0.2340909,
                "tempo": 120.0
            },
            {
                "start_time": 12.9772727,
                "end_time": 13.0931818,
                "pitch": 56,
                "velocity": 64,
                "duration": 0.1159091,
                "tempo": 120.0
            },
            {
                "start_time": 13.1113636,
                "end_time": 13.2113636,
                "pitch": 55,
                "velocity": 64,
                "duration": 0.1,
                "tempo": 120.0
            },
            {
                "start_time": 13.2272727,
                "end_time": 13.3431818,
                "pitch": 53,
                "velocity": 64,
                "duration": 0.1159091,
                "tempo": 120.0
            },
            {
                "start_time": 13.3613636,
                "end_time": 13.5931818,
                "pitch": 55,
                "velocity": 64,
                "duration": 0.2318182,
                "tempo": 120.0
            },
            {
                "start_time": 13.6113636,
                "end_time": 13.7113636,
                "pitch": 50,
                "velocity": 64,
                "duration": 0.1,
                "tempo": 120.0
            },
            {
                "start_time": 13.7272727,
                "end_time": 13.8431818,
                "pitch": 48,
                "velocity": 64,
                "duration": 0.1159091,
                "tempo": 120.0
            },
            {
                "start_time": 13.8613636,
                "end_time": 13.9613636,
                "pitch": 50,
                "velocity": 64,
                "duration": 0.1,
                "tempo": 120.0
            },
            {
                "start_time": 14.0613636,
                "end_time": 14.0931818,
                "pitch": 54,
                "velocity": 64,
                "duration": 0.0318182,
                "tempo": 120.0
            },
            {
                "start_time": 14.1113636,
                "end_time": 14.4613636,
                "pitch": 55,
                "velocity": 64,
                "duration": 0.35,
                "tempo": 120.0
            },
            {
                "start_time": 14.4772727,
                "end_time": 14.7113636,
                "pitch": 53,
                "velocity": 64,
                "duration": 0.2340909,
                "tempo": 120.0
            },
            {
                "start_time": 14.7272727,
                "end_time": 14.9613636,
                "pitch": 50,
                "velocity": 64,
                "duration": 0.2340909,
                "tempo": 120.0
            },
            {
                "start_time": 14.9772727,
                "end_time": 15.0931818,
                "pitch": 55,
                "velocity": 64,
                "duration": 0.1159091,
                "tempo": 120.0
            },
            {
                "start_time": 15.1113636,
                "end_time": 15.3431818,
                "pitch": 53,
                "velocity": 64,
                "duration": 0.2318182,
                "tempo": 120.0
            },
            {
                "start_time": 15.3613636,
                "end_time": 15.4613636,
                "pitch": 50,
                "velocity": 64,
                "duration": 0.1,
                "tempo": 120.0
            },
            {
                "start_time": 16.0613636,
                "end_time": 16.0931818,
                "pitch": 61,
                "velocity": 64,
                "duration": 0.0318182,
                "tempo": 120.0
            },
            {
                "start_time": 16.1113636,
                "end_time": 16.4613636,
                "pitch": 62,
                "velocity": 64,
                "duration": 0.35,
                "tempo": 120.0
            },
            {
                "start_time": 16.4772727,
                "end_time": 17.0931818,
                "pitch": 62,
                "velocity": 64,
                "duration": 0.6159091,
                "tempo": 120.0
            },
            {
                "start_time": 17.1113636,
                "end_time": 17.2113636,
                "pitch": 60,
                "velocity": 64,
                "duration": 0.1,
                "tempo": 120.0
            },
            {
                "start_time": 17.2272727,
                "end_time": 17.3477273,
                "pitch": 57,
                "velocity": 64,
                "duration": 0.1204545,
                "tempo": 120.0
            },
            {
                "start_time": 17.3636364,
                "end_time": 17.4659091,
                "pitch": 55,
                "velocity": 64,
                "duration": 0.1022727,
                "tempo": 120.0
            },
            {
                "start_time": 17.4840909,
                "end_time": 17.6022727,
                "pitch": 56,
                "velocity": 64,
                "duration": 0.1181818,
                "tempo": 120.0
            },
            {
                "start_time": 17.6204545,
                "end_time": 17.7227273,
                "pitch": 57,
                "velocity": 64,
                "duration": 0.1022727,
                "tempo": 120.0
            },
            {
                "start_time": 17.7409091,
                "end_time": 17.8545455,
                "pitch": 56,
                "velocity": 64,
                "duration": 0.1136364,
                "tempo": 120.0
            },
            {
                "start_time": 17.8704545,
                "end_time": 17.9704545,
                "pitch": 50,
                "velocity": 64,
                "duration": 0.1,
                "tempo": 120.0
            },
            {
                "start_time": 18.1181818,
                "end_time": 18.1340909,
                "pitch": 61,
                "velocity": 64,
                "duration": 0.0159091,
                "tempo": 120.0
            },
            {
                "start_time": 18.15,
                "end_time": 18.2159091,
                "pitch": 62,
                "velocity": 64,
                "duration": 0.0659091,
                "tempo": 120.0
            },
            {
                "start_time": 18.2318182,
                "end_time": 18.3477273,
                "pitch": 62,
                "velocity": 64,
                "duration": 0.1159091,
                "tempo": 120.0
            },
            {
                "start_time": 18.3659091,
                "end_time": 18.4659091,
                "pitch": 62,
                "velocity": 64,
                "duration": 0.1,
                "tempo": 120.0
            },
            {
                "start_time": 18.4818182,
                "end_time": 18.5977273,
                "pitch": 62,
                "velocity": 64,
                "duration": 0.1159091,
                "tempo": 120.0
            },
            {
                "start_time": 18.6159091,
                "end_time": 18.7159091,
                "pitch": 62,
                "velocity": 64,
                "duration": 0.1,
                "tempo": 120.0
            },
            {
                "start_time": 18.7318182,
                "end_time": 18.8477273,
                "pitch": 62,
                "velocity": 64,
                "duration": 0.1159091,
                "tempo": 120.0
            },
            {
                "start_time": 18.8659091,
                "end_time": 18.9659091,
                "pitch": 62,
                "velocity": 64,
                "duration": 0.1,
                "tempo": 120.0
            },
            {
                "start_time": 18.9818182,
                "end_time": 19.0977273,
                "pitch": 62,
                "velocity": 64,
                "duration": 0.1159091,
                "tempo": 120.0
            },
            {
                "start_time": 19.1159091,
                "end_time": 19.2159091,
                "pitch": 62,
                "velocity": 64,
                "duration": 0.1,
                "tempo": 120.0
            },
            {
                "start_time": 19.2318182,
                "end_time": 19.3477273,
                "pitch": 62,
                "velocity": 64,
                "duration": 0.1159091,
                "tempo": 120.0
            },
            {
                "start_time": 19.3659091,
                "end_time": 19.4659091,
                "pitch": 62,
                "velocity": 64,
                "duration": 0.1,
                "tempo": 120.0
            },
            {
                "start_time": 19.4818182,
                "end_time": 19.5977273,
                "pitch": 62,
                "velocity": 64,
                "duration": 0.1159091,
                "tempo": 120.0
            },
            {
                "start_time": 19.6159091,
                "end_time": 19.7159091,
                "pitch": 62,
                "velocity": 64,
                "duration": 0.1,
                "tempo": 120.0
            },
            {
                "start_time": 19.7318182,
                "end_time": 19.8477273,
                "pitch": 62,
                "velocity": 64,
                "duration": 0.1159091,
                "tempo": 120.0
            },
            {
                "start_time": 19.8659091,
                "end_time": 19.9659091,
                "pitch": 62,
                "velocity": 64,
                "duration": 0.1,
                "tempo": 120.0
            },
            {
                "start_time": 19.9818182,
                "end_time": 20.0477273,
                "pitch": 65,
                "velocity": 64,
                "duration": 0.0659091,
                "tempo": 120.0
            },
            {
                "start_time": 20.0659091,
                "end_time": 20.3477273,
                "pitch": 66,
                "velocity": 64,
                "duration": 0.2818182,
                "tempo": 120.0
            },
            {
                "start_time": 20.3659091,
                "end_time": 20.5977273,
                "pitch": 62,
                "velocity": 64,
                "duration": 0.2318182,
                "tempo": 120.0
            },
            {
                "start_time": 21.6159091,
                "end_time": 21.7159091,
                "pitch": 57,
                "velocity": 64,
                "duration": 0.1,
                "tempo": 120.0
            },
            {
                "start_time": 21.7318182,
                "end_time": 21.8477273,
                "pitch": 60,
                "velocity": 64,
                "duration": 0.1159091,
                "tempo": 120.0
            },
            {
                "start_time": 21.8659091,
                "end_time": 21.9659091,
                "pitch": 62,
                "velocity": 64,
                "duration": 0.1,
                "tempo": 120.0
            },
            {
                "start_time": 22.0659091,
                "end_time": 22.0977273,
                "pitch": 61,
                "velocity": 64,
                "duration": 0.0318182,
                "tempo": 120.0
            },
            {
                "start_time": 22.1159091,
                "end_time": 22.2159091,
                "pitch": 62,
                "velocity": 64,
                "duration": 0.1,
                "tempo": 120.0
            },
            {
                "start_time": 22.2318182,
                "end_time": 22.3477273,
                "pitch": 62,
                "velocity": 64,
                "duration": 0.1159091,
                "tempo": 120.0
            },
            {
                "start_time": 22.3659091,
                "end_time": 22.4659091,
                "pitch": 62,
                "velocity": 64,
                "duration": 0.1,
                "tempo": 120.0
            },
            {
                "start_time": 22.4818182,
                "end_time": 22.5977273,
                "pitch": 62,
                "velocity": 64,
                "duration": 0.1159091,
                "tempo": 120.0
            },
            {
                "start_time": 22.6159091,
                "end_time": 22.7159091,
                "pitch": 62,
                "velocity": 64,
                "duration": 0.1,
                "tempo": 120.0
            },
            {
                "start_time": 22.7318182,
                "end_time": 22.8477273,
                "pitch": 62,
                "velocity": 64,
                "duration": 0.1159091,
                "tempo": 120.0
            },
            {
                "start_time": 22.8659091,
                "end_time": 22.9659091,
                "pitch": 62,
                "velocity": 64,
                "duration": 0.1,
                "tempo": 120.0
            },
            {
                "start_time": 22.9818182,
                "end_time": 23.2159091,
                "pitch": 62,
                "velocity": 64,
                "duration": 0.2340909,
                "tempo": 120.0
            },
            {
                "start_time": 23.2318182,
                "end_time": 23.35,
                "pitch": 62,
                "velocity": 64,
                "duration": 0.1181818,
                "tempo": 120.0
            },
            {
                "start_time": 23.3681818,
                "end_time": 23.6068182,
                "pitch": 62,
                "velocity": 64,
                "duration": 0.2386364,
                "tempo": 120.0
            },
            {
                "start_time": 23.625,
                "end_time": 23.7272727,
                "pitch": 60,
                "velocity": 64,
                "duration": 0.1022727,
                "tempo": 120.0
            },
            {
                "start_time": 23.7431818,
                "end_time": 23.8590909,
                "pitch": 57,
                "velocity": 64,
                "duration": 0.1159091,
                "tempo": 120.0
            },
            {
                "start_time": 23.875,
                "end_time": 23.975,
                "pitch": 55,
                "velocity": 64,
                "duration": 0.1,
                "tempo": 120.0
            },
            {
                "start_time": 24.1204545,
                "end_time": 24.2204545,
                "pitch": 57,
                "velocity": 64,
                "duration": 0.1,
                "tempo": 120.0
            },
            {
                "start_time": 24.2363636,
                "end_time": 24.3522727,
                "pitch": 53,
                "velocity": 64,
                "duration": 0.1159091,
                "tempo": 120.0
            },
            {
                "start_time": 24.3704545,
                "end_time": 24.6022727,
                "pitch": 50,
                "velocity": 64,
                "duration": 0.2318182,
                "tempo": 120.0
            },
            {
                "start_time": 25.3704545,
                "end_time": 25.4704545,
                "pitch": 48,
                "velocity": 64,
                "duration": 0.1,
                "tempo": 120.0
            },
            {
                "start_time": 25.4863636,
                "end_time": 25.6022727,
                "pitch": 50,
                "velocity": 64,
                "duration": 0.1159091,
                "tempo": 120.0
            },
            {
                "start_time": 25.6204545,
                "end_time": 25.9704545,
                "pitch": 53,
                "velocity": 64,
                "duration": 0.35,
                "tempo": 120.0
            },
            {
                "start_time": 25.9863636,
                "end_time": 26.0204545,
                "pitch": 54,
                "velocity": 64,
                "duration": 0.0340909,
                "tempo": 120.0
            },
            {
                "start_time": 26.0363636,
                "end_time": 26.4704545,
                "pitch": 55,
                "velocity": 64,
                "duration": 0.4340909,
                "tempo": 120.0
            },
            {
                "start_time": 26.4863636,
                "end_time": 26.7204545,
                "pitch": 53,
                "velocity": 64,
                "duration": 0.2340909,
                "tempo": 120.0
            },
            {
                "start_time": 26.7363636,
                "end_time": 26.9704545,
                "pitch": 50,
                "velocity": 64,
                "duration": 0.2340909,
                "tempo": 120.0
            },
            {
                "start_time": 26.9863636,
                "end_time": 27.1022727,
                "pitch": 55,
                "velocity": 64,
                "duration": 0.1159091,
                "tempo": 120.0
            },
            {
                "start_time": 27.1204545,
                "end_time": 27.3522727,
                "pitch": 53,
                "velocity": 64,
                "duration": 0.2318182,
                "tempo": 120.0
            },
            {
                "start_time": 27.3704545,
                "end_time": 27.4704545,
                "pitch": 50,
                "velocity": 64,
                "duration": 0.1,
                "tempo": 120.0
            },
            {
                "start_time": 28.0704545,
                "end_time": 28.1022727,
                "pitch": 56,
                "velocity": 64,
                "duration": 0.0318182,
                "tempo": 120.0
            },
            {
                "start_time": 28.1204545,
                "end_time": 28.4704545,
                "pitch": 57,
                "velocity": 64,
                "duration": 0.35,
                "tempo": 120.0
            },
            {
                "start_time": 28.4863636,
                "end_time": 28.7204545,
                "pitch": 55,
                "velocity": 64,
                "duration": 0.2340909,
                "tempo": 120.0
            },
            {
                "start_time": 28.7363636,
                "end_time": 28.9704545,
                "pitch": 57,
                "velocity": 64,
                "duration": 0.2340909,
                "tempo": 120.0
            },
            {
                "start_time": 28.9863636,
                "end_time": 29.1022727,
                "pitch": 56,
                "velocity": 64,
                "duration": 0.1159091,
                "tempo": 120.0
            },
            {
                "start_time": 29.1204545,
                "end_time": 29.2204545,
                "pitch": 55,
                "velocity": 64,
                "duration": 0.1,
                "tempo": 120.0
            },
            {
                "start_time": 29.2363636,
                "end_time": 29.3522727,
                "pitch": 53,
                "velocity": 64,
                "duration": 0.1159091,
                "tempo": 120.0
            },
            {
                "start_time": 29.3704545,
                "end_time": 29.6022727,
                "pitch": 55,
                "velocity": 64,
                "duration": 0.2318182,
                "tempo": 120.0
            },
            {
                "start_time": 29.6204545,
                "end_time": 29.7204545,
                "pitch": 50,
                "velocity": 64,
                "duration": 0.1,
                "tempo": 120.0
            },
            {
                "start_time": 29.7363636,
                "end_time": 29.8522727,
                "pitch": 48,
                "velocity": 64,
                "duration": 0.1159091,
                "tempo": 120.0
            },
            {
                "start_time": 29.8704545,
                "end_time": 29.9704545,
                "pitch": 50,
                "velocity": 64,
                "duration": 0.1,
                "tempo": 120.0
            },
            {
                "start_time": 30.0704545,
                "end_time": 30.1022727,
                "pitch": 54,
                "velocity": 64,
                "duration": 0.0318182,
                "tempo": 120.0
            },
            {
                "start_time": 30.1204545,
                "end_time": 30.4704545,
                "pitch": 55,
                "velocity": 64,
                "duration": 0.35,
                "tempo": 120.0
            },
            {
                "start_time": 30.4863636,
                "end_time": 30.7204545,
                "pitch": 53,
                "velocity": 64,
                "duration": 0.2340909,
                "tempo": 120.0
            },
            {
                "start_time": 30.7363636,
                "end_time": 30.9704545,
                "pitch": 50,
                "velocity": 64,
                "duration": 0.2340909,
                "tempo": 120.0
            },
            {
                "start_time": 30.9863636,
                "end_time": 31.1022727,
                "pitch": 55,
                "velocity": 64,
                "duration": 0.1159091,
                "tempo": 120.0
            },
            {
                "start_time": 31.1204545,
                "end_time": 31.3522727,
                "pitch": 53,
                "velocity": 64,
                "duration": 0.2318182,
                "tempo": 120.0
            },
            {
                "start_time": 31.3704545,
                "end_time": 31.4704545,
                "pitch": 50,
                "velocity": 64,
                "duration": 0.1,
                "tempo": 120.0
            },
            {
                "start_time": 32.0704545,
                "end_time": 32.1022727,
                "pitch": 61,
                "velocity": 64,
                "duration": 0.0318182,
                "tempo": 120.0
            },
            {
                "start_time": 32.1204545,
                "end_time": 32.4704545,
                "pitch": 62,
                "velocity": 64,
                "duration": 0.35,
                "tempo": 120.0
            },
            {
                "start_time": 32.4863636,
                "end_time": 33.1022727,
                "pitch": 62,
                "velocity": 64,
                "duration": 0.6159091,
                "tempo": 120.0
            },
            {
                "start_time": 33.1204545,
                "end_time": 33.2204545,
                "pitch": 60,
                "velocity": 64,
                "duration": 0.1,
                "tempo": 120.0
            },
            {
                "start_time": 33.2363636,
                "end_time": 33.3522727,
                "pitch": 57,
                "velocity": 64,
                "duration": 0.1159091,
                "tempo": 120.0
            },
            {
                "start_time": 33.3704545,
                "end_time": 33.4704545,
                "pitch": 55,
                "velocity": 64,
                "duration": 0.1,
                "tempo": 120.0
            },
            {
                "start_time": 33.4863636,
                "end_time": 33.6022727,
                "pitch": 56,
                "velocity": 64,
                "duration": 0.1159091,
                "tempo": 120.0
            },
            {
                "start_time": 33.6204545,
                "end_time": 33.7204545,
                "pitch": 57,
                "velocity": 64,
                "duration": 0.1,
                "tempo": 120.0
            },
            {
                "start_time": 33.7363636,
                "end_time": 33.8522727,
                "pitch": 56,
                "velocity": 64,
                "duration": 0.1159091,
                "tempo": 120.0
            },
            {
                "start_time": 33.8704545,
                "end_time": 33.9704545,
                "pitch": 50,
                "velocity": 64,
                "duration": 0.1,
                "tempo": 120.0
            },
            {
                "start_time": 34.1204545,
                "end_time": 34.2204545,
                "pitch": 57,
                "velocity": 64,
                "duration": 0.1,
                "tempo": 120.0
            },
            {
                "start_time": 34.2363636,
                "end_time": 34.4704545,
                "pitch": 55,
                "velocity": 64,
                "duration": 0.2340909,
                "tempo": 120.0
            },
            {
                "start_time": 34.4863636,
                "end_time": 34.7204545,
                "pitch": 57,
                "velocity": 64,
                "duration": 0.2340909,
                "tempo": 120.0
            },
            {
                "start_time": 34.7363636,
                "end_time": 34.9704545,
                "pitch": 55,
                "velocity": 64,
                "duration": 0.2340909,
                "tempo": 120.0
            },
            {
                "start_time": 34.9863636,
                "end_time": 35.2204545,
                "pitch": 57,
                "velocity": 64,
                "duration": 0.2340909,
                "tempo": 120.0
            },
            {
                "start_time": 35.2363636,
                "end_time": 35.4704545,
                "pitch": 55,
                "velocity": 64,
                "duration": 0.2340909,
                "tempo": 120.0
            },
            {
                "start_time": 35.4863636,
                "end_time": 35.7204545,
                "pitch": 57,
                "velocity": 64,
                "duration": 0.2340909,
                "tempo": 120.0
            },
            {
                "start_time": 35.7363636,
                "end_time": 35.9704545,
                "pitch": 62,
                "velocity": 64,
                "duration": 0.2340909,
                "tempo": 120.0
            },
            {
                "start_time": 35.9863636,
                "end_time": 36.3477273,
                "pitch": 61,
                "velocity": 64,
                "duration": 0.3613636,
                "tempo": 120.0
            },
            {
                "start_time": 36.3636364,
                "end_time": 36.7,
                "pitch": 57,
                "velocity": 64,
                "duration": 0.3363636,
                "tempo": 120.0
            },
            {
                "start_time": 36.7159091,
                "end_time": 36.9590909,
                "pitch": 62,
                "velocity": 64,
                "duration": 0.2431818,
                "tempo": 120.0
            },
            {
                "start_time": 36.975,
                "end_time": 37.3545455,
                "pitch": 61,
                "velocity": 64,
                "duration": 0.3795455,
                "tempo": 120.0
            },
            {
                "start_time": 37.3704545,
                "end_time": 37.9704545,
                "pitch": 57,
                "velocity": 64,
                "duration": 0.6,
                "tempo": 120.0
            },
            {
                "start_time": 38.1204545,
                "end_time": 38.2204545,
                "pitch": 55,
                "velocity": 64,
                "duration": 0.1,
                "tempo": 120.0
            },
            {
                "start_time": 38.2363636,
                "end_time": 38.4704545,
                "pitch": 53,
                "velocity": 64,
                "duration": 0.2340909,
                "tempo": 120.0
            },
            {
                "start_time": 38.4863636,
                "end_time": 38.7204545,
                "pitch": 55,
                "velocity": 64,
                "duration": 0.2340909,
                "tempo": 120.0
            },
            {
                "start_time": 38.7363636,
                "end_time": 38.9704545,
                "pitch": 53,
                "velocity": 64,
                "duration": 0.2340909,
                "tempo": 120.0
            },
            {
                "start_time": 38.9863636,
                "end_time": 39.2204545,
                "pitch": 55,
                "velocity": 64,
                "duration": 0.2340909,
                "tempo": 120.0
            },
            {
                "start_time": 39.2363636,
                "end_time": 39.4704545,
                "pitch": 53,
                "velocity": 64,
                "duration": 0.2340909,
                "tempo": 120.0
            },
            {
                "start_time": 39.4863636,
                "end_time": 39.7204545,
                "pitch": 55,
                "velocity": 64,
                "duration": 0.2340909,
                "tempo": 120.0
            },
            {
                "start_time": 39.7363636,
                "end_time": 39.9704545,
                "pitch": 60,
                "velocity": 64,
                "duration": 0.2340909,
                "tempo": 120.0
            },
            {
                "start_time": 39.9863636,
                "end_time": 40.3477273,
                "pitch": 59,
                "velocity": 64,
                "duration": 0.3613636,
                "tempo": 120.0
            },
            {
                "start_time": 40.3636364,
                "end_time": 40.7,
                "pitch": 55,
                "velocity": 64,
                "duration": 0.3363636,
                "tempo": 120.0
            },
            {
                "start_time": 40.7159091,
                "end_time": 40.9590909,
                "pitch": 60,
                "velocity": 64,
                "duration": 0.2431818,
                "tempo": 120.0
            },
            {
                "start_time": 40.9772727,
                "end_time": 41.3545455,
                "pitch": 59,
                "velocity": 64,
                "duration": 0.3772727,
                "tempo": 120.0
            },
            {
                "start_time": 41.3704545,
                "end_time": 41.9772727,
                "pitch": 55,
                "velocity": 64,
                "duration": 0.6068182,
                "tempo": 120.0
            },
            {
                "start_time": 42.1318182,
                "end_time": 42.2340909,
                "pitch": 57,
                "velocity": 64,
                "duration": 0.1022727,
                "tempo": 120.0
            },
            {
                "start_time": 42.25,
                "end_time": 42.475,
                "pitch": 55,
                "velocity": 64,
                "duration": 0.225,
                "tempo": 120.0
            },
            {
                "start_time": 42.4931818,
                "end_time": 42.7181818,
                "pitch": 57,
                "velocity": 64,
                "duration": 0.225,
                "tempo": 120.0
            },
            {
                "start_time": 42.7340909,
                "end_time": 42.9727273,
                "pitch": 55,
                "velocity": 64,
                "duration": 0.2386364,
                "tempo": 120.0
            },
            {
                "start_time": 42.9909091,
                "end_time": 43.2295455,
                "pitch": 57,
                "velocity": 64,
                "duration": 0.2386364,
                "tempo": 120.0
            },
            {
                "start_time": 43.2454545,
                "end_time": 43.4795455,
                "pitch": 55,
                "velocity": 64,
                "duration": 0.2340909,
                "tempo": 120.0
            },
            {
                "start_time": 43.4977273,
                "end_time": 43.7295455,
                "pitch": 57,
                "velocity": 64,
                "duration": 0.2318182,
                "tempo": 120.0
            },
            {
                "start_time": 43.7477273,
                "end_time": 43.9795455,
                "pitch": 62,
                "velocity": 64,
                "duration": 0.2318182,
                "tempo": 120.0
            },
            {
                "start_time": 43.9977273,
                "end_time": 44.3590909,
                "pitch": 61,
                "velocity": 64,
                "duration": 0.3613636,
                "tempo": 120.0
            },
            {
                "start_time": 44.375,
                "end_time": 44.7090909,
                "pitch": 57,
                "velocity": 64,
                "duration": 0.3340909,
                "tempo": 120.0
            },
            {
                "start_time": 44.7272727,
                "end_time": 44.9681818,
                "pitch": 62,
                "velocity": 64,
                "duration": 0.2409091,
                "tempo": 120.0
            },
            {
                "start_time": 44.9863636,
                "end_time": 45.3636364,
                "pitch": 61,
                "velocity": 64,
                "duration": 0.3772727,
                "tempo": 120.0
            },
            {
                "start_time": 45.3818182,
                "end_time": 45.9863636,
                "pitch": 57,
                "velocity": 64,
                "duration": 0.6045455,
                "tempo": 120.0
            },
            {
                "start_time": 46.1409091,
                "end_time": 46.2431818,
                "pitch": 60,
                "velocity": 64,
                "duration": 0.1022727,
                "tempo": 120.0
            },
            {
                "start_time": 46.2590909,
                "end_time": 46.4909091,
                "pitch": 58,
                "velocity": 64,
                "duration": 0.2318182,
                "tempo": 120.0
            },
            {
                "start_time": 46.5068182,
                "end_time": 46.7363636,
                "pitch": 60,
                "velocity": 64,
                "duration": 0.2295455,
                "tempo": 120.0
            },
            {
                "start_time": 46.7522727,
                "end_time": 46.9863636,
                "pitch": 58,
                "velocity": 64,
                "duration": 0.2340909,
                "tempo": 120.0
            },
            {
                "start_time": 47.0022727,
                "end_time": 47.2363636,
                "pitch": 60,
                "velocity": 64,
                "duration": 0.2340909,
                "tempo": 120.0
            },
            {
                "start_time": 47.2522727,
                "end_time": 47.4863636,
                "pitch": 58,
                "velocity": 64,
                "duration": 0.2340909,
                "tempo": 120.0
            },
            {
                "start_time": 47.5022727,
                "end_time": 47.6181818,
                "pitch": 60,
                "velocity": 64,
                "duration": 0.1159091,
                "tempo": 120.0
            },
            {
                "start_time": 47.6363636,
                "end_time": 47.7363636,
                "pitch": 55,
                "velocity": 64,
                "duration": 0.1,
                "tempo": 120.0
            },
            {
                "start_time": 47.7522727,
                "end_time": 47.8704545,
                "pitch": 58,
                "velocity": 64,
                "duration": 0.1181818,
                "tempo": 120.0
            },
            {
                "start_time": 47.8886364,
                "end_time": 47.9909091,
                "pitch": 60,
                "velocity": 64,
                "duration": 0.1022727,
                "tempo": 120.0
            },
            {
                "start_time": 48.0090909,
                "end_time": 48.3727273,
                "pitch": 62,
                "velocity": 64,
                "duration": 0.3636364,
                "tempo": 120.0
            },
            {
                "start_time": 48.3886364,
                "end_time": 48.7204545,
                "pitch": 62,
                "velocity": 64,
                "duration": 0.3318182,
                "tempo": 120.0
            },
            {
                "start_time": 48.7363636,
                "end_time": 48.9795455,
                "pitch": 67,
                "velocity": 64,
                "duration": 0.2431818,
                "tempo": 120.0
            },
            {
                "start_time": 48.9954545,
                "end_time": 49.2386364,
                "pitch": 66,
                "velocity": 64,
                "duration": 0.2431818,
                "tempo": 120.0
            },
            {
                "start_time": 49.2568182,
                "end_time": 49.4909091,
                "pitch": 72,
                "velocity": 64,
                "duration": 0.2340909,
                "tempo": 120.0
            },
            {
                "start_time": 49.5068182,
                "end_time": 49.7409091,
                "pitch": 74,
                "velocity": 64,
                "duration": 0.2340909,
                "tempo": 120.0
            }
        ],
        "Lead 2 (sawtooth)": [
            {
                "start_time": 0.0204545,
                "end_time": 0.3136364,
                "pitch": 66,
                "velocity": 64,
                "duration": 0.2931818,
                "tempo": 120.0
            },
            {
                "start_time": 0.3318182,
                "end_time": 0.4318182,
                "pitch": 66,
                "velocity": 64,
                "duration": 0.1,
                "tempo": 120.0
            },
            {
                "start_time": 0.6977273,
                "end_time": 0.8181818,
                "pitch": 66,
                "velocity": 64,
                "duration": 0.1204545,
                "tempo": 120.0
            },
            {
                "start_time": 1.2113636,
                "end_time": 1.4431818,
                "pitch": 64,
                "velocity": 64,
                "duration": 0.2318182,
                "tempo": 120.0
            },
            {
                "start_time": 1.4613636,
                "end_time": 1.6931818,
                "pitch": 66,
                "velocity": 64,
                "duration": 0.2318182,
                "tempo": 120.0
            },
            {
                "start_time": 1.9613636,
                "end_time": 2.0772727,
                "pitch": 62,
                "velocity": 64,
                "duration": 0.1159091,
                "tempo": 120.0
            },
            {
                "start_time": 2.0931818,
                "end_time": 2.3295455,
                "pitch": 62,
                "velocity": 64,
                "duration": 0.2363636,
                "tempo": 120.0
            },
            {
                "start_time": 2.3477273,
                "end_time": 2.45,
                "pitch": 66,
                "velocity": 64,
                "duration": 0.1022727,
                "tempo": 120.0
            },
            {
                "start_time": 2.4659091,
                "end_time": 2.7068182,
                "pitch": 60,
                "velocity": 64,
                "duration": 0.2409091,
                "tempo": 120.0
            },
            {
                "start_time": 2.7227273,
                "end_time": 2.9568182,
                "pitch": 64,
                "velocity": 64,
                "duration": 0.2340909,
                "tempo": 120.0
            },
            {
                "start_time": 2.9727273,
                "end_time": 3.2068182,
                "pitch": 62,
                "velocity": 64,
                "duration": 0.2340909,
                "tempo": 120.0
            },
            {
                "start_time": 3.2227273,
                "end_time": 3.3431818,
                "pitch": 66,
                "velocity": 64,
                "duration": 0.1204545,
                "tempo": 120.0
            },
            {
                "start_time": 3.3590909,
                "end_time": 3.7181818,
                "pitch": 60,
                "velocity": 64,
                "duration": 0.3590909,
                "tempo": 120.0
            },
            {
                "start_time": 3.7363636,
                "end_time": 3.9659091,
                "pitch": 64,
                "velocity": 64,
                "duration": 0.2295455,
                "tempo": 120.0
            },
            {
                "start_time": 4.2272727,
                "end_time": 4.3431818,
                "pitch": 66,
                "velocity": 64,
                "duration": 0.1159091,
                "tempo": 120.0
            },
            {
                "start_time": 4.3613636,
                "end_time": 4.4613636,
                "pitch": 66,
                "velocity": 64,
                "duration": 0.1,
                "tempo": 120.0
            },
            {
                "start_time": 4.4772727,
                "end_time": 4.5931818,
                "pitch": 66,
                "velocity": 64,
                "duration": 0.1159091,
                "tempo": 120.0
            },
            {
                "start_time": 4.6113636,
                "end_time": 4.9613636,
                "pitch": 66,
                "velocity": 64,
                "duration": 0.35,
                "tempo": 120.0
            },
            {
                "start_time": 4.9772727,
                "end_time": 5.0931818,
                "pitch": 66,
                "velocity": 64,
                "duration": 0.1159091,
                "tempo": 120.0
            },
            {
                "start_time": 5.1113636,
                "end_time": 5.2113636,
                "pitch": 66,
                "velocity": 64,
                "duration": 0.1,
                "tempo": 120.0
            },
            {
                "start_time": 5.2272727,
                "end_time": 5.3431818,
                "pitch": 66,
                "velocity": 64,
                "duration": 0.1159091,
                "tempo": 120.0
            },
            {
                "start_time": 5.3613636,
                "end_time": 5.4613636,
                "pitch": 66,
                "velocity": 64,
                "duration": 0.1,
                "tempo": 120.0
            },
            {
                "start_time": 5.9772727,
                "end_time": 6.0931818,
                "pitch": 62,
                "velocity": 64,
                "duration": 0.1159091,
                "tempo": 120.0
            },
            {
                "start_time": 6.1113636,
                "end_time": 6.3431818,
                "pitch": 62,
                "velocity": 64,
                "duration": 0.2318182,
                "tempo": 120.0
            },
            {
                "start_time": 6.3613636,
                "end_time": 6.4613636,
                "pitch": 66,
                "velocity": 64,
                "duration": 0.1,
                "tempo": 120.0
            },
            {
                "start_time": 6.4772727,
                "end_time": 6.7113636,
                "pitch": 60,
                "velocity": 64,
                "duration": 0.2340909,
                "tempo": 120.0
            },
            {
                "start_time": 6.7272727,
                "end_time": 6.9613636,
                "pitch": 64,
                "velocity": 64,
                "duration": 0.2340909,
                "tempo": 120.0
            },
            {
                "start_time": 6.9772727,
                "end_time": 7.2113636,
                "pitch": 62,
                "velocity": 64,
                "duration": 0.2340909,
                "tempo": 120.0
            },
            {
                "start_time": 7.2272727,
                "end_time": 7.3431818,
                "pitch": 66,
                "velocity": 64,
                "duration": 0.1159091,
                "tempo": 120.0
            },
            {
                "start_time": 7.3613636,
                "end_time": 7.7113636,
                "pitch": 60,
                "velocity": 64,
                "duration": 0.35,
                "tempo": 120.0
            },
            {
                "start_time": 7.7272727,
                "end_time": 7.9613636,
                "pitch": 64,
                "velocity": 64,
                "duration": 0.2340909,
                "tempo": 120.0
            },
            {
                "start_time": 8.2272727,
                "end_time": 8.3431818,
                "pitch": 66,
                "velocity": 64,
                "duration": 0.1159091,
                "tempo": 120.0
            },
            {
                "start_time": 8.3613636,
                "end_time": 8.4613636,
                "pitch": 66,
                "velocity": 64,
                "duration": 0.1,
                "tempo": 120.0
            },
            {
                "start_time": 8.4772727,
                "end_time": 8.5931818,
                "pitch": 66,
                "velocity": 64,
                "duration": 0.1159091,
                "tempo": 120.0
            },
            {
                "start_time": 8.6113636,
                "end_time": 8.9613636,
                "pitch": 66,
                "velocity": 64,
                "duration": 0.35,
                "tempo": 120.0
            },
            {
                "start_time": 8.9772727,
                "end_time": 9.0931818,
                "pitch": 66,
                "velocity": 64,
                "duration": 0.1159091,
                "tempo": 120.0
            },
            {
                "start_time": 9.1113636,
                "end_time": 9.2113636,
                "pitch": 66,
                "velocity": 64,
                "duration": 0.1,
                "tempo": 120.0
            },
            {
                "start_time": 9.2272727,
                "end_time": 9.3431818,
                "pitch": 66,
                "velocity": 64,
                "duration": 0.1159091,
                "tempo": 120.0
            },
            {
                "start_time": 9.3613636,
                "end_time": 9.4613636,
                "pitch": 66,
                "velocity": 64,
                "duration": 0.1,
                "tempo": 120.0
            },
            {
                "start_time": 9.9772727,
                "end_time": 10.0931818,
                "pitch": 67,
                "velocity": 64,
                "duration": 0.1159091,
                "tempo": 120.0
            },
            {
                "start_time": 10.1113636,
                "end_time": 10.3431818,
                "pitch": 67,
                "velocity": 64,
                "duration": 0.2318182,
                "tempo": 120.0
            },
            {
                "start_time": 10.3613636,
                "end_time": 10.4613636,
                "pitch": 71,
                "velocity": 64,
                "duration": 0.1,
                "tempo": 120.0
            },
            {
                "start_time": 10.4772727,
                "end_time": 10.7113636,
                "pitch": 65,
                "velocity": 64,
                "duration": 0.2340909,
                "tempo": 120.0
            },
            {
                "start_time": 10.7272727,
                "end_time": 10.9613636,
                "pitch": 69,
                "velocity": 64,
                "duration": 0.2340909,
                "tempo": 120.0
            },
            {
                "start_time": 10.9772727,
                "end_time": 11.2113636,
                "pitch": 67,
                "velocity": 64,
                "duration": 0.2340909,
                "tempo": 120.0
            },
            {
                "start_time": 11.2272727,
                "end_time": 11.3431818,
                "pitch": 71,
                "velocity": 64,
                "duration": 0.1159091,
                "tempo": 120.0
            },
            {
                "start_time": 11.3613636,
                "end_time": 11.7113636,
                "pitch": 65,
                "velocity": 64,
                "duration": 0.35,
                "tempo": 120.0
            },
            {
                "start_time": 11.7272727,
                "end_time": 11.9613636,
                "pitch": 69,
                "velocity": 64,
                "duration": 0.2340909,
                "tempo": 120.0
            },
            {
                "start_time": 12.2272727,
                "end_time": 12.3431818,
                "pitch": 65,
                "velocity": 64,
                "duration": 0.1159091,
                "tempo": 120.0
            },
            {
                "start_time": 12.3613636,
                "end_time": 12.4613636,
                "pitch": 65,
                "velocity": 64,
                "duration": 0.1,
                "tempo": 120.0
            },
            {
                "start_time": 12.4772727,
                "end_time": 12.5931818,
                "pitch": 65,
                "velocity": 64,
                "duration": 0.1159091,
                "tempo": 120.0
            },
            {
                "start_time": 12.6113636,
                "end_time": 12.9613636,
                "pitch": 65,
                "velocity": 64,
                "duration": 0.35,
                "tempo": 120.0
            },
            {
                "start_time": 12.9772727,
                "end_time": 13.0931818,
                "pitch": 65,
                "velocity": 64,
                "duration": 0.1159091,
                "tempo": 120.0
            },
            {
                "start_time": 13.1113636,
                "end_time": 13.2113636,
                "pitch": 65,
                "velocity": 64,
                "duration": 0.1,
                "tempo": 120.0
            },
            {
                "start_time": 13.2272727,
                "end_time": 13.3431818,
                "pitch": 65,
                "velocity": 64,
                "duration": 0.1159091,
                "tempo": 120.0
            },
            {
                "start_time": 13.3613636,
                "end_time": 13.4613636,
                "pitch": 65,
                "velocity": 64,
                "duration": 0.1,
                "tempo": 120.0
            },
            {
                "start_time": 13.9772727,
                "end_time": 14.0931818,
                "pitch": 67,
                "velocity": 64,
                "duration": 0.1159091,
                "tempo": 120.0
            },
            {
                "start_time": 14.1113636,
                "end_time": 14.3431818,
                "pitch": 67,
                "velocity": 64,
                "duration": 0.2318182,
                "tempo": 120.0
            },
            {
                "start_time": 14.3613636,
                "end_time": 14.4613636,
                "pitch": 71,
                "velocity": 64,
                "duration": 0.1,
                "tempo": 120.0
            },
            {
                "start_time": 14.4772727,
                "end_time": 14.7113636,
                "pitch": 65,
                "velocity": 64,
                "duration": 0.2340909,
                "tempo": 120.0
            },
            {
                "start_time": 14.7272727,
                "end_time": 14.9613636,
                "pitch": 69,
                "velocity": 64,
                "duration": 0.2340909,
                "tempo": 120.0
            },
            {
                "start_time": 14.9772727,
                "end_time": 15.2113636,
                "pitch": 67,
                "velocity": 64,
                "duration": 0.2340909,
                "tempo": 120.0
            },
            {
                "start_time": 15.2272727,
                "end_time": 15.3431818,
                "pitch": 71,
                "velocity": 64,
                "duration": 0.1159091,
                "tempo": 120.0
            },
            {
                "start_time": 15.3613636,
                "end_time": 15.7113636,
                "pitch": 65,
                "velocity": 64,
                "duration": 0.35,
                "tempo": 120.0
            },
            {
                "start_time": 15.7272727,
                "end_time": 15.9613636,
                "pitch": 69,
                "velocity": 64,
                "duration": 0.2340909,
                "tempo": 120.0
            },
            {
                "start_time": 16.2272727,
                "end_time": 16.3431818,
                "pitch": 65,
                "velocity": 64,
                "duration": 0.1159091,
                "tempo": 120.0
            },
            {
                "start_time": 16.3613636,
                "end_time": 16.4613636,
                "pitch": 65,
                "velocity": 64,
                "duration": 0.1,
                "tempo": 120.0
            },
            {
                "start_time": 16.4772727,
                "end_time": 16.5931818,
                "pitch": 65,
                "velocity": 64,
                "duration": 0.1159091,
                "tempo": 120.0
            },
            {
                "start_time": 16.6113636,
                "end_time": 16.9613636,
                "pitch": 65,
                "velocity": 64,
                "duration": 0.35,
                "tempo": 120.0
            },
            {
                "start_time": 16.9772727,
                "end_time": 17.0931818,
                "pitch": 65,
                "velocity": 64,
                "duration": 0.1159091,
                "tempo": 120.0
            },
            {
                "start_time": 17.1113636,
                "end_time": 17.2113636,
                "pitch": 65,
                "velocity": 64,
                "duration": 0.1,
                "tempo": 120.0
            },
            {
                "start_time": 17.2272727,
                "end_time": 17.3477273,
                "pitch": 65,
                "velocity": 64,
                "duration": 0.1204545,
                "tempo": 120.0
            },
            {
                "start_time": 17.3636364,
                "end_time": 17.4659091,
                "pitch": 65,
                "velocity": 64,
                "duration": 0.1022727,
                "tempo": 120.0
            },
            {
                "start_time": 17.9863636,
                "end_time": 18.1,
                "pitch": 62,
                "velocity": 64,
                "duration": 0.1136364,
                "tempo": 120.0
            },
            {
                "start_time": 18.1181818,
                "end_time": 18.3477273,
                "pitch": 62,
                "velocity": 64,
                "duration": 0.2295455,
                "tempo": 120.0
            },
            {
                "start_time": 18.3659091,
                "end_time": 18.4659091,
                "pitch": 66,
                "velocity": 64,
                "duration": 0.1,
                "tempo": 120.0
            },
            {
                "start_time": 18.4818182,
                "end_time": 18.7159091,
                "pitch": 60,
                "velocity": 64,
                "duration": 0.2340909,
                "tempo": 120.0
            },
            {
                "start_time": 18.7318182,
                "end_time": 18.9659091,
                "pitch": 64,
                "velocity": 64,
                "duration": 0.2340909,
                "tempo": 120.0
            },
            {
                "start_time": 18.9818182,
                "end_time": 19.2159091,
                "pitch": 62,
                "velocity": 64,
                "duration": 0.2340909,
                "tempo": 120.0
            },
            {
                "start_time": 19.2318182,
                "end_time": 19.3477273,
                "pitch": 66,
                "velocity": 64,
                "duration": 0.1159091,
                "tempo": 120.0
            },
            {
                "start_time": 19.3659091,
                "end_time": 19.7159091,
                "pitch": 60,
                "velocity": 64,
                "duration": 0.35,
                "tempo": 120.0
            },
            {
                "start_time": 19.7318182,
                "end_time": 19.9659091,
                "pitch": 64,
                "velocity": 64,
                "duration": 0.2340909,
                "tempo": 120.0
            },
            {
                "start_time": 20.2318182,
                "end_time": 20.3477273,
                "pitch": 66,
                "velocity": 64,
                "duration": 0.1159091,
                "tempo": 120.0
            },
            {
                "start_time": 20.3659091,
                "end_time": 20.4659091,
                "pitch": 66,
                "velocity": 64,
                "duration": 0.1,
                "tempo": 120.0
            },
            {
                "start_time": 20.4818182,
                "end_time": 20.5977273,
                "pitch": 66,
                "velocity": 64,
                "duration": 0.1159091,
                "tempo": 120.0
            },
            {
                "start_time": 20.6159091,
                "end_time": 20.9659091,
                "pitch": 66,
                "velocity": 64,
                "duration": 0.35,
                "tempo": 120.0
            },
            {
                "start_time": 20.9818182,
                "end_time": 21.0977273,
                "pitch": 66,
                "velocity": 64,
                "duration": 0.1159091,
                "tempo": 120.0
            },
            {
                "start_time": 21.1159091,
                "end_time": 21.2159091,
                "pitch": 66,
                "velocity": 64,
                "duration": 0.1,
                "tempo": 120.0
            },
            {
                "start_time": 21.2318182,
                "end_time": 21.3477273,
                "pitch": 66,
                "velocity": 64,
                "duration": 0.1159091,
                "tempo": 120.0
            },
            {
                "start_time": 21.3659091,
                "end_time": 21.4659091,
                "pitch": 66,
                "velocity": 64,
                "duration": 0.1,
                "tempo": 120.0
            },
            {
                "start_time": 21.9818182,
                "end_time": 22.0977273,
                "pitch": 62,
                "velocity": 64,
                "duration": 0.1159091,
                "tempo": 120.0
            },
            {
                "start_time": 22.1159091,
                "end_time": 22.3477273,
                "pitch": 62,
                "velocity": 64,
                "duration": 0.2318182,
                "tempo": 120.0
            },
            {
                "start_time": 22.3659091,
                "end_time": 22.4659091,
                "pitch": 66,
                "velocity": 64,
                "duration": 0.1,
                "tempo": 120.0
            },
            {
                "start_time": 22.4818182,
                "end_time": 22.7159091,
                "pitch": 60,
                "velocity": 64,
                "duration": 0.2340909,
                "tempo": 120.0
            },
            {
                "start_time": 22.7318182,
                "end_time": 22.9659091,
                "pitch": 64,
                "velocity": 64,
                "duration": 0.2340909,
                "tempo": 120.0
            },
            {
                "start_time": 22.9818182,
                "end_time": 23.2159091,
                "pitch": 62,
                "velocity": 64,
                "duration": 0.2340909,
                "tempo": 120.0
            },
            {
                "start_time": 23.2318182,
                "end_time": 23.35,
                "pitch": 66,
                "velocity": 64,
                "duration": 0.1181818,
                "tempo": 120.0
            },
            {
                "start_time": 23.3681818,
                "end_time": 23.7272727,
                "pitch": 60,
                "velocity": 64,
                "duration": 0.3590909,
                "tempo": 120.0
            },
            {
                "start_time": 23.7431818,
                "end_time": 23.975,
                "pitch": 64,
                "velocity": 64,
                "duration": 0.2318182,
                "tempo": 120.0
            },
            {
                "start_time": 24.2363636,
                "end_time": 24.3522727,
                "pitch": 66,
                "velocity": 64,
                "duration": 0.1159091,
                "tempo": 120.0
            },
            {
                "start_time": 24.3704545,
                "end_time": 24.4704545,
                "pitch": 66,
                "velocity": 64,
                "duration": 0.1,
                "tempo": 120.0
            },
            {
                "start_time": 24.4863636,
                "end_time": 24.6022727,
                "pitch": 66,
                "velocity": 64,
                "duration": 0.1159091,
                "tempo": 120.0
            },
            {
                "start_time": 24.6204545,
                "end_time": 24.9704545,
                "pitch": 66,
                "velocity": 64,
                "duration": 0.35,
                "tempo": 120.0
            },
            {
                "start_time": 24.9863636,
                "end_time": 25.1022727,
                "pitch": 66,
                "velocity": 64,
                "duration": 0.1159091,
                "tempo": 120.0
            },
            {
                "start_time": 25.1204545,
                "end_time": 25.2204545,
                "pitch": 66,
                "velocity": 64,
                "duration": 0.1,
                "tempo": 120.0
            },
            {
                "start_time": 25.2363636,
                "end_time": 25.3522727,
                "pitch": 66,
                "velocity": 64,
                "duration": 0.1159091,
                "tempo": 120.0
            },
            {
                "start_time": 25.3704545,
                "end_time": 25.4704545,
                "pitch": 66,
                "velocity": 64,
                "duration": 0.1,
                "tempo": 120.0
            },
            {
                "start_time": 25.9863636,
                "end_time": 26.1022727,
                "pitch": 67,
                "velocity": 64,
                "duration": 0.1159091,
                "tempo": 120.0
            },
            {
                "start_time": 26.1204545,
                "end_time": 26.3522727,
                "pitch": 67,
                "velocity": 64,
                "duration": 0.2318182,
                "tempo": 120.0
            },
            {
                "start_time": 26.3704545,
                "end_time": 26.4704545,
                "pitch": 71,
                "velocity": 64,
                "duration": 0.1,
                "tempo": 120.0
            },
            {
                "start_time": 26.4863636,
                "end_time": 26.7204545,
                "pitch": 65,
                "velocity": 64,
                "duration": 0.2340909,
                "tempo": 120.0
            },
            {
                "start_time": 26.7363636,
                "end_time": 26.9704545,
                "pitch": 69,
                "velocity": 64,
                "duration": 0.2340909,
                "tempo": 120.0
            },
            {
                "start_time": 26.9863636,
                "end_time": 27.2204545,
                "pitch": 67,
                "velocity": 64,
                "duration": 0.2340909,
                "tempo": 120.0
            },
            {
                "start_time": 27.2363636,
                "end_time": 27.3522727,
                "pitch": 71,
                "velocity": 64,
                "duration": 0.1159091,
                "tempo": 120.0
            },
            {
                "start_time": 27.3704545,
                "end_time": 27.7204545,
                "pitch": 65,
                "velocity": 64,
                "duration": 0.35,
                "tempo": 120.0
            },
            {
                "start_time": 27.7363636,
                "end_time": 27.9704545,
                "pitch": 69,
                "velocity": 64,
                "duration": 0.2340909,
                "tempo": 120.0
            },
            {
                "start_time": 28.2363636,
                "end_time": 28.3522727,
                "pitch": 65,
                "velocity": 64,
                "duration": 0.1159091,
                "tempo": 120.0
            },
            {
                "start_time": 28.3704545,
                "end_time": 28.4704545,
                "pitch": 65,
                "velocity": 64,
                "duration": 0.1,
                "tempo": 120.0
            },
            {
                "start_time": 28.4863636,
                "end_time": 28.6022727,
                "pitch": 65,
                "velocity": 64,
                "duration": 0.1159091,
                "tempo": 120.0
            },
            {
                "start_time": 28.6204545,
                "end_time": 28.9704545,
                "pitch": 65,
                "velocity": 64,
                "duration": 0.35,
                "tempo": 120.0
            },
            {
                "start_time": 28.9863636,
                "end_time": 29.1022727,
                "pitch": 65,
                "velocity": 64,
                "duration": 0.1159091,
                "tempo": 120.0
            },
            {
                "start_time": 29.1204545,
                "end_time": 29.2204545,
                "pitch": 65,
                "velocity": 64,
                "duration": 0.1,
                "tempo": 120.0
            },
            {
                "start_time": 29.2363636,
                "end_time": 29.3522727,
                "pitch": 65,
                "velocity": 64,
                "duration": 0.1159091,
                "tempo": 120.0
            },
            {
                "start_time": 29.3704545,
                "end_time": 29.4704545,
                "pitch": 65,
                "velocity": 64,
                "duration": 0.1,
                "tempo": 120.0
            },
            {
                "start_time": 29.9863636,
                "end_time": 30.1022727,
                "pitch": 67,
                "velocity": 64,
                "duration": 0.1159091,
                "tempo": 120.0
            },
            {
                "start_time": 30.1204545,
                "end_time": 30.3522727,
                "pitch": 67,
                "velocity": 64,
                "duration": 0.2318182,
                "tempo": 120.0
            },
            {
                "start_time": 30.3704545,
                "end_time": 30.4704545,
                "pitch": 71,
                "velocity": 64,
                "duration": 0.1,
                "tempo": 120.0
            },
            {
                "start_time": 30.4863636,
                "end_time": 30.7204545,
                "pitch": 65,
                "velocity": 64,
                "duration": 0.2340909,
                "tempo": 120.0
            },
            {
                "start_time": 30.7363636,
                "end_time": 30.9704545,
                "pitch": 69,
                "velocity": 64,
                "duration": 0.2340909,
                "tempo": 120.0
            },
            {
                "start_time": 30.9863636,
                "end_time": 31.2204545,
                "pitch": 67,
                "velocity": 64,
                "duration": 0.2340909,
                "tempo": 120.0
            },
            {
                "start_time": 31.2363636,
                "end_time": 31.3522727,
                "pitch": 71,
                "velocity": 64,
                "duration": 0.1159091,
                "tempo": 120.0
            },
            {
                "start_time": 31.3704545,
                "end_time": 31.7204545,
                "pitch": 65,
                "velocity": 64,
                "duration": 0.35,
                "tempo": 120.0
            },
            {
                "start_time": 31.7363636,
                "end_time": 31.9704545,
                "pitch": 69,
                "velocity": 64,
                "duration": 0.2340909,
                "tempo": 120.0
            },
            {
                "start_time": 32.2363636,
                "end_time": 32.3522727,
                "pitch": 65,
                "velocity": 64,
                "duration": 0.1159091,
                "tempo": 120.0
            },
            {
                "start_time": 32.3704545,
                "end_time": 32.4704545,
                "pitch": 65,
                "velocity": 64,
                "duration": 0.1,
                "tempo": 120.0
            },
            {
                "start_time": 32.4863636,
                "end_time": 32.6022727,
                "pitch": 65,
                "velocity": 64,
                "duration": 0.1159091,
                "tempo": 120.0
            },
            {
                "start_time": 32.6204545,
                "end_time": 32.9704545,
                "pitch": 65,
                "velocity": 64,
                "duration": 0.35,
                "tempo": 120.0
            },
            {
                "start_time": 32.9863636,
                "end_time": 33.1022727,
                "pitch": 65,
                "velocity": 64,
                "duration": 0.1159091,
                "tempo": 120.0
            },
            {
                "start_time": 33.1204545,
                "end_time": 33.2204545,
                "pitch": 65,
                "velocity": 64,
                "duration": 0.1,
                "tempo": 120.0
            },
            {
                "start_time": 33.2363636,
                "end_time": 33.3522727,
                "pitch": 65,
                "velocity": 64,
                "duration": 0.1159091,
                "tempo": 120.0
            },
            {
                "start_time": 33.3704545,
                "end_time": 33.4704545,
                "pitch": 65,
                "velocity": 64,
                "duration": 0.1,
                "tempo": 120.0
            },
            {
                "start_time": 33.9863636,
                "end_time": 34.3522727,
                "pitch": 61,
                "velocity": 64,
                "duration": 0.3659091,
                "tempo": 120.0
            },
            {
                "start_time": 34.3704545,
                "end_time": 34.7204545,
                "pitch": 61,
                "velocity": 80,
                "duration": 0.35,
                "tempo": 120.0
            },
            {
                "start_time": 34.7363636,
                "end_time": 35.2204545,
                "pitch": 61,
                "velocity": 80,
                "duration": 0.4840909,
                "tempo": 120.0
            },
            {
                "start_time": 35.2363636,
                "end_time": 35.4704545,
                "pitch": 59,
                "velocity": 80,
                "duration": 0.2340909,
                "tempo": 120.0
            },
            {
                "start_time": 35.4863636,
                "end_time": 35.7204545,
                "pitch": 61,
                "velocity": 80,
                "duration": 0.2340909,
                "tempo": 120.0
            },
            {
                "start_time": 35.7363636,
                "end_time": 35.8522727,
                "pitch": 73,
                "velocity": 80,
                "duration": 0.1159091,
                "tempo": 120.0
            },
            {
                "start_time": 35.8704545,
                "end_time": 35.9704545,
                "pitch": 73,
                "velocity": 80,
                "duration": 0.1,
                "tempo": 120.0
            },
            {
                "start_time": 35.9863636,
                "end_time": 36.3477273,
                "pitch": 61,
                "velocity": 80,
                "duration": 0.3613636,
                "tempo": 120.0
            },
            {
                "start_time": 36.3636364,
                "end_time": 36.7,
                "pitch": 61,
                "velocity": 80,
                "duration": 0.3363636,
                "tempo": 120.0
            },
            {
                "start_time": 36.7159091,
                "end_time": 37.2204545,
                "pitch": 61,
                "velocity": 80,
                "duration": 0.5045455,
                "tempo": 120.0
            },
            {
                "start_time": 37.2363636,
                "end_time": 37.4704545,
                "pitch": 59,
                "velocity": 80,
                "duration": 0.2340909,
                "tempo": 120.0
            },
            {
                "start_time": 37.4863636,
                "end_time": 37.6045455,
                "pitch": 61,
                "velocity": 80,
                "duration": 0.1181818,
                "tempo": 120.0
            },
            {
                "start_time": 37.6204545,
                "end_time": 37.7204545,
                "pitch": 73,
                "velocity": 80,
                "duration": 0.1,
                "tempo": 120.0
            },
            {
                "start_time": 37.7363636,
                "end_time": 37.8545455,
                "pitch": 73,
                "velocity": 80,
                "duration": 0.1181818,
                "tempo": 120.0
            },
            {
                "start_time": 37.8704545,
                "end_time": 37.9704545,
                "pitch": 73,
                "velocity": 80,
                "duration": 0.1,
                "tempo": 120.0
            },
            {
                "start_time": 37.9863636,
                "end_time": 38.3545455,
                "pitch": 59,
                "velocity": 80,
                "duration": 0.3681818,
                "tempo": 120.0
            },
            {
                "start_time": 38.3704545,
                "end_time": 38.7204545,
                "pitch": 59,
                "velocity": 80,
                "duration": 0.35,
                "tempo": 120.0
            },
            {
                "start_time": 38.7363636,
                "end_time": 39.2204545,
                "pitch": 59,
                "velocity": 80,
                "duration": 0.4840909,
                "tempo": 120.0
            },
            {
                "start_time": 39.2363636,
                "end_time": 39.4704545,
                "pitch": 57,
                "velocity": 80,
                "duration": 0.2340909,
                "tempo": 120.0
            },
            {
                "start_time": 39.4863636,
                "end_time": 39.7204545,
                "pitch": 59,
                "velocity": 80,
                "duration": 0.2340909,
                "tempo": 120.0
            },
            {
                "start_time": 39.7363636,
                "end_time": 39.8545455,
                "pitch": 71,
                "velocity": 80,
                "duration": 0.1181818,
                "tempo": 120.0
            },
            {
                "start_time": 39.8704545,
                "end_time": 39.9704545,
                "pitch": 71,
                "velocity": 80,
                "duration": 0.1,
                "tempo": 120.0
            },
            {
                "start_time": 39.9863636,
                "end_time": 40.3477273,
                "pitch": 59,
                "velocity": 80,
                "duration": 0.3613636,
                "tempo": 120.0
            },
            {
                "start_time": 40.3636364,
                "end_time": 40.7,
                "pitch": 59,
                "velocity": 80,
                "duration": 0.3363636,
                "tempo": 120.0
            },
            {
                "start_time": 40.7159091,
                "end_time": 41.2204545,
                "pitch": 59,
                "velocity": 80,
                "duration": 0.5045455,
                "tempo": 120.0
            },
            {
                "start_time": 41.2386364,
                "end_time": 41.4704545,
                "pitch": 57,
                "velocity": 80,
                "duration": 0.2318182,
                "tempo": 120.0
            },
            {
                "start_time": 41.4886364,
                "end_time": 41.6045455,
                "pitch": 59,
                "velocity": 80,
                "duration": 0.1159091,
                "tempo": 120.0
            },
            {
                "start_time": 41.6204545,
                "end_time": 41.7204545,
                "pitch": 71,
                "velocity": 80,
                "duration": 0.1,
                "tempo": 120.0
            },
            {
                "start_time": 41.7386364,
                "end_time": 41.8568182,
                "pitch": 71,
                "velocity": 80,
                "duration": 0.1181818,
                "tempo": 120.0
            },
            {
                "start_time": 41.875,
                "end_time": 41.9772727,
                "pitch": 71,
                "velocity": 80,
                "duration": 0.1022727,
                "tempo": 120.0
            },
            {
                "start_time": 41.9931818,
                "end_time": 42.3636364,
                "pitch": 61,
                "velocity": 80,
                "duration": 0.3704545,
                "tempo": 120.0
            },
            {
                "start_time": 42.3795455,
                "end_time": 42.7181818,
                "pitch": 61,
                "velocity": 80,
                "duration": 0.3386364,
                "tempo": 120.0
            },
            {
                "start_time": 42.7340909,
                "end_time": 43.2295455,
                "pitch": 61,
                "velocity": 80,
                "duration": 0.4954545,
                "tempo": 120.0
            },
            {
                "start_time": 43.2454545,
                "end_time": 43.4795455,
                "pitch": 59,
                "velocity": 80,
                "duration": 0.2340909,
                "tempo": 120.0
            },
            {
                "start_time": 43.4977273,
                "end_time": 43.7295455,
                "pitch": 61,
                "velocity": 80,
                "duration": 0.2318182,
                "tempo": 120.0
            },
            {
                "start_time": 43.7477273,
                "end_time": 43.8636364,
                "pitch": 73,
                "velocity": 80,
                "duration": 0.1159091,
                "tempo": 120.0
            },
            {
                "start_time": 43.8795455,
                "end_time": 43.9795455,
                "pitch": 73,
                "velocity": 80,
                "duration": 0.1,
                "tempo": 120.0
            },
            {
                "start_time": 43.9977273,
                "end_time": 44.3590909,
                "pitch": 61,
                "velocity": 80,
                "duration": 0.3613636,
                "tempo": 120.0
            },
            {
                "start_time": 44.375,
                "end_time": 44.7090909,
                "pitch": 61,
                "velocity": 80,
                "duration": 0.3340909,
                "tempo": 120.0
            },
            {
                "start_time": 44.7272727,
                "end_time": 45.2295455,
                "pitch": 61,
                "velocity": 80,
                "duration": 0.5022727,
                "tempo": 120.0
            },
            {
                "start_time": 45.2477273,
                "end_time": 45.4818182,
                "pitch": 59,
                "velocity": 80,
                "duration": 0.2340909,
                "tempo": 120.0
            },
            {
                "start_time": 45.4977273,
                "end_time": 45.6136364,
                "pitch": 61,
                "velocity": 80,
                "duration": 0.1159091,
                "tempo": 120.0
            },
            {
                "start_time": 45.6318182,
                "end_time": 45.7318182,
                "pitch": 73,
                "velocity": 80,
                "duration": 0.1,
                "tempo": 120.0
            },
            {
                "start_time": 45.7477273,
                "end_time": 45.8659091,
                "pitch": 73,
                "velocity": 80,
                "duration": 0.1181818,
                "tempo": 120.0
            },
            {
                "start_time": 45.8840909,
                "end_time": 45.9863636,
                "pitch": 73,
                "velocity": 80,
                "duration": 0.1022727,
                "tempo": 120.0
            },
            {
                "start_time": 46.0045455,
                "end_time": 46.375,
                "pitch": 64,
                "velocity": 80,
                "duration": 0.3704545,
                "tempo": 120.0
            },
            {
                "start_time": 46.3909091,
                "end_time": 46.7363636,
                "pitch": 64,
                "velocity": 80,
                "duration": 0.3454545,
                "tempo": 120.0
            },
            {
                "start_time": 46.7522727,
                "end_time": 47.2363636,
                "pitch": 64,
                "velocity": 80,
                "duration": 0.4840909,
                "tempo": 120.0
            },
            {
                "start_time": 47.2522727,
                "end_time": 47.4863636,
                "pitch": 64,
                "velocity": 80,
                "duration": 0.2340909,
                "tempo": 120.0
            },
            {
                "start_time": 47.5022727,
                "end_time": 47.7363636,
                "pitch": 64,
                "velocity": 80,
                "duration": 0.2340909,
                "tempo": 120.0
            },
            {
                "start_time": 47.7522727,
                "end_time": 47.8704545,
                "pitch": 67,
                "velocity": 80,
                "duration": 0.1181818,
                "tempo": 120.0
            },
            {
                "start_time": 47.8886364,
                "end_time": 47.9909091,
                "pitch": 67,
                "velocity": 80,
                "duration": 0.1022727,
                "tempo": 120.0
            },
            {
                "start_time": 48.0090909,
                "end_time": 48.3727273,
                "pitch": 74,
                "velocity": 80,
                "duration": 0.3636364,
                "tempo": 120.0
            },
            {
                "start_time": 48.3886364,
                "end_time": 48.7204545,
                "pitch": 74,
                "velocity": 80,
                "duration": 0.3318182,
                "tempo": 120.0
            },
            {
                "start_time": 48.7363636,
                "end_time": 49.2386364,
                "pitch": 74,
                "velocity": 80,
                "duration": 0.5022727,
                "tempo": 120.0
            },
            {
                "start_time": 49.2568182,
                "end_time": 49.4909091,
                "pitch": 76,
                "velocity": 80,
                "duration": 0.2340909,
                "tempo": 120.0
            },
            {
                "start_time": 49.5068182,
                "end_time": 49.7409091,
                "pitch": 78,
                "velocity": 80,
                "duration": 0.2340909,
                "tempo": 120.0
            }
        ],
        "Electric Guitar (clean)": [
            {
                "start_time": 0.0204545,
                "end_time": 0.3136364,
                "pitch": 38,
                "velocity": 51,
                "duration": 0.2931818,
                "tempo": 120.0
            },
            {
                "start_time": 0.3318182,
                "end_time": 0.4318182,
                "pitch": 38,
                "velocity": 51,
                "duration": 0.1,
                "tempo": 120.0
            },
            {
                "start_time": 0.6977273,
                "end_time": 0.8181818,
                "pitch": 38,
                "velocity": 51,
                "duration": 0.1204545,
                "tempo": 120.0
            },
            {
                "start_time": 1.2113636,
                "end_time": 1.4431818,
                "pitch": 36,
                "velocity": 51,
                "duration": 0.2318182,
                "tempo": 120.0
            },
            {
                "start_time": 1.4613636,
                "end_time": 1.6931818,
                "pitch": 38,
                "velocity": 51,
                "duration": 0.2318182,
                "tempo": 120.0
            },
            {
                "start_time": 1.9613636,
                "end_time": 2.1931818,
                "pitch": 38,
                "velocity": 51,
                "duration": 0.2318182,
                "tempo": 120.0
            },
            {
                "start_time": 2.2113636,
                "end_time": 2.45,
                "pitch": 38,
                "velocity": 51,
                "duration": 0.2386364,
                "tempo": 120.0
            },
            {
                "start_time": 2.4659091,
                "end_time": 2.7068182,
                "pitch": 33,
                "velocity": 51,
                "duration": 0.2409091,
                "tempo": 120.0
            },
            {
                "start_time": 2.7227273,
                "end_time": 2.8386364,
                "pitch": 38,
                "velocity": 51,
                "duration": 0.1159091,
                "tempo": 120.0
            },
            {
                "start_time": 2.8568182,
                "end_time": 3.0886364,
                "pitch": 36,
                "velocity": 51,
                "duration": 0.2318182,
                "tempo": 120.0
            },
            {
                "start_time": 3.1068182,
                "end_time": 3.2068182,
                "pitch": 36,
                "velocity": 51,
                "duration": 0.1,
                "tempo": 120.0
            },
            {
                "start_time": 3.2227273,
                "end_time": 3.4613636,
                "pitch": 36,
                "velocity": 51,
                "duration": 0.2386364,
                "tempo": 120.0
            },
            {
                "start_time": 3.4795455,
                "end_time": 3.7181818,
                "pitch": 33,
                "velocity": 51,
                "duration": 0.2386364,
                "tempo": 120.0
            },
            {
                "start_time": 3.7363636,
                "end_time": 3.9659091,
                "pitch": 36,
                "velocity": 51,
                "duration": 0.2295455,
                "tempo": 120.0
            },
            {
                "start_time": 3.9818182,
                "end_time": 4.2113636,
                "pitch": 38,
                "velocity": 51,
                "duration": 0.2295455,
                "tempo": 120.0
            },
            {
                "start_time": 4.2272727,
                "end_time": 4.4613636,
                "pitch": 38,
                "velocity": 51,
                "duration": 0.2340909,
                "tempo": 120.0
            },
            {
                "start_time": 4.4772727,
                "end_time": 4.7113636,
                "pitch": 33,
                "velocity": 51,
                "duration": 0.2340909,
                "tempo": 120.0
            },
            {
                "start_time": 4.7272727,
                "end_time": 4.8431818,
                "pitch": 38,
                "velocity": 51,
                "duration": 0.1159091,
                "tempo": 120.0
            },
            {
                "start_time": 4.8613636,
                "end_time": 5.0931818,
                "pitch": 36,
                "velocity": 51,
                "duration": 0.2318182,
                "tempo": 120.0
            },
            {
                "start_time": 5.1113636,
                "end_time": 5.2113636,
                "pitch": 36,
                "velocity": 51,
                "duration": 0.1,
                "tempo": 120.0
            },
            {
                "start_time": 5.2272727,
                "end_time": 5.4613636,
                "pitch": 36,
                "velocity": 51,
                "duration": 0.2340909,
                "tempo": 120.0
            },
            {
                "start_time": 5.4772727,
                "end_time": 5.7113636,
                "pitch": 33,
                "velocity": 51,
                "duration": 0.2340909,
                "tempo": 120.0
            },
            {
                "start_time": 5.7272727,
                "end_time": 5.9613636,
                "pitch": 36,
                "velocity": 51,
                "duration": 0.2340909,
                "tempo": 120.0
            },
            {
                "start_time": 5.9772727,
                "end_time": 6.2113636,
                "pitch": 38,
                "velocity": 51,
                "duration": 0.2340909,
                "tempo": 120.0
            },
            {
                "start_time": 6.2272727,
                "end_time": 6.4613636,
                "pitch": 38,
                "velocity": 51,
                "duration": 0.2340909,
                "tempo": 120.0
            },
            {
                "start_time": 6.4772727,
                "end_time": 6.7113636,
                "pitch": 33,
                "velocity": 51,
                "duration": 0.2340909,
                "tempo": 120.0
            },
            {
                "start_time": 6.7272727,
                "end_time": 6.8431818,
                "pitch": 38,
                "velocity": 51,
                "duration": 0.1159091,
                "tempo": 120.0
            },
            {
                "start_time": 6.8613636,
                "end_time": 7.0931818,
                "pitch": 36,
                "velocity": 51,
                "duration": 0.2318182,
                "tempo": 120.0
            },
            {
                "start_time": 7.1113636,
                "end_time": 7.2113636,
                "pitch": 36,
                "velocity": 51,
                "duration": 0.1,
                "tempo": 120.0
            },
            {
                "start_time": 7.2272727,
                "end_time": 7.4613636,
                "pitch": 36,
                "velocity": 51,
                "duration": 0.2340909,
                "tempo": 120.0
            },
            {
                "start_time": 7.4772727,
                "end_time": 7.7113636,
                "pitch": 33,
                "velocity": 51,
                "duration": 0.2340909,
                "tempo": 120.0
            },
            {
                "start_time": 7.7272727,
                "end_time": 7.9613636,
                "pitch": 36,
                "velocity": 51,
                "duration": 0.2340909,
                "tempo": 120.0
            },
            {
                "start_time": 7.9772727,
                "end_time": 8.2113636,
                "pitch": 38,
                "velocity": 51,
                "duration": 0.2340909,
                "tempo": 120.0
            },
            {
                "start_time": 8.2272727,
                "end_time": 8.4613636,
                "pitch": 38,
                "velocity": 51,
                "duration": 0.2340909,
                "tempo": 120.0
            },
            {
                "start_time": 8.4772727,
                "end_time": 8.7113636,
                "pitch": 33,
                "velocity": 51,
                "duration": 0.2340909,
                "tempo": 120.0
            },
            {
                "start_time": 8.7272727,
                "end_time": 8.8431818,
                "pitch": 38,
                "velocity": 51,
                "duration": 0.1159091,
                "tempo": 120.0
            },
            {
                "start_time": 8.8613636,
                "end_time": 9.0931818,
                "pitch": 36,
                "velocity": 51,
                "duration": 0.2318182,
                "tempo": 120.0
            },
            {
                "start_time": 9.1113636,
                "end_time": 9.2113636,
                "pitch": 36,
                "velocity": 51,
                "duration": 0.1,
                "tempo": 120.0
            },
            {
                "start_time": 9.2272727,
                "end_time": 9.4613636,
                "pitch": 38,
                "velocity": 51,
                "duration": 0.2340909,
                "tempo": 120.0
            },
            {
                "start_time": 9.4772727,
                "end_time": 9.7113636,
                "pitch": 40,
                "velocity": 51,
                "duration": 0.2340909,
                "tempo": 120.0
            },
            {
                "start_time": 9.7272727,
                "end_time": 9.9613636,
                "pitch": 41,
                "velocity": 51,
                "duration": 0.2340909,
                "tempo": 120.0
            },
            {
                "start_time": 9.9772727,
                "end_time": 10.2113636,
                "pitch": 43,
                "velocity": 51,
                "duration": 0.2340909,
                "tempo": 120.0
            },
            {
                "start_time": 10.2272727,
                "end_time": 10.4613636,
                "pitch": 43,
                "velocity": 51,
                "duration": 0.2340909,
                "tempo": 120.0
            },
            {
                "start_time": 10.4772727,
                "end_time": 10.7113636,
                "pitch": 38,
                "velocity": 51,
                "duration": 0.2340909,
                "tempo": 120.0
            },
            {
                "start_time": 10.7272727,
                "end_time": 10.8431818,
                "pitch": 43,
                "velocity": 51,
                "duration": 0.1159091,
                "tempo": 120.0
            },
            {
                "start_time": 10.8613636,
                "end_time": 11.0931818,
                "pitch": 41,
                "velocity": 51,
                "duration": 0.2318182,
                "tempo": 120.0
            },
            {
                "start_time": 11.1113636,
                "end_time": 11.2113636,
                "pitch": 41,
                "velocity": 51,
                "duration": 0.1,
                "tempo": 120.0
            },
            {
                "start_time": 11.2272727,
                "end_time": 11.4613636,
                "pitch": 41,
                "velocity": 51,
                "duration": 0.2340909,
                "tempo": 120.0
            },
            {
                "start_time": 11.4772727,
                "end_time": 11.7113636,
                "pitch": 38,
                "velocity": 51,
                "duration": 0.2340909,
                "tempo": 120.0
            },
            {
                "start_time": 11.7272727,
                "end_time": 11.9613636,
                "pitch": 41,
                "velocity": 51,
                "duration": 0.2340909,
                "tempo": 120.0
            },
            {
                "start_time": 11.9772727,
                "end_time": 12.2113636,
                "pitch": 43,
                "velocity": 51,
                "duration": 0.2340909,
                "tempo": 120.0
            },
            {
                "start_time": 12.2272727,
                "end_time": 12.4613636,
                "pitch": 43,
                "velocity": 51,
                "duration": 0.2340909,
                "tempo": 120.0
            },
            {
                "start_time": 12.4772727,
                "end_time": 12.7113636,
                "pitch": 38,
                "velocity": 51,
                "duration": 0.2340909,
                "tempo": 120.0
            },
            {
                "start_time": 12.7272727,
                "end_time": 12.8431818,
                "pitch": 43,
                "velocity": 51,
                "duration": 0.1159091,
                "tempo": 120.0
            },
            {
                "start_time": 12.8613636,
                "end_time": 13.0931818,
                "pitch": 41,
                "velocity": 51,
                "duration": 0.2318182,
                "tempo": 120.0
            },
            {
                "start_time": 13.1113636,
                "end_time": 13.2113636,
                "pitch": 41,
                "velocity": 51,
                "duration": 0.1,
                "tempo": 120.0
            },
            {
                "start_time": 13.2272727,
                "end_time": 13.4613636,
                "pitch": 41,
                "velocity": 51,
                "duration": 0.2340909,
                "tempo": 120.0
            },
            {
                "start_time": 13.4772727,
                "end_time": 13.7113636,
                "pitch": 38,
                "velocity": 51,
                "duration": 0.2340909,
                "tempo": 120.0
            },
            {
                "start_time": 13.7272727,
                "end_time": 13.9613636,
                "pitch": 41,
                "velocity": 51,
                "duration": 0.2340909,
                "tempo": 120.0
            },
            {
                "start_time": 13.9772727,
                "end_time": 14.2113636,
                "pitch": 43,
                "velocity": 51,
                "duration": 0.2340909,
                "tempo": 120.0
            },
            {
                "start_time": 14.2272727,
                "end_time": 14.4613636,
                "pitch": 43,
                "velocity": 51,
                "duration": 0.2340909,
                "tempo": 120.0
            },
            {
                "start_time": 14.4772727,
                "end_time": 14.7113636,
                "pitch": 38,
                "velocity": 51,
                "duration": 0.2340909,
                "tempo": 120.0
            },
            {
                "start_time": 14.7272727,
                "end_time": 14.8431818,
                "pitch": 43,
                "velocity": 51,
                "duration": 0.1159091,
                "tempo": 120.0
            },
            {
                "start_time": 14.8613636,
                "end_time": 15.0931818,
                "pitch": 41,
                "velocity": 51,
                "duration": 0.2318182,
                "tempo": 120.0
            },
            {
                "start_time": 15.1113636,
                "end_time": 15.2113636,
                "pitch": 41,
                "velocity": 51,
                "duration": 0.1,
                "tempo": 120.0
            },
            {
                "start_time": 15.2272727,
                "end_time": 15.4613636,
                "pitch": 41,
                "velocity": 51,
                "duration": 0.2340909,
                "tempo": 120.0
            },
            {
                "start_time": 15.4772727,
                "end_time": 15.7113636,
                "pitch": 38,
                "velocity": 51,
                "duration": 0.2340909,
                "tempo": 120.0
            },
            {
                "start_time": 15.7272727,
                "end_time": 15.9613636,
                "pitch": 41,
                "velocity": 51,
                "duration": 0.2340909,
                "tempo": 120.0
            },
            {
                "start_time": 15.9772727,
                "end_time": 16.2113636,
                "pitch": 43,
                "velocity": 51,
                "duration": 0.2340909,
                "tempo": 120.0
            },
            {
                "start_time": 16.2272727,
                "end_time": 16.4613636,
                "pitch": 43,
                "velocity": 51,
                "duration": 0.2340909,
                "tempo": 120.0
            },
            {
                "start_time": 16.4772727,
                "end_time": 16.7113636,
                "pitch": 38,
                "velocity": 51,
                "duration": 0.2340909,
                "tempo": 120.0
            },
            {
                "start_time": 16.7272727,
                "end_time": 16.8431818,
                "pitch": 43,
                "velocity": 51,
                "duration": 0.1159091,
                "tempo": 120.0
            },
            {
                "start_time": 16.8613636,
                "end_time": 17.0931818,
                "pitch": 41,
                "velocity": 51,
                "duration": 0.2318182,
                "tempo": 120.0
            },
            {
                "start_time": 17.1113636,
                "end_time": 17.2113636,
                "pitch": 41,
                "velocity": 51,
                "duration": 0.1,
                "tempo": 120.0
            },
            {
                "start_time": 17.2272727,
                "end_time": 17.4659091,
                "pitch": 41,
                "velocity": 51,
                "duration": 0.2386364,
                "tempo": 120.0
            },
            {
                "start_time": 17.4840909,
                "end_time": 17.7227273,
                "pitch": 40,
                "velocity": 51,
                "duration": 0.2386364,
                "tempo": 120.0
            },
            {
                "start_time": 17.7409091,
                "end_time": 17.9704545,
                "pitch": 38,
                "velocity": 51,
                "duration": 0.2295455,
                "tempo": 120.0
            },
            {
                "start_time": 17.9863636,
                "end_time": 18.2159091,
                "pitch": 38,
                "velocity": 51,
                "duration": 0.2295455,
                "tempo": 120.0
            },
            {
                "start_time": 18.2318182,
                "end_time": 18.4659091,
                "pitch": 38,
                "velocity": 51,
                "duration": 0.2340909,
                "tempo": 120.0
            },
            {
                "start_time": 18.4818182,
                "end_time": 18.7159091,
                "pitch": 33,
                "velocity": 51,
                "duration": 0.2340909,
                "tempo": 120.0
            },
            {
                "start_time": 18.7318182,
                "end_time": 18.8477273,
                "pitch": 38,
                "velocity": 51,
                "duration": 0.1159091,
                "tempo": 120.0
            },
            {
                "start_time": 18.8659091,
                "end_time": 19.0977273,
                "pitch": 36,
                "velocity": 51,
                "duration": 0.2318182,
                "tempo": 120.0
            },
            {
                "start_time": 19.1159091,
                "end_time": 19.2159091,
                "pitch": 36,
                "velocity": 51,
                "duration": 0.1,
                "tempo": 120.0
            },
            {
                "start_time": 19.2318182,
                "end_time": 19.4659091,
                "pitch": 36,
                "velocity": 51,
                "duration": 0.2340909,
                "tempo": 120.0
            },
            {
                "start_time": 19.4818182,
                "end_time": 19.7159091,
                "pitch": 33,
                "velocity": 51,
                "duration": 0.2340909,
                "tempo": 120.0
            },
            {
                "start_time": 19.7318182,
                "end_time": 19.9659091,
                "pitch": 36,
                "velocity": 51,
                "duration": 0.2340909,
                "tempo": 120.0
            },
            {
                "start_time": 19.9818182,
                "end_time": 20.2159091,
                "pitch": 38,
                "velocity": 51,
                "duration": 0.2340909,
                "tempo": 120.0
            },
            {
                "start_time": 20.2318182,
                "end_time": 20.4659091,
                "pitch": 38,
                "velocity": 51,
                "duration": 0.2340909,
                "tempo": 120.0
            },
            {
                "start_time": 20.4818182,
                "end_time": 20.7159091,
                "pitch": 33,
                "velocity": 51,
                "duration": 0.2340909,
                "tempo": 120.0
            },
            {
                "start_time": 20.7318182,
                "end_time": 20.8477273,
                "pitch": 38,
                "velocity": 51,
                "duration": 0.1159091,
                "tempo": 120.0
            },
            {
                "start_time": 20.8659091,
                "end_time": 21.0977273,
                "pitch": 36,
                "velocity": 51,
                "duration": 0.2318182,
                "tempo": 120.0
            },
            {
                "start_time": 21.1159091,
                "end_time": 21.2159091,
                "pitch": 36,
                "velocity": 51,
                "duration": 0.1,
                "tempo": 120.0
            },
            {
                "start_time": 21.2318182,
                "end_time": 21.4659091,
                "pitch": 36,
                "velocity": 51,
                "duration": 0.2340909,
                "tempo": 120.0
            },
            {
                "start_time": 21.4818182,
                "end_time": 21.7159091,
                "pitch": 33,
                "velocity": 51,
                "duration": 0.2340909,
                "tempo": 120.0
            },
            {
                "start_time": 21.7318182,
                "end_time": 21.9659091,
                "pitch": 36,
                "velocity": 51,
                "duration": 0.2340909,
                "tempo": 120.0
            },
            {
                "start_time": 21.9818182,
                "end_time": 22.2159091,
                "pitch": 38,
                "velocity": 51,
                "duration": 0.2340909,
                "tempo": 120.0
            },
            {
                "start_time": 22.2318182,
                "end_time": 22.4659091,
                "pitch": 38,
                "velocity": 51,
                "duration": 0.2340909,
                "tempo": 120.0
            },
            {
                "start_time": 22.4818182,
                "end_time": 22.7159091,
                "pitch": 33,
                "velocity": 51,
                "duration": 0.2340909,
                "tempo": 120.0
            },
            {
                "start_time": 22.7318182,
                "end_time": 22.8477273,
                "pitch": 38,
                "velocity": 51,
                "duration": 0.1159091,
                "tempo": 120.0
            },
            {
                "start_time": 22.8659091,
                "end_time": 23.0977273,
                "pitch": 36,
                "velocity": 51,
                "duration": 0.2318182,
                "tempo": 120.0
            },
            {
                "start_time": 23.1159091,
                "end_time": 23.2159091,
                "pitch": 36,
                "velocity": 51,
                "duration": 0.1,
                "tempo": 120.0
            },
            {
                "start_time": 23.2318182,
                "end_time": 23.4704545,
                "pitch": 36,
                "velocity": 51,
                "duration": 0.2386364,
                "tempo": 120.0
            },
            {
                "start_time": 23.4886364,
                "end_time": 23.7272727,
                "pitch": 33,
                "velocity": 51,
                "duration": 0.2386364,
                "tempo": 120.0
            },
            {
                "start_time": 23.7431818,
                "end_time": 23.975,
                "pitch": 36,
                "velocity": 51,
                "duration": 0.2318182,
                "tempo": 120.0
            },
            {
                "start_time": 23.9909091,
                "end_time": 24.2204545,
                "pitch": 38,
                "velocity": 51,
                "duration": 0.2295455,
                "tempo": 120.0
            },
            {
                "start_time": 24.2363636,
                "end_time": 24.4704545,
                "pitch": 38,
                "velocity": 51,
                "duration": 0.2340909,
                "tempo": 120.0
            },
            {
                "start_time": 24.4863636,
                "end_time": 24.7204545,
                "pitch": 33,
                "velocity": 51,
                "duration": 0.2340909,
                "tempo": 120.0
            },
            {
                "start_time": 24.7363636,
                "end_time": 24.8522727,
                "pitch": 38,
                "velocity": 51,
                "duration": 0.1159091,
                "tempo": 120.0
            },
            {
                "start_time": 24.8704545,
                "end_time": 25.1022727,
                "pitch": 36,
                "velocity": 51,
                "duration": 0.2318182,
                "tempo": 120.0
            },
            {
                "start_time": 25.1204545,
                "end_time": 25.2204545,
                "pitch": 36,
                "velocity": 51,
                "duration": 0.1,
                "tempo": 120.0
            },
            {
                "start_time": 25.2363636,
                "end_time": 25.4704545,
                "pitch": 38,
                "velocity": 51,
                "duration": 0.2340909,
                "tempo": 120.0
            },
            {
                "start_time": 25.4863636,
                "end_time": 25.7204545,
                "pitch": 40,
                "velocity": 51,
                "duration": 0.2340909,
                "tempo": 120.0
            },
            {
                "start_time": 25.7363636,
                "end_time": 25.9704545,
                "pitch": 41,
                "velocity": 51,
                "duration": 0.2340909,
                "tempo": 120.0
            },
            {
                "start_time": 25.9863636,
                "end_time": 26.2204545,
                "pitch": 43,
                "velocity": 51,
                "duration": 0.2340909,
                "tempo": 120.0
            },
            {
                "start_time": 26.2363636,
                "end_time": 26.4704545,
                "pitch": 43,
                "velocity": 51,
                "duration": 0.2340909,
                "tempo": 120.0
            },
            {
                "start_time": 26.4863636,
                "end_time": 26.7204545,
                "pitch": 38,
                "velocity": 51,
                "duration": 0.2340909,
                "tempo": 120.0
            },
            {
                "start_time": 26.7363636,
                "end_time": 26.8522727,
                "pitch": 43,
                "velocity": 51,
                "duration": 0.1159091,
                "tempo": 120.0
            },
            {
                "start_time": 26.8704545,
                "end_time": 27.1022727,
                "pitch": 41,
                "velocity": 51,
                "duration": 0.2318182,
                "tempo": 120.0
            },
            {
                "start_time": 27.1204545,
                "end_time": 27.2204545,
                "pitch": 41,
                "velocity": 51,
                "duration": 0.1,
                "tempo": 120.0
            },
            {
                "start_time": 27.2363636,
                "end_time": 27.4704545,
                "pitch": 41,
                "velocity": 51,
                "duration": 0.2340909,
                "tempo": 120.0
            },
            {
                "start_time": 27.4863636,
                "end_time": 27.7204545,
                "pitch": 38,
                "velocity": 51,
                "duration": 0.2340909,
                "tempo": 120.0
            },
            {
                "start_time": 27.7363636,
                "end_time": 27.9704545,
                "pitch": 41,
                "velocity": 51,
                "duration": 0.2340909,
                "tempo": 120.0
            },
            {
                "start_time": 27.9863636,
                "end_time": 28.2204545,
                "pitch": 43,
                "velocity": 51,
                "duration": 0.2340909,
                "tempo": 120.0
            },
            {
                "start_time": 28.2363636,
                "end_time": 28.4704545,
                "pitch": 43,
                "velocity": 51,
                "duration": 0.2340909,
                "tempo": 120.0
            },
            {
                "start_time": 28.4863636,
                "end_time": 28.7204545,
                "pitch": 38,
                "velocity": 51,
                "duration": 0.2340909,
                "tempo": 120.0
            },
            {
                "start_time": 28.7363636,
                "end_time": 28.8522727,
                "pitch": 43,
                "velocity": 51,
                "duration": 0.1159091,
                "tempo": 120.0
            },
            {
                "start_time": 28.8704545,
                "end_time": 29.1022727,
                "pitch": 41,
                "velocity": 51,
                "duration": 0.2318182,
                "tempo": 120.0
            },
            {
                "start_time": 29.1204545,
                "end_time": 29.2204545,
                "pitch": 41,
                "velocity": 51,
                "duration": 0.1,
                "tempo": 120.0
            },
            {
                "start_time": 29.2363636,
                "end_time": 29.4704545,
                "pitch": 41,
                "velocity": 51,
                "duration": 0.2340909,
                "tempo": 120.0
            },
            {
                "start_time": 29.4863636,
                "end_time": 29.7204545,
                "pitch": 38,
                "velocity": 51,
                "duration": 0.2340909,
                "tempo": 120.0
            },
            {
                "start_time": 29.7363636,
                "end_time": 29.9704545,
                "pitch": 41,
                "velocity": 51,
                "duration": 0.2340909,
                "tempo": 120.0
            },
            {
                "start_time": 29.9863636,
                "end_time": 30.2204545,
                "pitch": 43,
                "velocity": 51,
                "duration": 0.2340909,
                "tempo": 120.0
            },
            {
                "start_time": 30.2363636,
                "end_time": 30.4704545,
                "pitch": 43,
                "velocity": 51,
                "duration": 0.2340909,
                "tempo": 120.0
            },
            {
                "start_time": 30.4863636,
                "end_time": 30.7204545,
                "pitch": 38,
                "velocity": 51,
                "duration": 0.2340909,
                "tempo": 120.0
            },
            {
                "start_time": 30.7363636,
                "end_time": 30.8522727,
                "pitch": 43,
                "velocity": 51,
                "duration": 0.1159091,
                "tempo": 120.0
            },
            {
                "start_time": 30.8704545,
                "end_time": 31.1022727,
                "pitch": 41,
                "velocity": 51,
                "duration": 0.2318182,
                "tempo": 120.0
            },
            {
                "start_time": 31.1204545,
                "end_time": 31.2204545,
                "pitch": 41,
                "velocity": 51,
                "duration": 0.1,
                "tempo": 120.0
            },
            {
                "start_time": 31.2363636,
                "end_time": 31.4704545,
                "pitch": 41,
                "velocity": 51,
                "duration": 0.2340909,
                "tempo": 120.0
            },
            {
                "start_time": 31.4863636,
                "end_time": 31.7204545,
                "pitch": 38,
                "velocity": 51,
                "duration": 0.2340909,
                "tempo": 120.0
            },
            {
                "start_time": 31.7363636,
                "end_time": 31.9704545,
                "pitch": 41,
                "velocity": 51,
                "duration": 0.2340909,
                "tempo": 120.0
            },
            {
                "start_time": 31.9863636,
                "end_time": 32.2204545,
                "pitch": 43,
                "velocity": 51,
                "duration": 0.2340909,
                "tempo": 120.0
            },
            {
                "start_time": 32.2363636,
                "end_time": 32.4704545,
                "pitch": 43,
                "velocity": 51,
                "duration": 0.2340909,
                "tempo": 120.0
            },
            {
                "start_time": 32.4863636,
                "end_time": 32.7204545,
                "pitch": 38,
                "velocity": 51,
                "duration": 0.2340909,
                "tempo": 120.0
            },
            {
                "start_time": 32.7363636,
                "end_time": 32.8522727,
                "pitch": 43,
                "velocity": 51,
                "duration": 0.1159091,
                "tempo": 120.0
            },
            {
                "start_time": 32.8704545,
                "end_time": 33.1022727,
                "pitch": 41,
                "velocity": 51,
                "duration": 0.2318182,
                "tempo": 120.0
            },
            {
                "start_time": 33.1204545,
                "end_time": 33.2204545,
                "pitch": 41,
                "velocity": 51,
                "duration": 0.1,
                "tempo": 120.0
            },
            {
                "start_time": 33.2363636,
                "end_time": 33.4704545,
                "pitch": 41,
                "velocity": 51,
                "duration": 0.2340909,
                "tempo": 120.0
            },
            {
                "start_time": 33.4863636,
                "end_time": 33.7204545,
                "pitch": 40,
                "velocity": 51,
                "duration": 0.2340909,
                "tempo": 120.0
            },
            {
                "start_time": 33.7363636,
                "end_time": 33.9704545,
                "pitch": 38,
                "velocity": 51,
                "duration": 0.2340909,
                "tempo": 120.0
            },
            {
                "start_time": 33.9863636,
                "end_time": 34.3522727,
                "pitch": 33,
                "velocity": 51,
                "duration": 0.3659091,
                "tempo": 120.0
            },
            {
                "start_time": 34.3704545,
                "end_time": 34.7204545,
                "pitch": 33,
                "velocity": 64,
                "duration": 0.35,
                "tempo": 120.0
            },
            {
                "start_time": 34.7363636,
                "end_time": 35.2204545,
                "pitch": 33,
                "velocity": 64,
                "duration": 0.4840909,
                "tempo": 120.0
            },
            {
                "start_time": 35.2363636,
                "end_time": 35.4704545,
                "pitch": 31,
                "velocity": 64,
                "duration": 0.2340909,
                "tempo": 120.0
            },
            {
                "start_time": 35.4863636,
                "end_time": 35.9704545,
                "pitch": 33,
                "velocity": 64,
                "duration": 0.4840909,
                "tempo": 120.0
            },
            {
                "start_time": 35.9863636,
                "end_time": 36.3477273,
                "pitch": 33,
                "velocity": 64,
                "duration": 0.3613636,
                "tempo": 120.0
            },
            {
                "start_time": 36.3636364,
                "end_time": 36.7,
                "pitch": 33,
                "velocity": 64,
                "duration": 0.3363636,
                "tempo": 120.0
            },
            {
                "start_time": 36.7159091,
                "end_time": 37.2204545,
                "pitch": 33,
                "velocity": 64,
                "duration": 0.5045455,
                "tempo": 120.0
            },
            {
                "start_time": 37.2363636,
                "end_time": 37.4704545,
                "pitch": 31,
                "velocity": 64,
                "duration": 0.2340909,
                "tempo": 120.0
            },
            {
                "start_time": 37.4863636,
                "end_time": 37.9704545,
                "pitch": 33,
                "velocity": 64,
                "duration": 0.4840909,
                "tempo": 120.0
            },
            {
                "start_time": 37.9863636,
                "end_time": 38.3545455,
                "pitch": 31,
                "velocity": 64,
                "duration": 0.3681818,
                "tempo": 120.0
            },
            {
                "start_time": 38.3704545,
                "end_time": 38.7204545,
                "pitch": 31,
                "velocity": 64,
                "duration": 0.35,
                "tempo": 120.0
            },
            {
                "start_time": 38.7363636,
                "end_time": 39.2204545,
                "pitch": 31,
                "velocity": 64,
                "duration": 0.4840909,
                "tempo": 120.0
            },
            {
                "start_time": 39.2363636,
                "end_time": 39.4704545,
                "pitch": 29,
                "velocity": 64,
                "duration": 0.2340909,
                "tempo": 120.0
            },
            {
                "start_time": 39.4863636,
                "end_time": 39.9704545,
                "pitch": 31,
                "velocity": 64,
                "duration": 0.4840909,
                "tempo": 120.0
            },
            {
                "start_time": 39.9863636,
                "end_time": 40.3477273,
                "pitch": 31,
                "velocity": 64,
                "duration": 0.3613636,
                "tempo": 120.0
            },
            {
                "start_time": 40.3636364,
                "end_time": 40.7,
                "pitch": 31,
                "velocity": 64,
                "duration": 0.3363636,
                "tempo": 120.0
            },
            {
                "start_time": 40.7159091,
                "end_time": 41.2204545,
                "pitch": 31,
                "velocity": 64,
                "duration": 0.5045455,
                "tempo": 120.0
            },
            {
                "start_time": 41.2386364,
                "end_time": 41.4704545,
                "pitch": 29,
                "velocity": 64,
                "duration": 0.2318182,
                "tempo": 120.0
            },
            {
                "start_time": 41.4886364,
                "end_time": 41.9772727,
                "pitch": 31,
                "velocity": 64,
                "duration": 0.4886364,
                "tempo": 120.0
            },
            {
                "start_time": 41.9931818,
                "end_time": 42.3636364,
                "pitch": 33,
                "velocity": 64,
                "duration": 0.3704545,
                "tempo": 120.0
            },
            {
                "start_time": 42.3795455,
                "end_time": 42.7181818,
                "pitch": 33,
                "velocity": 64,
                "duration": 0.3386364,
                "tempo": 120.0
            },
            {
                "start_time": 42.7340909,
                "end_time": 43.2295455,
                "pitch": 33,
                "velocity": 64,
                "duration": 0.4954545,
                "tempo": 120.0
            },
            {
                "start_time": 43.2454545,
                "end_time": 43.4795455,
                "pitch": 31,
                "velocity": 64,
                "duration": 0.2340909,
                "tempo": 120.0
            },
            {
                "start_time": 43.4977273,
                "end_time": 43.9795455,
                "pitch": 33,
                "velocity": 64,
                "duration": 0.4818182,
                "tempo": 120.0
            },
            {
                "start_time": 43.9977273,
                "end_time": 44.3590909,
                "pitch": 33,
                "velocity": 64,
                "duration": 0.3613636,
                "tempo": 120.0
            },
            {
                "start_time": 44.375,
                "end_time": 44.7090909,
                "pitch": 33,
                "velocity": 64,
                "duration": 0.3340909,
                "tempo": 120.0
            },
            {
                "start_time": 44.7272727,
                "end_time": 45.2295455,
                "pitch": 33,
                "velocity": 64,
                "duration": 0.5022727,
                "tempo": 120.0
            },
            {
                "start_time": 45.2477273,
                "end_time": 45.4818182,
                "pitch": 31,
                "velocity": 64,
                "duration": 0.2340909,
                "tempo": 120.0
            },
            {
                "start_time": 45.4977273,
                "end_time": 45.9863636,
                "pitch": 33,
                "velocity": 64,
                "duration": 0.4886364,
                "tempo": 120.0
            },
            {
                "start_time": 46.0045455,
                "end_time": 46.375,
                "pitch": 36,
                "velocity": 64,
                "duration": 0.3704545,
                "tempo": 120.0
            },
            {
                "start_time": 46.3909091,
                "end_time": 46.7363636,
                "pitch": 36,
                "velocity": 64,
                "duration": 0.3454545,
                "tempo": 120.0
            },
            {
                "start_time": 46.7522727,
                "end_time": 47.2363636,
                "pitch": 36,
                "velocity": 64,
                "duration": 0.4840909,
                "tempo": 120.0
            },
            {
                "start_time": 47.2522727,
                "end_time": 47.4863636,
                "pitch": 34,
                "velocity": 64,
                "duration": 0.2340909,
                "tempo": 120.0
            },
            {
                "start_time": 47.5022727,
                "end_time": 47.7363636,
                "pitch": 36,
                "velocity": 64,
                "duration": 0.2340909,
                "tempo": 120.0
            },
            {
                "start_time": 47.7522727,
                "end_time": 47.9909091,
                "pitch": 36,
                "velocity": 64,
                "duration": 0.2386364,
                "tempo": 120.0
            },
            {
                "start_time": 48.0090909,
                "end_time": 48.3727273,
                "pitch": 38,
                "velocity": 64,
                "duration": 0.3636364,
                "tempo": 120.0
            },
            {
                "start_time": 48.3886364,
                "end_time": 48.7204545,
                "pitch": 38,
                "velocity": 64,
                "duration": 0.3318182,
                "tempo": 120.0
            },
            {
                "start_time": 48.7363636,
                "end_time": 49.2386364,
                "pitch": 38,
                "velocity": 64,
                "duration": 0.5022727,
                "tempo": 120.0
            },
            {
                "start_time": 49.2568182,
                "end_time": 49.4909091,
                "pitch": 36,
                "velocity": 64,
                "duration": 0.2340909,
                "tempo": 120.0
            },
            {
                "start_time": 49.5068182,
                "end_time": 49.7409091,
                "pitch": 38,
                "velocity": 64,
                "duration": 0.2340909,
                "tempo": 120.0
            }
        ]
    }
}