{
    "mood": "angry",
    "instruments": {
        "Acoustic Bass": [
            {
                "start_time": 4.8068182,
                "end_time": 4.8909091,
                "pitch": 36,
                "velocity": 64,
                "duration": 0.0840909,
                "tempo": 120.0
            },
            {
                "start_time": 4.9068182,
                "end_time": 4.9909091,
                "pitch": 36,
                "velocity": 64,
                "duration": 0.0840909,
                "tempo": 120.0
            },
            {
                "start_time": 5.0068182,
                "end_time": 5.0909091,
                "pitch": 36,
                "velocity": 64,
                "duration": 0.0840909,
                "tempo": 120.0
            },
            {
                "start_time": 5.1068182,
                "end_time": 5.1909091,
                "pitch": 36,
                "velocity": 64,
                "duration": 0.0840909,
                "tempo": 120.0
            },
            {
                "start_time": 5.2068182,
                "end_time": 5.2909091,
                "pitch": 38,
                "velocity": 64,
                "duration": 0.0840909,
                "tempo": 120.0
            },
            {
                "start_time": 5.3068182,
                "end_time": 5.3909091,
                "pitch": 39,
                "velocity": 64,
                "duration": 0.0840909,
                "tempo": 120.0
            },
            {
                "start_time": 5.4068182,
                "end_time": 5.4931818,
                "pitch": 36,
                "velocity": 64,
                "duration": 0.0863636,
                "tempo": 120.0
            },
            {
                "start_time": 5.5113636,
                "end_time": 5.5977273,
                "pitch": 36,
                "velocity": 64,
                "duration": 0.0863636,
                "tempo": 120.0
            },
            {
                "start_time": 5.6159091,
                "end_time": 5.7022727,
                "pitch": 36,
                "velocity": 64,
                "duration": 0.0863636,
                "tempo": 120.0
            },
            {
                "start_time": 5.7181818,
                "end_time": 5.8,
                "pitch": 36,
                "velocity": 64,
                "duration": 0.0818182,
                "tempo": 120.0
            },
            {
                "start_time": 5.8159091,
                "end_time": 5.8954545,
                "pitch": 38,
                "velocity": 64,
                "duration": 0.0795455,
                "tempo": 120.0
            },
            {
                "start_time": 5.9136364,
                "end_time": 5.9931818,
                "pitch": 39,
                "velocity": 64,
                "duration": 0.0795455,
                "tempo": 120.0
            },
            {
                "start_time": 6.0090909,
                "end_time": 6.0954545,
                "pitch": 36,
                "velocity": 64,
                "duration": 0.0863636,
                "tempo": 120.0
            },
            {
                "start_time": 6.1136364,
                "end_time": 6.2,
                "pitch": 36,
                "velocity": 64,
                "duration": 0.0863636,
                "tempo": 120.0
            },
            {
                "start_time": 6.2159091,
                "end_time": 6.3022727,
                "pitch": 36,
                "velocity": 64,
                "duration": 0.0863636,
                "tempo": 120.0
            },
            {
                "start_time": 6.3204545,
                "end_time": 6.4,
                "pitch": 36,
                "velocity": 64,
                "duration": 0.0795455,
                "tempo": 120.0
            },
            {
                "start_time": 6.4181818,
                "end_time": 6.4977273,
                "pitch": 38,
                "velocity": 64,
                "duration": 0.0795455,
                "tempo": 120.0
            },
            {
                "start_time": 6.5136364,
                "end_time": 6.5954545,
                "pitch": 39,
                "velocity": 64,
                "duration": 0.0818182,
                "tempo": 120.0
            },
            {
                "start_time": 6.6113636,
                "end_time": 6.6954545,
                "pitch": 43,
                "velocity": 64,
                "duration": 0.0840909,
                "tempo": 120.0
            },
            {
                "start_time": 6.7113636,
                "end_time": 6.7954545,
                "pitch": 41,
                "velocity": 64,
                "duration": 0.0840909,
                "tempo": 120.0
            },
            {
                "start_time": 6.8113636,
                "end_time": 6.8954545,
                "pitch": 39,
                "velocity": 64,
                "duration": 0.0840909,
                "tempo": 120.0
            },
            {
                "start_time": 6.9113636,
                "end_time": 6.9954545,
                "pitch": 41,
                "velocity": 64,
                "duration": 0.0840909,
                "tempo": 120.0
            },
            {
                "start_time": 7.0113636,
                "end_time": 7.0954545,
                "pitch": 39,
                "velocity": 64,
                "duration": 0.0840909,
                "tempo": 120.0
            },
            {
                "start_time": 7.1113636,
                "end_time": 7.1954545,
                "pitch": 38,
                "velocity": 64,
                "duration": 0.0840909,
                "tempo": 120.0
            },
            {
                "start_time": 7.2136364,
                "end_time": 7.2954545,
                "pitch": 36,
                "velocity": 64,
                "duration": 0.0818182,
                "tempo": 120.0
            },
            {
                "start_time": 7.3136364,
                "end_time": 7.3954545,
                "pitch": 36,
                "velocity": 64,
                "duration": 0.0818182,
                "tempo": 120.0
            },
            {
                "start_time": 7.4136364,
                "end_time": 7.4954545,
                "pitch": 36,
                "velocity": 64,
                "duration": 0.0818182,
                "tempo": 120.0
            },
            {
                "start_time": 7.5136364,
                "end_time": 7.5954545,
                "pitch": 36,
                "velocity": 64,
                "duration": 0.0818182,
                "tempo": 120.0
            },
            {
                "start_time": 7.6136364,
                "end_time": 7.6954545,
                "pitch": 38,
                "velocity": 64,
                "duration": 0.0818182,
                "tempo": 120.0
            },
            {
                "start_time": 7.7136364,
                "end_time": 7.7954545,
                "pitch": 39,
                "velocity": 64,
                "duration": 0.0818182,
                "tempo": 120.0
            },
            {
                "start_time": 7.8136364,
                "end_time": 7.8977273,
                "pitch": 36,
                "velocity": 64,
                "duration": 0.0840909,
                "tempo": 120.0
            },
            {
                "start_time": 7.9159091,
                "end_time": 8.0022727,
                "pitch": 36,
                "velocity": 64,
                "duration": 0.0863636,
                "tempo": 120.0
            },
            {
                "start_time": 8.0204545,
                "end_time": 8.1068182,
                "pitch": 36,
                "velocity": 64,
                "duration": 0.0863636,
                "tempo": 120.0
            },
            {
                "start_time": 8.1227273,
                "end_time": 8.2045455,
                "pitch": 36,
                "velocity": 64,
                "duration": 0.0818182,
                "tempo": 120.0
            },
            {
                "start_time": 8.2204545,
                "end_time": 8.3022727,
                "pitch": 38,
                "velocity": 64,
                "duration": 0.0818182,
                "tempo": 120.0
            },
            {
                "start_time": 8.3181818,
                "end_time": 8.3977273,
                "pitch": 39,
                "velocity": 64,
                "duration": 0.0795455,
                "tempo": 120.0
            },
            {
                "start_time": 8.4136364,
                "end_time": 8.5,
                "pitch": 36,
                "velocity": 64,
                "duration": 0.0863636,
                "tempo": 120.0
            },
            {
                "start_time": 8.5181818,
                "end_time": 8.6045455,
                "pitch": 36,
                "velocity": 64,
                "duration": 0.0863636,
                "tempo": 120.0
            },
            {
                "start_time": 8.6204545,
                "end_time": 8.7068182,
                "pitch": 36,
                "velocity": 64,
                "duration": 0.0863636,
                "tempo": 120.0
            },
            {
                "start_time": 8.725,
                "end_time": 8.8045455,
                "pitch": 36,
                "velocity": 64,
                "duration": 0.0795455,
                "tempo": 120.0
            },
            {
                "start_time": 8.8227273,
                "end_time": 8.9022727,
                "pitch": 38,
                "velocity": 64,
                "duration": 0.0795455,
                "tempo": 120.0
            },
            {
                "start_time": 8.9181818,
                "end_time": 9.0,
                "pitch": 39,
                "velocity": 64,
                "duration": 0.0818182,
                "tempo": 120.0
            },
            {
                "start_time": 9.0159091,
                "end_time": 9.1,
                "pitch": 43,
                "velocity": 64,
                "duration": 0.0840909,
                "tempo": 120.0
            },
            {
                "start_time": 9.1159091,
                "end_time": 9.2,
                "pitch": 41,
                "velocity": 64,
                "duration": 0.0840909,
                "tempo": 120.0
            },
            {
                "start_time": 9.2159091,
                "end_time": 9.3,
                "pitch": 39,
                "velocity": 64,
                "duration": 0.0840909,
                "tempo": 120.0
            },
            {
                "start_time": 9.3181818,
                "end_time": 9.4022727,
                "pitch": 41,
                "velocity": 64,
                "duration": 0.0840909,
                "tempo": 120.0
            },
            {
                "start_time": 9.4181818,
                "end_time": 9.5022727,
                "pitch": 39,
                "velocity": 64,
                "duration": 0.0840909,
                "tempo": 120.0
            },
            {
                "start_time": 9.5181818,
                "end_time": 9.6022727,
                "pitch": 38,
                "velocity": 64,
                "duration": 0.0840909,
                "tempo": 120.0
            },
            {
                "start_time": 14.5340909,
                "end_time": 14.6181818,
                "pitch": 68,
                "velocity": 64,
                "duration": 0.0840909,
                "tempo": 120.0
            },
            {
                "start_time": 14.6340909,
                "end_time": 14.7181818,
                "pitch": 68,
                "velocity": 64,
                "duration": 0.0840909,
                "tempo": 120.0
            },
            {
                "start_time": 14.7340909,
                "end_time": 14.8181818,
                "pitch": 68,
                "velocity": 64,
                "duration": 0.0840909,
                "tempo": 120.0
            },
            {
                "start_time": 14.8340909,
                "end_time": 14.9181818,
                "pitch": 70,
                "velocity": 64,
                "duration": 0.0840909,
                "tempo": 120.0
            },
            {
                "start_time": 14.9340909,
                "end_time": 15.0181818,
                "pitch": 72,
                "velocity": 64,
                "duration": 0.0840909,
                "tempo": 120.0
            },
            {
                "start_time": 15.0340909,
                "end_time": 15.1204545,
                "pitch": 68,
                "velocity": 64,
                "duration": 0.0863636,
                "tempo": 120.0
            },
            {
                "start_time": 15.1386364,
                "end_time": 15.225,
                "pitch": 68,
                "velocity": 64,
                "duration": 0.0863636,
                "tempo": 120.0
            },
            {
                "start_time": 15.2409091,
                "end_time": 15.3272727,
                "pitch": 68,
                "velocity": 64,
                "duration": 0.0863636,
                "tempo": 120.0
            },
            {
                "start_time": 15.3454545,
                "end_time": 15.4272727,
                "pitch": 68,
                "velocity": 64,
                "duration": 0.0818182,
                "tempo": 120.0
            },
            {
                "start_time": 15.4431818,
                "end_time": 15.5227273,
                "pitch": 70,
                "velocity": 64,
                "duration": 0.0795455,
                "tempo": 120.0
            },
            {
                "start_time": 15.5386364,
                "end_time": 15.6204545,
                "pitch": 72,
                "velocity": 64,
                "duration": 0.0818182,
                "tempo": 120.0
            },
            {
                "start_time": 15.6363636,
                "end_time": 15.7204545,
                "pitch": 68,
                "velocity": 64,
                "duration": 0.0840909,
                "tempo": 120.0
            },
            {
                "start_time": 15.7363636,
                "end_time": 15.8204545,
                "pitch": 68,
                "velocity": 64,
                "duration": 0.0840909,
                "tempo": 120.0
            },
            {
                "start_time": 15.8363636,
                "end_time": 15.9204545,
                "pitch": 68,
                "velocity": 64,
                "duration": 0.0840909,
                "tempo": 120.0
            },
            {
                "start_time": 15.9363636,
                "end_time": 16.0204545,
                "pitch": 68,
                "velocity": 64,
                "duration": 0.0840909,
                "tempo": 120.0
            },
            {
                "start_time": 16.0363636,
                "end_time": 16.1204545,
                "pitch": 70,
                "velocity": 64,
                "duration": 0.0840909,
                "tempo": 120.0
            },
            {
                "start_time": 16.1386364,
                "end_time": 16.2204545,
                "pitch": 72,
                "velocity": 64,
                "duration": 0.0818182,
                "tempo": 120.0
            },
            {
                "start_time": 16.2386364,
                "end_time": 16.3204545,
                "pitch": 75,
                "velocity": 64,
                "duration": 0.0818182,
                "tempo": 120.0
            },
            {
                "start_time": 16.3386364,
                "end_time": 16.4204545,
                "pitch": 73,
                "velocity": 64,
                "duration": 0.0818182,
                "tempo": 120.0
            },
            {
                "start_time": 16.4386364,
                "end_time": 16.5204545,
                "pitch": 72,
                "velocity": 64,
                "duration": 0.0818182,
                "tempo": 120.0
            },
            {
                "start_time": 16.5386364,
                "end_time": 16.625,
                "pitch": 73,
                "velocity": 64,
                "duration": 0.0863636,
                "tempo": 120.0
            },
            {
                "start_time": 16.6409091,
                "end_time": 16.7272727,
                "pitch": 72,
                "velocity": 64,
                "duration": 0.0863636,
                "tempo": 120.0
            },
            {
                "start_time": 16.7454545,
                "end_time": 16.8318182,
                "pitch": 70,
                "velocity": 64,
                "duration": 0.0863636,
                "tempo": 120.0
            },
            {
                "start_time": 16.9454545,
                "end_time": 17.0272727,
                "pitch": 68,
                "velocity": 64,
                "duration": 0.0818182,
                "tempo": 120.0
            },
            {
                "start_time": 17.0431818,
                "end_time": 17.1227273,
                "pitch": 68,
                "velocity": 64,
                "duration": 0.0795455,
                "tempo": 120.0
            },
            {
                "start_time": 17.1409091,
                "end_time": 17.2227273,
                "pitch": 68,
                "velocity": 64,
                "duration": 0.0818182,
                "tempo": 120.0
            },
            {
                "start_time": 17.2409091,
                "end_time": 17.325,
                "pitch": 70,
                "velocity": 64,
                "duration": 0.0840909,
                "tempo": 120.0
            },
            {
                "start_time": 17.3409091,
                "end_time": 17.425,
                "pitch": 72,
                "velocity": 64,
                "duration": 0.0840909,
                "tempo": 120.0
            },
            {
                "start_time": 17.4409091,
                "end_time": 17.5272727,
                "pitch": 68,
                "velocity": 64,
                "duration": 0.0863636,
                "tempo": 120.0
            },
            {
                "start_time": 17.5454545,
                "end_time": 17.6318182,
                "pitch": 68,
                "velocity": 64,
                "duration": 0.0863636,
                "tempo": 120.0
            },
            {
                "start_time": 17.6477273,
                "end_time": 17.7340909,
                "pitch": 68,
                "velocity": 64,
                "duration": 0.0863636,
                "tempo": 120.0
            },
            {
                "start_time": 17.7522727,
                "end_time": 17.8318182,
                "pitch": 68,
                "velocity": 64,
                "duration": 0.0795455,
                "tempo": 120.0
            },
            {
                "start_time": 17.85,
                "end_time": 17.9295455,
                "pitch": 70,
                "velocity": 64,
                "duration": 0.0795455,
                "tempo": 120.0
            },
            {
                "start_time": 17.9454545,
                "end_time": 18.0272727,
                "pitch": 72,
                "velocity": 64,
                "duration": 0.0818182,
                "tempo": 120.0
            },
            {
                "start_time": 18.0431818,
                "end_time": 18.1272727,
                "pitch": 68,
                "velocity": 64,
                "duration": 0.0840909,
                "tempo": 120.0
            },
            {
                "start_time": 18.1431818,
                "end_time": 18.2272727,
                "pitch": 68,
                "velocity": 64,
                "duration": 0.0840909,
                "tempo": 120.0
            },
            {
                "start_time": 18.2431818,
                "end_time": 18.3272727,
                "pitch": 68,
                "velocity": 64,
                "duration": 0.0840909,
                "tempo": 120.0
            },
            {
                "start_time": 18.3454545,
                "end_time": 18.4272727,
                "pitch": 68,
                "velocity": 64,
                "duration": 0.0818182,
                "tempo": 120.0
            },
            {
                "start_time": 18.4454545,
                "end_time": 18.5295455,
                "pitch": 70,
                "velocity": 64,
                "duration": 0.0840909,
                "tempo": 120.0
            },
            {
                "start_time": 18.5454545,
                "end_time": 18.6295455,
                "pitch": 72,
                "velocity": 64,
                "duration": 0.0840909,
                "tempo": 120.0
            },
            {
                "start_time": 18.6454545,
                "end_time": 18.7295455,
                "pitch": 75,
                "velocity": 64,
                "duration": 0.0840909,
                "tempo": 120.0
            },
            {
                "start_time": 18.7477273,
                "end_time": 18.8295455,
                "pitch": 73,
                "velocity": 64,
                "duration": 0.0818182,
                "tempo": 120.0
            },
            {
                "start_time": 18.8477273,
                "end_time": 18.9318182,
                "pitch": 72,
                "velocity": 64,
                "duration": 0.0840909,
                "tempo": 120.0
            },
            {
                "start_time": 18.9477273,
                "end_time": 19.0340909,
                "pitch": 73,
                "velocity": 64,
                "duration": 0.0863636,
                "tempo": 120.0
            },
            {
                "start_time": 19.05,
                "end_time": 19.1363636,
                "pitch": 72,
                "velocity": 64,
                "duration": 0.0863636,
                "tempo": 120.0
            },
            {
                "start_time": 19.1545455,
                "end_time": 19.2409091,
                "pitch": 70,
                "velocity": 64,
                "duration": 0.0863636,
                "tempo": 120.0
            }
        ],
        "Electric Guitar (clean)": [
            {
                "start_time": 0.0363636,
                "end_time": 0.0863636,
                "pitch": 55,
                "velocity": 51,
                "duration": 0.05,
                "tempo": 120.0
            },
            {
                "start_time": 0.1022727,
                "end_time": 0.1863636,
                "pitch": 55,
                "velocity": 51,
                "duration": 0.0840909,
                "tempo": 120.0
            },
            {
                "start_time": 0.2045455,
                "end_time": 0.2886364,
                "pitch": 55,
                "velocity": 51,
                "duration": 0.0840909,
                "tempo": 120.0
            },
            {
                "start_time": 0.3045455,
                "end_time": 0.3863636,
                "pitch": 55,
                "velocity": 51,
                "duration": 0.0818182,
                "tempo": 120.0
            },
            {
                "start_time": 0.4022727,
                "end_time": 0.4818182,
                "pitch": 57,
                "velocity": 51,
                "duration": 0.0795455,
                "tempo": 120.0
            },
            {
                "start_time": 0.4977273,
                "end_time": 0.5795455,
                "pitch": 58,
                "velocity": 51,
                "duration": 0.0818182,
                "tempo": 120.0
            },
            {
                "start_time": 0.5954545,
                "end_time": 0.6818182,
                "pitch": 55,
                "velocity": 51,
                "duration": 0.0863636,
                "tempo": 120.0
            },
            {
                "start_time": 0.6977273,
                "end_time": 0.7840909,
                "pitch": 55,
                "velocity": 51,
                "duration": 0.0863636,
                "tempo": 120.0
            },
            {
                "start_time": 0.8022727,
                "end_time": 0.8886364,
                "pitch": 55,
                "velocity": 51,
                "duration": 0.0863636,
                "tempo": 120.0
            },
            {
                "start_time": 0.9068182,
                "end_time": 0.9863636,
                "pitch": 55,
                "velocity": 51,
                "duration": 0.0795455,
                "tempo": 120.0
            },
            {
                "start_time": 1.0022727,
                "end_time": 1.0840909,
                "pitch": 57,
                "velocity": 51,
                "duration": 0.0818182,
                "tempo": 120.0
            },
            {
                "start_time": 1.1,
                "end_time": 1.1818182,
                "pitch": 58,
                "velocity": 51,
                "duration": 0.0818182,
                "tempo": 120.0
            },
            {
                "start_time": 1.1977273,
                "end_time": 1.2818182,
                "pitch": 55,
                "velocity": 51,
                "duration": 0.0840909,
                "tempo": 120.0
            },
            {
                "start_time": 1.3,
                "end_time": 1.3863636,
                "pitch": 55,
                "velocity": 51,
                "duration": 0.0863636,
                "tempo": 120.0
            },
            {
                "start_time": 1.4045455,
                "end_time": 1.4909091,
                "pitch": 55,
                "velocity": 51,
                "duration": 0.0863636,
                "tempo": 120.0
            },
            {
                "start_time": 1.5068182,
                "end_time": 1.5886364,
                "pitch": 55,
                "velocity": 51,
                "duration": 0.0818182,
                "tempo": 120.0
            },
            {
                "start_time": 1.6045455,
                "end_time": 1.6863636,
                "pitch": 57,
                "velocity": 51,
                "duration": 0.0818182,
                "tempo": 120.0
            },
            {
                "start_time": 1.7022727,
                "end_time": 1.7818182,
                "pitch": 58,
                "velocity": 51,
                "duration": 0.0795455,
                "tempo": 120.0
            },
            {
                "start_time": 1.7977273,
                "end_time": 1.8818182,
                "pitch": 62,
                "velocity": 51,
                "duration": 0.0840909,
                "tempo": 120.0
            },
            {
                "start_time": 1.9,
                "end_time": 1.9818182,
                "pitch": 60,
                "velocity": 51,
                "duration": 0.0818182,
                "tempo": 120.0
            },
            {
                "start_time": 2.0,
                "end_time": 2.0840909,
                "pitch": 58,
                "velocity": 51,
                "duration": 0.0840909,
                "tempo": 120.0
            },
            {
                "start_time": 2.1,
                "end_time": 2.1840909,
                "pitch": 60,
                "velocity": 51,
                "duration": 0.0840909,
                "tempo": 120.0
            },
            {
                "start_time": 2.2,
                "end_time": 2.2840909,
                "pitch": 58,
                "velocity": 51,
                "duration": 0.0840909,
                "tempo": 120.0
            },
            {
                "start_time": 2.3,
                "end_time": 2.3840909,
                "pitch": 57,
                "velocity": 51,
                "duration": 0.0840909,
                "tempo": 120.0
            },
            {
                "start_time": 2.4022727,
                "end_time": 2.4840909,
                "pitch": 55,
                "velocity": 51,
                "duration": 0.0818182,
                "tempo": 120.0
            },
            {
                "start_time": 2.5022727,
                "end_time": 2.5840909,
                "pitch": 55,
                "velocity": 51,
                "duration": 0.0818182,
                "tempo": 120.0
            },
            {
                "start_time": 2.6022727,
                "end_time": 2.6840909,
                "pitch": 55,
                "velocity": 51,
                "duration": 0.0818182,
                "tempo": 120.0
            },
            {
                "start_time": 2.7022727,
                "end_time": 2.7863636,
                "pitch": 55,
                "velocity": 51,
                "duration": 0.0840909,
                "tempo": 120.0
            },
            {
                "start_time": 2.8022727,
                "end_time": 2.8863636,
                "pitch": 57,
                "velocity": 51,
                "duration": 0.0840909,
                "tempo": 120.0
            },
            {
                "start_time": 2.9022727,
                "end_time": 2.9863636,
                "pitch": 58,
                "velocity": 51,
                "duration": 0.0840909,
                "tempo": 120.0
            },
            {
                "start_time": 3.0022727,
                "end_time": 3.0886364,
                "pitch": 55,
                "velocity": 51,
                "duration": 0.0863636,
                "tempo": 120.0
            },
            {
                "start_time": 3.1068182,
                "end_time": 3.1931818,
                "pitch": 55,
                "velocity": 51,
                "duration": 0.0863636,
                "tempo": 120.0
            },
            {
                "start_time": 3.2090909,
                "end_time": 3.2954545,
                "pitch": 55,
                "velocity": 51,
                "duration": 0.0863636,
                "tempo": 120.0
            },
            {
                "start_time": 3.3136364,
                "end_time": 3.3954545,
                "pitch": 55,
                "velocity": 51,
                "duration": 0.0818182,
                "tempo": 120.0
            },
            {
                "start_time": 3.4113636,
                "end_time": 3.4909091,
                "pitch": 57,
                "velocity": 51,
                "duration": 0.0795455,
                "tempo": 120.0
            },
            {
                "start_time": 3.5068182,
                "end_time": 3.5886364,
                "pitch": 58,
                "velocity": 51,
                "duration": 0.0818182,
                "tempo": 120.0
            },
            {
                "start_time": 3.6045455,
                "end_time": 3.6909091,
                "pitch": 55,
                "velocity": 51,
                "duration": 0.0863636,
                "tempo": 120.0
            },
            {
                "start_time": 3.7068182,
                "end_time": 3.7931818,
                "pitch": 55,
                "velocity": 51,
                "duration": 0.0863636,
                "tempo": 120.0
            },
            {
                "start_time": 3.8113636,
                "end_time": 3.8977273,
                "pitch": 55,
                "velocity": 51,
                "duration": 0.0863636,
                "tempo": 120.0
            },
            {
                "start_time": 3.9159091,
                "end_time": 3.9954545,
                "pitch": 55,
                "velocity": 51,
                "duration": 0.0795455,
                "tempo": 120.0
            },
            {
                "start_time": 4.0113636,
                "end_time": 4.0931818,
                "pitch": 57,
                "velocity": 51,
                "duration": 0.0818182,
                "tempo": 120.0
            },
            {
                "start_time": 4.1090909,
                "end_time": 4.1909091,
                "pitch": 58,
                "velocity": 51,
                "duration": 0.0818182,
                "tempo": 120.0
            },
            {
                "start_time": 4.2068182,
                "end_time": 4.2909091,
                "pitch": 62,
                "velocity": 51,
                "duration": 0.0840909,
                "tempo": 120.0
            },
            {
                "start_time": 4.3068182,
                "end_time": 4.3909091,
                "pitch": 60,
                "velocity": 51,
                "duration": 0.0840909,
                "tempo": 120.0
            },
            {
                "start_time": 4.4068182,
                "end_time": 4.4909091,
                "pitch": 58,
                "velocity": 51,
                "duration": 0.0840909,
                "tempo": 120.0
            },
            {
                "start_time": 4.5068182,
                "end_time": 4.5909091,
                "pitch": 60,
                "velocity": 51,
                "duration": 0.0840909,
                "tempo": 120.0
            },
            {
                "start_time": 4.6068182,
                "end_time": 4.6909091,
                "pitch": 58,
                "velocity": 51,
                "duration": 0.0840909,
                "tempo": 120.0
            },
            {
                "start_time": 4.7068182,
                "end_time": 4.7909091,
                "pitch": 57,
                "velocity": 51,
                "duration": 0.0840909,
                "tempo": 120.0
            },
            {
                "start_time": 4.8068182,
                "end_time": 4.8909091,
                "pitch": 55,
                "velocity": 51,
                "duration": 0.0840909,
                "tempo": 120.0
            },
            {
                "start_time": 4.9068182,
                "end_time": 4.9909091,
                "pitch": 55,
                "velocity": 51,
                "duration": 0.0840909,
                "tempo": 120.0
            },
            {
                "start_time": 5.0068182,
                "end_time": 5.0909091,
                "pitch": 55,
                "velocity": 51,
                "duration": 0.0840909,
                "tempo": 120.0
            },
            {
                "start_time": 5.1068182,
                "end_time": 5.1909091,
                "pitch": 55,
                "velocity": 51,
                "duration": 0.0840909,
                "tempo": 120.0
            },
            {
                "start_time": 5.2068182,
                "end_time": 5.2909091,
                "pitch": 57,
                "velocity": 51,
                "duration": 0.0840909,
                "tempo": 120.0
            },
            {
                "start_time": 5.3068182,
                "end_time": 5.3909091,
                "pitch": 58,
                "velocity": 51,
                "duration": 0.0840909,
                "tempo": 120.0
            },
            {
                "start_time": 5.4068182,
                "end_time": 5.4931818,
                "pitch": 55,
                "velocity": 51,
                "duration": 0.0863636,
                "tempo": 120.0
            },
            {
                "start_time": 5.5113636,
                "end_time": 5.5977273,
                "pitch": 55,
                "velocity": 51,
                "duration": 0.0863636,
                "tempo": 120.0
            },
            {
                "start_time": 5.6159091,
                "end_time": 5.7022727,
                "pitch": 55,
                "velocity": 51,
                "duration": 0.0863636,
                "tempo": 120.0
            },
            {
                "start_time": 5.7181818,
                "end_time": 5.8,
                "pitch": 55,
                "velocity": 51,
                "duration": 0.0818182,
                "tempo": 120.0
            },
            {
                "start_time": 5.8159091,
                "end_time": 5.8954545,
                "pitch": 57,
                "velocity": 51,
                "duration": 0.0795455,
                "tempo": 120.0
            },
            {
                "start_time": 5.9136364,
                "end_time": 5.9931818,
                "pitch": 58,
                "velocity": 51,
                "duration": 0.0795455,
                "tempo": 120.0
            },
            {
                "start_time": 6.0090909,
                "end_time": 6.0954545,
                "pitch": 55,
                "velocity": 51,
                "duration": 0.0863636,
                "tempo": 120.0
            },
            {
                "start_time": 6.1136364,
                "end_time": 6.2,
                "pitch": 55,
                "velocity": 51,
                "duration": 0.0863636,
                "tempo": 120.0
            },
            {
                "start_time": 6.2159091,
                "end_time": 6.3022727,
                "pitch": 55,
                "velocity": 51,
                "duration": 0.0863636,
                "tempo": 120.0
            },
            {
                "start_time": 6.3204545,
                "end_time": 6.4,
                "pitch": 55,
                "velocity": 51,
                "duration": 0.0795455,
                "tempo": 120.0
            },
            {
                "start_time": 6.4181818,
                "end_time": 6.4977273,
                "pitch": 57,
                "velocity": 51,
                "duration": 0.0795455,
                "tempo": 120.0
            },
            {
                "start_time": 6.5136364,
                "end_time": 6.5954545,
                "pitch": 58,
                "velocity": 51,
                "duration": 0.0818182,
                "tempo": 120.0
            },
            {
                "start_time": 6.6113636,
                "end_time": 6.6954545,
                "pitch": 62,
                "velocity": 51,
                "duration": 0.0840909,
                "tempo": 120.0
            },
            {
                "start_time": 6.7113636,
                "end_time": 6.7954545,
                "pitch": 60,
                "velocity": 51,
                "duration": 0.0840909,
                "tempo": 120.0
            },
            {
                "start_time": 6.8113636,
                "end_time": 6.8954545,
                "pitch": 58,
                "velocity": 51,
                "duration": 0.0840909,
                "tempo": 120.0
            },
            {
                "start_time": 6.9113636,
                "end_time": 6.9954545,
                "pitch": 60,
                "velocity": 51,
                "duration": 0.0840909,
                "tempo": 120.0
            },
            {
                "start_time": 7.0113636,
                "end_time": 7.0954545,
                "pitch": 58,
                "velocity": 51,
                "duration": 0.0840909,
                "tempo": 120.0
            },
            {
                "start_time": 7.1113636,
                "end_time": 7.1954545,
                "pitch": 57,
                "velocity": 51,
                "duration": 0.0840909,
                "tempo": 120.0
            },
            {
                "start_time": 7.2136364,
                "end_time": 7.2954545,
                "pitch": 55,
                "velocity": 51,
                "duration": 0.0818182,
                "tempo": 120.0
            },
            {
                "start_time": 7.3136364,
                "end_time": 7.3954545,
                "pitch": 55,
                "velocity": 51,
                "duration": 0.0818182,
                "tempo": 120.0
            },
            {
                "start_time": 7.4136364,
                "end_time": 7.4954545,
                "pitch": 55,
                "velocity": 51,
                "duration": 0.0818182,
                "tempo": 120.0
            },
            {
                "start_time": 7.5136364,
                "end_time": 7.5954545,
                "pitch": 55,
                "velocity": 51,
                "duration": 0.0818182,
                "tempo": 120.0
            },
            {
                "start_time": 7.6136364,
                "end_time": 7.6954545,
                "pitch": 57,
                "velocity": 51,
                "duration": 0.0818182,
                "tempo": 120.0
            },
            {
                "start_time": 7.7136364,
                "end_time": 7.7954545,
                "pitch": 58,
                "velocity": 51,
                "duration": 0.0818182,
                "tempo": 120.0
            },
            {
                "start_time": 7.8136364,
                "end_time": 7.8977273,
                "pitch": 55,
                "velocity": 51,
                "duration": 0.0840909,
                "tempo": 120.0
            },
            {
                "start_time": 7.9159091,
                "end_time": 8.0022727,
                "pitch": 55,
                "velocity": 51,
                "duration": 0.0863636,
                "tempo": 120.0
            },
            {
                "start_time": 8.0204545,
                "end_time": 8.1068182,
                "pitch": 55,
                "velocity": 51,
                "duration": 0.0863636,
                "tempo": 120.0
            },
            {
                "start_time": 8.1227273,
                "end_time": 8.2045455,
                "pitch": 55,
                "velocity": 51,
                "duration": 0.0818182,
                "tempo": 120.0
            },
            {
                "start_time": 8.2204545,
                "end_time": 8.3022727,
                "pitch": 57,
                "velocity": 51,
                "duration": 0.0818182,
                "tempo": 120.0
            },
            {
                "start_time": 8.3181818,
                "end_time": 8.3977273,
                "pitch": 58,
                "velocity": 51,
                "duration": 0.0795455,
                "tempo": 120.0
            },
            {
                "start_time": 8.4136364,
                "end_time": 8.5,
                "pitch": 55,
                "velocity": 51,
                "duration": 0.0863636,
                "tempo": 120.0
            },
            {
                "start_time": 8.5181818,
                "end_time": 8.6045455,
                "pitch": 55,
                "velocity": 51,
                "duration": 0.0863636,
                "tempo": 120.0
            },
            {
                "start_time": 8.6204545,
                "end_time": 8.7068182,
                "pitch": 55,
                "velocity": 51,
                "duration": 0.0863636,
                "tempo": 120.0
            },
            {
                "start_time": 8.725,
                "end_time": 8.8045455,
                "pitch": 55,
                "velocity": 51,
                "duration": 0.0795455,
                "tempo": 120.0
            },
            {
                "start_time": 8.8227273,
                "end_time": 8.9022727,
                "pitch": 57,
                "velocity": 51,
                "duration": 0.0795455,
                "tempo": 120.0
            },
            {
                "start_time": 8.9181818,
                "end_time": 9.0,
                "pitch": 58,
                "velocity": 51,
                "duration": 0.0818182,
                "tempo": 120.0
            },
            {
                "start_time": 9.0159091,
                "end_time": 9.1,
                "pitch": 62,
                "velocity": 51,
                "duration": 0.0840909,
                "tempo": 120.0
            },
            {
                "start_time": 9.1159091,
                "end_time": 9.2,
                "pitch": 60,
                "velocity": 51,
                "duration": 0.0840909,
                "tempo": 120.0
            },
            {
                "start_time": 9.2159091,
                "end_time": 9.3,
                "pitch": 58,
                "velocity": 51,
                "duration": 0.0840909,
                "tempo": 120.0
            },
            {
                "start_time": 9.3181818,
                "end_time": 9.4022727,
                "pitch": 60,
                "velocity": 51,
                "duration": 0.0840909,
                "tempo": 120.0
            },
            {
                "start_time": 9.4181818,
                "end_time": 9.5022727,
                "pitch": 58,
                "velocity": 51,
                "duration": 0.0840909,
                "tempo": 120.0
            },
            {
                "start_time": 9.5181818,
                "end_time": 9.6022727,
                "pitch": 57,
                "velocity": 51,
                "duration": 0.0840909,
                "tempo": 120.0
            },
            {
                "start_time": 9.6181818,
                "end_time": 9.7022727,
                "pitch": 60,
                "velocity": 51,
                "duration": 0.0840909,
                "tempo": 120.0
            },
            {
                "start_time": 9.7181818,
                "end_time": 9.8022727,
                "pitch": 60,
                "velocity": 51,
                "duration": 0.0840909,
                "tempo": 120.0
            },
            {
                "start_time": 9.8181818,
                "end_time": 9.9022727,
                "pitch": 60,
                "velocity": 51,
                "duration": 0.0840909,
                "tempo": 120.0
            },
            {
                "start_time": 9.9181818,
                "end_time": 10.0022727,
                "pitch": 60,
                "velocity": 51,
                "duration": 0.0840909,
                "tempo": 120.0
            },
            {
                "start_time": 10.0204545,
                "end_time": 10.1022727,
                "pitch": 62,
                "velocity": 51,
                "duration": 0.0818182,
                "tempo": 120.0
            },
            {
                "start_time": 10.1204545,
                "end_time": 10.2045455,
                "pitch": 63,
                "velocity": 51,
                "duration": 0.0840909,
                "tempo": 120.0
            },
            {
                "start_time": 10.2204545,
                "end_time": 10.3045455,
                "pitch": 60,
                "velocity": 51,
                "duration": 0.0840909,
                "tempo": 120.0
            },
            {
                "start_time": 10.3204545,
                "end_time": 10.4045455,
                "pitch": 60,
                "velocity": 51,
                "duration": 0.0840909,
                "tempo": 120.0
            },
            {
                "start_time": 10.4204545,
                "end_time": 10.5045455,
                "pitch": 60,
                "velocity": 51,
                "duration": 0.0840909,
                "tempo": 120.0
            },
            {
                "start_time": 10.5204545,
                "end_time": 10.6045455,
                "pitch": 60,
                "velocity": 51,
                "duration": 0.0840909,
                "tempo": 120.0
            },
            {
                "start_time": 10.6204545,
                "end_time": 10.7045455,
                "pitch": 62,
                "velocity": 51,
                "duration": 0.0840909,
                "tempo": 120.0
            },
            {
                "start_time": 10.7204545,
                "end_time": 10.8045455,
                "pitch": 63,
                "velocity": 51,
                "duration": 0.0840909,
                "tempo": 120.0
            },
            {
                "start_time": 10.8227273,
                "end_time": 10.9068182,
                "pitch": 60,
                "velocity": 51,
                "duration": 0.0840909,
                "tempo": 120.0
            },
            {
                "start_time": 10.9227273,
                "end_time": 11.0068182,
                "pitch": 60,
                "velocity": 51,
                "duration": 0.0840909,
                "tempo": 120.0
            },
            {
                "start_time": 11.0227273,
                "end_time": 11.1068182,
                "pitch": 60,
                "velocity": 51,
                "duration": 0.0840909,
                "tempo": 120.0
            },
            {
                "start_time": 11.1227273,
                "end_time": 11.2068182,
                "pitch": 60,
                "velocity": 51,
                "duration": 0.0840909,
                "tempo": 120.0
            },
            {
                "start_time": 11.2227273,
                "end_time": 11.3068182,
                "pitch": 62,
                "velocity": 51,
                "duration": 0.0840909,
                "tempo": 120.0
            },
            {
                "start_time": 11.3227273,
                "end_time": 11.4068182,
                "pitch": 63,
                "velocity": 51,
                "duration": 0.0840909,
                "tempo": 120.0
            },
            {
                "start_time": 11.4227273,
                "end_time": 11.5068182,
                "pitch": 67,
                "velocity": 51,
                "duration": 0.0840909,
                "tempo": 120.0
            },
            {
                "start_time": 11.525,
                "end_time": 11.6068182,
                "pitch": 65,
                "velocity": 51,
                "duration": 0.0818182,
                "tempo": 120.0
            },
            {
                "start_time": 11.625,
                "end_time": 11.7090909,
                "pitch": 63,
                "velocity": 51,
                "duration": 0.0840909,
                "tempo": 120.0
            },
            {
                "start_time": 11.725,
                "end_time": 11.8113636,
                "pitch": 65,
                "velocity": 51,
                "duration": 0.0863636,
                "tempo": 120.0
            },
            {
                "start_time": 11.8272727,
                "end_time": 11.9136364,
                "pitch": 63,
                "velocity": 51,
                "duration": 0.0863636,
                "tempo": 120.0
            },
            {
                "start_time": 11.9318182,
                "end_time": 12.0181818,
                "pitch": 62,
                "velocity": 51,
                "duration": 0.0863636,
                "tempo": 120.0
            },
            {
                "start_time": 12.0363636,
                "end_time": 12.1159091,
                "pitch": 60,
                "velocity": 51,
                "duration": 0.0795455,
                "tempo": 120.0
            },
            {
                "start_time": 12.1318182,
                "end_time": 12.2136364,
                "pitch": 60,
                "velocity": 51,
                "duration": 0.0818182,
                "tempo": 120.0
            },
            {
                "start_time": 12.2295455,
                "end_time": 12.3113636,
                "pitch": 60,
                "velocity": 51,
                "duration": 0.0818182,
                "tempo": 120.0
            },
            {
                "start_time": 12.3272727,
                "end_time": 12.4113636,
                "pitch": 60,
                "velocity": 51,
                "duration": 0.0840909,
                "tempo": 120.0
            },
            {
                "start_time": 12.4272727,
                "end_time": 12.5113636,
                "pitch": 62,
                "velocity": 51,
                "duration": 0.0840909,
                "tempo": 120.0
            },
            {
                "start_time": 12.5272727,
                "end_time": 12.6113636,
                "pitch": 63,
                "velocity": 51,
                "duration": 0.0840909,
                "tempo": 120.0
            },
            {
                "start_time": 12.6272727,
                "end_time": 12.7136364,
                "pitch": 60,
                "velocity": 51,
                "duration": 0.0863636,
                "tempo": 120.0
            },
            {
                "start_time": 12.7318182,
                "end_time": 12.8181818,
                "pitch": 60,
                "velocity": 51,
                "duration": 0.0863636,
                "tempo": 120.0
            },
            {
                "start_time": 12.8363636,
                "end_time": 12.9227273,
                "pitch": 60,
                "velocity": 51,
                "duration": 0.0863636,
                "tempo": 120.0
            },
            {
                "start_time": 12.9386364,
                "end_time": 13.0204545,
                "pitch": 60,
                "velocity": 51,
                "duration": 0.0818182,
                "tempo": 120.0
            },
            {
                "start_time": 13.0363636,
                "end_time": 13.1159091,
                "pitch": 62,
                "velocity": 51,
                "duration": 0.0795455,
                "tempo": 120.0
            },
            {
                "start_time": 13.1340909,
                "end_time": 13.2136364,
                "pitch": 63,
                "velocity": 51,
                "duration": 0.0795455,
                "tempo": 120.0
            },
            {
                "start_time": 13.2295455,
                "end_time": 13.3136364,
                "pitch": 60,
                "velocity": 51,
                "duration": 0.0840909,
                "tempo": 120.0
            },
            {
                "start_time": 13.3295455,
                "end_time": 13.4136364,
                "pitch": 60,
                "velocity": 51,
                "duration": 0.0840909,
                "tempo": 120.0
            },
            {
                "start_time": 13.4295455,
                "end_time": 13.5136364,
                "pitch": 60,
                "velocity": 51,
                "duration": 0.0840909,
                "tempo": 120.0
            },
            {
                "start_time": 13.5295455,
                "end_time": 13.6136364,
                "pitch": 60,
                "velocity": 51,
                "duration": 0.0840909,
                "tempo": 120.0
            },
            {
                "start_time": 13.6318182,
                "end_time": 13.7136364,
                "pitch": 62,
                "velocity": 51,
                "duration": 0.0818182,
                "tempo": 120.0
            },
            {
                "start_time": 13.7318182,
                "end_time": 13.8159091,
                "pitch": 63,
                "velocity": 51,
                "duration": 0.0840909,
                "tempo": 120.0
            },
            {
                "start_time": 13.8318182,
                "end_time": 13.9159091,
                "pitch": 67,
                "velocity": 51,
                "duration": 0.0840909,
                "tempo": 120.0
            },
            {
                "start_time": 13.9318182,
                "end_time": 14.0159091,
                "pitch": 65,
                "velocity": 51,
                "duration": 0.0840909,
                "tempo": 120.0
            },
            {
                "start_time": 14.0318182,
                "end_time": 14.1159091,
                "pitch": 63,
                "velocity": 51,
                "duration": 0.0840909,
                "tempo": 120.0
            },
            {
                "start_time": 14.1340909,
                "end_time": 14.2159091,
                "pitch": 65,
                "velocity": 51,
                "duration": 0.0818182,
                "tempo": 120.0
            },
            {
                "start_time": 14.2340909,
                "end_time": 14.3159091,
                "pitch": 63,
                "velocity": 51,
                "duration": 0.0818182,
                "tempo": 120.0
            },
            {
                "start_time": 14.3340909,
                "end_time": 14.4159091,
                "pitch": 62,
                "velocity": 51,
                "duration": 0.0818182,
                "tempo": 120.0
            },
            {
                "start_time": 14.4340909,
                "end_time": 14.5159091,
                "pitch": 60,
                "velocity": 51,
                "duration": 0.0818182,
                "tempo": 120.0
            },
            {
                "start_time": 14.5340909,
                "end_time": 14.6181818,
                "pitch": 60,
                "velocity": 51,
                "duration": 0.0840909,
                "tempo": 120.0
            },
            {
                "start_time": 14.6340909,
                "end_time": 14.7181818,
                "pitch": 60,
                "velocity": 51,
                "duration": 0.0840909,
                "tempo": 120.0
            },
            {
                "start_time": 14.7340909,
                "end_time": 14.8181818,
                "pitch": 60,
                "velocity": 51,
                "duration": 0.0840909,
                "tempo": 120.0
            },
            {
                "start_time": 14.8340909,
                "end_time": 14.9181818,
                "pitch": 62,
                "velocity": 51,
                "duration": 0.0840909,
                "tempo": 120.0
            },
            {
                "start_time": 14.9340909,
                "end_time": 15.0181818,
                "pitch": 63,
                "velocity": 51,
                "duration": 0.0840909,
                "tempo": 120.0
            },
            {
                "start_time": 15.0340909,
                "end_time": 15.1204545,
                "pitch": 60,
                "velocity": 51,
                "duration": 0.0863636,
                "tempo": 120.0
            },
            {
                "start_time": 15.1386364,
                "end_time": 15.225,
                "pitch": 60,
                "velocity": 51,
                "duration": 0.0863636,
                "tempo": 120.0
            },
            {
                "start_time": 15.2409091,
                "end_time": 15.3272727,
                "pitch": 60,
                "velocity": 51,
                "duration": 0.0863636,
                "tempo": 120.0
            },
            {
                "start_time": 15.3454545,
                "end_time": 15.4272727,
                "pitch": 60,
                "velocity": 51,
                "duration": 0.0818182,
                "tempo": 120.0
            },
            {
                "start_time": 15.4431818,
                "end_time": 15.5227273,
                "pitch": 62,
                "velocity": 51,
                "duration": 0.0795455,
                "tempo": 120.0
            },
            {
                "start_time": 15.5386364,
                "end_time": 15.6204545,
                "pitch": 63,
                "velocity": 51,
                "duration": 0.0818182,
                "tempo": 120.0
            },
            {
                "start_time": 15.6363636,
                "end_time": 15.7204545,
                "pitch": 60,
                "velocity": 51,
                "duration": 0.0840909,
                "tempo": 120.0
            },
            {
                "start_time": 15.7363636,
                "end_time": 15.8204545,
                "pitch": 60,
                "velocity": 51,
                "duration": 0.0840909,
                "tempo": 120.0
            },
            {
                "start_time": 15.8363636,
                "end_time": 15.9204545,
                "pitch": 60,
                "velocity": 51,
                "duration": 0.0840909,
                "tempo": 120.0
            },
            {
                "start_time": 15.9363636,
                "end_time": 16.0204545,
                "pitch": 60,
                "velocity": 51,
                "duration": 0.0840909,
                "tempo": 120.0
            },
            {
                "start_time": 16.0363636,
                "end_time": 16.1204545,
                "pitch": 62,
                "velocity": 51,
                "duration": 0.0840909,
                "tempo": 120.0
            },
            {
                "start_time": 16.1386364,
                "end_time": 16.2204545,
                "pitch": 63,
                "velocity": 51,
                "duration": 0.0818182,
                "tempo": 120.0
            },
            {
                "start_time": 16.2386364,
                "end_time": 16.3204545,
                "pitch": 67,
                "velocity": 51,
                "duration": 0.0818182,
                "tempo": 120.0
            },
            {
                "start_time": 16.3386364,
                "end_time": 16.4204545,
                "pitch": 65,
                "velocity": 51,
                "duration": 0.0818182,
                "tempo": 120.0
            },
            {
                "start_time": 16.4386364,
                "end_time": 16.5204545,
                "pitch": 63,
                "velocity": 51,
                "duration": 0.0818182,
                "tempo": 120.0
            },
            {
                "start_time": 16.5386364,
                "end_time": 16.625,
                "pitch": 65,
                "velocity": 51,
                "duration": 0.0863636,
                "tempo": 120.0
            },
            {
                "start_time": 16.6409091,
                "end_time": 16.7272727,
                "pitch": 63,
                "velocity": 51,
                "duration": 0.0863636,
                "tempo": 120.0
            },
            {
                "start_time": 16.7454545,
                "end_time": 16.8318182,
                "pitch": 62,
                "velocity": 51,
                "duration": 0.0863636,
                "tempo": 120.0
            },
            {
                "start_time": 16.8477273,
                "end_time": 16.9295455,
                "pitch": 60,
                "velocity": 51,
                "duration": 0.0818182,
                "tempo": 120.0
            },
            {
                "start_time": 16.9454545,
                "end_time": 17.0272727,
                "pitch": 60,
                "velocity": 51,
                "duration": 0.0818182,
                "tempo": 120.0
            },
            {
                "start_time": 17.0431818,
                "end_time": 17.1227273,
                "pitch": 60,
                "velocity": 51,
                "duration": 0.0795455,
                "tempo": 120.0
            },
            {
                "start_time": 17.1409091,
                "end_time": 17.2227273,
                "pitch": 60,
                "velocity": 51,
                "duration": 0.0818182,
                "tempo": 120.0
            },
            {
                "start_time": 17.2409091,
                "end_time": 17.325,
                "pitch": 62,
                "velocity": 51,
                "duration": 0.0840909,
                "tempo": 120.0
            },
            {
                "start_time": 17.3409091,
                "end_time": 17.425,
                "pitch": 63,
                "velocity": 51,
                "duration": 0.0840909,
                "tempo": 120.0
            },
            {
                "start_time": 17.4409091,
                "end_time": 17.5272727,
                "pitch": 60,
                "velocity": 51,
                "duration": 0.0863636,
                "tempo": 120.0
            },
            {
                "start_time": 17.5454545,
                "end_time": 17.6318182,
                "pitch": 60,
                "velocity": 51,
                "duration": 0.0863636,
                "tempo": 120.0
            },
            {
                "start_time": 17.6477273,
                "end_time": 17.7340909,
                "pitch": 60,
                "velocity": 51,
                "duration": 0.0863636,
                "tempo": 120.0
            },
            {
                "start_time": 17.7522727,
                "end_time": 17.8318182,
                "pitch": 60,
                "velocity": 51,
                "duration": 0.0795455,
                "tempo": 120.0
            },
            {
                "start_time": 17.85,
                "end_time": 17.9295455,
                "pitch": 62,
                "velocity": 51,
                "duration": 0.0795455,
                "tempo": 120.0
            },
            {
                "start_time": 17.9454545,
                "end_time": 18.0272727,
                "pitch": 63,
                "velocity": 51,
                "duration": 0.0818182,
                "tempo": 120.0
            },
            {
                "start_time": 18.0431818,
                "end_time": 18.1272727,
                "pitch": 60,
                "velocity": 51,
                "duration": 0.0840909,
                "tempo": 120.0
            },
            {
                "start_time": 18.1431818,
                "end_time": 18.2272727,
                "pitch": 60,
                "velocity": 51,
                "duration": 0.0840909,
                "tempo": 120.0
            },
            {
                "start_time": 18.2431818,
                "end_time": 18.3272727,
                "pitch": 60,
                "velocity": 51,
                "duration": 0.0840909,
                "tempo": 120.0
            },
            {
                "start_time": 18.3454545,
                "end_time": 18.4272727,
                "pitch": 60,
                "velocity": 51,
                "duration": 0.0818182,
                "tempo": 120.0
            },
            {
                "start_time": 18.4454545,
                "end_time": 18.5295455,
                "pitch": 62,
                "velocity": 51,
                "duration": 0.0840909,
                "tempo": 120.0
            },
            {
                "start_time": 18.5454545,
                "end_time": 18.6295455,
                "pitch": 63,
                "velocity": 51,
                "duration": 0.0840909,
                "tempo": 120.0
            },
            {
                "start_time": 18.6454545,
                "end_time": 18.7295455,
                "pitch": 67,
                "velocity": 51,
                "duration": 0.0840909,
                "tempo": 120.0
            },
            {
                "start_time": 18.7477273,
                "end_time": 18.8295455,
                "pitch": 65,
                "velocity": 51,
                "duration": 0.0818182,
                "tempo": 120.0
            },
            {
                "start_time": 18.8477273,
                "end_time": 18.9318182,
                "pitch": 63,
                "velocity": 51,
                "duration": 0.0840909,
                "tempo": 120.0
            },
            {
                "start_time": 18.9477273,
                "end_time": 19.0340909,
                "pitch": 65,
                "velocity": 51,
                "duration": 0.0863636,
                "tempo": 120.0
            },
            {
                "start_time": 19.05,
                "end_time": 19.1363636,
                "pitch": 63,
                "velocity": 51,
                "duration": 0.0863636,
                "tempo": 120.0
            },
            {
                "start_time": 19.1545455,
                "end_time": 19.2409091,
                "pitch": 62,
                "velocity": 51,
                "duration": 0.0863636,
                "tempo": 120.0
            },
            {
                "start_time": 19.2590909,
                "end_time": 19.3568182,
                "pitch": 55,
                "velocity": 51,
                "duration": 0.0977273,
                "tempo": 120.0
            }
        ]
    }
}