{
    "mood": "angry",
    "instruments": {
        "Trumpet": [
            {
                "start_time": 0.8818182,
                "end_time": 1.3227273,
                "pitch": 64,
                "velocity": 127,
                "duration": 0.4409091,
                "tempo": 120.0
            },
            {
                "start_time": 1.3227273,
                "end_time": 1.7340909,
                "pitch": 69,
                "velocity": 127,
                "duration": 0.4113636,
                "tempo": 120.0
            },
            {
                "start_time": 1.7340909,
                "end_time": 2.5659091,
                "pitch": 71,
                "velocity": 127,
                "duration": 0.8318182,
                "tempo": 120.0
            },
            {
                "start_time": 2.5659091,
                "end_time": 3.45,
                "pitch": 74,
                "velocity": 127,
                "duration": 0.8840909,
                "tempo": 120.0
            },
            {
                "start_time": 3.45,
                "end_time": 4.25,
                "pitch": 73,
                "velocity": 127,
                "duration": 0.8,
                "tempo": 120.0
            },
            {
                "start_time": 4.25,
                "end_time": 5.1340909,
                "pitch": 76,
                "velocity": 127,
                "duration": 0.8840909,
                "tempo": 120.0
            },
            {
                "start_time": 5.1340909,
                "end_time": 5.7659091,
                "pitch": 74,
                "velocity": 127,
                "duration": 0.6318182,
                "tempo": 120.0
            },
            {
                "start_time": 5.7659091,
                "end_time": 6.8204545,
                "pitch": 71,
                "velocity": 127,
                "duration": 1.0545455,
                "tempo": 120.0
            },
            {
                "start_time": 7.2522727,
                "end_time": 7.7022727,
                "pitch": 67,
                "velocity": 127,
                "duration": 0.45,
                "tempo": 120.0
            },
            {
                "start_time": 7.7022727,
                "end_time": 8.1045455,
                "pitch": 62,
                "velocity": 127,
                "duration": 0.4022727,
                "tempo": 120.0
            },
            {
                "start_time": 8.1045455,
                "end_time": 8.5045455,
                "pitch": 67,
                "velocity": 127,
                "duration": 0.4,
                "tempo": 120.0
            },
            {
                "start_time": 8.5045455,
                "end_time": 9.3772727,
                "pitch": 69,
                "velocity": 127,
                "duration": 0.8727273,
                "tempo": 120.0
            },
            {
                "start_time": 9.3772727,
                "end_time": 9.8181818,
                "pitch": 74,
                "velocity": 127,
                "duration": 0.4409091,
                "tempo": 120.0
            },
            {
                "start_time": 9.8181818,
                "end_time": 10.2204545,
                "pitch": 69,
                "velocity": 127,
                "duration": 0.4022727,
                "tempo": 120.0
            },
            {
                "start_time": 10.2204545,
                "end_time": 11.5068182,
                "pitch": 67,
                "velocity": 127,
                "duration": 1.2863636,
                "tempo": 120.0
            },
            {
                "start_time": 11.5068182,
                "end_time": 11.7068182,
                "pitch": 67,
                "velocity": 127,
                "duration": 0.2,
                "tempo": 120.0
            },
            {
                "start_time": 11.7068182,
                "end_time": 13.625,
                "pitch": 68,
                "velocity": 127,
                "duration": 1.9181818,
                "tempo": 120.0
            },
            {
                "start_time": 14.075,
                "end_time": 14.4772727,
                "pitch": 69,
                "velocity": 127,
                "duration": 0.4022727,
                "tempo": 120.0
            },
            {
                "start_time": 14.4772727,
                "end_time": 14.8795455,
                "pitch": 64,
                "velocity": 127,
                "duration": 0.4022727,
                "tempo": 120.0
            },
            {
                "start_time": 14.8795455,
                "end_time": 15.3227273,
                "pitch": 69,
                "velocity": 127,
                "duration": 0.4431818,
                "tempo": 120.0
            },
            {
                "start_time": 15.3227273,
                "end_time": 16.1954545,
                "pitch": 71,
                "velocity": 127,
                "duration": 0.8727273,
                "tempo": 120.0
            },
            {
                "start_time": 16.1954545,
                "end_time": 17.0045455,
                "pitch": 74,
                "velocity": 127,
                "duration": 0.8090909,
                "tempo": 120.0
            },
            {
                "start_time": 17.0045455,
                "end_time": 17.8795455,
                "pitch": 73,
                "velocity": 127,
                "duration": 0.875,
                "tempo": 120.0
            },
            {
                "start_time": 17.8795455,
                "end_time": 18.7318182,
                "pitch": 76,
                "velocity": 127,
                "duration": 0.8522727,
                "tempo": 120.0
            },
            {
                "start_time": 18.7318182,
                "end_time": 19.3613636,
                "pitch": 74,
                "velocity": 127,
                "duration": 0.6295455,
                "tempo": 120.0
            },
            {
                "start_time": 19.3613636,
                "end_time": 20.4454545,
                "pitch": 71,
                "velocity": 127,
                "duration": 1.0840909,
                "tempo": 120.0
            },
            {
                "start_time": 20.8477273,
                "end_time": 21.25,
                "pitch": 72,
                "velocity": 127,
                "duration": 0.4022727,
                "tempo": 120.0
            },
            {
                "start_time": 21.25,
                "end_time": 21.7,
                "pitch": 69,
                "velocity": 127,
                "duration": 0.45,
                "tempo": 120.0
            },
            {
                "start_time": 21.7,
                "end_time": 22.1318182,
                "pitch": 72,
                "velocity": 127,
                "duration": 0.4318182,
                "tempo": 120.0
            },
            {
                "start_time": 22.1318182,
                "end_time": 22.9659091,
                "pitch": 74,
                "velocity": 127,
                "duration": 0.8340909,
                "tempo": 120.0
            },
            {
                "start_time": 22.9659091,
                "end_time": 23.3863636,
                "pitch": 71,
                "velocity": 127,
                "duration": 0.4204545,
                "tempo": 120.0
            },
            {
                "start_time": 23.3863636,
                "end_time": 23.8181818,
                "pitch": 67,
                "velocity": 127,
                "duration": 0.4318182,
                "tempo": 120.0
            },
            {
                "start_time": 23.8181818,
                "end_time": 25.3181818,
                "pitch": 69,
                "velocity": 127,
                "duration": 1.5,
                "tempo": 120.0
            },
            {
                "start_time": 25.3181818,
                "end_time": 27.2204545,
                "pitch": 71,
                "velocity": 127,
                "duration": 1.9022727,
                "tempo": 120.0
            },
            {
                "start_time": 27.6318182,
                "end_time": 28.075,
                "pitch": 69,
                "velocity": 127,
                "duration": 0.4431818,
                "tempo": 120.0
            },
            {
                "start_time": 28.075,
                "end_time": 28.5068182,
                "pitch": 64,
                "velocity": 127,
                "duration": 0.4318182,
                "tempo": 120.0
            },
            {
                "start_time": 28.5068182,
                "end_time": 28.9386364,
                "pitch": 69,
                "velocity": 127,
                "duration": 0.4318182,
                "tempo": 120.0
            },
            {
                "start_time": 28.9386364,
                "end_time": 29.7613636,
                "pitch": 71,
                "velocity": 127,
                "duration": 0.8227273,
                "tempo": 120.0
            },
            {
                "start_time": 29.7613636,
                "end_time": 30.625,
                "pitch": 74,
                "velocity": 127,
                "duration": 0.8636364,
                "tempo": 120.0
            },
            {
                "start_time": 30.625,
                "end_time": 31.4772727,
                "pitch": 73,
                "velocity": 127,
                "duration": 0.8522727,
                "tempo": 120.0
            },
            {
                "start_time": 31.4772727,
                "end_time": 32.3181818,
                "pitch": 76,
                "velocity": 127,
                "duration": 0.8409091,
                "tempo": 120.0
            },
            {
                "start_time": 32.3181818,
                "end_time": 32.9613636,
                "pitch": 74,
                "velocity": 127,
                "duration": 0.6431818,
                "tempo": 120.0
            },
            {
                "start_time": 32.9613636,
                "end_time": 34.0022727,
                "pitch": 71,
                "velocity": 127,
                "duration": 1.0409091,
                "tempo": 120.0
            },
            {
                "start_time": 34.4431818,
                "end_time": 34.875,
                "pitch": 67,
                "velocity": 127,
                "duration": 0.4318182,
                "tempo": 120.0
            },
            {
                "start_time": 34.875,
                "end_time": 35.3181818,
                "pitch": 62,
                "velocity": 127,
                "duration": 0.4431818,
                "tempo": 120.0
            },
            {
                "start_time": 35.3181818,
                "end_time": 35.7272727,
                "pitch": 67,
                "velocity": 127,
                "duration": 0.4090909,
                "tempo": 120.0
            },
            {
                "start_time": 35.7272727,
                "end_time": 36.5590909,
                "pitch": 69,
                "velocity": 127,
                "duration": 0.8318182,
                "tempo": 120.0
            },
            {
                "start_time": 36.5590909,
                "end_time": 37.0022727,
                "pitch": 74,
                "velocity": 127,
                "duration": 0.4431818,
                "tempo": 120.0
            },
            {
                "start_time": 37.0022727,
                "end_time": 37.4431818,
                "pitch": 69,
                "velocity": 127,
                "duration": 0.4409091,
                "tempo": 120.0
            },
            {
                "start_time": 37.4431818,
                "end_time": 38.6863636,
                "pitch": 67,
                "velocity": 127,
                "duration": 1.2431818,
                "tempo": 120.0
            },
            {
                "start_time": 38.6863636,
                "end_time": 38.8909091,
                "pitch": 67,
                "velocity": 127,
                "duration": 0.2045455,
                "tempo": 120.0
            },
            {
                "start_time": 38.8909091,
                "end_time": 40.7977273,
                "pitch": 68,
                "velocity": 127,
                "duration": 1.9068182,
                "tempo": 120.0
            }
        ],
        "French Horn": [
            {
                "start_time": 0.65,
                "end_time": 0.8818182,
                "pitch": 64,
                "velocity": 80,
                "duration": 0.2318182,
                "tempo": 120.0
            },
            {
                "start_time": 1.0818182,
                "end_time": 1.3227273,
                "pitch": 64,
                "velocity": 80,
                "duration": 0.2409091,
                "tempo": 120.0
            },
            {
                "start_time": 1.5295455,
                "end_time": 1.7340909,
                "pitch": 64,
                "velocity": 80,
                "duration": 0.2045455,
                "tempo": 120.0
            },
            {
                "start_time": 1.7340909,
                "end_time": 2.3659091,
                "pitch": 64,
                "velocity": 80,
                "duration": 0.6318182,
                "tempo": 120.0
            },
            {
                "start_time": 2.3659091,
                "end_time": 2.5659091,
                "pitch": 64,
                "velocity": 80,
                "duration": 0.2,
                "tempo": 120.0
            },
            {
                "start_time": 2.7659091,
                "end_time": 3.0068182,
                "pitch": 64,
                "velocity": 80,
                "duration": 0.2409091,
                "tempo": 120.0
            },
            {
                "start_time": 3.2136364,
                "end_time": 3.45,
                "pitch": 64,
                "velocity": 80,
                "duration": 0.2363636,
                "tempo": 120.0
            },
            {
                "start_time": 3.45,
                "end_time": 4.0636364,
                "pitch": 64,
                "velocity": 80,
                "duration": 0.6136364,
                "tempo": 120.0
            },
            {
                "start_time": 4.0636364,
                "end_time": 4.25,
                "pitch": 64,
                "velocity": 80,
                "duration": 0.1863636,
                "tempo": 120.0
            },
            {
                "start_time": 4.4954545,
                "end_time": 4.7022727,
                "pitch": 64,
                "velocity": 80,
                "duration": 0.2068182,
                "tempo": 120.0
            },
            {
                "start_time": 4.9022727,
                "end_time": 5.1340909,
                "pitch": 64,
                "velocity": 80,
                "duration": 0.2318182,
                "tempo": 120.0
            },
            {
                "start_time": 5.1340909,
                "end_time": 5.7659091,
                "pitch": 62,
                "velocity": 80,
                "duration": 0.6318182,
                "tempo": 120.0
            },
            {
                "start_time": 5.7659091,
                "end_time": 5.9659091,
                "pitch": 62,
                "velocity": 80,
                "duration": 0.2,
                "tempo": 120.0
            },
            {
                "start_time": 6.1909091,
                "end_time": 6.3795455,
                "pitch": 62,
                "velocity": 80,
                "duration": 0.1886364,
                "tempo": 120.0
            },
            {
                "start_time": 6.6136364,
                "end_time": 6.8204545,
                "pitch": 62,
                "velocity": 80,
                "duration": 0.2068182,
                "tempo": 120.0
            },
            {
                "start_time": 6.8204545,
                "end_time": 7.4568182,
                "pitch": 62,
                "velocity": 80,
                "duration": 0.6363636,
                "tempo": 120.0
            },
            {
                "start_time": 7.4568182,
                "end_time": 7.7022727,
                "pitch": 62,
                "velocity": 80,
                "duration": 0.2454545,
                "tempo": 120.0
            },
            {
                "start_time": 7.9045455,
                "end_time": 8.1045455,
                "pitch": 62,
                "velocity": 80,
                "duration": 0.2,
                "tempo": 120.0
            },
            {
                "start_time": 8.3181818,
                "end_time": 8.5045455,
                "pitch": 62,
                "velocity": 80,
                "duration": 0.1863636,
                "tempo": 120.0
            },
            {
                "start_time": 8.5045455,
                "end_time": 9.1363636,
                "pitch": 62,
                "velocity": 80,
                "duration": 0.6318182,
                "tempo": 120.0
            },
            {
                "start_time": 9.1363636,
                "end_time": 9.3772727,
                "pitch": 62,
                "velocity": 80,
                "duration": 0.2409091,
                "tempo": 120.0
            },
            {
                "start_time": 9.5840909,
                "end_time": 9.8181818,
                "pitch": 62,
                "velocity": 80,
                "duration": 0.2340909,
                "tempo": 120.0
            },
            {
                "start_time": 10.0204545,
                "end_time": 10.2204545,
                "pitch": 62,
                "velocity": 80,
                "duration": 0.2,
                "tempo": 120.0
            },
            {
                "start_time": 10.2204545,
                "end_time": 10.8681818,
                "pitch": 64,
                "velocity": 80,
                "duration": 0.6477273,
                "tempo": 120.0
            },
            {
                "start_time": 10.8681818,
                "end_time": 11.075,
                "pitch": 64,
                "velocity": 80,
                "duration": 0.2068182,
                "tempo": 120.0
            },
            {
                "start_time": 11.275,
                "end_time": 11.5068182,
                "pitch": 64,
                "velocity": 80,
                "duration": 0.2318182,
                "tempo": 120.0
            },
            {
                "start_time": 11.7068182,
                "end_time": 11.9477273,
                "pitch": 64,
                "velocity": 80,
                "duration": 0.2409091,
                "tempo": 120.0
            },
            {
                "start_time": 11.9477273,
                "end_time": 12.5727273,
                "pitch": 64,
                "velocity": 80,
                "duration": 0.625,
                "tempo": 120.0
            },
            {
                "start_time": 12.5727273,
                "end_time": 12.7613636,
                "pitch": 64,
                "velocity": 80,
                "duration": 0.1886364,
                "tempo": 120.0
            },
            {
                "start_time": 12.9909091,
                "end_time": 13.1931818,
                "pitch": 64,
                "velocity": 80,
                "duration": 0.2022727,
                "tempo": 120.0
            },
            {
                "start_time": 13.3931818,
                "end_time": 13.6340909,
                "pitch": 64,
                "velocity": 80,
                "duration": 0.2409091,
                "tempo": 120.0
            },
            {
                "start_time": 13.6340909,
                "end_time": 14.2772727,
                "pitch": 64,
                "velocity": 80,
                "duration": 0.6431818,
                "tempo": 120.0
            },
            {
                "start_time": 14.2772727,
                "end_time": 14.4772727,
                "pitch": 64,
                "velocity": 80,
                "duration": 0.2,
                "tempo": 120.0
            },
            {
                "start_time": 14.6931818,
                "end_time": 14.8795455,
                "pitch": 64,
                "velocity": 80,
                "duration": 0.1863636,
                "tempo": 120.0
            },
            {
                "start_time": 15.1204545,
                "end_time": 15.3227273,
                "pitch": 64,
                "velocity": 80,
                "duration": 0.2022727,
                "tempo": 120.0
            },
            {
                "start_time": 15.3227273,
                "end_time": 15.9636364,
                "pitch": 64,
                "velocity": 80,
                "duration": 0.6409091,
                "tempo": 120.0
            },
            {
                "start_time": 15.9636364,
                "end_time": 16.1954545,
                "pitch": 64,
                "velocity": 80,
                "duration": 0.2318182,
                "tempo": 120.0
            },
            {
                "start_time": 16.3954545,
                "end_time": 16.5954545,
                "pitch": 64,
                "velocity": 80,
                "duration": 0.2,
                "tempo": 120.0
            },
            {
                "start_time": 16.8204545,
                "end_time": 17.0045455,
                "pitch": 64,
                "velocity": 80,
                "duration": 0.1840909,
                "tempo": 120.0
            },
            {
                "start_time": 17.0045455,
                "end_time": 17.6477273,
                "pitch": 62,
                "velocity": 80,
                "duration": 0.6431818,
                "tempo": 120.0
            },
            {
                "start_time": 17.6477273,
                "end_time": 17.8795455,
                "pitch": 62,
                "velocity": 80,
                "duration": 0.2318182,
                "tempo": 120.0
            },
            {
                "start_time": 18.0795455,
                "end_time": 18.3204545,
                "pitch": 62,
                "velocity": 80,
                "duration": 0.2409091,
                "tempo": 120.0
            },
            {
                "start_time": 18.525,
                "end_time": 18.7318182,
                "pitch": 62,
                "velocity": 80,
                "duration": 0.2068182,
                "tempo": 120.0
            },
            {
                "start_time": 18.7318182,
                "end_time": 19.3613636,
                "pitch": 62,
                "velocity": 80,
                "duration": 0.6295455,
                "tempo": 120.0
            },
            {
                "start_time": 19.3613636,
                "end_time": 19.5636364,
                "pitch": 62,
                "velocity": 80,
                "duration": 0.2022727,
                "tempo": 120.0
            },
            {
                "start_time": 19.7636364,
                "end_time": 20.0045455,
                "pitch": 62,
                "velocity": 80,
                "duration": 0.2409091,
                "tempo": 120.0
            },
            {
                "start_time": 20.2090909,
                "end_time": 20.4454545,
                "pitch": 62,
                "velocity": 80,
                "duration": 0.2363636,
                "tempo": 120.0
            },
            {
                "start_time": 20.4454545,
                "end_time": 21.0636364,
                "pitch": 62,
                "velocity": 80,
                "duration": 0.6181818,
                "tempo": 120.0
            },
            {
                "start_time": 21.0636364,
                "end_time": 21.25,
                "pitch": 62,
                "velocity": 80,
                "duration": 0.1863636,
                "tempo": 120.0
            },
            {
                "start_time": 21.4954545,
                "end_time": 21.7,
                "pitch": 62,
                "velocity": 80,
                "duration": 0.2045455,
                "tempo": 120.0
            },
            {
                "start_time": 21.9022727,
                "end_time": 22.1318182,
                "pitch": 62,
                "velocity": 80,
                "duration": 0.2295455,
                "tempo": 120.0
            },
            {
                "start_time": 22.1318182,
                "end_time": 22.7636364,
                "pitch": 62,
                "velocity": 80,
                "duration": 0.6318182,
                "tempo": 120.0
            },
            {
                "start_time": 22.7636364,
                "end_time": 22.9659091,
                "pitch": 62,
                "velocity": 80,
                "duration": 0.2022727,
                "tempo": 120.0
            },
            {
                "start_time": 23.1954545,
                "end_time": 23.3863636,
                "pitch": 62,
                "velocity": 80,
                "duration": 0.1909091,
                "tempo": 120.0
            },
            {
                "start_time": 23.6181818,
                "end_time": 23.8181818,
                "pitch": 62,
                "velocity": 80,
                "duration": 0.2,
                "tempo": 120.0
            },
            {
                "start_time": 23.8181818,
                "end_time": 24.45,
                "pitch": 62,
                "velocity": 80,
                "duration": 0.6318182,
                "tempo": 120.0
            },
            {
                "start_time": 24.45,
                "end_time": 24.6909091,
                "pitch": 62,
                "velocity": 80,
                "duration": 0.2409091,
                "tempo": 120.0
            },
            {
                "start_time": 24.8977273,
                "end_time": 25.1022727,
                "pitch": 62,
                "velocity": 80,
                "duration": 0.2045455,
                "tempo": 120.0
            },
            {
                "start_time": 25.3181818,
                "end_time": 25.5045455,
                "pitch": 62,
                "velocity": 80,
                "duration": 0.1863636,
                "tempo": 120.0
            },
            {
                "start_time": 25.5045455,
                "end_time": 26.1409091,
                "pitch": 64,
                "velocity": 80,
                "duration": 0.6363636,
                "tempo": 120.0
            },
            {
                "start_time": 26.1409091,
                "end_time": 26.3886364,
                "pitch": 64,
                "velocity": 80,
                "duration": 0.2477273,
                "tempo": 120.0
            },
            {
                "start_time": 26.5886364,
                "end_time": 26.8204545,
                "pitch": 64,
                "velocity": 80,
                "duration": 0.2318182,
                "tempo": 120.0
            },
            {
                "start_time": 27.0204545,
                "end_time": 27.2204545,
                "pitch": 64,
                "velocity": 80,
                "duration": 0.2,
                "tempo": 120.0
            },
            {
                "start_time": 27.2318182,
                "end_time": 27.8727273,
                "pitch": 64,
                "velocity": 80,
                "duration": 0.6409091,
                "tempo": 120.0
            },
            {
                "start_time": 27.8727273,
                "end_time": 28.075,
                "pitch": 64,
                "velocity": 80,
                "duration": 0.2022727,
                "tempo": 120.0
            },
            {
                "start_time": 28.275,
                "end_time": 28.5068182,
                "pitch": 64,
                "velocity": 80,
                "duration": 0.2318182,
                "tempo": 120.0
            },
            {
                "start_time": 28.7068182,
                "end_time": 28.9477273,
                "pitch": 64,
                "velocity": 80,
                "duration": 0.2409091,
                "tempo": 120.0
            },
            {
                "start_time": 28.9477273,
                "end_time": 29.5727273,
                "pitch": 64,
                "velocity": 80,
                "duration": 0.625,
                "tempo": 120.0
            },
            {
                "start_time": 29.5727273,
                "end_time": 29.7613636,
                "pitch": 64,
                "velocity": 80,
                "duration": 0.1886364,
                "tempo": 120.0
            },
            {
                "start_time": 29.9909091,
                "end_time": 30.1931818,
                "pitch": 64,
                "velocity": 80,
                "duration": 0.2022727,
                "tempo": 120.0
            },
            {
                "start_time": 30.3931818,
                "end_time": 30.6340909,
                "pitch": 64,
                "velocity": 80,
                "duration": 0.2409091,
                "tempo": 120.0
            },
            {
                "start_time": 30.6340909,
                "end_time": 31.2772727,
                "pitch": 64,
                "velocity": 80,
                "duration": 0.6431818,
                "tempo": 120.0
            },
            {
                "start_time": 31.2772727,
                "end_time": 31.4772727,
                "pitch": 64,
                "velocity": 80,
                "duration": 0.2,
                "tempo": 120.0
            },
            {
                "start_time": 31.6909091,
                "end_time": 31.8772727,
                "pitch": 64,
                "velocity": 80,
                "duration": 0.1863636,
                "tempo": 120.0
            },
            {
                "start_time": 32.1181818,
                "end_time": 32.3181818,
                "pitch": 64,
                "velocity": 80,
                "duration": 0.2,
                "tempo": 120.0
            },
            {
                "start_time": 32.3181818,
                "end_time": 32.9613636,
                "pitch": 62,
                "velocity": 80,
                "duration": 0.6431818,
                "tempo": 120.0
            },
            {
                "start_time": 32.9613636,
                "end_time": 33.1909091,
                "pitch": 62,
                "velocity": 80,
                "duration": 0.2295455,
                "tempo": 120.0
            },
            {
                "start_time": 33.3931818,
                "end_time": 33.5931818,
                "pitch": 62,
                "velocity": 80,
                "duration": 0.2,
                "tempo": 120.0
            },
            {
                "start_time": 33.8159091,
                "end_time": 34.0022727,
                "pitch": 62,
                "velocity": 80,
                "duration": 0.1863636,
                "tempo": 120.0
            },
            {
                "start_time": 34.0022727,
                "end_time": 34.6454545,
                "pitch": 62,
                "velocity": 80,
                "duration": 0.6431818,
                "tempo": 120.0
            },
            {
                "start_time": 34.6454545,
                "end_time": 34.875,
                "pitch": 62,
                "velocity": 80,
                "duration": 0.2295455,
                "tempo": 120.0
            },
            {
                "start_time": 35.0772727,
                "end_time": 35.3181818,
                "pitch": 62,
                "velocity": 80,
                "duration": 0.2409091,
                "tempo": 120.0
            },
            {
                "start_time": 35.5227273,
                "end_time": 35.7272727,
                "pitch": 62,
                "velocity": 80,
                "duration": 0.2045455,
                "tempo": 120.0
            },
            {
                "start_time": 35.7272727,
                "end_time": 36.3590909,
                "pitch": 62,
                "velocity": 80,
                "duration": 0.6318182,
                "tempo": 120.0
            },
            {
                "start_time": 36.3590909,
                "end_time": 36.5590909,
                "pitch": 62,
                "velocity": 80,
                "duration": 0.2,
                "tempo": 120.0
            },
            {
                "start_time": 36.7613636,
                "end_time": 37.0022727,
                "pitch": 62,
                "velocity": 80,
                "duration": 0.2409091,
                "tempo": 120.0
            },
            {
                "start_time": 37.2068182,
                "end_time": 37.4431818,
                "pitch": 62,
                "velocity": 80,
                "duration": 0.2363636,
                "tempo": 120.0
            },
            {
                "start_time": 37.4431818,
                "end_time": 38.0590909,
                "pitch": 64,
                "velocity": 80,
                "duration": 0.6159091,
                "tempo": 120.0
            },
            {
                "start_time": 38.0590909,
                "end_time": 38.2454545,
                "pitch": 64,
                "velocity": 80,
                "duration": 0.1863636,
                "tempo": 120.0
            },
            {
                "start_time": 38.4863636,
                "end_time": 38.6863636,
                "pitch": 64,
                "velocity": 80,
                "duration": 0.2,
                "tempo": 120.0
            },
            {
                "start_time": 38.8909091,
                "end_time": 39.1272727,
                "pitch": 64,
                "velocity": 80,
                "duration": 0.2363636,
                "tempo": 120.0
            },
            {
                "start_time": 39.1272727,
                "end_time": 39.7590909,
                "pitch": 64,
                "velocity": 80,
                "duration": 0.6318182,
                "tempo": 120.0
            },
            {
                "start_time": 39.7590909,
                "end_time": 39.9613636,
                "pitch": 64,
                "velocity": 80,
                "duration": 0.2022727,
                "tempo": 120.0
            },
            {
                "start_time": 40.1840909,
                "end_time": 40.3704545,
                "pitch": 64,
                "velocity": 80,
                "duration": 0.1863636,
                "tempo": 120.0
            },
            {
                "start_time": 40.6068182,
                "end_time": 40.7977273,
                "pitch": 64,
                "velocity": 80,
                "duration": 0.1909091,
                "tempo": 120.0
            }
        ],
        "Electric Guitar (clean)": [
            {
                "start_time": 0.25,
                "end_time": 0.45,
                "pitch": 45,
                "velocity": 127,
                "duration": 0.2,
                "tempo": 120.0
            },
            {
                "start_time": 0.45,
                "end_time": 0.65,
                "pitch": 45,
                "velocity": 127,
                "duration": 0.2,
                "tempo": 120.0
            },
            {
                "start_time": 0.65,
                "end_time": 0.8818182,
                "pitch": 45,
                "velocity": 127,
                "duration": 0.2318182,
                "tempo": 120.0
            },
            {
                "start_time": 0.8818182,
                "end_time": 1.0818182,
                "pitch": 45,
                "velocity": 127,
                "duration": 0.2,
                "tempo": 120.0
            },
            {
                "start_time": 1.0818182,
                "end_time": 1.3227273,
                "pitch": 45,
                "velocity": 127,
                "duration": 0.2409091,
                "tempo": 120.0
            },
            {
                "start_time": 1.3227273,
                "end_time": 1.5295455,
                "pitch": 45,
                "velocity": 127,
                "duration": 0.2068182,
                "tempo": 120.0
            },
            {
                "start_time": 1.5295455,
                "end_time": 1.7340909,
                "pitch": 45,
                "velocity": 127,
                "duration": 0.2045455,
                "tempo": 120.0
            },
            {
                "start_time": 1.7340909,
                "end_time": 1.9477273,
                "pitch": 44,
                "velocity": 127,
                "duration": 0.2136364,
                "tempo": 120.0
            },
            {
                "start_time": 1.9477273,
                "end_time": 2.1340909,
                "pitch": 44,
                "velocity": 127,
                "duration": 0.1863636,
                "tempo": 120.0
            },
            {
                "start_time": 2.1340909,
                "end_time": 2.3659091,
                "pitch": 44,
                "velocity": 127,
                "duration": 0.2318182,
                "tempo": 120.0
            },
            {
                "start_time": 2.3659091,
                "end_time": 2.5659091,
                "pitch": 44,
                "velocity": 127,
                "duration": 0.2,
                "tempo": 120.0
            },
            {
                "start_time": 2.5659091,
                "end_time": 2.7659091,
                "pitch": 44,
                "velocity": 127,
                "duration": 0.2,
                "tempo": 120.0
            },
            {
                "start_time": 2.7659091,
                "end_time": 3.0068182,
                "pitch": 44,
                "velocity": 127,
                "duration": 0.2409091,
                "tempo": 120.0
            },
            {
                "start_time": 3.0068182,
                "end_time": 3.2136364,
                "pitch": 44,
                "velocity": 127,
                "duration": 0.2068182,
                "tempo": 120.0
            },
            {
                "start_time": 3.2136364,
                "end_time": 3.45,
                "pitch": 44,
                "velocity": 127,
                "duration": 0.2363636,
                "tempo": 120.0
            },
            {
                "start_time": 3.45,
                "end_time": 3.65,
                "pitch": 43,
                "velocity": 127,
                "duration": 0.2,
                "tempo": 120.0
            },
            {
                "start_time": 3.65,
                "end_time": 3.85,
                "pitch": 43,
                "velocity": 127,
                "duration": 0.2,
                "tempo": 120.0
            },
            {
                "start_time": 3.85,
                "end_time": 4.0636364,
                "pitch": 43,
                "velocity": 127,
                "duration": 0.2136364,
                "tempo": 120.0
            },
            {
                "start_time": 4.0636364,
                "end_time": 4.25,
                "pitch": 43,
                "velocity": 127,
                "duration": 0.1863636,
                "tempo": 120.0
            },
            {
                "start_time": 4.25,
                "end_time": 4.4954545,
                "pitch": 43,
                "velocity": 127,
                "duration": 0.2454545,
                "tempo": 120.0
            },
            {
                "start_time": 4.4954545,
                "end_time": 4.7022727,
                "pitch": 43,
                "velocity": 127,
                "duration": 0.2068182,
                "tempo": 120.0
            },
            {
                "start_time": 4.7022727,
                "end_time": 4.9022727,
                "pitch": 43,
                "velocity": 127,
                "duration": 0.2,
                "tempo": 120.0
            },
            {
                "start_time": 4.9022727,
                "end_time": 5.1340909,
                "pitch": 43,
                "velocity": 127,
                "duration": 0.2318182,
                "tempo": 120.0
            },
            {
                "start_time": 5.1340909,
                "end_time": 5.3340909,
                "pitch": 42,
                "velocity": 127,
                "duration": 0.2,
                "tempo": 120.0
            },
            {
                "start_time": 5.3340909,
                "end_time": 5.5636364,
                "pitch": 42,
                "velocity": 127,
                "duration": 0.2295455,
                "tempo": 120.0
            },
            {
                "start_time": 5.5636364,
                "end_time": 5.775,
                "pitch": 42,
                "velocity": 127,
                "duration": 0.2113636,
                "tempo": 120.0
            },
            {
                "start_time": 5.775,
                "end_time": 5.9659091,
                "pitch": 42,
                "velocity": 127,
                "duration": 0.1909091,
                "tempo": 120.0
            },
            {
                "start_time": 5.9659091,
                "end_time": 6.1909091,
                "pitch": 42,
                "velocity": 127,
                "duration": 0.225,
                "tempo": 120.0
            },
            {
                "start_time": 6.1909091,
                "end_time": 6.3795455,
                "pitch": 42,
                "velocity": 127,
                "duration": 0.1886364,
                "tempo": 120.0
            },
            {
                "start_time": 6.3795455,
                "end_time": 6.6136364,
                "pitch": 42,
                "velocity": 127,
                "duration": 0.2340909,
                "tempo": 120.0
            },
            {
                "start_time": 6.6136364,
                "end_time": 6.8204545,
                "pitch": 42,
                "velocity": 127,
                "duration": 0.2068182,
                "tempo": 120.0
            },
            {
                "start_time": 6.8204545,
                "end_time": 7.0204545,
                "pitch": 43,
                "velocity": 127,
                "duration": 0.2,
                "tempo": 120.0
            },
            {
                "start_time": 7.0204545,
                "end_time": 7.2522727,
                "pitch": 43,
                "velocity": 127,
                "duration": 0.2318182,
                "tempo": 120.0
            },
            {
                "start_time": 7.2522727,
                "end_time": 7.4659091,
                "pitch": 43,
                "velocity": 127,
                "duration": 0.2136364,
                "tempo": 120.0
            },
            {
                "start_time": 7.4659091,
                "end_time": 7.7022727,
                "pitch": 43,
                "velocity": 127,
                "duration": 0.2363636,
                "tempo": 120.0
            },
            {
                "start_time": 7.7022727,
                "end_time": 7.9045455,
                "pitch": 43,
                "velocity": 127,
                "duration": 0.2022727,
                "tempo": 120.0
            },
            {
                "start_time": 7.9045455,
                "end_time": 8.1045455,
                "pitch": 43,
                "velocity": 127,
                "duration": 0.2,
                "tempo": 120.0
            },
            {
                "start_time": 8.1045455,
                "end_time": 8.3181818,
                "pitch": 43,
                "velocity": 127,
                "duration": 0.2136364,
                "tempo": 120.0
            },
            {
                "start_time": 8.3181818,
                "end_time": 8.5045455,
                "pitch": 43,
                "velocity": 127,
                "duration": 0.1863636,
                "tempo": 120.0
            },
            {
                "start_time": 8.5045455,
                "end_time": 8.7363636,
                "pitch": 42,
                "velocity": 127,
                "duration": 0.2318182,
                "tempo": 120.0
            },
            {
                "start_time": 8.7363636,
                "end_time": 8.9363636,
                "pitch": 42,
                "velocity": 127,
                "duration": 0.2,
                "tempo": 120.0
            },
            {
                "start_time": 8.9363636,
                "end_time": 9.1477273,
                "pitch": 42,
                "velocity": 127,
                "duration": 0.2113636,
                "tempo": 120.0
            },
            {
                "start_time": 9.1477273,
                "end_time": 9.3772727,
                "pitch": 42,
                "velocity": 127,
                "duration": 0.2295455,
                "tempo": 120.0
            },
            {
                "start_time": 9.3772727,
                "end_time": 9.5840909,
                "pitch": 42,
                "velocity": 127,
                "duration": 0.2068182,
                "tempo": 120.0
            },
            {
                "start_time": 9.5840909,
                "end_time": 9.8181818,
                "pitch": 42,
                "velocity": 127,
                "duration": 0.2340909,
                "tempo": 120.0
            },
            {
                "start_time": 9.8181818,
                "end_time": 10.0204545,
                "pitch": 42,
                "velocity": 127,
                "duration": 0.2022727,
                "tempo": 120.0
            },
            {
                "start_time": 10.0204545,
                "end_time": 10.2204545,
                "pitch": 42,
                "velocity": 127,
                "duration": 0.2,
                "tempo": 120.0
            },
            {
                "start_time": 10.2204545,
                "end_time": 10.4363636,
                "pitch": 41,
                "velocity": 127,
                "duration": 0.2159091,
                "tempo": 120.0
            },
            {
                "start_time": 10.4363636,
                "end_time": 10.6227273,
                "pitch": 41,
                "velocity": 127,
                "duration": 0.1863636,
                "tempo": 120.0
            },
            {
                "start_time": 10.6227273,
                "end_time": 10.8681818,
                "pitch": 41,
                "velocity": 127,
                "duration": 0.2454545,
                "tempo": 120.0
            },
            {
                "start_time": 10.8681818,
                "end_time": 11.075,
                "pitch": 41,
                "velocity": 127,
                "duration": 0.2068182,
                "tempo": 120.0
            },
            {
                "start_time": 11.075,
                "end_time": 11.275,
                "pitch": 41,
                "velocity": 127,
                "duration": 0.2,
                "tempo": 120.0
            },
            {
                "start_time": 11.275,
                "end_time": 11.5068182,
                "pitch": 41,
                "velocity": 127,
                "duration": 0.2318182,
                "tempo": 120.0
            },
            {
                "start_time": 11.5068182,
                "end_time": 11.7068182,
                "pitch": 41,
                "velocity": 127,
                "duration": 0.2,
                "tempo": 120.0
            },
            {
                "start_time": 11.7068182,
                "end_time": 11.9477273,
                "pitch": 41,
                "velocity": 127,
                "duration": 0.2409091,
                "tempo": 120.0
            },
            {
                "start_time": 11.9477273,
                "end_time": 12.1431818,
                "pitch": 44,
                "velocity": 127,
                "duration": 0.1954545,
                "tempo": 120.0
            },
            {
                "start_time": 12.1431818,
                "end_time": 12.3477273,
                "pitch": 44,
                "velocity": 127,
                "duration": 0.2045455,
                "tempo": 120.0
            },
            {
                "start_time": 12.3477273,
                "end_time": 12.5727273,
                "pitch": 44,
                "velocity": 127,
                "duration": 0.225,
                "tempo": 120.0
            },
            {
                "start_time": 12.5727273,
                "end_time": 12.7613636,
                "pitch": 44,
                "velocity": 127,
                "duration": 0.1886364,
                "tempo": 120.0
            },
            {
                "start_time": 12.7613636,
                "end_time": 12.9909091,
                "pitch": 44,
                "velocity": 127,
                "duration": 0.2295455,
                "tempo": 120.0
            },
            {
                "start_time": 12.9909091,
                "end_time": 13.1931818,
                "pitch": 44,
                "velocity": 127,
                "duration": 0.2022727,
                "tempo": 120.0
            },
            {
                "start_time": 13.1931818,
                "end_time": 13.3931818,
                "pitch": 44,
                "velocity": 127,
                "duration": 0.2,
                "tempo": 120.0
            },
            {
                "start_time": 13.3931818,
                "end_time": 13.6340909,
                "pitch": 44,
                "velocity": 127,
                "duration": 0.2409091,
                "tempo": 120.0
            },
            {
                "start_time": 13.6340909,
                "end_time": 13.8295455,
                "pitch": 45,
                "velocity": 127,
                "duration": 0.1954545,
                "tempo": 120.0
            },
            {
                "start_time": 13.8386364,
                "end_time": 14.075,
                "pitch": 45,
                "velocity": 127,
                "duration": 0.2363636,
                "tempo": 120.0
            },
            {
                "start_time": 14.075,
                "end_time": 14.2772727,
                "pitch": 45,
                "velocity": 127,
                "duration": 0.2022727,
                "tempo": 120.0
            },
            {
                "start_time": 14.2772727,
                "end_time": 14.4772727,
                "pitch": 45,
                "velocity": 127,
                "duration": 0.2,
                "tempo": 120.0
            },
            {
                "start_time": 14.4772727,
                "end_time": 14.6931818,
                "pitch": 45,
                "velocity": 127,
                "duration": 0.2159091,
                "tempo": 120.0
            },
            {
                "start_time": 14.6931818,
                "end_time": 14.8795455,
                "pitch": 45,
                "velocity": 127,
                "duration": 0.1863636,
                "tempo": 120.0
            },
            {
                "start_time": 14.8795455,
                "end_time": 15.1204545,
                "pitch": 45,
                "velocity": 127,
                "duration": 0.2409091,
                "tempo": 120.0
            },
            {
                "start_time": 15.1204545,
                "end_time": 15.3227273,
                "pitch": 45,
                "velocity": 127,
                "duration": 0.2022727,
                "tempo": 120.0
            },
            {
                "start_time": 15.3227273,
                "end_time": 15.5272727,
                "pitch": 44,
                "velocity": 127,
                "duration": 0.2045455,
                "tempo": 120.0
            },
            {
                "start_time": 15.5272727,
                "end_time": 15.7636364,
                "pitch": 44,
                "velocity": 127,
                "duration": 0.2363636,
                "tempo": 120.0
            },
            {
                "start_time": 15.7636364,
                "end_time": 15.9636364,
                "pitch": 44,
                "velocity": 127,
                "duration": 0.2,
                "tempo": 120.0
            },
            {
                "start_time": 15.9636364,
                "end_time": 16.1954545,
                "pitch": 44,
                "velocity": 127,
                "duration": 0.2318182,
                "tempo": 120.0
            },
            {
                "start_time": 16.1954545,
                "end_time": 16.3954545,
                "pitch": 44,
                "velocity": 127,
                "duration": 0.2,
                "tempo": 120.0
            },
            {
                "start_time": 16.3954545,
                "end_time": 16.5954545,
                "pitch": 44,
                "velocity": 127,
                "duration": 0.2,
                "tempo": 120.0
            },
            {
                "start_time": 16.5954545,
                "end_time": 16.8204545,
                "pitch": 44,
                "velocity": 127,
                "duration": 0.225,
                "tempo": 120.0
            },
            {
                "start_time": 16.8204545,
                "end_time": 17.0045455,
                "pitch": 44,
                "velocity": 127,
                "duration": 0.1840909,
                "tempo": 120.0
            },
            {
                "start_time": 17.0045455,
                "end_time": 17.2409091,
                "pitch": 43,
                "velocity": 127,
                "duration": 0.2363636,
                "tempo": 120.0
            },
            {
                "start_time": 17.2409091,
                "end_time": 17.4477273,
                "pitch": 43,
                "velocity": 127,
                "duration": 0.2068182,
                "tempo": 120.0
            },
            {
                "start_time": 17.4477273,
                "end_time": 17.6477273,
                "pitch": 43,
                "velocity": 127,
                "duration": 0.2,
                "tempo": 120.0
            },
            {
                "start_time": 17.6477273,
                "end_time": 17.8795455,
                "pitch": 43,
                "velocity": 127,
                "duration": 0.2318182,
                "tempo": 120.0
            },
            {
                "start_time": 17.8795455,
                "end_time": 18.0795455,
                "pitch": 43,
                "velocity": 127,
                "duration": 0.2,
                "tempo": 120.0
            },
            {
                "start_time": 18.0795455,
                "end_time": 18.3204545,
                "pitch": 43,
                "velocity": 127,
                "duration": 0.2409091,
                "tempo": 120.0
            },
            {
                "start_time": 18.3204545,
                "end_time": 18.525,
                "pitch": 43,
                "velocity": 127,
                "duration": 0.2045455,
                "tempo": 120.0
            },
            {
                "start_time": 18.525,
                "end_time": 18.7318182,
                "pitch": 43,
                "velocity": 127,
                "duration": 0.2068182,
                "tempo": 120.0
            },
            {
                "start_time": 18.7318182,
                "end_time": 18.9454545,
                "pitch": 42,
                "velocity": 127,
                "duration": 0.2136364,
                "tempo": 120.0
            },
            {
                "start_time": 18.9454545,
                "end_time": 19.1318182,
                "pitch": 42,
                "velocity": 127,
                "duration": 0.1863636,
                "tempo": 120.0
            },
            {
                "start_time": 19.1318182,
                "end_time": 19.3613636,
                "pitch": 42,
                "velocity": 127,
                "duration": 0.2295455,
                "tempo": 120.0
            },
            {
                "start_time": 19.3613636,
                "end_time": 19.5636364,
                "pitch": 42,
                "velocity": 127,
                "duration": 0.2022727,
                "tempo": 120.0
            },
            {
                "start_time": 19.5636364,
                "end_time": 19.7636364,
                "pitch": 42,
                "velocity": 127,
                "duration": 0.2,
                "tempo": 120.0
            },
            {
                "start_time": 19.7636364,
                "end_time": 20.0045455,
                "pitch": 42,
                "velocity": 127,
                "duration": 0.2409091,
                "tempo": 120.0
            },
            {
                "start_time": 20.0045455,
                "end_time": 20.2090909,
                "pitch": 42,
                "velocity": 127,
                "duration": 0.2045455,
                "tempo": 120.0
            },
            {
                "start_time": 20.2090909,
                "end_time": 20.4454545,
                "pitch": 42,
                "velocity": 127,
                "duration": 0.2363636,
                "tempo": 120.0
            },
            {
                "start_time": 20.4454545,
                "end_time": 20.6454545,
                "pitch": 41,
                "velocity": 127,
                "duration": 0.2,
                "tempo": 120.0
            },
            {
                "start_time": 20.6454545,
                "end_time": 20.8477273,
                "pitch": 41,
                "velocity": 127,
                "duration": 0.2022727,
                "tempo": 120.0
            },
            {
                "start_time": 20.8477273,
                "end_time": 21.0636364,
                "pitch": 41,
                "velocity": 127,
                "duration": 0.2159091,
                "tempo": 120.0
            },
            {
                "start_time": 21.0636364,
                "end_time": 21.25,
                "pitch": 41,
                "velocity": 127,
                "duration": 0.1863636,
                "tempo": 120.0
            },
            {
                "start_time": 21.25,
                "end_time": 21.4954545,
                "pitch": 41,
                "velocity": 127,
                "duration": 0.2454545,
                "tempo": 120.0
            },
            {
                "start_time": 21.4954545,
                "end_time": 21.7,
                "pitch": 41,
                "velocity": 127,
                "duration": 0.2045455,
                "tempo": 120.0
            },
            {
                "start_time": 21.7,
                "end_time": 21.9022727,
                "pitch": 41,
                "velocity": 127,
                "duration": 0.2022727,
                "tempo": 120.0
            },
            {
                "start_time": 21.9022727,
                "end_time": 22.1318182,
                "pitch": 41,
                "velocity": 127,
                "duration": 0.2295455,
                "tempo": 120.0
            },
            {
                "start_time": 22.1318182,
                "end_time": 22.3340909,
                "pitch": 43,
                "velocity": 127,
                "duration": 0.2022727,
                "tempo": 120.0
            },
            {
                "start_time": 22.3340909,
                "end_time": 22.5636364,
                "pitch": 43,
                "velocity": 127,
                "duration": 0.2295455,
                "tempo": 120.0
            },
            {
                "start_time": 22.5636364,
                "end_time": 22.7636364,
                "pitch": 43,
                "velocity": 127,
                "duration": 0.2,
                "tempo": 120.0
            },
            {
                "start_time": 22.7636364,
                "end_time": 22.9659091,
                "pitch": 43,
                "velocity": 127,
                "duration": 0.2022727,
                "tempo": 120.0
            },
            {
                "start_time": 22.9659091,
                "end_time": 23.1954545,
                "pitch": 43,
                "velocity": 127,
                "duration": 0.2295455,
                "tempo": 120.0
            },
            {
                "start_time": 23.1954545,
                "end_time": 23.3863636,
                "pitch": 43,
                "velocity": 127,
                "duration": 0.1909091,
                "tempo": 120.0
            },
            {
                "start_time": 23.3863636,
                "end_time": 23.6181818,
                "pitch": 43,
                "velocity": 127,
                "duration": 0.2318182,
                "tempo": 120.0
            },
            {
                "start_time": 23.6181818,
                "end_time": 23.8181818,
                "pitch": 43,
                "velocity": 127,
                "duration": 0.2,
                "tempo": 120.0
            },
            {
                "start_time": 23.8181818,
                "end_time": 24.0181818,
                "pitch": 41,
                "velocity": 127,
                "duration": 0.2,
                "tempo": 120.0
            },
            {
                "start_time": 24.0181818,
                "end_time": 24.25,
                "pitch": 41,
                "velocity": 127,
                "duration": 0.2318182,
                "tempo": 120.0
            },
            {
                "start_time": 24.25,
                "end_time": 24.4613636,
                "pitch": 41,
                "velocity": 127,
                "duration": 0.2113636,
                "tempo": 120.0
            },
            {
                "start_time": 24.4613636,
                "end_time": 24.6909091,
                "pitch": 41,
                "velocity": 127,
                "duration": 0.2295455,
                "tempo": 120.0
            },
            {
                "start_time": 24.6909091,
                "end_time": 24.8977273,
                "pitch": 41,
                "velocity": 127,
                "duration": 0.2068182,
                "tempo": 120.0
            },
            {
                "start_time": 24.8977273,
                "end_time": 25.1022727,
                "pitch": 41,
                "velocity": 127,
                "duration": 0.2045455,
                "tempo": 120.0
            },
            {
                "start_time": 25.1022727,
                "end_time": 25.3181818,
                "pitch": 41,
                "velocity": 127,
                "duration": 0.2159091,
                "tempo": 120.0
            },
            {
                "start_time": 25.3181818,
                "end_time": 25.5045455,
                "pitch": 41,
                "velocity": 127,
                "duration": 0.1863636,
                "tempo": 120.0
            },
            {
                "start_time": 25.5045455,
                "end_time": 25.7363636,
                "pitch": 40,
                "velocity": 127,
                "duration": 0.2318182,
                "tempo": 120.0
            },
            {
                "start_time": 25.7363636,
                "end_time": 25.9363636,
                "pitch": 40,
                "velocity": 127,
                "duration": 0.2,
                "tempo": 120.0
            },
            {
                "start_time": 25.9363636,
                "end_time": 26.1522727,
                "pitch": 40,
                "velocity": 127,
                "duration": 0.2159091,
                "tempo": 120.0
            },
            {
                "start_time": 26.1522727,
                "end_time": 26.3886364,
                "pitch": 40,
                "velocity": 127,
                "duration": 0.2363636,
                "tempo": 120.0
            },
            {
                "start_time": 26.3886364,
                "end_time": 26.5886364,
                "pitch": 40,
                "velocity": 127,
                "duration": 0.2,
                "tempo": 120.0
            },
            {
                "start_time": 26.5886364,
                "end_time": 26.8204545,
                "pitch": 40,
                "velocity": 127,
                "duration": 0.2318182,
                "tempo": 120.0
            },
            {
                "start_time": 26.8204545,
                "end_time": 27.0204545,
                "pitch": 40,
                "velocity": 127,
                "duration": 0.2,
                "tempo": 120.0
            },
            {
                "start_time": 27.0204545,
                "end_time": 27.2204545,
                "pitch": 40,
                "velocity": 127,
                "duration": 0.2,
                "tempo": 120.0
            },
            {
                "start_time": 27.2318182,
                "end_time": 27.4409091,
                "pitch": 45,
                "velocity": 127,
                "duration": 0.2090909,
                "tempo": 120.0
            },
            {
                "start_time": 27.4409091,
                "end_time": 27.6318182,
                "pitch": 45,
                "velocity": 127,
                "duration": 0.1909091,
                "tempo": 120.0
            },
            {
                "start_time": 27.6431818,
                "end_time": 27.8727273,
                "pitch": 45,
                "velocity": 127,
                "duration": 0.2295455,
                "tempo": 120.0
            },
            {
                "start_time": 27.8727273,
                "end_time": 28.075,
                "pitch": 45,
                "velocity": 127,
                "duration": 0.2022727,
                "tempo": 120.0
            },
            {
                "start_time": 28.075,
                "end_time": 28.275,
                "pitch": 45,
                "velocity": 127,
                "duration": 0.2,
                "tempo": 120.0
            },
            {
                "start_time": 28.275,
                "end_time": 28.5068182,
                "pitch": 45,
                "velocity": 127,
                "duration": 0.2318182,
                "tempo": 120.0
            },
            {
                "start_time": 28.5068182,
                "end_time": 28.7068182,
                "pitch": 45,
                "velocity": 127,
                "duration": 0.2,
                "tempo": 120.0
            },
            {
                "start_time": 28.7068182,
                "end_time": 28.9477273,
                "pitch": 45,
                "velocity": 127,
                "duration": 0.2409091,
                "tempo": 120.0
            },
            {
                "start_time": 28.9477273,
                "end_time": 29.1431818,
                "pitch": 44,
                "velocity": 127,
                "duration": 0.1954545,
                "tempo": 120.0
            },
            {
                "start_time": 29.1431818,
                "end_time": 29.3477273,
                "pitch": 44,
                "velocity": 127,
                "duration": 0.2045455,
                "tempo": 120.0
            },
            {
                "start_time": 29.3477273,
                "end_time": 29.5727273,
                "pitch": 44,
                "velocity": 127,
                "duration": 0.225,
                "tempo": 120.0
            },
            {
                "start_time": 29.5727273,
                "end_time": 29.7613636,
                "pitch": 44,
                "velocity": 127,
                "duration": 0.1886364,
                "tempo": 120.0
            },
            {
                "start_time": 29.7613636,
                "end_time": 29.9909091,
                "pitch": 44,
                "velocity": 127,
                "duration": 0.2295455,
                "tempo": 120.0
            },
            {
                "start_time": 29.9909091,
                "end_time": 30.1931818,
                "pitch": 44,
                "velocity": 127,
                "duration": 0.2022727,
                "tempo": 120.0
            },
            {
                "start_time": 30.1931818,
                "end_time": 30.3931818,
                "pitch": 44,
                "velocity": 127,
                "duration": 0.2,
                "tempo": 120.0
            },
            {
                "start_time": 30.3931818,
                "end_time": 30.6340909,
                "pitch": 44,
                "velocity": 127,
                "duration": 0.2409091,
                "tempo": 120.0
            },
            {
                "start_time": 30.6340909,
                "end_time": 30.8295455,
                "pitch": 43,
                "velocity": 127,
                "duration": 0.1954545,
                "tempo": 120.0
            },
            {
                "start_time": 30.8295455,
                "end_time": 31.075,
                "pitch": 43,
                "velocity": 127,
                "duration": 0.2454545,
                "tempo": 120.0
            },
            {
                "start_time": 31.075,
                "end_time": 31.2772727,
                "pitch": 43,
                "velocity": 127,
                "duration": 0.2022727,
                "tempo": 120.0
            },
            {
                "start_time": 31.2772727,
                "end_time": 31.4772727,
                "pitch": 43,
                "velocity": 127,
                "duration": 0.2,
                "tempo": 120.0
            },
            {
                "start_time": 31.4772727,
                "end_time": 31.6909091,
                "pitch": 43,
                "velocity": 127,
                "duration": 0.2136364,
                "tempo": 120.0
            },
            {
                "start_time": 31.6909091,
                "end_time": 31.8772727,
                "pitch": 43,
                "velocity": 127,
                "duration": 0.1863636,
                "tempo": 120.0
            },
            {
                "start_time": 31.8772727,
                "end_time": 32.1181818,
                "pitch": 43,
                "velocity": 127,
                "duration": 0.2409091,
                "tempo": 120.0
            },
            {
                "start_time": 32.1181818,
                "end_time": 32.3181818,
                "pitch": 43,
                "velocity": 127,
                "duration": 0.2,
                "tempo": 120.0
            },
            {
                "start_time": 32.3181818,
                "end_time": 32.525,
                "pitch": 42,
                "velocity": 127,
                "duration": 0.2068182,
                "tempo": 120.0
            },
            {
                "start_time": 32.525,
                "end_time": 32.7613636,
                "pitch": 42,
                "velocity": 127,
                "duration": 0.2363636,
                "tempo": 120.0
            },
            {
                "start_time": 32.7613636,
                "end_time": 32.9613636,
                "pitch": 42,
                "velocity": 127,
                "duration": 0.2,
                "tempo": 120.0
            },
            {
                "start_time": 32.9613636,
                "end_time": 33.1909091,
                "pitch": 42,
                "velocity": 127,
                "duration": 0.2295455,
                "tempo": 120.0
            },
            {
                "start_time": 33.1909091,
                "end_time": 33.3931818,
                "pitch": 42,
                "velocity": 127,
                "duration": 0.2022727,
                "tempo": 120.0
            },
            {
                "start_time": 33.3931818,
                "end_time": 33.5931818,
                "pitch": 42,
                "velocity": 127,
                "duration": 0.2,
                "tempo": 120.0
            },
            {
                "start_time": 33.5931818,
                "end_time": 33.8159091,
                "pitch": 42,
                "velocity": 127,
                "duration": 0.2227273,
                "tempo": 120.0
            },
            {
                "start_time": 33.8159091,
                "end_time": 34.0022727,
                "pitch": 42,
                "velocity": 127,
                "duration": 0.1863636,
                "tempo": 120.0
            },
            {
                "start_time": 34.0022727,
                "end_time": 34.2386364,
                "pitch": 43,
                "velocity": 127,
                "duration": 0.2363636,
                "tempo": 120.0
            },
            {
                "start_time": 34.2386364,
                "end_time": 34.4431818,
                "pitch": 43,
                "velocity": 127,
                "duration": 0.2045455,
                "tempo": 120.0
            },
            {
                "start_time": 34.4431818,
                "end_time": 34.6454545,
                "pitch": 43,
                "velocity": 127,
                "duration": 0.2022727,
                "tempo": 120.0
            },
            {
                "start_time": 34.6454545,
                "end_time": 34.875,
                "pitch": 43,
                "velocity": 127,
                "duration": 0.2295455,
                "tempo": 120.0
            },
            {
                "start_time": 34.875,
                "end_time": 35.0772727,
                "pitch": 43,
                "velocity": 127,
                "duration": 0.2022727,
                "tempo": 120.0
            },
            {
                "start_time": 35.0772727,
                "end_time": 35.3181818,
                "pitch": 43,
                "velocity": 127,
                "duration": 0.2409091,
                "tempo": 120.0
            },
            {
                "start_time": 35.3181818,
                "end_time": 35.5227273,
                "pitch": 43,
                "velocity": 127,
                "duration": 0.2045455,
                "tempo": 120.0
            },
            {
                "start_time": 35.5227273,
                "end_time": 35.7272727,
                "pitch": 43,
                "velocity": 127,
                "duration": 0.2045455,
                "tempo": 120.0
            },
            {
                "start_time": 35.7272727,
                "end_time": 35.9431818,
                "pitch": 42,
                "velocity": 127,
                "duration": 0.2159091,
                "tempo": 120.0
            },
            {
                "start_time": 35.9431818,
                "end_time": 36.1272727,
                "pitch": 42,
                "velocity": 127,
                "duration": 0.1840909,
                "tempo": 120.0
            },
            {
                "start_time": 36.1272727,
                "end_time": 36.3590909,
                "pitch": 42,
                "velocity": 127,
                "duration": 0.2318182,
                "tempo": 120.0
            },
            {
                "start_time": 36.3590909,
                "end_time": 36.5590909,
                "pitch": 42,
                "velocity": 127,
                "duration": 0.2,
                "tempo": 120.0
            },
            {
                "start_time": 36.5590909,
                "end_time": 36.7613636,
                "pitch": 42,
                "velocity": 127,
                "duration": 0.2022727,
                "tempo": 120.0
            },
            {
                "start_time": 36.7613636,
                "end_time": 37.0022727,
                "pitch": 42,
                "velocity": 127,
                "duration": 0.2409091,
                "tempo": 120.0
            },
            {
                "start_time": 37.0022727,
                "end_time": 37.2068182,
                "pitch": 42,
                "velocity": 127,
                "duration": 0.2045455,
                "tempo": 120.0
            },
            {
                "start_time": 37.2068182,
                "end_time": 37.4431818,
                "pitch": 42,
                "velocity": 127,
                "duration": 0.2363636,
                "tempo": 120.0
            },
            {
                "start_time": 37.4431818,
                "end_time": 37.6431818,
                "pitch": 41,
                "velocity": 127,
                "duration": 0.2,
                "tempo": 120.0
            },
            {
                "start_time": 37.6431818,
                "end_time": 37.8454545,
                "pitch": 41,
                "velocity": 127,
                "duration": 0.2022727,
                "tempo": 120.0
            },
            {
                "start_time": 37.8454545,
                "end_time": 38.0590909,
                "pitch": 41,
                "velocity": 127,
                "duration": 0.2136364,
                "tempo": 120.0
            },
            {
                "start_time": 38.0590909,
                "end_time": 38.2454545,
                "pitch": 41,
                "velocity": 127,
                "duration": 0.1863636,
                "tempo": 120.0
            },
            {
                "start_time": 38.2454545,
                "end_time": 38.4863636,
                "pitch": 41,
                "velocity": 127,
                "duration": 0.2409091,
                "tempo": 120.0
            },
            {
                "start_time": 38.4863636,
                "end_time": 38.6863636,
                "pitch": 41,
                "velocity": 127,
                "duration": 0.2,
                "tempo": 120.0
            },
            {
                "start_time": 38.6863636,
                "end_time": 38.8909091,
                "pitch": 41,
                "velocity": 127,
                "duration": 0.2045455,
                "tempo": 120.0
            },
            {
                "start_time": 38.8909091,
                "end_time": 39.1272727,
                "pitch": 41,
                "velocity": 127,
                "duration": 0.2363636,
                "tempo": 120.0
            },
            {
                "start_time": 39.1272727,
                "end_time": 39.3295455,
                "pitch": 44,
                "velocity": 127,
                "duration": 0.2022727,
                "tempo": 120.0
            },
            {
                "start_time": 39.3295455,
                "end_time": 39.5590909,
                "pitch": 44,
                "velocity": 127,
                "duration": 0.2295455,
                "tempo": 120.0
            },
            {
                "start_time": 39.5590909,
                "end_time": 39.7590909,
                "pitch": 44,
                "velocity": 127,
                "duration": 0.2,
                "tempo": 120.0
            },
            {
                "start_time": 39.7590909,
                "end_time": 39.9613636,
                "pitch": 44,
                "velocity": 127,
                "duration": 0.2022727,
                "tempo": 120.0
            },
            {
                "start_time": 39.9613636,
                "end_time": 40.1840909,
                "pitch": 44,
                "velocity": 127,
                "duration": 0.2227273,
                "tempo": 120.0
            },
            {
                "start_time": 40.1840909,
                "end_time": 40.3704545,
                "pitch": 44,
                "velocity": 127,
                "duration": 0.1863636,
                "tempo": 120.0
            },
            {
                "start_time": 40.3704545,
                "end_time": 40.6068182,
                "pitch": 44,
                "velocity": 127,
                "duration": 0.2363636,
                "tempo": 120.0
            },
            {
                "start_time": 40.6068182,
                "end_time": 40.7977273,
                "pitch": 44,
                "velocity": 127,
                "duration": 0.1909091,
                "tempo": 120.0
            }
        ]
    }
}