{
    "mood": "angry",
    "instruments": {
        "Lead 2 (sawtooth)": [
            {
                "start_time": 0.0340909,
                "end_time": 0.2159091,
                "pitch": 81,
                "velocity": 51,
                "duration": 0.1818182,
                "tempo": 120.0
            },
            {
                "start_time": 0.2159091,
                "end_time": 0.4159091,
                "pitch": 69,
                "velocity": 51,
                "duration": 0.2,
                "tempo": 120.0
            },
            {
                "start_time": 0.4340909,
                "end_time": 0.6386364,
                "pitch": 72,
                "velocity": 51,
                "duration": 0.2045455,
                "tempo": 120.0
            },
            {
                "start_time": 0.6386364,
                "end_time": 1.0181818,
                "pitch": 75,
                "velocity": 51,
                "duration": 0.3795455,
                "tempo": 120.0
            },
            {
                "start_time": 1.0181818,
                "end_time": 1.4090909,
                "pitch": 72,
                "velocity": 51,
                "duration": 0.3909091,
                "tempo": 120.0
            },
            {
                "start_time": 1.4090909,
                "end_time": 1.625,
                "pitch": 68,
                "velocity": 51,
                "duration": 0.2159091,
                "tempo": 120.0
            },
            {
                "start_time": 1.625,
                "end_time": 1.8181818,
                "pitch": 68,
                "velocity": 51,
                "duration": 0.1931818,
                "tempo": 120.0
            },
            {
                "start_time": 1.8181818,
                "end_time": 2.0295455,
                "pitch": 57,
                "velocity": 51,
                "duration": 0.2113636,
                "tempo": 120.0
            },
            {
                "start_time": 2.0477273,
                "end_time": 2.25,
                "pitch": 60,
                "velocity": 51,
                "duration": 0.2022727,
                "tempo": 120.0
            },
            {
                "start_time": 2.25,
                "end_time": 2.625,
                "pitch": 63,
                "velocity": 51,
                "duration": 0.375,
                "tempo": 120.0
            },
            {
                "start_time": 2.625,
                "end_time": 3.0159091,
                "pitch": 60,
                "velocity": 51,
                "duration": 0.3909091,
                "tempo": 120.0
            },
            {
                "start_time": 3.0159091,
                "end_time": 3.2340909,
                "pitch": 56,
                "velocity": 51,
                "duration": 0.2181818,
                "tempo": 120.0
            },
            {
                "start_time": 3.2340909,
                "end_time": 3.4272727,
                "pitch": 80,
                "velocity": 51,
                "duration": 0.1931818,
                "tempo": 120.0
            },
            {
                "start_time": 3.4272727,
                "end_time": 3.6386364,
                "pitch": 69,
                "velocity": 51,
                "duration": 0.2113636,
                "tempo": 120.0
            },
            {
                "start_time": 3.6545455,
                "end_time": 3.8568182,
                "pitch": 72,
                "velocity": 51,
                "duration": 0.2022727,
                "tempo": 120.0
            },
            {
                "start_time": 3.8568182,
                "end_time": 4.2295455,
                "pitch": 75,
                "velocity": 51,
                "duration": 0.3727273,
                "tempo": 120.0
            },
            {
                "start_time": 4.2295455,
                "end_time": 4.6227273,
                "pitch": 72,
                "velocity": 51,
                "duration": 0.3931818,
                "tempo": 120.0
            },
            {
                "start_time": 4.6227273,
                "end_time": 4.8409091,
                "pitch": 68,
                "velocity": 51,
                "duration": 0.2181818,
                "tempo": 120.0
            },
            {
                "start_time": 4.8409091,
                "end_time": 5.0340909,
                "pitch": 75,
                "velocity": 51,
                "duration": 0.1931818,
                "tempo": 120.0
            },
            {
                "start_time": 5.0340909,
                "end_time": 5.2454545,
                "pitch": 72,
                "velocity": 51,
                "duration": 0.2113636,
                "tempo": 120.0
            },
            {
                "start_time": 5.2636364,
                "end_time": 5.4636364,
                "pitch": 69,
                "velocity": 51,
                "duration": 0.2,
                "tempo": 120.0
            },
            {
                "start_time": 5.4636364,
                "end_time": 5.65,
                "pitch": 69,
                "velocity": 51,
                "duration": 0.1863636,
                "tempo": 120.0
            },
            {
                "start_time": 5.65,
                "end_time": 5.6659091,
                "pitch": 56,
                "velocity": 51,
                "duration": 0.0159091,
                "tempo": 120.0
            },
            {
                "start_time": 5.6659091,
                "end_time": 5.85,
                "pitch": 64,
                "velocity": 51,
                "duration": 0.1840909,
                "tempo": 120.0
            },
            {
                "start_time": 5.85,
                "end_time": 6.05,
                "pitch": 64,
                "velocity": 51,
                "duration": 0.2,
                "tempo": 120.0
            },
            {
                "start_time": 6.05,
                "end_time": 6.0659091,
                "pitch": 63,
                "velocity": 51,
                "duration": 0.0159091,
                "tempo": 120.0
            },
            {
                "start_time": 6.0659091,
                "end_time": 6.25,
                "pitch": 60,
                "velocity": 51,
                "duration": 0.1840909,
                "tempo": 120.0
            },
            {
                "start_time": 6.25,
                "end_time": 6.4681818,
                "pitch": 57,
                "velocity": 51,
                "duration": 0.2181818,
                "tempo": 120.0
            },
            {
                "start_time": 6.4681818,
                "end_time": 6.6522727,
                "pitch": 81,
                "velocity": 51,
                "duration": 0.1840909,
                "tempo": 120.0
            },
            {
                "start_time": 6.6522727,
                "end_time": 6.8545455,
                "pitch": 69,
                "velocity": 51,
                "duration": 0.2022727,
                "tempo": 120.0
            },
            {
                "start_time": 6.8704545,
                "end_time": 7.0704545,
                "pitch": 72,
                "velocity": 51,
                "duration": 0.2,
                "tempo": 120.0
            },
            {
                "start_time": 7.0704545,
                "end_time": 7.4454545,
                "pitch": 75,
                "velocity": 51,
                "duration": 0.375,
                "tempo": 120.0
            },
            {
                "start_time": 7.4454545,
                "end_time": 7.8386364,
                "pitch": 72,
                "velocity": 51,
                "duration": 0.3931818,
                "tempo": 120.0
            },
            {
                "start_time": 7.8386364,
                "end_time": 8.0568182,
                "pitch": 68,
                "velocity": 51,
                "duration": 0.2181818,
                "tempo": 120.0
            },
            {
                "start_time": 8.0568182,
                "end_time": 8.25,
                "pitch": 68,
                "velocity": 51,
                "duration": 0.1931818,
                "tempo": 120.0
            },
            {
                "start_time": 8.25,
                "end_time": 8.4613636,
                "pitch": 57,
                "velocity": 51,
                "duration": 0.2113636,
                "tempo": 120.0
            },
            {
                "start_time": 8.4795455,
                "end_time": 8.6795455,
                "pitch": 60,
                "velocity": 51,
                "duration": 0.2,
                "tempo": 120.0
            },
            {
                "start_time": 8.6795455,
                "end_time": 9.0568182,
                "pitch": 63,
                "velocity": 51,
                "duration": 0.3772727,
                "tempo": 120.0
            },
            {
                "start_time": 9.0568182,
                "end_time": 9.4477273,
                "pitch": 60,
                "velocity": 51,
                "duration": 0.3909091,
                "tempo": 120.0
            },
            {
                "start_time": 9.4477273,
                "end_time": 9.6659091,
                "pitch": 56,
                "velocity": 51,
                "duration": 0.2181818,
                "tempo": 120.0
            },
            {
                "start_time": 9.6659091,
                "end_time": 9.8590909,
                "pitch": 80,
                "velocity": 51,
                "duration": 0.1931818,
                "tempo": 120.0
            },
            {
                "start_time": 9.8590909,
                "end_time": 10.0704545,
                "pitch": 69,
                "velocity": 51,
                "duration": 0.2113636,
                "tempo": 120.0
            },
            {
                "start_time": 10.0886364,
                "end_time": 10.2886364,
                "pitch": 72,
                "velocity": 51,
                "duration": 0.2,
                "tempo": 120.0
            },
            {
                "start_time": 10.2886364,
                "end_time": 10.6636364,
                "pitch": 75,
                "velocity": 51,
                "duration": 0.375,
                "tempo": 120.0
            },
            {
                "start_time": 10.6636364,
                "end_time": 11.0568182,
                "pitch": 72,
                "velocity": 51,
                "duration": 0.3931818,
                "tempo": 120.0
            },
            {
                "start_time": 11.0568182,
                "end_time": 11.2727273,
                "pitch": 68,
                "velocity": 51,
                "duration": 0.2159091,
                "tempo": 120.0
            },
            {
                "start_time": 11.2727273,
                "end_time": 11.5386364,
                "pitch": 75,
                "velocity": 51,
                "duration": 0.2659091,
                "tempo": 120.0
            },
            {
                "start_time": 11.5386364,
                "end_time": 11.8068182,
                "pitch": 72,
                "velocity": 51,
                "duration": 0.2681818,
                "tempo": 120.0
            },
            {
                "start_time": 11.8068182,
                "end_time": 12.0613636,
                "pitch": 69,
                "velocity": 51,
                "duration": 0.2545455,
                "tempo": 120.0
            },
            {
                "start_time": 12.0613636,
                "end_time": 12.3409091,
                "pitch": 63,
                "velocity": 51,
                "duration": 0.2795455,
                "tempo": 120.0
            },
            {
                "start_time": 12.3409091,
                "end_time": 12.6090909,
                "pitch": 60,
                "velocity": 51,
                "duration": 0.2681818,
                "tempo": 120.0
            },
            {
                "start_time": 12.6090909,
                "end_time": 14.4886364,
                "pitch": 57,
                "velocity": 51,
                "duration": 1.8795455,
                "tempo": 120.0
            },
            {
                "start_time": 14.4886364,
                "end_time": 14.6772727,
                "pitch": 84,
                "velocity": 51,
                "duration": 0.1886364,
                "tempo": 120.0
            },
            {
                "start_time": 14.6772727,
                "end_time": 14.9,
                "pitch": 72,
                "velocity": 51,
                "duration": 0.2227273,
                "tempo": 120.0
            },
            {
                "start_time": 14.9,
                "end_time": 15.1045455,
                "pitch": 75,
                "velocity": 51,
                "duration": 0.2045455,
                "tempo": 120.0
            },
            {
                "start_time": 15.1045455,
                "end_time": 15.4840909,
                "pitch": 78,
                "velocity": 51,
                "duration": 0.3795455,
                "tempo": 120.0
            },
            {
                "start_time": 15.4840909,
                "end_time": 15.875,
                "pitch": 75,
                "velocity": 51,
                "duration": 0.3909091,
                "tempo": 120.0
            },
            {
                "start_time": 15.875,
                "end_time": 16.0931818,
                "pitch": 71,
                "velocity": 51,
                "duration": 0.2181818,
                "tempo": 120.0
            },
            {
                "start_time": 16.0931818,
                "end_time": 16.2863636,
                "pitch": 71,
                "velocity": 51,
                "duration": 0.1931818,
                "tempo": 120.0
            },
            {
                "start_time": 16.2863636,
                "end_time": 16.5136364,
                "pitch": 60,
                "velocity": 51,
                "duration": 0.2272727,
                "tempo": 120.0
            },
            {
                "start_time": 16.5136364,
                "end_time": 16.7159091,
                "pitch": 63,
                "velocity": 51,
                "duration": 0.2022727,
                "tempo": 120.0
            },
            {
                "start_time": 16.7159091,
                "end_time": 17.0909091,
                "pitch": 66,
                "velocity": 51,
                "duration": 0.375,
                "tempo": 120.0
            },
            {
                "start_time": 17.0909091,
                "end_time": 17.4818182,
                "pitch": 63,
                "velocity": 51,
                "duration": 0.3909091,
                "tempo": 120.0
            },
            {
                "start_time": 17.4818182,
                "end_time": 17.7,
                "pitch": 59,
                "velocity": 51,
                "duration": 0.2181818,
                "tempo": 120.0
            },
            {
                "start_time": 17.7,
                "end_time": 17.8931818,
                "pitch": 83,
                "velocity": 51,
                "duration": 0.1931818,
                "tempo": 120.0
            },
            {
                "start_time": 17.8931818,
                "end_time": 18.1227273,
                "pitch": 72,
                "velocity": 51,
                "duration": 0.2295455,
                "tempo": 120.0
            },
            {
                "start_time": 18.1227273,
                "end_time": 18.3227273,
                "pitch": 75,
                "velocity": 51,
                "duration": 0.2,
                "tempo": 120.0
            },
            {
                "start_time": 18.3227273,
                "end_time": 18.6977273,
                "pitch": 78,
                "velocity": 51,
                "duration": 0.375,
                "tempo": 120.0
            },
            {
                "start_time": 18.6977273,
                "end_time": 19.0886364,
                "pitch": 75,
                "velocity": 51,
                "duration": 0.3909091,
                "tempo": 120.0
            },
            {
                "start_time": 19.0886364,
                "end_time": 19.3045455,
                "pitch": 71,
                "velocity": 51,
                "duration": 0.2159091,
                "tempo": 120.0
            },
            {
                "start_time": 19.3045455,
                "end_time": 19.4977273,
                "pitch": 78,
                "velocity": 51,
                "duration": 0.1931818,
                "tempo": 120.0
            },
            {
                "start_time": 19.4977273,
                "end_time": 19.7272727,
                "pitch": 75,
                "velocity": 51,
                "duration": 0.2295455,
                "tempo": 120.0
            },
            {
                "start_time": 19.7272727,
                "end_time": 19.9272727,
                "pitch": 72,
                "velocity": 51,
                "duration": 0.2,
                "tempo": 120.0
            },
            {
                "start_time": 19.9272727,
                "end_time": 20.1295455,
                "pitch": 72,
                "velocity": 51,
                "duration": 0.2022727,
                "tempo": 120.0
            },
            {
                "start_time": 20.1295455,
                "end_time": 20.3136364,
                "pitch": 67,
                "velocity": 51,
                "duration": 0.1840909,
                "tempo": 120.0
            },
            {
                "start_time": 20.3136364,
                "end_time": 20.5295455,
                "pitch": 66,
                "velocity": 51,
                "duration": 0.2159091,
                "tempo": 120.0
            },
            {
                "start_time": 20.5295455,
                "end_time": 20.7136364,
                "pitch": 63,
                "velocity": 51,
                "duration": 0.1840909,
                "tempo": 120.0
            },
            {
                "start_time": 20.7136364,
                "end_time": 20.9318182,
                "pitch": 60,
                "velocity": 51,
                "duration": 0.2181818,
                "tempo": 120.0
            },
            {
                "start_time": 20.9318182,
                "end_time": 21.1159091,
                "pitch": 84,
                "velocity": 51,
                "duration": 0.1840909,
                "tempo": 120.0
            },
            {
                "start_time": 21.1159091,
                "end_time": 21.3318182,
                "pitch": 72,
                "velocity": 51,
                "duration": 0.2159091,
                "tempo": 120.0
            },
            {
                "start_time": 21.3318182,
                "end_time": 21.5318182,
                "pitch": 75,
                "velocity": 51,
                "duration": 0.2,
                "tempo": 120.0
            },
            {
                "start_time": 21.5318182,
                "end_time": 21.9068182,
                "pitch": 78,
                "velocity": 51,
                "duration": 0.375,
                "tempo": 120.0
            },
            {
                "start_time": 21.9068182,
                "end_time": 22.2977273,
                "pitch": 75,
                "velocity": 51,
                "duration": 0.3909091,
                "tempo": 120.0
            },
            {
                "start_time": 22.2977273,
                "end_time": 22.5136364,
                "pitch": 71,
                "velocity": 51,
                "duration": 0.2159091,
                "tempo": 120.0
            },
            {
                "start_time": 22.5136364,
                "end_time": 22.7068182,
                "pitch": 71,
                "velocity": 51,
                "duration": 0.1931818,
                "tempo": 120.0
            },
            {
                "start_time": 22.7068182,
                "end_time": 22.9363636,
                "pitch": 60,
                "velocity": 51,
                "duration": 0.2295455,
                "tempo": 120.0
            },
            {
                "start_time": 22.9363636,
                "end_time": 23.1363636,
                "pitch": 63,
                "velocity": 51,
                "duration": 0.2,
                "tempo": 120.0
            },
            {
                "start_time": 23.1363636,
                "end_time": 23.5113636,
                "pitch": 66,
                "velocity": 51,
                "duration": 0.375,
                "tempo": 120.0
            },
            {
                "start_time": 23.5113636,
                "end_time": 23.9045455,
                "pitch": 63,
                "velocity": 51,
                "duration": 0.3931818,
                "tempo": 120.0
            },
            {
                "start_time": 23.9045455,
                "end_time": 24.1227273,
                "pitch": 59,
                "velocity": 51,
                "duration": 0.2181818,
                "tempo": 120.0
            },
            {
                "start_time": 24.1227273,
                "end_time": 24.3159091,
                "pitch": 83,
                "velocity": 51,
                "duration": 0.1931818,
                "tempo": 120.0
            },
            {
                "start_time": 24.3159091,
                "end_time": 24.5431818,
                "pitch": 72,
                "velocity": 51,
                "duration": 0.2272727,
                "tempo": 120.0
            },
            {
                "start_time": 24.5431818,
                "end_time": 24.7454545,
                "pitch": 75,
                "velocity": 51,
                "duration": 0.2022727,
                "tempo": 120.0
            },
            {
                "start_time": 24.7454545,
                "end_time": 25.1204545,
                "pitch": 78,
                "velocity": 51,
                "duration": 0.375,
                "tempo": 120.0
            },
            {
                "start_time": 25.1204545,
                "end_time": 25.5113636,
                "pitch": 75,
                "velocity": 51,
                "duration": 0.3909091,
                "tempo": 120.0
            },
            {
                "start_time": 25.5113636,
                "end_time": 25.7295455,
                "pitch": 71,
                "velocity": 51,
                "duration": 0.2181818,
                "tempo": 120.0
            },
            {
                "start_time": 25.7295455,
                "end_time": 25.9931818,
                "pitch": 78,
                "velocity": 51,
                "duration": 0.2636364,
                "tempo": 120.0
            },
            {
                "start_time": 25.9931818,
                "end_time": 26.2613636,
                "pitch": 75,
                "velocity": 51,
                "duration": 0.2681818,
                "tempo": 120.0
            },
            {
                "start_time": 26.2613636,
                "end_time": 26.5159091,
                "pitch": 72,
                "velocity": 51,
                "duration": 0.2545455,
                "tempo": 120.0
            },
            {
                "start_time": 26.5159091,
                "end_time": 26.7954545,
                "pitch": 66,
                "velocity": 51,
                "duration": 0.2795455,
                "tempo": 120.0
            },
            {
                "start_time": 26.7954545,
                "end_time": 27.0636364,
                "pitch": 63,
                "velocity": 51,
                "duration": 0.2681818,
                "tempo": 120.0
            },
            {
                "start_time": 27.0636364,
                "end_time": 28.9409091,
                "pitch": 60,
                "velocity": 51,
                "duration": 1.8772727,
                "tempo": 120.0
            },
            {
                "start_time": 28.9409091,
                "end_time": 29.1295455,
                "pitch": 81,
                "velocity": 51,
                "duration": 0.1886364,
                "tempo": 120.0
            },
            {
                "start_time": 29.1295455,
                "end_time": 29.3522727,
                "pitch": 69,
                "velocity": 51,
                "duration": 0.2227273,
                "tempo": 120.0
            },
            {
                "start_time": 29.3522727,
                "end_time": 29.5568182,
                "pitch": 72,
                "velocity": 51,
                "duration": 0.2045455,
                "tempo": 120.0
            },
            {
                "start_time": 29.5568182,
                "end_time": 29.9363636,
                "pitch": 75,
                "velocity": 51,
                "duration": 0.3795455,
                "tempo": 120.0
            },
            {
                "start_time": 29.9363636,
                "end_time": 30.3272727,
                "pitch": 72,
                "velocity": 51,
                "duration": 0.3909091,
                "tempo": 120.0
            },
            {
                "start_time": 30.3272727,
                "end_time": 30.5454545,
                "pitch": 68,
                "velocity": 51,
                "duration": 0.2181818,
                "tempo": 120.0
            },
            {
                "start_time": 30.5454545,
                "end_time": 30.7386364,
                "pitch": 68,
                "velocity": 51,
                "duration": 0.1931818,
                "tempo": 120.0
            },
            {
                "start_time": 30.7386364,
                "end_time": 30.9659091,
                "pitch": 57,
                "velocity": 51,
                "duration": 0.2272727,
                "tempo": 120.0
            },
            {
                "start_time": 30.9659091,
                "end_time": 31.1681818,
                "pitch": 60,
                "velocity": 51,
                "duration": 0.2022727,
                "tempo": 120.0
            },
            {
                "start_time": 31.1681818,
                "end_time": 31.5409091,
                "pitch": 63,
                "velocity": 51,
                "duration": 0.3727273,
                "tempo": 120.0
            },
            {
                "start_time": 31.5409091,
                "end_time": 31.9340909,
                "pitch": 60,
                "velocity": 51,
                "duration": 0.3931818,
                "tempo": 120.0
            },
            {
                "start_time": 31.9340909,
                "end_time": 32.1522727,
                "pitch": 56,
                "velocity": 51,
                "duration": 0.2181818,
                "tempo": 120.0
            },
            {
                "start_time": 32.1522727,
                "end_time": 32.3454545,
                "pitch": 80,
                "velocity": 51,
                "duration": 0.1931818,
                "tempo": 120.0
            },
            {
                "start_time": 32.3454545,
                "end_time": 32.575,
                "pitch": 69,
                "velocity": 51,
                "duration": 0.2295455,
                "tempo": 120.0
            },
            {
                "start_time": 32.575,
                "end_time": 32.775,
                "pitch": 72,
                "velocity": 51,
                "duration": 0.2,
                "tempo": 120.0
            },
            {
                "start_time": 32.775,
                "end_time": 33.15,
                "pitch": 75,
                "velocity": 51,
                "duration": 0.375,
                "tempo": 120.0
            },
            {
                "start_time": 33.15,
                "end_time": 33.5409091,
                "pitch": 72,
                "velocity": 51,
                "duration": 0.3909091,
                "tempo": 120.0
            },
            {
                "start_time": 33.5409091,
                "end_time": 33.7568182,
                "pitch": 68,
                "velocity": 51,
                "duration": 0.2159091,
                "tempo": 120.0
            },
            {
                "start_time": 33.7568182,
                "end_time": 33.95,
                "pitch": 75,
                "velocity": 51,
                "duration": 0.1931818,
                "tempo": 120.0
            },
            {
                "start_time": 33.95,
                "end_time": 34.1795455,
                "pitch": 72,
                "velocity": 51,
                "duration": 0.2295455,
                "tempo": 120.0
            },
            {
                "start_time": 34.1795455,
                "end_time": 34.3795455,
                "pitch": 69,
                "velocity": 51,
                "duration": 0.2,
                "tempo": 120.0
            },
            {
                "start_time": 34.3795455,
                "end_time": 34.5795455,
                "pitch": 69,
                "velocity": 51,
                "duration": 0.2,
                "tempo": 120.0
            },
            {
                "start_time": 34.5795455,
                "end_time": 34.7636364,
                "pitch": 64,
                "velocity": 51,
                "duration": 0.1840909,
                "tempo": 120.0
            },
            {
                "start_time": 34.7636364,
                "end_time": 34.9795455,
                "pitch": 64,
                "velocity": 51,
                "duration": 0.2159091,
                "tempo": 120.0
            },
            {
                "start_time": 34.9795455,
                "end_time": 35.1636364,
                "pitch": 60,
                "velocity": 51,
                "duration": 0.1840909,
                "tempo": 120.0
            },
            {
                "start_time": 35.1636364,
                "end_time": 35.3818182,
                "pitch": 57,
                "velocity": 51,
                "duration": 0.2181818,
                "tempo": 120.0
            },
            {
                "start_time": 35.3818182,
                "end_time": 35.5659091,
                "pitch": 81,
                "velocity": 51,
                "duration": 0.1840909,
                "tempo": 120.0
            },
            {
                "start_time": 35.5659091,
                "end_time": 35.7818182,
                "pitch": 69,
                "velocity": 51,
                "duration": 0.2159091,
                "tempo": 120.0
            },
            {
                "start_time": 35.7818182,
                "end_time": 35.9818182,
                "pitch": 72,
                "velocity": 51,
                "duration": 0.2,
                "tempo": 120.0
            },
            {
                "start_time": 35.9818182,
                "end_time": 36.3568182,
                "pitch": 75,
                "velocity": 51,
                "duration": 0.375,
                "tempo": 120.0
            },
            {
                "start_time": 36.3568182,
                "end_time": 36.7477273,
                "pitch": 72,
                "velocity": 51,
                "duration": 0.3909091,
                "tempo": 120.0
            },
            {
                "start_time": 36.7477273,
                "end_time": 36.9636364,
                "pitch": 68,
                "velocity": 51,
                "duration": 0.2159091,
                "tempo": 120.0
            },
            {
                "start_time": 36.9636364,
                "end_time": 37.1568182,
                "pitch": 68,
                "velocity": 51,
                "duration": 0.1931818,
                "tempo": 120.0
            },
            {
                "start_time": 37.1568182,
                "end_time": 37.3863636,
                "pitch": 57,
                "velocity": 51,
                "duration": 0.2295455,
                "tempo": 120.0
            },
            {
                "start_time": 37.3863636,
                "end_time": 37.5863636,
                "pitch": 60,
                "velocity": 51,
                "duration": 0.2,
                "tempo": 120.0
            },
            {
                "start_time": 37.5863636,
                "end_time": 37.9613636,
                "pitch": 63,
                "velocity": 51,
                "duration": 0.375,
                "tempo": 120.0
            },
            {
                "start_time": 37.9613636,
                "end_time": 38.3545455,
                "pitch": 60,
                "velocity": 51,
                "duration": 0.3931818,
                "tempo": 120.0
            },
            {
                "start_time": 38.3545455,
                "end_time": 38.5727273,
                "pitch": 56,
                "velocity": 51,
                "duration": 0.2181818,
                "tempo": 120.0
            },
            {
                "start_time": 38.5727273,
                "end_time": 38.7659091,
                "pitch": 80,
                "velocity": 51,
                "duration": 0.1931818,
                "tempo": 120.0
            },
            {
                "start_time": 38.7659091,
                "end_time": 38.9931818,
                "pitch": 69,
                "velocity": 51,
                "duration": 0.2272727,
                "tempo": 120.0
            },
            {
                "start_time": 38.9931818,
                "end_time": 39.1954545,
                "pitch": 72,
                "velocity": 51,
                "duration": 0.2022727,
                "tempo": 120.0
            },
            {
                "start_time": 39.1954545,
                "end_time": 39.5704545,
                "pitch": 75,
                "velocity": 51,
                "duration": 0.375,
                "tempo": 120.0
            },
            {
                "start_time": 39.5704545,
                "end_time": 39.9613636,
                "pitch": 72,
                "velocity": 51,
                "duration": 0.3909091,
                "tempo": 120.0
            },
            {
                "start_time": 39.9613636,
                "end_time": 40.1795455,
                "pitch": 68,
                "velocity": 51,
                "duration": 0.2181818,
                "tempo": 120.0
            },
            {
                "start_time": 40.1795455,
                "end_time": 40.4431818,
                "pitch": 75,
                "velocity": 51,
                "duration": 0.2636364,
                "tempo": 120.0
            },
            {
                "start_time": 40.4431818,
                "end_time": 40.7113636,
                "pitch": 72,
                "velocity": 51,
                "duration": 0.2681818,
                "tempo": 120.0
            },
            {
                "start_time": 40.7113636,
                "end_time": 40.9659091,
                "pitch": 69,
                "velocity": 51,
                "duration": 0.2545455,
                "tempo": 120.0
            },
            {
                "start_time": 40.9659091,
                "end_time": 41.2454545,
                "pitch": 63,
                "velocity": 51,
                "duration": 0.2795455,
                "tempo": 120.0
            },
            {
                "start_time": 41.2454545,
                "end_time": 41.5136364,
                "pitch": 60,
                "velocity": 51,
                "duration": 0.2681818,
                "tempo": 120.0
            },
            {
                "start_time": 41.5136364,
                "end_time": 41.7840909,
                "pitch": 57,
                "velocity": 51,
                "duration": 0.2704545,
                "tempo": 120.0
            }
        ],
        "Acoustic Bass": [
            {
                "start_time": 0.0340909,
                "end_time": 0.2340909,
                "pitch": 45,
                "velocity": 40,
                "duration": 0.2,
                "tempo": 120.0
            },
            {
                "start_time": 0.2340909,
                "end_time": 0.4340909,
                "pitch": 51,
                "velocity": 40,
                "duration": 0.2,
                "tempo": 120.0
            },
            {
                "start_time": 0.4340909,
                "end_time": 0.6386364,
                "pitch": 45,
                "velocity": 40,
                "duration": 0.2045455,
                "tempo": 120.0
            },
            {
                "start_time": 0.6386364,
                "end_time": 0.8272727,
                "pitch": 51,
                "velocity": 40,
                "duration": 0.1886364,
                "tempo": 120.0
            },
            {
                "start_time": 0.8272727,
                "end_time": 1.0340909,
                "pitch": 45,
                "velocity": 40,
                "duration": 0.2068182,
                "tempo": 120.0
            },
            {
                "start_time": 1.0340909,
                "end_time": 1.2090909,
                "pitch": 51,
                "velocity": 40,
                "duration": 0.175,
                "tempo": 120.0
            },
            {
                "start_time": 1.2090909,
                "end_time": 1.425,
                "pitch": 45,
                "velocity": 40,
                "duration": 0.2159091,
                "tempo": 120.0
            },
            {
                "start_time": 1.425,
                "end_time": 1.625,
                "pitch": 51,
                "velocity": 40,
                "duration": 0.2,
                "tempo": 120.0
            },
            {
                "start_time": 1.625,
                "end_time": 1.8363636,
                "pitch": 45,
                "velocity": 40,
                "duration": 0.2113636,
                "tempo": 120.0
            },
            {
                "start_time": 1.8363636,
                "end_time": 2.0477273,
                "pitch": 51,
                "velocity": 40,
                "duration": 0.2113636,
                "tempo": 120.0
            },
            {
                "start_time": 2.0477273,
                "end_time": 2.25,
                "pitch": 45,
                "velocity": 40,
                "duration": 0.2022727,
                "tempo": 120.0
            },
            {
                "start_time": 2.25,
                "end_time": 2.4340909,
                "pitch": 51,
                "velocity": 40,
                "duration": 0.1840909,
                "tempo": 120.0
            },
            {
                "start_time": 2.4340909,
                "end_time": 2.6409091,
                "pitch": 45,
                "velocity": 40,
                "duration": 0.2068182,
                "tempo": 120.0
            },
            {
                "start_time": 2.6409091,
                "end_time": 2.8159091,
                "pitch": 51,
                "velocity": 40,
                "duration": 0.175,
                "tempo": 120.0
            },
            {
                "start_time": 2.8159091,
                "end_time": 3.0340909,
                "pitch": 45,
                "velocity": 40,
                "duration": 0.2181818,
                "tempo": 120.0
            },
            {
                "start_time": 3.0340909,
                "end_time": 3.2340909,
                "pitch": 51,
                "velocity": 40,
                "duration": 0.2,
                "tempo": 120.0
            },
            {
                "start_time": 3.2340909,
                "end_time": 3.4431818,
                "pitch": 45,
                "velocity": 40,
                "duration": 0.2090909,
                "tempo": 120.0
            },
            {
                "start_time": 3.4431818,
                "end_time": 3.6545455,
                "pitch": 51,
                "velocity": 40,
                "duration": 0.2113636,
                "tempo": 120.0
            },
            {
                "start_time": 3.6545455,
                "end_time": 3.8568182,
                "pitch": 45,
                "velocity": 40,
                "duration": 0.2022727,
                "tempo": 120.0
            },
            {
                "start_time": 3.8568182,
                "end_time": 4.0386364,
                "pitch": 51,
                "velocity": 40,
                "duration": 0.1818182,
                "tempo": 120.0
            },
            {
                "start_time": 4.0386364,
                "end_time": 4.2454545,
                "pitch": 45,
                "velocity": 40,
                "duration": 0.2068182,
                "tempo": 120.0
            },
            {
                "start_time": 4.2454545,
                "end_time": 4.4204545,
                "pitch": 51,
                "velocity": 40,
                "duration": 0.175,
                "tempo": 120.0
            },
            {
                "start_time": 4.4204545,
                "end_time": 4.6386364,
                "pitch": 45,
                "velocity": 40,
                "duration": 0.2181818,
                "tempo": 120.0
            },
            {
                "start_time": 4.6386364,
                "end_time": 4.8409091,
                "pitch": 51,
                "velocity": 40,
                "duration": 0.2022727,
                "tempo": 120.0
            },
            {
                "start_time": 4.8409091,
                "end_time": 5.0522727,
                "pitch": 45,
                "velocity": 40,
                "duration": 0.2113636,
                "tempo": 120.0
            },
            {
                "start_time": 5.0522727,
                "end_time": 5.2636364,
                "pitch": 51,
                "velocity": 40,
                "duration": 0.2113636,
                "tempo": 120.0
            },
            {
                "start_time": 5.2636364,
                "end_time": 5.4636364,
                "pitch": 45,
                "velocity": 40,
                "duration": 0.2,
                "tempo": 120.0
            },
            {
                "start_time": 5.4636364,
                "end_time": 5.6659091,
                "pitch": 51,
                "velocity": 40,
                "duration": 0.2022727,
                "tempo": 120.0
            },
            {
                "start_time": 5.6659091,
                "end_time": 5.8659091,
                "pitch": 45,
                "velocity": 40,
                "duration": 0.2,
                "tempo": 120.0
            },
            {
                "start_time": 5.8659091,
                "end_time": 6.0659091,
                "pitch": 51,
                "velocity": 40,
                "duration": 0.2,
                "tempo": 120.0
            },
            {
                "start_time": 6.0659091,
                "end_time": 6.2681818,
                "pitch": 45,
                "velocity": 40,
                "duration": 0.2022727,
                "tempo": 120.0
            },
            {
                "start_time": 6.2681818,
                "end_time": 6.4681818,
                "pitch": 51,
                "velocity": 40,
                "duration": 0.2,
                "tempo": 120.0
            },
            {
                "start_time": 6.4681818,
                "end_time": 6.6704545,
                "pitch": 45,
                "velocity": 40,
                "duration": 0.2022727,
                "tempo": 120.0
            },
            {
                "start_time": 6.6704545,
                "end_time": 6.8704545,
                "pitch": 51,
                "velocity": 40,
                "duration": 0.2,
                "tempo": 120.0
            },
            {
                "start_time": 6.8704545,
                "end_time": 7.0704545,
                "pitch": 45,
                "velocity": 40,
                "duration": 0.2,
                "tempo": 120.0
            },
            {
                "start_time": 7.0704545,
                "end_time": 7.2545455,
                "pitch": 51,
                "velocity": 40,
                "duration": 0.1840909,
                "tempo": 120.0
            },
            {
                "start_time": 7.2545455,
                "end_time": 7.4613636,
                "pitch": 45,
                "velocity": 40,
                "duration": 0.2068182,
                "tempo": 120.0
            },
            {
                "start_time": 7.4613636,
                "end_time": 7.6363636,
                "pitch": 51,
                "velocity": 40,
                "duration": 0.175,
                "tempo": 120.0
            },
            {
                "start_time": 7.6363636,
                "end_time": 7.8545455,
                "pitch": 45,
                "velocity": 40,
                "duration": 0.2181818,
                "tempo": 120.0
            },
            {
                "start_time": 7.8545455,
                "end_time": 8.0568182,
                "pitch": 51,
                "velocity": 40,
                "duration": 0.2022727,
                "tempo": 120.0
            },
            {
                "start_time": 8.0568182,
                "end_time": 8.2681818,
                "pitch": 45,
                "velocity": 40,
                "duration": 0.2113636,
                "tempo": 120.0
            },
            {
                "start_time": 8.2681818,
                "end_time": 8.4795455,
                "pitch": 51,
                "velocity": 40,
                "duration": 0.2113636,
                "tempo": 120.0
            },
            {
                "start_time": 8.4795455,
                "end_time": 8.6795455,
                "pitch": 45,
                "velocity": 40,
                "duration": 0.2,
                "tempo": 120.0
            },
            {
                "start_time": 8.6795455,
                "end_time": 8.8636364,
                "pitch": 51,
                "velocity": 40,
                "duration": 0.1840909,
                "tempo": 120.0
            },
            {
                "start_time": 8.8636364,
                "end_time": 9.0727273,
                "pitch": 45,
                "velocity": 40,
                "duration": 0.2090909,
                "tempo": 120.0
            },
            {
                "start_time": 9.0727273,
                "end_time": 9.2477273,
                "pitch": 51,
                "velocity": 40,
                "duration": 0.175,
                "tempo": 120.0
            },
            {
                "start_time": 9.2477273,
                "end_time": 9.4659091,
                "pitch": 45,
                "velocity": 40,
                "duration": 0.2181818,
                "tempo": 120.0
            },
            {
                "start_time": 9.4659091,
                "end_time": 9.6659091,
                "pitch": 51,
                "velocity": 40,
                "duration": 0.2,
                "tempo": 120.0
            },
            {
                "start_time": 9.6659091,
                "end_time": 9.8772727,
                "pitch": 45,
                "velocity": 40,
                "duration": 0.2113636,
                "tempo": 120.0
            },
            {
                "start_time": 9.8772727,
                "end_time": 10.0886364,
                "pitch": 51,
                "velocity": 40,
                "duration": 0.2113636,
                "tempo": 120.0
            },
            {
                "start_time": 10.0886364,
                "end_time": 10.2886364,
                "pitch": 45,
                "velocity": 40,
                "duration": 0.2,
                "tempo": 120.0
            },
            {
                "start_time": 10.2886364,
                "end_time": 10.4727273,
                "pitch": 51,
                "velocity": 40,
                "duration": 0.1840909,
                "tempo": 120.0
            },
            {
                "start_time": 10.4727273,
                "end_time": 10.6795455,
                "pitch": 45,
                "velocity": 40,
                "duration": 0.2068182,
                "tempo": 120.0
            },
            {
                "start_time": 10.6795455,
                "end_time": 10.8545455,
                "pitch": 51,
                "velocity": 40,
                "duration": 0.175,
                "tempo": 120.0
            },
            {
                "start_time": 10.8545455,
                "end_time": 11.0727273,
                "pitch": 45,
                "velocity": 40,
                "duration": 0.2181818,
                "tempo": 120.0
            },
            {
                "start_time": 11.0727273,
                "end_time": 11.2727273,
                "pitch": 51,
                "velocity": 40,
                "duration": 0.2,
                "tempo": 120.0
            },
            {
                "start_time": 11.2727273,
                "end_time": 11.4681818,
                "pitch": 45,
                "velocity": 40,
                "duration": 0.1954545,
                "tempo": 120.0
            },
            {
                "start_time": 11.4681818,
                "end_time": 11.6772727,
                "pitch": 51,
                "velocity": 40,
                "duration": 0.2090909,
                "tempo": 120.0
            },
            {
                "start_time": 11.6772727,
                "end_time": 11.8704545,
                "pitch": 45,
                "velocity": 40,
                "duration": 0.1931818,
                "tempo": 120.0
            },
            {
                "start_time": 11.8704545,
                "end_time": 12.0772727,
                "pitch": 51,
                "velocity": 40,
                "duration": 0.2068182,
                "tempo": 120.0
            },
            {
                "start_time": 12.0772727,
                "end_time": 12.2704545,
                "pitch": 45,
                "velocity": 40,
                "duration": 0.1931818,
                "tempo": 120.0
            },
            {
                "start_time": 12.2704545,
                "end_time": 12.4818182,
                "pitch": 51,
                "velocity": 40,
                "duration": 0.2113636,
                "tempo": 120.0
            },
            {
                "start_time": 12.4818182,
                "end_time": 12.6727273,
                "pitch": 45,
                "velocity": 40,
                "duration": 0.1909091,
                "tempo": 120.0
            },
            {
                "start_time": 12.6727273,
                "end_time": 12.8795455,
                "pitch": 51,
                "velocity": 40,
                "duration": 0.2068182,
                "tempo": 120.0
            },
            {
                "start_time": 12.8795455,
                "end_time": 13.0727273,
                "pitch": 44,
                "velocity": 40,
                "duration": 0.1931818,
                "tempo": 120.0
            },
            {
                "start_time": 13.0727273,
                "end_time": 13.2840909,
                "pitch": 50,
                "velocity": 40,
                "duration": 0.2113636,
                "tempo": 120.0
            },
            {
                "start_time": 13.2840909,
                "end_time": 13.4818182,
                "pitch": 45,
                "velocity": 40,
                "duration": 0.1977273,
                "tempo": 120.0
            },
            {
                "start_time": 13.4818182,
                "end_time": 13.6772727,
                "pitch": 51,
                "velocity": 40,
                "duration": 0.1954545,
                "tempo": 120.0
            },
            {
                "start_time": 13.6772727,
                "end_time": 13.8727273,
                "pitch": 46,
                "velocity": 40,
                "duration": 0.1954545,
                "tempo": 120.0
            },
            {
                "start_time": 13.8727273,
                "end_time": 14.0681818,
                "pitch": 52,
                "velocity": 40,
                "duration": 0.1954545,
                "tempo": 120.0
            },
            {
                "start_time": 14.0681818,
                "end_time": 14.2704545,
                "pitch": 47,
                "velocity": 40,
                "duration": 0.2022727,
                "tempo": 120.0
            },
            {
                "start_time": 14.2704545,
                "end_time": 14.4886364,
                "pitch": 53,
                "velocity": 40,
                "duration": 0.2181818,
                "tempo": 120.0
            },
            {
                "start_time": 14.4886364,
                "end_time": 14.6931818,
                "pitch": 48,
                "velocity": 40,
                "duration": 0.2045455,
                "tempo": 120.0
            },
            {
                "start_time": 14.6931818,
                "end_time": 14.9,
                "pitch": 54,
                "velocity": 40,
                "duration": 0.2068182,
                "tempo": 120.0
            },
            {
                "start_time": 14.9,
                "end_time": 15.1045455,
                "pitch": 48,
                "velocity": 40,
                "duration": 0.2045455,
                "tempo": 120.0
            },
            {
                "start_time": 15.1045455,
                "end_time": 15.2931818,
                "pitch": 54,
                "velocity": 40,
                "duration": 0.1886364,
                "tempo": 120.0
            },
            {
                "start_time": 15.2931818,
                "end_time": 15.5,
                "pitch": 48,
                "velocity": 40,
                "duration": 0.2068182,
                "tempo": 120.0
            },
            {
                "start_time": 15.5,
                "end_time": 15.675,
                "pitch": 54,
                "velocity": 40,
                "duration": 0.175,
                "tempo": 120.0
            },
            {
                "start_time": 15.675,
                "end_time": 15.8931818,
                "pitch": 48,
                "velocity": 40,
                "duration": 0.2181818,
                "tempo": 120.0
            },
            {
                "start_time": 15.8931818,
                "end_time": 16.0931818,
                "pitch": 54,
                "velocity": 40,
                "duration": 0.2,
                "tempo": 120.0
            },
            {
                "start_time": 16.0931818,
                "end_time": 16.3022727,
                "pitch": 48,
                "velocity": 40,
                "duration": 0.2090909,
                "tempo": 120.0
            },
            {
                "start_time": 16.3022727,
                "end_time": 16.5136364,
                "pitch": 54,
                "velocity": 40,
                "duration": 0.2113636,
                "tempo": 120.0
            },
            {
                "start_time": 16.5136364,
                "end_time": 16.7159091,
                "pitch": 48,
                "velocity": 40,
                "duration": 0.2022727,
                "tempo": 120.0
            },
            {
                "start_time": 16.7159091,
                "end_time": 16.9,
                "pitch": 54,
                "velocity": 40,
                "duration": 0.1840909,
                "tempo": 120.0
            },
            {
                "start_time": 16.9,
                "end_time": 17.1068182,
                "pitch": 48,
                "velocity": 40,
                "duration": 0.2068182,
                "tempo": 120.0
            },
            {
                "start_time": 17.1068182,
                "end_time": 17.2840909,
                "pitch": 54,
                "velocity": 40,
                "duration": 0.1772727,
                "tempo": 120.0
            },
            {
                "start_time": 17.2840909,
                "end_time": 17.5,
                "pitch": 48,
                "velocity": 40,
                "duration": 0.2159091,
                "tempo": 120.0
            },
            {
                "start_time": 17.5,
                "end_time": 17.7,
                "pitch": 54,
                "velocity": 40,
                "duration": 0.2,
                "tempo": 120.0
            },
            {
                "start_time": 17.7,
                "end_time": 17.9113636,
                "pitch": 48,
                "velocity": 40,
                "duration": 0.2113636,
                "tempo": 120.0
            },
            {
                "start_time": 17.9113636,
                "end_time": 18.1227273,
                "pitch": 54,
                "velocity": 40,
                "duration": 0.2113636,
                "tempo": 120.0
            },
            {
                "start_time": 18.1227273,
                "end_time": 18.3227273,
                "pitch": 48,
                "velocity": 40,
                "duration": 0.2,
                "tempo": 120.0
            },
            {
                "start_time": 18.3227273,
                "end_time": 18.5045455,
                "pitch": 54,
                "velocity": 40,
                "duration": 0.1818182,
                "tempo": 120.0
            },
            {
                "start_time": 18.5045455,
                "end_time": 18.7136364,
                "pitch": 48,
                "velocity": 40,
                "duration": 0.2090909,
                "tempo": 120.0
            },
            {
                "start_time": 18.7136364,
                "end_time": 18.8886364,
                "pitch": 54,
                "velocity": 40,
                "duration": 0.175,
                "tempo": 120.0
            },
            {
                "start_time": 18.8886364,
                "end_time": 19.1045455,
                "pitch": 48,
                "velocity": 40,
                "duration": 0.2159091,
                "tempo": 120.0
            },
            {
                "start_time": 19.1045455,
                "end_time": 19.3045455,
                "pitch": 54,
                "velocity": 40,
                "duration": 0.2,
                "tempo": 120.0
            },
            {
                "start_time": 19.3045455,
                "end_time": 19.5159091,
                "pitch": 48,
                "velocity": 40,
                "duration": 0.2113636,
                "tempo": 120.0
            },
            {
                "start_time": 19.5159091,
                "end_time": 19.7272727,
                "pitch": 54,
                "velocity": 40,
                "duration": 0.2113636,
                "tempo": 120.0
            },
            {
                "start_time": 19.7272727,
                "end_time": 19.9272727,
                "pitch": 48,
                "velocity": 40,
                "duration": 0.2,
                "tempo": 120.0
            },
            {
                "start_time": 19.9272727,
                "end_time": 20.1295455,
                "pitch": 54,
                "velocity": 40,
                "duration": 0.2022727,
                "tempo": 120.0
            },
            {
                "start_time": 20.1295455,
                "end_time": 20.3295455,
                "pitch": 48,
                "velocity": 40,
                "duration": 0.2,
                "tempo": 120.0
            },
            {
                "start_time": 20.3295455,
                "end_time": 20.5295455,
                "pitch": 54,
                "velocity": 40,
                "duration": 0.2,
                "tempo": 120.0
            },
            {
                "start_time": 20.5295455,
                "end_time": 20.7318182,
                "pitch": 48,
                "velocity": 40,
                "duration": 0.2022727,
                "tempo": 120.0
            },
            {
                "start_time": 20.7318182,
                "end_time": 20.9318182,
                "pitch": 54,
                "velocity": 40,
                "duration": 0.2,
                "tempo": 120.0
            },
            {
                "start_time": 20.9318182,
                "end_time": 21.1318182,
                "pitch": 48,
                "velocity": 40,
                "duration": 0.2,
                "tempo": 120.0
            },
            {
                "start_time": 21.1318182,
                "end_time": 21.3318182,
                "pitch": 54,
                "velocity": 40,
                "duration": 0.2,
                "tempo": 120.0
            },
            {
                "start_time": 21.3318182,
                "end_time": 21.5318182,
                "pitch": 48,
                "velocity": 40,
                "duration": 0.2,
                "tempo": 120.0
            },
            {
                "start_time": 21.5318182,
                "end_time": 21.7159091,
                "pitch": 54,
                "velocity": 40,
                "duration": 0.1840909,
                "tempo": 120.0
            },
            {
                "start_time": 21.7159091,
                "end_time": 21.9227273,
                "pitch": 48,
                "velocity": 40,
                "duration": 0.2068182,
                "tempo": 120.0
            },
            {
                "start_time": 21.9227273,
                "end_time": 22.0977273,
                "pitch": 54,
                "velocity": 40,
                "duration": 0.175,
                "tempo": 120.0
            },
            {
                "start_time": 22.0977273,
                "end_time": 22.3136364,
                "pitch": 48,
                "velocity": 40,
                "duration": 0.2159091,
                "tempo": 120.0
            },
            {
                "start_time": 22.3136364,
                "end_time": 22.5136364,
                "pitch": 54,
                "velocity": 40,
                "duration": 0.2,
                "tempo": 120.0
            },
            {
                "start_time": 22.5136364,
                "end_time": 22.725,
                "pitch": 48,
                "velocity": 40,
                "duration": 0.2113636,
                "tempo": 120.0
            },
            {
                "start_time": 22.725,
                "end_time": 22.9363636,
                "pitch": 54,
                "velocity": 40,
                "duration": 0.2113636,
                "tempo": 120.0
            },
            {
                "start_time": 22.9363636,
                "end_time": 23.1363636,
                "pitch": 48,
                "velocity": 40,
                "duration": 0.2,
                "tempo": 120.0
            },
            {
                "start_time": 23.1363636,
                "end_time": 23.3204545,
                "pitch": 54,
                "velocity": 40,
                "duration": 0.1840909,
                "tempo": 120.0
            },
            {
                "start_time": 23.3204545,
                "end_time": 23.5272727,
                "pitch": 48,
                "velocity": 40,
                "duration": 0.2068182,
                "tempo": 120.0
            },
            {
                "start_time": 23.5272727,
                "end_time": 23.7022727,
                "pitch": 54,
                "velocity": 40,
                "duration": 0.175,
                "tempo": 120.0
            },
            {
                "start_time": 23.7022727,
                "end_time": 23.9204545,
                "pitch": 48,
                "velocity": 40,
                "duration": 0.2181818,
                "tempo": 120.0
            },
            {
                "start_time": 23.9204545,
                "end_time": 24.1227273,
                "pitch": 54,
                "velocity": 40,
                "duration": 0.2022727,
                "tempo": 120.0
            },
            {
                "start_time": 24.1227273,
                "end_time": 24.3318182,
                "pitch": 48,
                "velocity": 40,
                "duration": 0.2090909,
                "tempo": 120.0
            },
            {
                "start_time": 24.3318182,
                "end_time": 24.5431818,
                "pitch": 54,
                "velocity": 40,
                "duration": 0.2113636,
                "tempo": 120.0
            },
            {
                "start_time": 24.5431818,
                "end_time": 24.7454545,
                "pitch": 48,
                "velocity": 40,
                "duration": 0.2022727,
                "tempo": 120.0
            },
            {
                "start_time": 24.7454545,
                "end_time": 24.9295455,
                "pitch": 54,
                "velocity": 40,
                "duration": 0.1840909,
                "tempo": 120.0
            },
            {
                "start_time": 24.9295455,
                "end_time": 25.1363636,
                "pitch": 48,
                "velocity": 40,
                "duration": 0.2068182,
                "tempo": 120.0
            },
            {
                "start_time": 25.1363636,
                "end_time": 25.3136364,
                "pitch": 54,
                "velocity": 40,
                "duration": 0.1772727,
                "tempo": 120.0
            },
            {
                "start_time": 25.3136364,
                "end_time": 25.5295455,
                "pitch": 48,
                "velocity": 40,
                "duration": 0.2159091,
                "tempo": 120.0
            },
            {
                "start_time": 25.5295455,
                "end_time": 25.7295455,
                "pitch": 54,
                "velocity": 40,
                "duration": 0.2,
                "tempo": 120.0
            },
            {
                "start_time": 25.7295455,
                "end_time": 25.9227273,
                "pitch": 48,
                "velocity": 40,
                "duration": 0.1931818,
                "tempo": 120.0
            },
            {
                "start_time": 25.9227273,
                "end_time": 26.1340909,
                "pitch": 54,
                "velocity": 40,
                "duration": 0.2113636,
                "tempo": 120.0
            },
            {
                "start_time": 26.1340909,
                "end_time": 26.325,
                "pitch": 48,
                "velocity": 40,
                "duration": 0.1909091,
                "tempo": 120.0
            },
            {
                "start_time": 26.325,
                "end_time": 26.5318182,
                "pitch": 54,
                "velocity": 40,
                "duration": 0.2068182,
                "tempo": 120.0
            },
            {
                "start_time": 26.5318182,
                "end_time": 26.725,
                "pitch": 48,
                "velocity": 40,
                "duration": 0.1931818,
                "tempo": 120.0
            },
            {
                "start_time": 26.725,
                "end_time": 26.9363636,
                "pitch": 54,
                "velocity": 40,
                "duration": 0.2113636,
                "tempo": 120.0
            },
            {
                "start_time": 26.9363636,
                "end_time": 27.1272727,
                "pitch": 48,
                "velocity": 40,
                "duration": 0.1909091,
                "tempo": 120.0
            },
            {
                "start_time": 27.1272727,
                "end_time": 27.3340909,
                "pitch": 54,
                "velocity": 40,
                "duration": 0.2068182,
                "tempo": 120.0
            },
            {
                "start_time": 27.3340909,
                "end_time": 27.5272727,
                "pitch": 52,
                "velocity": 40,
                "duration": 0.1931818,
                "tempo": 120.0
            },
            {
                "start_time": 27.5272727,
                "end_time": 27.7386364,
                "pitch": 58,
                "velocity": 40,
                "duration": 0.2113636,
                "tempo": 120.0
            },
            {
                "start_time": 27.7386364,
                "end_time": 27.9295455,
                "pitch": 51,
                "velocity": 40,
                "duration": 0.1909091,
                "tempo": 120.0
            },
            {
                "start_time": 27.9295455,
                "end_time": 28.1204545,
                "pitch": 57,
                "velocity": 40,
                "duration": 0.1909091,
                "tempo": 120.0
            },
            {
                "start_time": 28.1204545,
                "end_time": 28.3204545,
                "pitch": 50,
                "velocity": 40,
                "duration": 0.2,
                "tempo": 120.0
            },
            {
                "start_time": 28.3204545,
                "end_time": 28.5204545,
                "pitch": 56,
                "velocity": 40,
                "duration": 0.2,
                "tempo": 120.0
            },
            {
                "start_time": 28.5204545,
                "end_time": 28.7227273,
                "pitch": 49,
                "velocity": 40,
                "duration": 0.2022727,
                "tempo": 120.0
            },
            {
                "start_time": 28.7227273,
                "end_time": 28.9409091,
                "pitch": 55,
                "velocity": 40,
                "duration": 0.2181818,
                "tempo": 120.0
            },
            {
                "start_time": 28.9409091,
                "end_time": 29.1454545,
                "pitch": 43,
                "velocity": 40,
                "duration": 0.2045455,
                "tempo": 120.0
            },
            {
                "start_time": 29.1454545,
                "end_time": 29.3522727,
                "pitch": 51,
                "velocity": 40,
                "duration": 0.2068182,
                "tempo": 120.0
            },
            {
                "start_time": 29.3522727,
                "end_time": 29.5568182,
                "pitch": 45,
                "velocity": 40,
                "duration": 0.2045455,
                "tempo": 120.0
            },
            {
                "start_time": 29.5568182,
                "end_time": 29.7454545,
                "pitch": 51,
                "velocity": 40,
                "duration": 0.1886364,
                "tempo": 120.0
            },
            {
                "start_time": 29.7454545,
                "end_time": 29.9522727,
                "pitch": 45,
                "velocity": 40,
                "duration": 0.2068182,
                "tempo": 120.0
            },
            {
                "start_time": 29.9522727,
                "end_time": 30.1272727,
                "pitch": 51,
                "velocity": 40,
                "duration": 0.175,
                "tempo": 120.0
            },
            {
                "start_time": 30.1272727,
                "end_time": 30.3454545,
                "pitch": 45,
                "velocity": 40,
                "duration": 0.2181818,
                "tempo": 120.0
            },
            {
                "start_time": 30.3454545,
                "end_time": 30.5454545,
                "pitch": 51,
                "velocity": 40,
                "duration": 0.2,
                "tempo": 120.0
            },
            {
                "start_time": 30.5454545,
                "end_time": 30.7545455,
                "pitch": 45,
                "velocity": 40,
                "duration": 0.2090909,
                "tempo": 120.0
            },
            {
                "start_time": 30.7545455,
                "end_time": 30.9659091,
                "pitch": 51,
                "velocity": 40,
                "duration": 0.2113636,
                "tempo": 120.0
            },
            {
                "start_time": 30.9659091,
                "end_time": 31.1681818,
                "pitch": 45,
                "velocity": 40,
                "duration": 0.2022727,
                "tempo": 120.0
            },
            {
                "start_time": 31.1681818,
                "end_time": 31.35,
                "pitch": 51,
                "velocity": 40,
                "duration": 0.1818182,
                "tempo": 120.0
            },
            {
                "start_time": 31.35,
                "end_time": 31.5568182,
                "pitch": 45,
                "velocity": 40,
                "duration": 0.2068182,
                "tempo": 120.0
            },
            {
                "start_time": 31.5568182,
                "end_time": 31.7318182,
                "pitch": 51,
                "velocity": 40,
                "duration": 0.175,
                "tempo": 120.0
            },
            {
                "start_time": 31.7318182,
                "end_time": 31.95,
                "pitch": 45,
                "velocity": 40,
                "duration": 0.2181818,
                "tempo": 120.0
            },
            {
                "start_time": 31.95,
                "end_time": 32.1522727,
                "pitch": 51,
                "velocity": 40,
                "duration": 0.2022727,
                "tempo": 120.0
            },
            {
                "start_time": 32.1522727,
                "end_time": 32.3636364,
                "pitch": 45,
                "velocity": 40,
                "duration": 0.2113636,
                "tempo": 120.0
            },
            {
                "start_time": 32.3636364,
                "end_time": 32.575,
                "pitch": 51,
                "velocity": 40,
                "duration": 0.2113636,
                "tempo": 120.0
            },
            {
                "start_time": 32.575,
                "end_time": 32.775,
                "pitch": 45,
                "velocity": 40,
                "duration": 0.2,
                "tempo": 120.0
            },
            {
                "start_time": 32.775,
                "end_time": 32.9568182,
                "pitch": 51,
                "velocity": 40,
                "duration": 0.1818182,
                "tempo": 120.0
            },
            {
                "start_time": 32.9568182,
                "end_time": 33.1659091,
                "pitch": 45,
                "velocity": 40,
                "duration": 0.2090909,
                "tempo": 120.0
            },
            {
                "start_time": 33.1659091,
                "end_time": 33.3409091,
                "pitch": 51,
                "velocity": 40,
                "duration": 0.175,
                "tempo": 120.0
            },
            {
                "start_time": 33.3409091,
                "end_time": 33.5568182,
                "pitch": 45,
                "velocity": 40,
                "duration": 0.2159091,
                "tempo": 120.0
            },
            {
                "start_time": 33.5568182,
                "end_time": 33.7568182,
                "pitch": 51,
                "velocity": 40,
                "duration": 0.2,
                "tempo": 120.0
            },
            {
                "start_time": 33.7568182,
                "end_time": 33.9681818,
                "pitch": 45,
                "velocity": 40,
                "duration": 0.2113636,
                "tempo": 120.0
            },
            {
                "start_time": 33.9681818,
                "end_time": 34.1795455,
                "pitch": 51,
                "velocity": 40,
                "duration": 0.2113636,
                "tempo": 120.0
            },
            {
                "start_time": 34.1795455,
                "end_time": 34.3795455,
                "pitch": 45,
                "velocity": 40,
                "duration": 0.2,
                "tempo": 120.0
            },
            {
                "start_time": 34.3795455,
                "end_time": 34.5795455,
                "pitch": 51,
                "velocity": 40,
                "duration": 0.2,
                "tempo": 120.0
            },
            {
                "start_time": 34.5795455,
                "end_time": 34.7795455,
                "pitch": 45,
                "velocity": 40,
                "duration": 0.2,
                "tempo": 120.0
            },
            {
                "start_time": 34.7795455,
                "end_time": 34.9795455,
                "pitch": 51,
                "velocity": 40,
                "duration": 0.2,
                "tempo": 120.0
            },
            {
                "start_time": 34.9795455,
                "end_time": 35.1795455,
                "pitch": 45,
                "velocity": 40,
                "duration": 0.2,
                "tempo": 120.0
            },
            {
                "start_time": 35.1795455,
                "end_time": 35.3818182,
                "pitch": 51,
                "velocity": 40,
                "duration": 0.2022727,
                "tempo": 120.0
            },
            {
                "start_time": 35.3818182,
                "end_time": 35.5818182,
                "pitch": 45,
                "velocity": 40,
                "duration": 0.2,
                "tempo": 120.0
            },
            {
                "start_time": 35.5818182,
                "end_time": 35.7818182,
                "pitch": 51,
                "velocity": 40,
                "duration": 0.2,
                "tempo": 120.0
            },
            {
                "start_time": 35.7818182,
                "end_time": 35.9818182,
                "pitch": 45,
                "velocity": 40,
                "duration": 0.2,
                "tempo": 120.0
            },
            {
                "start_time": 35.9818182,
                "end_time": 36.1659091,
                "pitch": 51,
                "velocity": 40,
                "duration": 0.1840909,
                "tempo": 120.0
            },
            {
                "start_time": 36.1659091,
                "end_time": 36.3727273,
                "pitch": 45,
                "velocity": 40,
                "duration": 0.2068182,
                "tempo": 120.0
            },
            {
                "start_time": 36.3727273,
                "end_time": 36.5477273,
                "pitch": 51,
                "velocity": 40,
                "duration": 0.175,
                "tempo": 120.0
            },
            {
                "start_time": 36.5477273,
                "end_time": 36.7636364,
                "pitch": 45,
                "velocity": 40,
                "duration": 0.2159091,
                "tempo": 120.0
            },
            {
                "start_time": 36.7636364,
                "end_time": 36.9636364,
                "pitch": 51,
                "velocity": 40,
                "duration": 0.2,
                "tempo": 120.0
            },
            {
                "start_time": 36.9636364,
                "end_time": 37.175,
                "pitch": 45,
                "velocity": 40,
                "duration": 0.2113636,
                "tempo": 120.0
            },
            {
                "start_time": 37.175,
                "end_time": 37.3863636,
                "pitch": 51,
                "velocity": 40,
                "duration": 0.2113636,
                "tempo": 120.0
            },
            {
                "start_time": 37.3863636,
                "end_time": 37.5863636,
                "pitch": 45,
                "velocity": 40,
                "duration": 0.2,
                "tempo": 120.0
            },
            {
                "start_time": 37.5863636,
                "end_time": 37.7704545,
                "pitch": 51,
                "velocity": 40,
                "duration": 0.1840909,
                "tempo": 120.0
            },
            {
                "start_time": 37.7704545,
                "end_time": 37.9772727,
                "pitch": 45,
                "velocity": 40,
                "duration": 0.2068182,
                "tempo": 120.0
            },
            {
                "start_time": 37.9772727,
                "end_time": 38.1522727,
                "pitch": 51,
                "velocity": 40,
                "duration": 0.175,
                "tempo": 120.0
            },
            {
                "start_time": 38.1522727,
                "end_time": 38.3704545,
                "pitch": 45,
                "velocity": 40,
                "duration": 0.2181818,
                "tempo": 120.0
            },
            {
                "start_time": 38.3704545,
                "end_time": 38.5727273,
                "pitch": 51,
                "velocity": 40,
                "duration": 0.2022727,
                "tempo": 120.0
            },
            {
                "start_time": 38.5727273,
                "end_time": 38.7818182,
                "pitch": 45,
                "velocity": 40,
                "duration": 0.2090909,
                "tempo": 120.0
            },
            {
                "start_time": 38.7818182,
                "end_time": 38.9931818,
                "pitch": 51,
                "velocity": 40,
                "duration": 0.2113636,
                "tempo": 120.0
            },
            {
                "start_time": 38.9931818,
                "end_time": 39.1954545,
                "pitch": 45,
                "velocity": 40,
                "duration": 0.2022727,
                "tempo": 120.0
            },
            {
                "start_time": 39.1954545,
                "end_time": 39.3795455,
                "pitch": 51,
                "velocity": 40,
                "duration": 0.1840909,
                "tempo": 120.0
            },
            {
                "start_time": 39.3795455,
                "end_time": 39.5863636,
                "pitch": 45,
                "velocity": 40,
                "duration": 0.2068182,
                "tempo": 120.0
            },
            {
                "start_time": 39.5863636,
                "end_time": 39.7613636,
                "pitch": 51,
                "velocity": 40,
                "duration": 0.175,
                "tempo": 120.0
            },
            {
                "start_time": 39.7613636,
                "end_time": 39.9795455,
                "pitch": 45,
                "velocity": 40,
                "duration": 0.2181818,
                "tempo": 120.0
            },
            {
                "start_time": 39.9795455,
                "end_time": 40.1795455,
                "pitch": 51,
                "velocity": 40,
                "duration": 0.2,
                "tempo": 120.0
            },
            {
                "start_time": 40.1795455,
                "end_time": 40.3727273,
                "pitch": 45,
                "velocity": 40,
                "duration": 0.1931818,
                "tempo": 120.0
            },
            {
                "start_time": 40.3727273,
                "end_time": 40.5840909,
                "pitch": 51,
                "velocity": 40,
                "duration": 0.2113636,
                "tempo": 120.0
            },
            {
                "start_time": 40.5840909,
                "end_time": 40.775,
                "pitch": 45,
                "velocity": 40,
                "duration": 0.1909091,
                "tempo": 120.0
            },
            {
                "start_time": 40.775,
                "end_time": 40.9818182,
                "pitch": 51,
                "velocity": 40,
                "duration": 0.2068182,
                "tempo": 120.0
            },
            {
                "start_time": 40.9818182,
                "end_time": 41.175,
                "pitch": 45,
                "velocity": 40,
                "duration": 0.1931818,
                "tempo": 120.0
            },
            {
                "start_time": 41.175,
                "end_time": 41.3863636,
                "pitch": 51,
                "velocity": 40,
                "duration": 0.2113636,
                "tempo": 120.0
            },
            {
                "start_time": 41.3863636,
                "end_time": 41.5772727,
                "pitch": 45,
                "velocity": 40,
                "duration": 0.1909091,
                "tempo": 120.0
            },
            {
                "start_time": 41.5772727,
                "end_time": 41.7840909,
                "pitch": 51,
                "velocity": 40,
                "duration": 0.2068182,
                "tempo": 120.0
            }
        ],
        "Trumpet": [
            {
                "start_time": 0.0340909,
                "end_time": 0.0840909,
                "pitch": 79,
                "velocity": 40,
                "duration": 0.05,
                "tempo": 120.0
            },
            {
                "start_time": 0.0840909,
                "end_time": 0.6386364,
                "pitch": 81,
                "velocity": 40,
                "duration": 0.5545455,
                "tempo": 120.0
            },
            {
                "start_time": 0.6386364,
                "end_time": 1.625,
                "pitch": 87,
                "velocity": 40,
                "duration": 0.9863636,
                "tempo": 120.0
            },
            {
                "start_time": 1.625,
                "end_time": 2.25,
                "pitch": 81,
                "velocity": 40,
                "duration": 0.625,
                "tempo": 120.0
            },
            {
                "start_time": 2.25,
                "end_time": 3.2340909,
                "pitch": 87,
                "velocity": 40,
                "duration": 0.9840909,
                "tempo": 120.0
            },
            {
                "start_time": 3.2340909,
                "end_time": 3.8568182,
                "pitch": 81,
                "velocity": 40,
                "duration": 0.6227273,
                "tempo": 120.0
            },
            {
                "start_time": 3.8568182,
                "end_time": 4.8409091,
                "pitch": 87,
                "velocity": 40,
                "duration": 0.9840909,
                "tempo": 120.0
            },
            {
                "start_time": 4.8409091,
                "end_time": 5.4636364,
                "pitch": 81,
                "velocity": 40,
                "duration": 0.6227273,
                "tempo": 120.0
            },
            {
                "start_time": 5.4636364,
                "end_time": 6.4681818,
                "pitch": 87,
                "velocity": 40,
                "duration": 1.0045455,
                "tempo": 120.0
            },
            {
                "start_time": 6.4681818,
                "end_time": 7.0704545,
                "pitch": 81,
                "velocity": 40,
                "duration": 0.6022727,
                "tempo": 120.0
            },
            {
                "start_time": 7.0704545,
                "end_time": 8.0568182,
                "pitch": 87,
                "velocity": 40,
                "duration": 0.9863636,
                "tempo": 120.0
            },
            {
                "start_time": 8.0568182,
                "end_time": 8.6795455,
                "pitch": 81,
                "velocity": 40,
                "duration": 0.6227273,
                "tempo": 120.0
            },
            {
                "start_time": 8.6795455,
                "end_time": 9.6659091,
                "pitch": 87,
                "velocity": 40,
                "duration": 0.9863636,
                "tempo": 120.0
            },
            {
                "start_time": 9.6659091,
                "end_time": 10.2886364,
                "pitch": 81,
                "velocity": 40,
                "duration": 0.6227273,
                "tempo": 120.0
            },
            {
                "start_time": 10.2886364,
                "end_time": 11.2727273,
                "pitch": 87,
                "velocity": 40,
                "duration": 0.9840909,
                "tempo": 120.0
            },
            {
                "start_time": 11.2727273,
                "end_time": 11.8863636,
                "pitch": 81,
                "velocity": 40,
                "duration": 0.6136364,
                "tempo": 120.0
            },
            {
                "start_time": 11.8863636,
                "end_time": 12.8795455,
                "pitch": 87,
                "velocity": 40,
                "duration": 0.9931818,
                "tempo": 120.0
            },
            {
                "start_time": 12.8795455,
                "end_time": 13.0727273,
                "pitch": 80,
                "velocity": 64,
                "duration": 0.1931818,
                "tempo": 120.0
            },
            {
                "start_time": 13.0727273,
                "end_time": 13.2840909,
                "pitch": 88,
                "velocity": 64,
                "duration": 0.2113636,
                "tempo": 120.0
            },
            {
                "start_time": 13.2840909,
                "end_time": 13.4818182,
                "pitch": 81,
                "velocity": 64,
                "duration": 0.1977273,
                "tempo": 120.0
            },
            {
                "start_time": 13.4818182,
                "end_time": 13.6772727,
                "pitch": 89,
                "velocity": 64,
                "duration": 0.1954545,
                "tempo": 120.0
            },
            {
                "start_time": 13.6772727,
                "end_time": 13.8727273,
                "pitch": 82,
                "velocity": 64,
                "duration": 0.1954545,
                "tempo": 120.0
            },
            {
                "start_time": 13.8727273,
                "end_time": 14.0681818,
                "pitch": 90,
                "velocity": 64,
                "duration": 0.1954545,
                "tempo": 120.0
            },
            {
                "start_time": 14.0681818,
                "end_time": 14.2704545,
                "pitch": 83,
                "velocity": 64,
                "duration": 0.2022727,
                "tempo": 120.0
            },
            {
                "start_time": 14.2704545,
                "end_time": 14.3363636,
                "pitch": 91,
                "velocity": 64,
                "duration": 0.0659091,
                "tempo": 120.0
            },
            {
                "start_time": 14.3363636,
                "end_time": 14.4886364,
                "pitch": 91,
                "velocity": 64,
                "duration": 0.1522727,
                "tempo": 120.0
            },
            {
                "start_time": 14.4886364,
                "end_time": 15.1045455,
                "pitch": 84,
                "velocity": 8,
                "duration": 0.6159091,
                "tempo": 120.0
            },
            {
                "start_time": 15.1045455,
                "end_time": 16.0931818,
                "pitch": 90,
                "velocity": 8,
                "duration": 0.9886364,
                "tempo": 120.0
            },
            {
                "start_time": 16.0931818,
                "end_time": 16.7159091,
                "pitch": 84,
                "velocity": 8,
                "duration": 0.6227273,
                "tempo": 120.0
            },
            {
                "start_time": 16.7159091,
                "end_time": 17.7,
                "pitch": 90,
                "velocity": 8,
                "duration": 0.9840909,
                "tempo": 120.0
            },
            {
                "start_time": 17.7,
                "end_time": 18.3227273,
                "pitch": 84,
                "velocity": 8,
                "duration": 0.6227273,
                "tempo": 120.0
            },
            {
                "start_time": 18.3227273,
                "end_time": 19.3045455,
                "pitch": 90,
                "velocity": 8,
                "duration": 0.9818182,
                "tempo": 120.0
            },
            {
                "start_time": 19.3045455,
                "end_time": 19.9272727,
                "pitch": 84,
                "velocity": 8,
                "duration": 0.6227273,
                "tempo": 120.0
            },
            {
                "start_time": 19.9272727,
                "end_time": 20.9318182,
                "pitch": 90,
                "velocity": 8,
                "duration": 1.0045455,
                "tempo": 120.0
            },
            {
                "start_time": 20.9318182,
                "end_time": 21.5318182,
                "pitch": 84,
                "velocity": 8,
                "duration": 0.6,
                "tempo": 120.0
            },
            {
                "start_time": 21.5318182,
                "end_time": 22.5136364,
                "pitch": 90,
                "velocity": 8,
                "duration": 0.9818182,
                "tempo": 120.0
            },
            {
                "start_time": 22.5136364,
                "end_time": 23.1363636,
                "pitch": 84,
                "velocity": 8,
                "duration": 0.6227273,
                "tempo": 120.0
            },
            {
                "start_time": 23.1363636,
                "end_time": 24.1227273,
                "pitch": 90,
                "velocity": 8,
                "duration": 0.9863636,
                "tempo": 120.0
            },
            {
                "start_time": 24.1227273,
                "end_time": 24.7454545,
                "pitch": 84,
                "velocity": 8,
                "duration": 0.6227273,
                "tempo": 120.0
            },
            {
                "start_time": 24.7454545,
                "end_time": 25.7295455,
                "pitch": 90,
                "velocity": 8,
                "duration": 0.9840909,
                "tempo": 120.0
            },
            {
                "start_time": 25.7295455,
                "end_time": 26.3409091,
                "pitch": 84,
                "velocity": 8,
                "duration": 0.6113636,
                "tempo": 120.0
            },
            {
                "start_time": 26.3409091,
                "end_time": 27.3340909,
                "pitch": 90,
                "velocity": 8,
                "duration": 0.9931818,
                "tempo": 120.0
            },
            {
                "start_time": 27.3340909,
                "end_time": 27.5272727,
                "pitch": 88,
                "velocity": 64,
                "duration": 0.1931818,
                "tempo": 120.0
            },
            {
                "start_time": 27.5272727,
                "end_time": 27.7386364,
                "pitch": 96,
                "velocity": 64,
                "duration": 0.2113636,
                "tempo": 120.0
            },
            {
                "start_time": 27.7386364,
                "end_time": 27.9295455,
                "pitch": 87,
                "velocity": 64,
                "duration": 0.1909091,
                "tempo": 120.0
            },
            {
                "start_time": 27.9295455,
                "end_time": 28.1204545,
                "pitch": 95,
                "velocity": 64,
                "duration": 0.1909091,
                "tempo": 120.0
            },
            {
                "start_time": 28.1204545,
                "end_time": 28.3204545,
                "pitch": 86,
                "velocity": 64,
                "duration": 0.2,
                "tempo": 120.0
            },
            {
                "start_time": 28.3204545,
                "end_time": 28.5204545,
                "pitch": 94,
                "velocity": 64,
                "duration": 0.2,
                "tempo": 120.0
            },
            {
                "start_time": 28.5204545,
                "end_time": 28.7227273,
                "pitch": 85,
                "velocity": 64,
                "duration": 0.2022727,
                "tempo": 120.0
            },
            {
                "start_time": 28.7227273,
                "end_time": 28.9409091,
                "pitch": 93,
                "velocity": 64,
                "duration": 0.2181818,
                "tempo": 120.0
            },
            {
                "start_time": 28.9409091,
                "end_time": 29.5568182,
                "pitch": 81,
                "velocity": 40,
                "duration": 0.6159091,
                "tempo": 120.0
            },
            {
                "start_time": 29.5568182,
                "end_time": 30.5454545,
                "pitch": 87,
                "velocity": 40,
                "duration": 0.9886364,
                "tempo": 120.0
            },
            {
                "start_time": 30.5454545,
                "end_time": 31.1681818,
                "pitch": 81,
                "velocity": 40,
                "duration": 0.6227273,
                "tempo": 120.0
            },
            {
                "start_time": 31.1681818,
                "end_time": 32.1522727,
                "pitch": 87,
                "velocity": 40,
                "duration": 0.9840909,
                "tempo": 120.0
            },
            {
                "start_time": 32.1522727,
                "end_time": 32.775,
                "pitch": 81,
                "velocity": 40,
                "duration": 0.6227273,
                "tempo": 120.0
            },
            {
                "start_time": 32.775,
                "end_time": 33.7568182,
                "pitch": 87,
                "velocity": 40,
                "duration": 0.9818182,
                "tempo": 120.0
            },
            {
                "start_time": 33.7568182,
                "end_time": 34.3795455,
                "pitch": 81,
                "velocity": 40,
                "duration": 0.6227273,
                "tempo": 120.0
            },
            {
                "start_time": 34.3795455,
                "end_time": 35.3818182,
                "pitch": 87,
                "velocity": 40,
                "duration": 1.0022727,
                "tempo": 120.0
            },
            {
                "start_time": 35.3818182,
                "end_time": 35.9818182,
                "pitch": 81,
                "velocity": 40,
                "duration": 0.6,
                "tempo": 120.0
            },
            {
                "start_time": 35.9818182,
                "end_time": 36.9636364,
                "pitch": 87,
                "velocity": 40,
                "duration": 0.9818182,
                "tempo": 120.0
            },
            {
                "start_time": 36.9636364,
                "end_time": 37.5863636,
                "pitch": 81,
                "velocity": 40,
                "duration": 0.6227273,
                "tempo": 120.0
            },
            {
                "start_time": 37.5863636,
                "end_time": 38.5727273,
                "pitch": 87,
                "velocity": 40,
                "duration": 0.9863636,
                "tempo": 120.0
            },
            {
                "start_time": 38.5727273,
                "end_time": 39.1954545,
                "pitch": 81,
                "velocity": 40,
                "duration": 0.6227273,
                "tempo": 120.0
            },
            {
                "start_time": 39.1954545,
                "end_time": 40.1795455,
                "pitch": 87,
                "velocity": 40,
                "duration": 0.9840909,
                "tempo": 120.0
            },
            {
                "start_time": 40.1795455,
                "end_time": 40.7909091,
                "pitch": 81,
                "velocity": 40,
                "duration": 0.6113636,
                "tempo": 120.0
            },
            {
                "start_time": 40.7909091,
                "end_time": 41.7840909,
                "pitch": 87,
                "velocity": 40,
                "duration": 0.9931818,
                "tempo": 120.0
            }
        ]
    }
}