{
    "mood": "angry",
    "instruments": {
        "Trumpet": [
            {
                "start_time": 0.0295455,
                "end_time": 0.2477273,
                "pitch": 59,
                "velocity": 64,
                "duration": 0.2181818,
                "tempo": 120.0
            },
            {
                "start_time": 0.2477273,
                "end_time": 0.4818182,
                "pitch": 59,
                "velocity": 64,
                "duration": 0.2340909,
                "tempo": 120.0
            },
            {
                "start_time": 0.4818182,
                "end_time": 0.6977273,
                "pitch": 59,
                "velocity": 64,
                "duration": 0.2159091,
                "tempo": 120.0
            },
            {
                "start_time": 0.6977273,
                "end_time": 0.9159091,
                "pitch": 66,
                "velocity": 64,
                "duration": 0.2181818,
                "tempo": 120.0
            },
            {
                "start_time": 0.9159091,
                "end_time": 0.9318182,
                "pitch": 66,
                "velocity": 64,
                "duration": 0.0159091,
                "tempo": 120.0
            },
            {
                "start_time": 0.9318182,
                "end_time": 1.0340909,
                "pitch": 59,
                "velocity": 64,
                "duration": 0.1022727,
                "tempo": 120.0
            },
            {
                "start_time": 1.0340909,
                "end_time": 1.2568182,
                "pitch": 59,
                "velocity": 64,
                "duration": 0.2227273,
                "tempo": 120.0
            },
            {
                "start_time": 1.2568182,
                "end_time": 1.3931818,
                "pitch": 59,
                "velocity": 64,
                "duration": 0.1363636,
                "tempo": 120.0
            },
            {
                "start_time": 1.3931818,
                "end_time": 1.5909091,
                "pitch": 59,
                "velocity": 64,
                "duration": 0.1977273,
                "tempo": 120.0
            },
            {
                "start_time": 1.5909091,
                "end_time": 1.8181818,
                "pitch": 67,
                "velocity": 64,
                "duration": 0.2272727,
                "tempo": 120.0
            },
            {
                "start_time": 1.8181818,
                "end_time": 2.0318182,
                "pitch": 59,
                "velocity": 64,
                "duration": 0.2136364,
                "tempo": 120.0
            },
            {
                "start_time": 2.0318182,
                "end_time": 2.2431818,
                "pitch": 59,
                "velocity": 64,
                "duration": 0.2113636,
                "tempo": 120.0
            },
            {
                "start_time": 2.2431818,
                "end_time": 2.4613636,
                "pitch": 59,
                "velocity": 64,
                "duration": 0.2181818,
                "tempo": 120.0
            },
            {
                "start_time": 2.4613636,
                "end_time": 2.7113636,
                "pitch": 71,
                "velocity": 64,
                "duration": 0.25,
                "tempo": 120.0
            },
            {
                "start_time": 2.7113636,
                "end_time": 2.7954545,
                "pitch": 59,
                "velocity": 64,
                "duration": 0.0840909,
                "tempo": 120.0
            },
            {
                "start_time": 2.7954545,
                "end_time": 3.0295455,
                "pitch": 59,
                "velocity": 64,
                "duration": 0.2340909,
                "tempo": 120.0
            },
            {
                "start_time": 3.0295455,
                "end_time": 3.1454545,
                "pitch": 59,
                "velocity": 64,
                "duration": 0.1159091,
                "tempo": 120.0
            },
            {
                "start_time": 3.1454545,
                "end_time": 3.3545455,
                "pitch": 59,
                "velocity": 64,
                "duration": 0.2090909,
                "tempo": 120.0
            },
            {
                "start_time": 3.3545455,
                "end_time": 3.5772727,
                "pitch": 71,
                "velocity": 64,
                "duration": 0.2227273,
                "tempo": 120.0
            },
            {
                "start_time": 3.5772727,
                "end_time": 3.7954545,
                "pitch": 59,
                "velocity": 64,
                "duration": 0.2181818,
                "tempo": 120.0
            },
            {
                "start_time": 3.7954545,
                "end_time": 4.0295455,
                "pitch": 59,
                "velocity": 64,
                "duration": 0.2340909,
                "tempo": 120.0
            },
            {
                "start_time": 4.0295455,
                "end_time": 4.2295455,
                "pitch": 59,
                "velocity": 64,
                "duration": 0.2,
                "tempo": 120.0
            },
            {
                "start_time": 4.2295455,
                "end_time": 4.4636364,
                "pitch": 66,
                "velocity": 64,
                "duration": 0.2340909,
                "tempo": 120.0
            },
            {
                "start_time": 4.4636364,
                "end_time": 4.4795455,
                "pitch": 66,
                "velocity": 64,
                "duration": 0.0159091,
                "tempo": 120.0
            },
            {
                "start_time": 4.4795455,
                "end_time": 4.5636364,
                "pitch": 59,
                "velocity": 64,
                "duration": 0.0840909,
                "tempo": 120.0
            },
            {
                "start_time": 4.5636364,
                "end_time": 4.7977273,
                "pitch": 59,
                "velocity": 64,
                "duration": 0.2340909,
                "tempo": 120.0
            },
            {
                "start_time": 4.7977273,
                "end_time": 4.8977273,
                "pitch": 59,
                "velocity": 64,
                "duration": 0.1,
                "tempo": 120.0
            },
            {
                "start_time": 4.8977273,
                "end_time": 5.1272727,
                "pitch": 59,
                "velocity": 64,
                "duration": 0.2295455,
                "tempo": 120.0
            },
            {
                "start_time": 5.1272727,
                "end_time": 5.3568182,
                "pitch": 67,
                "velocity": 64,
                "duration": 0.2295455,
                "tempo": 120.0
            },
            {
                "start_time": 5.3568182,
                "end_time": 5.5568182,
                "pitch": 59,
                "velocity": 64,
                "duration": 0.2,
                "tempo": 120.0
            },
            {
                "start_time": 5.5568182,
                "end_time": 5.7909091,
                "pitch": 59,
                "velocity": 64,
                "duration": 0.2340909,
                "tempo": 120.0
            },
            {
                "start_time": 5.7909091,
                "end_time": 6.0068182,
                "pitch": 59,
                "velocity": 64,
                "duration": 0.2159091,
                "tempo": 120.0
            },
            {
                "start_time": 6.0068182,
                "end_time": 6.225,
                "pitch": 71,
                "velocity": 64,
                "duration": 0.2181818,
                "tempo": 120.0
            },
            {
                "start_time": 6.225,
                "end_time": 6.2409091,
                "pitch": 57,
                "velocity": 64,
                "duration": 0.0159091,
                "tempo": 120.0
            },
            {
                "start_time": 6.2409091,
                "end_time": 6.3386364,
                "pitch": 59,
                "velocity": 64,
                "duration": 0.0977273,
                "tempo": 120.0
            },
            {
                "start_time": 6.3386364,
                "end_time": 6.5613636,
                "pitch": 59,
                "velocity": 64,
                "duration": 0.2227273,
                "tempo": 120.0
            },
            {
                "start_time": 6.5613636,
                "end_time": 6.6727273,
                "pitch": 59,
                "velocity": 64,
                "duration": 0.1113636,
                "tempo": 120.0
            },
            {
                "start_time": 6.6727273,
                "end_time": 6.8909091,
                "pitch": 59,
                "velocity": 64,
                "duration": 0.2181818,
                "tempo": 120.0
            },
            {
                "start_time": 6.8909091,
                "end_time": 7.125,
                "pitch": 71,
                "velocity": 64,
                "duration": 0.2340909,
                "tempo": 120.0
            },
            {
                "start_time": 7.125,
                "end_time": 7.325,
                "pitch": 54,
                "velocity": 64,
                "duration": 0.2,
                "tempo": 120.0
            },
            {
                "start_time": 7.325,
                "end_time": 7.575,
                "pitch": 54,
                "velocity": 64,
                "duration": 0.25,
                "tempo": 120.0
            },
            {
                "start_time": 7.575,
                "end_time": 7.7772727,
                "pitch": 54,
                "velocity": 64,
                "duration": 0.2022727,
                "tempo": 120.0
            },
            {
                "start_time": 7.7772727,
                "end_time": 8.0113636,
                "pitch": 61,
                "velocity": 64,
                "duration": 0.2340909,
                "tempo": 120.0
            },
            {
                "start_time": 8.0113636,
                "end_time": 8.1068182,
                "pitch": 54,
                "velocity": 64,
                "duration": 0.0954545,
                "tempo": 120.0
            },
            {
                "start_time": 8.1068182,
                "end_time": 8.3136364,
                "pitch": 54,
                "velocity": 64,
                "duration": 0.2068182,
                "tempo": 120.0
            },
            {
                "start_time": 8.3136364,
                "end_time": 8.4272727,
                "pitch": 54,
                "velocity": 64,
                "duration": 0.1136364,
                "tempo": 120.0
            },
            {
                "start_time": 8.4272727,
                "end_time": 8.6431818,
                "pitch": 54,
                "velocity": 64,
                "duration": 0.2159091,
                "tempo": 120.0
            },
            {
                "start_time": 8.6431818,
                "end_time": 8.8931818,
                "pitch": 62,
                "velocity": 64,
                "duration": 0.25,
                "tempo": 120.0
            },
            {
                "start_time": 8.8931818,
                "end_time": 9.0931818,
                "pitch": 54,
                "velocity": 64,
                "duration": 0.2,
                "tempo": 120.0
            },
            {
                "start_time": 9.0931818,
                "end_time": 9.3272727,
                "pitch": 54,
                "velocity": 64,
                "duration": 0.2340909,
                "tempo": 120.0
            },
            {
                "start_time": 9.3272727,
                "end_time": 9.5409091,
                "pitch": 54,
                "velocity": 64,
                "duration": 0.2136364,
                "tempo": 120.0
            },
            {
                "start_time": 9.5409091,
                "end_time": 9.7522727,
                "pitch": 64,
                "velocity": 64,
                "duration": 0.2113636,
                "tempo": 120.0
            },
            {
                "start_time": 9.7522727,
                "end_time": 9.7704545,
                "pitch": 52,
                "velocity": 64,
                "duration": 0.0181818,
                "tempo": 120.0
            },
            {
                "start_time": 9.7704545,
                "end_time": 9.8704545,
                "pitch": 54,
                "velocity": 64,
                "duration": 0.1,
                "tempo": 120.0
            },
            {
                "start_time": 9.8704545,
                "end_time": 10.0863636,
                "pitch": 54,
                "velocity": 64,
                "duration": 0.2159091,
                "tempo": 120.0
            },
            {
                "start_time": 10.0863636,
                "end_time": 10.2204545,
                "pitch": 54,
                "velocity": 64,
                "duration": 0.1340909,
                "tempo": 120.0
            },
            {
                "start_time": 10.2204545,
                "end_time": 10.4159091,
                "pitch": 54,
                "velocity": 64,
                "duration": 0.1954545,
                "tempo": 120.0
            },
            {
                "start_time": 10.4159091,
                "end_time": 10.6613636,
                "pitch": 66,
                "velocity": 64,
                "duration": 0.2454545,
                "tempo": 120.0
            },
            {
                "start_time": 10.6613636,
                "end_time": 10.8659091,
                "pitch": 54,
                "velocity": 64,
                "duration": 0.2045455,
                "tempo": 120.0
            },
            {
                "start_time": 10.8659091,
                "end_time": 11.0886364,
                "pitch": 54,
                "velocity": 64,
                "duration": 0.2227273,
                "tempo": 120.0
            },
            {
                "start_time": 11.0886364,
                "end_time": 11.3136364,
                "pitch": 54,
                "velocity": 64,
                "duration": 0.225,
                "tempo": 120.0
            },
            {
                "start_time": 11.3136364,
                "end_time": 11.5386364,
                "pitch": 61,
                "velocity": 64,
                "duration": 0.225,
                "tempo": 120.0
            },
            {
                "start_time": 11.5386364,
                "end_time": 11.6386364,
                "pitch": 54,
                "velocity": 64,
                "duration": 0.1,
                "tempo": 120.0
            },
            {
                "start_time": 11.6386364,
                "end_time": 11.8545455,
                "pitch": 54,
                "velocity": 64,
                "duration": 0.2159091,
                "tempo": 120.0
            },
            {
                "start_time": 11.8545455,
                "end_time": 11.9727273,
                "pitch": 54,
                "velocity": 64,
                "duration": 0.1181818,
                "tempo": 120.0
            },
            {
                "start_time": 11.9727273,
                "end_time": 12.1886364,
                "pitch": 54,
                "velocity": 64,
                "duration": 0.2159091,
                "tempo": 120.0
            },
            {
                "start_time": 12.1886364,
                "end_time": 12.4227273,
                "pitch": 62,
                "velocity": 64,
                "duration": 0.2340909,
                "tempo": 120.0
            },
            {
                "start_time": 12.4227273,
                "end_time": 12.6318182,
                "pitch": 54,
                "velocity": 64,
                "duration": 0.2090909,
                "tempo": 120.0
            },
            {
                "start_time": 12.6318182,
                "end_time": 12.8545455,
                "pitch": 54,
                "velocity": 64,
                "duration": 0.2227273,
                "tempo": 120.0
            },
            {
                "start_time": 12.8545455,
                "end_time": 13.0727273,
                "pitch": 54,
                "velocity": 64,
                "duration": 0.2181818,
                "tempo": 120.0
            },
            {
                "start_time": 13.0727273,
                "end_time": 13.2909091,
                "pitch": 64,
                "velocity": 64,
                "duration": 0.2181818,
                "tempo": 120.0
            },
            {
                "start_time": 13.2909091,
                "end_time": 13.3068182,
                "pitch": 52,
                "velocity": 64,
                "duration": 0.0159091,
                "tempo": 120.0
            },
            {
                "start_time": 13.3068182,
                "end_time": 13.4068182,
                "pitch": 54,
                "velocity": 64,
                "duration": 0.1,
                "tempo": 120.0
            },
            {
                "start_time": 13.4068182,
                "end_time": 13.625,
                "pitch": 54,
                "velocity": 64,
                "duration": 0.2181818,
                "tempo": 120.0
            },
            {
                "start_time": 13.625,
                "end_time": 13.7568182,
                "pitch": 54,
                "velocity": 64,
                "duration": 0.1318182,
                "tempo": 120.0
            },
            {
                "start_time": 13.7568182,
                "end_time": 13.9590909,
                "pitch": 54,
                "velocity": 64,
                "duration": 0.2022727,
                "tempo": 120.0
            },
            {
                "start_time": 13.9590909,
                "end_time": 14.1931818,
                "pitch": 66,
                "velocity": 64,
                "duration": 0.2340909,
                "tempo": 120.0
            },
            {
                "start_time": 14.1931818,
                "end_time": 14.4045455,
                "pitch": 59,
                "velocity": 64,
                "duration": 0.2113636,
                "tempo": 120.0
            },
            {
                "start_time": 14.4045455,
                "end_time": 14.6181818,
                "pitch": 59,
                "velocity": 64,
                "duration": 0.2136364,
                "tempo": 120.0
            },
            {
                "start_time": 14.6181818,
                "end_time": 14.8340909,
                "pitch": 71,
                "velocity": 64,
                "duration": 0.2159091,
                "tempo": 120.0
            },
            {
                "start_time": 14.8340909,
                "end_time": 14.95,
                "pitch": 59,
                "velocity": 64,
                "duration": 0.1159091,
                "tempo": 120.0
            },
            {
                "start_time": 14.95,
                "end_time": 15.1681818,
                "pitch": 59,
                "velocity": 64,
                "duration": 0.2181818,
                "tempo": 120.0
            },
            {
                "start_time": 15.1681818,
                "end_time": 15.2863636,
                "pitch": 59,
                "velocity": 64,
                "duration": 0.1181818,
                "tempo": 120.0
            },
            {
                "start_time": 15.2863636,
                "end_time": 15.5204545,
                "pitch": 59,
                "velocity": 64,
                "duration": 0.2340909,
                "tempo": 120.0
            },
            {
                "start_time": 15.5204545,
                "end_time": 15.7272727,
                "pitch": 66,
                "velocity": 64,
                "duration": 0.2068182,
                "tempo": 120.0
            },
            {
                "start_time": 15.7272727,
                "end_time": 15.9522727,
                "pitch": 69,
                "velocity": 64,
                "duration": 0.225,
                "tempo": 120.0
            },
            {
                "start_time": 15.9522727,
                "end_time": 16.1681818,
                "pitch": 64,
                "velocity": 64,
                "duration": 0.2159091,
                "tempo": 120.0
            },
            {
                "start_time": 16.1681818,
                "end_time": 16.4022727,
                "pitch": 64,
                "velocity": 64,
                "duration": 0.2340909,
                "tempo": 120.0
            },
            {
                "start_time": 16.4022727,
                "end_time": 16.6022727,
                "pitch": 76,
                "velocity": 64,
                "duration": 0.2,
                "tempo": 120.0
            },
            {
                "start_time": 16.6022727,
                "end_time": 16.7204545,
                "pitch": 64,
                "velocity": 64,
                "duration": 0.1181818,
                "tempo": 120.0
            },
            {
                "start_time": 16.7204545,
                "end_time": 16.9340909,
                "pitch": 64,
                "velocity": 64,
                "duration": 0.2136364,
                "tempo": 120.0
            },
            {
                "start_time": 16.9340909,
                "end_time": 17.05,
                "pitch": 64,
                "velocity": 64,
                "duration": 0.1159091,
                "tempo": 120.0
            },
            {
                "start_time": 17.05,
                "end_time": 17.2613636,
                "pitch": 64,
                "velocity": 64,
                "duration": 0.2113636,
                "tempo": 120.0
            },
            {
                "start_time": 17.2613636,
                "end_time": 17.4909091,
                "pitch": 72,
                "velocity": 64,
                "duration": 0.2295455,
                "tempo": 120.0
            },
            {
                "start_time": 17.4909091,
                "end_time": 17.7204545,
                "pitch": 72,
                "velocity": 64,
                "duration": 0.2295455,
                "tempo": 120.0
            },
            {
                "start_time": 17.7204545,
                "end_time": 17.9204545,
                "pitch": 59,
                "velocity": 64,
                "duration": 0.2,
                "tempo": 120.0
            },
            {
                "start_time": 17.9204545,
                "end_time": 18.1545455,
                "pitch": 61,
                "velocity": 64,
                "duration": 0.2340909,
                "tempo": 120.0
            },
            {
                "start_time": 18.1545455,
                "end_time": 18.3704545,
                "pitch": 73,
                "velocity": 64,
                "duration": 0.2159091,
                "tempo": 120.0
            },
            {
                "start_time": 18.3704545,
                "end_time": 18.4886364,
                "pitch": 61,
                "velocity": 64,
                "duration": 0.1181818,
                "tempo": 120.0
            },
            {
                "start_time": 18.4886364,
                "end_time": 18.6977273,
                "pitch": 61,
                "velocity": 64,
                "duration": 0.2090909,
                "tempo": 120.0
            },
            {
                "start_time": 18.6977273,
                "end_time": 18.8090909,
                "pitch": 61,
                "velocity": 64,
                "duration": 0.1113636,
                "tempo": 120.0
            },
            {
                "start_time": 18.8090909,
                "end_time": 19.0272727,
                "pitch": 61,
                "velocity": 64,
                "duration": 0.2181818,
                "tempo": 120.0
            },
            {
                "start_time": 19.0272727,
                "end_time": 19.2545455,
                "pitch": 68,
                "velocity": 64,
                "duration": 0.2272727,
                "tempo": 120.0
            },
            {
                "start_time": 19.2545455,
                "end_time": 19.5,
                "pitch": 68,
                "velocity": 64,
                "duration": 0.2454545,
                "tempo": 120.0
            },
            {
                "start_time": 19.5,
                "end_time": 19.7,
                "pitch": 66,
                "velocity": 64,
                "duration": 0.2,
                "tempo": 120.0
            },
            {
                "start_time": 19.7,
                "end_time": 19.95,
                "pitch": 66,
                "velocity": 64,
                "duration": 0.25,
                "tempo": 120.0
            },
            {
                "start_time": 19.95,
                "end_time": 20.1477273,
                "pitch": 78,
                "velocity": 64,
                "duration": 0.1977273,
                "tempo": 120.0
            },
            {
                "start_time": 20.1477273,
                "end_time": 20.2613636,
                "pitch": 66,
                "velocity": 64,
                "duration": 0.1136364,
                "tempo": 120.0
            },
            {
                "start_time": 20.2613636,
                "end_time": 20.4727273,
                "pitch": 66,
                "velocity": 64,
                "duration": 0.2113636,
                "tempo": 120.0
            },
            {
                "start_time": 20.4727273,
                "end_time": 20.5886364,
                "pitch": 66,
                "velocity": 64,
                "duration": 0.1159091,
                "tempo": 120.0
            },
            {
                "start_time": 20.5886364,
                "end_time": 20.8,
                "pitch": 66,
                "velocity": 64,
                "duration": 0.2113636,
                "tempo": 120.0
            },
            {
                "start_time": 20.8,
                "end_time": 21.0181818,
                "pitch": 73,
                "velocity": 64,
                "duration": 0.2181818,
                "tempo": 120.0
            },
            {
                "start_time": 21.0181818,
                "end_time": 21.0340909,
                "pitch": 73,
                "velocity": 64,
                "duration": 0.0159091,
                "tempo": 120.0
            },
            {
                "start_time": 21.0340909,
                "end_time": 21.2681818,
                "pitch": 76,
                "velocity": 64,
                "duration": 0.2340909,
                "tempo": 120.0
            },
            {
                "start_time": 21.2681818,
                "end_time": 21.4681818,
                "pitch": 66,
                "velocity": 64,
                "duration": 0.2,
                "tempo": 120.0
            },
            {
                "start_time": 21.4681818,
                "end_time": 21.7022727,
                "pitch": 66,
                "velocity": 64,
                "duration": 0.2340909,
                "tempo": 120.0
            },
            {
                "start_time": 21.7022727,
                "end_time": 21.9113636,
                "pitch": 78,
                "velocity": 64,
                "duration": 0.2090909,
                "tempo": 120.0
            },
            {
                "start_time": 21.9113636,
                "end_time": 22.0068182,
                "pitch": 66,
                "velocity": 64,
                "duration": 0.0954545,
                "tempo": 120.0
            },
            {
                "start_time": 22.0068182,
                "end_time": 22.2318182,
                "pitch": 66,
                "velocity": 64,
                "duration": 0.225,
                "tempo": 120.0
            },
            {
                "start_time": 22.2318182,
                "end_time": 22.3477273,
                "pitch": 66,
                "velocity": 64,
                "duration": 0.1159091,
                "tempo": 120.0
            },
            {
                "start_time": 22.3477273,
                "end_time": 22.575,
                "pitch": 66,
                "velocity": 64,
                "duration": 0.2272727,
                "tempo": 120.0
            },
            {
                "start_time": 22.575,
                "end_time": 22.7818182,
                "pitch": 73,
                "velocity": 64,
                "duration": 0.2068182,
                "tempo": 120.0
            },
            {
                "start_time": 22.7818182,
                "end_time": 23.0363636,
                "pitch": 76,
                "velocity": 64,
                "duration": 0.2545455,
                "tempo": 120.0
            }
        ],
        "Flute": [
            {
                "start_time": 0.0295455,
                "end_time": 0.2477273,
                "pitch": 59,
                "velocity": 40,
                "duration": 0.2181818,
                "tempo": 120.0
            },
            {
                "start_time": 0.2477273,
                "end_time": 0.4818182,
                "pitch": 59,
                "velocity": 40,
                "duration": 0.2340909,
                "tempo": 120.0
            },
            {
                "start_time": 0.4818182,
                "end_time": 0.7159091,
                "pitch": 59,
                "velocity": 40,
                "duration": 0.2340909,
                "tempo": 120.0
            },
            {
                "start_time": 0.7159091,
                "end_time": 0.9318182,
                "pitch": 66,
                "velocity": 40,
                "duration": 0.2159091,
                "tempo": 120.0
            },
            {
                "start_time": 0.9318182,
                "end_time": 1.0340909,
                "pitch": 59,
                "velocity": 40,
                "duration": 0.1022727,
                "tempo": 120.0
            },
            {
                "start_time": 1.0340909,
                "end_time": 1.2568182,
                "pitch": 59,
                "velocity": 40,
                "duration": 0.2227273,
                "tempo": 120.0
            },
            {
                "start_time": 1.2568182,
                "end_time": 1.3931818,
                "pitch": 59,
                "velocity": 40,
                "duration": 0.1363636,
                "tempo": 120.0
            },
            {
                "start_time": 1.3931818,
                "end_time": 1.5909091,
                "pitch": 59,
                "velocity": 40,
                "duration": 0.1977273,
                "tempo": 120.0
            },
            {
                "start_time": 1.5909091,
                "end_time": 1.6545455,
                "pitch": 67,
                "velocity": 40,
                "duration": 0.0636364,
                "tempo": 120.0
            },
            {
                "start_time": 1.6545455,
                "end_time": 1.7863636,
                "pitch": 67,
                "velocity": 40,
                "duration": 0.1318182,
                "tempo": 120.0
            },
            {
                "start_time": 1.7863636,
                "end_time": 1.8181818,
                "pitch": 67,
                "velocity": 40,
                "duration": 0.0318182,
                "tempo": 120.0
            },
            {
                "start_time": 1.8181818,
                "end_time": 2.0477273,
                "pitch": 59,
                "velocity": 40,
                "duration": 0.2295455,
                "tempo": 120.0
            },
            {
                "start_time": 2.0477273,
                "end_time": 2.2590909,
                "pitch": 59,
                "velocity": 40,
                "duration": 0.2113636,
                "tempo": 120.0
            },
            {
                "start_time": 2.2590909,
                "end_time": 2.4772727,
                "pitch": 59,
                "velocity": 40,
                "duration": 0.2181818,
                "tempo": 120.0
            },
            {
                "start_time": 2.4772727,
                "end_time": 2.7113636,
                "pitch": 69,
                "velocity": 40,
                "duration": 0.2340909,
                "tempo": 120.0
            },
            {
                "start_time": 2.7113636,
                "end_time": 2.7772727,
                "pitch": 57,
                "velocity": 40,
                "duration": 0.0659091,
                "tempo": 120.0
            },
            {
                "start_time": 2.7772727,
                "end_time": 2.7954545,
                "pitch": 59,
                "velocity": 40,
                "duration": 0.0181818,
                "tempo": 120.0
            },
            {
                "start_time": 2.7954545,
                "end_time": 3.0295455,
                "pitch": 59,
                "velocity": 40,
                "duration": 0.2340909,
                "tempo": 120.0
            },
            {
                "start_time": 3.0295455,
                "end_time": 3.1454545,
                "pitch": 59,
                "velocity": 40,
                "duration": 0.1159091,
                "tempo": 120.0
            },
            {
                "start_time": 3.1454545,
                "end_time": 3.3704545,
                "pitch": 59,
                "velocity": 40,
                "duration": 0.225,
                "tempo": 120.0
            },
            {
                "start_time": 3.3704545,
                "end_time": 3.5772727,
                "pitch": 71,
                "velocity": 40,
                "duration": 0.2068182,
                "tempo": 120.0
            },
            {
                "start_time": 3.5772727,
                "end_time": 3.7954545,
                "pitch": 59,
                "velocity": 40,
                "duration": 0.2181818,
                "tempo": 120.0
            },
            {
                "start_time": 3.7954545,
                "end_time": 4.0295455,
                "pitch": 59,
                "velocity": 40,
                "duration": 0.2340909,
                "tempo": 120.0
            },
            {
                "start_time": 4.0295455,
                "end_time": 4.2295455,
                "pitch": 59,
                "velocity": 40,
                "duration": 0.2,
                "tempo": 120.0
            },
            {
                "start_time": 4.2295455,
                "end_time": 4.4795455,
                "pitch": 66,
                "velocity": 40,
                "duration": 0.25,
                "tempo": 120.0
            },
            {
                "start_time": 4.4795455,
                "end_time": 4.5636364,
                "pitch": 59,
                "velocity": 40,
                "duration": 0.0840909,
                "tempo": 120.0
            },
            {
                "start_time": 4.5636364,
                "end_time": 4.7977273,
                "pitch": 59,
                "velocity": 40,
                "duration": 0.2340909,
                "tempo": 120.0
            },
            {
                "start_time": 4.7977273,
                "end_time": 4.9136364,
                "pitch": 59,
                "velocity": 40,
                "duration": 0.1159091,
                "tempo": 120.0
            },
            {
                "start_time": 4.9136364,
                "end_time": 5.1272727,
                "pitch": 59,
                "velocity": 40,
                "duration": 0.2136364,
                "tempo": 120.0
            },
            {
                "start_time": 5.1272727,
                "end_time": 5.1931818,
                "pitch": 67,
                "velocity": 40,
                "duration": 0.0659091,
                "tempo": 120.0
            },
            {
                "start_time": 5.1931818,
                "end_time": 5.3227273,
                "pitch": 67,
                "velocity": 40,
                "duration": 0.1295455,
                "tempo": 120.0
            },
            {
                "start_time": 5.3227273,
                "end_time": 5.3568182,
                "pitch": 67,
                "velocity": 40,
                "duration": 0.0340909,
                "tempo": 120.0
            },
            {
                "start_time": 5.3568182,
                "end_time": 5.5568182,
                "pitch": 59,
                "velocity": 40,
                "duration": 0.2,
                "tempo": 120.0
            },
            {
                "start_time": 5.5568182,
                "end_time": 5.8068182,
                "pitch": 59,
                "velocity": 40,
                "duration": 0.25,
                "tempo": 120.0
            },
            {
                "start_time": 5.8068182,
                "end_time": 6.025,
                "pitch": 59,
                "velocity": 40,
                "duration": 0.2181818,
                "tempo": 120.0
            },
            {
                "start_time": 6.025,
                "end_time": 6.2409091,
                "pitch": 69,
                "velocity": 40,
                "duration": 0.2159091,
                "tempo": 120.0
            },
            {
                "start_time": 6.2409091,
                "end_time": 6.2886364,
                "pitch": 57,
                "velocity": 40,
                "duration": 0.0477273,
                "tempo": 120.0
            },
            {
                "start_time": 6.2886364,
                "end_time": 6.3386364,
                "pitch": 59,
                "velocity": 40,
                "duration": 0.05,
                "tempo": 120.0
            },
            {
                "start_time": 6.3386364,
                "end_time": 6.5613636,
                "pitch": 59,
                "velocity": 40,
                "duration": 0.2227273,
                "tempo": 120.0
            },
            {
                "start_time": 6.5613636,
                "end_time": 6.6727273,
                "pitch": 59,
                "velocity": 40,
                "duration": 0.1113636,
                "tempo": 120.0
            },
            {
                "start_time": 6.6727273,
                "end_time": 6.9068182,
                "pitch": 59,
                "velocity": 40,
                "duration": 0.2340909,
                "tempo": 120.0
            },
            {
                "start_time": 6.9068182,
                "end_time": 7.125,
                "pitch": 71,
                "velocity": 40,
                "duration": 0.2181818,
                "tempo": 120.0
            },
            {
                "start_time": 7.125,
                "end_time": 7.3409091,
                "pitch": 54,
                "velocity": 40,
                "duration": 0.2159091,
                "tempo": 120.0
            },
            {
                "start_time": 7.3409091,
                "end_time": 7.575,
                "pitch": 54,
                "velocity": 40,
                "duration": 0.2340909,
                "tempo": 120.0
            },
            {
                "start_time": 7.575,
                "end_time": 7.7772727,
                "pitch": 54,
                "velocity": 40,
                "duration": 0.2022727,
                "tempo": 120.0
            },
            {
                "start_time": 7.7772727,
                "end_time": 8.0113636,
                "pitch": 61,
                "velocity": 40,
                "duration": 0.2340909,
                "tempo": 120.0
            },
            {
                "start_time": 8.0113636,
                "end_time": 8.1068182,
                "pitch": 54,
                "velocity": 40,
                "duration": 0.0954545,
                "tempo": 120.0
            },
            {
                "start_time": 8.1068182,
                "end_time": 8.3136364,
                "pitch": 54,
                "velocity": 40,
                "duration": 0.2068182,
                "tempo": 120.0
            },
            {
                "start_time": 8.3136364,
                "end_time": 8.4431818,
                "pitch": 54,
                "velocity": 40,
                "duration": 0.1295455,
                "tempo": 120.0
            },
            {
                "start_time": 8.4431818,
                "end_time": 8.6590909,
                "pitch": 54,
                "velocity": 40,
                "duration": 0.2159091,
                "tempo": 120.0
            },
            {
                "start_time": 8.6590909,
                "end_time": 8.8931818,
                "pitch": 62,
                "velocity": 40,
                "duration": 0.2340909,
                "tempo": 120.0
            },
            {
                "start_time": 8.8931818,
                "end_time": 9.0931818,
                "pitch": 54,
                "velocity": 40,
                "duration": 0.2,
                "tempo": 120.0
            },
            {
                "start_time": 9.0931818,
                "end_time": 9.3272727,
                "pitch": 54,
                "velocity": 40,
                "duration": 0.2340909,
                "tempo": 120.0
            },
            {
                "start_time": 9.3272727,
                "end_time": 9.5568182,
                "pitch": 54,
                "velocity": 40,
                "duration": 0.2295455,
                "tempo": 120.0
            },
            {
                "start_time": 9.5568182,
                "end_time": 9.7704545,
                "pitch": 64,
                "velocity": 40,
                "duration": 0.2136364,
                "tempo": 120.0
            },
            {
                "start_time": 9.7704545,
                "end_time": 9.8204545,
                "pitch": 52,
                "velocity": 40,
                "duration": 0.05,
                "tempo": 120.0
            },
            {
                "start_time": 9.8204545,
                "end_time": 9.8704545,
                "pitch": 54,
                "velocity": 40,
                "duration": 0.05,
                "tempo": 120.0
            },
            {
                "start_time": 9.8704545,
                "end_time": 10.0863636,
                "pitch": 54,
                "velocity": 40,
                "duration": 0.2159091,
                "tempo": 120.0
            },
            {
                "start_time": 10.0863636,
                "end_time": 10.2204545,
                "pitch": 54,
                "velocity": 40,
                "duration": 0.1340909,
                "tempo": 120.0
            },
            {
                "start_time": 10.2204545,
                "end_time": 10.4159091,
                "pitch": 54,
                "velocity": 40,
                "duration": 0.1954545,
                "tempo": 120.0
            },
            {
                "start_time": 10.4159091,
                "end_time": 10.6613636,
                "pitch": 66,
                "velocity": 40,
                "duration": 0.2454545,
                "tempo": 120.0
            },
            {
                "start_time": 10.6613636,
                "end_time": 10.8840909,
                "pitch": 54,
                "velocity": 40,
                "duration": 0.2227273,
                "tempo": 120.0
            },
            {
                "start_time": 10.8840909,
                "end_time": 11.1068182,
                "pitch": 54,
                "velocity": 40,
                "duration": 0.2227273,
                "tempo": 120.0
            },
            {
                "start_time": 11.1068182,
                "end_time": 11.3136364,
                "pitch": 54,
                "velocity": 40,
                "duration": 0.2068182,
                "tempo": 120.0
            },
            {
                "start_time": 11.3136364,
                "end_time": 11.5386364,
                "pitch": 61,
                "velocity": 40,
                "duration": 0.225,
                "tempo": 120.0
            },
            {
                "start_time": 11.5386364,
                "end_time": 11.6386364,
                "pitch": 54,
                "velocity": 40,
                "duration": 0.1,
                "tempo": 120.0
            },
            {
                "start_time": 11.6386364,
                "end_time": 11.8545455,
                "pitch": 54,
                "velocity": 40,
                "duration": 0.2159091,
                "tempo": 120.0
            },
            {
                "start_time": 11.8545455,
                "end_time": 11.9886364,
                "pitch": 54,
                "velocity": 40,
                "duration": 0.1340909,
                "tempo": 120.0
            },
            {
                "start_time": 11.9886364,
                "end_time": 12.2068182,
                "pitch": 54,
                "velocity": 40,
                "duration": 0.2181818,
                "tempo": 120.0
            },
            {
                "start_time": 12.2068182,
                "end_time": 12.4227273,
                "pitch": 62,
                "velocity": 40,
                "duration": 0.2159091,
                "tempo": 120.0
            },
            {
                "start_time": 12.4227273,
                "end_time": 12.6318182,
                "pitch": 54,
                "velocity": 40,
                "duration": 0.2090909,
                "tempo": 120.0
            },
            {
                "start_time": 12.6318182,
                "end_time": 12.8545455,
                "pitch": 54,
                "velocity": 40,
                "duration": 0.2227273,
                "tempo": 120.0
            },
            {
                "start_time": 12.8545455,
                "end_time": 13.0886364,
                "pitch": 54,
                "velocity": 40,
                "duration": 0.2340909,
                "tempo": 120.0
            },
            {
                "start_time": 13.0886364,
                "end_time": 13.3068182,
                "pitch": 64,
                "velocity": 40,
                "duration": 0.2181818,
                "tempo": 120.0
            },
            {
                "start_time": 13.3068182,
                "end_time": 13.3568182,
                "pitch": 52,
                "velocity": 40,
                "duration": 0.05,
                "tempo": 120.0
            },
            {
                "start_time": 13.3568182,
                "end_time": 13.4068182,
                "pitch": 54,
                "velocity": 40,
                "duration": 0.05,
                "tempo": 120.0
            },
            {
                "start_time": 13.4068182,
                "end_time": 13.625,
                "pitch": 54,
                "velocity": 40,
                "duration": 0.2181818,
                "tempo": 120.0
            },
            {
                "start_time": 13.625,
                "end_time": 13.7568182,
                "pitch": 54,
                "velocity": 40,
                "duration": 0.1318182,
                "tempo": 120.0
            },
            {
                "start_time": 13.7568182,
                "end_time": 13.9590909,
                "pitch": 54,
                "velocity": 40,
                "duration": 0.2022727,
                "tempo": 120.0
            },
            {
                "start_time": 13.9590909,
                "end_time": 14.1931818,
                "pitch": 66,
                "velocity": 40,
                "duration": 0.2340909,
                "tempo": 120.0
            },
            {
                "start_time": 14.1931818,
                "end_time": 14.4204545,
                "pitch": 59,
                "velocity": 40,
                "duration": 0.2272727,
                "tempo": 120.0
            },
            {
                "start_time": 14.4204545,
                "end_time": 14.6340909,
                "pitch": 59,
                "velocity": 40,
                "duration": 0.2136364,
                "tempo": 120.0
            },
            {
                "start_time": 14.6340909,
                "end_time": 14.85,
                "pitch": 71,
                "velocity": 40,
                "duration": 0.2159091,
                "tempo": 120.0
            },
            {
                "start_time": 14.85,
                "end_time": 14.95,
                "pitch": 59,
                "velocity": 40,
                "duration": 0.1,
                "tempo": 120.0
            },
            {
                "start_time": 14.95,
                "end_time": 15.1681818,
                "pitch": 59,
                "velocity": 40,
                "duration": 0.2181818,
                "tempo": 120.0
            },
            {
                "start_time": 15.1681818,
                "end_time": 15.2863636,
                "pitch": 59,
                "velocity": 40,
                "duration": 0.1181818,
                "tempo": 120.0
            },
            {
                "start_time": 15.2863636,
                "end_time": 15.5204545,
                "pitch": 59,
                "velocity": 40,
                "duration": 0.2340909,
                "tempo": 120.0
            },
            {
                "start_time": 15.5204545,
                "end_time": 15.7431818,
                "pitch": 66,
                "velocity": 40,
                "duration": 0.2227273,
                "tempo": 120.0
            },
            {
                "start_time": 15.7431818,
                "end_time": 15.9522727,
                "pitch": 69,
                "velocity": 40,
                "duration": 0.2090909,
                "tempo": 120.0
            },
            {
                "start_time": 15.9522727,
                "end_time": 16.1681818,
                "pitch": 64,
                "velocity": 40,
                "duration": 0.2159091,
                "tempo": 120.0
            },
            {
                "start_time": 16.1681818,
                "end_time": 16.4022727,
                "pitch": 64,
                "velocity": 40,
                "duration": 0.2340909,
                "tempo": 120.0
            },
            {
                "start_time": 16.4022727,
                "end_time": 16.6022727,
                "pitch": 76,
                "velocity": 40,
                "duration": 0.2,
                "tempo": 120.0
            },
            {
                "start_time": 16.6022727,
                "end_time": 16.7204545,
                "pitch": 64,
                "velocity": 40,
                "duration": 0.1181818,
                "tempo": 120.0
            },
            {
                "start_time": 16.7204545,
                "end_time": 16.9340909,
                "pitch": 64,
                "velocity": 40,
                "duration": 0.2136364,
                "tempo": 120.0
            },
            {
                "start_time": 16.9340909,
                "end_time": 17.0659091,
                "pitch": 64,
                "velocity": 40,
                "duration": 0.1318182,
                "tempo": 120.0
            },
            {
                "start_time": 17.0659091,
                "end_time": 17.2772727,
                "pitch": 64,
                "velocity": 40,
                "duration": 0.2113636,
                "tempo": 120.0
            },
            {
                "start_time": 17.2772727,
                "end_time": 17.4909091,
                "pitch": 72,
                "velocity": 40,
                "duration": 0.2136364,
                "tempo": 120.0
            },
            {
                "start_time": 17.4909091,
                "end_time": 17.7204545,
                "pitch": 72,
                "velocity": 40,
                "duration": 0.2295455,
                "tempo": 120.0
            },
            {
                "start_time": 17.7204545,
                "end_time": 17.7863636,
                "pitch": 59,
                "velocity": 40,
                "duration": 0.0659091,
                "tempo": 120.0
            },
            {
                "start_time": 17.7863636,
                "end_time": 17.9204545,
                "pitch": 61,
                "velocity": 40,
                "duration": 0.1340909,
                "tempo": 120.0
            },
            {
                "start_time": 17.9204545,
                "end_time": 18.1704545,
                "pitch": 61,
                "velocity": 40,
                "duration": 0.25,
                "tempo": 120.0
            },
            {
                "start_time": 18.1704545,
                "end_time": 18.3886364,
                "pitch": 73,
                "velocity": 40,
                "duration": 0.2181818,
                "tempo": 120.0
            },
            {
                "start_time": 18.3886364,
                "end_time": 18.4886364,
                "pitch": 61,
                "velocity": 40,
                "duration": 0.1,
                "tempo": 120.0
            },
            {
                "start_time": 18.4886364,
                "end_time": 18.6977273,
                "pitch": 61,
                "velocity": 40,
                "duration": 0.2090909,
                "tempo": 120.0
            },
            {
                "start_time": 18.6977273,
                "end_time": 18.8090909,
                "pitch": 61,
                "velocity": 40,
                "duration": 0.1113636,
                "tempo": 120.0
            },
            {
                "start_time": 18.8090909,
                "end_time": 19.0272727,
                "pitch": 61,
                "velocity": 40,
                "duration": 0.2181818,
                "tempo": 120.0
            },
            {
                "start_time": 19.0272727,
                "end_time": 19.2704545,
                "pitch": 68,
                "velocity": 40,
                "duration": 0.2431818,
                "tempo": 120.0
            },
            {
                "start_time": 19.2704545,
                "end_time": 19.5,
                "pitch": 68,
                "velocity": 40,
                "duration": 0.2295455,
                "tempo": 120.0
            },
            {
                "start_time": 19.5,
                "end_time": 19.7159091,
                "pitch": 66,
                "velocity": 40,
                "duration": 0.2159091,
                "tempo": 120.0
            },
            {
                "start_time": 19.7159091,
                "end_time": 19.95,
                "pitch": 66,
                "velocity": 40,
                "duration": 0.2340909,
                "tempo": 120.0
            },
            {
                "start_time": 19.95,
                "end_time": 20.1477273,
                "pitch": 78,
                "velocity": 40,
                "duration": 0.1977273,
                "tempo": 120.0
            },
            {
                "start_time": 20.1477273,
                "end_time": 20.2613636,
                "pitch": 66,
                "velocity": 40,
                "duration": 0.1136364,
                "tempo": 120.0
            },
            {
                "start_time": 20.2613636,
                "end_time": 20.4727273,
                "pitch": 66,
                "velocity": 40,
                "duration": 0.2113636,
                "tempo": 120.0
            },
            {
                "start_time": 20.4727273,
                "end_time": 20.6045455,
                "pitch": 66,
                "velocity": 40,
                "duration": 0.1318182,
                "tempo": 120.0
            },
            {
                "start_time": 20.6045455,
                "end_time": 20.8159091,
                "pitch": 66,
                "velocity": 40,
                "duration": 0.2113636,
                "tempo": 120.0
            },
            {
                "start_time": 20.8159091,
                "end_time": 21.0340909,
                "pitch": 73,
                "velocity": 40,
                "duration": 0.2181818,
                "tempo": 120.0
            },
            {
                "start_time": 21.0340909,
                "end_time": 21.2681818,
                "pitch": 76,
                "velocity": 40,
                "duration": 0.2340909,
                "tempo": 120.0
            },
            {
                "start_time": 21.2681818,
                "end_time": 21.4681818,
                "pitch": 64,
                "velocity": 40,
                "duration": 0.2,
                "tempo": 120.0
            },
            {
                "start_time": 21.4681818,
                "end_time": 21.7022727,
                "pitch": 66,
                "velocity": 40,
                "duration": 0.2340909,
                "tempo": 120.0
            },
            {
                "start_time": 21.7022727,
                "end_time": 21.9272727,
                "pitch": 78,
                "velocity": 40,
                "duration": 0.225,
                "tempo": 120.0
            },
            {
                "start_time": 21.9272727,
                "end_time": 22.0068182,
                "pitch": 66,
                "velocity": 40,
                "duration": 0.0795455,
                "tempo": 120.0
            },
            {
                "start_time": 22.0068182,
                "end_time": 22.2318182,
                "pitch": 66,
                "velocity": 40,
                "duration": 0.225,
                "tempo": 120.0
            },
            {
                "start_time": 22.2318182,
                "end_time": 22.3477273,
                "pitch": 66,
                "velocity": 40,
                "duration": 0.1159091,
                "tempo": 120.0
            },
            {
                "start_time": 22.3477273,
                "end_time": 22.575,
                "pitch": 66,
                "velocity": 40,
                "duration": 0.2272727,
                "tempo": 120.0
            },
            {
                "start_time": 22.575,
                "end_time": 22.7818182,
                "pitch": 73,
                "velocity": 40,
                "duration": 0.2068182,
                "tempo": 120.0
            },
            {
                "start_time": 22.7818182,
                "end_time": 23.0363636,
                "pitch": 76,
                "velocity": 40,
                "duration": 0.2545455,
                "tempo": 120.0
            }
        ],
        "Lead 2 (sawtooth)": [
            {
                "start_time": 0.0295455,
                "end_time": 0.1295455,
                "pitch": 47,
                "velocity": 51,
                "duration": 0.1,
                "tempo": 120.0
            },
            {
                "start_time": 0.1295455,
                "end_time": 0.2636364,
                "pitch": 54,
                "velocity": 51,
                "duration": 0.1340909,
                "tempo": 120.0
            },
            {
                "start_time": 0.2636364,
                "end_time": 0.3636364,
                "pitch": 59,
                "velocity": 51,
                "duration": 0.1,
                "tempo": 120.0
            },
            {
                "start_time": 0.3636364,
                "end_time": 0.4818182,
                "pitch": 54,
                "velocity": 51,
                "duration": 0.1181818,
                "tempo": 120.0
            },
            {
                "start_time": 0.4818182,
                "end_time": 0.5818182,
                "pitch": 47,
                "velocity": 51,
                "duration": 0.1,
                "tempo": 120.0
            },
            {
                "start_time": 0.5818182,
                "end_time": 0.7159091,
                "pitch": 54,
                "velocity": 51,
                "duration": 0.1340909,
                "tempo": 120.0
            },
            {
                "start_time": 0.7159091,
                "end_time": 0.7977273,
                "pitch": 59,
                "velocity": 51,
                "duration": 0.0818182,
                "tempo": 120.0
            },
            {
                "start_time": 0.7977273,
                "end_time": 0.9318182,
                "pitch": 54,
                "velocity": 51,
                "duration": 0.1340909,
                "tempo": 120.0
            },
            {
                "start_time": 0.9318182,
                "end_time": 1.0522727,
                "pitch": 47,
                "velocity": 51,
                "duration": 0.1204545,
                "tempo": 120.0
            },
            {
                "start_time": 1.0522727,
                "end_time": 1.1386364,
                "pitch": 54,
                "velocity": 51,
                "duration": 0.0863636,
                "tempo": 120.0
            },
            {
                "start_time": 1.1386364,
                "end_time": 1.2568182,
                "pitch": 59,
                "velocity": 51,
                "duration": 0.1181818,
                "tempo": 120.0
            },
            {
                "start_time": 1.2568182,
                "end_time": 1.3931818,
                "pitch": 54,
                "velocity": 51,
                "duration": 0.1363636,
                "tempo": 120.0
            },
            {
                "start_time": 1.3931818,
                "end_time": 1.475,
                "pitch": 47,
                "velocity": 51,
                "duration": 0.0818182,
                "tempo": 120.0
            },
            {
                "start_time": 1.475,
                "end_time": 1.6068182,
                "pitch": 54,
                "velocity": 51,
                "duration": 0.1318182,
                "tempo": 120.0
            },
            {
                "start_time": 1.6068182,
                "end_time": 1.7045455,
                "pitch": 59,
                "velocity": 51,
                "duration": 0.0977273,
                "tempo": 120.0
            },
            {
                "start_time": 1.7045455,
                "end_time": 1.8181818,
                "pitch": 54,
                "velocity": 51,
                "duration": 0.1136364,
                "tempo": 120.0
            },
            {
                "start_time": 1.8181818,
                "end_time": 1.9159091,
                "pitch": 47,
                "velocity": 51,
                "duration": 0.0977273,
                "tempo": 120.0
            },
            {
                "start_time": 1.9159091,
                "end_time": 2.0477273,
                "pitch": 54,
                "velocity": 51,
                "duration": 0.1318182,
                "tempo": 120.0
            },
            {
                "start_time": 2.0477273,
                "end_time": 2.1295455,
                "pitch": 59,
                "velocity": 51,
                "duration": 0.0818182,
                "tempo": 120.0
            },
            {
                "start_time": 2.1295455,
                "end_time": 2.2590909,
                "pitch": 54,
                "velocity": 51,
                "duration": 0.1295455,
                "tempo": 120.0
            },
            {
                "start_time": 2.2590909,
                "end_time": 2.3613636,
                "pitch": 47,
                "velocity": 51,
                "duration": 0.1022727,
                "tempo": 120.0
            },
            {
                "start_time": 2.3613636,
                "end_time": 2.4772727,
                "pitch": 54,
                "velocity": 51,
                "duration": 0.1159091,
                "tempo": 120.0
            },
            {
                "start_time": 2.4772727,
                "end_time": 2.5772727,
                "pitch": 59,
                "velocity": 51,
                "duration": 0.1,
                "tempo": 120.0
            },
            {
                "start_time": 2.5772727,
                "end_time": 2.7113636,
                "pitch": 54,
                "velocity": 51,
                "duration": 0.1340909,
                "tempo": 120.0
            },
            {
                "start_time": 2.7113636,
                "end_time": 2.8113636,
                "pitch": 47,
                "velocity": 51,
                "duration": 0.1,
                "tempo": 120.0
            },
            {
                "start_time": 2.8113636,
                "end_time": 2.9113636,
                "pitch": 54,
                "velocity": 51,
                "duration": 0.1,
                "tempo": 120.0
            },
            {
                "start_time": 2.9113636,
                "end_time": 3.0454545,
                "pitch": 59,
                "velocity": 51,
                "duration": 0.1340909,
                "tempo": 120.0
            },
            {
                "start_time": 3.0454545,
                "end_time": 3.1454545,
                "pitch": 54,
                "velocity": 51,
                "duration": 0.1,
                "tempo": 120.0
            },
            {
                "start_time": 3.1454545,
                "end_time": 3.2409091,
                "pitch": 47,
                "velocity": 51,
                "duration": 0.0954545,
                "tempo": 120.0
            },
            {
                "start_time": 3.2409091,
                "end_time": 3.3704545,
                "pitch": 54,
                "velocity": 51,
                "duration": 0.1295455,
                "tempo": 120.0
            },
            {
                "start_time": 3.3704545,
                "end_time": 3.4659091,
                "pitch": 59,
                "velocity": 51,
                "duration": 0.0954545,
                "tempo": 120.0
            },
            {
                "start_time": 3.4659091,
                "end_time": 3.5772727,
                "pitch": 54,
                "velocity": 51,
                "duration": 0.1113636,
                "tempo": 120.0
            },
            {
                "start_time": 3.5772727,
                "end_time": 3.6772727,
                "pitch": 47,
                "velocity": 51,
                "duration": 0.1,
                "tempo": 120.0
            },
            {
                "start_time": 3.6772727,
                "end_time": 3.8113636,
                "pitch": 54,
                "velocity": 51,
                "duration": 0.1340909,
                "tempo": 120.0
            },
            {
                "start_time": 3.8113636,
                "end_time": 3.8954545,
                "pitch": 59,
                "velocity": 51,
                "duration": 0.0840909,
                "tempo": 120.0
            },
            {
                "start_time": 3.8954545,
                "end_time": 4.0295455,
                "pitch": 54,
                "velocity": 51,
                "duration": 0.1340909,
                "tempo": 120.0
            },
            {
                "start_time": 4.0295455,
                "end_time": 4.1295455,
                "pitch": 47,
                "velocity": 51,
                "duration": 0.1,
                "tempo": 120.0
            },
            {
                "start_time": 4.1295455,
                "end_time": 4.2454545,
                "pitch": 54,
                "velocity": 51,
                "duration": 0.1159091,
                "tempo": 120.0
            },
            {
                "start_time": 4.2454545,
                "end_time": 4.3454545,
                "pitch": 59,
                "velocity": 51,
                "duration": 0.1,
                "tempo": 120.0
            },
            {
                "start_time": 4.3454545,
                "end_time": 4.4795455,
                "pitch": 54,
                "velocity": 51,
                "duration": 0.1340909,
                "tempo": 120.0
            },
            {
                "start_time": 4.4795455,
                "end_time": 4.5636364,
                "pitch": 47,
                "velocity": 51,
                "duration": 0.0840909,
                "tempo": 120.0
            },
            {
                "start_time": 4.5636364,
                "end_time": 4.6795455,
                "pitch": 54,
                "velocity": 51,
                "duration": 0.1159091,
                "tempo": 120.0
            },
            {
                "start_time": 4.6795455,
                "end_time": 4.7977273,
                "pitch": 59,
                "velocity": 51,
                "duration": 0.1181818,
                "tempo": 120.0
            },
            {
                "start_time": 4.7977273,
                "end_time": 4.9136364,
                "pitch": 54,
                "velocity": 51,
                "duration": 0.1159091,
                "tempo": 120.0
            },
            {
                "start_time": 4.9136364,
                "end_time": 5.0136364,
                "pitch": 47,
                "velocity": 51,
                "duration": 0.1,
                "tempo": 120.0
            },
            {
                "start_time": 5.0136364,
                "end_time": 5.1431818,
                "pitch": 54,
                "velocity": 51,
                "duration": 0.1295455,
                "tempo": 120.0
            },
            {
                "start_time": 5.1431818,
                "end_time": 5.225,
                "pitch": 59,
                "velocity": 51,
                "duration": 0.0818182,
                "tempo": 120.0
            },
            {
                "start_time": 5.225,
                "end_time": 5.3568182,
                "pitch": 54,
                "velocity": 51,
                "duration": 0.1318182,
                "tempo": 120.0
            },
            {
                "start_time": 5.3568182,
                "end_time": 5.4568182,
                "pitch": 47,
                "velocity": 51,
                "duration": 0.1,
                "tempo": 120.0
            },
            {
                "start_time": 5.4568182,
                "end_time": 5.5727273,
                "pitch": 54,
                "velocity": 51,
                "duration": 0.1159091,
                "tempo": 120.0
            },
            {
                "start_time": 5.5727273,
                "end_time": 5.6727273,
                "pitch": 59,
                "velocity": 51,
                "duration": 0.1,
                "tempo": 120.0
            },
            {
                "start_time": 5.6727273,
                "end_time": 5.8068182,
                "pitch": 54,
                "velocity": 51,
                "duration": 0.1340909,
                "tempo": 120.0
            },
            {
                "start_time": 5.8068182,
                "end_time": 5.8909091,
                "pitch": 47,
                "velocity": 51,
                "duration": 0.0840909,
                "tempo": 120.0
            },
            {
                "start_time": 5.8909091,
                "end_time": 6.025,
                "pitch": 54,
                "velocity": 51,
                "duration": 0.1340909,
                "tempo": 120.0
            },
            {
                "start_time": 6.025,
                "end_time": 6.125,
                "pitch": 59,
                "velocity": 51,
                "duration": 0.1,
                "tempo": 120.0
            },
            {
                "start_time": 6.125,
                "end_time": 6.2409091,
                "pitch": 54,
                "velocity": 51,
                "duration": 0.1159091,
                "tempo": 120.0
            },
            {
                "start_time": 6.2409091,
                "end_time": 6.3545455,
                "pitch": 47,
                "velocity": 51,
                "duration": 0.1136364,
                "tempo": 120.0
            },
            {
                "start_time": 6.3545455,
                "end_time": 6.45,
                "pitch": 54,
                "velocity": 51,
                "duration": 0.0954545,
                "tempo": 120.0
            },
            {
                "start_time": 6.45,
                "end_time": 6.5772727,
                "pitch": 59,
                "velocity": 51,
                "duration": 0.1272727,
                "tempo": 120.0
            },
            {
                "start_time": 6.5772727,
                "end_time": 6.6727273,
                "pitch": 54,
                "velocity": 51,
                "duration": 0.0954545,
                "tempo": 120.0
            },
            {
                "start_time": 6.6727273,
                "end_time": 6.7727273,
                "pitch": 47,
                "velocity": 51,
                "duration": 0.1,
                "tempo": 120.0
            },
            {
                "start_time": 6.7727273,
                "end_time": 6.9068182,
                "pitch": 54,
                "velocity": 51,
                "duration": 0.1340909,
                "tempo": 120.0
            },
            {
                "start_time": 6.9068182,
                "end_time": 6.9909091,
                "pitch": 59,
                "velocity": 51,
                "duration": 0.0840909,
                "tempo": 120.0
            },
            {
                "start_time": 6.9909091,
                "end_time": 7.125,
                "pitch": 54,
                "velocity": 51,
                "duration": 0.1340909,
                "tempo": 120.0
            },
            {
                "start_time": 7.125,
                "end_time": 7.225,
                "pitch": 42,
                "velocity": 51,
                "duration": 0.1,
                "tempo": 120.0
            },
            {
                "start_time": 7.225,
                "end_time": 7.3409091,
                "pitch": 49,
                "velocity": 51,
                "duration": 0.1159091,
                "tempo": 120.0
            },
            {
                "start_time": 7.3409091,
                "end_time": 7.4431818,
                "pitch": 54,
                "velocity": 51,
                "duration": 0.1022727,
                "tempo": 120.0
            },
            {
                "start_time": 7.4431818,
                "end_time": 7.575,
                "pitch": 49,
                "velocity": 51,
                "duration": 0.1318182,
                "tempo": 120.0
            },
            {
                "start_time": 7.575,
                "end_time": 7.6590909,
                "pitch": 42,
                "velocity": 51,
                "duration": 0.0840909,
                "tempo": 120.0
            },
            {
                "start_time": 7.6590909,
                "end_time": 7.7931818,
                "pitch": 49,
                "velocity": 51,
                "duration": 0.1340909,
                "tempo": 120.0
            },
            {
                "start_time": 7.7931818,
                "end_time": 7.8931818,
                "pitch": 54,
                "velocity": 51,
                "duration": 0.1,
                "tempo": 120.0
            },
            {
                "start_time": 7.8931818,
                "end_time": 8.0113636,
                "pitch": 49,
                "velocity": 51,
                "duration": 0.1181818,
                "tempo": 120.0
            },
            {
                "start_time": 8.0113636,
                "end_time": 8.1068182,
                "pitch": 42,
                "velocity": 51,
                "duration": 0.0954545,
                "tempo": 120.0
            },
            {
                "start_time": 8.1068182,
                "end_time": 8.2181818,
                "pitch": 49,
                "velocity": 51,
                "duration": 0.1113636,
                "tempo": 120.0
            },
            {
                "start_time": 8.2181818,
                "end_time": 8.3295455,
                "pitch": 54,
                "velocity": 51,
                "duration": 0.1113636,
                "tempo": 120.0
            },
            {
                "start_time": 8.3295455,
                "end_time": 8.4431818,
                "pitch": 49,
                "velocity": 51,
                "duration": 0.1136364,
                "tempo": 120.0
            },
            {
                "start_time": 8.4431818,
                "end_time": 8.5431818,
                "pitch": 42,
                "velocity": 51,
                "duration": 0.1,
                "tempo": 120.0
            },
            {
                "start_time": 8.5431818,
                "end_time": 8.6590909,
                "pitch": 49,
                "velocity": 51,
                "duration": 0.1159091,
                "tempo": 120.0
            },
            {
                "start_time": 8.6590909,
                "end_time": 8.7590909,
                "pitch": 54,
                "velocity": 51,
                "duration": 0.1,
                "tempo": 120.0
            },
            {
                "start_time": 8.7590909,
                "end_time": 8.8931818,
                "pitch": 49,
                "velocity": 51,
                "duration": 0.1340909,
                "tempo": 120.0
            },
            {
                "start_time": 8.8931818,
                "end_time": 8.9772727,
                "pitch": 42,
                "velocity": 51,
                "duration": 0.0840909,
                "tempo": 120.0
            },
            {
                "start_time": 8.9772727,
                "end_time": 9.1113636,
                "pitch": 49,
                "velocity": 51,
                "duration": 0.1340909,
                "tempo": 120.0
            },
            {
                "start_time": 9.1113636,
                "end_time": 9.2113636,
                "pitch": 54,
                "velocity": 51,
                "duration": 0.1,
                "tempo": 120.0
            },
            {
                "start_time": 9.2113636,
                "end_time": 9.3272727,
                "pitch": 49,
                "velocity": 51,
                "duration": 0.1159091,
                "tempo": 120.0
            },
            {
                "start_time": 9.3272727,
                "end_time": 9.425,
                "pitch": 42,
                "velocity": 51,
                "duration": 0.0977273,
                "tempo": 120.0
            },
            {
                "start_time": 9.425,
                "end_time": 9.5568182,
                "pitch": 49,
                "velocity": 51,
                "duration": 0.1318182,
                "tempo": 120.0
            },
            {
                "start_time": 9.5568182,
                "end_time": 9.6545455,
                "pitch": 54,
                "velocity": 51,
                "duration": 0.0977273,
                "tempo": 120.0
            },
            {
                "start_time": 9.6545455,
                "end_time": 9.7704545,
                "pitch": 49,
                "velocity": 51,
                "duration": 0.1159091,
                "tempo": 120.0
            },
            {
                "start_time": 9.7704545,
                "end_time": 9.8863636,
                "pitch": 42,
                "velocity": 51,
                "duration": 0.1159091,
                "tempo": 120.0
            },
            {
                "start_time": 9.8863636,
                "end_time": 9.9863636,
                "pitch": 49,
                "velocity": 51,
                "duration": 0.1,
                "tempo": 120.0
            },
            {
                "start_time": 9.9863636,
                "end_time": 10.0863636,
                "pitch": 54,
                "velocity": 51,
                "duration": 0.1,
                "tempo": 120.0
            },
            {
                "start_time": 10.0863636,
                "end_time": 10.2204545,
                "pitch": 49,
                "velocity": 51,
                "duration": 0.1340909,
                "tempo": 120.0
            },
            {
                "start_time": 10.2204545,
                "end_time": 10.3181818,
                "pitch": 42,
                "velocity": 51,
                "duration": 0.0977273,
                "tempo": 120.0
            },
            {
                "start_time": 10.3181818,
                "end_time": 10.4318182,
                "pitch": 49,
                "velocity": 51,
                "duration": 0.1136364,
                "tempo": 120.0
            },
            {
                "start_time": 10.4318182,
                "end_time": 10.5318182,
                "pitch": 54,
                "velocity": 51,
                "duration": 0.1,
                "tempo": 120.0
            },
            {
                "start_time": 10.5318182,
                "end_time": 10.6613636,
                "pitch": 49,
                "velocity": 51,
                "duration": 0.1295455,
                "tempo": 120.0
            },
            {
                "start_time": 10.6613636,
                "end_time": 10.7477273,
                "pitch": 42,
                "velocity": 51,
                "duration": 0.0863636,
                "tempo": 120.0
            },
            {
                "start_time": 10.7477273,
                "end_time": 10.8840909,
                "pitch": 49,
                "velocity": 51,
                "duration": 0.1363636,
                "tempo": 120.0
            },
            {
                "start_time": 10.8840909,
                "end_time": 10.9863636,
                "pitch": 54,
                "velocity": 51,
                "duration": 0.1022727,
                "tempo": 120.0
            },
            {
                "start_time": 10.9863636,
                "end_time": 11.1068182,
                "pitch": 49,
                "velocity": 51,
                "duration": 0.1204545,
                "tempo": 120.0
            },
            {
                "start_time": 11.1068182,
                "end_time": 11.2022727,
                "pitch": 42,
                "velocity": 51,
                "duration": 0.0954545,
                "tempo": 120.0
            },
            {
                "start_time": 11.2022727,
                "end_time": 11.3295455,
                "pitch": 49,
                "velocity": 51,
                "duration": 0.1272727,
                "tempo": 120.0
            },
            {
                "start_time": 11.3295455,
                "end_time": 11.4090909,
                "pitch": 54,
                "velocity": 51,
                "duration": 0.0795455,
                "tempo": 120.0
            },
            {
                "start_time": 11.4090909,
                "end_time": 11.5386364,
                "pitch": 49,
                "velocity": 51,
                "duration": 0.1295455,
                "tempo": 120.0
            },
            {
                "start_time": 11.5386364,
                "end_time": 11.6386364,
                "pitch": 42,
                "velocity": 51,
                "duration": 0.1,
                "tempo": 120.0
            },
            {
                "start_time": 11.6386364,
                "end_time": 11.7386364,
                "pitch": 49,
                "velocity": 51,
                "duration": 0.1,
                "tempo": 120.0
            },
            {
                "start_time": 11.7386364,
                "end_time": 11.8727273,
                "pitch": 54,
                "velocity": 51,
                "duration": 0.1340909,
                "tempo": 120.0
            },
            {
                "start_time": 11.8727273,
                "end_time": 11.9886364,
                "pitch": 49,
                "velocity": 51,
                "duration": 0.1159091,
                "tempo": 120.0
            },
            {
                "start_time": 11.9886364,
                "end_time": 12.0727273,
                "pitch": 42,
                "velocity": 51,
                "duration": 0.0840909,
                "tempo": 120.0
            },
            {
                "start_time": 12.0727273,
                "end_time": 12.2068182,
                "pitch": 49,
                "velocity": 51,
                "duration": 0.1340909,
                "tempo": 120.0
            },
            {
                "start_time": 12.2068182,
                "end_time": 12.3068182,
                "pitch": 54,
                "velocity": 51,
                "duration": 0.1,
                "tempo": 120.0
            },
            {
                "start_time": 12.3068182,
                "end_time": 12.4227273,
                "pitch": 49,
                "velocity": 51,
                "duration": 0.1159091,
                "tempo": 120.0
            },
            {
                "start_time": 12.4227273,
                "end_time": 12.5204545,
                "pitch": 42,
                "velocity": 51,
                "duration": 0.0977273,
                "tempo": 120.0
            },
            {
                "start_time": 12.5204545,
                "end_time": 12.6477273,
                "pitch": 49,
                "velocity": 51,
                "duration": 0.1272727,
                "tempo": 120.0
            },
            {
                "start_time": 12.6477273,
                "end_time": 12.7272727,
                "pitch": 54,
                "velocity": 51,
                "duration": 0.0795455,
                "tempo": 120.0
            },
            {
                "start_time": 12.7272727,
                "end_time": 12.8545455,
                "pitch": 49,
                "velocity": 51,
                "duration": 0.1272727,
                "tempo": 120.0
            },
            {
                "start_time": 12.8545455,
                "end_time": 12.9545455,
                "pitch": 42,
                "velocity": 51,
                "duration": 0.1,
                "tempo": 120.0
            },
            {
                "start_time": 12.9545455,
                "end_time": 13.0886364,
                "pitch": 49,
                "velocity": 51,
                "duration": 0.1340909,
                "tempo": 120.0
            },
            {
                "start_time": 13.0886364,
                "end_time": 13.1727273,
                "pitch": 54,
                "velocity": 51,
                "duration": 0.0840909,
                "tempo": 120.0
            },
            {
                "start_time": 13.1727273,
                "end_time": 13.3068182,
                "pitch": 49,
                "velocity": 51,
                "duration": 0.1340909,
                "tempo": 120.0
            },
            {
                "start_time": 13.3068182,
                "end_time": 13.4227273,
                "pitch": 42,
                "velocity": 51,
                "duration": 0.1159091,
                "tempo": 120.0
            },
            {
                "start_time": 13.4227273,
                "end_time": 13.5068182,
                "pitch": 49,
                "velocity": 51,
                "duration": 0.0840909,
                "tempo": 120.0
            },
            {
                "start_time": 13.5068182,
                "end_time": 13.625,
                "pitch": 54,
                "velocity": 51,
                "duration": 0.1181818,
                "tempo": 120.0
            },
            {
                "start_time": 13.625,
                "end_time": 13.7568182,
                "pitch": 49,
                "velocity": 51,
                "duration": 0.1318182,
                "tempo": 120.0
            },
            {
                "start_time": 13.7568182,
                "end_time": 13.8409091,
                "pitch": 42,
                "velocity": 51,
                "duration": 0.0840909,
                "tempo": 120.0
            },
            {
                "start_time": 13.8409091,
                "end_time": 13.975,
                "pitch": 49,
                "velocity": 51,
                "duration": 0.1340909,
                "tempo": 120.0
            },
            {
                "start_time": 13.975,
                "end_time": 14.075,
                "pitch": 54,
                "velocity": 51,
                "duration": 0.1,
                "tempo": 120.0
            },
            {
                "start_time": 14.075,
                "end_time": 14.1931818,
                "pitch": 49,
                "velocity": 51,
                "duration": 0.1181818,
                "tempo": 120.0
            },
            {
                "start_time": 14.1931818,
                "end_time": 14.2909091,
                "pitch": 49,
                "velocity": 51,
                "duration": 0.0977273,
                "tempo": 120.0
            },
            {
                "start_time": 14.2909091,
                "end_time": 14.4204545,
                "pitch": 54,
                "velocity": 51,
                "duration": 0.1295455,
                "tempo": 120.0
            },
            {
                "start_time": 14.4204545,
                "end_time": 14.5022727,
                "pitch": 59,
                "velocity": 51,
                "duration": 0.0818182,
                "tempo": 120.0
            },
            {
                "start_time": 14.5022727,
                "end_time": 14.6340909,
                "pitch": 54,
                "velocity": 51,
                "duration": 0.1318182,
                "tempo": 120.0
            },
            {
                "start_time": 14.6340909,
                "end_time": 14.7340909,
                "pitch": 47,
                "velocity": 51,
                "duration": 0.1,
                "tempo": 120.0
            },
            {
                "start_time": 14.7340909,
                "end_time": 14.85,
                "pitch": 54,
                "velocity": 51,
                "duration": 0.1159091,
                "tempo": 120.0
            },
            {
                "start_time": 14.85,
                "end_time": 14.95,
                "pitch": 59,
                "velocity": 51,
                "duration": 0.1,
                "tempo": 120.0
            },
            {
                "start_time": 14.95,
                "end_time": 15.0681818,
                "pitch": 54,
                "velocity": 51,
                "duration": 0.1181818,
                "tempo": 120.0
            },
            {
                "start_time": 15.0681818,
                "end_time": 15.1840909,
                "pitch": 47,
                "velocity": 51,
                "duration": 0.1159091,
                "tempo": 120.0
            },
            {
                "start_time": 15.1840909,
                "end_time": 15.3022727,
                "pitch": 54,
                "velocity": 51,
                "duration": 0.1181818,
                "tempo": 120.0
            },
            {
                "start_time": 15.3022727,
                "end_time": 15.4022727,
                "pitch": 59,
                "velocity": 51,
                "duration": 0.1,
                "tempo": 120.0
            },
            {
                "start_time": 15.4022727,
                "end_time": 15.5204545,
                "pitch": 54,
                "velocity": 51,
                "duration": 0.1181818,
                "tempo": 120.0
            },
            {
                "start_time": 15.5204545,
                "end_time": 15.6159091,
                "pitch": 47,
                "velocity": 51,
                "duration": 0.0954545,
                "tempo": 120.0
            },
            {
                "start_time": 15.6159091,
                "end_time": 15.7431818,
                "pitch": 54,
                "velocity": 51,
                "duration": 0.1272727,
                "tempo": 120.0
            },
            {
                "start_time": 15.7431818,
                "end_time": 15.8227273,
                "pitch": 59,
                "velocity": 51,
                "duration": 0.0795455,
                "tempo": 120.0
            },
            {
                "start_time": 15.8227273,
                "end_time": 15.9522727,
                "pitch": 54,
                "velocity": 51,
                "duration": 0.1295455,
                "tempo": 120.0
            },
            {
                "start_time": 15.9522727,
                "end_time": 16.0522727,
                "pitch": 52,
                "velocity": 51,
                "duration": 0.1,
                "tempo": 120.0
            },
            {
                "start_time": 16.0522727,
                "end_time": 16.1840909,
                "pitch": 59,
                "velocity": 51,
                "duration": 0.1318182,
                "tempo": 120.0
            },
            {
                "start_time": 16.1840909,
                "end_time": 16.2681818,
                "pitch": 64,
                "velocity": 51,
                "duration": 0.0840909,
                "tempo": 120.0
            },
            {
                "start_time": 16.2681818,
                "end_time": 16.4022727,
                "pitch": 59,
                "velocity": 51,
                "duration": 0.1340909,
                "tempo": 120.0
            },
            {
                "start_time": 16.4022727,
                "end_time": 16.5022727,
                "pitch": 52,
                "velocity": 51,
                "duration": 0.1,
                "tempo": 120.0
            },
            {
                "start_time": 16.5022727,
                "end_time": 16.6204545,
                "pitch": 59,
                "velocity": 51,
                "duration": 0.1181818,
                "tempo": 120.0
            },
            {
                "start_time": 16.6204545,
                "end_time": 16.7363636,
                "pitch": 64,
                "velocity": 51,
                "duration": 0.1159091,
                "tempo": 120.0
            },
            {
                "start_time": 16.7363636,
                "end_time": 16.8363636,
                "pitch": 59,
                "velocity": 51,
                "duration": 0.1,
                "tempo": 120.0
            },
            {
                "start_time": 16.8363636,
                "end_time": 16.9340909,
                "pitch": 52,
                "velocity": 51,
                "duration": 0.0977273,
                "tempo": 120.0
            },
            {
                "start_time": 16.9340909,
                "end_time": 17.0659091,
                "pitch": 59,
                "velocity": 51,
                "duration": 0.1318182,
                "tempo": 120.0
            },
            {
                "start_time": 17.0659091,
                "end_time": 17.1636364,
                "pitch": 64,
                "velocity": 51,
                "duration": 0.0977273,
                "tempo": 120.0
            },
            {
                "start_time": 17.1636364,
                "end_time": 17.2772727,
                "pitch": 59,
                "velocity": 51,
                "duration": 0.1136364,
                "tempo": 120.0
            },
            {
                "start_time": 17.2772727,
                "end_time": 17.3772727,
                "pitch": 52,
                "velocity": 51,
                "duration": 0.1,
                "tempo": 120.0
            },
            {
                "start_time": 17.3772727,
                "end_time": 17.5068182,
                "pitch": 59,
                "velocity": 51,
                "duration": 0.1295455,
                "tempo": 120.0
            },
            {
                "start_time": 17.5068182,
                "end_time": 17.5886364,
                "pitch": 64,
                "velocity": 51,
                "duration": 0.0818182,
                "tempo": 120.0
            },
            {
                "start_time": 17.5886364,
                "end_time": 17.7204545,
                "pitch": 59,
                "velocity": 51,
                "duration": 0.1318182,
                "tempo": 120.0
            },
            {
                "start_time": 17.7204545,
                "end_time": 17.8204545,
                "pitch": 47,
                "velocity": 51,
                "duration": 0.1,
                "tempo": 120.0
            },
            {
                "start_time": 17.8204545,
                "end_time": 17.9363636,
                "pitch": 56,
                "velocity": 51,
                "duration": 0.1159091,
                "tempo": 120.0
            },
            {
                "start_time": 17.9363636,
                "end_time": 18.0363636,
                "pitch": 61,
                "velocity": 51,
                "duration": 0.1,
                "tempo": 120.0
            },
            {
                "start_time": 18.0363636,
                "end_time": 18.1704545,
                "pitch": 56,
                "velocity": 51,
                "duration": 0.1340909,
                "tempo": 120.0
            },
            {
                "start_time": 18.1704545,
                "end_time": 18.2545455,
                "pitch": 49,
                "velocity": 51,
                "duration": 0.0840909,
                "tempo": 120.0
            },
            {
                "start_time": 18.2545455,
                "end_time": 18.3886364,
                "pitch": 56,
                "velocity": 51,
                "duration": 0.1340909,
                "tempo": 120.0
            },
            {
                "start_time": 18.3886364,
                "end_time": 18.4886364,
                "pitch": 61,
                "velocity": 51,
                "duration": 0.1,
                "tempo": 120.0
            },
            {
                "start_time": 18.4886364,
                "end_time": 18.5886364,
                "pitch": 56,
                "velocity": 51,
                "duration": 0.1,
                "tempo": 120.0
            },
            {
                "start_time": 18.5886364,
                "end_time": 18.7136364,
                "pitch": 49,
                "velocity": 51,
                "duration": 0.125,
                "tempo": 120.0
            },
            {
                "start_time": 18.7136364,
                "end_time": 18.8227273,
                "pitch": 56,
                "velocity": 51,
                "duration": 0.1090909,
                "tempo": 120.0
            },
            {
                "start_time": 18.8227273,
                "end_time": 18.9022727,
                "pitch": 61,
                "velocity": 51,
                "duration": 0.0795455,
                "tempo": 120.0
            },
            {
                "start_time": 18.9022727,
                "end_time": 19.0272727,
                "pitch": 56,
                "velocity": 51,
                "duration": 0.125,
                "tempo": 120.0
            },
            {
                "start_time": 19.0272727,
                "end_time": 19.1318182,
                "pitch": 49,
                "velocity": 51,
                "duration": 0.1045455,
                "tempo": 120.0
            },
            {
                "start_time": 19.1318182,
                "end_time": 19.2704545,
                "pitch": 56,
                "velocity": 51,
                "duration": 0.1386364,
                "tempo": 120.0
            },
            {
                "start_time": 19.2704545,
                "end_time": 19.3590909,
                "pitch": 61,
                "velocity": 51,
                "duration": 0.0886364,
                "tempo": 120.0
            },
            {
                "start_time": 19.3590909,
                "end_time": 19.5,
                "pitch": 56,
                "velocity": 51,
                "duration": 0.1409091,
                "tempo": 120.0
            },
            {
                "start_time": 19.5,
                "end_time": 19.6,
                "pitch": 54,
                "velocity": 51,
                "duration": 0.1,
                "tempo": 120.0
            },
            {
                "start_time": 19.6,
                "end_time": 19.7159091,
                "pitch": 61,
                "velocity": 51,
                "duration": 0.1159091,
                "tempo": 120.0
            },
            {
                "start_time": 19.7159091,
                "end_time": 19.8159091,
                "pitch": 66,
                "velocity": 51,
                "duration": 0.1,
                "tempo": 120.0
            },
            {
                "start_time": 19.8159091,
                "end_time": 19.95,
                "pitch": 61,
                "velocity": 51,
                "duration": 0.1340909,
                "tempo": 120.0
            },
            {
                "start_time": 19.95,
                "end_time": 20.0318182,
                "pitch": 54,
                "velocity": 51,
                "duration": 0.0818182,
                "tempo": 120.0
            },
            {
                "start_time": 20.0318182,
                "end_time": 20.1636364,
                "pitch": 61,
                "velocity": 51,
                "duration": 0.1318182,
                "tempo": 120.0
            },
            {
                "start_time": 20.1636364,
                "end_time": 20.2772727,
                "pitch": 66,
                "velocity": 51,
                "duration": 0.1136364,
                "tempo": 120.0
            },
            {
                "start_time": 20.2772727,
                "end_time": 20.3590909,
                "pitch": 61,
                "velocity": 51,
                "duration": 0.0818182,
                "tempo": 120.0
            },
            {
                "start_time": 20.3590909,
                "end_time": 20.4727273,
                "pitch": 54,
                "velocity": 51,
                "duration": 0.1136364,
                "tempo": 120.0
            },
            {
                "start_time": 20.4727273,
                "end_time": 20.6045455,
                "pitch": 61,
                "velocity": 51,
                "duration": 0.1318182,
                "tempo": 120.0
            },
            {
                "start_time": 20.6045455,
                "end_time": 20.6863636,
                "pitch": 66,
                "velocity": 51,
                "duration": 0.0818182,
                "tempo": 120.0
            },
            {
                "start_time": 20.6863636,
                "end_time": 20.8159091,
                "pitch": 61,
                "velocity": 51,
                "duration": 0.1295455,
                "tempo": 120.0
            },
            {
                "start_time": 20.8159091,
                "end_time": 20.9159091,
                "pitch": 54,
                "velocity": 51,
                "duration": 0.1,
                "tempo": 120.0
            },
            {
                "start_time": 20.9159091,
                "end_time": 21.0340909,
                "pitch": 61,
                "velocity": 51,
                "duration": 0.1181818,
                "tempo": 120.0
            },
            {
                "start_time": 21.0340909,
                "end_time": 21.1340909,
                "pitch": 66,
                "velocity": 51,
                "duration": 0.1,
                "tempo": 120.0
            },
            {
                "start_time": 21.1340909,
                "end_time": 21.2681818,
                "pitch": 61,
                "velocity": 51,
                "duration": 0.1340909,
                "tempo": 120.0
            },
            {
                "start_time": 21.2681818,
                "end_time": 21.3522727,
                "pitch": 54,
                "velocity": 51,
                "duration": 0.0840909,
                "tempo": 120.0
            },
            {
                "start_time": 21.3522727,
                "end_time": 21.4840909,
                "pitch": 61,
                "velocity": 51,
                "duration": 0.1318182,
                "tempo": 120.0
            },
            {
                "start_time": 21.4840909,
                "end_time": 21.5863636,
                "pitch": 66,
                "velocity": 51,
                "duration": 0.1022727,
                "tempo": 120.0
            },
            {
                "start_time": 21.5863636,
                "end_time": 21.7022727,
                "pitch": 61,
                "velocity": 51,
                "duration": 0.1159091,
                "tempo": 120.0
            },
            {
                "start_time": 21.7022727,
                "end_time": 21.7977273,
                "pitch": 54,
                "velocity": 51,
                "duration": 0.0954545,
                "tempo": 120.0
            },
            {
                "start_time": 21.7977273,
                "end_time": 21.9272727,
                "pitch": 61,
                "velocity": 51,
                "duration": 0.1295455,
                "tempo": 120.0
            },
            {
                "start_time": 21.9272727,
                "end_time": 22.0227273,
                "pitch": 66,
                "velocity": 51,
                "duration": 0.0954545,
                "tempo": 120.0
            },
            {
                "start_time": 22.0227273,
                "end_time": 22.1181818,
                "pitch": 61,
                "velocity": 51,
                "duration": 0.0954545,
                "tempo": 120.0
            },
            {
                "start_time": 22.1181818,
                "end_time": 22.25,
                "pitch": 54,
                "velocity": 51,
                "duration": 0.1318182,
                "tempo": 120.0
            },
            {
                "start_time": 22.25,
                "end_time": 22.3636364,
                "pitch": 61,
                "velocity": 51,
                "duration": 0.1136364,
                "tempo": 120.0
            },
            {
                "start_time": 22.3636364,
                "end_time": 22.4454545,
                "pitch": 66,
                "velocity": 51,
                "duration": 0.0818182,
                "tempo": 120.0
            },
            {
                "start_time": 22.4454545,
                "end_time": 22.575,
                "pitch": 61,
                "velocity": 51,
                "duration": 0.1295455,
                "tempo": 120.0
            },
            {
                "start_time": 22.575,
                "end_time": 22.6772727,
                "pitch": 54,
                "velocity": 51,
                "duration": 0.1022727,
                "tempo": 120.0
            },
            {
                "start_time": 22.6772727,
                "end_time": 22.7977273,
                "pitch": 61,
                "velocity": 51,
                "duration": 0.1204545,
                "tempo": 120.0
            },
            {
                "start_time": 22.7977273,
                "end_time": 22.9,
                "pitch": 66,
                "velocity": 51,
                "duration": 0.1022727,
                "tempo": 120.0
            },
            {
                "start_time": 22.9,
                "end_time": 23.0363636,
                "pitch": 61,
                "velocity": 51,
                "duration": 0.1363636,
                "tempo": 120.0
            }
        ],
        "Acoustic Bass": [
            {
                "start_time": 0.0295455,
                "end_time": 0.1295455,
                "pitch": 35,
                "velocity": 80,
                "duration": 0.1,
                "tempo": 120.0
            },
            {
                "start_time": 0.1295455,
                "end_time": 0.2636364,
                "pitch": 42,
                "velocity": 80,
                "duration": 0.1340909,
                "tempo": 120.0
            },
            {
                "start_time": 0.2636364,
                "end_time": 0.3636364,
                "pitch": 47,
                "velocity": 80,
                "duration": 0.1,
                "tempo": 120.0
            },
            {
                "start_time": 0.3636364,
                "end_time": 0.4818182,
                "pitch": 42,
                "velocity": 80,
                "duration": 0.1181818,
                "tempo": 120.0
            },
            {
                "start_time": 0.4818182,
                "end_time": 0.5818182,
                "pitch": 35,
                "velocity": 80,
                "duration": 0.1,
                "tempo": 120.0
            },
            {
                "start_time": 0.5818182,
                "end_time": 0.7159091,
                "pitch": 42,
                "velocity": 80,
                "duration": 0.1340909,
                "tempo": 120.0
            },
            {
                "start_time": 0.7159091,
                "end_time": 0.7977273,
                "pitch": 47,
                "velocity": 80,
                "duration": 0.0818182,
                "tempo": 120.0
            },
            {
                "start_time": 0.7977273,
                "end_time": 0.9318182,
                "pitch": 42,
                "velocity": 80,
                "duration": 0.1340909,
                "tempo": 120.0
            },
            {
                "start_time": 0.9318182,
                "end_time": 1.0522727,
                "pitch": 35,
                "velocity": 80,
                "duration": 0.1204545,
                "tempo": 120.0
            },
            {
                "start_time": 1.0522727,
                "end_time": 1.1386364,
                "pitch": 42,
                "velocity": 80,
                "duration": 0.0863636,
                "tempo": 120.0
            },
            {
                "start_time": 1.1386364,
                "end_time": 1.2568182,
                "pitch": 47,
                "velocity": 80,
                "duration": 0.1181818,
                "tempo": 120.0
            },
            {
                "start_time": 1.2568182,
                "end_time": 1.275,
                "pitch": 35,
                "velocity": 80,
                "duration": 0.0181818,
                "tempo": 120.0
            },
            {
                "start_time": 1.275,
                "end_time": 1.3931818,
                "pitch": 42,
                "velocity": 80,
                "duration": 0.1181818,
                "tempo": 120.0
            },
            {
                "start_time": 1.3931818,
                "end_time": 1.475,
                "pitch": 35,
                "velocity": 80,
                "duration": 0.0818182,
                "tempo": 120.0
            },
            {
                "start_time": 1.475,
                "end_time": 1.6068182,
                "pitch": 42,
                "velocity": 80,
                "duration": 0.1318182,
                "tempo": 120.0
            },
            {
                "start_time": 1.6068182,
                "end_time": 1.7045455,
                "pitch": 47,
                "velocity": 80,
                "duration": 0.0977273,
                "tempo": 120.0
            },
            {
                "start_time": 1.7045455,
                "end_time": 1.8181818,
                "pitch": 42,
                "velocity": 80,
                "duration": 0.1136364,
                "tempo": 120.0
            },
            {
                "start_time": 1.8181818,
                "end_time": 1.9159091,
                "pitch": 35,
                "velocity": 80,
                "duration": 0.0977273,
                "tempo": 120.0
            },
            {
                "start_time": 1.9159091,
                "end_time": 2.0477273,
                "pitch": 42,
                "velocity": 80,
                "duration": 0.1318182,
                "tempo": 120.0
            },
            {
                "start_time": 2.0477273,
                "end_time": 2.1295455,
                "pitch": 47,
                "velocity": 80,
                "duration": 0.0818182,
                "tempo": 120.0
            },
            {
                "start_time": 2.1295455,
                "end_time": 2.2590909,
                "pitch": 42,
                "velocity": 80,
                "duration": 0.1295455,
                "tempo": 120.0
            },
            {
                "start_time": 2.2590909,
                "end_time": 2.3613636,
                "pitch": 35,
                "velocity": 80,
                "duration": 0.1022727,
                "tempo": 120.0
            },
            {
                "start_time": 2.3613636,
                "end_time": 2.4772727,
                "pitch": 42,
                "velocity": 80,
                "duration": 0.1159091,
                "tempo": 120.0
            },
            {
                "start_time": 2.4772727,
                "end_time": 2.5772727,
                "pitch": 47,
                "velocity": 80,
                "duration": 0.1,
                "tempo": 120.0
            },
            {
                "start_time": 2.5772727,
                "end_time": 2.7113636,
                "pitch": 42,
                "velocity": 80,
                "duration": 0.1340909,
                "tempo": 120.0
            },
            {
                "start_time": 2.7113636,
                "end_time": 2.8113636,
                "pitch": 35,
                "velocity": 80,
                "duration": 0.1,
                "tempo": 120.0
            },
            {
                "start_time": 2.8113636,
                "end_time": 2.9113636,
                "pitch": 42,
                "velocity": 80,
                "duration": 0.1,
                "tempo": 120.0
            },
            {
                "start_time": 2.9113636,
                "end_time": 3.0454545,
                "pitch": 47,
                "velocity": 80,
                "duration": 0.1340909,
                "tempo": 120.0
            },
            {
                "start_time": 3.0454545,
                "end_time": 3.1454545,
                "pitch": 42,
                "velocity": 80,
                "duration": 0.1,
                "tempo": 120.0
            },
            {
                "start_time": 3.1454545,
                "end_time": 3.2409091,
                "pitch": 35,
                "velocity": 80,
                "duration": 0.0954545,
                "tempo": 120.0
            },
            {
                "start_time": 3.2409091,
                "end_time": 3.3704545,
                "pitch": 42,
                "velocity": 80,
                "duration": 0.1295455,
                "tempo": 120.0
            },
            {
                "start_time": 3.3704545,
                "end_time": 3.4659091,
                "pitch": 47,
                "velocity": 80,
                "duration": 0.0954545,
                "tempo": 120.0
            },
            {
                "start_time": 3.4659091,
                "end_time": 3.5772727,
                "pitch": 42,
                "velocity": 80,
                "duration": 0.1113636,
                "tempo": 120.0
            },
            {
                "start_time": 3.5772727,
                "end_time": 3.6772727,
                "pitch": 35,
                "velocity": 80,
                "duration": 0.1,
                "tempo": 120.0
            },
            {
                "start_time": 3.6772727,
                "end_time": 3.8113636,
                "pitch": 42,
                "velocity": 80,
                "duration": 0.1340909,
                "tempo": 120.0
            },
            {
                "start_time": 3.8113636,
                "end_time": 3.8954545,
                "pitch": 47,
                "velocity": 80,
                "duration": 0.0840909,
                "tempo": 120.0
            },
            {
                "start_time": 3.8954545,
                "end_time": 4.0295455,
                "pitch": 42,
                "velocity": 80,
                "duration": 0.1340909,
                "tempo": 120.0
            },
            {
                "start_time": 4.0295455,
                "end_time": 4.1295455,
                "pitch": 35,
                "velocity": 80,
                "duration": 0.1,
                "tempo": 120.0
            },
            {
                "start_time": 4.1295455,
                "end_time": 4.2454545,
                "pitch": 42,
                "velocity": 80,
                "duration": 0.1159091,
                "tempo": 120.0
            },
            {
                "start_time": 4.2454545,
                "end_time": 4.3454545,
                "pitch": 47,
                "velocity": 80,
                "duration": 0.1,
                "tempo": 120.0
            },
            {
                "start_time": 4.3454545,
                "end_time": 4.4795455,
                "pitch": 42,
                "velocity": 80,
                "duration": 0.1340909,
                "tempo": 120.0
            },
            {
                "start_time": 4.4795455,
                "end_time": 4.5636364,
                "pitch": 35,
                "velocity": 80,
                "duration": 0.0840909,
                "tempo": 120.0
            },
            {
                "start_time": 4.5795455,
                "end_time": 4.6795455,
                "pitch": 42,
                "velocity": 80,
                "duration": 0.1,
                "tempo": 120.0
            },
            {
                "start_time": 4.6795455,
                "end_time": 4.7977273,
                "pitch": 47,
                "velocity": 80,
                "duration": 0.1181818,
                "tempo": 120.0
            },
            {
                "start_time": 4.8136364,
                "end_time": 4.9136364,
                "pitch": 42,
                "velocity": 80,
                "duration": 0.1,
                "tempo": 120.0
            },
            {
                "start_time": 4.9136364,
                "end_time": 5.0136364,
                "pitch": 35,
                "velocity": 80,
                "duration": 0.1,
                "tempo": 120.0
            },
            {
                "start_time": 5.0136364,
                "end_time": 5.1431818,
                "pitch": 42,
                "velocity": 80,
                "duration": 0.1295455,
                "tempo": 120.0
            },
            {
                "start_time": 5.1431818,
                "end_time": 5.225,
                "pitch": 47,
                "velocity": 80,
                "duration": 0.0818182,
                "tempo": 120.0
            },
            {
                "start_time": 5.225,
                "end_time": 5.3568182,
                "pitch": 42,
                "velocity": 80,
                "duration": 0.1318182,
                "tempo": 120.0
            },
            {
                "start_time": 5.3568182,
                "end_time": 5.4568182,
                "pitch": 35,
                "velocity": 80,
                "duration": 0.1,
                "tempo": 120.0
            },
            {
                "start_time": 5.4568182,
                "end_time": 5.5727273,
                "pitch": 42,
                "velocity": 80,
                "duration": 0.1159091,
                "tempo": 120.0
            },
            {
                "start_time": 5.5727273,
                "end_time": 5.6727273,
                "pitch": 47,
                "velocity": 80,
                "duration": 0.1,
                "tempo": 120.0
            },
            {
                "start_time": 5.6727273,
                "end_time": 5.8068182,
                "pitch": 42,
                "velocity": 80,
                "duration": 0.1340909,
                "tempo": 120.0
            },
            {
                "start_time": 5.8068182,
                "end_time": 5.8909091,
                "pitch": 35,
                "velocity": 80,
                "duration": 0.0840909,
                "tempo": 120.0
            },
            {
                "start_time": 5.8909091,
                "end_time": 6.025,
                "pitch": 42,
                "velocity": 80,
                "duration": 0.1340909,
                "tempo": 120.0
            },
            {
                "start_time": 6.025,
                "end_time": 6.125,
                "pitch": 47,
                "velocity": 80,
                "duration": 0.1,
                "tempo": 120.0
            },
            {
                "start_time": 6.125,
                "end_time": 6.2409091,
                "pitch": 42,
                "velocity": 80,
                "duration": 0.1159091,
                "tempo": 120.0
            },
            {
                "start_time": 6.2409091,
                "end_time": 6.3545455,
                "pitch": 35,
                "velocity": 80,
                "duration": 0.1136364,
                "tempo": 120.0
            },
            {
                "start_time": 6.3545455,
                "end_time": 6.45,
                "pitch": 42,
                "velocity": 80,
                "duration": 0.0954545,
                "tempo": 120.0
            },
            {
                "start_time": 6.45,
                "end_time": 6.5772727,
                "pitch": 47,
                "velocity": 80,
                "duration": 0.1272727,
                "tempo": 120.0
            },
            {
                "start_time": 6.5772727,
                "end_time": 6.6727273,
                "pitch": 42,
                "velocity": 80,
                "duration": 0.0954545,
                "tempo": 120.0
            },
            {
                "start_time": 6.6727273,
                "end_time": 6.7727273,
                "pitch": 35,
                "velocity": 80,
                "duration": 0.1,
                "tempo": 120.0
            },
            {
                "start_time": 6.7727273,
                "end_time": 6.9068182,
                "pitch": 42,
                "velocity": 80,
                "duration": 0.1340909,
                "tempo": 120.0
            },
            {
                "start_time": 6.9068182,
                "end_time": 6.9909091,
                "pitch": 47,
                "velocity": 80,
                "duration": 0.0840909,
                "tempo": 120.0
            },
            {
                "start_time": 6.9909091,
                "end_time": 7.125,
                "pitch": 42,
                "velocity": 80,
                "duration": 0.1340909,
                "tempo": 120.0
            },
            {
                "start_time": 7.125,
                "end_time": 7.225,
                "pitch": 30,
                "velocity": 80,
                "duration": 0.1,
                "tempo": 120.0
            },
            {
                "start_time": 7.225,
                "end_time": 7.3409091,
                "pitch": 37,
                "velocity": 80,
                "duration": 0.1159091,
                "tempo": 120.0
            },
            {
                "start_time": 7.3409091,
                "end_time": 7.4431818,
                "pitch": 42,
                "velocity": 80,
                "duration": 0.1022727,
                "tempo": 120.0
            },
            {
                "start_time": 7.4431818,
                "end_time": 7.575,
                "pitch": 37,
                "velocity": 80,
                "duration": 0.1318182,
                "tempo": 120.0
            },
            {
                "start_time": 7.575,
                "end_time": 7.6590909,
                "pitch": 30,
                "velocity": 80,
                "duration": 0.0840909,
                "tempo": 120.0
            },
            {
                "start_time": 7.6590909,
                "end_time": 7.7931818,
                "pitch": 37,
                "velocity": 80,
                "duration": 0.1340909,
                "tempo": 120.0
            },
            {
                "start_time": 7.7931818,
                "end_time": 7.8931818,
                "pitch": 42,
                "velocity": 80,
                "duration": 0.1,
                "tempo": 120.0
            },
            {
                "start_time": 7.8931818,
                "end_time": 8.0113636,
                "pitch": 37,
                "velocity": 80,
                "duration": 0.1181818,
                "tempo": 120.0
            },
            {
                "start_time": 8.0113636,
                "end_time": 8.1068182,
                "pitch": 30,
                "velocity": 80,
                "duration": 0.0954545,
                "tempo": 120.0
            },
            {
                "start_time": 8.1227273,
                "end_time": 8.2181818,
                "pitch": 37,
                "velocity": 80,
                "duration": 0.0954545,
                "tempo": 120.0
            },
            {
                "start_time": 8.2181818,
                "end_time": 8.3295455,
                "pitch": 42,
                "velocity": 80,
                "duration": 0.1113636,
                "tempo": 120.0
            },
            {
                "start_time": 8.3295455,
                "end_time": 8.4431818,
                "pitch": 37,
                "velocity": 80,
                "duration": 0.1136364,
                "tempo": 120.0
            },
            {
                "start_time": 8.4431818,
                "end_time": 8.5431818,
                "pitch": 30,
                "velocity": 80,
                "duration": 0.1,
                "tempo": 120.0
            },
            {
                "start_time": 8.5431818,
                "end_time": 8.6590909,
                "pitch": 37,
                "velocity": 80,
                "duration": 0.1159091,
                "tempo": 120.0
            },
            {
                "start_time": 8.6590909,
                "end_time": 8.7590909,
                "pitch": 42,
                "velocity": 80,
                "duration": 0.1,
                "tempo": 120.0
            },
            {
                "start_time": 8.7590909,
                "end_time": 8.8931818,
                "pitch": 37,
                "velocity": 80,
                "duration": 0.1340909,
                "tempo": 120.0
            },
            {
                "start_time": 8.8931818,
                "end_time": 8.9772727,
                "pitch": 30,
                "velocity": 80,
                "duration": 0.0840909,
                "tempo": 120.0
            },
            {
                "start_time": 8.9772727,
                "end_time": 9.1113636,
                "pitch": 37,
                "velocity": 80,
                "duration": 0.1340909,
                "tempo": 120.0
            },
            {
                "start_time": 9.1113636,
                "end_time": 9.2113636,
                "pitch": 42,
                "velocity": 80,
                "duration": 0.1,
                "tempo": 120.0
            },
            {
                "start_time": 9.2113636,
                "end_time": 9.3272727,
                "pitch": 37,
                "velocity": 80,
                "duration": 0.1159091,
                "tempo": 120.0
            },
            {
                "start_time": 9.3272727,
                "end_time": 9.425,
                "pitch": 30,
                "velocity": 80,
                "duration": 0.0977273,
                "tempo": 120.0
            },
            {
                "start_time": 9.425,
                "end_time": 9.5568182,
                "pitch": 37,
                "velocity": 80,
                "duration": 0.1318182,
                "tempo": 120.0
            },
            {
                "start_time": 9.5568182,
                "end_time": 9.6545455,
                "pitch": 42,
                "velocity": 80,
                "duration": 0.0977273,
                "tempo": 120.0
            },
            {
                "start_time": 9.6545455,
                "end_time": 9.7704545,
                "pitch": 37,
                "velocity": 80,
                "duration": 0.1159091,
                "tempo": 120.0
            },
            {
                "start_time": 9.7704545,
                "end_time": 9.8863636,
                "pitch": 30,
                "velocity": 80,
                "duration": 0.1159091,
                "tempo": 120.0
            },
            {
                "start_time": 9.8863636,
                "end_time": 9.9863636,
                "pitch": 37,
                "velocity": 80,
                "duration": 0.1,
                "tempo": 120.0
            },
            {
                "start_time": 9.9863636,
                "end_time": 10.0863636,
                "pitch": 42,
                "velocity": 80,
                "duration": 0.1,
                "tempo": 120.0
            },
            {
                "start_time": 10.0863636,
                "end_time": 10.1045455,
                "pitch": 42,
                "velocity": 80,
                "duration": 0.0181818,
                "tempo": 120.0
            },
            {
                "start_time": 10.1045455,
                "end_time": 10.2204545,
                "pitch": 37,
                "velocity": 80,
                "duration": 0.1159091,
                "tempo": 120.0
            },
            {
                "start_time": 10.2204545,
                "end_time": 10.3181818,
                "pitch": 30,
                "velocity": 80,
                "duration": 0.0977273,
                "tempo": 120.0
            },
            {
                "start_time": 10.3181818,
                "end_time": 10.4318182,
                "pitch": 37,
                "velocity": 80,
                "duration": 0.1136364,
                "tempo": 120.0
            },
            {
                "start_time": 10.4318182,
                "end_time": 10.5318182,
                "pitch": 42,
                "velocity": 80,
                "duration": 0.1,
                "tempo": 120.0
            },
            {
                "start_time": 10.5318182,
                "end_time": 10.6613636,
                "pitch": 37,
                "velocity": 80,
                "duration": 0.1295455,
                "tempo": 120.0
            },
            {
                "start_time": 10.6613636,
                "end_time": 10.7477273,
                "pitch": 30,
                "velocity": 80,
                "duration": 0.0863636,
                "tempo": 120.0
            },
            {
                "start_time": 10.7477273,
                "end_time": 10.8840909,
                "pitch": 37,
                "velocity": 80,
                "duration": 0.1363636,
                "tempo": 120.0
            },
            {
                "start_time": 10.8840909,
                "end_time": 10.9863636,
                "pitch": 42,
                "velocity": 80,
                "duration": 0.1022727,
                "tempo": 120.0
            },
            {
                "start_time": 10.9863636,
                "end_time": 11.1068182,
                "pitch": 37,
                "velocity": 80,
                "duration": 0.1204545,
                "tempo": 120.0
            },
            {
                "start_time": 11.1068182,
                "end_time": 11.2022727,
                "pitch": 30,
                "velocity": 80,
                "duration": 0.0954545,
                "tempo": 120.0
            },
            {
                "start_time": 11.2022727,
                "end_time": 11.3295455,
                "pitch": 37,
                "velocity": 80,
                "duration": 0.1272727,
                "tempo": 120.0
            },
            {
                "start_time": 11.3295455,
                "end_time": 11.4090909,
                "pitch": 42,
                "velocity": 80,
                "duration": 0.0795455,
                "tempo": 120.0
            },
            {
                "start_time": 11.4090909,
                "end_time": 11.5386364,
                "pitch": 37,
                "velocity": 80,
                "duration": 0.1295455,
                "tempo": 120.0
            },
            {
                "start_time": 11.5386364,
                "end_time": 11.6386364,
                "pitch": 30,
                "velocity": 80,
                "duration": 0.1,
                "tempo": 120.0
            },
            {
                "start_time": 11.6545455,
                "end_time": 11.7386364,
                "pitch": 37,
                "velocity": 80,
                "duration": 0.0840909,
                "tempo": 120.0
            },
            {
                "start_time": 11.7386364,
                "end_time": 11.8727273,
                "pitch": 42,
                "velocity": 80,
                "duration": 0.1340909,
                "tempo": 120.0
            },
            {
                "start_time": 11.8727273,
                "end_time": 11.9886364,
                "pitch": 37,
                "velocity": 80,
                "duration": 0.1159091,
                "tempo": 120.0
            },
            {
                "start_time": 11.9886364,
                "end_time": 12.0727273,
                "pitch": 30,
                "velocity": 80,
                "duration": 0.0840909,
                "tempo": 120.0
            },
            {
                "start_time": 12.0727273,
                "end_time": 12.2068182,
                "pitch": 37,
                "velocity": 80,
                "duration": 0.1340909,
                "tempo": 120.0
            },
            {
                "start_time": 12.2068182,
                "end_time": 12.3068182,
                "pitch": 42,
                "velocity": 80,
                "duration": 0.1,
                "tempo": 120.0
            },
            {
                "start_time": 12.3068182,
                "end_time": 12.4227273,
                "pitch": 37,
                "velocity": 80,
                "duration": 0.1159091,
                "tempo": 120.0
            },
            {
                "start_time": 12.4227273,
                "end_time": 12.5204545,
                "pitch": 30,
                "velocity": 80,
                "duration": 0.0977273,
                "tempo": 120.0
            },
            {
                "start_time": 12.5204545,
                "end_time": 12.6477273,
                "pitch": 37,
                "velocity": 80,
                "duration": 0.1272727,
                "tempo": 120.0
            },
            {
                "start_time": 12.6477273,
                "end_time": 12.7272727,
                "pitch": 42,
                "velocity": 80,
                "duration": 0.0795455,
                "tempo": 120.0
            },
            {
                "start_time": 12.7272727,
                "end_time": 12.8545455,
                "pitch": 37,
                "velocity": 80,
                "duration": 0.1272727,
                "tempo": 120.0
            },
            {
                "start_time": 12.8545455,
                "end_time": 12.9545455,
                "pitch": 30,
                "velocity": 80,
                "duration": 0.1,
                "tempo": 120.0
            },
            {
                "start_time": 12.9545455,
                "end_time": 13.0886364,
                "pitch": 37,
                "velocity": 80,
                "duration": 0.1340909,
                "tempo": 120.0
            },
            {
                "start_time": 13.0886364,
                "end_time": 13.1727273,
                "pitch": 42,
                "velocity": 80,
                "duration": 0.0840909,
                "tempo": 120.0
            },
            {
                "start_time": 13.1727273,
                "end_time": 13.3068182,
                "pitch": 37,
                "velocity": 80,
                "duration": 0.1340909,
                "tempo": 120.0
            },
            {
                "start_time": 13.3068182,
                "end_time": 13.4227273,
                "pitch": 30,
                "velocity": 80,
                "duration": 0.1159091,
                "tempo": 120.0
            },
            {
                "start_time": 13.4227273,
                "end_time": 13.5068182,
                "pitch": 37,
                "velocity": 80,
                "duration": 0.0840909,
                "tempo": 120.0
            },
            {
                "start_time": 13.5068182,
                "end_time": 13.625,
                "pitch": 42,
                "velocity": 80,
                "duration": 0.1181818,
                "tempo": 120.0
            },
            {
                "start_time": 13.625,
                "end_time": 13.6409091,
                "pitch": 42,
                "velocity": 80,
                "duration": 0.0159091,
                "tempo": 120.0
            },
            {
                "start_time": 13.6409091,
                "end_time": 13.7568182,
                "pitch": 37,
                "velocity": 80,
                "duration": 0.1159091,
                "tempo": 120.0
            },
            {
                "start_time": 13.7568182,
                "end_time": 13.8409091,
                "pitch": 30,
                "velocity": 80,
                "duration": 0.0840909,
                "tempo": 120.0
            },
            {
                "start_time": 13.8409091,
                "end_time": 13.975,
                "pitch": 37,
                "velocity": 80,
                "duration": 0.1340909,
                "tempo": 120.0
            },
            {
                "start_time": 13.975,
                "end_time": 14.075,
                "pitch": 42,
                "velocity": 80,
                "duration": 0.1,
                "tempo": 120.0
            },
            {
                "start_time": 14.075,
                "end_time": 14.1931818,
                "pitch": 37,
                "velocity": 80,
                "duration": 0.1181818,
                "tempo": 120.0
            },
            {
                "start_time": 14.1931818,
                "end_time": 14.2909091,
                "pitch": 35,
                "velocity": 80,
                "duration": 0.0977273,
                "tempo": 120.0
            },
            {
                "start_time": 14.2909091,
                "end_time": 14.4204545,
                "pitch": 42,
                "velocity": 80,
                "duration": 0.1295455,
                "tempo": 120.0
            },
            {
                "start_time": 14.4204545,
                "end_time": 14.5022727,
                "pitch": 47,
                "velocity": 80,
                "duration": 0.0818182,
                "tempo": 120.0
            },
            {
                "start_time": 14.5022727,
                "end_time": 14.6340909,
                "pitch": 42,
                "velocity": 80,
                "duration": 0.1318182,
                "tempo": 120.0
            },
            {
                "start_time": 14.6340909,
                "end_time": 14.7340909,
                "pitch": 35,
                "velocity": 80,
                "duration": 0.1,
                "tempo": 120.0
            },
            {
                "start_time": 14.7340909,
                "end_time": 14.85,
                "pitch": 42,
                "velocity": 80,
                "duration": 0.1159091,
                "tempo": 120.0
            },
            {
                "start_time": 14.85,
                "end_time": 14.95,
                "pitch": 47,
                "velocity": 80,
                "duration": 0.1,
                "tempo": 120.0
            },
            {
                "start_time": 14.9681818,
                "end_time": 15.0681818,
                "pitch": 42,
                "velocity": 80,
                "duration": 0.1,
                "tempo": 120.0
            },
            {
                "start_time": 15.0681818,
                "end_time": 15.1840909,
                "pitch": 35,
                "velocity": 80,
                "duration": 0.1159091,
                "tempo": 120.0
            },
            {
                "start_time": 15.1840909,
                "end_time": 15.3022727,
                "pitch": 42,
                "velocity": 80,
                "duration": 0.1181818,
                "tempo": 120.0
            },
            {
                "start_time": 15.3022727,
                "end_time": 15.4022727,
                "pitch": 47,
                "velocity": 80,
                "duration": 0.1,
                "tempo": 120.0
            },
            {
                "start_time": 15.4022727,
                "end_time": 15.5204545,
                "pitch": 42,
                "velocity": 80,
                "duration": 0.1181818,
                "tempo": 120.0
            },
            {
                "start_time": 15.5204545,
                "end_time": 15.6159091,
                "pitch": 35,
                "velocity": 80,
                "duration": 0.0954545,
                "tempo": 120.0
            },
            {
                "start_time": 15.6159091,
                "end_time": 15.7431818,
                "pitch": 42,
                "velocity": 80,
                "duration": 0.1272727,
                "tempo": 120.0
            },
            {
                "start_time": 15.7431818,
                "end_time": 15.8227273,
                "pitch": 47,
                "velocity": 80,
                "duration": 0.0795455,
                "tempo": 120.0
            },
            {
                "start_time": 15.8227273,
                "end_time": 15.9522727,
                "pitch": 42,
                "velocity": 80,
                "duration": 0.1295455,
                "tempo": 120.0
            },
            {
                "start_time": 15.9522727,
                "end_time": 16.0522727,
                "pitch": 42,
                "velocity": 80,
                "duration": 0.1,
                "tempo": 120.0
            },
            {
                "start_time": 16.0522727,
                "end_time": 16.1840909,
                "pitch": 47,
                "velocity": 80,
                "duration": 0.1318182,
                "tempo": 120.0
            },
            {
                "start_time": 16.1840909,
                "end_time": 16.2681818,
                "pitch": 52,
                "velocity": 80,
                "duration": 0.0840909,
                "tempo": 120.0
            },
            {
                "start_time": 16.2681818,
                "end_time": 16.4022727,
                "pitch": 47,
                "velocity": 80,
                "duration": 0.1340909,
                "tempo": 120.0
            },
            {
                "start_time": 16.4022727,
                "end_time": 16.5022727,
                "pitch": 40,
                "velocity": 80,
                "duration": 0.1,
                "tempo": 120.0
            },
            {
                "start_time": 16.5022727,
                "end_time": 16.6204545,
                "pitch": 47,
                "velocity": 80,
                "duration": 0.1181818,
                "tempo": 120.0
            },
            {
                "start_time": 16.6204545,
                "end_time": 16.7363636,
                "pitch": 52,
                "velocity": 80,
                "duration": 0.1159091,
                "tempo": 120.0
            },
            {
                "start_time": 16.7363636,
                "end_time": 16.8363636,
                "pitch": 47,
                "velocity": 80,
                "duration": 0.1,
                "tempo": 120.0
            },
            {
                "start_time": 16.8363636,
                "end_time": 16.9340909,
                "pitch": 40,
                "velocity": 80,
                "duration": 0.0977273,
                "tempo": 120.0
            },
            {
                "start_time": 16.9522727,
                "end_time": 17.0659091,
                "pitch": 47,
                "velocity": 80,
                "duration": 0.1136364,
                "tempo": 120.0
            },
            {
                "start_time": 17.0659091,
                "end_time": 17.1636364,
                "pitch": 52,
                "velocity": 80,
                "duration": 0.0977273,
                "tempo": 120.0
            },
            {
                "start_time": 17.1636364,
                "end_time": 17.2772727,
                "pitch": 47,
                "velocity": 80,
                "duration": 0.1136364,
                "tempo": 120.0
            },
            {
                "start_time": 17.2772727,
                "end_time": 17.3772727,
                "pitch": 40,
                "velocity": 80,
                "duration": 0.1,
                "tempo": 120.0
            },
            {
                "start_time": 17.3772727,
                "end_time": 17.5068182,
                "pitch": 47,
                "velocity": 80,
                "duration": 0.1295455,
                "tempo": 120.0
            },
            {
                "start_time": 17.5068182,
                "end_time": 17.5886364,
                "pitch": 52,
                "velocity": 80,
                "duration": 0.0818182,
                "tempo": 120.0
            },
            {
                "start_time": 17.5886364,
                "end_time": 17.7204545,
                "pitch": 47,
                "velocity": 80,
                "duration": 0.1318182,
                "tempo": 120.0
            },
            {
                "start_time": 17.7204545,
                "end_time": 17.8204545,
                "pitch": 37,
                "velocity": 80,
                "duration": 0.1,
                "tempo": 120.0
            },
            {
                "start_time": 17.8204545,
                "end_time": 17.9363636,
                "pitch": 44,
                "velocity": 80,
                "duration": 0.1159091,
                "tempo": 120.0
            },
            {
                "start_time": 17.9363636,
                "end_time": 18.0363636,
                "pitch": 49,
                "velocity": 80,
                "duration": 0.1,
                "tempo": 120.0
            },
            {
                "start_time": 18.0363636,
                "end_time": 18.1704545,
                "pitch": 44,
                "velocity": 80,
                "duration": 0.1340909,
                "tempo": 120.0
            },
            {
                "start_time": 18.1704545,
                "end_time": 18.2545455,
                "pitch": 37,
                "velocity": 80,
                "duration": 0.0840909,
                "tempo": 120.0
            },
            {
                "start_time": 18.2545455,
                "end_time": 18.3886364,
                "pitch": 44,
                "velocity": 80,
                "duration": 0.1340909,
                "tempo": 120.0
            },
            {
                "start_time": 18.3886364,
                "end_time": 18.4886364,
                "pitch": 49,
                "velocity": 80,
                "duration": 0.1,
                "tempo": 120.0
            },
            {
                "start_time": 18.5045455,
                "end_time": 18.5886364,
                "pitch": 44,
                "velocity": 80,
                "duration": 0.0840909,
                "tempo": 120.0
            },
            {
                "start_time": 18.5886364,
                "end_time": 18.7136364,
                "pitch": 37,
                "velocity": 80,
                "duration": 0.125,
                "tempo": 120.0
            },
            {
                "start_time": 18.7136364,
                "end_time": 18.8227273,
                "pitch": 44,
                "velocity": 80,
                "duration": 0.1090909,
                "tempo": 120.0
            },
            {
                "start_time": 18.8227273,
                "end_time": 18.9022727,
                "pitch": 49,
                "velocity": 80,
                "duration": 0.0795455,
                "tempo": 120.0
            },
            {
                "start_time": 18.9022727,
                "end_time": 19.0272727,
                "pitch": 44,
                "velocity": 80,
                "duration": 0.125,
                "tempo": 120.0
            },
            {
                "start_time": 19.0272727,
                "end_time": 19.1318182,
                "pitch": 37,
                "velocity": 80,
                "duration": 0.1045455,
                "tempo": 120.0
            },
            {
                "start_time": 19.1318182,
                "end_time": 19.2704545,
                "pitch": 44,
                "velocity": 80,
                "duration": 0.1386364,
                "tempo": 120.0
            },
            {
                "start_time": 19.2704545,
                "end_time": 19.3590909,
                "pitch": 49,
                "velocity": 80,
                "duration": 0.0886364,
                "tempo": 120.0
            },
            {
                "start_time": 19.3590909,
                "end_time": 19.5,
                "pitch": 44,
                "velocity": 80,
                "duration": 0.1409091,
                "tempo": 120.0
            },
            {
                "start_time": 19.5,
                "end_time": 19.6,
                "pitch": 42,
                "velocity": 80,
                "duration": 0.1,
                "tempo": 120.0
            },
            {
                "start_time": 19.6,
                "end_time": 19.7159091,
                "pitch": 49,
                "velocity": 80,
                "duration": 0.1159091,
                "tempo": 120.0
            },
            {
                "start_time": 19.7159091,
                "end_time": 19.8159091,
                "pitch": 54,
                "velocity": 80,
                "duration": 0.1,
                "tempo": 120.0
            },
            {
                "start_time": 19.8159091,
                "end_time": 19.95,
                "pitch": 49,
                "velocity": 80,
                "duration": 0.1340909,
                "tempo": 120.0
            },
            {
                "start_time": 19.95,
                "end_time": 20.0318182,
                "pitch": 42,
                "velocity": 80,
                "duration": 0.0818182,
                "tempo": 120.0
            },
            {
                "start_time": 20.0318182,
                "end_time": 20.1636364,
                "pitch": 49,
                "velocity": 80,
                "duration": 0.1318182,
                "tempo": 120.0
            },
            {
                "start_time": 20.1636364,
                "end_time": 20.2772727,
                "pitch": 54,
                "velocity": 80,
                "duration": 0.1136364,
                "tempo": 120.0
            },
            {
                "start_time": 20.2772727,
                "end_time": 20.3590909,
                "pitch": 49,
                "velocity": 80,
                "duration": 0.0818182,
                "tempo": 120.0
            },
            {
                "start_time": 20.3590909,
                "end_time": 20.4727273,
                "pitch": 42,
                "velocity": 80,
                "duration": 0.1136364,
                "tempo": 120.0
            },
            {
                "start_time": 20.4909091,
                "end_time": 20.6045455,
                "pitch": 49,
                "velocity": 80,
                "duration": 0.1136364,
                "tempo": 120.0
            },
            {
                "start_time": 20.6045455,
                "end_time": 20.6863636,
                "pitch": 54,
                "velocity": 80,
                "duration": 0.0818182,
                "tempo": 120.0
            },
            {
                "start_time": 20.6863636,
                "end_time": 20.8159091,
                "pitch": 49,
                "velocity": 80,
                "duration": 0.1295455,
                "tempo": 120.0
            },
            {
                "start_time": 20.8159091,
                "end_time": 20.9159091,
                "pitch": 42,
                "velocity": 80,
                "duration": 0.1,
                "tempo": 120.0
            },
            {
                "start_time": 20.9159091,
                "end_time": 21.0340909,
                "pitch": 49,
                "velocity": 80,
                "duration": 0.1181818,
                "tempo": 120.0
            },
            {
                "start_time": 21.0340909,
                "end_time": 21.1340909,
                "pitch": 54,
                "velocity": 80,
                "duration": 0.1,
                "tempo": 120.0
            },
            {
                "start_time": 21.1340909,
                "end_time": 21.2681818,
                "pitch": 49,
                "velocity": 80,
                "duration": 0.1340909,
                "tempo": 120.0
            },
            {
                "start_time": 21.2681818,
                "end_time": 21.3522727,
                "pitch": 42,
                "velocity": 80,
                "duration": 0.0840909,
                "tempo": 120.0
            },
            {
                "start_time": 21.3522727,
                "end_time": 21.4840909,
                "pitch": 49,
                "velocity": 80,
                "duration": 0.1318182,
                "tempo": 120.0
            },
            {
                "start_time": 21.4840909,
                "end_time": 21.5863636,
                "pitch": 54,
                "velocity": 80,
                "duration": 0.1022727,
                "tempo": 120.0
            },
            {
                "start_time": 21.5863636,
                "end_time": 21.7022727,
                "pitch": 49,
                "velocity": 80,
                "duration": 0.1159091,
                "tempo": 120.0
            },
            {
                "start_time": 21.7022727,
                "end_time": 21.7977273,
                "pitch": 42,
                "velocity": 80,
                "duration": 0.0954545,
                "tempo": 120.0
            },
            {
                "start_time": 21.7977273,
                "end_time": 21.9272727,
                "pitch": 49,
                "velocity": 80,
                "duration": 0.1295455,
                "tempo": 120.0
            },
            {
                "start_time": 21.9272727,
                "end_time": 22.0227273,
                "pitch": 54,
                "velocity": 80,
                "duration": 0.0954545,
                "tempo": 120.0
            },
            {
                "start_time": 22.0227273,
                "end_time": 22.1181818,
                "pitch": 49,
                "velocity": 80,
                "duration": 0.0954545,
                "tempo": 120.0
            },
            {
                "start_time": 22.1181818,
                "end_time": 22.25,
                "pitch": 42,
                "velocity": 80,
                "duration": 0.1318182,
                "tempo": 120.0
            },
            {
                "start_time": 22.25,
                "end_time": 22.3636364,
                "pitch": 49,
                "velocity": 80,
                "duration": 0.1136364,
                "tempo": 120.0
            },
            {
                "start_time": 22.3636364,
                "end_time": 22.4454545,
                "pitch": 54,
                "velocity": 80,
                "duration": 0.0818182,
                "tempo": 120.0
            },
            {
                "start_time": 22.4454545,
                "end_time": 22.575,
                "pitch": 49,
                "velocity": 80,
                "duration": 0.1295455,
                "tempo": 120.0
            },
            {
                "start_time": 22.575,
                "end_time": 22.6772727,
                "pitch": 42,
                "velocity": 80,
                "duration": 0.1022727,
                "tempo": 120.0
            },
            {
                "start_time": 22.6772727,
                "end_time": 22.7977273,
                "pitch": 49,
                "velocity": 80,
                "duration": 0.1204545,
                "tempo": 120.0
            },
            {
                "start_time": 22.7977273,
                "end_time": 22.9,
                "pitch": 54,
                "velocity": 80,
                "duration": 0.1022727,
                "tempo": 120.0
            },
            {
                "start_time": 22.9,
                "end_time": 23.0363636,
                "pitch": 49,
                "velocity": 80,
                "duration": 0.1363636,
                "tempo": 120.0
            }
        ]
    }
}