{
    "mood": "angry",
    "instruments": {
        "Electric Piano 1": [
            {
                "start_time": 0.2340909,
                "end_time": 0.4340909,
                "pitch": 35,
                "velocity": 127,
                "duration": 0.2,
                "tempo": 120.0
            },
            {
                "start_time": 0.4340909,
                "end_time": 0.6340909,
                "pitch": 47,
                "velocity": 127,
                "duration": 0.2,
                "tempo": 120.0
            },
            {
                "start_time": 0.6340909,
                "end_time": 0.8340909,
                "pitch": 35,
                "velocity": 127,
                "duration": 0.2,
                "tempo": 120.0
            },
            {
                "start_time": 0.8340909,
                "end_time": 1.0340909,
                "pitch": 47,
                "velocity": 127,
                "duration": 0.2,
                "tempo": 120.0
            },
            {
                "start_time": 1.0340909,
                "end_time": 1.2340909,
                "pitch": 35,
                "velocity": 127,
                "duration": 0.2,
                "tempo": 120.0
            },
            {
                "start_time": 1.2340909,
                "end_time": 1.4340909,
                "pitch": 47,
                "velocity": 127,
                "duration": 0.2,
                "tempo": 120.0
            },
            {
                "start_time": 1.4340909,
                "end_time": 1.6340909,
                "pitch": 35,
                "velocity": 127,
                "duration": 0.2,
                "tempo": 120.0
            },
            {
                "start_time": 1.6340909,
                "end_time": 1.8340909,
                "pitch": 47,
                "velocity": 127,
                "duration": 0.2,
                "tempo": 120.0
            },
            {
                "start_time": 1.8340909,
                "end_time": 2.0340909,
                "pitch": 35,
                "velocity": 127,
                "duration": 0.2,
                "tempo": 120.0
            },
            {
                "start_time": 2.0340909,
                "end_time": 2.2363636,
                "pitch": 47,
                "velocity": 127,
                "duration": 0.2022727,
                "tempo": 120.0
            },
            {
                "start_time": 2.2363636,
                "end_time": 2.4363636,
                "pitch": 35,
                "velocity": 127,
                "duration": 0.2,
                "tempo": 120.0
            },
            {
                "start_time": 2.4363636,
                "end_time": 2.6363636,
                "pitch": 47,
                "velocity": 127,
                "duration": 0.2,
                "tempo": 120.0
            },
            {
                "start_time": 2.6363636,
                "end_time": 2.8363636,
                "pitch": 35,
                "velocity": 127,
                "duration": 0.2,
                "tempo": 120.0
            },
            {
                "start_time": 2.8363636,
                "end_time": 3.0363636,
                "pitch": 47,
                "velocity": 127,
                "duration": 0.2,
                "tempo": 120.0
            },
            {
                "start_time": 3.0363636,
                "end_time": 3.2363636,
                "pitch": 35,
                "velocity": 127,
                "duration": 0.2,
                "tempo": 120.0
            },
            {
                "start_time": 3.2363636,
                "end_time": 3.4363636,
                "pitch": 47,
                "velocity": 127,
                "duration": 0.2,
                "tempo": 120.0
            },
            {
                "start_time": 3.4363636,
                "end_time": 3.6204545,
                "pitch": 35,
                "velocity": 127,
                "duration": 0.1840909,
                "tempo": 120.0
            },
            {
                "start_time": 3.6204545,
                "end_time": 3.8227273,
                "pitch": 47,
                "velocity": 127,
                "duration": 0.2022727,
                "tempo": 120.0
            },
            {
                "start_time": 3.8227273,
                "end_time": 4.0181818,
                "pitch": 35,
                "velocity": 127,
                "duration": 0.1954545,
                "tempo": 120.0
            },
            {
                "start_time": 4.0181818,
                "end_time": 4.2136364,
                "pitch": 47,
                "velocity": 127,
                "duration": 0.1954545,
                "tempo": 120.0
            },
            {
                "start_time": 4.2318182,
                "end_time": 4.4136364,
                "pitch": 35,
                "velocity": 127,
                "duration": 0.1818182,
                "tempo": 120.0
            },
            {
                "start_time": 4.4136364,
                "end_time": 4.6136364,
                "pitch": 47,
                "velocity": 127,
                "duration": 0.2,
                "tempo": 120.0
            },
            {
                "start_time": 4.6136364,
                "end_time": 4.8159091,
                "pitch": 35,
                "velocity": 127,
                "duration": 0.2022727,
                "tempo": 120.0
            },
            {
                "start_time": 4.8159091,
                "end_time": 5.0340909,
                "pitch": 47,
                "velocity": 127,
                "duration": 0.2181818,
                "tempo": 120.0
            },
            {
                "start_time": 5.0340909,
                "end_time": 5.2454545,
                "pitch": 35,
                "velocity": 127,
                "duration": 0.2113636,
                "tempo": 120.0
            },
            {
                "start_time": 5.2454545,
                "end_time": 5.4545455,
                "pitch": 47,
                "velocity": 127,
                "duration": 0.2090909,
                "tempo": 120.0
            },
            {
                "start_time": 5.4545455,
                "end_time": 5.6522727,
                "pitch": 35,
                "velocity": 127,
                "duration": 0.1977273,
                "tempo": 120.0
            },
            {
                "start_time": 5.6522727,
                "end_time": 5.8477273,
                "pitch": 47,
                "velocity": 127,
                "duration": 0.1954545,
                "tempo": 120.0
            },
            {
                "start_time": 5.8477273,
                "end_time": 6.05,
                "pitch": 35,
                "velocity": 127,
                "duration": 0.2022727,
                "tempo": 120.0
            },
            {
                "start_time": 6.05,
                "end_time": 6.25,
                "pitch": 47,
                "velocity": 127,
                "duration": 0.2,
                "tempo": 120.0
            },
            {
                "start_time": 6.25,
                "end_time": 6.4522727,
                "pitch": 35,
                "velocity": 127,
                "duration": 0.2022727,
                "tempo": 120.0
            },
            {
                "start_time": 6.4522727,
                "end_time": 6.6522727,
                "pitch": 47,
                "velocity": 127,
                "duration": 0.2,
                "tempo": 120.0
            },
            {
                "start_time": 6.6522727,
                "end_time": 6.8522727,
                "pitch": 35,
                "velocity": 127,
                "duration": 0.2,
                "tempo": 120.0
            },
            {
                "start_time": 6.8522727,
                "end_time": 7.0522727,
                "pitch": 47,
                "velocity": 127,
                "duration": 0.2,
                "tempo": 120.0
            },
            {
                "start_time": 7.0522727,
                "end_time": 7.2545455,
                "pitch": 35,
                "velocity": 127,
                "duration": 0.2022727,
                "tempo": 120.0
            },
            {
                "start_time": 7.2545455,
                "end_time": 7.4568182,
                "pitch": 47,
                "velocity": 127,
                "duration": 0.2022727,
                "tempo": 120.0
            },
            {
                "start_time": 7.4568182,
                "end_time": 7.6613636,
                "pitch": 35,
                "velocity": 127,
                "duration": 0.2045455,
                "tempo": 120.0
            },
            {
                "start_time": 7.6613636,
                "end_time": 7.8659091,
                "pitch": 47,
                "velocity": 127,
                "duration": 0.2045455,
                "tempo": 120.0
            },
            {
                "start_time": 7.8659091,
                "end_time": 8.0636364,
                "pitch": 35,
                "velocity": 127,
                "duration": 0.1977273,
                "tempo": 120.0
            },
            {
                "start_time": 8.0636364,
                "end_time": 8.2590909,
                "pitch": 47,
                "velocity": 127,
                "duration": 0.1954545,
                "tempo": 120.0
            },
            {
                "start_time": 8.2590909,
                "end_time": 8.4431818,
                "pitch": 35,
                "velocity": 127,
                "duration": 0.1840909,
                "tempo": 120.0
            },
            {
                "start_time": 8.4431818,
                "end_time": 8.6454545,
                "pitch": 47,
                "velocity": 127,
                "duration": 0.2022727,
                "tempo": 120.0
            },
            {
                "start_time": 8.6454545,
                "end_time": 8.8409091,
                "pitch": 35,
                "velocity": 127,
                "duration": 0.1954545,
                "tempo": 120.0
            },
            {
                "start_time": 8.8409091,
                "end_time": 9.0363636,
                "pitch": 47,
                "velocity": 127,
                "duration": 0.1954545,
                "tempo": 120.0
            },
            {
                "start_time": 9.0363636,
                "end_time": 9.2386364,
                "pitch": 35,
                "velocity": 127,
                "duration": 0.2022727,
                "tempo": 120.0
            },
            {
                "start_time": 9.2386364,
                "end_time": 9.4386364,
                "pitch": 47,
                "velocity": 127,
                "duration": 0.2,
                "tempo": 120.0
            },
            {
                "start_time": 9.4386364,
                "end_time": 9.6409091,
                "pitch": 35,
                "velocity": 127,
                "duration": 0.2022727,
                "tempo": 120.0
            },
            {
                "start_time": 9.6409091,
                "end_time": 9.8590909,
                "pitch": 47,
                "velocity": 127,
                "duration": 0.2181818,
                "tempo": 120.0
            },
            {
                "start_time": 9.8590909,
                "end_time": 10.0704545,
                "pitch": 33,
                "velocity": 127,
                "duration": 0.2113636,
                "tempo": 120.0
            },
            {
                "start_time": 10.0704545,
                "end_time": 10.2818182,
                "pitch": 45,
                "velocity": 127,
                "duration": 0.2113636,
                "tempo": 120.0
            },
            {
                "start_time": 10.2818182,
                "end_time": 10.4818182,
                "pitch": 33,
                "velocity": 127,
                "duration": 0.2,
                "tempo": 120.0
            },
            {
                "start_time": 10.4818182,
                "end_time": 10.6840909,
                "pitch": 45,
                "velocity": 127,
                "duration": 0.2022727,
                "tempo": 120.0
            },
            {
                "start_time": 10.6840909,
                "end_time": 10.8863636,
                "pitch": 33,
                "velocity": 127,
                "duration": 0.2022727,
                "tempo": 120.0
            },
            {
                "start_time": 10.8863636,
                "end_time": 11.0863636,
                "pitch": 45,
                "velocity": 127,
                "duration": 0.2,
                "tempo": 120.0
            },
            {
                "start_time": 11.0863636,
                "end_time": 11.2863636,
                "pitch": 33,
                "velocity": 127,
                "duration": 0.2,
                "tempo": 120.0
            },
            {
                "start_time": 11.2863636,
                "end_time": 11.4863636,
                "pitch": 45,
                "velocity": 127,
                "duration": 0.2,
                "tempo": 120.0
            },
            {
                "start_time": 11.4863636,
                "end_time": 11.6886364,
                "pitch": 33,
                "velocity": 127,
                "duration": 0.2022727,
                "tempo": 120.0
            },
            {
                "start_time": 11.6886364,
                "end_time": 11.8886364,
                "pitch": 45,
                "velocity": 127,
                "duration": 0.2,
                "tempo": 120.0
            },
            {
                "start_time": 11.8886364,
                "end_time": 12.0863636,
                "pitch": 33,
                "velocity": 127,
                "duration": 0.1977273,
                "tempo": 120.0
            },
            {
                "start_time": 12.0863636,
                "end_time": 12.2818182,
                "pitch": 45,
                "velocity": 127,
                "duration": 0.1954545,
                "tempo": 120.0
            },
            {
                "start_time": 12.2818182,
                "end_time": 12.4863636,
                "pitch": 33,
                "velocity": 127,
                "duration": 0.2045455,
                "tempo": 120.0
            },
            {
                "start_time": 12.4863636,
                "end_time": 12.6931818,
                "pitch": 45,
                "velocity": 127,
                "duration": 0.2068182,
                "tempo": 120.0
            },
            {
                "start_time": 12.6931818,
                "end_time": 12.8931818,
                "pitch": 33,
                "velocity": 127,
                "duration": 0.2,
                "tempo": 120.0
            },
            {
                "start_time": 12.8931818,
                "end_time": 13.0954545,
                "pitch": 45,
                "velocity": 127,
                "duration": 0.2022727,
                "tempo": 120.0
            },
            {
                "start_time": 13.0954545,
                "end_time": 13.2795455,
                "pitch": 35,
                "velocity": 127,
                "duration": 0.1840909,
                "tempo": 120.0
            },
            {
                "start_time": 13.2795455,
                "end_time": 13.4795455,
                "pitch": 47,
                "velocity": 127,
                "duration": 0.2,
                "tempo": 120.0
            },
            {
                "start_time": 13.4795455,
                "end_time": 13.675,
                "pitch": 35,
                "velocity": 127,
                "duration": 0.1954545,
                "tempo": 120.0
            },
            {
                "start_time": 13.675,
                "end_time": 13.8863636,
                "pitch": 47,
                "velocity": 127,
                "duration": 0.2113636,
                "tempo": 120.0
            },
            {
                "start_time": 13.8863636,
                "end_time": 14.075,
                "pitch": 35,
                "velocity": 127,
                "duration": 0.1886364,
                "tempo": 120.0
            },
            {
                "start_time": 14.075,
                "end_time": 14.2818182,
                "pitch": 47,
                "velocity": 127,
                "duration": 0.2068182,
                "tempo": 120.0
            },
            {
                "start_time": 14.2818182,
                "end_time": 14.4772727,
                "pitch": 35,
                "velocity": 127,
                "duration": 0.1954545,
                "tempo": 120.0
            },
            {
                "start_time": 14.4772727,
                "end_time": 14.6909091,
                "pitch": 47,
                "velocity": 127,
                "duration": 0.2136364,
                "tempo": 120.0
            },
            {
                "start_time": 14.6909091,
                "end_time": 14.8954545,
                "pitch": 33,
                "velocity": 127,
                "duration": 0.2045455,
                "tempo": 120.0
            },
            {
                "start_time": 14.8954545,
                "end_time": 15.1,
                "pitch": 45,
                "velocity": 127,
                "duration": 0.2045455,
                "tempo": 120.0
            },
            {
                "start_time": 15.1,
                "end_time": 15.2954545,
                "pitch": 33,
                "velocity": 127,
                "duration": 0.1954545,
                "tempo": 120.0
            },
            {
                "start_time": 15.2954545,
                "end_time": 15.4931818,
                "pitch": 45,
                "velocity": 127,
                "duration": 0.1977273,
                "tempo": 120.0
            },
            {
                "start_time": 15.4931818,
                "end_time": 15.6977273,
                "pitch": 33,
                "velocity": 127,
                "duration": 0.2045455,
                "tempo": 120.0
            },
            {
                "start_time": 15.6977273,
                "end_time": 15.9022727,
                "pitch": 45,
                "velocity": 127,
                "duration": 0.2045455,
                "tempo": 120.0
            },
            {
                "start_time": 15.9022727,
                "end_time": 16.1045455,
                "pitch": 33,
                "velocity": 127,
                "duration": 0.2022727,
                "tempo": 120.0
            },
            {
                "start_time": 16.1045455,
                "end_time": 16.3068182,
                "pitch": 45,
                "velocity": 127,
                "duration": 0.2022727,
                "tempo": 120.0
            },
            {
                "start_time": 16.3068182,
                "end_time": 16.5068182,
                "pitch": 33,
                "velocity": 127,
                "duration": 0.2,
                "tempo": 120.0
            },
            {
                "start_time": 16.5068182,
                "end_time": 16.7068182,
                "pitch": 45,
                "velocity": 127,
                "duration": 0.2,
                "tempo": 120.0
            },
            {
                "start_time": 16.7068182,
                "end_time": 16.9022727,
                "pitch": 33,
                "velocity": 127,
                "duration": 0.1954545,
                "tempo": 120.0
            },
            {
                "start_time": 16.9022727,
                "end_time": 17.0977273,
                "pitch": 45,
                "velocity": 127,
                "duration": 0.1954545,
                "tempo": 120.0
            },
            {
                "start_time": 17.0977273,
                "end_time": 17.3022727,
                "pitch": 33,
                "velocity": 127,
                "duration": 0.2045455,
                "tempo": 120.0
            },
            {
                "start_time": 17.3022727,
                "end_time": 17.5090909,
                "pitch": 45,
                "velocity": 127,
                "duration": 0.2068182,
                "tempo": 120.0
            },
            {
                "start_time": 17.5090909,
                "end_time": 17.7090909,
                "pitch": 33,
                "velocity": 127,
                "duration": 0.2,
                "tempo": 120.0
            },
            {
                "start_time": 17.7090909,
                "end_time": 17.9113636,
                "pitch": 45,
                "velocity": 127,
                "duration": 0.2022727,
                "tempo": 120.0
            },
            {
                "start_time": 17.9113636,
                "end_time": 18.0909091,
                "pitch": 35,
                "velocity": 127,
                "duration": 0.1795455,
                "tempo": 120.0
            },
            {
                "start_time": 18.0909091,
                "end_time": 18.2863636,
                "pitch": 47,
                "velocity": 127,
                "duration": 0.1954545,
                "tempo": 120.0
            },
            {
                "start_time": 18.2863636,
                "end_time": 18.4886364,
                "pitch": 35,
                "velocity": 127,
                "duration": 0.2022727,
                "tempo": 120.0
            },
            {
                "start_time": 18.4886364,
                "end_time": 18.7068182,
                "pitch": 47,
                "velocity": 127,
                "duration": 0.2181818,
                "tempo": 120.0
            },
            {
                "start_time": 18.7068182,
                "end_time": 18.8886364,
                "pitch": 35,
                "velocity": 127,
                "duration": 0.1818182,
                "tempo": 120.0
            },
            {
                "start_time": 18.8886364,
                "end_time": 19.0886364,
                "pitch": 47,
                "velocity": 127,
                "duration": 0.2,
                "tempo": 120.0
            },
            {
                "start_time": 19.0886364,
                "end_time": 19.2909091,
                "pitch": 35,
                "velocity": 127,
                "duration": 0.2022727,
                "tempo": 120.0
            },
            {
                "start_time": 19.2909091,
                "end_time": 19.5090909,
                "pitch": 47,
                "velocity": 127,
                "duration": 0.2181818,
                "tempo": 120.0
            },
            {
                "start_time": 19.5090909,
                "end_time": 19.7090909,
                "pitch": 35,
                "velocity": 127,
                "duration": 0.2,
                "tempo": 120.0
            },
            {
                "start_time": 19.7090909,
                "end_time": 19.9090909,
                "pitch": 48,
                "velocity": 127,
                "duration": 0.2,
                "tempo": 120.0
            },
            {
                "start_time": 19.9090909,
                "end_time": 20.1136364,
                "pitch": 36,
                "velocity": 127,
                "duration": 0.2045455,
                "tempo": 120.0
            },
            {
                "start_time": 20.1136364,
                "end_time": 20.3204545,
                "pitch": 48,
                "velocity": 127,
                "duration": 0.2068182,
                "tempo": 120.0
            },
            {
                "start_time": 20.3204545,
                "end_time": 20.5204545,
                "pitch": 36,
                "velocity": 127,
                "duration": 0.2,
                "tempo": 120.0
            },
            {
                "start_time": 20.5204545,
                "end_time": 20.7204545,
                "pitch": 48,
                "velocity": 127,
                "duration": 0.2,
                "tempo": 120.0
            },
            {
                "start_time": 20.7204545,
                "end_time": 20.9159091,
                "pitch": 36,
                "velocity": 127,
                "duration": 0.1954545,
                "tempo": 120.0
            },
            {
                "start_time": 20.9159091,
                "end_time": 21.1113636,
                "pitch": 48,
                "velocity": 127,
                "duration": 0.1954545,
                "tempo": 120.0
            },
            {
                "start_time": 21.1113636,
                "end_time": 21.3181818,
                "pitch": 36,
                "velocity": 127,
                "duration": 0.2068182,
                "tempo": 120.0
            },
            {
                "start_time": 21.3181818,
                "end_time": 21.5227273,
                "pitch": 48,
                "velocity": 127,
                "duration": 0.2045455,
                "tempo": 120.0
            },
            {
                "start_time": 21.5227273,
                "end_time": 21.725,
                "pitch": 36,
                "velocity": 127,
                "duration": 0.2022727,
                "tempo": 120.0
            },
            {
                "start_time": 21.725,
                "end_time": 21.925,
                "pitch": 48,
                "velocity": 127,
                "duration": 0.2,
                "tempo": 120.0
            },
            {
                "start_time": 21.925,
                "end_time": 22.125,
                "pitch": 36,
                "velocity": 127,
                "duration": 0.2,
                "tempo": 120.0
            },
            {
                "start_time": 22.125,
                "end_time": 22.325,
                "pitch": 48,
                "velocity": 127,
                "duration": 0.2,
                "tempo": 120.0
            },
            {
                "start_time": 22.325,
                "end_time": 22.5227273,
                "pitch": 36,
                "velocity": 127,
                "duration": 0.1977273,
                "tempo": 120.0
            },
            {
                "start_time": 22.5227273,
                "end_time": 22.7181818,
                "pitch": 48,
                "velocity": 127,
                "duration": 0.1954545,
                "tempo": 120.0
            },
            {
                "start_time": 22.7181818,
                "end_time": 22.9227273,
                "pitch": 36,
                "velocity": 127,
                "duration": 0.2045455,
                "tempo": 120.0
            },
            {
                "start_time": 22.9227273,
                "end_time": 23.1272727,
                "pitch": 47,
                "velocity": 127,
                "duration": 0.2045455,
                "tempo": 120.0
            },
            {
                "start_time": 23.1272727,
                "end_time": 23.325,
                "pitch": 35,
                "velocity": 127,
                "duration": 0.1977273,
                "tempo": 120.0
            },
            {
                "start_time": 23.325,
                "end_time": 23.5204545,
                "pitch": 47,
                "velocity": 127,
                "duration": 0.1954545,
                "tempo": 120.0
            },
            {
                "start_time": 23.5204545,
                "end_time": 23.7204545,
                "pitch": 35,
                "velocity": 127,
                "duration": 0.2,
                "tempo": 120.0
            },
            {
                "start_time": 23.7204545,
                "end_time": 23.9204545,
                "pitch": 47,
                "velocity": 127,
                "duration": 0.2,
                "tempo": 120.0
            },
            {
                "start_time": 23.9204545,
                "end_time": 24.1204545,
                "pitch": 35,
                "velocity": 127,
                "duration": 0.2,
                "tempo": 120.0
            },
            {
                "start_time": 24.1204545,
                "end_time": 24.3204545,
                "pitch": 47,
                "velocity": 127,
                "duration": 0.2,
                "tempo": 120.0
            },
            {
                "start_time": 24.3204545,
                "end_time": 24.5227273,
                "pitch": 35,
                "velocity": 127,
                "duration": 0.2022727,
                "tempo": 120.0
            },
            {
                "start_time": 24.5227273,
                "end_time": 24.7227273,
                "pitch": 47,
                "velocity": 127,
                "duration": 0.2,
                "tempo": 120.0
            },
            {
                "start_time": 24.7227273,
                "end_time": 24.9227273,
                "pitch": 35,
                "velocity": 127,
                "duration": 0.2,
                "tempo": 120.0
            },
            {
                "start_time": 24.9227273,
                "end_time": 25.1227273,
                "pitch": 47,
                "velocity": 127,
                "duration": 0.2,
                "tempo": 120.0
            },
            {
                "start_time": 25.1227273,
                "end_time": 25.325,
                "pitch": 35,
                "velocity": 127,
                "duration": 0.2022727,
                "tempo": 120.0
            },
            {
                "start_time": 25.325,
                "end_time": 25.525,
                "pitch": 47,
                "velocity": 127,
                "duration": 0.2,
                "tempo": 120.0
            },
            {
                "start_time": 25.525,
                "end_time": 25.725,
                "pitch": 35,
                "velocity": 127,
                "duration": 0.2,
                "tempo": 120.0
            },
            {
                "start_time": 25.725,
                "end_time": 25.925,
                "pitch": 47,
                "velocity": 127,
                "duration": 0.2,
                "tempo": 120.0
            },
            {
                "start_time": 25.925,
                "end_time": 26.125,
                "pitch": 35,
                "velocity": 127,
                "duration": 0.2,
                "tempo": 120.0
            },
            {
                "start_time": 26.125,
                "end_time": 26.325,
                "pitch": 48,
                "velocity": 127,
                "duration": 0.2,
                "tempo": 120.0
            },
            {
                "start_time": 26.325,
                "end_time": 26.5272727,
                "pitch": 36,
                "velocity": 127,
                "duration": 0.2022727,
                "tempo": 120.0
            },
            {
                "start_time": 26.5272727,
                "end_time": 26.7295455,
                "pitch": 48,
                "velocity": 127,
                "duration": 0.2022727,
                "tempo": 120.0
            },
            {
                "start_time": 26.7295455,
                "end_time": 26.9295455,
                "pitch": 36,
                "velocity": 127,
                "duration": 0.2,
                "tempo": 120.0
            },
            {
                "start_time": 26.9295455,
                "end_time": 27.1295455,
                "pitch": 48,
                "velocity": 127,
                "duration": 0.2,
                "tempo": 120.0
            },
            {
                "start_time": 27.1295455,
                "end_time": 27.3295455,
                "pitch": 36,
                "velocity": 127,
                "duration": 0.2,
                "tempo": 120.0
            },
            {
                "start_time": 27.3295455,
                "end_time": 27.5318182,
                "pitch": 48,
                "velocity": 127,
                "duration": 0.2022727,
                "tempo": 120.0
            },
            {
                "start_time": 27.5318182,
                "end_time": 27.7363636,
                "pitch": 36,
                "velocity": 127,
                "duration": 0.2045455,
                "tempo": 120.0
            },
            {
                "start_time": 27.7363636,
                "end_time": 27.9409091,
                "pitch": 48,
                "velocity": 127,
                "duration": 0.2045455,
                "tempo": 120.0
            },
            {
                "start_time": 27.9409091,
                "end_time": 28.1386364,
                "pitch": 36,
                "velocity": 127,
                "duration": 0.1977273,
                "tempo": 120.0
            },
            {
                "start_time": 28.1386364,
                "end_time": 28.3340909,
                "pitch": 48,
                "velocity": 127,
                "duration": 0.1954545,
                "tempo": 120.0
            },
            {
                "start_time": 28.3340909,
                "end_time": 28.5386364,
                "pitch": 36,
                "velocity": 127,
                "duration": 0.2045455,
                "tempo": 120.0
            },
            {
                "start_time": 28.5386364,
                "end_time": 28.7454545,
                "pitch": 48,
                "velocity": 127,
                "duration": 0.2068182,
                "tempo": 120.0
            },
            {
                "start_time": 28.7454545,
                "end_time": 28.9409091,
                "pitch": 36,
                "velocity": 127,
                "duration": 0.1954545,
                "tempo": 120.0
            },
            {
                "start_time": 28.9409091,
                "end_time": 29.1363636,
                "pitch": 48,
                "velocity": 127,
                "duration": 0.1954545,
                "tempo": 120.0
            },
            {
                "start_time": 29.1363636,
                "end_time": 29.3409091,
                "pitch": 38,
                "velocity": 127,
                "duration": 0.2045455,
                "tempo": 120.0
            },
            {
                "start_time": 29.3409091,
                "end_time": 29.5477273,
                "pitch": 50,
                "velocity": 127,
                "duration": 0.2068182,
                "tempo": 120.0
            },
            {
                "start_time": 29.5477273,
                "end_time": 29.7431818,
                "pitch": 38,
                "velocity": 127,
                "duration": 0.1954545,
                "tempo": 120.0
            },
            {
                "start_time": 29.7431818,
                "end_time": 29.9386364,
                "pitch": 50,
                "velocity": 127,
                "duration": 0.1954545,
                "tempo": 120.0
            },
            {
                "start_time": 29.9386364,
                "end_time": 30.1386364,
                "pitch": 38,
                "velocity": 127,
                "duration": 0.2,
                "tempo": 120.0
            },
            {
                "start_time": 30.1386364,
                "end_time": 30.3386364,
                "pitch": 50,
                "velocity": 127,
                "duration": 0.2,
                "tempo": 120.0
            },
            {
                "start_time": 30.3386364,
                "end_time": 30.5454545,
                "pitch": 38,
                "velocity": 127,
                "duration": 0.2068182,
                "tempo": 120.0
            },
            {
                "start_time": 30.5454545,
                "end_time": 30.75,
                "pitch": 50,
                "velocity": 127,
                "duration": 0.2045455,
                "tempo": 120.0
            },
            {
                "start_time": 30.75,
                "end_time": 30.9454545,
                "pitch": 36,
                "velocity": 127,
                "duration": 0.1954545,
                "tempo": 120.0
            },
            {
                "start_time": 30.9454545,
                "end_time": 31.1431818,
                "pitch": 48,
                "velocity": 127,
                "duration": 0.1977273,
                "tempo": 120.0
            },
            {
                "start_time": 31.1431818,
                "end_time": 31.3431818,
                "pitch": 36,
                "velocity": 127,
                "duration": 0.2,
                "tempo": 120.0
            },
            {
                "start_time": 31.3431818,
                "end_time": 31.5454545,
                "pitch": 48,
                "velocity": 127,
                "duration": 0.2022727,
                "tempo": 120.0
            },
            {
                "start_time": 31.5454545,
                "end_time": 31.7454545,
                "pitch": 36,
                "velocity": 127,
                "duration": 0.2,
                "tempo": 120.0
            },
            {
                "start_time": 31.7454545,
                "end_time": 31.9454545,
                "pitch": 48,
                "velocity": 127,
                "duration": 0.2,
                "tempo": 120.0
            },
            {
                "start_time": 31.9454545,
                "end_time": 32.1454545,
                "pitch": 36,
                "velocity": 127,
                "duration": 0.2,
                "tempo": 120.0
            },
            {
                "start_time": 32.1454545,
                "end_time": 32.3454545,
                "pitch": 48,
                "velocity": 127,
                "duration": 0.2,
                "tempo": 120.0
            },
            {
                "start_time": 32.3454545,
                "end_time": 32.5272727,
                "pitch": 36,
                "velocity": 127,
                "duration": 0.1818182,
                "tempo": 120.0
            },
            {
                "start_time": 32.5272727,
                "end_time": 32.7272727,
                "pitch": 47,
                "velocity": 127,
                "duration": 0.2,
                "tempo": 120.0
            },
            {
                "start_time": 32.7272727,
                "end_time": 32.9295455,
                "pitch": 35,
                "velocity": 127,
                "duration": 0.2022727,
                "tempo": 120.0
            },
            {
                "start_time": 32.9295455,
                "end_time": 33.1477273,
                "pitch": 47,
                "velocity": 127,
                "duration": 0.2181818,
                "tempo": 120.0
            },
            {
                "start_time": 33.1477273,
                "end_time": 33.3318182,
                "pitch": 35,
                "velocity": 127,
                "duration": 0.1840909,
                "tempo": 120.0
            },
            {
                "start_time": 33.3318182,
                "end_time": 33.5318182,
                "pitch": 47,
                "velocity": 127,
                "duration": 0.2,
                "tempo": 120.0
            },
            {
                "start_time": 33.5318182,
                "end_time": 33.7272727,
                "pitch": 35,
                "velocity": 127,
                "duration": 0.1954545,
                "tempo": 120.0
            },
            {
                "start_time": 33.7272727,
                "end_time": 33.9386364,
                "pitch": 47,
                "velocity": 127,
                "duration": 0.2113636,
                "tempo": 120.0
            }
        ]
    }
}