{
    "mood": "angry",
    "instruments": {
        "Harpsichord": [
            {
                "start_time": 0.0,
                "end_time": 0.0840909,
                "pitch": 60,
                "velocity": 101,
                "duration": 0.0840909,
                "tempo": 120.0
            },
            {
                "start_time": 0.1,
                "end_time": 0.1840909,
                "pitch": 58,
                "velocity": 101,
                "duration": 0.0840909,
                "tempo": 120.0
            },
            {
                "start_time": 0.2,
                "end_time": 0.2840909,
                "pitch": 56,
                "velocity": 101,
                "duration": 0.0840909,
                "tempo": 120.0
            },
            {
                "start_time": 0.3,
                "end_time": 1.5840909,
                "pitch": 55,
                "velocity": 101,
                "duration": 1.2840909,
                "tempo": 120.0
            },
            {
                "start_time": 1.6,
                "end_time": 1.6840909,
                "pitch": 49,
                "velocity": 101,
                "duration": 0.0840909,
                "tempo": 120.0
            },
            {
                "start_time": 1.7,
                "end_time": 1.7840909,
                "pitch": 51,
                "velocity": 101,
                "duration": 0.0840909,
                "tempo": 120.0
            },
            {
                "start_time": 1.8022727,
                "end_time": 1.8863636,
                "pitch": 53,
                "velocity": 101,
                "duration": 0.0840909,
                "tempo": 120.0
            },
            {
                "start_time": 1.9022727,
                "end_time": 1.9863636,
                "pitch": 55,
                "velocity": 101,
                "duration": 0.0840909,
                "tempo": 120.0
            },
            {
                "start_time": 2.0022727,
                "end_time": 2.0863636,
                "pitch": 56,
                "velocity": 101,
                "duration": 0.0840909,
                "tempo": 120.0
            },
            {
                "start_time": 2.1022727,
                "end_time": 2.2863636,
                "pitch": 58,
                "velocity": 101,
                "duration": 0.1840909,
                "tempo": 120.0
            },
            {
                "start_time": 2.3022727,
                "end_time": 2.4863636,
                "pitch": 56,
                "velocity": 101,
                "duration": 0.1840909,
                "tempo": 120.0
            },
            {
                "start_time": 2.5022727,
                "end_time": 2.5863636,
                "pitch": 55,
                "velocity": 101,
                "duration": 0.0840909,
                "tempo": 120.0
            },
            {
                "start_time": 2.6022727,
                "end_time": 2.7863636,
                "pitch": 53,
                "velocity": 101,
                "duration": 0.1840909,
                "tempo": 120.0
            },
            {
                "start_time": 2.8022727,
                "end_time": 2.8863636,
                "pitch": 55,
                "velocity": 101,
                "duration": 0.0840909,
                "tempo": 120.0
            },
            {
                "start_time": 2.9022727,
                "end_time": 3.0863636,
                "pitch": 56,
                "velocity": 101,
                "duration": 0.1840909,
                "tempo": 120.0
            },
            {
                "start_time": 3.1022727,
                "end_time": 3.1863636,
                "pitch": 58,
                "velocity": 101,
                "duration": 0.0840909,
                "tempo": 120.0
            },
            {
                "start_time": 3.2022727,
                "end_time": 3.2863636,
                "pitch": 61,
                "velocity": 101,
                "duration": 0.0840909,
                "tempo": 120.0
            },
            {
                "start_time": 3.3022727,
                "end_time": 3.3863636,
                "pitch": 60,
                "velocity": 101,
                "duration": 0.0840909,
                "tempo": 120.0
            },
            {
                "start_time": 3.4045455,
                "end_time": 3.4886364,
                "pitch": 58,
                "velocity": 101,
                "duration": 0.0840909,
                "tempo": 120.0
            },
            {
                "start_time": 3.5045455,
                "end_time": 4.0886364,
                "pitch": 56,
                "velocity": 101,
                "duration": 0.5840909,
                "tempo": 120.0
            },
            {
                "start_time": 4.1045455,
                "end_time": 4.2886364,
                "pitch": 63,
                "velocity": 101,
                "duration": 0.1840909,
                "tempo": 120.0
            },
            {
                "start_time": 4.3045455,
                "end_time": 4.4886364,
                "pitch": 61,
                "velocity": 101,
                "duration": 0.1840909,
                "tempo": 120.0
            },
            {
                "start_time": 4.5068182,
                "end_time": 4.5909091,
                "pitch": 60,
                "velocity": 101,
                "duration": 0.0840909,
                "tempo": 120.0
            },
            {
                "start_time": 4.6068182,
                "end_time": 4.7909091,
                "pitch": 60,
                "velocity": 101,
                "duration": 0.1840909,
                "tempo": 120.0
            },
            {
                "start_time": 4.8090909,
                "end_time": 5.0909091,
                "pitch": 58,
                "velocity": 101,
                "duration": 0.2818182,
                "tempo": 120.0
            },
            {
                "start_time": 5.1090909,
                "end_time": 5.3931818,
                "pitch": 60,
                "velocity": 101,
                "duration": 0.2840909,
                "tempo": 120.0
            },
            {
                "start_time": 5.4090909,
                "end_time": 5.5931818,
                "pitch": 61,
                "velocity": 101,
                "duration": 0.1840909,
                "tempo": 120.0
            },
            {
                "start_time": 5.6113636,
                "end_time": 5.8931818,
                "pitch": 56,
                "velocity": 101,
                "duration": 0.2818182,
                "tempo": 120.0
            },
            {
                "start_time": 5.9113636,
                "end_time": 6.3977273,
                "pitch": 58,
                "velocity": 101,
                "duration": 0.4863636,
                "tempo": 120.0
            },
            {
                "start_time": 6.4136364,
                "end_time": 6.4977273,
                "pitch": 60,
                "velocity": 101,
                "duration": 0.0840909,
                "tempo": 120.0
            },
            {
                "start_time": 6.5136364,
                "end_time": 6.5977273,
                "pitch": 58,
                "velocity": 101,
                "duration": 0.0840909,
                "tempo": 120.0
            },
            {
                "start_time": 6.6136364,
                "end_time": 6.6977273,
                "pitch": 56,
                "velocity": 101,
                "duration": 0.0840909,
                "tempo": 120.0
            },
            {
                "start_time": 6.7159091,
                "end_time": 7.3,
                "pitch": 55,
                "velocity": 101,
                "duration": 0.5840909,
                "tempo": 120.0
            },
            {
                "start_time": 7.3159091,
                "end_time": 7.4,
                "pitch": 48,
                "velocity": 101,
                "duration": 0.0840909,
                "tempo": 120.0
            },
            {
                "start_time": 7.4181818,
                "end_time": 7.5022727,
                "pitch": 49,
                "velocity": 101,
                "duration": 0.0840909,
                "tempo": 120.0
            },
            {
                "start_time": 7.5181818,
                "end_time": 7.6022727,
                "pitch": 51,
                "velocity": 101,
                "duration": 0.0840909,
                "tempo": 120.0
            },
            {
                "start_time": 7.6181818,
                "end_time": 7.7022727,
                "pitch": 53,
                "velocity": 101,
                "duration": 0.0840909,
                "tempo": 120.0
            },
            {
                "start_time": 7.7181818,
                "end_time": 7.8022727,
                "pitch": 55,
                "velocity": 101,
                "duration": 0.0840909,
                "tempo": 120.0
            },
            {
                "start_time": 7.8181818,
                "end_time": 7.9022727,
                "pitch": 53,
                "velocity": 101,
                "duration": 0.0840909,
                "tempo": 120.0
            },
            {
                "start_time": 7.9181818,
                "end_time": 8.6068182,
                "pitch": 51,
                "velocity": 101,
                "duration": 0.6886364,
                "tempo": 120.0
            },
            {
                "start_time": 8.6227273,
                "end_time": 8.7068182,
                "pitch": 51,
                "velocity": 101,
                "duration": 0.0840909,
                "tempo": 120.0
            },
            {
                "start_time": 8.7227273,
                "end_time": 8.8068182,
                "pitch": 51,
                "velocity": 101,
                "duration": 0.0840909,
                "tempo": 120.0
            },
            {
                "start_time": 8.825,
                "end_time": 8.9090909,
                "pitch": 53,
                "velocity": 101,
                "duration": 0.0840909,
                "tempo": 120.0
            },
            {
                "start_time": 8.925,
                "end_time": 9.1090909,
                "pitch": 55,
                "velocity": 101,
                "duration": 0.1840909,
                "tempo": 120.0
            },
            {
                "start_time": 9.1272727,
                "end_time": 9.3090909,
                "pitch": 53,
                "velocity": 101,
                "duration": 0.1818182,
                "tempo": 120.0
            },
            {
                "start_time": 9.3272727,
                "end_time": 9.4090909,
                "pitch": 51,
                "velocity": 101,
                "duration": 0.0818182,
                "tempo": 120.0
            },
            {
                "start_time": 9.4272727,
                "end_time": 9.6090909,
                "pitch": 51,
                "velocity": 101,
                "duration": 0.1818182,
                "tempo": 120.0
            },
            {
                "start_time": 9.6272727,
                "end_time": 9.7113636,
                "pitch": 61,
                "velocity": 101,
                "duration": 0.0840909,
                "tempo": 120.0
            },
            {
                "start_time": 9.7272727,
                "end_time": 9.8113636,
                "pitch": 60,
                "velocity": 101,
                "duration": 0.0840909,
                "tempo": 120.0
            },
            {
                "start_time": 9.8272727,
                "end_time": 9.9113636,
                "pitch": 58,
                "velocity": 101,
                "duration": 0.0840909,
                "tempo": 120.0
            },
            {
                "start_time": 9.9295455,
                "end_time": 10.1136364,
                "pitch": 56,
                "velocity": 101,
                "duration": 0.1840909,
                "tempo": 120.0
            },
            {
                "start_time": 10.1295455,
                "end_time": 10.2136364,
                "pitch": 58,
                "velocity": 101,
                "duration": 0.0840909,
                "tempo": 120.0
            },
            {
                "start_time": 10.2318182,
                "end_time": 10.4159091,
                "pitch": 56,
                "velocity": 101,
                "duration": 0.1840909,
                "tempo": 120.0
            },
            {
                "start_time": 10.4318182,
                "end_time": 10.7181818,
                "pitch": 55,
                "velocity": 101,
                "duration": 0.2863636,
                "tempo": 120.0
            },
            {
                "start_time": 10.7340909,
                "end_time": 11.2204545,
                "pitch": 56,
                "velocity": 101,
                "duration": 0.4863636,
                "tempo": 120.0
            },
            {
                "start_time": 11.2386364,
                "end_time": 11.3204545,
                "pitch": 61,
                "velocity": 101,
                "duration": 0.0818182,
                "tempo": 120.0
            },
            {
                "start_time": 11.3386364,
                "end_time": 11.4204545,
                "pitch": 60,
                "velocity": 101,
                "duration": 0.0818182,
                "tempo": 120.0
            },
            {
                "start_time": 11.4386364,
                "end_time": 11.5204545,
                "pitch": 58,
                "velocity": 101,
                "duration": 0.0818182,
                "tempo": 120.0
            },
            {
                "start_time": 11.5386364,
                "end_time": 11.7204545,
                "pitch": 56,
                "velocity": 101,
                "duration": 0.1818182,
                "tempo": 120.0
            },
            {
                "start_time": 11.7386364,
                "end_time": 11.8227273,
                "pitch": 58,
                "velocity": 101,
                "duration": 0.0840909,
                "tempo": 120.0
            },
            {
                "start_time": 11.8386364,
                "end_time": 12.0227273,
                "pitch": 56,
                "velocity": 101,
                "duration": 0.1840909,
                "tempo": 120.0
            },
            {
                "start_time": 12.0409091,
                "end_time": 12.325,
                "pitch": 55,
                "velocity": 101,
                "duration": 0.2840909,
                "tempo": 120.0
            },
            {
                "start_time": 12.3431818,
                "end_time": 12.8295455,
                "pitch": 56,
                "velocity": 101,
                "duration": 0.4863636,
                "tempo": 120.0
            },
            {
                "start_time": 12.8454545,
                "end_time": 14.2363636,
                "pitch": 48,
                "velocity": 101,
                "duration": 1.3909091,
                "tempo": 120.0
            },
            {
                "start_time": 14.2522727,
                "end_time": 14.6386364,
                "pitch": 60,
                "velocity": 101,
                "duration": 0.3863636,
                "tempo": 120.0
            },
            {
                "start_time": 14.6545455,
                "end_time": 15.0409091,
                "pitch": 58,
                "velocity": 101,
                "duration": 0.3863636,
                "tempo": 120.0
            },
            {
                "start_time": 15.0568182,
                "end_time": 15.4386364,
                "pitch": 56,
                "velocity": 101,
                "duration": 0.3818182,
                "tempo": 120.0
            },
            {
                "start_time": 15.4545455,
                "end_time": 15.6340909,
                "pitch": 55,
                "velocity": 101,
                "duration": 0.1795455,
                "tempo": 120.0
            },
            {
                "start_time": 15.6522727,
                "end_time": 15.8363636,
                "pitch": 56,
                "velocity": 101,
                "duration": 0.1840909,
                "tempo": 120.0
            },
            {
                "start_time": 15.8522727,
                "end_time": 16.0363636,
                "pitch": 58,
                "velocity": 101,
                "duration": 0.1840909,
                "tempo": 120.0
            },
            {
                "start_time": 16.0545455,
                "end_time": 17.4409091,
                "pitch": 48,
                "velocity": 101,
                "duration": 1.3863636,
                "tempo": 120.0
            },
            {
                "start_time": 17.4590909,
                "end_time": 17.8431818,
                "pitch": 60,
                "velocity": 101,
                "duration": 0.3840909,
                "tempo": 120.0
            },
            {
                "start_time": 17.8590909,
                "end_time": 18.2431818,
                "pitch": 58,
                "velocity": 101,
                "duration": 0.3840909,
                "tempo": 120.0
            },
            {
                "start_time": 18.2590909,
                "end_time": 18.6431818,
                "pitch": 56,
                "velocity": 101,
                "duration": 0.3840909,
                "tempo": 120.0
            },
            {
                "start_time": 18.6613636,
                "end_time": 18.8454545,
                "pitch": 55,
                "velocity": 101,
                "duration": 0.1840909,
                "tempo": 120.0
            },
            {
                "start_time": 18.8613636,
                "end_time": 19.0454545,
                "pitch": 56,
                "velocity": 101,
                "duration": 0.1840909,
                "tempo": 120.0
            },
            {
                "start_time": 19.0613636,
                "end_time": 19.2454545,
                "pitch": 58,
                "velocity": 101,
                "duration": 0.1840909,
                "tempo": 120.0
            },
            {
                "start_time": 19.2613636,
                "end_time": 20.65,
                "pitch": 48,
                "velocity": 101,
                "duration": 1.3886364,
                "tempo": 120.0
            },
            {
                "start_time": 20.6659091,
                "end_time": 21.0568182,
                "pitch": 60,
                "velocity": 101,
                "duration": 0.3909091,
                "tempo": 120.0
            },
            {
                "start_time": 21.0727273,
                "end_time": 21.4568182,
                "pitch": 58,
                "velocity": 101,
                "duration": 0.3840909,
                "tempo": 120.0
            },
            {
                "start_time": 21.475,
                "end_time": 21.8545455,
                "pitch": 56,
                "velocity": 101,
                "duration": 0.3795455,
                "tempo": 120.0
            },
            {
                "start_time": 21.8704545,
                "end_time": 22.0545455,
                "pitch": 55,
                "velocity": 101,
                "duration": 0.1840909,
                "tempo": 120.0
            },
            {
                "start_time": 22.0704545,
                "end_time": 22.2545455,
                "pitch": 56,
                "velocity": 101,
                "duration": 0.1840909,
                "tempo": 120.0
            },
            {
                "start_time": 22.2704545,
                "end_time": 22.4545455,
                "pitch": 58,
                "velocity": 101,
                "duration": 0.1840909,
                "tempo": 120.0
            },
            {
                "start_time": 22.4704545,
                "end_time": 23.8636364,
                "pitch": 48,
                "velocity": 101,
                "duration": 1.3931818,
                "tempo": 120.0
            },
            {
                "start_time": 23.8818182,
                "end_time": 24.2659091,
                "pitch": 60,
                "velocity": 101,
                "duration": 0.3840909,
                "tempo": 120.0
            },
            {
                "start_time": 24.2818182,
                "end_time": 24.6659091,
                "pitch": 58,
                "velocity": 101,
                "duration": 0.3840909,
                "tempo": 120.0
            },
            {
                "start_time": 24.6840909,
                "end_time": 25.0681818,
                "pitch": 56,
                "velocity": 101,
                "duration": 0.3840909,
                "tempo": 120.0
            },
            {
                "start_time": 25.0840909,
                "end_time": 25.2659091,
                "pitch": 55,
                "velocity": 101,
                "duration": 0.1818182,
                "tempo": 120.0
            },
            {
                "start_time": 25.2818182,
                "end_time": 25.4659091,
                "pitch": 56,
                "velocity": 101,
                "duration": 0.1840909,
                "tempo": 120.0
            },
            {
                "start_time": 25.4818182,
                "end_time": 25.6681818,
                "pitch": 58,
                "velocity": 101,
                "duration": 0.1863636,
                "tempo": 120.0
            }
        ],
        "Electric Guitar (clean)": [
            {
                "start_time": 0.0,
                "end_time": 0.8840909,
                "pitch": 36,
                "velocity": 64,
                "duration": 0.8840909,
                "tempo": 120.0
            },
            {
                "start_time": 0.9,
                "end_time": 0.9840909,
                "pitch": 37,
                "velocity": 64,
                "duration": 0.0840909,
                "tempo": 120.0
            },
            {
                "start_time": 1.0,
                "end_time": 1.0840909,
                "pitch": 39,
                "velocity": 64,
                "duration": 0.0840909,
                "tempo": 120.0
            },
            {
                "start_time": 1.1,
                "end_time": 1.1840909,
                "pitch": 41,
                "velocity": 64,
                "duration": 0.0840909,
                "tempo": 120.0
            },
            {
                "start_time": 1.2,
                "end_time": 1.2840909,
                "pitch": 43,
                "velocity": 64,
                "duration": 0.0840909,
                "tempo": 120.0
            },
            {
                "start_time": 1.3,
                "end_time": 1.3840909,
                "pitch": 44,
                "velocity": 64,
                "duration": 0.0840909,
                "tempo": 120.0
            },
            {
                "start_time": 1.4,
                "end_time": 1.5840909,
                "pitch": 43,
                "velocity": 64,
                "duration": 0.1840909,
                "tempo": 120.0
            },
            {
                "start_time": 1.6,
                "end_time": 2.3863636,
                "pitch": 36,
                "velocity": 64,
                "duration": 0.7863636,
                "tempo": 120.0
            },
            {
                "start_time": 2.4022727,
                "end_time": 3.1863636,
                "pitch": 36,
                "velocity": 64,
                "duration": 0.7840909,
                "tempo": 120.0
            },
            {
                "start_time": 3.2022727,
                "end_time": 4.0886364,
                "pitch": 37,
                "velocity": 64,
                "duration": 0.8863636,
                "tempo": 120.0
            },
            {
                "start_time": 4.1045455,
                "end_time": 4.1886364,
                "pitch": 39,
                "velocity": 64,
                "duration": 0.0840909,
                "tempo": 120.0
            },
            {
                "start_time": 4.2045455,
                "end_time": 4.2886364,
                "pitch": 41,
                "velocity": 64,
                "duration": 0.0840909,
                "tempo": 120.0
            },
            {
                "start_time": 4.3045455,
                "end_time": 4.3886364,
                "pitch": 43,
                "velocity": 64,
                "duration": 0.0840909,
                "tempo": 120.0
            },
            {
                "start_time": 4.4045455,
                "end_time": 4.4886364,
                "pitch": 44,
                "velocity": 64,
                "duration": 0.0840909,
                "tempo": 120.0
            },
            {
                "start_time": 4.5068182,
                "end_time": 4.5909091,
                "pitch": 46,
                "velocity": 64,
                "duration": 0.0840909,
                "tempo": 120.0
            },
            {
                "start_time": 4.6068182,
                "end_time": 4.7909091,
                "pitch": 44,
                "velocity": 64,
                "duration": 0.1840909,
                "tempo": 120.0
            },
            {
                "start_time": 4.8090909,
                "end_time": 5.5931818,
                "pitch": 37,
                "velocity": 64,
                "duration": 0.7840909,
                "tempo": 120.0
            },
            {
                "start_time": 5.6113636,
                "end_time": 6.3977273,
                "pitch": 37,
                "velocity": 64,
                "duration": 0.7863636,
                "tempo": 120.0
            },
            {
                "start_time": 6.4136364,
                "end_time": 7.3,
                "pitch": 36,
                "velocity": 64,
                "duration": 0.8863636,
                "tempo": 120.0
            },
            {
                "start_time": 7.3159091,
                "end_time": 7.4,
                "pitch": 37,
                "velocity": 64,
                "duration": 0.0840909,
                "tempo": 120.0
            },
            {
                "start_time": 7.4181818,
                "end_time": 7.5022727,
                "pitch": 39,
                "velocity": 64,
                "duration": 0.0840909,
                "tempo": 120.0
            },
            {
                "start_time": 7.5181818,
                "end_time": 7.6022727,
                "pitch": 41,
                "velocity": 64,
                "duration": 0.0840909,
                "tempo": 120.0
            },
            {
                "start_time": 7.6181818,
                "end_time": 7.7022727,
                "pitch": 43,
                "velocity": 64,
                "duration": 0.0840909,
                "tempo": 120.0
            },
            {
                "start_time": 7.7181818,
                "end_time": 7.8022727,
                "pitch": 44,
                "velocity": 64,
                "duration": 0.0840909,
                "tempo": 120.0
            },
            {
                "start_time": 7.8181818,
                "end_time": 8.0022727,
                "pitch": 43,
                "velocity": 64,
                "duration": 0.1840909,
                "tempo": 120.0
            },
            {
                "start_time": 8.0181818,
                "end_time": 8.8068182,
                "pitch": 36,
                "velocity": 64,
                "duration": 0.7886364,
                "tempo": 120.0
            },
            {
                "start_time": 8.825,
                "end_time": 9.6090909,
                "pitch": 36,
                "velocity": 64,
                "duration": 0.7840909,
                "tempo": 120.0
            },
            {
                "start_time": 9.6272727,
                "end_time": 10.5159091,
                "pitch": 37,
                "velocity": 64,
                "duration": 0.8886364,
                "tempo": 120.0
            },
            {
                "start_time": 10.5318182,
                "end_time": 10.6159091,
                "pitch": 39,
                "velocity": 64,
                "duration": 0.0840909,
                "tempo": 120.0
            },
            {
                "start_time": 10.6340909,
                "end_time": 10.7181818,
                "pitch": 41,
                "velocity": 64,
                "duration": 0.0840909,
                "tempo": 120.0
            },
            {
                "start_time": 10.7340909,
                "end_time": 10.8181818,
                "pitch": 43,
                "velocity": 64,
                "duration": 0.0840909,
                "tempo": 120.0
            },
            {
                "start_time": 10.8340909,
                "end_time": 10.9181818,
                "pitch": 44,
                "velocity": 64,
                "duration": 0.0840909,
                "tempo": 120.0
            },
            {
                "start_time": 10.9363636,
                "end_time": 11.0204545,
                "pitch": 46,
                "velocity": 64,
                "duration": 0.0840909,
                "tempo": 120.0
            },
            {
                "start_time": 11.0363636,
                "end_time": 11.2204545,
                "pitch": 44,
                "velocity": 64,
                "duration": 0.1840909,
                "tempo": 120.0
            },
            {
                "start_time": 11.2386364,
                "end_time": 12.0227273,
                "pitch": 37,
                "velocity": 64,
                "duration": 0.7840909,
                "tempo": 120.0
            },
            {
                "start_time": 12.0409091,
                "end_time": 12.8295455,
                "pitch": 37,
                "velocity": 64,
                "duration": 0.7886364,
                "tempo": 120.0
            },
            {
                "start_time": 12.8454545,
                "end_time": 13.0295455,
                "pitch": 36,
                "velocity": 64,
                "duration": 0.1840909,
                "tempo": 120.0
            },
            {
                "start_time": 13.0477273,
                "end_time": 13.2318182,
                "pitch": 36,
                "velocity": 64,
                "duration": 0.1840909,
                "tempo": 120.0
            },
            {
                "start_time": 13.2477273,
                "end_time": 13.4318182,
                "pitch": 36,
                "velocity": 64,
                "duration": 0.1840909,
                "tempo": 120.0
            },
            {
                "start_time": 13.4477273,
                "end_time": 13.8318182,
                "pitch": 31,
                "velocity": 64,
                "duration": 0.3840909,
                "tempo": 120.0
            },
            {
                "start_time": 13.85,
                "end_time": 14.0340909,
                "pitch": 31,
                "velocity": 64,
                "duration": 0.1840909,
                "tempo": 120.0
            },
            {
                "start_time": 14.05,
                "end_time": 14.2363636,
                "pitch": 31,
                "velocity": 64,
                "duration": 0.1863636,
                "tempo": 120.0
            },
            {
                "start_time": 14.2522727,
                "end_time": 14.6386364,
                "pitch": 32,
                "velocity": 64,
                "duration": 0.3863636,
                "tempo": 120.0
            },
            {
                "start_time": 14.6545455,
                "end_time": 14.8386364,
                "pitch": 32,
                "velocity": 64,
                "duration": 0.1840909,
                "tempo": 120.0
            },
            {
                "start_time": 14.8568182,
                "end_time": 15.0409091,
                "pitch": 32,
                "velocity": 64,
                "duration": 0.1840909,
                "tempo": 120.0
            },
            {
                "start_time": 15.0568182,
                "end_time": 15.4386364,
                "pitch": 34,
                "velocity": 64,
                "duration": 0.3818182,
                "tempo": 120.0
            },
            {
                "start_time": 15.4545455,
                "end_time": 15.6340909,
                "pitch": 34,
                "velocity": 64,
                "duration": 0.1795455,
                "tempo": 120.0
            },
            {
                "start_time": 15.6522727,
                "end_time": 16.0363636,
                "pitch": 34,
                "velocity": 64,
                "duration": 0.3840909,
                "tempo": 120.0
            },
            {
                "start_time": 16.0545455,
                "end_time": 16.2090909,
                "pitch": 36,
                "velocity": 64,
                "duration": 0.1545455,
                "tempo": 120.0
            },
            {
                "start_time": 16.225,
                "end_time": 16.4477273,
                "pitch": 36,
                "velocity": 64,
                "duration": 0.2227273,
                "tempo": 120.0
            },
            {
                "start_time": 16.4636364,
                "end_time": 16.6431818,
                "pitch": 36,
                "velocity": 64,
                "duration": 0.1795455,
                "tempo": 120.0
            },
            {
                "start_time": 16.6613636,
                "end_time": 17.0409091,
                "pitch": 31,
                "velocity": 64,
                "duration": 0.3795455,
                "tempo": 120.0
            },
            {
                "start_time": 17.0568182,
                "end_time": 17.2409091,
                "pitch": 31,
                "velocity": 64,
                "duration": 0.1840909,
                "tempo": 120.0
            },
            {
                "start_time": 17.2568182,
                "end_time": 17.4068182,
                "pitch": 31,
                "velocity": 64,
                "duration": 0.15,
                "tempo": 120.0
            },
            {
                "start_time": 17.425,
                "end_time": 17.8431818,
                "pitch": 32,
                "velocity": 64,
                "duration": 0.4181818,
                "tempo": 120.0
            },
            {
                "start_time": 17.8590909,
                "end_time": 18.0431818,
                "pitch": 32,
                "velocity": 64,
                "duration": 0.1840909,
                "tempo": 120.0
            },
            {
                "start_time": 18.0590909,
                "end_time": 18.2431818,
                "pitch": 32,
                "velocity": 64,
                "duration": 0.1840909,
                "tempo": 120.0
            },
            {
                "start_time": 18.2590909,
                "end_time": 18.6431818,
                "pitch": 34,
                "velocity": 64,
                "duration": 0.3840909,
                "tempo": 120.0
            },
            {
                "start_time": 18.6613636,
                "end_time": 18.8454545,
                "pitch": 34,
                "velocity": 64,
                "duration": 0.1840909,
                "tempo": 120.0
            },
            {
                "start_time": 18.8613636,
                "end_time": 19.2454545,
                "pitch": 34,
                "velocity": 64,
                "duration": 0.3840909,
                "tempo": 120.0
            },
            {
                "start_time": 19.2613636,
                "end_time": 19.4477273,
                "pitch": 36,
                "velocity": 64,
                "duration": 0.1863636,
                "tempo": 120.0
            },
            {
                "start_time": 19.4636364,
                "end_time": 19.6477273,
                "pitch": 36,
                "velocity": 64,
                "duration": 0.1840909,
                "tempo": 120.0
            },
            {
                "start_time": 19.6659091,
                "end_time": 19.8477273,
                "pitch": 36,
                "velocity": 64,
                "duration": 0.1818182,
                "tempo": 120.0
            },
            {
                "start_time": 19.8659091,
                "end_time": 20.2477273,
                "pitch": 31,
                "velocity": 64,
                "duration": 0.3818182,
                "tempo": 120.0
            },
            {
                "start_time": 20.2659091,
                "end_time": 20.4477273,
                "pitch": 31,
                "velocity": 64,
                "duration": 0.1818182,
                "tempo": 120.0
            },
            {
                "start_time": 20.4659091,
                "end_time": 20.65,
                "pitch": 31,
                "velocity": 64,
                "duration": 0.1840909,
                "tempo": 120.0
            },
            {
                "start_time": 20.6659091,
                "end_time": 21.0568182,
                "pitch": 32,
                "velocity": 64,
                "duration": 0.3909091,
                "tempo": 120.0
            },
            {
                "start_time": 21.0727273,
                "end_time": 21.2613636,
                "pitch": 32,
                "velocity": 64,
                "duration": 0.1886364,
                "tempo": 120.0
            },
            {
                "start_time": 21.2772727,
                "end_time": 21.4568182,
                "pitch": 32,
                "velocity": 64,
                "duration": 0.1795455,
                "tempo": 120.0
            },
            {
                "start_time": 21.475,
                "end_time": 21.8545455,
                "pitch": 34,
                "velocity": 64,
                "duration": 0.3795455,
                "tempo": 120.0
            },
            {
                "start_time": 21.8704545,
                "end_time": 22.0545455,
                "pitch": 34,
                "velocity": 64,
                "duration": 0.1840909,
                "tempo": 120.0
            },
            {
                "start_time": 22.0704545,
                "end_time": 22.4545455,
                "pitch": 34,
                "velocity": 64,
                "duration": 0.3840909,
                "tempo": 120.0
            },
            {
                "start_time": 22.4704545,
                "end_time": 22.625,
                "pitch": 36,
                "velocity": 64,
                "duration": 0.1545455,
                "tempo": 120.0
            },
            {
                "start_time": 22.6409091,
                "end_time": 22.8636364,
                "pitch": 36,
                "velocity": 64,
                "duration": 0.2227273,
                "tempo": 120.0
            },
            {
                "start_time": 22.8818182,
                "end_time": 23.0613636,
                "pitch": 36,
                "velocity": 64,
                "duration": 0.1795455,
                "tempo": 120.0
            },
            {
                "start_time": 23.0772727,
                "end_time": 23.4568182,
                "pitch": 31,
                "velocity": 64,
                "duration": 0.3795455,
                "tempo": 120.0
            },
            {
                "start_time": 23.475,
                "end_time": 23.6590909,
                "pitch": 31,
                "velocity": 64,
                "duration": 0.1840909,
                "tempo": 120.0
            },
            {
                "start_time": 23.675,
                "end_time": 23.8295455,
                "pitch": 31,
                "velocity": 64,
                "duration": 0.1545455,
                "tempo": 120.0
            },
            {
                "start_time": 23.8477273,
                "end_time": 24.2659091,
                "pitch": 32,
                "velocity": 64,
                "duration": 0.4181818,
                "tempo": 120.0
            },
            {
                "start_time": 24.2818182,
                "end_time": 24.4613636,
                "pitch": 32,
                "velocity": 64,
                "duration": 0.1795455,
                "tempo": 120.0
            },
            {
                "start_time": 24.4795455,
                "end_time": 24.6659091,
                "pitch": 32,
                "velocity": 64,
                "duration": 0.1863636,
                "tempo": 120.0
            },
            {
                "start_time": 24.6840909,
                "end_time": 25.0681818,
                "pitch": 34,
                "velocity": 64,
                "duration": 0.3840909,
                "tempo": 120.0
            },
            {
                "start_time": 25.0840909,
                "end_time": 25.2659091,
                "pitch": 34,
                "velocity": 64,
                "duration": 0.1818182,
                "tempo": 120.0
            },
            {
                "start_time": 25.2818182,
                "end_time": 25.6681818,
                "pitch": 34,
                "velocity": 64,
                "duration": 0.3863636,
                "tempo": 120.0
            }
        ],
        "Vibraphone": [
            {
                "start_time": 0.0,
                "end_time": 0.0340909,
                "pitch": 45,
                "velocity": 51,
                "duration": 0.0340909,
                "tempo": 120.0
            },
            {
                "start_time": 0.0340909,
                "end_time": 0.1340909,
                "pitch": 60,
                "velocity": 51,
                "duration": 0.1,
                "tempo": 120.0
            },
            {
                "start_time": 0.1340909,
                "end_time": 0.3340909,
                "pitch": 58,
                "velocity": 51,
                "duration": 0.2,
                "tempo": 120.0
            },
            {
                "start_time": 0.3340909,
                "end_time": 1.6340909,
                "pitch": 55,
                "velocity": 51,
                "duration": 1.3,
                "tempo": 120.0
            },
            {
                "start_time": 1.6340909,
                "end_time": 1.7340909,
                "pitch": 49,
                "velocity": 51,
                "duration": 0.1,
                "tempo": 120.0
            },
            {
                "start_time": 1.7340909,
                "end_time": 1.8340909,
                "pitch": 51,
                "velocity": 51,
                "duration": 0.1,
                "tempo": 120.0
            },
            {
                "start_time": 1.8340909,
                "end_time": 1.9363636,
                "pitch": 53,
                "velocity": 51,
                "duration": 0.1022727,
                "tempo": 120.0
            },
            {
                "start_time": 1.9363636,
                "end_time": 2.1363636,
                "pitch": 55,
                "velocity": 51,
                "duration": 0.2,
                "tempo": 120.0
            },
            {
                "start_time": 2.1363636,
                "end_time": 2.5363636,
                "pitch": 58,
                "velocity": 51,
                "duration": 0.4,
                "tempo": 120.0
            },
            {
                "start_time": 2.5363636,
                "end_time": 2.6363636,
                "pitch": 55,
                "velocity": 51,
                "duration": 0.1,
                "tempo": 120.0
            },
            {
                "start_time": 2.6363636,
                "end_time": 2.8363636,
                "pitch": 53,
                "velocity": 51,
                "duration": 0.2,
                "tempo": 120.0
            },
            {
                "start_time": 2.8363636,
                "end_time": 3.1363636,
                "pitch": 55,
                "velocity": 51,
                "duration": 0.3,
                "tempo": 120.0
            },
            {
                "start_time": 3.1363636,
                "end_time": 3.2363636,
                "pitch": 58,
                "velocity": 51,
                "duration": 0.1,
                "tempo": 120.0
            },
            {
                "start_time": 3.2363636,
                "end_time": 3.4386364,
                "pitch": 61,
                "velocity": 51,
                "duration": 0.2022727,
                "tempo": 120.0
            },
            {
                "start_time": 3.4386364,
                "end_time": 4.1386364,
                "pitch": 58,
                "velocity": 51,
                "duration": 0.7,
                "tempo": 120.0
            },
            {
                "start_time": 4.1386364,
                "end_time": 4.3386364,
                "pitch": 63,
                "velocity": 51,
                "duration": 0.2,
                "tempo": 120.0
            },
            {
                "start_time": 4.3386364,
                "end_time": 4.8409091,
                "pitch": 61,
                "velocity": 51,
                "duration": 0.5022727,
                "tempo": 120.0
            },
            {
                "start_time": 4.8409091,
                "end_time": 5.1409091,
                "pitch": 58,
                "velocity": 51,
                "duration": 0.3,
                "tempo": 120.0
            },
            {
                "start_time": 5.1409091,
                "end_time": 5.6431818,
                "pitch": 60,
                "velocity": 51,
                "duration": 0.5022727,
                "tempo": 120.0
            },
            {
                "start_time": 5.6431818,
                "end_time": 6.4477273,
                "pitch": 56,
                "velocity": 51,
                "duration": 0.8045455,
                "tempo": 120.0
            },
            {
                "start_time": 6.4477273,
                "end_time": 6.5477273,
                "pitch": 60,
                "velocity": 51,
                "duration": 0.1,
                "tempo": 120.0
            },
            {
                "start_time": 6.5477273,
                "end_time": 6.75,
                "pitch": 58,
                "velocity": 51,
                "duration": 0.2022727,
                "tempo": 120.0
            },
            {
                "start_time": 6.75,
                "end_time": 7.35,
                "pitch": 55,
                "velocity": 51,
                "duration": 0.6,
                "tempo": 120.0
            },
            {
                "start_time": 7.35,
                "end_time": 7.5522727,
                "pitch": 48,
                "velocity": 51,
                "duration": 0.2022727,
                "tempo": 120.0
            },
            {
                "start_time": 7.5522727,
                "end_time": 7.6522727,
                "pitch": 51,
                "velocity": 51,
                "duration": 0.1,
                "tempo": 120.0
            },
            {
                "start_time": 7.6522727,
                "end_time": 7.7522727,
                "pitch": 53,
                "velocity": 51,
                "duration": 0.1,
                "tempo": 120.0
            },
            {
                "start_time": 7.7522727,
                "end_time": 7.8522727,
                "pitch": 55,
                "velocity": 51,
                "duration": 0.1,
                "tempo": 120.0
            },
            {
                "start_time": 7.8522727,
                "end_time": 7.9522727,
                "pitch": 53,
                "velocity": 51,
                "duration": 0.1,
                "tempo": 120.0
            },
            {
                "start_time": 7.9522727,
                "end_time": 8.8568182,
                "pitch": 51,
                "velocity": 51,
                "duration": 0.9045455,
                "tempo": 120.0
            },
            {
                "start_time": 8.8568182,
                "end_time": 8.9590909,
                "pitch": 53,
                "velocity": 51,
                "duration": 0.1022727,
                "tempo": 120.0
            },
            {
                "start_time": 8.9590909,
                "end_time": 9.1590909,
                "pitch": 55,
                "velocity": 51,
                "duration": 0.2,
                "tempo": 120.0
            },
            {
                "start_time": 9.1590909,
                "end_time": 9.3590909,
                "pitch": 53,
                "velocity": 51,
                "duration": 0.2,
                "tempo": 120.0
            },
            {
                "start_time": 9.3590909,
                "end_time": 9.6613636,
                "pitch": 51,
                "velocity": 51,
                "duration": 0.3022727,
                "tempo": 120.0
            },
            {
                "start_time": 9.6613636,
                "end_time": 9.8613636,
                "pitch": 61,
                "velocity": 51,
                "duration": 0.2,
                "tempo": 120.0
            },
            {
                "start_time": 9.8613636,
                "end_time": 10.4659091,
                "pitch": 58,
                "velocity": 51,
                "duration": 0.6045455,
                "tempo": 120.0
            },
            {
                "start_time": 10.4659091,
                "end_time": 11.2704545,
                "pitch": 55,
                "velocity": 51,
                "duration": 0.8045455,
                "tempo": 120.0
            },
            {
                "start_time": 11.2704545,
                "end_time": 11.4704545,
                "pitch": 61,
                "velocity": 51,
                "duration": 0.2,
                "tempo": 120.0
            },
            {
                "start_time": 11.4704545,
                "end_time": 12.0727273,
                "pitch": 58,
                "velocity": 51,
                "duration": 0.6022727,
                "tempo": 120.0
            },
            {
                "start_time": 12.0727273,
                "end_time": 12.8795455,
                "pitch": 55,
                "velocity": 51,
                "duration": 0.8068182,
                "tempo": 120.0
            },
            {
                "start_time": 12.8795455,
                "end_time": 14.2863636,
                "pitch": 48,
                "velocity": 51,
                "duration": 1.4068182,
                "tempo": 120.0
            },
            {
                "start_time": 14.2863636,
                "end_time": 14.6886364,
                "pitch": 60,
                "velocity": 51,
                "duration": 0.4022727,
                "tempo": 120.0
            },
            {
                "start_time": 14.6886364,
                "end_time": 15.4886364,
                "pitch": 58,
                "velocity": 51,
                "duration": 0.8,
                "tempo": 120.0
            },
            {
                "start_time": 15.4886364,
                "end_time": 15.8863636,
                "pitch": 55,
                "velocity": 51,
                "duration": 0.3977273,
                "tempo": 120.0
            },
            {
                "start_time": 15.8863636,
                "end_time": 16.0886364,
                "pitch": 58,
                "velocity": 51,
                "duration": 0.2022727,
                "tempo": 120.0
            },
            {
                "start_time": 16.0886364,
                "end_time": 17.4909091,
                "pitch": 48,
                "velocity": 51,
                "duration": 1.4022727,
                "tempo": 120.0
            },
            {
                "start_time": 17.4909091,
                "end_time": 17.8931818,
                "pitch": 60,
                "velocity": 51,
                "duration": 0.4022727,
                "tempo": 120.0
            },
            {
                "start_time": 17.8931818,
                "end_time": 18.6954545,
                "pitch": 58,
                "velocity": 51,
                "duration": 0.8022727,
                "tempo": 120.0
            },
            {
                "start_time": 18.6954545,
                "end_time": 19.0954545,
                "pitch": 55,
                "velocity": 51,
                "duration": 0.4,
                "tempo": 120.0
            },
            {
                "start_time": 19.0954545,
                "end_time": 19.2954545,
                "pitch": 58,
                "velocity": 51,
                "duration": 0.2,
                "tempo": 120.0
            },
            {
                "start_time": 19.2954545,
                "end_time": 20.7,
                "pitch": 48,
                "velocity": 51,
                "duration": 1.4045455,
                "tempo": 120.0
            },
            {
                "start_time": 20.7,
                "end_time": 21.1068182,
                "pitch": 60,
                "velocity": 51,
                "duration": 0.4068182,
                "tempo": 120.0
            },
            {
                "start_time": 21.1068182,
                "end_time": 21.9045455,
                "pitch": 58,
                "velocity": 51,
                "duration": 0.7977273,
                "tempo": 120.0
            },
            {
                "start_time": 21.9045455,
                "end_time": 22.3045455,
                "pitch": 55,
                "velocity": 51,
                "duration": 0.4,
                "tempo": 120.0
            },
            {
                "start_time": 22.3045455,
                "end_time": 22.5045455,
                "pitch": 58,
                "velocity": 51,
                "duration": 0.2,
                "tempo": 120.0
            },
            {
                "start_time": 22.5045455,
                "end_time": 23.9159091,
                "pitch": 48,
                "velocity": 51,
                "duration": 1.4113636,
                "tempo": 120.0
            },
            {
                "start_time": 23.9159091,
                "end_time": 24.3159091,
                "pitch": 60,
                "velocity": 51,
                "duration": 0.4,
                "tempo": 120.0
            },
            {
                "start_time": 24.3159091,
                "end_time": 25.1181818,
                "pitch": 58,
                "velocity": 51,
                "duration": 0.8022727,
                "tempo": 120.0
            },
            {
                "start_time": 25.1181818,
                "end_time": 25.5159091,
                "pitch": 55,
                "velocity": 51,
                "duration": 0.3977273,
                "tempo": 120.0
            },
            {
                "start_time": 25.5159091,
                "end_time": 25.6840909,
                "pitch": 58,
                "velocity": 51,
                "duration": 0.1681818,
                "tempo": 120.0
            }
        ],
        "Acoustic Bass": [
            {
                "start_time": 0.0,
                "end_time": 0.05,
                "pitch": 45,
                "velocity": 64,
                "duration": 0.05,
                "tempo": 120.0
            },
            {
                "start_time": 0.0659091,
                "end_time": 0.25,
                "pitch": 24,
                "velocity": 64,
                "duration": 0.1840909,
                "tempo": 120.0
            },
            {
                "start_time": 0.2659091,
                "end_time": 0.35,
                "pitch": 24,
                "velocity": 64,
                "duration": 0.0840909,
                "tempo": 120.0
            },
            {
                "start_time": 0.3659091,
                "end_time": 0.45,
                "pitch": 24,
                "velocity": 64,
                "duration": 0.0840909,
                "tempo": 120.0
            },
            {
                "start_time": 0.4659091,
                "end_time": 0.65,
                "pitch": 36,
                "velocity": 64,
                "duration": 0.1840909,
                "tempo": 120.0
            },
            {
                "start_time": 0.6659091,
                "end_time": 0.75,
                "pitch": 36,
                "velocity": 64,
                "duration": 0.0840909,
                "tempo": 120.0
            },
            {
                "start_time": 0.7659091,
                "end_time": 0.85,
                "pitch": 36,
                "velocity": 64,
                "duration": 0.0840909,
                "tempo": 120.0
            },
            {
                "start_time": 0.8659091,
                "end_time": 1.05,
                "pitch": 24,
                "velocity": 64,
                "duration": 0.1840909,
                "tempo": 120.0
            },
            {
                "start_time": 1.0659091,
                "end_time": 1.15,
                "pitch": 24,
                "velocity": 64,
                "duration": 0.0840909,
                "tempo": 120.0
            },
            {
                "start_time": 1.1659091,
                "end_time": 1.25,
                "pitch": 24,
                "velocity": 64,
                "duration": 0.0840909,
                "tempo": 120.0
            },
            {
                "start_time": 1.2659091,
                "end_time": 1.45,
                "pitch": 36,
                "velocity": 64,
                "duration": 0.1840909,
                "tempo": 120.0
            },
            {
                "start_time": 1.4659091,
                "end_time": 1.55,
                "pitch": 36,
                "velocity": 64,
                "duration": 0.0840909,
                "tempo": 120.0
            },
            {
                "start_time": 1.5659091,
                "end_time": 1.65,
                "pitch": 36,
                "velocity": 64,
                "duration": 0.0840909,
                "tempo": 120.0
            },
            {
                "start_time": 1.6681818,
                "end_time": 1.8522727,
                "pitch": 24,
                "velocity": 64,
                "duration": 0.1840909,
                "tempo": 120.0
            },
            {
                "start_time": 1.8681818,
                "end_time": 1.9522727,
                "pitch": 24,
                "velocity": 64,
                "duration": 0.0840909,
                "tempo": 120.0
            },
            {
                "start_time": 1.9681818,
                "end_time": 2.0522727,
                "pitch": 24,
                "velocity": 64,
                "duration": 0.0840909,
                "tempo": 120.0
            },
            {
                "start_time": 2.0704545,
                "end_time": 2.2522727,
                "pitch": 36,
                "velocity": 64,
                "duration": 0.1818182,
                "tempo": 120.0
            },
            {
                "start_time": 2.2704545,
                "end_time": 2.3522727,
                "pitch": 36,
                "velocity": 64,
                "duration": 0.0818182,
                "tempo": 120.0
            },
            {
                "start_time": 2.3704545,
                "end_time": 2.4522727,
                "pitch": 36,
                "velocity": 64,
                "duration": 0.0818182,
                "tempo": 120.0
            },
            {
                "start_time": 2.4704545,
                "end_time": 2.6522727,
                "pitch": 24,
                "velocity": 64,
                "duration": 0.1818182,
                "tempo": 120.0
            },
            {
                "start_time": 2.6704545,
                "end_time": 2.7522727,
                "pitch": 24,
                "velocity": 64,
                "duration": 0.0818182,
                "tempo": 120.0
            },
            {
                "start_time": 2.7704545,
                "end_time": 2.8522727,
                "pitch": 24,
                "velocity": 64,
                "duration": 0.0818182,
                "tempo": 120.0
            },
            {
                "start_time": 2.8704545,
                "end_time": 3.0522727,
                "pitch": 36,
                "velocity": 64,
                "duration": 0.1818182,
                "tempo": 120.0
            },
            {
                "start_time": 3.0704545,
                "end_time": 3.1522727,
                "pitch": 36,
                "velocity": 64,
                "duration": 0.0818182,
                "tempo": 120.0
            },
            {
                "start_time": 3.1704545,
                "end_time": 3.2522727,
                "pitch": 36,
                "velocity": 64,
                "duration": 0.0818182,
                "tempo": 120.0
            },
            {
                "start_time": 3.2704545,
                "end_time": 3.4545455,
                "pitch": 25,
                "velocity": 64,
                "duration": 0.1840909,
                "tempo": 120.0
            },
            {
                "start_time": 3.4704545,
                "end_time": 3.5545455,
                "pitch": 25,
                "velocity": 64,
                "duration": 0.0840909,
                "tempo": 120.0
            },
            {
                "start_time": 3.5727273,
                "end_time": 3.6545455,
                "pitch": 25,
                "velocity": 64,
                "duration": 0.0818182,
                "tempo": 120.0
            },
            {
                "start_time": 3.6727273,
                "end_time": 3.8545455,
                "pitch": 37,
                "velocity": 64,
                "duration": 0.1818182,
                "tempo": 120.0
            },
            {
                "start_time": 3.8727273,
                "end_time": 3.9545455,
                "pitch": 37,
                "velocity": 64,
                "duration": 0.0818182,
                "tempo": 120.0
            },
            {
                "start_time": 3.9727273,
                "end_time": 4.0545455,
                "pitch": 37,
                "velocity": 64,
                "duration": 0.0818182,
                "tempo": 120.0
            },
            {
                "start_time": 4.0727273,
                "end_time": 4.2545455,
                "pitch": 25,
                "velocity": 64,
                "duration": 0.1818182,
                "tempo": 120.0
            },
            {
                "start_time": 4.2727273,
                "end_time": 4.3545455,
                "pitch": 25,
                "velocity": 64,
                "duration": 0.0818182,
                "tempo": 120.0
            },
            {
                "start_time": 4.3727273,
                "end_time": 4.4568182,
                "pitch": 25,
                "velocity": 64,
                "duration": 0.0840909,
                "tempo": 120.0
            },
            {
                "start_time": 4.4727273,
                "end_time": 4.6568182,
                "pitch": 37,
                "velocity": 64,
                "duration": 0.1840909,
                "tempo": 120.0
            },
            {
                "start_time": 4.6727273,
                "end_time": 4.7568182,
                "pitch": 37,
                "velocity": 64,
                "duration": 0.0840909,
                "tempo": 120.0
            },
            {
                "start_time": 4.775,
                "end_time": 4.8590909,
                "pitch": 37,
                "velocity": 64,
                "duration": 0.0840909,
                "tempo": 120.0
            },
            {
                "start_time": 4.875,
                "end_time": 5.0590909,
                "pitch": 25,
                "velocity": 64,
                "duration": 0.1840909,
                "tempo": 120.0
            },
            {
                "start_time": 5.075,
                "end_time": 5.1590909,
                "pitch": 25,
                "velocity": 64,
                "duration": 0.0840909,
                "tempo": 120.0
            },
            {
                "start_time": 5.175,
                "end_time": 5.2590909,
                "pitch": 25,
                "velocity": 64,
                "duration": 0.0840909,
                "tempo": 120.0
            },
            {
                "start_time": 5.275,
                "end_time": 5.4590909,
                "pitch": 37,
                "velocity": 64,
                "duration": 0.1840909,
                "tempo": 120.0
            },
            {
                "start_time": 5.4772727,
                "end_time": 5.5613636,
                "pitch": 37,
                "velocity": 64,
                "duration": 0.0840909,
                "tempo": 120.0
            },
            {
                "start_time": 5.5772727,
                "end_time": 5.6613636,
                "pitch": 37,
                "velocity": 64,
                "duration": 0.0840909,
                "tempo": 120.0
            },
            {
                "start_time": 5.6772727,
                "end_time": 5.8613636,
                "pitch": 25,
                "velocity": 64,
                "duration": 0.1840909,
                "tempo": 120.0
            },
            {
                "start_time": 5.8772727,
                "end_time": 5.9613636,
                "pitch": 25,
                "velocity": 64,
                "duration": 0.0840909,
                "tempo": 120.0
            },
            {
                "start_time": 5.9772727,
                "end_time": 6.0613636,
                "pitch": 25,
                "velocity": 64,
                "duration": 0.0840909,
                "tempo": 120.0
            },
            {
                "start_time": 6.0772727,
                "end_time": 6.2613636,
                "pitch": 37,
                "velocity": 64,
                "duration": 0.1840909,
                "tempo": 120.0
            },
            {
                "start_time": 6.2795455,
                "end_time": 6.3636364,
                "pitch": 37,
                "velocity": 64,
                "duration": 0.0840909,
                "tempo": 120.0
            },
            {
                "start_time": 6.3795455,
                "end_time": 6.4636364,
                "pitch": 37,
                "velocity": 64,
                "duration": 0.0840909,
                "tempo": 120.0
            },
            {
                "start_time": 6.4795455,
                "end_time": 6.6659091,
                "pitch": 24,
                "velocity": 64,
                "duration": 0.1863636,
                "tempo": 120.0
            },
            {
                "start_time": 6.6818182,
                "end_time": 6.7659091,
                "pitch": 24,
                "velocity": 64,
                "duration": 0.0840909,
                "tempo": 120.0
            },
            {
                "start_time": 6.7818182,
                "end_time": 6.8659091,
                "pitch": 24,
                "velocity": 64,
                "duration": 0.0840909,
                "tempo": 120.0
            },
            {
                "start_time": 6.8818182,
                "end_time": 7.0659091,
                "pitch": 36,
                "velocity": 64,
                "duration": 0.1840909,
                "tempo": 120.0
            },
            {
                "start_time": 7.0818182,
                "end_time": 7.1659091,
                "pitch": 36,
                "velocity": 64,
                "duration": 0.0840909,
                "tempo": 120.0
            },
            {
                "start_time": 7.1818182,
                "end_time": 7.2659091,
                "pitch": 36,
                "velocity": 64,
                "duration": 0.0840909,
                "tempo": 120.0
            },
            {
                "start_time": 7.2840909,
                "end_time": 7.4681818,
                "pitch": 24,
                "velocity": 64,
                "duration": 0.1840909,
                "tempo": 120.0
            },
            {
                "start_time": 7.4840909,
                "end_time": 7.5681818,
                "pitch": 24,
                "velocity": 64,
                "duration": 0.0840909,
                "tempo": 120.0
            },
            {
                "start_time": 7.5863636,
                "end_time": 7.6681818,
                "pitch": 24,
                "velocity": 64,
                "duration": 0.0818182,
                "tempo": 120.0
            },
            {
                "start_time": 7.6863636,
                "end_time": 7.8681818,
                "pitch": 36,
                "velocity": 64,
                "duration": 0.1818182,
                "tempo": 120.0
            },
            {
                "start_time": 7.8863636,
                "end_time": 7.9681818,
                "pitch": 36,
                "velocity": 64,
                "duration": 0.0818182,
                "tempo": 120.0
            },
            {
                "start_time": 7.9863636,
                "end_time": 8.0681818,
                "pitch": 36,
                "velocity": 64,
                "duration": 0.0818182,
                "tempo": 120.0
            },
            {
                "start_time": 8.0863636,
                "end_time": 8.2704545,
                "pitch": 24,
                "velocity": 64,
                "duration": 0.1840909,
                "tempo": 120.0
            },
            {
                "start_time": 8.2863636,
                "end_time": 8.3704545,
                "pitch": 24,
                "velocity": 64,
                "duration": 0.0840909,
                "tempo": 120.0
            },
            {
                "start_time": 8.3886364,
                "end_time": 8.4727273,
                "pitch": 24,
                "velocity": 64,
                "duration": 0.0840909,
                "tempo": 120.0
            },
            {
                "start_time": 8.4886364,
                "end_time": 8.6727273,
                "pitch": 36,
                "velocity": 64,
                "duration": 0.1840909,
                "tempo": 120.0
            },
            {
                "start_time": 8.6909091,
                "end_time": 8.7727273,
                "pitch": 36,
                "velocity": 64,
                "duration": 0.0818182,
                "tempo": 120.0
            },
            {
                "start_time": 8.7909091,
                "end_time": 8.875,
                "pitch": 36,
                "velocity": 64,
                "duration": 0.0840909,
                "tempo": 120.0
            },
            {
                "start_time": 8.8909091,
                "end_time": 9.075,
                "pitch": 24,
                "velocity": 64,
                "duration": 0.1840909,
                "tempo": 120.0
            },
            {
                "start_time": 9.0931818,
                "end_time": 9.1772727,
                "pitch": 24,
                "velocity": 64,
                "duration": 0.0840909,
                "tempo": 120.0
            },
            {
                "start_time": 9.1931818,
                "end_time": 9.2772727,
                "pitch": 24,
                "velocity": 64,
                "duration": 0.0840909,
                "tempo": 120.0
            },
            {
                "start_time": 9.2931818,
                "end_time": 9.4772727,
                "pitch": 36,
                "velocity": 64,
                "duration": 0.1840909,
                "tempo": 120.0
            },
            {
                "start_time": 9.4931818,
                "end_time": 9.5772727,
                "pitch": 36,
                "velocity": 64,
                "duration": 0.0840909,
                "tempo": 120.0
            },
            {
                "start_time": 9.5931818,
                "end_time": 9.6772727,
                "pitch": 36,
                "velocity": 64,
                "duration": 0.0840909,
                "tempo": 120.0
            },
            {
                "start_time": 9.6931818,
                "end_time": 9.8795455,
                "pitch": 25,
                "velocity": 64,
                "duration": 0.1863636,
                "tempo": 120.0
            },
            {
                "start_time": 9.8954545,
                "end_time": 9.9795455,
                "pitch": 25,
                "velocity": 64,
                "duration": 0.0840909,
                "tempo": 120.0
            },
            {
                "start_time": 9.9954545,
                "end_time": 10.0795455,
                "pitch": 25,
                "velocity": 64,
                "duration": 0.0840909,
                "tempo": 120.0
            },
            {
                "start_time": 10.0977273,
                "end_time": 10.2818182,
                "pitch": 37,
                "velocity": 64,
                "duration": 0.1840909,
                "tempo": 120.0
            },
            {
                "start_time": 10.2977273,
                "end_time": 10.3818182,
                "pitch": 37,
                "velocity": 64,
                "duration": 0.0840909,
                "tempo": 120.0
            },
            {
                "start_time": 10.3977273,
                "end_time": 10.4818182,
                "pitch": 37,
                "velocity": 64,
                "duration": 0.0840909,
                "tempo": 120.0
            },
            {
                "start_time": 10.5,
                "end_time": 10.6840909,
                "pitch": 25,
                "velocity": 64,
                "duration": 0.1840909,
                "tempo": 120.0
            },
            {
                "start_time": 10.7,
                "end_time": 10.7840909,
                "pitch": 25,
                "velocity": 64,
                "duration": 0.0840909,
                "tempo": 120.0
            },
            {
                "start_time": 10.8022727,
                "end_time": 10.8863636,
                "pitch": 25,
                "velocity": 64,
                "duration": 0.0840909,
                "tempo": 120.0
            },
            {
                "start_time": 10.9022727,
                "end_time": 11.0863636,
                "pitch": 37,
                "velocity": 64,
                "duration": 0.1840909,
                "tempo": 120.0
            },
            {
                "start_time": 11.1022727,
                "end_time": 11.1863636,
                "pitch": 37,
                "velocity": 64,
                "duration": 0.0840909,
                "tempo": 120.0
            },
            {
                "start_time": 11.2045455,
                "end_time": 11.2886364,
                "pitch": 37,
                "velocity": 64,
                "duration": 0.0840909,
                "tempo": 120.0
            },
            {
                "start_time": 11.3045455,
                "end_time": 11.4886364,
                "pitch": 25,
                "velocity": 64,
                "duration": 0.1840909,
                "tempo": 120.0
            },
            {
                "start_time": 11.5045455,
                "end_time": 11.5886364,
                "pitch": 25,
                "velocity": 64,
                "duration": 0.0840909,
                "tempo": 120.0
            },
            {
                "start_time": 11.6045455,
                "end_time": 11.6886364,
                "pitch": 25,
                "velocity": 64,
                "duration": 0.0840909,
                "tempo": 120.0
            },
            {
                "start_time": 11.7045455,
                "end_time": 11.8886364,
                "pitch": 37,
                "velocity": 64,
                "duration": 0.1840909,
                "tempo": 120.0
            },
            {
                "start_time": 11.9068182,
                "end_time": 11.9909091,
                "pitch": 37,
                "velocity": 64,
                "duration": 0.0840909,
                "tempo": 120.0
            },
            {
                "start_time": 12.0068182,
                "end_time": 12.0909091,
                "pitch": 37,
                "velocity": 64,
                "duration": 0.0840909,
                "tempo": 120.0
            },
            {
                "start_time": 12.1068182,
                "end_time": 12.2909091,
                "pitch": 25,
                "velocity": 64,
                "duration": 0.1840909,
                "tempo": 120.0
            },
            {
                "start_time": 12.3090909,
                "end_time": 12.3931818,
                "pitch": 25,
                "velocity": 64,
                "duration": 0.0840909,
                "tempo": 120.0
            },
            {
                "start_time": 12.4090909,
                "end_time": 12.4931818,
                "pitch": 25,
                "velocity": 64,
                "duration": 0.0840909,
                "tempo": 120.0
            },
            {
                "start_time": 12.5090909,
                "end_time": 12.6954545,
                "pitch": 37,
                "velocity": 64,
                "duration": 0.1863636,
                "tempo": 120.0
            },
            {
                "start_time": 12.7113636,
                "end_time": 12.7954545,
                "pitch": 37,
                "velocity": 64,
                "duration": 0.0840909,
                "tempo": 120.0
            },
            {
                "start_time": 12.8113636,
                "end_time": 12.8954545,
                "pitch": 37,
                "velocity": 64,
                "duration": 0.0840909,
                "tempo": 120.0
            },
            {
                "start_time": 12.9136364,
                "end_time": 13.0977273,
                "pitch": 60,
                "velocity": 64,
                "duration": 0.1840909,
                "tempo": 120.0
            },
            {
                "start_time": 13.1136364,
                "end_time": 13.2977273,
                "pitch": 63,
                "velocity": 64,
                "duration": 0.1840909,
                "tempo": 120.0
            },
            {
                "start_time": 13.3159091,
                "end_time": 13.4977273,
                "pitch": 67,
                "velocity": 64,
                "duration": 0.1818182,
                "tempo": 120.0
            },
            {
                "start_time": 13.5159091,
                "end_time": 13.6977273,
                "pitch": 70,
                "velocity": 64,
                "duration": 0.1818182,
                "tempo": 120.0
            },
            {
                "start_time": 13.7159091,
                "end_time": 13.9,
                "pitch": 58,
                "velocity": 64,
                "duration": 0.1840909,
                "tempo": 120.0
            },
            {
                "start_time": 13.9159091,
                "end_time": 14.1022727,
                "pitch": 61,
                "velocity": 64,
                "duration": 0.1863636,
                "tempo": 120.0
            },
            {
                "start_time": 14.1181818,
                "end_time": 14.3022727,
                "pitch": 65,
                "velocity": 64,
                "duration": 0.1840909,
                "tempo": 120.0
            },
            {
                "start_time": 14.3204545,
                "end_time": 14.5045455,
                "pitch": 68,
                "velocity": 64,
                "duration": 0.1840909,
                "tempo": 120.0
            },
            {
                "start_time": 14.5204545,
                "end_time": 14.7045455,
                "pitch": 55,
                "velocity": 64,
                "duration": 0.1840909,
                "tempo": 120.0
            },
            {
                "start_time": 14.7227273,
                "end_time": 14.9068182,
                "pitch": 58,
                "velocity": 64,
                "duration": 0.1840909,
                "tempo": 120.0
            },
            {
                "start_time": 14.9227273,
                "end_time": 15.1090909,
                "pitch": 61,
                "velocity": 64,
                "duration": 0.1863636,
                "tempo": 120.0
            },
            {
                "start_time": 15.125,
                "end_time": 15.3068182,
                "pitch": 65,
                "velocity": 64,
                "duration": 0.1818182,
                "tempo": 120.0
            },
            {
                "start_time": 15.325,
                "end_time": 15.5045455,
                "pitch": 56,
                "velocity": 64,
                "duration": 0.1795455,
                "tempo": 120.0
            },
            {
                "start_time": 15.5204545,
                "end_time": 15.7022727,
                "pitch": 60,
                "velocity": 64,
                "duration": 0.1818182,
                "tempo": 120.0
            },
            {
                "start_time": 15.7181818,
                "end_time": 15.9022727,
                "pitch": 63,
                "velocity": 64,
                "duration": 0.1840909,
                "tempo": 120.0
            },
            {
                "start_time": 15.9204545,
                "end_time": 16.1045455,
                "pitch": 67,
                "velocity": 64,
                "duration": 0.1840909,
                "tempo": 120.0
            },
            {
                "start_time": 16.1227273,
                "end_time": 16.3113636,
                "pitch": 60,
                "velocity": 64,
                "duration": 0.1886364,
                "tempo": 120.0
            },
            {
                "start_time": 16.3272727,
                "end_time": 16.5136364,
                "pitch": 63,
                "velocity": 64,
                "duration": 0.1863636,
                "tempo": 120.0
            },
            {
                "start_time": 16.5295455,
                "end_time": 16.7090909,
                "pitch": 67,
                "velocity": 64,
                "duration": 0.1795455,
                "tempo": 120.0
            },
            {
                "start_time": 16.725,
                "end_time": 16.9068182,
                "pitch": 70,
                "velocity": 64,
                "duration": 0.1818182,
                "tempo": 120.0
            },
            {
                "start_time": 16.9227273,
                "end_time": 17.1068182,
                "pitch": 58,
                "velocity": 64,
                "duration": 0.1840909,
                "tempo": 120.0
            },
            {
                "start_time": 17.1227273,
                "end_time": 17.3068182,
                "pitch": 61,
                "velocity": 64,
                "duration": 0.1840909,
                "tempo": 120.0
            },
            {
                "start_time": 17.325,
                "end_time": 17.5090909,
                "pitch": 65,
                "velocity": 64,
                "duration": 0.1840909,
                "tempo": 120.0
            },
            {
                "start_time": 17.525,
                "end_time": 17.7090909,
                "pitch": 68,
                "velocity": 64,
                "duration": 0.1840909,
                "tempo": 120.0
            },
            {
                "start_time": 17.725,
                "end_time": 17.9090909,
                "pitch": 55,
                "velocity": 64,
                "duration": 0.1840909,
                "tempo": 120.0
            },
            {
                "start_time": 17.925,
                "end_time": 18.1090909,
                "pitch": 58,
                "velocity": 64,
                "duration": 0.1840909,
                "tempo": 120.0
            },
            {
                "start_time": 18.125,
                "end_time": 18.3090909,
                "pitch": 61,
                "velocity": 64,
                "duration": 0.1840909,
                "tempo": 120.0
            },
            {
                "start_time": 18.325,
                "end_time": 18.5090909,
                "pitch": 65,
                "velocity": 64,
                "duration": 0.1840909,
                "tempo": 120.0
            },
            {
                "start_time": 18.5272727,
                "end_time": 18.7113636,
                "pitch": 56,
                "velocity": 64,
                "duration": 0.1840909,
                "tempo": 120.0
            },
            {
                "start_time": 18.7272727,
                "end_time": 18.9113636,
                "pitch": 60,
                "velocity": 64,
                "duration": 0.1840909,
                "tempo": 120.0
            },
            {
                "start_time": 18.9295455,
                "end_time": 19.1113636,
                "pitch": 63,
                "velocity": 64,
                "duration": 0.1818182,
                "tempo": 120.0
            },
            {
                "start_time": 19.1295455,
                "end_time": 19.3136364,
                "pitch": 67,
                "velocity": 64,
                "duration": 0.1840909,
                "tempo": 120.0
            },
            {
                "start_time": 19.3295455,
                "end_time": 19.5136364,
                "pitch": 60,
                "velocity": 64,
                "duration": 0.1840909,
                "tempo": 120.0
            },
            {
                "start_time": 19.5295455,
                "end_time": 19.7159091,
                "pitch": 63,
                "velocity": 64,
                "duration": 0.1863636,
                "tempo": 120.0
            },
            {
                "start_time": 19.7318182,
                "end_time": 19.9159091,
                "pitch": 67,
                "velocity": 64,
                "duration": 0.1840909,
                "tempo": 120.0
            },
            {
                "start_time": 19.9318182,
                "end_time": 20.1159091,
                "pitch": 70,
                "velocity": 64,
                "duration": 0.1840909,
                "tempo": 120.0
            },
            {
                "start_time": 20.1318182,
                "end_time": 20.3159091,
                "pitch": 58,
                "velocity": 64,
                "duration": 0.1840909,
                "tempo": 120.0
            },
            {
                "start_time": 20.3318182,
                "end_time": 20.5159091,
                "pitch": 61,
                "velocity": 64,
                "duration": 0.1840909,
                "tempo": 120.0
            },
            {
                "start_time": 20.5318182,
                "end_time": 20.7159091,
                "pitch": 65,
                "velocity": 64,
                "duration": 0.1840909,
                "tempo": 120.0
            },
            {
                "start_time": 20.7340909,
                "end_time": 20.9181818,
                "pitch": 68,
                "velocity": 64,
                "duration": 0.1840909,
                "tempo": 120.0
            },
            {
                "start_time": 20.9363636,
                "end_time": 21.125,
                "pitch": 55,
                "velocity": 64,
                "duration": 0.1886364,
                "tempo": 120.0
            },
            {
                "start_time": 21.1409091,
                "end_time": 21.3272727,
                "pitch": 58,
                "velocity": 64,
                "duration": 0.1863636,
                "tempo": 120.0
            },
            {
                "start_time": 21.3431818,
                "end_time": 21.5227273,
                "pitch": 61,
                "velocity": 64,
                "duration": 0.1795455,
                "tempo": 120.0
            },
            {
                "start_time": 21.5386364,
                "end_time": 21.7204545,
                "pitch": 65,
                "velocity": 64,
                "duration": 0.1818182,
                "tempo": 120.0
            },
            {
                "start_time": 21.7363636,
                "end_time": 21.9204545,
                "pitch": 56,
                "velocity": 64,
                "duration": 0.1840909,
                "tempo": 120.0
            },
            {
                "start_time": 21.9363636,
                "end_time": 22.1204545,
                "pitch": 60,
                "velocity": 64,
                "duration": 0.1840909,
                "tempo": 120.0
            },
            {
                "start_time": 22.1363636,
                "end_time": 22.3204545,
                "pitch": 63,
                "velocity": 64,
                "duration": 0.1840909,
                "tempo": 120.0
            },
            {
                "start_time": 22.3363636,
                "end_time": 22.5227273,
                "pitch": 67,
                "velocity": 64,
                "duration": 0.1863636,
                "tempo": 120.0
            },
            {
                "start_time": 22.5386364,
                "end_time": 22.7272727,
                "pitch": 60,
                "velocity": 64,
                "duration": 0.1886364,
                "tempo": 120.0
            },
            {
                "start_time": 22.7454545,
                "end_time": 22.9295455,
                "pitch": 63,
                "velocity": 64,
                "duration": 0.1840909,
                "tempo": 120.0
            },
            {
                "start_time": 22.9454545,
                "end_time": 23.125,
                "pitch": 67,
                "velocity": 64,
                "duration": 0.1795455,
                "tempo": 120.0
            },
            {
                "start_time": 23.1431818,
                "end_time": 23.3227273,
                "pitch": 70,
                "velocity": 64,
                "duration": 0.1795455,
                "tempo": 120.0
            },
            {
                "start_time": 23.3409091,
                "end_time": 23.525,
                "pitch": 58,
                "velocity": 64,
                "duration": 0.1840909,
                "tempo": 120.0
            },
            {
                "start_time": 23.5409091,
                "end_time": 23.7272727,
                "pitch": 61,
                "velocity": 64,
                "duration": 0.1863636,
                "tempo": 120.0
            },
            {
                "start_time": 23.7454545,
                "end_time": 23.9318182,
                "pitch": 65,
                "velocity": 64,
                "duration": 0.1863636,
                "tempo": 120.0
            },
            {
                "start_time": 23.95,
                "end_time": 24.1363636,
                "pitch": 68,
                "velocity": 64,
                "duration": 0.1863636,
                "tempo": 120.0
            },
            {
                "start_time": 24.1522727,
                "end_time": 24.3318182,
                "pitch": 55,
                "velocity": 64,
                "duration": 0.1795455,
                "tempo": 120.0
            },
            {
                "start_time": 24.3477273,
                "end_time": 24.5295455,
                "pitch": 58,
                "velocity": 64,
                "duration": 0.1818182,
                "tempo": 120.0
            },
            {
                "start_time": 24.5477273,
                "end_time": 24.7363636,
                "pitch": 61,
                "velocity": 64,
                "duration": 0.1886364,
                "tempo": 120.0
            },
            {
                "start_time": 24.7522727,
                "end_time": 24.9386364,
                "pitch": 65,
                "velocity": 64,
                "duration": 0.1863636,
                "tempo": 120.0
            },
            {
                "start_time": 24.9545455,
                "end_time": 25.1340909,
                "pitch": 56,
                "velocity": 64,
                "duration": 0.1795455,
                "tempo": 120.0
            },
            {
                "start_time": 25.15,
                "end_time": 25.3318182,
                "pitch": 60,
                "velocity": 64,
                "duration": 0.1818182,
                "tempo": 120.0
            },
            {
                "start_time": 25.3477273,
                "end_time": 25.5340909,
                "pitch": 63,
                "velocity": 64,
                "duration": 0.1863636,
                "tempo": 120.0
            },
            {
                "start_time": 25.55,
                "end_time": 25.6840909,
                "pitch": 67,
                "velocity": 64,
                "duration": 0.1340909,
                "tempo": 120.0
            }
        ]
    }
}