{
    "mood": "angry",
    "instruments": {
        "Electric Guitar (clean)": [
            {
                "start_time": 0.0,
                "end_time": 0.1886364,
                "pitch": 28,
                "velocity": 64,
                "duration": 0.1886364,
                "tempo": 120.0
            },
            {
                "start_time": 0.2,
                "end_time": 0.2886364,
                "pitch": 40,
                "velocity": 64,
                "duration": 0.0886364,
                "tempo": 120.0
            },
            {
                "start_time": 0.3,
                "end_time": 0.3886364,
                "pitch": 40,
                "velocity": 64,
                "duration": 0.0886364,
                "tempo": 120.0
            },
            {
                "start_time": 0.4,
                "end_time": 0.6840909,
                "pitch": 28,
                "velocity": 64,
                "duration": 0.2840909,
                "tempo": 120.0
            },
            {
                "start_time": 0.7,
                "end_time": 0.8340909,
                "pitch": 40,
                "velocity": 64,
                "duration": 0.1340909,
                "tempo": 120.0
            },
            {
                "start_time": 0.85,
                "end_time": 0.9840909,
                "pitch": 40,
                "velocity": 64,
                "duration": 0.1340909,
                "tempo": 120.0
            },
            {
                "start_time": 1.0,
                "end_time": 1.1340909,
                "pitch": 40,
                "velocity": 64,
                "duration": 0.1340909,
                "tempo": 120.0
            },
            {
                "start_time": 1.15,
                "end_time": 1.2840909,
                "pitch": 40,
                "velocity": 64,
                "duration": 0.1340909,
                "tempo": 120.0
            },
            {
                "start_time": 1.3,
                "end_time": 1.5840909,
                "pitch": 38,
                "velocity": 64,
                "duration": 0.2840909,
                "tempo": 120.0
            },
            {
                "start_time": 1.6,
                "end_time": 1.8863636,
                "pitch": 35,
                "velocity": 64,
                "duration": 0.2863636,
                "tempo": 120.0
            },
            {
                "start_time": 1.9022727,
                "end_time": 2.1886364,
                "pitch": 33,
                "velocity": 64,
                "duration": 0.2863636,
                "tempo": 120.0
            },
            {
                "start_time": 2.2068182,
                "end_time": 2.4886364,
                "pitch": 28,
                "velocity": 64,
                "duration": 0.2818182,
                "tempo": 120.0
            },
            {
                "start_time": 2.5068182,
                "end_time": 2.6386364,
                "pitch": 40,
                "velocity": 64,
                "duration": 0.1318182,
                "tempo": 120.0
            },
            {
                "start_time": 2.6568182,
                "end_time": 2.7886364,
                "pitch": 40,
                "velocity": 64,
                "duration": 0.1318182,
                "tempo": 120.0
            },
            {
                "start_time": 2.8068182,
                "end_time": 3.0931818,
                "pitch": 28,
                "velocity": 64,
                "duration": 0.2863636,
                "tempo": 120.0
            },
            {
                "start_time": 3.1090909,
                "end_time": 3.2431818,
                "pitch": 28,
                "velocity": 64,
                "duration": 0.1340909,
                "tempo": 120.0
            },
            {
                "start_time": 3.2613636,
                "end_time": 3.3954545,
                "pitch": 28,
                "velocity": 64,
                "duration": 0.1340909,
                "tempo": 120.0
            },
            {
                "start_time": 3.4113636,
                "end_time": 3.5477273,
                "pitch": 41,
                "velocity": 64,
                "duration": 0.1363636,
                "tempo": 120.0
            },
            {
                "start_time": 3.5636364,
                "end_time": 3.6977273,
                "pitch": 45,
                "velocity": 64,
                "duration": 0.1340909,
                "tempo": 120.0
            },
            {
                "start_time": 3.7159091,
                "end_time": 3.85,
                "pitch": 47,
                "velocity": 64,
                "duration": 0.1340909,
                "tempo": 120.0
            },
            {
                "start_time": 3.8659091,
                "end_time": 4.0022727,
                "pitch": 50,
                "velocity": 64,
                "duration": 0.1363636,
                "tempo": 120.0
            },
            {
                "start_time": 4.0181818,
                "end_time": 4.1522727,
                "pitch": 52,
                "velocity": 64,
                "duration": 0.1340909,
                "tempo": 120.0
            },
            {
                "start_time": 4.1704545,
                "end_time": 4.3045455,
                "pitch": 50,
                "velocity": 64,
                "duration": 0.1340909,
                "tempo": 120.0
            },
            {
                "start_time": 4.3204545,
                "end_time": 4.4568182,
                "pitch": 47,
                "velocity": 64,
                "duration": 0.1363636,
                "tempo": 120.0
            },
            {
                "start_time": 4.4727273,
                "end_time": 4.6068182,
                "pitch": 45,
                "velocity": 64,
                "duration": 0.1340909,
                "tempo": 120.0
            },
            {
                "start_time": 4.625,
                "end_time": 4.9068182,
                "pitch": 28,
                "velocity": 64,
                "duration": 0.2818182,
                "tempo": 120.0
            },
            {
                "start_time": 4.925,
                "end_time": 5.0568182,
                "pitch": 40,
                "velocity": 64,
                "duration": 0.1318182,
                "tempo": 120.0
            },
            {
                "start_time": 5.075,
                "end_time": 5.2068182,
                "pitch": 40,
                "velocity": 64,
                "duration": 0.1318182,
                "tempo": 120.0
            },
            {
                "start_time": 5.225,
                "end_time": 5.5113636,
                "pitch": 28,
                "velocity": 64,
                "duration": 0.2863636,
                "tempo": 120.0
            },
            {
                "start_time": 5.5272727,
                "end_time": 5.6613636,
                "pitch": 40,
                "velocity": 64,
                "duration": 0.1340909,
                "tempo": 120.0
            },
            {
                "start_time": 5.6795455,
                "end_time": 5.8136364,
                "pitch": 40,
                "velocity": 64,
                "duration": 0.1340909,
                "tempo": 120.0
            },
            {
                "start_time": 5.8295455,
                "end_time": 5.9636364,
                "pitch": 40,
                "velocity": 64,
                "duration": 0.1340909,
                "tempo": 120.0
            },
            {
                "start_time": 5.9795455,
                "end_time": 6.1136364,
                "pitch": 40,
                "velocity": 64,
                "duration": 0.1340909,
                "tempo": 120.0
            },
            {
                "start_time": 6.1295455,
                "end_time": 6.4136364,
                "pitch": 38,
                "velocity": 64,
                "duration": 0.2840909,
                "tempo": 120.0
            },
            {
                "start_time": 6.4295455,
                "end_time": 6.7136364,
                "pitch": 35,
                "velocity": 64,
                "duration": 0.2840909,
                "tempo": 120.0
            },
            {
                "start_time": 6.7295455,
                "end_time": 7.0136364,
                "pitch": 33,
                "velocity": 64,
                "duration": 0.2840909,
                "tempo": 120.0
            },
            {
                "start_time": 7.0295455,
                "end_time": 7.3159091,
                "pitch": 28,
                "velocity": 64,
                "duration": 0.2863636,
                "tempo": 120.0
            },
            {
                "start_time": 7.3340909,
                "end_time": 7.4681818,
                "pitch": 40,
                "velocity": 64,
                "duration": 0.1340909,
                "tempo": 120.0
            },
            {
                "start_time": 7.4840909,
                "end_time": 7.6204545,
                "pitch": 40,
                "velocity": 64,
                "duration": 0.1363636,
                "tempo": 120.0
            },
            {
                "start_time": 7.6363636,
                "end_time": 7.9204545,
                "pitch": 28,
                "velocity": 64,
                "duration": 0.2840909,
                "tempo": 120.0
            },
            {
                "start_time": 7.9363636,
                "end_time": 8.0704545,
                "pitch": 28,
                "velocity": 64,
                "duration": 0.1340909,
                "tempo": 120.0
            },
            {
                "start_time": 8.0863636,
                "end_time": 8.2204545,
                "pitch": 28,
                "velocity": 64,
                "duration": 0.1340909,
                "tempo": 120.0
            },
            {
                "start_time": 8.2363636,
                "end_time": 8.3704545,
                "pitch": 41,
                "velocity": 64,
                "duration": 0.1340909,
                "tempo": 120.0
            },
            {
                "start_time": 8.3886364,
                "end_time": 8.5227273,
                "pitch": 45,
                "velocity": 64,
                "duration": 0.1340909,
                "tempo": 120.0
            },
            {
                "start_time": 8.5386364,
                "end_time": 8.675,
                "pitch": 47,
                "velocity": 64,
                "duration": 0.1363636,
                "tempo": 120.0
            },
            {
                "start_time": 8.6909091,
                "end_time": 8.825,
                "pitch": 50,
                "velocity": 64,
                "duration": 0.1340909,
                "tempo": 120.0
            },
            {
                "start_time": 8.8431818,
                "end_time": 8.975,
                "pitch": 52,
                "velocity": 64,
                "duration": 0.1318182,
                "tempo": 120.0
            },
            {
                "start_time": 8.9931818,
                "end_time": 9.125,
                "pitch": 50,
                "velocity": 64,
                "duration": 0.1318182,
                "tempo": 120.0
            },
            {
                "start_time": 9.1431818,
                "end_time": 9.275,
                "pitch": 47,
                "velocity": 64,
                "duration": 0.1318182,
                "tempo": 120.0
            },
            {
                "start_time": 9.2931818,
                "end_time": 9.425,
                "pitch": 45,
                "velocity": 64,
                "duration": 0.1318182,
                "tempo": 120.0
            },
            {
                "start_time": 9.4431818,
                "end_time": 9.725,
                "pitch": 30,
                "velocity": 64,
                "duration": 0.2818182,
                "tempo": 120.0
            },
            {
                "start_time": 9.7431818,
                "end_time": 9.875,
                "pitch": 42,
                "velocity": 64,
                "duration": 0.1318182,
                "tempo": 120.0
            },
            {
                "start_time": 9.8931818,
                "end_time": 10.025,
                "pitch": 42,
                "velocity": 64,
                "duration": 0.1318182,
                "tempo": 120.0
            },
            {
                "start_time": 10.0431818,
                "end_time": 10.325,
                "pitch": 30,
                "velocity": 64,
                "duration": 0.2818182,
                "tempo": 120.0
            },
            {
                "start_time": 10.3431818,
                "end_time": 10.475,
                "pitch": 42,
                "velocity": 64,
                "duration": 0.1318182,
                "tempo": 120.0
            },
            {
                "start_time": 10.4931818,
                "end_time": 10.625,
                "pitch": 42,
                "velocity": 64,
                "duration": 0.1318182,
                "tempo": 120.0
            },
            {
                "start_time": 10.6431818,
                "end_time": 10.7772727,
                "pitch": 42,
                "velocity": 64,
                "duration": 0.1340909,
                "tempo": 120.0
            },
            {
                "start_time": 10.7931818,
                "end_time": 10.9295455,
                "pitch": 42,
                "velocity": 64,
                "duration": 0.1363636,
                "tempo": 120.0
            },
            {
                "start_time": 10.9454545,
                "end_time": 11.2318182,
                "pitch": 40,
                "velocity": 64,
                "duration": 0.2863636,
                "tempo": 120.0
            },
            {
                "start_time": 11.2477273,
                "end_time": 11.5318182,
                "pitch": 37,
                "velocity": 64,
                "duration": 0.2840909,
                "tempo": 120.0
            },
            {
                "start_time": 11.5477273,
                "end_time": 11.8318182,
                "pitch": 35,
                "velocity": 64,
                "duration": 0.2840909,
                "tempo": 120.0
            },
            {
                "start_time": 11.8477273,
                "end_time": 12.1318182,
                "pitch": 30,
                "velocity": 64,
                "duration": 0.2840909,
                "tempo": 120.0
            },
            {
                "start_time": 12.1477273,
                "end_time": 12.2818182,
                "pitch": 42,
                "velocity": 64,
                "duration": 0.1340909,
                "tempo": 120.0
            },
            {
                "start_time": 12.2977273,
                "end_time": 12.4318182,
                "pitch": 42,
                "velocity": 64,
                "duration": 0.1340909,
                "tempo": 120.0
            },
            {
                "start_time": 12.4477273,
                "end_time": 12.7318182,
                "pitch": 30,
                "velocity": 64,
                "duration": 0.2840909,
                "tempo": 120.0
            },
            {
                "start_time": 12.7477273,
                "end_time": 12.8818182,
                "pitch": 30,
                "velocity": 64,
                "duration": 0.1340909,
                "tempo": 120.0
            },
            {
                "start_time": 12.8977273,
                "end_time": 13.0318182,
                "pitch": 30,
                "velocity": 64,
                "duration": 0.1340909,
                "tempo": 120.0
            },
            {
                "start_time": 13.0477273,
                "end_time": 13.1818182,
                "pitch": 43,
                "velocity": 64,
                "duration": 0.1340909,
                "tempo": 120.0
            },
            {
                "start_time": 13.1977273,
                "end_time": 13.3318182,
                "pitch": 47,
                "velocity": 64,
                "duration": 0.1340909,
                "tempo": 120.0
            },
            {
                "start_time": 13.3477273,
                "end_time": 13.4818182,
                "pitch": 49,
                "velocity": 64,
                "duration": 0.1340909,
                "tempo": 120.0
            },
            {
                "start_time": 13.4977273,
                "end_time": 13.6318182,
                "pitch": 52,
                "velocity": 64,
                "duration": 0.1340909,
                "tempo": 120.0
            },
            {
                "start_time": 13.6477273,
                "end_time": 13.7840909,
                "pitch": 54,
                "velocity": 64,
                "duration": 0.1363636,
                "tempo": 120.0
            },
            {
                "start_time": 13.8,
                "end_time": 13.9340909,
                "pitch": 52,
                "velocity": 64,
                "duration": 0.1340909,
                "tempo": 120.0
            },
            {
                "start_time": 13.9522727,
                "end_time": 14.0863636,
                "pitch": 49,
                "velocity": 64,
                "duration": 0.1340909,
                "tempo": 120.0
            },
            {
                "start_time": 14.1022727,
                "end_time": 14.2386364,
                "pitch": 47,
                "velocity": 64,
                "duration": 0.1363636,
                "tempo": 120.0
            },
            {
                "start_time": 14.2545455,
                "end_time": 14.5386364,
                "pitch": 30,
                "velocity": 64,
                "duration": 0.2840909,
                "tempo": 120.0
            },
            {
                "start_time": 14.5545455,
                "end_time": 14.6886364,
                "pitch": 42,
                "velocity": 64,
                "duration": 0.1340909,
                "tempo": 120.0
            },
            {
                "start_time": 14.7045455,
                "end_time": 14.8386364,
                "pitch": 42,
                "velocity": 64,
                "duration": 0.1340909,
                "tempo": 120.0
            },
            {
                "start_time": 14.8545455,
                "end_time": 15.1386364,
                "pitch": 30,
                "velocity": 64,
                "duration": 0.2840909,
                "tempo": 120.0
            },
            {
                "start_time": 15.1545455,
                "end_time": 15.2886364,
                "pitch": 42,
                "velocity": 64,
                "duration": 0.1340909,
                "tempo": 120.0
            },
            {
                "start_time": 15.3045455,
                "end_time": 15.4386364,
                "pitch": 42,
                "velocity": 64,
                "duration": 0.1340909,
                "tempo": 120.0
            },
            {
                "start_time": 15.4545455,
                "end_time": 15.5886364,
                "pitch": 42,
                "velocity": 64,
                "duration": 0.1340909,
                "tempo": 120.0
            },
            {
                "start_time": 15.6045455,
                "end_time": 15.7386364,
                "pitch": 42,
                "velocity": 64,
                "duration": 0.1340909,
                "tempo": 120.0
            },
            {
                "start_time": 15.7545455,
                "end_time": 16.0386364,
                "pitch": 40,
                "velocity": 64,
                "duration": 0.2840909,
                "tempo": 120.0
            },
            {
                "start_time": 16.0545455,
                "end_time": 16.3386364,
                "pitch": 37,
                "velocity": 64,
                "duration": 0.2840909,
                "tempo": 120.0
            },
            {
                "start_time": 16.3545455,
                "end_time": 16.6386364,
                "pitch": 35,
                "velocity": 64,
                "duration": 0.2840909,
                "tempo": 120.0
            },
            {
                "start_time": 16.6545455,
                "end_time": 16.9409091,
                "pitch": 30,
                "velocity": 64,
                "duration": 0.2863636,
                "tempo": 120.0
            },
            {
                "start_time": 16.9568182,
                "end_time": 17.0931818,
                "pitch": 42,
                "velocity": 64,
                "duration": 0.1363636,
                "tempo": 120.0
            },
            {
                "start_time": 17.1090909,
                "end_time": 17.2431818,
                "pitch": 42,
                "velocity": 64,
                "duration": 0.1340909,
                "tempo": 120.0
            },
            {
                "start_time": 17.2613636,
                "end_time": 17.5431818,
                "pitch": 30,
                "velocity": 64,
                "duration": 0.2818182,
                "tempo": 120.0
            },
            {
                "start_time": 17.5613636,
                "end_time": 17.6931818,
                "pitch": 30,
                "velocity": 64,
                "duration": 0.1318182,
                "tempo": 120.0
            },
            {
                "start_time": 17.7113636,
                "end_time": 17.8431818,
                "pitch": 30,
                "velocity": 64,
                "duration": 0.1318182,
                "tempo": 120.0
            },
            {
                "start_time": 17.8613636,
                "end_time": 17.9954545,
                "pitch": 43,
                "velocity": 64,
                "duration": 0.1340909,
                "tempo": 120.0
            },
            {
                "start_time": 18.0113636,
                "end_time": 18.1477273,
                "pitch": 47,
                "velocity": 64,
                "duration": 0.1363636,
                "tempo": 120.0
            },
            {
                "start_time": 18.1636364,
                "end_time": 18.2977273,
                "pitch": 49,
                "velocity": 64,
                "duration": 0.1340909,
                "tempo": 120.0
            },
            {
                "start_time": 18.3159091,
                "end_time": 18.45,
                "pitch": 52,
                "velocity": 64,
                "duration": 0.1340909,
                "tempo": 120.0
            },
            {
                "start_time": 18.4659091,
                "end_time": 18.6022727,
                "pitch": 54,
                "velocity": 64,
                "duration": 0.1363636,
                "tempo": 120.0
            },
            {
                "start_time": 18.6181818,
                "end_time": 18.7522727,
                "pitch": 52,
                "velocity": 64,
                "duration": 0.1340909,
                "tempo": 120.0
            },
            {
                "start_time": 18.7704545,
                "end_time": 18.9045455,
                "pitch": 49,
                "velocity": 64,
                "duration": 0.1340909,
                "tempo": 120.0
            },
            {
                "start_time": 18.9204545,
                "end_time": 19.0568182,
                "pitch": 47,
                "velocity": 64,
                "duration": 0.1363636,
                "tempo": 120.0
            },
            {
                "start_time": 19.0727273,
                "end_time": 19.3568182,
                "pitch": 26,
                "velocity": 64,
                "duration": 0.2840909,
                "tempo": 120.0
            },
            {
                "start_time": 19.3727273,
                "end_time": 19.5068182,
                "pitch": 38,
                "velocity": 64,
                "duration": 0.1340909,
                "tempo": 120.0
            },
            {
                "start_time": 19.5227273,
                "end_time": 19.6568182,
                "pitch": 38,
                "velocity": 64,
                "duration": 0.1340909,
                "tempo": 120.0
            },
            {
                "start_time": 19.6727273,
                "end_time": 19.9590909,
                "pitch": 26,
                "velocity": 64,
                "duration": 0.2863636,
                "tempo": 120.0
            },
            {
                "start_time": 19.975,
                "end_time": 20.1113636,
                "pitch": 38,
                "velocity": 64,
                "duration": 0.1363636,
                "tempo": 120.0
            },
            {
                "start_time": 20.1272727,
                "end_time": 20.2613636,
                "pitch": 38,
                "velocity": 64,
                "duration": 0.1340909,
                "tempo": 120.0
            },
            {
                "start_time": 20.2795455,
                "end_time": 20.4113636,
                "pitch": 38,
                "velocity": 64,
                "duration": 0.1318182,
                "tempo": 120.0
            },
            {
                "start_time": 20.4295455,
                "end_time": 20.5613636,
                "pitch": 38,
                "velocity": 64,
                "duration": 0.1318182,
                "tempo": 120.0
            },
            {
                "start_time": 20.5795455,
                "end_time": 20.8613636,
                "pitch": 36,
                "velocity": 64,
                "duration": 0.2818182,
                "tempo": 120.0
            },
            {
                "start_time": 20.8795455,
                "end_time": 21.1659091,
                "pitch": 33,
                "velocity": 64,
                "duration": 0.2863636,
                "tempo": 120.0
            },
            {
                "start_time": 21.1818182,
                "end_time": 21.4681818,
                "pitch": 31,
                "velocity": 64,
                "duration": 0.2863636,
                "tempo": 120.0
            },
            {
                "start_time": 21.4840909,
                "end_time": 21.7704545,
                "pitch": 26,
                "velocity": 64,
                "duration": 0.2863636,
                "tempo": 120.0
            },
            {
                "start_time": 21.7886364,
                "end_time": 21.9227273,
                "pitch": 38,
                "velocity": 64,
                "duration": 0.1340909,
                "tempo": 120.0
            },
            {
                "start_time": 21.9386364,
                "end_time": 22.075,
                "pitch": 38,
                "velocity": 64,
                "duration": 0.1363636,
                "tempo": 120.0
            },
            {
                "start_time": 22.0909091,
                "end_time": 22.375,
                "pitch": 26,
                "velocity": 64,
                "duration": 0.2840909,
                "tempo": 120.0
            },
            {
                "start_time": 22.3909091,
                "end_time": 22.525,
                "pitch": 26,
                "velocity": 64,
                "duration": 0.1340909,
                "tempo": 120.0
            },
            {
                "start_time": 22.5409091,
                "end_time": 22.675,
                "pitch": 26,
                "velocity": 64,
                "duration": 0.1340909,
                "tempo": 120.0
            },
            {
                "start_time": 22.6909091,
                "end_time": 22.825,
                "pitch": 39,
                "velocity": 64,
                "duration": 0.1340909,
                "tempo": 120.0
            },
            {
                "start_time": 22.8431818,
                "end_time": 22.9772727,
                "pitch": 43,
                "velocity": 64,
                "duration": 0.1340909,
                "tempo": 120.0
            },
            {
                "start_time": 22.9931818,
                "end_time": 23.1295455,
                "pitch": 45,
                "velocity": 64,
                "duration": 0.1363636,
                "tempo": 120.0
            },
            {
                "start_time": 23.1454545,
                "end_time": 23.2795455,
                "pitch": 48,
                "velocity": 64,
                "duration": 0.1340909,
                "tempo": 120.0
            },
            {
                "start_time": 23.2977273,
                "end_time": 23.4295455,
                "pitch": 50,
                "velocity": 64,
                "duration": 0.1318182,
                "tempo": 120.0
            },
            {
                "start_time": 23.4477273,
                "end_time": 23.5795455,
                "pitch": 48,
                "velocity": 64,
                "duration": 0.1318182,
                "tempo": 120.0
            },
            {
                "start_time": 23.5977273,
                "end_time": 23.7295455,
                "pitch": 45,
                "velocity": 64,
                "duration": 0.1318182,
                "tempo": 120.0
            },
            {
                "start_time": 23.7477273,
                "end_time": 23.8795455,
                "pitch": 43,
                "velocity": 64,
                "duration": 0.1318182,
                "tempo": 120.0
            },
            {
                "start_time": 23.8977273,
                "end_time": 24.1840909,
                "pitch": 26,
                "velocity": 64,
                "duration": 0.2863636,
                "tempo": 120.0
            },
            {
                "start_time": 24.2,
                "end_time": 24.3340909,
                "pitch": 38,
                "velocity": 64,
                "duration": 0.1340909,
                "tempo": 120.0
            },
            {
                "start_time": 24.3522727,
                "end_time": 24.4863636,
                "pitch": 38,
                "velocity": 64,
                "duration": 0.1340909,
                "tempo": 120.0
            },
            {
                "start_time": 24.5022727,
                "end_time": 24.7886364,
                "pitch": 26,
                "velocity": 64,
                "duration": 0.2863636,
                "tempo": 120.0
            },
            {
                "start_time": 24.8068182,
                "end_time": 24.9409091,
                "pitch": 38,
                "velocity": 64,
                "duration": 0.1340909,
                "tempo": 120.0
            },
            {
                "start_time": 24.9568182,
                "end_time": 25.0931818,
                "pitch": 38,
                "velocity": 64,
                "duration": 0.1363636,
                "tempo": 120.0
            },
            {
                "start_time": 25.1090909,
                "end_time": 25.2431818,
                "pitch": 38,
                "velocity": 64,
                "duration": 0.1340909,
                "tempo": 120.0
            },
            {
                "start_time": 25.2590909,
                "end_time": 25.3931818,
                "pitch": 38,
                "velocity": 64,
                "duration": 0.1340909,
                "tempo": 120.0
            },
            {
                "start_time": 25.4090909,
                "end_time": 25.6931818,
                "pitch": 36,
                "velocity": 64,
                "duration": 0.2840909,
                "tempo": 120.0
            },
            {
                "start_time": 25.7090909,
                "end_time": 25.9954545,
                "pitch": 33,
                "velocity": 64,
                "duration": 0.2863636,
                "tempo": 120.0
            },
            {
                "start_time": 26.0113636,
                "end_time": 26.2977273,
                "pitch": 31,
                "velocity": 64,
                "duration": 0.2863636,
                "tempo": 120.0
            },
            {
                "start_time": 26.3159091,
                "end_time": 26.5977273,
                "pitch": 26,
                "velocity": 64,
                "duration": 0.2818182,
                "tempo": 120.0
            },
            {
                "start_time": 26.6159091,
                "end_time": 26.7477273,
                "pitch": 38,
                "velocity": 64,
                "duration": 0.1318182,
                "tempo": 120.0
            },
            {
                "start_time": 26.7659091,
                "end_time": 26.8977273,
                "pitch": 38,
                "velocity": 64,
                "duration": 0.1318182,
                "tempo": 120.0
            },
            {
                "start_time": 26.9159091,
                "end_time": 27.2022727,
                "pitch": 26,
                "velocity": 64,
                "duration": 0.2863636,
                "tempo": 120.0
            },
            {
                "start_time": 27.2181818,
                "end_time": 27.3522727,
                "pitch": 26,
                "velocity": 64,
                "duration": 0.1340909,
                "tempo": 120.0
            },
            {
                "start_time": 27.3704545,
                "end_time": 27.5045455,
                "pitch": 26,
                "velocity": 64,
                "duration": 0.1340909,
                "tempo": 120.0
            },
            {
                "start_time": 27.5204545,
                "end_time": 27.6568182,
                "pitch": 39,
                "velocity": 64,
                "duration": 0.1363636,
                "tempo": 120.0
            },
            {
                "start_time": 27.6727273,
                "end_time": 27.8068182,
                "pitch": 43,
                "velocity": 64,
                "duration": 0.1340909,
                "tempo": 120.0
            },
            {
                "start_time": 27.825,
                "end_time": 27.9590909,
                "pitch": 45,
                "velocity": 64,
                "duration": 0.1340909,
                "tempo": 120.0
            },
            {
                "start_time": 27.975,
                "end_time": 28.1113636,
                "pitch": 48,
                "velocity": 64,
                "duration": 0.1363636,
                "tempo": 120.0
            },
            {
                "start_time": 28.1272727,
                "end_time": 28.2613636,
                "pitch": 50,
                "velocity": 64,
                "duration": 0.1340909,
                "tempo": 120.0
            },
            {
                "start_time": 28.2772727,
                "end_time": 28.4113636,
                "pitch": 48,
                "velocity": 64,
                "duration": 0.1340909,
                "tempo": 120.0
            },
            {
                "start_time": 28.4272727,
                "end_time": 28.5613636,
                "pitch": 45,
                "velocity": 64,
                "duration": 0.1340909,
                "tempo": 120.0
            },
            {
                "start_time": 28.5772727,
                "end_time": 28.7113636,
                "pitch": 43,
                "velocity": 64,
                "duration": 0.1340909,
                "tempo": 120.0
            }
        ],
        "Harpsichord": [
            {
                "start_time": 0.0,
                "end_time": 0.0227273,
                "pitch": 83,
                "velocity": 51,
                "duration": 0.0227273,
                "tempo": 120.0
            },
            {
                "start_time": 0.0340909,
                "end_time": 0.0886364,
                "pitch": 83,
                "velocity": 51,
                "duration": 0.0545455,
                "tempo": 120.0
            },
            {
                "start_time": 0.1,
                "end_time": 0.1886364,
                "pitch": 74,
                "velocity": 51,
                "duration": 0.0886364,
                "tempo": 120.0
            },
            {
                "start_time": 0.2,
                "end_time": 0.2886364,
                "pitch": 76,
                "velocity": 51,
                "duration": 0.0886364,
                "tempo": 120.0
            },
            {
                "start_time": 0.3,
                "end_time": 0.3886364,
                "pitch": 79,
                "velocity": 51,
                "duration": 0.0886364,
                "tempo": 120.0
            },
            {
                "start_time": 0.4,
                "end_time": 0.5340909,
                "pitch": 81,
                "velocity": 51,
                "duration": 0.1340909,
                "tempo": 120.0
            },
            {
                "start_time": 0.55,
                "end_time": 0.6840909,
                "pitch": 81,
                "velocity": 51,
                "duration": 0.1340909,
                "tempo": 120.0
            },
            {
                "start_time": 0.7,
                "end_time": 0.8340909,
                "pitch": 79,
                "velocity": 51,
                "duration": 0.1340909,
                "tempo": 120.0
            },
            {
                "start_time": 0.85,
                "end_time": 0.9840909,
                "pitch": 74,
                "velocity": 51,
                "duration": 0.1340909,
                "tempo": 120.0
            },
            {
                "start_time": 1.0,
                "end_time": 1.1340909,
                "pitch": 76,
                "velocity": 51,
                "duration": 0.1340909,
                "tempo": 120.0
            },
            {
                "start_time": 1.15,
                "end_time": 1.2840909,
                "pitch": 74,
                "velocity": 51,
                "duration": 0.1340909,
                "tempo": 120.0
            },
            {
                "start_time": 1.3,
                "end_time": 1.4340909,
                "pitch": 76,
                "velocity": 51,
                "duration": 0.1340909,
                "tempo": 120.0
            },
            {
                "start_time": 1.45,
                "end_time": 1.5840909,
                "pitch": 79,
                "velocity": 51,
                "duration": 0.1340909,
                "tempo": 120.0
            },
            {
                "start_time": 1.6,
                "end_time": 1.7340909,
                "pitch": 81,
                "velocity": 51,
                "duration": 0.1340909,
                "tempo": 120.0
            },
            {
                "start_time": 1.7522727,
                "end_time": 1.8863636,
                "pitch": 81,
                "velocity": 51,
                "duration": 0.1340909,
                "tempo": 120.0
            },
            {
                "start_time": 1.9022727,
                "end_time": 2.0386364,
                "pitch": 79,
                "velocity": 51,
                "duration": 0.1363636,
                "tempo": 120.0
            },
            {
                "start_time": 2.0545455,
                "end_time": 2.1886364,
                "pitch": 74,
                "velocity": 51,
                "duration": 0.1340909,
                "tempo": 120.0
            },
            {
                "start_time": 2.2068182,
                "end_time": 2.3386364,
                "pitch": 76,
                "velocity": 51,
                "duration": 0.1318182,
                "tempo": 120.0
            },
            {
                "start_time": 2.3568182,
                "end_time": 2.4886364,
                "pitch": 74,
                "velocity": 51,
                "duration": 0.1318182,
                "tempo": 120.0
            },
            {
                "start_time": 2.5068182,
                "end_time": 2.6386364,
                "pitch": 76,
                "velocity": 51,
                "duration": 0.1318182,
                "tempo": 120.0
            },
            {
                "start_time": 2.6568182,
                "end_time": 2.7886364,
                "pitch": 79,
                "velocity": 51,
                "duration": 0.1318182,
                "tempo": 120.0
            },
            {
                "start_time": 2.8068182,
                "end_time": 2.9409091,
                "pitch": 81,
                "velocity": 51,
                "duration": 0.1340909,
                "tempo": 120.0
            },
            {
                "start_time": 2.9568182,
                "end_time": 3.0931818,
                "pitch": 81,
                "velocity": 51,
                "duration": 0.1363636,
                "tempo": 120.0
            },
            {
                "start_time": 3.1090909,
                "end_time": 3.2431818,
                "pitch": 79,
                "velocity": 51,
                "duration": 0.1340909,
                "tempo": 120.0
            },
            {
                "start_time": 3.2613636,
                "end_time": 3.3954545,
                "pitch": 74,
                "velocity": 51,
                "duration": 0.1340909,
                "tempo": 120.0
            },
            {
                "start_time": 3.4113636,
                "end_time": 3.6977273,
                "pitch": 76,
                "velocity": 51,
                "duration": 0.2863636,
                "tempo": 120.0
            },
            {
                "start_time": 3.7159091,
                "end_time": 3.85,
                "pitch": 84,
                "velocity": 51,
                "duration": 0.1340909,
                "tempo": 120.0
            },
            {
                "start_time": 3.8659091,
                "end_time": 4.1522727,
                "pitch": 83,
                "velocity": 51,
                "duration": 0.2863636,
                "tempo": 120.0
            },
            {
                "start_time": 4.1704545,
                "end_time": 4.4568182,
                "pitch": 79,
                "velocity": 51,
                "duration": 0.2863636,
                "tempo": 120.0
            },
            {
                "start_time": 4.4727273,
                "end_time": 4.7568182,
                "pitch": 77,
                "velocity": 51,
                "duration": 0.2840909,
                "tempo": 120.0
            },
            {
                "start_time": 4.775,
                "end_time": 4.9068182,
                "pitch": 74,
                "velocity": 51,
                "duration": 0.1318182,
                "tempo": 120.0
            },
            {
                "start_time": 4.925,
                "end_time": 5.0568182,
                "pitch": 76,
                "velocity": 51,
                "duration": 0.1318182,
                "tempo": 120.0
            },
            {
                "start_time": 5.075,
                "end_time": 5.2068182,
                "pitch": 79,
                "velocity": 51,
                "duration": 0.1318182,
                "tempo": 120.0
            },
            {
                "start_time": 5.225,
                "end_time": 5.3590909,
                "pitch": 81,
                "velocity": 51,
                "duration": 0.1340909,
                "tempo": 120.0
            },
            {
                "start_time": 5.375,
                "end_time": 5.5113636,
                "pitch": 81,
                "velocity": 51,
                "duration": 0.1363636,
                "tempo": 120.0
            },
            {
                "start_time": 5.5272727,
                "end_time": 5.6613636,
                "pitch": 79,
                "velocity": 51,
                "duration": 0.1340909,
                "tempo": 120.0
            },
            {
                "start_time": 5.6795455,
                "end_time": 5.8136364,
                "pitch": 74,
                "velocity": 51,
                "duration": 0.1340909,
                "tempo": 120.0
            },
            {
                "start_time": 5.8295455,
                "end_time": 5.9636364,
                "pitch": 76,
                "velocity": 51,
                "duration": 0.1340909,
                "tempo": 120.0
            },
            {
                "start_time": 5.9795455,
                "end_time": 6.1136364,
                "pitch": 74,
                "velocity": 51,
                "duration": 0.1340909,
                "tempo": 120.0
            },
            {
                "start_time": 6.1295455,
                "end_time": 6.2636364,
                "pitch": 76,
                "velocity": 51,
                "duration": 0.1340909,
                "tempo": 120.0
            },
            {
                "start_time": 6.2795455,
                "end_time": 6.4136364,
                "pitch": 79,
                "velocity": 51,
                "duration": 0.1340909,
                "tempo": 120.0
            },
            {
                "start_time": 6.4295455,
                "end_time": 6.5636364,
                "pitch": 81,
                "velocity": 51,
                "duration": 0.1340909,
                "tempo": 120.0
            },
            {
                "start_time": 6.5795455,
                "end_time": 6.7136364,
                "pitch": 81,
                "velocity": 51,
                "duration": 0.1340909,
                "tempo": 120.0
            },
            {
                "start_time": 6.7295455,
                "end_time": 6.8636364,
                "pitch": 79,
                "velocity": 51,
                "duration": 0.1340909,
                "tempo": 120.0
            },
            {
                "start_time": 6.8795455,
                "end_time": 7.0136364,
                "pitch": 74,
                "velocity": 51,
                "duration": 0.1340909,
                "tempo": 120.0
            },
            {
                "start_time": 7.0295455,
                "end_time": 7.1659091,
                "pitch": 76,
                "velocity": 51,
                "duration": 0.1363636,
                "tempo": 120.0
            },
            {
                "start_time": 7.1818182,
                "end_time": 7.3159091,
                "pitch": 74,
                "velocity": 51,
                "duration": 0.1340909,
                "tempo": 120.0
            },
            {
                "start_time": 7.3340909,
                "end_time": 7.4681818,
                "pitch": 76,
                "velocity": 51,
                "duration": 0.1340909,
                "tempo": 120.0
            },
            {
                "start_time": 7.4840909,
                "end_time": 7.6204545,
                "pitch": 79,
                "velocity": 51,
                "duration": 0.1363636,
                "tempo": 120.0
            },
            {
                "start_time": 7.6363636,
                "end_time": 7.7704545,
                "pitch": 81,
                "velocity": 51,
                "duration": 0.1340909,
                "tempo": 120.0
            },
            {
                "start_time": 7.7863636,
                "end_time": 7.9204545,
                "pitch": 81,
                "velocity": 51,
                "duration": 0.1340909,
                "tempo": 120.0
            },
            {
                "start_time": 7.9363636,
                "end_time": 8.0704545,
                "pitch": 79,
                "velocity": 51,
                "duration": 0.1340909,
                "tempo": 120.0
            },
            {
                "start_time": 8.0863636,
                "end_time": 8.2204545,
                "pitch": 74,
                "velocity": 51,
                "duration": 0.1340909,
                "tempo": 120.0
            },
            {
                "start_time": 8.2363636,
                "end_time": 8.5227273,
                "pitch": 76,
                "velocity": 51,
                "duration": 0.2863636,
                "tempo": 120.0
            },
            {
                "start_time": 8.5386364,
                "end_time": 8.675,
                "pitch": 84,
                "velocity": 51,
                "duration": 0.1363636,
                "tempo": 120.0
            },
            {
                "start_time": 8.6909091,
                "end_time": 8.975,
                "pitch": 83,
                "velocity": 51,
                "duration": 0.2840909,
                "tempo": 120.0
            },
            {
                "start_time": 8.9931818,
                "end_time": 9.275,
                "pitch": 79,
                "velocity": 51,
                "duration": 0.2818182,
                "tempo": 120.0
            },
            {
                "start_time": 9.2931818,
                "end_time": 9.575,
                "pitch": 77,
                "velocity": 51,
                "duration": 0.2818182,
                "tempo": 120.0
            },
            {
                "start_time": 9.5931818,
                "end_time": 9.725,
                "pitch": 76,
                "velocity": 51,
                "duration": 0.1318182,
                "tempo": 120.0
            },
            {
                "start_time": 9.7431818,
                "end_time": 9.875,
                "pitch": 78,
                "velocity": 51,
                "duration": 0.1318182,
                "tempo": 120.0
            },
            {
                "start_time": 9.8931818,
                "end_time": 10.025,
                "pitch": 81,
                "velocity": 51,
                "duration": 0.1318182,
                "tempo": 120.0
            },
            {
                "start_time": 10.0431818,
                "end_time": 10.175,
                "pitch": 83,
                "velocity": 51,
                "duration": 0.1318182,
                "tempo": 120.0
            },
            {
                "start_time": 10.1931818,
                "end_time": 10.325,
                "pitch": 83,
                "velocity": 51,
                "duration": 0.1318182,
                "tempo": 120.0
            },
            {
                "start_time": 10.3431818,
                "end_time": 10.475,
                "pitch": 81,
                "velocity": 51,
                "duration": 0.1318182,
                "tempo": 120.0
            },
            {
                "start_time": 10.4931818,
                "end_time": 10.625,
                "pitch": 76,
                "velocity": 51,
                "duration": 0.1318182,
                "tempo": 120.0
            },
            {
                "start_time": 10.6431818,
                "end_time": 10.7772727,
                "pitch": 78,
                "velocity": 51,
                "duration": 0.1340909,
                "tempo": 120.0
            },
            {
                "start_time": 10.7931818,
                "end_time": 10.9295455,
                "pitch": 76,
                "velocity": 51,
                "duration": 0.1363636,
                "tempo": 120.0
            },
            {
                "start_time": 10.9454545,
                "end_time": 11.0795455,
                "pitch": 78,
                "velocity": 51,
                "duration": 0.1340909,
                "tempo": 120.0
            },
            {
                "start_time": 11.0977273,
                "end_time": 11.2318182,
                "pitch": 81,
                "velocity": 51,
                "duration": 0.1340909,
                "tempo": 120.0
            },
            {
                "start_time": 11.2477273,
                "end_time": 11.3818182,
                "pitch": 83,
                "velocity": 51,
                "duration": 0.1340909,
                "tempo": 120.0
            },
            {
                "start_time": 11.3977273,
                "end_time": 11.5318182,
                "pitch": 83,
                "velocity": 51,
                "duration": 0.1340909,
                "tempo": 120.0
            },
            {
                "start_time": 11.5477273,
                "end_time": 11.6818182,
                "pitch": 81,
                "velocity": 51,
                "duration": 0.1340909,
                "tempo": 120.0
            },
            {
                "start_time": 11.6977273,
                "end_time": 11.8318182,
                "pitch": 76,
                "velocity": 51,
                "duration": 0.1340909,
                "tempo": 120.0
            },
            {
                "start_time": 11.8477273,
                "end_time": 11.9818182,
                "pitch": 78,
                "velocity": 51,
                "duration": 0.1340909,
                "tempo": 120.0
            },
            {
                "start_time": 11.9977273,
                "end_time": 12.1318182,
                "pitch": 76,
                "velocity": 51,
                "duration": 0.1340909,
                "tempo": 120.0
            },
            {
                "start_time": 12.1477273,
                "end_time": 12.2818182,
                "pitch": 78,
                "velocity": 51,
                "duration": 0.1340909,
                "tempo": 120.0
            },
            {
                "start_time": 12.2977273,
                "end_time": 12.4318182,
                "pitch": 81,
                "velocity": 51,
                "duration": 0.1340909,
                "tempo": 120.0
            },
            {
                "start_time": 12.4477273,
                "end_time": 12.5818182,
                "pitch": 83,
                "velocity": 51,
                "duration": 0.1340909,
                "tempo": 120.0
            },
            {
                "start_time": 12.5977273,
                "end_time": 12.7318182,
                "pitch": 83,
                "velocity": 51,
                "duration": 0.1340909,
                "tempo": 120.0
            },
            {
                "start_time": 12.7477273,
                "end_time": 12.8818182,
                "pitch": 81,
                "velocity": 51,
                "duration": 0.1340909,
                "tempo": 120.0
            },
            {
                "start_time": 12.8977273,
                "end_time": 13.0318182,
                "pitch": 76,
                "velocity": 51,
                "duration": 0.1340909,
                "tempo": 120.0
            },
            {
                "start_time": 13.0477273,
                "end_time": 13.3318182,
                "pitch": 78,
                "velocity": 51,
                "duration": 0.2840909,
                "tempo": 120.0
            },
            {
                "start_time": 13.3477273,
                "end_time": 13.4818182,
                "pitch": 86,
                "velocity": 51,
                "duration": 0.1340909,
                "tempo": 120.0
            },
            {
                "start_time": 13.4977273,
                "end_time": 13.7840909,
                "pitch": 85,
                "velocity": 51,
                "duration": 0.2863636,
                "tempo": 120.0
            },
            {
                "start_time": 13.8,
                "end_time": 14.0863636,
                "pitch": 81,
                "velocity": 51,
                "duration": 0.2863636,
                "tempo": 120.0
            },
            {
                "start_time": 14.1022727,
                "end_time": 14.3886364,
                "pitch": 79,
                "velocity": 51,
                "duration": 0.2863636,
                "tempo": 120.0
            },
            {
                "start_time": 14.4045455,
                "end_time": 14.5386364,
                "pitch": 76,
                "velocity": 51,
                "duration": 0.1340909,
                "tempo": 120.0
            },
            {
                "start_time": 14.5545455,
                "end_time": 14.6886364,
                "pitch": 78,
                "velocity": 51,
                "duration": 0.1340909,
                "tempo": 120.0
            },
            {
                "start_time": 14.7045455,
                "end_time": 14.8386364,
                "pitch": 81,
                "velocity": 51,
                "duration": 0.1340909,
                "tempo": 120.0
            },
            {
                "start_time": 14.8545455,
                "end_time": 14.9886364,
                "pitch": 83,
                "velocity": 51,
                "duration": 0.1340909,
                "tempo": 120.0
            },
            {
                "start_time": 15.0045455,
                "end_time": 15.1386364,
                "pitch": 83,
                "velocity": 51,
                "duration": 0.1340909,
                "tempo": 120.0
            },
            {
                "start_time": 15.1545455,
                "end_time": 15.2886364,
                "pitch": 81,
                "velocity": 51,
                "duration": 0.1340909,
                "tempo": 120.0
            },
            {
                "start_time": 15.3045455,
                "end_time": 15.4386364,
                "pitch": 76,
                "velocity": 51,
                "duration": 0.1340909,
                "tempo": 120.0
            },
            {
                "start_time": 15.4545455,
                "end_time": 15.5886364,
                "pitch": 78,
                "velocity": 51,
                "duration": 0.1340909,
                "tempo": 120.0
            },
            {
                "start_time": 15.6045455,
                "end_time": 15.7386364,
                "pitch": 76,
                "velocity": 51,
                "duration": 0.1340909,
                "tempo": 120.0
            },
            {
                "start_time": 15.7545455,
                "end_time": 15.8886364,
                "pitch": 78,
                "velocity": 51,
                "duration": 0.1340909,
                "tempo": 120.0
            },
            {
                "start_time": 15.9045455,
                "end_time": 16.0386364,
                "pitch": 81,
                "velocity": 51,
                "duration": 0.1340909,
                "tempo": 120.0
            },
            {
                "start_time": 16.0545455,
                "end_time": 16.1886364,
                "pitch": 83,
                "velocity": 51,
                "duration": 0.1340909,
                "tempo": 120.0
            },
            {
                "start_time": 16.2045455,
                "end_time": 16.3386364,
                "pitch": 83,
                "velocity": 51,
                "duration": 0.1340909,
                "tempo": 120.0
            },
            {
                "start_time": 16.3545455,
                "end_time": 16.4886364,
                "pitch": 81,
                "velocity": 51,
                "duration": 0.1340909,
                "tempo": 120.0
            },
            {
                "start_time": 16.5045455,
                "end_time": 16.6386364,
                "pitch": 76,
                "velocity": 51,
                "duration": 0.1340909,
                "tempo": 120.0
            },
            {
                "start_time": 16.6545455,
                "end_time": 16.7886364,
                "pitch": 78,
                "velocity": 51,
                "duration": 0.1340909,
                "tempo": 120.0
            },
            {
                "start_time": 16.8068182,
                "end_time": 16.9409091,
                "pitch": 76,
                "velocity": 51,
                "duration": 0.1340909,
                "tempo": 120.0
            },
            {
                "start_time": 16.9568182,
                "end_time": 17.0931818,
                "pitch": 78,
                "velocity": 51,
                "duration": 0.1363636,
                "tempo": 120.0
            },
            {
                "start_time": 17.1090909,
                "end_time": 17.2431818,
                "pitch": 81,
                "velocity": 51,
                "duration": 0.1340909,
                "tempo": 120.0
            },
            {
                "start_time": 17.2613636,
                "end_time": 17.3931818,
                "pitch": 83,
                "velocity": 51,
                "duration": 0.1318182,
                "tempo": 120.0
            },
            {
                "start_time": 17.4113636,
                "end_time": 17.5431818,
                "pitch": 83,
                "velocity": 51,
                "duration": 0.1318182,
                "tempo": 120.0
            },
            {
                "start_time": 17.5613636,
                "end_time": 17.6931818,
                "pitch": 81,
                "velocity": 51,
                "duration": 0.1318182,
                "tempo": 120.0
            },
            {
                "start_time": 17.7113636,
                "end_time": 17.8431818,
                "pitch": 76,
                "velocity": 51,
                "duration": 0.1318182,
                "tempo": 120.0
            },
            {
                "start_time": 17.8613636,
                "end_time": 18.1477273,
                "pitch": 78,
                "velocity": 51,
                "duration": 0.2863636,
                "tempo": 120.0
            },
            {
                "start_time": 18.1636364,
                "end_time": 18.2977273,
                "pitch": 86,
                "velocity": 51,
                "duration": 0.1340909,
                "tempo": 120.0
            },
            {
                "start_time": 18.3159091,
                "end_time": 18.6022727,
                "pitch": 85,
                "velocity": 51,
                "duration": 0.2863636,
                "tempo": 120.0
            },
            {
                "start_time": 18.6181818,
                "end_time": 18.9045455,
                "pitch": 81,
                "velocity": 51,
                "duration": 0.2863636,
                "tempo": 120.0
            },
            {
                "start_time": 18.9204545,
                "end_time": 19.2068182,
                "pitch": 79,
                "velocity": 51,
                "duration": 0.2863636,
                "tempo": 120.0
            },
            {
                "start_time": 19.2227273,
                "end_time": 19.3568182,
                "pitch": 72,
                "velocity": 51,
                "duration": 0.1340909,
                "tempo": 120.0
            },
            {
                "start_time": 19.3727273,
                "end_time": 19.5068182,
                "pitch": 74,
                "velocity": 51,
                "duration": 0.1340909,
                "tempo": 120.0
            },
            {
                "start_time": 19.5227273,
                "end_time": 19.6568182,
                "pitch": 77,
                "velocity": 51,
                "duration": 0.1340909,
                "tempo": 120.0
            },
            {
                "start_time": 19.6727273,
                "end_time": 19.8068182,
                "pitch": 79,
                "velocity": 51,
                "duration": 0.1340909,
                "tempo": 120.0
            },
            {
                "start_time": 19.825,
                "end_time": 19.9590909,
                "pitch": 79,
                "velocity": 51,
                "duration": 0.1340909,
                "tempo": 120.0
            },
            {
                "start_time": 19.975,
                "end_time": 20.1113636,
                "pitch": 77,
                "velocity": 51,
                "duration": 0.1363636,
                "tempo": 120.0
            },
            {
                "start_time": 20.1272727,
                "end_time": 20.2613636,
                "pitch": 72,
                "velocity": 51,
                "duration": 0.1340909,
                "tempo": 120.0
            },
            {
                "start_time": 20.2795455,
                "end_time": 20.4113636,
                "pitch": 74,
                "velocity": 51,
                "duration": 0.1318182,
                "tempo": 120.0
            },
            {
                "start_time": 20.4295455,
                "end_time": 20.5613636,
                "pitch": 72,
                "velocity": 51,
                "duration": 0.1318182,
                "tempo": 120.0
            },
            {
                "start_time": 20.5795455,
                "end_time": 20.7113636,
                "pitch": 74,
                "velocity": 51,
                "duration": 0.1318182,
                "tempo": 120.0
            },
            {
                "start_time": 20.7295455,
                "end_time": 20.8613636,
                "pitch": 77,
                "velocity": 51,
                "duration": 0.1318182,
                "tempo": 120.0
            },
            {
                "start_time": 20.8795455,
                "end_time": 21.0136364,
                "pitch": 79,
                "velocity": 51,
                "duration": 0.1340909,
                "tempo": 120.0
            },
            {
                "start_time": 21.0295455,
                "end_time": 21.1659091,
                "pitch": 79,
                "velocity": 51,
                "duration": 0.1363636,
                "tempo": 120.0
            },
            {
                "start_time": 21.1818182,
                "end_time": 21.3159091,
                "pitch": 77,
                "velocity": 51,
                "duration": 0.1340909,
                "tempo": 120.0
            },
            {
                "start_time": 21.3340909,
                "end_time": 21.4681818,
                "pitch": 72,
                "velocity": 51,
                "duration": 0.1340909,
                "tempo": 120.0
            },
            {
                "start_time": 21.4840909,
                "end_time": 21.6204545,
                "pitch": 74,
                "velocity": 51,
                "duration": 0.1363636,
                "tempo": 120.0
            },
            {
                "start_time": 21.6363636,
                "end_time": 21.7704545,
                "pitch": 72,
                "velocity": 51,
                "duration": 0.1340909,
                "tempo": 120.0
            },
            {
                "start_time": 21.7886364,
                "end_time": 21.9227273,
                "pitch": 74,
                "velocity": 51,
                "duration": 0.1340909,
                "tempo": 120.0
            },
            {
                "start_time": 21.9386364,
                "end_time": 22.075,
                "pitch": 77,
                "velocity": 51,
                "duration": 0.1363636,
                "tempo": 120.0
            },
            {
                "start_time": 22.0909091,
                "end_time": 22.225,
                "pitch": 79,
                "velocity": 51,
                "duration": 0.1340909,
                "tempo": 120.0
            },
            {
                "start_time": 22.2409091,
                "end_time": 22.375,
                "pitch": 79,
                "velocity": 51,
                "duration": 0.1340909,
                "tempo": 120.0
            },
            {
                "start_time": 22.3909091,
                "end_time": 22.525,
                "pitch": 77,
                "velocity": 51,
                "duration": 0.1340909,
                "tempo": 120.0
            },
            {
                "start_time": 22.5409091,
                "end_time": 22.675,
                "pitch": 72,
                "velocity": 51,
                "duration": 0.1340909,
                "tempo": 120.0
            },
            {
                "start_time": 22.6909091,
                "end_time": 22.9772727,
                "pitch": 74,
                "velocity": 51,
                "duration": 0.2863636,
                "tempo": 120.0
            },
            {
                "start_time": 22.9931818,
                "end_time": 23.1295455,
                "pitch": 82,
                "velocity": 51,
                "duration": 0.1363636,
                "tempo": 120.0
            },
            {
                "start_time": 23.1454545,
                "end_time": 23.4295455,
                "pitch": 81,
                "velocity": 51,
                "duration": 0.2840909,
                "tempo": 120.0
            },
            {
                "start_time": 23.4477273,
                "end_time": 23.7295455,
                "pitch": 77,
                "velocity": 51,
                "duration": 0.2818182,
                "tempo": 120.0
            },
            {
                "start_time": 23.7477273,
                "end_time": 24.0318182,
                "pitch": 75,
                "velocity": 51,
                "duration": 0.2840909,
                "tempo": 120.0
            },
            {
                "start_time": 24.0477273,
                "end_time": 24.1840909,
                "pitch": 72,
                "velocity": 51,
                "duration": 0.1363636,
                "tempo": 120.0
            },
            {
                "start_time": 24.2,
                "end_time": 24.3340909,
                "pitch": 74,
                "velocity": 51,
                "duration": 0.1340909,
                "tempo": 120.0
            },
            {
                "start_time": 24.3522727,
                "end_time": 24.4863636,
                "pitch": 77,
                "velocity": 51,
                "duration": 0.1340909,
                "tempo": 120.0
            },
            {
                "start_time": 24.5022727,
                "end_time": 24.6386364,
                "pitch": 79,
                "velocity": 51,
                "duration": 0.1363636,
                "tempo": 120.0
            },
            {
                "start_time": 24.6545455,
                "end_time": 24.7886364,
                "pitch": 79,
                "velocity": 51,
                "duration": 0.1340909,
                "tempo": 120.0
            },
            {
                "start_time": 24.8068182,
                "end_time": 24.9409091,
                "pitch": 77,
                "velocity": 51,
                "duration": 0.1340909,
                "tempo": 120.0
            },
            {
                "start_time": 24.9568182,
                "end_time": 25.0931818,
                "pitch": 72,
                "velocity": 51,
                "duration": 0.1363636,
                "tempo": 120.0
            },
            {
                "start_time": 25.1090909,
                "end_time": 25.2431818,
                "pitch": 74,
                "velocity": 51,
                "duration": 0.1340909,
                "tempo": 120.0
            },
            {
                "start_time": 25.2590909,
                "end_time": 25.3931818,
                "pitch": 72,
                "velocity": 51,
                "duration": 0.1340909,
                "tempo": 120.0
            },
            {
                "start_time": 25.4090909,
                "end_time": 25.5431818,
                "pitch": 74,
                "velocity": 51,
                "duration": 0.1340909,
                "tempo": 120.0
            },
            {
                "start_time": 25.5590909,
                "end_time": 25.6931818,
                "pitch": 77,
                "velocity": 51,
                "duration": 0.1340909,
                "tempo": 120.0
            },
            {
                "start_time": 25.7090909,
                "end_time": 25.8431818,
                "pitch": 79,
                "velocity": 51,
                "duration": 0.1340909,
                "tempo": 120.0
            },
            {
                "start_time": 25.8613636,
                "end_time": 25.9954545,
                "pitch": 79,
                "velocity": 51,
                "duration": 0.1340909,
                "tempo": 120.0
            },
            {
                "start_time": 26.0113636,
                "end_time": 26.1477273,
                "pitch": 77,
                "velocity": 51,
                "duration": 0.1363636,
                "tempo": 120.0
            },
            {
                "start_time": 26.1636364,
                "end_time": 26.2977273,
                "pitch": 72,
                "velocity": 51,
                "duration": 0.1340909,
                "tempo": 120.0
            },
            {
                "start_time": 26.3159091,
                "end_time": 26.4477273,
                "pitch": 74,
                "velocity": 51,
                "duration": 0.1318182,
                "tempo": 120.0
            },
            {
                "start_time": 26.4659091,
                "end_time": 26.5977273,
                "pitch": 72,
                "velocity": 51,
                "duration": 0.1318182,
                "tempo": 120.0
            },
            {
                "start_time": 26.6159091,
                "end_time": 26.7477273,
                "pitch": 74,
                "velocity": 51,
                "duration": 0.1318182,
                "tempo": 120.0
            },
            {
                "start_time": 26.7659091,
                "end_time": 26.8977273,
                "pitch": 77,
                "velocity": 51,
                "duration": 0.1318182,
                "tempo": 120.0
            },
            {
                "start_time": 26.9159091,
                "end_time": 27.05,
                "pitch": 79,
                "velocity": 51,
                "duration": 0.1340909,
                "tempo": 120.0
            },
            {
                "start_time": 27.0659091,
                "end_time": 27.2022727,
                "pitch": 79,
                "velocity": 51,
                "duration": 0.1363636,
                "tempo": 120.0
            },
            {
                "start_time": 27.2181818,
                "end_time": 27.3522727,
                "pitch": 77,
                "velocity": 51,
                "duration": 0.1340909,
                "tempo": 120.0
            },
            {
                "start_time": 27.3704545,
                "end_time": 27.5045455,
                "pitch": 72,
                "velocity": 51,
                "duration": 0.1340909,
                "tempo": 120.0
            },
            {
                "start_time": 27.5204545,
                "end_time": 27.8068182,
                "pitch": 74,
                "velocity": 51,
                "duration": 0.2863636,
                "tempo": 120.0
            },
            {
                "start_time": 27.825,
                "end_time": 27.9590909,
                "pitch": 82,
                "velocity": 51,
                "duration": 0.1340909,
                "tempo": 120.0
            },
            {
                "start_time": 27.975,
                "end_time": 28.2613636,
                "pitch": 81,
                "velocity": 51,
                "duration": 0.2863636,
                "tempo": 120.0
            },
            {
                "start_time": 28.2772727,
                "end_time": 28.5613636,
                "pitch": 77,
                "velocity": 51,
                "duration": 0.2840909,
                "tempo": 120.0
            },
            {
                "start_time": 28.5772727,
                "end_time": 28.7272727,
                "pitch": 75,
                "velocity": 51,
                "duration": 0.15,
                "tempo": 120.0
            }
        ]
    }
}