{
    "mood": "angry",
    "instruments": {
        "Violin": [
            {
                "start_time": 0.0,
                "end_time": 0.2886364,
                "pitch": 72,
                "velocity": 101,
                "duration": 0.2886364,
                "tempo": 120.0
            },
            {
                "start_time": 0.3068182,
                "end_time": 0.6568182,
                "pitch": 65,
                "velocity": 101,
                "duration": 0.35,
                "tempo": 120.0
            },
            {
                "start_time": 0.6727273,
                "end_time": 1.1568182,
                "pitch": 72,
                "velocity": 101,
                "duration": 0.4840909,
                "tempo": 120.0
            },
            {
                "start_time": 1.1727273,
                "end_time": 1.2886364,
                "pitch": 72,
                "velocity": 101,
                "duration": 0.1159091,
                "tempo": 120.0
            },
            {
                "start_time": 1.3068182,
                "end_time": 1.4068182,
                "pitch": 75,
                "velocity": 101,
                "duration": 0.1,
                "tempo": 120.0
            },
            {
                "start_time": 1.4227273,
                "end_time": 1.6568182,
                "pitch": 72,
                "velocity": 101,
                "duration": 0.2340909,
                "tempo": 120.0
            },
            {
                "start_time": 1.6727273,
                "end_time": 1.9068182,
                "pitch": 71,
                "velocity": 101,
                "duration": 0.2340909,
                "tempo": 120.0
            },
            {
                "start_time": 1.9227273,
                "end_time": 2.2909091,
                "pitch": 72,
                "velocity": 101,
                "duration": 0.3681818,
                "tempo": 120.0
            },
            {
                "start_time": 2.3068182,
                "end_time": 2.6590909,
                "pitch": 65,
                "velocity": 101,
                "duration": 0.3522727,
                "tempo": 120.0
            },
            {
                "start_time": 2.6772727,
                "end_time": 3.1590909,
                "pitch": 72,
                "velocity": 101,
                "duration": 0.4818182,
                "tempo": 120.0
            },
            {
                "start_time": 3.1772727,
                "end_time": 3.2931818,
                "pitch": 72,
                "velocity": 101,
                "duration": 0.1159091,
                "tempo": 120.0
            },
            {
                "start_time": 3.3090909,
                "end_time": 3.4090909,
                "pitch": 75,
                "velocity": 101,
                "duration": 0.1,
                "tempo": 120.0
            },
            {
                "start_time": 3.4272727,
                "end_time": 3.6590909,
                "pitch": 72,
                "velocity": 101,
                "duration": 0.2318182,
                "tempo": 120.0
            },
            {
                "start_time": 3.6772727,
                "end_time": 3.9090909,
                "pitch": 71,
                "velocity": 101,
                "duration": 0.2318182,
                "tempo": 120.0
            },
            {
                "start_time": 3.9272727,
                "end_time": 4.2931818,
                "pitch": 72,
                "velocity": 101,
                "duration": 0.3659091,
                "tempo": 120.0
            },
            {
                "start_time": 4.3090909,
                "end_time": 4.6590909,
                "pitch": 65,
                "velocity": 101,
                "duration": 0.35,
                "tempo": 120.0
            },
            {
                "start_time": 4.6772727,
                "end_time": 5.1590909,
                "pitch": 72,
                "velocity": 101,
                "duration": 0.4818182,
                "tempo": 120.0
            },
            {
                "start_time": 5.1772727,
                "end_time": 5.2931818,
                "pitch": 72,
                "velocity": 101,
                "duration": 0.1159091,
                "tempo": 120.0
            },
            {
                "start_time": 5.3090909,
                "end_time": 5.4090909,
                "pitch": 75,
                "velocity": 101,
                "duration": 0.1,
                "tempo": 120.0
            },
            {
                "start_time": 5.4272727,
                "end_time": 5.6590909,
                "pitch": 72,
                "velocity": 101,
                "duration": 0.2318182,
                "tempo": 120.0
            },
            {
                "start_time": 5.6772727,
                "end_time": 5.9090909,
                "pitch": 71,
                "velocity": 101,
                "duration": 0.2318182,
                "tempo": 120.0
            },
            {
                "start_time": 5.9272727,
                "end_time": 6.2931818,
                "pitch": 72,
                "velocity": 101,
                "duration": 0.3659091,
                "tempo": 120.0
            },
            {
                "start_time": 6.3090909,
                "end_time": 6.6590909,
                "pitch": 65,
                "velocity": 101,
                "duration": 0.35,
                "tempo": 120.0
            },
            {
                "start_time": 6.6772727,
                "end_time": 7.1590909,
                "pitch": 72,
                "velocity": 101,
                "duration": 0.4818182,
                "tempo": 120.0
            },
            {
                "start_time": 7.1772727,
                "end_time": 7.2931818,
                "pitch": 72,
                "velocity": 101,
                "duration": 0.1159091,
                "tempo": 120.0
            },
            {
                "start_time": 7.3090909,
                "end_time": 7.4090909,
                "pitch": 75,
                "velocity": 101,
                "duration": 0.1,
                "tempo": 120.0
            },
            {
                "start_time": 7.4272727,
                "end_time": 7.6590909,
                "pitch": 72,
                "velocity": 101,
                "duration": 0.2318182,
                "tempo": 120.0
            },
            {
                "start_time": 7.6772727,
                "end_time": 7.9090909,
                "pitch": 71,
                "velocity": 101,
                "duration": 0.2318182,
                "tempo": 120.0
            },
            {
                "start_time": 7.9272727,
                "end_time": 8.2954545,
                "pitch": 65,
                "velocity": 101,
                "duration": 0.3681818,
                "tempo": 120.0
            },
            {
                "start_time": 8.3113636,
                "end_time": 8.6636364,
                "pitch": 58,
                "velocity": 101,
                "duration": 0.3522727,
                "tempo": 120.0
            },
            {
                "start_time": 8.6818182,
                "end_time": 9.1636364,
                "pitch": 65,
                "velocity": 101,
                "duration": 0.4818182,
                "tempo": 120.0
            },
            {
                "start_time": 9.1818182,
                "end_time": 9.2977273,
                "pitch": 65,
                "velocity": 101,
                "duration": 0.1159091,
                "tempo": 120.0
            },
            {
                "start_time": 9.3136364,
                "end_time": 9.4136364,
                "pitch": 68,
                "velocity": 101,
                "duration": 0.1,
                "tempo": 120.0
            },
            {
                "start_time": 9.4318182,
                "end_time": 9.6636364,
                "pitch": 65,
                "velocity": 101,
                "duration": 0.2318182,
                "tempo": 120.0
            },
            {
                "start_time": 9.6818182,
                "end_time": 9.9136364,
                "pitch": 64,
                "velocity": 101,
                "duration": 0.2318182,
                "tempo": 120.0
            },
            {
                "start_time": 9.9318182,
                "end_time": 10.2954545,
                "pitch": 65,
                "velocity": 101,
                "duration": 0.3636364,
                "tempo": 120.0
            },
            {
                "start_time": 10.3113636,
                "end_time": 10.6568182,
                "pitch": 58,
                "velocity": 101,
                "duration": 0.3454545,
                "tempo": 120.0
            },
            {
                "start_time": 10.6727273,
                "end_time": 11.1681818,
                "pitch": 65,
                "velocity": 101,
                "duration": 0.4954545,
                "tempo": 120.0
            },
            {
                "start_time": 11.1863636,
                "end_time": 11.3022727,
                "pitch": 65,
                "velocity": 101,
                "duration": 0.1159091,
                "tempo": 120.0
            },
            {
                "start_time": 11.3181818,
                "end_time": 11.4181818,
                "pitch": 68,
                "velocity": 101,
                "duration": 0.1,
                "tempo": 120.0
            },
            {
                "start_time": 11.4363636,
                "end_time": 11.6681818,
                "pitch": 65,
                "velocity": 101,
                "duration": 0.2318182,
                "tempo": 120.0
            },
            {
                "start_time": 11.6863636,
                "end_time": 11.9181818,
                "pitch": 64,
                "velocity": 101,
                "duration": 0.2318182,
                "tempo": 120.0
            },
            {
                "start_time": 11.9363636,
                "end_time": 12.3022727,
                "pitch": 65,
                "velocity": 101,
                "duration": 0.3659091,
                "tempo": 120.0
            },
            {
                "start_time": 12.3181818,
                "end_time": 12.6681818,
                "pitch": 58,
                "velocity": 101,
                "duration": 0.35,
                "tempo": 120.0
            },
            {
                "start_time": 12.6863636,
                "end_time": 13.1681818,
                "pitch": 65,
                "velocity": 101,
                "duration": 0.4818182,
                "tempo": 120.0
            },
            {
                "start_time": 13.1863636,
                "end_time": 13.3022727,
                "pitch": 65,
                "velocity": 101,
                "duration": 0.1159091,
                "tempo": 120.0
            },
            {
                "start_time": 13.3181818,
                "end_time": 13.4181818,
                "pitch": 68,
                "velocity": 101,
                "duration": 0.1,
                "tempo": 120.0
            },
            {
                "start_time": 13.4363636,
                "end_time": 13.6681818,
                "pitch": 65,
                "velocity": 101,
                "duration": 0.2318182,
                "tempo": 120.0
            },
            {
                "start_time": 13.6863636,
                "end_time": 13.9181818,
                "pitch": 64,
                "velocity": 101,
                "duration": 0.2318182,
                "tempo": 120.0
            },
            {
                "start_time": 13.9363636,
                "end_time": 14.3022727,
                "pitch": 65,
                "velocity": 101,
                "duration": 0.3659091,
                "tempo": 120.0
            },
            {
                "start_time": 14.3181818,
                "end_time": 14.6681818,
                "pitch": 58,
                "velocity": 101,
                "duration": 0.35,
                "tempo": 120.0
            },
            {
                "start_time": 14.6863636,
                "end_time": 15.1681818,
                "pitch": 65,
                "velocity": 101,
                "duration": 0.4818182,
                "tempo": 120.0
            },
            {
                "start_time": 15.1863636,
                "end_time": 15.3022727,
                "pitch": 65,
                "velocity": 101,
                "duration": 0.1159091,
                "tempo": 120.0
            },
            {
                "start_time": 15.3181818,
                "end_time": 15.4181818,
                "pitch": 68,
                "velocity": 101,
                "duration": 0.1,
                "tempo": 120.0
            },
            {
                "start_time": 15.4363636,
                "end_time": 15.6681818,
                "pitch": 65,
                "velocity": 101,
                "duration": 0.2318182,
                "tempo": 120.0
            },
            {
                "start_time": 15.6863636,
                "end_time": 15.9181818,
                "pitch": 64,
                "velocity": 101,
                "duration": 0.2318182,
                "tempo": 120.0
            },
            {
                "start_time": 15.9363636,
                "end_time": 16.3022727,
                "pitch": 72,
                "velocity": 101,
                "duration": 0.3659091,
                "tempo": 120.0
            },
            {
                "start_time": 16.3181818,
                "end_time": 16.6681818,
                "pitch": 65,
                "velocity": 101,
                "duration": 0.35,
                "tempo": 120.0
            },
            {
                "start_time": 16.6863636,
                "end_time": 17.1681818,
                "pitch": 72,
                "velocity": 101,
                "duration": 0.4818182,
                "tempo": 120.0
            },
            {
                "start_time": 17.1863636,
                "end_time": 17.3022727,
                "pitch": 72,
                "velocity": 101,
                "duration": 0.1159091,
                "tempo": 120.0
            },
            {
                "start_time": 17.3181818,
                "end_time": 17.4181818,
                "pitch": 75,
                "velocity": 101,
                "duration": 0.1,
                "tempo": 120.0
            },
            {
                "start_time": 17.4363636,
                "end_time": 17.6681818,
                "pitch": 72,
                "velocity": 101,
                "duration": 0.2318182,
                "tempo": 120.0
            },
            {
                "start_time": 17.6863636,
                "end_time": 17.9181818,
                "pitch": 71,
                "velocity": 101,
                "duration": 0.2318182,
                "tempo": 120.0
            },
            {
                "start_time": 17.9363636,
                "end_time": 18.3022727,
                "pitch": 72,
                "velocity": 101,
                "duration": 0.3659091,
                "tempo": 120.0
            },
            {
                "start_time": 18.3181818,
                "end_time": 18.6681818,
                "pitch": 65,
                "velocity": 101,
                "duration": 0.35,
                "tempo": 120.0
            },
            {
                "start_time": 18.6863636,
                "end_time": 19.1681818,
                "pitch": 72,
                "velocity": 101,
                "duration": 0.4818182,
                "tempo": 120.0
            },
            {
                "start_time": 19.1863636,
                "end_time": 19.3022727,
                "pitch": 72,
                "velocity": 101,
                "duration": 0.1159091,
                "tempo": 120.0
            },
            {
                "start_time": 19.3181818,
                "end_time": 19.4181818,
                "pitch": 75,
                "velocity": 101,
                "duration": 0.1,
                "tempo": 120.0
            },
            {
                "start_time": 19.4363636,
                "end_time": 19.6681818,
                "pitch": 72,
                "velocity": 101,
                "duration": 0.2318182,
                "tempo": 120.0
            },
            {
                "start_time": 19.6863636,
                "end_time": 19.9181818,
                "pitch": 71,
                "velocity": 101,
                "duration": 0.2318182,
                "tempo": 120.0
            },
            {
                "start_time": 19.9363636,
                "end_time": 20.3022727,
                "pitch": 72,
                "velocity": 101,
                "duration": 0.3659091,
                "tempo": 120.0
            },
            {
                "start_time": 20.3181818,
                "end_time": 20.6681818,
                "pitch": 65,
                "velocity": 101,
                "duration": 0.35,
                "tempo": 120.0
            },
            {
                "start_time": 20.6863636,
                "end_time": 21.1681818,
                "pitch": 72,
                "velocity": 101,
                "duration": 0.4818182,
                "tempo": 120.0
            },
            {
                "start_time": 21.1863636,
                "end_time": 21.3022727,
                "pitch": 72,
                "velocity": 101,
                "duration": 0.1159091,
                "tempo": 120.0
            },
            {
                "start_time": 21.3181818,
                "end_time": 21.4181818,
                "pitch": 75,
                "velocity": 101,
                "duration": 0.1,
                "tempo": 120.0
            },
            {
                "start_time": 21.4363636,
                "end_time": 21.6681818,
                "pitch": 72,
                "velocity": 101,
                "duration": 0.2318182,
                "tempo": 120.0
            },
            {
                "start_time": 21.6863636,
                "end_time": 21.9181818,
                "pitch": 71,
                "velocity": 101,
                "duration": 0.2318182,
                "tempo": 120.0
            },
            {
                "start_time": 21.9363636,
                "end_time": 23.9181818,
                "pitch": 72,
                "velocity": 101,
                "duration": 1.9818182,
                "tempo": 120.0
            },
            {
                "start_time": 23.9363636,
                "end_time": 24.0522727,
                "pitch": 67,
                "velocity": 101,
                "duration": 0.1159091,
                "tempo": 120.0
            },
            {
                "start_time": 24.0681818,
                "end_time": 25.3022727,
                "pitch": 68,
                "velocity": 101,
                "duration": 1.2340909,
                "tempo": 120.0
            },
            {
                "start_time": 25.3181818,
                "end_time": 25.4181818,
                "pitch": 67,
                "velocity": 101,
                "duration": 0.1,
                "tempo": 120.0
            },
            {
                "start_time": 25.4363636,
                "end_time": 25.6363636,
                "pitch": 68,
                "velocity": 101,
                "duration": 0.2,
                "tempo": 120.0
            },
            {
                "start_time": 25.6522727,
                "end_time": 25.9181818,
                "pitch": 67,
                "velocity": 101,
                "duration": 0.2659091,
                "tempo": 120.0
            },
            {
                "start_time": 25.9363636,
                "end_time": 27.9181818,
                "pitch": 60,
                "velocity": 101,
                "duration": 1.9818182,
                "tempo": 120.0
            },
            {
                "start_time": 27.9363636,
                "end_time": 28.0522727,
                "pitch": 67,
                "velocity": 101,
                "duration": 0.1159091,
                "tempo": 120.0
            },
            {
                "start_time": 28.0681818,
                "end_time": 29.6681818,
                "pitch": 68,
                "velocity": 101,
                "duration": 1.6,
                "tempo": 120.0
            },
            {
                "start_time": 29.6863636,
                "end_time": 29.9181818,
                "pitch": 67,
                "velocity": 101,
                "duration": 0.2318182,
                "tempo": 120.0
            },
            {
                "start_time": 29.9363636,
                "end_time": 31.9181818,
                "pitch": 70,
                "velocity": 101,
                "duration": 1.9818182,
                "tempo": 120.0
            },
            {
                "start_time": 31.9363636,
                "end_time": 32.0522727,
                "pitch": 65,
                "velocity": 101,
                "duration": 0.1159091,
                "tempo": 120.0
            },
            {
                "start_time": 32.0681818,
                "end_time": 32.3022727,
                "pitch": 68,
                "velocity": 101,
                "duration": 0.2340909,
                "tempo": 120.0
            },
            {
                "start_time": 32.3181818,
                "end_time": 32.4181818,
                "pitch": 65,
                "velocity": 101,
                "duration": 0.1,
                "tempo": 120.0
            },
            {
                "start_time": 32.4363636,
                "end_time": 32.6681818,
                "pitch": 70,
                "velocity": 101,
                "duration": 0.2318182,
                "tempo": 120.0
            },
            {
                "start_time": 32.6863636,
                "end_time": 32.7522727,
                "pitch": 65,
                "velocity": 101,
                "duration": 0.0659091,
                "tempo": 120.0
            },
            {
                "start_time": 32.7681818,
                "end_time": 33.9181818,
                "pitch": 73,
                "velocity": 101,
                "duration": 1.15,
                "tempo": 120.0
            },
            {
                "start_time": 33.9363636,
                "end_time": 34.0522727,
                "pitch": 65,
                "velocity": 101,
                "duration": 0.1159091,
                "tempo": 120.0
            },
            {
                "start_time": 34.0681818,
                "end_time": 34.3022727,
                "pitch": 68,
                "velocity": 101,
                "duration": 0.2340909,
                "tempo": 120.0
            },
            {
                "start_time": 34.3181818,
                "end_time": 34.4181818,
                "pitch": 65,
                "velocity": 101,
                "duration": 0.1,
                "tempo": 120.0
            },
            {
                "start_time": 34.4363636,
                "end_time": 34.6681818,
                "pitch": 70,
                "velocity": 101,
                "duration": 0.2318182,
                "tempo": 120.0
            },
            {
                "start_time": 34.6863636,
                "end_time": 34.8022727,
                "pitch": 65,
                "velocity": 101,
                "duration": 0.1159091,
                "tempo": 120.0
            },
            {
                "start_time": 34.8181818,
                "end_time": 35.9181818,
                "pitch": 72,
                "velocity": 101,
                "duration": 1.1,
                "tempo": 120.0
            },
            {
                "start_time": 35.9363636,
                "end_time": 36.0522727,
                "pitch": 65,
                "velocity": 101,
                "duration": 0.1159091,
                "tempo": 120.0
            },
            {
                "start_time": 36.0681818,
                "end_time": 36.3022727,
                "pitch": 68,
                "velocity": 101,
                "duration": 0.2340909,
                "tempo": 120.0
            },
            {
                "start_time": 36.3181818,
                "end_time": 36.4181818,
                "pitch": 65,
                "velocity": 101,
                "duration": 0.1,
                "tempo": 120.0
            },
            {
                "start_time": 36.4363636,
                "end_time": 36.4681818,
                "pitch": 68,
                "velocity": 101,
                "duration": 0.0318182,
                "tempo": 120.0
            },
            {
                "start_time": 36.4863636,
                "end_time": 36.6681818,
                "pitch": 70,
                "velocity": 101,
                "duration": 0.1818182,
                "tempo": 120.0
            },
            {
                "start_time": 36.6863636,
                "end_time": 36.8022727,
                "pitch": 65,
                "velocity": 101,
                "duration": 0.1159091,
                "tempo": 120.0
            },
            {
                "start_time": 36.8181818,
                "end_time": 37.9181818,
                "pitch": 73,
                "velocity": 101,
                "duration": 1.1,
                "tempo": 120.0
            },
            {
                "start_time": 37.9363636,
                "end_time": 38.0522727,
                "pitch": 65,
                "velocity": 101,
                "duration": 0.1159091,
                "tempo": 120.0
            },
            {
                "start_time": 38.0681818,
                "end_time": 38.3022727,
                "pitch": 68,
                "velocity": 101,
                "duration": 0.2340909,
                "tempo": 120.0
            },
            {
                "start_time": 38.3181818,
                "end_time": 38.4181818,
                "pitch": 65,
                "velocity": 101,
                "duration": 0.1,
                "tempo": 120.0
            },
            {
                "start_time": 38.4363636,
                "end_time": 38.6681818,
                "pitch": 70,
                "velocity": 101,
                "duration": 0.2318182,
                "tempo": 120.0
            },
            {
                "start_time": 38.6863636,
                "end_time": 38.8022727,
                "pitch": 65,
                "velocity": 101,
                "duration": 0.1159091,
                "tempo": 120.0
            },
            {
                "start_time": 38.8181818,
                "end_time": 39.9181818,
                "pitch": 68,
                "velocity": 101,
                "duration": 1.1,
                "tempo": 120.0
            },
            {
                "start_time": 39.9363636,
                "end_time": 40.0522727,
                "pitch": 58,
                "velocity": 101,
                "duration": 0.1159091,
                "tempo": 120.0
            },
            {
                "start_time": 40.0681818,
                "end_time": 40.3022727,
                "pitch": 61,
                "velocity": 101,
                "duration": 0.2340909,
                "tempo": 120.0
            },
            {
                "start_time": 40.3181818,
                "end_time": 40.4181818,
                "pitch": 58,
                "velocity": 101,
                "duration": 0.1,
                "tempo": 120.0
            },
            {
                "start_time": 40.4363636,
                "end_time": 40.6681818,
                "pitch": 63,
                "velocity": 101,
                "duration": 0.2318182,
                "tempo": 120.0
            },
            {
                "start_time": 40.6863636,
                "end_time": 40.8022727,
                "pitch": 58,
                "velocity": 101,
                "duration": 0.1159091,
                "tempo": 120.0
            },
            {
                "start_time": 40.8181818,
                "end_time": 41.9181818,
                "pitch": 61,
                "velocity": 101,
                "duration": 1.1,
                "tempo": 120.0
            },
            {
                "start_time": 41.9363636,
                "end_time": 42.0522727,
                "pitch": 58,
                "velocity": 101,
                "duration": 0.1159091,
                "tempo": 120.0
            },
            {
                "start_time": 42.0681818,
                "end_time": 42.3022727,
                "pitch": 61,
                "velocity": 101,
                "duration": 0.2340909,
                "tempo": 120.0
            },
            {
                "start_time": 42.3181818,
                "end_time": 42.4181818,
                "pitch": 58,
                "velocity": 101,
                "duration": 0.1,
                "tempo": 120.0
            },
            {
                "start_time": 42.4363636,
                "end_time": 42.6681818,
                "pitch": 63,
                "velocity": 101,
                "duration": 0.2318182,
                "tempo": 120.0
            },
            {
                "start_time": 42.6863636,
                "end_time": 42.8022727,
                "pitch": 58,
                "velocity": 101,
                "duration": 0.1159091,
                "tempo": 120.0
            },
            {
                "start_time": 42.8181818,
                "end_time": 43.9181818,
                "pitch": 66,
                "velocity": 101,
                "duration": 1.1,
                "tempo": 120.0
            },
            {
                "start_time": 43.9363636,
                "end_time": 44.0522727,
                "pitch": 58,
                "velocity": 101,
                "duration": 0.1159091,
                "tempo": 120.0
            },
            {
                "start_time": 44.0681818,
                "end_time": 44.3022727,
                "pitch": 61,
                "velocity": 101,
                "duration": 0.2340909,
                "tempo": 120.0
            },
            {
                "start_time": 44.3181818,
                "end_time": 44.4181818,
                "pitch": 58,
                "velocity": 101,
                "duration": 0.1,
                "tempo": 120.0
            },
            {
                "start_time": 44.4363636,
                "end_time": 44.6681818,
                "pitch": 63,
                "velocity": 101,
                "duration": 0.2318182,
                "tempo": 120.0
            },
            {
                "start_time": 44.6863636,
                "end_time": 44.8022727,
                "pitch": 58,
                "velocity": 101,
                "duration": 0.1159091,
                "tempo": 120.0
            },
            {
                "start_time": 44.8181818,
                "end_time": 45.9181818,
                "pitch": 61,
                "velocity": 101,
                "duration": 1.1,
                "tempo": 120.0
            },
            {
                "start_time": 45.9363636,
                "end_time": 46.0522727,
                "pitch": 58,
                "velocity": 101,
                "duration": 0.1159091,
                "tempo": 120.0
            },
            {
                "start_time": 46.0681818,
                "end_time": 46.3022727,
                "pitch": 61,
                "velocity": 101,
                "duration": 0.2340909,
                "tempo": 120.0
            },
            {
                "start_time": 46.3181818,
                "end_time": 46.4181818,
                "pitch": 58,
                "velocity": 101,
                "duration": 0.1,
                "tempo": 120.0
            },
            {
                "start_time": 46.4363636,
                "end_time": 46.6681818,
                "pitch": 63,
                "velocity": 101,
                "duration": 0.2318182,
                "tempo": 120.0
            },
            {
                "start_time": 46.6863636,
                "end_time": 46.8022727,
                "pitch": 58,
                "velocity": 101,
                "duration": 0.1159091,
                "tempo": 120.0
            },
            {
                "start_time": 46.8181818,
                "end_time": 47.9181818,
                "pitch": 66,
                "velocity": 101,
                "duration": 1.1,
                "tempo": 120.0
            },
            {
                "start_time": 47.9363636,
                "end_time": 48.0522727,
                "pitch": 67,
                "velocity": 101,
                "duration": 0.1159091,
                "tempo": 120.0
            },
            {
                "start_time": 48.0681818,
                "end_time": 49.6681818,
                "pitch": 68,
                "velocity": 101,
                "duration": 1.6,
                "tempo": 120.0
            },
            {
                "start_time": 49.6863636,
                "end_time": 49.9181818,
                "pitch": 67,
                "velocity": 101,
                "duration": 0.2318182,
                "tempo": 120.0
            },
            {
                "start_time": 49.9363636,
                "end_time": 51.6681818,
                "pitch": 65,
                "velocity": 101,
                "duration": 1.7318182,
                "tempo": 120.0
            },
            {
                "start_time": 51.6863636,
                "end_time": 51.9181818,
                "pitch": 59,
                "velocity": 101,
                "duration": 0.2318182,
                "tempo": 120.0
            },
            {
                "start_time": 51.9363636,
                "end_time": 52.1681818,
                "pitch": 75,
                "velocity": 101,
                "duration": 0.2318182,
                "tempo": 120.0
            },
            {
                "start_time": 52.1863636,
                "end_time": 54.0863636,
                "pitch": 72,
                "velocity": 101,
                "duration": 1.9,
                "tempo": 120.0
            }
        ],
        "Electric Guitar (clean)": [
            {
                "start_time": 0.0,
                "end_time": 0.1590909,
                "pitch": 41,
                "velocity": 51,
                "duration": 0.1590909,
                "tempo": 120.0
            },
            {
                "start_time": 0.1727273,
                "end_time": 0.2886364,
                "pitch": 41,
                "velocity": 51,
                "duration": 0.1159091,
                "tempo": 120.0
            },
            {
                "start_time": 0.3068182,
                "end_time": 0.6568182,
                "pitch": 41,
                "velocity": 51,
                "duration": 0.35,
                "tempo": 120.0
            },
            {
                "start_time": 0.6727273,
                "end_time": 0.9068182,
                "pitch": 44,
                "velocity": 51,
                "duration": 0.2340909,
                "tempo": 120.0
            },
            {
                "start_time": 0.9227273,
                "end_time": 1.1568182,
                "pitch": 41,
                "velocity": 51,
                "duration": 0.2340909,
                "tempo": 120.0
            },
            {
                "start_time": 1.1727273,
                "end_time": 1.2886364,
                "pitch": 41,
                "velocity": 51,
                "duration": 0.1159091,
                "tempo": 120.0
            },
            {
                "start_time": 1.3068182,
                "end_time": 1.6568182,
                "pitch": 41,
                "velocity": 51,
                "duration": 0.35,
                "tempo": 120.0
            },
            {
                "start_time": 1.6727273,
                "end_time": 1.9068182,
                "pitch": 44,
                "velocity": 51,
                "duration": 0.2340909,
                "tempo": 120.0
            },
            {
                "start_time": 1.9227273,
                "end_time": 2.1568182,
                "pitch": 41,
                "velocity": 51,
                "duration": 0.2340909,
                "tempo": 120.0
            },
            {
                "start_time": 2.1727273,
                "end_time": 2.2909091,
                "pitch": 41,
                "velocity": 51,
                "duration": 0.1181818,
                "tempo": 120.0
            },
            {
                "start_time": 2.3068182,
                "end_time": 2.6590909,
                "pitch": 41,
                "velocity": 51,
                "duration": 0.3522727,
                "tempo": 120.0
            },
            {
                "start_time": 2.6772727,
                "end_time": 2.9090909,
                "pitch": 44,
                "velocity": 51,
                "duration": 0.2318182,
                "tempo": 120.0
            },
            {
                "start_time": 2.9272727,
                "end_time": 3.1590909,
                "pitch": 41,
                "velocity": 51,
                "duration": 0.2318182,
                "tempo": 120.0
            },
            {
                "start_time": 3.1772727,
                "end_time": 3.2931818,
                "pitch": 41,
                "velocity": 51,
                "duration": 0.1159091,
                "tempo": 120.0
            },
            {
                "start_time": 3.3090909,
                "end_time": 3.6590909,
                "pitch": 41,
                "velocity": 51,
                "duration": 0.35,
                "tempo": 120.0
            },
            {
                "start_time": 3.6772727,
                "end_time": 3.9090909,
                "pitch": 44,
                "velocity": 51,
                "duration": 0.2318182,
                "tempo": 120.0
            },
            {
                "start_time": 3.9272727,
                "end_time": 4.1590909,
                "pitch": 41,
                "velocity": 51,
                "duration": 0.2318182,
                "tempo": 120.0
            },
            {
                "start_time": 4.1772727,
                "end_time": 4.2931818,
                "pitch": 41,
                "velocity": 51,
                "duration": 0.1159091,
                "tempo": 120.0
            },
            {
                "start_time": 4.3090909,
                "end_time": 4.6590909,
                "pitch": 41,
                "velocity": 51,
                "duration": 0.35,
                "tempo": 120.0
            },
            {
                "start_time": 4.6772727,
                "end_time": 4.9090909,
                "pitch": 44,
                "velocity": 51,
                "duration": 0.2318182,
                "tempo": 120.0
            },
            {
                "start_time": 4.9272727,
                "end_time": 5.1590909,
                "pitch": 41,
                "velocity": 51,
                "duration": 0.2318182,
                "tempo": 120.0
            },
            {
                "start_time": 5.1772727,
                "end_time": 5.2931818,
                "pitch": 41,
                "velocity": 51,
                "duration": 0.1159091,
                "tempo": 120.0
            },
            {
                "start_time": 5.3090909,
                "end_time": 5.6590909,
                "pitch": 41,
                "velocity": 51,
                "duration": 0.35,
                "tempo": 120.0
            },
            {
                "start_time": 5.6772727,
                "end_time": 5.9090909,
                "pitch": 44,
                "velocity": 51,
                "duration": 0.2318182,
                "tempo": 120.0
            },
            {
                "start_time": 5.9272727,
                "end_time": 6.1590909,
                "pitch": 41,
                "velocity": 51,
                "duration": 0.2318182,
                "tempo": 120.0
            },
            {
                "start_time": 6.1772727,
                "end_time": 6.2931818,
                "pitch": 41,
                "velocity": 51,
                "duration": 0.1159091,
                "tempo": 120.0
            },
            {
                "start_time": 6.3090909,
                "end_time": 6.6590909,
                "pitch": 41,
                "velocity": 51,
                "duration": 0.35,
                "tempo": 120.0
            },
            {
                "start_time": 6.6772727,
                "end_time": 6.9090909,
                "pitch": 44,
                "velocity": 51,
                "duration": 0.2318182,
                "tempo": 120.0
            },
            {
                "start_time": 6.9272727,
                "end_time": 7.1590909,
                "pitch": 41,
                "velocity": 51,
                "duration": 0.2318182,
                "tempo": 120.0
            },
            {
                "start_time": 7.1772727,
                "end_time": 7.2931818,
                "pitch": 41,
                "velocity": 51,
                "duration": 0.1159091,
                "tempo": 120.0
            },
            {
                "start_time": 7.3090909,
                "end_time": 7.6590909,
                "pitch": 41,
                "velocity": 51,
                "duration": 0.35,
                "tempo": 120.0
            },
            {
                "start_time": 7.6772727,
                "end_time": 7.9090909,
                "pitch": 44,
                "velocity": 51,
                "duration": 0.2318182,
                "tempo": 120.0
            },
            {
                "start_time": 7.9272727,
                "end_time": 8.1590909,
                "pitch": 41,
                "velocity": 51,
                "duration": 0.2318182,
                "tempo": 120.0
            },
            {
                "start_time": 8.1772727,
                "end_time": 8.2954545,
                "pitch": 41,
                "velocity": 51,
                "duration": 0.1181818,
                "tempo": 120.0
            },
            {
                "start_time": 8.3113636,
                "end_time": 8.6636364,
                "pitch": 41,
                "velocity": 51,
                "duration": 0.3522727,
                "tempo": 120.0
            },
            {
                "start_time": 8.6818182,
                "end_time": 8.9136364,
                "pitch": 44,
                "velocity": 51,
                "duration": 0.2318182,
                "tempo": 120.0
            },
            {
                "start_time": 8.9318182,
                "end_time": 9.1636364,
                "pitch": 41,
                "velocity": 51,
                "duration": 0.2318182,
                "tempo": 120.0
            },
            {
                "start_time": 9.1818182,
                "end_time": 9.2977273,
                "pitch": 41,
                "velocity": 51,
                "duration": 0.1159091,
                "tempo": 120.0
            },
            {
                "start_time": 9.3136364,
                "end_time": 9.6636364,
                "pitch": 41,
                "velocity": 51,
                "duration": 0.35,
                "tempo": 120.0
            },
            {
                "start_time": 9.6818182,
                "end_time": 9.9136364,
                "pitch": 44,
                "velocity": 51,
                "duration": 0.2318182,
                "tempo": 120.0
            },
            {
                "start_time": 9.9318182,
                "end_time": 10.1636364,
                "pitch": 41,
                "velocity": 51,
                "duration": 0.2318182,
                "tempo": 120.0
            },
            {
                "start_time": 10.1818182,
                "end_time": 10.2954545,
                "pitch": 41,
                "velocity": 51,
                "duration": 0.1136364,
                "tempo": 120.0
            },
            {
                "start_time": 10.3113636,
                "end_time": 10.6568182,
                "pitch": 41,
                "velocity": 51,
                "duration": 0.3454545,
                "tempo": 120.0
            },
            {
                "start_time": 10.6727273,
                "end_time": 10.9113636,
                "pitch": 44,
                "velocity": 51,
                "duration": 0.2386364,
                "tempo": 120.0
            },
            {
                "start_time": 10.9295455,
                "end_time": 11.1681818,
                "pitch": 41,
                "velocity": 51,
                "duration": 0.2386364,
                "tempo": 120.0
            },
            {
                "start_time": 11.1863636,
                "end_time": 11.3022727,
                "pitch": 41,
                "velocity": 51,
                "duration": 0.1159091,
                "tempo": 120.0
            },
            {
                "start_time": 11.3181818,
                "end_time": 11.6681818,
                "pitch": 41,
                "velocity": 51,
                "duration": 0.35,
                "tempo": 120.0
            },
            {
                "start_time": 11.6863636,
                "end_time": 11.9181818,
                "pitch": 44,
                "velocity": 51,
                "duration": 0.2318182,
                "tempo": 120.0
            },
            {
                "start_time": 11.9363636,
                "end_time": 12.1681818,
                "pitch": 41,
                "velocity": 51,
                "duration": 0.2318182,
                "tempo": 120.0
            },
            {
                "start_time": 12.1863636,
                "end_time": 12.3022727,
                "pitch": 41,
                "velocity": 51,
                "duration": 0.1159091,
                "tempo": 120.0
            },
            {
                "start_time": 12.3181818,
                "end_time": 12.6681818,
                "pitch": 41,
                "velocity": 51,
                "duration": 0.35,
                "tempo": 120.0
            },
            {
                "start_time": 12.6863636,
                "end_time": 12.9181818,
                "pitch": 44,
                "velocity": 51,
                "duration": 0.2318182,
                "tempo": 120.0
            },
            {
                "start_time": 12.9363636,
                "end_time": 13.1681818,
                "pitch": 41,
                "velocity": 51,
                "duration": 0.2318182,
                "tempo": 120.0
            },
            {
                "start_time": 13.1863636,
                "end_time": 13.3022727,
                "pitch": 41,
                "velocity": 51,
                "duration": 0.1159091,
                "tempo": 120.0
            },
            {
                "start_time": 13.3181818,
                "end_time": 13.6681818,
                "pitch": 41,
                "velocity": 51,
                "duration": 0.35,
                "tempo": 120.0
            },
            {
                "start_time": 13.6863636,
                "end_time": 13.9181818,
                "pitch": 44,
                "velocity": 51,
                "duration": 0.2318182,
                "tempo": 120.0
            },
            {
                "start_time": 13.9363636,
                "end_time": 14.1681818,
                "pitch": 41,
                "velocity": 51,
                "duration": 0.2318182,
                "tempo": 120.0
            },
            {
                "start_time": 14.1863636,
                "end_time": 14.3022727,
                "pitch": 41,
                "velocity": 51,
                "duration": 0.1159091,
                "tempo": 120.0
            },
            {
                "start_time": 14.3181818,
                "end_time": 14.6681818,
                "pitch": 41,
                "velocity": 51,
                "duration": 0.35,
                "tempo": 120.0
            },
            {
                "start_time": 14.6863636,
                "end_time": 14.9181818,
                "pitch": 44,
                "velocity": 51,
                "duration": 0.2318182,
                "tempo": 120.0
            },
            {
                "start_time": 14.9363636,
                "end_time": 15.1681818,
                "pitch": 41,
                "velocity": 51,
                "duration": 0.2318182,
                "tempo": 120.0
            },
            {
                "start_time": 15.1863636,
                "end_time": 15.3022727,
                "pitch": 41,
                "velocity": 51,
                "duration": 0.1159091,
                "tempo": 120.0
            },
            {
                "start_time": 15.3181818,
                "end_time": 15.6681818,
                "pitch": 41,
                "velocity": 51,
                "duration": 0.35,
                "tempo": 120.0
            },
            {
                "start_time": 15.6863636,
                "end_time": 15.9181818,
                "pitch": 44,
                "velocity": 51,
                "duration": 0.2318182,
                "tempo": 120.0
            },
            {
                "start_time": 15.9363636,
                "end_time": 16.1681818,
                "pitch": 41,
                "velocity": 51,
                "duration": 0.2318182,
                "tempo": 120.0
            },
            {
                "start_time": 16.1863636,
                "end_time": 16.3022727,
                "pitch": 41,
                "velocity": 51,
                "duration": 0.1159091,
                "tempo": 120.0
            },
            {
                "start_time": 16.3181818,
                "end_time": 16.6681818,
                "pitch": 41,
                "velocity": 51,
                "duration": 0.35,
                "tempo": 120.0
            },
            {
                "start_time": 16.6863636,
                "end_time": 16.9181818,
                "pitch": 44,
                "velocity": 51,
                "duration": 0.2318182,
                "tempo": 120.0
            },
            {
                "start_time": 16.9363636,
                "end_time": 17.1681818,
                "pitch": 41,
                "velocity": 51,
                "duration": 0.2318182,
                "tempo": 120.0
            },
            {
                "start_time": 17.1863636,
                "end_time": 17.3022727,
                "pitch": 41,
                "velocity": 51,
                "duration": 0.1159091,
                "tempo": 120.0
            },
            {
                "start_time": 17.3181818,
                "end_time": 17.6681818,
                "pitch": 41,
                "velocity": 51,
                "duration": 0.35,
                "tempo": 120.0
            },
            {
                "start_time": 17.6863636,
                "end_time": 17.9181818,
                "pitch": 44,
                "velocity": 51,
                "duration": 0.2318182,
                "tempo": 120.0
            },
            {
                "start_time": 17.9363636,
                "end_time": 18.1681818,
                "pitch": 41,
                "velocity": 51,
                "duration": 0.2318182,
                "tempo": 120.0
            },
            {
                "start_time": 18.1863636,
                "end_time": 18.3022727,
                "pitch": 41,
                "velocity": 51,
                "duration": 0.1159091,
                "tempo": 120.0
            },
            {
                "start_time": 18.3181818,
                "end_time": 18.6681818,
                "pitch": 41,
                "velocity": 51,
                "duration": 0.35,
                "tempo": 120.0
            },
            {
                "start_time": 18.6863636,
                "end_time": 18.9181818,
                "pitch": 44,
                "velocity": 51,
                "duration": 0.2318182,
                "tempo": 120.0
            },
            {
                "start_time": 18.9363636,
                "end_time": 19.1681818,
                "pitch": 41,
                "velocity": 51,
                "duration": 0.2318182,
                "tempo": 120.0
            },
            {
                "start_time": 19.1863636,
                "end_time": 19.3022727,
                "pitch": 41,
                "velocity": 51,
                "duration": 0.1159091,
                "tempo": 120.0
            },
            {
                "start_time": 19.3181818,
                "end_time": 19.6681818,
                "pitch": 41,
                "velocity": 51,
                "duration": 0.35,
                "tempo": 120.0
            },
            {
                "start_time": 19.6863636,
                "end_time": 19.9181818,
                "pitch": 44,
                "velocity": 51,
                "duration": 0.2318182,
                "tempo": 120.0
            },
            {
                "start_time": 19.9363636,
                "end_time": 20.1681818,
                "pitch": 41,
                "velocity": 51,
                "duration": 0.2318182,
                "tempo": 120.0
            },
            {
                "start_time": 20.1863636,
                "end_time": 20.3022727,
                "pitch": 41,
                "velocity": 51,
                "duration": 0.1159091,
                "tempo": 120.0
            },
            {
                "start_time": 20.3181818,
                "end_time": 20.6681818,
                "pitch": 41,
                "velocity": 51,
                "duration": 0.35,
                "tempo": 120.0
            },
            {
                "start_time": 20.6863636,
                "end_time": 20.9181818,
                "pitch": 44,
                "velocity": 51,
                "duration": 0.2318182,
                "tempo": 120.0
            },
            {
                "start_time": 20.9363636,
                "end_time": 21.1681818,
                "pitch": 41,
                "velocity": 51,
                "duration": 0.2318182,
                "tempo": 120.0
            },
            {
                "start_time": 21.1863636,
                "end_time": 21.3022727,
                "pitch": 41,
                "velocity": 51,
                "duration": 0.1159091,
                "tempo": 120.0
            },
            {
                "start_time": 21.3181818,
                "end_time": 21.6681818,
                "pitch": 41,
                "velocity": 51,
                "duration": 0.35,
                "tempo": 120.0
            },
            {
                "start_time": 21.6863636,
                "end_time": 21.9181818,
                "pitch": 44,
                "velocity": 51,
                "duration": 0.2318182,
                "tempo": 120.0
            },
            {
                "start_time": 21.9363636,
                "end_time": 22.1681818,
                "pitch": 41,
                "velocity": 51,
                "duration": 0.2318182,
                "tempo": 120.0
            },
            {
                "start_time": 22.1863636,
                "end_time": 22.3022727,
                "pitch": 41,
                "velocity": 51,
                "duration": 0.1159091,
                "tempo": 120.0
            },
            {
                "start_time": 22.3181818,
                "end_time": 22.6681818,
                "pitch": 41,
                "velocity": 51,
                "duration": 0.35,
                "tempo": 120.0
            },
            {
                "start_time": 22.6863636,
                "end_time": 22.9181818,
                "pitch": 44,
                "velocity": 51,
                "duration": 0.2318182,
                "tempo": 120.0
            },
            {
                "start_time": 22.9363636,
                "end_time": 23.1681818,
                "pitch": 41,
                "velocity": 51,
                "duration": 0.2318182,
                "tempo": 120.0
            },
            {
                "start_time": 23.1863636,
                "end_time": 23.3022727,
                "pitch": 41,
                "velocity": 51,
                "duration": 0.1159091,
                "tempo": 120.0
            },
            {
                "start_time": 23.3181818,
                "end_time": 23.9181818,
                "pitch": 41,
                "velocity": 51,
                "duration": 0.6,
                "tempo": 120.0
            },
            {
                "start_time": 23.9363636,
                "end_time": 24.1681818,
                "pitch": 41,
                "velocity": 51,
                "duration": 0.2318182,
                "tempo": 120.0
            },
            {
                "start_time": 24.1863636,
                "end_time": 24.3022727,
                "pitch": 41,
                "velocity": 51,
                "duration": 0.1159091,
                "tempo": 120.0
            },
            {
                "start_time": 24.3181818,
                "end_time": 24.6681818,
                "pitch": 41,
                "velocity": 51,
                "duration": 0.35,
                "tempo": 120.0
            },
            {
                "start_time": 24.6863636,
                "end_time": 24.9181818,
                "pitch": 44,
                "velocity": 51,
                "duration": 0.2318182,
                "tempo": 120.0
            },
            {
                "start_time": 24.9363636,
                "end_time": 25.1681818,
                "pitch": 41,
                "velocity": 51,
                "duration": 0.2318182,
                "tempo": 120.0
            },
            {
                "start_time": 25.1863636,
                "end_time": 25.3022727,
                "pitch": 41,
                "velocity": 51,
                "duration": 0.1159091,
                "tempo": 120.0
            },
            {
                "start_time": 25.3181818,
                "end_time": 25.6681818,
                "pitch": 41,
                "velocity": 51,
                "duration": 0.35,
                "tempo": 120.0
            },
            {
                "start_time": 25.6863636,
                "end_time": 25.9181818,
                "pitch": 44,
                "velocity": 51,
                "duration": 0.2318182,
                "tempo": 120.0
            },
            {
                "start_time": 25.9363636,
                "end_time": 26.1681818,
                "pitch": 41,
                "velocity": 51,
                "duration": 0.2318182,
                "tempo": 120.0
            },
            {
                "start_time": 26.1863636,
                "end_time": 26.3022727,
                "pitch": 41,
                "velocity": 51,
                "duration": 0.1159091,
                "tempo": 120.0
            },
            {
                "start_time": 26.3181818,
                "end_time": 26.6681818,
                "pitch": 41,
                "velocity": 51,
                "duration": 0.35,
                "tempo": 120.0
            },
            {
                "start_time": 26.6863636,
                "end_time": 26.9181818,
                "pitch": 44,
                "velocity": 51,
                "duration": 0.2318182,
                "tempo": 120.0
            },
            {
                "start_time": 26.9363636,
                "end_time": 27.1681818,
                "pitch": 41,
                "velocity": 51,
                "duration": 0.2318182,
                "tempo": 120.0
            },
            {
                "start_time": 27.1863636,
                "end_time": 27.3022727,
                "pitch": 41,
                "velocity": 51,
                "duration": 0.1159091,
                "tempo": 120.0
            },
            {
                "start_time": 27.3181818,
                "end_time": 27.6681818,
                "pitch": 41,
                "velocity": 51,
                "duration": 0.35,
                "tempo": 120.0
            },
            {
                "start_time": 27.6863636,
                "end_time": 27.9181818,
                "pitch": 44,
                "velocity": 51,
                "duration": 0.2318182,
                "tempo": 120.0
            },
            {
                "start_time": 27.9363636,
                "end_time": 28.1681818,
                "pitch": 41,
                "velocity": 51,
                "duration": 0.2318182,
                "tempo": 120.0
            },
            {
                "start_time": 28.1863636,
                "end_time": 28.3022727,
                "pitch": 41,
                "velocity": 51,
                "duration": 0.1159091,
                "tempo": 120.0
            },
            {
                "start_time": 28.3181818,
                "end_time": 28.6681818,
                "pitch": 41,
                "velocity": 51,
                "duration": 0.35,
                "tempo": 120.0
            },
            {
                "start_time": 28.6863636,
                "end_time": 28.9181818,
                "pitch": 44,
                "velocity": 51,
                "duration": 0.2318182,
                "tempo": 120.0
            },
            {
                "start_time": 28.9363636,
                "end_time": 29.1681818,
                "pitch": 41,
                "velocity": 51,
                "duration": 0.2318182,
                "tempo": 120.0
            },
            {
                "start_time": 29.1863636,
                "end_time": 29.3022727,
                "pitch": 41,
                "velocity": 51,
                "duration": 0.1159091,
                "tempo": 120.0
            },
            {
                "start_time": 29.3181818,
                "end_time": 29.6681818,
                "pitch": 41,
                "velocity": 51,
                "duration": 0.35,
                "tempo": 120.0
            },
            {
                "start_time": 29.6863636,
                "end_time": 29.9181818,
                "pitch": 44,
                "velocity": 51,
                "duration": 0.2318182,
                "tempo": 120.0
            },
            {
                "start_time": 29.9363636,
                "end_time": 30.1681818,
                "pitch": 41,
                "velocity": 51,
                "duration": 0.2318182,
                "tempo": 120.0
            },
            {
                "start_time": 30.1863636,
                "end_time": 30.3022727,
                "pitch": 41,
                "velocity": 51,
                "duration": 0.1159091,
                "tempo": 120.0
            },
            {
                "start_time": 30.3181818,
                "end_time": 30.6681818,
                "pitch": 41,
                "velocity": 51,
                "duration": 0.35,
                "tempo": 120.0
            },
            {
                "start_time": 30.6863636,
                "end_time": 30.9181818,
                "pitch": 44,
                "velocity": 51,
                "duration": 0.2318182,
                "tempo": 120.0
            },
            {
                "start_time": 30.9363636,
                "end_time": 31.1681818,
                "pitch": 41,
                "velocity": 51,
                "duration": 0.2318182,
                "tempo": 120.0
            },
            {
                "start_time": 31.1863636,
                "end_time": 31.3022727,
                "pitch": 41,
                "velocity": 51,
                "duration": 0.1159091,
                "tempo": 120.0
            },
            {
                "start_time": 31.3181818,
                "end_time": 31.6681818,
                "pitch": 41,
                "velocity": 51,
                "duration": 0.35,
                "tempo": 120.0
            },
            {
                "start_time": 31.6863636,
                "end_time": 31.9181818,
                "pitch": 44,
                "velocity": 51,
                "duration": 0.2318182,
                "tempo": 120.0
            },
            {
                "start_time": 31.9363636,
                "end_time": 32.1681818,
                "pitch": 41,
                "velocity": 51,
                "duration": 0.2318182,
                "tempo": 120.0
            },
            {
                "start_time": 32.1863636,
                "end_time": 32.3022727,
                "pitch": 41,
                "velocity": 51,
                "duration": 0.1159091,
                "tempo": 120.0
            },
            {
                "start_time": 32.3181818,
                "end_time": 32.6681818,
                "pitch": 41,
                "velocity": 51,
                "duration": 0.35,
                "tempo": 120.0
            },
            {
                "start_time": 32.6863636,
                "end_time": 32.9181818,
                "pitch": 44,
                "velocity": 51,
                "duration": 0.2318182,
                "tempo": 120.0
            },
            {
                "start_time": 32.9363636,
                "end_time": 33.1681818,
                "pitch": 41,
                "velocity": 51,
                "duration": 0.2318182,
                "tempo": 120.0
            },
            {
                "start_time": 33.1863636,
                "end_time": 33.3022727,
                "pitch": 41,
                "velocity": 51,
                "duration": 0.1159091,
                "tempo": 120.0
            },
            {
                "start_time": 33.3181818,
                "end_time": 33.6681818,
                "pitch": 41,
                "velocity": 51,
                "duration": 0.35,
                "tempo": 120.0
            },
            {
                "start_time": 33.6863636,
                "end_time": 33.9181818,
                "pitch": 44,
                "velocity": 51,
                "duration": 0.2318182,
                "tempo": 120.0
            },
            {
                "start_time": 33.9363636,
                "end_time": 34.1681818,
                "pitch": 41,
                "velocity": 51,
                "duration": 0.2318182,
                "tempo": 120.0
            },
            {
                "start_time": 34.1863636,
                "end_time": 34.3022727,
                "pitch": 41,
                "velocity": 51,
                "duration": 0.1159091,
                "tempo": 120.0
            },
            {
                "start_time": 34.3181818,
                "end_time": 34.6681818,
                "pitch": 41,
                "velocity": 51,
                "duration": 0.35,
                "tempo": 120.0
            },
            {
                "start_time": 34.6863636,
                "end_time": 34.9181818,
                "pitch": 44,
                "velocity": 51,
                "duration": 0.2318182,
                "tempo": 120.0
            },
            {
                "start_time": 34.9363636,
                "end_time": 35.1681818,
                "pitch": 41,
                "velocity": 51,
                "duration": 0.2318182,
                "tempo": 120.0
            },
            {
                "start_time": 35.1863636,
                "end_time": 35.3022727,
                "pitch": 41,
                "velocity": 51,
                "duration": 0.1159091,
                "tempo": 120.0
            },
            {
                "start_time": 35.3181818,
                "end_time": 35.6681818,
                "pitch": 41,
                "velocity": 51,
                "duration": 0.35,
                "tempo": 120.0
            },
            {
                "start_time": 35.6863636,
                "end_time": 35.9181818,
                "pitch": 44,
                "velocity": 51,
                "duration": 0.2318182,
                "tempo": 120.0
            },
            {
                "start_time": 35.9363636,
                "end_time": 36.1681818,
                "pitch": 41,
                "velocity": 51,
                "duration": 0.2318182,
                "tempo": 120.0
            },
            {
                "start_time": 36.1863636,
                "end_time": 36.3022727,
                "pitch": 41,
                "velocity": 51,
                "duration": 0.1159091,
                "tempo": 120.0
            },
            {
                "start_time": 36.3181818,
                "end_time": 36.6681818,
                "pitch": 41,
                "velocity": 51,
                "duration": 0.35,
                "tempo": 120.0
            },
            {
                "start_time": 36.6863636,
                "end_time": 36.9181818,
                "pitch": 44,
                "velocity": 51,
                "duration": 0.2318182,
                "tempo": 120.0
            },
            {
                "start_time": 36.9363636,
                "end_time": 37.1681818,
                "pitch": 41,
                "velocity": 51,
                "duration": 0.2318182,
                "tempo": 120.0
            },
            {
                "start_time": 37.1863636,
                "end_time": 37.3022727,
                "pitch": 41,
                "velocity": 51,
                "duration": 0.1159091,
                "tempo": 120.0
            },
            {
                "start_time": 37.3181818,
                "end_time": 37.6681818,
                "pitch": 41,
                "velocity": 51,
                "duration": 0.35,
                "tempo": 120.0
            },
            {
                "start_time": 37.6863636,
                "end_time": 37.9181818,
                "pitch": 44,
                "velocity": 51,
                "duration": 0.2318182,
                "tempo": 120.0
            },
            {
                "start_time": 37.9363636,
                "end_time": 38.1681818,
                "pitch": 41,
                "velocity": 51,
                "duration": 0.2318182,
                "tempo": 120.0
            },
            {
                "start_time": 38.1863636,
                "end_time": 38.3022727,
                "pitch": 41,
                "velocity": 51,
                "duration": 0.1159091,
                "tempo": 120.0
            },
            {
                "start_time": 38.3181818,
                "end_time": 38.6681818,
                "pitch": 41,
                "velocity": 51,
                "duration": 0.35,
                "tempo": 120.0
            },
            {
                "start_time": 38.6863636,
                "end_time": 38.9181818,
                "pitch": 44,
                "velocity": 51,
                "duration": 0.2318182,
                "tempo": 120.0
            },
            {
                "start_time": 38.9363636,
                "end_time": 39.1681818,
                "pitch": 41,
                "velocity": 51,
                "duration": 0.2318182,
                "tempo": 120.0
            },
            {
                "start_time": 39.1863636,
                "end_time": 39.3022727,
                "pitch": 41,
                "velocity": 51,
                "duration": 0.1159091,
                "tempo": 120.0
            },
            {
                "start_time": 39.3181818,
                "end_time": 39.6681818,
                "pitch": 41,
                "velocity": 51,
                "duration": 0.35,
                "tempo": 120.0
            },
            {
                "start_time": 39.6863636,
                "end_time": 39.9181818,
                "pitch": 44,
                "velocity": 51,
                "duration": 0.2318182,
                "tempo": 120.0
            },
            {
                "start_time": 39.9363636,
                "end_time": 40.1681818,
                "pitch": 46,
                "velocity": 51,
                "duration": 0.2318182,
                "tempo": 120.0
            },
            {
                "start_time": 40.1863636,
                "end_time": 40.3022727,
                "pitch": 46,
                "velocity": 51,
                "duration": 0.1159091,
                "tempo": 120.0
            },
            {
                "start_time": 40.3181818,
                "end_time": 40.6681818,
                "pitch": 46,
                "velocity": 51,
                "duration": 0.35,
                "tempo": 120.0
            },
            {
                "start_time": 40.6863636,
                "end_time": 40.7181818,
                "pitch": 48,
                "velocity": 51,
                "duration": 0.0318182,
                "tempo": 120.0
            },
            {
                "start_time": 40.7363636,
                "end_time": 40.9181818,
                "pitch": 49,
                "velocity": 51,
                "duration": 0.1818182,
                "tempo": 120.0
            },
            {
                "start_time": 40.9363636,
                "end_time": 41.1681818,
                "pitch": 46,
                "velocity": 51,
                "duration": 0.2318182,
                "tempo": 120.0
            },
            {
                "start_time": 41.1863636,
                "end_time": 41.3022727,
                "pitch": 46,
                "velocity": 51,
                "duration": 0.1159091,
                "tempo": 120.0
            },
            {
                "start_time": 41.3181818,
                "end_time": 41.6681818,
                "pitch": 46,
                "velocity": 51,
                "duration": 0.35,
                "tempo": 120.0
            },
            {
                "start_time": 41.6863636,
                "end_time": 41.9181818,
                "pitch": 49,
                "velocity": 51,
                "duration": 0.2318182,
                "tempo": 120.0
            },
            {
                "start_time": 41.9363636,
                "end_time": 42.1681818,
                "pitch": 46,
                "velocity": 51,
                "duration": 0.2318182,
                "tempo": 120.0
            },
            {
                "start_time": 42.1863636,
                "end_time": 42.3022727,
                "pitch": 46,
                "velocity": 51,
                "duration": 0.1159091,
                "tempo": 120.0
            },
            {
                "start_time": 42.3181818,
                "end_time": 42.6681818,
                "pitch": 46,
                "velocity": 51,
                "duration": 0.35,
                "tempo": 120.0
            },
            {
                "start_time": 42.6863636,
                "end_time": 42.7181818,
                "pitch": 48,
                "velocity": 51,
                "duration": 0.0318182,
                "tempo": 120.0
            },
            {
                "start_time": 42.7363636,
                "end_time": 42.9181818,
                "pitch": 49,
                "velocity": 51,
                "duration": 0.1818182,
                "tempo": 120.0
            },
            {
                "start_time": 42.9363636,
                "end_time": 43.1681818,
                "pitch": 46,
                "velocity": 51,
                "duration": 0.2318182,
                "tempo": 120.0
            },
            {
                "start_time": 43.1863636,
                "end_time": 43.3022727,
                "pitch": 46,
                "velocity": 51,
                "duration": 0.1159091,
                "tempo": 120.0
            },
            {
                "start_time": 43.3181818,
                "end_time": 43.6681818,
                "pitch": 46,
                "velocity": 51,
                "duration": 0.35,
                "tempo": 120.0
            },
            {
                "start_time": 43.6863636,
                "end_time": 43.9181818,
                "pitch": 49,
                "velocity": 51,
                "duration": 0.2318182,
                "tempo": 120.0
            },
            {
                "start_time": 43.9363636,
                "end_time": 44.1681818,
                "pitch": 46,
                "velocity": 51,
                "duration": 0.2318182,
                "tempo": 120.0
            },
            {
                "start_time": 44.1863636,
                "end_time": 44.3022727,
                "pitch": 46,
                "velocity": 51,
                "duration": 0.1159091,
                "tempo": 120.0
            },
            {
                "start_time": 44.3181818,
                "end_time": 44.6681818,
                "pitch": 46,
                "velocity": 51,
                "duration": 0.35,
                "tempo": 120.0
            },
            {
                "start_time": 44.6863636,
                "end_time": 44.7181818,
                "pitch": 48,
                "velocity": 51,
                "duration": 0.0318182,
                "tempo": 120.0
            },
            {
                "start_time": 44.7363636,
                "end_time": 44.9181818,
                "pitch": 49,
                "velocity": 51,
                "duration": 0.1818182,
                "tempo": 120.0
            },
            {
                "start_time": 44.9363636,
                "end_time": 45.1681818,
                "pitch": 46,
                "velocity": 51,
                "duration": 0.2318182,
                "tempo": 120.0
            },
            {
                "start_time": 45.1863636,
                "end_time": 45.3022727,
                "pitch": 46,
                "velocity": 51,
                "duration": 0.1159091,
                "tempo": 120.0
            },
            {
                "start_time": 45.3181818,
                "end_time": 45.6681818,
                "pitch": 46,
                "velocity": 51,
                "duration": 0.35,
                "tempo": 120.0
            },
            {
                "start_time": 45.6863636,
                "end_time": 45.9181818,
                "pitch": 49,
                "velocity": 51,
                "duration": 0.2318182,
                "tempo": 120.0
            },
            {
                "start_time": 45.9363636,
                "end_time": 46.1681818,
                "pitch": 46,
                "velocity": 51,
                "duration": 0.2318182,
                "tempo": 120.0
            },
            {
                "start_time": 46.1863636,
                "end_time": 46.3022727,
                "pitch": 46,
                "velocity": 51,
                "duration": 0.1159091,
                "tempo": 120.0
            },
            {
                "start_time": 46.3181818,
                "end_time": 46.6681818,
                "pitch": 46,
                "velocity": 51,
                "duration": 0.35,
                "tempo": 120.0
            },
            {
                "start_time": 46.6863636,
                "end_time": 46.7181818,
                "pitch": 48,
                "velocity": 51,
                "duration": 0.0318182,
                "tempo": 120.0
            },
            {
                "start_time": 46.7363636,
                "end_time": 46.9181818,
                "pitch": 49,
                "velocity": 51,
                "duration": 0.1818182,
                "tempo": 120.0
            },
            {
                "start_time": 46.9363636,
                "end_time": 47.1681818,
                "pitch": 46,
                "velocity": 51,
                "duration": 0.2318182,
                "tempo": 120.0
            },
            {
                "start_time": 47.1863636,
                "end_time": 47.3022727,
                "pitch": 46,
                "velocity": 51,
                "duration": 0.1159091,
                "tempo": 120.0
            },
            {
                "start_time": 47.3181818,
                "end_time": 47.6681818,
                "pitch": 46,
                "velocity": 51,
                "duration": 0.35,
                "tempo": 120.0
            },
            {
                "start_time": 47.6863636,
                "end_time": 47.9181818,
                "pitch": 49,
                "velocity": 51,
                "duration": 0.2318182,
                "tempo": 120.0
            },
            {
                "start_time": 47.9363636,
                "end_time": 48.1681818,
                "pitch": 41,
                "velocity": 51,
                "duration": 0.2318182,
                "tempo": 120.0
            },
            {
                "start_time": 48.1863636,
                "end_time": 48.3022727,
                "pitch": 41,
                "velocity": 51,
                "duration": 0.1159091,
                "tempo": 120.0
            },
            {
                "start_time": 48.3181818,
                "end_time": 48.6681818,
                "pitch": 41,
                "velocity": 51,
                "duration": 0.35,
                "tempo": 120.0
            },
            {
                "start_time": 48.6863636,
                "end_time": 48.9181818,
                "pitch": 44,
                "velocity": 51,
                "duration": 0.2318182,
                "tempo": 120.0
            },
            {
                "start_time": 48.9363636,
                "end_time": 49.1681818,
                "pitch": 41,
                "velocity": 51,
                "duration": 0.2318182,
                "tempo": 120.0
            },
            {
                "start_time": 49.1863636,
                "end_time": 49.3022727,
                "pitch": 41,
                "velocity": 51,
                "duration": 0.1159091,
                "tempo": 120.0
            },
            {
                "start_time": 49.3181818,
                "end_time": 49.6681818,
                "pitch": 41,
                "velocity": 51,
                "duration": 0.35,
                "tempo": 120.0
            },
            {
                "start_time": 49.6863636,
                "end_time": 49.9181818,
                "pitch": 44,
                "velocity": 51,
                "duration": 0.2318182,
                "tempo": 120.0
            },
            {
                "start_time": 49.9363636,
                "end_time": 50.1681818,
                "pitch": 41,
                "velocity": 51,
                "duration": 0.2318182,
                "tempo": 120.0
            },
            {
                "start_time": 50.1863636,
                "end_time": 50.3022727,
                "pitch": 41,
                "velocity": 51,
                "duration": 0.1159091,
                "tempo": 120.0
            },
            {
                "start_time": 50.3181818,
                "end_time": 50.6681818,
                "pitch": 41,
                "velocity": 51,
                "duration": 0.35,
                "tempo": 120.0
            },
            {
                "start_time": 50.6863636,
                "end_time": 50.9181818,
                "pitch": 44,
                "velocity": 51,
                "duration": 0.2318182,
                "tempo": 120.0
            },
            {
                "start_time": 50.9363636,
                "end_time": 51.1681818,
                "pitch": 41,
                "velocity": 51,
                "duration": 0.2318182,
                "tempo": 120.0
            },
            {
                "start_time": 51.1863636,
                "end_time": 51.3022727,
                "pitch": 41,
                "velocity": 51,
                "duration": 0.1159091,
                "tempo": 120.0
            },
            {
                "start_time": 51.3181818,
                "end_time": 51.6681818,
                "pitch": 41,
                "velocity": 51,
                "duration": 0.35,
                "tempo": 120.0
            },
            {
                "start_time": 51.6863636,
                "end_time": 51.9181818,
                "pitch": 44,
                "velocity": 51,
                "duration": 0.2318182,
                "tempo": 120.0
            },
            {
                "start_time": 51.9363636,
                "end_time": 52.1681818,
                "pitch": 41,
                "velocity": 51,
                "duration": 0.2318182,
                "tempo": 120.0
            },
            {
                "start_time": 52.1863636,
                "end_time": 52.3022727,
                "pitch": 41,
                "velocity": 51,
                "duration": 0.1159091,
                "tempo": 120.0
            },
            {
                "start_time": 52.3181818,
                "end_time": 52.6681818,
                "pitch": 41,
                "velocity": 51,
                "duration": 0.35,
                "tempo": 120.0
            },
            {
                "start_time": 52.6863636,
                "end_time": 52.9181818,
                "pitch": 44,
                "velocity": 51,
                "duration": 0.2318182,
                "tempo": 120.0
            },
            {
                "start_time": 52.9363636,
                "end_time": 53.1681818,
                "pitch": 41,
                "velocity": 51,
                "duration": 0.2318182,
                "tempo": 120.0
            },
            {
                "start_time": 53.1863636,
                "end_time": 53.3022727,
                "pitch": 41,
                "velocity": 51,
                "duration": 0.1159091,
                "tempo": 120.0
            },
            {
                "start_time": 53.3181818,
                "end_time": 53.6681818,
                "pitch": 41,
                "velocity": 51,
                "duration": 0.35,
                "tempo": 120.0
            },
            {
                "start_time": 53.6863636,
                "end_time": 53.9181818,
                "pitch": 44,
                "velocity": 51,
                "duration": 0.2318182,
                "tempo": 120.0
            },
            {
                "start_time": 53.9363636,
                "end_time": 54.1681818,
                "pitch": 41,
                "velocity": 51,
                "duration": 0.2318182,
                "tempo": 120.0
            },
            {
                "start_time": 54.1863636,
                "end_time": 54.3022727,
                "pitch": 41,
                "velocity": 51,
                "duration": 0.1159091,
                "tempo": 120.0
            },
            {
                "start_time": 54.3181818,
                "end_time": 54.6681818,
                "pitch": 41,
                "velocity": 51,
                "duration": 0.35,
                "tempo": 120.0
            },
            {
                "start_time": 54.6863636,
                "end_time": 54.9181818,
                "pitch": 44,
                "velocity": 51,
                "duration": 0.2318182,
                "tempo": 120.0
            },
            {
                "start_time": 54.9363636,
                "end_time": 55.1681818,
                "pitch": 41,
                "velocity": 51,
                "duration": 0.2318182,
                "tempo": 120.0
            },
            {
                "start_time": 55.1863636,
                "end_time": 55.3,
                "pitch": 41,
                "velocity": 51,
                "duration": 0.1136364,
                "tempo": 120.0
            },
            {
                "start_time": 55.3159091,
                "end_time": 55.6613636,
                "pitch": 41,
                "velocity": 51,
                "duration": 0.3454545,
                "tempo": 120.0
            },
            {
                "start_time": 55.6772727,
                "end_time": 55.9272727,
                "pitch": 44,
                "velocity": 51,
                "duration": 0.25,
                "tempo": 120.0
            }
        ],
        "Harpsichord": [
            {
                "start_time": 0.0,
                "end_time": 0.2886364,
                "pitch": 72,
                "velocity": 40,
                "duration": 0.2886364,
                "tempo": 120.0
            },
            {
                "start_time": 0.3068182,
                "end_time": 0.6568182,
                "pitch": 65,
                "velocity": 40,
                "duration": 0.35,
                "tempo": 120.0
            },
            {
                "start_time": 0.6727273,
                "end_time": 1.1568182,
                "pitch": 72,
                "velocity": 40,
                "duration": 0.4840909,
                "tempo": 120.0
            },
            {
                "start_time": 1.1727273,
                "end_time": 1.2886364,
                "pitch": 72,
                "velocity": 40,
                "duration": 0.1159091,
                "tempo": 120.0
            },
            {
                "start_time": 1.3068182,
                "end_time": 1.4068182,
                "pitch": 75,
                "velocity": 40,
                "duration": 0.1,
                "tempo": 120.0
            },
            {
                "start_time": 1.4227273,
                "end_time": 1.6568182,
                "pitch": 72,
                "velocity": 40,
                "duration": 0.2340909,
                "tempo": 120.0
            },
            {
                "start_time": 1.6727273,
                "end_time": 1.9068182,
                "pitch": 71,
                "velocity": 40,
                "duration": 0.2340909,
                "tempo": 120.0
            },
            {
                "start_time": 1.9227273,
                "end_time": 2.2909091,
                "pitch": 72,
                "velocity": 40,
                "duration": 0.3681818,
                "tempo": 120.0
            },
            {
                "start_time": 2.3068182,
                "end_time": 2.6590909,
                "pitch": 65,
                "velocity": 40,
                "duration": 0.3522727,
                "tempo": 120.0
            },
            {
                "start_time": 2.6772727,
                "end_time": 3.1590909,
                "pitch": 72,
                "velocity": 40,
                "duration": 0.4818182,
                "tempo": 120.0
            },
            {
                "start_time": 3.1772727,
                "end_time": 3.2931818,
                "pitch": 72,
                "velocity": 40,
                "duration": 0.1159091,
                "tempo": 120.0
            },
            {
                "start_time": 3.3090909,
                "end_time": 3.4090909,
                "pitch": 75,
                "velocity": 40,
                "duration": 0.1,
                "tempo": 120.0
            },
            {
                "start_time": 3.4272727,
                "end_time": 3.6590909,
                "pitch": 72,
                "velocity": 40,
                "duration": 0.2318182,
                "tempo": 120.0
            },
            {
                "start_time": 3.6772727,
                "end_time": 3.9090909,
                "pitch": 71,
                "velocity": 40,
                "duration": 0.2318182,
                "tempo": 120.0
            },
            {
                "start_time": 3.9272727,
                "end_time": 4.2931818,
                "pitch": 72,
                "velocity": 40,
                "duration": 0.3659091,
                "tempo": 120.0
            },
            {
                "start_time": 4.3090909,
                "end_time": 4.6590909,
                "pitch": 65,
                "velocity": 40,
                "duration": 0.35,
                "tempo": 120.0
            },
            {
                "start_time": 4.6772727,
                "end_time": 5.1590909,
                "pitch": 72,
                "velocity": 40,
                "duration": 0.4818182,
                "tempo": 120.0
            },
            {
                "start_time": 5.1772727,
                "end_time": 5.2931818,
                "pitch": 72,
                "velocity": 40,
                "duration": 0.1159091,
                "tempo": 120.0
            },
            {
                "start_time": 5.3090909,
                "end_time": 5.4090909,
                "pitch": 75,
                "velocity": 40,
                "duration": 0.1,
                "tempo": 120.0
            },
            {
                "start_time": 5.4272727,
                "end_time": 5.6590909,
                "pitch": 72,
                "velocity": 40,
                "duration": 0.2318182,
                "tempo": 120.0
            },
            {
                "start_time": 5.6772727,
                "end_time": 5.9090909,
                "pitch": 71,
                "velocity": 40,
                "duration": 0.2318182,
                "tempo": 120.0
            },
            {
                "start_time": 5.9272727,
                "end_time": 6.2931818,
                "pitch": 72,
                "velocity": 40,
                "duration": 0.3659091,
                "tempo": 120.0
            },
            {
                "start_time": 6.3090909,
                "end_time": 6.6590909,
                "pitch": 65,
                "velocity": 40,
                "duration": 0.35,
                "tempo": 120.0
            },
            {
                "start_time": 6.6772727,
                "end_time": 7.1590909,
                "pitch": 72,
                "velocity": 40,
                "duration": 0.4818182,
                "tempo": 120.0
            },
            {
                "start_time": 7.1772727,
                "end_time": 7.2931818,
                "pitch": 72,
                "velocity": 40,
                "duration": 0.1159091,
                "tempo": 120.0
            },
            {
                "start_time": 7.3090909,
                "end_time": 7.4090909,
                "pitch": 75,
                "velocity": 40,
                "duration": 0.1,
                "tempo": 120.0
            },
            {
                "start_time": 7.4272727,
                "end_time": 7.6590909,
                "pitch": 72,
                "velocity": 40,
                "duration": 0.2318182,
                "tempo": 120.0
            },
            {
                "start_time": 7.6772727,
                "end_time": 7.9090909,
                "pitch": 71,
                "velocity": 40,
                "duration": 0.2318182,
                "tempo": 120.0
            },
            {
                "start_time": 7.9272727,
                "end_time": 8.2954545,
                "pitch": 65,
                "velocity": 40,
                "duration": 0.3681818,
                "tempo": 120.0
            },
            {
                "start_time": 8.3113636,
                "end_time": 8.6636364,
                "pitch": 58,
                "velocity": 40,
                "duration": 0.3522727,
                "tempo": 120.0
            },
            {
                "start_time": 8.6818182,
                "end_time": 9.1636364,
                "pitch": 65,
                "velocity": 40,
                "duration": 0.4818182,
                "tempo": 120.0
            },
            {
                "start_time": 9.1818182,
                "end_time": 9.2977273,
                "pitch": 65,
                "velocity": 40,
                "duration": 0.1159091,
                "tempo": 120.0
            },
            {
                "start_time": 9.3136364,
                "end_time": 9.4136364,
                "pitch": 68,
                "velocity": 40,
                "duration": 0.1,
                "tempo": 120.0
            },
            {
                "start_time": 9.4318182,
                "end_time": 9.6636364,
                "pitch": 65,
                "velocity": 40,
                "duration": 0.2318182,
                "tempo": 120.0
            },
            {
                "start_time": 9.6818182,
                "end_time": 9.9136364,
                "pitch": 64,
                "velocity": 40,
                "duration": 0.2318182,
                "tempo": 120.0
            },
            {
                "start_time": 9.9318182,
                "end_time": 10.2954545,
                "pitch": 65,
                "velocity": 40,
                "duration": 0.3636364,
                "tempo": 120.0
            },
            {
                "start_time": 10.3113636,
                "end_time": 10.6568182,
                "pitch": 58,
                "velocity": 40,
                "duration": 0.3454545,
                "tempo": 120.0
            },
            {
                "start_time": 10.6727273,
                "end_time": 11.1681818,
                "pitch": 65,
                "velocity": 40,
                "duration": 0.4954545,
                "tempo": 120.0
            },
            {
                "start_time": 11.1863636,
                "end_time": 11.3022727,
                "pitch": 65,
                "velocity": 40,
                "duration": 0.1159091,
                "tempo": 120.0
            },
            {
                "start_time": 11.3181818,
                "end_time": 11.4181818,
                "pitch": 68,
                "velocity": 40,
                "duration": 0.1,
                "tempo": 120.0
            },
            {
                "start_time": 11.4363636,
                "end_time": 11.6681818,
                "pitch": 65,
                "velocity": 40,
                "duration": 0.2318182,
                "tempo": 120.0
            },
            {
                "start_time": 11.6863636,
                "end_time": 11.9181818,
                "pitch": 64,
                "velocity": 40,
                "duration": 0.2318182,
                "tempo": 120.0
            },
            {
                "start_time": 11.9363636,
                "end_time": 12.3022727,
                "pitch": 65,
                "velocity": 40,
                "duration": 0.3659091,
                "tempo": 120.0
            },
            {
                "start_time": 12.3181818,
                "end_time": 12.6681818,
                "pitch": 58,
                "velocity": 40,
                "duration": 0.35,
                "tempo": 120.0
            },
            {
                "start_time": 12.6863636,
                "end_time": 13.1681818,
                "pitch": 65,
                "velocity": 40,
                "duration": 0.4818182,
                "tempo": 120.0
            },
            {
                "start_time": 13.1863636,
                "end_time": 13.3022727,
                "pitch": 65,
                "velocity": 40,
                "duration": 0.1159091,
                "tempo": 120.0
            },
            {
                "start_time": 13.3181818,
                "end_time": 13.4181818,
                "pitch": 68,
                "velocity": 40,
                "duration": 0.1,
                "tempo": 120.0
            },
            {
                "start_time": 13.4363636,
                "end_time": 13.6681818,
                "pitch": 65,
                "velocity": 40,
                "duration": 0.2318182,
                "tempo": 120.0
            },
            {
                "start_time": 13.6863636,
                "end_time": 13.9181818,
                "pitch": 64,
                "velocity": 40,
                "duration": 0.2318182,
                "tempo": 120.0
            },
            {
                "start_time": 13.9363636,
                "end_time": 14.3022727,
                "pitch": 65,
                "velocity": 40,
                "duration": 0.3659091,
                "tempo": 120.0
            },
            {
                "start_time": 14.3181818,
                "end_time": 14.6681818,
                "pitch": 58,
                "velocity": 40,
                "duration": 0.35,
                "tempo": 120.0
            },
            {
                "start_time": 14.6863636,
                "end_time": 15.1681818,
                "pitch": 65,
                "velocity": 40,
                "duration": 0.4818182,
                "tempo": 120.0
            },
            {
                "start_time": 15.1863636,
                "end_time": 15.3022727,
                "pitch": 65,
                "velocity": 40,
                "duration": 0.1159091,
                "tempo": 120.0
            },
            {
                "start_time": 15.3181818,
                "end_time": 15.4181818,
                "pitch": 68,
                "velocity": 40,
                "duration": 0.1,
                "tempo": 120.0
            },
            {
                "start_time": 15.4363636,
                "end_time": 15.6681818,
                "pitch": 65,
                "velocity": 40,
                "duration": 0.2318182,
                "tempo": 120.0
            },
            {
                "start_time": 15.6863636,
                "end_time": 15.9181818,
                "pitch": 64,
                "velocity": 40,
                "duration": 0.2318182,
                "tempo": 120.0
            },
            {
                "start_time": 15.9363636,
                "end_time": 16.3022727,
                "pitch": 72,
                "velocity": 40,
                "duration": 0.3659091,
                "tempo": 120.0
            },
            {
                "start_time": 16.3181818,
                "end_time": 16.6681818,
                "pitch": 65,
                "velocity": 40,
                "duration": 0.35,
                "tempo": 120.0
            },
            {
                "start_time": 16.6863636,
                "end_time": 17.1681818,
                "pitch": 72,
                "velocity": 40,
                "duration": 0.4818182,
                "tempo": 120.0
            },
            {
                "start_time": 17.1863636,
                "end_time": 17.3022727,
                "pitch": 72,
                "velocity": 40,
                "duration": 0.1159091,
                "tempo": 120.0
            },
            {
                "start_time": 17.3181818,
                "end_time": 17.4181818,
                "pitch": 75,
                "velocity": 40,
                "duration": 0.1,
                "tempo": 120.0
            },
            {
                "start_time": 17.4363636,
                "end_time": 17.6681818,
                "pitch": 72,
                "velocity": 40,
                "duration": 0.2318182,
                "tempo": 120.0
            },
            {
                "start_time": 17.6863636,
                "end_time": 17.9181818,
                "pitch": 71,
                "velocity": 40,
                "duration": 0.2318182,
                "tempo": 120.0
            },
            {
                "start_time": 17.9363636,
                "end_time": 18.3022727,
                "pitch": 72,
                "velocity": 40,
                "duration": 0.3659091,
                "tempo": 120.0
            },
            {
                "start_time": 18.3181818,
                "end_time": 18.6681818,
                "pitch": 65,
                "velocity": 40,
                "duration": 0.35,
                "tempo": 120.0
            },
            {
                "start_time": 18.6863636,
                "end_time": 19.1681818,
                "pitch": 72,
                "velocity": 40,
                "duration": 0.4818182,
                "tempo": 120.0
            },
            {
                "start_time": 19.1863636,
                "end_time": 19.3022727,
                "pitch": 72,
                "velocity": 40,
                "duration": 0.1159091,
                "tempo": 120.0
            },
            {
                "start_time": 19.3181818,
                "end_time": 19.4181818,
                "pitch": 75,
                "velocity": 40,
                "duration": 0.1,
                "tempo": 120.0
            },
            {
                "start_time": 19.4363636,
                "end_time": 19.6681818,
                "pitch": 72,
                "velocity": 40,
                "duration": 0.2318182,
                "tempo": 120.0
            },
            {
                "start_time": 19.6863636,
                "end_time": 19.9181818,
                "pitch": 71,
                "velocity": 40,
                "duration": 0.2318182,
                "tempo": 120.0
            },
            {
                "start_time": 19.9363636,
                "end_time": 20.3022727,
                "pitch": 72,
                "velocity": 40,
                "duration": 0.3659091,
                "tempo": 120.0
            },
            {
                "start_time": 20.3181818,
                "end_time": 20.6681818,
                "pitch": 65,
                "velocity": 40,
                "duration": 0.35,
                "tempo": 120.0
            },
            {
                "start_time": 20.6863636,
                "end_time": 21.1681818,
                "pitch": 72,
                "velocity": 40,
                "duration": 0.4818182,
                "tempo": 120.0
            },
            {
                "start_time": 21.1863636,
                "end_time": 21.3022727,
                "pitch": 72,
                "velocity": 40,
                "duration": 0.1159091,
                "tempo": 120.0
            },
            {
                "start_time": 21.3181818,
                "end_time": 21.4181818,
                "pitch": 75,
                "velocity": 40,
                "duration": 0.1,
                "tempo": 120.0
            },
            {
                "start_time": 21.4363636,
                "end_time": 21.6681818,
                "pitch": 72,
                "velocity": 40,
                "duration": 0.2318182,
                "tempo": 120.0
            },
            {
                "start_time": 21.6863636,
                "end_time": 21.9181818,
                "pitch": 71,
                "velocity": 40,
                "duration": 0.2318182,
                "tempo": 120.0
            },
            {
                "start_time": 21.9363636,
                "end_time": 23.9181818,
                "pitch": 72,
                "velocity": 40,
                "duration": 1.9818182,
                "tempo": 120.0
            },
            {
                "start_time": 23.9363636,
                "end_time": 24.3022727,
                "pitch": 72,
                "velocity": 40,
                "duration": 0.3659091,
                "tempo": 120.0
            },
            {
                "start_time": 24.3181818,
                "end_time": 24.6681818,
                "pitch": 65,
                "velocity": 40,
                "duration": 0.35,
                "tempo": 120.0
            },
            {
                "start_time": 24.6863636,
                "end_time": 25.1681818,
                "pitch": 72,
                "velocity": 40,
                "duration": 0.4818182,
                "tempo": 120.0
            },
            {
                "start_time": 25.1863636,
                "end_time": 25.3022727,
                "pitch": 72,
                "velocity": 40,
                "duration": 0.1159091,
                "tempo": 120.0
            },
            {
                "start_time": 25.3181818,
                "end_time": 25.4181818,
                "pitch": 75,
                "velocity": 40,
                "duration": 0.1,
                "tempo": 120.0
            },
            {
                "start_time": 25.4363636,
                "end_time": 25.6681818,
                "pitch": 72,
                "velocity": 40,
                "duration": 0.2318182,
                "tempo": 120.0
            },
            {
                "start_time": 25.6863636,
                "end_time": 25.9181818,
                "pitch": 71,
                "velocity": 40,
                "duration": 0.2318182,
                "tempo": 120.0
            },
            {
                "start_time": 25.9363636,
                "end_time": 26.3022727,
                "pitch": 72,
                "velocity": 40,
                "duration": 0.3659091,
                "tempo": 120.0
            },
            {
                "start_time": 26.3181818,
                "end_time": 26.6681818,
                "pitch": 65,
                "velocity": 40,
                "duration": 0.35,
                "tempo": 120.0
            },
            {
                "start_time": 26.6863636,
                "end_time": 27.1681818,
                "pitch": 72,
                "velocity": 40,
                "duration": 0.4818182,
                "tempo": 120.0
            },
            {
                "start_time": 27.1863636,
                "end_time": 27.3022727,
                "pitch": 72,
                "velocity": 40,
                "duration": 0.1159091,
                "tempo": 120.0
            },
            {
                "start_time": 27.3181818,
                "end_time": 27.4181818,
                "pitch": 75,
                "velocity": 40,
                "duration": 0.1,
                "tempo": 120.0
            },
            {
                "start_time": 27.4363636,
                "end_time": 27.6681818,
                "pitch": 72,
                "velocity": 40,
                "duration": 0.2318182,
                "tempo": 120.0
            },
            {
                "start_time": 27.6863636,
                "end_time": 27.9181818,
                "pitch": 71,
                "velocity": 40,
                "duration": 0.2318182,
                "tempo": 120.0
            },
            {
                "start_time": 27.9363636,
                "end_time": 28.3022727,
                "pitch": 72,
                "velocity": 40,
                "duration": 0.3659091,
                "tempo": 120.0
            },
            {
                "start_time": 28.3181818,
                "end_time": 28.6681818,
                "pitch": 65,
                "velocity": 40,
                "duration": 0.35,
                "tempo": 120.0
            },
            {
                "start_time": 28.6863636,
                "end_time": 29.1681818,
                "pitch": 72,
                "velocity": 40,
                "duration": 0.4818182,
                "tempo": 120.0
            },
            {
                "start_time": 29.1863636,
                "end_time": 29.3022727,
                "pitch": 72,
                "velocity": 40,
                "duration": 0.1159091,
                "tempo": 120.0
            },
            {
                "start_time": 29.3181818,
                "end_time": 29.4181818,
                "pitch": 75,
                "velocity": 40,
                "duration": 0.1,
                "tempo": 120.0
            },
            {
                "start_time": 29.4363636,
                "end_time": 29.6681818,
                "pitch": 72,
                "velocity": 40,
                "duration": 0.2318182,
                "tempo": 120.0
            },
            {
                "start_time": 29.6863636,
                "end_time": 29.9181818,
                "pitch": 71,
                "velocity": 40,
                "duration": 0.2318182,
                "tempo": 120.0
            },
            {
                "start_time": 29.9363636,
                "end_time": 30.3022727,
                "pitch": 72,
                "velocity": 40,
                "duration": 0.3659091,
                "tempo": 120.0
            },
            {
                "start_time": 30.3181818,
                "end_time": 30.6681818,
                "pitch": 65,
                "velocity": 40,
                "duration": 0.35,
                "tempo": 120.0
            },
            {
                "start_time": 30.6863636,
                "end_time": 31.1681818,
                "pitch": 72,
                "velocity": 40,
                "duration": 0.4818182,
                "tempo": 120.0
            },
            {
                "start_time": 31.1863636,
                "end_time": 31.3022727,
                "pitch": 72,
                "velocity": 40,
                "duration": 0.1159091,
                "tempo": 120.0
            },
            {
                "start_time": 31.3181818,
                "end_time": 31.4181818,
                "pitch": 75,
                "velocity": 40,
                "duration": 0.1,
                "tempo": 120.0
            },
            {
                "start_time": 31.4363636,
                "end_time": 31.6681818,
                "pitch": 72,
                "velocity": 40,
                "duration": 0.2318182,
                "tempo": 120.0
            },
            {
                "start_time": 31.6863636,
                "end_time": 31.9181818,
                "pitch": 71,
                "velocity": 40,
                "duration": 0.2318182,
                "tempo": 120.0
            },
            {
                "start_time": 31.9363636,
                "end_time": 32.3022727,
                "pitch": 72,
                "velocity": 40,
                "duration": 0.3659091,
                "tempo": 120.0
            },
            {
                "start_time": 32.3181818,
                "end_time": 32.6681818,
                "pitch": 65,
                "velocity": 40,
                "duration": 0.35,
                "tempo": 120.0
            },
            {
                "start_time": 32.6863636,
                "end_time": 33.1681818,
                "pitch": 72,
                "velocity": 40,
                "duration": 0.4818182,
                "tempo": 120.0
            },
            {
                "start_time": 33.1863636,
                "end_time": 33.3022727,
                "pitch": 72,
                "velocity": 40,
                "duration": 0.1159091,
                "tempo": 120.0
            },
            {
                "start_time": 33.3181818,
                "end_time": 33.4181818,
                "pitch": 75,
                "velocity": 40,
                "duration": 0.1,
                "tempo": 120.0
            },
            {
                "start_time": 33.4363636,
                "end_time": 33.6681818,
                "pitch": 72,
                "velocity": 40,
                "duration": 0.2318182,
                "tempo": 120.0
            },
            {
                "start_time": 33.6863636,
                "end_time": 33.9181818,
                "pitch": 71,
                "velocity": 40,
                "duration": 0.2318182,
                "tempo": 120.0
            },
            {
                "start_time": 33.9363636,
                "end_time": 34.3022727,
                "pitch": 72,
                "velocity": 40,
                "duration": 0.3659091,
                "tempo": 120.0
            },
            {
                "start_time": 34.3181818,
                "end_time": 34.6681818,
                "pitch": 65,
                "velocity": 40,
                "duration": 0.35,
                "tempo": 120.0
            },
            {
                "start_time": 34.6863636,
                "end_time": 35.1681818,
                "pitch": 72,
                "velocity": 40,
                "duration": 0.4818182,
                "tempo": 120.0
            },
            {
                "start_time": 35.1863636,
                "end_time": 35.3022727,
                "pitch": 72,
                "velocity": 40,
                "duration": 0.1159091,
                "tempo": 120.0
            },
            {
                "start_time": 35.3181818,
                "end_time": 35.4181818,
                "pitch": 75,
                "velocity": 40,
                "duration": 0.1,
                "tempo": 120.0
            },
            {
                "start_time": 35.4363636,
                "end_time": 35.6681818,
                "pitch": 72,
                "velocity": 40,
                "duration": 0.2318182,
                "tempo": 120.0
            },
            {
                "start_time": 35.6863636,
                "end_time": 35.9181818,
                "pitch": 71,
                "velocity": 40,
                "duration": 0.2318182,
                "tempo": 120.0
            },
            {
                "start_time": 35.9363636,
                "end_time": 36.3022727,
                "pitch": 72,
                "velocity": 40,
                "duration": 0.3659091,
                "tempo": 120.0
            },
            {
                "start_time": 36.3181818,
                "end_time": 36.6681818,
                "pitch": 65,
                "velocity": 40,
                "duration": 0.35,
                "tempo": 120.0
            },
            {
                "start_time": 36.6863636,
                "end_time": 37.1681818,
                "pitch": 72,
                "velocity": 40,
                "duration": 0.4818182,
                "tempo": 120.0
            },
            {
                "start_time": 37.1863636,
                "end_time": 37.3022727,
                "pitch": 72,
                "velocity": 40,
                "duration": 0.1159091,
                "tempo": 120.0
            },
            {
                "start_time": 37.3181818,
                "end_time": 37.4181818,
                "pitch": 75,
                "velocity": 40,
                "duration": 0.1,
                "tempo": 120.0
            },
            {
                "start_time": 37.4363636,
                "end_time": 37.6681818,
                "pitch": 72,
                "velocity": 40,
                "duration": 0.2318182,
                "tempo": 120.0
            },
            {
                "start_time": 37.6863636,
                "end_time": 37.9181818,
                "pitch": 71,
                "velocity": 40,
                "duration": 0.2318182,
                "tempo": 120.0
            },
            {
                "start_time": 37.9363636,
                "end_time": 38.3022727,
                "pitch": 72,
                "velocity": 40,
                "duration": 0.3659091,
                "tempo": 120.0
            },
            {
                "start_time": 38.3181818,
                "end_time": 38.6681818,
                "pitch": 65,
                "velocity": 40,
                "duration": 0.35,
                "tempo": 120.0
            },
            {
                "start_time": 38.6863636,
                "end_time": 39.1681818,
                "pitch": 72,
                "velocity": 40,
                "duration": 0.4818182,
                "tempo": 120.0
            },
            {
                "start_time": 39.1863636,
                "end_time": 39.3022727,
                "pitch": 72,
                "velocity": 40,
                "duration": 0.1159091,
                "tempo": 120.0
            },
            {
                "start_time": 39.3181818,
                "end_time": 39.4181818,
                "pitch": 75,
                "velocity": 40,
                "duration": 0.1,
                "tempo": 120.0
            },
            {
                "start_time": 39.4363636,
                "end_time": 39.6681818,
                "pitch": 72,
                "velocity": 40,
                "duration": 0.2318182,
                "tempo": 120.0
            },
            {
                "start_time": 39.6863636,
                "end_time": 39.9181818,
                "pitch": 71,
                "velocity": 40,
                "duration": 0.2318182,
                "tempo": 120.0
            },
            {
                "start_time": 39.9363636,
                "end_time": 40.3022727,
                "pitch": 65,
                "velocity": 40,
                "duration": 0.3659091,
                "tempo": 120.0
            },
            {
                "start_time": 40.3181818,
                "end_time": 40.6681818,
                "pitch": 58,
                "velocity": 40,
                "duration": 0.35,
                "tempo": 120.0
            },
            {
                "start_time": 40.6863636,
                "end_time": 41.1681818,
                "pitch": 65,
                "velocity": 40,
                "duration": 0.4818182,
                "tempo": 120.0
            },
            {
                "start_time": 41.1863636,
                "end_time": 41.3022727,
                "pitch": 65,
                "velocity": 40,
                "duration": 0.1159091,
                "tempo": 120.0
            },
            {
                "start_time": 41.3181818,
                "end_time": 41.4181818,
                "pitch": 68,
                "velocity": 40,
                "duration": 0.1,
                "tempo": 120.0
            },
            {
                "start_time": 41.4363636,
                "end_time": 41.6681818,
                "pitch": 65,
                "velocity": 40,
                "duration": 0.2318182,
                "tempo": 120.0
            },
            {
                "start_time": 41.6863636,
                "end_time": 41.9181818,
                "pitch": 64,
                "velocity": 40,
                "duration": 0.2318182,
                "tempo": 120.0
            },
            {
                "start_time": 41.9363636,
                "end_time": 42.3022727,
                "pitch": 65,
                "velocity": 40,
                "duration": 0.3659091,
                "tempo": 120.0
            },
            {
                "start_time": 42.3181818,
                "end_time": 42.6681818,
                "pitch": 58,
                "velocity": 40,
                "duration": 0.35,
                "tempo": 120.0
            },
            {
                "start_time": 42.6863636,
                "end_time": 43.1681818,
                "pitch": 65,
                "velocity": 40,
                "duration": 0.4818182,
                "tempo": 120.0
            },
            {
                "start_time": 43.1863636,
                "end_time": 43.3022727,
                "pitch": 65,
                "velocity": 40,
                "duration": 0.1159091,
                "tempo": 120.0
            },
            {
                "start_time": 43.3181818,
                "end_time": 43.4181818,
                "pitch": 68,
                "velocity": 40,
                "duration": 0.1,
                "tempo": 120.0
            },
            {
                "start_time": 43.4363636,
                "end_time": 43.6681818,
                "pitch": 65,
                "velocity": 40,
                "duration": 0.2318182,
                "tempo": 120.0
            },
            {
                "start_time": 43.6863636,
                "end_time": 43.9181818,
                "pitch": 64,
                "velocity": 40,
                "duration": 0.2318182,
                "tempo": 120.0
            },
            {
                "start_time": 43.9363636,
                "end_time": 44.3022727,
                "pitch": 65,
                "velocity": 40,
                "duration": 0.3659091,
                "tempo": 120.0
            },
            {
                "start_time": 44.3181818,
                "end_time": 44.6681818,
                "pitch": 58,
                "velocity": 40,
                "duration": 0.35,
                "tempo": 120.0
            },
            {
                "start_time": 44.6863636,
                "end_time": 45.1681818,
                "pitch": 65,
                "velocity": 40,
                "duration": 0.4818182,
                "tempo": 120.0
            },
            {
                "start_time": 45.1863636,
                "end_time": 45.3022727,
                "pitch": 65,
                "velocity": 40,
                "duration": 0.1159091,
                "tempo": 120.0
            },
            {
                "start_time": 45.3181818,
                "end_time": 45.4181818,
                "pitch": 68,
                "velocity": 40,
                "duration": 0.1,
                "tempo": 120.0
            },
            {
                "start_time": 45.4363636,
                "end_time": 45.6681818,
                "pitch": 65,
                "velocity": 40,
                "duration": 0.2318182,
                "tempo": 120.0
            },
            {
                "start_time": 45.6863636,
                "end_time": 45.9181818,
                "pitch": 64,
                "velocity": 40,
                "duration": 0.2318182,
                "tempo": 120.0
            },
            {
                "start_time": 45.9363636,
                "end_time": 46.3022727,
                "pitch": 65,
                "velocity": 40,
                "duration": 0.3659091,
                "tempo": 120.0
            },
            {
                "start_time": 46.3181818,
                "end_time": 46.6681818,
                "pitch": 58,
                "velocity": 40,
                "duration": 0.35,
                "tempo": 120.0
            },
            {
                "start_time": 46.6863636,
                "end_time": 47.1681818,
                "pitch": 65,
                "velocity": 40,
                "duration": 0.4818182,
                "tempo": 120.0
            },
            {
                "start_time": 47.1863636,
                "end_time": 47.3022727,
                "pitch": 65,
                "velocity": 40,
                "duration": 0.1159091,
                "tempo": 120.0
            },
            {
                "start_time": 47.3181818,
                "end_time": 47.4181818,
                "pitch": 68,
                "velocity": 40,
                "duration": 0.1,
                "tempo": 120.0
            },
            {
                "start_time": 47.4363636,
                "end_time": 47.6681818,
                "pitch": 65,
                "velocity": 40,
                "duration": 0.2318182,
                "tempo": 120.0
            },
            {
                "start_time": 47.6863636,
                "end_time": 47.9181818,
                "pitch": 64,
                "velocity": 40,
                "duration": 0.2318182,
                "tempo": 120.0
            },
            {
                "start_time": 47.9363636,
                "end_time": 48.3022727,
                "pitch": 72,
                "velocity": 40,
                "duration": 0.3659091,
                "tempo": 120.0
            },
            {
                "start_time": 48.3181818,
                "end_time": 48.6681818,
                "pitch": 65,
                "velocity": 40,
                "duration": 0.35,
                "tempo": 120.0
            },
            {
                "start_time": 48.6863636,
                "end_time": 49.1681818,
                "pitch": 72,
                "velocity": 40,
                "duration": 0.4818182,
                "tempo": 120.0
            },
            {
                "start_time": 49.1863636,
                "end_time": 49.3022727,
                "pitch": 72,
                "velocity": 40,
                "duration": 0.1159091,
                "tempo": 120.0
            },
            {
                "start_time": 49.3181818,
                "end_time": 49.4181818,
                "pitch": 75,
                "velocity": 40,
                "duration": 0.1,
                "tempo": 120.0
            },
            {
                "start_time": 49.4363636,
                "end_time": 49.6681818,
                "pitch": 72,
                "velocity": 40,
                "duration": 0.2318182,
                "tempo": 120.0
            },
            {
                "start_time": 49.6863636,
                "end_time": 49.9181818,
                "pitch": 71,
                "velocity": 40,
                "duration": 0.2318182,
                "tempo": 120.0
            },
            {
                "start_time": 49.9363636,
                "end_time": 50.3022727,
                "pitch": 72,
                "velocity": 40,
                "duration": 0.3659091,
                "tempo": 120.0
            },
            {
                "start_time": 50.3181818,
                "end_time": 50.6681818,
                "pitch": 65,
                "velocity": 40,
                "duration": 0.35,
                "tempo": 120.0
            },
            {
                "start_time": 50.6863636,
                "end_time": 51.1681818,
                "pitch": 72,
                "velocity": 40,
                "duration": 0.4818182,
                "tempo": 120.0
            },
            {
                "start_time": 51.1863636,
                "end_time": 51.3022727,
                "pitch": 72,
                "velocity": 40,
                "duration": 0.1159091,
                "tempo": 120.0
            },
            {
                "start_time": 51.3181818,
                "end_time": 51.4181818,
                "pitch": 75,
                "velocity": 40,
                "duration": 0.1,
                "tempo": 120.0
            },
            {
                "start_time": 51.4363636,
                "end_time": 51.6681818,
                "pitch": 72,
                "velocity": 40,
                "duration": 0.2318182,
                "tempo": 120.0
            },
            {
                "start_time": 51.6863636,
                "end_time": 51.9181818,
                "pitch": 71,
                "velocity": 40,
                "duration": 0.2318182,
                "tempo": 120.0
            },
            {
                "start_time": 51.9363636,
                "end_time": 52.3022727,
                "pitch": 72,
                "velocity": 40,
                "duration": 0.3659091,
                "tempo": 120.0
            },
            {
                "start_time": 52.3181818,
                "end_time": 52.6681818,
                "pitch": 65,
                "velocity": 40,
                "duration": 0.35,
                "tempo": 120.0
            },
            {
                "start_time": 52.6863636,
                "end_time": 53.1681818,
                "pitch": 72,
                "velocity": 40,
                "duration": 0.4818182,
                "tempo": 120.0
            },
            {
                "start_time": 53.1863636,
                "end_time": 53.3022727,
                "pitch": 72,
                "velocity": 40,
                "duration": 0.1159091,
                "tempo": 120.0
            },
            {
                "start_time": 53.3181818,
                "end_time": 53.4181818,
                "pitch": 75,
                "velocity": 40,
                "duration": 0.1,
                "tempo": 120.0
            },
            {
                "start_time": 53.4363636,
                "end_time": 53.6681818,
                "pitch": 72,
                "velocity": 40,
                "duration": 0.2318182,
                "tempo": 120.0
            },
            {
                "start_time": 53.6863636,
                "end_time": 53.9181818,
                "pitch": 71,
                "velocity": 40,
                "duration": 0.2318182,
                "tempo": 120.0
            },
            {
                "start_time": 53.9363636,
                "end_time": 54.3022727,
                "pitch": 72,
                "velocity": 40,
                "duration": 0.3659091,
                "tempo": 120.0
            },
            {
                "start_time": 54.3181818,
                "end_time": 54.6681818,
                "pitch": 65,
                "velocity": 40,
                "duration": 0.35,
                "tempo": 120.0
            },
            {
                "start_time": 54.6863636,
                "end_time": 55.1681818,
                "pitch": 72,
                "velocity": 40,
                "duration": 0.4818182,
                "tempo": 120.0
            },
            {
                "start_time": 55.1863636,
                "end_time": 55.3,
                "pitch": 72,
                "velocity": 40,
                "duration": 0.1136364,
                "tempo": 120.0
            },
            {
                "start_time": 55.3159091,
                "end_time": 55.4159091,
                "pitch": 75,
                "velocity": 40,
                "duration": 0.1,
                "tempo": 120.0
            },
            {
                "start_time": 55.4318182,
                "end_time": 55.6613636,
                "pitch": 72,
                "velocity": 40,
                "duration": 0.2295455,
                "tempo": 120.0
            },
            {
                "start_time": 55.6772727,
                "end_time": 55.9272727,
                "pitch": 71,
                "velocity": 40,
                "duration": 0.25,
                "tempo": 120.0
            }
        ]
    }
}