{
    "mood": "angry",
    "instruments": {
        "Lead 2 (sawtooth)": [
            {
                "start_time": 0.0159091,
                "end_time": 0.1840909,
                "pitch": 55,
                "velocity": 64,
                "duration": 0.1681818,
                "tempo": 120.0
            },
            {
                "start_time": 0.2022727,
                "end_time": 0.3863636,
                "pitch": 70,
                "velocity": 64,
                "duration": 0.1840909,
                "tempo": 120.0
            },
            {
                "start_time": 0.4022727,
                "end_time": 0.5818182,
                "pitch": 62,
                "velocity": 64,
                "duration": 0.1795455,
                "tempo": 120.0
            },
            {
                "start_time": 0.5977273,
                "end_time": 0.7795455,
                "pitch": 69,
                "velocity": 64,
                "duration": 0.1818182,
                "tempo": 120.0
            },
            {
                "start_time": 0.7954545,
                "end_time": 0.9772727,
                "pitch": 62,
                "velocity": 64,
                "duration": 0.1818182,
                "tempo": 120.0
            },
            {
                "start_time": 0.9954545,
                "end_time": 1.1772727,
                "pitch": 65,
                "velocity": 64,
                "duration": 0.1818182,
                "tempo": 120.0
            },
            {
                "start_time": 1.1954545,
                "end_time": 1.3772727,
                "pitch": 62,
                "velocity": 64,
                "duration": 0.1818182,
                "tempo": 120.0
            },
            {
                "start_time": 1.3954545,
                "end_time": 1.5772727,
                "pitch": 67,
                "velocity": 64,
                "duration": 0.1818182,
                "tempo": 120.0
            },
            {
                "start_time": 1.5954545,
                "end_time": 1.7795455,
                "pitch": 55,
                "velocity": 64,
                "duration": 0.1840909,
                "tempo": 120.0
            },
            {
                "start_time": 1.7954545,
                "end_time": 1.9795455,
                "pitch": 70,
                "velocity": 64,
                "duration": 0.1840909,
                "tempo": 120.0
            },
            {
                "start_time": 1.9977273,
                "end_time": 2.1818182,
                "pitch": 62,
                "velocity": 64,
                "duration": 0.1840909,
                "tempo": 120.0
            },
            {
                "start_time": 2.1977273,
                "end_time": 2.3818182,
                "pitch": 69,
                "velocity": 64,
                "duration": 0.1840909,
                "tempo": 120.0
            },
            {
                "start_time": 2.3977273,
                "end_time": 2.5818182,
                "pitch": 62,
                "velocity": 64,
                "duration": 0.1840909,
                "tempo": 120.0
            },
            {
                "start_time": 2.5977273,
                "end_time": 2.7818182,
                "pitch": 72,
                "velocity": 64,
                "duration": 0.1840909,
                "tempo": 120.0
            },
            {
                "start_time": 2.7977273,
                "end_time": 2.9818182,
                "pitch": 69,
                "velocity": 64,
                "duration": 0.1840909,
                "tempo": 120.0
            },
            {
                "start_time": 2.9977273,
                "end_time": 3.1818182,
                "pitch": 65,
                "velocity": 64,
                "duration": 0.1840909,
                "tempo": 120.0
            },
            {
                "start_time": 3.1977273,
                "end_time": 3.3818182,
                "pitch": 55,
                "velocity": 64,
                "duration": 0.1840909,
                "tempo": 120.0
            },
            {
                "start_time": 3.3977273,
                "end_time": 3.5840909,
                "pitch": 70,
                "velocity": 64,
                "duration": 0.1863636,
                "tempo": 120.0
            },
            {
                "start_time": 3.6,
                "end_time": 3.7840909,
                "pitch": 62,
                "velocity": 64,
                "duration": 0.1840909,
                "tempo": 120.0
            },
            {
                "start_time": 3.8,
                "end_time": 3.9840909,
                "pitch": 69,
                "velocity": 64,
                "duration": 0.1840909,
                "tempo": 120.0
            },
            {
                "start_time": 4.0,
                "end_time": 4.1840909,
                "pitch": 62,
                "velocity": 64,
                "duration": 0.1840909,
                "tempo": 120.0
            },
            {
                "start_time": 4.2,
                "end_time": 4.3840909,
                "pitch": 65,
                "velocity": 64,
                "duration": 0.1840909,
                "tempo": 120.0
            },
            {
                "start_time": 4.4,
                "end_time": 4.5840909,
                "pitch": 62,
                "velocity": 64,
                "duration": 0.1840909,
                "tempo": 120.0
            },
            {
                "start_time": 4.6022727,
                "end_time": 4.7863636,
                "pitch": 67,
                "velocity": 64,
                "duration": 0.1840909,
                "tempo": 120.0
            },
            {
                "start_time": 4.8022727,
                "end_time": 4.9863636,
                "pitch": 55,
                "velocity": 64,
                "duration": 0.1840909,
                "tempo": 120.0
            },
            {
                "start_time": 5.0022727,
                "end_time": 5.1863636,
                "pitch": 70,
                "velocity": 64,
                "duration": 0.1840909,
                "tempo": 120.0
            },
            {
                "start_time": 5.2022727,
                "end_time": 5.3863636,
                "pitch": 62,
                "velocity": 64,
                "duration": 0.1840909,
                "tempo": 120.0
            },
            {
                "start_time": 5.4045455,
                "end_time": 5.5886364,
                "pitch": 69,
                "velocity": 64,
                "duration": 0.1840909,
                "tempo": 120.0
            },
            {
                "start_time": 5.6045455,
                "end_time": 5.7886364,
                "pitch": 62,
                "velocity": 64,
                "duration": 0.1840909,
                "tempo": 120.0
            },
            {
                "start_time": 5.8045455,
                "end_time": 5.9886364,
                "pitch": 72,
                "velocity": 64,
                "duration": 0.1840909,
                "tempo": 120.0
            },
            {
                "start_time": 6.0045455,
                "end_time": 6.1909091,
                "pitch": 69,
                "velocity": 64,
                "duration": 0.1863636,
                "tempo": 120.0
            },
            {
                "start_time": 6.2068182,
                "end_time": 6.3909091,
                "pitch": 65,
                "velocity": 64,
                "duration": 0.1840909,
                "tempo": 120.0
            },
            {
                "start_time": 6.4090909,
                "end_time": 6.5931818,
                "pitch": 55,
                "velocity": 64,
                "duration": 0.1840909,
                "tempo": 120.0
            },
            {
                "start_time": 6.6090909,
                "end_time": 6.7931818,
                "pitch": 70,
                "velocity": 64,
                "duration": 0.1840909,
                "tempo": 120.0
            },
            {
                "start_time": 6.8113636,
                "end_time": 6.9931818,
                "pitch": 62,
                "velocity": 64,
                "duration": 0.1818182,
                "tempo": 120.0
            },
            {
                "start_time": 7.0113636,
                "end_time": 7.1931818,
                "pitch": 69,
                "velocity": 64,
                "duration": 0.1818182,
                "tempo": 120.0
            },
            {
                "start_time": 7.2113636,
                "end_time": 7.3954545,
                "pitch": 62,
                "velocity": 64,
                "duration": 0.1840909,
                "tempo": 120.0
            },
            {
                "start_time": 7.4113636,
                "end_time": 7.5977273,
                "pitch": 65,
                "velocity": 64,
                "duration": 0.1863636,
                "tempo": 120.0
            },
            {
                "start_time": 7.6136364,
                "end_time": 7.7977273,
                "pitch": 62,
                "velocity": 64,
                "duration": 0.1840909,
                "tempo": 120.0
            },
            {
                "start_time": 7.8136364,
                "end_time": 7.9977273,
                "pitch": 67,
                "velocity": 64,
                "duration": 0.1840909,
                "tempo": 120.0
            },
            {
                "start_time": 8.0136364,
                "end_time": 8.1977273,
                "pitch": 55,
                "velocity": 64,
                "duration": 0.1840909,
                "tempo": 120.0
            },
            {
                "start_time": 8.2159091,
                "end_time": 8.4,
                "pitch": 70,
                "velocity": 64,
                "duration": 0.1840909,
                "tempo": 120.0
            },
            {
                "start_time": 8.4159091,
                "end_time": 8.6,
                "pitch": 62,
                "velocity": 64,
                "duration": 0.1840909,
                "tempo": 120.0
            },
            {
                "start_time": 8.6181818,
                "end_time": 8.8022727,
                "pitch": 69,
                "velocity": 64,
                "duration": 0.1840909,
                "tempo": 120.0
            },
            {
                "start_time": 8.8181818,
                "end_time": 9.0045455,
                "pitch": 62,
                "velocity": 64,
                "duration": 0.1863636,
                "tempo": 120.0
            },
            {
                "start_time": 9.0204545,
                "end_time": 9.2045455,
                "pitch": 72,
                "velocity": 64,
                "duration": 0.1840909,
                "tempo": 120.0
            },
            {
                "start_time": 9.2227273,
                "end_time": 9.4045455,
                "pitch": 69,
                "velocity": 64,
                "duration": 0.1818182,
                "tempo": 120.0
            },
            {
                "start_time": 9.4227273,
                "end_time": 9.6045455,
                "pitch": 65,
                "velocity": 64,
                "duration": 0.1818182,
                "tempo": 120.0
            },
            {
                "start_time": 9.6227273,
                "end_time": 9.8068182,
                "pitch": 55,
                "velocity": 64,
                "duration": 0.1840909,
                "tempo": 120.0
            },
            {
                "start_time": 9.8227273,
                "end_time": 10.0068182,
                "pitch": 70,
                "velocity": 64,
                "duration": 0.1840909,
                "tempo": 120.0
            },
            {
                "start_time": 10.025,
                "end_time": 10.2090909,
                "pitch": 62,
                "velocity": 64,
                "duration": 0.1840909,
                "tempo": 120.0
            },
            {
                "start_time": 10.225,
                "end_time": 10.4090909,
                "pitch": 69,
                "velocity": 64,
                "duration": 0.1840909,
                "tempo": 120.0
            },
            {
                "start_time": 10.4272727,
                "end_time": 10.6113636,
                "pitch": 62,
                "velocity": 64,
                "duration": 0.1840909,
                "tempo": 120.0
            },
            {
                "start_time": 10.6272727,
                "end_time": 10.8136364,
                "pitch": 65,
                "velocity": 64,
                "duration": 0.1863636,
                "tempo": 120.0
            },
            {
                "start_time": 10.8295455,
                "end_time": 11.0136364,
                "pitch": 62,
                "velocity": 64,
                "duration": 0.1840909,
                "tempo": 120.0
            },
            {
                "start_time": 11.0318182,
                "end_time": 11.2159091,
                "pitch": 67,
                "velocity": 64,
                "duration": 0.1840909,
                "tempo": 120.0
            },
            {
                "start_time": 11.2318182,
                "end_time": 11.4159091,
                "pitch": 55,
                "velocity": 64,
                "duration": 0.1840909,
                "tempo": 120.0
            },
            {
                "start_time": 11.4318182,
                "end_time": 11.6159091,
                "pitch": 70,
                "velocity": 64,
                "duration": 0.1840909,
                "tempo": 120.0
            },
            {
                "start_time": 11.6318182,
                "end_time": 11.8159091,
                "pitch": 62,
                "velocity": 64,
                "duration": 0.1840909,
                "tempo": 120.0
            },
            {
                "start_time": 11.8340909,
                "end_time": 12.0181818,
                "pitch": 69,
                "velocity": 64,
                "duration": 0.1840909,
                "tempo": 120.0
            },
            {
                "start_time": 12.0340909,
                "end_time": 12.2204545,
                "pitch": 62,
                "velocity": 64,
                "duration": 0.1863636,
                "tempo": 120.0
            },
            {
                "start_time": 12.2363636,
                "end_time": 12.4204545,
                "pitch": 72,
                "velocity": 64,
                "duration": 0.1840909,
                "tempo": 120.0
            },
            {
                "start_time": 12.4386364,
                "end_time": 12.6227273,
                "pitch": 69,
                "velocity": 64,
                "duration": 0.1840909,
                "tempo": 120.0
            },
            {
                "start_time": 12.6386364,
                "end_time": 12.8227273,
                "pitch": 65,
                "velocity": 64,
                "duration": 0.1840909,
                "tempo": 120.0
            },
            {
                "start_time": 19.2681818,
                "end_time": 19.45,
                "pitch": 55,
                "velocity": 64,
                "duration": 0.1818182,
                "tempo": 120.0
            },
            {
                "start_time": 19.4681818,
                "end_time": 19.65,
                "pitch": 70,
                "velocity": 64,
                "duration": 0.1818182,
                "tempo": 120.0
            },
            {
                "start_time": 19.6681818,
                "end_time": 19.8522727,
                "pitch": 62,
                "velocity": 64,
                "duration": 0.1840909,
                "tempo": 120.0
            },
            {
                "start_time": 19.8681818,
                "end_time": 20.0522727,
                "pitch": 69,
                "velocity": 64,
                "duration": 0.1840909,
                "tempo": 120.0
            },
            {
                "start_time": 20.0704545,
                "end_time": 20.2522727,
                "pitch": 62,
                "velocity": 64,
                "duration": 0.1818182,
                "tempo": 120.0
            },
            {
                "start_time": 20.2704545,
                "end_time": 20.4522727,
                "pitch": 65,
                "velocity": 64,
                "duration": 0.1818182,
                "tempo": 120.0
            },
            {
                "start_time": 20.4704545,
                "end_time": 20.6522727,
                "pitch": 62,
                "velocity": 64,
                "duration": 0.1818182,
                "tempo": 120.0
            },
            {
                "start_time": 20.6704545,
                "end_time": 20.8522727,
                "pitch": 67,
                "velocity": 64,
                "duration": 0.1818182,
                "tempo": 120.0
            },
            {
                "start_time": 20.8704545,
                "end_time": 21.0545455,
                "pitch": 55,
                "velocity": 64,
                "duration": 0.1840909,
                "tempo": 120.0
            },
            {
                "start_time": 21.0704545,
                "end_time": 21.2568182,
                "pitch": 70,
                "velocity": 64,
                "duration": 0.1863636,
                "tempo": 120.0
            },
            {
                "start_time": 21.2727273,
                "end_time": 21.4568182,
                "pitch": 62,
                "velocity": 64,
                "duration": 0.1840909,
                "tempo": 120.0
            },
            {
                "start_time": 21.4727273,
                "end_time": 21.6568182,
                "pitch": 69,
                "velocity": 64,
                "duration": 0.1840909,
                "tempo": 120.0
            },
            {
                "start_time": 21.6727273,
                "end_time": 21.8568182,
                "pitch": 62,
                "velocity": 64,
                "duration": 0.1840909,
                "tempo": 120.0
            },
            {
                "start_time": 21.875,
                "end_time": 22.0590909,
                "pitch": 72,
                "velocity": 64,
                "duration": 0.1840909,
                "tempo": 120.0
            },
            {
                "start_time": 22.075,
                "end_time": 22.2590909,
                "pitch": 69,
                "velocity": 64,
                "duration": 0.1840909,
                "tempo": 120.0
            },
            {
                "start_time": 22.275,
                "end_time": 22.4590909,
                "pitch": 65,
                "velocity": 64,
                "duration": 0.1840909,
                "tempo": 120.0
            },
            {
                "start_time": 22.475,
                "end_time": 22.6590909,
                "pitch": 55,
                "velocity": 64,
                "duration": 0.1840909,
                "tempo": 120.0
            },
            {
                "start_time": 22.675,
                "end_time": 22.8590909,
                "pitch": 70,
                "velocity": 64,
                "duration": 0.1840909,
                "tempo": 120.0
            },
            {
                "start_time": 22.875,
                "end_time": 23.0590909,
                "pitch": 62,
                "velocity": 64,
                "duration": 0.1840909,
                "tempo": 120.0
            },
            {
                "start_time": 23.0772727,
                "end_time": 23.2613636,
                "pitch": 69,
                "velocity": 64,
                "duration": 0.1840909,
                "tempo": 120.0
            },
            {
                "start_time": 23.2772727,
                "end_time": 23.4613636,
                "pitch": 62,
                "velocity": 64,
                "duration": 0.1840909,
                "tempo": 120.0
            },
            {
                "start_time": 23.4772727,
                "end_time": 23.6613636,
                "pitch": 65,
                "velocity": 64,
                "duration": 0.1840909,
                "tempo": 120.0
            },
            {
                "start_time": 23.6772727,
                "end_time": 23.8636364,
                "pitch": 62,
                "velocity": 64,
                "duration": 0.1863636,
                "tempo": 120.0
            },
            {
                "start_time": 23.8795455,
                "end_time": 24.0636364,
                "pitch": 67,
                "velocity": 64,
                "duration": 0.1840909,
                "tempo": 120.0
            },
            {
                "start_time": 24.0818182,
                "end_time": 24.2636364,
                "pitch": 55,
                "velocity": 64,
                "duration": 0.1818182,
                "tempo": 120.0
            },
            {
                "start_time": 24.2818182,
                "end_time": 24.4636364,
                "pitch": 70,
                "velocity": 64,
                "duration": 0.1818182,
                "tempo": 120.0
            },
            {
                "start_time": 24.4818182,
                "end_time": 24.6636364,
                "pitch": 62,
                "velocity": 64,
                "duration": 0.1818182,
                "tempo": 120.0
            },
            {
                "start_time": 24.6818182,
                "end_time": 24.8636364,
                "pitch": 69,
                "velocity": 64,
                "duration": 0.1818182,
                "tempo": 120.0
            },
            {
                "start_time": 24.8818182,
                "end_time": 25.0659091,
                "pitch": 62,
                "velocity": 64,
                "duration": 0.1840909,
                "tempo": 120.0
            },
            {
                "start_time": 25.0818182,
                "end_time": 25.2659091,
                "pitch": 72,
                "velocity": 64,
                "duration": 0.1840909,
                "tempo": 120.0
            },
            {
                "start_time": 25.2840909,
                "end_time": 25.4659091,
                "pitch": 69,
                "velocity": 64,
                "duration": 0.1818182,
                "tempo": 120.0
            },
            {
                "start_time": 25.4840909,
                "end_time": 25.6659091,
                "pitch": 65,
                "velocity": 64,
                "duration": 0.1818182,
                "tempo": 120.0
            },
            {
                "start_time": 25.6840909,
                "end_time": 25.8681818,
                "pitch": 55,
                "velocity": 64,
                "duration": 0.1840909,
                "tempo": 120.0
            },
            {
                "start_time": 25.8840909,
                "end_time": 26.0681818,
                "pitch": 70,
                "velocity": 64,
                "duration": 0.1840909,
                "tempo": 120.0
            },
            {
                "start_time": 26.0863636,
                "end_time": 26.2704545,
                "pitch": 62,
                "velocity": 64,
                "duration": 0.1840909,
                "tempo": 120.0
            },
            {
                "start_time": 26.2863636,
                "end_time": 26.4704545,
                "pitch": 69,
                "velocity": 64,
                "duration": 0.1840909,
                "tempo": 120.0
            },
            {
                "start_time": 26.4863636,
                "end_time": 26.6704545,
                "pitch": 62,
                "velocity": 64,
                "duration": 0.1840909,
                "tempo": 120.0
            },
            {
                "start_time": 26.6863636,
                "end_time": 26.8704545,
                "pitch": 65,
                "velocity": 64,
                "duration": 0.1840909,
                "tempo": 120.0
            },
            {
                "start_time": 26.8863636,
                "end_time": 27.0704545,
                "pitch": 62,
                "velocity": 64,
                "duration": 0.1840909,
                "tempo": 120.0
            },
            {
                "start_time": 27.0863636,
                "end_time": 27.2727273,
                "pitch": 67,
                "velocity": 64,
                "duration": 0.1863636,
                "tempo": 120.0
            },
            {
                "start_time": 27.2886364,
                "end_time": 27.4727273,
                "pitch": 55,
                "velocity": 64,
                "duration": 0.1840909,
                "tempo": 120.0
            },
            {
                "start_time": 27.4886364,
                "end_time": 27.6727273,
                "pitch": 70,
                "velocity": 64,
                "duration": 0.1840909,
                "tempo": 120.0
            },
            {
                "start_time": 27.6886364,
                "end_time": 27.8727273,
                "pitch": 62,
                "velocity": 64,
                "duration": 0.1840909,
                "tempo": 120.0
            },
            {
                "start_time": 27.8909091,
                "end_time": 28.075,
                "pitch": 69,
                "velocity": 64,
                "duration": 0.1840909,
                "tempo": 120.0
            },
            {
                "start_time": 28.0909091,
                "end_time": 28.275,
                "pitch": 62,
                "velocity": 64,
                "duration": 0.1840909,
                "tempo": 120.0
            },
            {
                "start_time": 28.2909091,
                "end_time": 28.475,
                "pitch": 72,
                "velocity": 64,
                "duration": 0.1840909,
                "tempo": 120.0
            },
            {
                "start_time": 28.4909091,
                "end_time": 28.675,
                "pitch": 69,
                "velocity": 64,
                "duration": 0.1840909,
                "tempo": 120.0
            },
            {
                "start_time": 28.6909091,
                "end_time": 28.875,
                "pitch": 65,
                "velocity": 64,
                "duration": 0.1840909,
                "tempo": 120.0
            },
            {
                "start_time": 28.8909091,
                "end_time": 29.075,
                "pitch": 55,
                "velocity": 64,
                "duration": 0.1840909,
                "tempo": 120.0
            },
            {
                "start_time": 29.0931818,
                "end_time": 29.2772727,
                "pitch": 70,
                "velocity": 64,
                "duration": 0.1840909,
                "tempo": 120.0
            },
            {
                "start_time": 29.2931818,
                "end_time": 29.4772727,
                "pitch": 62,
                "velocity": 64,
                "duration": 0.1840909,
                "tempo": 120.0
            },
            {
                "start_time": 29.4931818,
                "end_time": 29.6772727,
                "pitch": 69,
                "velocity": 64,
                "duration": 0.1840909,
                "tempo": 120.0
            },
            {
                "start_time": 29.6931818,
                "end_time": 29.8795455,
                "pitch": 62,
                "velocity": 64,
                "duration": 0.1863636,
                "tempo": 120.0
            },
            {
                "start_time": 29.8954545,
                "end_time": 30.0795455,
                "pitch": 65,
                "velocity": 64,
                "duration": 0.1840909,
                "tempo": 120.0
            },
            {
                "start_time": 30.0977273,
                "end_time": 30.2795455,
                "pitch": 62,
                "velocity": 64,
                "duration": 0.1818182,
                "tempo": 120.0
            },
            {
                "start_time": 30.2977273,
                "end_time": 30.4795455,
                "pitch": 67,
                "velocity": 64,
                "duration": 0.1818182,
                "tempo": 120.0
            },
            {
                "start_time": 30.4977273,
                "end_time": 30.6795455,
                "pitch": 55,
                "velocity": 64,
                "duration": 0.1818182,
                "tempo": 120.0
            },
            {
                "start_time": 30.6977273,
                "end_time": 30.8795455,
                "pitch": 70,
                "velocity": 64,
                "duration": 0.1818182,
                "tempo": 120.0
            },
            {
                "start_time": 30.8977273,
                "end_time": 31.0818182,
                "pitch": 62,
                "velocity": 64,
                "duration": 0.1840909,
                "tempo": 120.0
            },
            {
                "start_time": 31.0977273,
                "end_time": 31.2818182,
                "pitch": 69,
                "velocity": 64,
                "duration": 0.1840909,
                "tempo": 120.0
            },
            {
                "start_time": 31.3,
                "end_time": 31.4818182,
                "pitch": 62,
                "velocity": 64,
                "duration": 0.1818182,
                "tempo": 120.0
            },
            {
                "start_time": 31.5,
                "end_time": 31.6818182,
                "pitch": 72,
                "velocity": 64,
                "duration": 0.1818182,
                "tempo": 120.0
            },
            {
                "start_time": 31.7,
                "end_time": 31.8840909,
                "pitch": 69,
                "velocity": 64,
                "duration": 0.1840909,
                "tempo": 120.0
            },
            {
                "start_time": 31.9,
                "end_time": 32.0863636,
                "pitch": 65,
                "velocity": 64,
                "duration": 0.1863636,
                "tempo": 120.0
            },
            {
                "start_time": 49.7159091,
                "end_time": 49.9045455,
                "pitch": 55,
                "velocity": 64,
                "duration": 0.1886364,
                "tempo": 120.0
            },
            {
                "start_time": 49.9204545,
                "end_time": 50.1090909,
                "pitch": 70,
                "velocity": 64,
                "duration": 0.1886364,
                "tempo": 120.0
            },
            {
                "start_time": 50.1272727,
                "end_time": 50.3113636,
                "pitch": 62,
                "velocity": 64,
                "duration": 0.1840909,
                "tempo": 120.0
            },
            {
                "start_time": 50.3272727,
                "end_time": 50.5113636,
                "pitch": 69,
                "velocity": 64,
                "duration": 0.1840909,
                "tempo": 120.0
            },
            {
                "start_time": 50.5272727,
                "end_time": 50.7113636,
                "pitch": 62,
                "velocity": 64,
                "duration": 0.1840909,
                "tempo": 120.0
            },
            {
                "start_time": 50.7272727,
                "end_time": 50.9113636,
                "pitch": 65,
                "velocity": 64,
                "duration": 0.1840909,
                "tempo": 120.0
            },
            {
                "start_time": 50.9272727,
                "end_time": 51.1113636,
                "pitch": 62,
                "velocity": 64,
                "duration": 0.1840909,
                "tempo": 120.0
            },
            {
                "start_time": 51.1272727,
                "end_time": 51.3113636,
                "pitch": 67,
                "velocity": 64,
                "duration": 0.1840909,
                "tempo": 120.0
            },
            {
                "start_time": 51.3272727,
                "end_time": 51.5113636,
                "pitch": 55,
                "velocity": 64,
                "duration": 0.1840909,
                "tempo": 120.0
            },
            {
                "start_time": 51.5272727,
                "end_time": 51.7136364,
                "pitch": 70,
                "velocity": 64,
                "duration": 0.1863636,
                "tempo": 120.0
            },
            {
                "start_time": 51.7295455,
                "end_time": 51.9136364,
                "pitch": 62,
                "velocity": 64,
                "duration": 0.1840909,
                "tempo": 120.0
            },
            {
                "start_time": 51.9295455,
                "end_time": 52.1136364,
                "pitch": 69,
                "velocity": 64,
                "duration": 0.1840909,
                "tempo": 120.0
            },
            {
                "start_time": 52.1295455,
                "end_time": 52.3136364,
                "pitch": 62,
                "velocity": 64,
                "duration": 0.1840909,
                "tempo": 120.0
            },
            {
                "start_time": 52.3295455,
                "end_time": 52.5136364,
                "pitch": 72,
                "velocity": 64,
                "duration": 0.1840909,
                "tempo": 120.0
            },
            {
                "start_time": 52.5295455,
                "end_time": 52.7136364,
                "pitch": 69,
                "velocity": 64,
                "duration": 0.1840909,
                "tempo": 120.0
            },
            {
                "start_time": 52.7295455,
                "end_time": 52.9136364,
                "pitch": 65,
                "velocity": 64,
                "duration": 0.1840909,
                "tempo": 120.0
            },
            {
                "start_time": 52.9295455,
                "end_time": 53.1136364,
                "pitch": 55,
                "velocity": 64,
                "duration": 0.1840909,
                "tempo": 120.0
            },
            {
                "start_time": 53.1295455,
                "end_time": 53.3136364,
                "pitch": 70,
                "velocity": 64,
                "duration": 0.1840909,
                "tempo": 120.0
            },
            {
                "start_time": 53.3295455,
                "end_time": 53.5136364,
                "pitch": 62,
                "velocity": 64,
                "duration": 0.1840909,
                "tempo": 120.0
            },
            {
                "start_time": 53.5318182,
                "end_time": 53.7159091,
                "pitch": 69,
                "velocity": 64,
                "duration": 0.1840909,
                "tempo": 120.0
            },
            {
                "start_time": 53.7318182,
                "end_time": 53.9159091,
                "pitch": 62,
                "velocity": 64,
                "duration": 0.1840909,
                "tempo": 120.0
            },
            {
                "start_time": 53.9318182,
                "end_time": 54.1159091,
                "pitch": 65,
                "velocity": 64,
                "duration": 0.1840909,
                "tempo": 120.0
            },
            {
                "start_time": 54.1318182,
                "end_time": 54.3159091,
                "pitch": 62,
                "velocity": 64,
                "duration": 0.1840909,
                "tempo": 120.0
            },
            {
                "start_time": 54.3318182,
                "end_time": 54.5159091,
                "pitch": 67,
                "velocity": 64,
                "duration": 0.1840909,
                "tempo": 120.0
            },
            {
                "start_time": 54.5318182,
                "end_time": 54.7159091,
                "pitch": 55,
                "velocity": 64,
                "duration": 0.1840909,
                "tempo": 120.0
            },
            {
                "start_time": 54.7318182,
                "end_time": 54.9159091,
                "pitch": 70,
                "velocity": 64,
                "duration": 0.1840909,
                "tempo": 120.0
            },
            {
                "start_time": 54.9318182,
                "end_time": 55.1159091,
                "pitch": 62,
                "velocity": 64,
                "duration": 0.1840909,
                "tempo": 120.0
            },
            {
                "start_time": 55.1318182,
                "end_time": 55.3159091,
                "pitch": 69,
                "velocity": 64,
                "duration": 0.1840909,
                "tempo": 120.0
            },
            {
                "start_time": 55.3318182,
                "end_time": 55.5159091,
                "pitch": 62,
                "velocity": 64,
                "duration": 0.1840909,
                "tempo": 120.0
            },
            {
                "start_time": 55.5340909,
                "end_time": 55.7181818,
                "pitch": 72,
                "velocity": 64,
                "duration": 0.1840909,
                "tempo": 120.0
            },
            {
                "start_time": 55.7340909,
                "end_time": 55.9181818,
                "pitch": 69,
                "velocity": 64,
                "duration": 0.1840909,
                "tempo": 120.0
            },
            {
                "start_time": 55.9340909,
                "end_time": 56.1181818,
                "pitch": 65,
                "velocity": 64,
                "duration": 0.1840909,
                "tempo": 120.0
            },
            {
                "start_time": 56.1340909,
                "end_time": 56.3181818,
                "pitch": 55,
                "velocity": 64,
                "duration": 0.1840909,
                "tempo": 120.0
            },
            {
                "start_time": 56.3340909,
                "end_time": 56.5181818,
                "pitch": 70,
                "velocity": 64,
                "duration": 0.1840909,
                "tempo": 120.0
            },
            {
                "start_time": 56.5340909,
                "end_time": 56.7181818,
                "pitch": 62,
                "velocity": 64,
                "duration": 0.1840909,
                "tempo": 120.0
            },
            {
                "start_time": 56.7340909,
                "end_time": 56.9181818,
                "pitch": 69,
                "velocity": 64,
                "duration": 0.1840909,
                "tempo": 120.0
            },
            {
                "start_time": 56.9340909,
                "end_time": 57.1181818,
                "pitch": 62,
                "velocity": 64,
                "duration": 0.1840909,
                "tempo": 120.0
            },
            {
                "start_time": 57.1340909,
                "end_time": 57.3181818,
                "pitch": 65,
                "velocity": 64,
                "duration": 0.1840909,
                "tempo": 120.0
            },
            {
                "start_time": 57.3340909,
                "end_time": 57.5204545,
                "pitch": 62,
                "velocity": 64,
                "duration": 0.1863636,
                "tempo": 120.0
            },
            {
                "start_time": 57.5363636,
                "end_time": 57.7204545,
                "pitch": 67,
                "velocity": 64,
                "duration": 0.1840909,
                "tempo": 120.0
            },
            {
                "start_time": 57.7386364,
                "end_time": 57.9204545,
                "pitch": 55,
                "velocity": 64,
                "duration": 0.1818182,
                "tempo": 120.0
            },
            {
                "start_time": 57.9386364,
                "end_time": 58.1204545,
                "pitch": 70,
                "velocity": 64,
                "duration": 0.1818182,
                "tempo": 120.0
            },
            {
                "start_time": 58.1386364,
                "end_time": 58.3204545,
                "pitch": 62,
                "velocity": 64,
                "duration": 0.1818182,
                "tempo": 120.0
            },
            {
                "start_time": 58.3386364,
                "end_time": 58.5204545,
                "pitch": 69,
                "velocity": 64,
                "duration": 0.1818182,
                "tempo": 120.0
            },
            {
                "start_time": 58.5386364,
                "end_time": 58.7204545,
                "pitch": 62,
                "velocity": 64,
                "duration": 0.1818182,
                "tempo": 120.0
            },
            {
                "start_time": 58.7386364,
                "end_time": 58.9204545,
                "pitch": 72,
                "velocity": 64,
                "duration": 0.1818182,
                "tempo": 120.0
            },
            {
                "start_time": 58.9386364,
                "end_time": 59.1204545,
                "pitch": 69,
                "velocity": 64,
                "duration": 0.1818182,
                "tempo": 120.0
            },
            {
                "start_time": 59.1386364,
                "end_time": 59.3204545,
                "pitch": 65,
                "velocity": 64,
                "duration": 0.1818182,
                "tempo": 120.0
            },
            {
                "start_time": 59.3386364,
                "end_time": 59.5227273,
                "pitch": 55,
                "velocity": 64,
                "duration": 0.1840909,
                "tempo": 120.0
            },
            {
                "start_time": 59.5386364,
                "end_time": 59.7227273,
                "pitch": 70,
                "velocity": 64,
                "duration": 0.1840909,
                "tempo": 120.0
            },
            {
                "start_time": 59.7409091,
                "end_time": 59.9227273,
                "pitch": 62,
                "velocity": 64,
                "duration": 0.1818182,
                "tempo": 120.0
            },
            {
                "start_time": 59.9409091,
                "end_time": 60.1227273,
                "pitch": 69,
                "velocity": 64,
                "duration": 0.1818182,
                "tempo": 120.0
            },
            {
                "start_time": 60.1409091,
                "end_time": 60.3227273,
                "pitch": 62,
                "velocity": 64,
                "duration": 0.1818182,
                "tempo": 120.0
            },
            {
                "start_time": 60.3409091,
                "end_time": 60.5227273,
                "pitch": 65,
                "velocity": 64,
                "duration": 0.1818182,
                "tempo": 120.0
            },
            {
                "start_time": 60.5409091,
                "end_time": 60.7227273,
                "pitch": 62,
                "velocity": 64,
                "duration": 0.1818182,
                "tempo": 120.0
            },
            {
                "start_time": 60.7409091,
                "end_time": 60.9227273,
                "pitch": 67,
                "velocity": 64,
                "duration": 0.1818182,
                "tempo": 120.0
            },
            {
                "start_time": 60.9409091,
                "end_time": 61.1227273,
                "pitch": 55,
                "velocity": 64,
                "duration": 0.1818182,
                "tempo": 120.0
            },
            {
                "start_time": 61.1409091,
                "end_time": 61.3227273,
                "pitch": 70,
                "velocity": 64,
                "duration": 0.1818182,
                "tempo": 120.0
            },
            {
                "start_time": 61.3409091,
                "end_time": 61.525,
                "pitch": 62,
                "velocity": 64,
                "duration": 0.1840909,
                "tempo": 120.0
            },
            {
                "start_time": 61.5409091,
                "end_time": 61.7272727,
                "pitch": 69,
                "velocity": 64,
                "duration": 0.1863636,
                "tempo": 120.0
            },
            {
                "start_time": 61.7431818,
                "end_time": 61.9272727,
                "pitch": 62,
                "velocity": 64,
                "duration": 0.1840909,
                "tempo": 120.0
            },
            {
                "start_time": 61.9431818,
                "end_time": 62.1272727,
                "pitch": 72,
                "velocity": 64,
                "duration": 0.1840909,
                "tempo": 120.0
            },
            {
                "start_time": 62.1431818,
                "end_time": 62.3272727,
                "pitch": 69,
                "velocity": 64,
                "duration": 0.1840909,
                "tempo": 120.0
            },
            {
                "start_time": 62.3431818,
                "end_time": 62.5272727,
                "pitch": 65,
                "velocity": 64,
                "duration": 0.1840909,
                "tempo": 120.0
            },
            {
                "start_time": 70.5590909,
                "end_time": 70.7431818,
                "pitch": 55,
                "velocity": 64,
                "duration": 0.1840909,
                "tempo": 120.0
            },
            {
                "start_time": 70.7613636,
                "end_time": 70.8113636,
                "pitch": 70,
                "velocity": 64,
                "duration": 0.05,
                "tempo": 120.0
            }
        ],
        "Electric Guitar (clean)": [
            {
                "start_time": 12.8409091,
                "end_time": 13.025,
                "pitch": 63,
                "velocity": 64,
                "duration": 0.1840909,
                "tempo": 120.0
            },
            {
                "start_time": 13.0409091,
                "end_time": 13.2272727,
                "pitch": 67,
                "velocity": 64,
                "duration": 0.1863636,
                "tempo": 120.0
            },
            {
                "start_time": 13.2431818,
                "end_time": 13.4272727,
                "pitch": 70,
                "velocity": 64,
                "duration": 0.1840909,
                "tempo": 120.0
            },
            {
                "start_time": 13.4431818,
                "end_time": 13.6272727,
                "pitch": 74,
                "velocity": 64,
                "duration": 0.1840909,
                "tempo": 120.0
            },
            {
                "start_time": 13.6431818,
                "end_time": 14.4318182,
                "pitch": 74,
                "velocity": 64,
                "duration": 0.7886364,
                "tempo": 120.0
            },
            {
                "start_time": 14.4477273,
                "end_time": 14.6340909,
                "pitch": 62,
                "velocity": 64,
                "duration": 0.1863636,
                "tempo": 120.0
            },
            {
                "start_time": 14.65,
                "end_time": 14.8340909,
                "pitch": 65,
                "velocity": 64,
                "duration": 0.1840909,
                "tempo": 120.0
            },
            {
                "start_time": 14.8522727,
                "end_time": 15.0363636,
                "pitch": 70,
                "velocity": 64,
                "duration": 0.1840909,
                "tempo": 120.0
            },
            {
                "start_time": 15.0522727,
                "end_time": 15.2363636,
                "pitch": 74,
                "velocity": 64,
                "duration": 0.1840909,
                "tempo": 120.0
            },
            {
                "start_time": 15.2545455,
                "end_time": 16.0386364,
                "pitch": 74,
                "velocity": 64,
                "duration": 0.7840909,
                "tempo": 120.0
            },
            {
                "start_time": 16.0568182,
                "end_time": 16.2409091,
                "pitch": 60,
                "velocity": 64,
                "duration": 0.1840909,
                "tempo": 120.0
            },
            {
                "start_time": 16.2568182,
                "end_time": 16.4431818,
                "pitch": 63,
                "velocity": 64,
                "duration": 0.1863636,
                "tempo": 120.0
            },
            {
                "start_time": 16.4590909,
                "end_time": 16.6431818,
                "pitch": 71,
                "velocity": 64,
                "duration": 0.1840909,
                "tempo": 120.0
            },
            {
                "start_time": 16.6590909,
                "end_time": 16.8431818,
                "pitch": 72,
                "velocity": 64,
                "duration": 0.1840909,
                "tempo": 120.0
            },
            {
                "start_time": 16.8590909,
                "end_time": 17.6454545,
                "pitch": 72,
                "velocity": 64,
                "duration": 0.7863636,
                "tempo": 120.0
            },
            {
                "start_time": 17.6613636,
                "end_time": 18.0477273,
                "pitch": 46,
                "velocity": 64,
                "duration": 0.3863636,
                "tempo": 120.0
            },
            {
                "start_time": 18.0636364,
                "end_time": 18.4477273,
                "pitch": 45,
                "velocity": 64,
                "duration": 0.3840909,
                "tempo": 120.0
            },
            {
                "start_time": 18.4636364,
                "end_time": 18.8477273,
                "pitch": 55,
                "velocity": 64,
                "duration": 0.3840909,
                "tempo": 120.0
            },
            {
                "start_time": 18.8636364,
                "end_time": 19.25,
                "pitch": 54,
                "velocity": 64,
                "duration": 0.3863636,
                "tempo": 120.0
            },
            {
                "start_time": 32.1022727,
                "end_time": 32.2863636,
                "pitch": 63,
                "velocity": 64,
                "duration": 0.1840909,
                "tempo": 120.0
            },
            {
                "start_time": 32.3022727,
                "end_time": 32.4863636,
                "pitch": 67,
                "velocity": 64,
                "duration": 0.1840909,
                "tempo": 120.0
            },
            {
                "start_time": 32.5022727,
                "end_time": 32.6863636,
                "pitch": 70,
                "velocity": 64,
                "duration": 0.1840909,
                "tempo": 120.0
            },
            {
                "start_time": 32.7022727,
                "end_time": 32.8863636,
                "pitch": 74,
                "velocity": 64,
                "duration": 0.1840909,
                "tempo": 120.0
            },
            {
                "start_time": 32.9022727,
                "end_time": 33.6886364,
                "pitch": 74,
                "velocity": 64,
                "duration": 0.7863636,
                "tempo": 120.0
            },
            {
                "start_time": 33.7045455,
                "end_time": 33.8886364,
                "pitch": 62,
                "velocity": 64,
                "duration": 0.1840909,
                "tempo": 120.0
            },
            {
                "start_time": 33.9045455,
                "end_time": 34.0886364,
                "pitch": 65,
                "velocity": 64,
                "duration": 0.1840909,
                "tempo": 120.0
            },
            {
                "start_time": 34.1045455,
                "end_time": 34.2886364,
                "pitch": 70,
                "velocity": 64,
                "duration": 0.1840909,
                "tempo": 120.0
            },
            {
                "start_time": 34.3045455,
                "end_time": 34.4886364,
                "pitch": 74,
                "velocity": 64,
                "duration": 0.1840909,
                "tempo": 120.0
            },
            {
                "start_time": 34.5045455,
                "end_time": 35.2886364,
                "pitch": 74,
                "velocity": 64,
                "duration": 0.7840909,
                "tempo": 120.0
            },
            {
                "start_time": 35.3045455,
                "end_time": 35.4886364,
                "pitch": 60,
                "velocity": 64,
                "duration": 0.1840909,
                "tempo": 120.0
            },
            {
                "start_time": 35.5068182,
                "end_time": 35.6909091,
                "pitch": 63,
                "velocity": 64,
                "duration": 0.1840909,
                "tempo": 120.0
            },
            {
                "start_time": 35.7068182,
                "end_time": 35.8909091,
                "pitch": 71,
                "velocity": 64,
                "duration": 0.1840909,
                "tempo": 120.0
            },
            {
                "start_time": 35.9068182,
                "end_time": 36.0909091,
                "pitch": 72,
                "velocity": 64,
                "duration": 0.1840909,
                "tempo": 120.0
            },
            {
                "start_time": 36.1068182,
                "end_time": 36.8909091,
                "pitch": 72,
                "velocity": 64,
                "duration": 0.7840909,
                "tempo": 120.0
            },
            {
                "start_time": 36.9068182,
                "end_time": 37.2909091,
                "pitch": 46,
                "velocity": 64,
                "duration": 0.3840909,
                "tempo": 120.0
            },
            {
                "start_time": 37.3068182,
                "end_time": 37.6931818,
                "pitch": 45,
                "velocity": 64,
                "duration": 0.3863636,
                "tempo": 120.0
            },
            {
                "start_time": 37.7113636,
                "end_time": 38.0931818,
                "pitch": 55,
                "velocity": 64,
                "duration": 0.3818182,
                "tempo": 120.0
            },
            {
                "start_time": 38.1113636,
                "end_time": 38.4931818,
                "pitch": 54,
                "velocity": 64,
                "duration": 0.3818182,
                "tempo": 120.0
            },
            {
                "start_time": 62.5431818,
                "end_time": 62.7272727,
                "pitch": 63,
                "velocity": 64,
                "duration": 0.1840909,
                "tempo": 120.0
            },
            {
                "start_time": 62.7431818,
                "end_time": 62.9272727,
                "pitch": 67,
                "velocity": 64,
                "duration": 0.1840909,
                "tempo": 120.0
            },
            {
                "start_time": 62.9431818,
                "end_time": 63.1272727,
                "pitch": 70,
                "velocity": 64,
                "duration": 0.1840909,
                "tempo": 120.0
            },
            {
                "start_time": 63.1431818,
                "end_time": 63.3272727,
                "pitch": 74,
                "velocity": 64,
                "duration": 0.1840909,
                "tempo": 120.0
            },
            {
                "start_time": 63.3431818,
                "end_time": 64.1295455,
                "pitch": 74,
                "velocity": 64,
                "duration": 0.7863636,
                "tempo": 120.0
            },
            {
                "start_time": 64.1454545,
                "end_time": 64.3295455,
                "pitch": 62,
                "velocity": 64,
                "duration": 0.1840909,
                "tempo": 120.0
            },
            {
                "start_time": 64.3454545,
                "end_time": 64.5295455,
                "pitch": 65,
                "velocity": 64,
                "duration": 0.1840909,
                "tempo": 120.0
            },
            {
                "start_time": 64.5454545,
                "end_time": 64.7295455,
                "pitch": 70,
                "velocity": 64,
                "duration": 0.1840909,
                "tempo": 120.0
            },
            {
                "start_time": 64.7477273,
                "end_time": 64.9318182,
                "pitch": 74,
                "velocity": 64,
                "duration": 0.1840909,
                "tempo": 120.0
            },
            {
                "start_time": 64.9477273,
                "end_time": 65.7340909,
                "pitch": 74,
                "velocity": 64,
                "duration": 0.7863636,
                "tempo": 120.0
            },
            {
                "start_time": 65.7522727,
                "end_time": 65.9340909,
                "pitch": 60,
                "velocity": 64,
                "duration": 0.1818182,
                "tempo": 120.0
            },
            {
                "start_time": 65.9522727,
                "end_time": 66.1340909,
                "pitch": 63,
                "velocity": 64,
                "duration": 0.1818182,
                "tempo": 120.0
            },
            {
                "start_time": 66.1522727,
                "end_time": 66.3363636,
                "pitch": 71,
                "velocity": 64,
                "duration": 0.1840909,
                "tempo": 120.0
            },
            {
                "start_time": 66.3522727,
                "end_time": 66.5363636,
                "pitch": 72,
                "velocity": 64,
                "duration": 0.1840909,
                "tempo": 120.0
            },
            {
                "start_time": 66.5545455,
                "end_time": 67.3409091,
                "pitch": 72,
                "velocity": 64,
                "duration": 0.7863636,
                "tempo": 120.0
            },
            {
                "start_time": 67.3568182,
                "end_time": 67.7431818,
                "pitch": 46,
                "velocity": 64,
                "duration": 0.3863636,
                "tempo": 120.0
            },
            {
                "start_time": 67.7590909,
                "end_time": 68.1431818,
                "pitch": 45,
                "velocity": 64,
                "duration": 0.3840909,
                "tempo": 120.0
            },
            {
                "start_time": 68.1590909,
                "end_time": 68.5454545,
                "pitch": 55,
                "velocity": 64,
                "duration": 0.3863636,
                "tempo": 120.0
            },
            {
                "start_time": 68.5613636,
                "end_time": 68.9477273,
                "pitch": 54,
                "velocity": 64,
                "duration": 0.3863636,
                "tempo": 120.0
            },
            {
                "start_time": 68.9636364,
                "end_time": 70.1431818,
                "pitch": 62,
                "velocity": 64,
                "duration": 1.1795455,
                "tempo": 120.0
            }
        ],
        "Oboe": [
            {
                "start_time": 0.0159091,
                "end_time": 1.5772727,
                "pitch": 43,
                "velocity": 51,
                "duration": 1.5613636,
                "tempo": 120.0
            },
            {
                "start_time": 1.5954545,
                "end_time": 2.7818182,
                "pitch": 43,
                "velocity": 51,
                "duration": 1.1863636,
                "tempo": 120.0
            },
            {
                "start_time": 2.7977273,
                "end_time": 2.9818182,
                "pitch": 43,
                "velocity": 51,
                "duration": 0.1840909,
                "tempo": 120.0
            },
            {
                "start_time": 2.9977273,
                "end_time": 3.1818182,
                "pitch": 38,
                "velocity": 51,
                "duration": 0.1840909,
                "tempo": 120.0
            },
            {
                "start_time": 3.1977273,
                "end_time": 4.7863636,
                "pitch": 43,
                "velocity": 51,
                "duration": 1.5886364,
                "tempo": 120.0
            },
            {
                "start_time": 4.8022727,
                "end_time": 5.5886364,
                "pitch": 43,
                "velocity": 51,
                "duration": 0.7863636,
                "tempo": 120.0
            },
            {
                "start_time": 5.6045455,
                "end_time": 5.7886364,
                "pitch": 43,
                "velocity": 51,
                "duration": 0.1840909,
                "tempo": 120.0
            },
            {
                "start_time": 5.8045455,
                "end_time": 5.9886364,
                "pitch": 51,
                "velocity": 51,
                "duration": 0.1840909,
                "tempo": 120.0
            },
            {
                "start_time": 6.0045455,
                "end_time": 6.1909091,
                "pitch": 50,
                "velocity": 51,
                "duration": 0.1863636,
                "tempo": 120.0
            },
            {
                "start_time": 6.2068182,
                "end_time": 6.3909091,
                "pitch": 46,
                "velocity": 51,
                "duration": 0.1840909,
                "tempo": 120.0
            },
            {
                "start_time": 6.4090909,
                "end_time": 6.9931818,
                "pitch": 43,
                "velocity": 51,
                "duration": 0.5840909,
                "tempo": 120.0
            },
            {
                "start_time": 7.0113636,
                "end_time": 7.3954545,
                "pitch": 43,
                "velocity": 51,
                "duration": 0.3840909,
                "tempo": 120.0
            },
            {
                "start_time": 7.4113636,
                "end_time": 7.7977273,
                "pitch": 43,
                "velocity": 51,
                "duration": 0.3863636,
                "tempo": 120.0
            },
            {
                "start_time": 7.8136364,
                "end_time": 7.9977273,
                "pitch": 38,
                "velocity": 51,
                "duration": 0.1840909,
                "tempo": 120.0
            },
            {
                "start_time": 8.0136364,
                "end_time": 8.6,
                "pitch": 43,
                "velocity": 51,
                "duration": 0.5863636,
                "tempo": 120.0
            },
            {
                "start_time": 8.6181818,
                "end_time": 9.0045455,
                "pitch": 43,
                "velocity": 51,
                "duration": 0.3863636,
                "tempo": 120.0
            },
            {
                "start_time": 9.0204545,
                "end_time": 9.2045455,
                "pitch": 51,
                "velocity": 51,
                "duration": 0.1840909,
                "tempo": 120.0
            },
            {
                "start_time": 9.2227273,
                "end_time": 9.4045455,
                "pitch": 50,
                "velocity": 51,
                "duration": 0.1818182,
                "tempo": 120.0
            },
            {
                "start_time": 9.4227273,
                "end_time": 9.6045455,
                "pitch": 46,
                "velocity": 51,
                "duration": 0.1818182,
                "tempo": 120.0
            },
            {
                "start_time": 9.6227273,
                "end_time": 10.2090909,
                "pitch": 43,
                "velocity": 51,
                "duration": 0.5863636,
                "tempo": 120.0
            },
            {
                "start_time": 10.225,
                "end_time": 10.6113636,
                "pitch": 43,
                "velocity": 51,
                "duration": 0.3863636,
                "tempo": 120.0
            },
            {
                "start_time": 10.6272727,
                "end_time": 11.0136364,
                "pitch": 43,
                "velocity": 51,
                "duration": 0.3863636,
                "tempo": 120.0
            },
            {
                "start_time": 11.0318182,
                "end_time": 11.2159091,
                "pitch": 38,
                "velocity": 51,
                "duration": 0.1840909,
                "tempo": 120.0
            },
            {
                "start_time": 11.2318182,
                "end_time": 11.8159091,
                "pitch": 43,
                "velocity": 51,
                "duration": 0.5840909,
                "tempo": 120.0
            },
            {
                "start_time": 11.8340909,
                "end_time": 12.2204545,
                "pitch": 43,
                "velocity": 51,
                "duration": 0.3863636,
                "tempo": 120.0
            },
            {
                "start_time": 12.2363636,
                "end_time": 12.4204545,
                "pitch": 51,
                "velocity": 51,
                "duration": 0.1840909,
                "tempo": 120.0
            },
            {
                "start_time": 12.4386364,
                "end_time": 12.6227273,
                "pitch": 50,
                "velocity": 51,
                "duration": 0.1840909,
                "tempo": 120.0
            },
            {
                "start_time": 12.6386364,
                "end_time": 12.8227273,
                "pitch": 46,
                "velocity": 51,
                "duration": 0.1840909,
                "tempo": 120.0
            },
            {
                "start_time": 12.8409091,
                "end_time": 13.4272727,
                "pitch": 39,
                "velocity": 51,
                "duration": 0.5863636,
                "tempo": 120.0
            },
            {
                "start_time": 13.4431818,
                "end_time": 13.8272727,
                "pitch": 39,
                "velocity": 51,
                "duration": 0.3840909,
                "tempo": 120.0
            },
            {
                "start_time": 13.8454545,
                "end_time": 14.0295455,
                "pitch": 39,
                "velocity": 51,
                "duration": 0.1840909,
                "tempo": 120.0
            },
            {
                "start_time": 14.0454545,
                "end_time": 14.2295455,
                "pitch": 46,
                "velocity": 51,
                "duration": 0.1840909,
                "tempo": 120.0
            },
            {
                "start_time": 14.2477273,
                "end_time": 14.4318182,
                "pitch": 45,
                "velocity": 51,
                "duration": 0.1840909,
                "tempo": 120.0
            },
            {
                "start_time": 14.4477273,
                "end_time": 15.0363636,
                "pitch": 38,
                "velocity": 51,
                "duration": 0.5886364,
                "tempo": 120.0
            },
            {
                "start_time": 15.0522727,
                "end_time": 15.4363636,
                "pitch": 38,
                "velocity": 51,
                "duration": 0.3840909,
                "tempo": 120.0
            },
            {
                "start_time": 15.4545455,
                "end_time": 15.6363636,
                "pitch": 38,
                "velocity": 51,
                "duration": 0.1818182,
                "tempo": 120.0
            },
            {
                "start_time": 15.6545455,
                "end_time": 15.8386364,
                "pitch": 46,
                "velocity": 51,
                "duration": 0.1840909,
                "tempo": 120.0
            },
            {
                "start_time": 15.8545455,
                "end_time": 16.0386364,
                "pitch": 45,
                "velocity": 51,
                "duration": 0.1840909,
                "tempo": 120.0
            },
            {
                "start_time": 16.0568182,
                "end_time": 16.6431818,
                "pitch": 36,
                "velocity": 51,
                "duration": 0.5863636,
                "tempo": 120.0
            },
            {
                "start_time": 16.6590909,
                "end_time": 17.0431818,
                "pitch": 36,
                "velocity": 51,
                "duration": 0.3840909,
                "tempo": 120.0
            },
            {
                "start_time": 17.0613636,
                "end_time": 17.2454545,
                "pitch": 36,
                "velocity": 51,
                "duration": 0.1840909,
                "tempo": 120.0
            },
            {
                "start_time": 17.2613636,
                "end_time": 17.4454545,
                "pitch": 46,
                "velocity": 51,
                "duration": 0.1840909,
                "tempo": 120.0
            },
            {
                "start_time": 17.4613636,
                "end_time": 17.6454545,
                "pitch": 45,
                "velocity": 51,
                "duration": 0.1840909,
                "tempo": 120.0
            },
            {
                "start_time": 17.6613636,
                "end_time": 18.0477273,
                "pitch": 34,
                "velocity": 51,
                "duration": 0.3863636,
                "tempo": 120.0
            },
            {
                "start_time": 18.0636364,
                "end_time": 18.4477273,
                "pitch": 33,
                "velocity": 51,
                "duration": 0.3840909,
                "tempo": 120.0
            },
            {
                "start_time": 18.4636364,
                "end_time": 18.8477273,
                "pitch": 43,
                "velocity": 51,
                "duration": 0.3840909,
                "tempo": 120.0
            },
            {
                "start_time": 18.8636364,
                "end_time": 19.25,
                "pitch": 42,
                "velocity": 51,
                "duration": 0.3863636,
                "tempo": 120.0
            },
            {
                "start_time": 19.2681818,
                "end_time": 20.8522727,
                "pitch": 43,
                "velocity": 51,
                "duration": 1.5840909,
                "tempo": 120.0
            },
            {
                "start_time": 20.8704545,
                "end_time": 22.0590909,
                "pitch": 43,
                "velocity": 51,
                "duration": 1.1886364,
                "tempo": 120.0
            },
            {
                "start_time": 22.075,
                "end_time": 22.2590909,
                "pitch": 43,
                "velocity": 51,
                "duration": 0.1840909,
                "tempo": 120.0
            },
            {
                "start_time": 22.275,
                "end_time": 22.4590909,
                "pitch": 38,
                "velocity": 51,
                "duration": 0.1840909,
                "tempo": 120.0
            },
            {
                "start_time": 22.475,
                "end_time": 24.0636364,
                "pitch": 43,
                "velocity": 51,
                "duration": 1.5886364,
                "tempo": 120.0
            },
            {
                "start_time": 24.0818182,
                "end_time": 24.8636364,
                "pitch": 43,
                "velocity": 51,
                "duration": 0.7818182,
                "tempo": 120.0
            },
            {
                "start_time": 24.8818182,
                "end_time": 25.0659091,
                "pitch": 43,
                "velocity": 51,
                "duration": 0.1840909,
                "tempo": 120.0
            },
            {
                "start_time": 25.0818182,
                "end_time": 25.2659091,
                "pitch": 51,
                "velocity": 51,
                "duration": 0.1840909,
                "tempo": 120.0
            },
            {
                "start_time": 25.2840909,
                "end_time": 25.4659091,
                "pitch": 50,
                "velocity": 51,
                "duration": 0.1818182,
                "tempo": 120.0
            },
            {
                "start_time": 25.4840909,
                "end_time": 25.6659091,
                "pitch": 46,
                "velocity": 51,
                "duration": 0.1818182,
                "tempo": 120.0
            },
            {
                "start_time": 25.6840909,
                "end_time": 26.2704545,
                "pitch": 43,
                "velocity": 51,
                "duration": 0.5863636,
                "tempo": 120.0
            },
            {
                "start_time": 26.2863636,
                "end_time": 26.6704545,
                "pitch": 43,
                "velocity": 51,
                "duration": 0.3840909,
                "tempo": 120.0
            },
            {
                "start_time": 26.6863636,
                "end_time": 27.0704545,
                "pitch": 43,
                "velocity": 51,
                "duration": 0.3840909,
                "tempo": 120.0
            },
            {
                "start_time": 27.0863636,
                "end_time": 27.2727273,
                "pitch": 38,
                "velocity": 51,
                "duration": 0.1863636,
                "tempo": 120.0
            },
            {
                "start_time": 27.2886364,
                "end_time": 27.8727273,
                "pitch": 43,
                "velocity": 51,
                "duration": 0.5840909,
                "tempo": 120.0
            },
            {
                "start_time": 27.8909091,
                "end_time": 28.275,
                "pitch": 43,
                "velocity": 51,
                "duration": 0.3840909,
                "tempo": 120.0
            },
            {
                "start_time": 28.2909091,
                "end_time": 28.475,
                "pitch": 51,
                "velocity": 51,
                "duration": 0.1840909,
                "tempo": 120.0
            },
            {
                "start_time": 28.4909091,
                "end_time": 28.675,
                "pitch": 50,
                "velocity": 51,
                "duration": 0.1840909,
                "tempo": 120.0
            },
            {
                "start_time": 28.6909091,
                "end_time": 28.875,
                "pitch": 46,
                "velocity": 51,
                "duration": 0.1840909,
                "tempo": 120.0
            },
            {
                "start_time": 28.8909091,
                "end_time": 29.4772727,
                "pitch": 43,
                "velocity": 51,
                "duration": 0.5863636,
                "tempo": 120.0
            },
            {
                "start_time": 29.4931818,
                "end_time": 29.8795455,
                "pitch": 43,
                "velocity": 51,
                "duration": 0.3863636,
                "tempo": 120.0
            },
            {
                "start_time": 29.8954545,
                "end_time": 30.2795455,
                "pitch": 43,
                "velocity": 51,
                "duration": 0.3840909,
                "tempo": 120.0
            },
            {
                "start_time": 30.2977273,
                "end_time": 30.4795455,
                "pitch": 38,
                "velocity": 51,
                "duration": 0.1818182,
                "tempo": 120.0
            },
            {
                "start_time": 30.4977273,
                "end_time": 31.0818182,
                "pitch": 43,
                "velocity": 51,
                "duration": 0.5840909,
                "tempo": 120.0
            },
            {
                "start_time": 31.0977273,
                "end_time": 31.4818182,
                "pitch": 43,
                "velocity": 51,
                "duration": 0.3840909,
                "tempo": 120.0
            },
            {
                "start_time": 31.5,
                "end_time": 31.6818182,
                "pitch": 51,
                "velocity": 51,
                "duration": 0.1818182,
                "tempo": 120.0
            },
            {
                "start_time": 31.7,
                "end_time": 31.8840909,
                "pitch": 50,
                "velocity": 51,
                "duration": 0.1840909,
                "tempo": 120.0
            },
            {
                "start_time": 31.9,
                "end_time": 32.0863636,
                "pitch": 46,
                "velocity": 51,
                "duration": 0.1863636,
                "tempo": 120.0
            },
            {
                "start_time": 32.1022727,
                "end_time": 32.6863636,
                "pitch": 39,
                "velocity": 51,
                "duration": 0.5840909,
                "tempo": 120.0
            },
            {
                "start_time": 32.7022727,
                "end_time": 33.0863636,
                "pitch": 39,
                "velocity": 51,
                "duration": 0.3840909,
                "tempo": 120.0
            },
            {
                "start_time": 33.1022727,
                "end_time": 33.2863636,
                "pitch": 39,
                "velocity": 51,
                "duration": 0.1840909,
                "tempo": 120.0
            },
            {
                "start_time": 33.3022727,
                "end_time": 33.4863636,
                "pitch": 46,
                "velocity": 51,
                "duration": 0.1840909,
                "tempo": 120.0
            },
            {
                "start_time": 33.5045455,
                "end_time": 33.6886364,
                "pitch": 45,
                "velocity": 51,
                "duration": 0.1840909,
                "tempo": 120.0
            },
            {
                "start_time": 33.7045455,
                "end_time": 34.2886364,
                "pitch": 38,
                "velocity": 51,
                "duration": 0.5840909,
                "tempo": 120.0
            },
            {
                "start_time": 34.3045455,
                "end_time": 34.6886364,
                "pitch": 38,
                "velocity": 51,
                "duration": 0.3840909,
                "tempo": 120.0
            },
            {
                "start_time": 34.7045455,
                "end_time": 34.8886364,
                "pitch": 38,
                "velocity": 51,
                "duration": 0.1840909,
                "tempo": 120.0
            },
            {
                "start_time": 34.9045455,
                "end_time": 35.0886364,
                "pitch": 46,
                "velocity": 51,
                "duration": 0.1840909,
                "tempo": 120.0
            },
            {
                "start_time": 35.1045455,
                "end_time": 35.2886364,
                "pitch": 45,
                "velocity": 51,
                "duration": 0.1840909,
                "tempo": 120.0
            },
            {
                "start_time": 35.3045455,
                "end_time": 35.8909091,
                "pitch": 36,
                "velocity": 51,
                "duration": 0.5863636,
                "tempo": 120.0
            },
            {
                "start_time": 35.9068182,
                "end_time": 36.2909091,
                "pitch": 36,
                "velocity": 51,
                "duration": 0.3840909,
                "tempo": 120.0
            },
            {
                "start_time": 36.3068182,
                "end_time": 36.4909091,
                "pitch": 36,
                "velocity": 51,
                "duration": 0.1840909,
                "tempo": 120.0
            },
            {
                "start_time": 36.5068182,
                "end_time": 36.6909091,
                "pitch": 46,
                "velocity": 51,
                "duration": 0.1840909,
                "tempo": 120.0
            },
            {
                "start_time": 36.7068182,
                "end_time": 36.8909091,
                "pitch": 45,
                "velocity": 51,
                "duration": 0.1840909,
                "tempo": 120.0
            },
            {
                "start_time": 36.9068182,
                "end_time": 37.2909091,
                "pitch": 34,
                "velocity": 51,
                "duration": 0.3840909,
                "tempo": 120.0
            },
            {
                "start_time": 37.3068182,
                "end_time": 37.6931818,
                "pitch": 33,
                "velocity": 51,
                "duration": 0.3863636,
                "tempo": 120.0
            },
            {
                "start_time": 37.7113636,
                "end_time": 38.0931818,
                "pitch": 43,
                "velocity": 51,
                "duration": 0.3818182,
                "tempo": 120.0
            },
            {
                "start_time": 38.1113636,
                "end_time": 38.4931818,
                "pitch": 42,
                "velocity": 51,
                "duration": 0.3818182,
                "tempo": 120.0
            },
            {
                "start_time": 38.5113636,
                "end_time": 39.0931818,
                "pitch": 43,
                "velocity": 51,
                "duration": 0.5818182,
                "tempo": 120.0
            },
            {
                "start_time": 39.1113636,
                "end_time": 39.2931818,
                "pitch": 43,
                "velocity": 51,
                "duration": 0.1818182,
                "tempo": 120.0
            },
            {
                "start_time": 39.3113636,
                "end_time": 39.5613636,
                "pitch": 51,
                "velocity": 51,
                "duration": 0.25,
                "tempo": 120.0
            },
            {
                "start_time": 39.5795455,
                "end_time": 39.8295455,
                "pitch": 50,
                "velocity": 51,
                "duration": 0.25,
                "tempo": 120.0
            },
            {
                "start_time": 39.8454545,
                "end_time": 40.0954545,
                "pitch": 46,
                "velocity": 51,
                "duration": 0.25,
                "tempo": 120.0
            },
            {
                "start_time": 40.1136364,
                "end_time": 40.6954545,
                "pitch": 39,
                "velocity": 51,
                "duration": 0.5818182,
                "tempo": 120.0
            },
            {
                "start_time": 40.7136364,
                "end_time": 40.8954545,
                "pitch": 39,
                "velocity": 51,
                "duration": 0.1818182,
                "tempo": 120.0
            },
            {
                "start_time": 40.9136364,
                "end_time": 41.1636364,
                "pitch": 51,
                "velocity": 51,
                "duration": 0.25,
                "tempo": 120.0
            },
            {
                "start_time": 41.1795455,
                "end_time": 41.4272727,
                "pitch": 50,
                "velocity": 51,
                "duration": 0.2477273,
                "tempo": 120.0
            },
            {
                "start_time": 41.4431818,
                "end_time": 41.6886364,
                "pitch": 46,
                "velocity": 51,
                "duration": 0.2454545,
                "tempo": 120.0
            },
            {
                "start_time": 41.7045455,
                "end_time": 42.3,
                "pitch": 41,
                "velocity": 51,
                "duration": 0.5954545,
                "tempo": 120.0
            },
            {
                "start_time": 42.3159091,
                "end_time": 42.5,
                "pitch": 41,
                "velocity": 51,
                "duration": 0.1840909,
                "tempo": 120.0
            },
            {
                "start_time": 42.5159091,
                "end_time": 42.7659091,
                "pitch": 51,
                "velocity": 51,
                "duration": 0.25,
                "tempo": 120.0
            },
            {
                "start_time": 42.7818182,
                "end_time": 43.0318182,
                "pitch": 50,
                "velocity": 51,
                "duration": 0.25,
                "tempo": 120.0
            },
            {
                "start_time": 43.05,
                "end_time": 43.3,
                "pitch": 46,
                "velocity": 51,
                "duration": 0.25,
                "tempo": 120.0
            },
            {
                "start_time": 43.3159091,
                "end_time": 43.7022727,
                "pitch": 38,
                "velocity": 51,
                "duration": 0.3863636,
                "tempo": 120.0
            },
            {
                "start_time": 43.9181818,
                "end_time": 44.1022727,
                "pitch": 38,
                "velocity": 51,
                "duration": 0.1840909,
                "tempo": 120.0
            },
            {
                "start_time": 44.1181818,
                "end_time": 44.3681818,
                "pitch": 51,
                "velocity": 51,
                "duration": 0.25,
                "tempo": 120.0
            },
            {
                "start_time": 44.3840909,
                "end_time": 44.6340909,
                "pitch": 50,
                "velocity": 51,
                "duration": 0.25,
                "tempo": 120.0
            },
            {
                "start_time": 44.6522727,
                "end_time": 44.9022727,
                "pitch": 46,
                "velocity": 51,
                "duration": 0.25,
                "tempo": 120.0
            },
            {
                "start_time": 44.9181818,
                "end_time": 45.5022727,
                "pitch": 43,
                "velocity": 51,
                "duration": 0.5840909,
                "tempo": 120.0
            },
            {
                "start_time": 45.5204545,
                "end_time": 45.7045455,
                "pitch": 43,
                "velocity": 51,
                "duration": 0.1840909,
                "tempo": 120.0
            },
            {
                "start_time": 45.7204545,
                "end_time": 45.9704545,
                "pitch": 51,
                "velocity": 51,
                "duration": 0.25,
                "tempo": 120.0
            },
            {
                "start_time": 45.9886364,
                "end_time": 46.2386364,
                "pitch": 50,
                "velocity": 51,
                "duration": 0.25,
                "tempo": 120.0
            },
            {
                "start_time": 46.2545455,
                "end_time": 46.5045455,
                "pitch": 46,
                "velocity": 51,
                "duration": 0.25,
                "tempo": 120.0
            },
            {
                "start_time": 46.5204545,
                "end_time": 47.1,
                "pitch": 39,
                "velocity": 51,
                "duration": 0.5795455,
                "tempo": 120.0
            },
            {
                "start_time": 47.1181818,
                "end_time": 47.2977273,
                "pitch": 39,
                "velocity": 51,
                "duration": 0.1795455,
                "tempo": 120.0
            },
            {
                "start_time": 47.3136364,
                "end_time": 47.5704545,
                "pitch": 51,
                "velocity": 51,
                "duration": 0.2568182,
                "tempo": 120.0
            },
            {
                "start_time": 47.5863636,
                "end_time": 47.8409091,
                "pitch": 50,
                "velocity": 51,
                "duration": 0.2545455,
                "tempo": 120.0
            },
            {
                "start_time": 47.8568182,
                "end_time": 48.1068182,
                "pitch": 46,
                "velocity": 51,
                "duration": 0.25,
                "tempo": 120.0
            },
            {
                "start_time": 48.125,
                "end_time": 48.7068182,
                "pitch": 41,
                "velocity": 51,
                "duration": 0.5818182,
                "tempo": 120.0
            },
            {
                "start_time": 48.725,
                "end_time": 48.9068182,
                "pitch": 41,
                "velocity": 51,
                "duration": 0.1818182,
                "tempo": 120.0
            },
            {
                "start_time": 48.925,
                "end_time": 49.175,
                "pitch": 51,
                "velocity": 51,
                "duration": 0.25,
                "tempo": 120.0
            },
            {
                "start_time": 49.1909091,
                "end_time": 49.4386364,
                "pitch": 50,
                "velocity": 51,
                "duration": 0.2477273,
                "tempo": 120.0
            },
            {
                "start_time": 49.4545455,
                "end_time": 49.7,
                "pitch": 46,
                "velocity": 51,
                "duration": 0.2454545,
                "tempo": 120.0
            },
            {
                "start_time": 49.7159091,
                "end_time": 51.3113636,
                "pitch": 43,
                "velocity": 51,
                "duration": 1.5954545,
                "tempo": 120.0
            },
            {
                "start_time": 51.3272727,
                "end_time": 52.5136364,
                "pitch": 43,
                "velocity": 51,
                "duration": 1.1863636,
                "tempo": 120.0
            },
            {
                "start_time": 52.5295455,
                "end_time": 52.7136364,
                "pitch": 43,
                "velocity": 51,
                "duration": 0.1840909,
                "tempo": 120.0
            },
            {
                "start_time": 52.7295455,
                "end_time": 52.9136364,
                "pitch": 38,
                "velocity": 51,
                "duration": 0.1840909,
                "tempo": 120.0
            },
            {
                "start_time": 52.9295455,
                "end_time": 54.5159091,
                "pitch": 43,
                "velocity": 51,
                "duration": 1.5863636,
                "tempo": 120.0
            },
            {
                "start_time": 54.5318182,
                "end_time": 55.3159091,
                "pitch": 43,
                "velocity": 51,
                "duration": 0.7840909,
                "tempo": 120.0
            },
            {
                "start_time": 55.3318182,
                "end_time": 55.5159091,
                "pitch": 43,
                "velocity": 51,
                "duration": 0.1840909,
                "tempo": 120.0
            },
            {
                "start_time": 55.5340909,
                "end_time": 55.7181818,
                "pitch": 51,
                "velocity": 51,
                "duration": 0.1840909,
                "tempo": 120.0
            },
            {
                "start_time": 55.7340909,
                "end_time": 55.9181818,
                "pitch": 50,
                "velocity": 51,
                "duration": 0.1840909,
                "tempo": 120.0
            },
            {
                "start_time": 55.9340909,
                "end_time": 56.1181818,
                "pitch": 46,
                "velocity": 51,
                "duration": 0.1840909,
                "tempo": 120.0
            },
            {
                "start_time": 56.1340909,
                "end_time": 56.7181818,
                "pitch": 43,
                "velocity": 51,
                "duration": 0.5840909,
                "tempo": 120.0
            },
            {
                "start_time": 56.7340909,
                "end_time": 57.1181818,
                "pitch": 43,
                "velocity": 51,
                "duration": 0.3840909,
                "tempo": 120.0
            },
            {
                "start_time": 57.1340909,
                "end_time": 57.5204545,
                "pitch": 43,
                "velocity": 51,
                "duration": 0.3863636,
                "tempo": 120.0
            },
            {
                "start_time": 57.5363636,
                "end_time": 57.7204545,
                "pitch": 38,
                "velocity": 51,
                "duration": 0.1840909,
                "tempo": 120.0
            },
            {
                "start_time": 57.7386364,
                "end_time": 58.3204545,
                "pitch": 43,
                "velocity": 51,
                "duration": 0.5818182,
                "tempo": 120.0
            },
            {
                "start_time": 58.3386364,
                "end_time": 58.7204545,
                "pitch": 43,
                "velocity": 51,
                "duration": 0.3818182,
                "tempo": 120.0
            },
            {
                "start_time": 58.7386364,
                "end_time": 58.9204545,
                "pitch": 51,
                "velocity": 51,
                "duration": 0.1818182,
                "tempo": 120.0
            },
            {
                "start_time": 58.9386364,
                "end_time": 59.1204545,
                "pitch": 50,
                "velocity": 51,
                "duration": 0.1818182,
                "tempo": 120.0
            },
            {
                "start_time": 59.1386364,
                "end_time": 59.3204545,
                "pitch": 46,
                "velocity": 51,
                "duration": 0.1818182,
                "tempo": 120.0
            },
            {
                "start_time": 59.3386364,
                "end_time": 59.9227273,
                "pitch": 43,
                "velocity": 51,
                "duration": 0.5840909,
                "tempo": 120.0
            },
            {
                "start_time": 59.9409091,
                "end_time": 60.3227273,
                "pitch": 43,
                "velocity": 51,
                "duration": 0.3818182,
                "tempo": 120.0
            },
            {
                "start_time": 60.3409091,
                "end_time": 60.7227273,
                "pitch": 43,
                "velocity": 51,
                "duration": 0.3818182,
                "tempo": 120.0
            },
            {
                "start_time": 60.7409091,
                "end_time": 60.9227273,
                "pitch": 38,
                "velocity": 51,
                "duration": 0.1818182,
                "tempo": 120.0
            },
            {
                "start_time": 60.9409091,
                "end_time": 61.525,
                "pitch": 43,
                "velocity": 51,
                "duration": 0.5840909,
                "tempo": 120.0
            },
            {
                "start_time": 61.5409091,
                "end_time": 61.9272727,
                "pitch": 43,
                "velocity": 51,
                "duration": 0.3863636,
                "tempo": 120.0
            },
            {
                "start_time": 61.9431818,
                "end_time": 62.1272727,
                "pitch": 51,
                "velocity": 51,
                "duration": 0.1840909,
                "tempo": 120.0
            },
            {
                "start_time": 62.1431818,
                "end_time": 62.3272727,
                "pitch": 50,
                "velocity": 51,
                "duration": 0.1840909,
                "tempo": 120.0
            },
            {
                "start_time": 62.3431818,
                "end_time": 62.5272727,
                "pitch": 46,
                "velocity": 51,
                "duration": 0.1840909,
                "tempo": 120.0
            },
            {
                "start_time": 62.5431818,
                "end_time": 63.1272727,
                "pitch": 39,
                "velocity": 51,
                "duration": 0.5840909,
                "tempo": 120.0
            },
            {
                "start_time": 63.1431818,
                "end_time": 63.5272727,
                "pitch": 39,
                "velocity": 51,
                "duration": 0.3840909,
                "tempo": 120.0
            },
            {
                "start_time": 63.5454545,
                "end_time": 63.7295455,
                "pitch": 39,
                "velocity": 51,
                "duration": 0.1840909,
                "tempo": 120.0
            },
            {
                "start_time": 63.7454545,
                "end_time": 63.9295455,
                "pitch": 46,
                "velocity": 51,
                "duration": 0.1840909,
                "tempo": 120.0
            },
            {
                "start_time": 63.9454545,
                "end_time": 64.1295455,
                "pitch": 45,
                "velocity": 51,
                "duration": 0.1840909,
                "tempo": 120.0
            },
            {
                "start_time": 64.1454545,
                "end_time": 64.7295455,
                "pitch": 38,
                "velocity": 51,
                "duration": 0.5840909,
                "tempo": 120.0
            },
            {
                "start_time": 64.7477273,
                "end_time": 65.1318182,
                "pitch": 38,
                "velocity": 51,
                "duration": 0.3840909,
                "tempo": 120.0
            },
            {
                "start_time": 65.1477273,
                "end_time": 65.3318182,
                "pitch": 38,
                "velocity": 51,
                "duration": 0.1840909,
                "tempo": 120.0
            },
            {
                "start_time": 65.3477273,
                "end_time": 65.5340909,
                "pitch": 46,
                "velocity": 51,
                "duration": 0.1863636,
                "tempo": 120.0
            },
            {
                "start_time": 65.55,
                "end_time": 65.7340909,
                "pitch": 45,
                "velocity": 51,
                "duration": 0.1840909,
                "tempo": 120.0
            },
            {
                "start_time": 65.7522727,
                "end_time": 66.3363636,
                "pitch": 36,
                "velocity": 51,
                "duration": 0.5840909,
                "tempo": 120.0
            },
            {
                "start_time": 66.3522727,
                "end_time": 66.7386364,
                "pitch": 36,
                "velocity": 51,
                "duration": 0.3863636,
                "tempo": 120.0
            },
            {
                "start_time": 66.7545455,
                "end_time": 66.9409091,
                "pitch": 36,
                "velocity": 51,
                "duration": 0.1863636,
                "tempo": 120.0
            },
            {
                "start_time": 66.9568182,
                "end_time": 67.1409091,
                "pitch": 46,
                "velocity": 51,
                "duration": 0.1840909,
                "tempo": 120.0
            },
            {
                "start_time": 67.1568182,
                "end_time": 67.3409091,
                "pitch": 45,
                "velocity": 51,
                "duration": 0.1840909,
                "tempo": 120.0
            },
            {
                "start_time": 67.3568182,
                "end_time": 67.7431818,
                "pitch": 34,
                "velocity": 51,
                "duration": 0.3863636,
                "tempo": 120.0
            },
            {
                "start_time": 67.7590909,
                "end_time": 68.1431818,
                "pitch": 33,
                "velocity": 51,
                "duration": 0.3840909,
                "tempo": 120.0
            },
            {
                "start_time": 68.1590909,
                "end_time": 68.5454545,
                "pitch": 43,
                "velocity": 51,
                "duration": 0.3863636,
                "tempo": 120.0
            },
            {
                "start_time": 68.5613636,
                "end_time": 68.9477273,
                "pitch": 42,
                "velocity": 51,
                "duration": 0.3863636,
                "tempo": 120.0
            },
            {
                "start_time": 68.9636364,
                "end_time": 70.1431818,
                "pitch": 43,
                "velocity": 51,
                "duration": 1.1795455,
                "tempo": 120.0
            },
            {
                "start_time": 70.5590909,
                "end_time": 70.8113636,
                "pitch": 43,
                "velocity": 51,
                "duration": 0.2522727,
                "tempo": 120.0
            }
        ],
        "Harpsichord": [
            {
                "start_time": 6.4090909,
                "end_time": 6.5931818,
                "pitch": 55,
                "velocity": 80,
                "duration": 0.1840909,
                "tempo": 120.0
            },
            {
                "start_time": 6.6090909,
                "end_time": 6.7931818,
                "pitch": 74,
                "velocity": 80,
                "duration": 0.1840909,
                "tempo": 120.0
            },
            {
                "start_time": 6.8113636,
                "end_time": 6.9931818,
                "pitch": 67,
                "velocity": 80,
                "duration": 0.1818182,
                "tempo": 120.0
            },
            {
                "start_time": 7.0113636,
                "end_time": 7.1931818,
                "pitch": 72,
                "velocity": 80,
                "duration": 0.1818182,
                "tempo": 120.0
            },
            {
                "start_time": 7.2113636,
                "end_time": 7.3954545,
                "pitch": 67,
                "velocity": 80,
                "duration": 0.1840909,
                "tempo": 120.0
            },
            {
                "start_time": 7.4113636,
                "end_time": 7.5977273,
                "pitch": 69,
                "velocity": 80,
                "duration": 0.1863636,
                "tempo": 120.0
            },
            {
                "start_time": 7.6136364,
                "end_time": 7.7977273,
                "pitch": 67,
                "velocity": 80,
                "duration": 0.1840909,
                "tempo": 120.0
            },
            {
                "start_time": 7.8136364,
                "end_time": 7.9977273,
                "pitch": 70,
                "velocity": 80,
                "duration": 0.1840909,
                "tempo": 120.0
            },
            {
                "start_time": 8.0136364,
                "end_time": 8.1977273,
                "pitch": 55,
                "velocity": 80,
                "duration": 0.1840909,
                "tempo": 120.0
            },
            {
                "start_time": 8.2159091,
                "end_time": 8.4,
                "pitch": 74,
                "velocity": 80,
                "duration": 0.1840909,
                "tempo": 120.0
            },
            {
                "start_time": 8.4159091,
                "end_time": 8.6,
                "pitch": 67,
                "velocity": 80,
                "duration": 0.1840909,
                "tempo": 120.0
            },
            {
                "start_time": 8.6181818,
                "end_time": 8.8022727,
                "pitch": 72,
                "velocity": 80,
                "duration": 0.1840909,
                "tempo": 120.0
            },
            {
                "start_time": 8.8181818,
                "end_time": 9.0045455,
                "pitch": 67,
                "velocity": 80,
                "duration": 0.1863636,
                "tempo": 120.0
            },
            {
                "start_time": 9.0204545,
                "end_time": 9.2045455,
                "pitch": 75,
                "velocity": 80,
                "duration": 0.1840909,
                "tempo": 120.0
            },
            {
                "start_time": 9.2227273,
                "end_time": 9.4045455,
                "pitch": 74,
                "velocity": 80,
                "duration": 0.1818182,
                "tempo": 120.0
            },
            {
                "start_time": 9.4227273,
                "end_time": 9.6045455,
                "pitch": 69,
                "velocity": 80,
                "duration": 0.1818182,
                "tempo": 120.0
            },
            {
                "start_time": 9.6227273,
                "end_time": 9.8068182,
                "pitch": 55,
                "velocity": 80,
                "duration": 0.1840909,
                "tempo": 120.0
            },
            {
                "start_time": 9.8227273,
                "end_time": 10.0068182,
                "pitch": 74,
                "velocity": 80,
                "duration": 0.1840909,
                "tempo": 120.0
            },
            {
                "start_time": 10.025,
                "end_time": 10.2090909,
                "pitch": 67,
                "velocity": 80,
                "duration": 0.1840909,
                "tempo": 120.0
            },
            {
                "start_time": 10.225,
                "end_time": 10.4090909,
                "pitch": 72,
                "velocity": 80,
                "duration": 0.1840909,
                "tempo": 120.0
            },
            {
                "start_time": 10.4272727,
                "end_time": 10.6113636,
                "pitch": 67,
                "velocity": 80,
                "duration": 0.1840909,
                "tempo": 120.0
            },
            {
                "start_time": 10.6272727,
                "end_time": 10.8136364,
                "pitch": 69,
                "velocity": 80,
                "duration": 0.1863636,
                "tempo": 120.0
            },
            {
                "start_time": 10.8295455,
                "end_time": 11.0136364,
                "pitch": 67,
                "velocity": 80,
                "duration": 0.1840909,
                "tempo": 120.0
            },
            {
                "start_time": 11.0318182,
                "end_time": 11.2159091,
                "pitch": 70,
                "velocity": 80,
                "duration": 0.1840909,
                "tempo": 120.0
            },
            {
                "start_time": 11.2318182,
                "end_time": 11.4159091,
                "pitch": 55,
                "velocity": 80,
                "duration": 0.1840909,
                "tempo": 120.0
            },
            {
                "start_time": 11.4318182,
                "end_time": 11.6159091,
                "pitch": 74,
                "velocity": 80,
                "duration": 0.1840909,
                "tempo": 120.0
            },
            {
                "start_time": 11.6318182,
                "end_time": 11.8159091,
                "pitch": 67,
                "velocity": 80,
                "duration": 0.1840909,
                "tempo": 120.0
            },
            {
                "start_time": 11.8340909,
                "end_time": 12.0181818,
                "pitch": 72,
                "velocity": 80,
                "duration": 0.1840909,
                "tempo": 120.0
            },
            {
                "start_time": 12.0340909,
                "end_time": 12.2204545,
                "pitch": 67,
                "velocity": 80,
                "duration": 0.1863636,
                "tempo": 120.0
            },
            {
                "start_time": 12.2363636,
                "end_time": 12.4204545,
                "pitch": 75,
                "velocity": 80,
                "duration": 0.1840909,
                "tempo": 120.0
            },
            {
                "start_time": 12.4386364,
                "end_time": 12.6227273,
                "pitch": 74,
                "velocity": 80,
                "duration": 0.1840909,
                "tempo": 120.0
            },
            {
                "start_time": 12.6386364,
                "end_time": 12.8227273,
                "pitch": 69,
                "velocity": 80,
                "duration": 0.1840909,
                "tempo": 120.0
            },
            {
                "start_time": 12.8409091,
                "end_time": 14.4318182,
                "pitch": 58,
                "velocity": 80,
                "duration": 1.5909091,
                "tempo": 120.0
            },
            {
                "start_time": 14.4477273,
                "end_time": 16.0386364,
                "pitch": 57,
                "velocity": 80,
                "duration": 1.5909091,
                "tempo": 120.0
            },
            {
                "start_time": 16.0568182,
                "end_time": 17.6454545,
                "pitch": 55,
                "velocity": 80,
                "duration": 1.5886364,
                "tempo": 120.0
            },
            {
                "start_time": 17.6613636,
                "end_time": 17.7795455,
                "pitch": 75,
                "velocity": 80,
                "duration": 0.1181818,
                "tempo": 120.0
            },
            {
                "start_time": 17.7954545,
                "end_time": 17.9136364,
                "pitch": 74,
                "velocity": 80,
                "duration": 0.1181818,
                "tempo": 120.0
            },
            {
                "start_time": 17.9295455,
                "end_time": 18.0477273,
                "pitch": 72,
                "velocity": 80,
                "duration": 0.1181818,
                "tempo": 120.0
            },
            {
                "start_time": 18.0636364,
                "end_time": 18.1818182,
                "pitch": 70,
                "velocity": 80,
                "duration": 0.1181818,
                "tempo": 120.0
            },
            {
                "start_time": 18.1977273,
                "end_time": 18.3136364,
                "pitch": 69,
                "velocity": 80,
                "duration": 0.1159091,
                "tempo": 120.0
            },
            {
                "start_time": 18.3318182,
                "end_time": 18.4477273,
                "pitch": 67,
                "velocity": 80,
                "duration": 0.1159091,
                "tempo": 120.0
            },
            {
                "start_time": 18.4636364,
                "end_time": 18.5818182,
                "pitch": 66,
                "velocity": 80,
                "duration": 0.1181818,
                "tempo": 120.0
            },
            {
                "start_time": 18.5977273,
                "end_time": 18.7136364,
                "pitch": 67,
                "velocity": 80,
                "duration": 0.1159091,
                "tempo": 120.0
            },
            {
                "start_time": 18.7318182,
                "end_time": 18.8477273,
                "pitch": 69,
                "velocity": 80,
                "duration": 0.1159091,
                "tempo": 120.0
            },
            {
                "start_time": 18.8636364,
                "end_time": 18.9818182,
                "pitch": 63,
                "velocity": 80,
                "duration": 0.1181818,
                "tempo": 120.0
            },
            {
                "start_time": 18.9977273,
                "end_time": 19.1159091,
                "pitch": 66,
                "velocity": 80,
                "duration": 0.1181818,
                "tempo": 120.0
            },
            {
                "start_time": 19.1340909,
                "end_time": 19.25,
                "pitch": 69,
                "velocity": 80,
                "duration": 0.1159091,
                "tempo": 120.0
            },
            {
                "start_time": 19.2681818,
                "end_time": 20.8522727,
                "pitch": 67,
                "velocity": 80,
                "duration": 1.5840909,
                "tempo": 120.0
            },
            {
                "start_time": 20.8704545,
                "end_time": 22.4590909,
                "pitch": 67,
                "velocity": 80,
                "duration": 1.5886364,
                "tempo": 120.0
            },
            {
                "start_time": 22.475,
                "end_time": 24.0636364,
                "pitch": 79,
                "velocity": 80,
                "duration": 1.5886364,
                "tempo": 120.0
            },
            {
                "start_time": 24.0818182,
                "end_time": 25.6659091,
                "pitch": 79,
                "velocity": 80,
                "duration": 1.5840909,
                "tempo": 120.0
            },
            {
                "start_time": 25.6840909,
                "end_time": 25.8681818,
                "pitch": 55,
                "velocity": 80,
                "duration": 0.1840909,
                "tempo": 120.0
            },
            {
                "start_time": 25.8840909,
                "end_time": 26.0681818,
                "pitch": 74,
                "velocity": 80,
                "duration": 0.1840909,
                "tempo": 120.0
            },
            {
                "start_time": 26.0863636,
                "end_time": 26.2704545,
                "pitch": 67,
                "velocity": 80,
                "duration": 0.1840909,
                "tempo": 120.0
            },
            {
                "start_time": 26.2863636,
                "end_time": 26.4704545,
                "pitch": 72,
                "velocity": 80,
                "duration": 0.1840909,
                "tempo": 120.0
            },
            {
                "start_time": 26.4863636,
                "end_time": 26.6704545,
                "pitch": 67,
                "velocity": 80,
                "duration": 0.1840909,
                "tempo": 120.0
            },
            {
                "start_time": 26.6863636,
                "end_time": 26.8704545,
                "pitch": 69,
                "velocity": 80,
                "duration": 0.1840909,
                "tempo": 120.0
            },
            {
                "start_time": 26.8863636,
                "end_time": 27.0704545,
                "pitch": 67,
                "velocity": 80,
                "duration": 0.1840909,
                "tempo": 120.0
            },
            {
                "start_time": 27.0863636,
                "end_time": 27.2727273,
                "pitch": 70,
                "velocity": 80,
                "duration": 0.1863636,
                "tempo": 120.0
            },
            {
                "start_time": 27.2886364,
                "end_time": 27.4727273,
                "pitch": 55,
                "velocity": 80,
                "duration": 0.1840909,
                "tempo": 120.0
            },
            {
                "start_time": 27.4886364,
                "end_time": 27.6727273,
                "pitch": 74,
                "velocity": 80,
                "duration": 0.1840909,
                "tempo": 120.0
            },
            {
                "start_time": 27.6886364,
                "end_time": 27.8727273,
                "pitch": 67,
                "velocity": 80,
                "duration": 0.1840909,
                "tempo": 120.0
            },
            {
                "start_time": 27.8909091,
                "end_time": 28.075,
                "pitch": 72,
                "velocity": 80,
                "duration": 0.1840909,
                "tempo": 120.0
            },
            {
                "start_time": 28.0909091,
                "end_time": 28.275,
                "pitch": 67,
                "velocity": 80,
                "duration": 0.1840909,
                "tempo": 120.0
            },
            {
                "start_time": 28.2909091,
                "end_time": 28.475,
                "pitch": 75,
                "velocity": 80,
                "duration": 0.1840909,
                "tempo": 120.0
            },
            {
                "start_time": 28.4909091,
                "end_time": 28.675,
                "pitch": 74,
                "velocity": 80,
                "duration": 0.1840909,
                "tempo": 120.0
            },
            {
                "start_time": 28.6909091,
                "end_time": 28.875,
                "pitch": 69,
                "velocity": 80,
                "duration": 0.1840909,
                "tempo": 120.0
            },
            {
                "start_time": 28.8909091,
                "end_time": 29.075,
                "pitch": 55,
                "velocity": 80,
                "duration": 0.1840909,
                "tempo": 120.0
            },
            {
                "start_time": 29.0931818,
                "end_time": 29.2772727,
                "pitch": 74,
                "velocity": 80,
                "duration": 0.1840909,
                "tempo": 120.0
            },
            {
                "start_time": 29.2931818,
                "end_time": 29.4772727,
                "pitch": 67,
                "velocity": 80,
                "duration": 0.1840909,
                "tempo": 120.0
            },
            {
                "start_time": 29.4931818,
                "end_time": 29.6772727,
                "pitch": 72,
                "velocity": 80,
                "duration": 0.1840909,
                "tempo": 120.0
            },
            {
                "start_time": 29.6931818,
                "end_time": 29.8795455,
                "pitch": 67,
                "velocity": 80,
                "duration": 0.1863636,
                "tempo": 120.0
            },
            {
                "start_time": 29.8954545,
                "end_time": 30.0795455,
                "pitch": 69,
                "velocity": 80,
                "duration": 0.1840909,
                "tempo": 120.0
            },
            {
                "start_time": 30.0977273,
                "end_time": 30.2795455,
                "pitch": 67,
                "velocity": 80,
                "duration": 0.1818182,
                "tempo": 120.0
            },
            {
                "start_time": 30.2977273,
                "end_time": 30.4795455,
                "pitch": 70,
                "velocity": 80,
                "duration": 0.1818182,
                "tempo": 120.0
            },
            {
                "start_time": 30.4977273,
                "end_time": 30.6795455,
                "pitch": 55,
                "velocity": 80,
                "duration": 0.1818182,
                "tempo": 120.0
            },
            {
                "start_time": 30.6977273,
                "end_time": 30.8795455,
                "pitch": 74,
                "velocity": 80,
                "duration": 0.1818182,
                "tempo": 120.0
            },
            {
                "start_time": 30.8977273,
                "end_time": 31.0818182,
                "pitch": 67,
                "velocity": 80,
                "duration": 0.1840909,
                "tempo": 120.0
            },
            {
                "start_time": 31.0977273,
                "end_time": 31.2818182,
                "pitch": 72,
                "velocity": 80,
                "duration": 0.1840909,
                "tempo": 120.0
            },
            {
                "start_time": 31.3,
                "end_time": 31.4818182,
                "pitch": 67,
                "velocity": 80,
                "duration": 0.1818182,
                "tempo": 120.0
            },
            {
                "start_time": 31.5,
                "end_time": 31.6818182,
                "pitch": 75,
                "velocity": 80,
                "duration": 0.1818182,
                "tempo": 120.0
            },
            {
                "start_time": 31.7,
                "end_time": 31.8840909,
                "pitch": 74,
                "velocity": 80,
                "duration": 0.1840909,
                "tempo": 120.0
            },
            {
                "start_time": 31.9,
                "end_time": 32.0863636,
                "pitch": 69,
                "velocity": 80,
                "duration": 0.1863636,
                "tempo": 120.0
            },
            {
                "start_time": 32.1022727,
                "end_time": 33.6886364,
                "pitch": 58,
                "velocity": 80,
                "duration": 1.5863636,
                "tempo": 120.0
            },
            {
                "start_time": 33.7045455,
                "end_time": 35.2886364,
                "pitch": 57,
                "velocity": 80,
                "duration": 1.5840909,
                "tempo": 120.0
            },
            {
                "start_time": 35.3045455,
                "end_time": 36.8909091,
                "pitch": 55,
                "velocity": 80,
                "duration": 1.5863636,
                "tempo": 120.0
            },
            {
                "start_time": 36.9068182,
                "end_time": 37.025,
                "pitch": 75,
                "velocity": 80,
                "duration": 0.1181818,
                "tempo": 120.0
            },
            {
                "start_time": 37.0409091,
                "end_time": 37.1568182,
                "pitch": 74,
                "velocity": 80,
                "duration": 0.1159091,
                "tempo": 120.0
            },
            {
                "start_time": 37.175,
                "end_time": 37.2909091,
                "pitch": 72,
                "velocity": 80,
                "duration": 0.1159091,
                "tempo": 120.0
            },
            {
                "start_time": 37.3068182,
                "end_time": 37.425,
                "pitch": 70,
                "velocity": 80,
                "duration": 0.1181818,
                "tempo": 120.0
            },
            {
                "start_time": 37.4409091,
                "end_time": 37.5590909,
                "pitch": 69,
                "velocity": 80,
                "duration": 0.1181818,
                "tempo": 120.0
            },
            {
                "start_time": 37.575,
                "end_time": 37.6931818,
                "pitch": 67,
                "velocity": 80,
                "duration": 0.1181818,
                "tempo": 120.0
            },
            {
                "start_time": 37.7113636,
                "end_time": 37.8272727,
                "pitch": 66,
                "velocity": 80,
                "duration": 0.1159091,
                "tempo": 120.0
            },
            {
                "start_time": 37.8431818,
                "end_time": 37.9613636,
                "pitch": 67,
                "velocity": 80,
                "duration": 0.1181818,
                "tempo": 120.0
            },
            {
                "start_time": 37.9772727,
                "end_time": 38.0931818,
                "pitch": 69,
                "velocity": 80,
                "duration": 0.1159091,
                "tempo": 120.0
            },
            {
                "start_time": 38.1113636,
                "end_time": 38.2272727,
                "pitch": 63,
                "velocity": 80,
                "duration": 0.1159091,
                "tempo": 120.0
            },
            {
                "start_time": 38.2431818,
                "end_time": 38.3613636,
                "pitch": 66,
                "velocity": 80,
                "duration": 0.1181818,
                "tempo": 120.0
            },
            {
                "start_time": 38.3772727,
                "end_time": 38.4931818,
                "pitch": 69,
                "velocity": 80,
                "duration": 0.1159091,
                "tempo": 120.0
            },
            {
                "start_time": 38.5113636,
                "end_time": 39.2931818,
                "pitch": 67,
                "velocity": 80,
                "duration": 0.7818182,
                "tempo": 120.0
            },
            {
                "start_time": 39.3113636,
                "end_time": 39.3931818,
                "pitch": 67,
                "velocity": 80,
                "duration": 0.0818182,
                "tempo": 120.0
            },
            {
                "start_time": 39.4113636,
                "end_time": 39.4954545,
                "pitch": 67,
                "velocity": 80,
                "duration": 0.0840909,
                "tempo": 120.0
            },
            {
                "start_time": 39.5113636,
                "end_time": 39.5954545,
                "pitch": 69,
                "velocity": 80,
                "duration": 0.0840909,
                "tempo": 120.0
            },
            {
                "start_time": 39.6113636,
                "end_time": 39.6954545,
                "pitch": 70,
                "velocity": 80,
                "duration": 0.0840909,
                "tempo": 120.0
            },
            {
                "start_time": 39.7136364,
                "end_time": 39.7954545,
                "pitch": 67,
                "velocity": 80,
                "duration": 0.0818182,
                "tempo": 120.0
            },
            {
                "start_time": 39.8136364,
                "end_time": 39.8954545,
                "pitch": 69,
                "velocity": 80,
                "duration": 0.0818182,
                "tempo": 120.0
            },
            {
                "start_time": 39.9136364,
                "end_time": 39.9954545,
                "pitch": 70,
                "velocity": 80,
                "duration": 0.0818182,
                "tempo": 120.0
            },
            {
                "start_time": 40.0136364,
                "end_time": 40.0954545,
                "pitch": 72,
                "velocity": 80,
                "duration": 0.0818182,
                "tempo": 120.0
            },
            {
                "start_time": 40.1136364,
                "end_time": 40.1954545,
                "pitch": 69,
                "velocity": 80,
                "duration": 0.0818182,
                "tempo": 120.0
            },
            {
                "start_time": 40.2136364,
                "end_time": 40.2954545,
                "pitch": 70,
                "velocity": 80,
                "duration": 0.0818182,
                "tempo": 120.0
            },
            {
                "start_time": 40.3136364,
                "end_time": 40.3954545,
                "pitch": 72,
                "velocity": 80,
                "duration": 0.0818182,
                "tempo": 120.0
            },
            {
                "start_time": 40.4136364,
                "end_time": 40.4954545,
                "pitch": 74,
                "velocity": 80,
                "duration": 0.0818182,
                "tempo": 120.0
            },
            {
                "start_time": 40.5136364,
                "end_time": 40.5954545,
                "pitch": 70,
                "velocity": 80,
                "duration": 0.0818182,
                "tempo": 120.0
            },
            {
                "start_time": 40.6136364,
                "end_time": 40.6954545,
                "pitch": 72,
                "velocity": 80,
                "duration": 0.0818182,
                "tempo": 120.0
            },
            {
                "start_time": 40.7136364,
                "end_time": 40.7954545,
                "pitch": 74,
                "velocity": 80,
                "duration": 0.0818182,
                "tempo": 120.0
            },
            {
                "start_time": 40.8136364,
                "end_time": 40.8954545,
                "pitch": 75,
                "velocity": 80,
                "duration": 0.0818182,
                "tempo": 120.0
            },
            {
                "start_time": 40.9136364,
                "end_time": 40.9954545,
                "pitch": 72,
                "velocity": 80,
                "duration": 0.0818182,
                "tempo": 120.0
            },
            {
                "start_time": 41.0136364,
                "end_time": 41.0954545,
                "pitch": 74,
                "velocity": 80,
                "duration": 0.0818182,
                "tempo": 120.0
            },
            {
                "start_time": 41.1136364,
                "end_time": 41.1954545,
                "pitch": 75,
                "velocity": 80,
                "duration": 0.0818182,
                "tempo": 120.0
            },
            {
                "start_time": 41.2136364,
                "end_time": 41.2954545,
                "pitch": 77,
                "velocity": 80,
                "duration": 0.0818182,
                "tempo": 120.0
            },
            {
                "start_time": 41.3136364,
                "end_time": 41.3954545,
                "pitch": 74,
                "velocity": 80,
                "duration": 0.0818182,
                "tempo": 120.0
            },
            {
                "start_time": 41.4113636,
                "end_time": 41.4931818,
                "pitch": 75,
                "velocity": 80,
                "duration": 0.0818182,
                "tempo": 120.0
            },
            {
                "start_time": 41.5090909,
                "end_time": 41.5909091,
                "pitch": 77,
                "velocity": 80,
                "duration": 0.0818182,
                "tempo": 120.0
            },
            {
                "start_time": 41.6068182,
                "end_time": 41.6886364,
                "pitch": 79,
                "velocity": 80,
                "duration": 0.0818182,
                "tempo": 120.0
            },
            {
                "start_time": 41.7045455,
                "end_time": 42.5,
                "pitch": 81,
                "velocity": 80,
                "duration": 0.7954545,
                "tempo": 120.0
            },
            {
                "start_time": 42.5159091,
                "end_time": 42.9,
                "pitch": 82,
                "velocity": 80,
                "duration": 0.3840909,
                "tempo": 120.0
            },
            {
                "start_time": 42.9159091,
                "end_time": 43.3,
                "pitch": 81,
                "velocity": 80,
                "duration": 0.3840909,
                "tempo": 120.0
            },
            {
                "start_time": 43.3159091,
                "end_time": 44.9022727,
                "pitch": 74,
                "velocity": 80,
                "duration": 1.5863636,
                "tempo": 120.0
            },
            {
                "start_time": 44.9181818,
                "end_time": 45.0340909,
                "pitch": 82,
                "velocity": 80,
                "duration": 0.1159091,
                "tempo": 120.0
            },
            {
                "start_time": 45.0522727,
                "end_time": 45.1681818,
                "pitch": 79,
                "velocity": 80,
                "duration": 0.1159091,
                "tempo": 120.0
            },
            {
                "start_time": 45.1840909,
                "end_time": 45.3022727,
                "pitch": 74,
                "velocity": 80,
                "duration": 0.1181818,
                "tempo": 120.0
            },
            {
                "start_time": 45.3181818,
                "end_time": 45.7045455,
                "pitch": 70,
                "velocity": 80,
                "duration": 0.3863636,
                "tempo": 120.0
            },
            {
                "start_time": 45.7204545,
                "end_time": 45.9045455,
                "pitch": 70,
                "velocity": 80,
                "duration": 0.1840909,
                "tempo": 120.0
            },
            {
                "start_time": 45.9204545,
                "end_time": 46.1045455,
                "pitch": 82,
                "velocity": 80,
                "duration": 0.1840909,
                "tempo": 120.0
            },
            {
                "start_time": 46.1204545,
                "end_time": 46.3045455,
                "pitch": 79,
                "velocity": 80,
                "duration": 0.1840909,
                "tempo": 120.0
            },
            {
                "start_time": 46.3204545,
                "end_time": 46.5045455,
                "pitch": 74,
                "velocity": 80,
                "duration": 0.1840909,
                "tempo": 120.0
            },
            {
                "start_time": 46.5204545,
                "end_time": 46.6045455,
                "pitch": 84,
                "velocity": 80,
                "duration": 0.0840909,
                "tempo": 120.0
            },
            {
                "start_time": 46.6204545,
                "end_time": 46.7045455,
                "pitch": 81,
                "velocity": 80,
                "duration": 0.0840909,
                "tempo": 120.0
            },
            {
                "start_time": 46.7204545,
                "end_time": 46.8045455,
                "pitch": 77,
                "velocity": 80,
                "duration": 0.0840909,
                "tempo": 120.0
            },
            {
                "start_time": 46.8204545,
                "end_time": 46.9045455,
                "pitch": 72,
                "velocity": 80,
                "duration": 0.0840909,
                "tempo": 120.0
            },
            {
                "start_time": 46.9204545,
                "end_time": 47.0022727,
                "pitch": 77,
                "velocity": 80,
                "duration": 0.0818182,
                "tempo": 120.0
            },
            {
                "start_time": 47.0181818,
                "end_time": 47.1,
                "pitch": 81,
                "velocity": 80,
                "duration": 0.0818182,
                "tempo": 120.0
            },
            {
                "start_time": 47.1181818,
                "end_time": 47.1977273,
                "pitch": 82,
                "velocity": 80,
                "duration": 0.0795455,
                "tempo": 120.0
            },
            {
                "start_time": 47.2159091,
                "end_time": 47.2977273,
                "pitch": 84,
                "velocity": 80,
                "duration": 0.0818182,
                "tempo": 120.0
            },
            {
                "start_time": 47.3136364,
                "end_time": 48.1068182,
                "pitch": 77,
                "velocity": 80,
                "duration": 0.7931818,
                "tempo": 120.0
            },
            {
                "start_time": 48.125,
                "end_time": 48.3068182,
                "pitch": 84,
                "velocity": 80,
                "duration": 0.1818182,
                "tempo": 120.0
            },
            {
                "start_time": 48.325,
                "end_time": 48.5068182,
                "pitch": 81,
                "velocity": 80,
                "duration": 0.1818182,
                "tempo": 120.0
            },
            {
                "start_time": 48.525,
                "end_time": 48.7068182,
                "pitch": 84,
                "velocity": 80,
                "duration": 0.1818182,
                "tempo": 120.0
            },
            {
                "start_time": 48.725,
                "end_time": 49.1068182,
                "pitch": 81,
                "velocity": 80,
                "duration": 0.3818182,
                "tempo": 120.0
            },
            {
                "start_time": 49.125,
                "end_time": 49.5045455,
                "pitch": 77,
                "velocity": 80,
                "duration": 0.3795455,
                "tempo": 120.0
            },
            {
                "start_time": 49.5204545,
                "end_time": 49.7,
                "pitch": 75,
                "velocity": 80,
                "duration": 0.1795455,
                "tempo": 120.0
            },
            {
                "start_time": 49.7159091,
                "end_time": 51.3113636,
                "pitch": 82,
                "velocity": 80,
                "duration": 1.5954545,
                "tempo": 120.0
            },
            {
                "start_time": 51.3272727,
                "end_time": 52.9136364,
                "pitch": 82,
                "velocity": 80,
                "duration": 1.5863636,
                "tempo": 120.0
            },
            {
                "start_time": 56.1340909,
                "end_time": 56.3181818,
                "pitch": 55,
                "velocity": 80,
                "duration": 0.1840909,
                "tempo": 120.0
            },
            {
                "start_time": 56.3340909,
                "end_time": 56.5181818,
                "pitch": 74,
                "velocity": 80,
                "duration": 0.1840909,
                "tempo": 120.0
            },
            {
                "start_time": 56.5340909,
                "end_time": 56.7181818,
                "pitch": 67,
                "velocity": 80,
                "duration": 0.1840909,
                "tempo": 120.0
            },
            {
                "start_time": 56.7340909,
                "end_time": 56.9181818,
                "pitch": 72,
                "velocity": 80,
                "duration": 0.1840909,
                "tempo": 120.0
            },
            {
                "start_time": 56.9340909,
                "end_time": 57.1181818,
                "pitch": 67,
                "velocity": 80,
                "duration": 0.1840909,
                "tempo": 120.0
            },
            {
                "start_time": 57.1340909,
                "end_time": 57.3181818,
                "pitch": 69,
                "velocity": 80,
                "duration": 0.1840909,
                "tempo": 120.0
            },
            {
                "start_time": 57.3340909,
                "end_time": 57.5204545,
                "pitch": 67,
                "velocity": 80,
                "duration": 0.1863636,
                "tempo": 120.0
            },
            {
                "start_time": 57.5363636,
                "end_time": 57.7204545,
                "pitch": 70,
                "velocity": 80,
                "duration": 0.1840909,
                "tempo": 120.0
            },
            {
                "start_time": 57.7386364,
                "end_time": 57.9204545,
                "pitch": 55,
                "velocity": 80,
                "duration": 0.1818182,
                "tempo": 120.0
            },
            {
                "start_time": 57.9386364,
                "end_time": 58.1204545,
                "pitch": 74,
                "velocity": 80,
                "duration": 0.1818182,
                "tempo": 120.0
            },
            {
                "start_time": 58.1386364,
                "end_time": 58.3204545,
                "pitch": 67,
                "velocity": 80,
                "duration": 0.1818182,
                "tempo": 120.0
            },
            {
                "start_time": 58.3386364,
                "end_time": 58.5204545,
                "pitch": 72,
                "velocity": 80,
                "duration": 0.1818182,
                "tempo": 120.0
            },
            {
                "start_time": 58.5386364,
                "end_time": 58.7204545,
                "pitch": 67,
                "velocity": 80,
                "duration": 0.1818182,
                "tempo": 120.0
            },
            {
                "start_time": 58.7386364,
                "end_time": 58.9204545,
                "pitch": 75,
                "velocity": 80,
                "duration": 0.1818182,
                "tempo": 120.0
            },
            {
                "start_time": 58.9386364,
                "end_time": 59.1204545,
                "pitch": 74,
                "velocity": 80,
                "duration": 0.1818182,
                "tempo": 120.0
            },
            {
                "start_time": 59.1386364,
                "end_time": 59.3204545,
                "pitch": 69,
                "velocity": 80,
                "duration": 0.1818182,
                "tempo": 120.0
            },
            {
                "start_time": 59.3386364,
                "end_time": 59.5227273,
                "pitch": 55,
                "velocity": 80,
                "duration": 0.1840909,
                "tempo": 120.0
            },
            {
                "start_time": 59.5386364,
                "end_time": 59.7227273,
                "pitch": 74,
                "velocity": 80,
                "duration": 0.1840909,
                "tempo": 120.0
            },
            {
                "start_time": 59.7409091,
                "end_time": 59.9227273,
                "pitch": 67,
                "velocity": 80,
                "duration": 0.1818182,
                "tempo": 120.0
            },
            {
                "start_time": 59.9409091,
                "end_time": 60.1227273,
                "pitch": 72,
                "velocity": 80,
                "duration": 0.1818182,
                "tempo": 120.0
            },
            {
                "start_time": 60.1409091,
                "end_time": 60.3227273,
                "pitch": 67,
                "velocity": 80,
                "duration": 0.1818182,
                "tempo": 120.0
            },
            {
                "start_time": 60.3409091,
                "end_time": 60.5227273,
                "pitch": 69,
                "velocity": 80,
                "duration": 0.1818182,
                "tempo": 120.0
            },
            {
                "start_time": 60.5409091,
                "end_time": 60.7227273,
                "pitch": 67,
                "velocity": 80,
                "duration": 0.1818182,
                "tempo": 120.0
            },
            {
                "start_time": 60.7409091,
                "end_time": 60.9227273,
                "pitch": 70,
                "velocity": 80,
                "duration": 0.1818182,
                "tempo": 120.0
            },
            {
                "start_time": 60.9409091,
                "end_time": 61.1227273,
                "pitch": 55,
                "velocity": 80,
                "duration": 0.1818182,
                "tempo": 120.0
            },
            {
                "start_time": 61.1409091,
                "end_time": 61.3227273,
                "pitch": 74,
                "velocity": 80,
                "duration": 0.1818182,
                "tempo": 120.0
            },
            {
                "start_time": 61.3409091,
                "end_time": 61.525,
                "pitch": 67,
                "velocity": 80,
                "duration": 0.1840909,
                "tempo": 120.0
            },
            {
                "start_time": 61.5409091,
                "end_time": 61.7272727,
                "pitch": 72,
                "velocity": 80,
                "duration": 0.1863636,
                "tempo": 120.0
            },
            {
                "start_time": 61.7431818,
                "end_time": 61.9272727,
                "pitch": 67,
                "velocity": 80,
                "duration": 0.1840909,
                "tempo": 120.0
            },
            {
                "start_time": 61.9431818,
                "end_time": 62.1272727,
                "pitch": 75,
                "velocity": 80,
                "duration": 0.1840909,
                "tempo": 120.0
            },
            {
                "start_time": 62.1431818,
                "end_time": 62.3272727,
                "pitch": 74,
                "velocity": 80,
                "duration": 0.1840909,
                "tempo": 120.0
            },
            {
                "start_time": 62.3431818,
                "end_time": 62.5272727,
                "pitch": 69,
                "velocity": 80,
                "duration": 0.1840909,
                "tempo": 120.0
            },
            {
                "start_time": 62.5431818,
                "end_time": 64.1295455,
                "pitch": 58,
                "velocity": 80,
                "duration": 1.5863636,
                "tempo": 120.0
            },
            {
                "start_time": 64.1454545,
                "end_time": 65.7340909,
                "pitch": 57,
                "velocity": 80,
                "duration": 1.5886364,
                "tempo": 120.0
            },
            {
                "start_time": 65.7522727,
                "end_time": 67.3409091,
                "pitch": 55,
                "velocity": 80,
                "duration": 1.5886364,
                "tempo": 120.0
            },
            {
                "start_time": 67.3568182,
                "end_time": 67.475,
                "pitch": 75,
                "velocity": 80,
                "duration": 0.1181818,
                "tempo": 120.0
            },
            {
                "start_time": 67.4909091,
                "end_time": 67.6090909,
                "pitch": 74,
                "velocity": 80,
                "duration": 0.1181818,
                "tempo": 120.0
            },
            {
                "start_time": 67.625,
                "end_time": 67.7431818,
                "pitch": 72,
                "velocity": 80,
                "duration": 0.1181818,
                "tempo": 120.0
            },
            {
                "start_time": 67.7590909,
                "end_time": 67.875,
                "pitch": 70,
                "velocity": 80,
                "duration": 0.1159091,
                "tempo": 120.0
            },
            {
                "start_time": 67.8931818,
                "end_time": 68.0090909,
                "pitch": 69,
                "velocity": 80,
                "duration": 0.1159091,
                "tempo": 120.0
            },
            {
                "start_time": 68.025,
                "end_time": 68.1431818,
                "pitch": 67,
                "velocity": 80,
                "duration": 0.1181818,
                "tempo": 120.0
            },
            {
                "start_time": 68.1590909,
                "end_time": 68.2772727,
                "pitch": 66,
                "velocity": 80,
                "duration": 0.1181818,
                "tempo": 120.0
            },
            {
                "start_time": 68.2931818,
                "end_time": 68.4113636,
                "pitch": 67,
                "velocity": 80,
                "duration": 0.1181818,
                "tempo": 120.0
            },
            {
                "start_time": 68.4272727,
                "end_time": 68.5454545,
                "pitch": 69,
                "velocity": 80,
                "duration": 0.1181818,
                "tempo": 120.0
            },
            {
                "start_time": 68.5613636,
                "end_time": 68.6795455,
                "pitch": 63,
                "velocity": 80,
                "duration": 0.1181818,
                "tempo": 120.0
            },
            {
                "start_time": 68.6954545,
                "end_time": 68.8136364,
                "pitch": 66,
                "velocity": 80,
                "duration": 0.1181818,
                "tempo": 120.0
            },
            {
                "start_time": 68.8295455,
                "end_time": 68.9477273,
                "pitch": 69,
                "velocity": 80,
                "duration": 0.1181818,
                "tempo": 120.0
            },
            {
                "start_time": 68.9636364,
                "end_time": 70.1431818,
                "pitch": 67,
                "velocity": 80,
                "duration": 1.1795455,
                "tempo": 120.0
            }
        ]
    }
}