{
    "mood": "angry",
    "instruments": {
        "Violin": [
            {
                "start_time": 0.0181818,
                "end_time": 3.225,
                "pitch": 76,
                "velocity": 80,
                "duration": 3.2068182,
                "tempo": 120.0
            },
            {
                "start_time": 3.225,
                "end_time": 6.45,
                "pitch": 74,
                "velocity": 80,
                "duration": 3.225,
                "tempo": 120.0
            },
            {
                "start_time": 3.225,
                "end_time": 6.45,
                "pitch": 74,
                "velocity": 80,
                "duration": 3.225,
                "tempo": 120.0
            },
            {
                "start_time": 6.45,
                "end_time": 9.2636364,
                "pitch": 76,
                "velocity": 80,
                "duration": 2.8136364,
                "tempo": 120.0
            },
            {
                "start_time": 6.45,
                "end_time": 9.2636364,
                "pitch": 76,
                "velocity": 80,
                "duration": 2.8136364,
                "tempo": 120.0
            },
            {
                "start_time": 9.2636364,
                "end_time": 9.8363636,
                "pitch": 74,
                "velocity": 80,
                "duration": 0.5727273,
                "tempo": 120.0
            },
            {
                "start_time": 9.2636364,
                "end_time": 9.8363636,
                "pitch": 74,
                "velocity": 80,
                "duration": 0.5727273,
                "tempo": 120.0
            },
            {
                "start_time": 9.8363636,
                "end_time": 12.0909091,
                "pitch": 76,
                "velocity": 80,
                "duration": 2.2545455,
                "tempo": 120.0
            },
            {
                "start_time": 23.7568182,
                "end_time": 23.8568182,
                "pitch": 86,
                "velocity": 101,
                "duration": 0.1,
                "tempo": 120.0
            },
            {
                "start_time": 23.8568182,
                "end_time": 23.9568182,
                "pitch": 88,
                "velocity": 80,
                "duration": 0.1,
                "tempo": 120.0
            },
            {
                "start_time": 23.8568182,
                "end_time": 23.9568182,
                "pitch": 88,
                "velocity": 101,
                "duration": 0.1,
                "tempo": 120.0
            },
            {
                "start_time": 23.9568182,
                "end_time": 24.0590909,
                "pitch": 86,
                "velocity": 80,
                "duration": 0.1022727,
                "tempo": 120.0
            },
            {
                "start_time": 23.9568182,
                "end_time": 24.0590909,
                "pitch": 86,
                "velocity": 80,
                "duration": 0.1022727,
                "tempo": 120.0
            },
            {
                "start_time": 24.0590909,
                "end_time": 24.1590909,
                "pitch": 88,
                "velocity": 80,
                "duration": 0.1,
                "tempo": 120.0
            },
            {
                "start_time": 24.0590909,
                "end_time": 24.1590909,
                "pitch": 88,
                "velocity": 80,
                "duration": 0.1,
                "tempo": 120.0
            },
            {
                "start_time": 24.1590909,
                "end_time": 24.5613636,
                "pitch": 89,
                "velocity": 80,
                "duration": 0.4022727,
                "tempo": 120.0
            },
            {
                "start_time": 41.6409091,
                "end_time": 41.7409091,
                "pitch": 76,
                "velocity": 101,
                "duration": 0.1,
                "tempo": 120.0
            },
            {
                "start_time": 41.7409091,
                "end_time": 41.8431818,
                "pitch": 77,
                "velocity": 101,
                "duration": 0.1022727,
                "tempo": 120.0
            },
            {
                "start_time": 41.8431818,
                "end_time": 42.1431818,
                "pitch": 76,
                "velocity": 101,
                "duration": 0.3,
                "tempo": 120.0
            },
            {
                "start_time": 42.1431818,
                "end_time": 42.4477273,
                "pitch": 72,
                "velocity": 101,
                "duration": 0.3045455,
                "tempo": 120.0
            },
            {
                "start_time": 42.1431818,
                "end_time": 42.4477273,
                "pitch": 72,
                "velocity": 101,
                "duration": 0.3045455,
                "tempo": 120.0
            },
            {
                "start_time": 42.4477273,
                "end_time": 42.8545455,
                "pitch": 67,
                "velocity": 101,
                "duration": 0.4068182,
                "tempo": 120.0
            },
            {
                "start_time": 42.4477273,
                "end_time": 42.8545455,
                "pitch": 67,
                "velocity": 101,
                "duration": 0.4068182,
                "tempo": 120.0
            },
            {
                "start_time": 42.8545455,
                "end_time": 43.2568182,
                "pitch": 65,
                "velocity": 101,
                "duration": 0.4022727,
                "tempo": 120.0
            },
            {
                "start_time": 43.2568182,
                "end_time": 43.6590909,
                "pitch": 64,
                "velocity": 101,
                "duration": 0.4022727,
                "tempo": 120.0
            }
        ],
        "Lead 2 (sawtooth)": [
            {
                "start_time": 12.8863636,
                "end_time": 13.0886364,
                "pitch": 86,
                "velocity": 80,
                "duration": 0.2022727,
                "tempo": 120.0
            },
            {
                "start_time": 13.0886364,
                "end_time": 13.2886364,
                "pitch": 81,
                "velocity": 80,
                "duration": 0.2,
                "tempo": 120.0
            },
            {
                "start_time": 13.0886364,
                "end_time": 13.2886364,
                "pitch": 81,
                "velocity": 80,
                "duration": 0.2,
                "tempo": 120.0
            },
            {
                "start_time": 13.2886364,
                "end_time": 13.4954545,
                "pitch": 79,
                "velocity": 80,
                "duration": 0.2068182,
                "tempo": 120.0
            },
            {
                "start_time": 13.4954545,
                "end_time": 13.7,
                "pitch": 77,
                "velocity": 80,
                "duration": 0.2045455,
                "tempo": 120.0
            },
            {
                "start_time": 13.7,
                "end_time": 13.9022727,
                "pitch": 79,
                "velocity": 80,
                "duration": 0.2022727,
                "tempo": 120.0
            },
            {
                "start_time": 13.9022727,
                "end_time": 14.1045455,
                "pitch": 81,
                "velocity": 80,
                "duration": 0.2022727,
                "tempo": 120.0
            },
            {
                "start_time": 14.1045455,
                "end_time": 14.3045455,
                "pitch": 74,
                "velocity": 80,
                "duration": 0.2,
                "tempo": 120.0
            },
            {
                "start_time": 14.1045455,
                "end_time": 17.925,
                "pitch": 86,
                "velocity": 80,
                "duration": 3.8204545,
                "tempo": 120.0
            },
            {
                "start_time": 17.7227273,
                "end_time": 17.925,
                "pitch": 86,
                "velocity": 80,
                "duration": 0.2022727,
                "tempo": 120.0
            },
            {
                "start_time": 17.925,
                "end_time": 18.125,
                "pitch": 81,
                "velocity": 80,
                "duration": 0.2,
                "tempo": 120.0
            },
            {
                "start_time": 17.925,
                "end_time": 18.125,
                "pitch": 81,
                "velocity": 80,
                "duration": 0.2,
                "tempo": 120.0
            },
            {
                "start_time": 18.125,
                "end_time": 18.325,
                "pitch": 79,
                "velocity": 80,
                "duration": 0.2,
                "tempo": 120.0
            },
            {
                "start_time": 13.4954545,
                "end_time": 18.325,
                "pitch": 89,
                "velocity": 80,
                "duration": 4.8295455,
                "tempo": 120.0
            },
            {
                "start_time": 13.7,
                "end_time": 18.525,
                "pitch": 67,
                "velocity": 80,
                "duration": 4.825,
                "tempo": 120.0
            },
            {
                "start_time": 18.325,
                "end_time": 18.525,
                "pitch": 77,
                "velocity": 80,
                "duration": 0.2,
                "tempo": 120.0
            },
            {
                "start_time": 18.5272727,
                "end_time": 18.7272727,
                "pitch": 79,
                "velocity": 80,
                "duration": 0.2,
                "tempo": 120.0
            },
            {
                "start_time": 18.7272727,
                "end_time": 18.9295455,
                "pitch": 81,
                "velocity": 80,
                "duration": 0.2022727,
                "tempo": 120.0
            },
            {
                "start_time": 18.9295455,
                "end_time": 19.3295455,
                "pitch": 84,
                "velocity": 64,
                "duration": 0.4,
                "tempo": 120.0
            },
            {
                "start_time": 18.9295455,
                "end_time": 19.3295455,
                "pitch": 84,
                "velocity": 80,
                "duration": 0.4,
                "tempo": 120.0
            },
            {
                "start_time": 19.5295455,
                "end_time": 19.7295455,
                "pitch": 82,
                "velocity": 64,
                "duration": 0.2,
                "tempo": 120.0
            },
            {
                "start_time": 20.9454545,
                "end_time": 21.1477273,
                "pitch": 81,
                "velocity": 64,
                "duration": 0.2022727,
                "tempo": 120.0
            },
            {
                "start_time": 25.7659091,
                "end_time": 25.9659091,
                "pitch": 86,
                "velocity": 80,
                "duration": 0.2,
                "tempo": 120.0
            },
            {
                "start_time": 25.9659091,
                "end_time": 26.1659091,
                "pitch": 81,
                "velocity": 80,
                "duration": 0.2,
                "tempo": 120.0
            },
            {
                "start_time": 25.9659091,
                "end_time": 26.1659091,
                "pitch": 81,
                "velocity": 80,
                "duration": 0.2,
                "tempo": 120.0
            },
            {
                "start_time": 26.1659091,
                "end_time": 26.3727273,
                "pitch": 79,
                "velocity": 80,
                "duration": 0.2068182,
                "tempo": 120.0
            },
            {
                "start_time": 18.325,
                "end_time": 26.3727273,
                "pitch": 89,
                "velocity": 80,
                "duration": 8.0477273,
                "tempo": 120.0
            },
            {
                "start_time": 18.525,
                "end_time": 26.5772727,
                "pitch": 67,
                "velocity": 80,
                "duration": 8.0522727,
                "tempo": 120.0
            },
            {
                "start_time": 26.3727273,
                "end_time": 26.5772727,
                "pitch": 77,
                "velocity": 80,
                "duration": 0.2045455,
                "tempo": 120.0
            },
            {
                "start_time": 26.5772727,
                "end_time": 26.7795455,
                "pitch": 79,
                "velocity": 80,
                "duration": 0.2022727,
                "tempo": 120.0
            },
            {
                "start_time": 26.7795455,
                "end_time": 26.9818182,
                "pitch": 81,
                "velocity": 80,
                "duration": 0.2022727,
                "tempo": 120.0
            },
            {
                "start_time": 26.9818182,
                "end_time": 27.1772727,
                "pitch": 74,
                "velocity": 80,
                "duration": 0.1954545,
                "tempo": 120.0
            },
            {
                "start_time": 26.9818182,
                "end_time": 30.7954545,
                "pitch": 86,
                "velocity": 80,
                "duration": 3.8136364,
                "tempo": 120.0
            },
            {
                "start_time": 30.5931818,
                "end_time": 30.7954545,
                "pitch": 86,
                "velocity": 80,
                "duration": 0.2022727,
                "tempo": 120.0
            },
            {
                "start_time": 30.7954545,
                "end_time": 30.9977273,
                "pitch": 81,
                "velocity": 80,
                "duration": 0.2022727,
                "tempo": 120.0
            },
            {
                "start_time": 30.7954545,
                "end_time": 30.9977273,
                "pitch": 81,
                "velocity": 80,
                "duration": 0.2022727,
                "tempo": 120.0
            },
            {
                "start_time": 30.9977273,
                "end_time": 31.1977273,
                "pitch": 79,
                "velocity": 80,
                "duration": 0.2,
                "tempo": 120.0
            },
            {
                "start_time": 26.3727273,
                "end_time": 31.1977273,
                "pitch": 89,
                "velocity": 80,
                "duration": 4.825,
                "tempo": 120.0
            },
            {
                "start_time": 26.5772727,
                "end_time": 31.3977273,
                "pitch": 67,
                "velocity": 80,
                "duration": 4.8204545,
                "tempo": 120.0
            },
            {
                "start_time": 31.1977273,
                "end_time": 31.3977273,
                "pitch": 77,
                "velocity": 80,
                "duration": 0.2,
                "tempo": 120.0
            },
            {
                "start_time": 31.3977273,
                "end_time": 31.6,
                "pitch": 79,
                "velocity": 80,
                "duration": 0.2022727,
                "tempo": 120.0
            },
            {
                "start_time": 31.6,
                "end_time": 31.8022727,
                "pitch": 81,
                "velocity": 80,
                "duration": 0.2022727,
                "tempo": 120.0
            },
            {
                "start_time": 31.8022727,
                "end_time": 32.2022727,
                "pitch": 84,
                "velocity": 80,
                "duration": 0.4,
                "tempo": 120.0
            },
            {
                "start_time": 31.8022727,
                "end_time": 32.2022727,
                "pitch": 84,
                "velocity": 80,
                "duration": 0.4,
                "tempo": 120.0
            },
            {
                "start_time": 32.4045455,
                "end_time": 32.6045455,
                "pitch": 82,
                "velocity": 80,
                "duration": 0.2,
                "tempo": 120.0
            },
            {
                "start_time": 33.8090909,
                "end_time": 34.0090909,
                "pitch": 81,
                "velocity": 80,
                "duration": 0.2,
                "tempo": 120.0
            },
            {
                "start_time": 35.0227273,
                "end_time": 35.2181818,
                "pitch": 77,
                "velocity": 101,
                "duration": 0.1954545,
                "tempo": 120.0
            },
            {
                "start_time": 35.2181818,
                "end_time": 37.0272727,
                "pitch": 74,
                "velocity": 64,
                "duration": 1.8090909,
                "tempo": 120.0
            },
            {
                "start_time": 35.2181818,
                "end_time": 37.0272727,
                "pitch": 74,
                "velocity": 101,
                "duration": 1.8090909,
                "tempo": 120.0
            },
            {
                "start_time": 37.0272727,
                "end_time": 44.6590909,
                "pitch": 77,
                "velocity": 64,
                "duration": 7.6318182,
                "tempo": 120.0
            },
            {
                "start_time": 37.0272727,
                "end_time": 44.6590909,
                "pitch": 77,
                "velocity": 64,
                "duration": 7.6318182,
                "tempo": 120.0
            },
            {
                "start_time": 44.6590909,
                "end_time": 44.8590909,
                "pitch": 76,
                "velocity": 80,
                "duration": 0.2,
                "tempo": 120.0
            },
            {
                "start_time": 44.8590909,
                "end_time": 45.2613636,
                "pitch": 74,
                "velocity": 80,
                "duration": 0.4022727,
                "tempo": 120.0
            },
            {
                "start_time": 44.8613636,
                "end_time": 45.2613636,
                "pitch": 74,
                "velocity": 101,
                "duration": 0.4,
                "tempo": 120.0
            },
            {
                "start_time": 45.2613636,
                "end_time": 45.4636364,
                "pitch": 77,
                "velocity": 80,
                "duration": 0.2022727,
                "tempo": 120.0
            },
            {
                "start_time": 45.2613636,
                "end_time": 45.4636364,
                "pitch": 77,
                "velocity": 101,
                "duration": 0.2022727,
                "tempo": 120.0
            },
            {
                "start_time": 45.4636364,
                "end_time": 45.6636364,
                "pitch": 81,
                "velocity": 80,
                "duration": 0.2,
                "tempo": 120.0
            },
            {
                "start_time": 31.1977273,
                "end_time": 45.6636364,
                "pitch": 89,
                "velocity": 80,
                "duration": 14.4659091,
                "tempo": 120.0
            },
            {
                "start_time": 45.6636364,
                "end_time": 45.8636364,
                "pitch": 77,
                "velocity": 80,
                "duration": 0.2,
                "tempo": 120.0
            },
            {
                "start_time": 45.8636364,
                "end_time": 46.0636364,
                "pitch": 86,
                "velocity": 101,
                "duration": 0.2,
                "tempo": 120.0
            },
            {
                "start_time": 46.0636364,
                "end_time": 46.2636364,
                "pitch": 79,
                "velocity": 80,
                "duration": 0.2,
                "tempo": 120.0
            },
            {
                "start_time": 46.0636364,
                "end_time": 46.2636364,
                "pitch": 79,
                "velocity": 101,
                "duration": 0.2,
                "tempo": 120.0
            },
            {
                "start_time": 46.2636364,
                "end_time": 46.2659091,
                "pitch": 83,
                "velocity": 80,
                "duration": 0.0022727,
                "tempo": 120.0
            },
            {
                "start_time": 46.2659091,
                "end_time": 46.4659091,
                "pitch": 83,
                "velocity": 80,
                "duration": 0.2,
                "tempo": 120.0
            },
            {
                "start_time": 45.8636364,
                "end_time": 46.8659091,
                "pitch": 74,
                "velocity": 80,
                "duration": 1.0022727,
                "tempo": 120.0
            },
            {
                "start_time": 46.4659091,
                "end_time": 46.8659091,
                "pitch": 74,
                "velocity": 101,
                "duration": 0.4,
                "tempo": 120.0
            },
            {
                "start_time": 45.4636364,
                "end_time": 47.0659091,
                "pitch": 69,
                "velocity": 80,
                "duration": 1.6022727,
                "tempo": 120.0
            },
            {
                "start_time": 46.8659091,
                "end_time": 47.0659091,
                "pitch": 77,
                "velocity": 80,
                "duration": 0.2,
                "tempo": 120.0
            },
            {
                "start_time": 46.8659091,
                "end_time": 47.0659091,
                "pitch": 77,
                "velocity": 101,
                "duration": 0.2,
                "tempo": 120.0
            },
            {
                "start_time": 47.0659091,
                "end_time": 47.2681818,
                "pitch": 81,
                "velocity": 80,
                "duration": 0.2022727,
                "tempo": 120.0
            },
            {
                "start_time": 45.6636364,
                "end_time": 47.2681818,
                "pitch": 89,
                "velocity": 80,
                "duration": 1.6045455,
                "tempo": 120.0
            },
            {
                "start_time": 47.2681818,
                "end_time": 47.4681818,
                "pitch": 77,
                "velocity": 80,
                "duration": 0.2,
                "tempo": 120.0
            },
            {
                "start_time": 46.4659091,
                "end_time": 47.6704545,
                "pitch": 86,
                "velocity": 80,
                "duration": 1.2045455,
                "tempo": 120.0
            },
            {
                "start_time": 47.4681818,
                "end_time": 47.6704545,
                "pitch": 86,
                "velocity": 101,
                "duration": 0.2022727,
                "tempo": 120.0
            },
            {
                "start_time": 47.6704545,
                "end_time": 47.8704545,
                "pitch": 79,
                "velocity": 80,
                "duration": 0.2,
                "tempo": 120.0
            },
            {
                "start_time": 47.6704545,
                "end_time": 47.8704545,
                "pitch": 79,
                "velocity": 101,
                "duration": 0.2,
                "tempo": 120.0
            },
            {
                "start_time": 47.8704545,
                "end_time": 48.075,
                "pitch": 83,
                "velocity": 80,
                "duration": 0.2045455,
                "tempo": 120.0
            },
            {
                "start_time": 47.8704545,
                "end_time": 48.075,
                "pitch": 83,
                "velocity": 80,
                "duration": 0.2045455,
                "tempo": 120.0
            },
            {
                "start_time": 47.4681818,
                "end_time": 48.4772727,
                "pitch": 74,
                "velocity": 80,
                "duration": 1.0090909,
                "tempo": 120.0
            },
            {
                "start_time": 48.075,
                "end_time": 48.4772727,
                "pitch": 74,
                "velocity": 101,
                "duration": 0.4022727,
                "tempo": 120.0
            },
            {
                "start_time": 47.0659091,
                "end_time": 48.6727273,
                "pitch": 69,
                "velocity": 80,
                "duration": 1.6068182,
                "tempo": 120.0
            },
            {
                "start_time": 48.4772727,
                "end_time": 48.6727273,
                "pitch": 77,
                "velocity": 80,
                "duration": 0.1954545,
                "tempo": 120.0
            },
            {
                "start_time": 48.4772727,
                "end_time": 48.6727273,
                "pitch": 77,
                "velocity": 101,
                "duration": 0.1954545,
                "tempo": 120.0
            },
            {
                "start_time": 48.6727273,
                "end_time": 48.8795455,
                "pitch": 81,
                "velocity": 80,
                "duration": 0.2068182,
                "tempo": 120.0
            },
            {
                "start_time": 47.2681818,
                "end_time": 48.8795455,
                "pitch": 89,
                "velocity": 80,
                "duration": 1.6113636,
                "tempo": 120.0
            },
            {
                "start_time": 48.8795455,
                "end_time": 49.0840909,
                "pitch": 77,
                "velocity": 80,
                "duration": 0.2045455,
                "tempo": 120.0
            },
            {
                "start_time": 48.075,
                "end_time": 49.2818182,
                "pitch": 86,
                "velocity": 80,
                "duration": 1.2068182,
                "tempo": 120.0
            },
            {
                "start_time": 49.0840909,
                "end_time": 49.2818182,
                "pitch": 86,
                "velocity": 80,
                "duration": 0.1977273,
                "tempo": 120.0
            },
            {
                "start_time": 49.2818182,
                "end_time": 49.4772727,
                "pitch": 79,
                "velocity": 80,
                "duration": 0.1954545,
                "tempo": 120.0
            },
            {
                "start_time": 49.2818182,
                "end_time": 49.4772727,
                "pitch": 79,
                "velocity": 80,
                "duration": 0.1954545,
                "tempo": 120.0
            },
            {
                "start_time": 49.4772727,
                "end_time": 49.6818182,
                "pitch": 83,
                "velocity": 80,
                "duration": 0.2045455,
                "tempo": 120.0
            },
            {
                "start_time": 49.4772727,
                "end_time": 49.6818182,
                "pitch": 83,
                "velocity": 80,
                "duration": 0.2045455,
                "tempo": 120.0
            },
            {
                "start_time": 49.6818182,
                "end_time": 53.0977273,
                "pitch": 81,
                "velocity": 101,
                "duration": 3.4159091,
                "tempo": 120.0
            },
            {
                "start_time": 53.0977273,
                "end_time": 53.2977273,
                "pitch": 86,
                "velocity": 80,
                "duration": 0.2,
                "tempo": 120.0
            },
            {
                "start_time": 53.0977273,
                "end_time": 53.2977273,
                "pitch": 86,
                "velocity": 101,
                "duration": 0.2,
                "tempo": 120.0
            },
            {
                "start_time": 53.2977273,
                "end_time": 53.4818182,
                "pitch": 81,
                "velocity": 80,
                "duration": 0.1840909,
                "tempo": 120.0
            },
            {
                "start_time": 53.2977273,
                "end_time": 53.4818182,
                "pitch": 81,
                "velocity": 80,
                "duration": 0.1840909,
                "tempo": 120.0
            }
        ],
        "Acoustic Guitar (nylon)": [
            {
                "start_time": 16.5181818,
                "end_time": 16.6181818,
                "pitch": 74,
                "velocity": 80,
                "duration": 0.1,
                "tempo": 120.0
            },
            {
                "start_time": 16.6181818,
                "end_time": 16.7204545,
                "pitch": 74,
                "velocity": 80,
                "duration": 0.1022727,
                "tempo": 120.0
            },
            {
                "start_time": 16.7204545,
                "end_time": 16.8204545,
                "pitch": 74,
                "velocity": 80,
                "duration": 0.1,
                "tempo": 120.0
            },
            {
                "start_time": 16.8204545,
                "end_time": 29.3909091,
                "pitch": 81,
                "velocity": 80,
                "duration": 12.5704545,
                "tempo": 120.0
            },
            {
                "start_time": 29.3909091,
                "end_time": 29.4909091,
                "pitch": 74,
                "velocity": 80,
                "duration": 0.1,
                "tempo": 120.0
            },
            {
                "start_time": 29.4909091,
                "end_time": 29.5909091,
                "pitch": 74,
                "velocity": 80,
                "duration": 0.1,
                "tempo": 120.0
            },
            {
                "start_time": 16.8204545,
                "end_time": 29.6931818,
                "pitch": 69,
                "velocity": 80,
                "duration": 12.8727273,
                "tempo": 120.0
            },
            {
                "start_time": 29.5909091,
                "end_time": 29.6931818,
                "pitch": 74,
                "velocity": 80,
                "duration": 0.1022727,
                "tempo": 120.0
            }
        ],
        "Harpsichord": [
            {
                "start_time": 27.1772727,
                "end_time": 27.3727273,
                "pitch": 89,
                "velocity": 32,
                "duration": 0.1954545,
                "tempo": 120.0
            },
            {
                "start_time": 27.775,
                "end_time": 28.3863636,
                "pitch": 88,
                "velocity": 32,
                "duration": 0.6113636,
                "tempo": 120.0
            },
            {
                "start_time": 28.3863636,
                "end_time": 28.7886364,
                "pitch": 86,
                "velocity": 32,
                "duration": 0.4022727,
                "tempo": 120.0
            },
            {
                "start_time": 28.3863636,
                "end_time": 28.7886364,
                "pitch": 86,
                "velocity": 32,
                "duration": 0.4022727,
                "tempo": 120.0
            },
            {
                "start_time": 28.7886364,
                "end_time": 28.9886364,
                "pitch": 88,
                "velocity": 32,
                "duration": 0.2,
                "tempo": 120.0
            },
            {
                "start_time": 28.7886364,
                "end_time": 28.9886364,
                "pitch": 88,
                "velocity": 32,
                "duration": 0.2,
                "tempo": 120.0
            },
            {
                "start_time": 29.3909091,
                "end_time": 29.9931818,
                "pitch": 89,
                "velocity": 32,
                "duration": 0.6022727,
                "tempo": 120.0
            },
            {
                "start_time": 29.9931818,
                "end_time": 30.3931818,
                "pitch": 81,
                "velocity": 32,
                "duration": 0.4,
                "tempo": 120.0
            },
            {
                "start_time": 29.9931818,
                "end_time": 30.3931818,
                "pitch": 81,
                "velocity": 32,
                "duration": 0.4,
                "tempo": 120.0
            },
            {
                "start_time": 30.3931818,
                "end_time": 30.5954545,
                "pitch": 89,
                "velocity": 32,
                "duration": 0.2022727,
                "tempo": 120.0
            },
            {
                "start_time": 30.3931818,
                "end_time": 30.5954545,
                "pitch": 89,
                "velocity": 32,
                "duration": 0.2022727,
                "tempo": 120.0
            },
            {
                "start_time": 30.9977273,
                "end_time": 31.6,
                "pitch": 86,
                "velocity": 32,
                "duration": 0.6022727,
                "tempo": 120.0
            },
            {
                "start_time": 31.6,
                "end_time": 32.0022727,
                "pitch": 84,
                "velocity": 32,
                "duration": 0.4022727,
                "tempo": 120.0
            },
            {
                "start_time": 32.0022727,
                "end_time": 32.2022727,
                "pitch": 86,
                "velocity": 32,
                "duration": 0.2,
                "tempo": 120.0
            },
            {
                "start_time": 32.6045455,
                "end_time": 33.2113636,
                "pitch": 86,
                "velocity": 32,
                "duration": 0.6068182,
                "tempo": 120.0
            },
            {
                "start_time": 33.2113636,
                "end_time": 33.6136364,
                "pitch": 88,
                "velocity": 32,
                "duration": 0.4022727,
                "tempo": 120.0
            },
            {
                "start_time": 33.2113636,
                "end_time": 33.6136364,
                "pitch": 88,
                "velocity": 32,
                "duration": 0.4022727,
                "tempo": 120.0
            },
            {
                "start_time": 33.6136364,
                "end_time": 33.8090909,
                "pitch": 81,
                "velocity": 32,
                "duration": 0.1954545,
                "tempo": 120.0
            },
            {
                "start_time": 33.6136364,
                "end_time": 33.8090909,
                "pitch": 81,
                "velocity": 32,
                "duration": 0.1954545,
                "tempo": 120.0
            },
            {
                "start_time": 34.2113636,
                "end_time": 34.8227273,
                "pitch": 91,
                "velocity": 32,
                "duration": 0.6113636,
                "tempo": 120.0
            },
            {
                "start_time": 34.8227273,
                "end_time": 35.2181818,
                "pitch": 88,
                "velocity": 32,
                "duration": 0.3954545,
                "tempo": 120.0
            },
            {
                "start_time": 35.2181818,
                "end_time": 35.4159091,
                "pitch": 89,
                "velocity": 32,
                "duration": 0.1977273,
                "tempo": 120.0
            },
            {
                "start_time": 35.6159091,
                "end_time": 35.7159091,
                "pitch": 89,
                "velocity": 32,
                "duration": 0.1,
                "tempo": 120.0
            },
            {
                "start_time": 35.7159091,
                "end_time": 35.8159091,
                "pitch": 88,
                "velocity": 32,
                "duration": 0.1,
                "tempo": 120.0
            },
            {
                "start_time": 35.8159091,
                "end_time": 35.9181818,
                "pitch": 89,
                "velocity": 32,
                "duration": 0.1022727,
                "tempo": 120.0
            },
            {
                "start_time": 35.9181818,
                "end_time": 36.0204545,
                "pitch": 88,
                "velocity": 32,
                "duration": 0.1022727,
                "tempo": 120.0
            },
            {
                "start_time": 36.0204545,
                "end_time": 36.1227273,
                "pitch": 89,
                "velocity": 32,
                "duration": 0.1022727,
                "tempo": 120.0
            },
            {
                "start_time": 36.1227273,
                "end_time": 36.125,
                "pitch": 86,
                "velocity": 32,
                "duration": 0.0022727,
                "tempo": 120.0
            },
            {
                "start_time": 36.125,
                "end_time": 36.2272727,
                "pitch": 86,
                "velocity": 32,
                "duration": 0.1022727,
                "tempo": 120.0
            },
            {
                "start_time": 36.2272727,
                "end_time": 36.3272727,
                "pitch": 89,
                "velocity": 32,
                "duration": 0.1,
                "tempo": 120.0
            },
            {
                "start_time": 36.2272727,
                "end_time": 36.3272727,
                "pitch": 89,
                "velocity": 40,
                "duration": 0.1,
                "tempo": 120.0
            },
            {
                "start_time": 36.3272727,
                "end_time": 36.4272727,
                "pitch": 88,
                "velocity": 40,
                "duration": 0.1,
                "tempo": 120.0
            },
            {
                "start_time": 36.4272727,
                "end_time": 36.5272727,
                "pitch": 89,
                "velocity": 40,
                "duration": 0.1,
                "tempo": 120.0
            },
            {
                "start_time": 36.5272727,
                "end_time": 36.6272727,
                "pitch": 88,
                "velocity": 40,
                "duration": 0.1,
                "tempo": 120.0
            },
            {
                "start_time": 36.6272727,
                "end_time": 36.7272727,
                "pitch": 89,
                "velocity": 40,
                "duration": 0.1,
                "tempo": 120.0
            },
            {
                "start_time": 36.7272727,
                "end_time": 36.8272727,
                "pitch": 88,
                "velocity": 40,
                "duration": 0.1,
                "tempo": 120.0
            },
            {
                "start_time": 36.8272727,
                "end_time": 36.9272727,
                "pitch": 89,
                "velocity": 40,
                "duration": 0.1,
                "tempo": 120.0
            },
            {
                "start_time": 36.9272727,
                "end_time": 37.0272727,
                "pitch": 86,
                "velocity": 40,
                "duration": 0.1,
                "tempo": 120.0
            },
            {
                "start_time": 36.9272727,
                "end_time": 37.0272727,
                "pitch": 86,
                "velocity": 40,
                "duration": 0.1,
                "tempo": 120.0
            },
            {
                "start_time": 37.0272727,
                "end_time": 37.1272727,
                "pitch": 89,
                "velocity": 40,
                "duration": 0.1,
                "tempo": 120.0
            },
            {
                "start_time": 37.0272727,
                "end_time": 37.1272727,
                "pitch": 89,
                "velocity": 51,
                "duration": 0.1,
                "tempo": 120.0
            },
            {
                "start_time": 37.1272727,
                "end_time": 37.2272727,
                "pitch": 88,
                "velocity": 51,
                "duration": 0.1,
                "tempo": 120.0
            },
            {
                "start_time": 37.2272727,
                "end_time": 37.3272727,
                "pitch": 89,
                "velocity": 51,
                "duration": 0.1,
                "tempo": 120.0
            },
            {
                "start_time": 37.3272727,
                "end_time": 37.4295455,
                "pitch": 88,
                "velocity": 51,
                "duration": 0.1022727,
                "tempo": 120.0
            },
            {
                "start_time": 37.4295455,
                "end_time": 37.5295455,
                "pitch": 89,
                "velocity": 51,
                "duration": 0.1,
                "tempo": 120.0
            },
            {
                "start_time": 37.5295455,
                "end_time": 37.6295455,
                "pitch": 88,
                "velocity": 51,
                "duration": 0.1,
                "tempo": 120.0
            },
            {
                "start_time": 37.6295455,
                "end_time": 37.7318182,
                "pitch": 89,
                "velocity": 51,
                "duration": 0.1022727,
                "tempo": 120.0
            },
            {
                "start_time": 37.7318182,
                "end_time": 37.8318182,
                "pitch": 86,
                "velocity": 51,
                "duration": 0.1,
                "tempo": 120.0
            },
            {
                "start_time": 37.7318182,
                "end_time": 37.8318182,
                "pitch": 86,
                "velocity": 51,
                "duration": 0.1,
                "tempo": 120.0
            },
            {
                "start_time": 37.8318182,
                "end_time": 37.9318182,
                "pitch": 89,
                "velocity": 51,
                "duration": 0.1,
                "tempo": 120.0
            },
            {
                "start_time": 37.8318182,
                "end_time": 37.9318182,
                "pitch": 89,
                "velocity": 64,
                "duration": 0.1,
                "tempo": 120.0
            },
            {
                "start_time": 37.9318182,
                "end_time": 38.0318182,
                "pitch": 88,
                "velocity": 64,
                "duration": 0.1,
                "tempo": 120.0
            },
            {
                "start_time": 38.0318182,
                "end_time": 38.1318182,
                "pitch": 79,
                "velocity": 64,
                "duration": 0.1,
                "tempo": 120.0
            },
            {
                "start_time": 38.0318182,
                "end_time": 38.1318182,
                "pitch": 79,
                "velocity": 64,
                "duration": 0.1,
                "tempo": 120.0
            },
            {
                "start_time": 38.1318182,
                "end_time": 38.2318182,
                "pitch": 81,
                "velocity": 64,
                "duration": 0.1,
                "tempo": 120.0
            },
            {
                "start_time": 38.2318182,
                "end_time": 38.3318182,
                "pitch": 82,
                "velocity": 64,
                "duration": 0.1,
                "tempo": 120.0
            },
            {
                "start_time": 38.3318182,
                "end_time": 38.4318182,
                "pitch": 84,
                "velocity": 64,
                "duration": 0.1,
                "tempo": 120.0
            },
            {
                "start_time": 38.3318182,
                "end_time": 38.4318182,
                "pitch": 84,
                "velocity": 64,
                "duration": 0.1,
                "tempo": 120.0
            },
            {
                "start_time": 38.4318182,
                "end_time": 38.5318182,
                "pitch": 86,
                "velocity": 64,
                "duration": 0.1,
                "tempo": 120.0
            },
            {
                "start_time": 38.5318182,
                "end_time": 38.6318182,
                "pitch": 91,
                "velocity": 64,
                "duration": 0.1,
                "tempo": 120.0
            },
            {
                "start_time": 34.8227273,
                "end_time": 38.6318182,
                "pitch": 100,
                "velocity": 32,
                "duration": 3.8090909,
                "tempo": 120.0
            },
            {
                "start_time": 38.6340909,
                "end_time": 41.8431818,
                "pitch": 88,
                "velocity": 64,
                "duration": 3.2090909,
                "tempo": 120.0
            },
            {
                "start_time": 41.8431818,
                "end_time": 42.0431818,
                "pitch": 84,
                "velocity": 64,
                "duration": 0.2,
                "tempo": 120.0
            },
            {
                "start_time": 41.8431818,
                "end_time": 42.0431818,
                "pitch": 84,
                "velocity": 64,
                "duration": 0.2,
                "tempo": 120.0
            },
            {
                "start_time": 42.0431818,
                "end_time": 42.2431818,
                "pitch": 88,
                "velocity": 64,
                "duration": 0.2,
                "tempo": 120.0
            },
            {
                "start_time": 42.0431818,
                "end_time": 42.2431818,
                "pitch": 88,
                "velocity": 64,
                "duration": 0.2,
                "tempo": 120.0
            },
            {
                "start_time": 42.2431818,
                "end_time": 42.4477273,
                "pitch": 89,
                "velocity": 64,
                "duration": 0.2045455,
                "tempo": 120.0
            },
            {
                "start_time": 38.5318182,
                "end_time": 42.6545455,
                "pitch": 79,
                "velocity": 64,
                "duration": 4.1227273,
                "tempo": 120.0
            },
            {
                "start_time": 42.4477273,
                "end_time": 42.6545455,
                "pitch": 88,
                "velocity": 64,
                "duration": 0.2068182,
                "tempo": 120.0
            },
            {
                "start_time": 42.6545455,
                "end_time": 42.8545455,
                "pitch": 91,
                "velocity": 64,
                "duration": 0.2,
                "tempo": 120.0
            },
            {
                "start_time": 38.6318182,
                "end_time": 42.8545455,
                "pitch": 100,
                "velocity": 64,
                "duration": 4.2227273,
                "tempo": 120.0
            },
            {
                "start_time": 42.8545455,
                "end_time": 43.0545455,
                "pitch": 88,
                "velocity": 64,
                "duration": 0.2,
                "tempo": 120.0
            },
            {
                "start_time": 43.0545455,
                "end_time": 43.2568182,
                "pitch": 89,
                "velocity": 64,
                "duration": 0.2022727,
                "tempo": 120.0
            },
            {
                "start_time": 43.2568182,
                "end_time": 43.4590909,
                "pitch": 88,
                "velocity": 64,
                "duration": 0.2022727,
                "tempo": 120.0
            },
            {
                "start_time": 43.4590909,
                "end_time": 43.6590909,
                "pitch": 84,
                "velocity": 64,
                "duration": 0.2,
                "tempo": 120.0
            },
            {
                "start_time": 43.4590909,
                "end_time": 43.6590909,
                "pitch": 84,
                "velocity": 64,
                "duration": 0.2,
                "tempo": 120.0
            },
            {
                "start_time": 43.6590909,
                "end_time": 43.8590909,
                "pitch": 88,
                "velocity": 64,
                "duration": 0.2,
                "tempo": 120.0
            },
            {
                "start_time": 43.6590909,
                "end_time": 43.8590909,
                "pitch": 88,
                "velocity": 64,
                "duration": 0.2,
                "tempo": 120.0
            },
            {
                "start_time": 43.8590909,
                "end_time": 44.0590909,
                "pitch": 89,
                "velocity": 64,
                "duration": 0.2,
                "tempo": 120.0
            },
            {
                "start_time": 42.6545455,
                "end_time": 44.2590909,
                "pitch": 79,
                "velocity": 64,
                "duration": 1.6045455,
                "tempo": 120.0
            },
            {
                "start_time": 44.0590909,
                "end_time": 44.2590909,
                "pitch": 88,
                "velocity": 64,
                "duration": 0.2,
                "tempo": 120.0
            },
            {
                "start_time": 44.2590909,
                "end_time": 44.4590909,
                "pitch": 91,
                "velocity": 64,
                "duration": 0.2,
                "tempo": 120.0
            },
            {
                "start_time": 44.4590909,
                "end_time": 44.6590909,
                "pitch": 89,
                "velocity": 64,
                "duration": 0.2,
                "tempo": 120.0
            },
            {
                "start_time": 44.6590909,
                "end_time": 44.8613636,
                "pitch": 76,
                "velocity": 80,
                "duration": 0.2022727,
                "tempo": 120.0
            },
            {
                "start_time": 44.8613636,
                "end_time": 45.2613636,
                "pitch": 62,
                "velocity": 101,
                "duration": 0.4,
                "tempo": 120.0
            },
            {
                "start_time": 45.2613636,
                "end_time": 45.4636364,
                "pitch": 65,
                "velocity": 80,
                "duration": 0.2022727,
                "tempo": 120.0
            },
            {
                "start_time": 45.2613636,
                "end_time": 45.4636364,
                "pitch": 65,
                "velocity": 101,
                "duration": 0.2022727,
                "tempo": 120.0
            },
            {
                "start_time": 45.4636364,
                "end_time": 45.6636364,
                "pitch": 69,
                "velocity": 80,
                "duration": 0.2,
                "tempo": 120.0
            },
            {
                "start_time": 45.6636364,
                "end_time": 45.8636364,
                "pitch": 65,
                "velocity": 80,
                "duration": 0.2,
                "tempo": 120.0
            },
            {
                "start_time": 44.8613636,
                "end_time": 46.0636364,
                "pitch": 74,
                "velocity": 80,
                "duration": 1.2022727,
                "tempo": 120.0
            },
            {
                "start_time": 45.8636364,
                "end_time": 46.0636364,
                "pitch": 74,
                "velocity": 101,
                "duration": 0.2,
                "tempo": 120.0
            },
            {
                "start_time": 46.0636364,
                "end_time": 46.2659091,
                "pitch": 67,
                "velocity": 80,
                "duration": 0.2022727,
                "tempo": 120.0
            },
            {
                "start_time": 46.0636364,
                "end_time": 46.2659091,
                "pitch": 67,
                "velocity": 101,
                "duration": 0.2022727,
                "tempo": 120.0
            },
            {
                "start_time": 46.2659091,
                "end_time": 46.4659091,
                "pitch": 71,
                "velocity": 80,
                "duration": 0.2,
                "tempo": 120.0
            },
            {
                "start_time": 46.2659091,
                "end_time": 46.4659091,
                "pitch": 71,
                "velocity": 80,
                "duration": 0.2,
                "tempo": 120.0
            },
            {
                "start_time": 45.8636364,
                "end_time": 46.8659091,
                "pitch": 62,
                "velocity": 80,
                "duration": 1.0022727,
                "tempo": 120.0
            },
            {
                "start_time": 46.4659091,
                "end_time": 46.8659091,
                "pitch": 62,
                "velocity": 101,
                "duration": 0.4,
                "tempo": 120.0
            },
            {
                "start_time": 45.4636364,
                "end_time": 47.0659091,
                "pitch": 57,
                "velocity": 80,
                "duration": 1.6022727,
                "tempo": 120.0
            },
            {
                "start_time": 46.8659091,
                "end_time": 47.0659091,
                "pitch": 65,
                "velocity": 80,
                "duration": 0.2,
                "tempo": 120.0
            },
            {
                "start_time": 46.8659091,
                "end_time": 47.0659091,
                "pitch": 65,
                "velocity": 101,
                "duration": 0.2,
                "tempo": 120.0
            },
            {
                "start_time": 47.0659091,
                "end_time": 47.2681818,
                "pitch": 69,
                "velocity": 80,
                "duration": 0.2022727,
                "tempo": 120.0
            },
            {
                "start_time": 45.6636364,
                "end_time": 47.2681818,
                "pitch": 77,
                "velocity": 80,
                "duration": 1.6045455,
                "tempo": 120.0
            },
            {
                "start_time": 47.2681818,
                "end_time": 47.4681818,
                "pitch": 65,
                "velocity": 80,
                "duration": 0.2,
                "tempo": 120.0
            },
            {
                "start_time": 46.4659091,
                "end_time": 47.6704545,
                "pitch": 74,
                "velocity": 80,
                "duration": 1.2045455,
                "tempo": 120.0
            },
            {
                "start_time": 47.4704545,
                "end_time": 47.6704545,
                "pitch": 74,
                "velocity": 101,
                "duration": 0.2,
                "tempo": 120.0
            },
            {
                "start_time": 47.6704545,
                "end_time": 47.8704545,
                "pitch": 67,
                "velocity": 80,
                "duration": 0.2,
                "tempo": 120.0
            },
            {
                "start_time": 47.6704545,
                "end_time": 47.8704545,
                "pitch": 67,
                "velocity": 101,
                "duration": 0.2,
                "tempo": 120.0
            },
            {
                "start_time": 47.8704545,
                "end_time": 48.075,
                "pitch": 71,
                "velocity": 80,
                "duration": 0.2045455,
                "tempo": 120.0
            },
            {
                "start_time": 47.8704545,
                "end_time": 48.075,
                "pitch": 71,
                "velocity": 80,
                "duration": 0.2045455,
                "tempo": 120.0
            },
            {
                "start_time": 47.4681818,
                "end_time": 48.4772727,
                "pitch": 62,
                "velocity": 80,
                "duration": 1.0090909,
                "tempo": 120.0
            },
            {
                "start_time": 48.075,
                "end_time": 48.4772727,
                "pitch": 62,
                "velocity": 101,
                "duration": 0.4022727,
                "tempo": 120.0
            },
            {
                "start_time": 47.0659091,
                "end_time": 48.6727273,
                "pitch": 57,
                "velocity": 80,
                "duration": 1.6068182,
                "tempo": 120.0
            },
            {
                "start_time": 48.4772727,
                "end_time": 48.6727273,
                "pitch": 65,
                "velocity": 80,
                "duration": 0.1954545,
                "tempo": 120.0
            },
            {
                "start_time": 48.4772727,
                "end_time": 48.6727273,
                "pitch": 65,
                "velocity": 101,
                "duration": 0.1954545,
                "tempo": 120.0
            },
            {
                "start_time": 48.6727273,
                "end_time": 48.8795455,
                "pitch": 69,
                "velocity": 80,
                "duration": 0.2068182,
                "tempo": 120.0
            },
            {
                "start_time": 47.2681818,
                "end_time": 48.8795455,
                "pitch": 77,
                "velocity": 80,
                "duration": 1.6113636,
                "tempo": 120.0
            },
            {
                "start_time": 48.8795455,
                "end_time": 49.0840909,
                "pitch": 65,
                "velocity": 80,
                "duration": 0.2045455,
                "tempo": 120.0
            },
            {
                "start_time": 48.075,
                "end_time": 49.2818182,
                "pitch": 74,
                "velocity": 80,
                "duration": 1.2068182,
                "tempo": 120.0
            },
            {
                "start_time": 49.0840909,
                "end_time": 49.2818182,
                "pitch": 74,
                "velocity": 101,
                "duration": 0.1977273,
                "tempo": 120.0
            },
            {
                "start_time": 49.2818182,
                "end_time": 49.4772727,
                "pitch": 67,
                "velocity": 80,
                "duration": 0.1954545,
                "tempo": 120.0
            },
            {
                "start_time": 49.2818182,
                "end_time": 49.4772727,
                "pitch": 67,
                "velocity": 101,
                "duration": 0.1954545,
                "tempo": 120.0
            },
            {
                "start_time": 49.4772727,
                "end_time": 49.6818182,
                "pitch": 71,
                "velocity": 80,
                "duration": 0.2045455,
                "tempo": 120.0
            },
            {
                "start_time": 49.4772727,
                "end_time": 49.6818182,
                "pitch": 71,
                "velocity": 80,
                "duration": 0.2045455,
                "tempo": 120.0
            },
            {
                "start_time": 48.6727273,
                "end_time": 49.8886364,
                "pitch": 57,
                "velocity": 80,
                "duration": 1.2159091,
                "tempo": 120.0
            },
            {
                "start_time": 49.6818182,
                "end_time": 49.8886364,
                "pitch": 57,
                "velocity": 101,
                "duration": 0.2068182,
                "tempo": 120.0
            },
            {
                "start_time": 49.8886364,
                "end_time": 49.9886364,
                "pitch": 33,
                "velocity": 101,
                "duration": 0.1,
                "tempo": 120.0
            },
            {
                "start_time": 49.9886364,
                "end_time": 50.0886364,
                "pitch": 33,
                "velocity": 101,
                "duration": 0.1,
                "tempo": 120.0
            },
            {
                "start_time": 50.0886364,
                "end_time": 50.1886364,
                "pitch": 33,
                "velocity": 101,
                "duration": 0.1,
                "tempo": 120.0
            },
            {
                "start_time": 50.1886364,
                "end_time": 50.2886364,
                "pitch": 33,
                "velocity": 101,
                "duration": 0.1,
                "tempo": 120.0
            },
            {
                "start_time": 50.2886364,
                "end_time": 53.0977273,
                "pitch": 33,
                "velocity": 101,
                "duration": 2.8090909,
                "tempo": 120.0
            }
        ],
        "Electric Guitar (clean)": [
            {
                "start_time": 0.0181818,
                "end_time": 0.1181818,
                "pitch": 38,
                "velocity": 80,
                "duration": 0.1,
                "tempo": 120.0
            },
            {
                "start_time": 0.1181818,
                "end_time": 0.2181818,
                "pitch": 38,
                "velocity": 80,
                "duration": 0.1,
                "tempo": 120.0
            },
            {
                "start_time": 0.2181818,
                "end_time": 0.3181818,
                "pitch": 38,
                "velocity": 80,
                "duration": 0.1,
                "tempo": 120.0
            },
            {
                "start_time": 0.3181818,
                "end_time": 0.4181818,
                "pitch": 38,
                "velocity": 80,
                "duration": 0.1,
                "tempo": 120.0
            },
            {
                "start_time": 0.4181818,
                "end_time": 0.6181818,
                "pitch": 50,
                "velocity": 80,
                "duration": 0.2,
                "tempo": 120.0
            },
            {
                "start_time": 0.6181818,
                "end_time": 0.7181818,
                "pitch": 38,
                "velocity": 80,
                "duration": 0.1,
                "tempo": 120.0
            },
            {
                "start_time": 0.7181818,
                "end_time": 0.8181818,
                "pitch": 38,
                "velocity": 80,
                "duration": 0.1,
                "tempo": 120.0
            },
            {
                "start_time": 0.8181818,
                "end_time": 1.0181818,
                "pitch": 38,
                "velocity": 80,
                "duration": 0.2,
                "tempo": 120.0
            },
            {
                "start_time": 1.0181818,
                "end_time": 1.2181818,
                "pitch": 50,
                "velocity": 80,
                "duration": 0.2,
                "tempo": 120.0
            },
            {
                "start_time": 1.2181818,
                "end_time": 1.3181818,
                "pitch": 38,
                "velocity": 80,
                "duration": 0.1,
                "tempo": 120.0
            },
            {
                "start_time": 1.3181818,
                "end_time": 1.4181818,
                "pitch": 38,
                "velocity": 80,
                "duration": 0.1,
                "tempo": 120.0
            },
            {
                "start_time": 1.4181818,
                "end_time": 1.6204545,
                "pitch": 50,
                "velocity": 80,
                "duration": 0.2022727,
                "tempo": 120.0
            },
            {
                "start_time": 1.6204545,
                "end_time": 1.7204545,
                "pitch": 38,
                "velocity": 80,
                "duration": 0.1,
                "tempo": 120.0
            },
            {
                "start_time": 1.7204545,
                "end_time": 1.8204545,
                "pitch": 38,
                "velocity": 80,
                "duration": 0.1,
                "tempo": 120.0
            },
            {
                "start_time": 1.8204545,
                "end_time": 1.9227273,
                "pitch": 38,
                "velocity": 80,
                "duration": 0.1022727,
                "tempo": 120.0
            },
            {
                "start_time": 1.9227273,
                "end_time": 2.0227273,
                "pitch": 38,
                "velocity": 80,
                "duration": 0.1,
                "tempo": 120.0
            },
            {
                "start_time": 2.0227273,
                "end_time": 2.2227273,
                "pitch": 50,
                "velocity": 80,
                "duration": 0.2,
                "tempo": 120.0
            },
            {
                "start_time": 2.2227273,
                "end_time": 2.3227273,
                "pitch": 38,
                "velocity": 80,
                "duration": 0.1,
                "tempo": 120.0
            },
            {
                "start_time": 2.3227273,
                "end_time": 2.4227273,
                "pitch": 38,
                "velocity": 80,
                "duration": 0.1,
                "tempo": 120.0
            },
            {
                "start_time": 2.4227273,
                "end_time": 2.6227273,
                "pitch": 38,
                "velocity": 80,
                "duration": 0.2,
                "tempo": 120.0
            },
            {
                "start_time": 2.6227273,
                "end_time": 2.8227273,
                "pitch": 50,
                "velocity": 80,
                "duration": 0.2,
                "tempo": 120.0
            },
            {
                "start_time": 2.8227273,
                "end_time": 2.9227273,
                "pitch": 38,
                "velocity": 80,
                "duration": 0.1,
                "tempo": 120.0
            },
            {
                "start_time": 2.9227273,
                "end_time": 3.025,
                "pitch": 38,
                "velocity": 80,
                "duration": 0.1022727,
                "tempo": 120.0
            },
            {
                "start_time": 3.025,
                "end_time": 3.225,
                "pitch": 50,
                "velocity": 80,
                "duration": 0.2,
                "tempo": 120.0
            },
            {
                "start_time": 3.225,
                "end_time": 3.325,
                "pitch": 38,
                "velocity": 80,
                "duration": 0.1,
                "tempo": 120.0
            },
            {
                "start_time": 3.325,
                "end_time": 3.425,
                "pitch": 38,
                "velocity": 80,
                "duration": 0.1,
                "tempo": 120.0
            },
            {
                "start_time": 3.425,
                "end_time": 3.5272727,
                "pitch": 38,
                "velocity": 80,
                "duration": 0.1022727,
                "tempo": 120.0
            },
            {
                "start_time": 3.5272727,
                "end_time": 3.6272727,
                "pitch": 38,
                "velocity": 80,
                "duration": 0.1,
                "tempo": 120.0
            },
            {
                "start_time": 3.6272727,
                "end_time": 3.8272727,
                "pitch": 50,
                "velocity": 80,
                "duration": 0.2,
                "tempo": 120.0
            },
            {
                "start_time": 3.8272727,
                "end_time": 3.9272727,
                "pitch": 38,
                "velocity": 80,
                "duration": 0.1,
                "tempo": 120.0
            },
            {
                "start_time": 3.9272727,
                "end_time": 4.0272727,
                "pitch": 38,
                "velocity": 80,
                "duration": 0.1,
                "tempo": 120.0
            },
            {
                "start_time": 4.0272727,
                "end_time": 4.2340909,
                "pitch": 38,
                "velocity": 80,
                "duration": 0.2068182,
                "tempo": 120.0
            },
            {
                "start_time": 4.2340909,
                "end_time": 4.4386364,
                "pitch": 50,
                "velocity": 80,
                "duration": 0.2045455,
                "tempo": 120.0
            },
            {
                "start_time": 4.4386364,
                "end_time": 4.5363636,
                "pitch": 38,
                "velocity": 80,
                "duration": 0.0977273,
                "tempo": 120.0
            },
            {
                "start_time": 4.5363636,
                "end_time": 4.6363636,
                "pitch": 38,
                "velocity": 80,
                "duration": 0.1,
                "tempo": 120.0
            },
            {
                "start_time": 4.6363636,
                "end_time": 4.8318182,
                "pitch": 50,
                "velocity": 80,
                "duration": 0.1954545,
                "tempo": 120.0
            },
            {
                "start_time": 4.8318182,
                "end_time": 4.9340909,
                "pitch": 38,
                "velocity": 80,
                "duration": 0.1022727,
                "tempo": 120.0
            },
            {
                "start_time": 4.9340909,
                "end_time": 5.0363636,
                "pitch": 38,
                "velocity": 80,
                "duration": 0.1022727,
                "tempo": 120.0
            },
            {
                "start_time": 5.0363636,
                "end_time": 5.1409091,
                "pitch": 38,
                "velocity": 80,
                "duration": 0.1045455,
                "tempo": 120.0
            },
            {
                "start_time": 5.1409091,
                "end_time": 5.2431818,
                "pitch": 38,
                "velocity": 80,
                "duration": 0.1022727,
                "tempo": 120.0
            },
            {
                "start_time": 5.2431818,
                "end_time": 5.4454545,
                "pitch": 50,
                "velocity": 80,
                "duration": 0.2022727,
                "tempo": 120.0
            },
            {
                "start_time": 5.4454545,
                "end_time": 5.5454545,
                "pitch": 38,
                "velocity": 80,
                "duration": 0.1,
                "tempo": 120.0
            },
            {
                "start_time": 5.5454545,
                "end_time": 5.6454545,
                "pitch": 38,
                "velocity": 80,
                "duration": 0.1,
                "tempo": 120.0
            },
            {
                "start_time": 5.6454545,
                "end_time": 5.8477273,
                "pitch": 38,
                "velocity": 80,
                "duration": 0.2022727,
                "tempo": 120.0
            },
            {
                "start_time": 5.8477273,
                "end_time": 6.0477273,
                "pitch": 50,
                "velocity": 80,
                "duration": 0.2,
                "tempo": 120.0
            },
            {
                "start_time": 6.0477273,
                "end_time": 6.1477273,
                "pitch": 38,
                "velocity": 80,
                "duration": 0.1,
                "tempo": 120.0
            },
            {
                "start_time": 6.1477273,
                "end_time": 6.2477273,
                "pitch": 38,
                "velocity": 80,
                "duration": 0.1,
                "tempo": 120.0
            },
            {
                "start_time": 6.2477273,
                "end_time": 6.45,
                "pitch": 50,
                "velocity": 80,
                "duration": 0.2022727,
                "tempo": 120.0
            },
            {
                "start_time": 6.45,
                "end_time": 6.55,
                "pitch": 38,
                "velocity": 80,
                "duration": 0.1,
                "tempo": 120.0
            },
            {
                "start_time": 6.55,
                "end_time": 6.65,
                "pitch": 38,
                "velocity": 80,
                "duration": 0.1,
                "tempo": 120.0
            },
            {
                "start_time": 6.65,
                "end_time": 6.75,
                "pitch": 38,
                "velocity": 80,
                "duration": 0.1,
                "tempo": 120.0
            },
            {
                "start_time": 6.75,
                "end_time": 6.85,
                "pitch": 38,
                "velocity": 80,
                "duration": 0.1,
                "tempo": 120.0
            },
            {
                "start_time": 6.85,
                "end_time": 7.0522727,
                "pitch": 50,
                "velocity": 80,
                "duration": 0.2022727,
                "tempo": 120.0
            },
            {
                "start_time": 7.0522727,
                "end_time": 7.1522727,
                "pitch": 38,
                "velocity": 80,
                "duration": 0.1,
                "tempo": 120.0
            },
            {
                "start_time": 7.1522727,
                "end_time": 7.2545455,
                "pitch": 38,
                "velocity": 80,
                "duration": 0.1022727,
                "tempo": 120.0
            },
            {
                "start_time": 7.2545455,
                "end_time": 7.4545455,
                "pitch": 38,
                "velocity": 80,
                "duration": 0.2,
                "tempo": 120.0
            },
            {
                "start_time": 7.4568182,
                "end_time": 7.6568182,
                "pitch": 50,
                "velocity": 80,
                "duration": 0.2,
                "tempo": 120.0
            },
            {
                "start_time": 7.6568182,
                "end_time": 7.7568182,
                "pitch": 38,
                "velocity": 80,
                "duration": 0.1,
                "tempo": 120.0
            },
            {
                "start_time": 7.7568182,
                "end_time": 7.8568182,
                "pitch": 38,
                "velocity": 80,
                "duration": 0.1,
                "tempo": 120.0
            },
            {
                "start_time": 7.8568182,
                "end_time": 8.0568182,
                "pitch": 50,
                "velocity": 80,
                "duration": 0.2,
                "tempo": 120.0
            },
            {
                "start_time": 8.0568182,
                "end_time": 8.1568182,
                "pitch": 38,
                "velocity": 80,
                "duration": 0.1,
                "tempo": 120.0
            },
            {
                "start_time": 8.1568182,
                "end_time": 8.2568182,
                "pitch": 38,
                "velocity": 80,
                "duration": 0.1,
                "tempo": 120.0
            },
            {
                "start_time": 8.2590909,
                "end_time": 8.3590909,
                "pitch": 38,
                "velocity": 80,
                "duration": 0.1,
                "tempo": 120.0
            },
            {
                "start_time": 8.3590909,
                "end_time": 8.4590909,
                "pitch": 38,
                "velocity": 80,
                "duration": 0.1,
                "tempo": 120.0
            },
            {
                "start_time": 8.4590909,
                "end_time": 8.6590909,
                "pitch": 50,
                "velocity": 80,
                "duration": 0.2,
                "tempo": 120.0
            },
            {
                "start_time": 8.6590909,
                "end_time": 8.7613636,
                "pitch": 38,
                "velocity": 80,
                "duration": 0.1022727,
                "tempo": 120.0
            },
            {
                "start_time": 8.7613636,
                "end_time": 8.8613636,
                "pitch": 38,
                "velocity": 80,
                "duration": 0.1,
                "tempo": 120.0
            },
            {
                "start_time": 8.8613636,
                "end_time": 9.0636364,
                "pitch": 38,
                "velocity": 80,
                "duration": 0.2022727,
                "tempo": 120.0
            },
            {
                "start_time": 9.0636364,
                "end_time": 9.2659091,
                "pitch": 50,
                "velocity": 80,
                "duration": 0.2022727,
                "tempo": 120.0
            },
            {
                "start_time": 9.2659091,
                "end_time": 9.3659091,
                "pitch": 38,
                "velocity": 80,
                "duration": 0.1,
                "tempo": 120.0
            },
            {
                "start_time": 9.3659091,
                "end_time": 9.4659091,
                "pitch": 38,
                "velocity": 80,
                "duration": 0.1,
                "tempo": 120.0
            },
            {
                "start_time": 9.4659091,
                "end_time": 9.6681818,
                "pitch": 50,
                "velocity": 80,
                "duration": 0.2022727,
                "tempo": 120.0
            },
            {
                "start_time": 9.6681818,
                "end_time": 9.7681818,
                "pitch": 38,
                "velocity": 80,
                "duration": 0.1,
                "tempo": 120.0
            },
            {
                "start_time": 9.7681818,
                "end_time": 9.8704545,
                "pitch": 38,
                "velocity": 80,
                "duration": 0.1022727,
                "tempo": 120.0
            },
            {
                "start_time": 9.8704545,
                "end_time": 9.9704545,
                "pitch": 38,
                "velocity": 80,
                "duration": 0.1,
                "tempo": 120.0
            },
            {
                "start_time": 9.9704545,
                "end_time": 10.0704545,
                "pitch": 38,
                "velocity": 80,
                "duration": 0.1,
                "tempo": 120.0
            },
            {
                "start_time": 10.0704545,
                "end_time": 10.2704545,
                "pitch": 50,
                "velocity": 80,
                "duration": 0.2,
                "tempo": 120.0
            },
            {
                "start_time": 10.2727273,
                "end_time": 10.3704545,
                "pitch": 38,
                "velocity": 80,
                "duration": 0.0977273,
                "tempo": 120.0
            },
            {
                "start_time": 10.3704545,
                "end_time": 10.4727273,
                "pitch": 38,
                "velocity": 80,
                "duration": 0.1022727,
                "tempo": 120.0
            },
            {
                "start_time": 10.4727273,
                "end_time": 10.6772727,
                "pitch": 38,
                "velocity": 80,
                "duration": 0.2045455,
                "tempo": 120.0
            },
            {
                "start_time": 10.6772727,
                "end_time": 10.8818182,
                "pitch": 50,
                "velocity": 80,
                "duration": 0.2045455,
                "tempo": 120.0
            },
            {
                "start_time": 10.8818182,
                "end_time": 10.9818182,
                "pitch": 38,
                "velocity": 80,
                "duration": 0.1,
                "tempo": 120.0
            },
            {
                "start_time": 10.9818182,
                "end_time": 11.0795455,
                "pitch": 38,
                "velocity": 80,
                "duration": 0.0977273,
                "tempo": 120.0
            },
            {
                "start_time": 11.0795455,
                "end_time": 11.275,
                "pitch": 50,
                "velocity": 80,
                "duration": 0.1954545,
                "tempo": 120.0
            },
            {
                "start_time": 11.275,
                "end_time": 11.3772727,
                "pitch": 38,
                "velocity": 80,
                "duration": 0.1022727,
                "tempo": 120.0
            },
            {
                "start_time": 11.3772727,
                "end_time": 11.4772727,
                "pitch": 38,
                "velocity": 80,
                "duration": 0.1,
                "tempo": 120.0
            },
            {
                "start_time": 11.4772727,
                "end_time": 11.5772727,
                "pitch": 38,
                "velocity": 80,
                "duration": 0.1,
                "tempo": 120.0
            },
            {
                "start_time": 11.5772727,
                "end_time": 11.6795455,
                "pitch": 38,
                "velocity": 80,
                "duration": 0.1022727,
                "tempo": 120.0
            },
            {
                "start_time": 11.6795455,
                "end_time": 11.8840909,
                "pitch": 50,
                "velocity": 80,
                "duration": 0.2045455,
                "tempo": 120.0
            },
            {
                "start_time": 11.8840909,
                "end_time": 11.9863636,
                "pitch": 38,
                "velocity": 80,
                "duration": 0.1022727,
                "tempo": 120.0
            },
            {
                "start_time": 11.9863636,
                "end_time": 12.0909091,
                "pitch": 38,
                "velocity": 80,
                "duration": 0.1045455,
                "tempo": 120.0
            },
            {
                "start_time": 12.0909091,
                "end_time": 12.2863636,
                "pitch": 38,
                "velocity": 80,
                "duration": 0.1954545,
                "tempo": 120.0
            },
            {
                "start_time": 12.2863636,
                "end_time": 12.4840909,
                "pitch": 50,
                "velocity": 80,
                "duration": 0.1977273,
                "tempo": 120.0
            },
            {
                "start_time": 12.4840909,
                "end_time": 12.5840909,
                "pitch": 38,
                "velocity": 80,
                "duration": 0.1,
                "tempo": 120.0
            },
            {
                "start_time": 12.5840909,
                "end_time": 12.6840909,
                "pitch": 38,
                "velocity": 80,
                "duration": 0.1,
                "tempo": 120.0
            },
            {
                "start_time": 12.6840909,
                "end_time": 12.8863636,
                "pitch": 50,
                "velocity": 80,
                "duration": 0.2022727,
                "tempo": 120.0
            },
            {
                "start_time": 12.8863636,
                "end_time": 12.9863636,
                "pitch": 38,
                "velocity": 80,
                "duration": 0.1,
                "tempo": 120.0
            },
            {
                "start_time": 12.9863636,
                "end_time": 13.0886364,
                "pitch": 38,
                "velocity": 80,
                "duration": 0.1022727,
                "tempo": 120.0
            },
            {
                "start_time": 13.0886364,
                "end_time": 13.1886364,
                "pitch": 38,
                "velocity": 80,
                "duration": 0.1,
                "tempo": 120.0
            },
            {
                "start_time": 13.1886364,
                "end_time": 13.2886364,
                "pitch": 38,
                "velocity": 80,
                "duration": 0.1,
                "tempo": 120.0
            },
            {
                "start_time": 13.2886364,
                "end_time": 13.4954545,
                "pitch": 50,
                "velocity": 80,
                "duration": 0.2068182,
                "tempo": 120.0
            },
            {
                "start_time": 13.4954545,
                "end_time": 13.5977273,
                "pitch": 38,
                "velocity": 80,
                "duration": 0.1022727,
                "tempo": 120.0
            },
            {
                "start_time": 13.5977273,
                "end_time": 13.7,
                "pitch": 38,
                "velocity": 80,
                "duration": 0.1022727,
                "tempo": 120.0
            },
            {
                "start_time": 13.7,
                "end_time": 13.9022727,
                "pitch": 38,
                "velocity": 80,
                "duration": 0.2022727,
                "tempo": 120.0
            },
            {
                "start_time": 13.9022727,
                "end_time": 14.1045455,
                "pitch": 50,
                "velocity": 80,
                "duration": 0.2022727,
                "tempo": 120.0
            },
            {
                "start_time": 14.1045455,
                "end_time": 14.2045455,
                "pitch": 38,
                "velocity": 80,
                "duration": 0.1,
                "tempo": 120.0
            },
            {
                "start_time": 14.2045455,
                "end_time": 14.3045455,
                "pitch": 38,
                "velocity": 80,
                "duration": 0.1,
                "tempo": 120.0
            },
            {
                "start_time": 14.3045455,
                "end_time": 14.5045455,
                "pitch": 50,
                "velocity": 80,
                "duration": 0.2,
                "tempo": 120.0
            },
            {
                "start_time": 14.5045455,
                "end_time": 14.6045455,
                "pitch": 38,
                "velocity": 80,
                "duration": 0.1,
                "tempo": 120.0
            },
            {
                "start_time": 14.6045455,
                "end_time": 14.7068182,
                "pitch": 38,
                "velocity": 80,
                "duration": 0.1022727,
                "tempo": 120.0
            },
            {
                "start_time": 14.7068182,
                "end_time": 14.8068182,
                "pitch": 38,
                "velocity": 80,
                "duration": 0.1,
                "tempo": 120.0
            },
            {
                "start_time": 14.8068182,
                "end_time": 14.9090909,
                "pitch": 38,
                "velocity": 80,
                "duration": 0.1022727,
                "tempo": 120.0
            },
            {
                "start_time": 14.9090909,
                "end_time": 15.1090909,
                "pitch": 50,
                "velocity": 80,
                "duration": 0.2,
                "tempo": 120.0
            },
            {
                "start_time": 15.1090909,
                "end_time": 15.2113636,
                "pitch": 38,
                "velocity": 80,
                "duration": 0.1022727,
                "tempo": 120.0
            },
            {
                "start_time": 15.2113636,
                "end_time": 15.3113636,
                "pitch": 38,
                "velocity": 80,
                "duration": 0.1,
                "tempo": 120.0
            },
            {
                "start_time": 15.3113636,
                "end_time": 15.5136364,
                "pitch": 38,
                "velocity": 80,
                "duration": 0.2022727,
                "tempo": 120.0
            },
            {
                "start_time": 15.5136364,
                "end_time": 15.7136364,
                "pitch": 50,
                "velocity": 80,
                "duration": 0.2,
                "tempo": 120.0
            },
            {
                "start_time": 15.7136364,
                "end_time": 15.8159091,
                "pitch": 38,
                "velocity": 80,
                "duration": 0.1022727,
                "tempo": 120.0
            },
            {
                "start_time": 15.8159091,
                "end_time": 15.9159091,
                "pitch": 38,
                "velocity": 80,
                "duration": 0.1,
                "tempo": 120.0
            },
            {
                "start_time": 15.9159091,
                "end_time": 16.1181818,
                "pitch": 50,
                "velocity": 80,
                "duration": 0.2022727,
                "tempo": 120.0
            },
            {
                "start_time": 16.1181818,
                "end_time": 16.2181818,
                "pitch": 38,
                "velocity": 80,
                "duration": 0.1,
                "tempo": 120.0
            },
            {
                "start_time": 16.2181818,
                "end_time": 16.3181818,
                "pitch": 38,
                "velocity": 80,
                "duration": 0.1,
                "tempo": 120.0
            },
            {
                "start_time": 16.3181818,
                "end_time": 16.4181818,
                "pitch": 38,
                "velocity": 80,
                "duration": 0.1,
                "tempo": 120.0
            },
            {
                "start_time": 16.4181818,
                "end_time": 16.5181818,
                "pitch": 38,
                "velocity": 80,
                "duration": 0.1,
                "tempo": 120.0
            },
            {
                "start_time": 16.5181818,
                "end_time": 16.7204545,
                "pitch": 50,
                "velocity": 80,
                "duration": 0.2022727,
                "tempo": 120.0
            },
            {
                "start_time": 16.7204545,
                "end_time": 16.8204545,
                "pitch": 38,
                "velocity": 80,
                "duration": 0.1,
                "tempo": 120.0
            },
            {
                "start_time": 16.8204545,
                "end_time": 16.9204545,
                "pitch": 38,
                "velocity": 80,
                "duration": 0.1,
                "tempo": 120.0
            },
            {
                "start_time": 16.9204545,
                "end_time": 17.1227273,
                "pitch": 38,
                "velocity": 80,
                "duration": 0.2022727,
                "tempo": 120.0
            },
            {
                "start_time": 17.1227273,
                "end_time": 17.3227273,
                "pitch": 50,
                "velocity": 80,
                "duration": 0.2,
                "tempo": 120.0
            },
            {
                "start_time": 17.3227273,
                "end_time": 17.4227273,
                "pitch": 38,
                "velocity": 80,
                "duration": 0.1,
                "tempo": 120.0
            },
            {
                "start_time": 17.4227273,
                "end_time": 17.5227273,
                "pitch": 38,
                "velocity": 80,
                "duration": 0.1,
                "tempo": 120.0
            },
            {
                "start_time": 17.5227273,
                "end_time": 17.7227273,
                "pitch": 50,
                "velocity": 80,
                "duration": 0.2,
                "tempo": 120.0
            },
            {
                "start_time": 17.7227273,
                "end_time": 17.8227273,
                "pitch": 38,
                "velocity": 80,
                "duration": 0.1,
                "tempo": 120.0
            },
            {
                "start_time": 17.8227273,
                "end_time": 17.925,
                "pitch": 38,
                "velocity": 80,
                "duration": 0.1022727,
                "tempo": 120.0
            },
            {
                "start_time": 17.925,
                "end_time": 18.025,
                "pitch": 38,
                "velocity": 80,
                "duration": 0.1,
                "tempo": 120.0
            },
            {
                "start_time": 18.025,
                "end_time": 18.125,
                "pitch": 38,
                "velocity": 80,
                "duration": 0.1,
                "tempo": 120.0
            },
            {
                "start_time": 18.125,
                "end_time": 18.325,
                "pitch": 50,
                "velocity": 80,
                "duration": 0.2,
                "tempo": 120.0
            },
            {
                "start_time": 18.325,
                "end_time": 18.425,
                "pitch": 38,
                "velocity": 80,
                "duration": 0.1,
                "tempo": 120.0
            },
            {
                "start_time": 18.425,
                "end_time": 18.5272727,
                "pitch": 38,
                "velocity": 80,
                "duration": 0.1022727,
                "tempo": 120.0
            },
            {
                "start_time": 18.5272727,
                "end_time": 18.7272727,
                "pitch": 38,
                "velocity": 80,
                "duration": 0.2,
                "tempo": 120.0
            },
            {
                "start_time": 18.7272727,
                "end_time": 18.9295455,
                "pitch": 50,
                "velocity": 80,
                "duration": 0.2022727,
                "tempo": 120.0
            },
            {
                "start_time": 18.9295455,
                "end_time": 19.0295455,
                "pitch": 38,
                "velocity": 80,
                "duration": 0.1,
                "tempo": 120.0
            },
            {
                "start_time": 19.0295455,
                "end_time": 19.1295455,
                "pitch": 38,
                "velocity": 80,
                "duration": 0.1,
                "tempo": 120.0
            },
            {
                "start_time": 19.1295455,
                "end_time": 19.3295455,
                "pitch": 50,
                "velocity": 80,
                "duration": 0.2,
                "tempo": 120.0
            },
            {
                "start_time": 19.3295455,
                "end_time": 19.4295455,
                "pitch": 38,
                "velocity": 80,
                "duration": 0.1,
                "tempo": 120.0
            },
            {
                "start_time": 19.4295455,
                "end_time": 19.5295455,
                "pitch": 38,
                "velocity": 80,
                "duration": 0.1,
                "tempo": 120.0
            },
            {
                "start_time": 19.5295455,
                "end_time": 19.6295455,
                "pitch": 38,
                "velocity": 80,
                "duration": 0.1,
                "tempo": 120.0
            },
            {
                "start_time": 19.6295455,
                "end_time": 19.7318182,
                "pitch": 38,
                "velocity": 80,
                "duration": 0.1022727,
                "tempo": 120.0
            },
            {
                "start_time": 19.7318182,
                "end_time": 19.9318182,
                "pitch": 50,
                "velocity": 80,
                "duration": 0.2,
                "tempo": 120.0
            },
            {
                "start_time": 19.9318182,
                "end_time": 20.0318182,
                "pitch": 38,
                "velocity": 80,
                "duration": 0.1,
                "tempo": 120.0
            },
            {
                "start_time": 20.0340909,
                "end_time": 20.1340909,
                "pitch": 38,
                "velocity": 80,
                "duration": 0.1,
                "tempo": 120.0
            },
            {
                "start_time": 20.1340909,
                "end_time": 20.3386364,
                "pitch": 38,
                "velocity": 80,
                "duration": 0.2045455,
                "tempo": 120.0
            },
            {
                "start_time": 20.3386364,
                "end_time": 20.5454545,
                "pitch": 50,
                "velocity": 80,
                "duration": 0.2068182,
                "tempo": 120.0
            },
            {
                "start_time": 20.5454545,
                "end_time": 20.6454545,
                "pitch": 38,
                "velocity": 80,
                "duration": 0.1,
                "tempo": 120.0
            },
            {
                "start_time": 20.6454545,
                "end_time": 20.7454545,
                "pitch": 38,
                "velocity": 80,
                "duration": 0.1,
                "tempo": 120.0
            },
            {
                "start_time": 20.7454545,
                "end_time": 20.9454545,
                "pitch": 50,
                "velocity": 80,
                "duration": 0.2,
                "tempo": 120.0
            },
            {
                "start_time": 20.9454545,
                "end_time": 21.0454545,
                "pitch": 38,
                "velocity": 80,
                "duration": 0.1,
                "tempo": 120.0
            },
            {
                "start_time": 21.0477273,
                "end_time": 21.1477273,
                "pitch": 38,
                "velocity": 80,
                "duration": 0.1,
                "tempo": 120.0
            },
            {
                "start_time": 21.1477273,
                "end_time": 21.2477273,
                "pitch": 38,
                "velocity": 80,
                "duration": 0.1,
                "tempo": 120.0
            },
            {
                "start_time": 21.2477273,
                "end_time": 21.35,
                "pitch": 38,
                "velocity": 80,
                "duration": 0.1022727,
                "tempo": 120.0
            },
            {
                "start_time": 21.35,
                "end_time": 21.55,
                "pitch": 50,
                "velocity": 80,
                "duration": 0.2,
                "tempo": 120.0
            },
            {
                "start_time": 21.55,
                "end_time": 21.65,
                "pitch": 38,
                "velocity": 80,
                "duration": 0.1,
                "tempo": 120.0
            },
            {
                "start_time": 21.65,
                "end_time": 21.75,
                "pitch": 38,
                "velocity": 80,
                "duration": 0.1,
                "tempo": 120.0
            },
            {
                "start_time": 21.75,
                "end_time": 21.95,
                "pitch": 38,
                "velocity": 80,
                "duration": 0.2,
                "tempo": 120.0
            },
            {
                "start_time": 21.95,
                "end_time": 22.15,
                "pitch": 50,
                "velocity": 80,
                "duration": 0.2,
                "tempo": 120.0
            },
            {
                "start_time": 22.15,
                "end_time": 22.25,
                "pitch": 38,
                "velocity": 80,
                "duration": 0.1,
                "tempo": 120.0
            },
            {
                "start_time": 22.25,
                "end_time": 22.3522727,
                "pitch": 38,
                "velocity": 80,
                "duration": 0.1022727,
                "tempo": 120.0
            },
            {
                "start_time": 22.3522727,
                "end_time": 22.5545455,
                "pitch": 50,
                "velocity": 80,
                "duration": 0.2022727,
                "tempo": 120.0
            },
            {
                "start_time": 22.5545455,
                "end_time": 22.6545455,
                "pitch": 38,
                "velocity": 80,
                "duration": 0.1,
                "tempo": 120.0
            },
            {
                "start_time": 22.6545455,
                "end_time": 22.7545455,
                "pitch": 38,
                "velocity": 80,
                "duration": 0.1,
                "tempo": 120.0
            },
            {
                "start_time": 22.7545455,
                "end_time": 22.8545455,
                "pitch": 38,
                "velocity": 80,
                "duration": 0.1,
                "tempo": 120.0
            },
            {
                "start_time": 22.8545455,
                "end_time": 22.9545455,
                "pitch": 38,
                "velocity": 80,
                "duration": 0.1,
                "tempo": 120.0
            },
            {
                "start_time": 22.9545455,
                "end_time": 23.1545455,
                "pitch": 50,
                "velocity": 80,
                "duration": 0.2,
                "tempo": 120.0
            },
            {
                "start_time": 23.1545455,
                "end_time": 23.2568182,
                "pitch": 38,
                "velocity": 80,
                "duration": 0.1022727,
                "tempo": 120.0
            },
            {
                "start_time": 23.2568182,
                "end_time": 23.3568182,
                "pitch": 38,
                "velocity": 80,
                "duration": 0.1,
                "tempo": 120.0
            },
            {
                "start_time": 23.3568182,
                "end_time": 23.5568182,
                "pitch": 38,
                "velocity": 80,
                "duration": 0.2,
                "tempo": 120.0
            },
            {
                "start_time": 23.5568182,
                "end_time": 23.7568182,
                "pitch": 50,
                "velocity": 80,
                "duration": 0.2,
                "tempo": 120.0
            },
            {
                "start_time": 23.7568182,
                "end_time": 23.8568182,
                "pitch": 38,
                "velocity": 80,
                "duration": 0.1,
                "tempo": 120.0
            },
            {
                "start_time": 23.8590909,
                "end_time": 23.9590909,
                "pitch": 38,
                "velocity": 80,
                "duration": 0.1,
                "tempo": 120.0
            },
            {
                "start_time": 23.9590909,
                "end_time": 24.1590909,
                "pitch": 50,
                "velocity": 80,
                "duration": 0.2,
                "tempo": 120.0
            },
            {
                "start_time": 24.1590909,
                "end_time": 24.2590909,
                "pitch": 38,
                "velocity": 80,
                "duration": 0.1,
                "tempo": 120.0
            },
            {
                "start_time": 24.2590909,
                "end_time": 24.3590909,
                "pitch": 38,
                "velocity": 80,
                "duration": 0.1,
                "tempo": 120.0
            },
            {
                "start_time": 24.3590909,
                "end_time": 24.4613636,
                "pitch": 38,
                "velocity": 80,
                "duration": 0.1022727,
                "tempo": 120.0
            },
            {
                "start_time": 24.4613636,
                "end_time": 24.5613636,
                "pitch": 38,
                "velocity": 80,
                "duration": 0.1,
                "tempo": 120.0
            },
            {
                "start_time": 24.5613636,
                "end_time": 24.7613636,
                "pitch": 50,
                "velocity": 80,
                "duration": 0.2,
                "tempo": 120.0
            },
            {
                "start_time": 24.7613636,
                "end_time": 24.8613636,
                "pitch": 38,
                "velocity": 80,
                "duration": 0.1,
                "tempo": 120.0
            },
            {
                "start_time": 24.8613636,
                "end_time": 24.9613636,
                "pitch": 38,
                "velocity": 80,
                "duration": 0.1,
                "tempo": 120.0
            },
            {
                "start_time": 24.9613636,
                "end_time": 25.1636364,
                "pitch": 38,
                "velocity": 80,
                "duration": 0.2022727,
                "tempo": 120.0
            },
            {
                "start_time": 25.1636364,
                "end_time": 25.3659091,
                "pitch": 50,
                "velocity": 80,
                "duration": 0.2022727,
                "tempo": 120.0
            },
            {
                "start_time": 25.3659091,
                "end_time": 25.4659091,
                "pitch": 38,
                "velocity": 80,
                "duration": 0.1,
                "tempo": 120.0
            },
            {
                "start_time": 25.4659091,
                "end_time": 25.5659091,
                "pitch": 38,
                "velocity": 80,
                "duration": 0.1,
                "tempo": 120.0
            },
            {
                "start_time": 25.5659091,
                "end_time": 25.7659091,
                "pitch": 50,
                "velocity": 80,
                "duration": 0.2,
                "tempo": 120.0
            },
            {
                "start_time": 25.7659091,
                "end_time": 25.8659091,
                "pitch": 38,
                "velocity": 80,
                "duration": 0.1,
                "tempo": 120.0
            },
            {
                "start_time": 25.8659091,
                "end_time": 25.9659091,
                "pitch": 38,
                "velocity": 80,
                "duration": 0.1,
                "tempo": 120.0
            },
            {
                "start_time": 25.9659091,
                "end_time": 26.0659091,
                "pitch": 38,
                "velocity": 80,
                "duration": 0.1,
                "tempo": 120.0
            },
            {
                "start_time": 26.0659091,
                "end_time": 26.1659091,
                "pitch": 38,
                "velocity": 80,
                "duration": 0.1,
                "tempo": 120.0
            },
            {
                "start_time": 26.1659091,
                "end_time": 26.3727273,
                "pitch": 50,
                "velocity": 80,
                "duration": 0.2068182,
                "tempo": 120.0
            },
            {
                "start_time": 26.3727273,
                "end_time": 26.475,
                "pitch": 38,
                "velocity": 80,
                "duration": 0.1022727,
                "tempo": 120.0
            },
            {
                "start_time": 26.475,
                "end_time": 26.5772727,
                "pitch": 38,
                "velocity": 80,
                "duration": 0.1022727,
                "tempo": 120.0
            },
            {
                "start_time": 26.5772727,
                "end_time": 26.7795455,
                "pitch": 38,
                "velocity": 80,
                "duration": 0.2022727,
                "tempo": 120.0
            },
            {
                "start_time": 26.7795455,
                "end_time": 26.9818182,
                "pitch": 50,
                "velocity": 80,
                "duration": 0.2022727,
                "tempo": 120.0
            },
            {
                "start_time": 26.9818182,
                "end_time": 27.0795455,
                "pitch": 38,
                "velocity": 80,
                "duration": 0.0977273,
                "tempo": 120.0
            },
            {
                "start_time": 27.0795455,
                "end_time": 27.1772727,
                "pitch": 38,
                "velocity": 80,
                "duration": 0.0977273,
                "tempo": 120.0
            },
            {
                "start_time": 27.1772727,
                "end_time": 27.375,
                "pitch": 50,
                "velocity": 80,
                "duration": 0.1977273,
                "tempo": 120.0
            },
            {
                "start_time": 27.375,
                "end_time": 27.4727273,
                "pitch": 38,
                "velocity": 80,
                "duration": 0.0977273,
                "tempo": 120.0
            },
            {
                "start_time": 27.4727273,
                "end_time": 27.575,
                "pitch": 38,
                "velocity": 80,
                "duration": 0.1022727,
                "tempo": 120.0
            },
            {
                "start_time": 27.575,
                "end_time": 27.675,
                "pitch": 38,
                "velocity": 80,
                "duration": 0.1,
                "tempo": 120.0
            },
            {
                "start_time": 27.675,
                "end_time": 27.775,
                "pitch": 38,
                "velocity": 80,
                "duration": 0.1,
                "tempo": 120.0
            },
            {
                "start_time": 27.775,
                "end_time": 27.9795455,
                "pitch": 50,
                "velocity": 80,
                "duration": 0.2045455,
                "tempo": 120.0
            },
            {
                "start_time": 27.9795455,
                "end_time": 28.0818182,
                "pitch": 38,
                "velocity": 80,
                "duration": 0.1022727,
                "tempo": 120.0
            },
            {
                "start_time": 28.0818182,
                "end_time": 28.1863636,
                "pitch": 38,
                "velocity": 80,
                "duration": 0.1045455,
                "tempo": 120.0
            },
            {
                "start_time": 28.1863636,
                "end_time": 28.3863636,
                "pitch": 38,
                "velocity": 80,
                "duration": 0.2,
                "tempo": 120.0
            },
            {
                "start_time": 28.3863636,
                "end_time": 28.5863636,
                "pitch": 50,
                "velocity": 80,
                "duration": 0.2,
                "tempo": 120.0
            },
            {
                "start_time": 28.5863636,
                "end_time": 28.6863636,
                "pitch": 38,
                "velocity": 80,
                "duration": 0.1,
                "tempo": 120.0
            },
            {
                "start_time": 28.6863636,
                "end_time": 28.7886364,
                "pitch": 38,
                "velocity": 80,
                "duration": 0.1022727,
                "tempo": 120.0
            },
            {
                "start_time": 28.7886364,
                "end_time": 28.9886364,
                "pitch": 50,
                "velocity": 80,
                "duration": 0.2,
                "tempo": 120.0
            },
            {
                "start_time": 28.9886364,
                "end_time": 29.0886364,
                "pitch": 38,
                "velocity": 80,
                "duration": 0.1,
                "tempo": 120.0
            },
            {
                "start_time": 29.0886364,
                "end_time": 29.1886364,
                "pitch": 38,
                "velocity": 80,
                "duration": 0.1,
                "tempo": 120.0
            },
            {
                "start_time": 29.1909091,
                "end_time": 29.2909091,
                "pitch": 38,
                "velocity": 80,
                "duration": 0.1,
                "tempo": 120.0
            },
            {
                "start_time": 29.2909091,
                "end_time": 29.3909091,
                "pitch": 38,
                "velocity": 80,
                "duration": 0.1,
                "tempo": 120.0
            },
            {
                "start_time": 29.3909091,
                "end_time": 29.5909091,
                "pitch": 50,
                "velocity": 80,
                "duration": 0.2,
                "tempo": 120.0
            },
            {
                "start_time": 29.5909091,
                "end_time": 29.6931818,
                "pitch": 38,
                "velocity": 80,
                "duration": 0.1022727,
                "tempo": 120.0
            },
            {
                "start_time": 29.6931818,
                "end_time": 29.7931818,
                "pitch": 38,
                "velocity": 80,
                "duration": 0.1,
                "tempo": 120.0
            },
            {
                "start_time": 29.7931818,
                "end_time": 29.9931818,
                "pitch": 38,
                "velocity": 80,
                "duration": 0.2,
                "tempo": 120.0
            },
            {
                "start_time": 29.9931818,
                "end_time": 30.1931818,
                "pitch": 50,
                "velocity": 80,
                "duration": 0.2,
                "tempo": 120.0
            },
            {
                "start_time": 30.1931818,
                "end_time": 30.2931818,
                "pitch": 38,
                "velocity": 80,
                "duration": 0.1,
                "tempo": 120.0
            },
            {
                "start_time": 30.2931818,
                "end_time": 30.3931818,
                "pitch": 38,
                "velocity": 80,
                "duration": 0.1,
                "tempo": 120.0
            },
            {
                "start_time": 30.3931818,
                "end_time": 30.5954545,
                "pitch": 50,
                "velocity": 80,
                "duration": 0.2022727,
                "tempo": 120.0
            },
            {
                "start_time": 30.5954545,
                "end_time": 30.6954545,
                "pitch": 38,
                "velocity": 80,
                "duration": 0.1,
                "tempo": 120.0
            },
            {
                "start_time": 30.6954545,
                "end_time": 30.7954545,
                "pitch": 38,
                "velocity": 80,
                "duration": 0.1,
                "tempo": 120.0
            },
            {
                "start_time": 30.7954545,
                "end_time": 30.8977273,
                "pitch": 38,
                "velocity": 80,
                "duration": 0.1022727,
                "tempo": 120.0
            },
            {
                "start_time": 30.8977273,
                "end_time": 30.9977273,
                "pitch": 38,
                "velocity": 80,
                "duration": 0.1,
                "tempo": 120.0
            },
            {
                "start_time": 30.9977273,
                "end_time": 31.1977273,
                "pitch": 50,
                "velocity": 80,
                "duration": 0.2,
                "tempo": 120.0
            },
            {
                "start_time": 31.1977273,
                "end_time": 31.2977273,
                "pitch": 38,
                "velocity": 80,
                "duration": 0.1,
                "tempo": 120.0
            },
            {
                "start_time": 31.2977273,
                "end_time": 31.3977273,
                "pitch": 38,
                "velocity": 80,
                "duration": 0.1,
                "tempo": 120.0
            },
            {
                "start_time": 31.3977273,
                "end_time": 31.6,
                "pitch": 38,
                "velocity": 80,
                "duration": 0.2022727,
                "tempo": 120.0
            },
            {
                "start_time": 31.6,
                "end_time": 31.8022727,
                "pitch": 50,
                "velocity": 80,
                "duration": 0.2022727,
                "tempo": 120.0
            },
            {
                "start_time": 31.8022727,
                "end_time": 31.9022727,
                "pitch": 38,
                "velocity": 80,
                "duration": 0.1,
                "tempo": 120.0
            },
            {
                "start_time": 31.9022727,
                "end_time": 32.0022727,
                "pitch": 38,
                "velocity": 80,
                "duration": 0.1,
                "tempo": 120.0
            },
            {
                "start_time": 32.0022727,
                "end_time": 32.2022727,
                "pitch": 50,
                "velocity": 80,
                "duration": 0.2,
                "tempo": 120.0
            },
            {
                "start_time": 32.2022727,
                "end_time": 32.3022727,
                "pitch": 38,
                "velocity": 80,
                "duration": 0.1,
                "tempo": 120.0
            },
            {
                "start_time": 32.3022727,
                "end_time": 32.4045455,
                "pitch": 38,
                "velocity": 80,
                "duration": 0.1022727,
                "tempo": 120.0
            },
            {
                "start_time": 32.4045455,
                "end_time": 32.5045455,
                "pitch": 38,
                "velocity": 80,
                "duration": 0.1,
                "tempo": 120.0
            },
            {
                "start_time": 32.5045455,
                "end_time": 32.6045455,
                "pitch": 38,
                "velocity": 80,
                "duration": 0.1,
                "tempo": 120.0
            },
            {
                "start_time": 32.6045455,
                "end_time": 32.8045455,
                "pitch": 50,
                "velocity": 80,
                "duration": 0.2,
                "tempo": 120.0
            },
            {
                "start_time": 32.8045455,
                "end_time": 32.9045455,
                "pitch": 38,
                "velocity": 80,
                "duration": 0.1,
                "tempo": 120.0
            },
            {
                "start_time": 32.9045455,
                "end_time": 33.0045455,
                "pitch": 38,
                "velocity": 80,
                "duration": 0.1,
                "tempo": 120.0
            },
            {
                "start_time": 33.0045455,
                "end_time": 33.2113636,
                "pitch": 38,
                "velocity": 80,
                "duration": 0.2068182,
                "tempo": 120.0
            },
            {
                "start_time": 33.2113636,
                "end_time": 33.4159091,
                "pitch": 50,
                "velocity": 80,
                "duration": 0.2045455,
                "tempo": 120.0
            },
            {
                "start_time": 33.4159091,
                "end_time": 33.5159091,
                "pitch": 38,
                "velocity": 80,
                "duration": 0.1,
                "tempo": 120.0
            },
            {
                "start_time": 33.5159091,
                "end_time": 33.6136364,
                "pitch": 38,
                "velocity": 80,
                "duration": 0.0977273,
                "tempo": 120.0
            },
            {
                "start_time": 33.6136364,
                "end_time": 33.8090909,
                "pitch": 50,
                "velocity": 80,
                "duration": 0.1954545,
                "tempo": 120.0
            },
            {
                "start_time": 33.8090909,
                "end_time": 33.9090909,
                "pitch": 38,
                "velocity": 80,
                "duration": 0.1,
                "tempo": 120.0
            },
            {
                "start_time": 33.9090909,
                "end_time": 34.0090909,
                "pitch": 38,
                "velocity": 80,
                "duration": 0.1,
                "tempo": 120.0
            },
            {
                "start_time": 34.0090909,
                "end_time": 34.1090909,
                "pitch": 38,
                "velocity": 80,
                "duration": 0.1,
                "tempo": 120.0
            },
            {
                "start_time": 34.1090909,
                "end_time": 34.2113636,
                "pitch": 38,
                "velocity": 80,
                "duration": 0.1022727,
                "tempo": 120.0
            },
            {
                "start_time": 34.2113636,
                "end_time": 34.4159091,
                "pitch": 50,
                "velocity": 80,
                "duration": 0.2045455,
                "tempo": 120.0
            },
            {
                "start_time": 34.4159091,
                "end_time": 34.5181818,
                "pitch": 38,
                "velocity": 80,
                "duration": 0.1022727,
                "tempo": 120.0
            },
            {
                "start_time": 34.5181818,
                "end_time": 34.6204545,
                "pitch": 38,
                "velocity": 80,
                "duration": 0.1022727,
                "tempo": 120.0
            },
            {
                "start_time": 34.6204545,
                "end_time": 34.8227273,
                "pitch": 38,
                "velocity": 80,
                "duration": 0.2022727,
                "tempo": 120.0
            },
            {
                "start_time": 34.8227273,
                "end_time": 35.0227273,
                "pitch": 50,
                "velocity": 80,
                "duration": 0.2,
                "tempo": 120.0
            },
            {
                "start_time": 35.0227273,
                "end_time": 35.1204545,
                "pitch": 38,
                "velocity": 80,
                "duration": 0.0977273,
                "tempo": 120.0
            },
            {
                "start_time": 35.1204545,
                "end_time": 35.2181818,
                "pitch": 38,
                "velocity": 80,
                "duration": 0.0977273,
                "tempo": 120.0
            },
            {
                "start_time": 35.2181818,
                "end_time": 35.4159091,
                "pitch": 50,
                "velocity": 80,
                "duration": 0.1977273,
                "tempo": 120.0
            },
            {
                "start_time": 35.4159091,
                "end_time": 35.5159091,
                "pitch": 38,
                "velocity": 80,
                "duration": 0.1,
                "tempo": 120.0
            },
            {
                "start_time": 35.5159091,
                "end_time": 35.6159091,
                "pitch": 38,
                "velocity": 80,
                "duration": 0.1,
                "tempo": 120.0
            },
            {
                "start_time": 35.6159091,
                "end_time": 35.7159091,
                "pitch": 38,
                "velocity": 80,
                "duration": 0.1,
                "tempo": 120.0
            },
            {
                "start_time": 35.7159091,
                "end_time": 35.8159091,
                "pitch": 38,
                "velocity": 80,
                "duration": 0.1,
                "tempo": 120.0
            },
            {
                "start_time": 35.8159091,
                "end_time": 36.0204545,
                "pitch": 50,
                "velocity": 80,
                "duration": 0.2045455,
                "tempo": 120.0
            },
            {
                "start_time": 36.0204545,
                "end_time": 36.125,
                "pitch": 38,
                "velocity": 80,
                "duration": 0.1045455,
                "tempo": 120.0
            },
            {
                "start_time": 36.125,
                "end_time": 36.2272727,
                "pitch": 38,
                "velocity": 80,
                "duration": 0.1022727,
                "tempo": 120.0
            },
            {
                "start_time": 36.2272727,
                "end_time": 36.4272727,
                "pitch": 38,
                "velocity": 80,
                "duration": 0.2,
                "tempo": 120.0
            },
            {
                "start_time": 36.4272727,
                "end_time": 36.6272727,
                "pitch": 50,
                "velocity": 80,
                "duration": 0.2,
                "tempo": 120.0
            },
            {
                "start_time": 36.6272727,
                "end_time": 36.7272727,
                "pitch": 38,
                "velocity": 80,
                "duration": 0.1,
                "tempo": 120.0
            },
            {
                "start_time": 36.7272727,
                "end_time": 36.8272727,
                "pitch": 38,
                "velocity": 80,
                "duration": 0.1,
                "tempo": 120.0
            },
            {
                "start_time": 36.8272727,
                "end_time": 37.0272727,
                "pitch": 50,
                "velocity": 80,
                "duration": 0.2,
                "tempo": 120.0
            },
            {
                "start_time": 37.0272727,
                "end_time": 37.1272727,
                "pitch": 38,
                "velocity": 80,
                "duration": 0.1,
                "tempo": 120.0
            },
            {
                "start_time": 37.1272727,
                "end_time": 37.2272727,
                "pitch": 38,
                "velocity": 80,
                "duration": 0.1,
                "tempo": 120.0
            },
            {
                "start_time": 37.2295455,
                "end_time": 37.3295455,
                "pitch": 38,
                "velocity": 80,
                "duration": 0.1,
                "tempo": 120.0
            },
            {
                "start_time": 37.3295455,
                "end_time": 37.4295455,
                "pitch": 38,
                "velocity": 80,
                "duration": 0.1,
                "tempo": 120.0
            },
            {
                "start_time": 37.4295455,
                "end_time": 37.6295455,
                "pitch": 50,
                "velocity": 80,
                "duration": 0.2,
                "tempo": 120.0
            },
            {
                "start_time": 37.6295455,
                "end_time": 37.7318182,
                "pitch": 38,
                "velocity": 80,
                "duration": 0.1022727,
                "tempo": 120.0
            },
            {
                "start_time": 37.7318182,
                "end_time": 37.8318182,
                "pitch": 38,
                "velocity": 80,
                "duration": 0.1,
                "tempo": 120.0
            },
            {
                "start_time": 37.8318182,
                "end_time": 38.0318182,
                "pitch": 38,
                "velocity": 80,
                "duration": 0.2,
                "tempo": 120.0
            },
            {
                "start_time": 38.0318182,
                "end_time": 38.2318182,
                "pitch": 50,
                "velocity": 80,
                "duration": 0.2,
                "tempo": 120.0
            },
            {
                "start_time": 38.2318182,
                "end_time": 38.3318182,
                "pitch": 38,
                "velocity": 80,
                "duration": 0.1,
                "tempo": 120.0
            },
            {
                "start_time": 38.3318182,
                "end_time": 38.4318182,
                "pitch": 38,
                "velocity": 80,
                "duration": 0.1,
                "tempo": 120.0
            },
            {
                "start_time": 38.4318182,
                "end_time": 38.6340909,
                "pitch": 50,
                "velocity": 80,
                "duration": 0.2022727,
                "tempo": 120.0
            },
            {
                "start_time": 38.6340909,
                "end_time": 38.7340909,
                "pitch": 36,
                "velocity": 80,
                "duration": 0.1,
                "tempo": 120.0
            },
            {
                "start_time": 38.7340909,
                "end_time": 38.8340909,
                "pitch": 36,
                "velocity": 80,
                "duration": 0.1,
                "tempo": 120.0
            },
            {
                "start_time": 38.8340909,
                "end_time": 38.9340909,
                "pitch": 36,
                "velocity": 80,
                "duration": 0.1,
                "tempo": 120.0
            },
            {
                "start_time": 38.9340909,
                "end_time": 39.0340909,
                "pitch": 36,
                "velocity": 80,
                "duration": 0.1,
                "tempo": 120.0
            },
            {
                "start_time": 38.6340909,
                "end_time": 39.2340909,
                "pitch": 48,
                "velocity": 80,
                "duration": 0.6,
                "tempo": 120.0
            },
            {
                "start_time": 39.0340909,
                "end_time": 39.2340909,
                "pitch": 48,
                "velocity": 80,
                "duration": 0.2,
                "tempo": 120.0
            },
            {
                "start_time": 39.2340909,
                "end_time": 39.3340909,
                "pitch": 36,
                "velocity": 80,
                "duration": 0.1,
                "tempo": 120.0
            },
            {
                "start_time": 39.3340909,
                "end_time": 39.4340909,
                "pitch": 36,
                "velocity": 80,
                "duration": 0.1,
                "tempo": 120.0
            },
            {
                "start_time": 39.4340909,
                "end_time": 39.6363636,
                "pitch": 36,
                "velocity": 80,
                "duration": 0.2022727,
                "tempo": 120.0
            },
            {
                "start_time": 39.6363636,
                "end_time": 39.8363636,
                "pitch": 48,
                "velocity": 80,
                "duration": 0.2,
                "tempo": 120.0
            },
            {
                "start_time": 39.8363636,
                "end_time": 39.9363636,
                "pitch": 36,
                "velocity": 80,
                "duration": 0.1,
                "tempo": 120.0
            },
            {
                "start_time": 39.9363636,
                "end_time": 40.0363636,
                "pitch": 36,
                "velocity": 80,
                "duration": 0.1,
                "tempo": 120.0
            },
            {
                "start_time": 40.0363636,
                "end_time": 40.2386364,
                "pitch": 48,
                "velocity": 80,
                "duration": 0.2022727,
                "tempo": 120.0
            },
            {
                "start_time": 40.2386364,
                "end_time": 40.3386364,
                "pitch": 36,
                "velocity": 80,
                "duration": 0.1,
                "tempo": 120.0
            },
            {
                "start_time": 40.3386364,
                "end_time": 40.4386364,
                "pitch": 36,
                "velocity": 80,
                "duration": 0.1,
                "tempo": 120.0
            },
            {
                "start_time": 40.4386364,
                "end_time": 40.5386364,
                "pitch": 36,
                "velocity": 80,
                "duration": 0.1,
                "tempo": 120.0
            },
            {
                "start_time": 40.5386364,
                "end_time": 40.6386364,
                "pitch": 36,
                "velocity": 80,
                "duration": 0.1,
                "tempo": 120.0
            },
            {
                "start_time": 40.6386364,
                "end_time": 40.8386364,
                "pitch": 48,
                "velocity": 80,
                "duration": 0.2,
                "tempo": 120.0
            },
            {
                "start_time": 40.8386364,
                "end_time": 40.9386364,
                "pitch": 36,
                "velocity": 80,
                "duration": 0.1,
                "tempo": 120.0
            },
            {
                "start_time": 40.9386364,
                "end_time": 41.0386364,
                "pitch": 36,
                "velocity": 80,
                "duration": 0.1,
                "tempo": 120.0
            },
            {
                "start_time": 41.0386364,
                "end_time": 41.2386364,
                "pitch": 36,
                "velocity": 80,
                "duration": 0.2,
                "tempo": 120.0
            },
            {
                "start_time": 41.2386364,
                "end_time": 41.4386364,
                "pitch": 48,
                "velocity": 80,
                "duration": 0.2,
                "tempo": 120.0
            },
            {
                "start_time": 41.4386364,
                "end_time": 41.5409091,
                "pitch": 36,
                "velocity": 80,
                "duration": 0.1022727,
                "tempo": 120.0
            },
            {
                "start_time": 41.5409091,
                "end_time": 41.6409091,
                "pitch": 36,
                "velocity": 80,
                "duration": 0.1,
                "tempo": 120.0
            },
            {
                "start_time": 41.6409091,
                "end_time": 41.8431818,
                "pitch": 48,
                "velocity": 80,
                "duration": 0.2022727,
                "tempo": 120.0
            },
            {
                "start_time": 41.8431818,
                "end_time": 41.9431818,
                "pitch": 36,
                "velocity": 80,
                "duration": 0.1,
                "tempo": 120.0
            },
            {
                "start_time": 41.9431818,
                "end_time": 42.0431818,
                "pitch": 36,
                "velocity": 80,
                "duration": 0.1,
                "tempo": 120.0
            },
            {
                "start_time": 42.0431818,
                "end_time": 42.1431818,
                "pitch": 36,
                "velocity": 80,
                "duration": 0.1,
                "tempo": 120.0
            },
            {
                "start_time": 42.1431818,
                "end_time": 42.2431818,
                "pitch": 36,
                "velocity": 80,
                "duration": 0.1,
                "tempo": 120.0
            },
            {
                "start_time": 42.2431818,
                "end_time": 42.45,
                "pitch": 48,
                "velocity": 80,
                "duration": 0.2068182,
                "tempo": 120.0
            },
            {
                "start_time": 42.45,
                "end_time": 42.5522727,
                "pitch": 36,
                "velocity": 80,
                "duration": 0.1022727,
                "tempo": 120.0
            },
            {
                "start_time": 42.5522727,
                "end_time": 42.6545455,
                "pitch": 36,
                "velocity": 80,
                "duration": 0.1022727,
                "tempo": 120.0
            },
            {
                "start_time": 42.6545455,
                "end_time": 42.8545455,
                "pitch": 36,
                "velocity": 80,
                "duration": 0.2,
                "tempo": 120.0
            },
            {
                "start_time": 42.8545455,
                "end_time": 43.0545455,
                "pitch": 48,
                "velocity": 80,
                "duration": 0.2,
                "tempo": 120.0
            },
            {
                "start_time": 43.0545455,
                "end_time": 43.1568182,
                "pitch": 36,
                "velocity": 80,
                "duration": 0.1022727,
                "tempo": 120.0
            },
            {
                "start_time": 43.1568182,
                "end_time": 43.2568182,
                "pitch": 36,
                "velocity": 80,
                "duration": 0.1,
                "tempo": 120.0
            },
            {
                "start_time": 43.2568182,
                "end_time": 43.4590909,
                "pitch": 48,
                "velocity": 80,
                "duration": 0.2022727,
                "tempo": 120.0
            },
            {
                "start_time": 43.4590909,
                "end_time": 43.5590909,
                "pitch": 36,
                "velocity": 80,
                "duration": 0.1,
                "tempo": 120.0
            },
            {
                "start_time": 43.5590909,
                "end_time": 43.6590909,
                "pitch": 36,
                "velocity": 80,
                "duration": 0.1,
                "tempo": 120.0
            },
            {
                "start_time": 43.6590909,
                "end_time": 43.7590909,
                "pitch": 36,
                "velocity": 80,
                "duration": 0.1,
                "tempo": 120.0
            },
            {
                "start_time": 43.7590909,
                "end_time": 43.8590909,
                "pitch": 36,
                "velocity": 80,
                "duration": 0.1,
                "tempo": 120.0
            },
            {
                "start_time": 43.8590909,
                "end_time": 44.0590909,
                "pitch": 48,
                "velocity": 80,
                "duration": 0.2,
                "tempo": 120.0
            },
            {
                "start_time": 44.0590909,
                "end_time": 44.1590909,
                "pitch": 36,
                "velocity": 80,
                "duration": 0.1,
                "tempo": 120.0
            },
            {
                "start_time": 44.1590909,
                "end_time": 44.2590909,
                "pitch": 36,
                "velocity": 80,
                "duration": 0.1,
                "tempo": 120.0
            },
            {
                "start_time": 44.2590909,
                "end_time": 44.4590909,
                "pitch": 36,
                "velocity": 80,
                "duration": 0.2,
                "tempo": 120.0
            },
            {
                "start_time": 44.4590909,
                "end_time": 44.6613636,
                "pitch": 48,
                "velocity": 80,
                "duration": 0.2022727,
                "tempo": 120.0
            },
            {
                "start_time": 44.6613636,
                "end_time": 44.7590909,
                "pitch": 36,
                "velocity": 80,
                "duration": 0.0977273,
                "tempo": 120.0
            },
            {
                "start_time": 44.7590909,
                "end_time": 44.8613636,
                "pitch": 36,
                "velocity": 80,
                "duration": 0.1022727,
                "tempo": 120.0
            },
            {
                "start_time": 44.8613636,
                "end_time": 45.0613636,
                "pitch": 48,
                "velocity": 80,
                "duration": 0.2,
                "tempo": 120.0
            },
            {
                "start_time": 45.0613636,
                "end_time": 45.1613636,
                "pitch": 38,
                "velocity": 80,
                "duration": 0.1,
                "tempo": 120.0
            },
            {
                "start_time": 45.1613636,
                "end_time": 45.2613636,
                "pitch": 38,
                "velocity": 80,
                "duration": 0.1,
                "tempo": 120.0
            },
            {
                "start_time": 45.2613636,
                "end_time": 45.3636364,
                "pitch": 38,
                "velocity": 80,
                "duration": 0.1022727,
                "tempo": 120.0
            },
            {
                "start_time": 45.3636364,
                "end_time": 45.4636364,
                "pitch": 38,
                "velocity": 80,
                "duration": 0.1,
                "tempo": 120.0
            },
            {
                "start_time": 45.0613636,
                "end_time": 45.6636364,
                "pitch": 50,
                "velocity": 80,
                "duration": 0.6022727,
                "tempo": 120.0
            },
            {
                "start_time": 45.4636364,
                "end_time": 45.6636364,
                "pitch": 50,
                "velocity": 80,
                "duration": 0.2,
                "tempo": 120.0
            },
            {
                "start_time": 45.6636364,
                "end_time": 45.7636364,
                "pitch": 38,
                "velocity": 80,
                "duration": 0.1,
                "tempo": 120.0
            },
            {
                "start_time": 45.7636364,
                "end_time": 45.8636364,
                "pitch": 38,
                "velocity": 80,
                "duration": 0.1,
                "tempo": 120.0
            },
            {
                "start_time": 45.8636364,
                "end_time": 46.0659091,
                "pitch": 38,
                "velocity": 80,
                "duration": 0.2022727,
                "tempo": 120.0
            },
            {
                "start_time": 46.0659091,
                "end_time": 46.2659091,
                "pitch": 50,
                "velocity": 80,
                "duration": 0.2,
                "tempo": 120.0
            },
            {
                "start_time": 46.2659091,
                "end_time": 46.3659091,
                "pitch": 38,
                "velocity": 80,
                "duration": 0.1,
                "tempo": 120.0
            },
            {
                "start_time": 46.3659091,
                "end_time": 46.4659091,
                "pitch": 38,
                "velocity": 80,
                "duration": 0.1,
                "tempo": 120.0
            },
            {
                "start_time": 46.4659091,
                "end_time": 46.6659091,
                "pitch": 50,
                "velocity": 80,
                "duration": 0.2,
                "tempo": 120.0
            },
            {
                "start_time": 46.6659091,
                "end_time": 46.7659091,
                "pitch": 38,
                "velocity": 80,
                "duration": 0.1,
                "tempo": 120.0
            },
            {
                "start_time": 46.7659091,
                "end_time": 46.8659091,
                "pitch": 38,
                "velocity": 80,
                "duration": 0.1,
                "tempo": 120.0
            },
            {
                "start_time": 46.8659091,
                "end_time": 46.9659091,
                "pitch": 38,
                "velocity": 80,
                "duration": 0.1,
                "tempo": 120.0
            },
            {
                "start_time": 46.9659091,
                "end_time": 47.0659091,
                "pitch": 38,
                "velocity": 80,
                "duration": 0.1,
                "tempo": 120.0
            },
            {
                "start_time": 47.0659091,
                "end_time": 47.2681818,
                "pitch": 50,
                "velocity": 80,
                "duration": 0.2022727,
                "tempo": 120.0
            },
            {
                "start_time": 47.2681818,
                "end_time": 47.3681818,
                "pitch": 38,
                "velocity": 80,
                "duration": 0.1,
                "tempo": 120.0
            },
            {
                "start_time": 47.3681818,
                "end_time": 47.4704545,
                "pitch": 38,
                "velocity": 80,
                "duration": 0.1022727,
                "tempo": 120.0
            },
            {
                "start_time": 47.4704545,
                "end_time": 47.6704545,
                "pitch": 38,
                "velocity": 80,
                "duration": 0.2,
                "tempo": 120.0
            },
            {
                "start_time": 47.6704545,
                "end_time": 47.8704545,
                "pitch": 50,
                "velocity": 80,
                "duration": 0.2,
                "tempo": 120.0
            },
            {
                "start_time": 47.8704545,
                "end_time": 47.9727273,
                "pitch": 38,
                "velocity": 80,
                "duration": 0.1022727,
                "tempo": 120.0
            },
            {
                "start_time": 47.9727273,
                "end_time": 48.075,
                "pitch": 38,
                "velocity": 80,
                "duration": 0.1022727,
                "tempo": 120.0
            },
            {
                "start_time": 48.075,
                "end_time": 48.2818182,
                "pitch": 50,
                "velocity": 80,
                "duration": 0.2068182,
                "tempo": 120.0
            },
            {
                "start_time": 48.2818182,
                "end_time": 48.3795455,
                "pitch": 38,
                "velocity": 80,
                "duration": 0.0977273,
                "tempo": 120.0
            },
            {
                "start_time": 48.3795455,
                "end_time": 48.4772727,
                "pitch": 38,
                "velocity": 80,
                "duration": 0.0977273,
                "tempo": 120.0
            },
            {
                "start_time": 48.4772727,
                "end_time": 48.575,
                "pitch": 38,
                "velocity": 80,
                "duration": 0.0977273,
                "tempo": 120.0
            },
            {
                "start_time": 48.575,
                "end_time": 48.6727273,
                "pitch": 38,
                "velocity": 80,
                "duration": 0.0977273,
                "tempo": 120.0
            },
            {
                "start_time": 48.675,
                "end_time": 48.8795455,
                "pitch": 50,
                "velocity": 80,
                "duration": 0.2045455,
                "tempo": 120.0
            },
            {
                "start_time": 48.8795455,
                "end_time": 48.9818182,
                "pitch": 38,
                "velocity": 80,
                "duration": 0.1022727,
                "tempo": 120.0
            },
            {
                "start_time": 48.9818182,
                "end_time": 49.0840909,
                "pitch": 38,
                "velocity": 80,
                "duration": 0.1022727,
                "tempo": 120.0
            },
            {
                "start_time": 49.0840909,
                "end_time": 49.2818182,
                "pitch": 38,
                "velocity": 80,
                "duration": 0.1977273,
                "tempo": 120.0
            },
            {
                "start_time": 49.2818182,
                "end_time": 49.4772727,
                "pitch": 50,
                "velocity": 80,
                "duration": 0.1954545,
                "tempo": 120.0
            },
            {
                "start_time": 49.4772727,
                "end_time": 49.5795455,
                "pitch": 38,
                "velocity": 80,
                "duration": 0.1022727,
                "tempo": 120.0
            },
            {
                "start_time": 49.5795455,
                "end_time": 49.6840909,
                "pitch": 38,
                "velocity": 80,
                "duration": 0.1045455,
                "tempo": 120.0
            },
            {
                "start_time": 49.6840909,
                "end_time": 49.8886364,
                "pitch": 50,
                "velocity": 80,
                "duration": 0.2045455,
                "tempo": 120.0
            },
            {
                "start_time": 49.8886364,
                "end_time": 49.9886364,
                "pitch": 38,
                "velocity": 80,
                "duration": 0.1,
                "tempo": 120.0
            },
            {
                "start_time": 49.9886364,
                "end_time": 50.0886364,
                "pitch": 38,
                "velocity": 80,
                "duration": 0.1,
                "tempo": 120.0
            },
            {
                "start_time": 50.0886364,
                "end_time": 50.1886364,
                "pitch": 38,
                "velocity": 80,
                "duration": 0.1,
                "tempo": 120.0
            },
            {
                "start_time": 50.1886364,
                "end_time": 50.2886364,
                "pitch": 38,
                "velocity": 80,
                "duration": 0.1,
                "tempo": 120.0
            },
            {
                "start_time": 50.2886364,
                "end_time": 50.4909091,
                "pitch": 50,
                "velocity": 80,
                "duration": 0.2022727,
                "tempo": 120.0
            },
            {
                "start_time": 50.4909091,
                "end_time": 50.5909091,
                "pitch": 38,
                "velocity": 80,
                "duration": 0.1,
                "tempo": 120.0
            },
            {
                "start_time": 50.5909091,
                "end_time": 50.6931818,
                "pitch": 38,
                "velocity": 80,
                "duration": 0.1022727,
                "tempo": 120.0
            },
            {
                "start_time": 50.6931818,
                "end_time": 50.8931818,
                "pitch": 38,
                "velocity": 80,
                "duration": 0.2,
                "tempo": 120.0
            },
            {
                "start_time": 50.8931818,
                "end_time": 51.0931818,
                "pitch": 50,
                "velocity": 80,
                "duration": 0.2,
                "tempo": 120.0
            },
            {
                "start_time": 51.0931818,
                "end_time": 51.1931818,
                "pitch": 38,
                "velocity": 80,
                "duration": 0.1,
                "tempo": 120.0
            },
            {
                "start_time": 51.1931818,
                "end_time": 51.2931818,
                "pitch": 38,
                "velocity": 80,
                "duration": 0.1,
                "tempo": 120.0
            },
            {
                "start_time": 51.2931818,
                "end_time": 51.4931818,
                "pitch": 50,
                "velocity": 80,
                "duration": 0.2,
                "tempo": 120.0
            },
            {
                "start_time": 51.4931818,
                "end_time": 51.5931818,
                "pitch": 38,
                "velocity": 80,
                "duration": 0.1,
                "tempo": 120.0
            },
            {
                "start_time": 51.5931818,
                "end_time": 51.6931818,
                "pitch": 38,
                "velocity": 80,
                "duration": 0.1,
                "tempo": 120.0
            },
            {
                "start_time": 51.6931818,
                "end_time": 51.7931818,
                "pitch": 38,
                "velocity": 80,
                "duration": 0.1,
                "tempo": 120.0
            },
            {
                "start_time": 51.7931818,
                "end_time": 51.8931818,
                "pitch": 38,
                "velocity": 80,
                "duration": 0.1,
                "tempo": 120.0
            },
            {
                "start_time": 51.8931818,
                "end_time": 52.0931818,
                "pitch": 50,
                "velocity": 80,
                "duration": 0.2,
                "tempo": 120.0
            },
            {
                "start_time": 52.0954545,
                "end_time": 52.1954545,
                "pitch": 38,
                "velocity": 80,
                "duration": 0.1,
                "tempo": 120.0
            },
            {
                "start_time": 52.1954545,
                "end_time": 52.2954545,
                "pitch": 38,
                "velocity": 80,
                "duration": 0.1,
                "tempo": 120.0
            },
            {
                "start_time": 52.2954545,
                "end_time": 52.4954545,
                "pitch": 38,
                "velocity": 80,
                "duration": 0.2,
                "tempo": 120.0
            },
            {
                "start_time": 52.4954545,
                "end_time": 52.6977273,
                "pitch": 50,
                "velocity": 80,
                "duration": 0.2022727,
                "tempo": 120.0
            },
            {
                "start_time": 52.6977273,
                "end_time": 52.7977273,
                "pitch": 38,
                "velocity": 80,
                "duration": 0.1,
                "tempo": 120.0
            },
            {
                "start_time": 52.7977273,
                "end_time": 52.8977273,
                "pitch": 38,
                "velocity": 80,
                "duration": 0.1,
                "tempo": 120.0
            },
            {
                "start_time": 52.8977273,
                "end_time": 53.0977273,
                "pitch": 50,
                "velocity": 80,
                "duration": 0.2,
                "tempo": 120.0
            },
            {
                "start_time": 53.0977273,
                "end_time": 53.1977273,
                "pitch": 38,
                "velocity": 80,
                "duration": 0.1,
                "tempo": 120.0
            },
            {
                "start_time": 53.1977273,
                "end_time": 53.2977273,
                "pitch": 38,
                "velocity": 80,
                "duration": 0.1,
                "tempo": 120.0
            },
            {
                "start_time": 53.2977273,
                "end_time": 53.3977273,
                "pitch": 38,
                "velocity": 80,
                "duration": 0.1,
                "tempo": 120.0
            },
            {
                "start_time": 53.3977273,
                "end_time": 53.4818182,
                "pitch": 38,
                "velocity": 80,
                "duration": 0.0840909,
                "tempo": 120.0
            }
        ]
    }
}