{
    "mood": "angry",
    "instruments": {
        "Trumpet": [
            {
                "start_time": 0.0159091,
                "end_time": 1.5863636,
                "pitch": 55,
                "velocity": 64,
                "duration": 1.5704545,
                "tempo": 120.0
            },
            {
                "start_time": 1.6022727,
                "end_time": 2.3886364,
                "pitch": 62,
                "velocity": 64,
                "duration": 0.7863636,
                "tempo": 120.0
            },
            {
                "start_time": 2.4045455,
                "end_time": 3.1886364,
                "pitch": 60,
                "velocity": 64,
                "duration": 0.7840909,
                "tempo": 120.0
            },
            {
                "start_time": 3.2045455,
                "end_time": 4.7931818,
                "pitch": 57,
                "velocity": 64,
                "duration": 1.5886364,
                "tempo": 120.0
            },
            {
                "start_time": 5.0113636,
                "end_time": 5.0931818,
                "pitch": 69,
                "velocity": 64,
                "duration": 0.0818182,
                "tempo": 120.0
            },
            {
                "start_time": 5.1113636,
                "end_time": 5.1931818,
                "pitch": 69,
                "velocity": 64,
                "duration": 0.0818182,
                "tempo": 120.0
            },
            {
                "start_time": 5.2113636,
                "end_time": 5.2931818,
                "pitch": 69,
                "velocity": 64,
                "duration": 0.0818182,
                "tempo": 120.0
            },
            {
                "start_time": 5.3113636,
                "end_time": 5.3954545,
                "pitch": 69,
                "velocity": 64,
                "duration": 0.0840909,
                "tempo": 120.0
            },
            {
                "start_time": 5.6136364,
                "end_time": 5.6954545,
                "pitch": 69,
                "velocity": 64,
                "duration": 0.0818182,
                "tempo": 120.0
            },
            {
                "start_time": 5.7136364,
                "end_time": 5.7954545,
                "pitch": 69,
                "velocity": 64,
                "duration": 0.0818182,
                "tempo": 120.0
            },
            {
                "start_time": 5.8136364,
                "end_time": 5.8954545,
                "pitch": 69,
                "velocity": 64,
                "duration": 0.0818182,
                "tempo": 120.0
            },
            {
                "start_time": 5.9136364,
                "end_time": 5.9954545,
                "pitch": 69,
                "velocity": 64,
                "duration": 0.0818182,
                "tempo": 120.0
            },
            {
                "start_time": 6.4159091,
                "end_time": 8.0045455,
                "pitch": 55,
                "velocity": 64,
                "duration": 1.5886364,
                "tempo": 120.0
            },
            {
                "start_time": 8.0204545,
                "end_time": 8.8090909,
                "pitch": 62,
                "velocity": 64,
                "duration": 0.7886364,
                "tempo": 120.0
            },
            {
                "start_time": 8.8272727,
                "end_time": 9.6113636,
                "pitch": 65,
                "velocity": 64,
                "duration": 0.7840909,
                "tempo": 120.0
            },
            {
                "start_time": 9.6295455,
                "end_time": 12.025,
                "pitch": 67,
                "velocity": 64,
                "duration": 2.3954545,
                "tempo": 120.0
            },
            {
                "start_time": 12.0431818,
                "end_time": 12.125,
                "pitch": 55,
                "velocity": 64,
                "duration": 0.0818182,
                "tempo": 120.0
            },
            {
                "start_time": 12.1409091,
                "end_time": 12.2227273,
                "pitch": 57,
                "velocity": 64,
                "duration": 0.0818182,
                "tempo": 120.0
            },
            {
                "start_time": 12.2386364,
                "end_time": 12.3204545,
                "pitch": 58,
                "velocity": 64,
                "duration": 0.0818182,
                "tempo": 120.0
            },
            {
                "start_time": 12.3363636,
                "end_time": 12.4181818,
                "pitch": 60,
                "velocity": 64,
                "duration": 0.0818182,
                "tempo": 120.0
            },
            {
                "start_time": 12.4340909,
                "end_time": 12.5181818,
                "pitch": 58,
                "velocity": 64,
                "duration": 0.0840909,
                "tempo": 120.0
            },
            {
                "start_time": 12.5363636,
                "end_time": 12.6181818,
                "pitch": 57,
                "velocity": 64,
                "duration": 0.0818182,
                "tempo": 120.0
            },
            {
                "start_time": 12.6363636,
                "end_time": 12.7204545,
                "pitch": 55,
                "velocity": 64,
                "duration": 0.0840909,
                "tempo": 120.0
            },
            {
                "start_time": 12.7363636,
                "end_time": 12.8204545,
                "pitch": 53,
                "velocity": 64,
                "duration": 0.0840909,
                "tempo": 120.0
            },
            {
                "start_time": 12.8363636,
                "end_time": 13.1272727,
                "pitch": 51,
                "velocity": 64,
                "duration": 0.2909091,
                "tempo": 120.0
            },
            {
                "start_time": 13.1454545,
                "end_time": 13.4363636,
                "pitch": 53,
                "velocity": 64,
                "duration": 0.2909091,
                "tempo": 120.0
            },
            {
                "start_time": 13.4545455,
                "end_time": 14.4340909,
                "pitch": 55,
                "velocity": 64,
                "duration": 0.9795455,
                "tempo": 120.0
            },
            {
                "start_time": 14.4522727,
                "end_time": 14.7363636,
                "pitch": 53,
                "velocity": 64,
                "duration": 0.2840909,
                "tempo": 120.0
            },
            {
                "start_time": 14.7545455,
                "end_time": 15.0431818,
                "pitch": 51,
                "velocity": 64,
                "duration": 0.2886364,
                "tempo": 120.0
            },
            {
                "start_time": 15.0590909,
                "end_time": 16.0409091,
                "pitch": 50,
                "velocity": 64,
                "duration": 0.9818182,
                "tempo": 120.0
            },
            {
                "start_time": 16.0568182,
                "end_time": 16.8431818,
                "pitch": 58,
                "velocity": 64,
                "duration": 0.7863636,
                "tempo": 120.0
            },
            {
                "start_time": 16.8590909,
                "end_time": 17.6454545,
                "pitch": 60,
                "velocity": 64,
                "duration": 0.7863636,
                "tempo": 120.0
            },
            {
                "start_time": 17.6636364,
                "end_time": 18.45,
                "pitch": 62,
                "velocity": 64,
                "duration": 0.7863636,
                "tempo": 120.0
            },
            {
                "start_time": 18.4659091,
                "end_time": 19.2522727,
                "pitch": 65,
                "velocity": 64,
                "duration": 0.7863636,
                "tempo": 120.0
            },
            {
                "start_time": 19.2681818,
                "end_time": 19.5522727,
                "pitch": 51,
                "velocity": 64,
                "duration": 0.2840909,
                "tempo": 120.0
            },
            {
                "start_time": 19.5681818,
                "end_time": 19.8522727,
                "pitch": 53,
                "velocity": 64,
                "duration": 0.2840909,
                "tempo": 120.0
            },
            {
                "start_time": 19.8704545,
                "end_time": 20.8568182,
                "pitch": 55,
                "velocity": 64,
                "duration": 0.9863636,
                "tempo": 120.0
            },
            {
                "start_time": 20.8727273,
                "end_time": 21.1590909,
                "pitch": 53,
                "velocity": 64,
                "duration": 0.2863636,
                "tempo": 120.0
            },
            {
                "start_time": 21.175,
                "end_time": 21.4636364,
                "pitch": 51,
                "velocity": 64,
                "duration": 0.2886364,
                "tempo": 120.0
            },
            {
                "start_time": 21.4818182,
                "end_time": 22.4613636,
                "pitch": 50,
                "velocity": 64,
                "duration": 0.9795455,
                "tempo": 120.0
            },
            {
                "start_time": 22.4795455,
                "end_time": 23.2659091,
                "pitch": 63,
                "velocity": 64,
                "duration": 0.7863636,
                "tempo": 120.0
            },
            {
                "start_time": 23.2818182,
                "end_time": 23.4659091,
                "pitch": 63,
                "velocity": 64,
                "duration": 0.1840909,
                "tempo": 120.0
            },
            {
                "start_time": 23.4818182,
                "end_time": 23.6659091,
                "pitch": 65,
                "velocity": 64,
                "duration": 0.1840909,
                "tempo": 120.0
            },
            {
                "start_time": 23.6818182,
                "end_time": 23.8659091,
                "pitch": 67,
                "velocity": 64,
                "duration": 0.1840909,
                "tempo": 120.0
            },
            {
                "start_time": 23.8840909,
                "end_time": 24.4681818,
                "pitch": 66,
                "velocity": 64,
                "duration": 0.5840909,
                "tempo": 120.0
            },
            {
                "start_time": 24.4840909,
                "end_time": 24.8681818,
                "pitch": 66,
                "velocity": 64,
                "duration": 0.3840909,
                "tempo": 120.0
            },
            {
                "start_time": 24.8840909,
                "end_time": 25.2704545,
                "pitch": 70,
                "velocity": 64,
                "duration": 0.3863636,
                "tempo": 120.0
            },
            {
                "start_time": 25.2886364,
                "end_time": 25.6704545,
                "pitch": 72,
                "velocity": 64,
                "duration": 0.3818182,
                "tempo": 120.0
            },
            {
                "start_time": 25.6886364,
                "end_time": 27.2681818,
                "pitch": 74,
                "velocity": 64,
                "duration": 1.5795455,
                "tempo": 120.0
            },
            {
                "start_time": 27.2863636,
                "end_time": 28.0727273,
                "pitch": 72,
                "velocity": 64,
                "duration": 0.7863636,
                "tempo": 120.0
            },
            {
                "start_time": 28.0886364,
                "end_time": 28.4818182,
                "pitch": 70,
                "velocity": 64,
                "duration": 0.3931818,
                "tempo": 120.0
            },
            {
                "start_time": 28.4977273,
                "end_time": 28.875,
                "pitch": 69,
                "velocity": 64,
                "duration": 0.3772727,
                "tempo": 120.0
            },
            {
                "start_time": 28.8909091,
                "end_time": 30.4795455,
                "pitch": 74,
                "velocity": 64,
                "duration": 1.5886364,
                "tempo": 120.0
            },
            {
                "start_time": 30.4954545,
                "end_time": 31.2818182,
                "pitch": 72,
                "velocity": 64,
                "duration": 0.7863636,
                "tempo": 120.0
            },
            {
                "start_time": 31.2977273,
                "end_time": 31.6931818,
                "pitch": 70,
                "velocity": 64,
                "duration": 0.3954545,
                "tempo": 120.0
            },
            {
                "start_time": 31.7090909,
                "end_time": 32.0840909,
                "pitch": 69,
                "velocity": 64,
                "duration": 0.375,
                "tempo": 120.0
            },
            {
                "start_time": 32.1022727,
                "end_time": 33.6977273,
                "pitch": 67,
                "velocity": 64,
                "duration": 1.5954545,
                "tempo": 120.0
            },
            {
                "start_time": 33.7159091,
                "end_time": 35.2977273,
                "pitch": 69,
                "velocity": 64,
                "duration": 1.5818182,
                "tempo": 120.0
            },
            {
                "start_time": 35.3159091,
                "end_time": 38.5045455,
                "pitch": 71,
                "velocity": 64,
                "duration": 3.1886364,
                "tempo": 120.0
            },
            {
                "start_time": 38.5204545,
                "end_time": 38.5363636,
                "pitch": 55,
                "velocity": 64,
                "duration": 0.0159091,
                "tempo": 120.0
            }
        ],
        "Acoustic Bass": [
            {
                "start_time": 0.0,
                "end_time": 0.1863636,
                "pitch": 31,
                "velocity": 64,
                "duration": 0.1863636,
                "tempo": 120.0
            },
            {
                "start_time": 0.2045455,
                "end_time": 0.2909091,
                "pitch": 43,
                "velocity": 64,
                "duration": 0.0863636,
                "tempo": 120.0
            },
            {
                "start_time": 0.3068182,
                "end_time": 0.3931818,
                "pitch": 43,
                "velocity": 64,
                "duration": 0.0863636,
                "tempo": 120.0
            },
            {
                "start_time": 0.4090909,
                "end_time": 0.5909091,
                "pitch": 31,
                "velocity": 64,
                "duration": 0.1818182,
                "tempo": 120.0
            },
            {
                "start_time": 0.6068182,
                "end_time": 0.6886364,
                "pitch": 43,
                "velocity": 64,
                "duration": 0.0818182,
                "tempo": 120.0
            },
            {
                "start_time": 0.7045455,
                "end_time": 0.7863636,
                "pitch": 43,
                "velocity": 64,
                "duration": 0.0818182,
                "tempo": 120.0
            },
            {
                "start_time": 0.8022727,
                "end_time": 0.9863636,
                "pitch": 31,
                "velocity": 64,
                "duration": 0.1840909,
                "tempo": 120.0
            },
            {
                "start_time": 1.0022727,
                "end_time": 1.0863636,
                "pitch": 43,
                "velocity": 64,
                "duration": 0.0840909,
                "tempo": 120.0
            },
            {
                "start_time": 1.1022727,
                "end_time": 1.1863636,
                "pitch": 43,
                "velocity": 64,
                "duration": 0.0840909,
                "tempo": 120.0
            },
            {
                "start_time": 1.2022727,
                "end_time": 1.3863636,
                "pitch": 31,
                "velocity": 64,
                "duration": 0.1840909,
                "tempo": 120.0
            },
            {
                "start_time": 1.4022727,
                "end_time": 1.4863636,
                "pitch": 43,
                "velocity": 64,
                "duration": 0.0840909,
                "tempo": 120.0
            },
            {
                "start_time": 1.5022727,
                "end_time": 1.5863636,
                "pitch": 43,
                "velocity": 64,
                "duration": 0.0840909,
                "tempo": 120.0
            },
            {
                "start_time": 1.6022727,
                "end_time": 1.7863636,
                "pitch": 27,
                "velocity": 64,
                "duration": 0.1840909,
                "tempo": 120.0
            },
            {
                "start_time": 1.8045455,
                "end_time": 1.8863636,
                "pitch": 39,
                "velocity": 64,
                "duration": 0.0818182,
                "tempo": 120.0
            },
            {
                "start_time": 1.9045455,
                "end_time": 1.9886364,
                "pitch": 39,
                "velocity": 64,
                "duration": 0.0840909,
                "tempo": 120.0
            },
            {
                "start_time": 2.0045455,
                "end_time": 2.1886364,
                "pitch": 27,
                "velocity": 64,
                "duration": 0.1840909,
                "tempo": 120.0
            },
            {
                "start_time": 2.2045455,
                "end_time": 2.2886364,
                "pitch": 39,
                "velocity": 64,
                "duration": 0.0840909,
                "tempo": 120.0
            },
            {
                "start_time": 2.3045455,
                "end_time": 2.3886364,
                "pitch": 39,
                "velocity": 64,
                "duration": 0.0840909,
                "tempo": 120.0
            },
            {
                "start_time": 2.4045455,
                "end_time": 2.5886364,
                "pitch": 29,
                "velocity": 64,
                "duration": 0.1840909,
                "tempo": 120.0
            },
            {
                "start_time": 2.6045455,
                "end_time": 2.6886364,
                "pitch": 41,
                "velocity": 64,
                "duration": 0.0840909,
                "tempo": 120.0
            },
            {
                "start_time": 2.7045455,
                "end_time": 2.7886364,
                "pitch": 41,
                "velocity": 64,
                "duration": 0.0840909,
                "tempo": 120.0
            },
            {
                "start_time": 2.8045455,
                "end_time": 2.9886364,
                "pitch": 29,
                "velocity": 64,
                "duration": 0.1840909,
                "tempo": 120.0
            },
            {
                "start_time": 3.0045455,
                "end_time": 3.0886364,
                "pitch": 41,
                "velocity": 64,
                "duration": 0.0840909,
                "tempo": 120.0
            },
            {
                "start_time": 3.1045455,
                "end_time": 3.1886364,
                "pitch": 41,
                "velocity": 64,
                "duration": 0.0840909,
                "tempo": 120.0
            },
            {
                "start_time": 3.2045455,
                "end_time": 3.3886364,
                "pitch": 31,
                "velocity": 64,
                "duration": 0.1840909,
                "tempo": 120.0
            },
            {
                "start_time": 3.4068182,
                "end_time": 3.4909091,
                "pitch": 43,
                "velocity": 64,
                "duration": 0.0840909,
                "tempo": 120.0
            },
            {
                "start_time": 3.5068182,
                "end_time": 3.5909091,
                "pitch": 43,
                "velocity": 64,
                "duration": 0.0840909,
                "tempo": 120.0
            },
            {
                "start_time": 3.6068182,
                "end_time": 3.7909091,
                "pitch": 31,
                "velocity": 64,
                "duration": 0.1840909,
                "tempo": 120.0
            },
            {
                "start_time": 3.8068182,
                "end_time": 3.8909091,
                "pitch": 43,
                "velocity": 64,
                "duration": 0.0840909,
                "tempo": 120.0
            },
            {
                "start_time": 3.9068182,
                "end_time": 3.9909091,
                "pitch": 43,
                "velocity": 64,
                "duration": 0.0840909,
                "tempo": 120.0
            },
            {
                "start_time": 4.0068182,
                "end_time": 4.1909091,
                "pitch": 31,
                "velocity": 64,
                "duration": 0.1840909,
                "tempo": 120.0
            },
            {
                "start_time": 4.2068182,
                "end_time": 4.2909091,
                "pitch": 43,
                "velocity": 64,
                "duration": 0.0840909,
                "tempo": 120.0
            },
            {
                "start_time": 4.3068182,
                "end_time": 4.3909091,
                "pitch": 43,
                "velocity": 64,
                "duration": 0.0840909,
                "tempo": 120.0
            },
            {
                "start_time": 4.4068182,
                "end_time": 4.5931818,
                "pitch": 31,
                "velocity": 64,
                "duration": 0.1863636,
                "tempo": 120.0
            },
            {
                "start_time": 4.6090909,
                "end_time": 4.6931818,
                "pitch": 43,
                "velocity": 64,
                "duration": 0.0840909,
                "tempo": 120.0
            },
            {
                "start_time": 4.7090909,
                "end_time": 4.7931818,
                "pitch": 43,
                "velocity": 64,
                "duration": 0.0840909,
                "tempo": 120.0
            },
            {
                "start_time": 4.8113636,
                "end_time": 4.9931818,
                "pitch": 31,
                "velocity": 64,
                "duration": 0.1818182,
                "tempo": 120.0
            },
            {
                "start_time": 5.0113636,
                "end_time": 5.0931818,
                "pitch": 43,
                "velocity": 64,
                "duration": 0.0818182,
                "tempo": 120.0
            },
            {
                "start_time": 5.1113636,
                "end_time": 5.1931818,
                "pitch": 43,
                "velocity": 64,
                "duration": 0.0818182,
                "tempo": 120.0
            },
            {
                "start_time": 5.2113636,
                "end_time": 5.3954545,
                "pitch": 31,
                "velocity": 64,
                "duration": 0.1840909,
                "tempo": 120.0
            },
            {
                "start_time": 5.4113636,
                "end_time": 5.4954545,
                "pitch": 43,
                "velocity": 64,
                "duration": 0.0840909,
                "tempo": 120.0
            },
            {
                "start_time": 5.5113636,
                "end_time": 5.5954545,
                "pitch": 43,
                "velocity": 64,
                "duration": 0.0840909,
                "tempo": 120.0
            },
            {
                "start_time": 5.6136364,
                "end_time": 5.7954545,
                "pitch": 31,
                "velocity": 64,
                "duration": 0.1818182,
                "tempo": 120.0
            },
            {
                "start_time": 5.8136364,
                "end_time": 5.8954545,
                "pitch": 43,
                "velocity": 64,
                "duration": 0.0818182,
                "tempo": 120.0
            },
            {
                "start_time": 5.9136364,
                "end_time": 5.9954545,
                "pitch": 43,
                "velocity": 64,
                "duration": 0.0818182,
                "tempo": 120.0
            },
            {
                "start_time": 6.0136364,
                "end_time": 6.1977273,
                "pitch": 31,
                "velocity": 64,
                "duration": 0.1840909,
                "tempo": 120.0
            },
            {
                "start_time": 6.2136364,
                "end_time": 6.2977273,
                "pitch": 43,
                "velocity": 64,
                "duration": 0.0840909,
                "tempo": 120.0
            },
            {
                "start_time": 6.3159091,
                "end_time": 6.3977273,
                "pitch": 43,
                "velocity": 64,
                "duration": 0.0818182,
                "tempo": 120.0
            },
            {
                "start_time": 6.4159091,
                "end_time": 6.6,
                "pitch": 31,
                "velocity": 64,
                "duration": 0.1840909,
                "tempo": 120.0
            },
            {
                "start_time": 6.6159091,
                "end_time": 6.7,
                "pitch": 43,
                "velocity": 64,
                "duration": 0.0840909,
                "tempo": 120.0
            },
            {
                "start_time": 6.7181818,
                "end_time": 6.8022727,
                "pitch": 43,
                "velocity": 64,
                "duration": 0.0840909,
                "tempo": 120.0
            },
            {
                "start_time": 6.8181818,
                "end_time": 7.0022727,
                "pitch": 31,
                "velocity": 64,
                "duration": 0.1840909,
                "tempo": 120.0
            },
            {
                "start_time": 7.0181818,
                "end_time": 7.1022727,
                "pitch": 43,
                "velocity": 64,
                "duration": 0.0840909,
                "tempo": 120.0
            },
            {
                "start_time": 7.1181818,
                "end_time": 7.2022727,
                "pitch": 43,
                "velocity": 64,
                "duration": 0.0840909,
                "tempo": 120.0
            },
            {
                "start_time": 7.2181818,
                "end_time": 7.4022727,
                "pitch": 31,
                "velocity": 64,
                "duration": 0.1840909,
                "tempo": 120.0
            },
            {
                "start_time": 7.4204545,
                "end_time": 7.5045455,
                "pitch": 43,
                "velocity": 64,
                "duration": 0.0840909,
                "tempo": 120.0
            },
            {
                "start_time": 7.5204545,
                "end_time": 7.6045455,
                "pitch": 43,
                "velocity": 64,
                "duration": 0.0840909,
                "tempo": 120.0
            },
            {
                "start_time": 7.6204545,
                "end_time": 7.8045455,
                "pitch": 31,
                "velocity": 64,
                "duration": 0.1840909,
                "tempo": 120.0
            },
            {
                "start_time": 7.8204545,
                "end_time": 7.9045455,
                "pitch": 43,
                "velocity": 64,
                "duration": 0.0840909,
                "tempo": 120.0
            },
            {
                "start_time": 7.9204545,
                "end_time": 8.0045455,
                "pitch": 43,
                "velocity": 64,
                "duration": 0.0840909,
                "tempo": 120.0
            },
            {
                "start_time": 8.0204545,
                "end_time": 8.2045455,
                "pitch": 27,
                "velocity": 64,
                "duration": 0.1840909,
                "tempo": 120.0
            },
            {
                "start_time": 8.2227273,
                "end_time": 8.3068182,
                "pitch": 39,
                "velocity": 64,
                "duration": 0.0840909,
                "tempo": 120.0
            },
            {
                "start_time": 8.3227273,
                "end_time": 8.4068182,
                "pitch": 39,
                "velocity": 64,
                "duration": 0.0840909,
                "tempo": 120.0
            },
            {
                "start_time": 8.4227273,
                "end_time": 8.6090909,
                "pitch": 27,
                "velocity": 64,
                "duration": 0.1863636,
                "tempo": 120.0
            },
            {
                "start_time": 8.625,
                "end_time": 8.7090909,
                "pitch": 39,
                "velocity": 64,
                "duration": 0.0840909,
                "tempo": 120.0
            },
            {
                "start_time": 8.725,
                "end_time": 8.8090909,
                "pitch": 39,
                "velocity": 64,
                "duration": 0.0840909,
                "tempo": 120.0
            },
            {
                "start_time": 8.8272727,
                "end_time": 9.0113636,
                "pitch": 29,
                "velocity": 64,
                "duration": 0.1840909,
                "tempo": 120.0
            },
            {
                "start_time": 9.0272727,
                "end_time": 9.1113636,
                "pitch": 41,
                "velocity": 64,
                "duration": 0.0840909,
                "tempo": 120.0
            },
            {
                "start_time": 9.1272727,
                "end_time": 9.2113636,
                "pitch": 41,
                "velocity": 64,
                "duration": 0.0840909,
                "tempo": 120.0
            },
            {
                "start_time": 9.2295455,
                "end_time": 9.4113636,
                "pitch": 29,
                "velocity": 64,
                "duration": 0.1818182,
                "tempo": 120.0
            },
            {
                "start_time": 9.4295455,
                "end_time": 9.5113636,
                "pitch": 41,
                "velocity": 64,
                "duration": 0.0818182,
                "tempo": 120.0
            },
            {
                "start_time": 9.5295455,
                "end_time": 9.6113636,
                "pitch": 41,
                "velocity": 64,
                "duration": 0.0818182,
                "tempo": 120.0
            },
            {
                "start_time": 9.6295455,
                "end_time": 9.8136364,
                "pitch": 31,
                "velocity": 64,
                "duration": 0.1840909,
                "tempo": 120.0
            },
            {
                "start_time": 9.8295455,
                "end_time": 9.9136364,
                "pitch": 43,
                "velocity": 64,
                "duration": 0.0840909,
                "tempo": 120.0
            },
            {
                "start_time": 9.9318182,
                "end_time": 10.0159091,
                "pitch": 43,
                "velocity": 64,
                "duration": 0.0840909,
                "tempo": 120.0
            },
            {
                "start_time": 10.0318182,
                "end_time": 10.2159091,
                "pitch": 31,
                "velocity": 64,
                "duration": 0.1840909,
                "tempo": 120.0
            },
            {
                "start_time": 10.2340909,
                "end_time": 10.3159091,
                "pitch": 43,
                "velocity": 64,
                "duration": 0.0818182,
                "tempo": 120.0
            },
            {
                "start_time": 10.3340909,
                "end_time": 10.4181818,
                "pitch": 43,
                "velocity": 64,
                "duration": 0.0840909,
                "tempo": 120.0
            },
            {
                "start_time": 10.4340909,
                "end_time": 10.6181818,
                "pitch": 31,
                "velocity": 64,
                "duration": 0.1840909,
                "tempo": 120.0
            },
            {
                "start_time": 10.6363636,
                "end_time": 10.7204545,
                "pitch": 43,
                "velocity": 64,
                "duration": 0.0840909,
                "tempo": 120.0
            },
            {
                "start_time": 10.7363636,
                "end_time": 10.8204545,
                "pitch": 43,
                "velocity": 64,
                "duration": 0.0840909,
                "tempo": 120.0
            },
            {
                "start_time": 10.8363636,
                "end_time": 11.0227273,
                "pitch": 31,
                "velocity": 64,
                "duration": 0.1863636,
                "tempo": 120.0
            },
            {
                "start_time": 11.0386364,
                "end_time": 11.1227273,
                "pitch": 43,
                "velocity": 64,
                "duration": 0.0840909,
                "tempo": 120.0
            },
            {
                "start_time": 11.1386364,
                "end_time": 11.2227273,
                "pitch": 43,
                "velocity": 64,
                "duration": 0.0840909,
                "tempo": 120.0
            },
            {
                "start_time": 11.2409091,
                "end_time": 11.4227273,
                "pitch": 31,
                "velocity": 64,
                "duration": 0.1818182,
                "tempo": 120.0
            },
            {
                "start_time": 11.4409091,
                "end_time": 11.5227273,
                "pitch": 43,
                "velocity": 64,
                "duration": 0.0818182,
                "tempo": 120.0
            },
            {
                "start_time": 11.5409091,
                "end_time": 11.6227273,
                "pitch": 43,
                "velocity": 64,
                "duration": 0.0818182,
                "tempo": 120.0
            },
            {
                "start_time": 11.6409091,
                "end_time": 11.825,
                "pitch": 31,
                "velocity": 64,
                "duration": 0.1840909,
                "tempo": 120.0
            },
            {
                "start_time": 11.8409091,
                "end_time": 11.925,
                "pitch": 43,
                "velocity": 64,
                "duration": 0.0840909,
                "tempo": 120.0
            },
            {
                "start_time": 11.9409091,
                "end_time": 12.025,
                "pitch": 43,
                "velocity": 64,
                "duration": 0.0840909,
                "tempo": 120.0
            },
            {
                "start_time": 12.0431818,
                "end_time": 12.2227273,
                "pitch": 31,
                "velocity": 64,
                "duration": 0.1795455,
                "tempo": 120.0
            },
            {
                "start_time": 12.2386364,
                "end_time": 12.3204545,
                "pitch": 43,
                "velocity": 64,
                "duration": 0.0818182,
                "tempo": 120.0
            },
            {
                "start_time": 12.3363636,
                "end_time": 12.4181818,
                "pitch": 43,
                "velocity": 64,
                "duration": 0.0818182,
                "tempo": 120.0
            },
            {
                "start_time": 12.4340909,
                "end_time": 12.6181818,
                "pitch": 31,
                "velocity": 64,
                "duration": 0.1840909,
                "tempo": 120.0
            },
            {
                "start_time": 12.6363636,
                "end_time": 12.7204545,
                "pitch": 43,
                "velocity": 64,
                "duration": 0.0840909,
                "tempo": 120.0
            },
            {
                "start_time": 12.7363636,
                "end_time": 12.8204545,
                "pitch": 43,
                "velocity": 64,
                "duration": 0.0840909,
                "tempo": 120.0
            },
            {
                "start_time": 12.8363636,
                "end_time": 13.1272727,
                "pitch": 39,
                "velocity": 64,
                "duration": 0.2909091,
                "tempo": 120.0
            },
            {
                "start_time": 13.1454545,
                "end_time": 13.4363636,
                "pitch": 39,
                "velocity": 64,
                "duration": 0.2909091,
                "tempo": 120.0
            },
            {
                "start_time": 13.4545455,
                "end_time": 13.7386364,
                "pitch": 39,
                "velocity": 64,
                "duration": 0.2840909,
                "tempo": 120.0
            },
            {
                "start_time": 13.7545455,
                "end_time": 13.8340909,
                "pitch": 39,
                "velocity": 64,
                "duration": 0.0795455,
                "tempo": 120.0
            },
            {
                "start_time": 13.85,
                "end_time": 13.9295455,
                "pitch": 43,
                "velocity": 64,
                "duration": 0.0795455,
                "tempo": 120.0
            },
            {
                "start_time": 13.9454545,
                "end_time": 14.025,
                "pitch": 46,
                "velocity": 64,
                "duration": 0.0795455,
                "tempo": 120.0
            },
            {
                "start_time": 14.0409091,
                "end_time": 14.1272727,
                "pitch": 51,
                "velocity": 64,
                "duration": 0.0863636,
                "tempo": 120.0
            },
            {
                "start_time": 14.1431818,
                "end_time": 14.2295455,
                "pitch": 46,
                "velocity": 64,
                "duration": 0.0863636,
                "tempo": 120.0
            },
            {
                "start_time": 14.2454545,
                "end_time": 14.3318182,
                "pitch": 43,
                "velocity": 64,
                "duration": 0.0863636,
                "tempo": 120.0
            },
            {
                "start_time": 14.35,
                "end_time": 14.4340909,
                "pitch": 46,
                "velocity": 64,
                "duration": 0.0840909,
                "tempo": 120.0
            },
            {
                "start_time": 14.4522727,
                "end_time": 14.7363636,
                "pitch": 38,
                "velocity": 64,
                "duration": 0.2840909,
                "tempo": 120.0
            },
            {
                "start_time": 14.7545455,
                "end_time": 15.0431818,
                "pitch": 38,
                "velocity": 64,
                "duration": 0.2886364,
                "tempo": 120.0
            },
            {
                "start_time": 15.0590909,
                "end_time": 15.3431818,
                "pitch": 38,
                "velocity": 64,
                "duration": 0.2840909,
                "tempo": 120.0
            },
            {
                "start_time": 15.3590909,
                "end_time": 15.4386364,
                "pitch": 38,
                "velocity": 64,
                "duration": 0.0795455,
                "tempo": 120.0
            },
            {
                "start_time": 15.4545455,
                "end_time": 15.5340909,
                "pitch": 41,
                "velocity": 64,
                "duration": 0.0795455,
                "tempo": 120.0
            },
            {
                "start_time": 15.55,
                "end_time": 15.6295455,
                "pitch": 45,
                "velocity": 64,
                "duration": 0.0795455,
                "tempo": 120.0
            },
            {
                "start_time": 15.6454545,
                "end_time": 15.7318182,
                "pitch": 50,
                "velocity": 64,
                "duration": 0.0863636,
                "tempo": 120.0
            },
            {
                "start_time": 15.75,
                "end_time": 15.8340909,
                "pitch": 45,
                "velocity": 64,
                "duration": 0.0840909,
                "tempo": 120.0
            },
            {
                "start_time": 15.8522727,
                "end_time": 15.9386364,
                "pitch": 41,
                "velocity": 64,
                "duration": 0.0863636,
                "tempo": 120.0
            },
            {
                "start_time": 15.9545455,
                "end_time": 16.0409091,
                "pitch": 45,
                "velocity": 64,
                "duration": 0.0863636,
                "tempo": 120.0
            },
            {
                "start_time": 16.0568182,
                "end_time": 16.2431818,
                "pitch": 36,
                "velocity": 64,
                "duration": 0.1863636,
                "tempo": 120.0
            },
            {
                "start_time": 16.2590909,
                "end_time": 16.3431818,
                "pitch": 36,
                "velocity": 64,
                "duration": 0.0840909,
                "tempo": 120.0
            },
            {
                "start_time": 16.3590909,
                "end_time": 16.4431818,
                "pitch": 36,
                "velocity": 64,
                "duration": 0.0840909,
                "tempo": 120.0
            },
            {
                "start_time": 16.4590909,
                "end_time": 16.6431818,
                "pitch": 36,
                "velocity": 64,
                "duration": 0.1840909,
                "tempo": 120.0
            },
            {
                "start_time": 16.6590909,
                "end_time": 16.7431818,
                "pitch": 36,
                "velocity": 64,
                "duration": 0.0840909,
                "tempo": 120.0
            },
            {
                "start_time": 16.7590909,
                "end_time": 16.8431818,
                "pitch": 36,
                "velocity": 64,
                "duration": 0.0840909,
                "tempo": 120.0
            },
            {
                "start_time": 16.8590909,
                "end_time": 17.0454545,
                "pitch": 36,
                "velocity": 64,
                "duration": 0.1863636,
                "tempo": 120.0
            },
            {
                "start_time": 17.0613636,
                "end_time": 17.1454545,
                "pitch": 36,
                "velocity": 64,
                "duration": 0.0840909,
                "tempo": 120.0
            },
            {
                "start_time": 17.1613636,
                "end_time": 17.2454545,
                "pitch": 36,
                "velocity": 64,
                "duration": 0.0840909,
                "tempo": 120.0
            },
            {
                "start_time": 17.2636364,
                "end_time": 17.4454545,
                "pitch": 36,
                "velocity": 64,
                "duration": 0.1818182,
                "tempo": 120.0
            },
            {
                "start_time": 17.4636364,
                "end_time": 17.5454545,
                "pitch": 36,
                "velocity": 64,
                "duration": 0.0818182,
                "tempo": 120.0
            },
            {
                "start_time": 17.5636364,
                "end_time": 17.6454545,
                "pitch": 36,
                "velocity": 64,
                "duration": 0.0818182,
                "tempo": 120.0
            },
            {
                "start_time": 17.6636364,
                "end_time": 17.8477273,
                "pitch": 34,
                "velocity": 64,
                "duration": 0.1840909,
                "tempo": 120.0
            },
            {
                "start_time": 17.8636364,
                "end_time": 17.9477273,
                "pitch": 34,
                "velocity": 64,
                "duration": 0.0840909,
                "tempo": 120.0
            },
            {
                "start_time": 17.9659091,
                "end_time": 18.0477273,
                "pitch": 34,
                "velocity": 64,
                "duration": 0.0818182,
                "tempo": 120.0
            },
            {
                "start_time": 18.0659091,
                "end_time": 18.25,
                "pitch": 34,
                "velocity": 64,
                "duration": 0.1840909,
                "tempo": 120.0
            },
            {
                "start_time": 18.2659091,
                "end_time": 18.35,
                "pitch": 34,
                "velocity": 64,
                "duration": 0.0840909,
                "tempo": 120.0
            },
            {
                "start_time": 18.3659091,
                "end_time": 18.45,
                "pitch": 34,
                "velocity": 64,
                "duration": 0.0840909,
                "tempo": 120.0
            },
            {
                "start_time": 18.4659091,
                "end_time": 18.65,
                "pitch": 34,
                "velocity": 64,
                "duration": 0.1840909,
                "tempo": 120.0
            },
            {
                "start_time": 18.6659091,
                "end_time": 18.75,
                "pitch": 34,
                "velocity": 64,
                "duration": 0.0840909,
                "tempo": 120.0
            },
            {
                "start_time": 18.7659091,
                "end_time": 18.85,
                "pitch": 34,
                "velocity": 64,
                "duration": 0.0840909,
                "tempo": 120.0
            },
            {
                "start_time": 18.8659091,
                "end_time": 19.05,
                "pitch": 34,
                "velocity": 64,
                "duration": 0.1840909,
                "tempo": 120.0
            },
            {
                "start_time": 19.0659091,
                "end_time": 19.15,
                "pitch": 34,
                "velocity": 64,
                "duration": 0.0840909,
                "tempo": 120.0
            },
            {
                "start_time": 19.1681818,
                "end_time": 19.2522727,
                "pitch": 34,
                "velocity": 64,
                "duration": 0.0840909,
                "tempo": 120.0
            },
            {
                "start_time": 19.2681818,
                "end_time": 19.5522727,
                "pitch": 39,
                "velocity": 64,
                "duration": 0.2840909,
                "tempo": 120.0
            },
            {
                "start_time": 19.5681818,
                "end_time": 19.8522727,
                "pitch": 39,
                "velocity": 64,
                "duration": 0.2840909,
                "tempo": 120.0
            },
            {
                "start_time": 19.8704545,
                "end_time": 20.1522727,
                "pitch": 39,
                "velocity": 64,
                "duration": 0.2818182,
                "tempo": 120.0
            },
            {
                "start_time": 20.1681818,
                "end_time": 20.25,
                "pitch": 39,
                "velocity": 64,
                "duration": 0.0818182,
                "tempo": 120.0
            },
            {
                "start_time": 20.2659091,
                "end_time": 20.3477273,
                "pitch": 43,
                "velocity": 64,
                "duration": 0.0818182,
                "tempo": 120.0
            },
            {
                "start_time": 20.3659091,
                "end_time": 20.4454545,
                "pitch": 46,
                "velocity": 64,
                "duration": 0.0795455,
                "tempo": 120.0
            },
            {
                "start_time": 20.4636364,
                "end_time": 20.5477273,
                "pitch": 51,
                "velocity": 64,
                "duration": 0.0840909,
                "tempo": 120.0
            },
            {
                "start_time": 20.5659091,
                "end_time": 20.6522727,
                "pitch": 46,
                "velocity": 64,
                "duration": 0.0863636,
                "tempo": 120.0
            },
            {
                "start_time": 20.6681818,
                "end_time": 20.7545455,
                "pitch": 43,
                "velocity": 64,
                "duration": 0.0863636,
                "tempo": 120.0
            },
            {
                "start_time": 20.7704545,
                "end_time": 20.8568182,
                "pitch": 46,
                "velocity": 64,
                "duration": 0.0863636,
                "tempo": 120.0
            },
            {
                "start_time": 20.8727273,
                "end_time": 21.1590909,
                "pitch": 38,
                "velocity": 64,
                "duration": 0.2863636,
                "tempo": 120.0
            },
            {
                "start_time": 21.175,
                "end_time": 21.4636364,
                "pitch": 38,
                "velocity": 64,
                "duration": 0.2886364,
                "tempo": 120.0
            },
            {
                "start_time": 21.4818182,
                "end_time": 21.7659091,
                "pitch": 38,
                "velocity": 64,
                "duration": 0.2840909,
                "tempo": 120.0
            },
            {
                "start_time": 21.7818182,
                "end_time": 21.8613636,
                "pitch": 38,
                "velocity": 64,
                "duration": 0.0795455,
                "tempo": 120.0
            },
            {
                "start_time": 21.8772727,
                "end_time": 21.9568182,
                "pitch": 41,
                "velocity": 64,
                "duration": 0.0795455,
                "tempo": 120.0
            },
            {
                "start_time": 21.9727273,
                "end_time": 22.0522727,
                "pitch": 45,
                "velocity": 64,
                "duration": 0.0795455,
                "tempo": 120.0
            },
            {
                "start_time": 22.0681818,
                "end_time": 22.1545455,
                "pitch": 50,
                "velocity": 64,
                "duration": 0.0863636,
                "tempo": 120.0
            },
            {
                "start_time": 22.1704545,
                "end_time": 22.2568182,
                "pitch": 45,
                "velocity": 64,
                "duration": 0.0863636,
                "tempo": 120.0
            },
            {
                "start_time": 22.275,
                "end_time": 22.3590909,
                "pitch": 41,
                "velocity": 64,
                "duration": 0.0840909,
                "tempo": 120.0
            },
            {
                "start_time": 22.3772727,
                "end_time": 22.4613636,
                "pitch": 45,
                "velocity": 64,
                "duration": 0.0840909,
                "tempo": 120.0
            },
            {
                "start_time": 22.4795455,
                "end_time": 22.6636364,
                "pitch": 36,
                "velocity": 64,
                "duration": 0.1840909,
                "tempo": 120.0
            },
            {
                "start_time": 22.6795455,
                "end_time": 22.7636364,
                "pitch": 36,
                "velocity": 64,
                "duration": 0.0840909,
                "tempo": 120.0
            },
            {
                "start_time": 22.7795455,
                "end_time": 22.8636364,
                "pitch": 48,
                "velocity": 64,
                "duration": 0.0840909,
                "tempo": 120.0
            },
            {
                "start_time": 22.8795455,
                "end_time": 23.0636364,
                "pitch": 36,
                "velocity": 64,
                "duration": 0.1840909,
                "tempo": 120.0
            },
            {
                "start_time": 23.0818182,
                "end_time": 23.1659091,
                "pitch": 36,
                "velocity": 64,
                "duration": 0.0840909,
                "tempo": 120.0
            },
            {
                "start_time": 23.1818182,
                "end_time": 23.2659091,
                "pitch": 48,
                "velocity": 64,
                "duration": 0.0840909,
                "tempo": 120.0
            },
            {
                "start_time": 23.2818182,
                "end_time": 23.4659091,
                "pitch": 36,
                "velocity": 64,
                "duration": 0.1840909,
                "tempo": 120.0
            },
            {
                "start_time": 23.4818182,
                "end_time": 23.5659091,
                "pitch": 36,
                "velocity": 64,
                "duration": 0.0840909,
                "tempo": 120.0
            },
            {
                "start_time": 23.5818182,
                "end_time": 23.6659091,
                "pitch": 48,
                "velocity": 64,
                "duration": 0.0840909,
                "tempo": 120.0
            },
            {
                "start_time": 23.6818182,
                "end_time": 23.8659091,
                "pitch": 36,
                "velocity": 64,
                "duration": 0.1840909,
                "tempo": 120.0
            },
            {
                "start_time": 23.8840909,
                "end_time": 23.9681818,
                "pitch": 36,
                "velocity": 64,
                "duration": 0.0840909,
                "tempo": 120.0
            },
            {
                "start_time": 23.9840909,
                "end_time": 24.0681818,
                "pitch": 48,
                "velocity": 64,
                "duration": 0.0840909,
                "tempo": 120.0
            },
            {
                "start_time": 24.0840909,
                "end_time": 24.2681818,
                "pitch": 38,
                "velocity": 64,
                "duration": 0.1840909,
                "tempo": 120.0
            },
            {
                "start_time": 24.2840909,
                "end_time": 24.3681818,
                "pitch": 38,
                "velocity": 64,
                "duration": 0.0840909,
                "tempo": 120.0
            },
            {
                "start_time": 24.3840909,
                "end_time": 24.4681818,
                "pitch": 50,
                "velocity": 64,
                "duration": 0.0840909,
                "tempo": 120.0
            },
            {
                "start_time": 24.4840909,
                "end_time": 24.6681818,
                "pitch": 38,
                "velocity": 64,
                "duration": 0.1840909,
                "tempo": 120.0
            },
            {
                "start_time": 24.6840909,
                "end_time": 24.7681818,
                "pitch": 38,
                "velocity": 64,
                "duration": 0.0840909,
                "tempo": 120.0
            },
            {
                "start_time": 24.7840909,
                "end_time": 24.8681818,
                "pitch": 50,
                "velocity": 64,
                "duration": 0.0840909,
                "tempo": 120.0
            },
            {
                "start_time": 24.8840909,
                "end_time": 25.0704545,
                "pitch": 38,
                "velocity": 64,
                "duration": 0.1863636,
                "tempo": 120.0
            },
            {
                "start_time": 25.0863636,
                "end_time": 25.1704545,
                "pitch": 38,
                "velocity": 64,
                "duration": 0.0840909,
                "tempo": 120.0
            },
            {
                "start_time": 25.1863636,
                "end_time": 25.2704545,
                "pitch": 50,
                "velocity": 64,
                "duration": 0.0840909,
                "tempo": 120.0
            },
            {
                "start_time": 25.2886364,
                "end_time": 25.4704545,
                "pitch": 38,
                "velocity": 64,
                "duration": 0.1818182,
                "tempo": 120.0
            },
            {
                "start_time": 25.4886364,
                "end_time": 25.5704545,
                "pitch": 38,
                "velocity": 64,
                "duration": 0.0818182,
                "tempo": 120.0
            },
            {
                "start_time": 25.5886364,
                "end_time": 25.6704545,
                "pitch": 50,
                "velocity": 64,
                "duration": 0.0818182,
                "tempo": 120.0
            },
            {
                "start_time": 25.6886364,
                "end_time": 25.8727273,
                "pitch": 43,
                "velocity": 64,
                "duration": 0.1840909,
                "tempo": 120.0
            },
            {
                "start_time": 25.8886364,
                "end_time": 25.9727273,
                "pitch": 31,
                "velocity": 64,
                "duration": 0.0840909,
                "tempo": 120.0
            },
            {
                "start_time": 25.9886364,
                "end_time": 26.175,
                "pitch": 43,
                "velocity": 64,
                "duration": 0.1863636,
                "tempo": 120.0
            },
            {
                "start_time": 26.1931818,
                "end_time": 26.2795455,
                "pitch": 31,
                "velocity": 64,
                "duration": 0.0863636,
                "tempo": 120.0
            },
            {
                "start_time": 26.2954545,
                "end_time": 26.4840909,
                "pitch": 43,
                "velocity": 64,
                "duration": 0.1886364,
                "tempo": 120.0
            },
            {
                "start_time": 26.5,
                "end_time": 26.6818182,
                "pitch": 41,
                "velocity": 64,
                "duration": 0.1818182,
                "tempo": 120.0
            },
            {
                "start_time": 26.6977273,
                "end_time": 26.7795455,
                "pitch": 29,
                "velocity": 64,
                "duration": 0.0818182,
                "tempo": 120.0
            },
            {
                "start_time": 26.7954545,
                "end_time": 26.975,
                "pitch": 41,
                "velocity": 64,
                "duration": 0.1795455,
                "tempo": 120.0
            },
            {
                "start_time": 26.9909091,
                "end_time": 27.0727273,
                "pitch": 29,
                "velocity": 64,
                "duration": 0.0818182,
                "tempo": 120.0
            },
            {
                "start_time": 27.0886364,
                "end_time": 27.2681818,
                "pitch": 41,
                "velocity": 64,
                "duration": 0.1795455,
                "tempo": 120.0
            },
            {
                "start_time": 27.2863636,
                "end_time": 27.4727273,
                "pitch": 39,
                "velocity": 64,
                "duration": 0.1863636,
                "tempo": 120.0
            },
            {
                "start_time": 27.4909091,
                "end_time": 27.5772727,
                "pitch": 27,
                "velocity": 64,
                "duration": 0.0863636,
                "tempo": 120.0
            },
            {
                "start_time": 27.5931818,
                "end_time": 27.7772727,
                "pitch": 39,
                "velocity": 64,
                "duration": 0.1840909,
                "tempo": 120.0
            },
            {
                "start_time": 27.7931818,
                "end_time": 27.875,
                "pitch": 27,
                "velocity": 64,
                "duration": 0.0818182,
                "tempo": 120.0
            },
            {
                "start_time": 27.8909091,
                "end_time": 28.0727273,
                "pitch": 39,
                "velocity": 64,
                "duration": 0.1818182,
                "tempo": 120.0
            },
            {
                "start_time": 28.0886364,
                "end_time": 28.2772727,
                "pitch": 41,
                "velocity": 64,
                "duration": 0.1886364,
                "tempo": 120.0
            },
            {
                "start_time": 28.2931818,
                "end_time": 28.3795455,
                "pitch": 29,
                "velocity": 64,
                "duration": 0.0863636,
                "tempo": 120.0
            },
            {
                "start_time": 28.3954545,
                "end_time": 28.5795455,
                "pitch": 41,
                "velocity": 64,
                "duration": 0.1840909,
                "tempo": 120.0
            },
            {
                "start_time": 28.5977273,
                "end_time": 28.6772727,
                "pitch": 29,
                "velocity": 64,
                "duration": 0.0795455,
                "tempo": 120.0
            },
            {
                "start_time": 28.6954545,
                "end_time": 28.875,
                "pitch": 41,
                "velocity": 64,
                "duration": 0.1795455,
                "tempo": 120.0
            },
            {
                "start_time": 28.8909091,
                "end_time": 29.0795455,
                "pitch": 39,
                "velocity": 64,
                "duration": 0.1886364,
                "tempo": 120.0
            },
            {
                "start_time": 29.0954545,
                "end_time": 29.1818182,
                "pitch": 27,
                "velocity": 64,
                "duration": 0.0863636,
                "tempo": 120.0
            },
            {
                "start_time": 29.2,
                "end_time": 29.3818182,
                "pitch": 39,
                "velocity": 64,
                "duration": 0.1818182,
                "tempo": 120.0
            },
            {
                "start_time": 29.4,
                "end_time": 29.4818182,
                "pitch": 27,
                "velocity": 64,
                "duration": 0.0818182,
                "tempo": 120.0
            },
            {
                "start_time": 29.4977273,
                "end_time": 29.6772727,
                "pitch": 39,
                "velocity": 64,
                "duration": 0.1795455,
                "tempo": 120.0
            },
            {
                "start_time": 29.6931818,
                "end_time": 29.8818182,
                "pitch": 41,
                "velocity": 64,
                "duration": 0.1886364,
                "tempo": 120.0
            },
            {
                "start_time": 29.8977273,
                "end_time": 29.9840909,
                "pitch": 29,
                "velocity": 64,
                "duration": 0.0863636,
                "tempo": 120.0
            },
            {
                "start_time": 30.0022727,
                "end_time": 30.1863636,
                "pitch": 41,
                "velocity": 64,
                "duration": 0.1840909,
                "tempo": 120.0
            },
            {
                "start_time": 30.2022727,
                "end_time": 30.2840909,
                "pitch": 29,
                "velocity": 64,
                "duration": 0.0818182,
                "tempo": 120.0
            },
            {
                "start_time": 30.3,
                "end_time": 30.4795455,
                "pitch": 41,
                "velocity": 64,
                "duration": 0.1795455,
                "tempo": 120.0
            },
            {
                "start_time": 30.4954545,
                "end_time": 30.6840909,
                "pitch": 39,
                "velocity": 64,
                "duration": 0.1886364,
                "tempo": 120.0
            },
            {
                "start_time": 30.7022727,
                "end_time": 30.7863636,
                "pitch": 27,
                "velocity": 64,
                "duration": 0.0840909,
                "tempo": 120.0
            },
            {
                "start_time": 30.8045455,
                "end_time": 30.9886364,
                "pitch": 39,
                "velocity": 64,
                "duration": 0.1840909,
                "tempo": 120.0
            },
            {
                "start_time": 31.0045455,
                "end_time": 31.0863636,
                "pitch": 27,
                "velocity": 64,
                "duration": 0.0818182,
                "tempo": 120.0
            },
            {
                "start_time": 31.1022727,
                "end_time": 31.2818182,
                "pitch": 39,
                "velocity": 64,
                "duration": 0.1795455,
                "tempo": 120.0
            },
            {
                "start_time": 31.2977273,
                "end_time": 31.4863636,
                "pitch": 41,
                "velocity": 64,
                "duration": 0.1886364,
                "tempo": 120.0
            },
            {
                "start_time": 31.5045455,
                "end_time": 31.5886364,
                "pitch": 29,
                "velocity": 64,
                "duration": 0.0840909,
                "tempo": 120.0
            },
            {
                "start_time": 31.6068182,
                "end_time": 31.7909091,
                "pitch": 41,
                "velocity": 64,
                "duration": 0.1840909,
                "tempo": 120.0
            },
            {
                "start_time": 31.8068182,
                "end_time": 31.8886364,
                "pitch": 29,
                "velocity": 64,
                "duration": 0.0818182,
                "tempo": 120.0
            },
            {
                "start_time": 31.9045455,
                "end_time": 32.0840909,
                "pitch": 41,
                "velocity": 64,
                "duration": 0.1795455,
                "tempo": 120.0
            },
            {
                "start_time": 32.1022727,
                "end_time": 32.2886364,
                "pitch": 39,
                "velocity": 64,
                "duration": 0.1863636,
                "tempo": 120.0
            },
            {
                "start_time": 32.3068182,
                "end_time": 32.3931818,
                "pitch": 39,
                "velocity": 64,
                "duration": 0.0863636,
                "tempo": 120.0
            },
            {
                "start_time": 32.4090909,
                "end_time": 32.4954545,
                "pitch": 51,
                "velocity": 64,
                "duration": 0.0863636,
                "tempo": 120.0
            },
            {
                "start_time": 32.5113636,
                "end_time": 32.6954545,
                "pitch": 39,
                "velocity": 64,
                "duration": 0.1840909,
                "tempo": 120.0
            },
            {
                "start_time": 32.7113636,
                "end_time": 32.7954545,
                "pitch": 39,
                "velocity": 64,
                "duration": 0.0840909,
                "tempo": 120.0
            },
            {
                "start_time": 32.8113636,
                "end_time": 32.8954545,
                "pitch": 51,
                "velocity": 64,
                "duration": 0.0840909,
                "tempo": 120.0
            },
            {
                "start_time": 32.9113636,
                "end_time": 33.0954545,
                "pitch": 39,
                "velocity": 64,
                "duration": 0.1840909,
                "tempo": 120.0
            },
            {
                "start_time": 33.1113636,
                "end_time": 33.1954545,
                "pitch": 39,
                "velocity": 64,
                "duration": 0.0840909,
                "tempo": 120.0
            },
            {
                "start_time": 33.2113636,
                "end_time": 33.2954545,
                "pitch": 51,
                "velocity": 64,
                "duration": 0.0840909,
                "tempo": 120.0
            },
            {
                "start_time": 33.3113636,
                "end_time": 33.4977273,
                "pitch": 39,
                "velocity": 64,
                "duration": 0.1863636,
                "tempo": 120.0
            },
            {
                "start_time": 33.5136364,
                "end_time": 33.5977273,
                "pitch": 39,
                "velocity": 64,
                "duration": 0.0840909,
                "tempo": 120.0
            },
            {
                "start_time": 33.6136364,
                "end_time": 33.6977273,
                "pitch": 51,
                "velocity": 64,
                "duration": 0.0840909,
                "tempo": 120.0
            },
            {
                "start_time": 33.7159091,
                "end_time": 33.8977273,
                "pitch": 41,
                "velocity": 64,
                "duration": 0.1818182,
                "tempo": 120.0
            },
            {
                "start_time": 33.9159091,
                "end_time": 33.9977273,
                "pitch": 41,
                "velocity": 64,
                "duration": 0.0818182,
                "tempo": 120.0
            },
            {
                "start_time": 34.0159091,
                "end_time": 34.0977273,
                "pitch": 53,
                "velocity": 64,
                "duration": 0.0818182,
                "tempo": 120.0
            },
            {
                "start_time": 34.1159091,
                "end_time": 34.2977273,
                "pitch": 41,
                "velocity": 64,
                "duration": 0.1818182,
                "tempo": 120.0
            },
            {
                "start_time": 34.3159091,
                "end_time": 34.3977273,
                "pitch": 41,
                "velocity": 64,
                "duration": 0.0818182,
                "tempo": 120.0
            },
            {
                "start_time": 34.4159091,
                "end_time": 34.4977273,
                "pitch": 53,
                "velocity": 64,
                "duration": 0.0818182,
                "tempo": 120.0
            },
            {
                "start_time": 34.5159091,
                "end_time": 34.6977273,
                "pitch": 41,
                "velocity": 64,
                "duration": 0.1818182,
                "tempo": 120.0
            },
            {
                "start_time": 34.7159091,
                "end_time": 34.7977273,
                "pitch": 41,
                "velocity": 64,
                "duration": 0.0818182,
                "tempo": 120.0
            },
            {
                "start_time": 34.8159091,
                "end_time": 34.8977273,
                "pitch": 53,
                "velocity": 64,
                "duration": 0.0818182,
                "tempo": 120.0
            },
            {
                "start_time": 34.9159091,
                "end_time": 35.0977273,
                "pitch": 41,
                "velocity": 64,
                "duration": 0.1818182,
                "tempo": 120.0
            },
            {
                "start_time": 35.1159091,
                "end_time": 35.1977273,
                "pitch": 41,
                "velocity": 64,
                "duration": 0.0818182,
                "tempo": 120.0
            },
            {
                "start_time": 35.2159091,
                "end_time": 35.2977273,
                "pitch": 53,
                "velocity": 64,
                "duration": 0.0818182,
                "tempo": 120.0
            },
            {
                "start_time": 35.3159091,
                "end_time": 35.5,
                "pitch": 31,
                "velocity": 64,
                "duration": 0.1840909,
                "tempo": 120.0
            },
            {
                "start_time": 35.5159091,
                "end_time": 35.6,
                "pitch": 31,
                "velocity": 64,
                "duration": 0.0840909,
                "tempo": 120.0
            },
            {
                "start_time": 35.6159091,
                "end_time": 35.7,
                "pitch": 43,
                "velocity": 64,
                "duration": 0.0840909,
                "tempo": 120.0
            },
            {
                "start_time": 35.7181818,
                "end_time": 35.9,
                "pitch": 31,
                "velocity": 64,
                "duration": 0.1818182,
                "tempo": 120.0
            },
            {
                "start_time": 35.9181818,
                "end_time": 36.0,
                "pitch": 31,
                "velocity": 64,
                "duration": 0.0818182,
                "tempo": 120.0
            },
            {
                "start_time": 36.0181818,
                "end_time": 36.1,
                "pitch": 43,
                "velocity": 64,
                "duration": 0.0818182,
                "tempo": 120.0
            },
            {
                "start_time": 36.1181818,
                "end_time": 36.3,
                "pitch": 31,
                "velocity": 64,
                "duration": 0.1818182,
                "tempo": 120.0
            },
            {
                "start_time": 36.3181818,
                "end_time": 36.4,
                "pitch": 31,
                "velocity": 64,
                "duration": 0.0818182,
                "tempo": 120.0
            },
            {
                "start_time": 36.4181818,
                "end_time": 36.5,
                "pitch": 43,
                "velocity": 64,
                "duration": 0.0818182,
                "tempo": 120.0
            },
            {
                "start_time": 36.5181818,
                "end_time": 36.7,
                "pitch": 31,
                "velocity": 64,
                "duration": 0.1818182,
                "tempo": 120.0
            },
            {
                "start_time": 36.7181818,
                "end_time": 36.8,
                "pitch": 31,
                "velocity": 64,
                "duration": 0.0818182,
                "tempo": 120.0
            },
            {
                "start_time": 36.8181818,
                "end_time": 36.9,
                "pitch": 43,
                "velocity": 64,
                "duration": 0.0818182,
                "tempo": 120.0
            },
            {
                "start_time": 36.9181818,
                "end_time": 37.1,
                "pitch": 31,
                "velocity": 64,
                "duration": 0.1818182,
                "tempo": 120.0
            },
            {
                "start_time": 37.1181818,
                "end_time": 37.2,
                "pitch": 31,
                "velocity": 64,
                "duration": 0.0818182,
                "tempo": 120.0
            },
            {
                "start_time": 37.2181818,
                "end_time": 37.3,
                "pitch": 43,
                "velocity": 64,
                "duration": 0.0818182,
                "tempo": 120.0
            },
            {
                "start_time": 37.3181818,
                "end_time": 37.5022727,
                "pitch": 31,
                "velocity": 64,
                "duration": 0.1840909,
                "tempo": 120.0
            },
            {
                "start_time": 37.5181818,
                "end_time": 37.6022727,
                "pitch": 31,
                "velocity": 64,
                "duration": 0.0840909,
                "tempo": 120.0
            },
            {
                "start_time": 37.6204545,
                "end_time": 37.7045455,
                "pitch": 43,
                "velocity": 64,
                "duration": 0.0840909,
                "tempo": 120.0
            },
            {
                "start_time": 37.7204545,
                "end_time": 37.9045455,
                "pitch": 31,
                "velocity": 64,
                "duration": 0.1840909,
                "tempo": 120.0
            },
            {
                "start_time": 37.9204545,
                "end_time": 38.0045455,
                "pitch": 31,
                "velocity": 64,
                "duration": 0.0840909,
                "tempo": 120.0
            },
            {
                "start_time": 38.0204545,
                "end_time": 38.1045455,
                "pitch": 43,
                "velocity": 64,
                "duration": 0.0840909,
                "tempo": 120.0
            },
            {
                "start_time": 38.1204545,
                "end_time": 38.3045455,
                "pitch": 31,
                "velocity": 64,
                "duration": 0.1840909,
                "tempo": 120.0
            },
            {
                "start_time": 38.3204545,
                "end_time": 38.4045455,
                "pitch": 31,
                "velocity": 64,
                "duration": 0.0840909,
                "tempo": 120.0
            },
            {
                "start_time": 38.4204545,
                "end_time": 38.5045455,
                "pitch": 43,
                "velocity": 64,
                "duration": 0.0840909,
                "tempo": 120.0
            },
            {
                "start_time": 38.5204545,
                "end_time": 38.5363636,
                "pitch": 31,
                "velocity": 64,
                "duration": 0.0159091,
                "tempo": 120.0
            }
        ],
        "Violin": [
            {
                "start_time": 0.0340909,
                "end_time": 0.8181818,
                "pitch": 62,
                "velocity": 101,
                "duration": 0.7840909,
                "tempo": 120.0
            },
            {
                "start_time": 0.8363636,
                "end_time": 1.0181818,
                "pitch": 67,
                "velocity": 101,
                "duration": 0.1818182,
                "tempo": 120.0
            },
            {
                "start_time": 1.0363636,
                "end_time": 1.4181818,
                "pitch": 65,
                "velocity": 101,
                "duration": 0.3818182,
                "tempo": 120.0
            },
            {
                "start_time": 1.4363636,
                "end_time": 1.6181818,
                "pitch": 60,
                "velocity": 101,
                "duration": 0.1818182,
                "tempo": 120.0
            },
            {
                "start_time": 1.6363636,
                "end_time": 2.4204545,
                "pitch": 58,
                "velocity": 101,
                "duration": 0.7840909,
                "tempo": 120.0
            },
            {
                "start_time": 2.4386364,
                "end_time": 2.6204545,
                "pitch": 57,
                "velocity": 101,
                "duration": 0.1818182,
                "tempo": 120.0
            },
            {
                "start_time": 2.6386364,
                "end_time": 3.0204545,
                "pitch": 58,
                "velocity": 101,
                "duration": 0.3818182,
                "tempo": 120.0
            },
            {
                "start_time": 3.0386364,
                "end_time": 3.2227273,
                "pitch": 60,
                "velocity": 101,
                "duration": 0.1840909,
                "tempo": 120.0
            },
            {
                "start_time": 3.2386364,
                "end_time": 6.4318182,
                "pitch": 62,
                "velocity": 101,
                "duration": 3.1931818,
                "tempo": 120.0
            },
            {
                "start_time": 6.45,
                "end_time": 7.2340909,
                "pitch": 62,
                "velocity": 101,
                "duration": 0.7840909,
                "tempo": 120.0
            },
            {
                "start_time": 7.2522727,
                "end_time": 7.4363636,
                "pitch": 67,
                "velocity": 101,
                "duration": 0.1840909,
                "tempo": 120.0
            },
            {
                "start_time": 7.4522727,
                "end_time": 7.8386364,
                "pitch": 65,
                "velocity": 101,
                "duration": 0.3863636,
                "tempo": 120.0
            },
            {
                "start_time": 7.8545455,
                "end_time": 8.0386364,
                "pitch": 60,
                "velocity": 101,
                "duration": 0.1840909,
                "tempo": 120.0
            },
            {
                "start_time": 8.0545455,
                "end_time": 8.8431818,
                "pitch": 58,
                "velocity": 101,
                "duration": 0.7886364,
                "tempo": 120.0
            },
            {
                "start_time": 8.8590909,
                "end_time": 9.0454545,
                "pitch": 57,
                "velocity": 101,
                "duration": 0.1863636,
                "tempo": 120.0
            },
            {
                "start_time": 9.0613636,
                "end_time": 9.4454545,
                "pitch": 58,
                "velocity": 101,
                "duration": 0.3840909,
                "tempo": 120.0
            },
            {
                "start_time": 9.4613636,
                "end_time": 9.6454545,
                "pitch": 60,
                "velocity": 101,
                "duration": 0.1840909,
                "tempo": 120.0
            },
            {
                "start_time": 9.6636364,
                "end_time": 9.8477273,
                "pitch": 58,
                "velocity": 101,
                "duration": 0.1840909,
                "tempo": 120.0
            },
            {
                "start_time": 9.8636364,
                "end_time": 12.8545455,
                "pitch": 55,
                "velocity": 101,
                "duration": 2.9909091,
                "tempo": 120.0
            },
            {
                "start_time": 12.8704545,
                "end_time": 13.1636364,
                "pitch": 67,
                "velocity": 101,
                "duration": 0.2931818,
                "tempo": 120.0
            },
            {
                "start_time": 13.1795455,
                "end_time": 13.4704545,
                "pitch": 69,
                "velocity": 101,
                "duration": 0.2909091,
                "tempo": 120.0
            },
            {
                "start_time": 13.4886364,
                "end_time": 14.4681818,
                "pitch": 70,
                "velocity": 101,
                "duration": 0.9795455,
                "tempo": 120.0
            },
            {
                "start_time": 14.4840909,
                "end_time": 14.7704545,
                "pitch": 69,
                "velocity": 101,
                "duration": 0.2863636,
                "tempo": 120.0
            },
            {
                "start_time": 14.7863636,
                "end_time": 15.0772727,
                "pitch": 67,
                "velocity": 101,
                "duration": 0.2909091,
                "tempo": 120.0
            },
            {
                "start_time": 15.0931818,
                "end_time": 16.075,
                "pitch": 65,
                "velocity": 101,
                "duration": 0.9818182,
                "tempo": 120.0
            },
            {
                "start_time": 16.0909091,
                "end_time": 16.4772727,
                "pitch": 67,
                "velocity": 101,
                "duration": 0.3863636,
                "tempo": 120.0
            },
            {
                "start_time": 16.4931818,
                "end_time": 16.8772727,
                "pitch": 55,
                "velocity": 101,
                "duration": 0.3840909,
                "tempo": 120.0
            },
            {
                "start_time": 16.8931818,
                "end_time": 17.0772727,
                "pitch": 58,
                "velocity": 101,
                "duration": 0.1840909,
                "tempo": 120.0
            },
            {
                "start_time": 17.0954545,
                "end_time": 17.2795455,
                "pitch": 60,
                "velocity": 101,
                "duration": 0.1840909,
                "tempo": 120.0
            },
            {
                "start_time": 17.2954545,
                "end_time": 17.4795455,
                "pitch": 58,
                "velocity": 101,
                "duration": 0.1840909,
                "tempo": 120.0
            },
            {
                "start_time": 17.4954545,
                "end_time": 18.4818182,
                "pitch": 62,
                "velocity": 101,
                "duration": 0.9863636,
                "tempo": 120.0
            },
            {
                "start_time": 18.5,
                "end_time": 18.8818182,
                "pitch": 63,
                "velocity": 101,
                "duration": 0.3818182,
                "tempo": 120.0
            },
            {
                "start_time": 18.9,
                "end_time": 19.2840909,
                "pitch": 65,
                "velocity": 101,
                "duration": 0.3840909,
                "tempo": 120.0
            },
            {
                "start_time": 19.3022727,
                "end_time": 19.5840909,
                "pitch": 67,
                "velocity": 101,
                "duration": 0.2818182,
                "tempo": 120.0
            },
            {
                "start_time": 19.6022727,
                "end_time": 19.8863636,
                "pitch": 69,
                "velocity": 101,
                "duration": 0.2840909,
                "tempo": 120.0
            },
            {
                "start_time": 19.9022727,
                "end_time": 20.8909091,
                "pitch": 70,
                "velocity": 101,
                "duration": 0.9886364,
                "tempo": 120.0
            },
            {
                "start_time": 20.9068182,
                "end_time": 21.1931818,
                "pitch": 69,
                "velocity": 101,
                "duration": 0.2863636,
                "tempo": 120.0
            },
            {
                "start_time": 21.2090909,
                "end_time": 21.4977273,
                "pitch": 67,
                "velocity": 101,
                "duration": 0.2886364,
                "tempo": 120.0
            },
            {
                "start_time": 21.5159091,
                "end_time": 22.4954545,
                "pitch": 65,
                "velocity": 101,
                "duration": 0.9795455,
                "tempo": 120.0
            },
            {
                "start_time": 22.5136364,
                "end_time": 23.3,
                "pitch": 67,
                "velocity": 101,
                "duration": 0.7863636,
                "tempo": 120.0
            },
            {
                "start_time": 23.3159091,
                "end_time": 23.5,
                "pitch": 67,
                "velocity": 101,
                "duration": 0.1840909,
                "tempo": 120.0
            },
            {
                "start_time": 23.5159091,
                "end_time": 23.7,
                "pitch": 69,
                "velocity": 101,
                "duration": 0.1840909,
                "tempo": 120.0
            },
            {
                "start_time": 23.7159091,
                "end_time": 23.9,
                "pitch": 70,
                "velocity": 101,
                "duration": 0.1840909,
                "tempo": 120.0
            },
            {
                "start_time": 23.9181818,
                "end_time": 24.5022727,
                "pitch": 69,
                "velocity": 101,
                "duration": 0.5840909,
                "tempo": 120.0
            },
            {
                "start_time": 24.5181818,
                "end_time": 24.9022727,
                "pitch": 69,
                "velocity": 101,
                "duration": 0.3840909,
                "tempo": 120.0
            },
            {
                "start_time": 24.9181818,
                "end_time": 25.3045455,
                "pitch": 70,
                "velocity": 101,
                "duration": 0.3863636,
                "tempo": 120.0
            },
            {
                "start_time": 25.3204545,
                "end_time": 25.7045455,
                "pitch": 72,
                "velocity": 101,
                "duration": 0.3840909,
                "tempo": 120.0
            },
            {
                "start_time": 25.7204545,
                "end_time": 28.9068182,
                "pitch": 74,
                "velocity": 101,
                "duration": 3.1863636,
                "tempo": 120.0
            },
            {
                "start_time": 28.925,
                "end_time": 32.1181818,
                "pitch": 74,
                "velocity": 101,
                "duration": 3.1931818,
                "tempo": 120.0
            },
            {
                "start_time": 32.1363636,
                "end_time": 32.9295455,
                "pitch": 63,
                "velocity": 101,
                "duration": 0.7931818,
                "tempo": 120.0
            },
            {
                "start_time": 32.9454545,
                "end_time": 33.1295455,
                "pitch": 55,
                "velocity": 101,
                "duration": 0.1840909,
                "tempo": 120.0
            },
            {
                "start_time": 33.1454545,
                "end_time": 33.3295455,
                "pitch": 58,
                "velocity": 101,
                "duration": 0.1840909,
                "tempo": 120.0
            },
            {
                "start_time": 33.3454545,
                "end_time": 33.5295455,
                "pitch": 63,
                "velocity": 101,
                "duration": 0.1840909,
                "tempo": 120.0
            },
            {
                "start_time": 33.5477273,
                "end_time": 34.1318182,
                "pitch": 65,
                "velocity": 101,
                "duration": 0.5840909,
                "tempo": 120.0
            },
            {
                "start_time": 34.1477273,
                "end_time": 34.5318182,
                "pitch": 65,
                "velocity": 101,
                "duration": 0.3840909,
                "tempo": 120.0
            },
            {
                "start_time": 34.5477273,
                "end_time": 34.9318182,
                "pitch": 60,
                "velocity": 101,
                "duration": 0.3840909,
                "tempo": 120.0
            },
            {
                "start_time": 34.9477273,
                "end_time": 35.3318182,
                "pitch": 57,
                "velocity": 101,
                "duration": 0.3840909,
                "tempo": 120.0
            },
            {
                "start_time": 35.3477273,
                "end_time": 38.5363636,
                "pitch": 59,
                "velocity": 101,
                "duration": 3.1886364,
                "tempo": 120.0
            }
        ]
    }
}