{
    "mood": "angry",
    "instruments": {
        "Electric Guitar (clean)": [
            {
                "start_time": 0.0,
                "end_time": 0.3659091,
                "pitch": 30,
                "velocity": 51,
                "duration": 0.3659091,
                "tempo": 120.0
            },
            {
                "start_time": 0.3840909,
                "end_time": 0.7659091,
                "pitch": 30,
                "velocity": 51,
                "duration": 0.3818182,
                "tempo": 120.0
            },
            {
                "start_time": 0.7840909,
                "end_time": 1.15,
                "pitch": 30,
                "velocity": 51,
                "duration": 0.3659091,
                "tempo": 120.0
            },
            {
                "start_time": 1.1659091,
                "end_time": 1.5477273,
                "pitch": 30,
                "velocity": 51,
                "duration": 0.3818182,
                "tempo": 120.0
            },
            {
                "start_time": 1.5659091,
                "end_time": 1.9590909,
                "pitch": 30,
                "velocity": 51,
                "duration": 0.3931818,
                "tempo": 120.0
            },
            {
                "start_time": 1.9772727,
                "end_time": 2.3704545,
                "pitch": 30,
                "velocity": 51,
                "duration": 0.3931818,
                "tempo": 120.0
            },
            {
                "start_time": 2.3863636,
                "end_time": 2.7522727,
                "pitch": 30,
                "velocity": 51,
                "duration": 0.3659091,
                "tempo": 120.0
            },
            {
                "start_time": 2.7681818,
                "end_time": 3.1522727,
                "pitch": 30,
                "velocity": 51,
                "duration": 0.3840909,
                "tempo": 120.0
            },
            {
                "start_time": 3.1681818,
                "end_time": 3.5727273,
                "pitch": 30,
                "velocity": 51,
                "duration": 0.4045455,
                "tempo": 120.0
            },
            {
                "start_time": 3.5909091,
                "end_time": 3.975,
                "pitch": 30,
                "velocity": 51,
                "duration": 0.3840909,
                "tempo": 120.0
            },
            {
                "start_time": 3.9909091,
                "end_time": 4.3568182,
                "pitch": 30,
                "velocity": 51,
                "duration": 0.3659091,
                "tempo": 120.0
            },
            {
                "start_time": 4.375,
                "end_time": 4.7568182,
                "pitch": 30,
                "velocity": 51,
                "duration": 0.3818182,
                "tempo": 120.0
            },
            {
                "start_time": 4.775,
                "end_time": 5.1681818,
                "pitch": 30,
                "velocity": 51,
                "duration": 0.3931818,
                "tempo": 120.0
            },
            {
                "start_time": 5.1840909,
                "end_time": 5.5795455,
                "pitch": 30,
                "velocity": 51,
                "duration": 0.3954545,
                "tempo": 120.0
            },
            {
                "start_time": 5.5954545,
                "end_time": 5.9613636,
                "pitch": 30,
                "velocity": 51,
                "duration": 0.3659091,
                "tempo": 120.0
            },
            {
                "start_time": 5.9772727,
                "end_time": 6.3636364,
                "pitch": 30,
                "velocity": 51,
                "duration": 0.3863636,
                "tempo": 120.0
            },
            {
                "start_time": 6.3795455,
                "end_time": 6.7840909,
                "pitch": 33,
                "velocity": 51,
                "duration": 0.4045455,
                "tempo": 120.0
            },
            {
                "start_time": 6.8022727,
                "end_time": 7.1863636,
                "pitch": 33,
                "velocity": 51,
                "duration": 0.3840909,
                "tempo": 120.0
            },
            {
                "start_time": 7.2022727,
                "end_time": 7.5681818,
                "pitch": 33,
                "velocity": 51,
                "duration": 0.3659091,
                "tempo": 120.0
            },
            {
                "start_time": 7.5840909,
                "end_time": 7.9795455,
                "pitch": 33,
                "velocity": 51,
                "duration": 0.3954545,
                "tempo": 120.0
            },
            {
                "start_time": 7.9954545,
                "end_time": 8.3886364,
                "pitch": 33,
                "velocity": 51,
                "duration": 0.3931818,
                "tempo": 120.0
            },
            {
                "start_time": 8.4068182,
                "end_time": 8.7931818,
                "pitch": 33,
                "velocity": 51,
                "duration": 0.3863636,
                "tempo": 120.0
            },
            {
                "start_time": 8.8090909,
                "end_time": 9.1954545,
                "pitch": 33,
                "velocity": 51,
                "duration": 0.3863636,
                "tempo": 120.0
            },
            {
                "start_time": 9.2113636,
                "end_time": 9.5954545,
                "pitch": 33,
                "velocity": 51,
                "duration": 0.3840909,
                "tempo": 120.0
            },
            {
                "start_time": 9.6113636,
                "end_time": 9.9977273,
                "pitch": 33,
                "velocity": 51,
                "duration": 0.3863636,
                "tempo": 120.0
            },
            {
                "start_time": 10.0159091,
                "end_time": 10.3909091,
                "pitch": 33,
                "velocity": 51,
                "duration": 0.375,
                "tempo": 120.0
            },
            {
                "start_time": 10.4068182,
                "end_time": 10.7840909,
                "pitch": 33,
                "velocity": 51,
                "duration": 0.3772727,
                "tempo": 120.0
            },
            {
                "start_time": 10.8,
                "end_time": 11.1931818,
                "pitch": 33,
                "velocity": 51,
                "duration": 0.3931818,
                "tempo": 120.0
            },
            {
                "start_time": 11.2090909,
                "end_time": 11.6045455,
                "pitch": 33,
                "velocity": 51,
                "duration": 0.3954545,
                "tempo": 120.0
            },
            {
                "start_time": 11.6204545,
                "end_time": 12.0068182,
                "pitch": 33,
                "velocity": 51,
                "duration": 0.3863636,
                "tempo": 120.0
            },
            {
                "start_time": 12.025,
                "end_time": 12.4090909,
                "pitch": 33,
                "velocity": 51,
                "duration": 0.3840909,
                "tempo": 120.0
            },
            {
                "start_time": 12.4272727,
                "end_time": 12.8136364,
                "pitch": 33,
                "velocity": 51,
                "duration": 0.3863636,
                "tempo": 120.0
            },
            {
                "start_time": 12.8295455,
                "end_time": 13.2159091,
                "pitch": 30,
                "velocity": 51,
                "duration": 0.3863636,
                "tempo": 120.0
            },
            {
                "start_time": 13.2318182,
                "end_time": 13.6090909,
                "pitch": 30,
                "velocity": 51,
                "duration": 0.3772727,
                "tempo": 120.0
            },
            {
                "start_time": 13.625,
                "end_time": 14.0,
                "pitch": 30,
                "velocity": 51,
                "duration": 0.375,
                "tempo": 120.0
            },
            {
                "start_time": 14.0159091,
                "end_time": 14.4022727,
                "pitch": 30,
                "velocity": 51,
                "duration": 0.3863636,
                "tempo": 120.0
            },
            {
                "start_time": 14.4204545,
                "end_time": 14.8136364,
                "pitch": 30,
                "velocity": 51,
                "duration": 0.3931818,
                "tempo": 120.0
            },
            {
                "start_time": 14.8295455,
                "end_time": 15.225,
                "pitch": 30,
                "velocity": 51,
                "duration": 0.3954545,
                "tempo": 120.0
            },
            {
                "start_time": 15.2409091,
                "end_time": 15.6068182,
                "pitch": 30,
                "velocity": 51,
                "duration": 0.3659091,
                "tempo": 120.0
            },
            {
                "start_time": 15.6227273,
                "end_time": 16.0090909,
                "pitch": 30,
                "velocity": 51,
                "duration": 0.3863636,
                "tempo": 120.0
            },
            {
                "start_time": 16.025,
                "end_time": 16.4204545,
                "pitch": 30,
                "velocity": 51,
                "duration": 0.3954545,
                "tempo": 120.0
            },
            {
                "start_time": 16.4363636,
                "end_time": 16.8227273,
                "pitch": 30,
                "velocity": 51,
                "duration": 0.3863636,
                "tempo": 120.0
            },
            {
                "start_time": 16.8386364,
                "end_time": 17.2159091,
                "pitch": 30,
                "velocity": 51,
                "duration": 0.3772727,
                "tempo": 120.0
            },
            {
                "start_time": 17.2318182,
                "end_time": 17.6159091,
                "pitch": 30,
                "velocity": 51,
                "duration": 0.3840909,
                "tempo": 120.0
            },
            {
                "start_time": 17.6318182,
                "end_time": 18.025,
                "pitch": 30,
                "velocity": 51,
                "duration": 0.3931818,
                "tempo": 120.0
            },
            {
                "start_time": 18.0431818,
                "end_time": 18.4363636,
                "pitch": 30,
                "velocity": 51,
                "duration": 0.3931818,
                "tempo": 120.0
            },
            {
                "start_time": 18.4522727,
                "end_time": 18.8204545,
                "pitch": 30,
                "velocity": 51,
                "duration": 0.3681818,
                "tempo": 120.0
            },
            {
                "start_time": 18.8363636,
                "end_time": 19.2204545,
                "pitch": 30,
                "velocity": 51,
                "duration": 0.3840909,
                "tempo": 120.0
            },
            {
                "start_time": 19.2386364,
                "end_time": 19.6431818,
                "pitch": 33,
                "velocity": 51,
                "duration": 0.4045455,
                "tempo": 120.0
            },
            {
                "start_time": 19.6590909,
                "end_time": 20.0363636,
                "pitch": 33,
                "velocity": 51,
                "duration": 0.3772727,
                "tempo": 120.0
            },
            {
                "start_time": 20.0522727,
                "end_time": 20.4295455,
                "pitch": 33,
                "velocity": 51,
                "duration": 0.3772727,
                "tempo": 120.0
            },
            {
                "start_time": 20.4454545,
                "end_time": 20.8386364,
                "pitch": 33,
                "velocity": 51,
                "duration": 0.3931818,
                "tempo": 120.0
            },
            {
                "start_time": 20.8545455,
                "end_time": 21.25,
                "pitch": 33,
                "velocity": 51,
                "duration": 0.3954545,
                "tempo": 120.0
            },
            {
                "start_time": 21.2659091,
                "end_time": 21.65,
                "pitch": 33,
                "velocity": 51,
                "duration": 0.3840909,
                "tempo": 120.0
            },
            {
                "start_time": 21.6659091,
                "end_time": 22.0522727,
                "pitch": 33,
                "velocity": 51,
                "duration": 0.3863636,
                "tempo": 120.0
            },
            {
                "start_time": 22.0704545,
                "end_time": 22.4522727,
                "pitch": 33,
                "velocity": 51,
                "duration": 0.3818182,
                "tempo": 120.0
            },
            {
                "start_time": 22.4704545,
                "end_time": 22.8522727,
                "pitch": 33,
                "velocity": 51,
                "duration": 0.3818182,
                "tempo": 120.0
            },
            {
                "start_time": 22.8704545,
                "end_time": 23.2545455,
                "pitch": 33,
                "velocity": 51,
                "duration": 0.3840909,
                "tempo": 120.0
            },
            {
                "start_time": 23.2727273,
                "end_time": 23.6386364,
                "pitch": 33,
                "velocity": 51,
                "duration": 0.3659091,
                "tempo": 120.0
            },
            {
                "start_time": 23.6545455,
                "end_time": 24.0477273,
                "pitch": 33,
                "velocity": 51,
                "duration": 0.3931818,
                "tempo": 120.0
            },
            {
                "start_time": 24.0636364,
                "end_time": 24.4590909,
                "pitch": 33,
                "velocity": 51,
                "duration": 0.3954545,
                "tempo": 120.0
            },
            {
                "start_time": 24.475,
                "end_time": 24.8590909,
                "pitch": 33,
                "velocity": 51,
                "duration": 0.3840909,
                "tempo": 120.0
            },
            {
                "start_time": 24.875,
                "end_time": 25.2613636,
                "pitch": 33,
                "velocity": 51,
                "duration": 0.3863636,
                "tempo": 120.0
            },
            {
                "start_time": 25.2795455,
                "end_time": 25.6613636,
                "pitch": 33,
                "velocity": 51,
                "duration": 0.3818182,
                "tempo": 120.0
            },
            {
                "start_time": 25.6795455,
                "end_time": 25.825,
                "pitch": 35,
                "velocity": 51,
                "duration": 0.1454545,
                "tempo": 120.0
            },
            {
                "start_time": 25.8431818,
                "end_time": 26.0227273,
                "pitch": 33,
                "velocity": 51,
                "duration": 0.1795455,
                "tempo": 120.0
            },
            {
                "start_time": 26.0386364,
                "end_time": 26.1204545,
                "pitch": 33,
                "velocity": 51,
                "duration": 0.0818182,
                "tempo": 120.0
            },
            {
                "start_time": 26.1386364,
                "end_time": 26.3204545,
                "pitch": 35,
                "velocity": 51,
                "duration": 0.1818182,
                "tempo": 120.0
            },
            {
                "start_time": 26.3386364,
                "end_time": 26.5204545,
                "pitch": 35,
                "velocity": 51,
                "duration": 0.1818182,
                "tempo": 120.0
            },
            {
                "start_time": 26.5363636,
                "end_time": 26.6181818,
                "pitch": 35,
                "velocity": 51,
                "duration": 0.0818182,
                "tempo": 120.0
            },
            {
                "start_time": 26.6340909,
                "end_time": 26.8136364,
                "pitch": 33,
                "velocity": 51,
                "duration": 0.1795455,
                "tempo": 120.0
            },
            {
                "start_time": 26.8295455,
                "end_time": 26.9136364,
                "pitch": 33,
                "velocity": 51,
                "duration": 0.0840909,
                "tempo": 120.0
            },
            {
                "start_time": 26.9295455,
                "end_time": 27.0136364,
                "pitch": 35,
                "velocity": 51,
                "duration": 0.0840909,
                "tempo": 120.0
            },
            {
                "start_time": 28.8681818,
                "end_time": 29.0522727,
                "pitch": 33,
                "velocity": 51,
                "duration": 0.1840909,
                "tempo": 120.0
            },
            {
                "start_time": 29.0704545,
                "end_time": 29.2545455,
                "pitch": 35,
                "velocity": 51,
                "duration": 0.1840909,
                "tempo": 120.0
            },
            {
                "start_time": 29.2704545,
                "end_time": 29.4590909,
                "pitch": 38,
                "velocity": 51,
                "duration": 0.1886364,
                "tempo": 120.0
            },
            {
                "start_time": 29.4772727,
                "end_time": 29.5613636,
                "pitch": 38,
                "velocity": 51,
                "duration": 0.0840909,
                "tempo": 120.0
            },
            {
                "start_time": 29.5795455,
                "end_time": 29.8613636,
                "pitch": 33,
                "velocity": 51,
                "duration": 0.2818182,
                "tempo": 120.0
            },
            {
                "start_time": 29.8772727,
                "end_time": 30.1909091,
                "pitch": 33,
                "velocity": 51,
                "duration": 0.3136364,
                "tempo": 120.0
            },
            {
                "start_time": 30.2090909,
                "end_time": 30.4590909,
                "pitch": 34,
                "velocity": 51,
                "duration": 0.25,
                "tempo": 120.0
            },
            {
                "start_time": 30.4772727,
                "end_time": 30.8818182,
                "pitch": 30,
                "velocity": 51,
                "duration": 0.4045455,
                "tempo": 120.0
            },
            {
                "start_time": 30.8977273,
                "end_time": 31.275,
                "pitch": 30,
                "velocity": 51,
                "duration": 0.3772727,
                "tempo": 120.0
            },
            {
                "start_time": 31.2909091,
                "end_time": 31.6659091,
                "pitch": 30,
                "velocity": 51,
                "duration": 0.375,
                "tempo": 120.0
            },
            {
                "start_time": 31.6840909,
                "end_time": 32.0659091,
                "pitch": 30,
                "velocity": 51,
                "duration": 0.3818182,
                "tempo": 120.0
            },
            {
                "start_time": 32.0840909,
                "end_time": 32.4772727,
                "pitch": 30,
                "velocity": 51,
                "duration": 0.3931818,
                "tempo": 120.0
            },
            {
                "start_time": 32.4931818,
                "end_time": 32.8886364,
                "pitch": 30,
                "velocity": 51,
                "duration": 0.3954545,
                "tempo": 120.0
            },
            {
                "start_time": 32.9045455,
                "end_time": 33.2704545,
                "pitch": 30,
                "velocity": 51,
                "duration": 0.3659091,
                "tempo": 120.0
            },
            {
                "start_time": 33.2863636,
                "end_time": 33.6840909,
                "pitch": 30,
                "velocity": 51,
                "duration": 0.3977273,
                "tempo": 120.0
            }
        ],
        "Oboe": [
            {
                "start_time": 0.0840909,
                "end_time": 0.2659091,
                "pitch": 42,
                "velocity": 25,
                "duration": 0.1818182,
                "tempo": 120.0
            },
            {
                "start_time": 0.2840909,
                "end_time": 0.4659091,
                "pitch": 42,
                "velocity": 25,
                "duration": 0.1818182,
                "tempo": 120.0
            },
            {
                "start_time": 0.4840909,
                "end_time": 0.6659091,
                "pitch": 52,
                "velocity": 25,
                "duration": 0.1818182,
                "tempo": 120.0
            },
            {
                "start_time": 0.6840909,
                "end_time": 1.0545455,
                "pitch": 51,
                "velocity": 25,
                "duration": 0.3704545,
                "tempo": 120.0
            },
            {
                "start_time": 1.0704545,
                "end_time": 1.4477273,
                "pitch": 47,
                "velocity": 25,
                "duration": 0.3772727,
                "tempo": 120.0
            },
            {
                "start_time": 1.4659091,
                "end_time": 1.65,
                "pitch": 45,
                "velocity": 25,
                "duration": 0.1840909,
                "tempo": 120.0
            },
            {
                "start_time": 1.6681818,
                "end_time": 1.8568182,
                "pitch": 45,
                "velocity": 25,
                "duration": 0.1886364,
                "tempo": 120.0
            },
            {
                "start_time": 1.8727273,
                "end_time": 2.0613636,
                "pitch": 49,
                "velocity": 25,
                "duration": 0.1886364,
                "tempo": 120.0
            },
            {
                "start_time": 2.0954545,
                "end_time": 2.1636364,
                "pitch": 42,
                "velocity": 25,
                "duration": 0.0681818,
                "tempo": 120.0
            },
            {
                "start_time": 2.2,
                "end_time": 2.2681818,
                "pitch": 42,
                "velocity": 25,
                "duration": 0.0681818,
                "tempo": 120.0
            },
            {
                "start_time": 2.2840909,
                "end_time": 3.1636364,
                "pitch": 47,
                "velocity": 25,
                "duration": 0.8795455,
                "tempo": 120.0
            },
            {
                "start_time": 3.1636364,
                "end_time": 3.2568182,
                "pitch": 47,
                "velocity": 25,
                "duration": 0.0931818,
                "tempo": 120.0
            },
            {
                "start_time": 3.275,
                "end_time": 3.4681818,
                "pitch": 42,
                "velocity": 25,
                "duration": 0.1931818,
                "tempo": 120.0
            },
            {
                "start_time": 3.4863636,
                "end_time": 3.675,
                "pitch": 42,
                "velocity": 25,
                "duration": 0.1886364,
                "tempo": 120.0
            },
            {
                "start_time": 3.6909091,
                "end_time": 3.875,
                "pitch": 52,
                "velocity": 25,
                "duration": 0.1840909,
                "tempo": 120.0
            },
            {
                "start_time": 3.8909091,
                "end_time": 4.2613636,
                "pitch": 51,
                "velocity": 25,
                "duration": 0.3704545,
                "tempo": 120.0
            },
            {
                "start_time": 4.2772727,
                "end_time": 4.6568182,
                "pitch": 47,
                "velocity": 25,
                "duration": 0.3795455,
                "tempo": 120.0
            },
            {
                "start_time": 4.675,
                "end_time": 4.8590909,
                "pitch": 45,
                "velocity": 25,
                "duration": 0.1840909,
                "tempo": 120.0
            },
            {
                "start_time": 4.8772727,
                "end_time": 5.0659091,
                "pitch": 45,
                "velocity": 25,
                "duration": 0.1886364,
                "tempo": 120.0
            },
            {
                "start_time": 5.0818182,
                "end_time": 5.2704545,
                "pitch": 49,
                "velocity": 25,
                "duration": 0.1886364,
                "tempo": 120.0
            },
            {
                "start_time": 5.3045455,
                "end_time": 5.3727273,
                "pitch": 42,
                "velocity": 25,
                "duration": 0.0681818,
                "tempo": 120.0
            },
            {
                "start_time": 5.4068182,
                "end_time": 5.475,
                "pitch": 42,
                "velocity": 25,
                "duration": 0.0681818,
                "tempo": 120.0
            },
            {
                "start_time": 5.4931818,
                "end_time": 6.4681818,
                "pitch": 47,
                "velocity": 25,
                "duration": 0.975,
                "tempo": 120.0
            },
            {
                "start_time": 6.4863636,
                "end_time": 6.6795455,
                "pitch": 45,
                "velocity": 25,
                "duration": 0.1931818,
                "tempo": 120.0
            },
            {
                "start_time": 6.6977273,
                "end_time": 6.8863636,
                "pitch": 45,
                "velocity": 25,
                "duration": 0.1886364,
                "tempo": 120.0
            },
            {
                "start_time": 6.9022727,
                "end_time": 7.0863636,
                "pitch": 57,
                "velocity": 25,
                "duration": 0.1840909,
                "tempo": 120.0
            },
            {
                "start_time": 7.1022727,
                "end_time": 7.4727273,
                "pitch": 56,
                "velocity": 25,
                "duration": 0.3704545,
                "tempo": 120.0
            },
            {
                "start_time": 7.4886364,
                "end_time": 7.875,
                "pitch": 52,
                "velocity": 25,
                "duration": 0.3863636,
                "tempo": 120.0
            },
            {
                "start_time": 7.8931818,
                "end_time": 8.0818182,
                "pitch": 49,
                "velocity": 25,
                "duration": 0.1886364,
                "tempo": 120.0
            },
            {
                "start_time": 8.1159091,
                "end_time": 8.1840909,
                "pitch": 42,
                "velocity": 25,
                "duration": 0.0681818,
                "tempo": 120.0
            },
            {
                "start_time": 8.2022727,
                "end_time": 8.3886364,
                "pitch": 45,
                "velocity": 25,
                "duration": 0.1863636,
                "tempo": 120.0
            },
            {
                "start_time": 8.4227273,
                "end_time": 8.4909091,
                "pitch": 42,
                "velocity": 25,
                "duration": 0.0681818,
                "tempo": 120.0
            },
            {
                "start_time": 8.5068182,
                "end_time": 8.6931818,
                "pitch": 45,
                "velocity": 25,
                "duration": 0.1863636,
                "tempo": 120.0
            },
            {
                "start_time": 8.725,
                "end_time": 8.7931818,
                "pitch": 42,
                "velocity": 25,
                "duration": 0.0681818,
                "tempo": 120.0
            },
            {
                "start_time": 8.8090909,
                "end_time": 8.9931818,
                "pitch": 45,
                "velocity": 25,
                "duration": 0.1840909,
                "tempo": 120.0
            },
            {
                "start_time": 9.0272727,
                "end_time": 9.0954545,
                "pitch": 42,
                "velocity": 25,
                "duration": 0.0681818,
                "tempo": 120.0
            },
            {
                "start_time": 9.1113636,
                "end_time": 9.2954545,
                "pitch": 45,
                "velocity": 25,
                "duration": 0.1840909,
                "tempo": 120.0
            },
            {
                "start_time": 9.3113636,
                "end_time": 9.4954545,
                "pitch": 42,
                "velocity": 25,
                "duration": 0.1840909,
                "tempo": 120.0
            },
            {
                "start_time": 9.5113636,
                "end_time": 9.6954545,
                "pitch": 42,
                "velocity": 25,
                "duration": 0.1840909,
                "tempo": 120.0
            },
            {
                "start_time": 9.7136364,
                "end_time": 9.8977273,
                "pitch": 45,
                "velocity": 25,
                "duration": 0.1840909,
                "tempo": 120.0
            },
            {
                "start_time": 9.9136364,
                "end_time": 10.0977273,
                "pitch": 45,
                "velocity": 25,
                "duration": 0.1840909,
                "tempo": 120.0
            },
            {
                "start_time": 10.1136364,
                "end_time": 10.2931818,
                "pitch": 57,
                "velocity": 25,
                "duration": 0.1795455,
                "tempo": 120.0
            },
            {
                "start_time": 10.3090909,
                "end_time": 10.6840909,
                "pitch": 56,
                "velocity": 25,
                "duration": 0.375,
                "tempo": 120.0
            },
            {
                "start_time": 10.7022727,
                "end_time": 11.0909091,
                "pitch": 52,
                "velocity": 25,
                "duration": 0.3886364,
                "tempo": 120.0
            },
            {
                "start_time": 11.1068182,
                "end_time": 11.2954545,
                "pitch": 49,
                "velocity": 25,
                "duration": 0.1886364,
                "tempo": 120.0
            },
            {
                "start_time": 11.3295455,
                "end_time": 11.3977273,
                "pitch": 42,
                "velocity": 25,
                "duration": 0.0681818,
                "tempo": 120.0
            },
            {
                "start_time": 11.4159091,
                "end_time": 11.6045455,
                "pitch": 45,
                "velocity": 25,
                "duration": 0.1886364,
                "tempo": 120.0
            },
            {
                "start_time": 11.6386364,
                "end_time": 11.7045455,
                "pitch": 42,
                "velocity": 25,
                "duration": 0.0659091,
                "tempo": 120.0
            },
            {
                "start_time": 11.7227273,
                "end_time": 11.9068182,
                "pitch": 45,
                "velocity": 25,
                "duration": 0.1840909,
                "tempo": 120.0
            },
            {
                "start_time": 11.9409091,
                "end_time": 12.0068182,
                "pitch": 42,
                "velocity": 25,
                "duration": 0.0659091,
                "tempo": 120.0
            },
            {
                "start_time": 12.025,
                "end_time": 12.2090909,
                "pitch": 45,
                "velocity": 25,
                "duration": 0.1840909,
                "tempo": 120.0
            },
            {
                "start_time": 12.2431818,
                "end_time": 12.3090909,
                "pitch": 42,
                "velocity": 25,
                "duration": 0.0659091,
                "tempo": 120.0
            },
            {
                "start_time": 12.3272727,
                "end_time": 12.5113636,
                "pitch": 45,
                "velocity": 25,
                "duration": 0.1840909,
                "tempo": 120.0
            },
            {
                "start_time": 12.5272727,
                "end_time": 12.7113636,
                "pitch": 42,
                "velocity": 25,
                "duration": 0.1840909,
                "tempo": 120.0
            },
            {
                "start_time": 12.7295455,
                "end_time": 12.9136364,
                "pitch": 42,
                "velocity": 25,
                "duration": 0.1840909,
                "tempo": 120.0
            },
            {
                "start_time": 12.9477273,
                "end_time": 13.1136364,
                "pitch": 42,
                "velocity": 25,
                "duration": 0.1659091,
                "tempo": 120.0
            },
            {
                "start_time": 13.1318182,
                "end_time": 13.3136364,
                "pitch": 42,
                "velocity": 25,
                "duration": 0.1818182,
                "tempo": 120.0
            },
            {
                "start_time": 13.3295455,
                "end_time": 13.5090909,
                "pitch": 52,
                "velocity": 25,
                "duration": 0.1795455,
                "tempo": 120.0
            },
            {
                "start_time": 13.5272727,
                "end_time": 13.9022727,
                "pitch": 51,
                "velocity": 25,
                "duration": 0.375,
                "tempo": 120.0
            },
            {
                "start_time": 13.9181818,
                "end_time": 14.3022727,
                "pitch": 47,
                "velocity": 25,
                "duration": 0.3840909,
                "tempo": 120.0
            },
            {
                "start_time": 14.3181818,
                "end_time": 14.5045455,
                "pitch": 45,
                "velocity": 25,
                "duration": 0.1863636,
                "tempo": 120.0
            },
            {
                "start_time": 14.5227273,
                "end_time": 14.7113636,
                "pitch": 45,
                "velocity": 25,
                "duration": 0.1886364,
                "tempo": 120.0
            },
            {
                "start_time": 14.7272727,
                "end_time": 14.9159091,
                "pitch": 49,
                "velocity": 25,
                "duration": 0.1886364,
                "tempo": 120.0
            },
            {
                "start_time": 14.95,
                "end_time": 15.0181818,
                "pitch": 42,
                "velocity": 25,
                "duration": 0.0681818,
                "tempo": 120.0
            },
            {
                "start_time": 15.0522727,
                "end_time": 15.1204545,
                "pitch": 42,
                "velocity": 25,
                "duration": 0.0681818,
                "tempo": 120.0
            },
            {
                "start_time": 15.1386364,
                "end_time": 16.1113636,
                "pitch": 47,
                "velocity": 25,
                "duration": 0.9727273,
                "tempo": 120.0
            },
            {
                "start_time": 16.1295455,
                "end_time": 16.3159091,
                "pitch": 42,
                "velocity": 25,
                "duration": 0.1863636,
                "tempo": 120.0
            },
            {
                "start_time": 16.3340909,
                "end_time": 16.5204545,
                "pitch": 42,
                "velocity": 25,
                "duration": 0.1863636,
                "tempo": 120.0
            },
            {
                "start_time": 16.5386364,
                "end_time": 16.7227273,
                "pitch": 52,
                "velocity": 25,
                "duration": 0.1840909,
                "tempo": 120.0
            },
            {
                "start_time": 16.7386364,
                "end_time": 17.1181818,
                "pitch": 51,
                "velocity": 25,
                "duration": 0.3795455,
                "tempo": 120.0
            },
            {
                "start_time": 17.1340909,
                "end_time": 17.5159091,
                "pitch": 47,
                "velocity": 25,
                "duration": 0.3818182,
                "tempo": 120.0
            },
            {
                "start_time": 17.5318182,
                "end_time": 17.7181818,
                "pitch": 45,
                "velocity": 25,
                "duration": 0.1863636,
                "tempo": 120.0
            },
            {
                "start_time": 17.7340909,
                "end_time": 17.9227273,
                "pitch": 45,
                "velocity": 25,
                "duration": 0.1886364,
                "tempo": 120.0
            },
            {
                "start_time": 17.9409091,
                "end_time": 18.1272727,
                "pitch": 49,
                "velocity": 25,
                "duration": 0.1863636,
                "tempo": 120.0
            },
            {
                "start_time": 18.1613636,
                "end_time": 18.2318182,
                "pitch": 42,
                "velocity": 25,
                "duration": 0.0704545,
                "tempo": 120.0
            },
            {
                "start_time": 18.2659091,
                "end_time": 18.3340909,
                "pitch": 42,
                "velocity": 25,
                "duration": 0.0681818,
                "tempo": 120.0
            },
            {
                "start_time": 18.35,
                "end_time": 19.325,
                "pitch": 47,
                "velocity": 25,
                "duration": 0.975,
                "tempo": 120.0
            },
            {
                "start_time": 19.3431818,
                "end_time": 19.5363636,
                "pitch": 45,
                "velocity": 25,
                "duration": 0.1931818,
                "tempo": 120.0
            },
            {
                "start_time": 19.5545455,
                "end_time": 19.7431818,
                "pitch": 45,
                "velocity": 25,
                "duration": 0.1886364,
                "tempo": 120.0
            },
            {
                "start_time": 19.7590909,
                "end_time": 19.9386364,
                "pitch": 57,
                "velocity": 25,
                "duration": 0.1795455,
                "tempo": 120.0
            },
            {
                "start_time": 19.9545455,
                "end_time": 20.3295455,
                "pitch": 56,
                "velocity": 25,
                "duration": 0.375,
                "tempo": 120.0
            },
            {
                "start_time": 20.3477273,
                "end_time": 20.7363636,
                "pitch": 52,
                "velocity": 25,
                "duration": 0.3886364,
                "tempo": 120.0
            },
            {
                "start_time": 20.7522727,
                "end_time": 20.9409091,
                "pitch": 49,
                "velocity": 25,
                "duration": 0.1886364,
                "tempo": 120.0
            },
            {
                "start_time": 20.975,
                "end_time": 21.0431818,
                "pitch": 42,
                "velocity": 25,
                "duration": 0.0681818,
                "tempo": 120.0
            },
            {
                "start_time": 21.0613636,
                "end_time": 21.25,
                "pitch": 45,
                "velocity": 25,
                "duration": 0.1886364,
                "tempo": 120.0
            },
            {
                "start_time": 21.2840909,
                "end_time": 21.35,
                "pitch": 42,
                "velocity": 25,
                "duration": 0.0659091,
                "tempo": 120.0
            },
            {
                "start_time": 21.3659091,
                "end_time": 21.55,
                "pitch": 45,
                "velocity": 25,
                "duration": 0.1840909,
                "tempo": 120.0
            },
            {
                "start_time": 21.5840909,
                "end_time": 21.65,
                "pitch": 42,
                "velocity": 25,
                "duration": 0.0659091,
                "tempo": 120.0
            },
            {
                "start_time": 21.6659091,
                "end_time": 21.8522727,
                "pitch": 45,
                "velocity": 25,
                "duration": 0.1863636,
                "tempo": 120.0
            },
            {
                "start_time": 21.8840909,
                "end_time": 21.9522727,
                "pitch": 42,
                "velocity": 25,
                "duration": 0.0681818,
                "tempo": 120.0
            },
            {
                "start_time": 21.9681818,
                "end_time": 22.1522727,
                "pitch": 45,
                "velocity": 25,
                "duration": 0.1840909,
                "tempo": 120.0
            },
            {
                "start_time": 22.1704545,
                "end_time": 22.3522727,
                "pitch": 42,
                "velocity": 25,
                "duration": 0.1818182,
                "tempo": 120.0
            },
            {
                "start_time": 22.3704545,
                "end_time": 22.5522727,
                "pitch": 42,
                "velocity": 25,
                "duration": 0.1818182,
                "tempo": 120.0
            },
            {
                "start_time": 22.5704545,
                "end_time": 22.7522727,
                "pitch": 45,
                "velocity": 25,
                "duration": 0.1818182,
                "tempo": 120.0
            },
            {
                "start_time": 22.7704545,
                "end_time": 22.9522727,
                "pitch": 45,
                "velocity": 25,
                "duration": 0.1818182,
                "tempo": 120.0
            },
            {
                "start_time": 22.9704545,
                "end_time": 23.1545455,
                "pitch": 57,
                "velocity": 25,
                "duration": 0.1840909,
                "tempo": 120.0
            },
            {
                "start_time": 23.1704545,
                "end_time": 23.5431818,
                "pitch": 56,
                "velocity": 25,
                "duration": 0.3727273,
                "tempo": 120.0
            },
            {
                "start_time": 23.5590909,
                "end_time": 23.9454545,
                "pitch": 52,
                "velocity": 25,
                "duration": 0.3863636,
                "tempo": 120.0
            },
            {
                "start_time": 23.9613636,
                "end_time": 24.15,
                "pitch": 49,
                "velocity": 25,
                "duration": 0.1886364,
                "tempo": 120.0
            },
            {
                "start_time": 24.1840909,
                "end_time": 24.2522727,
                "pitch": 42,
                "velocity": 25,
                "duration": 0.0681818,
                "tempo": 120.0
            },
            {
                "start_time": 24.2704545,
                "end_time": 24.4590909,
                "pitch": 45,
                "velocity": 25,
                "duration": 0.1886364,
                "tempo": 120.0
            },
            {
                "start_time": 24.4931818,
                "end_time": 24.5590909,
                "pitch": 42,
                "velocity": 25,
                "duration": 0.0659091,
                "tempo": 120.0
            },
            {
                "start_time": 24.575,
                "end_time": 24.7590909,
                "pitch": 45,
                "velocity": 25,
                "duration": 0.1840909,
                "tempo": 120.0
            },
            {
                "start_time": 24.7931818,
                "end_time": 24.8590909,
                "pitch": 42,
                "velocity": 25,
                "duration": 0.0659091,
                "tempo": 120.0
            },
            {
                "start_time": 24.875,
                "end_time": 25.0613636,
                "pitch": 45,
                "velocity": 25,
                "duration": 0.1863636,
                "tempo": 120.0
            },
            {
                "start_time": 25.0931818,
                "end_time": 25.1613636,
                "pitch": 42,
                "velocity": 25,
                "duration": 0.0681818,
                "tempo": 120.0
            },
            {
                "start_time": 25.1772727,
                "end_time": 25.3613636,
                "pitch": 45,
                "velocity": 25,
                "duration": 0.1840909,
                "tempo": 120.0
            },
            {
                "start_time": 25.3795455,
                "end_time": 25.5613636,
                "pitch": 42,
                "velocity": 25,
                "duration": 0.1818182,
                "tempo": 120.0
            },
            {
                "start_time": 25.5795455,
                "end_time": 25.7613636,
                "pitch": 42,
                "velocity": 25,
                "duration": 0.1818182,
                "tempo": 120.0
            },
            {
                "start_time": 25.7772727,
                "end_time": 25.925,
                "pitch": 71,
                "velocity": 25,
                "duration": 0.1477273,
                "tempo": 120.0
            },
            {
                "start_time": 25.9409091,
                "end_time": 26.1204545,
                "pitch": 69,
                "velocity": 25,
                "duration": 0.1795455,
                "tempo": 120.0
            },
            {
                "start_time": 26.1545455,
                "end_time": 26.2204545,
                "pitch": 69,
                "velocity": 25,
                "duration": 0.0659091,
                "tempo": 120.0
            },
            {
                "start_time": 26.2386364,
                "end_time": 26.4204545,
                "pitch": 71,
                "velocity": 25,
                "duration": 0.1818182,
                "tempo": 120.0
            },
            {
                "start_time": 26.4386364,
                "end_time": 26.6181818,
                "pitch": 71,
                "velocity": 25,
                "duration": 0.1795455,
                "tempo": 120.0
            },
            {
                "start_time": 26.65,
                "end_time": 26.7159091,
                "pitch": 71,
                "velocity": 25,
                "duration": 0.0659091,
                "tempo": 120.0
            },
            {
                "start_time": 26.7318182,
                "end_time": 26.9136364,
                "pitch": 69,
                "velocity": 25,
                "duration": 0.1818182,
                "tempo": 120.0
            },
            {
                "start_time": 26.9477273,
                "end_time": 27.0136364,
                "pitch": 69,
                "velocity": 25,
                "duration": 0.0659091,
                "tempo": 120.0
            },
            {
                "start_time": 27.0477273,
                "end_time": 27.1136364,
                "pitch": 71,
                "velocity": 25,
                "duration": 0.0659091,
                "tempo": 120.0
            },
            {
                "start_time": 28.9681818,
                "end_time": 29.1545455,
                "pitch": 69,
                "velocity": 25,
                "duration": 0.1863636,
                "tempo": 120.0
            },
            {
                "start_time": 29.1704545,
                "end_time": 29.3568182,
                "pitch": 71,
                "velocity": 25,
                "duration": 0.1863636,
                "tempo": 120.0
            },
            {
                "start_time": 29.3727273,
                "end_time": 29.5613636,
                "pitch": 74,
                "velocity": 25,
                "duration": 0.1886364,
                "tempo": 120.0
            },
            {
                "start_time": 29.5954545,
                "end_time": 29.6659091,
                "pitch": 74,
                "velocity": 25,
                "duration": 0.0704545,
                "tempo": 120.0
            },
            {
                "start_time": 29.6818182,
                "end_time": 29.9590909,
                "pitch": 69,
                "velocity": 25,
                "duration": 0.2772727,
                "tempo": 120.0
            },
            {
                "start_time": 29.975,
                "end_time": 30.2931818,
                "pitch": 69,
                "velocity": 25,
                "duration": 0.3181818,
                "tempo": 120.0
            },
            {
                "start_time": 30.3090909,
                "end_time": 30.5636364,
                "pitch": 70,
                "velocity": 25,
                "duration": 0.2545455,
                "tempo": 120.0
            },
            {
                "start_time": 30.5818182,
                "end_time": 30.775,
                "pitch": 42,
                "velocity": 25,
                "duration": 0.1931818,
                "tempo": 120.0
            },
            {
                "start_time": 30.7931818,
                "end_time": 30.9795455,
                "pitch": 42,
                "velocity": 25,
                "duration": 0.1863636,
                "tempo": 120.0
            },
            {
                "start_time": 30.9977273,
                "end_time": 31.1772727,
                "pitch": 52,
                "velocity": 25,
                "duration": 0.1795455,
                "tempo": 120.0
            },
            {
                "start_time": 31.1931818,
                "end_time": 31.5681818,
                "pitch": 51,
                "velocity": 25,
                "duration": 0.375,
                "tempo": 120.0
            },
            {
                "start_time": 31.5863636,
                "end_time": 31.9659091,
                "pitch": 47,
                "velocity": 25,
                "duration": 0.3795455,
                "tempo": 120.0
            },
            {
                "start_time": 31.9840909,
                "end_time": 32.1681818,
                "pitch": 45,
                "velocity": 25,
                "duration": 0.1840909,
                "tempo": 120.0
            },
            {
                "start_time": 32.1863636,
                "end_time": 32.375,
                "pitch": 45,
                "velocity": 25,
                "duration": 0.1886364,
                "tempo": 120.0
            },
            {
                "start_time": 32.3909091,
                "end_time": 32.5795455,
                "pitch": 49,
                "velocity": 25,
                "duration": 0.1886364,
                "tempo": 120.0
            },
            {
                "start_time": 32.6136364,
                "end_time": 32.6818182,
                "pitch": 42,
                "velocity": 25,
                "duration": 0.0681818,
                "tempo": 120.0
            },
            {
                "start_time": 32.7159091,
                "end_time": 32.7840909,
                "pitch": 42,
                "velocity": 25,
                "duration": 0.0681818,
                "tempo": 120.0
            },
            {
                "start_time": 32.8022727,
                "end_time": 33.6840909,
                "pitch": 47,
                "velocity": 25,
                "duration": 0.8818182,
                "tempo": 120.0
            }
        ]
    }
}