{
    "mood": "angry",
    "instruments": {
        "Acoustic Bass": [
            {
                "start_time": 0.0,
                "end_time": 0.1659091,
                "pitch": 35,
                "velocity": 64,
                "duration": 0.1659091,
                "tempo": 120.0
            },
            {
                "start_time": 0.1840909,
                "end_time": 0.2659091,
                "pitch": 39,
                "velocity": 64,
                "duration": 0.0818182,
                "tempo": 120.0
            },
            {
                "start_time": 0.2840909,
                "end_time": 0.3659091,
                "pitch": 39,
                "velocity": 64,
                "duration": 0.0818182,
                "tempo": 120.0
            },
            {
                "start_time": 0.3840909,
                "end_time": 0.4659091,
                "pitch": 40,
                "velocity": 64,
                "duration": 0.0818182,
                "tempo": 120.0
            },
            {
                "start_time": 0.4818182,
                "end_time": 0.6613636,
                "pitch": 35,
                "velocity": 64,
                "duration": 0.1795455,
                "tempo": 120.0
            },
            {
                "start_time": 0.6772727,
                "end_time": 0.8590909,
                "pitch": 35,
                "velocity": 64,
                "duration": 0.1818182,
                "tempo": 120.0
            },
            {
                "start_time": 0.875,
                "end_time": 0.9590909,
                "pitch": 35,
                "velocity": 64,
                "duration": 0.0840909,
                "tempo": 120.0
            },
            {
                "start_time": 0.975,
                "end_time": 1.0590909,
                "pitch": 39,
                "velocity": 64,
                "duration": 0.0840909,
                "tempo": 120.0
            },
            {
                "start_time": 1.075,
                "end_time": 1.1590909,
                "pitch": 35,
                "velocity": 64,
                "duration": 0.0840909,
                "tempo": 120.0
            },
            {
                "start_time": 1.175,
                "end_time": 1.2613636,
                "pitch": 40,
                "velocity": 64,
                "duration": 0.0863636,
                "tempo": 120.0
            },
            {
                "start_time": 1.2772727,
                "end_time": 1.4659091,
                "pitch": 35,
                "velocity": 64,
                "duration": 0.1886364,
                "tempo": 120.0
            },
            {
                "start_time": 1.4840909,
                "end_time": 1.5681818,
                "pitch": 35,
                "velocity": 64,
                "duration": 0.0840909,
                "tempo": 120.0
            },
            {
                "start_time": 1.5863636,
                "end_time": 1.7704545,
                "pitch": 35,
                "velocity": 64,
                "duration": 0.1840909,
                "tempo": 120.0
            },
            {
                "start_time": 1.7886364,
                "end_time": 1.8704545,
                "pitch": 39,
                "velocity": 64,
                "duration": 0.0818182,
                "tempo": 120.0
            },
            {
                "start_time": 1.8886364,
                "end_time": 1.9727273,
                "pitch": 35,
                "velocity": 64,
                "duration": 0.0840909,
                "tempo": 120.0
            },
            {
                "start_time": 1.9886364,
                "end_time": 2.0704545,
                "pitch": 40,
                "velocity": 64,
                "duration": 0.0818182,
                "tempo": 120.0
            },
            {
                "start_time": 2.0863636,
                "end_time": 2.2659091,
                "pitch": 35,
                "velocity": 64,
                "duration": 0.1795455,
                "tempo": 120.0
            },
            {
                "start_time": 2.2840909,
                "end_time": 2.3659091,
                "pitch": 35,
                "velocity": 64,
                "duration": 0.0818182,
                "tempo": 120.0
            },
            {
                "start_time": 2.3818182,
                "end_time": 2.5659091,
                "pitch": 35,
                "velocity": 64,
                "duration": 0.1840909,
                "tempo": 120.0
            },
            {
                "start_time": 2.5818182,
                "end_time": 2.6659091,
                "pitch": 39,
                "velocity": 64,
                "duration": 0.0840909,
                "tempo": 120.0
            },
            {
                "start_time": 2.6840909,
                "end_time": 2.7681818,
                "pitch": 35,
                "velocity": 64,
                "duration": 0.0840909,
                "tempo": 120.0
            },
            {
                "start_time": 2.7840909,
                "end_time": 2.8681818,
                "pitch": 40,
                "velocity": 64,
                "duration": 0.0840909,
                "tempo": 120.0
            },
            {
                "start_time": 2.8840909,
                "end_time": 3.0681818,
                "pitch": 35,
                "velocity": 64,
                "duration": 0.1840909,
                "tempo": 120.0
            },
            {
                "start_time": 3.0840909,
                "end_time": 3.1681818,
                "pitch": 35,
                "velocity": 64,
                "duration": 0.0840909,
                "tempo": 120.0
            },
            {
                "start_time": 3.1840909,
                "end_time": 3.3727273,
                "pitch": 35,
                "velocity": 64,
                "duration": 0.1886364,
                "tempo": 120.0
            },
            {
                "start_time": 3.3886364,
                "end_time": 3.475,
                "pitch": 39,
                "velocity": 64,
                "duration": 0.0863636,
                "tempo": 120.0
            },
            {
                "start_time": 3.4909091,
                "end_time": 3.5772727,
                "pitch": 35,
                "velocity": 64,
                "duration": 0.0863636,
                "tempo": 120.0
            },
            {
                "start_time": 3.5954545,
                "end_time": 3.6772727,
                "pitch": 40,
                "velocity": 64,
                "duration": 0.0818182,
                "tempo": 120.0
            },
            {
                "start_time": 3.6931818,
                "end_time": 3.8727273,
                "pitch": 35,
                "velocity": 64,
                "duration": 0.1795455,
                "tempo": 120.0
            },
            {
                "start_time": 3.8886364,
                "end_time": 3.9704545,
                "pitch": 35,
                "velocity": 64,
                "duration": 0.0818182,
                "tempo": 120.0
            },
            {
                "start_time": 3.9863636,
                "end_time": 4.1704545,
                "pitch": 35,
                "velocity": 64,
                "duration": 0.1840909,
                "tempo": 120.0
            },
            {
                "start_time": 4.1886364,
                "end_time": 4.2727273,
                "pitch": 39,
                "velocity": 64,
                "duration": 0.0840909,
                "tempo": 120.0
            },
            {
                "start_time": 4.2886364,
                "end_time": 4.3727273,
                "pitch": 35,
                "velocity": 64,
                "duration": 0.0840909,
                "tempo": 120.0
            },
            {
                "start_time": 4.3886364,
                "end_time": 4.475,
                "pitch": 40,
                "velocity": 64,
                "duration": 0.0863636,
                "tempo": 120.0
            },
            {
                "start_time": 4.4909091,
                "end_time": 4.6795455,
                "pitch": 35,
                "velocity": 64,
                "duration": 0.1886364,
                "tempo": 120.0
            },
            {
                "start_time": 4.6977273,
                "end_time": 4.7818182,
                "pitch": 35,
                "velocity": 64,
                "duration": 0.0840909,
                "tempo": 120.0
            },
            {
                "start_time": 4.8,
                "end_time": 4.9840909,
                "pitch": 35,
                "velocity": 64,
                "duration": 0.1840909,
                "tempo": 120.0
            },
            {
                "start_time": 5.0,
                "end_time": 5.0840909,
                "pitch": 39,
                "velocity": 64,
                "duration": 0.0840909,
                "tempo": 120.0
            },
            {
                "start_time": 5.1,
                "end_time": 5.1840909,
                "pitch": 35,
                "velocity": 64,
                "duration": 0.0840909,
                "tempo": 120.0
            },
            {
                "start_time": 5.2,
                "end_time": 5.2818182,
                "pitch": 40,
                "velocity": 64,
                "duration": 0.0818182,
                "tempo": 120.0
            },
            {
                "start_time": 5.2977273,
                "end_time": 5.4772727,
                "pitch": 35,
                "velocity": 64,
                "duration": 0.1795455,
                "tempo": 120.0
            },
            {
                "start_time": 5.4954545,
                "end_time": 5.5772727,
                "pitch": 35,
                "velocity": 64,
                "duration": 0.0818182,
                "tempo": 120.0
            },
            {
                "start_time": 5.5931818,
                "end_time": 5.7727273,
                "pitch": 35,
                "velocity": 64,
                "duration": 0.1795455,
                "tempo": 120.0
            },
            {
                "start_time": 5.7886364,
                "end_time": 5.8704545,
                "pitch": 39,
                "velocity": 64,
                "duration": 0.0818182,
                "tempo": 120.0
            },
            {
                "start_time": 5.8863636,
                "end_time": 5.9681818,
                "pitch": 35,
                "velocity": 64,
                "duration": 0.0818182,
                "tempo": 120.0
            },
            {
                "start_time": 5.9840909,
                "end_time": 6.0704545,
                "pitch": 40,
                "velocity": 64,
                "duration": 0.0863636,
                "tempo": 120.0
            },
            {
                "start_time": 6.0863636,
                "end_time": 6.275,
                "pitch": 35,
                "velocity": 64,
                "duration": 0.1886364,
                "tempo": 120.0
            },
            {
                "start_time": 6.2931818,
                "end_time": 6.3795455,
                "pitch": 35,
                "velocity": 64,
                "duration": 0.0863636,
                "tempo": 120.0
            },
            {
                "start_time": 6.3954545,
                "end_time": 6.5840909,
                "pitch": 40,
                "velocity": 64,
                "duration": 0.1886364,
                "tempo": 120.0
            },
            {
                "start_time": 6.6,
                "end_time": 6.6863636,
                "pitch": 44,
                "velocity": 64,
                "duration": 0.0863636,
                "tempo": 120.0
            },
            {
                "start_time": 6.7045455,
                "end_time": 6.7886364,
                "pitch": 40,
                "velocity": 64,
                "duration": 0.0840909,
                "tempo": 120.0
            },
            {
                "start_time": 6.8068182,
                "end_time": 6.8886364,
                "pitch": 45,
                "velocity": 64,
                "duration": 0.0818182,
                "tempo": 120.0
            },
            {
                "start_time": 6.9045455,
                "end_time": 7.0840909,
                "pitch": 40,
                "velocity": 64,
                "duration": 0.1795455,
                "tempo": 120.0
            },
            {
                "start_time": 7.1,
                "end_time": 7.1818182,
                "pitch": 40,
                "velocity": 64,
                "duration": 0.0818182,
                "tempo": 120.0
            },
            {
                "start_time": 7.2,
                "end_time": 7.2818182,
                "pitch": 40,
                "velocity": 64,
                "duration": 0.0818182,
                "tempo": 120.0
            },
            {
                "start_time": 7.3,
                "end_time": 7.3840909,
                "pitch": 40,
                "velocity": 64,
                "duration": 0.0840909,
                "tempo": 120.0
            },
            {
                "start_time": 7.4,
                "end_time": 7.4840909,
                "pitch": 45,
                "velocity": 64,
                "duration": 0.0840909,
                "tempo": 120.0
            },
            {
                "start_time": 7.5,
                "end_time": 7.5840909,
                "pitch": 40,
                "velocity": 64,
                "duration": 0.0840909,
                "tempo": 120.0
            },
            {
                "start_time": 7.6022727,
                "end_time": 7.6863636,
                "pitch": 46,
                "velocity": 64,
                "duration": 0.0840909,
                "tempo": 120.0
            },
            {
                "start_time": 7.7045455,
                "end_time": 7.9954545,
                "pitch": 40,
                "velocity": 64,
                "duration": 0.2909091,
                "tempo": 120.0
            },
            {
                "start_time": 8.0113636,
                "end_time": 8.1977273,
                "pitch": 40,
                "velocity": 64,
                "duration": 0.1863636,
                "tempo": 120.0
            },
            {
                "start_time": 8.2136364,
                "end_time": 8.2977273,
                "pitch": 44,
                "velocity": 64,
                "duration": 0.0840909,
                "tempo": 120.0
            },
            {
                "start_time": 8.3136364,
                "end_time": 8.3977273,
                "pitch": 40,
                "velocity": 64,
                "duration": 0.0840909,
                "tempo": 120.0
            },
            {
                "start_time": 8.4159091,
                "end_time": 8.4977273,
                "pitch": 45,
                "velocity": 64,
                "duration": 0.0818182,
                "tempo": 120.0
            },
            {
                "start_time": 8.5136364,
                "end_time": 8.6931818,
                "pitch": 40,
                "velocity": 64,
                "duration": 0.1795455,
                "tempo": 120.0
            },
            {
                "start_time": 8.7090909,
                "end_time": 8.7909091,
                "pitch": 40,
                "velocity": 64,
                "duration": 0.0818182,
                "tempo": 120.0
            },
            {
                "start_time": 8.8068182,
                "end_time": 8.8909091,
                "pitch": 40,
                "velocity": 64,
                "duration": 0.0840909,
                "tempo": 120.0
            },
            {
                "start_time": 8.9068182,
                "end_time": 8.9909091,
                "pitch": 40,
                "velocity": 64,
                "duration": 0.0840909,
                "tempo": 120.0
            },
            {
                "start_time": 9.0068182,
                "end_time": 9.0909091,
                "pitch": 45,
                "velocity": 64,
                "duration": 0.0840909,
                "tempo": 120.0
            },
            {
                "start_time": 9.1068182,
                "end_time": 9.1909091,
                "pitch": 40,
                "velocity": 64,
                "duration": 0.0840909,
                "tempo": 120.0
            },
            {
                "start_time": 9.2068182,
                "end_time": 9.2909091,
                "pitch": 46,
                "velocity": 64,
                "duration": 0.0840909,
                "tempo": 120.0
            },
            {
                "start_time": 9.3090909,
                "end_time": 9.5931818,
                "pitch": 40,
                "velocity": 64,
                "duration": 0.2840909,
                "tempo": 120.0
            },
            {
                "start_time": 9.6090909,
                "end_time": 9.7977273,
                "pitch": 40,
                "velocity": 64,
                "duration": 0.1886364,
                "tempo": 120.0
            },
            {
                "start_time": 9.8159091,
                "end_time": 9.9,
                "pitch": 44,
                "velocity": 64,
                "duration": 0.0840909,
                "tempo": 120.0
            },
            {
                "start_time": 9.9181818,
                "end_time": 10.0045455,
                "pitch": 40,
                "velocity": 64,
                "duration": 0.0863636,
                "tempo": 120.0
            },
            {
                "start_time": 10.0204545,
                "end_time": 10.1022727,
                "pitch": 45,
                "velocity": 64,
                "duration": 0.0818182,
                "tempo": 120.0
            },
            {
                "start_time": 10.1181818,
                "end_time": 10.2977273,
                "pitch": 40,
                "velocity": 64,
                "duration": 0.1795455,
                "tempo": 120.0
            },
            {
                "start_time": 10.3159091,
                "end_time": 10.3977273,
                "pitch": 40,
                "velocity": 64,
                "duration": 0.0818182,
                "tempo": 120.0
            },
            {
                "start_time": 10.4136364,
                "end_time": 10.4977273,
                "pitch": 40,
                "velocity": 64,
                "duration": 0.0840909,
                "tempo": 120.0
            },
            {
                "start_time": 10.5136364,
                "end_time": 10.5977273,
                "pitch": 40,
                "velocity": 64,
                "duration": 0.0840909,
                "tempo": 120.0
            },
            {
                "start_time": 10.6136364,
                "end_time": 10.6977273,
                "pitch": 45,
                "velocity": 64,
                "duration": 0.0840909,
                "tempo": 120.0
            },
            {
                "start_time": 10.7159091,
                "end_time": 10.7977273,
                "pitch": 40,
                "velocity": 64,
                "duration": 0.0818182,
                "tempo": 120.0
            },
            {
                "start_time": 10.8159091,
                "end_time": 10.9,
                "pitch": 46,
                "velocity": 64,
                "duration": 0.0840909,
                "tempo": 120.0
            },
            {
                "start_time": 10.9181818,
                "end_time": 11.2090909,
                "pitch": 40,
                "velocity": 64,
                "duration": 0.2909091,
                "tempo": 120.0
            },
            {
                "start_time": 11.2272727,
                "end_time": 11.4090909,
                "pitch": 40,
                "velocity": 64,
                "duration": 0.1818182,
                "tempo": 120.0
            },
            {
                "start_time": 11.4272727,
                "end_time": 11.5090909,
                "pitch": 44,
                "velocity": 64,
                "duration": 0.0818182,
                "tempo": 120.0
            },
            {
                "start_time": 11.5272727,
                "end_time": 11.6090909,
                "pitch": 40,
                "velocity": 64,
                "duration": 0.0818182,
                "tempo": 120.0
            },
            {
                "start_time": 11.6272727,
                "end_time": 11.7090909,
                "pitch": 45,
                "velocity": 64,
                "duration": 0.0818182,
                "tempo": 120.0
            },
            {
                "start_time": 11.725,
                "end_time": 11.9045455,
                "pitch": 40,
                "velocity": 64,
                "duration": 0.1795455,
                "tempo": 120.0
            },
            {
                "start_time": 11.9204545,
                "end_time": 12.0022727,
                "pitch": 40,
                "velocity": 64,
                "duration": 0.0818182,
                "tempo": 120.0
            },
            {
                "start_time": 12.0181818,
                "end_time": 12.1022727,
                "pitch": 40,
                "velocity": 64,
                "duration": 0.0840909,
                "tempo": 120.0
            },
            {
                "start_time": 12.1204545,
                "end_time": 12.2022727,
                "pitch": 40,
                "velocity": 64,
                "duration": 0.0818182,
                "tempo": 120.0
            },
            {
                "start_time": 12.2204545,
                "end_time": 12.3045455,
                "pitch": 45,
                "velocity": 64,
                "duration": 0.0840909,
                "tempo": 120.0
            },
            {
                "start_time": 12.3204545,
                "end_time": 12.4045455,
                "pitch": 40,
                "velocity": 64,
                "duration": 0.0840909,
                "tempo": 120.0
            },
            {
                "start_time": 12.4204545,
                "end_time": 12.5045455,
                "pitch": 46,
                "velocity": 64,
                "duration": 0.0840909,
                "tempo": 120.0
            },
            {
                "start_time": 12.5227273,
                "end_time": 12.8068182,
                "pitch": 40,
                "velocity": 64,
                "duration": 0.2840909,
                "tempo": 120.0
            },
            {
                "start_time": 12.825,
                "end_time": 13.0113636,
                "pitch": 39,
                "velocity": 64,
                "duration": 0.1863636,
                "tempo": 120.0
            },
            {
                "start_time": 13.0295455,
                "end_time": 13.1159091,
                "pitch": 42,
                "velocity": 64,
                "duration": 0.0863636,
                "tempo": 120.0
            },
            {
                "start_time": 13.1318182,
                "end_time": 13.2181818,
                "pitch": 39,
                "velocity": 64,
                "duration": 0.0863636,
                "tempo": 120.0
            },
            {
                "start_time": 13.2340909,
                "end_time": 13.3159091,
                "pitch": 44,
                "velocity": 64,
                "duration": 0.0818182,
                "tempo": 120.0
            },
            {
                "start_time": 13.3340909,
                "end_time": 13.5136364,
                "pitch": 39,
                "velocity": 64,
                "duration": 0.1795455,
                "tempo": 120.0
            },
            {
                "start_time": 13.5295455,
                "end_time": 13.6113636,
                "pitch": 39,
                "velocity": 64,
                "duration": 0.0818182,
                "tempo": 120.0
            },
            {
                "start_time": 13.6272727,
                "end_time": 13.7113636,
                "pitch": 39,
                "velocity": 64,
                "duration": 0.0840909,
                "tempo": 120.0
            },
            {
                "start_time": 13.7272727,
                "end_time": 13.8113636,
                "pitch": 39,
                "velocity": 64,
                "duration": 0.0840909,
                "tempo": 120.0
            },
            {
                "start_time": 13.8272727,
                "end_time": 13.9113636,
                "pitch": 42,
                "velocity": 64,
                "duration": 0.0840909,
                "tempo": 120.0
            },
            {
                "start_time": 13.9295455,
                "end_time": 14.0136364,
                "pitch": 39,
                "velocity": 64,
                "duration": 0.0840909,
                "tempo": 120.0
            },
            {
                "start_time": 14.0295455,
                "end_time": 14.1159091,
                "pitch": 44,
                "velocity": 64,
                "duration": 0.0863636,
                "tempo": 120.0
            },
            {
                "start_time": 14.1318182,
                "end_time": 14.4227273,
                "pitch": 39,
                "velocity": 64,
                "duration": 0.2909091,
                "tempo": 120.0
            },
            {
                "start_time": 14.4409091,
                "end_time": 14.625,
                "pitch": 39,
                "velocity": 64,
                "duration": 0.1840909,
                "tempo": 120.0
            },
            {
                "start_time": 14.6409091,
                "end_time": 14.725,
                "pitch": 42,
                "velocity": 64,
                "duration": 0.0840909,
                "tempo": 120.0
            },
            {
                "start_time": 14.7431818,
                "end_time": 14.8272727,
                "pitch": 39,
                "velocity": 64,
                "duration": 0.0840909,
                "tempo": 120.0
            },
            {
                "start_time": 14.8431818,
                "end_time": 14.925,
                "pitch": 44,
                "velocity": 64,
                "duration": 0.0818182,
                "tempo": 120.0
            },
            {
                "start_time": 14.9409091,
                "end_time": 15.1204545,
                "pitch": 39,
                "velocity": 64,
                "duration": 0.1795455,
                "tempo": 120.0
            },
            {
                "start_time": 15.1386364,
                "end_time": 15.2204545,
                "pitch": 39,
                "velocity": 64,
                "duration": 0.0818182,
                "tempo": 120.0
            },
            {
                "start_time": 15.2363636,
                "end_time": 15.3204545,
                "pitch": 39,
                "velocity": 64,
                "duration": 0.0840909,
                "tempo": 120.0
            },
            {
                "start_time": 15.3363636,
                "end_time": 15.4204545,
                "pitch": 39,
                "velocity": 64,
                "duration": 0.0840909,
                "tempo": 120.0
            },
            {
                "start_time": 15.4363636,
                "end_time": 15.5204545,
                "pitch": 42,
                "velocity": 64,
                "duration": 0.0840909,
                "tempo": 120.0
            },
            {
                "start_time": 15.5386364,
                "end_time": 15.6204545,
                "pitch": 39,
                "velocity": 64,
                "duration": 0.0818182,
                "tempo": 120.0
            },
            {
                "start_time": 15.6386364,
                "end_time": 15.7227273,
                "pitch": 44,
                "velocity": 64,
                "duration": 0.0840909,
                "tempo": 120.0
            },
            {
                "start_time": 15.7386364,
                "end_time": 16.025,
                "pitch": 39,
                "velocity": 64,
                "duration": 0.2863636,
                "tempo": 120.0
            },
            {
                "start_time": 16.0409091,
                "end_time": 16.2295455,
                "pitch": 39,
                "velocity": 64,
                "duration": 0.1886364,
                "tempo": 120.0
            },
            {
                "start_time": 16.2454545,
                "end_time": 16.3318182,
                "pitch": 42,
                "velocity": 64,
                "duration": 0.0863636,
                "tempo": 120.0
            },
            {
                "start_time": 16.3477273,
                "end_time": 16.4340909,
                "pitch": 39,
                "velocity": 64,
                "duration": 0.0863636,
                "tempo": 120.0
            },
            {
                "start_time": 16.4522727,
                "end_time": 16.5340909,
                "pitch": 44,
                "velocity": 64,
                "duration": 0.0818182,
                "tempo": 120.0
            },
            {
                "start_time": 16.55,
                "end_time": 16.7295455,
                "pitch": 39,
                "velocity": 64,
                "duration": 0.1795455,
                "tempo": 120.0
            },
            {
                "start_time": 16.7454545,
                "end_time": 16.8272727,
                "pitch": 39,
                "velocity": 64,
                "duration": 0.0818182,
                "tempo": 120.0
            },
            {
                "start_time": 16.8431818,
                "end_time": 16.9272727,
                "pitch": 39,
                "velocity": 64,
                "duration": 0.0840909,
                "tempo": 120.0
            },
            {
                "start_time": 16.9431818,
                "end_time": 17.0272727,
                "pitch": 39,
                "velocity": 64,
                "duration": 0.0840909,
                "tempo": 120.0
            },
            {
                "start_time": 17.0431818,
                "end_time": 17.1272727,
                "pitch": 42,
                "velocity": 64,
                "duration": 0.0840909,
                "tempo": 120.0
            },
            {
                "start_time": 17.1431818,
                "end_time": 17.2272727,
                "pitch": 39,
                "velocity": 64,
                "duration": 0.0840909,
                "tempo": 120.0
            },
            {
                "start_time": 17.2431818,
                "end_time": 17.3295455,
                "pitch": 44,
                "velocity": 64,
                "duration": 0.0863636,
                "tempo": 120.0
            },
            {
                "start_time": 17.3454545,
                "end_time": 17.6363636,
                "pitch": 39,
                "velocity": 64,
                "duration": 0.2909091,
                "tempo": 120.0
            },
            {
                "start_time": 17.6545455,
                "end_time": 17.8386364,
                "pitch": 39,
                "velocity": 64,
                "duration": 0.1840909,
                "tempo": 120.0
            },
            {
                "start_time": 17.8568182,
                "end_time": 17.9409091,
                "pitch": 42,
                "velocity": 64,
                "duration": 0.0840909,
                "tempo": 120.0
            },
            {
                "start_time": 17.9568182,
                "end_time": 18.0409091,
                "pitch": 39,
                "velocity": 64,
                "duration": 0.0840909,
                "tempo": 120.0
            },
            {
                "start_time": 18.0568182,
                "end_time": 18.1386364,
                "pitch": 44,
                "velocity": 64,
                "duration": 0.0818182,
                "tempo": 120.0
            },
            {
                "start_time": 18.1545455,
                "end_time": 18.3363636,
                "pitch": 39,
                "velocity": 64,
                "duration": 0.1818182,
                "tempo": 120.0
            },
            {
                "start_time": 18.3522727,
                "end_time": 18.4340909,
                "pitch": 39,
                "velocity": 64,
                "duration": 0.0818182,
                "tempo": 120.0
            },
            {
                "start_time": 18.45,
                "end_time": 18.5340909,
                "pitch": 39,
                "velocity": 64,
                "duration": 0.0840909,
                "tempo": 120.0
            },
            {
                "start_time": 18.55,
                "end_time": 18.6340909,
                "pitch": 39,
                "velocity": 64,
                "duration": 0.0840909,
                "tempo": 120.0
            },
            {
                "start_time": 18.65,
                "end_time": 18.7340909,
                "pitch": 42,
                "velocity": 64,
                "duration": 0.0840909,
                "tempo": 120.0
            },
            {
                "start_time": 18.7522727,
                "end_time": 18.8363636,
                "pitch": 39,
                "velocity": 64,
                "duration": 0.0840909,
                "tempo": 120.0
            },
            {
                "start_time": 18.8522727,
                "end_time": 18.9363636,
                "pitch": 44,
                "velocity": 64,
                "duration": 0.0840909,
                "tempo": 120.0
            },
            {
                "start_time": 18.9522727,
                "end_time": 19.2363636,
                "pitch": 39,
                "velocity": 64,
                "duration": 0.2840909,
                "tempo": 120.0
            },
            {
                "start_time": 19.2522727,
                "end_time": 19.3363636,
                "pitch": 35,
                "velocity": 64,
                "duration": 0.0840909,
                "tempo": 120.0
            },
            {
                "start_time": 19.3545455,
                "end_time": 19.4409091,
                "pitch": 41,
                "velocity": 64,
                "duration": 0.0863636,
                "tempo": 120.0
            },
            {
                "start_time": 19.4568182,
                "end_time": 19.5431818,
                "pitch": 42,
                "velocity": 64,
                "duration": 0.0863636,
                "tempo": 120.0
            },
            {
                "start_time": 19.5590909,
                "end_time": 19.6454545,
                "pitch": 35,
                "velocity": 64,
                "duration": 0.0863636,
                "tempo": 120.0
            },
            {
                "start_time": 19.6636364,
                "end_time": 19.7477273,
                "pitch": 41,
                "velocity": 64,
                "duration": 0.0840909,
                "tempo": 120.0
            },
            {
                "start_time": 19.7636364,
                "end_time": 19.8477273,
                "pitch": 42,
                "velocity": 64,
                "duration": 0.0840909,
                "tempo": 120.0
            },
            {
                "start_time": 19.8636364,
                "end_time": 19.9477273,
                "pitch": 44,
                "velocity": 64,
                "duration": 0.0840909,
                "tempo": 120.0
            },
            {
                "start_time": 19.9659091,
                "end_time": 20.05,
                "pitch": 43,
                "velocity": 64,
                "duration": 0.0840909,
                "tempo": 120.0
            },
            {
                "start_time": 20.0659091,
                "end_time": 20.15,
                "pitch": 42,
                "velocity": 64,
                "duration": 0.0840909,
                "tempo": 120.0
            },
            {
                "start_time": 20.1659091,
                "end_time": 20.25,
                "pitch": 41,
                "velocity": 64,
                "duration": 0.0840909,
                "tempo": 120.0
            },
            {
                "start_time": 20.2659091,
                "end_time": 20.35,
                "pitch": 40,
                "velocity": 64,
                "duration": 0.0840909,
                "tempo": 120.0
            },
            {
                "start_time": 20.3659091,
                "end_time": 20.45,
                "pitch": 39,
                "velocity": 64,
                "duration": 0.0840909,
                "tempo": 120.0
            },
            {
                "start_time": 20.4659091,
                "end_time": 20.55,
                "pitch": 35,
                "velocity": 64,
                "duration": 0.0840909,
                "tempo": 120.0
            },
            {
                "start_time": 20.5659091,
                "end_time": 20.65,
                "pitch": 41,
                "velocity": 64,
                "duration": 0.0840909,
                "tempo": 120.0
            },
            {
                "start_time": 20.6659091,
                "end_time": 20.75,
                "pitch": 42,
                "velocity": 64,
                "duration": 0.0840909,
                "tempo": 120.0
            },
            {
                "start_time": 20.7659091,
                "end_time": 20.85,
                "pitch": 35,
                "velocity": 64,
                "duration": 0.0840909,
                "tempo": 120.0
            },
            {
                "start_time": 20.8659091,
                "end_time": 20.95,
                "pitch": 41,
                "velocity": 64,
                "duration": 0.0840909,
                "tempo": 120.0
            },
            {
                "start_time": 20.9659091,
                "end_time": 21.05,
                "pitch": 42,
                "velocity": 64,
                "duration": 0.0840909,
                "tempo": 120.0
            },
            {
                "start_time": 21.0681818,
                "end_time": 21.15,
                "pitch": 44,
                "velocity": 64,
                "duration": 0.0818182,
                "tempo": 120.0
            },
            {
                "start_time": 21.1681818,
                "end_time": 21.2522727,
                "pitch": 43,
                "velocity": 64,
                "duration": 0.0840909,
                "tempo": 120.0
            },
            {
                "start_time": 21.2681818,
                "end_time": 21.3522727,
                "pitch": 42,
                "velocity": 64,
                "duration": 0.0840909,
                "tempo": 120.0
            },
            {
                "start_time": 21.3681818,
                "end_time": 21.4522727,
                "pitch": 41,
                "velocity": 64,
                "duration": 0.0840909,
                "tempo": 120.0
            },
            {
                "start_time": 21.4681818,
                "end_time": 21.5522727,
                "pitch": 40,
                "velocity": 64,
                "duration": 0.0840909,
                "tempo": 120.0
            },
            {
                "start_time": 21.5681818,
                "end_time": 21.6522727,
                "pitch": 39,
                "velocity": 64,
                "duration": 0.0840909,
                "tempo": 120.0
            },
            {
                "start_time": 21.6681818,
                "end_time": 21.8522727,
                "pitch": 35,
                "velocity": 64,
                "duration": 0.1840909,
                "tempo": 120.0
            },
            {
                "start_time": 21.8704545,
                "end_time": 21.9545455,
                "pitch": 39,
                "velocity": 64,
                "duration": 0.0840909,
                "tempo": 120.0
            },
            {
                "start_time": 21.9704545,
                "end_time": 22.0545455,
                "pitch": 39,
                "velocity": 64,
                "duration": 0.0840909,
                "tempo": 120.0
            },
            {
                "start_time": 22.0704545,
                "end_time": 22.1522727,
                "pitch": 40,
                "velocity": 64,
                "duration": 0.0818182,
                "tempo": 120.0
            },
            {
                "start_time": 22.1704545,
                "end_time": 22.35,
                "pitch": 35,
                "velocity": 64,
                "duration": 0.1795455,
                "tempo": 120.0
            },
            {
                "start_time": 22.3659091,
                "end_time": 22.5477273,
                "pitch": 35,
                "velocity": 64,
                "duration": 0.1818182,
                "tempo": 120.0
            },
            {
                "start_time": 22.5636364,
                "end_time": 22.6477273,
                "pitch": 35,
                "velocity": 64,
                "duration": 0.0840909,
                "tempo": 120.0
            },
            {
                "start_time": 22.6636364,
                "end_time": 22.7477273,
                "pitch": 39,
                "velocity": 64,
                "duration": 0.0840909,
                "tempo": 120.0
            },
            {
                "start_time": 22.7659091,
                "end_time": 22.85,
                "pitch": 35,
                "velocity": 64,
                "duration": 0.0840909,
                "tempo": 120.0
            },
            {
                "start_time": 22.8659091,
                "end_time": 22.9522727,
                "pitch": 40,
                "velocity": 64,
                "duration": 0.0863636,
                "tempo": 120.0
            },
            {
                "start_time": 22.9681818,
                "end_time": 23.1568182,
                "pitch": 35,
                "velocity": 64,
                "duration": 0.1886364,
                "tempo": 120.0
            },
            {
                "start_time": 23.175,
                "end_time": 23.2590909,
                "pitch": 35,
                "velocity": 64,
                "duration": 0.0840909,
                "tempo": 120.0
            },
            {
                "start_time": 23.2772727,
                "end_time": 23.4568182,
                "pitch": 35,
                "velocity": 64,
                "duration": 0.1795455,
                "tempo": 120.0
            },
            {
                "start_time": 23.4727273,
                "end_time": 23.5545455,
                "pitch": 39,
                "velocity": 64,
                "duration": 0.0818182,
                "tempo": 120.0
            },
            {
                "start_time": 23.5704545,
                "end_time": 23.6522727,
                "pitch": 35,
                "velocity": 64,
                "duration": 0.0818182,
                "tempo": 120.0
            },
            {
                "start_time": 23.6681818,
                "end_time": 23.7522727,
                "pitch": 40,
                "velocity": 64,
                "duration": 0.0840909,
                "tempo": 120.0
            },
            {
                "start_time": 23.7681818,
                "end_time": 23.9522727,
                "pitch": 35,
                "velocity": 64,
                "duration": 0.1840909,
                "tempo": 120.0
            },
            {
                "start_time": 23.9681818,
                "end_time": 24.0522727,
                "pitch": 35,
                "velocity": 64,
                "duration": 0.0840909,
                "tempo": 120.0
            },
            {
                "start_time": 24.0681818,
                "end_time": 24.2477273,
                "pitch": 35,
                "velocity": 64,
                "duration": 0.1795455,
                "tempo": 120.0
            },
            {
                "start_time": 24.2659091,
                "end_time": 24.3477273,
                "pitch": 39,
                "velocity": 64,
                "duration": 0.0818182,
                "tempo": 120.0
            },
            {
                "start_time": 24.3636364,
                "end_time": 24.4454545,
                "pitch": 35,
                "velocity": 64,
                "duration": 0.0818182,
                "tempo": 120.0
            },
            {
                "start_time": 24.4613636,
                "end_time": 24.5454545,
                "pitch": 40,
                "velocity": 64,
                "duration": 0.0840909,
                "tempo": 120.0
            },
            {
                "start_time": 24.5636364,
                "end_time": 24.7522727,
                "pitch": 35,
                "velocity": 64,
                "duration": 0.1886364,
                "tempo": 120.0
            },
            {
                "start_time": 24.7681818,
                "end_time": 24.8545455,
                "pitch": 35,
                "velocity": 64,
                "duration": 0.0863636,
                "tempo": 120.0
            },
            {
                "start_time": 24.8727273,
                "end_time": 25.0590909,
                "pitch": 35,
                "velocity": 64,
                "duration": 0.1863636,
                "tempo": 120.0
            },
            {
                "start_time": 25.0772727,
                "end_time": 25.1636364,
                "pitch": 39,
                "velocity": 64,
                "duration": 0.0863636,
                "tempo": 120.0
            },
            {
                "start_time": 25.1795455,
                "end_time": 25.2659091,
                "pitch": 35,
                "velocity": 64,
                "duration": 0.0863636,
                "tempo": 120.0
            },
            {
                "start_time": 25.2818182,
                "end_time": 25.3636364,
                "pitch": 40,
                "velocity": 64,
                "duration": 0.0818182,
                "tempo": 120.0
            },
            {
                "start_time": 25.3818182,
                "end_time": 25.5613636,
                "pitch": 35,
                "velocity": 64,
                "duration": 0.1795455,
                "tempo": 120.0
            },
            {
                "start_time": 25.5772727,
                "end_time": 25.6590909,
                "pitch": 35,
                "velocity": 64,
                "duration": 0.0818182,
                "tempo": 120.0
            },
            {
                "start_time": 25.675,
                "end_time": 25.8636364,
                "pitch": 35,
                "velocity": 64,
                "duration": 0.1886364,
                "tempo": 120.0
            },
            {
                "start_time": 25.8795455,
                "end_time": 25.9659091,
                "pitch": 39,
                "velocity": 64,
                "duration": 0.0863636,
                "tempo": 120.0
            },
            {
                "start_time": 25.9818182,
                "end_time": 26.0681818,
                "pitch": 35,
                "velocity": 64,
                "duration": 0.0863636,
                "tempo": 120.0
            },
            {
                "start_time": 26.0863636,
                "end_time": 26.1681818,
                "pitch": 40,
                "velocity": 64,
                "duration": 0.0818182,
                "tempo": 120.0
            },
            {
                "start_time": 26.1863636,
                "end_time": 26.3681818,
                "pitch": 35,
                "velocity": 64,
                "duration": 0.1818182,
                "tempo": 120.0
            },
            {
                "start_time": 26.3863636,
                "end_time": 26.4681818,
                "pitch": 35,
                "velocity": 64,
                "duration": 0.0818182,
                "tempo": 120.0
            },
            {
                "start_time": 26.4863636,
                "end_time": 26.6681818,
                "pitch": 35,
                "velocity": 64,
                "duration": 0.1818182,
                "tempo": 120.0
            },
            {
                "start_time": 26.6863636,
                "end_time": 26.7681818,
                "pitch": 39,
                "velocity": 64,
                "duration": 0.0818182,
                "tempo": 120.0
            },
            {
                "start_time": 26.7863636,
                "end_time": 26.8681818,
                "pitch": 35,
                "velocity": 64,
                "duration": 0.0818182,
                "tempo": 120.0
            },
            {
                "start_time": 26.8863636,
                "end_time": 26.9681818,
                "pitch": 40,
                "velocity": 64,
                "duration": 0.0818182,
                "tempo": 120.0
            },
            {
                "start_time": 26.9840909,
                "end_time": 27.1636364,
                "pitch": 35,
                "velocity": 64,
                "duration": 0.1795455,
                "tempo": 120.0
            },
            {
                "start_time": 27.1795455,
                "end_time": 27.2613636,
                "pitch": 35,
                "velocity": 64,
                "duration": 0.0818182,
                "tempo": 120.0
            },
            {
                "start_time": 27.2772727,
                "end_time": 27.4613636,
                "pitch": 35,
                "velocity": 64,
                "duration": 0.1840909,
                "tempo": 120.0
            },
            {
                "start_time": 27.4795455,
                "end_time": 27.5636364,
                "pitch": 39,
                "velocity": 64,
                "duration": 0.0840909,
                "tempo": 120.0
            },
            {
                "start_time": 27.5795455,
                "end_time": 27.6636364,
                "pitch": 35,
                "velocity": 64,
                "duration": 0.0840909,
                "tempo": 120.0
            },
            {
                "start_time": 27.6795455,
                "end_time": 27.7636364,
                "pitch": 40,
                "velocity": 64,
                "duration": 0.0840909,
                "tempo": 120.0
            },
            {
                "start_time": 27.7795455,
                "end_time": 27.9636364,
                "pitch": 35,
                "velocity": 64,
                "duration": 0.1840909,
                "tempo": 120.0
            },
            {
                "start_time": 27.9795455,
                "end_time": 28.0636364,
                "pitch": 35,
                "velocity": 64,
                "duration": 0.0840909,
                "tempo": 120.0
            },
            {
                "start_time": 28.0795455,
                "end_time": 28.2681818,
                "pitch": 35,
                "velocity": 64,
                "duration": 0.1886364,
                "tempo": 120.0
            },
            {
                "start_time": 28.2863636,
                "end_time": 28.3704545,
                "pitch": 39,
                "velocity": 64,
                "duration": 0.0840909,
                "tempo": 120.0
            },
            {
                "start_time": 28.3886364,
                "end_time": 28.475,
                "pitch": 39,
                "velocity": 64,
                "duration": 0.0863636,
                "tempo": 120.0
            },
            {
                "start_time": 28.4909091,
                "end_time": 28.5727273,
                "pitch": 40,
                "velocity": 64,
                "duration": 0.0818182,
                "tempo": 120.0
            },
            {
                "start_time": 28.5886364,
                "end_time": 28.7681818,
                "pitch": 35,
                "velocity": 64,
                "duration": 0.1795455,
                "tempo": 120.0
            },
            {
                "start_time": 28.7863636,
                "end_time": 28.9659091,
                "pitch": 35,
                "velocity": 64,
                "duration": 0.1795455,
                "tempo": 120.0
            },
            {
                "start_time": 28.9840909,
                "end_time": 29.0659091,
                "pitch": 35,
                "velocity": 64,
                "duration": 0.0818182,
                "tempo": 120.0
            },
            {
                "start_time": 29.0840909,
                "end_time": 29.1659091,
                "pitch": 39,
                "velocity": 64,
                "duration": 0.0818182,
                "tempo": 120.0
            },
            {
                "start_time": 29.1840909,
                "end_time": 29.2659091,
                "pitch": 35,
                "velocity": 64,
                "duration": 0.0818182,
                "tempo": 120.0
            },
            {
                "start_time": 29.2840909,
                "end_time": 29.3681818,
                "pitch": 40,
                "velocity": 64,
                "duration": 0.0840909,
                "tempo": 120.0
            },
            {
                "start_time": 29.3863636,
                "end_time": 29.575,
                "pitch": 35,
                "velocity": 64,
                "duration": 0.1886364,
                "tempo": 120.0
            },
            {
                "start_time": 29.5909091,
                "end_time": 29.6772727,
                "pitch": 35,
                "velocity": 64,
                "duration": 0.0863636,
                "tempo": 120.0
            },
            {
                "start_time": 29.6931818,
                "end_time": 29.875,
                "pitch": 35,
                "velocity": 64,
                "duration": 0.1818182,
                "tempo": 120.0
            },
            {
                "start_time": 29.8909091,
                "end_time": 29.9727273,
                "pitch": 39,
                "velocity": 64,
                "duration": 0.0818182,
                "tempo": 120.0
            },
            {
                "start_time": 29.9886364,
                "end_time": 30.0704545,
                "pitch": 35,
                "velocity": 64,
                "duration": 0.0818182,
                "tempo": 120.0
            },
            {
                "start_time": 30.0863636,
                "end_time": 30.1704545,
                "pitch": 40,
                "velocity": 64,
                "duration": 0.0840909,
                "tempo": 120.0
            },
            {
                "start_time": 30.1863636,
                "end_time": 30.3704545,
                "pitch": 35,
                "velocity": 64,
                "duration": 0.1840909,
                "tempo": 120.0
            },
            {
                "start_time": 30.3863636,
                "end_time": 30.4704545,
                "pitch": 35,
                "velocity": 64,
                "duration": 0.0840909,
                "tempo": 120.0
            },
            {
                "start_time": 30.4863636,
                "end_time": 30.6704545,
                "pitch": 35,
                "velocity": 64,
                "duration": 0.1840909,
                "tempo": 120.0
            },
            {
                "start_time": 30.6886364,
                "end_time": 30.7704545,
                "pitch": 39,
                "velocity": 64,
                "duration": 0.0818182,
                "tempo": 120.0
            },
            {
                "start_time": 30.7886364,
                "end_time": 30.8727273,
                "pitch": 35,
                "velocity": 64,
                "duration": 0.0840909,
                "tempo": 120.0
            },
            {
                "start_time": 30.8886364,
                "end_time": 30.9727273,
                "pitch": 40,
                "velocity": 64,
                "duration": 0.0840909,
                "tempo": 120.0
            },
            {
                "start_time": 30.9886364,
                "end_time": 31.1727273,
                "pitch": 35,
                "velocity": 64,
                "duration": 0.1840909,
                "tempo": 120.0
            },
            {
                "start_time": 31.1886364,
                "end_time": 31.2727273,
                "pitch": 35,
                "velocity": 64,
                "duration": 0.0840909,
                "tempo": 120.0
            },
            {
                "start_time": 31.2886364,
                "end_time": 31.4772727,
                "pitch": 35,
                "velocity": 64,
                "duration": 0.1886364,
                "tempo": 120.0
            },
            {
                "start_time": 31.4931818,
                "end_time": 31.5795455,
                "pitch": 39,
                "velocity": 64,
                "duration": 0.0863636,
                "tempo": 120.0
            },
            {
                "start_time": 31.5977273,
                "end_time": 31.6818182,
                "pitch": 35,
                "velocity": 64,
                "duration": 0.0840909,
                "tempo": 120.0
            },
            {
                "start_time": 31.7,
                "end_time": 31.7818182,
                "pitch": 40,
                "velocity": 64,
                "duration": 0.0818182,
                "tempo": 120.0
            },
            {
                "start_time": 31.7977273,
                "end_time": 31.9772727,
                "pitch": 35,
                "velocity": 64,
                "duration": 0.1795455,
                "tempo": 120.0
            },
            {
                "start_time": 31.9931818,
                "end_time": 32.075,
                "pitch": 35,
                "velocity": 64,
                "duration": 0.0818182,
                "tempo": 120.0
            },
            {
                "start_time": 32.0909091,
                "end_time": 32.2795455,
                "pitch": 35,
                "velocity": 64,
                "duration": 0.1886364,
                "tempo": 120.0
            },
            {
                "start_time": 32.2977273,
                "end_time": 32.3818182,
                "pitch": 39,
                "velocity": 64,
                "duration": 0.0840909,
                "tempo": 120.0
            },
            {
                "start_time": 32.4,
                "end_time": 32.4840909,
                "pitch": 35,
                "velocity": 64,
                "duration": 0.0840909,
                "tempo": 120.0
            },
            {
                "start_time": 32.5022727,
                "end_time": 32.5863636,
                "pitch": 40,
                "velocity": 64,
                "duration": 0.0840909,
                "tempo": 120.0
            },
            {
                "start_time": 32.6022727,
                "end_time": 32.7863636,
                "pitch": 35,
                "velocity": 64,
                "duration": 0.1840909,
                "tempo": 120.0
            },
            {
                "start_time": 32.8022727,
                "end_time": 32.8863636,
                "pitch": 35,
                "velocity": 64,
                "duration": 0.0840909,
                "tempo": 120.0
            },
            {
                "start_time": 32.9022727,
                "end_time": 33.0863636,
                "pitch": 35,
                "velocity": 64,
                "duration": 0.1840909,
                "tempo": 120.0
            },
            {
                "start_time": 33.1022727,
                "end_time": 33.1863636,
                "pitch": 39,
                "velocity": 64,
                "duration": 0.0840909,
                "tempo": 120.0
            },
            {
                "start_time": 33.2022727,
                "end_time": 33.2863636,
                "pitch": 35,
                "velocity": 64,
                "duration": 0.0840909,
                "tempo": 120.0
            },
            {
                "start_time": 33.3022727,
                "end_time": 33.3840909,
                "pitch": 40,
                "velocity": 64,
                "duration": 0.0818182,
                "tempo": 120.0
            },
            {
                "start_time": 33.4,
                "end_time": 33.5795455,
                "pitch": 35,
                "velocity": 64,
                "duration": 0.1795455,
                "tempo": 120.0
            },
            {
                "start_time": 33.5977273,
                "end_time": 33.6795455,
                "pitch": 35,
                "velocity": 64,
                "duration": 0.0818182,
                "tempo": 120.0
            },
            {
                "start_time": 33.6954545,
                "end_time": 33.8795455,
                "pitch": 35,
                "velocity": 64,
                "duration": 0.1840909,
                "tempo": 120.0
            },
            {
                "start_time": 33.8954545,
                "end_time": 33.9795455,
                "pitch": 39,
                "velocity": 64,
                "duration": 0.0840909,
                "tempo": 120.0
            },
            {
                "start_time": 33.9977273,
                "end_time": 34.0795455,
                "pitch": 35,
                "velocity": 64,
                "duration": 0.0818182,
                "tempo": 120.0
            },
            {
                "start_time": 34.0977273,
                "end_time": 34.1818182,
                "pitch": 40,
                "velocity": 64,
                "duration": 0.0840909,
                "tempo": 120.0
            },
            {
                "start_time": 34.1977273,
                "end_time": 34.3818182,
                "pitch": 35,
                "velocity": 64,
                "duration": 0.1840909,
                "tempo": 120.0
            },
            {
                "start_time": 34.3977273,
                "end_time": 34.4818182,
                "pitch": 35,
                "velocity": 64,
                "duration": 0.0840909,
                "tempo": 120.0
            },
            {
                "start_time": 34.4977273,
                "end_time": 34.5818182,
                "pitch": 35,
                "velocity": 64,
                "duration": 0.0840909,
                "tempo": 120.0
            },
            {
                "start_time": 34.6,
                "end_time": 34.6863636,
                "pitch": 41,
                "velocity": 64,
                "duration": 0.0863636,
                "tempo": 120.0
            },
            {
                "start_time": 34.7022727,
                "end_time": 34.7886364,
                "pitch": 42,
                "velocity": 64,
                "duration": 0.0863636,
                "tempo": 120.0
            },
            {
                "start_time": 34.8045455,
                "end_time": 34.8909091,
                "pitch": 35,
                "velocity": 64,
                "duration": 0.0863636,
                "tempo": 120.0
            },
            {
                "start_time": 34.9068182,
                "end_time": 34.9909091,
                "pitch": 41,
                "velocity": 64,
                "duration": 0.0840909,
                "tempo": 120.0
            },
            {
                "start_time": 35.0090909,
                "end_time": 35.0909091,
                "pitch": 42,
                "velocity": 64,
                "duration": 0.0818182,
                "tempo": 120.0
            },
            {
                "start_time": 35.1090909,
                "end_time": 35.1909091,
                "pitch": 44,
                "velocity": 64,
                "duration": 0.0818182,
                "tempo": 120.0
            },
            {
                "start_time": 35.2090909,
                "end_time": 35.2909091,
                "pitch": 43,
                "velocity": 64,
                "duration": 0.0818182,
                "tempo": 120.0
            },
            {
                "start_time": 35.3090909,
                "end_time": 35.3931818,
                "pitch": 42,
                "velocity": 64,
                "duration": 0.0840909,
                "tempo": 120.0
            },
            {
                "start_time": 35.4090909,
                "end_time": 35.4931818,
                "pitch": 41,
                "velocity": 64,
                "duration": 0.0840909,
                "tempo": 120.0
            },
            {
                "start_time": 35.5090909,
                "end_time": 35.5931818,
                "pitch": 40,
                "velocity": 64,
                "duration": 0.0840909,
                "tempo": 120.0
            },
            {
                "start_time": 35.6113636,
                "end_time": 35.6931818,
                "pitch": 39,
                "velocity": 64,
                "duration": 0.0818182,
                "tempo": 120.0
            },
            {
                "start_time": 35.7113636,
                "end_time": 35.7954545,
                "pitch": 35,
                "velocity": 64,
                "duration": 0.0840909,
                "tempo": 120.0
            },
            {
                "start_time": 35.8113636,
                "end_time": 35.8954545,
                "pitch": 41,
                "velocity": 64,
                "duration": 0.0840909,
                "tempo": 120.0
            },
            {
                "start_time": 35.9113636,
                "end_time": 35.9954545,
                "pitch": 42,
                "velocity": 64,
                "duration": 0.0840909,
                "tempo": 120.0
            },
            {
                "start_time": 36.0113636,
                "end_time": 36.0954545,
                "pitch": 35,
                "velocity": 64,
                "duration": 0.0840909,
                "tempo": 120.0
            },
            {
                "start_time": 36.1113636,
                "end_time": 36.1954545,
                "pitch": 41,
                "velocity": 64,
                "duration": 0.0840909,
                "tempo": 120.0
            },
            {
                "start_time": 36.2113636,
                "end_time": 36.2954545,
                "pitch": 42,
                "velocity": 64,
                "duration": 0.0840909,
                "tempo": 120.0
            },
            {
                "start_time": 36.3113636,
                "end_time": 36.3954545,
                "pitch": 44,
                "velocity": 64,
                "duration": 0.0840909,
                "tempo": 120.0
            },
            {
                "start_time": 36.4113636,
                "end_time": 36.4954545,
                "pitch": 43,
                "velocity": 64,
                "duration": 0.0840909,
                "tempo": 120.0
            },
            {
                "start_time": 36.5113636,
                "end_time": 36.5954545,
                "pitch": 42,
                "velocity": 64,
                "duration": 0.0840909,
                "tempo": 120.0
            },
            {
                "start_time": 36.6113636,
                "end_time": 36.6954545,
                "pitch": 41,
                "velocity": 64,
                "duration": 0.0840909,
                "tempo": 120.0
            },
            {
                "start_time": 36.7113636,
                "end_time": 36.7954545,
                "pitch": 40,
                "velocity": 64,
                "duration": 0.0840909,
                "tempo": 120.0
            },
            {
                "start_time": 36.8113636,
                "end_time": 36.8954545,
                "pitch": 39,
                "velocity": 64,
                "duration": 0.0840909,
                "tempo": 120.0
            },
            {
                "start_time": 36.9113636,
                "end_time": 37.0954545,
                "pitch": 35,
                "velocity": 64,
                "duration": 0.1840909,
                "tempo": 120.0
            },
            {
                "start_time": 37.1113636,
                "end_time": 37.1954545,
                "pitch": 39,
                "velocity": 64,
                "duration": 0.0840909,
                "tempo": 120.0
            },
            {
                "start_time": 37.2113636,
                "end_time": 37.2954545,
                "pitch": 39,
                "velocity": 64,
                "duration": 0.0840909,
                "tempo": 120.0
            },
            {
                "start_time": 37.3113636,
                "end_time": 37.3931818,
                "pitch": 40,
                "velocity": 64,
                "duration": 0.0818182,
                "tempo": 120.0
            },
            {
                "start_time": 37.4090909,
                "end_time": 37.5886364,
                "pitch": 35,
                "velocity": 64,
                "duration": 0.1795455,
                "tempo": 120.0
            },
            {
                "start_time": 37.6045455,
                "end_time": 37.7863636,
                "pitch": 35,
                "velocity": 64,
                "duration": 0.1818182,
                "tempo": 120.0
            },
            {
                "start_time": 37.8045455,
                "end_time": 37.8886364,
                "pitch": 35,
                "velocity": 64,
                "duration": 0.0840909,
                "tempo": 120.0
            },
            {
                "start_time": 37.9045455,
                "end_time": 37.9886364,
                "pitch": 39,
                "velocity": 64,
                "duration": 0.0840909,
                "tempo": 120.0
            },
            {
                "start_time": 38.0045455,
                "end_time": 38.0886364,
                "pitch": 35,
                "velocity": 64,
                "duration": 0.0840909,
                "tempo": 120.0
            },
            {
                "start_time": 38.1068182,
                "end_time": 38.1909091,
                "pitch": 40,
                "velocity": 64,
                "duration": 0.0840909,
                "tempo": 120.0
            },
            {
                "start_time": 38.2090909,
                "end_time": 38.3977273,
                "pitch": 35,
                "velocity": 64,
                "duration": 0.1886364,
                "tempo": 120.0
            },
            {
                "start_time": 38.4136364,
                "end_time": 38.5,
                "pitch": 35,
                "velocity": 64,
                "duration": 0.0863636,
                "tempo": 120.0
            },
            {
                "start_time": 38.5159091,
                "end_time": 38.7,
                "pitch": 35,
                "velocity": 64,
                "duration": 0.1840909,
                "tempo": 120.0
            },
            {
                "start_time": 38.7159091,
                "end_time": 38.8,
                "pitch": 39,
                "velocity": 64,
                "duration": 0.0840909,
                "tempo": 120.0
            },
            {
                "start_time": 38.8159091,
                "end_time": 38.9,
                "pitch": 35,
                "velocity": 64,
                "duration": 0.0840909,
                "tempo": 120.0
            },
            {
                "start_time": 38.9159091,
                "end_time": 38.9977273,
                "pitch": 40,
                "velocity": 64,
                "duration": 0.0818182,
                "tempo": 120.0
            },
            {
                "start_time": 39.0159091,
                "end_time": 39.1954545,
                "pitch": 35,
                "velocity": 64,
                "duration": 0.1795455,
                "tempo": 120.0
            },
            {
                "start_time": 39.2113636,
                "end_time": 39.2931818,
                "pitch": 35,
                "velocity": 64,
                "duration": 0.0818182,
                "tempo": 120.0
            },
            {
                "start_time": 39.3090909,
                "end_time": 39.4931818,
                "pitch": 35,
                "velocity": 64,
                "duration": 0.1840909,
                "tempo": 120.0
            },
            {
                "start_time": 39.5090909,
                "end_time": 39.5931818,
                "pitch": 39,
                "velocity": 64,
                "duration": 0.0840909,
                "tempo": 120.0
            },
            {
                "start_time": 39.6090909,
                "end_time": 39.6931818,
                "pitch": 35,
                "velocity": 64,
                "duration": 0.0840909,
                "tempo": 120.0
            },
            {
                "start_time": 39.7090909,
                "end_time": 39.7931818,
                "pitch": 40,
                "velocity": 64,
                "duration": 0.0840909,
                "tempo": 120.0
            },
            {
                "start_time": 39.8090909,
                "end_time": 39.9931818,
                "pitch": 35,
                "velocity": 64,
                "duration": 0.1840909,
                "tempo": 120.0
            },
            {
                "start_time": 40.0113636,
                "end_time": 40.0954545,
                "pitch": 35,
                "velocity": 64,
                "duration": 0.0840909,
                "tempo": 120.0
            }
        ],
        "French Horn": [
            {
                "start_time": 0.0,
                "end_time": 0.7590909,
                "pitch": 73,
                "velocity": 80,
                "duration": 0.7590909,
                "tempo": 120.0
            },
            {
                "start_time": 0.775,
                "end_time": 1.1590909,
                "pitch": 76,
                "velocity": 80,
                "duration": 0.3840909,
                "tempo": 120.0
            },
            {
                "start_time": 1.175,
                "end_time": 1.5681818,
                "pitch": 78,
                "velocity": 80,
                "duration": 0.3931818,
                "tempo": 120.0
            },
            {
                "start_time": 1.5863636,
                "end_time": 3.1681818,
                "pitch": 75,
                "velocity": 80,
                "duration": 1.5818182,
                "tempo": 120.0
            },
            {
                "start_time": 3.1840909,
                "end_time": 3.9704545,
                "pitch": 73,
                "velocity": 80,
                "duration": 0.7863636,
                "tempo": 120.0
            },
            {
                "start_time": 3.9863636,
                "end_time": 4.3727273,
                "pitch": 76,
                "velocity": 80,
                "duration": 0.3863636,
                "tempo": 120.0
            },
            {
                "start_time": 4.3886364,
                "end_time": 4.7818182,
                "pitch": 78,
                "velocity": 80,
                "duration": 0.3931818,
                "tempo": 120.0
            },
            {
                "start_time": 4.8,
                "end_time": 6.3795455,
                "pitch": 75,
                "velocity": 80,
                "duration": 1.5795455,
                "tempo": 120.0
            },
            {
                "start_time": 6.3954545,
                "end_time": 7.1818182,
                "pitch": 82,
                "velocity": 80,
                "duration": 0.7863636,
                "tempo": 120.0
            },
            {
                "start_time": 7.2,
                "end_time": 7.5840909,
                "pitch": 88,
                "velocity": 80,
                "duration": 0.3840909,
                "tempo": 120.0
            },
            {
                "start_time": 7.6022727,
                "end_time": 7.9954545,
                "pitch": 87,
                "velocity": 80,
                "duration": 0.3931818,
                "tempo": 120.0
            },
            {
                "start_time": 8.0113636,
                "end_time": 9.5931818,
                "pitch": 83,
                "velocity": 80,
                "duration": 1.5818182,
                "tempo": 120.0
            },
            {
                "start_time": 9.6090909,
                "end_time": 10.3977273,
                "pitch": 82,
                "velocity": 80,
                "duration": 0.7886364,
                "tempo": 120.0
            },
            {
                "start_time": 10.4136364,
                "end_time": 10.7977273,
                "pitch": 88,
                "velocity": 80,
                "duration": 0.3840909,
                "tempo": 120.0
            },
            {
                "start_time": 10.8159091,
                "end_time": 11.2090909,
                "pitch": 87,
                "velocity": 80,
                "duration": 0.3931818,
                "tempo": 120.0
            },
            {
                "start_time": 11.2272727,
                "end_time": 12.8068182,
                "pitch": 83,
                "velocity": 80,
                "duration": 1.5795455,
                "tempo": 120.0
            },
            {
                "start_time": 12.825,
                "end_time": 13.6113636,
                "pitch": 80,
                "velocity": 80,
                "duration": 0.7863636,
                "tempo": 120.0
            },
            {
                "start_time": 13.6272727,
                "end_time": 14.0136364,
                "pitch": 85,
                "velocity": 80,
                "duration": 0.3863636,
                "tempo": 120.0
            },
            {
                "start_time": 14.0295455,
                "end_time": 14.4227273,
                "pitch": 87,
                "velocity": 80,
                "duration": 0.3931818,
                "tempo": 120.0
            },
            {
                "start_time": 14.4409091,
                "end_time": 16.025,
                "pitch": 82,
                "velocity": 80,
                "duration": 1.5840909,
                "tempo": 120.0
            },
            {
                "start_time": 16.0409091,
                "end_time": 16.8272727,
                "pitch": 80,
                "velocity": 80,
                "duration": 0.7863636,
                "tempo": 120.0
            },
            {
                "start_time": 16.8431818,
                "end_time": 17.2272727,
                "pitch": 85,
                "velocity": 80,
                "duration": 0.3840909,
                "tempo": 120.0
            },
            {
                "start_time": 17.2431818,
                "end_time": 17.6363636,
                "pitch": 87,
                "velocity": 80,
                "duration": 0.3931818,
                "tempo": 120.0
            },
            {
                "start_time": 17.6545455,
                "end_time": 19.2363636,
                "pitch": 82,
                "velocity": 80,
                "duration": 1.5818182,
                "tempo": 120.0
            },
            {
                "start_time": 19.2681818,
                "end_time": 19.3363636,
                "pitch": 59,
                "velocity": 80,
                "duration": 0.0681818,
                "tempo": 120.0
            },
            {
                "start_time": 19.3545455,
                "end_time": 19.4409091,
                "pitch": 65,
                "velocity": 80,
                "duration": 0.0863636,
                "tempo": 120.0
            },
            {
                "start_time": 19.4568182,
                "end_time": 19.5431818,
                "pitch": 66,
                "velocity": 80,
                "duration": 0.0863636,
                "tempo": 120.0
            },
            {
                "start_time": 19.5590909,
                "end_time": 19.6454545,
                "pitch": 59,
                "velocity": 80,
                "duration": 0.0863636,
                "tempo": 120.0
            },
            {
                "start_time": 19.6636364,
                "end_time": 19.7477273,
                "pitch": 65,
                "velocity": 80,
                "duration": 0.0840909,
                "tempo": 120.0
            },
            {
                "start_time": 19.7636364,
                "end_time": 19.8477273,
                "pitch": 66,
                "velocity": 80,
                "duration": 0.0840909,
                "tempo": 120.0
            },
            {
                "start_time": 19.8636364,
                "end_time": 19.9477273,
                "pitch": 68,
                "velocity": 80,
                "duration": 0.0840909,
                "tempo": 120.0
            },
            {
                "start_time": 19.9659091,
                "end_time": 20.05,
                "pitch": 67,
                "velocity": 80,
                "duration": 0.0840909,
                "tempo": 120.0
            },
            {
                "start_time": 20.0659091,
                "end_time": 20.15,
                "pitch": 66,
                "velocity": 80,
                "duration": 0.0840909,
                "tempo": 120.0
            },
            {
                "start_time": 20.1659091,
                "end_time": 20.25,
                "pitch": 65,
                "velocity": 80,
                "duration": 0.0840909,
                "tempo": 120.0
            },
            {
                "start_time": 20.2659091,
                "end_time": 20.35,
                "pitch": 64,
                "velocity": 80,
                "duration": 0.0840909,
                "tempo": 120.0
            },
            {
                "start_time": 20.3659091,
                "end_time": 20.45,
                "pitch": 63,
                "velocity": 80,
                "duration": 0.0840909,
                "tempo": 120.0
            },
            {
                "start_time": 20.4659091,
                "end_time": 20.55,
                "pitch": 59,
                "velocity": 80,
                "duration": 0.0840909,
                "tempo": 120.0
            },
            {
                "start_time": 20.5659091,
                "end_time": 20.65,
                "pitch": 65,
                "velocity": 80,
                "duration": 0.0840909,
                "tempo": 120.0
            },
            {
                "start_time": 20.6659091,
                "end_time": 20.75,
                "pitch": 66,
                "velocity": 80,
                "duration": 0.0840909,
                "tempo": 120.0
            },
            {
                "start_time": 20.7659091,
                "end_time": 20.85,
                "pitch": 59,
                "velocity": 80,
                "duration": 0.0840909,
                "tempo": 120.0
            },
            {
                "start_time": 20.8659091,
                "end_time": 20.95,
                "pitch": 65,
                "velocity": 80,
                "duration": 0.0840909,
                "tempo": 120.0
            },
            {
                "start_time": 20.9659091,
                "end_time": 21.05,
                "pitch": 66,
                "velocity": 80,
                "duration": 0.0840909,
                "tempo": 120.0
            },
            {
                "start_time": 21.0681818,
                "end_time": 21.15,
                "pitch": 68,
                "velocity": 80,
                "duration": 0.0818182,
                "tempo": 120.0
            },
            {
                "start_time": 21.1681818,
                "end_time": 21.2522727,
                "pitch": 67,
                "velocity": 80,
                "duration": 0.0840909,
                "tempo": 120.0
            },
            {
                "start_time": 21.2681818,
                "end_time": 21.3522727,
                "pitch": 66,
                "velocity": 80,
                "duration": 0.0840909,
                "tempo": 120.0
            },
            {
                "start_time": 21.3681818,
                "end_time": 21.4522727,
                "pitch": 65,
                "velocity": 80,
                "duration": 0.0840909,
                "tempo": 120.0
            },
            {
                "start_time": 21.4681818,
                "end_time": 21.5522727,
                "pitch": 64,
                "velocity": 80,
                "duration": 0.0840909,
                "tempo": 120.0
            },
            {
                "start_time": 21.5681818,
                "end_time": 21.6522727,
                "pitch": 63,
                "velocity": 80,
                "duration": 0.0840909,
                "tempo": 120.0
            },
            {
                "start_time": 21.6863636,
                "end_time": 22.4477273,
                "pitch": 73,
                "velocity": 80,
                "duration": 0.7613636,
                "tempo": 120.0
            },
            {
                "start_time": 22.4636364,
                "end_time": 22.85,
                "pitch": 76,
                "velocity": 80,
                "duration": 0.3863636,
                "tempo": 120.0
            },
            {
                "start_time": 22.8659091,
                "end_time": 23.2590909,
                "pitch": 78,
                "velocity": 80,
                "duration": 0.3931818,
                "tempo": 120.0
            },
            {
                "start_time": 23.2772727,
                "end_time": 24.8545455,
                "pitch": 75,
                "velocity": 80,
                "duration": 1.5772727,
                "tempo": 120.0
            },
            {
                "start_time": 24.8727273,
                "end_time": 25.6590909,
                "pitch": 73,
                "velocity": 80,
                "duration": 0.7863636,
                "tempo": 120.0
            },
            {
                "start_time": 25.675,
                "end_time": 26.0681818,
                "pitch": 76,
                "velocity": 80,
                "duration": 0.3931818,
                "tempo": 120.0
            },
            {
                "start_time": 26.0863636,
                "end_time": 26.4681818,
                "pitch": 78,
                "velocity": 80,
                "duration": 0.3818182,
                "tempo": 120.0
            },
            {
                "start_time": 26.4863636,
                "end_time": 28.0636364,
                "pitch": 75,
                "velocity": 80,
                "duration": 1.5772727,
                "tempo": 120.0
            },
            {
                "start_time": 28.0977273,
                "end_time": 28.8681818,
                "pitch": 73,
                "velocity": 80,
                "duration": 0.7704545,
                "tempo": 120.0
            },
            {
                "start_time": 28.8840909,
                "end_time": 29.2659091,
                "pitch": 76,
                "velocity": 80,
                "duration": 0.3818182,
                "tempo": 120.0
            },
            {
                "start_time": 29.2840909,
                "end_time": 29.6772727,
                "pitch": 78,
                "velocity": 80,
                "duration": 0.3931818,
                "tempo": 120.0
            },
            {
                "start_time": 29.6931818,
                "end_time": 31.2727273,
                "pitch": 75,
                "velocity": 80,
                "duration": 1.5795455,
                "tempo": 120.0
            },
            {
                "start_time": 31.2886364,
                "end_time": 32.075,
                "pitch": 73,
                "velocity": 80,
                "duration": 0.7863636,
                "tempo": 120.0
            },
            {
                "start_time": 32.0909091,
                "end_time": 32.4840909,
                "pitch": 76,
                "velocity": 80,
                "duration": 0.3931818,
                "tempo": 120.0
            },
            {
                "start_time": 32.5022727,
                "end_time": 32.8863636,
                "pitch": 78,
                "velocity": 80,
                "duration": 0.3840909,
                "tempo": 120.0
            },
            {
                "start_time": 32.9022727,
                "end_time": 34.4818182,
                "pitch": 75,
                "velocity": 80,
                "duration": 1.5795455,
                "tempo": 120.0
            },
            {
                "start_time": 34.5136364,
                "end_time": 34.5818182,
                "pitch": 59,
                "velocity": 80,
                "duration": 0.0681818,
                "tempo": 120.0
            },
            {
                "start_time": 34.6,
                "end_time": 34.6863636,
                "pitch": 65,
                "velocity": 80,
                "duration": 0.0863636,
                "tempo": 120.0
            },
            {
                "start_time": 34.7022727,
                "end_time": 34.7886364,
                "pitch": 66,
                "velocity": 80,
                "duration": 0.0863636,
                "tempo": 120.0
            },
            {
                "start_time": 34.8045455,
                "end_time": 34.8909091,
                "pitch": 59,
                "velocity": 80,
                "duration": 0.0863636,
                "tempo": 120.0
            },
            {
                "start_time": 34.9068182,
                "end_time": 34.9909091,
                "pitch": 65,
                "velocity": 80,
                "duration": 0.0840909,
                "tempo": 120.0
            },
            {
                "start_time": 35.0090909,
                "end_time": 35.0909091,
                "pitch": 66,
                "velocity": 80,
                "duration": 0.0818182,
                "tempo": 120.0
            },
            {
                "start_time": 35.1090909,
                "end_time": 35.1909091,
                "pitch": 68,
                "velocity": 80,
                "duration": 0.0818182,
                "tempo": 120.0
            },
            {
                "start_time": 35.2090909,
                "end_time": 35.2909091,
                "pitch": 67,
                "velocity": 80,
                "duration": 0.0818182,
                "tempo": 120.0
            },
            {
                "start_time": 35.3090909,
                "end_time": 35.3931818,
                "pitch": 66,
                "velocity": 80,
                "duration": 0.0840909,
                "tempo": 120.0
            },
            {
                "start_time": 35.4090909,
                "end_time": 35.4931818,
                "pitch": 65,
                "velocity": 80,
                "duration": 0.0840909,
                "tempo": 120.0
            },
            {
                "start_time": 35.5090909,
                "end_time": 35.5931818,
                "pitch": 64,
                "velocity": 80,
                "duration": 0.0840909,
                "tempo": 120.0
            },
            {
                "start_time": 35.6113636,
                "end_time": 35.6931818,
                "pitch": 63,
                "velocity": 80,
                "duration": 0.0818182,
                "tempo": 120.0
            },
            {
                "start_time": 35.7113636,
                "end_time": 35.7954545,
                "pitch": 59,
                "velocity": 80,
                "duration": 0.0840909,
                "tempo": 120.0
            },
            {
                "start_time": 35.8113636,
                "end_time": 35.8954545,
                "pitch": 65,
                "velocity": 80,
                "duration": 0.0840909,
                "tempo": 120.0
            },
            {
                "start_time": 35.9113636,
                "end_time": 35.9954545,
                "pitch": 66,
                "velocity": 80,
                "duration": 0.0840909,
                "tempo": 120.0
            },
            {
                "start_time": 36.0113636,
                "end_time": 36.0954545,
                "pitch": 59,
                "velocity": 80,
                "duration": 0.0840909,
                "tempo": 120.0
            },
            {
                "start_time": 36.1113636,
                "end_time": 36.1954545,
                "pitch": 65,
                "velocity": 80,
                "duration": 0.0840909,
                "tempo": 120.0
            },
            {
                "start_time": 36.2113636,
                "end_time": 36.2954545,
                "pitch": 66,
                "velocity": 80,
                "duration": 0.0840909,
                "tempo": 120.0
            },
            {
                "start_time": 36.3113636,
                "end_time": 36.3954545,
                "pitch": 68,
                "velocity": 80,
                "duration": 0.0840909,
                "tempo": 120.0
            },
            {
                "start_time": 36.4113636,
                "end_time": 36.4954545,
                "pitch": 67,
                "velocity": 80,
                "duration": 0.0840909,
                "tempo": 120.0
            },
            {
                "start_time": 36.5113636,
                "end_time": 36.5954545,
                "pitch": 66,
                "velocity": 80,
                "duration": 0.0840909,
                "tempo": 120.0
            },
            {
                "start_time": 36.6113636,
                "end_time": 36.6954545,
                "pitch": 65,
                "velocity": 80,
                "duration": 0.0840909,
                "tempo": 120.0
            },
            {
                "start_time": 36.7113636,
                "end_time": 36.7954545,
                "pitch": 64,
                "velocity": 80,
                "duration": 0.0840909,
                "tempo": 120.0
            },
            {
                "start_time": 36.8113636,
                "end_time": 36.8954545,
                "pitch": 63,
                "velocity": 80,
                "duration": 0.0840909,
                "tempo": 120.0
            },
            {
                "start_time": 36.9272727,
                "end_time": 37.6863636,
                "pitch": 73,
                "velocity": 80,
                "duration": 0.7590909,
                "tempo": 120.0
            },
            {
                "start_time": 37.7022727,
                "end_time": 38.0886364,
                "pitch": 76,
                "velocity": 80,
                "duration": 0.3863636,
                "tempo": 120.0
            },
            {
                "start_time": 38.1068182,
                "end_time": 38.5,
                "pitch": 78,
                "velocity": 80,
                "duration": 0.3931818,
                "tempo": 120.0
            },
            {
                "start_time": 38.5159091,
                "end_time": 40.0954545,
                "pitch": 75,
                "velocity": 80,
                "duration": 1.5795455,
                "tempo": 120.0
            }
        ],
        "Trumpet": [
            {
                "start_time": 0.1159091,
                "end_time": 0.8931818,
                "pitch": 68,
                "velocity": 25,
                "duration": 0.7772727,
                "tempo": 120.0
            },
            {
                "start_time": 0.9090909,
                "end_time": 1.2954545,
                "pitch": 71,
                "velocity": 25,
                "duration": 0.3863636,
                "tempo": 120.0
            },
            {
                "start_time": 1.3113636,
                "end_time": 1.7045455,
                "pitch": 73,
                "velocity": 25,
                "duration": 0.3931818,
                "tempo": 120.0
            },
            {
                "start_time": 1.7204545,
                "end_time": 3.1772727,
                "pitch": 70,
                "velocity": 25,
                "duration": 1.4568182,
                "tempo": 120.0
            },
            {
                "start_time": 3.1772727,
                "end_time": 3.3022727,
                "pitch": 70,
                "velocity": 25,
                "duration": 0.125,
                "tempo": 120.0
            },
            {
                "start_time": 3.3204545,
                "end_time": 4.1045455,
                "pitch": 68,
                "velocity": 25,
                "duration": 0.7840909,
                "tempo": 120.0
            },
            {
                "start_time": 4.1204545,
                "end_time": 4.5090909,
                "pitch": 71,
                "velocity": 25,
                "duration": 0.3886364,
                "tempo": 120.0
            },
            {
                "start_time": 4.525,
                "end_time": 4.9181818,
                "pitch": 73,
                "velocity": 25,
                "duration": 0.3931818,
                "tempo": 120.0
            },
            {
                "start_time": 4.9340909,
                "end_time": 6.5159091,
                "pitch": 70,
                "velocity": 25,
                "duration": 1.5818182,
                "tempo": 120.0
            },
            {
                "start_time": 6.5318182,
                "end_time": 6.6181818,
                "pitch": 75,
                "velocity": 25,
                "duration": 0.0863636,
                "tempo": 120.0
            },
            {
                "start_time": 6.6363636,
                "end_time": 6.7204545,
                "pitch": 80,
                "velocity": 25,
                "duration": 0.0840909,
                "tempo": 120.0
            },
            {
                "start_time": 6.7386364,
                "end_time": 6.8227273,
                "pitch": 79,
                "velocity": 25,
                "duration": 0.0840909,
                "tempo": 120.0
            },
            {
                "start_time": 6.8386364,
                "end_time": 6.9204545,
                "pitch": 75,
                "velocity": 25,
                "duration": 0.0818182,
                "tempo": 120.0
            },
            {
                "start_time": 6.9386364,
                "end_time": 7.0181818,
                "pitch": 80,
                "velocity": 25,
                "duration": 0.0795455,
                "tempo": 120.0
            },
            {
                "start_time": 7.0363636,
                "end_time": 7.1181818,
                "pitch": 79,
                "velocity": 25,
                "duration": 0.0818182,
                "tempo": 120.0
            },
            {
                "start_time": 7.1340909,
                "end_time": 7.2159091,
                "pitch": 75,
                "velocity": 25,
                "duration": 0.0818182,
                "tempo": 120.0
            },
            {
                "start_time": 7.2318182,
                "end_time": 7.3159091,
                "pitch": 80,
                "velocity": 25,
                "duration": 0.0840909,
                "tempo": 120.0
            },
            {
                "start_time": 7.3340909,
                "end_time": 7.4159091,
                "pitch": 79,
                "velocity": 25,
                "duration": 0.0818182,
                "tempo": 120.0
            },
            {
                "start_time": 7.4340909,
                "end_time": 7.5181818,
                "pitch": 75,
                "velocity": 25,
                "duration": 0.0840909,
                "tempo": 120.0
            },
            {
                "start_time": 7.5340909,
                "end_time": 7.6181818,
                "pitch": 80,
                "velocity": 25,
                "duration": 0.0840909,
                "tempo": 120.0
            },
            {
                "start_time": 7.6363636,
                "end_time": 7.7204545,
                "pitch": 79,
                "velocity": 25,
                "duration": 0.0840909,
                "tempo": 120.0
            },
            {
                "start_time": 7.7386364,
                "end_time": 7.8227273,
                "pitch": 75,
                "velocity": 25,
                "duration": 0.0840909,
                "tempo": 120.0
            },
            {
                "start_time": 7.8409091,
                "end_time": 7.9272727,
                "pitch": 80,
                "velocity": 25,
                "duration": 0.0863636,
                "tempo": 120.0
            },
            {
                "start_time": 7.9431818,
                "end_time": 8.0295455,
                "pitch": 79,
                "velocity": 25,
                "duration": 0.0863636,
                "tempo": 120.0
            },
            {
                "start_time": 8.0454545,
                "end_time": 8.1295455,
                "pitch": 75,
                "velocity": 25,
                "duration": 0.0840909,
                "tempo": 120.0
            },
            {
                "start_time": 8.1477273,
                "end_time": 8.2295455,
                "pitch": 80,
                "velocity": 25,
                "duration": 0.0818182,
                "tempo": 120.0
            },
            {
                "start_time": 8.2477273,
                "end_time": 8.3318182,
                "pitch": 79,
                "velocity": 25,
                "duration": 0.0840909,
                "tempo": 120.0
            },
            {
                "start_time": 8.3477273,
                "end_time": 8.4318182,
                "pitch": 75,
                "velocity": 25,
                "duration": 0.0840909,
                "tempo": 120.0
            },
            {
                "start_time": 8.4477273,
                "end_time": 8.5295455,
                "pitch": 80,
                "velocity": 25,
                "duration": 0.0818182,
                "tempo": 120.0
            },
            {
                "start_time": 8.5454545,
                "end_time": 8.6272727,
                "pitch": 79,
                "velocity": 25,
                "duration": 0.0818182,
                "tempo": 120.0
            },
            {
                "start_time": 8.6431818,
                "end_time": 8.725,
                "pitch": 75,
                "velocity": 25,
                "duration": 0.0818182,
                "tempo": 120.0
            },
            {
                "start_time": 8.7431818,
                "end_time": 8.825,
                "pitch": 80,
                "velocity": 25,
                "duration": 0.0818182,
                "tempo": 120.0
            },
            {
                "start_time": 8.8409091,
                "end_time": 8.925,
                "pitch": 79,
                "velocity": 25,
                "duration": 0.0840909,
                "tempo": 120.0
            },
            {
                "start_time": 8.9409091,
                "end_time": 9.025,
                "pitch": 75,
                "velocity": 25,
                "duration": 0.0840909,
                "tempo": 120.0
            },
            {
                "start_time": 9.0409091,
                "end_time": 9.125,
                "pitch": 80,
                "velocity": 25,
                "duration": 0.0840909,
                "tempo": 120.0
            },
            {
                "start_time": 9.1409091,
                "end_time": 9.225,
                "pitch": 79,
                "velocity": 25,
                "duration": 0.0840909,
                "tempo": 120.0
            },
            {
                "start_time": 9.2409091,
                "end_time": 9.325,
                "pitch": 75,
                "velocity": 25,
                "duration": 0.0840909,
                "tempo": 120.0
            },
            {
                "start_time": 9.3409091,
                "end_time": 9.425,
                "pitch": 80,
                "velocity": 25,
                "duration": 0.0840909,
                "tempo": 120.0
            },
            {
                "start_time": 9.4431818,
                "end_time": 9.525,
                "pitch": 79,
                "velocity": 25,
                "duration": 0.0818182,
                "tempo": 120.0
            },
            {
                "start_time": 9.5431818,
                "end_time": 9.6272727,
                "pitch": 75,
                "velocity": 25,
                "duration": 0.0840909,
                "tempo": 120.0
            },
            {
                "start_time": 9.6431818,
                "end_time": 9.7295455,
                "pitch": 80,
                "velocity": 25,
                "duration": 0.0863636,
                "tempo": 120.0
            },
            {
                "start_time": 9.7477273,
                "end_time": 9.8318182,
                "pitch": 79,
                "velocity": 25,
                "duration": 0.0840909,
                "tempo": 120.0
            },
            {
                "start_time": 9.85,
                "end_time": 9.9340909,
                "pitch": 75,
                "velocity": 25,
                "duration": 0.0840909,
                "tempo": 120.0
            },
            {
                "start_time": 9.9522727,
                "end_time": 10.0363636,
                "pitch": 80,
                "velocity": 25,
                "duration": 0.0840909,
                "tempo": 120.0
            },
            {
                "start_time": 10.0545455,
                "end_time": 10.1363636,
                "pitch": 79,
                "velocity": 25,
                "duration": 0.0818182,
                "tempo": 120.0
            },
            {
                "start_time": 10.1522727,
                "end_time": 10.2340909,
                "pitch": 75,
                "velocity": 25,
                "duration": 0.0818182,
                "tempo": 120.0
            },
            {
                "start_time": 10.25,
                "end_time": 10.3318182,
                "pitch": 80,
                "velocity": 25,
                "duration": 0.0818182,
                "tempo": 120.0
            },
            {
                "start_time": 10.3477273,
                "end_time": 10.4295455,
                "pitch": 79,
                "velocity": 25,
                "duration": 0.0818182,
                "tempo": 120.0
            },
            {
                "start_time": 10.4454545,
                "end_time": 10.5295455,
                "pitch": 75,
                "velocity": 25,
                "duration": 0.0840909,
                "tempo": 120.0
            },
            {
                "start_time": 10.5477273,
                "end_time": 10.6318182,
                "pitch": 80,
                "velocity": 25,
                "duration": 0.0840909,
                "tempo": 120.0
            },
            {
                "start_time": 10.6477273,
                "end_time": 10.7318182,
                "pitch": 79,
                "velocity": 25,
                "duration": 0.0840909,
                "tempo": 120.0
            },
            {
                "start_time": 10.7477273,
                "end_time": 10.8318182,
                "pitch": 75,
                "velocity": 25,
                "duration": 0.0840909,
                "tempo": 120.0
            },
            {
                "start_time": 10.85,
                "end_time": 10.9340909,
                "pitch": 80,
                "velocity": 25,
                "duration": 0.0840909,
                "tempo": 120.0
            },
            {
                "start_time": 10.9522727,
                "end_time": 11.0386364,
                "pitch": 79,
                "velocity": 25,
                "duration": 0.0863636,
                "tempo": 120.0
            },
            {
                "start_time": 11.0545455,
                "end_time": 11.1409091,
                "pitch": 75,
                "velocity": 25,
                "duration": 0.0863636,
                "tempo": 120.0
            },
            {
                "start_time": 11.1568182,
                "end_time": 11.2431818,
                "pitch": 80,
                "velocity": 25,
                "duration": 0.0863636,
                "tempo": 120.0
            },
            {
                "start_time": 11.2590909,
                "end_time": 11.3431818,
                "pitch": 79,
                "velocity": 25,
                "duration": 0.0840909,
                "tempo": 120.0
            },
            {
                "start_time": 11.3590909,
                "end_time": 11.4431818,
                "pitch": 75,
                "velocity": 25,
                "duration": 0.0840909,
                "tempo": 120.0
            },
            {
                "start_time": 11.4590909,
                "end_time": 11.5431818,
                "pitch": 80,
                "velocity": 25,
                "duration": 0.0840909,
                "tempo": 120.0
            },
            {
                "start_time": 11.5590909,
                "end_time": 11.6431818,
                "pitch": 79,
                "velocity": 25,
                "duration": 0.0840909,
                "tempo": 120.0
            },
            {
                "start_time": 11.6590909,
                "end_time": 11.7409091,
                "pitch": 75,
                "velocity": 25,
                "duration": 0.0818182,
                "tempo": 120.0
            },
            {
                "start_time": 11.7568182,
                "end_time": 11.8386364,
                "pitch": 80,
                "velocity": 25,
                "duration": 0.0818182,
                "tempo": 120.0
            },
            {
                "start_time": 11.8545455,
                "end_time": 11.9363636,
                "pitch": 79,
                "velocity": 25,
                "duration": 0.0818182,
                "tempo": 120.0
            },
            {
                "start_time": 11.9545455,
                "end_time": 12.0363636,
                "pitch": 75,
                "velocity": 25,
                "duration": 0.0818182,
                "tempo": 120.0
            },
            {
                "start_time": 12.0522727,
                "end_time": 12.1363636,
                "pitch": 80,
                "velocity": 25,
                "duration": 0.0840909,
                "tempo": 120.0
            },
            {
                "start_time": 12.1522727,
                "end_time": 12.2363636,
                "pitch": 79,
                "velocity": 25,
                "duration": 0.0840909,
                "tempo": 120.0
            },
            {
                "start_time": 12.2545455,
                "end_time": 12.3386364,
                "pitch": 75,
                "velocity": 25,
                "duration": 0.0840909,
                "tempo": 120.0
            },
            {
                "start_time": 12.3545455,
                "end_time": 12.4386364,
                "pitch": 80,
                "velocity": 25,
                "duration": 0.0840909,
                "tempo": 120.0
            },
            {
                "start_time": 12.4545455,
                "end_time": 12.5386364,
                "pitch": 79,
                "velocity": 25,
                "duration": 0.0840909,
                "tempo": 120.0
            },
            {
                "start_time": 12.5545455,
                "end_time": 12.6386364,
                "pitch": 75,
                "velocity": 25,
                "duration": 0.0840909,
                "tempo": 120.0
            },
            {
                "start_time": 12.6568182,
                "end_time": 12.7409091,
                "pitch": 80,
                "velocity": 25,
                "duration": 0.0840909,
                "tempo": 120.0
            },
            {
                "start_time": 12.7568182,
                "end_time": 12.8409091,
                "pitch": 79,
                "velocity": 25,
                "duration": 0.0840909,
                "tempo": 120.0
            },
            {
                "start_time": 12.8590909,
                "end_time": 12.9431818,
                "pitch": 75,
                "velocity": 25,
                "duration": 0.0840909,
                "tempo": 120.0
            },
            {
                "start_time": 12.9613636,
                "end_time": 13.0454545,
                "pitch": 73,
                "velocity": 25,
                "duration": 0.0840909,
                "tempo": 120.0
            },
            {
                "start_time": 13.0636364,
                "end_time": 13.15,
                "pitch": 78,
                "velocity": 25,
                "duration": 0.0863636,
                "tempo": 120.0
            },
            {
                "start_time": 13.1659091,
                "end_time": 13.2522727,
                "pitch": 77,
                "velocity": 25,
                "duration": 0.0863636,
                "tempo": 120.0
            },
            {
                "start_time": 13.2681818,
                "end_time": 13.35,
                "pitch": 73,
                "velocity": 25,
                "duration": 0.0818182,
                "tempo": 120.0
            },
            {
                "start_time": 13.3659091,
                "end_time": 13.4477273,
                "pitch": 75,
                "velocity": 25,
                "duration": 0.0818182,
                "tempo": 120.0
            },
            {
                "start_time": 13.4636364,
                "end_time": 13.5454545,
                "pitch": 78,
                "velocity": 25,
                "duration": 0.0818182,
                "tempo": 120.0
            },
            {
                "start_time": 13.5613636,
                "end_time": 13.6431818,
                "pitch": 77,
                "velocity": 25,
                "duration": 0.0818182,
                "tempo": 120.0
            },
            {
                "start_time": 13.6613636,
                "end_time": 13.7454545,
                "pitch": 73,
                "velocity": 25,
                "duration": 0.0840909,
                "tempo": 120.0
            },
            {
                "start_time": 13.7613636,
                "end_time": 13.8454545,
                "pitch": 75,
                "velocity": 25,
                "duration": 0.0840909,
                "tempo": 120.0
            },
            {
                "start_time": 13.8613636,
                "end_time": 13.9454545,
                "pitch": 78,
                "velocity": 25,
                "duration": 0.0840909,
                "tempo": 120.0
            },
            {
                "start_time": 13.9636364,
                "end_time": 14.0454545,
                "pitch": 77,
                "velocity": 25,
                "duration": 0.0818182,
                "tempo": 120.0
            },
            {
                "start_time": 14.0636364,
                "end_time": 14.15,
                "pitch": 73,
                "velocity": 25,
                "duration": 0.0863636,
                "tempo": 120.0
            },
            {
                "start_time": 14.1659091,
                "end_time": 14.2522727,
                "pitch": 75,
                "velocity": 25,
                "duration": 0.0863636,
                "tempo": 120.0
            },
            {
                "start_time": 14.2681818,
                "end_time": 14.3545455,
                "pitch": 78,
                "velocity": 25,
                "duration": 0.0863636,
                "tempo": 120.0
            },
            {
                "start_time": 14.3727273,
                "end_time": 14.4568182,
                "pitch": 77,
                "velocity": 25,
                "duration": 0.0840909,
                "tempo": 120.0
            },
            {
                "start_time": 14.475,
                "end_time": 14.5590909,
                "pitch": 73,
                "velocity": 25,
                "duration": 0.0840909,
                "tempo": 120.0
            },
            {
                "start_time": 14.575,
                "end_time": 14.6590909,
                "pitch": 75,
                "velocity": 25,
                "duration": 0.0840909,
                "tempo": 120.0
            },
            {
                "start_time": 14.675,
                "end_time": 14.7590909,
                "pitch": 78,
                "velocity": 25,
                "duration": 0.0840909,
                "tempo": 120.0
            },
            {
                "start_time": 14.7772727,
                "end_time": 14.8590909,
                "pitch": 77,
                "velocity": 25,
                "duration": 0.0818182,
                "tempo": 120.0
            },
            {
                "start_time": 14.8772727,
                "end_time": 14.9568182,
                "pitch": 73,
                "velocity": 25,
                "duration": 0.0795455,
                "tempo": 120.0
            },
            {
                "start_time": 14.975,
                "end_time": 15.0568182,
                "pitch": 75,
                "velocity": 25,
                "duration": 0.0818182,
                "tempo": 120.0
            },
            {
                "start_time": 15.0727273,
                "end_time": 15.1545455,
                "pitch": 78,
                "velocity": 25,
                "duration": 0.0818182,
                "tempo": 120.0
            },
            {
                "start_time": 15.1704545,
                "end_time": 15.2522727,
                "pitch": 77,
                "velocity": 25,
                "duration": 0.0818182,
                "tempo": 120.0
            },
            {
                "start_time": 15.2681818,
                "end_time": 15.3522727,
                "pitch": 73,
                "velocity": 25,
                "duration": 0.0840909,
                "tempo": 120.0
            },
            {
                "start_time": 15.3704545,
                "end_time": 15.4545455,
                "pitch": 75,
                "velocity": 25,
                "duration": 0.0840909,
                "tempo": 120.0
            },
            {
                "start_time": 15.4704545,
                "end_time": 15.5545455,
                "pitch": 78,
                "velocity": 25,
                "duration": 0.0840909,
                "tempo": 120.0
            },
            {
                "start_time": 15.5704545,
                "end_time": 15.6545455,
                "pitch": 77,
                "velocity": 25,
                "duration": 0.0840909,
                "tempo": 120.0
            },
            {
                "start_time": 15.6727273,
                "end_time": 15.7545455,
                "pitch": 73,
                "velocity": 25,
                "duration": 0.0818182,
                "tempo": 120.0
            },
            {
                "start_time": 15.7727273,
                "end_time": 15.8568182,
                "pitch": 75,
                "velocity": 25,
                "duration": 0.0840909,
                "tempo": 120.0
            },
            {
                "start_time": 15.8727273,
                "end_time": 15.9568182,
                "pitch": 78,
                "velocity": 25,
                "duration": 0.0840909,
                "tempo": 120.0
            },
            {
                "start_time": 15.9727273,
                "end_time": 16.0568182,
                "pitch": 77,
                "velocity": 25,
                "duration": 0.0840909,
                "tempo": 120.0
            },
            {
                "start_time": 16.075,
                "end_time": 16.1613636,
                "pitch": 73,
                "velocity": 25,
                "duration": 0.0863636,
                "tempo": 120.0
            },
            {
                "start_time": 16.1772727,
                "end_time": 16.2636364,
                "pitch": 75,
                "velocity": 25,
                "duration": 0.0863636,
                "tempo": 120.0
            },
            {
                "start_time": 16.2795455,
                "end_time": 16.3659091,
                "pitch": 78,
                "velocity": 25,
                "duration": 0.0863636,
                "tempo": 120.0
            },
            {
                "start_time": 16.3840909,
                "end_time": 16.4681818,
                "pitch": 77,
                "velocity": 25,
                "duration": 0.0840909,
                "tempo": 120.0
            },
            {
                "start_time": 16.4840909,
                "end_time": 16.5659091,
                "pitch": 73,
                "velocity": 25,
                "duration": 0.0818182,
                "tempo": 120.0
            },
            {
                "start_time": 16.5818182,
                "end_time": 16.6636364,
                "pitch": 75,
                "velocity": 25,
                "duration": 0.0818182,
                "tempo": 120.0
            },
            {
                "start_time": 16.6795455,
                "end_time": 16.7613636,
                "pitch": 78,
                "velocity": 25,
                "duration": 0.0818182,
                "tempo": 120.0
            },
            {
                "start_time": 16.7795455,
                "end_time": 16.8613636,
                "pitch": 77,
                "velocity": 25,
                "duration": 0.0818182,
                "tempo": 120.0
            },
            {
                "start_time": 16.8772727,
                "end_time": 16.9613636,
                "pitch": 73,
                "velocity": 25,
                "duration": 0.0840909,
                "tempo": 120.0
            },
            {
                "start_time": 16.9772727,
                "end_time": 17.0613636,
                "pitch": 75,
                "velocity": 25,
                "duration": 0.0840909,
                "tempo": 120.0
            },
            {
                "start_time": 17.0772727,
                "end_time": 17.1613636,
                "pitch": 78,
                "velocity": 25,
                "duration": 0.0840909,
                "tempo": 120.0
            },
            {
                "start_time": 17.1772727,
                "end_time": 17.2613636,
                "pitch": 77,
                "velocity": 25,
                "duration": 0.0840909,
                "tempo": 120.0
            },
            {
                "start_time": 17.2772727,
                "end_time": 17.3636364,
                "pitch": 73,
                "velocity": 25,
                "duration": 0.0863636,
                "tempo": 120.0
            },
            {
                "start_time": 17.3795455,
                "end_time": 17.4659091,
                "pitch": 75,
                "velocity": 25,
                "duration": 0.0863636,
                "tempo": 120.0
            },
            {
                "start_time": 17.4840909,
                "end_time": 17.5681818,
                "pitch": 78,
                "velocity": 25,
                "duration": 0.0840909,
                "tempo": 120.0
            },
            {
                "start_time": 17.5863636,
                "end_time": 17.6704545,
                "pitch": 77,
                "velocity": 25,
                "duration": 0.0840909,
                "tempo": 120.0
            },
            {
                "start_time": 17.6886364,
                "end_time": 17.7727273,
                "pitch": 73,
                "velocity": 25,
                "duration": 0.0840909,
                "tempo": 120.0
            },
            {
                "start_time": 17.7886364,
                "end_time": 17.8727273,
                "pitch": 75,
                "velocity": 25,
                "duration": 0.0840909,
                "tempo": 120.0
            },
            {
                "start_time": 17.8886364,
                "end_time": 17.9727273,
                "pitch": 78,
                "velocity": 25,
                "duration": 0.0840909,
                "tempo": 120.0
            },
            {
                "start_time": 17.9909091,
                "end_time": 18.075,
                "pitch": 77,
                "velocity": 25,
                "duration": 0.0840909,
                "tempo": 120.0
            },
            {
                "start_time": 18.0909091,
                "end_time": 18.1727273,
                "pitch": 73,
                "velocity": 25,
                "duration": 0.0818182,
                "tempo": 120.0
            },
            {
                "start_time": 18.1886364,
                "end_time": 18.2704545,
                "pitch": 75,
                "velocity": 25,
                "duration": 0.0818182,
                "tempo": 120.0
            },
            {
                "start_time": 18.2863636,
                "end_time": 18.3681818,
                "pitch": 78,
                "velocity": 25,
                "duration": 0.0818182,
                "tempo": 120.0
            },
            {
                "start_time": 18.3840909,
                "end_time": 18.4659091,
                "pitch": 77,
                "velocity": 25,
                "duration": 0.0818182,
                "tempo": 120.0
            },
            {
                "start_time": 18.4840909,
                "end_time": 18.5659091,
                "pitch": 73,
                "velocity": 25,
                "duration": 0.0818182,
                "tempo": 120.0
            },
            {
                "start_time": 18.5840909,
                "end_time": 18.6681818,
                "pitch": 75,
                "velocity": 25,
                "duration": 0.0840909,
                "tempo": 120.0
            },
            {
                "start_time": 18.6840909,
                "end_time": 18.7681818,
                "pitch": 78,
                "velocity": 25,
                "duration": 0.0840909,
                "tempo": 120.0
            },
            {
                "start_time": 18.7840909,
                "end_time": 18.8681818,
                "pitch": 77,
                "velocity": 25,
                "duration": 0.0840909,
                "tempo": 120.0
            },
            {
                "start_time": 18.8863636,
                "end_time": 18.9681818,
                "pitch": 73,
                "velocity": 25,
                "duration": 0.0818182,
                "tempo": 120.0
            },
            {
                "start_time": 18.9863636,
                "end_time": 19.0681818,
                "pitch": 75,
                "velocity": 25,
                "duration": 0.0818182,
                "tempo": 120.0
            },
            {
                "start_time": 19.0863636,
                "end_time": 19.1681818,
                "pitch": 78,
                "velocity": 25,
                "duration": 0.0818182,
                "tempo": 120.0
            },
            {
                "start_time": 19.1863636,
                "end_time": 19.2681818,
                "pitch": 77,
                "velocity": 25,
                "duration": 0.0818182,
                "tempo": 120.0
            },
            {
                "start_time": 19.2863636,
                "end_time": 19.3727273,
                "pitch": 75,
                "velocity": 25,
                "duration": 0.0863636,
                "tempo": 120.0
            },
            {
                "start_time": 19.3886364,
                "end_time": 19.475,
                "pitch": 83,
                "velocity": 25,
                "duration": 0.0863636,
                "tempo": 120.0
            },
            {
                "start_time": 19.4909091,
                "end_time": 19.5772727,
                "pitch": 89,
                "velocity": 25,
                "duration": 0.0863636,
                "tempo": 120.0
            },
            {
                "start_time": 19.5931818,
                "end_time": 19.6795455,
                "pitch": 90,
                "velocity": 25,
                "duration": 0.0863636,
                "tempo": 120.0
            },
            {
                "start_time": 19.6977273,
                "end_time": 19.7795455,
                "pitch": 83,
                "velocity": 25,
                "duration": 0.0818182,
                "tempo": 120.0
            },
            {
                "start_time": 19.7977273,
                "end_time": 19.8818182,
                "pitch": 89,
                "velocity": 25,
                "duration": 0.0840909,
                "tempo": 120.0
            },
            {
                "start_time": 19.8977273,
                "end_time": 19.9818182,
                "pitch": 90,
                "velocity": 25,
                "duration": 0.0840909,
                "tempo": 120.0
            },
            {
                "start_time": 19.9977273,
                "end_time": 20.0818182,
                "pitch": 92,
                "velocity": 25,
                "duration": 0.0840909,
                "tempo": 120.0
            },
            {
                "start_time": 20.1,
                "end_time": 20.1818182,
                "pitch": 91,
                "velocity": 25,
                "duration": 0.0818182,
                "tempo": 120.0
            },
            {
                "start_time": 20.2,
                "end_time": 20.2818182,
                "pitch": 90,
                "velocity": 25,
                "duration": 0.0818182,
                "tempo": 120.0
            },
            {
                "start_time": 20.3,
                "end_time": 20.3818182,
                "pitch": 89,
                "velocity": 25,
                "duration": 0.0818182,
                "tempo": 120.0
            },
            {
                "start_time": 20.4,
                "end_time": 20.4818182,
                "pitch": 88,
                "velocity": 25,
                "duration": 0.0818182,
                "tempo": 120.0
            },
            {
                "start_time": 20.5,
                "end_time": 20.5818182,
                "pitch": 87,
                "velocity": 25,
                "duration": 0.0818182,
                "tempo": 120.0
            },
            {
                "start_time": 20.6,
                "end_time": 20.6818182,
                "pitch": 83,
                "velocity": 25,
                "duration": 0.0818182,
                "tempo": 120.0
            },
            {
                "start_time": 20.7,
                "end_time": 20.7818182,
                "pitch": 89,
                "velocity": 25,
                "duration": 0.0818182,
                "tempo": 120.0
            },
            {
                "start_time": 20.8,
                "end_time": 20.8818182,
                "pitch": 90,
                "velocity": 25,
                "duration": 0.0818182,
                "tempo": 120.0
            },
            {
                "start_time": 20.9,
                "end_time": 20.9840909,
                "pitch": 83,
                "velocity": 25,
                "duration": 0.0840909,
                "tempo": 120.0
            },
            {
                "start_time": 21.0,
                "end_time": 21.0840909,
                "pitch": 89,
                "velocity": 25,
                "duration": 0.0840909,
                "tempo": 120.0
            },
            {
                "start_time": 21.1,
                "end_time": 21.1840909,
                "pitch": 90,
                "velocity": 25,
                "duration": 0.0840909,
                "tempo": 120.0
            },
            {
                "start_time": 21.2022727,
                "end_time": 21.2863636,
                "pitch": 92,
                "velocity": 25,
                "duration": 0.0840909,
                "tempo": 120.0
            },
            {
                "start_time": 21.3022727,
                "end_time": 21.3863636,
                "pitch": 91,
                "velocity": 25,
                "duration": 0.0840909,
                "tempo": 120.0
            },
            {
                "start_time": 21.4022727,
                "end_time": 21.4863636,
                "pitch": 90,
                "velocity": 25,
                "duration": 0.0840909,
                "tempo": 120.0
            },
            {
                "start_time": 21.5022727,
                "end_time": 21.5863636,
                "pitch": 89,
                "velocity": 25,
                "duration": 0.0840909,
                "tempo": 120.0
            },
            {
                "start_time": 21.6022727,
                "end_time": 21.6863636,
                "pitch": 88,
                "velocity": 25,
                "duration": 0.0840909,
                "tempo": 120.0
            },
            {
                "start_time": 21.7022727,
                "end_time": 21.7863636,
                "pitch": 87,
                "velocity": 25,
                "duration": 0.0840909,
                "tempo": 120.0
            },
            {
                "start_time": 21.8022727,
                "end_time": 22.5818182,
                "pitch": 68,
                "velocity": 25,
                "duration": 0.7795455,
                "tempo": 120.0
            },
            {
                "start_time": 22.5977273,
                "end_time": 22.9863636,
                "pitch": 71,
                "velocity": 25,
                "duration": 0.3886364,
                "tempo": 120.0
            },
            {
                "start_time": 23.0022727,
                "end_time": 23.3909091,
                "pitch": 73,
                "velocity": 25,
                "duration": 0.3886364,
                "tempo": 120.0
            },
            {
                "start_time": 23.4068182,
                "end_time": 24.9909091,
                "pitch": 70,
                "velocity": 25,
                "duration": 1.5840909,
                "tempo": 120.0
            },
            {
                "start_time": 25.0090909,
                "end_time": 25.7931818,
                "pitch": 68,
                "velocity": 25,
                "duration": 0.7840909,
                "tempo": 120.0
            },
            {
                "start_time": 25.8113636,
                "end_time": 26.2022727,
                "pitch": 71,
                "velocity": 25,
                "duration": 0.3909091,
                "tempo": 120.0
            },
            {
                "start_time": 26.2181818,
                "end_time": 26.6022727,
                "pitch": 73,
                "velocity": 25,
                "duration": 0.3840909,
                "tempo": 120.0
            },
            {
                "start_time": 26.6181818,
                "end_time": 28.2,
                "pitch": 70,
                "velocity": 25,
                "duration": 1.5818182,
                "tempo": 120.0
            },
            {
                "start_time": 28.2181818,
                "end_time": 29.0,
                "pitch": 68,
                "velocity": 25,
                "duration": 0.7818182,
                "tempo": 120.0
            },
            {
                "start_time": 29.0159091,
                "end_time": 29.4022727,
                "pitch": 71,
                "velocity": 25,
                "duration": 0.3863636,
                "tempo": 120.0
            },
            {
                "start_time": 29.4204545,
                "end_time": 29.8090909,
                "pitch": 73,
                "velocity": 25,
                "duration": 0.3886364,
                "tempo": 120.0
            },
            {
                "start_time": 29.825,
                "end_time": 31.4090909,
                "pitch": 70,
                "velocity": 25,
                "duration": 1.5840909,
                "tempo": 120.0
            },
            {
                "start_time": 31.425,
                "end_time": 32.2113636,
                "pitch": 68,
                "velocity": 25,
                "duration": 0.7863636,
                "tempo": 120.0
            },
            {
                "start_time": 32.2272727,
                "end_time": 32.6181818,
                "pitch": 71,
                "velocity": 25,
                "duration": 0.3909091,
                "tempo": 120.0
            },
            {
                "start_time": 32.6363636,
                "end_time": 33.0181818,
                "pitch": 73,
                "velocity": 25,
                "duration": 0.3818182,
                "tempo": 120.0
            },
            {
                "start_time": 33.0363636,
                "end_time": 34.6159091,
                "pitch": 70,
                "velocity": 25,
                "duration": 1.5795455,
                "tempo": 120.0
            },
            {
                "start_time": 34.6340909,
                "end_time": 34.7204545,
                "pitch": 83,
                "velocity": 25,
                "duration": 0.0863636,
                "tempo": 120.0
            },
            {
                "start_time": 34.7545455,
                "end_time": 34.8227273,
                "pitch": 89,
                "velocity": 25,
                "duration": 0.0681818,
                "tempo": 120.0
            },
            {
                "start_time": 34.8386364,
                "end_time": 34.925,
                "pitch": 90,
                "velocity": 25,
                "duration": 0.0863636,
                "tempo": 120.0
            },
            {
                "start_time": 34.9409091,
                "end_time": 35.025,
                "pitch": 83,
                "velocity": 25,
                "duration": 0.0840909,
                "tempo": 120.0
            },
            {
                "start_time": 35.0409091,
                "end_time": 35.125,
                "pitch": 89,
                "velocity": 25,
                "duration": 0.0840909,
                "tempo": 120.0
            },
            {
                "start_time": 35.1409091,
                "end_time": 35.225,
                "pitch": 90,
                "velocity": 25,
                "duration": 0.0840909,
                "tempo": 120.0
            },
            {
                "start_time": 35.2409091,
                "end_time": 35.325,
                "pitch": 92,
                "velocity": 25,
                "duration": 0.0840909,
                "tempo": 120.0
            },
            {
                "start_time": 35.3409091,
                "end_time": 35.425,
                "pitch": 91,
                "velocity": 25,
                "duration": 0.0840909,
                "tempo": 120.0
            },
            {
                "start_time": 35.4431818,
                "end_time": 35.5272727,
                "pitch": 90,
                "velocity": 25,
                "duration": 0.0840909,
                "tempo": 120.0
            },
            {
                "start_time": 35.5431818,
                "end_time": 35.6272727,
                "pitch": 89,
                "velocity": 25,
                "duration": 0.0840909,
                "tempo": 120.0
            },
            {
                "start_time": 35.6431818,
                "end_time": 35.7272727,
                "pitch": 88,
                "velocity": 25,
                "duration": 0.0840909,
                "tempo": 120.0
            },
            {
                "start_time": 35.7454545,
                "end_time": 35.8272727,
                "pitch": 87,
                "velocity": 25,
                "duration": 0.0818182,
                "tempo": 120.0
            },
            {
                "start_time": 35.8454545,
                "end_time": 35.9272727,
                "pitch": 83,
                "velocity": 25,
                "duration": 0.0818182,
                "tempo": 120.0
            },
            {
                "start_time": 35.9454545,
                "end_time": 36.0272727,
                "pitch": 89,
                "velocity": 25,
                "duration": 0.0818182,
                "tempo": 120.0
            },
            {
                "start_time": 36.0454545,
                "end_time": 36.1272727,
                "pitch": 90,
                "velocity": 25,
                "duration": 0.0818182,
                "tempo": 120.0
            },
            {
                "start_time": 36.1454545,
                "end_time": 36.2272727,
                "pitch": 83,
                "velocity": 25,
                "duration": 0.0818182,
                "tempo": 120.0
            },
            {
                "start_time": 36.2454545,
                "end_time": 36.3272727,
                "pitch": 89,
                "velocity": 25,
                "duration": 0.0818182,
                "tempo": 120.0
            },
            {
                "start_time": 36.3454545,
                "end_time": 36.4272727,
                "pitch": 90,
                "velocity": 25,
                "duration": 0.0818182,
                "tempo": 120.0
            },
            {
                "start_time": 36.4454545,
                "end_time": 36.5272727,
                "pitch": 92,
                "velocity": 25,
                "duration": 0.0818182,
                "tempo": 120.0
            },
            {
                "start_time": 36.5454545,
                "end_time": 36.6272727,
                "pitch": 91,
                "velocity": 25,
                "duration": 0.0818182,
                "tempo": 120.0
            },
            {
                "start_time": 36.6454545,
                "end_time": 36.7272727,
                "pitch": 90,
                "velocity": 25,
                "duration": 0.0818182,
                "tempo": 120.0
            },
            {
                "start_time": 36.7454545,
                "end_time": 36.8272727,
                "pitch": 89,
                "velocity": 25,
                "duration": 0.0818182,
                "tempo": 120.0
            },
            {
                "start_time": 36.8454545,
                "end_time": 36.9272727,
                "pitch": 88,
                "velocity": 25,
                "duration": 0.0818182,
                "tempo": 120.0
            },
            {
                "start_time": 36.9454545,
                "end_time": 37.0272727,
                "pitch": 87,
                "velocity": 25,
                "duration": 0.0818182,
                "tempo": 120.0
            },
            {
                "start_time": 37.0454545,
                "end_time": 37.8204545,
                "pitch": 68,
                "velocity": 25,
                "duration": 0.775,
                "tempo": 120.0
            },
            {
                "start_time": 37.8363636,
                "end_time": 38.225,
                "pitch": 71,
                "velocity": 25,
                "duration": 0.3886364,
                "tempo": 120.0
            },
            {
                "start_time": 38.2431818,
                "end_time": 38.6340909,
                "pitch": 73,
                "velocity": 25,
                "duration": 0.3909091,
                "tempo": 120.0
            },
            {
                "start_time": 38.65,
                "end_time": 40.1113636,
                "pitch": 70,
                "velocity": 25,
                "duration": 1.4613636,
                "tempo": 120.0
            }
        ]
    }
}