{
    "track_id": "01 Opening #1",
    "mood": "angry",
    "instruments": {
        "Electric Piano 1": [
            {
                "pitch": 24,
                "velocity": 51,
                "duration": 0.2182,
                "tempo": 120.0
            },
            {
                "pitch": 24,
                "velocity": 127,
                "duration": 0.2159,
                "tempo": 120.0
            },
            {
                "pitch": 24,
                "velocity": 51,
                "duration": 0.2114,
                "tempo": 120.0
            },
            {
                "pitch": 24,
                "velocity": 127,
                "duration": 0.2205,
                "tempo": 120.0
            },
            {
                "pitch": 24,
                "velocity": 51,
                "duration": 0.2159,
                "tempo": 120.0
            },
            {
                "pitch": 24,
                "velocity": 127,
                "duration": 0.2136,
                "tempo": 120.0
            },
            {
                "pitch": 24,
                "velocity": 51,
                "duration": 0.2159,
                "tempo": 120.0
            },
            {
                "pitch": 24,
                "velocity": 127,
                "duration": 0.2136,
                "tempo": 120.0
            },
            {
                "pitch": 24,
                "velocity": 51,
                "duration": 0.2136,
                "tempo": 120.0
            },
            {
                "pitch": 24,
                "velocity": 127,
                "duration": 0.2159,
                "tempo": 120.0
            },
            {
                "pitch": 24,
                "velocity": 51,
                "duration": 0.2159,
                "tempo": 120.0
            },
            {
                "pitch": 24,
                "velocity": 127,
                "duration": 0.2114,
                "tempo": 120.0
            },
            {
                "pitch": 24,
                "velocity": 51,
                "duration": 0.2136,
                "tempo": 120.0
            },
            {
                "pitch": 24,
                "velocity": 127,
                "duration": 0.2182,
                "tempo": 120.0
            },
            {
                "pitch": 24,
                "velocity": 51,
                "duration": 0.2136,
                "tempo": 120.0
            },
            {
                "pitch": 24,
                "velocity": 127,
                "duration": 0.2159,
                "tempo": 120.0
            },
            {
                "pitch": 24,
                "velocity": 51,
                "duration": 0.2182,
                "tempo": 120.0
            },
            {
                "pitch": 24,
                "velocity": 127,
                "duration": 0.2114,
                "tempo": 120.0
            },
            {
                "pitch": 24,
                "velocity": 51,
                "duration": 0.2136,
                "tempo": 120.0
            },
            {
                "pitch": 24,
                "velocity": 127,
                "duration": 0.2182,
                "tempo": 120.0
            },
            {
                "pitch": 24,
                "velocity": 51,
                "duration": 0.2159,
                "tempo": 120.0
            },
            {
                "pitch": 24,
                "velocity": 127,
                "duration": 0.2091,
                "tempo": 120.0
            },
            {
                "pitch": 24,
                "velocity": 51,
                "duration": 0.2182,
                "tempo": 120.0
            },
            {
                "pitch": 24,
                "velocity": 127,
                "duration": 0.2114,
                "tempo": 120.0
            },
            {
                "pitch": 24,
                "velocity": 51,
                "duration": 0.2114,
                "tempo": 120.0
            },
            {
                "pitch": 24,
                "velocity": 127,
                "duration": 0.2182,
                "tempo": 120.0
            },
            {
                "pitch": 24,
                "velocity": 51,
                "duration": 0.2159,
                "tempo": 120.0
            },
            {
                "pitch": 24,
                "velocity": 127,
                "duration": 0.2136,
                "tempo": 120.0
            },
            {
                "pitch": 24,
                "velocity": 51,
                "duration": 0.2159,
                "tempo": 120.0
            },
            {
                "pitch": 24,
                "velocity": 127,
                "duration": 0.2205,
                "tempo": 120.0
            },
            {
                "pitch": 24,
                "velocity": 51,
                "duration": 0.2159,
                "tempo": 120.0
            },
            {
                "pitch": 24,
                "velocity": 127,
                "duration": 0.2136,
                "tempo": 120.0
            },
            {
                "pitch": 24,
                "velocity": 51,
                "duration": 0.2205,
                "tempo": 120.0
            },
            {
                "pitch": 24,
                "velocity": 127,
                "duration": 0.2136,
                "tempo": 120.0
            },
            {
                "pitch": 24,
                "velocity": 51,
                "duration": 0.2114,
                "tempo": 120.0
            },
            {
                "pitch": 24,
                "velocity": 127,
                "duration": 0.2136,
                "tempo": 120.0
            },
            {
                "pitch": 24,
                "velocity": 51,
                "duration": 0.2159,
                "tempo": 120.0
            },
            {
                "pitch": 24,
                "velocity": 127,
                "duration": 0.2136,
                "tempo": 120.0
            },
            {
                "pitch": 24,
                "velocity": 51,
                "duration": 0.2159,
                "tempo": 120.0
            },
            {
                "pitch": 24,
                "velocity": 127,
                "duration": 0.2182,
                "tempo": 120.0
            },
            {
                "pitch": 24,
                "velocity": 51,
                "duration": 0.2136,
                "tempo": 120.0
            },
            {
                "pitch": 24,
                "velocity": 127,
                "duration": 0.2159,
                "tempo": 120.0
            },
            {
                "pitch": 24,
                "velocity": 51,
                "duration": 0.2182,
                "tempo": 120.0
            },
            {
                "pitch": 24,
                "velocity": 127,
                "duration": 0.2136,
                "tempo": 120.0
            },
            {
                "pitch": 24,
                "velocity": 51,
                "duration": 0.2159,
                "tempo": 120.0
            },
            {
                "pitch": 24,
                "velocity": 127,
                "duration": 0.2159,
                "tempo": 120.0
            }
        ],
        "Vibraphone": [
            {
                "pitch": 88,
                "velocity": 40,
                "duration": 0.0318,
                "tempo": 120.0
            },
            {
                "pitch": 92,
                "velocity": 40,
                "duration": 0.0318,
                "tempo": 120.0
            },
            {
                "pitch": 89,
                "velocity": 40,
                "duration": 0.0318,
                "tempo": 120.0
            },
            {
                "pitch": 94,
                "velocity": 40,
                "duration": 0.0318,
                "tempo": 120.0
            },
            {
                "pitch": 90,
                "velocity": 40,
                "duration": 0.0318,
                "tempo": 120.0
            },
            {
                "pitch": 84,
                "velocity": 40,
                "duration": 0.0318,
                "tempo": 120.0
            },
            {
                "pitch": 87,
                "velocity": 40,
                "duration": 0.0318,
                "tempo": 120.0
            },
            {
                "pitch": 93,
                "velocity": 40,
                "duration": 0.0318,
                "tempo": 120.0
            },
            {
                "pitch": 91,
                "velocity": 40,
                "duration": 0.0318,
                "tempo": 120.0
            },
            {
                "pitch": 95,
                "velocity": 40,
                "duration": 0.0341,
                "tempo": 120.0
            },
            {
                "pitch": 86,
                "velocity": 40,
                "duration": 0.0295,
                "tempo": 120.0
            },
            {
                "pitch": 91,
                "velocity": 40,
                "duration": 0.0318,
                "tempo": 120.0
            },
            {
                "pitch": 85,
                "velocity": 40,
                "duration": 0.0341,
                "tempo": 120.0
            },
            {
                "pitch": 88,
                "velocity": 40,
                "duration": 0.0318,
                "tempo": 120.0
            },
            {
                "pitch": 92,
                "velocity": 40,
                "duration": 0.0318,
                "tempo": 120.0
            },
            {
                "pitch": 89,
                "velocity": 40,
                "duration": 0.0341,
                "tempo": 120.0
            },
            {
                "pitch": 94,
                "velocity": 40,
                "duration": 0.0341,
                "tempo": 120.0
            },
            {
                "pitch": 90,
                "velocity": 40,
                "duration": 0.0341,
                "tempo": 120.0
            },
            {
                "pitch": 84,
                "velocity": 40,
                "duration": 0.0318,
                "tempo": 120.0
            },
            {
                "pitch": 87,
                "velocity": 40,
                "duration": 0.0318,
                "tempo": 120.0
            },
            {
                "pitch": 93,
                "velocity": 40,
                "duration": 0.0341,
                "tempo": 120.0
            },
            {
                "pitch": 91,
                "velocity": 40,
                "duration": 0.0295,
                "tempo": 120.0
            },
            {
                "pitch": 95,
                "velocity": 40,
                "duration": 0.0318,
                "tempo": 120.0
            },
            {
                "pitch": 86,
                "velocity": 40,
                "duration": 0.0318,
                "tempo": 120.0
            },
            {
                "pitch": 91,
                "velocity": 40,
                "duration": 0.0318,
                "tempo": 120.0
            },
            {
                "pitch": 85,
                "velocity": 40,
                "duration": 0.0318,
                "tempo": 120.0
            },
            {
                "pitch": 88,
                "velocity": 40,
                "duration": 0.0318,
                "tempo": 120.0
            },
            {
                "pitch": 92,
                "velocity": 40,
                "duration": 0.0341,
                "tempo": 120.0
            },
            {
                "pitch": 89,
                "velocity": 40,
                "duration": 0.0341,
                "tempo": 120.0
            },
            {
                "pitch": 94,
                "velocity": 40,
                "duration": 0.0341,
                "tempo": 120.0
            },
            {
                "pitch": 90,
                "velocity": 40,
                "duration": 0.0318,
                "tempo": 120.0
            },
            {
                "pitch": 84,
                "velocity": 40,
                "duration": 0.0318,
                "tempo": 120.0
            },
            {
                "pitch": 87,
                "velocity": 40,
                "duration": 0.0341,
                "tempo": 120.0
            },
            {
                "pitch": 93,
                "velocity": 40,
                "duration": 0.0341,
                "tempo": 120.0
            },
            {
                "pitch": 91,
                "velocity": 40,
                "duration": 0.0341,
                "tempo": 120.0
            },
            {
                "pitch": 95,
                "velocity": 40,
                "duration": 0.0341,
                "tempo": 120.0
            },
            {
                "pitch": 86,
                "velocity": 40,
                "duration": 0.0318,
                "tempo": 120.0
            },
            {
                "pitch": 91,
                "velocity": 40,
                "duration": 0.0295,
                "tempo": 120.0
            },
            {
                "pitch": 85,
                "velocity": 40,
                "duration": 0.0318,
                "tempo": 120.0
            },
            {
                "pitch": 88,
                "velocity": 40,
                "duration": 0.0341,
                "tempo": 120.0
            },
            {
                "pitch": 92,
                "velocity": 40,
                "duration": 0.0341,
                "tempo": 120.0
            },
            {
                "pitch": 89,
                "velocity": 40,
                "duration": 0.0341,
                "tempo": 120.0
            },
            {
                "pitch": 94,
                "velocity": 40,
                "duration": 0.0295,
                "tempo": 120.0
            },
            {
                "pitch": 90,
                "velocity": 40,
                "duration": 0.0341,
                "tempo": 120.0
            },
            {
                "pitch": 84,
                "velocity": 40,
                "duration": 0.0341,
                "tempo": 120.0
            },
            {
                "pitch": 87,
                "velocity": 40,
                "duration": 0.0341,
                "tempo": 120.0
            },
            {
                "pitch": 93,
                "velocity": 40,
                "duration": 0.0341,
                "tempo": 120.0
            },
            {
                "pitch": 91,
                "velocity": 40,
                "duration": 0.0318,
                "tempo": 120.0
            },
            {
                "pitch": 95,
                "velocity": 40,
                "duration": 0.0318,
                "tempo": 120.0
            },
            {
                "pitch": 86,
                "velocity": 40,
                "duration": 0.0318,
                "tempo": 120.0
            },
            {
                "pitch": 91,
                "velocity": 40,
                "duration": 0.0318,
                "tempo": 120.0
            },
            {
                "pitch": 85,
                "velocity": 40,
                "duration": 0.0318,
                "tempo": 120.0
            },
            {
                "pitch": 88,
                "velocity": 40,
                "duration": 0.0341,
                "tempo": 120.0
            },
            {
                "pitch": 92,
                "velocity": 40,
                "duration": 0.0318,
                "tempo": 120.0
            },
            {
                "pitch": 89,
                "velocity": 40,
                "duration": 0.0318,
                "tempo": 120.0
            },
            {
                "pitch": 94,
                "velocity": 40,
                "duration": 0.0341,
                "tempo": 120.0
            },
            {
                "pitch": 90,
                "velocity": 40,
                "duration": 0.0341,
                "tempo": 120.0
            },
            {
                "pitch": 84,
                "velocity": 40,
                "duration": 0.0341,
                "tempo": 120.0
            },
            {
                "pitch": 87,
                "velocity": 40,
                "duration": 0.0318,
                "tempo": 120.0
            },
            {
                "pitch": 93,
                "velocity": 40,
                "duration": 0.0341,
                "tempo": 120.0
            },
            {
                "pitch": 91,
                "velocity": 40,
                "duration": 0.0318,
                "tempo": 120.0
            },
            {
                "pitch": 95,
                "velocity": 40,
                "duration": 0.0341,
                "tempo": 120.0
            },
            {
                "pitch": 86,
                "velocity": 40,
                "duration": 0.0341,
                "tempo": 120.0
            },
            {
                "pitch": 91,
                "velocity": 40,
                "duration": 0.0318,
                "tempo": 120.0
            },
            {
                "pitch": 85,
                "velocity": 40,
                "duration": 0.0318,
                "tempo": 120.0
            },
            {
                "pitch": 88,
                "velocity": 40,
                "duration": 0.0318,
                "tempo": 120.0
            },
            {
                "pitch": 92,
                "velocity": 40,
                "duration": 0.0341,
                "tempo": 120.0
            },
            {
                "pitch": 89,
                "velocity": 40,
                "duration": 0.0341,
                "tempo": 120.0
            },
            {
                "pitch": 94,
                "velocity": 40,
                "duration": 0.0341,
                "tempo": 120.0
            },
            {
                "pitch": 90,
                "velocity": 40,
                "duration": 0.0295,
                "tempo": 120.0
            },
            {
                "pitch": 84,
                "velocity": 40,
                "duration": 0.0318,
                "tempo": 120.0
            },
            {
                "pitch": 87,
                "velocity": 40,
                "duration": 0.0318,
                "tempo": 120.0
            },
            {
                "pitch": 93,
                "velocity": 40,
                "duration": 0.0318,
                "tempo": 120.0
            },
            {
                "pitch": 91,
                "velocity": 40,
                "duration": 0.0318,
                "tempo": 120.0
            },
            {
                "pitch": 95,
                "velocity": 40,
                "duration": 0.0318,
                "tempo": 120.0
            },
            {
                "pitch": 86,
                "velocity": 40,
                "duration": 0.0318,
                "tempo": 120.0
            },
            {
                "pitch": 91,
                "velocity": 40,
                "duration": 0.0318,
                "tempo": 120.0
            },
            {
                "pitch": 85,
                "velocity": 40,
                "duration": 0.0318,
                "tempo": 120.0
            },
            {
                "pitch": 88,
                "velocity": 40,
                "duration": 0.0341,
                "tempo": 120.0
            },
            {
                "pitch": 92,
                "velocity": 40,
                "duration": 0.0341,
                "tempo": 120.0
            },
            {
                "pitch": 89,
                "velocity": 40,
                "duration": 0.0341,
                "tempo": 120.0
            },
            {
                "pitch": 94,
                "velocity": 40,
                "duration": 0.0318,
                "tempo": 120.0
            },
            {
                "pitch": 90,
                "velocity": 40,
                "duration": 0.0318,
                "tempo": 120.0
            },
            {
                "pitch": 84,
                "velocity": 40,
                "duration": 0.0341,
                "tempo": 120.0
            },
            {
                "pitch": 87,
                "velocity": 40,
                "duration": 0.0341,
                "tempo": 120.0
            },
            {
                "pitch": 93,
                "velocity": 40,
                "duration": 0.0295,
                "tempo": 120.0
            },
            {
                "pitch": 91,
                "velocity": 40,
                "duration": 0.0318,
                "tempo": 120.0
            },
            {
                "pitch": 95,
                "velocity": 40,
                "duration": 0.0341,
                "tempo": 120.0
            },
            {
                "pitch": 86,
                "velocity": 40,
                "duration": 0.0341,
                "tempo": 120.0
            },
            {
                "pitch": 91,
                "velocity": 40,
                "duration": 0.0341,
                "tempo": 120.0
            },
            {
                "pitch": 85,
                "velocity": 40,
                "duration": 0.0318,
                "tempo": 120.0
            },
            {
                "pitch": 88,
                "velocity": 40,
                "duration": 0.0341,
                "tempo": 120.0
            },
            {
                "pitch": 92,
                "velocity": 40,
                "duration": 0.0341,
                "tempo": 120.0
            },
            {
                "pitch": 89,
                "velocity": 40,
                "duration": 0.0318,
                "tempo": 120.0
            },
            {
                "pitch": 94,
                "velocity": 40,
                "duration": 0.0318,
                "tempo": 120.0
            },
            {
                "pitch": 90,
                "velocity": 40,
                "duration": 0.0318,
                "tempo": 120.0
            },
            {
                "pitch": 84,
                "velocity": 40,
                "duration": 0.0318,
                "tempo": 120.0
            },
            {
                "pitch": 87,
                "velocity": 40,
                "duration": 0.0318,
                "tempo": 120.0
            },
            {
                "pitch": 93,
                "velocity": 40,
                "duration": 0.0341,
                "tempo": 120.0
            },
            {
                "pitch": 91,
                "velocity": 40,
                "duration": 0.0318,
                "tempo": 120.0
            },
            {
                "pitch": 95,
                "velocity": 40,
                "duration": 0.0341,
                "tempo": 120.0
            },
            {
                "pitch": 86,
                "velocity": 40,
                "duration": 0.0295,
                "tempo": 120.0
            },
            {
                "pitch": 91,
                "velocity": 40,
                "duration": 0.0341,
                "tempo": 120.0
            },
            {
                "pitch": 85,
                "velocity": 40,
                "duration": 0.0341,
                "tempo": 120.0
            },
            {
                "pitch": 88,
                "velocity": 40,
                "duration": 0.0341,
                "tempo": 120.0
            },
            {
                "pitch": 92,
                "velocity": 40,
                "duration": 0.0341,
                "tempo": 120.0
            },
            {
                "pitch": 89,
                "velocity": 40,
                "duration": 0.0318,
                "tempo": 120.0
            },
            {
                "pitch": 94,
                "velocity": 40,
                "duration": 0.0341,
                "tempo": 120.0
            },
            {
                "pitch": 90,
                "velocity": 40,
                "duration": 0.0341,
                "tempo": 120.0
            },
            {
                "pitch": 84,
                "velocity": 40,
                "duration": 0.0341,
                "tempo": 120.0
            },
            {
                "pitch": 87,
                "velocity": 40,
                "duration": 0.0341,
                "tempo": 120.0
            },
            {
                "pitch": 93,
                "velocity": 40,
                "duration": 0.0318,
                "tempo": 120.0
            },
            {
                "pitch": 91,
                "velocity": 40,
                "duration": 0.0318,
                "tempo": 120.0
            },
            {
                "pitch": 95,
                "velocity": 40,
                "duration": 0.0318,
                "tempo": 120.0
            },
            {
                "pitch": 86,
                "velocity": 40,
                "duration": 0.0341,
                "tempo": 120.0
            },
            {
                "pitch": 91,
                "velocity": 40,
                "duration": 0.0341,
                "tempo": 120.0
            },
            {
                "pitch": 85,
                "velocity": 40,
                "duration": 0.0341,
                "tempo": 120.0
            },
            {
                "pitch": 88,
                "velocity": 40,
                "duration": 0.0318,
                "tempo": 120.0
            },
            {
                "pitch": 92,
                "velocity": 40,
                "duration": 0.0341,
                "tempo": 120.0
            },
            {
                "pitch": 89,
                "velocity": 40,
                "duration": 0.0341,
                "tempo": 120.0
            },
            {
                "pitch": 94,
                "velocity": 40,
                "duration": 0.0318,
                "tempo": 120.0
            },
            {
                "pitch": 90,
                "velocity": 40,
                "duration": 0.0318,
                "tempo": 120.0
            },
            {
                "pitch": 84,
                "velocity": 40,
                "duration": 0.0318,
                "tempo": 120.0
            },
            {
                "pitch": 87,
                "velocity": 40,
                "duration": 0.0318,
                "tempo": 120.0
            },
            {
                "pitch": 93,
                "velocity": 40,
                "duration": 0.0341,
                "tempo": 120.0
            },
            {
                "pitch": 91,
                "velocity": 40,
                "duration": 0.0341,
                "tempo": 120.0
            },
            {
                "pitch": 95,
                "velocity": 40,
                "duration": 0.0318,
                "tempo": 120.0
            },
            {
                "pitch": 86,
                "velocity": 40,
                "duration": 0.0341,
                "tempo": 120.0
            },
            {
                "pitch": 91,
                "velocity": 40,
                "duration": 0.0318,
                "tempo": 120.0
            },
            {
                "pitch": 85,
                "velocity": 40,
                "duration": 0.0318,
                "tempo": 120.0
            },
            {
                "pitch": 88,
                "velocity": 40,
                "duration": 0.0318,
                "tempo": 120.0
            },
            {
                "pitch": 92,
                "velocity": 40,
                "duration": 0.0318,
                "tempo": 120.0
            },
            {
                "pitch": 89,
                "velocity": 40,
                "duration": 0.0318,
                "tempo": 120.0
            },
            {
                "pitch": 94,
                "velocity": 40,
                "duration": 0.0295,
                "tempo": 120.0
            },
            {
                "pitch": 90,
                "velocity": 40,
                "duration": 0.0318,
                "tempo": 120.0
            },
            {
                "pitch": 84,
                "velocity": 40,
                "duration": 0.0341,
                "tempo": 120.0
            },
            {
                "pitch": 87,
                "velocity": 40,
                "duration": 0.0341,
                "tempo": 120.0
            },
            {
                "pitch": 93,
                "velocity": 40,
                "duration": 0.0341,
                "tempo": 120.0
            },
            {
                "pitch": 91,
                "velocity": 40,
                "duration": 0.0295,
                "tempo": 120.0
            },
            {
                "pitch": 95,
                "velocity": 40,
                "duration": 0.0318,
                "tempo": 120.0
            },
            {
                "pitch": 86,
                "velocity": 40,
                "duration": 0.0318,
                "tempo": 120.0
            },
            {
                "pitch": 91,
                "velocity": 40,
                "duration": 0.0318,
                "tempo": 120.0
            },
            {
                "pitch": 85,
                "velocity": 40,
                "duration": 0.0318,
                "tempo": 120.0
            },
            {
                "pitch": 88,
                "velocity": 40,
                "duration": 0.0318,
                "tempo": 120.0
            },
            {
                "pitch": 92,
                "velocity": 40,
                "duration": 0.0318,
                "tempo": 120.0
            },
            {
                "pitch": 89,
                "velocity": 40,
                "duration": 0.0318,
                "tempo": 120.0
            },
            {
                "pitch": 94,
                "velocity": 40,
                "duration": 0.0318,
                "tempo": 120.0
            },
            {
                "pitch": 90,
                "velocity": 40,
                "duration": 0.0318,
                "tempo": 120.0
            },
            {
                "pitch": 84,
                "velocity": 40,
                "duration": 0.0318,
                "tempo": 120.0
            },
            {
                "pitch": 87,
                "velocity": 40,
                "duration": 0.0295,
                "tempo": 120.0
            },
            {
                "pitch": 93,
                "velocity": 40,
                "duration": 0.0341,
                "tempo": 120.0
            },
            {
                "pitch": 91,
                "velocity": 40,
                "duration": 0.0318,
                "tempo": 120.0
            },
            {
                "pitch": 95,
                "velocity": 40,
                "duration": 0.0318,
                "tempo": 120.0
            },
            {
                "pitch": 86,
                "velocity": 40,
                "duration": 0.0318,
                "tempo": 120.0
            },
            {
                "pitch": 91,
                "velocity": 40,
                "duration": 0.0295,
                "tempo": 120.0
            },
            {
                "pitch": 85,
                "velocity": 40,
                "duration": 0.0295,
                "tempo": 120.0
            },
            {
                "pitch": 88,
                "velocity": 40,
                "duration": 0.0341,
                "tempo": 120.0
            },
            {
                "pitch": 92,
                "velocity": 40,
                "duration": 0.0341,
                "tempo": 120.0
            },
            {
                "pitch": 89,
                "velocity": 40,
                "duration": 0.0341,
                "tempo": 120.0
            },
            {
                "pitch": 94,
                "velocity": 40,
                "duration": 0.0341,
                "tempo": 120.0
            },
            {
                "pitch": 90,
                "velocity": 40,
                "duration": 0.0341,
                "tempo": 120.0
            },
            {
                "pitch": 84,
                "velocity": 40,
                "duration": 0.0341,
                "tempo": 120.0
            },
            {
                "pitch": 87,
                "velocity": 40,
                "duration": 0.0341,
                "tempo": 120.0
            },
            {
                "pitch": 93,
                "velocity": 40,
                "duration": 0.0341,
                "tempo": 120.0
            },
            {
                "pitch": 91,
                "velocity": 40,
                "duration": 0.0318,
                "tempo": 120.0
            },
            {
                "pitch": 95,
                "velocity": 40,
                "duration": 0.0295,
                "tempo": 120.0
            },
            {
                "pitch": 86,
                "velocity": 40,
                "duration": 0.0318,
                "tempo": 120.0
            },
            {
                "pitch": 91,
                "velocity": 40,
                "duration": 0.0318,
                "tempo": 120.0
            },
            {
                "pitch": 85,
                "velocity": 40,
                "duration": 0.0318,
                "tempo": 120.0
            },
            {
                "pitch": 88,
                "velocity": 40,
                "duration": 0.0318,
                "tempo": 120.0
            },
            {
                "pitch": 92,
                "velocity": 40,
                "duration": 0.0295,
                "tempo": 120.0
            },
            {
                "pitch": 89,
                "velocity": 40,
                "duration": 0.0318,
                "tempo": 120.0
            },
            {
                "pitch": 94,
                "velocity": 40,
                "duration": 0.0341,
                "tempo": 120.0
            },
            {
                "pitch": 90,
                "velocity": 40,
                "duration": 0.0341,
                "tempo": 120.0
            },
            {
                "pitch": 84,
                "velocity": 40,
                "duration": 0.0341,
                "tempo": 120.0
            },
            {
                "pitch": 87,
                "velocity": 40,
                "duration": 0.0341,
                "tempo": 120.0
            },
            {
                "pitch": 93,
                "velocity": 40,
                "duration": 0.0341,
                "tempo": 120.0
            },
            {
                "pitch": 91,
                "velocity": 40,
                "duration": 0.0341,
                "tempo": 120.0
            },
            {
                "pitch": 95,
                "velocity": 40,
                "duration": 0.0341,
                "tempo": 120.0
            },
            {
                "pitch": 86,
                "velocity": 40,
                "duration": 0.0341,
                "tempo": 120.0
            },
            {
                "pitch": 91,
                "velocity": 40,
                "duration": 0.0318,
                "tempo": 120.0
            },
            {
                "pitch": 85,
                "velocity": 40,
                "duration": 0.0318,
                "tempo": 120.0
            },
            {
                "pitch": 88,
                "velocity": 40,
                "duration": 0.0318,
                "tempo": 120.0
            },
            {
                "pitch": 92,
                "velocity": 40,
                "duration": 0.0318,
                "tempo": 120.0
            },
            {
                "pitch": 89,
                "velocity": 40,
                "duration": 0.0318,
                "tempo": 120.0
            },
            {
                "pitch": 94,
                "velocity": 40,
                "duration": 0.0318,
                "tempo": 120.0
            },
            {
                "pitch": 90,
                "velocity": 40,
                "duration": 0.0295,
                "tempo": 120.0
            },
            {
                "pitch": 84,
                "velocity": 40,
                "duration": 0.0318,
                "tempo": 120.0
            },
            {
                "pitch": 87,
                "velocity": 40,
                "duration": 0.0318,
                "tempo": 120.0
            },
            {
                "pitch": 93,
                "velocity": 40,
                "duration": 0.0341,
                "tempo": 120.0
            },
            {
                "pitch": 91,
                "velocity": 40,
                "duration": 0.0341,
                "tempo": 120.0
            },
            {
                "pitch": 95,
                "velocity": 40,
                "duration": 0.0341,
                "tempo": 120.0
            },
            {
                "pitch": 86,
                "velocity": 40,
                "duration": 0.0318,
                "tempo": 120.0
            },
            {
                "pitch": 91,
                "velocity": 40,
                "duration": 0.0341,
                "tempo": 120.0
            },
            {
                "pitch": 85,
                "velocity": 40,
                "duration": 0.0318,
                "tempo": 120.0
            },
            {
                "pitch": 88,
                "velocity": 40,
                "duration": 0.0318,
                "tempo": 120.0
            },
            {
                "pitch": 92,
                "velocity": 40,
                "duration": 0.0318,
                "tempo": 120.0
            },
            {
                "pitch": 89,
                "velocity": 40,
                "duration": 0.0295,
                "tempo": 120.0
            },
            {
                "pitch": 94,
                "velocity": 40,
                "duration": 0.0341,
                "tempo": 120.0
            },
            {
                "pitch": 90,
                "velocity": 40,
                "duration": 0.0318,
                "tempo": 120.0
            },
            {
                "pitch": 84,
                "velocity": 40,
                "duration": 0.0318,
                "tempo": 120.0
            },
            {
                "pitch": 87,
                "velocity": 40,
                "duration": 0.0341,
                "tempo": 120.0
            },
            {
                "pitch": 93,
                "velocity": 40,
                "duration": 0.0295,
                "tempo": 120.0
            },
            {
                "pitch": 91,
                "velocity": 40,
                "duration": 0.0318,
                "tempo": 120.0
            },
            {
                "pitch": 95,
                "velocity": 40,
                "duration": 0.0341,
                "tempo": 120.0
            },
            {
                "pitch": 86,
                "velocity": 40,
                "duration": 0.0341,
                "tempo": 120.0
            },
            {
                "pitch": 91,
                "velocity": 40,
                "duration": 0.0341,
                "tempo": 120.0
            },
            {
                "pitch": 85,
                "velocity": 40,
                "duration": 0.0318,
                "tempo": 120.0
            },
            {
                "pitch": 88,
                "velocity": 40,
                "duration": 0.0318,
                "tempo": 120.0
            },
            {
                "pitch": 92,
                "velocity": 40,
                "duration": 0.0318,
                "tempo": 120.0
            },
            {
                "pitch": 89,
                "velocity": 40,
                "duration": 0.0318,
                "tempo": 120.0
            },
            {
                "pitch": 94,
                "velocity": 40,
                "duration": 0.0318,
                "tempo": 120.0
            },
            {
                "pitch": 90,
                "velocity": 40,
                "duration": 0.0318,
                "tempo": 120.0
            },
            {
                "pitch": 84,
                "velocity": 40,
                "duration": 0.0295,
                "tempo": 120.0
            },
            {
                "pitch": 87,
                "velocity": 40,
                "duration": 0.0318,
                "tempo": 120.0
            },
            {
                "pitch": 93,
                "velocity": 40,
                "duration": 0.0318,
                "tempo": 120.0
            },
            {
                "pitch": 91,
                "velocity": 40,
                "duration": 0.0341,
                "tempo": 120.0
            },
            {
                "pitch": 95,
                "velocity": 40,
                "duration": 0.0341,
                "tempo": 120.0
            },
            {
                "pitch": 86,
                "velocity": 40,
                "duration": 0.0318,
                "tempo": 120.0
            },
            {
                "pitch": 91,
                "velocity": 40,
                "duration": 0.0318,
                "tempo": 120.0
            },
            {
                "pitch": 85,
                "velocity": 40,
                "duration": 0.0318,
                "tempo": 120.0
            },
            {
                "pitch": 88,
                "velocity": 40,
                "duration": 0.0318,
                "tempo": 120.0
            },
            {
                "pitch": 92,
                "velocity": 40,
                "duration": 0.0318,
                "tempo": 120.0
            },
            {
                "pitch": 89,
                "velocity": 40,
                "duration": 0.0318,
                "tempo": 120.0
            },
            {
                "pitch": 94,
                "velocity": 40,
                "duration": 0.0318,
                "tempo": 120.0
            },
            {
                "pitch": 90,
                "velocity": 40,
                "duration": 0.0318,
                "tempo": 120.0
            },
            {
                "pitch": 84,
                "velocity": 40,
                "duration": 0.0318,
                "tempo": 120.0
            },
            {
                "pitch": 87,
                "velocity": 40,
                "duration": 0.0318,
                "tempo": 120.0
            },
            {
                "pitch": 93,
                "velocity": 40,
                "duration": 0.0318,
                "tempo": 120.0
            },
            {
                "pitch": 91,
                "velocity": 40,
                "duration": 0.0295,
                "tempo": 120.0
            },
            {
                "pitch": 95,
                "velocity": 40,
                "duration": 0.0318,
                "tempo": 120.0
            },
            {
                "pitch": 86,
                "velocity": 40,
                "duration": 0.0341,
                "tempo": 120.0
            },
            {
                "pitch": 91,
                "velocity": 40,
                "duration": 0.0318,
                "tempo": 120.0
            },
            {
                "pitch": 85,
                "velocity": 40,
                "duration": 0.0318,
                "tempo": 120.0
            },
            {
                "pitch": 88,
                "velocity": 40,
                "duration": 0.0295,
                "tempo": 120.0
            },
            {
                "pitch": 92,
                "velocity": 40,
                "duration": 0.0318,
                "tempo": 120.0
            },
            {
                "pitch": 89,
                "velocity": 40,
                "duration": 0.0318,
                "tempo": 120.0
            },
            {
                "pitch": 94,
                "velocity": 40,
                "duration": 0.0341,
                "tempo": 120.0
            },
            {
                "pitch": 90,
                "velocity": 40,
                "duration": 0.0341,
                "tempo": 120.0
            },
            {
                "pitch": 84,
                "velocity": 40,
                "duration": 0.0318,
                "tempo": 120.0
            },
            {
                "pitch": 87,
                "velocity": 40,
                "duration": 0.0341,
                "tempo": 120.0
            },
            {
                "pitch": 93,
                "velocity": 40,
                "duration": 0.0341,
                "tempo": 120.0
            },
            {
                "pitch": 91,
                "velocity": 40,
                "duration": 0.0341,
                "tempo": 120.0
            },
            {
                "pitch": 95,
                "velocity": 40,
                "duration": 0.0318,
                "tempo": 120.0
            },
            {
                "pitch": 86,
                "velocity": 40,
                "duration": 0.0318,
                "tempo": 120.0
            },
            {
                "pitch": 91,
                "velocity": 40,
                "duration": 0.0295,
                "tempo": 120.0
            },
            {
                "pitch": 85,
                "velocity": 40,
                "duration": 0.0318,
                "tempo": 120.0
            },
            {
                "pitch": 88,
                "velocity": 40,
                "duration": 0.0318,
                "tempo": 120.0
            },
            {
                "pitch": 92,
                "velocity": 40,
                "duration": 0.0318,
                "tempo": 120.0
            },
            {
                "pitch": 89,
                "velocity": 40,
                "duration": 0.0341,
                "tempo": 120.0
            },
            {
                "pitch": 94,
                "velocity": 40,
                "duration": 0.0295,
                "tempo": 120.0
            },
            {
                "pitch": 90,
                "velocity": 40,
                "duration": 0.0318,
                "tempo": 120.0
            },
            {
                "pitch": 84,
                "velocity": 40,
                "duration": 0.0341,
                "tempo": 120.0
            },
            {
                "pitch": 87,
                "velocity": 40,
                "duration": 0.0341,
                "tempo": 120.0
            },
            {
                "pitch": 93,
                "velocity": 40,
                "duration": 0.0341,
                "tempo": 120.0
            },
            {
                "pitch": 91,
                "velocity": 40,
                "duration": 0.0318,
                "tempo": 120.0
            },
            {
                "pitch": 95,
                "velocity": 40,
                "duration": 0.0318,
                "tempo": 120.0
            },
            {
                "pitch": 86,
                "velocity": 40,
                "duration": 0.0318,
                "tempo": 120.0
            },
            {
                "pitch": 91,
                "velocity": 40,
                "duration": 0.0341,
                "tempo": 120.0
            },
            {
                "pitch": 85,
                "velocity": 40,
                "duration": 0.0318,
                "tempo": 120.0
            },
            {
                "pitch": 88,
                "velocity": 40,
                "duration": 0.0341,
                "tempo": 120.0
            },
            {
                "pitch": 92,
                "velocity": 40,
                "duration": 0.0295,
                "tempo": 120.0
            },
            {
                "pitch": 89,
                "velocity": 40,
                "duration": 0.0318,
                "tempo": 120.0
            },
            {
                "pitch": 94,
                "velocity": 40,
                "duration": 0.0341,
                "tempo": 120.0
            },
            {
                "pitch": 90,
                "velocity": 40,
                "duration": 0.0318,
                "tempo": 120.0
            },
            {
                "pitch": 84,
                "velocity": 40,
                "duration": 0.0318,
                "tempo": 120.0
            },
            {
                "pitch": 87,
                "velocity": 40,
                "duration": 0.0295,
                "tempo": 120.0
            },
            {
                "pitch": 93,
                "velocity": 40,
                "duration": 0.0318,
                "tempo": 120.0
            },
            {
                "pitch": 91,
                "velocity": 40,
                "duration": 0.0341,
                "tempo": 120.0
            },
            {
                "pitch": 95,
                "velocity": 40,
                "duration": 0.0341,
                "tempo": 120.0
            },
            {
                "pitch": 86,
                "velocity": 40,
                "duration": 0.0318,
                "tempo": 120.0
            },
            {
                "pitch": 91,
                "velocity": 40,
                "duration": 0.0318,
                "tempo": 120.0
            },
            {
                "pitch": 85,
                "velocity": 40,
                "duration": 0.0318,
                "tempo": 120.0
            },
            {
                "pitch": 88,
                "velocity": 40,
                "duration": 0.0318,
                "tempo": 120.0
            },
            {
                "pitch": 92,
                "velocity": 40,
                "duration": 0.0318,
                "tempo": 120.0
            },
            {
                "pitch": 89,
                "velocity": 40,
                "duration": 0.0318,
                "tempo": 120.0
            },
            {
                "pitch": 94,
                "velocity": 40,
                "duration": 0.0341,
                "tempo": 120.0
            },
            {
                "pitch": 90,
                "velocity": 40,
                "duration": 0.0318,
                "tempo": 120.0
            },
            {
                "pitch": 84,
                "velocity": 40,
                "duration": 0.0341,
                "tempo": 120.0
            },
            {
                "pitch": 87,
                "velocity": 40,
                "duration": 0.0341,
                "tempo": 120.0
            },
            {
                "pitch": 93,
                "velocity": 40,
                "duration": 0.0341,
                "tempo": 120.0
            },
            {
                "pitch": 91,
                "velocity": 40,
                "duration": 0.0341,
                "tempo": 120.0
            },
            {
                "pitch": 95,
                "velocity": 40,
                "duration": 0.0295,
                "tempo": 120.0
            },
            {
                "pitch": 86,
                "velocity": 40,
                "duration": 0.0318,
                "tempo": 120.0
            },
            {
                "pitch": 91,
                "velocity": 40,
                "duration": 0.0341,
                "tempo": 120.0
            },
            {
                "pitch": 85,
                "velocity": 40,
                "duration": 0.0318,
                "tempo": 120.0
            },
            {
                "pitch": 88,
                "velocity": 40,
                "duration": 0.0318,
                "tempo": 120.0
            },
            {
                "pitch": 92,
                "velocity": 40,
                "duration": 0.0341,
                "tempo": 120.0
            },
            {
                "pitch": 89,
                "velocity": 40,
                "duration": 0.0318,
                "tempo": 120.0
            },
            {
                "pitch": 94,
                "velocity": 40,
                "duration": 0.0341,
                "tempo": 120.0
            },
            {
                "pitch": 90,
                "velocity": 40,
                "duration": 0.0318,
                "tempo": 120.0
            },
            {
                "pitch": 84,
                "velocity": 40,
                "duration": 0.0341,
                "tempo": 120.0
            },
            {
                "pitch": 87,
                "velocity": 40,
                "duration": 0.0341,
                "tempo": 120.0
            },
            {
                "pitch": 93,
                "velocity": 40,
                "duration": 0.0318,
                "tempo": 120.0
            },
            {
                "pitch": 91,
                "velocity": 40,
                "duration": 0.0318,
                "tempo": 120.0
            },
            {
                "pitch": 95,
                "velocity": 40,
                "duration": 0.0318,
                "tempo": 120.0
            },
            {
                "pitch": 86,
                "velocity": 40,
                "duration": 0.0341,
                "tempo": 120.0
            },
            {
                "pitch": 91,
                "velocity": 40,
                "duration": 0.0341,
                "tempo": 120.0
            },
            {
                "pitch": 85,
                "velocity": 40,
                "duration": 0.0318,
                "tempo": 120.0
            },
            {
                "pitch": 88,
                "velocity": 40,
                "duration": 0.0341,
                "tempo": 120.0
            },
            {
                "pitch": 92,
                "velocity": 40,
                "duration": 0.0341,
                "tempo": 120.0
            },
            {
                "pitch": 89,
                "velocity": 40,
                "duration": 0.0341,
                "tempo": 120.0
            },
            {
                "pitch": 94,
                "velocity": 40,
                "duration": 0.0341,
                "tempo": 120.0
            },
            {
                "pitch": 90,
                "velocity": 40,
                "duration": 0.0318,
                "tempo": 120.0
            },
            {
                "pitch": 84,
                "velocity": 40,
                "duration": 0.0341,
                "tempo": 120.0
            },
            {
                "pitch": 87,
                "velocity": 40,
                "duration": 0.0341,
                "tempo": 120.0
            },
            {
                "pitch": 93,
                "velocity": 40,
                "duration": 0.0341,
                "tempo": 120.0
            },
            {
                "pitch": 91,
                "velocity": 40,
                "duration": 0.0341,
                "tempo": 120.0
            },
            {
                "pitch": 95,
                "velocity": 40,
                "duration": 0.0341,
                "tempo": 120.0
            },
            {
                "pitch": 86,
                "velocity": 40,
                "duration": 0.0295,
                "tempo": 120.0
            },
            {
                "pitch": 91,
                "velocity": 40,
                "duration": 0.0318,
                "tempo": 120.0
            },
            {
                "pitch": 85,
                "velocity": 40,
                "duration": 0.0318,
                "tempo": 120.0
            },
            {
                "pitch": 88,
                "velocity": 40,
                "duration": 0.0318,
                "tempo": 120.0
            },
            {
                "pitch": 92,
                "velocity": 40,
                "duration": 0.0318,
                "tempo": 120.0
            },
            {
                "pitch": 89,
                "velocity": 40,
                "duration": 0.0295,
                "tempo": 120.0
            },
            {
                "pitch": 94,
                "velocity": 40,
                "duration": 0.0318,
                "tempo": 120.0
            },
            {
                "pitch": 90,
                "velocity": 40,
                "duration": 0.0341,
                "tempo": 120.0
            },
            {
                "pitch": 84,
                "velocity": 40,
                "duration": 0.0318,
                "tempo": 120.0
            },
            {
                "pitch": 87,
                "velocity": 40,
                "duration": 0.0318,
                "tempo": 120.0
            },
            {
                "pitch": 93,
                "velocity": 40,
                "duration": 0.0318,
                "tempo": 120.0
            },
            {
                "pitch": 91,
                "velocity": 40,
                "duration": 0.0318,
                "tempo": 120.0
            },
            {
                "pitch": 95,
                "velocity": 40,
                "duration": 0.0341,
                "tempo": 120.0
            },
            {
                "pitch": 86,
                "velocity": 40,
                "duration": 0.0341,
                "tempo": 120.0
            },
            {
                "pitch": 91,
                "velocity": 40,
                "duration": 0.0341,
                "tempo": 120.0
            },
            {
                "pitch": 85,
                "velocity": 40,
                "duration": 0.0341,
                "tempo": 120.0
            },
            {
                "pitch": 88,
                "velocity": 40,
                "duration": 0.0295,
                "tempo": 120.0
            },
            {
                "pitch": 92,
                "velocity": 40,
                "duration": 0.0341,
                "tempo": 120.0
            },
            {
                "pitch": 89,
                "velocity": 40,
                "duration": 0.0341,
                "tempo": 120.0
            },
            {
                "pitch": 94,
                "velocity": 40,
                "duration": 0.0341,
                "tempo": 120.0
            },
            {
                "pitch": 90,
                "velocity": 40,
                "duration": 0.0341,
                "tempo": 120.0
            },
            {
                "pitch": 84,
                "velocity": 40,
                "duration": 0.0318,
                "tempo": 120.0
            },
            {
                "pitch": 87,
                "velocity": 40,
                "duration": 0.0318,
                "tempo": 120.0
            },
            {
                "pitch": 93,
                "velocity": 40,
                "duration": 0.0318,
                "tempo": 120.0
            },
            {
                "pitch": 91,
                "velocity": 40,
                "duration": 0.0341,
                "tempo": 120.0
            },
            {
                "pitch": 95,
                "velocity": 40,
                "duration": 0.0341,
                "tempo": 120.0
            },
            {
                "pitch": 86,
                "velocity": 40,
                "duration": 0.0341,
                "tempo": 120.0
            },
            {
                "pitch": 91,
                "velocity": 40,
                "duration": 0.0318,
                "tempo": 120.0
            },
            {
                "pitch": 85,
                "velocity": 40,
                "duration": 0.0341,
                "tempo": 120.0
            },
            {
                "pitch": 88,
                "velocity": 40,
                "duration": 0.0341,
                "tempo": 120.0
            },
            {
                "pitch": 92,
                "velocity": 40,
                "duration": 0.0341,
                "tempo": 120.0
            },
            {
                "pitch": 89,
                "velocity": 40,
                "duration": 0.0341,
                "tempo": 120.0
            },
            {
                "pitch": 94,
                "velocity": 40,
                "duration": 0.0295,
                "tempo": 120.0
            },
            {
                "pitch": 90,
                "velocity": 40,
                "duration": 0.0341,
                "tempo": 120.0
            },
            {
                "pitch": 84,
                "velocity": 40,
                "duration": 0.0341,
                "tempo": 120.0
            },
            {
                "pitch": 87,
                "velocity": 40,
                "duration": 0.0318,
                "tempo": 120.0
            },
            {
                "pitch": 93,
                "velocity": 40,
                "duration": 0.0341,
                "tempo": 120.0
            },
            {
                "pitch": 91,
                "velocity": 40,
                "duration": 0.0318,
                "tempo": 120.0
            },
            {
                "pitch": 95,
                "velocity": 40,
                "duration": 0.0341,
                "tempo": 120.0
            },
            {
                "pitch": 86,
                "velocity": 40,
                "duration": 0.0341,
                "tempo": 120.0
            },
            {
                "pitch": 91,
                "velocity": 40,
                "duration": 0.0341,
                "tempo": 120.0
            },
            {
                "pitch": 85,
                "velocity": 40,
                "duration": 0.0341,
                "tempo": 120.0
            }
        ],
        "Acoustic Bass": [
            {
                "pitch": 35,
                "velocity": 127,
                "duration": 0.5955,
                "tempo": 120.0
            },
            {
                "pitch": 35,
                "velocity": 127,
                "duration": 0.6,
                "tempo": 120.0
            },
            {
                "pitch": 35,
                "velocity": 127,
                "duration": 0.2045,
                "tempo": 120.0
            },
            {
                "pitch": 35,
                "velocity": 101,
                "duration": 0.2023,
                "tempo": 120.0
            },
            {
                "pitch": 35,
                "velocity": 101,
                "duration": 0.2023,
                "tempo": 120.0
            },
            {
                "pitch": 35,
                "velocity": 127,
                "duration": 0.6114,
                "tempo": 120.0
            },
            {
                "pitch": 35,
                "velocity": 127,
                "duration": 0.6295,
                "tempo": 120.0
            },
            {
                "pitch": 35,
                "velocity": 127,
                "duration": 0.6045,
                "tempo": 120.0
            },
            {
                "pitch": 35,
                "velocity": 127,
                "duration": 0.6114,
                "tempo": 120.0
            },
            {
                "pitch": 35,
                "velocity": 127,
                "duration": 0.2068,
                "tempo": 120.0
            },
            {
                "pitch": 35,
                "velocity": 101,
                "duration": 0.2023,
                "tempo": 120.0
            },
            {
                "pitch": 35,
                "velocity": 101,
                "duration": 0.2045,
                "tempo": 120.0
            },
            {
                "pitch": 35,
                "velocity": 127,
                "duration": 0.5955,
                "tempo": 120.0
            },
            {
                "pitch": 35,
                "velocity": 127,
                "duration": 0.6273,
                "tempo": 120.0
            },
            {
                "pitch": 35,
                "velocity": 127,
                "duration": 0.6114,
                "tempo": 120.0
            },
            {
                "pitch": 35,
                "velocity": 127,
                "duration": 0.6136,
                "tempo": 120.0
            },
            {
                "pitch": 35,
                "velocity": 127,
                "duration": 0.2023,
                "tempo": 120.0
            },
            {
                "pitch": 35,
                "velocity": 101,
                "duration": 0.1977,
                "tempo": 120.0
            },
            {
                "pitch": 35,
                "velocity": 101,
                "duration": 0.2023,
                "tempo": 120.0
            },
            {
                "pitch": 35,
                "velocity": 127,
                "duration": 0.6068,
                "tempo": 120.0
            },
            {
                "pitch": 35,
                "velocity": 127,
                "duration": 0.6136,
                "tempo": 120.0
            },
            {
                "pitch": 35,
                "velocity": 127,
                "duration": 0.6136,
                "tempo": 120.0
            },
            {
                "pitch": 35,
                "velocity": 127,
                "duration": 0.6205,
                "tempo": 120.0
            },
            {
                "pitch": 35,
                "velocity": 127,
                "duration": 0.2045,
                "tempo": 120.0
            },
            {
                "pitch": 35,
                "velocity": 101,
                "duration": 0.2045,
                "tempo": 120.0
            },
            {
                "pitch": 35,
                "velocity": 101,
                "duration": 0.2045,
                "tempo": 120.0
            },
            {
                "pitch": 35,
                "velocity": 127,
                "duration": 0.6091,
                "tempo": 120.0
            },
            {
                "pitch": 35,
                "velocity": 127,
                "duration": 0.6136,
                "tempo": 120.0
            },
            {
                "pitch": 35,
                "velocity": 127,
                "duration": 0.6136,
                "tempo": 120.0
            },
            {
                "pitch": 35,
                "velocity": 127,
                "duration": 0.6091,
                "tempo": 120.0
            },
            {
                "pitch": 35,
                "velocity": 127,
                "duration": 0.2023,
                "tempo": 120.0
            },
            {
                "pitch": 35,
                "velocity": 101,
                "duration": 0.2023,
                "tempo": 120.0
            },
            {
                "pitch": 35,
                "velocity": 101,
                "duration": 0.2068,
                "tempo": 120.0
            },
            {
                "pitch": 35,
                "velocity": 127,
                "duration": 0.6045,
                "tempo": 120.0
            },
            {
                "pitch": 35,
                "velocity": 127,
                "duration": 0.6159,
                "tempo": 120.0
            },
            {
                "pitch": 35,
                "velocity": 127,
                "duration": 0.6114,
                "tempo": 120.0
            },
            {
                "pitch": 35,
                "velocity": 127,
                "duration": 0.6159,
                "tempo": 120.0
            },
            {
                "pitch": 35,
                "velocity": 127,
                "duration": 0.2023,
                "tempo": 120.0
            },
            {
                "pitch": 35,
                "velocity": 101,
                "duration": 0.2023,
                "tempo": 120.0
            },
            {
                "pitch": 35,
                "velocity": 101,
                "duration": 0.2045,
                "tempo": 120.0
            },
            {
                "pitch": 35,
                "velocity": 127,
                "duration": 0.5955,
                "tempo": 120.0
            },
            {
                "pitch": 35,
                "velocity": 127,
                "duration": 0.6273,
                "tempo": 120.0
            },
            {
                "pitch": 35,
                "velocity": 127,
                "duration": 0.6136,
                "tempo": 120.0
            },
            {
                "pitch": 35,
                "velocity": 127,
                "duration": 0.6205,
                "tempo": 120.0
            },
            {
                "pitch": 35,
                "velocity": 127,
                "duration": 0.2023,
                "tempo": 120.0
            },
            {
                "pitch": 35,
                "velocity": 101,
                "duration": 0.2023,
                "tempo": 120.0
            },
            {
                "pitch": 35,
                "velocity": 101,
                "duration": 0.2023,
                "tempo": 120.0
            },
            {
                "pitch": 35,
                "velocity": 127,
                "duration": 0.6091,
                "tempo": 120.0
            },
            {
                "pitch": 35,
                "velocity": 127,
                "duration": 0.625,
                "tempo": 120.0
            },
            {
                "pitch": 35,
                "velocity": 127,
                "duration": 0.6136,
                "tempo": 120.0
            },
            {
                "pitch": 35,
                "velocity": 127,
                "duration": 0.6205,
                "tempo": 120.0
            },
            {
                "pitch": 35,
                "velocity": 127,
                "duration": 0.2045,
                "tempo": 120.0
            },
            {
                "pitch": 35,
                "velocity": 101,
                "duration": 0.2045,
                "tempo": 120.0
            },
            {
                "pitch": 35,
                "velocity": 101,
                "duration": 0.2045,
                "tempo": 120.0
            },
            {
                "pitch": 35,
                "velocity": 127,
                "duration": 0.6068,
                "tempo": 120.0
            },
            {
                "pitch": 35,
                "velocity": 127,
                "duration": 0.6205,
                "tempo": 120.0
            },
            {
                "pitch": 35,
                "velocity": 127,
                "duration": 0.625,
                "tempo": 120.0
            },
            {
                "pitch": 35,
                "velocity": 127,
                "duration": 0.6091,
                "tempo": 120.0
            },
            {
                "pitch": 35,
                "velocity": 127,
                "duration": 0.2023,
                "tempo": 120.0
            },
            {
                "pitch": 35,
                "velocity": 101,
                "duration": 0.2045,
                "tempo": 120.0
            },
            {
                "pitch": 35,
                "velocity": 101,
                "duration": 0.2045,
                "tempo": 120.0
            },
            {
                "pitch": 35,
                "velocity": 127,
                "duration": 0.5955,
                "tempo": 120.0
            },
            {
                "pitch": 35,
                "velocity": 127,
                "duration": 0.6386,
                "tempo": 120.0
            },
            {
                "pitch": 35,
                "velocity": 127,
                "duration": 0.6136,
                "tempo": 120.0
            },
            {
                "pitch": 35,
                "velocity": 127,
                "duration": 0.6205,
                "tempo": 120.0
            },
            {
                "pitch": 35,
                "velocity": 127,
                "duration": 0.2023,
                "tempo": 120.0
            },
            {
                "pitch": 35,
                "velocity": 101,
                "duration": 0.2023,
                "tempo": 120.0
            },
            {
                "pitch": 35,
                "velocity": 101,
                "duration": 0.2023,
                "tempo": 120.0
            },
            {
                "pitch": 35,
                "velocity": 127,
                "duration": 0.6068,
                "tempo": 120.0
            },
            {
                "pitch": 35,
                "velocity": 127,
                "duration": 0.6295,
                "tempo": 120.0
            },
            {
                "pitch": 35,
                "velocity": 127,
                "duration": 0.6136,
                "tempo": 120.0
            },
            {
                "pitch": 35,
                "velocity": 127,
                "duration": 0.6227,
                "tempo": 120.0
            },
            {
                "pitch": 35,
                "velocity": 127,
                "duration": 0.2045,
                "tempo": 120.0
            },
            {
                "pitch": 35,
                "velocity": 101,
                "duration": 0.2023,
                "tempo": 120.0
            },
            {
                "pitch": 35,
                "velocity": 101,
                "duration": 0.2045,
                "tempo": 120.0
            },
            {
                "pitch": 35,
                "velocity": 127,
                "duration": 0.6068,
                "tempo": 120.0
            },
            {
                "pitch": 35,
                "velocity": 127,
                "duration": 0.6205,
                "tempo": 120.0
            },
            {
                "pitch": 35,
                "velocity": 127,
                "duration": 0.6136,
                "tempo": 120.0
            },
            {
                "pitch": 35,
                "velocity": 127,
                "duration": 0.6091,
                "tempo": 120.0
            },
            {
                "pitch": 35,
                "velocity": 127,
                "duration": 0.2045,
                "tempo": 120.0
            },
            {
                "pitch": 35,
                "velocity": 101,
                "duration": 0.2023,
                "tempo": 120.0
            },
            {
                "pitch": 35,
                "velocity": 101,
                "duration": 0.2068,
                "tempo": 120.0
            },
            {
                "pitch": 35,
                "velocity": 127,
                "duration": 0.5932,
                "tempo": 120.0
            },
            {
                "pitch": 35,
                "velocity": 127,
                "duration": 0.6273,
                "tempo": 120.0
            },
            {
                "pitch": 35,
                "velocity": 127,
                "duration": 0.6136,
                "tempo": 120.0
            },
            {
                "pitch": 35,
                "velocity": 127,
                "duration": 0.6205,
                "tempo": 120.0
            },
            {
                "pitch": 35,
                "velocity": 127,
                "duration": 0.2023,
                "tempo": 120.0
            },
            {
                "pitch": 35,
                "velocity": 101,
                "duration": 0.2023,
                "tempo": 120.0
            },
            {
                "pitch": 35,
                "velocity": 101,
                "duration": 0.2045,
                "tempo": 120.0
            },
            {
                "pitch": 35,
                "velocity": 127,
                "duration": 0.5977,
                "tempo": 120.0
            },
            {
                "pitch": 35,
                "velocity": 127,
                "duration": 0.6159,
                "tempo": 120.0
            },
            {
                "pitch": 35,
                "velocity": 127,
                "duration": 0.6136,
                "tempo": 120.0
            },
            {
                "pitch": 35,
                "velocity": 127,
                "duration": 0.6159,
                "tempo": 120.0
            },
            {
                "pitch": 35,
                "velocity": 127,
                "duration": 0.2045,
                "tempo": 120.0
            },
            {
                "pitch": 35,
                "velocity": 101,
                "duration": 0.2023,
                "tempo": 120.0
            },
            {
                "pitch": 35,
                "velocity": 101,
                "duration": 0.2023,
                "tempo": 120.0
            },
            {
                "pitch": 35,
                "velocity": 127,
                "duration": 0.6,
                "tempo": 120.0
            },
            {
                "pitch": 35,
                "velocity": 127,
                "duration": 0.6205,
                "tempo": 120.0
            }
        ]
    }
}