{
    "track_id": "01 Prologue",
    "mood": "angry",
    "instruments": {
        "Church Organ": [
            {
                "pitch": 67,
                "velocity": 80,
                "duration": 0.9636,
                "tempo": 120.0
            },
            {
                "pitch": 69,
                "velocity": 80,
                "duration": 1.9795,
                "tempo": 120.0
            },
            {
                "pitch": 71,
                "velocity": 80,
                "duration": 2.0795,
                "tempo": 120.0
            },
            {
                "pitch": 72,
                "velocity": 80,
                "duration": 2.0818,
                "tempo": 120.0
            },
            {
                "pitch": 74,
                "velocity": 80,
                "duration": 3.1273,
                "tempo": 120.0
            },
            {
                "pitch": 72,
                "velocity": 80,
                "duration": 0.4159,
                "tempo": 120.0
            },
            {
                "pitch": 71,
                "velocity": 80,
                "duration": 0.45,
                "tempo": 120.0
            },
            {
                "pitch": 67,
                "velocity": 80,
                "duration": 21.175,
                "tempo": 120.0
            },
            {
                "pitch": 72,
                "velocity": 80,
                "duration": 0.475,
                "tempo": 120.0
            },
            {
                "pitch": 74,
                "velocity": 80,
                "duration": 1.4205,
                "tempo": 120.0
            },
            {
                "pitch": 72,
                "velocity": 80,
                "duration": 0.4295,
                "tempo": 120.0
            },
            {
                "pitch": 74,
                "velocity": 80,
                "duration": 1.4909,
                "tempo": 120.0
            },
            {
                "pitch": 72,
                "velocity": 80,
                "duration": 0.4523,
                "tempo": 120.0
            },
            {
                "pitch": 74,
                "velocity": 80,
                "duration": 1.5409,
                "tempo": 120.0
            },
            {
                "pitch": 72,
                "velocity": 80,
                "duration": 0.4295,
                "tempo": 120.0
            },
            {
                "pitch": 71,
                "velocity": 80,
                "duration": 0.6432,
                "tempo": 120.0
            },
            {
                "pitch": 69,
                "velocity": 80,
                "duration": 0.6455,
                "tempo": 120.0
            },
            {
                "pitch": 65,
                "velocity": 80,
                "duration": 0.6114,
                "tempo": 120.0
            },
            {
                "pitch": 67,
                "velocity": 80,
                "duration": 6.1386,
                "tempo": 120.0
            },
            {
                "pitch": 67,
                "velocity": 80,
                "duration": 0.4182,
                "tempo": 120.0
            },
            {
                "pitch": 67,
                "velocity": 80,
                "duration": 0.4159,
                "tempo": 120.0
            },
            {
                "pitch": 67,
                "velocity": 80,
                "duration": 0.4409,
                "tempo": 120.0
            },
            {
                "pitch": 65,
                "velocity": 80,
                "duration": 3.5568,
                "tempo": 120.0
            },
            {
                "pitch": 65,
                "velocity": 80,
                "duration": 0.3,
                "tempo": 120.0
            },
            {
                "pitch": 65,
                "velocity": 80,
                "duration": 0.3205,
                "tempo": 120.0
            },
            {
                "pitch": 65,
                "velocity": 80,
                "duration": 0.3386,
                "tempo": 120.0
            }
        ],
        "Synth Bass 1": [
            {
                "pitch": 28,
                "velocity": 127,
                "duration": 13.4455,
                "tempo": 120.0
            }
        ],
        "Violin": [
            {
                "pitch": 67,
                "velocity": 32,
                "duration": 26.0068,
                "tempo": 120.0
            },
            {
                "pitch": 67,
                "velocity": 32,
                "duration": 16.6114,
                "tempo": 120.0
            }
        ],
        "Electric Piano 1": [
            {
                "pitch": 28,
                "velocity": 127,
                "duration": 1.4523,
                "tempo": 120.0
            },
            {
                "pitch": 26,
                "velocity": 127,
                "duration": 0.7364,
                "tempo": 120.0
            },
            {
                "pitch": 24,
                "velocity": 127,
                "duration": 0.5545,
                "tempo": 120.0
            },
            {
                "pitch": 7,
                "velocity": 127,
                "duration": 0.0023,
                "tempo": 120.0
            },
            {
                "pitch": 23,
                "velocity": 127,
                "duration": 1.525,
                "tempo": 120.0
            },
            {
                "pitch": 19,
                "velocity": 127,
                "duration": 0.2341,
                "tempo": 120.0
            },
            {
                "pitch": 18,
                "velocity": 127,
                "duration": 0.2295,
                "tempo": 120.0
            },
            {
                "pitch": 15,
                "velocity": 127,
                "duration": 0.45,
                "tempo": 120.0
            }
        ],
        "Acoustic Bass": [
            {
                "pitch": 28,
                "velocity": 127,
                "duration": 0.0477,
                "tempo": 120.0
            },
            {
                "pitch": 28,
                "velocity": 127,
                "duration": 0.0341,
                "tempo": 120.0
            },
            {
                "pitch": 30,
                "velocity": 127,
                "duration": 0.05,
                "tempo": 120.0
            },
            {
                "pitch": 31,
                "velocity": 127,
                "duration": 0.0341,
                "tempo": 120.0
            },
            {
                "pitch": 28,
                "velocity": 127,
                "duration": 0.0341,
                "tempo": 120.0
            },
            {
                "pitch": 28,
                "velocity": 127,
                "duration": 0.05,
                "tempo": 120.0
            },
            {
                "pitch": 34,
                "velocity": 127,
                "duration": 0.0341,
                "tempo": 120.0
            },
            {
                "pitch": 34,
                "velocity": 127,
                "duration": 0.05,
                "tempo": 120.0
            }
        ],
        "Vibraphone": [
            {
                "pitch": 67,
                "velocity": 64,
                "duration": 0.45,
                "tempo": 120.0
            },
            {
                "pitch": 69,
                "velocity": 64,
                "duration": 0.4614,
                "tempo": 120.0
            },
            {
                "pitch": 71,
                "velocity": 64,
                "duration": 0.45,
                "tempo": 120.0
            },
            {
                "pitch": 72,
                "velocity": 64,
                "duration": 0.4591,
                "tempo": 120.0
            },
            {
                "pitch": 74,
                "velocity": 64,
                "duration": 0.7023,
                "tempo": 120.0
            },
            {
                "pitch": 72,
                "velocity": 64,
                "duration": 0.1159,
                "tempo": 120.0
            },
            {
                "pitch": 71,
                "velocity": 64,
                "duration": 0.0977,
                "tempo": 120.0
            },
            {
                "pitch": 67,
                "velocity": 64,
                "duration": 4.825,
                "tempo": 120.0
            },
            {
                "pitch": 67,
                "velocity": 64,
                "duration": 0.4568,
                "tempo": 120.0
            },
            {
                "pitch": 69,
                "velocity": 64,
                "duration": 0.4773,
                "tempo": 120.0
            },
            {
                "pitch": 71,
                "velocity": 64,
                "duration": 0.4659,
                "tempo": 120.0
            },
            {
                "pitch": 72,
                "velocity": 64,
                "duration": 0.4773,
                "tempo": 120.0
            },
            {
                "pitch": 74,
                "velocity": 64,
                "duration": 0.7045,
                "tempo": 120.0
            },
            {
                "pitch": 72,
                "velocity": 64,
                "duration": 0.1,
                "tempo": 120.0
            },
            {
                "pitch": 71,
                "velocity": 64,
                "duration": 0.1,
                "tempo": 120.0
            },
            {
                "pitch": 67,
                "velocity": 64,
                "duration": 4.7023,
                "tempo": 120.0
            },
            {
                "pitch": 72,
                "velocity": 64,
                "duration": 0.1,
                "tempo": 120.0
            },
            {
                "pitch": 74,
                "velocity": 64,
                "duration": 0.7091,
                "tempo": 120.0
            },
            {
                "pitch": 72,
                "velocity": 64,
                "duration": 0.2136,
                "tempo": 120.0
            },
            {
                "pitch": 74,
                "velocity": 64,
                "duration": 0.7068,
                "tempo": 120.0
            },
            {
                "pitch": 72,
                "velocity": 64,
                "duration": 0.2114,
                "tempo": 120.0
            },
            {
                "pitch": 74,
                "velocity": 64,
                "duration": 0.7068,
                "tempo": 120.0
            },
            {
                "pitch": 72,
                "velocity": 64,
                "duration": 0.2136,
                "tempo": 120.0
            },
            {
                "pitch": 71,
                "velocity": 64,
                "duration": 0.3068,
                "tempo": 120.0
            },
            {
                "pitch": 69,
                "velocity": 64,
                "duration": 0.3045,
                "tempo": 120.0
            },
            {
                "pitch": 65,
                "velocity": 64,
                "duration": 0.3023,
                "tempo": 120.0
            },
            {
                "pitch": 67,
                "velocity": 64,
                "duration": 3.8591,
                "tempo": 120.0
            },
            {
                "pitch": 67,
                "velocity": 64,
                "duration": 0.4568,
                "tempo": 120.0
            },
            {
                "pitch": 69,
                "velocity": 64,
                "duration": 0.4705,
                "tempo": 120.0
            },
            {
                "pitch": 71,
                "velocity": 64,
                "duration": 0.4773,
                "tempo": 120.0
            },
            {
                "pitch": 72,
                "velocity": 64,
                "duration": 0.4705,
                "tempo": 120.0
            },
            {
                "pitch": 74,
                "velocity": 64,
                "duration": 0.7023,
                "tempo": 120.0
            },
            {
                "pitch": 72,
                "velocity": 64,
                "duration": 0.1,
                "tempo": 120.0
            },
            {
                "pitch": 71,
                "velocity": 64,
                "duration": 0.1,
                "tempo": 120.0
            },
            {
                "pitch": 67,
                "velocity": 64,
                "duration": 4.8432,
                "tempo": 120.0
            },
            {
                "pitch": 67,
                "velocity": 64,
                "duration": 0.475,
                "tempo": 120.0
            },
            {
                "pitch": 69,
                "velocity": 64,
                "duration": 0.4545,
                "tempo": 120.0
            },
            {
                "pitch": 71,
                "velocity": 64,
                "duration": 0.4614,
                "tempo": 120.0
            },
            {
                "pitch": 72,
                "velocity": 64,
                "duration": 0.45,
                "tempo": 120.0
            },
            {
                "pitch": 74,
                "velocity": 64,
                "duration": 0.7136,
                "tempo": 120.0
            },
            {
                "pitch": 72,
                "velocity": 64,
                "duration": 0.1,
                "tempo": 120.0
            },
            {
                "pitch": 71,
                "velocity": 64,
                "duration": 0.1,
                "tempo": 120.0
            },
            {
                "pitch": 67,
                "velocity": 64,
                "duration": 4.7091,
                "tempo": 120.0
            },
            {
                "pitch": 72,
                "velocity": 64,
                "duration": 0.1,
                "tempo": 120.0
            },
            {
                "pitch": 74,
                "velocity": 64,
                "duration": 0.7114,
                "tempo": 120.0
            },
            {
                "pitch": 72,
                "velocity": 64,
                "duration": 0.2182,
                "tempo": 120.0
            },
            {
                "pitch": 74,
                "velocity": 64,
                "duration": 0.7114,
                "tempo": 120.0
            },
            {
                "pitch": 72,
                "velocity": 64,
                "duration": 0.2318,
                "tempo": 120.0
            },
            {
                "pitch": 74,
                "velocity": 64,
                "duration": 0.7114,
                "tempo": 120.0
            },
            {
                "pitch": 72,
                "velocity": 64,
                "duration": 0.2159,
                "tempo": 120.0
            },
            {
                "pitch": 71,
                "velocity": 64,
                "duration": 0.3068,
                "tempo": 120.0
            },
            {
                "pitch": 69,
                "velocity": 64,
                "duration": 0.2977,
                "tempo": 120.0
            },
            {
                "pitch": 65,
                "velocity": 64,
                "duration": 0.2886,
                "tempo": 120.0
            },
            {
                "pitch": 67,
                "velocity": 64,
                "duration": 3.8773,
                "tempo": 120.0
            }
        ],
        "Flute": [
            {
                "pitch": 28,
                "velocity": 40,
                "duration": 0.2705,
                "tempo": 120.0
            },
            {
                "pitch": 31,
                "velocity": 40,
                "duration": 0.0818,
                "tempo": 120.0
            },
            {
                "pitch": 34,
                "velocity": 40,
                "duration": 0.0477,
                "tempo": 120.0
            },
            {
                "pitch": 36,
                "velocity": 40,
                "duration": 0.0636,
                "tempo": 120.0
            },
            {
                "pitch": 38,
                "velocity": 40,
                "duration": 0.0818,
                "tempo": 120.0
            },
            {
                "pitch": 0,
                "velocity": 40,
                "duration": 0.4182,
                "tempo": 120.0
            },
            {
                "pitch": 40,
                "velocity": 40,
                "duration": 0.2886,
                "tempo": 120.0
            },
            {
                "pitch": 40,
                "velocity": 40,
                "duration": 0.1432,
                "tempo": 120.0
            },
            {
                "pitch": 43,
                "velocity": 40,
                "duration": 0.1273,
                "tempo": 120.0
            },
            {
                "pitch": 47,
                "velocity": 40,
                "duration": 0.05,
                "tempo": 120.0
            },
            {
                "pitch": 48,
                "velocity": 40,
                "duration": 0.0932,
                "tempo": 120.0
            },
            {
                "pitch": 50,
                "velocity": 40,
                "duration": 0.0932,
                "tempo": 120.0
            },
            {
                "pitch": 0,
                "velocity": 40,
                "duration": 0.6636,
                "tempo": 120.0
            },
            {
                "pitch": 52,
                "velocity": 40,
                "duration": 0.4864,
                "tempo": 120.0
            },
            {
                "pitch": 52,
                "velocity": 40,
                "duration": 0.3,
                "tempo": 120.0
            },
            {
                "pitch": 55,
                "velocity": 40,
                "duration": 0.1523,
                "tempo": 120.0
            },
            {
                "pitch": 58,
                "velocity": 40,
                "duration": 0.1841,
                "tempo": 120.0
            },
            {
                "pitch": 60,
                "velocity": 40,
                "duration": 0.1023,
                "tempo": 120.0
            },
            {
                "pitch": 62,
                "velocity": 40,
                "duration": 0.0795,
                "tempo": 120.0
            },
            {
                "pitch": 64,
                "velocity": 40,
                "duration": 0.5023,
                "tempo": 120.0
            },
            {
                "pitch": 64,
                "velocity": 40,
                "duration": 0.3205,
                "tempo": 120.0
            },
            {
                "pitch": 67,
                "velocity": 40,
                "duration": 0.1114,
                "tempo": 120.0
            },
            {
                "pitch": 70,
                "velocity": 40,
                "duration": 0.2977,
                "tempo": 120.0
            },
            {
                "pitch": 72,
                "velocity": 40,
                "duration": 0.0727,
                "tempo": 120.0
            },
            {
                "pitch": 74,
                "velocity": 40,
                "duration": 0.0727,
                "tempo": 120.0
            },
            {
                "pitch": 76,
                "velocity": 40,
                "duration": 0.4295,
                "tempo": 120.0
            },
            {
                "pitch": 76,
                "velocity": 40,
                "duration": 0.2841,
                "tempo": 120.0
            },
            {
                "pitch": 79,
                "velocity": 40,
                "duration": 0.2045,
                "tempo": 120.0
            },
            {
                "pitch": 82,
                "velocity": 40,
                "duration": 0.075,
                "tempo": 120.0
            },
            {
                "pitch": 84,
                "velocity": 40,
                "duration": 0.2682,
                "tempo": 120.0
            }
        ],
        "Clarinet": [
            {
                "pitch": 93,
                "velocity": 40,
                "duration": 15.8864,
                "tempo": 120.0
            },
            {
                "pitch": 100,
                "velocity": 40,
                "duration": 1.4455,
                "tempo": 120.0
            },
            {
                "pitch": 98,
                "velocity": 40,
                "duration": 0.3545,
                "tempo": 120.0
            },
            {
                "pitch": 96,
                "velocity": 40,
                "duration": 0.175,
                "tempo": 120.0
            },
            {
                "pitch": 95,
                "velocity": 40,
                "duration": 0.7068,
                "tempo": 120.0
            },
            {
                "pitch": 93,
                "velocity": 40,
                "duration": 0.9205,
                "tempo": 120.0
            },
            {
                "pitch": 90,
                "velocity": 40,
                "duration": 0.8864,
                "tempo": 120.0
            },
            {
                "pitch": 87,
                "velocity": 40,
                "duration": 0.5705,
                "tempo": 120.0
            },
            {
                "pitch": 84,
                "velocity": 40,
                "duration": 0.1886,
                "tempo": 120.0
            },
            {
                "pitch": 83,
                "velocity": 40,
                "duration": 0.7591,
                "tempo": 120.0
            },
            {
                "pitch": 81,
                "velocity": 40,
                "duration": 0.7955,
                "tempo": 120.0
            },
            {
                "pitch": 78,
                "velocity": 40,
                "duration": 1.0977,
                "tempo": 120.0
            },
            {
                "pitch": 75,
                "velocity": 40,
                "duration": 0.8432,
                "tempo": 120.0
            },
            {
                "pitch": 76,
                "velocity": 40,
                "duration": 0.3273,
                "tempo": 120.0
            },
            {
                "pitch": 81,
                "velocity": 40,
                "duration": 0.1659,
                "tempo": 120.0
            },
            {
                "pitch": 83,
                "velocity": 40,
                "duration": 0.1636,
                "tempo": 120.0
            },
            {
                "pitch": 88,
                "velocity": 40,
                "duration": 0.0023,
                "tempo": 120.0
            },
            {
                "pitch": 85,
                "velocity": 40,
                "duration": 0.3295,
                "tempo": 120.0
            },
            {
                "pitch": 89,
                "velocity": 40,
                "duration": 0.3318,
                "tempo": 120.0
            },
            {
                "pitch": 93,
                "velocity": 40,
                "duration": 0.1659,
                "tempo": 120.0
            },
            {
                "pitch": 95,
                "velocity": 40,
                "duration": 0.1636,
                "tempo": 120.0
            },
            {
                "pitch": 100,
                "velocity": 40,
                "duration": 0.0023,
                "tempo": 120.0
            },
            {
                "pitch": 97,
                "velocity": 40,
                "duration": 0.3341,
                "tempo": 120.0
            },
            {
                "pitch": 101,
                "velocity": 40,
                "duration": 0.1682,
                "tempo": 120.0
            },
            {
                "pitch": 7,
                "velocity": 40,
                "duration": 0.0023,
                "tempo": 120.0
            },
            {
                "pitch": 103,
                "velocity": 40,
                "duration": 6.225,
                "tempo": 120.0
            },
            {
                "pitch": 76,
                "velocity": 40,
                "duration": 0.6886,
                "tempo": 120.0
            },
            {
                "pitch": 74,
                "velocity": 40,
                "duration": 0.1818,
                "tempo": 120.0
            },
            {
                "pitch": 72,
                "velocity": 40,
                "duration": 0.0909,
                "tempo": 120.0
            },
            {
                "pitch": 71,
                "velocity": 40,
                "duration": 0.3727,
                "tempo": 120.0
            },
            {
                "pitch": 69,
                "velocity": 40,
                "duration": 0.4273,
                "tempo": 120.0
            },
            {
                "pitch": 66,
                "velocity": 40,
                "duration": 0.4341,
                "tempo": 120.0
            },
            {
                "pitch": 63,
                "velocity": 40,
                "duration": 0.1795,
                "tempo": 120.0
            },
            {
                "pitch": 61,
                "velocity": 40,
                "duration": 0.2,
                "tempo": 120.0
            },
            {
                "pitch": 59,
                "velocity": 40,
                "duration": 0.3591,
                "tempo": 120.0
            },
            {
                "pitch": 57,
                "velocity": 40,
                "duration": 0.3568,
                "tempo": 120.0
            },
            {
                "pitch": 54,
                "velocity": 40,
                "duration": 0.5227,
                "tempo": 120.0
            },
            {
                "pitch": 51,
                "velocity": 40,
                "duration": 0.4159,
                "tempo": 120.0
            },
            {
                "pitch": 93,
                "velocity": 40,
                "duration": 0.9364,
                "tempo": 120.0
            },
            {
                "pitch": 93,
                "velocity": 40,
                "duration": 0.9386,
                "tempo": 120.0
            },
            {
                "pitch": 100,
                "velocity": 40,
                "duration": 0.3295,
                "tempo": 120.0
            },
            {
                "pitch": 98,
                "velocity": 40,
                "duration": 0.0864,
                "tempo": 120.0
            },
            {
                "pitch": 80,
                "velocity": 40,
                "duration": 98.325,
                "tempo": 120.0
            },
            {
                "pitch": 96,
                "velocity": 40,
                "duration": 0.0523,
                "tempo": 120.0
            },
            {
                "pitch": 95,
                "velocity": 40,
                "duration": 0.1523,
                "tempo": 120.0
            },
            {
                "pitch": 93,
                "velocity": 40,
                "duration": 0.2023,
                "tempo": 120.0
            },
            {
                "pitch": 102,
                "velocity": 40,
                "duration": 97.0523,
                "tempo": 120.0
            },
            {
                "pitch": 90,
                "velocity": 40,
                "duration": 94.0545,
                "tempo": 120.0
            },
            {
                "pitch": 90,
                "velocity": 40,
                "duration": 0.2023,
                "tempo": 120.0
            },
            {
                "pitch": 87,
                "velocity": 40,
                "duration": 0.1182,
                "tempo": 120.0
            },
            {
                "pitch": 68,
                "velocity": 40,
                "duration": 95.7773,
                "tempo": 120.0
            },
            {
                "pitch": 84,
                "velocity": 40,
                "duration": 0.05,
                "tempo": 120.0
            },
            {
                "pitch": 83,
                "velocity": 40,
                "duration": 0.15,
                "tempo": 120.0
            },
            {
                "pitch": 81,
                "velocity": 40,
                "duration": 0.1705,
                "tempo": 120.0
            },
            {
                "pitch": 78,
                "velocity": 40,
                "duration": 70.0909,
                "tempo": 120.0
            },
            {
                "pitch": 78,
                "velocity": 40,
                "duration": 0.2386,
                "tempo": 120.0
            },
            {
                "pitch": 75,
                "velocity": 40,
                "duration": 0.1886,
                "tempo": 120.0
            }
        ],
        "Acoustic Guitar (nylon)": [
            {
                "pitch": 89,
                "velocity": 40,
                "duration": 0.1727,
                "tempo": 120.0
            },
            {
                "pitch": 93,
                "velocity": 40,
                "duration": 0.2114,
                "tempo": 120.0
            },
            {
                "pitch": 95,
                "velocity": 40,
                "duration": 0.175,
                "tempo": 120.0
            },
            {
                "pitch": 96,
                "velocity": 40,
                "duration": 0.1773,
                "tempo": 120.0
            },
            {
                "pitch": 89,
                "velocity": 32,
                "duration": 0.175,
                "tempo": 120.0
            },
            {
                "pitch": 93,
                "velocity": 32,
                "duration": 0.1773,
                "tempo": 120.0
            },
            {
                "pitch": 95,
                "velocity": 32,
                "duration": 0.2114,
                "tempo": 120.0
            },
            {
                "pitch": 96,
                "velocity": 32,
                "duration": 0.175,
                "tempo": 120.0
            },
            {
                "pitch": 89,
                "velocity": 32,
                "duration": 0.175,
                "tempo": 120.0
            },
            {
                "pitch": 93,
                "velocity": 32,
                "duration": 0.1773,
                "tempo": 120.0
            },
            {
                "pitch": 95,
                "velocity": 32,
                "duration": 0.175,
                "tempo": 120.0
            },
            {
                "pitch": 96,
                "velocity": 32,
                "duration": 0.1773,
                "tempo": 120.0
            },
            {
                "pitch": 89,
                "velocity": 25,
                "duration": 0.175,
                "tempo": 120.0
            },
            {
                "pitch": 93,
                "velocity": 25,
                "duration": 0.1773,
                "tempo": 120.0
            },
            {
                "pitch": 95,
                "velocity": 25,
                "duration": 0.1773,
                "tempo": 120.0
            },
            {
                "pitch": 96,
                "velocity": 25,
                "duration": 0.175,
                "tempo": 120.0
            },
            {
                "pitch": 89,
                "velocity": 25,
                "duration": 0.1727,
                "tempo": 120.0
            },
            {
                "pitch": 93,
                "velocity": 25,
                "duration": 0.175,
                "tempo": 120.0
            },
            {
                "pitch": 95,
                "velocity": 25,
                "duration": 0.1773,
                "tempo": 120.0
            },
            {
                "pitch": 96,
                "velocity": 25,
                "duration": 0.1773,
                "tempo": 120.0
            },
            {
                "pitch": 89,
                "velocity": 20,
                "duration": 0.175,
                "tempo": 120.0
            },
            {
                "pitch": 93,
                "velocity": 20,
                "duration": 0.1364,
                "tempo": 120.0
            },
            {
                "pitch": 95,
                "velocity": 20,
                "duration": 0.1182,
                "tempo": 120.0
            },
            {
                "pitch": 96,
                "velocity": 20,
                "duration": 0.1159,
                "tempo": 120.0
            },
            {
                "pitch": 89,
                "velocity": 20,
                "duration": 0.1159,
                "tempo": 120.0
            },
            {
                "pitch": 93,
                "velocity": 20,
                "duration": 0.1182,
                "tempo": 120.0
            },
            {
                "pitch": 95,
                "velocity": 20,
                "duration": 0.1159,
                "tempo": 120.0
            },
            {
                "pitch": 96,
                "velocity": 20,
                "duration": 0.1205,
                "tempo": 120.0
            },
            {
                "pitch": 89,
                "velocity": 16,
                "duration": 0.1227,
                "tempo": 120.0
            },
            {
                "pitch": 93,
                "velocity": 16,
                "duration": 0.1205,
                "tempo": 120.0
            },
            {
                "pitch": 95,
                "velocity": 16,
                "duration": 0.1227,
                "tempo": 120.0
            },
            {
                "pitch": 96,
                "velocity": 16,
                "duration": 0.1227,
                "tempo": 120.0
            }
        ],
        "Lead 2 (sawtooth)": [
            {
                "pitch": 26,
                "velocity": 25,
                "duration": 0.1159,
                "tempo": 120.0
            },
            {
                "pitch": 26,
                "velocity": 25,
                "duration": 0.1159,
                "tempo": 120.0
            },
            {
                "pitch": 26,
                "velocity": 32,
                "duration": 0.1159,
                "tempo": 120.0
            },
            {
                "pitch": 26,
                "velocity": 40,
                "duration": 0.3023,
                "tempo": 120.0
            },
            {
                "pitch": 26,
                "velocity": 51,
                "duration": 0.2932,
                "tempo": 120.0
            },
            {
                "pitch": 26,
                "velocity": 64,
                "duration": 0.1114,
                "tempo": 120.0
            },
            {
                "pitch": 26,
                "velocity": 64,
                "duration": 0.1114,
                "tempo": 120.0
            },
            {
                "pitch": 26,
                "velocity": 80,
                "duration": 0.0909,
                "tempo": 120.0
            },
            {
                "pitch": 26,
                "velocity": 80,
                "duration": 0.0886,
                "tempo": 120.0
            },
            {
                "pitch": 26,
                "velocity": 101,
                "duration": 0.2295,
                "tempo": 120.0
            },
            {
                "pitch": 26,
                "velocity": 127,
                "duration": 0.2318,
                "tempo": 120.0
            },
            {
                "pitch": 26,
                "velocity": 101,
                "duration": 0.0886,
                "tempo": 120.0
            },
            {
                "pitch": 26,
                "velocity": 101,
                "duration": 0.0886,
                "tempo": 120.0
            },
            {
                "pitch": 26,
                "velocity": 101,
                "duration": 0.1068,
                "tempo": 120.0
            },
            {
                "pitch": 26,
                "velocity": 101,
                "duration": 0.0886,
                "tempo": 120.0
            },
            {
                "pitch": 26,
                "velocity": 80,
                "duration": 0.2136,
                "tempo": 120.0
            },
            {
                "pitch": 26,
                "velocity": 80,
                "duration": 0.225,
                "tempo": 120.0
            },
            {
                "pitch": 26,
                "velocity": 80,
                "duration": 0.0864,
                "tempo": 120.0
            },
            {
                "pitch": 26,
                "velocity": 64,
                "duration": 0.0864,
                "tempo": 120.0
            },
            {
                "pitch": 26,
                "velocity": 64,
                "duration": 0.0886,
                "tempo": 120.0
            },
            {
                "pitch": 26,
                "velocity": 64,
                "duration": 0.0886,
                "tempo": 120.0
            },
            {
                "pitch": 26,
                "velocity": 51,
                "duration": 0.2318,
                "tempo": 120.0
            },
            {
                "pitch": 26,
                "velocity": 51,
                "duration": 0.2227,
                "tempo": 120.0
            },
            {
                "pitch": 26,
                "velocity": 40,
                "duration": 0.0932,
                "tempo": 120.0
            },
            {
                "pitch": 24,
                "velocity": 80,
                "duration": 1.8773,
                "tempo": 120.0
            }
        ]
    }
}