{
    "track_id": "02 Moon Light Sonata",
    "mood": "sad",
    "instruments": {
        "Electric Piano 1": [
            {
                "pitch": 25,
                "velocity": 80,
                "duration": 2.7091,
                "tempo": 120.0
            },
            {
                "pitch": 23,
                "velocity": 80,
                "duration": 2.7432,
                "tempo": 120.0
            },
            {
                "pitch": 21,
                "velocity": 80,
                "duration": 1.3636,
                "tempo": 120.0
            },
            {
                "pitch": 18,
                "velocity": 80,
                "duration": 1.3318,
                "tempo": 120.0
            },
            {
                "pitch": 20,
                "velocity": 80,
                "duration": 1.3295,
                "tempo": 120.0
            },
            {
                "pitch": 20,
                "velocity": 80,
                "duration": 1.3568,
                "tempo": 120.0
            },
            {
                "pitch": 25,
                "velocity": 80,
                "duration": 2.7432,
                "tempo": 120.0
            },
            {
                "pitch": 24,
                "velocity": 80,
                "duration": 2.7636,
                "tempo": 120.0
            },
            {
                "pitch": 25,
                "velocity": 80,
                "duration": 1.3318,
                "tempo": 120.0
            },
            {
                "pitch": 18,
                "velocity": 64,
                "duration": 1.3477,
                "tempo": 120.0
            },
            {
                "pitch": 23,
                "velocity": 64,
                "duration": 1.3568,
                "tempo": 120.0
            },
            {
                "pitch": 23,
                "velocity": 80,
                "duration": 1.3455,
                "tempo": 120.0
            },
            {
                "pitch": 28,
                "velocity": 64,
                "duration": 2.7659,
                "tempo": 120.0
            },
            {
                "pitch": 28,
                "velocity": 80,
                "duration": 2.7432,
                "tempo": 120.0
            },
            {
                "pitch": 26,
                "velocity": 64,
                "duration": 2.7545,
                "tempo": 120.0
            },
            {
                "pitch": 24,
                "velocity": 80,
                "duration": 0.6409,
                "tempo": 120.0
            },
            {
                "pitch": 23,
                "velocity": 64,
                "duration": 0.6523,
                "tempo": 120.0
            },
            {
                "pitch": 22,
                "velocity": 64,
                "duration": 1.3386,
                "tempo": 120.0
            },
            {
                "pitch": 23,
                "velocity": 80,
                "duration": 1.3386,
                "tempo": 120.0
            },
            {
                "pitch": 30,
                "velocity": 80,
                "duration": 1.3455,
                "tempo": 120.0
            },
            {
                "pitch": 18,
                "velocity": 80,
                "duration": 1.3477,
                "tempo": 120.0
            },
            {
                "pitch": 23,
                "velocity": 80,
                "duration": 3.4659,
                "tempo": 120.0
            },
            {
                "pitch": 28,
                "velocity": 80,
                "duration": 0.625,
                "tempo": 120.0
            },
            {
                "pitch": 31,
                "velocity": 101,
                "duration": 0.6364,
                "tempo": 120.0
            },
            {
                "pitch": 28,
                "velocity": 64,
                "duration": 0.6364,
                "tempo": 120.0
            },
            {
                "pitch": 23,
                "velocity": 80,
                "duration": 3.4477,
                "tempo": 120.0
            },
            {
                "pitch": 28,
                "velocity": 80,
                "duration": 0.6432,
                "tempo": 120.0
            },
            {
                "pitch": 31,
                "velocity": 101,
                "duration": 0.6545,
                "tempo": 120.0
            },
            {
                "pitch": 28,
                "velocity": 64,
                "duration": 0.6409,
                "tempo": 120.0
            },
            {
                "pitch": 23,
                "velocity": 80,
                "duration": 1.3295,
                "tempo": 120.0
            },
            {
                "pitch": 20,
                "velocity": 80,
                "duration": 1.3295,
                "tempo": 120.0
            },
            {
                "pitch": 16,
                "velocity": 80,
                "duration": 1.3568,
                "tempo": 120.0
            },
            {
                "pitch": 18,
                "velocity": 64,
                "duration": 1.3455,
                "tempo": 120.0
            },
            {
                "pitch": 23,
                "velocity": 80,
                "duration": 1.3455,
                "tempo": 120.0
            },
            {
                "pitch": 24,
                "velocity": 101,
                "duration": 1.3659,
                "tempo": 120.0
            },
            {
                "pitch": 25,
                "velocity": 80,
                "duration": 1.3295,
                "tempo": 120.0
            },
            {
                "pitch": 25,
                "velocity": 80,
                "duration": 1.3295,
                "tempo": 120.0
            },
            {
                "pitch": 18,
                "velocity": 80,
                "duration": 2.7455,
                "tempo": 120.0
            },
            {
                "pitch": 29,
                "velocity": 80,
                "duration": 2.775,
                "tempo": 120.0
            },
            {
                "pitch": 30,
                "velocity": 80,
                "duration": 1.3295,
                "tempo": 120.0
            },
            {
                "pitch": 27,
                "velocity": 64,
                "duration": 0.625,
                "tempo": 120.0
            },
            {
                "pitch": 25,
                "velocity": 64,
                "duration": 0.6364,
                "tempo": 120.0
            },
            {
                "pitch": 24,
                "velocity": 80,
                "duration": 2.05,
                "tempo": 120.0
            },
            {
                "pitch": 24,
                "velocity": 80,
                "duration": 0.6432,
                "tempo": 120.0
            },
            {
                "pitch": 25,
                "velocity": 64,
                "duration": 1.3568,
                "tempo": 120.0
            },
            {
                "pitch": 18,
                "velocity": 80,
                "duration": 0.6455,
                "tempo": 120.0
            },
            {
                "pitch": 19,
                "velocity": 64,
                "duration": 0.6409,
                "tempo": 120.0
            },
            {
                "pitch": 20,
                "velocity": 80,
                "duration": 2.7364,
                "tempo": 120.0
            },
            {
                "pitch": 20,
                "velocity": 80,
                "duration": 2.7455,
                "tempo": 120.0
            },
            {
                "pitch": 20,
                "velocity": 80,
                "duration": 2.7614,
                "tempo": 120.0
            },
            {
                "pitch": 20,
                "velocity": 80,
                "duration": 2.7295,
                "tempo": 120.0
            },
            {
                "pitch": 20,
                "velocity": 80,
                "duration": 2.7545,
                "tempo": 120.0
            },
            {
                "pitch": 20,
                "velocity": 80,
                "duration": 2.7545,
                "tempo": 120.0
            },
            {
                "pitch": 20,
                "velocity": 80,
                "duration": 2.7386,
                "tempo": 120.0
            },
            {
                "pitch": 20,
                "velocity": 80,
                "duration": 8.3682,
                "tempo": 120.0
            },
            {
                "pitch": 20,
                "velocity": 80,
                "duration": 2.7455,
                "tempo": 120.0
            },
            {
                "pitch": 20,
                "velocity": 80,
                "duration": 2.7636,
                "tempo": 120.0
            },
            {
                "pitch": 20,
                "velocity": 80,
                "duration": 1.3409,
                "tempo": 120.0
            },
            {
                "pitch": 21,
                "velocity": 64,
                "duration": 1.3295,
                "tempo": 120.0
            },
            {
                "pitch": 18,
                "velocity": 64,
                "duration": 1.3477,
                "tempo": 120.0
            },
            {
                "pitch": 20,
                "velocity": 64,
                "duration": 1.3477,
                "tempo": 120.0
            },
            {
                "pitch": 25,
                "velocity": 80,
                "duration": 2.7545,
                "tempo": 120.0
            },
            {
                "pitch": 24,
                "velocity": 80,
                "duration": 2.7409,
                "tempo": 120.0
            },
            {
                "pitch": 25,
                "velocity": 80,
                "duration": 1.3568,
                "tempo": 120.0
            },
            {
                "pitch": 18,
                "velocity": 64,
                "duration": 1.3455,
                "tempo": 120.0
            },
            {
                "pitch": 23,
                "velocity": 80,
                "duration": 1.3477,
                "tempo": 120.0
            },
            {
                "pitch": 23,
                "velocity": 101,
                "duration": 1.3477,
                "tempo": 120.0
            },
            {
                "pitch": 28,
                "velocity": 80,
                "duration": 2.75,
                "tempo": 120.0
            },
            {
                "pitch": 27,
                "velocity": 80,
                "duration": 2.7545,
                "tempo": 120.0
            },
            {
                "pitch": 28,
                "velocity": 80,
                "duration": 1.3455,
                "tempo": 120.0
            },
            {
                "pitch": 27,
                "velocity": 64,
                "duration": 0.6409,
                "tempo": 120.0
            },
            {
                "pitch": 25,
                "velocity": 64,
                "duration": 0.6523,
                "tempo": 120.0
            },
            {
                "pitch": 24,
                "velocity": 64,
                "duration": 1.3523,
                "tempo": 120.0
            },
            {
                "pitch": 25,
                "velocity": 64,
                "duration": 1.3295,
                "tempo": 120.0
            },
            {
                "pitch": 18,
                "velocity": 80,
                "duration": 1.3455,
                "tempo": 120.0
            },
            {
                "pitch": 20,
                "velocity": 64,
                "duration": 1.3477,
                "tempo": 120.0
            },
            {
                "pitch": 25,
                "velocity": 80,
                "duration": 3.4659,
                "tempo": 120.0
            },
            {
                "pitch": 30,
                "velocity": 80,
                "duration": 0.6273,
                "tempo": 120.0
            },
            {
                "pitch": 33,
                "velocity": 101,
                "duration": 0.6341,
                "tempo": 120.0
            },
            {
                "pitch": 30,
                "velocity": 64,
                "duration": 0.6341,
                "tempo": 120.0
            },
            {
                "pitch": 25,
                "velocity": 80,
                "duration": 3.4477,
                "tempo": 120.0
            },
            {
                "pitch": 30,
                "velocity": 80,
                "duration": 0.6455,
                "tempo": 120.0
            },
            {
                "pitch": 33,
                "velocity": 101,
                "duration": 0.6523,
                "tempo": 120.0
            },
            {
                "pitch": 30,
                "velocity": 64,
                "duration": 0.6432,
                "tempo": 120.0
            },
            {
                "pitch": 25,
                "velocity": 80,
                "duration": 1.3682,
                "tempo": 120.0
            },
            {
                "pitch": 18,
                "velocity": 80,
                "duration": 1.3318,
                "tempo": 120.0
            },
            {
                "pitch": 27,
                "velocity": 64,
                "duration": 2.05,
                "tempo": 120.0
            },
            {
                "pitch": 28,
                "velocity": 80,
                "duration": 0.6523,
                "tempo": 120.0
            },
            {
                "pitch": 25,
                "velocity": 64,
                "duration": 0.6409,
                "tempo": 120.0
            },
            {
                "pitch": 27,
                "velocity": 64,
                "duration": 0.6523,
                "tempo": 120.0
            },
            {
                "pitch": 24,
                "velocity": 64,
                "duration": 0.65,
                "tempo": 120.0
            },
            {
                "pitch": 25,
                "velocity": 64,
                "duration": 0.6545,
                "tempo": 120.0
            },
            {
                "pitch": 21,
                "velocity": 80,
                "duration": 1.3568,
                "tempo": 120.0
            },
            {
                "pitch": 20,
                "velocity": 64,
                "duration": 0.6318,
                "tempo": 120.0
            },
            {
                "pitch": 18,
                "velocity": 64,
                "duration": 0.6295,
                "tempo": 120.0
            },
            {
                "pitch": 20,
                "velocity": 80,
                "duration": 1.3295,
                "tempo": 120.0
            },
            {
                "pitch": 20,
                "velocity": 80,
                "duration": 1.3591,
                "tempo": 120.0
            },
            {
                "pitch": 25,
                "velocity": 80,
                "duration": 2.7455,
                "tempo": 120.0
            },
            {
                "pitch": 24,
                "velocity": 80,
                "duration": 2.7636,
                "tempo": 120.0
            },
            {
                "pitch": 25,
                "velocity": 80,
                "duration": 2.7455,
                "tempo": 120.0
            },
            {
                "pitch": 20,
                "velocity": 80,
                "duration": 2.7568,
                "tempo": 120.0
            },
            {
                "pitch": 25,
                "velocity": 80,
                "duration": 2.7682,
                "tempo": 120.0
            }
        ]
    }
}