{
    "track_id": "05 Forest",
    "mood": "angry",
    "instruments": {
        "Acoustic Bass": [
            {
                "pitch": 36,
                "velocity": 80,
                "duration": 0.0955,
                "tempo": 120.0
            },
            {
                "pitch": 36,
                "velocity": 80,
                "duration": 0.1023,
                "tempo": 120.0
            },
            {
                "pitch": 36,
                "velocity": 80,
                "duration": 0.15,
                "tempo": 120.0
            },
            {
                "pitch": 36,
                "velocity": 80,
                "duration": 0.15,
                "tempo": 120.0
            },
            {
                "pitch": 36,
                "velocity": 80,
                "duration": 0.1523,
                "tempo": 120.0
            },
            {
                "pitch": 36,
                "velocity": 80,
                "duration": 0.15,
                "tempo": 120.0
            },
            {
                "pitch": 36,
                "velocity": 80,
                "duration": 0.1523,
                "tempo": 120.0
            },
            {
                "pitch": 36,
                "velocity": 80,
                "duration": 0.1523,
                "tempo": 120.0
            },
            {
                "pitch": 36,
                "velocity": 80,
                "duration": 0.1477,
                "tempo": 120.0
            },
            {
                "pitch": 36,
                "velocity": 80,
                "duration": 0.15,
                "tempo": 120.0
            },
            {
                "pitch": 36,
                "velocity": 80,
                "duration": 0.1523,
                "tempo": 120.0
            },
            {
                "pitch": 36,
                "velocity": 80,
                "duration": 0.1477,
                "tempo": 120.0
            },
            {
                "pitch": 36,
                "velocity": 80,
                "duration": 0.15,
                "tempo": 120.0
            },
            {
                "pitch": 36,
                "velocity": 80,
                "duration": 0.15,
                "tempo": 120.0
            },
            {
                "pitch": 36,
                "velocity": 80,
                "duration": 0.15,
                "tempo": 120.0
            },
            {
                "pitch": 36,
                "velocity": 80,
                "duration": 0.15,
                "tempo": 120.0
            },
            {
                "pitch": 36,
                "velocity": 80,
                "duration": 0.1455,
                "tempo": 120.0
            },
            {
                "pitch": 36,
                "velocity": 80,
                "duration": 0.15,
                "tempo": 120.0
            },
            {
                "pitch": 36,
                "velocity": 80,
                "duration": 0.15,
                "tempo": 120.0
            },
            {
                "pitch": 36,
                "velocity": 80,
                "duration": 0.15,
                "tempo": 120.0
            },
            {
                "pitch": 36,
                "velocity": 80,
                "duration": 0.1545,
                "tempo": 120.0
            },
            {
                "pitch": 36,
                "velocity": 80,
                "duration": 0.15,
                "tempo": 120.0
            },
            {
                "pitch": 36,
                "velocity": 80,
                "duration": 0.15,
                "tempo": 120.0
            },
            {
                "pitch": 36,
                "velocity": 80,
                "duration": 0.1523,
                "tempo": 120.0
            },
            {
                "pitch": 36,
                "velocity": 80,
                "duration": 0.15,
                "tempo": 120.0
            },
            {
                "pitch": 36,
                "velocity": 80,
                "duration": 0.15,
                "tempo": 120.0
            },
            {
                "pitch": 36,
                "velocity": 80,
                "duration": 0.1523,
                "tempo": 120.0
            },
            {
                "pitch": 36,
                "velocity": 80,
                "duration": 0.15,
                "tempo": 120.0
            },
            {
                "pitch": 36,
                "velocity": 80,
                "duration": 0.15,
                "tempo": 120.0
            },
            {
                "pitch": 36,
                "velocity": 80,
                "duration": 0.1523,
                "tempo": 120.0
            },
            {
                "pitch": 36,
                "velocity": 80,
                "duration": 0.15,
                "tempo": 120.0
            },
            {
                "pitch": 36,
                "velocity": 80,
                "duration": 0.1523,
                "tempo": 120.0
            },
            {
                "pitch": 36,
                "velocity": 80,
                "duration": 0.15,
                "tempo": 120.0
            },
            {
                "pitch": 36,
                "velocity": 80,
                "duration": 0.1523,
                "tempo": 120.0
            },
            {
                "pitch": 36,
                "velocity": 80,
                "duration": 0.1477,
                "tempo": 120.0
            },
            {
                "pitch": 36,
                "velocity": 80,
                "duration": 0.15,
                "tempo": 120.0
            },
            {
                "pitch": 36,
                "velocity": 80,
                "duration": 0.15,
                "tempo": 120.0
            },
            {
                "pitch": 36,
                "velocity": 80,
                "duration": 0.1477,
                "tempo": 120.0
            },
            {
                "pitch": 36,
                "velocity": 80,
                "duration": 0.15,
                "tempo": 120.0
            },
            {
                "pitch": 36,
                "velocity": 80,
                "duration": 0.1523,
                "tempo": 120.0
            },
            {
                "pitch": 36,
                "velocity": 80,
                "duration": 0.1477,
                "tempo": 120.0
            },
            {
                "pitch": 36,
                "velocity": 80,
                "duration": 0.15,
                "tempo": 120.0
            },
            {
                "pitch": 36,
                "velocity": 80,
                "duration": 0.1523,
                "tempo": 120.0
            },
            {
                "pitch": 36,
                "velocity": 80,
                "duration": 0.1477,
                "tempo": 120.0
            },
            {
                "pitch": 36,
                "velocity": 80,
                "duration": 0.15,
                "tempo": 120.0
            },
            {
                "pitch": 36,
                "velocity": 80,
                "duration": 0.15,
                "tempo": 120.0
            },
            {
                "pitch": 36,
                "velocity": 80,
                "duration": 0.1523,
                "tempo": 120.0
            },
            {
                "pitch": 36,
                "velocity": 80,
                "duration": 0.1545,
                "tempo": 120.0
            },
            {
                "pitch": 36,
                "velocity": 80,
                "duration": 0.15,
                "tempo": 120.0
            },
            {
                "pitch": 36,
                "velocity": 80,
                "duration": 0.1545,
                "tempo": 120.0
            },
            {
                "pitch": 36,
                "velocity": 80,
                "duration": 0.1477,
                "tempo": 120.0
            },
            {
                "pitch": 36,
                "velocity": 80,
                "duration": 0.1477,
                "tempo": 120.0
            },
            {
                "pitch": 36,
                "velocity": 80,
                "duration": 0.15,
                "tempo": 120.0
            },
            {
                "pitch": 36,
                "velocity": 80,
                "duration": 0.15,
                "tempo": 120.0
            },
            {
                "pitch": 36,
                "velocity": 80,
                "duration": 0.15,
                "tempo": 120.0
            },
            {
                "pitch": 36,
                "velocity": 80,
                "duration": 0.1545,
                "tempo": 120.0
            },
            {
                "pitch": 36,
                "velocity": 80,
                "duration": 0.15,
                "tempo": 120.0
            },
            {
                "pitch": 36,
                "velocity": 80,
                "duration": 0.15,
                "tempo": 120.0
            },
            {
                "pitch": 36,
                "velocity": 80,
                "duration": 0.15,
                "tempo": 120.0
            },
            {
                "pitch": 36,
                "velocity": 80,
                "duration": 0.1477,
                "tempo": 120.0
            },
            {
                "pitch": 36,
                "velocity": 80,
                "duration": 0.15,
                "tempo": 120.0
            },
            {
                "pitch": 36,
                "velocity": 80,
                "duration": 0.15,
                "tempo": 120.0
            },
            {
                "pitch": 36,
                "velocity": 80,
                "duration": 0.1477,
                "tempo": 120.0
            },
            {
                "pitch": 36,
                "velocity": 80,
                "duration": 0.1523,
                "tempo": 120.0
            },
            {
                "pitch": 45,
                "velocity": 80,
                "duration": 0.1477,
                "tempo": 120.0
            },
            {
                "pitch": 45,
                "velocity": 80,
                "duration": 0.1477,
                "tempo": 120.0
            },
            {
                "pitch": 45,
                "velocity": 80,
                "duration": 0.15,
                "tempo": 120.0
            },
            {
                "pitch": 45,
                "velocity": 80,
                "duration": 0.15,
                "tempo": 120.0
            },
            {
                "pitch": 45,
                "velocity": 80,
                "duration": 0.15,
                "tempo": 120.0
            },
            {
                "pitch": 45,
                "velocity": 80,
                "duration": 0.15,
                "tempo": 120.0
            },
            {
                "pitch": 45,
                "velocity": 80,
                "duration": 0.15,
                "tempo": 120.0
            },
            {
                "pitch": 45,
                "velocity": 80,
                "duration": 0.15,
                "tempo": 120.0
            },
            {
                "pitch": 45,
                "velocity": 80,
                "duration": 0.1477,
                "tempo": 120.0
            },
            {
                "pitch": 45,
                "velocity": 80,
                "duration": 0.1477,
                "tempo": 120.0
            },
            {
                "pitch": 45,
                "velocity": 80,
                "duration": 0.15,
                "tempo": 120.0
            },
            {
                "pitch": 45,
                "velocity": 80,
                "duration": 0.1523,
                "tempo": 120.0
            },
            {
                "pitch": 45,
                "velocity": 80,
                "duration": 0.1523,
                "tempo": 120.0
            },
            {
                "pitch": 45,
                "velocity": 80,
                "duration": 0.15,
                "tempo": 120.0
            },
            {
                "pitch": 45,
                "velocity": 80,
                "duration": 0.1477,
                "tempo": 120.0
            },
            {
                "pitch": 45,
                "velocity": 80,
                "duration": 0.15,
                "tempo": 120.0
            },
            {
                "pitch": 45,
                "velocity": 80,
                "duration": 0.1477,
                "tempo": 120.0
            },
            {
                "pitch": 45,
                "velocity": 80,
                "duration": 0.15,
                "tempo": 120.0
            },
            {
                "pitch": 45,
                "velocity": 80,
                "duration": 0.15,
                "tempo": 120.0
            },
            {
                "pitch": 45,
                "velocity": 80,
                "duration": 0.15,
                "tempo": 120.0
            },
            {
                "pitch": 45,
                "velocity": 80,
                "duration": 0.15,
                "tempo": 120.0
            },
            {
                "pitch": 45,
                "velocity": 80,
                "duration": 0.15,
                "tempo": 120.0
            },
            {
                "pitch": 45,
                "velocity": 80,
                "duration": 0.15,
                "tempo": 120.0
            },
            {
                "pitch": 45,
                "velocity": 80,
                "duration": 0.1523,
                "tempo": 120.0
            },
            {
                "pitch": 43,
                "velocity": 80,
                "duration": 0.1477,
                "tempo": 120.0
            },
            {
                "pitch": 43,
                "velocity": 80,
                "duration": 0.15,
                "tempo": 120.0
            },
            {
                "pitch": 43,
                "velocity": 80,
                "duration": 0.1477,
                "tempo": 120.0
            },
            {
                "pitch": 43,
                "velocity": 80,
                "duration": 0.1477,
                "tempo": 120.0
            },
            {
                "pitch": 43,
                "velocity": 80,
                "duration": 0.1477,
                "tempo": 120.0
            },
            {
                "pitch": 43,
                "velocity": 80,
                "duration": 0.15,
                "tempo": 120.0
            },
            {
                "pitch": 43,
                "velocity": 80,
                "duration": 0.15,
                "tempo": 120.0
            },
            {
                "pitch": 43,
                "velocity": 80,
                "duration": 0.1523,
                "tempo": 120.0
            },
            {
                "pitch": 41,
                "velocity": 80,
                "duration": 0.15,
                "tempo": 120.0
            },
            {
                "pitch": 41,
                "velocity": 80,
                "duration": 0.1523,
                "tempo": 120.0
            },
            {
                "pitch": 41,
                "velocity": 80,
                "duration": 0.1523,
                "tempo": 120.0
            },
            {
                "pitch": 41,
                "velocity": 80,
                "duration": 0.1523,
                "tempo": 120.0
            },
            {
                "pitch": 41,
                "velocity": 80,
                "duration": 0.1523,
                "tempo": 120.0
            },
            {
                "pitch": 41,
                "velocity": 80,
                "duration": 0.1523,
                "tempo": 120.0
            },
            {
                "pitch": 41,
                "velocity": 80,
                "duration": 0.1477,
                "tempo": 120.0
            },
            {
                "pitch": 41,
                "velocity": 80,
                "duration": 0.15,
                "tempo": 120.0
            },
            {
                "pitch": 40,
                "velocity": 80,
                "duration": 0.15,
                "tempo": 120.0
            },
            {
                "pitch": 40,
                "velocity": 80,
                "duration": 0.15,
                "tempo": 120.0
            },
            {
                "pitch": 40,
                "velocity": 80,
                "duration": 0.15,
                "tempo": 120.0
            },
            {
                "pitch": 40,
                "velocity": 80,
                "duration": 0.15,
                "tempo": 120.0
            },
            {
                "pitch": 40,
                "velocity": 80,
                "duration": 0.15,
                "tempo": 120.0
            },
            {
                "pitch": 40,
                "velocity": 80,
                "duration": 0.15,
                "tempo": 120.0
            },
            {
                "pitch": 40,
                "velocity": 80,
                "duration": 0.15,
                "tempo": 120.0
            },
            {
                "pitch": 40,
                "velocity": 80,
                "duration": 0.1523,
                "tempo": 120.0
            },
            {
                "pitch": 40,
                "velocity": 80,
                "duration": 0.15,
                "tempo": 120.0
            },
            {
                "pitch": 40,
                "velocity": 80,
                "duration": 0.15,
                "tempo": 120.0
            },
            {
                "pitch": 40,
                "velocity": 80,
                "duration": 0.15,
                "tempo": 120.0
            },
            {
                "pitch": 40,
                "velocity": 80,
                "duration": 0.1477,
                "tempo": 120.0
            },
            {
                "pitch": 40,
                "velocity": 80,
                "duration": 0.15,
                "tempo": 120.0
            },
            {
                "pitch": 40,
                "velocity": 80,
                "duration": 0.15,
                "tempo": 120.0
            },
            {
                "pitch": 40,
                "velocity": 80,
                "duration": 0.15,
                "tempo": 120.0
            },
            {
                "pitch": 40,
                "velocity": 80,
                "duration": 0.1523,
                "tempo": 120.0
            },
            {
                "pitch": 40,
                "velocity": 80,
                "duration": 0.15,
                "tempo": 120.0
            },
            {
                "pitch": 40,
                "velocity": 80,
                "duration": 0.15,
                "tempo": 120.0
            },
            {
                "pitch": 40,
                "velocity": 80,
                "duration": 0.15,
                "tempo": 120.0
            },
            {
                "pitch": 40,
                "velocity": 80,
                "duration": 0.15,
                "tempo": 120.0
            },
            {
                "pitch": 40,
                "velocity": 80,
                "duration": 0.15,
                "tempo": 120.0
            },
            {
                "pitch": 40,
                "velocity": 80,
                "duration": 0.15,
                "tempo": 120.0
            },
            {
                "pitch": 40,
                "velocity": 80,
                "duration": 0.1477,
                "tempo": 120.0
            },
            {
                "pitch": 40,
                "velocity": 80,
                "duration": 0.15,
                "tempo": 120.0
            },
            {
                "pitch": 40,
                "velocity": 80,
                "duration": 0.15,
                "tempo": 120.0
            },
            {
                "pitch": 40,
                "velocity": 80,
                "duration": 0.15,
                "tempo": 120.0
            },
            {
                "pitch": 40,
                "velocity": 80,
                "duration": 0.15,
                "tempo": 120.0
            },
            {
                "pitch": 40,
                "velocity": 80,
                "duration": 0.15,
                "tempo": 120.0
            },
            {
                "pitch": 40,
                "velocity": 80,
                "duration": 0.15,
                "tempo": 120.0
            },
            {
                "pitch": 40,
                "velocity": 80,
                "duration": 0.1523,
                "tempo": 120.0
            },
            {
                "pitch": 40,
                "velocity": 80,
                "duration": 0.15,
                "tempo": 120.0
            },
            {
                "pitch": 40,
                "velocity": 80,
                "duration": 0.15,
                "tempo": 120.0
            },
            {
                "pitch": 45,
                "velocity": 80,
                "duration": 0.1477,
                "tempo": 120.0
            },
            {
                "pitch": 45,
                "velocity": 80,
                "duration": 0.15,
                "tempo": 120.0
            },
            {
                "pitch": 45,
                "velocity": 80,
                "duration": 0.15,
                "tempo": 120.0
            },
            {
                "pitch": 45,
                "velocity": 80,
                "duration": 0.1523,
                "tempo": 120.0
            },
            {
                "pitch": 45,
                "velocity": 80,
                "duration": 0.15,
                "tempo": 120.0
            },
            {
                "pitch": 45,
                "velocity": 80,
                "duration": 0.15,
                "tempo": 120.0
            },
            {
                "pitch": 45,
                "velocity": 80,
                "duration": 0.1523,
                "tempo": 120.0
            },
            {
                "pitch": 45,
                "velocity": 80,
                "duration": 0.1523,
                "tempo": 120.0
            },
            {
                "pitch": 45,
                "velocity": 80,
                "duration": 0.15,
                "tempo": 120.0
            },
            {
                "pitch": 45,
                "velocity": 80,
                "duration": 0.15,
                "tempo": 120.0
            },
            {
                "pitch": 45,
                "velocity": 80,
                "duration": 0.1477,
                "tempo": 120.0
            },
            {
                "pitch": 45,
                "velocity": 80,
                "duration": 0.1477,
                "tempo": 120.0
            },
            {
                "pitch": 45,
                "velocity": 80,
                "duration": 0.1477,
                "tempo": 120.0
            },
            {
                "pitch": 45,
                "velocity": 80,
                "duration": 0.1477,
                "tempo": 120.0
            },
            {
                "pitch": 45,
                "velocity": 80,
                "duration": 0.1523,
                "tempo": 120.0
            },
            {
                "pitch": 45,
                "velocity": 80,
                "duration": 0.1545,
                "tempo": 120.0
            },
            {
                "pitch": 45,
                "velocity": 80,
                "duration": 0.1523,
                "tempo": 120.0
            },
            {
                "pitch": 45,
                "velocity": 80,
                "duration": 0.1523,
                "tempo": 120.0
            },
            {
                "pitch": 45,
                "velocity": 80,
                "duration": 0.15,
                "tempo": 120.0
            },
            {
                "pitch": 45,
                "velocity": 80,
                "duration": 0.1523,
                "tempo": 120.0
            },
            {
                "pitch": 45,
                "velocity": 80,
                "duration": 0.1523,
                "tempo": 120.0
            },
            {
                "pitch": 45,
                "velocity": 80,
                "duration": 0.15,
                "tempo": 120.0
            },
            {
                "pitch": 45,
                "velocity": 80,
                "duration": 0.15,
                "tempo": 120.0
            },
            {
                "pitch": 45,
                "velocity": 80,
                "duration": 0.1523,
                "tempo": 120.0
            },
            {
                "pitch": 43,
                "velocity": 80,
                "duration": 0.15,
                "tempo": 120.0
            },
            {
                "pitch": 43,
                "velocity": 80,
                "duration": 0.15,
                "tempo": 120.0
            },
            {
                "pitch": 43,
                "velocity": 80,
                "duration": 0.1477,
                "tempo": 120.0
            },
            {
                "pitch": 43,
                "velocity": 80,
                "duration": 0.1477,
                "tempo": 120.0
            },
            {
                "pitch": 43,
                "velocity": 80,
                "duration": 0.1477,
                "tempo": 120.0
            },
            {
                "pitch": 43,
                "velocity": 80,
                "duration": 0.15,
                "tempo": 120.0
            },
            {
                "pitch": 43,
                "velocity": 80,
                "duration": 0.15,
                "tempo": 120.0
            },
            {
                "pitch": 43,
                "velocity": 80,
                "duration": 0.15,
                "tempo": 120.0
            },
            {
                "pitch": 41,
                "velocity": 80,
                "duration": 0.15,
                "tempo": 120.0
            },
            {
                "pitch": 41,
                "velocity": 80,
                "duration": 0.15,
                "tempo": 120.0
            },
            {
                "pitch": 41,
                "velocity": 80,
                "duration": 0.15,
                "tempo": 120.0
            },
            {
                "pitch": 41,
                "velocity": 80,
                "duration": 0.15,
                "tempo": 120.0
            },
            {
                "pitch": 41,
                "velocity": 80,
                "duration": 0.15,
                "tempo": 120.0
            },
            {
                "pitch": 41,
                "velocity": 80,
                "duration": 0.15,
                "tempo": 120.0
            },
            {
                "pitch": 41,
                "velocity": 80,
                "duration": 0.1523,
                "tempo": 120.0
            },
            {
                "pitch": 41,
                "velocity": 80,
                "duration": 0.1523,
                "tempo": 120.0
            },
            {
                "pitch": 40,
                "velocity": 80,
                "duration": 0.15,
                "tempo": 120.0
            },
            {
                "pitch": 40,
                "velocity": 80,
                "duration": 0.1523,
                "tempo": 120.0
            },
            {
                "pitch": 40,
                "velocity": 80,
                "duration": 0.1523,
                "tempo": 120.0
            },
            {
                "pitch": 40,
                "velocity": 80,
                "duration": 0.15,
                "tempo": 120.0
            },
            {
                "pitch": 40,
                "velocity": 80,
                "duration": 0.15,
                "tempo": 120.0
            },
            {
                "pitch": 40,
                "velocity": 80,
                "duration": 0.15,
                "tempo": 120.0
            },
            {
                "pitch": 40,
                "velocity": 80,
                "duration": 0.15,
                "tempo": 120.0
            },
            {
                "pitch": 40,
                "velocity": 80,
                "duration": 0.15,
                "tempo": 120.0
            },
            {
                "pitch": 40,
                "velocity": 80,
                "duration": 0.1477,
                "tempo": 120.0
            },
            {
                "pitch": 40,
                "velocity": 80,
                "duration": 0.15,
                "tempo": 120.0
            },
            {
                "pitch": 40,
                "velocity": 80,
                "duration": 0.15,
                "tempo": 120.0
            },
            {
                "pitch": 40,
                "velocity": 80,
                "duration": 0.1523,
                "tempo": 120.0
            },
            {
                "pitch": 40,
                "velocity": 80,
                "duration": 0.15,
                "tempo": 120.0
            },
            {
                "pitch": 40,
                "velocity": 80,
                "duration": 0.15,
                "tempo": 120.0
            },
            {
                "pitch": 40,
                "velocity": 80,
                "duration": 0.1477,
                "tempo": 120.0
            },
            {
                "pitch": 40,
                "velocity": 80,
                "duration": 0.15,
                "tempo": 120.0
            },
            {
                "pitch": 40,
                "velocity": 80,
                "duration": 0.1477,
                "tempo": 120.0
            },
            {
                "pitch": 40,
                "velocity": 80,
                "duration": 0.1477,
                "tempo": 120.0
            },
            {
                "pitch": 40,
                "velocity": 80,
                "duration": 0.15,
                "tempo": 120.0
            },
            {
                "pitch": 40,
                "velocity": 80,
                "duration": 0.15,
                "tempo": 120.0
            },
            {
                "pitch": 40,
                "velocity": 80,
                "duration": 0.1523,
                "tempo": 120.0
            },
            {
                "pitch": 40,
                "velocity": 80,
                "duration": 0.1523,
                "tempo": 120.0
            },
            {
                "pitch": 40,
                "velocity": 80,
                "duration": 0.15,
                "tempo": 120.0
            },
            {
                "pitch": 40,
                "velocity": 80,
                "duration": 0.15,
                "tempo": 120.0
            },
            {
                "pitch": 40,
                "velocity": 80,
                "duration": 0.15,
                "tempo": 120.0
            },
            {
                "pitch": 40,
                "velocity": 80,
                "duration": 0.15,
                "tempo": 120.0
            },
            {
                "pitch": 40,
                "velocity": 80,
                "duration": 0.1523,
                "tempo": 120.0
            },
            {
                "pitch": 40,
                "velocity": 80,
                "duration": 0.1523,
                "tempo": 120.0
            },
            {
                "pitch": 40,
                "velocity": 80,
                "duration": 0.1523,
                "tempo": 120.0
            },
            {
                "pitch": 40,
                "velocity": 80,
                "duration": 0.1523,
                "tempo": 120.0
            },
            {
                "pitch": 40,
                "velocity": 80,
                "duration": 0.1477,
                "tempo": 120.0
            },
            {
                "pitch": 40,
                "velocity": 80,
                "duration": 0.15,
                "tempo": 120.0
            },
            {
                "pitch": 45,
                "velocity": 80,
                "duration": 0.1477,
                "tempo": 120.0
            },
            {
                "pitch": 45,
                "velocity": 80,
                "duration": 0.15,
                "tempo": 120.0
            },
            {
                "pitch": 45,
                "velocity": 80,
                "duration": 0.15,
                "tempo": 120.0
            },
            {
                "pitch": 45,
                "velocity": 80,
                "duration": 0.15,
                "tempo": 120.0
            },
            {
                "pitch": 45,
                "velocity": 80,
                "duration": 0.1523,
                "tempo": 120.0
            },
            {
                "pitch": 45,
                "velocity": 80,
                "duration": 0.15,
                "tempo": 120.0
            },
            {
                "pitch": 45,
                "velocity": 80,
                "duration": 0.15,
                "tempo": 120.0
            },
            {
                "pitch": 45,
                "velocity": 80,
                "duration": 0.15,
                "tempo": 120.0
            },
            {
                "pitch": 45,
                "velocity": 80,
                "duration": 0.15,
                "tempo": 120.0
            },
            {
                "pitch": 45,
                "velocity": 80,
                "duration": 0.1523,
                "tempo": 120.0
            },
            {
                "pitch": 45,
                "velocity": 80,
                "duration": 0.15,
                "tempo": 120.0
            },
            {
                "pitch": 45,
                "velocity": 80,
                "duration": 0.15,
                "tempo": 120.0
            },
            {
                "pitch": 45,
                "velocity": 80,
                "duration": 0.1523,
                "tempo": 120.0
            },
            {
                "pitch": 45,
                "velocity": 80,
                "duration": 0.15,
                "tempo": 120.0
            },
            {
                "pitch": 45,
                "velocity": 80,
                "duration": 0.1477,
                "tempo": 120.0
            },
            {
                "pitch": 45,
                "velocity": 80,
                "duration": 0.15,
                "tempo": 120.0
            },
            {
                "pitch": 43,
                "velocity": 80,
                "duration": 0.1477,
                "tempo": 120.0
            },
            {
                "pitch": 43,
                "velocity": 80,
                "duration": 0.15,
                "tempo": 120.0
            },
            {
                "pitch": 43,
                "velocity": 80,
                "duration": 0.1523,
                "tempo": 120.0
            },
            {
                "pitch": 43,
                "velocity": 80,
                "duration": 0.1523,
                "tempo": 120.0
            },
            {
                "pitch": 43,
                "velocity": 80,
                "duration": 0.15,
                "tempo": 120.0
            },
            {
                "pitch": 43,
                "velocity": 80,
                "duration": 0.15,
                "tempo": 120.0
            },
            {
                "pitch": 43,
                "velocity": 80,
                "duration": 0.1523,
                "tempo": 120.0
            },
            {
                "pitch": 43,
                "velocity": 80,
                "duration": 0.1523,
                "tempo": 120.0
            },
            {
                "pitch": 43,
                "velocity": 80,
                "duration": 0.15,
                "tempo": 120.0
            },
            {
                "pitch": 43,
                "velocity": 80,
                "duration": 0.15,
                "tempo": 120.0
            },
            {
                "pitch": 43,
                "velocity": 80,
                "duration": 0.1523,
                "tempo": 120.0
            },
            {
                "pitch": 43,
                "velocity": 80,
                "duration": 0.1523,
                "tempo": 120.0
            },
            {
                "pitch": 43,
                "velocity": 80,
                "duration": 0.15,
                "tempo": 120.0
            },
            {
                "pitch": 43,
                "velocity": 80,
                "duration": 0.15,
                "tempo": 120.0
            },
            {
                "pitch": 43,
                "velocity": 80,
                "duration": 0.1523,
                "tempo": 120.0
            },
            {
                "pitch": 43,
                "velocity": 80,
                "duration": 0.1523,
                "tempo": 120.0
            },
            {
                "pitch": 41,
                "velocity": 80,
                "duration": 0.15,
                "tempo": 120.0
            },
            {
                "pitch": 41,
                "velocity": 80,
                "duration": 0.15,
                "tempo": 120.0
            },
            {
                "pitch": 41,
                "velocity": 80,
                "duration": 0.15,
                "tempo": 120.0
            },
            {
                "pitch": 41,
                "velocity": 80,
                "duration": 0.15,
                "tempo": 120.0
            },
            {
                "pitch": 41,
                "velocity": 80,
                "duration": 0.1477,
                "tempo": 120.0
            },
            {
                "pitch": 41,
                "velocity": 80,
                "duration": 0.15,
                "tempo": 120.0
            },
            {
                "pitch": 41,
                "velocity": 80,
                "duration": 0.15,
                "tempo": 120.0
            },
            {
                "pitch": 41,
                "velocity": 80,
                "duration": 0.15,
                "tempo": 120.0
            },
            {
                "pitch": 41,
                "velocity": 80,
                "duration": 0.15,
                "tempo": 120.0
            },
            {
                "pitch": 41,
                "velocity": 80,
                "duration": 0.15,
                "tempo": 120.0
            },
            {
                "pitch": 41,
                "velocity": 80,
                "duration": 0.15,
                "tempo": 120.0
            },
            {
                "pitch": 41,
                "velocity": 80,
                "duration": 0.1523,
                "tempo": 120.0
            },
            {
                "pitch": 41,
                "velocity": 80,
                "duration": 0.1523,
                "tempo": 120.0
            },
            {
                "pitch": 41,
                "velocity": 80,
                "duration": 0.15,
                "tempo": 120.0
            },
            {
                "pitch": 41,
                "velocity": 80,
                "duration": 0.15,
                "tempo": 120.0
            },
            {
                "pitch": 41,
                "velocity": 80,
                "duration": 0.1523,
                "tempo": 120.0
            },
            {
                "pitch": 40,
                "velocity": 80,
                "duration": 0.15,
                "tempo": 120.0
            },
            {
                "pitch": 40,
                "velocity": 80,
                "duration": 0.15,
                "tempo": 120.0
            },
            {
                "pitch": 40,
                "velocity": 80,
                "duration": 0.1523,
                "tempo": 120.0
            },
            {
                "pitch": 40,
                "velocity": 80,
                "duration": 0.1523,
                "tempo": 120.0
            },
            {
                "pitch": 40,
                "velocity": 80,
                "duration": 0.1523,
                "tempo": 120.0
            },
            {
                "pitch": 40,
                "velocity": 80,
                "duration": 0.1523,
                "tempo": 120.0
            },
            {
                "pitch": 40,
                "velocity": 80,
                "duration": 0.15,
                "tempo": 120.0
            },
            {
                "pitch": 40,
                "velocity": 80,
                "duration": 0.1523,
                "tempo": 120.0
            },
            {
                "pitch": 40,
                "velocity": 80,
                "duration": 0.15,
                "tempo": 120.0
            },
            {
                "pitch": 40,
                "velocity": 80,
                "duration": 0.15,
                "tempo": 120.0
            },
            {
                "pitch": 40,
                "velocity": 80,
                "duration": 0.15,
                "tempo": 120.0
            },
            {
                "pitch": 40,
                "velocity": 80,
                "duration": 0.1477,
                "tempo": 120.0
            },
            {
                "pitch": 40,
                "velocity": 80,
                "duration": 0.1477,
                "tempo": 120.0
            },
            {
                "pitch": 40,
                "velocity": 80,
                "duration": 0.15,
                "tempo": 120.0
            },
            {
                "pitch": 40,
                "velocity": 80,
                "duration": 0.15,
                "tempo": 120.0
            },
            {
                "pitch": 40,
                "velocity": 80,
                "duration": 0.1523,
                "tempo": 120.0
            },
            {
                "pitch": 45,
                "velocity": 80,
                "duration": 0.15,
                "tempo": 120.0
            },
            {
                "pitch": 45,
                "velocity": 80,
                "duration": 0.15,
                "tempo": 120.0
            },
            {
                "pitch": 45,
                "velocity": 80,
                "duration": 0.15,
                "tempo": 120.0
            },
            {
                "pitch": 45,
                "velocity": 80,
                "duration": 0.1523,
                "tempo": 120.0
            },
            {
                "pitch": 45,
                "velocity": 80,
                "duration": 0.1523,
                "tempo": 120.0
            },
            {
                "pitch": 45,
                "velocity": 80,
                "duration": 0.15,
                "tempo": 120.0
            },
            {
                "pitch": 45,
                "velocity": 80,
                "duration": 0.15,
                "tempo": 120.0
            },
            {
                "pitch": 45,
                "velocity": 80,
                "duration": 0.15,
                "tempo": 120.0
            },
            {
                "pitch": 45,
                "velocity": 80,
                "duration": 0.15,
                "tempo": 120.0
            },
            {
                "pitch": 45,
                "velocity": 80,
                "duration": 0.15,
                "tempo": 120.0
            },
            {
                "pitch": 45,
                "velocity": 80,
                "duration": 0.15,
                "tempo": 120.0
            },
            {
                "pitch": 45,
                "velocity": 80,
                "duration": 0.15,
                "tempo": 120.0
            },
            {
                "pitch": 45,
                "velocity": 80,
                "duration": 0.1523,
                "tempo": 120.0
            },
            {
                "pitch": 45,
                "velocity": 80,
                "duration": 0.15,
                "tempo": 120.0
            },
            {
                "pitch": 45,
                "velocity": 80,
                "duration": 0.1477,
                "tempo": 120.0
            },
            {
                "pitch": 45,
                "velocity": 80,
                "duration": 0.15,
                "tempo": 120.0
            },
            {
                "pitch": 43,
                "velocity": 80,
                "duration": 0.1477,
                "tempo": 120.0
            },
            {
                "pitch": 43,
                "velocity": 80,
                "duration": 0.15,
                "tempo": 120.0
            },
            {
                "pitch": 43,
                "velocity": 80,
                "duration": 0.1523,
                "tempo": 120.0
            },
            {
                "pitch": 43,
                "velocity": 80,
                "duration": 0.15,
                "tempo": 120.0
            },
            {
                "pitch": 43,
                "velocity": 80,
                "duration": 0.15,
                "tempo": 120.0
            },
            {
                "pitch": 43,
                "velocity": 80,
                "duration": 0.1523,
                "tempo": 120.0
            },
            {
                "pitch": 43,
                "velocity": 80,
                "duration": 0.15,
                "tempo": 120.0
            },
            {
                "pitch": 43,
                "velocity": 80,
                "duration": 0.1523,
                "tempo": 120.0
            },
            {
                "pitch": 43,
                "velocity": 80,
                "duration": 0.15,
                "tempo": 120.0
            },
            {
                "pitch": 43,
                "velocity": 80,
                "duration": 0.1523,
                "tempo": 120.0
            },
            {
                "pitch": 43,
                "velocity": 80,
                "duration": 0.1523,
                "tempo": 120.0
            },
            {
                "pitch": 43,
                "velocity": 80,
                "duration": 0.15,
                "tempo": 120.0
            },
            {
                "pitch": 43,
                "velocity": 80,
                "duration": 0.15,
                "tempo": 120.0
            },
            {
                "pitch": 43,
                "velocity": 80,
                "duration": 0.1523,
                "tempo": 120.0
            },
            {
                "pitch": 43,
                "velocity": 80,
                "duration": 0.15,
                "tempo": 120.0
            },
            {
                "pitch": 43,
                "velocity": 80,
                "duration": 0.1523,
                "tempo": 120.0
            },
            {
                "pitch": 41,
                "velocity": 80,
                "duration": 0.15,
                "tempo": 120.0
            },
            {
                "pitch": 41,
                "velocity": 80,
                "duration": 0.1523,
                "tempo": 120.0
            },
            {
                "pitch": 41,
                "velocity": 80,
                "duration": 0.15,
                "tempo": 120.0
            },
            {
                "pitch": 41,
                "velocity": 80,
                "duration": 0.15,
                "tempo": 120.0
            },
            {
                "pitch": 41,
                "velocity": 80,
                "duration": 0.15,
                "tempo": 120.0
            },
            {
                "pitch": 41,
                "velocity": 80,
                "duration": 0.1523,
                "tempo": 120.0
            },
            {
                "pitch": 41,
                "velocity": 80,
                "duration": 0.15,
                "tempo": 120.0
            },
            {
                "pitch": 41,
                "velocity": 80,
                "duration": 0.15,
                "tempo": 120.0
            },
            {
                "pitch": 41,
                "velocity": 80,
                "duration": 0.15,
                "tempo": 120.0
            },
            {
                "pitch": 41,
                "velocity": 80,
                "duration": 0.15,
                "tempo": 120.0
            },
            {
                "pitch": 41,
                "velocity": 80,
                "duration": 0.1523,
                "tempo": 120.0
            },
            {
                "pitch": 41,
                "velocity": 80,
                "duration": 0.1523,
                "tempo": 120.0
            },
            {
                "pitch": 41,
                "velocity": 80,
                "duration": 0.1545,
                "tempo": 120.0
            },
            {
                "pitch": 41,
                "velocity": 80,
                "duration": 0.1523,
                "tempo": 120.0
            },
            {
                "pitch": 41,
                "velocity": 80,
                "duration": 0.1523,
                "tempo": 120.0
            },
            {
                "pitch": 41,
                "velocity": 80,
                "duration": 0.1523,
                "tempo": 120.0
            },
            {
                "pitch": 40,
                "velocity": 80,
                "duration": 0.15,
                "tempo": 120.0
            },
            {
                "pitch": 40,
                "velocity": 80,
                "duration": 0.15,
                "tempo": 120.0
            },
            {
                "pitch": 40,
                "velocity": 80,
                "duration": 0.1523,
                "tempo": 120.0
            },
            {
                "pitch": 40,
                "velocity": 80,
                "duration": 0.1523,
                "tempo": 120.0
            },
            {
                "pitch": 40,
                "velocity": 80,
                "duration": 0.15,
                "tempo": 120.0
            },
            {
                "pitch": 40,
                "velocity": 80,
                "duration": 0.15,
                "tempo": 120.0
            },
            {
                "pitch": 40,
                "velocity": 80,
                "duration": 0.1523,
                "tempo": 120.0
            },
            {
                "pitch": 40,
                "velocity": 80,
                "duration": 0.1523,
                "tempo": 120.0
            },
            {
                "pitch": 40,
                "velocity": 80,
                "duration": 0.15,
                "tempo": 120.0
            },
            {
                "pitch": 40,
                "velocity": 80,
                "duration": 0.15,
                "tempo": 120.0
            },
            {
                "pitch": 40,
                "velocity": 80,
                "duration": 0.1523,
                "tempo": 120.0
            },
            {
                "pitch": 40,
                "velocity": 80,
                "duration": 0.1523,
                "tempo": 120.0
            },
            {
                "pitch": 40,
                "velocity": 80,
                "duration": 0.15,
                "tempo": 120.0
            },
            {
                "pitch": 40,
                "velocity": 80,
                "duration": 0.1523,
                "tempo": 120.0
            },
            {
                "pitch": 40,
                "velocity": 80,
                "duration": 0.15,
                "tempo": 120.0
            },
            {
                "pitch": 40,
                "velocity": 80,
                "duration": 0.1523,
                "tempo": 120.0
            },
            {
                "pitch": 45,
                "velocity": 80,
                "duration": 0.1477,
                "tempo": 120.0
            },
            {
                "pitch": 45,
                "velocity": 80,
                "duration": 0.1477,
                "tempo": 120.0
            },
            {
                "pitch": 45,
                "velocity": 80,
                "duration": 0.15,
                "tempo": 120.0
            },
            {
                "pitch": 45,
                "velocity": 80,
                "duration": 0.1523,
                "tempo": 120.0
            },
            {
                "pitch": 45,
                "velocity": 80,
                "duration": 0.1523,
                "tempo": 120.0
            },
            {
                "pitch": 45,
                "velocity": 80,
                "duration": 0.15,
                "tempo": 120.0
            },
            {
                "pitch": 45,
                "velocity": 80,
                "duration": 0.15,
                "tempo": 120.0
            },
            {
                "pitch": 45,
                "velocity": 80,
                "duration": 0.1523,
                "tempo": 120.0
            },
            {
                "pitch": 41,
                "velocity": 80,
                "duration": 0.1523,
                "tempo": 120.0
            },
            {
                "pitch": 41,
                "velocity": 80,
                "duration": 0.15,
                "tempo": 120.0
            },
            {
                "pitch": 41,
                "velocity": 80,
                "duration": 0.15,
                "tempo": 120.0
            },
            {
                "pitch": 41,
                "velocity": 80,
                "duration": 0.1523,
                "tempo": 120.0
            },
            {
                "pitch": 41,
                "velocity": 80,
                "duration": 0.1523,
                "tempo": 120.0
            },
            {
                "pitch": 41,
                "velocity": 80,
                "duration": 0.15,
                "tempo": 120.0
            },
            {
                "pitch": 41,
                "velocity": 80,
                "duration": 0.15,
                "tempo": 120.0
            },
            {
                "pitch": 41,
                "velocity": 80,
                "duration": 0.1523,
                "tempo": 120.0
            },
            {
                "pitch": 43,
                "velocity": 80,
                "duration": 0.15,
                "tempo": 120.0
            },
            {
                "pitch": 43,
                "velocity": 80,
                "duration": 0.15,
                "tempo": 120.0
            },
            {
                "pitch": 43,
                "velocity": 80,
                "duration": 0.1477,
                "tempo": 120.0
            },
            {
                "pitch": 43,
                "velocity": 80,
                "duration": 0.1477,
                "tempo": 120.0
            },
            {
                "pitch": 43,
                "velocity": 80,
                "duration": 0.15,
                "tempo": 120.0
            },
            {
                "pitch": 43,
                "velocity": 80,
                "duration": 0.15,
                "tempo": 120.0
            },
            {
                "pitch": 43,
                "velocity": 80,
                "duration": 0.1523,
                "tempo": 120.0
            },
            {
                "pitch": 43,
                "velocity": 80,
                "duration": 0.1545,
                "tempo": 120.0
            },
            {
                "pitch": 40,
                "velocity": 80,
                "duration": 0.1523,
                "tempo": 120.0
            },
            {
                "pitch": 40,
                "velocity": 80,
                "duration": 0.1523,
                "tempo": 120.0
            },
            {
                "pitch": 40,
                "velocity": 80,
                "duration": 0.15,
                "tempo": 120.0
            },
            {
                "pitch": 40,
                "velocity": 80,
                "duration": 0.1523,
                "tempo": 120.0
            },
            {
                "pitch": 40,
                "velocity": 80,
                "duration": 0.1523,
                "tempo": 120.0
            },
            {
                "pitch": 40,
                "velocity": 80,
                "duration": 0.15,
                "tempo": 120.0
            },
            {
                "pitch": 40,
                "velocity": 80,
                "duration": 0.15,
                "tempo": 120.0
            },
            {
                "pitch": 40,
                "velocity": 80,
                "duration": 0.1523,
                "tempo": 120.0
            },
            {
                "pitch": 45,
                "velocity": 80,
                "duration": 0.15,
                "tempo": 120.0
            },
            {
                "pitch": 45,
                "velocity": 80,
                "duration": 0.15,
                "tempo": 120.0
            },
            {
                "pitch": 45,
                "velocity": 80,
                "duration": 0.15,
                "tempo": 120.0
            },
            {
                "pitch": 45,
                "velocity": 80,
                "duration": 0.1523,
                "tempo": 120.0
            },
            {
                "pitch": 45,
                "velocity": 80,
                "duration": 0.1523,
                "tempo": 120.0
            },
            {
                "pitch": 45,
                "velocity": 80,
                "duration": 0.15,
                "tempo": 120.0
            },
            {
                "pitch": 45,
                "velocity": 80,
                "duration": 0.15,
                "tempo": 120.0
            },
            {
                "pitch": 45,
                "velocity": 80,
                "duration": 0.1523,
                "tempo": 120.0
            },
            {
                "pitch": 41,
                "velocity": 80,
                "duration": 0.1523,
                "tempo": 120.0
            },
            {
                "pitch": 41,
                "velocity": 80,
                "duration": 0.15,
                "tempo": 120.0
            },
            {
                "pitch": 41,
                "velocity": 80,
                "duration": 0.1477,
                "tempo": 120.0
            },
            {
                "pitch": 41,
                "velocity": 80,
                "duration": 0.15,
                "tempo": 120.0
            },
            {
                "pitch": 42,
                "velocity": 80,
                "duration": 0.15,
                "tempo": 120.0
            },
            {
                "pitch": 43,
                "velocity": 80,
                "duration": 0.15,
                "tempo": 120.0
            },
            {
                "pitch": 44,
                "velocity": 80,
                "duration": 0.1523,
                "tempo": 120.0
            },
            {
                "pitch": 45,
                "velocity": 80,
                "duration": 0.15,
                "tempo": 120.0
            },
            {
                "pitch": 45,
                "velocity": 80,
                "duration": 0.15,
                "tempo": 120.0
            },
            {
                "pitch": 43,
                "velocity": 80,
                "duration": 0.15,
                "tempo": 120.0
            },
            {
                "pitch": 45,
                "velocity": 80,
                "duration": 0.15,
                "tempo": 120.0
            },
            {
                "pitch": 43,
                "velocity": 80,
                "duration": 0.15,
                "tempo": 120.0
            },
            {
                "pitch": 45,
                "velocity": 80,
                "duration": 0.1477,
                "tempo": 120.0
            },
            {
                "pitch": 45,
                "velocity": 80,
                "duration": 0.15,
                "tempo": 120.0
            },
            {
                "pitch": 43,
                "velocity": 80,
                "duration": 0.15,
                "tempo": 120.0
            },
            {
                "pitch": 45,
                "velocity": 80,
                "duration": 0.15,
                "tempo": 120.0
            },
            {
                "pitch": 43,
                "velocity": 80,
                "duration": 0.15,
                "tempo": 120.0
            },
            {
                "pitch": 45,
                "velocity": 80,
                "duration": 0.15,
                "tempo": 120.0
            },
            {
                "pitch": 45,
                "velocity": 80,
                "duration": 0.1477,
                "tempo": 120.0
            },
            {
                "pitch": 43,
                "velocity": 80,
                "duration": 0.15,
                "tempo": 120.0
            },
            {
                "pitch": 45,
                "velocity": 80,
                "duration": 0.15,
                "tempo": 120.0
            },
            {
                "pitch": 43,
                "velocity": 80,
                "duration": 0.15,
                "tempo": 120.0
            },
            {
                "pitch": 45,
                "velocity": 80,
                "duration": 0.1477,
                "tempo": 120.0
            },
            {
                "pitch": 45,
                "velocity": 80,
                "duration": 0.1477,
                "tempo": 120.0
            },
            {
                "pitch": 43,
                "velocity": 80,
                "duration": 0.1477,
                "tempo": 120.0
            },
            {
                "pitch": 38,
                "velocity": 80,
                "duration": 0.4523,
                "tempo": 120.0
            },
            {
                "pitch": 39,
                "velocity": 80,
                "duration": 0.45,
                "tempo": 120.0
            },
            {
                "pitch": 40,
                "velocity": 80,
                "duration": 0.15,
                "tempo": 120.0
            }
        ],
        "Electric Piano 1": [
            {
                "pitch": 60,
                "velocity": 80,
                "duration": 0.0977,
                "tempo": 120.0
            },
            {
                "pitch": 60,
                "velocity": 80,
                "duration": 0.1,
                "tempo": 120.0
            },
            {
                "pitch": 60,
                "velocity": 80,
                "duration": 0.3,
                "tempo": 120.0
            },
            {
                "pitch": 60,
                "velocity": 80,
                "duration": 0.15,
                "tempo": 120.0
            },
            {
                "pitch": 59,
                "velocity": 80,
                "duration": 0.3023,
                "tempo": 120.0
            },
            {
                "pitch": 59,
                "velocity": 80,
                "duration": 0.1523,
                "tempo": 120.0
            },
            {
                "pitch": 62,
                "velocity": 80,
                "duration": 0.3023,
                "tempo": 120.0
            },
            {
                "pitch": 60,
                "velocity": 80,
                "duration": 0.1477,
                "tempo": 120.0
            },
            {
                "pitch": 60,
                "velocity": 80,
                "duration": 0.4477,
                "tempo": 120.0
            },
            {
                "pitch": 60,
                "velocity": 80,
                "duration": 0.3,
                "tempo": 120.0
            },
            {
                "pitch": 60,
                "velocity": 80,
                "duration": 0.1477,
                "tempo": 120.0
            },
            {
                "pitch": 60,
                "velocity": 80,
                "duration": 0.15,
                "tempo": 120.0
            },
            {
                "pitch": 60,
                "velocity": 80,
                "duration": 0.3023,
                "tempo": 120.0
            },
            {
                "pitch": 60,
                "velocity": 80,
                "duration": 0.15,
                "tempo": 120.0
            },
            {
                "pitch": 59,
                "velocity": 80,
                "duration": 0.3,
                "tempo": 120.0
            },
            {
                "pitch": 59,
                "velocity": 80,
                "duration": 0.15,
                "tempo": 120.0
            },
            {
                "pitch": 62,
                "velocity": 80,
                "duration": 0.3023,
                "tempo": 120.0
            },
            {
                "pitch": 60,
                "velocity": 80,
                "duration": 0.15,
                "tempo": 120.0
            },
            {
                "pitch": 60,
                "velocity": 80,
                "duration": 0.4545,
                "tempo": 120.0
            },
            {
                "pitch": 60,
                "velocity": 80,
                "duration": 0.3023,
                "tempo": 120.0
            },
            {
                "pitch": 60,
                "velocity": 80,
                "duration": 0.15,
                "tempo": 120.0
            },
            {
                "pitch": 60,
                "velocity": 80,
                "duration": 0.15,
                "tempo": 120.0
            },
            {
                "pitch": 60,
                "velocity": 80,
                "duration": 0.3,
                "tempo": 120.0
            },
            {
                "pitch": 60,
                "velocity": 80,
                "duration": 0.1477,
                "tempo": 120.0
            },
            {
                "pitch": 59,
                "velocity": 80,
                "duration": 0.3,
                "tempo": 120.0
            },
            {
                "pitch": 59,
                "velocity": 80,
                "duration": 0.15,
                "tempo": 120.0
            },
            {
                "pitch": 62,
                "velocity": 80,
                "duration": 0.3023,
                "tempo": 120.0
            },
            {
                "pitch": 60,
                "velocity": 80,
                "duration": 0.1477,
                "tempo": 120.0
            },
            {
                "pitch": 60,
                "velocity": 80,
                "duration": 0.4477,
                "tempo": 120.0
            },
            {
                "pitch": 60,
                "velocity": 80,
                "duration": 0.3045,
                "tempo": 120.0
            },
            {
                "pitch": 60,
                "velocity": 80,
                "duration": 0.1523,
                "tempo": 120.0
            },
            {
                "pitch": 60,
                "velocity": 80,
                "duration": 0.1523,
                "tempo": 120.0
            },
            {
                "pitch": 60,
                "velocity": 80,
                "duration": 0.2977,
                "tempo": 120.0
            },
            {
                "pitch": 60,
                "velocity": 80,
                "duration": 0.1477,
                "tempo": 120.0
            },
            {
                "pitch": 59,
                "velocity": 80,
                "duration": 0.3,
                "tempo": 120.0
            },
            {
                "pitch": 59,
                "velocity": 80,
                "duration": 0.15,
                "tempo": 120.0
            },
            {
                "pitch": 62,
                "velocity": 80,
                "duration": 0.3,
                "tempo": 120.0
            },
            {
                "pitch": 60,
                "velocity": 80,
                "duration": 0.15,
                "tempo": 120.0
            },
            {
                "pitch": 60,
                "velocity": 80,
                "duration": 0.45,
                "tempo": 120.0
            },
            {
                "pitch": 60,
                "velocity": 80,
                "duration": 0.2977,
                "tempo": 120.0
            },
            {
                "pitch": 57,
                "velocity": 80,
                "duration": 0.1477,
                "tempo": 120.0
            },
            {
                "pitch": 59,
                "velocity": 80,
                "duration": 0.1477,
                "tempo": 120.0
            },
            {
                "pitch": 60,
                "velocity": 80,
                "duration": 0.1477,
                "tempo": 120.0
            },
            {
                "pitch": 62,
                "velocity": 80,
                "duration": 0.1477,
                "tempo": 120.0
            },
            {
                "pitch": 64,
                "velocity": 80,
                "duration": 0.1477,
                "tempo": 120.0
            },
            {
                "pitch": 65,
                "velocity": 80,
                "duration": 0.1477,
                "tempo": 120.0
            },
            {
                "pitch": 67,
                "velocity": 80,
                "duration": 0.15,
                "tempo": 120.0
            },
            {
                "pitch": 69,
                "velocity": 80,
                "duration": 0.3,
                "tempo": 120.0
            },
            {
                "pitch": 71,
                "velocity": 80,
                "duration": 0.15,
                "tempo": 120.0
            },
            {
                "pitch": 69,
                "velocity": 80,
                "duration": 0.1523,
                "tempo": 120.0
            },
            {
                "pitch": 64,
                "velocity": 80,
                "duration": 0.15,
                "tempo": 120.0
            },
            {
                "pitch": 69,
                "velocity": 80,
                "duration": 0.15,
                "tempo": 120.0
            },
            {
                "pitch": 64,
                "velocity": 80,
                "duration": 0.15,
                "tempo": 120.0
            },
            {
                "pitch": 62,
                "velocity": 80,
                "duration": 0.15,
                "tempo": 120.0
            },
            {
                "pitch": 64,
                "velocity": 80,
                "duration": 0.1477,
                "tempo": 120.0
            },
            {
                "pitch": 64,
                "velocity": 80,
                "duration": 0.1477,
                "tempo": 120.0
            },
            {
                "pitch": 71,
                "velocity": 80,
                "duration": 0.1477,
                "tempo": 120.0
            },
            {
                "pitch": 69,
                "velocity": 80,
                "duration": 0.1477,
                "tempo": 120.0
            },
            {
                "pitch": 64,
                "velocity": 80,
                "duration": 0.1477,
                "tempo": 120.0
            },
            {
                "pitch": 69,
                "velocity": 80,
                "duration": 0.1477,
                "tempo": 120.0
            },
            {
                "pitch": 64,
                "velocity": 80,
                "duration": 0.15,
                "tempo": 120.0
            },
            {
                "pitch": 62,
                "velocity": 80,
                "duration": 0.15,
                "tempo": 120.0
            },
            {
                "pitch": 64,
                "velocity": 80,
                "duration": 0.15,
                "tempo": 120.0
            },
            {
                "pitch": 62,
                "velocity": 80,
                "duration": 0.15,
                "tempo": 120.0
            },
            {
                "pitch": 69,
                "velocity": 80,
                "duration": 0.15,
                "tempo": 120.0
            },
            {
                "pitch": 67,
                "velocity": 80,
                "duration": 0.15,
                "tempo": 120.0
            },
            {
                "pitch": 65,
                "velocity": 80,
                "duration": 0.1477,
                "tempo": 120.0
            },
            {
                "pitch": 67,
                "velocity": 80,
                "duration": 0.1477,
                "tempo": 120.0
            },
            {
                "pitch": 65,
                "velocity": 80,
                "duration": 0.1477,
                "tempo": 120.0
            },
            {
                "pitch": 62,
                "velocity": 80,
                "duration": 0.15,
                "tempo": 120.0
            },
            {
                "pitch": 64,
                "velocity": 80,
                "duration": 0.15,
                "tempo": 120.0
            },
            {
                "pitch": 65,
                "velocity": 80,
                "duration": 0.1477,
                "tempo": 120.0
            },
            {
                "pitch": 64,
                "velocity": 80,
                "duration": 0.15,
                "tempo": 120.0
            },
            {
                "pitch": 62,
                "velocity": 80,
                "duration": 0.1523,
                "tempo": 120.0
            },
            {
                "pitch": 64,
                "velocity": 80,
                "duration": 0.1523,
                "tempo": 120.0
            },
            {
                "pitch": 62,
                "velocity": 80,
                "duration": 0.15,
                "tempo": 120.0
            },
            {
                "pitch": 60,
                "velocity": 80,
                "duration": 0.1523,
                "tempo": 120.0
            },
            {
                "pitch": 62,
                "velocity": 80,
                "duration": 0.1477,
                "tempo": 120.0
            },
            {
                "pitch": 64,
                "velocity": 80,
                "duration": 0.1477,
                "tempo": 120.0
            },
            {
                "pitch": 64,
                "velocity": 80,
                "duration": 0.2977,
                "tempo": 120.0
            },
            {
                "pitch": 59,
                "velocity": 80,
                "duration": 0.1477,
                "tempo": 120.0
            },
            {
                "pitch": 64,
                "velocity": 80,
                "duration": 0.3,
                "tempo": 120.0
            },
            {
                "pitch": 59,
                "velocity": 80,
                "duration": 0.15,
                "tempo": 120.0
            },
            {
                "pitch": 62,
                "velocity": 80,
                "duration": 0.3023,
                "tempo": 120.0
            },
            {
                "pitch": 64,
                "velocity": 80,
                "duration": 0.4523,
                "tempo": 120.0
            },
            {
                "pitch": 67,
                "velocity": 80,
                "duration": 0.4182,
                "tempo": 120.0
            },
            {
                "pitch": 67,
                "velocity": 80,
                "duration": 0.0159,
                "tempo": 120.0
            },
            {
                "pitch": 67,
                "velocity": 80,
                "duration": 0.0159,
                "tempo": 120.0
            },
            {
                "pitch": 66,
                "velocity": 80,
                "duration": 0.3023,
                "tempo": 120.0
            },
            {
                "pitch": 65,
                "velocity": 80,
                "duration": 0.4545,
                "tempo": 120.0
            },
            {
                "pitch": 60,
                "velocity": 80,
                "duration": 0.4545,
                "tempo": 120.0
            },
            {
                "pitch": 62,
                "velocity": 80,
                "duration": 0.2977,
                "tempo": 120.0
            },
            {
                "pitch": 64,
                "velocity": 80,
                "duration": 1.2068,
                "tempo": 120.0
            },
            {
                "pitch": 57,
                "velocity": 80,
                "duration": 0.15,
                "tempo": 120.0
            },
            {
                "pitch": 59,
                "velocity": 80,
                "duration": 0.15,
                "tempo": 120.0
            },
            {
                "pitch": 60,
                "velocity": 80,
                "duration": 0.15,
                "tempo": 120.0
            },
            {
                "pitch": 62,
                "velocity": 80,
                "duration": 0.15,
                "tempo": 120.0
            },
            {
                "pitch": 64,
                "velocity": 80,
                "duration": 0.15,
                "tempo": 120.0
            },
            {
                "pitch": 65,
                "velocity": 80,
                "duration": 0.15,
                "tempo": 120.0
            },
            {
                "pitch": 67,
                "velocity": 80,
                "duration": 0.15,
                "tempo": 120.0
            },
            {
                "pitch": 69,
                "velocity": 80,
                "duration": 0.3023,
                "tempo": 120.0
            },
            {
                "pitch": 71,
                "velocity": 80,
                "duration": 0.15,
                "tempo": 120.0
            },
            {
                "pitch": 69,
                "velocity": 80,
                "duration": 0.15,
                "tempo": 120.0
            },
            {
                "pitch": 64,
                "velocity": 80,
                "duration": 0.15,
                "tempo": 120.0
            },
            {
                "pitch": 69,
                "velocity": 80,
                "duration": 0.15,
                "tempo": 120.0
            },
            {
                "pitch": 64,
                "velocity": 80,
                "duration": 0.1477,
                "tempo": 120.0
            },
            {
                "pitch": 62,
                "velocity": 80,
                "duration": 0.15,
                "tempo": 120.0
            },
            {
                "pitch": 64,
                "velocity": 80,
                "duration": 0.1523,
                "tempo": 120.0
            },
            {
                "pitch": 64,
                "velocity": 80,
                "duration": 0.15,
                "tempo": 120.0
            },
            {
                "pitch": 71,
                "velocity": 80,
                "duration": 0.1523,
                "tempo": 120.0
            },
            {
                "pitch": 69,
                "velocity": 80,
                "duration": 0.1523,
                "tempo": 120.0
            },
            {
                "pitch": 64,
                "velocity": 80,
                "duration": 0.15,
                "tempo": 120.0
            },
            {
                "pitch": 69,
                "velocity": 80,
                "duration": 0.15,
                "tempo": 120.0
            },
            {
                "pitch": 64,
                "velocity": 80,
                "duration": 0.15,
                "tempo": 120.0
            },
            {
                "pitch": 62,
                "velocity": 80,
                "duration": 0.1523,
                "tempo": 120.0
            },
            {
                "pitch": 64,
                "velocity": 80,
                "duration": 0.15,
                "tempo": 120.0
            },
            {
                "pitch": 62,
                "velocity": 80,
                "duration": 0.15,
                "tempo": 120.0
            },
            {
                "pitch": 69,
                "velocity": 80,
                "duration": 0.15,
                "tempo": 120.0
            },
            {
                "pitch": 67,
                "velocity": 80,
                "duration": 0.15,
                "tempo": 120.0
            },
            {
                "pitch": 65,
                "velocity": 80,
                "duration": 0.1477,
                "tempo": 120.0
            },
            {
                "pitch": 67,
                "velocity": 80,
                "duration": 0.1477,
                "tempo": 120.0
            },
            {
                "pitch": 65,
                "velocity": 80,
                "duration": 0.1477,
                "tempo": 120.0
            },
            {
                "pitch": 62,
                "velocity": 80,
                "duration": 0.15,
                "tempo": 120.0
            },
            {
                "pitch": 64,
                "velocity": 80,
                "duration": 0.1523,
                "tempo": 120.0
            },
            {
                "pitch": 65,
                "velocity": 80,
                "duration": 0.15,
                "tempo": 120.0
            },
            {
                "pitch": 64,
                "velocity": 80,
                "duration": 0.15,
                "tempo": 120.0
            },
            {
                "pitch": 62,
                "velocity": 80,
                "duration": 0.1477,
                "tempo": 120.0
            },
            {
                "pitch": 64,
                "velocity": 80,
                "duration": 0.1477,
                "tempo": 120.0
            },
            {
                "pitch": 62,
                "velocity": 80,
                "duration": 0.1477,
                "tempo": 120.0
            },
            {
                "pitch": 60,
                "velocity": 80,
                "duration": 0.1477,
                "tempo": 120.0
            },
            {
                "pitch": 62,
                "velocity": 80,
                "duration": 0.15,
                "tempo": 120.0
            },
            {
                "pitch": 64,
                "velocity": 80,
                "duration": 0.15,
                "tempo": 120.0
            },
            {
                "pitch": 64,
                "velocity": 80,
                "duration": 0.3,
                "tempo": 120.0
            },
            {
                "pitch": 59,
                "velocity": 80,
                "duration": 0.15,
                "tempo": 120.0
            },
            {
                "pitch": 64,
                "velocity": 80,
                "duration": 0.3023,
                "tempo": 120.0
            },
            {
                "pitch": 59,
                "velocity": 80,
                "duration": 0.1523,
                "tempo": 120.0
            },
            {
                "pitch": 62,
                "velocity": 80,
                "duration": 0.3,
                "tempo": 120.0
            },
            {
                "pitch": 64,
                "velocity": 80,
                "duration": 0.4523,
                "tempo": 120.0
            },
            {
                "pitch": 67,
                "velocity": 80,
                "duration": 0.3545,
                "tempo": 120.0
            },
            {
                "pitch": 79,
                "velocity": 80,
                "duration": 10.825,
                "tempo": 120.0
            },
            {
                "pitch": 55,
                "velocity": 80,
                "duration": 10.825,
                "tempo": 120.0
            },
            {
                "pitch": 67,
                "velocity": 80,
                "duration": 0.0159,
                "tempo": 120.0
            },
            {
                "pitch": 67,
                "velocity": 80,
                "duration": 0.0841,
                "tempo": 120.0
            },
            {
                "pitch": 66,
                "velocity": 80,
                "duration": 0.3,
                "tempo": 120.0
            },
            {
                "pitch": 65,
                "velocity": 80,
                "duration": 0.45,
                "tempo": 120.0
            },
            {
                "pitch": 60,
                "velocity": 80,
                "duration": 0.4523,
                "tempo": 120.0
            },
            {
                "pitch": 62,
                "velocity": 80,
                "duration": 0.3023,
                "tempo": 120.0
            },
            {
                "pitch": 64,
                "velocity": 80,
                "duration": 1.2159,
                "tempo": 120.0
            },
            {
                "pitch": 81,
                "velocity": 127,
                "duration": 1.2091,
                "tempo": 120.0
            },
            {
                "pitch": 76,
                "velocity": 127,
                "duration": 1.2091,
                "tempo": 120.0
            },
            {
                "pitch": 79,
                "velocity": 80,
                "duration": 5.6682,
                "tempo": 120.0
            },
            {
                "pitch": 79,
                "velocity": 127,
                "duration": 0.4182,
                "tempo": 120.0
            },
            {
                "pitch": 79,
                "velocity": 127,
                "duration": 0.0159,
                "tempo": 120.0
            },
            {
                "pitch": 79,
                "velocity": 127,
                "duration": 0.1523,
                "tempo": 120.0
            },
            {
                "pitch": 91,
                "velocity": 127,
                "duration": 0.1682,
                "tempo": 120.0
            },
            {
                "pitch": 79,
                "velocity": 127,
                "duration": 0.0159,
                "tempo": 120.0
            },
            {
                "pitch": 81,
                "velocity": 127,
                "duration": 0.6045,
                "tempo": 120.0
            },
            {
                "pitch": 83,
                "velocity": 127,
                "duration": 0.6045,
                "tempo": 120.0
            },
            {
                "pitch": 91,
                "velocity": 127,
                "duration": 1.6864,
                "tempo": 120.0
            },
            {
                "pitch": 91,
                "velocity": 127,
                "duration": 0.4545,
                "tempo": 120.0
            },
            {
                "pitch": 91,
                "velocity": 127,
                "duration": 0.0159,
                "tempo": 120.0
            },
            {
                "pitch": 91,
                "velocity": 127,
                "duration": 0.1341,
                "tempo": 120.0
            },
            {
                "pitch": 91,
                "velocity": 127,
                "duration": 0.3523,
                "tempo": 120.0
            },
            {
                "pitch": 103,
                "velocity": 127,
                "duration": 0.5045,
                "tempo": 120.0
            },
            {
                "pitch": 79,
                "velocity": 127,
                "duration": 0.5045,
                "tempo": 120.0
            },
            {
                "pitch": 91,
                "velocity": 127,
                "duration": 0.0159,
                "tempo": 120.0
            },
            {
                "pitch": 91,
                "velocity": 127,
                "duration": 0.15,
                "tempo": 120.0
            },
            {
                "pitch": 103,
                "velocity": 127,
                "duration": 0.1682,
                "tempo": 120.0
            },
            {
                "pitch": 103,
                "velocity": 127,
                "duration": 0.0023,
                "tempo": 120.0
            },
            {
                "pitch": 79,
                "velocity": 127,
                "duration": 0.1682,
                "tempo": 120.0
            },
            {
                "pitch": 91,
                "velocity": 127,
                "duration": 0.0159,
                "tempo": 120.0
            },
            {
                "pitch": 91,
                "velocity": 127,
                "duration": 0.15,
                "tempo": 120.0
            },
            {
                "pitch": 79,
                "velocity": 127,
                "duration": 0.1659,
                "tempo": 120.0
            },
            {
                "pitch": 91,
                "velocity": 127,
                "duration": 0.0159,
                "tempo": 120.0
            },
            {
                "pitch": 91,
                "velocity": 127,
                "duration": 0.15,
                "tempo": 120.0
            },
            {
                "pitch": 103,
                "velocity": 127,
                "duration": 0.1659,
                "tempo": 120.0
            },
            {
                "pitch": 79,
                "velocity": 127,
                "duration": 0.1682,
                "tempo": 120.0
            },
            {
                "pitch": 91,
                "velocity": 127,
                "duration": 0.0182,
                "tempo": 120.0
            },
            {
                "pitch": 91,
                "velocity": 127,
                "duration": 0.0318,
                "tempo": 120.0
            },
            {
                "pitch": 89,
                "velocity": 127,
                "duration": 0.15,
                "tempo": 120.0
            },
            {
                "pitch": 88,
                "velocity": 127,
                "duration": 0.1523,
                "tempo": 120.0
            },
            {
                "pitch": 89,
                "velocity": 127,
                "duration": 1.2136,
                "tempo": 120.0
            },
            {
                "pitch": 88,
                "velocity": 127,
                "duration": 0.6091,
                "tempo": 120.0
            },
            {
                "pitch": 86,
                "velocity": 127,
                "duration": 0.6068,
                "tempo": 120.0
            },
            {
                "pitch": 84,
                "velocity": 127,
                "duration": 0.6023,
                "tempo": 120.0
            },
            {
                "pitch": 83,
                "velocity": 127,
                "duration": 0.6023,
                "tempo": 120.0
            },
            {
                "pitch": 81,
                "velocity": 127,
                "duration": 1.2136,
                "tempo": 120.0
            },
            {
                "pitch": 76,
                "velocity": 127,
                "duration": 1.2091,
                "tempo": 120.0
            },
            {
                "pitch": 79,
                "velocity": 127,
                "duration": 6.7182,
                "tempo": 120.0
            },
            {
                "pitch": 79,
                "velocity": 127,
                "duration": 0.3159,
                "tempo": 120.0
            },
            {
                "pitch": 67,
                "velocity": 127,
                "duration": 9.5977,
                "tempo": 120.0
            },
            {
                "pitch": 79,
                "velocity": 127,
                "duration": 0.0182,
                "tempo": 120.0
            },
            {
                "pitch": 79,
                "velocity": 127,
                "duration": 0.15,
                "tempo": 120.0
            },
            {
                "pitch": 91,
                "velocity": 127,
                "duration": 0.1705,
                "tempo": 120.0
            },
            {
                "pitch": 91,
                "velocity": 127,
                "duration": 0.0023,
                "tempo": 120.0
            },
            {
                "pitch": 67,
                "velocity": 127,
                "duration": 0.1682,
                "tempo": 120.0
            },
            {
                "pitch": 79,
                "velocity": 127,
                "duration": 0.0159,
                "tempo": 120.0
            },
            {
                "pitch": 79,
                "velocity": 127,
                "duration": 0.1,
                "tempo": 120.0
            },
            {
                "pitch": 81,
                "velocity": 127,
                "duration": 0.6045,
                "tempo": 120.0
            },
            {
                "pitch": 83,
                "velocity": 127,
                "duration": 0.6045,
                "tempo": 120.0
            },
            {
                "pitch": 91,
                "velocity": 127,
                "duration": 0.3523,
                "tempo": 120.0
            },
            {
                "pitch": 103,
                "velocity": 127,
                "duration": 8.5909,
                "tempo": 120.0
            },
            {
                "pitch": 91,
                "velocity": 127,
                "duration": 0.0182,
                "tempo": 120.0
            },
            {
                "pitch": 91,
                "velocity": 127,
                "duration": 0.15,
                "tempo": 120.0
            },
            {
                "pitch": 103,
                "velocity": 127,
                "duration": 0.1682,
                "tempo": 120.0
            },
            {
                "pitch": 79,
                "velocity": 127,
                "duration": 0.1682,
                "tempo": 120.0
            },
            {
                "pitch": 91,
                "velocity": 127,
                "duration": 0.0182,
                "tempo": 120.0
            },
            {
                "pitch": 91,
                "velocity": 127,
                "duration": 0.0659,
                "tempo": 120.0
            },
            {
                "pitch": 91,
                "velocity": 127,
                "duration": 0.4182,
                "tempo": 120.0
            },
            {
                "pitch": 103,
                "velocity": 127,
                "duration": 0.5045,
                "tempo": 120.0
            },
            {
                "pitch": 79,
                "velocity": 127,
                "duration": 0.5045,
                "tempo": 120.0
            },
            {
                "pitch": 91,
                "velocity": 127,
                "duration": 0.0182,
                "tempo": 120.0
            },
            {
                "pitch": 91,
                "velocity": 127,
                "duration": 0.15,
                "tempo": 120.0
            },
            {
                "pitch": 103,
                "velocity": 127,
                "duration": 0.1682,
                "tempo": 120.0
            },
            {
                "pitch": 79,
                "velocity": 127,
                "duration": 0.1659,
                "tempo": 120.0
            },
            {
                "pitch": 91,
                "velocity": 127,
                "duration": 0.0159,
                "tempo": 120.0
            },
            {
                "pitch": 91,
                "velocity": 127,
                "duration": 0.15,
                "tempo": 120.0
            },
            {
                "pitch": 103,
                "velocity": 127,
                "duration": 0.1659,
                "tempo": 120.0
            },
            {
                "pitch": 91,
                "velocity": 127,
                "duration": 0.0159,
                "tempo": 120.0
            },
            {
                "pitch": 79,
                "velocity": 127,
                "duration": 0.1682,
                "tempo": 120.0
            },
            {
                "pitch": 79,
                "velocity": 127,
                "duration": 0.0023,
                "tempo": 120.0
            },
            {
                "pitch": 91,
                "velocity": 127,
                "duration": 0.1318,
                "tempo": 120.0
            },
            {
                "pitch": 89,
                "velocity": 127,
                "duration": 0.15,
                "tempo": 120.0
            },
            {
                "pitch": 88,
                "velocity": 127,
                "duration": 0.1523,
                "tempo": 120.0
            },
            {
                "pitch": 89,
                "velocity": 127,
                "duration": 1.2182,
                "tempo": 120.0
            },
            {
                "pitch": 88,
                "velocity": 127,
                "duration": 0.6045,
                "tempo": 120.0
            },
            {
                "pitch": 91,
                "velocity": 127,
                "duration": 0.4205,
                "tempo": 120.0
            },
            {
                "pitch": 103,
                "velocity": 127,
                "duration": 2.7023,
                "tempo": 120.0
            },
            {
                "pitch": 91,
                "velocity": 127,
                "duration": 0.0159,
                "tempo": 120.0
            },
            {
                "pitch": 91,
                "velocity": 127,
                "duration": 0.1523,
                "tempo": 120.0
            },
            {
                "pitch": 103,
                "velocity": 127,
                "duration": 0.1682,
                "tempo": 120.0
            },
            {
                "pitch": 91,
                "velocity": 127,
                "duration": 0.0159,
                "tempo": 120.0
            },
            {
                "pitch": 96,
                "velocity": 127,
                "duration": 0.6045,
                "tempo": 120.0
            },
            {
                "pitch": 95,
                "velocity": 127,
                "duration": 0.6023,
                "tempo": 120.0
            },
            {
                "pitch": 69,
                "velocity": 80,
                "duration": 0.1477,
                "tempo": 120.0
            },
            {
                "pitch": 65,
                "velocity": 80,
                "duration": 0.15,
                "tempo": 120.0
            },
            {
                "pitch": 62,
                "velocity": 80,
                "duration": 0.15,
                "tempo": 120.0
            },
            {
                "pitch": 69,
                "velocity": 80,
                "duration": 0.1523,
                "tempo": 120.0
            },
            {
                "pitch": 65,
                "velocity": 80,
                "duration": 0.15,
                "tempo": 120.0
            },
            {
                "pitch": 62,
                "velocity": 80,
                "duration": 0.15,
                "tempo": 120.0
            },
            {
                "pitch": 69,
                "velocity": 80,
                "duration": 0.15,
                "tempo": 120.0
            },
            {
                "pitch": 65,
                "velocity": 80,
                "duration": 0.1523,
                "tempo": 120.0
            },
            {
                "pitch": 62,
                "velocity": 80,
                "duration": 0.15,
                "tempo": 120.0
            },
            {
                "pitch": 69,
                "velocity": 80,
                "duration": 0.15,
                "tempo": 120.0
            },
            {
                "pitch": 65,
                "velocity": 80,
                "duration": 0.15,
                "tempo": 120.0
            },
            {
                "pitch": 62,
                "velocity": 80,
                "duration": 0.1523,
                "tempo": 120.0
            },
            {
                "pitch": 69,
                "velocity": 80,
                "duration": 0.15,
                "tempo": 120.0
            },
            {
                "pitch": 65,
                "velocity": 80,
                "duration": 0.15,
                "tempo": 120.0
            },
            {
                "pitch": 62,
                "velocity": 80,
                "duration": 0.15,
                "tempo": 120.0
            },
            {
                "pitch": 65,
                "velocity": 80,
                "duration": 0.1523,
                "tempo": 120.0
            },
            {
                "pitch": 67,
                "velocity": 127,
                "duration": 9.3477,
                "tempo": 120.0
            },
            {
                "pitch": 67,
                "velocity": 80,
                "duration": 0.15,
                "tempo": 120.0
            },
            {
                "pitch": 64,
                "velocity": 80,
                "duration": 0.15,
                "tempo": 120.0
            },
            {
                "pitch": 60,
                "velocity": 80,
                "duration": 0.1477,
                "tempo": 120.0
            },
            {
                "pitch": 67,
                "velocity": 80,
                "duration": 0.1477,
                "tempo": 120.0
            },
            {
                "pitch": 64,
                "velocity": 80,
                "duration": 0.1477,
                "tempo": 120.0
            },
            {
                "pitch": 60,
                "velocity": 80,
                "duration": 0.1477,
                "tempo": 120.0
            },
            {
                "pitch": 67,
                "velocity": 80,
                "duration": 0.1523,
                "tempo": 120.0
            },
            {
                "pitch": 64,
                "velocity": 80,
                "duration": 0.1523,
                "tempo": 120.0
            },
            {
                "pitch": 60,
                "velocity": 80,
                "duration": 0.1523,
                "tempo": 120.0
            },
            {
                "pitch": 67,
                "velocity": 80,
                "duration": 0.1523,
                "tempo": 120.0
            },
            {
                "pitch": 64,
                "velocity": 80,
                "duration": 0.15,
                "tempo": 120.0
            },
            {
                "pitch": 60,
                "velocity": 80,
                "duration": 0.1523,
                "tempo": 120.0
            },
            {
                "pitch": 67,
                "velocity": 80,
                "duration": 0.15,
                "tempo": 120.0
            },
            {
                "pitch": 64,
                "velocity": 80,
                "duration": 0.15,
                "tempo": 120.0
            },
            {
                "pitch": 67,
                "velocity": 80,
                "duration": 0.15,
                "tempo": 120.0
            },
            {
                "pitch": 69,
                "velocity": 80,
                "duration": 0.1523,
                "tempo": 120.0
            },
            {
                "pitch": 69,
                "velocity": 80,
                "duration": 0.15,
                "tempo": 120.0
            },
            {
                "pitch": 65,
                "velocity": 80,
                "duration": 0.15,
                "tempo": 120.0
            },
            {
                "pitch": 62,
                "velocity": 80,
                "duration": 0.15,
                "tempo": 120.0
            },
            {
                "pitch": 69,
                "velocity": 80,
                "duration": 0.1523,
                "tempo": 120.0
            },
            {
                "pitch": 65,
                "velocity": 80,
                "duration": 0.15,
                "tempo": 120.0
            },
            {
                "pitch": 62,
                "velocity": 80,
                "duration": 0.15,
                "tempo": 120.0
            },
            {
                "pitch": 69,
                "velocity": 80,
                "duration": 0.15,
                "tempo": 120.0
            },
            {
                "pitch": 65,
                "velocity": 80,
                "duration": 0.1523,
                "tempo": 120.0
            },
            {
                "pitch": 62,
                "velocity": 80,
                "duration": 0.15,
                "tempo": 120.0
            },
            {
                "pitch": 69,
                "velocity": 80,
                "duration": 0.15,
                "tempo": 120.0
            },
            {
                "pitch": 65,
                "velocity": 80,
                "duration": 0.1477,
                "tempo": 120.0
            },
            {
                "pitch": 62,
                "velocity": 80,
                "duration": 0.1477,
                "tempo": 120.0
            },
            {
                "pitch": 69,
                "velocity": 80,
                "duration": 0.1477,
                "tempo": 120.0
            },
            {
                "pitch": 65,
                "velocity": 80,
                "duration": 0.15,
                "tempo": 120.0
            },
            {
                "pitch": 62,
                "velocity": 80,
                "duration": 0.15,
                "tempo": 120.0
            },
            {
                "pitch": 65,
                "velocity": 80,
                "duration": 0.15,
                "tempo": 120.0
            },
            {
                "pitch": 57,
                "velocity": 64,
                "duration": 0.15,
                "tempo": 120.0
            },
            {
                "pitch": 55,
                "velocity": 80,
                "duration": 30.3909,
                "tempo": 120.0
            },
            {
                "pitch": 55,
                "velocity": 64,
                "duration": 0.1523,
                "tempo": 120.0
            },
            {
                "pitch": 57,
                "velocity": 64,
                "duration": 0.15,
                "tempo": 120.0
            },
            {
                "pitch": 55,
                "velocity": 64,
                "duration": 0.15,
                "tempo": 120.0
            },
            {
                "pitch": 57,
                "velocity": 64,
                "duration": 0.15,
                "tempo": 120.0
            },
            {
                "pitch": 57,
                "velocity": 64,
                "duration": 0.1523,
                "tempo": 120.0
            },
            {
                "pitch": 55,
                "velocity": 64,
                "duration": 0.15,
                "tempo": 120.0
            },
            {
                "pitch": 57,
                "velocity": 64,
                "duration": 0.15,
                "tempo": 120.0
            },
            {
                "pitch": 55,
                "velocity": 64,
                "duration": 0.15,
                "tempo": 120.0
            },
            {
                "pitch": 57,
                "velocity": 64,
                "duration": 0.1523,
                "tempo": 120.0
            },
            {
                "pitch": 57,
                "velocity": 64,
                "duration": 0.15,
                "tempo": 120.0
            },
            {
                "pitch": 55,
                "velocity": 64,
                "duration": 0.1477,
                "tempo": 120.0
            },
            {
                "pitch": 57,
                "velocity": 64,
                "duration": 0.1523,
                "tempo": 120.0
            },
            {
                "pitch": 55,
                "velocity": 64,
                "duration": 0.1523,
                "tempo": 120.0
            },
            {
                "pitch": 57,
                "velocity": 64,
                "duration": 0.15,
                "tempo": 120.0
            },
            {
                "pitch": 57,
                "velocity": 64,
                "duration": 0.1477,
                "tempo": 120.0
            },
            {
                "pitch": 55,
                "velocity": 64,
                "duration": 0.15,
                "tempo": 120.0
            }
        ],
        "Acoustic Guitar (nylon)": [
            {
                "pitch": 60,
                "velocity": 80,
                "duration": 0.1477,
                "tempo": 120.0
            },
            {
                "pitch": 64,
                "velocity": 80,
                "duration": 0.15,
                "tempo": 120.0
            },
            {
                "pitch": 69,
                "velocity": 80,
                "duration": 0.15,
                "tempo": 120.0
            },
            {
                "pitch": 60,
                "velocity": 80,
                "duration": 0.15,
                "tempo": 120.0
            },
            {
                "pitch": 64,
                "velocity": 80,
                "duration": 0.1477,
                "tempo": 120.0
            },
            {
                "pitch": 69,
                "velocity": 80,
                "duration": 0.1477,
                "tempo": 120.0
            },
            {
                "pitch": 60,
                "velocity": 80,
                "duration": 0.1477,
                "tempo": 120.0
            },
            {
                "pitch": 64,
                "velocity": 80,
                "duration": 0.1477,
                "tempo": 120.0
            },
            {
                "pitch": 60,
                "velocity": 80,
                "duration": 0.1477,
                "tempo": 120.0
            },
            {
                "pitch": 64,
                "velocity": 80,
                "duration": 0.1477,
                "tempo": 120.0
            },
            {
                "pitch": 69,
                "velocity": 80,
                "duration": 0.15,
                "tempo": 120.0
            },
            {
                "pitch": 60,
                "velocity": 80,
                "duration": 0.15,
                "tempo": 120.0
            },
            {
                "pitch": 64,
                "velocity": 80,
                "duration": 0.15,
                "tempo": 120.0
            },
            {
                "pitch": 69,
                "velocity": 80,
                "duration": 0.1477,
                "tempo": 120.0
            },
            {
                "pitch": 60,
                "velocity": 80,
                "duration": 0.15,
                "tempo": 120.0
            },
            {
                "pitch": 64,
                "velocity": 80,
                "duration": 0.15,
                "tempo": 120.0
            },
            {
                "pitch": 60,
                "velocity": 80,
                "duration": 0.1477,
                "tempo": 120.0
            },
            {
                "pitch": 64,
                "velocity": 80,
                "duration": 0.15,
                "tempo": 120.0
            },
            {
                "pitch": 69,
                "velocity": 80,
                "duration": 0.1477,
                "tempo": 120.0
            },
            {
                "pitch": 60,
                "velocity": 80,
                "duration": 0.1477,
                "tempo": 120.0
            },
            {
                "pitch": 64,
                "velocity": 80,
                "duration": 0.1477,
                "tempo": 120.0
            },
            {
                "pitch": 69,
                "velocity": 80,
                "duration": 0.1477,
                "tempo": 120.0
            },
            {
                "pitch": 60,
                "velocity": 80,
                "duration": 0.1477,
                "tempo": 120.0
            },
            {
                "pitch": 64,
                "velocity": 80,
                "duration": 0.15,
                "tempo": 120.0
            },
            {
                "pitch": 59,
                "velocity": 80,
                "duration": 0.1477,
                "tempo": 120.0
            },
            {
                "pitch": 62,
                "velocity": 80,
                "duration": 0.15,
                "tempo": 120.0
            },
            {
                "pitch": 67,
                "velocity": 80,
                "duration": 0.15,
                "tempo": 120.0
            },
            {
                "pitch": 59,
                "velocity": 80,
                "duration": 0.15,
                "tempo": 120.0
            },
            {
                "pitch": 62,
                "velocity": 80,
                "duration": 0.15,
                "tempo": 120.0
            },
            {
                "pitch": 67,
                "velocity": 80,
                "duration": 0.15,
                "tempo": 120.0
            },
            {
                "pitch": 59,
                "velocity": 80,
                "duration": 0.15,
                "tempo": 120.0
            },
            {
                "pitch": 62,
                "velocity": 80,
                "duration": 0.1523,
                "tempo": 120.0
            },
            {
                "pitch": 57,
                "velocity": 80,
                "duration": 0.15,
                "tempo": 120.0
            },
            {
                "pitch": 60,
                "velocity": 80,
                "duration": 0.15,
                "tempo": 120.0
            },
            {
                "pitch": 65,
                "velocity": 80,
                "duration": 0.1523,
                "tempo": 120.0
            },
            {
                "pitch": 57,
                "velocity": 80,
                "duration": 0.1523,
                "tempo": 120.0
            },
            {
                "pitch": 60,
                "velocity": 80,
                "duration": 0.1523,
                "tempo": 120.0
            },
            {
                "pitch": 65,
                "velocity": 80,
                "duration": 0.1523,
                "tempo": 120.0
            },
            {
                "pitch": 57,
                "velocity": 80,
                "duration": 0.15,
                "tempo": 120.0
            },
            {
                "pitch": 60,
                "velocity": 80,
                "duration": 0.15,
                "tempo": 120.0
            },
            {
                "pitch": 59,
                "velocity": 80,
                "duration": 0.1477,
                "tempo": 120.0
            },
            {
                "pitch": 64,
                "velocity": 80,
                "duration": 0.1477,
                "tempo": 120.0
            },
            {
                "pitch": 67,
                "velocity": 80,
                "duration": 0.1477,
                "tempo": 120.0
            },
            {
                "pitch": 59,
                "velocity": 80,
                "duration": 0.1477,
                "tempo": 120.0
            },
            {
                "pitch": 64,
                "velocity": 80,
                "duration": 0.1477,
                "tempo": 120.0
            },
            {
                "pitch": 67,
                "velocity": 80,
                "duration": 0.1477,
                "tempo": 120.0
            },
            {
                "pitch": 59,
                "velocity": 80,
                "duration": 0.15,
                "tempo": 120.0
            },
            {
                "pitch": 64,
                "velocity": 80,
                "duration": 0.15,
                "tempo": 120.0
            },
            {
                "pitch": 59,
                "velocity": 80,
                "duration": 0.1477,
                "tempo": 120.0
            },
            {
                "pitch": 64,
                "velocity": 80,
                "duration": 0.15,
                "tempo": 120.0
            },
            {
                "pitch": 67,
                "velocity": 80,
                "duration": 0.1477,
                "tempo": 120.0
            },
            {
                "pitch": 59,
                "velocity": 80,
                "duration": 0.1477,
                "tempo": 120.0
            },
            {
                "pitch": 64,
                "velocity": 80,
                "duration": 0.1477,
                "tempo": 120.0
            },
            {
                "pitch": 67,
                "velocity": 80,
                "duration": 0.15,
                "tempo": 120.0
            },
            {
                "pitch": 59,
                "velocity": 80,
                "duration": 0.15,
                "tempo": 120.0
            },
            {
                "pitch": 64,
                "velocity": 80,
                "duration": 0.15,
                "tempo": 120.0
            },
            {
                "pitch": 59,
                "velocity": 80,
                "duration": 0.15,
                "tempo": 120.0
            },
            {
                "pitch": 64,
                "velocity": 80,
                "duration": 0.15,
                "tempo": 120.0
            },
            {
                "pitch": 67,
                "velocity": 80,
                "duration": 0.15,
                "tempo": 120.0
            },
            {
                "pitch": 59,
                "velocity": 80,
                "duration": 0.15,
                "tempo": 120.0
            },
            {
                "pitch": 64,
                "velocity": 80,
                "duration": 0.15,
                "tempo": 120.0
            },
            {
                "pitch": 67,
                "velocity": 80,
                "duration": 0.1523,
                "tempo": 120.0
            },
            {
                "pitch": 59,
                "velocity": 80,
                "duration": 0.15,
                "tempo": 120.0
            },
            {
                "pitch": 64,
                "velocity": 80,
                "duration": 0.15,
                "tempo": 120.0
            },
            {
                "pitch": 59,
                "velocity": 80,
                "duration": 0.1477,
                "tempo": 120.0
            },
            {
                "pitch": 64,
                "velocity": 80,
                "duration": 0.1477,
                "tempo": 120.0
            },
            {
                "pitch": 67,
                "velocity": 80,
                "duration": 0.15,
                "tempo": 120.0
            },
            {
                "pitch": 59,
                "velocity": 80,
                "duration": 0.15,
                "tempo": 120.0
            },
            {
                "pitch": 64,
                "velocity": 80,
                "duration": 0.15,
                "tempo": 120.0
            },
            {
                "pitch": 67,
                "velocity": 80,
                "duration": 0.15,
                "tempo": 120.0
            },
            {
                "pitch": 59,
                "velocity": 80,
                "duration": 0.1477,
                "tempo": 120.0
            },
            {
                "pitch": 64,
                "velocity": 80,
                "duration": 0.1477,
                "tempo": 120.0
            },
            {
                "pitch": 60,
                "velocity": 80,
                "duration": 0.1477,
                "tempo": 120.0
            },
            {
                "pitch": 64,
                "velocity": 80,
                "duration": 0.1477,
                "tempo": 120.0
            },
            {
                "pitch": 69,
                "velocity": 80,
                "duration": 0.15,
                "tempo": 120.0
            },
            {
                "pitch": 60,
                "velocity": 80,
                "duration": 0.15,
                "tempo": 120.0
            },
            {
                "pitch": 64,
                "velocity": 80,
                "duration": 0.15,
                "tempo": 120.0
            },
            {
                "pitch": 69,
                "velocity": 80,
                "duration": 0.15,
                "tempo": 120.0
            },
            {
                "pitch": 60,
                "velocity": 80,
                "duration": 0.15,
                "tempo": 120.0
            },
            {
                "pitch": 64,
                "velocity": 80,
                "duration": 0.15,
                "tempo": 120.0
            },
            {
                "pitch": 60,
                "velocity": 80,
                "duration": 0.15,
                "tempo": 120.0
            },
            {
                "pitch": 64,
                "velocity": 80,
                "duration": 0.15,
                "tempo": 120.0
            },
            {
                "pitch": 69,
                "velocity": 80,
                "duration": 0.1477,
                "tempo": 120.0
            },
            {
                "pitch": 60,
                "velocity": 80,
                "duration": 0.1477,
                "tempo": 120.0
            },
            {
                "pitch": 64,
                "velocity": 80,
                "duration": 0.15,
                "tempo": 120.0
            },
            {
                "pitch": 69,
                "velocity": 80,
                "duration": 0.15,
                "tempo": 120.0
            },
            {
                "pitch": 60,
                "velocity": 80,
                "duration": 0.1523,
                "tempo": 120.0
            },
            {
                "pitch": 64,
                "velocity": 80,
                "duration": 0.1523,
                "tempo": 120.0
            },
            {
                "pitch": 60,
                "velocity": 80,
                "duration": 0.15,
                "tempo": 120.0
            },
            {
                "pitch": 64,
                "velocity": 80,
                "duration": 0.15,
                "tempo": 120.0
            },
            {
                "pitch": 69,
                "velocity": 80,
                "duration": 0.15,
                "tempo": 120.0
            },
            {
                "pitch": 60,
                "velocity": 80,
                "duration": 0.15,
                "tempo": 120.0
            },
            {
                "pitch": 64,
                "velocity": 80,
                "duration": 0.15,
                "tempo": 120.0
            },
            {
                "pitch": 69,
                "velocity": 80,
                "duration": 0.15,
                "tempo": 120.0
            },
            {
                "pitch": 60,
                "velocity": 80,
                "duration": 0.15,
                "tempo": 120.0
            },
            {
                "pitch": 64,
                "velocity": 80,
                "duration": 0.15,
                "tempo": 120.0
            },
            {
                "pitch": 59,
                "velocity": 80,
                "duration": 0.15,
                "tempo": 120.0
            },
            {
                "pitch": 62,
                "velocity": 80,
                "duration": 0.1477,
                "tempo": 120.0
            },
            {
                "pitch": 67,
                "velocity": 80,
                "duration": 0.15,
                "tempo": 120.0
            },
            {
                "pitch": 59,
                "velocity": 80,
                "duration": 0.15,
                "tempo": 120.0
            },
            {
                "pitch": 62,
                "velocity": 80,
                "duration": 0.15,
                "tempo": 120.0
            },
            {
                "pitch": 67,
                "velocity": 80,
                "duration": 0.15,
                "tempo": 120.0
            },
            {
                "pitch": 59,
                "velocity": 80,
                "duration": 0.1477,
                "tempo": 120.0
            },
            {
                "pitch": 62,
                "velocity": 80,
                "duration": 0.15,
                "tempo": 120.0
            },
            {
                "pitch": 57,
                "velocity": 80,
                "duration": 0.15,
                "tempo": 120.0
            },
            {
                "pitch": 60,
                "velocity": 80,
                "duration": 0.15,
                "tempo": 120.0
            },
            {
                "pitch": 65,
                "velocity": 80,
                "duration": 0.15,
                "tempo": 120.0
            },
            {
                "pitch": 57,
                "velocity": 80,
                "duration": 0.1477,
                "tempo": 120.0
            },
            {
                "pitch": 60,
                "velocity": 80,
                "duration": 0.1477,
                "tempo": 120.0
            },
            {
                "pitch": 65,
                "velocity": 80,
                "duration": 0.1477,
                "tempo": 120.0
            },
            {
                "pitch": 57,
                "velocity": 80,
                "duration": 0.15,
                "tempo": 120.0
            },
            {
                "pitch": 60,
                "velocity": 80,
                "duration": 0.15,
                "tempo": 120.0
            },
            {
                "pitch": 59,
                "velocity": 80,
                "duration": 0.1477,
                "tempo": 120.0
            },
            {
                "pitch": 64,
                "velocity": 80,
                "duration": 0.15,
                "tempo": 120.0
            },
            {
                "pitch": 67,
                "velocity": 80,
                "duration": 0.15,
                "tempo": 120.0
            },
            {
                "pitch": 59,
                "velocity": 80,
                "duration": 0.15,
                "tempo": 120.0
            },
            {
                "pitch": 64,
                "velocity": 80,
                "duration": 0.15,
                "tempo": 120.0
            },
            {
                "pitch": 67,
                "velocity": 80,
                "duration": 0.15,
                "tempo": 120.0
            },
            {
                "pitch": 59,
                "velocity": 80,
                "duration": 0.1477,
                "tempo": 120.0
            },
            {
                "pitch": 64,
                "velocity": 80,
                "duration": 0.1477,
                "tempo": 120.0
            },
            {
                "pitch": 59,
                "velocity": 80,
                "duration": 0.1477,
                "tempo": 120.0
            },
            {
                "pitch": 64,
                "velocity": 80,
                "duration": 0.1477,
                "tempo": 120.0
            },
            {
                "pitch": 67,
                "velocity": 80,
                "duration": 0.15,
                "tempo": 120.0
            },
            {
                "pitch": 59,
                "velocity": 80,
                "duration": 0.15,
                "tempo": 120.0
            },
            {
                "pitch": 64,
                "velocity": 80,
                "duration": 0.15,
                "tempo": 120.0
            },
            {
                "pitch": 67,
                "velocity": 80,
                "duration": 0.15,
                "tempo": 120.0
            },
            {
                "pitch": 59,
                "velocity": 80,
                "duration": 0.1477,
                "tempo": 120.0
            },
            {
                "pitch": 64,
                "velocity": 80,
                "duration": 0.15,
                "tempo": 120.0
            },
            {
                "pitch": 59,
                "velocity": 80,
                "duration": 0.1477,
                "tempo": 120.0
            },
            {
                "pitch": 64,
                "velocity": 80,
                "duration": 0.15,
                "tempo": 120.0
            },
            {
                "pitch": 67,
                "velocity": 80,
                "duration": 0.1523,
                "tempo": 120.0
            },
            {
                "pitch": 59,
                "velocity": 80,
                "duration": 0.15,
                "tempo": 120.0
            },
            {
                "pitch": 64,
                "velocity": 80,
                "duration": 0.15,
                "tempo": 120.0
            },
            {
                "pitch": 67,
                "velocity": 80,
                "duration": 0.15,
                "tempo": 120.0
            },
            {
                "pitch": 59,
                "velocity": 80,
                "duration": 0.1477,
                "tempo": 120.0
            },
            {
                "pitch": 64,
                "velocity": 80,
                "duration": 0.15,
                "tempo": 120.0
            },
            {
                "pitch": 59,
                "velocity": 80,
                "duration": 0.15,
                "tempo": 120.0
            },
            {
                "pitch": 64,
                "velocity": 80,
                "duration": 0.15,
                "tempo": 120.0
            },
            {
                "pitch": 67,
                "velocity": 80,
                "duration": 0.1523,
                "tempo": 120.0
            },
            {
                "pitch": 59,
                "velocity": 80,
                "duration": 0.15,
                "tempo": 120.0
            },
            {
                "pitch": 64,
                "velocity": 80,
                "duration": 0.1523,
                "tempo": 120.0
            },
            {
                "pitch": 67,
                "velocity": 80,
                "duration": 0.15,
                "tempo": 120.0
            },
            {
                "pitch": 59,
                "velocity": 80,
                "duration": 0.1477,
                "tempo": 120.0
            },
            {
                "pitch": 64,
                "velocity": 80,
                "duration": 0.15,
                "tempo": 120.0
            }
        ],
        "Vibraphone": [
            {
                "pitch": 69,
                "velocity": 101,
                "duration": 0.1477,
                "tempo": 120.0
            },
            {
                "pitch": 64,
                "velocity": 101,
                "duration": 0.15,
                "tempo": 120.0
            },
            {
                "pitch": 57,
                "velocity": 101,
                "duration": 0.15,
                "tempo": 120.0
            },
            {
                "pitch": 64,
                "velocity": 101,
                "duration": 0.15,
                "tempo": 120.0
            },
            {
                "pitch": 69,
                "velocity": 101,
                "duration": 0.15,
                "tempo": 120.0
            },
            {
                "pitch": 64,
                "velocity": 101,
                "duration": 0.15,
                "tempo": 120.0
            },
            {
                "pitch": 57,
                "velocity": 101,
                "duration": 0.15,
                "tempo": 120.0
            },
            {
                "pitch": 64,
                "velocity": 101,
                "duration": 0.1523,
                "tempo": 120.0
            },
            {
                "pitch": 69,
                "velocity": 101,
                "duration": 0.15,
                "tempo": 120.0
            },
            {
                "pitch": 64,
                "velocity": 101,
                "duration": 0.15,
                "tempo": 120.0
            },
            {
                "pitch": 69,
                "velocity": 101,
                "duration": 0.15,
                "tempo": 120.0
            },
            {
                "pitch": 76,
                "velocity": 101,
                "duration": 0.3023,
                "tempo": 120.0
            },
            {
                "pitch": 74,
                "velocity": 101,
                "duration": 0.15,
                "tempo": 120.0
            },
            {
                "pitch": 72,
                "velocity": 101,
                "duration": 0.3,
                "tempo": 120.0
            },
            {
                "pitch": 67,
                "velocity": 101,
                "duration": 0.1477,
                "tempo": 120.0
            },
            {
                "pitch": 62,
                "velocity": 101,
                "duration": 0.1477,
                "tempo": 120.0
            },
            {
                "pitch": 55,
                "velocity": 101,
                "duration": 0.15,
                "tempo": 120.0
            },
            {
                "pitch": 62,
                "velocity": 101,
                "duration": 0.15,
                "tempo": 120.0
            },
            {
                "pitch": 67,
                "velocity": 101,
                "duration": 0.1477,
                "tempo": 120.0
            },
            {
                "pitch": 62,
                "velocity": 101,
                "duration": 0.15,
                "tempo": 120.0
            },
            {
                "pitch": 55,
                "velocity": 101,
                "duration": 0.15,
                "tempo": 120.0
            },
            {
                "pitch": 62,
                "velocity": 101,
                "duration": 0.15,
                "tempo": 120.0
            },
            {
                "pitch": 67,
                "velocity": 101,
                "duration": 0.1477,
                "tempo": 120.0
            },
            {
                "pitch": 62,
                "velocity": 101,
                "duration": 0.15,
                "tempo": 120.0
            },
            {
                "pitch": 67,
                "velocity": 101,
                "duration": 0.15,
                "tempo": 120.0
            },
            {
                "pitch": 79,
                "velocity": 101,
                "duration": 0.3,
                "tempo": 120.0
            },
            {
                "pitch": 77,
                "velocity": 101,
                "duration": 0.15,
                "tempo": 120.0
            },
            {
                "pitch": 76,
                "velocity": 101,
                "duration": 0.15,
                "tempo": 120.0
            },
            {
                "pitch": 74,
                "velocity": 101,
                "duration": 0.15,
                "tempo": 120.0
            },
            {
                "pitch": 65,
                "velocity": 101,
                "duration": 0.1477,
                "tempo": 120.0
            },
            {
                "pitch": 60,
                "velocity": 101,
                "duration": 0.15,
                "tempo": 120.0
            },
            {
                "pitch": 53,
                "velocity": 101,
                "duration": 0.1477,
                "tempo": 120.0
            },
            {
                "pitch": 60,
                "velocity": 101,
                "duration": 0.1477,
                "tempo": 120.0
            },
            {
                "pitch": 65,
                "velocity": 101,
                "duration": 0.1477,
                "tempo": 120.0
            },
            {
                "pitch": 60,
                "velocity": 101,
                "duration": 0.15,
                "tempo": 120.0
            },
            {
                "pitch": 53,
                "velocity": 101,
                "duration": 0.1523,
                "tempo": 120.0
            },
            {
                "pitch": 60,
                "velocity": 101,
                "duration": 0.1523,
                "tempo": 120.0
            },
            {
                "pitch": 65,
                "velocity": 101,
                "duration": 0.15,
                "tempo": 120.0
            },
            {
                "pitch": 60,
                "velocity": 101,
                "duration": 0.1523,
                "tempo": 120.0
            },
            {
                "pitch": 65,
                "velocity": 101,
                "duration": 0.15,
                "tempo": 120.0
            },
            {
                "pitch": 77,
                "velocity": 101,
                "duration": 0.3023,
                "tempo": 120.0
            },
            {
                "pitch": 76,
                "velocity": 101,
                "duration": 0.15,
                "tempo": 120.0
            },
            {
                "pitch": 74,
                "velocity": 101,
                "duration": 0.3023,
                "tempo": 120.0
            },
            {
                "pitch": 76,
                "velocity": 101,
                "duration": 0.15,
                "tempo": 120.0
            },
            {
                "pitch": 74,
                "velocity": 101,
                "duration": 0.15,
                "tempo": 120.0
            },
            {
                "pitch": 72,
                "velocity": 101,
                "duration": 0.1523,
                "tempo": 120.0
            },
            {
                "pitch": 74,
                "velocity": 101,
                "duration": 0.1523,
                "tempo": 120.0
            },
            {
                "pitch": 72,
                "velocity": 101,
                "duration": 0.1523,
                "tempo": 120.0
            },
            {
                "pitch": 71,
                "velocity": 101,
                "duration": 0.15,
                "tempo": 120.0
            },
            {
                "pitch": 72,
                "velocity": 101,
                "duration": 0.15,
                "tempo": 120.0
            },
            {
                "pitch": 71,
                "velocity": 101,
                "duration": 0.15,
                "tempo": 120.0
            },
            {
                "pitch": 69,
                "velocity": 101,
                "duration": 0.1477,
                "tempo": 120.0
            },
            {
                "pitch": 71,
                "velocity": 101,
                "duration": 0.15,
                "tempo": 120.0
            },
            {
                "pitch": 69,
                "velocity": 101,
                "duration": 0.1477,
                "tempo": 120.0
            },
            {
                "pitch": 67,
                "velocity": 101,
                "duration": 0.15,
                "tempo": 120.0
            },
            {
                "pitch": 64,
                "velocity": 101,
                "duration": 0.3,
                "tempo": 120.0
            },
            {
                "pitch": 67,
                "velocity": 101,
                "duration": 0.3023,
                "tempo": 120.0
            },
            {
                "pitch": 69,
                "velocity": 101,
                "duration": 0.15,
                "tempo": 120.0
            },
            {
                "pitch": 64,
                "velocity": 101,
                "duration": 0.15,
                "tempo": 120.0
            },
            {
                "pitch": 57,
                "velocity": 101,
                "duration": 0.15,
                "tempo": 120.0
            },
            {
                "pitch": 64,
                "velocity": 101,
                "duration": 0.15,
                "tempo": 120.0
            },
            {
                "pitch": 69,
                "velocity": 101,
                "duration": 0.15,
                "tempo": 120.0
            },
            {
                "pitch": 64,
                "velocity": 101,
                "duration": 0.15,
                "tempo": 120.0
            },
            {
                "pitch": 57,
                "velocity": 101,
                "duration": 0.15,
                "tempo": 120.0
            },
            {
                "pitch": 64,
                "velocity": 101,
                "duration": 0.1523,
                "tempo": 120.0
            },
            {
                "pitch": 69,
                "velocity": 101,
                "duration": 0.15,
                "tempo": 120.0
            },
            {
                "pitch": 64,
                "velocity": 101,
                "duration": 0.15,
                "tempo": 120.0
            },
            {
                "pitch": 69,
                "velocity": 101,
                "duration": 0.15,
                "tempo": 120.0
            },
            {
                "pitch": 76,
                "velocity": 101,
                "duration": 0.3023,
                "tempo": 120.0
            },
            {
                "pitch": 74,
                "velocity": 101,
                "duration": 0.15,
                "tempo": 120.0
            },
            {
                "pitch": 72,
                "velocity": 101,
                "duration": 0.3,
                "tempo": 120.0
            },
            {
                "pitch": 67,
                "velocity": 101,
                "duration": 0.1477,
                "tempo": 120.0
            },
            {
                "pitch": 62,
                "velocity": 101,
                "duration": 0.1477,
                "tempo": 120.0
            },
            {
                "pitch": 55,
                "velocity": 101,
                "duration": 0.15,
                "tempo": 120.0
            },
            {
                "pitch": 62,
                "velocity": 101,
                "duration": 0.15,
                "tempo": 120.0
            },
            {
                "pitch": 67,
                "velocity": 101,
                "duration": 0.15,
                "tempo": 120.0
            },
            {
                "pitch": 62,
                "velocity": 101,
                "duration": 0.15,
                "tempo": 120.0
            },
            {
                "pitch": 55,
                "velocity": 101,
                "duration": 0.15,
                "tempo": 120.0
            },
            {
                "pitch": 62,
                "velocity": 101,
                "duration": 0.1523,
                "tempo": 120.0
            },
            {
                "pitch": 67,
                "velocity": 101,
                "duration": 0.1477,
                "tempo": 120.0
            },
            {
                "pitch": 62,
                "velocity": 101,
                "duration": 0.15,
                "tempo": 120.0
            },
            {
                "pitch": 67,
                "velocity": 101,
                "duration": 0.15,
                "tempo": 120.0
            },
            {
                "pitch": 79,
                "velocity": 101,
                "duration": 0.3,
                "tempo": 120.0
            },
            {
                "pitch": 77,
                "velocity": 101,
                "duration": 0.15,
                "tempo": 120.0
            },
            {
                "pitch": 76,
                "velocity": 101,
                "duration": 0.15,
                "tempo": 120.0
            },
            {
                "pitch": 74,
                "velocity": 101,
                "duration": 0.1523,
                "tempo": 120.0
            },
            {
                "pitch": 65,
                "velocity": 101,
                "duration": 0.1477,
                "tempo": 120.0
            },
            {
                "pitch": 60,
                "velocity": 101,
                "duration": 0.15,
                "tempo": 120.0
            },
            {
                "pitch": 53,
                "velocity": 101,
                "duration": 0.1477,
                "tempo": 120.0
            },
            {
                "pitch": 60,
                "velocity": 101,
                "duration": 0.1477,
                "tempo": 120.0
            },
            {
                "pitch": 65,
                "velocity": 101,
                "duration": 0.1477,
                "tempo": 120.0
            },
            {
                "pitch": 60,
                "velocity": 101,
                "duration": 0.15,
                "tempo": 120.0
            },
            {
                "pitch": 53,
                "velocity": 101,
                "duration": 0.15,
                "tempo": 120.0
            },
            {
                "pitch": 60,
                "velocity": 101,
                "duration": 0.15,
                "tempo": 120.0
            },
            {
                "pitch": 65,
                "velocity": 101,
                "duration": 0.15,
                "tempo": 120.0
            },
            {
                "pitch": 60,
                "velocity": 101,
                "duration": 0.15,
                "tempo": 120.0
            },
            {
                "pitch": 65,
                "velocity": 101,
                "duration": 0.1523,
                "tempo": 120.0
            },
            {
                "pitch": 77,
                "velocity": 101,
                "duration": 0.3045,
                "tempo": 120.0
            },
            {
                "pitch": 76,
                "velocity": 101,
                "duration": 0.15,
                "tempo": 120.0
            },
            {
                "pitch": 74,
                "velocity": 101,
                "duration": 0.3023,
                "tempo": 120.0
            },
            {
                "pitch": 76,
                "velocity": 101,
                "duration": 0.1477,
                "tempo": 120.0
            },
            {
                "pitch": 74,
                "velocity": 101,
                "duration": 0.15,
                "tempo": 120.0
            },
            {
                "pitch": 72,
                "velocity": 101,
                "duration": 0.15,
                "tempo": 120.0
            },
            {
                "pitch": 74,
                "velocity": 101,
                "duration": 0.15,
                "tempo": 120.0
            },
            {
                "pitch": 72,
                "velocity": 101,
                "duration": 0.1477,
                "tempo": 120.0
            },
            {
                "pitch": 71,
                "velocity": 101,
                "duration": 0.15,
                "tempo": 120.0
            },
            {
                "pitch": 72,
                "velocity": 101,
                "duration": 0.15,
                "tempo": 120.0
            },
            {
                "pitch": 71,
                "velocity": 101,
                "duration": 0.15,
                "tempo": 120.0
            },
            {
                "pitch": 69,
                "velocity": 101,
                "duration": 0.1477,
                "tempo": 120.0
            },
            {
                "pitch": 71,
                "velocity": 101,
                "duration": 0.15,
                "tempo": 120.0
            },
            {
                "pitch": 69,
                "velocity": 101,
                "duration": 0.15,
                "tempo": 120.0
            },
            {
                "pitch": 67,
                "velocity": 101,
                "duration": 0.15,
                "tempo": 120.0
            },
            {
                "pitch": 64,
                "velocity": 101,
                "duration": 0.3,
                "tempo": 120.0
            },
            {
                "pitch": 67,
                "velocity": 101,
                "duration": 0.3,
                "tempo": 120.0
            }
        ]
    }
}