{
    "track_id": "05 Stage 3",
    "mood": "happy",
    "instruments": {
        "Electric Piano 1": [
            {
                "pitch": 60,
                "velocity": 51,
                "duration": 0.6023,
                "tempo": 120.0
            },
            {
                "pitch": 60,
                "velocity": 51,
                "duration": 0.6,
                "tempo": 120.0
            },
            {
                "pitch": 60,
                "velocity": 51,
                "duration": 0.4,
                "tempo": 120.0
            },
            {
                "pitch": 60,
                "velocity": 51,
                "duration": 0.6068,
                "tempo": 120.0
            },
            {
                "pitch": 60,
                "velocity": 51,
                "duration": 0.5955,
                "tempo": 120.0
            },
            {
                "pitch": 60,
                "velocity": 51,
                "duration": 0.4023,
                "tempo": 120.0
            },
            {
                "pitch": 60,
                "velocity": 51,
                "duration": 0.6068,
                "tempo": 120.0
            },
            {
                "pitch": 60,
                "velocity": 51,
                "duration": 0.6,
                "tempo": 120.0
            },
            {
                "pitch": 60,
                "velocity": 51,
                "duration": 0.4,
                "tempo": 120.0
            },
            {
                "pitch": 60,
                "velocity": 51,
                "duration": 0.6068,
                "tempo": 120.0
            },
            {
                "pitch": 60,
                "velocity": 51,
                "duration": 0.5977,
                "tempo": 120.0
            },
            {
                "pitch": 60,
                "velocity": 51,
                "duration": 0.4045,
                "tempo": 120.0
            },
            {
                "pitch": 60,
                "velocity": 51,
                "duration": 0.6114,
                "tempo": 120.0
            },
            {
                "pitch": 60,
                "velocity": 51,
                "duration": 0.6,
                "tempo": 120.0
            },
            {
                "pitch": 60,
                "velocity": 51,
                "duration": 0.4114,
                "tempo": 120.0
            },
            {
                "pitch": 60,
                "velocity": 51,
                "duration": 0.5932,
                "tempo": 120.0
            },
            {
                "pitch": 60,
                "velocity": 51,
                "duration": 0.6,
                "tempo": 120.0
            },
            {
                "pitch": 60,
                "velocity": 51,
                "duration": 0.4,
                "tempo": 120.0
            },
            {
                "pitch": 60,
                "velocity": 51,
                "duration": 0.6068,
                "tempo": 120.0
            },
            {
                "pitch": 60,
                "velocity": 51,
                "duration": 0.5955,
                "tempo": 120.0
            },
            {
                "pitch": 60,
                "velocity": 51,
                "duration": 0.4023,
                "tempo": 120.0
            },
            {
                "pitch": 60,
                "velocity": 51,
                "duration": 0.6114,
                "tempo": 120.0
            },
            {
                "pitch": 60,
                "velocity": 51,
                "duration": 0.6,
                "tempo": 120.0
            },
            {
                "pitch": 60,
                "velocity": 51,
                "duration": 0.4,
                "tempo": 120.0
            }
        ],
        "Oboe": [
            {
                "pitch": 51,
                "velocity": 80,
                "duration": 0.6114,
                "tempo": 120.0
            },
            {
                "pitch": 56,
                "velocity": 80,
                "duration": 0.2,
                "tempo": 120.0
            },
            {
                "pitch": 60,
                "velocity": 80,
                "duration": 0.6045,
                "tempo": 120.0
            },
            {
                "pitch": 56,
                "velocity": 80,
                "duration": 0.2,
                "tempo": 120.0
            },
            {
                "pitch": 68,
                "velocity": 80,
                "duration": 0.6023,
                "tempo": 120.0
            },
            {
                "pitch": 67,
                "velocity": 80,
                "duration": 0.2,
                "tempo": 120.0
            },
            {
                "pitch": 65,
                "velocity": 80,
                "duration": 0.4,
                "tempo": 120.0
            },
            {
                "pitch": 63,
                "velocity": 80,
                "duration": 0.4023,
                "tempo": 120.0
            },
            {
                "pitch": 62,
                "velocity": 80,
                "duration": 1.2045,
                "tempo": 120.0
            },
            {
                "pitch": 65,
                "velocity": 80,
                "duration": 0.4,
                "tempo": 120.0
            },
            {
                "pitch": 63,
                "velocity": 80,
                "duration": 0.8023,
                "tempo": 120.0
            },
            {
                "pitch": 62,
                "velocity": 80,
                "duration": 0.8114,
                "tempo": 120.0
            },
            {
                "pitch": 51,
                "velocity": 80,
                "duration": 0.6023,
                "tempo": 120.0
            },
            {
                "pitch": 56,
                "velocity": 80,
                "duration": 0.2023,
                "tempo": 120.0
            },
            {
                "pitch": 60,
                "velocity": 80,
                "duration": 0.6,
                "tempo": 120.0
            },
            {
                "pitch": 56,
                "velocity": 80,
                "duration": 0.2023,
                "tempo": 120.0
            },
            {
                "pitch": 68,
                "velocity": 80,
                "duration": 0.6,
                "tempo": 120.0
            },
            {
                "pitch": 67,
                "velocity": 80,
                "duration": 0.2,
                "tempo": 120.0
            },
            {
                "pitch": 65,
                "velocity": 80,
                "duration": 0.4023,
                "tempo": 120.0
            },
            {
                "pitch": 63,
                "velocity": 80,
                "duration": 0.4023,
                "tempo": 120.0
            },
            {
                "pitch": 62,
                "velocity": 80,
                "duration": 1.2,
                "tempo": 120.0
            },
            {
                "pitch": 65,
                "velocity": 80,
                "duration": 0.4045,
                "tempo": 120.0
            },
            {
                "pitch": 68,
                "velocity": 80,
                "duration": 0.8,
                "tempo": 120.0
            },
            {
                "pitch": 70,
                "velocity": 80,
                "duration": 0.8023,
                "tempo": 120.0
            }
        ],
        "Acoustic Grand Piano": [
            {
                "pitch": 79,
                "velocity": 80,
                "duration": 0.0977,
                "tempo": 120.0
            },
            {
                "pitch": 76,
                "velocity": 80,
                "duration": 0.1023,
                "tempo": 120.0
            },
            {
                "pitch": 72,
                "velocity": 80,
                "duration": 0.1,
                "tempo": 120.0
            },
            {
                "pitch": 79,
                "velocity": 80,
                "duration": 0.1,
                "tempo": 120.0
            },
            {
                "pitch": 76,
                "velocity": 80,
                "duration": 0.0977,
                "tempo": 120.0
            },
            {
                "pitch": 72,
                "velocity": 80,
                "duration": 0.1023,
                "tempo": 120.0
            },
            {
                "pitch": 79,
                "velocity": 80,
                "duration": 0.0977,
                "tempo": 120.0
            },
            {
                "pitch": 76,
                "velocity": 80,
                "duration": 0.1,
                "tempo": 120.0
            },
            {
                "pitch": 79,
                "velocity": 80,
                "duration": 0.1,
                "tempo": 120.0
            },
            {
                "pitch": 76,
                "velocity": 80,
                "duration": 0.1,
                "tempo": 120.0
            },
            {
                "pitch": 72,
                "velocity": 80,
                "duration": 0.1,
                "tempo": 120.0
            },
            {
                "pitch": 79,
                "velocity": 80,
                "duration": 0.1,
                "tempo": 120.0
            },
            {
                "pitch": 76,
                "velocity": 80,
                "duration": 0.1,
                "tempo": 120.0
            },
            {
                "pitch": 72,
                "velocity": 80,
                "duration": 0.1,
                "tempo": 120.0
            },
            {
                "pitch": 79,
                "velocity": 80,
                "duration": 0.1,
                "tempo": 120.0
            },
            {
                "pitch": 76,
                "velocity": 80,
                "duration": 0.1,
                "tempo": 120.0
            },
            {
                "pitch": 82,
                "velocity": 80,
                "duration": 0.1023,
                "tempo": 120.0
            },
            {
                "pitch": 77,
                "velocity": 80,
                "duration": 0.1045,
                "tempo": 120.0
            },
            {
                "pitch": 74,
                "velocity": 80,
                "duration": 0.1023,
                "tempo": 120.0
            },
            {
                "pitch": 82,
                "velocity": 80,
                "duration": 0.1023,
                "tempo": 120.0
            },
            {
                "pitch": 77,
                "velocity": 80,
                "duration": 0.0977,
                "tempo": 120.0
            },
            {
                "pitch": 74,
                "velocity": 80,
                "duration": 0.0977,
                "tempo": 120.0
            },
            {
                "pitch": 82,
                "velocity": 80,
                "duration": 0.0955,
                "tempo": 120.0
            },
            {
                "pitch": 77,
                "velocity": 80,
                "duration": 0.0977,
                "tempo": 120.0
            },
            {
                "pitch": 82,
                "velocity": 80,
                "duration": 0.1,
                "tempo": 120.0
            },
            {
                "pitch": 77,
                "velocity": 80,
                "duration": 0.1,
                "tempo": 120.0
            },
            {
                "pitch": 74,
                "velocity": 80,
                "duration": 0.1,
                "tempo": 120.0
            },
            {
                "pitch": 82,
                "velocity": 80,
                "duration": 0.1,
                "tempo": 120.0
            },
            {
                "pitch": 77,
                "velocity": 80,
                "duration": 0.1,
                "tempo": 120.0
            },
            {
                "pitch": 74,
                "velocity": 80,
                "duration": 0.1,
                "tempo": 120.0
            },
            {
                "pitch": 82,
                "velocity": 80,
                "duration": 0.1,
                "tempo": 120.0
            },
            {
                "pitch": 77,
                "velocity": 80,
                "duration": 0.1,
                "tempo": 120.0
            },
            {
                "pitch": 84,
                "velocity": 80,
                "duration": 0.1,
                "tempo": 120.0
            },
            {
                "pitch": 79,
                "velocity": 80,
                "duration": 0.1023,
                "tempo": 120.0
            },
            {
                "pitch": 76,
                "velocity": 80,
                "duration": 0.1023,
                "tempo": 120.0
            },
            {
                "pitch": 84,
                "velocity": 80,
                "duration": 0.1023,
                "tempo": 120.0
            },
            {
                "pitch": 79,
                "velocity": 80,
                "duration": 0.0977,
                "tempo": 120.0
            },
            {
                "pitch": 76,
                "velocity": 80,
                "duration": 0.1,
                "tempo": 120.0
            },
            {
                "pitch": 84,
                "velocity": 80,
                "duration": 0.0977,
                "tempo": 120.0
            },
            {
                "pitch": 79,
                "velocity": 80,
                "duration": 0.0977,
                "tempo": 120.0
            },
            {
                "pitch": 84,
                "velocity": 80,
                "duration": 0.1,
                "tempo": 120.0
            },
            {
                "pitch": 79,
                "velocity": 80,
                "duration": 0.1023,
                "tempo": 120.0
            },
            {
                "pitch": 76,
                "velocity": 80,
                "duration": 0.1,
                "tempo": 120.0
            },
            {
                "pitch": 84,
                "velocity": 80,
                "duration": 0.1023,
                "tempo": 120.0
            },
            {
                "pitch": 79,
                "velocity": 80,
                "duration": 0.0977,
                "tempo": 120.0
            },
            {
                "pitch": 76,
                "velocity": 80,
                "duration": 0.1023,
                "tempo": 120.0
            },
            {
                "pitch": 84,
                "velocity": 80,
                "duration": 0.1,
                "tempo": 120.0
            },
            {
                "pitch": 79,
                "velocity": 80,
                "duration": 0.1,
                "tempo": 120.0
            },
            {
                "pitch": 88,
                "velocity": 80,
                "duration": 0.1023,
                "tempo": 120.0
            },
            {
                "pitch": 84,
                "velocity": 80,
                "duration": 0.1023,
                "tempo": 120.0
            },
            {
                "pitch": 79,
                "velocity": 80,
                "duration": 0.1023,
                "tempo": 120.0
            },
            {
                "pitch": 88,
                "velocity": 80,
                "duration": 0.1045,
                "tempo": 120.0
            },
            {
                "pitch": 84,
                "velocity": 80,
                "duration": 0.0977,
                "tempo": 120.0
            },
            {
                "pitch": 79,
                "velocity": 80,
                "duration": 0.0977,
                "tempo": 120.0
            },
            {
                "pitch": 88,
                "velocity": 80,
                "duration": 0.0977,
                "tempo": 120.0
            },
            {
                "pitch": 84,
                "velocity": 80,
                "duration": 0.0977,
                "tempo": 120.0
            },
            {
                "pitch": 88,
                "velocity": 80,
                "duration": 0.0977,
                "tempo": 120.0
            },
            {
                "pitch": 84,
                "velocity": 80,
                "duration": 0.1023,
                "tempo": 120.0
            },
            {
                "pitch": 79,
                "velocity": 80,
                "duration": 0.0977,
                "tempo": 120.0
            },
            {
                "pitch": 88,
                "velocity": 80,
                "duration": 0.1,
                "tempo": 120.0
            },
            {
                "pitch": 84,
                "velocity": 80,
                "duration": 0.1,
                "tempo": 120.0
            },
            {
                "pitch": 79,
                "velocity": 80,
                "duration": 0.1,
                "tempo": 120.0
            },
            {
                "pitch": 88,
                "velocity": 80,
                "duration": 0.1,
                "tempo": 120.0
            },
            {
                "pitch": 84,
                "velocity": 80,
                "duration": 0.1,
                "tempo": 120.0
            },
            {
                "pitch": 79,
                "velocity": 80,
                "duration": 0.1023,
                "tempo": 120.0
            },
            {
                "pitch": 76,
                "velocity": 80,
                "duration": 0.1045,
                "tempo": 120.0
            },
            {
                "pitch": 72,
                "velocity": 80,
                "duration": 0.1023,
                "tempo": 120.0
            },
            {
                "pitch": 79,
                "velocity": 80,
                "duration": 0.1023,
                "tempo": 120.0
            },
            {
                "pitch": 76,
                "velocity": 80,
                "duration": 0.1,
                "tempo": 120.0
            },
            {
                "pitch": 72,
                "velocity": 80,
                "duration": 0.1,
                "tempo": 120.0
            },
            {
                "pitch": 79,
                "velocity": 80,
                "duration": 0.1,
                "tempo": 120.0
            },
            {
                "pitch": 76,
                "velocity": 80,
                "duration": 0.1,
                "tempo": 120.0
            },
            {
                "pitch": 79,
                "velocity": 80,
                "duration": 0.0977,
                "tempo": 120.0
            },
            {
                "pitch": 76,
                "velocity": 80,
                "duration": 0.1023,
                "tempo": 120.0
            },
            {
                "pitch": 72,
                "velocity": 80,
                "duration": 0.0977,
                "tempo": 120.0
            },
            {
                "pitch": 79,
                "velocity": 80,
                "duration": 0.1,
                "tempo": 120.0
            },
            {
                "pitch": 76,
                "velocity": 80,
                "duration": 0.1023,
                "tempo": 120.0
            },
            {
                "pitch": 72,
                "velocity": 80,
                "duration": 0.1023,
                "tempo": 120.0
            },
            {
                "pitch": 79,
                "velocity": 80,
                "duration": 0.1023,
                "tempo": 120.0
            },
            {
                "pitch": 76,
                "velocity": 80,
                "duration": 0.1045,
                "tempo": 120.0
            },
            {
                "pitch": 82,
                "velocity": 80,
                "duration": 0.0977,
                "tempo": 120.0
            },
            {
                "pitch": 77,
                "velocity": 80,
                "duration": 0.0977,
                "tempo": 120.0
            },
            {
                "pitch": 74,
                "velocity": 80,
                "duration": 0.0977,
                "tempo": 120.0
            },
            {
                "pitch": 82,
                "velocity": 80,
                "duration": 0.0977,
                "tempo": 120.0
            },
            {
                "pitch": 77,
                "velocity": 80,
                "duration": 0.0977,
                "tempo": 120.0
            },
            {
                "pitch": 74,
                "velocity": 80,
                "duration": 0.1023,
                "tempo": 120.0
            },
            {
                "pitch": 82,
                "velocity": 80,
                "duration": 0.0977,
                "tempo": 120.0
            },
            {
                "pitch": 77,
                "velocity": 80,
                "duration": 0.1,
                "tempo": 120.0
            },
            {
                "pitch": 82,
                "velocity": 80,
                "duration": 0.1,
                "tempo": 120.0
            },
            {
                "pitch": 77,
                "velocity": 80,
                "duration": 0.1,
                "tempo": 120.0
            },
            {
                "pitch": 74,
                "velocity": 80,
                "duration": 0.1,
                "tempo": 120.0
            },
            {
                "pitch": 82,
                "velocity": 80,
                "duration": 0.1,
                "tempo": 120.0
            },
            {
                "pitch": 77,
                "velocity": 80,
                "duration": 0.1,
                "tempo": 120.0
            },
            {
                "pitch": 74,
                "velocity": 80,
                "duration": 0.1,
                "tempo": 120.0
            },
            {
                "pitch": 82,
                "velocity": 80,
                "duration": 0.1,
                "tempo": 120.0
            },
            {
                "pitch": 77,
                "velocity": 80,
                "duration": 0.1,
                "tempo": 120.0
            },
            {
                "pitch": 84,
                "velocity": 80,
                "duration": 0.1023,
                "tempo": 120.0
            },
            {
                "pitch": 79,
                "velocity": 80,
                "duration": 0.1045,
                "tempo": 120.0
            },
            {
                "pitch": 76,
                "velocity": 80,
                "duration": 0.1023,
                "tempo": 120.0
            },
            {
                "pitch": 84,
                "velocity": 80,
                "duration": 0.1023,
                "tempo": 120.0
            },
            {
                "pitch": 79,
                "velocity": 80,
                "duration": 0.0977,
                "tempo": 120.0
            },
            {
                "pitch": 76,
                "velocity": 80,
                "duration": 0.0977,
                "tempo": 120.0
            },
            {
                "pitch": 84,
                "velocity": 80,
                "duration": 0.0955,
                "tempo": 120.0
            },
            {
                "pitch": 79,
                "velocity": 80,
                "duration": 0.0977,
                "tempo": 120.0
            },
            {
                "pitch": 84,
                "velocity": 80,
                "duration": 0.1,
                "tempo": 120.0
            },
            {
                "pitch": 79,
                "velocity": 80,
                "duration": 0.1,
                "tempo": 120.0
            },
            {
                "pitch": 76,
                "velocity": 80,
                "duration": 0.1,
                "tempo": 120.0
            },
            {
                "pitch": 84,
                "velocity": 80,
                "duration": 0.1,
                "tempo": 120.0
            },
            {
                "pitch": 79,
                "velocity": 80,
                "duration": 0.1,
                "tempo": 120.0
            },
            {
                "pitch": 76,
                "velocity": 80,
                "duration": 0.1,
                "tempo": 120.0
            },
            {
                "pitch": 84,
                "velocity": 80,
                "duration": 0.1,
                "tempo": 120.0
            },
            {
                "pitch": 79,
                "velocity": 80,
                "duration": 0.1,
                "tempo": 120.0
            },
            {
                "pitch": 88,
                "velocity": 80,
                "duration": 0.1,
                "tempo": 120.0
            },
            {
                "pitch": 84,
                "velocity": 80,
                "duration": 0.1023,
                "tempo": 120.0
            },
            {
                "pitch": 79,
                "velocity": 80,
                "duration": 0.1023,
                "tempo": 120.0
            },
            {
                "pitch": 84,
                "velocity": 80,
                "duration": 0.1023,
                "tempo": 120.0
            },
            {
                "pitch": 79,
                "velocity": 80,
                "duration": 0.0977,
                "tempo": 120.0
            },
            {
                "pitch": 76,
                "velocity": 80,
                "duration": 0.1023,
                "tempo": 120.0
            },
            {
                "pitch": 79,
                "velocity": 80,
                "duration": 0.0977,
                "tempo": 120.0
            },
            {
                "pitch": 76,
                "velocity": 80,
                "duration": 0.1,
                "tempo": 120.0
            },
            {
                "pitch": 72,
                "velocity": 80,
                "duration": 0.0977,
                "tempo": 120.0
            },
            {
                "pitch": 76,
                "velocity": 80,
                "duration": 0.1023,
                "tempo": 120.0
            },
            {
                "pitch": 72,
                "velocity": 80,
                "duration": 0.0977,
                "tempo": 120.0
            },
            {
                "pitch": 67,
                "velocity": 80,
                "duration": 0.1023,
                "tempo": 120.0
            },
            {
                "pitch": 72,
                "velocity": 80,
                "duration": 0.1,
                "tempo": 120.0
            },
            {
                "pitch": 67,
                "velocity": 80,
                "duration": 0.1,
                "tempo": 120.0
            },
            {
                "pitch": 64,
                "velocity": 80,
                "duration": 0.1,
                "tempo": 120.0
            },
            {
                "pitch": 60,
                "velocity": 80,
                "duration": 0.1,
                "tempo": 120.0
            }
        ],
        "Lead 2 (sawtooth)": [
            {
                "pitch": 76,
                "velocity": 64,
                "duration": 0.5977,
                "tempo": 120.0
            },
            {
                "pitch": 74,
                "velocity": 64,
                "duration": 2.6068,
                "tempo": 120.0
            },
            {
                "pitch": 76,
                "velocity": 64,
                "duration": 0.6114,
                "tempo": 120.0
            },
            {
                "pitch": 74,
                "velocity": 64,
                "duration": 2.6114,
                "tempo": 120.0
            },
            {
                "pitch": 76,
                "velocity": 64,
                "duration": 0.6045,
                "tempo": 120.0
            },
            {
                "pitch": 74,
                "velocity": 64,
                "duration": 2.6159,
                "tempo": 120.0
            },
            {
                "pitch": 76,
                "velocity": 64,
                "duration": 0.6068,
                "tempo": 120.0
            },
            {
                "pitch": 74,
                "velocity": 64,
                "duration": 2.6205,
                "tempo": 120.0
            },
            {
                "pitch": 76,
                "velocity": 64,
                "duration": 0.6045,
                "tempo": 120.0
            },
            {
                "pitch": 74,
                "velocity": 64,
                "duration": 2.6159,
                "tempo": 120.0
            },
            {
                "pitch": 76,
                "velocity": 64,
                "duration": 0.6068,
                "tempo": 120.0
            },
            {
                "pitch": 74,
                "velocity": 64,
                "duration": 2.6136,
                "tempo": 120.0
            },
            {
                "pitch": 76,
                "velocity": 64,
                "duration": 0.6023,
                "tempo": 120.0
            },
            {
                "pitch": 74,
                "velocity": 64,
                "duration": 2.6136,
                "tempo": 120.0
            },
            {
                "pitch": 76,
                "velocity": 64,
                "duration": 0.6,
                "tempo": 120.0
            },
            {
                "pitch": 74,
                "velocity": 64,
                "duration": 2.6136,
                "tempo": 120.0
            }
        ],
        "Vibraphone": [
            {
                "pitch": 84,
                "velocity": 101,
                "duration": 0.6023,
                "tempo": 120.0
            },
            {
                "pitch": 83,
                "velocity": 101,
                "duration": 2.6182,
                "tempo": 120.0
            },
            {
                "pitch": 84,
                "velocity": 101,
                "duration": 0.6023,
                "tempo": 120.0
            },
            {
                "pitch": 83,
                "velocity": 101,
                "duration": 2.6159,
                "tempo": 120.0
            },
            {
                "pitch": 84,
                "velocity": 101,
                "duration": 0.6023,
                "tempo": 120.0
            },
            {
                "pitch": 83,
                "velocity": 101,
                "duration": 2.6227,
                "tempo": 120.0
            },
            {
                "pitch": 84,
                "velocity": 101,
                "duration": 0.6045,
                "tempo": 120.0
            },
            {
                "pitch": 83,
                "velocity": 101,
                "duration": 2.6159,
                "tempo": 120.0
            },
            {
                "pitch": 84,
                "velocity": 101,
                "duration": 0.6045,
                "tempo": 120.0
            },
            {
                "pitch": 83,
                "velocity": 101,
                "duration": 2.625,
                "tempo": 120.0
            },
            {
                "pitch": 84,
                "velocity": 101,
                "duration": 0.5977,
                "tempo": 120.0
            },
            {
                "pitch": 83,
                "velocity": 101,
                "duration": 2.6136,
                "tempo": 120.0
            },
            {
                "pitch": 84,
                "velocity": 101,
                "duration": 0.6023,
                "tempo": 120.0
            },
            {
                "pitch": 83,
                "velocity": 101,
                "duration": 2.6114,
                "tempo": 120.0
            },
            {
                "pitch": 84,
                "velocity": 101,
                "duration": 0.6068,
                "tempo": 120.0
            },
            {
                "pitch": 83,
                "velocity": 101,
                "duration": 1.0,
                "tempo": 120.0
            }
        ],
        "Acoustic Guitar (nylon)": [
            {
                "pitch": 31,
                "velocity": 101,
                "duration": 0.0659,
                "tempo": 120.0
            },
            {
                "pitch": 31,
                "velocity": 101,
                "duration": 0.1477,
                "tempo": 120.0
            },
            {
                "pitch": 31,
                "velocity": 101,
                "duration": 0.0682,
                "tempo": 120.0
            },
            {
                "pitch": 31,
                "velocity": 101,
                "duration": 0.1477,
                "tempo": 120.0
            },
            {
                "pitch": 43,
                "velocity": 101,
                "duration": 0.15,
                "tempo": 120.0
            },
            {
                "pitch": 31,
                "velocity": 101,
                "duration": 0.0659,
                "tempo": 120.0
            },
            {
                "pitch": 31,
                "velocity": 101,
                "duration": 0.15,
                "tempo": 120.0
            },
            {
                "pitch": 31,
                "velocity": 101,
                "duration": 0.0659,
                "tempo": 120.0
            },
            {
                "pitch": 31,
                "velocity": 101,
                "duration": 0.1477,
                "tempo": 120.0
            },
            {
                "pitch": 43,
                "velocity": 101,
                "duration": 0.15,
                "tempo": 120.0
            },
            {
                "pitch": 31,
                "velocity": 101,
                "duration": 0.0659,
                "tempo": 120.0
            },
            {
                "pitch": 31,
                "velocity": 101,
                "duration": 0.15,
                "tempo": 120.0
            },
            {
                "pitch": 31,
                "velocity": 101,
                "duration": 0.0682,
                "tempo": 120.0
            },
            {
                "pitch": 31,
                "velocity": 101,
                "duration": 0.15,
                "tempo": 120.0
            },
            {
                "pitch": 43,
                "velocity": 101,
                "duration": 0.15,
                "tempo": 120.0
            },
            {
                "pitch": 29,
                "velocity": 101,
                "duration": 0.15,
                "tempo": 120.0
            },
            {
                "pitch": 41,
                "velocity": 101,
                "duration": 0.15,
                "tempo": 120.0
            },
            {
                "pitch": 34,
                "velocity": 101,
                "duration": 0.15,
                "tempo": 120.0
            },
            {
                "pitch": 46,
                "velocity": 101,
                "duration": 0.1477,
                "tempo": 120.0
            },
            {
                "pitch": 31,
                "velocity": 101,
                "duration": 0.0659,
                "tempo": 120.0
            },
            {
                "pitch": 31,
                "velocity": 101,
                "duration": 0.1523,
                "tempo": 120.0
            },
            {
                "pitch": 31,
                "velocity": 101,
                "duration": 0.0682,
                "tempo": 120.0
            },
            {
                "pitch": 31,
                "velocity": 101,
                "duration": 0.1477,
                "tempo": 120.0
            },
            {
                "pitch": 43,
                "velocity": 101,
                "duration": 0.15,
                "tempo": 120.0
            },
            {
                "pitch": 31,
                "velocity": 101,
                "duration": 0.0659,
                "tempo": 120.0
            },
            {
                "pitch": 31,
                "velocity": 101,
                "duration": 0.15,
                "tempo": 120.0
            },
            {
                "pitch": 31,
                "velocity": 101,
                "duration": 0.0659,
                "tempo": 120.0
            },
            {
                "pitch": 31,
                "velocity": 101,
                "duration": 0.1477,
                "tempo": 120.0
            },
            {
                "pitch": 43,
                "velocity": 101,
                "duration": 0.15,
                "tempo": 120.0
            },
            {
                "pitch": 31,
                "velocity": 101,
                "duration": 0.0659,
                "tempo": 120.0
            },
            {
                "pitch": 31,
                "velocity": 101,
                "duration": 0.1477,
                "tempo": 120.0
            },
            {
                "pitch": 31,
                "velocity": 101,
                "duration": 0.0659,
                "tempo": 120.0
            },
            {
                "pitch": 31,
                "velocity": 101,
                "duration": 0.15,
                "tempo": 120.0
            },
            {
                "pitch": 43,
                "velocity": 101,
                "duration": 0.15,
                "tempo": 120.0
            },
            {
                "pitch": 29,
                "velocity": 101,
                "duration": 0.15,
                "tempo": 120.0
            },
            {
                "pitch": 41,
                "velocity": 101,
                "duration": 0.15,
                "tempo": 120.0
            },
            {
                "pitch": 34,
                "velocity": 101,
                "duration": 0.1477,
                "tempo": 120.0
            },
            {
                "pitch": 46,
                "velocity": 101,
                "duration": 0.15,
                "tempo": 120.0
            },
            {
                "pitch": 31,
                "velocity": 101,
                "duration": 0.0659,
                "tempo": 120.0
            },
            {
                "pitch": 31,
                "velocity": 101,
                "duration": 0.15,
                "tempo": 120.0
            },
            {
                "pitch": 31,
                "velocity": 101,
                "duration": 0.0659,
                "tempo": 120.0
            },
            {
                "pitch": 31,
                "velocity": 101,
                "duration": 0.1477,
                "tempo": 120.0
            },
            {
                "pitch": 43,
                "velocity": 101,
                "duration": 0.15,
                "tempo": 120.0
            },
            {
                "pitch": 31,
                "velocity": 101,
                "duration": 0.0659,
                "tempo": 120.0
            },
            {
                "pitch": 31,
                "velocity": 101,
                "duration": 0.15,
                "tempo": 120.0
            },
            {
                "pitch": 31,
                "velocity": 101,
                "duration": 0.0682,
                "tempo": 120.0
            },
            {
                "pitch": 31,
                "velocity": 101,
                "duration": 0.15,
                "tempo": 120.0
            },
            {
                "pitch": 43,
                "velocity": 101,
                "duration": 0.15,
                "tempo": 120.0
            },
            {
                "pitch": 31,
                "velocity": 101,
                "duration": 0.0659,
                "tempo": 120.0
            },
            {
                "pitch": 31,
                "velocity": 101,
                "duration": 0.1477,
                "tempo": 120.0
            },
            {
                "pitch": 31,
                "velocity": 101,
                "duration": 0.0682,
                "tempo": 120.0
            },
            {
                "pitch": 31,
                "velocity": 101,
                "duration": 0.15,
                "tempo": 120.0
            },
            {
                "pitch": 43,
                "velocity": 101,
                "duration": 0.1523,
                "tempo": 120.0
            },
            {
                "pitch": 29,
                "velocity": 101,
                "duration": 0.15,
                "tempo": 120.0
            },
            {
                "pitch": 41,
                "velocity": 101,
                "duration": 0.15,
                "tempo": 120.0
            },
            {
                "pitch": 34,
                "velocity": 101,
                "duration": 0.15,
                "tempo": 120.0
            },
            {
                "pitch": 46,
                "velocity": 101,
                "duration": 0.15,
                "tempo": 120.0
            },
            {
                "pitch": 31,
                "velocity": 101,
                "duration": 0.0659,
                "tempo": 120.0
            },
            {
                "pitch": 31,
                "velocity": 101,
                "duration": 0.15,
                "tempo": 120.0
            },
            {
                "pitch": 31,
                "velocity": 101,
                "duration": 0.0659,
                "tempo": 120.0
            },
            {
                "pitch": 31,
                "velocity": 101,
                "duration": 0.1523,
                "tempo": 120.0
            },
            {
                "pitch": 43,
                "velocity": 101,
                "duration": 0.1523,
                "tempo": 120.0
            },
            {
                "pitch": 31,
                "velocity": 101,
                "duration": 0.0636,
                "tempo": 120.0
            },
            {
                "pitch": 31,
                "velocity": 101,
                "duration": 0.1477,
                "tempo": 120.0
            },
            {
                "pitch": 31,
                "velocity": 101,
                "duration": 0.0659,
                "tempo": 120.0
            },
            {
                "pitch": 31,
                "velocity": 101,
                "duration": 0.1523,
                "tempo": 120.0
            },
            {
                "pitch": 43,
                "velocity": 101,
                "duration": 0.1545,
                "tempo": 120.0
            },
            {
                "pitch": 31,
                "velocity": 101,
                "duration": 0.0659,
                "tempo": 120.0
            },
            {
                "pitch": 31,
                "velocity": 101,
                "duration": 0.15,
                "tempo": 120.0
            },
            {
                "pitch": 31,
                "velocity": 101,
                "duration": 0.0659,
                "tempo": 120.0
            },
            {
                "pitch": 31,
                "velocity": 101,
                "duration": 0.1477,
                "tempo": 120.0
            },
            {
                "pitch": 43,
                "velocity": 101,
                "duration": 0.15,
                "tempo": 120.0
            },
            {
                "pitch": 29,
                "velocity": 101,
                "duration": 0.15,
                "tempo": 120.0
            },
            {
                "pitch": 41,
                "velocity": 101,
                "duration": 0.15,
                "tempo": 120.0
            },
            {
                "pitch": 34,
                "velocity": 101,
                "duration": 0.15,
                "tempo": 120.0
            },
            {
                "pitch": 46,
                "velocity": 101,
                "duration": 0.15,
                "tempo": 120.0
            },
            {
                "pitch": 31,
                "velocity": 101,
                "duration": 0.0682,
                "tempo": 120.0
            },
            {
                "pitch": 31,
                "velocity": 101,
                "duration": 0.15,
                "tempo": 120.0
            },
            {
                "pitch": 31,
                "velocity": 101,
                "duration": 0.0682,
                "tempo": 120.0
            },
            {
                "pitch": 31,
                "velocity": 101,
                "duration": 0.15,
                "tempo": 120.0
            },
            {
                "pitch": 43,
                "velocity": 101,
                "duration": 0.15,
                "tempo": 120.0
            },
            {
                "pitch": 31,
                "velocity": 101,
                "duration": 0.0659,
                "tempo": 120.0
            },
            {
                "pitch": 31,
                "velocity": 101,
                "duration": 0.15,
                "tempo": 120.0
            },
            {
                "pitch": 31,
                "velocity": 101,
                "duration": 0.0659,
                "tempo": 120.0
            },
            {
                "pitch": 31,
                "velocity": 101,
                "duration": 0.15,
                "tempo": 120.0
            },
            {
                "pitch": 43,
                "velocity": 101,
                "duration": 0.15,
                "tempo": 120.0
            },
            {
                "pitch": 31,
                "velocity": 101,
                "duration": 0.0659,
                "tempo": 120.0
            },
            {
                "pitch": 31,
                "velocity": 101,
                "duration": 0.15,
                "tempo": 120.0
            },
            {
                "pitch": 31,
                "velocity": 101,
                "duration": 0.0659,
                "tempo": 120.0
            },
            {
                "pitch": 31,
                "velocity": 101,
                "duration": 0.1477,
                "tempo": 120.0
            },
            {
                "pitch": 43,
                "velocity": 101,
                "duration": 0.15,
                "tempo": 120.0
            },
            {
                "pitch": 29,
                "velocity": 101,
                "duration": 0.15,
                "tempo": 120.0
            },
            {
                "pitch": 41,
                "velocity": 101,
                "duration": 0.1523,
                "tempo": 120.0
            },
            {
                "pitch": 34,
                "velocity": 101,
                "duration": 0.15,
                "tempo": 120.0
            },
            {
                "pitch": 46,
                "velocity": 101,
                "duration": 0.15,
                "tempo": 120.0
            },
            {
                "pitch": 31,
                "velocity": 101,
                "duration": 0.0682,
                "tempo": 120.0
            },
            {
                "pitch": 31,
                "velocity": 101,
                "duration": 0.15,
                "tempo": 120.0
            },
            {
                "pitch": 31,
                "velocity": 101,
                "duration": 0.0682,
                "tempo": 120.0
            },
            {
                "pitch": 31,
                "velocity": 101,
                "duration": 0.1523,
                "tempo": 120.0
            },
            {
                "pitch": 43,
                "velocity": 101,
                "duration": 0.1545,
                "tempo": 120.0
            },
            {
                "pitch": 31,
                "velocity": 101,
                "duration": 0.0636,
                "tempo": 120.0
            },
            {
                "pitch": 31,
                "velocity": 101,
                "duration": 0.1455,
                "tempo": 120.0
            },
            {
                "pitch": 31,
                "velocity": 101,
                "duration": 0.0659,
                "tempo": 120.0
            },
            {
                "pitch": 31,
                "velocity": 101,
                "duration": 0.1523,
                "tempo": 120.0
            },
            {
                "pitch": 43,
                "velocity": 101,
                "duration": 0.1523,
                "tempo": 120.0
            },
            {
                "pitch": 31,
                "velocity": 101,
                "duration": 0.0659,
                "tempo": 120.0
            },
            {
                "pitch": 31,
                "velocity": 101,
                "duration": 0.1455,
                "tempo": 120.0
            },
            {
                "pitch": 31,
                "velocity": 101,
                "duration": 0.0636,
                "tempo": 120.0
            },
            {
                "pitch": 31,
                "velocity": 101,
                "duration": 0.1545,
                "tempo": 120.0
            },
            {
                "pitch": 43,
                "velocity": 101,
                "duration": 0.1523,
                "tempo": 120.0
            },
            {
                "pitch": 29,
                "velocity": 101,
                "duration": 0.15,
                "tempo": 120.0
            },
            {
                "pitch": 41,
                "velocity": 101,
                "duration": 0.15,
                "tempo": 120.0
            },
            {
                "pitch": 34,
                "velocity": 101,
                "duration": 0.15,
                "tempo": 120.0
            },
            {
                "pitch": 46,
                "velocity": 101,
                "duration": 0.1477,
                "tempo": 120.0
            },
            {
                "pitch": 31,
                "velocity": 101,
                "duration": 0.0659,
                "tempo": 120.0
            },
            {
                "pitch": 31,
                "velocity": 101,
                "duration": 0.15,
                "tempo": 120.0
            },
            {
                "pitch": 31,
                "velocity": 101,
                "duration": 0.0682,
                "tempo": 120.0
            },
            {
                "pitch": 31,
                "velocity": 101,
                "duration": 0.15,
                "tempo": 120.0
            },
            {
                "pitch": 43,
                "velocity": 101,
                "duration": 0.15,
                "tempo": 120.0
            },
            {
                "pitch": 31,
                "velocity": 101,
                "duration": 0.0682,
                "tempo": 120.0
            },
            {
                "pitch": 31,
                "velocity": 101,
                "duration": 0.15,
                "tempo": 120.0
            },
            {
                "pitch": 31,
                "velocity": 101,
                "duration": 0.0682,
                "tempo": 120.0
            },
            {
                "pitch": 31,
                "velocity": 101,
                "duration": 0.1477,
                "tempo": 120.0
            },
            {
                "pitch": 43,
                "velocity": 101,
                "duration": 0.15,
                "tempo": 120.0
            },
            {
                "pitch": 31,
                "velocity": 101,
                "duration": 0.0659,
                "tempo": 120.0
            },
            {
                "pitch": 31,
                "velocity": 101,
                "duration": 0.15,
                "tempo": 120.0
            },
            {
                "pitch": 31,
                "velocity": 101,
                "duration": 0.0659,
                "tempo": 120.0
            },
            {
                "pitch": 31,
                "velocity": 101,
                "duration": 0.1477,
                "tempo": 120.0
            },
            {
                "pitch": 43,
                "velocity": 101,
                "duration": 0.15,
                "tempo": 120.0
            },
            {
                "pitch": 29,
                "velocity": 101,
                "duration": 0.1477,
                "tempo": 120.0
            },
            {
                "pitch": 41,
                "velocity": 101,
                "duration": 0.1477,
                "tempo": 120.0
            },
            {
                "pitch": 34,
                "velocity": 101,
                "duration": 0.15,
                "tempo": 120.0
            },
            {
                "pitch": 46,
                "velocity": 101,
                "duration": 0.15,
                "tempo": 120.0
            },
            {
                "pitch": 31,
                "velocity": 101,
                "duration": 0.0659,
                "tempo": 120.0
            },
            {
                "pitch": 31,
                "velocity": 101,
                "duration": 0.15,
                "tempo": 120.0
            },
            {
                "pitch": 31,
                "velocity": 101,
                "duration": 0.0659,
                "tempo": 120.0
            },
            {
                "pitch": 31,
                "velocity": 101,
                "duration": 0.1477,
                "tempo": 120.0
            },
            {
                "pitch": 43,
                "velocity": 101,
                "duration": 0.1477,
                "tempo": 120.0
            },
            {
                "pitch": 31,
                "velocity": 101,
                "duration": 0.0659,
                "tempo": 120.0
            },
            {
                "pitch": 31,
                "velocity": 101,
                "duration": 0.15,
                "tempo": 120.0
            },
            {
                "pitch": 31,
                "velocity": 101,
                "duration": 0.0659,
                "tempo": 120.0
            },
            {
                "pitch": 31,
                "velocity": 101,
                "duration": 0.1477,
                "tempo": 120.0
            },
            {
                "pitch": 43,
                "velocity": 101,
                "duration": 0.15,
                "tempo": 120.0
            },
            {
                "pitch": 31,
                "velocity": 101,
                "duration": 0.0682,
                "tempo": 120.0
            },
            {
                "pitch": 31,
                "velocity": 101,
                "duration": 0.15,
                "tempo": 120.0
            },
            {
                "pitch": 31,
                "velocity": 101,
                "duration": 0.0682,
                "tempo": 120.0
            },
            {
                "pitch": 31,
                "velocity": 101,
                "duration": 0.1523,
                "tempo": 120.0
            },
            {
                "pitch": 43,
                "velocity": 101,
                "duration": 0.1545,
                "tempo": 120.0
            },
            {
                "pitch": 29,
                "velocity": 101,
                "duration": 0.1455,
                "tempo": 120.0
            },
            {
                "pitch": 41,
                "velocity": 101,
                "duration": 0.1477,
                "tempo": 120.0
            },
            {
                "pitch": 34,
                "velocity": 101,
                "duration": 0.15,
                "tempo": 120.0
            },
            {
                "pitch": 46,
                "velocity": 101,
                "duration": 0.15,
                "tempo": 120.0
            },
            {
                "pitch": 32,
                "velocity": 101,
                "duration": 0.0682,
                "tempo": 120.0
            },
            {
                "pitch": 39,
                "velocity": 101,
                "duration": 0.0682,
                "tempo": 120.0
            },
            {
                "pitch": 44,
                "velocity": 101,
                "duration": 0.0659,
                "tempo": 120.0
            },
            {
                "pitch": 32,
                "velocity": 101,
                "duration": 0.0682,
                "tempo": 120.0
            },
            {
                "pitch": 39,
                "velocity": 101,
                "duration": 0.0659,
                "tempo": 120.0
            },
            {
                "pitch": 44,
                "velocity": 101,
                "duration": 0.0659,
                "tempo": 120.0
            },
            {
                "pitch": 32,
                "velocity": 101,
                "duration": 0.0636,
                "tempo": 120.0
            },
            {
                "pitch": 44,
                "velocity": 101,
                "duration": 0.0659,
                "tempo": 120.0
            },
            {
                "pitch": 32,
                "velocity": 101,
                "duration": 0.0659,
                "tempo": 120.0
            },
            {
                "pitch": 39,
                "velocity": 101,
                "duration": 0.0659,
                "tempo": 120.0
            },
            {
                "pitch": 44,
                "velocity": 101,
                "duration": 0.0659,
                "tempo": 120.0
            },
            {
                "pitch": 32,
                "velocity": 101,
                "duration": 0.0659,
                "tempo": 120.0
            },
            {
                "pitch": 39,
                "velocity": 101,
                "duration": 0.0659,
                "tempo": 120.0
            },
            {
                "pitch": 44,
                "velocity": 101,
                "duration": 0.0659,
                "tempo": 120.0
            },
            {
                "pitch": 32,
                "velocity": 101,
                "duration": 0.0659,
                "tempo": 120.0
            },
            {
                "pitch": 44,
                "velocity": 101,
                "duration": 0.0659,
                "tempo": 120.0
            },
            {
                "pitch": 32,
                "velocity": 101,
                "duration": 0.0659,
                "tempo": 120.0
            },
            {
                "pitch": 39,
                "velocity": 101,
                "duration": 0.0659,
                "tempo": 120.0
            },
            {
                "pitch": 44,
                "velocity": 101,
                "duration": 0.0659,
                "tempo": 120.0
            },
            {
                "pitch": 32,
                "velocity": 101,
                "duration": 0.0659,
                "tempo": 120.0
            },
            {
                "pitch": 39,
                "velocity": 101,
                "duration": 0.0636,
                "tempo": 120.0
            },
            {
                "pitch": 44,
                "velocity": 101,
                "duration": 0.0659,
                "tempo": 120.0
            },
            {
                "pitch": 32,
                "velocity": 101,
                "duration": 0.0659,
                "tempo": 120.0
            },
            {
                "pitch": 44,
                "velocity": 101,
                "duration": 0.0682,
                "tempo": 120.0
            },
            {
                "pitch": 32,
                "velocity": 101,
                "duration": 0.0659,
                "tempo": 120.0
            },
            {
                "pitch": 39,
                "velocity": 101,
                "duration": 0.0659,
                "tempo": 120.0
            },
            {
                "pitch": 44,
                "velocity": 101,
                "duration": 0.0659,
                "tempo": 120.0
            },
            {
                "pitch": 32,
                "velocity": 101,
                "duration": 0.0659,
                "tempo": 120.0
            },
            {
                "pitch": 39,
                "velocity": 101,
                "duration": 0.0659,
                "tempo": 120.0
            },
            {
                "pitch": 44,
                "velocity": 101,
                "duration": 0.0659,
                "tempo": 120.0
            },
            {
                "pitch": 32,
                "velocity": 101,
                "duration": 0.0659,
                "tempo": 120.0
            },
            {
                "pitch": 44,
                "velocity": 101,
                "duration": 0.0659,
                "tempo": 120.0
            },
            {
                "pitch": 34,
                "velocity": 101,
                "duration": 0.0636,
                "tempo": 120.0
            },
            {
                "pitch": 41,
                "velocity": 101,
                "duration": 0.0659,
                "tempo": 120.0
            },
            {
                "pitch": 46,
                "velocity": 101,
                "duration": 0.0636,
                "tempo": 120.0
            },
            {
                "pitch": 34,
                "velocity": 101,
                "duration": 0.0659,
                "tempo": 120.0
            },
            {
                "pitch": 41,
                "velocity": 101,
                "duration": 0.0659,
                "tempo": 120.0
            },
            {
                "pitch": 46,
                "velocity": 101,
                "duration": 0.0659,
                "tempo": 120.0
            },
            {
                "pitch": 34,
                "velocity": 101,
                "duration": 0.0659,
                "tempo": 120.0
            },
            {
                "pitch": 46,
                "velocity": 101,
                "duration": 0.0659,
                "tempo": 120.0
            },
            {
                "pitch": 34,
                "velocity": 101,
                "duration": 0.0659,
                "tempo": 120.0
            },
            {
                "pitch": 41,
                "velocity": 101,
                "duration": 0.0659,
                "tempo": 120.0
            },
            {
                "pitch": 46,
                "velocity": 101,
                "duration": 0.0659,
                "tempo": 120.0
            },
            {
                "pitch": 34,
                "velocity": 101,
                "duration": 0.0659,
                "tempo": 120.0
            },
            {
                "pitch": 41,
                "velocity": 101,
                "duration": 0.0636,
                "tempo": 120.0
            },
            {
                "pitch": 46,
                "velocity": 101,
                "duration": 0.0659,
                "tempo": 120.0
            },
            {
                "pitch": 34,
                "velocity": 101,
                "duration": 0.0636,
                "tempo": 120.0
            },
            {
                "pitch": 46,
                "velocity": 101,
                "duration": 0.0659,
                "tempo": 120.0
            },
            {
                "pitch": 34,
                "velocity": 101,
                "duration": 0.0659,
                "tempo": 120.0
            },
            {
                "pitch": 41,
                "velocity": 101,
                "duration": 0.0659,
                "tempo": 120.0
            },
            {
                "pitch": 46,
                "velocity": 101,
                "duration": 0.0636,
                "tempo": 120.0
            },
            {
                "pitch": 34,
                "velocity": 101,
                "duration": 0.0659,
                "tempo": 120.0
            },
            {
                "pitch": 41,
                "velocity": 101,
                "duration": 0.0659,
                "tempo": 120.0
            },
            {
                "pitch": 46,
                "velocity": 101,
                "duration": 0.0659,
                "tempo": 120.0
            },
            {
                "pitch": 34,
                "velocity": 101,
                "duration": 0.0659,
                "tempo": 120.0
            },
            {
                "pitch": 46,
                "velocity": 101,
                "duration": 0.0659,
                "tempo": 120.0
            },
            {
                "pitch": 34,
                "velocity": 101,
                "duration": 0.0659,
                "tempo": 120.0
            },
            {
                "pitch": 41,
                "velocity": 101,
                "duration": 0.0659,
                "tempo": 120.0
            },
            {
                "pitch": 46,
                "velocity": 101,
                "duration": 0.0636,
                "tempo": 120.0
            },
            {
                "pitch": 34,
                "velocity": 101,
                "duration": 0.0636,
                "tempo": 120.0
            },
            {
                "pitch": 41,
                "velocity": 101,
                "duration": 0.0659,
                "tempo": 120.0
            },
            {
                "pitch": 46,
                "velocity": 101,
                "duration": 0.0659,
                "tempo": 120.0
            },
            {
                "pitch": 34,
                "velocity": 101,
                "duration": 0.0682,
                "tempo": 120.0
            },
            {
                "pitch": 46,
                "velocity": 101,
                "duration": 0.0682,
                "tempo": 120.0
            },
            {
                "pitch": 32,
                "velocity": 101,
                "duration": 0.0636,
                "tempo": 120.0
            },
            {
                "pitch": 39,
                "velocity": 101,
                "duration": 0.0659,
                "tempo": 120.0
            },
            {
                "pitch": 44,
                "velocity": 101,
                "duration": 0.0659,
                "tempo": 120.0
            },
            {
                "pitch": 32,
                "velocity": 101,
                "duration": 0.0659,
                "tempo": 120.0
            },
            {
                "pitch": 39,
                "velocity": 101,
                "duration": 0.0659,
                "tempo": 120.0
            },
            {
                "pitch": 44,
                "velocity": 101,
                "duration": 0.0659,
                "tempo": 120.0
            },
            {
                "pitch": 32,
                "velocity": 101,
                "duration": 0.0659,
                "tempo": 120.0
            },
            {
                "pitch": 44,
                "velocity": 101,
                "duration": 0.0659,
                "tempo": 120.0
            },
            {
                "pitch": 32,
                "velocity": 101,
                "duration": 0.0659,
                "tempo": 120.0
            },
            {
                "pitch": 39,
                "velocity": 101,
                "duration": 0.0659,
                "tempo": 120.0
            },
            {
                "pitch": 44,
                "velocity": 101,
                "duration": 0.0636,
                "tempo": 120.0
            },
            {
                "pitch": 32,
                "velocity": 101,
                "duration": 0.0636,
                "tempo": 120.0
            },
            {
                "pitch": 39,
                "velocity": 101,
                "duration": 0.0636,
                "tempo": 120.0
            },
            {
                "pitch": 44,
                "velocity": 101,
                "duration": 0.0659,
                "tempo": 120.0
            },
            {
                "pitch": 32,
                "velocity": 101,
                "duration": 0.0636,
                "tempo": 120.0
            },
            {
                "pitch": 44,
                "velocity": 101,
                "duration": 0.0659,
                "tempo": 120.0
            },
            {
                "pitch": 32,
                "velocity": 101,
                "duration": 0.0659,
                "tempo": 120.0
            },
            {
                "pitch": 39,
                "velocity": 101,
                "duration": 0.0659,
                "tempo": 120.0
            },
            {
                "pitch": 44,
                "velocity": 101,
                "duration": 0.0659,
                "tempo": 120.0
            },
            {
                "pitch": 32,
                "velocity": 101,
                "duration": 0.0659,
                "tempo": 120.0
            },
            {
                "pitch": 39,
                "velocity": 101,
                "duration": 0.0659,
                "tempo": 120.0
            },
            {
                "pitch": 44,
                "velocity": 101,
                "duration": 0.0659,
                "tempo": 120.0
            },
            {
                "pitch": 32,
                "velocity": 101,
                "duration": 0.0659,
                "tempo": 120.0
            },
            {
                "pitch": 44,
                "velocity": 101,
                "duration": 0.0659,
                "tempo": 120.0
            },
            {
                "pitch": 32,
                "velocity": 101,
                "duration": 0.0659,
                "tempo": 120.0
            },
            {
                "pitch": 39,
                "velocity": 101,
                "duration": 0.0682,
                "tempo": 120.0
            },
            {
                "pitch": 44,
                "velocity": 101,
                "duration": 0.0659,
                "tempo": 120.0
            },
            {
                "pitch": 32,
                "velocity": 101,
                "duration": 0.0659,
                "tempo": 120.0
            },
            {
                "pitch": 39,
                "velocity": 101,
                "duration": 0.0636,
                "tempo": 120.0
            },
            {
                "pitch": 44,
                "velocity": 101,
                "duration": 0.0659,
                "tempo": 120.0
            },
            {
                "pitch": 32,
                "velocity": 101,
                "duration": 0.0659,
                "tempo": 120.0
            },
            {
                "pitch": 44,
                "velocity": 101,
                "duration": 0.0659,
                "tempo": 120.0
            },
            {
                "pitch": 34,
                "velocity": 101,
                "duration": 0.0659,
                "tempo": 120.0
            },
            {
                "pitch": 41,
                "velocity": 101,
                "duration": 0.0659,
                "tempo": 120.0
            },
            {
                "pitch": 46,
                "velocity": 101,
                "duration": 0.0659,
                "tempo": 120.0
            },
            {
                "pitch": 34,
                "velocity": 101,
                "duration": 0.0659,
                "tempo": 120.0
            },
            {
                "pitch": 41,
                "velocity": 101,
                "duration": 0.0659,
                "tempo": 120.0
            },
            {
                "pitch": 46,
                "velocity": 101,
                "duration": 0.0659,
                "tempo": 120.0
            },
            {
                "pitch": 34,
                "velocity": 101,
                "duration": 0.0659,
                "tempo": 120.0
            },
            {
                "pitch": 46,
                "velocity": 101,
                "duration": 0.0659,
                "tempo": 120.0
            },
            {
                "pitch": 34,
                "velocity": 101,
                "duration": 0.0636,
                "tempo": 120.0
            },
            {
                "pitch": 41,
                "velocity": 101,
                "duration": 0.0659,
                "tempo": 120.0
            },
            {
                "pitch": 46,
                "velocity": 101,
                "duration": 0.0636,
                "tempo": 120.0
            },
            {
                "pitch": 34,
                "velocity": 101,
                "duration": 0.0636,
                "tempo": 120.0
            },
            {
                "pitch": 41,
                "velocity": 101,
                "duration": 0.0659,
                "tempo": 120.0
            },
            {
                "pitch": 46,
                "velocity": 101,
                "duration": 0.0659,
                "tempo": 120.0
            },
            {
                "pitch": 34,
                "velocity": 101,
                "duration": 0.0636,
                "tempo": 120.0
            },
            {
                "pitch": 46,
                "velocity": 101,
                "duration": 0.0659,
                "tempo": 120.0
            },
            {
                "pitch": 34,
                "velocity": 101,
                "duration": 0.0659,
                "tempo": 120.0
            },
            {
                "pitch": 41,
                "velocity": 101,
                "duration": 0.0659,
                "tempo": 120.0
            },
            {
                "pitch": 46,
                "velocity": 101,
                "duration": 0.0659,
                "tempo": 120.0
            },
            {
                "pitch": 34,
                "velocity": 101,
                "duration": 0.0659,
                "tempo": 120.0
            },
            {
                "pitch": 41,
                "velocity": 101,
                "duration": 0.0659,
                "tempo": 120.0
            },
            {
                "pitch": 46,
                "velocity": 101,
                "duration": 0.0659,
                "tempo": 120.0
            },
            {
                "pitch": 34,
                "velocity": 101,
                "duration": 0.0636,
                "tempo": 120.0
            },
            {
                "pitch": 46,
                "velocity": 101,
                "duration": 0.0659,
                "tempo": 120.0
            },
            {
                "pitch": 34,
                "velocity": 101,
                "duration": 0.0636,
                "tempo": 120.0
            },
            {
                "pitch": 41,
                "velocity": 101,
                "duration": 0.0636,
                "tempo": 120.0
            },
            {
                "pitch": 46,
                "velocity": 101,
                "duration": 0.0636,
                "tempo": 120.0
            },
            {
                "pitch": 34,
                "velocity": 101,
                "duration": 0.0659,
                "tempo": 120.0
            },
            {
                "pitch": 41,
                "velocity": 101,
                "duration": 0.0659,
                "tempo": 120.0
            },
            {
                "pitch": 46,
                "velocity": 101,
                "duration": 0.0659,
                "tempo": 120.0
            },
            {
                "pitch": 34,
                "velocity": 101,
                "duration": 0.0659,
                "tempo": 120.0
            },
            {
                "pitch": 46,
                "velocity": 101,
                "duration": 0.0659,
                "tempo": 120.0
            },
            {
                "pitch": 36,
                "velocity": 101,
                "duration": 0.15,
                "tempo": 120.0
            },
            {
                "pitch": 48,
                "velocity": 101,
                "duration": 0.15,
                "tempo": 120.0
            },
            {
                "pitch": 33,
                "velocity": 101,
                "duration": 0.15,
                "tempo": 120.0
            },
            {
                "pitch": 45,
                "velocity": 101,
                "duration": 0.15,
                "tempo": 120.0
            },
            {
                "pitch": 34,
                "velocity": 101,
                "duration": 0.15,
                "tempo": 120.0
            },
            {
                "pitch": 46,
                "velocity": 101,
                "duration": 0.1477,
                "tempo": 120.0
            },
            {
                "pitch": 35,
                "velocity": 101,
                "duration": 0.1477,
                "tempo": 120.0
            },
            {
                "pitch": 47,
                "velocity": 101,
                "duration": 0.15,
                "tempo": 120.0
            },
            {
                "pitch": 36,
                "velocity": 101,
                "duration": 0.1523,
                "tempo": 120.0
            },
            {
                "pitch": 48,
                "velocity": 101,
                "duration": 0.1545,
                "tempo": 120.0
            },
            {
                "pitch": 33,
                "velocity": 101,
                "duration": 0.1455,
                "tempo": 120.0
            },
            {
                "pitch": 45,
                "velocity": 101,
                "duration": 0.1477,
                "tempo": 120.0
            },
            {
                "pitch": 34,
                "velocity": 101,
                "duration": 0.1477,
                "tempo": 120.0
            },
            {
                "pitch": 46,
                "velocity": 101,
                "duration": 0.15,
                "tempo": 120.0
            },
            {
                "pitch": 35,
                "velocity": 101,
                "duration": 0.15,
                "tempo": 120.0
            },
            {
                "pitch": 47,
                "velocity": 101,
                "duration": 0.15,
                "tempo": 120.0
            },
            {
                "pitch": 36,
                "velocity": 101,
                "duration": 0.1545,
                "tempo": 120.0
            },
            {
                "pitch": 48,
                "velocity": 101,
                "duration": 0.1523,
                "tempo": 120.0
            },
            {
                "pitch": 33,
                "velocity": 101,
                "duration": 0.1455,
                "tempo": 120.0
            },
            {
                "pitch": 45,
                "velocity": 101,
                "duration": 0.1477,
                "tempo": 120.0
            },
            {
                "pitch": 34,
                "velocity": 101,
                "duration": 0.15,
                "tempo": 120.0
            },
            {
                "pitch": 46,
                "velocity": 101,
                "duration": 0.15,
                "tempo": 120.0
            },
            {
                "pitch": 35,
                "velocity": 101,
                "duration": 0.15,
                "tempo": 120.0
            },
            {
                "pitch": 47,
                "velocity": 101,
                "duration": 0.15,
                "tempo": 120.0
            },
            {
                "pitch": 36,
                "velocity": 101,
                "duration": 0.1523,
                "tempo": 120.0
            },
            {
                "pitch": 48,
                "velocity": 101,
                "duration": 0.1545,
                "tempo": 120.0
            },
            {
                "pitch": 33,
                "velocity": 101,
                "duration": 0.1477,
                "tempo": 120.0
            },
            {
                "pitch": 45,
                "velocity": 101,
                "duration": 0.1455,
                "tempo": 120.0
            },
            {
                "pitch": 34,
                "velocity": 101,
                "duration": 0.15,
                "tempo": 120.0
            },
            {
                "pitch": 46,
                "velocity": 101,
                "duration": 0.15,
                "tempo": 120.0
            },
            {
                "pitch": 35,
                "velocity": 101,
                "duration": 0.15,
                "tempo": 120.0
            },
            {
                "pitch": 47,
                "velocity": 101,
                "duration": 0.15,
                "tempo": 120.0
            },
            {
                "pitch": 36,
                "velocity": 101,
                "duration": 0.1545,
                "tempo": 120.0
            },
            {
                "pitch": 48,
                "velocity": 101,
                "duration": 0.1523,
                "tempo": 120.0
            },
            {
                "pitch": 33,
                "velocity": 101,
                "duration": 0.15,
                "tempo": 120.0
            },
            {
                "pitch": 45,
                "velocity": 101,
                "duration": 0.15,
                "tempo": 120.0
            },
            {
                "pitch": 34,
                "velocity": 101,
                "duration": 0.15,
                "tempo": 120.0
            },
            {
                "pitch": 46,
                "velocity": 101,
                "duration": 0.15,
                "tempo": 120.0
            },
            {
                "pitch": 35,
                "velocity": 101,
                "duration": 0.1523,
                "tempo": 120.0
            },
            {
                "pitch": 47,
                "velocity": 101,
                "duration": 0.1523,
                "tempo": 120.0
            },
            {
                "pitch": 36,
                "velocity": 101,
                "duration": 0.1477,
                "tempo": 120.0
            },
            {
                "pitch": 48,
                "velocity": 101,
                "duration": 0.1455,
                "tempo": 120.0
            },
            {
                "pitch": 33,
                "velocity": 101,
                "duration": 0.15,
                "tempo": 120.0
            },
            {
                "pitch": 45,
                "velocity": 101,
                "duration": 0.15,
                "tempo": 120.0
            },
            {
                "pitch": 34,
                "velocity": 101,
                "duration": 0.1477,
                "tempo": 120.0
            },
            {
                "pitch": 46,
                "velocity": 101,
                "duration": 0.1477,
                "tempo": 120.0
            },
            {
                "pitch": 35,
                "velocity": 101,
                "duration": 0.1477,
                "tempo": 120.0
            },
            {
                "pitch": 47,
                "velocity": 101,
                "duration": 0.15,
                "tempo": 120.0
            },
            {
                "pitch": 36,
                "velocity": 101,
                "duration": 0.1523,
                "tempo": 120.0
            },
            {
                "pitch": 48,
                "velocity": 101,
                "duration": 0.1545,
                "tempo": 120.0
            },
            {
                "pitch": 33,
                "velocity": 101,
                "duration": 0.1455,
                "tempo": 120.0
            },
            {
                "pitch": 45,
                "velocity": 101,
                "duration": 0.1477,
                "tempo": 120.0
            },
            {
                "pitch": 34,
                "velocity": 101,
                "duration": 0.1477,
                "tempo": 120.0
            },
            {
                "pitch": 46,
                "velocity": 101,
                "duration": 0.15,
                "tempo": 120.0
            },
            {
                "pitch": 35,
                "velocity": 101,
                "duration": 0.15,
                "tempo": 120.0
            },
            {
                "pitch": 47,
                "velocity": 101,
                "duration": 0.15,
                "tempo": 120.0
            },
            {
                "pitch": 36,
                "velocity": 101,
                "duration": 0.1545,
                "tempo": 120.0
            },
            {
                "pitch": 48,
                "velocity": 101,
                "duration": 0.1523,
                "tempo": 120.0
            },
            {
                "pitch": 33,
                "velocity": 101,
                "duration": 0.15,
                "tempo": 120.0
            },
            {
                "pitch": 45,
                "velocity": 101,
                "duration": 0.15,
                "tempo": 120.0
            },
            {
                "pitch": 34,
                "velocity": 101,
                "duration": 0.15,
                "tempo": 120.0
            },
            {
                "pitch": 46,
                "velocity": 101,
                "duration": 0.1477,
                "tempo": 120.0
            },
            {
                "pitch": 35,
                "velocity": 101,
                "duration": 0.1477,
                "tempo": 120.0
            },
            {
                "pitch": 47,
                "velocity": 101,
                "duration": 0.15,
                "tempo": 120.0
            }
        ]
    }
}