{
    "track_id": "07_Bonus",
    "mood": "happy",
    "instruments": {
        "Vibraphone": [
            {
                "pitch": 82,
                "velocity": 101,
                "duration": 0.4795,
                "tempo": 120.0
            },
            {
                "pitch": 77,
                "velocity": 101,
                "duration": 0.8,
                "tempo": 120.0
            },
            {
                "pitch": 82,
                "velocity": 101,
                "duration": 0.4795,
                "tempo": 120.0
            },
            {
                "pitch": 90,
                "velocity": 101,
                "duration": 1.2795,
                "tempo": 120.0
            },
            {
                "pitch": 51,
                "velocity": 101,
                "duration": 1.2795,
                "tempo": 120.0
            },
            {
                "pitch": 77,
                "velocity": 101,
                "duration": 0.8,
                "tempo": 120.0
            },
            {
                "pitch": 82,
                "velocity": 101,
                "duration": 0.475,
                "tempo": 120.0
            },
            {
                "pitch": 90,
                "velocity": 101,
                "duration": 1.275,
                "tempo": 120.0
            },
            {
                "pitch": 77,
                "velocity": 101,
                "duration": 0.7955,
                "tempo": 120.0
            },
            {
                "pitch": 82,
                "velocity": 101,
                "duration": 0.6386,
                "tempo": 120.0
            },
            {
                "pitch": 75,
                "velocity": 101,
                "duration": 0.6409,
                "tempo": 120.0
            },
            {
                "pitch": 82,
                "velocity": 101,
                "duration": 0.6409,
                "tempo": 120.0
            },
            {
                "pitch": 89,
                "velocity": 101,
                "duration": 1.2818,
                "tempo": 120.0
            },
            {
                "pitch": 51,
                "velocity": 101,
                "duration": 3.8295,
                "tempo": 120.0
            },
            {
                "pitch": 75,
                "velocity": 101,
                "duration": 0.6386,
                "tempo": 120.0
            },
            {
                "pitch": 82,
                "velocity": 101,
                "duration": 0.6295,
                "tempo": 120.0
            },
            {
                "pitch": 89,
                "velocity": 101,
                "duration": 1.2682,
                "tempo": 120.0
            },
            {
                "pitch": 51,
                "velocity": 101,
                "duration": 1.2705,
                "tempo": 120.0
            },
            {
                "pitch": 75,
                "velocity": 101,
                "duration": 0.6409,
                "tempo": 120.0
            },
            {
                "pitch": 82,
                "velocity": 101,
                "duration": 0.6386,
                "tempo": 120.0
            },
            {
                "pitch": 89,
                "velocity": 101,
                "duration": 1.2795,
                "tempo": 120.0
            },
            {
                "pitch": 51,
                "velocity": 101,
                "duration": 1.2795,
                "tempo": 120.0
            },
            {
                "pitch": 75,
                "velocity": 101,
                "duration": 0.6409,
                "tempo": 120.0
            },
            {
                "pitch": 82,
                "velocity": 101,
                "duration": 0.6386,
                "tempo": 120.0
            },
            {
                "pitch": 51,
                "velocity": 101,
                "duration": 1.2795,
                "tempo": 120.0
            },
            {
                "pitch": 75,
                "velocity": 101,
                "duration": 0.6409,
                "tempo": 120.0
            },
            {
                "pitch": 82,
                "velocity": 101,
                "duration": 0.6295,
                "tempo": 120.0
            },
            {
                "pitch": 89,
                "velocity": 101,
                "duration": 2.55,
                "tempo": 120.0
            },
            {
                "pitch": 51,
                "velocity": 101,
                "duration": 1.2682,
                "tempo": 120.0
            },
            {
                "pitch": 75,
                "velocity": 101,
                "duration": 0.6386,
                "tempo": 120.0
            },
            {
                "pitch": 82,
                "velocity": 101,
                "duration": 0.6409,
                "tempo": 120.0
            },
            {
                "pitch": 89,
                "velocity": 101,
                "duration": 1.2795,
                "tempo": 120.0
            },
            {
                "pitch": 51,
                "velocity": 101,
                "duration": 1.2795,
                "tempo": 120.0
            },
            {
                "pitch": 75,
                "velocity": 101,
                "duration": 0.6386,
                "tempo": 120.0
            },
            {
                "pitch": 82,
                "velocity": 101,
                "duration": 0.6295,
                "tempo": 120.0
            },
            {
                "pitch": 89,
                "velocity": 101,
                "duration": 1.2682,
                "tempo": 120.0
            },
            {
                "pitch": 75,
                "velocity": 101,
                "duration": 0.6409,
                "tempo": 120.0
            },
            {
                "pitch": 82,
                "velocity": 101,
                "duration": 0.6386,
                "tempo": 120.0
            },
            {
                "pitch": 89,
                "velocity": 101,
                "duration": 1.2795,
                "tempo": 120.0
            },
            {
                "pitch": 75,
                "velocity": 101,
                "duration": 0.6409,
                "tempo": 120.0
            },
            {
                "pitch": 75,
                "velocity": 101,
                "duration": 2.5477,
                "tempo": 120.0
            },
            {
                "pitch": 73,
                "velocity": 101,
                "duration": 1.6,
                "tempo": 120.0
            },
            {
                "pitch": 51,
                "velocity": 101,
                "duration": 7.6477,
                "tempo": 120.0
            },
            {
                "pitch": 72,
                "velocity": 101,
                "duration": 0.95,
                "tempo": 120.0
            },
            {
                "pitch": 82,
                "velocity": 101,
                "duration": 0.6409,
                "tempo": 120.0
            },
            {
                "pitch": 89,
                "velocity": 101,
                "duration": 6.3795,
                "tempo": 120.0
            },
            {
                "pitch": 51,
                "velocity": 101,
                "duration": 1.2795,
                "tempo": 120.0
            },
            {
                "pitch": 75,
                "velocity": 101,
                "duration": 0.6386,
                "tempo": 120.0
            },
            {
                "pitch": 82,
                "velocity": 101,
                "duration": 0.6295,
                "tempo": 120.0
            },
            {
                "pitch": 89,
                "velocity": 101,
                "duration": 1.2682,
                "tempo": 120.0
            },
            {
                "pitch": 75,
                "velocity": 101,
                "duration": 0.6409,
                "tempo": 120.0
            },
            {
                "pitch": 82,
                "velocity": 101,
                "duration": 0.6386,
                "tempo": 120.0
            },
            {
                "pitch": 89,
                "velocity": 101,
                "duration": 1.2795,
                "tempo": 120.0
            },
            {
                "pitch": 51,
                "velocity": 101,
                "duration": 2.55,
                "tempo": 120.0
            },
            {
                "pitch": 75,
                "velocity": 101,
                "duration": 0.6409,
                "tempo": 120.0
            },
            {
                "pitch": 82,
                "velocity": 101,
                "duration": 0.6386,
                "tempo": 120.0
            },
            {
                "pitch": 75,
                "velocity": 101,
                "duration": 0.6409,
                "tempo": 120.0
            },
            {
                "pitch": 82,
                "velocity": 101,
                "duration": 0.6295,
                "tempo": 120.0
            },
            {
                "pitch": 89,
                "velocity": 101,
                "duration": 2.55,
                "tempo": 120.0
            },
            {
                "pitch": 51,
                "velocity": 101,
                "duration": 2.5477,
                "tempo": 120.0
            },
            {
                "pitch": 75,
                "velocity": 101,
                "duration": 0.6386,
                "tempo": 120.0
            },
            {
                "pitch": 82,
                "velocity": 101,
                "duration": 0.6409,
                "tempo": 120.0
            },
            {
                "pitch": 89,
                "velocity": 101,
                "duration": 1.2795,
                "tempo": 120.0
            },
            {
                "pitch": 51,
                "velocity": 101,
                "duration": 1.2795,
                "tempo": 120.0
            },
            {
                "pitch": 75,
                "velocity": 101,
                "duration": 0.6386,
                "tempo": 120.0
            },
            {
                "pitch": 82,
                "velocity": 101,
                "duration": 0.6295,
                "tempo": 120.0
            },
            {
                "pitch": 89,
                "velocity": 101,
                "duration": 1.2682,
                "tempo": 120.0
            },
            {
                "pitch": 75,
                "velocity": 101,
                "duration": 0.6409,
                "tempo": 120.0
            },
            {
                "pitch": 82,
                "velocity": 101,
                "duration": 0.6386,
                "tempo": 120.0
            },
            {
                "pitch": 89,
                "velocity": 101,
                "duration": 1.2795,
                "tempo": 120.0
            },
            {
                "pitch": 75,
                "velocity": 101,
                "duration": 0.6409,
                "tempo": 120.0
            },
            {
                "pitch": 75,
                "velocity": 101,
                "duration": 2.55,
                "tempo": 120.0
            },
            {
                "pitch": 73,
                "velocity": 101,
                "duration": 1.5977,
                "tempo": 120.0
            },
            {
                "pitch": 72,
                "velocity": 101,
                "duration": 0.4795,
                "tempo": 120.0
            }
        ],
        "Electric Piano 1": [
            {
                "pitch": 34,
                "velocity": 127,
                "duration": 0.1591,
                "tempo": 120.0
            },
            {
                "pitch": 34,
                "velocity": 127,
                "duration": 0.1591,
                "tempo": 120.0
            },
            {
                "pitch": 34,
                "velocity": 127,
                "duration": 0.1614,
                "tempo": 120.0
            },
            {
                "pitch": 34,
                "velocity": 127,
                "duration": 0.1591,
                "tempo": 120.0
            },
            {
                "pitch": 34,
                "velocity": 127,
                "duration": 0.1614,
                "tempo": 120.0
            },
            {
                "pitch": 34,
                "velocity": 127,
                "duration": 0.1591,
                "tempo": 120.0
            },
            {
                "pitch": 34,
                "velocity": 127,
                "duration": 0.1591,
                "tempo": 120.0
            },
            {
                "pitch": 34,
                "velocity": 127,
                "duration": 0.1614,
                "tempo": 120.0
            },
            {
                "pitch": 34,
                "velocity": 127,
                "duration": 0.1591,
                "tempo": 120.0
            },
            {
                "pitch": 34,
                "velocity": 127,
                "duration": 0.1591,
                "tempo": 120.0
            },
            {
                "pitch": 34,
                "velocity": 127,
                "duration": 0.1614,
                "tempo": 120.0
            },
            {
                "pitch": 34,
                "velocity": 127,
                "duration": 0.1591,
                "tempo": 120.0
            },
            {
                "pitch": 34,
                "velocity": 127,
                "duration": 0.1614,
                "tempo": 120.0
            },
            {
                "pitch": 34,
                "velocity": 127,
                "duration": 0.1591,
                "tempo": 120.0
            },
            {
                "pitch": 34,
                "velocity": 127,
                "duration": 0.1591,
                "tempo": 120.0
            },
            {
                "pitch": 34,
                "velocity": 127,
                "duration": 0.1614,
                "tempo": 120.0
            },
            {
                "pitch": 34,
                "velocity": 127,
                "duration": 0.1591,
                "tempo": 120.0
            },
            {
                "pitch": 34,
                "velocity": 127,
                "duration": 0.1591,
                "tempo": 120.0
            },
            {
                "pitch": 34,
                "velocity": 127,
                "duration": 0.1614,
                "tempo": 120.0
            },
            {
                "pitch": 34,
                "velocity": 127,
                "duration": 0.1591,
                "tempo": 120.0
            },
            {
                "pitch": 34,
                "velocity": 127,
                "duration": 0.1545,
                "tempo": 120.0
            },
            {
                "pitch": 34,
                "velocity": 127,
                "duration": 0.1545,
                "tempo": 120.0
            },
            {
                "pitch": 34,
                "velocity": 127,
                "duration": 0.1659,
                "tempo": 120.0
            },
            {
                "pitch": 34,
                "velocity": 127,
                "duration": 0.1659,
                "tempo": 120.0
            },
            {
                "pitch": 34,
                "velocity": 127,
                "duration": 0.1545,
                "tempo": 120.0
            },
            {
                "pitch": 34,
                "velocity": 127,
                "duration": 0.1545,
                "tempo": 120.0
            },
            {
                "pitch": 34,
                "velocity": 127,
                "duration": 0.1659,
                "tempo": 120.0
            },
            {
                "pitch": 34,
                "velocity": 127,
                "duration": 0.1636,
                "tempo": 120.0
            },
            {
                "pitch": 34,
                "velocity": 127,
                "duration": 0.1545,
                "tempo": 120.0
            },
            {
                "pitch": 34,
                "velocity": 127,
                "duration": 0.1568,
                "tempo": 120.0
            },
            {
                "pitch": 34,
                "velocity": 127,
                "duration": 0.1591,
                "tempo": 120.0
            },
            {
                "pitch": 34,
                "velocity": 127,
                "duration": 0.1591,
                "tempo": 120.0
            },
            {
                "pitch": 34,
                "velocity": 127,
                "duration": 0.1614,
                "tempo": 120.0
            },
            {
                "pitch": 34,
                "velocity": 127,
                "duration": 0.1591,
                "tempo": 120.0
            },
            {
                "pitch": 46,
                "velocity": 127,
                "duration": 0.1614,
                "tempo": 120.0
            },
            {
                "pitch": 34,
                "velocity": 127,
                "duration": 0.1591,
                "tempo": 120.0
            },
            {
                "pitch": 34,
                "velocity": 127,
                "duration": 0.1591,
                "tempo": 120.0
            },
            {
                "pitch": 34,
                "velocity": 127,
                "duration": 0.1614,
                "tempo": 120.0
            },
            {
                "pitch": 46,
                "velocity": 127,
                "duration": 0.1591,
                "tempo": 120.0
            },
            {
                "pitch": 34,
                "velocity": 127,
                "duration": 0.1591,
                "tempo": 120.0
            },
            {
                "pitch": 34,
                "velocity": 127,
                "duration": 0.1614,
                "tempo": 120.0
            },
            {
                "pitch": 34,
                "velocity": 127,
                "duration": 0.1591,
                "tempo": 120.0
            },
            {
                "pitch": 46,
                "velocity": 127,
                "duration": 0.1614,
                "tempo": 120.0
            },
            {
                "pitch": 34,
                "velocity": 127,
                "duration": 0.1591,
                "tempo": 120.0
            },
            {
                "pitch": 34,
                "velocity": 127,
                "duration": 0.1545,
                "tempo": 120.0
            },
            {
                "pitch": 34,
                "velocity": 127,
                "duration": 0.1545,
                "tempo": 120.0
            },
            {
                "pitch": 46,
                "velocity": 127,
                "duration": 0.1614,
                "tempo": 120.0
            },
            {
                "pitch": 34,
                "velocity": 127,
                "duration": 0.1591,
                "tempo": 120.0
            },
            {
                "pitch": 34,
                "velocity": 127,
                "duration": 0.1591,
                "tempo": 120.0
            },
            {
                "pitch": 34,
                "velocity": 127,
                "duration": 0.1614,
                "tempo": 120.0
            },
            {
                "pitch": 46,
                "velocity": 127,
                "duration": 0.1591,
                "tempo": 120.0
            },
            {
                "pitch": 34,
                "velocity": 127,
                "duration": 0.1591,
                "tempo": 120.0
            },
            {
                "pitch": 34,
                "velocity": 127,
                "duration": 0.1614,
                "tempo": 120.0
            },
            {
                "pitch": 34,
                "velocity": 127,
                "duration": 0.1591,
                "tempo": 120.0
            },
            {
                "pitch": 46,
                "velocity": 127,
                "duration": 0.1614,
                "tempo": 120.0
            },
            {
                "pitch": 34,
                "velocity": 127,
                "duration": 0.1591,
                "tempo": 120.0
            },
            {
                "pitch": 34,
                "velocity": 127,
                "duration": 0.1591,
                "tempo": 120.0
            },
            {
                "pitch": 34,
                "velocity": 127,
                "duration": 0.1614,
                "tempo": 120.0
            },
            {
                "pitch": 46,
                "velocity": 127,
                "duration": 0.1591,
                "tempo": 120.0
            },
            {
                "pitch": 34,
                "velocity": 127,
                "duration": 0.1591,
                "tempo": 120.0
            },
            {
                "pitch": 34,
                "velocity": 127,
                "duration": 0.1614,
                "tempo": 120.0
            },
            {
                "pitch": 34,
                "velocity": 127,
                "duration": 0.1591,
                "tempo": 120.0
            },
            {
                "pitch": 46,
                "velocity": 127,
                "duration": 0.1614,
                "tempo": 120.0
            },
            {
                "pitch": 34,
                "velocity": 127,
                "duration": 0.1591,
                "tempo": 120.0
            },
            {
                "pitch": 34,
                "velocity": 127,
                "duration": 0.1591,
                "tempo": 120.0
            },
            {
                "pitch": 34,
                "velocity": 127,
                "duration": 0.1614,
                "tempo": 120.0
            },
            {
                "pitch": 46,
                "velocity": 127,
                "duration": 0.1591,
                "tempo": 120.0
            },
            {
                "pitch": 34,
                "velocity": 127,
                "duration": 0.1591,
                "tempo": 120.0
            },
            {
                "pitch": 34,
                "velocity": 127,
                "duration": 0.1568,
                "tempo": 120.0
            },
            {
                "pitch": 34,
                "velocity": 127,
                "duration": 0.1545,
                "tempo": 120.0
            },
            {
                "pitch": 46,
                "velocity": 127,
                "duration": 0.1591,
                "tempo": 120.0
            },
            {
                "pitch": 34,
                "velocity": 127,
                "duration": 0.1614,
                "tempo": 120.0
            },
            {
                "pitch": 34,
                "velocity": 127,
                "duration": 0.1591,
                "tempo": 120.0
            },
            {
                "pitch": 34,
                "velocity": 127,
                "duration": 0.1591,
                "tempo": 120.0
            },
            {
                "pitch": 46,
                "velocity": 127,
                "duration": 0.1614,
                "tempo": 120.0
            },
            {
                "pitch": 34,
                "velocity": 127,
                "duration": 0.1591,
                "tempo": 120.0
            },
            {
                "pitch": 34,
                "velocity": 127,
                "duration": 0.1614,
                "tempo": 120.0
            },
            {
                "pitch": 34,
                "velocity": 127,
                "duration": 0.1591,
                "tempo": 120.0
            },
            {
                "pitch": 46,
                "velocity": 127,
                "duration": 0.1591,
                "tempo": 120.0
            },
            {
                "pitch": 34,
                "velocity": 127,
                "duration": 0.1614,
                "tempo": 120.0
            },
            {
                "pitch": 34,
                "velocity": 127,
                "duration": 0.1591,
                "tempo": 120.0
            },
            {
                "pitch": 34,
                "velocity": 127,
                "duration": 0.1591,
                "tempo": 120.0
            },
            {
                "pitch": 46,
                "velocity": 127,
                "duration": 0.1614,
                "tempo": 120.0
            },
            {
                "pitch": 34,
                "velocity": 127,
                "duration": 0.1591,
                "tempo": 120.0
            },
            {
                "pitch": 34,
                "velocity": 127,
                "duration": 0.1545,
                "tempo": 120.0
            },
            {
                "pitch": 34,
                "velocity": 127,
                "duration": 0.1545,
                "tempo": 120.0
            },
            {
                "pitch": 46,
                "velocity": 127,
                "duration": 0.1614,
                "tempo": 120.0
            },
            {
                "pitch": 34,
                "velocity": 127,
                "duration": 0.1591,
                "tempo": 120.0
            },
            {
                "pitch": 34,
                "velocity": 127,
                "duration": 0.1614,
                "tempo": 120.0
            },
            {
                "pitch": 34,
                "velocity": 127,
                "duration": 0.1591,
                "tempo": 120.0
            },
            {
                "pitch": 46,
                "velocity": 127,
                "duration": 0.1591,
                "tempo": 120.0
            },
            {
                "pitch": 34,
                "velocity": 127,
                "duration": 0.1614,
                "tempo": 120.0
            },
            {
                "pitch": 34,
                "velocity": 127,
                "duration": 0.1591,
                "tempo": 120.0
            },
            {
                "pitch": 34,
                "velocity": 127,
                "duration": 0.1591,
                "tempo": 120.0
            },
            {
                "pitch": 46,
                "velocity": 127,
                "duration": 0.1614,
                "tempo": 120.0
            },
            {
                "pitch": 34,
                "velocity": 127,
                "duration": 0.1591,
                "tempo": 120.0
            },
            {
                "pitch": 32,
                "velocity": 127,
                "duration": 0.1591,
                "tempo": 120.0
            },
            {
                "pitch": 32,
                "velocity": 127,
                "duration": 0.1614,
                "tempo": 120.0
            },
            {
                "pitch": 32,
                "velocity": 127,
                "duration": 0.1591,
                "tempo": 120.0
            },
            {
                "pitch": 32,
                "velocity": 127,
                "duration": 0.1614,
                "tempo": 120.0
            },
            {
                "pitch": 32,
                "velocity": 127,
                "duration": 0.1591,
                "tempo": 120.0
            },
            {
                "pitch": 32,
                "velocity": 127,
                "duration": 0.1591,
                "tempo": 120.0
            },
            {
                "pitch": 32,
                "velocity": 127,
                "duration": 0.1614,
                "tempo": 120.0
            },
            {
                "pitch": 32,
                "velocity": 127,
                "duration": 0.1591,
                "tempo": 120.0
            },
            {
                "pitch": 32,
                "velocity": 127,
                "duration": 0.1545,
                "tempo": 120.0
            },
            {
                "pitch": 32,
                "velocity": 127,
                "duration": 0.1545,
                "tempo": 120.0
            },
            {
                "pitch": 32,
                "velocity": 127,
                "duration": 0.1659,
                "tempo": 120.0
            },
            {
                "pitch": 32,
                "velocity": 127,
                "duration": 0.1659,
                "tempo": 120.0
            },
            {
                "pitch": 32,
                "velocity": 127,
                "duration": 0.1545,
                "tempo": 120.0
            },
            {
                "pitch": 32,
                "velocity": 127,
                "duration": 0.1545,
                "tempo": 120.0
            },
            {
                "pitch": 44,
                "velocity": 127,
                "duration": 0.1591,
                "tempo": 120.0
            },
            {
                "pitch": 32,
                "velocity": 127,
                "duration": 0.1614,
                "tempo": 120.0
            },
            {
                "pitch": 30,
                "velocity": 127,
                "duration": 0.1591,
                "tempo": 120.0
            },
            {
                "pitch": 30,
                "velocity": 127,
                "duration": 0.1614,
                "tempo": 120.0
            },
            {
                "pitch": 30,
                "velocity": 127,
                "duration": 0.1591,
                "tempo": 120.0
            },
            {
                "pitch": 30,
                "velocity": 127,
                "duration": 0.1591,
                "tempo": 120.0
            },
            {
                "pitch": 30,
                "velocity": 127,
                "duration": 0.1614,
                "tempo": 120.0
            },
            {
                "pitch": 30,
                "velocity": 127,
                "duration": 0.1591,
                "tempo": 120.0
            },
            {
                "pitch": 42,
                "velocity": 127,
                "duration": 1.1182,
                "tempo": 120.0
            },
            {
                "pitch": 42,
                "velocity": 127,
                "duration": 0.1591,
                "tempo": 120.0
            },
            {
                "pitch": 30,
                "velocity": 127,
                "duration": 0.1614,
                "tempo": 120.0
            },
            {
                "pitch": 32,
                "velocity": 127,
                "duration": 0.1591,
                "tempo": 120.0
            },
            {
                "pitch": 32,
                "velocity": 127,
                "duration": 0.1591,
                "tempo": 120.0
            },
            {
                "pitch": 32,
                "velocity": 127,
                "duration": 0.1614,
                "tempo": 120.0
            },
            {
                "pitch": 32,
                "velocity": 127,
                "duration": 0.1591,
                "tempo": 120.0
            },
            {
                "pitch": 32,
                "velocity": 127,
                "duration": 0.1545,
                "tempo": 120.0
            },
            {
                "pitch": 32,
                "velocity": 127,
                "duration": 0.1568,
                "tempo": 120.0
            },
            {
                "pitch": 44,
                "velocity": 127,
                "duration": 0.1591,
                "tempo": 120.0
            },
            {
                "pitch": 32,
                "velocity": 127,
                "duration": 0.1591,
                "tempo": 120.0
            },
            {
                "pitch": 34,
                "velocity": 127,
                "duration": 0.1614,
                "tempo": 120.0
            },
            {
                "pitch": 34,
                "velocity": 127,
                "duration": 0.1591,
                "tempo": 120.0
            },
            {
                "pitch": 46,
                "velocity": 127,
                "duration": 0.1614,
                "tempo": 120.0
            },
            {
                "pitch": 34,
                "velocity": 127,
                "duration": 0.1591,
                "tempo": 120.0
            },
            {
                "pitch": 34,
                "velocity": 127,
                "duration": 0.1591,
                "tempo": 120.0
            },
            {
                "pitch": 34,
                "velocity": 127,
                "duration": 0.1614,
                "tempo": 120.0
            },
            {
                "pitch": 46,
                "velocity": 127,
                "duration": 0.1591,
                "tempo": 120.0
            },
            {
                "pitch": 34,
                "velocity": 127,
                "duration": 0.1591,
                "tempo": 120.0
            },
            {
                "pitch": 34,
                "velocity": 127,
                "duration": 0.1614,
                "tempo": 120.0
            },
            {
                "pitch": 34,
                "velocity": 127,
                "duration": 0.1591,
                "tempo": 120.0
            },
            {
                "pitch": 46,
                "velocity": 127,
                "duration": 0.1614,
                "tempo": 120.0
            },
            {
                "pitch": 34,
                "velocity": 127,
                "duration": 0.1591,
                "tempo": 120.0
            },
            {
                "pitch": 34,
                "velocity": 127,
                "duration": 0.1545,
                "tempo": 120.0
            },
            {
                "pitch": 34,
                "velocity": 127,
                "duration": 0.1545,
                "tempo": 120.0
            },
            {
                "pitch": 46,
                "velocity": 127,
                "duration": 0.1659,
                "tempo": 120.0
            },
            {
                "pitch": 34,
                "velocity": 127,
                "duration": 0.1636,
                "tempo": 120.0
            },
            {
                "pitch": 34,
                "velocity": 127,
                "duration": 0.1545,
                "tempo": 120.0
            },
            {
                "pitch": 34,
                "velocity": 127,
                "duration": 0.1568,
                "tempo": 120.0
            },
            {
                "pitch": 46,
                "velocity": 127,
                "duration": 0.1636,
                "tempo": 120.0
            },
            {
                "pitch": 34,
                "velocity": 127,
                "duration": 0.1659,
                "tempo": 120.0
            },
            {
                "pitch": 34,
                "velocity": 127,
                "duration": 0.1545,
                "tempo": 120.0
            },
            {
                "pitch": 34,
                "velocity": 127,
                "duration": 0.1545,
                "tempo": 120.0
            },
            {
                "pitch": 46,
                "velocity": 127,
                "duration": 0.1614,
                "tempo": 120.0
            },
            {
                "pitch": 34,
                "velocity": 127,
                "duration": 0.1591,
                "tempo": 120.0
            },
            {
                "pitch": 34,
                "velocity": 127,
                "duration": 0.1591,
                "tempo": 120.0
            },
            {
                "pitch": 34,
                "velocity": 127,
                "duration": 0.1614,
                "tempo": 120.0
            },
            {
                "pitch": 46,
                "velocity": 127,
                "duration": 0.1591,
                "tempo": 120.0
            },
            {
                "pitch": 34,
                "velocity": 127,
                "duration": 0.1614,
                "tempo": 120.0
            },
            {
                "pitch": 34,
                "velocity": 127,
                "duration": 0.1591,
                "tempo": 120.0
            },
            {
                "pitch": 34,
                "velocity": 127,
                "duration": 0.1591,
                "tempo": 120.0
            },
            {
                "pitch": 46,
                "velocity": 127,
                "duration": 0.1614,
                "tempo": 120.0
            },
            {
                "pitch": 34,
                "velocity": 127,
                "duration": 0.1591,
                "tempo": 120.0
            },
            {
                "pitch": 34,
                "velocity": 127,
                "duration": 0.1591,
                "tempo": 120.0
            },
            {
                "pitch": 34,
                "velocity": 127,
                "duration": 0.1614,
                "tempo": 120.0
            },
            {
                "pitch": 46,
                "velocity": 127,
                "duration": 0.1591,
                "tempo": 120.0
            },
            {
                "pitch": 34,
                "velocity": 127,
                "duration": 0.1591,
                "tempo": 120.0
            },
            {
                "pitch": 34,
                "velocity": 127,
                "duration": 0.1568,
                "tempo": 120.0
            },
            {
                "pitch": 34,
                "velocity": 127,
                "duration": 0.1545,
                "tempo": 120.0
            },
            {
                "pitch": 46,
                "velocity": 127,
                "duration": 0.1591,
                "tempo": 120.0
            },
            {
                "pitch": 34,
                "velocity": 127,
                "duration": 0.1614,
                "tempo": 120.0
            },
            {
                "pitch": 34,
                "velocity": 127,
                "duration": 0.1591,
                "tempo": 120.0
            },
            {
                "pitch": 34,
                "velocity": 127,
                "duration": 0.1591,
                "tempo": 120.0
            },
            {
                "pitch": 46,
                "velocity": 127,
                "duration": 0.1614,
                "tempo": 120.0
            },
            {
                "pitch": 34,
                "velocity": 127,
                "duration": 0.1591,
                "tempo": 120.0
            },
            {
                "pitch": 34,
                "velocity": 127,
                "duration": 0.1614,
                "tempo": 120.0
            },
            {
                "pitch": 34,
                "velocity": 127,
                "duration": 0.1591,
                "tempo": 120.0
            },
            {
                "pitch": 46,
                "velocity": 127,
                "duration": 0.1591,
                "tempo": 120.0
            },
            {
                "pitch": 34,
                "velocity": 127,
                "duration": 0.1614,
                "tempo": 120.0
            },
            {
                "pitch": 34,
                "velocity": 127,
                "duration": 0.1591,
                "tempo": 120.0
            },
            {
                "pitch": 34,
                "velocity": 127,
                "duration": 0.1591,
                "tempo": 120.0
            },
            {
                "pitch": 46,
                "velocity": 127,
                "duration": 0.1614,
                "tempo": 120.0
            },
            {
                "pitch": 34,
                "velocity": 127,
                "duration": 0.1591,
                "tempo": 120.0
            },
            {
                "pitch": 34,
                "velocity": 127,
                "duration": 0.1545,
                "tempo": 120.0
            },
            {
                "pitch": 34,
                "velocity": 127,
                "duration": 0.1545,
                "tempo": 120.0
            },
            {
                "pitch": 46,
                "velocity": 127,
                "duration": 0.1659,
                "tempo": 120.0
            },
            {
                "pitch": 34,
                "velocity": 127,
                "duration": 0.1659,
                "tempo": 120.0
            },
            {
                "pitch": 34,
                "velocity": 127,
                "duration": 0.1545,
                "tempo": 120.0
            },
            {
                "pitch": 34,
                "velocity": 127,
                "duration": 0.1545,
                "tempo": 120.0
            },
            {
                "pitch": 46,
                "velocity": 127,
                "duration": 0.1659,
                "tempo": 120.0
            },
            {
                "pitch": 34,
                "velocity": 127,
                "duration": 0.1636,
                "tempo": 120.0
            },
            {
                "pitch": 34,
                "velocity": 127,
                "duration": 0.1545,
                "tempo": 120.0
            },
            {
                "pitch": 34,
                "velocity": 127,
                "duration": 0.1568,
                "tempo": 120.0
            },
            {
                "pitch": 46,
                "velocity": 127,
                "duration": 0.1591,
                "tempo": 120.0
            },
            {
                "pitch": 34,
                "velocity": 127,
                "duration": 0.1591,
                "tempo": 120.0
            },
            {
                "pitch": 32,
                "velocity": 127,
                "duration": 0.1614,
                "tempo": 120.0
            },
            {
                "pitch": 32,
                "velocity": 127,
                "duration": 0.1591,
                "tempo": 120.0
            },
            {
                "pitch": 32,
                "velocity": 127,
                "duration": 0.1591,
                "tempo": 120.0
            },
            {
                "pitch": 32,
                "velocity": 127,
                "duration": 0.1614,
                "tempo": 120.0
            },
            {
                "pitch": 32,
                "velocity": 127,
                "duration": 0.1591,
                "tempo": 120.0
            },
            {
                "pitch": 32,
                "velocity": 127,
                "duration": 0.1591,
                "tempo": 120.0
            },
            {
                "pitch": 32,
                "velocity": 127,
                "duration": 0.1614,
                "tempo": 120.0
            },
            {
                "pitch": 32,
                "velocity": 127,
                "duration": 0.1591,
                "tempo": 120.0
            },
            {
                "pitch": 32,
                "velocity": 127,
                "duration": 0.1614,
                "tempo": 120.0
            },
            {
                "pitch": 32,
                "velocity": 127,
                "duration": 0.1591,
                "tempo": 120.0
            },
            {
                "pitch": 32,
                "velocity": 127,
                "duration": 0.1591,
                "tempo": 120.0
            },
            {
                "pitch": 32,
                "velocity": 127,
                "duration": 0.1614,
                "tempo": 120.0
            },
            {
                "pitch": 32,
                "velocity": 127,
                "duration": 0.1545,
                "tempo": 120.0
            },
            {
                "pitch": 32,
                "velocity": 127,
                "duration": 0.1545,
                "tempo": 120.0
            },
            {
                "pitch": 44,
                "velocity": 127,
                "duration": 0.1591,
                "tempo": 120.0
            },
            {
                "pitch": 32,
                "velocity": 127,
                "duration": 0.1614,
                "tempo": 120.0
            },
            {
                "pitch": 30,
                "velocity": 127,
                "duration": 0.1591,
                "tempo": 120.0
            },
            {
                "pitch": 30,
                "velocity": 127,
                "duration": 0.1614,
                "tempo": 120.0
            },
            {
                "pitch": 30,
                "velocity": 127,
                "duration": 0.1591,
                "tempo": 120.0
            },
            {
                "pitch": 30,
                "velocity": 127,
                "duration": 0.1591,
                "tempo": 120.0
            },
            {
                "pitch": 30,
                "velocity": 127,
                "duration": 0.1614,
                "tempo": 120.0
            },
            {
                "pitch": 30,
                "velocity": 127,
                "duration": 0.1591,
                "tempo": 120.0
            },
            {
                "pitch": 42,
                "velocity": 127,
                "duration": 1.1182,
                "tempo": 120.0
            },
            {
                "pitch": 42,
                "velocity": 127,
                "duration": 0.1591,
                "tempo": 120.0
            },
            {
                "pitch": 30,
                "velocity": 127,
                "duration": 0.1614,
                "tempo": 120.0
            },
            {
                "pitch": 32,
                "velocity": 127,
                "duration": 0.1591,
                "tempo": 120.0
            },
            {
                "pitch": 32,
                "velocity": 127,
                "duration": 0.1614,
                "tempo": 120.0
            },
            {
                "pitch": 32,
                "velocity": 127,
                "duration": 0.1591,
                "tempo": 120.0
            },
            {
                "pitch": 32,
                "velocity": 127,
                "duration": 0.1591,
                "tempo": 120.0
            },
            {
                "pitch": 32,
                "velocity": 127,
                "duration": 0.1614,
                "tempo": 120.0
            },
            {
                "pitch": 32,
                "velocity": 127,
                "duration": 0.1591,
                "tempo": 120.0
            },
            {
                "pitch": 44,
                "velocity": 127,
                "duration": 0.1614,
                "tempo": 120.0
            },
            {
                "pitch": 32,
                "velocity": 127,
                "duration": 0.1591,
                "tempo": 120.0
            },
            {
                "pitch": 34,
                "velocity": 127,
                "duration": 0.1545,
                "tempo": 120.0
            },
            {
                "pitch": 34,
                "velocity": 127,
                "duration": 0.1545,
                "tempo": 120.0
            },
            {
                "pitch": 34,
                "velocity": 127,
                "duration": 0.1614,
                "tempo": 120.0
            },
            {
                "pitch": 34,
                "velocity": 127,
                "duration": 0.1591,
                "tempo": 120.0
            },
            {
                "pitch": 34,
                "velocity": 127,
                "duration": 0.1591,
                "tempo": 120.0
            },
            {
                "pitch": 34,
                "velocity": 127,
                "duration": 0.1614,
                "tempo": 120.0
            },
            {
                "pitch": 34,
                "velocity": 127,
                "duration": 0.1591,
                "tempo": 120.0
            },
            {
                "pitch": 34,
                "velocity": 127,
                "duration": 0.1591,
                "tempo": 120.0
            },
            {
                "pitch": 34,
                "velocity": 127,
                "duration": 0.1614,
                "tempo": 120.0
            },
            {
                "pitch": 34,
                "velocity": 127,
                "duration": 0.1591,
                "tempo": 120.0
            },
            {
                "pitch": 34,
                "velocity": 127,
                "duration": 0.1614,
                "tempo": 120.0
            },
            {
                "pitch": 34,
                "velocity": 127,
                "duration": 0.1591,
                "tempo": 120.0
            },
            {
                "pitch": 46,
                "velocity": 127,
                "duration": 0.1591,
                "tempo": 120.0
            },
            {
                "pitch": 34,
                "velocity": 127,
                "duration": 0.1614,
                "tempo": 120.0
            },
            {
                "pitch": 46,
                "velocity": 127,
                "duration": 0.1591,
                "tempo": 120.0
            },
            {
                "pitch": 34,
                "velocity": 127,
                "duration": 0.1591,
                "tempo": 120.0
            },
            {
                "pitch": 32,
                "velocity": 127,
                "duration": 0.1614,
                "tempo": 120.0
            },
            {
                "pitch": 32,
                "velocity": 127,
                "duration": 0.1591,
                "tempo": 120.0
            },
            {
                "pitch": 32,
                "velocity": 127,
                "duration": 0.1545,
                "tempo": 120.0
            },
            {
                "pitch": 32,
                "velocity": 127,
                "duration": 0.1545,
                "tempo": 120.0
            },
            {
                "pitch": 32,
                "velocity": 127,
                "duration": 0.1614,
                "tempo": 120.0
            },
            {
                "pitch": 32,
                "velocity": 127,
                "duration": 0.1591,
                "tempo": 120.0
            },
            {
                "pitch": 32,
                "velocity": 127,
                "duration": 0.1614,
                "tempo": 120.0
            },
            {
                "pitch": 32,
                "velocity": 127,
                "duration": 0.1591,
                "tempo": 120.0
            },
            {
                "pitch": 32,
                "velocity": 127,
                "duration": 0.1591,
                "tempo": 120.0
            },
            {
                "pitch": 32,
                "velocity": 127,
                "duration": 0.1614,
                "tempo": 120.0
            },
            {
                "pitch": 32,
                "velocity": 127,
                "duration": 0.1591,
                "tempo": 120.0
            },
            {
                "pitch": 32,
                "velocity": 127,
                "duration": 0.1614,
                "tempo": 120.0
            },
            {
                "pitch": 32,
                "velocity": 127,
                "duration": 0.1591,
                "tempo": 120.0
            },
            {
                "pitch": 32,
                "velocity": 127,
                "duration": 0.1591,
                "tempo": 120.0
            },
            {
                "pitch": 44,
                "velocity": 127,
                "duration": 0.1614,
                "tempo": 120.0
            },
            {
                "pitch": 32,
                "velocity": 127,
                "duration": 0.1591,
                "tempo": 120.0
            },
            {
                "pitch": 34,
                "velocity": 127,
                "duration": 0.1591,
                "tempo": 120.0
            },
            {
                "pitch": 34,
                "velocity": 127,
                "duration": 0.1614,
                "tempo": 120.0
            },
            {
                "pitch": 34,
                "velocity": 127,
                "duration": 0.1591,
                "tempo": 120.0
            },
            {
                "pitch": 34,
                "velocity": 127,
                "duration": 0.1591,
                "tempo": 120.0
            },
            {
                "pitch": 34,
                "velocity": 127,
                "duration": 0.1568,
                "tempo": 120.0
            },
            {
                "pitch": 34,
                "velocity": 127,
                "duration": 0.1545,
                "tempo": 120.0
            },
            {
                "pitch": 34,
                "velocity": 127,
                "duration": 0.1591,
                "tempo": 120.0
            },
            {
                "pitch": 34,
                "velocity": 127,
                "duration": 0.1614,
                "tempo": 120.0
            },
            {
                "pitch": 34,
                "velocity": 127,
                "duration": 0.1591,
                "tempo": 120.0
            },
            {
                "pitch": 34,
                "velocity": 127,
                "duration": 0.1591,
                "tempo": 120.0
            },
            {
                "pitch": 34,
                "velocity": 127,
                "duration": 0.1614,
                "tempo": 120.0
            },
            {
                "pitch": 34,
                "velocity": 127,
                "duration": 0.1591,
                "tempo": 120.0
            },
            {
                "pitch": 46,
                "velocity": 127,
                "duration": 0.1591,
                "tempo": 120.0
            },
            {
                "pitch": 34,
                "velocity": 127,
                "duration": 0.1614,
                "tempo": 120.0
            },
            {
                "pitch": 46,
                "velocity": 127,
                "duration": 0.1591,
                "tempo": 120.0
            },
            {
                "pitch": 34,
                "velocity": 127,
                "duration": 0.1614,
                "tempo": 120.0
            },
            {
                "pitch": 32,
                "velocity": 127,
                "duration": 0.1591,
                "tempo": 120.0
            },
            {
                "pitch": 32,
                "velocity": 127,
                "duration": 0.1591,
                "tempo": 120.0
            },
            {
                "pitch": 32,
                "velocity": 127,
                "duration": 0.1614,
                "tempo": 120.0
            },
            {
                "pitch": 32,
                "velocity": 127,
                "duration": 0.1591,
                "tempo": 120.0
            },
            {
                "pitch": 32,
                "velocity": 127,
                "duration": 0.1591,
                "tempo": 120.0
            },
            {
                "pitch": 32,
                "velocity": 127,
                "duration": 0.1614,
                "tempo": 120.0
            },
            {
                "pitch": 32,
                "velocity": 127,
                "duration": 0.1591,
                "tempo": 120.0
            },
            {
                "pitch": 32,
                "velocity": 127,
                "duration": 0.1614,
                "tempo": 120.0
            },
            {
                "pitch": 32,
                "velocity": 127,
                "duration": 0.1545,
                "tempo": 120.0
            },
            {
                "pitch": 32,
                "velocity": 127,
                "duration": 0.1545,
                "tempo": 120.0
            },
            {
                "pitch": 32,
                "velocity": 127,
                "duration": 0.1636,
                "tempo": 120.0
            },
            {
                "pitch": 32,
                "velocity": 127,
                "duration": 0.1636,
                "tempo": 120.0
            },
            {
                "pitch": 32,
                "velocity": 127,
                "duration": 0.1545,
                "tempo": 120.0
            },
            {
                "pitch": 32,
                "velocity": 127,
                "duration": 0.1568,
                "tempo": 120.0
            },
            {
                "pitch": 44,
                "velocity": 127,
                "duration": 0.1591,
                "tempo": 120.0
            },
            {
                "pitch": 32,
                "velocity": 127,
                "duration": 0.1591,
                "tempo": 120.0
            },
            {
                "pitch": 34,
                "velocity": 127,
                "duration": 0.1614,
                "tempo": 120.0
            },
            {
                "pitch": 34,
                "velocity": 127,
                "duration": 0.1591,
                "tempo": 120.0
            },
            {
                "pitch": 34,
                "velocity": 127,
                "duration": 0.1591,
                "tempo": 120.0
            },
            {
                "pitch": 34,
                "velocity": 127,
                "duration": 0.1614,
                "tempo": 120.0
            },
            {
                "pitch": 34,
                "velocity": 127,
                "duration": 0.1591,
                "tempo": 120.0
            },
            {
                "pitch": 34,
                "velocity": 127,
                "duration": 0.1614,
                "tempo": 120.0
            },
            {
                "pitch": 46,
                "velocity": 127,
                "duration": 0.1591,
                "tempo": 120.0
            },
            {
                "pitch": 34,
                "velocity": 127,
                "duration": 0.1591,
                "tempo": 120.0
            },
            {
                "pitch": 34,
                "velocity": 127,
                "duration": 0.1614,
                "tempo": 120.0
            },
            {
                "pitch": 34,
                "velocity": 127,
                "duration": 0.1591,
                "tempo": 120.0
            },
            {
                "pitch": 34,
                "velocity": 127,
                "duration": 0.1591,
                "tempo": 120.0
            },
            {
                "pitch": 34,
                "velocity": 127,
                "duration": 0.1614,
                "tempo": 120.0
            },
            {
                "pitch": 34,
                "velocity": 127,
                "duration": 0.1545,
                "tempo": 120.0
            },
            {
                "pitch": 34,
                "velocity": 127,
                "duration": 0.1545,
                "tempo": 120.0
            },
            {
                "pitch": 46,
                "velocity": 127,
                "duration": 0.1614,
                "tempo": 120.0
            },
            {
                "pitch": 34,
                "velocity": 127,
                "duration": 0.1591,
                "tempo": 120.0
            }
        ],
        "Clarinet": [
            {
                "pitch": 70,
                "velocity": 64,
                "duration": 0.6386,
                "tempo": 120.0
            },
            {
                "pitch": 77,
                "velocity": 64,
                "duration": 1.9091,
                "tempo": 120.0
            },
            {
                "pitch": 70,
                "velocity": 64,
                "duration": 0.1614,
                "tempo": 120.0
            },
            {
                "pitch": 74,
                "velocity": 64,
                "duration": 0.1591,
                "tempo": 120.0
            },
            {
                "pitch": 52,
                "velocity": 64,
                "duration": 2.5591,
                "tempo": 120.0
            },
            {
                "pitch": 75,
                "velocity": 64,
                "duration": 2.2386,
                "tempo": 120.0
            },
            {
                "pitch": 70,
                "velocity": 64,
                "duration": 0.6364,
                "tempo": 120.0
            },
            {
                "pitch": 78,
                "velocity": 64,
                "duration": 5.1045,
                "tempo": 120.0
            },
            {
                "pitch": 52,
                "velocity": 64,
                "duration": 2.55,
                "tempo": 120.0
            },
            {
                "pitch": 77,
                "velocity": 64,
                "duration": 4.9477,
                "tempo": 120.0
            },
            {
                "pitch": 77,
                "velocity": 64,
                "duration": 1.9136,
                "tempo": 120.0
            },
            {
                "pitch": 70,
                "velocity": 64,
                "duration": 0.1591,
                "tempo": 120.0
            },
            {
                "pitch": 74,
                "velocity": 64,
                "duration": 0.1614,
                "tempo": 120.0
            },
            {
                "pitch": 75,
                "velocity": 64,
                "duration": 2.2295,
                "tempo": 120.0
            },
            {
                "pitch": 74,
                "velocity": 64,
                "duration": 0.6386,
                "tempo": 120.0
            },
            {
                "pitch": 75,
                "velocity": 64,
                "duration": 1.4295,
                "tempo": 120.0
            },
            {
                "pitch": 77,
                "velocity": 64,
                "duration": 4.6182,
                "tempo": 120.0
            },
            {
                "pitch": 77,
                "velocity": 64,
                "duration": 0.1591,
                "tempo": 120.0
            },
            {
                "pitch": 75,
                "velocity": 64,
                "duration": 0.1614,
                "tempo": 120.0
            },
            {
                "pitch": 74,
                "velocity": 64,
                "duration": 0.1591,
                "tempo": 120.0
            },
            {
                "pitch": 70,
                "velocity": 64,
                "duration": 0.6409,
                "tempo": 120.0
            },
            {
                "pitch": 68,
                "velocity": 64,
                "duration": 0.6386,
                "tempo": 120.0
            },
            {
                "pitch": 68,
                "velocity": 64,
                "duration": 0.6386,
                "tempo": 120.0
            },
            {
                "pitch": 70,
                "velocity": 64,
                "duration": 0.3205,
                "tempo": 120.0
            },
            {
                "pitch": 70,
                "velocity": 64,
                "duration": 0.3205,
                "tempo": 120.0
            },
            {
                "pitch": 72,
                "velocity": 64,
                "duration": 0.3136,
                "tempo": 120.0
            },
            {
                "pitch": 73,
                "velocity": 64,
                "duration": 0.3159,
                "tempo": 120.0
            },
            {
                "pitch": 80,
                "velocity": 64,
                "duration": 0.3205,
                "tempo": 120.0
            },
            {
                "pitch": 70,
                "velocity": 64,
                "duration": 0.6386,
                "tempo": 120.0
            },
            {
                "pitch": 77,
                "velocity": 64,
                "duration": 1.9159,
                "tempo": 120.0
            },
            {
                "pitch": 70,
                "velocity": 64,
                "duration": 0.1545,
                "tempo": 120.0
            },
            {
                "pitch": 74,
                "velocity": 64,
                "duration": 0.1636,
                "tempo": 120.0
            },
            {
                "pitch": 52,
                "velocity": 64,
                "duration": 12.7545,
                "tempo": 120.0
            },
            {
                "pitch": 75,
                "velocity": 64,
                "duration": 2.2341,
                "tempo": 120.0
            },
            {
                "pitch": 70,
                "velocity": 64,
                "duration": 0.6364,
                "tempo": 120.0
            },
            {
                "pitch": 78,
                "velocity": 64,
                "duration": 15.3045,
                "tempo": 120.0
            },
            {
                "pitch": 52,
                "velocity": 64,
                "duration": 2.55,
                "tempo": 120.0
            },
            {
                "pitch": 77,
                "velocity": 64,
                "duration": 4.9477,
                "tempo": 120.0
            },
            {
                "pitch": 77,
                "velocity": 64,
                "duration": 1.9136,
                "tempo": 120.0
            },
            {
                "pitch": 70,
                "velocity": 64,
                "duration": 0.1591,
                "tempo": 120.0
            },
            {
                "pitch": 74,
                "velocity": 64,
                "duration": 0.1614,
                "tempo": 120.0
            },
            {
                "pitch": 75,
                "velocity": 64,
                "duration": 2.2295,
                "tempo": 120.0
            },
            {
                "pitch": 74,
                "velocity": 64,
                "duration": 0.6386,
                "tempo": 120.0
            },
            {
                "pitch": 75,
                "velocity": 64,
                "duration": 1.4295,
                "tempo": 120.0
            },
            {
                "pitch": 77,
                "velocity": 64,
                "duration": 0.1591,
                "tempo": 120.0
            },
            {
                "pitch": 75,
                "velocity": 64,
                "duration": 0.1614,
                "tempo": 120.0
            },
            {
                "pitch": 52,
                "velocity": 64,
                "duration": 5.0977,
                "tempo": 120.0
            },
            {
                "pitch": 74,
                "velocity": 64,
                "duration": 0.1591,
                "tempo": 120.0
            },
            {
                "pitch": 70,
                "velocity": 64,
                "duration": 0.6409,
                "tempo": 120.0
            },
            {
                "pitch": 68,
                "velocity": 64,
                "duration": 0.6386,
                "tempo": 120.0
            },
            {
                "pitch": 70,
                "velocity": 64,
                "duration": 0.6409,
                "tempo": 120.0
            },
            {
                "pitch": 76,
                "velocity": 64,
                "duration": 15.625,
                "tempo": 120.0
            },
            {
                "pitch": 72,
                "velocity": 64,
                "duration": 0.3205,
                "tempo": 120.0
            }
        ],
        "Violin": [
            {
                "pitch": 89,
                "velocity": 127,
                "duration": 0.6295,
                "tempo": 120.0
            },
            {
                "pitch": 87,
                "velocity": 127,
                "duration": 1.2795,
                "tempo": 120.0
            },
            {
                "pitch": 85,
                "velocity": 127,
                "duration": 0.6409,
                "tempo": 120.0
            },
            {
                "pitch": 85,
                "velocity": 127,
                "duration": 0.6295,
                "tempo": 120.0
            },
            {
                "pitch": 84,
                "velocity": 127,
                "duration": 1.9182,
                "tempo": 120.0
            },
            {
                "pitch": 89,
                "velocity": 127,
                "duration": 0.6386,
                "tempo": 120.0
            },
            {
                "pitch": 87,
                "velocity": 127,
                "duration": 1.2705,
                "tempo": 120.0
            },
            {
                "pitch": 85,
                "velocity": 127,
                "duration": 0.6409,
                "tempo": 120.0
            },
            {
                "pitch": 85,
                "velocity": 127,
                "duration": 0.6386,
                "tempo": 120.0
            },
            {
                "pitch": 84,
                "velocity": 127,
                "duration": 1.9091,
                "tempo": 120.0
            },
            {
                "pitch": 82,
                "velocity": 127,
                "duration": 2.2295,
                "tempo": 120.0
            }
        ]
    }
}