{
    "track_id": "08 Act 2, 7",
    "mood": "angry",
    "instruments": {
        "Acoustic Grand Piano": [
            {
                "pitch": 24,
                "velocity": 127,
                "duration": 0.0727,
                "tempo": 120.0
            },
            {
                "pitch": 31,
                "velocity": 127,
                "duration": 0.0727,
                "tempo": 120.0
            },
            {
                "pitch": 0,
                "velocity": 127,
                "duration": 0.2205,
                "tempo": 120.0
            },
            {
                "pitch": 27,
                "velocity": 127,
                "duration": 0.1477,
                "tempo": 120.0
            },
            {
                "pitch": 29,
                "velocity": 127,
                "duration": 0.075,
                "tempo": 120.0
            },
            {
                "pitch": 24,
                "velocity": 127,
                "duration": 0.15,
                "tempo": 120.0
            },
            {
                "pitch": 27,
                "velocity": 127,
                "duration": 0.3386,
                "tempo": 120.0
            },
            {
                "pitch": 22,
                "velocity": 127,
                "duration": 0.075,
                "tempo": 120.0
            },
            {
                "pitch": 24,
                "velocity": 127,
                "duration": 0.0727,
                "tempo": 120.0
            },
            {
                "pitch": 40,
                "velocity": 127,
                "duration": 0.8932,
                "tempo": 120.0
            },
            {
                "pitch": 31,
                "velocity": 127,
                "duration": 0.0727,
                "tempo": 120.0
            },
            {
                "pitch": 0,
                "velocity": 127,
                "duration": 0.8932,
                "tempo": 120.0
            },
            {
                "pitch": 27,
                "velocity": 127,
                "duration": 0.4818,
                "tempo": 120.0
            },
            {
                "pitch": 27,
                "velocity": 127,
                "duration": 0.1477,
                "tempo": 120.0
            },
            {
                "pitch": 29,
                "velocity": 127,
                "duration": 0.8545,
                "tempo": 120.0
            },
            {
                "pitch": 29,
                "velocity": 127,
                "duration": 0.0727,
                "tempo": 120.0
            },
            {
                "pitch": 24,
                "velocity": 127,
                "duration": 0.1477,
                "tempo": 120.0
            },
            {
                "pitch": 27,
                "velocity": 127,
                "duration": 0.3295,
                "tempo": 120.0
            },
            {
                "pitch": 22,
                "velocity": 127,
                "duration": 0.075,
                "tempo": 120.0
            },
            {
                "pitch": 2,
                "velocity": 127,
                "duration": 0.8841,
                "tempo": 120.0
            },
            {
                "pitch": 24,
                "velocity": 127,
                "duration": 0.0727,
                "tempo": 120.0
            },
            {
                "pitch": 40,
                "velocity": 127,
                "duration": 0.8818,
                "tempo": 120.0
            },
            {
                "pitch": 31,
                "velocity": 127,
                "duration": 0.075,
                "tempo": 120.0
            },
            {
                "pitch": 0,
                "velocity": 127,
                "duration": 0.8841,
                "tempo": 120.0
            },
            {
                "pitch": 27,
                "velocity": 127,
                "duration": 0.4795,
                "tempo": 120.0
            },
            {
                "pitch": 27,
                "velocity": 127,
                "duration": 0.1477,
                "tempo": 120.0
            },
            {
                "pitch": 29,
                "velocity": 127,
                "duration": 0.8477,
                "tempo": 120.0
            },
            {
                "pitch": 29,
                "velocity": 127,
                "duration": 0.075,
                "tempo": 120.0
            },
            {
                "pitch": 24,
                "velocity": 127,
                "duration": 0.1477,
                "tempo": 120.0
            },
            {
                "pitch": 27,
                "velocity": 127,
                "duration": 0.3318,
                "tempo": 120.0
            },
            {
                "pitch": 22,
                "velocity": 127,
                "duration": 0.0727,
                "tempo": 120.0
            },
            {
                "pitch": 2,
                "velocity": 127,
                "duration": 0.8841,
                "tempo": 120.0
            },
            {
                "pitch": 24,
                "velocity": 127,
                "duration": 0.0727,
                "tempo": 120.0
            },
            {
                "pitch": 40,
                "velocity": 127,
                "duration": 0.8841,
                "tempo": 120.0
            },
            {
                "pitch": 31,
                "velocity": 127,
                "duration": 0.0727,
                "tempo": 120.0
            },
            {
                "pitch": 0,
                "velocity": 127,
                "duration": 0.8841,
                "tempo": 120.0
            },
            {
                "pitch": 27,
                "velocity": 127,
                "duration": 0.4773,
                "tempo": 120.0
            },
            {
                "pitch": 27,
                "velocity": 127,
                "duration": 0.1455,
                "tempo": 120.0
            },
            {
                "pitch": 29,
                "velocity": 127,
                "duration": 0.8455,
                "tempo": 120.0
            },
            {
                "pitch": 29,
                "velocity": 127,
                "duration": 0.0727,
                "tempo": 120.0
            },
            {
                "pitch": 24,
                "velocity": 127,
                "duration": 0.1455,
                "tempo": 120.0
            },
            {
                "pitch": 27,
                "velocity": 127,
                "duration": 0.3318,
                "tempo": 120.0
            },
            {
                "pitch": 22,
                "velocity": 127,
                "duration": 0.0727,
                "tempo": 120.0
            },
            {
                "pitch": 2,
                "velocity": 127,
                "duration": 0.8818,
                "tempo": 120.0
            },
            {
                "pitch": 24,
                "velocity": 127,
                "duration": 0.075,
                "tempo": 120.0
            },
            {
                "pitch": 40,
                "velocity": 127,
                "duration": 0.8864,
                "tempo": 120.0
            },
            {
                "pitch": 31,
                "velocity": 127,
                "duration": 0.075,
                "tempo": 120.0
            },
            {
                "pitch": 0,
                "velocity": 127,
                "duration": 0.8886,
                "tempo": 120.0
            },
            {
                "pitch": 27,
                "velocity": 127,
                "duration": 0.4864,
                "tempo": 120.0
            },
            {
                "pitch": 27,
                "velocity": 127,
                "duration": 0.15,
                "tempo": 120.0
            },
            {
                "pitch": 29,
                "velocity": 127,
                "duration": 0.8545,
                "tempo": 120.0
            },
            {
                "pitch": 29,
                "velocity": 127,
                "duration": 0.0727,
                "tempo": 120.0
            },
            {
                "pitch": 24,
                "velocity": 127,
                "duration": 0.1432,
                "tempo": 120.0
            },
            {
                "pitch": 27,
                "velocity": 127,
                "duration": 0.325,
                "tempo": 120.0
            },
            {
                "pitch": 22,
                "velocity": 127,
                "duration": 0.0705,
                "tempo": 120.0
            },
            {
                "pitch": 2,
                "velocity": 127,
                "duration": 0.8841,
                "tempo": 120.0
            },
            {
                "pitch": 24,
                "velocity": 127,
                "duration": 0.0727,
                "tempo": 120.0
            },
            {
                "pitch": 40,
                "velocity": 127,
                "duration": 0.8818,
                "tempo": 120.0
            },
            {
                "pitch": 31,
                "velocity": 127,
                "duration": 0.0727,
                "tempo": 120.0
            },
            {
                "pitch": 0,
                "velocity": 127,
                "duration": 0.8773,
                "tempo": 120.0
            },
            {
                "pitch": 27,
                "velocity": 127,
                "duration": 0.475,
                "tempo": 120.0
            },
            {
                "pitch": 27,
                "velocity": 127,
                "duration": 0.1477,
                "tempo": 120.0
            },
            {
                "pitch": 29,
                "velocity": 127,
                "duration": 0.8386,
                "tempo": 120.0
            },
            {
                "pitch": 29,
                "velocity": 127,
                "duration": 0.0727,
                "tempo": 120.0
            },
            {
                "pitch": 24,
                "velocity": 127,
                "duration": 0.1477,
                "tempo": 120.0
            },
            {
                "pitch": 27,
                "velocity": 127,
                "duration": 0.3295,
                "tempo": 120.0
            },
            {
                "pitch": 22,
                "velocity": 127,
                "duration": 0.075,
                "tempo": 120.0
            },
            {
                "pitch": 2,
                "velocity": 127,
                "duration": 0.8841,
                "tempo": 120.0
            },
            {
                "pitch": 24,
                "velocity": 127,
                "duration": 0.0727,
                "tempo": 120.0
            },
            {
                "pitch": 40,
                "velocity": 127,
                "duration": 0.8841,
                "tempo": 120.0
            },
            {
                "pitch": 40,
                "velocity": 127,
                "duration": 0.0023,
                "tempo": 120.0
            },
            {
                "pitch": 31,
                "velocity": 127,
                "duration": 0.0727,
                "tempo": 120.0
            },
            {
                "pitch": 0,
                "velocity": 127,
                "duration": 0.8841,
                "tempo": 120.0
            },
            {
                "pitch": 27,
                "velocity": 127,
                "duration": 0.4795,
                "tempo": 120.0
            },
            {
                "pitch": 27,
                "velocity": 127,
                "duration": 0.1477,
                "tempo": 120.0
            },
            {
                "pitch": 29,
                "velocity": 127,
                "duration": 0.8477,
                "tempo": 120.0
            },
            {
                "pitch": 29,
                "velocity": 127,
                "duration": 0.075,
                "tempo": 120.0
            },
            {
                "pitch": 24,
                "velocity": 127,
                "duration": 0.1477,
                "tempo": 120.0
            },
            {
                "pitch": 27,
                "velocity": 127,
                "duration": 0.3318,
                "tempo": 120.0
            },
            {
                "pitch": 22,
                "velocity": 127,
                "duration": 0.0727,
                "tempo": 120.0
            },
            {
                "pitch": 2,
                "velocity": 127,
                "duration": 0.8841,
                "tempo": 120.0
            },
            {
                "pitch": 24,
                "velocity": 127,
                "duration": 0.0727,
                "tempo": 120.0
            },
            {
                "pitch": 31,
                "velocity": 127,
                "duration": 0.075,
                "tempo": 120.0
            },
            {
                "pitch": 0,
                "velocity": 127,
                "duration": 0.8841,
                "tempo": 120.0
            },
            {
                "pitch": 27,
                "velocity": 127,
                "duration": 0.4773,
                "tempo": 120.0
            },
            {
                "pitch": 27,
                "velocity": 127,
                "duration": 0.1455,
                "tempo": 120.0
            },
            {
                "pitch": 29,
                "velocity": 127,
                "duration": 0.8455,
                "tempo": 120.0
            },
            {
                "pitch": 29,
                "velocity": 127,
                "duration": 0.0727,
                "tempo": 120.0
            },
            {
                "pitch": 24,
                "velocity": 127,
                "duration": 0.1455,
                "tempo": 120.0
            },
            {
                "pitch": 27,
                "velocity": 127,
                "duration": 0.3318,
                "tempo": 120.0
            },
            {
                "pitch": 22,
                "velocity": 127,
                "duration": 0.0727,
                "tempo": 120.0
            },
            {
                "pitch": 2,
                "velocity": 127,
                "duration": 0.8818,
                "tempo": 120.0
            },
            {
                "pitch": 29,
                "velocity": 127,
                "duration": 0.4795,
                "tempo": 120.0
            },
            {
                "pitch": 29,
                "velocity": 127,
                "duration": 0.15,
                "tempo": 120.0
            },
            {
                "pitch": 32,
                "velocity": 127,
                "duration": 0.15,
                "tempo": 120.0
            },
            {
                "pitch": 34,
                "velocity": 127,
                "duration": 0.0727,
                "tempo": 120.0
            },
            {
                "pitch": 2,
                "velocity": 127,
                "duration": 0.5636,
                "tempo": 120.0
            },
            {
                "pitch": 27,
                "velocity": 127,
                "duration": 0.8182,
                "tempo": 120.0
            },
            {
                "pitch": 27,
                "velocity": 127,
                "duration": 0.1455,
                "tempo": 120.0
            },
            {
                "pitch": 27,
                "velocity": 127,
                "duration": 0.0727,
                "tempo": 120.0
            },
            {
                "pitch": 28,
                "velocity": 127,
                "duration": 0.1455,
                "tempo": 120.0
            },
            {
                "pitch": 42,
                "velocity": 127,
                "duration": 0.8886,
                "tempo": 120.0
            },
            {
                "pitch": 32,
                "velocity": 127,
                "duration": 0.8091,
                "tempo": 120.0
            },
            {
                "pitch": 32,
                "velocity": 127,
                "duration": 0.1455,
                "tempo": 120.0
            },
            {
                "pitch": 34,
                "velocity": 127,
                "duration": 0.0705,
                "tempo": 120.0
            },
            {
                "pitch": 2,
                "velocity": 127,
                "duration": 0.8795,
                "tempo": 120.0
            },
            {
                "pitch": 27,
                "velocity": 127,
                "duration": 0.1455,
                "tempo": 120.0
            },
            {
                "pitch": 27,
                "velocity": 127,
                "duration": 0.0727,
                "tempo": 120.0
            },
            {
                "pitch": 28,
                "velocity": 127,
                "duration": 0.15,
                "tempo": 120.0
            },
            {
                "pitch": 42,
                "velocity": 127,
                "duration": 0.8773,
                "tempo": 120.0
            },
            {
                "pitch": 32,
                "velocity": 127,
                "duration": 0.8068,
                "tempo": 120.0
            },
            {
                "pitch": 32,
                "velocity": 127,
                "duration": 0.15,
                "tempo": 120.0
            },
            {
                "pitch": 34,
                "velocity": 127,
                "duration": 0.0727,
                "tempo": 120.0
            },
            {
                "pitch": 2,
                "velocity": 127,
                "duration": 0.8864,
                "tempo": 120.0
            },
            {
                "pitch": 27,
                "velocity": 127,
                "duration": 0.1477,
                "tempo": 120.0
            },
            {
                "pitch": 27,
                "velocity": 127,
                "duration": 0.075,
                "tempo": 120.0
            },
            {
                "pitch": 28,
                "velocity": 127,
                "duration": 0.1477,
                "tempo": 120.0
            },
            {
                "pitch": 42,
                "velocity": 127,
                "duration": 0.8886,
                "tempo": 120.0
            },
            {
                "pitch": 32,
                "velocity": 127,
                "duration": 0.8091,
                "tempo": 120.0
            },
            {
                "pitch": 32,
                "velocity": 127,
                "duration": 0.1477,
                "tempo": 120.0
            },
            {
                "pitch": 34,
                "velocity": 127,
                "duration": 0.075,
                "tempo": 120.0
            },
            {
                "pitch": 2,
                "velocity": 127,
                "duration": 0.8841,
                "tempo": 120.0
            },
            {
                "pitch": 27,
                "velocity": 127,
                "duration": 0.1477,
                "tempo": 120.0
            },
            {
                "pitch": 27,
                "velocity": 127,
                "duration": 0.0727,
                "tempo": 120.0
            },
            {
                "pitch": 28,
                "velocity": 127,
                "duration": 0.1455,
                "tempo": 120.0
            },
            {
                "pitch": 42,
                "velocity": 127,
                "duration": 0.8841,
                "tempo": 120.0
            },
            {
                "pitch": 32,
                "velocity": 127,
                "duration": 0.8114,
                "tempo": 120.0
            },
            {
                "pitch": 32,
                "velocity": 127,
                "duration": 0.1477,
                "tempo": 120.0
            },
            {
                "pitch": 34,
                "velocity": 127,
                "duration": 0.0727,
                "tempo": 120.0
            },
            {
                "pitch": 2,
                "velocity": 127,
                "duration": 0.8841,
                "tempo": 120.0
            },
            {
                "pitch": 27,
                "velocity": 127,
                "duration": 0.1455,
                "tempo": 120.0
            },
            {
                "pitch": 27,
                "velocity": 127,
                "duration": 0.0727,
                "tempo": 120.0
            },
            {
                "pitch": 28,
                "velocity": 127,
                "duration": 0.1455,
                "tempo": 120.0
            },
            {
                "pitch": 42,
                "velocity": 127,
                "duration": 0.8841,
                "tempo": 120.0
            },
            {
                "pitch": 32,
                "velocity": 127,
                "duration": 0.8091,
                "tempo": 120.0
            },
            {
                "pitch": 32,
                "velocity": 127,
                "duration": 0.1455,
                "tempo": 120.0
            },
            {
                "pitch": 34,
                "velocity": 127,
                "duration": 0.0727,
                "tempo": 120.0
            },
            {
                "pitch": 2,
                "velocity": 127,
                "duration": 0.8818,
                "tempo": 120.0
            },
            {
                "pitch": 27,
                "velocity": 127,
                "duration": 0.1477,
                "tempo": 120.0
            },
            {
                "pitch": 27,
                "velocity": 127,
                "duration": 0.0727,
                "tempo": 120.0
            },
            {
                "pitch": 28,
                "velocity": 127,
                "duration": 0.1477,
                "tempo": 120.0
            },
            {
                "pitch": 42,
                "velocity": 127,
                "duration": 0.8818,
                "tempo": 120.0
            },
            {
                "pitch": 32,
                "velocity": 127,
                "duration": 0.8091,
                "tempo": 120.0
            },
            {
                "pitch": 32,
                "velocity": 127,
                "duration": 0.1477,
                "tempo": 120.0
            },
            {
                "pitch": 34,
                "velocity": 127,
                "duration": 0.0727,
                "tempo": 120.0
            },
            {
                "pitch": 2,
                "velocity": 127,
                "duration": 0.8841,
                "tempo": 120.0
            },
            {
                "pitch": 27,
                "velocity": 127,
                "duration": 0.1477,
                "tempo": 120.0
            },
            {
                "pitch": 27,
                "velocity": 127,
                "duration": 0.075,
                "tempo": 120.0
            },
            {
                "pitch": 28,
                "velocity": 127,
                "duration": 0.1477,
                "tempo": 120.0
            },
            {
                "pitch": 42,
                "velocity": 127,
                "duration": 0.8841,
                "tempo": 120.0
            },
            {
                "pitch": 32,
                "velocity": 127,
                "duration": 0.8091,
                "tempo": 120.0
            },
            {
                "pitch": 32,
                "velocity": 127,
                "duration": 0.1477,
                "tempo": 120.0
            },
            {
                "pitch": 34,
                "velocity": 127,
                "duration": 0.075,
                "tempo": 120.0
            },
            {
                "pitch": 2,
                "velocity": 127,
                "duration": 0.8841,
                "tempo": 120.0
            },
            {
                "pitch": 27,
                "velocity": 127,
                "duration": 0.1477,
                "tempo": 120.0
            },
            {
                "pitch": 27,
                "velocity": 127,
                "duration": 0.0727,
                "tempo": 120.0
            },
            {
                "pitch": 42,
                "velocity": 127,
                "duration": 0.7727,
                "tempo": 120.0
            },
            {
                "pitch": 31,
                "velocity": 127,
                "duration": 0.075,
                "tempo": 120.0
            },
            {
                "pitch": 31,
                "velocity": 127,
                "duration": 0.1477,
                "tempo": 120.0
            },
            {
                "pitch": 31,
                "velocity": 127,
                "duration": 0.0727,
                "tempo": 120.0
            },
            {
                "pitch": 31,
                "velocity": 127,
                "duration": 0.0727,
                "tempo": 120.0
            },
            {
                "pitch": 31,
                "velocity": 127,
                "duration": 0.0727,
                "tempo": 120.0
            },
            {
                "pitch": 31,
                "velocity": 127,
                "duration": 0.075,
                "tempo": 120.0
            },
            {
                "pitch": 33,
                "velocity": 127,
                "duration": 0.075,
                "tempo": 120.0
            },
            {
                "pitch": 33,
                "velocity": 127,
                "duration": 0.15,
                "tempo": 120.0
            },
            {
                "pitch": 2,
                "velocity": 127,
                "duration": 1.6659,
                "tempo": 120.0
            },
            {
                "pitch": 24,
                "velocity": 127,
                "duration": 0.0727,
                "tempo": 120.0
            },
            {
                "pitch": 41,
                "velocity": 127,
                "duration": 0.0705,
                "tempo": 120.0
            },
            {
                "pitch": 41,
                "velocity": 127,
                "duration": 0.0727,
                "tempo": 120.0
            },
            {
                "pitch": 41,
                "velocity": 127,
                "duration": 0.0705,
                "tempo": 120.0
            },
            {
                "pitch": 42,
                "velocity": 127,
                "duration": 1.6568,
                "tempo": 120.0
            },
            {
                "pitch": 31,
                "velocity": 127,
                "duration": 0.9205,
                "tempo": 120.0
            },
            {
                "pitch": 31,
                "velocity": 127,
                "duration": 0.15,
                "tempo": 120.0
            },
            {
                "pitch": 31,
                "velocity": 127,
                "duration": 0.075,
                "tempo": 120.0
            },
            {
                "pitch": 31,
                "velocity": 127,
                "duration": 0.15,
                "tempo": 120.0
            },
            {
                "pitch": 31,
                "velocity": 127,
                "duration": 0.0727,
                "tempo": 120.0
            },
            {
                "pitch": 31,
                "velocity": 127,
                "duration": 0.0705,
                "tempo": 120.0
            },
            {
                "pitch": 31,
                "velocity": 127,
                "duration": 0.0727,
                "tempo": 120.0
            },
            {
                "pitch": 0,
                "velocity": 127,
                "duration": 10.3909,
                "tempo": 120.0
            },
            {
                "pitch": 24,
                "velocity": 127,
                "duration": 0.075,
                "tempo": 120.0
            },
            {
                "pitch": 24,
                "velocity": 127,
                "duration": 0.1523,
                "tempo": 120.0
            },
            {
                "pitch": 24,
                "velocity": 127,
                "duration": 0.075,
                "tempo": 120.0
            },
            {
                "pitch": 27,
                "velocity": 127,
                "duration": 0.0705,
                "tempo": 120.0
            },
            {
                "pitch": 27,
                "velocity": 127,
                "duration": 0.1432,
                "tempo": 120.0
            },
            {
                "pitch": 27,
                "velocity": 127,
                "duration": 0.0727,
                "tempo": 120.0
            },
            {
                "pitch": 39,
                "velocity": 127,
                "duration": 0.0727,
                "tempo": 120.0
            },
            {
                "pitch": 39,
                "velocity": 127,
                "duration": 0.075,
                "tempo": 120.0
            },
            {
                "pitch": 39,
                "velocity": 127,
                "duration": 0.075,
                "tempo": 120.0
            },
            {
                "pitch": 39,
                "velocity": 127,
                "duration": 0.1477,
                "tempo": 120.0
            },
            {
                "pitch": 39,
                "velocity": 127,
                "duration": 0.0705,
                "tempo": 120.0
            },
            {
                "pitch": 36,
                "velocity": 127,
                "duration": 2.8295,
                "tempo": 120.0
            },
            {
                "pitch": 36,
                "velocity": 127,
                "duration": 0.0727,
                "tempo": 120.0
            },
            {
                "pitch": 39,
                "velocity": 127,
                "duration": 0.1795,
                "tempo": 120.0
            },
            {
                "pitch": 39,
                "velocity": 127,
                "duration": 0.0705,
                "tempo": 120.0
            },
            {
                "pitch": 36,
                "velocity": 127,
                "duration": 0.1818,
                "tempo": 120.0
            },
            {
                "pitch": 36,
                "velocity": 127,
                "duration": 0.075,
                "tempo": 120.0
            },
            {
                "pitch": 40,
                "velocity": 127,
                "duration": 12.3795,
                "tempo": 120.0
            },
            {
                "pitch": 31,
                "velocity": 127,
                "duration": 0.0727,
                "tempo": 120.0
            },
            {
                "pitch": 34,
                "velocity": 127,
                "duration": 0.0727,
                "tempo": 120.0
            },
            {
                "pitch": 31,
                "velocity": 127,
                "duration": 0.1818,
                "tempo": 120.0
            },
            {
                "pitch": 31,
                "velocity": 127,
                "duration": 0.0727,
                "tempo": 120.0
            },
            {
                "pitch": 0,
                "velocity": 127,
                "duration": 2.2091,
                "tempo": 120.0
            },
            {
                "pitch": 36,
                "velocity": 127,
                "duration": 0.075,
                "tempo": 120.0
            },
            {
                "pitch": 40,
                "velocity": 127,
                "duration": 0.4432,
                "tempo": 120.0
            },
            {
                "pitch": 31,
                "velocity": 127,
                "duration": 0.1523,
                "tempo": 120.0
            },
            {
                "pitch": 0,
                "velocity": 127,
                "duration": 0.3386,
                "tempo": 120.0
            },
            {
                "pitch": 30,
                "velocity": 127,
                "duration": 0.075,
                "tempo": 120.0
            },
            {
                "pitch": 42,
                "velocity": 127,
                "duration": 3.5432,
                "tempo": 120.0
            },
            {
                "pitch": 31,
                "velocity": 127,
                "duration": 0.075,
                "tempo": 120.0
            },
            {
                "pitch": 31,
                "velocity": 127,
                "duration": 0.1477,
                "tempo": 120.0
            },
            {
                "pitch": 31,
                "velocity": 127,
                "duration": 0.075,
                "tempo": 120.0
            },
            {
                "pitch": 0,
                "velocity": 127,
                "duration": 0.5545,
                "tempo": 120.0
            },
            {
                "pitch": 30,
                "velocity": 127,
                "duration": 0.0727,
                "tempo": 120.0
            },
            {
                "pitch": 30,
                "velocity": 127,
                "duration": 0.1455,
                "tempo": 120.0
            },
            {
                "pitch": 30,
                "velocity": 127,
                "duration": 0.0727,
                "tempo": 120.0
            },
            {
                "pitch": 30,
                "velocity": 127,
                "duration": 0.075,
                "tempo": 120.0
            },
            {
                "pitch": 29,
                "velocity": 127,
                "duration": 0.1477,
                "tempo": 120.0
            },
            {
                "pitch": 29,
                "velocity": 127,
                "duration": 0.0727,
                "tempo": 120.0
            },
            {
                "pitch": 27,
                "velocity": 127,
                "duration": 0.0727,
                "tempo": 120.0
            },
            {
                "pitch": 27,
                "velocity": 127,
                "duration": 0.0727,
                "tempo": 120.0
            },
            {
                "pitch": 27,
                "velocity": 127,
                "duration": 0.0727,
                "tempo": 120.0
            },
            {
                "pitch": 32,
                "velocity": 127,
                "duration": 7.5955,
                "tempo": 120.0
            },
            {
                "pitch": 32,
                "velocity": 127,
                "duration": 0.1864,
                "tempo": 120.0
            },
            {
                "pitch": 32,
                "velocity": 127,
                "duration": 0.075,
                "tempo": 120.0
            },
            {
                "pitch": 32,
                "velocity": 127,
                "duration": 0.15,
                "tempo": 120.0
            },
            {
                "pitch": 44,
                "velocity": 127,
                "duration": 0.0727,
                "tempo": 120.0
            },
            {
                "pitch": 40,
                "velocity": 127,
                "duration": 3.1,
                "tempo": 120.0
            },
            {
                "pitch": 32,
                "velocity": 127,
                "duration": 0.075,
                "tempo": 120.0
            },
            {
                "pitch": 32,
                "velocity": 127,
                "duration": 0.1477,
                "tempo": 120.0
            },
            {
                "pitch": 40,
                "velocity": 127,
                "duration": 0.4432,
                "tempo": 120.0
            },
            {
                "pitch": 32,
                "velocity": 127,
                "duration": 0.1455,
                "tempo": 120.0
            },
            {
                "pitch": 32,
                "velocity": 127,
                "duration": 0.1841,
                "tempo": 120.0
            },
            {
                "pitch": 32,
                "velocity": 127,
                "duration": 0.075,
                "tempo": 120.0
            },
            {
                "pitch": 32,
                "velocity": 127,
                "duration": 0.15,
                "tempo": 120.0
            },
            {
                "pitch": 52,
                "velocity": 127,
                "duration": 1.7682,
                "tempo": 120.0
            },
            {
                "pitch": 44,
                "velocity": 127,
                "duration": 0.0705,
                "tempo": 120.0
            },
            {
                "pitch": 40,
                "velocity": 127,
                "duration": 1.325,
                "tempo": 120.0
            },
            {
                "pitch": 32,
                "velocity": 127,
                "duration": 0.0727,
                "tempo": 120.0
            },
            {
                "pitch": 32,
                "velocity": 127,
                "duration": 0.1455,
                "tempo": 120.0
            },
            {
                "pitch": 40,
                "velocity": 127,
                "duration": 0.4409,
                "tempo": 120.0
            },
            {
                "pitch": 32,
                "velocity": 127,
                "duration": 0.1477,
                "tempo": 120.0
            },
            {
                "pitch": 32,
                "velocity": 127,
                "duration": 0.1841,
                "tempo": 120.0
            },
            {
                "pitch": 32,
                "velocity": 127,
                "duration": 0.075,
                "tempo": 120.0
            },
            {
                "pitch": 32,
                "velocity": 127,
                "duration": 0.15,
                "tempo": 120.0
            },
            {
                "pitch": 52,
                "velocity": 127,
                "duration": 1.7659,
                "tempo": 120.0
            },
            {
                "pitch": 44,
                "velocity": 127,
                "duration": 0.0727,
                "tempo": 120.0
            },
            {
                "pitch": 40,
                "velocity": 127,
                "duration": 1.3273,
                "tempo": 120.0
            },
            {
                "pitch": 32,
                "velocity": 127,
                "duration": 0.075,
                "tempo": 120.0
            },
            {
                "pitch": 32,
                "velocity": 127,
                "duration": 0.15,
                "tempo": 120.0
            },
            {
                "pitch": 40,
                "velocity": 127,
                "duration": 0.4477,
                "tempo": 120.0
            },
            {
                "pitch": 32,
                "velocity": 127,
                "duration": 0.1432,
                "tempo": 120.0
            },
            {
                "pitch": 32,
                "velocity": 127,
                "duration": 0.1818,
                "tempo": 120.0
            },
            {
                "pitch": 40,
                "velocity": 127,
                "duration": 0.3977,
                "tempo": 120.0
            },
            {
                "pitch": 40,
                "velocity": 127,
                "duration": 0.0386,
                "tempo": 120.0
            },
            {
                "pitch": 33,
                "velocity": 127,
                "duration": 0.075,
                "tempo": 120.0
            },
            {
                "pitch": 33,
                "velocity": 127,
                "duration": 0.15,
                "tempo": 120.0
            },
            {
                "pitch": 52,
                "velocity": 127,
                "duration": 1.7682,
                "tempo": 120.0
            },
            {
                "pitch": 45,
                "velocity": 127,
                "duration": 0.0705,
                "tempo": 120.0
            },
            {
                "pitch": 40,
                "velocity": 127,
                "duration": 0.8841,
                "tempo": 120.0
            },
            {
                "pitch": 33,
                "velocity": 127,
                "duration": 0.075,
                "tempo": 120.0
            },
            {
                "pitch": 33,
                "velocity": 127,
                "duration": 0.15,
                "tempo": 120.0
            },
            {
                "pitch": 40,
                "velocity": 127,
                "duration": 0.4455,
                "tempo": 120.0
            },
            {
                "pitch": 33,
                "velocity": 127,
                "duration": 0.1455,
                "tempo": 120.0
            },
            {
                "pitch": 33,
                "velocity": 127,
                "duration": 0.0727,
                "tempo": 120.0
            },
            {
                "pitch": 33,
                "velocity": 127,
                "duration": 0.075,
                "tempo": 120.0
            },
            {
                "pitch": 34,
                "velocity": 127,
                "duration": 9.5864,
                "tempo": 120.0
            },
            {
                "pitch": 34,
                "velocity": 127,
                "duration": 0.075,
                "tempo": 120.0
            },
            {
                "pitch": 2,
                "velocity": 127,
                "duration": 13.0364,
                "tempo": 120.0
            },
            {
                "pitch": 29,
                "velocity": 127,
                "duration": 7.8091,
                "tempo": 120.0
            },
            {
                "pitch": 29,
                "velocity": 127,
                "duration": 0.075,
                "tempo": 120.0
            },
            {
                "pitch": 42,
                "velocity": 127,
                "duration": 9.175,
                "tempo": 120.0
            },
            {
                "pitch": 34,
                "velocity": 127,
                "duration": 0.1477,
                "tempo": 120.0
            },
            {
                "pitch": 46,
                "velocity": 127,
                "duration": 0.0727,
                "tempo": 120.0
            },
            {
                "pitch": 32,
                "velocity": 127,
                "duration": 0.0705,
                "tempo": 120.0
            },
            {
                "pitch": 42,
                "velocity": 127,
                "duration": 0.5455,
                "tempo": 120.0
            },
            {
                "pitch": 34,
                "velocity": 127,
                "duration": 0.2886,
                "tempo": 120.0
            },
            {
                "pitch": 34,
                "velocity": 127,
                "duration": 0.0727,
                "tempo": 120.0
            },
            {
                "pitch": 2,
                "velocity": 127,
                "duration": 0.7682,
                "tempo": 120.0
            },
            {
                "pitch": 29,
                "velocity": 127,
                "duration": 0.1477,
                "tempo": 120.0
            },
            {
                "pitch": 42,
                "velocity": 127,
                "duration": 0.3318,
                "tempo": 120.0
            },
            {
                "pitch": 34,
                "velocity": 127,
                "duration": 0.1455,
                "tempo": 120.0
            },
            {
                "pitch": 2,
                "velocity": 127,
                "duration": 0.4432,
                "tempo": 120.0
            },
            {
                "pitch": 25,
                "velocity": 127,
                "duration": 0.0727,
                "tempo": 120.0
            },
            {
                "pitch": 29,
                "velocity": 127,
                "duration": 0.075,
                "tempo": 120.0
            },
            {
                "pitch": 42,
                "velocity": 127,
                "duration": 0.4409,
                "tempo": 120.0
            },
            {
                "pitch": 34,
                "velocity": 127,
                "duration": 0.0727,
                "tempo": 120.0
            },
            {
                "pitch": 34,
                "velocity": 127,
                "duration": 0.0727,
                "tempo": 120.0
            },
            {
                "pitch": 34,
                "velocity": 127,
                "duration": 0.0727,
                "tempo": 120.0
            },
            {
                "pitch": 2,
                "velocity": 127,
                "duration": 0.5523,
                "tempo": 120.0
            },
            {
                "pitch": 29,
                "velocity": 127,
                "duration": 0.0727,
                "tempo": 120.0
            },
            {
                "pitch": 42,
                "velocity": 127,
                "duration": 0.4409,
                "tempo": 120.0
            },
            {
                "pitch": 34,
                "velocity": 127,
                "duration": 0.1477,
                "tempo": 120.0
            },
            {
                "pitch": 46,
                "velocity": 127,
                "duration": 0.075,
                "tempo": 120.0
            },
            {
                "pitch": 32,
                "velocity": 127,
                "duration": 0.075,
                "tempo": 120.0
            },
            {
                "pitch": 42,
                "velocity": 127,
                "duration": 0.5636,
                "tempo": 120.0
            },
            {
                "pitch": 34,
                "velocity": 127,
                "duration": 0.3,
                "tempo": 120.0
            },
            {
                "pitch": 34,
                "velocity": 127,
                "duration": 0.0727,
                "tempo": 120.0
            },
            {
                "pitch": 2,
                "velocity": 127,
                "duration": 0.7818,
                "tempo": 120.0
            },
            {
                "pitch": 29,
                "velocity": 127,
                "duration": 0.1477,
                "tempo": 120.0
            },
            {
                "pitch": 42,
                "velocity": 127,
                "duration": 0.3295,
                "tempo": 120.0
            },
            {
                "pitch": 34,
                "velocity": 127,
                "duration": 0.1477,
                "tempo": 120.0
            },
            {
                "pitch": 2,
                "velocity": 127,
                "duration": 0.4432,
                "tempo": 120.0
            },
            {
                "pitch": 25,
                "velocity": 127,
                "duration": 1.7409,
                "tempo": 120.0
            },
            {
                "pitch": 25,
                "velocity": 127,
                "duration": 0.0727,
                "tempo": 120.0
            },
            {
                "pitch": 29,
                "velocity": 127,
                "duration": 0.0727,
                "tempo": 120.0
            },
            {
                "pitch": 42,
                "velocity": 127,
                "duration": 0.4432,
                "tempo": 120.0
            },
            {
                "pitch": 34,
                "velocity": 127,
                "duration": 0.0727,
                "tempo": 120.0
            },
            {
                "pitch": 34,
                "velocity": 127,
                "duration": 0.075,
                "tempo": 120.0
            },
            {
                "pitch": 35,
                "velocity": 127,
                "duration": 0.0727,
                "tempo": 120.0
            },
            {
                "pitch": 30,
                "velocity": 127,
                "duration": 0.0727,
                "tempo": 120.0
            },
            {
                "pitch": 42,
                "velocity": 127,
                "duration": 0.4409,
                "tempo": 120.0
            },
            {
                "pitch": 35,
                "velocity": 127,
                "duration": 0.1477,
                "tempo": 120.0
            },
            {
                "pitch": 7,
                "velocity": 127,
                "duration": 0.3295,
                "tempo": 120.0
            },
            {
                "pitch": 26,
                "velocity": 127,
                "duration": 0.075,
                "tempo": 120.0
            },
            {
                "pitch": 41,
                "velocity": 127,
                "duration": 11.3864,
                "tempo": 120.0
            },
            {
                "pitch": 33,
                "velocity": 127,
                "duration": 0.0727,
                "tempo": 120.0
            },
            {
                "pitch": 42,
                "velocity": 127,
                "duration": 0.5523,
                "tempo": 120.0
            },
            {
                "pitch": 35,
                "velocity": 127,
                "duration": 0.0727,
                "tempo": 120.0
            },
            {
                "pitch": 7,
                "velocity": 127,
                "duration": 0.4432,
                "tempo": 120.0
            },
            {
                "pitch": 30,
                "velocity": 127,
                "duration": 0.1455,
                "tempo": 120.0
            },
            {
                "pitch": 42,
                "velocity": 127,
                "duration": 0.3318,
                "tempo": 120.0
            },
            {
                "pitch": 35,
                "velocity": 127,
                "duration": 0.1477,
                "tempo": 120.0
            },
            {
                "pitch": 7,
                "velocity": 127,
                "duration": 0.4409,
                "tempo": 120.0
            },
            {
                "pitch": 26,
                "velocity": 127,
                "duration": 0.0727,
                "tempo": 120.0
            },
            {
                "pitch": 30,
                "velocity": 127,
                "duration": 0.0727,
                "tempo": 120.0
            },
            {
                "pitch": 42,
                "velocity": 127,
                "duration": 0.4409,
                "tempo": 120.0
            },
            {
                "pitch": 35,
                "velocity": 127,
                "duration": 0.075,
                "tempo": 120.0
            },
            {
                "pitch": 35,
                "velocity": 127,
                "duration": 0.0727,
                "tempo": 120.0
            },
            {
                "pitch": 35,
                "velocity": 127,
                "duration": 0.075,
                "tempo": 120.0
            },
            {
                "pitch": 7,
                "velocity": 127,
                "duration": 0.5523,
                "tempo": 120.0
            },
            {
                "pitch": 30,
                "velocity": 127,
                "duration": 0.0727,
                "tempo": 120.0
            },
            {
                "pitch": 42,
                "velocity": 127,
                "duration": 0.4432,
                "tempo": 120.0
            },
            {
                "pitch": 35,
                "velocity": 127,
                "duration": 0.1455,
                "tempo": 120.0
            },
            {
                "pitch": 7,
                "velocity": 127,
                "duration": 0.3318,
                "tempo": 120.0
            },
            {
                "pitch": 26,
                "velocity": 127,
                "duration": 0.8455,
                "tempo": 120.0
            },
            {
                "pitch": 26,
                "velocity": 127,
                "duration": 0.0727,
                "tempo": 120.0
            },
            {
                "pitch": 41,
                "velocity": 127,
                "duration": 1.7659,
                "tempo": 120.0
            },
            {
                "pitch": 33,
                "velocity": 127,
                "duration": 0.075,
                "tempo": 120.0
            },
            {
                "pitch": 42,
                "velocity": 127,
                "duration": 0.5523,
                "tempo": 120.0
            },
            {
                "pitch": 35,
                "velocity": 127,
                "duration": 0.0727,
                "tempo": 120.0
            },
            {
                "pitch": 7,
                "velocity": 127,
                "duration": 0.4409,
                "tempo": 120.0
            },
            {
                "pitch": 30,
                "velocity": 127,
                "duration": 0.1477,
                "tempo": 120.0
            },
            {
                "pitch": 42,
                "velocity": 127,
                "duration": 0.3295,
                "tempo": 120.0
            },
            {
                "pitch": 35,
                "velocity": 127,
                "duration": 0.1477,
                "tempo": 120.0
            },
            {
                "pitch": 7,
                "velocity": 127,
                "duration": 0.4432,
                "tempo": 120.0
            },
            {
                "pitch": 7,
                "velocity": 127,
                "duration": 0.0023,
                "tempo": 120.0
            },
            {
                "pitch": 26,
                "velocity": 127,
                "duration": 0.0727,
                "tempo": 120.0
            },
            {
                "pitch": 30,
                "velocity": 127,
                "duration": 0.0727,
                "tempo": 120.0
            },
            {
                "pitch": 42,
                "velocity": 127,
                "duration": 0.4432,
                "tempo": 120.0
            },
            {
                "pitch": 35,
                "velocity": 127,
                "duration": 0.0727,
                "tempo": 120.0
            },
            {
                "pitch": 39,
                "velocity": 127,
                "duration": 16.9568,
                "tempo": 120.0
            },
            {
                "pitch": 39,
                "velocity": 127,
                "duration": 0.15,
                "tempo": 120.0
            },
            {
                "pitch": 39,
                "velocity": 127,
                "duration": 0.075,
                "tempo": 120.0
            },
            {
                "pitch": 39,
                "velocity": 127,
                "duration": 0.15,
                "tempo": 120.0
            },
            {
                "pitch": 39,
                "velocity": 127,
                "duration": 0.1455,
                "tempo": 120.0
            },
            {
                "pitch": 39,
                "velocity": 127,
                "duration": 0.1432,
                "tempo": 120.0
            },
            {
                "pitch": 39,
                "velocity": 127,
                "duration": 0.1455,
                "tempo": 120.0
            },
            {
                "pitch": 39,
                "velocity": 127,
                "duration": 0.1477,
                "tempo": 120.0
            },
            {
                "pitch": 39,
                "velocity": 127,
                "duration": 0.0727,
                "tempo": 120.0
            },
            {
                "pitch": 39,
                "velocity": 127,
                "duration": 0.0727,
                "tempo": 120.0
            },
            {
                "pitch": 39,
                "velocity": 127,
                "duration": 0.075,
                "tempo": 120.0
            },
            {
                "pitch": 39,
                "velocity": 127,
                "duration": 0.15,
                "tempo": 120.0
            },
            {
                "pitch": 39,
                "velocity": 127,
                "duration": 0.075,
                "tempo": 120.0
            },
            {
                "pitch": 39,
                "velocity": 127,
                "duration": 0.1477,
                "tempo": 120.0
            },
            {
                "pitch": 39,
                "velocity": 127,
                "duration": 0.1432,
                "tempo": 120.0
            },
            {
                "pitch": 39,
                "velocity": 127,
                "duration": 0.1455,
                "tempo": 120.0
            },
            {
                "pitch": 39,
                "velocity": 127,
                "duration": 0.15,
                "tempo": 120.0
            },
            {
                "pitch": 39,
                "velocity": 127,
                "duration": 0.1477,
                "tempo": 120.0
            },
            {
                "pitch": 39,
                "velocity": 127,
                "duration": 0.0705,
                "tempo": 120.0
            },
            {
                "pitch": 39,
                "velocity": 127,
                "duration": 0.0727,
                "tempo": 120.0
            },
            {
                "pitch": 39,
                "velocity": 127,
                "duration": 0.0705,
                "tempo": 120.0
            },
            {
                "pitch": 41,
                "velocity": 127,
                "duration": 4.6386,
                "tempo": 120.0
            },
            {
                "pitch": 32,
                "velocity": 127,
                "duration": 0.0773,
                "tempo": 120.0
            },
            {
                "pitch": 32,
                "velocity": 127,
                "duration": 0.075,
                "tempo": 120.0
            },
            {
                "pitch": 30,
                "velocity": 127,
                "duration": 0.1523,
                "tempo": 120.0
            },
            {
                "pitch": 27,
                "velocity": 127,
                "duration": 0.2955,
                "tempo": 120.0
            },
            {
                "pitch": 27,
                "velocity": 127,
                "duration": 0.0705,
                "tempo": 120.0
            },
            {
                "pitch": 30,
                "velocity": 127,
                "duration": 0.1795,
                "tempo": 120.0
            },
            {
                "pitch": 30,
                "velocity": 127,
                "duration": 0.0727,
                "tempo": 120.0
            },
            {
                "pitch": 27,
                "velocity": 127,
                "duration": 0.1818,
                "tempo": 120.0
            },
            {
                "pitch": 27,
                "velocity": 127,
                "duration": 0.0727,
                "tempo": 120.0
            },
            {
                "pitch": 41,
                "velocity": 127,
                "duration": 0.8955,
                "tempo": 120.0
            },
            {
                "pitch": 32,
                "velocity": 127,
                "duration": 0.0727,
                "tempo": 120.0
            },
            {
                "pitch": 32,
                "velocity": 127,
                "duration": 0.0727,
                "tempo": 120.0
            },
            {
                "pitch": 30,
                "velocity": 127,
                "duration": 0.5864,
                "tempo": 120.0
            },
            {
                "pitch": 30,
                "velocity": 127,
                "duration": 0.1477,
                "tempo": 120.0
            },
            {
                "pitch": 27,
                "velocity": 127,
                "duration": 0.2909,
                "tempo": 120.0
            },
            {
                "pitch": 27,
                "velocity": 127,
                "duration": 0.0727,
                "tempo": 120.0
            },
            {
                "pitch": 30,
                "velocity": 127,
                "duration": 0.1795,
                "tempo": 120.0
            },
            {
                "pitch": 30,
                "velocity": 127,
                "duration": 0.0705,
                "tempo": 120.0
            },
            {
                "pitch": 42,
                "velocity": 127,
                "duration": 5.3023,
                "tempo": 120.0
            },
            {
                "pitch": 31,
                "velocity": 127,
                "duration": 0.0727,
                "tempo": 120.0
            },
            {
                "pitch": 31,
                "velocity": 127,
                "duration": 0.075,
                "tempo": 120.0
            },
            {
                "pitch": 31,
                "velocity": 127,
                "duration": 0.075,
                "tempo": 120.0
            },
            {
                "pitch": 43,
                "velocity": 127,
                "duration": 0.075,
                "tempo": 120.0
            },
            {
                "pitch": 31,
                "velocity": 127,
                "duration": 0.15,
                "tempo": 120.0
            },
            {
                "pitch": 31,
                "velocity": 127,
                "duration": 0.075,
                "tempo": 120.0
            },
            {
                "pitch": 43,
                "velocity": 127,
                "duration": 0.0727,
                "tempo": 120.0
            },
            {
                "pitch": 31,
                "velocity": 127,
                "duration": 0.075,
                "tempo": 120.0
            },
            {
                "pitch": 0,
                "velocity": 127,
                "duration": 21.6659,
                "tempo": 120.0
            },
            {
                "pitch": 29,
                "velocity": 127,
                "duration": 0.0727,
                "tempo": 120.0
            },
            {
                "pitch": 42,
                "velocity": 127,
                "duration": 1.1136,
                "tempo": 120.0
            },
            {
                "pitch": 34,
                "velocity": 127,
                "duration": 0.1455,
                "tempo": 120.0
            },
            {
                "pitch": 34,
                "velocity": 127,
                "duration": 0.0727,
                "tempo": 120.0
            },
            {
                "pitch": 2,
                "velocity": 127,
                "duration": 10.5,
                "tempo": 120.0
            },
            {
                "pitch": 28,
                "velocity": 127,
                "duration": 0.075,
                "tempo": 120.0
            },
            {
                "pitch": 28,
                "velocity": 127,
                "duration": 0.0727,
                "tempo": 120.0
            },
            {
                "pitch": 42,
                "velocity": 127,
                "duration": 0.5523,
                "tempo": 120.0
            },
            {
                "pitch": 31,
                "velocity": 127,
                "duration": 0.0727,
                "tempo": 120.0
            },
            {
                "pitch": 34,
                "velocity": 127,
                "duration": 0.0727,
                "tempo": 120.0
            },
            {
                "pitch": 36,
                "velocity": 127,
                "duration": 0.0727,
                "tempo": 120.0
            },
            {
                "pitch": 36,
                "velocity": 127,
                "duration": 0.075,
                "tempo": 120.0
            },
            {
                "pitch": 40,
                "velocity": 127,
                "duration": 14.7023,
                "tempo": 120.0
            },
            {
                "pitch": 31,
                "velocity": 127,
                "duration": 0.4045,
                "tempo": 120.0
            },
            {
                "pitch": 31,
                "velocity": 127,
                "duration": 0.0727,
                "tempo": 120.0
            },
            {
                "pitch": 0,
                "velocity": 127,
                "duration": 1.2159,
                "tempo": 120.0
            },
            {
                "pitch": 36,
                "velocity": 127,
                "duration": 0.1455,
                "tempo": 120.0
            },
            {
                "pitch": 36,
                "velocity": 127,
                "duration": 0.0727,
                "tempo": 120.0
            },
            {
                "pitch": 40,
                "velocity": 127,
                "duration": 0.4409,
                "tempo": 120.0
            },
            {
                "pitch": 31,
                "velocity": 127,
                "duration": 0.075,
                "tempo": 120.0
            },
            {
                "pitch": 0,
                "velocity": 127,
                "duration": 0.4409,
                "tempo": 120.0
            },
            {
                "pitch": 27,
                "velocity": 127,
                "duration": 2.8386,
                "tempo": 120.0
            },
            {
                "pitch": 27,
                "velocity": 127,
                "duration": 0.0727,
                "tempo": 120.0
            },
            {
                "pitch": 36,
                "velocity": 127,
                "duration": 0.0727,
                "tempo": 120.0
            },
            {
                "pitch": 36,
                "velocity": 127,
                "duration": 0.0727,
                "tempo": 120.0
            },
            {
                "pitch": 40,
                "velocity": 127,
                "duration": 0.4432,
                "tempo": 120.0
            },
            {
                "pitch": 31,
                "velocity": 127,
                "duration": 0.0727,
                "tempo": 120.0
            },
            {
                "pitch": 0,
                "velocity": 127,
                "duration": 0.4409,
                "tempo": 120.0
            },
            {
                "pitch": 36,
                "velocity": 127,
                "duration": 0.1477,
                "tempo": 120.0
            },
            {
                "pitch": 36,
                "velocity": 127,
                "duration": 0.075,
                "tempo": 120.0
            },
            {
                "pitch": 40,
                "velocity": 127,
                "duration": 0.4409,
                "tempo": 120.0
            },
            {
                "pitch": 31,
                "velocity": 127,
                "duration": 0.0727,
                "tempo": 120.0
            },
            {
                "pitch": 34,
                "velocity": 127,
                "duration": 0.0727,
                "tempo": 120.0
            },
            {
                "pitch": 14,
                "velocity": 127,
                "duration": 1.7659,
                "tempo": 120.0
            },
            {
                "pitch": 36,
                "velocity": 127,
                "duration": 0.075,
                "tempo": 120.0
            },
            {
                "pitch": 36,
                "velocity": 127,
                "duration": 0.075,
                "tempo": 120.0
            },
            {
                "pitch": 40,
                "velocity": 127,
                "duration": 0.4477,
                "tempo": 120.0
            },
            {
                "pitch": 31,
                "velocity": 127,
                "duration": 0.4114,
                "tempo": 120.0
            },
            {
                "pitch": 31,
                "velocity": 127,
                "duration": 0.075,
                "tempo": 120.0
            },
            {
                "pitch": 0,
                "velocity": 127,
                "duration": 0.8909,
                "tempo": 120.0
            },
            {
                "pitch": 36,
                "velocity": 127,
                "duration": 0.15,
                "tempo": 120.0
            },
            {
                "pitch": 36,
                "velocity": 127,
                "duration": 0.0727,
                "tempo": 120.0
            },
            {
                "pitch": 40,
                "velocity": 127,
                "duration": 0.4409,
                "tempo": 120.0
            },
            {
                "pitch": 31,
                "velocity": 127,
                "duration": 0.0727,
                "tempo": 120.0
            },
            {
                "pitch": 0,
                "velocity": 127,
                "duration": 0.4386,
                "tempo": 120.0
            },
            {
                "pitch": 0,
                "velocity": 127,
                "duration": 0.0023,
                "tempo": 120.0
            },
            {
                "pitch": 27,
                "velocity": 127,
                "duration": 0.0705,
                "tempo": 120.0
            },
            {
                "pitch": 39,
                "velocity": 127,
                "duration": 1.7659,
                "tempo": 120.0
            },
            {
                "pitch": 36,
                "velocity": 127,
                "duration": 0.075,
                "tempo": 120.0
            },
            {
                "pitch": 36,
                "velocity": 127,
                "duration": 0.075,
                "tempo": 120.0
            },
            {
                "pitch": 40,
                "velocity": 127,
                "duration": 0.4409,
                "tempo": 120.0
            },
            {
                "pitch": 31,
                "velocity": 127,
                "duration": 0.075,
                "tempo": 120.0
            },
            {
                "pitch": 36,
                "velocity": 127,
                "duration": 0.1477,
                "tempo": 120.0
            },
            {
                "pitch": 36,
                "velocity": 127,
                "duration": 0.0727,
                "tempo": 120.0
            },
            {
                "pitch": 40,
                "velocity": 127,
                "duration": 0.4432,
                "tempo": 120.0
            },
            {
                "pitch": 31,
                "velocity": 127,
                "duration": 0.0705,
                "tempo": 120.0
            },
            {
                "pitch": 34,
                "velocity": 127,
                "duration": 0.0727,
                "tempo": 120.0
            },
            {
                "pitch": 14,
                "velocity": 127,
                "duration": 1.7682,
                "tempo": 120.0
            },
            {
                "pitch": 37,
                "velocity": 127,
                "duration": 0.075,
                "tempo": 120.0
            },
            {
                "pitch": 37,
                "velocity": 127,
                "duration": 0.075,
                "tempo": 120.0
            },
            {
                "pitch": 40,
                "velocity": 127,
                "duration": 0.4409,
                "tempo": 120.0
            },
            {
                "pitch": 32,
                "velocity": 127,
                "duration": 0.075,
                "tempo": 120.0
            },
            {
                "pitch": 37,
                "velocity": 127,
                "duration": 0.0705,
                "tempo": 120.0
            },
            {
                "pitch": 40,
                "velocity": 127,
                "duration": 0.4409,
                "tempo": 120.0
            },
            {
                "pitch": 32,
                "velocity": 127,
                "duration": 0.0727,
                "tempo": 120.0
            },
            {
                "pitch": 41,
                "velocity": 127,
                "duration": 7.0682,
                "tempo": 120.0
            },
            {
                "pitch": 37,
                "velocity": 127,
                "duration": 0.0727,
                "tempo": 120.0
            },
            {
                "pitch": 37,
                "velocity": 127,
                "duration": 0.075,
                "tempo": 120.0
            },
            {
                "pitch": 40,
                "velocity": 127,
                "duration": 0.4432,
                "tempo": 120.0
            },
            {
                "pitch": 32,
                "velocity": 127,
                "duration": 0.075,
                "tempo": 120.0
            },
            {
                "pitch": 37,
                "velocity": 127,
                "duration": 0.0727,
                "tempo": 120.0
            },
            {
                "pitch": 25,
                "velocity": 127,
                "duration": 15.9227,
                "tempo": 120.0
            },
            {
                "pitch": 29,
                "velocity": 127,
                "duration": 0.075,
                "tempo": 120.0
            },
            {
                "pitch": 42,
                "velocity": 127,
                "duration": 5.4205,
                "tempo": 120.0
            },
            {
                "pitch": 35,
                "velocity": 127,
                "duration": 0.0727,
                "tempo": 120.0
            },
            {
                "pitch": 19,
                "velocity": 127,
                "duration": 12.3909,
                "tempo": 120.0
            },
            {
                "pitch": 37,
                "velocity": 127,
                "duration": 0.0727,
                "tempo": 120.0
            },
            {
                "pitch": 37,
                "velocity": 127,
                "duration": 0.0727,
                "tempo": 120.0
            },
            {
                "pitch": 40,
                "velocity": 127,
                "duration": 0.8886,
                "tempo": 120.0
            },
            {
                "pitch": 32,
                "velocity": 127,
                "duration": 0.0727,
                "tempo": 120.0
            },
            {
                "pitch": 37,
                "velocity": 127,
                "duration": 0.0727,
                "tempo": 120.0
            },
            {
                "pitch": 40,
                "velocity": 127,
                "duration": 0.4364,
                "tempo": 120.0
            },
            {
                "pitch": 32,
                "velocity": 127,
                "duration": 0.0727,
                "tempo": 120.0
            },
            {
                "pitch": 41,
                "velocity": 127,
                "duration": 1.7659,
                "tempo": 120.0
            },
            {
                "pitch": 37,
                "velocity": 127,
                "duration": 0.075,
                "tempo": 120.0
            },
            {
                "pitch": 37,
                "velocity": 127,
                "duration": 0.075,
                "tempo": 120.0
            },
            {
                "pitch": 40,
                "velocity": 127,
                "duration": 0.4409,
                "tempo": 120.0
            },
            {
                "pitch": 32,
                "velocity": 127,
                "duration": 0.075,
                "tempo": 120.0
            },
            {
                "pitch": 37,
                "velocity": 127,
                "duration": 0.075,
                "tempo": 120.0
            },
            {
                "pitch": 25,
                "velocity": 127,
                "duration": 1.7682,
                "tempo": 120.0
            },
            {
                "pitch": 29,
                "velocity": 127,
                "duration": 0.0727,
                "tempo": 120.0
            },
            {
                "pitch": 42,
                "velocity": 127,
                "duration": 1.7659,
                "tempo": 120.0
            },
            {
                "pitch": 35,
                "velocity": 127,
                "duration": 0.075,
                "tempo": 120.0
            },
            {
                "pitch": 19,
                "velocity": 127,
                "duration": 1.7659,
                "tempo": 120.0
            },
            {
                "pitch": 36,
                "velocity": 127,
                "duration": 0.0727,
                "tempo": 120.0
            },
            {
                "pitch": 36,
                "velocity": 127,
                "duration": 0.0727,
                "tempo": 120.0
            },
            {
                "pitch": 40,
                "velocity": 127,
                "duration": 0.8886,
                "tempo": 120.0
            },
            {
                "pitch": 31,
                "velocity": 127,
                "duration": 3.9477,
                "tempo": 120.0
            },
            {
                "pitch": 31,
                "velocity": 127,
                "duration": 0.075,
                "tempo": 120.0
            },
            {
                "pitch": 0,
                "velocity": 127,
                "duration": 4.4205,
                "tempo": 120.0
            },
            {
                "pitch": 36,
                "velocity": 127,
                "duration": 0.1455,
                "tempo": 120.0
            },
            {
                "pitch": 36,
                "velocity": 127,
                "duration": 0.0727,
                "tempo": 120.0
            },
            {
                "pitch": 40,
                "velocity": 127,
                "duration": 0.4386,
                "tempo": 120.0
            },
            {
                "pitch": 40,
                "velocity": 127,
                "duration": 0.0023,
                "tempo": 120.0
            },
            {
                "pitch": 31,
                "velocity": 127,
                "duration": 0.0705,
                "tempo": 120.0
            },
            {
                "pitch": 0,
                "velocity": 127,
                "duration": 0.4341,
                "tempo": 120.0
            },
            {
                "pitch": 27,
                "velocity": 127,
                "duration": 0.0727,
                "tempo": 120.0
            },
            {
                "pitch": 39,
                "velocity": 127,
                "duration": 5.3023,
                "tempo": 120.0
            },
            {
                "pitch": 36,
                "velocity": 127,
                "duration": 0.0727,
                "tempo": 120.0
            },
            {
                "pitch": 36,
                "velocity": 127,
                "duration": 0.075,
                "tempo": 120.0
            },
            {
                "pitch": 31,
                "velocity": 127,
                "duration": 0.075,
                "tempo": 120.0
            },
            {
                "pitch": 0,
                "velocity": 127,
                "duration": 0.4477,
                "tempo": 120.0
            },
            {
                "pitch": 36,
                "velocity": 127,
                "duration": 0.1477,
                "tempo": 120.0
            },
            {
                "pitch": 36,
                "velocity": 127,
                "duration": 0.0705,
                "tempo": 120.0
            },
            {
                "pitch": 40,
                "velocity": 127,
                "duration": 0.4409,
                "tempo": 120.0
            },
            {
                "pitch": 31,
                "velocity": 127,
                "duration": 0.0727,
                "tempo": 120.0
            },
            {
                "pitch": 34,
                "velocity": 127,
                "duration": 0.0705,
                "tempo": 120.0
            },
            {
                "pitch": 34,
                "velocity": 127,
                "duration": 0.075,
                "tempo": 120.0
            },
            {
                "pitch": 26,
                "velocity": 127,
                "duration": 16.4364,
                "tempo": 120.0
            },
            {
                "pitch": 26,
                "velocity": 127,
                "duration": 0.075,
                "tempo": 120.0
            },
            {
                "pitch": 41,
                "velocity": 127,
                "duration": 2.9886,
                "tempo": 120.0
            },
            {
                "pitch": 33,
                "velocity": 127,
                "duration": 0.15,
                "tempo": 120.0
            },
            {
                "pitch": 33,
                "velocity": 127,
                "duration": 0.0727,
                "tempo": 120.0
            },
            {
                "pitch": 30,
                "velocity": 127,
                "duration": 0.5568,
                "tempo": 120.0
            },
            {
                "pitch": 26,
                "velocity": 127,
                "duration": 0.0727,
                "tempo": 120.0
            },
            {
                "pitch": 41,
                "velocity": 127,
                "duration": 0.5545,
                "tempo": 120.0
            },
            {
                "pitch": 33,
                "velocity": 127,
                "duration": 0.075,
                "tempo": 120.0
            },
            {
                "pitch": 30,
                "velocity": 127,
                "duration": 0.3318,
                "tempo": 120.0
            },
            {
                "pitch": 26,
                "velocity": 127,
                "duration": 0.0727,
                "tempo": 120.0
            },
            {
                "pitch": 41,
                "velocity": 127,
                "duration": 0.3318,
                "tempo": 120.0
            },
            {
                "pitch": 33,
                "velocity": 127,
                "duration": 0.1477,
                "tempo": 120.0
            },
            {
                "pitch": 41,
                "velocity": 127,
                "duration": 0.3318,
                "tempo": 120.0
            },
            {
                "pitch": 31,
                "velocity": 127,
                "duration": 1.7364,
                "tempo": 120.0
            },
            {
                "pitch": 31,
                "velocity": 127,
                "duration": 0.0727,
                "tempo": 120.0
            },
            {
                "pitch": 31,
                "velocity": 127,
                "duration": 0.0023,
                "tempo": 120.0
            },
            {
                "pitch": 34,
                "velocity": 127,
                "duration": 0.0727,
                "tempo": 120.0
            },
            {
                "pitch": 34,
                "velocity": 127,
                "duration": 0.0727,
                "tempo": 120.0
            },
            {
                "pitch": 32,
                "velocity": 127,
                "duration": 0.0727,
                "tempo": 120.0
            },
            {
                "pitch": 42,
                "velocity": 127,
                "duration": 3.9773,
                "tempo": 120.0
            },
            {
                "pitch": 35,
                "velocity": 127,
                "duration": 0.3682,
                "tempo": 120.0
            },
            {
                "pitch": 35,
                "velocity": 127,
                "duration": 0.1477,
                "tempo": 120.0
            },
            {
                "pitch": 35,
                "velocity": 127,
                "duration": 0.0727,
                "tempo": 120.0
            },
            {
                "pitch": 32,
                "velocity": 127,
                "duration": 0.0727,
                "tempo": 120.0
            },
            {
                "pitch": 42,
                "velocity": 127,
                "duration": 0.5523,
                "tempo": 120.0
            },
            {
                "pitch": 35,
                "velocity": 127,
                "duration": 0.2932,
                "tempo": 120.0
            },
            {
                "pitch": 35,
                "velocity": 127,
                "duration": 0.0727,
                "tempo": 120.0
            },
            {
                "pitch": 32,
                "velocity": 127,
                "duration": 0.075,
                "tempo": 120.0
            },
            {
                "pitch": 42,
                "velocity": 127,
                "duration": 0.3318,
                "tempo": 120.0
            },
            {
                "pitch": 35,
                "velocity": 127,
                "duration": 0.3682,
                "tempo": 120.0
            },
            {
                "pitch": 35,
                "velocity": 127,
                "duration": 0.1455,
                "tempo": 120.0
            },
            {
                "pitch": 35,
                "velocity": 127,
                "duration": 0.0727,
                "tempo": 120.0
            },
            {
                "pitch": 32,
                "velocity": 127,
                "duration": 0.075,
                "tempo": 120.0
            },
            {
                "pitch": 42,
                "velocity": 127,
                "duration": 0.5523,
                "tempo": 120.0
            },
            {
                "pitch": 35,
                "velocity": 127,
                "duration": 0.2955,
                "tempo": 120.0
            },
            {
                "pitch": 35,
                "velocity": 127,
                "duration": 0.0727,
                "tempo": 120.0
            },
            {
                "pitch": 32,
                "velocity": 127,
                "duration": 0.075,
                "tempo": 120.0
            },
            {
                "pitch": 42,
                "velocity": 127,
                "duration": 0.3386,
                "tempo": 120.0
            },
            {
                "pitch": 35,
                "velocity": 127,
                "duration": 0.375,
                "tempo": 120.0
            },
            {
                "pitch": 35,
                "velocity": 127,
                "duration": 0.1477,
                "tempo": 120.0
            },
            {
                "pitch": 35,
                "velocity": 127,
                "duration": 0.0705,
                "tempo": 120.0
            },
            {
                "pitch": 32,
                "velocity": 127,
                "duration": 0.0727,
                "tempo": 120.0
            },
            {
                "pitch": 42,
                "velocity": 127,
                "duration": 0.5432,
                "tempo": 120.0
            },
            {
                "pitch": 35,
                "velocity": 127,
                "duration": 0.2909,
                "tempo": 120.0
            },
            {
                "pitch": 35,
                "velocity": 127,
                "duration": 0.075,
                "tempo": 120.0
            },
            {
                "pitch": 32,
                "velocity": 127,
                "duration": 0.0727,
                "tempo": 120.0
            },
            {
                "pitch": 42,
                "velocity": 127,
                "duration": 0.3318,
                "tempo": 120.0
            },
            {
                "pitch": 35,
                "velocity": 127,
                "duration": 0.3682,
                "tempo": 120.0
            },
            {
                "pitch": 35,
                "velocity": 127,
                "duration": 0.1477,
                "tempo": 120.0
            },
            {
                "pitch": 35,
                "velocity": 127,
                "duration": 0.075,
                "tempo": 120.0
            },
            {
                "pitch": 32,
                "velocity": 127,
                "duration": 0.075,
                "tempo": 120.0
            },
            {
                "pitch": 24,
                "velocity": 127,
                "duration": 39.3614,
                "tempo": 120.0
            },
            {
                "pitch": 24,
                "velocity": 127,
                "duration": 0.0045,
                "tempo": 120.0
            }
        ],
        "Harpsichord": [
            {
                "pitch": 60,
                "velocity": 80,
                "duration": 0.0727,
                "tempo": 120.0
            },
            {
                "pitch": 60,
                "velocity": 80,
                "duration": 0.1432,
                "tempo": 120.0
            },
            {
                "pitch": 60,
                "velocity": 80,
                "duration": 0.0705,
                "tempo": 120.0
            },
            {
                "pitch": 60,
                "velocity": 80,
                "duration": 0.0705,
                "tempo": 120.0
            },
            {
                "pitch": 60,
                "velocity": 80,
                "duration": 0.0727,
                "tempo": 120.0
            },
            {
                "pitch": 60,
                "velocity": 80,
                "duration": 0.0727,
                "tempo": 120.0
            },
            {
                "pitch": 60,
                "velocity": 80,
                "duration": 0.0727,
                "tempo": 120.0
            },
            {
                "pitch": 60,
                "velocity": 80,
                "duration": 0.0727,
                "tempo": 120.0
            }
        ],
        "Lead 2 (sawtooth)": [
            {
                "pitch": 63,
                "velocity": 64,
                "duration": 3.2455,
                "tempo": 120.0
            },
            {
                "pitch": 63,
                "velocity": 64,
                "duration": 3.2364,
                "tempo": 120.0
            },
            {
                "pitch": 68,
                "velocity": 64,
                "duration": 3.3568,
                "tempo": 120.0
            },
            {
                "pitch": 68,
                "velocity": 64,
                "duration": 0.0909,
                "tempo": 120.0
            },
            {
                "pitch": 67,
                "velocity": 64,
                "duration": 3.2364,
                "tempo": 120.0
            },
            {
                "pitch": 68,
                "velocity": 64,
                "duration": 0.0727,
                "tempo": 120.0
            },
            {
                "pitch": 67,
                "velocity": 64,
                "duration": 0.0727,
                "tempo": 120.0
            },
            {
                "pitch": 67,
                "velocity": 64,
                "duration": 0.0705,
                "tempo": 120.0
            },
            {
                "pitch": 67,
                "velocity": 64,
                "duration": 0.0023,
                "tempo": 120.0
            },
            {
                "pitch": 69,
                "velocity": 64,
                "duration": 0.0727,
                "tempo": 120.0
            },
            {
                "pitch": 69,
                "velocity": 64,
                "duration": 0.0727,
                "tempo": 120.0
            },
            {
                "pitch": 69,
                "velocity": 64,
                "duration": 0.075,
                "tempo": 120.0
            },
            {
                "pitch": 69,
                "velocity": 64,
                "duration": 0.0705,
                "tempo": 120.0
            },
            {
                "pitch": 69,
                "velocity": 64,
                "duration": 0.0705,
                "tempo": 120.0
            },
            {
                "pitch": 69,
                "velocity": 64,
                "duration": 0.0023,
                "tempo": 120.0
            },
            {
                "pitch": 67,
                "velocity": 64,
                "duration": 0.0727,
                "tempo": 120.0
            },
            {
                "pitch": 67,
                "velocity": 64,
                "duration": 0.0727,
                "tempo": 120.0
            },
            {
                "pitch": 67,
                "velocity": 64,
                "duration": 0.0705,
                "tempo": 120.0
            },
            {
                "pitch": 67,
                "velocity": 64,
                "duration": 0.0705,
                "tempo": 120.0
            },
            {
                "pitch": 69,
                "velocity": 64,
                "duration": 0.0727,
                "tempo": 120.0
            },
            {
                "pitch": 69,
                "velocity": 64,
                "duration": 0.0727,
                "tempo": 120.0
            },
            {
                "pitch": 69,
                "velocity": 64,
                "duration": 0.0727,
                "tempo": 120.0
            },
            {
                "pitch": 69,
                "velocity": 64,
                "duration": 0.0727,
                "tempo": 120.0
            },
            {
                "pitch": 69,
                "velocity": 64,
                "duration": 0.0705,
                "tempo": 120.0
            },
            {
                "pitch": 69,
                "velocity": 64,
                "duration": 0.0705,
                "tempo": 120.0
            },
            {
                "pitch": 76,
                "velocity": 101,
                "duration": 3.2364,
                "tempo": 120.0
            },
            {
                "pitch": 76,
                "velocity": 101,
                "duration": 1.4773,
                "tempo": 120.0
            },
            {
                "pitch": 77,
                "velocity": 64,
                "duration": 20.9341,
                "tempo": 120.0
            },
            {
                "pitch": 77,
                "velocity": 101,
                "duration": 1.4773,
                "tempo": 120.0
            },
            {
                "pitch": 73,
                "velocity": 101,
                "duration": 3.2455,
                "tempo": 120.0
            },
            {
                "pitch": 68,
                "velocity": 101,
                "duration": 3.2364,
                "tempo": 120.0
            },
            {
                "pitch": 60,
                "velocity": 101,
                "duration": 3.2432,
                "tempo": 120.0
            },
            {
                "pitch": 76,
                "velocity": 101,
                "duration": 7.0682,
                "tempo": 120.0
            },
            {
                "pitch": 68,
                "velocity": 127,
                "duration": 1.4773,
                "tempo": 120.0
            },
            {
                "pitch": 86,
                "velocity": 127,
                "duration": 1.4795,
                "tempo": 120.0
            },
            {
                "pitch": 62,
                "velocity": 127,
                "duration": 3.2409,
                "tempo": 120.0
            },
            {
                "pitch": 63,
                "velocity": 127,
                "duration": 3.2477,
                "tempo": 120.0
            },
            {
                "pitch": 61,
                "velocity": 127,
                "duration": 1.4682,
                "tempo": 120.0
            },
            {
                "pitch": 63,
                "velocity": 127,
                "duration": 1.4818,
                "tempo": 120.0
            },
            {
                "pitch": 77,
                "velocity": 127,
                "duration": 0.0023,
                "tempo": 120.0
            },
            {
                "pitch": 68,
                "velocity": 127,
                "duration": 1.4682,
                "tempo": 120.0
            },
            {
                "pitch": 19,
                "velocity": 101,
                "duration": 19.4568,
                "tempo": 120.0
            },
            {
                "pitch": 64,
                "velocity": 127,
                "duration": 1.4727,
                "tempo": 120.0
            }
        ],
        "Violin": [
            {
                "pitch": 67,
                "velocity": 127,
                "duration": 3.2818,
                "tempo": 120.0
            },
            {
                "pitch": 63,
                "velocity": 127,
                "duration": 0.0932,
                "tempo": 120.0
            },
            {
                "pitch": 65,
                "velocity": 127,
                "duration": 0.0909,
                "tempo": 120.0
            },
            {
                "pitch": 67,
                "velocity": 127,
                "duration": 3.2364,
                "tempo": 120.0
            },
            {
                "pitch": 0,
                "velocity": 127,
                "duration": 3.7591,
                "tempo": 120.0
            },
            {
                "pitch": 72,
                "velocity": 127,
                "duration": 3.3568,
                "tempo": 120.0
            },
            {
                "pitch": 72,
                "velocity": 127,
                "duration": 0.0909,
                "tempo": 120.0
            },
            {
                "pitch": 72,
                "velocity": 127,
                "duration": 3.2364,
                "tempo": 120.0
            },
            {
                "pitch": 80,
                "velocity": 127,
                "duration": 3.2386,
                "tempo": 120.0
            },
            {
                "pitch": 80,
                "velocity": 127,
                "duration": 1.4773,
                "tempo": 120.0
            },
            {
                "pitch": 80,
                "velocity": 127,
                "duration": 1.4795,
                "tempo": 120.0
            },
            {
                "pitch": 77,
                "velocity": 127,
                "duration": 3.2477,
                "tempo": 120.0
            },
            {
                "pitch": 78,
                "velocity": 127,
                "duration": 28.3023,
                "tempo": 120.0
            },
            {
                "pitch": 71,
                "velocity": 127,
                "duration": 3.2364,
                "tempo": 120.0
            },
            {
                "pitch": 63,
                "velocity": 127,
                "duration": 35.1932,
                "tempo": 120.0
            },
            {
                "pitch": 63,
                "velocity": 127,
                "duration": 3.2432,
                "tempo": 120.0
            },
            {
                "pitch": 72,
                "velocity": 127,
                "duration": 1.475,
                "tempo": 120.0
            },
            {
                "pitch": 103,
                "velocity": 127,
                "duration": 1.5909,
                "tempo": 120.0
            },
            {
                "pitch": 80,
                "velocity": 101,
                "duration": 1.4705,
                "tempo": 120.0
            },
            {
                "pitch": 68,
                "velocity": 101,
                "duration": 1.4727,
                "tempo": 120.0
            },
            {
                "pitch": 68,
                "velocity": 127,
                "duration": 0.0023,
                "tempo": 120.0
            }
        ],
        "Vibraphone": [
            {
                "pitch": 89,
                "velocity": 127,
                "duration": 0.0932,
                "tempo": 120.0
            },
            {
                "pitch": 89,
                "velocity": 127,
                "duration": 0.0932,
                "tempo": 120.0
            },
            {
                "pitch": 89,
                "velocity": 127,
                "duration": 0.0955,
                "tempo": 120.0
            },
            {
                "pitch": 89,
                "velocity": 127,
                "duration": 0.0932,
                "tempo": 120.0
            },
            {
                "pitch": 89,
                "velocity": 127,
                "duration": 0.0909,
                "tempo": 120.0
            },
            {
                "pitch": 89,
                "velocity": 127,
                "duration": 0.0932,
                "tempo": 120.0
            },
            {
                "pitch": 89,
                "velocity": 127,
                "duration": 0.0909,
                "tempo": 120.0
            },
            {
                "pitch": 89,
                "velocity": 127,
                "duration": 0.0909,
                "tempo": 120.0
            },
            {
                "pitch": 60,
                "velocity": 127,
                "duration": 0.1841,
                "tempo": 120.0
            },
            {
                "pitch": 55,
                "velocity": 127,
                "duration": 14.5614,
                "tempo": 120.0
            },
            {
                "pitch": 55,
                "velocity": 127,
                "duration": 0.1841,
                "tempo": 120.0
            },
            {
                "pitch": 60,
                "velocity": 127,
                "duration": 0.1841,
                "tempo": 120.0
            },
            {
                "pitch": 64,
                "velocity": 127,
                "duration": 0.4432,
                "tempo": 120.0
            },
            {
                "pitch": 55,
                "velocity": 127,
                "duration": 0.0909,
                "tempo": 120.0
            },
            {
                "pitch": 0,
                "velocity": 127,
                "duration": 0.3318,
                "tempo": 120.0
            },
            {
                "pitch": 51,
                "velocity": 127,
                "duration": 0.1841,
                "tempo": 120.0
            },
            {
                "pitch": 60,
                "velocity": 127,
                "duration": 0.0932,
                "tempo": 120.0
            },
            {
                "pitch": 64,
                "velocity": 127,
                "duration": 0.4409,
                "tempo": 120.0
            },
            {
                "pitch": 55,
                "velocity": 127,
                "duration": 0.0909,
                "tempo": 120.0
            },
            {
                "pitch": 0,
                "velocity": 127,
                "duration": 0.4432,
                "tempo": 120.0
            },
            {
                "pitch": 51,
                "velocity": 127,
                "duration": 0.0909,
                "tempo": 120.0
            },
            {
                "pitch": 63,
                "velocity": 127,
                "duration": 0.3318,
                "tempo": 120.0
            },
            {
                "pitch": 60,
                "velocity": 127,
                "duration": 0.1841,
                "tempo": 120.0
            },
            {
                "pitch": 64,
                "velocity": 127,
                "duration": 0.4409,
                "tempo": 120.0
            },
            {
                "pitch": 55,
                "velocity": 127,
                "duration": 0.0932,
                "tempo": 120.0
            },
            {
                "pitch": 0,
                "velocity": 127,
                "duration": 0.4409,
                "tempo": 120.0
            },
            {
                "pitch": 51,
                "velocity": 127,
                "duration": 0.0909,
                "tempo": 120.0
            },
            {
                "pitch": 63,
                "velocity": 127,
                "duration": 0.4432,
                "tempo": 120.0
            },
            {
                "pitch": 60,
                "velocity": 127,
                "duration": 0.1864,
                "tempo": 120.0
            },
            {
                "pitch": 64,
                "velocity": 127,
                "duration": 0.4477,
                "tempo": 120.0
            },
            {
                "pitch": 55,
                "velocity": 127,
                "duration": 0.1864,
                "tempo": 120.0
            },
            {
                "pitch": 0,
                "velocity": 127,
                "duration": 0.5614,
                "tempo": 120.0
            },
            {
                "pitch": 60,
                "velocity": 127,
                "duration": 0.1795,
                "tempo": 120.0
            },
            {
                "pitch": 64,
                "velocity": 127,
                "duration": 0.4409,
                "tempo": 120.0
            },
            {
                "pitch": 55,
                "velocity": 127,
                "duration": 0.0909,
                "tempo": 120.0
            },
            {
                "pitch": 0,
                "velocity": 127,
                "duration": 0.325,
                "tempo": 120.0
            },
            {
                "pitch": 51,
                "velocity": 127,
                "duration": 0.1818,
                "tempo": 120.0
            },
            {
                "pitch": 63,
                "velocity": 127,
                "duration": 0.9955,
                "tempo": 120.0
            },
            {
                "pitch": 60,
                "velocity": 127,
                "duration": 0.0932,
                "tempo": 120.0
            },
            {
                "pitch": 64,
                "velocity": 127,
                "duration": 0.4432,
                "tempo": 120.0
            },
            {
                "pitch": 64,
                "velocity": 127,
                "duration": 0.0023,
                "tempo": 120.0
            },
            {
                "pitch": 55,
                "velocity": 127,
                "duration": 0.0932,
                "tempo": 120.0
            },
            {
                "pitch": 0,
                "velocity": 127,
                "duration": 0.4455,
                "tempo": 120.0
            },
            {
                "pitch": 51,
                "velocity": 127,
                "duration": 0.0932,
                "tempo": 120.0
            },
            {
                "pitch": 63,
                "velocity": 127,
                "duration": 0.3386,
                "tempo": 120.0
            },
            {
                "pitch": 60,
                "velocity": 127,
                "duration": 0.1795,
                "tempo": 120.0
            },
            {
                "pitch": 55,
                "velocity": 127,
                "duration": 0.0886,
                "tempo": 120.0
            },
            {
                "pitch": 0,
                "velocity": 127,
                "duration": 0.4364,
                "tempo": 120.0
            },
            {
                "pitch": 51,
                "velocity": 127,
                "duration": 0.0909,
                "tempo": 120.0
            },
            {
                "pitch": 51,
                "velocity": 127,
                "duration": 0.1864,
                "tempo": 120.0
            },
            {
                "pitch": 44,
                "velocity": 127,
                "duration": 0.1886,
                "tempo": 120.0
            },
            {
                "pitch": 49,
                "velocity": 127,
                "duration": 0.1818,
                "tempo": 120.0
            },
            {
                "pitch": 52,
                "velocity": 127,
                "duration": 0.4432,
                "tempo": 120.0
            },
            {
                "pitch": 44,
                "velocity": 127,
                "duration": 0.0886,
                "tempo": 120.0
            },
            {
                "pitch": 49,
                "velocity": 127,
                "duration": 0.0932,
                "tempo": 120.0
            },
            {
                "pitch": 52,
                "velocity": 127,
                "duration": 0.4409,
                "tempo": 120.0
            },
            {
                "pitch": 44,
                "velocity": 127,
                "duration": 0.0932,
                "tempo": 120.0
            },
            {
                "pitch": 53,
                "velocity": 127,
                "duration": 0.3386,
                "tempo": 120.0
            },
            {
                "pitch": 49,
                "velocity": 127,
                "duration": 0.1841,
                "tempo": 120.0
            },
            {
                "pitch": 52,
                "velocity": 127,
                "duration": 0.4477,
                "tempo": 120.0
            },
            {
                "pitch": 44,
                "velocity": 127,
                "duration": 0.0909,
                "tempo": 120.0
            },
            {
                "pitch": 52,
                "velocity": 127,
                "duration": 0.2205,
                "tempo": 120.0
            },
            {
                "pitch": 49,
                "velocity": 127,
                "duration": 0.1841,
                "tempo": 120.0
            },
            {
                "pitch": 52,
                "velocity": 127,
                "duration": 0.2205,
                "tempo": 120.0
            },
            {
                "pitch": 44,
                "velocity": 127,
                "duration": 0.1841,
                "tempo": 120.0
            },
            {
                "pitch": 7,
                "velocity": 127,
                "duration": 1.7682,
                "tempo": 120.0
            },
            {
                "pitch": 49,
                "velocity": 127,
                "duration": 0.1795,
                "tempo": 120.0
            },
            {
                "pitch": 52,
                "velocity": 127,
                "duration": 0.4364,
                "tempo": 120.0
            },
            {
                "pitch": 44,
                "velocity": 127,
                "duration": 0.0909,
                "tempo": 120.0
            },
            {
                "pitch": 53,
                "velocity": 127,
                "duration": 1.4295,
                "tempo": 120.0
            },
            {
                "pitch": 49,
                "velocity": 127,
                "duration": 0.0932,
                "tempo": 120.0
            },
            {
                "pitch": 52,
                "velocity": 127,
                "duration": 0.4432,
                "tempo": 120.0
            },
            {
                "pitch": 44,
                "velocity": 127,
                "duration": 0.0932,
                "tempo": 120.0
            },
            {
                "pitch": 53,
                "velocity": 127,
                "duration": 0.3386,
                "tempo": 120.0
            },
            {
                "pitch": 49,
                "velocity": 127,
                "duration": 0.1841,
                "tempo": 120.0
            },
            {
                "pitch": 52,
                "velocity": 127,
                "duration": 0.4455,
                "tempo": 120.0
            },
            {
                "pitch": 44,
                "velocity": 127,
                "duration": 0.0909,
                "tempo": 120.0
            },
            {
                "pitch": 64,
                "velocity": 127,
                "duration": 3.7591,
                "tempo": 120.0
            },
            {
                "pitch": 60,
                "velocity": 127,
                "duration": 0.1841,
                "tempo": 120.0
            },
            {
                "pitch": 64,
                "velocity": 127,
                "duration": 0.2227,
                "tempo": 120.0
            },
            {
                "pitch": 64,
                "velocity": 127,
                "duration": 0.0023,
                "tempo": 120.0
            },
            {
                "pitch": 55,
                "velocity": 127,
                "duration": 0.1818,
                "tempo": 120.0
            },
            {
                "pitch": 0,
                "velocity": 127,
                "duration": 4.0932,
                "tempo": 120.0
            },
            {
                "pitch": 60,
                "velocity": 127,
                "duration": 0.1818,
                "tempo": 120.0
            },
            {
                "pitch": 55,
                "velocity": 127,
                "duration": 0.0886,
                "tempo": 120.0
            },
            {
                "pitch": 0,
                "velocity": 127,
                "duration": 0.325,
                "tempo": 120.0
            },
            {
                "pitch": 51,
                "velocity": 127,
                "duration": 0.0909,
                "tempo": 120.0
            },
            {
                "pitch": 63,
                "velocity": 127,
                "duration": 4.85,
                "tempo": 120.0
            },
            {
                "pitch": 60,
                "velocity": 127,
                "duration": 0.1864,
                "tempo": 120.0
            },
            {
                "pitch": 64,
                "velocity": 127,
                "duration": 0.4409,
                "tempo": 120.0
            },
            {
                "pitch": 55,
                "velocity": 127,
                "duration": 0.0932,
                "tempo": 120.0
            },
            {
                "pitch": 0,
                "velocity": 127,
                "duration": 0.4477,
                "tempo": 120.0
            },
            {
                "pitch": 60,
                "velocity": 127,
                "duration": 0.1841,
                "tempo": 120.0
            },
            {
                "pitch": 64,
                "velocity": 127,
                "duration": 0.3341,
                "tempo": 120.0
            },
            {
                "pitch": 55,
                "velocity": 127,
                "duration": 0.1795,
                "tempo": 120.0
            },
            {
                "pitch": 58,
                "velocity": 127,
                "duration": 0.0886,
                "tempo": 120.0
            },
            {
                "pitch": 58,
                "velocity": 127,
                "duration": 0.1886,
                "tempo": 120.0
            },
            {
                "pitch": 54,
                "velocity": 127,
                "duration": 0.1864,
                "tempo": 120.0
            },
            {
                "pitch": 50,
                "velocity": 127,
                "duration": 0.0909,
                "tempo": 120.0
            },
            {
                "pitch": 57,
                "velocity": 127,
                "duration": 0.1841,
                "tempo": 120.0
            },
            {
                "pitch": 19,
                "velocity": 127,
                "duration": 0.5568,
                "tempo": 120.0
            },
            {
                "pitch": 54,
                "velocity": 127,
                "duration": 0.4227,
                "tempo": 120.0
            },
            {
                "pitch": 54,
                "velocity": 127,
                "duration": 0.0909,
                "tempo": 120.0
            },
            {
                "pitch": 50,
                "velocity": 127,
                "duration": 0.0909,
                "tempo": 120.0
            },
            {
                "pitch": 65,
                "velocity": 127,
                "duration": 0.4409,
                "tempo": 120.0
            },
            {
                "pitch": 57,
                "velocity": 127,
                "duration": 0.1841,
                "tempo": 120.0
            },
            {
                "pitch": 19,
                "velocity": 127,
                "duration": 0.4409,
                "tempo": 120.0
            },
            {
                "pitch": 50,
                "velocity": 127,
                "duration": 0.0932,
                "tempo": 120.0
            },
            {
                "pitch": 54,
                "velocity": 127,
                "duration": 0.5318,
                "tempo": 120.0
            },
            {
                "pitch": 54,
                "velocity": 127,
                "duration": 0.0909,
                "tempo": 120.0
            },
            {
                "pitch": 50,
                "velocity": 127,
                "duration": 0.2023,
                "tempo": 120.0
            },
            {
                "pitch": 50,
                "velocity": 127,
                "duration": 0.0909,
                "tempo": 120.0
            },
            {
                "pitch": 65,
                "velocity": 127,
                "duration": 0.5523,
                "tempo": 120.0
            },
            {
                "pitch": 55,
                "velocity": 127,
                "duration": 1.7545,
                "tempo": 120.0
            },
            {
                "pitch": 55,
                "velocity": 127,
                "duration": 0.0909,
                "tempo": 120.0
            },
            {
                "pitch": 58,
                "velocity": 127,
                "duration": 0.0909,
                "tempo": 120.0
            },
            {
                "pitch": 63,
                "velocity": 127,
                "duration": 2.7523,
                "tempo": 120.0
            },
            {
                "pitch": 63,
                "velocity": 127,
                "duration": 0.0932,
                "tempo": 120.0
            },
            {
                "pitch": 65,
                "velocity": 127,
                "duration": 0.3318,
                "tempo": 120.0
            },
            {
                "pitch": 58,
                "velocity": 127,
                "duration": 0.0909,
                "tempo": 120.0
            },
            {
                "pitch": 38,
                "velocity": 127,
                "duration": 0.2227,
                "tempo": 120.0
            },
            {
                "pitch": 63,
                "velocity": 127,
                "duration": 0.0909,
                "tempo": 120.0
            },
            {
                "pitch": 63,
                "velocity": 127,
                "duration": 0.1841,
                "tempo": 120.0
            },
            {
                "pitch": 65,
                "velocity": 127,
                "duration": 0.4409,
                "tempo": 120.0
            },
            {
                "pitch": 57,
                "velocity": 127,
                "duration": 0.0909,
                "tempo": 120.0
            },
            {
                "pitch": 62,
                "velocity": 127,
                "duration": 11.3659,
                "tempo": 120.0
            },
            {
                "pitch": 62,
                "velocity": 127,
                "duration": 0.0909,
                "tempo": 120.0
            },
            {
                "pitch": 62,
                "velocity": 127,
                "duration": 0.1841,
                "tempo": 120.0
            },
            {
                "pitch": 64,
                "velocity": 127,
                "duration": 3.0955,
                "tempo": 120.0
            },
            {
                "pitch": 56,
                "velocity": 127,
                "duration": 0.0909,
                "tempo": 120.0
            },
            {
                "pitch": 19,
                "velocity": 127,
                "duration": 1.6568,
                "tempo": 120.0
            },
            {
                "pitch": 61,
                "velocity": 127,
                "duration": 0.0909,
                "tempo": 120.0
            },
            {
                "pitch": 61,
                "velocity": 127,
                "duration": 0.1841,
                "tempo": 120.0
            },
            {
                "pitch": 64,
                "velocity": 127,
                "duration": 0.4409,
                "tempo": 120.0
            },
            {
                "pitch": 59,
                "velocity": 127,
                "duration": 0.0909,
                "tempo": 120.0
            },
            {
                "pitch": 59,
                "velocity": 127,
                "duration": 0.0909,
                "tempo": 120.0
            },
            {
                "pitch": 58,
                "velocity": 127,
                "duration": 0.0909,
                "tempo": 120.0
            },
            {
                "pitch": 31,
                "velocity": 127,
                "duration": 1.1045,
                "tempo": 120.0
            },
            {
                "pitch": 61,
                "velocity": 127,
                "duration": 0.0932,
                "tempo": 120.0
            },
            {
                "pitch": 64,
                "velocity": 127,
                "duration": 0.4432,
                "tempo": 120.0
            },
            {
                "pitch": 56,
                "velocity": 127,
                "duration": 0.0955,
                "tempo": 120.0
            },
            {
                "pitch": 19,
                "velocity": 127,
                "duration": 0.8886,
                "tempo": 120.0
            },
            {
                "pitch": 61,
                "velocity": 127,
                "duration": 0.0932,
                "tempo": 120.0
            },
            {
                "pitch": 61,
                "velocity": 127,
                "duration": 0.1841,
                "tempo": 120.0
            },
            {
                "pitch": 65,
                "velocity": 127,
                "duration": 1.775,
                "tempo": 120.0
            },
            {
                "pitch": 56,
                "velocity": 127,
                "duration": 0.0886,
                "tempo": 120.0
            },
            {
                "pitch": 19,
                "velocity": 127,
                "duration": 0.4432,
                "tempo": 120.0
            },
            {
                "pitch": 63,
                "velocity": 127,
                "duration": 0.0886,
                "tempo": 120.0
            },
            {
                "pitch": 63,
                "velocity": 127,
                "duration": 0.1818,
                "tempo": 120.0
            },
            {
                "pitch": 64,
                "velocity": 127,
                "duration": 0.8818,
                "tempo": 120.0
            },
            {
                "pitch": 61,
                "velocity": 127,
                "duration": 0.0909,
                "tempo": 120.0
            },
            {
                "pitch": 61,
                "velocity": 127,
                "duration": 0.0909,
                "tempo": 120.0
            },
            {
                "pitch": 63,
                "velocity": 127,
                "duration": 0.0932,
                "tempo": 120.0
            },
            {
                "pitch": 68,
                "velocity": 127,
                "duration": 0.0932,
                "tempo": 120.0
            },
            {
                "pitch": 71,
                "velocity": 127,
                "duration": 0.2614,
                "tempo": 120.0
            }
        ],
        "Trumpet": [
            {
                "pitch": 59,
                "velocity": 101,
                "duration": 0.0909,
                "tempo": 120.0
            },
            {
                "pitch": 59,
                "velocity": 101,
                "duration": 0.0909,
                "tempo": 120.0
            },
            {
                "pitch": 54,
                "velocity": 101,
                "duration": 0.0909,
                "tempo": 120.0
            },
            {
                "pitch": 66,
                "velocity": 101,
                "duration": 0.0023,
                "tempo": 120.0
            },
            {
                "pitch": 59,
                "velocity": 101,
                "duration": 0.1818,
                "tempo": 120.0
            },
            {
                "pitch": 32,
                "velocity": 101,
                "duration": 0.3318,
                "tempo": 120.0
            },
            {
                "pitch": 50,
                "velocity": 101,
                "duration": 0.0909,
                "tempo": 120.0
            },
            {
                "pitch": 57,
                "velocity": 101,
                "duration": 0.0909,
                "tempo": 120.0
            },
            {
                "pitch": 54,
                "velocity": 101,
                "duration": 0.0909,
                "tempo": 120.0
            },
            {
                "pitch": 59,
                "velocity": 101,
                "duration": 0.0932,
                "tempo": 120.0
            },
            {
                "pitch": 32,
                "velocity": 101,
                "duration": 0.4409,
                "tempo": 120.0
            },
            {
                "pitch": 54,
                "velocity": 101,
                "duration": 0.1841,
                "tempo": 120.0
            },
            {
                "pitch": 66,
                "velocity": 101,
                "duration": 0.3318,
                "tempo": 120.0
            },
            {
                "pitch": 59,
                "velocity": 101,
                "duration": 0.1841,
                "tempo": 120.0
            },
            {
                "pitch": 32,
                "velocity": 101,
                "duration": 0.4409,
                "tempo": 120.0
            },
            {
                "pitch": 50,
                "velocity": 101,
                "duration": 0.0932,
                "tempo": 120.0
            },
            {
                "pitch": 54,
                "velocity": 101,
                "duration": 0.0909,
                "tempo": 120.0
            },
            {
                "pitch": 66,
                "velocity": 101,
                "duration": 0.4432,
                "tempo": 120.0
            },
            {
                "pitch": 59,
                "velocity": 101,
                "duration": 0.0909,
                "tempo": 120.0
            },
            {
                "pitch": 59,
                "velocity": 101,
                "duration": 0.0909,
                "tempo": 120.0
            },
            {
                "pitch": 59,
                "velocity": 101,
                "duration": 0.0909,
                "tempo": 120.0
            },
            {
                "pitch": 32,
                "velocity": 101,
                "duration": 0.5523,
                "tempo": 120.0
            },
            {
                "pitch": 54,
                "velocity": 101,
                "duration": 0.0932,
                "tempo": 120.0
            },
            {
                "pitch": 66,
                "velocity": 101,
                "duration": 0.4409,
                "tempo": 120.0
            },
            {
                "pitch": 59,
                "velocity": 101,
                "duration": 0.1841,
                "tempo": 120.0
            },
            {
                "pitch": 32,
                "velocity": 101,
                "duration": 0.3318,
                "tempo": 120.0
            },
            {
                "pitch": 50,
                "velocity": 101,
                "duration": 0.8636,
                "tempo": 120.0
            },
            {
                "pitch": 50,
                "velocity": 101,
                "duration": 0.0909,
                "tempo": 120.0
            },
            {
                "pitch": 65,
                "velocity": 101,
                "duration": 1.7682,
                "tempo": 120.0
            },
            {
                "pitch": 57,
                "velocity": 101,
                "duration": 0.0909,
                "tempo": 120.0
            },
            {
                "pitch": 19,
                "velocity": 101,
                "duration": 1.7659,
                "tempo": 120.0
            },
            {
                "pitch": 54,
                "velocity": 101,
                "duration": 0.0909,
                "tempo": 120.0
            },
            {
                "pitch": 66,
                "velocity": 101,
                "duration": 0.5523,
                "tempo": 120.0
            },
            {
                "pitch": 59,
                "velocity": 101,
                "duration": 0.0909,
                "tempo": 120.0
            },
            {
                "pitch": 32,
                "velocity": 101,
                "duration": 0.4432,
                "tempo": 120.0
            },
            {
                "pitch": 54,
                "velocity": 101,
                "duration": 0.1818,
                "tempo": 120.0
            },
            {
                "pitch": 66,
                "velocity": 101,
                "duration": 0.3318,
                "tempo": 120.0
            },
            {
                "pitch": 59,
                "velocity": 101,
                "duration": 0.1818,
                "tempo": 120.0
            },
            {
                "pitch": 32,
                "velocity": 101,
                "duration": 0.4409,
                "tempo": 120.0
            },
            {
                "pitch": 50,
                "velocity": 101,
                "duration": 0.0909,
                "tempo": 120.0
            },
            {
                "pitch": 54,
                "velocity": 101,
                "duration": 0.0932,
                "tempo": 120.0
            },
            {
                "pitch": 66,
                "velocity": 101,
                "duration": 0.4409,
                "tempo": 120.0
            },
            {
                "pitch": 59,
                "velocity": 101,
                "duration": 0.0909,
                "tempo": 120.0
            },
            {
                "pitch": 63,
                "velocity": 101,
                "duration": 0.1864,
                "tempo": 120.0
            },
            {
                "pitch": 63,
                "velocity": 101,
                "duration": 0.0932,
                "tempo": 120.0
            },
            {
                "pitch": 63,
                "velocity": 101,
                "duration": 0.1841,
                "tempo": 120.0
            },
            {
                "pitch": 63,
                "velocity": 101,
                "duration": 0.1795,
                "tempo": 120.0
            },
            {
                "pitch": 63,
                "velocity": 101,
                "duration": 0.1818,
                "tempo": 120.0
            },
            {
                "pitch": 63,
                "velocity": 101,
                "duration": 0.1841,
                "tempo": 120.0
            },
            {
                "pitch": 63,
                "velocity": 101,
                "duration": 0.1841,
                "tempo": 120.0
            },
            {
                "pitch": 63,
                "velocity": 101,
                "duration": 0.0909,
                "tempo": 120.0
            },
            {
                "pitch": 63,
                "velocity": 101,
                "duration": 0.0909,
                "tempo": 120.0
            },
            {
                "pitch": 63,
                "velocity": 101,
                "duration": 0.0909,
                "tempo": 120.0
            },
            {
                "pitch": 63,
                "velocity": 101,
                "duration": 0.1886,
                "tempo": 120.0
            },
            {
                "pitch": 63,
                "velocity": 101,
                "duration": 0.0955,
                "tempo": 120.0
            },
            {
                "pitch": 63,
                "velocity": 101,
                "duration": 0.1841,
                "tempo": 120.0
            },
            {
                "pitch": 63,
                "velocity": 101,
                "duration": 0.1795,
                "tempo": 120.0
            },
            {
                "pitch": 63,
                "velocity": 101,
                "duration": 0.1818,
                "tempo": 120.0
            },
            {
                "pitch": 63,
                "velocity": 101,
                "duration": 0.1864,
                "tempo": 120.0
            },
            {
                "pitch": 63,
                "velocity": 101,
                "duration": 0.1841,
                "tempo": 120.0
            },
            {
                "pitch": 63,
                "velocity": 101,
                "duration": 0.0886,
                "tempo": 120.0
            },
            {
                "pitch": 63,
                "velocity": 101,
                "duration": 0.0886,
                "tempo": 120.0
            },
            {
                "pitch": 63,
                "velocity": 101,
                "duration": 0.0886,
                "tempo": 120.0
            },
            {
                "pitch": 65,
                "velocity": 101,
                "duration": 4.6386,
                "tempo": 120.0
            },
            {
                "pitch": 56,
                "velocity": 101,
                "duration": 0.0932,
                "tempo": 120.0
            },
            {
                "pitch": 56,
                "velocity": 101,
                "duration": 0.0955,
                "tempo": 120.0
            },
            {
                "pitch": 51,
                "velocity": 101,
                "duration": 0.0955,
                "tempo": 120.0
            },
            {
                "pitch": 54,
                "velocity": 101,
                "duration": 0.1864,
                "tempo": 120.0
            },
            {
                "pitch": 51,
                "velocity": 101,
                "duration": 0.3136,
                "tempo": 120.0
            },
            {
                "pitch": 51,
                "velocity": 101,
                "duration": 0.0909,
                "tempo": 120.0
            },
            {
                "pitch": 54,
                "velocity": 101,
                "duration": 0.1977,
                "tempo": 120.0
            },
            {
                "pitch": 54,
                "velocity": 101,
                "duration": 0.0886,
                "tempo": 120.0
            },
            {
                "pitch": 51,
                "velocity": 101,
                "duration": 0.1977,
                "tempo": 120.0
            },
            {
                "pitch": 51,
                "velocity": 101,
                "duration": 0.0909,
                "tempo": 120.0
            },
            {
                "pitch": 65,
                "velocity": 101,
                "duration": 0.8932,
                "tempo": 120.0
            },
            {
                "pitch": 56,
                "velocity": 101,
                "duration": 0.0909,
                "tempo": 120.0
            },
            {
                "pitch": 56,
                "velocity": 101,
                "duration": 0.0932,
                "tempo": 120.0
            },
            {
                "pitch": 7,
                "velocity": 101,
                "duration": 0.8841,
                "tempo": 120.0
            },
            {
                "pitch": 51,
                "velocity": 101,
                "duration": 0.0909,
                "tempo": 120.0
            },
            {
                "pitch": 54,
                "velocity": 101,
                "duration": 0.6227,
                "tempo": 120.0
            },
            {
                "pitch": 54,
                "velocity": 101,
                "duration": 0.1818,
                "tempo": 120.0
            },
            {
                "pitch": 51,
                "velocity": 101,
                "duration": 0.3068,
                "tempo": 120.0
            },
            {
                "pitch": 51,
                "velocity": 101,
                "duration": 0.0886,
                "tempo": 120.0
            },
            {
                "pitch": 54,
                "velocity": 101,
                "duration": 0.1977,
                "tempo": 120.0
            },
            {
                "pitch": 54,
                "velocity": 101,
                "duration": 0.0909,
                "tempo": 120.0
            },
            {
                "pitch": 66,
                "velocity": 101,
                "duration": 5.3045,
                "tempo": 120.0
            },
            {
                "pitch": 55,
                "velocity": 101,
                "duration": 0.0886,
                "tempo": 120.0
            },
            {
                "pitch": 55,
                "velocity": 101,
                "duration": 0.0909,
                "tempo": 120.0
            },
            {
                "pitch": 55,
                "velocity": 101,
                "duration": 0.0932,
                "tempo": 120.0
            },
            {
                "pitch": 67,
                "velocity": 101,
                "duration": 0.0932,
                "tempo": 120.0
            },
            {
                "pitch": 55,
                "velocity": 101,
                "duration": 0.1864,
                "tempo": 120.0
            },
            {
                "pitch": 55,
                "velocity": 101,
                "duration": 0.0909,
                "tempo": 120.0
            },
            {
                "pitch": 67,
                "velocity": 101,
                "duration": 0.0909,
                "tempo": 120.0
            },
            {
                "pitch": 55,
                "velocity": 101,
                "duration": 0.0909,
                "tempo": 120.0
            },
            {
                "pitch": 53,
                "velocity": 101,
                "duration": 0.0932,
                "tempo": 120.0
            },
            {
                "pitch": 66,
                "velocity": 101,
                "duration": 1.1114,
                "tempo": 120.0
            },
            {
                "pitch": 58,
                "velocity": 101,
                "duration": 0.1841,
                "tempo": 120.0
            },
            {
                "pitch": 58,
                "velocity": 101,
                "duration": 0.0909,
                "tempo": 120.0
            },
            {
                "pitch": 52,
                "velocity": 101,
                "duration": 0.0909,
                "tempo": 120.0
            },
            {
                "pitch": 52,
                "velocity": 101,
                "duration": 0.0932,
                "tempo": 120.0
            },
            {
                "pitch": 66,
                "velocity": 101,
                "duration": 0.5523,
                "tempo": 120.0
            },
            {
                "pitch": 55,
                "velocity": 101,
                "duration": 0.0909,
                "tempo": 120.0
            },
            {
                "pitch": 55,
                "velocity": 101,
                "duration": 0.0023,
                "tempo": 120.0
            },
            {
                "pitch": 58,
                "velocity": 101,
                "duration": 0.0909,
                "tempo": 120.0
            },
            {
                "pitch": 81,
                "velocity": 101,
                "duration": 1.4705,
                "tempo": 120.0
            },
            {
                "pitch": 71,
                "velocity": 101,
                "duration": 1.475,
                "tempo": 120.0
            }
        ],
        "Electric Piano 1": [
            {
                "pitch": 72,
                "velocity": 101,
                "duration": 1.4773,
                "tempo": 120.0
            },
            {
                "pitch": 96,
                "velocity": 101,
                "duration": 0.0023,
                "tempo": 120.0
            },
            {
                "pitch": 98,
                "velocity": 101,
                "duration": 1.4795,
                "tempo": 120.0
            }
        ],
        "Church Organ": [
            {
                "pitch": 73,
                "velocity": 127,
                "duration": 1.4727,
                "tempo": 120.0
            },
            {
                "pitch": 73,
                "velocity": 127,
                "duration": 1.4795,
                "tempo": 120.0
            },
            {
                "pitch": 74,
                "velocity": 127,
                "duration": 1.4773,
                "tempo": 120.0
            }
        ]
    }
}