{
    "track_id": "08 Rocks",
    "mood": "angry",
    "instruments": {
        "Acoustic Bass": [
            {
                "pitch": 43,
                "velocity": 80,
                "duration": 0.1068,
                "tempo": 120.0
            },
            {
                "pitch": 45,
                "velocity": 80,
                "duration": 0.7545,
                "tempo": 120.0
            },
            {
                "pitch": 45,
                "velocity": 80,
                "duration": 0.1455,
                "tempo": 120.0
            },
            {
                "pitch": 47,
                "velocity": 80,
                "duration": 0.7614,
                "tempo": 120.0
            },
            {
                "pitch": 47,
                "velocity": 80,
                "duration": 0.15,
                "tempo": 120.0
            },
            {
                "pitch": 48,
                "velocity": 80,
                "duration": 0.7523,
                "tempo": 120.0
            },
            {
                "pitch": 50,
                "velocity": 80,
                "duration": 0.1477,
                "tempo": 120.0
            },
            {
                "pitch": 52,
                "velocity": 80,
                "duration": 0.75,
                "tempo": 120.0
            },
            {
                "pitch": 43,
                "velocity": 80,
                "duration": 0.1477,
                "tempo": 120.0
            },
            {
                "pitch": 45,
                "velocity": 80,
                "duration": 0.7545,
                "tempo": 120.0
            },
            {
                "pitch": 45,
                "velocity": 80,
                "duration": 0.1455,
                "tempo": 120.0
            },
            {
                "pitch": 47,
                "velocity": 80,
                "duration": 0.7523,
                "tempo": 120.0
            },
            {
                "pitch": 47,
                "velocity": 80,
                "duration": 0.1477,
                "tempo": 120.0
            },
            {
                "pitch": 48,
                "velocity": 80,
                "duration": 0.7545,
                "tempo": 120.0
            },
            {
                "pitch": 50,
                "velocity": 80,
                "duration": 0.1477,
                "tempo": 120.0
            },
            {
                "pitch": 51,
                "velocity": 80,
                "duration": 0.1455,
                "tempo": 120.0
            },
            {
                "pitch": 52,
                "velocity": 80,
                "duration": 2.7159,
                "tempo": 120.0
            },
            {
                "pitch": 45,
                "velocity": 80,
                "duration": 0.1523,
                "tempo": 120.0
            },
            {
                "pitch": 45,
                "velocity": 80,
                "duration": 0.1523,
                "tempo": 120.0
            },
            {
                "pitch": 45,
                "velocity": 80,
                "duration": 0.15,
                "tempo": 120.0
            },
            {
                "pitch": 45,
                "velocity": 80,
                "duration": 0.1477,
                "tempo": 120.0
            },
            {
                "pitch": 45,
                "velocity": 80,
                "duration": 0.1477,
                "tempo": 120.0
            },
            {
                "pitch": 45,
                "velocity": 80,
                "duration": 0.15,
                "tempo": 120.0
            },
            {
                "pitch": 45,
                "velocity": 80,
                "duration": 0.15,
                "tempo": 120.0
            },
            {
                "pitch": 45,
                "velocity": 80,
                "duration": 0.15,
                "tempo": 120.0
            },
            {
                "pitch": 45,
                "velocity": 80,
                "duration": 0.15,
                "tempo": 120.0
            },
            {
                "pitch": 45,
                "velocity": 80,
                "duration": 0.15,
                "tempo": 120.0
            },
            {
                "pitch": 45,
                "velocity": 80,
                "duration": 0.15,
                "tempo": 120.0
            },
            {
                "pitch": 45,
                "velocity": 80,
                "duration": 0.1477,
                "tempo": 120.0
            },
            {
                "pitch": 45,
                "velocity": 80,
                "duration": 0.15,
                "tempo": 120.0
            },
            {
                "pitch": 45,
                "velocity": 80,
                "duration": 0.15,
                "tempo": 120.0
            },
            {
                "pitch": 45,
                "velocity": 80,
                "duration": 0.15,
                "tempo": 120.0
            },
            {
                "pitch": 45,
                "velocity": 80,
                "duration": 0.1523,
                "tempo": 120.0
            },
            {
                "pitch": 45,
                "velocity": 80,
                "duration": 0.1477,
                "tempo": 120.0
            },
            {
                "pitch": 45,
                "velocity": 80,
                "duration": 0.15,
                "tempo": 120.0
            },
            {
                "pitch": 45,
                "velocity": 80,
                "duration": 0.15,
                "tempo": 120.0
            },
            {
                "pitch": 45,
                "velocity": 80,
                "duration": 0.1477,
                "tempo": 120.0
            },
            {
                "pitch": 45,
                "velocity": 80,
                "duration": 0.1477,
                "tempo": 120.0
            },
            {
                "pitch": 45,
                "velocity": 80,
                "duration": 0.15,
                "tempo": 120.0
            },
            {
                "pitch": 45,
                "velocity": 80,
                "duration": 0.15,
                "tempo": 120.0
            },
            {
                "pitch": 45,
                "velocity": 80,
                "duration": 0.15,
                "tempo": 120.0
            },
            {
                "pitch": 45,
                "velocity": 80,
                "duration": 0.1477,
                "tempo": 120.0
            },
            {
                "pitch": 45,
                "velocity": 80,
                "duration": 0.15,
                "tempo": 120.0
            },
            {
                "pitch": 45,
                "velocity": 80,
                "duration": 0.1523,
                "tempo": 120.0
            },
            {
                "pitch": 45,
                "velocity": 80,
                "duration": 0.15,
                "tempo": 120.0
            },
            {
                "pitch": 45,
                "velocity": 80,
                "duration": 0.1523,
                "tempo": 120.0
            },
            {
                "pitch": 45,
                "velocity": 80,
                "duration": 0.1523,
                "tempo": 120.0
            },
            {
                "pitch": 45,
                "velocity": 80,
                "duration": 0.15,
                "tempo": 120.0
            },
            {
                "pitch": 45,
                "velocity": 80,
                "duration": 0.15,
                "tempo": 120.0
            },
            {
                "pitch": 47,
                "velocity": 80,
                "duration": 0.1477,
                "tempo": 120.0
            },
            {
                "pitch": 47,
                "velocity": 80,
                "duration": 0.1477,
                "tempo": 120.0
            },
            {
                "pitch": 47,
                "velocity": 80,
                "duration": 0.1523,
                "tempo": 120.0
            },
            {
                "pitch": 47,
                "velocity": 80,
                "duration": 0.1523,
                "tempo": 120.0
            },
            {
                "pitch": 47,
                "velocity": 80,
                "duration": 0.1545,
                "tempo": 120.0
            },
            {
                "pitch": 47,
                "velocity": 80,
                "duration": 0.1523,
                "tempo": 120.0
            },
            {
                "pitch": 47,
                "velocity": 80,
                "duration": 0.15,
                "tempo": 120.0
            },
            {
                "pitch": 47,
                "velocity": 80,
                "duration": 0.15,
                "tempo": 120.0
            },
            {
                "pitch": 48,
                "velocity": 80,
                "duration": 0.1477,
                "tempo": 120.0
            },
            {
                "pitch": 48,
                "velocity": 80,
                "duration": 0.15,
                "tempo": 120.0
            },
            {
                "pitch": 48,
                "velocity": 80,
                "duration": 0.1523,
                "tempo": 120.0
            },
            {
                "pitch": 48,
                "velocity": 80,
                "duration": 0.15,
                "tempo": 120.0
            },
            {
                "pitch": 48,
                "velocity": 80,
                "duration": 0.1523,
                "tempo": 120.0
            },
            {
                "pitch": 48,
                "velocity": 80,
                "duration": 0.1523,
                "tempo": 120.0
            },
            {
                "pitch": 48,
                "velocity": 80,
                "duration": 0.1477,
                "tempo": 120.0
            },
            {
                "pitch": 48,
                "velocity": 80,
                "duration": 0.1477,
                "tempo": 120.0
            },
            {
                "pitch": 33,
                "velocity": 80,
                "duration": 0.1477,
                "tempo": 120.0
            },
            {
                "pitch": 36,
                "velocity": 80,
                "duration": 0.4545,
                "tempo": 120.0
            },
            {
                "pitch": 38,
                "velocity": 80,
                "duration": 0.1477,
                "tempo": 120.0
            },
            {
                "pitch": 38,
                "velocity": 80,
                "duration": 0.1477,
                "tempo": 120.0
            },
            {
                "pitch": 38,
                "velocity": 80,
                "duration": 0.15,
                "tempo": 120.0
            },
            {
                "pitch": 41,
                "velocity": 80,
                "duration": 0.2977,
                "tempo": 120.0
            },
            {
                "pitch": 40,
                "velocity": 80,
                "duration": 0.15,
                "tempo": 120.0
            },
            {
                "pitch": 45,
                "velocity": 80,
                "duration": 0.1523,
                "tempo": 120.0
            },
            {
                "pitch": 45,
                "velocity": 80,
                "duration": 0.1523,
                "tempo": 120.0
            },
            {
                "pitch": 45,
                "velocity": 80,
                "duration": 0.15,
                "tempo": 120.0
            },
            {
                "pitch": 45,
                "velocity": 80,
                "duration": 0.15,
                "tempo": 120.0
            },
            {
                "pitch": 45,
                "velocity": 80,
                "duration": 0.15,
                "tempo": 120.0
            },
            {
                "pitch": 45,
                "velocity": 80,
                "duration": 0.15,
                "tempo": 120.0
            },
            {
                "pitch": 45,
                "velocity": 80,
                "duration": 0.15,
                "tempo": 120.0
            },
            {
                "pitch": 45,
                "velocity": 80,
                "duration": 0.1523,
                "tempo": 120.0
            },
            {
                "pitch": 45,
                "velocity": 80,
                "duration": 0.15,
                "tempo": 120.0
            },
            {
                "pitch": 45,
                "velocity": 80,
                "duration": 0.15,
                "tempo": 120.0
            },
            {
                "pitch": 45,
                "velocity": 80,
                "duration": 0.15,
                "tempo": 120.0
            },
            {
                "pitch": 45,
                "velocity": 80,
                "duration": 0.15,
                "tempo": 120.0
            },
            {
                "pitch": 45,
                "velocity": 80,
                "duration": 0.15,
                "tempo": 120.0
            },
            {
                "pitch": 45,
                "velocity": 80,
                "duration": 0.15,
                "tempo": 120.0
            },
            {
                "pitch": 45,
                "velocity": 80,
                "duration": 0.1477,
                "tempo": 120.0
            },
            {
                "pitch": 45,
                "velocity": 80,
                "duration": 0.15,
                "tempo": 120.0
            },
            {
                "pitch": 45,
                "velocity": 80,
                "duration": 0.1477,
                "tempo": 120.0
            },
            {
                "pitch": 45,
                "velocity": 80,
                "duration": 0.15,
                "tempo": 120.0
            },
            {
                "pitch": 45,
                "velocity": 80,
                "duration": 0.1523,
                "tempo": 120.0
            },
            {
                "pitch": 45,
                "velocity": 80,
                "duration": 0.15,
                "tempo": 120.0
            },
            {
                "pitch": 45,
                "velocity": 80,
                "duration": 0.15,
                "tempo": 120.0
            },
            {
                "pitch": 45,
                "velocity": 80,
                "duration": 0.1523,
                "tempo": 120.0
            },
            {
                "pitch": 45,
                "velocity": 80,
                "duration": 0.1523,
                "tempo": 120.0
            },
            {
                "pitch": 45,
                "velocity": 80,
                "duration": 0.1523,
                "tempo": 120.0
            },
            {
                "pitch": 45,
                "velocity": 80,
                "duration": 0.1523,
                "tempo": 120.0
            },
            {
                "pitch": 45,
                "velocity": 80,
                "duration": 0.1523,
                "tempo": 120.0
            },
            {
                "pitch": 45,
                "velocity": 80,
                "duration": 0.15,
                "tempo": 120.0
            },
            {
                "pitch": 45,
                "velocity": 80,
                "duration": 0.1477,
                "tempo": 120.0
            },
            {
                "pitch": 45,
                "velocity": 80,
                "duration": 0.15,
                "tempo": 120.0
            },
            {
                "pitch": 45,
                "velocity": 80,
                "duration": 0.15,
                "tempo": 120.0
            },
            {
                "pitch": 45,
                "velocity": 80,
                "duration": 0.15,
                "tempo": 120.0
            },
            {
                "pitch": 45,
                "velocity": 80,
                "duration": 0.1523,
                "tempo": 120.0
            },
            {
                "pitch": 47,
                "velocity": 80,
                "duration": 0.15,
                "tempo": 120.0
            },
            {
                "pitch": 47,
                "velocity": 80,
                "duration": 0.1523,
                "tempo": 120.0
            },
            {
                "pitch": 47,
                "velocity": 80,
                "duration": 0.15,
                "tempo": 120.0
            },
            {
                "pitch": 47,
                "velocity": 80,
                "duration": 0.15,
                "tempo": 120.0
            },
            {
                "pitch": 47,
                "velocity": 80,
                "duration": 0.15,
                "tempo": 120.0
            },
            {
                "pitch": 47,
                "velocity": 80,
                "duration": 0.1523,
                "tempo": 120.0
            },
            {
                "pitch": 47,
                "velocity": 80,
                "duration": 0.15,
                "tempo": 120.0
            },
            {
                "pitch": 47,
                "velocity": 80,
                "duration": 0.15,
                "tempo": 120.0
            },
            {
                "pitch": 48,
                "velocity": 80,
                "duration": 0.1477,
                "tempo": 120.0
            },
            {
                "pitch": 48,
                "velocity": 80,
                "duration": 0.15,
                "tempo": 120.0
            },
            {
                "pitch": 48,
                "velocity": 80,
                "duration": 0.15,
                "tempo": 120.0
            },
            {
                "pitch": 48,
                "velocity": 80,
                "duration": 0.15,
                "tempo": 120.0
            },
            {
                "pitch": 48,
                "velocity": 80,
                "duration": 0.15,
                "tempo": 120.0
            },
            {
                "pitch": 48,
                "velocity": 80,
                "duration": 0.15,
                "tempo": 120.0
            },
            {
                "pitch": 48,
                "velocity": 80,
                "duration": 0.1477,
                "tempo": 120.0
            },
            {
                "pitch": 48,
                "velocity": 80,
                "duration": 0.1523,
                "tempo": 120.0
            },
            {
                "pitch": 43,
                "velocity": 80,
                "duration": 0.15,
                "tempo": 120.0
            },
            {
                "pitch": 43,
                "velocity": 80,
                "duration": 0.15,
                "tempo": 120.0
            },
            {
                "pitch": 43,
                "velocity": 80,
                "duration": 0.15,
                "tempo": 120.0
            },
            {
                "pitch": 43,
                "velocity": 80,
                "duration": 0.15,
                "tempo": 120.0
            },
            {
                "pitch": 43,
                "velocity": 80,
                "duration": 0.1523,
                "tempo": 120.0
            },
            {
                "pitch": 43,
                "velocity": 80,
                "duration": 0.1523,
                "tempo": 120.0
            },
            {
                "pitch": 43,
                "velocity": 80,
                "duration": 0.1477,
                "tempo": 120.0
            },
            {
                "pitch": 43,
                "velocity": 80,
                "duration": 0.1523,
                "tempo": 120.0
            },
            {
                "pitch": 40,
                "velocity": 80,
                "duration": 0.1477,
                "tempo": 120.0
            },
            {
                "pitch": 40,
                "velocity": 80,
                "duration": 0.1523,
                "tempo": 120.0
            },
            {
                "pitch": 40,
                "velocity": 80,
                "duration": 0.15,
                "tempo": 120.0
            },
            {
                "pitch": 40,
                "velocity": 80,
                "duration": 0.15,
                "tempo": 120.0
            },
            {
                "pitch": 40,
                "velocity": 80,
                "duration": 0.15,
                "tempo": 120.0
            },
            {
                "pitch": 40,
                "velocity": 80,
                "duration": 0.15,
                "tempo": 120.0
            },
            {
                "pitch": 40,
                "velocity": 80,
                "duration": 0.1523,
                "tempo": 120.0
            },
            {
                "pitch": 40,
                "velocity": 80,
                "duration": 0.1523,
                "tempo": 120.0
            },
            {
                "pitch": 40,
                "velocity": 80,
                "duration": 0.1477,
                "tempo": 120.0
            },
            {
                "pitch": 40,
                "velocity": 80,
                "duration": 0.15,
                "tempo": 120.0
            },
            {
                "pitch": 40,
                "velocity": 80,
                "duration": 0.1523,
                "tempo": 120.0
            },
            {
                "pitch": 40,
                "velocity": 80,
                "duration": 0.1523,
                "tempo": 120.0
            },
            {
                "pitch": 40,
                "velocity": 80,
                "duration": 0.15,
                "tempo": 120.0
            },
            {
                "pitch": 40,
                "velocity": 80,
                "duration": 0.15,
                "tempo": 120.0
            },
            {
                "pitch": 40,
                "velocity": 80,
                "duration": 0.1545,
                "tempo": 120.0
            },
            {
                "pitch": 40,
                "velocity": 80,
                "duration": 0.1523,
                "tempo": 120.0
            },
            {
                "pitch": 38,
                "velocity": 80,
                "duration": 0.15,
                "tempo": 120.0
            },
            {
                "pitch": 38,
                "velocity": 80,
                "duration": 0.1523,
                "tempo": 120.0
            },
            {
                "pitch": 38,
                "velocity": 80,
                "duration": 0.15,
                "tempo": 120.0
            },
            {
                "pitch": 38,
                "velocity": 80,
                "duration": 0.15,
                "tempo": 120.0
            },
            {
                "pitch": 38,
                "velocity": 80,
                "duration": 0.15,
                "tempo": 120.0
            },
            {
                "pitch": 38,
                "velocity": 80,
                "duration": 0.1523,
                "tempo": 120.0
            },
            {
                "pitch": 38,
                "velocity": 80,
                "duration": 0.1523,
                "tempo": 120.0
            },
            {
                "pitch": 38,
                "velocity": 80,
                "duration": 0.1523,
                "tempo": 120.0
            },
            {
                "pitch": 38,
                "velocity": 80,
                "duration": 0.15,
                "tempo": 120.0
            },
            {
                "pitch": 38,
                "velocity": 80,
                "duration": 0.1523,
                "tempo": 120.0
            },
            {
                "pitch": 38,
                "velocity": 80,
                "duration": 0.15,
                "tempo": 120.0
            },
            {
                "pitch": 38,
                "velocity": 80,
                "duration": 0.15,
                "tempo": 120.0
            },
            {
                "pitch": 38,
                "velocity": 80,
                "duration": 0.15,
                "tempo": 120.0
            },
            {
                "pitch": 38,
                "velocity": 80,
                "duration": 0.15,
                "tempo": 120.0
            },
            {
                "pitch": 38,
                "velocity": 80,
                "duration": 0.1523,
                "tempo": 120.0
            },
            {
                "pitch": 38,
                "velocity": 80,
                "duration": 0.1523,
                "tempo": 120.0
            },
            {
                "pitch": 40,
                "velocity": 80,
                "duration": 0.1477,
                "tempo": 120.0
            },
            {
                "pitch": 40,
                "velocity": 80,
                "duration": 0.15,
                "tempo": 120.0
            },
            {
                "pitch": 40,
                "velocity": 80,
                "duration": 0.15,
                "tempo": 120.0
            },
            {
                "pitch": 40,
                "velocity": 80,
                "duration": 0.1523,
                "tempo": 120.0
            },
            {
                "pitch": 40,
                "velocity": 80,
                "duration": 0.15,
                "tempo": 120.0
            },
            {
                "pitch": 40,
                "velocity": 80,
                "duration": 0.15,
                "tempo": 120.0
            },
            {
                "pitch": 40,
                "velocity": 80,
                "duration": 0.1523,
                "tempo": 120.0
            },
            {
                "pitch": 40,
                "velocity": 80,
                "duration": 0.1523,
                "tempo": 120.0
            },
            {
                "pitch": 40,
                "velocity": 80,
                "duration": 0.1477,
                "tempo": 120.0
            },
            {
                "pitch": 40,
                "velocity": 80,
                "duration": 0.15,
                "tempo": 120.0
            },
            {
                "pitch": 40,
                "velocity": 80,
                "duration": 0.15,
                "tempo": 120.0
            },
            {
                "pitch": 40,
                "velocity": 80,
                "duration": 0.1523,
                "tempo": 120.0
            },
            {
                "pitch": 40,
                "velocity": 80,
                "duration": 0.15,
                "tempo": 120.0
            },
            {
                "pitch": 40,
                "velocity": 80,
                "duration": 0.15,
                "tempo": 120.0
            },
            {
                "pitch": 40,
                "velocity": 80,
                "duration": 0.1477,
                "tempo": 120.0
            },
            {
                "pitch": 40,
                "velocity": 80,
                "duration": 0.15,
                "tempo": 120.0
            },
            {
                "pitch": 38,
                "velocity": 80,
                "duration": 0.1477,
                "tempo": 120.0
            },
            {
                "pitch": 38,
                "velocity": 80,
                "duration": 0.1477,
                "tempo": 120.0
            },
            {
                "pitch": 38,
                "velocity": 80,
                "duration": 0.15,
                "tempo": 120.0
            },
            {
                "pitch": 38,
                "velocity": 80,
                "duration": 0.15,
                "tempo": 120.0
            },
            {
                "pitch": 38,
                "velocity": 80,
                "duration": 0.15,
                "tempo": 120.0
            },
            {
                "pitch": 38,
                "velocity": 80,
                "duration": 0.1523,
                "tempo": 120.0
            },
            {
                "pitch": 38,
                "velocity": 80,
                "duration": 0.15,
                "tempo": 120.0
            },
            {
                "pitch": 38,
                "velocity": 80,
                "duration": 0.15,
                "tempo": 120.0
            },
            {
                "pitch": 38,
                "velocity": 80,
                "duration": 0.15,
                "tempo": 120.0
            },
            {
                "pitch": 38,
                "velocity": 80,
                "duration": 0.1523,
                "tempo": 120.0
            },
            {
                "pitch": 38,
                "velocity": 80,
                "duration": 0.15,
                "tempo": 120.0
            },
            {
                "pitch": 38,
                "velocity": 80,
                "duration": 0.15,
                "tempo": 120.0
            },
            {
                "pitch": 38,
                "velocity": 80,
                "duration": 0.1523,
                "tempo": 120.0
            },
            {
                "pitch": 38,
                "velocity": 80,
                "duration": 0.1523,
                "tempo": 120.0
            },
            {
                "pitch": 38,
                "velocity": 80,
                "duration": 0.1523,
                "tempo": 120.0
            },
            {
                "pitch": 38,
                "velocity": 80,
                "duration": 0.1568,
                "tempo": 120.0
            },
            {
                "pitch": 40,
                "velocity": 80,
                "duration": 0.15,
                "tempo": 120.0
            },
            {
                "pitch": 40,
                "velocity": 80,
                "duration": 0.1523,
                "tempo": 120.0
            },
            {
                "pitch": 40,
                "velocity": 80,
                "duration": 0.15,
                "tempo": 120.0
            },
            {
                "pitch": 40,
                "velocity": 80,
                "duration": 0.15,
                "tempo": 120.0
            },
            {
                "pitch": 40,
                "velocity": 80,
                "duration": 0.1523,
                "tempo": 120.0
            },
            {
                "pitch": 40,
                "velocity": 80,
                "duration": 0.15,
                "tempo": 120.0
            },
            {
                "pitch": 40,
                "velocity": 80,
                "duration": 0.1477,
                "tempo": 120.0
            },
            {
                "pitch": 40,
                "velocity": 80,
                "duration": 0.15,
                "tempo": 120.0
            },
            {
                "pitch": 38,
                "velocity": 80,
                "duration": 0.15,
                "tempo": 120.0
            },
            {
                "pitch": 38,
                "velocity": 80,
                "duration": 0.15,
                "tempo": 120.0
            },
            {
                "pitch": 38,
                "velocity": 80,
                "duration": 0.1523,
                "tempo": 120.0
            },
            {
                "pitch": 38,
                "velocity": 80,
                "duration": 0.15,
                "tempo": 120.0
            },
            {
                "pitch": 38,
                "velocity": 80,
                "duration": 0.15,
                "tempo": 120.0
            },
            {
                "pitch": 38,
                "velocity": 80,
                "duration": 0.1523,
                "tempo": 120.0
            },
            {
                "pitch": 38,
                "velocity": 80,
                "duration": 0.15,
                "tempo": 120.0
            },
            {
                "pitch": 38,
                "velocity": 80,
                "duration": 0.1523,
                "tempo": 120.0
            },
            {
                "pitch": 36,
                "velocity": 80,
                "duration": 0.15,
                "tempo": 120.0
            },
            {
                "pitch": 36,
                "velocity": 80,
                "duration": 0.15,
                "tempo": 120.0
            },
            {
                "pitch": 36,
                "velocity": 80,
                "duration": 0.1523,
                "tempo": 120.0
            },
            {
                "pitch": 36,
                "velocity": 80,
                "duration": 0.15,
                "tempo": 120.0
            },
            {
                "pitch": 36,
                "velocity": 80,
                "duration": 0.15,
                "tempo": 120.0
            },
            {
                "pitch": 36,
                "velocity": 80,
                "duration": 0.1523,
                "tempo": 120.0
            },
            {
                "pitch": 36,
                "velocity": 80,
                "duration": 0.15,
                "tempo": 120.0
            },
            {
                "pitch": 36,
                "velocity": 80,
                "duration": 0.1523,
                "tempo": 120.0
            },
            {
                "pitch": 38,
                "velocity": 80,
                "duration": 0.15,
                "tempo": 120.0
            },
            {
                "pitch": 40,
                "velocity": 80,
                "duration": 0.15,
                "tempo": 120.0
            },
            {
                "pitch": 43,
                "velocity": 80,
                "duration": 0.15,
                "tempo": 120.0
            },
            {
                "pitch": 45,
                "velocity": 80,
                "duration": 0.15,
                "tempo": 120.0
            },
            {
                "pitch": 45,
                "velocity": 80,
                "duration": 0.15,
                "tempo": 120.0
            },
            {
                "pitch": 45,
                "velocity": 80,
                "duration": 0.15,
                "tempo": 120.0
            },
            {
                "pitch": 45,
                "velocity": 80,
                "duration": 0.15,
                "tempo": 120.0
            },
            {
                "pitch": 45,
                "velocity": 80,
                "duration": 0.1523,
                "tempo": 120.0
            },
            {
                "pitch": 40,
                "velocity": 80,
                "duration": 0.15,
                "tempo": 120.0
            },
            {
                "pitch": 40,
                "velocity": 80,
                "duration": 0.15,
                "tempo": 120.0
            },
            {
                "pitch": 40,
                "velocity": 80,
                "duration": 0.15,
                "tempo": 120.0
            },
            {
                "pitch": 40,
                "velocity": 80,
                "duration": 0.15,
                "tempo": 120.0
            },
            {
                "pitch": 40,
                "velocity": 80,
                "duration": 0.15,
                "tempo": 120.0
            },
            {
                "pitch": 40,
                "velocity": 80,
                "duration": 0.15,
                "tempo": 120.0
            },
            {
                "pitch": 40,
                "velocity": 80,
                "duration": 0.15,
                "tempo": 120.0
            },
            {
                "pitch": 40,
                "velocity": 80,
                "duration": 0.1523,
                "tempo": 120.0
            },
            {
                "pitch": 38,
                "velocity": 80,
                "duration": 0.15,
                "tempo": 120.0
            },
            {
                "pitch": 38,
                "velocity": 80,
                "duration": 0.15,
                "tempo": 120.0
            },
            {
                "pitch": 38,
                "velocity": 80,
                "duration": 0.15,
                "tempo": 120.0
            },
            {
                "pitch": 38,
                "velocity": 80,
                "duration": 0.1523,
                "tempo": 120.0
            },
            {
                "pitch": 38,
                "velocity": 80,
                "duration": 0.15,
                "tempo": 120.0
            },
            {
                "pitch": 38,
                "velocity": 80,
                "duration": 0.15,
                "tempo": 120.0
            },
            {
                "pitch": 38,
                "velocity": 80,
                "duration": 0.15,
                "tempo": 120.0
            },
            {
                "pitch": 38,
                "velocity": 80,
                "duration": 0.1523,
                "tempo": 120.0
            },
            {
                "pitch": 36,
                "velocity": 80,
                "duration": 0.15,
                "tempo": 120.0
            },
            {
                "pitch": 36,
                "velocity": 80,
                "duration": 0.15,
                "tempo": 120.0
            },
            {
                "pitch": 36,
                "velocity": 80,
                "duration": 0.1523,
                "tempo": 120.0
            },
            {
                "pitch": 36,
                "velocity": 80,
                "duration": 0.1523,
                "tempo": 120.0
            },
            {
                "pitch": 36,
                "velocity": 80,
                "duration": 0.1523,
                "tempo": 120.0
            },
            {
                "pitch": 36,
                "velocity": 80,
                "duration": 0.1523,
                "tempo": 120.0
            },
            {
                "pitch": 36,
                "velocity": 80,
                "duration": 0.15,
                "tempo": 120.0
            },
            {
                "pitch": 36,
                "velocity": 80,
                "duration": 0.1523,
                "tempo": 120.0
            },
            {
                "pitch": 38,
                "velocity": 80,
                "duration": 0.1523,
                "tempo": 120.0
            },
            {
                "pitch": 40,
                "velocity": 80,
                "duration": 0.15,
                "tempo": 120.0
            },
            {
                "pitch": 43,
                "velocity": 80,
                "duration": 0.15,
                "tempo": 120.0
            },
            {
                "pitch": 45,
                "velocity": 80,
                "duration": 0.1523,
                "tempo": 120.0
            },
            {
                "pitch": 45,
                "velocity": 80,
                "duration": 0.1523,
                "tempo": 120.0
            },
            {
                "pitch": 45,
                "velocity": 80,
                "duration": 0.15,
                "tempo": 120.0
            },
            {
                "pitch": 45,
                "velocity": 80,
                "duration": 0.15,
                "tempo": 120.0
            },
            {
                "pitch": 45,
                "velocity": 80,
                "duration": 0.1523,
                "tempo": 120.0
            },
            {
                "pitch": 45,
                "velocity": 80,
                "duration": 0.3,
                "tempo": 120.0
            },
            {
                "pitch": 43,
                "velocity": 80,
                "duration": 0.1523,
                "tempo": 120.0
            },
            {
                "pitch": 40,
                "velocity": 80,
                "duration": 0.3023,
                "tempo": 120.0
            },
            {
                "pitch": 38,
                "velocity": 80,
                "duration": 0.15,
                "tempo": 120.0
            },
            {
                "pitch": 36,
                "velocity": 80,
                "duration": 0.15,
                "tempo": 120.0
            },
            {
                "pitch": 38,
                "velocity": 80,
                "duration": 0.15,
                "tempo": 120.0
            },
            {
                "pitch": 40,
                "velocity": 80,
                "duration": 0.1477,
                "tempo": 120.0
            },
            {
                "pitch": 38,
                "velocity": 80,
                "duration": 0.1477,
                "tempo": 120.0
            },
            {
                "pitch": 36,
                "velocity": 80,
                "duration": 0.15,
                "tempo": 120.0
            },
            {
                "pitch": 33,
                "velocity": 80,
                "duration": 0.6045,
                "tempo": 120.0
            },
            {
                "pitch": 45,
                "velocity": 80,
                "duration": 0.3,
                "tempo": 120.0
            },
            {
                "pitch": 43,
                "velocity": 80,
                "duration": 0.15,
                "tempo": 120.0
            },
            {
                "pitch": 40,
                "velocity": 80,
                "duration": 0.3045,
                "tempo": 120.0
            },
            {
                "pitch": 38,
                "velocity": 80,
                "duration": 0.15,
                "tempo": 120.0
            },
            {
                "pitch": 36,
                "velocity": 80,
                "duration": 0.15,
                "tempo": 120.0
            },
            {
                "pitch": 38,
                "velocity": 80,
                "duration": 0.1523,
                "tempo": 120.0
            },
            {
                "pitch": 40,
                "velocity": 80,
                "duration": 0.1523,
                "tempo": 120.0
            },
            {
                "pitch": 38,
                "velocity": 80,
                "duration": 0.15,
                "tempo": 120.0
            },
            {
                "pitch": 36,
                "velocity": 80,
                "duration": 0.15,
                "tempo": 120.0
            },
            {
                "pitch": 33,
                "velocity": 80,
                "duration": 0.6023,
                "tempo": 120.0
            }
        ],
        "Acoustic Grand Piano": [
            {
                "pitch": 48,
                "velocity": 64,
                "duration": 0.6045,
                "tempo": 120.0
            },
            {
                "pitch": 50,
                "velocity": 64,
                "duration": 0.6045,
                "tempo": 120.0
            },
            {
                "pitch": 52,
                "velocity": 64,
                "duration": 0.4523,
                "tempo": 120.0
            },
            {
                "pitch": 53,
                "velocity": 64,
                "duration": 0.4477,
                "tempo": 120.0
            },
            {
                "pitch": 55,
                "velocity": 64,
                "duration": 0.3,
                "tempo": 120.0
            },
            {
                "pitch": 48,
                "velocity": 64,
                "duration": 0.5977,
                "tempo": 120.0
            },
            {
                "pitch": 50,
                "velocity": 64,
                "duration": 0.6,
                "tempo": 120.0
            },
            {
                "pitch": 52,
                "velocity": 64,
                "duration": 0.45,
                "tempo": 120.0
            },
            {
                "pitch": 53,
                "velocity": 64,
                "duration": 0.4523,
                "tempo": 120.0
            },
            {
                "pitch": 55,
                "velocity": 64,
                "duration": 0.3,
                "tempo": 120.0
            },
            {
                "pitch": 50,
                "velocity": 64,
                "duration": 0.6045,
                "tempo": 120.0
            },
            {
                "pitch": 52,
                "velocity": 64,
                "duration": 0.6068,
                "tempo": 120.0
            },
            {
                "pitch": 53,
                "velocity": 64,
                "duration": 0.45,
                "tempo": 120.0
            },
            {
                "pitch": 55,
                "velocity": 64,
                "duration": 0.4545,
                "tempo": 120.0
            },
            {
                "pitch": 53,
                "velocity": 64,
                "duration": 0.2977,
                "tempo": 120.0
            },
            {
                "pitch": 59,
                "velocity": 64,
                "duration": 0.1477,
                "tempo": 120.0
            },
            {
                "pitch": 64,
                "velocity": 64,
                "duration": 0.1523,
                "tempo": 120.0
            },
            {
                "pitch": 67,
                "velocity": 64,
                "duration": 0.15,
                "tempo": 120.0
            },
            {
                "pitch": 71,
                "velocity": 64,
                "duration": 0.15,
                "tempo": 120.0
            },
            {
                "pitch": 67,
                "velocity": 64,
                "duration": 0.15,
                "tempo": 120.0
            },
            {
                "pitch": 71,
                "velocity": 64,
                "duration": 0.15,
                "tempo": 120.0
            },
            {
                "pitch": 67,
                "velocity": 64,
                "duration": 0.15,
                "tempo": 120.0
            },
            {
                "pitch": 64,
                "velocity": 64,
                "duration": 0.15,
                "tempo": 120.0
            },
            {
                "pitch": 59,
                "velocity": 64,
                "duration": 0.1477,
                "tempo": 120.0
            },
            {
                "pitch": 62,
                "velocity": 64,
                "duration": 0.1477,
                "tempo": 120.0
            },
            {
                "pitch": 67,
                "velocity": 64,
                "duration": 0.15,
                "tempo": 120.0
            },
            {
                "pitch": 71,
                "velocity": 64,
                "duration": 0.1477,
                "tempo": 120.0
            },
            {
                "pitch": 67,
                "velocity": 64,
                "duration": 0.15,
                "tempo": 120.0
            },
            {
                "pitch": 71,
                "velocity": 64,
                "duration": 0.15,
                "tempo": 120.0
            },
            {
                "pitch": 67,
                "velocity": 64,
                "duration": 0.15,
                "tempo": 120.0
            },
            {
                "pitch": 62,
                "velocity": 64,
                "duration": 0.1523,
                "tempo": 120.0
            },
            {
                "pitch": 57,
                "velocity": 64,
                "duration": 0.15,
                "tempo": 120.0
            },
            {
                "pitch": 60,
                "velocity": 64,
                "duration": 0.15,
                "tempo": 120.0
            },
            {
                "pitch": 64,
                "velocity": 64,
                "duration": 0.15,
                "tempo": 120.0
            },
            {
                "pitch": 69,
                "velocity": 64,
                "duration": 0.1477,
                "tempo": 120.0
            },
            {
                "pitch": 64,
                "velocity": 64,
                "duration": 0.15,
                "tempo": 120.0
            },
            {
                "pitch": 69,
                "velocity": 64,
                "duration": 0.15,
                "tempo": 120.0
            },
            {
                "pitch": 64,
                "velocity": 64,
                "duration": 0.15,
                "tempo": 120.0
            },
            {
                "pitch": 60,
                "velocity": 64,
                "duration": 0.1523,
                "tempo": 120.0
            },
            {
                "pitch": 62,
                "velocity": 64,
                "duration": 0.1477,
                "tempo": 120.0
            },
            {
                "pitch": 64,
                "velocity": 64,
                "duration": 0.15,
                "tempo": 120.0
            },
            {
                "pitch": 67,
                "velocity": 64,
                "duration": 0.1477,
                "tempo": 120.0
            },
            {
                "pitch": 69,
                "velocity": 64,
                "duration": 0.1477,
                "tempo": 120.0
            },
            {
                "pitch": 67,
                "velocity": 64,
                "duration": 0.1477,
                "tempo": 120.0
            },
            {
                "pitch": 64,
                "velocity": 64,
                "duration": 0.1477,
                "tempo": 120.0
            },
            {
                "pitch": 67,
                "velocity": 64,
                "duration": 0.15,
                "tempo": 120.0
            },
            {
                "pitch": 69,
                "velocity": 64,
                "duration": 0.15,
                "tempo": 120.0
            },
            {
                "pitch": 59,
                "velocity": 64,
                "duration": 0.15,
                "tempo": 120.0
            },
            {
                "pitch": 64,
                "velocity": 64,
                "duration": 0.15,
                "tempo": 120.0
            },
            {
                "pitch": 67,
                "velocity": 64,
                "duration": 0.15,
                "tempo": 120.0
            },
            {
                "pitch": 71,
                "velocity": 64,
                "duration": 0.15,
                "tempo": 120.0
            },
            {
                "pitch": 67,
                "velocity": 64,
                "duration": 0.1523,
                "tempo": 120.0
            },
            {
                "pitch": 71,
                "velocity": 64,
                "duration": 0.15,
                "tempo": 120.0
            },
            {
                "pitch": 67,
                "velocity": 64,
                "duration": 0.15,
                "tempo": 120.0
            },
            {
                "pitch": 64,
                "velocity": 64,
                "duration": 0.15,
                "tempo": 120.0
            },
            {
                "pitch": 59,
                "velocity": 64,
                "duration": 0.15,
                "tempo": 120.0
            },
            {
                "pitch": 62,
                "velocity": 64,
                "duration": 0.15,
                "tempo": 120.0
            },
            {
                "pitch": 67,
                "velocity": 64,
                "duration": 0.15,
                "tempo": 120.0
            },
            {
                "pitch": 71,
                "velocity": 64,
                "duration": 0.15,
                "tempo": 120.0
            },
            {
                "pitch": 67,
                "velocity": 64,
                "duration": 0.1523,
                "tempo": 120.0
            },
            {
                "pitch": 71,
                "velocity": 64,
                "duration": 0.15,
                "tempo": 120.0
            },
            {
                "pitch": 67,
                "velocity": 64,
                "duration": 0.1477,
                "tempo": 120.0
            },
            {
                "pitch": 62,
                "velocity": 64,
                "duration": 0.15,
                "tempo": 120.0
            },
            {
                "pitch": 57,
                "velocity": 64,
                "duration": 0.1477,
                "tempo": 120.0
            },
            {
                "pitch": 60,
                "velocity": 64,
                "duration": 0.1477,
                "tempo": 120.0
            },
            {
                "pitch": 64,
                "velocity": 64,
                "duration": 0.15,
                "tempo": 120.0
            },
            {
                "pitch": 69,
                "velocity": 64,
                "duration": 0.15,
                "tempo": 120.0
            },
            {
                "pitch": 64,
                "velocity": 64,
                "duration": 0.1523,
                "tempo": 120.0
            },
            {
                "pitch": 69,
                "velocity": 64,
                "duration": 0.15,
                "tempo": 120.0
            },
            {
                "pitch": 64,
                "velocity": 64,
                "duration": 0.15,
                "tempo": 120.0
            },
            {
                "pitch": 60,
                "velocity": 64,
                "duration": 0.15,
                "tempo": 120.0
            },
            {
                "pitch": 62,
                "velocity": 64,
                "duration": 0.15,
                "tempo": 120.0
            },
            {
                "pitch": 64,
                "velocity": 64,
                "duration": 0.15,
                "tempo": 120.0
            },
            {
                "pitch": 67,
                "velocity": 64,
                "duration": 0.15,
                "tempo": 120.0
            },
            {
                "pitch": 69,
                "velocity": 64,
                "duration": 0.15,
                "tempo": 120.0
            },
            {
                "pitch": 67,
                "velocity": 64,
                "duration": 0.15,
                "tempo": 120.0
            },
            {
                "pitch": 64,
                "velocity": 64,
                "duration": 0.15,
                "tempo": 120.0
            },
            {
                "pitch": 67,
                "velocity": 64,
                "duration": 0.15,
                "tempo": 120.0
            },
            {
                "pitch": 69,
                "velocity": 64,
                "duration": 0.15,
                "tempo": 120.0
            }
        ],
        "Electric Piano 1": [
            {
                "pitch": 55,
                "velocity": 80,
                "duration": 0.1068,
                "tempo": 120.0
            },
            {
                "pitch": 57,
                "velocity": 80,
                "duration": 0.7545,
                "tempo": 120.0
            },
            {
                "pitch": 57,
                "velocity": 80,
                "duration": 0.1477,
                "tempo": 120.0
            },
            {
                "pitch": 59,
                "velocity": 80,
                "duration": 0.7591,
                "tempo": 120.0
            },
            {
                "pitch": 59,
                "velocity": 80,
                "duration": 0.15,
                "tempo": 120.0
            },
            {
                "pitch": 60,
                "velocity": 80,
                "duration": 0.7523,
                "tempo": 120.0
            },
            {
                "pitch": 62,
                "velocity": 80,
                "duration": 0.1523,
                "tempo": 120.0
            },
            {
                "pitch": 64,
                "velocity": 80,
                "duration": 0.7523,
                "tempo": 120.0
            },
            {
                "pitch": 55,
                "velocity": 80,
                "duration": 0.15,
                "tempo": 120.0
            },
            {
                "pitch": 57,
                "velocity": 80,
                "duration": 0.7545,
                "tempo": 120.0
            },
            {
                "pitch": 57,
                "velocity": 80,
                "duration": 0.1477,
                "tempo": 120.0
            },
            {
                "pitch": 59,
                "velocity": 80,
                "duration": 0.7523,
                "tempo": 120.0
            },
            {
                "pitch": 59,
                "velocity": 80,
                "duration": 0.15,
                "tempo": 120.0
            },
            {
                "pitch": 60,
                "velocity": 80,
                "duration": 0.7523,
                "tempo": 120.0
            },
            {
                "pitch": 62,
                "velocity": 80,
                "duration": 0.15,
                "tempo": 120.0
            },
            {
                "pitch": 63,
                "velocity": 80,
                "duration": 0.15,
                "tempo": 120.0
            },
            {
                "pitch": 64,
                "velocity": 80,
                "duration": 2.7136,
                "tempo": 120.0
            },
            {
                "pitch": 57,
                "velocity": 101,
                "duration": 0.15,
                "tempo": 120.0
            },
            {
                "pitch": 59,
                "velocity": 101,
                "duration": 0.1523,
                "tempo": 120.0
            },
            {
                "pitch": 60,
                "velocity": 101,
                "duration": 0.15,
                "tempo": 120.0
            },
            {
                "pitch": 62,
                "velocity": 101,
                "duration": 0.4477,
                "tempo": 120.0
            },
            {
                "pitch": 60,
                "velocity": 101,
                "duration": 0.15,
                "tempo": 120.0
            },
            {
                "pitch": 59,
                "velocity": 101,
                "duration": 0.15,
                "tempo": 120.0
            },
            {
                "pitch": 60,
                "velocity": 101,
                "duration": 0.1477,
                "tempo": 120.0
            },
            {
                "pitch": 62,
                "velocity": 101,
                "duration": 0.15,
                "tempo": 120.0
            },
            {
                "pitch": 65,
                "velocity": 101,
                "duration": 0.1477,
                "tempo": 120.0
            },
            {
                "pitch": 64,
                "velocity": 101,
                "duration": 0.75,
                "tempo": 120.0
            },
            {
                "pitch": 57,
                "velocity": 101,
                "duration": 0.1477,
                "tempo": 120.0
            },
            {
                "pitch": 59,
                "velocity": 101,
                "duration": 0.15,
                "tempo": 120.0
            },
            {
                "pitch": 60,
                "velocity": 101,
                "duration": 0.15,
                "tempo": 120.0
            },
            {
                "pitch": 62,
                "velocity": 101,
                "duration": 0.4477,
                "tempo": 120.0
            },
            {
                "pitch": 60,
                "velocity": 101,
                "duration": 0.1477,
                "tempo": 120.0
            },
            {
                "pitch": 59,
                "velocity": 101,
                "duration": 0.15,
                "tempo": 120.0
            },
            {
                "pitch": 60,
                "velocity": 101,
                "duration": 0.1477,
                "tempo": 120.0
            },
            {
                "pitch": 62,
                "velocity": 101,
                "duration": 0.1477,
                "tempo": 120.0
            },
            {
                "pitch": 65,
                "velocity": 101,
                "duration": 0.15,
                "tempo": 120.0
            },
            {
                "pitch": 64,
                "velocity": 101,
                "duration": 0.7545,
                "tempo": 120.0
            },
            {
                "pitch": 64,
                "velocity": 101,
                "duration": 0.1477,
                "tempo": 120.0
            },
            {
                "pitch": 62,
                "velocity": 101,
                "duration": 0.15,
                "tempo": 120.0
            },
            {
                "pitch": 60,
                "velocity": 101,
                "duration": 0.15,
                "tempo": 120.0
            },
            {
                "pitch": 62,
                "velocity": 101,
                "duration": 0.3045,
                "tempo": 120.0
            },
            {
                "pitch": 60,
                "velocity": 101,
                "duration": 0.15,
                "tempo": 120.0
            },
            {
                "pitch": 59,
                "velocity": 101,
                "duration": 0.3,
                "tempo": 120.0
            },
            {
                "pitch": 60,
                "velocity": 101,
                "duration": 0.1477,
                "tempo": 120.0
            },
            {
                "pitch": 59,
                "velocity": 101,
                "duration": 0.15,
                "tempo": 120.0
            },
            {
                "pitch": 57,
                "velocity": 101,
                "duration": 0.15,
                "tempo": 120.0
            },
            {
                "pitch": 59,
                "velocity": 101,
                "duration": 0.3023,
                "tempo": 120.0
            },
            {
                "pitch": 57,
                "velocity": 101,
                "duration": 0.15,
                "tempo": 120.0
            },
            {
                "pitch": 55,
                "velocity": 101,
                "duration": 0.2977,
                "tempo": 120.0
            },
            {
                "pitch": 57,
                "velocity": 101,
                "duration": 0.15,
                "tempo": 120.0
            },
            {
                "pitch": 60,
                "velocity": 101,
                "duration": 0.4545,
                "tempo": 120.0
            },
            {
                "pitch": 62,
                "velocity": 101,
                "duration": 0.15,
                "tempo": 120.0
            },
            {
                "pitch": 62,
                "velocity": 101,
                "duration": 0.15,
                "tempo": 120.0
            },
            {
                "pitch": 62,
                "velocity": 101,
                "duration": 0.1477,
                "tempo": 120.0
            },
            {
                "pitch": 65,
                "velocity": 101,
                "duration": 0.2955,
                "tempo": 120.0
            },
            {
                "pitch": 64,
                "velocity": 101,
                "duration": 0.15,
                "tempo": 120.0
            },
            {
                "pitch": 57,
                "velocity": 101,
                "duration": 0.15,
                "tempo": 120.0
            },
            {
                "pitch": 59,
                "velocity": 101,
                "duration": 0.1523,
                "tempo": 120.0
            },
            {
                "pitch": 60,
                "velocity": 101,
                "duration": 0.15,
                "tempo": 120.0
            },
            {
                "pitch": 62,
                "velocity": 101,
                "duration": 0.45,
                "tempo": 120.0
            },
            {
                "pitch": 60,
                "velocity": 101,
                "duration": 0.15,
                "tempo": 120.0
            },
            {
                "pitch": 59,
                "velocity": 101,
                "duration": 0.1523,
                "tempo": 120.0
            },
            {
                "pitch": 60,
                "velocity": 101,
                "duration": 0.15,
                "tempo": 120.0
            },
            {
                "pitch": 62,
                "velocity": 101,
                "duration": 0.15,
                "tempo": 120.0
            },
            {
                "pitch": 65,
                "velocity": 101,
                "duration": 0.15,
                "tempo": 120.0
            },
            {
                "pitch": 64,
                "velocity": 101,
                "duration": 0.7545,
                "tempo": 120.0
            },
            {
                "pitch": 57,
                "velocity": 101,
                "duration": 0.1477,
                "tempo": 120.0
            },
            {
                "pitch": 59,
                "velocity": 101,
                "duration": 0.1477,
                "tempo": 120.0
            },
            {
                "pitch": 60,
                "velocity": 101,
                "duration": 0.15,
                "tempo": 120.0
            },
            {
                "pitch": 62,
                "velocity": 101,
                "duration": 0.4523,
                "tempo": 120.0
            },
            {
                "pitch": 60,
                "velocity": 101,
                "duration": 0.1523,
                "tempo": 120.0
            },
            {
                "pitch": 59,
                "velocity": 101,
                "duration": 0.15,
                "tempo": 120.0
            },
            {
                "pitch": 60,
                "velocity": 101,
                "duration": 0.1523,
                "tempo": 120.0
            },
            {
                "pitch": 62,
                "velocity": 101,
                "duration": 0.1523,
                "tempo": 120.0
            },
            {
                "pitch": 65,
                "velocity": 101,
                "duration": 0.1477,
                "tempo": 120.0
            },
            {
                "pitch": 64,
                "velocity": 101,
                "duration": 0.7523,
                "tempo": 120.0
            },
            {
                "pitch": 64,
                "velocity": 101,
                "duration": 0.15,
                "tempo": 120.0
            },
            {
                "pitch": 62,
                "velocity": 101,
                "duration": 0.15,
                "tempo": 120.0
            },
            {
                "pitch": 60,
                "velocity": 101,
                "duration": 0.15,
                "tempo": 120.0
            },
            {
                "pitch": 62,
                "velocity": 101,
                "duration": 0.3023,
                "tempo": 120.0
            },
            {
                "pitch": 60,
                "velocity": 101,
                "duration": 0.15,
                "tempo": 120.0
            },
            {
                "pitch": 59,
                "velocity": 101,
                "duration": 0.3,
                "tempo": 120.0
            },
            {
                "pitch": 60,
                "velocity": 101,
                "duration": 0.1477,
                "tempo": 120.0
            },
            {
                "pitch": 59,
                "velocity": 101,
                "duration": 0.15,
                "tempo": 120.0
            },
            {
                "pitch": 57,
                "velocity": 101,
                "duration": 0.15,
                "tempo": 120.0
            },
            {
                "pitch": 59,
                "velocity": 101,
                "duration": 0.3023,
                "tempo": 120.0
            },
            {
                "pitch": 57,
                "velocity": 101,
                "duration": 0.15,
                "tempo": 120.0
            },
            {
                "pitch": 55,
                "velocity": 101,
                "duration": 0.3,
                "tempo": 120.0
            },
            {
                "pitch": 57,
                "velocity": 101,
                "duration": 0.1477,
                "tempo": 120.0
            },
            {
                "pitch": 59,
                "velocity": 101,
                "duration": 0.1477,
                "tempo": 120.0
            },
            {
                "pitch": 57,
                "velocity": 101,
                "duration": 0.15,
                "tempo": 120.0
            },
            {
                "pitch": 55,
                "velocity": 101,
                "duration": 0.3,
                "tempo": 120.0
            },
            {
                "pitch": 59,
                "velocity": 101,
                "duration": 0.15,
                "tempo": 120.0
            },
            {
                "pitch": 57,
                "velocity": 101,
                "duration": 0.15,
                "tempo": 120.0
            },
            {
                "pitch": 87,
                "velocity": 80,
                "duration": 0.0636,
                "tempo": 120.0
            },
            {
                "pitch": 63,
                "velocity": 80,
                "duration": 0.0659,
                "tempo": 120.0
            },
            {
                "pitch": 61,
                "velocity": 80,
                "duration": 0.0159,
                "tempo": 120.0
            },
            {
                "pitch": 49,
                "velocity": 80,
                "duration": 0.0159,
                "tempo": 120.0
            },
            {
                "pitch": 51,
                "velocity": 80,
                "duration": 0.0682,
                "tempo": 120.0
            },
            {
                "pitch": 49,
                "velocity": 80,
                "duration": 0.0159,
                "tempo": 120.0
            },
            {
                "pitch": 51,
                "velocity": 80,
                "duration": 0.05,
                "tempo": 120.0
            },
            {
                "pitch": 87,
                "velocity": 80,
                "duration": 0.0659,
                "tempo": 120.0
            },
            {
                "pitch": 63,
                "velocity": 80,
                "duration": 0.0659,
                "tempo": 120.0
            },
            {
                "pitch": 61,
                "velocity": 80,
                "duration": 0.0159,
                "tempo": 120.0
            },
            {
                "pitch": 51,
                "velocity": 80,
                "duration": 0.0659,
                "tempo": 120.0
            },
            {
                "pitch": 49,
                "velocity": 80,
                "duration": 0.0818,
                "tempo": 120.0
            },
            {
                "pitch": 86,
                "velocity": 80,
                "duration": 0.0659,
                "tempo": 120.0
            },
            {
                "pitch": 63,
                "velocity": 80,
                "duration": 0.0659,
                "tempo": 120.0
            },
            {
                "pitch": 61,
                "velocity": 80,
                "duration": 0.0159,
                "tempo": 120.0
            },
            {
                "pitch": 51,
                "velocity": 80,
                "duration": 0.0659,
                "tempo": 120.0
            },
            {
                "pitch": 49,
                "velocity": 80,
                "duration": 0.0182,
                "tempo": 120.0
            },
            {
                "pitch": 51,
                "velocity": 80,
                "duration": 0.0659,
                "tempo": 120.0
            },
            {
                "pitch": 69,
                "velocity": 80,
                "duration": 0.15,
                "tempo": 120.0
            },
            {
                "pitch": 71,
                "velocity": 80,
                "duration": 0.15,
                "tempo": 120.0
            },
            {
                "pitch": 71,
                "velocity": 80,
                "duration": 0.15,
                "tempo": 120.0
            },
            {
                "pitch": 71,
                "velocity": 80,
                "duration": 0.15,
                "tempo": 120.0
            },
            {
                "pitch": 69,
                "velocity": 80,
                "duration": 0.15,
                "tempo": 120.0
            },
            {
                "pitch": 71,
                "velocity": 80,
                "duration": 0.15,
                "tempo": 120.0
            },
            {
                "pitch": 71,
                "velocity": 80,
                "duration": 0.1523,
                "tempo": 120.0
            },
            {
                "pitch": 71,
                "velocity": 80,
                "duration": 0.1523,
                "tempo": 120.0
            },
            {
                "pitch": 69,
                "velocity": 80,
                "duration": 0.15,
                "tempo": 120.0
            },
            {
                "pitch": 71,
                "velocity": 80,
                "duration": 0.1523,
                "tempo": 120.0
            },
            {
                "pitch": 71,
                "velocity": 80,
                "duration": 0.1523,
                "tempo": 120.0
            },
            {
                "pitch": 71,
                "velocity": 80,
                "duration": 0.15,
                "tempo": 120.0
            },
            {
                "pitch": 74,
                "velocity": 80,
                "duration": 0.15,
                "tempo": 120.0
            },
            {
                "pitch": 72,
                "velocity": 80,
                "duration": 0.1523,
                "tempo": 120.0
            },
            {
                "pitch": 71,
                "velocity": 80,
                "duration": 0.1523,
                "tempo": 120.0
            },
            {
                "pitch": 67,
                "velocity": 80,
                "duration": 0.1523,
                "tempo": 120.0
            },
            {
                "pitch": 67,
                "velocity": 80,
                "duration": 0.1523,
                "tempo": 120.0
            },
            {
                "pitch": 69,
                "velocity": 80,
                "duration": 0.1523,
                "tempo": 120.0
            },
            {
                "pitch": 69,
                "velocity": 80,
                "duration": 0.15,
                "tempo": 120.0
            },
            {
                "pitch": 69,
                "velocity": 80,
                "duration": 0.15,
                "tempo": 120.0
            },
            {
                "pitch": 67,
                "velocity": 80,
                "duration": 0.15,
                "tempo": 120.0
            },
            {
                "pitch": 69,
                "velocity": 80,
                "duration": 0.1523,
                "tempo": 120.0
            },
            {
                "pitch": 69,
                "velocity": 80,
                "duration": 0.15,
                "tempo": 120.0
            },
            {
                "pitch": 69,
                "velocity": 80,
                "duration": 0.15,
                "tempo": 120.0
            },
            {
                "pitch": 67,
                "velocity": 80,
                "duration": 0.15,
                "tempo": 120.0
            },
            {
                "pitch": 69,
                "velocity": 80,
                "duration": 0.1523,
                "tempo": 120.0
            },
            {
                "pitch": 69,
                "velocity": 80,
                "duration": 0.15,
                "tempo": 120.0
            },
            {
                "pitch": 69,
                "velocity": 80,
                "duration": 0.15,
                "tempo": 120.0
            },
            {
                "pitch": 67,
                "velocity": 80,
                "duration": 0.15,
                "tempo": 120.0
            },
            {
                "pitch": 64,
                "velocity": 80,
                "duration": 0.15,
                "tempo": 120.0
            },
            {
                "pitch": 67,
                "velocity": 80,
                "duration": 0.1523,
                "tempo": 120.0
            },
            {
                "pitch": 69,
                "velocity": 80,
                "duration": 0.1523,
                "tempo": 120.0
            },
            {
                "pitch": 69,
                "velocity": 80,
                "duration": 0.15,
                "tempo": 120.0
            },
            {
                "pitch": 71,
                "velocity": 80,
                "duration": 0.15,
                "tempo": 120.0
            },
            {
                "pitch": 71,
                "velocity": 80,
                "duration": 0.1523,
                "tempo": 120.0
            },
            {
                "pitch": 71,
                "velocity": 80,
                "duration": 0.15,
                "tempo": 120.0
            },
            {
                "pitch": 69,
                "velocity": 80,
                "duration": 0.15,
                "tempo": 120.0
            },
            {
                "pitch": 71,
                "velocity": 80,
                "duration": 0.15,
                "tempo": 120.0
            },
            {
                "pitch": 71,
                "velocity": 80,
                "duration": 0.1523,
                "tempo": 120.0
            },
            {
                "pitch": 71,
                "velocity": 80,
                "duration": 0.1523,
                "tempo": 120.0
            },
            {
                "pitch": 69,
                "velocity": 80,
                "duration": 0.15,
                "tempo": 120.0
            },
            {
                "pitch": 71,
                "velocity": 80,
                "duration": 0.15,
                "tempo": 120.0
            },
            {
                "pitch": 71,
                "velocity": 80,
                "duration": 0.1523,
                "tempo": 120.0
            },
            {
                "pitch": 71,
                "velocity": 80,
                "duration": 0.1523,
                "tempo": 120.0
            },
            {
                "pitch": 74,
                "velocity": 80,
                "duration": 0.15,
                "tempo": 120.0
            },
            {
                "pitch": 72,
                "velocity": 80,
                "duration": 0.15,
                "tempo": 120.0
            },
            {
                "pitch": 71,
                "velocity": 80,
                "duration": 0.15,
                "tempo": 120.0
            },
            {
                "pitch": 67,
                "velocity": 80,
                "duration": 0.15,
                "tempo": 120.0
            },
            {
                "pitch": 67,
                "velocity": 80,
                "duration": 0.1477,
                "tempo": 120.0
            },
            {
                "pitch": 69,
                "velocity": 80,
                "duration": 0.1477,
                "tempo": 120.0
            },
            {
                "pitch": 69,
                "velocity": 80,
                "duration": 0.15,
                "tempo": 120.0
            },
            {
                "pitch": 69,
                "velocity": 80,
                "duration": 0.1523,
                "tempo": 120.0
            },
            {
                "pitch": 67,
                "velocity": 80,
                "duration": 0.1523,
                "tempo": 120.0
            },
            {
                "pitch": 69,
                "velocity": 80,
                "duration": 0.15,
                "tempo": 120.0
            },
            {
                "pitch": 69,
                "velocity": 80,
                "duration": 0.15,
                "tempo": 120.0
            },
            {
                "pitch": 69,
                "velocity": 80,
                "duration": 0.1523,
                "tempo": 120.0
            },
            {
                "pitch": 67,
                "velocity": 80,
                "duration": 0.1523,
                "tempo": 120.0
            },
            {
                "pitch": 69,
                "velocity": 80,
                "duration": 0.15,
                "tempo": 120.0
            },
            {
                "pitch": 69,
                "velocity": 80,
                "duration": 0.15,
                "tempo": 120.0
            },
            {
                "pitch": 69,
                "velocity": 80,
                "duration": 0.1523,
                "tempo": 120.0
            },
            {
                "pitch": 67,
                "velocity": 80,
                "duration": 0.1523,
                "tempo": 120.0
            },
            {
                "pitch": 69,
                "velocity": 80,
                "duration": 0.15,
                "tempo": 120.0
            },
            {
                "pitch": 71,
                "velocity": 80,
                "duration": 0.1523,
                "tempo": 120.0
            },
            {
                "pitch": 69,
                "velocity": 80,
                "duration": 0.1523,
                "tempo": 120.0
            },
            {
                "pitch": 76,
                "velocity": 64,
                "duration": 0.1523,
                "tempo": 120.0
            },
            {
                "pitch": 74,
                "velocity": 64,
                "duration": 0.1523,
                "tempo": 120.0
            },
            {
                "pitch": 72,
                "velocity": 64,
                "duration": 0.15,
                "tempo": 120.0
            },
            {
                "pitch": 71,
                "velocity": 64,
                "duration": 0.7568,
                "tempo": 120.0
            },
            {
                "pitch": 74,
                "velocity": 64,
                "duration": 0.1477,
                "tempo": 120.0
            },
            {
                "pitch": 72,
                "velocity": 64,
                "duration": 0.1477,
                "tempo": 120.0
            },
            {
                "pitch": 71,
                "velocity": 64,
                "duration": 0.15,
                "tempo": 120.0
            },
            {
                "pitch": 67,
                "velocity": 64,
                "duration": 0.4705,
                "tempo": 120.0
            },
            {
                "pitch": 67,
                "velocity": 64,
                "duration": 0.0682,
                "tempo": 120.0
            },
            {
                "pitch": 67,
                "velocity": 64,
                "duration": 0.1341,
                "tempo": 120.0
            },
            {
                "pitch": 79,
                "velocity": 64,
                "duration": 0.2023,
                "tempo": 120.0
            },
            {
                "pitch": 55,
                "velocity": 64,
                "duration": 0.2023,
                "tempo": 120.0
            },
            {
                "pitch": 67,
                "velocity": 64,
                "duration": 0.0682,
                "tempo": 120.0
            },
            {
                "pitch": 67,
                "velocity": 64,
                "duration": 0.0159,
                "tempo": 120.0
            },
            {
                "pitch": 67,
                "velocity": 64,
                "duration": 0.15,
                "tempo": 120.0
            },
            {
                "pitch": 69,
                "velocity": 64,
                "duration": 0.15,
                "tempo": 120.0
            },
            {
                "pitch": 72,
                "velocity": 64,
                "duration": 0.15,
                "tempo": 120.0
            },
            {
                "pitch": 74,
                "velocity": 64,
                "duration": 0.7568,
                "tempo": 120.0
            },
            {
                "pitch": 74,
                "velocity": 64,
                "duration": 0.15,
                "tempo": 120.0
            },
            {
                "pitch": 76,
                "velocity": 64,
                "duration": 0.1523,
                "tempo": 120.0
            },
            {
                "pitch": 79,
                "velocity": 64,
                "duration": 1.7523,
                "tempo": 120.0
            },
            {
                "pitch": 79,
                "velocity": 64,
                "duration": 0.15,
                "tempo": 120.0
            },
            {
                "pitch": 81,
                "velocity": 64,
                "duration": 0.7545,
                "tempo": 120.0
            },
            {
                "pitch": 76,
                "velocity": 64,
                "duration": 0.15,
                "tempo": 120.0
            },
            {
                "pitch": 74,
                "velocity": 64,
                "duration": 0.15,
                "tempo": 120.0
            },
            {
                "pitch": 72,
                "velocity": 64,
                "duration": 0.15,
                "tempo": 120.0
            },
            {
                "pitch": 71,
                "velocity": 64,
                "duration": 0.7591,
                "tempo": 120.0
            },
            {
                "pitch": 74,
                "velocity": 64,
                "duration": 0.15,
                "tempo": 120.0
            },
            {
                "pitch": 72,
                "velocity": 64,
                "duration": 0.15,
                "tempo": 120.0
            },
            {
                "pitch": 71,
                "velocity": 64,
                "duration": 0.15,
                "tempo": 120.0
            },
            {
                "pitch": 67,
                "velocity": 64,
                "duration": 0.4727,
                "tempo": 120.0
            },
            {
                "pitch": 55,
                "velocity": 64,
                "duration": 4.6455,
                "tempo": 120.0
            },
            {
                "pitch": 67,
                "velocity": 64,
                "duration": 0.0659,
                "tempo": 120.0
            },
            {
                "pitch": 67,
                "velocity": 64,
                "duration": 0.1341,
                "tempo": 120.0
            },
            {
                "pitch": 79,
                "velocity": 64,
                "duration": 0.2,
                "tempo": 120.0
            },
            {
                "pitch": 55,
                "velocity": 64,
                "duration": 0.2,
                "tempo": 120.0
            },
            {
                "pitch": 67,
                "velocity": 64,
                "duration": 0.0659,
                "tempo": 120.0
            },
            {
                "pitch": 67,
                "velocity": 64,
                "duration": 0.0159,
                "tempo": 120.0
            },
            {
                "pitch": 67,
                "velocity": 64,
                "duration": 0.1477,
                "tempo": 120.0
            },
            {
                "pitch": 69,
                "velocity": 64,
                "duration": 0.1477,
                "tempo": 120.0
            },
            {
                "pitch": 72,
                "velocity": 64,
                "duration": 0.1523,
                "tempo": 120.0
            },
            {
                "pitch": 74,
                "velocity": 64,
                "duration": 0.7614,
                "tempo": 120.0
            },
            {
                "pitch": 74,
                "velocity": 64,
                "duration": 0.15,
                "tempo": 120.0
            },
            {
                "pitch": 76,
                "velocity": 64,
                "duration": 0.15,
                "tempo": 120.0
            },
            {
                "pitch": 79,
                "velocity": 64,
                "duration": 1.7545,
                "tempo": 120.0
            },
            {
                "pitch": 79,
                "velocity": 64,
                "duration": 0.15,
                "tempo": 120.0
            },
            {
                "pitch": 81,
                "velocity": 64,
                "duration": 0.7591,
                "tempo": 120.0
            }
        ],
        "Lead 2 (sawtooth)": [
            {
                "pitch": 48,
                "velocity": 80,
                "duration": 0.6023,
                "tempo": 120.0
            },
            {
                "pitch": 50,
                "velocity": 80,
                "duration": 0.6023,
                "tempo": 120.0
            },
            {
                "pitch": 52,
                "velocity": 80,
                "duration": 0.4545,
                "tempo": 120.0
            },
            {
                "pitch": 53,
                "velocity": 80,
                "duration": 0.4545,
                "tempo": 120.0
            },
            {
                "pitch": 55,
                "velocity": 80,
                "duration": 0.3,
                "tempo": 120.0
            },
            {
                "pitch": 48,
                "velocity": 80,
                "duration": 0.6,
                "tempo": 120.0
            },
            {
                "pitch": 50,
                "velocity": 80,
                "duration": 0.6091,
                "tempo": 120.0
            },
            {
                "pitch": 52,
                "velocity": 80,
                "duration": 0.4545,
                "tempo": 120.0
            },
            {
                "pitch": 53,
                "velocity": 80,
                "duration": 0.4477,
                "tempo": 120.0
            },
            {
                "pitch": 55,
                "velocity": 80,
                "duration": 0.3023,
                "tempo": 120.0
            },
            {
                "pitch": 50,
                "velocity": 80,
                "duration": 0.6023,
                "tempo": 120.0
            },
            {
                "pitch": 52,
                "velocity": 80,
                "duration": 0.6045,
                "tempo": 120.0
            },
            {
                "pitch": 53,
                "velocity": 80,
                "duration": 0.45,
                "tempo": 120.0
            },
            {
                "pitch": 55,
                "velocity": 80,
                "duration": 0.4205,
                "tempo": 120.0
            },
            {
                "pitch": 55,
                "velocity": 80,
                "duration": 0.0341,
                "tempo": 120.0
            },
            {
                "pitch": 53,
                "velocity": 80,
                "duration": 0.3,
                "tempo": 120.0
            },
            {
                "pitch": 57,
                "velocity": 80,
                "duration": 0.15,
                "tempo": 120.0
            },
            {
                "pitch": 59,
                "velocity": 80,
                "duration": 0.1477,
                "tempo": 120.0
            },
            {
                "pitch": 57,
                "velocity": 80,
                "duration": 0.15,
                "tempo": 120.0
            },
            {
                "pitch": 55,
                "velocity": 80,
                "duration": 0.3023,
                "tempo": 120.0
            },
            {
                "pitch": 59,
                "velocity": 80,
                "duration": 0.15,
                "tempo": 120.0
            },
            {
                "pitch": 57,
                "velocity": 80,
                "duration": 0.1477,
                "tempo": 120.0
            }
        ],
        "Vibraphone": [
            {
                "pitch": 64,
                "velocity": 80,
                "duration": 0.1477,
                "tempo": 120.0
            },
            {
                "pitch": 64,
                "velocity": 80,
                "duration": 0.15,
                "tempo": 120.0
            },
            {
                "pitch": 64,
                "velocity": 80,
                "duration": 0.1477,
                "tempo": 120.0
            },
            {
                "pitch": 64,
                "velocity": 80,
                "duration": 0.1477,
                "tempo": 120.0
            },
            {
                "pitch": 64,
                "velocity": 80,
                "duration": 0.1477,
                "tempo": 120.0
            },
            {
                "pitch": 64,
                "velocity": 80,
                "duration": 0.1477,
                "tempo": 120.0
            },
            {
                "pitch": 64,
                "velocity": 80,
                "duration": 0.15,
                "tempo": 120.0
            },
            {
                "pitch": 64,
                "velocity": 80,
                "duration": 0.15,
                "tempo": 120.0
            },
            {
                "pitch": 64,
                "velocity": 80,
                "duration": 0.15,
                "tempo": 120.0
            },
            {
                "pitch": 64,
                "velocity": 80,
                "duration": 0.15,
                "tempo": 120.0
            },
            {
                "pitch": 64,
                "velocity": 80,
                "duration": 0.15,
                "tempo": 120.0
            },
            {
                "pitch": 64,
                "velocity": 80,
                "duration": 0.15,
                "tempo": 120.0
            },
            {
                "pitch": 64,
                "velocity": 80,
                "duration": 0.15,
                "tempo": 120.0
            },
            {
                "pitch": 64,
                "velocity": 80,
                "duration": 0.15,
                "tempo": 120.0
            },
            {
                "pitch": 64,
                "velocity": 80,
                "duration": 0.1523,
                "tempo": 120.0
            },
            {
                "pitch": 64,
                "velocity": 80,
                "duration": 0.1523,
                "tempo": 120.0
            },
            {
                "pitch": 62,
                "velocity": 80,
                "duration": 0.1523,
                "tempo": 120.0
            },
            {
                "pitch": 62,
                "velocity": 80,
                "duration": 0.1523,
                "tempo": 120.0
            },
            {
                "pitch": 62,
                "velocity": 80,
                "duration": 0.15,
                "tempo": 120.0
            },
            {
                "pitch": 62,
                "velocity": 80,
                "duration": 0.1523,
                "tempo": 120.0
            },
            {
                "pitch": 62,
                "velocity": 80,
                "duration": 0.15,
                "tempo": 120.0
            },
            {
                "pitch": 62,
                "velocity": 80,
                "duration": 0.15,
                "tempo": 120.0
            },
            {
                "pitch": 62,
                "velocity": 80,
                "duration": 0.15,
                "tempo": 120.0
            },
            {
                "pitch": 62,
                "velocity": 80,
                "duration": 0.15,
                "tempo": 120.0
            },
            {
                "pitch": 62,
                "velocity": 80,
                "duration": 0.1477,
                "tempo": 120.0
            },
            {
                "pitch": 62,
                "velocity": 80,
                "duration": 0.15,
                "tempo": 120.0
            },
            {
                "pitch": 62,
                "velocity": 80,
                "duration": 0.1477,
                "tempo": 120.0
            },
            {
                "pitch": 62,
                "velocity": 80,
                "duration": 0.1477,
                "tempo": 120.0
            },
            {
                "pitch": 62,
                "velocity": 80,
                "duration": 0.1477,
                "tempo": 120.0
            },
            {
                "pitch": 62,
                "velocity": 80,
                "duration": 0.1477,
                "tempo": 120.0
            },
            {
                "pitch": 62,
                "velocity": 80,
                "duration": 0.15,
                "tempo": 120.0
            },
            {
                "pitch": 62,
                "velocity": 80,
                "duration": 0.15,
                "tempo": 120.0
            },
            {
                "pitch": 64,
                "velocity": 80,
                "duration": 0.15,
                "tempo": 120.0
            },
            {
                "pitch": 64,
                "velocity": 80,
                "duration": 0.15,
                "tempo": 120.0
            },
            {
                "pitch": 64,
                "velocity": 80,
                "duration": 0.15,
                "tempo": 120.0
            },
            {
                "pitch": 64,
                "velocity": 80,
                "duration": 0.15,
                "tempo": 120.0
            },
            {
                "pitch": 64,
                "velocity": 80,
                "duration": 0.15,
                "tempo": 120.0
            },
            {
                "pitch": 64,
                "velocity": 80,
                "duration": 0.15,
                "tempo": 120.0
            },
            {
                "pitch": 64,
                "velocity": 80,
                "duration": 0.15,
                "tempo": 120.0
            },
            {
                "pitch": 64,
                "velocity": 80,
                "duration": 0.15,
                "tempo": 120.0
            },
            {
                "pitch": 64,
                "velocity": 80,
                "duration": 0.15,
                "tempo": 120.0
            },
            {
                "pitch": 64,
                "velocity": 80,
                "duration": 0.15,
                "tempo": 120.0
            },
            {
                "pitch": 64,
                "velocity": 80,
                "duration": 0.15,
                "tempo": 120.0
            },
            {
                "pitch": 64,
                "velocity": 80,
                "duration": 0.15,
                "tempo": 120.0
            },
            {
                "pitch": 64,
                "velocity": 80,
                "duration": 0.15,
                "tempo": 120.0
            },
            {
                "pitch": 64,
                "velocity": 80,
                "duration": 0.15,
                "tempo": 120.0
            },
            {
                "pitch": 64,
                "velocity": 80,
                "duration": 0.15,
                "tempo": 120.0
            },
            {
                "pitch": 64,
                "velocity": 80,
                "duration": 0.15,
                "tempo": 120.0
            },
            {
                "pitch": 62,
                "velocity": 80,
                "duration": 0.1477,
                "tempo": 120.0
            },
            {
                "pitch": 62,
                "velocity": 80,
                "duration": 0.15,
                "tempo": 120.0
            },
            {
                "pitch": 62,
                "velocity": 80,
                "duration": 0.1523,
                "tempo": 120.0
            },
            {
                "pitch": 62,
                "velocity": 80,
                "duration": 0.15,
                "tempo": 120.0
            },
            {
                "pitch": 62,
                "velocity": 80,
                "duration": 0.15,
                "tempo": 120.0
            },
            {
                "pitch": 62,
                "velocity": 80,
                "duration": 0.15,
                "tempo": 120.0
            },
            {
                "pitch": 62,
                "velocity": 80,
                "duration": 0.15,
                "tempo": 120.0
            },
            {
                "pitch": 62,
                "velocity": 80,
                "duration": 0.1523,
                "tempo": 120.0
            },
            {
                "pitch": 62,
                "velocity": 80,
                "duration": 0.15,
                "tempo": 120.0
            },
            {
                "pitch": 62,
                "velocity": 80,
                "duration": 0.15,
                "tempo": 120.0
            },
            {
                "pitch": 62,
                "velocity": 80,
                "duration": 0.1523,
                "tempo": 120.0
            },
            {
                "pitch": 62,
                "velocity": 80,
                "duration": 0.15,
                "tempo": 120.0
            },
            {
                "pitch": 62,
                "velocity": 80,
                "duration": 0.15,
                "tempo": 120.0
            },
            {
                "pitch": 62,
                "velocity": 80,
                "duration": 0.15,
                "tempo": 120.0
            },
            {
                "pitch": 62,
                "velocity": 80,
                "duration": 0.15,
                "tempo": 120.0
            },
            {
                "pitch": 62,
                "velocity": 80,
                "duration": 0.1523,
                "tempo": 120.0
            }
        ],
        "Harpsichord": [
            {
                "pitch": 57,
                "velocity": 101,
                "duration": 0.3023,
                "tempo": 120.0
            },
            {
                "pitch": 55,
                "velocity": 101,
                "duration": 0.15,
                "tempo": 120.0
            },
            {
                "pitch": 52,
                "velocity": 101,
                "duration": 0.3023,
                "tempo": 120.0
            },
            {
                "pitch": 50,
                "velocity": 101,
                "duration": 0.15,
                "tempo": 120.0
            },
            {
                "pitch": 48,
                "velocity": 101,
                "duration": 0.1477,
                "tempo": 120.0
            },
            {
                "pitch": 50,
                "velocity": 101,
                "duration": 0.1477,
                "tempo": 120.0
            },
            {
                "pitch": 52,
                "velocity": 101,
                "duration": 0.1477,
                "tempo": 120.0
            },
            {
                "pitch": 50,
                "velocity": 101,
                "duration": 0.1477,
                "tempo": 120.0
            },
            {
                "pitch": 48,
                "velocity": 101,
                "duration": 0.15,
                "tempo": 120.0
            },
            {
                "pitch": 45,
                "velocity": 101,
                "duration": 0.6045,
                "tempo": 120.0
            },
            {
                "pitch": 57,
                "velocity": 101,
                "duration": 0.3,
                "tempo": 120.0
            },
            {
                "pitch": 55,
                "velocity": 101,
                "duration": 0.15,
                "tempo": 120.0
            },
            {
                "pitch": 52,
                "velocity": 101,
                "duration": 0.3023,
                "tempo": 120.0
            },
            {
                "pitch": 50,
                "velocity": 101,
                "duration": 0.15,
                "tempo": 120.0
            },
            {
                "pitch": 48,
                "velocity": 101,
                "duration": 0.15,
                "tempo": 120.0
            },
            {
                "pitch": 50,
                "velocity": 101,
                "duration": 0.15,
                "tempo": 120.0
            },
            {
                "pitch": 52,
                "velocity": 101,
                "duration": 0.1523,
                "tempo": 120.0
            },
            {
                "pitch": 50,
                "velocity": 101,
                "duration": 0.15,
                "tempo": 120.0
            },
            {
                "pitch": 48,
                "velocity": 101,
                "duration": 0.1477,
                "tempo": 120.0
            },
            {
                "pitch": 45,
                "velocity": 101,
                "duration": 0.6023,
                "tempo": 120.0
            }
        ]
    }
}