{
    "track_id": "08 Travelers Inn (Disappearance of the King_s Scepter)",
    "mood": "sad",
    "instruments": {
        "Acoustic Grand Piano": [
            {
                "pitch": 48,
                "velocity": 32,
                "duration": 0.25,
                "tempo": 120.0
            },
            {
                "pitch": 55,
                "velocity": 32,
                "duration": 0.2386,
                "tempo": 120.0
            },
            {
                "pitch": 62,
                "velocity": 32,
                "duration": 0.2386,
                "tempo": 120.0
            },
            {
                "pitch": 55,
                "velocity": 32,
                "duration": 0.2568,
                "tempo": 120.0
            },
            {
                "pitch": 67,
                "velocity": 32,
                "duration": 0.4955,
                "tempo": 120.0
            },
            {
                "pitch": 63,
                "velocity": 32,
                "duration": 0.2318,
                "tempo": 120.0
            },
            {
                "pitch": 55,
                "velocity": 32,
                "duration": 0.2341,
                "tempo": 120.0
            },
            {
                "pitch": 46,
                "velocity": 32,
                "duration": 0.2273,
                "tempo": 120.0
            },
            {
                "pitch": 53,
                "velocity": 32,
                "duration": 0.2455,
                "tempo": 120.0
            },
            {
                "pitch": 48,
                "velocity": 32,
                "duration": 1.9045,
                "tempo": 120.0
            },
            {
                "pitch": 60,
                "velocity": 32,
                "duration": 0.2318,
                "tempo": 120.0
            },
            {
                "pitch": 53,
                "velocity": 32,
                "duration": 0.2341,
                "tempo": 120.0
            },
            {
                "pitch": 65,
                "velocity": 32,
                "duration": 0.4659,
                "tempo": 120.0
            },
            {
                "pitch": 62,
                "velocity": 32,
                "duration": 0.2432,
                "tempo": 120.0
            },
            {
                "pitch": 50,
                "velocity": 32,
                "duration": 1.9068,
                "tempo": 120.0
            },
            {
                "pitch": 53,
                "velocity": 32,
                "duration": 0.2295,
                "tempo": 120.0
            },
            {
                "pitch": 44,
                "velocity": 32,
                "duration": 0.2273,
                "tempo": 120.0
            },
            {
                "pitch": 51,
                "velocity": 32,
                "duration": 2.1045,
                "tempo": 120.0
            },
            {
                "pitch": 51,
                "velocity": 32,
                "duration": 0.2295,
                "tempo": 120.0
            },
            {
                "pitch": 65,
                "velocity": 32,
                "duration": 0.9318,
                "tempo": 120.0
            },
            {
                "pitch": 2,
                "velocity": 32,
                "duration": 0.475,
                "tempo": 120.0
            },
            {
                "pitch": 56,
                "velocity": 32,
                "duration": 0.2455,
                "tempo": 120.0
            },
            {
                "pitch": 51,
                "velocity": 32,
                "duration": 0.2295,
                "tempo": 120.0
            },
            {
                "pitch": 65,
                "velocity": 32,
                "duration": 0.475,
                "tempo": 120.0
            },
            {
                "pitch": 2,
                "velocity": 32,
                "duration": 0.4614,
                "tempo": 120.0
            },
            {
                "pitch": 56,
                "velocity": 32,
                "duration": 0.2318,
                "tempo": 120.0
            },
            {
                "pitch": 51,
                "velocity": 32,
                "duration": 0.25,
                "tempo": 120.0
            },
            {
                "pitch": 43,
                "velocity": 32,
                "duration": 0.2318,
                "tempo": 120.0
            },
            {
                "pitch": 55,
                "velocity": 32,
                "duration": 3.0591,
                "tempo": 120.0
            },
            {
                "pitch": 50,
                "velocity": 32,
                "duration": 2.1114,
                "tempo": 120.0
            },
            {
                "pitch": 50,
                "velocity": 32,
                "duration": 0.2364,
                "tempo": 120.0
            },
            {
                "pitch": 53,
                "velocity": 32,
                "duration": 0.2295,
                "tempo": 120.0
            },
            {
                "pitch": 50,
                "velocity": 32,
                "duration": 0.475,
                "tempo": 120.0
            },
            {
                "pitch": 50,
                "velocity": 32,
                "duration": 0.2455,
                "tempo": 120.0
            },
            {
                "pitch": 55,
                "velocity": 32,
                "duration": 0.9432,
                "tempo": 120.0
            },
            {
                "pitch": 55,
                "velocity": 32,
                "duration": 0.2318,
                "tempo": 120.0
            },
            {
                "pitch": 50,
                "velocity": 32,
                "duration": 0.4705,
                "tempo": 120.0
            },
            {
                "pitch": 50,
                "velocity": 32,
                "duration": 0.2364,
                "tempo": 120.0
            },
            {
                "pitch": 48,
                "velocity": 32,
                "duration": 3.7795,
                "tempo": 120.0
            },
            {
                "pitch": 50,
                "velocity": 32,
                "duration": 0.2432,
                "tempo": 120.0
            },
            {
                "pitch": 55,
                "velocity": 32,
                "duration": 0.7091,
                "tempo": 120.0
            },
            {
                "pitch": 55,
                "velocity": 32,
                "duration": 0.2295,
                "tempo": 120.0
            },
            {
                "pitch": 67,
                "velocity": 32,
                "duration": 5.1795,
                "tempo": 120.0
            },
            {
                "pitch": 62,
                "velocity": 32,
                "duration": 0.2341,
                "tempo": 120.0
            },
            {
                "pitch": 55,
                "velocity": 32,
                "duration": 0.2341,
                "tempo": 120.0
            },
            {
                "pitch": 67,
                "velocity": 32,
                "duration": 0.4682,
                "tempo": 120.0
            },
            {
                "pitch": 63,
                "velocity": 32,
                "duration": 0.2455,
                "tempo": 120.0
            },
            {
                "pitch": 55,
                "velocity": 32,
                "duration": 0.2295,
                "tempo": 120.0
            },
            {
                "pitch": 25,
                "velocity": 32,
                "duration": 5.6614,
                "tempo": 120.0
            },
            {
                "pitch": 46,
                "velocity": 32,
                "duration": 0.2318,
                "tempo": 120.0
            },
            {
                "pitch": 53,
                "velocity": 32,
                "duration": 2.6136,
                "tempo": 120.0
            },
            {
                "pitch": 53,
                "velocity": 32,
                "duration": 0.25,
                "tempo": 120.0
            },
            {
                "pitch": 65,
                "velocity": 32,
                "duration": 3.7932,
                "tempo": 120.0
            },
            {
                "pitch": 48,
                "velocity": 32,
                "duration": 1.8886,
                "tempo": 120.0
            },
            {
                "pitch": 60,
                "velocity": 32,
                "duration": 0.2341,
                "tempo": 120.0
            },
            {
                "pitch": 53,
                "velocity": 32,
                "duration": 0.2341,
                "tempo": 120.0
            },
            {
                "pitch": 65,
                "velocity": 32,
                "duration": 0.4682,
                "tempo": 120.0
            },
            {
                "pitch": 62,
                "velocity": 32,
                "duration": 0.2227,
                "tempo": 120.0
            },
            {
                "pitch": 50,
                "velocity": 32,
                "duration": 1.8841,
                "tempo": 120.0
            },
            {
                "pitch": 50,
                "velocity": 32,
                "duration": 0.0023,
                "tempo": 120.0
            },
            {
                "pitch": 53,
                "velocity": 32,
                "duration": 0.2386,
                "tempo": 120.0
            },
            {
                "pitch": 54,
                "velocity": 32,
                "duration": 5.6591,
                "tempo": 120.0
            },
            {
                "pitch": 2,
                "velocity": 32,
                "duration": 4.7273,
                "tempo": 120.0
            },
            {
                "pitch": 44,
                "velocity": 32,
                "duration": 0.2318,
                "tempo": 120.0
            },
            {
                "pitch": 51,
                "velocity": 32,
                "duration": 2.1114,
                "tempo": 120.0
            },
            {
                "pitch": 51,
                "velocity": 32,
                "duration": 0.2341,
                "tempo": 120.0
            },
            {
                "pitch": 65,
                "velocity": 32,
                "duration": 0.9318,
                "tempo": 120.0
            },
            {
                "pitch": 2,
                "velocity": 32,
                "duration": 0.4795,
                "tempo": 120.0
            },
            {
                "pitch": 56,
                "velocity": 32,
                "duration": 0.2455,
                "tempo": 120.0
            },
            {
                "pitch": 51,
                "velocity": 32,
                "duration": 0.2295,
                "tempo": 120.0
            },
            {
                "pitch": 65,
                "velocity": 32,
                "duration": 0.475,
                "tempo": 120.0
            },
            {
                "pitch": 25,
                "velocity": 32,
                "duration": 2.3591,
                "tempo": 120.0
            },
            {
                "pitch": 58,
                "velocity": 32,
                "duration": 0.2341,
                "tempo": 120.0
            },
            {
                "pitch": 51,
                "velocity": 32,
                "duration": 0.2364,
                "tempo": 120.0
            },
            {
                "pitch": 65,
                "velocity": 32,
                "duration": 0.4705,
                "tempo": 120.0
            },
            {
                "pitch": 56,
                "velocity": 32,
                "duration": 0.7636,
                "tempo": 120.0
            },
            {
                "pitch": 43,
                "velocity": 32,
                "duration": 0.2432,
                "tempo": 120.0
            },
            {
                "pitch": 54,
                "velocity": 32,
                "duration": 3.3045,
                "tempo": 120.0
            },
            {
                "pitch": 2,
                "velocity": 32,
                "duration": 2.8227,
                "tempo": 120.0
            },
            {
                "pitch": 44,
                "velocity": 32,
                "duration": 0.2295,
                "tempo": 120.0
            },
            {
                "pitch": 48,
                "velocity": 32,
                "duration": 4.4659,
                "tempo": 120.0
            },
            {
                "pitch": 48,
                "velocity": 32,
                "duration": 0.2318,
                "tempo": 120.0
            },
            {
                "pitch": 51,
                "velocity": 32,
                "duration": 0.2341,
                "tempo": 120.0
            },
            {
                "pitch": 48,
                "velocity": 32,
                "duration": 0.4795,
                "tempo": 120.0
            },
            {
                "pitch": 48,
                "velocity": 32,
                "duration": 0.2455,
                "tempo": 120.0
            },
            {
                "pitch": 44,
                "velocity": 32,
                "duration": 0.2295,
                "tempo": 120.0
            },
            {
                "pitch": 54,
                "velocity": 32,
                "duration": 1.4045,
                "tempo": 120.0
            },
            {
                "pitch": 25,
                "velocity": 32,
                "duration": 3.7841,
                "tempo": 120.0
            },
            {
                "pitch": 46,
                "velocity": 32,
                "duration": 0.25,
                "tempo": 120.0
            },
            {
                "pitch": 50,
                "velocity": 32,
                "duration": 0.2341,
                "tempo": 120.0
            },
            {
                "pitch": 53,
                "velocity": 32,
                "duration": 0.2364,
                "tempo": 120.0
            },
            {
                "pitch": 50,
                "velocity": 32,
                "duration": 0.4659,
                "tempo": 120.0
            },
            {
                "pitch": 50,
                "velocity": 32,
                "duration": 0.2295,
                "tempo": 120.0
            },
            {
                "pitch": 53,
                "velocity": 32,
                "duration": 0.2295,
                "tempo": 120.0
            },
            {
                "pitch": 46,
                "velocity": 32,
                "duration": 0.2455,
                "tempo": 120.0
            },
            {
                "pitch": 39,
                "velocity": 32,
                "duration": 10.3818,
                "tempo": 120.0
            },
            {
                "pitch": 39,
                "velocity": 32,
                "duration": 0.2318,
                "tempo": 120.0
            },
            {
                "pitch": 43,
                "velocity": 32,
                "duration": 0.2364,
                "tempo": 120.0
            },
            {
                "pitch": 55,
                "velocity": 32,
                "duration": 7.7886,
                "tempo": 120.0
            },
            {
                "pitch": 25,
                "velocity": 32,
                "duration": 1.6591,
                "tempo": 120.0
            },
            {
                "pitch": 46,
                "velocity": 32,
                "duration": 0.2455,
                "tempo": 120.0
            },
            {
                "pitch": 50,
                "velocity": 32,
                "duration": 0.2273,
                "tempo": 120.0
            },
            {
                "pitch": 53,
                "velocity": 32,
                "duration": 1.1864,
                "tempo": 120.0
            },
            {
                "pitch": 46,
                "velocity": 32,
                "duration": 0.2318,
                "tempo": 120.0
            },
            {
                "pitch": 13,
                "velocity": 32,
                "duration": 1.175,
                "tempo": 120.0
            },
            {
                "pitch": 43,
                "velocity": 32,
                "duration": 0.2341,
                "tempo": 120.0
            },
            {
                "pitch": 39,
                "velocity": 32,
                "duration": 1.4136,
                "tempo": 120.0
            },
            {
                "pitch": 39,
                "velocity": 32,
                "duration": 0.2364,
                "tempo": 120.0
            },
            {
                "pitch": 43,
                "velocity": 32,
                "duration": 0.4614,
                "tempo": 120.0
            },
            {
                "pitch": 43,
                "velocity": 32,
                "duration": 0.225,
                "tempo": 120.0
            },
            {
                "pitch": 55,
                "velocity": 32,
                "duration": 1.4023,
                "tempo": 120.0
            },
            {
                "pitch": 25,
                "velocity": 32,
                "duration": 1.3955,
                "tempo": 120.0
            },
            {
                "pitch": 46,
                "velocity": 32,
                "duration": 0.2386,
                "tempo": 120.0
            },
            {
                "pitch": 50,
                "velocity": 32,
                "duration": 0.2545,
                "tempo": 120.0
            },
            {
                "pitch": 53,
                "velocity": 32,
                "duration": 1.4227,
                "tempo": 120.0
            },
            {
                "pitch": 13,
                "velocity": 32,
                "duration": 1.4227,
                "tempo": 120.0
            },
            {
                "pitch": 46,
                "velocity": 32,
                "duration": 0.2341,
                "tempo": 120.0
            },
            {
                "pitch": 43,
                "velocity": 32,
                "duration": 0.2364,
                "tempo": 120.0
            },
            {
                "pitch": 43,
                "velocity": 32,
                "duration": 0.2227,
                "tempo": 120.0
            },
            {
                "pitch": 54,
                "velocity": 32,
                "duration": 4.2523,
                "tempo": 120.0
            },
            {
                "pitch": 2,
                "velocity": 32,
                "duration": 5.6659,
                "tempo": 120.0
            },
            {
                "pitch": 44,
                "velocity": 32,
                "duration": 0.2386,
                "tempo": 120.0
            },
            {
                "pitch": 48,
                "velocity": 32,
                "duration": 0.2318,
                "tempo": 120.0
            },
            {
                "pitch": 51,
                "velocity": 32,
                "duration": 5.6659,
                "tempo": 120.0
            },
            {
                "pitch": 51,
                "velocity": 32,
                "duration": 0.2341,
                "tempo": 120.0
            },
            {
                "pitch": 48,
                "velocity": 32,
                "duration": 0.4795,
                "tempo": 120.0
            },
            {
                "pitch": 48,
                "velocity": 32,
                "duration": 0.2455,
                "tempo": 120.0
            },
            {
                "pitch": 52,
                "velocity": 32,
                "duration": 5.6659,
                "tempo": 120.0
            },
            {
                "pitch": 44,
                "velocity": 32,
                "duration": 0.2295,
                "tempo": 120.0
            },
            {
                "pitch": 54,
                "velocity": 32,
                "duration": 1.4114,
                "tempo": 120.0
            },
            {
                "pitch": 25,
                "velocity": 32,
                "duration": 2.5955,
                "tempo": 120.0
            },
            {
                "pitch": 46,
                "velocity": 32,
                "duration": 0.2364,
                "tempo": 120.0
            },
            {
                "pitch": 50,
                "velocity": 32,
                "duration": 0.2455,
                "tempo": 120.0
            },
            {
                "pitch": 53,
                "velocity": 32,
                "duration": 2.8136,
                "tempo": 120.0
            },
            {
                "pitch": 53,
                "velocity": 32,
                "duration": 0.2273,
                "tempo": 120.0
            },
            {
                "pitch": 50,
                "velocity": 32,
                "duration": 0.4614,
                "tempo": 120.0
            },
            {
                "pitch": 50,
                "velocity": 32,
                "duration": 0.2318,
                "tempo": 120.0
            },
            {
                "pitch": 53,
                "velocity": 32,
                "duration": 0.2318,
                "tempo": 120.0
            },
            {
                "pitch": 13,
                "velocity": 32,
                "duration": 3.0682,
                "tempo": 120.0
            },
            {
                "pitch": 46,
                "velocity": 32,
                "duration": 0.2545,
                "tempo": 120.0
            },
            {
                "pitch": 39,
                "velocity": 32,
                "duration": 4.2523,
                "tempo": 120.0
            },
            {
                "pitch": 39,
                "velocity": 32,
                "duration": 0.2318,
                "tempo": 120.0
            },
            {
                "pitch": 43,
                "velocity": 32,
                "duration": 0.2341,
                "tempo": 120.0
            },
            {
                "pitch": 55,
                "velocity": 32,
                "duration": 4.2636,
                "tempo": 120.0
            },
            {
                "pitch": 25,
                "velocity": 32,
                "duration": 1.6568,
                "tempo": 120.0
            },
            {
                "pitch": 46,
                "velocity": 32,
                "duration": 0.2273,
                "tempo": 120.0
            },
            {
                "pitch": 50,
                "velocity": 32,
                "duration": 0.2455,
                "tempo": 120.0
            },
            {
                "pitch": 53,
                "velocity": 32,
                "duration": 1.1955,
                "tempo": 120.0
            },
            {
                "pitch": 13,
                "velocity": 32,
                "duration": 1.175,
                "tempo": 120.0
            },
            {
                "pitch": 46,
                "velocity": 32,
                "duration": 0.2341,
                "tempo": 120.0
            },
            {
                "pitch": 43,
                "velocity": 32,
                "duration": 0.2364,
                "tempo": 120.0
            },
            {
                "pitch": 39,
                "velocity": 32,
                "duration": 1.4182,
                "tempo": 120.0
            },
            {
                "pitch": 39,
                "velocity": 32,
                "duration": 0.2386,
                "tempo": 120.0
            },
            {
                "pitch": 43,
                "velocity": 32,
                "duration": 0.4614,
                "tempo": 120.0
            },
            {
                "pitch": 43,
                "velocity": 32,
                "duration": 0.2227,
                "tempo": 120.0
            },
            {
                "pitch": 55,
                "velocity": 32,
                "duration": 1.4045,
                "tempo": 120.0
            },
            {
                "pitch": 25,
                "velocity": 32,
                "duration": 1.4136,
                "tempo": 120.0
            },
            {
                "pitch": 46,
                "velocity": 32,
                "duration": 0.2364,
                "tempo": 120.0
            },
            {
                "pitch": 50,
                "velocity": 32,
                "duration": 0.2341,
                "tempo": 120.0
            },
            {
                "pitch": 53,
                "velocity": 32,
                "duration": 1.4023,
                "tempo": 120.0
            },
            {
                "pitch": 13,
                "velocity": 32,
                "duration": 1.4114,
                "tempo": 120.0
            },
            {
                "pitch": 46,
                "velocity": 32,
                "duration": 0.2432,
                "tempo": 120.0
            },
            {
                "pitch": 43,
                "velocity": 32,
                "duration": 0.2318,
                "tempo": 120.0
            },
            {
                "pitch": 43,
                "velocity": 32,
                "duration": 0.2318,
                "tempo": 120.0
            },
            {
                "pitch": 54,
                "velocity": 32,
                "duration": 4.2477,
                "tempo": 120.0
            },
            {
                "pitch": 2,
                "velocity": 32,
                "duration": 5.6727,
                "tempo": 120.0
            },
            {
                "pitch": 44,
                "velocity": 32,
                "duration": 0.2523,
                "tempo": 120.0
            },
            {
                "pitch": 48,
                "velocity": 32,
                "duration": 0.2341,
                "tempo": 120.0
            },
            {
                "pitch": 51,
                "velocity": 32,
                "duration": 5.675,
                "tempo": 120.0
            },
            {
                "pitch": 51,
                "velocity": 32,
                "duration": 0.2341,
                "tempo": 120.0
            },
            {
                "pitch": 48,
                "velocity": 32,
                "duration": 0.4636,
                "tempo": 120.0
            },
            {
                "pitch": 48,
                "velocity": 32,
                "duration": 0.2295,
                "tempo": 120.0
            },
            {
                "pitch": 52,
                "velocity": 32,
                "duration": 5.6591,
                "tempo": 120.0
            },
            {
                "pitch": 44,
                "velocity": 32,
                "duration": 0.2477,
                "tempo": 120.0
            },
            {
                "pitch": 54,
                "velocity": 32,
                "duration": 1.4295,
                "tempo": 120.0
            },
            {
                "pitch": 25,
                "velocity": 32,
                "duration": 2.6045,
                "tempo": 120.0
            },
            {
                "pitch": 46,
                "velocity": 32,
                "duration": 0.2341,
                "tempo": 120.0
            },
            {
                "pitch": 50,
                "velocity": 32,
                "duration": 0.2455,
                "tempo": 120.0
            },
            {
                "pitch": 53,
                "velocity": 32,
                "duration": 2.8455,
                "tempo": 120.0
            },
            {
                "pitch": 53,
                "velocity": 32,
                "duration": 0.2295,
                "tempo": 120.0
            },
            {
                "pitch": 50,
                "velocity": 32,
                "duration": 0.4636,
                "tempo": 120.0
            },
            {
                "pitch": 50,
                "velocity": 32,
                "duration": 0.2341,
                "tempo": 120.0
            },
            {
                "pitch": 53,
                "velocity": 32,
                "duration": 0.2341,
                "tempo": 120.0
            },
            {
                "pitch": 13,
                "velocity": 32,
                "duration": 3.0727,
                "tempo": 120.0
            },
            {
                "pitch": 46,
                "velocity": 32,
                "duration": 0.2364,
                "tempo": 120.0
            },
            {
                "pitch": 43,
                "velocity": 32,
                "duration": 0.2386,
                "tempo": 120.0
            },
            {
                "pitch": 55,
                "velocity": 32,
                "duration": 4.025,
                "tempo": 120.0
            },
            {
                "pitch": 47,
                "velocity": 32,
                "duration": 0.2227,
                "tempo": 120.0
            },
            {
                "pitch": 50,
                "velocity": 32,
                "duration": 0.2386,
                "tempo": 120.0
            },
            {
                "pitch": 53,
                "velocity": 32,
                "duration": 1.1909,
                "tempo": 120.0
            },
            {
                "pitch": 53,
                "velocity": 32,
                "duration": 0.2545,
                "tempo": 120.0
            },
            {
                "pitch": 50,
                "velocity": 32,
                "duration": 0.4886,
                "tempo": 120.0
            },
            {
                "pitch": 50,
                "velocity": 32,
                "duration": 0.2341,
                "tempo": 120.0
            },
            {
                "pitch": 53,
                "velocity": 32,
                "duration": 0.2341,
                "tempo": 120.0
            },
            {
                "pitch": 47,
                "velocity": 32,
                "duration": 0.2364,
                "tempo": 120.0
            },
            {
                "pitch": 36,
                "velocity": 32,
                "duration": 0.2227,
                "tempo": 120.0
            },
            {
                "pitch": 43,
                "velocity": 32,
                "duration": 0.2386,
                "tempo": 120.0
            },
            {
                "pitch": 55,
                "velocity": 32,
                "duration": 1.6477,
                "tempo": 120.0
            },
            {
                "pitch": 50,
                "velocity": 32,
                "duration": 0.2341,
                "tempo": 120.0
            },
            {
                "pitch": 43,
                "velocity": 32,
                "duration": 0.2341,
                "tempo": 120.0
            },
            {
                "pitch": 55,
                "velocity": 32,
                "duration": 0.4705,
                "tempo": 120.0
            },
            {
                "pitch": 39,
                "velocity": 32,
                "duration": 6.6114,
                "tempo": 120.0
            },
            {
                "pitch": 51,
                "velocity": 32,
                "duration": 4.4909,
                "tempo": 120.0
            },
            {
                "pitch": 51,
                "velocity": 32,
                "duration": 0.2455,
                "tempo": 120.0
            },
            {
                "pitch": 43,
                "velocity": 32,
                "duration": 0.2295,
                "tempo": 120.0
            },
            {
                "pitch": 43,
                "velocity": 32,
                "duration": 0.2318,
                "tempo": 120.0
            },
            {
                "pitch": 54,
                "velocity": 32,
                "duration": 4.2455,
                "tempo": 120.0
            },
            {
                "pitch": 54,
                "velocity": 32,
                "duration": 0.0023,
                "tempo": 120.0
            },
            {
                "pitch": 2,
                "velocity": 32,
                "duration": 5.6568,
                "tempo": 120.0
            },
            {
                "pitch": 44,
                "velocity": 32,
                "duration": 0.2341,
                "tempo": 120.0
            },
            {
                "pitch": 48,
                "velocity": 32,
                "duration": 0.2455,
                "tempo": 120.0
            },
            {
                "pitch": 51,
                "velocity": 32,
                "duration": 0.2295,
                "tempo": 120.0
            },
            {
                "pitch": 48,
                "velocity": 32,
                "duration": 0.4636,
                "tempo": 120.0
            },
            {
                "pitch": 48,
                "velocity": 32,
                "duration": 0.2341,
                "tempo": 120.0
            },
            {
                "pitch": 52,
                "velocity": 32,
                "duration": 5.6682,
                "tempo": 120.0
            },
            {
                "pitch": 44,
                "velocity": 32,
                "duration": 0.2523,
                "tempo": 120.0
            },
            {
                "pitch": 55,
                "velocity": 32,
                "duration": 2.1364,
                "tempo": 120.0
            },
            {
                "pitch": 25,
                "velocity": 32,
                "duration": 5.675,
                "tempo": 120.0
            },
            {
                "pitch": 46,
                "velocity": 32,
                "duration": 0.2364,
                "tempo": 120.0
            },
            {
                "pitch": 50,
                "velocity": 32,
                "duration": 0.2295,
                "tempo": 120.0
            },
            {
                "pitch": 53,
                "velocity": 32,
                "duration": 4.0136,
                "tempo": 120.0
            },
            {
                "pitch": 53,
                "velocity": 32,
                "duration": 0.2432,
                "tempo": 120.0
            },
            {
                "pitch": 50,
                "velocity": 32,
                "duration": 0.4773,
                "tempo": 120.0
            },
            {
                "pitch": 50,
                "velocity": 32,
                "duration": 0.2341,
                "tempo": 120.0
            },
            {
                "pitch": 53,
                "velocity": 32,
                "duration": 0.2341,
                "tempo": 120.0
            },
            {
                "pitch": 13,
                "velocity": 32,
                "duration": 5.6727,
                "tempo": 120.0
            },
            {
                "pitch": 46,
                "velocity": 32,
                "duration": 0.2364,
                "tempo": 120.0
            },
            {
                "pitch": 41,
                "velocity": 32,
                "duration": 0.2386,
                "tempo": 120.0
            },
            {
                "pitch": 2,
                "velocity": 32,
                "duration": 2.8364,
                "tempo": 120.0
            },
            {
                "pitch": 44,
                "velocity": 32,
                "duration": 0.225,
                "tempo": 120.0
            },
            {
                "pitch": 48,
                "velocity": 32,
                "duration": 0.2318,
                "tempo": 120.0
            },
            {
                "pitch": 51,
                "velocity": 32,
                "duration": 2.8273,
                "tempo": 120.0
            },
            {
                "pitch": 51,
                "velocity": 32,
                "duration": 0.2341,
                "tempo": 120.0
            },
            {
                "pitch": 48,
                "velocity": 32,
                "duration": 0.4773,
                "tempo": 120.0
            },
            {
                "pitch": 48,
                "velocity": 32,
                "duration": 0.2432,
                "tempo": 120.0
            },
            {
                "pitch": 52,
                "velocity": 32,
                "duration": 2.8364,
                "tempo": 120.0
            },
            {
                "pitch": 44,
                "velocity": 32,
                "duration": 0.2295,
                "tempo": 120.0
            },
            {
                "pitch": 55,
                "velocity": 32,
                "duration": 2.8136,
                "tempo": 120.0
            },
            {
                "pitch": 25,
                "velocity": 32,
                "duration": 2.8273,
                "tempo": 120.0
            },
            {
                "pitch": 46,
                "velocity": 32,
                "duration": 0.25,
                "tempo": 120.0
            },
            {
                "pitch": 50,
                "velocity": 32,
                "duration": 0.2318,
                "tempo": 120.0
            },
            {
                "pitch": 53,
                "velocity": 32,
                "duration": 2.5864,
                "tempo": 120.0
            },
            {
                "pitch": 53,
                "velocity": 32,
                "duration": 0.2341,
                "tempo": 120.0
            },
            {
                "pitch": 50,
                "velocity": 32,
                "duration": 0.4614,
                "tempo": 120.0
            },
            {
                "pitch": 50,
                "velocity": 32,
                "duration": 0.2273,
                "tempo": 120.0
            },
            {
                "pitch": 53,
                "velocity": 32,
                "duration": 0.2273,
                "tempo": 120.0
            },
            {
                "pitch": 13,
                "velocity": 32,
                "duration": 2.825,
                "tempo": 120.0
            },
            {
                "pitch": 46,
                "velocity": 32,
                "duration": 0.2477,
                "tempo": 120.0
            },
            {
                "pitch": 36,
                "velocity": 32,
                "duration": 7.0795,
                "tempo": 120.0
            },
            {
                "pitch": 36,
                "velocity": 32,
                "duration": 0.2295,
                "tempo": 120.0
            },
            {
                "pitch": 43,
                "velocity": 32,
                "duration": 0.2341,
                "tempo": 120.0
            },
            {
                "pitch": 55,
                "velocity": 32,
                "duration": 1.6545,
                "tempo": 120.0
            },
            {
                "pitch": 48,
                "velocity": 32,
                "duration": 0.2455,
                "tempo": 120.0
            },
            {
                "pitch": 48,
                "velocity": 32,
                "duration": 0.2273,
                "tempo": 120.0
            },
            {
                "pitch": 50,
                "velocity": 32,
                "duration": 0.2341,
                "tempo": 120.0
            },
            {
                "pitch": 51,
                "velocity": 32,
                "duration": 3.0682,
                "tempo": 120.0
            },
            {
                "pitch": 55,
                "velocity": 32,
                "duration": 0.9432,
                "tempo": 120.0
            },
            {
                "pitch": 55,
                "velocity": 32,
                "duration": 0.2341,
                "tempo": 120.0
            },
            {
                "pitch": 67,
                "velocity": 32,
                "duration": 29.025,
                "tempo": 120.0
            },
            {
                "pitch": 60,
                "velocity": 32,
                "duration": 1.4136,
                "tempo": 120.0
            }
        ]
    }
}