{
    "track_id": "08 Visual Alien (Visual Scene 1)",
    "mood": "happy",
    "instruments": {
        "Electric Piano 1": [
            {
                "pitch": 50,
                "velocity": 64,
                "duration": 0.25,
                "tempo": 120.0
            },
            {
                "pitch": 50,
                "velocity": 64,
                "duration": 0.2477,
                "tempo": 120.0
            },
            {
                "pitch": 51,
                "velocity": 64,
                "duration": 1.2432,
                "tempo": 120.0
            },
            {
                "pitch": 51,
                "velocity": 64,
                "duration": 0.25,
                "tempo": 120.0
            },
            {
                "pitch": 50,
                "velocity": 64,
                "duration": 0.25,
                "tempo": 120.0
            },
            {
                "pitch": 50,
                "velocity": 64,
                "duration": 0.2477,
                "tempo": 120.0
            },
            {
                "pitch": 49,
                "velocity": 64,
                "duration": 3.2364,
                "tempo": 120.0
            },
            {
                "pitch": 49,
                "velocity": 64,
                "duration": 0.2432,
                "tempo": 120.0
            },
            {
                "pitch": 50,
                "velocity": 64,
                "duration": 0.2477,
                "tempo": 120.0
            },
            {
                "pitch": 50,
                "velocity": 64,
                "duration": 0.2477,
                "tempo": 120.0
            },
            {
                "pitch": 51,
                "velocity": 64,
                "duration": 1.2386,
                "tempo": 120.0
            },
            {
                "pitch": 51,
                "velocity": 64,
                "duration": 0.2432,
                "tempo": 120.0
            },
            {
                "pitch": 50,
                "velocity": 64,
                "duration": 0.25,
                "tempo": 120.0
            },
            {
                "pitch": 50,
                "velocity": 64,
                "duration": 0.2477,
                "tempo": 120.0
            },
            {
                "pitch": 49,
                "velocity": 64,
                "duration": 3.2341,
                "tempo": 120.0
            },
            {
                "pitch": 49,
                "velocity": 64,
                "duration": 0.2477,
                "tempo": 120.0
            },
            {
                "pitch": 55,
                "velocity": 64,
                "duration": 0.2159,
                "tempo": 120.0
            },
            {
                "pitch": 55,
                "velocity": 64,
                "duration": 0.05,
                "tempo": 120.0
            },
            {
                "pitch": 55,
                "velocity": 64,
                "duration": 0.0841,
                "tempo": 120.0
            },
            {
                "pitch": 0,
                "velocity": 64,
                "duration": 0.1341,
                "tempo": 120.0
            },
            {
                "pitch": 55,
                "velocity": 64,
                "duration": 0.05,
                "tempo": 120.0
            },
            {
                "pitch": 55,
                "velocity": 64,
                "duration": 0.0818,
                "tempo": 120.0
            },
            {
                "pitch": 67,
                "velocity": 64,
                "duration": 0.2659,
                "tempo": 120.0
            },
            {
                "pitch": 0,
                "velocity": 64,
                "duration": 0.1318,
                "tempo": 120.0
            },
            {
                "pitch": 55,
                "velocity": 64,
                "duration": 0.05,
                "tempo": 120.0
            },
            {
                "pitch": 55,
                "velocity": 64,
                "duration": 0.0841,
                "tempo": 120.0
            },
            {
                "pitch": 67,
                "velocity": 64,
                "duration": 0.1341,
                "tempo": 120.0
            },
            {
                "pitch": 0,
                "velocity": 64,
                "duration": 0.1341,
                "tempo": 120.0
            },
            {
                "pitch": 55,
                "velocity": 64,
                "duration": 0.05,
                "tempo": 120.0
            },
            {
                "pitch": 55,
                "velocity": 64,
                "duration": 0.0818,
                "tempo": 120.0
            },
            {
                "pitch": 67,
                "velocity": 64,
                "duration": 0.1318,
                "tempo": 120.0
            },
            {
                "pitch": 0,
                "velocity": 64,
                "duration": 0.1318,
                "tempo": 120.0
            },
            {
                "pitch": 55,
                "velocity": 64,
                "duration": 0.05,
                "tempo": 120.0
            },
            {
                "pitch": 55,
                "velocity": 64,
                "duration": 0.0841,
                "tempo": 120.0
            },
            {
                "pitch": 67,
                "velocity": 64,
                "duration": 0.1341,
                "tempo": 120.0
            },
            {
                "pitch": 0,
                "velocity": 64,
                "duration": 0.1341,
                "tempo": 120.0
            },
            {
                "pitch": 55,
                "velocity": 64,
                "duration": 0.05,
                "tempo": 120.0
            },
            {
                "pitch": 55,
                "velocity": 64,
                "duration": 0.0659,
                "tempo": 120.0
            },
            {
                "pitch": 60,
                "velocity": 64,
                "duration": 0.1136,
                "tempo": 120.0
            },
            {
                "pitch": 57,
                "velocity": 64,
                "duration": 0.1295,
                "tempo": 120.0
            },
            {
                "pitch": 58,
                "velocity": 64,
                "duration": 0.1136,
                "tempo": 120.0
            },
            {
                "pitch": 55,
                "velocity": 64,
                "duration": 0.2136,
                "tempo": 120.0
            },
            {
                "pitch": 67,
                "velocity": 64,
                "duration": 1.3205,
                "tempo": 120.0
            },
            {
                "pitch": 0,
                "velocity": 64,
                "duration": 1.3205,
                "tempo": 120.0
            },
            {
                "pitch": 55,
                "velocity": 64,
                "duration": 0.05,
                "tempo": 120.0
            },
            {
                "pitch": 55,
                "velocity": 64,
                "duration": 0.0841,
                "tempo": 120.0
            },
            {
                "pitch": 67,
                "velocity": 64,
                "duration": 0.1341,
                "tempo": 120.0
            },
            {
                "pitch": 0,
                "velocity": 64,
                "duration": 0.1341,
                "tempo": 120.0
            },
            {
                "pitch": 55,
                "velocity": 64,
                "duration": 0.05,
                "tempo": 120.0
            },
            {
                "pitch": 55,
                "velocity": 64,
                "duration": 0.0818,
                "tempo": 120.0
            },
            {
                "pitch": 67,
                "velocity": 64,
                "duration": 0.1318,
                "tempo": 120.0
            },
            {
                "pitch": 0,
                "velocity": 64,
                "duration": 0.1318,
                "tempo": 120.0
            },
            {
                "pitch": 55,
                "velocity": 64,
                "duration": 0.05,
                "tempo": 120.0
            },
            {
                "pitch": 55,
                "velocity": 64,
                "duration": 0.0841,
                "tempo": 120.0
            },
            {
                "pitch": 67,
                "velocity": 64,
                "duration": 0.1341,
                "tempo": 120.0
            },
            {
                "pitch": 0,
                "velocity": 64,
                "duration": 0.1341,
                "tempo": 120.0
            },
            {
                "pitch": 55,
                "velocity": 64,
                "duration": 0.05,
                "tempo": 120.0
            },
            {
                "pitch": 55,
                "velocity": 64,
                "duration": 0.0841,
                "tempo": 120.0
            },
            {
                "pitch": 67,
                "velocity": 64,
                "duration": 0.1341,
                "tempo": 120.0
            },
            {
                "pitch": 0,
                "velocity": 64,
                "duration": 0.1318,
                "tempo": 120.0
            },
            {
                "pitch": 55,
                "velocity": 64,
                "duration": 0.0477,
                "tempo": 120.0
            },
            {
                "pitch": 55,
                "velocity": 64,
                "duration": 0.0841,
                "tempo": 120.0
            },
            {
                "pitch": 67,
                "velocity": 64,
                "duration": 0.1318,
                "tempo": 120.0
            },
            {
                "pitch": 55,
                "velocity": 64,
                "duration": 0.05,
                "tempo": 120.0
            },
            {
                "pitch": 55,
                "velocity": 64,
                "duration": 0.0659,
                "tempo": 120.0
            },
            {
                "pitch": 55,
                "velocity": 64,
                "duration": 0.2159,
                "tempo": 120.0
            },
            {
                "pitch": 67,
                "velocity": 64,
                "duration": 1.3295,
                "tempo": 120.0
            },
            {
                "pitch": 0,
                "velocity": 64,
                "duration": 1.4636,
                "tempo": 120.0
            },
            {
                "pitch": 55,
                "velocity": 64,
                "duration": 0.05,
                "tempo": 120.0
            },
            {
                "pitch": 55,
                "velocity": 64,
                "duration": 0.0818,
                "tempo": 120.0
            },
            {
                "pitch": 67,
                "velocity": 64,
                "duration": 0.1318,
                "tempo": 120.0
            },
            {
                "pitch": 0,
                "velocity": 64,
                "duration": 0.1318,
                "tempo": 120.0
            },
            {
                "pitch": 55,
                "velocity": 64,
                "duration": 0.05,
                "tempo": 120.0
            },
            {
                "pitch": 55,
                "velocity": 64,
                "duration": 0.0841,
                "tempo": 120.0
            },
            {
                "pitch": 67,
                "velocity": 64,
                "duration": 0.1341,
                "tempo": 120.0
            },
            {
                "pitch": 0,
                "velocity": 64,
                "duration": 0.1341,
                "tempo": 120.0
            },
            {
                "pitch": 55,
                "velocity": 64,
                "duration": 0.05,
                "tempo": 120.0
            },
            {
                "pitch": 55,
                "velocity": 64,
                "duration": 0.0841,
                "tempo": 120.0
            },
            {
                "pitch": 67,
                "velocity": 64,
                "duration": 0.1341,
                "tempo": 120.0
            },
            {
                "pitch": 0,
                "velocity": 64,
                "duration": 0.1318,
                "tempo": 120.0
            },
            {
                "pitch": 55,
                "velocity": 64,
                "duration": 0.0477,
                "tempo": 120.0
            },
            {
                "pitch": 55,
                "velocity": 64,
                "duration": 0.0841,
                "tempo": 120.0
            },
            {
                "pitch": 67,
                "velocity": 64,
                "duration": 0.1318,
                "tempo": 120.0
            },
            {
                "pitch": 0,
                "velocity": 64,
                "duration": 0.1341,
                "tempo": 120.0
            },
            {
                "pitch": 55,
                "velocity": 64,
                "duration": 0.05,
                "tempo": 120.0
            },
            {
                "pitch": 55,
                "velocity": 64,
                "duration": 0.0841,
                "tempo": 120.0
            },
            {
                "pitch": 67,
                "velocity": 64,
                "duration": 0.1341,
                "tempo": 120.0
            },
            {
                "pitch": 0,
                "velocity": 64,
                "duration": 0.1341,
                "tempo": 120.0
            },
            {
                "pitch": 55,
                "velocity": 64,
                "duration": 0.05,
                "tempo": 120.0
            },
            {
                "pitch": 55,
                "velocity": 64,
                "duration": 0.0659,
                "tempo": 120.0
            },
            {
                "pitch": 55,
                "velocity": 64,
                "duration": 0.1136,
                "tempo": 120.0
            },
            {
                "pitch": 62,
                "velocity": 64,
                "duration": 0.1295,
                "tempo": 120.0
            },
            {
                "pitch": 67,
                "velocity": 64,
                "duration": 1.2045,
                "tempo": 120.0
            },
            {
                "pitch": 67,
                "velocity": 64,
                "duration": 0.2136,
                "tempo": 120.0
            },
            {
                "pitch": 67,
                "velocity": 64,
                "duration": 0.1318,
                "tempo": 120.0
            },
            {
                "pitch": 79,
                "velocity": 64,
                "duration": 0.1318,
                "tempo": 120.0
            },
            {
                "pitch": 67,
                "velocity": 64,
                "duration": 0.1341,
                "tempo": 120.0
            },
            {
                "pitch": 67,
                "velocity": 64,
                "duration": 0.1341,
                "tempo": 120.0
            },
            {
                "pitch": 67,
                "velocity": 64,
                "duration": 0.1318,
                "tempo": 120.0
            },
            {
                "pitch": 67,
                "velocity": 64,
                "duration": 0.1318,
                "tempo": 120.0
            },
            {
                "pitch": 67,
                "velocity": 64,
                "duration": 0.1341,
                "tempo": 120.0
            },
            {
                "pitch": 67,
                "velocity": 64,
                "duration": 0.1,
                "tempo": 120.0
            },
            {
                "pitch": 62,
                "velocity": 64,
                "duration": 0.4955,
                "tempo": 120.0
            },
            {
                "pitch": 58,
                "velocity": 64,
                "duration": 0.9977,
                "tempo": 120.0
            },
            {
                "pitch": 62,
                "velocity": 64,
                "duration": 0.1136,
                "tempo": 120.0
            },
            {
                "pitch": 58,
                "velocity": 64,
                "duration": 0.1295,
                "tempo": 120.0
            },
            {
                "pitch": 60,
                "velocity": 64,
                "duration": 0.1136,
                "tempo": 120.0
            },
            {
                "pitch": 58,
                "velocity": 64,
                "duration": 0.9977,
                "tempo": 120.0
            },
            {
                "pitch": 58,
                "velocity": 64,
                "duration": 0.9886,
                "tempo": 120.0
            },
            {
                "pitch": 62,
                "velocity": 64,
                "duration": 0.1136,
                "tempo": 120.0
            },
            {
                "pitch": 67,
                "velocity": 64,
                "duration": 0.1295,
                "tempo": 120.0
            },
            {
                "pitch": 70,
                "velocity": 64,
                "duration": 1.1114,
                "tempo": 120.0
            },
            {
                "pitch": 67,
                "velocity": 64,
                "duration": 0.2159,
                "tempo": 120.0
            },
            {
                "pitch": 79,
                "velocity": 64,
                "duration": 9.4477,
                "tempo": 120.0
            },
            {
                "pitch": 67,
                "velocity": 64,
                "duration": 0.1318,
                "tempo": 120.0
            },
            {
                "pitch": 67,
                "velocity": 64,
                "duration": 0.1341,
                "tempo": 120.0
            },
            {
                "pitch": 67,
                "velocity": 64,
                "duration": 0.0159,
                "tempo": 120.0
            },
            {
                "pitch": 50,
                "velocity": 64,
                "duration": 0.2455,
                "tempo": 120.0
            },
            {
                "pitch": 50,
                "velocity": 64,
                "duration": 0.2477,
                "tempo": 120.0
            },
            {
                "pitch": 51,
                "velocity": 64,
                "duration": 1.2455,
                "tempo": 120.0
            },
            {
                "pitch": 51,
                "velocity": 64,
                "duration": 0.2477,
                "tempo": 120.0
            },
            {
                "pitch": 50,
                "velocity": 64,
                "duration": 0.2455,
                "tempo": 120.0
            },
            {
                "pitch": 50,
                "velocity": 64,
                "duration": 0.2545,
                "tempo": 120.0
            },
            {
                "pitch": 49,
                "velocity": 64,
                "duration": 3.2273,
                "tempo": 120.0
            },
            {
                "pitch": 49,
                "velocity": 64,
                "duration": 0.2455,
                "tempo": 120.0
            },
            {
                "pitch": 50,
                "velocity": 64,
                "duration": 0.2477,
                "tempo": 120.0
            },
            {
                "pitch": 50,
                "velocity": 64,
                "duration": 0.25,
                "tempo": 120.0
            },
            {
                "pitch": 51,
                "velocity": 64,
                "duration": 1.2364,
                "tempo": 120.0
            },
            {
                "pitch": 51,
                "velocity": 64,
                "duration": 0.2477,
                "tempo": 120.0
            },
            {
                "pitch": 50,
                "velocity": 64,
                "duration": 0.2477,
                "tempo": 120.0
            },
            {
                "pitch": 50,
                "velocity": 64,
                "duration": 0.25,
                "tempo": 120.0
            },
            {
                "pitch": 49,
                "velocity": 64,
                "duration": 3.2318,
                "tempo": 120.0
            },
            {
                "pitch": 49,
                "velocity": 64,
                "duration": 0.2545,
                "tempo": 120.0
            }
        ]
    }
}