{
    "track_id": "09 Bio-Monster",
    "mood": "angry",
    "instruments": {
        "Acoustic Bass": [
            {
                "pitch": 33,
                "velocity": 80,
                "duration": 0.1977,
                "tempo": 120.0
            },
            {
                "pitch": 33,
                "velocity": 80,
                "duration": 0.1977,
                "tempo": 120.0
            },
            {
                "pitch": 33,
                "velocity": 80,
                "duration": 0.2,
                "tempo": 120.0
            },
            {
                "pitch": 33,
                "velocity": 80,
                "duration": 0.2,
                "tempo": 120.0
            },
            {
                "pitch": 33,
                "velocity": 80,
                "duration": 0.2,
                "tempo": 120.0
            },
            {
                "pitch": 33,
                "velocity": 80,
                "duration": 0.2,
                "tempo": 120.0
            },
            {
                "pitch": 33,
                "velocity": 80,
                "duration": 0.2,
                "tempo": 120.0
            },
            {
                "pitch": 33,
                "velocity": 80,
                "duration": 0.2,
                "tempo": 120.0
            },
            {
                "pitch": 38,
                "velocity": 80,
                "duration": 0.1,
                "tempo": 120.0
            },
            {
                "pitch": 40,
                "velocity": 80,
                "duration": 0.1023,
                "tempo": 120.0
            },
            {
                "pitch": 33,
                "velocity": 80,
                "duration": 0.2,
                "tempo": 120.0
            },
            {
                "pitch": 33,
                "velocity": 80,
                "duration": 0.1977,
                "tempo": 120.0
            },
            {
                "pitch": 33,
                "velocity": 80,
                "duration": 0.1932,
                "tempo": 120.0
            },
            {
                "pitch": 33,
                "velocity": 80,
                "duration": 0.1955,
                "tempo": 120.0
            },
            {
                "pitch": 33,
                "velocity": 80,
                "duration": 0.2,
                "tempo": 120.0
            },
            {
                "pitch": 33,
                "velocity": 80,
                "duration": 0.2,
                "tempo": 120.0
            },
            {
                "pitch": 33,
                "velocity": 80,
                "duration": 0.1023,
                "tempo": 120.0
            },
            {
                "pitch": 45,
                "velocity": 80,
                "duration": 0.1023,
                "tempo": 120.0
            },
            {
                "pitch": 43,
                "velocity": 80,
                "duration": 0.1023,
                "tempo": 120.0
            },
            {
                "pitch": 40,
                "velocity": 80,
                "duration": 0.1023,
                "tempo": 120.0
            },
            {
                "pitch": 38,
                "velocity": 80,
                "duration": 0.1,
                "tempo": 120.0
            },
            {
                "pitch": 36,
                "velocity": 80,
                "duration": 0.1,
                "tempo": 120.0
            },
            {
                "pitch": 33,
                "velocity": 80,
                "duration": 0.1,
                "tempo": 120.0
            },
            {
                "pitch": 31,
                "velocity": 80,
                "duration": 0.1023,
                "tempo": 120.0
            },
            {
                "pitch": 33,
                "velocity": 80,
                "duration": 0.1977,
                "tempo": 120.0
            },
            {
                "pitch": 33,
                "velocity": 80,
                "duration": 0.1977,
                "tempo": 120.0
            },
            {
                "pitch": 33,
                "velocity": 80,
                "duration": 0.2,
                "tempo": 120.0
            },
            {
                "pitch": 33,
                "velocity": 80,
                "duration": 0.2,
                "tempo": 120.0
            },
            {
                "pitch": 33,
                "velocity": 80,
                "duration": 0.2,
                "tempo": 120.0
            },
            {
                "pitch": 33,
                "velocity": 80,
                "duration": 0.2,
                "tempo": 120.0
            },
            {
                "pitch": 33,
                "velocity": 80,
                "duration": 0.2,
                "tempo": 120.0
            },
            {
                "pitch": 33,
                "velocity": 80,
                "duration": 0.2023,
                "tempo": 120.0
            },
            {
                "pitch": 38,
                "velocity": 80,
                "duration": 0.1,
                "tempo": 120.0
            },
            {
                "pitch": 40,
                "velocity": 80,
                "duration": 0.1023,
                "tempo": 120.0
            },
            {
                "pitch": 33,
                "velocity": 80,
                "duration": 0.2,
                "tempo": 120.0
            },
            {
                "pitch": 33,
                "velocity": 80,
                "duration": 0.1977,
                "tempo": 120.0
            },
            {
                "pitch": 33,
                "velocity": 80,
                "duration": 0.1977,
                "tempo": 120.0
            },
            {
                "pitch": 33,
                "velocity": 80,
                "duration": 0.2,
                "tempo": 120.0
            },
            {
                "pitch": 33,
                "velocity": 80,
                "duration": 0.2,
                "tempo": 120.0
            },
            {
                "pitch": 33,
                "velocity": 80,
                "duration": 0.2023,
                "tempo": 120.0
            },
            {
                "pitch": 33,
                "velocity": 80,
                "duration": 0.1,
                "tempo": 120.0
            },
            {
                "pitch": 45,
                "velocity": 80,
                "duration": 0.1,
                "tempo": 120.0
            },
            {
                "pitch": 43,
                "velocity": 80,
                "duration": 0.1,
                "tempo": 120.0
            },
            {
                "pitch": 40,
                "velocity": 80,
                "duration": 0.1,
                "tempo": 120.0
            },
            {
                "pitch": 38,
                "velocity": 80,
                "duration": 0.0977,
                "tempo": 120.0
            },
            {
                "pitch": 36,
                "velocity": 80,
                "duration": 0.1,
                "tempo": 120.0
            },
            {
                "pitch": 33,
                "velocity": 80,
                "duration": 0.1,
                "tempo": 120.0
            },
            {
                "pitch": 31,
                "velocity": 80,
                "duration": 0.1023,
                "tempo": 120.0
            },
            {
                "pitch": 33,
                "velocity": 80,
                "duration": 0.2,
                "tempo": 120.0
            },
            {
                "pitch": 33,
                "velocity": 80,
                "duration": 0.2023,
                "tempo": 120.0
            },
            {
                "pitch": 33,
                "velocity": 80,
                "duration": 0.2023,
                "tempo": 120.0
            },
            {
                "pitch": 33,
                "velocity": 80,
                "duration": 0.2,
                "tempo": 120.0
            },
            {
                "pitch": 33,
                "velocity": 80,
                "duration": 0.2,
                "tempo": 120.0
            },
            {
                "pitch": 33,
                "velocity": 80,
                "duration": 0.2,
                "tempo": 120.0
            },
            {
                "pitch": 33,
                "velocity": 80,
                "duration": 0.2,
                "tempo": 120.0
            },
            {
                "pitch": 33,
                "velocity": 80,
                "duration": 0.2,
                "tempo": 120.0
            },
            {
                "pitch": 38,
                "velocity": 80,
                "duration": 0.1,
                "tempo": 120.0
            },
            {
                "pitch": 40,
                "velocity": 80,
                "duration": 0.1,
                "tempo": 120.0
            },
            {
                "pitch": 33,
                "velocity": 80,
                "duration": 0.2,
                "tempo": 120.0
            },
            {
                "pitch": 33,
                "velocity": 80,
                "duration": 0.2023,
                "tempo": 120.0
            },
            {
                "pitch": 33,
                "velocity": 80,
                "duration": 0.2023,
                "tempo": 120.0
            },
            {
                "pitch": 33,
                "velocity": 80,
                "duration": 0.2,
                "tempo": 120.0
            },
            {
                "pitch": 33,
                "velocity": 80,
                "duration": 0.2,
                "tempo": 120.0
            },
            {
                "pitch": 33,
                "velocity": 80,
                "duration": 0.2,
                "tempo": 120.0
            },
            {
                "pitch": 33,
                "velocity": 80,
                "duration": 0.0955,
                "tempo": 120.0
            },
            {
                "pitch": 45,
                "velocity": 80,
                "duration": 0.0977,
                "tempo": 120.0
            },
            {
                "pitch": 43,
                "velocity": 80,
                "duration": 0.0977,
                "tempo": 120.0
            },
            {
                "pitch": 40,
                "velocity": 80,
                "duration": 0.0977,
                "tempo": 120.0
            },
            {
                "pitch": 38,
                "velocity": 80,
                "duration": 0.1,
                "tempo": 120.0
            },
            {
                "pitch": 36,
                "velocity": 80,
                "duration": 0.1045,
                "tempo": 120.0
            },
            {
                "pitch": 33,
                "velocity": 80,
                "duration": 0.1023,
                "tempo": 120.0
            },
            {
                "pitch": 31,
                "velocity": 80,
                "duration": 0.1023,
                "tempo": 120.0
            },
            {
                "pitch": 29,
                "velocity": 80,
                "duration": 0.2,
                "tempo": 120.0
            },
            {
                "pitch": 29,
                "velocity": 80,
                "duration": 0.2023,
                "tempo": 120.0
            },
            {
                "pitch": 29,
                "velocity": 80,
                "duration": 0.2,
                "tempo": 120.0
            },
            {
                "pitch": 29,
                "velocity": 80,
                "duration": 0.2,
                "tempo": 120.0
            },
            {
                "pitch": 31,
                "velocity": 80,
                "duration": 0.1977,
                "tempo": 120.0
            },
            {
                "pitch": 31,
                "velocity": 80,
                "duration": 0.2,
                "tempo": 120.0
            },
            {
                "pitch": 31,
                "velocity": 80,
                "duration": 0.2,
                "tempo": 120.0
            },
            {
                "pitch": 31,
                "velocity": 80,
                "duration": 0.2,
                "tempo": 120.0
            },
            {
                "pitch": 36,
                "velocity": 80,
                "duration": 0.1,
                "tempo": 120.0
            },
            {
                "pitch": 38,
                "velocity": 80,
                "duration": 0.1,
                "tempo": 120.0
            },
            {
                "pitch": 33,
                "velocity": 80,
                "duration": 0.2,
                "tempo": 120.0
            },
            {
                "pitch": 33,
                "velocity": 80,
                "duration": 0.2,
                "tempo": 120.0
            },
            {
                "pitch": 33,
                "velocity": 80,
                "duration": 0.2023,
                "tempo": 120.0
            },
            {
                "pitch": 33,
                "velocity": 80,
                "duration": 0.2023,
                "tempo": 120.0
            },
            {
                "pitch": 34,
                "velocity": 80,
                "duration": 0.2,
                "tempo": 120.0
            },
            {
                "pitch": 34,
                "velocity": 80,
                "duration": 0.2,
                "tempo": 120.0
            },
            {
                "pitch": 35,
                "velocity": 80,
                "duration": 0.2,
                "tempo": 120.0
            },
            {
                "pitch": 35,
                "velocity": 80,
                "duration": 0.2,
                "tempo": 120.0
            },
            {
                "pitch": 38,
                "velocity": 80,
                "duration": 0.1023,
                "tempo": 120.0
            },
            {
                "pitch": 40,
                "velocity": 80,
                "duration": 0.1023,
                "tempo": 120.0
            },
            {
                "pitch": 35,
                "velocity": 80,
                "duration": 0.1023,
                "tempo": 120.0
            },
            {
                "pitch": 36,
                "velocity": 80,
                "duration": 0.1023,
                "tempo": 120.0
            },
            {
                "pitch": 33,
                "velocity": 80,
                "duration": 0.2,
                "tempo": 120.0
            },
            {
                "pitch": 33,
                "velocity": 80,
                "duration": 0.2,
                "tempo": 120.0
            },
            {
                "pitch": 33,
                "velocity": 80,
                "duration": 0.2023,
                "tempo": 120.0
            },
            {
                "pitch": 33,
                "velocity": 80,
                "duration": 0.2,
                "tempo": 120.0
            },
            {
                "pitch": 33,
                "velocity": 80,
                "duration": 0.2,
                "tempo": 120.0
            },
            {
                "pitch": 33,
                "velocity": 80,
                "duration": 0.2,
                "tempo": 120.0
            },
            {
                "pitch": 33,
                "velocity": 80,
                "duration": 0.2,
                "tempo": 120.0
            },
            {
                "pitch": 33,
                "velocity": 80,
                "duration": 0.1977,
                "tempo": 120.0
            },
            {
                "pitch": 38,
                "velocity": 80,
                "duration": 0.0977,
                "tempo": 120.0
            },
            {
                "pitch": 40,
                "velocity": 80,
                "duration": 0.1,
                "tempo": 120.0
            },
            {
                "pitch": 33,
                "velocity": 80,
                "duration": 0.2,
                "tempo": 120.0
            },
            {
                "pitch": 33,
                "velocity": 80,
                "duration": 0.2,
                "tempo": 120.0
            },
            {
                "pitch": 33,
                "velocity": 80,
                "duration": 0.2023,
                "tempo": 120.0
            },
            {
                "pitch": 33,
                "velocity": 80,
                "duration": 0.2,
                "tempo": 120.0
            },
            {
                "pitch": 33,
                "velocity": 80,
                "duration": 0.2,
                "tempo": 120.0
            },
            {
                "pitch": 33,
                "velocity": 80,
                "duration": 0.2,
                "tempo": 120.0
            },
            {
                "pitch": 33,
                "velocity": 80,
                "duration": 0.0977,
                "tempo": 120.0
            },
            {
                "pitch": 45,
                "velocity": 80,
                "duration": 0.1,
                "tempo": 120.0
            },
            {
                "pitch": 43,
                "velocity": 80,
                "duration": 0.1,
                "tempo": 120.0
            },
            {
                "pitch": 40,
                "velocity": 80,
                "duration": 0.1,
                "tempo": 120.0
            },
            {
                "pitch": 38,
                "velocity": 80,
                "duration": 0.1,
                "tempo": 120.0
            },
            {
                "pitch": 36,
                "velocity": 80,
                "duration": 0.1023,
                "tempo": 120.0
            },
            {
                "pitch": 33,
                "velocity": 80,
                "duration": 0.1,
                "tempo": 120.0
            },
            {
                "pitch": 31,
                "velocity": 80,
                "duration": 0.1,
                "tempo": 120.0
            },
            {
                "pitch": 29,
                "velocity": 80,
                "duration": 0.1977,
                "tempo": 120.0
            },
            {
                "pitch": 29,
                "velocity": 80,
                "duration": 0.2,
                "tempo": 120.0
            },
            {
                "pitch": 29,
                "velocity": 80,
                "duration": 0.1977,
                "tempo": 120.0
            },
            {
                "pitch": 29,
                "velocity": 80,
                "duration": 0.2,
                "tempo": 120.0
            },
            {
                "pitch": 31,
                "velocity": 80,
                "duration": 0.2045,
                "tempo": 120.0
            },
            {
                "pitch": 31,
                "velocity": 80,
                "duration": 0.2045,
                "tempo": 120.0
            },
            {
                "pitch": 31,
                "velocity": 80,
                "duration": 0.1955,
                "tempo": 120.0
            },
            {
                "pitch": 31,
                "velocity": 80,
                "duration": 0.1955,
                "tempo": 120.0
            },
            {
                "pitch": 36,
                "velocity": 80,
                "duration": 0.1023,
                "tempo": 120.0
            },
            {
                "pitch": 38,
                "velocity": 80,
                "duration": 0.1045,
                "tempo": 120.0
            },
            {
                "pitch": 33,
                "velocity": 80,
                "duration": 0.1977,
                "tempo": 120.0
            },
            {
                "pitch": 33,
                "velocity": 80,
                "duration": 0.1977,
                "tempo": 120.0
            },
            {
                "pitch": 33,
                "velocity": 80,
                "duration": 0.2,
                "tempo": 120.0
            },
            {
                "pitch": 33,
                "velocity": 80,
                "duration": 0.2,
                "tempo": 120.0
            },
            {
                "pitch": 33,
                "velocity": 80,
                "duration": 0.2,
                "tempo": 120.0
            },
            {
                "pitch": 33,
                "velocity": 80,
                "duration": 0.2,
                "tempo": 120.0
            },
            {
                "pitch": 33,
                "velocity": 80,
                "duration": 0.2,
                "tempo": 120.0
            },
            {
                "pitch": 33,
                "velocity": 80,
                "duration": 0.2,
                "tempo": 120.0
            },
            {
                "pitch": 43,
                "velocity": 80,
                "duration": 0.1,
                "tempo": 120.0
            },
            {
                "pitch": 45,
                "velocity": 80,
                "duration": 0.1,
                "tempo": 120.0
            },
            {
                "pitch": 40,
                "velocity": 80,
                "duration": 0.1,
                "tempo": 120.0
            },
            {
                "pitch": 43,
                "velocity": 80,
                "duration": 0.1,
                "tempo": 120.0
            },
            {
                "pitch": 29,
                "velocity": 80,
                "duration": 0.1977,
                "tempo": 120.0
            },
            {
                "pitch": 29,
                "velocity": 80,
                "duration": 0.1977,
                "tempo": 120.0
            },
            {
                "pitch": 29,
                "velocity": 80,
                "duration": 0.2,
                "tempo": 120.0
            },
            {
                "pitch": 29,
                "velocity": 80,
                "duration": 0.2,
                "tempo": 120.0
            },
            {
                "pitch": 39,
                "velocity": 80,
                "duration": 0.1977,
                "tempo": 120.0
            },
            {
                "pitch": 39,
                "velocity": 80,
                "duration": 0.2,
                "tempo": 120.0
            },
            {
                "pitch": 39,
                "velocity": 80,
                "duration": 0.2,
                "tempo": 120.0
            },
            {
                "pitch": 39,
                "velocity": 80,
                "duration": 0.2,
                "tempo": 120.0
            },
            {
                "pitch": 38,
                "velocity": 80,
                "duration": 0.1977,
                "tempo": 120.0
            },
            {
                "pitch": 38,
                "velocity": 80,
                "duration": 0.1977,
                "tempo": 120.0
            },
            {
                "pitch": 38,
                "velocity": 80,
                "duration": 0.2,
                "tempo": 120.0
            },
            {
                "pitch": 38,
                "velocity": 80,
                "duration": 0.2,
                "tempo": 120.0
            },
            {
                "pitch": 31,
                "velocity": 80,
                "duration": 0.1977,
                "tempo": 120.0
            },
            {
                "pitch": 31,
                "velocity": 80,
                "duration": 0.2,
                "tempo": 120.0
            },
            {
                "pitch": 36,
                "velocity": 80,
                "duration": 0.2023,
                "tempo": 120.0
            },
            {
                "pitch": 36,
                "velocity": 80,
                "duration": 0.2,
                "tempo": 120.0
            },
            {
                "pitch": 31,
                "velocity": 80,
                "duration": 0.1977,
                "tempo": 120.0
            },
            {
                "pitch": 31,
                "velocity": 80,
                "duration": 0.2,
                "tempo": 120.0
            },
            {
                "pitch": 31,
                "velocity": 80,
                "duration": 0.2,
                "tempo": 120.0
            },
            {
                "pitch": 31,
                "velocity": 80,
                "duration": 0.2,
                "tempo": 120.0
            },
            {
                "pitch": 36,
                "velocity": 80,
                "duration": 0.1977,
                "tempo": 120.0
            },
            {
                "pitch": 36,
                "velocity": 80,
                "duration": 0.2,
                "tempo": 120.0
            },
            {
                "pitch": 36,
                "velocity": 80,
                "duration": 0.2,
                "tempo": 120.0
            },
            {
                "pitch": 36,
                "velocity": 80,
                "duration": 0.2,
                "tempo": 120.0
            },
            {
                "pitch": 28,
                "velocity": 80,
                "duration": 0.2,
                "tempo": 120.0
            },
            {
                "pitch": 28,
                "velocity": 80,
                "duration": 0.2023,
                "tempo": 120.0
            },
            {
                "pitch": 28,
                "velocity": 80,
                "duration": 0.1977,
                "tempo": 120.0
            },
            {
                "pitch": 28,
                "velocity": 80,
                "duration": 0.1977,
                "tempo": 120.0
            },
            {
                "pitch": 28,
                "velocity": 80,
                "duration": 0.2045,
                "tempo": 120.0
            },
            {
                "pitch": 28,
                "velocity": 80,
                "duration": 0.2045,
                "tempo": 120.0
            },
            {
                "pitch": 28,
                "velocity": 80,
                "duration": 0.2,
                "tempo": 120.0
            },
            {
                "pitch": 28,
                "velocity": 80,
                "duration": 0.2,
                "tempo": 120.0
            }
        ],
        "Trumpet": [
            {
                "pitch": 60,
                "velocity": 80,
                "duration": 0.0977,
                "tempo": 120.0
            },
            {
                "pitch": 60,
                "velocity": 80,
                "duration": 0.1,
                "tempo": 120.0
            },
            {
                "pitch": 60,
                "velocity": 80,
                "duration": 0.1,
                "tempo": 120.0
            },
            {
                "pitch": 60,
                "velocity": 80,
                "duration": 0.6,
                "tempo": 120.0
            },
            {
                "pitch": 59,
                "velocity": 80,
                "duration": 1.8045,
                "tempo": 120.0
            },
            {
                "pitch": 60,
                "velocity": 80,
                "duration": 0.1,
                "tempo": 120.0
            },
            {
                "pitch": 60,
                "velocity": 80,
                "duration": 0.1,
                "tempo": 120.0
            },
            {
                "pitch": 60,
                "velocity": 80,
                "duration": 0.1,
                "tempo": 120.0
            },
            {
                "pitch": 60,
                "velocity": 80,
                "duration": 0.5977,
                "tempo": 120.0
            },
            {
                "pitch": 62,
                "velocity": 80,
                "duration": 0.8,
                "tempo": 120.0
            },
            {
                "pitch": 59,
                "velocity": 80,
                "duration": 1.0091,
                "tempo": 120.0
            },
            {
                "pitch": 60,
                "velocity": 80,
                "duration": 0.0977,
                "tempo": 120.0
            },
            {
                "pitch": 60,
                "velocity": 80,
                "duration": 0.1,
                "tempo": 120.0
            },
            {
                "pitch": 60,
                "velocity": 80,
                "duration": 0.1,
                "tempo": 120.0
            },
            {
                "pitch": 60,
                "velocity": 80,
                "duration": 0.6023,
                "tempo": 120.0
            },
            {
                "pitch": 59,
                "velocity": 80,
                "duration": 1.8091,
                "tempo": 120.0
            },
            {
                "pitch": 60,
                "velocity": 80,
                "duration": 0.1,
                "tempo": 120.0
            },
            {
                "pitch": 60,
                "velocity": 80,
                "duration": 0.1,
                "tempo": 120.0
            },
            {
                "pitch": 60,
                "velocity": 80,
                "duration": 0.1,
                "tempo": 120.0
            },
            {
                "pitch": 60,
                "velocity": 80,
                "duration": 0.6068,
                "tempo": 120.0
            },
            {
                "pitch": 62,
                "velocity": 80,
                "duration": 0.8091,
                "tempo": 120.0
            },
            {
                "pitch": 59,
                "velocity": 80,
                "duration": 1.0045,
                "tempo": 120.0
            },
            {
                "pitch": 60,
                "velocity": 101,
                "duration": 0.1,
                "tempo": 120.0
            },
            {
                "pitch": 52,
                "velocity": 101,
                "duration": 0.1,
                "tempo": 120.0
            },
            {
                "pitch": 57,
                "velocity": 101,
                "duration": 0.1,
                "tempo": 120.0
            },
            {
                "pitch": 59,
                "velocity": 101,
                "duration": 0.1,
                "tempo": 120.0
            },
            {
                "pitch": 60,
                "velocity": 101,
                "duration": 0.2,
                "tempo": 120.0
            },
            {
                "pitch": 62,
                "velocity": 101,
                "duration": 0.4023,
                "tempo": 120.0
            },
            {
                "pitch": 60,
                "velocity": 101,
                "duration": 0.4023,
                "tempo": 120.0
            },
            {
                "pitch": 59,
                "velocity": 101,
                "duration": 0.3,
                "tempo": 120.0
            },
            {
                "pitch": 50,
                "velocity": 101,
                "duration": 0.1,
                "tempo": 120.0
            },
            {
                "pitch": 55,
                "velocity": 101,
                "duration": 0.1,
                "tempo": 120.0
            },
            {
                "pitch": 57,
                "velocity": 101,
                "duration": 0.1,
                "tempo": 120.0
            },
            {
                "pitch": 59,
                "velocity": 101,
                "duration": 0.2023,
                "tempo": 120.0
            },
            {
                "pitch": 60,
                "velocity": 101,
                "duration": 0.4023,
                "tempo": 120.0
            },
            {
                "pitch": 59,
                "velocity": 101,
                "duration": 0.4023,
                "tempo": 120.0
            },
            {
                "pitch": 55,
                "velocity": 101,
                "duration": 0.2,
                "tempo": 120.0
            },
            {
                "pitch": 60,
                "velocity": 101,
                "duration": 0.1,
                "tempo": 120.0
            },
            {
                "pitch": 52,
                "velocity": 101,
                "duration": 0.1,
                "tempo": 120.0
            },
            {
                "pitch": 57,
                "velocity": 101,
                "duration": 0.1,
                "tempo": 120.0
            },
            {
                "pitch": 59,
                "velocity": 101,
                "duration": 0.1,
                "tempo": 120.0
            },
            {
                "pitch": 60,
                "velocity": 101,
                "duration": 0.2,
                "tempo": 120.0
            },
            {
                "pitch": 62,
                "velocity": 101,
                "duration": 0.4023,
                "tempo": 120.0
            },
            {
                "pitch": 60,
                "velocity": 101,
                "duration": 0.4023,
                "tempo": 120.0
            },
            {
                "pitch": 59,
                "velocity": 101,
                "duration": 0.3,
                "tempo": 120.0
            },
            {
                "pitch": 50,
                "velocity": 101,
                "duration": 0.1,
                "tempo": 120.0
            },
            {
                "pitch": 55,
                "velocity": 101,
                "duration": 0.1,
                "tempo": 120.0
            },
            {
                "pitch": 57,
                "velocity": 101,
                "duration": 0.1,
                "tempo": 120.0
            },
            {
                "pitch": 59,
                "velocity": 101,
                "duration": 0.2045,
                "tempo": 120.0
            },
            {
                "pitch": 60,
                "velocity": 101,
                "duration": 0.4,
                "tempo": 120.0
            },
            {
                "pitch": 62,
                "velocity": 101,
                "duration": 0.4,
                "tempo": 120.0
            },
            {
                "pitch": 64,
                "velocity": 101,
                "duration": 0.2068,
                "tempo": 120.0
            },
            {
                "pitch": 60,
                "velocity": 101,
                "duration": 0.6023,
                "tempo": 120.0
            },
            {
                "pitch": 60,
                "velocity": 101,
                "duration": 0.6,
                "tempo": 120.0
            },
            {
                "pitch": 57,
                "velocity": 101,
                "duration": 0.1,
                "tempo": 120.0
            },
            {
                "pitch": 59,
                "velocity": 101,
                "duration": 0.1,
                "tempo": 120.0
            },
            {
                "pitch": 60,
                "velocity": 101,
                "duration": 0.2,
                "tempo": 120.0
            },
            {
                "pitch": 62,
                "velocity": 101,
                "duration": 0.6023,
                "tempo": 120.0
            },
            {
                "pitch": 62,
                "velocity": 101,
                "duration": 0.6023,
                "tempo": 120.0
            },
            {
                "pitch": 65,
                "velocity": 101,
                "duration": 0.1,
                "tempo": 120.0
            },
            {
                "pitch": 64,
                "velocity": 101,
                "duration": 0.1,
                "tempo": 120.0
            },
            {
                "pitch": 62,
                "velocity": 101,
                "duration": 0.2,
                "tempo": 120.0
            },
            {
                "pitch": 60,
                "velocity": 101,
                "duration": 0.4023,
                "tempo": 120.0
            },
            {
                "pitch": 59,
                "velocity": 101,
                "duration": 0.0977,
                "tempo": 120.0
            },
            {
                "pitch": 60,
                "velocity": 101,
                "duration": 0.0977,
                "tempo": 120.0
            },
            {
                "pitch": 62,
                "velocity": 101,
                "duration": 0.4,
                "tempo": 120.0
            },
            {
                "pitch": 59,
                "velocity": 101,
                "duration": 0.4,
                "tempo": 120.0
            },
            {
                "pitch": 64,
                "velocity": 101,
                "duration": 0.2977,
                "tempo": 120.0
            },
            {
                "pitch": 65,
                "velocity": 101,
                "duration": 0.0977,
                "tempo": 120.0
            },
            {
                "pitch": 64,
                "velocity": 101,
                "duration": 0.0977,
                "tempo": 120.0
            },
            {
                "pitch": 62,
                "velocity": 101,
                "duration": 0.0977,
                "tempo": 120.0
            },
            {
                "pitch": 59,
                "velocity": 101,
                "duration": 0.2,
                "tempo": 120.0
            },
            {
                "pitch": 60,
                "velocity": 101,
                "duration": 0.4023,
                "tempo": 120.0
            },
            {
                "pitch": 62,
                "velocity": 101,
                "duration": 0.4068,
                "tempo": 120.0
            },
            {
                "pitch": 64,
                "velocity": 101,
                "duration": 0.2045,
                "tempo": 120.0
            },
            {
                "pitch": 60,
                "velocity": 101,
                "duration": 0.0977,
                "tempo": 120.0
            },
            {
                "pitch": 52,
                "velocity": 101,
                "duration": 0.1,
                "tempo": 120.0
            },
            {
                "pitch": 57,
                "velocity": 101,
                "duration": 0.1,
                "tempo": 120.0
            },
            {
                "pitch": 59,
                "velocity": 101,
                "duration": 0.1,
                "tempo": 120.0
            },
            {
                "pitch": 60,
                "velocity": 101,
                "duration": 0.1955,
                "tempo": 120.0
            },
            {
                "pitch": 62,
                "velocity": 101,
                "duration": 0.3977,
                "tempo": 120.0
            },
            {
                "pitch": 60,
                "velocity": 101,
                "duration": 0.4068,
                "tempo": 120.0
            },
            {
                "pitch": 59,
                "velocity": 101,
                "duration": 0.3045,
                "tempo": 120.0
            },
            {
                "pitch": 50,
                "velocity": 101,
                "duration": 0.1,
                "tempo": 120.0
            },
            {
                "pitch": 55,
                "velocity": 101,
                "duration": 0.1,
                "tempo": 120.0
            },
            {
                "pitch": 57,
                "velocity": 101,
                "duration": 0.1,
                "tempo": 120.0
            },
            {
                "pitch": 59,
                "velocity": 101,
                "duration": 0.2023,
                "tempo": 120.0
            },
            {
                "pitch": 60,
                "velocity": 101,
                "duration": 0.4023,
                "tempo": 120.0
            },
            {
                "pitch": 59,
                "velocity": 101,
                "duration": 0.4,
                "tempo": 120.0
            },
            {
                "pitch": 55,
                "velocity": 101,
                "duration": 0.2,
                "tempo": 120.0
            },
            {
                "pitch": 60,
                "velocity": 101,
                "duration": 0.1,
                "tempo": 120.0
            },
            {
                "pitch": 52,
                "velocity": 101,
                "duration": 0.0977,
                "tempo": 120.0
            },
            {
                "pitch": 57,
                "velocity": 101,
                "duration": 0.1,
                "tempo": 120.0
            },
            {
                "pitch": 59,
                "velocity": 101,
                "duration": 0.1,
                "tempo": 120.0
            },
            {
                "pitch": 60,
                "velocity": 101,
                "duration": 0.1977,
                "tempo": 120.0
            },
            {
                "pitch": 62,
                "velocity": 101,
                "duration": 0.4,
                "tempo": 120.0
            },
            {
                "pitch": 60,
                "velocity": 101,
                "duration": 0.4023,
                "tempo": 120.0
            },
            {
                "pitch": 59,
                "velocity": 101,
                "duration": 0.3,
                "tempo": 120.0
            },
            {
                "pitch": 50,
                "velocity": 101,
                "duration": 0.1,
                "tempo": 120.0
            },
            {
                "pitch": 55,
                "velocity": 101,
                "duration": 0.0977,
                "tempo": 120.0
            },
            {
                "pitch": 57,
                "velocity": 101,
                "duration": 0.0977,
                "tempo": 120.0
            },
            {
                "pitch": 59,
                "velocity": 101,
                "duration": 0.2,
                "tempo": 120.0
            },
            {
                "pitch": 60,
                "velocity": 101,
                "duration": 0.4023,
                "tempo": 120.0
            },
            {
                "pitch": 62,
                "velocity": 101,
                "duration": 0.4023,
                "tempo": 120.0
            },
            {
                "pitch": 64,
                "velocity": 101,
                "duration": 0.2,
                "tempo": 120.0
            },
            {
                "pitch": 60,
                "velocity": 101,
                "duration": 0.6,
                "tempo": 120.0
            },
            {
                "pitch": 60,
                "velocity": 101,
                "duration": 0.6,
                "tempo": 120.0
            },
            {
                "pitch": 57,
                "velocity": 101,
                "duration": 0.1,
                "tempo": 120.0
            },
            {
                "pitch": 59,
                "velocity": 101,
                "duration": 0.1,
                "tempo": 120.0
            },
            {
                "pitch": 60,
                "velocity": 101,
                "duration": 0.2023,
                "tempo": 120.0
            },
            {
                "pitch": 62,
                "velocity": 101,
                "duration": 0.6114,
                "tempo": 120.0
            },
            {
                "pitch": 62,
                "velocity": 101,
                "duration": 0.5932,
                "tempo": 120.0
            },
            {
                "pitch": 65,
                "velocity": 101,
                "duration": 0.1023,
                "tempo": 120.0
            },
            {
                "pitch": 64,
                "velocity": 101,
                "duration": 0.1023,
                "tempo": 120.0
            },
            {
                "pitch": 62,
                "velocity": 101,
                "duration": 0.2068,
                "tempo": 120.0
            },
            {
                "pitch": 60,
                "velocity": 101,
                "duration": 0.1,
                "tempo": 120.0
            },
            {
                "pitch": 59,
                "velocity": 101,
                "duration": 0.1,
                "tempo": 120.0
            },
            {
                "pitch": 57,
                "velocity": 101,
                "duration": 3.0068,
                "tempo": 120.0
            },
            {
                "pitch": 60,
                "velocity": 101,
                "duration": 1.2023,
                "tempo": 120.0
            },
            {
                "pitch": 65,
                "velocity": 101,
                "duration": 0.1,
                "tempo": 120.0
            },
            {
                "pitch": 67,
                "velocity": 101,
                "duration": 0.1,
                "tempo": 120.0
            },
            {
                "pitch": 70,
                "velocity": 101,
                "duration": 0.4,
                "tempo": 120.0
            },
            {
                "pitch": 69,
                "velocity": 101,
                "duration": 0.4,
                "tempo": 120.0
            },
            {
                "pitch": 67,
                "velocity": 101,
                "duration": 0.4045,
                "tempo": 120.0
            },
            {
                "pitch": 69,
                "velocity": 101,
                "duration": 0.4114,
                "tempo": 120.0
            },
            {
                "pitch": 65,
                "velocity": 101,
                "duration": 1.6045,
                "tempo": 120.0
            },
            {
                "pitch": 67,
                "velocity": 101,
                "duration": 0.4,
                "tempo": 120.0
            },
            {
                "pitch": 69,
                "velocity": 101,
                "duration": 0.4,
                "tempo": 120.0
            },
            {
                "pitch": 67,
                "velocity": 101,
                "duration": 0.4045,
                "tempo": 120.0
            },
            {
                "pitch": 64,
                "velocity": 101,
                "duration": 0.4,
                "tempo": 120.0
            },
            {
                "pitch": 65,
                "velocity": 101,
                "duration": 1.2,
                "tempo": 120.0
            },
            {
                "pitch": 67,
                "velocity": 101,
                "duration": 0.1,
                "tempo": 120.0
            },
            {
                "pitch": 69,
                "velocity": 101,
                "duration": 0.1,
                "tempo": 120.0
            },
            {
                "pitch": 67,
                "velocity": 101,
                "duration": 0.4,
                "tempo": 120.0
            },
            {
                "pitch": 65,
                "velocity": 101,
                "duration": 0.4,
                "tempo": 120.0
            },
            {
                "pitch": 64,
                "velocity": 101,
                "duration": 0.4,
                "tempo": 120.0
            },
            {
                "pitch": 67,
                "velocity": 101,
                "duration": 0.4,
                "tempo": 120.0
            },
            {
                "pitch": 64,
                "velocity": 101,
                "duration": 0.8023,
                "tempo": 120.0
            },
            {
                "pitch": 68,
                "velocity": 101,
                "duration": 0.3,
                "tempo": 120.0
            },
            {
                "pitch": 71,
                "velocity": 101,
                "duration": 0.2,
                "tempo": 120.0
            },
            {
                "pitch": 73,
                "velocity": 101,
                "duration": 0.3,
                "tempo": 120.0
            },
            {
                "pitch": 76,
                "velocity": 101,
                "duration": 1.6114,
                "tempo": 120.0
            },
            {
                "pitch": 60,
                "velocity": 80,
                "duration": 0.0023,
                "tempo": 120.0
            }
        ],
        "Harpsichord": [
            {
                "pitch": 48,
                "velocity": 51,
                "duration": 0.1977,
                "tempo": 120.0
            },
            {
                "pitch": 48,
                "velocity": 51,
                "duration": 0.1,
                "tempo": 120.0
            },
            {
                "pitch": 48,
                "velocity": 51,
                "duration": 0.1,
                "tempo": 120.0
            },
            {
                "pitch": 48,
                "velocity": 51,
                "duration": 0.2023,
                "tempo": 120.0
            },
            {
                "pitch": 48,
                "velocity": 51,
                "duration": 0.1,
                "tempo": 120.0
            },
            {
                "pitch": 48,
                "velocity": 51,
                "duration": 0.1,
                "tempo": 120.0
            },
            {
                "pitch": 48,
                "velocity": 51,
                "duration": 0.2,
                "tempo": 120.0
            },
            {
                "pitch": 48,
                "velocity": 51,
                "duration": 0.0977,
                "tempo": 120.0
            },
            {
                "pitch": 48,
                "velocity": 51,
                "duration": 0.1,
                "tempo": 120.0
            },
            {
                "pitch": 48,
                "velocity": 51,
                "duration": 0.2023,
                "tempo": 120.0
            },
            {
                "pitch": 47,
                "velocity": 51,
                "duration": 0.1,
                "tempo": 120.0
            },
            {
                "pitch": 47,
                "velocity": 51,
                "duration": 0.1,
                "tempo": 120.0
            },
            {
                "pitch": 47,
                "velocity": 51,
                "duration": 0.1977,
                "tempo": 120.0
            },
            {
                "pitch": 47,
                "velocity": 51,
                "duration": 0.0977,
                "tempo": 120.0
            },
            {
                "pitch": 47,
                "velocity": 51,
                "duration": 0.1,
                "tempo": 120.0
            },
            {
                "pitch": 47,
                "velocity": 51,
                "duration": 0.2,
                "tempo": 120.0
            },
            {
                "pitch": 47,
                "velocity": 51,
                "duration": 0.0977,
                "tempo": 120.0
            },
            {
                "pitch": 47,
                "velocity": 51,
                "duration": 0.1,
                "tempo": 120.0
            },
            {
                "pitch": 47,
                "velocity": 51,
                "duration": 0.2023,
                "tempo": 120.0
            },
            {
                "pitch": 47,
                "velocity": 51,
                "duration": 0.1,
                "tempo": 120.0
            },
            {
                "pitch": 47,
                "velocity": 51,
                "duration": 0.1,
                "tempo": 120.0
            },
            {
                "pitch": 47,
                "velocity": 51,
                "duration": 0.2,
                "tempo": 120.0
            },
            {
                "pitch": 47,
                "velocity": 51,
                "duration": 0.0977,
                "tempo": 120.0
            },
            {
                "pitch": 47,
                "velocity": 51,
                "duration": 0.1,
                "tempo": 120.0
            },
            {
                "pitch": 48,
                "velocity": 51,
                "duration": 0.2,
                "tempo": 120.0
            },
            {
                "pitch": 48,
                "velocity": 51,
                "duration": 0.1,
                "tempo": 120.0
            },
            {
                "pitch": 48,
                "velocity": 51,
                "duration": 0.1,
                "tempo": 120.0
            },
            {
                "pitch": 48,
                "velocity": 51,
                "duration": 0.1977,
                "tempo": 120.0
            },
            {
                "pitch": 48,
                "velocity": 51,
                "duration": 0.0977,
                "tempo": 120.0
            },
            {
                "pitch": 48,
                "velocity": 51,
                "duration": 0.1,
                "tempo": 120.0
            },
            {
                "pitch": 48,
                "velocity": 51,
                "duration": 0.2,
                "tempo": 120.0
            },
            {
                "pitch": 48,
                "velocity": 51,
                "duration": 0.1,
                "tempo": 120.0
            },
            {
                "pitch": 48,
                "velocity": 51,
                "duration": 0.1,
                "tempo": 120.0
            },
            {
                "pitch": 48,
                "velocity": 51,
                "duration": 0.2,
                "tempo": 120.0
            },
            {
                "pitch": 50,
                "velocity": 51,
                "duration": 0.1,
                "tempo": 120.0
            },
            {
                "pitch": 50,
                "velocity": 51,
                "duration": 0.1,
                "tempo": 120.0
            },
            {
                "pitch": 50,
                "velocity": 51,
                "duration": 0.2,
                "tempo": 120.0
            },
            {
                "pitch": 50,
                "velocity": 51,
                "duration": 0.1,
                "tempo": 120.0
            },
            {
                "pitch": 50,
                "velocity": 51,
                "duration": 0.0977,
                "tempo": 120.0
            },
            {
                "pitch": 50,
                "velocity": 51,
                "duration": 0.2045,
                "tempo": 120.0
            },
            {
                "pitch": 47,
                "velocity": 51,
                "duration": 0.1023,
                "tempo": 120.0
            },
            {
                "pitch": 47,
                "velocity": 51,
                "duration": 0.1023,
                "tempo": 120.0
            },
            {
                "pitch": 47,
                "velocity": 51,
                "duration": 0.1977,
                "tempo": 120.0
            },
            {
                "pitch": 47,
                "velocity": 51,
                "duration": 0.0977,
                "tempo": 120.0
            },
            {
                "pitch": 47,
                "velocity": 51,
                "duration": 0.0977,
                "tempo": 120.0
            },
            {
                "pitch": 47,
                "velocity": 51,
                "duration": 0.2045,
                "tempo": 120.0
            },
            {
                "pitch": 47,
                "velocity": 51,
                "duration": 0.1023,
                "tempo": 120.0
            },
            {
                "pitch": 47,
                "velocity": 51,
                "duration": 0.1023,
                "tempo": 120.0
            },
            {
                "pitch": 45,
                "velocity": 51,
                "duration": 0.2,
                "tempo": 120.0
            },
            {
                "pitch": 45,
                "velocity": 51,
                "duration": 0.1,
                "tempo": 120.0
            },
            {
                "pitch": 45,
                "velocity": 51,
                "duration": 0.1,
                "tempo": 120.0
            },
            {
                "pitch": 45,
                "velocity": 51,
                "duration": 0.2,
                "tempo": 120.0
            },
            {
                "pitch": 45,
                "velocity": 51,
                "duration": 0.0977,
                "tempo": 120.0
            },
            {
                "pitch": 45,
                "velocity": 51,
                "duration": 0.0977,
                "tempo": 120.0
            },
            {
                "pitch": 45,
                "velocity": 51,
                "duration": 0.1977,
                "tempo": 120.0
            },
            {
                "pitch": 45,
                "velocity": 51,
                "duration": 0.1,
                "tempo": 120.0
            },
            {
                "pitch": 45,
                "velocity": 51,
                "duration": 0.1,
                "tempo": 120.0
            },
            {
                "pitch": 45,
                "velocity": 51,
                "duration": 0.2023,
                "tempo": 120.0
            },
            {
                "pitch": 45,
                "velocity": 51,
                "duration": 0.1,
                "tempo": 120.0
            },
            {
                "pitch": 45,
                "velocity": 51,
                "duration": 0.1,
                "tempo": 120.0
            },
            {
                "pitch": 47,
                "velocity": 51,
                "duration": 0.1977,
                "tempo": 120.0
            },
            {
                "pitch": 47,
                "velocity": 51,
                "duration": 0.1,
                "tempo": 120.0
            },
            {
                "pitch": 47,
                "velocity": 51,
                "duration": 0.1,
                "tempo": 120.0
            },
            {
                "pitch": 47,
                "velocity": 51,
                "duration": 0.2,
                "tempo": 120.0
            },
            {
                "pitch": 47,
                "velocity": 51,
                "duration": 0.1,
                "tempo": 120.0
            },
            {
                "pitch": 47,
                "velocity": 51,
                "duration": 0.1,
                "tempo": 120.0
            },
            {
                "pitch": 47,
                "velocity": 51,
                "duration": 0.2,
                "tempo": 120.0
            },
            {
                "pitch": 47,
                "velocity": 51,
                "duration": 0.1,
                "tempo": 120.0
            },
            {
                "pitch": 47,
                "velocity": 51,
                "duration": 0.1,
                "tempo": 120.0
            },
            {
                "pitch": 47,
                "velocity": 51,
                "duration": 0.1977,
                "tempo": 120.0
            },
            {
                "pitch": 47,
                "velocity": 51,
                "duration": 0.0977,
                "tempo": 120.0
            },
            {
                "pitch": 47,
                "velocity": 51,
                "duration": 0.0977,
                "tempo": 120.0
            },
            {
                "pitch": 48,
                "velocity": 51,
                "duration": 0.2,
                "tempo": 120.0
            },
            {
                "pitch": 48,
                "velocity": 51,
                "duration": 0.1,
                "tempo": 120.0
            },
            {
                "pitch": 48,
                "velocity": 51,
                "duration": 0.1023,
                "tempo": 120.0
            },
            {
                "pitch": 48,
                "velocity": 51,
                "duration": 0.2,
                "tempo": 120.0
            },
            {
                "pitch": 48,
                "velocity": 51,
                "duration": 0.1,
                "tempo": 120.0
            },
            {
                "pitch": 48,
                "velocity": 51,
                "duration": 0.1,
                "tempo": 120.0
            },
            {
                "pitch": 48,
                "velocity": 51,
                "duration": 0.2023,
                "tempo": 120.0
            },
            {
                "pitch": 48,
                "velocity": 51,
                "duration": 0.1,
                "tempo": 120.0
            },
            {
                "pitch": 48,
                "velocity": 51,
                "duration": 0.1,
                "tempo": 120.0
            },
            {
                "pitch": 48,
                "velocity": 51,
                "duration": 0.2023,
                "tempo": 120.0
            },
            {
                "pitch": 48,
                "velocity": 51,
                "duration": 0.0977,
                "tempo": 120.0
            },
            {
                "pitch": 48,
                "velocity": 51,
                "duration": 0.1,
                "tempo": 120.0
            },
            {
                "pitch": 50,
                "velocity": 51,
                "duration": 0.2,
                "tempo": 120.0
            },
            {
                "pitch": 50,
                "velocity": 51,
                "duration": 0.1,
                "tempo": 120.0
            },
            {
                "pitch": 50,
                "velocity": 51,
                "duration": 0.1,
                "tempo": 120.0
            },
            {
                "pitch": 50,
                "velocity": 51,
                "duration": 0.2023,
                "tempo": 120.0
            },
            {
                "pitch": 50,
                "velocity": 51,
                "duration": 0.1,
                "tempo": 120.0
            },
            {
                "pitch": 50,
                "velocity": 51,
                "duration": 0.1,
                "tempo": 120.0
            },
            {
                "pitch": 50,
                "velocity": 51,
                "duration": 0.2,
                "tempo": 120.0
            },
            {
                "pitch": 50,
                "velocity": 51,
                "duration": 0.0977,
                "tempo": 120.0
            },
            {
                "pitch": 50,
                "velocity": 51,
                "duration": 0.0977,
                "tempo": 120.0
            },
            {
                "pitch": 50,
                "velocity": 51,
                "duration": 0.2045,
                "tempo": 120.0
            },
            {
                "pitch": 50,
                "velocity": 51,
                "duration": 0.1023,
                "tempo": 120.0
            },
            {
                "pitch": 50,
                "velocity": 51,
                "duration": 0.1045,
                "tempo": 120.0
            },
            {
                "pitch": 48,
                "velocity": 51,
                "duration": 0.2,
                "tempo": 120.0
            },
            {
                "pitch": 48,
                "velocity": 51,
                "duration": 0.1,
                "tempo": 120.0
            },
            {
                "pitch": 48,
                "velocity": 51,
                "duration": 0.1,
                "tempo": 120.0
            },
            {
                "pitch": 48,
                "velocity": 51,
                "duration": 0.1955,
                "tempo": 120.0
            },
            {
                "pitch": 48,
                "velocity": 51,
                "duration": 0.0955,
                "tempo": 120.0
            },
            {
                "pitch": 48,
                "velocity": 51,
                "duration": 0.0955,
                "tempo": 120.0
            },
            {
                "pitch": 48,
                "velocity": 51,
                "duration": 0.2,
                "tempo": 120.0
            },
            {
                "pitch": 48,
                "velocity": 51,
                "duration": 0.0977,
                "tempo": 120.0
            },
            {
                "pitch": 48,
                "velocity": 51,
                "duration": 0.1,
                "tempo": 120.0
            },
            {
                "pitch": 48,
                "velocity": 51,
                "duration": 0.2068,
                "tempo": 120.0
            },
            {
                "pitch": 47,
                "velocity": 51,
                "duration": 0.1023,
                "tempo": 120.0
            },
            {
                "pitch": 47,
                "velocity": 51,
                "duration": 0.1023,
                "tempo": 120.0
            },
            {
                "pitch": 47,
                "velocity": 51,
                "duration": 0.2,
                "tempo": 120.0
            },
            {
                "pitch": 47,
                "velocity": 51,
                "duration": 0.0977,
                "tempo": 120.0
            },
            {
                "pitch": 47,
                "velocity": 51,
                "duration": 0.0977,
                "tempo": 120.0
            },
            {
                "pitch": 47,
                "velocity": 51,
                "duration": 0.2,
                "tempo": 120.0
            },
            {
                "pitch": 47,
                "velocity": 51,
                "duration": 0.1,
                "tempo": 120.0
            },
            {
                "pitch": 47,
                "velocity": 51,
                "duration": 0.1,
                "tempo": 120.0
            },
            {
                "pitch": 47,
                "velocity": 51,
                "duration": 0.2,
                "tempo": 120.0
            },
            {
                "pitch": 47,
                "velocity": 51,
                "duration": 0.1,
                "tempo": 120.0
            },
            {
                "pitch": 47,
                "velocity": 51,
                "duration": 0.1,
                "tempo": 120.0
            },
            {
                "pitch": 47,
                "velocity": 51,
                "duration": 0.2,
                "tempo": 120.0
            },
            {
                "pitch": 47,
                "velocity": 51,
                "duration": 0.0977,
                "tempo": 120.0
            },
            {
                "pitch": 47,
                "velocity": 51,
                "duration": 0.1,
                "tempo": 120.0
            },
            {
                "pitch": 48,
                "velocity": 51,
                "duration": 0.2,
                "tempo": 120.0
            },
            {
                "pitch": 48,
                "velocity": 51,
                "duration": 0.1,
                "tempo": 120.0
            },
            {
                "pitch": 48,
                "velocity": 51,
                "duration": 0.1,
                "tempo": 120.0
            },
            {
                "pitch": 48,
                "velocity": 51,
                "duration": 0.2,
                "tempo": 120.0
            },
            {
                "pitch": 48,
                "velocity": 51,
                "duration": 0.1,
                "tempo": 120.0
            },
            {
                "pitch": 48,
                "velocity": 51,
                "duration": 0.1,
                "tempo": 120.0
            },
            {
                "pitch": 48,
                "velocity": 51,
                "duration": 0.2023,
                "tempo": 120.0
            },
            {
                "pitch": 48,
                "velocity": 51,
                "duration": 0.1,
                "tempo": 120.0
            },
            {
                "pitch": 48,
                "velocity": 51,
                "duration": 0.1,
                "tempo": 120.0
            },
            {
                "pitch": 48,
                "velocity": 51,
                "duration": 0.2023,
                "tempo": 120.0
            },
            {
                "pitch": 50,
                "velocity": 51,
                "duration": 0.0977,
                "tempo": 120.0
            },
            {
                "pitch": 50,
                "velocity": 51,
                "duration": 0.0977,
                "tempo": 120.0
            },
            {
                "pitch": 50,
                "velocity": 51,
                "duration": 0.2,
                "tempo": 120.0
            },
            {
                "pitch": 50,
                "velocity": 51,
                "duration": 0.1,
                "tempo": 120.0
            },
            {
                "pitch": 50,
                "velocity": 51,
                "duration": 0.1,
                "tempo": 120.0
            },
            {
                "pitch": 50,
                "velocity": 51,
                "duration": 0.2,
                "tempo": 120.0
            },
            {
                "pitch": 47,
                "velocity": 51,
                "duration": 0.1,
                "tempo": 120.0
            },
            {
                "pitch": 47,
                "velocity": 51,
                "duration": 0.1,
                "tempo": 120.0
            },
            {
                "pitch": 47,
                "velocity": 51,
                "duration": 0.2,
                "tempo": 120.0
            },
            {
                "pitch": 47,
                "velocity": 51,
                "duration": 0.0977,
                "tempo": 120.0
            },
            {
                "pitch": 47,
                "velocity": 51,
                "duration": 0.0977,
                "tempo": 120.0
            },
            {
                "pitch": 47,
                "velocity": 51,
                "duration": 0.2,
                "tempo": 120.0
            },
            {
                "pitch": 47,
                "velocity": 51,
                "duration": 0.0977,
                "tempo": 120.0
            },
            {
                "pitch": 47,
                "velocity": 51,
                "duration": 0.1,
                "tempo": 120.0
            },
            {
                "pitch": 45,
                "velocity": 51,
                "duration": 0.2,
                "tempo": 120.0
            },
            {
                "pitch": 45,
                "velocity": 51,
                "duration": 0.1,
                "tempo": 120.0
            },
            {
                "pitch": 45,
                "velocity": 51,
                "duration": 0.1,
                "tempo": 120.0
            },
            {
                "pitch": 45,
                "velocity": 51,
                "duration": 0.2,
                "tempo": 120.0
            },
            {
                "pitch": 45,
                "velocity": 51,
                "duration": 0.1,
                "tempo": 120.0
            },
            {
                "pitch": 45,
                "velocity": 51,
                "duration": 0.1,
                "tempo": 120.0
            },
            {
                "pitch": 45,
                "velocity": 51,
                "duration": 0.2,
                "tempo": 120.0
            },
            {
                "pitch": 45,
                "velocity": 51,
                "duration": 0.1,
                "tempo": 120.0
            },
            {
                "pitch": 45,
                "velocity": 51,
                "duration": 0.1,
                "tempo": 120.0
            },
            {
                "pitch": 45,
                "velocity": 51,
                "duration": 0.2,
                "tempo": 120.0
            },
            {
                "pitch": 45,
                "velocity": 51,
                "duration": 0.0977,
                "tempo": 120.0
            },
            {
                "pitch": 45,
                "velocity": 51,
                "duration": 0.1,
                "tempo": 120.0
            },
            {
                "pitch": 47,
                "velocity": 51,
                "duration": 0.2045,
                "tempo": 120.0
            },
            {
                "pitch": 47,
                "velocity": 51,
                "duration": 0.1023,
                "tempo": 120.0
            },
            {
                "pitch": 47,
                "velocity": 51,
                "duration": 0.1023,
                "tempo": 120.0
            },
            {
                "pitch": 47,
                "velocity": 51,
                "duration": 0.2,
                "tempo": 120.0
            },
            {
                "pitch": 47,
                "velocity": 51,
                "duration": 0.1,
                "tempo": 120.0
            },
            {
                "pitch": 47,
                "velocity": 51,
                "duration": 0.1,
                "tempo": 120.0
            },
            {
                "pitch": 47,
                "velocity": 51,
                "duration": 0.1955,
                "tempo": 120.0
            },
            {
                "pitch": 47,
                "velocity": 51,
                "duration": 0.0977,
                "tempo": 120.0
            },
            {
                "pitch": 47,
                "velocity": 51,
                "duration": 0.0977,
                "tempo": 120.0
            },
            {
                "pitch": 47,
                "velocity": 51,
                "duration": 0.2045,
                "tempo": 120.0
            },
            {
                "pitch": 47,
                "velocity": 51,
                "duration": 0.1023,
                "tempo": 120.0
            },
            {
                "pitch": 47,
                "velocity": 51,
                "duration": 0.1023,
                "tempo": 120.0
            },
            {
                "pitch": 48,
                "velocity": 51,
                "duration": 0.2,
                "tempo": 120.0
            },
            {
                "pitch": 48,
                "velocity": 51,
                "duration": 0.1,
                "tempo": 120.0
            },
            {
                "pitch": 48,
                "velocity": 51,
                "duration": 0.1,
                "tempo": 120.0
            },
            {
                "pitch": 48,
                "velocity": 51,
                "duration": 0.2,
                "tempo": 120.0
            },
            {
                "pitch": 48,
                "velocity": 51,
                "duration": 0.1,
                "tempo": 120.0
            },
            {
                "pitch": 48,
                "velocity": 51,
                "duration": 0.1,
                "tempo": 120.0
            },
            {
                "pitch": 48,
                "velocity": 51,
                "duration": 0.2,
                "tempo": 120.0
            },
            {
                "pitch": 48,
                "velocity": 51,
                "duration": 0.0977,
                "tempo": 120.0
            },
            {
                "pitch": 48,
                "velocity": 51,
                "duration": 0.0977,
                "tempo": 120.0
            },
            {
                "pitch": 48,
                "velocity": 51,
                "duration": 0.2,
                "tempo": 120.0
            },
            {
                "pitch": 48,
                "velocity": 51,
                "duration": 0.1,
                "tempo": 120.0
            },
            {
                "pitch": 48,
                "velocity": 51,
                "duration": 0.1,
                "tempo": 120.0
            },
            {
                "pitch": 48,
                "velocity": 51,
                "duration": 0.2,
                "tempo": 120.0
            },
            {
                "pitch": 48,
                "velocity": 51,
                "duration": 0.1,
                "tempo": 120.0
            },
            {
                "pitch": 48,
                "velocity": 51,
                "duration": 0.1,
                "tempo": 120.0
            },
            {
                "pitch": 48,
                "velocity": 51,
                "duration": 0.2,
                "tempo": 120.0
            },
            {
                "pitch": 48,
                "velocity": 51,
                "duration": 0.1,
                "tempo": 120.0
            },
            {
                "pitch": 48,
                "velocity": 51,
                "duration": 0.1,
                "tempo": 120.0
            },
            {
                "pitch": 48,
                "velocity": 51,
                "duration": 0.1977,
                "tempo": 120.0
            },
            {
                "pitch": 48,
                "velocity": 51,
                "duration": 0.1,
                "tempo": 120.0
            },
            {
                "pitch": 48,
                "velocity": 51,
                "duration": 0.1,
                "tempo": 120.0
            },
            {
                "pitch": 47,
                "velocity": 51,
                "duration": 0.2,
                "tempo": 120.0
            },
            {
                "pitch": 47,
                "velocity": 51,
                "duration": 0.1,
                "tempo": 120.0
            },
            {
                "pitch": 47,
                "velocity": 51,
                "duration": 0.1,
                "tempo": 120.0
            },
            {
                "pitch": 45,
                "velocity": 51,
                "duration": 0.2,
                "tempo": 120.0
            },
            {
                "pitch": 45,
                "velocity": 51,
                "duration": 0.1,
                "tempo": 120.0
            },
            {
                "pitch": 45,
                "velocity": 51,
                "duration": 0.1,
                "tempo": 120.0
            },
            {
                "pitch": 45,
                "velocity": 51,
                "duration": 0.2023,
                "tempo": 120.0
            },
            {
                "pitch": 45,
                "velocity": 51,
                "duration": 0.1,
                "tempo": 120.0
            },
            {
                "pitch": 45,
                "velocity": 51,
                "duration": 0.1,
                "tempo": 120.0
            },
            {
                "pitch": 45,
                "velocity": 51,
                "duration": 0.1977,
                "tempo": 120.0
            },
            {
                "pitch": 45,
                "velocity": 51,
                "duration": 0.0977,
                "tempo": 120.0
            },
            {
                "pitch": 45,
                "velocity": 51,
                "duration": 0.0977,
                "tempo": 120.0
            },
            {
                "pitch": 45,
                "velocity": 51,
                "duration": 0.2,
                "tempo": 120.0
            },
            {
                "pitch": 45,
                "velocity": 51,
                "duration": 0.1,
                "tempo": 120.0
            },
            {
                "pitch": 45,
                "velocity": 51,
                "duration": 0.1,
                "tempo": 120.0
            },
            {
                "pitch": 46,
                "velocity": 51,
                "duration": 0.2,
                "tempo": 120.0
            },
            {
                "pitch": 46,
                "velocity": 51,
                "duration": 0.1,
                "tempo": 120.0
            },
            {
                "pitch": 46,
                "velocity": 51,
                "duration": 0.1,
                "tempo": 120.0
            },
            {
                "pitch": 46,
                "velocity": 51,
                "duration": 0.1977,
                "tempo": 120.0
            },
            {
                "pitch": 46,
                "velocity": 51,
                "duration": 0.1,
                "tempo": 120.0
            },
            {
                "pitch": 46,
                "velocity": 51,
                "duration": 0.1,
                "tempo": 120.0
            },
            {
                "pitch": 46,
                "velocity": 51,
                "duration": 0.2,
                "tempo": 120.0
            },
            {
                "pitch": 46,
                "velocity": 51,
                "duration": 0.1,
                "tempo": 120.0
            },
            {
                "pitch": 46,
                "velocity": 51,
                "duration": 0.1,
                "tempo": 120.0
            },
            {
                "pitch": 46,
                "velocity": 51,
                "duration": 0.2045,
                "tempo": 120.0
            },
            {
                "pitch": 46,
                "velocity": 51,
                "duration": 0.1023,
                "tempo": 120.0
            },
            {
                "pitch": 46,
                "velocity": 51,
                "duration": 0.1023,
                "tempo": 120.0
            },
            {
                "pitch": 45,
                "velocity": 51,
                "duration": 0.2,
                "tempo": 120.0
            },
            {
                "pitch": 45,
                "velocity": 51,
                "duration": 0.1,
                "tempo": 120.0
            },
            {
                "pitch": 45,
                "velocity": 51,
                "duration": 0.1,
                "tempo": 120.0
            },
            {
                "pitch": 45,
                "velocity": 51,
                "duration": 0.2023,
                "tempo": 120.0
            },
            {
                "pitch": 45,
                "velocity": 51,
                "duration": 0.1,
                "tempo": 120.0
            },
            {
                "pitch": 45,
                "velocity": 51,
                "duration": 0.1,
                "tempo": 120.0
            },
            {
                "pitch": 45,
                "velocity": 51,
                "duration": 0.1977,
                "tempo": 120.0
            },
            {
                "pitch": 45,
                "velocity": 51,
                "duration": 0.0977,
                "tempo": 120.0
            },
            {
                "pitch": 45,
                "velocity": 51,
                "duration": 0.1,
                "tempo": 120.0
            },
            {
                "pitch": 45,
                "velocity": 51,
                "duration": 0.2,
                "tempo": 120.0
            },
            {
                "pitch": 45,
                "velocity": 51,
                "duration": 0.1,
                "tempo": 120.0
            },
            {
                "pitch": 45,
                "velocity": 51,
                "duration": 0.1,
                "tempo": 120.0
            },
            {
                "pitch": 46,
                "velocity": 51,
                "duration": 0.1977,
                "tempo": 120.0
            },
            {
                "pitch": 46,
                "velocity": 51,
                "duration": 0.1,
                "tempo": 120.0
            },
            {
                "pitch": 46,
                "velocity": 51,
                "duration": 0.1,
                "tempo": 120.0
            },
            {
                "pitch": 46,
                "velocity": 51,
                "duration": 0.1977,
                "tempo": 120.0
            },
            {
                "pitch": 46,
                "velocity": 51,
                "duration": 0.1,
                "tempo": 120.0
            },
            {
                "pitch": 46,
                "velocity": 51,
                "duration": 0.0977,
                "tempo": 120.0
            },
            {
                "pitch": 46,
                "velocity": 51,
                "duration": 0.2,
                "tempo": 120.0
            },
            {
                "pitch": 46,
                "velocity": 51,
                "duration": 0.1,
                "tempo": 120.0
            },
            {
                "pitch": 46,
                "velocity": 51,
                "duration": 0.1,
                "tempo": 120.0
            },
            {
                "pitch": 46,
                "velocity": 51,
                "duration": 0.2,
                "tempo": 120.0
            },
            {
                "pitch": 46,
                "velocity": 51,
                "duration": 0.1,
                "tempo": 120.0
            },
            {
                "pitch": 46,
                "velocity": 51,
                "duration": 0.1,
                "tempo": 120.0
            },
            {
                "pitch": 46,
                "velocity": 51,
                "duration": 0.1977,
                "tempo": 120.0
            },
            {
                "pitch": 46,
                "velocity": 51,
                "duration": 0.1,
                "tempo": 120.0
            },
            {
                "pitch": 46,
                "velocity": 51,
                "duration": 0.1,
                "tempo": 120.0
            },
            {
                "pitch": 46,
                "velocity": 51,
                "duration": 0.2,
                "tempo": 120.0
            },
            {
                "pitch": 46,
                "velocity": 51,
                "duration": 0.0977,
                "tempo": 120.0
            },
            {
                "pitch": 46,
                "velocity": 51,
                "duration": 0.0977,
                "tempo": 120.0
            },
            {
                "pitch": 46,
                "velocity": 51,
                "duration": 0.1977,
                "tempo": 120.0
            },
            {
                "pitch": 46,
                "velocity": 51,
                "duration": 0.0977,
                "tempo": 120.0
            },
            {
                "pitch": 46,
                "velocity": 51,
                "duration": 0.0977,
                "tempo": 120.0
            },
            {
                "pitch": 46,
                "velocity": 51,
                "duration": 0.2023,
                "tempo": 120.0
            },
            {
                "pitch": 46,
                "velocity": 51,
                "duration": 0.1,
                "tempo": 120.0
            },
            {
                "pitch": 46,
                "velocity": 51,
                "duration": 0.1,
                "tempo": 120.0
            },
            {
                "pitch": 43,
                "velocity": 51,
                "duration": 0.1977,
                "tempo": 120.0
            },
            {
                "pitch": 43,
                "velocity": 51,
                "duration": 0.1,
                "tempo": 120.0
            },
            {
                "pitch": 43,
                "velocity": 51,
                "duration": 0.1,
                "tempo": 120.0
            },
            {
                "pitch": 43,
                "velocity": 51,
                "duration": 0.1977,
                "tempo": 120.0
            },
            {
                "pitch": 43,
                "velocity": 51,
                "duration": 0.0977,
                "tempo": 120.0
            },
            {
                "pitch": 43,
                "velocity": 51,
                "duration": 0.1,
                "tempo": 120.0
            },
            {
                "pitch": 43,
                "velocity": 51,
                "duration": 0.2,
                "tempo": 120.0
            },
            {
                "pitch": 43,
                "velocity": 51,
                "duration": 0.1,
                "tempo": 120.0
            },
            {
                "pitch": 43,
                "velocity": 51,
                "duration": 0.1,
                "tempo": 120.0
            },
            {
                "pitch": 43,
                "velocity": 51,
                "duration": 0.2,
                "tempo": 120.0
            },
            {
                "pitch": 43,
                "velocity": 51,
                "duration": 0.1,
                "tempo": 120.0
            },
            {
                "pitch": 43,
                "velocity": 51,
                "duration": 0.1,
                "tempo": 120.0
            },
            {
                "pitch": 45,
                "velocity": 51,
                "duration": 0.2,
                "tempo": 120.0
            },
            {
                "pitch": 45,
                "velocity": 51,
                "duration": 0.1,
                "tempo": 120.0
            },
            {
                "pitch": 45,
                "velocity": 51,
                "duration": 0.1,
                "tempo": 120.0
            },
            {
                "pitch": 45,
                "velocity": 51,
                "duration": 0.1977,
                "tempo": 120.0
            },
            {
                "pitch": 45,
                "velocity": 51,
                "duration": 0.0977,
                "tempo": 120.0
            },
            {
                "pitch": 45,
                "velocity": 51,
                "duration": 0.1,
                "tempo": 120.0
            },
            {
                "pitch": 45,
                "velocity": 51,
                "duration": 0.2,
                "tempo": 120.0
            },
            {
                "pitch": 45,
                "velocity": 51,
                "duration": 0.1,
                "tempo": 120.0
            },
            {
                "pitch": 45,
                "velocity": 51,
                "duration": 0.1,
                "tempo": 120.0
            },
            {
                "pitch": 45,
                "velocity": 51,
                "duration": 0.2,
                "tempo": 120.0
            },
            {
                "pitch": 45,
                "velocity": 51,
                "duration": 0.0977,
                "tempo": 120.0
            },
            {
                "pitch": 45,
                "velocity": 51,
                "duration": 0.0977,
                "tempo": 120.0
            },
            {
                "pitch": 44,
                "velocity": 51,
                "duration": 0.2023,
                "tempo": 120.0
            },
            {
                "pitch": 44,
                "velocity": 51,
                "duration": 0.1023,
                "tempo": 120.0
            },
            {
                "pitch": 44,
                "velocity": 51,
                "duration": 0.1023,
                "tempo": 120.0
            },
            {
                "pitch": 44,
                "velocity": 51,
                "duration": 0.2,
                "tempo": 120.0
            },
            {
                "pitch": 44,
                "velocity": 51,
                "duration": 0.1,
                "tempo": 120.0
            },
            {
                "pitch": 44,
                "velocity": 51,
                "duration": 0.0977,
                "tempo": 120.0
            },
            {
                "pitch": 44,
                "velocity": 51,
                "duration": 0.2,
                "tempo": 120.0
            },
            {
                "pitch": 44,
                "velocity": 51,
                "duration": 0.1,
                "tempo": 120.0
            },
            {
                "pitch": 44,
                "velocity": 51,
                "duration": 0.1,
                "tempo": 120.0
            },
            {
                "pitch": 44,
                "velocity": 51,
                "duration": 0.2,
                "tempo": 120.0
            },
            {
                "pitch": 44,
                "velocity": 51,
                "duration": 0.1,
                "tempo": 120.0
            },
            {
                "pitch": 44,
                "velocity": 51,
                "duration": 0.1,
                "tempo": 120.0
            }
        ]
    }
}