{
    "track_id": "09 Neargead Castle",
    "mood": "sad",
    "instruments": {
        "Flute": [
            {
                "pitch": 74,
                "velocity": 40,
                "duration": 1.9818,
                "tempo": 120.0
            },
            {
                "pitch": 76,
                "velocity": 40,
                "duration": 1.9841,
                "tempo": 120.0
            },
            {
                "pitch": 82,
                "velocity": 40,
                "duration": 6.1818,
                "tempo": 120.0
            },
            {
                "pitch": 86,
                "velocity": 40,
                "duration": 1.9818,
                "tempo": 120.0
            },
            {
                "pitch": 86,
                "velocity": 40,
                "duration": 2.0,
                "tempo": 120.0
            },
            {
                "pitch": 79,
                "velocity": 40,
                "duration": 6.2023,
                "tempo": 120.0
            },
            {
                "pitch": 89,
                "velocity": 40,
                "duration": 1.9818,
                "tempo": 120.0
            },
            {
                "pitch": 89,
                "velocity": 40,
                "duration": 1.9818,
                "tempo": 120.0
            },
            {
                "pitch": 90,
                "velocity": 40,
                "duration": 20.925,
                "tempo": 120.0
            },
            {
                "pitch": 82,
                "velocity": 40,
                "duration": 2.8659,
                "tempo": 120.0
            },
            {
                "pitch": 82,
                "velocity": 40,
                "duration": 18.1932,
                "tempo": 120.0
            },
            {
                "pitch": 76,
                "velocity": 40,
                "duration": 1.2477,
                "tempo": 120.0
            },
            {
                "pitch": 74,
                "velocity": 40,
                "duration": 73.5523,
                "tempo": 120.0
            },
            {
                "pitch": 74,
                "velocity": 40,
                "duration": 1.2386,
                "tempo": 120.0
            },
            {
                "pitch": 69,
                "velocity": 40,
                "duration": 1.2455,
                "tempo": 120.0
            },
            {
                "pitch": 66,
                "velocity": 40,
                "duration": 1.8818,
                "tempo": 120.0
            },
            {
                "pitch": 88,
                "velocity": 40,
                "duration": 78.7523,
                "tempo": 120.0
            },
            {
                "pitch": 88,
                "velocity": 40,
                "duration": 0.4659,
                "tempo": 120.0
            },
            {
                "pitch": 86,
                "velocity": 40,
                "duration": 0.4659,
                "tempo": 120.0
            },
            {
                "pitch": 81,
                "velocity": 40,
                "duration": 0.4727,
                "tempo": 120.0
            },
            {
                "pitch": 81,
                "velocity": 40,
                "duration": 2.025,
                "tempo": 120.0
            },
            {
                "pitch": 71,
                "velocity": 40,
                "duration": 0.5841,
                "tempo": 120.0
            },
            {
                "pitch": 72,
                "velocity": 40,
                "duration": 0.5955,
                "tempo": 120.0
            },
            {
                "pitch": 74,
                "velocity": 40,
                "duration": 1.2409,
                "tempo": 120.0
            },
            {
                "pitch": 77,
                "velocity": 40,
                "duration": 37.75,
                "tempo": 120.0
            },
            {
                "pitch": 71,
                "velocity": 40,
                "duration": 1.2386,
                "tempo": 120.0
            },
            {
                "pitch": 71,
                "velocity": 40,
                "duration": 1.6455,
                "tempo": 120.0
            },
            {
                "pitch": 76,
                "velocity": 40,
                "duration": 57.075,
                "tempo": 120.0
            },
            {
                "pitch": 76,
                "velocity": 40,
                "duration": 1.5068,
                "tempo": 120.0
            },
            {
                "pitch": 74,
                "velocity": 40,
                "duration": 3.0659,
                "tempo": 120.0
            },
            {
                "pitch": 74,
                "velocity": 40,
                "duration": 1.5091,
                "tempo": 120.0
            },
            {
                "pitch": 77,
                "velocity": 40,
                "duration": 19.6318,
                "tempo": 120.0
            },
            {
                "pitch": 69,
                "velocity": 40,
                "duration": 0.9886,
                "tempo": 120.0
            },
            {
                "pitch": 71,
                "velocity": 40,
                "duration": 2.0341,
                "tempo": 120.0
            }
        ],
        "Acoustic Guitar (nylon)": [
            {
                "pitch": 33,
                "velocity": 101,
                "duration": 0.0386,
                "tempo": 120.0
            },
            {
                "pitch": 30,
                "velocity": 101,
                "duration": 0.0409,
                "tempo": 120.0
            },
            {
                "pitch": 27,
                "velocity": 101,
                "duration": 0.0205,
                "tempo": 120.0
            },
            {
                "pitch": 33,
                "velocity": 51,
                "duration": 0.0386,
                "tempo": 120.0
            },
            {
                "pitch": 30,
                "velocity": 51,
                "duration": 0.0409,
                "tempo": 120.0
            },
            {
                "pitch": 27,
                "velocity": 51,
                "duration": 0.0205,
                "tempo": 120.0
            },
            {
                "pitch": 33,
                "velocity": 101,
                "duration": 0.0409,
                "tempo": 120.0
            },
            {
                "pitch": 30,
                "velocity": 101,
                "duration": 0.0409,
                "tempo": 120.0
            },
            {
                "pitch": 27,
                "velocity": 101,
                "duration": 0.0227,
                "tempo": 120.0
            },
            {
                "pitch": 40,
                "velocity": 51,
                "duration": 1.6318,
                "tempo": 120.0
            },
            {
                "pitch": 33,
                "velocity": 51,
                "duration": 0.0409,
                "tempo": 120.0
            },
            {
                "pitch": 30,
                "velocity": 51,
                "duration": 0.0432,
                "tempo": 120.0
            },
            {
                "pitch": 27,
                "velocity": 51,
                "duration": 0.0205,
                "tempo": 120.0
            },
            {
                "pitch": 37,
                "velocity": 101,
                "duration": 1.6545,
                "tempo": 120.0
            },
            {
                "pitch": 33,
                "velocity": 101,
                "duration": 0.0409,
                "tempo": 120.0
            },
            {
                "pitch": 30,
                "velocity": 101,
                "duration": 0.0409,
                "tempo": 120.0
            },
            {
                "pitch": 27,
                "velocity": 101,
                "duration": 0.0205,
                "tempo": 120.0
            },
            {
                "pitch": 40,
                "velocity": 51,
                "duration": 1.6386,
                "tempo": 120.0
            },
            {
                "pitch": 33,
                "velocity": 51,
                "duration": 0.0409,
                "tempo": 120.0
            },
            {
                "pitch": 30,
                "velocity": 51,
                "duration": 0.0432,
                "tempo": 120.0
            },
            {
                "pitch": 27,
                "velocity": 51,
                "duration": 0.0205,
                "tempo": 120.0
            },
            {
                "pitch": 37,
                "velocity": 101,
                "duration": 1.6477,
                "tempo": 120.0
            },
            {
                "pitch": 37,
                "velocity": 101,
                "duration": 0.0023,
                "tempo": 120.0
            },
            {
                "pitch": 33,
                "velocity": 101,
                "duration": 0.0386,
                "tempo": 120.0
            },
            {
                "pitch": 30,
                "velocity": 101,
                "duration": 0.0409,
                "tempo": 120.0
            },
            {
                "pitch": 27,
                "velocity": 101,
                "duration": 0.0205,
                "tempo": 120.0
            },
            {
                "pitch": 40,
                "velocity": 51,
                "duration": 1.6318,
                "tempo": 120.0
            },
            {
                "pitch": 33,
                "velocity": 51,
                "duration": 0.0409,
                "tempo": 120.0
            },
            {
                "pitch": 30,
                "velocity": 51,
                "duration": 0.0409,
                "tempo": 120.0
            },
            {
                "pitch": 27,
                "velocity": 51,
                "duration": 0.0205,
                "tempo": 120.0
            },
            {
                "pitch": 33,
                "velocity": 101,
                "duration": 0.0386,
                "tempo": 120.0
            },
            {
                "pitch": 30,
                "velocity": 101,
                "duration": 0.0409,
                "tempo": 120.0
            },
            {
                "pitch": 27,
                "velocity": 101,
                "duration": 0.0205,
                "tempo": 120.0
            },
            {
                "pitch": 40,
                "velocity": 51,
                "duration": 1.6273,
                "tempo": 120.0
            },
            {
                "pitch": 33,
                "velocity": 51,
                "duration": 0.0409,
                "tempo": 120.0
            },
            {
                "pitch": 30,
                "velocity": 51,
                "duration": 0.0409,
                "tempo": 120.0
            },
            {
                "pitch": 27,
                "velocity": 51,
                "duration": 0.0182,
                "tempo": 120.0
            },
            {
                "pitch": 37,
                "velocity": 101,
                "duration": 1.6364,
                "tempo": 120.0
            },
            {
                "pitch": 33,
                "velocity": 101,
                "duration": 0.0409,
                "tempo": 120.0
            },
            {
                "pitch": 30,
                "velocity": 101,
                "duration": 0.0409,
                "tempo": 120.0
            },
            {
                "pitch": 27,
                "velocity": 101,
                "duration": 0.0205,
                "tempo": 120.0
            },
            {
                "pitch": 40,
                "velocity": 51,
                "duration": 1.6364,
                "tempo": 120.0
            },
            {
                "pitch": 33,
                "velocity": 51,
                "duration": 0.0409,
                "tempo": 120.0
            },
            {
                "pitch": 30,
                "velocity": 51,
                "duration": 0.0409,
                "tempo": 120.0
            },
            {
                "pitch": 27,
                "velocity": 51,
                "duration": 0.0205,
                "tempo": 120.0
            },
            {
                "pitch": 37,
                "velocity": 101,
                "duration": 1.6273,
                "tempo": 120.0
            },
            {
                "pitch": 33,
                "velocity": 101,
                "duration": 0.0409,
                "tempo": 120.0
            },
            {
                "pitch": 30,
                "velocity": 101,
                "duration": 0.0409,
                "tempo": 120.0
            },
            {
                "pitch": 27,
                "velocity": 101,
                "duration": 0.0205,
                "tempo": 120.0
            },
            {
                "pitch": 40,
                "velocity": 51,
                "duration": 1.6273,
                "tempo": 120.0
            },
            {
                "pitch": 33,
                "velocity": 51,
                "duration": 0.0409,
                "tempo": 120.0
            },
            {
                "pitch": 30,
                "velocity": 51,
                "duration": 0.0409,
                "tempo": 120.0
            },
            {
                "pitch": 27,
                "velocity": 51,
                "duration": 0.0205,
                "tempo": 120.0
            },
            {
                "pitch": 37,
                "velocity": 101,
                "duration": 1.6364,
                "tempo": 120.0
            },
            {
                "pitch": 33,
                "velocity": 101,
                "duration": 0.0409,
                "tempo": 120.0
            },
            {
                "pitch": 30,
                "velocity": 101,
                "duration": 0.0409,
                "tempo": 120.0
            },
            {
                "pitch": 27,
                "velocity": 101,
                "duration": 0.0205,
                "tempo": 120.0
            },
            {
                "pitch": 40,
                "velocity": 51,
                "duration": 1.6364,
                "tempo": 120.0
            },
            {
                "pitch": 33,
                "velocity": 51,
                "duration": 0.0409,
                "tempo": 120.0
            },
            {
                "pitch": 30,
                "velocity": 51,
                "duration": 0.0409,
                "tempo": 120.0
            },
            {
                "pitch": 27,
                "velocity": 51,
                "duration": 0.0205,
                "tempo": 120.0
            },
            {
                "pitch": 37,
                "velocity": 101,
                "duration": 1.6295,
                "tempo": 120.0
            },
            {
                "pitch": 33,
                "velocity": 101,
                "duration": 0.0386,
                "tempo": 120.0
            },
            {
                "pitch": 30,
                "velocity": 101,
                "duration": 0.0432,
                "tempo": 120.0
            },
            {
                "pitch": 27,
                "velocity": 101,
                "duration": 0.0205,
                "tempo": 120.0
            },
            {
                "pitch": 40,
                "velocity": 51,
                "duration": 1.6364,
                "tempo": 120.0
            },
            {
                "pitch": 33,
                "velocity": 51,
                "duration": 0.0409,
                "tempo": 120.0
            },
            {
                "pitch": 30,
                "velocity": 51,
                "duration": 0.0409,
                "tempo": 120.0
            },
            {
                "pitch": 27,
                "velocity": 51,
                "duration": 0.0205,
                "tempo": 120.0
            },
            {
                "pitch": 37,
                "velocity": 101,
                "duration": 1.6455,
                "tempo": 120.0
            },
            {
                "pitch": 33,
                "velocity": 101,
                "duration": 0.0386,
                "tempo": 120.0
            },
            {
                "pitch": 30,
                "velocity": 101,
                "duration": 0.0386,
                "tempo": 120.0
            },
            {
                "pitch": 27,
                "velocity": 101,
                "duration": 0.0205,
                "tempo": 120.0
            },
            {
                "pitch": 40,
                "velocity": 51,
                "duration": 1.6159,
                "tempo": 120.0
            },
            {
                "pitch": 33,
                "velocity": 51,
                "duration": 0.0409,
                "tempo": 120.0
            },
            {
                "pitch": 30,
                "velocity": 51,
                "duration": 0.0386,
                "tempo": 120.0
            },
            {
                "pitch": 27,
                "velocity": 51,
                "duration": 0.0205,
                "tempo": 120.0
            },
            {
                "pitch": 37,
                "velocity": 101,
                "duration": 1.6091,
                "tempo": 120.0
            },
            {
                "pitch": 33,
                "velocity": 101,
                "duration": 0.0409,
                "tempo": 120.0
            },
            {
                "pitch": 30,
                "velocity": 101,
                "duration": 0.0409,
                "tempo": 120.0
            },
            {
                "pitch": 27,
                "velocity": 101,
                "duration": 0.0205,
                "tempo": 120.0
            },
            {
                "pitch": 40,
                "velocity": 51,
                "duration": 1.6318,
                "tempo": 120.0
            },
            {
                "pitch": 33,
                "velocity": 51,
                "duration": 0.0409,
                "tempo": 120.0
            },
            {
                "pitch": 30,
                "velocity": 51,
                "duration": 0.0409,
                "tempo": 120.0
            },
            {
                "pitch": 27,
                "velocity": 51,
                "duration": 0.0205,
                "tempo": 120.0
            },
            {
                "pitch": 37,
                "velocity": 101,
                "duration": 1.6295,
                "tempo": 120.0
            },
            {
                "pitch": 33,
                "velocity": 101,
                "duration": 0.0386,
                "tempo": 120.0
            },
            {
                "pitch": 30,
                "velocity": 101,
                "duration": 0.0432,
                "tempo": 120.0
            },
            {
                "pitch": 27,
                "velocity": 101,
                "duration": 0.0205,
                "tempo": 120.0
            },
            {
                "pitch": 40,
                "velocity": 51,
                "duration": 1.6364,
                "tempo": 120.0
            },
            {
                "pitch": 33,
                "velocity": 51,
                "duration": 0.0409,
                "tempo": 120.0
            },
            {
                "pitch": 30,
                "velocity": 51,
                "duration": 0.0409,
                "tempo": 120.0
            },
            {
                "pitch": 27,
                "velocity": 51,
                "duration": 0.0205,
                "tempo": 120.0
            },
            {
                "pitch": 37,
                "velocity": 101,
                "duration": 1.6364,
                "tempo": 120.0
            },
            {
                "pitch": 33,
                "velocity": 101,
                "duration": 0.0386,
                "tempo": 120.0
            },
            {
                "pitch": 30,
                "velocity": 101,
                "duration": 0.0409,
                "tempo": 120.0
            },
            {
                "pitch": 27,
                "velocity": 101,
                "duration": 0.0205,
                "tempo": 120.0
            },
            {
                "pitch": 40,
                "velocity": 51,
                "duration": 1.6295,
                "tempo": 120.0
            },
            {
                "pitch": 33,
                "velocity": 51,
                "duration": 0.0409,
                "tempo": 120.0
            },
            {
                "pitch": 30,
                "velocity": 51,
                "duration": 0.0409,
                "tempo": 120.0
            },
            {
                "pitch": 27,
                "velocity": 51,
                "duration": 0.0205,
                "tempo": 120.0
            },
            {
                "pitch": 37,
                "velocity": 101,
                "duration": 1.6364,
                "tempo": 120.0
            },
            {
                "pitch": 33,
                "velocity": 101,
                "duration": 0.0409,
                "tempo": 120.0
            },
            {
                "pitch": 30,
                "velocity": 101,
                "duration": 0.0409,
                "tempo": 120.0
            },
            {
                "pitch": 27,
                "velocity": 101,
                "duration": 0.0205,
                "tempo": 120.0
            },
            {
                "pitch": 40,
                "velocity": 51,
                "duration": 1.6364,
                "tempo": 120.0
            },
            {
                "pitch": 33,
                "velocity": 51,
                "duration": 0.0409,
                "tempo": 120.0
            },
            {
                "pitch": 30,
                "velocity": 51,
                "duration": 0.0409,
                "tempo": 120.0
            },
            {
                "pitch": 27,
                "velocity": 51,
                "duration": 0.0205,
                "tempo": 120.0
            },
            {
                "pitch": 37,
                "velocity": 101,
                "duration": 1.6091,
                "tempo": 120.0
            },
            {
                "pitch": 33,
                "velocity": 101,
                "duration": 0.0409,
                "tempo": 120.0
            },
            {
                "pitch": 30,
                "velocity": 101,
                "duration": 0.0409,
                "tempo": 120.0
            },
            {
                "pitch": 27,
                "velocity": 101,
                "duration": 0.0205,
                "tempo": 120.0
            },
            {
                "pitch": 40,
                "velocity": 51,
                "duration": 1.6182,
                "tempo": 120.0
            },
            {
                "pitch": 33,
                "velocity": 51,
                "duration": 0.0409,
                "tempo": 120.0
            },
            {
                "pitch": 30,
                "velocity": 51,
                "duration": 0.0409,
                "tempo": 120.0
            },
            {
                "pitch": 27,
                "velocity": 51,
                "duration": 0.0205,
                "tempo": 120.0
            },
            {
                "pitch": 37,
                "velocity": 101,
                "duration": 1.6364,
                "tempo": 120.0
            },
            {
                "pitch": 33,
                "velocity": 101,
                "duration": 0.0409,
                "tempo": 120.0
            },
            {
                "pitch": 30,
                "velocity": 101,
                "duration": 0.0432,
                "tempo": 120.0
            },
            {
                "pitch": 27,
                "velocity": 101,
                "duration": 0.0205,
                "tempo": 120.0
            },
            {
                "pitch": 40,
                "velocity": 51,
                "duration": 1.6364,
                "tempo": 120.0
            },
            {
                "pitch": 33,
                "velocity": 51,
                "duration": 0.0409,
                "tempo": 120.0
            },
            {
                "pitch": 30,
                "velocity": 51,
                "duration": 0.0409,
                "tempo": 120.0
            },
            {
                "pitch": 27,
                "velocity": 51,
                "duration": 0.0205,
                "tempo": 120.0
            },
            {
                "pitch": 37,
                "velocity": 101,
                "duration": 1.6386,
                "tempo": 120.0
            },
            {
                "pitch": 33,
                "velocity": 101,
                "duration": 0.0409,
                "tempo": 120.0
            },
            {
                "pitch": 30,
                "velocity": 101,
                "duration": 0.0409,
                "tempo": 120.0
            },
            {
                "pitch": 27,
                "velocity": 101,
                "duration": 0.0205,
                "tempo": 120.0
            },
            {
                "pitch": 40,
                "velocity": 51,
                "duration": 1.6364,
                "tempo": 120.0
            },
            {
                "pitch": 33,
                "velocity": 51,
                "duration": 0.0409,
                "tempo": 120.0
            },
            {
                "pitch": 30,
                "velocity": 51,
                "duration": 0.0409,
                "tempo": 120.0
            },
            {
                "pitch": 27,
                "velocity": 51,
                "duration": 0.0205,
                "tempo": 120.0
            },
            {
                "pitch": 37,
                "velocity": 101,
                "duration": 1.6545,
                "tempo": 120.0
            },
            {
                "pitch": 33,
                "velocity": 101,
                "duration": 0.0386,
                "tempo": 120.0
            },
            {
                "pitch": 30,
                "velocity": 101,
                "duration": 0.0409,
                "tempo": 120.0
            },
            {
                "pitch": 27,
                "velocity": 101,
                "duration": 0.0182,
                "tempo": 120.0
            },
            {
                "pitch": 40,
                "velocity": 51,
                "duration": 1.6273,
                "tempo": 120.0
            },
            {
                "pitch": 33,
                "velocity": 51,
                "duration": 0.0386,
                "tempo": 120.0
            },
            {
                "pitch": 30,
                "velocity": 51,
                "duration": 0.0386,
                "tempo": 120.0
            },
            {
                "pitch": 27,
                "velocity": 51,
                "duration": 0.0205,
                "tempo": 120.0
            },
            {
                "pitch": 37,
                "velocity": 101,
                "duration": 1.6023,
                "tempo": 120.0
            },
            {
                "pitch": 33,
                "velocity": 101,
                "duration": 0.0386,
                "tempo": 120.0
            },
            {
                "pitch": 30,
                "velocity": 101,
                "duration": 0.0432,
                "tempo": 120.0
            },
            {
                "pitch": 27,
                "velocity": 101,
                "duration": 0.0205,
                "tempo": 120.0
            },
            {
                "pitch": 40,
                "velocity": 51,
                "duration": 1.6295,
                "tempo": 120.0
            },
            {
                "pitch": 33,
                "velocity": 51,
                "duration": 0.0409,
                "tempo": 120.0
            },
            {
                "pitch": 30,
                "velocity": 51,
                "duration": 0.0409,
                "tempo": 120.0
            },
            {
                "pitch": 27,
                "velocity": 51,
                "duration": 0.0205,
                "tempo": 120.0
            },
            {
                "pitch": 37,
                "velocity": 101,
                "duration": 1.6455,
                "tempo": 120.0
            },
            {
                "pitch": 33,
                "velocity": 101,
                "duration": 0.0386,
                "tempo": 120.0
            },
            {
                "pitch": 30,
                "velocity": 101,
                "duration": 0.0409,
                "tempo": 120.0
            },
            {
                "pitch": 27,
                "velocity": 101,
                "duration": 0.0205,
                "tempo": 120.0
            },
            {
                "pitch": 40,
                "velocity": 51,
                "duration": 1.6318,
                "tempo": 120.0
            },
            {
                "pitch": 33,
                "velocity": 51,
                "duration": 0.0386,
                "tempo": 120.0
            },
            {
                "pitch": 30,
                "velocity": 51,
                "duration": 0.0409,
                "tempo": 120.0
            },
            {
                "pitch": 27,
                "velocity": 51,
                "duration": 0.0205,
                "tempo": 120.0
            },
            {
                "pitch": 37,
                "velocity": 101,
                "duration": 1.6182,
                "tempo": 120.0
            },
            {
                "pitch": 33,
                "velocity": 101,
                "duration": 0.0409,
                "tempo": 120.0
            },
            {
                "pitch": 30,
                "velocity": 101,
                "duration": 0.0409,
                "tempo": 120.0
            },
            {
                "pitch": 27,
                "velocity": 101,
                "duration": 0.0205,
                "tempo": 120.0
            },
            {
                "pitch": 40,
                "velocity": 51,
                "duration": 1.625,
                "tempo": 120.0
            },
            {
                "pitch": 33,
                "velocity": 51,
                "duration": 0.0364,
                "tempo": 120.0
            },
            {
                "pitch": 30,
                "velocity": 51,
                "duration": 0.0341,
                "tempo": 120.0
            },
            {
                "pitch": 27,
                "velocity": 51,
                "duration": 0.0159,
                "tempo": 120.0
            },
            {
                "pitch": 37,
                "velocity": 101,
                "duration": 1.4568,
                "tempo": 120.0
            },
            {
                "pitch": 37,
                "velocity": 101,
                "duration": 0.0023,
                "tempo": 120.0
            },
            {
                "pitch": 33,
                "velocity": 101,
                "duration": 0.0318,
                "tempo": 120.0
            },
            {
                "pitch": 30,
                "velocity": 101,
                "duration": 0.0318,
                "tempo": 120.0
            },
            {
                "pitch": 27,
                "velocity": 101,
                "duration": 0.0159,
                "tempo": 120.0
            },
            {
                "pitch": 40,
                "velocity": 51,
                "duration": 1.3227,
                "tempo": 120.0
            },
            {
                "pitch": 33,
                "velocity": 51,
                "duration": 0.0295,
                "tempo": 120.0
            },
            {
                "pitch": 30,
                "velocity": 51,
                "duration": 0.0341,
                "tempo": 120.0
            },
            {
                "pitch": 27,
                "velocity": 51,
                "duration": 0.0159,
                "tempo": 120.0
            },
            {
                "pitch": 33,
                "velocity": 101,
                "duration": 0.0295,
                "tempo": 120.0
            },
            {
                "pitch": 30,
                "velocity": 101,
                "duration": 0.0318,
                "tempo": 120.0
            },
            {
                "pitch": 27,
                "velocity": 101,
                "duration": 0.0159,
                "tempo": 120.0
            },
            {
                "pitch": 40,
                "velocity": 51,
                "duration": 1.2795,
                "tempo": 120.0
            },
            {
                "pitch": 33,
                "velocity": 51,
                "duration": 0.0318,
                "tempo": 120.0
            },
            {
                "pitch": 30,
                "velocity": 51,
                "duration": 0.0341,
                "tempo": 120.0
            },
            {
                "pitch": 27,
                "velocity": 51,
                "duration": 0.0159,
                "tempo": 120.0
            },
            {
                "pitch": 37,
                "velocity": 101,
                "duration": 1.2818,
                "tempo": 120.0
            },
            {
                "pitch": 33,
                "velocity": 101,
                "duration": 0.0295,
                "tempo": 120.0
            },
            {
                "pitch": 30,
                "velocity": 101,
                "duration": 0.0295,
                "tempo": 120.0
            },
            {
                "pitch": 27,
                "velocity": 101,
                "duration": 0.0159,
                "tempo": 120.0
            },
            {
                "pitch": 40,
                "velocity": 51,
                "duration": 1.2977,
                "tempo": 120.0
            },
            {
                "pitch": 33,
                "velocity": 51,
                "duration": 0.0341,
                "tempo": 120.0
            },
            {
                "pitch": 30,
                "velocity": 51,
                "duration": 0.0341,
                "tempo": 120.0
            },
            {
                "pitch": 27,
                "velocity": 51,
                "duration": 0.0159,
                "tempo": 120.0
            },
            {
                "pitch": 37,
                "velocity": 101,
                "duration": 1.3023,
                "tempo": 120.0
            },
            {
                "pitch": 33,
                "velocity": 101,
                "duration": 0.0318,
                "tempo": 120.0
            },
            {
                "pitch": 30,
                "velocity": 101,
                "duration": 0.0318,
                "tempo": 120.0
            },
            {
                "pitch": 27,
                "velocity": 101,
                "duration": 0.0159,
                "tempo": 120.0
            },
            {
                "pitch": 40,
                "velocity": 51,
                "duration": 1.3045,
                "tempo": 120.0
            },
            {
                "pitch": 33,
                "velocity": 51,
                "duration": 0.0318,
                "tempo": 120.0
            },
            {
                "pitch": 30,
                "velocity": 51,
                "duration": 0.0318,
                "tempo": 120.0
            },
            {
                "pitch": 27,
                "velocity": 51,
                "duration": 0.0159,
                "tempo": 120.0
            },
            {
                "pitch": 37,
                "velocity": 101,
                "duration": 1.3023,
                "tempo": 120.0
            },
            {
                "pitch": 33,
                "velocity": 101,
                "duration": 0.0318,
                "tempo": 120.0
            },
            {
                "pitch": 30,
                "velocity": 101,
                "duration": 0.0341,
                "tempo": 120.0
            },
            {
                "pitch": 27,
                "velocity": 101,
                "duration": 0.0159,
                "tempo": 120.0
            },
            {
                "pitch": 40,
                "velocity": 51,
                "duration": 1.3114,
                "tempo": 120.0
            },
            {
                "pitch": 33,
                "velocity": 51,
                "duration": 0.0318,
                "tempo": 120.0
            },
            {
                "pitch": 30,
                "velocity": 51,
                "duration": 0.0341,
                "tempo": 120.0
            },
            {
                "pitch": 27,
                "velocity": 51,
                "duration": 0.0159,
                "tempo": 120.0
            },
            {
                "pitch": 37,
                "velocity": 101,
                "duration": 1.2955,
                "tempo": 120.0
            },
            {
                "pitch": 33,
                "velocity": 101,
                "duration": 0.0318,
                "tempo": 120.0
            },
            {
                "pitch": 30,
                "velocity": 101,
                "duration": 0.0318,
                "tempo": 120.0
            },
            {
                "pitch": 27,
                "velocity": 101,
                "duration": 0.0159,
                "tempo": 120.0
            },
            {
                "pitch": 40,
                "velocity": 51,
                "duration": 1.2864,
                "tempo": 120.0
            },
            {
                "pitch": 33,
                "velocity": 51,
                "duration": 0.0318,
                "tempo": 120.0
            },
            {
                "pitch": 30,
                "velocity": 51,
                "duration": 0.0318,
                "tempo": 120.0
            },
            {
                "pitch": 27,
                "velocity": 51,
                "duration": 0.0159,
                "tempo": 120.0
            },
            {
                "pitch": 37,
                "velocity": 101,
                "duration": 1.3023,
                "tempo": 120.0
            },
            {
                "pitch": 33,
                "velocity": 101,
                "duration": 0.0318,
                "tempo": 120.0
            },
            {
                "pitch": 30,
                "velocity": 101,
                "duration": 0.0341,
                "tempo": 120.0
            },
            {
                "pitch": 27,
                "velocity": 101,
                "duration": 0.0159,
                "tempo": 120.0
            },
            {
                "pitch": 40,
                "velocity": 51,
                "duration": 1.3114,
                "tempo": 120.0
            },
            {
                "pitch": 33,
                "velocity": 51,
                "duration": 0.0318,
                "tempo": 120.0
            },
            {
                "pitch": 30,
                "velocity": 51,
                "duration": 0.0341,
                "tempo": 120.0
            },
            {
                "pitch": 27,
                "velocity": 51,
                "duration": 0.0159,
                "tempo": 120.0
            },
            {
                "pitch": 37,
                "velocity": 101,
                "duration": 1.3045,
                "tempo": 120.0
            },
            {
                "pitch": 33,
                "velocity": 101,
                "duration": 0.0295,
                "tempo": 120.0
            },
            {
                "pitch": 30,
                "velocity": 101,
                "duration": 0.0341,
                "tempo": 120.0
            },
            {
                "pitch": 27,
                "velocity": 101,
                "duration": 0.0159,
                "tempo": 120.0
            },
            {
                "pitch": 40,
                "velocity": 51,
                "duration": 1.2932,
                "tempo": 120.0
            },
            {
                "pitch": 33,
                "velocity": 51,
                "duration": 0.0318,
                "tempo": 120.0
            },
            {
                "pitch": 30,
                "velocity": 51,
                "duration": 0.0341,
                "tempo": 120.0
            },
            {
                "pitch": 27,
                "velocity": 51,
                "duration": 0.0159,
                "tempo": 120.0
            },
            {
                "pitch": 37,
                "velocity": 101,
                "duration": 1.4568,
                "tempo": 120.0
            },
            {
                "pitch": 33,
                "velocity": 101,
                "duration": 0.0409,
                "tempo": 120.0
            },
            {
                "pitch": 30,
                "velocity": 101,
                "duration": 0.0409,
                "tempo": 120.0
            },
            {
                "pitch": 27,
                "velocity": 101,
                "duration": 0.0182,
                "tempo": 120.0
            },
            {
                "pitch": 40,
                "velocity": 51,
                "duration": 1.5909,
                "tempo": 120.0
            },
            {
                "pitch": 33,
                "velocity": 51,
                "duration": 0.0409,
                "tempo": 120.0
            },
            {
                "pitch": 30,
                "velocity": 51,
                "duration": 0.0386,
                "tempo": 120.0
            },
            {
                "pitch": 27,
                "velocity": 51,
                "duration": 0.0205,
                "tempo": 120.0
            },
            {
                "pitch": 37,
                "velocity": 101,
                "duration": 1.6182,
                "tempo": 120.0
            },
            {
                "pitch": 33,
                "velocity": 101,
                "duration": 0.0409,
                "tempo": 120.0
            },
            {
                "pitch": 30,
                "velocity": 101,
                "duration": 0.0409,
                "tempo": 120.0
            },
            {
                "pitch": 27,
                "velocity": 101,
                "duration": 0.0205,
                "tempo": 120.0
            },
            {
                "pitch": 40,
                "velocity": 51,
                "duration": 1.6341,
                "tempo": 120.0
            },
            {
                "pitch": 33,
                "velocity": 51,
                "duration": 0.0409,
                "tempo": 120.0
            },
            {
                "pitch": 30,
                "velocity": 51,
                "duration": 0.0409,
                "tempo": 120.0
            },
            {
                "pitch": 27,
                "velocity": 51,
                "duration": 0.0205,
                "tempo": 120.0
            },
            {
                "pitch": 37,
                "velocity": 101,
                "duration": 1.6386,
                "tempo": 120.0
            },
            {
                "pitch": 33,
                "velocity": 101,
                "duration": 0.0386,
                "tempo": 120.0
            },
            {
                "pitch": 30,
                "velocity": 101,
                "duration": 0.0409,
                "tempo": 120.0
            },
            {
                "pitch": 27,
                "velocity": 101,
                "duration": 0.0205,
                "tempo": 120.0
            },
            {
                "pitch": 40,
                "velocity": 51,
                "duration": 1.6227,
                "tempo": 120.0
            },
            {
                "pitch": 40,
                "velocity": 51,
                "duration": 0.0023,
                "tempo": 120.0
            },
            {
                "pitch": 33,
                "velocity": 51,
                "duration": 0.0386,
                "tempo": 120.0
            },
            {
                "pitch": 30,
                "velocity": 51,
                "duration": 0.0409,
                "tempo": 120.0
            },
            {
                "pitch": 27,
                "velocity": 51,
                "duration": 0.0205,
                "tempo": 120.0
            },
            {
                "pitch": 37,
                "velocity": 101,
                "duration": 1.6273,
                "tempo": 120.0
            },
            {
                "pitch": 33,
                "velocity": 101,
                "duration": 0.0409,
                "tempo": 120.0
            },
            {
                "pitch": 30,
                "velocity": 101,
                "duration": 0.0409,
                "tempo": 120.0
            },
            {
                "pitch": 27,
                "velocity": 101,
                "duration": 0.0205,
                "tempo": 120.0
            },
            {
                "pitch": 33,
                "velocity": 51,
                "duration": 0.0409,
                "tempo": 120.0
            },
            {
                "pitch": 30,
                "velocity": 51,
                "duration": 0.0409,
                "tempo": 120.0
            },
            {
                "pitch": 27,
                "velocity": 51,
                "duration": 0.0205,
                "tempo": 120.0
            },
            {
                "pitch": 37,
                "velocity": 101,
                "duration": 1.6273,
                "tempo": 120.0
            },
            {
                "pitch": 33,
                "velocity": 101,
                "duration": 0.0409,
                "tempo": 120.0
            },
            {
                "pitch": 30,
                "velocity": 101,
                "duration": 0.0409,
                "tempo": 120.0
            },
            {
                "pitch": 27,
                "velocity": 101,
                "duration": 0.0205,
                "tempo": 120.0
            },
            {
                "pitch": 40,
                "velocity": 51,
                "duration": 1.6273,
                "tempo": 120.0
            },
            {
                "pitch": 33,
                "velocity": 51,
                "duration": 0.0409,
                "tempo": 120.0
            },
            {
                "pitch": 30,
                "velocity": 51,
                "duration": 0.0409,
                "tempo": 120.0
            },
            {
                "pitch": 27,
                "velocity": 51,
                "duration": 0.0205,
                "tempo": 120.0
            },
            {
                "pitch": 37,
                "velocity": 101,
                "duration": 1.6273,
                "tempo": 120.0
            },
            {
                "pitch": 33,
                "velocity": 101,
                "duration": 0.0409,
                "tempo": 120.0
            },
            {
                "pitch": 30,
                "velocity": 101,
                "duration": 0.0409,
                "tempo": 120.0
            },
            {
                "pitch": 27,
                "velocity": 101,
                "duration": 0.0205,
                "tempo": 120.0
            },
            {
                "pitch": 40,
                "velocity": 51,
                "duration": 1.6364,
                "tempo": 120.0
            },
            {
                "pitch": 40,
                "velocity": 51,
                "duration": 0.0023,
                "tempo": 120.0
            },
            {
                "pitch": 33,
                "velocity": 51,
                "duration": 0.0386,
                "tempo": 120.0
            },
            {
                "pitch": 30,
                "velocity": 51,
                "duration": 0.0432,
                "tempo": 120.0
            },
            {
                "pitch": 27,
                "velocity": 51,
                "duration": 0.0205,
                "tempo": 120.0
            },
            {
                "pitch": 37,
                "velocity": 101,
                "duration": 1.6568,
                "tempo": 120.0
            },
            {
                "pitch": 33,
                "velocity": 101,
                "duration": 0.0386,
                "tempo": 120.0
            },
            {
                "pitch": 30,
                "velocity": 101,
                "duration": 0.0386,
                "tempo": 120.0
            },
            {
                "pitch": 27,
                "velocity": 101,
                "duration": 0.0205,
                "tempo": 120.0
            },
            {
                "pitch": 33,
                "velocity": 51,
                "duration": 0.0386,
                "tempo": 120.0
            },
            {
                "pitch": 30,
                "velocity": 51,
                "duration": 0.0409,
                "tempo": 120.0
            },
            {
                "pitch": 27,
                "velocity": 51,
                "duration": 0.0182,
                "tempo": 120.0
            },
            {
                "pitch": 37,
                "velocity": 101,
                "duration": 1.6,
                "tempo": 120.0
            },
            {
                "pitch": 33,
                "velocity": 101,
                "duration": 0.0409,
                "tempo": 120.0
            },
            {
                "pitch": 30,
                "velocity": 101,
                "duration": 0.0409,
                "tempo": 120.0
            },
            {
                "pitch": 27,
                "velocity": 101,
                "duration": 0.0205,
                "tempo": 120.0
            },
            {
                "pitch": 40,
                "velocity": 51,
                "duration": 1.6295,
                "tempo": 120.0
            },
            {
                "pitch": 33,
                "velocity": 51,
                "duration": 0.0409,
                "tempo": 120.0
            },
            {
                "pitch": 30,
                "velocity": 51,
                "duration": 0.0432,
                "tempo": 120.0
            },
            {
                "pitch": 27,
                "velocity": 51,
                "duration": 0.0205,
                "tempo": 120.0
            },
            {
                "pitch": 37,
                "velocity": 101,
                "duration": 1.6364,
                "tempo": 120.0
            },
            {
                "pitch": 33,
                "velocity": 101,
                "duration": 0.0409,
                "tempo": 120.0
            },
            {
                "pitch": 30,
                "velocity": 101,
                "duration": 0.0409,
                "tempo": 120.0
            },
            {
                "pitch": 27,
                "velocity": 101,
                "duration": 0.0205,
                "tempo": 120.0
            },
            {
                "pitch": 40,
                "velocity": 51,
                "duration": 1.6295,
                "tempo": 120.0
            },
            {
                "pitch": 33,
                "velocity": 51,
                "duration": 0.0409,
                "tempo": 120.0
            },
            {
                "pitch": 30,
                "velocity": 51,
                "duration": 0.0409,
                "tempo": 120.0
            },
            {
                "pitch": 27,
                "velocity": 51,
                "duration": 0.0205,
                "tempo": 120.0
            },
            {
                "pitch": 37,
                "velocity": 101,
                "duration": 1.6295,
                "tempo": 120.0
            },
            {
                "pitch": 33,
                "velocity": 101,
                "duration": 0.0386,
                "tempo": 120.0
            },
            {
                "pitch": 30,
                "velocity": 101,
                "duration": 0.0432,
                "tempo": 120.0
            },
            {
                "pitch": 27,
                "velocity": 101,
                "duration": 0.0205,
                "tempo": 120.0
            },
            {
                "pitch": 40,
                "velocity": 51,
                "duration": 1.6364,
                "tempo": 120.0
            },
            {
                "pitch": 33,
                "velocity": 51,
                "duration": 0.0341,
                "tempo": 120.0
            },
            {
                "pitch": 30,
                "velocity": 51,
                "duration": 0.0341,
                "tempo": 120.0
            },
            {
                "pitch": 27,
                "velocity": 51,
                "duration": 0.0159,
                "tempo": 120.0
            },
            {
                "pitch": 37,
                "velocity": 101,
                "duration": 1.4432,
                "tempo": 120.0
            },
            {
                "pitch": 33,
                "velocity": 101,
                "duration": 0.0295,
                "tempo": 120.0
            },
            {
                "pitch": 30,
                "velocity": 101,
                "duration": 0.0318,
                "tempo": 120.0
            },
            {
                "pitch": 27,
                "velocity": 101,
                "duration": 0.0159,
                "tempo": 120.0
            },
            {
                "pitch": 40,
                "velocity": 51,
                "duration": 1.3045,
                "tempo": 120.0
            },
            {
                "pitch": 33,
                "velocity": 51,
                "duration": 0.0341,
                "tempo": 120.0
            },
            {
                "pitch": 30,
                "velocity": 51,
                "duration": 0.0341,
                "tempo": 120.0
            },
            {
                "pitch": 27,
                "velocity": 51,
                "duration": 0.0159,
                "tempo": 120.0
            },
            {
                "pitch": 37,
                "velocity": 101,
                "duration": 1.3114,
                "tempo": 120.0
            },
            {
                "pitch": 33,
                "velocity": 101,
                "duration": 0.0318,
                "tempo": 120.0
            },
            {
                "pitch": 30,
                "velocity": 101,
                "duration": 0.0318,
                "tempo": 120.0
            },
            {
                "pitch": 27,
                "velocity": 101,
                "duration": 0.0159,
                "tempo": 120.0
            },
            {
                "pitch": 40,
                "velocity": 51,
                "duration": 1.3045,
                "tempo": 120.0
            },
            {
                "pitch": 33,
                "velocity": 51,
                "duration": 0.0318,
                "tempo": 120.0
            },
            {
                "pitch": 30,
                "velocity": 51,
                "duration": 0.0341,
                "tempo": 120.0
            },
            {
                "pitch": 27,
                "velocity": 51,
                "duration": 0.0159,
                "tempo": 120.0
            },
            {
                "pitch": 37,
                "velocity": 101,
                "duration": 1.3045,
                "tempo": 120.0
            },
            {
                "pitch": 33,
                "velocity": 101,
                "duration": 0.0318,
                "tempo": 120.0
            },
            {
                "pitch": 30,
                "velocity": 101,
                "duration": 0.0318,
                "tempo": 120.0
            },
            {
                "pitch": 27,
                "velocity": 101,
                "duration": 0.0159,
                "tempo": 120.0
            },
            {
                "pitch": 40,
                "velocity": 51,
                "duration": 1.3114,
                "tempo": 120.0
            },
            {
                "pitch": 33,
                "velocity": 51,
                "duration": 0.0341,
                "tempo": 120.0
            },
            {
                "pitch": 30,
                "velocity": 51,
                "duration": 0.0318,
                "tempo": 120.0
            },
            {
                "pitch": 27,
                "velocity": 51,
                "duration": 0.0159,
                "tempo": 120.0
            },
            {
                "pitch": 37,
                "velocity": 101,
                "duration": 1.2932,
                "tempo": 120.0
            },
            {
                "pitch": 33,
                "velocity": 101,
                "duration": 0.0318,
                "tempo": 120.0
            },
            {
                "pitch": 30,
                "velocity": 101,
                "duration": 0.0318,
                "tempo": 120.0
            },
            {
                "pitch": 27,
                "velocity": 101,
                "duration": 0.0159,
                "tempo": 120.0
            },
            {
                "pitch": 40,
                "velocity": 51,
                "duration": 1.2773,
                "tempo": 120.0
            },
            {
                "pitch": 33,
                "velocity": 51,
                "duration": 0.0318,
                "tempo": 120.0
            },
            {
                "pitch": 30,
                "velocity": 51,
                "duration": 0.0341,
                "tempo": 120.0
            },
            {
                "pitch": 27,
                "velocity": 51,
                "duration": 0.0159,
                "tempo": 120.0
            },
            {
                "pitch": 37,
                "velocity": 101,
                "duration": 1.2955,
                "tempo": 120.0
            },
            {
                "pitch": 33,
                "velocity": 101,
                "duration": 0.0318,
                "tempo": 120.0
            },
            {
                "pitch": 30,
                "velocity": 101,
                "duration": 0.0318,
                "tempo": 120.0
            },
            {
                "pitch": 27,
                "velocity": 101,
                "duration": 0.0159,
                "tempo": 120.0
            },
            {
                "pitch": 40,
                "velocity": 51,
                "duration": 1.3114,
                "tempo": 120.0
            },
            {
                "pitch": 33,
                "velocity": 51,
                "duration": 0.0341,
                "tempo": 120.0
            },
            {
                "pitch": 30,
                "velocity": 51,
                "duration": 0.0318,
                "tempo": 120.0
            },
            {
                "pitch": 27,
                "velocity": 51,
                "duration": 0.0159,
                "tempo": 120.0
            },
            {
                "pitch": 37,
                "velocity": 101,
                "duration": 1.3114,
                "tempo": 120.0
            },
            {
                "pitch": 33,
                "velocity": 101,
                "duration": 0.0318,
                "tempo": 120.0
            },
            {
                "pitch": 30,
                "velocity": 101,
                "duration": 0.0295,
                "tempo": 120.0
            },
            {
                "pitch": 27,
                "velocity": 101,
                "duration": 0.0159,
                "tempo": 120.0
            },
            {
                "pitch": 40,
                "velocity": 51,
                "duration": 1.2864,
                "tempo": 120.0
            },
            {
                "pitch": 33,
                "velocity": 51,
                "duration": 0.0318,
                "tempo": 120.0
            },
            {
                "pitch": 30,
                "velocity": 51,
                "duration": 0.0341,
                "tempo": 120.0
            },
            {
                "pitch": 27,
                "velocity": 51,
                "duration": 0.0159,
                "tempo": 120.0
            },
            {
                "pitch": 37,
                "velocity": 101,
                "duration": 1.2727,
                "tempo": 120.0
            },
            {
                "pitch": 33,
                "velocity": 101,
                "duration": 0.0295,
                "tempo": 120.0
            },
            {
                "pitch": 30,
                "velocity": 101,
                "duration": 0.0318,
                "tempo": 120.0
            },
            {
                "pitch": 27,
                "velocity": 101,
                "duration": 0.0136,
                "tempo": 120.0
            },
            {
                "pitch": 40,
                "velocity": 51,
                "duration": 1.2886,
                "tempo": 120.0
            },
            {
                "pitch": 33,
                "velocity": 51,
                "duration": 0.0341,
                "tempo": 120.0
            },
            {
                "pitch": 30,
                "velocity": 51,
                "duration": 0.0341,
                "tempo": 120.0
            },
            {
                "pitch": 27,
                "velocity": 51,
                "duration": 0.0159,
                "tempo": 120.0
            },
            {
                "pitch": 37,
                "velocity": 101,
                "duration": 1.3114,
                "tempo": 120.0
            },
            {
                "pitch": 33,
                "velocity": 101,
                "duration": 0.0318,
                "tempo": 120.0
            },
            {
                "pitch": 30,
                "velocity": 101,
                "duration": 0.0341,
                "tempo": 120.0
            },
            {
                "pitch": 27,
                "velocity": 101,
                "duration": 0.0159,
                "tempo": 120.0
            },
            {
                "pitch": 40,
                "velocity": 51,
                "duration": 1.3136,
                "tempo": 120.0
            },
            {
                "pitch": 33,
                "velocity": 51,
                "duration": 0.0318,
                "tempo": 120.0
            },
            {
                "pitch": 30,
                "velocity": 51,
                "duration": 0.0341,
                "tempo": 120.0
            },
            {
                "pitch": 27,
                "velocity": 51,
                "duration": 0.0159,
                "tempo": 120.0
            },
            {
                "pitch": 37,
                "velocity": 101,
                "duration": 1.3045,
                "tempo": 120.0
            },
            {
                "pitch": 33,
                "velocity": 101,
                "duration": 0.0318,
                "tempo": 120.0
            },
            {
                "pitch": 30,
                "velocity": 101,
                "duration": 0.0318,
                "tempo": 120.0
            },
            {
                "pitch": 27,
                "velocity": 101,
                "duration": 0.0159,
                "tempo": 120.0
            },
            {
                "pitch": 40,
                "velocity": 51,
                "duration": 1.3136,
                "tempo": 120.0
            },
            {
                "pitch": 33,
                "velocity": 51,
                "duration": 0.0318,
                "tempo": 120.0
            },
            {
                "pitch": 30,
                "velocity": 51,
                "duration": 0.0318,
                "tempo": 120.0
            },
            {
                "pitch": 27,
                "velocity": 51,
                "duration": 0.0159,
                "tempo": 120.0
            },
            {
                "pitch": 37,
                "velocity": 101,
                "duration": 1.2841,
                "tempo": 120.0
            },
            {
                "pitch": 33,
                "velocity": 101,
                "duration": 0.0318,
                "tempo": 120.0
            },
            {
                "pitch": 30,
                "velocity": 101,
                "duration": 0.0341,
                "tempo": 120.0
            },
            {
                "pitch": 27,
                "velocity": 101,
                "duration": 0.0159,
                "tempo": 120.0
            },
            {
                "pitch": 40,
                "velocity": 51,
                "duration": 1.275,
                "tempo": 120.0
            },
            {
                "pitch": 33,
                "velocity": 51,
                "duration": 0.0318,
                "tempo": 120.0
            },
            {
                "pitch": 30,
                "velocity": 51,
                "duration": 0.0318,
                "tempo": 120.0
            },
            {
                "pitch": 27,
                "velocity": 51,
                "duration": 0.0159,
                "tempo": 120.0
            },
            {
                "pitch": 37,
                "velocity": 101,
                "duration": 1.2864,
                "tempo": 120.0
            },
            {
                "pitch": 33,
                "velocity": 101,
                "duration": 0.0318,
                "tempo": 120.0
            },
            {
                "pitch": 30,
                "velocity": 101,
                "duration": 0.0318,
                "tempo": 120.0
            },
            {
                "pitch": 27,
                "velocity": 101,
                "duration": 0.0182,
                "tempo": 120.0
            },
            {
                "pitch": 40,
                "velocity": 51,
                "duration": 1.3,
                "tempo": 120.0
            },
            {
                "pitch": 33,
                "velocity": 51,
                "duration": 0.0318,
                "tempo": 120.0
            },
            {
                "pitch": 30,
                "velocity": 51,
                "duration": 0.0341,
                "tempo": 120.0
            },
            {
                "pitch": 27,
                "velocity": 51,
                "duration": 0.0159,
                "tempo": 120.0
            },
            {
                "pitch": 37,
                "velocity": 101,
                "duration": 1.3318,
                "tempo": 120.0
            },
            {
                "pitch": 33,
                "velocity": 101,
                "duration": 0.0295,
                "tempo": 120.0
            },
            {
                "pitch": 30,
                "velocity": 101,
                "duration": 0.0318,
                "tempo": 120.0
            },
            {
                "pitch": 27,
                "velocity": 101,
                "duration": 0.0159,
                "tempo": 120.0
            },
            {
                "pitch": 40,
                "velocity": 51,
                "duration": 1.3,
                "tempo": 120.0
            },
            {
                "pitch": 33,
                "velocity": 51,
                "duration": 0.0318,
                "tempo": 120.0
            },
            {
                "pitch": 30,
                "velocity": 51,
                "duration": 0.0318,
                "tempo": 120.0
            },
            {
                "pitch": 27,
                "velocity": 51,
                "duration": 0.0159,
                "tempo": 120.0
            },
            {
                "pitch": 37,
                "velocity": 101,
                "duration": 1.2886,
                "tempo": 120.0
            },
            {
                "pitch": 33,
                "velocity": 101,
                "duration": 0.0341,
                "tempo": 120.0
            },
            {
                "pitch": 30,
                "velocity": 101,
                "duration": 0.0318,
                "tempo": 120.0
            },
            {
                "pitch": 27,
                "velocity": 101,
                "duration": 0.0182,
                "tempo": 120.0
            },
            {
                "pitch": 40,
                "velocity": 51,
                "duration": 1.3159,
                "tempo": 120.0
            },
            {
                "pitch": 33,
                "velocity": 51,
                "duration": 0.0318,
                "tempo": 120.0
            },
            {
                "pitch": 30,
                "velocity": 51,
                "duration": 0.0341,
                "tempo": 120.0
            },
            {
                "pitch": 27,
                "velocity": 51,
                "duration": 0.0159,
                "tempo": 120.0
            },
            {
                "pitch": 37,
                "velocity": 101,
                "duration": 1.2909,
                "tempo": 120.0
            },
            {
                "pitch": 33,
                "velocity": 101,
                "duration": 0.0318,
                "tempo": 120.0
            },
            {
                "pitch": 30,
                "velocity": 101,
                "duration": 0.0318,
                "tempo": 120.0
            },
            {
                "pitch": 27,
                "velocity": 101,
                "duration": 0.0159,
                "tempo": 120.0
            },
            {
                "pitch": 40,
                "velocity": 51,
                "duration": 1.2818,
                "tempo": 120.0
            },
            {
                "pitch": 33,
                "velocity": 51,
                "duration": 0.0318,
                "tempo": 120.0
            },
            {
                "pitch": 30,
                "velocity": 51,
                "duration": 0.0318,
                "tempo": 120.0
            },
            {
                "pitch": 27,
                "velocity": 51,
                "duration": 0.0182,
                "tempo": 120.0
            },
            {
                "pitch": 37,
                "velocity": 101,
                "duration": 1.3114,
                "tempo": 120.0
            },
            {
                "pitch": 33,
                "velocity": 101,
                "duration": 0.0341,
                "tempo": 120.0
            },
            {
                "pitch": 30,
                "velocity": 101,
                "duration": 0.0341,
                "tempo": 120.0
            },
            {
                "pitch": 27,
                "velocity": 101,
                "duration": 0.0159,
                "tempo": 120.0
            },
            {
                "pitch": 40,
                "velocity": 51,
                "duration": 1.3273,
                "tempo": 120.0
            },
            {
                "pitch": 33,
                "velocity": 51,
                "duration": 0.0318,
                "tempo": 120.0
            },
            {
                "pitch": 30,
                "velocity": 51,
                "duration": 0.0318,
                "tempo": 120.0
            },
            {
                "pitch": 27,
                "velocity": 51,
                "duration": 0.0159,
                "tempo": 120.0
            },
            {
                "pitch": 37,
                "velocity": 101,
                "duration": 1.3136,
                "tempo": 120.0
            },
            {
                "pitch": 33,
                "velocity": 101,
                "duration": 0.0318,
                "tempo": 120.0
            },
            {
                "pitch": 30,
                "velocity": 101,
                "duration": 0.0318,
                "tempo": 120.0
            },
            {
                "pitch": 27,
                "velocity": 101,
                "duration": 0.0136,
                "tempo": 120.0
            },
            {
                "pitch": 33,
                "velocity": 51,
                "duration": 0.0295,
                "tempo": 120.0
            },
            {
                "pitch": 30,
                "velocity": 51,
                "duration": 0.0318,
                "tempo": 120.0
            },
            {
                "pitch": 27,
                "velocity": 51,
                "duration": 0.0182,
                "tempo": 120.0
            },
            {
                "pitch": 40,
                "velocity": 51,
                "duration": 1.9864,
                "tempo": 120.0
            },
            {
                "pitch": 33,
                "velocity": 101,
                "duration": 0.0318,
                "tempo": 120.0
            },
            {
                "pitch": 30,
                "velocity": 101,
                "duration": 0.0318,
                "tempo": 120.0
            },
            {
                "pitch": 27,
                "velocity": 101,
                "duration": 0.0159,
                "tempo": 120.0
            },
            {
                "pitch": 42,
                "velocity": 51,
                "duration": 1.225,
                "tempo": 120.0
            },
            {
                "pitch": 33,
                "velocity": 51,
                "duration": 0.0318,
                "tempo": 120.0
            },
            {
                "pitch": 30,
                "velocity": 51,
                "duration": 0.0318,
                "tempo": 120.0
            },
            {
                "pitch": 27,
                "velocity": 51,
                "duration": 0.0159,
                "tempo": 120.0
            },
            {
                "pitch": 40,
                "velocity": 101,
                "duration": 1.2136,
                "tempo": 120.0
            },
            {
                "pitch": 33,
                "velocity": 101,
                "duration": 0.0318,
                "tempo": 120.0
            },
            {
                "pitch": 30,
                "velocity": 101,
                "duration": 0.0318,
                "tempo": 120.0
            },
            {
                "pitch": 27,
                "velocity": 101,
                "duration": 0.0159,
                "tempo": 120.0
            },
            {
                "pitch": 42,
                "velocity": 51,
                "duration": 1.2091,
                "tempo": 120.0
            },
            {
                "pitch": 33,
                "velocity": 51,
                "duration": 0.0318,
                "tempo": 120.0
            },
            {
                "pitch": 30,
                "velocity": 51,
                "duration": 0.0318,
                "tempo": 120.0
            },
            {
                "pitch": 27,
                "velocity": 51,
                "duration": 0.0159,
                "tempo": 120.0
            },
            {
                "pitch": 40,
                "velocity": 101,
                "duration": 1.2364,
                "tempo": 120.0
            },
            {
                "pitch": 33,
                "velocity": 101,
                "duration": 0.0318,
                "tempo": 120.0
            },
            {
                "pitch": 30,
                "velocity": 101,
                "duration": 0.0318,
                "tempo": 120.0
            },
            {
                "pitch": 27,
                "velocity": 101,
                "duration": 0.0159,
                "tempo": 120.0
            },
            {
                "pitch": 31,
                "velocity": 51,
                "duration": 0.0477,
                "tempo": 120.0
            },
            {
                "pitch": 29,
                "velocity": 51,
                "duration": 0.0318,
                "tempo": 120.0
            },
            {
                "pitch": 42,
                "velocity": 51,
                "duration": 1.875,
                "tempo": 120.0
            },
            {
                "pitch": 33,
                "velocity": 101,
                "duration": 0.0341,
                "tempo": 120.0
            },
            {
                "pitch": 30,
                "velocity": 101,
                "duration": 0.0318,
                "tempo": 120.0
            },
            {
                "pitch": 27,
                "velocity": 101,
                "duration": 0.0182,
                "tempo": 120.0
            },
            {
                "pitch": 31,
                "velocity": 51,
                "duration": 0.0477,
                "tempo": 120.0
            },
            {
                "pitch": 29,
                "velocity": 51,
                "duration": 0.0318,
                "tempo": 120.0
            },
            {
                "pitch": 42,
                "velocity": 101,
                "duration": 1.1273,
                "tempo": 120.0
            },
            {
                "pitch": 33,
                "velocity": 101,
                "duration": 0.0318,
                "tempo": 120.0
            },
            {
                "pitch": 30,
                "velocity": 101,
                "duration": 0.0318,
                "tempo": 120.0
            },
            {
                "pitch": 27,
                "velocity": 101,
                "duration": 0.0136,
                "tempo": 120.0
            },
            {
                "pitch": 31,
                "velocity": 51,
                "duration": 0.05,
                "tempo": 120.0
            },
            {
                "pitch": 29,
                "velocity": 51,
                "duration": 0.0341,
                "tempo": 120.0
            },
            {
                "pitch": 42,
                "velocity": 101,
                "duration": 1.1523,
                "tempo": 120.0
            },
            {
                "pitch": 33,
                "velocity": 101,
                "duration": 0.0341,
                "tempo": 120.0
            },
            {
                "pitch": 30,
                "velocity": 101,
                "duration": 0.0341,
                "tempo": 120.0
            },
            {
                "pitch": 27,
                "velocity": 101,
                "duration": 0.0159,
                "tempo": 120.0
            },
            {
                "pitch": 34,
                "velocity": 51,
                "duration": 0.0432,
                "tempo": 120.0
            },
            {
                "pitch": 30,
                "velocity": 51,
                "duration": 0.0432,
                "tempo": 120.0
            },
            {
                "pitch": 27,
                "velocity": 51,
                "duration": 0.0205,
                "tempo": 120.0
            },
            {
                "pitch": 33,
                "velocity": 101,
                "duration": 0.0386,
                "tempo": 120.0
            },
            {
                "pitch": 30,
                "velocity": 101,
                "duration": 0.0409,
                "tempo": 120.0
            },
            {
                "pitch": 27,
                "velocity": 101,
                "duration": 0.0205,
                "tempo": 120.0
            },
            {
                "pitch": 34,
                "velocity": 51,
                "duration": 0.0409,
                "tempo": 120.0
            },
            {
                "pitch": 30,
                "velocity": 51,
                "duration": 0.0409,
                "tempo": 120.0
            },
            {
                "pitch": 27,
                "velocity": 51,
                "duration": 0.0182,
                "tempo": 120.0
            },
            {
                "pitch": 33,
                "velocity": 101,
                "duration": 0.0432,
                "tempo": 120.0
            },
            {
                "pitch": 30,
                "velocity": 101,
                "duration": 0.0432,
                "tempo": 120.0
            },
            {
                "pitch": 27,
                "velocity": 101,
                "duration": 0.0227,
                "tempo": 120.0
            },
            {
                "pitch": 34,
                "velocity": 51,
                "duration": 0.0432,
                "tempo": 120.0
            },
            {
                "pitch": 30,
                "velocity": 51,
                "duration": 0.0432,
                "tempo": 120.0
            },
            {
                "pitch": 27,
                "velocity": 51,
                "duration": 0.0227,
                "tempo": 120.0
            },
            {
                "pitch": 33,
                "velocity": 101,
                "duration": 0.0455,
                "tempo": 120.0
            },
            {
                "pitch": 30,
                "velocity": 101,
                "duration": 0.0432,
                "tempo": 120.0
            },
            {
                "pitch": 27,
                "velocity": 101,
                "duration": 0.0227,
                "tempo": 120.0
            },
            {
                "pitch": 33,
                "velocity": 51,
                "duration": 0.0432,
                "tempo": 120.0
            },
            {
                "pitch": 30,
                "velocity": 51,
                "duration": 0.0455,
                "tempo": 120.0
            },
            {
                "pitch": 27,
                "velocity": 51,
                "duration": 0.0205,
                "tempo": 120.0
            },
            {
                "pitch": 36,
                "velocity": 51,
                "duration": 0.8,
                "tempo": 120.0
            },
            {
                "pitch": 33,
                "velocity": 101,
                "duration": 0.0568,
                "tempo": 120.0
            },
            {
                "pitch": 30,
                "velocity": 101,
                "duration": 0.0614,
                "tempo": 120.0
            },
            {
                "pitch": 27,
                "velocity": 101,
                "duration": 0.0318,
                "tempo": 120.0
            },
            {
                "pitch": 36,
                "velocity": 101,
                "duration": 0.7364,
                "tempo": 120.0
            },
            {
                "pitch": 33,
                "velocity": 51,
                "duration": 0.0614,
                "tempo": 120.0
            },
            {
                "pitch": 30,
                "velocity": 51,
                "duration": 0.0614,
                "tempo": 120.0
            },
            {
                "pitch": 27,
                "velocity": 51,
                "duration": 0.0295,
                "tempo": 120.0
            },
            {
                "pitch": 36,
                "velocity": 51,
                "duration": 1.1114,
                "tempo": 120.0
            },
            {
                "pitch": 33,
                "velocity": 101,
                "duration": 0.0591,
                "tempo": 120.0
            },
            {
                "pitch": 30,
                "velocity": 101,
                "duration": 0.0614,
                "tempo": 120.0
            },
            {
                "pitch": 27,
                "velocity": 101,
                "duration": 0.0295,
                "tempo": 120.0
            },
            {
                "pitch": 36,
                "velocity": 101,
                "duration": 0.7295,
                "tempo": 120.0
            },
            {
                "pitch": 36,
                "velocity": 51,
                "duration": 0.0023,
                "tempo": 120.0
            },
            {
                "pitch": 33,
                "velocity": 51,
                "duration": 0.0591,
                "tempo": 120.0
            },
            {
                "pitch": 30,
                "velocity": 51,
                "duration": 0.0614,
                "tempo": 120.0
            },
            {
                "pitch": 27,
                "velocity": 51,
                "duration": 0.0295,
                "tempo": 120.0
            },
            {
                "pitch": 33,
                "velocity": 101,
                "duration": 0.0614,
                "tempo": 120.0
            },
            {
                "pitch": 30,
                "velocity": 101,
                "duration": 0.0591,
                "tempo": 120.0
            },
            {
                "pitch": 27,
                "velocity": 101,
                "duration": 0.0318,
                "tempo": 120.0
            },
            {
                "pitch": 33,
                "velocity": 51,
                "duration": 0.0591,
                "tempo": 120.0
            },
            {
                "pitch": 30,
                "velocity": 51,
                "duration": 0.0614,
                "tempo": 120.0
            },
            {
                "pitch": 27,
                "velocity": 51,
                "duration": 0.0295,
                "tempo": 120.0
            },
            {
                "pitch": 33,
                "velocity": 101,
                "duration": 0.0545,
                "tempo": 120.0
            },
            {
                "pitch": 30,
                "velocity": 101,
                "duration": 0.0568,
                "tempo": 120.0
            },
            {
                "pitch": 27,
                "velocity": 101,
                "duration": 0.0273,
                "tempo": 120.0
            },
            {
                "pitch": 38,
                "velocity": 51,
                "duration": 1.6182,
                "tempo": 120.0
            },
            {
                "pitch": 33,
                "velocity": 51,
                "duration": 0.0568,
                "tempo": 120.0
            },
            {
                "pitch": 30,
                "velocity": 51,
                "duration": 0.0545,
                "tempo": 120.0
            },
            {
                "pitch": 27,
                "velocity": 51,
                "duration": 0.0295,
                "tempo": 120.0
            },
            {
                "pitch": 39,
                "velocity": 101,
                "duration": 1.5409,
                "tempo": 120.0
            },
            {
                "pitch": 33,
                "velocity": 101,
                "duration": 0.0545,
                "tempo": 120.0
            },
            {
                "pitch": 30,
                "velocity": 101,
                "duration": 0.0568,
                "tempo": 120.0
            },
            {
                "pitch": 27,
                "velocity": 101,
                "duration": 0.0273,
                "tempo": 120.0
            },
            {
                "pitch": 38,
                "velocity": 51,
                "duration": 1.5409,
                "tempo": 120.0
            },
            {
                "pitch": 33,
                "velocity": 51,
                "duration": 0.0568,
                "tempo": 120.0
            },
            {
                "pitch": 30,
                "velocity": 51,
                "duration": 0.0545,
                "tempo": 120.0
            },
            {
                "pitch": 27,
                "velocity": 51,
                "duration": 0.0295,
                "tempo": 120.0
            },
            {
                "pitch": 39,
                "velocity": 101,
                "duration": 1.5409,
                "tempo": 120.0
            },
            {
                "pitch": 33,
                "velocity": 101,
                "duration": 0.0545,
                "tempo": 120.0
            },
            {
                "pitch": 30,
                "velocity": 101,
                "duration": 0.0568,
                "tempo": 120.0
            },
            {
                "pitch": 27,
                "velocity": 101,
                "duration": 0.0273,
                "tempo": 120.0
            },
            {
                "pitch": 39,
                "velocity": 101,
                "duration": 0.5614,
                "tempo": 120.0
            },
            {
                "pitch": 33,
                "velocity": 51,
                "duration": 0.0545,
                "tempo": 120.0
            },
            {
                "pitch": 30,
                "velocity": 51,
                "duration": 0.0568,
                "tempo": 120.0
            },
            {
                "pitch": 27,
                "velocity": 51,
                "duration": 0.0273,
                "tempo": 120.0
            },
            {
                "pitch": 42,
                "velocity": 101,
                "duration": 15.2136,
                "tempo": 120.0
            },
            {
                "pitch": 33,
                "velocity": 101,
                "duration": 0.05,
                "tempo": 120.0
            },
            {
                "pitch": 30,
                "velocity": 101,
                "duration": 0.05,
                "tempo": 120.0
            },
            {
                "pitch": 27,
                "velocity": 101,
                "duration": 0.025,
                "tempo": 120.0
            },
            {
                "pitch": 39,
                "velocity": 51,
                "duration": 1.3455,
                "tempo": 120.0
            },
            {
                "pitch": 33,
                "velocity": 51,
                "duration": 0.05,
                "tempo": 120.0
            },
            {
                "pitch": 30,
                "velocity": 51,
                "duration": 0.05,
                "tempo": 120.0
            },
            {
                "pitch": 27,
                "velocity": 51,
                "duration": 0.025,
                "tempo": 120.0
            },
            {
                "pitch": 42,
                "velocity": 101,
                "duration": 1.2659,
                "tempo": 120.0
            },
            {
                "pitch": 33,
                "velocity": 101,
                "duration": 0.05,
                "tempo": 120.0
            },
            {
                "pitch": 30,
                "velocity": 101,
                "duration": 0.05,
                "tempo": 120.0
            },
            {
                "pitch": 27,
                "velocity": 101,
                "duration": 0.0273,
                "tempo": 120.0
            },
            {
                "pitch": 39,
                "velocity": 51,
                "duration": 1.2705,
                "tempo": 120.0
            },
            {
                "pitch": 33,
                "velocity": 51,
                "duration": 0.0523,
                "tempo": 120.0
            },
            {
                "pitch": 30,
                "velocity": 51,
                "duration": 0.05,
                "tempo": 120.0
            },
            {
                "pitch": 27,
                "velocity": 51,
                "duration": 0.025,
                "tempo": 120.0
            },
            {
                "pitch": 42,
                "velocity": 101,
                "duration": 1.2818,
                "tempo": 120.0
            },
            {
                "pitch": 33,
                "velocity": 101,
                "duration": 0.05,
                "tempo": 120.0
            },
            {
                "pitch": 30,
                "velocity": 101,
                "duration": 0.0523,
                "tempo": 120.0
            },
            {
                "pitch": 27,
                "velocity": 101,
                "duration": 0.025,
                "tempo": 120.0
            },
            {
                "pitch": 39,
                "velocity": 51,
                "duration": 1.2841,
                "tempo": 120.0
            },
            {
                "pitch": 33,
                "velocity": 51,
                "duration": 0.05,
                "tempo": 120.0
            },
            {
                "pitch": 30,
                "velocity": 51,
                "duration": 0.05,
                "tempo": 120.0
            },
            {
                "pitch": 27,
                "velocity": 51,
                "duration": 0.0273,
                "tempo": 120.0
            },
            {
                "pitch": 42,
                "velocity": 101,
                "duration": 1.2818,
                "tempo": 120.0
            },
            {
                "pitch": 33,
                "velocity": 101,
                "duration": 0.05,
                "tempo": 120.0
            },
            {
                "pitch": 30,
                "velocity": 101,
                "duration": 0.05,
                "tempo": 120.0
            },
            {
                "pitch": 27,
                "velocity": 101,
                "duration": 0.025,
                "tempo": 120.0
            },
            {
                "pitch": 39,
                "velocity": 51,
                "duration": 1.275,
                "tempo": 120.0
            },
            {
                "pitch": 33,
                "velocity": 51,
                "duration": 0.05,
                "tempo": 120.0
            },
            {
                "pitch": 30,
                "velocity": 51,
                "duration": 0.05,
                "tempo": 120.0
            },
            {
                "pitch": 27,
                "velocity": 51,
                "duration": 0.025,
                "tempo": 120.0
            },
            {
                "pitch": 42,
                "velocity": 101,
                "duration": 1.2659,
                "tempo": 120.0
            },
            {
                "pitch": 33,
                "velocity": 101,
                "duration": 0.05,
                "tempo": 120.0
            },
            {
                "pitch": 30,
                "velocity": 101,
                "duration": 0.05,
                "tempo": 120.0
            },
            {
                "pitch": 27,
                "velocity": 101,
                "duration": 0.0273,
                "tempo": 120.0
            },
            {
                "pitch": 39,
                "velocity": 51,
                "duration": 1.2705,
                "tempo": 120.0
            },
            {
                "pitch": 33,
                "velocity": 51,
                "duration": 0.05,
                "tempo": 120.0
            },
            {
                "pitch": 30,
                "velocity": 51,
                "duration": 0.0523,
                "tempo": 120.0
            },
            {
                "pitch": 27,
                "velocity": 51,
                "duration": 0.025,
                "tempo": 120.0
            },
            {
                "pitch": 42,
                "velocity": 101,
                "duration": 1.2818,
                "tempo": 120.0
            },
            {
                "pitch": 33,
                "velocity": 101,
                "duration": 0.05,
                "tempo": 120.0
            },
            {
                "pitch": 30,
                "velocity": 101,
                "duration": 0.05,
                "tempo": 120.0
            },
            {
                "pitch": 27,
                "velocity": 101,
                "duration": 0.025,
                "tempo": 120.0
            },
            {
                "pitch": 39,
                "velocity": 51,
                "duration": 1.275,
                "tempo": 120.0
            },
            {
                "pitch": 33,
                "velocity": 51,
                "duration": 0.05,
                "tempo": 120.0
            },
            {
                "pitch": 30,
                "velocity": 51,
                "duration": 0.0523,
                "tempo": 120.0
            },
            {
                "pitch": 27,
                "velocity": 51,
                "duration": 0.025,
                "tempo": 120.0
            },
            {
                "pitch": 42,
                "velocity": 101,
                "duration": 1.2636,
                "tempo": 120.0
            },
            {
                "pitch": 33,
                "velocity": 101,
                "duration": 0.05,
                "tempo": 120.0
            },
            {
                "pitch": 30,
                "velocity": 101,
                "duration": 0.05,
                "tempo": 120.0
            },
            {
                "pitch": 27,
                "velocity": 101,
                "duration": 0.025,
                "tempo": 120.0
            },
            {
                "pitch": 39,
                "velocity": 51,
                "duration": 1.2659,
                "tempo": 120.0
            },
            {
                "pitch": 33,
                "velocity": 51,
                "duration": 0.05,
                "tempo": 120.0
            },
            {
                "pitch": 30,
                "velocity": 51,
                "duration": 0.05,
                "tempo": 120.0
            },
            {
                "pitch": 27,
                "velocity": 51,
                "duration": 0.025,
                "tempo": 120.0
            },
            {
                "pitch": 42,
                "velocity": 101,
                "duration": 1.2659,
                "tempo": 120.0
            },
            {
                "pitch": 33,
                "velocity": 101,
                "duration": 0.05,
                "tempo": 120.0
            },
            {
                "pitch": 30,
                "velocity": 101,
                "duration": 0.05,
                "tempo": 120.0
            },
            {
                "pitch": 27,
                "velocity": 101,
                "duration": 0.0273,
                "tempo": 120.0
            },
            {
                "pitch": 39,
                "velocity": 51,
                "duration": 1.2705,
                "tempo": 120.0
            },
            {
                "pitch": 33,
                "velocity": 51,
                "duration": 0.0523,
                "tempo": 120.0
            },
            {
                "pitch": 30,
                "velocity": 51,
                "duration": 0.05,
                "tempo": 120.0
            },
            {
                "pitch": 27,
                "velocity": 51,
                "duration": 0.025,
                "tempo": 120.0
            },
            {
                "pitch": 42,
                "velocity": 101,
                "duration": 1.2818,
                "tempo": 120.0
            },
            {
                "pitch": 33,
                "velocity": 101,
                "duration": 0.05,
                "tempo": 120.0
            },
            {
                "pitch": 30,
                "velocity": 101,
                "duration": 0.05,
                "tempo": 120.0
            },
            {
                "pitch": 27,
                "velocity": 101,
                "duration": 0.025,
                "tempo": 120.0
            },
            {
                "pitch": 39,
                "velocity": 51,
                "duration": 1.275,
                "tempo": 120.0
            },
            {
                "pitch": 33,
                "velocity": 51,
                "duration": 0.05,
                "tempo": 120.0
            },
            {
                "pitch": 30,
                "velocity": 51,
                "duration": 0.0523,
                "tempo": 120.0
            },
            {
                "pitch": 27,
                "velocity": 51,
                "duration": 0.025,
                "tempo": 120.0
            },
            {
                "pitch": 42,
                "velocity": 101,
                "duration": 1.2636,
                "tempo": 120.0
            },
            {
                "pitch": 33,
                "velocity": 101,
                "duration": 0.05,
                "tempo": 120.0
            },
            {
                "pitch": 30,
                "velocity": 101,
                "duration": 0.0523,
                "tempo": 120.0
            },
            {
                "pitch": 27,
                "velocity": 101,
                "duration": 0.025,
                "tempo": 120.0
            },
            {
                "pitch": 39,
                "velocity": 51,
                "duration": 1.2727,
                "tempo": 120.0
            },
            {
                "pitch": 33,
                "velocity": 51,
                "duration": 0.05,
                "tempo": 120.0
            },
            {
                "pitch": 30,
                "velocity": 51,
                "duration": 0.0523,
                "tempo": 120.0
            },
            {
                "pitch": 27,
                "velocity": 51,
                "duration": 0.025,
                "tempo": 120.0
            },
            {
                "pitch": 42,
                "velocity": 101,
                "duration": 1.2841,
                "tempo": 120.0
            },
            {
                "pitch": 33,
                "velocity": 101,
                "duration": 0.0477,
                "tempo": 120.0
            },
            {
                "pitch": 30,
                "velocity": 101,
                "duration": 0.0523,
                "tempo": 120.0
            },
            {
                "pitch": 27,
                "velocity": 101,
                "duration": 0.025,
                "tempo": 120.0
            },
            {
                "pitch": 39,
                "velocity": 51,
                "duration": 1.275,
                "tempo": 120.0
            },
            {
                "pitch": 33,
                "velocity": 51,
                "duration": 0.05,
                "tempo": 120.0
            },
            {
                "pitch": 30,
                "velocity": 51,
                "duration": 0.05,
                "tempo": 120.0
            },
            {
                "pitch": 27,
                "velocity": 51,
                "duration": 0.025,
                "tempo": 120.0
            },
            {
                "pitch": 42,
                "velocity": 101,
                "duration": 1.2636,
                "tempo": 120.0
            },
            {
                "pitch": 33,
                "velocity": 101,
                "duration": 0.05,
                "tempo": 120.0
            },
            {
                "pitch": 30,
                "velocity": 101,
                "duration": 0.0523,
                "tempo": 120.0
            },
            {
                "pitch": 27,
                "velocity": 101,
                "duration": 0.025,
                "tempo": 120.0
            },
            {
                "pitch": 39,
                "velocity": 51,
                "duration": 1.2727,
                "tempo": 120.0
            },
            {
                "pitch": 33,
                "velocity": 51,
                "duration": 0.05,
                "tempo": 120.0
            },
            {
                "pitch": 30,
                "velocity": 51,
                "duration": 0.05,
                "tempo": 120.0
            },
            {
                "pitch": 27,
                "velocity": 51,
                "duration": 0.0273,
                "tempo": 120.0
            },
            {
                "pitch": 42,
                "velocity": 101,
                "duration": 1.2818,
                "tempo": 120.0
            },
            {
                "pitch": 33,
                "velocity": 101,
                "duration": 0.05,
                "tempo": 120.0
            },
            {
                "pitch": 30,
                "velocity": 101,
                "duration": 0.05,
                "tempo": 120.0
            },
            {
                "pitch": 27,
                "velocity": 101,
                "duration": 0.025,
                "tempo": 120.0
            },
            {
                "pitch": 39,
                "velocity": 51,
                "duration": 1.275,
                "tempo": 120.0
            },
            {
                "pitch": 33,
                "velocity": 51,
                "duration": 0.05,
                "tempo": 120.0
            },
            {
                "pitch": 30,
                "velocity": 51,
                "duration": 0.05,
                "tempo": 120.0
            },
            {
                "pitch": 27,
                "velocity": 51,
                "duration": 0.025,
                "tempo": 120.0
            },
            {
                "pitch": 42,
                "velocity": 101,
                "duration": 1.2659,
                "tempo": 120.0
            },
            {
                "pitch": 33,
                "velocity": 101,
                "duration": 0.05,
                "tempo": 120.0
            },
            {
                "pitch": 30,
                "velocity": 101,
                "duration": 0.05,
                "tempo": 120.0
            },
            {
                "pitch": 27,
                "velocity": 101,
                "duration": 0.0273,
                "tempo": 120.0
            },
            {
                "pitch": 39,
                "velocity": 51,
                "duration": 1.2705,
                "tempo": 120.0
            },
            {
                "pitch": 33,
                "velocity": 51,
                "duration": 0.05,
                "tempo": 120.0
            },
            {
                "pitch": 30,
                "velocity": 51,
                "duration": 0.0523,
                "tempo": 120.0
            },
            {
                "pitch": 27,
                "velocity": 51,
                "duration": 0.025,
                "tempo": 120.0
            },
            {
                "pitch": 42,
                "velocity": 101,
                "duration": 1.2818,
                "tempo": 120.0
            }
        ],
        "French Horn": [
            {
                "pitch": 28,
                "velocity": 16,
                "duration": 0.0591,
                "tempo": 120.0
            },
            {
                "pitch": 31,
                "velocity": 16,
                "duration": 0.0205,
                "tempo": 120.0
            },
            {
                "pitch": 31,
                "velocity": 16,
                "duration": 0.0591,
                "tempo": 120.0
            },
            {
                "pitch": 34,
                "velocity": 16,
                "duration": 0.0614,
                "tempo": 120.0
            },
            {
                "pitch": 36,
                "velocity": 16,
                "duration": 0.0614,
                "tempo": 120.0
            },
            {
                "pitch": 34,
                "velocity": 16,
                "duration": 0.0614,
                "tempo": 120.0
            },
            {
                "pitch": 31,
                "velocity": 16,
                "duration": 0.0591,
                "tempo": 120.0
            },
            {
                "pitch": 29,
                "velocity": 16,
                "duration": 0.0614,
                "tempo": 120.0
            },
            {
                "pitch": 26,
                "velocity": 16,
                "duration": 0.0409,
                "tempo": 120.0
            },
            {
                "pitch": 24,
                "velocity": 16,
                "duration": 0.0386,
                "tempo": 120.0
            },
            {
                "pitch": 21,
                "velocity": 16,
                "duration": 0.0409,
                "tempo": 120.0
            },
            {
                "pitch": 18,
                "velocity": 16,
                "duration": 0.0205,
                "tempo": 120.0
            },
            {
                "pitch": 15,
                "velocity": 16,
                "duration": 0.0614,
                "tempo": 120.0
            },
            {
                "pitch": 18,
                "velocity": 16,
                "duration": 0.0409,
                "tempo": 120.0
            },
            {
                "pitch": 21,
                "velocity": 16,
                "duration": 0.0409,
                "tempo": 120.0
            },
            {
                "pitch": 24,
                "velocity": 16,
                "duration": 0.0409,
                "tempo": 120.0
            },
            {
                "pitch": 26,
                "velocity": 16,
                "duration": 0.0409,
                "tempo": 120.0
            },
            {
                "pitch": 28,
                "velocity": 16,
                "duration": 0.0614,
                "tempo": 120.0
            },
            {
                "pitch": 31,
                "velocity": 16,
                "duration": 0.0205,
                "tempo": 120.0
            },
            {
                "pitch": 43,
                "velocity": 16,
                "duration": 0.8114,
                "tempo": 120.0
            },
            {
                "pitch": 31,
                "velocity": 16,
                "duration": 0.0614,
                "tempo": 120.0
            },
            {
                "pitch": 34,
                "velocity": 16,
                "duration": 0.0614,
                "tempo": 120.0
            },
            {
                "pitch": 36,
                "velocity": 16,
                "duration": 0.0614,
                "tempo": 120.0
            },
            {
                "pitch": 34,
                "velocity": 16,
                "duration": 0.0614,
                "tempo": 120.0
            },
            {
                "pitch": 31,
                "velocity": 16,
                "duration": 0.0614,
                "tempo": 120.0
            },
            {
                "pitch": 29,
                "velocity": 16,
                "duration": 0.0614,
                "tempo": 120.0
            },
            {
                "pitch": 26,
                "velocity": 16,
                "duration": 0.0409,
                "tempo": 120.0
            },
            {
                "pitch": 24,
                "velocity": 16,
                "duration": 0.0409,
                "tempo": 120.0
            },
            {
                "pitch": 21,
                "velocity": 16,
                "duration": 0.0409,
                "tempo": 120.0
            },
            {
                "pitch": 18,
                "velocity": 16,
                "duration": 0.0205,
                "tempo": 120.0
            },
            {
                "pitch": 15,
                "velocity": 16,
                "duration": 0.0614,
                "tempo": 120.0
            },
            {
                "pitch": 18,
                "velocity": 16,
                "duration": 0.0409,
                "tempo": 120.0
            },
            {
                "pitch": 21,
                "velocity": 16,
                "duration": 0.0409,
                "tempo": 120.0
            },
            {
                "pitch": 24,
                "velocity": 16,
                "duration": 0.0409,
                "tempo": 120.0
            },
            {
                "pitch": 26,
                "velocity": 16,
                "duration": 0.0432,
                "tempo": 120.0
            },
            {
                "pitch": 28,
                "velocity": 16,
                "duration": 0.0614,
                "tempo": 120.0
            },
            {
                "pitch": 31,
                "velocity": 16,
                "duration": 0.0205,
                "tempo": 120.0
            },
            {
                "pitch": 43,
                "velocity": 16,
                "duration": 0.8205,
                "tempo": 120.0
            },
            {
                "pitch": 31,
                "velocity": 16,
                "duration": 0.0614,
                "tempo": 120.0
            },
            {
                "pitch": 34,
                "velocity": 16,
                "duration": 0.0614,
                "tempo": 120.0
            },
            {
                "pitch": 36,
                "velocity": 16,
                "duration": 0.0636,
                "tempo": 120.0
            },
            {
                "pitch": 34,
                "velocity": 16,
                "duration": 0.0614,
                "tempo": 120.0
            },
            {
                "pitch": 31,
                "velocity": 16,
                "duration": 0.0614,
                "tempo": 120.0
            },
            {
                "pitch": 29,
                "velocity": 16,
                "duration": 0.0636,
                "tempo": 120.0
            },
            {
                "pitch": 26,
                "velocity": 16,
                "duration": 0.0409,
                "tempo": 120.0
            },
            {
                "pitch": 24,
                "velocity": 16,
                "duration": 0.0409,
                "tempo": 120.0
            },
            {
                "pitch": 21,
                "velocity": 16,
                "duration": 0.0409,
                "tempo": 120.0
            },
            {
                "pitch": 18,
                "velocity": 16,
                "duration": 0.0205,
                "tempo": 120.0
            },
            {
                "pitch": 15,
                "velocity": 16,
                "duration": 0.0636,
                "tempo": 120.0
            },
            {
                "pitch": 18,
                "velocity": 16,
                "duration": 0.0409,
                "tempo": 120.0
            },
            {
                "pitch": 21,
                "velocity": 16,
                "duration": 0.0386,
                "tempo": 120.0
            },
            {
                "pitch": 24,
                "velocity": 16,
                "duration": 0.0386,
                "tempo": 120.0
            },
            {
                "pitch": 26,
                "velocity": 16,
                "duration": 0.0409,
                "tempo": 120.0
            },
            {
                "pitch": 28,
                "velocity": 16,
                "duration": 0.0591,
                "tempo": 120.0
            },
            {
                "pitch": 31,
                "velocity": 16,
                "duration": 0.0205,
                "tempo": 120.0
            },
            {
                "pitch": 43,
                "velocity": 16,
                "duration": 0.8182,
                "tempo": 120.0
            },
            {
                "pitch": 31,
                "velocity": 16,
                "duration": 0.0591,
                "tempo": 120.0
            },
            {
                "pitch": 34,
                "velocity": 16,
                "duration": 0.0591,
                "tempo": 120.0
            },
            {
                "pitch": 36,
                "velocity": 16,
                "duration": 0.0591,
                "tempo": 120.0
            },
            {
                "pitch": 34,
                "velocity": 16,
                "duration": 0.0591,
                "tempo": 120.0
            },
            {
                "pitch": 31,
                "velocity": 16,
                "duration": 0.0591,
                "tempo": 120.0
            },
            {
                "pitch": 29,
                "velocity": 16,
                "duration": 0.0591,
                "tempo": 120.0
            },
            {
                "pitch": 26,
                "velocity": 16,
                "duration": 0.0409,
                "tempo": 120.0
            },
            {
                "pitch": 24,
                "velocity": 16,
                "duration": 0.0386,
                "tempo": 120.0
            },
            {
                "pitch": 21,
                "velocity": 16,
                "duration": 0.0409,
                "tempo": 120.0
            },
            {
                "pitch": 18,
                "velocity": 16,
                "duration": 0.0182,
                "tempo": 120.0
            },
            {
                "pitch": 15,
                "velocity": 16,
                "duration": 0.0614,
                "tempo": 120.0
            },
            {
                "pitch": 18,
                "velocity": 16,
                "duration": 0.0386,
                "tempo": 120.0
            },
            {
                "pitch": 21,
                "velocity": 16,
                "duration": 0.0409,
                "tempo": 120.0
            },
            {
                "pitch": 24,
                "velocity": 16,
                "duration": 0.0409,
                "tempo": 120.0
            },
            {
                "pitch": 26,
                "velocity": 16,
                "duration": 0.0409,
                "tempo": 120.0
            },
            {
                "pitch": 28,
                "velocity": 16,
                "duration": 0.0591,
                "tempo": 120.0
            },
            {
                "pitch": 31,
                "velocity": 16,
                "duration": 0.0205,
                "tempo": 120.0
            },
            {
                "pitch": 43,
                "velocity": 16,
                "duration": 0.7955,
                "tempo": 120.0
            },
            {
                "pitch": 31,
                "velocity": 16,
                "duration": 0.0614,
                "tempo": 120.0
            },
            {
                "pitch": 34,
                "velocity": 16,
                "duration": 0.0614,
                "tempo": 120.0
            },
            {
                "pitch": 36,
                "velocity": 16,
                "duration": 0.0591,
                "tempo": 120.0
            },
            {
                "pitch": 34,
                "velocity": 16,
                "duration": 0.0636,
                "tempo": 120.0
            },
            {
                "pitch": 31,
                "velocity": 16,
                "duration": 0.0591,
                "tempo": 120.0
            },
            {
                "pitch": 29,
                "velocity": 16,
                "duration": 0.0591,
                "tempo": 120.0
            },
            {
                "pitch": 26,
                "velocity": 16,
                "duration": 0.0409,
                "tempo": 120.0
            },
            {
                "pitch": 24,
                "velocity": 16,
                "duration": 0.0409,
                "tempo": 120.0
            },
            {
                "pitch": 21,
                "velocity": 16,
                "duration": 0.0409,
                "tempo": 120.0
            },
            {
                "pitch": 18,
                "velocity": 16,
                "duration": 0.0205,
                "tempo": 120.0
            },
            {
                "pitch": 15,
                "velocity": 16,
                "duration": 0.0614,
                "tempo": 120.0
            },
            {
                "pitch": 18,
                "velocity": 16,
                "duration": 0.0386,
                "tempo": 120.0
            },
            {
                "pitch": 21,
                "velocity": 16,
                "duration": 0.0432,
                "tempo": 120.0
            },
            {
                "pitch": 24,
                "velocity": 16,
                "duration": 0.0432,
                "tempo": 120.0
            },
            {
                "pitch": 26,
                "velocity": 16,
                "duration": 0.0409,
                "tempo": 120.0
            },
            {
                "pitch": 28,
                "velocity": 16,
                "duration": 0.0636,
                "tempo": 120.0
            },
            {
                "pitch": 31,
                "velocity": 16,
                "duration": 0.0227,
                "tempo": 120.0
            },
            {
                "pitch": 43,
                "velocity": 16,
                "duration": 0.8205,
                "tempo": 120.0
            },
            {
                "pitch": 31,
                "velocity": 16,
                "duration": 0.0614,
                "tempo": 120.0
            },
            {
                "pitch": 34,
                "velocity": 16,
                "duration": 0.0636,
                "tempo": 120.0
            },
            {
                "pitch": 36,
                "velocity": 16,
                "duration": 0.0636,
                "tempo": 120.0
            },
            {
                "pitch": 34,
                "velocity": 16,
                "duration": 0.0636,
                "tempo": 120.0
            },
            {
                "pitch": 31,
                "velocity": 16,
                "duration": 0.0636,
                "tempo": 120.0
            },
            {
                "pitch": 29,
                "velocity": 16,
                "duration": 0.0636,
                "tempo": 120.0
            },
            {
                "pitch": 26,
                "velocity": 16,
                "duration": 0.0432,
                "tempo": 120.0
            },
            {
                "pitch": 24,
                "velocity": 16,
                "duration": 0.0432,
                "tempo": 120.0
            },
            {
                "pitch": 21,
                "velocity": 16,
                "duration": 0.0409,
                "tempo": 120.0
            },
            {
                "pitch": 18,
                "velocity": 16,
                "duration": 0.0205,
                "tempo": 120.0
            },
            {
                "pitch": 15,
                "velocity": 16,
                "duration": 0.0636,
                "tempo": 120.0
            },
            {
                "pitch": 18,
                "velocity": 16,
                "duration": 0.0432,
                "tempo": 120.0
            },
            {
                "pitch": 21,
                "velocity": 16,
                "duration": 0.0409,
                "tempo": 120.0
            },
            {
                "pitch": 24,
                "velocity": 16,
                "duration": 0.0386,
                "tempo": 120.0
            },
            {
                "pitch": 26,
                "velocity": 16,
                "duration": 0.0432,
                "tempo": 120.0
            },
            {
                "pitch": 28,
                "velocity": 16,
                "duration": 0.0591,
                "tempo": 120.0
            },
            {
                "pitch": 31,
                "velocity": 16,
                "duration": 0.0205,
                "tempo": 120.0
            },
            {
                "pitch": 43,
                "velocity": 16,
                "duration": 0.8364,
                "tempo": 120.0
            },
            {
                "pitch": 31,
                "velocity": 16,
                "duration": 0.0614,
                "tempo": 120.0
            },
            {
                "pitch": 34,
                "velocity": 16,
                "duration": 0.0591,
                "tempo": 120.0
            },
            {
                "pitch": 36,
                "velocity": 16,
                "duration": 0.0614,
                "tempo": 120.0
            },
            {
                "pitch": 34,
                "velocity": 16,
                "duration": 0.0614,
                "tempo": 120.0
            },
            {
                "pitch": 31,
                "velocity": 16,
                "duration": 0.0591,
                "tempo": 120.0
            },
            {
                "pitch": 29,
                "velocity": 16,
                "duration": 0.0614,
                "tempo": 120.0
            },
            {
                "pitch": 26,
                "velocity": 16,
                "duration": 0.0409,
                "tempo": 120.0
            },
            {
                "pitch": 24,
                "velocity": 16,
                "duration": 0.0409,
                "tempo": 120.0
            },
            {
                "pitch": 21,
                "velocity": 16,
                "duration": 0.0409,
                "tempo": 120.0
            },
            {
                "pitch": 18,
                "velocity": 16,
                "duration": 0.0182,
                "tempo": 120.0
            },
            {
                "pitch": 15,
                "velocity": 16,
                "duration": 0.0636,
                "tempo": 120.0
            },
            {
                "pitch": 18,
                "velocity": 16,
                "duration": 0.0386,
                "tempo": 120.0
            },
            {
                "pitch": 21,
                "velocity": 16,
                "duration": 0.0409,
                "tempo": 120.0
            },
            {
                "pitch": 24,
                "velocity": 16,
                "duration": 0.0409,
                "tempo": 120.0
            },
            {
                "pitch": 26,
                "velocity": 16,
                "duration": 0.0432,
                "tempo": 120.0
            },
            {
                "pitch": 28,
                "velocity": 16,
                "duration": 0.0614,
                "tempo": 120.0
            },
            {
                "pitch": 31,
                "velocity": 16,
                "duration": 0.0205,
                "tempo": 120.0
            },
            {
                "pitch": 43,
                "velocity": 16,
                "duration": 0.8136,
                "tempo": 120.0
            },
            {
                "pitch": 31,
                "velocity": 16,
                "duration": 0.0614,
                "tempo": 120.0
            },
            {
                "pitch": 34,
                "velocity": 16,
                "duration": 0.0636,
                "tempo": 120.0
            },
            {
                "pitch": 36,
                "velocity": 16,
                "duration": 0.0614,
                "tempo": 120.0
            },
            {
                "pitch": 34,
                "velocity": 16,
                "duration": 0.0614,
                "tempo": 120.0
            },
            {
                "pitch": 31,
                "velocity": 16,
                "duration": 0.0614,
                "tempo": 120.0
            },
            {
                "pitch": 29,
                "velocity": 16,
                "duration": 0.0636,
                "tempo": 120.0
            },
            {
                "pitch": 26,
                "velocity": 16,
                "duration": 0.0432,
                "tempo": 120.0
            },
            {
                "pitch": 24,
                "velocity": 16,
                "duration": 0.0386,
                "tempo": 120.0
            },
            {
                "pitch": 21,
                "velocity": 16,
                "duration": 0.0409,
                "tempo": 120.0
            },
            {
                "pitch": 18,
                "velocity": 16,
                "duration": 0.0227,
                "tempo": 120.0
            },
            {
                "pitch": 15,
                "velocity": 16,
                "duration": 0.0614,
                "tempo": 120.0
            },
            {
                "pitch": 18,
                "velocity": 16,
                "duration": 0.0409,
                "tempo": 120.0
            },
            {
                "pitch": 21,
                "velocity": 16,
                "duration": 0.0409,
                "tempo": 120.0
            },
            {
                "pitch": 24,
                "velocity": 16,
                "duration": 0.0409,
                "tempo": 120.0
            },
            {
                "pitch": 26,
                "velocity": 16,
                "duration": 0.0409,
                "tempo": 120.0
            },
            {
                "pitch": 28,
                "velocity": 16,
                "duration": 0.0591,
                "tempo": 120.0
            },
            {
                "pitch": 31,
                "velocity": 16,
                "duration": 0.0205,
                "tempo": 120.0
            },
            {
                "pitch": 43,
                "velocity": 16,
                "duration": 0.8227,
                "tempo": 120.0
            },
            {
                "pitch": 31,
                "velocity": 16,
                "duration": 0.0614,
                "tempo": 120.0
            },
            {
                "pitch": 34,
                "velocity": 16,
                "duration": 0.0614,
                "tempo": 120.0
            },
            {
                "pitch": 36,
                "velocity": 16,
                "duration": 0.0591,
                "tempo": 120.0
            },
            {
                "pitch": 34,
                "velocity": 16,
                "duration": 0.0636,
                "tempo": 120.0
            },
            {
                "pitch": 31,
                "velocity": 16,
                "duration": 0.0591,
                "tempo": 120.0
            },
            {
                "pitch": 29,
                "velocity": 16,
                "duration": 0.0591,
                "tempo": 120.0
            },
            {
                "pitch": 26,
                "velocity": 16,
                "duration": 0.0409,
                "tempo": 120.0
            },
            {
                "pitch": 24,
                "velocity": 16,
                "duration": 0.0409,
                "tempo": 120.0
            },
            {
                "pitch": 21,
                "velocity": 16,
                "duration": 0.0409,
                "tempo": 120.0
            },
            {
                "pitch": 18,
                "velocity": 16,
                "duration": 0.0205,
                "tempo": 120.0
            },
            {
                "pitch": 15,
                "velocity": 16,
                "duration": 0.0614,
                "tempo": 120.0
            },
            {
                "pitch": 18,
                "velocity": 16,
                "duration": 0.0386,
                "tempo": 120.0
            },
            {
                "pitch": 21,
                "velocity": 16,
                "duration": 0.0409,
                "tempo": 120.0
            },
            {
                "pitch": 24,
                "velocity": 16,
                "duration": 0.0409,
                "tempo": 120.0
            },
            {
                "pitch": 26,
                "velocity": 16,
                "duration": 0.0409,
                "tempo": 120.0
            },
            {
                "pitch": 28,
                "velocity": 16,
                "duration": 0.0591,
                "tempo": 120.0
            },
            {
                "pitch": 31,
                "velocity": 16,
                "duration": 0.0205,
                "tempo": 120.0
            },
            {
                "pitch": 43,
                "velocity": 16,
                "duration": 0.8091,
                "tempo": 120.0
            },
            {
                "pitch": 31,
                "velocity": 16,
                "duration": 0.0614,
                "tempo": 120.0
            },
            {
                "pitch": 34,
                "velocity": 16,
                "duration": 0.0614,
                "tempo": 120.0
            },
            {
                "pitch": 36,
                "velocity": 16,
                "duration": 0.0591,
                "tempo": 120.0
            },
            {
                "pitch": 34,
                "velocity": 16,
                "duration": 0.0614,
                "tempo": 120.0
            },
            {
                "pitch": 31,
                "velocity": 16,
                "duration": 0.0614,
                "tempo": 120.0
            },
            {
                "pitch": 29,
                "velocity": 16,
                "duration": 0.0591,
                "tempo": 120.0
            },
            {
                "pitch": 26,
                "velocity": 16,
                "duration": 0.0409,
                "tempo": 120.0
            },
            {
                "pitch": 24,
                "velocity": 16,
                "duration": 0.0409,
                "tempo": 120.0
            },
            {
                "pitch": 21,
                "velocity": 16,
                "duration": 0.0409,
                "tempo": 120.0
            },
            {
                "pitch": 18,
                "velocity": 16,
                "duration": 0.0205,
                "tempo": 120.0
            },
            {
                "pitch": 15,
                "velocity": 16,
                "duration": 0.0591,
                "tempo": 120.0
            },
            {
                "pitch": 18,
                "velocity": 16,
                "duration": 0.0409,
                "tempo": 120.0
            },
            {
                "pitch": 21,
                "velocity": 16,
                "duration": 0.0409,
                "tempo": 120.0
            },
            {
                "pitch": 24,
                "velocity": 16,
                "duration": 0.0432,
                "tempo": 120.0
            },
            {
                "pitch": 26,
                "velocity": 16,
                "duration": 0.0455,
                "tempo": 120.0
            },
            {
                "pitch": 28,
                "velocity": 16,
                "duration": 0.0636,
                "tempo": 120.0
            },
            {
                "pitch": 31,
                "velocity": 16,
                "duration": 0.0205,
                "tempo": 120.0
            },
            {
                "pitch": 43,
                "velocity": 16,
                "duration": 0.8205,
                "tempo": 120.0
            },
            {
                "pitch": 31,
                "velocity": 16,
                "duration": 0.0659,
                "tempo": 120.0
            },
            {
                "pitch": 34,
                "velocity": 16,
                "duration": 0.0659,
                "tempo": 120.0
            },
            {
                "pitch": 36,
                "velocity": 16,
                "duration": 0.0636,
                "tempo": 120.0
            },
            {
                "pitch": 34,
                "velocity": 16,
                "duration": 0.0659,
                "tempo": 120.0
            },
            {
                "pitch": 31,
                "velocity": 16,
                "duration": 0.0659,
                "tempo": 120.0
            },
            {
                "pitch": 29,
                "velocity": 16,
                "duration": 0.0636,
                "tempo": 120.0
            },
            {
                "pitch": 26,
                "velocity": 16,
                "duration": 0.0432,
                "tempo": 120.0
            },
            {
                "pitch": 24,
                "velocity": 16,
                "duration": 0.0432,
                "tempo": 120.0
            },
            {
                "pitch": 21,
                "velocity": 16,
                "duration": 0.0432,
                "tempo": 120.0
            },
            {
                "pitch": 18,
                "velocity": 16,
                "duration": 0.0227,
                "tempo": 120.0
            },
            {
                "pitch": 15,
                "velocity": 16,
                "duration": 0.0659,
                "tempo": 120.0
            },
            {
                "pitch": 18,
                "velocity": 16,
                "duration": 0.0432,
                "tempo": 120.0
            },
            {
                "pitch": 21,
                "velocity": 16,
                "duration": 0.0386,
                "tempo": 120.0
            },
            {
                "pitch": 24,
                "velocity": 16,
                "duration": 0.0386,
                "tempo": 120.0
            },
            {
                "pitch": 26,
                "velocity": 16,
                "duration": 0.0409,
                "tempo": 120.0
            },
            {
                "pitch": 28,
                "velocity": 16,
                "duration": 0.0568,
                "tempo": 120.0
            },
            {
                "pitch": 31,
                "velocity": 16,
                "duration": 0.0205,
                "tempo": 120.0
            },
            {
                "pitch": 43,
                "velocity": 16,
                "duration": 0.8477,
                "tempo": 120.0
            },
            {
                "pitch": 31,
                "velocity": 16,
                "duration": 0.0591,
                "tempo": 120.0
            },
            {
                "pitch": 34,
                "velocity": 16,
                "duration": 0.0591,
                "tempo": 120.0
            },
            {
                "pitch": 36,
                "velocity": 16,
                "duration": 0.0591,
                "tempo": 120.0
            },
            {
                "pitch": 34,
                "velocity": 16,
                "duration": 0.0568,
                "tempo": 120.0
            },
            {
                "pitch": 31,
                "velocity": 16,
                "duration": 0.0591,
                "tempo": 120.0
            },
            {
                "pitch": 29,
                "velocity": 16,
                "duration": 0.0591,
                "tempo": 120.0
            },
            {
                "pitch": 26,
                "velocity": 16,
                "duration": 0.0409,
                "tempo": 120.0
            },
            {
                "pitch": 24,
                "velocity": 16,
                "duration": 0.0386,
                "tempo": 120.0
            },
            {
                "pitch": 21,
                "velocity": 16,
                "duration": 0.0386,
                "tempo": 120.0
            },
            {
                "pitch": 18,
                "velocity": 16,
                "duration": 0.0182,
                "tempo": 120.0
            },
            {
                "pitch": 15,
                "velocity": 16,
                "duration": 0.0591,
                "tempo": 120.0
            },
            {
                "pitch": 18,
                "velocity": 16,
                "duration": 0.0409,
                "tempo": 120.0
            },
            {
                "pitch": 21,
                "velocity": 16,
                "duration": 0.0386,
                "tempo": 120.0
            },
            {
                "pitch": 24,
                "velocity": 16,
                "duration": 0.0432,
                "tempo": 120.0
            },
            {
                "pitch": 26,
                "velocity": 16,
                "duration": 0.0432,
                "tempo": 120.0
            },
            {
                "pitch": 28,
                "velocity": 16,
                "duration": 0.0614,
                "tempo": 120.0
            },
            {
                "pitch": 31,
                "velocity": 16,
                "duration": 0.0227,
                "tempo": 120.0
            },
            {
                "pitch": 43,
                "velocity": 16,
                "duration": 0.7977,
                "tempo": 120.0
            },
            {
                "pitch": 31,
                "velocity": 16,
                "duration": 0.0614,
                "tempo": 120.0
            },
            {
                "pitch": 34,
                "velocity": 16,
                "duration": 0.0636,
                "tempo": 120.0
            },
            {
                "pitch": 36,
                "velocity": 16,
                "duration": 0.0636,
                "tempo": 120.0
            },
            {
                "pitch": 34,
                "velocity": 16,
                "duration": 0.0659,
                "tempo": 120.0
            },
            {
                "pitch": 31,
                "velocity": 16,
                "duration": 0.0614,
                "tempo": 120.0
            },
            {
                "pitch": 29,
                "velocity": 16,
                "duration": 0.0636,
                "tempo": 120.0
            },
            {
                "pitch": 26,
                "velocity": 16,
                "duration": 0.0432,
                "tempo": 120.0
            },
            {
                "pitch": 24,
                "velocity": 16,
                "duration": 0.0409,
                "tempo": 120.0
            },
            {
                "pitch": 21,
                "velocity": 16,
                "duration": 0.0432,
                "tempo": 120.0
            },
            {
                "pitch": 18,
                "velocity": 16,
                "duration": 0.0205,
                "tempo": 120.0
            },
            {
                "pitch": 15,
                "velocity": 16,
                "duration": 0.0659,
                "tempo": 120.0
            },
            {
                "pitch": 18,
                "velocity": 16,
                "duration": 0.0409,
                "tempo": 120.0
            },
            {
                "pitch": 21,
                "velocity": 16,
                "duration": 0.0386,
                "tempo": 120.0
            },
            {
                "pitch": 24,
                "velocity": 16,
                "duration": 0.0386,
                "tempo": 120.0
            },
            {
                "pitch": 26,
                "velocity": 16,
                "duration": 0.0409,
                "tempo": 120.0
            },
            {
                "pitch": 28,
                "velocity": 16,
                "duration": 0.0591,
                "tempo": 120.0
            },
            {
                "pitch": 31,
                "velocity": 16,
                "duration": 0.0182,
                "tempo": 120.0
            },
            {
                "pitch": 43,
                "velocity": 16,
                "duration": 0.8295,
                "tempo": 120.0
            },
            {
                "pitch": 31,
                "velocity": 16,
                "duration": 0.0591,
                "tempo": 120.0
            },
            {
                "pitch": 34,
                "velocity": 16,
                "duration": 0.0591,
                "tempo": 120.0
            },
            {
                "pitch": 36,
                "velocity": 16,
                "duration": 0.0591,
                "tempo": 120.0
            },
            {
                "pitch": 34,
                "velocity": 16,
                "duration": 0.0591,
                "tempo": 120.0
            },
            {
                "pitch": 31,
                "velocity": 16,
                "duration": 0.0568,
                "tempo": 120.0
            },
            {
                "pitch": 29,
                "velocity": 16,
                "duration": 0.0591,
                "tempo": 120.0
            },
            {
                "pitch": 26,
                "velocity": 16,
                "duration": 0.0409,
                "tempo": 120.0
            },
            {
                "pitch": 24,
                "velocity": 16,
                "duration": 0.0386,
                "tempo": 120.0
            },
            {
                "pitch": 21,
                "velocity": 16,
                "duration": 0.0386,
                "tempo": 120.0
            },
            {
                "pitch": 18,
                "velocity": 16,
                "duration": 0.0205,
                "tempo": 120.0
            },
            {
                "pitch": 15,
                "velocity": 16,
                "duration": 0.0568,
                "tempo": 120.0
            },
            {
                "pitch": 18,
                "velocity": 16,
                "duration": 0.0409,
                "tempo": 120.0
            },
            {
                "pitch": 21,
                "velocity": 16,
                "duration": 0.0409,
                "tempo": 120.0
            },
            {
                "pitch": 24,
                "velocity": 16,
                "duration": 0.0409,
                "tempo": 120.0
            },
            {
                "pitch": 26,
                "velocity": 16,
                "duration": 0.0409,
                "tempo": 120.0
            },
            {
                "pitch": 28,
                "velocity": 16,
                "duration": 0.0614,
                "tempo": 120.0
            },
            {
                "pitch": 31,
                "velocity": 16,
                "duration": 0.0205,
                "tempo": 120.0
            },
            {
                "pitch": 43,
                "velocity": 16,
                "duration": 0.7932,
                "tempo": 120.0
            },
            {
                "pitch": 31,
                "velocity": 16,
                "duration": 0.0614,
                "tempo": 120.0
            },
            {
                "pitch": 34,
                "velocity": 16,
                "duration": 0.0614,
                "tempo": 120.0
            },
            {
                "pitch": 36,
                "velocity": 16,
                "duration": 0.0614,
                "tempo": 120.0
            },
            {
                "pitch": 34,
                "velocity": 16,
                "duration": 0.0614,
                "tempo": 120.0
            },
            {
                "pitch": 31,
                "velocity": 16,
                "duration": 0.0614,
                "tempo": 120.0
            },
            {
                "pitch": 29,
                "velocity": 16,
                "duration": 0.0614,
                "tempo": 120.0
            },
            {
                "pitch": 26,
                "velocity": 16,
                "duration": 0.0409,
                "tempo": 120.0
            },
            {
                "pitch": 24,
                "velocity": 16,
                "duration": 0.0409,
                "tempo": 120.0
            },
            {
                "pitch": 21,
                "velocity": 16,
                "duration": 0.0409,
                "tempo": 120.0
            },
            {
                "pitch": 18,
                "velocity": 16,
                "duration": 0.0205,
                "tempo": 120.0
            },
            {
                "pitch": 15,
                "velocity": 16,
                "duration": 0.0636,
                "tempo": 120.0
            },
            {
                "pitch": 18,
                "velocity": 16,
                "duration": 0.0364,
                "tempo": 120.0
            },
            {
                "pitch": 21,
                "velocity": 16,
                "duration": 0.0409,
                "tempo": 120.0
            },
            {
                "pitch": 24,
                "velocity": 16,
                "duration": 0.0386,
                "tempo": 120.0
            },
            {
                "pitch": 26,
                "velocity": 16,
                "duration": 0.0409,
                "tempo": 120.0
            },
            {
                "pitch": 28,
                "velocity": 16,
                "duration": 0.0591,
                "tempo": 120.0
            },
            {
                "pitch": 31,
                "velocity": 16,
                "duration": 0.0205,
                "tempo": 120.0
            },
            {
                "pitch": 43,
                "velocity": 16,
                "duration": 0.8114,
                "tempo": 120.0
            },
            {
                "pitch": 31,
                "velocity": 16,
                "duration": 0.0591,
                "tempo": 120.0
            },
            {
                "pitch": 34,
                "velocity": 16,
                "duration": 0.0591,
                "tempo": 120.0
            },
            {
                "pitch": 36,
                "velocity": 16,
                "duration": 0.0591,
                "tempo": 120.0
            },
            {
                "pitch": 34,
                "velocity": 16,
                "duration": 0.0591,
                "tempo": 120.0
            },
            {
                "pitch": 31,
                "velocity": 16,
                "duration": 0.0591,
                "tempo": 120.0
            },
            {
                "pitch": 29,
                "velocity": 16,
                "duration": 0.0591,
                "tempo": 120.0
            },
            {
                "pitch": 26,
                "velocity": 16,
                "duration": 0.0409,
                "tempo": 120.0
            },
            {
                "pitch": 24,
                "velocity": 16,
                "duration": 0.0386,
                "tempo": 120.0
            },
            {
                "pitch": 21,
                "velocity": 16,
                "duration": 0.0409,
                "tempo": 120.0
            },
            {
                "pitch": 18,
                "velocity": 16,
                "duration": 0.0182,
                "tempo": 120.0
            },
            {
                "pitch": 15,
                "velocity": 16,
                "duration": 0.0591,
                "tempo": 120.0
            },
            {
                "pitch": 18,
                "velocity": 16,
                "duration": 0.0409,
                "tempo": 120.0
            },
            {
                "pitch": 21,
                "velocity": 16,
                "duration": 0.0409,
                "tempo": 120.0
            },
            {
                "pitch": 24,
                "velocity": 16,
                "duration": 0.0432,
                "tempo": 120.0
            },
            {
                "pitch": 26,
                "velocity": 16,
                "duration": 0.0432,
                "tempo": 120.0
            },
            {
                "pitch": 28,
                "velocity": 16,
                "duration": 0.0636,
                "tempo": 120.0
            },
            {
                "pitch": 31,
                "velocity": 16,
                "duration": 0.0205,
                "tempo": 120.0
            },
            {
                "pitch": 43,
                "velocity": 16,
                "duration": 0.8045,
                "tempo": 120.0
            },
            {
                "pitch": 31,
                "velocity": 16,
                "duration": 0.0659,
                "tempo": 120.0
            },
            {
                "pitch": 34,
                "velocity": 16,
                "duration": 0.0636,
                "tempo": 120.0
            },
            {
                "pitch": 36,
                "velocity": 16,
                "duration": 0.0636,
                "tempo": 120.0
            },
            {
                "pitch": 34,
                "velocity": 16,
                "duration": 0.0659,
                "tempo": 120.0
            },
            {
                "pitch": 31,
                "velocity": 16,
                "duration": 0.0636,
                "tempo": 120.0
            },
            {
                "pitch": 29,
                "velocity": 16,
                "duration": 0.0636,
                "tempo": 120.0
            },
            {
                "pitch": 26,
                "velocity": 16,
                "duration": 0.0432,
                "tempo": 120.0
            },
            {
                "pitch": 24,
                "velocity": 16,
                "duration": 0.0432,
                "tempo": 120.0
            },
            {
                "pitch": 21,
                "velocity": 16,
                "duration": 0.0432,
                "tempo": 120.0
            },
            {
                "pitch": 18,
                "velocity": 16,
                "duration": 0.0205,
                "tempo": 120.0
            },
            {
                "pitch": 15,
                "velocity": 16,
                "duration": 0.0659,
                "tempo": 120.0
            },
            {
                "pitch": 18,
                "velocity": 16,
                "duration": 0.0409,
                "tempo": 120.0
            },
            {
                "pitch": 21,
                "velocity": 16,
                "duration": 0.0386,
                "tempo": 120.0
            },
            {
                "pitch": 24,
                "velocity": 16,
                "duration": 0.0386,
                "tempo": 120.0
            },
            {
                "pitch": 26,
                "velocity": 16,
                "duration": 0.0386,
                "tempo": 120.0
            },
            {
                "pitch": 28,
                "velocity": 16,
                "duration": 0.0591,
                "tempo": 120.0
            },
            {
                "pitch": 31,
                "velocity": 16,
                "duration": 0.0205,
                "tempo": 120.0
            },
            {
                "pitch": 43,
                "velocity": 16,
                "duration": 0.8386,
                "tempo": 120.0
            },
            {
                "pitch": 31,
                "velocity": 16,
                "duration": 0.0591,
                "tempo": 120.0
            },
            {
                "pitch": 34,
                "velocity": 16,
                "duration": 0.0568,
                "tempo": 120.0
            },
            {
                "pitch": 36,
                "velocity": 16,
                "duration": 0.0591,
                "tempo": 120.0
            },
            {
                "pitch": 34,
                "velocity": 16,
                "duration": 0.0591,
                "tempo": 120.0
            },
            {
                "pitch": 31,
                "velocity": 16,
                "duration": 0.0591,
                "tempo": 120.0
            },
            {
                "pitch": 29,
                "velocity": 16,
                "duration": 0.0591,
                "tempo": 120.0
            },
            {
                "pitch": 26,
                "velocity": 16,
                "duration": 0.0409,
                "tempo": 120.0
            },
            {
                "pitch": 24,
                "velocity": 16,
                "duration": 0.0364,
                "tempo": 120.0
            },
            {
                "pitch": 21,
                "velocity": 16,
                "duration": 0.0409,
                "tempo": 120.0
            },
            {
                "pitch": 18,
                "velocity": 16,
                "duration": 0.0182,
                "tempo": 120.0
            },
            {
                "pitch": 15,
                "velocity": 16,
                "duration": 0.0591,
                "tempo": 120.0
            },
            {
                "pitch": 18,
                "velocity": 16,
                "duration": 0.0409,
                "tempo": 120.0
            },
            {
                "pitch": 21,
                "velocity": 16,
                "duration": 0.0386,
                "tempo": 120.0
            },
            {
                "pitch": 24,
                "velocity": 16,
                "duration": 0.0409,
                "tempo": 120.0
            },
            {
                "pitch": 26,
                "velocity": 16,
                "duration": 0.0432,
                "tempo": 120.0
            },
            {
                "pitch": 28,
                "velocity": 16,
                "duration": 0.0591,
                "tempo": 120.0
            },
            {
                "pitch": 31,
                "velocity": 16,
                "duration": 0.0205,
                "tempo": 120.0
            },
            {
                "pitch": 43,
                "velocity": 16,
                "duration": 0.7909,
                "tempo": 120.0
            },
            {
                "pitch": 31,
                "velocity": 16,
                "duration": 0.0591,
                "tempo": 120.0
            },
            {
                "pitch": 34,
                "velocity": 16,
                "duration": 0.0614,
                "tempo": 120.0
            },
            {
                "pitch": 36,
                "velocity": 16,
                "duration": 0.0614,
                "tempo": 120.0
            },
            {
                "pitch": 34,
                "velocity": 16,
                "duration": 0.0614,
                "tempo": 120.0
            },
            {
                "pitch": 31,
                "velocity": 16,
                "duration": 0.0591,
                "tempo": 120.0
            },
            {
                "pitch": 29,
                "velocity": 16,
                "duration": 0.0614,
                "tempo": 120.0
            },
            {
                "pitch": 26,
                "velocity": 16,
                "duration": 0.0409,
                "tempo": 120.0
            },
            {
                "pitch": 24,
                "velocity": 16,
                "duration": 0.0386,
                "tempo": 120.0
            },
            {
                "pitch": 21,
                "velocity": 16,
                "duration": 0.0409,
                "tempo": 120.0
            },
            {
                "pitch": 18,
                "velocity": 16,
                "duration": 0.0205,
                "tempo": 120.0
            },
            {
                "pitch": 15,
                "velocity": 16,
                "duration": 0.0636,
                "tempo": 120.0
            },
            {
                "pitch": 18,
                "velocity": 16,
                "duration": 0.0364,
                "tempo": 120.0
            },
            {
                "pitch": 21,
                "velocity": 16,
                "duration": 0.0409,
                "tempo": 120.0
            },
            {
                "pitch": 24,
                "velocity": 16,
                "duration": 0.0386,
                "tempo": 120.0
            },
            {
                "pitch": 26,
                "velocity": 16,
                "duration": 0.0409,
                "tempo": 120.0
            },
            {
                "pitch": 28,
                "velocity": 16,
                "duration": 0.0591,
                "tempo": 120.0
            },
            {
                "pitch": 31,
                "velocity": 16,
                "duration": 0.0182,
                "tempo": 120.0
            },
            {
                "pitch": 43,
                "velocity": 16,
                "duration": 0.8023,
                "tempo": 120.0
            },
            {
                "pitch": 31,
                "velocity": 16,
                "duration": 0.0591,
                "tempo": 120.0
            },
            {
                "pitch": 34,
                "velocity": 16,
                "duration": 0.0614,
                "tempo": 120.0
            },
            {
                "pitch": 36,
                "velocity": 16,
                "duration": 0.0591,
                "tempo": 120.0
            },
            {
                "pitch": 34,
                "velocity": 16,
                "duration": 0.0591,
                "tempo": 120.0
            },
            {
                "pitch": 31,
                "velocity": 16,
                "duration": 0.0591,
                "tempo": 120.0
            },
            {
                "pitch": 29,
                "velocity": 16,
                "duration": 0.0591,
                "tempo": 120.0
            },
            {
                "pitch": 26,
                "velocity": 16,
                "duration": 0.0432,
                "tempo": 120.0
            },
            {
                "pitch": 24,
                "velocity": 16,
                "duration": 0.0364,
                "tempo": 120.0
            },
            {
                "pitch": 21,
                "velocity": 16,
                "duration": 0.0386,
                "tempo": 120.0
            },
            {
                "pitch": 18,
                "velocity": 16,
                "duration": 0.0205,
                "tempo": 120.0
            },
            {
                "pitch": 15,
                "velocity": 16,
                "duration": 0.0591,
                "tempo": 120.0
            },
            {
                "pitch": 18,
                "velocity": 16,
                "duration": 0.0409,
                "tempo": 120.0
            },
            {
                "pitch": 21,
                "velocity": 16,
                "duration": 0.0432,
                "tempo": 120.0
            },
            {
                "pitch": 24,
                "velocity": 16,
                "duration": 0.0409,
                "tempo": 120.0
            },
            {
                "pitch": 26,
                "velocity": 16,
                "duration": 0.0477,
                "tempo": 120.0
            },
            {
                "pitch": 28,
                "velocity": 16,
                "duration": 0.0591,
                "tempo": 120.0
            },
            {
                "pitch": 31,
                "velocity": 16,
                "duration": 0.0205,
                "tempo": 120.0
            },
            {
                "pitch": 43,
                "velocity": 16,
                "duration": 0.8068,
                "tempo": 120.0
            },
            {
                "pitch": 31,
                "velocity": 16,
                "duration": 0.0636,
                "tempo": 120.0
            },
            {
                "pitch": 34,
                "velocity": 16,
                "duration": 0.0636,
                "tempo": 120.0
            },
            {
                "pitch": 36,
                "velocity": 16,
                "duration": 0.0636,
                "tempo": 120.0
            },
            {
                "pitch": 34,
                "velocity": 16,
                "duration": 0.0682,
                "tempo": 120.0
            },
            {
                "pitch": 31,
                "velocity": 16,
                "duration": 0.0591,
                "tempo": 120.0
            },
            {
                "pitch": 29,
                "velocity": 16,
                "duration": 0.0636,
                "tempo": 120.0
            },
            {
                "pitch": 26,
                "velocity": 16,
                "duration": 0.0432,
                "tempo": 120.0
            },
            {
                "pitch": 24,
                "velocity": 16,
                "duration": 0.0409,
                "tempo": 120.0
            },
            {
                "pitch": 21,
                "velocity": 16,
                "duration": 0.0432,
                "tempo": 120.0
            },
            {
                "pitch": 18,
                "velocity": 16,
                "duration": 0.0205,
                "tempo": 120.0
            },
            {
                "pitch": 15,
                "velocity": 16,
                "duration": 0.0682,
                "tempo": 120.0
            },
            {
                "pitch": 18,
                "velocity": 16,
                "duration": 0.0364,
                "tempo": 120.0
            },
            {
                "pitch": 21,
                "velocity": 16,
                "duration": 0.0386,
                "tempo": 120.0
            },
            {
                "pitch": 24,
                "velocity": 16,
                "duration": 0.0409,
                "tempo": 120.0
            },
            {
                "pitch": 26,
                "velocity": 16,
                "duration": 0.0386,
                "tempo": 120.0
            },
            {
                "pitch": 28,
                "velocity": 16,
                "duration": 0.0591,
                "tempo": 120.0
            },
            {
                "pitch": 31,
                "velocity": 16,
                "duration": 0.0205,
                "tempo": 120.0
            },
            {
                "pitch": 43,
                "velocity": 16,
                "duration": 0.8318,
                "tempo": 120.0
            },
            {
                "pitch": 31,
                "velocity": 16,
                "duration": 0.0591,
                "tempo": 120.0
            },
            {
                "pitch": 34,
                "velocity": 16,
                "duration": 0.0591,
                "tempo": 120.0
            },
            {
                "pitch": 36,
                "velocity": 16,
                "duration": 0.0591,
                "tempo": 120.0
            },
            {
                "pitch": 34,
                "velocity": 16,
                "duration": 0.0591,
                "tempo": 120.0
            },
            {
                "pitch": 31,
                "velocity": 16,
                "duration": 0.0591,
                "tempo": 120.0
            },
            {
                "pitch": 29,
                "velocity": 16,
                "duration": 0.0614,
                "tempo": 120.0
            },
            {
                "pitch": 26,
                "velocity": 16,
                "duration": 0.0386,
                "tempo": 120.0
            },
            {
                "pitch": 24,
                "velocity": 16,
                "duration": 0.0386,
                "tempo": 120.0
            },
            {
                "pitch": 21,
                "velocity": 16,
                "duration": 0.0409,
                "tempo": 120.0
            },
            {
                "pitch": 18,
                "velocity": 16,
                "duration": 0.0182,
                "tempo": 120.0
            },
            {
                "pitch": 15,
                "velocity": 16,
                "duration": 0.0614,
                "tempo": 120.0
            },
            {
                "pitch": 18,
                "velocity": 16,
                "duration": 0.0409,
                "tempo": 120.0
            },
            {
                "pitch": 21,
                "velocity": 16,
                "duration": 0.0386,
                "tempo": 120.0
            },
            {
                "pitch": 24,
                "velocity": 16,
                "duration": 0.0409,
                "tempo": 120.0
            },
            {
                "pitch": 26,
                "velocity": 16,
                "duration": 0.0409,
                "tempo": 120.0
            },
            {
                "pitch": 28,
                "velocity": 16,
                "duration": 0.0614,
                "tempo": 120.0
            },
            {
                "pitch": 31,
                "velocity": 16,
                "duration": 0.0182,
                "tempo": 120.0
            },
            {
                "pitch": 43,
                "velocity": 16,
                "duration": 0.7977,
                "tempo": 120.0
            },
            {
                "pitch": 43,
                "velocity": 16,
                "duration": 0.0023,
                "tempo": 120.0
            },
            {
                "pitch": 31,
                "velocity": 16,
                "duration": 0.0591,
                "tempo": 120.0
            },
            {
                "pitch": 34,
                "velocity": 16,
                "duration": 0.0614,
                "tempo": 120.0
            },
            {
                "pitch": 36,
                "velocity": 16,
                "duration": 0.0614,
                "tempo": 120.0
            },
            {
                "pitch": 34,
                "velocity": 16,
                "duration": 0.0614,
                "tempo": 120.0
            },
            {
                "pitch": 31,
                "velocity": 16,
                "duration": 0.0591,
                "tempo": 120.0
            },
            {
                "pitch": 29,
                "velocity": 16,
                "duration": 0.0614,
                "tempo": 120.0
            },
            {
                "pitch": 26,
                "velocity": 16,
                "duration": 0.0409,
                "tempo": 120.0
            },
            {
                "pitch": 24,
                "velocity": 16,
                "duration": 0.0386,
                "tempo": 120.0
            },
            {
                "pitch": 21,
                "velocity": 16,
                "duration": 0.0409,
                "tempo": 120.0
            },
            {
                "pitch": 18,
                "velocity": 16,
                "duration": 0.0205,
                "tempo": 120.0
            },
            {
                "pitch": 15,
                "velocity": 16,
                "duration": 0.0614,
                "tempo": 120.0
            },
            {
                "pitch": 18,
                "velocity": 16,
                "duration": 0.0386,
                "tempo": 120.0
            },
            {
                "pitch": 21,
                "velocity": 16,
                "duration": 0.0386,
                "tempo": 120.0
            },
            {
                "pitch": 24,
                "velocity": 16,
                "duration": 0.0409,
                "tempo": 120.0
            },
            {
                "pitch": 26,
                "velocity": 16,
                "duration": 0.0386,
                "tempo": 120.0
            },
            {
                "pitch": 28,
                "velocity": 16,
                "duration": 0.0591,
                "tempo": 120.0
            },
            {
                "pitch": 31,
                "velocity": 16,
                "duration": 0.0205,
                "tempo": 120.0
            },
            {
                "pitch": 31,
                "velocity": 16,
                "duration": 0.0591,
                "tempo": 120.0
            },
            {
                "pitch": 34,
                "velocity": 16,
                "duration": 0.0591,
                "tempo": 120.0
            },
            {
                "pitch": 36,
                "velocity": 16,
                "duration": 0.0591,
                "tempo": 120.0
            },
            {
                "pitch": 34,
                "velocity": 16,
                "duration": 0.0614,
                "tempo": 120.0
            },
            {
                "pitch": 31,
                "velocity": 16,
                "duration": 0.0591,
                "tempo": 120.0
            },
            {
                "pitch": 29,
                "velocity": 16,
                "duration": 0.0591,
                "tempo": 120.0
            },
            {
                "pitch": 26,
                "velocity": 16,
                "duration": 0.0409,
                "tempo": 120.0
            },
            {
                "pitch": 24,
                "velocity": 16,
                "duration": 0.0318,
                "tempo": 120.0
            },
            {
                "pitch": 21,
                "velocity": 16,
                "duration": 0.0341,
                "tempo": 120.0
            },
            {
                "pitch": 18,
                "velocity": 16,
                "duration": 0.0182,
                "tempo": 120.0
            },
            {
                "pitch": 15,
                "velocity": 16,
                "duration": 0.05,
                "tempo": 120.0
            },
            {
                "pitch": 18,
                "velocity": 16,
                "duration": 0.0341,
                "tempo": 120.0
            },
            {
                "pitch": 21,
                "velocity": 16,
                "duration": 0.0341,
                "tempo": 120.0
            },
            {
                "pitch": 24,
                "velocity": 16,
                "duration": 0.0341,
                "tempo": 120.0
            },
            {
                "pitch": 26,
                "velocity": 16,
                "duration": 0.0364,
                "tempo": 120.0
            },
            {
                "pitch": 28,
                "velocity": 16,
                "duration": 0.05,
                "tempo": 120.0
            },
            {
                "pitch": 31,
                "velocity": 16,
                "duration": 0.0159,
                "tempo": 120.0
            },
            {
                "pitch": 43,
                "velocity": 16,
                "duration": 0.7364,
                "tempo": 120.0
            },
            {
                "pitch": 31,
                "velocity": 16,
                "duration": 0.0523,
                "tempo": 120.0
            },
            {
                "pitch": 34,
                "velocity": 16,
                "duration": 0.05,
                "tempo": 120.0
            },
            {
                "pitch": 36,
                "velocity": 16,
                "duration": 0.0523,
                "tempo": 120.0
            },
            {
                "pitch": 47,
                "velocity": 40,
                "duration": 10.0205,
                "tempo": 120.0
            },
            {
                "pitch": 47,
                "velocity": 40,
                "duration": 3.8568,
                "tempo": 120.0
            },
            {
                "pitch": 47,
                "velocity": 40,
                "duration": 3.8364,
                "tempo": 120.0
            },
            {
                "pitch": 53,
                "velocity": 40,
                "duration": 10.4182,
                "tempo": 120.0
            },
            {
                "pitch": 47,
                "velocity": 40,
                "duration": 3.8727,
                "tempo": 120.0
            },
            {
                "pitch": 53,
                "velocity": 40,
                "duration": 10.2,
                "tempo": 120.0
            },
            {
                "pitch": 47,
                "velocity": 40,
                "duration": 3.0545,
                "tempo": 120.0
            },
            {
                "pitch": 53,
                "velocity": 40,
                "duration": 8.3114,
                "tempo": 120.0
            },
            {
                "pitch": 43,
                "velocity": 16,
                "duration": 53.75,
                "tempo": 120.0
            },
            {
                "pitch": 43,
                "velocity": 40,
                "duration": 3.5318,
                "tempo": 120.0
            },
            {
                "pitch": 53,
                "velocity": 40,
                "duration": 10.1136,
                "tempo": 120.0
            },
            {
                "pitch": 47,
                "velocity": 40,
                "duration": 3.8568,
                "tempo": 120.0
            },
            {
                "pitch": 53,
                "velocity": 40,
                "duration": 9.7932,
                "tempo": 120.0
            },
            {
                "pitch": 43,
                "velocity": 40,
                "duration": 3.0636,
                "tempo": 120.0
            },
            {
                "pitch": 53,
                "velocity": 40,
                "duration": 8.3136,
                "tempo": 120.0
            },
            {
                "pitch": 47,
                "velocity": 40,
                "duration": 3.0455,
                "tempo": 120.0
            },
            {
                "pitch": 53,
                "velocity": 40,
                "duration": 8.3273,
                "tempo": 120.0
            },
            {
                "pitch": 43,
                "velocity": 40,
                "duration": 3.0568,
                "tempo": 120.0
            },
            {
                "pitch": 53,
                "velocity": 40,
                "duration": 6.2386,
                "tempo": 120.0
            },
            {
                "pitch": 45,
                "velocity": 40,
                "duration": 2.0295,
                "tempo": 120.0
            },
            {
                "pitch": 45,
                "velocity": 40,
                "duration": 3.9932,
                "tempo": 120.0
            },
            {
                "pitch": 53,
                "velocity": 40,
                "duration": 15.2545,
                "tempo": 120.0
            },
            {
                "pitch": 47,
                "velocity": 40,
                "duration": 4.9818,
                "tempo": 120.0
            },
            {
                "pitch": 53,
                "velocity": 40,
                "duration": 13.1977,
                "tempo": 120.0
            },
            {
                "pitch": 47,
                "velocity": 40,
                "duration": 4.8136,
                "tempo": 120.0
            }
        ],
        "Vibraphone": [
            {
                "pitch": 39,
                "velocity": 40,
                "duration": 6.4727,
                "tempo": 120.0
            },
            {
                "pitch": 19,
                "velocity": 40,
                "duration": 10.4364,
                "tempo": 120.0
            },
            {
                "pitch": 39,
                "velocity": 40,
                "duration": 6.4545,
                "tempo": 120.0
            },
            {
                "pitch": 19,
                "velocity": 40,
                "duration": 10.45,
                "tempo": 120.0
            },
            {
                "pitch": 39,
                "velocity": 40,
                "duration": 6.2159,
                "tempo": 120.0
            },
            {
                "pitch": 19,
                "velocity": 40,
                "duration": 9.3773,
                "tempo": 120.0
            },
            {
                "pitch": 39,
                "velocity": 40,
                "duration": 5.1523,
                "tempo": 120.0
            },
            {
                "pitch": 39,
                "velocity": 40,
                "duration": 6.4568,
                "tempo": 120.0
            },
            {
                "pitch": 19,
                "velocity": 40,
                "duration": 19.2364,
                "tempo": 120.0
            },
            {
                "pitch": 39,
                "velocity": 40,
                "duration": 5.8227,
                "tempo": 120.0
            },
            {
                "pitch": 0,
                "velocity": 40,
                "duration": 19.425,
                "tempo": 120.0
            },
            {
                "pitch": 39,
                "velocity": 40,
                "duration": 5.15,
                "tempo": 120.0
            },
            {
                "pitch": 19,
                "velocity": 40,
                "duration": 17.2841,
                "tempo": 120.0
            },
            {
                "pitch": 39,
                "velocity": 40,
                "duration": 5.1773,
                "tempo": 120.0
            },
            {
                "pitch": 0,
                "velocity": 40,
                "duration": 16.6341,
                "tempo": 120.0
            },
            {
                "pitch": 39,
                "velocity": 40,
                "duration": 3.0795,
                "tempo": 120.0
            },
            {
                "pitch": 19,
                "velocity": 40,
                "duration": 17.6114,
                "tempo": 120.0
            },
            {
                "pitch": 39,
                "velocity": 40,
                "duration": 9.025,
                "tempo": 120.0
            },
            {
                "pitch": 19,
                "velocity": 40,
                "duration": 14.1705,
                "tempo": 120.0
            },
            {
                "pitch": 39,
                "velocity": 40,
                "duration": 8.0614,
                "tempo": 120.0
            },
            {
                "pitch": 19,
                "velocity": 40,
                "duration": 13.0295,
                "tempo": 120.0
            }
        ],
        "Oboe": [
            {
                "pitch": 52,
                "velocity": 64,
                "duration": 1.9159,
                "tempo": 120.0
            },
            {
                "pitch": 47,
                "velocity": 64,
                "duration": 3.1955,
                "tempo": 120.0
            },
            {
                "pitch": 59,
                "velocity": 64,
                "duration": 0.5909,
                "tempo": 120.0
            },
            {
                "pitch": 59,
                "velocity": 64,
                "duration": 0.5909,
                "tempo": 120.0
            },
            {
                "pitch": 27,
                "velocity": 64,
                "duration": 6.5455,
                "tempo": 120.0
            },
            {
                "pitch": 52,
                "velocity": 64,
                "duration": 3.8545,
                "tempo": 120.0
            },
            {
                "pitch": 59,
                "velocity": 64,
                "duration": 0.5864,
                "tempo": 120.0
            },
            {
                "pitch": 59,
                "velocity": 64,
                "duration": 0.5977,
                "tempo": 120.0
            },
            {
                "pitch": 27,
                "velocity": 64,
                "duration": 5.2273,
                "tempo": 120.0
            },
            {
                "pitch": 52,
                "velocity": 64,
                "duration": 3.8364,
                "tempo": 120.0
            },
            {
                "pitch": 54,
                "velocity": 64,
                "duration": 20.8045,
                "tempo": 120.0
            },
            {
                "pitch": 54,
                "velocity": 64,
                "duration": 1.2386,
                "tempo": 120.0
            },
            {
                "pitch": 47,
                "velocity": 64,
                "duration": 3.2182,
                "tempo": 120.0
            },
            {
                "pitch": 59,
                "velocity": 64,
                "duration": 0.575,
                "tempo": 120.0
            },
            {
                "pitch": 59,
                "velocity": 64,
                "duration": 0.5864,
                "tempo": 120.0
            },
            {
                "pitch": 27,
                "velocity": 64,
                "duration": 15.6364,
                "tempo": 120.0
            },
            {
                "pitch": 52,
                "velocity": 64,
                "duration": 3.8568,
                "tempo": 120.0
            },
            {
                "pitch": 64,
                "velocity": 64,
                "duration": 0.4864,
                "tempo": 120.0
            },
            {
                "pitch": 62,
                "velocity": 64,
                "duration": 0.4727,
                "tempo": 120.0
            },
            {
                "pitch": 57,
                "velocity": 64,
                "duration": 0.4682,
                "tempo": 120.0
            },
            {
                "pitch": 57,
                "velocity": 64,
                "duration": 0.0023,
                "tempo": 120.0
            },
            {
                "pitch": 59,
                "velocity": 64,
                "duration": 2.5386,
                "tempo": 120.0
            },
            {
                "pitch": 47,
                "velocity": 64,
                "duration": 0.9977,
                "tempo": 120.0
            },
            {
                "pitch": 52,
                "velocity": 64,
                "duration": 0.475,
                "tempo": 120.0
            },
            {
                "pitch": 52,
                "velocity": 64,
                "duration": 0.4682,
                "tempo": 120.0
            },
            {
                "pitch": 66,
                "velocity": 64,
                "duration": 30.7568,
                "tempo": 120.0
            },
            {
                "pitch": 55,
                "velocity": 64,
                "duration": 3.0159,
                "tempo": 120.0
            },
            {
                "pitch": 57,
                "velocity": 64,
                "duration": 0.6,
                "tempo": 120.0
            },
            {
                "pitch": 59,
                "velocity": 64,
                "duration": 3.1932,
                "tempo": 120.0
            },
            {
                "pitch": 62,
                "velocity": 64,
                "duration": 1.2364,
                "tempo": 120.0
            },
            {
                "pitch": 65,
                "velocity": 64,
                "duration": 17.1273,
                "tempo": 120.0
            },
            {
                "pitch": 59,
                "velocity": 64,
                "duration": 3.8477,
                "tempo": 120.0
            },
            {
                "pitch": 47,
                "velocity": 64,
                "duration": 1.0091,
                "tempo": 120.0
            },
            {
                "pitch": 32,
                "velocity": 64,
                "duration": 19.9182,
                "tempo": 120.0
            },
            {
                "pitch": 52,
                "velocity": 64,
                "duration": 0.4636,
                "tempo": 120.0
            },
            {
                "pitch": 52,
                "velocity": 64,
                "duration": 0.475,
                "tempo": 120.0
            },
            {
                "pitch": 66,
                "velocity": 64,
                "duration": 19.9159,
                "tempo": 120.0
            },
            {
                "pitch": 55,
                "velocity": 64,
                "duration": 19.3773,
                "tempo": 120.0
            },
            {
                "pitch": 55,
                "velocity": 64,
                "duration": 2.5386,
                "tempo": 120.0
            },
            {
                "pitch": 57,
                "velocity": 64,
                "duration": 19.2386,
                "tempo": 120.0
            },
            {
                "pitch": 57,
                "velocity": 64,
                "duration": 0.4773,
                "tempo": 120.0
            },
            {
                "pitch": 59,
                "velocity": 64,
                "duration": 2.5182,
                "tempo": 120.0
            },
            {
                "pitch": 44,
                "velocity": 64,
                "duration": 18.5955,
                "tempo": 120.0
            },
            {
                "pitch": 60,
                "velocity": 64,
                "duration": 0.4932,
                "tempo": 120.0
            },
            {
                "pitch": 62,
                "velocity": 64,
                "duration": 0.2114,
                "tempo": 120.0
            },
            {
                "pitch": 64,
                "velocity": 64,
                "duration": 35.9659,
                "tempo": 120.0
            },
            {
                "pitch": 64,
                "velocity": 64,
                "duration": 0.2114,
                "tempo": 120.0
            },
            {
                "pitch": 64,
                "velocity": 64,
                "duration": 0.4659,
                "tempo": 120.0
            },
            {
                "pitch": 67,
                "velocity": 64,
                "duration": 3.6205,
                "tempo": 120.0
            },
            {
                "pitch": 32,
                "velocity": 64,
                "duration": 18.6955,
                "tempo": 120.0
            },
            {
                "pitch": 50,
                "velocity": 64,
                "duration": 0.475,
                "tempo": 120.0
            },
            {
                "pitch": 52,
                "velocity": 64,
                "duration": 0.475,
                "tempo": 120.0
            },
            {
                "pitch": 52,
                "velocity": 64,
                "duration": 0.4659,
                "tempo": 120.0
            },
            {
                "pitch": 66,
                "velocity": 64,
                "duration": 19.2227,
                "tempo": 120.0
            },
            {
                "pitch": 57,
                "velocity": 64,
                "duration": 16.575,
                "tempo": 120.0
            },
            {
                "pitch": 57,
                "velocity": 64,
                "duration": 0.4659,
                "tempo": 120.0
            },
            {
                "pitch": 60,
                "velocity": 64,
                "duration": 15.0341,
                "tempo": 120.0
            },
            {
                "pitch": 60,
                "velocity": 64,
                "duration": 1.5182,
                "tempo": 120.0
            },
            {
                "pitch": 54,
                "velocity": 64,
                "duration": 60.5909,
                "tempo": 120.0
            },
            {
                "pitch": 54,
                "velocity": 64,
                "duration": 0.9977,
                "tempo": 120.0
            },
            {
                "pitch": 66,
                "velocity": 64,
                "duration": 3.1295,
                "tempo": 120.0
            },
            {
                "pitch": 57,
                "velocity": 64,
                "duration": 0.9591,
                "tempo": 120.0
            },
            {
                "pitch": 31,
                "velocity": 64,
                "duration": 3.6205,
                "tempo": 120.0
            },
            {
                "pitch": 62,
                "velocity": 64,
                "duration": 19.1909,
                "tempo": 120.0
            },
            {
                "pitch": 62,
                "velocity": 64,
                "duration": 2.3182,
                "tempo": 120.0
            },
            {
                "pitch": 65,
                "velocity": 64,
                "duration": 37.3568,
                "tempo": 120.0
            },
            {
                "pitch": 59,
                "velocity": 64,
                "duration": 10.8886,
                "tempo": 120.0
            },
            {
                "pitch": 59,
                "velocity": 64,
                "duration": 13.2045,
                "tempo": 120.0
            }
        ]
    }
}