{
    "track_id": "10 Boss 3",
    "mood": "angry",
    "instruments": {
        "Electric Piano 1": [
            {
                "pitch": 57,
                "velocity": 32,
                "duration": 0.5068,
                "tempo": 120.0
            },
            {
                "pitch": 52,
                "velocity": 32,
                "duration": 0.5,
                "tempo": 120.0
            },
            {
                "pitch": 57,
                "velocity": 32,
                "duration": 0.3182,
                "tempo": 120.0
            },
            {
                "pitch": 63,
                "velocity": 32,
                "duration": 0.5,
                "tempo": 120.0
            },
            {
                "pitch": 62,
                "velocity": 32,
                "duration": 0.4864,
                "tempo": 120.0
            },
            {
                "pitch": 60,
                "velocity": 32,
                "duration": 0.3159,
                "tempo": 120.0
            },
            {
                "pitch": 59,
                "velocity": 32,
                "duration": 0.5023,
                "tempo": 120.0
            },
            {
                "pitch": 60,
                "velocity": 32,
                "duration": 0.5023,
                "tempo": 120.0
            },
            {
                "pitch": 59,
                "velocity": 32,
                "duration": 0.3409,
                "tempo": 120.0
            },
            {
                "pitch": 57,
                "velocity": 32,
                "duration": 0.4955,
                "tempo": 120.0
            },
            {
                "pitch": 59,
                "velocity": 32,
                "duration": 0.5,
                "tempo": 120.0
            },
            {
                "pitch": 60,
                "velocity": 32,
                "duration": 0.325,
                "tempo": 120.0
            },
            {
                "pitch": 51,
                "velocity": 32,
                "duration": 0.5182,
                "tempo": 120.0
            },
            {
                "pitch": 55,
                "velocity": 32,
                "duration": 0.1795,
                "tempo": 120.0
            },
            {
                "pitch": 53,
                "velocity": 32,
                "duration": 1.0614,
                "tempo": 120.0
            },
            {
                "pitch": 57,
                "velocity": 32,
                "duration": 1.0364,
                "tempo": 120.0
            },
            {
                "pitch": 51,
                "velocity": 32,
                "duration": 0.5182,
                "tempo": 120.0
            },
            {
                "pitch": 55,
                "velocity": 32,
                "duration": 0.1841,
                "tempo": 120.0
            },
            {
                "pitch": 66,
                "velocity": 32,
                "duration": 2.8341,
                "tempo": 120.0
            },
            {
                "pitch": 53,
                "velocity": 32,
                "duration": 1.0523,
                "tempo": 120.0
            },
            {
                "pitch": 57,
                "velocity": 32,
                "duration": 1.0205,
                "tempo": 120.0
            },
            {
                "pitch": 57,
                "velocity": 32,
                "duration": 0.5,
                "tempo": 120.0
            },
            {
                "pitch": 52,
                "velocity": 32,
                "duration": 0.5023,
                "tempo": 120.0
            },
            {
                "pitch": 57,
                "velocity": 32,
                "duration": 0.3341,
                "tempo": 120.0
            },
            {
                "pitch": 63,
                "velocity": 32,
                "duration": 0.5023,
                "tempo": 120.0
            },
            {
                "pitch": 62,
                "velocity": 32,
                "duration": 0.5023,
                "tempo": 120.0
            },
            {
                "pitch": 60,
                "velocity": 32,
                "duration": 0.3182,
                "tempo": 120.0
            },
            {
                "pitch": 59,
                "velocity": 32,
                "duration": 0.4864,
                "tempo": 120.0
            },
            {
                "pitch": 60,
                "velocity": 32,
                "duration": 0.5023,
                "tempo": 120.0
            },
            {
                "pitch": 59,
                "velocity": 32,
                "duration": 0.3227,
                "tempo": 120.0
            },
            {
                "pitch": 57,
                "velocity": 32,
                "duration": 0.5068,
                "tempo": 120.0
            },
            {
                "pitch": 59,
                "velocity": 32,
                "duration": 0.5068,
                "tempo": 120.0
            },
            {
                "pitch": 60,
                "velocity": 32,
                "duration": 0.3182,
                "tempo": 120.0
            },
            {
                "pitch": 51,
                "velocity": 32,
                "duration": 0.5273,
                "tempo": 120.0
            },
            {
                "pitch": 55,
                "velocity": 32,
                "duration": 0.1818,
                "tempo": 120.0
            },
            {
                "pitch": 66,
                "velocity": 32,
                "duration": 8.4727,
                "tempo": 120.0
            },
            {
                "pitch": 53,
                "velocity": 32,
                "duration": 1.0568,
                "tempo": 120.0
            },
            {
                "pitch": 57,
                "velocity": 32,
                "duration": 1.0182,
                "tempo": 120.0
            },
            {
                "pitch": 51,
                "velocity": 32,
                "duration": 0.5364,
                "tempo": 120.0
            },
            {
                "pitch": 55,
                "velocity": 32,
                "duration": 0.1659,
                "tempo": 120.0
            },
            {
                "pitch": 66,
                "velocity": 32,
                "duration": 2.8114,
                "tempo": 120.0
            },
            {
                "pitch": 53,
                "velocity": 32,
                "duration": 1.0545,
                "tempo": 120.0
            },
            {
                "pitch": 57,
                "velocity": 32,
                "duration": 1.0386,
                "tempo": 120.0
            },
            {
                "pitch": 57,
                "velocity": 32,
                "duration": 0.1364,
                "tempo": 120.0
            },
            {
                "pitch": 57,
                "velocity": 20,
                "duration": 0.3136,
                "tempo": 120.0
            },
            {
                "pitch": 59,
                "velocity": 32,
                "duration": 0.3159,
                "tempo": 120.0
            },
            {
                "pitch": 59,
                "velocity": 20,
                "duration": 0.3159,
                "tempo": 120.0
            },
            {
                "pitch": 60,
                "velocity": 32,
                "duration": 0.1386,
                "tempo": 120.0
            },
            {
                "pitch": 60,
                "velocity": 20,
                "duration": 0.3295,
                "tempo": 120.0
            },
            {
                "pitch": 62,
                "velocity": 32,
                "duration": 0.3455,
                "tempo": 120.0
            },
            {
                "pitch": 62,
                "velocity": 20,
                "duration": 0.3386,
                "tempo": 120.0
            },
            {
                "pitch": 60,
                "velocity": 32,
                "duration": 0.1568,
                "tempo": 120.0
            },
            {
                "pitch": 60,
                "velocity": 20,
                "duration": 0.3318,
                "tempo": 120.0
            },
            {
                "pitch": 59,
                "velocity": 32,
                "duration": 0.3318,
                "tempo": 120.0
            },
            {
                "pitch": 59,
                "velocity": 20,
                "duration": 0.3341,
                "tempo": 120.0
            },
            {
                "pitch": 60,
                "velocity": 32,
                "duration": 0.1545,
                "tempo": 120.0
            },
            {
                "pitch": 60,
                "velocity": 20,
                "duration": 0.3136,
                "tempo": 120.0
            },
            {
                "pitch": 60,
                "velocity": 32,
                "duration": 0.3136,
                "tempo": 120.0
            },
            {
                "pitch": 59,
                "velocity": 32,
                "duration": 0.1341,
                "tempo": 120.0
            },
            {
                "pitch": 57,
                "velocity": 32,
                "duration": 0.1545,
                "tempo": 120.0
            },
            {
                "pitch": 55,
                "velocity": 32,
                "duration": 0.1364,
                "tempo": 120.0
            },
            {
                "pitch": 57,
                "velocity": 32,
                "duration": 0.5023,
                "tempo": 120.0
            },
            {
                "pitch": 52,
                "velocity": 32,
                "duration": 0.4932,
                "tempo": 120.0
            },
            {
                "pitch": 57,
                "velocity": 32,
                "duration": 0.3432,
                "tempo": 120.0
            },
            {
                "pitch": 63,
                "velocity": 32,
                "duration": 0.5023,
                "tempo": 120.0
            },
            {
                "pitch": 62,
                "velocity": 32,
                "duration": 0.5,
                "tempo": 120.0
            },
            {
                "pitch": 60,
                "velocity": 32,
                "duration": 0.3341,
                "tempo": 120.0
            },
            {
                "pitch": 59,
                "velocity": 32,
                "duration": 0.4841,
                "tempo": 120.0
            },
            {
                "pitch": 60,
                "velocity": 32,
                "duration": 0.5,
                "tempo": 120.0
            },
            {
                "pitch": 59,
                "velocity": 32,
                "duration": 0.3182,
                "tempo": 120.0
            },
            {
                "pitch": 57,
                "velocity": 32,
                "duration": 0.5,
                "tempo": 120.0
            },
            {
                "pitch": 59,
                "velocity": 32,
                "duration": 0.5205,
                "tempo": 120.0
            },
            {
                "pitch": 60,
                "velocity": 32,
                "duration": 0.3182,
                "tempo": 120.0
            },
            {
                "pitch": 57,
                "velocity": 32,
                "duration": 0.15,
                "tempo": 120.0
            },
            {
                "pitch": 57,
                "velocity": 20,
                "duration": 0.3341,
                "tempo": 120.0
            },
            {
                "pitch": 59,
                "velocity": 32,
                "duration": 0.3341,
                "tempo": 120.0
            },
            {
                "pitch": 59,
                "velocity": 20,
                "duration": 0.3341,
                "tempo": 120.0
            },
            {
                "pitch": 60,
                "velocity": 32,
                "duration": 0.1568,
                "tempo": 120.0
            },
            {
                "pitch": 60,
                "velocity": 20,
                "duration": 0.3136,
                "tempo": 120.0
            },
            {
                "pitch": 62,
                "velocity": 32,
                "duration": 0.3159,
                "tempo": 120.0
            },
            {
                "pitch": 62,
                "velocity": 20,
                "duration": 0.3159,
                "tempo": 120.0
            },
            {
                "pitch": 60,
                "velocity": 32,
                "duration": 0.1545,
                "tempo": 120.0
            },
            {
                "pitch": 60,
                "velocity": 20,
                "duration": 0.3136,
                "tempo": 120.0
            },
            {
                "pitch": 59,
                "velocity": 32,
                "duration": 0.3136,
                "tempo": 120.0
            },
            {
                "pitch": 59,
                "velocity": 20,
                "duration": 0.3182,
                "tempo": 120.0
            },
            {
                "pitch": 60,
                "velocity": 32,
                "duration": 0.1545,
                "tempo": 120.0
            },
            {
                "pitch": 60,
                "velocity": 20,
                "duration": 0.3136,
                "tempo": 120.0
            },
            {
                "pitch": 60,
                "velocity": 32,
                "duration": 0.3136,
                "tempo": 120.0
            },
            {
                "pitch": 59,
                "velocity": 32,
                "duration": 0.1523,
                "tempo": 120.0
            },
            {
                "pitch": 60,
                "velocity": 32,
                "duration": 0.1545,
                "tempo": 120.0
            },
            {
                "pitch": 62,
                "velocity": 32,
                "duration": 0.1545,
                "tempo": 120.0
            },
            {
                "pitch": 64,
                "velocity": 32,
                "duration": 0.4841,
                "tempo": 120.0
            },
            {
                "pitch": 65,
                "velocity": 32,
                "duration": 0.4909,
                "tempo": 120.0
            },
            {
                "pitch": 64,
                "velocity": 32,
                "duration": 0.325,
                "tempo": 120.0
            },
            {
                "pitch": 62,
                "velocity": 32,
                "duration": 0.4841,
                "tempo": 120.0
            },
            {
                "pitch": 60,
                "velocity": 32,
                "duration": 0.5136,
                "tempo": 120.0
            },
            {
                "pitch": 59,
                "velocity": 32,
                "duration": 0.325,
                "tempo": 120.0
            },
            {
                "pitch": 64,
                "velocity": 32,
                "duration": 0.5023,
                "tempo": 120.0
            },
            {
                "pitch": 65,
                "velocity": 32,
                "duration": 0.4909,
                "tempo": 120.0
            },
            {
                "pitch": 67,
                "velocity": 32,
                "duration": 0.325,
                "tempo": 120.0
            },
            {
                "pitch": 68,
                "velocity": 32,
                "duration": 1.3705,
                "tempo": 120.0
            }
        ],
        "Vibraphone": [
            {
                "pitch": 76,
                "velocity": 80,
                "duration": 0.0523,
                "tempo": 120.0
            },
            {
                "pitch": 81,
                "velocity": 80,
                "duration": 0.05,
                "tempo": 120.0
            },
            {
                "pitch": 83,
                "velocity": 80,
                "duration": 0.0682,
                "tempo": 120.0
            },
            {
                "pitch": 86,
                "velocity": 80,
                "duration": 0.0682,
                "tempo": 120.0
            },
            {
                "pitch": 84,
                "velocity": 80,
                "duration": 0.05,
                "tempo": 120.0
            },
            {
                "pitch": 83,
                "velocity": 80,
                "duration": 0.05,
                "tempo": 120.0
            },
            {
                "pitch": 84,
                "velocity": 80,
                "duration": 0.0659,
                "tempo": 120.0
            },
            {
                "pitch": 81,
                "velocity": 80,
                "duration": 0.0659,
                "tempo": 120.0
            },
            {
                "pitch": 83,
                "velocity": 80,
                "duration": 0.05,
                "tempo": 120.0
            },
            {
                "pitch": 84,
                "velocity": 80,
                "duration": 0.0659,
                "tempo": 120.0
            },
            {
                "pitch": 86,
                "velocity": 80,
                "duration": 0.0682,
                "tempo": 120.0
            },
            {
                "pitch": 83,
                "velocity": 80,
                "duration": 0.0477,
                "tempo": 120.0
            },
            {
                "pitch": 84,
                "velocity": 80,
                "duration": 0.05,
                "tempo": 120.0
            },
            {
                "pitch": 86,
                "velocity": 80,
                "duration": 0.0659,
                "tempo": 120.0
            },
            {
                "pitch": 88,
                "velocity": 80,
                "duration": 0.0659,
                "tempo": 120.0
            },
            {
                "pitch": 84,
                "velocity": 80,
                "duration": 0.05,
                "tempo": 120.0
            },
            {
                "pitch": 76,
                "velocity": 80,
                "duration": 0.05,
                "tempo": 120.0
            },
            {
                "pitch": 81,
                "velocity": 80,
                "duration": 0.0659,
                "tempo": 120.0
            },
            {
                "pitch": 83,
                "velocity": 80,
                "duration": 0.0682,
                "tempo": 120.0
            },
            {
                "pitch": 86,
                "velocity": 80,
                "duration": 0.05,
                "tempo": 120.0
            },
            {
                "pitch": 84,
                "velocity": 80,
                "duration": 0.05,
                "tempo": 120.0
            },
            {
                "pitch": 83,
                "velocity": 80,
                "duration": 0.0659,
                "tempo": 120.0
            },
            {
                "pitch": 84,
                "velocity": 80,
                "duration": 0.0659,
                "tempo": 120.0
            },
            {
                "pitch": 81,
                "velocity": 80,
                "duration": 0.05,
                "tempo": 120.0
            },
            {
                "pitch": 83,
                "velocity": 80,
                "duration": 0.05,
                "tempo": 120.0
            },
            {
                "pitch": 84,
                "velocity": 80,
                "duration": 0.0659,
                "tempo": 120.0
            },
            {
                "pitch": 86,
                "velocity": 80,
                "duration": 0.0682,
                "tempo": 120.0
            },
            {
                "pitch": 83,
                "velocity": 80,
                "duration": 0.05,
                "tempo": 120.0
            },
            {
                "pitch": 84,
                "velocity": 80,
                "duration": 0.05,
                "tempo": 120.0
            },
            {
                "pitch": 86,
                "velocity": 80,
                "duration": 0.0682,
                "tempo": 120.0
            },
            {
                "pitch": 88,
                "velocity": 80,
                "duration": 0.0659,
                "tempo": 120.0
            },
            {
                "pitch": 84,
                "velocity": 80,
                "duration": 0.05,
                "tempo": 120.0
            },
            {
                "pitch": 76,
                "velocity": 80,
                "duration": 0.05,
                "tempo": 120.0
            },
            {
                "pitch": 81,
                "velocity": 80,
                "duration": 0.0659,
                "tempo": 120.0
            },
            {
                "pitch": 83,
                "velocity": 80,
                "duration": 0.05,
                "tempo": 120.0
            },
            {
                "pitch": 86,
                "velocity": 80,
                "duration": 0.05,
                "tempo": 120.0
            },
            {
                "pitch": 84,
                "velocity": 80,
                "duration": 0.0682,
                "tempo": 120.0
            },
            {
                "pitch": 83,
                "velocity": 80,
                "duration": 0.0682,
                "tempo": 120.0
            },
            {
                "pitch": 84,
                "velocity": 80,
                "duration": 0.05,
                "tempo": 120.0
            },
            {
                "pitch": 81,
                "velocity": 80,
                "duration": 0.05,
                "tempo": 120.0
            },
            {
                "pitch": 83,
                "velocity": 80,
                "duration": 0.0659,
                "tempo": 120.0
            },
            {
                "pitch": 84,
                "velocity": 80,
                "duration": 0.0659,
                "tempo": 120.0
            },
            {
                "pitch": 86,
                "velocity": 80,
                "duration": 0.05,
                "tempo": 120.0
            },
            {
                "pitch": 83,
                "velocity": 80,
                "duration": 0.05,
                "tempo": 120.0
            },
            {
                "pitch": 84,
                "velocity": 80,
                "duration": 0.0682,
                "tempo": 120.0
            },
            {
                "pitch": 86,
                "velocity": 80,
                "duration": 0.0705,
                "tempo": 120.0
            },
            {
                "pitch": 88,
                "velocity": 80,
                "duration": 0.05,
                "tempo": 120.0
            },
            {
                "pitch": 84,
                "velocity": 80,
                "duration": 0.05,
                "tempo": 120.0
            },
            {
                "pitch": 76,
                "velocity": 80,
                "duration": 0.0659,
                "tempo": 120.0
            },
            {
                "pitch": 81,
                "velocity": 80,
                "duration": 0.0659,
                "tempo": 120.0
            },
            {
                "pitch": 83,
                "velocity": 80,
                "duration": 0.05,
                "tempo": 120.0
            },
            {
                "pitch": 86,
                "velocity": 80,
                "duration": 0.0477,
                "tempo": 120.0
            },
            {
                "pitch": 84,
                "velocity": 80,
                "duration": 0.0659,
                "tempo": 120.0
            },
            {
                "pitch": 83,
                "velocity": 80,
                "duration": 0.0659,
                "tempo": 120.0
            },
            {
                "pitch": 84,
                "velocity": 80,
                "duration": 0.0477,
                "tempo": 120.0
            },
            {
                "pitch": 81,
                "velocity": 80,
                "duration": 0.0477,
                "tempo": 120.0
            },
            {
                "pitch": 83,
                "velocity": 80,
                "duration": 0.0682,
                "tempo": 120.0
            },
            {
                "pitch": 84,
                "velocity": 80,
                "duration": 0.0682,
                "tempo": 120.0
            },
            {
                "pitch": 86,
                "velocity": 80,
                "duration": 0.05,
                "tempo": 120.0
            },
            {
                "pitch": 83,
                "velocity": 80,
                "duration": 0.0682,
                "tempo": 120.0
            },
            {
                "pitch": 84,
                "velocity": 80,
                "duration": 0.0682,
                "tempo": 120.0
            },
            {
                "pitch": 86,
                "velocity": 80,
                "duration": 0.0523,
                "tempo": 120.0
            },
            {
                "pitch": 88,
                "velocity": 80,
                "duration": 0.0523,
                "tempo": 120.0
            },
            {
                "pitch": 84,
                "velocity": 80,
                "duration": 0.0682,
                "tempo": 120.0
            },
            {
                "pitch": 76,
                "velocity": 80,
                "duration": 0.0659,
                "tempo": 120.0
            },
            {
                "pitch": 81,
                "velocity": 80,
                "duration": 0.05,
                "tempo": 120.0
            },
            {
                "pitch": 83,
                "velocity": 80,
                "duration": 0.05,
                "tempo": 120.0
            },
            {
                "pitch": 86,
                "velocity": 80,
                "duration": 0.0659,
                "tempo": 120.0
            },
            {
                "pitch": 84,
                "velocity": 80,
                "duration": 0.0659,
                "tempo": 120.0
            },
            {
                "pitch": 83,
                "velocity": 80,
                "duration": 0.05,
                "tempo": 120.0
            },
            {
                "pitch": 84,
                "velocity": 80,
                "duration": 0.05,
                "tempo": 120.0
            },
            {
                "pitch": 81,
                "velocity": 80,
                "duration": 0.0682,
                "tempo": 120.0
            },
            {
                "pitch": 83,
                "velocity": 80,
                "duration": 0.0659,
                "tempo": 120.0
            },
            {
                "pitch": 84,
                "velocity": 80,
                "duration": 0.0477,
                "tempo": 120.0
            },
            {
                "pitch": 86,
                "velocity": 80,
                "duration": 0.0477,
                "tempo": 120.0
            },
            {
                "pitch": 83,
                "velocity": 80,
                "duration": 0.0636,
                "tempo": 120.0
            },
            {
                "pitch": 84,
                "velocity": 80,
                "duration": 0.0682,
                "tempo": 120.0
            },
            {
                "pitch": 86,
                "velocity": 80,
                "duration": 0.05,
                "tempo": 120.0
            },
            {
                "pitch": 88,
                "velocity": 80,
                "duration": 0.05,
                "tempo": 120.0
            },
            {
                "pitch": 84,
                "velocity": 80,
                "duration": 0.0705,
                "tempo": 120.0
            },
            {
                "pitch": 76,
                "velocity": 80,
                "duration": 0.0682,
                "tempo": 120.0
            },
            {
                "pitch": 81,
                "velocity": 80,
                "duration": 0.05,
                "tempo": 120.0
            },
            {
                "pitch": 83,
                "velocity": 80,
                "duration": 0.0682,
                "tempo": 120.0
            },
            {
                "pitch": 86,
                "velocity": 80,
                "duration": 0.0682,
                "tempo": 120.0
            },
            {
                "pitch": 84,
                "velocity": 80,
                "duration": 0.0523,
                "tempo": 120.0
            },
            {
                "pitch": 83,
                "velocity": 80,
                "duration": 0.0523,
                "tempo": 120.0
            },
            {
                "pitch": 84,
                "velocity": 80,
                "duration": 0.0705,
                "tempo": 120.0
            },
            {
                "pitch": 81,
                "velocity": 80,
                "duration": 0.0705,
                "tempo": 120.0
            },
            {
                "pitch": 83,
                "velocity": 80,
                "duration": 0.05,
                "tempo": 120.0
            },
            {
                "pitch": 84,
                "velocity": 80,
                "duration": 0.0477,
                "tempo": 120.0
            },
            {
                "pitch": 86,
                "velocity": 80,
                "duration": 0.0636,
                "tempo": 120.0
            },
            {
                "pitch": 83,
                "velocity": 80,
                "duration": 0.0659,
                "tempo": 120.0
            },
            {
                "pitch": 84,
                "velocity": 80,
                "duration": 0.0523,
                "tempo": 120.0
            },
            {
                "pitch": 86,
                "velocity": 80,
                "duration": 0.0523,
                "tempo": 120.0
            },
            {
                "pitch": 88,
                "velocity": 80,
                "duration": 0.0682,
                "tempo": 120.0
            },
            {
                "pitch": 84,
                "velocity": 80,
                "duration": 0.0682,
                "tempo": 120.0
            },
            {
                "pitch": 76,
                "velocity": 80,
                "duration": 0.0477,
                "tempo": 120.0
            },
            {
                "pitch": 81,
                "velocity": 80,
                "duration": 0.05,
                "tempo": 120.0
            },
            {
                "pitch": 83,
                "velocity": 80,
                "duration": 0.0659,
                "tempo": 120.0
            },
            {
                "pitch": 86,
                "velocity": 80,
                "duration": 0.0659,
                "tempo": 120.0
            },
            {
                "pitch": 84,
                "velocity": 80,
                "duration": 0.05,
                "tempo": 120.0
            },
            {
                "pitch": 83,
                "velocity": 80,
                "duration": 0.05,
                "tempo": 120.0
            },
            {
                "pitch": 84,
                "velocity": 80,
                "duration": 0.0659,
                "tempo": 120.0
            },
            {
                "pitch": 81,
                "velocity": 80,
                "duration": 0.0682,
                "tempo": 120.0
            },
            {
                "pitch": 83,
                "velocity": 80,
                "duration": 0.05,
                "tempo": 120.0
            },
            {
                "pitch": 84,
                "velocity": 80,
                "duration": 0.05,
                "tempo": 120.0
            },
            {
                "pitch": 86,
                "velocity": 80,
                "duration": 0.0659,
                "tempo": 120.0
            },
            {
                "pitch": 83,
                "velocity": 80,
                "duration": 0.05,
                "tempo": 120.0
            },
            {
                "pitch": 84,
                "velocity": 80,
                "duration": 0.05,
                "tempo": 120.0
            },
            {
                "pitch": 86,
                "velocity": 80,
                "duration": 0.0659,
                "tempo": 120.0
            },
            {
                "pitch": 88,
                "velocity": 80,
                "duration": 0.0659,
                "tempo": 120.0
            },
            {
                "pitch": 84,
                "velocity": 80,
                "duration": 0.05,
                "tempo": 120.0
            },
            {
                "pitch": 76,
                "velocity": 80,
                "duration": 0.05,
                "tempo": 120.0
            },
            {
                "pitch": 81,
                "velocity": 80,
                "duration": 0.0682,
                "tempo": 120.0
            },
            {
                "pitch": 83,
                "velocity": 80,
                "duration": 0.0659,
                "tempo": 120.0
            },
            {
                "pitch": 86,
                "velocity": 80,
                "duration": 0.05,
                "tempo": 120.0
            },
            {
                "pitch": 84,
                "velocity": 80,
                "duration": 0.05,
                "tempo": 120.0
            },
            {
                "pitch": 83,
                "velocity": 80,
                "duration": 0.0659,
                "tempo": 120.0
            },
            {
                "pitch": 84,
                "velocity": 80,
                "duration": 0.0659,
                "tempo": 120.0
            },
            {
                "pitch": 81,
                "velocity": 80,
                "duration": 0.05,
                "tempo": 120.0
            },
            {
                "pitch": 83,
                "velocity": 80,
                "duration": 0.05,
                "tempo": 120.0
            },
            {
                "pitch": 84,
                "velocity": 80,
                "duration": 0.0682,
                "tempo": 120.0
            },
            {
                "pitch": 86,
                "velocity": 80,
                "duration": 0.0682,
                "tempo": 120.0
            },
            {
                "pitch": 83,
                "velocity": 80,
                "duration": 0.05,
                "tempo": 120.0
            },
            {
                "pitch": 84,
                "velocity": 80,
                "duration": 0.05,
                "tempo": 120.0
            },
            {
                "pitch": 86,
                "velocity": 80,
                "duration": 0.0659,
                "tempo": 120.0
            },
            {
                "pitch": 88,
                "velocity": 80,
                "duration": 0.0659,
                "tempo": 120.0
            },
            {
                "pitch": 84,
                "velocity": 80,
                "duration": 0.05,
                "tempo": 120.0
            },
            {
                "pitch": 76,
                "velocity": 80,
                "duration": 0.05,
                "tempo": 120.0
            },
            {
                "pitch": 81,
                "velocity": 80,
                "duration": 0.0682,
                "tempo": 120.0
            },
            {
                "pitch": 83,
                "velocity": 80,
                "duration": 0.0682,
                "tempo": 120.0
            },
            {
                "pitch": 86,
                "velocity": 80,
                "duration": 0.05,
                "tempo": 120.0
            },
            {
                "pitch": 84,
                "velocity": 80,
                "duration": 0.0682,
                "tempo": 120.0
            },
            {
                "pitch": 83,
                "velocity": 80,
                "duration": 0.0659,
                "tempo": 120.0
            },
            {
                "pitch": 84,
                "velocity": 80,
                "duration": 0.05,
                "tempo": 120.0
            },
            {
                "pitch": 81,
                "velocity": 80,
                "duration": 0.05,
                "tempo": 120.0
            },
            {
                "pitch": 83,
                "velocity": 80,
                "duration": 0.0659,
                "tempo": 120.0
            },
            {
                "pitch": 84,
                "velocity": 80,
                "duration": 0.0659,
                "tempo": 120.0
            },
            {
                "pitch": 86,
                "velocity": 80,
                "duration": 0.05,
                "tempo": 120.0
            },
            {
                "pitch": 83,
                "velocity": 80,
                "duration": 0.0477,
                "tempo": 120.0
            },
            {
                "pitch": 84,
                "velocity": 80,
                "duration": 0.0682,
                "tempo": 120.0
            },
            {
                "pitch": 86,
                "velocity": 80,
                "duration": 0.0659,
                "tempo": 120.0
            },
            {
                "pitch": 88,
                "velocity": 80,
                "duration": 0.05,
                "tempo": 120.0
            },
            {
                "pitch": 84,
                "velocity": 80,
                "duration": 0.05,
                "tempo": 120.0
            },
            {
                "pitch": 76,
                "velocity": 80,
                "duration": 0.0659,
                "tempo": 120.0
            },
            {
                "pitch": 81,
                "velocity": 80,
                "duration": 0.0659,
                "tempo": 120.0
            },
            {
                "pitch": 83,
                "velocity": 80,
                "duration": 0.05,
                "tempo": 120.0
            },
            {
                "pitch": 86,
                "velocity": 80,
                "duration": 0.05,
                "tempo": 120.0
            },
            {
                "pitch": 84,
                "velocity": 80,
                "duration": 0.0682,
                "tempo": 120.0
            },
            {
                "pitch": 83,
                "velocity": 80,
                "duration": 0.0659,
                "tempo": 120.0
            },
            {
                "pitch": 84,
                "velocity": 80,
                "duration": 0.05,
                "tempo": 120.0
            },
            {
                "pitch": 81,
                "velocity": 80,
                "duration": 0.05,
                "tempo": 120.0
            },
            {
                "pitch": 83,
                "velocity": 80,
                "duration": 0.0659,
                "tempo": 120.0
            },
            {
                "pitch": 84,
                "velocity": 80,
                "duration": 0.0659,
                "tempo": 120.0
            },
            {
                "pitch": 86,
                "velocity": 80,
                "duration": 0.05,
                "tempo": 120.0
            },
            {
                "pitch": 83,
                "velocity": 80,
                "duration": 0.0659,
                "tempo": 120.0
            },
            {
                "pitch": 84,
                "velocity": 80,
                "duration": 0.0682,
                "tempo": 120.0
            },
            {
                "pitch": 86,
                "velocity": 80,
                "duration": 0.05,
                "tempo": 120.0
            },
            {
                "pitch": 88,
                "velocity": 80,
                "duration": 0.05,
                "tempo": 120.0
            },
            {
                "pitch": 84,
                "velocity": 80,
                "duration": 0.0659,
                "tempo": 120.0
            },
            {
                "pitch": 76,
                "velocity": 80,
                "duration": 0.0659,
                "tempo": 120.0
            },
            {
                "pitch": 81,
                "velocity": 80,
                "duration": 0.05,
                "tempo": 120.0
            },
            {
                "pitch": 83,
                "velocity": 80,
                "duration": 0.05,
                "tempo": 120.0
            },
            {
                "pitch": 86,
                "velocity": 80,
                "duration": 0.0659,
                "tempo": 120.0
            },
            {
                "pitch": 84,
                "velocity": 80,
                "duration": 0.0682,
                "tempo": 120.0
            },
            {
                "pitch": 83,
                "velocity": 80,
                "duration": 0.05,
                "tempo": 120.0
            },
            {
                "pitch": 84,
                "velocity": 80,
                "duration": 0.05,
                "tempo": 120.0
            },
            {
                "pitch": 81,
                "velocity": 80,
                "duration": 0.0682,
                "tempo": 120.0
            },
            {
                "pitch": 83,
                "velocity": 80,
                "duration": 0.0659,
                "tempo": 120.0
            },
            {
                "pitch": 84,
                "velocity": 80,
                "duration": 0.05,
                "tempo": 120.0
            },
            {
                "pitch": 86,
                "velocity": 80,
                "duration": 0.05,
                "tempo": 120.0
            },
            {
                "pitch": 83,
                "velocity": 80,
                "duration": 0.0659,
                "tempo": 120.0
            },
            {
                "pitch": 84,
                "velocity": 80,
                "duration": 0.0682,
                "tempo": 120.0
            },
            {
                "pitch": 86,
                "velocity": 80,
                "duration": 0.0523,
                "tempo": 120.0
            },
            {
                "pitch": 88,
                "velocity": 80,
                "duration": 0.05,
                "tempo": 120.0
            },
            {
                "pitch": 84,
                "velocity": 80,
                "duration": 0.0682,
                "tempo": 120.0
            },
            {
                "pitch": 76,
                "velocity": 80,
                "duration": 0.0636,
                "tempo": 120.0
            },
            {
                "pitch": 81,
                "velocity": 80,
                "duration": 0.0477,
                "tempo": 120.0
            },
            {
                "pitch": 83,
                "velocity": 80,
                "duration": 0.05,
                "tempo": 120.0
            },
            {
                "pitch": 86,
                "velocity": 80,
                "duration": 0.0659,
                "tempo": 120.0
            },
            {
                "pitch": 84,
                "velocity": 80,
                "duration": 0.0523,
                "tempo": 120.0
            },
            {
                "pitch": 83,
                "velocity": 80,
                "duration": 0.0523,
                "tempo": 120.0
            },
            {
                "pitch": 84,
                "velocity": 80,
                "duration": 0.0682,
                "tempo": 120.0
            },
            {
                "pitch": 81,
                "velocity": 80,
                "duration": 0.0705,
                "tempo": 120.0
            },
            {
                "pitch": 83,
                "velocity": 80,
                "duration": 0.05,
                "tempo": 120.0
            },
            {
                "pitch": 84,
                "velocity": 80,
                "duration": 0.05,
                "tempo": 120.0
            },
            {
                "pitch": 86,
                "velocity": 80,
                "duration": 0.0659,
                "tempo": 120.0
            },
            {
                "pitch": 83,
                "velocity": 80,
                "duration": 0.0682,
                "tempo": 120.0
            },
            {
                "pitch": 84,
                "velocity": 80,
                "duration": 0.0477,
                "tempo": 120.0
            },
            {
                "pitch": 86,
                "velocity": 80,
                "duration": 0.05,
                "tempo": 120.0
            },
            {
                "pitch": 88,
                "velocity": 80,
                "duration": 0.0659,
                "tempo": 120.0
            },
            {
                "pitch": 84,
                "velocity": 80,
                "duration": 0.0659,
                "tempo": 120.0
            },
            {
                "pitch": 76,
                "velocity": 80,
                "duration": 0.0523,
                "tempo": 120.0
            },
            {
                "pitch": 81,
                "velocity": 80,
                "duration": 0.05,
                "tempo": 120.0
            },
            {
                "pitch": 83,
                "velocity": 80,
                "duration": 0.0682,
                "tempo": 120.0
            },
            {
                "pitch": 86,
                "velocity": 80,
                "duration": 0.0682,
                "tempo": 120.0
            },
            {
                "pitch": 84,
                "velocity": 80,
                "duration": 0.05,
                "tempo": 120.0
            },
            {
                "pitch": 83,
                "velocity": 80,
                "duration": 0.05,
                "tempo": 120.0
            },
            {
                "pitch": 84,
                "velocity": 80,
                "duration": 0.0659,
                "tempo": 120.0
            },
            {
                "pitch": 81,
                "velocity": 80,
                "duration": 0.0659,
                "tempo": 120.0
            },
            {
                "pitch": 83,
                "velocity": 80,
                "duration": 0.0477,
                "tempo": 120.0
            },
            {
                "pitch": 84,
                "velocity": 80,
                "duration": 0.0477,
                "tempo": 120.0
            },
            {
                "pitch": 86,
                "velocity": 80,
                "duration": 0.0659,
                "tempo": 120.0
            },
            {
                "pitch": 83,
                "velocity": 80,
                "duration": 0.0659,
                "tempo": 120.0
            },
            {
                "pitch": 84,
                "velocity": 80,
                "duration": 0.05,
                "tempo": 120.0
            },
            {
                "pitch": 86,
                "velocity": 80,
                "duration": 0.0682,
                "tempo": 120.0
            },
            {
                "pitch": 88,
                "velocity": 80,
                "duration": 0.0705,
                "tempo": 120.0
            },
            {
                "pitch": 84,
                "velocity": 80,
                "duration": 0.0523,
                "tempo": 120.0
            },
            {
                "pitch": 76,
                "velocity": 80,
                "duration": 0.05,
                "tempo": 120.0
            },
            {
                "pitch": 81,
                "velocity": 80,
                "duration": 0.0659,
                "tempo": 120.0
            },
            {
                "pitch": 83,
                "velocity": 80,
                "duration": 0.0659,
                "tempo": 120.0
            },
            {
                "pitch": 86,
                "velocity": 80,
                "duration": 0.05,
                "tempo": 120.0
            },
            {
                "pitch": 84,
                "velocity": 80,
                "duration": 0.0477,
                "tempo": 120.0
            },
            {
                "pitch": 83,
                "velocity": 80,
                "duration": 0.0682,
                "tempo": 120.0
            },
            {
                "pitch": 84,
                "velocity": 80,
                "duration": 0.0659,
                "tempo": 120.0
            },
            {
                "pitch": 81,
                "velocity": 80,
                "duration": 0.05,
                "tempo": 120.0
            },
            {
                "pitch": 83,
                "velocity": 80,
                "duration": 0.05,
                "tempo": 120.0
            },
            {
                "pitch": 84,
                "velocity": 80,
                "duration": 0.0659,
                "tempo": 120.0
            },
            {
                "pitch": 86,
                "velocity": 80,
                "duration": 0.0659,
                "tempo": 120.0
            },
            {
                "pitch": 83,
                "velocity": 80,
                "duration": 0.05,
                "tempo": 120.0
            },
            {
                "pitch": 84,
                "velocity": 80,
                "duration": 0.05,
                "tempo": 120.0
            },
            {
                "pitch": 86,
                "velocity": 80,
                "duration": 0.0682,
                "tempo": 120.0
            },
            {
                "pitch": 88,
                "velocity": 80,
                "duration": 0.0682,
                "tempo": 120.0
            },
            {
                "pitch": 84,
                "velocity": 80,
                "duration": 0.05,
                "tempo": 120.0
            },
            {
                "pitch": 76,
                "velocity": 80,
                "duration": 0.05,
                "tempo": 120.0
            },
            {
                "pitch": 81,
                "velocity": 80,
                "duration": 0.0659,
                "tempo": 120.0
            },
            {
                "pitch": 83,
                "velocity": 80,
                "duration": 0.0659,
                "tempo": 120.0
            },
            {
                "pitch": 86,
                "velocity": 80,
                "duration": 0.05,
                "tempo": 120.0
            },
            {
                "pitch": 84,
                "velocity": 80,
                "duration": 0.0659,
                "tempo": 120.0
            },
            {
                "pitch": 83,
                "velocity": 80,
                "duration": 0.0682,
                "tempo": 120.0
            },
            {
                "pitch": 84,
                "velocity": 80,
                "duration": 0.05,
                "tempo": 120.0
            },
            {
                "pitch": 81,
                "velocity": 80,
                "duration": 0.05,
                "tempo": 120.0
            },
            {
                "pitch": 83,
                "velocity": 80,
                "duration": 0.0682,
                "tempo": 120.0
            },
            {
                "pitch": 84,
                "velocity": 80,
                "duration": 0.0659,
                "tempo": 120.0
            },
            {
                "pitch": 86,
                "velocity": 80,
                "duration": 0.05,
                "tempo": 120.0
            },
            {
                "pitch": 83,
                "velocity": 80,
                "duration": 0.05,
                "tempo": 120.0
            },
            {
                "pitch": 84,
                "velocity": 80,
                "duration": 0.0659,
                "tempo": 120.0
            },
            {
                "pitch": 86,
                "velocity": 80,
                "duration": 0.0659,
                "tempo": 120.0
            },
            {
                "pitch": 88,
                "velocity": 80,
                "duration": 0.05,
                "tempo": 120.0
            },
            {
                "pitch": 84,
                "velocity": 80,
                "duration": 0.05,
                "tempo": 120.0
            },
            {
                "pitch": 76,
                "velocity": 80,
                "duration": 0.0682,
                "tempo": 120.0
            },
            {
                "pitch": 81,
                "velocity": 80,
                "duration": 0.0659,
                "tempo": 120.0
            },
            {
                "pitch": 83,
                "velocity": 80,
                "duration": 0.05,
                "tempo": 120.0
            },
            {
                "pitch": 86,
                "velocity": 80,
                "duration": 0.05,
                "tempo": 120.0
            },
            {
                "pitch": 84,
                "velocity": 80,
                "duration": 0.0659,
                "tempo": 120.0
            },
            {
                "pitch": 83,
                "velocity": 80,
                "duration": 0.0659,
                "tempo": 120.0
            },
            {
                "pitch": 84,
                "velocity": 80,
                "duration": 0.05,
                "tempo": 120.0
            },
            {
                "pitch": 81,
                "velocity": 80,
                "duration": 0.05,
                "tempo": 120.0
            },
            {
                "pitch": 83,
                "velocity": 80,
                "duration": 0.0682,
                "tempo": 120.0
            },
            {
                "pitch": 84,
                "velocity": 80,
                "duration": 0.0659,
                "tempo": 120.0
            },
            {
                "pitch": 86,
                "velocity": 80,
                "duration": 0.05,
                "tempo": 120.0
            },
            {
                "pitch": 83,
                "velocity": 80,
                "duration": 0.05,
                "tempo": 120.0
            },
            {
                "pitch": 84,
                "velocity": 80,
                "duration": 0.0659,
                "tempo": 120.0
            },
            {
                "pitch": 86,
                "velocity": 80,
                "duration": 0.05,
                "tempo": 120.0
            },
            {
                "pitch": 88,
                "velocity": 80,
                "duration": 0.05,
                "tempo": 120.0
            },
            {
                "pitch": 84,
                "velocity": 80,
                "duration": 0.0659,
                "tempo": 120.0
            },
            {
                "pitch": 76,
                "velocity": 80,
                "duration": 0.05,
                "tempo": 120.0
            },
            {
                "pitch": 81,
                "velocity": 80,
                "duration": 0.0659,
                "tempo": 120.0
            },
            {
                "pitch": 83,
                "velocity": 80,
                "duration": 0.0682,
                "tempo": 120.0
            },
            {
                "pitch": 86,
                "velocity": 80,
                "duration": 0.05,
                "tempo": 120.0
            },
            {
                "pitch": 84,
                "velocity": 80,
                "duration": 0.05,
                "tempo": 120.0
            },
            {
                "pitch": 83,
                "velocity": 80,
                "duration": 0.0659,
                "tempo": 120.0
            },
            {
                "pitch": 84,
                "velocity": 80,
                "duration": 0.05,
                "tempo": 120.0
            },
            {
                "pitch": 81,
                "velocity": 80,
                "duration": 0.05,
                "tempo": 120.0
            },
            {
                "pitch": 83,
                "velocity": 80,
                "duration": 0.0636,
                "tempo": 120.0
            },
            {
                "pitch": 84,
                "velocity": 80,
                "duration": 0.0636,
                "tempo": 120.0
            },
            {
                "pitch": 86,
                "velocity": 80,
                "duration": 0.0477,
                "tempo": 120.0
            },
            {
                "pitch": 83,
                "velocity": 80,
                "duration": 0.05,
                "tempo": 120.0
            },
            {
                "pitch": 84,
                "velocity": 80,
                "duration": 0.0682,
                "tempo": 120.0
            },
            {
                "pitch": 86,
                "velocity": 80,
                "duration": 0.0682,
                "tempo": 120.0
            },
            {
                "pitch": 88,
                "velocity": 80,
                "duration": 0.0523,
                "tempo": 120.0
            },
            {
                "pitch": 84,
                "velocity": 80,
                "duration": 0.0523,
                "tempo": 120.0
            },
            {
                "pitch": 76,
                "velocity": 80,
                "duration": 0.0659,
                "tempo": 120.0
            },
            {
                "pitch": 81,
                "velocity": 80,
                "duration": 0.0659,
                "tempo": 120.0
            },
            {
                "pitch": 83,
                "velocity": 80,
                "duration": 0.05,
                "tempo": 120.0
            },
            {
                "pitch": 86,
                "velocity": 80,
                "duration": 0.05,
                "tempo": 120.0
            },
            {
                "pitch": 84,
                "velocity": 80,
                "duration": 0.0659,
                "tempo": 120.0
            },
            {
                "pitch": 83,
                "velocity": 80,
                "duration": 0.0682,
                "tempo": 120.0
            },
            {
                "pitch": 84,
                "velocity": 80,
                "duration": 0.05,
                "tempo": 120.0
            },
            {
                "pitch": 81,
                "velocity": 80,
                "duration": 0.05,
                "tempo": 120.0
            },
            {
                "pitch": 83,
                "velocity": 80,
                "duration": 0.0659,
                "tempo": 120.0
            },
            {
                "pitch": 84,
                "velocity": 80,
                "duration": 0.0659,
                "tempo": 120.0
            },
            {
                "pitch": 86,
                "velocity": 80,
                "duration": 0.05,
                "tempo": 120.0
            },
            {
                "pitch": 83,
                "velocity": 80,
                "duration": 0.05,
                "tempo": 120.0
            },
            {
                "pitch": 84,
                "velocity": 80,
                "duration": 0.0659,
                "tempo": 120.0
            },
            {
                "pitch": 86,
                "velocity": 80,
                "duration": 0.0682,
                "tempo": 120.0
            },
            {
                "pitch": 88,
                "velocity": 80,
                "duration": 0.05,
                "tempo": 120.0
            },
            {
                "pitch": 84,
                "velocity": 80,
                "duration": 0.0682,
                "tempo": 120.0
            },
            {
                "pitch": 76,
                "velocity": 80,
                "duration": 0.0659,
                "tempo": 120.0
            },
            {
                "pitch": 81,
                "velocity": 80,
                "duration": 0.05,
                "tempo": 120.0
            },
            {
                "pitch": 83,
                "velocity": 80,
                "duration": 0.05,
                "tempo": 120.0
            },
            {
                "pitch": 86,
                "velocity": 80,
                "duration": 0.0659,
                "tempo": 120.0
            },
            {
                "pitch": 84,
                "velocity": 80,
                "duration": 0.0659,
                "tempo": 120.0
            },
            {
                "pitch": 83,
                "velocity": 80,
                "duration": 0.05,
                "tempo": 120.0
            },
            {
                "pitch": 84,
                "velocity": 80,
                "duration": 0.05,
                "tempo": 120.0
            },
            {
                "pitch": 81,
                "velocity": 80,
                "duration": 0.0659,
                "tempo": 120.0
            },
            {
                "pitch": 83,
                "velocity": 80,
                "duration": 0.0682,
                "tempo": 120.0
            },
            {
                "pitch": 84,
                "velocity": 80,
                "duration": 0.05,
                "tempo": 120.0
            },
            {
                "pitch": 86,
                "velocity": 80,
                "duration": 0.05,
                "tempo": 120.0
            },
            {
                "pitch": 83,
                "velocity": 80,
                "duration": 0.0659,
                "tempo": 120.0
            },
            {
                "pitch": 84,
                "velocity": 80,
                "duration": 0.0659,
                "tempo": 120.0
            },
            {
                "pitch": 86,
                "velocity": 80,
                "duration": 0.05,
                "tempo": 120.0
            },
            {
                "pitch": 88,
                "velocity": 80,
                "duration": 0.05,
                "tempo": 120.0
            },
            {
                "pitch": 84,
                "velocity": 80,
                "duration": 0.0659,
                "tempo": 120.0
            },
            {
                "pitch": 76,
                "velocity": 80,
                "duration": 0.0659,
                "tempo": 120.0
            },
            {
                "pitch": 81,
                "velocity": 80,
                "duration": 0.0477,
                "tempo": 120.0
            },
            {
                "pitch": 83,
                "velocity": 80,
                "duration": 0.05,
                "tempo": 120.0
            },
            {
                "pitch": 86,
                "velocity": 80,
                "duration": 0.0659,
                "tempo": 120.0
            },
            {
                "pitch": 84,
                "velocity": 80,
                "duration": 0.0659,
                "tempo": 120.0
            },
            {
                "pitch": 83,
                "velocity": 80,
                "duration": 0.05,
                "tempo": 120.0
            },
            {
                "pitch": 84,
                "velocity": 80,
                "duration": 0.0659,
                "tempo": 120.0
            },
            {
                "pitch": 81,
                "velocity": 80,
                "duration": 0.0659,
                "tempo": 120.0
            },
            {
                "pitch": 83,
                "velocity": 80,
                "duration": 0.0523,
                "tempo": 120.0
            },
            {
                "pitch": 84,
                "velocity": 80,
                "duration": 0.0523,
                "tempo": 120.0
            },
            {
                "pitch": 86,
                "velocity": 80,
                "duration": 0.0705,
                "tempo": 120.0
            },
            {
                "pitch": 83,
                "velocity": 80,
                "duration": 0.0705,
                "tempo": 120.0
            },
            {
                "pitch": 84,
                "velocity": 80,
                "duration": 0.05,
                "tempo": 120.0
            },
            {
                "pitch": 86,
                "velocity": 80,
                "duration": 0.05,
                "tempo": 120.0
            },
            {
                "pitch": 88,
                "velocity": 80,
                "duration": 0.0682,
                "tempo": 120.0
            },
            {
                "pitch": 84,
                "velocity": 80,
                "duration": 0.0682,
                "tempo": 120.0
            },
            {
                "pitch": 76,
                "velocity": 80,
                "duration": 0.0659,
                "tempo": 120.0
            },
            {
                "pitch": 80,
                "velocity": 80,
                "duration": 0.05,
                "tempo": 120.0
            },
            {
                "pitch": 83,
                "velocity": 80,
                "duration": 0.05,
                "tempo": 120.0
            },
            {
                "pitch": 86,
                "velocity": 80,
                "duration": 0.0659,
                "tempo": 120.0
            },
            {
                "pitch": 84,
                "velocity": 80,
                "duration": 0.0659,
                "tempo": 120.0
            },
            {
                "pitch": 83,
                "velocity": 80,
                "duration": 0.05,
                "tempo": 120.0
            },
            {
                "pitch": 84,
                "velocity": 80,
                "duration": 0.05,
                "tempo": 120.0
            },
            {
                "pitch": 80,
                "velocity": 80,
                "duration": 0.0682,
                "tempo": 120.0
            },
            {
                "pitch": 83,
                "velocity": 80,
                "duration": 0.0659,
                "tempo": 120.0
            },
            {
                "pitch": 84,
                "velocity": 80,
                "duration": 0.0477,
                "tempo": 120.0
            },
            {
                "pitch": 86,
                "velocity": 80,
                "duration": 0.0477,
                "tempo": 120.0
            },
            {
                "pitch": 83,
                "velocity": 80,
                "duration": 0.0636,
                "tempo": 120.0
            },
            {
                "pitch": 84,
                "velocity": 80,
                "duration": 0.0682,
                "tempo": 120.0
            },
            {
                "pitch": 86,
                "velocity": 80,
                "duration": 0.05,
                "tempo": 120.0
            },
            {
                "pitch": 88,
                "velocity": 80,
                "duration": 0.0523,
                "tempo": 120.0
            },
            {
                "pitch": 84,
                "velocity": 80,
                "duration": 0.0705,
                "tempo": 120.0
            },
            {
                "pitch": 76,
                "velocity": 80,
                "duration": 0.0682,
                "tempo": 120.0
            },
            {
                "pitch": 80,
                "velocity": 80,
                "duration": 0.05,
                "tempo": 120.0
            },
            {
                "pitch": 83,
                "velocity": 80,
                "duration": 0.05,
                "tempo": 120.0
            },
            {
                "pitch": 86,
                "velocity": 80,
                "duration": 0.0659,
                "tempo": 120.0
            },
            {
                "pitch": 84,
                "velocity": 80,
                "duration": 0.0659,
                "tempo": 120.0
            },
            {
                "pitch": 83,
                "velocity": 80,
                "duration": 0.05,
                "tempo": 120.0
            },
            {
                "pitch": 84,
                "velocity": 80,
                "duration": 0.05,
                "tempo": 120.0
            },
            {
                "pitch": 80,
                "velocity": 80,
                "duration": 0.0659,
                "tempo": 120.0
            },
            {
                "pitch": 83,
                "velocity": 80,
                "duration": 0.05,
                "tempo": 120.0
            },
            {
                "pitch": 84,
                "velocity": 80,
                "duration": 0.05,
                "tempo": 120.0
            },
            {
                "pitch": 86,
                "velocity": 80,
                "duration": 0.0682,
                "tempo": 120.0
            },
            {
                "pitch": 83,
                "velocity": 80,
                "duration": 0.0682,
                "tempo": 120.0
            },
            {
                "pitch": 84,
                "velocity": 80,
                "duration": 0.0523,
                "tempo": 120.0
            },
            {
                "pitch": 86,
                "velocity": 80,
                "duration": 0.05,
                "tempo": 120.0
            },
            {
                "pitch": 88,
                "velocity": 80,
                "duration": 0.0682,
                "tempo": 120.0
            },
            {
                "pitch": 84,
                "velocity": 80,
                "duration": 0.0682,
                "tempo": 120.0
            },
            {
                "pitch": 76,
                "velocity": 80,
                "duration": 0.05,
                "tempo": 120.0
            },
            {
                "pitch": 80,
                "velocity": 80,
                "duration": 0.05,
                "tempo": 120.0
            },
            {
                "pitch": 83,
                "velocity": 80,
                "duration": 0.0659,
                "tempo": 120.0
            },
            {
                "pitch": 86,
                "velocity": 80,
                "duration": 0.0659,
                "tempo": 120.0
            },
            {
                "pitch": 84,
                "velocity": 80,
                "duration": 0.05,
                "tempo": 120.0
            },
            {
                "pitch": 83,
                "velocity": 80,
                "duration": 0.05,
                "tempo": 120.0
            },
            {
                "pitch": 84,
                "velocity": 80,
                "duration": 0.0682,
                "tempo": 120.0
            },
            {
                "pitch": 80,
                "velocity": 80,
                "duration": 0.0682,
                "tempo": 120.0
            },
            {
                "pitch": 83,
                "velocity": 80,
                "duration": 0.05,
                "tempo": 120.0
            },
            {
                "pitch": 84,
                "velocity": 80,
                "duration": 0.0477,
                "tempo": 120.0
            },
            {
                "pitch": 86,
                "velocity": 80,
                "duration": 0.0636,
                "tempo": 120.0
            },
            {
                "pitch": 83,
                "velocity": 80,
                "duration": 0.0636,
                "tempo": 120.0
            },
            {
                "pitch": 84,
                "velocity": 80,
                "duration": 0.0523,
                "tempo": 120.0
            },
            {
                "pitch": 86,
                "velocity": 80,
                "duration": 0.0523,
                "tempo": 120.0
            },
            {
                "pitch": 88,
                "velocity": 80,
                "duration": 0.0682,
                "tempo": 120.0
            },
            {
                "pitch": 84,
                "velocity": 80,
                "duration": 0.0682,
                "tempo": 120.0
            },
            {
                "pitch": 76,
                "velocity": 80,
                "duration": 0.05,
                "tempo": 120.0
            },
            {
                "pitch": 80,
                "velocity": 80,
                "duration": 0.0682,
                "tempo": 120.0
            },
            {
                "pitch": 83,
                "velocity": 80,
                "duration": 0.0659,
                "tempo": 120.0
            },
            {
                "pitch": 86,
                "velocity": 80,
                "duration": 0.05,
                "tempo": 120.0
            },
            {
                "pitch": 84,
                "velocity": 80,
                "duration": 0.05,
                "tempo": 120.0
            },
            {
                "pitch": 83,
                "velocity": 80,
                "duration": 0.0659,
                "tempo": 120.0
            },
            {
                "pitch": 84,
                "velocity": 80,
                "duration": 0.0659,
                "tempo": 120.0
            },
            {
                "pitch": 80,
                "velocity": 80,
                "duration": 0.05,
                "tempo": 120.0
            },
            {
                "pitch": 83,
                "velocity": 80,
                "duration": 0.05,
                "tempo": 120.0
            },
            {
                "pitch": 84,
                "velocity": 80,
                "duration": 0.0682,
                "tempo": 120.0
            },
            {
                "pitch": 86,
                "velocity": 80,
                "duration": 0.0682,
                "tempo": 120.0
            },
            {
                "pitch": 83,
                "velocity": 80,
                "duration": 0.05,
                "tempo": 120.0
            },
            {
                "pitch": 84,
                "velocity": 80,
                "duration": 0.05,
                "tempo": 120.0
            },
            {
                "pitch": 86,
                "velocity": 80,
                "duration": 0.0659,
                "tempo": 120.0
            },
            {
                "pitch": 88,
                "velocity": 80,
                "duration": 0.0659,
                "tempo": 120.0
            },
            {
                "pitch": 84,
                "velocity": 80,
                "duration": 0.05,
                "tempo": 120.0
            },
            {
                "pitch": 76,
                "velocity": 80,
                "duration": 0.05,
                "tempo": 120.0
            },
            {
                "pitch": 81,
                "velocity": 80,
                "duration": 0.0682,
                "tempo": 120.0
            },
            {
                "pitch": 83,
                "velocity": 80,
                "duration": 0.0682,
                "tempo": 120.0
            },
            {
                "pitch": 86,
                "velocity": 80,
                "duration": 0.05,
                "tempo": 120.0
            },
            {
                "pitch": 84,
                "velocity": 80,
                "duration": 0.05,
                "tempo": 120.0
            },
            {
                "pitch": 83,
                "velocity": 80,
                "duration": 0.0659,
                "tempo": 120.0
            },
            {
                "pitch": 84,
                "velocity": 80,
                "duration": 0.0659,
                "tempo": 120.0
            },
            {
                "pitch": 81,
                "velocity": 80,
                "duration": 0.05,
                "tempo": 120.0
            },
            {
                "pitch": 83,
                "velocity": 80,
                "duration": 0.0659,
                "tempo": 120.0
            },
            {
                "pitch": 84,
                "velocity": 80,
                "duration": 0.0659,
                "tempo": 120.0
            },
            {
                "pitch": 86,
                "velocity": 80,
                "duration": 0.05,
                "tempo": 120.0
            },
            {
                "pitch": 83,
                "velocity": 80,
                "duration": 0.0477,
                "tempo": 120.0
            },
            {
                "pitch": 84,
                "velocity": 80,
                "duration": 0.0682,
                "tempo": 120.0
            },
            {
                "pitch": 86,
                "velocity": 80,
                "duration": 0.0659,
                "tempo": 120.0
            },
            {
                "pitch": 88,
                "velocity": 80,
                "duration": 0.05,
                "tempo": 120.0
            },
            {
                "pitch": 84,
                "velocity": 80,
                "duration": 0.05,
                "tempo": 120.0
            },
            {
                "pitch": 76,
                "velocity": 80,
                "duration": 0.0682,
                "tempo": 120.0
            },
            {
                "pitch": 81,
                "velocity": 80,
                "duration": 0.0682,
                "tempo": 120.0
            },
            {
                "pitch": 83,
                "velocity": 80,
                "duration": 0.0523,
                "tempo": 120.0
            },
            {
                "pitch": 86,
                "velocity": 80,
                "duration": 0.0523,
                "tempo": 120.0
            },
            {
                "pitch": 84,
                "velocity": 80,
                "duration": 0.0659,
                "tempo": 120.0
            },
            {
                "pitch": 83,
                "velocity": 80,
                "duration": 0.0659,
                "tempo": 120.0
            },
            {
                "pitch": 84,
                "velocity": 80,
                "duration": 0.05,
                "tempo": 120.0
            },
            {
                "pitch": 81,
                "velocity": 80,
                "duration": 0.05,
                "tempo": 120.0
            },
            {
                "pitch": 83,
                "velocity": 80,
                "duration": 0.0659,
                "tempo": 120.0
            },
            {
                "pitch": 84,
                "velocity": 80,
                "duration": 0.0682,
                "tempo": 120.0
            },
            {
                "pitch": 86,
                "velocity": 80,
                "duration": 0.05,
                "tempo": 120.0
            },
            {
                "pitch": 83,
                "velocity": 80,
                "duration": 0.05,
                "tempo": 120.0
            },
            {
                "pitch": 84,
                "velocity": 80,
                "duration": 0.0659,
                "tempo": 120.0
            },
            {
                "pitch": 86,
                "velocity": 80,
                "duration": 0.0659,
                "tempo": 120.0
            },
            {
                "pitch": 88,
                "velocity": 80,
                "duration": 0.05,
                "tempo": 120.0
            },
            {
                "pitch": 84,
                "velocity": 80,
                "duration": 0.05,
                "tempo": 120.0
            },
            {
                "pitch": 76,
                "velocity": 80,
                "duration": 0.0659,
                "tempo": 120.0
            },
            {
                "pitch": 81,
                "velocity": 80,
                "duration": 0.05,
                "tempo": 120.0
            },
            {
                "pitch": 83,
                "velocity": 80,
                "duration": 0.05,
                "tempo": 120.0
            },
            {
                "pitch": 86,
                "velocity": 80,
                "duration": 0.0682,
                "tempo": 120.0
            },
            {
                "pitch": 84,
                "velocity": 80,
                "duration": 0.0659,
                "tempo": 120.0
            },
            {
                "pitch": 83,
                "velocity": 80,
                "duration": 0.05,
                "tempo": 120.0
            },
            {
                "pitch": 84,
                "velocity": 80,
                "duration": 0.05,
                "tempo": 120.0
            },
            {
                "pitch": 81,
                "velocity": 80,
                "duration": 0.0659,
                "tempo": 120.0
            },
            {
                "pitch": 83,
                "velocity": 80,
                "duration": 0.0659,
                "tempo": 120.0
            },
            {
                "pitch": 84,
                "velocity": 80,
                "duration": 0.05,
                "tempo": 120.0
            },
            {
                "pitch": 86,
                "velocity": 80,
                "duration": 0.05,
                "tempo": 120.0
            },
            {
                "pitch": 83,
                "velocity": 80,
                "duration": 0.0682,
                "tempo": 120.0
            },
            {
                "pitch": 84,
                "velocity": 80,
                "duration": 0.0682,
                "tempo": 120.0
            },
            {
                "pitch": 86,
                "velocity": 80,
                "duration": 0.05,
                "tempo": 120.0
            },
            {
                "pitch": 88,
                "velocity": 80,
                "duration": 0.05,
                "tempo": 120.0
            },
            {
                "pitch": 84,
                "velocity": 80,
                "duration": 0.0659,
                "tempo": 120.0
            },
            {
                "pitch": 76,
                "velocity": 80,
                "duration": 0.0659,
                "tempo": 120.0
            },
            {
                "pitch": 81,
                "velocity": 80,
                "duration": 0.05,
                "tempo": 120.0
            },
            {
                "pitch": 83,
                "velocity": 80,
                "duration": 0.05,
                "tempo": 120.0
            },
            {
                "pitch": 86,
                "velocity": 80,
                "duration": 0.0659,
                "tempo": 120.0
            },
            {
                "pitch": 84,
                "velocity": 80,
                "duration": 0.0682,
                "tempo": 120.0
            },
            {
                "pitch": 83,
                "velocity": 80,
                "duration": 0.05,
                "tempo": 120.0
            },
            {
                "pitch": 84,
                "velocity": 80,
                "duration": 0.05,
                "tempo": 120.0
            },
            {
                "pitch": 81,
                "velocity": 80,
                "duration": 0.0659,
                "tempo": 120.0
            },
            {
                "pitch": 83,
                "velocity": 80,
                "duration": 0.0659,
                "tempo": 120.0
            },
            {
                "pitch": 84,
                "velocity": 80,
                "duration": 0.05,
                "tempo": 120.0
            },
            {
                "pitch": 86,
                "velocity": 80,
                "duration": 0.0659,
                "tempo": 120.0
            },
            {
                "pitch": 83,
                "velocity": 80,
                "duration": 0.0659,
                "tempo": 120.0
            },
            {
                "pitch": 84,
                "velocity": 80,
                "duration": 0.05,
                "tempo": 120.0
            },
            {
                "pitch": 86,
                "velocity": 80,
                "duration": 0.05,
                "tempo": 120.0
            },
            {
                "pitch": 88,
                "velocity": 80,
                "duration": 0.0705,
                "tempo": 120.0
            },
            {
                "pitch": 84,
                "velocity": 80,
                "duration": 0.0705,
                "tempo": 120.0
            },
            {
                "pitch": 74,
                "velocity": 80,
                "duration": 0.0523,
                "tempo": 120.0
            },
            {
                "pitch": 79,
                "velocity": 80,
                "duration": 0.05,
                "tempo": 120.0
            },
            {
                "pitch": 83,
                "velocity": 80,
                "duration": 0.0682,
                "tempo": 120.0
            },
            {
                "pitch": 86,
                "velocity": 80,
                "duration": 0.0682,
                "tempo": 120.0
            },
            {
                "pitch": 84,
                "velocity": 80,
                "duration": 0.05,
                "tempo": 120.0
            },
            {
                "pitch": 83,
                "velocity": 80,
                "duration": 0.05,
                "tempo": 120.0
            },
            {
                "pitch": 84,
                "velocity": 80,
                "duration": 0.0659,
                "tempo": 120.0
            },
            {
                "pitch": 74,
                "velocity": 80,
                "duration": 0.0659,
                "tempo": 120.0
            },
            {
                "pitch": 83,
                "velocity": 80,
                "duration": 0.05,
                "tempo": 120.0
            },
            {
                "pitch": 84,
                "velocity": 80,
                "duration": 0.05,
                "tempo": 120.0
            },
            {
                "pitch": 86,
                "velocity": 80,
                "duration": 0.0682,
                "tempo": 120.0
            },
            {
                "pitch": 83,
                "velocity": 80,
                "duration": 0.0659,
                "tempo": 120.0
            },
            {
                "pitch": 84,
                "velocity": 80,
                "duration": 0.05,
                "tempo": 120.0
            },
            {
                "pitch": 86,
                "velocity": 80,
                "duration": 0.05,
                "tempo": 120.0
            },
            {
                "pitch": 83,
                "velocity": 80,
                "duration": 0.0659,
                "tempo": 120.0
            },
            {
                "pitch": 79,
                "velocity": 80,
                "duration": 0.0659,
                "tempo": 120.0
            },
            {
                "pitch": 74,
                "velocity": 80,
                "duration": 0.05,
                "tempo": 120.0
            },
            {
                "pitch": 79,
                "velocity": 80,
                "duration": 0.0659,
                "tempo": 120.0
            },
            {
                "pitch": 83,
                "velocity": 80,
                "duration": 0.0682,
                "tempo": 120.0
            },
            {
                "pitch": 86,
                "velocity": 80,
                "duration": 0.05,
                "tempo": 120.0
            },
            {
                "pitch": 84,
                "velocity": 80,
                "duration": 0.05,
                "tempo": 120.0
            },
            {
                "pitch": 83,
                "velocity": 80,
                "duration": 0.0659,
                "tempo": 120.0
            },
            {
                "pitch": 84,
                "velocity": 80,
                "duration": 0.0659,
                "tempo": 120.0
            },
            {
                "pitch": 74,
                "velocity": 80,
                "duration": 0.05,
                "tempo": 120.0
            },
            {
                "pitch": 83,
                "velocity": 80,
                "duration": 0.05,
                "tempo": 120.0
            },
            {
                "pitch": 84,
                "velocity": 80,
                "duration": 0.0659,
                "tempo": 120.0
            },
            {
                "pitch": 86,
                "velocity": 80,
                "duration": 0.0682,
                "tempo": 120.0
            },
            {
                "pitch": 83,
                "velocity": 80,
                "duration": 0.05,
                "tempo": 120.0
            },
            {
                "pitch": 84,
                "velocity": 80,
                "duration": 0.05,
                "tempo": 120.0
            },
            {
                "pitch": 86,
                "velocity": 80,
                "duration": 0.0682,
                "tempo": 120.0
            },
            {
                "pitch": 83,
                "velocity": 80,
                "duration": 0.0659,
                "tempo": 120.0
            },
            {
                "pitch": 79,
                "velocity": 80,
                "duration": 0.05,
                "tempo": 120.0
            },
            {
                "pitch": 74,
                "velocity": 80,
                "duration": 0.05,
                "tempo": 120.0
            },
            {
                "pitch": 79,
                "velocity": 80,
                "duration": 0.0659,
                "tempo": 120.0
            },
            {
                "pitch": 83,
                "velocity": 80,
                "duration": 0.0659,
                "tempo": 120.0
            },
            {
                "pitch": 86,
                "velocity": 80,
                "duration": 0.05,
                "tempo": 120.0
            },
            {
                "pitch": 84,
                "velocity": 80,
                "duration": 0.05,
                "tempo": 120.0
            },
            {
                "pitch": 83,
                "velocity": 80,
                "duration": 0.0682,
                "tempo": 120.0
            },
            {
                "pitch": 84,
                "velocity": 80,
                "duration": 0.0659,
                "tempo": 120.0
            },
            {
                "pitch": 74,
                "velocity": 80,
                "duration": 0.05,
                "tempo": 120.0
            },
            {
                "pitch": 83,
                "velocity": 80,
                "duration": 0.05,
                "tempo": 120.0
            },
            {
                "pitch": 84,
                "velocity": 80,
                "duration": 0.0659,
                "tempo": 120.0
            },
            {
                "pitch": 86,
                "velocity": 80,
                "duration": 0.05,
                "tempo": 120.0
            },
            {
                "pitch": 83,
                "velocity": 80,
                "duration": 0.05,
                "tempo": 120.0
            },
            {
                "pitch": 84,
                "velocity": 80,
                "duration": 0.0659,
                "tempo": 120.0
            },
            {
                "pitch": 86,
                "velocity": 80,
                "duration": 0.0682,
                "tempo": 120.0
            },
            {
                "pitch": 83,
                "velocity": 80,
                "duration": 0.0477,
                "tempo": 120.0
            },
            {
                "pitch": 79,
                "velocity": 80,
                "duration": 0.05,
                "tempo": 120.0
            },
            {
                "pitch": 74,
                "velocity": 80,
                "duration": 0.0659,
                "tempo": 120.0
            },
            {
                "pitch": 79,
                "velocity": 80,
                "duration": 0.0659,
                "tempo": 120.0
            },
            {
                "pitch": 83,
                "velocity": 80,
                "duration": 0.05,
                "tempo": 120.0
            },
            {
                "pitch": 86,
                "velocity": 80,
                "duration": 0.05,
                "tempo": 120.0
            },
            {
                "pitch": 84,
                "velocity": 80,
                "duration": 0.0659,
                "tempo": 120.0
            },
            {
                "pitch": 83,
                "velocity": 80,
                "duration": 0.0682,
                "tempo": 120.0
            },
            {
                "pitch": 84,
                "velocity": 80,
                "duration": 0.05,
                "tempo": 120.0
            },
            {
                "pitch": 74,
                "velocity": 80,
                "duration": 0.05,
                "tempo": 120.0
            },
            {
                "pitch": 83,
                "velocity": 80,
                "duration": 0.0682,
                "tempo": 120.0
            },
            {
                "pitch": 84,
                "velocity": 80,
                "duration": 0.0659,
                "tempo": 120.0
            },
            {
                "pitch": 86,
                "velocity": 80,
                "duration": 0.05,
                "tempo": 120.0
            },
            {
                "pitch": 83,
                "velocity": 80,
                "duration": 0.05,
                "tempo": 120.0
            },
            {
                "pitch": 84,
                "velocity": 80,
                "duration": 0.0659,
                "tempo": 120.0
            },
            {
                "pitch": 86,
                "velocity": 80,
                "duration": 0.0682,
                "tempo": 120.0
            },
            {
                "pitch": 83,
                "velocity": 80,
                "duration": 0.05,
                "tempo": 120.0
            },
            {
                "pitch": 79,
                "velocity": 80,
                "duration": 0.05,
                "tempo": 120.0
            },
            {
                "pitch": 76,
                "velocity": 80,
                "duration": 0.0682,
                "tempo": 120.0
            },
            {
                "pitch": 81,
                "velocity": 80,
                "duration": 0.0682,
                "tempo": 120.0
            },
            {
                "pitch": 83,
                "velocity": 80,
                "duration": 0.0523,
                "tempo": 120.0
            },
            {
                "pitch": 86,
                "velocity": 80,
                "duration": 0.0705,
                "tempo": 120.0
            },
            {
                "pitch": 84,
                "velocity": 80,
                "duration": 0.0659,
                "tempo": 120.0
            },
            {
                "pitch": 83,
                "velocity": 80,
                "duration": 0.05,
                "tempo": 120.0
            },
            {
                "pitch": 84,
                "velocity": 80,
                "duration": 0.0477,
                "tempo": 120.0
            },
            {
                "pitch": 81,
                "velocity": 80,
                "duration": 0.0636,
                "tempo": 120.0
            },
            {
                "pitch": 83,
                "velocity": 80,
                "duration": 0.0682,
                "tempo": 120.0
            },
            {
                "pitch": 84,
                "velocity": 80,
                "duration": 0.05,
                "tempo": 120.0
            },
            {
                "pitch": 86,
                "velocity": 80,
                "duration": 0.05,
                "tempo": 120.0
            },
            {
                "pitch": 83,
                "velocity": 80,
                "duration": 0.0682,
                "tempo": 120.0
            },
            {
                "pitch": 84,
                "velocity": 80,
                "duration": 0.0659,
                "tempo": 120.0
            },
            {
                "pitch": 86,
                "velocity": 80,
                "duration": 0.05,
                "tempo": 120.0
            },
            {
                "pitch": 88,
                "velocity": 80,
                "duration": 0.05,
                "tempo": 120.0
            },
            {
                "pitch": 84,
                "velocity": 80,
                "duration": 0.0659,
                "tempo": 120.0
            },
            {
                "pitch": 76,
                "velocity": 80,
                "duration": 0.0682,
                "tempo": 120.0
            },
            {
                "pitch": 81,
                "velocity": 80,
                "duration": 0.05,
                "tempo": 120.0
            },
            {
                "pitch": 83,
                "velocity": 80,
                "duration": 0.05,
                "tempo": 120.0
            },
            {
                "pitch": 86,
                "velocity": 80,
                "duration": 0.0682,
                "tempo": 120.0
            },
            {
                "pitch": 84,
                "velocity": 80,
                "duration": 0.0659,
                "tempo": 120.0
            },
            {
                "pitch": 83,
                "velocity": 80,
                "duration": 0.05,
                "tempo": 120.0
            },
            {
                "pitch": 84,
                "velocity": 80,
                "duration": 0.05,
                "tempo": 120.0
            },
            {
                "pitch": 81,
                "velocity": 80,
                "duration": 0.0682,
                "tempo": 120.0
            },
            {
                "pitch": 83,
                "velocity": 80,
                "duration": 0.0682,
                "tempo": 120.0
            },
            {
                "pitch": 84,
                "velocity": 80,
                "duration": 0.05,
                "tempo": 120.0
            },
            {
                "pitch": 86,
                "velocity": 80,
                "duration": 0.0682,
                "tempo": 120.0
            },
            {
                "pitch": 83,
                "velocity": 80,
                "duration": 0.0659,
                "tempo": 120.0
            },
            {
                "pitch": 84,
                "velocity": 80,
                "duration": 0.0523,
                "tempo": 120.0
            },
            {
                "pitch": 86,
                "velocity": 80,
                "duration": 0.0523,
                "tempo": 120.0
            },
            {
                "pitch": 88,
                "velocity": 80,
                "duration": 0.0682,
                "tempo": 120.0
            },
            {
                "pitch": 84,
                "velocity": 80,
                "duration": 0.0682,
                "tempo": 120.0
            },
            {
                "pitch": 76,
                "velocity": 80,
                "duration": 0.05,
                "tempo": 120.0
            },
            {
                "pitch": 81,
                "velocity": 80,
                "duration": 0.0523,
                "tempo": 120.0
            },
            {
                "pitch": 83,
                "velocity": 80,
                "duration": 0.0682,
                "tempo": 120.0
            },
            {
                "pitch": 86,
                "velocity": 80,
                "duration": 0.0682,
                "tempo": 120.0
            },
            {
                "pitch": 84,
                "velocity": 80,
                "duration": 0.0523,
                "tempo": 120.0
            },
            {
                "pitch": 83,
                "velocity": 80,
                "duration": 0.05,
                "tempo": 120.0
            },
            {
                "pitch": 84,
                "velocity": 80,
                "duration": 0.0682,
                "tempo": 120.0
            },
            {
                "pitch": 81,
                "velocity": 80,
                "duration": 0.0659,
                "tempo": 120.0
            },
            {
                "pitch": 83,
                "velocity": 80,
                "duration": 0.05,
                "tempo": 120.0
            },
            {
                "pitch": 84,
                "velocity": 80,
                "duration": 0.05,
                "tempo": 120.0
            },
            {
                "pitch": 86,
                "velocity": 80,
                "duration": 0.0659,
                "tempo": 120.0
            },
            {
                "pitch": 83,
                "velocity": 80,
                "duration": 0.0659,
                "tempo": 120.0
            },
            {
                "pitch": 84,
                "velocity": 80,
                "duration": 0.0477,
                "tempo": 120.0
            },
            {
                "pitch": 86,
                "velocity": 80,
                "duration": 0.05,
                "tempo": 120.0
            },
            {
                "pitch": 88,
                "velocity": 80,
                "duration": 0.0659,
                "tempo": 120.0
            },
            {
                "pitch": 84,
                "velocity": 80,
                "duration": 0.0636,
                "tempo": 120.0
            },
            {
                "pitch": 76,
                "velocity": 80,
                "duration": 0.05,
                "tempo": 120.0
            },
            {
                "pitch": 81,
                "velocity": 80,
                "duration": 0.0523,
                "tempo": 120.0
            },
            {
                "pitch": 83,
                "velocity": 80,
                "duration": 0.0705,
                "tempo": 120.0
            },
            {
                "pitch": 86,
                "velocity": 80,
                "duration": 0.05,
                "tempo": 120.0
            },
            {
                "pitch": 84,
                "velocity": 80,
                "duration": 0.05,
                "tempo": 120.0
            },
            {
                "pitch": 83,
                "velocity": 80,
                "duration": 0.0659,
                "tempo": 120.0
            },
            {
                "pitch": 84,
                "velocity": 80,
                "duration": 0.0659,
                "tempo": 120.0
            },
            {
                "pitch": 81,
                "velocity": 80,
                "duration": 0.05,
                "tempo": 120.0
            },
            {
                "pitch": 83,
                "velocity": 80,
                "duration": 0.05,
                "tempo": 120.0
            },
            {
                "pitch": 84,
                "velocity": 80,
                "duration": 0.0682,
                "tempo": 120.0
            },
            {
                "pitch": 86,
                "velocity": 80,
                "duration": 0.0659,
                "tempo": 120.0
            },
            {
                "pitch": 83,
                "velocity": 80,
                "duration": 0.05,
                "tempo": 120.0
            },
            {
                "pitch": 84,
                "velocity": 80,
                "duration": 0.05,
                "tempo": 120.0
            },
            {
                "pitch": 86,
                "velocity": 80,
                "duration": 0.0659,
                "tempo": 120.0
            },
            {
                "pitch": 88,
                "velocity": 80,
                "duration": 0.0659,
                "tempo": 120.0
            },
            {
                "pitch": 84,
                "velocity": 80,
                "duration": 0.05,
                "tempo": 120.0
            },
            {
                "pitch": 74,
                "velocity": 80,
                "duration": 0.0477,
                "tempo": 120.0
            },
            {
                "pitch": 79,
                "velocity": 80,
                "duration": 0.0682,
                "tempo": 120.0
            },
            {
                "pitch": 83,
                "velocity": 80,
                "duration": 0.0659,
                "tempo": 120.0
            },
            {
                "pitch": 86,
                "velocity": 80,
                "duration": 0.05,
                "tempo": 120.0
            },
            {
                "pitch": 84,
                "velocity": 80,
                "duration": 0.05,
                "tempo": 120.0
            },
            {
                "pitch": 83,
                "velocity": 80,
                "duration": 0.0659,
                "tempo": 120.0
            },
            {
                "pitch": 84,
                "velocity": 80,
                "duration": 0.0659,
                "tempo": 120.0
            },
            {
                "pitch": 74,
                "velocity": 80,
                "duration": 0.05,
                "tempo": 120.0
            },
            {
                "pitch": 83,
                "velocity": 80,
                "duration": 0.05,
                "tempo": 120.0
            },
            {
                "pitch": 84,
                "velocity": 80,
                "duration": 0.0682,
                "tempo": 120.0
            },
            {
                "pitch": 86,
                "velocity": 80,
                "duration": 0.0659,
                "tempo": 120.0
            },
            {
                "pitch": 83,
                "velocity": 80,
                "duration": 0.05,
                "tempo": 120.0
            },
            {
                "pitch": 84,
                "velocity": 80,
                "duration": 0.0659,
                "tempo": 120.0
            },
            {
                "pitch": 86,
                "velocity": 80,
                "duration": 0.0659,
                "tempo": 120.0
            },
            {
                "pitch": 83,
                "velocity": 80,
                "duration": 0.05,
                "tempo": 120.0
            },
            {
                "pitch": 79,
                "velocity": 80,
                "duration": 0.05,
                "tempo": 120.0
            },
            {
                "pitch": 74,
                "velocity": 80,
                "duration": 0.0659,
                "tempo": 120.0
            },
            {
                "pitch": 79,
                "velocity": 80,
                "duration": 0.0682,
                "tempo": 120.0
            },
            {
                "pitch": 83,
                "velocity": 80,
                "duration": 0.05,
                "tempo": 120.0
            },
            {
                "pitch": 86,
                "velocity": 80,
                "duration": 0.05,
                "tempo": 120.0
            },
            {
                "pitch": 84,
                "velocity": 80,
                "duration": 0.0682,
                "tempo": 120.0
            },
            {
                "pitch": 83,
                "velocity": 80,
                "duration": 0.0659,
                "tempo": 120.0
            },
            {
                "pitch": 84,
                "velocity": 80,
                "duration": 0.05,
                "tempo": 120.0
            },
            {
                "pitch": 74,
                "velocity": 80,
                "duration": 0.05,
                "tempo": 120.0
            },
            {
                "pitch": 83,
                "velocity": 80,
                "duration": 0.0659,
                "tempo": 120.0
            },
            {
                "pitch": 84,
                "velocity": 80,
                "duration": 0.0659,
                "tempo": 120.0
            },
            {
                "pitch": 86,
                "velocity": 80,
                "duration": 0.05,
                "tempo": 120.0
            },
            {
                "pitch": 83,
                "velocity": 80,
                "duration": 0.05,
                "tempo": 120.0
            },
            {
                "pitch": 84,
                "velocity": 80,
                "duration": 0.0682,
                "tempo": 120.0
            },
            {
                "pitch": 86,
                "velocity": 80,
                "duration": 0.0659,
                "tempo": 120.0
            },
            {
                "pitch": 83,
                "velocity": 80,
                "duration": 0.05,
                "tempo": 120.0
            },
            {
                "pitch": 79,
                "velocity": 80,
                "duration": 0.05,
                "tempo": 120.0
            },
            {
                "pitch": 74,
                "velocity": 80,
                "duration": 0.0659,
                "tempo": 120.0
            },
            {
                "pitch": 79,
                "velocity": 80,
                "duration": 0.0659,
                "tempo": 120.0
            },
            {
                "pitch": 83,
                "velocity": 80,
                "duration": 0.05,
                "tempo": 120.0
            },
            {
                "pitch": 86,
                "velocity": 80,
                "duration": 0.0659,
                "tempo": 120.0
            },
            {
                "pitch": 84,
                "velocity": 80,
                "duration": 0.0682,
                "tempo": 120.0
            },
            {
                "pitch": 83,
                "velocity": 80,
                "duration": 0.0477,
                "tempo": 120.0
            },
            {
                "pitch": 84,
                "velocity": 80,
                "duration": 0.05,
                "tempo": 120.0
            },
            {
                "pitch": 74,
                "velocity": 80,
                "duration": 0.0659,
                "tempo": 120.0
            },
            {
                "pitch": 83,
                "velocity": 80,
                "duration": 0.0659,
                "tempo": 120.0
            },
            {
                "pitch": 84,
                "velocity": 80,
                "duration": 0.05,
                "tempo": 120.0
            },
            {
                "pitch": 86,
                "velocity": 80,
                "duration": 0.05,
                "tempo": 120.0
            },
            {
                "pitch": 83,
                "velocity": 80,
                "duration": 0.0659,
                "tempo": 120.0
            },
            {
                "pitch": 84,
                "velocity": 80,
                "duration": 0.0682,
                "tempo": 120.0
            },
            {
                "pitch": 86,
                "velocity": 80,
                "duration": 0.05,
                "tempo": 120.0
            },
            {
                "pitch": 83,
                "velocity": 80,
                "duration": 0.05,
                "tempo": 120.0
            },
            {
                "pitch": 79,
                "velocity": 80,
                "duration": 0.0659,
                "tempo": 120.0
            },
            {
                "pitch": 74,
                "velocity": 80,
                "duration": 0.0659,
                "tempo": 120.0
            },
            {
                "pitch": 79,
                "velocity": 80,
                "duration": 0.05,
                "tempo": 120.0
            },
            {
                "pitch": 83,
                "velocity": 80,
                "duration": 0.05,
                "tempo": 120.0
            },
            {
                "pitch": 86,
                "velocity": 80,
                "duration": 0.0659,
                "tempo": 120.0
            },
            {
                "pitch": 84,
                "velocity": 80,
                "duration": 0.0682,
                "tempo": 120.0
            },
            {
                "pitch": 83,
                "velocity": 80,
                "duration": 0.05,
                "tempo": 120.0
            },
            {
                "pitch": 84,
                "velocity": 80,
                "duration": 0.05,
                "tempo": 120.0
            },
            {
                "pitch": 74,
                "velocity": 80,
                "duration": 0.0682,
                "tempo": 120.0
            },
            {
                "pitch": 83,
                "velocity": 80,
                "duration": 0.0682,
                "tempo": 120.0
            },
            {
                "pitch": 84,
                "velocity": 80,
                "duration": 0.0523,
                "tempo": 120.0
            },
            {
                "pitch": 86,
                "velocity": 80,
                "duration": 0.0523,
                "tempo": 120.0
            },
            {
                "pitch": 83,
                "velocity": 80,
                "duration": 0.0682,
                "tempo": 120.0
            },
            {
                "pitch": 84,
                "velocity": 80,
                "duration": 0.05,
                "tempo": 120.0
            },
            {
                "pitch": 86,
                "velocity": 80,
                "duration": 0.0523,
                "tempo": 120.0
            },
            {
                "pitch": 83,
                "velocity": 80,
                "duration": 0.0705,
                "tempo": 120.0
            },
            {
                "pitch": 79,
                "velocity": 80,
                "duration": 0.0705,
                "tempo": 120.0
            },
            {
                "pitch": 76,
                "velocity": 80,
                "duration": 0.05,
                "tempo": 120.0
            },
            {
                "pitch": 81,
                "velocity": 80,
                "duration": 0.05,
                "tempo": 120.0
            },
            {
                "pitch": 83,
                "velocity": 80,
                "duration": 0.0682,
                "tempo": 120.0
            },
            {
                "pitch": 86,
                "velocity": 80,
                "duration": 0.0682,
                "tempo": 120.0
            },
            {
                "pitch": 84,
                "velocity": 80,
                "duration": 0.05,
                "tempo": 120.0
            },
            {
                "pitch": 83,
                "velocity": 80,
                "duration": 0.05,
                "tempo": 120.0
            },
            {
                "pitch": 84,
                "velocity": 80,
                "duration": 0.0659,
                "tempo": 120.0
            },
            {
                "pitch": 81,
                "velocity": 80,
                "duration": 0.0659,
                "tempo": 120.0
            },
            {
                "pitch": 83,
                "velocity": 80,
                "duration": 0.05,
                "tempo": 120.0
            },
            {
                "pitch": 84,
                "velocity": 80,
                "duration": 0.05,
                "tempo": 120.0
            },
            {
                "pitch": 86,
                "velocity": 80,
                "duration": 0.0659,
                "tempo": 120.0
            },
            {
                "pitch": 83,
                "velocity": 80,
                "duration": 0.0682,
                "tempo": 120.0
            },
            {
                "pitch": 84,
                "velocity": 80,
                "duration": 0.05,
                "tempo": 120.0
            },
            {
                "pitch": 86,
                "velocity": 80,
                "duration": 0.05,
                "tempo": 120.0
            },
            {
                "pitch": 88,
                "velocity": 80,
                "duration": 0.0659,
                "tempo": 120.0
            },
            {
                "pitch": 84,
                "velocity": 80,
                "duration": 0.0659,
                "tempo": 120.0
            },
            {
                "pitch": 76,
                "velocity": 80,
                "duration": 0.05,
                "tempo": 120.0
            },
            {
                "pitch": 81,
                "velocity": 80,
                "duration": 0.05,
                "tempo": 120.0
            },
            {
                "pitch": 83,
                "velocity": 80,
                "duration": 0.0659,
                "tempo": 120.0
            },
            {
                "pitch": 86,
                "velocity": 80,
                "duration": 0.0682,
                "tempo": 120.0
            },
            {
                "pitch": 84,
                "velocity": 80,
                "duration": 0.05,
                "tempo": 120.0
            },
            {
                "pitch": 83,
                "velocity": 80,
                "duration": 0.0682,
                "tempo": 120.0
            },
            {
                "pitch": 84,
                "velocity": 80,
                "duration": 0.0659,
                "tempo": 120.0
            },
            {
                "pitch": 81,
                "velocity": 80,
                "duration": 0.05,
                "tempo": 120.0
            },
            {
                "pitch": 83,
                "velocity": 80,
                "duration": 0.05,
                "tempo": 120.0
            },
            {
                "pitch": 84,
                "velocity": 80,
                "duration": 0.0659,
                "tempo": 120.0
            },
            {
                "pitch": 86,
                "velocity": 80,
                "duration": 0.0659,
                "tempo": 120.0
            },
            {
                "pitch": 83,
                "velocity": 80,
                "duration": 0.05,
                "tempo": 120.0
            },
            {
                "pitch": 84,
                "velocity": 80,
                "duration": 0.05,
                "tempo": 120.0
            },
            {
                "pitch": 86,
                "velocity": 80,
                "duration": 0.0682,
                "tempo": 120.0
            },
            {
                "pitch": 88,
                "velocity": 80,
                "duration": 0.0682,
                "tempo": 120.0
            },
            {
                "pitch": 84,
                "velocity": 80,
                "duration": 0.05,
                "tempo": 120.0
            },
            {
                "pitch": 76,
                "velocity": 80,
                "duration": 0.0523,
                "tempo": 120.0
            },
            {
                "pitch": 81,
                "velocity": 80,
                "duration": 0.0682,
                "tempo": 120.0
            },
            {
                "pitch": 83,
                "velocity": 80,
                "duration": 0.0682,
                "tempo": 120.0
            },
            {
                "pitch": 86,
                "velocity": 80,
                "duration": 0.0523,
                "tempo": 120.0
            },
            {
                "pitch": 84,
                "velocity": 80,
                "duration": 0.05,
                "tempo": 120.0
            },
            {
                "pitch": 83,
                "velocity": 80,
                "duration": 0.0636,
                "tempo": 120.0
            },
            {
                "pitch": 84,
                "velocity": 80,
                "duration": 0.0636,
                "tempo": 120.0
            },
            {
                "pitch": 81,
                "velocity": 80,
                "duration": 0.0477,
                "tempo": 120.0
            },
            {
                "pitch": 83,
                "velocity": 80,
                "duration": 0.0523,
                "tempo": 120.0
            },
            {
                "pitch": 84,
                "velocity": 80,
                "duration": 0.0682,
                "tempo": 120.0
            },
            {
                "pitch": 86,
                "velocity": 80,
                "duration": 0.0682,
                "tempo": 120.0
            },
            {
                "pitch": 83,
                "velocity": 80,
                "duration": 0.0523,
                "tempo": 120.0
            },
            {
                "pitch": 84,
                "velocity": 80,
                "duration": 0.0682,
                "tempo": 120.0
            },
            {
                "pitch": 86,
                "velocity": 80,
                "duration": 0.0682,
                "tempo": 120.0
            },
            {
                "pitch": 88,
                "velocity": 80,
                "duration": 0.05,
                "tempo": 120.0
            },
            {
                "pitch": 84,
                "velocity": 80,
                "duration": 0.05,
                "tempo": 120.0
            },
            {
                "pitch": 76,
                "velocity": 80,
                "duration": 0.0659,
                "tempo": 120.0
            },
            {
                "pitch": 81,
                "velocity": 80,
                "duration": 0.0659,
                "tempo": 120.0
            },
            {
                "pitch": 83,
                "velocity": 80,
                "duration": 0.05,
                "tempo": 120.0
            },
            {
                "pitch": 86,
                "velocity": 80,
                "duration": 0.05,
                "tempo": 120.0
            },
            {
                "pitch": 84,
                "velocity": 80,
                "duration": 0.0682,
                "tempo": 120.0
            },
            {
                "pitch": 83,
                "velocity": 80,
                "duration": 0.0682,
                "tempo": 120.0
            },
            {
                "pitch": 84,
                "velocity": 80,
                "duration": 0.05,
                "tempo": 120.0
            },
            {
                "pitch": 81,
                "velocity": 80,
                "duration": 0.05,
                "tempo": 120.0
            },
            {
                "pitch": 83,
                "velocity": 80,
                "duration": 0.0659,
                "tempo": 120.0
            },
            {
                "pitch": 84,
                "velocity": 80,
                "duration": 0.0659,
                "tempo": 120.0
            },
            {
                "pitch": 86,
                "velocity": 80,
                "duration": 0.05,
                "tempo": 120.0
            },
            {
                "pitch": 83,
                "velocity": 80,
                "duration": 0.05,
                "tempo": 120.0
            },
            {
                "pitch": 84,
                "velocity": 80,
                "duration": 0.0659,
                "tempo": 120.0
            },
            {
                "pitch": 86,
                "velocity": 80,
                "duration": 0.0682,
                "tempo": 120.0
            },
            {
                "pitch": 88,
                "velocity": 80,
                "duration": 0.05,
                "tempo": 120.0
            },
            {
                "pitch": 84,
                "velocity": 80,
                "duration": 0.05,
                "tempo": 120.0
            },
            {
                "pitch": 76,
                "velocity": 80,
                "duration": 0.0636,
                "tempo": 120.0
            },
            {
                "pitch": 81,
                "velocity": 80,
                "duration": 0.0023,
                "tempo": 120.0
            }
        ],
        "Violin": [
            {
                "pitch": 60,
                "velocity": 101,
                "duration": 0.4182,
                "tempo": 120.0
            },
            {
                "pitch": 62,
                "velocity": 101,
                "duration": 0.5523,
                "tempo": 120.0
            },
            {
                "pitch": 64,
                "velocity": 101,
                "duration": 0.0545,
                "tempo": 120.0
            },
            {
                "pitch": 60,
                "velocity": 101,
                "duration": 0.4455,
                "tempo": 120.0
            },
            {
                "pitch": 62,
                "velocity": 101,
                "duration": 0.5682,
                "tempo": 120.0
            },
            {
                "pitch": 64,
                "velocity": 101,
                "duration": 0.0159,
                "tempo": 120.0
            },
            {
                "pitch": 60,
                "velocity": 101,
                "duration": 0.4341,
                "tempo": 120.0
            },
            {
                "pitch": 62,
                "velocity": 101,
                "duration": 0.5477,
                "tempo": 120.0
            },
            {
                "pitch": 64,
                "velocity": 101,
                "duration": 0.0182,
                "tempo": 120.0
            },
            {
                "pitch": 60,
                "velocity": 101,
                "duration": 0.4409,
                "tempo": 120.0
            },
            {
                "pitch": 62,
                "velocity": 101,
                "duration": 0.5386,
                "tempo": 120.0
            },
            {
                "pitch": 60,
                "velocity": 101,
                "duration": 0.4341,
                "tempo": 120.0
            },
            {
                "pitch": 62,
                "velocity": 101,
                "duration": 0.5341,
                "tempo": 120.0
            },
            {
                "pitch": 60,
                "velocity": 101,
                "duration": 0.425,
                "tempo": 120.0
            },
            {
                "pitch": 62,
                "velocity": 101,
                "duration": 0.5114,
                "tempo": 120.0
            }
        ],
        "Church Organ": [
            {
                "pitch": 64,
                "velocity": 80,
                "duration": 0.0477,
                "tempo": 120.0
            },
            {
                "pitch": 60,
                "velocity": 80,
                "duration": 0.0659,
                "tempo": 120.0
            },
            {
                "pitch": 64,
                "velocity": 80,
                "duration": 0.0659,
                "tempo": 120.0
            },
            {
                "pitch": 60,
                "velocity": 80,
                "duration": 0.05,
                "tempo": 120.0
            },
            {
                "pitch": 64,
                "velocity": 80,
                "duration": 0.0477,
                "tempo": 120.0
            },
            {
                "pitch": 64,
                "velocity": 80,
                "duration": 0.0659,
                "tempo": 120.0
            },
            {
                "pitch": 60,
                "velocity": 80,
                "duration": 0.05,
                "tempo": 120.0
            },
            {
                "pitch": 64,
                "velocity": 80,
                "duration": 0.0659,
                "tempo": 120.0
            },
            {
                "pitch": 60,
                "velocity": 80,
                "duration": 0.0659,
                "tempo": 120.0
            },
            {
                "pitch": 64,
                "velocity": 80,
                "duration": 0.05,
                "tempo": 120.0
            },
            {
                "pitch": 64,
                "velocity": 80,
                "duration": 0.0659,
                "tempo": 120.0
            },
            {
                "pitch": 63,
                "velocity": 80,
                "duration": 0.0659,
                "tempo": 120.0
            },
            {
                "pitch": 62,
                "velocity": 80,
                "duration": 0.0477,
                "tempo": 120.0
            },
            {
                "pitch": 61,
                "velocity": 80,
                "duration": 0.05,
                "tempo": 120.0
            },
            {
                "pitch": 64,
                "velocity": 80,
                "duration": 0.0659,
                "tempo": 120.0
            },
            {
                "pitch": 60,
                "velocity": 80,
                "duration": 0.0682,
                "tempo": 120.0
            },
            {
                "pitch": 64,
                "velocity": 80,
                "duration": 0.05,
                "tempo": 120.0
            },
            {
                "pitch": 60,
                "velocity": 80,
                "duration": 0.0523,
                "tempo": 120.0
            },
            {
                "pitch": 64,
                "velocity": 80,
                "duration": 0.0682,
                "tempo": 120.0
            },
            {
                "pitch": 64,
                "velocity": 80,
                "duration": 0.0477,
                "tempo": 120.0
            },
            {
                "pitch": 60,
                "velocity": 80,
                "duration": 0.05,
                "tempo": 120.0
            },
            {
                "pitch": 64,
                "velocity": 80,
                "duration": 0.0659,
                "tempo": 120.0
            },
            {
                "pitch": 60,
                "velocity": 80,
                "duration": 0.0659,
                "tempo": 120.0
            },
            {
                "pitch": 64,
                "velocity": 80,
                "duration": 0.05,
                "tempo": 120.0
            },
            {
                "pitch": 64,
                "velocity": 80,
                "duration": 0.0659,
                "tempo": 120.0
            },
            {
                "pitch": 63,
                "velocity": 80,
                "duration": 0.0682,
                "tempo": 120.0
            },
            {
                "pitch": 62,
                "velocity": 80,
                "duration": 0.0477,
                "tempo": 120.0
            },
            {
                "pitch": 61,
                "velocity": 80,
                "duration": 0.05,
                "tempo": 120.0
            },
            {
                "pitch": 62,
                "velocity": 80,
                "duration": 0.0636,
                "tempo": 120.0
            },
            {
                "pitch": 59,
                "velocity": 80,
                "duration": 0.05,
                "tempo": 120.0
            },
            {
                "pitch": 62,
                "velocity": 80,
                "duration": 0.05,
                "tempo": 120.0
            },
            {
                "pitch": 59,
                "velocity": 80,
                "duration": 0.0659,
                "tempo": 120.0
            },
            {
                "pitch": 62,
                "velocity": 80,
                "duration": 0.0659,
                "tempo": 120.0
            },
            {
                "pitch": 62,
                "velocity": 80,
                "duration": 0.0477,
                "tempo": 120.0
            },
            {
                "pitch": 59,
                "velocity": 80,
                "duration": 0.0682,
                "tempo": 120.0
            },
            {
                "pitch": 62,
                "velocity": 80,
                "duration": 0.0659,
                "tempo": 120.0
            },
            {
                "pitch": 59,
                "velocity": 80,
                "duration": 0.05,
                "tempo": 120.0
            },
            {
                "pitch": 62,
                "velocity": 80,
                "duration": 0.05,
                "tempo": 120.0
            },
            {
                "pitch": 62,
                "velocity": 80,
                "duration": 0.0659,
                "tempo": 120.0
            },
            {
                "pitch": 61,
                "velocity": 80,
                "duration": 0.05,
                "tempo": 120.0
            },
            {
                "pitch": 60,
                "velocity": 80,
                "duration": 0.0477,
                "tempo": 120.0
            },
            {
                "pitch": 59,
                "velocity": 80,
                "duration": 0.0682,
                "tempo": 120.0
            },
            {
                "pitch": 62,
                "velocity": 80,
                "duration": 0.0636,
                "tempo": 120.0
            },
            {
                "pitch": 59,
                "velocity": 80,
                "duration": 0.05,
                "tempo": 120.0
            },
            {
                "pitch": 62,
                "velocity": 80,
                "duration": 0.05,
                "tempo": 120.0
            },
            {
                "pitch": 59,
                "velocity": 80,
                "duration": 0.0659,
                "tempo": 120.0
            },
            {
                "pitch": 62,
                "velocity": 80,
                "duration": 0.0659,
                "tempo": 120.0
            },
            {
                "pitch": 62,
                "velocity": 80,
                "duration": 0.0477,
                "tempo": 120.0
            },
            {
                "pitch": 59,
                "velocity": 80,
                "duration": 0.0659,
                "tempo": 120.0
            },
            {
                "pitch": 62,
                "velocity": 80,
                "duration": 0.0659,
                "tempo": 120.0
            },
            {
                "pitch": 59,
                "velocity": 80,
                "duration": 0.0477,
                "tempo": 120.0
            },
            {
                "pitch": 62,
                "velocity": 80,
                "duration": 0.0659,
                "tempo": 120.0
            },
            {
                "pitch": 62,
                "velocity": 80,
                "duration": 0.0523,
                "tempo": 120.0
            },
            {
                "pitch": 61,
                "velocity": 80,
                "duration": 0.0523,
                "tempo": 120.0
            },
            {
                "pitch": 60,
                "velocity": 80,
                "duration": 0.0682,
                "tempo": 120.0
            },
            {
                "pitch": 59,
                "velocity": 80,
                "duration": 0.0682,
                "tempo": 120.0
            },
            {
                "pitch": 60,
                "velocity": 80,
                "duration": 0.05,
                "tempo": 120.0
            },
            {
                "pitch": 57,
                "velocity": 80,
                "duration": 0.0523,
                "tempo": 120.0
            },
            {
                "pitch": 60,
                "velocity": 80,
                "duration": 0.0682,
                "tempo": 120.0
            },
            {
                "pitch": 57,
                "velocity": 80,
                "duration": 0.0682,
                "tempo": 120.0
            },
            {
                "pitch": 60,
                "velocity": 80,
                "duration": 0.0477,
                "tempo": 120.0
            },
            {
                "pitch": 60,
                "velocity": 80,
                "duration": 0.0659,
                "tempo": 120.0
            },
            {
                "pitch": 57,
                "velocity": 80,
                "duration": 0.0659,
                "tempo": 120.0
            },
            {
                "pitch": 60,
                "velocity": 80,
                "duration": 0.05,
                "tempo": 120.0
            },
            {
                "pitch": 57,
                "velocity": 80,
                "duration": 0.05,
                "tempo": 120.0
            },
            {
                "pitch": 60,
                "velocity": 80,
                "duration": 0.0659,
                "tempo": 120.0
            },
            {
                "pitch": 60,
                "velocity": 80,
                "duration": 0.05,
                "tempo": 120.0
            },
            {
                "pitch": 62,
                "velocity": 80,
                "duration": 0.0477,
                "tempo": 120.0
            },
            {
                "pitch": 65,
                "velocity": 80,
                "duration": 0.0636,
                "tempo": 120.0
            },
            {
                "pitch": 60,
                "velocity": 80,
                "duration": 0.0659,
                "tempo": 120.0
            },
            {
                "pitch": 60,
                "velocity": 80,
                "duration": 0.0477,
                "tempo": 120.0
            },
            {
                "pitch": 57,
                "velocity": 80,
                "duration": 0.0659,
                "tempo": 120.0
            },
            {
                "pitch": 60,
                "velocity": 80,
                "duration": 0.0659,
                "tempo": 120.0
            },
            {
                "pitch": 57,
                "velocity": 80,
                "duration": 0.05,
                "tempo": 120.0
            },
            {
                "pitch": 60,
                "velocity": 80,
                "duration": 0.05,
                "tempo": 120.0
            },
            {
                "pitch": 60,
                "velocity": 80,
                "duration": 0.0659,
                "tempo": 120.0
            },
            {
                "pitch": 57,
                "velocity": 80,
                "duration": 0.0477,
                "tempo": 120.0
            },
            {
                "pitch": 60,
                "velocity": 80,
                "duration": 0.0477,
                "tempo": 120.0
            },
            {
                "pitch": 57,
                "velocity": 80,
                "duration": 0.0659,
                "tempo": 120.0
            },
            {
                "pitch": 60,
                "velocity": 80,
                "duration": 0.0659,
                "tempo": 120.0
            },
            {
                "pitch": 60,
                "velocity": 80,
                "duration": 0.05,
                "tempo": 120.0
            },
            {
                "pitch": 62,
                "velocity": 80,
                "duration": 0.0659,
                "tempo": 120.0
            },
            {
                "pitch": 65,
                "velocity": 80,
                "duration": 0.0659,
                "tempo": 120.0
            },
            {
                "pitch": 60,
                "velocity": 80,
                "duration": 0.0477,
                "tempo": 120.0
            },
            {
                "pitch": 62,
                "velocity": 80,
                "duration": 0.0477,
                "tempo": 120.0
            },
            {
                "pitch": 59,
                "velocity": 80,
                "duration": 0.0659,
                "tempo": 120.0
            },
            {
                "pitch": 62,
                "velocity": 80,
                "duration": 0.0659,
                "tempo": 120.0
            },
            {
                "pitch": 59,
                "velocity": 80,
                "duration": 0.05,
                "tempo": 120.0
            },
            {
                "pitch": 62,
                "velocity": 80,
                "duration": 0.05,
                "tempo": 120.0
            },
            {
                "pitch": 62,
                "velocity": 80,
                "duration": 0.0659,
                "tempo": 120.0
            },
            {
                "pitch": 59,
                "velocity": 80,
                "duration": 0.05,
                "tempo": 120.0
            },
            {
                "pitch": 62,
                "velocity": 80,
                "duration": 0.0477,
                "tempo": 120.0
            },
            {
                "pitch": 59,
                "velocity": 80,
                "duration": 0.0682,
                "tempo": 120.0
            },
            {
                "pitch": 62,
                "velocity": 80,
                "duration": 0.0477,
                "tempo": 120.0
            },
            {
                "pitch": 62,
                "velocity": 80,
                "duration": 0.0659,
                "tempo": 120.0
            },
            {
                "pitch": 65,
                "velocity": 80,
                "duration": 0.0659,
                "tempo": 120.0
            },
            {
                "pitch": 67,
                "velocity": 80,
                "duration": 0.05,
                "tempo": 120.0
            },
            {
                "pitch": 62,
                "velocity": 80,
                "duration": 0.05,
                "tempo": 120.0
            },
            {
                "pitch": 62,
                "velocity": 80,
                "duration": 0.0659,
                "tempo": 120.0
            },
            {
                "pitch": 59,
                "velocity": 80,
                "duration": 0.0682,
                "tempo": 120.0
            },
            {
                "pitch": 62,
                "velocity": 80,
                "duration": 0.0477,
                "tempo": 120.0
            },
            {
                "pitch": 59,
                "velocity": 80,
                "duration": 0.05,
                "tempo": 120.0
            },
            {
                "pitch": 62,
                "velocity": 80,
                "duration": 0.0659,
                "tempo": 120.0
            },
            {
                "pitch": 62,
                "velocity": 80,
                "duration": 0.05,
                "tempo": 120.0
            },
            {
                "pitch": 59,
                "velocity": 80,
                "duration": 0.05,
                "tempo": 120.0
            },
            {
                "pitch": 62,
                "velocity": 80,
                "duration": 0.0659,
                "tempo": 120.0
            },
            {
                "pitch": 59,
                "velocity": 80,
                "duration": 0.0682,
                "tempo": 120.0
            },
            {
                "pitch": 62,
                "velocity": 80,
                "duration": 0.0477,
                "tempo": 120.0
            },
            {
                "pitch": 62,
                "velocity": 80,
                "duration": 0.0659,
                "tempo": 120.0
            },
            {
                "pitch": 65,
                "velocity": 80,
                "duration": 0.0659,
                "tempo": 120.0
            },
            {
                "pitch": 67,
                "velocity": 80,
                "duration": 0.05,
                "tempo": 120.0
            },
            {
                "pitch": 62,
                "velocity": 80,
                "duration": 0.05,
                "tempo": 120.0
            },
            {
                "pitch": 64,
                "velocity": 80,
                "duration": 0.0659,
                "tempo": 120.0
            },
            {
                "pitch": 60,
                "velocity": 80,
                "duration": 0.0705,
                "tempo": 120.0
            },
            {
                "pitch": 64,
                "velocity": 80,
                "duration": 0.05,
                "tempo": 120.0
            },
            {
                "pitch": 60,
                "velocity": 80,
                "duration": 0.0682,
                "tempo": 120.0
            },
            {
                "pitch": 64,
                "velocity": 80,
                "duration": 0.0636,
                "tempo": 120.0
            },
            {
                "pitch": 64,
                "velocity": 80,
                "duration": 0.0477,
                "tempo": 120.0
            },
            {
                "pitch": 60,
                "velocity": 80,
                "duration": 0.0659,
                "tempo": 120.0
            },
            {
                "pitch": 64,
                "velocity": 80,
                "duration": 0.0659,
                "tempo": 120.0
            },
            {
                "pitch": 60,
                "velocity": 80,
                "duration": 0.05,
                "tempo": 120.0
            },
            {
                "pitch": 64,
                "velocity": 80,
                "duration": 0.05,
                "tempo": 120.0
            },
            {
                "pitch": 64,
                "velocity": 80,
                "duration": 0.0659,
                "tempo": 120.0
            },
            {
                "pitch": 63,
                "velocity": 80,
                "duration": 0.0477,
                "tempo": 120.0
            },
            {
                "pitch": 62,
                "velocity": 80,
                "duration": 0.0477,
                "tempo": 120.0
            },
            {
                "pitch": 61,
                "velocity": 80,
                "duration": 0.0659,
                "tempo": 120.0
            },
            {
                "pitch": 64,
                "velocity": 80,
                "duration": 0.0659,
                "tempo": 120.0
            },
            {
                "pitch": 60,
                "velocity": 80,
                "duration": 0.0523,
                "tempo": 120.0
            },
            {
                "pitch": 64,
                "velocity": 80,
                "duration": 0.0523,
                "tempo": 120.0
            },
            {
                "pitch": 60,
                "velocity": 80,
                "duration": 0.0682,
                "tempo": 120.0
            },
            {
                "pitch": 64,
                "velocity": 80,
                "duration": 0.0659,
                "tempo": 120.0
            },
            {
                "pitch": 64,
                "velocity": 80,
                "duration": 0.05,
                "tempo": 120.0
            },
            {
                "pitch": 60,
                "velocity": 80,
                "duration": 0.0659,
                "tempo": 120.0
            },
            {
                "pitch": 64,
                "velocity": 80,
                "duration": 0.0659,
                "tempo": 120.0
            },
            {
                "pitch": 60,
                "velocity": 80,
                "duration": 0.05,
                "tempo": 120.0
            },
            {
                "pitch": 64,
                "velocity": 80,
                "duration": 0.0659,
                "tempo": 120.0
            },
            {
                "pitch": 64,
                "velocity": 80,
                "duration": 0.05,
                "tempo": 120.0
            },
            {
                "pitch": 63,
                "velocity": 80,
                "duration": 0.0523,
                "tempo": 120.0
            },
            {
                "pitch": 62,
                "velocity": 80,
                "duration": 0.0659,
                "tempo": 120.0
            },
            {
                "pitch": 61,
                "velocity": 80,
                "duration": 0.0682,
                "tempo": 120.0
            },
            {
                "pitch": 62,
                "velocity": 80,
                "duration": 0.0477,
                "tempo": 120.0
            },
            {
                "pitch": 59,
                "velocity": 80,
                "duration": 0.05,
                "tempo": 120.0
            },
            {
                "pitch": 62,
                "velocity": 80,
                "duration": 0.0682,
                "tempo": 120.0
            },
            {
                "pitch": 59,
                "velocity": 80,
                "duration": 0.0682,
                "tempo": 120.0
            },
            {
                "pitch": 62,
                "velocity": 80,
                "duration": 0.05,
                "tempo": 120.0
            },
            {
                "pitch": 62,
                "velocity": 80,
                "duration": 0.0659,
                "tempo": 120.0
            },
            {
                "pitch": 59,
                "velocity": 80,
                "duration": 0.0659,
                "tempo": 120.0
            },
            {
                "pitch": 62,
                "velocity": 80,
                "duration": 0.0477,
                "tempo": 120.0
            },
            {
                "pitch": 59,
                "velocity": 80,
                "duration": 0.05,
                "tempo": 120.0
            },
            {
                "pitch": 62,
                "velocity": 80,
                "duration": 0.0659,
                "tempo": 120.0
            },
            {
                "pitch": 62,
                "velocity": 80,
                "duration": 0.0477,
                "tempo": 120.0
            },
            {
                "pitch": 61,
                "velocity": 80,
                "duration": 0.0477,
                "tempo": 120.0
            },
            {
                "pitch": 60,
                "velocity": 80,
                "duration": 0.0636,
                "tempo": 120.0
            },
            {
                "pitch": 59,
                "velocity": 80,
                "duration": 0.0659,
                "tempo": 120.0
            },
            {
                "pitch": 62,
                "velocity": 80,
                "duration": 0.0477,
                "tempo": 120.0
            },
            {
                "pitch": 59,
                "velocity": 80,
                "duration": 0.05,
                "tempo": 120.0
            },
            {
                "pitch": 62,
                "velocity": 80,
                "duration": 0.0682,
                "tempo": 120.0
            },
            {
                "pitch": 59,
                "velocity": 80,
                "duration": 0.0523,
                "tempo": 120.0
            },
            {
                "pitch": 62,
                "velocity": 80,
                "duration": 0.05,
                "tempo": 120.0
            },
            {
                "pitch": 62,
                "velocity": 80,
                "duration": 0.0659,
                "tempo": 120.0
            },
            {
                "pitch": 59,
                "velocity": 80,
                "duration": 0.05,
                "tempo": 120.0
            },
            {
                "pitch": 62,
                "velocity": 80,
                "duration": 0.05,
                "tempo": 120.0
            },
            {
                "pitch": 59,
                "velocity": 80,
                "duration": 0.0659,
                "tempo": 120.0
            },
            {
                "pitch": 62,
                "velocity": 80,
                "duration": 0.0659,
                "tempo": 120.0
            },
            {
                "pitch": 62,
                "velocity": 80,
                "duration": 0.0477,
                "tempo": 120.0
            },
            {
                "pitch": 61,
                "velocity": 80,
                "duration": 0.0659,
                "tempo": 120.0
            },
            {
                "pitch": 60,
                "velocity": 80,
                "duration": 0.0659,
                "tempo": 120.0
            },
            {
                "pitch": 59,
                "velocity": 80,
                "duration": 0.05,
                "tempo": 120.0
            },
            {
                "pitch": 60,
                "velocity": 80,
                "duration": 0.0477,
                "tempo": 120.0
            },
            {
                "pitch": 57,
                "velocity": 80,
                "duration": 0.0659,
                "tempo": 120.0
            },
            {
                "pitch": 60,
                "velocity": 80,
                "duration": 0.0659,
                "tempo": 120.0
            },
            {
                "pitch": 57,
                "velocity": 80,
                "duration": 0.05,
                "tempo": 120.0
            },
            {
                "pitch": 60,
                "velocity": 80,
                "duration": 0.0477,
                "tempo": 120.0
            },
            {
                "pitch": 60,
                "velocity": 80,
                "duration": 0.0659,
                "tempo": 120.0
            },
            {
                "pitch": 57,
                "velocity": 80,
                "duration": 0.05,
                "tempo": 120.0
            },
            {
                "pitch": 60,
                "velocity": 80,
                "duration": 0.05,
                "tempo": 120.0
            },
            {
                "pitch": 57,
                "velocity": 80,
                "duration": 0.0659,
                "tempo": 120.0
            },
            {
                "pitch": 60,
                "velocity": 80,
                "duration": 0.0659,
                "tempo": 120.0
            },
            {
                "pitch": 60,
                "velocity": 80,
                "duration": 0.0659,
                "tempo": 120.0
            },
            {
                "pitch": 62,
                "velocity": 80,
                "duration": 0.0682,
                "tempo": 120.0
            },
            {
                "pitch": 65,
                "velocity": 80,
                "duration": 0.0477,
                "tempo": 120.0
            },
            {
                "pitch": 60,
                "velocity": 80,
                "duration": 0.05,
                "tempo": 120.0
            },
            {
                "pitch": 60,
                "velocity": 80,
                "duration": 0.0636,
                "tempo": 120.0
            },
            {
                "pitch": 57,
                "velocity": 80,
                "duration": 0.0659,
                "tempo": 120.0
            },
            {
                "pitch": 60,
                "velocity": 80,
                "duration": 0.05,
                "tempo": 120.0
            },
            {
                "pitch": 57,
                "velocity": 80,
                "duration": 0.05,
                "tempo": 120.0
            },
            {
                "pitch": 60,
                "velocity": 80,
                "duration": 0.0659,
                "tempo": 120.0
            },
            {
                "pitch": 60,
                "velocity": 80,
                "duration": 0.0477,
                "tempo": 120.0
            },
            {
                "pitch": 57,
                "velocity": 80,
                "duration": 0.05,
                "tempo": 120.0
            },
            {
                "pitch": 60,
                "velocity": 80,
                "duration": 0.0659,
                "tempo": 120.0
            },
            {
                "pitch": 57,
                "velocity": 80,
                "duration": 0.0659,
                "tempo": 120.0
            },
            {
                "pitch": 60,
                "velocity": 80,
                "duration": 0.05,
                "tempo": 120.0
            },
            {
                "pitch": 60,
                "velocity": 80,
                "duration": 0.0659,
                "tempo": 120.0
            },
            {
                "pitch": 62,
                "velocity": 80,
                "duration": 0.0659,
                "tempo": 120.0
            },
            {
                "pitch": 65,
                "velocity": 80,
                "duration": 0.0477,
                "tempo": 120.0
            },
            {
                "pitch": 60,
                "velocity": 80,
                "duration": 0.05,
                "tempo": 120.0
            },
            {
                "pitch": 62,
                "velocity": 80,
                "duration": 0.0636,
                "tempo": 120.0
            },
            {
                "pitch": 59,
                "velocity": 80,
                "duration": 0.0659,
                "tempo": 120.0
            },
            {
                "pitch": 62,
                "velocity": 80,
                "duration": 0.05,
                "tempo": 120.0
            },
            {
                "pitch": 59,
                "velocity": 80,
                "duration": 0.0659,
                "tempo": 120.0
            },
            {
                "pitch": 62,
                "velocity": 80,
                "duration": 0.0659,
                "tempo": 120.0
            },
            {
                "pitch": 62,
                "velocity": 80,
                "duration": 0.05,
                "tempo": 120.0
            },
            {
                "pitch": 59,
                "velocity": 80,
                "duration": 0.0659,
                "tempo": 120.0
            },
            {
                "pitch": 62,
                "velocity": 80,
                "duration": 0.0636,
                "tempo": 120.0
            },
            {
                "pitch": 59,
                "velocity": 80,
                "duration": 0.0477,
                "tempo": 120.0
            },
            {
                "pitch": 62,
                "velocity": 80,
                "duration": 0.0477,
                "tempo": 120.0
            },
            {
                "pitch": 62,
                "velocity": 80,
                "duration": 0.0659,
                "tempo": 120.0
            },
            {
                "pitch": 65,
                "velocity": 80,
                "duration": 0.05,
                "tempo": 120.0
            },
            {
                "pitch": 67,
                "velocity": 80,
                "duration": 0.05,
                "tempo": 120.0
            },
            {
                "pitch": 62,
                "velocity": 80,
                "duration": 0.0659,
                "tempo": 120.0
            },
            {
                "pitch": 62,
                "velocity": 80,
                "duration": 0.0659,
                "tempo": 120.0
            },
            {
                "pitch": 59,
                "velocity": 80,
                "duration": 0.0477,
                "tempo": 120.0
            },
            {
                "pitch": 62,
                "velocity": 80,
                "duration": 0.0477,
                "tempo": 120.0
            },
            {
                "pitch": 59,
                "velocity": 80,
                "duration": 0.0659,
                "tempo": 120.0
            },
            {
                "pitch": 62,
                "velocity": 80,
                "duration": 0.0659,
                "tempo": 120.0
            },
            {
                "pitch": 62,
                "velocity": 80,
                "duration": 0.05,
                "tempo": 120.0
            },
            {
                "pitch": 59,
                "velocity": 80,
                "duration": 0.0659,
                "tempo": 120.0
            },
            {
                "pitch": 62,
                "velocity": 80,
                "duration": 0.0659,
                "tempo": 120.0
            },
            {
                "pitch": 59,
                "velocity": 80,
                "duration": 0.05,
                "tempo": 120.0
            },
            {
                "pitch": 62,
                "velocity": 80,
                "duration": 0.05,
                "tempo": 120.0
            },
            {
                "pitch": 62,
                "velocity": 80,
                "duration": 0.0523,
                "tempo": 120.0
            },
            {
                "pitch": 65,
                "velocity": 80,
                "duration": 0.05,
                "tempo": 120.0
            },
            {
                "pitch": 67,
                "velocity": 80,
                "duration": 0.0682,
                "tempo": 120.0
            },
            {
                "pitch": 62,
                "velocity": 80,
                "duration": 0.0682,
                "tempo": 120.0
            },
            {
                "pitch": 64,
                "velocity": 80,
                "duration": 0.0136,
                "tempo": 120.0
            },
            {
                "pitch": 65,
                "velocity": 80,
                "duration": 0.0341,
                "tempo": 120.0
            },
            {
                "pitch": 66,
                "velocity": 80,
                "duration": 0.0159,
                "tempo": 120.0
            },
            {
                "pitch": 67,
                "velocity": 80,
                "duration": 0.0318,
                "tempo": 120.0
            },
            {
                "pitch": 68,
                "velocity": 80,
                "duration": 0.0182,
                "tempo": 120.0
            },
            {
                "pitch": 69,
                "velocity": 80,
                "duration": 0.0341,
                "tempo": 120.0
            },
            {
                "pitch": 70,
                "velocity": 80,
                "duration": 0.0159,
                "tempo": 120.0
            },
            {
                "pitch": 71,
                "velocity": 80,
                "duration": 0.0318,
                "tempo": 120.0
            },
            {
                "pitch": 72,
                "velocity": 80,
                "duration": 0.0182,
                "tempo": 120.0
            },
            {
                "pitch": 73,
                "velocity": 80,
                "duration": 0.0318,
                "tempo": 120.0
            },
            {
                "pitch": 74,
                "velocity": 80,
                "duration": 0.0159,
                "tempo": 120.0
            },
            {
                "pitch": 75,
                "velocity": 80,
                "duration": 0.0318,
                "tempo": 120.0
            },
            {
                "pitch": 76,
                "velocity": 80,
                "duration": 0.0136,
                "tempo": 120.0
            },
            {
                "pitch": 77,
                "velocity": 80,
                "duration": 0.0341,
                "tempo": 120.0
            },
            {
                "pitch": 78,
                "velocity": 80,
                "duration": 0.0159,
                "tempo": 120.0
            },
            {
                "pitch": 79,
                "velocity": 80,
                "duration": 0.0318,
                "tempo": 120.0
            },
            {
                "pitch": 80,
                "velocity": 80,
                "duration": 0.0182,
                "tempo": 120.0
            },
            {
                "pitch": 81,
                "velocity": 80,
                "duration": 0.0341,
                "tempo": 120.0
            },
            {
                "pitch": 82,
                "velocity": 80,
                "duration": 0.0159,
                "tempo": 120.0
            },
            {
                "pitch": 83,
                "velocity": 80,
                "duration": 0.0341,
                "tempo": 120.0
            },
            {
                "pitch": 84,
                "velocity": 80,
                "duration": 0.0182,
                "tempo": 120.0
            },
            {
                "pitch": 85,
                "velocity": 80,
                "duration": 0.0318,
                "tempo": 120.0
            },
            {
                "pitch": 86,
                "velocity": 80,
                "duration": 0.0159,
                "tempo": 120.0
            },
            {
                "pitch": 87,
                "velocity": 80,
                "duration": 0.0341,
                "tempo": 120.0
            },
            {
                "pitch": 88,
                "velocity": 80,
                "duration": 0.0136,
                "tempo": 120.0
            },
            {
                "pitch": 89,
                "velocity": 80,
                "duration": 0.0341,
                "tempo": 120.0
            },
            {
                "pitch": 90,
                "velocity": 80,
                "duration": 0.0159,
                "tempo": 120.0
            },
            {
                "pitch": 91,
                "velocity": 80,
                "duration": 0.0318,
                "tempo": 120.0
            },
            {
                "pitch": 92,
                "velocity": 80,
                "duration": 0.0182,
                "tempo": 120.0
            },
            {
                "pitch": 93,
                "velocity": 80,
                "duration": 0.0341,
                "tempo": 120.0
            },
            {
                "pitch": 94,
                "velocity": 80,
                "duration": 0.0318,
                "tempo": 120.0
            },
            {
                "pitch": 95,
                "velocity": 80,
                "duration": 0.0341,
                "tempo": 120.0
            },
            {
                "pitch": 96,
                "velocity": 80,
                "duration": 0.0341,
                "tempo": 120.0
            },
            {
                "pitch": 97,
                "velocity": 80,
                "duration": 0.0318,
                "tempo": 120.0
            },
            {
                "pitch": 98,
                "velocity": 80,
                "duration": 0.0341,
                "tempo": 120.0
            },
            {
                "pitch": 99,
                "velocity": 80,
                "duration": 0.0341,
                "tempo": 120.0
            },
            {
                "pitch": 100,
                "velocity": 80,
                "duration": 0.0318,
                "tempo": 120.0
            },
            {
                "pitch": 99,
                "velocity": 80,
                "duration": 0.0318,
                "tempo": 120.0
            },
            {
                "pitch": 98,
                "velocity": 80,
                "duration": 0.0341,
                "tempo": 120.0
            },
            {
                "pitch": 97,
                "velocity": 80,
                "duration": 0.0318,
                "tempo": 120.0
            },
            {
                "pitch": 96,
                "velocity": 80,
                "duration": 0.0341,
                "tempo": 120.0
            },
            {
                "pitch": 95,
                "velocity": 80,
                "duration": 0.0341,
                "tempo": 120.0
            },
            {
                "pitch": 94,
                "velocity": 80,
                "duration": 0.0318,
                "tempo": 120.0
            },
            {
                "pitch": 93,
                "velocity": 80,
                "duration": 0.0341,
                "tempo": 120.0
            },
            {
                "pitch": 92,
                "velocity": 80,
                "duration": 0.0341,
                "tempo": 120.0
            },
            {
                "pitch": 91,
                "velocity": 80,
                "duration": 0.0318,
                "tempo": 120.0
            },
            {
                "pitch": 90,
                "velocity": 80,
                "duration": 0.0341,
                "tempo": 120.0
            },
            {
                "pitch": 89,
                "velocity": 80,
                "duration": 0.0341,
                "tempo": 120.0
            },
            {
                "pitch": 88,
                "velocity": 80,
                "duration": 0.0295,
                "tempo": 120.0
            },
            {
                "pitch": 87,
                "velocity": 80,
                "duration": 0.0341,
                "tempo": 120.0
            },
            {
                "pitch": 86,
                "velocity": 80,
                "duration": 0.0341,
                "tempo": 120.0
            },
            {
                "pitch": 85,
                "velocity": 80,
                "duration": 0.0341,
                "tempo": 120.0
            },
            {
                "pitch": 84,
                "velocity": 80,
                "duration": 0.0364,
                "tempo": 120.0
            },
            {
                "pitch": 83,
                "velocity": 80,
                "duration": 0.0341,
                "tempo": 120.0
            },
            {
                "pitch": 82,
                "velocity": 80,
                "duration": 0.0318,
                "tempo": 120.0
            },
            {
                "pitch": 81,
                "velocity": 80,
                "duration": 0.0318,
                "tempo": 120.0
            },
            {
                "pitch": 80,
                "velocity": 80,
                "duration": 0.0318,
                "tempo": 120.0
            },
            {
                "pitch": 79,
                "velocity": 80,
                "duration": 0.0318,
                "tempo": 120.0
            },
            {
                "pitch": 78,
                "velocity": 80,
                "duration": 0.0318,
                "tempo": 120.0
            },
            {
                "pitch": 77,
                "velocity": 80,
                "duration": 0.0318,
                "tempo": 120.0
            },
            {
                "pitch": 76,
                "velocity": 80,
                "duration": 0.0318,
                "tempo": 120.0
            },
            {
                "pitch": 75,
                "velocity": 80,
                "duration": 0.0341,
                "tempo": 120.0
            },
            {
                "pitch": 74,
                "velocity": 80,
                "duration": 0.0364,
                "tempo": 120.0
            },
            {
                "pitch": 73,
                "velocity": 80,
                "duration": 0.0318,
                "tempo": 120.0
            },
            {
                "pitch": 72,
                "velocity": 80,
                "duration": 0.0341,
                "tempo": 120.0
            },
            {
                "pitch": 71,
                "velocity": 80,
                "duration": 0.0341,
                "tempo": 120.0
            },
            {
                "pitch": 70,
                "velocity": 80,
                "duration": 0.0318,
                "tempo": 120.0
            },
            {
                "pitch": 69,
                "velocity": 80,
                "duration": 0.0159,
                "tempo": 120.0
            },
            {
                "pitch": 68,
                "velocity": 80,
                "duration": 0.0341,
                "tempo": 120.0
            },
            {
                "pitch": 67,
                "velocity": 80,
                "duration": 0.0159,
                "tempo": 120.0
            },
            {
                "pitch": 66,
                "velocity": 80,
                "duration": 0.0318,
                "tempo": 120.0
            },
            {
                "pitch": 65,
                "velocity": 80,
                "duration": 0.0159,
                "tempo": 120.0
            },
            {
                "pitch": 64,
                "velocity": 80,
                "duration": 0.0318,
                "tempo": 120.0
            },
            {
                "pitch": 65,
                "velocity": 80,
                "duration": 0.0159,
                "tempo": 120.0
            },
            {
                "pitch": 66,
                "velocity": 80,
                "duration": 0.0318,
                "tempo": 120.0
            },
            {
                "pitch": 67,
                "velocity": 80,
                "duration": 0.0136,
                "tempo": 120.0
            },
            {
                "pitch": 68,
                "velocity": 80,
                "duration": 0.0341,
                "tempo": 120.0
            },
            {
                "pitch": 69,
                "velocity": 80,
                "duration": 0.0159,
                "tempo": 120.0
            },
            {
                "pitch": 70,
                "velocity": 80,
                "duration": 0.0318,
                "tempo": 120.0
            },
            {
                "pitch": 71,
                "velocity": 80,
                "duration": 0.0182,
                "tempo": 120.0
            },
            {
                "pitch": 72,
                "velocity": 80,
                "duration": 0.0341,
                "tempo": 120.0
            },
            {
                "pitch": 73,
                "velocity": 80,
                "duration": 0.0159,
                "tempo": 120.0
            },
            {
                "pitch": 74,
                "velocity": 80,
                "duration": 0.0341,
                "tempo": 120.0
            },
            {
                "pitch": 75,
                "velocity": 80,
                "duration": 0.0182,
                "tempo": 120.0
            },
            {
                "pitch": 76,
                "velocity": 80,
                "duration": 0.0318,
                "tempo": 120.0
            },
            {
                "pitch": 77,
                "velocity": 80,
                "duration": 0.0159,
                "tempo": 120.0
            },
            {
                "pitch": 78,
                "velocity": 80,
                "duration": 0.0318,
                "tempo": 120.0
            },
            {
                "pitch": 79,
                "velocity": 80,
                "duration": 0.0136,
                "tempo": 120.0
            },
            {
                "pitch": 80,
                "velocity": 80,
                "duration": 0.0341,
                "tempo": 120.0
            },
            {
                "pitch": 81,
                "velocity": 80,
                "duration": 0.0159,
                "tempo": 120.0
            },
            {
                "pitch": 82,
                "velocity": 80,
                "duration": 0.0318,
                "tempo": 120.0
            },
            {
                "pitch": 83,
                "velocity": 80,
                "duration": 0.0182,
                "tempo": 120.0
            },
            {
                "pitch": 84,
                "velocity": 80,
                "duration": 0.0341,
                "tempo": 120.0
            },
            {
                "pitch": 85,
                "velocity": 80,
                "duration": 0.0159,
                "tempo": 120.0
            },
            {
                "pitch": 86,
                "velocity": 80,
                "duration": 0.0341,
                "tempo": 120.0
            },
            {
                "pitch": 87,
                "velocity": 80,
                "duration": 0.0182,
                "tempo": 120.0
            }
        ],
        "Acoustic Bass": [
            {
                "pitch": 33,
                "velocity": 101,
                "duration": 0.1636,
                "tempo": 120.0
            },
            {
                "pitch": 33,
                "velocity": 101,
                "duration": 0.1523,
                "tempo": 120.0
            },
            {
                "pitch": 33,
                "velocity": 101,
                "duration": 0.1591,
                "tempo": 120.0
            },
            {
                "pitch": 33,
                "velocity": 101,
                "duration": 0.0705,
                "tempo": 120.0
            },
            {
                "pitch": 33,
                "velocity": 101,
                "duration": 0.1614,
                "tempo": 120.0
            },
            {
                "pitch": 33,
                "velocity": 101,
                "duration": 0.0727,
                "tempo": 120.0
            },
            {
                "pitch": 33,
                "velocity": 101,
                "duration": 0.0727,
                "tempo": 120.0
            },
            {
                "pitch": 33,
                "velocity": 101,
                "duration": 0.0727,
                "tempo": 120.0
            },
            {
                "pitch": 33,
                "velocity": 101,
                "duration": 0.1773,
                "tempo": 120.0
            },
            {
                "pitch": 33,
                "velocity": 101,
                "duration": 0.0705,
                "tempo": 120.0
            },
            {
                "pitch": 33,
                "velocity": 101,
                "duration": 0.0705,
                "tempo": 120.0
            },
            {
                "pitch": 33,
                "velocity": 101,
                "duration": 0.1659,
                "tempo": 120.0
            },
            {
                "pitch": 33,
                "velocity": 101,
                "duration": 0.1682,
                "tempo": 120.0
            },
            {
                "pitch": 33,
                "velocity": 101,
                "duration": 0.1545,
                "tempo": 120.0
            },
            {
                "pitch": 33,
                "velocity": 101,
                "duration": 0.0682,
                "tempo": 120.0
            },
            {
                "pitch": 33,
                "velocity": 101,
                "duration": 0.1727,
                "tempo": 120.0
            },
            {
                "pitch": 33,
                "velocity": 101,
                "duration": 0.0705,
                "tempo": 120.0
            },
            {
                "pitch": 33,
                "velocity": 101,
                "duration": 0.0705,
                "tempo": 120.0
            },
            {
                "pitch": 33,
                "velocity": 101,
                "duration": 0.0523,
                "tempo": 120.0
            },
            {
                "pitch": 33,
                "velocity": 101,
                "duration": 0.1591,
                "tempo": 120.0
            },
            {
                "pitch": 33,
                "velocity": 101,
                "duration": 0.0705,
                "tempo": 120.0
            },
            {
                "pitch": 33,
                "velocity": 101,
                "duration": 0.0545,
                "tempo": 120.0
            },
            {
                "pitch": 33,
                "velocity": 101,
                "duration": 0.1568,
                "tempo": 120.0
            },
            {
                "pitch": 33,
                "velocity": 101,
                "duration": 0.1591,
                "tempo": 120.0
            },
            {
                "pitch": 33,
                "velocity": 101,
                "duration": 0.1545,
                "tempo": 120.0
            },
            {
                "pitch": 33,
                "velocity": 101,
                "duration": 0.05,
                "tempo": 120.0
            },
            {
                "pitch": 33,
                "velocity": 101,
                "duration": 0.1545,
                "tempo": 120.0
            },
            {
                "pitch": 33,
                "velocity": 101,
                "duration": 0.0705,
                "tempo": 120.0
            },
            {
                "pitch": 33,
                "velocity": 101,
                "duration": 0.0545,
                "tempo": 120.0
            },
            {
                "pitch": 33,
                "velocity": 101,
                "duration": 0.0705,
                "tempo": 120.0
            },
            {
                "pitch": 33,
                "velocity": 101,
                "duration": 0.1545,
                "tempo": 120.0
            },
            {
                "pitch": 33,
                "velocity": 101,
                "duration": 0.0682,
                "tempo": 120.0
            },
            {
                "pitch": 33,
                "velocity": 101,
                "duration": 0.0523,
                "tempo": 120.0
            },
            {
                "pitch": 33,
                "velocity": 101,
                "duration": 0.1545,
                "tempo": 120.0
            },
            {
                "pitch": 33,
                "velocity": 101,
                "duration": 0.1568,
                "tempo": 120.0
            },
            {
                "pitch": 33,
                "velocity": 101,
                "duration": 0.1545,
                "tempo": 120.0
            },
            {
                "pitch": 33,
                "velocity": 101,
                "duration": 0.0705,
                "tempo": 120.0
            },
            {
                "pitch": 33,
                "velocity": 101,
                "duration": 0.1523,
                "tempo": 120.0
            },
            {
                "pitch": 33,
                "velocity": 101,
                "duration": 0.0659,
                "tempo": 120.0
            },
            {
                "pitch": 33,
                "velocity": 101,
                "duration": 0.05,
                "tempo": 120.0
            },
            {
                "pitch": 33,
                "velocity": 101,
                "duration": 0.0659,
                "tempo": 120.0
            },
            {
                "pitch": 33,
                "velocity": 101,
                "duration": 0.1545,
                "tempo": 120.0
            },
            {
                "pitch": 33,
                "velocity": 101,
                "duration": 0.0682,
                "tempo": 120.0
            },
            {
                "pitch": 33,
                "velocity": 101,
                "duration": 0.0682,
                "tempo": 120.0
            },
            {
                "pitch": 33,
                "velocity": 101,
                "duration": 0.1364,
                "tempo": 120.0
            },
            {
                "pitch": 33,
                "velocity": 101,
                "duration": 0.1545,
                "tempo": 120.0
            },
            {
                "pitch": 33,
                "velocity": 101,
                "duration": 0.1341,
                "tempo": 120.0
            },
            {
                "pitch": 28,
                "velocity": 101,
                "duration": 0.15,
                "tempo": 120.0
            },
            {
                "pitch": 33,
                "velocity": 101,
                "duration": 0.15,
                "tempo": 120.0
            },
            {
                "pitch": 40,
                "velocity": 101,
                "duration": 0.15,
                "tempo": 120.0
            },
            {
                "pitch": 38,
                "velocity": 101,
                "duration": 0.15,
                "tempo": 120.0
            },
            {
                "pitch": 36,
                "velocity": 101,
                "duration": 0.15,
                "tempo": 120.0
            },
            {
                "pitch": 33,
                "velocity": 101,
                "duration": 0.15,
                "tempo": 120.0
            },
            {
                "pitch": 33,
                "velocity": 101,
                "duration": 0.15,
                "tempo": 120.0
            },
            {
                "pitch": 33,
                "velocity": 101,
                "duration": 0.15,
                "tempo": 120.0
            },
            {
                "pitch": 28,
                "velocity": 101,
                "duration": 0.15,
                "tempo": 120.0
            },
            {
                "pitch": 33,
                "velocity": 101,
                "duration": 0.15,
                "tempo": 120.0
            },
            {
                "pitch": 40,
                "velocity": 101,
                "duration": 0.15,
                "tempo": 120.0
            },
            {
                "pitch": 38,
                "velocity": 101,
                "duration": 0.15,
                "tempo": 120.0
            },
            {
                "pitch": 36,
                "velocity": 101,
                "duration": 0.15,
                "tempo": 120.0
            },
            {
                "pitch": 33,
                "velocity": 101,
                "duration": 0.1477,
                "tempo": 120.0
            },
            {
                "pitch": 33,
                "velocity": 101,
                "duration": 0.1341,
                "tempo": 120.0
            },
            {
                "pitch": 33,
                "velocity": 101,
                "duration": 0.15,
                "tempo": 120.0
            },
            {
                "pitch": 28,
                "velocity": 101,
                "duration": 0.1318,
                "tempo": 120.0
            },
            {
                "pitch": 33,
                "velocity": 101,
                "duration": 0.15,
                "tempo": 120.0
            },
            {
                "pitch": 40,
                "velocity": 101,
                "duration": 0.1341,
                "tempo": 120.0
            },
            {
                "pitch": 38,
                "velocity": 101,
                "duration": 0.1545,
                "tempo": 120.0
            },
            {
                "pitch": 36,
                "velocity": 101,
                "duration": 0.1386,
                "tempo": 120.0
            },
            {
                "pitch": 33,
                "velocity": 101,
                "duration": 0.15,
                "tempo": 120.0
            },
            {
                "pitch": 33,
                "velocity": 101,
                "duration": 0.1341,
                "tempo": 120.0
            },
            {
                "pitch": 33,
                "velocity": 101,
                "duration": 0.1455,
                "tempo": 120.0
            },
            {
                "pitch": 28,
                "velocity": 101,
                "duration": 0.1295,
                "tempo": 120.0
            },
            {
                "pitch": 33,
                "velocity": 101,
                "duration": 0.15,
                "tempo": 120.0
            },
            {
                "pitch": 40,
                "velocity": 101,
                "duration": 0.15,
                "tempo": 120.0
            },
            {
                "pitch": 38,
                "velocity": 101,
                "duration": 0.1545,
                "tempo": 120.0
            },
            {
                "pitch": 36,
                "velocity": 101,
                "duration": 0.1568,
                "tempo": 120.0
            },
            {
                "pitch": 33,
                "velocity": 101,
                "duration": 0.1477,
                "tempo": 120.0
            },
            {
                "pitch": 33,
                "velocity": 101,
                "duration": 0.1477,
                "tempo": 120.0
            },
            {
                "pitch": 33,
                "velocity": 101,
                "duration": 0.15,
                "tempo": 120.0
            },
            {
                "pitch": 28,
                "velocity": 101,
                "duration": 0.15,
                "tempo": 120.0
            },
            {
                "pitch": 33,
                "velocity": 101,
                "duration": 0.1455,
                "tempo": 120.0
            },
            {
                "pitch": 40,
                "velocity": 101,
                "duration": 0.1455,
                "tempo": 120.0
            },
            {
                "pitch": 38,
                "velocity": 101,
                "duration": 0.1523,
                "tempo": 120.0
            },
            {
                "pitch": 36,
                "velocity": 101,
                "duration": 0.1545,
                "tempo": 120.0
            },
            {
                "pitch": 33,
                "velocity": 101,
                "duration": 0.15,
                "tempo": 120.0
            },
            {
                "pitch": 33,
                "velocity": 101,
                "duration": 0.15,
                "tempo": 120.0
            },
            {
                "pitch": 33,
                "velocity": 101,
                "duration": 0.1386,
                "tempo": 120.0
            },
            {
                "pitch": 28,
                "velocity": 101,
                "duration": 0.1591,
                "tempo": 120.0
            },
            {
                "pitch": 33,
                "velocity": 101,
                "duration": 0.1273,
                "tempo": 120.0
            },
            {
                "pitch": 40,
                "velocity": 101,
                "duration": 0.1455,
                "tempo": 120.0
            },
            {
                "pitch": 38,
                "velocity": 101,
                "duration": 0.1364,
                "tempo": 120.0
            },
            {
                "pitch": 36,
                "velocity": 101,
                "duration": 0.1545,
                "tempo": 120.0
            },
            {
                "pitch": 33,
                "velocity": 101,
                "duration": 0.1318,
                "tempo": 120.0
            },
            {
                "pitch": 33,
                "velocity": 101,
                "duration": 0.15,
                "tempo": 120.0
            },
            {
                "pitch": 33,
                "velocity": 101,
                "duration": 0.1341,
                "tempo": 120.0
            },
            {
                "pitch": 28,
                "velocity": 101,
                "duration": 0.15,
                "tempo": 120.0
            },
            {
                "pitch": 33,
                "velocity": 101,
                "duration": 0.1318,
                "tempo": 120.0
            },
            {
                "pitch": 40,
                "velocity": 101,
                "duration": 0.1477,
                "tempo": 120.0
            },
            {
                "pitch": 38,
                "velocity": 101,
                "duration": 0.15,
                "tempo": 120.0
            },
            {
                "pitch": 36,
                "velocity": 101,
                "duration": 0.15,
                "tempo": 120.0
            },
            {
                "pitch": 33,
                "velocity": 101,
                "duration": 0.15,
                "tempo": 120.0
            },
            {
                "pitch": 33,
                "velocity": 101,
                "duration": 0.1477,
                "tempo": 120.0
            },
            {
                "pitch": 33,
                "velocity": 101,
                "duration": 0.1477,
                "tempo": 120.0
            },
            {
                "pitch": 28,
                "velocity": 101,
                "duration": 0.15,
                "tempo": 120.0
            },
            {
                "pitch": 33,
                "velocity": 101,
                "duration": 0.15,
                "tempo": 120.0
            },
            {
                "pitch": 40,
                "velocity": 101,
                "duration": 0.1477,
                "tempo": 120.0
            },
            {
                "pitch": 38,
                "velocity": 101,
                "duration": 0.1477,
                "tempo": 120.0
            },
            {
                "pitch": 36,
                "velocity": 101,
                "duration": 0.15,
                "tempo": 120.0
            },
            {
                "pitch": 33,
                "velocity": 101,
                "duration": 0.1477,
                "tempo": 120.0
            },
            {
                "pitch": 33,
                "velocity": 101,
                "duration": 0.15,
                "tempo": 120.0
            },
            {
                "pitch": 33,
                "velocity": 101,
                "duration": 0.1523,
                "tempo": 120.0
            },
            {
                "pitch": 28,
                "velocity": 101,
                "duration": 0.1318,
                "tempo": 120.0
            },
            {
                "pitch": 33,
                "velocity": 101,
                "duration": 0.15,
                "tempo": 120.0
            },
            {
                "pitch": 40,
                "velocity": 101,
                "duration": 0.1341,
                "tempo": 120.0
            },
            {
                "pitch": 38,
                "velocity": 101,
                "duration": 0.15,
                "tempo": 120.0
            },
            {
                "pitch": 36,
                "velocity": 101,
                "duration": 0.1341,
                "tempo": 120.0
            },
            {
                "pitch": 33,
                "velocity": 101,
                "duration": 0.15,
                "tempo": 120.0
            },
            {
                "pitch": 33,
                "velocity": 101,
                "duration": 0.1341,
                "tempo": 120.0
            },
            {
                "pitch": 33,
                "velocity": 101,
                "duration": 0.15,
                "tempo": 120.0
            },
            {
                "pitch": 28,
                "velocity": 101,
                "duration": 0.1318,
                "tempo": 120.0
            },
            {
                "pitch": 33,
                "velocity": 101,
                "duration": 0.15,
                "tempo": 120.0
            },
            {
                "pitch": 40,
                "velocity": 101,
                "duration": 0.15,
                "tempo": 120.0
            },
            {
                "pitch": 38,
                "velocity": 101,
                "duration": 0.15,
                "tempo": 120.0
            },
            {
                "pitch": 36,
                "velocity": 101,
                "duration": 0.15,
                "tempo": 120.0
            },
            {
                "pitch": 33,
                "velocity": 101,
                "duration": 0.1477,
                "tempo": 120.0
            },
            {
                "pitch": 33,
                "velocity": 101,
                "duration": 0.15,
                "tempo": 120.0
            },
            {
                "pitch": 33,
                "velocity": 101,
                "duration": 0.15,
                "tempo": 120.0
            },
            {
                "pitch": 28,
                "velocity": 101,
                "duration": 0.15,
                "tempo": 120.0
            },
            {
                "pitch": 33,
                "velocity": 101,
                "duration": 0.15,
                "tempo": 120.0
            },
            {
                "pitch": 40,
                "velocity": 101,
                "duration": 0.15,
                "tempo": 120.0
            },
            {
                "pitch": 38,
                "velocity": 101,
                "duration": 0.1545,
                "tempo": 120.0
            },
            {
                "pitch": 36,
                "velocity": 101,
                "duration": 0.1545,
                "tempo": 120.0
            },
            {
                "pitch": 33,
                "velocity": 101,
                "duration": 0.1455,
                "tempo": 120.0
            },
            {
                "pitch": 33,
                "velocity": 101,
                "duration": 0.1477,
                "tempo": 120.0
            },
            {
                "pitch": 33,
                "velocity": 101,
                "duration": 0.1409,
                "tempo": 120.0
            },
            {
                "pitch": 28,
                "velocity": 101,
                "duration": 0.1568,
                "tempo": 120.0
            },
            {
                "pitch": 33,
                "velocity": 101,
                "duration": 0.1341,
                "tempo": 120.0
            },
            {
                "pitch": 40,
                "velocity": 101,
                "duration": 0.15,
                "tempo": 120.0
            },
            {
                "pitch": 38,
                "velocity": 101,
                "duration": 0.1318,
                "tempo": 120.0
            },
            {
                "pitch": 36,
                "velocity": 101,
                "duration": 0.15,
                "tempo": 120.0
            },
            {
                "pitch": 33,
                "velocity": 101,
                "duration": 0.1364,
                "tempo": 120.0
            },
            {
                "pitch": 33,
                "velocity": 101,
                "duration": 0.1545,
                "tempo": 120.0
            },
            {
                "pitch": 33,
                "velocity": 101,
                "duration": 0.1318,
                "tempo": 120.0
            },
            {
                "pitch": 28,
                "velocity": 101,
                "duration": 0.15,
                "tempo": 120.0
            },
            {
                "pitch": 33,
                "velocity": 101,
                "duration": 0.1295,
                "tempo": 120.0
            },
            {
                "pitch": 40,
                "velocity": 101,
                "duration": 0.1455,
                "tempo": 120.0
            },
            {
                "pitch": 38,
                "velocity": 101,
                "duration": 0.1545,
                "tempo": 120.0
            },
            {
                "pitch": 36,
                "velocity": 101,
                "duration": 0.1545,
                "tempo": 120.0
            },
            {
                "pitch": 33,
                "velocity": 101,
                "duration": 0.15,
                "tempo": 120.0
            },
            {
                "pitch": 33,
                "velocity": 101,
                "duration": 0.15,
                "tempo": 120.0
            },
            {
                "pitch": 33,
                "velocity": 101,
                "duration": 0.15,
                "tempo": 120.0
            },
            {
                "pitch": 28,
                "velocity": 101,
                "duration": 0.1477,
                "tempo": 120.0
            },
            {
                "pitch": 33,
                "velocity": 101,
                "duration": 0.15,
                "tempo": 120.0
            },
            {
                "pitch": 40,
                "velocity": 101,
                "duration": 0.15,
                "tempo": 120.0
            },
            {
                "pitch": 38,
                "velocity": 101,
                "duration": 0.15,
                "tempo": 120.0
            },
            {
                "pitch": 36,
                "velocity": 101,
                "duration": 0.15,
                "tempo": 120.0
            },
            {
                "pitch": 33,
                "velocity": 101,
                "duration": 0.1477,
                "tempo": 120.0
            },
            {
                "pitch": 33,
                "velocity": 101,
                "duration": 0.15,
                "tempo": 120.0
            },
            {
                "pitch": 33,
                "velocity": 101,
                "duration": 0.15,
                "tempo": 120.0
            },
            {
                "pitch": 28,
                "velocity": 101,
                "duration": 0.1341,
                "tempo": 120.0
            },
            {
                "pitch": 33,
                "velocity": 101,
                "duration": 0.1477,
                "tempo": 120.0
            },
            {
                "pitch": 40,
                "velocity": 101,
                "duration": 0.1318,
                "tempo": 120.0
            },
            {
                "pitch": 38,
                "velocity": 101,
                "duration": 0.15,
                "tempo": 120.0
            },
            {
                "pitch": 36,
                "velocity": 101,
                "duration": 0.1341,
                "tempo": 120.0
            },
            {
                "pitch": 33,
                "velocity": 101,
                "duration": 0.15,
                "tempo": 120.0
            },
            {
                "pitch": 33,
                "velocity": 101,
                "duration": 0.1318,
                "tempo": 120.0
            },
            {
                "pitch": 33,
                "velocity": 101,
                "duration": 0.15,
                "tempo": 120.0
            },
            {
                "pitch": 28,
                "velocity": 101,
                "duration": 0.1341,
                "tempo": 120.0
            },
            {
                "pitch": 33,
                "velocity": 101,
                "duration": 0.15,
                "tempo": 120.0
            },
            {
                "pitch": 40,
                "velocity": 101,
                "duration": 0.1318,
                "tempo": 120.0
            },
            {
                "pitch": 38,
                "velocity": 101,
                "duration": 0.15,
                "tempo": 120.0
            },
            {
                "pitch": 36,
                "velocity": 101,
                "duration": 0.15,
                "tempo": 120.0
            },
            {
                "pitch": 29,
                "velocity": 101,
                "duration": 0.1523,
                "tempo": 120.0
            },
            {
                "pitch": 29,
                "velocity": 101,
                "duration": 0.1545,
                "tempo": 120.0
            },
            {
                "pitch": 29,
                "velocity": 101,
                "duration": 0.1477,
                "tempo": 120.0
            },
            {
                "pitch": 33,
                "velocity": 101,
                "duration": 0.1432,
                "tempo": 120.0
            },
            {
                "pitch": 29,
                "velocity": 101,
                "duration": 0.15,
                "tempo": 120.0
            },
            {
                "pitch": 33,
                "velocity": 101,
                "duration": 0.15,
                "tempo": 120.0
            },
            {
                "pitch": 35,
                "velocity": 101,
                "duration": 0.15,
                "tempo": 120.0
            },
            {
                "pitch": 36,
                "velocity": 101,
                "duration": 0.1477,
                "tempo": 120.0
            },
            {
                "pitch": 29,
                "velocity": 101,
                "duration": 0.1545,
                "tempo": 120.0
            },
            {
                "pitch": 29,
                "velocity": 101,
                "duration": 0.1545,
                "tempo": 120.0
            },
            {
                "pitch": 29,
                "velocity": 101,
                "duration": 0.1455,
                "tempo": 120.0
            },
            {
                "pitch": 33,
                "velocity": 101,
                "duration": 0.1455,
                "tempo": 120.0
            },
            {
                "pitch": 29,
                "velocity": 101,
                "duration": 0.1409,
                "tempo": 120.0
            },
            {
                "pitch": 33,
                "velocity": 101,
                "duration": 0.1568,
                "tempo": 120.0
            },
            {
                "pitch": 35,
                "velocity": 101,
                "duration": 0.1341,
                "tempo": 120.0
            },
            {
                "pitch": 36,
                "velocity": 101,
                "duration": 0.15,
                "tempo": 120.0
            },
            {
                "pitch": 29,
                "velocity": 101,
                "duration": 0.1364,
                "tempo": 120.0
            },
            {
                "pitch": 29,
                "velocity": 101,
                "duration": 0.1523,
                "tempo": 120.0
            },
            {
                "pitch": 29,
                "velocity": 101,
                "duration": 0.1295,
                "tempo": 120.0
            },
            {
                "pitch": 33,
                "velocity": 101,
                "duration": 0.1455,
                "tempo": 120.0
            },
            {
                "pitch": 29,
                "velocity": 101,
                "duration": 0.1341,
                "tempo": 120.0
            },
            {
                "pitch": 33,
                "velocity": 101,
                "duration": 0.15,
                "tempo": 120.0
            },
            {
                "pitch": 35,
                "velocity": 101,
                "duration": 0.1523,
                "tempo": 120.0
            },
            {
                "pitch": 36,
                "velocity": 101,
                "duration": 0.15,
                "tempo": 120.0
            },
            {
                "pitch": 29,
                "velocity": 101,
                "duration": 0.1523,
                "tempo": 120.0
            },
            {
                "pitch": 29,
                "velocity": 101,
                "duration": 0.1545,
                "tempo": 120.0
            },
            {
                "pitch": 29,
                "velocity": 101,
                "duration": 0.1455,
                "tempo": 120.0
            },
            {
                "pitch": 33,
                "velocity": 101,
                "duration": 0.1455,
                "tempo": 120.0
            },
            {
                "pitch": 29,
                "velocity": 101,
                "duration": 0.15,
                "tempo": 120.0
            },
            {
                "pitch": 33,
                "velocity": 101,
                "duration": 0.15,
                "tempo": 120.0
            },
            {
                "pitch": 35,
                "velocity": 101,
                "duration": 0.1545,
                "tempo": 120.0
            },
            {
                "pitch": 36,
                "velocity": 101,
                "duration": 0.1545,
                "tempo": 120.0
            },
            {
                "pitch": 33,
                "velocity": 101,
                "duration": 0.1477,
                "tempo": 120.0
            },
            {
                "pitch": 33,
                "velocity": 101,
                "duration": 0.15,
                "tempo": 120.0
            },
            {
                "pitch": 33,
                "velocity": 101,
                "duration": 0.15,
                "tempo": 120.0
            },
            {
                "pitch": 28,
                "velocity": 101,
                "duration": 0.1318,
                "tempo": 120.0
            },
            {
                "pitch": 33,
                "velocity": 101,
                "duration": 0.1455,
                "tempo": 120.0
            },
            {
                "pitch": 40,
                "velocity": 101,
                "duration": 0.1295,
                "tempo": 120.0
            },
            {
                "pitch": 38,
                "velocity": 101,
                "duration": 0.1545,
                "tempo": 120.0
            },
            {
                "pitch": 36,
                "velocity": 101,
                "duration": 0.1386,
                "tempo": 120.0
            },
            {
                "pitch": 33,
                "velocity": 101,
                "duration": 0.1477,
                "tempo": 120.0
            },
            {
                "pitch": 33,
                "velocity": 101,
                "duration": 0.1341,
                "tempo": 120.0
            },
            {
                "pitch": 33,
                "velocity": 101,
                "duration": 0.15,
                "tempo": 120.0
            },
            {
                "pitch": 28,
                "velocity": 101,
                "duration": 0.1318,
                "tempo": 120.0
            },
            {
                "pitch": 33,
                "velocity": 101,
                "duration": 0.15,
                "tempo": 120.0
            },
            {
                "pitch": 40,
                "velocity": 101,
                "duration": 0.1341,
                "tempo": 120.0
            },
            {
                "pitch": 38,
                "velocity": 101,
                "duration": 0.15,
                "tempo": 120.0
            },
            {
                "pitch": 36,
                "velocity": 101,
                "duration": 0.15,
                "tempo": 120.0
            },
            {
                "pitch": 33,
                "velocity": 101,
                "duration": 0.15,
                "tempo": 120.0
            },
            {
                "pitch": 33,
                "velocity": 101,
                "duration": 0.15,
                "tempo": 120.0
            },
            {
                "pitch": 33,
                "velocity": 101,
                "duration": 0.15,
                "tempo": 120.0
            },
            {
                "pitch": 28,
                "velocity": 101,
                "duration": 0.15,
                "tempo": 120.0
            },
            {
                "pitch": 33,
                "velocity": 101,
                "duration": 0.15,
                "tempo": 120.0
            },
            {
                "pitch": 40,
                "velocity": 101,
                "duration": 0.15,
                "tempo": 120.0
            },
            {
                "pitch": 38,
                "velocity": 101,
                "duration": 0.15,
                "tempo": 120.0
            },
            {
                "pitch": 36,
                "velocity": 101,
                "duration": 0.15,
                "tempo": 120.0
            },
            {
                "pitch": 33,
                "velocity": 101,
                "duration": 0.15,
                "tempo": 120.0
            },
            {
                "pitch": 33,
                "velocity": 101,
                "duration": 0.15,
                "tempo": 120.0
            },
            {
                "pitch": 33,
                "velocity": 101,
                "duration": 0.15,
                "tempo": 120.0
            },
            {
                "pitch": 28,
                "velocity": 101,
                "duration": 0.15,
                "tempo": 120.0
            },
            {
                "pitch": 33,
                "velocity": 101,
                "duration": 0.1409,
                "tempo": 120.0
            },
            {
                "pitch": 40,
                "velocity": 101,
                "duration": 0.1568,
                "tempo": 120.0
            },
            {
                "pitch": 38,
                "velocity": 101,
                "duration": 0.1341,
                "tempo": 120.0
            },
            {
                "pitch": 36,
                "velocity": 101,
                "duration": 0.15,
                "tempo": 120.0
            },
            {
                "pitch": 29,
                "velocity": 101,
                "duration": 0.1295,
                "tempo": 120.0
            },
            {
                "pitch": 29,
                "velocity": 101,
                "duration": 0.1477,
                "tempo": 120.0
            },
            {
                "pitch": 29,
                "velocity": 101,
                "duration": 0.1341,
                "tempo": 120.0
            },
            {
                "pitch": 33,
                "velocity": 101,
                "duration": 0.15,
                "tempo": 120.0
            },
            {
                "pitch": 29,
                "velocity": 101,
                "duration": 0.1341,
                "tempo": 120.0
            },
            {
                "pitch": 33,
                "velocity": 101,
                "duration": 0.1477,
                "tempo": 120.0
            },
            {
                "pitch": 35,
                "velocity": 101,
                "duration": 0.1341,
                "tempo": 120.0
            },
            {
                "pitch": 36,
                "velocity": 101,
                "duration": 0.15,
                "tempo": 120.0
            },
            {
                "pitch": 29,
                "velocity": 101,
                "duration": 0.1545,
                "tempo": 120.0
            },
            {
                "pitch": 29,
                "velocity": 101,
                "duration": 0.1523,
                "tempo": 120.0
            },
            {
                "pitch": 29,
                "velocity": 101,
                "duration": 0.1455,
                "tempo": 120.0
            },
            {
                "pitch": 33,
                "velocity": 101,
                "duration": 0.1455,
                "tempo": 120.0
            },
            {
                "pitch": 29,
                "velocity": 101,
                "duration": 0.15,
                "tempo": 120.0
            },
            {
                "pitch": 33,
                "velocity": 101,
                "duration": 0.15,
                "tempo": 120.0
            },
            {
                "pitch": 35,
                "velocity": 101,
                "duration": 0.1523,
                "tempo": 120.0
            },
            {
                "pitch": 36,
                "velocity": 101,
                "duration": 0.15,
                "tempo": 120.0
            },
            {
                "pitch": 29,
                "velocity": 101,
                "duration": 0.1545,
                "tempo": 120.0
            },
            {
                "pitch": 29,
                "velocity": 101,
                "duration": 0.1545,
                "tempo": 120.0
            },
            {
                "pitch": 29,
                "velocity": 101,
                "duration": 0.1455,
                "tempo": 120.0
            },
            {
                "pitch": 33,
                "velocity": 101,
                "duration": 0.1455,
                "tempo": 120.0
            },
            {
                "pitch": 29,
                "velocity": 101,
                "duration": 0.15,
                "tempo": 120.0
            },
            {
                "pitch": 33,
                "velocity": 101,
                "duration": 0.1318,
                "tempo": 120.0
            },
            {
                "pitch": 35,
                "velocity": 101,
                "duration": 0.15,
                "tempo": 120.0
            },
            {
                "pitch": 36,
                "velocity": 101,
                "duration": 0.1341,
                "tempo": 120.0
            },
            {
                "pitch": 29,
                "velocity": 101,
                "duration": 0.1523,
                "tempo": 120.0
            },
            {
                "pitch": 29,
                "velocity": 101,
                "duration": 0.1364,
                "tempo": 120.0
            },
            {
                "pitch": 29,
                "velocity": 101,
                "duration": 0.1477,
                "tempo": 120.0
            },
            {
                "pitch": 33,
                "velocity": 101,
                "duration": 0.1295,
                "tempo": 120.0
            },
            {
                "pitch": 29,
                "velocity": 101,
                "duration": 0.1523,
                "tempo": 120.0
            },
            {
                "pitch": 33,
                "velocity": 101,
                "duration": 0.1318,
                "tempo": 120.0
            },
            {
                "pitch": 35,
                "velocity": 101,
                "duration": 0.1545,
                "tempo": 120.0
            },
            {
                "pitch": 36,
                "velocity": 101,
                "duration": 0.1523,
                "tempo": 120.0
            },
            {
                "pitch": 28,
                "velocity": 101,
                "duration": 0.1477,
                "tempo": 120.0
            },
            {
                "pitch": 28,
                "velocity": 101,
                "duration": 0.15,
                "tempo": 120.0
            },
            {
                "pitch": 28,
                "velocity": 101,
                "duration": 0.15,
                "tempo": 120.0
            },
            {
                "pitch": 35,
                "velocity": 101,
                "duration": 0.15,
                "tempo": 120.0
            },
            {
                "pitch": 28,
                "velocity": 101,
                "duration": 0.1477,
                "tempo": 120.0
            },
            {
                "pitch": 38,
                "velocity": 101,
                "duration": 0.1455,
                "tempo": 120.0
            },
            {
                "pitch": 36,
                "velocity": 101,
                "duration": 0.1523,
                "tempo": 120.0
            },
            {
                "pitch": 35,
                "velocity": 101,
                "duration": 0.1545,
                "tempo": 120.0
            },
            {
                "pitch": 28,
                "velocity": 101,
                "duration": 0.15,
                "tempo": 120.0
            },
            {
                "pitch": 28,
                "velocity": 101,
                "duration": 0.15,
                "tempo": 120.0
            },
            {
                "pitch": 28,
                "velocity": 101,
                "duration": 0.15,
                "tempo": 120.0
            },
            {
                "pitch": 35,
                "velocity": 101,
                "duration": 0.15,
                "tempo": 120.0
            },
            {
                "pitch": 28,
                "velocity": 101,
                "duration": 0.1364,
                "tempo": 120.0
            },
            {
                "pitch": 38,
                "velocity": 101,
                "duration": 0.1545,
                "tempo": 120.0
            },
            {
                "pitch": 36,
                "velocity": 101,
                "duration": 0.1386,
                "tempo": 120.0
            },
            {
                "pitch": 35,
                "velocity": 101,
                "duration": 0.1545,
                "tempo": 120.0
            },
            {
                "pitch": 28,
                "velocity": 101,
                "duration": 0.1318,
                "tempo": 120.0
            },
            {
                "pitch": 28,
                "velocity": 101,
                "duration": 0.15,
                "tempo": 120.0
            },
            {
                "pitch": 28,
                "velocity": 101,
                "duration": 0.1341,
                "tempo": 120.0
            },
            {
                "pitch": 35,
                "velocity": 101,
                "duration": 0.15,
                "tempo": 120.0
            },
            {
                "pitch": 28,
                "velocity": 101,
                "duration": 0.1295,
                "tempo": 120.0
            },
            {
                "pitch": 38,
                "velocity": 101,
                "duration": 0.1455,
                "tempo": 120.0
            },
            {
                "pitch": 36,
                "velocity": 101,
                "duration": 0.1364,
                "tempo": 120.0
            },
            {
                "pitch": 35,
                "velocity": 101,
                "duration": 0.1545,
                "tempo": 120.0
            },
            {
                "pitch": 28,
                "velocity": 101,
                "duration": 0.15,
                "tempo": 120.0
            },
            {
                "pitch": 28,
                "velocity": 101,
                "duration": 0.15,
                "tempo": 120.0
            },
            {
                "pitch": 28,
                "velocity": 101,
                "duration": 0.15,
                "tempo": 120.0
            },
            {
                "pitch": 35,
                "velocity": 101,
                "duration": 0.15,
                "tempo": 120.0
            },
            {
                "pitch": 28,
                "velocity": 101,
                "duration": 0.15,
                "tempo": 120.0
            },
            {
                "pitch": 38,
                "velocity": 101,
                "duration": 0.15,
                "tempo": 120.0
            },
            {
                "pitch": 36,
                "velocity": 101,
                "duration": 0.15,
                "tempo": 120.0
            },
            {
                "pitch": 35,
                "velocity": 101,
                "duration": 0.15,
                "tempo": 120.0
            },
            {
                "pitch": 33,
                "velocity": 101,
                "duration": 0.1477,
                "tempo": 120.0
            },
            {
                "pitch": 33,
                "velocity": 101,
                "duration": 0.15,
                "tempo": 120.0
            },
            {
                "pitch": 33,
                "velocity": 101,
                "duration": 0.15,
                "tempo": 120.0
            },
            {
                "pitch": 28,
                "velocity": 101,
                "duration": 0.15,
                "tempo": 120.0
            },
            {
                "pitch": 33,
                "velocity": 101,
                "duration": 0.15,
                "tempo": 120.0
            },
            {
                "pitch": 40,
                "velocity": 101,
                "duration": 0.1341,
                "tempo": 120.0
            },
            {
                "pitch": 38,
                "velocity": 101,
                "duration": 0.15,
                "tempo": 120.0
            },
            {
                "pitch": 36,
                "velocity": 101,
                "duration": 0.1318,
                "tempo": 120.0
            },
            {
                "pitch": 33,
                "velocity": 101,
                "duration": 0.1523,
                "tempo": 120.0
            },
            {
                "pitch": 33,
                "velocity": 101,
                "duration": 0.1386,
                "tempo": 120.0
            },
            {
                "pitch": 33,
                "velocity": 101,
                "duration": 0.15,
                "tempo": 120.0
            },
            {
                "pitch": 28,
                "velocity": 101,
                "duration": 0.1341,
                "tempo": 120.0
            },
            {
                "pitch": 33,
                "velocity": 101,
                "duration": 0.15,
                "tempo": 120.0
            },
            {
                "pitch": 40,
                "velocity": 101,
                "duration": 0.1318,
                "tempo": 120.0
            },
            {
                "pitch": 38,
                "velocity": 101,
                "duration": 0.1477,
                "tempo": 120.0
            },
            {
                "pitch": 36,
                "velocity": 101,
                "duration": 0.1341,
                "tempo": 120.0
            },
            {
                "pitch": 31,
                "velocity": 101,
                "duration": 0.1477,
                "tempo": 120.0
            },
            {
                "pitch": 31,
                "velocity": 101,
                "duration": 0.15,
                "tempo": 120.0
            },
            {
                "pitch": 31,
                "velocity": 101,
                "duration": 0.15,
                "tempo": 120.0
            },
            {
                "pitch": 35,
                "velocity": 101,
                "duration": 0.1477,
                "tempo": 120.0
            },
            {
                "pitch": 31,
                "velocity": 101,
                "duration": 0.15,
                "tempo": 120.0
            },
            {
                "pitch": 38,
                "velocity": 101,
                "duration": 0.15,
                "tempo": 120.0
            },
            {
                "pitch": 36,
                "velocity": 101,
                "duration": 0.15,
                "tempo": 120.0
            },
            {
                "pitch": 35,
                "velocity": 101,
                "duration": 0.15,
                "tempo": 120.0
            },
            {
                "pitch": 31,
                "velocity": 101,
                "duration": 0.15,
                "tempo": 120.0
            },
            {
                "pitch": 31,
                "velocity": 101,
                "duration": 0.15,
                "tempo": 120.0
            },
            {
                "pitch": 31,
                "velocity": 101,
                "duration": 0.15,
                "tempo": 120.0
            },
            {
                "pitch": 35,
                "velocity": 101,
                "duration": 0.15,
                "tempo": 120.0
            },
            {
                "pitch": 31,
                "velocity": 101,
                "duration": 0.15,
                "tempo": 120.0
            },
            {
                "pitch": 38,
                "velocity": 101,
                "duration": 0.15,
                "tempo": 120.0
            },
            {
                "pitch": 36,
                "velocity": 101,
                "duration": 0.1364,
                "tempo": 120.0
            },
            {
                "pitch": 35,
                "velocity": 101,
                "duration": 0.1545,
                "tempo": 120.0
            },
            {
                "pitch": 29,
                "velocity": 101,
                "duration": 0.1364,
                "tempo": 120.0
            },
            {
                "pitch": 29,
                "velocity": 101,
                "duration": 0.1545,
                "tempo": 120.0
            },
            {
                "pitch": 29,
                "velocity": 101,
                "duration": 0.1318,
                "tempo": 120.0
            },
            {
                "pitch": 33,
                "velocity": 101,
                "duration": 0.15,
                "tempo": 120.0
            },
            {
                "pitch": 29,
                "velocity": 101,
                "duration": 0.1341,
                "tempo": 120.0
            },
            {
                "pitch": 33,
                "velocity": 101,
                "duration": 0.15,
                "tempo": 120.0
            },
            {
                "pitch": 35,
                "velocity": 101,
                "duration": 0.1318,
                "tempo": 120.0
            },
            {
                "pitch": 36,
                "velocity": 101,
                "duration": 0.15,
                "tempo": 120.0
            },
            {
                "pitch": 29,
                "velocity": 101,
                "duration": 0.15,
                "tempo": 120.0
            },
            {
                "pitch": 29,
                "velocity": 101,
                "duration": 0.15,
                "tempo": 120.0
            },
            {
                "pitch": 29,
                "velocity": 101,
                "duration": 0.15,
                "tempo": 120.0
            },
            {
                "pitch": 33,
                "velocity": 101,
                "duration": 0.15,
                "tempo": 120.0
            },
            {
                "pitch": 29,
                "velocity": 101,
                "duration": 0.15,
                "tempo": 120.0
            },
            {
                "pitch": 33,
                "velocity": 101,
                "duration": 0.15,
                "tempo": 120.0
            },
            {
                "pitch": 35,
                "velocity": 101,
                "duration": 0.15,
                "tempo": 120.0
            },
            {
                "pitch": 36,
                "velocity": 101,
                "duration": 0.1477,
                "tempo": 120.0
            },
            {
                "pitch": 31,
                "velocity": 101,
                "duration": 0.1477,
                "tempo": 120.0
            },
            {
                "pitch": 31,
                "velocity": 101,
                "duration": 0.15,
                "tempo": 120.0
            },
            {
                "pitch": 31,
                "velocity": 101,
                "duration": 0.15,
                "tempo": 120.0
            },
            {
                "pitch": 35,
                "velocity": 101,
                "duration": 0.1477,
                "tempo": 120.0
            },
            {
                "pitch": 31,
                "velocity": 101,
                "duration": 0.15,
                "tempo": 120.0
            },
            {
                "pitch": 38,
                "velocity": 101,
                "duration": 0.1341,
                "tempo": 120.0
            },
            {
                "pitch": 36,
                "velocity": 101,
                "duration": 0.15,
                "tempo": 120.0
            },
            {
                "pitch": 35,
                "velocity": 101,
                "duration": 0.1341,
                "tempo": 120.0
            },
            {
                "pitch": 31,
                "velocity": 101,
                "duration": 0.1477,
                "tempo": 120.0
            },
            {
                "pitch": 31,
                "velocity": 101,
                "duration": 0.1341,
                "tempo": 120.0
            },
            {
                "pitch": 31,
                "velocity": 101,
                "duration": 0.15,
                "tempo": 120.0
            },
            {
                "pitch": 35,
                "velocity": 101,
                "duration": 0.1341,
                "tempo": 120.0
            },
            {
                "pitch": 31,
                "velocity": 101,
                "duration": 0.15,
                "tempo": 120.0
            },
            {
                "pitch": 38,
                "velocity": 101,
                "duration": 0.1318,
                "tempo": 120.0
            },
            {
                "pitch": 36,
                "velocity": 101,
                "duration": 0.15,
                "tempo": 120.0
            },
            {
                "pitch": 35,
                "velocity": 101,
                "duration": 0.1341,
                "tempo": 120.0
            },
            {
                "pitch": 33,
                "velocity": 101,
                "duration": 0.1523,
                "tempo": 120.0
            },
            {
                "pitch": 33,
                "velocity": 101,
                "duration": 0.1545,
                "tempo": 120.0
            },
            {
                "pitch": 33,
                "velocity": 101,
                "duration": 0.1455,
                "tempo": 120.0
            },
            {
                "pitch": 28,
                "velocity": 101,
                "duration": 0.1455,
                "tempo": 120.0
            },
            {
                "pitch": 33,
                "velocity": 101,
                "duration": 0.15,
                "tempo": 120.0
            },
            {
                "pitch": 40,
                "velocity": 101,
                "duration": 0.15,
                "tempo": 120.0
            },
            {
                "pitch": 38,
                "velocity": 101,
                "duration": 0.15,
                "tempo": 120.0
            },
            {
                "pitch": 36,
                "velocity": 101,
                "duration": 0.15,
                "tempo": 120.0
            },
            {
                "pitch": 33,
                "velocity": 101,
                "duration": 0.1545,
                "tempo": 120.0
            },
            {
                "pitch": 33,
                "velocity": 101,
                "duration": 0.1545,
                "tempo": 120.0
            },
            {
                "pitch": 33,
                "velocity": 101,
                "duration": 0.15,
                "tempo": 120.0
            },
            {
                "pitch": 28,
                "velocity": 101,
                "duration": 0.15,
                "tempo": 120.0
            },
            {
                "pitch": 33,
                "velocity": 101,
                "duration": 0.15,
                "tempo": 120.0
            },
            {
                "pitch": 40,
                "velocity": 101,
                "duration": 0.15,
                "tempo": 120.0
            },
            {
                "pitch": 38,
                "velocity": 101,
                "duration": 0.1364,
                "tempo": 120.0
            },
            {
                "pitch": 36,
                "velocity": 101,
                "duration": 0.1545,
                "tempo": 120.0
            },
            {
                "pitch": 31,
                "velocity": 101,
                "duration": 0.1364,
                "tempo": 120.0
            },
            {
                "pitch": 31,
                "velocity": 101,
                "duration": 0.1523,
                "tempo": 120.0
            },
            {
                "pitch": 31,
                "velocity": 101,
                "duration": 0.1341,
                "tempo": 120.0
            },
            {
                "pitch": 35,
                "velocity": 101,
                "duration": 0.15,
                "tempo": 120.0
            },
            {
                "pitch": 31,
                "velocity": 101,
                "duration": 0.1318,
                "tempo": 120.0
            },
            {
                "pitch": 38,
                "velocity": 101,
                "duration": 0.15,
                "tempo": 120.0
            },
            {
                "pitch": 36,
                "velocity": 101,
                "duration": 0.1295,
                "tempo": 120.0
            },
            {
                "pitch": 35,
                "velocity": 101,
                "duration": 0.1455,
                "tempo": 120.0
            },
            {
                "pitch": 31,
                "velocity": 101,
                "duration": 0.1364,
                "tempo": 120.0
            },
            {
                "pitch": 31,
                "velocity": 101,
                "duration": 0.1545,
                "tempo": 120.0
            },
            {
                "pitch": 31,
                "velocity": 101,
                "duration": 0.15,
                "tempo": 120.0
            },
            {
                "pitch": 35,
                "velocity": 101,
                "duration": 0.15,
                "tempo": 120.0
            },
            {
                "pitch": 31,
                "velocity": 101,
                "duration": 0.15,
                "tempo": 120.0
            },
            {
                "pitch": 38,
                "velocity": 101,
                "duration": 0.15,
                "tempo": 120.0
            },
            {
                "pitch": 36,
                "velocity": 101,
                "duration": 0.15,
                "tempo": 120.0
            },
            {
                "pitch": 35,
                "velocity": 101,
                "duration": 0.15,
                "tempo": 120.0
            },
            {
                "pitch": 29,
                "velocity": 101,
                "duration": 0.1477,
                "tempo": 120.0
            },
            {
                "pitch": 29,
                "velocity": 101,
                "duration": 0.1477,
                "tempo": 120.0
            },
            {
                "pitch": 29,
                "velocity": 101,
                "duration": 0.15,
                "tempo": 120.0
            },
            {
                "pitch": 33,
                "velocity": 101,
                "duration": 0.15,
                "tempo": 120.0
            },
            {
                "pitch": 29,
                "velocity": 101,
                "duration": 0.15,
                "tempo": 120.0
            },
            {
                "pitch": 33,
                "velocity": 101,
                "duration": 0.15,
                "tempo": 120.0
            },
            {
                "pitch": 35,
                "velocity": 101,
                "duration": 0.1477,
                "tempo": 120.0
            },
            {
                "pitch": 36,
                "velocity": 101,
                "duration": 0.1318,
                "tempo": 120.0
            },
            {
                "pitch": 29,
                "velocity": 101,
                "duration": 0.15,
                "tempo": 120.0
            },
            {
                "pitch": 29,
                "velocity": 101,
                "duration": 0.1341,
                "tempo": 120.0
            },
            {
                "pitch": 29,
                "velocity": 101,
                "duration": 0.15,
                "tempo": 120.0
            },
            {
                "pitch": 33,
                "velocity": 101,
                "duration": 0.1318,
                "tempo": 120.0
            },
            {
                "pitch": 29,
                "velocity": 101,
                "duration": 0.15,
                "tempo": 120.0
            },
            {
                "pitch": 33,
                "velocity": 101,
                "duration": 0.1341,
                "tempo": 120.0
            },
            {
                "pitch": 35,
                "velocity": 101,
                "duration": 0.15,
                "tempo": 120.0
            },
            {
                "pitch": 36,
                "velocity": 101,
                "duration": 0.1318,
                "tempo": 120.0
            },
            {
                "pitch": 31,
                "velocity": 101,
                "duration": 0.1477,
                "tempo": 120.0
            },
            {
                "pitch": 31,
                "velocity": 101,
                "duration": 0.15,
                "tempo": 120.0
            },
            {
                "pitch": 31,
                "velocity": 101,
                "duration": 0.15,
                "tempo": 120.0
            },
            {
                "pitch": 35,
                "velocity": 101,
                "duration": 0.15,
                "tempo": 120.0
            },
            {
                "pitch": 31,
                "velocity": 101,
                "duration": 0.15,
                "tempo": 120.0
            },
            {
                "pitch": 38,
                "velocity": 101,
                "duration": 0.15,
                "tempo": 120.0
            },
            {
                "pitch": 36,
                "velocity": 101,
                "duration": 0.15,
                "tempo": 120.0
            },
            {
                "pitch": 35,
                "velocity": 101,
                "duration": 0.15,
                "tempo": 120.0
            },
            {
                "pitch": 31,
                "velocity": 101,
                "duration": 0.1477,
                "tempo": 120.0
            },
            {
                "pitch": 31,
                "velocity": 101,
                "duration": 0.15,
                "tempo": 120.0
            },
            {
                "pitch": 31,
                "velocity": 101,
                "duration": 0.15,
                "tempo": 120.0
            },
            {
                "pitch": 35,
                "velocity": 101,
                "duration": 0.15,
                "tempo": 120.0
            },
            {
                "pitch": 31,
                "velocity": 101,
                "duration": 0.1545,
                "tempo": 120.0
            },
            {
                "pitch": 38,
                "velocity": 101,
                "duration": 0.1545,
                "tempo": 120.0
            },
            {
                "pitch": 36,
                "velocity": 101,
                "duration": 0.1364,
                "tempo": 120.0
            },
            {
                "pitch": 35,
                "velocity": 101,
                "duration": 0.1545,
                "tempo": 120.0
            },
            {
                "pitch": 33,
                "velocity": 101,
                "duration": 0.1318,
                "tempo": 120.0
            },
            {
                "pitch": 33,
                "velocity": 101,
                "duration": 0.15,
                "tempo": 120.0
            },
            {
                "pitch": 33,
                "velocity": 101,
                "duration": 0.1318,
                "tempo": 120.0
            },
            {
                "pitch": 28,
                "velocity": 101,
                "duration": 0.15,
                "tempo": 120.0
            },
            {
                "pitch": 33,
                "velocity": 101,
                "duration": 0.1341,
                "tempo": 120.0
            },
            {
                "pitch": 40,
                "velocity": 101,
                "duration": 0.15,
                "tempo": 120.0
            },
            {
                "pitch": 38,
                "velocity": 101,
                "duration": 0.1318,
                "tempo": 120.0
            },
            {
                "pitch": 36,
                "velocity": 101,
                "duration": 0.15,
                "tempo": 120.0
            },
            {
                "pitch": 33,
                "velocity": 101,
                "duration": 0.1318,
                "tempo": 120.0
            },
            {
                "pitch": 33,
                "velocity": 101,
                "duration": 0.15,
                "tempo": 120.0
            },
            {
                "pitch": 33,
                "velocity": 101,
                "duration": 0.15,
                "tempo": 120.0
            },
            {
                "pitch": 28,
                "velocity": 101,
                "duration": 0.1477,
                "tempo": 120.0
            },
            {
                "pitch": 33,
                "velocity": 101,
                "duration": 0.1477,
                "tempo": 120.0
            },
            {
                "pitch": 40,
                "velocity": 101,
                "duration": 0.15,
                "tempo": 120.0
            },
            {
                "pitch": 38,
                "velocity": 101,
                "duration": 0.15,
                "tempo": 120.0
            },
            {
                "pitch": 36,
                "velocity": 101,
                "duration": 0.15,
                "tempo": 120.0
            },
            {
                "pitch": 33,
                "velocity": 101,
                "duration": 0.1523,
                "tempo": 120.0
            },
            {
                "pitch": 33,
                "velocity": 101,
                "duration": 0.1545,
                "tempo": 120.0
            },
            {
                "pitch": 33,
                "velocity": 101,
                "duration": 0.1455,
                "tempo": 120.0
            },
            {
                "pitch": 28,
                "velocity": 101,
                "duration": 0.1455,
                "tempo": 120.0
            },
            {
                "pitch": 33,
                "velocity": 101,
                "duration": 0.1523,
                "tempo": 120.0
            },
            {
                "pitch": 40,
                "velocity": 101,
                "duration": 0.1545,
                "tempo": 120.0
            },
            {
                "pitch": 38,
                "velocity": 101,
                "duration": 0.15,
                "tempo": 120.0
            },
            {
                "pitch": 36,
                "velocity": 101,
                "duration": 0.1318,
                "tempo": 120.0
            },
            {
                "pitch": 33,
                "velocity": 101,
                "duration": 0.1477,
                "tempo": 120.0
            },
            {
                "pitch": 33,
                "velocity": 101,
                "duration": 0.1341,
                "tempo": 120.0
            },
            {
                "pitch": 33,
                "velocity": 101,
                "duration": 0.15,
                "tempo": 120.0
            },
            {
                "pitch": 28,
                "velocity": 101,
                "duration": 0.1318,
                "tempo": 120.0
            },
            {
                "pitch": 33,
                "velocity": 101,
                "duration": 0.1477,
                "tempo": 120.0
            },
            {
                "pitch": 40,
                "velocity": 101,
                "duration": 0.1341,
                "tempo": 120.0
            },
            {
                "pitch": 38,
                "velocity": 101,
                "duration": 0.15,
                "tempo": 120.0
            },
            {
                "pitch": 36,
                "velocity": 101,
                "duration": 0.1318,
                "tempo": 120.0
            },
            {
                "pitch": 33,
                "velocity": 101,
                "duration": 0.0818,
                "tempo": 120.0
            }
        ]
    }
}