{
    "track_id": "11 Milly_s Theme",
    "mood": "happy",
    "instruments": {
        "Electric Piano 1": [
            {
                "pitch": 74,
                "velocity": 127,
                "duration": 0.1682,
                "tempo": 120.0
            },
            {
                "pitch": 73,
                "velocity": 127,
                "duration": 0.1682,
                "tempo": 120.0
            },
            {
                "pitch": 72,
                "velocity": 127,
                "duration": 0.1682,
                "tempo": 120.0
            },
            {
                "pitch": 71,
                "velocity": 127,
                "duration": 0.1659,
                "tempo": 120.0
            },
            {
                "pitch": 69,
                "velocity": 127,
                "duration": 0.1659,
                "tempo": 120.0
            },
            {
                "pitch": 67,
                "velocity": 127,
                "duration": 0.1182,
                "tempo": 120.0
            },
            {
                "pitch": 67,
                "velocity": 127,
                "duration": 0.05,
                "tempo": 120.0
            },
            {
                "pitch": 66,
                "velocity": 127,
                "duration": 0.1682,
                "tempo": 120.0
            },
            {
                "pitch": 64,
                "velocity": 127,
                "duration": 0.1682,
                "tempo": 120.0
            },
            {
                "pitch": 62,
                "velocity": 127,
                "duration": 0.3432,
                "tempo": 120.0
            },
            {
                "pitch": 57,
                "velocity": 127,
                "duration": 0.1682,
                "tempo": 120.0
            },
            {
                "pitch": 59,
                "velocity": 127,
                "duration": 0.1682,
                "tempo": 120.0
            },
            {
                "pitch": 61,
                "velocity": 127,
                "duration": 0.1682,
                "tempo": 120.0
            },
            {
                "pitch": 62,
                "velocity": 127,
                "duration": 0.1659,
                "tempo": 120.0
            },
            {
                "pitch": 64,
                "velocity": 127,
                "duration": 0.1705,
                "tempo": 120.0
            },
            {
                "pitch": 66,
                "velocity": 127,
                "duration": 0.1727,
                "tempo": 120.0
            },
            {
                "pitch": 81,
                "velocity": 101,
                "duration": 0.1659,
                "tempo": 120.0
            },
            {
                "pitch": 86,
                "velocity": 101,
                "duration": 0.3409,
                "tempo": 120.0
            },
            {
                "pitch": 81,
                "velocity": 101,
                "duration": 0.3386,
                "tempo": 120.0
            },
            {
                "pitch": 81,
                "velocity": 101,
                "duration": 0.1682,
                "tempo": 120.0
            },
            {
                "pitch": 83,
                "velocity": 101,
                "duration": 0.3364,
                "tempo": 120.0
            },
            {
                "pitch": 84,
                "velocity": 101,
                "duration": 0.3432,
                "tempo": 120.0
            },
            {
                "pitch": 83,
                "velocity": 101,
                "duration": 0.3364,
                "tempo": 120.0
            },
            {
                "pitch": 81,
                "velocity": 101,
                "duration": 0.3341,
                "tempo": 120.0
            },
            {
                "pitch": 79,
                "velocity": 127,
                "duration": 4.2318,
                "tempo": 120.0
            },
            {
                "pitch": 79,
                "velocity": 101,
                "duration": 0.1182,
                "tempo": 120.0
            },
            {
                "pitch": 79,
                "velocity": 101,
                "duration": 0.1727,
                "tempo": 120.0
            },
            {
                "pitch": 91,
                "velocity": 101,
                "duration": 0.1727,
                "tempo": 120.0
            },
            {
                "pitch": 79,
                "velocity": 101,
                "duration": 0.0523,
                "tempo": 120.0
            },
            {
                "pitch": 81,
                "velocity": 101,
                "duration": 0.1682,
                "tempo": 120.0
            },
            {
                "pitch": 86,
                "velocity": 101,
                "duration": 0.3386,
                "tempo": 120.0
            },
            {
                "pitch": 81,
                "velocity": 101,
                "duration": 0.3386,
                "tempo": 120.0
            },
            {
                "pitch": 81,
                "velocity": 101,
                "duration": 0.1682,
                "tempo": 120.0
            },
            {
                "pitch": 83,
                "velocity": 101,
                "duration": 0.3341,
                "tempo": 120.0
            },
            {
                "pitch": 84,
                "velocity": 101,
                "duration": 0.3432,
                "tempo": 120.0
            },
            {
                "pitch": 83,
                "velocity": 101,
                "duration": 0.1682,
                "tempo": 120.0
            },
            {
                "pitch": 84,
                "velocity": 101,
                "duration": 0.1682,
                "tempo": 120.0
            },
            {
                "pitch": 83,
                "velocity": 101,
                "duration": 0.1705,
                "tempo": 120.0
            },
            {
                "pitch": 84,
                "velocity": 101,
                "duration": 0.1705,
                "tempo": 120.0
            },
            {
                "pitch": 83,
                "velocity": 101,
                "duration": 0.1659,
                "tempo": 120.0
            },
            {
                "pitch": 79,
                "velocity": 101,
                "duration": 0.1182,
                "tempo": 120.0
            },
            {
                "pitch": 91,
                "velocity": 101,
                "duration": 2.7136,
                "tempo": 120.0
            },
            {
                "pitch": 79,
                "velocity": 101,
                "duration": 0.05,
                "tempo": 120.0
            },
            {
                "pitch": 81,
                "velocity": 101,
                "duration": 0.1682,
                "tempo": 120.0
            },
            {
                "pitch": 86,
                "velocity": 101,
                "duration": 0.3386,
                "tempo": 120.0
            },
            {
                "pitch": 81,
                "velocity": 101,
                "duration": 0.5091,
                "tempo": 120.0
            },
            {
                "pitch": 83,
                "velocity": 101,
                "duration": 0.3341,
                "tempo": 120.0
            },
            {
                "pitch": 79,
                "velocity": 101,
                "duration": 0.1205,
                "tempo": 120.0
            },
            {
                "pitch": 91,
                "velocity": 101,
                "duration": 1.5205,
                "tempo": 120.0
            },
            {
                "pitch": 79,
                "velocity": 101,
                "duration": 0.1727,
                "tempo": 120.0
            },
            {
                "pitch": 91,
                "velocity": 101,
                "duration": 0.1727,
                "tempo": 120.0
            },
            {
                "pitch": 79,
                "velocity": 101,
                "duration": 0.0523,
                "tempo": 120.0
            },
            {
                "pitch": 78,
                "velocity": 101,
                "duration": 0.1682,
                "tempo": 120.0
            },
            {
                "pitch": 79,
                "velocity": 101,
                "duration": 0.1159,
                "tempo": 120.0
            },
            {
                "pitch": 91,
                "velocity": 101,
                "duration": 0.3364,
                "tempo": 120.0
            },
            {
                "pitch": 79,
                "velocity": 101,
                "duration": 0.05,
                "tempo": 120.0
            },
            {
                "pitch": 78,
                "velocity": 101,
                "duration": 0.1705,
                "tempo": 120.0
            },
            {
                "pitch": 79,
                "velocity": 101,
                "duration": 0.1205,
                "tempo": 120.0
            },
            {
                "pitch": 91,
                "velocity": 101,
                "duration": 0.3432,
                "tempo": 120.0
            },
            {
                "pitch": 79,
                "velocity": 101,
                "duration": 0.0523,
                "tempo": 120.0
            },
            {
                "pitch": 84,
                "velocity": 101,
                "duration": 0.1682,
                "tempo": 120.0
            },
            {
                "pitch": 79,
                "velocity": 101,
                "duration": 0.1159,
                "tempo": 120.0
            },
            {
                "pitch": 91,
                "velocity": 101,
                "duration": 0.3364,
                "tempo": 120.0
            },
            {
                "pitch": 79,
                "velocity": 101,
                "duration": 0.0523,
                "tempo": 120.0
            },
            {
                "pitch": 81,
                "velocity": 101,
                "duration": 1.35,
                "tempo": 120.0
            },
            {
                "pitch": 71,
                "velocity": 101,
                "duration": 0.0682,
                "tempo": 120.0
            },
            {
                "pitch": 69,
                "velocity": 101,
                "duration": 0.0523,
                "tempo": 120.0
            },
            {
                "pitch": 67,
                "velocity": 101,
                "duration": 0.0523,
                "tempo": 120.0
            },
            {
                "pitch": 69,
                "velocity": 101,
                "duration": 0.0659,
                "tempo": 120.0
            },
            {
                "pitch": 79,
                "velocity": 101,
                "duration": 0.1182,
                "tempo": 120.0
            },
            {
                "pitch": 66,
                "velocity": 101,
                "duration": 0.05,
                "tempo": 120.0
            },
            {
                "pitch": 64,
                "velocity": 101,
                "duration": 0.0523,
                "tempo": 120.0
            },
            {
                "pitch": 67,
                "velocity": 101,
                "duration": 0.0159,
                "tempo": 120.0
            },
            {
                "pitch": 79,
                "velocity": 101,
                "duration": 0.1182,
                "tempo": 120.0
            },
            {
                "pitch": 66,
                "velocity": 101,
                "duration": 0.05,
                "tempo": 120.0
            },
            {
                "pitch": 64,
                "velocity": 101,
                "duration": 0.05,
                "tempo": 120.0
            },
            {
                "pitch": 61,
                "velocity": 101,
                "duration": 0.05,
                "tempo": 120.0
            },
            {
                "pitch": 65,
                "velocity": 101,
                "duration": 0.0523,
                "tempo": 120.0
            },
            {
                "pitch": 63,
                "velocity": 101,
                "duration": 0.0523,
                "tempo": 120.0
            },
            {
                "pitch": 60,
                "velocity": 101,
                "duration": 0.0341,
                "tempo": 120.0
            },
            {
                "pitch": 58,
                "velocity": 101,
                "duration": 0.0341,
                "tempo": 120.0
            },
            {
                "pitch": 65,
                "velocity": 101,
                "duration": 0.0523,
                "tempo": 120.0
            },
            {
                "pitch": 63,
                "velocity": 101,
                "duration": 0.0341,
                "tempo": 120.0
            },
            {
                "pitch": 64,
                "velocity": 101,
                "duration": 0.0523,
                "tempo": 120.0
            },
            {
                "pitch": 61,
                "velocity": 101,
                "duration": 0.0341,
                "tempo": 120.0
            },
            {
                "pitch": 62,
                "velocity": 101,
                "duration": 0.05,
                "tempo": 120.0
            },
            {
                "pitch": 59,
                "velocity": 101,
                "duration": 0.0341,
                "tempo": 120.0
            },
            {
                "pitch": 57,
                "velocity": 101,
                "duration": 0.0341,
                "tempo": 120.0
            },
            {
                "pitch": 54,
                "velocity": 101,
                "duration": 0.0318,
                "tempo": 120.0
            },
            {
                "pitch": 51,
                "velocity": 101,
                "duration": 0.0182,
                "tempo": 120.0
            },
            {
                "pitch": 60,
                "velocity": 101,
                "duration": 0.0318,
                "tempo": 120.0
            },
            {
                "pitch": 58,
                "velocity": 101,
                "duration": 0.0341,
                "tempo": 120.0
            },
            {
                "pitch": 55,
                "velocity": 101,
                "duration": 0.0341,
                "tempo": 120.0
            },
            {
                "pitch": 53,
                "velocity": 101,
                "duration": 0.0341,
                "tempo": 120.0
            },
            {
                "pitch": 50,
                "velocity": 101,
                "duration": 0.0159,
                "tempo": 120.0
            },
            {
                "pitch": 47,
                "velocity": 101,
                "duration": 0.0182,
                "tempo": 120.0
            },
            {
                "pitch": 69,
                "velocity": 101,
                "duration": 0.1182,
                "tempo": 120.0
            },
            {
                "pitch": 74,
                "velocity": 101,
                "duration": 0.2182,
                "tempo": 120.0
            },
            {
                "pitch": 69,
                "velocity": 101,
                "duration": 0.2205,
                "tempo": 120.0
            },
            {
                "pitch": 74,
                "velocity": 101,
                "duration": 0.1182,
                "tempo": 120.0
            },
            {
                "pitch": 72,
                "velocity": 101,
                "duration": 0.1205,
                "tempo": 120.0
            },
            {
                "pitch": 71,
                "velocity": 101,
                "duration": 0.1205,
                "tempo": 120.0
            },
            {
                "pitch": 69,
                "velocity": 101,
                "duration": 0.1159,
                "tempo": 120.0
            },
            {
                "pitch": 74,
                "velocity": 101,
                "duration": 0.2182,
                "tempo": 120.0
            },
            {
                "pitch": 69,
                "velocity": 101,
                "duration": 0.2182,
                "tempo": 120.0
            },
            {
                "pitch": 81,
                "velocity": 101,
                "duration": 0.1159,
                "tempo": 120.0
            },
            {
                "pitch": 86,
                "velocity": 101,
                "duration": 0.2182,
                "tempo": 120.0
            },
            {
                "pitch": 81,
                "velocity": 101,
                "duration": 0.2227,
                "tempo": 120.0
            },
            {
                "pitch": 86,
                "velocity": 101,
                "duration": 0.1159,
                "tempo": 120.0
            },
            {
                "pitch": 84,
                "velocity": 101,
                "duration": 0.1205,
                "tempo": 120.0
            },
            {
                "pitch": 83,
                "velocity": 101,
                "duration": 0.1182,
                "tempo": 120.0
            },
            {
                "pitch": 86,
                "velocity": 101,
                "duration": 0.1182,
                "tempo": 120.0
            },
            {
                "pitch": 86,
                "velocity": 101,
                "duration": 0.1182,
                "tempo": 120.0
            },
            {
                "pitch": 81,
                "velocity": 101,
                "duration": 0.1159,
                "tempo": 120.0
            },
            {
                "pitch": 86,
                "velocity": 101,
                "duration": 0.2182,
                "tempo": 120.0
            },
            {
                "pitch": 55,
                "velocity": 127,
                "duration": 0.0159,
                "tempo": 120.0
            },
            {
                "pitch": 54,
                "velocity": 127,
                "duration": 0.05,
                "tempo": 120.0
            },
            {
                "pitch": 52,
                "velocity": 127,
                "duration": 0.0523,
                "tempo": 120.0
            },
            {
                "pitch": 62,
                "velocity": 127,
                "duration": 0.05,
                "tempo": 120.0
            },
            {
                "pitch": 59,
                "velocity": 127,
                "duration": 0.0341,
                "tempo": 120.0
            },
            {
                "pitch": 57,
                "velocity": 127,
                "duration": 0.0341,
                "tempo": 120.0
            },
            {
                "pitch": 54,
                "velocity": 127,
                "duration": 0.0318,
                "tempo": 120.0
            },
            {
                "pitch": 51,
                "velocity": 127,
                "duration": 0.0341,
                "tempo": 120.0
            },
            {
                "pitch": 47,
                "velocity": 127,
                "duration": 0.0182,
                "tempo": 120.0
            },
            {
                "pitch": 45,
                "velocity": 127,
                "duration": 0.0159,
                "tempo": 120.0
            },
            {
                "pitch": 81,
                "velocity": 101,
                "duration": 0.1159,
                "tempo": 120.0
            },
            {
                "pitch": 86,
                "velocity": 101,
                "duration": 0.2182,
                "tempo": 120.0
            },
            {
                "pitch": 81,
                "velocity": 101,
                "duration": 0.2227,
                "tempo": 120.0
            },
            {
                "pitch": 81,
                "velocity": 101,
                "duration": 0.1159,
                "tempo": 120.0
            },
            {
                "pitch": 83,
                "velocity": 101,
                "duration": 0.2159,
                "tempo": 120.0
            },
            {
                "pitch": 84,
                "velocity": 101,
                "duration": 0.225,
                "tempo": 120.0
            },
            {
                "pitch": 83,
                "velocity": 101,
                "duration": 0.2182,
                "tempo": 120.0
            },
            {
                "pitch": 81,
                "velocity": 101,
                "duration": 0.225,
                "tempo": 120.0
            },
            {
                "pitch": 79,
                "velocity": 101,
                "duration": 19.5886,
                "tempo": 120.0
            },
            {
                "pitch": 79,
                "velocity": 101,
                "duration": 0.1159,
                "tempo": 120.0
            },
            {
                "pitch": 91,
                "velocity": 101,
                "duration": 21.5205,
                "tempo": 120.0
            },
            {
                "pitch": 79,
                "velocity": 101,
                "duration": 0.1023,
                "tempo": 120.0
            },
            {
                "pitch": 81,
                "velocity": 101,
                "duration": 0.1159,
                "tempo": 120.0
            },
            {
                "pitch": 86,
                "velocity": 101,
                "duration": 0.2205,
                "tempo": 120.0
            },
            {
                "pitch": 81,
                "velocity": 101,
                "duration": 0.2227,
                "tempo": 120.0
            },
            {
                "pitch": 81,
                "velocity": 101,
                "duration": 0.1159,
                "tempo": 120.0
            },
            {
                "pitch": 83,
                "velocity": 101,
                "duration": 0.2182,
                "tempo": 120.0
            },
            {
                "pitch": 84,
                "velocity": 101,
                "duration": 0.2227,
                "tempo": 120.0
            },
            {
                "pitch": 83,
                "velocity": 101,
                "duration": 0.1159,
                "tempo": 120.0
            },
            {
                "pitch": 84,
                "velocity": 101,
                "duration": 0.1182,
                "tempo": 120.0
            },
            {
                "pitch": 83,
                "velocity": 101,
                "duration": 0.1205,
                "tempo": 120.0
            },
            {
                "pitch": 84,
                "velocity": 101,
                "duration": 0.1205,
                "tempo": 120.0
            },
            {
                "pitch": 83,
                "velocity": 101,
                "duration": 0.1159,
                "tempo": 120.0
            },
            {
                "pitch": 79,
                "velocity": 101,
                "duration": 0.1159,
                "tempo": 120.0
            },
            {
                "pitch": 91,
                "velocity": 101,
                "duration": 2.8795,
                "tempo": 120.0
            },
            {
                "pitch": 81,
                "velocity": 101,
                "duration": 0.1182,
                "tempo": 120.0
            },
            {
                "pitch": 86,
                "velocity": 101,
                "duration": 0.2182,
                "tempo": 120.0
            },
            {
                "pitch": 81,
                "velocity": 101,
                "duration": 0.3227,
                "tempo": 120.0
            },
            {
                "pitch": 83,
                "velocity": 101,
                "duration": 0.2182,
                "tempo": 120.0
            },
            {
                "pitch": 79,
                "velocity": 101,
                "duration": 1.5227,
                "tempo": 120.0
            },
            {
                "pitch": 79,
                "velocity": 101,
                "duration": 0.1205,
                "tempo": 120.0
            },
            {
                "pitch": 91,
                "velocity": 101,
                "duration": 1.5227,
                "tempo": 120.0
            },
            {
                "pitch": 79,
                "velocity": 101,
                "duration": 0.1023,
                "tempo": 120.0
            },
            {
                "pitch": 78,
                "velocity": 101,
                "duration": 0.1159,
                "tempo": 120.0
            },
            {
                "pitch": 79,
                "velocity": 101,
                "duration": 0.1182,
                "tempo": 120.0
            },
            {
                "pitch": 91,
                "velocity": 101,
                "duration": 0.5091,
                "tempo": 120.0
            },
            {
                "pitch": 78,
                "velocity": 101,
                "duration": 0.1205,
                "tempo": 120.0
            },
            {
                "pitch": 79,
                "velocity": 101,
                "duration": 0.3432,
                "tempo": 120.0
            },
            {
                "pitch": 79,
                "velocity": 101,
                "duration": 0.1205,
                "tempo": 120.0
            },
            {
                "pitch": 91,
                "velocity": 101,
                "duration": 0.3432,
                "tempo": 120.0
            },
            {
                "pitch": 84,
                "velocity": 101,
                "duration": 0.1159,
                "tempo": 120.0
            },
            {
                "pitch": 79,
                "velocity": 101,
                "duration": 0.3364,
                "tempo": 120.0
            },
            {
                "pitch": 79,
                "velocity": 101,
                "duration": 0.1159,
                "tempo": 120.0
            },
            {
                "pitch": 91,
                "velocity": 101,
                "duration": 0.3364,
                "tempo": 120.0
            },
            {
                "pitch": 81,
                "velocity": 101,
                "duration": 0.8477,
                "tempo": 120.0
            },
            {
                "pitch": 71,
                "velocity": 101,
                "duration": 0.0705,
                "tempo": 120.0
            },
            {
                "pitch": 69,
                "velocity": 101,
                "duration": 0.05,
                "tempo": 120.0
            },
            {
                "pitch": 69,
                "velocity": 101,
                "duration": 0.0682,
                "tempo": 120.0
            },
            {
                "pitch": 79,
                "velocity": 101,
                "duration": 1.8136,
                "tempo": 120.0
            },
            {
                "pitch": 66,
                "velocity": 101,
                "duration": 0.05,
                "tempo": 120.0
            },
            {
                "pitch": 67,
                "velocity": 127,
                "duration": 10.5023,
                "tempo": 120.0
            },
            {
                "pitch": 67,
                "velocity": 101,
                "duration": 0.0159,
                "tempo": 120.0
            },
            {
                "pitch": 79,
                "velocity": 101,
                "duration": 0.1159,
                "tempo": 120.0
            },
            {
                "pitch": 66,
                "velocity": 101,
                "duration": 0.05,
                "tempo": 120.0
            },
            {
                "pitch": 64,
                "velocity": 101,
                "duration": 0.0523,
                "tempo": 120.0
            },
            {
                "pitch": 65,
                "velocity": 101,
                "duration": 0.05,
                "tempo": 120.0
            },
            {
                "pitch": 63,
                "velocity": 101,
                "duration": 0.0523,
                "tempo": 120.0
            },
            {
                "pitch": 60,
                "velocity": 101,
                "duration": 0.0182,
                "tempo": 120.0
            },
            {
                "pitch": 65,
                "velocity": 101,
                "duration": 0.05,
                "tempo": 120.0
            },
            {
                "pitch": 63,
                "velocity": 101,
                "duration": 0.0182,
                "tempo": 120.0
            },
            {
                "pitch": 64,
                "velocity": 101,
                "duration": 0.05,
                "tempo": 120.0
            },
            {
                "pitch": 61,
                "velocity": 101,
                "duration": 0.0182,
                "tempo": 120.0
            },
            {
                "pitch": 62,
                "velocity": 101,
                "duration": 0.05,
                "tempo": 120.0
            },
            {
                "pitch": 59,
                "velocity": 101,
                "duration": 0.0318,
                "tempo": 120.0
            },
            {
                "pitch": 57,
                "velocity": 101,
                "duration": 0.0341,
                "tempo": 120.0
            },
            {
                "pitch": 60,
                "velocity": 101,
                "duration": 0.0341,
                "tempo": 120.0
            },
            {
                "pitch": 58,
                "velocity": 101,
                "duration": 0.0341,
                "tempo": 120.0
            },
            {
                "pitch": 55,
                "velocity": 101,
                "duration": 0.0318,
                "tempo": 120.0
            },
            {
                "pitch": 53,
                "velocity": 101,
                "duration": 0.0182,
                "tempo": 120.0
            }
        ],
        "Clarinet": [
            {
                "pitch": 72,
                "velocity": 51,
                "duration": 0.0841,
                "tempo": 120.0
            },
            {
                "pitch": 74,
                "velocity": 51,
                "duration": 0.0841,
                "tempo": 120.0
            },
            {
                "pitch": 76,
                "velocity": 51,
                "duration": 0.05,
                "tempo": 120.0
            },
            {
                "pitch": 69,
                "velocity": 51,
                "duration": 0.2227,
                "tempo": 120.0
            },
            {
                "pitch": 67,
                "velocity": 51,
                "duration": 0.05,
                "tempo": 120.0
            },
            {
                "pitch": 67,
                "velocity": 51,
                "duration": 0.0682,
                "tempo": 120.0
            },
            {
                "pitch": 79,
                "velocity": 51,
                "duration": 0.0682,
                "tempo": 120.0
            },
            {
                "pitch": 67,
                "velocity": 51,
                "duration": 0.0705,
                "tempo": 120.0
            },
            {
                "pitch": 79,
                "velocity": 51,
                "duration": 0.0705,
                "tempo": 120.0
            },
            {
                "pitch": 67,
                "velocity": 51,
                "duration": 0.0341,
                "tempo": 120.0
            },
            {
                "pitch": 72,
                "velocity": 51,
                "duration": 0.0841,
                "tempo": 120.0
            },
            {
                "pitch": 74,
                "velocity": 51,
                "duration": 0.0841,
                "tempo": 120.0
            },
            {
                "pitch": 76,
                "velocity": 51,
                "duration": 0.05,
                "tempo": 120.0
            },
            {
                "pitch": 69,
                "velocity": 51,
                "duration": 0.2182,
                "tempo": 120.0
            },
            {
                "pitch": 67,
                "velocity": 51,
                "duration": 0.0523,
                "tempo": 120.0
            },
            {
                "pitch": 79,
                "velocity": 51,
                "duration": 0.8773,
                "tempo": 120.0
            },
            {
                "pitch": 67,
                "velocity": 51,
                "duration": 0.1727,
                "tempo": 120.0
            },
            {
                "pitch": 72,
                "velocity": 51,
                "duration": 0.0864,
                "tempo": 120.0
            },
            {
                "pitch": 74,
                "velocity": 51,
                "duration": 0.0864,
                "tempo": 120.0
            },
            {
                "pitch": 76,
                "velocity": 51,
                "duration": 0.0523,
                "tempo": 120.0
            },
            {
                "pitch": 69,
                "velocity": 51,
                "duration": 0.2182,
                "tempo": 120.0
            },
            {
                "pitch": 67,
                "velocity": 51,
                "duration": 0.05,
                "tempo": 120.0
            },
            {
                "pitch": 79,
                "velocity": 51,
                "duration": 1.6932,
                "tempo": 120.0
            },
            {
                "pitch": 67,
                "velocity": 51,
                "duration": 0.0682,
                "tempo": 120.0
            },
            {
                "pitch": 79,
                "velocity": 51,
                "duration": 0.0682,
                "tempo": 120.0
            },
            {
                "pitch": 67,
                "velocity": 51,
                "duration": 0.0659,
                "tempo": 120.0
            },
            {
                "pitch": 79,
                "velocity": 51,
                "duration": 0.0659,
                "tempo": 120.0
            },
            {
                "pitch": 67,
                "velocity": 51,
                "duration": 0.0341,
                "tempo": 120.0
            },
            {
                "pitch": 72,
                "velocity": 51,
                "duration": 0.0864,
                "tempo": 120.0
            },
            {
                "pitch": 74,
                "velocity": 51,
                "duration": 0.0864,
                "tempo": 120.0
            },
            {
                "pitch": 76,
                "velocity": 51,
                "duration": 0.05,
                "tempo": 120.0
            },
            {
                "pitch": 69,
                "velocity": 51,
                "duration": 0.2159,
                "tempo": 120.0
            },
            {
                "pitch": 67,
                "velocity": 51,
                "duration": 0.1205,
                "tempo": 120.0
            },
            {
                "pitch": 69,
                "velocity": 51,
                "duration": 0.1045,
                "tempo": 120.0
            },
            {
                "pitch": 72,
                "velocity": 51,
                "duration": 0.0864,
                "tempo": 120.0
            },
            {
                "pitch": 74,
                "velocity": 51,
                "duration": 0.0864,
                "tempo": 120.0
            },
            {
                "pitch": 76,
                "velocity": 51,
                "duration": 0.05,
                "tempo": 120.0
            },
            {
                "pitch": 69,
                "velocity": 51,
                "duration": 0.2159,
                "tempo": 120.0
            },
            {
                "pitch": 67,
                "velocity": 51,
                "duration": 0.05,
                "tempo": 120.0
            },
            {
                "pitch": 79,
                "velocity": 51,
                "duration": 2.5773,
                "tempo": 120.0
            },
            {
                "pitch": 67,
                "velocity": 51,
                "duration": 0.0682,
                "tempo": 120.0
            },
            {
                "pitch": 79,
                "velocity": 51,
                "duration": 0.0682,
                "tempo": 120.0
            },
            {
                "pitch": 67,
                "velocity": 51,
                "duration": 0.0659,
                "tempo": 120.0
            },
            {
                "pitch": 79,
                "velocity": 51,
                "duration": 0.0659,
                "tempo": 120.0
            },
            {
                "pitch": 67,
                "velocity": 51,
                "duration": 0.0341,
                "tempo": 120.0
            },
            {
                "pitch": 72,
                "velocity": 51,
                "duration": 0.0841,
                "tempo": 120.0
            },
            {
                "pitch": 74,
                "velocity": 51,
                "duration": 0.0864,
                "tempo": 120.0
            },
            {
                "pitch": 76,
                "velocity": 51,
                "duration": 0.0523,
                "tempo": 120.0
            },
            {
                "pitch": 69,
                "velocity": 51,
                "duration": 0.2159,
                "tempo": 120.0
            },
            {
                "pitch": 67,
                "velocity": 51,
                "duration": 0.05,
                "tempo": 120.0
            },
            {
                "pitch": 79,
                "velocity": 51,
                "duration": 0.8818,
                "tempo": 120.0
            },
            {
                "pitch": 67,
                "velocity": 51,
                "duration": 0.1727,
                "tempo": 120.0
            },
            {
                "pitch": 72,
                "velocity": 51,
                "duration": 0.0841,
                "tempo": 120.0
            },
            {
                "pitch": 74,
                "velocity": 51,
                "duration": 0.0886,
                "tempo": 120.0
            },
            {
                "pitch": 76,
                "velocity": 51,
                "duration": 0.05,
                "tempo": 120.0
            },
            {
                "pitch": 69,
                "velocity": 51,
                "duration": 0.2159,
                "tempo": 120.0
            },
            {
                "pitch": 67,
                "velocity": 51,
                "duration": 0.05,
                "tempo": 120.0
            },
            {
                "pitch": 79,
                "velocity": 51,
                "duration": 1.6955,
                "tempo": 120.0
            },
            {
                "pitch": 67,
                "velocity": 51,
                "duration": 0.0659,
                "tempo": 120.0
            },
            {
                "pitch": 79,
                "velocity": 51,
                "duration": 0.0659,
                "tempo": 120.0
            },
            {
                "pitch": 67,
                "velocity": 51,
                "duration": 0.0682,
                "tempo": 120.0
            },
            {
                "pitch": 79,
                "velocity": 51,
                "duration": 0.0682,
                "tempo": 120.0
            },
            {
                "pitch": 67,
                "velocity": 51,
                "duration": 0.0341,
                "tempo": 120.0
            },
            {
                "pitch": 72,
                "velocity": 51,
                "duration": 0.0841,
                "tempo": 120.0
            },
            {
                "pitch": 74,
                "velocity": 51,
                "duration": 0.0864,
                "tempo": 120.0
            },
            {
                "pitch": 76,
                "velocity": 51,
                "duration": 0.0523,
                "tempo": 120.0
            },
            {
                "pitch": 69,
                "velocity": 51,
                "duration": 0.2182,
                "tempo": 120.0
            },
            {
                "pitch": 72,
                "velocity": 51,
                "duration": 0.0841,
                "tempo": 120.0
            },
            {
                "pitch": 74,
                "velocity": 51,
                "duration": 0.0886,
                "tempo": 120.0
            },
            {
                "pitch": 76,
                "velocity": 51,
                "duration": 0.05,
                "tempo": 120.0
            },
            {
                "pitch": 72,
                "velocity": 51,
                "duration": 0.0818,
                "tempo": 120.0
            },
            {
                "pitch": 74,
                "velocity": 51,
                "duration": 0.0523,
                "tempo": 120.0
            }
        ],
        "Flute": [
            {
                "pitch": 74,
                "velocity": 51,
                "duration": 0.1659,
                "tempo": 120.0
            },
            {
                "pitch": 73,
                "velocity": 51,
                "duration": 0.1682,
                "tempo": 120.0
            },
            {
                "pitch": 74,
                "velocity": 51,
                "duration": 0.1659,
                "tempo": 120.0
            },
            {
                "pitch": 69,
                "velocity": 51,
                "duration": 0.1682,
                "tempo": 120.0
            },
            {
                "pitch": 69,
                "velocity": 51,
                "duration": 0.1727,
                "tempo": 120.0
            },
            {
                "pitch": 67,
                "velocity": 51,
                "duration": 0.1705,
                "tempo": 120.0
            },
            {
                "pitch": 69,
                "velocity": 51,
                "duration": 0.1705,
                "tempo": 120.0
            },
            {
                "pitch": 72,
                "velocity": 51,
                "duration": 0.1659,
                "tempo": 120.0
            },
            {
                "pitch": 71,
                "velocity": 51,
                "duration": 0.1682,
                "tempo": 120.0
            },
            {
                "pitch": 72,
                "velocity": 51,
                "duration": 0.1682,
                "tempo": 120.0
            },
            {
                "pitch": 71,
                "velocity": 51,
                "duration": 0.1682,
                "tempo": 120.0
            },
            {
                "pitch": 69,
                "velocity": 51,
                "duration": 0.1705,
                "tempo": 120.0
            },
            {
                "pitch": 69,
                "velocity": 25,
                "duration": 0.1727,
                "tempo": 120.0
            },
            {
                "pitch": 67,
                "velocity": 51,
                "duration": 0.1682,
                "tempo": 120.0
            },
            {
                "pitch": 67,
                "velocity": 25,
                "duration": 0.1682,
                "tempo": 120.0
            },
            {
                "pitch": 74,
                "velocity": 51,
                "duration": 0.1659,
                "tempo": 120.0
            },
            {
                "pitch": 73,
                "velocity": 51,
                "duration": 0.1682,
                "tempo": 120.0
            },
            {
                "pitch": 74,
                "velocity": 51,
                "duration": 0.1705,
                "tempo": 120.0
            },
            {
                "pitch": 69,
                "velocity": 51,
                "duration": 0.1727,
                "tempo": 120.0
            },
            {
                "pitch": 69,
                "velocity": 51,
                "duration": 0.1682,
                "tempo": 120.0
            },
            {
                "pitch": 67,
                "velocity": 51,
                "duration": 0.1659,
                "tempo": 120.0
            },
            {
                "pitch": 69,
                "velocity": 51,
                "duration": 0.1682,
                "tempo": 120.0
            },
            {
                "pitch": 72,
                "velocity": 51,
                "duration": 0.1727,
                "tempo": 120.0
            },
            {
                "pitch": 71,
                "velocity": 51,
                "duration": 0.1727,
                "tempo": 120.0
            },
            {
                "pitch": 72,
                "velocity": 51,
                "duration": 0.1682,
                "tempo": 120.0
            },
            {
                "pitch": 71,
                "velocity": 51,
                "duration": 0.1682,
                "tempo": 120.0
            },
            {
                "pitch": 69,
                "velocity": 51,
                "duration": 0.1705,
                "tempo": 120.0
            },
            {
                "pitch": 81,
                "velocity": 51,
                "duration": 0.1727,
                "tempo": 120.0
            },
            {
                "pitch": 67,
                "velocity": 51,
                "duration": 0.1682,
                "tempo": 120.0
            },
            {
                "pitch": 79,
                "velocity": 51,
                "duration": 0.1659,
                "tempo": 120.0
            },
            {
                "pitch": 74,
                "velocity": 51,
                "duration": 0.1659,
                "tempo": 120.0
            },
            {
                "pitch": 73,
                "velocity": 51,
                "duration": 0.1682,
                "tempo": 120.0
            },
            {
                "pitch": 74,
                "velocity": 51,
                "duration": 0.1727,
                "tempo": 120.0
            },
            {
                "pitch": 69,
                "velocity": 51,
                "duration": 0.1727,
                "tempo": 120.0
            },
            {
                "pitch": 69,
                "velocity": 51,
                "duration": 0.1682,
                "tempo": 120.0
            },
            {
                "pitch": 67,
                "velocity": 51,
                "duration": 0.1659,
                "tempo": 120.0
            },
            {
                "pitch": 69,
                "velocity": 51,
                "duration": 0.1682,
                "tempo": 120.0
            },
            {
                "pitch": 72,
                "velocity": 51,
                "duration": 0.1727,
                "tempo": 120.0
            },
            {
                "pitch": 71,
                "velocity": 51,
                "duration": 0.1727,
                "tempo": 120.0
            },
            {
                "pitch": 72,
                "velocity": 51,
                "duration": 0.1659,
                "tempo": 120.0
            },
            {
                "pitch": 71,
                "velocity": 51,
                "duration": 0.1659,
                "tempo": 120.0
            },
            {
                "pitch": 69,
                "velocity": 51,
                "duration": 0.1727,
                "tempo": 120.0
            },
            {
                "pitch": 69,
                "velocity": 25,
                "duration": 0.1727,
                "tempo": 120.0
            },
            {
                "pitch": 67,
                "velocity": 51,
                "duration": 0.1682,
                "tempo": 120.0
            },
            {
                "pitch": 67,
                "velocity": 25,
                "duration": 0.1659,
                "tempo": 120.0
            },
            {
                "pitch": 74,
                "velocity": 51,
                "duration": 0.1659,
                "tempo": 120.0
            },
            {
                "pitch": 73,
                "velocity": 51,
                "duration": 0.1682,
                "tempo": 120.0
            },
            {
                "pitch": 74,
                "velocity": 51,
                "duration": 0.1727,
                "tempo": 120.0
            },
            {
                "pitch": 69,
                "velocity": 51,
                "duration": 0.1727,
                "tempo": 120.0
            },
            {
                "pitch": 69,
                "velocity": 51,
                "duration": 0.1659,
                "tempo": 120.0
            },
            {
                "pitch": 67,
                "velocity": 51,
                "duration": 0.1659,
                "tempo": 120.0
            },
            {
                "pitch": 69,
                "velocity": 51,
                "duration": 0.1682,
                "tempo": 120.0
            },
            {
                "pitch": 72,
                "velocity": 51,
                "duration": 0.1705,
                "tempo": 120.0
            },
            {
                "pitch": 71,
                "velocity": 51,
                "duration": 0.1727,
                "tempo": 120.0
            },
            {
                "pitch": 72,
                "velocity": 51,
                "duration": 0.1659,
                "tempo": 120.0
            },
            {
                "pitch": 71,
                "velocity": 51,
                "duration": 0.1682,
                "tempo": 120.0
            },
            {
                "pitch": 69,
                "velocity": 51,
                "duration": 0.1727,
                "tempo": 120.0
            },
            {
                "pitch": 71,
                "velocity": 51,
                "duration": 0.1727,
                "tempo": 120.0
            },
            {
                "pitch": 72,
                "velocity": 51,
                "duration": 0.1659,
                "tempo": 120.0
            },
            {
                "pitch": 74,
                "velocity": 51,
                "duration": 0.1705,
                "tempo": 120.0
            },
            {
                "pitch": 69,
                "velocity": 51,
                "duration": 0.1659,
                "tempo": 120.0
            },
            {
                "pitch": 74,
                "velocity": 51,
                "duration": 0.3409,
                "tempo": 120.0
            },
            {
                "pitch": 69,
                "velocity": 51,
                "duration": 0.3386,
                "tempo": 120.0
            },
            {
                "pitch": 74,
                "velocity": 51,
                "duration": 0.1659,
                "tempo": 120.0
            },
            {
                "pitch": 72,
                "velocity": 51,
                "duration": 0.1727,
                "tempo": 120.0
            },
            {
                "pitch": 71,
                "velocity": 51,
                "duration": 0.1727,
                "tempo": 120.0
            },
            {
                "pitch": 69,
                "velocity": 51,
                "duration": 0.1682,
                "tempo": 120.0
            },
            {
                "pitch": 74,
                "velocity": 51,
                "duration": 0.3341,
                "tempo": 120.0
            },
            {
                "pitch": 69,
                "velocity": 51,
                "duration": 0.3409,
                "tempo": 120.0
            },
            {
                "pitch": 81,
                "velocity": 51,
                "duration": 0.1682,
                "tempo": 120.0
            },
            {
                "pitch": 86,
                "velocity": 51,
                "duration": 0.3409,
                "tempo": 120.0
            },
            {
                "pitch": 81,
                "velocity": 51,
                "duration": 0.3386,
                "tempo": 120.0
            },
            {
                "pitch": 86,
                "velocity": 51,
                "duration": 0.1682,
                "tempo": 120.0
            },
            {
                "pitch": 84,
                "velocity": 51,
                "duration": 0.1727,
                "tempo": 120.0
            },
            {
                "pitch": 83,
                "velocity": 51,
                "duration": 0.1727,
                "tempo": 120.0
            },
            {
                "pitch": 86,
                "velocity": 51,
                "duration": 0.1659,
                "tempo": 120.0
            },
            {
                "pitch": 86,
                "velocity": 51,
                "duration": 0.1659,
                "tempo": 120.0
            },
            {
                "pitch": 81,
                "velocity": 51,
                "duration": 0.1682,
                "tempo": 120.0
            },
            {
                "pitch": 86,
                "velocity": 51,
                "duration": 0.3409,
                "tempo": 120.0
            },
            {
                "pitch": 74,
                "velocity": 51,
                "duration": 0.1705,
                "tempo": 120.0
            },
            {
                "pitch": 73,
                "velocity": 51,
                "duration": 0.1727,
                "tempo": 120.0
            },
            {
                "pitch": 74,
                "velocity": 51,
                "duration": 0.1341,
                "tempo": 120.0
            }
        ],
        "Trumpet": [
            {
                "pitch": 69,
                "velocity": 40,
                "duration": 0.0864,
                "tempo": 120.0
            },
            {
                "pitch": 69,
                "velocity": 20,
                "duration": 0.0864,
                "tempo": 120.0
            },
            {
                "pitch": 69,
                "velocity": 40,
                "duration": 0.0841,
                "tempo": 120.0
            },
            {
                "pitch": 69,
                "velocity": 20,
                "duration": 0.0818,
                "tempo": 120.0
            },
            {
                "pitch": 69,
                "velocity": 40,
                "duration": 0.0818,
                "tempo": 120.0
            },
            {
                "pitch": 69,
                "velocity": 20,
                "duration": 0.0841,
                "tempo": 120.0
            },
            {
                "pitch": 69,
                "velocity": 40,
                "duration": 0.3341,
                "tempo": 120.0
            },
            {
                "pitch": 67,
                "velocity": 40,
                "duration": 0.2409,
                "tempo": 120.0
            },
            {
                "pitch": 67,
                "velocity": 40,
                "duration": 0.1023,
                "tempo": 120.0
            },
            {
                "pitch": 66,
                "velocity": 40,
                "duration": 1.35,
                "tempo": 120.0
            },
            {
                "pitch": 62,
                "velocity": 40,
                "duration": 0.0864,
                "tempo": 120.0
            },
            {
                "pitch": 62,
                "velocity": 25,
                "duration": 0.0864,
                "tempo": 120.0
            },
            {
                "pitch": 62,
                "velocity": 40,
                "duration": 0.0818,
                "tempo": 120.0
            },
            {
                "pitch": 62,
                "velocity": 25,
                "duration": 0.0818,
                "tempo": 120.0
            },
            {
                "pitch": 62,
                "velocity": 40,
                "duration": 0.0841,
                "tempo": 120.0
            },
            {
                "pitch": 62,
                "velocity": 25,
                "duration": 0.0841,
                "tempo": 120.0
            },
            {
                "pitch": 62,
                "velocity": 40,
                "duration": 0.3455,
                "tempo": 120.0
            },
            {
                "pitch": 67,
                "velocity": 40,
                "duration": 0.2341,
                "tempo": 120.0
            },
            {
                "pitch": 79,
                "velocity": 40,
                "duration": 2.7136,
                "tempo": 120.0
            },
            {
                "pitch": 67,
                "velocity": 40,
                "duration": 0.1,
                "tempo": 120.0
            },
            {
                "pitch": 66,
                "velocity": 40,
                "duration": 1.35,
                "tempo": 120.0
            },
            {
                "pitch": 62,
                "velocity": 40,
                "duration": 0.0864,
                "tempo": 120.0
            },
            {
                "pitch": 62,
                "velocity": 25,
                "duration": 0.0841,
                "tempo": 120.0
            },
            {
                "pitch": 62,
                "velocity": 40,
                "duration": 0.0818,
                "tempo": 120.0
            },
            {
                "pitch": 62,
                "velocity": 25,
                "duration": 0.0841,
                "tempo": 120.0
            },
            {
                "pitch": 62,
                "velocity": 40,
                "duration": 0.0841,
                "tempo": 120.0
            },
            {
                "pitch": 62,
                "velocity": 25,
                "duration": 0.0841,
                "tempo": 120.0
            },
            {
                "pitch": 62,
                "velocity": 40,
                "duration": 0.3455,
                "tempo": 120.0
            },
            {
                "pitch": 67,
                "velocity": 40,
                "duration": 0.2341,
                "tempo": 120.0
            },
            {
                "pitch": 79,
                "velocity": 40,
                "duration": 2.7114,
                "tempo": 120.0
            },
            {
                "pitch": 67,
                "velocity": 40,
                "duration": 0.1,
                "tempo": 120.0
            },
            {
                "pitch": 66,
                "velocity": 40,
                "duration": 1.3523,
                "tempo": 120.0
            },
            {
                "pitch": 69,
                "velocity": 40,
                "duration": 0.0864,
                "tempo": 120.0
            },
            {
                "pitch": 69,
                "velocity": 20,
                "duration": 0.0841,
                "tempo": 120.0
            },
            {
                "pitch": 69,
                "velocity": 40,
                "duration": 0.0818,
                "tempo": 120.0
            },
            {
                "pitch": 69,
                "velocity": 20,
                "duration": 0.0841,
                "tempo": 120.0
            },
            {
                "pitch": 69,
                "velocity": 40,
                "duration": 0.0841,
                "tempo": 120.0
            },
            {
                "pitch": 69,
                "velocity": 20,
                "duration": 0.0841,
                "tempo": 120.0
            },
            {
                "pitch": 69,
                "velocity": 40,
                "duration": 0.3455,
                "tempo": 120.0
            },
            {
                "pitch": 67,
                "velocity": 40,
                "duration": 0.2341,
                "tempo": 120.0
            },
            {
                "pitch": 79,
                "velocity": 40,
                "duration": 21.6886,
                "tempo": 120.0
            },
            {
                "pitch": 67,
                "velocity": 40,
                "duration": 0.1,
                "tempo": 120.0
            },
            {
                "pitch": 66,
                "velocity": 40,
                "duration": 1.3523,
                "tempo": 120.0
            },
            {
                "pitch": 62,
                "velocity": 40,
                "duration": 0.0841,
                "tempo": 120.0
            },
            {
                "pitch": 62,
                "velocity": 25,
                "duration": 0.0864,
                "tempo": 120.0
            },
            {
                "pitch": 62,
                "velocity": 40,
                "duration": 0.0841,
                "tempo": 120.0
            },
            {
                "pitch": 62,
                "velocity": 25,
                "duration": 0.0841,
                "tempo": 120.0
            },
            {
                "pitch": 62,
                "velocity": 40,
                "duration": 0.0841,
                "tempo": 120.0
            },
            {
                "pitch": 62,
                "velocity": 25,
                "duration": 0.0841,
                "tempo": 120.0
            },
            {
                "pitch": 62,
                "velocity": 40,
                "duration": 0.3432,
                "tempo": 120.0
            },
            {
                "pitch": 67,
                "velocity": 40,
                "duration": 0.2364,
                "tempo": 120.0
            },
            {
                "pitch": 79,
                "velocity": 40,
                "duration": 2.7114,
                "tempo": 120.0
            },
            {
                "pitch": 67,
                "velocity": 40,
                "duration": 0.1,
                "tempo": 120.0
            },
            {
                "pitch": 66,
                "velocity": 40,
                "duration": 1.35,
                "tempo": 120.0
            },
            {
                "pitch": 62,
                "velocity": 40,
                "duration": 0.0864,
                "tempo": 120.0
            },
            {
                "pitch": 62,
                "velocity": 25,
                "duration": 0.0864,
                "tempo": 120.0
            },
            {
                "pitch": 62,
                "velocity": 40,
                "duration": 0.0841,
                "tempo": 120.0
            },
            {
                "pitch": 62,
                "velocity": 25,
                "duration": 0.0841,
                "tempo": 120.0
            },
            {
                "pitch": 62,
                "velocity": 40,
                "duration": 0.0818,
                "tempo": 120.0
            },
            {
                "pitch": 62,
                "velocity": 25,
                "duration": 0.0841,
                "tempo": 120.0
            },
            {
                "pitch": 62,
                "velocity": 40,
                "duration": 0.3432,
                "tempo": 120.0
            },
            {
                "pitch": 67,
                "velocity": 40,
                "duration": 0.2341,
                "tempo": 120.0
            },
            {
                "pitch": 79,
                "velocity": 40,
                "duration": 2.7091,
                "tempo": 120.0
            },
            {
                "pitch": 67,
                "velocity": 40,
                "duration": 0.1023,
                "tempo": 120.0
            },
            {
                "pitch": 66,
                "velocity": 40,
                "duration": 1.35,
                "tempo": 120.0
            }
        ],
        "Violin": [
            {
                "pitch": 86,
                "velocity": 51,
                "duration": 2.7091,
                "tempo": 120.0
            },
            {
                "pitch": 86,
                "velocity": 51,
                "duration": 2.7091,
                "tempo": 120.0
            },
            {
                "pitch": 86,
                "velocity": 51,
                "duration": 1.3614,
                "tempo": 120.0
            },
            {
                "pitch": 86,
                "velocity": 64,
                "duration": 0.1341,
                "tempo": 120.0
            },
            {
                "pitch": 81,
                "velocity": 64,
                "duration": 0.1318,
                "tempo": 120.0
            },
            {
                "pitch": 86,
                "velocity": 64,
                "duration": 0.1364,
                "tempo": 120.0
            },
            {
                "pitch": 79,
                "velocity": 64,
                "duration": 0.1205,
                "tempo": 120.0
            },
            {
                "pitch": 79,
                "velocity": 64,
                "duration": 0.0159,
                "tempo": 120.0
            },
            {
                "pitch": 79,
                "velocity": 40,
                "duration": 0.1159,
                "tempo": 120.0
            },
            {
                "pitch": 91,
                "velocity": 64,
                "duration": 0.1682,
                "tempo": 120.0
            },
            {
                "pitch": 79,
                "velocity": 40,
                "duration": 0.0159,
                "tempo": 120.0
            },
            {
                "pitch": 79,
                "velocity": 64,
                "duration": 0.1159,
                "tempo": 120.0
            },
            {
                "pitch": 91,
                "velocity": 40,
                "duration": 0.1682,
                "tempo": 120.0
            },
            {
                "pitch": 79,
                "velocity": 64,
                "duration": 0.0159,
                "tempo": 120.0
            },
            {
                "pitch": 78,
                "velocity": 64,
                "duration": 0.1364,
                "tempo": 120.0
            },
            {
                "pitch": 79,
                "velocity": 64,
                "duration": 0.1205,
                "tempo": 120.0
            },
            {
                "pitch": 91,
                "velocity": 64,
                "duration": 0.3432,
                "tempo": 120.0
            },
            {
                "pitch": 79,
                "velocity": 64,
                "duration": 0.0182,
                "tempo": 120.0
            },
            {
                "pitch": 86,
                "velocity": 64,
                "duration": 0.1341,
                "tempo": 120.0
            },
            {
                "pitch": 81,
                "velocity": 64,
                "duration": 0.1341,
                "tempo": 120.0
            },
            {
                "pitch": 86,
                "velocity": 64,
                "duration": 0.1341,
                "tempo": 120.0
            },
            {
                "pitch": 81,
                "velocity": 64,
                "duration": 0.1318,
                "tempo": 120.0
            },
            {
                "pitch": 79,
                "velocity": 64,
                "duration": 0.1205,
                "tempo": 120.0
            },
            {
                "pitch": 91,
                "velocity": 64,
                "duration": 0.8432,
                "tempo": 120.0
            },
            {
                "pitch": 79,
                "velocity": 64,
                "duration": 0.1364,
                "tempo": 120.0
            },
            {
                "pitch": 78,
                "velocity": 64,
                "duration": 0.25,
                "tempo": 120.0
            },
            {
                "pitch": 74,
                "velocity": 64,
                "duration": 0.1318,
                "tempo": 120.0
            },
            {
                "pitch": 69,
                "velocity": 64,
                "duration": 0.1341,
                "tempo": 120.0
            },
            {
                "pitch": 74,
                "velocity": 64,
                "duration": 0.1364,
                "tempo": 120.0
            },
            {
                "pitch": 67,
                "velocity": 64,
                "duration": 0.1182,
                "tempo": 120.0
            },
            {
                "pitch": 67,
                "velocity": 64,
                "duration": 0.0182,
                "tempo": 120.0
            },
            {
                "pitch": 67,
                "velocity": 40,
                "duration": 0.1182,
                "tempo": 120.0
            },
            {
                "pitch": 79,
                "velocity": 64,
                "duration": 0.1705,
                "tempo": 120.0
            },
            {
                "pitch": 67,
                "velocity": 40,
                "duration": 0.0159,
                "tempo": 120.0
            },
            {
                "pitch": 67,
                "velocity": 64,
                "duration": 0.1159,
                "tempo": 120.0
            },
            {
                "pitch": 79,
                "velocity": 40,
                "duration": 0.1682,
                "tempo": 120.0
            },
            {
                "pitch": 67,
                "velocity": 64,
                "duration": 0.0159,
                "tempo": 120.0
            },
            {
                "pitch": 66,
                "velocity": 64,
                "duration": 0.1386,
                "tempo": 120.0
            },
            {
                "pitch": 67,
                "velocity": 64,
                "duration": 0.1205,
                "tempo": 120.0
            },
            {
                "pitch": 79,
                "velocity": 64,
                "duration": 0.3432,
                "tempo": 120.0
            },
            {
                "pitch": 67,
                "velocity": 64,
                "duration": 0.0159,
                "tempo": 120.0
            },
            {
                "pitch": 74,
                "velocity": 64,
                "duration": 0.1341,
                "tempo": 120.0
            },
            {
                "pitch": 74,
                "velocity": 64,
                "duration": 0.1318,
                "tempo": 120.0
            },
            {
                "pitch": 66,
                "velocity": 64,
                "duration": 0.1318,
                "tempo": 120.0
            },
            {
                "pitch": 74,
                "velocity": 64,
                "duration": 0.25,
                "tempo": 120.0
            }
        ],
        "Acoustic Bass": [
            {
                "pitch": 38,
                "velocity": 80,
                "duration": 0.0818,
                "tempo": 120.0
            },
            {
                "pitch": 38,
                "velocity": 40,
                "duration": 0.0841,
                "tempo": 120.0
            },
            {
                "pitch": 33,
                "velocity": 80,
                "duration": 0.0818,
                "tempo": 120.0
            },
            {
                "pitch": 33,
                "velocity": 40,
                "duration": 0.0841,
                "tempo": 120.0
            },
            {
                "pitch": 38,
                "velocity": 80,
                "duration": 0.0818,
                "tempo": 120.0
            },
            {
                "pitch": 38,
                "velocity": 40,
                "duration": 0.0841,
                "tempo": 120.0
            },
            {
                "pitch": 33,
                "velocity": 80,
                "duration": 0.0841,
                "tempo": 120.0
            },
            {
                "pitch": 33,
                "velocity": 40,
                "duration": 0.0841,
                "tempo": 120.0
            },
            {
                "pitch": 38,
                "velocity": 80,
                "duration": 0.0841,
                "tempo": 120.0
            },
            {
                "pitch": 38,
                "velocity": 40,
                "duration": 0.0841,
                "tempo": 120.0
            },
            {
                "pitch": 33,
                "velocity": 80,
                "duration": 0.0818,
                "tempo": 120.0
            },
            {
                "pitch": 33,
                "velocity": 40,
                "duration": 0.0841,
                "tempo": 120.0
            },
            {
                "pitch": 38,
                "velocity": 80,
                "duration": 0.0818,
                "tempo": 120.0
            },
            {
                "pitch": 38,
                "velocity": 40,
                "duration": 0.0841,
                "tempo": 120.0
            },
            {
                "pitch": 33,
                "velocity": 80,
                "duration": 0.0841,
                "tempo": 120.0
            },
            {
                "pitch": 33,
                "velocity": 40,
                "duration": 0.0841,
                "tempo": 120.0
            },
            {
                "pitch": 38,
                "velocity": 80,
                "duration": 0.3455,
                "tempo": 120.0
            },
            {
                "pitch": 33,
                "velocity": 80,
                "duration": 0.0818,
                "tempo": 120.0
            },
            {
                "pitch": 33,
                "velocity": 40,
                "duration": 0.0841,
                "tempo": 120.0
            },
            {
                "pitch": 33,
                "velocity": 80,
                "duration": 0.0818,
                "tempo": 120.0
            },
            {
                "pitch": 33,
                "velocity": 40,
                "duration": 0.0841,
                "tempo": 120.0
            },
            {
                "pitch": 35,
                "velocity": 80,
                "duration": 0.0841,
                "tempo": 120.0
            },
            {
                "pitch": 35,
                "velocity": 40,
                "duration": 0.0841,
                "tempo": 120.0
            },
            {
                "pitch": 35,
                "velocity": 80,
                "duration": 0.0841,
                "tempo": 120.0
            },
            {
                "pitch": 35,
                "velocity": 40,
                "duration": 0.0841,
                "tempo": 120.0
            },
            {
                "pitch": 37,
                "velocity": 80,
                "duration": 0.0841,
                "tempo": 120.0
            },
            {
                "pitch": 37,
                "velocity": 40,
                "duration": 0.0864,
                "tempo": 120.0
            },
            {
                "pitch": 37,
                "velocity": 80,
                "duration": 0.0841,
                "tempo": 120.0
            },
            {
                "pitch": 37,
                "velocity": 40,
                "duration": 0.0886,
                "tempo": 120.0
            },
            {
                "pitch": 38,
                "velocity": 80,
                "duration": 0.3341,
                "tempo": 120.0
            },
            {
                "pitch": 38,
                "velocity": 32,
                "duration": 0.1727,
                "tempo": 120.0
            },
            {
                "pitch": 38,
                "velocity": 80,
                "duration": 0.1727,
                "tempo": 120.0
            },
            {
                "pitch": 33,
                "velocity": 80,
                "duration": 0.3341,
                "tempo": 120.0
            },
            {
                "pitch": 33,
                "velocity": 32,
                "duration": 0.1659,
                "tempo": 120.0
            },
            {
                "pitch": 33,
                "velocity": 80,
                "duration": 0.1682,
                "tempo": 120.0
            },
            {
                "pitch": 36,
                "velocity": 80,
                "duration": 0.3455,
                "tempo": 120.0
            },
            {
                "pitch": 36,
                "velocity": 32,
                "duration": 0.1659,
                "tempo": 120.0
            },
            {
                "pitch": 36,
                "velocity": 80,
                "duration": 0.1659,
                "tempo": 120.0
            },
            {
                "pitch": 35,
                "velocity": 80,
                "duration": 0.1659,
                "tempo": 120.0
            },
            {
                "pitch": 36,
                "velocity": 80,
                "duration": 0.1682,
                "tempo": 120.0
            },
            {
                "pitch": 31,
                "velocity": 80,
                "duration": 0.3455,
                "tempo": 120.0
            },
            {
                "pitch": 38,
                "velocity": 80,
                "duration": 0.3341,
                "tempo": 120.0
            },
            {
                "pitch": 38,
                "velocity": 32,
                "duration": 0.1727,
                "tempo": 120.0
            },
            {
                "pitch": 38,
                "velocity": 80,
                "duration": 0.1727,
                "tempo": 120.0
            },
            {
                "pitch": 33,
                "velocity": 80,
                "duration": 0.3341,
                "tempo": 120.0
            },
            {
                "pitch": 33,
                "velocity": 32,
                "duration": 0.1659,
                "tempo": 120.0
            },
            {
                "pitch": 33,
                "velocity": 80,
                "duration": 0.1682,
                "tempo": 120.0
            },
            {
                "pitch": 36,
                "velocity": 80,
                "duration": 0.3455,
                "tempo": 120.0
            },
            {
                "pitch": 35,
                "velocity": 80,
                "duration": 0.1659,
                "tempo": 120.0
            },
            {
                "pitch": 40,
                "velocity": 80,
                "duration": 2.375,
                "tempo": 120.0
            },
            {
                "pitch": 36,
                "velocity": 80,
                "duration": 0.1682,
                "tempo": 120.0
            },
            {
                "pitch": 35,
                "velocity": 80,
                "duration": 0.1705,
                "tempo": 120.0
            },
            {
                "pitch": 40,
                "velocity": 80,
                "duration": 0.3409,
                "tempo": 120.0
            },
            {
                "pitch": 36,
                "velocity": 80,
                "duration": 0.1727,
                "tempo": 120.0
            },
            {
                "pitch": 31,
                "velocity": 80,
                "duration": 0.0818,
                "tempo": 120.0
            },
            {
                "pitch": 31,
                "velocity": 40,
                "duration": 0.0864,
                "tempo": 120.0
            },
            {
                "pitch": 33,
                "velocity": 80,
                "duration": 0.0818,
                "tempo": 120.0
            },
            {
                "pitch": 33,
                "velocity": 40,
                "duration": 0.0864,
                "tempo": 120.0
            },
            {
                "pitch": 38,
                "velocity": 80,
                "duration": 0.3341,
                "tempo": 120.0
            },
            {
                "pitch": 38,
                "velocity": 32,
                "duration": 0.1727,
                "tempo": 120.0
            },
            {
                "pitch": 38,
                "velocity": 80,
                "duration": 0.1705,
                "tempo": 120.0
            },
            {
                "pitch": 33,
                "velocity": 80,
                "duration": 0.3341,
                "tempo": 120.0
            },
            {
                "pitch": 33,
                "velocity": 32,
                "duration": 0.1682,
                "tempo": 120.0
            },
            {
                "pitch": 33,
                "velocity": 80,
                "duration": 0.1682,
                "tempo": 120.0
            },
            {
                "pitch": 36,
                "velocity": 80,
                "duration": 0.3455,
                "tempo": 120.0
            },
            {
                "pitch": 35,
                "velocity": 80,
                "duration": 0.1659,
                "tempo": 120.0
            },
            {
                "pitch": 40,
                "velocity": 80,
                "duration": 2.3705,
                "tempo": 120.0
            },
            {
                "pitch": 36,
                "velocity": 80,
                "duration": 0.1682,
                "tempo": 120.0
            },
            {
                "pitch": 35,
                "velocity": 80,
                "duration": 0.1727,
                "tempo": 120.0
            },
            {
                "pitch": 40,
                "velocity": 80,
                "duration": 0.3409,
                "tempo": 120.0
            },
            {
                "pitch": 36,
                "velocity": 80,
                "duration": 0.1727,
                "tempo": 120.0
            },
            {
                "pitch": 31,
                "velocity": 80,
                "duration": 0.0818,
                "tempo": 120.0
            },
            {
                "pitch": 31,
                "velocity": 40,
                "duration": 0.0841,
                "tempo": 120.0
            },
            {
                "pitch": 33,
                "velocity": 80,
                "duration": 0.0818,
                "tempo": 120.0
            },
            {
                "pitch": 33,
                "velocity": 40,
                "duration": 0.0864,
                "tempo": 120.0
            },
            {
                "pitch": 38,
                "velocity": 80,
                "duration": 0.3341,
                "tempo": 120.0
            },
            {
                "pitch": 38,
                "velocity": 32,
                "duration": 0.1705,
                "tempo": 120.0
            },
            {
                "pitch": 38,
                "velocity": 80,
                "duration": 0.1705,
                "tempo": 120.0
            },
            {
                "pitch": 33,
                "velocity": 80,
                "duration": 0.3341,
                "tempo": 120.0
            },
            {
                "pitch": 33,
                "velocity": 32,
                "duration": 0.1682,
                "tempo": 120.0
            },
            {
                "pitch": 33,
                "velocity": 80,
                "duration": 0.1682,
                "tempo": 120.0
            },
            {
                "pitch": 36,
                "velocity": 80,
                "duration": 0.3432,
                "tempo": 120.0
            },
            {
                "pitch": 36,
                "velocity": 32,
                "duration": 0.1659,
                "tempo": 120.0
            },
            {
                "pitch": 36,
                "velocity": 80,
                "duration": 0.1682,
                "tempo": 120.0
            },
            {
                "pitch": 35,
                "velocity": 80,
                "duration": 0.1727,
                "tempo": 120.0
            },
            {
                "pitch": 40,
                "velocity": 80,
                "duration": 2.7114,
                "tempo": 120.0
            },
            {
                "pitch": 36,
                "velocity": 80,
                "duration": 0.1727,
                "tempo": 120.0
            },
            {
                "pitch": 31,
                "velocity": 80,
                "duration": 0.0818,
                "tempo": 120.0
            },
            {
                "pitch": 31,
                "velocity": 40,
                "duration": 0.0841,
                "tempo": 120.0
            },
            {
                "pitch": 33,
                "velocity": 80,
                "duration": 0.0818,
                "tempo": 120.0
            },
            {
                "pitch": 33,
                "velocity": 40,
                "duration": 0.0841,
                "tempo": 120.0
            },
            {
                "pitch": 38,
                "velocity": 80,
                "duration": 0.3364,
                "tempo": 120.0
            },
            {
                "pitch": 38,
                "velocity": 32,
                "duration": 0.1659,
                "tempo": 120.0
            },
            {
                "pitch": 38,
                "velocity": 80,
                "duration": 0.1659,
                "tempo": 120.0
            },
            {
                "pitch": 33,
                "velocity": 80,
                "duration": 0.3432,
                "tempo": 120.0
            },
            {
                "pitch": 33,
                "velocity": 32,
                "duration": 0.1727,
                "tempo": 120.0
            },
            {
                "pitch": 33,
                "velocity": 80,
                "duration": 0.1727,
                "tempo": 120.0
            },
            {
                "pitch": 36,
                "velocity": 80,
                "duration": 0.3364,
                "tempo": 120.0
            },
            {
                "pitch": 36,
                "velocity": 32,
                "duration": 0.1659,
                "tempo": 120.0
            },
            {
                "pitch": 35,
                "velocity": 80,
                "duration": 0.1682,
                "tempo": 120.0
            },
            {
                "pitch": 40,
                "velocity": 80,
                "duration": 2.5386,
                "tempo": 120.0
            },
            {
                "pitch": 36,
                "velocity": 80,
                "duration": 0.1727,
                "tempo": 120.0
            },
            {
                "pitch": 35,
                "velocity": 80,
                "duration": 0.1727,
                "tempo": 120.0
            },
            {
                "pitch": 31,
                "velocity": 80,
                "duration": 0.0818,
                "tempo": 120.0
            },
            {
                "pitch": 31,
                "velocity": 40,
                "duration": 0.0841,
                "tempo": 120.0
            },
            {
                "pitch": 33,
                "velocity": 80,
                "duration": 0.0841,
                "tempo": 120.0
            },
            {
                "pitch": 33,
                "velocity": 40,
                "duration": 0.0841,
                "tempo": 120.0
            },
            {
                "pitch": 38,
                "velocity": 80,
                "duration": 0.3364,
                "tempo": 120.0
            },
            {
                "pitch": 38,
                "velocity": 32,
                "duration": 0.1727,
                "tempo": 120.0
            },
            {
                "pitch": 38,
                "velocity": 80,
                "duration": 0.1705,
                "tempo": 120.0
            },
            {
                "pitch": 33,
                "velocity": 80,
                "duration": 0.3341,
                "tempo": 120.0
            },
            {
                "pitch": 33,
                "velocity": 32,
                "duration": 0.1682,
                "tempo": 120.0
            },
            {
                "pitch": 33,
                "velocity": 80,
                "duration": 0.1682,
                "tempo": 120.0
            },
            {
                "pitch": 36,
                "velocity": 80,
                "duration": 0.3432,
                "tempo": 120.0
            },
            {
                "pitch": 36,
                "velocity": 32,
                "duration": 0.1659,
                "tempo": 120.0
            },
            {
                "pitch": 35,
                "velocity": 80,
                "duration": 0.1682,
                "tempo": 120.0
            },
            {
                "pitch": 40,
                "velocity": 80,
                "duration": 2.7114,
                "tempo": 120.0
            },
            {
                "pitch": 36,
                "velocity": 80,
                "duration": 0.1705,
                "tempo": 120.0
            },
            {
                "pitch": 19,
                "velocity": 80,
                "duration": 2.7114,
                "tempo": 120.0
            },
            {
                "pitch": 19,
                "velocity": 80,
                "duration": 0.0023,
                "tempo": 120.0
            },
            {
                "pitch": 35,
                "velocity": 80,
                "duration": 0.1705,
                "tempo": 120.0
            },
            {
                "pitch": 31,
                "velocity": 80,
                "duration": 0.0818,
                "tempo": 120.0
            },
            {
                "pitch": 31,
                "velocity": 40,
                "duration": 0.0841,
                "tempo": 120.0
            },
            {
                "pitch": 33,
                "velocity": 80,
                "duration": 0.0841,
                "tempo": 120.0
            },
            {
                "pitch": 33,
                "velocity": 40,
                "duration": 0.0841,
                "tempo": 120.0
            },
            {
                "pitch": 38,
                "velocity": 80,
                "duration": 0.3364,
                "tempo": 120.0
            },
            {
                "pitch": 38,
                "velocity": 32,
                "duration": 0.1705,
                "tempo": 120.0
            },
            {
                "pitch": 38,
                "velocity": 80,
                "duration": 0.1705,
                "tempo": 120.0
            },
            {
                "pitch": 33,
                "velocity": 80,
                "duration": 0.3364,
                "tempo": 120.0
            },
            {
                "pitch": 33,
                "velocity": 32,
                "duration": 0.1659,
                "tempo": 120.0
            },
            {
                "pitch": 33,
                "velocity": 80,
                "duration": 0.1682,
                "tempo": 120.0
            },
            {
                "pitch": 36,
                "velocity": 80,
                "duration": 0.3432,
                "tempo": 120.0
            },
            {
                "pitch": 36,
                "velocity": 32,
                "duration": 0.1682,
                "tempo": 120.0
            },
            {
                "pitch": 35,
                "velocity": 80,
                "duration": 0.1682,
                "tempo": 120.0
            },
            {
                "pitch": 40,
                "velocity": 80,
                "duration": 2.7114,
                "tempo": 120.0
            },
            {
                "pitch": 36,
                "velocity": 80,
                "duration": 0.1705,
                "tempo": 120.0
            },
            {
                "pitch": 35,
                "velocity": 80,
                "duration": 0.1727,
                "tempo": 120.0
            },
            {
                "pitch": 31,
                "velocity": 80,
                "duration": 0.0841,
                "tempo": 120.0
            },
            {
                "pitch": 31,
                "velocity": 40,
                "duration": 0.0841,
                "tempo": 120.0
            },
            {
                "pitch": 33,
                "velocity": 80,
                "duration": 0.0818,
                "tempo": 120.0
            },
            {
                "pitch": 33,
                "velocity": 40,
                "duration": 0.0841,
                "tempo": 120.0
            },
            {
                "pitch": 38,
                "velocity": 80,
                "duration": 0.3341,
                "tempo": 120.0
            },
            {
                "pitch": 38,
                "velocity": 32,
                "duration": 0.1705,
                "tempo": 120.0
            },
            {
                "pitch": 38,
                "velocity": 80,
                "duration": 0.1727,
                "tempo": 120.0
            },
            {
                "pitch": 33,
                "velocity": 80,
                "duration": 0.3364,
                "tempo": 120.0
            },
            {
                "pitch": 33,
                "velocity": 32,
                "duration": 0.1659,
                "tempo": 120.0
            },
            {
                "pitch": 33,
                "velocity": 80,
                "duration": 0.1682,
                "tempo": 120.0
            },
            {
                "pitch": 36,
                "velocity": 80,
                "duration": 0.3432,
                "tempo": 120.0
            },
            {
                "pitch": 36,
                "velocity": 32,
                "duration": 0.1682,
                "tempo": 120.0
            },
            {
                "pitch": 35,
                "velocity": 80,
                "duration": 0.1682,
                "tempo": 120.0
            },
            {
                "pitch": 40,
                "velocity": 80,
                "duration": 2.7114,
                "tempo": 120.0
            },
            {
                "pitch": 19,
                "velocity": 80,
                "duration": 2.7114,
                "tempo": 120.0
            },
            {
                "pitch": 36,
                "velocity": 80,
                "duration": 0.1705,
                "tempo": 120.0
            },
            {
                "pitch": 35,
                "velocity": 80,
                "duration": 0.1727,
                "tempo": 120.0
            },
            {
                "pitch": 31,
                "velocity": 80,
                "duration": 0.0841,
                "tempo": 120.0
            },
            {
                "pitch": 31,
                "velocity": 40,
                "duration": 0.0841,
                "tempo": 120.0
            },
            {
                "pitch": 33,
                "velocity": 80,
                "duration": 0.0818,
                "tempo": 120.0
            },
            {
                "pitch": 33,
                "velocity": 40,
                "duration": 0.0864,
                "tempo": 120.0
            },
            {
                "pitch": 38,
                "velocity": 80,
                "duration": 0.3318,
                "tempo": 120.0
            },
            {
                "pitch": 38,
                "velocity": 80,
                "duration": 0.0864,
                "tempo": 120.0
            },
            {
                "pitch": 38,
                "velocity": 40,
                "duration": 0.0864,
                "tempo": 120.0
            },
            {
                "pitch": 33,
                "velocity": 80,
                "duration": 0.3386,
                "tempo": 120.0
            },
            {
                "pitch": 38,
                "velocity": 80,
                "duration": 0.0818,
                "tempo": 120.0
            },
            {
                "pitch": 38,
                "velocity": 40,
                "duration": 0.0864,
                "tempo": 120.0
            },
            {
                "pitch": 36,
                "velocity": 80,
                "duration": 0.0841,
                "tempo": 120.0
            },
            {
                "pitch": 36,
                "velocity": 40,
                "duration": 0.0886,
                "tempo": 120.0
            },
            {
                "pitch": 35,
                "velocity": 80,
                "duration": 0.0841,
                "tempo": 120.0
            },
            {
                "pitch": 35,
                "velocity": 40,
                "duration": 0.0864,
                "tempo": 120.0
            },
            {
                "pitch": 38,
                "velocity": 80,
                "duration": 0.3341,
                "tempo": 120.0
            },
            {
                "pitch": 38,
                "velocity": 80,
                "duration": 0.0818,
                "tempo": 120.0
            },
            {
                "pitch": 38,
                "velocity": 40,
                "duration": 0.0864,
                "tempo": 120.0
            },
            {
                "pitch": 33,
                "velocity": 80,
                "duration": 0.3386,
                "tempo": 120.0
            },
            {
                "pitch": 31,
                "velocity": 80,
                "duration": 0.3386,
                "tempo": 120.0
            },
            {
                "pitch": 33,
                "velocity": 80,
                "duration": 0.1682,
                "tempo": 120.0
            },
            {
                "pitch": 38,
                "velocity": 80,
                "duration": 0.3341,
                "tempo": 120.0
            },
            {
                "pitch": 38,
                "velocity": 80,
                "duration": 0.0841,
                "tempo": 120.0
            },
            {
                "pitch": 38,
                "velocity": 40,
                "duration": 0.0864,
                "tempo": 120.0
            },
            {
                "pitch": 33,
                "velocity": 80,
                "duration": 0.3409,
                "tempo": 120.0
            },
            {
                "pitch": 38,
                "velocity": 80,
                "duration": 0.0818,
                "tempo": 120.0
            },
            {
                "pitch": 38,
                "velocity": 40,
                "duration": 0.0864,
                "tempo": 120.0
            },
            {
                "pitch": 36,
                "velocity": 80,
                "duration": 0.0841,
                "tempo": 120.0
            },
            {
                "pitch": 36,
                "velocity": 40,
                "duration": 0.0864,
                "tempo": 120.0
            },
            {
                "pitch": 35,
                "velocity": 80,
                "duration": 0.0841,
                "tempo": 120.0
            },
            {
                "pitch": 35,
                "velocity": 40,
                "duration": 0.0864,
                "tempo": 120.0
            },
            {
                "pitch": 38,
                "velocity": 80,
                "duration": 0.0818,
                "tempo": 120.0
            },
            {
                "pitch": 38,
                "velocity": 40,
                "duration": 0.0841,
                "tempo": 120.0
            },
            {
                "pitch": 38,
                "velocity": 80,
                "duration": 0.0818,
                "tempo": 120.0
            },
            {
                "pitch": 38,
                "velocity": 40,
                "duration": 0.0864,
                "tempo": 120.0
            },
            {
                "pitch": 33,
                "velocity": 80,
                "duration": 0.0818,
                "tempo": 120.0
            },
            {
                "pitch": 33,
                "velocity": 40,
                "duration": 0.0864,
                "tempo": 120.0
            },
            {
                "pitch": 38,
                "velocity": 80,
                "duration": 0.1659,
                "tempo": 120.0
            },
            {
                "pitch": 38,
                "velocity": 40,
                "duration": 0.1727,
                "tempo": 120.0
            },
            {
                "pitch": 38,
                "velocity": 80,
                "duration": 0.3341,
                "tempo": 120.0
            },
            {
                "pitch": 38,
                "velocity": 32,
                "duration": 0.1727,
                "tempo": 120.0
            },
            {
                "pitch": 38,
                "velocity": 80,
                "duration": 0.1705,
                "tempo": 120.0
            },
            {
                "pitch": 33,
                "velocity": 80,
                "duration": 0.3364,
                "tempo": 120.0
            },
            {
                "pitch": 33,
                "velocity": 32,
                "duration": 0.1682,
                "tempo": 120.0
            },
            {
                "pitch": 33,
                "velocity": 80,
                "duration": 0.1682,
                "tempo": 120.0
            },
            {
                "pitch": 36,
                "velocity": 80,
                "duration": 0.3455,
                "tempo": 120.0
            },
            {
                "pitch": 36,
                "velocity": 32,
                "duration": 0.1659,
                "tempo": 120.0
            },
            {
                "pitch": 36,
                "velocity": 80,
                "duration": 0.1682,
                "tempo": 120.0
            },
            {
                "pitch": 35,
                "velocity": 80,
                "duration": 0.1705,
                "tempo": 120.0
            },
            {
                "pitch": 40,
                "velocity": 80,
                "duration": 8.3023,
                "tempo": 120.0
            },
            {
                "pitch": 36,
                "velocity": 80,
                "duration": 0.175,
                "tempo": 120.0
            },
            {
                "pitch": 31,
                "velocity": 80,
                "duration": 0.3341,
                "tempo": 120.0
            },
            {
                "pitch": 38,
                "velocity": 80,
                "duration": 0.3318,
                "tempo": 120.0
            },
            {
                "pitch": 38,
                "velocity": 32,
                "duration": 0.1705,
                "tempo": 120.0
            },
            {
                "pitch": 38,
                "velocity": 80,
                "duration": 0.1705,
                "tempo": 120.0
            },
            {
                "pitch": 33,
                "velocity": 80,
                "duration": 0.3364,
                "tempo": 120.0
            },
            {
                "pitch": 33,
                "velocity": 32,
                "duration": 0.1659,
                "tempo": 120.0
            },
            {
                "pitch": 33,
                "velocity": 80,
                "duration": 0.1682,
                "tempo": 120.0
            },
            {
                "pitch": 36,
                "velocity": 80,
                "duration": 0.3432,
                "tempo": 120.0
            },
            {
                "pitch": 35,
                "velocity": 80,
                "duration": 0.1682,
                "tempo": 120.0
            },
            {
                "pitch": 40,
                "velocity": 80,
                "duration": 2.3727,
                "tempo": 120.0
            },
            {
                "pitch": 36,
                "velocity": 80,
                "duration": 0.1682,
                "tempo": 120.0
            },
            {
                "pitch": 35,
                "velocity": 80,
                "duration": 0.1705,
                "tempo": 120.0
            },
            {
                "pitch": 40,
                "velocity": 80,
                "duration": 0.3386,
                "tempo": 120.0
            },
            {
                "pitch": 36,
                "velocity": 80,
                "duration": 0.175,
                "tempo": 120.0
            },
            {
                "pitch": 31,
                "velocity": 80,
                "duration": 0.0818,
                "tempo": 120.0
            },
            {
                "pitch": 31,
                "velocity": 40,
                "duration": 0.0841,
                "tempo": 120.0
            },
            {
                "pitch": 33,
                "velocity": 80,
                "duration": 0.0841,
                "tempo": 120.0
            },
            {
                "pitch": 33,
                "velocity": 40,
                "duration": 0.0841,
                "tempo": 120.0
            },
            {
                "pitch": 38,
                "velocity": 80,
                "duration": 0.3341,
                "tempo": 120.0
            },
            {
                "pitch": 38,
                "velocity": 32,
                "duration": 0.1727,
                "tempo": 120.0
            },
            {
                "pitch": 38,
                "velocity": 80,
                "duration": 0.1727,
                "tempo": 120.0
            },
            {
                "pitch": 33,
                "velocity": 80,
                "duration": 0.3364,
                "tempo": 120.0
            },
            {
                "pitch": 33,
                "velocity": 32,
                "duration": 0.1659,
                "tempo": 120.0
            },
            {
                "pitch": 33,
                "velocity": 80,
                "duration": 0.1682,
                "tempo": 120.0
            },
            {
                "pitch": 36,
                "velocity": 80,
                "duration": 0.3432,
                "tempo": 120.0
            },
            {
                "pitch": 35,
                "velocity": 80,
                "duration": 0.1682,
                "tempo": 120.0
            },
            {
                "pitch": 40,
                "velocity": 80,
                "duration": 2.3727,
                "tempo": 120.0
            },
            {
                "pitch": 36,
                "velocity": 80,
                "duration": 0.1682,
                "tempo": 120.0
            },
            {
                "pitch": 35,
                "velocity": 80,
                "duration": 0.1705,
                "tempo": 120.0
            },
            {
                "pitch": 40,
                "velocity": 80,
                "duration": 0.3386,
                "tempo": 120.0
            },
            {
                "pitch": 36,
                "velocity": 80,
                "duration": 0.1727,
                "tempo": 120.0
            },
            {
                "pitch": 31,
                "velocity": 80,
                "duration": 0.0818,
                "tempo": 120.0
            },
            {
                "pitch": 31,
                "velocity": 40,
                "duration": 0.0841,
                "tempo": 120.0
            },
            {
                "pitch": 33,
                "velocity": 80,
                "duration": 0.0818,
                "tempo": 120.0
            },
            {
                "pitch": 33,
                "velocity": 40,
                "duration": 0.0841,
                "tempo": 120.0
            },
            {
                "pitch": 38,
                "velocity": 80,
                "duration": 0.3432,
                "tempo": 120.0
            },
            {
                "pitch": 38,
                "velocity": 32,
                "duration": 0.1682,
                "tempo": 120.0
            },
            {
                "pitch": 38,
                "velocity": 80,
                "duration": 0.1682,
                "tempo": 120.0
            },
            {
                "pitch": 33,
                "velocity": 80,
                "duration": 0.3341,
                "tempo": 120.0
            },
            {
                "pitch": 33,
                "velocity": 32,
                "duration": 0.1682,
                "tempo": 120.0
            },
            {
                "pitch": 33,
                "velocity": 80,
                "duration": 0.1682,
                "tempo": 120.0
            },
            {
                "pitch": 36,
                "velocity": 80,
                "duration": 0.3455,
                "tempo": 120.0
            },
            {
                "pitch": 36,
                "velocity": 32,
                "duration": 0.1682,
                "tempo": 120.0
            },
            {
                "pitch": 36,
                "velocity": 80,
                "duration": 0.1659,
                "tempo": 120.0
            },
            {
                "pitch": 35,
                "velocity": 80,
                "duration": 0.1705,
                "tempo": 120.0
            },
            {
                "pitch": 40,
                "velocity": 80,
                "duration": 2.7114,
                "tempo": 120.0
            },
            {
                "pitch": 36,
                "velocity": 80,
                "duration": 0.1727,
                "tempo": 120.0
            },
            {
                "pitch": 31,
                "velocity": 80,
                "duration": 0.0841,
                "tempo": 120.0
            },
            {
                "pitch": 31,
                "velocity": 40,
                "duration": 0.0841,
                "tempo": 120.0
            },
            {
                "pitch": 33,
                "velocity": 80,
                "duration": 0.0818,
                "tempo": 120.0
            },
            {
                "pitch": 33,
                "velocity": 40,
                "duration": 0.0841,
                "tempo": 120.0
            },
            {
                "pitch": 38,
                "velocity": 80,
                "duration": 0.3432,
                "tempo": 120.0
            },
            {
                "pitch": 38,
                "velocity": 32,
                "duration": 0.1318,
                "tempo": 120.0
            }
        ]
    }
}