{
    "track_id": "11 Sophistication #3",
    "mood": "happy",
    "instruments": {
        "Electric Piano 1": [
            {
                "pitch": 67,
                "velocity": 32,
                "duration": 0.4795,
                "tempo": 120.0
            },
            {
                "pitch": 55,
                "velocity": 32,
                "duration": 0.4682,
                "tempo": 120.0
            },
            {
                "pitch": 62,
                "velocity": 32,
                "duration": 0.4886,
                "tempo": 120.0
            },
            {
                "pitch": 55,
                "velocity": 32,
                "duration": 0.4932,
                "tempo": 120.0
            },
            {
                "pitch": 67,
                "velocity": 32,
                "duration": 0.4818,
                "tempo": 120.0
            },
            {
                "pitch": 55,
                "velocity": 32,
                "duration": 0.2295,
                "tempo": 120.0
            },
            {
                "pitch": 62,
                "velocity": 32,
                "duration": 0.4864,
                "tempo": 120.0
            },
            {
                "pitch": 55,
                "velocity": 32,
                "duration": 0.2364,
                "tempo": 120.0
            },
            {
                "pitch": 62,
                "velocity": 32,
                "duration": 0.2568,
                "tempo": 120.0
            },
            {
                "pitch": 67,
                "velocity": 32,
                "duration": 0.2341,
                "tempo": 120.0
            },
            {
                "pitch": 55,
                "velocity": 32,
                "duration": 0.4795,
                "tempo": 120.0
            },
            {
                "pitch": 60,
                "velocity": 32,
                "duration": 0.4864,
                "tempo": 120.0
            },
            {
                "pitch": 55,
                "velocity": 32,
                "duration": 0.475,
                "tempo": 120.0
            },
            {
                "pitch": 67,
                "velocity": 32,
                "duration": 0.4909,
                "tempo": 120.0
            },
            {
                "pitch": 55,
                "velocity": 32,
                "duration": 0.2568,
                "tempo": 120.0
            },
            {
                "pitch": 60,
                "velocity": 32,
                "duration": 0.4682,
                "tempo": 120.0
            },
            {
                "pitch": 55,
                "velocity": 32,
                "duration": 0.2386,
                "tempo": 120.0
            },
            {
                "pitch": 60,
                "velocity": 32,
                "duration": 0.225,
                "tempo": 120.0
            },
            {
                "pitch": 67,
                "velocity": 32,
                "duration": 0.2568,
                "tempo": 120.0
            },
            {
                "pitch": 53,
                "velocity": 32,
                "duration": 0.4909,
                "tempo": 120.0
            },
            {
                "pitch": 60,
                "velocity": 32,
                "duration": 0.4909,
                "tempo": 120.0
            },
            {
                "pitch": 53,
                "velocity": 32,
                "duration": 0.4795,
                "tempo": 120.0
            },
            {
                "pitch": 67,
                "velocity": 32,
                "duration": 0.4818,
                "tempo": 120.0
            },
            {
                "pitch": 53,
                "velocity": 32,
                "duration": 0.2364,
                "tempo": 120.0
            },
            {
                "pitch": 60,
                "velocity": 32,
                "duration": 0.4977,
                "tempo": 120.0
            },
            {
                "pitch": 53,
                "velocity": 32,
                "duration": 0.2318,
                "tempo": 120.0
            },
            {
                "pitch": 60,
                "velocity": 32,
                "duration": 0.25,
                "tempo": 120.0
            },
            {
                "pitch": 67,
                "velocity": 32,
                "duration": 0.2341,
                "tempo": 120.0
            },
            {
                "pitch": 53,
                "velocity": 32,
                "duration": 0.4864,
                "tempo": 120.0
            },
            {
                "pitch": 60,
                "velocity": 32,
                "duration": 0.475,
                "tempo": 120.0
            },
            {
                "pitch": 53,
                "velocity": 32,
                "duration": 0.4932,
                "tempo": 120.0
            },
            {
                "pitch": 67,
                "velocity": 32,
                "duration": 0.4909,
                "tempo": 120.0
            },
            {
                "pitch": 53,
                "velocity": 32,
                "duration": 0.2364,
                "tempo": 120.0
            },
            {
                "pitch": 60,
                "velocity": 32,
                "duration": 0.4773,
                "tempo": 120.0
            },
            {
                "pitch": 67,
                "velocity": 32,
                "duration": 0.4886,
                "tempo": 120.0
            },
            {
                "pitch": 55,
                "velocity": 32,
                "duration": 0.4909,
                "tempo": 120.0
            },
            {
                "pitch": 62,
                "velocity": 32,
                "duration": 0.4795,
                "tempo": 120.0
            },
            {
                "pitch": 55,
                "velocity": 32,
                "duration": 0.4818,
                "tempo": 120.0
            },
            {
                "pitch": 67,
                "velocity": 32,
                "duration": 0.475,
                "tempo": 120.0
            },
            {
                "pitch": 55,
                "velocity": 32,
                "duration": 0.2568,
                "tempo": 120.0
            },
            {
                "pitch": 62,
                "velocity": 32,
                "duration": 0.4886,
                "tempo": 120.0
            },
            {
                "pitch": 55,
                "velocity": 32,
                "duration": 0.2341,
                "tempo": 120.0
            },
            {
                "pitch": 62,
                "velocity": 32,
                "duration": 0.2364,
                "tempo": 120.0
            },
            {
                "pitch": 67,
                "velocity": 32,
                "duration": 0.2455,
                "tempo": 120.0
            },
            {
                "pitch": 55,
                "velocity": 32,
                "duration": 0.475,
                "tempo": 120.0
            },
            {
                "pitch": 60,
                "velocity": 32,
                "duration": 0.4864,
                "tempo": 120.0
            },
            {
                "pitch": 55,
                "velocity": 32,
                "duration": 0.4886,
                "tempo": 120.0
            },
            {
                "pitch": 67,
                "velocity": 32,
                "duration": 0.4864,
                "tempo": 120.0
            },
            {
                "pitch": 55,
                "velocity": 32,
                "duration": 0.2295,
                "tempo": 120.0
            },
            {
                "pitch": 60,
                "velocity": 32,
                "duration": 0.4886,
                "tempo": 120.0
            },
            {
                "pitch": 55,
                "velocity": 32,
                "duration": 0.2341,
                "tempo": 120.0
            },
            {
                "pitch": 60,
                "velocity": 32,
                "duration": 0.2523,
                "tempo": 120.0
            },
            {
                "pitch": 67,
                "velocity": 32,
                "duration": 0.2386,
                "tempo": 120.0
            },
            {
                "pitch": 53,
                "velocity": 32,
                "duration": 0.4818,
                "tempo": 120.0
            },
            {
                "pitch": 60,
                "velocity": 32,
                "duration": 0.4795,
                "tempo": 120.0
            },
            {
                "pitch": 53,
                "velocity": 32,
                "duration": 0.4727,
                "tempo": 120.0
            },
            {
                "pitch": 67,
                "velocity": 32,
                "duration": 0.4909,
                "tempo": 120.0
            },
            {
                "pitch": 53,
                "velocity": 32,
                "duration": 0.2523,
                "tempo": 120.0
            },
            {
                "pitch": 60,
                "velocity": 32,
                "duration": 0.4727,
                "tempo": 120.0
            },
            {
                "pitch": 53,
                "velocity": 32,
                "duration": 0.2455,
                "tempo": 120.0
            },
            {
                "pitch": 60,
                "velocity": 32,
                "duration": 0.2295,
                "tempo": 120.0
            },
            {
                "pitch": 67,
                "velocity": 32,
                "duration": 0.2568,
                "tempo": 120.0
            },
            {
                "pitch": 53,
                "velocity": 32,
                "duration": 0.4864,
                "tempo": 120.0
            },
            {
                "pitch": 60,
                "velocity": 32,
                "duration": 0.4909,
                "tempo": 120.0
            },
            {
                "pitch": 53,
                "velocity": 32,
                "duration": 0.4795,
                "tempo": 120.0
            },
            {
                "pitch": 67,
                "velocity": 32,
                "duration": 0.4795,
                "tempo": 120.0
            },
            {
                "pitch": 53,
                "velocity": 32,
                "duration": 0.2386,
                "tempo": 120.0
            },
            {
                "pitch": 60,
                "velocity": 32,
                "duration": 0.4886,
                "tempo": 120.0
            },
            {
                "pitch": 67,
                "velocity": 32,
                "duration": 0.4864,
                "tempo": 120.0
            },
            {
                "pitch": 55,
                "velocity": 32,
                "duration": 0.4841,
                "tempo": 120.0
            },
            {
                "pitch": 62,
                "velocity": 32,
                "duration": 0.4659,
                "tempo": 120.0
            },
            {
                "pitch": 55,
                "velocity": 32,
                "duration": 0.4886,
                "tempo": 120.0
            },
            {
                "pitch": 67,
                "velocity": 32,
                "duration": 0.4909,
                "tempo": 120.0
            },
            {
                "pitch": 55,
                "velocity": 32,
                "duration": 0.2341,
                "tempo": 120.0
            },
            {
                "pitch": 62,
                "velocity": 32,
                "duration": 0.4773,
                "tempo": 120.0
            },
            {
                "pitch": 55,
                "velocity": 32,
                "duration": 0.25,
                "tempo": 120.0
            },
            {
                "pitch": 62,
                "velocity": 32,
                "duration": 0.2364,
                "tempo": 120.0
            },
            {
                "pitch": 67,
                "velocity": 32,
                "duration": 0.2386,
                "tempo": 120.0
            },
            {
                "pitch": 55,
                "velocity": 32,
                "duration": 0.4886,
                "tempo": 120.0
            },
            {
                "pitch": 60,
                "velocity": 32,
                "duration": 0.4795,
                "tempo": 120.0
            },
            {
                "pitch": 55,
                "velocity": 32,
                "duration": 0.4818,
                "tempo": 120.0
            },
            {
                "pitch": 67,
                "velocity": 32,
                "duration": 0.475,
                "tempo": 120.0
            },
            {
                "pitch": 55,
                "velocity": 32,
                "duration": 0.2523,
                "tempo": 120.0
            },
            {
                "pitch": 60,
                "velocity": 32,
                "duration": 0.4955,
                "tempo": 120.0
            },
            {
                "pitch": 55,
                "velocity": 32,
                "duration": 0.2318,
                "tempo": 120.0
            },
            {
                "pitch": 60,
                "velocity": 32,
                "duration": 0.2341,
                "tempo": 120.0
            },
            {
                "pitch": 67,
                "velocity": 32,
                "duration": 0.2455,
                "tempo": 120.0
            },
            {
                "pitch": 53,
                "velocity": 32,
                "duration": 0.4727,
                "tempo": 120.0
            },
            {
                "pitch": 60,
                "velocity": 32,
                "duration": 0.4909,
                "tempo": 120.0
            },
            {
                "pitch": 53,
                "velocity": 32,
                "duration": 0.4864,
                "tempo": 120.0
            },
            {
                "pitch": 67,
                "velocity": 32,
                "duration": 0.4818,
                "tempo": 120.0
            },
            {
                "pitch": 53,
                "velocity": 32,
                "duration": 0.2295,
                "tempo": 120.0
            },
            {
                "pitch": 60,
                "velocity": 32,
                "duration": 0.4886,
                "tempo": 120.0
            },
            {
                "pitch": 53,
                "velocity": 32,
                "duration": 0.2364,
                "tempo": 120.0
            },
            {
                "pitch": 60,
                "velocity": 32,
                "duration": 0.2545,
                "tempo": 120.0
            },
            {
                "pitch": 67,
                "velocity": 32,
                "duration": 0.2364,
                "tempo": 120.0
            },
            {
                "pitch": 53,
                "velocity": 32,
                "duration": 0.4864,
                "tempo": 120.0
            },
            {
                "pitch": 60,
                "velocity": 32,
                "duration": 0.4864,
                "tempo": 120.0
            },
            {
                "pitch": 53,
                "velocity": 32,
                "duration": 0.4682,
                "tempo": 120.0
            },
            {
                "pitch": 67,
                "velocity": 32,
                "duration": 0.4909,
                "tempo": 120.0
            },
            {
                "pitch": 53,
                "velocity": 32,
                "duration": 0.2545,
                "tempo": 120.0
            }
        ],
        "Acoustic Grand Piano": [
            {
                "pitch": 89,
                "velocity": 64,
                "duration": 0.0682,
                "tempo": 120.0
            },
            {
                "pitch": 88,
                "velocity": 64,
                "duration": 0.0841,
                "tempo": 120.0
            },
            {
                "pitch": 89,
                "velocity": 64,
                "duration": 0.0841,
                "tempo": 120.0
            },
            {
                "pitch": 88,
                "velocity": 64,
                "duration": 0.0841,
                "tempo": 120.0
            },
            {
                "pitch": 86,
                "velocity": 64,
                "duration": 0.0864,
                "tempo": 120.0
            },
            {
                "pitch": 88,
                "velocity": 64,
                "duration": 0.0659,
                "tempo": 120.0
            },
            {
                "pitch": 86,
                "velocity": 64,
                "duration": 0.0841,
                "tempo": 120.0
            },
            {
                "pitch": 84,
                "velocity": 64,
                "duration": 0.0886,
                "tempo": 120.0
            },
            {
                "pitch": 86,
                "velocity": 64,
                "duration": 0.0818,
                "tempo": 120.0
            },
            {
                "pitch": 84,
                "velocity": 64,
                "duration": 0.0841,
                "tempo": 120.0
            },
            {
                "pitch": 83,
                "velocity": 64,
                "duration": 0.0705,
                "tempo": 120.0
            },
            {
                "pitch": 84,
                "velocity": 64,
                "duration": 0.0773,
                "tempo": 120.0
            },
            {
                "pitch": 83,
                "velocity": 64,
                "duration": 0.0818,
                "tempo": 120.0
            },
            {
                "pitch": 81,
                "velocity": 64,
                "duration": 0.0818,
                "tempo": 120.0
            },
            {
                "pitch": 83,
                "velocity": 64,
                "duration": 0.0773,
                "tempo": 120.0
            },
            {
                "pitch": 81,
                "velocity": 64,
                "duration": 0.0636,
                "tempo": 120.0
            },
            {
                "pitch": 79,
                "velocity": 64,
                "duration": 0.0795,
                "tempo": 120.0
            },
            {
                "pitch": 81,
                "velocity": 64,
                "duration": 0.0818,
                "tempo": 120.0
            },
            {
                "pitch": 79,
                "velocity": 64,
                "duration": 0.0864,
                "tempo": 120.0
            },
            {
                "pitch": 77,
                "velocity": 64,
                "duration": 0.0886,
                "tempo": 120.0
            },
            {
                "pitch": 79,
                "velocity": 64,
                "duration": 0.0659,
                "tempo": 120.0
            },
            {
                "pitch": 77,
                "velocity": 64,
                "duration": 0.0841,
                "tempo": 120.0
            },
            {
                "pitch": 76,
                "velocity": 64,
                "duration": 0.0886,
                "tempo": 120.0
            },
            {
                "pitch": 77,
                "velocity": 64,
                "duration": 0.0818,
                "tempo": 120.0
            },
            {
                "pitch": 76,
                "velocity": 64,
                "duration": 0.0818,
                "tempo": 120.0
            },
            {
                "pitch": 74,
                "velocity": 64,
                "duration": 0.0705,
                "tempo": 120.0
            },
            {
                "pitch": 76,
                "velocity": 64,
                "duration": 0.0795,
                "tempo": 120.0
            },
            {
                "pitch": 74,
                "velocity": 64,
                "duration": 0.0841,
                "tempo": 120.0
            },
            {
                "pitch": 72,
                "velocity": 64,
                "duration": 0.0841,
                "tempo": 120.0
            },
            {
                "pitch": 74,
                "velocity": 64,
                "duration": 0.0818,
                "tempo": 120.0
            },
            {
                "pitch": 72,
                "velocity": 64,
                "duration": 0.0682,
                "tempo": 120.0
            },
            {
                "pitch": 71,
                "velocity": 64,
                "duration": 0.0864,
                "tempo": 120.0
            },
            {
                "pitch": 72,
                "velocity": 64,
                "duration": 0.0841,
                "tempo": 120.0
            },
            {
                "pitch": 71,
                "velocity": 64,
                "duration": 0.0841,
                "tempo": 120.0
            },
            {
                "pitch": 69,
                "velocity": 64,
                "duration": 0.0886,
                "tempo": 120.0
            },
            {
                "pitch": 71,
                "velocity": 64,
                "duration": 0.0636,
                "tempo": 120.0
            },
            {
                "pitch": 69,
                "velocity": 64,
                "duration": 0.0841,
                "tempo": 120.0
            },
            {
                "pitch": 67,
                "velocity": 64,
                "duration": 0.0864,
                "tempo": 120.0
            },
            {
                "pitch": 69,
                "velocity": 64,
                "duration": 0.0795,
                "tempo": 120.0
            },
            {
                "pitch": 67,
                "velocity": 64,
                "duration": 0.0841,
                "tempo": 120.0
            },
            {
                "pitch": 65,
                "velocity": 64,
                "duration": 0.0682,
                "tempo": 120.0
            },
            {
                "pitch": 67,
                "velocity": 64,
                "duration": 0.0818,
                "tempo": 120.0
            },
            {
                "pitch": 65,
                "velocity": 64,
                "duration": 0.0818,
                "tempo": 120.0
            },
            {
                "pitch": 64,
                "velocity": 64,
                "duration": 0.0841,
                "tempo": 120.0
            },
            {
                "pitch": 65,
                "velocity": 64,
                "duration": 0.0795,
                "tempo": 120.0
            },
            {
                "pitch": 64,
                "velocity": 64,
                "duration": 0.0659,
                "tempo": 120.0
            },
            {
                "pitch": 62,
                "velocity": 64,
                "duration": 0.0841,
                "tempo": 120.0
            },
            {
                "pitch": 74,
                "velocity": 80,
                "duration": 0.1159,
                "tempo": 120.0
            },
            {
                "pitch": 62,
                "velocity": 80,
                "duration": 0.1341,
                "tempo": 120.0
            },
            {
                "pitch": 62,
                "velocity": 80,
                "duration": 0.1159,
                "tempo": 120.0
            },
            {
                "pitch": 74,
                "velocity": 80,
                "duration": 0.1182,
                "tempo": 120.0
            },
            {
                "pitch": 62,
                "velocity": 80,
                "duration": 0.1182,
                "tempo": 120.0
            },
            {
                "pitch": 62,
                "velocity": 80,
                "duration": 0.1205,
                "tempo": 120.0
            },
            {
                "pitch": 74,
                "velocity": 80,
                "duration": 0.1341,
                "tempo": 120.0
            },
            {
                "pitch": 62,
                "velocity": 80,
                "duration": 0.1205,
                "tempo": 120.0
            },
            {
                "pitch": 62,
                "velocity": 80,
                "duration": 0.1159,
                "tempo": 120.0
            },
            {
                "pitch": 74,
                "velocity": 80,
                "duration": 0.1182,
                "tempo": 120.0
            },
            {
                "pitch": 62,
                "velocity": 80,
                "duration": 0.1159,
                "tempo": 120.0
            },
            {
                "pitch": 62,
                "velocity": 80,
                "duration": 0.1341,
                "tempo": 120.0
            },
            {
                "pitch": 74,
                "velocity": 80,
                "duration": 0.1182,
                "tempo": 120.0
            },
            {
                "pitch": 62,
                "velocity": 80,
                "duration": 0.1182,
                "tempo": 120.0
            },
            {
                "pitch": 74,
                "velocity": 80,
                "duration": 0.1182,
                "tempo": 120.0
            },
            {
                "pitch": 62,
                "velocity": 80,
                "duration": 0.1159,
                "tempo": 120.0
            },
            {
                "pitch": 74,
                "velocity": 80,
                "duration": 0.1318,
                "tempo": 120.0
            },
            {
                "pitch": 62,
                "velocity": 80,
                "duration": 0.1159,
                "tempo": 120.0
            },
            {
                "pitch": 62,
                "velocity": 80,
                "duration": 0.1136,
                "tempo": 120.0
            },
            {
                "pitch": 74,
                "velocity": 80,
                "duration": 0.1159,
                "tempo": 120.0
            },
            {
                "pitch": 62,
                "velocity": 80,
                "duration": 0.1182,
                "tempo": 120.0
            },
            {
                "pitch": 62,
                "velocity": 80,
                "duration": 0.1386,
                "tempo": 120.0
            },
            {
                "pitch": 74,
                "velocity": 80,
                "duration": 0.1182,
                "tempo": 120.0
            },
            {
                "pitch": 62,
                "velocity": 80,
                "duration": 0.1205,
                "tempo": 120.0
            },
            {
                "pitch": 62,
                "velocity": 80,
                "duration": 0.1159,
                "tempo": 120.0
            },
            {
                "pitch": 74,
                "velocity": 80,
                "duration": 0.1182,
                "tempo": 120.0
            },
            {
                "pitch": 62,
                "velocity": 80,
                "duration": 0.1318,
                "tempo": 120.0
            },
            {
                "pitch": 62,
                "velocity": 80,
                "duration": 0.1182,
                "tempo": 120.0
            },
            {
                "pitch": 74,
                "velocity": 80,
                "duration": 0.1159,
                "tempo": 120.0
            },
            {
                "pitch": 62,
                "velocity": 80,
                "duration": 0.1182,
                "tempo": 120.0
            },
            {
                "pitch": 74,
                "velocity": 80,
                "duration": 0.1159,
                "tempo": 120.0
            },
            {
                "pitch": 62,
                "velocity": 80,
                "duration": 0.1341,
                "tempo": 120.0
            },
            {
                "pitch": 86,
                "velocity": 80,
                "duration": 0.2386,
                "tempo": 120.0
            },
            {
                "pitch": 86,
                "velocity": 80,
                "duration": 0.2386,
                "tempo": 120.0
            },
            {
                "pitch": 74,
                "velocity": 80,
                "duration": 0.2477,
                "tempo": 120.0
            },
            {
                "pitch": 74,
                "velocity": 80,
                "duration": 0.2295,
                "tempo": 120.0
            },
            {
                "pitch": 86,
                "velocity": 80,
                "duration": 0.25,
                "tempo": 120.0
            },
            {
                "pitch": 86,
                "velocity": 80,
                "duration": 0.2341,
                "tempo": 120.0
            },
            {
                "pitch": 74,
                "velocity": 80,
                "duration": 0.2364,
                "tempo": 120.0
            },
            {
                "pitch": 74,
                "velocity": 80,
                "duration": 0.25,
                "tempo": 120.0
            },
            {
                "pitch": 74,
                "velocity": 80,
                "duration": 0.1182,
                "tempo": 120.0
            },
            {
                "pitch": 79,
                "velocity": 80,
                "duration": 0.1205,
                "tempo": 120.0
            },
            {
                "pitch": 81,
                "velocity": 80,
                "duration": 0.1182,
                "tempo": 120.0
            },
            {
                "pitch": 83,
                "velocity": 80,
                "duration": 0.1364,
                "tempo": 120.0
            },
            {
                "pitch": 81,
                "velocity": 80,
                "duration": 0.1159,
                "tempo": 120.0
            },
            {
                "pitch": 79,
                "velocity": 80,
                "duration": 0.1182,
                "tempo": 120.0
            },
            {
                "pitch": 74,
                "velocity": 80,
                "duration": 0.1182,
                "tempo": 120.0
            },
            {
                "pitch": 79,
                "velocity": 80,
                "duration": 0.1182,
                "tempo": 120.0
            },
            {
                "pitch": 81,
                "velocity": 80,
                "duration": 0.1295,
                "tempo": 120.0
            },
            {
                "pitch": 83,
                "velocity": 80,
                "duration": 0.1159,
                "tempo": 120.0
            },
            {
                "pitch": 79,
                "velocity": 80,
                "duration": 0.1136,
                "tempo": 120.0
            },
            {
                "pitch": 81,
                "velocity": 80,
                "duration": 0.1136,
                "tempo": 120.0
            },
            {
                "pitch": 83,
                "velocity": 80,
                "duration": 0.1159,
                "tempo": 120.0
            },
            {
                "pitch": 86,
                "velocity": 80,
                "duration": 0.1341,
                "tempo": 120.0
            },
            {
                "pitch": 84,
                "velocity": 80,
                "duration": 0.1159,
                "tempo": 120.0
            },
            {
                "pitch": 83,
                "velocity": 80,
                "duration": 0.1159,
                "tempo": 120.0
            },
            {
                "pitch": 81,
                "velocity": 80,
                "duration": 0.1205,
                "tempo": 120.0
            },
            {
                "pitch": 79,
                "velocity": 80,
                "duration": 0.1205,
                "tempo": 120.0
            },
            {
                "pitch": 81,
                "velocity": 80,
                "duration": 0.1364,
                "tempo": 120.0
            },
            {
                "pitch": 79,
                "velocity": 80,
                "duration": 0.1205,
                "tempo": 120.0
            },
            {
                "pitch": 81,
                "velocity": 80,
                "duration": 0.1159,
                "tempo": 120.0
            },
            {
                "pitch": 79,
                "velocity": 80,
                "duration": 0.1159,
                "tempo": 120.0
            },
            {
                "pitch": 81,
                "velocity": 80,
                "duration": 0.1136,
                "tempo": 120.0
            },
            {
                "pitch": 83,
                "velocity": 80,
                "duration": 0.1318,
                "tempo": 120.0
            },
            {
                "pitch": 81,
                "velocity": 80,
                "duration": 0.1182,
                "tempo": 120.0
            },
            {
                "pitch": 79,
                "velocity": 80,
                "duration": 0.1182,
                "tempo": 120.0
            },
            {
                "pitch": 74,
                "velocity": 80,
                "duration": 0.1182,
                "tempo": 120.0
            },
            {
                "pitch": 72,
                "velocity": 80,
                "duration": 0.1159,
                "tempo": 120.0
            },
            {
                "pitch": 74,
                "velocity": 80,
                "duration": 0.1295,
                "tempo": 120.0
            },
            {
                "pitch": 72,
                "velocity": 80,
                "duration": 0.1159,
                "tempo": 120.0
            },
            {
                "pitch": 71,
                "velocity": 80,
                "duration": 0.1159,
                "tempo": 120.0
            },
            {
                "pitch": 72,
                "velocity": 80,
                "duration": 0.1136,
                "tempo": 120.0
            },
            {
                "pitch": 74,
                "velocity": 80,
                "duration": 0.1205,
                "tempo": 120.0
            },
            {
                "pitch": 72,
                "velocity": 80,
                "duration": 0.1364,
                "tempo": 120.0
            },
            {
                "pitch": 71,
                "velocity": 80,
                "duration": 0.1205,
                "tempo": 120.0
            },
            {
                "pitch": 67,
                "velocity": 80,
                "duration": 0.1182,
                "tempo": 120.0
            },
            {
                "pitch": 62,
                "velocity": 80,
                "duration": 0.1182,
                "tempo": 120.0
            },
            {
                "pitch": 67,
                "velocity": 80,
                "duration": 0.1182,
                "tempo": 120.0
            },
            {
                "pitch": 69,
                "velocity": 80,
                "duration": 0.1341,
                "tempo": 120.0
            },
            {
                "pitch": 62,
                "velocity": 80,
                "duration": 0.1182,
                "tempo": 120.0
            },
            {
                "pitch": 71,
                "velocity": 80,
                "duration": 0.1159,
                "tempo": 120.0
            },
            {
                "pitch": 62,
                "velocity": 80,
                "duration": 0.1182,
                "tempo": 120.0
            },
            {
                "pitch": 72,
                "velocity": 80,
                "duration": 0.1159,
                "tempo": 120.0
            },
            {
                "pitch": 62,
                "velocity": 80,
                "duration": 0.1341,
                "tempo": 120.0
            },
            {
                "pitch": 74,
                "velocity": 80,
                "duration": 0.1205,
                "tempo": 120.0
            },
            {
                "pitch": 62,
                "velocity": 80,
                "duration": 0.1182,
                "tempo": 120.0
            },
            {
                "pitch": 71,
                "velocity": 80,
                "duration": 0.1182,
                "tempo": 120.0
            },
            {
                "pitch": 62,
                "velocity": 80,
                "duration": 0.1205,
                "tempo": 120.0
            },
            {
                "pitch": 65,
                "velocity": 80,
                "duration": 0.2455,
                "tempo": 120.0
            },
            {
                "pitch": 67,
                "velocity": 80,
                "duration": 0.1136,
                "tempo": 120.0
            },
            {
                "pitch": 65,
                "velocity": 80,
                "duration": 0.2318,
                "tempo": 120.0
            },
            {
                "pitch": 67,
                "velocity": 80,
                "duration": 0.1341,
                "tempo": 120.0
            },
            {
                "pitch": 65,
                "velocity": 80,
                "duration": 0.2318,
                "tempo": 120.0
            },
            {
                "pitch": 67,
                "velocity": 80,
                "duration": 0.1159,
                "tempo": 120.0
            },
            {
                "pitch": 65,
                "velocity": 80,
                "duration": 0.25,
                "tempo": 120.0
            },
            {
                "pitch": 67,
                "velocity": 80,
                "duration": 0.1159,
                "tempo": 120.0
            },
            {
                "pitch": 65,
                "velocity": 80,
                "duration": 0.2386,
                "tempo": 120.0
            },
            {
                "pitch": 67,
                "velocity": 80,
                "duration": 0.1205,
                "tempo": 120.0
            },
            {
                "pitch": 65,
                "velocity": 80,
                "duration": 0.2523,
                "tempo": 120.0
            },
            {
                "pitch": 67,
                "velocity": 80,
                "duration": 0.1182,
                "tempo": 120.0
            },
            {
                "pitch": 65,
                "velocity": 80,
                "duration": 0.2318,
                "tempo": 120.0
            },
            {
                "pitch": 67,
                "velocity": 80,
                "duration": 0.1295,
                "tempo": 120.0
            },
            {
                "pitch": 65,
                "velocity": 80,
                "duration": 0.2295,
                "tempo": 120.0
            },
            {
                "pitch": 67,
                "velocity": 80,
                "duration": 0.1159,
                "tempo": 120.0
            },
            {
                "pitch": 65,
                "velocity": 80,
                "duration": 0.25,
                "tempo": 120.0
            },
            {
                "pitch": 67,
                "velocity": 80,
                "duration": 0.1159,
                "tempo": 120.0
            },
            {
                "pitch": 65,
                "velocity": 80,
                "duration": 0.2364,
                "tempo": 120.0
            },
            {
                "pitch": 67,
                "velocity": 80,
                "duration": 0.1182,
                "tempo": 120.0
            },
            {
                "pitch": 67,
                "velocity": 80,
                "duration": 0.2545,
                "tempo": 120.0
            },
            {
                "pitch": 71,
                "velocity": 80,
                "duration": 0.1159,
                "tempo": 120.0
            },
            {
                "pitch": 62,
                "velocity": 80,
                "duration": 0.1182,
                "tempo": 120.0
            },
            {
                "pitch": 72,
                "velocity": 80,
                "duration": 0.1159,
                "tempo": 120.0
            },
            {
                "pitch": 62,
                "velocity": 80,
                "duration": 0.1341,
                "tempo": 120.0
            },
            {
                "pitch": 74,
                "velocity": 80,
                "duration": 0.1159,
                "tempo": 120.0
            },
            {
                "pitch": 62,
                "velocity": 80,
                "duration": 0.1182,
                "tempo": 120.0
            },
            {
                "pitch": 72,
                "velocity": 80,
                "duration": 0.1159,
                "tempo": 120.0
            },
            {
                "pitch": 71,
                "velocity": 80,
                "duration": 0.2477,
                "tempo": 120.0
            },
            {
                "pitch": 62,
                "velocity": 80,
                "duration": 0.1159,
                "tempo": 120.0
            },
            {
                "pitch": 72,
                "velocity": 80,
                "duration": 0.1136,
                "tempo": 120.0
            },
            {
                "pitch": 62,
                "velocity": 80,
                "duration": 0.1136,
                "tempo": 120.0
            },
            {
                "pitch": 74,
                "velocity": 80,
                "duration": 0.1205,
                "tempo": 120.0
            },
            {
                "pitch": 62,
                "velocity": 80,
                "duration": 0.1364,
                "tempo": 120.0
            },
            {
                "pitch": 72,
                "velocity": 80,
                "duration": 0.1205,
                "tempo": 120.0
            },
            {
                "pitch": 62,
                "velocity": 80,
                "duration": 0.1182,
                "tempo": 120.0
            },
            {
                "pitch": 74,
                "velocity": 80,
                "duration": 0.2341,
                "tempo": 120.0
            },
            {
                "pitch": 74,
                "velocity": 80,
                "duration": 0.25,
                "tempo": 120.0
            },
            {
                "pitch": 74,
                "velocity": 80,
                "duration": 0.2364,
                "tempo": 120.0
            },
            {
                "pitch": 74,
                "velocity": 80,
                "duration": 0.2523,
                "tempo": 120.0
            },
            {
                "pitch": 74,
                "velocity": 80,
                "duration": 0.2386,
                "tempo": 120.0
            },
            {
                "pitch": 74,
                "velocity": 80,
                "duration": 0.2386,
                "tempo": 120.0
            },
            {
                "pitch": 74,
                "velocity": 80,
                "duration": 0.2409,
                "tempo": 120.0
            },
            {
                "pitch": 74,
                "velocity": 80,
                "duration": 0.225,
                "tempo": 120.0
            },
            {
                "pitch": 74,
                "velocity": 80,
                "duration": 0.1182,
                "tempo": 120.0
            },
            {
                "pitch": 62,
                "velocity": 80,
                "duration": 0.1386,
                "tempo": 120.0
            },
            {
                "pitch": 62,
                "velocity": 80,
                "duration": 0.1182,
                "tempo": 120.0
            },
            {
                "pitch": 74,
                "velocity": 80,
                "duration": 0.1205,
                "tempo": 120.0
            },
            {
                "pitch": 62,
                "velocity": 80,
                "duration": 0.1159,
                "tempo": 120.0
            },
            {
                "pitch": 62,
                "velocity": 80,
                "duration": 0.1182,
                "tempo": 120.0
            },
            {
                "pitch": 74,
                "velocity": 80,
                "duration": 0.1318,
                "tempo": 120.0
            },
            {
                "pitch": 62,
                "velocity": 80,
                "duration": 0.1182,
                "tempo": 120.0
            },
            {
                "pitch": 62,
                "velocity": 80,
                "duration": 0.1159,
                "tempo": 120.0
            },
            {
                "pitch": 74,
                "velocity": 80,
                "duration": 0.1182,
                "tempo": 120.0
            },
            {
                "pitch": 62,
                "velocity": 80,
                "duration": 0.1159,
                "tempo": 120.0
            },
            {
                "pitch": 62,
                "velocity": 80,
                "duration": 0.1341,
                "tempo": 120.0
            },
            {
                "pitch": 74,
                "velocity": 80,
                "duration": 0.1205,
                "tempo": 120.0
            },
            {
                "pitch": 62,
                "velocity": 80,
                "duration": 0.1182,
                "tempo": 120.0
            },
            {
                "pitch": 74,
                "velocity": 80,
                "duration": 0.1182,
                "tempo": 120.0
            },
            {
                "pitch": 62,
                "velocity": 80,
                "duration": 0.1182,
                "tempo": 120.0
            },
            {
                "pitch": 72,
                "velocity": 80,
                "duration": 0.1295,
                "tempo": 120.0
            },
            {
                "pitch": 60,
                "velocity": 80,
                "duration": 0.1159,
                "tempo": 120.0
            },
            {
                "pitch": 60,
                "velocity": 80,
                "duration": 0.1136,
                "tempo": 120.0
            },
            {
                "pitch": 72,
                "velocity": 80,
                "duration": 0.1159,
                "tempo": 120.0
            },
            {
                "pitch": 60,
                "velocity": 80,
                "duration": 0.1182,
                "tempo": 120.0
            },
            {
                "pitch": 60,
                "velocity": 80,
                "duration": 0.1341,
                "tempo": 120.0
            },
            {
                "pitch": 72,
                "velocity": 80,
                "duration": 0.1159,
                "tempo": 120.0
            },
            {
                "pitch": 60,
                "velocity": 80,
                "duration": 0.1182,
                "tempo": 120.0
            },
            {
                "pitch": 60,
                "velocity": 80,
                "duration": 0.1159,
                "tempo": 120.0
            },
            {
                "pitch": 72,
                "velocity": 80,
                "duration": 0.1182,
                "tempo": 120.0
            },
            {
                "pitch": 60,
                "velocity": 80,
                "duration": 0.1318,
                "tempo": 120.0
            },
            {
                "pitch": 60,
                "velocity": 80,
                "duration": 0.1182,
                "tempo": 120.0
            },
            {
                "pitch": 72,
                "velocity": 80,
                "duration": 0.1182,
                "tempo": 120.0
            },
            {
                "pitch": 60,
                "velocity": 80,
                "duration": 0.1205,
                "tempo": 120.0
            },
            {
                "pitch": 72,
                "velocity": 80,
                "duration": 0.1205,
                "tempo": 120.0
            },
            {
                "pitch": 60,
                "velocity": 80,
                "duration": 0.1364,
                "tempo": 120.0
            },
            {
                "pitch": 67,
                "velocity": 80,
                "duration": 0.0636,
                "tempo": 120.0
            },
            {
                "pitch": 62,
                "velocity": 80,
                "duration": 0.0841,
                "tempo": 120.0
            },
            {
                "pitch": 60,
                "velocity": 80,
                "duration": 0.0864,
                "tempo": 120.0
            },
            {
                "pitch": 67,
                "velocity": 80,
                "duration": 0.0795,
                "tempo": 120.0
            },
            {
                "pitch": 62,
                "velocity": 80,
                "duration": 0.0841,
                "tempo": 120.0
            },
            {
                "pitch": 60,
                "velocity": 80,
                "duration": 0.0682,
                "tempo": 120.0
            },
            {
                "pitch": 67,
                "velocity": 80,
                "duration": 0.0795,
                "tempo": 120.0
            },
            {
                "pitch": 62,
                "velocity": 80,
                "duration": 0.0818,
                "tempo": 120.0
            },
            {
                "pitch": 60,
                "velocity": 80,
                "duration": 0.0841,
                "tempo": 120.0
            },
            {
                "pitch": 67,
                "velocity": 80,
                "duration": 0.0795,
                "tempo": 120.0
            },
            {
                "pitch": 62,
                "velocity": 80,
                "duration": 0.0659,
                "tempo": 120.0
            },
            {
                "pitch": 59,
                "velocity": 80,
                "duration": 0.0841,
                "tempo": 120.0
            },
            {
                "pitch": 67,
                "velocity": 80,
                "duration": 0.0818,
                "tempo": 120.0
            },
            {
                "pitch": 61,
                "velocity": 80,
                "duration": 0.0818,
                "tempo": 120.0
            },
            {
                "pitch": 59,
                "velocity": 80,
                "duration": 0.0841,
                "tempo": 120.0
            },
            {
                "pitch": 66,
                "velocity": 80,
                "duration": 0.0659,
                "tempo": 120.0
            },
            {
                "pitch": 61,
                "velocity": 80,
                "duration": 0.0818,
                "tempo": 120.0
            },
            {
                "pitch": 59,
                "velocity": 80,
                "duration": 0.0864,
                "tempo": 120.0
            },
            {
                "pitch": 66,
                "velocity": 80,
                "duration": 0.0841,
                "tempo": 120.0
            },
            {
                "pitch": 61,
                "velocity": 80,
                "duration": 0.0841,
                "tempo": 120.0
            },
            {
                "pitch": 59,
                "velocity": 80,
                "duration": 0.0705,
                "tempo": 120.0
            },
            {
                "pitch": 66,
                "velocity": 80,
                "duration": 0.0818,
                "tempo": 120.0
            },
            {
                "pitch": 61,
                "velocity": 80,
                "duration": 0.0841,
                "tempo": 120.0
            },
            {
                "pitch": 59,
                "velocity": 80,
                "duration": 0.0864,
                "tempo": 120.0
            },
            {
                "pitch": 66,
                "velocity": 80,
                "duration": 0.0818,
                "tempo": 120.0
            },
            {
                "pitch": 61,
                "velocity": 80,
                "duration": 0.0659,
                "tempo": 120.0
            },
            {
                "pitch": 59,
                "velocity": 80,
                "duration": 0.0864,
                "tempo": 120.0
            },
            {
                "pitch": 66,
                "velocity": 80,
                "duration": 0.0818,
                "tempo": 120.0
            },
            {
                "pitch": 61,
                "velocity": 80,
                "duration": 0.0818,
                "tempo": 120.0
            },
            {
                "pitch": 59,
                "velocity": 80,
                "duration": 0.0864,
                "tempo": 120.0
            },
            {
                "pitch": 66,
                "velocity": 80,
                "duration": 0.0659,
                "tempo": 120.0
            },
            {
                "pitch": 61,
                "velocity": 80,
                "duration": 0.0841,
                "tempo": 120.0
            },
            {
                "pitch": 59,
                "velocity": 80,
                "duration": 0.0864,
                "tempo": 120.0
            },
            {
                "pitch": 67,
                "velocity": 80,
                "duration": 0.0818,
                "tempo": 120.0
            },
            {
                "pitch": 61,
                "velocity": 80,
                "duration": 0.0841,
                "tempo": 120.0
            },
            {
                "pitch": 59,
                "velocity": 80,
                "duration": 0.0682,
                "tempo": 120.0
            },
            {
                "pitch": 67,
                "velocity": 80,
                "duration": 0.0773,
                "tempo": 120.0
            },
            {
                "pitch": 62,
                "velocity": 80,
                "duration": 0.0841,
                "tempo": 120.0
            },
            {
                "pitch": 59,
                "velocity": 80,
                "duration": 0.0841,
                "tempo": 120.0
            },
            {
                "pitch": 67,
                "velocity": 80,
                "duration": 0.0795,
                "tempo": 120.0
            },
            {
                "pitch": 62,
                "velocity": 80,
                "duration": 0.0659,
                "tempo": 120.0
            },
            {
                "pitch": 60,
                "velocity": 80,
                "duration": 0.0841,
                "tempo": 120.0
            },
            {
                "pitch": 67,
                "velocity": 80,
                "duration": 0.0818,
                "tempo": 120.0
            },
            {
                "pitch": 62,
                "velocity": 80,
                "duration": 0.0864,
                "tempo": 120.0
            },
            {
                "pitch": 60,
                "velocity": 80,
                "duration": 0.0886,
                "tempo": 120.0
            },
            {
                "pitch": 67,
                "velocity": 80,
                "duration": 0.0659,
                "tempo": 120.0
            },
            {
                "pitch": 62,
                "velocity": 80,
                "duration": 0.0841,
                "tempo": 120.0
            }
        ],
        "Lead 2 (sawtooth)": [
            {
                "pitch": 63,
                "velocity": 101,
                "duration": 0.2545,
                "tempo": 120.0
            },
            {
                "pitch": 65,
                "velocity": 101,
                "duration": 0.1205,
                "tempo": 120.0
            },
            {
                "pitch": 63,
                "velocity": 101,
                "duration": 0.2341,
                "tempo": 120.0
            },
            {
                "pitch": 65,
                "velocity": 101,
                "duration": 0.1159,
                "tempo": 120.0
            },
            {
                "pitch": 63,
                "velocity": 101,
                "duration": 0.2455,
                "tempo": 120.0
            },
            {
                "pitch": 65,
                "velocity": 101,
                "duration": 0.1182,
                "tempo": 120.0
            },
            {
                "pitch": 63,
                "velocity": 101,
                "duration": 0.2386,
                "tempo": 120.0
            },
            {
                "pitch": 65,
                "velocity": 101,
                "duration": 0.1364,
                "tempo": 120.0
            },
            {
                "pitch": 63,
                "velocity": 101,
                "duration": 0.2364,
                "tempo": 120.0
            },
            {
                "pitch": 65,
                "velocity": 101,
                "duration": 0.1182,
                "tempo": 120.0
            },
            {
                "pitch": 63,
                "velocity": 101,
                "duration": 0.2477,
                "tempo": 120.0
            },
            {
                "pitch": 65,
                "velocity": 101,
                "duration": 0.1159,
                "tempo": 120.0
            },
            {
                "pitch": 63,
                "velocity": 101,
                "duration": 0.2295,
                "tempo": 120.0
            },
            {
                "pitch": 65,
                "velocity": 101,
                "duration": 0.1182,
                "tempo": 120.0
            },
            {
                "pitch": 63,
                "velocity": 101,
                "duration": 0.2523,
                "tempo": 120.0
            },
            {
                "pitch": 65,
                "velocity": 101,
                "duration": 0.1182,
                "tempo": 120.0
            },
            {
                "pitch": 63,
                "velocity": 101,
                "duration": 0.2386,
                "tempo": 120.0
            },
            {
                "pitch": 65,
                "velocity": 101,
                "duration": 0.1364,
                "tempo": 120.0
            },
            {
                "pitch": 63,
                "velocity": 101,
                "duration": 0.2386,
                "tempo": 120.0
            },
            {
                "pitch": 65,
                "velocity": 101,
                "duration": 0.1182,
                "tempo": 120.0
            },
            {
                "pitch": 65,
                "velocity": 101,
                "duration": 0.25,
                "tempo": 120.0
            },
            {
                "pitch": 65,
                "velocity": 101,
                "duration": 0.1182,
                "tempo": 120.0
            },
            {
                "pitch": 63,
                "velocity": 101,
                "duration": 0.1182,
                "tempo": 120.0
            },
            {
                "pitch": 60,
                "velocity": 101,
                "duration": 0.1159,
                "tempo": 120.0
            },
            {
                "pitch": 58,
                "velocity": 101,
                "duration": 0.2477,
                "tempo": 120.0
            },
            {
                "pitch": 57,
                "velocity": 101,
                "duration": 0.3455,
                "tempo": 120.0
            },
            {
                "pitch": 65,
                "velocity": 101,
                "duration": 0.1182,
                "tempo": 120.0
            },
            {
                "pitch": 63,
                "velocity": 101,
                "duration": 0.1386,
                "tempo": 120.0
            },
            {
                "pitch": 60,
                "velocity": 101,
                "duration": 0.1182,
                "tempo": 120.0
            },
            {
                "pitch": 58,
                "velocity": 101,
                "duration": 0.2364,
                "tempo": 120.0
            },
            {
                "pitch": 57,
                "velocity": 101,
                "duration": 0.3659,
                "tempo": 120.0
            },
            {
                "pitch": 51,
                "velocity": 101,
                "duration": 0.2341,
                "tempo": 120.0
            },
            {
                "pitch": 53,
                "velocity": 101,
                "duration": 0.1159,
                "tempo": 120.0
            },
            {
                "pitch": 51,
                "velocity": 101,
                "duration": 0.2545,
                "tempo": 120.0
            },
            {
                "pitch": 53,
                "velocity": 101,
                "duration": 0.1205,
                "tempo": 120.0
            },
            {
                "pitch": 51,
                "velocity": 101,
                "duration": 0.2386,
                "tempo": 120.0
            },
            {
                "pitch": 53,
                "velocity": 101,
                "duration": 0.1318,
                "tempo": 120.0
            },
            {
                "pitch": 51,
                "velocity": 101,
                "duration": 0.2295,
                "tempo": 120.0
            },
            {
                "pitch": 53,
                "velocity": 101,
                "duration": 0.1159,
                "tempo": 120.0
            },
            {
                "pitch": 51,
                "velocity": 101,
                "duration": 0.25,
                "tempo": 120.0
            },
            {
                "pitch": 53,
                "velocity": 101,
                "duration": 7.9818,
                "tempo": 120.0
            },
            {
                "pitch": 63,
                "velocity": 101,
                "duration": 0.2386,
                "tempo": 120.0
            },
            {
                "pitch": 65,
                "velocity": 101,
                "duration": 0.1182,
                "tempo": 120.0
            },
            {
                "pitch": 63,
                "velocity": 101,
                "duration": 0.2545,
                "tempo": 120.0
            },
            {
                "pitch": 65,
                "velocity": 101,
                "duration": 0.1182,
                "tempo": 120.0
            },
            {
                "pitch": 63,
                "velocity": 101,
                "duration": 0.2341,
                "tempo": 120.0
            },
            {
                "pitch": 65,
                "velocity": 101,
                "duration": 0.1318,
                "tempo": 120.0
            },
            {
                "pitch": 63,
                "velocity": 101,
                "duration": 0.2295,
                "tempo": 120.0
            },
            {
                "pitch": 65,
                "velocity": 101,
                "duration": 0.1159,
                "tempo": 120.0
            },
            {
                "pitch": 63,
                "velocity": 101,
                "duration": 0.25,
                "tempo": 120.0
            },
            {
                "pitch": 65,
                "velocity": 101,
                "duration": 0.1159,
                "tempo": 120.0
            },
            {
                "pitch": 63,
                "velocity": 101,
                "duration": 0.2341,
                "tempo": 120.0
            },
            {
                "pitch": 65,
                "velocity": 101,
                "duration": 0.1182,
                "tempo": 120.0
            },
            {
                "pitch": 63,
                "velocity": 101,
                "duration": 0.2523,
                "tempo": 120.0
            },
            {
                "pitch": 65,
                "velocity": 101,
                "duration": 0.1182,
                "tempo": 120.0
            },
            {
                "pitch": 63,
                "velocity": 101,
                "duration": 0.2386,
                "tempo": 120.0
            },
            {
                "pitch": 65,
                "velocity": 101,
                "duration": 0.1364,
                "tempo": 120.0
            },
            {
                "pitch": 63,
                "velocity": 101,
                "duration": 0.2341,
                "tempo": 120.0
            },
            {
                "pitch": 65,
                "velocity": 101,
                "duration": 0.1182,
                "tempo": 120.0
            },
            {
                "pitch": 63,
                "velocity": 101,
                "duration": 0.2477,
                "tempo": 120.0
            },
            {
                "pitch": 65,
                "velocity": 101,
                "duration": 0.1159,
                "tempo": 120.0
            },
            {
                "pitch": 65,
                "velocity": 101,
                "duration": 0.2295,
                "tempo": 120.0
            },
            {
                "pitch": 65,
                "velocity": 101,
                "duration": 0.1182,
                "tempo": 120.0
            },
            {
                "pitch": 63,
                "velocity": 101,
                "duration": 0.1341,
                "tempo": 120.0
            },
            {
                "pitch": 60,
                "velocity": 101,
                "duration": 0.1182,
                "tempo": 120.0
            },
            {
                "pitch": 58,
                "velocity": 101,
                "duration": 0.2364,
                "tempo": 120.0
            },
            {
                "pitch": 57,
                "velocity": 101,
                "duration": 0.3773,
                "tempo": 120.0
            },
            {
                "pitch": 65,
                "velocity": 101,
                "duration": 0.1159,
                "tempo": 120.0
            },
            {
                "pitch": 63,
                "velocity": 101,
                "duration": 0.1205,
                "tempo": 120.0
            },
            {
                "pitch": 60,
                "velocity": 101,
                "duration": 0.1159,
                "tempo": 120.0
            },
            {
                "pitch": 58,
                "velocity": 101,
                "duration": 0.2545,
                "tempo": 120.0
            },
            {
                "pitch": 57,
                "velocity": 101,
                "duration": 0.3591,
                "tempo": 120.0
            },
            {
                "pitch": 51,
                "velocity": 101,
                "duration": 0.2409,
                "tempo": 120.0
            },
            {
                "pitch": 53,
                "velocity": 101,
                "duration": 0.1114,
                "tempo": 120.0
            },
            {
                "pitch": 51,
                "velocity": 101,
                "duration": 0.2318,
                "tempo": 120.0
            },
            {
                "pitch": 53,
                "velocity": 101,
                "duration": 0.1386,
                "tempo": 120.0
            },
            {
                "pitch": 51,
                "velocity": 101,
                "duration": 0.2386,
                "tempo": 120.0
            },
            {
                "pitch": 53,
                "velocity": 101,
                "duration": 0.1159,
                "tempo": 120.0
            },
            {
                "pitch": 51,
                "velocity": 101,
                "duration": 0.2545,
                "tempo": 120.0
            },
            {
                "pitch": 53,
                "velocity": 101,
                "duration": 0.1159,
                "tempo": 120.0
            },
            {
                "pitch": 51,
                "velocity": 101,
                "duration": 0.2341,
                "tempo": 120.0
            }
        ],
        "Synth Bass 1": [
            {
                "pitch": 77,
                "velocity": 101,
                "duration": 0.1182,
                "tempo": 120.0
            },
            {
                "pitch": 75,
                "velocity": 101,
                "duration": 0.2523,
                "tempo": 120.0
            },
            {
                "pitch": 65,
                "velocity": 101,
                "duration": 0.1182,
                "tempo": 120.0
            },
            {
                "pitch": 63,
                "velocity": 101,
                "duration": 0.2409,
                "tempo": 120.0
            },
            {
                "pitch": 77,
                "velocity": 101,
                "duration": 0.1182,
                "tempo": 120.0
            },
            {
                "pitch": 75,
                "velocity": 101,
                "duration": 0.2545,
                "tempo": 120.0
            },
            {
                "pitch": 65,
                "velocity": 101,
                "duration": 0.1182,
                "tempo": 120.0
            },
            {
                "pitch": 63,
                "velocity": 101,
                "duration": 0.2364,
                "tempo": 120.0
            },
            {
                "pitch": 77,
                "velocity": 101,
                "duration": 0.1295,
                "tempo": 120.0
            },
            {
                "pitch": 75,
                "velocity": 101,
                "duration": 0.2318,
                "tempo": 120.0
            },
            {
                "pitch": 65,
                "velocity": 101,
                "duration": 0.1136,
                "tempo": 120.0
            },
            {
                "pitch": 77,
                "velocity": 101,
                "duration": 0.1182,
                "tempo": 120.0
            },
            {
                "pitch": 75,
                "velocity": 101,
                "duration": 0.2523,
                "tempo": 120.0
            },
            {
                "pitch": 65,
                "velocity": 101,
                "duration": 0.1182,
                "tempo": 120.0
            },
            {
                "pitch": 63,
                "velocity": 101,
                "duration": 0.2364,
                "tempo": 120.0
            },
            {
                "pitch": 77,
                "velocity": 101,
                "duration": 0.1318,
                "tempo": 120.0
            },
            {
                "pitch": 75,
                "velocity": 101,
                "duration": 0.2386,
                "tempo": 120.0
            },
            {
                "pitch": 65,
                "velocity": 101,
                "duration": 0.1205,
                "tempo": 120.0
            },
            {
                "pitch": 63,
                "velocity": 101,
                "duration": 0.2568,
                "tempo": 120.0
            },
            {
                "pitch": 77,
                "velocity": 101,
                "duration": 0.1159,
                "tempo": 120.0
            },
            {
                "pitch": 75,
                "velocity": 101,
                "duration": 0.2364,
                "tempo": 120.0
            },
            {
                "pitch": 65,
                "velocity": 101,
                "duration": 0.1182,
                "tempo": 120.0
            },
            {
                "pitch": 77,
                "velocity": 101,
                "duration": 0.1318,
                "tempo": 120.0
            },
            {
                "pitch": 75,
                "velocity": 101,
                "duration": 0.2295,
                "tempo": 120.0
            },
            {
                "pitch": 65,
                "velocity": 101,
                "duration": 0.1136,
                "tempo": 120.0
            },
            {
                "pitch": 63,
                "velocity": 101,
                "duration": 0.2568,
                "tempo": 120.0
            },
            {
                "pitch": 77,
                "velocity": 101,
                "duration": 0.1182,
                "tempo": 120.0
            },
            {
                "pitch": 75,
                "velocity": 101,
                "duration": 0.2364,
                "tempo": 120.0
            },
            {
                "pitch": 65,
                "velocity": 101,
                "duration": 0.1182,
                "tempo": 120.0
            },
            {
                "pitch": 63,
                "velocity": 101,
                "duration": 0.2523,
                "tempo": 120.0
            },
            {
                "pitch": 77,
                "velocity": 101,
                "duration": 0.1182,
                "tempo": 120.0
            },
            {
                "pitch": 75,
                "velocity": 101,
                "duration": 0.2364,
                "tempo": 120.0
            },
            {
                "pitch": 65,
                "velocity": 101,
                "duration": 0.1318,
                "tempo": 120.0
            },
            {
                "pitch": 77,
                "velocity": 101,
                "duration": 0.1159,
                "tempo": 120.0
            },
            {
                "pitch": 75,
                "velocity": 101,
                "duration": 0.2341,
                "tempo": 120.0
            },
            {
                "pitch": 65,
                "velocity": 101,
                "duration": 0.1159,
                "tempo": 120.0
            },
            {
                "pitch": 63,
                "velocity": 101,
                "duration": 0.2477,
                "tempo": 120.0
            },
            {
                "pitch": 77,
                "velocity": 101,
                "duration": 0.1136,
                "tempo": 120.0
            },
            {
                "pitch": 75,
                "velocity": 101,
                "duration": 0.2341,
                "tempo": 120.0
            },
            {
                "pitch": 65,
                "velocity": 101,
                "duration": 0.1386,
                "tempo": 120.0
            },
            {
                "pitch": 63,
                "velocity": 101,
                "duration": 0.2386,
                "tempo": 120.0
            },
            {
                "pitch": 77,
                "velocity": 101,
                "duration": 0.1182,
                "tempo": 120.0
            },
            {
                "pitch": 75,
                "velocity": 101,
                "duration": 0.2523,
                "tempo": 120.0
            },
            {
                "pitch": 65,
                "velocity": 101,
                "duration": 7.8614,
                "tempo": 120.0
            },
            {
                "pitch": 77,
                "velocity": 101,
                "duration": 0.1205,
                "tempo": 120.0
            },
            {
                "pitch": 75,
                "velocity": 101,
                "duration": 0.2386,
                "tempo": 120.0
            },
            {
                "pitch": 65,
                "velocity": 101,
                "duration": 0.1205,
                "tempo": 120.0
            },
            {
                "pitch": 63,
                "velocity": 101,
                "duration": 0.2455,
                "tempo": 120.0
            },
            {
                "pitch": 77,
                "velocity": 101,
                "duration": 0.1136,
                "tempo": 120.0
            },
            {
                "pitch": 75,
                "velocity": 101,
                "duration": 0.2318,
                "tempo": 120.0
            },
            {
                "pitch": 65,
                "velocity": 101,
                "duration": 0.1364,
                "tempo": 120.0
            },
            {
                "pitch": 63,
                "velocity": 101,
                "duration": 0.2341,
                "tempo": 120.0
            },
            {
                "pitch": 77,
                "velocity": 101,
                "duration": 0.1182,
                "tempo": 120.0
            },
            {
                "pitch": 75,
                "velocity": 101,
                "duration": 0.2523,
                "tempo": 120.0
            },
            {
                "pitch": 65,
                "velocity": 101,
                "duration": 0.1159,
                "tempo": 120.0
            },
            {
                "pitch": 77,
                "velocity": 101,
                "duration": 0.1205,
                "tempo": 120.0
            },
            {
                "pitch": 75,
                "velocity": 101,
                "duration": 0.2386,
                "tempo": 120.0
            },
            {
                "pitch": 65,
                "velocity": 101,
                "duration": 0.1364,
                "tempo": 120.0
            },
            {
                "pitch": 63,
                "velocity": 101,
                "duration": 0.2341,
                "tempo": 120.0
            },
            {
                "pitch": 77,
                "velocity": 101,
                "duration": 0.1159,
                "tempo": 120.0
            },
            {
                "pitch": 75,
                "velocity": 101,
                "duration": 0.25,
                "tempo": 120.0
            },
            {
                "pitch": 65,
                "velocity": 101,
                "duration": 0.1159,
                "tempo": 120.0
            },
            {
                "pitch": 63,
                "velocity": 101,
                "duration": 0.2295,
                "tempo": 120.0
            },
            {
                "pitch": 77,
                "velocity": 101,
                "duration": 0.1159,
                "tempo": 120.0
            },
            {
                "pitch": 75,
                "velocity": 101,
                "duration": 0.25,
                "tempo": 120.0
            },
            {
                "pitch": 65,
                "velocity": 101,
                "duration": 0.1159,
                "tempo": 120.0
            },
            {
                "pitch": 77,
                "velocity": 101,
                "duration": 0.1205,
                "tempo": 120.0
            },
            {
                "pitch": 75,
                "velocity": 101,
                "duration": 0.2568,
                "tempo": 120.0
            },
            {
                "pitch": 65,
                "velocity": 101,
                "duration": 0.1205,
                "tempo": 120.0
            },
            {
                "pitch": 63,
                "velocity": 101,
                "duration": 0.2341,
                "tempo": 120.0
            },
            {
                "pitch": 77,
                "velocity": 101,
                "duration": 0.1182,
                "tempo": 120.0
            },
            {
                "pitch": 75,
                "velocity": 101,
                "duration": 0.25,
                "tempo": 120.0
            },
            {
                "pitch": 65,
                "velocity": 101,
                "duration": 0.1182,
                "tempo": 120.0
            },
            {
                "pitch": 63,
                "velocity": 101,
                "duration": 0.2341,
                "tempo": 120.0
            },
            {
                "pitch": 77,
                "velocity": 101,
                "duration": 0.1318,
                "tempo": 120.0
            },
            {
                "pitch": 75,
                "velocity": 101,
                "duration": 0.2295,
                "tempo": 120.0
            },
            {
                "pitch": 65,
                "velocity": 101,
                "duration": 0.1136,
                "tempo": 120.0
            },
            {
                "pitch": 77,
                "velocity": 101,
                "duration": 0.1205,
                "tempo": 120.0
            },
            {
                "pitch": 75,
                "velocity": 101,
                "duration": 0.2568,
                "tempo": 120.0
            },
            {
                "pitch": 65,
                "velocity": 101,
                "duration": 0.1182,
                "tempo": 120.0
            },
            {
                "pitch": 63,
                "velocity": 101,
                "duration": 0.2318,
                "tempo": 120.0
            },
            {
                "pitch": 77,
                "velocity": 101,
                "duration": 0.1341,
                "tempo": 120.0
            },
            {
                "pitch": 75,
                "velocity": 101,
                "duration": 0.2341,
                "tempo": 120.0
            },
            {
                "pitch": 65,
                "velocity": 101,
                "duration": 0.1182,
                "tempo": 120.0
            },
            {
                "pitch": 63,
                "velocity": 101,
                "duration": 0.2523,
                "tempo": 120.0
            },
            {
                "pitch": 77,
                "velocity": 101,
                "duration": 0.1205,
                "tempo": 120.0
            },
            {
                "pitch": 75,
                "velocity": 101,
                "duration": 0.2386,
                "tempo": 120.0
            }
        ],
        "Trumpet": [
            {
                "pitch": 31,
                "velocity": 64,
                "duration": 15.4477,
                "tempo": 120.0
            },
            {
                "pitch": 31,
                "velocity": 64,
                "duration": 3.8818,
                "tempo": 120.0
            },
            {
                "pitch": 28,
                "velocity": 64,
                "duration": 3.8568,
                "tempo": 120.0
            },
            {
                "pitch": 29,
                "velocity": 64,
                "duration": 7.7455,
                "tempo": 120.0
            },
            {
                "pitch": 31,
                "velocity": 64,
                "duration": 3.8523,
                "tempo": 120.0
            },
            {
                "pitch": 28,
                "velocity": 64,
                "duration": 3.8909,
                "tempo": 120.0
            },
            {
                "pitch": 29,
                "velocity": 64,
                "duration": 7.725,
                "tempo": 120.0
            },
            {
                "pitch": 67,
                "velocity": 51,
                "duration": 5.2795,
                "tempo": 120.0
            },
            {
                "pitch": 65,
                "velocity": 51,
                "duration": 4.3614,
                "tempo": 120.0
            },
            {
                "pitch": 67,
                "velocity": 51,
                "duration": 3.8909,
                "tempo": 120.0
            },
            {
                "pitch": 62,
                "velocity": 51,
                "duration": 1.9295,
                "tempo": 120.0
            },
            {
                "pitch": 67,
                "velocity": 51,
                "duration": 5.3,
                "tempo": 120.0
            },
            {
                "pitch": 65,
                "velocity": 51,
                "duration": 4.3455,
                "tempo": 120.0
            },
            {
                "pitch": 67,
                "velocity": 51,
                "duration": 3.8886,
                "tempo": 120.0
            },
            {
                "pitch": 62,
                "velocity": 51,
                "duration": 56.0818,
                "tempo": 120.0
            },
            {
                "pitch": 67,
                "velocity": 51,
                "duration": 5.2886,
                "tempo": 120.0
            },
            {
                "pitch": 65,
                "velocity": 51,
                "duration": 4.3432,
                "tempo": 120.0
            },
            {
                "pitch": 67,
                "velocity": 51,
                "duration": 3.8977,
                "tempo": 120.0
            }
        ],
        "Acoustic Bass": [
            {
                "pitch": 31,
                "velocity": 101,
                "duration": 0.2455,
                "tempo": 120.0
            },
            {
                "pitch": 31,
                "velocity": 101,
                "duration": 0.2295,
                "tempo": 120.0
            },
            {
                "pitch": 43,
                "velocity": 101,
                "duration": 0.1159,
                "tempo": 120.0
            },
            {
                "pitch": 31,
                "velocity": 101,
                "duration": 0.1341,
                "tempo": 120.0
            },
            {
                "pitch": 41,
                "velocity": 101,
                "duration": 0.1136,
                "tempo": 120.0
            },
            {
                "pitch": 43,
                "velocity": 101,
                "duration": 0.2341,
                "tempo": 120.0
            },
            {
                "pitch": 31,
                "velocity": 101,
                "duration": 0.2545,
                "tempo": 120.0
            },
            {
                "pitch": 31,
                "velocity": 101,
                "duration": 0.2364,
                "tempo": 120.0
            },
            {
                "pitch": 31,
                "velocity": 101,
                "duration": 0.1205,
                "tempo": 120.0
            },
            {
                "pitch": 43,
                "velocity": 101,
                "duration": 0.1205,
                "tempo": 120.0
            },
            {
                "pitch": 31,
                "velocity": 101,
                "duration": 0.1364,
                "tempo": 120.0
            },
            {
                "pitch": 28,
                "velocity": 101,
                "duration": 0.2341,
                "tempo": 120.0
            },
            {
                "pitch": 28,
                "velocity": 101,
                "duration": 0.3636,
                "tempo": 120.0
            },
            {
                "pitch": 40,
                "velocity": 101,
                "duration": 0.3455,
                "tempo": 120.0
            },
            {
                "pitch": 28,
                "velocity": 101,
                "duration": 0.2523,
                "tempo": 120.0
            },
            {
                "pitch": 28,
                "velocity": 101,
                "duration": 0.2364,
                "tempo": 120.0
            },
            {
                "pitch": 40,
                "velocity": 101,
                "duration": 0.1182,
                "tempo": 120.0
            },
            {
                "pitch": 28,
                "velocity": 101,
                "duration": 0.1205,
                "tempo": 120.0
            },
            {
                "pitch": 28,
                "velocity": 101,
                "duration": 0.1364,
                "tempo": 120.0
            },
            {
                "pitch": 29,
                "velocity": 101,
                "duration": 0.3568,
                "tempo": 120.0
            },
            {
                "pitch": 29,
                "velocity": 101,
                "duration": 0.2523,
                "tempo": 120.0
            },
            {
                "pitch": 41,
                "velocity": 101,
                "duration": 0.1136,
                "tempo": 120.0
            },
            {
                "pitch": 29,
                "velocity": 101,
                "duration": 0.1182,
                "tempo": 120.0
            },
            {
                "pitch": 39,
                "velocity": 101,
                "duration": 0.1136,
                "tempo": 120.0
            },
            {
                "pitch": 41,
                "velocity": 101,
                "duration": 0.2477,
                "tempo": 120.0
            },
            {
                "pitch": 29,
                "velocity": 101,
                "duration": 0.2318,
                "tempo": 120.0
            },
            {
                "pitch": 29,
                "velocity": 101,
                "duration": 0.2341,
                "tempo": 120.0
            },
            {
                "pitch": 29,
                "velocity": 101,
                "duration": 0.1364,
                "tempo": 120.0
            },
            {
                "pitch": 39,
                "velocity": 101,
                "duration": 0.1182,
                "tempo": 120.0
            },
            {
                "pitch": 41,
                "velocity": 101,
                "duration": 0.1205,
                "tempo": 120.0
            },
            {
                "pitch": 31,
                "velocity": 101,
                "duration": 0.1159,
                "tempo": 120.0
            },
            {
                "pitch": 31,
                "velocity": 101,
                "duration": 0.1182,
                "tempo": 120.0
            },
            {
                "pitch": 43,
                "velocity": 101,
                "duration": 0.1318,
                "tempo": 120.0
            },
            {
                "pitch": 43,
                "velocity": 101,
                "duration": 0.1182,
                "tempo": 120.0
            },
            {
                "pitch": 31,
                "velocity": 101,
                "duration": 0.1159,
                "tempo": 120.0
            },
            {
                "pitch": 31,
                "velocity": 101,
                "duration": 0.1182,
                "tempo": 120.0
            },
            {
                "pitch": 43,
                "velocity": 101,
                "duration": 0.1182,
                "tempo": 120.0
            },
            {
                "pitch": 43,
                "velocity": 101,
                "duration": 0.1341,
                "tempo": 120.0
            },
            {
                "pitch": 31,
                "velocity": 101,
                "duration": 0.1182,
                "tempo": 120.0
            },
            {
                "pitch": 31,
                "velocity": 101,
                "duration": 0.1227,
                "tempo": 120.0
            },
            {
                "pitch": 43,
                "velocity": 101,
                "duration": 0.1182,
                "tempo": 120.0
            },
            {
                "pitch": 43,
                "velocity": 101,
                "duration": 0.1205,
                "tempo": 120.0
            },
            {
                "pitch": 31,
                "velocity": 101,
                "duration": 0.1295,
                "tempo": 120.0
            },
            {
                "pitch": 31,
                "velocity": 101,
                "duration": 0.1159,
                "tempo": 120.0
            },
            {
                "pitch": 43,
                "velocity": 101,
                "duration": 0.1136,
                "tempo": 120.0
            },
            {
                "pitch": 31,
                "velocity": 101,
                "duration": 0.1136,
                "tempo": 120.0
            },
            {
                "pitch": 31,
                "velocity": 101,
                "duration": 0.25,
                "tempo": 120.0
            },
            {
                "pitch": 31,
                "velocity": 101,
                "duration": 0.2318,
                "tempo": 120.0
            },
            {
                "pitch": 43,
                "velocity": 101,
                "duration": 0.1159,
                "tempo": 120.0
            },
            {
                "pitch": 31,
                "velocity": 101,
                "duration": 0.1182,
                "tempo": 120.0
            },
            {
                "pitch": 41,
                "velocity": 101,
                "duration": 0.1341,
                "tempo": 120.0
            },
            {
                "pitch": 43,
                "velocity": 101,
                "duration": 0.2364,
                "tempo": 120.0
            },
            {
                "pitch": 31,
                "velocity": 101,
                "duration": 0.2409,
                "tempo": 120.0
            },
            {
                "pitch": 31,
                "velocity": 101,
                "duration": 0.2545,
                "tempo": 120.0
            },
            {
                "pitch": 31,
                "velocity": 101,
                "duration": 0.1182,
                "tempo": 120.0
            },
            {
                "pitch": 43,
                "velocity": 101,
                "duration": 0.1182,
                "tempo": 120.0
            },
            {
                "pitch": 31,
                "velocity": 101,
                "duration": 0.1159,
                "tempo": 120.0
            },
            {
                "pitch": 28,
                "velocity": 101,
                "duration": 0.2477,
                "tempo": 120.0
            },
            {
                "pitch": 28,
                "velocity": 101,
                "duration": 0.3455,
                "tempo": 120.0
            },
            {
                "pitch": 40,
                "velocity": 101,
                "duration": 0.3682,
                "tempo": 120.0
            },
            {
                "pitch": 28,
                "velocity": 101,
                "duration": 0.2386,
                "tempo": 120.0
            },
            {
                "pitch": 28,
                "velocity": 101,
                "duration": 0.2545,
                "tempo": 120.0
            },
            {
                "pitch": 40,
                "velocity": 101,
                "duration": 0.1182,
                "tempo": 120.0
            },
            {
                "pitch": 28,
                "velocity": 101,
                "duration": 0.1182,
                "tempo": 120.0
            },
            {
                "pitch": 28,
                "velocity": 101,
                "duration": 0.1159,
                "tempo": 120.0
            },
            {
                "pitch": 29,
                "velocity": 101,
                "duration": 0.3682,
                "tempo": 120.0
            },
            {
                "pitch": 29,
                "velocity": 101,
                "duration": 0.2318,
                "tempo": 120.0
            },
            {
                "pitch": 41,
                "velocity": 101,
                "duration": 0.1318,
                "tempo": 120.0
            },
            {
                "pitch": 29,
                "velocity": 101,
                "duration": 0.1159,
                "tempo": 120.0
            },
            {
                "pitch": 39,
                "velocity": 101,
                "duration": 0.1136,
                "tempo": 120.0
            },
            {
                "pitch": 41,
                "velocity": 101,
                "duration": 0.2318,
                "tempo": 120.0
            },
            {
                "pitch": 29,
                "velocity": 101,
                "duration": 0.2523,
                "tempo": 120.0
            },
            {
                "pitch": 29,
                "velocity": 101,
                "duration": 0.2386,
                "tempo": 120.0
            },
            {
                "pitch": 29,
                "velocity": 101,
                "duration": 0.1205,
                "tempo": 120.0
            },
            {
                "pitch": 39,
                "velocity": 101,
                "duration": 0.1364,
                "tempo": 120.0
            },
            {
                "pitch": 41,
                "velocity": 101,
                "duration": 0.1205,
                "tempo": 120.0
            },
            {
                "pitch": 31,
                "velocity": 101,
                "duration": 0.1159,
                "tempo": 120.0
            },
            {
                "pitch": 31,
                "velocity": 101,
                "duration": 0.1182,
                "tempo": 120.0
            },
            {
                "pitch": 43,
                "velocity": 101,
                "duration": 0.1182,
                "tempo": 120.0
            },
            {
                "pitch": 43,
                "velocity": 101,
                "duration": 0.1341,
                "tempo": 120.0
            },
            {
                "pitch": 31,
                "velocity": 101,
                "duration": 0.1182,
                "tempo": 120.0
            },
            {
                "pitch": 31,
                "velocity": 101,
                "duration": 0.1227,
                "tempo": 120.0
            },
            {
                "pitch": 43,
                "velocity": 101,
                "duration": 0.1182,
                "tempo": 120.0
            },
            {
                "pitch": 43,
                "velocity": 101,
                "duration": 0.1205,
                "tempo": 120.0
            },
            {
                "pitch": 31,
                "velocity": 101,
                "duration": 0.1273,
                "tempo": 120.0
            },
            {
                "pitch": 31,
                "velocity": 101,
                "duration": 0.1136,
                "tempo": 120.0
            },
            {
                "pitch": 43,
                "velocity": 101,
                "duration": 0.1114,
                "tempo": 120.0
            },
            {
                "pitch": 43,
                "velocity": 101,
                "duration": 0.1136,
                "tempo": 120.0
            },
            {
                "pitch": 31,
                "velocity": 101,
                "duration": 0.1182,
                "tempo": 120.0
            },
            {
                "pitch": 31,
                "velocity": 101,
                "duration": 0.1386,
                "tempo": 120.0
            },
            {
                "pitch": 43,
                "velocity": 101,
                "duration": 0.1182,
                "tempo": 120.0
            },
            {
                "pitch": 31,
                "velocity": 101,
                "duration": 0.1205,
                "tempo": 120.0
            },
            {
                "pitch": 31,
                "velocity": 101,
                "duration": 0.2364,
                "tempo": 120.0
            },
            {
                "pitch": 31,
                "velocity": 101,
                "duration": 0.2568,
                "tempo": 120.0
            },
            {
                "pitch": 43,
                "velocity": 101,
                "duration": 0.1159,
                "tempo": 120.0
            },
            {
                "pitch": 31,
                "velocity": 101,
                "duration": 0.1182,
                "tempo": 120.0
            },
            {
                "pitch": 41,
                "velocity": 101,
                "duration": 0.1136,
                "tempo": 120.0
            },
            {
                "pitch": 43,
                "velocity": 101,
                "duration": 0.25,
                "tempo": 120.0
            },
            {
                "pitch": 31,
                "velocity": 101,
                "duration": 0.2364,
                "tempo": 120.0
            },
            {
                "pitch": 31,
                "velocity": 101,
                "duration": 0.2477,
                "tempo": 120.0
            },
            {
                "pitch": 31,
                "velocity": 101,
                "duration": 0.1159,
                "tempo": 120.0
            },
            {
                "pitch": 43,
                "velocity": 101,
                "duration": 0.1136,
                "tempo": 120.0
            },
            {
                "pitch": 31,
                "velocity": 101,
                "duration": 0.1136,
                "tempo": 120.0
            },
            {
                "pitch": 28,
                "velocity": 101,
                "duration": 0.25,
                "tempo": 120.0
            },
            {
                "pitch": 28,
                "velocity": 101,
                "duration": 0.3523,
                "tempo": 120.0
            },
            {
                "pitch": 40,
                "velocity": 101,
                "duration": 0.3773,
                "tempo": 120.0
            },
            {
                "pitch": 28,
                "velocity": 101,
                "duration": 0.2341,
                "tempo": 120.0
            },
            {
                "pitch": 28,
                "velocity": 101,
                "duration": 0.25,
                "tempo": 120.0
            },
            {
                "pitch": 40,
                "velocity": 101,
                "duration": 0.1159,
                "tempo": 120.0
            },
            {
                "pitch": 28,
                "velocity": 101,
                "duration": 0.1182,
                "tempo": 120.0
            },
            {
                "pitch": 28,
                "velocity": 101,
                "duration": 0.1182,
                "tempo": 120.0
            },
            {
                "pitch": 29,
                "velocity": 101,
                "duration": 0.3636,
                "tempo": 120.0
            },
            {
                "pitch": 29,
                "velocity": 101,
                "duration": 0.2318,
                "tempo": 120.0
            },
            {
                "pitch": 41,
                "velocity": 101,
                "duration": 0.1159,
                "tempo": 120.0
            },
            {
                "pitch": 29,
                "velocity": 101,
                "duration": 0.1364,
                "tempo": 120.0
            },
            {
                "pitch": 39,
                "velocity": 101,
                "duration": 0.1182,
                "tempo": 120.0
            },
            {
                "pitch": 41,
                "velocity": 101,
                "duration": 0.2386,
                "tempo": 120.0
            },
            {
                "pitch": 29,
                "velocity": 101,
                "duration": 0.2523,
                "tempo": 120.0
            },
            {
                "pitch": 29,
                "velocity": 101,
                "duration": 0.2364,
                "tempo": 120.0
            },
            {
                "pitch": 29,
                "velocity": 101,
                "duration": 0.1182,
                "tempo": 120.0
            },
            {
                "pitch": 39,
                "velocity": 101,
                "duration": 0.1159,
                "tempo": 120.0
            },
            {
                "pitch": 41,
                "velocity": 101,
                "duration": 0.1341,
                "tempo": 120.0
            },
            {
                "pitch": 31,
                "velocity": 101,
                "duration": 0.1159,
                "tempo": 120.0
            },
            {
                "pitch": 31,
                "velocity": 101,
                "duration": 0.1182,
                "tempo": 120.0
            },
            {
                "pitch": 43,
                "velocity": 101,
                "duration": 0.1159,
                "tempo": 120.0
            },
            {
                "pitch": 43,
                "velocity": 101,
                "duration": 0.1182,
                "tempo": 120.0
            },
            {
                "pitch": 31,
                "velocity": 101,
                "duration": 0.1295,
                "tempo": 120.0
            },
            {
                "pitch": 31,
                "velocity": 101,
                "duration": 0.1159,
                "tempo": 120.0
            },
            {
                "pitch": 43,
                "velocity": 101,
                "duration": 0.1114,
                "tempo": 120.0
            },
            {
                "pitch": 43,
                "velocity": 101,
                "duration": 0.1182,
                "tempo": 120.0
            },
            {
                "pitch": 31,
                "velocity": 101,
                "duration": 0.1182,
                "tempo": 120.0
            },
            {
                "pitch": 31,
                "velocity": 101,
                "duration": 0.1364,
                "tempo": 120.0
            },
            {
                "pitch": 43,
                "velocity": 101,
                "duration": 0.1182,
                "tempo": 120.0
            },
            {
                "pitch": 43,
                "velocity": 101,
                "duration": 0.1205,
                "tempo": 120.0
            },
            {
                "pitch": 31,
                "velocity": 101,
                "duration": 0.1159,
                "tempo": 120.0
            },
            {
                "pitch": 31,
                "velocity": 101,
                "duration": 0.1182,
                "tempo": 120.0
            },
            {
                "pitch": 43,
                "velocity": 101,
                "duration": 0.1341,
                "tempo": 120.0
            },
            {
                "pitch": 31,
                "velocity": 101,
                "duration": 0.1182,
                "tempo": 120.0
            },
            {
                "pitch": 31,
                "velocity": 101,
                "duration": 0.2341,
                "tempo": 120.0
            },
            {
                "pitch": 31,
                "velocity": 101,
                "duration": 0.25,
                "tempo": 120.0
            },
            {
                "pitch": 43,
                "velocity": 101,
                "duration": 0.1182,
                "tempo": 120.0
            },
            {
                "pitch": 31,
                "velocity": 101,
                "duration": 0.1227,
                "tempo": 120.0
            },
            {
                "pitch": 41,
                "velocity": 101,
                "duration": 0.1182,
                "tempo": 120.0
            },
            {
                "pitch": 43,
                "velocity": 101,
                "duration": 0.25,
                "tempo": 120.0
            },
            {
                "pitch": 31,
                "velocity": 101,
                "duration": 0.2318,
                "tempo": 120.0
            },
            {
                "pitch": 31,
                "velocity": 101,
                "duration": 0.2318,
                "tempo": 120.0
            },
            {
                "pitch": 31,
                "velocity": 101,
                "duration": 0.1364,
                "tempo": 120.0
            },
            {
                "pitch": 43,
                "velocity": 101,
                "duration": 0.1159,
                "tempo": 120.0
            },
            {
                "pitch": 31,
                "velocity": 101,
                "duration": 0.1182,
                "tempo": 120.0
            },
            {
                "pitch": 28,
                "velocity": 101,
                "duration": 0.2341,
                "tempo": 120.0
            },
            {
                "pitch": 28,
                "velocity": 101,
                "duration": 0.3682,
                "tempo": 120.0
            },
            {
                "pitch": 40,
                "velocity": 101,
                "duration": 0.3773,
                "tempo": 120.0
            },
            {
                "pitch": 28,
                "velocity": 101,
                "duration": 0.2341,
                "tempo": 120.0
            },
            {
                "pitch": 28,
                "velocity": 101,
                "duration": 0.2341,
                "tempo": 120.0
            },
            {
                "pitch": 40,
                "velocity": 101,
                "duration": 0.1295,
                "tempo": 120.0
            },
            {
                "pitch": 28,
                "velocity": 101,
                "duration": 0.1159,
                "tempo": 120.0
            },
            {
                "pitch": 28,
                "velocity": 101,
                "duration": 0.1136,
                "tempo": 120.0
            },
            {
                "pitch": 29,
                "velocity": 101,
                "duration": 0.3659,
                "tempo": 120.0
            },
            {
                "pitch": 29,
                "velocity": 101,
                "duration": 0.2364,
                "tempo": 120.0
            },
            {
                "pitch": 41,
                "velocity": 101,
                "duration": 0.1182,
                "tempo": 120.0
            },
            {
                "pitch": 29,
                "velocity": 101,
                "duration": 0.1205,
                "tempo": 120.0
            },
            {
                "pitch": 39,
                "velocity": 101,
                "duration": 0.1364,
                "tempo": 120.0
            },
            {
                "pitch": 41,
                "velocity": 101,
                "duration": 0.2364,
                "tempo": 120.0
            },
            {
                "pitch": 29,
                "velocity": 101,
                "duration": 0.2341,
                "tempo": 120.0
            },
            {
                "pitch": 29,
                "velocity": 101,
                "duration": 0.2523,
                "tempo": 120.0
            },
            {
                "pitch": 29,
                "velocity": 101,
                "duration": 0.1205,
                "tempo": 120.0
            },
            {
                "pitch": 39,
                "velocity": 101,
                "duration": 0.1205,
                "tempo": 120.0
            },
            {
                "pitch": 41,
                "velocity": 101,
                "duration": 0.1182,
                "tempo": 120.0
            },
            {
                "pitch": 31,
                "velocity": 101,
                "duration": 0.1295,
                "tempo": 120.0
            },
            {
                "pitch": 31,
                "velocity": 101,
                "duration": 0.1114,
                "tempo": 120.0
            },
            {
                "pitch": 43,
                "velocity": 101,
                "duration": 0.1091,
                "tempo": 120.0
            },
            {
                "pitch": 43,
                "velocity": 101,
                "duration": 0.1136,
                "tempo": 120.0
            },
            {
                "pitch": 31,
                "velocity": 101,
                "duration": 0.1182,
                "tempo": 120.0
            },
            {
                "pitch": 31,
                "velocity": 101,
                "duration": 0.1386,
                "tempo": 120.0
            },
            {
                "pitch": 43,
                "velocity": 101,
                "duration": 0.1182,
                "tempo": 120.0
            },
            {
                "pitch": 43,
                "velocity": 101,
                "duration": 0.1205,
                "tempo": 120.0
            },
            {
                "pitch": 31,
                "velocity": 101,
                "duration": 0.1159,
                "tempo": 120.0
            },
            {
                "pitch": 31,
                "velocity": 101,
                "duration": 0.1182,
                "tempo": 120.0
            },
            {
                "pitch": 43,
                "velocity": 101,
                "duration": 0.1341,
                "tempo": 120.0
            },
            {
                "pitch": 43,
                "velocity": 101,
                "duration": 0.1182,
                "tempo": 120.0
            },
            {
                "pitch": 31,
                "velocity": 101,
                "duration": 0.1182,
                "tempo": 120.0
            },
            {
                "pitch": 31,
                "velocity": 101,
                "duration": 0.1205,
                "tempo": 120.0
            },
            {
                "pitch": 43,
                "velocity": 101,
                "duration": 0.1205,
                "tempo": 120.0
            },
            {
                "pitch": 31,
                "velocity": 101,
                "duration": 0.1386,
                "tempo": 120.0
            },
            {
                "pitch": 31,
                "velocity": 101,
                "duration": 0.2318,
                "tempo": 120.0
            },
            {
                "pitch": 31,
                "velocity": 101,
                "duration": 0.2341,
                "tempo": 120.0
            },
            {
                "pitch": 43,
                "velocity": 101,
                "duration": 0.1295,
                "tempo": 120.0
            },
            {
                "pitch": 31,
                "velocity": 101,
                "duration": 0.1159,
                "tempo": 120.0
            },
            {
                "pitch": 41,
                "velocity": 101,
                "duration": 0.1136,
                "tempo": 120.0
            },
            {
                "pitch": 43,
                "velocity": 101,
                "duration": 0.2318,
                "tempo": 120.0
            },
            {
                "pitch": 31,
                "velocity": 101,
                "duration": 0.2545,
                "tempo": 120.0
            },
            {
                "pitch": 31,
                "velocity": 101,
                "duration": 0.2341,
                "tempo": 120.0
            },
            {
                "pitch": 31,
                "velocity": 101,
                "duration": 0.1205,
                "tempo": 120.0
            },
            {
                "pitch": 43,
                "velocity": 101,
                "duration": 0.1341,
                "tempo": 120.0
            },
            {
                "pitch": 31,
                "velocity": 101,
                "duration": 0.1159,
                "tempo": 120.0
            },
            {
                "pitch": 28,
                "velocity": 101,
                "duration": 0.2409,
                "tempo": 120.0
            },
            {
                "pitch": 28,
                "velocity": 101,
                "duration": 0.3727,
                "tempo": 120.0
            },
            {
                "pitch": 40,
                "velocity": 101,
                "duration": 0.3545,
                "tempo": 120.0
            },
            {
                "pitch": 28,
                "velocity": 101,
                "duration": 0.2455,
                "tempo": 120.0
            },
            {
                "pitch": 28,
                "velocity": 101,
                "duration": 0.2295,
                "tempo": 120.0
            },
            {
                "pitch": 40,
                "velocity": 101,
                "duration": 0.1182,
                "tempo": 120.0
            },
            {
                "pitch": 28,
                "velocity": 101,
                "duration": 0.1364,
                "tempo": 120.0
            },
            {
                "pitch": 28,
                "velocity": 101,
                "duration": 0.1159,
                "tempo": 120.0
            },
            {
                "pitch": 29,
                "velocity": 101,
                "duration": 0.3568,
                "tempo": 120.0
            },
            {
                "pitch": 29,
                "velocity": 101,
                "duration": 0.2545,
                "tempo": 120.0
            },
            {
                "pitch": 41,
                "velocity": 101,
                "duration": 0.1159,
                "tempo": 120.0
            },
            {
                "pitch": 29,
                "velocity": 101,
                "duration": 0.1182,
                "tempo": 120.0
            },
            {
                "pitch": 39,
                "velocity": 101,
                "duration": 0.1159,
                "tempo": 120.0
            },
            {
                "pitch": 41,
                "velocity": 101,
                "duration": 0.2523,
                "tempo": 120.0
            },
            {
                "pitch": 29,
                "velocity": 101,
                "duration": 0.2341,
                "tempo": 120.0
            },
            {
                "pitch": 29,
                "velocity": 101,
                "duration": 0.2477,
                "tempo": 120.0
            },
            {
                "pitch": 29,
                "velocity": 101,
                "duration": 0.1159,
                "tempo": 120.0
            },
            {
                "pitch": 39,
                "velocity": 101,
                "duration": 0.1136,
                "tempo": 120.0
            },
            {
                "pitch": 41,
                "velocity": 101,
                "duration": 0.1159,
                "tempo": 120.0
            },
            {
                "pitch": 31,
                "velocity": 101,
                "duration": 0.1182,
                "tempo": 120.0
            },
            {
                "pitch": 31,
                "velocity": 101,
                "duration": 0.1386,
                "tempo": 120.0
            },
            {
                "pitch": 43,
                "velocity": 101,
                "duration": 0.1182,
                "tempo": 120.0
            },
            {
                "pitch": 43,
                "velocity": 101,
                "duration": 0.1205,
                "tempo": 120.0
            },
            {
                "pitch": 31,
                "velocity": 101,
                "duration": 0.1159,
                "tempo": 120.0
            },
            {
                "pitch": 31,
                "velocity": 101,
                "duration": 0.1205,
                "tempo": 120.0
            },
            {
                "pitch": 43,
                "velocity": 101,
                "duration": 0.1318,
                "tempo": 120.0
            },
            {
                "pitch": 43,
                "velocity": 101,
                "duration": 0.1205,
                "tempo": 120.0
            },
            {
                "pitch": 31,
                "velocity": 101,
                "duration": 0.1136,
                "tempo": 120.0
            },
            {
                "pitch": 31,
                "velocity": 101,
                "duration": 0.1182,
                "tempo": 120.0
            },
            {
                "pitch": 43,
                "velocity": 101,
                "duration": 0.1136,
                "tempo": 120.0
            },
            {
                "pitch": 43,
                "velocity": 101,
                "duration": 0.1341,
                "tempo": 120.0
            },
            {
                "pitch": 31,
                "velocity": 101,
                "duration": 0.1182,
                "tempo": 120.0
            },
            {
                "pitch": 31,
                "velocity": 101,
                "duration": 0.1205,
                "tempo": 120.0
            },
            {
                "pitch": 43,
                "velocity": 101,
                "duration": 0.1182,
                "tempo": 120.0
            },
            {
                "pitch": 31,
                "velocity": 101,
                "duration": 0.1182,
                "tempo": 120.0
            },
            {
                "pitch": 31,
                "velocity": 101,
                "duration": 0.2409,
                "tempo": 120.0
            },
            {
                "pitch": 31,
                "velocity": 101,
                "duration": 0.225,
                "tempo": 120.0
            },
            {
                "pitch": 43,
                "velocity": 101,
                "duration": 0.1182,
                "tempo": 120.0
            },
            {
                "pitch": 31,
                "velocity": 101,
                "duration": 0.1386,
                "tempo": 120.0
            },
            {
                "pitch": 41,
                "velocity": 101,
                "duration": 0.1182,
                "tempo": 120.0
            },
            {
                "pitch": 43,
                "velocity": 101,
                "duration": 0.2364,
                "tempo": 120.0
            },
            {
                "pitch": 31,
                "velocity": 101,
                "duration": 0.2523,
                "tempo": 120.0
            },
            {
                "pitch": 31,
                "velocity": 101,
                "duration": 0.2364,
                "tempo": 120.0
            },
            {
                "pitch": 31,
                "velocity": 101,
                "duration": 0.1205,
                "tempo": 120.0
            },
            {
                "pitch": 43,
                "velocity": 101,
                "duration": 0.1182,
                "tempo": 120.0
            },
            {
                "pitch": 31,
                "velocity": 101,
                "duration": 0.1341,
                "tempo": 120.0
            },
            {
                "pitch": 28,
                "velocity": 101,
                "duration": 0.2341,
                "tempo": 120.0
            },
            {
                "pitch": 28,
                "velocity": 101,
                "duration": 0.3614,
                "tempo": 120.0
            },
            {
                "pitch": 40,
                "velocity": 101,
                "duration": 0.3455,
                "tempo": 120.0
            },
            {
                "pitch": 28,
                "velocity": 101,
                "duration": 0.2523,
                "tempo": 120.0
            },
            {
                "pitch": 28,
                "velocity": 101,
                "duration": 0.2341,
                "tempo": 120.0
            },
            {
                "pitch": 40,
                "velocity": 101,
                "duration": 0.1205,
                "tempo": 120.0
            },
            {
                "pitch": 28,
                "velocity": 101,
                "duration": 0.1205,
                "tempo": 120.0
            },
            {
                "pitch": 28,
                "velocity": 101,
                "duration": 0.1364,
                "tempo": 120.0
            },
            {
                "pitch": 29,
                "velocity": 101,
                "duration": 0.3545,
                "tempo": 120.0
            },
            {
                "pitch": 29,
                "velocity": 101,
                "duration": 0.2523,
                "tempo": 120.0
            },
            {
                "pitch": 41,
                "velocity": 101,
                "duration": 0.1182,
                "tempo": 120.0
            },
            {
                "pitch": 29,
                "velocity": 101,
                "duration": 0.1227,
                "tempo": 120.0
            },
            {
                "pitch": 39,
                "velocity": 101,
                "duration": 0.1182,
                "tempo": 120.0
            },
            {
                "pitch": 41,
                "velocity": 101,
                "duration": 0.2477,
                "tempo": 120.0
            },
            {
                "pitch": 29,
                "velocity": 101,
                "duration": 0.225,
                "tempo": 120.0
            },
            {
                "pitch": 29,
                "velocity": 101,
                "duration": 0.2318,
                "tempo": 120.0
            },
            {
                "pitch": 29,
                "velocity": 101,
                "duration": 0.1364,
                "tempo": 120.0
            },
            {
                "pitch": 39,
                "velocity": 101,
                "duration": 0.1205,
                "tempo": 120.0
            },
            {
                "pitch": 41,
                "velocity": 101,
                "duration": 0.1182,
                "tempo": 120.0
            },
            {
                "pitch": 31,
                "velocity": 101,
                "duration": 0.1159,
                "tempo": 120.0
            },
            {
                "pitch": 31,
                "velocity": 101,
                "duration": 0.1182,
                "tempo": 120.0
            },
            {
                "pitch": 43,
                "velocity": 101,
                "duration": 0.1341,
                "tempo": 120.0
            },
            {
                "pitch": 43,
                "velocity": 101,
                "duration": 0.1182,
                "tempo": 120.0
            },
            {
                "pitch": 31,
                "velocity": 101,
                "duration": 0.1159,
                "tempo": 120.0
            },
            {
                "pitch": 31,
                "velocity": 101,
                "duration": 0.1182,
                "tempo": 120.0
            },
            {
                "pitch": 43,
                "velocity": 101,
                "duration": 0.1159,
                "tempo": 120.0
            },
            {
                "pitch": 43,
                "velocity": 101,
                "duration": 0.1364,
                "tempo": 120.0
            },
            {
                "pitch": 31,
                "velocity": 101,
                "duration": 0.1182,
                "tempo": 120.0
            },
            {
                "pitch": 31,
                "velocity": 101,
                "duration": 0.1205,
                "tempo": 120.0
            },
            {
                "pitch": 43,
                "velocity": 101,
                "duration": 0.1182,
                "tempo": 120.0
            },
            {
                "pitch": 43,
                "velocity": 101,
                "duration": 0.1182,
                "tempo": 120.0
            },
            {
                "pitch": 31,
                "velocity": 101,
                "duration": 0.1295,
                "tempo": 120.0
            },
            {
                "pitch": 31,
                "velocity": 101,
                "duration": 0.1159,
                "tempo": 120.0
            },
            {
                "pitch": 43,
                "velocity": 101,
                "duration": 0.1136,
                "tempo": 120.0
            },
            {
                "pitch": 31,
                "velocity": 101,
                "duration": 0.1182,
                "tempo": 120.0
            },
            {
                "pitch": 29,
                "velocity": 101,
                "duration": 0.2545,
                "tempo": 120.0
            },
            {
                "pitch": 29,
                "velocity": 101,
                "duration": 0.2386,
                "tempo": 120.0
            },
            {
                "pitch": 41,
                "velocity": 101,
                "duration": 0.1136,
                "tempo": 120.0
            },
            {
                "pitch": 29,
                "velocity": 101,
                "duration": 0.1159,
                "tempo": 120.0
            },
            {
                "pitch": 39,
                "velocity": 101,
                "duration": 0.1318,
                "tempo": 120.0
            },
            {
                "pitch": 41,
                "velocity": 101,
                "duration": 0.2341,
                "tempo": 120.0
            },
            {
                "pitch": 29,
                "velocity": 101,
                "duration": 0.2386,
                "tempo": 120.0
            },
            {
                "pitch": 29,
                "velocity": 101,
                "duration": 0.2545,
                "tempo": 120.0
            },
            {
                "pitch": 29,
                "velocity": 101,
                "duration": 0.1182,
                "tempo": 120.0
            },
            {
                "pitch": 41,
                "velocity": 101,
                "duration": 0.1182,
                "tempo": 120.0
            },
            {
                "pitch": 29,
                "velocity": 101,
                "duration": 0.1182,
                "tempo": 120.0
            },
            {
                "pitch": 26,
                "velocity": 101,
                "duration": 0.2455,
                "tempo": 120.0
            },
            {
                "pitch": 26,
                "velocity": 101,
                "duration": 0.3455,
                "tempo": 120.0
            },
            {
                "pitch": 38,
                "velocity": 101,
                "duration": 0.3705,
                "tempo": 120.0
            },
            {
                "pitch": 26,
                "velocity": 101,
                "duration": 0.2409,
                "tempo": 120.0
            },
            {
                "pitch": 26,
                "velocity": 101,
                "duration": 0.2545,
                "tempo": 120.0
            },
            {
                "pitch": 38,
                "velocity": 101,
                "duration": 0.1182,
                "tempo": 120.0
            },
            {
                "pitch": 26,
                "velocity": 101,
                "duration": 0.1182,
                "tempo": 120.0
            },
            {
                "pitch": 26,
                "velocity": 101,
                "duration": 0.1182,
                "tempo": 120.0
            },
            {
                "pitch": 27,
                "velocity": 101,
                "duration": 0.3682,
                "tempo": 120.0
            },
            {
                "pitch": 27,
                "velocity": 101,
                "duration": 0.2318,
                "tempo": 120.0
            },
            {
                "pitch": 39,
                "velocity": 101,
                "duration": 0.1295,
                "tempo": 120.0
            },
            {
                "pitch": 27,
                "velocity": 101,
                "duration": 0.1159,
                "tempo": 120.0
            },
            {
                "pitch": 37,
                "velocity": 101,
                "duration": 0.1136,
                "tempo": 120.0
            },
            {
                "pitch": 39,
                "velocity": 101,
                "duration": 0.2341,
                "tempo": 120.0
            },
            {
                "pitch": 27,
                "velocity": 101,
                "duration": 0.2568,
                "tempo": 120.0
            },
            {
                "pitch": 27,
                "velocity": 101,
                "duration": 0.2364,
                "tempo": 120.0
            },
            {
                "pitch": 27,
                "velocity": 101,
                "duration": 0.1182,
                "tempo": 120.0
            },
            {
                "pitch": 37,
                "velocity": 101,
                "duration": 0.1341,
                "tempo": 120.0
            },
            {
                "pitch": 39,
                "velocity": 101,
                "duration": 0.1159,
                "tempo": 120.0
            },
            {
                "pitch": 29,
                "velocity": 101,
                "duration": 0.1182,
                "tempo": 120.0
            },
            {
                "pitch": 29,
                "velocity": 101,
                "duration": 0.1182,
                "tempo": 120.0
            },
            {
                "pitch": 41,
                "velocity": 101,
                "duration": 0.1159,
                "tempo": 120.0
            },
            {
                "pitch": 41,
                "velocity": 101,
                "duration": 0.1341,
                "tempo": 120.0
            },
            {
                "pitch": 29,
                "velocity": 101,
                "duration": 0.1182,
                "tempo": 120.0
            },
            {
                "pitch": 29,
                "velocity": 101,
                "duration": 0.1205,
                "tempo": 120.0
            },
            {
                "pitch": 41,
                "velocity": 101,
                "duration": 0.1182,
                "tempo": 120.0
            },
            {
                "pitch": 41,
                "velocity": 101,
                "duration": 0.1205,
                "tempo": 120.0
            },
            {
                "pitch": 29,
                "velocity": 101,
                "duration": 0.1295,
                "tempo": 120.0
            },
            {
                "pitch": 29,
                "velocity": 101,
                "duration": 0.1159,
                "tempo": 120.0
            },
            {
                "pitch": 41,
                "velocity": 101,
                "duration": 0.1136,
                "tempo": 120.0
            },
            {
                "pitch": 41,
                "velocity": 101,
                "duration": 0.1159,
                "tempo": 120.0
            },
            {
                "pitch": 29,
                "velocity": 101,
                "duration": 0.1159,
                "tempo": 120.0
            },
            {
                "pitch": 29,
                "velocity": 101,
                "duration": 0.1341,
                "tempo": 120.0
            },
            {
                "pitch": 41,
                "velocity": 101,
                "duration": 0.1159,
                "tempo": 120.0
            },
            {
                "pitch": 29,
                "velocity": 101,
                "duration": 0.1182,
                "tempo": 120.0
            },
            {
                "pitch": 29,
                "velocity": 101,
                "duration": 0.2341,
                "tempo": 120.0
            },
            {
                "pitch": 29,
                "velocity": 101,
                "duration": 0.2523,
                "tempo": 120.0
            },
            {
                "pitch": 41,
                "velocity": 101,
                "duration": 0.1182,
                "tempo": 120.0
            },
            {
                "pitch": 29,
                "velocity": 101,
                "duration": 0.1205,
                "tempo": 120.0
            },
            {
                "pitch": 39,
                "velocity": 101,
                "duration": 0.1182,
                "tempo": 120.0
            },
            {
                "pitch": 41,
                "velocity": 101,
                "duration": 0.2545,
                "tempo": 120.0
            },
            {
                "pitch": 29,
                "velocity": 101,
                "duration": 0.2364,
                "tempo": 120.0
            },
            {
                "pitch": 29,
                "velocity": 101,
                "duration": 0.25,
                "tempo": 120.0
            },
            {
                "pitch": 29,
                "velocity": 101,
                "duration": 0.1136,
                "tempo": 120.0
            },
            {
                "pitch": 41,
                "velocity": 101,
                "duration": 0.1159,
                "tempo": 120.0
            },
            {
                "pitch": 29,
                "velocity": 101,
                "duration": 0.1136,
                "tempo": 120.0
            },
            {
                "pitch": 26,
                "velocity": 101,
                "duration": 0.2523,
                "tempo": 120.0
            },
            {
                "pitch": 26,
                "velocity": 101,
                "duration": 0.3523,
                "tempo": 120.0
            },
            {
                "pitch": 38,
                "velocity": 101,
                "duration": 0.3727,
                "tempo": 120.0
            },
            {
                "pitch": 26,
                "velocity": 101,
                "duration": 0.2386,
                "tempo": 120.0
            },
            {
                "pitch": 26,
                "velocity": 101,
                "duration": 0.2568,
                "tempo": 120.0
            },
            {
                "pitch": 38,
                "velocity": 101,
                "duration": 0.1182,
                "tempo": 120.0
            },
            {
                "pitch": 26,
                "velocity": 101,
                "duration": 0.1159,
                "tempo": 120.0
            },
            {
                "pitch": 26,
                "velocity": 101,
                "duration": 0.1159,
                "tempo": 120.0
            },
            {
                "pitch": 27,
                "velocity": 101,
                "duration": 0.3614,
                "tempo": 120.0
            },
            {
                "pitch": 27,
                "velocity": 101,
                "duration": 0.2318,
                "tempo": 120.0
            },
            {
                "pitch": 39,
                "velocity": 101,
                "duration": 0.1182,
                "tempo": 120.0
            },
            {
                "pitch": 27,
                "velocity": 101,
                "duration": 0.1386,
                "tempo": 120.0
            },
            {
                "pitch": 37,
                "velocity": 101,
                "duration": 0.1182,
                "tempo": 120.0
            },
            {
                "pitch": 39,
                "velocity": 101,
                "duration": 0.2364,
                "tempo": 120.0
            },
            {
                "pitch": 27,
                "velocity": 101,
                "duration": 0.2523,
                "tempo": 120.0
            },
            {
                "pitch": 27,
                "velocity": 101,
                "duration": 0.2364,
                "tempo": 120.0
            },
            {
                "pitch": 27,
                "velocity": 101,
                "duration": 0.1182,
                "tempo": 120.0
            },
            {
                "pitch": 37,
                "velocity": 101,
                "duration": 0.1182,
                "tempo": 120.0
            },
            {
                "pitch": 39,
                "velocity": 101,
                "duration": 0.1341,
                "tempo": 120.0
            },
            {
                "pitch": 29,
                "velocity": 101,
                "duration": 0.1159,
                "tempo": 120.0
            },
            {
                "pitch": 29,
                "velocity": 101,
                "duration": 0.1182,
                "tempo": 120.0
            },
            {
                "pitch": 41,
                "velocity": 101,
                "duration": 0.1159,
                "tempo": 120.0
            },
            {
                "pitch": 41,
                "velocity": 101,
                "duration": 0.1182,
                "tempo": 120.0
            },
            {
                "pitch": 29,
                "velocity": 101,
                "duration": 0.1295,
                "tempo": 120.0
            },
            {
                "pitch": 29,
                "velocity": 101,
                "duration": 0.1159,
                "tempo": 120.0
            },
            {
                "pitch": 41,
                "velocity": 101,
                "duration": 0.1136,
                "tempo": 120.0
            },
            {
                "pitch": 41,
                "velocity": 101,
                "duration": 0.1159,
                "tempo": 120.0
            },
            {
                "pitch": 29,
                "velocity": 101,
                "duration": 0.1182,
                "tempo": 120.0
            },
            {
                "pitch": 29,
                "velocity": 101,
                "duration": 0.1386,
                "tempo": 120.0
            },
            {
                "pitch": 41,
                "velocity": 101,
                "duration": 0.1182,
                "tempo": 120.0
            },
            {
                "pitch": 41,
                "velocity": 101,
                "duration": 0.1205,
                "tempo": 120.0
            },
            {
                "pitch": 29,
                "velocity": 101,
                "duration": 0.1182,
                "tempo": 120.0
            },
            {
                "pitch": 29,
                "velocity": 101,
                "duration": 0.1182,
                "tempo": 120.0
            },
            {
                "pitch": 41,
                "velocity": 101,
                "duration": 0.1341,
                "tempo": 120.0
            },
            {
                "pitch": 29,
                "velocity": 101,
                "duration": 0.1205,
                "tempo": 120.0
            },
            {
                "pitch": 29,
                "velocity": 101,
                "duration": 0.2364,
                "tempo": 120.0
            },
            {
                "pitch": 29,
                "velocity": 101,
                "duration": 0.2568,
                "tempo": 120.0
            },
            {
                "pitch": 41,
                "velocity": 101,
                "duration": 0.1159,
                "tempo": 120.0
            },
            {
                "pitch": 29,
                "velocity": 101,
                "duration": 0.1182,
                "tempo": 120.0
            },
            {
                "pitch": 39,
                "velocity": 101,
                "duration": 0.1159,
                "tempo": 120.0
            },
            {
                "pitch": 41,
                "velocity": 101,
                "duration": 0.25,
                "tempo": 120.0
            },
            {
                "pitch": 29,
                "velocity": 101,
                "duration": 0.2295,
                "tempo": 120.0
            },
            {
                "pitch": 29,
                "velocity": 101,
                "duration": 0.2318,
                "tempo": 120.0
            },
            {
                "pitch": 29,
                "velocity": 101,
                "duration": 0.1341,
                "tempo": 120.0
            },
            {
                "pitch": 41,
                "velocity": 101,
                "duration": 0.1182,
                "tempo": 120.0
            },
            {
                "pitch": 29,
                "velocity": 101,
                "duration": 0.1136,
                "tempo": 120.0
            },
            {
                "pitch": 26,
                "velocity": 101,
                "duration": 0.2364,
                "tempo": 120.0
            },
            {
                "pitch": 26,
                "velocity": 101,
                "duration": 0.3705,
                "tempo": 120.0
            },
            {
                "pitch": 38,
                "velocity": 101,
                "duration": 0.3773,
                "tempo": 120.0
            },
            {
                "pitch": 26,
                "velocity": 101,
                "duration": 0.2341,
                "tempo": 120.0
            },
            {
                "pitch": 26,
                "velocity": 101,
                "duration": 0.2364,
                "tempo": 120.0
            },
            {
                "pitch": 38,
                "velocity": 101,
                "duration": 0.1295,
                "tempo": 120.0
            },
            {
                "pitch": 26,
                "velocity": 101,
                "duration": 0.1136,
                "tempo": 120.0
            },
            {
                "pitch": 26,
                "velocity": 101,
                "duration": 0.1159,
                "tempo": 120.0
            },
            {
                "pitch": 27,
                "velocity": 101,
                "duration": 0.3659,
                "tempo": 120.0
            },
            {
                "pitch": 27,
                "velocity": 101,
                "duration": 0.2341,
                "tempo": 120.0
            },
            {
                "pitch": 39,
                "velocity": 101,
                "duration": 0.1182,
                "tempo": 120.0
            },
            {
                "pitch": 27,
                "velocity": 101,
                "duration": 0.1205,
                "tempo": 120.0
            },
            {
                "pitch": 37,
                "velocity": 101,
                "duration": 0.1364,
                "tempo": 120.0
            },
            {
                "pitch": 39,
                "velocity": 101,
                "duration": 0.2386,
                "tempo": 120.0
            },
            {
                "pitch": 27,
                "velocity": 101,
                "duration": 0.2364,
                "tempo": 120.0
            },
            {
                "pitch": 27,
                "velocity": 101,
                "duration": 0.2523,
                "tempo": 120.0
            },
            {
                "pitch": 27,
                "velocity": 101,
                "duration": 0.1205,
                "tempo": 120.0
            },
            {
                "pitch": 37,
                "velocity": 101,
                "duration": 0.1205,
                "tempo": 120.0
            },
            {
                "pitch": 39,
                "velocity": 101,
                "duration": 0.1182,
                "tempo": 120.0
            },
            {
                "pitch": 29,
                "velocity": 101,
                "duration": 0.1295,
                "tempo": 120.0
            },
            {
                "pitch": 29,
                "velocity": 101,
                "duration": 0.1114,
                "tempo": 120.0
            },
            {
                "pitch": 41,
                "velocity": 101,
                "duration": 0.1136,
                "tempo": 120.0
            },
            {
                "pitch": 41,
                "velocity": 101,
                "duration": 0.1114,
                "tempo": 120.0
            },
            {
                "pitch": 29,
                "velocity": 101,
                "duration": 0.1182,
                "tempo": 120.0
            },
            {
                "pitch": 29,
                "velocity": 101,
                "duration": 0.1386,
                "tempo": 120.0
            },
            {
                "pitch": 41,
                "velocity": 101,
                "duration": 0.1182,
                "tempo": 120.0
            },
            {
                "pitch": 41,
                "velocity": 101,
                "duration": 0.1205,
                "tempo": 120.0
            },
            {
                "pitch": 29,
                "velocity": 101,
                "duration": 0.1182,
                "tempo": 120.0
            },
            {
                "pitch": 29,
                "velocity": 101,
                "duration": 0.1182,
                "tempo": 120.0
            },
            {
                "pitch": 41,
                "velocity": 101,
                "duration": 0.1341,
                "tempo": 120.0
            },
            {
                "pitch": 41,
                "velocity": 101,
                "duration": 0.1182,
                "tempo": 120.0
            },
            {
                "pitch": 29,
                "velocity": 101,
                "duration": 0.1159,
                "tempo": 120.0
            },
            {
                "pitch": 29,
                "velocity": 101,
                "duration": 0.1205,
                "tempo": 120.0
            },
            {
                "pitch": 41,
                "velocity": 101,
                "duration": 0.1159,
                "tempo": 120.0
            },
            {
                "pitch": 29,
                "velocity": 101,
                "duration": 0.1341,
                "tempo": 120.0
            },
            {
                "pitch": 29,
                "velocity": 101,
                "duration": 0.2409,
                "tempo": 120.0
            },
            {
                "pitch": 29,
                "velocity": 101,
                "duration": 0.2386,
                "tempo": 120.0
            },
            {
                "pitch": 41,
                "velocity": 101,
                "duration": 0.1295,
                "tempo": 120.0
            },
            {
                "pitch": 29,
                "velocity": 101,
                "duration": 0.1182,
                "tempo": 120.0
            },
            {
                "pitch": 39,
                "velocity": 101,
                "duration": 0.1136,
                "tempo": 120.0
            },
            {
                "pitch": 41,
                "velocity": 101,
                "duration": 0.2318,
                "tempo": 120.0
            },
            {
                "pitch": 29,
                "velocity": 101,
                "duration": 0.2523,
                "tempo": 120.0
            },
            {
                "pitch": 29,
                "velocity": 101,
                "duration": 0.2364,
                "tempo": 120.0
            },
            {
                "pitch": 29,
                "velocity": 101,
                "duration": 0.1182,
                "tempo": 120.0
            },
            {
                "pitch": 41,
                "velocity": 101,
                "duration": 0.1341,
                "tempo": 120.0
            },
            {
                "pitch": 29,
                "velocity": 101,
                "duration": 0.1182,
                "tempo": 120.0
            },
            {
                "pitch": 26,
                "velocity": 101,
                "duration": 0.2386,
                "tempo": 120.0
            },
            {
                "pitch": 26,
                "velocity": 101,
                "duration": 0.3727,
                "tempo": 120.0
            },
            {
                "pitch": 38,
                "velocity": 101,
                "duration": 0.3545,
                "tempo": 120.0
            },
            {
                "pitch": 26,
                "velocity": 101,
                "duration": 0.2477,
                "tempo": 120.0
            },
            {
                "pitch": 26,
                "velocity": 101,
                "duration": 0.2295,
                "tempo": 120.0
            },
            {
                "pitch": 38,
                "velocity": 101,
                "duration": 0.1159,
                "tempo": 120.0
            },
            {
                "pitch": 26,
                "velocity": 101,
                "duration": 0.1341,
                "tempo": 120.0
            },
            {
                "pitch": 26,
                "velocity": 101,
                "duration": 0.1182,
                "tempo": 120.0
            },
            {
                "pitch": 27,
                "velocity": 101,
                "duration": 0.3545,
                "tempo": 120.0
            },
            {
                "pitch": 27,
                "velocity": 101,
                "duration": 0.2568,
                "tempo": 120.0
            },
            {
                "pitch": 39,
                "velocity": 101,
                "duration": 0.1159,
                "tempo": 120.0
            },
            {
                "pitch": 27,
                "velocity": 101,
                "duration": 0.1205,
                "tempo": 120.0
            },
            {
                "pitch": 37,
                "velocity": 101,
                "duration": 0.1159,
                "tempo": 120.0
            },
            {
                "pitch": 39,
                "velocity": 101,
                "duration": 0.2523,
                "tempo": 120.0
            },
            {
                "pitch": 27,
                "velocity": 101,
                "duration": 0.2318,
                "tempo": 120.0
            },
            {
                "pitch": 27,
                "velocity": 101,
                "duration": 0.25,
                "tempo": 120.0
            },
            {
                "pitch": 27,
                "velocity": 101,
                "duration": 0.1136,
                "tempo": 120.0
            },
            {
                "pitch": 37,
                "velocity": 101,
                "duration": 0.1159,
                "tempo": 120.0
            },
            {
                "pitch": 39,
                "velocity": 101,
                "duration": 0.1159,
                "tempo": 120.0
            },
            {
                "pitch": 29,
                "velocity": 101,
                "duration": 0.1182,
                "tempo": 120.0
            },
            {
                "pitch": 29,
                "velocity": 101,
                "duration": 0.1364,
                "tempo": 120.0
            },
            {
                "pitch": 41,
                "velocity": 101,
                "duration": 0.1205,
                "tempo": 120.0
            },
            {
                "pitch": 41,
                "velocity": 101,
                "duration": 0.1205,
                "tempo": 120.0
            },
            {
                "pitch": 29,
                "velocity": 101,
                "duration": 0.1159,
                "tempo": 120.0
            },
            {
                "pitch": 29,
                "velocity": 101,
                "duration": 0.1182,
                "tempo": 120.0
            },
            {
                "pitch": 41,
                "velocity": 101,
                "duration": 0.1318,
                "tempo": 120.0
            },
            {
                "pitch": 41,
                "velocity": 101,
                "duration": 0.1182,
                "tempo": 120.0
            },
            {
                "pitch": 29,
                "velocity": 101,
                "duration": 0.1159,
                "tempo": 120.0
            },
            {
                "pitch": 29,
                "velocity": 101,
                "duration": 0.1182,
                "tempo": 120.0
            },
            {
                "pitch": 41,
                "velocity": 101,
                "duration": 0.1159,
                "tempo": 120.0
            },
            {
                "pitch": 41,
                "velocity": 101,
                "duration": 0.1341,
                "tempo": 120.0
            },
            {
                "pitch": 29,
                "velocity": 101,
                "duration": 0.1205,
                "tempo": 120.0
            },
            {
                "pitch": 29,
                "velocity": 101,
                "duration": 0.1205,
                "tempo": 120.0
            },
            {
                "pitch": 41,
                "velocity": 101,
                "duration": 0.1182,
                "tempo": 120.0
            },
            {
                "pitch": 29,
                "velocity": 101,
                "duration": 7.8477,
                "tempo": 120.0
            },
            {
                "pitch": 31,
                "velocity": 101,
                "duration": 0.2477,
                "tempo": 120.0
            },
            {
                "pitch": 31,
                "velocity": 101,
                "duration": 0.2341,
                "tempo": 120.0
            },
            {
                "pitch": 43,
                "velocity": 101,
                "duration": 0.1159,
                "tempo": 120.0
            },
            {
                "pitch": 31,
                "velocity": 101,
                "duration": 0.1182,
                "tempo": 120.0
            },
            {
                "pitch": 41,
                "velocity": 101,
                "duration": 0.1318,
                "tempo": 120.0
            },
            {
                "pitch": 43,
                "velocity": 101,
                "duration": 0.2341,
                "tempo": 120.0
            },
            {
                "pitch": 31,
                "velocity": 101,
                "duration": 0.2341,
                "tempo": 120.0
            },
            {
                "pitch": 31,
                "velocity": 101,
                "duration": 0.2523,
                "tempo": 120.0
            },
            {
                "pitch": 31,
                "velocity": 101,
                "duration": 0.1205,
                "tempo": 120.0
            },
            {
                "pitch": 43,
                "velocity": 101,
                "duration": 0.1205,
                "tempo": 120.0
            },
            {
                "pitch": 31,
                "velocity": 101,
                "duration": 0.1182,
                "tempo": 120.0
            },
            {
                "pitch": 28,
                "velocity": 101,
                "duration": 0.2477,
                "tempo": 120.0
            },
            {
                "pitch": 28,
                "velocity": 101,
                "duration": 0.3455,
                "tempo": 120.0
            },
            {
                "pitch": 40,
                "velocity": 101,
                "duration": 0.3682,
                "tempo": 120.0
            },
            {
                "pitch": 28,
                "velocity": 101,
                "duration": 0.2364,
                "tempo": 120.0
            },
            {
                "pitch": 28,
                "velocity": 101,
                "duration": 0.2523,
                "tempo": 120.0
            },
            {
                "pitch": 40,
                "velocity": 101,
                "duration": 0.1182,
                "tempo": 120.0
            },
            {
                "pitch": 28,
                "velocity": 101,
                "duration": 0.1205,
                "tempo": 120.0
            },
            {
                "pitch": 28,
                "velocity": 101,
                "duration": 0.1182,
                "tempo": 120.0
            },
            {
                "pitch": 29,
                "velocity": 101,
                "duration": 0.3705,
                "tempo": 120.0
            },
            {
                "pitch": 29,
                "velocity": 101,
                "duration": 0.2364,
                "tempo": 120.0
            },
            {
                "pitch": 41,
                "velocity": 101,
                "duration": 0.1295,
                "tempo": 120.0
            },
            {
                "pitch": 29,
                "velocity": 101,
                "duration": 0.1159,
                "tempo": 120.0
            },
            {
                "pitch": 39,
                "velocity": 101,
                "duration": 0.1114,
                "tempo": 120.0
            },
            {
                "pitch": 41,
                "velocity": 101,
                "duration": 0.2295,
                "tempo": 120.0
            },
            {
                "pitch": 29,
                "velocity": 101,
                "duration": 0.25,
                "tempo": 120.0
            },
            {
                "pitch": 29,
                "velocity": 101,
                "duration": 0.2364,
                "tempo": 120.0
            },
            {
                "pitch": 29,
                "velocity": 101,
                "duration": 0.1205,
                "tempo": 120.0
            },
            {
                "pitch": 39,
                "velocity": 101,
                "duration": 0.1364,
                "tempo": 120.0
            },
            {
                "pitch": 41,
                "velocity": 101,
                "duration": 0.1182,
                "tempo": 120.0
            },
            {
                "pitch": 31,
                "velocity": 101,
                "duration": 0.1159,
                "tempo": 120.0
            },
            {
                "pitch": 31,
                "velocity": 101,
                "duration": 0.1159,
                "tempo": 120.0
            },
            {
                "pitch": 43,
                "velocity": 101,
                "duration": 0.1136,
                "tempo": 120.0
            },
            {
                "pitch": 43,
                "velocity": 101,
                "duration": 0.1341,
                "tempo": 120.0
            },
            {
                "pitch": 31,
                "velocity": 101,
                "duration": 0.1159,
                "tempo": 120.0
            },
            {
                "pitch": 31,
                "velocity": 101,
                "duration": 0.1205,
                "tempo": 120.0
            },
            {
                "pitch": 43,
                "velocity": 101,
                "duration": 0.1182,
                "tempo": 120.0
            },
            {
                "pitch": 43,
                "velocity": 101,
                "duration": 0.1205,
                "tempo": 120.0
            },
            {
                "pitch": 31,
                "velocity": 101,
                "duration": 0.1273,
                "tempo": 120.0
            },
            {
                "pitch": 31,
                "velocity": 101,
                "duration": 0.1136,
                "tempo": 120.0
            },
            {
                "pitch": 43,
                "velocity": 101,
                "duration": 0.1114,
                "tempo": 120.0
            },
            {
                "pitch": 43,
                "velocity": 101,
                "duration": 0.1136,
                "tempo": 120.0
            },
            {
                "pitch": 31,
                "velocity": 101,
                "duration": 0.1182,
                "tempo": 120.0
            },
            {
                "pitch": 31,
                "velocity": 101,
                "duration": 0.1386,
                "tempo": 120.0
            },
            {
                "pitch": 43,
                "velocity": 101,
                "duration": 0.1182,
                "tempo": 120.0
            },
            {
                "pitch": 31,
                "velocity": 101,
                "duration": 0.1205,
                "tempo": 120.0
            },
            {
                "pitch": 31,
                "velocity": 101,
                "duration": 0.2341,
                "tempo": 120.0
            },
            {
                "pitch": 31,
                "velocity": 101,
                "duration": 0.25,
                "tempo": 120.0
            },
            {
                "pitch": 43,
                "velocity": 101,
                "duration": 0.1182,
                "tempo": 120.0
            },
            {
                "pitch": 31,
                "velocity": 101,
                "duration": 0.1205,
                "tempo": 120.0
            },
            {
                "pitch": 41,
                "velocity": 101,
                "duration": 0.1182,
                "tempo": 120.0
            },
            {
                "pitch": 43,
                "velocity": 101,
                "duration": 0.2545,
                "tempo": 120.0
            },
            {
                "pitch": 31,
                "velocity": 101,
                "duration": 0.2341,
                "tempo": 120.0
            },
            {
                "pitch": 31,
                "velocity": 101,
                "duration": 0.2477,
                "tempo": 120.0
            },
            {
                "pitch": 31,
                "velocity": 101,
                "duration": 0.1159,
                "tempo": 120.0
            },
            {
                "pitch": 43,
                "velocity": 101,
                "duration": 0.1136,
                "tempo": 120.0
            },
            {
                "pitch": 31,
                "velocity": 101,
                "duration": 0.1159,
                "tempo": 120.0
            },
            {
                "pitch": 28,
                "velocity": 101,
                "duration": 0.25,
                "tempo": 120.0
            },
            {
                "pitch": 28,
                "velocity": 101,
                "duration": 0.35,
                "tempo": 120.0
            },
            {
                "pitch": 40,
                "velocity": 101,
                "duration": 0.3682,
                "tempo": 120.0
            },
            {
                "pitch": 28,
                "velocity": 101,
                "duration": 0.2386,
                "tempo": 120.0
            },
            {
                "pitch": 28,
                "velocity": 101,
                "duration": 0.2568,
                "tempo": 120.0
            },
            {
                "pitch": 40,
                "velocity": 101,
                "duration": 0.1159,
                "tempo": 120.0
            },
            {
                "pitch": 28,
                "velocity": 101,
                "duration": 0.1182,
                "tempo": 120.0
            },
            {
                "pitch": 28,
                "velocity": 101,
                "duration": 0.1159,
                "tempo": 120.0
            },
            {
                "pitch": 29,
                "velocity": 101,
                "duration": 0.3636,
                "tempo": 120.0
            },
            {
                "pitch": 29,
                "velocity": 101,
                "duration": 0.2295,
                "tempo": 120.0
            },
            {
                "pitch": 41,
                "velocity": 101,
                "duration": 0.1159,
                "tempo": 120.0
            },
            {
                "pitch": 29,
                "velocity": 101,
                "duration": 0.1364,
                "tempo": 120.0
            },
            {
                "pitch": 39,
                "velocity": 101,
                "duration": 0.1159,
                "tempo": 120.0
            },
            {
                "pitch": 41,
                "velocity": 101,
                "duration": 0.2386,
                "tempo": 120.0
            },
            {
                "pitch": 29,
                "velocity": 101,
                "duration": 0.2568,
                "tempo": 120.0
            },
            {
                "pitch": 29,
                "velocity": 101,
                "duration": 0.2364,
                "tempo": 120.0
            },
            {
                "pitch": 29,
                "velocity": 101,
                "duration": 0.1205,
                "tempo": 120.0
            },
            {
                "pitch": 39,
                "velocity": 101,
                "duration": 0.1159,
                "tempo": 120.0
            },
            {
                "pitch": 41,
                "velocity": 101,
                "duration": 0.1341,
                "tempo": 120.0
            },
            {
                "pitch": 31,
                "velocity": 101,
                "duration": 0.1159,
                "tempo": 120.0
            },
            {
                "pitch": 31,
                "velocity": 101,
                "duration": 0.1159,
                "tempo": 120.0
            },
            {
                "pitch": 43,
                "velocity": 101,
                "duration": 0.1159,
                "tempo": 120.0
            },
            {
                "pitch": 43,
                "velocity": 101,
                "duration": 0.1182,
                "tempo": 120.0
            },
            {
                "pitch": 31,
                "velocity": 101,
                "duration": 0.1295,
                "tempo": 120.0
            },
            {
                "pitch": 31,
                "velocity": 101,
                "duration": 0.1182,
                "tempo": 120.0
            },
            {
                "pitch": 43,
                "velocity": 101,
                "duration": 0.1136,
                "tempo": 120.0
            },
            {
                "pitch": 43,
                "velocity": 101,
                "duration": 0.1159,
                "tempo": 120.0
            },
            {
                "pitch": 31,
                "velocity": 101,
                "duration": 0.1182,
                "tempo": 120.0
            },
            {
                "pitch": 31,
                "velocity": 101,
                "duration": 0.1386,
                "tempo": 120.0
            },
            {
                "pitch": 43,
                "velocity": 101,
                "duration": 0.1182,
                "tempo": 120.0
            },
            {
                "pitch": 43,
                "velocity": 101,
                "duration": 0.1205,
                "tempo": 120.0
            },
            {
                "pitch": 31,
                "velocity": 101,
                "duration": 0.1159,
                "tempo": 120.0
            },
            {
                "pitch": 31,
                "velocity": 101,
                "duration": 0.1182,
                "tempo": 120.0
            },
            {
                "pitch": 43,
                "velocity": 101,
                "duration": 0.1318,
                "tempo": 120.0
            },
            {
                "pitch": 31,
                "velocity": 101,
                "duration": 0.1182,
                "tempo": 120.0
            },
            {
                "pitch": 31,
                "velocity": 101,
                "duration": 0.2318,
                "tempo": 120.0
            },
            {
                "pitch": 31,
                "velocity": 101,
                "duration": 0.2523,
                "tempo": 120.0
            },
            {
                "pitch": 43,
                "velocity": 101,
                "duration": 0.1159,
                "tempo": 120.0
            },
            {
                "pitch": 31,
                "velocity": 101,
                "duration": 0.1227,
                "tempo": 120.0
            },
            {
                "pitch": 41,
                "velocity": 101,
                "duration": 0.1182,
                "tempo": 120.0
            },
            {
                "pitch": 43,
                "velocity": 101,
                "duration": 0.2477,
                "tempo": 120.0
            },
            {
                "pitch": 31,
                "velocity": 101,
                "duration": 0.225,
                "tempo": 120.0
            },
            {
                "pitch": 31,
                "velocity": 101,
                "duration": 0.2318,
                "tempo": 120.0
            },
            {
                "pitch": 31,
                "velocity": 101,
                "duration": 0.1364,
                "tempo": 120.0
            },
            {
                "pitch": 43,
                "velocity": 101,
                "duration": 0.1182,
                "tempo": 120.0
            },
            {
                "pitch": 31,
                "velocity": 101,
                "duration": 0.1182,
                "tempo": 120.0
            },
            {
                "pitch": 28,
                "velocity": 101,
                "duration": 0.2318,
                "tempo": 120.0
            },
            {
                "pitch": 28,
                "velocity": 101,
                "duration": 0.3682,
                "tempo": 120.0
            },
            {
                "pitch": 40,
                "velocity": 101,
                "duration": 0.3773,
                "tempo": 120.0
            },
            {
                "pitch": 28,
                "velocity": 101,
                "duration": 0.2341,
                "tempo": 120.0
            },
            {
                "pitch": 28,
                "velocity": 101,
                "duration": 0.2318,
                "tempo": 120.0
            },
            {
                "pitch": 40,
                "velocity": 101,
                "duration": 0.1318,
                "tempo": 120.0
            },
            {
                "pitch": 28,
                "velocity": 101,
                "duration": 0.1159,
                "tempo": 120.0
            },
            {
                "pitch": 28,
                "velocity": 101,
                "duration": 0.1136,
                "tempo": 120.0
            },
            {
                "pitch": 29,
                "velocity": 101,
                "duration": 0.3659,
                "tempo": 120.0
            },
            {
                "pitch": 29,
                "velocity": 101,
                "duration": 0.2341,
                "tempo": 120.0
            },
            {
                "pitch": 41,
                "velocity": 101,
                "duration": 0.1182,
                "tempo": 120.0
            },
            {
                "pitch": 29,
                "velocity": 101,
                "duration": 0.1205,
                "tempo": 120.0
            },
            {
                "pitch": 39,
                "velocity": 101,
                "duration": 0.1364,
                "tempo": 120.0
            },
            {
                "pitch": 41,
                "velocity": 101,
                "duration": 0.2364,
                "tempo": 120.0
            },
            {
                "pitch": 29,
                "velocity": 101,
                "duration": 0.2341,
                "tempo": 120.0
            },
            {
                "pitch": 29,
                "velocity": 101,
                "duration": 0.25,
                "tempo": 120.0
            },
            {
                "pitch": 29,
                "velocity": 101,
                "duration": 0.1159,
                "tempo": 120.0
            },
            {
                "pitch": 39,
                "velocity": 101,
                "duration": 0.1159,
                "tempo": 120.0
            },
            {
                "pitch": 41,
                "velocity": 101,
                "duration": 0.1182,
                "tempo": 120.0
            },
            {
                "pitch": 31,
                "velocity": 101,
                "duration": 0.1318,
                "tempo": 120.0
            },
            {
                "pitch": 31,
                "velocity": 101,
                "duration": 0.1136,
                "tempo": 120.0
            },
            {
                "pitch": 43,
                "velocity": 101,
                "duration": 0.1136,
                "tempo": 120.0
            },
            {
                "pitch": 43,
                "velocity": 101,
                "duration": 0.1136,
                "tempo": 120.0
            },
            {
                "pitch": 31,
                "velocity": 101,
                "duration": 0.1182,
                "tempo": 120.0
            },
            {
                "pitch": 31,
                "velocity": 101,
                "duration": 0.1364,
                "tempo": 120.0
            },
            {
                "pitch": 43,
                "velocity": 101,
                "duration": 0.1182,
                "tempo": 120.0
            },
            {
                "pitch": 43,
                "velocity": 101,
                "duration": 0.1205,
                "tempo": 120.0
            },
            {
                "pitch": 31,
                "velocity": 101,
                "duration": 0.1159,
                "tempo": 120.0
            },
            {
                "pitch": 31,
                "velocity": 101,
                "duration": 0.1182,
                "tempo": 120.0
            },
            {
                "pitch": 43,
                "velocity": 101,
                "duration": 0.1318,
                "tempo": 120.0
            },
            {
                "pitch": 43,
                "velocity": 101,
                "duration": 0.1182,
                "tempo": 120.0
            },
            {
                "pitch": 31,
                "velocity": 101,
                "duration": 0.1159,
                "tempo": 120.0
            },
            {
                "pitch": 31,
                "velocity": 101,
                "duration": 0.1182,
                "tempo": 120.0
            },
            {
                "pitch": 43,
                "velocity": 101,
                "duration": 0.1159,
                "tempo": 120.0
            },
            {
                "pitch": 31,
                "velocity": 101,
                "duration": 0.1318,
                "tempo": 120.0
            },
            {
                "pitch": 31,
                "velocity": 101,
                "duration": 0.2386,
                "tempo": 120.0
            },
            {
                "pitch": 31,
                "velocity": 101,
                "duration": 0.2386,
                "tempo": 120.0
            },
            {
                "pitch": 43,
                "velocity": 101,
                "duration": 0.1295,
                "tempo": 120.0
            },
            {
                "pitch": 31,
                "velocity": 101,
                "duration": 0.1159,
                "tempo": 120.0
            },
            {
                "pitch": 41,
                "velocity": 101,
                "duration": 0.1136,
                "tempo": 120.0
            },
            {
                "pitch": 43,
                "velocity": 101,
                "duration": 0.2318,
                "tempo": 120.0
            },
            {
                "pitch": 31,
                "velocity": 101,
                "duration": 0.25,
                "tempo": 120.0
            },
            {
                "pitch": 31,
                "velocity": 101,
                "duration": 0.2341,
                "tempo": 120.0
            },
            {
                "pitch": 31,
                "velocity": 101,
                "duration": 0.1182,
                "tempo": 120.0
            },
            {
                "pitch": 43,
                "velocity": 101,
                "duration": 0.1318,
                "tempo": 120.0
            },
            {
                "pitch": 31,
                "velocity": 101,
                "duration": 0.1159,
                "tempo": 120.0
            },
            {
                "pitch": 28,
                "velocity": 101,
                "duration": 0.2409,
                "tempo": 120.0
            },
            {
                "pitch": 28,
                "velocity": 101,
                "duration": 0.3727,
                "tempo": 120.0
            },
            {
                "pitch": 40,
                "velocity": 101,
                "duration": 0.3545,
                "tempo": 120.0
            },
            {
                "pitch": 28,
                "velocity": 101,
                "duration": 0.2455,
                "tempo": 120.0
            },
            {
                "pitch": 28,
                "velocity": 101,
                "duration": 0.2295,
                "tempo": 120.0
            },
            {
                "pitch": 40,
                "velocity": 101,
                "duration": 0.1182,
                "tempo": 120.0
            },
            {
                "pitch": 28,
                "velocity": 101,
                "duration": 0.1341,
                "tempo": 120.0
            },
            {
                "pitch": 28,
                "velocity": 101,
                "duration": 0.1159,
                "tempo": 120.0
            },
            {
                "pitch": 29,
                "velocity": 101,
                "duration": 0.3568,
                "tempo": 120.0
            },
            {
                "pitch": 29,
                "velocity": 101,
                "duration": 0.2545,
                "tempo": 120.0
            },
            {
                "pitch": 41,
                "velocity": 101,
                "duration": 0.1159,
                "tempo": 120.0
            },
            {
                "pitch": 29,
                "velocity": 101,
                "duration": 0.1182,
                "tempo": 120.0
            },
            {
                "pitch": 39,
                "velocity": 101,
                "duration": 0.1159,
                "tempo": 120.0
            },
            {
                "pitch": 41,
                "velocity": 101,
                "duration": 0.2523,
                "tempo": 120.0
            },
            {
                "pitch": 29,
                "velocity": 101,
                "duration": 0.2364,
                "tempo": 120.0
            },
            {
                "pitch": 29,
                "velocity": 101,
                "duration": 0.2477,
                "tempo": 120.0
            },
            {
                "pitch": 29,
                "velocity": 101,
                "duration": 0.1159,
                "tempo": 120.0
            },
            {
                "pitch": 39,
                "velocity": 101,
                "duration": 0.1159,
                "tempo": 120.0
            },
            {
                "pitch": 41,
                "velocity": 101,
                "duration": 0.1136,
                "tempo": 120.0
            },
            {
                "pitch": 31,
                "velocity": 101,
                "duration": 0.1182,
                "tempo": 120.0
            },
            {
                "pitch": 31,
                "velocity": 101,
                "duration": 0.1364,
                "tempo": 120.0
            },
            {
                "pitch": 43,
                "velocity": 101,
                "duration": 0.1182,
                "tempo": 120.0
            },
            {
                "pitch": 43,
                "velocity": 101,
                "duration": 0.1205,
                "tempo": 120.0
            },
            {
                "pitch": 31,
                "velocity": 101,
                "duration": 0.1182,
                "tempo": 120.0
            },
            {
                "pitch": 31,
                "velocity": 101,
                "duration": 0.1182,
                "tempo": 120.0
            },
            {
                "pitch": 43,
                "velocity": 101,
                "duration": 0.1341,
                "tempo": 120.0
            },
            {
                "pitch": 43,
                "velocity": 101,
                "duration": 0.1182,
                "tempo": 120.0
            },
            {
                "pitch": 31,
                "velocity": 101,
                "duration": 0.1159,
                "tempo": 120.0
            },
            {
                "pitch": 31,
                "velocity": 101,
                "duration": 0.1182,
                "tempo": 120.0
            },
            {
                "pitch": 43,
                "velocity": 101,
                "duration": 0.1159,
                "tempo": 120.0
            },
            {
                "pitch": 43,
                "velocity": 101,
                "duration": 0.1341,
                "tempo": 120.0
            },
            {
                "pitch": 31,
                "velocity": 101,
                "duration": 0.1182,
                "tempo": 120.0
            },
            {
                "pitch": 31,
                "velocity": 101,
                "duration": 0.1205,
                "tempo": 120.0
            },
            {
                "pitch": 43,
                "velocity": 101,
                "duration": 0.1205,
                "tempo": 120.0
            },
            {
                "pitch": 31,
                "velocity": 101,
                "duration": 0.1205,
                "tempo": 120.0
            },
            {
                "pitch": 31,
                "velocity": 101,
                "duration": 0.2455,
                "tempo": 120.0
            },
            {
                "pitch": 31,
                "velocity": 101,
                "duration": 0.2295,
                "tempo": 120.0
            },
            {
                "pitch": 43,
                "velocity": 101,
                "duration": 0.1159,
                "tempo": 120.0
            },
            {
                "pitch": 31,
                "velocity": 101,
                "duration": 0.1341,
                "tempo": 120.0
            },
            {
                "pitch": 41,
                "velocity": 101,
                "duration": 0.1159,
                "tempo": 120.0
            },
            {
                "pitch": 43,
                "velocity": 101,
                "duration": 0.2341,
                "tempo": 120.0
            },
            {
                "pitch": 31,
                "velocity": 101,
                "duration": 0.25,
                "tempo": 120.0
            },
            {
                "pitch": 31,
                "velocity": 101,
                "duration": 0.2364,
                "tempo": 120.0
            },
            {
                "pitch": 31,
                "velocity": 101,
                "duration": 0.1205,
                "tempo": 120.0
            },
            {
                "pitch": 43,
                "velocity": 101,
                "duration": 0.1205,
                "tempo": 120.0
            },
            {
                "pitch": 31,
                "velocity": 101,
                "duration": 0.1364,
                "tempo": 120.0
            },
            {
                "pitch": 28,
                "velocity": 101,
                "duration": 0.2341,
                "tempo": 120.0
            },
            {
                "pitch": 28,
                "velocity": 101,
                "duration": 0.3636,
                "tempo": 120.0
            },
            {
                "pitch": 40,
                "velocity": 101,
                "duration": 0.3455,
                "tempo": 120.0
            },
            {
                "pitch": 28,
                "velocity": 101,
                "duration": 0.2523,
                "tempo": 120.0
            },
            {
                "pitch": 28,
                "velocity": 101,
                "duration": 0.2341,
                "tempo": 120.0
            },
            {
                "pitch": 40,
                "velocity": 101,
                "duration": 0.1182,
                "tempo": 120.0
            },
            {
                "pitch": 28,
                "velocity": 101,
                "duration": 0.1205,
                "tempo": 120.0
            },
            {
                "pitch": 28,
                "velocity": 101,
                "duration": 0.1364,
                "tempo": 120.0
            },
            {
                "pitch": 29,
                "velocity": 101,
                "duration": 0.3545,
                "tempo": 120.0
            },
            {
                "pitch": 29,
                "velocity": 101,
                "duration": 0.25,
                "tempo": 120.0
            },
            {
                "pitch": 41,
                "velocity": 101,
                "duration": 0.1159,
                "tempo": 120.0
            },
            {
                "pitch": 29,
                "velocity": 101,
                "duration": 0.1182,
                "tempo": 120.0
            },
            {
                "pitch": 39,
                "velocity": 101,
                "duration": 0.1159,
                "tempo": 120.0
            },
            {
                "pitch": 41,
                "velocity": 101,
                "duration": 0.2477,
                "tempo": 120.0
            },
            {
                "pitch": 29,
                "velocity": 101,
                "duration": 0.2295,
                "tempo": 120.0
            },
            {
                "pitch": 29,
                "velocity": 101,
                "duration": 0.2341,
                "tempo": 120.0
            },
            {
                "pitch": 29,
                "velocity": 101,
                "duration": 0.1386,
                "tempo": 120.0
            },
            {
                "pitch": 39,
                "velocity": 101,
                "duration": 0.1182,
                "tempo": 120.0
            },
            {
                "pitch": 41,
                "velocity": 101,
                "duration": 0.1182,
                "tempo": 120.0
            },
            {
                "pitch": 31,
                "velocity": 101,
                "duration": 0.1159,
                "tempo": 120.0
            },
            {
                "pitch": 31,
                "velocity": 101,
                "duration": 0.1182,
                "tempo": 120.0
            },
            {
                "pitch": 43,
                "velocity": 101,
                "duration": 0.1318,
                "tempo": 120.0
            },
            {
                "pitch": 43,
                "velocity": 101,
                "duration": 0.1182,
                "tempo": 120.0
            },
            {
                "pitch": 31,
                "velocity": 101,
                "duration": 0.1159,
                "tempo": 120.0
            },
            {
                "pitch": 31,
                "velocity": 101,
                "duration": 0.1205,
                "tempo": 120.0
            },
            {
                "pitch": 43,
                "velocity": 101,
                "duration": 0.1159,
                "tempo": 120.0
            },
            {
                "pitch": 43,
                "velocity": 101,
                "duration": 0.1364,
                "tempo": 120.0
            },
            {
                "pitch": 31,
                "velocity": 101,
                "duration": 0.1182,
                "tempo": 120.0
            },
            {
                "pitch": 31,
                "velocity": 101,
                "duration": 0.1205,
                "tempo": 120.0
            },
            {
                "pitch": 43,
                "velocity": 101,
                "duration": 0.1182,
                "tempo": 120.0
            },
            {
                "pitch": 43,
                "velocity": 101,
                "duration": 0.1205,
                "tempo": 120.0
            },
            {
                "pitch": 31,
                "velocity": 101,
                "duration": 0.1273,
                "tempo": 120.0
            },
            {
                "pitch": 31,
                "velocity": 101,
                "duration": 0.1136,
                "tempo": 120.0
            },
            {
                "pitch": 43,
                "velocity": 101,
                "duration": 0.1114,
                "tempo": 120.0
            },
            {
                "pitch": 31,
                "velocity": 101,
                "duration": 0.1136,
                "tempo": 120.0
            },
            {
                "pitch": 31,
                "velocity": 101,
                "duration": 0.2568,
                "tempo": 120.0
            },
            {
                "pitch": 31,
                "velocity": 101,
                "duration": 0.2386,
                "tempo": 120.0
            },
            {
                "pitch": 43,
                "velocity": 101,
                "duration": 0.1159,
                "tempo": 120.0
            },
            {
                "pitch": 31,
                "velocity": 101,
                "duration": 0.1182,
                "tempo": 120.0
            },
            {
                "pitch": 41,
                "velocity": 101,
                "duration": 0.1318,
                "tempo": 120.0
            },
            {
                "pitch": 43,
                "velocity": 101,
                "duration": 0.2341,
                "tempo": 120.0
            },
            {
                "pitch": 31,
                "velocity": 101,
                "duration": 0.2341,
                "tempo": 120.0
            },
            {
                "pitch": 31,
                "velocity": 101,
                "duration": 0.2523,
                "tempo": 120.0
            },
            {
                "pitch": 31,
                "velocity": 101,
                "duration": 0.1205,
                "tempo": 120.0
            },
            {
                "pitch": 43,
                "velocity": 101,
                "duration": 0.1205,
                "tempo": 120.0
            },
            {
                "pitch": 31,
                "velocity": 101,
                "duration": 0.1182,
                "tempo": 120.0
            },
            {
                "pitch": 28,
                "velocity": 101,
                "duration": 0.2477,
                "tempo": 120.0
            },
            {
                "pitch": 28,
                "velocity": 101,
                "duration": 0.3455,
                "tempo": 120.0
            },
            {
                "pitch": 40,
                "velocity": 101,
                "duration": 0.3727,
                "tempo": 120.0
            },
            {
                "pitch": 28,
                "velocity": 101,
                "duration": 0.2341,
                "tempo": 120.0
            },
            {
                "pitch": 28,
                "velocity": 101,
                "duration": 0.2477,
                "tempo": 120.0
            },
            {
                "pitch": 40,
                "velocity": 101,
                "duration": 0.1182,
                "tempo": 120.0
            },
            {
                "pitch": 28,
                "velocity": 101,
                "duration": 0.1205,
                "tempo": 120.0
            },
            {
                "pitch": 28,
                "velocity": 101,
                "duration": 0.1205,
                "tempo": 120.0
            },
            {
                "pitch": 29,
                "velocity": 101,
                "duration": 0.3705,
                "tempo": 120.0
            },
            {
                "pitch": 29,
                "velocity": 101,
                "duration": 0.2318,
                "tempo": 120.0
            },
            {
                "pitch": 41,
                "velocity": 101,
                "duration": 0.1295,
                "tempo": 120.0
            },
            {
                "pitch": 29,
                "velocity": 101,
                "duration": 0.1159,
                "tempo": 120.0
            },
            {
                "pitch": 39,
                "velocity": 101,
                "duration": 0.1136,
                "tempo": 120.0
            },
            {
                "pitch": 41,
                "velocity": 101,
                "duration": 0.2318,
                "tempo": 120.0
            },
            {
                "pitch": 29,
                "velocity": 101,
                "duration": 0.25,
                "tempo": 120.0
            },
            {
                "pitch": 29,
                "velocity": 101,
                "duration": 0.2364,
                "tempo": 120.0
            },
            {
                "pitch": 29,
                "velocity": 101,
                "duration": 0.1205,
                "tempo": 120.0
            },
            {
                "pitch": 39,
                "velocity": 101,
                "duration": 0.1364,
                "tempo": 120.0
            },
            {
                "pitch": 41,
                "velocity": 101,
                "duration": 0.1205,
                "tempo": 120.0
            },
            {
                "pitch": 31,
                "velocity": 101,
                "duration": 0.1159,
                "tempo": 120.0
            },
            {
                "pitch": 31,
                "velocity": 101,
                "duration": 0.1182,
                "tempo": 120.0
            },
            {
                "pitch": 43,
                "velocity": 101,
                "duration": 0.1159,
                "tempo": 120.0
            },
            {
                "pitch": 43,
                "velocity": 101,
                "duration": 0.1341,
                "tempo": 120.0
            },
            {
                "pitch": 31,
                "velocity": 101,
                "duration": 0.1159,
                "tempo": 120.0
            },
            {
                "pitch": 31,
                "velocity": 101,
                "duration": 0.1182,
                "tempo": 120.0
            },
            {
                "pitch": 43,
                "velocity": 101,
                "duration": 0.1159,
                "tempo": 120.0
            },
            {
                "pitch": 43,
                "velocity": 101,
                "duration": 0.1182,
                "tempo": 120.0
            },
            {
                "pitch": 31,
                "velocity": 101,
                "duration": 0.1295,
                "tempo": 120.0
            },
            {
                "pitch": 31,
                "velocity": 101,
                "duration": 0.1182,
                "tempo": 120.0
            },
            {
                "pitch": 43,
                "velocity": 101,
                "duration": 0.1136,
                "tempo": 120.0
            },
            {
                "pitch": 43,
                "velocity": 101,
                "duration": 0.1159,
                "tempo": 120.0
            },
            {
                "pitch": 31,
                "velocity": 101,
                "duration": 0.1182,
                "tempo": 120.0
            },
            {
                "pitch": 31,
                "velocity": 101,
                "duration": 0.1386,
                "tempo": 120.0
            },
            {
                "pitch": 43,
                "velocity": 101,
                "duration": 0.1182,
                "tempo": 120.0
            },
            {
                "pitch": 31,
                "velocity": 101,
                "duration": 0.1205,
                "tempo": 120.0
            },
            {
                "pitch": 31,
                "velocity": 101,
                "duration": 0.2318,
                "tempo": 120.0
            },
            {
                "pitch": 31,
                "velocity": 101,
                "duration": 0.2523,
                "tempo": 120.0
            },
            {
                "pitch": 43,
                "velocity": 101,
                "duration": 0.1136,
                "tempo": 120.0
            },
            {
                "pitch": 31,
                "velocity": 101,
                "duration": 0.1182,
                "tempo": 120.0
            },
            {
                "pitch": 41,
                "velocity": 101,
                "duration": 0.1159,
                "tempo": 120.0
            },
            {
                "pitch": 43,
                "velocity": 101,
                "duration": 0.2523,
                "tempo": 120.0
            },
            {
                "pitch": 31,
                "velocity": 101,
                "duration": 0.2409,
                "tempo": 120.0
            },
            {
                "pitch": 31,
                "velocity": 101,
                "duration": 0.25,
                "tempo": 120.0
            },
            {
                "pitch": 31,
                "velocity": 101,
                "duration": 0.1159,
                "tempo": 120.0
            },
            {
                "pitch": 43,
                "velocity": 101,
                "duration": 0.1159,
                "tempo": 120.0
            },
            {
                "pitch": 31,
                "velocity": 101,
                "duration": 0.1136,
                "tempo": 120.0
            }
        ],
        "Acoustic Guitar (nylon)": [
            {
                "pitch": 67,
                "velocity": 16,
                "duration": 0.1136,
                "tempo": 120.0
            },
            {
                "pitch": 60,
                "velocity": 16,
                "duration": 0.1182,
                "tempo": 120.0
            },
            {
                "pitch": 62,
                "velocity": 16,
                "duration": 0.1159,
                "tempo": 120.0
            },
            {
                "pitch": 65,
                "velocity": 16,
                "duration": 0.1182,
                "tempo": 120.0
            },
            {
                "pitch": 60,
                "velocity": 16,
                "duration": 0.1295,
                "tempo": 120.0
            },
            {
                "pitch": 62,
                "velocity": 20,
                "duration": 0.1159,
                "tempo": 120.0
            },
            {
                "pitch": 67,
                "velocity": 20,
                "duration": 0.1136,
                "tempo": 120.0
            },
            {
                "pitch": 60,
                "velocity": 20,
                "duration": 0.1159,
                "tempo": 120.0
            },
            {
                "pitch": 62,
                "velocity": 20,
                "duration": 0.1182,
                "tempo": 120.0
            },
            {
                "pitch": 65,
                "velocity": 25,
                "duration": 0.1341,
                "tempo": 120.0
            },
            {
                "pitch": 60,
                "velocity": 25,
                "duration": 0.1182,
                "tempo": 120.0
            },
            {
                "pitch": 62,
                "velocity": 32,
                "duration": 0.1182,
                "tempo": 120.0
            },
            {
                "pitch": 67,
                "velocity": 32,
                "duration": 0.1182,
                "tempo": 120.0
            },
            {
                "pitch": 60,
                "velocity": 40,
                "duration": 0.1182,
                "tempo": 120.0
            },
            {
                "pitch": 62,
                "velocity": 40,
                "duration": 0.1341,
                "tempo": 120.0
            },
            {
                "pitch": 65,
                "velocity": 51,
                "duration": 0.1182,
                "tempo": 120.0
            },
            {
                "pitch": 60,
                "velocity": 51,
                "duration": 0.1182,
                "tempo": 120.0
            },
            {
                "pitch": 62,
                "velocity": 64,
                "duration": 0.1205,
                "tempo": 120.0
            },
            {
                "pitch": 67,
                "velocity": 64,
                "duration": 0.1182,
                "tempo": 120.0
            },
            {
                "pitch": 60,
                "velocity": 80,
                "duration": 0.1386,
                "tempo": 120.0
            },
            {
                "pitch": 62,
                "velocity": 80,
                "duration": 0.1159,
                "tempo": 120.0
            },
            {
                "pitch": 65,
                "velocity": 101,
                "duration": 0.1182,
                "tempo": 120.0
            },
            {
                "pitch": 60,
                "velocity": 101,
                "duration": 0.1159,
                "tempo": 120.0
            },
            {
                "pitch": 62,
                "velocity": 101,
                "duration": 0.1182,
                "tempo": 120.0
            },
            {
                "pitch": 67,
                "velocity": 101,
                "duration": 0.1295,
                "tempo": 120.0
            },
            {
                "pitch": 60,
                "velocity": 101,
                "duration": 0.1182,
                "tempo": 120.0
            },
            {
                "pitch": 62,
                "velocity": 101,
                "duration": 0.1114,
                "tempo": 120.0
            },
            {
                "pitch": 65,
                "velocity": 101,
                "duration": 0.1159,
                "tempo": 120.0
            },
            {
                "pitch": 60,
                "velocity": 101,
                "duration": 0.1159,
                "tempo": 120.0
            },
            {
                "pitch": 62,
                "velocity": 101,
                "duration": 0.1364,
                "tempo": 120.0
            },
            {
                "pitch": 67,
                "velocity": 101,
                "duration": 0.1159,
                "tempo": 120.0
            },
            {
                "pitch": 60,
                "velocity": 101,
                "duration": 0.1182,
                "tempo": 120.0
            },
            {
                "pitch": 62,
                "velocity": 101,
                "duration": 0.1182,
                "tempo": 120.0
            },
            {
                "pitch": 65,
                "velocity": 101,
                "duration": 0.1227,
                "tempo": 120.0
            },
            {
                "pitch": 60,
                "velocity": 101,
                "duration": 0.1341,
                "tempo": 120.0
            },
            {
                "pitch": 62,
                "velocity": 101,
                "duration": 0.1227,
                "tempo": 120.0
            },
            {
                "pitch": 67,
                "velocity": 101,
                "duration": 0.1159,
                "tempo": 120.0
            },
            {
                "pitch": 60,
                "velocity": 101,
                "duration": 0.1182,
                "tempo": 120.0
            },
            {
                "pitch": 62,
                "velocity": 101,
                "duration": 0.1159,
                "tempo": 120.0
            },
            {
                "pitch": 65,
                "velocity": 101,
                "duration": 0.1364,
                "tempo": 120.0
            },
            {
                "pitch": 60,
                "velocity": 101,
                "duration": 0.1159,
                "tempo": 120.0
            },
            {
                "pitch": 62,
                "velocity": 80,
                "duration": 0.1182,
                "tempo": 120.0
            },
            {
                "pitch": 67,
                "velocity": 80,
                "duration": 0.1159,
                "tempo": 120.0
            },
            {
                "pitch": 60,
                "velocity": 64,
                "duration": 0.1182,
                "tempo": 120.0
            },
            {
                "pitch": 62,
                "velocity": 64,
                "duration": 0.1295,
                "tempo": 120.0
            },
            {
                "pitch": 65,
                "velocity": 51,
                "duration": 0.1159,
                "tempo": 120.0
            },
            {
                "pitch": 60,
                "velocity": 51,
                "duration": 0.1159,
                "tempo": 120.0
            },
            {
                "pitch": 62,
                "velocity": 40,
                "duration": 0.1136,
                "tempo": 120.0
            },
            {
                "pitch": 67,
                "velocity": 40,
                "duration": 0.1182,
                "tempo": 120.0
            },
            {
                "pitch": 60,
                "velocity": 32,
                "duration": 0.1364,
                "tempo": 120.0
            },
            {
                "pitch": 62,
                "velocity": 32,
                "duration": 0.1182,
                "tempo": 120.0
            },
            {
                "pitch": 65,
                "velocity": 25,
                "duration": 0.1205,
                "tempo": 120.0
            },
            {
                "pitch": 60,
                "velocity": 25,
                "duration": 0.1159,
                "tempo": 120.0
            },
            {
                "pitch": 62,
                "velocity": 25,
                "duration": 0.1182,
                "tempo": 120.0
            },
            {
                "pitch": 67,
                "velocity": 25,
                "duration": 0.1341,
                "tempo": 120.0
            },
            {
                "pitch": 60,
                "velocity": 20,
                "duration": 0.1182,
                "tempo": 120.0
            },
            {
                "pitch": 62,
                "velocity": 20,
                "duration": 0.1159,
                "tempo": 120.0
            },
            {
                "pitch": 65,
                "velocity": 20,
                "duration": 0.1182,
                "tempo": 120.0
            },
            {
                "pitch": 60,
                "velocity": 20,
                "duration": 0.1159,
                "tempo": 120.0
            },
            {
                "pitch": 62,
                "velocity": 20,
                "duration": 0.1341,
                "tempo": 120.0
            },
            {
                "pitch": 67,
                "velocity": 20,
                "duration": 0.1182,
                "tempo": 120.0
            },
            {
                "pitch": 60,
                "velocity": 20,
                "duration": 0.1205,
                "tempo": 120.0
            },
            {
                "pitch": 62,
                "velocity": 20,
                "duration": 0.1205,
                "tempo": 120.0
            },
            {
                "pitch": 65,
                "velocity": 20,
                "duration": 0.1182,
                "tempo": 120.0
            },
            {
                "pitch": 67,
                "velocity": 16,
                "duration": 0.1273,
                "tempo": 120.0
            },
            {
                "pitch": 60,
                "velocity": 16,
                "duration": 0.1136,
                "tempo": 120.0
            },
            {
                "pitch": 62,
                "velocity": 16,
                "duration": 0.1114,
                "tempo": 120.0
            },
            {
                "pitch": 65,
                "velocity": 16,
                "duration": 0.1136,
                "tempo": 120.0
            },
            {
                "pitch": 60,
                "velocity": 16,
                "duration": 0.1182,
                "tempo": 120.0
            },
            {
                "pitch": 62,
                "velocity": 20,
                "duration": 0.1386,
                "tempo": 120.0
            },
            {
                "pitch": 67,
                "velocity": 20,
                "duration": 0.1182,
                "tempo": 120.0
            },
            {
                "pitch": 60,
                "velocity": 20,
                "duration": 0.1205,
                "tempo": 120.0
            },
            {
                "pitch": 62,
                "velocity": 20,
                "duration": 0.1159,
                "tempo": 120.0
            },
            {
                "pitch": 65,
                "velocity": 25,
                "duration": 0.1182,
                "tempo": 120.0
            },
            {
                "pitch": 60,
                "velocity": 25,
                "duration": 0.1341,
                "tempo": 120.0
            },
            {
                "pitch": 62,
                "velocity": 32,
                "duration": 0.1182,
                "tempo": 120.0
            },
            {
                "pitch": 67,
                "velocity": 32,
                "duration": 0.1182,
                "tempo": 120.0
            },
            {
                "pitch": 60,
                "velocity": 40,
                "duration": 0.1205,
                "tempo": 120.0
            },
            {
                "pitch": 62,
                "velocity": 40,
                "duration": 0.1205,
                "tempo": 120.0
            },
            {
                "pitch": 65,
                "velocity": 51,
                "duration": 0.1364,
                "tempo": 120.0
            },
            {
                "pitch": 60,
                "velocity": 51,
                "duration": 0.1159,
                "tempo": 120.0
            },
            {
                "pitch": 62,
                "velocity": 64,
                "duration": 0.1182,
                "tempo": 120.0
            },
            {
                "pitch": 67,
                "velocity": 64,
                "duration": 0.1159,
                "tempo": 120.0
            },
            {
                "pitch": 60,
                "velocity": 80,
                "duration": 0.1159,
                "tempo": 120.0
            },
            {
                "pitch": 62,
                "velocity": 80,
                "duration": 0.1318,
                "tempo": 120.0
            },
            {
                "pitch": 65,
                "velocity": 101,
                "duration": 0.1159,
                "tempo": 120.0
            },
            {
                "pitch": 60,
                "velocity": 101,
                "duration": 0.1136,
                "tempo": 120.0
            },
            {
                "pitch": 62,
                "velocity": 101,
                "duration": 0.1159,
                "tempo": 120.0
            },
            {
                "pitch": 67,
                "velocity": 101,
                "duration": 0.1159,
                "tempo": 120.0
            },
            {
                "pitch": 60,
                "velocity": 101,
                "duration": 0.1364,
                "tempo": 120.0
            },
            {
                "pitch": 62,
                "velocity": 101,
                "duration": 0.1159,
                "tempo": 120.0
            },
            {
                "pitch": 65,
                "velocity": 101,
                "duration": 0.1205,
                "tempo": 120.0
            },
            {
                "pitch": 60,
                "velocity": 101,
                "duration": 0.1182,
                "tempo": 120.0
            },
            {
                "pitch": 62,
                "velocity": 101,
                "duration": 0.1205,
                "tempo": 120.0
            },
            {
                "pitch": 67,
                "velocity": 101,
                "duration": 0.1364,
                "tempo": 120.0
            },
            {
                "pitch": 60,
                "velocity": 101,
                "duration": 0.1205,
                "tempo": 120.0
            },
            {
                "pitch": 62,
                "velocity": 101,
                "duration": 0.1159,
                "tempo": 120.0
            },
            {
                "pitch": 65,
                "velocity": 101,
                "duration": 0.1205,
                "tempo": 120.0
            },
            {
                "pitch": 60,
                "velocity": 101,
                "duration": 0.1159,
                "tempo": 120.0
            },
            {
                "pitch": 62,
                "velocity": 101,
                "duration": 0.1341,
                "tempo": 120.0
            },
            {
                "pitch": 67,
                "velocity": 101,
                "duration": 0.1159,
                "tempo": 120.0
            },
            {
                "pitch": 60,
                "velocity": 101,
                "duration": 0.1205,
                "tempo": 120.0
            },
            {
                "pitch": 62,
                "velocity": 101,
                "duration": 0.1182,
                "tempo": 120.0
            },
            {
                "pitch": 65,
                "velocity": 101,
                "duration": 0.1205,
                "tempo": 120.0
            },
            {
                "pitch": 60,
                "velocity": 101,
                "duration": 0.1273,
                "tempo": 120.0
            },
            {
                "pitch": 62,
                "velocity": 80,
                "duration": 0.1136,
                "tempo": 120.0
            },
            {
                "pitch": 67,
                "velocity": 80,
                "duration": 0.1114,
                "tempo": 120.0
            },
            {
                "pitch": 60,
                "velocity": 64,
                "duration": 0.1114,
                "tempo": 120.0
            },
            {
                "pitch": 62,
                "velocity": 64,
                "duration": 0.1182,
                "tempo": 120.0
            },
            {
                "pitch": 65,
                "velocity": 51,
                "duration": 0.1386,
                "tempo": 120.0
            },
            {
                "pitch": 60,
                "velocity": 51,
                "duration": 0.1182,
                "tempo": 120.0
            },
            {
                "pitch": 62,
                "velocity": 40,
                "duration": 0.1205,
                "tempo": 120.0
            },
            {
                "pitch": 67,
                "velocity": 40,
                "duration": 0.1159,
                "tempo": 120.0
            },
            {
                "pitch": 60,
                "velocity": 32,
                "duration": 0.1182,
                "tempo": 120.0
            },
            {
                "pitch": 62,
                "velocity": 32,
                "duration": 0.1318,
                "tempo": 120.0
            },
            {
                "pitch": 65,
                "velocity": 25,
                "duration": 0.1182,
                "tempo": 120.0
            },
            {
                "pitch": 60,
                "velocity": 25,
                "duration": 0.1182,
                "tempo": 120.0
            },
            {
                "pitch": 62,
                "velocity": 25,
                "duration": 0.1182,
                "tempo": 120.0
            },
            {
                "pitch": 67,
                "velocity": 25,
                "duration": 0.1159,
                "tempo": 120.0
            },
            {
                "pitch": 60,
                "velocity": 20,
                "duration": 0.1364,
                "tempo": 120.0
            },
            {
                "pitch": 62,
                "velocity": 20,
                "duration": 0.1182,
                "tempo": 120.0
            },
            {
                "pitch": 65,
                "velocity": 20,
                "duration": 0.1227,
                "tempo": 120.0
            },
            {
                "pitch": 60,
                "velocity": 20,
                "duration": 0.1182,
                "tempo": 120.0
            },
            {
                "pitch": 62,
                "velocity": 20,
                "duration": 0.1205,
                "tempo": 120.0
            },
            {
                "pitch": 67,
                "velocity": 20,
                "duration": 0.1295,
                "tempo": 120.0
            },
            {
                "pitch": 60,
                "velocity": 20,
                "duration": 0.1159,
                "tempo": 120.0
            },
            {
                "pitch": 62,
                "velocity": 20,
                "duration": 0.1159,
                "tempo": 120.0
            },
            {
                "pitch": 65,
                "velocity": 20,
                "duration": 0.1159,
                "tempo": 120.0
            },
            {
                "pitch": 65,
                "velocity": 16,
                "duration": 0.1159,
                "tempo": 120.0
            },
            {
                "pitch": 58,
                "velocity": 16,
                "duration": 0.1386,
                "tempo": 120.0
            },
            {
                "pitch": 60,
                "velocity": 16,
                "duration": 0.1182,
                "tempo": 120.0
            },
            {
                "pitch": 63,
                "velocity": 16,
                "duration": 0.1205,
                "tempo": 120.0
            },
            {
                "pitch": 58,
                "velocity": 16,
                "duration": 0.1159,
                "tempo": 120.0
            },
            {
                "pitch": 60,
                "velocity": 20,
                "duration": 0.1159,
                "tempo": 120.0
            },
            {
                "pitch": 65,
                "velocity": 20,
                "duration": 0.1295,
                "tempo": 120.0
            },
            {
                "pitch": 58,
                "velocity": 20,
                "duration": 0.1159,
                "tempo": 120.0
            },
            {
                "pitch": 60,
                "velocity": 20,
                "duration": 0.1182,
                "tempo": 120.0
            },
            {
                "pitch": 63,
                "velocity": 25,
                "duration": 0.1205,
                "tempo": 120.0
            },
            {
                "pitch": 58,
                "velocity": 25,
                "duration": 0.1205,
                "tempo": 120.0
            },
            {
                "pitch": 60,
                "velocity": 32,
                "duration": 0.1364,
                "tempo": 120.0
            },
            {
                "pitch": 65,
                "velocity": 32,
                "duration": 0.1159,
                "tempo": 120.0
            },
            {
                "pitch": 58,
                "velocity": 40,
                "duration": 0.1182,
                "tempo": 120.0
            },
            {
                "pitch": 60,
                "velocity": 40,
                "duration": 0.1182,
                "tempo": 120.0
            },
            {
                "pitch": 63,
                "velocity": 51,
                "duration": 0.1159,
                "tempo": 120.0
            },
            {
                "pitch": 58,
                "velocity": 51,
                "duration": 0.1318,
                "tempo": 120.0
            },
            {
                "pitch": 60,
                "velocity": 64,
                "duration": 0.1159,
                "tempo": 120.0
            },
            {
                "pitch": 65,
                "velocity": 64,
                "duration": 0.1136,
                "tempo": 120.0
            },
            {
                "pitch": 58,
                "velocity": 80,
                "duration": 0.1136,
                "tempo": 120.0
            },
            {
                "pitch": 60,
                "velocity": 80,
                "duration": 0.1159,
                "tempo": 120.0
            },
            {
                "pitch": 63,
                "velocity": 101,
                "duration": 0.1341,
                "tempo": 120.0
            },
            {
                "pitch": 58,
                "velocity": 101,
                "duration": 0.1159,
                "tempo": 120.0
            },
            {
                "pitch": 60,
                "velocity": 101,
                "duration": 0.1205,
                "tempo": 120.0
            },
            {
                "pitch": 65,
                "velocity": 101,
                "duration": 0.1159,
                "tempo": 120.0
            },
            {
                "pitch": 58,
                "velocity": 101,
                "duration": 0.1227,
                "tempo": 120.0
            },
            {
                "pitch": 60,
                "velocity": 101,
                "duration": 0.1364,
                "tempo": 120.0
            },
            {
                "pitch": 63,
                "velocity": 101,
                "duration": 0.1182,
                "tempo": 120.0
            },
            {
                "pitch": 58,
                "velocity": 101,
                "duration": 0.1182,
                "tempo": 120.0
            },
            {
                "pitch": 60,
                "velocity": 101,
                "duration": 0.1182,
                "tempo": 120.0
            },
            {
                "pitch": 65,
                "velocity": 101,
                "duration": 0.1182,
                "tempo": 120.0
            },
            {
                "pitch": 58,
                "velocity": 101,
                "duration": 0.1341,
                "tempo": 120.0
            },
            {
                "pitch": 60,
                "velocity": 101,
                "duration": 0.1159,
                "tempo": 120.0
            },
            {
                "pitch": 63,
                "velocity": 101,
                "duration": 0.1182,
                "tempo": 120.0
            },
            {
                "pitch": 58,
                "velocity": 101,
                "duration": 0.1159,
                "tempo": 120.0
            },
            {
                "pitch": 60,
                "velocity": 101,
                "duration": 0.1182,
                "tempo": 120.0
            },
            {
                "pitch": 65,
                "velocity": 101,
                "duration": 0.1295,
                "tempo": 120.0
            },
            {
                "pitch": 58,
                "velocity": 101,
                "duration": 0.1159,
                "tempo": 120.0
            },
            {
                "pitch": 60,
                "velocity": 101,
                "duration": 0.1136,
                "tempo": 120.0
            },
            {
                "pitch": 63,
                "velocity": 101,
                "duration": 0.1159,
                "tempo": 120.0
            },
            {
                "pitch": 58,
                "velocity": 101,
                "duration": 0.1205,
                "tempo": 120.0
            },
            {
                "pitch": 60,
                "velocity": 80,
                "duration": 0.1364,
                "tempo": 120.0
            },
            {
                "pitch": 65,
                "velocity": 80,
                "duration": 0.1205,
                "tempo": 120.0
            },
            {
                "pitch": 58,
                "velocity": 64,
                "duration": 0.1182,
                "tempo": 120.0
            },
            {
                "pitch": 60,
                "velocity": 64,
                "duration": 0.1182,
                "tempo": 120.0
            },
            {
                "pitch": 63,
                "velocity": 51,
                "duration": 0.1159,
                "tempo": 120.0
            },
            {
                "pitch": 58,
                "velocity": 51,
                "duration": 0.1341,
                "tempo": 120.0
            },
            {
                "pitch": 60,
                "velocity": 40,
                "duration": 0.1159,
                "tempo": 120.0
            },
            {
                "pitch": 65,
                "velocity": 40,
                "duration": 0.1182,
                "tempo": 120.0
            },
            {
                "pitch": 58,
                "velocity": 32,
                "duration": 0.1182,
                "tempo": 120.0
            },
            {
                "pitch": 60,
                "velocity": 32,
                "duration": 0.1182,
                "tempo": 120.0
            },
            {
                "pitch": 63,
                "velocity": 25,
                "duration": 0.1341,
                "tempo": 120.0
            },
            {
                "pitch": 58,
                "velocity": 25,
                "duration": 0.1182,
                "tempo": 120.0
            },
            {
                "pitch": 60,
                "velocity": 25,
                "duration": 0.1205,
                "tempo": 120.0
            },
            {
                "pitch": 65,
                "velocity": 25,
                "duration": 0.1182,
                "tempo": 120.0
            },
            {
                "pitch": 58,
                "velocity": 20,
                "duration": 0.1205,
                "tempo": 120.0
            },
            {
                "pitch": 60,
                "velocity": 20,
                "duration": 0.1295,
                "tempo": 120.0
            },
            {
                "pitch": 63,
                "velocity": 20,
                "duration": 0.1159,
                "tempo": 120.0
            },
            {
                "pitch": 58,
                "velocity": 20,
                "duration": 0.1136,
                "tempo": 120.0
            },
            {
                "pitch": 60,
                "velocity": 20,
                "duration": 0.1136,
                "tempo": 120.0
            },
            {
                "pitch": 65,
                "velocity": 20,
                "duration": 0.1159,
                "tempo": 120.0
            },
            {
                "pitch": 58,
                "velocity": 20,
                "duration": 0.1364,
                "tempo": 120.0
            },
            {
                "pitch": 60,
                "velocity": 20,
                "duration": 0.1159,
                "tempo": 120.0
            },
            {
                "pitch": 63,
                "velocity": 20,
                "duration": 0.1159,
                "tempo": 120.0
            },
            {
                "pitch": 65,
                "velocity": 16,
                "duration": 0.1182,
                "tempo": 120.0
            },
            {
                "pitch": 58,
                "velocity": 16,
                "duration": 0.1182,
                "tempo": 120.0
            },
            {
                "pitch": 60,
                "velocity": 16,
                "duration": 0.1341,
                "tempo": 120.0
            },
            {
                "pitch": 63,
                "velocity": 16,
                "duration": 0.1182,
                "tempo": 120.0
            },
            {
                "pitch": 58,
                "velocity": 16,
                "duration": 0.1182,
                "tempo": 120.0
            },
            {
                "pitch": 60,
                "velocity": 20,
                "duration": 0.1205,
                "tempo": 120.0
            },
            {
                "pitch": 65,
                "velocity": 20,
                "duration": 0.1182,
                "tempo": 120.0
            },
            {
                "pitch": 58,
                "velocity": 20,
                "duration": 0.1386,
                "tempo": 120.0
            },
            {
                "pitch": 60,
                "velocity": 20,
                "duration": 0.1159,
                "tempo": 120.0
            },
            {
                "pitch": 63,
                "velocity": 25,
                "duration": 0.1182,
                "tempo": 120.0
            },
            {
                "pitch": 58,
                "velocity": 25,
                "duration": 0.1159,
                "tempo": 120.0
            },
            {
                "pitch": 60,
                "velocity": 32,
                "duration": 0.1182,
                "tempo": 120.0
            },
            {
                "pitch": 65,
                "velocity": 32,
                "duration": 0.1318,
                "tempo": 120.0
            },
            {
                "pitch": 58,
                "velocity": 40,
                "duration": 0.1136,
                "tempo": 120.0
            },
            {
                "pitch": 60,
                "velocity": 40,
                "duration": 0.1136,
                "tempo": 120.0
            },
            {
                "pitch": 63,
                "velocity": 51,
                "duration": 0.1159,
                "tempo": 120.0
            },
            {
                "pitch": 58,
                "velocity": 51,
                "duration": 0.1159,
                "tempo": 120.0
            },
            {
                "pitch": 60,
                "velocity": 64,
                "duration": 0.1364,
                "tempo": 120.0
            },
            {
                "pitch": 65,
                "velocity": 64,
                "duration": 0.1159,
                "tempo": 120.0
            },
            {
                "pitch": 58,
                "velocity": 80,
                "duration": 0.1182,
                "tempo": 120.0
            },
            {
                "pitch": 60,
                "velocity": 80,
                "duration": 0.1182,
                "tempo": 120.0
            },
            {
                "pitch": 63,
                "velocity": 101,
                "duration": 0.1182,
                "tempo": 120.0
            },
            {
                "pitch": 58,
                "velocity": 101,
                "duration": 0.1341,
                "tempo": 120.0
            },
            {
                "pitch": 60,
                "velocity": 101,
                "duration": 0.1182,
                "tempo": 120.0
            },
            {
                "pitch": 65,
                "velocity": 101,
                "duration": 0.1182,
                "tempo": 120.0
            },
            {
                "pitch": 58,
                "velocity": 101,
                "duration": 0.1205,
                "tempo": 120.0
            },
            {
                "pitch": 60,
                "velocity": 101,
                "duration": 0.1159,
                "tempo": 120.0
            },
            {
                "pitch": 63,
                "velocity": 101,
                "duration": 0.1386,
                "tempo": 120.0
            },
            {
                "pitch": 58,
                "velocity": 101,
                "duration": 0.1182,
                "tempo": 120.0
            },
            {
                "pitch": 60,
                "velocity": 101,
                "duration": 0.1182,
                "tempo": 120.0
            },
            {
                "pitch": 65,
                "velocity": 101,
                "duration": 0.1182,
                "tempo": 120.0
            },
            {
                "pitch": 58,
                "velocity": 101,
                "duration": 0.1159,
                "tempo": 120.0
            },
            {
                "pitch": 60,
                "velocity": 101,
                "duration": 0.1318,
                "tempo": 120.0
            },
            {
                "pitch": 63,
                "velocity": 101,
                "duration": 0.1159,
                "tempo": 120.0
            },
            {
                "pitch": 58,
                "velocity": 101,
                "duration": 0.1136,
                "tempo": 120.0
            },
            {
                "pitch": 60,
                "velocity": 101,
                "duration": 0.1159,
                "tempo": 120.0
            },
            {
                "pitch": 65,
                "velocity": 101,
                "duration": 0.1182,
                "tempo": 120.0
            },
            {
                "pitch": 58,
                "velocity": 101,
                "duration": 0.1386,
                "tempo": 120.0
            },
            {
                "pitch": 60,
                "velocity": 101,
                "duration": 0.1182,
                "tempo": 120.0
            },
            {
                "pitch": 63,
                "velocity": 101,
                "duration": 0.1205,
                "tempo": 120.0
            },
            {
                "pitch": 58,
                "velocity": 101,
                "duration": 0.1182,
                "tempo": 120.0
            },
            {
                "pitch": 60,
                "velocity": 80,
                "duration": 0.1182,
                "tempo": 120.0
            },
            {
                "pitch": 65,
                "velocity": 80,
                "duration": 0.1341,
                "tempo": 120.0
            },
            {
                "pitch": 58,
                "velocity": 64,
                "duration": 0.1159,
                "tempo": 120.0
            },
            {
                "pitch": 60,
                "velocity": 64,
                "duration": 0.1182,
                "tempo": 120.0
            },
            {
                "pitch": 63,
                "velocity": 51,
                "duration": 0.1182,
                "tempo": 120.0
            },
            {
                "pitch": 58,
                "velocity": 51,
                "duration": 0.1182,
                "tempo": 120.0
            },
            {
                "pitch": 60,
                "velocity": 40,
                "duration": 0.1341,
                "tempo": 120.0
            },
            {
                "pitch": 65,
                "velocity": 40,
                "duration": 0.1182,
                "tempo": 120.0
            },
            {
                "pitch": 58,
                "velocity": 32,
                "duration": 0.1159,
                "tempo": 120.0
            },
            {
                "pitch": 60,
                "velocity": 32,
                "duration": 0.1159,
                "tempo": 120.0
            },
            {
                "pitch": 63,
                "velocity": 25,
                "duration": 0.1182,
                "tempo": 120.0
            },
            {
                "pitch": 58,
                "velocity": 25,
                "duration": 0.1295,
                "tempo": 120.0
            },
            {
                "pitch": 60,
                "velocity": 25,
                "duration": 0.1159,
                "tempo": 120.0
            },
            {
                "pitch": 65,
                "velocity": 25,
                "duration": 0.1159,
                "tempo": 120.0
            },
            {
                "pitch": 58,
                "velocity": 20,
                "duration": 0.1136,
                "tempo": 120.0
            },
            {
                "pitch": 60,
                "velocity": 20,
                "duration": 0.1205,
                "tempo": 120.0
            },
            {
                "pitch": 63,
                "velocity": 20,
                "duration": 0.1364,
                "tempo": 120.0
            },
            {
                "pitch": 58,
                "velocity": 20,
                "duration": 0.1182,
                "tempo": 120.0
            },
            {
                "pitch": 60,
                "velocity": 20,
                "duration": 0.1182,
                "tempo": 120.0
            },
            {
                "pitch": 65,
                "velocity": 20,
                "duration": 0.1159,
                "tempo": 120.0
            },
            {
                "pitch": 58,
                "velocity": 20,
                "duration": 0.1182,
                "tempo": 120.0
            },
            {
                "pitch": 60,
                "velocity": 20,
                "duration": 0.1341,
                "tempo": 120.0
            },
            {
                "pitch": 63,
                "velocity": 20,
                "duration": 0.1205,
                "tempo": 120.0
            },
            {
                "pitch": 65,
                "velocity": 16,
                "duration": 0.1159,
                "tempo": 120.0
            },
            {
                "pitch": 58,
                "velocity": 16,
                "duration": 0.1205,
                "tempo": 120.0
            },
            {
                "pitch": 60,
                "velocity": 16,
                "duration": 0.1205,
                "tempo": 120.0
            },
            {
                "pitch": 63,
                "velocity": 16,
                "duration": 0.1364,
                "tempo": 120.0
            },
            {
                "pitch": 58,
                "velocity": 16,
                "duration": 0.1182,
                "tempo": 120.0
            },
            {
                "pitch": 60,
                "velocity": 20,
                "duration": 0.1182,
                "tempo": 120.0
            },
            {
                "pitch": 65,
                "velocity": 20,
                "duration": 0.1159,
                "tempo": 120.0
            },
            {
                "pitch": 58,
                "velocity": 20,
                "duration": 0.1182,
                "tempo": 120.0
            },
            {
                "pitch": 60,
                "velocity": 20,
                "duration": 0.1318,
                "tempo": 120.0
            },
            {
                "pitch": 63,
                "velocity": 25,
                "duration": 0.1159,
                "tempo": 120.0
            },
            {
                "pitch": 58,
                "velocity": 25,
                "duration": 0.1136,
                "tempo": 120.0
            },
            {
                "pitch": 60,
                "velocity": 32,
                "duration": 0.1136,
                "tempo": 120.0
            },
            {
                "pitch": 65,
                "velocity": 32,
                "duration": 0.1159,
                "tempo": 120.0
            },
            {
                "pitch": 58,
                "velocity": 40,
                "duration": 0.1341,
                "tempo": 120.0
            },
            {
                "pitch": 60,
                "velocity": 40,
                "duration": 0.1182,
                "tempo": 120.0
            },
            {
                "pitch": 63,
                "velocity": 51,
                "duration": 0.1159,
                "tempo": 120.0
            },
            {
                "pitch": 58,
                "velocity": 51,
                "duration": 0.1182,
                "tempo": 120.0
            },
            {
                "pitch": 60,
                "velocity": 64,
                "duration": 0.1182,
                "tempo": 120.0
            },
            {
                "pitch": 65,
                "velocity": 64,
                "duration": 0.1318,
                "tempo": 120.0
            },
            {
                "pitch": 58,
                "velocity": 80,
                "duration": 0.1159,
                "tempo": 120.0
            },
            {
                "pitch": 60,
                "velocity": 80,
                "duration": 0.1205,
                "tempo": 120.0
            },
            {
                "pitch": 63,
                "velocity": 101,
                "duration": 0.1205,
                "tempo": 120.0
            },
            {
                "pitch": 58,
                "velocity": 101,
                "duration": 0.1182,
                "tempo": 120.0
            },
            {
                "pitch": 60,
                "velocity": 101,
                "duration": 0.1386,
                "tempo": 120.0
            },
            {
                "pitch": 65,
                "velocity": 101,
                "duration": 0.1159,
                "tempo": 120.0
            },
            {
                "pitch": 58,
                "velocity": 101,
                "duration": 0.1205,
                "tempo": 120.0
            },
            {
                "pitch": 60,
                "velocity": 101,
                "duration": 0.1159,
                "tempo": 120.0
            },
            {
                "pitch": 63,
                "velocity": 101,
                "duration": 0.1182,
                "tempo": 120.0
            },
            {
                "pitch": 58,
                "velocity": 101,
                "duration": 0.1318,
                "tempo": 120.0
            },
            {
                "pitch": 60,
                "velocity": 101,
                "duration": 0.1159,
                "tempo": 120.0
            },
            {
                "pitch": 65,
                "velocity": 101,
                "duration": 0.1136,
                "tempo": 120.0
            },
            {
                "pitch": 58,
                "velocity": 101,
                "duration": 0.1136,
                "tempo": 120.0
            },
            {
                "pitch": 60,
                "velocity": 101,
                "duration": 0.1159,
                "tempo": 120.0
            },
            {
                "pitch": 63,
                "velocity": 101,
                "duration": 0.1364,
                "tempo": 120.0
            },
            {
                "pitch": 58,
                "velocity": 101,
                "duration": 0.1159,
                "tempo": 120.0
            },
            {
                "pitch": 60,
                "velocity": 101,
                "duration": 0.1182,
                "tempo": 120.0
            },
            {
                "pitch": 65,
                "velocity": 101,
                "duration": 0.1205,
                "tempo": 120.0
            },
            {
                "pitch": 58,
                "velocity": 101,
                "duration": 0.1205,
                "tempo": 120.0
            },
            {
                "pitch": 60,
                "velocity": 101,
                "duration": 0.1341,
                "tempo": 120.0
            },
            {
                "pitch": 63,
                "velocity": 101,
                "duration": 0.1205,
                "tempo": 120.0
            },
            {
                "pitch": 58,
                "velocity": 101,
                "duration": 0.1182,
                "tempo": 120.0
            },
            {
                "pitch": 60,
                "velocity": 80,
                "duration": 0.1182,
                "tempo": 120.0
            },
            {
                "pitch": 65,
                "velocity": 80,
                "duration": 0.1182,
                "tempo": 120.0
            },
            {
                "pitch": 58,
                "velocity": 64,
                "duration": 0.1341,
                "tempo": 120.0
            },
            {
                "pitch": 60,
                "velocity": 64,
                "duration": 0.1205,
                "tempo": 120.0
            },
            {
                "pitch": 63,
                "velocity": 51,
                "duration": 0.1182,
                "tempo": 120.0
            },
            {
                "pitch": 58,
                "velocity": 51,
                "duration": 0.1205,
                "tempo": 120.0
            },
            {
                "pitch": 60,
                "velocity": 40,
                "duration": 0.1182,
                "tempo": 120.0
            },
            {
                "pitch": 65,
                "velocity": 40,
                "duration": 0.1273,
                "tempo": 120.0
            },
            {
                "pitch": 58,
                "velocity": 32,
                "duration": 0.1136,
                "tempo": 120.0
            },
            {
                "pitch": 60,
                "velocity": 32,
                "duration": 0.1114,
                "tempo": 120.0
            },
            {
                "pitch": 63,
                "velocity": 25,
                "duration": 0.1114,
                "tempo": 120.0
            },
            {
                "pitch": 58,
                "velocity": 25,
                "duration": 0.1182,
                "tempo": 120.0
            },
            {
                "pitch": 60,
                "velocity": 25,
                "duration": 0.1364,
                "tempo": 120.0
            },
            {
                "pitch": 65,
                "velocity": 25,
                "duration": 0.1182,
                "tempo": 120.0
            },
            {
                "pitch": 58,
                "velocity": 20,
                "duration": 0.1205,
                "tempo": 120.0
            },
            {
                "pitch": 60,
                "velocity": 20,
                "duration": 0.1159,
                "tempo": 120.0
            },
            {
                "pitch": 63,
                "velocity": 20,
                "duration": 0.1182,
                "tempo": 120.0
            },
            {
                "pitch": 58,
                "velocity": 20,
                "duration": 0.1341,
                "tempo": 120.0
            },
            {
                "pitch": 60,
                "velocity": 20,
                "duration": 0.1182,
                "tempo": 120.0
            },
            {
                "pitch": 65,
                "velocity": 20,
                "duration": 0.1182,
                "tempo": 120.0
            },
            {
                "pitch": 58,
                "velocity": 20,
                "duration": 0.1182,
                "tempo": 120.0
            },
            {
                "pitch": 60,
                "velocity": 20,
                "duration": 0.1159,
                "tempo": 120.0
            },
            {
                "pitch": 63,
                "velocity": 20,
                "duration": 0.1364,
                "tempo": 120.0
            },
            {
                "pitch": 65,
                "velocity": 16,
                "duration": 0.1182,
                "tempo": 120.0
            },
            {
                "pitch": 58,
                "velocity": 16,
                "duration": 0.1205,
                "tempo": 120.0
            },
            {
                "pitch": 60,
                "velocity": 16,
                "duration": 0.1182,
                "tempo": 120.0
            },
            {
                "pitch": 63,
                "velocity": 16,
                "duration": 0.1205,
                "tempo": 120.0
            },
            {
                "pitch": 58,
                "velocity": 16,
                "duration": 0.1318,
                "tempo": 120.0
            },
            {
                "pitch": 60,
                "velocity": 20,
                "duration": 0.1159,
                "tempo": 120.0
            },
            {
                "pitch": 65,
                "velocity": 20,
                "duration": 0.1136,
                "tempo": 120.0
            },
            {
                "pitch": 58,
                "velocity": 20,
                "duration": 0.1159,
                "tempo": 120.0
            },
            {
                "pitch": 60,
                "velocity": 20,
                "duration": 0.1159,
                "tempo": 120.0
            },
            {
                "pitch": 63,
                "velocity": 25,
                "duration": 0.1341,
                "tempo": 120.0
            },
            {
                "pitch": 58,
                "velocity": 25,
                "duration": 0.1159,
                "tempo": 120.0
            },
            {
                "pitch": 60,
                "velocity": 32,
                "duration": 0.1159,
                "tempo": 120.0
            },
            {
                "pitch": 65,
                "velocity": 32,
                "duration": 0.1182,
                "tempo": 120.0
            },
            {
                "pitch": 58,
                "velocity": 40,
                "duration": 0.1182,
                "tempo": 120.0
            },
            {
                "pitch": 60,
                "velocity": 40,
                "duration": 0.1364,
                "tempo": 120.0
            },
            {
                "pitch": 63,
                "velocity": 51,
                "duration": 0.1159,
                "tempo": 120.0
            },
            {
                "pitch": 58,
                "velocity": 51,
                "duration": 0.1182,
                "tempo": 120.0
            },
            {
                "pitch": 60,
                "velocity": 64,
                "duration": 0.1182,
                "tempo": 120.0
            },
            {
                "pitch": 65,
                "velocity": 64,
                "duration": 0.1205,
                "tempo": 120.0
            },
            {
                "pitch": 58,
                "velocity": 80,
                "duration": 0.1364,
                "tempo": 120.0
            },
            {
                "pitch": 60,
                "velocity": 80,
                "duration": 0.1182,
                "tempo": 120.0
            },
            {
                "pitch": 63,
                "velocity": 101,
                "duration": 0.1182,
                "tempo": 120.0
            },
            {
                "pitch": 58,
                "velocity": 101,
                "duration": 0.1159,
                "tempo": 120.0
            },
            {
                "pitch": 60,
                "velocity": 101,
                "duration": 0.1182,
                "tempo": 120.0
            },
            {
                "pitch": 65,
                "velocity": 101,
                "duration": 0.1295,
                "tempo": 120.0
            },
            {
                "pitch": 58,
                "velocity": 101,
                "duration": 0.1159,
                "tempo": 120.0
            },
            {
                "pitch": 60,
                "velocity": 101,
                "duration": 0.1136,
                "tempo": 120.0
            },
            {
                "pitch": 63,
                "velocity": 101,
                "duration": 0.1159,
                "tempo": 120.0
            },
            {
                "pitch": 58,
                "velocity": 101,
                "duration": 0.1159,
                "tempo": 120.0
            },
            {
                "pitch": 60,
                "velocity": 101,
                "duration": 0.1341,
                "tempo": 120.0
            },
            {
                "pitch": 65,
                "velocity": 101,
                "duration": 0.1182,
                "tempo": 120.0
            },
            {
                "pitch": 58,
                "velocity": 101,
                "duration": 0.1159,
                "tempo": 120.0
            },
            {
                "pitch": 60,
                "velocity": 101,
                "duration": 0.1182,
                "tempo": 120.0
            },
            {
                "pitch": 63,
                "velocity": 101,
                "duration": 0.1205,
                "tempo": 120.0
            },
            {
                "pitch": 58,
                "velocity": 101,
                "duration": 0.1364,
                "tempo": 120.0
            },
            {
                "pitch": 60,
                "velocity": 101,
                "duration": 0.1205,
                "tempo": 120.0
            },
            {
                "pitch": 65,
                "velocity": 101,
                "duration": 0.1159,
                "tempo": 120.0
            },
            {
                "pitch": 58,
                "velocity": 101,
                "duration": 0.1205,
                "tempo": 120.0
            },
            {
                "pitch": 60,
                "velocity": 101,
                "duration": 0.1159,
                "tempo": 120.0
            },
            {
                "pitch": 63,
                "velocity": 101,
                "duration": 0.1341,
                "tempo": 120.0
            },
            {
                "pitch": 58,
                "velocity": 101,
                "duration": 0.1159,
                "tempo": 120.0
            },
            {
                "pitch": 60,
                "velocity": 80,
                "duration": 0.1182,
                "tempo": 120.0
            },
            {
                "pitch": 65,
                "velocity": 80,
                "duration": 0.1159,
                "tempo": 120.0
            },
            {
                "pitch": 58,
                "velocity": 64,
                "duration": 0.1159,
                "tempo": 120.0
            },
            {
                "pitch": 60,
                "velocity": 64,
                "duration": 0.1318,
                "tempo": 120.0
            },
            {
                "pitch": 63,
                "velocity": 51,
                "duration": 0.1159,
                "tempo": 120.0
            },
            {
                "pitch": 58,
                "velocity": 51,
                "duration": 0.1136,
                "tempo": 120.0
            },
            {
                "pitch": 60,
                "velocity": 40,
                "duration": 0.1136,
                "tempo": 120.0
            },
            {
                "pitch": 65,
                "velocity": 40,
                "duration": 0.1182,
                "tempo": 120.0
            },
            {
                "pitch": 58,
                "velocity": 32,
                "duration": 0.1364,
                "tempo": 120.0
            },
            {
                "pitch": 60,
                "velocity": 32,
                "duration": 0.1182,
                "tempo": 120.0
            },
            {
                "pitch": 63,
                "velocity": 25,
                "duration": 0.1205,
                "tempo": 120.0
            },
            {
                "pitch": 58,
                "velocity": 25,
                "duration": 0.1159,
                "tempo": 120.0
            },
            {
                "pitch": 60,
                "velocity": 25,
                "duration": 0.1182,
                "tempo": 120.0
            },
            {
                "pitch": 65,
                "velocity": 25,
                "duration": 0.1318,
                "tempo": 120.0
            },
            {
                "pitch": 58,
                "velocity": 20,
                "duration": 0.1182,
                "tempo": 120.0
            },
            {
                "pitch": 60,
                "velocity": 20,
                "duration": 0.1159,
                "tempo": 120.0
            },
            {
                "pitch": 63,
                "velocity": 20,
                "duration": 0.1205,
                "tempo": 120.0
            },
            {
                "pitch": 58,
                "velocity": 20,
                "duration": 0.1159,
                "tempo": 120.0
            },
            {
                "pitch": 60,
                "velocity": 20,
                "duration": 0.1364,
                "tempo": 120.0
            },
            {
                "pitch": 65,
                "velocity": 20,
                "duration": 0.1182,
                "tempo": 120.0
            },
            {
                "pitch": 58,
                "velocity": 20,
                "duration": 0.1205,
                "tempo": 120.0
            },
            {
                "pitch": 60,
                "velocity": 20,
                "duration": 0.1205,
                "tempo": 120.0
            },
            {
                "pitch": 63,
                "velocity": 20,
                "duration": 0.1205,
                "tempo": 120.0
            },
            {
                "pitch": 67,
                "velocity": 16,
                "duration": 0.125,
                "tempo": 120.0
            },
            {
                "pitch": 60,
                "velocity": 16,
                "duration": 0.1114,
                "tempo": 120.0
            },
            {
                "pitch": 62,
                "velocity": 16,
                "duration": 0.1114,
                "tempo": 120.0
            },
            {
                "pitch": 65,
                "velocity": 16,
                "duration": 0.1136,
                "tempo": 120.0
            },
            {
                "pitch": 60,
                "velocity": 16,
                "duration": 0.1182,
                "tempo": 120.0
            },
            {
                "pitch": 62,
                "velocity": 20,
                "duration": 0.1341,
                "tempo": 120.0
            },
            {
                "pitch": 67,
                "velocity": 20,
                "duration": 0.1182,
                "tempo": 120.0
            },
            {
                "pitch": 60,
                "velocity": 20,
                "duration": 0.1182,
                "tempo": 120.0
            },
            {
                "pitch": 62,
                "velocity": 20,
                "duration": 0.1205,
                "tempo": 120.0
            },
            {
                "pitch": 65,
                "velocity": 25,
                "duration": 0.1182,
                "tempo": 120.0
            },
            {
                "pitch": 60,
                "velocity": 25,
                "duration": 0.1364,
                "tempo": 120.0
            },
            {
                "pitch": 62,
                "velocity": 32,
                "duration": 0.1205,
                "tempo": 120.0
            },
            {
                "pitch": 67,
                "velocity": 32,
                "duration": 0.1182,
                "tempo": 120.0
            },
            {
                "pitch": 60,
                "velocity": 40,
                "duration": 0.1159,
                "tempo": 120.0
            },
            {
                "pitch": 62,
                "velocity": 40,
                "duration": 0.1182,
                "tempo": 120.0
            },
            {
                "pitch": 65,
                "velocity": 51,
                "duration": 0.1341,
                "tempo": 120.0
            },
            {
                "pitch": 60,
                "velocity": 51,
                "duration": 0.1182,
                "tempo": 120.0
            },
            {
                "pitch": 62,
                "velocity": 64,
                "duration": 0.1205,
                "tempo": 120.0
            },
            {
                "pitch": 67,
                "velocity": 64,
                "duration": 0.1205,
                "tempo": 120.0
            },
            {
                "pitch": 60,
                "velocity": 80,
                "duration": 0.1182,
                "tempo": 120.0
            },
            {
                "pitch": 62,
                "velocity": 80,
                "duration": 0.1273,
                "tempo": 120.0
            },
            {
                "pitch": 65,
                "velocity": 101,
                "duration": 0.1114,
                "tempo": 120.0
            },
            {
                "pitch": 60,
                "velocity": 101,
                "duration": 0.1114,
                "tempo": 120.0
            },
            {
                "pitch": 62,
                "velocity": 101,
                "duration": 0.1136,
                "tempo": 120.0
            },
            {
                "pitch": 67,
                "velocity": 101,
                "duration": 0.1205,
                "tempo": 120.0
            },
            {
                "pitch": 60,
                "velocity": 101,
                "duration": 0.1364,
                "tempo": 120.0
            },
            {
                "pitch": 62,
                "velocity": 101,
                "duration": 0.1182,
                "tempo": 120.0
            },
            {
                "pitch": 65,
                "velocity": 101,
                "duration": 0.1205,
                "tempo": 120.0
            },
            {
                "pitch": 60,
                "velocity": 101,
                "duration": 0.1159,
                "tempo": 120.0
            },
            {
                "pitch": 62,
                "velocity": 101,
                "duration": 0.1182,
                "tempo": 120.0
            },
            {
                "pitch": 67,
                "velocity": 101,
                "duration": 0.1318,
                "tempo": 120.0
            },
            {
                "pitch": 60,
                "velocity": 101,
                "duration": 0.1182,
                "tempo": 120.0
            },
            {
                "pitch": 62,
                "velocity": 101,
                "duration": 0.1182,
                "tempo": 120.0
            },
            {
                "pitch": 65,
                "velocity": 101,
                "duration": 0.1205,
                "tempo": 120.0
            },
            {
                "pitch": 60,
                "velocity": 101,
                "duration": 0.1182,
                "tempo": 120.0
            },
            {
                "pitch": 62,
                "velocity": 101,
                "duration": 0.1386,
                "tempo": 120.0
            },
            {
                "pitch": 67,
                "velocity": 101,
                "duration": 0.1159,
                "tempo": 120.0
            },
            {
                "pitch": 60,
                "velocity": 101,
                "duration": 0.1182,
                "tempo": 120.0
            },
            {
                "pitch": 62,
                "velocity": 101,
                "duration": 0.1182,
                "tempo": 120.0
            },
            {
                "pitch": 65,
                "velocity": 101,
                "duration": 0.1182,
                "tempo": 120.0
            },
            {
                "pitch": 60,
                "velocity": 101,
                "duration": 0.1318,
                "tempo": 120.0
            },
            {
                "pitch": 62,
                "velocity": 80,
                "duration": 0.1136,
                "tempo": 120.0
            },
            {
                "pitch": 67,
                "velocity": 80,
                "duration": 0.1136,
                "tempo": 120.0
            },
            {
                "pitch": 60,
                "velocity": 64,
                "duration": 0.1159,
                "tempo": 120.0
            },
            {
                "pitch": 62,
                "velocity": 64,
                "duration": 0.1159,
                "tempo": 120.0
            },
            {
                "pitch": 65,
                "velocity": 51,
                "duration": 0.1318,
                "tempo": 120.0
            },
            {
                "pitch": 60,
                "velocity": 51,
                "duration": 0.1159,
                "tempo": 120.0
            },
            {
                "pitch": 62,
                "velocity": 40,
                "duration": 0.1182,
                "tempo": 120.0
            },
            {
                "pitch": 67,
                "velocity": 40,
                "duration": 0.1205,
                "tempo": 120.0
            },
            {
                "pitch": 60,
                "velocity": 32,
                "duration": 0.1182,
                "tempo": 120.0
            },
            {
                "pitch": 62,
                "velocity": 32,
                "duration": 0.1364,
                "tempo": 120.0
            },
            {
                "pitch": 65,
                "velocity": 25,
                "duration": 0.1182,
                "tempo": 120.0
            },
            {
                "pitch": 60,
                "velocity": 25,
                "duration": 0.1159,
                "tempo": 120.0
            },
            {
                "pitch": 62,
                "velocity": 25,
                "duration": 0.1159,
                "tempo": 120.0
            },
            {
                "pitch": 67,
                "velocity": 25,
                "duration": 0.1159,
                "tempo": 120.0
            },
            {
                "pitch": 60,
                "velocity": 20,
                "duration": 0.1341,
                "tempo": 120.0
            },
            {
                "pitch": 62,
                "velocity": 20,
                "duration": 0.1182,
                "tempo": 120.0
            },
            {
                "pitch": 65,
                "velocity": 20,
                "duration": 0.1205,
                "tempo": 120.0
            },
            {
                "pitch": 60,
                "velocity": 20,
                "duration": 0.1205,
                "tempo": 120.0
            },
            {
                "pitch": 62,
                "velocity": 20,
                "duration": 0.1182,
                "tempo": 120.0
            },
            {
                "pitch": 67,
                "velocity": 20,
                "duration": 0.1318,
                "tempo": 120.0
            },
            {
                "pitch": 60,
                "velocity": 20,
                "duration": 0.1159,
                "tempo": 120.0
            },
            {
                "pitch": 62,
                "velocity": 20,
                "duration": 0.1136,
                "tempo": 120.0
            },
            {
                "pitch": 65,
                "velocity": 20,
                "duration": 46.4614,
                "tempo": 120.0
            },
            {
                "pitch": 67,
                "velocity": 16,
                "duration": 0.1136,
                "tempo": 120.0
            },
            {
                "pitch": 60,
                "velocity": 16,
                "duration": 0.1182,
                "tempo": 120.0
            },
            {
                "pitch": 62,
                "velocity": 16,
                "duration": 0.1341,
                "tempo": 120.0
            },
            {
                "pitch": 65,
                "velocity": 16,
                "duration": 0.1205,
                "tempo": 120.0
            },
            {
                "pitch": 60,
                "velocity": 16,
                "duration": 0.1136,
                "tempo": 120.0
            },
            {
                "pitch": 62,
                "velocity": 20,
                "duration": 0.1182,
                "tempo": 120.0
            },
            {
                "pitch": 67,
                "velocity": 20,
                "duration": 0.1159,
                "tempo": 120.0
            },
            {
                "pitch": 60,
                "velocity": 20,
                "duration": 0.1341,
                "tempo": 120.0
            },
            {
                "pitch": 62,
                "velocity": 20,
                "duration": 0.1205,
                "tempo": 120.0
            },
            {
                "pitch": 65,
                "velocity": 25,
                "duration": 0.1205,
                "tempo": 120.0
            },
            {
                "pitch": 60,
                "velocity": 25,
                "duration": 0.1182,
                "tempo": 120.0
            },
            {
                "pitch": 62,
                "velocity": 32,
                "duration": 0.1205,
                "tempo": 120.0
            },
            {
                "pitch": 67,
                "velocity": 32,
                "duration": 0.1318,
                "tempo": 120.0
            },
            {
                "pitch": 60,
                "velocity": 40,
                "duration": 0.1159,
                "tempo": 120.0
            },
            {
                "pitch": 62,
                "velocity": 40,
                "duration": 0.1136,
                "tempo": 120.0
            },
            {
                "pitch": 65,
                "velocity": 51,
                "duration": 0.1159,
                "tempo": 120.0
            },
            {
                "pitch": 60,
                "velocity": 51,
                "duration": 0.1159,
                "tempo": 120.0
            }
        ]
    }
}