{
    "track_id": "11 Stage 6",
    "mood": "angry",
    "instruments": {
        "Electric Piano 1": [
            {
                "pitch": 57,
                "velocity": 51,
                "duration": 0.1682,
                "tempo": 120.0
            },
            {
                "pitch": 60,
                "velocity": 51,
                "duration": 0.1682,
                "tempo": 120.0
            },
            {
                "pitch": 59,
                "velocity": 51,
                "duration": 0.6795,
                "tempo": 120.0
            },
            {
                "pitch": 52,
                "velocity": 51,
                "duration": 0.6795,
                "tempo": 120.0
            },
            {
                "pitch": 57,
                "velocity": 51,
                "duration": 0.1682,
                "tempo": 120.0
            },
            {
                "pitch": 60,
                "velocity": 51,
                "duration": 0.1682,
                "tempo": 120.0
            },
            {
                "pitch": 59,
                "velocity": 51,
                "duration": 0.6795,
                "tempo": 120.0
            },
            {
                "pitch": 56,
                "velocity": 51,
                "duration": 0.6795,
                "tempo": 120.0
            },
            {
                "pitch": 57,
                "velocity": 51,
                "duration": 0.1659,
                "tempo": 120.0
            },
            {
                "pitch": 60,
                "velocity": 51,
                "duration": 0.1682,
                "tempo": 120.0
            },
            {
                "pitch": 59,
                "velocity": 51,
                "duration": 0.6795,
                "tempo": 120.0
            },
            {
                "pitch": 52,
                "velocity": 51,
                "duration": 0.6795,
                "tempo": 120.0
            },
            {
                "pitch": 57,
                "velocity": 51,
                "duration": 0.1659,
                "tempo": 120.0
            },
            {
                "pitch": 60,
                "velocity": 51,
                "duration": 0.1682,
                "tempo": 120.0
            },
            {
                "pitch": 59,
                "velocity": 51,
                "duration": 0.6773,
                "tempo": 120.0
            },
            {
                "pitch": 56,
                "velocity": 51,
                "duration": 0.6795,
                "tempo": 120.0
            },
            {
                "pitch": 59,
                "velocity": 25,
                "duration": 0.1659,
                "tempo": 120.0
            },
            {
                "pitch": 60,
                "velocity": 25,
                "duration": 0.1682,
                "tempo": 120.0
            },
            {
                "pitch": 59,
                "velocity": 25,
                "duration": 0.1705,
                "tempo": 120.0
            },
            {
                "pitch": 60,
                "velocity": 25,
                "duration": 0.1727,
                "tempo": 120.0
            },
            {
                "pitch": 59,
                "velocity": 32,
                "duration": 0.1659,
                "tempo": 120.0
            },
            {
                "pitch": 60,
                "velocity": 32,
                "duration": 0.1705,
                "tempo": 120.0
            },
            {
                "pitch": 59,
                "velocity": 32,
                "duration": 0.1659,
                "tempo": 120.0
            },
            {
                "pitch": 60,
                "velocity": 32,
                "duration": 0.1682,
                "tempo": 120.0
            },
            {
                "pitch": 59,
                "velocity": 40,
                "duration": 0.1705,
                "tempo": 120.0
            },
            {
                "pitch": 60,
                "velocity": 40,
                "duration": 0.175,
                "tempo": 120.0
            },
            {
                "pitch": 59,
                "velocity": 40,
                "duration": 0.1659,
                "tempo": 120.0
            },
            {
                "pitch": 60,
                "velocity": 40,
                "duration": 0.1682,
                "tempo": 120.0
            },
            {
                "pitch": 59,
                "velocity": 51,
                "duration": 0.1705,
                "tempo": 120.0
            },
            {
                "pitch": 60,
                "velocity": 51,
                "duration": 0.1727,
                "tempo": 120.0
            },
            {
                "pitch": 59,
                "velocity": 51,
                "duration": 0.1659,
                "tempo": 120.0
            },
            {
                "pitch": 60,
                "velocity": 51,
                "duration": 0.1682,
                "tempo": 120.0
            },
            {
                "pitch": 59,
                "velocity": 64,
                "duration": 0.1682,
                "tempo": 120.0
            },
            {
                "pitch": 60,
                "velocity": 64,
                "duration": 0.1682,
                "tempo": 120.0
            },
            {
                "pitch": 59,
                "velocity": 64,
                "duration": 0.1705,
                "tempo": 120.0
            },
            {
                "pitch": 60,
                "velocity": 64,
                "duration": 0.175,
                "tempo": 120.0
            },
            {
                "pitch": 59,
                "velocity": 80,
                "duration": 0.1659,
                "tempo": 120.0
            },
            {
                "pitch": 60,
                "velocity": 80,
                "duration": 0.1682,
                "tempo": 120.0
            },
            {
                "pitch": 59,
                "velocity": 80,
                "duration": 0.1705,
                "tempo": 120.0
            },
            {
                "pitch": 60,
                "velocity": 80,
                "duration": 0.1727,
                "tempo": 120.0
            },
            {
                "pitch": 59,
                "velocity": 80,
                "duration": 0.1659,
                "tempo": 120.0
            },
            {
                "pitch": 60,
                "velocity": 80,
                "duration": 0.1705,
                "tempo": 120.0
            },
            {
                "pitch": 59,
                "velocity": 80,
                "duration": 0.1659,
                "tempo": 120.0
            },
            {
                "pitch": 60,
                "velocity": 80,
                "duration": 0.1682,
                "tempo": 120.0
            },
            {
                "pitch": 59,
                "velocity": 80,
                "duration": 0.1705,
                "tempo": 120.0
            },
            {
                "pitch": 60,
                "velocity": 80,
                "duration": 0.1727,
                "tempo": 120.0
            },
            {
                "pitch": 59,
                "velocity": 80,
                "duration": 0.1659,
                "tempo": 120.0
            },
            {
                "pitch": 60,
                "velocity": 80,
                "duration": 0.1682,
                "tempo": 120.0
            }
        ],
        "Synth Bass 1": [
            {
                "pitch": 81,
                "velocity": 80,
                "duration": 0.0773,
                "tempo": 120.0
            },
            {
                "pitch": 81,
                "velocity": 40,
                "duration": 0.0818,
                "tempo": 120.0
            },
            {
                "pitch": 81,
                "velocity": 32,
                "duration": 0.0864,
                "tempo": 120.0
            },
            {
                "pitch": 81,
                "velocity": 20,
                "duration": 0.0864,
                "tempo": 120.0
            },
            {
                "pitch": 76,
                "velocity": 80,
                "duration": 0.0818,
                "tempo": 120.0
            },
            {
                "pitch": 76,
                "velocity": 40,
                "duration": 0.0818,
                "tempo": 120.0
            },
            {
                "pitch": 76,
                "velocity": 32,
                "duration": 0.0818,
                "tempo": 120.0
            },
            {
                "pitch": 76,
                "velocity": 20,
                "duration": 0.0841,
                "tempo": 120.0
            },
            {
                "pitch": 71,
                "velocity": 80,
                "duration": 0.0841,
                "tempo": 120.0
            },
            {
                "pitch": 71,
                "velocity": 40,
                "duration": 0.0841,
                "tempo": 120.0
            },
            {
                "pitch": 71,
                "velocity": 32,
                "duration": 0.0818,
                "tempo": 120.0
            },
            {
                "pitch": 71,
                "velocity": 20,
                "duration": 0.0818,
                "tempo": 120.0
            },
            {
                "pitch": 68,
                "velocity": 80,
                "duration": 0.0818,
                "tempo": 120.0
            },
            {
                "pitch": 68,
                "velocity": 40,
                "duration": 0.0841,
                "tempo": 120.0
            },
            {
                "pitch": 68,
                "velocity": 32,
                "duration": 0.0864,
                "tempo": 120.0
            },
            {
                "pitch": 68,
                "velocity": 20,
                "duration": 0.0841,
                "tempo": 120.0
            },
            {
                "pitch": 81,
                "velocity": 80,
                "duration": 0.0818,
                "tempo": 120.0
            },
            {
                "pitch": 81,
                "velocity": 40,
                "duration": 0.0818,
                "tempo": 120.0
            },
            {
                "pitch": 81,
                "velocity": 32,
                "duration": 0.0864,
                "tempo": 120.0
            },
            {
                "pitch": 81,
                "velocity": 20,
                "duration": 0.0864,
                "tempo": 120.0
            },
            {
                "pitch": 76,
                "velocity": 80,
                "duration": 0.0818,
                "tempo": 120.0
            },
            {
                "pitch": 76,
                "velocity": 40,
                "duration": 0.0818,
                "tempo": 120.0
            },
            {
                "pitch": 76,
                "velocity": 32,
                "duration": 0.0841,
                "tempo": 120.0
            },
            {
                "pitch": 76,
                "velocity": 20,
                "duration": 0.0841,
                "tempo": 120.0
            },
            {
                "pitch": 71,
                "velocity": 80,
                "duration": 0.0841,
                "tempo": 120.0
            },
            {
                "pitch": 71,
                "velocity": 40,
                "duration": 0.0841,
                "tempo": 120.0
            },
            {
                "pitch": 71,
                "velocity": 32,
                "duration": 0.0818,
                "tempo": 120.0
            },
            {
                "pitch": 71,
                "velocity": 20,
                "duration": 0.0818,
                "tempo": 120.0
            },
            {
                "pitch": 64,
                "velocity": 80,
                "duration": 0.0841,
                "tempo": 120.0
            },
            {
                "pitch": 64,
                "velocity": 40,
                "duration": 0.0841,
                "tempo": 120.0
            },
            {
                "pitch": 64,
                "velocity": 32,
                "duration": 0.0841,
                "tempo": 120.0
            },
            {
                "pitch": 64,
                "velocity": 20,
                "duration": 0.0841,
                "tempo": 120.0
            },
            {
                "pitch": 81,
                "velocity": 80,
                "duration": 0.0818,
                "tempo": 120.0
            },
            {
                "pitch": 81,
                "velocity": 40,
                "duration": 0.0818,
                "tempo": 120.0
            },
            {
                "pitch": 81,
                "velocity": 32,
                "duration": 0.0841,
                "tempo": 120.0
            },
            {
                "pitch": 81,
                "velocity": 20,
                "duration": 0.0818,
                "tempo": 120.0
            },
            {
                "pitch": 76,
                "velocity": 80,
                "duration": 0.0841,
                "tempo": 120.0
            },
            {
                "pitch": 76,
                "velocity": 40,
                "duration": 0.0841,
                "tempo": 120.0
            },
            {
                "pitch": 76,
                "velocity": 32,
                "duration": 0.0841,
                "tempo": 120.0
            },
            {
                "pitch": 76,
                "velocity": 20,
                "duration": 0.0841,
                "tempo": 120.0
            },
            {
                "pitch": 71,
                "velocity": 80,
                "duration": 0.0841,
                "tempo": 120.0
            },
            {
                "pitch": 71,
                "velocity": 40,
                "duration": 0.0841,
                "tempo": 120.0
            },
            {
                "pitch": 71,
                "velocity": 32,
                "duration": 0.0818,
                "tempo": 120.0
            },
            {
                "pitch": 71,
                "velocity": 20,
                "duration": 0.0818,
                "tempo": 120.0
            },
            {
                "pitch": 68,
                "velocity": 80,
                "duration": 0.0841,
                "tempo": 120.0
            },
            {
                "pitch": 68,
                "velocity": 40,
                "duration": 0.0818,
                "tempo": 120.0
            },
            {
                "pitch": 68,
                "velocity": 32,
                "duration": 0.0841,
                "tempo": 120.0
            },
            {
                "pitch": 68,
                "velocity": 20,
                "duration": 0.0841,
                "tempo": 120.0
            },
            {
                "pitch": 81,
                "velocity": 80,
                "duration": 0.0818,
                "tempo": 120.0
            },
            {
                "pitch": 81,
                "velocity": 40,
                "duration": 0.0841,
                "tempo": 120.0
            },
            {
                "pitch": 81,
                "velocity": 32,
                "duration": 0.0864,
                "tempo": 120.0
            },
            {
                "pitch": 81,
                "velocity": 20,
                "duration": 0.0841,
                "tempo": 120.0
            },
            {
                "pitch": 76,
                "velocity": 80,
                "duration": 0.0818,
                "tempo": 120.0
            },
            {
                "pitch": 76,
                "velocity": 40,
                "duration": 0.0818,
                "tempo": 120.0
            },
            {
                "pitch": 76,
                "velocity": 32,
                "duration": 0.0841,
                "tempo": 120.0
            },
            {
                "pitch": 76,
                "velocity": 20,
                "duration": 0.0841,
                "tempo": 120.0
            },
            {
                "pitch": 71,
                "velocity": 80,
                "duration": 0.0841,
                "tempo": 120.0
            },
            {
                "pitch": 71,
                "velocity": 40,
                "duration": 0.0841,
                "tempo": 120.0
            },
            {
                "pitch": 71,
                "velocity": 32,
                "duration": 0.0818,
                "tempo": 120.0
            },
            {
                "pitch": 71,
                "velocity": 20,
                "duration": 0.0818,
                "tempo": 120.0
            },
            {
                "pitch": 64,
                "velocity": 80,
                "duration": 0.0841,
                "tempo": 120.0
            },
            {
                "pitch": 64,
                "velocity": 40,
                "duration": 0.0818,
                "tempo": 120.0
            },
            {
                "pitch": 64,
                "velocity": 32,
                "duration": 0.0841,
                "tempo": 120.0
            },
            {
                "pitch": 64,
                "velocity": 20,
                "duration": 0.0841,
                "tempo": 120.0
            }
        ],
        "Lead 2 (sawtooth)": [
            {
                "pitch": 56,
                "velocity": 64,
                "duration": 0.3432,
                "tempo": 120.0
            },
            {
                "pitch": 57,
                "velocity": 64,
                "duration": 0.3364,
                "tempo": 120.0
            },
            {
                "pitch": 59,
                "velocity": 64,
                "duration": 0.3341,
                "tempo": 120.0
            },
            {
                "pitch": 56,
                "velocity": 64,
                "duration": 0.3364,
                "tempo": 120.0
            },
            {
                "pitch": 59,
                "velocity": 64,
                "duration": 0.3432,
                "tempo": 120.0
            },
            {
                "pitch": 57,
                "velocity": 64,
                "duration": 0.3364,
                "tempo": 120.0
            },
            {
                "pitch": 56,
                "velocity": 64,
                "duration": 0.3432,
                "tempo": 120.0
            },
            {
                "pitch": 57,
                "velocity": 64,
                "duration": 0.3364,
                "tempo": 120.0
            },
            {
                "pitch": 59,
                "velocity": 64,
                "duration": 0.3432,
                "tempo": 120.0
            },
            {
                "pitch": 56,
                "velocity": 64,
                "duration": 0.3364,
                "tempo": 120.0
            },
            {
                "pitch": 59,
                "velocity": 64,
                "duration": 0.3432,
                "tempo": 120.0
            },
            {
                "pitch": 57,
                "velocity": 64,
                "duration": 0.3364,
                "tempo": 120.0
            }
        ],
        "Acoustic Grand Piano": [
            {
                "pitch": 74,
                "velocity": 51,
                "duration": 0.5068,
                "tempo": 120.0
            },
            {
                "pitch": 69,
                "velocity": 51,
                "duration": 0.5068,
                "tempo": 120.0
            },
            {
                "pitch": 74,
                "velocity": 51,
                "duration": 0.3455,
                "tempo": 120.0
            },
            {
                "pitch": 72,
                "velocity": 51,
                "duration": 0.5023,
                "tempo": 120.0
            },
            {
                "pitch": 67,
                "velocity": 51,
                "duration": 0.5136,
                "tempo": 120.0
            },
            {
                "pitch": 72,
                "velocity": 51,
                "duration": 0.3341,
                "tempo": 120.0
            },
            {
                "pitch": 74,
                "velocity": 51,
                "duration": 0.5068,
                "tempo": 120.0
            },
            {
                "pitch": 70,
                "velocity": 51,
                "duration": 0.5068,
                "tempo": 120.0
            },
            {
                "pitch": 74,
                "velocity": 51,
                "duration": 0.3364,
                "tempo": 120.0
            },
            {
                "pitch": 73,
                "velocity": 51,
                "duration": 1.3591,
                "tempo": 120.0
            },
            {
                "pitch": 74,
                "velocity": 51,
                "duration": 0.5091,
                "tempo": 120.0
            },
            {
                "pitch": 69,
                "velocity": 51,
                "duration": 0.5068,
                "tempo": 120.0
            },
            {
                "pitch": 74,
                "velocity": 51,
                "duration": 0.3455,
                "tempo": 120.0
            },
            {
                "pitch": 72,
                "velocity": 51,
                "duration": 0.5023,
                "tempo": 120.0
            },
            {
                "pitch": 74,
                "velocity": 51,
                "duration": 0.5114,
                "tempo": 120.0
            },
            {
                "pitch": 76,
                "velocity": 51,
                "duration": 0.3341,
                "tempo": 120.0
            },
            {
                "pitch": 79,
                "velocity": 51,
                "duration": 0.5091,
                "tempo": 120.0
            },
            {
                "pitch": 77,
                "velocity": 51,
                "duration": 0.5068,
                "tempo": 120.0
            },
            {
                "pitch": 76,
                "velocity": 51,
                "duration": 0.3455,
                "tempo": 120.0
            },
            {
                "pitch": 73,
                "velocity": 51,
                "duration": 1.35,
                "tempo": 120.0
            }
        ],
        "Violin": [
            {
                "pitch": 93,
                "velocity": 80,
                "duration": 2.3636,
                "tempo": 120.0
            },
            {
                "pitch": 92,
                "velocity": 80,
                "duration": 0.3455,
                "tempo": 120.0
            },
            {
                "pitch": 93,
                "velocity": 80,
                "duration": 2.3659,
                "tempo": 120.0
            },
            {
                "pitch": 92,
                "velocity": 80,
                "duration": 0.3455,
                "tempo": 120.0
            },
            {
                "pitch": 93,
                "velocity": 80,
                "duration": 2.3659,
                "tempo": 120.0
            },
            {
                "pitch": 92,
                "velocity": 80,
                "duration": 0.3432,
                "tempo": 120.0
            },
            {
                "pitch": 93,
                "velocity": 80,
                "duration": 2.3636,
                "tempo": 120.0
            },
            {
                "pitch": 92,
                "velocity": 80,
                "duration": 0.3432,
                "tempo": 120.0
            }
        ],
        "Acoustic Guitar (nylon)": [
            {
                "pitch": 33,
                "velocity": 101,
                "duration": 0.1159,
                "tempo": 120.0
            },
            {
                "pitch": 33,
                "velocity": 101,
                "duration": 0.2545,
                "tempo": 120.0
            },
            {
                "pitch": 33,
                "velocity": 101,
                "duration": 0.1205,
                "tempo": 120.0
            },
            {
                "pitch": 36,
                "velocity": 101,
                "duration": 0.1159,
                "tempo": 120.0
            },
            {
                "pitch": 36,
                "velocity": 101,
                "duration": 0.25,
                "tempo": 120.0
            },
            {
                "pitch": 36,
                "velocity": 101,
                "duration": 0.1159,
                "tempo": 120.0
            },
            {
                "pitch": 35,
                "velocity": 101,
                "duration": 0.1205,
                "tempo": 120.0
            },
            {
                "pitch": 35,
                "velocity": 101,
                "duration": 0.2545,
                "tempo": 120.0
            },
            {
                "pitch": 35,
                "velocity": 101,
                "duration": 0.1182,
                "tempo": 120.0
            },
            {
                "pitch": 40,
                "velocity": 101,
                "duration": 0.1159,
                "tempo": 120.0
            },
            {
                "pitch": 40,
                "velocity": 101,
                "duration": 0.2523,
                "tempo": 120.0
            },
            {
                "pitch": 40,
                "velocity": 101,
                "duration": 0.1182,
                "tempo": 120.0
            },
            {
                "pitch": 33,
                "velocity": 101,
                "duration": 0.1182,
                "tempo": 120.0
            },
            {
                "pitch": 33,
                "velocity": 101,
                "duration": 0.2545,
                "tempo": 120.0
            },
            {
                "pitch": 33,
                "velocity": 101,
                "duration": 0.1205,
                "tempo": 120.0
            },
            {
                "pitch": 36,
                "velocity": 101,
                "duration": 0.1159,
                "tempo": 120.0
            },
            {
                "pitch": 36,
                "velocity": 101,
                "duration": 0.25,
                "tempo": 120.0
            },
            {
                "pitch": 36,
                "velocity": 101,
                "duration": 0.1159,
                "tempo": 120.0
            },
            {
                "pitch": 35,
                "velocity": 101,
                "duration": 0.1205,
                "tempo": 120.0
            },
            {
                "pitch": 35,
                "velocity": 101,
                "duration": 0.2545,
                "tempo": 120.0
            },
            {
                "pitch": 35,
                "velocity": 101,
                "duration": 0.1182,
                "tempo": 120.0
            },
            {
                "pitch": 40,
                "velocity": 101,
                "duration": 0.1159,
                "tempo": 120.0
            },
            {
                "pitch": 40,
                "velocity": 101,
                "duration": 0.2523,
                "tempo": 120.0
            },
            {
                "pitch": 40,
                "velocity": 101,
                "duration": 0.1182,
                "tempo": 120.0
            },
            {
                "pitch": 33,
                "velocity": 101,
                "duration": 0.1182,
                "tempo": 120.0
            },
            {
                "pitch": 33,
                "velocity": 101,
                "duration": 0.25,
                "tempo": 120.0
            },
            {
                "pitch": 33,
                "velocity": 101,
                "duration": 0.1159,
                "tempo": 120.0
            },
            {
                "pitch": 36,
                "velocity": 101,
                "duration": 0.1182,
                "tempo": 120.0
            },
            {
                "pitch": 36,
                "velocity": 101,
                "duration": 0.2568,
                "tempo": 120.0
            },
            {
                "pitch": 36,
                "velocity": 101,
                "duration": 0.1159,
                "tempo": 120.0
            },
            {
                "pitch": 35,
                "velocity": 101,
                "duration": 0.1182,
                "tempo": 120.0
            },
            {
                "pitch": 35,
                "velocity": 101,
                "duration": 0.2545,
                "tempo": 120.0
            },
            {
                "pitch": 35,
                "velocity": 101,
                "duration": 0.1182,
                "tempo": 120.0
            },
            {
                "pitch": 40,
                "velocity": 101,
                "duration": 0.1159,
                "tempo": 120.0
            },
            {
                "pitch": 40,
                "velocity": 101,
                "duration": 0.2523,
                "tempo": 120.0
            },
            {
                "pitch": 40,
                "velocity": 101,
                "duration": 0.1205,
                "tempo": 120.0
            },
            {
                "pitch": 33,
                "velocity": 101,
                "duration": 0.1182,
                "tempo": 120.0
            },
            {
                "pitch": 33,
                "velocity": 101,
                "duration": 0.2523,
                "tempo": 120.0
            },
            {
                "pitch": 33,
                "velocity": 101,
                "duration": 0.1182,
                "tempo": 120.0
            },
            {
                "pitch": 36,
                "velocity": 101,
                "duration": 0.1159,
                "tempo": 120.0
            },
            {
                "pitch": 36,
                "velocity": 101,
                "duration": 0.2523,
                "tempo": 120.0
            },
            {
                "pitch": 36,
                "velocity": 101,
                "duration": 0.1159,
                "tempo": 120.0
            },
            {
                "pitch": 35,
                "velocity": 101,
                "duration": 0.1182,
                "tempo": 120.0
            },
            {
                "pitch": 35,
                "velocity": 101,
                "duration": 0.2545,
                "tempo": 120.0
            },
            {
                "pitch": 35,
                "velocity": 101,
                "duration": 0.1159,
                "tempo": 120.0
            },
            {
                "pitch": 40,
                "velocity": 101,
                "duration": 0.1159,
                "tempo": 120.0
            },
            {
                "pitch": 40,
                "velocity": 101,
                "duration": 0.2523,
                "tempo": 120.0
            },
            {
                "pitch": 40,
                "velocity": 101,
                "duration": 0.1205,
                "tempo": 120.0
            },
            {
                "pitch": 38,
                "velocity": 101,
                "duration": 0.1159,
                "tempo": 120.0
            },
            {
                "pitch": 38,
                "velocity": 101,
                "duration": 0.2523,
                "tempo": 120.0
            },
            {
                "pitch": 38,
                "velocity": 101,
                "duration": 0.1182,
                "tempo": 120.0
            },
            {
                "pitch": 38,
                "velocity": 101,
                "duration": 0.1182,
                "tempo": 120.0
            },
            {
                "pitch": 38,
                "velocity": 101,
                "duration": 0.2545,
                "tempo": 120.0
            },
            {
                "pitch": 38,
                "velocity": 101,
                "duration": 0.1205,
                "tempo": 120.0
            },
            {
                "pitch": 36,
                "velocity": 101,
                "duration": 0.1159,
                "tempo": 120.0
            },
            {
                "pitch": 36,
                "velocity": 101,
                "duration": 0.25,
                "tempo": 120.0
            },
            {
                "pitch": 36,
                "velocity": 101,
                "duration": 0.1159,
                "tempo": 120.0
            },
            {
                "pitch": 36,
                "velocity": 101,
                "duration": 0.1205,
                "tempo": 120.0
            },
            {
                "pitch": 36,
                "velocity": 101,
                "duration": 0.2545,
                "tempo": 120.0
            },
            {
                "pitch": 36,
                "velocity": 101,
                "duration": 0.1182,
                "tempo": 120.0
            },
            {
                "pitch": 34,
                "velocity": 101,
                "duration": 0.1159,
                "tempo": 120.0
            },
            {
                "pitch": 34,
                "velocity": 101,
                "duration": 0.2523,
                "tempo": 120.0
            },
            {
                "pitch": 34,
                "velocity": 101,
                "duration": 0.1182,
                "tempo": 120.0
            },
            {
                "pitch": 34,
                "velocity": 101,
                "duration": 0.1182,
                "tempo": 120.0
            },
            {
                "pitch": 34,
                "velocity": 101,
                "duration": 0.25,
                "tempo": 120.0
            },
            {
                "pitch": 34,
                "velocity": 101,
                "duration": 0.1159,
                "tempo": 120.0
            },
            {
                "pitch": 33,
                "velocity": 101,
                "duration": 0.1182,
                "tempo": 120.0
            },
            {
                "pitch": 33,
                "velocity": 101,
                "duration": 0.2568,
                "tempo": 120.0
            },
            {
                "pitch": 33,
                "velocity": 101,
                "duration": 0.1159,
                "tempo": 120.0
            },
            {
                "pitch": 33,
                "velocity": 101,
                "duration": 0.1182,
                "tempo": 120.0
            },
            {
                "pitch": 33,
                "velocity": 101,
                "duration": 0.2545,
                "tempo": 120.0
            },
            {
                "pitch": 33,
                "velocity": 101,
                "duration": 0.1182,
                "tempo": 120.0
            },
            {
                "pitch": 38,
                "velocity": 101,
                "duration": 0.1159,
                "tempo": 120.0
            },
            {
                "pitch": 38,
                "velocity": 101,
                "duration": 0.2523,
                "tempo": 120.0
            },
            {
                "pitch": 38,
                "velocity": 101,
                "duration": 0.1205,
                "tempo": 120.0
            },
            {
                "pitch": 38,
                "velocity": 101,
                "duration": 0.1182,
                "tempo": 120.0
            },
            {
                "pitch": 38,
                "velocity": 101,
                "duration": 0.2523,
                "tempo": 120.0
            },
            {
                "pitch": 38,
                "velocity": 101,
                "duration": 0.1182,
                "tempo": 120.0
            },
            {
                "pitch": 36,
                "velocity": 101,
                "duration": 0.1159,
                "tempo": 120.0
            },
            {
                "pitch": 36,
                "velocity": 101,
                "duration": 0.2523,
                "tempo": 120.0
            },
            {
                "pitch": 36,
                "velocity": 101,
                "duration": 0.1159,
                "tempo": 120.0
            },
            {
                "pitch": 36,
                "velocity": 101,
                "duration": 0.1182,
                "tempo": 120.0
            },
            {
                "pitch": 36,
                "velocity": 101,
                "duration": 0.2545,
                "tempo": 120.0
            },
            {
                "pitch": 36,
                "velocity": 101,
                "duration": 0.1159,
                "tempo": 120.0
            },
            {
                "pitch": 34,
                "velocity": 101,
                "duration": 0.1159,
                "tempo": 120.0
            },
            {
                "pitch": 34,
                "velocity": 101,
                "duration": 0.2523,
                "tempo": 120.0
            },
            {
                "pitch": 34,
                "velocity": 101,
                "duration": 0.1205,
                "tempo": 120.0
            },
            {
                "pitch": 34,
                "velocity": 101,
                "duration": 0.1182,
                "tempo": 120.0
            },
            {
                "pitch": 34,
                "velocity": 101,
                "duration": 0.2523,
                "tempo": 120.0
            },
            {
                "pitch": 34,
                "velocity": 101,
                "duration": 0.1182,
                "tempo": 120.0
            },
            {
                "pitch": 33,
                "velocity": 101,
                "duration": 0.1159,
                "tempo": 120.0
            },
            {
                "pitch": 33,
                "velocity": 101,
                "duration": 0.2523,
                "tempo": 120.0
            },
            {
                "pitch": 33,
                "velocity": 101,
                "duration": 0.1159,
                "tempo": 120.0
            },
            {
                "pitch": 33,
                "velocity": 101,
                "duration": 0.1159,
                "tempo": 120.0
            },
            {
                "pitch": 33,
                "velocity": 101,
                "duration": 0.2545,
                "tempo": 120.0
            },
            {
                "pitch": 33,
                "velocity": 101,
                "duration": 0.1205,
                "tempo": 120.0
            },
            {
                "pitch": 40,
                "velocity": 101,
                "duration": 0.25,
                "tempo": 120.0
            },
            {
                "pitch": 35,
                "velocity": 101,
                "duration": 0.2591,
                "tempo": 120.0
            },
            {
                "pitch": 36,
                "velocity": 101,
                "duration": 0.25,
                "tempo": 120.0
            },
            {
                "pitch": 38,
                "velocity": 101,
                "duration": 0.25,
                "tempo": 120.0
            },
            {
                "pitch": 40,
                "velocity": 101,
                "duration": 0.2591,
                "tempo": 120.0
            },
            {
                "pitch": 35,
                "velocity": 101,
                "duration": 0.25,
                "tempo": 120.0
            },
            {
                "pitch": 43,
                "velocity": 101,
                "duration": 0.2568,
                "tempo": 120.0
            },
            {
                "pitch": 41,
                "velocity": 101,
                "duration": 0.2523,
                "tempo": 120.0
            },
            {
                "pitch": 40,
                "velocity": 101,
                "duration": 0.25,
                "tempo": 120.0
            },
            {
                "pitch": 35,
                "velocity": 101,
                "duration": 0.2591,
                "tempo": 120.0
            },
            {
                "pitch": 36,
                "velocity": 101,
                "duration": 0.25,
                "tempo": 120.0
            },
            {
                "pitch": 38,
                "velocity": 101,
                "duration": 0.2568,
                "tempo": 120.0
            },
            {
                "pitch": 40,
                "velocity": 101,
                "duration": 0.2523,
                "tempo": 120.0
            },
            {
                "pitch": 35,
                "velocity": 101,
                "duration": 0.25,
                "tempo": 120.0
            },
            {
                "pitch": 43,
                "velocity": 101,
                "duration": 0.2591,
                "tempo": 120.0
            },
            {
                "pitch": 41,
                "velocity": 101,
                "duration": 0.2523,
                "tempo": 120.0
            }
        ]
    }
}