{
    "track_id": "13 Staff Roll",
    "mood": "happy",
    "instruments": {
        "Electric Guitar (clean)": [
            {
                "pitch": 31,
                "velocity": 101,
                "duration": 0.1932,
                "tempo": 120.0
            },
            {
                "pitch": 31,
                "velocity": 101,
                "duration": 0.075,
                "tempo": 120.0
            },
            {
                "pitch": 31,
                "velocity": 101,
                "duration": 0.1955,
                "tempo": 120.0
            },
            {
                "pitch": 31,
                "velocity": 101,
                "duration": 0.0727,
                "tempo": 120.0
            },
            {
                "pitch": 31,
                "velocity": 101,
                "duration": 0.1955,
                "tempo": 120.0
            },
            {
                "pitch": 31,
                "velocity": 101,
                "duration": 0.075,
                "tempo": 120.0
            },
            {
                "pitch": 31,
                "velocity": 101,
                "duration": 0.1932,
                "tempo": 120.0
            },
            {
                "pitch": 31,
                "velocity": 101,
                "duration": 0.075,
                "tempo": 120.0
            },
            {
                "pitch": 31,
                "velocity": 101,
                "duration": 0.1955,
                "tempo": 120.0
            },
            {
                "pitch": 31,
                "velocity": 101,
                "duration": 0.075,
                "tempo": 120.0
            },
            {
                "pitch": 31,
                "velocity": 101,
                "duration": 0.1932,
                "tempo": 120.0
            },
            {
                "pitch": 31,
                "velocity": 101,
                "duration": 0.075,
                "tempo": 120.0
            },
            {
                "pitch": 31,
                "velocity": 101,
                "duration": 0.1955,
                "tempo": 120.0
            },
            {
                "pitch": 31,
                "velocity": 101,
                "duration": 0.075,
                "tempo": 120.0
            },
            {
                "pitch": 31,
                "velocity": 101,
                "duration": 0.1886,
                "tempo": 120.0
            },
            {
                "pitch": 31,
                "velocity": 101,
                "duration": 0.0727,
                "tempo": 120.0
            },
            {
                "pitch": 31,
                "velocity": 101,
                "duration": 0.2,
                "tempo": 120.0
            },
            {
                "pitch": 31,
                "velocity": 101,
                "duration": 0.0773,
                "tempo": 120.0
            },
            {
                "pitch": 31,
                "velocity": 101,
                "duration": 0.1886,
                "tempo": 120.0
            },
            {
                "pitch": 31,
                "velocity": 101,
                "duration": 0.0727,
                "tempo": 120.0
            },
            {
                "pitch": 31,
                "velocity": 101,
                "duration": 0.1932,
                "tempo": 120.0
            },
            {
                "pitch": 31,
                "velocity": 101,
                "duration": 0.075,
                "tempo": 120.0
            },
            {
                "pitch": 31,
                "velocity": 101,
                "duration": 0.1955,
                "tempo": 120.0
            },
            {
                "pitch": 31,
                "velocity": 101,
                "duration": 0.075,
                "tempo": 120.0
            },
            {
                "pitch": 31,
                "velocity": 101,
                "duration": 0.1932,
                "tempo": 120.0
            },
            {
                "pitch": 31,
                "velocity": 101,
                "duration": 0.075,
                "tempo": 120.0
            },
            {
                "pitch": 31,
                "velocity": 101,
                "duration": 0.1955,
                "tempo": 120.0
            },
            {
                "pitch": 31,
                "velocity": 101,
                "duration": 0.075,
                "tempo": 120.0
            },
            {
                "pitch": 31,
                "velocity": 101,
                "duration": 0.1886,
                "tempo": 120.0
            },
            {
                "pitch": 31,
                "velocity": 101,
                "duration": 0.0727,
                "tempo": 120.0
            },
            {
                "pitch": 31,
                "velocity": 101,
                "duration": 0.1955,
                "tempo": 120.0
            },
            {
                "pitch": 31,
                "velocity": 101,
                "duration": 0.075,
                "tempo": 120.0
            },
            {
                "pitch": 31,
                "velocity": 101,
                "duration": 0.2,
                "tempo": 120.0
            },
            {
                "pitch": 31,
                "velocity": 101,
                "duration": 0.0773,
                "tempo": 120.0
            },
            {
                "pitch": 31,
                "velocity": 101,
                "duration": 0.1886,
                "tempo": 120.0
            },
            {
                "pitch": 31,
                "velocity": 101,
                "duration": 0.0727,
                "tempo": 120.0
            },
            {
                "pitch": 31,
                "velocity": 101,
                "duration": 0.1955,
                "tempo": 120.0
            },
            {
                "pitch": 31,
                "velocity": 101,
                "duration": 0.075,
                "tempo": 120.0
            },
            {
                "pitch": 31,
                "velocity": 101,
                "duration": 0.1932,
                "tempo": 120.0
            },
            {
                "pitch": 31,
                "velocity": 101,
                "duration": 0.075,
                "tempo": 120.0
            },
            {
                "pitch": 31,
                "velocity": 101,
                "duration": 0.1955,
                "tempo": 120.0
            },
            {
                "pitch": 31,
                "velocity": 101,
                "duration": 0.0727,
                "tempo": 120.0
            },
            {
                "pitch": 31,
                "velocity": 101,
                "duration": 0.1886,
                "tempo": 120.0
            },
            {
                "pitch": 31,
                "velocity": 101,
                "duration": 0.0727,
                "tempo": 120.0
            },
            {
                "pitch": 31,
                "velocity": 101,
                "duration": 0.1955,
                "tempo": 120.0
            },
            {
                "pitch": 31,
                "velocity": 101,
                "duration": 0.075,
                "tempo": 120.0
            },
            {
                "pitch": 31,
                "velocity": 101,
                "duration": 0.1932,
                "tempo": 120.0
            },
            {
                "pitch": 31,
                "velocity": 101,
                "duration": 0.075,
                "tempo": 120.0
            },
            {
                "pitch": 31,
                "velocity": 101,
                "duration": 0.1977,
                "tempo": 120.0
            },
            {
                "pitch": 31,
                "velocity": 101,
                "duration": 0.0773,
                "tempo": 120.0
            },
            {
                "pitch": 31,
                "velocity": 101,
                "duration": 0.1886,
                "tempo": 120.0
            },
            {
                "pitch": 31,
                "velocity": 101,
                "duration": 0.0727,
                "tempo": 120.0
            },
            {
                "pitch": 31,
                "velocity": 101,
                "duration": 0.1932,
                "tempo": 120.0
            },
            {
                "pitch": 31,
                "velocity": 101,
                "duration": 0.075,
                "tempo": 120.0
            },
            {
                "pitch": 31,
                "velocity": 101,
                "duration": 0.1955,
                "tempo": 120.0
            },
            {
                "pitch": 31,
                "velocity": 101,
                "duration": 0.075,
                "tempo": 120.0
            },
            {
                "pitch": 43,
                "velocity": 101,
                "duration": 0.1932,
                "tempo": 120.0
            },
            {
                "pitch": 43,
                "velocity": 101,
                "duration": 0.075,
                "tempo": 120.0
            },
            {
                "pitch": 41,
                "velocity": 101,
                "duration": 0.1955,
                "tempo": 120.0
            },
            {
                "pitch": 41,
                "velocity": 101,
                "duration": 0.2523,
                "tempo": 120.0
            },
            {
                "pitch": 41,
                "velocity": 101,
                "duration": 0.0727,
                "tempo": 120.0
            },
            {
                "pitch": 38,
                "velocity": 101,
                "duration": 0.075,
                "tempo": 120.0
            },
            {
                "pitch": 31,
                "velocity": 101,
                "duration": 0.075,
                "tempo": 120.0
            },
            {
                "pitch": 0,
                "velocity": 101,
                "duration": 0.95,
                "tempo": 120.0
            },
            {
                "pitch": 38,
                "velocity": 101,
                "duration": 0.0727,
                "tempo": 120.0
            },
            {
                "pitch": 41,
                "velocity": 101,
                "duration": 0.2386,
                "tempo": 120.0
            },
            {
                "pitch": 31,
                "velocity": 101,
                "duration": 0.2,
                "tempo": 120.0
            },
            {
                "pitch": 31,
                "velocity": 101,
                "duration": 0.0773,
                "tempo": 120.0
            },
            {
                "pitch": 31,
                "velocity": 101,
                "duration": 0.1909,
                "tempo": 120.0
            },
            {
                "pitch": 31,
                "velocity": 101,
                "duration": 0.0727,
                "tempo": 120.0
            },
            {
                "pitch": 31,
                "velocity": 101,
                "duration": 0.1955,
                "tempo": 120.0
            },
            {
                "pitch": 31,
                "velocity": 101,
                "duration": 0.075,
                "tempo": 120.0
            },
            {
                "pitch": 31,
                "velocity": 101,
                "duration": 0.1932,
                "tempo": 120.0
            },
            {
                "pitch": 31,
                "velocity": 101,
                "duration": 0.075,
                "tempo": 120.0
            },
            {
                "pitch": 31,
                "velocity": 101,
                "duration": 0.1955,
                "tempo": 120.0
            },
            {
                "pitch": 31,
                "velocity": 101,
                "duration": 0.0727,
                "tempo": 120.0
            },
            {
                "pitch": 31,
                "velocity": 101,
                "duration": 0.1909,
                "tempo": 120.0
            },
            {
                "pitch": 31,
                "velocity": 101,
                "duration": 0.0727,
                "tempo": 120.0
            },
            {
                "pitch": 31,
                "velocity": 101,
                "duration": 0.1955,
                "tempo": 120.0
            },
            {
                "pitch": 31,
                "velocity": 101,
                "duration": 0.075,
                "tempo": 120.0
            },
            {
                "pitch": 31,
                "velocity": 101,
                "duration": 0.1955,
                "tempo": 120.0
            },
            {
                "pitch": 31,
                "velocity": 101,
                "duration": 0.075,
                "tempo": 120.0
            },
            {
                "pitch": 31,
                "velocity": 101,
                "duration": 0.1932,
                "tempo": 120.0
            },
            {
                "pitch": 31,
                "velocity": 101,
                "duration": 0.075,
                "tempo": 120.0
            },
            {
                "pitch": 31,
                "velocity": 101,
                "duration": 0.1955,
                "tempo": 120.0
            },
            {
                "pitch": 31,
                "velocity": 101,
                "duration": 0.075,
                "tempo": 120.0
            },
            {
                "pitch": 31,
                "velocity": 101,
                "duration": 0.1932,
                "tempo": 120.0
            },
            {
                "pitch": 31,
                "velocity": 101,
                "duration": 0.075,
                "tempo": 120.0
            },
            {
                "pitch": 31,
                "velocity": 101,
                "duration": 0.1955,
                "tempo": 120.0
            },
            {
                "pitch": 31,
                "velocity": 101,
                "duration": 0.075,
                "tempo": 120.0
            },
            {
                "pitch": 31,
                "velocity": 101,
                "duration": 0.1955,
                "tempo": 120.0
            },
            {
                "pitch": 31,
                "velocity": 101,
                "duration": 0.075,
                "tempo": 120.0
            },
            {
                "pitch": 31,
                "velocity": 101,
                "duration": 0.1886,
                "tempo": 120.0
            },
            {
                "pitch": 31,
                "velocity": 101,
                "duration": 0.0727,
                "tempo": 120.0
            },
            {
                "pitch": 31,
                "velocity": 101,
                "duration": 0.1955,
                "tempo": 120.0
            },
            {
                "pitch": 31,
                "velocity": 101,
                "duration": 0.075,
                "tempo": 120.0
            },
            {
                "pitch": 31,
                "velocity": 101,
                "duration": 0.1932,
                "tempo": 120.0
            },
            {
                "pitch": 31,
                "velocity": 101,
                "duration": 0.075,
                "tempo": 120.0
            },
            {
                "pitch": 31,
                "velocity": 101,
                "duration": 0.1955,
                "tempo": 120.0
            },
            {
                "pitch": 31,
                "velocity": 101,
                "duration": 0.075,
                "tempo": 120.0
            },
            {
                "pitch": 31,
                "velocity": 101,
                "duration": 0.1932,
                "tempo": 120.0
            },
            {
                "pitch": 31,
                "velocity": 101,
                "duration": 0.075,
                "tempo": 120.0
            },
            {
                "pitch": 31,
                "velocity": 101,
                "duration": 0.1955,
                "tempo": 120.0
            },
            {
                "pitch": 31,
                "velocity": 101,
                "duration": 0.075,
                "tempo": 120.0
            },
            {
                "pitch": 31,
                "velocity": 101,
                "duration": 0.1955,
                "tempo": 120.0
            },
            {
                "pitch": 31,
                "velocity": 101,
                "duration": 0.075,
                "tempo": 120.0
            },
            {
                "pitch": 31,
                "velocity": 101,
                "duration": 0.1886,
                "tempo": 120.0
            },
            {
                "pitch": 31,
                "velocity": 101,
                "duration": 0.0727,
                "tempo": 120.0
            },
            {
                "pitch": 31,
                "velocity": 101,
                "duration": 0.1955,
                "tempo": 120.0
            },
            {
                "pitch": 31,
                "velocity": 101,
                "duration": 0.075,
                "tempo": 120.0
            },
            {
                "pitch": 31,
                "velocity": 101,
                "duration": 0.1932,
                "tempo": 120.0
            },
            {
                "pitch": 31,
                "velocity": 101,
                "duration": 0.075,
                "tempo": 120.0
            },
            {
                "pitch": 31,
                "velocity": 101,
                "duration": 0.1955,
                "tempo": 120.0
            },
            {
                "pitch": 31,
                "velocity": 101,
                "duration": 0.075,
                "tempo": 120.0
            },
            {
                "pitch": 31,
                "velocity": 101,
                "duration": 0.1955,
                "tempo": 120.0
            },
            {
                "pitch": 31,
                "velocity": 101,
                "duration": 0.075,
                "tempo": 120.0
            },
            {
                "pitch": 31,
                "velocity": 101,
                "duration": 0.1955,
                "tempo": 120.0
            },
            {
                "pitch": 31,
                "velocity": 101,
                "duration": 0.075,
                "tempo": 120.0
            },
            {
                "pitch": 31,
                "velocity": 101,
                "duration": 0.1886,
                "tempo": 120.0
            },
            {
                "pitch": 31,
                "velocity": 101,
                "duration": 0.0727,
                "tempo": 120.0
            },
            {
                "pitch": 31,
                "velocity": 101,
                "duration": 0.1955,
                "tempo": 120.0
            },
            {
                "pitch": 31,
                "velocity": 101,
                "duration": 0.075,
                "tempo": 120.0
            },
            {
                "pitch": 43,
                "velocity": 101,
                "duration": 0.1955,
                "tempo": 120.0
            },
            {
                "pitch": 43,
                "velocity": 101,
                "duration": 0.075,
                "tempo": 120.0
            },
            {
                "pitch": 0,
                "velocity": 101,
                "duration": 10.5136,
                "tempo": 120.0
            },
            {
                "pitch": 41,
                "velocity": 101,
                "duration": 10.5886,
                "tempo": 120.0
            },
            {
                "pitch": 41,
                "velocity": 101,
                "duration": 0.1932,
                "tempo": 120.0
            },
            {
                "pitch": 41,
                "velocity": 101,
                "duration": 0.075,
                "tempo": 120.0
            },
            {
                "pitch": 41,
                "velocity": 101,
                "duration": 0.2545,
                "tempo": 120.0
            },
            {
                "pitch": 40,
                "velocity": 101,
                "duration": 11.4727,
                "tempo": 120.0
            },
            {
                "pitch": 38,
                "velocity": 101,
                "duration": 0.075,
                "tempo": 120.0
            },
            {
                "pitch": 31,
                "velocity": 101,
                "duration": 0.075,
                "tempo": 120.0
            },
            {
                "pitch": 0,
                "velocity": 101,
                "duration": 0.9591,
                "tempo": 120.0
            },
            {
                "pitch": 38,
                "velocity": 101,
                "duration": 0.075,
                "tempo": 120.0
            },
            {
                "pitch": 55,
                "velocity": 101,
                "duration": 0.1932,
                "tempo": 120.0
            },
            {
                "pitch": 55,
                "velocity": 101,
                "duration": 0.075,
                "tempo": 120.0
            },
            {
                "pitch": 55,
                "velocity": 101,
                "duration": 0.1886,
                "tempo": 120.0
            },
            {
                "pitch": 55,
                "velocity": 101,
                "duration": 0.0727,
                "tempo": 120.0
            },
            {
                "pitch": 55,
                "velocity": 101,
                "duration": 0.1955,
                "tempo": 120.0
            },
            {
                "pitch": 55,
                "velocity": 101,
                "duration": 0.075,
                "tempo": 120.0
            },
            {
                "pitch": 55,
                "velocity": 101,
                "duration": 0.1955,
                "tempo": 120.0
            },
            {
                "pitch": 55,
                "velocity": 101,
                "duration": 0.075,
                "tempo": 120.0
            },
            {
                "pitch": 55,
                "velocity": 101,
                "duration": 0.1932,
                "tempo": 120.0
            },
            {
                "pitch": 55,
                "velocity": 101,
                "duration": 0.075,
                "tempo": 120.0
            },
            {
                "pitch": 55,
                "velocity": 101,
                "duration": 0.1955,
                "tempo": 120.0
            },
            {
                "pitch": 55,
                "velocity": 101,
                "duration": 0.0727,
                "tempo": 120.0
            },
            {
                "pitch": 55,
                "velocity": 101,
                "duration": 0.1955,
                "tempo": 120.0
            },
            {
                "pitch": 55,
                "velocity": 101,
                "duration": 0.075,
                "tempo": 120.0
            },
            {
                "pitch": 55,
                "velocity": 101,
                "duration": 0.1886,
                "tempo": 120.0
            },
            {
                "pitch": 55,
                "velocity": 101,
                "duration": 0.0727,
                "tempo": 120.0
            },
            {
                "pitch": 55,
                "velocity": 101,
                "duration": 0.1932,
                "tempo": 120.0
            },
            {
                "pitch": 55,
                "velocity": 101,
                "duration": 0.075,
                "tempo": 120.0
            },
            {
                "pitch": 55,
                "velocity": 101,
                "duration": 0.1955,
                "tempo": 120.0
            },
            {
                "pitch": 55,
                "velocity": 101,
                "duration": 0.075,
                "tempo": 120.0
            },
            {
                "pitch": 55,
                "velocity": 101,
                "duration": 0.1955,
                "tempo": 120.0
            },
            {
                "pitch": 55,
                "velocity": 101,
                "duration": 0.075,
                "tempo": 120.0
            },
            {
                "pitch": 55,
                "velocity": 101,
                "duration": 0.1932,
                "tempo": 120.0
            },
            {
                "pitch": 55,
                "velocity": 101,
                "duration": 0.075,
                "tempo": 120.0
            },
            {
                "pitch": 57,
                "velocity": 101,
                "duration": 0.1955,
                "tempo": 120.0
            },
            {
                "pitch": 57,
                "velocity": 101,
                "duration": 0.0727,
                "tempo": 120.0
            },
            {
                "pitch": 57,
                "velocity": 101,
                "duration": 0.1955,
                "tempo": 120.0
            },
            {
                "pitch": 57,
                "velocity": 101,
                "duration": 0.075,
                "tempo": 120.0
            },
            {
                "pitch": 57,
                "velocity": 101,
                "duration": 0.1932,
                "tempo": 120.0
            },
            {
                "pitch": 57,
                "velocity": 101,
                "duration": 0.075,
                "tempo": 120.0
            },
            {
                "pitch": 57,
                "velocity": 101,
                "duration": 0.1886,
                "tempo": 120.0
            },
            {
                "pitch": 57,
                "velocity": 101,
                "duration": 0.0727,
                "tempo": 120.0
            },
            {
                "pitch": 55,
                "velocity": 101,
                "duration": 1.6227,
                "tempo": 120.0
            },
            {
                "pitch": 55,
                "velocity": 101,
                "duration": 0.1932,
                "tempo": 120.0
            },
            {
                "pitch": 55,
                "velocity": 101,
                "duration": 0.075,
                "tempo": 120.0
            },
            {
                "pitch": 55,
                "velocity": 101,
                "duration": 0.1955,
                "tempo": 120.0
            },
            {
                "pitch": 55,
                "velocity": 101,
                "duration": 0.075,
                "tempo": 120.0
            },
            {
                "pitch": 55,
                "velocity": 101,
                "duration": 0.1932,
                "tempo": 120.0
            },
            {
                "pitch": 55,
                "velocity": 101,
                "duration": 0.075,
                "tempo": 120.0
            },
            {
                "pitch": 55,
                "velocity": 101,
                "duration": 0.1955,
                "tempo": 120.0
            },
            {
                "pitch": 55,
                "velocity": 101,
                "duration": 0.075,
                "tempo": 120.0
            },
            {
                "pitch": 55,
                "velocity": 101,
                "duration": 0.1955,
                "tempo": 120.0
            },
            {
                "pitch": 55,
                "velocity": 101,
                "duration": 0.075,
                "tempo": 120.0
            },
            {
                "pitch": 55,
                "velocity": 101,
                "duration": 0.1932,
                "tempo": 120.0
            },
            {
                "pitch": 55,
                "velocity": 101,
                "duration": 0.075,
                "tempo": 120.0
            },
            {
                "pitch": 55,
                "velocity": 101,
                "duration": 0.1886,
                "tempo": 120.0
            },
            {
                "pitch": 55,
                "velocity": 101,
                "duration": 0.0705,
                "tempo": 120.0
            },
            {
                "pitch": 55,
                "velocity": 101,
                "duration": 0.1932,
                "tempo": 120.0
            },
            {
                "pitch": 55,
                "velocity": 101,
                "duration": 0.075,
                "tempo": 120.0
            },
            {
                "pitch": 55,
                "velocity": 101,
                "duration": 0.1955,
                "tempo": 120.0
            },
            {
                "pitch": 55,
                "velocity": 101,
                "duration": 0.075,
                "tempo": 120.0
            },
            {
                "pitch": 55,
                "velocity": 101,
                "duration": 0.1932,
                "tempo": 120.0
            },
            {
                "pitch": 55,
                "velocity": 101,
                "duration": 0.075,
                "tempo": 120.0
            },
            {
                "pitch": 55,
                "velocity": 101,
                "duration": 0.1955,
                "tempo": 120.0
            },
            {
                "pitch": 55,
                "velocity": 101,
                "duration": 0.075,
                "tempo": 120.0
            },
            {
                "pitch": 55,
                "velocity": 101,
                "duration": 0.1955,
                "tempo": 120.0
            },
            {
                "pitch": 55,
                "velocity": 101,
                "duration": 0.075,
                "tempo": 120.0
            },
            {
                "pitch": 0,
                "velocity": 101,
                "duration": 10.1568,
                "tempo": 120.0
            },
            {
                "pitch": 50,
                "velocity": 101,
                "duration": 0.1932,
                "tempo": 120.0
            },
            {
                "pitch": 50,
                "velocity": 101,
                "duration": 0.075,
                "tempo": 120.0
            },
            {
                "pitch": 50,
                "velocity": 101,
                "duration": 0.1886,
                "tempo": 120.0
            },
            {
                "pitch": 50,
                "velocity": 101,
                "duration": 0.0727,
                "tempo": 120.0
            },
            {
                "pitch": 50,
                "velocity": 101,
                "duration": 0.1932,
                "tempo": 120.0
            },
            {
                "pitch": 50,
                "velocity": 101,
                "duration": 0.075,
                "tempo": 120.0
            },
            {
                "pitch": 50,
                "velocity": 101,
                "duration": 0.1955,
                "tempo": 120.0
            },
            {
                "pitch": 50,
                "velocity": 101,
                "duration": 0.075,
                "tempo": 120.0
            },
            {
                "pitch": 65,
                "velocity": 101,
                "duration": 11.4636,
                "tempo": 120.0
            },
            {
                "pitch": 57,
                "velocity": 101,
                "duration": 5.9318,
                "tempo": 120.0
            },
            {
                "pitch": 57,
                "velocity": 101,
                "duration": 0.1955,
                "tempo": 120.0
            },
            {
                "pitch": 57,
                "velocity": 101,
                "duration": 0.075,
                "tempo": 120.0
            },
            {
                "pitch": 57,
                "velocity": 101,
                "duration": 0.1955,
                "tempo": 120.0
            },
            {
                "pitch": 57,
                "velocity": 101,
                "duration": 0.075,
                "tempo": 120.0
            },
            {
                "pitch": 57,
                "velocity": 101,
                "duration": 0.1955,
                "tempo": 120.0
            },
            {
                "pitch": 57,
                "velocity": 101,
                "duration": 0.075,
                "tempo": 120.0
            },
            {
                "pitch": 57,
                "velocity": 101,
                "duration": 0.1932,
                "tempo": 120.0
            },
            {
                "pitch": 57,
                "velocity": 101,
                "duration": 0.075,
                "tempo": 120.0
            },
            {
                "pitch": 50,
                "velocity": 101,
                "duration": 0.1955,
                "tempo": 120.0
            },
            {
                "pitch": 50,
                "velocity": 101,
                "duration": 0.0727,
                "tempo": 120.0
            },
            {
                "pitch": 50,
                "velocity": 101,
                "duration": 0.1955,
                "tempo": 120.0
            },
            {
                "pitch": 50,
                "velocity": 101,
                "duration": 0.075,
                "tempo": 120.0
            },
            {
                "pitch": 50,
                "velocity": 101,
                "duration": 0.1932,
                "tempo": 120.0
            },
            {
                "pitch": 50,
                "velocity": 101,
                "duration": 0.075,
                "tempo": 120.0
            },
            {
                "pitch": 50,
                "velocity": 101,
                "duration": 0.1886,
                "tempo": 120.0
            },
            {
                "pitch": 50,
                "velocity": 101,
                "duration": 0.0727,
                "tempo": 120.0
            },
            {
                "pitch": 65,
                "velocity": 101,
                "duration": 2.8705,
                "tempo": 120.0
            },
            {
                "pitch": 57,
                "velocity": 101,
                "duration": 0.1932,
                "tempo": 120.0
            },
            {
                "pitch": 57,
                "velocity": 101,
                "duration": 0.075,
                "tempo": 120.0
            },
            {
                "pitch": 57,
                "velocity": 101,
                "duration": 0.1955,
                "tempo": 120.0
            },
            {
                "pitch": 57,
                "velocity": 101,
                "duration": 0.075,
                "tempo": 120.0
            },
            {
                "pitch": 57,
                "velocity": 101,
                "duration": 0.1932,
                "tempo": 120.0
            },
            {
                "pitch": 57,
                "velocity": 101,
                "duration": 0.075,
                "tempo": 120.0
            },
            {
                "pitch": 57,
                "velocity": 101,
                "duration": 0.1955,
                "tempo": 120.0
            },
            {
                "pitch": 57,
                "velocity": 101,
                "duration": 0.075,
                "tempo": 120.0
            },
            {
                "pitch": 19,
                "velocity": 101,
                "duration": 2.8682,
                "tempo": 120.0
            },
            {
                "pitch": 50,
                "velocity": 101,
                "duration": 0.1955,
                "tempo": 120.0
            },
            {
                "pitch": 50,
                "velocity": 101,
                "duration": 0.075,
                "tempo": 120.0
            },
            {
                "pitch": 50,
                "velocity": 101,
                "duration": 0.1886,
                "tempo": 120.0
            },
            {
                "pitch": 50,
                "velocity": 101,
                "duration": 0.0727,
                "tempo": 120.0
            },
            {
                "pitch": 50,
                "velocity": 101,
                "duration": 0.1955,
                "tempo": 120.0
            },
            {
                "pitch": 50,
                "velocity": 101,
                "duration": 0.075,
                "tempo": 120.0
            },
            {
                "pitch": 54,
                "velocity": 101,
                "duration": 0.1932,
                "tempo": 120.0
            },
            {
                "pitch": 54,
                "velocity": 101,
                "duration": 0.075,
                "tempo": 120.0
            },
            {
                "pitch": 31,
                "velocity": 101,
                "duration": 0.1955,
                "tempo": 120.0
            },
            {
                "pitch": 31,
                "velocity": 101,
                "duration": 0.075,
                "tempo": 120.0
            },
            {
                "pitch": 31,
                "velocity": 101,
                "duration": 0.1932,
                "tempo": 120.0
            },
            {
                "pitch": 31,
                "velocity": 101,
                "duration": 0.075,
                "tempo": 120.0
            },
            {
                "pitch": 31,
                "velocity": 101,
                "duration": 0.1955,
                "tempo": 120.0
            },
            {
                "pitch": 31,
                "velocity": 101,
                "duration": 0.075,
                "tempo": 120.0
            },
            {
                "pitch": 31,
                "velocity": 101,
                "duration": 0.1955,
                "tempo": 120.0
            },
            {
                "pitch": 31,
                "velocity": 101,
                "duration": 0.075,
                "tempo": 120.0
            },
            {
                "pitch": 31,
                "velocity": 101,
                "duration": 0.1932,
                "tempo": 120.0
            },
            {
                "pitch": 31,
                "velocity": 101,
                "duration": 0.075,
                "tempo": 120.0
            },
            {
                "pitch": 31,
                "velocity": 101,
                "duration": 0.1886,
                "tempo": 120.0
            },
            {
                "pitch": 31,
                "velocity": 101,
                "duration": 0.0705,
                "tempo": 120.0
            },
            {
                "pitch": 31,
                "velocity": 101,
                "duration": 0.1932,
                "tempo": 120.0
            },
            {
                "pitch": 31,
                "velocity": 101,
                "duration": 0.075,
                "tempo": 120.0
            },
            {
                "pitch": 31,
                "velocity": 101,
                "duration": 0.1955,
                "tempo": 120.0
            },
            {
                "pitch": 31,
                "velocity": 101,
                "duration": 0.075,
                "tempo": 120.0
            },
            {
                "pitch": 31,
                "velocity": 101,
                "duration": 0.1955,
                "tempo": 120.0
            },
            {
                "pitch": 31,
                "velocity": 101,
                "duration": 0.075,
                "tempo": 120.0
            },
            {
                "pitch": 31,
                "velocity": 101,
                "duration": 0.1955,
                "tempo": 120.0
            },
            {
                "pitch": 31,
                "velocity": 101,
                "duration": 0.075,
                "tempo": 120.0
            },
            {
                "pitch": 31,
                "velocity": 101,
                "duration": 0.1955,
                "tempo": 120.0
            },
            {
                "pitch": 31,
                "velocity": 101,
                "duration": 0.075,
                "tempo": 120.0
            },
            {
                "pitch": 31,
                "velocity": 101,
                "duration": 0.1932,
                "tempo": 120.0
            },
            {
                "pitch": 31,
                "velocity": 101,
                "duration": 0.075,
                "tempo": 120.0
            },
            {
                "pitch": 31,
                "velocity": 101,
                "duration": 0.1886,
                "tempo": 120.0
            },
            {
                "pitch": 31,
                "velocity": 101,
                "duration": 0.0727,
                "tempo": 120.0
            },
            {
                "pitch": 31,
                "velocity": 101,
                "duration": 0.1932,
                "tempo": 120.0
            },
            {
                "pitch": 31,
                "velocity": 101,
                "duration": 0.075,
                "tempo": 120.0
            },
            {
                "pitch": 31,
                "velocity": 101,
                "duration": 0.1955,
                "tempo": 120.0
            },
            {
                "pitch": 31,
                "velocity": 101,
                "duration": 0.075,
                "tempo": 120.0
            },
            {
                "pitch": 31,
                "velocity": 101,
                "duration": 0.1955,
                "tempo": 120.0
            },
            {
                "pitch": 31,
                "velocity": 101,
                "duration": 0.075,
                "tempo": 120.0
            },
            {
                "pitch": 31,
                "velocity": 101,
                "duration": 0.1932,
                "tempo": 120.0
            },
            {
                "pitch": 31,
                "velocity": 101,
                "duration": 0.075,
                "tempo": 120.0
            },
            {
                "pitch": 31,
                "velocity": 101,
                "duration": 0.1955,
                "tempo": 120.0
            },
            {
                "pitch": 31,
                "velocity": 101,
                "duration": 0.075,
                "tempo": 120.0
            },
            {
                "pitch": 31,
                "velocity": 101,
                "duration": 0.1886,
                "tempo": 120.0
            },
            {
                "pitch": 31,
                "velocity": 101,
                "duration": 0.0727,
                "tempo": 120.0
            },
            {
                "pitch": 31,
                "velocity": 101,
                "duration": 0.1955,
                "tempo": 120.0
            },
            {
                "pitch": 31,
                "velocity": 101,
                "duration": 0.075,
                "tempo": 120.0
            },
            {
                "pitch": 31,
                "velocity": 101,
                "duration": 0.1932,
                "tempo": 120.0
            },
            {
                "pitch": 31,
                "velocity": 101,
                "duration": 0.075,
                "tempo": 120.0
            },
            {
                "pitch": 31,
                "velocity": 101,
                "duration": 0.1955,
                "tempo": 120.0
            },
            {
                "pitch": 31,
                "velocity": 101,
                "duration": 0.075,
                "tempo": 120.0
            },
            {
                "pitch": 31,
                "velocity": 101,
                "duration": 0.1955,
                "tempo": 120.0
            },
            {
                "pitch": 31,
                "velocity": 101,
                "duration": 0.075,
                "tempo": 120.0
            },
            {
                "pitch": 31,
                "velocity": 101,
                "duration": 0.1932,
                "tempo": 120.0
            },
            {
                "pitch": 31,
                "velocity": 101,
                "duration": 0.075,
                "tempo": 120.0
            },
            {
                "pitch": 31,
                "velocity": 101,
                "duration": 0.1955,
                "tempo": 120.0
            },
            {
                "pitch": 31,
                "velocity": 101,
                "duration": 0.075,
                "tempo": 120.0
            },
            {
                "pitch": 31,
                "velocity": 101,
                "duration": 0.1932,
                "tempo": 120.0
            },
            {
                "pitch": 31,
                "velocity": 101,
                "duration": 0.075,
                "tempo": 120.0
            },
            {
                "pitch": 31,
                "velocity": 101,
                "duration": 0.1886,
                "tempo": 120.0
            },
            {
                "pitch": 31,
                "velocity": 101,
                "duration": 0.0727,
                "tempo": 120.0
            },
            {
                "pitch": 31,
                "velocity": 101,
                "duration": 0.1932,
                "tempo": 120.0
            },
            {
                "pitch": 31,
                "velocity": 101,
                "duration": 0.075,
                "tempo": 120.0
            },
            {
                "pitch": 43,
                "velocity": 101,
                "duration": 0.1955,
                "tempo": 120.0
            },
            {
                "pitch": 43,
                "velocity": 101,
                "duration": 0.0727,
                "tempo": 120.0
            },
            {
                "pitch": 0,
                "velocity": 101,
                "duration": 17.5614,
                "tempo": 120.0
            },
            {
                "pitch": 41,
                "velocity": 101,
                "duration": 28.0341,
                "tempo": 120.0
            },
            {
                "pitch": 41,
                "velocity": 101,
                "duration": 0.1955,
                "tempo": 120.0
            },
            {
                "pitch": 41,
                "velocity": 101,
                "duration": 0.075,
                "tempo": 120.0
            },
            {
                "pitch": 41,
                "velocity": 101,
                "duration": 0.2545,
                "tempo": 120.0
            },
            {
                "pitch": 40,
                "velocity": 101,
                "duration": 28.6795,
                "tempo": 120.0
            },
            {
                "pitch": 38,
                "velocity": 101,
                "duration": 0.075,
                "tempo": 120.0
            },
            {
                "pitch": 31,
                "velocity": 101,
                "duration": 0.075,
                "tempo": 120.0
            },
            {
                "pitch": 0,
                "velocity": 101,
                "duration": 0.9614,
                "tempo": 120.0
            },
            {
                "pitch": 38,
                "velocity": 101,
                "duration": 0.075,
                "tempo": 120.0
            },
            {
                "pitch": 65,
                "velocity": 101,
                "duration": 14.3455,
                "tempo": 120.0
            },
            {
                "pitch": 55,
                "velocity": 101,
                "duration": 0.1886,
                "tempo": 120.0
            },
            {
                "pitch": 55,
                "velocity": 101,
                "duration": 0.0727,
                "tempo": 120.0
            },
            {
                "pitch": 55,
                "velocity": 101,
                "duration": 0.1955,
                "tempo": 120.0
            },
            {
                "pitch": 55,
                "velocity": 101,
                "duration": 0.075,
                "tempo": 120.0
            },
            {
                "pitch": 55,
                "velocity": 101,
                "duration": 0.1932,
                "tempo": 120.0
            },
            {
                "pitch": 55,
                "velocity": 101,
                "duration": 0.075,
                "tempo": 120.0
            },
            {
                "pitch": 55,
                "velocity": 101,
                "duration": 0.1955,
                "tempo": 120.0
            },
            {
                "pitch": 55,
                "velocity": 101,
                "duration": 0.075,
                "tempo": 120.0
            },
            {
                "pitch": 55,
                "velocity": 101,
                "duration": 0.1955,
                "tempo": 120.0
            },
            {
                "pitch": 55,
                "velocity": 101,
                "duration": 0.075,
                "tempo": 120.0
            },
            {
                "pitch": 55,
                "velocity": 101,
                "duration": 0.1932,
                "tempo": 120.0
            },
            {
                "pitch": 55,
                "velocity": 101,
                "duration": 0.075,
                "tempo": 120.0
            },
            {
                "pitch": 55,
                "velocity": 101,
                "duration": 0.1955,
                "tempo": 120.0
            },
            {
                "pitch": 55,
                "velocity": 101,
                "duration": 0.075,
                "tempo": 120.0
            },
            {
                "pitch": 55,
                "velocity": 101,
                "duration": 0.1909,
                "tempo": 120.0
            },
            {
                "pitch": 55,
                "velocity": 101,
                "duration": 0.0727,
                "tempo": 120.0
            },
            {
                "pitch": 55,
                "velocity": 101,
                "duration": 0.1955,
                "tempo": 120.0
            },
            {
                "pitch": 55,
                "velocity": 101,
                "duration": 0.075,
                "tempo": 120.0
            },
            {
                "pitch": 55,
                "velocity": 101,
                "duration": 0.1932,
                "tempo": 120.0
            },
            {
                "pitch": 55,
                "velocity": 101,
                "duration": 0.075,
                "tempo": 120.0
            },
            {
                "pitch": 55,
                "velocity": 101,
                "duration": 0.1955,
                "tempo": 120.0
            },
            {
                "pitch": 55,
                "velocity": 101,
                "duration": 0.075,
                "tempo": 120.0
            },
            {
                "pitch": 55,
                "velocity": 101,
                "duration": 0.1955,
                "tempo": 120.0
            },
            {
                "pitch": 55,
                "velocity": 101,
                "duration": 0.075,
                "tempo": 120.0
            },
            {
                "pitch": 57,
                "velocity": 101,
                "duration": 0.1932,
                "tempo": 120.0
            },
            {
                "pitch": 57,
                "velocity": 101,
                "duration": 0.075,
                "tempo": 120.0
            },
            {
                "pitch": 57,
                "velocity": 101,
                "duration": 0.1955,
                "tempo": 120.0
            },
            {
                "pitch": 57,
                "velocity": 101,
                "duration": 0.0727,
                "tempo": 120.0
            },
            {
                "pitch": 57,
                "velocity": 101,
                "duration": 0.1909,
                "tempo": 120.0
            },
            {
                "pitch": 57,
                "velocity": 101,
                "duration": 0.0727,
                "tempo": 120.0
            },
            {
                "pitch": 57,
                "velocity": 101,
                "duration": 0.1955,
                "tempo": 120.0
            },
            {
                "pitch": 57,
                "velocity": 101,
                "duration": 0.075,
                "tempo": 120.0
            },
            {
                "pitch": 55,
                "velocity": 101,
                "duration": 1.6227,
                "tempo": 120.0
            },
            {
                "pitch": 55,
                "velocity": 101,
                "duration": 0.1932,
                "tempo": 120.0
            },
            {
                "pitch": 55,
                "velocity": 101,
                "duration": 0.075,
                "tempo": 120.0
            },
            {
                "pitch": 55,
                "velocity": 101,
                "duration": 0.1955,
                "tempo": 120.0
            },
            {
                "pitch": 55,
                "velocity": 101,
                "duration": 0.075,
                "tempo": 120.0
            },
            {
                "pitch": 55,
                "velocity": 101,
                "duration": 0.1955,
                "tempo": 120.0
            },
            {
                "pitch": 55,
                "velocity": 101,
                "duration": 0.075,
                "tempo": 120.0
            },
            {
                "pitch": 55,
                "velocity": 101,
                "duration": 0.1932,
                "tempo": 120.0
            },
            {
                "pitch": 55,
                "velocity": 101,
                "duration": 0.075,
                "tempo": 120.0
            },
            {
                "pitch": 55,
                "velocity": 101,
                "duration": 0.1955,
                "tempo": 120.0
            },
            {
                "pitch": 55,
                "velocity": 101,
                "duration": 0.0727,
                "tempo": 120.0
            },
            {
                "pitch": 55,
                "velocity": 101,
                "duration": 0.1909,
                "tempo": 120.0
            },
            {
                "pitch": 55,
                "velocity": 101,
                "duration": 0.0727,
                "tempo": 120.0
            },
            {
                "pitch": 55,
                "velocity": 101,
                "duration": 0.1955,
                "tempo": 120.0
            },
            {
                "pitch": 55,
                "velocity": 101,
                "duration": 0.075,
                "tempo": 120.0
            },
            {
                "pitch": 55,
                "velocity": 101,
                "duration": 0.1955,
                "tempo": 120.0
            },
            {
                "pitch": 55,
                "velocity": 101,
                "duration": 0.075,
                "tempo": 120.0
            },
            {
                "pitch": 55,
                "velocity": 101,
                "duration": 0.1932,
                "tempo": 120.0
            },
            {
                "pitch": 55,
                "velocity": 101,
                "duration": 0.075,
                "tempo": 120.0
            },
            {
                "pitch": 55,
                "velocity": 101,
                "duration": 0.1955,
                "tempo": 120.0
            },
            {
                "pitch": 55,
                "velocity": 101,
                "duration": 0.075,
                "tempo": 120.0
            },
            {
                "pitch": 55,
                "velocity": 101,
                "duration": 0.1932,
                "tempo": 120.0
            },
            {
                "pitch": 55,
                "velocity": 101,
                "duration": 0.075,
                "tempo": 120.0
            },
            {
                "pitch": 55,
                "velocity": 101,
                "duration": 0.1955,
                "tempo": 120.0
            },
            {
                "pitch": 55,
                "velocity": 101,
                "duration": 0.075,
                "tempo": 120.0
            },
            {
                "pitch": 0,
                "velocity": 101,
                "duration": 10.1545,
                "tempo": 120.0
            },
            {
                "pitch": 50,
                "velocity": 101,
                "duration": 22.0659,
                "tempo": 120.0
            },
            {
                "pitch": 50,
                "velocity": 101,
                "duration": 0.1955,
                "tempo": 120.0
            },
            {
                "pitch": 50,
                "velocity": 101,
                "duration": 0.075,
                "tempo": 120.0
            },
            {
                "pitch": 50,
                "velocity": 101,
                "duration": 0.1886,
                "tempo": 120.0
            },
            {
                "pitch": 50,
                "velocity": 101,
                "duration": 0.0727,
                "tempo": 120.0
            },
            {
                "pitch": 50,
                "velocity": 101,
                "duration": 0.1955,
                "tempo": 120.0
            },
            {
                "pitch": 50,
                "velocity": 101,
                "duration": 0.075,
                "tempo": 120.0
            },
            {
                "pitch": 50,
                "velocity": 101,
                "duration": 0.1932,
                "tempo": 120.0
            },
            {
                "pitch": 50,
                "velocity": 101,
                "duration": 0.075,
                "tempo": 120.0
            },
            {
                "pitch": 65,
                "velocity": 101,
                "duration": 11.4636,
                "tempo": 120.0
            },
            {
                "pitch": 57,
                "velocity": 101,
                "duration": 5.9318,
                "tempo": 120.0
            },
            {
                "pitch": 57,
                "velocity": 101,
                "duration": 0.1955,
                "tempo": 120.0
            },
            {
                "pitch": 57,
                "velocity": 101,
                "duration": 0.075,
                "tempo": 120.0
            },
            {
                "pitch": 57,
                "velocity": 101,
                "duration": 0.1932,
                "tempo": 120.0
            },
            {
                "pitch": 57,
                "velocity": 101,
                "duration": 0.075,
                "tempo": 120.0
            },
            {
                "pitch": 57,
                "velocity": 101,
                "duration": 0.1955,
                "tempo": 120.0
            },
            {
                "pitch": 57,
                "velocity": 101,
                "duration": 0.075,
                "tempo": 120.0
            },
            {
                "pitch": 57,
                "velocity": 101,
                "duration": 0.1886,
                "tempo": 120.0
            },
            {
                "pitch": 57,
                "velocity": 101,
                "duration": 0.0727,
                "tempo": 120.0
            },
            {
                "pitch": 19,
                "velocity": 101,
                "duration": 25.8,
                "tempo": 120.0
            },
            {
                "pitch": 50,
                "velocity": 101,
                "duration": 0.1955,
                "tempo": 120.0
            },
            {
                "pitch": 50,
                "velocity": 101,
                "duration": 0.0727,
                "tempo": 120.0
            },
            {
                "pitch": 50,
                "velocity": 101,
                "duration": 0.1955,
                "tempo": 120.0
            },
            {
                "pitch": 50,
                "velocity": 101,
                "duration": 0.075,
                "tempo": 120.0
            },
            {
                "pitch": 50,
                "velocity": 101,
                "duration": 0.1932,
                "tempo": 120.0
            },
            {
                "pitch": 50,
                "velocity": 101,
                "duration": 0.075,
                "tempo": 120.0
            },
            {
                "pitch": 50,
                "velocity": 101,
                "duration": 0.1955,
                "tempo": 120.0
            },
            {
                "pitch": 50,
                "velocity": 101,
                "duration": 0.075,
                "tempo": 120.0
            },
            {
                "pitch": 65,
                "velocity": 101,
                "duration": 2.8705,
                "tempo": 120.0
            },
            {
                "pitch": 65,
                "velocity": 101,
                "duration": 0.0023,
                "tempo": 120.0
            },
            {
                "pitch": 57,
                "velocity": 101,
                "duration": 0.1932,
                "tempo": 120.0
            },
            {
                "pitch": 57,
                "velocity": 101,
                "duration": 0.075,
                "tempo": 120.0
            },
            {
                "pitch": 57,
                "velocity": 101,
                "duration": 0.1955,
                "tempo": 120.0
            },
            {
                "pitch": 57,
                "velocity": 101,
                "duration": 0.075,
                "tempo": 120.0
            },
            {
                "pitch": 57,
                "velocity": 101,
                "duration": 0.1886,
                "tempo": 120.0
            },
            {
                "pitch": 57,
                "velocity": 101,
                "duration": 0.0727,
                "tempo": 120.0
            },
            {
                "pitch": 57,
                "velocity": 101,
                "duration": 0.1977,
                "tempo": 120.0
            },
            {
                "pitch": 57,
                "velocity": 101,
                "duration": 0.0773,
                "tempo": 120.0
            },
            {
                "pitch": 19,
                "velocity": 101,
                "duration": 2.8773,
                "tempo": 120.0
            },
            {
                "pitch": 50,
                "velocity": 101,
                "duration": 0.1886,
                "tempo": 120.0
            },
            {
                "pitch": 50,
                "velocity": 101,
                "duration": 0.0705,
                "tempo": 120.0
            },
            {
                "pitch": 50,
                "velocity": 101,
                "duration": 0.1932,
                "tempo": 120.0
            },
            {
                "pitch": 50,
                "velocity": 101,
                "duration": 0.075,
                "tempo": 120.0
            },
            {
                "pitch": 50,
                "velocity": 101,
                "duration": 0.1955,
                "tempo": 120.0
            },
            {
                "pitch": 50,
                "velocity": 101,
                "duration": 0.075,
                "tempo": 120.0
            },
            {
                "pitch": 54,
                "velocity": 101,
                "duration": 0.1932,
                "tempo": 120.0
            },
            {
                "pitch": 54,
                "velocity": 101,
                "duration": 0.075,
                "tempo": 120.0
            },
            {
                "pitch": 42,
                "velocity": 101,
                "duration": 28.7068,
                "tempo": 120.0
            },
            {
                "pitch": 31,
                "velocity": 101,
                "duration": 0.2068,
                "tempo": 120.0
            },
            {
                "pitch": 31,
                "velocity": 101,
                "duration": 0.0773,
                "tempo": 120.0
            },
            {
                "pitch": 31,
                "velocity": 101,
                "duration": 0.1932,
                "tempo": 120.0
            },
            {
                "pitch": 31,
                "velocity": 101,
                "duration": 0.075,
                "tempo": 120.0
            },
            {
                "pitch": 31,
                "velocity": 101,
                "duration": 0.1955,
                "tempo": 120.0
            },
            {
                "pitch": 31,
                "velocity": 101,
                "duration": 0.075,
                "tempo": 120.0
            },
            {
                "pitch": 31,
                "velocity": 101,
                "duration": 0.1955,
                "tempo": 120.0
            },
            {
                "pitch": 31,
                "velocity": 101,
                "duration": 0.075,
                "tempo": 120.0
            },
            {
                "pitch": 31,
                "velocity": 101,
                "duration": 0.1932,
                "tempo": 120.0
            },
            {
                "pitch": 31,
                "velocity": 101,
                "duration": 0.075,
                "tempo": 120.0
            },
            {
                "pitch": 31,
                "velocity": 101,
                "duration": 0.1955,
                "tempo": 120.0
            },
            {
                "pitch": 31,
                "velocity": 101,
                "duration": 0.075,
                "tempo": 120.0
            },
            {
                "pitch": 31,
                "velocity": 101,
                "duration": 0.1886,
                "tempo": 120.0
            },
            {
                "pitch": 31,
                "velocity": 101,
                "duration": 0.0727,
                "tempo": 120.0
            },
            {
                "pitch": 31,
                "velocity": 101,
                "duration": 0.1955,
                "tempo": 120.0
            },
            {
                "pitch": 31,
                "velocity": 101,
                "duration": 0.075,
                "tempo": 120.0
            },
            {
                "pitch": 31,
                "velocity": 101,
                "duration": 0.1977,
                "tempo": 120.0
            },
            {
                "pitch": 31,
                "velocity": 101,
                "duration": 0.075,
                "tempo": 120.0
            },
            {
                "pitch": 31,
                "velocity": 101,
                "duration": 0.1886,
                "tempo": 120.0
            },
            {
                "pitch": 31,
                "velocity": 101,
                "duration": 0.0727,
                "tempo": 120.0
            },
            {
                "pitch": 31,
                "velocity": 101,
                "duration": 0.1932,
                "tempo": 120.0
            },
            {
                "pitch": 31,
                "velocity": 101,
                "duration": 0.075,
                "tempo": 120.0
            },
            {
                "pitch": 31,
                "velocity": 101,
                "duration": 0.1932,
                "tempo": 120.0
            },
            {
                "pitch": 31,
                "velocity": 101,
                "duration": 0.075,
                "tempo": 120.0
            },
            {
                "pitch": 31,
                "velocity": 101,
                "duration": 0.1955,
                "tempo": 120.0
            },
            {
                "pitch": 31,
                "velocity": 101,
                "duration": 0.075,
                "tempo": 120.0
            },
            {
                "pitch": 31,
                "velocity": 101,
                "duration": 0.1886,
                "tempo": 120.0
            },
            {
                "pitch": 31,
                "velocity": 101,
                "duration": 0.0727,
                "tempo": 120.0
            },
            {
                "pitch": 31,
                "velocity": 101,
                "duration": 0.1955,
                "tempo": 120.0
            },
            {
                "pitch": 31,
                "velocity": 101,
                "duration": 0.075,
                "tempo": 120.0
            },
            {
                "pitch": 31,
                "velocity": 101,
                "duration": 0.1932,
                "tempo": 120.0
            },
            {
                "pitch": 31,
                "velocity": 101,
                "duration": 0.075,
                "tempo": 120.0
            },
            {
                "pitch": 31,
                "velocity": 101,
                "duration": 0.2,
                "tempo": 120.0
            },
            {
                "pitch": 31,
                "velocity": 101,
                "duration": 0.0773,
                "tempo": 120.0
            },
            {
                "pitch": 31,
                "velocity": 101,
                "duration": 0.1886,
                "tempo": 120.0
            },
            {
                "pitch": 31,
                "velocity": 101,
                "duration": 0.0727,
                "tempo": 120.0
            },
            {
                "pitch": 31,
                "velocity": 101,
                "duration": 0.1955,
                "tempo": 120.0
            },
            {
                "pitch": 31,
                "velocity": 101,
                "duration": 0.075,
                "tempo": 120.0
            },
            {
                "pitch": 31,
                "velocity": 101,
                "duration": 0.1955,
                "tempo": 120.0
            },
            {
                "pitch": 31,
                "velocity": 101,
                "duration": 0.075,
                "tempo": 120.0
            },
            {
                "pitch": 31,
                "velocity": 101,
                "duration": 0.1932,
                "tempo": 120.0
            },
            {
                "pitch": 31,
                "velocity": 101,
                "duration": 0.075,
                "tempo": 120.0
            },
            {
                "pitch": 31,
                "velocity": 101,
                "duration": 0.1886,
                "tempo": 120.0
            },
            {
                "pitch": 31,
                "velocity": 101,
                "duration": 0.0727,
                "tempo": 120.0
            },
            {
                "pitch": 31,
                "velocity": 101,
                "duration": 0.1932,
                "tempo": 120.0
            },
            {
                "pitch": 31,
                "velocity": 101,
                "duration": 0.075,
                "tempo": 120.0
            },
            {
                "pitch": 31,
                "velocity": 101,
                "duration": 0.1955,
                "tempo": 120.0
            },
            {
                "pitch": 31,
                "velocity": 101,
                "duration": 0.075,
                "tempo": 120.0
            },
            {
                "pitch": 31,
                "velocity": 101,
                "duration": 0.1932,
                "tempo": 120.0
            },
            {
                "pitch": 31,
                "velocity": 101,
                "duration": 0.075,
                "tempo": 120.0
            },
            {
                "pitch": 31,
                "velocity": 101,
                "duration": 0.1955,
                "tempo": 120.0
            },
            {
                "pitch": 31,
                "velocity": 101,
                "duration": 0.075,
                "tempo": 120.0
            },
            {
                "pitch": 31,
                "velocity": 101,
                "duration": 0.1955,
                "tempo": 120.0
            },
            {
                "pitch": 31,
                "velocity": 101,
                "duration": 0.075,
                "tempo": 120.0
            },
            {
                "pitch": 31,
                "velocity": 101,
                "duration": 0.1932,
                "tempo": 120.0
            },
            {
                "pitch": 31,
                "velocity": 101,
                "duration": 0.075,
                "tempo": 120.0
            },
            {
                "pitch": 31,
                "velocity": 101,
                "duration": 0.075,
                "tempo": 120.0
            },
            {
                "pitch": 43,
                "velocity": 101,
                "duration": 0.075,
                "tempo": 120.0
            },
            {
                "pitch": 43,
                "velocity": 101,
                "duration": 0.0727,
                "tempo": 120.0
            },
            {
                "pitch": 43,
                "velocity": 101,
                "duration": 0.0727,
                "tempo": 120.0
            },
            {
                "pitch": 43,
                "velocity": 101,
                "duration": 0.0727,
                "tempo": 120.0
            },
            {
                "pitch": 43,
                "velocity": 101,
                "duration": 0.0727,
                "tempo": 120.0
            },
            {
                "pitch": 43,
                "velocity": 101,
                "duration": 0.075,
                "tempo": 120.0
            },
            {
                "pitch": 43,
                "velocity": 101,
                "duration": 0.075,
                "tempo": 120.0
            },
            {
                "pitch": 43,
                "velocity": 101,
                "duration": 0.075,
                "tempo": 120.0
            },
            {
                "pitch": 43,
                "velocity": 101,
                "duration": 0.075,
                "tempo": 120.0
            },
            {
                "pitch": 43,
                "velocity": 101,
                "duration": 0.075,
                "tempo": 120.0
            },
            {
                "pitch": 43,
                "velocity": 101,
                "duration": 0.075,
                "tempo": 120.0
            },
            {
                "pitch": 43,
                "velocity": 127,
                "duration": 0.1955,
                "tempo": 120.0
            },
            {
                "pitch": 43,
                "velocity": 127,
                "duration": 0.075,
                "tempo": 120.0
            },
            {
                "pitch": 43,
                "velocity": 127,
                "duration": 0.075,
                "tempo": 120.0
            },
            {
                "pitch": 43,
                "velocity": 127,
                "duration": 0.075,
                "tempo": 120.0
            },
            {
                "pitch": 43,
                "velocity": 127,
                "duration": 0.075,
                "tempo": 120.0
            },
            {
                "pitch": 43,
                "velocity": 127,
                "duration": 0.1886,
                "tempo": 120.0
            },
            {
                "pitch": 43,
                "velocity": 127,
                "duration": 0.0727,
                "tempo": 120.0
            },
            {
                "pitch": 43,
                "velocity": 127,
                "duration": 0.0773,
                "tempo": 120.0
            },
            {
                "pitch": 43,
                "velocity": 127,
                "duration": 0.0773,
                "tempo": 120.0
            },
            {
                "pitch": 43,
                "velocity": 127,
                "duration": 0.0773,
                "tempo": 120.0
            },
            {
                "pitch": 43,
                "velocity": 127,
                "duration": 0.1909,
                "tempo": 120.0
            },
            {
                "pitch": 43,
                "velocity": 127,
                "duration": 0.0727,
                "tempo": 120.0
            },
            {
                "pitch": 43,
                "velocity": 127,
                "duration": 0.075,
                "tempo": 120.0
            },
            {
                "pitch": 43,
                "velocity": 127,
                "duration": 0.075,
                "tempo": 120.0
            },
            {
                "pitch": 43,
                "velocity": 127,
                "duration": 0.075,
                "tempo": 120.0
            },
            {
                "pitch": 43,
                "velocity": 127,
                "duration": 0.1932,
                "tempo": 120.0
            },
            {
                "pitch": 43,
                "velocity": 127,
                "duration": 0.075,
                "tempo": 120.0
            },
            {
                "pitch": 43,
                "velocity": 127,
                "duration": 0.075,
                "tempo": 120.0
            },
            {
                "pitch": 43,
                "velocity": 127,
                "duration": 0.0727,
                "tempo": 120.0
            },
            {
                "pitch": 43,
                "velocity": 127,
                "duration": 0.075,
                "tempo": 120.0
            },
            {
                "pitch": 43,
                "velocity": 127,
                "duration": 0.1955,
                "tempo": 120.0
            },
            {
                "pitch": 43,
                "velocity": 127,
                "duration": 0.075,
                "tempo": 120.0
            },
            {
                "pitch": 43,
                "velocity": 127,
                "duration": 0.0727,
                "tempo": 120.0
            },
            {
                "pitch": 43,
                "velocity": 127,
                "duration": 0.075,
                "tempo": 120.0
            },
            {
                "pitch": 43,
                "velocity": 127,
                "duration": 0.075,
                "tempo": 120.0
            },
            {
                "pitch": 43,
                "velocity": 127,
                "duration": 0.1886,
                "tempo": 120.0
            },
            {
                "pitch": 43,
                "velocity": 127,
                "duration": 0.0727,
                "tempo": 120.0
            },
            {
                "pitch": 43,
                "velocity": 127,
                "duration": 0.075,
                "tempo": 120.0
            },
            {
                "pitch": 43,
                "velocity": 127,
                "duration": 0.075,
                "tempo": 120.0
            },
            {
                "pitch": 43,
                "velocity": 127,
                "duration": 0.075,
                "tempo": 120.0
            },
            {
                "pitch": 43,
                "velocity": 127,
                "duration": 0.1955,
                "tempo": 120.0
            },
            {
                "pitch": 43,
                "velocity": 127,
                "duration": 0.0727,
                "tempo": 120.0
            },
            {
                "pitch": 43,
                "velocity": 127,
                "duration": 0.075,
                "tempo": 120.0
            },
            {
                "pitch": 43,
                "velocity": 127,
                "duration": 0.075,
                "tempo": 120.0
            },
            {
                "pitch": 43,
                "velocity": 127,
                "duration": 0.075,
                "tempo": 120.0
            },
            {
                "pitch": 43,
                "velocity": 127,
                "duration": 0.1932,
                "tempo": 120.0
            },
            {
                "pitch": 43,
                "velocity": 127,
                "duration": 0.075,
                "tempo": 120.0
            },
            {
                "pitch": 43,
                "velocity": 127,
                "duration": 0.075,
                "tempo": 120.0
            },
            {
                "pitch": 43,
                "velocity": 127,
                "duration": 0.075,
                "tempo": 120.0
            },
            {
                "pitch": 43,
                "velocity": 127,
                "duration": 0.075,
                "tempo": 120.0
            },
            {
                "pitch": 43,
                "velocity": 127,
                "duration": 0.1932,
                "tempo": 120.0
            },
            {
                "pitch": 43,
                "velocity": 127,
                "duration": 0.075,
                "tempo": 120.0
            },
            {
                "pitch": 43,
                "velocity": 127,
                "duration": 0.0727,
                "tempo": 120.0
            },
            {
                "pitch": 43,
                "velocity": 127,
                "duration": 0.0727,
                "tempo": 120.0
            },
            {
                "pitch": 43,
                "velocity": 127,
                "duration": 0.0727,
                "tempo": 120.0
            },
            {
                "pitch": 43,
                "velocity": 127,
                "duration": 0.1932,
                "tempo": 120.0
            },
            {
                "pitch": 43,
                "velocity": 127,
                "duration": 0.075,
                "tempo": 120.0
            },
            {
                "pitch": 43,
                "velocity": 127,
                "duration": 0.075,
                "tempo": 120.0
            },
            {
                "pitch": 43,
                "velocity": 127,
                "duration": 0.075,
                "tempo": 120.0
            },
            {
                "pitch": 43,
                "velocity": 127,
                "duration": 0.0727,
                "tempo": 120.0
            },
            {
                "pitch": 43,
                "velocity": 127,
                "duration": 0.1955,
                "tempo": 120.0
            },
            {
                "pitch": 43,
                "velocity": 127,
                "duration": 0.075,
                "tempo": 120.0
            },
            {
                "pitch": 43,
                "velocity": 127,
                "duration": 0.075,
                "tempo": 120.0
            },
            {
                "pitch": 43,
                "velocity": 127,
                "duration": 0.0727,
                "tempo": 120.0
            },
            {
                "pitch": 43,
                "velocity": 127,
                "duration": 0.075,
                "tempo": 120.0
            },
            {
                "pitch": 43,
                "velocity": 127,
                "duration": 0.1955,
                "tempo": 120.0
            },
            {
                "pitch": 43,
                "velocity": 127,
                "duration": 0.075,
                "tempo": 120.0
            },
            {
                "pitch": 43,
                "velocity": 127,
                "duration": 0.075,
                "tempo": 120.0
            },
            {
                "pitch": 43,
                "velocity": 127,
                "duration": 0.075,
                "tempo": 120.0
            },
            {
                "pitch": 43,
                "velocity": 127,
                "duration": 0.075,
                "tempo": 120.0
            },
            {
                "pitch": 43,
                "velocity": 127,
                "duration": 0.1955,
                "tempo": 120.0
            },
            {
                "pitch": 43,
                "velocity": 127,
                "duration": 0.075,
                "tempo": 120.0
            },
            {
                "pitch": 43,
                "velocity": 127,
                "duration": 0.0727,
                "tempo": 120.0
            },
            {
                "pitch": 43,
                "velocity": 127,
                "duration": 0.0727,
                "tempo": 120.0
            },
            {
                "pitch": 43,
                "velocity": 127,
                "duration": 0.0727,
                "tempo": 120.0
            },
            {
                "pitch": 43,
                "velocity": 127,
                "duration": 0.1955,
                "tempo": 120.0
            },
            {
                "pitch": 43,
                "velocity": 127,
                "duration": 0.0727,
                "tempo": 120.0
            },
            {
                "pitch": 43,
                "velocity": 127,
                "duration": 0.075,
                "tempo": 120.0
            },
            {
                "pitch": 43,
                "velocity": 127,
                "duration": 0.075,
                "tempo": 120.0
            },
            {
                "pitch": 43,
                "velocity": 127,
                "duration": 0.075,
                "tempo": 120.0
            },
            {
                "pitch": 31,
                "velocity": 127,
                "duration": 0.1932,
                "tempo": 120.0
            },
            {
                "pitch": 31,
                "velocity": 127,
                "duration": 0.075,
                "tempo": 120.0
            },
            {
                "pitch": 31,
                "velocity": 127,
                "duration": 0.075,
                "tempo": 120.0
            },
            {
                "pitch": 43,
                "velocity": 127,
                "duration": 0.075,
                "tempo": 120.0
            },
            {
                "pitch": 31,
                "velocity": 127,
                "duration": 0.075,
                "tempo": 120.0
            },
            {
                "pitch": 31,
                "velocity": 127,
                "duration": 0.1955,
                "tempo": 120.0
            },
            {
                "pitch": 31,
                "velocity": 127,
                "duration": 0.075,
                "tempo": 120.0
            },
            {
                "pitch": 31,
                "velocity": 127,
                "duration": 0.075,
                "tempo": 120.0
            },
            {
                "pitch": 43,
                "velocity": 127,
                "duration": 0.075,
                "tempo": 120.0
            },
            {
                "pitch": 31,
                "velocity": 127,
                "duration": 0.075,
                "tempo": 120.0
            },
            {
                "pitch": 31,
                "velocity": 101,
                "duration": 0.0159,
                "tempo": 120.0
            }
        ],
        "Acoustic Grand Piano": [
            {
                "pitch": 67,
                "velocity": 127,
                "duration": 0.1023,
                "tempo": 120.0
            },
            {
                "pitch": 67,
                "velocity": 127,
                "duration": 0.1045,
                "tempo": 120.0
            },
            {
                "pitch": 67,
                "velocity": 127,
                "duration": 0.1045,
                "tempo": 120.0
            }
        ],
        "Trumpet": [
            {
                "pitch": 76,
                "velocity": 101,
                "duration": 0.2523,
                "tempo": 120.0
            },
            {
                "pitch": 74,
                "velocity": 101,
                "duration": 0.6114,
                "tempo": 120.0
            },
            {
                "pitch": 74,
                "velocity": 101,
                "duration": 0.2523,
                "tempo": 120.0
            },
            {
                "pitch": 74,
                "velocity": 101,
                "duration": 0.2545,
                "tempo": 120.0
            },
            {
                "pitch": 78,
                "velocity": 101,
                "duration": 0.2523,
                "tempo": 120.0
            },
            {
                "pitch": 78,
                "velocity": 101,
                "duration": 0.2523,
                "tempo": 120.0
            },
            {
                "pitch": 76,
                "velocity": 101,
                "duration": 1.4386,
                "tempo": 120.0
            },
            {
                "pitch": 74,
                "velocity": 101,
                "duration": 0.9727,
                "tempo": 120.0
            },
            {
                "pitch": 74,
                "velocity": 101,
                "duration": 0.2545,
                "tempo": 120.0
            },
            {
                "pitch": 74,
                "velocity": 101,
                "duration": 0.2523,
                "tempo": 120.0
            },
            {
                "pitch": 66,
                "velocity": 101,
                "duration": 0.2455,
                "tempo": 120.0
            },
            {
                "pitch": 67,
                "velocity": 101,
                "duration": 0.0727,
                "tempo": 120.0
            },
            {
                "pitch": 72,
                "velocity": 101,
                "duration": 0.075,
                "tempo": 120.0
            },
            {
                "pitch": 76,
                "velocity": 101,
                "duration": 1.3091,
                "tempo": 120.0
            },
            {
                "pitch": 67,
                "velocity": 101,
                "duration": 0.075,
                "tempo": 120.0
            },
            {
                "pitch": 69,
                "velocity": 101,
                "duration": 0.0727,
                "tempo": 120.0
            },
            {
                "pitch": 74,
                "velocity": 101,
                "duration": 0.075,
                "tempo": 120.0
            },
            {
                "pitch": 69,
                "velocity": 101,
                "duration": 0.075,
                "tempo": 120.0
            },
            {
                "pitch": 69,
                "velocity": 101,
                "duration": 0.0727,
                "tempo": 120.0
            },
            {
                "pitch": 74,
                "velocity": 101,
                "duration": 0.075,
                "tempo": 120.0
            },
            {
                "pitch": 77,
                "velocity": 101,
                "duration": 0.3614,
                "tempo": 120.0
            },
            {
                "pitch": 71,
                "velocity": 101,
                "duration": 0.0727,
                "tempo": 120.0
            },
            {
                "pitch": 56,
                "velocity": 101,
                "duration": 0.2409,
                "tempo": 120.0
            },
            {
                "pitch": 78,
                "velocity": 101,
                "duration": 1.1523,
                "tempo": 120.0
            },
            {
                "pitch": 78,
                "velocity": 101,
                "duration": 0.0727,
                "tempo": 120.0
            },
            {
                "pitch": 78,
                "velocity": 101,
                "duration": 0.075,
                "tempo": 120.0
            },
            {
                "pitch": 74,
                "velocity": 101,
                "duration": 0.075,
                "tempo": 120.0
            },
            {
                "pitch": 77,
                "velocity": 101,
                "duration": 0.4795,
                "tempo": 120.0
            },
            {
                "pitch": 71,
                "velocity": 101,
                "duration": 0.0727,
                "tempo": 120.0
            },
            {
                "pitch": 56,
                "velocity": 101,
                "duration": 0.4773,
                "tempo": 120.0
            },
            {
                "pitch": 74,
                "velocity": 101,
                "duration": 0.075,
                "tempo": 120.0
            },
            {
                "pitch": 77,
                "velocity": 101,
                "duration": 0.2386,
                "tempo": 120.0
            },
            {
                "pitch": 71,
                "velocity": 101,
                "duration": 0.075,
                "tempo": 120.0
            },
            {
                "pitch": 56,
                "velocity": 101,
                "duration": 0.2432,
                "tempo": 120.0
            },
            {
                "pitch": 74,
                "velocity": 101,
                "duration": 0.0705,
                "tempo": 120.0
            },
            {
                "pitch": 78,
                "velocity": 101,
                "duration": 0.6682,
                "tempo": 120.0
            },
            {
                "pitch": 78,
                "velocity": 101,
                "duration": 0.0727,
                "tempo": 120.0
            },
            {
                "pitch": 74,
                "velocity": 101,
                "duration": 0.1886,
                "tempo": 120.0
            },
            {
                "pitch": 74,
                "velocity": 101,
                "duration": 0.0705,
                "tempo": 120.0
            },
            {
                "pitch": 74,
                "velocity": 101,
                "duration": 0.075,
                "tempo": 120.0
            },
            {
                "pitch": 74,
                "velocity": 101,
                "duration": 0.0727,
                "tempo": 120.0
            },
            {
                "pitch": 83,
                "velocity": 101,
                "duration": 0.0727,
                "tempo": 120.0
            },
            {
                "pitch": 56,
                "velocity": 101,
                "duration": 0.7091,
                "tempo": 120.0
            },
            {
                "pitch": 76,
                "velocity": 101,
                "duration": 2.3432,
                "tempo": 120.0
            },
            {
                "pitch": 76,
                "velocity": 101,
                "duration": 0.0727,
                "tempo": 120.0
            },
            {
                "pitch": 76,
                "velocity": 101,
                "duration": 0.075,
                "tempo": 120.0
            },
            {
                "pitch": 86,
                "velocity": 101,
                "duration": 0.075,
                "tempo": 120.0
            },
            {
                "pitch": 76,
                "velocity": 101,
                "duration": 0.25,
                "tempo": 120.0
            },
            {
                "pitch": 74,
                "velocity": 101,
                "duration": 0.6114,
                "tempo": 120.0
            },
            {
                "pitch": 74,
                "velocity": 101,
                "duration": 0.2545,
                "tempo": 120.0
            },
            {
                "pitch": 74,
                "velocity": 101,
                "duration": 0.2523,
                "tempo": 120.0
            },
            {
                "pitch": 78,
                "velocity": 101,
                "duration": 25.1023,
                "tempo": 120.0
            },
            {
                "pitch": 78,
                "velocity": 101,
                "duration": 0.2455,
                "tempo": 120.0
            },
            {
                "pitch": 78,
                "velocity": 101,
                "duration": 0.2523,
                "tempo": 120.0
            },
            {
                "pitch": 76,
                "velocity": 101,
                "duration": 1.4295,
                "tempo": 120.0
            },
            {
                "pitch": 74,
                "velocity": 101,
                "duration": 0.9636,
                "tempo": 120.0
            },
            {
                "pitch": 74,
                "velocity": 101,
                "duration": 0.2545,
                "tempo": 120.0
            },
            {
                "pitch": 74,
                "velocity": 101,
                "duration": 0.2523,
                "tempo": 120.0
            },
            {
                "pitch": 62,
                "velocity": 101,
                "duration": 28.6682,
                "tempo": 120.0
            },
            {
                "pitch": 66,
                "velocity": 101,
                "duration": 0.2523,
                "tempo": 120.0
            },
            {
                "pitch": 67,
                "velocity": 101,
                "duration": 28.3932,
                "tempo": 120.0
            },
            {
                "pitch": 67,
                "velocity": 101,
                "duration": 0.075,
                "tempo": 120.0
            },
            {
                "pitch": 0,
                "velocity": 101,
                "duration": 28.6795,
                "tempo": 120.0
            },
            {
                "pitch": 72,
                "velocity": 101,
                "duration": 0.0727,
                "tempo": 120.0
            },
            {
                "pitch": 76,
                "velocity": 101,
                "duration": 1.3205,
                "tempo": 120.0
            },
            {
                "pitch": 67,
                "velocity": 101,
                "duration": 0.0727,
                "tempo": 120.0
            },
            {
                "pitch": 69,
                "velocity": 101,
                "duration": 0.0727,
                "tempo": 120.0
            },
            {
                "pitch": 43,
                "velocity": 101,
                "duration": 28.6795,
                "tempo": 120.0
            },
            {
                "pitch": 74,
                "velocity": 101,
                "duration": 0.075,
                "tempo": 120.0
            },
            {
                "pitch": 77,
                "velocity": 101,
                "duration": 27.6,
                "tempo": 120.0
            },
            {
                "pitch": 69,
                "velocity": 101,
                "duration": 0.075,
                "tempo": 120.0
            },
            {
                "pitch": 69,
                "velocity": 101,
                "duration": 0.0705,
                "tempo": 120.0
            },
            {
                "pitch": 56,
                "velocity": 101,
                "duration": 27.0045,
                "tempo": 120.0
            },
            {
                "pitch": 74,
                "velocity": 101,
                "duration": 0.0727,
                "tempo": 120.0
            },
            {
                "pitch": 77,
                "velocity": 101,
                "duration": 0.3523,
                "tempo": 120.0
            },
            {
                "pitch": 71,
                "velocity": 101,
                "duration": 0.0727,
                "tempo": 120.0
            },
            {
                "pitch": 56,
                "velocity": 101,
                "duration": 0.2341,
                "tempo": 120.0
            },
            {
                "pitch": 78,
                "velocity": 101,
                "duration": 1.1455,
                "tempo": 120.0
            },
            {
                "pitch": 78,
                "velocity": 101,
                "duration": 0.075,
                "tempo": 120.0
            },
            {
                "pitch": 78,
                "velocity": 101,
                "duration": 0.0773,
                "tempo": 120.0
            },
            {
                "pitch": 74,
                "velocity": 101,
                "duration": 0.0773,
                "tempo": 120.0
            },
            {
                "pitch": 77,
                "velocity": 101,
                "duration": 0.4864,
                "tempo": 120.0
            },
            {
                "pitch": 71,
                "velocity": 101,
                "duration": 0.0705,
                "tempo": 120.0
            },
            {
                "pitch": 56,
                "velocity": 101,
                "duration": 0.4841,
                "tempo": 120.0
            },
            {
                "pitch": 74,
                "velocity": 101,
                "duration": 0.0727,
                "tempo": 120.0
            },
            {
                "pitch": 77,
                "velocity": 101,
                "duration": 0.2318,
                "tempo": 120.0
            },
            {
                "pitch": 71,
                "velocity": 101,
                "duration": 0.0727,
                "tempo": 120.0
            },
            {
                "pitch": 56,
                "velocity": 101,
                "duration": 0.2341,
                "tempo": 120.0
            },
            {
                "pitch": 74,
                "velocity": 101,
                "duration": 0.0727,
                "tempo": 120.0
            },
            {
                "pitch": 78,
                "velocity": 101,
                "duration": 0.6682,
                "tempo": 120.0
            },
            {
                "pitch": 78,
                "velocity": 101,
                "duration": 0.075,
                "tempo": 120.0
            },
            {
                "pitch": 74,
                "velocity": 101,
                "duration": 0.1932,
                "tempo": 120.0
            },
            {
                "pitch": 74,
                "velocity": 101,
                "duration": 0.0727,
                "tempo": 120.0
            },
            {
                "pitch": 74,
                "velocity": 101,
                "duration": 0.0727,
                "tempo": 120.0
            },
            {
                "pitch": 74,
                "velocity": 101,
                "duration": 0.075,
                "tempo": 120.0
            },
            {
                "pitch": 89,
                "velocity": 101,
                "duration": 28.675,
                "tempo": 120.0
            },
            {
                "pitch": 83,
                "velocity": 101,
                "duration": 0.075,
                "tempo": 120.0
            },
            {
                "pitch": 56,
                "velocity": 101,
                "duration": 0.7182,
                "tempo": 120.0
            },
            {
                "pitch": 76,
                "velocity": 101,
                "duration": 2.3409,
                "tempo": 120.0
            },
            {
                "pitch": 76,
                "velocity": 101,
                "duration": 0.075,
                "tempo": 120.0
            },
            {
                "pitch": 76,
                "velocity": 101,
                "duration": 0.0727,
                "tempo": 120.0
            },
            {
                "pitch": 90,
                "velocity": 101,
                "duration": 28.6773,
                "tempo": 120.0
            },
            {
                "pitch": 86,
                "velocity": 101,
                "duration": 0.0727,
                "tempo": 120.0
            }
        ],
        "Acoustic Bass": [
            {
                "pitch": 79,
                "velocity": 101,
                "duration": 0.0864,
                "tempo": 120.0
            },
            {
                "pitch": 74,
                "velocity": 101,
                "duration": 0.0886,
                "tempo": 120.0
            },
            {
                "pitch": 79,
                "velocity": 101,
                "duration": 0.0886,
                "tempo": 120.0
            },
            {
                "pitch": 0,
                "velocity": 101,
                "duration": 0.2386,
                "tempo": 120.0
            },
            {
                "pitch": 76,
                "velocity": 101,
                "duration": 0.0886,
                "tempo": 120.0
            },
            {
                "pitch": 72,
                "velocity": 101,
                "duration": 0.0886,
                "tempo": 120.0
            },
            {
                "pitch": 76,
                "velocity": 101,
                "duration": 0.2091,
                "tempo": 120.0
            },
            {
                "pitch": 76,
                "velocity": 101,
                "duration": 0.0886,
                "tempo": 120.0
            },
            {
                "pitch": 74,
                "velocity": 101,
                "duration": 0.0886,
                "tempo": 120.0
            },
            {
                "pitch": 71,
                "velocity": 101,
                "duration": 0.0909,
                "tempo": 120.0
            },
            {
                "pitch": 74,
                "velocity": 101,
                "duration": 0.0864,
                "tempo": 120.0
            },
            {
                "pitch": 72,
                "velocity": 101,
                "duration": 0.5682,
                "tempo": 120.0
            },
            {
                "pitch": 72,
                "velocity": 101,
                "duration": 0.0886,
                "tempo": 120.0
            },
            {
                "pitch": 76,
                "velocity": 101,
                "duration": 0.4795,
                "tempo": 120.0
            },
            {
                "pitch": 69,
                "velocity": 101,
                "duration": 0.0886,
                "tempo": 120.0
            },
            {
                "pitch": 72,
                "velocity": 101,
                "duration": 0.0886,
                "tempo": 120.0
            },
            {
                "pitch": 74,
                "velocity": 101,
                "duration": 0.4477,
                "tempo": 120.0
            },
            {
                "pitch": 74,
                "velocity": 101,
                "duration": 0.0864,
                "tempo": 120.0
            },
            {
                "pitch": 77,
                "velocity": 101,
                "duration": 0.7205,
                "tempo": 120.0
            },
            {
                "pitch": 71,
                "velocity": 101,
                "duration": 0.0886,
                "tempo": 120.0
            },
            {
                "pitch": 56,
                "velocity": 101,
                "duration": 0.7182,
                "tempo": 120.0
            },
            {
                "pitch": 74,
                "velocity": 101,
                "duration": 0.0886,
                "tempo": 120.0
            },
            {
                "pitch": 72,
                "velocity": 101,
                "duration": 0.4455,
                "tempo": 120.0
            },
            {
                "pitch": 72,
                "velocity": 101,
                "duration": 0.0864,
                "tempo": 120.0
            },
            {
                "pitch": 76,
                "velocity": 101,
                "duration": 0.7159,
                "tempo": 120.0
            },
            {
                "pitch": 69,
                "velocity": 101,
                "duration": 0.0864,
                "tempo": 120.0
            },
            {
                "pitch": 43,
                "velocity": 101,
                "duration": 0.7114,
                "tempo": 120.0
            },
            {
                "pitch": 72,
                "velocity": 101,
                "duration": 0.0864,
                "tempo": 120.0
            },
            {
                "pitch": 76,
                "velocity": 101,
                "duration": 0.2341,
                "tempo": 120.0
            },
            {
                "pitch": 71,
                "velocity": 101,
                "duration": 0.0886,
                "tempo": 120.0
            },
            {
                "pitch": 67,
                "velocity": 101,
                "duration": 0.0886,
                "tempo": 120.0
            },
            {
                "pitch": 71,
                "velocity": 101,
                "duration": 0.2091,
                "tempo": 120.0
            },
            {
                "pitch": 71,
                "velocity": 101,
                "duration": 0.0886,
                "tempo": 120.0
            },
            {
                "pitch": 66,
                "velocity": 101,
                "duration": 0.0886,
                "tempo": 120.0
            },
            {
                "pitch": 67,
                "velocity": 101,
                "duration": 0.3295,
                "tempo": 120.0
            },
            {
                "pitch": 67,
                "velocity": 101,
                "duration": 0.0909,
                "tempo": 120.0
            },
            {
                "pitch": 69,
                "velocity": 101,
                "duration": 0.0909,
                "tempo": 120.0
            },
            {
                "pitch": 79,
                "velocity": 101,
                "duration": 0.0864,
                "tempo": 120.0
            },
            {
                "pitch": 0,
                "velocity": 101,
                "duration": 2.6295,
                "tempo": 120.0
            },
            {
                "pitch": 74,
                "velocity": 101,
                "duration": 1.2773,
                "tempo": 120.0
            },
            {
                "pitch": 74,
                "velocity": 101,
                "duration": 0.0886,
                "tempo": 120.0
            },
            {
                "pitch": 89,
                "velocity": 101,
                "duration": 2.8682,
                "tempo": 120.0
            },
            {
                "pitch": 79,
                "velocity": 101,
                "duration": 0.0886,
                "tempo": 120.0
            },
            {
                "pitch": 0,
                "velocity": 101,
                "duration": 0.2409,
                "tempo": 120.0
            },
            {
                "pitch": 76,
                "velocity": 101,
                "duration": 1.1682,
                "tempo": 120.0
            },
            {
                "pitch": 76,
                "velocity": 101,
                "duration": 0.0886,
                "tempo": 120.0
            },
            {
                "pitch": 72,
                "velocity": 101,
                "duration": 0.0886,
                "tempo": 120.0
            },
            {
                "pitch": 76,
                "velocity": 101,
                "duration": 0.2091,
                "tempo": 120.0
            },
            {
                "pitch": 76,
                "velocity": 101,
                "duration": 0.0886,
                "tempo": 120.0
            },
            {
                "pitch": 74,
                "velocity": 101,
                "duration": 0.0886,
                "tempo": 120.0
            },
            {
                "pitch": 77,
                "velocity": 101,
                "duration": 2.15,
                "tempo": 120.0
            },
            {
                "pitch": 71,
                "velocity": 101,
                "duration": 0.0886,
                "tempo": 120.0
            },
            {
                "pitch": 56,
                "velocity": 101,
                "duration": 2.15,
                "tempo": 120.0
            },
            {
                "pitch": 74,
                "velocity": 101,
                "duration": 0.0886,
                "tempo": 120.0
            },
            {
                "pitch": 72,
                "velocity": 101,
                "duration": 0.5682,
                "tempo": 120.0
            },
            {
                "pitch": 72,
                "velocity": 101,
                "duration": 0.0864,
                "tempo": 120.0
            },
            {
                "pitch": 76,
                "velocity": 101,
                "duration": 0.4795,
                "tempo": 120.0
            },
            {
                "pitch": 69,
                "velocity": 101,
                "duration": 0.0886,
                "tempo": 120.0
            },
            {
                "pitch": 43,
                "velocity": 101,
                "duration": 2.1568,
                "tempo": 120.0
            },
            {
                "pitch": 72,
                "velocity": 101,
                "duration": 0.0886,
                "tempo": 120.0
            },
            {
                "pitch": 76,
                "velocity": 101,
                "duration": 0.2409,
                "tempo": 120.0
            },
            {
                "pitch": 67,
                "velocity": 101,
                "duration": 1.6477,
                "tempo": 120.0
            },
            {
                "pitch": 67,
                "velocity": 101,
                "duration": 0.0864,
                "tempo": 120.0
            },
            {
                "pitch": 69,
                "velocity": 101,
                "duration": 0.0864,
                "tempo": 120.0
            },
            {
                "pitch": 69,
                "velocity": 101,
                "duration": 0.0864,
                "tempo": 120.0
            },
            {
                "pitch": 71,
                "velocity": 101,
                "duration": 0.0864,
                "tempo": 120.0
            },
            {
                "pitch": 69,
                "velocity": 101,
                "duration": 0.0886,
                "tempo": 120.0
            },
            {
                "pitch": 56,
                "velocity": 101,
                "duration": 1.0682,
                "tempo": 120.0
            },
            {
                "pitch": 72,
                "velocity": 101,
                "duration": 0.0886,
                "tempo": 120.0
            },
            {
                "pitch": 76,
                "velocity": 101,
                "duration": 0.7091,
                "tempo": 120.0
            },
            {
                "pitch": 71,
                "velocity": 101,
                "duration": 0.0886,
                "tempo": 120.0
            },
            {
                "pitch": 56,
                "velocity": 101,
                "duration": 0.2386,
                "tempo": 120.0
            },
            {
                "pitch": 72,
                "velocity": 101,
                "duration": 0.0909,
                "tempo": 120.0
            },
            {
                "pitch": 74,
                "velocity": 101,
                "duration": 1.3955,
                "tempo": 120.0
            },
            {
                "pitch": 74,
                "velocity": 101,
                "duration": 0.0886,
                "tempo": 120.0
            },
            {
                "pitch": 72,
                "velocity": 101,
                "duration": 0.2091,
                "tempo": 120.0
            },
            {
                "pitch": 72,
                "velocity": 101,
                "duration": 0.0886,
                "tempo": 120.0
            },
            {
                "pitch": 74,
                "velocity": 101,
                "duration": 0.2091,
                "tempo": 120.0
            },
            {
                "pitch": 74,
                "velocity": 101,
                "duration": 0.0886,
                "tempo": 120.0
            },
            {
                "pitch": 76,
                "velocity": 101,
                "duration": 0.6886,
                "tempo": 120.0
            },
            {
                "pitch": 76,
                "velocity": 101,
                "duration": 0.0886,
                "tempo": 120.0
            },
            {
                "pitch": 76,
                "velocity": 101,
                "duration": 0.0886,
                "tempo": 120.0
            },
            {
                "pitch": 72,
                "velocity": 101,
                "duration": 0.4477,
                "tempo": 120.0
            },
            {
                "pitch": 72,
                "velocity": 101,
                "duration": 0.0886,
                "tempo": 120.0
            },
            {
                "pitch": 76,
                "velocity": 101,
                "duration": 0.2091,
                "tempo": 120.0
            },
            {
                "pitch": 76,
                "velocity": 101,
                "duration": 0.0886,
                "tempo": 120.0
            },
            {
                "pitch": 76,
                "velocity": 101,
                "duration": 0.0886,
                "tempo": 120.0
            },
            {
                "pitch": 78,
                "velocity": 101,
                "duration": 3.5909,
                "tempo": 120.0
            },
            {
                "pitch": 74,
                "velocity": 101,
                "duration": 0.6886,
                "tempo": 120.0
            },
            {
                "pitch": 74,
                "velocity": 101,
                "duration": 0.0886,
                "tempo": 120.0
            },
            {
                "pitch": 78,
                "velocity": 101,
                "duration": 0.2091,
                "tempo": 120.0
            },
            {
                "pitch": 78,
                "velocity": 101,
                "duration": 0.0886,
                "tempo": 120.0
            },
            {
                "pitch": 79,
                "velocity": 101,
                "duration": 0.0864,
                "tempo": 120.0
            },
            {
                "pitch": 0,
                "velocity": 101,
                "duration": 3.3432,
                "tempo": 120.0
            },
            {
                "pitch": 78,
                "velocity": 101,
                "duration": 0.0864,
                "tempo": 120.0
            },
            {
                "pitch": 90,
                "velocity": 101,
                "duration": 0.2341,
                "tempo": 120.0
            },
            {
                "pitch": 79,
                "velocity": 101,
                "duration": 0.0864,
                "tempo": 120.0
            },
            {
                "pitch": 81,
                "velocity": 101,
                "duration": 4.025,
                "tempo": 120.0
            },
            {
                "pitch": 81,
                "velocity": 101,
                "duration": 0.0886,
                "tempo": 120.0
            },
            {
                "pitch": 79,
                "velocity": 101,
                "duration": 0.2091,
                "tempo": 120.0
            },
            {
                "pitch": 79,
                "velocity": 101,
                "duration": 0.0886,
                "tempo": 120.0
            },
            {
                "pitch": 81,
                "velocity": 101,
                "duration": 0.2091,
                "tempo": 120.0
            },
            {
                "pitch": 81,
                "velocity": 101,
                "duration": 0.0886,
                "tempo": 120.0
            },
            {
                "pitch": 79,
                "velocity": 101,
                "duration": 0.2068,
                "tempo": 120.0
            },
            {
                "pitch": 79,
                "velocity": 101,
                "duration": 0.0864,
                "tempo": 120.0
            },
            {
                "pitch": 0,
                "velocity": 101,
                "duration": 0.7136,
                "tempo": 120.0
            },
            {
                "pitch": 78,
                "velocity": 101,
                "duration": 0.0886,
                "tempo": 120.0
            },
            {
                "pitch": 78,
                "velocity": 101,
                "duration": 0.0886,
                "tempo": 120.0
            },
            {
                "pitch": 90,
                "velocity": 101,
                "duration": 0.8364,
                "tempo": 120.0
            },
            {
                "pitch": 81,
                "velocity": 101,
                "duration": 0.4477,
                "tempo": 120.0
            },
            {
                "pitch": 81,
                "velocity": 101,
                "duration": 0.0886,
                "tempo": 120.0
            },
            {
                "pitch": 79,
                "velocity": 101,
                "duration": 0.0909,
                "tempo": 120.0
            },
            {
                "pitch": 0,
                "velocity": 101,
                "duration": 0.4795,
                "tempo": 120.0
            },
            {
                "pitch": 78,
                "velocity": 101,
                "duration": 0.0886,
                "tempo": 120.0
            },
            {
                "pitch": 90,
                "velocity": 101,
                "duration": 0.3591,
                "tempo": 120.0
            },
            {
                "pitch": 83,
                "velocity": 101,
                "duration": 0.0886,
                "tempo": 120.0
            },
            {
                "pitch": 83,
                "velocity": 101,
                "duration": 0.0886,
                "tempo": 120.0
            },
            {
                "pitch": 81,
                "velocity": 101,
                "duration": 0.4818,
                "tempo": 120.0
            },
            {
                "pitch": 79,
                "velocity": 101,
                "duration": 0.0886,
                "tempo": 120.0
            },
            {
                "pitch": 0,
                "velocity": 101,
                "duration": 0.4818,
                "tempo": 120.0
            },
            {
                "pitch": 84,
                "velocity": 101,
                "duration": 0.0886,
                "tempo": 120.0
            },
            {
                "pitch": 88,
                "velocity": 101,
                "duration": 8.3636,
                "tempo": 120.0
            },
            {
                "pitch": 83,
                "velocity": 101,
                "duration": 0.0886,
                "tempo": 120.0
            },
            {
                "pitch": 83,
                "velocity": 101,
                "duration": 0.0886,
                "tempo": 120.0
            },
            {
                "pitch": 31,
                "velocity": 101,
                "duration": 0.0886,
                "tempo": 120.0
            },
            {
                "pitch": 43,
                "velocity": 101,
                "duration": 34.7909,
                "tempo": 120.0
            },
            {
                "pitch": 43,
                "velocity": 101,
                "duration": 0.0909,
                "tempo": 120.0
            },
            {
                "pitch": 43,
                "velocity": 101,
                "duration": 0.0886,
                "tempo": 120.0
            },
            {
                "pitch": 43,
                "velocity": 101,
                "duration": 0.0864,
                "tempo": 120.0
            },
            {
                "pitch": 43,
                "velocity": 101,
                "duration": 0.0864,
                "tempo": 120.0
            },
            {
                "pitch": 43,
                "velocity": 101,
                "duration": 0.0886,
                "tempo": 120.0
            },
            {
                "pitch": 43,
                "velocity": 101,
                "duration": 0.0886,
                "tempo": 120.0
            },
            {
                "pitch": 43,
                "velocity": 101,
                "duration": 0.0886,
                "tempo": 120.0
            },
            {
                "pitch": 43,
                "velocity": 101,
                "duration": 0.0886,
                "tempo": 120.0
            },
            {
                "pitch": 43,
                "velocity": 101,
                "duration": 0.0886,
                "tempo": 120.0
            },
            {
                "pitch": 43,
                "velocity": 101,
                "duration": 0.0886,
                "tempo": 120.0
            },
            {
                "pitch": 43,
                "velocity": 101,
                "duration": 0.0909,
                "tempo": 120.0
            },
            {
                "pitch": 55,
                "velocity": 80,
                "duration": 0.2068,
                "tempo": 120.0
            },
            {
                "pitch": 55,
                "velocity": 80,
                "duration": 0.0886,
                "tempo": 120.0
            },
            {
                "pitch": 55,
                "velocity": 80,
                "duration": 0.0886,
                "tempo": 120.0
            },
            {
                "pitch": 55,
                "velocity": 80,
                "duration": 0.0909,
                "tempo": 120.0
            },
            {
                "pitch": 55,
                "velocity": 80,
                "duration": 0.0909,
                "tempo": 120.0
            },
            {
                "pitch": 55,
                "velocity": 80,
                "duration": 0.2023,
                "tempo": 120.0
            },
            {
                "pitch": 55,
                "velocity": 80,
                "duration": 0.0864,
                "tempo": 120.0
            },
            {
                "pitch": 55,
                "velocity": 80,
                "duration": 0.0909,
                "tempo": 120.0
            },
            {
                "pitch": 55,
                "velocity": 80,
                "duration": 0.0909,
                "tempo": 120.0
            },
            {
                "pitch": 55,
                "velocity": 80,
                "duration": 0.0909,
                "tempo": 120.0
            },
            {
                "pitch": 55,
                "velocity": 80,
                "duration": 0.2023,
                "tempo": 120.0
            },
            {
                "pitch": 55,
                "velocity": 80,
                "duration": 0.0864,
                "tempo": 120.0
            },
            {
                "pitch": 55,
                "velocity": 80,
                "duration": 0.0886,
                "tempo": 120.0
            },
            {
                "pitch": 55,
                "velocity": 80,
                "duration": 0.0909,
                "tempo": 120.0
            },
            {
                "pitch": 55,
                "velocity": 80,
                "duration": 0.0886,
                "tempo": 120.0
            },
            {
                "pitch": 55,
                "velocity": 80,
                "duration": 0.2091,
                "tempo": 120.0
            },
            {
                "pitch": 55,
                "velocity": 80,
                "duration": 0.0886,
                "tempo": 120.0
            },
            {
                "pitch": 55,
                "velocity": 80,
                "duration": 0.0909,
                "tempo": 120.0
            },
            {
                "pitch": 55,
                "velocity": 80,
                "duration": 0.0886,
                "tempo": 120.0
            },
            {
                "pitch": 55,
                "velocity": 80,
                "duration": 0.0886,
                "tempo": 120.0
            },
            {
                "pitch": 55,
                "velocity": 80,
                "duration": 0.2068,
                "tempo": 120.0
            },
            {
                "pitch": 55,
                "velocity": 80,
                "duration": 0.0886,
                "tempo": 120.0
            },
            {
                "pitch": 55,
                "velocity": 80,
                "duration": 0.0886,
                "tempo": 120.0
            },
            {
                "pitch": 55,
                "velocity": 80,
                "duration": 0.0886,
                "tempo": 120.0
            },
            {
                "pitch": 55,
                "velocity": 80,
                "duration": 0.0886,
                "tempo": 120.0
            },
            {
                "pitch": 55,
                "velocity": 80,
                "duration": 0.2023,
                "tempo": 120.0
            },
            {
                "pitch": 55,
                "velocity": 80,
                "duration": 0.0841,
                "tempo": 120.0
            },
            {
                "pitch": 55,
                "velocity": 80,
                "duration": 0.0886,
                "tempo": 120.0
            },
            {
                "pitch": 55,
                "velocity": 80,
                "duration": 0.0886,
                "tempo": 120.0
            },
            {
                "pitch": 55,
                "velocity": 80,
                "duration": 0.0886,
                "tempo": 120.0
            },
            {
                "pitch": 55,
                "velocity": 80,
                "duration": 0.2091,
                "tempo": 120.0
            },
            {
                "pitch": 55,
                "velocity": 80,
                "duration": 0.0886,
                "tempo": 120.0
            },
            {
                "pitch": 55,
                "velocity": 80,
                "duration": 0.0886,
                "tempo": 120.0
            },
            {
                "pitch": 55,
                "velocity": 80,
                "duration": 0.0886,
                "tempo": 120.0
            },
            {
                "pitch": 55,
                "velocity": 80,
                "duration": 0.0886,
                "tempo": 120.0
            },
            {
                "pitch": 55,
                "velocity": 80,
                "duration": 0.2068,
                "tempo": 120.0
            },
            {
                "pitch": 55,
                "velocity": 80,
                "duration": 0.0886,
                "tempo": 120.0
            },
            {
                "pitch": 55,
                "velocity": 80,
                "duration": 0.0886,
                "tempo": 120.0
            },
            {
                "pitch": 55,
                "velocity": 80,
                "duration": 0.0909,
                "tempo": 120.0
            },
            {
                "pitch": 55,
                "velocity": 80,
                "duration": 0.0909,
                "tempo": 120.0
            },
            {
                "pitch": 55,
                "velocity": 80,
                "duration": 0.2045,
                "tempo": 120.0
            },
            {
                "pitch": 55,
                "velocity": 80,
                "duration": 0.0886,
                "tempo": 120.0
            },
            {
                "pitch": 55,
                "velocity": 80,
                "duration": 0.0864,
                "tempo": 120.0
            },
            {
                "pitch": 55,
                "velocity": 80,
                "duration": 0.0864,
                "tempo": 120.0
            },
            {
                "pitch": 55,
                "velocity": 80,
                "duration": 0.0864,
                "tempo": 120.0
            },
            {
                "pitch": 55,
                "velocity": 80,
                "duration": 0.2091,
                "tempo": 120.0
            },
            {
                "pitch": 55,
                "velocity": 80,
                "duration": 0.0886,
                "tempo": 120.0
            },
            {
                "pitch": 55,
                "velocity": 80,
                "duration": 0.0886,
                "tempo": 120.0
            },
            {
                "pitch": 55,
                "velocity": 80,
                "duration": 0.0909,
                "tempo": 120.0
            },
            {
                "pitch": 55,
                "velocity": 80,
                "duration": 0.0864,
                "tempo": 120.0
            },
            {
                "pitch": 55,
                "velocity": 80,
                "duration": 0.2091,
                "tempo": 120.0
            },
            {
                "pitch": 55,
                "velocity": 80,
                "duration": 0.0909,
                "tempo": 120.0
            },
            {
                "pitch": 55,
                "velocity": 80,
                "duration": 0.0909,
                "tempo": 120.0
            },
            {
                "pitch": 55,
                "velocity": 80,
                "duration": 0.0886,
                "tempo": 120.0
            },
            {
                "pitch": 55,
                "velocity": 80,
                "duration": 0.0886,
                "tempo": 120.0
            },
            {
                "pitch": 55,
                "velocity": 80,
                "duration": 0.2091,
                "tempo": 120.0
            },
            {
                "pitch": 55,
                "velocity": 80,
                "duration": 0.0886,
                "tempo": 120.0
            },
            {
                "pitch": 55,
                "velocity": 80,
                "duration": 0.0886,
                "tempo": 120.0
            },
            {
                "pitch": 55,
                "velocity": 80,
                "duration": 0.0886,
                "tempo": 120.0
            },
            {
                "pitch": 55,
                "velocity": 80,
                "duration": 0.0909,
                "tempo": 120.0
            }
        ],
        "Lead 2 (sawtooth)": [
            {
                "pitch": 55,
                "velocity": 127,
                "duration": 0.0864,
                "tempo": 120.0
            },
            {
                "pitch": 55,
                "velocity": 127,
                "duration": 0.0886,
                "tempo": 120.0
            },
            {
                "pitch": 55,
                "velocity": 127,
                "duration": 0.0886,
                "tempo": 120.0
            },
            {
                "pitch": 55,
                "velocity": 127,
                "duration": 0.0864,
                "tempo": 120.0
            },
            {
                "pitch": 55,
                "velocity": 127,
                "duration": 0.0886,
                "tempo": 120.0
            },
            {
                "pitch": 55,
                "velocity": 127,
                "duration": 0.0864,
                "tempo": 120.0
            },
            {
                "pitch": 55,
                "velocity": 127,
                "duration": 0.0886,
                "tempo": 120.0
            },
            {
                "pitch": 55,
                "velocity": 127,
                "duration": 0.0886,
                "tempo": 120.0
            },
            {
                "pitch": 55,
                "velocity": 127,
                "duration": 0.0886,
                "tempo": 120.0
            },
            {
                "pitch": 67,
                "velocity": 101,
                "duration": 0.1955,
                "tempo": 120.0
            },
            {
                "pitch": 67,
                "velocity": 101,
                "duration": 0.5023,
                "tempo": 120.0
            },
            {
                "pitch": 67,
                "velocity": 101,
                "duration": 0.1182,
                "tempo": 120.0
            },
            {
                "pitch": 67,
                "velocity": 101,
                "duration": 1.1273,
                "tempo": 120.0
            },
            {
                "pitch": 67,
                "velocity": 101,
                "duration": 0.1932,
                "tempo": 120.0
            },
            {
                "pitch": 67,
                "velocity": 101,
                "duration": 0.5091,
                "tempo": 120.0
            },
            {
                "pitch": 67,
                "velocity": 101,
                "duration": 0.1205,
                "tempo": 120.0
            },
            {
                "pitch": 67,
                "velocity": 101,
                "duration": 0.8727,
                "tempo": 120.0
            },
            {
                "pitch": 67,
                "velocity": 101,
                "duration": 0.075,
                "tempo": 120.0
            },
            {
                "pitch": 67,
                "velocity": 101,
                "duration": 0.2523,
                "tempo": 120.0
            },
            {
                "pitch": 67,
                "velocity": 101,
                "duration": 0.4909,
                "tempo": 120.0
            },
            {
                "pitch": 67,
                "velocity": 101,
                "duration": 0.075,
                "tempo": 120.0
            },
            {
                "pitch": 67,
                "velocity": 101,
                "duration": 1.1273,
                "tempo": 120.0
            },
            {
                "pitch": 67,
                "velocity": 101,
                "duration": 0.1909,
                "tempo": 120.0
            },
            {
                "pitch": 67,
                "velocity": 101,
                "duration": 0.5068,
                "tempo": 120.0
            },
            {
                "pitch": 67,
                "velocity": 101,
                "duration": 0.1159,
                "tempo": 120.0
            },
            {
                "pitch": 67,
                "velocity": 101,
                "duration": 1.1386,
                "tempo": 120.0
            },
            {
                "pitch": 74,
                "velocity": 101,
                "duration": 0.2523,
                "tempo": 120.0
            },
            {
                "pitch": 74,
                "velocity": 101,
                "duration": 0.4227,
                "tempo": 120.0
            },
            {
                "pitch": 74,
                "velocity": 101,
                "duration": 0.1205,
                "tempo": 120.0
            },
            {
                "pitch": 76,
                "velocity": 101,
                "duration": 1.1386,
                "tempo": 120.0
            },
            {
                "pitch": 74,
                "velocity": 101,
                "duration": 1.8023,
                "tempo": 120.0
            },
            {
                "pitch": 74,
                "velocity": 101,
                "duration": 0.2523,
                "tempo": 120.0
            },
            {
                "pitch": 74,
                "velocity": 101,
                "duration": 0.4318,
                "tempo": 120.0
            },
            {
                "pitch": 74,
                "velocity": 101,
                "duration": 0.1182,
                "tempo": 120.0
            },
            {
                "pitch": 74,
                "velocity": 101,
                "duration": 1.1386,
                "tempo": 120.0
            },
            {
                "pitch": 74,
                "velocity": 101,
                "duration": 0.2523,
                "tempo": 120.0
            },
            {
                "pitch": 74,
                "velocity": 101,
                "duration": 0.4341,
                "tempo": 120.0
            },
            {
                "pitch": 74,
                "velocity": 101,
                "duration": 0.1205,
                "tempo": 120.0
            },
            {
                "pitch": 76,
                "velocity": 101,
                "duration": 5.3159,
                "tempo": 120.0
            },
            {
                "pitch": 76,
                "velocity": 101,
                "duration": 1.1273,
                "tempo": 120.0
            },
            {
                "pitch": 74,
                "velocity": 101,
                "duration": 1.8023,
                "tempo": 120.0
            },
            {
                "pitch": 74,
                "velocity": 101,
                "duration": 0.2545,
                "tempo": 120.0
            },
            {
                "pitch": 74,
                "velocity": 101,
                "duration": 0.4318,
                "tempo": 120.0
            },
            {
                "pitch": 74,
                "velocity": 101,
                "duration": 0.1205,
                "tempo": 120.0
            },
            {
                "pitch": 74,
                "velocity": 101,
                "duration": 1.1273,
                "tempo": 120.0
            },
            {
                "pitch": 67,
                "velocity": 101,
                "duration": 0.1909,
                "tempo": 120.0
            },
            {
                "pitch": 67,
                "velocity": 101,
                "duration": 0.5068,
                "tempo": 120.0
            },
            {
                "pitch": 67,
                "velocity": 101,
                "duration": 0.075,
                "tempo": 120.0
            },
            {
                "pitch": 67,
                "velocity": 101,
                "duration": 0.1932,
                "tempo": 120.0
            },
            {
                "pitch": 67,
                "velocity": 101,
                "duration": 0.1932,
                "tempo": 120.0
            },
            {
                "pitch": 67,
                "velocity": 101,
                "duration": 0.5068,
                "tempo": 120.0
            },
            {
                "pitch": 67,
                "velocity": 101,
                "duration": 0.1159,
                "tempo": 120.0
            },
            {
                "pitch": 67,
                "velocity": 101,
                "duration": 1.1386,
                "tempo": 120.0
            },
            {
                "pitch": 0,
                "velocity": 101,
                "duration": 28.6795,
                "tempo": 120.0
            },
            {
                "pitch": 74,
                "velocity": 101,
                "duration": 0.2455,
                "tempo": 120.0
            },
            {
                "pitch": 74,
                "velocity": 101,
                "duration": 0.4341,
                "tempo": 120.0
            },
            {
                "pitch": 74,
                "velocity": 101,
                "duration": 0.1205,
                "tempo": 120.0
            },
            {
                "pitch": 74,
                "velocity": 101,
                "duration": 0.0023,
                "tempo": 120.0
            },
            {
                "pitch": 76,
                "velocity": 101,
                "duration": 22.5295,
                "tempo": 120.0
            },
            {
                "pitch": 76,
                "velocity": 101,
                "duration": 1.1364,
                "tempo": 120.0
            },
            {
                "pitch": 74,
                "velocity": 101,
                "duration": 0.2545,
                "tempo": 120.0
            },
            {
                "pitch": 74,
                "velocity": 101,
                "duration": 0.4318,
                "tempo": 120.0
            },
            {
                "pitch": 74,
                "velocity": 101,
                "duration": 0.1205,
                "tempo": 120.0
            },
            {
                "pitch": 74,
                "velocity": 101,
                "duration": 1.1295,
                "tempo": 120.0
            },
            {
                "pitch": 74,
                "velocity": 101,
                "duration": 0.2523,
                "tempo": 120.0
            },
            {
                "pitch": 74,
                "velocity": 101,
                "duration": 0.4318,
                "tempo": 120.0
            },
            {
                "pitch": 74,
                "velocity": 101,
                "duration": 0.1182,
                "tempo": 120.0
            },
            {
                "pitch": 76,
                "velocity": 101,
                "duration": 5.3159,
                "tempo": 120.0
            },
            {
                "pitch": 76,
                "velocity": 101,
                "duration": 1.1273,
                "tempo": 120.0
            },
            {
                "pitch": 74,
                "velocity": 101,
                "duration": 1.8023,
                "tempo": 120.0
            },
            {
                "pitch": 74,
                "velocity": 101,
                "duration": 0.2523,
                "tempo": 120.0
            },
            {
                "pitch": 74,
                "velocity": 101,
                "duration": 0.4341,
                "tempo": 120.0
            },
            {
                "pitch": 74,
                "velocity": 101,
                "duration": 0.1205,
                "tempo": 120.0
            },
            {
                "pitch": 74,
                "velocity": 101,
                "duration": 1.1295,
                "tempo": 120.0
            },
            {
                "pitch": 55,
                "velocity": 127,
                "duration": 0.0909,
                "tempo": 120.0
            },
            {
                "pitch": 55,
                "velocity": 127,
                "duration": 0.0886,
                "tempo": 120.0
            },
            {
                "pitch": 55,
                "velocity": 127,
                "duration": 0.0886,
                "tempo": 120.0
            },
            {
                "pitch": 55,
                "velocity": 127,
                "duration": 0.0886,
                "tempo": 120.0
            },
            {
                "pitch": 55,
                "velocity": 127,
                "duration": 0.0886,
                "tempo": 120.0
            },
            {
                "pitch": 55,
                "velocity": 127,
                "duration": 0.0886,
                "tempo": 120.0
            },
            {
                "pitch": 55,
                "velocity": 127,
                "duration": 0.0886,
                "tempo": 120.0
            },
            {
                "pitch": 55,
                "velocity": 127,
                "duration": 0.0886,
                "tempo": 120.0
            },
            {
                "pitch": 55,
                "velocity": 127,
                "duration": 0.0886,
                "tempo": 120.0
            },
            {
                "pitch": 55,
                "velocity": 127,
                "duration": 0.0864,
                "tempo": 120.0
            },
            {
                "pitch": 55,
                "velocity": 127,
                "duration": 0.0886,
                "tempo": 120.0
            },
            {
                "pitch": 55,
                "velocity": 127,
                "duration": 0.0886,
                "tempo": 120.0
            },
            {
                "pitch": 55,
                "velocity": 127,
                "duration": 0.0864,
                "tempo": 120.0
            },
            {
                "pitch": 55,
                "velocity": 127,
                "duration": 0.0864,
                "tempo": 120.0
            },
            {
                "pitch": 55,
                "velocity": 127,
                "duration": 0.0909,
                "tempo": 120.0
            },
            {
                "pitch": 55,
                "velocity": 127,
                "duration": 0.0864,
                "tempo": 120.0
            },
            {
                "pitch": 55,
                "velocity": 127,
                "duration": 0.0864,
                "tempo": 120.0
            },
            {
                "pitch": 55,
                "velocity": 127,
                "duration": 0.0886,
                "tempo": 120.0
            },
            {
                "pitch": 55,
                "velocity": 127,
                "duration": 0.0864,
                "tempo": 120.0
            },
            {
                "pitch": 55,
                "velocity": 127,
                "duration": 0.0886,
                "tempo": 120.0
            },
            {
                "pitch": 55,
                "velocity": 127,
                "duration": 0.0886,
                "tempo": 120.0
            },
            {
                "pitch": 55,
                "velocity": 127,
                "duration": 0.0114,
                "tempo": 120.0
            }
        ],
        "Church Organ": [
            {
                "pitch": 72,
                "velocity": 127,
                "duration": 0.2977,
                "tempo": 120.0
            },
            {
                "pitch": 71,
                "velocity": 127,
                "duration": 0.3,
                "tempo": 120.0
            },
            {
                "pitch": 71,
                "velocity": 127,
                "duration": 0.2977,
                "tempo": 120.0
            },
            {
                "pitch": 43,
                "velocity": 127,
                "duration": 1.0795,
                "tempo": 120.0
            },
            {
                "pitch": 74,
                "velocity": 127,
                "duration": 0.3,
                "tempo": 120.0
            },
            {
                "pitch": 72,
                "velocity": 127,
                "duration": 0.2977,
                "tempo": 120.0
            },
            {
                "pitch": 76,
                "velocity": 127,
                "duration": 1.4409,
                "tempo": 120.0
            },
            {
                "pitch": 71,
                "velocity": 127,
                "duration": 0.2977,
                "tempo": 120.0
            },
            {
                "pitch": 71,
                "velocity": 127,
                "duration": 0.3,
                "tempo": 120.0
            },
            {
                "pitch": 62,
                "velocity": 127,
                "duration": 0.2886,
                "tempo": 120.0
            },
            {
                "pitch": 64,
                "velocity": 127,
                "duration": 0.3,
                "tempo": 120.0
            },
            {
                "pitch": 64,
                "velocity": 127,
                "duration": 0.2977,
                "tempo": 120.0
            },
            {
                "pitch": 67,
                "velocity": 127,
                "duration": 0.3,
                "tempo": 120.0
            },
            {
                "pitch": 69,
                "velocity": 127,
                "duration": 0.3,
                "tempo": 120.0
            },
            {
                "pitch": 67,
                "velocity": 127,
                "duration": 0.6591,
                "tempo": 120.0
            },
            {
                "pitch": 67,
                "velocity": 127,
                "duration": 0.2977,
                "tempo": 120.0
            },
            {
                "pitch": 69,
                "velocity": 127,
                "duration": 0.65,
                "tempo": 120.0
            },
            {
                "pitch": 69,
                "velocity": 127,
                "duration": 0.2909,
                "tempo": 120.0
            },
            {
                "pitch": 69,
                "velocity": 127,
                "duration": 0.2977,
                "tempo": 120.0
            },
            {
                "pitch": 72,
                "velocity": 127,
                "duration": 0.3,
                "tempo": 120.0
            },
            {
                "pitch": 43,
                "velocity": 127,
                "duration": 27.6,
                "tempo": 120.0
            },
            {
                "pitch": 72,
                "velocity": 127,
                "duration": 0.2977,
                "tempo": 120.0
            },
            {
                "pitch": 76,
                "velocity": 127,
                "duration": 27.2386,
                "tempo": 120.0
            },
            {
                "pitch": 71,
                "velocity": 127,
                "duration": 0.3,
                "tempo": 120.0
            },
            {
                "pitch": 71,
                "velocity": 127,
                "duration": 0.3,
                "tempo": 120.0
            },
            {
                "pitch": 43,
                "velocity": 127,
                "duration": 1.0795,
                "tempo": 120.0
            },
            {
                "pitch": 74,
                "velocity": 127,
                "duration": 28.6068,
                "tempo": 120.0
            },
            {
                "pitch": 74,
                "velocity": 127,
                "duration": 0.2886,
                "tempo": 120.0
            },
            {
                "pitch": 72,
                "velocity": 127,
                "duration": 0.2977,
                "tempo": 120.0
            },
            {
                "pitch": 76,
                "velocity": 127,
                "duration": 1.4295,
                "tempo": 120.0
            },
            {
                "pitch": 71,
                "velocity": 127,
                "duration": 0.2977,
                "tempo": 120.0
            },
            {
                "pitch": 71,
                "velocity": 127,
                "duration": 0.3,
                "tempo": 120.0
            },
            {
                "pitch": 31,
                "velocity": 127,
                "duration": 28.6682,
                "tempo": 120.0
            },
            {
                "pitch": 62,
                "velocity": 127,
                "duration": 28.6182,
                "tempo": 120.0
            },
            {
                "pitch": 62,
                "velocity": 127,
                "duration": 0.2977,
                "tempo": 120.0
            },
            {
                "pitch": 64,
                "velocity": 127,
                "duration": 0.2977,
                "tempo": 120.0
            },
            {
                "pitch": 64,
                "velocity": 127,
                "duration": 0.3,
                "tempo": 120.0
            },
            {
                "pitch": 78,
                "velocity": 127,
                "duration": 28.6795,
                "tempo": 120.0
            },
            {
                "pitch": 67,
                "velocity": 127,
                "duration": 27.8886,
                "tempo": 120.0
            },
            {
                "pitch": 67,
                "velocity": 127,
                "duration": 0.2886,
                "tempo": 120.0
            },
            {
                "pitch": 69,
                "velocity": 127,
                "duration": 0.3068,
                "tempo": 120.0
            },
            {
                "pitch": 67,
                "velocity": 127,
                "duration": 0.6591,
                "tempo": 120.0
            },
            {
                "pitch": 67,
                "velocity": 127,
                "duration": 0.2886,
                "tempo": 120.0
            },
            {
                "pitch": 69,
                "velocity": 127,
                "duration": 0.6477,
                "tempo": 120.0
            },
            {
                "pitch": 69,
                "velocity": 127,
                "duration": 0.3,
                "tempo": 120.0
            },
            {
                "pitch": 69,
                "velocity": 127,
                "duration": 0.2977,
                "tempo": 120.0
            },
            {
                "pitch": 56,
                "velocity": 127,
                "duration": 28.6773,
                "tempo": 120.0
            },
            {
                "pitch": 72,
                "velocity": 127,
                "duration": 0.2977,
                "tempo": 120.0
            }
        ],
        "Electric Piano 1": [
            {
                "pitch": 86,
                "velocity": 80,
                "duration": 1.1864,
                "tempo": 120.0
            },
            {
                "pitch": 83,
                "velocity": 101,
                "duration": 0.075,
                "tempo": 120.0
            },
            {
                "pitch": 84,
                "velocity": 101,
                "duration": 0.075,
                "tempo": 120.0
            },
            {
                "pitch": 83,
                "velocity": 101,
                "duration": 0.075,
                "tempo": 120.0
            },
            {
                "pitch": 83,
                "velocity": 101,
                "duration": 0.075,
                "tempo": 120.0
            },
            {
                "pitch": 81,
                "velocity": 101,
                "duration": 0.075,
                "tempo": 120.0
            },
            {
                "pitch": 83,
                "velocity": 101,
                "duration": 0.075,
                "tempo": 120.0
            },
            {
                "pitch": 79,
                "velocity": 101,
                "duration": 0.075,
                "tempo": 120.0
            },
            {
                "pitch": 81,
                "velocity": 101,
                "duration": 0.1659,
                "tempo": 120.0
            },
            {
                "pitch": 81,
                "velocity": 101,
                "duration": 0.075,
                "tempo": 120.0
            },
            {
                "pitch": 79,
                "velocity": 101,
                "duration": 0.1636,
                "tempo": 120.0
            },
            {
                "pitch": 79,
                "velocity": 101,
                "duration": 0.0727,
                "tempo": 120.0
            },
            {
                "pitch": 78,
                "velocity": 101,
                "duration": 0.075,
                "tempo": 120.0
            },
            {
                "pitch": 79,
                "velocity": 101,
                "duration": 0.075,
                "tempo": 120.0
            },
            {
                "pitch": 0,
                "velocity": 101,
                "duration": 0.1818,
                "tempo": 120.0
            },
            {
                "pitch": 74,
                "velocity": 101,
                "duration": 0.0727,
                "tempo": 120.0
            },
            {
                "pitch": 76,
                "velocity": 101,
                "duration": 0.075,
                "tempo": 120.0
            },
            {
                "pitch": 72,
                "velocity": 101,
                "duration": 0.0727,
                "tempo": 120.0
            },
            {
                "pitch": 74,
                "velocity": 101,
                "duration": 0.2545,
                "tempo": 120.0
            },
            {
                "pitch": 74,
                "velocity": 101,
                "duration": 0.075,
                "tempo": 120.0
            },
            {
                "pitch": 89,
                "velocity": 101,
                "duration": 1.3523,
                "tempo": 120.0
            },
            {
                "pitch": 81,
                "velocity": 101,
                "duration": 0.7159,
                "tempo": 120.0
            },
            {
                "pitch": 81,
                "velocity": 101,
                "duration": 0.0841,
                "tempo": 120.0
            },
            {
                "pitch": 93,
                "velocity": 101,
                "duration": 0.0864,
                "tempo": 120.0
            },
            {
                "pitch": 91,
                "velocity": 101,
                "duration": 0.0864,
                "tempo": 120.0
            },
            {
                "pitch": 0,
                "velocity": 101,
                "duration": 0.7091,
                "tempo": 120.0
            },
            {
                "pitch": 90,
                "velocity": 101,
                "duration": 0.8886,
                "tempo": 120.0
            },
            {
                "pitch": 90,
                "velocity": 101,
                "duration": 0.0886,
                "tempo": 120.0
            },
            {
                "pitch": 90,
                "velocity": 101,
                "duration": 0.0886,
                "tempo": 120.0
            },
            {
                "pitch": 88,
                "velocity": 101,
                "duration": 1.7614,
                "tempo": 120.0
            },
            {
                "pitch": 84,
                "velocity": 101,
                "duration": 0.0886,
                "tempo": 120.0
            },
            {
                "pitch": 88,
                "velocity": 101,
                "duration": 0.1182,
                "tempo": 120.0
            },
            {
                "pitch": 81,
                "velocity": 101,
                "duration": 0.0886,
                "tempo": 120.0
            },
            {
                "pitch": 93,
                "velocity": 101,
                "duration": 0.5955,
                "tempo": 120.0
            },
            {
                "pitch": 91,
                "velocity": 101,
                "duration": 0.0886,
                "tempo": 120.0
            },
            {
                "pitch": 0,
                "velocity": 101,
                "duration": 0.6,
                "tempo": 120.0
            },
            {
                "pitch": 90,
                "velocity": 101,
                "duration": 0.0886,
                "tempo": 120.0
            },
            {
                "pitch": 90,
                "velocity": 101,
                "duration": 0.0886,
                "tempo": 120.0
            },
            {
                "pitch": 83,
                "velocity": 101,
                "duration": 0.0909,
                "tempo": 120.0
            },
            {
                "pitch": 68,
                "velocity": 101,
                "duration": 2.5727,
                "tempo": 120.0
            },
            {
                "pitch": 86,
                "velocity": 101,
                "duration": 0.0864,
                "tempo": 120.0
            },
            {
                "pitch": 69,
                "velocity": 101,
                "duration": 0.0886,
                "tempo": 120.0
            },
            {
                "pitch": 69,
                "velocity": 101,
                "duration": 0.0886,
                "tempo": 120.0
            },
            {
                "pitch": 56,
                "velocity": 101,
                "duration": 0.0023,
                "tempo": 120.0
            },
            {
                "pitch": 72,
                "velocity": 101,
                "duration": 1.85,
                "tempo": 120.0
            },
            {
                "pitch": 72,
                "velocity": 101,
                "duration": 0.0886,
                "tempo": 120.0
            },
            {
                "pitch": 76,
                "velocity": 101,
                "duration": 1.9682,
                "tempo": 120.0
            },
            {
                "pitch": 69,
                "velocity": 101,
                "duration": 0.0909,
                "tempo": 120.0
            },
            {
                "pitch": 69,
                "velocity": 101,
                "duration": 0.0886,
                "tempo": 120.0
            },
            {
                "pitch": 72,
                "velocity": 101,
                "duration": 0.0886,
                "tempo": 120.0
            },
            {
                "pitch": 74,
                "velocity": 101,
                "duration": 0.0886,
                "tempo": 120.0
            },
            {
                "pitch": 76,
                "velocity": 101,
                "duration": 0.5705,
                "tempo": 120.0
            },
            {
                "pitch": 76,
                "velocity": 101,
                "duration": 0.0909,
                "tempo": 120.0
            },
            {
                "pitch": 76,
                "velocity": 101,
                "duration": 0.0886,
                "tempo": 120.0
            },
            {
                "pitch": 90,
                "velocity": 101,
                "duration": 1.3205,
                "tempo": 120.0
            },
            {
                "pitch": 79,
                "velocity": 101,
                "duration": 0.0864,
                "tempo": 120.0
            },
            {
                "pitch": 81,
                "velocity": 101,
                "duration": 0.0864,
                "tempo": 120.0
            },
            {
                "pitch": 81,
                "velocity": 101,
                "duration": 0.0864,
                "tempo": 120.0
            },
            {
                "pitch": 56,
                "velocity": 101,
                "duration": 0.8318,
                "tempo": 120.0
            },
            {
                "pitch": 76,
                "velocity": 101,
                "duration": 0.1773,
                "tempo": 120.0
            },
            {
                "pitch": 76,
                "velocity": 101,
                "duration": 0.1795,
                "tempo": 120.0
            },
            {
                "pitch": 74,
                "velocity": 101,
                "duration": 1.25,
                "tempo": 120.0
            },
            {
                "pitch": 74,
                "velocity": 101,
                "duration": 0.1795,
                "tempo": 120.0
            },
            {
                "pitch": 89,
                "velocity": 101,
                "duration": 3.5773,
                "tempo": 120.0
            },
            {
                "pitch": 79,
                "velocity": 101,
                "duration": 1.1318,
                "tempo": 120.0
            },
            {
                "pitch": 79,
                "velocity": 101,
                "duration": 0.1773,
                "tempo": 120.0
            },
            {
                "pitch": 79,
                "velocity": 101,
                "duration": 0.1773,
                "tempo": 120.0
            },
            {
                "pitch": 0,
                "velocity": 101,
                "duration": 3.1091,
                "tempo": 120.0
            },
            {
                "pitch": 78,
                "velocity": 101,
                "duration": 0.1773,
                "tempo": 120.0
            },
            {
                "pitch": 90,
                "velocity": 101,
                "duration": 1.7909,
                "tempo": 120.0
            },
            {
                "pitch": 83,
                "velocity": 101,
                "duration": 0.1773,
                "tempo": 120.0
            },
            {
                "pitch": 83,
                "velocity": 101,
                "duration": 0.1795,
                "tempo": 120.0
            },
            {
                "pitch": 81,
                "velocity": 101,
                "duration": 0.1795,
                "tempo": 120.0
            },
            {
                "pitch": 68,
                "velocity": 101,
                "duration": 3.7068,
                "tempo": 120.0
            },
            {
                "pitch": 86,
                "velocity": 101,
                "duration": 0.1727,
                "tempo": 120.0
            },
            {
                "pitch": 84,
                "velocity": 101,
                "duration": 0.0409,
                "tempo": 120.0
            },
            {
                "pitch": 86,
                "velocity": 101,
                "duration": 0.1,
                "tempo": 120.0
            },
            {
                "pitch": 86,
                "velocity": 101,
                "duration": 0.0432,
                "tempo": 120.0
            },
            {
                "pitch": 84,
                "velocity": 101,
                "duration": 0.1023,
                "tempo": 120.0
            },
            {
                "pitch": 84,
                "velocity": 101,
                "duration": 0.0432,
                "tempo": 120.0
            },
            {
                "pitch": 86,
                "velocity": 101,
                "duration": 0.1023,
                "tempo": 120.0
            },
            {
                "pitch": 86,
                "velocity": 101,
                "duration": 0.0432,
                "tempo": 120.0
            },
            {
                "pitch": 84,
                "velocity": 101,
                "duration": 0.2091,
                "tempo": 120.0
            },
            {
                "pitch": 84,
                "velocity": 101,
                "duration": 0.1477,
                "tempo": 120.0
            },
            {
                "pitch": 76,
                "velocity": 101,
                "duration": 2.3273,
                "tempo": 120.0
            },
            {
                "pitch": 67,
                "velocity": 101,
                "duration": 0.0909,
                "tempo": 120.0
            },
            {
                "pitch": 79,
                "velocity": 101,
                "duration": 0.0909,
                "tempo": 120.0
            },
            {
                "pitch": 81,
                "velocity": 101,
                "duration": 0.0886,
                "tempo": 120.0
            },
            {
                "pitch": 79,
                "velocity": 101,
                "duration": 0.2091,
                "tempo": 120.0
            },
            {
                "pitch": 79,
                "velocity": 101,
                "duration": 0.0886,
                "tempo": 120.0
            },
            {
                "pitch": 0,
                "velocity": 101,
                "duration": 2.0886,
                "tempo": 120.0
            },
            {
                "pitch": 78,
                "velocity": 101,
                "duration": 0.0886,
                "tempo": 120.0
            },
            {
                "pitch": 78,
                "velocity": 101,
                "duration": 0.0909,
                "tempo": 120.0
            },
            {
                "pitch": 76,
                "velocity": 101,
                "duration": 0.8114,
                "tempo": 120.0
            },
            {
                "pitch": 76,
                "velocity": 101,
                "duration": 0.0909,
                "tempo": 120.0
            },
            {
                "pitch": 90,
                "velocity": 101,
                "duration": 2.2068,
                "tempo": 120.0
            },
            {
                "pitch": 79,
                "velocity": 101,
                "duration": 0.0886,
                "tempo": 120.0
            },
            {
                "pitch": 81,
                "velocity": 101,
                "duration": 0.6886,
                "tempo": 120.0
            },
            {
                "pitch": 81,
                "velocity": 101,
                "duration": 0.0886,
                "tempo": 120.0
            },
            {
                "pitch": 79,
                "velocity": 101,
                "duration": 0.2091,
                "tempo": 120.0
            },
            {
                "pitch": 79,
                "velocity": 101,
                "duration": 0.0909,
                "tempo": 120.0
            },
            {
                "pitch": 0,
                "velocity": 101,
                "duration": 0.7182,
                "tempo": 120.0
            },
            {
                "pitch": 78,
                "velocity": 101,
                "duration": 0.0909,
                "tempo": 120.0
            },
            {
                "pitch": 78,
                "velocity": 101,
                "duration": 0.0909,
                "tempo": 120.0
            },
            {
                "pitch": 76,
                "velocity": 101,
                "duration": 0.0886,
                "tempo": 120.0
            },
            {
                "pitch": 90,
                "velocity": 101,
                "duration": 0.7205,
                "tempo": 120.0
            },
            {
                "pitch": 79,
                "velocity": 101,
                "duration": 0.0886,
                "tempo": 120.0
            },
            {
                "pitch": 81,
                "velocity": 101,
                "duration": 0.6909,
                "tempo": 120.0
            },
            {
                "pitch": 81,
                "velocity": 101,
                "duration": 0.0909,
                "tempo": 120.0
            },
            {
                "pitch": 79,
                "velocity": 101,
                "duration": 0.2091,
                "tempo": 120.0
            },
            {
                "pitch": 79,
                "velocity": 101,
                "duration": 0.0886,
                "tempo": 120.0
            },
            {
                "pitch": 83,
                "velocity": 101,
                "duration": 0.0886,
                "tempo": 120.0
            },
            {
                "pitch": 83,
                "velocity": 101,
                "duration": 0.0886,
                "tempo": 120.0
            },
            {
                "pitch": 81,
                "velocity": 101,
                "duration": 0.3523,
                "tempo": 120.0
            },
            {
                "pitch": 79,
                "velocity": 101,
                "duration": 0.3205,
                "tempo": 120.0
            },
            {
                "pitch": 79,
                "velocity": 101,
                "duration": 0.0864,
                "tempo": 120.0
            },
            {
                "pitch": 0,
                "velocity": 101,
                "duration": 1.0705,
                "tempo": 120.0
            },
            {
                "pitch": 84,
                "velocity": 101,
                "duration": 0.0886,
                "tempo": 120.0
            },
            {
                "pitch": 88,
                "velocity": 101,
                "duration": 7.3477,
                "tempo": 120.0
            },
            {
                "pitch": 83,
                "velocity": 101,
                "duration": 0.0886,
                "tempo": 120.0
            },
            {
                "pitch": 83,
                "velocity": 101,
                "duration": 0.0909,
                "tempo": 120.0
            },
            {
                "pitch": 55,
                "velocity": 80,
                "duration": 11.1614,
                "tempo": 120.0
            },
            {
                "pitch": 84,
                "velocity": 101,
                "duration": 0.0909,
                "tempo": 120.0
            },
            {
                "pitch": 88,
                "velocity": 101,
                "duration": 0.3591,
                "tempo": 120.0
            },
            {
                "pitch": 83,
                "velocity": 101,
                "duration": 0.0886,
                "tempo": 120.0
            },
            {
                "pitch": 83,
                "velocity": 101,
                "duration": 0.0886,
                "tempo": 120.0
            },
            {
                "pitch": 55,
                "velocity": 101,
                "duration": 0.3614,
                "tempo": 120.0
            },
            {
                "pitch": 55,
                "velocity": 101,
                "duration": 0.0023,
                "tempo": 120.0
            },
            {
                "pitch": 88,
                "velocity": 101,
                "duration": 0.3295,
                "tempo": 120.0
            },
            {
                "pitch": 88,
                "velocity": 101,
                "duration": 0.0886,
                "tempo": 120.0
            },
            {
                "pitch": 88,
                "velocity": 101,
                "duration": 0.0909,
                "tempo": 120.0
            },
            {
                "pitch": 91,
                "velocity": 101,
                "duration": 0.0909,
                "tempo": 120.0
            },
            {
                "pitch": 0,
                "velocity": 101,
                "duration": 1.0795,
                "tempo": 120.0
            },
            {
                "pitch": 74,
                "velocity": 101,
                "duration": 0.0886,
                "tempo": 120.0
            },
            {
                "pitch": 76,
                "velocity": 101,
                "duration": 0.0886,
                "tempo": 120.0
            },
            {
                "pitch": 76,
                "velocity": 101,
                "duration": 0.0432,
                "tempo": 120.0
            },
            {
                "pitch": 90,
                "velocity": 101,
                "duration": 2.0886,
                "tempo": 120.0
            },
            {
                "pitch": 83,
                "velocity": 101,
                "duration": 0.0455,
                "tempo": 120.0
            },
            {
                "pitch": 83,
                "velocity": 101,
                "duration": 0.0455,
                "tempo": 120.0
            },
            {
                "pitch": 81,
                "velocity": 101,
                "duration": 1.6614,
                "tempo": 120.0
            },
            {
                "pitch": 81,
                "velocity": 101,
                "duration": 0.0432,
                "tempo": 120.0
            },
            {
                "pitch": 68,
                "velocity": 101,
                "duration": 4.4773,
                "tempo": 120.0
            },
            {
                "pitch": 84,
                "velocity": 101,
                "duration": 0.0455,
                "tempo": 120.0
            },
            {
                "pitch": 83,
                "velocity": 101,
                "duration": 0.0432,
                "tempo": 120.0
            },
            {
                "pitch": 68,
                "velocity": 101,
                "duration": 0.1205,
                "tempo": 120.0
            },
            {
                "pitch": 84,
                "velocity": 101,
                "duration": 0.0455,
                "tempo": 120.0
            },
            {
                "pitch": 86,
                "velocity": 101,
                "duration": 4.2318,
                "tempo": 120.0
            },
            {
                "pitch": 86,
                "velocity": 101,
                "duration": 0.0432,
                "tempo": 120.0
            },
            {
                "pitch": 86,
                "velocity": 101,
                "duration": 0.0432,
                "tempo": 120.0
            },
            {
                "pitch": 85,
                "velocity": 101,
                "duration": 0.0455,
                "tempo": 120.0
            },
            {
                "pitch": 88,
                "velocity": 101,
                "duration": 0.3432,
                "tempo": 120.0
            },
            {
                "pitch": 88,
                "velocity": 101,
                "duration": 0.0432,
                "tempo": 120.0
            },
            {
                "pitch": 88,
                "velocity": 101,
                "duration": 0.0409,
                "tempo": 120.0
            },
            {
                "pitch": 87,
                "velocity": 101,
                "duration": 0.0455,
                "tempo": 120.0
            },
            {
                "pitch": 88,
                "velocity": 101,
                "duration": 0.0432,
                "tempo": 120.0
            },
            {
                "pitch": 90,
                "velocity": 101,
                "duration": 0.7795,
                "tempo": 120.0
            },
            {
                "pitch": 86,
                "velocity": 101,
                "duration": 0.2841,
                "tempo": 120.0
            },
            {
                "pitch": 86,
                "velocity": 101,
                "duration": 0.0455,
                "tempo": 120.0
            },
            {
                "pitch": 84,
                "velocity": 101,
                "duration": 0.5227,
                "tempo": 120.0
            },
            {
                "pitch": 84,
                "velocity": 101,
                "duration": 0.0432,
                "tempo": 120.0
            },
            {
                "pitch": 90,
                "velocity": 101,
                "duration": 0.1636,
                "tempo": 120.0
            },
            {
                "pitch": 90,
                "velocity": 101,
                "duration": 0.0432,
                "tempo": 120.0
            },
            {
                "pitch": 90,
                "velocity": 101,
                "duration": 0.0455,
                "tempo": 120.0
            },
            {
                "pitch": 86,
                "velocity": 101,
                "duration": 0.2227,
                "tempo": 120.0
            },
            {
                "pitch": 86,
                "velocity": 101,
                "duration": 0.0432,
                "tempo": 120.0
            },
            {
                "pitch": 95,
                "velocity": 101,
                "duration": 0.0432,
                "tempo": 120.0
            },
            {
                "pitch": 95,
                "velocity": 101,
                "duration": 0.0432,
                "tempo": 120.0
            },
            {
                "pitch": 93,
                "velocity": 101,
                "duration": 9.6818,
                "tempo": 120.0
            },
            {
                "pitch": 91,
                "velocity": 101,
                "duration": 0.0432,
                "tempo": 120.0
            },
            {
                "pitch": 95,
                "velocity": 101,
                "duration": 0.0432,
                "tempo": 120.0
            },
            {
                "pitch": 95,
                "velocity": 101,
                "duration": 0.0432,
                "tempo": 120.0
            },
            {
                "pitch": 93,
                "velocity": 101,
                "duration": 0.175,
                "tempo": 120.0
            },
            {
                "pitch": 91,
                "velocity": 101,
                "duration": 0.1591,
                "tempo": 120.0
            },
            {
                "pitch": 91,
                "velocity": 101,
                "duration": 0.0432,
                "tempo": 120.0
            },
            {
                "pitch": 95,
                "velocity": 101,
                "duration": 0.0432,
                "tempo": 120.0
            },
            {
                "pitch": 95,
                "velocity": 101,
                "duration": 0.0455,
                "tempo": 120.0
            },
            {
                "pitch": 93,
                "velocity": 101,
                "duration": 0.1795,
                "tempo": 120.0
            },
            {
                "pitch": 91,
                "velocity": 101,
                "duration": 0.1636,
                "tempo": 120.0
            },
            {
                "pitch": 91,
                "velocity": 101,
                "duration": 0.0432,
                "tempo": 120.0
            },
            {
                "pitch": 95,
                "velocity": 101,
                "duration": 0.0455,
                "tempo": 120.0
            },
            {
                "pitch": 95,
                "velocity": 101,
                "duration": 0.0432,
                "tempo": 120.0
            },
            {
                "pitch": 93,
                "velocity": 101,
                "duration": 0.1795,
                "tempo": 120.0
            },
            {
                "pitch": 91,
                "velocity": 101,
                "duration": 0.1636,
                "tempo": 120.0
            },
            {
                "pitch": 91,
                "velocity": 101,
                "duration": 0.0432,
                "tempo": 120.0
            },
            {
                "pitch": 95,
                "velocity": 101,
                "duration": 0.0455,
                "tempo": 120.0
            },
            {
                "pitch": 95,
                "velocity": 101,
                "duration": 0.0455,
                "tempo": 120.0
            },
            {
                "pitch": 93,
                "velocity": 101,
                "duration": 0.1795,
                "tempo": 120.0
            },
            {
                "pitch": 91,
                "velocity": 101,
                "duration": 0.1659,
                "tempo": 120.0
            },
            {
                "pitch": 91,
                "velocity": 101,
                "duration": 0.0455,
                "tempo": 120.0
            },
            {
                "pitch": 95,
                "velocity": 101,
                "duration": 0.0455,
                "tempo": 120.0
            },
            {
                "pitch": 95,
                "velocity": 101,
                "duration": 0.0432,
                "tempo": 120.0
            },
            {
                "pitch": 93,
                "velocity": 101,
                "duration": 0.1795,
                "tempo": 120.0
            },
            {
                "pitch": 91,
                "velocity": 101,
                "duration": 0.1659,
                "tempo": 120.0
            },
            {
                "pitch": 91,
                "velocity": 101,
                "duration": 0.0455,
                "tempo": 120.0
            }
        ],
        "French Horn": [
            {
                "pitch": 72,
                "velocity": 127,
                "duration": 0.0886,
                "tempo": 120.0
            },
            {
                "pitch": 71,
                "velocity": 127,
                "duration": 0.0932,
                "tempo": 120.0
            },
            {
                "pitch": 71,
                "velocity": 127,
                "duration": 0.0909,
                "tempo": 120.0
            },
            {
                "pitch": 69,
                "velocity": 127,
                "duration": 0.0864,
                "tempo": 120.0
            },
            {
                "pitch": 72,
                "velocity": 127,
                "duration": 0.0864,
                "tempo": 120.0
            },
            {
                "pitch": 74,
                "velocity": 127,
                "duration": 0.0864,
                "tempo": 120.0
            },
            {
                "pitch": 76,
                "velocity": 127,
                "duration": 0.6841,
                "tempo": 120.0
            },
            {
                "pitch": 76,
                "velocity": 127,
                "duration": 0.0886,
                "tempo": 120.0
            },
            {
                "pitch": 74,
                "velocity": 127,
                "duration": 0.2091,
                "tempo": 120.0
            },
            {
                "pitch": 74,
                "velocity": 127,
                "duration": 0.0886,
                "tempo": 120.0
            },
            {
                "pitch": 72,
                "velocity": 127,
                "duration": 0.4455,
                "tempo": 120.0
            },
            {
                "pitch": 72,
                "velocity": 127,
                "duration": 0.0886,
                "tempo": 120.0
            },
            {
                "pitch": 74,
                "velocity": 127,
                "duration": 0.2091,
                "tempo": 120.0
            },
            {
                "pitch": 74,
                "velocity": 127,
                "duration": 0.0886,
                "tempo": 120.0
            },
            {
                "pitch": 76,
                "velocity": 127,
                "duration": 0.45,
                "tempo": 120.0
            },
            {
                "pitch": 76,
                "velocity": 127,
                "duration": 0.0909,
                "tempo": 120.0
            },
            {
                "pitch": 76,
                "velocity": 127,
                "duration": 0.0864,
                "tempo": 120.0
            },
            {
                "pitch": 79,
                "velocity": 127,
                "duration": 0.0886,
                "tempo": 120.0
            },
            {
                "pitch": 0,
                "velocity": 127,
                "duration": 1.5568,
                "tempo": 120.0
            },
            {
                "pitch": 77,
                "velocity": 127,
                "duration": 0.0886,
                "tempo": 120.0
            },
            {
                "pitch": 77,
                "velocity": 127,
                "duration": 0.0909,
                "tempo": 120.0
            },
            {
                "pitch": 76,
                "velocity": 127,
                "duration": 0.0909,
                "tempo": 120.0
            },
            {
                "pitch": 77,
                "velocity": 127,
                "duration": 0.0886,
                "tempo": 120.0
            },
            {
                "pitch": 74,
                "velocity": 127,
                "duration": 0.9295,
                "tempo": 120.0
            },
            {
                "pitch": 74,
                "velocity": 127,
                "duration": 0.0886,
                "tempo": 120.0
            },
            {
                "pitch": 76,
                "velocity": 127,
                "duration": 0.2068,
                "tempo": 120.0
            },
            {
                "pitch": 76,
                "velocity": 127,
                "duration": 0.0864,
                "tempo": 120.0
            },
            {
                "pitch": 74,
                "velocity": 127,
                "duration": 0.2023,
                "tempo": 120.0
            },
            {
                "pitch": 74,
                "velocity": 127,
                "duration": 0.0864,
                "tempo": 120.0
            },
            {
                "pitch": 72,
                "velocity": 127,
                "duration": 1.3977,
                "tempo": 120.0
            },
            {
                "pitch": 72,
                "velocity": 127,
                "duration": 0.0864,
                "tempo": 120.0
            },
            {
                "pitch": 74,
                "velocity": 127,
                "duration": 0.2068,
                "tempo": 120.0
            },
            {
                "pitch": 74,
                "velocity": 127,
                "duration": 0.0886,
                "tempo": 120.0
            },
            {
                "pitch": 74,
                "velocity": 127,
                "duration": 0.0023,
                "tempo": 120.0
            },
            {
                "pitch": 72,
                "velocity": 127,
                "duration": 0.2068,
                "tempo": 120.0
            },
            {
                "pitch": 72,
                "velocity": 127,
                "duration": 0.0864,
                "tempo": 120.0
            },
            {
                "pitch": 76,
                "velocity": 127,
                "duration": 0.4727,
                "tempo": 120.0
            },
            {
                "pitch": 71,
                "velocity": 127,
                "duration": 0.0886,
                "tempo": 120.0
            },
            {
                "pitch": 0,
                "velocity": 127,
                "duration": 78.7932,
                "tempo": 120.0
            },
            {
                "pitch": 72,
                "velocity": 127,
                "duration": 0.0864,
                "tempo": 120.0
            },
            {
                "pitch": 76,
                "velocity": 127,
                "duration": 77.7205,
                "tempo": 120.0
            },
            {
                "pitch": 71,
                "velocity": 127,
                "duration": 0.0886,
                "tempo": 120.0
            },
            {
                "pitch": 71,
                "velocity": 127,
                "duration": 0.0886,
                "tempo": 120.0
            },
            {
                "pitch": 69,
                "velocity": 127,
                "duration": 0.0864,
                "tempo": 120.0
            },
            {
                "pitch": 56,
                "velocity": 127,
                "duration": 80.3386,
                "tempo": 120.0
            },
            {
                "pitch": 72,
                "velocity": 127,
                "duration": 0.0864,
                "tempo": 120.0
            },
            {
                "pitch": 74,
                "velocity": 127,
                "duration": 0.0864,
                "tempo": 120.0
            },
            {
                "pitch": 76,
                "velocity": 127,
                "duration": 0.6795,
                "tempo": 120.0
            },
            {
                "pitch": 76,
                "velocity": 127,
                "duration": 0.0886,
                "tempo": 120.0
            },
            {
                "pitch": 74,
                "velocity": 127,
                "duration": 0.2091,
                "tempo": 120.0
            },
            {
                "pitch": 74,
                "velocity": 127,
                "duration": 0.0909,
                "tempo": 120.0
            },
            {
                "pitch": 74,
                "velocity": 127,
                "duration": 0.0023,
                "tempo": 120.0
            },
            {
                "pitch": 72,
                "velocity": 127,
                "duration": 0.4455,
                "tempo": 120.0
            },
            {
                "pitch": 72,
                "velocity": 127,
                "duration": 0.0864,
                "tempo": 120.0
            },
            {
                "pitch": 74,
                "velocity": 127,
                "duration": 0.0886,
                "tempo": 120.0
            },
            {
                "pitch": 76,
                "velocity": 127,
                "duration": 0.45,
                "tempo": 120.0
            },
            {
                "pitch": 76,
                "velocity": 127,
                "duration": 0.0886,
                "tempo": 120.0
            },
            {
                "pitch": 76,
                "velocity": 127,
                "duration": 0.0886,
                "tempo": 120.0
            },
            {
                "pitch": 90,
                "velocity": 127,
                "duration": 80.3409,
                "tempo": 120.0
            },
            {
                "pitch": 79,
                "velocity": 127,
                "duration": 0.0864,
                "tempo": 120.0
            },
            {
                "pitch": 0,
                "velocity": 127,
                "duration": 1.5455,
                "tempo": 120.0
            },
            {
                "pitch": 77,
                "velocity": 127,
                "duration": 0.0886,
                "tempo": 120.0
            },
            {
                "pitch": 77,
                "velocity": 127,
                "duration": 0.0886,
                "tempo": 120.0
            },
            {
                "pitch": 76,
                "velocity": 127,
                "duration": 0.0886,
                "tempo": 120.0
            },
            {
                "pitch": 77,
                "velocity": 127,
                "duration": 0.0909,
                "tempo": 120.0
            },
            {
                "pitch": 74,
                "velocity": 127,
                "duration": 0.9273,
                "tempo": 120.0
            },
            {
                "pitch": 74,
                "velocity": 127,
                "duration": 0.0886,
                "tempo": 120.0
            },
            {
                "pitch": 76,
                "velocity": 127,
                "duration": 0.2091,
                "tempo": 120.0
            },
            {
                "pitch": 76,
                "velocity": 127,
                "duration": 0.0886,
                "tempo": 120.0
            },
            {
                "pitch": 74,
                "velocity": 127,
                "duration": 0.2091,
                "tempo": 120.0
            },
            {
                "pitch": 74,
                "velocity": 127,
                "duration": 0.0886,
                "tempo": 120.0
            },
            {
                "pitch": 72,
                "velocity": 127,
                "duration": 1.4091,
                "tempo": 120.0
            },
            {
                "pitch": 72,
                "velocity": 127,
                "duration": 0.0886,
                "tempo": 120.0
            },
            {
                "pitch": 74,
                "velocity": 127,
                "duration": 0.2091,
                "tempo": 120.0
            },
            {
                "pitch": 74,
                "velocity": 127,
                "duration": 0.0909,
                "tempo": 120.0
            },
            {
                "pitch": 72,
                "velocity": 127,
                "duration": 0.2091,
                "tempo": 120.0
            },
            {
                "pitch": 72,
                "velocity": 127,
                "duration": 0.0886,
                "tempo": 120.0
            },
            {
                "pitch": 76,
                "velocity": 127,
                "duration": 0.4795,
                "tempo": 120.0
            },
            {
                "pitch": 71,
                "velocity": 127,
                "duration": 0.0886,
                "tempo": 120.0
            }
        ],
        "Vibraphone": [
            {
                "pitch": 79,
                "velocity": 101,
                "duration": 0.075,
                "tempo": 120.0
            },
            {
                "pitch": 79,
                "velocity": 101,
                "duration": 0.0727,
                "tempo": 120.0
            },
            {
                "pitch": 79,
                "velocity": 101,
                "duration": 0.1864,
                "tempo": 120.0
            },
            {
                "pitch": 79,
                "velocity": 101,
                "duration": 0.0727,
                "tempo": 120.0
            },
            {
                "pitch": 79,
                "velocity": 101,
                "duration": 0.075,
                "tempo": 120.0
            },
            {
                "pitch": 79,
                "velocity": 101,
                "duration": 0.075,
                "tempo": 120.0
            },
            {
                "pitch": 79,
                "velocity": 101,
                "duration": 0.0727,
                "tempo": 120.0
            },
            {
                "pitch": 79,
                "velocity": 101,
                "duration": 0.1932,
                "tempo": 120.0
            },
            {
                "pitch": 79,
                "velocity": 101,
                "duration": 0.075,
                "tempo": 120.0
            },
            {
                "pitch": 79,
                "velocity": 101,
                "duration": 0.0727,
                "tempo": 120.0
            },
            {
                "pitch": 79,
                "velocity": 101,
                "duration": 0.0727,
                "tempo": 120.0
            },
            {
                "pitch": 79,
                "velocity": 101,
                "duration": 0.0727,
                "tempo": 120.0
            },
            {
                "pitch": 79,
                "velocity": 101,
                "duration": 0.1932,
                "tempo": 120.0
            },
            {
                "pitch": 79,
                "velocity": 101,
                "duration": 0.075,
                "tempo": 120.0
            },
            {
                "pitch": 79,
                "velocity": 101,
                "duration": 0.0727,
                "tempo": 120.0
            },
            {
                "pitch": 79,
                "velocity": 101,
                "duration": 0.075,
                "tempo": 120.0
            },
            {
                "pitch": 79,
                "velocity": 101,
                "duration": 0.0727,
                "tempo": 120.0
            },
            {
                "pitch": 79,
                "velocity": 101,
                "duration": 0.1932,
                "tempo": 120.0
            },
            {
                "pitch": 79,
                "velocity": 101,
                "duration": 0.0727,
                "tempo": 120.0
            },
            {
                "pitch": 79,
                "velocity": 101,
                "duration": 0.0705,
                "tempo": 120.0
            },
            {
                "pitch": 79,
                "velocity": 101,
                "duration": 0.0705,
                "tempo": 120.0
            },
            {
                "pitch": 79,
                "velocity": 101,
                "duration": 0.0727,
                "tempo": 120.0
            },
            {
                "pitch": 79,
                "velocity": 101,
                "duration": 0.1955,
                "tempo": 120.0
            },
            {
                "pitch": 79,
                "velocity": 101,
                "duration": 0.0727,
                "tempo": 120.0
            },
            {
                "pitch": 79,
                "velocity": 101,
                "duration": 0.0727,
                "tempo": 120.0
            },
            {
                "pitch": 79,
                "velocity": 101,
                "duration": 0.075,
                "tempo": 120.0
            },
            {
                "pitch": 79,
                "velocity": 101,
                "duration": 0.075,
                "tempo": 120.0
            },
            {
                "pitch": 79,
                "velocity": 101,
                "duration": 0.1932,
                "tempo": 120.0
            },
            {
                "pitch": 79,
                "velocity": 101,
                "duration": 0.0727,
                "tempo": 120.0
            },
            {
                "pitch": 79,
                "velocity": 101,
                "duration": 0.0727,
                "tempo": 120.0
            },
            {
                "pitch": 79,
                "velocity": 101,
                "duration": 0.075,
                "tempo": 120.0
            },
            {
                "pitch": 79,
                "velocity": 101,
                "duration": 0.075,
                "tempo": 120.0
            },
            {
                "pitch": 79,
                "velocity": 101,
                "duration": 0.1932,
                "tempo": 120.0
            },
            {
                "pitch": 79,
                "velocity": 101,
                "duration": 0.0727,
                "tempo": 120.0
            },
            {
                "pitch": 79,
                "velocity": 101,
                "duration": 0.0727,
                "tempo": 120.0
            },
            {
                "pitch": 79,
                "velocity": 101,
                "duration": 0.0727,
                "tempo": 120.0
            },
            {
                "pitch": 79,
                "velocity": 101,
                "duration": 0.0705,
                "tempo": 120.0
            },
            {
                "pitch": 79,
                "velocity": 101,
                "duration": 0.1932,
                "tempo": 120.0
            },
            {
                "pitch": 79,
                "velocity": 101,
                "duration": 0.0727,
                "tempo": 120.0
            },
            {
                "pitch": 79,
                "velocity": 101,
                "duration": 0.0727,
                "tempo": 120.0
            },
            {
                "pitch": 79,
                "velocity": 101,
                "duration": 0.075,
                "tempo": 120.0
            },
            {
                "pitch": 79,
                "velocity": 101,
                "duration": 0.0727,
                "tempo": 120.0
            },
            {
                "pitch": 79,
                "velocity": 101,
                "duration": 0.1932,
                "tempo": 120.0
            },
            {
                "pitch": 79,
                "velocity": 101,
                "duration": 0.075,
                "tempo": 120.0
            },
            {
                "pitch": 79,
                "velocity": 101,
                "duration": 0.075,
                "tempo": 120.0
            },
            {
                "pitch": 79,
                "velocity": 101,
                "duration": 0.0727,
                "tempo": 120.0
            },
            {
                "pitch": 79,
                "velocity": 101,
                "duration": 0.0727,
                "tempo": 120.0
            },
            {
                "pitch": 79,
                "velocity": 101,
                "duration": 0.1955,
                "tempo": 120.0
            },
            {
                "pitch": 79,
                "velocity": 101,
                "duration": 0.075,
                "tempo": 120.0
            }
        ],
        "Clarinet": [
            {
                "pitch": 64,
                "velocity": 127,
                "duration": 0.0841,
                "tempo": 120.0
            },
            {
                "pitch": 60,
                "velocity": 127,
                "duration": 0.0886,
                "tempo": 120.0
            },
            {
                "pitch": 64,
                "velocity": 127,
                "duration": 0.1205,
                "tempo": 120.0
            },
            {
                "pitch": 57,
                "velocity": 127,
                "duration": 0.0886,
                "tempo": 120.0
            },
            {
                "pitch": 69,
                "velocity": 127,
                "duration": 0.0886,
                "tempo": 120.0
            },
            {
                "pitch": 62,
                "velocity": 127,
                "duration": 0.0886,
                "tempo": 120.0
            },
            {
                "pitch": 74,
                "velocity": 127,
                "duration": 0.0886,
                "tempo": 120.0
            },
            {
                "pitch": 64,
                "velocity": 127,
                "duration": 0.5682,
                "tempo": 120.0
            },
            {
                "pitch": 64,
                "velocity": 127,
                "duration": 0.0886,
                "tempo": 120.0
            },
            {
                "pitch": 60,
                "velocity": 127,
                "duration": 0.0909,
                "tempo": 120.0
            },
            {
                "pitch": 64,
                "velocity": 127,
                "duration": 0.1205,
                "tempo": 120.0
            },
            {
                "pitch": 57,
                "velocity": 127,
                "duration": 0.0909,
                "tempo": 120.0
            },
            {
                "pitch": 69,
                "velocity": 127,
                "duration": 0.0864,
                "tempo": 120.0
            },
            {
                "pitch": 31,
                "velocity": 127,
                "duration": 0.7205,
                "tempo": 120.0
            },
            {
                "pitch": 62,
                "velocity": 127,
                "duration": 0.5682,
                "tempo": 120.0
            },
            {
                "pitch": 62,
                "velocity": 127,
                "duration": 0.0886,
                "tempo": 120.0
            },
            {
                "pitch": 74,
                "velocity": 127,
                "duration": 0.0886,
                "tempo": 120.0
            },
            {
                "pitch": 72,
                "velocity": 127,
                "duration": 0.0886,
                "tempo": 120.0
            },
            {
                "pitch": 71,
                "velocity": 127,
                "duration": 0.0909,
                "tempo": 120.0
            },
            {
                "pitch": 72,
                "velocity": 127,
                "duration": 0.0886,
                "tempo": 120.0
            },
            {
                "pitch": 76,
                "velocity": 127,
                "duration": 0.2432,
                "tempo": 120.0
            },
            {
                "pitch": 71,
                "velocity": 127,
                "duration": 0.0864,
                "tempo": 120.0
            },
            {
                "pitch": 71,
                "velocity": 127,
                "duration": 0.0886,
                "tempo": 120.0
            },
            {
                "pitch": 67,
                "velocity": 127,
                "duration": 0.0886,
                "tempo": 120.0
            },
            {
                "pitch": 69,
                "velocity": 127,
                "duration": 0.2068,
                "tempo": 120.0
            },
            {
                "pitch": 69,
                "velocity": 127,
                "duration": 0.0864,
                "tempo": 120.0
            },
            {
                "pitch": 67,
                "velocity": 127,
                "duration": 0.2068,
                "tempo": 120.0
            },
            {
                "pitch": 67,
                "velocity": 127,
                "duration": 0.0886,
                "tempo": 120.0
            },
            {
                "pitch": 66,
                "velocity": 127,
                "duration": 0.0886,
                "tempo": 120.0
            },
            {
                "pitch": 67,
                "velocity": 127,
                "duration": 0.0864,
                "tempo": 120.0
            },
            {
                "pitch": 0,
                "velocity": 127,
                "duration": 0.2364,
                "tempo": 120.0
            },
            {
                "pitch": 66,
                "velocity": 127,
                "duration": 0.0864,
                "tempo": 120.0
            },
            {
                "pitch": 78,
                "velocity": 127,
                "duration": 0.2318,
                "tempo": 120.0
            },
            {
                "pitch": 69,
                "velocity": 127,
                "duration": 0.5591,
                "tempo": 120.0
            },
            {
                "pitch": 69,
                "velocity": 127,
                "duration": 0.0864,
                "tempo": 120.0
            },
            {
                "pitch": 76,
                "velocity": 127,
                "duration": 1.1568,
                "tempo": 120.0
            },
            {
                "pitch": 76,
                "velocity": 127,
                "duration": 0.0886,
                "tempo": 120.0
            },
            {
                "pitch": 72,
                "velocity": 127,
                "duration": 0.0886,
                "tempo": 120.0
            },
            {
                "pitch": 76,
                "velocity": 127,
                "duration": 0.1205,
                "tempo": 120.0
            },
            {
                "pitch": 69,
                "velocity": 127,
                "duration": 0.0886,
                "tempo": 120.0
            },
            {
                "pitch": 81,
                "velocity": 127,
                "duration": 0.0886,
                "tempo": 120.0
            },
            {
                "pitch": 79,
                "velocity": 127,
                "duration": 0.0886,
                "tempo": 120.0
            },
            {
                "pitch": 0,
                "velocity": 127,
                "duration": 0.8341,
                "tempo": 120.0
            },
            {
                "pitch": 78,
                "velocity": 127,
                "duration": 0.8068,
                "tempo": 120.0
            },
            {
                "pitch": 78,
                "velocity": 127,
                "duration": 0.0886,
                "tempo": 120.0
            },
            {
                "pitch": 78,
                "velocity": 127,
                "duration": 0.0864,
                "tempo": 120.0
            },
            {
                "pitch": 76,
                "velocity": 127,
                "duration": 0.6,
                "tempo": 120.0
            },
            {
                "pitch": 72,
                "velocity": 127,
                "duration": 0.0886,
                "tempo": 120.0
            },
            {
                "pitch": 76,
                "velocity": 127,
                "duration": 0.1205,
                "tempo": 120.0
            },
            {
                "pitch": 71,
                "velocity": 127,
                "duration": 0.0886,
                "tempo": 120.0
            },
            {
                "pitch": 71,
                "velocity": 127,
                "duration": 0.0886,
                "tempo": 120.0
            },
            {
                "pitch": 31,
                "velocity": 127,
                "duration": 2.8682,
                "tempo": 120.0
            },
            {
                "pitch": 62,
                "velocity": 127,
                "duration": 0.0909,
                "tempo": 120.0
            },
            {
                "pitch": 66,
                "velocity": 127,
                "duration": 0.0886,
                "tempo": 120.0
            },
            {
                "pitch": 66,
                "velocity": 127,
                "duration": 0.0864,
                "tempo": 120.0
            },
            {
                "pitch": 64,
                "velocity": 127,
                "duration": 3.5591,
                "tempo": 120.0
            },
            {
                "pitch": 64,
                "velocity": 127,
                "duration": 0.0886,
                "tempo": 120.0
            },
            {
                "pitch": 67,
                "velocity": 127,
                "duration": 0.0886,
                "tempo": 120.0
            },
            {
                "pitch": 0,
                "velocity": 127,
                "duration": 1.2,
                "tempo": 120.0
            },
            {
                "pitch": 66,
                "velocity": 127,
                "duration": 0.0841,
                "tempo": 120.0
            },
            {
                "pitch": 78,
                "velocity": 127,
                "duration": 0.2364,
                "tempo": 120.0
            },
            {
                "pitch": 67,
                "velocity": 127,
                "duration": 0.0864,
                "tempo": 120.0
            },
            {
                "pitch": 69,
                "velocity": 127,
                "duration": 0.0864,
                "tempo": 120.0
            },
            {
                "pitch": 67,
                "velocity": 127,
                "duration": 0.2045,
                "tempo": 120.0
            },
            {
                "pitch": 67,
                "velocity": 127,
                "duration": 0.0864,
                "tempo": 120.0
            },
            {
                "pitch": 69,
                "velocity": 127,
                "duration": 0.2068,
                "tempo": 120.0
            },
            {
                "pitch": 69,
                "velocity": 127,
                "duration": 0.0886,
                "tempo": 120.0
            },
            {
                "pitch": 69,
                "velocity": 127,
                "duration": 0.0886,
                "tempo": 120.0
            },
            {
                "pitch": 71,
                "velocity": 127,
                "duration": 0.0886,
                "tempo": 120.0
            },
            {
                "pitch": 69,
                "velocity": 127,
                "duration": 0.0886,
                "tempo": 120.0
            },
            {
                "pitch": 56,
                "velocity": 127,
                "duration": 3.9386,
                "tempo": 120.0
            },
            {
                "pitch": 72,
                "velocity": 127,
                "duration": 0.0886,
                "tempo": 120.0
            },
            {
                "pitch": 0,
                "velocity": 127,
                "duration": 24.0114,
                "tempo": 120.0
            },
            {
                "pitch": 64,
                "velocity": 101,
                "duration": 0.0864,
                "tempo": 120.0
            },
            {
                "pitch": 60,
                "velocity": 101,
                "duration": 0.0909,
                "tempo": 120.0
            },
            {
                "pitch": 64,
                "velocity": 101,
                "duration": 0.1205,
                "tempo": 120.0
            },
            {
                "pitch": 57,
                "velocity": 101,
                "duration": 0.0909,
                "tempo": 120.0
            },
            {
                "pitch": 69,
                "velocity": 101,
                "duration": 0.0864,
                "tempo": 120.0
            },
            {
                "pitch": 31,
                "velocity": 127,
                "duration": 25.0909,
                "tempo": 120.0
            },
            {
                "pitch": 62,
                "velocity": 127,
                "duration": 25.0591,
                "tempo": 120.0
            },
            {
                "pitch": 62,
                "velocity": 101,
                "duration": 0.0886,
                "tempo": 120.0
            },
            {
                "pitch": 74,
                "velocity": 127,
                "duration": 27.9273,
                "tempo": 120.0
            },
            {
                "pitch": 74,
                "velocity": 101,
                "duration": 0.0886,
                "tempo": 120.0
            },
            {
                "pitch": 64,
                "velocity": 101,
                "duration": 0.5705,
                "tempo": 120.0
            },
            {
                "pitch": 64,
                "velocity": 101,
                "duration": 0.0886,
                "tempo": 120.0
            },
            {
                "pitch": 60,
                "velocity": 101,
                "duration": 0.0909,
                "tempo": 120.0
            },
            {
                "pitch": 64,
                "velocity": 101,
                "duration": 0.1205,
                "tempo": 120.0
            },
            {
                "pitch": 57,
                "velocity": 101,
                "duration": 0.0886,
                "tempo": 120.0
            },
            {
                "pitch": 69,
                "velocity": 101,
                "duration": 0.0864,
                "tempo": 120.0
            },
            {
                "pitch": 31,
                "velocity": 101,
                "duration": 0.7159,
                "tempo": 120.0
            },
            {
                "pitch": 62,
                "velocity": 101,
                "duration": 0.5614,
                "tempo": 120.0
            },
            {
                "pitch": 62,
                "velocity": 101,
                "duration": 0.0864,
                "tempo": 120.0
            },
            {
                "pitch": 74,
                "velocity": 101,
                "duration": 0.0864,
                "tempo": 120.0
            },
            {
                "pitch": 72,
                "velocity": 101,
                "duration": 0.0886,
                "tempo": 120.0
            },
            {
                "pitch": 76,
                "velocity": 127,
                "duration": 26.3977,
                "tempo": 120.0
            },
            {
                "pitch": 71,
                "velocity": 101,
                "duration": 0.0909,
                "tempo": 120.0
            },
            {
                "pitch": 56,
                "velocity": 127,
                "duration": 24.7295,
                "tempo": 120.0
            },
            {
                "pitch": 72,
                "velocity": 101,
                "duration": 0.0886,
                "tempo": 120.0
            },
            {
                "pitch": 76,
                "velocity": 101,
                "duration": 0.2432,
                "tempo": 120.0
            },
            {
                "pitch": 71,
                "velocity": 101,
                "duration": 0.0864,
                "tempo": 120.0
            },
            {
                "pitch": 71,
                "velocity": 101,
                "duration": 0.0886,
                "tempo": 120.0
            },
            {
                "pitch": 67,
                "velocity": 127,
                "duration": 25.6591,
                "tempo": 120.0
            },
            {
                "pitch": 67,
                "velocity": 101,
                "duration": 0.0886,
                "tempo": 120.0
            },
            {
                "pitch": 69,
                "velocity": 101,
                "duration": 0.2091,
                "tempo": 120.0
            },
            {
                "pitch": 69,
                "velocity": 101,
                "duration": 0.0886,
                "tempo": 120.0
            },
            {
                "pitch": 67,
                "velocity": 101,
                "duration": 0.2068,
                "tempo": 120.0
            },
            {
                "pitch": 67,
                "velocity": 101,
                "duration": 0.0886,
                "tempo": 120.0
            },
            {
                "pitch": 0,
                "velocity": 101,
                "duration": 2.3864,
                "tempo": 120.0
            },
            {
                "pitch": 66,
                "velocity": 101,
                "duration": 0.0886,
                "tempo": 120.0
            },
            {
                "pitch": 78,
                "velocity": 127,
                "duration": 26.4023,
                "tempo": 120.0
            },
            {
                "pitch": 67,
                "velocity": 101,
                "duration": 0.0886,
                "tempo": 120.0
            },
            {
                "pitch": 0,
                "velocity": 101,
                "duration": 0.2386,
                "tempo": 120.0
            },
            {
                "pitch": 66,
                "velocity": 101,
                "duration": 0.0909,
                "tempo": 120.0
            },
            {
                "pitch": 78,
                "velocity": 101,
                "duration": 0.2386,
                "tempo": 120.0
            },
            {
                "pitch": 69,
                "velocity": 101,
                "duration": 0.5705,
                "tempo": 120.0
            },
            {
                "pitch": 69,
                "velocity": 101,
                "duration": 0.0909,
                "tempo": 120.0
            },
            {
                "pitch": 43,
                "velocity": 127,
                "duration": 28.6795,
                "tempo": 120.0
            },
            {
                "pitch": 76,
                "velocity": 101,
                "duration": 1.1659,
                "tempo": 120.0
            },
            {
                "pitch": 76,
                "velocity": 101,
                "duration": 0.0864,
                "tempo": 120.0
            },
            {
                "pitch": 72,
                "velocity": 101,
                "duration": 0.0886,
                "tempo": 120.0
            },
            {
                "pitch": 76,
                "velocity": 101,
                "duration": 0.1205,
                "tempo": 120.0
            },
            {
                "pitch": 69,
                "velocity": 101,
                "duration": 0.0886,
                "tempo": 120.0
            },
            {
                "pitch": 81,
                "velocity": 127,
                "duration": 28.6477,
                "tempo": 120.0
            },
            {
                "pitch": 81,
                "velocity": 101,
                "duration": 0.0886,
                "tempo": 120.0
            },
            {
                "pitch": 79,
                "velocity": 101,
                "duration": 0.0886,
                "tempo": 120.0
            },
            {
                "pitch": 0,
                "velocity": 101,
                "duration": 0.8409,
                "tempo": 120.0
            },
            {
                "pitch": 78,
                "velocity": 101,
                "duration": 0.8091,
                "tempo": 120.0
            },
            {
                "pitch": 78,
                "velocity": 101,
                "duration": 0.0886,
                "tempo": 120.0
            },
            {
                "pitch": 78,
                "velocity": 101,
                "duration": 0.0864,
                "tempo": 120.0
            },
            {
                "pitch": 76,
                "velocity": 101,
                "duration": 0.5955,
                "tempo": 120.0
            },
            {
                "pitch": 72,
                "velocity": 101,
                "duration": 0.0864,
                "tempo": 120.0
            },
            {
                "pitch": 76,
                "velocity": 101,
                "duration": 0.1182,
                "tempo": 120.0
            },
            {
                "pitch": 76,
                "velocity": 101,
                "duration": 0.0023,
                "tempo": 120.0
            },
            {
                "pitch": 71,
                "velocity": 101,
                "duration": 0.0841,
                "tempo": 120.0
            },
            {
                "pitch": 71,
                "velocity": 101,
                "duration": 0.0909,
                "tempo": 120.0
            },
            {
                "pitch": 31,
                "velocity": 101,
                "duration": 2.8659,
                "tempo": 120.0
            },
            {
                "pitch": 31,
                "velocity": 101,
                "duration": 0.0023,
                "tempo": 120.0
            },
            {
                "pitch": 62,
                "velocity": 101,
                "duration": 0.0909,
                "tempo": 120.0
            },
            {
                "pitch": 66,
                "velocity": 101,
                "duration": 0.0909,
                "tempo": 120.0
            },
            {
                "pitch": 66,
                "velocity": 101,
                "duration": 0.0864,
                "tempo": 120.0
            },
            {
                "pitch": 64,
                "velocity": 101,
                "duration": 3.55,
                "tempo": 120.0
            },
            {
                "pitch": 64,
                "velocity": 101,
                "duration": 0.0864,
                "tempo": 120.0
            },
            {
                "pitch": 67,
                "velocity": 101,
                "duration": 0.0864,
                "tempo": 120.0
            },
            {
                "pitch": 0,
                "velocity": 101,
                "duration": 1.1886,
                "tempo": 120.0
            },
            {
                "pitch": 66,
                "velocity": 101,
                "duration": 0.0886,
                "tempo": 120.0
            },
            {
                "pitch": 78,
                "velocity": 101,
                "duration": 0.2364,
                "tempo": 120.0
            },
            {
                "pitch": 67,
                "velocity": 101,
                "duration": 0.0886,
                "tempo": 120.0
            },
            {
                "pitch": 69,
                "velocity": 101,
                "duration": 0.0886,
                "tempo": 120.0
            },
            {
                "pitch": 67,
                "velocity": 101,
                "duration": 0.2091,
                "tempo": 120.0
            },
            {
                "pitch": 67,
                "velocity": 101,
                "duration": 0.0886,
                "tempo": 120.0
            },
            {
                "pitch": 69,
                "velocity": 101,
                "duration": 0.2091,
                "tempo": 120.0
            },
            {
                "pitch": 69,
                "velocity": 101,
                "duration": 0.0886,
                "tempo": 120.0
            },
            {
                "pitch": 69,
                "velocity": 101,
                "duration": 0.0909,
                "tempo": 120.0
            },
            {
                "pitch": 71,
                "velocity": 101,
                "duration": 0.0864,
                "tempo": 120.0
            },
            {
                "pitch": 69,
                "velocity": 101,
                "duration": 0.0886,
                "tempo": 120.0
            },
            {
                "pitch": 56,
                "velocity": 101,
                "duration": 3.9477,
                "tempo": 120.0
            },
            {
                "pitch": 72,
                "velocity": 101,
                "duration": 0.0886,
                "tempo": 120.0
            }
        ]
    }
}