{
    "track_id": "14 Boss 5",
    "mood": "angry",
    "instruments": {
        "Trumpet": [
            {
                "pitch": 57,
                "velocity": 64,
                "duration": 0.1523,
                "tempo": 120.0
            },
            {
                "pitch": 69,
                "velocity": 64,
                "duration": 0.075,
                "tempo": 120.0
            },
            {
                "pitch": 64,
                "velocity": 64,
                "duration": 0.1091,
                "tempo": 120.0
            },
            {
                "pitch": 67,
                "velocity": 64,
                "duration": 0.1068,
                "tempo": 120.0
            },
            {
                "pitch": 69,
                "velocity": 64,
                "duration": 0.1045,
                "tempo": 120.0
            },
            {
                "pitch": 62,
                "velocity": 64,
                "duration": 0.0795,
                "tempo": 120.0
            },
            {
                "pitch": 64,
                "velocity": 64,
                "duration": 0.0795,
                "tempo": 120.0
            },
            {
                "pitch": 64,
                "velocity": 64,
                "duration": 0.3682,
                "tempo": 120.0
            },
            {
                "pitch": 62,
                "velocity": 64,
                "duration": 0.3682,
                "tempo": 120.0
            },
            {
                "pitch": 62,
                "velocity": 64,
                "duration": 0.2114,
                "tempo": 120.0
            },
            {
                "pitch": 57,
                "velocity": 64,
                "duration": 0.1773,
                "tempo": 120.0
            },
            {
                "pitch": 69,
                "velocity": 64,
                "duration": 0.1,
                "tempo": 120.0
            },
            {
                "pitch": 64,
                "velocity": 64,
                "duration": 0.0795,
                "tempo": 120.0
            },
            {
                "pitch": 67,
                "velocity": 64,
                "duration": 0.0773,
                "tempo": 120.0
            },
            {
                "pitch": 69,
                "velocity": 64,
                "duration": 0.075,
                "tempo": 120.0
            },
            {
                "pitch": 62,
                "velocity": 64,
                "duration": 0.0773,
                "tempo": 120.0
            },
            {
                "pitch": 64,
                "velocity": 64,
                "duration": 0.1045,
                "tempo": 120.0
            },
            {
                "pitch": 64,
                "velocity": 64,
                "duration": 0.3682,
                "tempo": 120.0
            },
            {
                "pitch": 62,
                "velocity": 64,
                "duration": 0.3682,
                "tempo": 120.0
            },
            {
                "pitch": 62,
                "velocity": 64,
                "duration": 0.2386,
                "tempo": 120.0
            },
            {
                "pitch": 57,
                "velocity": 64,
                "duration": 0.1545,
                "tempo": 120.0
            },
            {
                "pitch": 69,
                "velocity": 64,
                "duration": 0.0773,
                "tempo": 120.0
            },
            {
                "pitch": 64,
                "velocity": 64,
                "duration": 0.0818,
                "tempo": 120.0
            },
            {
                "pitch": 67,
                "velocity": 64,
                "duration": 0.1023,
                "tempo": 120.0
            },
            {
                "pitch": 69,
                "velocity": 64,
                "duration": 0.1045,
                "tempo": 120.0
            },
            {
                "pitch": 62,
                "velocity": 64,
                "duration": 0.1045,
                "tempo": 120.0
            },
            {
                "pitch": 64,
                "velocity": 64,
                "duration": 0.0795,
                "tempo": 120.0
            },
            {
                "pitch": 64,
                "velocity": 64,
                "duration": 0.3682,
                "tempo": 120.0
            },
            {
                "pitch": 62,
                "velocity": 64,
                "duration": 0.3682,
                "tempo": 120.0
            },
            {
                "pitch": 62,
                "velocity": 64,
                "duration": 0.2114,
                "tempo": 120.0
            },
            {
                "pitch": 57,
                "velocity": 64,
                "duration": 0.1773,
                "tempo": 120.0
            },
            {
                "pitch": 69,
                "velocity": 64,
                "duration": 0.1,
                "tempo": 120.0
            },
            {
                "pitch": 64,
                "velocity": 64,
                "duration": 0.1045,
                "tempo": 120.0
            },
            {
                "pitch": 67,
                "velocity": 64,
                "duration": 0.075,
                "tempo": 120.0
            },
            {
                "pitch": 69,
                "velocity": 64,
                "duration": 0.075,
                "tempo": 120.0
            },
            {
                "pitch": 62,
                "velocity": 64,
                "duration": 0.0773,
                "tempo": 120.0
            },
            {
                "pitch": 64,
                "velocity": 64,
                "duration": 0.1023,
                "tempo": 120.0
            },
            {
                "pitch": 64,
                "velocity": 64,
                "duration": 0.3659,
                "tempo": 120.0
            },
            {
                "pitch": 62,
                "velocity": 64,
                "duration": 0.3409,
                "tempo": 120.0
            },
            {
                "pitch": 62,
                "velocity": 64,
                "duration": 0.2364,
                "tempo": 120.0
            },
            {
                "pitch": 57,
                "velocity": 64,
                "duration": 0.1568,
                "tempo": 120.0
            },
            {
                "pitch": 69,
                "velocity": 64,
                "duration": 0.0773,
                "tempo": 120.0
            },
            {
                "pitch": 64,
                "velocity": 64,
                "duration": 0.0795,
                "tempo": 120.0
            },
            {
                "pitch": 67,
                "velocity": 64,
                "duration": 0.1068,
                "tempo": 120.0
            },
            {
                "pitch": 69,
                "velocity": 64,
                "duration": 0.1068,
                "tempo": 120.0
            },
            {
                "pitch": 62,
                "velocity": 64,
                "duration": 0.1068,
                "tempo": 120.0
            },
            {
                "pitch": 64,
                "velocity": 64,
                "duration": 0.0795,
                "tempo": 120.0
            },
            {
                "pitch": 64,
                "velocity": 64,
                "duration": 0.3341,
                "tempo": 120.0
            },
            {
                "pitch": 62,
                "velocity": 64,
                "duration": 0.3614,
                "tempo": 120.0
            },
            {
                "pitch": 62,
                "velocity": 64,
                "duration": 0.2045,
                "tempo": 120.0
            },
            {
                "pitch": 57,
                "velocity": 64,
                "duration": 0.1818,
                "tempo": 120.0
            },
            {
                "pitch": 69,
                "velocity": 64,
                "duration": 0.1045,
                "tempo": 120.0
            },
            {
                "pitch": 64,
                "velocity": 64,
                "duration": 0.1068,
                "tempo": 120.0
            },
            {
                "pitch": 67,
                "velocity": 64,
                "duration": 0.0773,
                "tempo": 120.0
            },
            {
                "pitch": 69,
                "velocity": 64,
                "duration": 0.0773,
                "tempo": 120.0
            },
            {
                "pitch": 62,
                "velocity": 64,
                "duration": 0.0795,
                "tempo": 120.0
            },
            {
                "pitch": 64,
                "velocity": 64,
                "duration": 0.0795,
                "tempo": 120.0
            },
            {
                "pitch": 64,
                "velocity": 64,
                "duration": 0.3591,
                "tempo": 120.0
            },
            {
                "pitch": 62,
                "velocity": 64,
                "duration": 0.3364,
                "tempo": 120.0
            },
            {
                "pitch": 62,
                "velocity": 64,
                "duration": 0.2318,
                "tempo": 120.0
            },
            {
                "pitch": 57,
                "velocity": 64,
                "duration": 0.1818,
                "tempo": 120.0
            },
            {
                "pitch": 69,
                "velocity": 64,
                "duration": 0.0773,
                "tempo": 120.0
            },
            {
                "pitch": 64,
                "velocity": 64,
                "duration": 0.0795,
                "tempo": 120.0
            },
            {
                "pitch": 67,
                "velocity": 64,
                "duration": 0.0773,
                "tempo": 120.0
            },
            {
                "pitch": 69,
                "velocity": 64,
                "duration": 0.1045,
                "tempo": 120.0
            },
            {
                "pitch": 62,
                "velocity": 64,
                "duration": 0.1045,
                "tempo": 120.0
            },
            {
                "pitch": 64,
                "velocity": 64,
                "duration": 0.0795,
                "tempo": 120.0
            },
            {
                "pitch": 64,
                "velocity": 64,
                "duration": 0.3455,
                "tempo": 120.0
            },
            {
                "pitch": 62,
                "velocity": 64,
                "duration": 0.375,
                "tempo": 120.0
            },
            {
                "pitch": 62,
                "velocity": 64,
                "duration": 0.2136,
                "tempo": 120.0
            },
            {
                "pitch": 57,
                "velocity": 64,
                "duration": 0.1795,
                "tempo": 120.0
            },
            {
                "pitch": 69,
                "velocity": 64,
                "duration": 0.1023,
                "tempo": 120.0
            },
            {
                "pitch": 64,
                "velocity": 64,
                "duration": 0.1023,
                "tempo": 120.0
            },
            {
                "pitch": 67,
                "velocity": 64,
                "duration": 0.075,
                "tempo": 120.0
            },
            {
                "pitch": 69,
                "velocity": 64,
                "duration": 0.0773,
                "tempo": 120.0
            },
            {
                "pitch": 62,
                "velocity": 64,
                "duration": 0.0773,
                "tempo": 120.0
            },
            {
                "pitch": 64,
                "velocity": 64,
                "duration": 0.0773,
                "tempo": 120.0
            },
            {
                "pitch": 64,
                "velocity": 64,
                "duration": 0.3659,
                "tempo": 120.0
            },
            {
                "pitch": 62,
                "velocity": 64,
                "duration": 0.3432,
                "tempo": 120.0
            },
            {
                "pitch": 62,
                "velocity": 64,
                "duration": 0.2364,
                "tempo": 120.0
            },
            {
                "pitch": 57,
                "velocity": 64,
                "duration": 0.1773,
                "tempo": 120.0
            },
            {
                "pitch": 69,
                "velocity": 64,
                "duration": 0.075,
                "tempo": 120.0
            },
            {
                "pitch": 64,
                "velocity": 64,
                "duration": 0.0773,
                "tempo": 120.0
            },
            {
                "pitch": 67,
                "velocity": 64,
                "duration": 0.075,
                "tempo": 120.0
            },
            {
                "pitch": 69,
                "velocity": 64,
                "duration": 0.1023,
                "tempo": 120.0
            },
            {
                "pitch": 62,
                "velocity": 64,
                "duration": 0.1023,
                "tempo": 120.0
            },
            {
                "pitch": 64,
                "velocity": 64,
                "duration": 0.1023,
                "tempo": 120.0
            },
            {
                "pitch": 64,
                "velocity": 64,
                "duration": 0.3455,
                "tempo": 120.0
            },
            {
                "pitch": 62,
                "velocity": 64,
                "duration": 0.375,
                "tempo": 120.0
            },
            {
                "pitch": 62,
                "velocity": 64,
                "duration": 0.2136,
                "tempo": 120.0
            },
            {
                "pitch": 57,
                "velocity": 64,
                "duration": 0.1795,
                "tempo": 120.0
            },
            {
                "pitch": 69,
                "velocity": 64,
                "duration": 0.1045,
                "tempo": 120.0
            },
            {
                "pitch": 64,
                "velocity": 64,
                "duration": 0.1045,
                "tempo": 120.0
            },
            {
                "pitch": 67,
                "velocity": 64,
                "duration": 0.1045,
                "tempo": 120.0
            },
            {
                "pitch": 69,
                "velocity": 64,
                "duration": 0.0795,
                "tempo": 120.0
            },
            {
                "pitch": 62,
                "velocity": 64,
                "duration": 0.0795,
                "tempo": 120.0
            },
            {
                "pitch": 64,
                "velocity": 64,
                "duration": 0.0795,
                "tempo": 120.0
            },
            {
                "pitch": 64,
                "velocity": 64,
                "duration": 0.3591,
                "tempo": 120.0
            },
            {
                "pitch": 62,
                "velocity": 64,
                "duration": 0.3364,
                "tempo": 120.0
            },
            {
                "pitch": 62,
                "velocity": 64,
                "duration": 0.2318,
                "tempo": 120.0
            },
            {
                "pitch": 57,
                "velocity": 64,
                "duration": 0.1773,
                "tempo": 120.0
            },
            {
                "pitch": 69,
                "velocity": 64,
                "duration": 0.075,
                "tempo": 120.0
            },
            {
                "pitch": 64,
                "velocity": 64,
                "duration": 0.0773,
                "tempo": 120.0
            },
            {
                "pitch": 67,
                "velocity": 64,
                "duration": 0.075,
                "tempo": 120.0
            },
            {
                "pitch": 69,
                "velocity": 64,
                "duration": 0.1,
                "tempo": 120.0
            },
            {
                "pitch": 62,
                "velocity": 64,
                "duration": 0.1023,
                "tempo": 120.0
            },
            {
                "pitch": 64,
                "velocity": 64,
                "duration": 0.0909,
                "tempo": 120.0
            },
            {
                "pitch": 64,
                "velocity": 64,
                "duration": 0.2932,
                "tempo": 120.0
            },
            {
                "pitch": 62,
                "velocity": 64,
                "duration": 0.3182,
                "tempo": 120.0
            },
            {
                "pitch": 62,
                "velocity": 64,
                "duration": 0.2068,
                "tempo": 120.0
            },
            {
                "pitch": 57,
                "velocity": 64,
                "duration": 0.1591,
                "tempo": 120.0
            },
            {
                "pitch": 69,
                "velocity": 64,
                "duration": 0.0909,
                "tempo": 120.0
            },
            {
                "pitch": 64,
                "velocity": 64,
                "duration": 0.0932,
                "tempo": 120.0
            },
            {
                "pitch": 67,
                "velocity": 64,
                "duration": 0.0909,
                "tempo": 120.0
            },
            {
                "pitch": 69,
                "velocity": 64,
                "duration": 0.0682,
                "tempo": 120.0
            },
            {
                "pitch": 62,
                "velocity": 64,
                "duration": 0.0682,
                "tempo": 120.0
            },
            {
                "pitch": 64,
                "velocity": 64,
                "duration": 0.0705,
                "tempo": 120.0
            },
            {
                "pitch": 64,
                "velocity": 64,
                "duration": 0.3227,
                "tempo": 120.0
            },
            {
                "pitch": 62,
                "velocity": 64,
                "duration": 0.3205,
                "tempo": 120.0
            },
            {
                "pitch": 62,
                "velocity": 64,
                "duration": 0.2023,
                "tempo": 120.0
            },
            {
                "pitch": 61,
                "velocity": 64,
                "duration": 0.1023,
                "tempo": 120.0
            },
            {
                "pitch": 62,
                "velocity": 64,
                "duration": 0.0773,
                "tempo": 120.0
            },
            {
                "pitch": 63,
                "velocity": 64,
                "duration": 0.0773,
                "tempo": 120.0
            },
            {
                "pitch": 64,
                "velocity": 64,
                "duration": 0.0773,
                "tempo": 120.0
            },
            {
                "pitch": 61,
                "velocity": 64,
                "duration": 0.1045,
                "tempo": 120.0
            },
            {
                "pitch": 62,
                "velocity": 64,
                "duration": 0.1045,
                "tempo": 120.0
            },
            {
                "pitch": 63,
                "velocity": 64,
                "duration": 0.1068,
                "tempo": 120.0
            },
            {
                "pitch": 64,
                "velocity": 64,
                "duration": 0.0795,
                "tempo": 120.0
            },
            {
                "pitch": 67,
                "velocity": 64,
                "duration": 0.075,
                "tempo": 120.0
            },
            {
                "pitch": 68,
                "velocity": 64,
                "duration": 0.1045,
                "tempo": 120.0
            },
            {
                "pitch": 69,
                "velocity": 64,
                "duration": 0.1023,
                "tempo": 120.0
            },
            {
                "pitch": 70,
                "velocity": 64,
                "duration": 0.1023,
                "tempo": 120.0
            },
            {
                "pitch": 67,
                "velocity": 64,
                "duration": 0.0795,
                "tempo": 120.0
            },
            {
                "pitch": 68,
                "velocity": 64,
                "duration": 0.0795,
                "tempo": 120.0
            },
            {
                "pitch": 69,
                "velocity": 64,
                "duration": 0.0795,
                "tempo": 120.0
            },
            {
                "pitch": 70,
                "velocity": 64,
                "duration": 0.0818,
                "tempo": 120.0
            },
            {
                "pitch": 57,
                "velocity": 64,
                "duration": 1.0614,
                "tempo": 120.0
            },
            {
                "pitch": 56,
                "velocity": 64,
                "duration": 1.0455,
                "tempo": 120.0
            },
            {
                "pitch": 57,
                "velocity": 64,
                "duration": 1.0182,
                "tempo": 120.0
            },
            {
                "pitch": 56,
                "velocity": 64,
                "duration": 1.0364,
                "tempo": 120.0
            },
            {
                "pitch": 57,
                "velocity": 64,
                "duration": 1.0523,
                "tempo": 120.0
            },
            {
                "pitch": 56,
                "velocity": 64,
                "duration": 1.0432,
                "tempo": 120.0
            },
            {
                "pitch": 57,
                "velocity": 64,
                "duration": 1.0182,
                "tempo": 120.0
            },
            {
                "pitch": 56,
                "velocity": 64,
                "duration": 1.0182,
                "tempo": 120.0
            },
            {
                "pitch": 57,
                "velocity": 64,
                "duration": 1.0614,
                "tempo": 120.0
            },
            {
                "pitch": 56,
                "velocity": 64,
                "duration": 1.0545,
                "tempo": 120.0
            },
            {
                "pitch": 57,
                "velocity": 64,
                "duration": 1.0182,
                "tempo": 120.0
            },
            {
                "pitch": 56,
                "velocity": 64,
                "duration": 1.0205,
                "tempo": 120.0
            },
            {
                "pitch": 69,
                "velocity": 64,
                "duration": 1.05,
                "tempo": 120.0
            },
            {
                "pitch": 63,
                "velocity": 64,
                "duration": 0.7659,
                "tempo": 120.0
            },
            {
                "pitch": 63,
                "velocity": 64,
                "duration": 0.1023,
                "tempo": 120.0
            },
            {
                "pitch": 65,
                "velocity": 64,
                "duration": 0.1045,
                "tempo": 120.0
            },
            {
                "pitch": 66,
                "velocity": 64,
                "duration": 1.0432,
                "tempo": 120.0
            },
            {
                "pitch": 57,
                "velocity": 64,
                "duration": 0.7614,
                "tempo": 120.0
            },
            {
                "pitch": 57,
                "velocity": 64,
                "duration": 0.075,
                "tempo": 120.0
            },
            {
                "pitch": 59,
                "velocity": 64,
                "duration": 0.0795,
                "tempo": 120.0
            },
            {
                "pitch": 60,
                "velocity": 64,
                "duration": 1.0227,
                "tempo": 120.0
            },
            {
                "pitch": 52,
                "velocity": 64,
                "duration": 0.7705,
                "tempo": 120.0
            },
            {
                "pitch": 52,
                "velocity": 64,
                "duration": 0.1045,
                "tempo": 120.0
            },
            {
                "pitch": 54,
                "velocity": 64,
                "duration": 0.1068,
                "tempo": 120.0
            },
            {
                "pitch": 55,
                "velocity": 64,
                "duration": 0.5,
                "tempo": 120.0
            },
            {
                "pitch": 58,
                "velocity": 64,
                "duration": 0.4909,
                "tempo": 120.0
            },
            {
                "pitch": 63,
                "velocity": 64,
                "duration": 1.0182,
                "tempo": 120.0
            },
            {
                "pitch": 57,
                "velocity": 64,
                "duration": 2.1432,
                "tempo": 120.0
            },
            {
                "pitch": 62,
                "velocity": 64,
                "duration": 2.1182,
                "tempo": 120.0
            },
            {
                "pitch": 66,
                "velocity": 64,
                "duration": 2.1295,
                "tempo": 120.0
            },
            {
                "pitch": 69,
                "velocity": 64,
                "duration": 2.1295,
                "tempo": 120.0
            },
            {
                "pitch": 64,
                "velocity": 80,
                "duration": 0.075,
                "tempo": 120.0
            },
            {
                "pitch": 68,
                "velocity": 80,
                "duration": 0.0773,
                "tempo": 120.0
            },
            {
                "pitch": 71,
                "velocity": 80,
                "duration": 0.0773,
                "tempo": 120.0
            },
            {
                "pitch": 76,
                "velocity": 80,
                "duration": 0.1318,
                "tempo": 120.0
            },
            {
                "pitch": 76,
                "velocity": 80,
                "duration": 0.1318,
                "tempo": 120.0
            },
            {
                "pitch": 74,
                "velocity": 80,
                "duration": 0.1295,
                "tempo": 120.0
            },
            {
                "pitch": 76,
                "velocity": 80,
                "duration": 0.1273,
                "tempo": 120.0
            },
            {
                "pitch": 64,
                "velocity": 64,
                "duration": 0.1023,
                "tempo": 120.0
            },
            {
                "pitch": 66,
                "velocity": 64,
                "duration": 0.075,
                "tempo": 120.0
            },
            {
                "pitch": 68,
                "velocity": 64,
                "duration": 0.0773,
                "tempo": 120.0
            },
            {
                "pitch": 69,
                "velocity": 64,
                "duration": 0.0773,
                "tempo": 120.0
            },
            {
                "pitch": 71,
                "velocity": 64,
                "duration": 0.1045,
                "tempo": 120.0
            },
            {
                "pitch": 73,
                "velocity": 64,
                "duration": 0.1045,
                "tempo": 120.0
            },
            {
                "pitch": 75,
                "velocity": 64,
                "duration": 0.1045,
                "tempo": 120.0
            },
            {
                "pitch": 76,
                "velocity": 64,
                "duration": 0.0773,
                "tempo": 120.0
            },
            {
                "pitch": 57,
                "velocity": 64,
                "duration": 0.1773,
                "tempo": 120.0
            }
        ],
        "Acoustic Bass": [
            {
                "pitch": 33,
                "velocity": 101,
                "duration": 0.1568,
                "tempo": 120.0
            },
            {
                "pitch": 33,
                "velocity": 101,
                "duration": 0.1864,
                "tempo": 120.0
            },
            {
                "pitch": 45,
                "velocity": 101,
                "duration": 0.1045,
                "tempo": 120.0
            },
            {
                "pitch": 45,
                "velocity": 101,
                "duration": 0.1864,
                "tempo": 120.0
            },
            {
                "pitch": 45,
                "velocity": 101,
                "duration": 0.0818,
                "tempo": 120.0
            },
            {
                "pitch": 36,
                "velocity": 101,
                "duration": 0.0773,
                "tempo": 120.0
            },
            {
                "pitch": 36,
                "velocity": 101,
                "duration": 0.1068,
                "tempo": 120.0
            },
            {
                "pitch": 35,
                "velocity": 101,
                "duration": 0.1045,
                "tempo": 120.0
            },
            {
                "pitch": 35,
                "velocity": 101,
                "duration": 0.0795,
                "tempo": 120.0
            },
            {
                "pitch": 34,
                "velocity": 101,
                "duration": 0.0773,
                "tempo": 120.0
            },
            {
                "pitch": 34,
                "velocity": 101,
                "duration": 0.0795,
                "tempo": 120.0
            },
            {
                "pitch": 33,
                "velocity": 101,
                "duration": 0.1795,
                "tempo": 120.0
            },
            {
                "pitch": 33,
                "velocity": 101,
                "duration": 0.1818,
                "tempo": 120.0
            },
            {
                "pitch": 45,
                "velocity": 101,
                "duration": 0.075,
                "tempo": 120.0
            },
            {
                "pitch": 45,
                "velocity": 101,
                "duration": 0.1773,
                "tempo": 120.0
            },
            {
                "pitch": 45,
                "velocity": 101,
                "duration": 0.1023,
                "tempo": 120.0
            },
            {
                "pitch": 36,
                "velocity": 101,
                "duration": 0.1045,
                "tempo": 120.0
            },
            {
                "pitch": 36,
                "velocity": 101,
                "duration": 0.0795,
                "tempo": 120.0
            },
            {
                "pitch": 35,
                "velocity": 101,
                "duration": 0.0795,
                "tempo": 120.0
            },
            {
                "pitch": 35,
                "velocity": 101,
                "duration": 0.1068,
                "tempo": 120.0
            },
            {
                "pitch": 34,
                "velocity": 101,
                "duration": 0.1045,
                "tempo": 120.0
            },
            {
                "pitch": 34,
                "velocity": 101,
                "duration": 0.1045,
                "tempo": 120.0
            },
            {
                "pitch": 33,
                "velocity": 101,
                "duration": 0.1568,
                "tempo": 120.0
            },
            {
                "pitch": 33,
                "velocity": 101,
                "duration": 0.1841,
                "tempo": 120.0
            },
            {
                "pitch": 45,
                "velocity": 101,
                "duration": 0.1045,
                "tempo": 120.0
            },
            {
                "pitch": 45,
                "velocity": 101,
                "duration": 0.1841,
                "tempo": 120.0
            },
            {
                "pitch": 45,
                "velocity": 101,
                "duration": 0.0795,
                "tempo": 120.0
            },
            {
                "pitch": 36,
                "velocity": 101,
                "duration": 0.0773,
                "tempo": 120.0
            },
            {
                "pitch": 36,
                "velocity": 101,
                "duration": 0.1068,
                "tempo": 120.0
            },
            {
                "pitch": 35,
                "velocity": 101,
                "duration": 0.1045,
                "tempo": 120.0
            },
            {
                "pitch": 35,
                "velocity": 101,
                "duration": 0.0795,
                "tempo": 120.0
            },
            {
                "pitch": 34,
                "velocity": 101,
                "duration": 0.0795,
                "tempo": 120.0
            },
            {
                "pitch": 34,
                "velocity": 101,
                "duration": 0.0795,
                "tempo": 120.0
            },
            {
                "pitch": 33,
                "velocity": 101,
                "duration": 0.1795,
                "tempo": 120.0
            },
            {
                "pitch": 33,
                "velocity": 101,
                "duration": 0.1795,
                "tempo": 120.0
            },
            {
                "pitch": 45,
                "velocity": 101,
                "duration": 0.0773,
                "tempo": 120.0
            },
            {
                "pitch": 45,
                "velocity": 101,
                "duration": 0.1795,
                "tempo": 120.0
            },
            {
                "pitch": 45,
                "velocity": 101,
                "duration": 0.1045,
                "tempo": 120.0
            },
            {
                "pitch": 36,
                "velocity": 101,
                "duration": 0.1023,
                "tempo": 120.0
            },
            {
                "pitch": 36,
                "velocity": 101,
                "duration": 0.0795,
                "tempo": 120.0
            },
            {
                "pitch": 35,
                "velocity": 101,
                "duration": 0.0773,
                "tempo": 120.0
            },
            {
                "pitch": 35,
                "velocity": 101,
                "duration": 0.0795,
                "tempo": 120.0
            },
            {
                "pitch": 34,
                "velocity": 101,
                "duration": 0.1045,
                "tempo": 120.0
            },
            {
                "pitch": 34,
                "velocity": 101,
                "duration": 0.1068,
                "tempo": 120.0
            },
            {
                "pitch": 33,
                "velocity": 101,
                "duration": 0.1591,
                "tempo": 120.0
            },
            {
                "pitch": 33,
                "velocity": 101,
                "duration": 0.1864,
                "tempo": 120.0
            },
            {
                "pitch": 45,
                "velocity": 101,
                "duration": 0.1068,
                "tempo": 120.0
            },
            {
                "pitch": 45,
                "velocity": 101,
                "duration": 0.1864,
                "tempo": 120.0
            },
            {
                "pitch": 45,
                "velocity": 101,
                "duration": 0.0795,
                "tempo": 120.0
            },
            {
                "pitch": 36,
                "velocity": 101,
                "duration": 0.0773,
                "tempo": 120.0
            },
            {
                "pitch": 36,
                "velocity": 101,
                "duration": 0.0773,
                "tempo": 120.0
            },
            {
                "pitch": 35,
                "velocity": 101,
                "duration": 0.1023,
                "tempo": 120.0
            },
            {
                "pitch": 35,
                "velocity": 101,
                "duration": 0.0773,
                "tempo": 120.0
            },
            {
                "pitch": 34,
                "velocity": 101,
                "duration": 0.0773,
                "tempo": 120.0
            },
            {
                "pitch": 34,
                "velocity": 101,
                "duration": 0.0773,
                "tempo": 120.0
            },
            {
                "pitch": 33,
                "velocity": 101,
                "duration": 0.1841,
                "tempo": 120.0
            },
            {
                "pitch": 33,
                "velocity": 101,
                "duration": 0.1841,
                "tempo": 120.0
            },
            {
                "pitch": 45,
                "velocity": 101,
                "duration": 0.0795,
                "tempo": 120.0
            },
            {
                "pitch": 45,
                "velocity": 101,
                "duration": 0.1864,
                "tempo": 120.0
            },
            {
                "pitch": 45,
                "velocity": 101,
                "duration": 0.0795,
                "tempo": 120.0
            },
            {
                "pitch": 36,
                "velocity": 101,
                "duration": 0.1023,
                "tempo": 120.0
            },
            {
                "pitch": 36,
                "velocity": 101,
                "duration": 0.0773,
                "tempo": 120.0
            },
            {
                "pitch": 35,
                "velocity": 101,
                "duration": 0.0773,
                "tempo": 120.0
            },
            {
                "pitch": 35,
                "velocity": 101,
                "duration": 0.075,
                "tempo": 120.0
            },
            {
                "pitch": 34,
                "velocity": 101,
                "duration": 0.1,
                "tempo": 120.0
            },
            {
                "pitch": 34,
                "velocity": 101,
                "duration": 0.1023,
                "tempo": 120.0
            },
            {
                "pitch": 33,
                "velocity": 101,
                "duration": 0.1841,
                "tempo": 120.0
            },
            {
                "pitch": 33,
                "velocity": 101,
                "duration": 0.1841,
                "tempo": 120.0
            },
            {
                "pitch": 45,
                "velocity": 101,
                "duration": 0.0795,
                "tempo": 120.0
            },
            {
                "pitch": 45,
                "velocity": 101,
                "duration": 0.1864,
                "tempo": 120.0
            },
            {
                "pitch": 45,
                "velocity": 101,
                "duration": 0.0795,
                "tempo": 120.0
            },
            {
                "pitch": 36,
                "velocity": 101,
                "duration": 0.0795,
                "tempo": 120.0
            },
            {
                "pitch": 36,
                "velocity": 101,
                "duration": 0.0818,
                "tempo": 120.0
            },
            {
                "pitch": 35,
                "velocity": 101,
                "duration": 0.1068,
                "tempo": 120.0
            },
            {
                "pitch": 35,
                "velocity": 101,
                "duration": 0.1068,
                "tempo": 120.0
            },
            {
                "pitch": 34,
                "velocity": 101,
                "duration": 0.0773,
                "tempo": 120.0
            },
            {
                "pitch": 34,
                "velocity": 101,
                "duration": 0.0795,
                "tempo": 120.0
            },
            {
                "pitch": 33,
                "velocity": 101,
                "duration": 0.1795,
                "tempo": 120.0
            },
            {
                "pitch": 33,
                "velocity": 101,
                "duration": 0.1795,
                "tempo": 120.0
            },
            {
                "pitch": 45,
                "velocity": 101,
                "duration": 0.0773,
                "tempo": 120.0
            },
            {
                "pitch": 45,
                "velocity": 101,
                "duration": 0.1795,
                "tempo": 120.0
            },
            {
                "pitch": 45,
                "velocity": 101,
                "duration": 0.0773,
                "tempo": 120.0
            },
            {
                "pitch": 36,
                "velocity": 101,
                "duration": 0.1045,
                "tempo": 120.0
            },
            {
                "pitch": 36,
                "velocity": 101,
                "duration": 0.1045,
                "tempo": 120.0
            },
            {
                "pitch": 35,
                "velocity": 101,
                "duration": 0.0795,
                "tempo": 120.0
            },
            {
                "pitch": 35,
                "velocity": 101,
                "duration": 0.0773,
                "tempo": 120.0
            },
            {
                "pitch": 34,
                "velocity": 101,
                "duration": 0.1045,
                "tempo": 120.0
            },
            {
                "pitch": 34,
                "velocity": 101,
                "duration": 0.1068,
                "tempo": 120.0
            },
            {
                "pitch": 33,
                "velocity": 101,
                "duration": 0.1773,
                "tempo": 120.0
            },
            {
                "pitch": 33,
                "velocity": 101,
                "duration": 0.1795,
                "tempo": 120.0
            },
            {
                "pitch": 45,
                "velocity": 101,
                "duration": 0.0773,
                "tempo": 120.0
            },
            {
                "pitch": 45,
                "velocity": 101,
                "duration": 0.1795,
                "tempo": 120.0
            },
            {
                "pitch": 45,
                "velocity": 101,
                "duration": 0.1023,
                "tempo": 120.0
            },
            {
                "pitch": 36,
                "velocity": 101,
                "duration": 0.0795,
                "tempo": 120.0
            },
            {
                "pitch": 36,
                "velocity": 101,
                "duration": 0.0818,
                "tempo": 120.0
            },
            {
                "pitch": 35,
                "velocity": 101,
                "duration": 0.1068,
                "tempo": 120.0
            },
            {
                "pitch": 35,
                "velocity": 101,
                "duration": 0.1068,
                "tempo": 120.0
            },
            {
                "pitch": 34,
                "velocity": 101,
                "duration": 0.0795,
                "tempo": 120.0
            },
            {
                "pitch": 34,
                "velocity": 101,
                "duration": 0.0795,
                "tempo": 120.0
            },
            {
                "pitch": 33,
                "velocity": 101,
                "duration": 0.1841,
                "tempo": 120.0
            },
            {
                "pitch": 33,
                "velocity": 101,
                "duration": 0.1864,
                "tempo": 120.0
            },
            {
                "pitch": 45,
                "velocity": 101,
                "duration": 0.1045,
                "tempo": 120.0
            },
            {
                "pitch": 45,
                "velocity": 101,
                "duration": 0.1568,
                "tempo": 120.0
            },
            {
                "pitch": 45,
                "velocity": 101,
                "duration": 0.0795,
                "tempo": 120.0
            },
            {
                "pitch": 36,
                "velocity": 101,
                "duration": 0.1023,
                "tempo": 120.0
            },
            {
                "pitch": 36,
                "velocity": 101,
                "duration": 0.1045,
                "tempo": 120.0
            },
            {
                "pitch": 35,
                "velocity": 101,
                "duration": 0.0773,
                "tempo": 120.0
            },
            {
                "pitch": 35,
                "velocity": 101,
                "duration": 0.0773,
                "tempo": 120.0
            },
            {
                "pitch": 34,
                "velocity": 101,
                "duration": 0.075,
                "tempo": 120.0
            },
            {
                "pitch": 34,
                "velocity": 101,
                "duration": 0.1045,
                "tempo": 120.0
            },
            {
                "pitch": 33,
                "velocity": 101,
                "duration": 0.1795,
                "tempo": 120.0
            },
            {
                "pitch": 33,
                "velocity": 101,
                "duration": 0.1818,
                "tempo": 120.0
            },
            {
                "pitch": 45,
                "velocity": 101,
                "duration": 0.0773,
                "tempo": 120.0
            },
            {
                "pitch": 45,
                "velocity": 101,
                "duration": 0.1795,
                "tempo": 120.0
            },
            {
                "pitch": 45,
                "velocity": 101,
                "duration": 0.0909,
                "tempo": 120.0
            },
            {
                "pitch": 36,
                "velocity": 101,
                "duration": 0.0682,
                "tempo": 120.0
            },
            {
                "pitch": 36,
                "velocity": 101,
                "duration": 0.0682,
                "tempo": 120.0
            },
            {
                "pitch": 35,
                "velocity": 101,
                "duration": 0.0682,
                "tempo": 120.0
            },
            {
                "pitch": 35,
                "velocity": 101,
                "duration": 0.0932,
                "tempo": 120.0
            },
            {
                "pitch": 34,
                "velocity": 101,
                "duration": 0.0909,
                "tempo": 120.0
            },
            {
                "pitch": 34,
                "velocity": 101,
                "duration": 0.0682,
                "tempo": 120.0
            },
            {
                "pitch": 33,
                "velocity": 101,
                "duration": 0.1614,
                "tempo": 120.0
            },
            {
                "pitch": 33,
                "velocity": 101,
                "duration": 0.1614,
                "tempo": 120.0
            },
            {
                "pitch": 45,
                "velocity": 101,
                "duration": 0.0932,
                "tempo": 120.0
            },
            {
                "pitch": 45,
                "velocity": 101,
                "duration": 0.1409,
                "tempo": 120.0
            },
            {
                "pitch": 45,
                "velocity": 101,
                "duration": 0.0682,
                "tempo": 120.0
            },
            {
                "pitch": 36,
                "velocity": 101,
                "duration": 0.0682,
                "tempo": 120.0
            },
            {
                "pitch": 36,
                "velocity": 101,
                "duration": 0.0932,
                "tempo": 120.0
            },
            {
                "pitch": 35,
                "velocity": 101,
                "duration": 0.0932,
                "tempo": 120.0
            },
            {
                "pitch": 35,
                "velocity": 101,
                "duration": 0.0682,
                "tempo": 120.0
            },
            {
                "pitch": 34,
                "velocity": 101,
                "duration": 0.0659,
                "tempo": 120.0
            },
            {
                "pitch": 34,
                "velocity": 101,
                "duration": 0.0909,
                "tempo": 120.0
            },
            {
                "pitch": 28,
                "velocity": 101,
                "duration": 0.0886,
                "tempo": 120.0
            },
            {
                "pitch": 40,
                "velocity": 101,
                "duration": 0.0909,
                "tempo": 120.0
            },
            {
                "pitch": 28,
                "velocity": 101,
                "duration": 0.0682,
                "tempo": 120.0
            },
            {
                "pitch": 40,
                "velocity": 101,
                "duration": 0.0682,
                "tempo": 120.0
            },
            {
                "pitch": 31,
                "velocity": 101,
                "duration": 0.0773,
                "tempo": 120.0
            },
            {
                "pitch": 43,
                "velocity": 101,
                "duration": 0.0773,
                "tempo": 120.0
            },
            {
                "pitch": 31,
                "velocity": 101,
                "duration": 0.1023,
                "tempo": 120.0
            },
            {
                "pitch": 43,
                "velocity": 101,
                "duration": 0.1023,
                "tempo": 120.0
            },
            {
                "pitch": 34,
                "velocity": 101,
                "duration": 0.0795,
                "tempo": 120.0
            },
            {
                "pitch": 46,
                "velocity": 101,
                "duration": 0.0773,
                "tempo": 120.0
            },
            {
                "pitch": 34,
                "velocity": 101,
                "duration": 0.0773,
                "tempo": 120.0
            },
            {
                "pitch": 46,
                "velocity": 101,
                "duration": 0.1045,
                "tempo": 120.0
            },
            {
                "pitch": 37,
                "velocity": 101,
                "duration": 0.1045,
                "tempo": 120.0
            },
            {
                "pitch": 49,
                "velocity": 101,
                "duration": 0.075,
                "tempo": 120.0
            },
            {
                "pitch": 37,
                "velocity": 101,
                "duration": 0.075,
                "tempo": 120.0
            },
            {
                "pitch": 49,
                "velocity": 101,
                "duration": 0.075,
                "tempo": 120.0
            },
            {
                "pitch": 36,
                "velocity": 101,
                "duration": 0.1841,
                "tempo": 120.0
            },
            {
                "pitch": 36,
                "velocity": 101,
                "duration": 0.1591,
                "tempo": 120.0
            },
            {
                "pitch": 36,
                "velocity": 101,
                "duration": 0.1818,
                "tempo": 120.0
            },
            {
                "pitch": 36,
                "velocity": 101,
                "duration": 0.1841,
                "tempo": 120.0
            },
            {
                "pitch": 36,
                "velocity": 101,
                "duration": 0.1841,
                "tempo": 120.0
            },
            {
                "pitch": 36,
                "velocity": 101,
                "duration": 0.1841,
                "tempo": 120.0
            },
            {
                "pitch": 36,
                "velocity": 101,
                "duration": 0.1795,
                "tempo": 120.0
            },
            {
                "pitch": 36,
                "velocity": 101,
                "duration": 0.1795,
                "tempo": 120.0
            },
            {
                "pitch": 36,
                "velocity": 101,
                "duration": 0.1795,
                "tempo": 120.0
            },
            {
                "pitch": 36,
                "velocity": 101,
                "duration": 0.1818,
                "tempo": 120.0
            },
            {
                "pitch": 36,
                "velocity": 101,
                "duration": 0.1864,
                "tempo": 120.0
            },
            {
                "pitch": 36,
                "velocity": 101,
                "duration": 0.1591,
                "tempo": 120.0
            },
            {
                "pitch": 36,
                "velocity": 101,
                "duration": 0.1841,
                "tempo": 120.0
            },
            {
                "pitch": 36,
                "velocity": 101,
                "duration": 0.1841,
                "tempo": 120.0
            },
            {
                "pitch": 36,
                "velocity": 101,
                "duration": 0.1614,
                "tempo": 120.0
            },
            {
                "pitch": 36,
                "velocity": 101,
                "duration": 0.1864,
                "tempo": 120.0
            },
            {
                "pitch": 36,
                "velocity": 101,
                "duration": 0.1841,
                "tempo": 120.0
            },
            {
                "pitch": 36,
                "velocity": 101,
                "duration": 0.1864,
                "tempo": 120.0
            },
            {
                "pitch": 36,
                "velocity": 101,
                "duration": 0.1818,
                "tempo": 120.0
            },
            {
                "pitch": 36,
                "velocity": 101,
                "duration": 0.1818,
                "tempo": 120.0
            },
            {
                "pitch": 36,
                "velocity": 101,
                "duration": 0.1795,
                "tempo": 120.0
            },
            {
                "pitch": 36,
                "velocity": 101,
                "duration": 0.1795,
                "tempo": 120.0
            },
            {
                "pitch": 36,
                "velocity": 101,
                "duration": 0.1841,
                "tempo": 120.0
            },
            {
                "pitch": 36,
                "velocity": 101,
                "duration": 0.1841,
                "tempo": 120.0
            },
            {
                "pitch": 36,
                "velocity": 101,
                "duration": 0.1568,
                "tempo": 120.0
            },
            {
                "pitch": 36,
                "velocity": 101,
                "duration": 0.1841,
                "tempo": 120.0
            },
            {
                "pitch": 36,
                "velocity": 101,
                "duration": 0.1795,
                "tempo": 120.0
            },
            {
                "pitch": 36,
                "velocity": 101,
                "duration": 0.1545,
                "tempo": 120.0
            },
            {
                "pitch": 36,
                "velocity": 101,
                "duration": 0.1795,
                "tempo": 120.0
            },
            {
                "pitch": 36,
                "velocity": 101,
                "duration": 0.1795,
                "tempo": 120.0
            },
            {
                "pitch": 36,
                "velocity": 101,
                "duration": 0.1841,
                "tempo": 120.0
            },
            {
                "pitch": 36,
                "velocity": 101,
                "duration": 0.1841,
                "tempo": 120.0
            },
            {
                "pitch": 36,
                "velocity": 101,
                "duration": 0.1841,
                "tempo": 120.0
            },
            {
                "pitch": 36,
                "velocity": 101,
                "duration": 0.1841,
                "tempo": 120.0
            },
            {
                "pitch": 36,
                "velocity": 101,
                "duration": 0.1864,
                "tempo": 120.0
            },
            {
                "pitch": 36,
                "velocity": 101,
                "duration": 0.1864,
                "tempo": 120.0
            },
            {
                "pitch": 36,
                "velocity": 101,
                "duration": 0.1886,
                "tempo": 120.0
            },
            {
                "pitch": 36,
                "velocity": 101,
                "duration": 0.1591,
                "tempo": 120.0
            },
            {
                "pitch": 36,
                "velocity": 101,
                "duration": 0.1795,
                "tempo": 120.0
            },
            {
                "pitch": 36,
                "velocity": 101,
                "duration": 0.1795,
                "tempo": 120.0
            },
            {
                "pitch": 36,
                "velocity": 101,
                "duration": 0.1523,
                "tempo": 120.0
            },
            {
                "pitch": 36,
                "velocity": 101,
                "duration": 0.1795,
                "tempo": 120.0
            },
            {
                "pitch": 36,
                "velocity": 101,
                "duration": 0.1841,
                "tempo": 120.0
            },
            {
                "pitch": 36,
                "velocity": 101,
                "duration": 0.1841,
                "tempo": 120.0
            },
            {
                "pitch": 36,
                "velocity": 101,
                "duration": 0.1818,
                "tempo": 120.0
            },
            {
                "pitch": 36,
                "velocity": 101,
                "duration": 0.1864,
                "tempo": 120.0
            },
            {
                "pitch": 36,
                "velocity": 101,
                "duration": 0.1818,
                "tempo": 120.0
            },
            {
                "pitch": 36,
                "velocity": 101,
                "duration": 0.1818,
                "tempo": 120.0
            },
            {
                "pitch": 39,
                "velocity": 101,
                "duration": 0.1773,
                "tempo": 120.0
            },
            {
                "pitch": 39,
                "velocity": 101,
                "duration": 0.1795,
                "tempo": 120.0
            },
            {
                "pitch": 39,
                "velocity": 101,
                "duration": 0.1864,
                "tempo": 120.0
            },
            {
                "pitch": 39,
                "velocity": 101,
                "duration": 0.1864,
                "tempo": 120.0
            },
            {
                "pitch": 39,
                "velocity": 101,
                "duration": 0.1864,
                "tempo": 120.0
            },
            {
                "pitch": 39,
                "velocity": 101,
                "duration": 0.1614,
                "tempo": 120.0
            },
            {
                "pitch": 39,
                "velocity": 101,
                "duration": 0.1795,
                "tempo": 120.0
            },
            {
                "pitch": 39,
                "velocity": 101,
                "duration": 0.1795,
                "tempo": 120.0
            },
            {
                "pitch": 30,
                "velocity": 101,
                "duration": 0.1795,
                "tempo": 120.0
            },
            {
                "pitch": 30,
                "velocity": 101,
                "duration": 0.1795,
                "tempo": 120.0
            },
            {
                "pitch": 30,
                "velocity": 101,
                "duration": 0.1841,
                "tempo": 120.0
            },
            {
                "pitch": 30,
                "velocity": 101,
                "duration": 0.1841,
                "tempo": 120.0
            },
            {
                "pitch": 30,
                "velocity": 101,
                "duration": 0.1818,
                "tempo": 120.0
            },
            {
                "pitch": 30,
                "velocity": 101,
                "duration": 0.1864,
                "tempo": 120.0
            },
            {
                "pitch": 30,
                "velocity": 101,
                "duration": 0.1795,
                "tempo": 120.0
            },
            {
                "pitch": 30,
                "velocity": 101,
                "duration": 0.1818,
                "tempo": 120.0
            },
            {
                "pitch": 33,
                "velocity": 101,
                "duration": 0.1795,
                "tempo": 120.0
            },
            {
                "pitch": 33,
                "velocity": 101,
                "duration": 0.1795,
                "tempo": 120.0
            },
            {
                "pitch": 33,
                "velocity": 101,
                "duration": 0.1591,
                "tempo": 120.0
            },
            {
                "pitch": 33,
                "velocity": 101,
                "duration": 0.1864,
                "tempo": 120.0
            },
            {
                "pitch": 33,
                "velocity": 101,
                "duration": 0.1864,
                "tempo": 120.0
            },
            {
                "pitch": 33,
                "velocity": 101,
                "duration": 0.1614,
                "tempo": 120.0
            },
            {
                "pitch": 33,
                "velocity": 101,
                "duration": 0.1841,
                "tempo": 120.0
            },
            {
                "pitch": 33,
                "velocity": 101,
                "duration": 0.1864,
                "tempo": 120.0
            },
            {
                "pitch": 36,
                "velocity": 101,
                "duration": 0.1818,
                "tempo": 120.0
            },
            {
                "pitch": 36,
                "velocity": 101,
                "duration": 0.1841,
                "tempo": 120.0
            },
            {
                "pitch": 36,
                "velocity": 101,
                "duration": 0.1818,
                "tempo": 120.0
            },
            {
                "pitch": 36,
                "velocity": 101,
                "duration": 0.1795,
                "tempo": 120.0
            },
            {
                "pitch": 36,
                "velocity": 101,
                "duration": 0.1795,
                "tempo": 120.0
            },
            {
                "pitch": 36,
                "velocity": 101,
                "duration": 0.1818,
                "tempo": 120.0
            },
            {
                "pitch": 36,
                "velocity": 101,
                "duration": 0.1818,
                "tempo": 120.0
            },
            {
                "pitch": 36,
                "velocity": 101,
                "duration": 0.1591,
                "tempo": 120.0
            },
            {
                "pitch": 38,
                "velocity": 101,
                "duration": 0.1841,
                "tempo": 120.0
            },
            {
                "pitch": 38,
                "velocity": 101,
                "duration": 0.1841,
                "tempo": 120.0
            },
            {
                "pitch": 50,
                "velocity": 101,
                "duration": 0.0795,
                "tempo": 120.0
            },
            {
                "pitch": 48,
                "velocity": 101,
                "duration": 0.1864,
                "tempo": 120.0
            },
            {
                "pitch": 50,
                "velocity": 101,
                "duration": 0.0795,
                "tempo": 120.0
            },
            {
                "pitch": 38,
                "velocity": 101,
                "duration": 0.1864,
                "tempo": 120.0
            },
            {
                "pitch": 38,
                "velocity": 101,
                "duration": 0.1886,
                "tempo": 120.0
            },
            {
                "pitch": 50,
                "velocity": 101,
                "duration": 0.0773,
                "tempo": 120.0
            },
            {
                "pitch": 43,
                "velocity": 101,
                "duration": 0.0773,
                "tempo": 120.0
            },
            {
                "pitch": 45,
                "velocity": 101,
                "duration": 0.0773,
                "tempo": 120.0
            },
            {
                "pitch": 48,
                "velocity": 101,
                "duration": 0.1023,
                "tempo": 120.0
            },
            {
                "pitch": 38,
                "velocity": 101,
                "duration": 0.2318,
                "tempo": 120.0
            },
            {
                "pitch": 38,
                "velocity": 101,
                "duration": 0.2068,
                "tempo": 120.0
            },
            {
                "pitch": 50,
                "velocity": 101,
                "duration": 0.0773,
                "tempo": 120.0
            },
            {
                "pitch": 48,
                "velocity": 101,
                "duration": 0.1841,
                "tempo": 120.0
            },
            {
                "pitch": 50,
                "velocity": 101,
                "duration": 0.1068,
                "tempo": 120.0
            },
            {
                "pitch": 38,
                "velocity": 101,
                "duration": 0.1591,
                "tempo": 120.0
            },
            {
                "pitch": 38,
                "velocity": 101,
                "duration": 0.1841,
                "tempo": 120.0
            },
            {
                "pitch": 50,
                "velocity": 101,
                "duration": 0.1045,
                "tempo": 120.0
            },
            {
                "pitch": 43,
                "velocity": 101,
                "duration": 0.1023,
                "tempo": 120.0
            },
            {
                "pitch": 45,
                "velocity": 101,
                "duration": 0.0773,
                "tempo": 120.0
            },
            {
                "pitch": 48,
                "velocity": 101,
                "duration": 0.0773,
                "tempo": 120.0
            },
            {
                "pitch": 38,
                "velocity": 101,
                "duration": 0.2068,
                "tempo": 120.0
            },
            {
                "pitch": 38,
                "velocity": 101,
                "duration": 0.2318,
                "tempo": 120.0
            },
            {
                "pitch": 50,
                "velocity": 101,
                "duration": 0.1045,
                "tempo": 120.0
            },
            {
                "pitch": 48,
                "velocity": 101,
                "duration": 0.1568,
                "tempo": 120.0
            },
            {
                "pitch": 50,
                "velocity": 101,
                "duration": 0.0795,
                "tempo": 120.0
            },
            {
                "pitch": 38,
                "velocity": 101,
                "duration": 0.1841,
                "tempo": 120.0
            },
            {
                "pitch": 38,
                "velocity": 101,
                "duration": 0.1841,
                "tempo": 120.0
            },
            {
                "pitch": 50,
                "velocity": 101,
                "duration": 0.0773,
                "tempo": 120.0
            },
            {
                "pitch": 43,
                "velocity": 101,
                "duration": 0.0795,
                "tempo": 120.0
            },
            {
                "pitch": 45,
                "velocity": 101,
                "duration": 0.0795,
                "tempo": 120.0
            },
            {
                "pitch": 48,
                "velocity": 101,
                "duration": 0.1068,
                "tempo": 120.0
            },
            {
                "pitch": 38,
                "velocity": 101,
                "duration": 0.2364,
                "tempo": 120.0
            },
            {
                "pitch": 38,
                "velocity": 101,
                "duration": 0.2114,
                "tempo": 120.0
            },
            {
                "pitch": 50,
                "velocity": 101,
                "duration": 0.0795,
                "tempo": 120.0
            },
            {
                "pitch": 48,
                "velocity": 101,
                "duration": 0.1864,
                "tempo": 120.0
            },
            {
                "pitch": 50,
                "velocity": 101,
                "duration": 0.1045,
                "tempo": 120.0
            },
            {
                "pitch": 38,
                "velocity": 101,
                "duration": 0.1568,
                "tempo": 120.0
            },
            {
                "pitch": 38,
                "velocity": 101,
                "duration": 0.1864,
                "tempo": 120.0
            },
            {
                "pitch": 50,
                "velocity": 101,
                "duration": 0.1023,
                "tempo": 120.0
            },
            {
                "pitch": 43,
                "velocity": 101,
                "duration": 0.1023,
                "tempo": 120.0
            },
            {
                "pitch": 45,
                "velocity": 101,
                "duration": 0.1045,
                "tempo": 120.0
            },
            {
                "pitch": 48,
                "velocity": 101,
                "duration": 0.0773,
                "tempo": 120.0
            },
            {
                "pitch": 40,
                "velocity": 101,
                "duration": 0.2068,
                "tempo": 120.0
            },
            {
                "pitch": 40,
                "velocity": 101,
                "duration": 0.1795,
                "tempo": 120.0
            },
            {
                "pitch": 40,
                "velocity": 101,
                "duration": 0.1841,
                "tempo": 120.0
            },
            {
                "pitch": 40,
                "velocity": 101,
                "duration": 0.2091,
                "tempo": 120.0
            },
            {
                "pitch": 40,
                "velocity": 101,
                "duration": 0.1841,
                "tempo": 120.0
            },
            {
                "pitch": 40,
                "velocity": 101,
                "duration": 0.1818,
                "tempo": 120.0
            },
            {
                "pitch": 40,
                "velocity": 101,
                "duration": 0.1841,
                "tempo": 120.0
            },
            {
                "pitch": 40,
                "velocity": 101,
                "duration": 0.1841,
                "tempo": 120.0
            },
            {
                "pitch": 40,
                "velocity": 101,
                "duration": 0.1864,
                "tempo": 120.0
            },
            {
                "pitch": 40,
                "velocity": 101,
                "duration": 0.1591,
                "tempo": 120.0
            },
            {
                "pitch": 40,
                "velocity": 101,
                "duration": 0.1795,
                "tempo": 120.0
            },
            {
                "pitch": 40,
                "velocity": 101,
                "duration": 0.1795,
                "tempo": 120.0
            },
            {
                "pitch": 33,
                "velocity": 101,
                "duration": 0.1818,
                "tempo": 120.0
            }
        ],
        "Electric Piano 1": [
            {
                "pitch": 23,
                "velocity": 101,
                "duration": 0.0409,
                "tempo": 120.0
            },
            {
                "pitch": 23,
                "velocity": 101,
                "duration": 0.1205,
                "tempo": 120.0
            },
            {
                "pitch": 23,
                "velocity": 101,
                "duration": 0.0523,
                "tempo": 120.0
            },
            {
                "pitch": 36,
                "velocity": 127,
                "duration": 0.0205,
                "tempo": 120.0
            },
            {
                "pitch": 33,
                "velocity": 127,
                "duration": 0.0523,
                "tempo": 120.0
            },
            {
                "pitch": 31,
                "velocity": 127,
                "duration": 0.0273,
                "tempo": 120.0
            },
            {
                "pitch": 36,
                "velocity": 127,
                "duration": 0.0273,
                "tempo": 120.0
            },
            {
                "pitch": 33,
                "velocity": 127,
                "duration": 0.0523,
                "tempo": 120.0
            },
            {
                "pitch": 36,
                "velocity": 127,
                "duration": 0.025,
                "tempo": 120.0
            },
            {
                "pitch": 36,
                "velocity": 127,
                "duration": 0.0273,
                "tempo": 120.0
            },
            {
                "pitch": 33,
                "velocity": 127,
                "duration": 0.0273,
                "tempo": 120.0
            },
            {
                "pitch": 32,
                "velocity": 127,
                "duration": 0.025,
                "tempo": 120.0
            },
            {
                "pitch": 32,
                "velocity": 127,
                "duration": 0.025,
                "tempo": 120.0
            },
            {
                "pitch": 30,
                "velocity": 127,
                "duration": 0.0545,
                "tempo": 120.0
            },
            {
                "pitch": 32,
                "velocity": 127,
                "duration": 0.0273,
                "tempo": 120.0
            },
            {
                "pitch": 42,
                "velocity": 127,
                "duration": 0.1341,
                "tempo": 120.0
            },
            {
                "pitch": 30,
                "velocity": 127,
                "duration": 0.0523,
                "tempo": 120.0
            },
            {
                "pitch": 27,
                "velocity": 127,
                "duration": 0.0273,
                "tempo": 120.0
            },
            {
                "pitch": 28,
                "velocity": 127,
                "duration": 0.0273,
                "tempo": 120.0
            },
            {
                "pitch": 26,
                "velocity": 127,
                "duration": 0.0523,
                "tempo": 120.0
            },
            {
                "pitch": 23,
                "velocity": 127,
                "duration": 0.0273,
                "tempo": 120.0
            },
            {
                "pitch": 28,
                "velocity": 127,
                "duration": 0.025,
                "tempo": 120.0
            },
            {
                "pitch": 26,
                "velocity": 127,
                "duration": 0.0523,
                "tempo": 120.0
            },
            {
                "pitch": 23,
                "velocity": 127,
                "duration": 0.0295,
                "tempo": 120.0
            },
            {
                "pitch": 23,
                "velocity": 101,
                "duration": 0.1045,
                "tempo": 120.0
            },
            {
                "pitch": 23,
                "velocity": 101,
                "duration": 0.2386,
                "tempo": 120.0
            },
            {
                "pitch": 23,
                "velocity": 101,
                "duration": 0.0795,
                "tempo": 120.0
            },
            {
                "pitch": 36,
                "velocity": 127,
                "duration": 0.0205,
                "tempo": 120.0
            },
            {
                "pitch": 33,
                "velocity": 127,
                "duration": 0.0545,
                "tempo": 120.0
            },
            {
                "pitch": 36,
                "velocity": 127,
                "duration": 0.025,
                "tempo": 120.0
            },
            {
                "pitch": 33,
                "velocity": 127,
                "duration": 0.0545,
                "tempo": 120.0
            },
            {
                "pitch": 31,
                "velocity": 127,
                "duration": 0.0273,
                "tempo": 120.0
            },
            {
                "pitch": 32,
                "velocity": 127,
                "duration": 0.0227,
                "tempo": 120.0
            },
            {
                "pitch": 42,
                "velocity": 127,
                "duration": 1.9182,
                "tempo": 120.0
            },
            {
                "pitch": 30,
                "velocity": 127,
                "duration": 0.0523,
                "tempo": 120.0
            },
            {
                "pitch": 27,
                "velocity": 127,
                "duration": 0.0273,
                "tempo": 120.0
            },
            {
                "pitch": 32,
                "velocity": 127,
                "duration": 0.025,
                "tempo": 120.0
            },
            {
                "pitch": 42,
                "velocity": 127,
                "duration": 0.2909,
                "tempo": 120.0
            },
            {
                "pitch": 30,
                "velocity": 127,
                "duration": 0.0545,
                "tempo": 120.0
            },
            {
                "pitch": 28,
                "velocity": 127,
                "duration": 0.0227,
                "tempo": 120.0
            },
            {
                "pitch": 26,
                "velocity": 127,
                "duration": 0.0545,
                "tempo": 120.0
            },
            {
                "pitch": 23,
                "velocity": 101,
                "duration": 0.075,
                "tempo": 120.0
            },
            {
                "pitch": 23,
                "velocity": 101,
                "duration": 0.2045,
                "tempo": 120.0
            },
            {
                "pitch": 23,
                "velocity": 101,
                "duration": 0.1045,
                "tempo": 120.0
            },
            {
                "pitch": 36,
                "velocity": 127,
                "duration": 0.0205,
                "tempo": 120.0
            },
            {
                "pitch": 33,
                "velocity": 127,
                "duration": 0.0523,
                "tempo": 120.0
            },
            {
                "pitch": 31,
                "velocity": 127,
                "duration": 0.0273,
                "tempo": 120.0
            },
            {
                "pitch": 36,
                "velocity": 127,
                "duration": 0.025,
                "tempo": 120.0
            },
            {
                "pitch": 33,
                "velocity": 127,
                "duration": 0.0545,
                "tempo": 120.0
            },
            {
                "pitch": 32,
                "velocity": 127,
                "duration": 0.0227,
                "tempo": 120.0
            },
            {
                "pitch": 42,
                "velocity": 127,
                "duration": 1.8795,
                "tempo": 120.0
            },
            {
                "pitch": 30,
                "velocity": 127,
                "duration": 0.0545,
                "tempo": 120.0
            },
            {
                "pitch": 32,
                "velocity": 127,
                "duration": 0.025,
                "tempo": 120.0
            },
            {
                "pitch": 42,
                "velocity": 127,
                "duration": 0.2659,
                "tempo": 120.0
            },
            {
                "pitch": 30,
                "velocity": 127,
                "duration": 0.0523,
                "tempo": 120.0
            },
            {
                "pitch": 27,
                "velocity": 127,
                "duration": 0.0273,
                "tempo": 120.0
            },
            {
                "pitch": 28,
                "velocity": 127,
                "duration": 0.0227,
                "tempo": 120.0
            },
            {
                "pitch": 26,
                "velocity": 127,
                "duration": 0.0523,
                "tempo": 120.0
            },
            {
                "pitch": 23,
                "velocity": 127,
                "duration": 0.0273,
                "tempo": 120.0
            },
            {
                "pitch": 23,
                "velocity": 101,
                "duration": 0.1045,
                "tempo": 120.0
            },
            {
                "pitch": 23,
                "velocity": 101,
                "duration": 0.2364,
                "tempo": 120.0
            },
            {
                "pitch": 23,
                "velocity": 101,
                "duration": 0.0773,
                "tempo": 120.0
            },
            {
                "pitch": 36,
                "velocity": 127,
                "duration": 0.0205,
                "tempo": 120.0
            },
            {
                "pitch": 33,
                "velocity": 127,
                "duration": 0.0523,
                "tempo": 120.0
            },
            {
                "pitch": 36,
                "velocity": 127,
                "duration": 0.025,
                "tempo": 120.0
            },
            {
                "pitch": 33,
                "velocity": 127,
                "duration": 0.0523,
                "tempo": 120.0
            },
            {
                "pitch": 31,
                "velocity": 127,
                "duration": 0.0295,
                "tempo": 120.0
            },
            {
                "pitch": 32,
                "velocity": 127,
                "duration": 0.0227,
                "tempo": 120.0
            },
            {
                "pitch": 42,
                "velocity": 127,
                "duration": 1.9045,
                "tempo": 120.0
            },
            {
                "pitch": 30,
                "velocity": 127,
                "duration": 0.0545,
                "tempo": 120.0
            },
            {
                "pitch": 27,
                "velocity": 127,
                "duration": 0.025,
                "tempo": 120.0
            },
            {
                "pitch": 32,
                "velocity": 127,
                "duration": 0.025,
                "tempo": 120.0
            },
            {
                "pitch": 42,
                "velocity": 127,
                "duration": 0.2909,
                "tempo": 120.0
            },
            {
                "pitch": 30,
                "velocity": 127,
                "duration": 0.0545,
                "tempo": 120.0
            },
            {
                "pitch": 28,
                "velocity": 127,
                "duration": 0.025,
                "tempo": 120.0
            },
            {
                "pitch": 26,
                "velocity": 127,
                "duration": 0.0523,
                "tempo": 120.0
            },
            {
                "pitch": 23,
                "velocity": 101,
                "duration": 0.075,
                "tempo": 120.0
            },
            {
                "pitch": 23,
                "velocity": 101,
                "duration": 0.2045,
                "tempo": 120.0
            },
            {
                "pitch": 23,
                "velocity": 101,
                "duration": 0.1023,
                "tempo": 120.0
            },
            {
                "pitch": 36,
                "velocity": 127,
                "duration": 0.0205,
                "tempo": 120.0
            },
            {
                "pitch": 33,
                "velocity": 127,
                "duration": 0.0523,
                "tempo": 120.0
            },
            {
                "pitch": 31,
                "velocity": 127,
                "duration": 0.0273,
                "tempo": 120.0
            },
            {
                "pitch": 36,
                "velocity": 127,
                "duration": 0.025,
                "tempo": 120.0
            },
            {
                "pitch": 33,
                "velocity": 127,
                "duration": 0.0523,
                "tempo": 120.0
            },
            {
                "pitch": 31,
                "velocity": 127,
                "duration": 0.0273,
                "tempo": 120.0
            },
            {
                "pitch": 36,
                "velocity": 127,
                "duration": 0.025,
                "tempo": 120.0
            },
            {
                "pitch": 36,
                "velocity": 127,
                "duration": 0.025,
                "tempo": 120.0
            },
            {
                "pitch": 33,
                "velocity": 127,
                "duration": 0.0295,
                "tempo": 120.0
            },
            {
                "pitch": 32,
                "velocity": 127,
                "duration": 0.0273,
                "tempo": 120.0
            },
            {
                "pitch": 42,
                "velocity": 127,
                "duration": 1.9091,
                "tempo": 120.0
            },
            {
                "pitch": 30,
                "velocity": 127,
                "duration": 0.025,
                "tempo": 120.0
            },
            {
                "pitch": 32,
                "velocity": 127,
                "duration": 0.025,
                "tempo": 120.0
            },
            {
                "pitch": 42,
                "velocity": 127,
                "duration": 0.1045,
                "tempo": 120.0
            },
            {
                "pitch": 30,
                "velocity": 127,
                "duration": 0.0545,
                "tempo": 120.0
            },
            {
                "pitch": 32,
                "velocity": 127,
                "duration": 0.025,
                "tempo": 120.0
            },
            {
                "pitch": 42,
                "velocity": 127,
                "duration": 0.1318,
                "tempo": 120.0
            },
            {
                "pitch": 30,
                "velocity": 127,
                "duration": 0.0545,
                "tempo": 120.0
            },
            {
                "pitch": 28,
                "velocity": 127,
                "duration": 0.025,
                "tempo": 120.0
            },
            {
                "pitch": 26,
                "velocity": 127,
                "duration": 0.0523,
                "tempo": 120.0
            },
            {
                "pitch": 23,
                "velocity": 127,
                "duration": 0.0273,
                "tempo": 120.0
            },
            {
                "pitch": 28,
                "velocity": 127,
                "duration": 0.025,
                "tempo": 120.0
            },
            {
                "pitch": 26,
                "velocity": 127,
                "duration": 0.0523,
                "tempo": 120.0
            },
            {
                "pitch": 23,
                "velocity": 127,
                "duration": 0.0273,
                "tempo": 120.0
            },
            {
                "pitch": 23,
                "velocity": 101,
                "duration": 0.1045,
                "tempo": 120.0
            },
            {
                "pitch": 23,
                "velocity": 101,
                "duration": 0.2386,
                "tempo": 120.0
            },
            {
                "pitch": 23,
                "velocity": 101,
                "duration": 0.0795,
                "tempo": 120.0
            },
            {
                "pitch": 36,
                "velocity": 127,
                "duration": 0.0227,
                "tempo": 120.0
            },
            {
                "pitch": 33,
                "velocity": 127,
                "duration": 0.05,
                "tempo": 120.0
            },
            {
                "pitch": 36,
                "velocity": 127,
                "duration": 0.025,
                "tempo": 120.0
            },
            {
                "pitch": 33,
                "velocity": 127,
                "duration": 0.0523,
                "tempo": 120.0
            },
            {
                "pitch": 32,
                "velocity": 127,
                "duration": 0.0227,
                "tempo": 120.0
            },
            {
                "pitch": 42,
                "velocity": 127,
                "duration": 1.9091,
                "tempo": 120.0
            },
            {
                "pitch": 30,
                "velocity": 127,
                "duration": 0.0523,
                "tempo": 120.0
            },
            {
                "pitch": 27,
                "velocity": 127,
                "duration": 0.0273,
                "tempo": 120.0
            },
            {
                "pitch": 32,
                "velocity": 127,
                "duration": 0.025,
                "tempo": 120.0
            },
            {
                "pitch": 42,
                "velocity": 127,
                "duration": 0.2864,
                "tempo": 120.0
            },
            {
                "pitch": 42,
                "velocity": 127,
                "duration": 0.0023,
                "tempo": 120.0
            },
            {
                "pitch": 30,
                "velocity": 127,
                "duration": 0.0523,
                "tempo": 120.0
            },
            {
                "pitch": 28,
                "velocity": 127,
                "duration": 0.0227,
                "tempo": 120.0
            },
            {
                "pitch": 26,
                "velocity": 127,
                "duration": 0.0523,
                "tempo": 120.0
            },
            {
                "pitch": 23,
                "velocity": 101,
                "duration": 0.0773,
                "tempo": 120.0
            },
            {
                "pitch": 23,
                "velocity": 101,
                "duration": 0.2114,
                "tempo": 120.0
            },
            {
                "pitch": 23,
                "velocity": 101,
                "duration": 0.0773,
                "tempo": 120.0
            },
            {
                "pitch": 36,
                "velocity": 127,
                "duration": 0.0182,
                "tempo": 120.0
            },
            {
                "pitch": 33,
                "velocity": 127,
                "duration": 0.0523,
                "tempo": 120.0
            },
            {
                "pitch": 31,
                "velocity": 127,
                "duration": 0.0273,
                "tempo": 120.0
            },
            {
                "pitch": 36,
                "velocity": 127,
                "duration": 0.025,
                "tempo": 120.0
            },
            {
                "pitch": 33,
                "velocity": 127,
                "duration": 0.0523,
                "tempo": 120.0
            },
            {
                "pitch": 32,
                "velocity": 127,
                "duration": 0.025,
                "tempo": 120.0
            },
            {
                "pitch": 30,
                "velocity": 127,
                "duration": 0.0523,
                "tempo": 120.0
            },
            {
                "pitch": 32,
                "velocity": 127,
                "duration": 0.0227,
                "tempo": 120.0
            },
            {
                "pitch": 42,
                "velocity": 127,
                "duration": 0.2568,
                "tempo": 120.0
            },
            {
                "pitch": 30,
                "velocity": 127,
                "duration": 0.0545,
                "tempo": 120.0
            },
            {
                "pitch": 28,
                "velocity": 127,
                "duration": 0.0227,
                "tempo": 120.0
            },
            {
                "pitch": 26,
                "velocity": 127,
                "duration": 0.0523,
                "tempo": 120.0
            },
            {
                "pitch": 23,
                "velocity": 127,
                "duration": 0.0273,
                "tempo": 120.0
            },
            {
                "pitch": 23,
                "velocity": 101,
                "duration": 0.0773,
                "tempo": 120.0
            },
            {
                "pitch": 23,
                "velocity": 101,
                "duration": 0.2364,
                "tempo": 120.0
            },
            {
                "pitch": 23,
                "velocity": 101,
                "duration": 0.0795,
                "tempo": 120.0
            },
            {
                "pitch": 36,
                "velocity": 127,
                "duration": 0.0205,
                "tempo": 120.0
            },
            {
                "pitch": 33,
                "velocity": 127,
                "duration": 0.0545,
                "tempo": 120.0
            },
            {
                "pitch": 36,
                "velocity": 127,
                "duration": 0.025,
                "tempo": 120.0
            },
            {
                "pitch": 33,
                "velocity": 127,
                "duration": 0.0545,
                "tempo": 120.0
            },
            {
                "pitch": 32,
                "velocity": 127,
                "duration": 0.025,
                "tempo": 120.0
            },
            {
                "pitch": 42,
                "velocity": 127,
                "duration": 1.9023,
                "tempo": 120.0
            },
            {
                "pitch": 30,
                "velocity": 127,
                "duration": 0.0545,
                "tempo": 120.0
            },
            {
                "pitch": 27,
                "velocity": 127,
                "duration": 0.0273,
                "tempo": 120.0
            },
            {
                "pitch": 32,
                "velocity": 127,
                "duration": 0.025,
                "tempo": 120.0
            },
            {
                "pitch": 42,
                "velocity": 127,
                "duration": 0.2682,
                "tempo": 120.0
            },
            {
                "pitch": 30,
                "velocity": 127,
                "duration": 0.0523,
                "tempo": 120.0
            },
            {
                "pitch": 27,
                "velocity": 127,
                "duration": 0.0295,
                "tempo": 120.0
            },
            {
                "pitch": 28,
                "velocity": 127,
                "duration": 0.0227,
                "tempo": 120.0
            },
            {
                "pitch": 26,
                "velocity": 127,
                "duration": 0.0523,
                "tempo": 120.0
            },
            {
                "pitch": 23,
                "velocity": 101,
                "duration": 0.075,
                "tempo": 120.0
            },
            {
                "pitch": 23,
                "velocity": 101,
                "duration": 0.2045,
                "tempo": 120.0
            },
            {
                "pitch": 23,
                "velocity": 101,
                "duration": 0.0773,
                "tempo": 120.0
            },
            {
                "pitch": 36,
                "velocity": 127,
                "duration": 0.0205,
                "tempo": 120.0
            },
            {
                "pitch": 33,
                "velocity": 127,
                "duration": 0.0523,
                "tempo": 120.0
            },
            {
                "pitch": 31,
                "velocity": 127,
                "duration": 0.0273,
                "tempo": 120.0
            },
            {
                "pitch": 36,
                "velocity": 127,
                "duration": 0.025,
                "tempo": 120.0
            },
            {
                "pitch": 33,
                "velocity": 127,
                "duration": 0.0523,
                "tempo": 120.0
            },
            {
                "pitch": 31,
                "velocity": 127,
                "duration": 0.0273,
                "tempo": 120.0
            },
            {
                "pitch": 36,
                "velocity": 127,
                "duration": 0.025,
                "tempo": 120.0
            },
            {
                "pitch": 33,
                "velocity": 127,
                "duration": 0.0273,
                "tempo": 120.0
            },
            {
                "pitch": 36,
                "velocity": 127,
                "duration": 0.025,
                "tempo": 120.0
            },
            {
                "pitch": 33,
                "velocity": 127,
                "duration": 0.0273,
                "tempo": 120.0
            },
            {
                "pitch": 32,
                "velocity": 127,
                "duration": 0.0273,
                "tempo": 120.0
            },
            {
                "pitch": 42,
                "velocity": 127,
                "duration": 1.9386,
                "tempo": 120.0
            },
            {
                "pitch": 30,
                "velocity": 127,
                "duration": 0.0273,
                "tempo": 120.0
            },
            {
                "pitch": 32,
                "velocity": 127,
                "duration": 0.0227,
                "tempo": 120.0
            },
            {
                "pitch": 42,
                "velocity": 127,
                "duration": 0.1068,
                "tempo": 120.0
            },
            {
                "pitch": 42,
                "velocity": 127,
                "duration": 0.0023,
                "tempo": 120.0
            },
            {
                "pitch": 30,
                "velocity": 127,
                "duration": 0.0523,
                "tempo": 120.0
            },
            {
                "pitch": 32,
                "velocity": 127,
                "duration": 0.025,
                "tempo": 120.0
            },
            {
                "pitch": 30,
                "velocity": 127,
                "duration": 0.0545,
                "tempo": 120.0
            },
            {
                "pitch": 28,
                "velocity": 127,
                "duration": 0.0227,
                "tempo": 120.0
            },
            {
                "pitch": 26,
                "velocity": 127,
                "duration": 0.0523,
                "tempo": 120.0
            },
            {
                "pitch": 23,
                "velocity": 127,
                "duration": 0.0273,
                "tempo": 120.0
            },
            {
                "pitch": 28,
                "velocity": 127,
                "duration": 0.025,
                "tempo": 120.0
            },
            {
                "pitch": 26,
                "velocity": 127,
                "duration": 0.0523,
                "tempo": 120.0
            },
            {
                "pitch": 23,
                "velocity": 127,
                "duration": 0.0295,
                "tempo": 120.0
            },
            {
                "pitch": 23,
                "velocity": 101,
                "duration": 0.075,
                "tempo": 120.0
            },
            {
                "pitch": 23,
                "velocity": 101,
                "duration": 0.2295,
                "tempo": 120.0
            },
            {
                "pitch": 23,
                "velocity": 101,
                "duration": 0.1023,
                "tempo": 120.0
            },
            {
                "pitch": 36,
                "velocity": 127,
                "duration": 0.0205,
                "tempo": 120.0
            },
            {
                "pitch": 33,
                "velocity": 127,
                "duration": 0.0545,
                "tempo": 120.0
            },
            {
                "pitch": 36,
                "velocity": 127,
                "duration": 0.025,
                "tempo": 120.0
            },
            {
                "pitch": 33,
                "velocity": 127,
                "duration": 0.0545,
                "tempo": 120.0
            },
            {
                "pitch": 32,
                "velocity": 127,
                "duration": 0.0227,
                "tempo": 120.0
            },
            {
                "pitch": 42,
                "velocity": 127,
                "duration": 1.8841,
                "tempo": 120.0
            },
            {
                "pitch": 30,
                "velocity": 127,
                "duration": 0.0545,
                "tempo": 120.0
            },
            {
                "pitch": 27,
                "velocity": 127,
                "duration": 0.0273,
                "tempo": 120.0
            },
            {
                "pitch": 32,
                "velocity": 127,
                "duration": 0.025,
                "tempo": 120.0
            },
            {
                "pitch": 42,
                "velocity": 127,
                "duration": 0.2682,
                "tempo": 120.0
            },
            {
                "pitch": 30,
                "velocity": 127,
                "duration": 0.0523,
                "tempo": 120.0
            },
            {
                "pitch": 27,
                "velocity": 127,
                "duration": 0.0295,
                "tempo": 120.0
            },
            {
                "pitch": 28,
                "velocity": 127,
                "duration": 0.025,
                "tempo": 120.0
            },
            {
                "pitch": 26,
                "velocity": 127,
                "duration": 0.0523,
                "tempo": 120.0
            },
            {
                "pitch": 23,
                "velocity": 101,
                "duration": 0.1045,
                "tempo": 120.0
            },
            {
                "pitch": 23,
                "velocity": 101,
                "duration": 0.2091,
                "tempo": 120.0
            },
            {
                "pitch": 23,
                "velocity": 101,
                "duration": 0.0795,
                "tempo": 120.0
            },
            {
                "pitch": 36,
                "velocity": 127,
                "duration": 0.0205,
                "tempo": 120.0
            },
            {
                "pitch": 33,
                "velocity": 127,
                "duration": 0.05,
                "tempo": 120.0
            },
            {
                "pitch": 31,
                "velocity": 127,
                "duration": 0.0273,
                "tempo": 120.0
            },
            {
                "pitch": 36,
                "velocity": 127,
                "duration": 0.025,
                "tempo": 120.0
            },
            {
                "pitch": 33,
                "velocity": 127,
                "duration": 0.05,
                "tempo": 120.0
            },
            {
                "pitch": 31,
                "velocity": 127,
                "duration": 0.0273,
                "tempo": 120.0
            },
            {
                "pitch": 32,
                "velocity": 127,
                "duration": 0.0227,
                "tempo": 120.0
            },
            {
                "pitch": 42,
                "velocity": 127,
                "duration": 1.9273,
                "tempo": 120.0
            },
            {
                "pitch": 30,
                "velocity": 127,
                "duration": 0.0523,
                "tempo": 120.0
            },
            {
                "pitch": 32,
                "velocity": 127,
                "duration": 0.025,
                "tempo": 120.0
            },
            {
                "pitch": 42,
                "velocity": 127,
                "duration": 0.2591,
                "tempo": 120.0
            },
            {
                "pitch": 30,
                "velocity": 127,
                "duration": 0.0523,
                "tempo": 120.0
            },
            {
                "pitch": 28,
                "velocity": 127,
                "duration": 0.0227,
                "tempo": 120.0
            },
            {
                "pitch": 26,
                "velocity": 127,
                "duration": 0.05,
                "tempo": 120.0
            },
            {
                "pitch": 23,
                "velocity": 101,
                "duration": 0.0773,
                "tempo": 120.0
            },
            {
                "pitch": 23,
                "velocity": 101,
                "duration": 0.2318,
                "tempo": 120.0
            },
            {
                "pitch": 23,
                "velocity": 101,
                "duration": 0.0909,
                "tempo": 120.0
            },
            {
                "pitch": 36,
                "velocity": 127,
                "duration": 0.0182,
                "tempo": 120.0
            },
            {
                "pitch": 33,
                "velocity": 127,
                "duration": 0.0455,
                "tempo": 120.0
            },
            {
                "pitch": 36,
                "velocity": 127,
                "duration": 0.0205,
                "tempo": 120.0
            },
            {
                "pitch": 33,
                "velocity": 127,
                "duration": 0.0477,
                "tempo": 120.0
            },
            {
                "pitch": 32,
                "velocity": 127,
                "duration": 0.0205,
                "tempo": 120.0
            },
            {
                "pitch": 42,
                "velocity": 127,
                "duration": 1.7932,
                "tempo": 120.0
            },
            {
                "pitch": 30,
                "velocity": 127,
                "duration": 0.0455,
                "tempo": 120.0
            },
            {
                "pitch": 32,
                "velocity": 127,
                "duration": 0.0205,
                "tempo": 120.0
            },
            {
                "pitch": 42,
                "velocity": 127,
                "duration": 0.2273,
                "tempo": 120.0
            },
            {
                "pitch": 30,
                "velocity": 127,
                "duration": 0.0455,
                "tempo": 120.0
            },
            {
                "pitch": 27,
                "velocity": 127,
                "duration": 0.025,
                "tempo": 120.0
            },
            {
                "pitch": 28,
                "velocity": 127,
                "duration": 0.0205,
                "tempo": 120.0
            },
            {
                "pitch": 26,
                "velocity": 127,
                "duration": 0.0455,
                "tempo": 120.0
            },
            {
                "pitch": 23,
                "velocity": 127,
                "duration": 0.0227,
                "tempo": 120.0
            },
            {
                "pitch": 23,
                "velocity": 101,
                "duration": 0.0909,
                "tempo": 120.0
            },
            {
                "pitch": 23,
                "velocity": 101,
                "duration": 0.1841,
                "tempo": 120.0
            },
            {
                "pitch": 23,
                "velocity": 101,
                "duration": 0.0705,
                "tempo": 120.0
            },
            {
                "pitch": 36,
                "velocity": 127,
                "duration": 0.0182,
                "tempo": 120.0
            },
            {
                "pitch": 33,
                "velocity": 127,
                "duration": 0.0477,
                "tempo": 120.0
            },
            {
                "pitch": 36,
                "velocity": 127,
                "duration": 0.0227,
                "tempo": 120.0
            },
            {
                "pitch": 33,
                "velocity": 127,
                "duration": 0.0455,
                "tempo": 120.0
            },
            {
                "pitch": 31,
                "velocity": 127,
                "duration": 0.025,
                "tempo": 120.0
            },
            {
                "pitch": 36,
                "velocity": 127,
                "duration": 0.0227,
                "tempo": 120.0
            },
            {
                "pitch": 33,
                "velocity": 127,
                "duration": 0.0227,
                "tempo": 120.0
            },
            {
                "pitch": 36,
                "velocity": 127,
                "duration": 0.025,
                "tempo": 120.0
            },
            {
                "pitch": 32,
                "velocity": 127,
                "duration": 0.0227,
                "tempo": 120.0
            },
            {
                "pitch": 42,
                "velocity": 127,
                "duration": 1.7182,
                "tempo": 120.0
            },
            {
                "pitch": 30,
                "velocity": 127,
                "duration": 0.0227,
                "tempo": 120.0
            },
            {
                "pitch": 32,
                "velocity": 127,
                "duration": 0.0205,
                "tempo": 120.0
            },
            {
                "pitch": 42,
                "velocity": 127,
                "duration": 0.0909,
                "tempo": 120.0
            },
            {
                "pitch": 30,
                "velocity": 127,
                "duration": 0.0477,
                "tempo": 120.0
            },
            {
                "pitch": 32,
                "velocity": 127,
                "duration": 0.0205,
                "tempo": 120.0
            },
            {
                "pitch": 42,
                "velocity": 127,
                "duration": 0.1136,
                "tempo": 120.0
            },
            {
                "pitch": 30,
                "velocity": 127,
                "duration": 0.0477,
                "tempo": 120.0
            },
            {
                "pitch": 28,
                "velocity": 127,
                "duration": 0.0205,
                "tempo": 120.0
            },
            {
                "pitch": 26,
                "velocity": 127,
                "duration": 0.0455,
                "tempo": 120.0
            },
            {
                "pitch": 28,
                "velocity": 127,
                "duration": 0.0227,
                "tempo": 120.0
            },
            {
                "pitch": 26,
                "velocity": 127,
                "duration": 0.0455,
                "tempo": 120.0
            },
            {
                "pitch": 23,
                "velocity": 127,
                "duration": 0.0227,
                "tempo": 120.0
            },
            {
                "pitch": 36,
                "velocity": 127,
                "duration": 0.0227,
                "tempo": 120.0
            },
            {
                "pitch": 33,
                "velocity": 127,
                "duration": 0.0523,
                "tempo": 120.0
            },
            {
                "pitch": 31,
                "velocity": 127,
                "duration": 0.025,
                "tempo": 120.0
            },
            {
                "pitch": 36,
                "velocity": 127,
                "duration": 0.0227,
                "tempo": 120.0
            },
            {
                "pitch": 33,
                "velocity": 127,
                "duration": 0.0523,
                "tempo": 120.0
            },
            {
                "pitch": 31,
                "velocity": 127,
                "duration": 0.0523,
                "tempo": 120.0
            },
            {
                "pitch": 27,
                "velocity": 127,
                "duration": 0.025,
                "tempo": 120.0
            },
            {
                "pitch": 25,
                "velocity": 127,
                "duration": 0.0273,
                "tempo": 120.0
            },
            {
                "pitch": 23,
                "velocity": 127,
                "duration": 0.025,
                "tempo": 120.0
            },
            {
                "pitch": 36,
                "velocity": 127,
                "duration": 0.025,
                "tempo": 120.0
            },
            {
                "pitch": 33,
                "velocity": 127,
                "duration": 0.0523,
                "tempo": 120.0
            },
            {
                "pitch": 32,
                "velocity": 127,
                "duration": 0.025,
                "tempo": 120.0
            },
            {
                "pitch": 42,
                "velocity": 127,
                "duration": 1.8841,
                "tempo": 120.0
            },
            {
                "pitch": 30,
                "velocity": 127,
                "duration": 0.0523,
                "tempo": 120.0
            },
            {
                "pitch": 27,
                "velocity": 127,
                "duration": 0.0545,
                "tempo": 120.0
            },
            {
                "pitch": 24,
                "velocity": 127,
                "duration": 0.0523,
                "tempo": 120.0
            },
            {
                "pitch": 21,
                "velocity": 127,
                "duration": 0.0273,
                "tempo": 120.0
            },
            {
                "pitch": 19,
                "velocity": 127,
                "duration": 0.0273,
                "tempo": 120.0
            },
            {
                "pitch": 28,
                "velocity": 127,
                "duration": 0.025,
                "tempo": 120.0
            },
            {
                "pitch": 26,
                "velocity": 127,
                "duration": 0.0523,
                "tempo": 120.0
            },
            {
                "pitch": 23,
                "velocity": 127,
                "duration": 0.0523,
                "tempo": 120.0
            },
            {
                "pitch": 20,
                "velocity": 127,
                "duration": 0.0273,
                "tempo": 120.0
            },
            {
                "pitch": 18,
                "velocity": 127,
                "duration": 0.0523,
                "tempo": 120.0
            },
            {
                "pitch": 14,
                "velocity": 127,
                "duration": 0.0273,
                "tempo": 120.0
            },
            {
                "pitch": 23,
                "velocity": 101,
                "duration": 0.1023,
                "tempo": 120.0
            },
            {
                "pitch": 23,
                "velocity": 101,
                "duration": 0.0773,
                "tempo": 120.0
            },
            {
                "pitch": 36,
                "velocity": 127,
                "duration": 0.0205,
                "tempo": 120.0
            },
            {
                "pitch": 33,
                "velocity": 127,
                "duration": 0.0523,
                "tempo": 120.0
            },
            {
                "pitch": 36,
                "velocity": 127,
                "duration": 0.0227,
                "tempo": 120.0
            },
            {
                "pitch": 33,
                "velocity": 127,
                "duration": 0.0523,
                "tempo": 120.0
            },
            {
                "pitch": 31,
                "velocity": 127,
                "duration": 0.0273,
                "tempo": 120.0
            },
            {
                "pitch": 36,
                "velocity": 127,
                "duration": 0.0227,
                "tempo": 120.0
            },
            {
                "pitch": 33,
                "velocity": 127,
                "duration": 0.0523,
                "tempo": 120.0
            },
            {
                "pitch": 31,
                "velocity": 127,
                "duration": 0.0273,
                "tempo": 120.0
            },
            {
                "pitch": 32,
                "velocity": 127,
                "duration": 0.0227,
                "tempo": 120.0
            },
            {
                "pitch": 42,
                "velocity": 127,
                "duration": 2.0159,
                "tempo": 120.0
            },
            {
                "pitch": 30,
                "velocity": 127,
                "duration": 0.0523,
                "tempo": 120.0
            },
            {
                "pitch": 27,
                "velocity": 127,
                "duration": 0.0273,
                "tempo": 120.0
            },
            {
                "pitch": 32,
                "velocity": 127,
                "duration": 0.025,
                "tempo": 120.0
            },
            {
                "pitch": 42,
                "velocity": 127,
                "duration": 0.1568,
                "tempo": 120.0
            },
            {
                "pitch": 30,
                "velocity": 127,
                "duration": 0.0545,
                "tempo": 120.0
            },
            {
                "pitch": 32,
                "velocity": 127,
                "duration": 0.025,
                "tempo": 120.0
            },
            {
                "pitch": 42,
                "velocity": 127,
                "duration": 0.1341,
                "tempo": 120.0
            },
            {
                "pitch": 30,
                "velocity": 127,
                "duration": 0.0545,
                "tempo": 120.0
            },
            {
                "pitch": 28,
                "velocity": 127,
                "duration": 0.025,
                "tempo": 120.0
            },
            {
                "pitch": 26,
                "velocity": 127,
                "duration": 0.0523,
                "tempo": 120.0
            },
            {
                "pitch": 28,
                "velocity": 127,
                "duration": 0.025,
                "tempo": 120.0
            },
            {
                "pitch": 26,
                "velocity": 127,
                "duration": 0.0568,
                "tempo": 120.0
            },
            {
                "pitch": 23,
                "velocity": 101,
                "duration": 0.5023,
                "tempo": 120.0
            },
            {
                "pitch": 23,
                "velocity": 101,
                "duration": 0.4886,
                "tempo": 120.0
            },
            {
                "pitch": 23,
                "velocity": 101,
                "duration": 0.5023,
                "tempo": 120.0
            },
            {
                "pitch": 23,
                "velocity": 101,
                "duration": 0.4818,
                "tempo": 120.0
            },
            {
                "pitch": 23,
                "velocity": 101,
                "duration": 0.4909,
                "tempo": 120.0
            },
            {
                "pitch": 23,
                "velocity": 101,
                "duration": 0.5023,
                "tempo": 120.0
            },
            {
                "pitch": 23,
                "velocity": 101,
                "duration": 0.4909,
                "tempo": 120.0
            },
            {
                "pitch": 23,
                "velocity": 101,
                "duration": 0.5023,
                "tempo": 120.0
            },
            {
                "pitch": 23,
                "velocity": 101,
                "duration": 0.5068,
                "tempo": 120.0
            },
            {
                "pitch": 23,
                "velocity": 101,
                "duration": 0.4909,
                "tempo": 120.0
            },
            {
                "pitch": 23,
                "velocity": 101,
                "duration": 0.5023,
                "tempo": 120.0
            },
            {
                "pitch": 23,
                "velocity": 101,
                "duration": 0.4932,
                "tempo": 120.0
            },
            {
                "pitch": 23,
                "velocity": 101,
                "duration": 0.5091,
                "tempo": 120.0
            },
            {
                "pitch": 23,
                "velocity": 101,
                "duration": 0.4932,
                "tempo": 120.0
            },
            {
                "pitch": 23,
                "velocity": 101,
                "duration": 0.5023,
                "tempo": 120.0
            },
            {
                "pitch": 23,
                "velocity": 101,
                "duration": 0.4932,
                "tempo": 120.0
            },
            {
                "pitch": 23,
                "velocity": 101,
                "duration": 0.4841,
                "tempo": 120.0
            },
            {
                "pitch": 23,
                "velocity": 101,
                "duration": 0.5045,
                "tempo": 120.0
            },
            {
                "pitch": 23,
                "velocity": 101,
                "duration": 0.2295,
                "tempo": 120.0
            },
            {
                "pitch": 23,
                "velocity": 101,
                "duration": 0.2318,
                "tempo": 120.0
            },
            {
                "pitch": 36,
                "velocity": 127,
                "duration": 0.025,
                "tempo": 120.0
            },
            {
                "pitch": 33,
                "velocity": 127,
                "duration": 0.05,
                "tempo": 120.0
            },
            {
                "pitch": 36,
                "velocity": 127,
                "duration": 0.0273,
                "tempo": 120.0
            },
            {
                "pitch": 33,
                "velocity": 127,
                "duration": 0.05,
                "tempo": 120.0
            },
            {
                "pitch": 31,
                "velocity": 127,
                "duration": 0.0273,
                "tempo": 120.0
            },
            {
                "pitch": 32,
                "velocity": 127,
                "duration": 0.025,
                "tempo": 120.0
            },
            {
                "pitch": 42,
                "velocity": 127,
                "duration": 21.5386,
                "tempo": 120.0
            },
            {
                "pitch": 30,
                "velocity": 127,
                "duration": 0.0523,
                "tempo": 120.0
            },
            {
                "pitch": 27,
                "velocity": 127,
                "duration": 0.0273,
                "tempo": 120.0
            },
            {
                "pitch": 32,
                "velocity": 127,
                "duration": 0.0273,
                "tempo": 120.0
            },
            {
                "pitch": 42,
                "velocity": 127,
                "duration": 0.1318,
                "tempo": 120.0
            },
            {
                "pitch": 30,
                "velocity": 127,
                "duration": 0.0523,
                "tempo": 120.0
            },
            {
                "pitch": 27,
                "velocity": 127,
                "duration": 0.0273,
                "tempo": 120.0
            },
            {
                "pitch": 28,
                "velocity": 127,
                "duration": 0.025,
                "tempo": 120.0
            },
            {
                "pitch": 26,
                "velocity": 127,
                "duration": 0.0523,
                "tempo": 120.0
            },
            {
                "pitch": 23,
                "velocity": 127,
                "duration": 0.0523,
                "tempo": 120.0
            },
            {
                "pitch": 20,
                "velocity": 127,
                "duration": 0.0273,
                "tempo": 120.0
            },
            {
                "pitch": 18,
                "velocity": 127,
                "duration": 0.0545,
                "tempo": 120.0
            },
            {
                "pitch": 23,
                "velocity": 101,
                "duration": 0.0773,
                "tempo": 120.0
            },
            {
                "pitch": 23,
                "velocity": 101,
                "duration": 0.2136,
                "tempo": 120.0
            },
            {
                "pitch": 23,
                "velocity": 101,
                "duration": 0.0795,
                "tempo": 120.0
            },
            {
                "pitch": 23,
                "velocity": 101,
                "duration": 0.4909,
                "tempo": 120.0
            },
            {
                "pitch": 23,
                "velocity": 101,
                "duration": 0.0795,
                "tempo": 120.0
            },
            {
                "pitch": 23,
                "velocity": 101,
                "duration": 0.2386,
                "tempo": 120.0
            },
            {
                "pitch": 23,
                "velocity": 101,
                "duration": 0.1045,
                "tempo": 120.0
            },
            {
                "pitch": 23,
                "velocity": 101,
                "duration": 0.4909,
                "tempo": 120.0
            },
            {
                "pitch": 23,
                "velocity": 101,
                "duration": 0.1045,
                "tempo": 120.0
            },
            {
                "pitch": 23,
                "velocity": 101,
                "duration": 0.2114,
                "tempo": 120.0
            },
            {
                "pitch": 23,
                "velocity": 101,
                "duration": 0.0795,
                "tempo": 120.0
            },
            {
                "pitch": 23,
                "velocity": 101,
                "duration": 0.5023,
                "tempo": 120.0
            },
            {
                "pitch": 23,
                "velocity": 101,
                "duration": 0.0773,
                "tempo": 120.0
            },
            {
                "pitch": 23,
                "velocity": 101,
                "duration": 0.2364,
                "tempo": 120.0
            },
            {
                "pitch": 23,
                "velocity": 101,
                "duration": 0.1068,
                "tempo": 120.0
            },
            {
                "pitch": 36,
                "velocity": 127,
                "duration": 0.025,
                "tempo": 120.0
            },
            {
                "pitch": 33,
                "velocity": 127,
                "duration": 0.0523,
                "tempo": 120.0
            },
            {
                "pitch": 36,
                "velocity": 127,
                "duration": 0.025,
                "tempo": 120.0
            },
            {
                "pitch": 33,
                "velocity": 127,
                "duration": 0.0523,
                "tempo": 120.0
            },
            {
                "pitch": 32,
                "velocity": 127,
                "duration": 0.025,
                "tempo": 120.0
            },
            {
                "pitch": 42,
                "velocity": 127,
                "duration": 8.5636,
                "tempo": 120.0
            },
            {
                "pitch": 30,
                "velocity": 127,
                "duration": 0.0523,
                "tempo": 120.0
            },
            {
                "pitch": 27,
                "velocity": 127,
                "duration": 0.025,
                "tempo": 120.0
            },
            {
                "pitch": 32,
                "velocity": 127,
                "duration": 0.025,
                "tempo": 120.0
            },
            {
                "pitch": 42,
                "velocity": 127,
                "duration": 0.1295,
                "tempo": 120.0
            },
            {
                "pitch": 30,
                "velocity": 127,
                "duration": 0.0523,
                "tempo": 120.0
            },
            {
                "pitch": 27,
                "velocity": 127,
                "duration": 0.025,
                "tempo": 120.0
            },
            {
                "pitch": 28,
                "velocity": 127,
                "duration": 0.025,
                "tempo": 120.0
            },
            {
                "pitch": 26,
                "velocity": 127,
                "duration": 0.0523,
                "tempo": 120.0
            },
            {
                "pitch": 23,
                "velocity": 127,
                "duration": 0.025,
                "tempo": 120.0
            },
            {
                "pitch": 28,
                "velocity": 127,
                "duration": 0.025,
                "tempo": 120.0
            },
            {
                "pitch": 26,
                "velocity": 127,
                "duration": 0.0523,
                "tempo": 120.0
            },
            {
                "pitch": 23,
                "velocity": 101,
                "duration": 0.1,
                "tempo": 120.0
            },
            {
                "pitch": 23,
                "velocity": 101,
                "duration": 0.1023,
                "tempo": 120.0
            },
            {
                "pitch": 23,
                "velocity": 101,
                "duration": 0.2364,
                "tempo": 120.0
            },
            {
                "pitch": 23,
                "velocity": 101,
                "duration": 0.0773,
                "tempo": 120.0
            },
            {
                "pitch": 23,
                "velocity": 101,
                "duration": 0.1045,
                "tempo": 120.0
            },
            {
                "pitch": 23,
                "velocity": 101,
                "duration": 0.2386,
                "tempo": 120.0
            },
            {
                "pitch": 23,
                "velocity": 101,
                "duration": 0.0773,
                "tempo": 120.0
            },
            {
                "pitch": 23,
                "velocity": 101,
                "duration": 0.1068,
                "tempo": 120.0
            },
            {
                "pitch": 23,
                "velocity": 101,
                "duration": 0.2386,
                "tempo": 120.0
            },
            {
                "pitch": 23,
                "velocity": 101,
                "duration": 0.2114,
                "tempo": 120.0
            },
            {
                "pitch": 23,
                "velocity": 101,
                "duration": 0.2295,
                "tempo": 120.0
            },
            {
                "pitch": 36,
                "velocity": 127,
                "duration": 0.0205,
                "tempo": 120.0
            },
            {
                "pitch": 33,
                "velocity": 127,
                "duration": 0.0523,
                "tempo": 120.0
            },
            {
                "pitch": 31,
                "velocity": 127,
                "duration": 0.0273,
                "tempo": 120.0
            },
            {
                "pitch": 36,
                "velocity": 127,
                "duration": 0.025,
                "tempo": 120.0
            },
            {
                "pitch": 33,
                "velocity": 127,
                "duration": 0.0523,
                "tempo": 120.0
            },
            {
                "pitch": 36,
                "velocity": 127,
                "duration": 0.0227,
                "tempo": 120.0
            },
            {
                "pitch": 33,
                "velocity": 127,
                "duration": 0.0523,
                "tempo": 120.0
            },
            {
                "pitch": 32,
                "velocity": 127,
                "duration": 0.0227,
                "tempo": 120.0
            },
            {
                "pitch": 42,
                "velocity": 127,
                "duration": 4.0705,
                "tempo": 120.0
            },
            {
                "pitch": 30,
                "velocity": 127,
                "duration": 0.0523,
                "tempo": 120.0
            },
            {
                "pitch": 32,
                "velocity": 127,
                "duration": 0.0227,
                "tempo": 120.0
            },
            {
                "pitch": 42,
                "velocity": 127,
                "duration": 0.1295,
                "tempo": 120.0
            },
            {
                "pitch": 30,
                "velocity": 127,
                "duration": 0.0545,
                "tempo": 120.0
            },
            {
                "pitch": 27,
                "velocity": 127,
                "duration": 0.0273,
                "tempo": 120.0
            },
            {
                "pitch": 28,
                "velocity": 127,
                "duration": 0.025,
                "tempo": 120.0
            },
            {
                "pitch": 26,
                "velocity": 127,
                "duration": 0.0523,
                "tempo": 120.0
            },
            {
                "pitch": 23,
                "velocity": 127,
                "duration": 0.0273,
                "tempo": 120.0
            },
            {
                "pitch": 28,
                "velocity": 127,
                "duration": 0.025,
                "tempo": 120.0
            },
            {
                "pitch": 26,
                "velocity": 127,
                "duration": 0.0523,
                "tempo": 120.0
            },
            {
                "pitch": 23,
                "velocity": 127,
                "duration": 0.0273,
                "tempo": 120.0
            },
            {
                "pitch": 28,
                "velocity": 127,
                "duration": 0.025,
                "tempo": 120.0
            },
            {
                "pitch": 26,
                "velocity": 127,
                "duration": 0.0545,
                "tempo": 120.0
            }
        ]
    }
}