{
    "track_id": "14 Fortress",
    "mood": "angry",
    "instruments": {
        "Electric Piano 1": [
            {
                "pitch": 74,
                "velocity": 80,
                "duration": 0.3318,
                "tempo": 120.0
            },
            {
                "pitch": 76,
                "velocity": 80,
                "duration": 0.3364,
                "tempo": 120.0
            },
            {
                "pitch": 77,
                "velocity": 80,
                "duration": 0.3318,
                "tempo": 120.0
            },
            {
                "pitch": 81,
                "velocity": 80,
                "duration": 0.3318,
                "tempo": 120.0
            },
            {
                "pitch": 76,
                "velocity": 80,
                "duration": 0.3364,
                "tempo": 120.0
            },
            {
                "pitch": 77,
                "velocity": 80,
                "duration": 0.3341,
                "tempo": 120.0
            },
            {
                "pitch": 74,
                "velocity": 80,
                "duration": 0.3318,
                "tempo": 120.0
            },
            {
                "pitch": 76,
                "velocity": 80,
                "duration": 0.3318,
                "tempo": 120.0
            },
            {
                "pitch": 74,
                "velocity": 80,
                "duration": 0.3341,
                "tempo": 120.0
            },
            {
                "pitch": 77,
                "velocity": 80,
                "duration": 0.3341,
                "tempo": 120.0
            },
            {
                "pitch": 76,
                "velocity": 80,
                "duration": 0.3341,
                "tempo": 120.0
            },
            {
                "pitch": 72,
                "velocity": 80,
                "duration": 0.3364,
                "tempo": 120.0
            },
            {
                "pitch": 74,
                "velocity": 80,
                "duration": 0.3341,
                "tempo": 120.0
            },
            {
                "pitch": 71,
                "velocity": 80,
                "duration": 0.3341,
                "tempo": 120.0
            },
            {
                "pitch": 72,
                "velocity": 80,
                "duration": 0.3295,
                "tempo": 120.0
            },
            {
                "pitch": 69,
                "velocity": 80,
                "duration": 0.3295,
                "tempo": 120.0
            },
            {
                "pitch": 74,
                "velocity": 80,
                "duration": 0.3341,
                "tempo": 120.0
            },
            {
                "pitch": 76,
                "velocity": 80,
                "duration": 0.3364,
                "tempo": 120.0
            },
            {
                "pitch": 77,
                "velocity": 80,
                "duration": 0.3364,
                "tempo": 120.0
            },
            {
                "pitch": 81,
                "velocity": 80,
                "duration": 0.3341,
                "tempo": 120.0
            },
            {
                "pitch": 76,
                "velocity": 80,
                "duration": 0.3341,
                "tempo": 120.0
            },
            {
                "pitch": 77,
                "velocity": 80,
                "duration": 0.3341,
                "tempo": 120.0
            },
            {
                "pitch": 74,
                "velocity": 80,
                "duration": 0.3318,
                "tempo": 120.0
            },
            {
                "pitch": 76,
                "velocity": 80,
                "duration": 0.3318,
                "tempo": 120.0
            },
            {
                "pitch": 74,
                "velocity": 80,
                "duration": 0.3364,
                "tempo": 120.0
            },
            {
                "pitch": 77,
                "velocity": 80,
                "duration": 0.3364,
                "tempo": 120.0
            },
            {
                "pitch": 76,
                "velocity": 80,
                "duration": 0.3341,
                "tempo": 120.0
            },
            {
                "pitch": 72,
                "velocity": 80,
                "duration": 0.3341,
                "tempo": 120.0
            },
            {
                "pitch": 74,
                "velocity": 80,
                "duration": 1.3341,
                "tempo": 120.0
            },
            {
                "pitch": 74,
                "velocity": 101,
                "duration": 0.3341,
                "tempo": 120.0
            },
            {
                "pitch": 76,
                "velocity": 101,
                "duration": 0.3341,
                "tempo": 120.0
            },
            {
                "pitch": 77,
                "velocity": 101,
                "duration": 0.3341,
                "tempo": 120.0
            },
            {
                "pitch": 81,
                "velocity": 101,
                "duration": 0.3364,
                "tempo": 120.0
            },
            {
                "pitch": 76,
                "velocity": 101,
                "duration": 0.3364,
                "tempo": 120.0
            },
            {
                "pitch": 77,
                "velocity": 101,
                "duration": 0.3341,
                "tempo": 120.0
            },
            {
                "pitch": 74,
                "velocity": 101,
                "duration": 0.3341,
                "tempo": 120.0
            },
            {
                "pitch": 76,
                "velocity": 101,
                "duration": 0.3364,
                "tempo": 120.0
            },
            {
                "pitch": 74,
                "velocity": 101,
                "duration": 0.3318,
                "tempo": 120.0
            },
            {
                "pitch": 77,
                "velocity": 101,
                "duration": 0.3318,
                "tempo": 120.0
            },
            {
                "pitch": 76,
                "velocity": 101,
                "duration": 0.3364,
                "tempo": 120.0
            },
            {
                "pitch": 72,
                "velocity": 101,
                "duration": 0.3364,
                "tempo": 120.0
            },
            {
                "pitch": 74,
                "velocity": 101,
                "duration": 0.3341,
                "tempo": 120.0
            },
            {
                "pitch": 71,
                "velocity": 101,
                "duration": 0.3341,
                "tempo": 120.0
            },
            {
                "pitch": 72,
                "velocity": 101,
                "duration": 0.3364,
                "tempo": 120.0
            },
            {
                "pitch": 69,
                "velocity": 101,
                "duration": 0.3364,
                "tempo": 120.0
            },
            {
                "pitch": 74,
                "velocity": 101,
                "duration": 0.3318,
                "tempo": 120.0
            },
            {
                "pitch": 76,
                "velocity": 101,
                "duration": 0.3318,
                "tempo": 120.0
            },
            {
                "pitch": 77,
                "velocity": 101,
                "duration": 0.3364,
                "tempo": 120.0
            },
            {
                "pitch": 81,
                "velocity": 101,
                "duration": 0.3341,
                "tempo": 120.0
            },
            {
                "pitch": 76,
                "velocity": 101,
                "duration": 0.3341,
                "tempo": 120.0
            },
            {
                "pitch": 77,
                "velocity": 101,
                "duration": 0.3364,
                "tempo": 120.0
            },
            {
                "pitch": 74,
                "velocity": 101,
                "duration": 0.3364,
                "tempo": 120.0
            },
            {
                "pitch": 76,
                "velocity": 101,
                "duration": 0.3341,
                "tempo": 120.0
            },
            {
                "pitch": 74,
                "velocity": 101,
                "duration": 0.3295,
                "tempo": 120.0
            },
            {
                "pitch": 77,
                "velocity": 101,
                "duration": 0.3295,
                "tempo": 120.0
            },
            {
                "pitch": 76,
                "velocity": 101,
                "duration": 0.3341,
                "tempo": 120.0
            },
            {
                "pitch": 72,
                "velocity": 101,
                "duration": 0.3341,
                "tempo": 120.0
            },
            {
                "pitch": 74,
                "velocity": 101,
                "duration": 1.3432,
                "tempo": 120.0
            },
            {
                "pitch": 69,
                "velocity": 101,
                "duration": 2.6773,
                "tempo": 120.0
            },
            {
                "pitch": 67,
                "velocity": 101,
                "duration": 0.4023,
                "tempo": 120.0
            },
            {
                "pitch": 67,
                "velocity": 101,
                "duration": 0.0341,
                "tempo": 120.0
            },
            {
                "pitch": 67,
                "velocity": 101,
                "duration": 0.1341,
                "tempo": 120.0
            },
            {
                "pitch": 79,
                "velocity": 101,
                "duration": 0.1682,
                "tempo": 120.0
            },
            {
                "pitch": 55,
                "velocity": 101,
                "duration": 0.1682,
                "tempo": 120.0
            },
            {
                "pitch": 67,
                "velocity": 101,
                "duration": 0.0341,
                "tempo": 120.0
            },
            {
                "pitch": 67,
                "velocity": 101,
                "duration": 0.1341,
                "tempo": 120.0
            },
            {
                "pitch": 79,
                "velocity": 101,
                "duration": 0.1682,
                "tempo": 120.0
            },
            {
                "pitch": 55,
                "velocity": 101,
                "duration": 0.1682,
                "tempo": 120.0
            },
            {
                "pitch": 67,
                "velocity": 101,
                "duration": 0.0341,
                "tempo": 120.0
            },
            {
                "pitch": 67,
                "velocity": 101,
                "duration": 0.1341,
                "tempo": 120.0
            },
            {
                "pitch": 79,
                "velocity": 101,
                "duration": 0.1682,
                "tempo": 120.0
            },
            {
                "pitch": 55,
                "velocity": 101,
                "duration": 0.1682,
                "tempo": 120.0
            },
            {
                "pitch": 67,
                "velocity": 101,
                "duration": 0.0341,
                "tempo": 120.0
            },
            {
                "pitch": 67,
                "velocity": 101,
                "duration": 0.1341,
                "tempo": 120.0
            },
            {
                "pitch": 79,
                "velocity": 101,
                "duration": 0.1682,
                "tempo": 120.0
            },
            {
                "pitch": 67,
                "velocity": 101,
                "duration": 0.0318,
                "tempo": 120.0
            },
            {
                "pitch": 55,
                "velocity": 101,
                "duration": 0.1682,
                "tempo": 120.0
            },
            {
                "pitch": 55,
                "velocity": 101,
                "duration": 0.0023,
                "tempo": 120.0
            },
            {
                "pitch": 67,
                "velocity": 101,
                "duration": 0.1341,
                "tempo": 120.0
            },
            {
                "pitch": 79,
                "velocity": 101,
                "duration": 0.1682,
                "tempo": 120.0
            },
            {
                "pitch": 67,
                "velocity": 101,
                "duration": 0.0318,
                "tempo": 120.0
            },
            {
                "pitch": 67,
                "velocity": 101,
                "duration": 0.1341,
                "tempo": 120.0
            },
            {
                "pitch": 79,
                "velocity": 101,
                "duration": 0.1659,
                "tempo": 120.0
            },
            {
                "pitch": 55,
                "velocity": 101,
                "duration": 0.1682,
                "tempo": 120.0
            },
            {
                "pitch": 67,
                "velocity": 101,
                "duration": 0.0341,
                "tempo": 120.0
            },
            {
                "pitch": 67,
                "velocity": 101,
                "duration": 0.1318,
                "tempo": 120.0
            },
            {
                "pitch": 79,
                "velocity": 101,
                "duration": 0.1659,
                "tempo": 120.0
            },
            {
                "pitch": 55,
                "velocity": 101,
                "duration": 0.1659,
                "tempo": 120.0
            },
            {
                "pitch": 67,
                "velocity": 101,
                "duration": 0.0341,
                "tempo": 120.0
            },
            {
                "pitch": 67,
                "velocity": 101,
                "duration": 0.1318,
                "tempo": 120.0
            },
            {
                "pitch": 79,
                "velocity": 101,
                "duration": 0.1659,
                "tempo": 120.0
            },
            {
                "pitch": 55,
                "velocity": 101,
                "duration": 0.1659,
                "tempo": 120.0
            },
            {
                "pitch": 67,
                "velocity": 101,
                "duration": 0.0341,
                "tempo": 120.0
            },
            {
                "pitch": 67,
                "velocity": 101,
                "duration": 0.1318,
                "tempo": 120.0
            },
            {
                "pitch": 79,
                "velocity": 101,
                "duration": 0.1659,
                "tempo": 120.0
            },
            {
                "pitch": 55,
                "velocity": 101,
                "duration": 0.1659,
                "tempo": 120.0
            },
            {
                "pitch": 67,
                "velocity": 101,
                "duration": 0.0341,
                "tempo": 120.0
            },
            {
                "pitch": 67,
                "velocity": 101,
                "duration": 0.1341,
                "tempo": 120.0
            },
            {
                "pitch": 79,
                "velocity": 101,
                "duration": 0.1682,
                "tempo": 120.0
            },
            {
                "pitch": 55,
                "velocity": 101,
                "duration": 0.1659,
                "tempo": 120.0
            },
            {
                "pitch": 67,
                "velocity": 101,
                "duration": 0.0318,
                "tempo": 120.0
            },
            {
                "pitch": 67,
                "velocity": 101,
                "duration": 0.1364,
                "tempo": 120.0
            },
            {
                "pitch": 79,
                "velocity": 101,
                "duration": 0.1682,
                "tempo": 120.0
            },
            {
                "pitch": 55,
                "velocity": 101,
                "duration": 0.1682,
                "tempo": 120.0
            },
            {
                "pitch": 67,
                "velocity": 101,
                "duration": 0.0318,
                "tempo": 120.0
            },
            {
                "pitch": 67,
                "velocity": 101,
                "duration": 0.1341,
                "tempo": 120.0
            },
            {
                "pitch": 79,
                "velocity": 101,
                "duration": 0.1659,
                "tempo": 120.0
            },
            {
                "pitch": 55,
                "velocity": 101,
                "duration": 0.1682,
                "tempo": 120.0
            },
            {
                "pitch": 67,
                "velocity": 101,
                "duration": 0.0341,
                "tempo": 120.0
            },
            {
                "pitch": 67,
                "velocity": 101,
                "duration": 0.1341,
                "tempo": 120.0
            },
            {
                "pitch": 79,
                "velocity": 101,
                "duration": 0.1682,
                "tempo": 120.0
            },
            {
                "pitch": 55,
                "velocity": 101,
                "duration": 0.1682,
                "tempo": 120.0
            },
            {
                "pitch": 67,
                "velocity": 101,
                "duration": 0.0341,
                "tempo": 120.0
            },
            {
                "pitch": 67,
                "velocity": 101,
                "duration": 0.0659,
                "tempo": 120.0
            },
            {
                "pitch": 65,
                "velocity": 101,
                "duration": 2.6773,
                "tempo": 120.0
            },
            {
                "pitch": 64,
                "velocity": 101,
                "duration": 2.0045,
                "tempo": 120.0
            },
            {
                "pitch": 70,
                "velocity": 101,
                "duration": 0.6705,
                "tempo": 120.0
            },
            {
                "pitch": 69,
                "velocity": 101,
                "duration": 2.6773,
                "tempo": 120.0
            },
            {
                "pitch": 67,
                "velocity": 101,
                "duration": 0.4023,
                "tempo": 120.0
            },
            {
                "pitch": 79,
                "velocity": 101,
                "duration": 8.5409,
                "tempo": 120.0
            },
            {
                "pitch": 55,
                "velocity": 101,
                "duration": 8.5409,
                "tempo": 120.0
            },
            {
                "pitch": 67,
                "velocity": 101,
                "duration": 0.0341,
                "tempo": 120.0
            },
            {
                "pitch": 67,
                "velocity": 101,
                "duration": 0.1341,
                "tempo": 120.0
            },
            {
                "pitch": 79,
                "velocity": 101,
                "duration": 0.1682,
                "tempo": 120.0
            },
            {
                "pitch": 55,
                "velocity": 101,
                "duration": 0.1682,
                "tempo": 120.0
            },
            {
                "pitch": 67,
                "velocity": 101,
                "duration": 0.0341,
                "tempo": 120.0
            },
            {
                "pitch": 67,
                "velocity": 101,
                "duration": 0.1341,
                "tempo": 120.0
            },
            {
                "pitch": 79,
                "velocity": 101,
                "duration": 0.1682,
                "tempo": 120.0
            },
            {
                "pitch": 55,
                "velocity": 101,
                "duration": 0.1682,
                "tempo": 120.0
            },
            {
                "pitch": 67,
                "velocity": 101,
                "duration": 0.0341,
                "tempo": 120.0
            },
            {
                "pitch": 67,
                "velocity": 101,
                "duration": 0.1341,
                "tempo": 120.0
            },
            {
                "pitch": 79,
                "velocity": 101,
                "duration": 0.1682,
                "tempo": 120.0
            },
            {
                "pitch": 67,
                "velocity": 101,
                "duration": 0.0318,
                "tempo": 120.0
            },
            {
                "pitch": 55,
                "velocity": 101,
                "duration": 0.1682,
                "tempo": 120.0
            },
            {
                "pitch": 55,
                "velocity": 101,
                "duration": 0.0023,
                "tempo": 120.0
            },
            {
                "pitch": 67,
                "velocity": 101,
                "duration": 0.1341,
                "tempo": 120.0
            },
            {
                "pitch": 79,
                "velocity": 101,
                "duration": 0.1682,
                "tempo": 120.0
            },
            {
                "pitch": 67,
                "velocity": 101,
                "duration": 0.0318,
                "tempo": 120.0
            },
            {
                "pitch": 67,
                "velocity": 101,
                "duration": 0.1341,
                "tempo": 120.0
            },
            {
                "pitch": 79,
                "velocity": 101,
                "duration": 0.1682,
                "tempo": 120.0
            },
            {
                "pitch": 79,
                "velocity": 101,
                "duration": 0.0023,
                "tempo": 120.0
            },
            {
                "pitch": 55,
                "velocity": 101,
                "duration": 0.1682,
                "tempo": 120.0
            },
            {
                "pitch": 67,
                "velocity": 101,
                "duration": 0.0318,
                "tempo": 120.0
            },
            {
                "pitch": 67,
                "velocity": 101,
                "duration": 0.1341,
                "tempo": 120.0
            },
            {
                "pitch": 55,
                "velocity": 101,
                "duration": 0.1682,
                "tempo": 120.0
            },
            {
                "pitch": 67,
                "velocity": 101,
                "duration": 0.0341,
                "tempo": 120.0
            },
            {
                "pitch": 67,
                "velocity": 101,
                "duration": 0.1341,
                "tempo": 120.0
            },
            {
                "pitch": 79,
                "velocity": 101,
                "duration": 0.1682,
                "tempo": 120.0
            },
            {
                "pitch": 55,
                "velocity": 101,
                "duration": 0.1682,
                "tempo": 120.0
            },
            {
                "pitch": 67,
                "velocity": 101,
                "duration": 0.0341,
                "tempo": 120.0
            },
            {
                "pitch": 67,
                "velocity": 101,
                "duration": 0.1341,
                "tempo": 120.0
            },
            {
                "pitch": 79,
                "velocity": 101,
                "duration": 0.1682,
                "tempo": 120.0
            },
            {
                "pitch": 55,
                "velocity": 101,
                "duration": 0.1682,
                "tempo": 120.0
            },
            {
                "pitch": 67,
                "velocity": 101,
                "duration": 0.0341,
                "tempo": 120.0
            },
            {
                "pitch": 67,
                "velocity": 101,
                "duration": 0.1341,
                "tempo": 120.0
            },
            {
                "pitch": 79,
                "velocity": 101,
                "duration": 0.1682,
                "tempo": 120.0
            },
            {
                "pitch": 55,
                "velocity": 101,
                "duration": 0.1682,
                "tempo": 120.0
            },
            {
                "pitch": 67,
                "velocity": 101,
                "duration": 0.0341,
                "tempo": 120.0
            },
            {
                "pitch": 67,
                "velocity": 101,
                "duration": 0.1341,
                "tempo": 120.0
            },
            {
                "pitch": 79,
                "velocity": 101,
                "duration": 0.1682,
                "tempo": 120.0
            },
            {
                "pitch": 55,
                "velocity": 101,
                "duration": 0.1682,
                "tempo": 120.0
            },
            {
                "pitch": 67,
                "velocity": 101,
                "duration": 0.0341,
                "tempo": 120.0
            },
            {
                "pitch": 67,
                "velocity": 101,
                "duration": 0.1341,
                "tempo": 120.0
            },
            {
                "pitch": 79,
                "velocity": 101,
                "duration": 0.1682,
                "tempo": 120.0
            },
            {
                "pitch": 67,
                "velocity": 101,
                "duration": 0.0318,
                "tempo": 120.0
            },
            {
                "pitch": 55,
                "velocity": 101,
                "duration": 0.1682,
                "tempo": 120.0
            },
            {
                "pitch": 55,
                "velocity": 101,
                "duration": 0.0023,
                "tempo": 120.0
            },
            {
                "pitch": 67,
                "velocity": 101,
                "duration": 0.1341,
                "tempo": 120.0
            },
            {
                "pitch": 79,
                "velocity": 101,
                "duration": 0.1682,
                "tempo": 120.0
            },
            {
                "pitch": 67,
                "velocity": 101,
                "duration": 0.0318,
                "tempo": 120.0
            },
            {
                "pitch": 67,
                "velocity": 101,
                "duration": 0.1341,
                "tempo": 120.0
            },
            {
                "pitch": 79,
                "velocity": 101,
                "duration": 0.1682,
                "tempo": 120.0
            },
            {
                "pitch": 79,
                "velocity": 101,
                "duration": 0.0023,
                "tempo": 120.0
            },
            {
                "pitch": 55,
                "velocity": 101,
                "duration": 0.1682,
                "tempo": 120.0
            },
            {
                "pitch": 67,
                "velocity": 101,
                "duration": 0.0318,
                "tempo": 120.0
            },
            {
                "pitch": 67,
                "velocity": 101,
                "duration": 0.0659,
                "tempo": 120.0
            },
            {
                "pitch": 65,
                "velocity": 101,
                "duration": 2.6705,
                "tempo": 120.0
            },
            {
                "pitch": 64,
                "velocity": 101,
                "duration": 0.6705,
                "tempo": 120.0
            },
            {
                "pitch": 65,
                "velocity": 101,
                "duration": 0.6705,
                "tempo": 120.0
            },
            {
                "pitch": 64,
                "velocity": 101,
                "duration": 1.3364,
                "tempo": 120.0
            },
            {
                "pitch": 74,
                "velocity": 101,
                "duration": 0.3318,
                "tempo": 120.0
            },
            {
                "pitch": 76,
                "velocity": 101,
                "duration": 0.3318,
                "tempo": 120.0
            },
            {
                "pitch": 77,
                "velocity": 101,
                "duration": 0.3364,
                "tempo": 120.0
            },
            {
                "pitch": 81,
                "velocity": 101,
                "duration": 0.3341,
                "tempo": 120.0
            },
            {
                "pitch": 76,
                "velocity": 101,
                "duration": 0.3341,
                "tempo": 120.0
            },
            {
                "pitch": 77,
                "velocity": 101,
                "duration": 0.3364,
                "tempo": 120.0
            },
            {
                "pitch": 74,
                "velocity": 101,
                "duration": 0.3364,
                "tempo": 120.0
            },
            {
                "pitch": 76,
                "velocity": 101,
                "duration": 0.3341,
                "tempo": 120.0
            },
            {
                "pitch": 74,
                "velocity": 101,
                "duration": 0.3341,
                "tempo": 120.0
            },
            {
                "pitch": 77,
                "velocity": 101,
                "duration": 0.3364,
                "tempo": 120.0
            },
            {
                "pitch": 76,
                "velocity": 101,
                "duration": 0.3318,
                "tempo": 120.0
            },
            {
                "pitch": 72,
                "velocity": 101,
                "duration": 0.3318,
                "tempo": 120.0
            },
            {
                "pitch": 74,
                "velocity": 101,
                "duration": 0.3364,
                "tempo": 120.0
            },
            {
                "pitch": 71,
                "velocity": 101,
                "duration": 0.3341,
                "tempo": 120.0
            },
            {
                "pitch": 72,
                "velocity": 101,
                "duration": 0.3341,
                "tempo": 120.0
            },
            {
                "pitch": 69,
                "velocity": 101,
                "duration": 0.3341,
                "tempo": 120.0
            },
            {
                "pitch": 74,
                "velocity": 101,
                "duration": 0.3364,
                "tempo": 120.0
            },
            {
                "pitch": 76,
                "velocity": 101,
                "duration": 0.3341,
                "tempo": 120.0
            },
            {
                "pitch": 77,
                "velocity": 101,
                "duration": 0.3318,
                "tempo": 120.0
            },
            {
                "pitch": 81,
                "velocity": 101,
                "duration": 0.3318,
                "tempo": 120.0
            },
            {
                "pitch": 76,
                "velocity": 101,
                "duration": 0.3341,
                "tempo": 120.0
            },
            {
                "pitch": 77,
                "velocity": 101,
                "duration": 0.3341,
                "tempo": 120.0
            },
            {
                "pitch": 74,
                "velocity": 101,
                "duration": 0.3341,
                "tempo": 120.0
            },
            {
                "pitch": 76,
                "velocity": 101,
                "duration": 0.3364,
                "tempo": 120.0
            },
            {
                "pitch": 74,
                "velocity": 101,
                "duration": 0.3341,
                "tempo": 120.0
            },
            {
                "pitch": 77,
                "velocity": 101,
                "duration": 0.3341,
                "tempo": 120.0
            },
            {
                "pitch": 76,
                "velocity": 101,
                "duration": 0.3295,
                "tempo": 120.0
            },
            {
                "pitch": 72,
                "velocity": 101,
                "duration": 0.3295,
                "tempo": 120.0
            },
            {
                "pitch": 74,
                "velocity": 101,
                "duration": 1.3409,
                "tempo": 120.0
            },
            {
                "pitch": 74,
                "velocity": 101,
                "duration": 0.1614,
                "tempo": 120.0
            }
        ],
        "Acoustic Bass": [
            {
                "pitch": 45,
                "velocity": 80,
                "duration": 0.6682,
                "tempo": 120.0
            },
            {
                "pitch": 45,
                "velocity": 80,
                "duration": 0.6705,
                "tempo": 120.0
            },
            {
                "pitch": 45,
                "velocity": 80,
                "duration": 0.6705,
                "tempo": 120.0
            },
            {
                "pitch": 45,
                "velocity": 80,
                "duration": 0.6705,
                "tempo": 120.0
            },
            {
                "pitch": 45,
                "velocity": 80,
                "duration": 0.6636,
                "tempo": 120.0
            },
            {
                "pitch": 45,
                "velocity": 80,
                "duration": 0.6705,
                "tempo": 120.0
            },
            {
                "pitch": 45,
                "velocity": 80,
                "duration": 0.6705,
                "tempo": 120.0
            },
            {
                "pitch": 45,
                "velocity": 80,
                "duration": 0.6705,
                "tempo": 120.0
            },
            {
                "pitch": 45,
                "velocity": 80,
                "duration": 0.6636,
                "tempo": 120.0
            },
            {
                "pitch": 45,
                "velocity": 80,
                "duration": 0.6705,
                "tempo": 120.0
            },
            {
                "pitch": 45,
                "velocity": 80,
                "duration": 0.6705,
                "tempo": 120.0
            },
            {
                "pitch": 45,
                "velocity": 80,
                "duration": 0.6705,
                "tempo": 120.0
            },
            {
                "pitch": 45,
                "velocity": 80,
                "duration": 0.6614,
                "tempo": 120.0
            },
            {
                "pitch": 45,
                "velocity": 80,
                "duration": 0.6705,
                "tempo": 120.0
            },
            {
                "pitch": 45,
                "velocity": 80,
                "duration": 0.6705,
                "tempo": 120.0
            },
            {
                "pitch": 45,
                "velocity": 80,
                "duration": 0.6727,
                "tempo": 120.0
            },
            {
                "pitch": 45,
                "velocity": 80,
                "duration": 0.3341,
                "tempo": 120.0
            },
            {
                "pitch": 50,
                "velocity": 80,
                "duration": 0.1659,
                "tempo": 120.0
            },
            {
                "pitch": 45,
                "velocity": 80,
                "duration": 0.1682,
                "tempo": 120.0
            },
            {
                "pitch": 45,
                "velocity": 80,
                "duration": 0.3341,
                "tempo": 120.0
            },
            {
                "pitch": 52,
                "velocity": 80,
                "duration": 0.1682,
                "tempo": 120.0
            },
            {
                "pitch": 45,
                "velocity": 80,
                "duration": 0.1682,
                "tempo": 120.0
            },
            {
                "pitch": 45,
                "velocity": 80,
                "duration": 0.3318,
                "tempo": 120.0
            },
            {
                "pitch": 53,
                "velocity": 80,
                "duration": 0.3318,
                "tempo": 120.0
            },
            {
                "pitch": 52,
                "velocity": 80,
                "duration": 0.3341,
                "tempo": 120.0
            },
            {
                "pitch": 50,
                "velocity": 80,
                "duration": 0.3364,
                "tempo": 120.0
            },
            {
                "pitch": 43,
                "velocity": 80,
                "duration": 0.3341,
                "tempo": 120.0
            },
            {
                "pitch": 48,
                "velocity": 80,
                "duration": 0.1659,
                "tempo": 120.0
            },
            {
                "pitch": 43,
                "velocity": 80,
                "duration": 0.1659,
                "tempo": 120.0
            },
            {
                "pitch": 43,
                "velocity": 80,
                "duration": 0.3341,
                "tempo": 120.0
            },
            {
                "pitch": 52,
                "velocity": 80,
                "duration": 0.1682,
                "tempo": 120.0
            },
            {
                "pitch": 43,
                "velocity": 80,
                "duration": 0.1682,
                "tempo": 120.0
            },
            {
                "pitch": 43,
                "velocity": 80,
                "duration": 0.3318,
                "tempo": 120.0
            },
            {
                "pitch": 52,
                "velocity": 80,
                "duration": 0.3318,
                "tempo": 120.0
            },
            {
                "pitch": 50,
                "velocity": 80,
                "duration": 0.3364,
                "tempo": 120.0
            },
            {
                "pitch": 48,
                "velocity": 80,
                "duration": 0.3364,
                "tempo": 120.0
            },
            {
                "pitch": 46,
                "velocity": 80,
                "duration": 0.3341,
                "tempo": 120.0
            },
            {
                "pitch": 50,
                "velocity": 80,
                "duration": 0.1682,
                "tempo": 120.0
            },
            {
                "pitch": 46,
                "velocity": 80,
                "duration": 0.1682,
                "tempo": 120.0
            },
            {
                "pitch": 46,
                "velocity": 80,
                "duration": 0.3364,
                "tempo": 120.0
            },
            {
                "pitch": 53,
                "velocity": 80,
                "duration": 0.1659,
                "tempo": 120.0
            },
            {
                "pitch": 46,
                "velocity": 80,
                "duration": 0.1682,
                "tempo": 120.0
            },
            {
                "pitch": 46,
                "velocity": 80,
                "duration": 0.3295,
                "tempo": 120.0
            },
            {
                "pitch": 53,
                "velocity": 80,
                "duration": 0.3318,
                "tempo": 120.0
            },
            {
                "pitch": 52,
                "velocity": 80,
                "duration": 0.3341,
                "tempo": 120.0
            },
            {
                "pitch": 50,
                "velocity": 80,
                "duration": 0.3341,
                "tempo": 120.0
            },
            {
                "pitch": 45,
                "velocity": 80,
                "duration": 0.3341,
                "tempo": 120.0
            },
            {
                "pitch": 50,
                "velocity": 80,
                "duration": 0.1682,
                "tempo": 120.0
            },
            {
                "pitch": 45,
                "velocity": 80,
                "duration": 0.1682,
                "tempo": 120.0
            },
            {
                "pitch": 45,
                "velocity": 80,
                "duration": 0.3341,
                "tempo": 120.0
            },
            {
                "pitch": 52,
                "velocity": 80,
                "duration": 0.1659,
                "tempo": 120.0
            },
            {
                "pitch": 45,
                "velocity": 80,
                "duration": 0.1659,
                "tempo": 120.0
            },
            {
                "pitch": 45,
                "velocity": 80,
                "duration": 0.3295,
                "tempo": 120.0
            },
            {
                "pitch": 53,
                "velocity": 80,
                "duration": 0.1636,
                "tempo": 120.0
            },
            {
                "pitch": 45,
                "velocity": 80,
                "duration": 0.1636,
                "tempo": 120.0
            },
            {
                "pitch": 52,
                "velocity": 80,
                "duration": 0.1659,
                "tempo": 120.0
            },
            {
                "pitch": 45,
                "velocity": 80,
                "duration": 0.1659,
                "tempo": 120.0
            },
            {
                "pitch": 53,
                "velocity": 80,
                "duration": 0.1682,
                "tempo": 120.0
            },
            {
                "pitch": 45,
                "velocity": 80,
                "duration": 0.1682,
                "tempo": 120.0
            },
            {
                "pitch": 45,
                "velocity": 80,
                "duration": 0.3341,
                "tempo": 120.0
            },
            {
                "pitch": 50,
                "velocity": 80,
                "duration": 0.1659,
                "tempo": 120.0
            },
            {
                "pitch": 45,
                "velocity": 80,
                "duration": 0.1659,
                "tempo": 120.0
            },
            {
                "pitch": 45,
                "velocity": 80,
                "duration": 0.3341,
                "tempo": 120.0
            },
            {
                "pitch": 52,
                "velocity": 80,
                "duration": 0.1682,
                "tempo": 120.0
            },
            {
                "pitch": 45,
                "velocity": 80,
                "duration": 0.1682,
                "tempo": 120.0
            },
            {
                "pitch": 45,
                "velocity": 80,
                "duration": 0.3318,
                "tempo": 120.0
            },
            {
                "pitch": 53,
                "velocity": 80,
                "duration": 0.3318,
                "tempo": 120.0
            },
            {
                "pitch": 52,
                "velocity": 80,
                "duration": 0.3341,
                "tempo": 120.0
            },
            {
                "pitch": 50,
                "velocity": 80,
                "duration": 0.3364,
                "tempo": 120.0
            },
            {
                "pitch": 43,
                "velocity": 80,
                "duration": 0.3341,
                "tempo": 120.0
            },
            {
                "pitch": 48,
                "velocity": 80,
                "duration": 0.1659,
                "tempo": 120.0
            },
            {
                "pitch": 43,
                "velocity": 80,
                "duration": 0.1682,
                "tempo": 120.0
            },
            {
                "pitch": 43,
                "velocity": 80,
                "duration": 0.3341,
                "tempo": 120.0
            },
            {
                "pitch": 52,
                "velocity": 80,
                "duration": 0.1682,
                "tempo": 120.0
            },
            {
                "pitch": 43,
                "velocity": 80,
                "duration": 0.1682,
                "tempo": 120.0
            },
            {
                "pitch": 43,
                "velocity": 80,
                "duration": 0.3318,
                "tempo": 120.0
            },
            {
                "pitch": 52,
                "velocity": 80,
                "duration": 0.3318,
                "tempo": 120.0
            },
            {
                "pitch": 50,
                "velocity": 80,
                "duration": 0.3341,
                "tempo": 120.0
            },
            {
                "pitch": 48,
                "velocity": 80,
                "duration": 0.3341,
                "tempo": 120.0
            },
            {
                "pitch": 46,
                "velocity": 80,
                "duration": 0.3341,
                "tempo": 120.0
            },
            {
                "pitch": 50,
                "velocity": 80,
                "duration": 0.1682,
                "tempo": 120.0
            },
            {
                "pitch": 46,
                "velocity": 80,
                "duration": 0.1682,
                "tempo": 120.0
            },
            {
                "pitch": 46,
                "velocity": 80,
                "duration": 0.3341,
                "tempo": 120.0
            },
            {
                "pitch": 53,
                "velocity": 80,
                "duration": 0.1659,
                "tempo": 120.0
            },
            {
                "pitch": 46,
                "velocity": 80,
                "duration": 0.1682,
                "tempo": 120.0
            },
            {
                "pitch": 46,
                "velocity": 80,
                "duration": 0.3295,
                "tempo": 120.0
            },
            {
                "pitch": 53,
                "velocity": 80,
                "duration": 0.3318,
                "tempo": 120.0
            },
            {
                "pitch": 52,
                "velocity": 80,
                "duration": 0.3341,
                "tempo": 120.0
            },
            {
                "pitch": 50,
                "velocity": 80,
                "duration": 0.3341,
                "tempo": 120.0
            },
            {
                "pitch": 45,
                "velocity": 80,
                "duration": 0.3341,
                "tempo": 120.0
            },
            {
                "pitch": 50,
                "velocity": 80,
                "duration": 0.1682,
                "tempo": 120.0
            },
            {
                "pitch": 45,
                "velocity": 80,
                "duration": 0.1682,
                "tempo": 120.0
            },
            {
                "pitch": 45,
                "velocity": 80,
                "duration": 0.3341,
                "tempo": 120.0
            },
            {
                "pitch": 52,
                "velocity": 80,
                "duration": 0.1659,
                "tempo": 120.0
            },
            {
                "pitch": 45,
                "velocity": 80,
                "duration": 0.1682,
                "tempo": 120.0
            },
            {
                "pitch": 45,
                "velocity": 80,
                "duration": 0.3295,
                "tempo": 120.0
            },
            {
                "pitch": 50,
                "velocity": 80,
                "duration": 0.1659,
                "tempo": 120.0
            },
            {
                "pitch": 45,
                "velocity": 80,
                "duration": 0.1636,
                "tempo": 120.0
            },
            {
                "pitch": 52,
                "velocity": 80,
                "duration": 0.1682,
                "tempo": 120.0
            },
            {
                "pitch": 45,
                "velocity": 80,
                "duration": 0.1682,
                "tempo": 120.0
            },
            {
                "pitch": 53,
                "velocity": 80,
                "duration": 0.1682,
                "tempo": 120.0
            },
            {
                "pitch": 45,
                "velocity": 80,
                "duration": 0.1682,
                "tempo": 120.0
            },
            {
                "pitch": 45,
                "velocity": 80,
                "duration": 0.3295,
                "tempo": 120.0
            },
            {
                "pitch": 50,
                "velocity": 80,
                "duration": 0.1636,
                "tempo": 120.0
            },
            {
                "pitch": 45,
                "velocity": 80,
                "duration": 0.1659,
                "tempo": 120.0
            },
            {
                "pitch": 45,
                "velocity": 80,
                "duration": 0.3341,
                "tempo": 120.0
            },
            {
                "pitch": 52,
                "velocity": 80,
                "duration": 0.1659,
                "tempo": 120.0
            },
            {
                "pitch": 45,
                "velocity": 80,
                "duration": 0.1659,
                "tempo": 120.0
            },
            {
                "pitch": 45,
                "velocity": 80,
                "duration": 0.3341,
                "tempo": 120.0
            },
            {
                "pitch": 53,
                "velocity": 80,
                "duration": 0.3364,
                "tempo": 120.0
            },
            {
                "pitch": 52,
                "velocity": 80,
                "duration": 0.3364,
                "tempo": 120.0
            },
            {
                "pitch": 50,
                "velocity": 80,
                "duration": 0.3364,
                "tempo": 120.0
            },
            {
                "pitch": 43,
                "velocity": 80,
                "duration": 0.3341,
                "tempo": 120.0
            },
            {
                "pitch": 48,
                "velocity": 80,
                "duration": 0.1682,
                "tempo": 120.0
            },
            {
                "pitch": 43,
                "velocity": 80,
                "duration": 0.1682,
                "tempo": 120.0
            },
            {
                "pitch": 43,
                "velocity": 80,
                "duration": 0.3341,
                "tempo": 120.0
            },
            {
                "pitch": 52,
                "velocity": 80,
                "duration": 0.1659,
                "tempo": 120.0
            },
            {
                "pitch": 43,
                "velocity": 80,
                "duration": 0.1659,
                "tempo": 120.0
            },
            {
                "pitch": 43,
                "velocity": 80,
                "duration": 0.3295,
                "tempo": 120.0
            },
            {
                "pitch": 52,
                "velocity": 80,
                "duration": 0.3318,
                "tempo": 120.0
            },
            {
                "pitch": 50,
                "velocity": 80,
                "duration": 0.3341,
                "tempo": 120.0
            },
            {
                "pitch": 48,
                "velocity": 80,
                "duration": 0.3341,
                "tempo": 120.0
            },
            {
                "pitch": 46,
                "velocity": 80,
                "duration": 0.3341,
                "tempo": 120.0
            },
            {
                "pitch": 50,
                "velocity": 80,
                "duration": 0.1659,
                "tempo": 120.0
            },
            {
                "pitch": 46,
                "velocity": 80,
                "duration": 0.1682,
                "tempo": 120.0
            },
            {
                "pitch": 46,
                "velocity": 80,
                "duration": 0.3341,
                "tempo": 120.0
            },
            {
                "pitch": 53,
                "velocity": 80,
                "duration": 0.1682,
                "tempo": 120.0
            },
            {
                "pitch": 46,
                "velocity": 80,
                "duration": 0.1682,
                "tempo": 120.0
            },
            {
                "pitch": 46,
                "velocity": 80,
                "duration": 0.3318,
                "tempo": 120.0
            },
            {
                "pitch": 53,
                "velocity": 80,
                "duration": 0.3295,
                "tempo": 120.0
            },
            {
                "pitch": 52,
                "velocity": 80,
                "duration": 0.3341,
                "tempo": 120.0
            },
            {
                "pitch": 50,
                "velocity": 80,
                "duration": 0.3364,
                "tempo": 120.0
            },
            {
                "pitch": 45,
                "velocity": 80,
                "duration": 0.3318,
                "tempo": 120.0
            },
            {
                "pitch": 50,
                "velocity": 80,
                "duration": 0.1659,
                "tempo": 120.0
            },
            {
                "pitch": 45,
                "velocity": 80,
                "duration": 0.1682,
                "tempo": 120.0
            },
            {
                "pitch": 45,
                "velocity": 80,
                "duration": 0.3295,
                "tempo": 120.0
            },
            {
                "pitch": 52,
                "velocity": 80,
                "duration": 0.1659,
                "tempo": 120.0
            },
            {
                "pitch": 45,
                "velocity": 80,
                "duration": 0.1659,
                "tempo": 120.0
            },
            {
                "pitch": 45,
                "velocity": 80,
                "duration": 0.3341,
                "tempo": 120.0
            },
            {
                "pitch": 53,
                "velocity": 80,
                "duration": 0.1682,
                "tempo": 120.0
            },
            {
                "pitch": 45,
                "velocity": 80,
                "duration": 0.1682,
                "tempo": 120.0
            },
            {
                "pitch": 52,
                "velocity": 80,
                "duration": 0.1659,
                "tempo": 120.0
            },
            {
                "pitch": 45,
                "velocity": 80,
                "duration": 0.1659,
                "tempo": 120.0
            },
            {
                "pitch": 53,
                "velocity": 80,
                "duration": 0.1659,
                "tempo": 120.0
            },
            {
                "pitch": 45,
                "velocity": 80,
                "duration": 0.1682,
                "tempo": 120.0
            },
            {
                "pitch": 45,
                "velocity": 80,
                "duration": 0.3341,
                "tempo": 120.0
            },
            {
                "pitch": 50,
                "velocity": 80,
                "duration": 0.1659,
                "tempo": 120.0
            },
            {
                "pitch": 45,
                "velocity": 80,
                "duration": 0.1682,
                "tempo": 120.0
            },
            {
                "pitch": 45,
                "velocity": 80,
                "duration": 0.3295,
                "tempo": 120.0
            },
            {
                "pitch": 52,
                "velocity": 80,
                "duration": 0.1659,
                "tempo": 120.0
            },
            {
                "pitch": 45,
                "velocity": 80,
                "duration": 0.1659,
                "tempo": 120.0
            },
            {
                "pitch": 45,
                "velocity": 80,
                "duration": 0.3341,
                "tempo": 120.0
            },
            {
                "pitch": 53,
                "velocity": 80,
                "duration": 0.3364,
                "tempo": 120.0
            },
            {
                "pitch": 52,
                "velocity": 80,
                "duration": 0.3341,
                "tempo": 120.0
            },
            {
                "pitch": 50,
                "velocity": 80,
                "duration": 0.3364,
                "tempo": 120.0
            },
            {
                "pitch": 43,
                "velocity": 80,
                "duration": 0.3341,
                "tempo": 120.0
            },
            {
                "pitch": 48,
                "velocity": 80,
                "duration": 0.1682,
                "tempo": 120.0
            },
            {
                "pitch": 43,
                "velocity": 80,
                "duration": 0.1682,
                "tempo": 120.0
            },
            {
                "pitch": 43,
                "velocity": 80,
                "duration": 0.3341,
                "tempo": 120.0
            },
            {
                "pitch": 52,
                "velocity": 80,
                "duration": 0.1659,
                "tempo": 120.0
            },
            {
                "pitch": 43,
                "velocity": 80,
                "duration": 0.1682,
                "tempo": 120.0
            },
            {
                "pitch": 43,
                "velocity": 80,
                "duration": 0.3341,
                "tempo": 120.0
            },
            {
                "pitch": 52,
                "velocity": 80,
                "duration": 0.3364,
                "tempo": 120.0
            },
            {
                "pitch": 50,
                "velocity": 80,
                "duration": 0.3341,
                "tempo": 120.0
            },
            {
                "pitch": 48,
                "velocity": 80,
                "duration": 0.3364,
                "tempo": 120.0
            },
            {
                "pitch": 46,
                "velocity": 80,
                "duration": 0.3295,
                "tempo": 120.0
            },
            {
                "pitch": 50,
                "velocity": 80,
                "duration": 0.1636,
                "tempo": 120.0
            },
            {
                "pitch": 46,
                "velocity": 80,
                "duration": 0.1682,
                "tempo": 120.0
            },
            {
                "pitch": 46,
                "velocity": 80,
                "duration": 0.3341,
                "tempo": 120.0
            },
            {
                "pitch": 53,
                "velocity": 80,
                "duration": 0.1682,
                "tempo": 120.0
            },
            {
                "pitch": 46,
                "velocity": 80,
                "duration": 0.1682,
                "tempo": 120.0
            },
            {
                "pitch": 46,
                "velocity": 80,
                "duration": 0.3318,
                "tempo": 120.0
            },
            {
                "pitch": 53,
                "velocity": 80,
                "duration": 0.3318,
                "tempo": 120.0
            },
            {
                "pitch": 52,
                "velocity": 80,
                "duration": 0.3341,
                "tempo": 120.0
            },
            {
                "pitch": 50,
                "velocity": 80,
                "duration": 0.3364,
                "tempo": 120.0
            },
            {
                "pitch": 45,
                "velocity": 80,
                "duration": 0.3318,
                "tempo": 120.0
            },
            {
                "pitch": 50,
                "velocity": 80,
                "duration": 0.1682,
                "tempo": 120.0
            },
            {
                "pitch": 45,
                "velocity": 80,
                "duration": 0.1705,
                "tempo": 120.0
            },
            {
                "pitch": 45,
                "velocity": 80,
                "duration": 0.3341,
                "tempo": 120.0
            },
            {
                "pitch": 52,
                "velocity": 80,
                "duration": 0.1659,
                "tempo": 120.0
            },
            {
                "pitch": 45,
                "velocity": 80,
                "duration": 0.1682,
                "tempo": 120.0
            },
            {
                "pitch": 45,
                "velocity": 80,
                "duration": 0.3273,
                "tempo": 120.0
            },
            {
                "pitch": 50,
                "velocity": 80,
                "duration": 0.1659,
                "tempo": 120.0
            },
            {
                "pitch": 45,
                "velocity": 80,
                "duration": 0.1659,
                "tempo": 120.0
            },
            {
                "pitch": 52,
                "velocity": 80,
                "duration": 0.1659,
                "tempo": 120.0
            },
            {
                "pitch": 45,
                "velocity": 80,
                "duration": 0.1659,
                "tempo": 120.0
            },
            {
                "pitch": 53,
                "velocity": 80,
                "duration": 0.1659,
                "tempo": 120.0
            },
            {
                "pitch": 45,
                "velocity": 80,
                "duration": 0.1682,
                "tempo": 120.0
            },
            {
                "pitch": 45,
                "velocity": 80,
                "duration": 0.6614,
                "tempo": 120.0
            },
            {
                "pitch": 45,
                "velocity": 80,
                "duration": 0.6705,
                "tempo": 120.0
            },
            {
                "pitch": 45,
                "velocity": 80,
                "duration": 0.6705,
                "tempo": 120.0
            },
            {
                "pitch": 45,
                "velocity": 80,
                "duration": 0.6705,
                "tempo": 120.0
            },
            {
                "pitch": 45,
                "velocity": 80,
                "duration": 0.6705,
                "tempo": 120.0
            },
            {
                "pitch": 45,
                "velocity": 80,
                "duration": 0.6636,
                "tempo": 120.0
            },
            {
                "pitch": 45,
                "velocity": 80,
                "duration": 0.6705,
                "tempo": 120.0
            },
            {
                "pitch": 45,
                "velocity": 80,
                "duration": 0.6705,
                "tempo": 120.0
            },
            {
                "pitch": 45,
                "velocity": 80,
                "duration": 0.6705,
                "tempo": 120.0
            },
            {
                "pitch": 45,
                "velocity": 80,
                "duration": 0.6636,
                "tempo": 120.0
            },
            {
                "pitch": 45,
                "velocity": 80,
                "duration": 0.6705,
                "tempo": 120.0
            },
            {
                "pitch": 45,
                "velocity": 80,
                "duration": 0.6727,
                "tempo": 120.0
            },
            {
                "pitch": 45,
                "velocity": 80,
                "duration": 0.6705,
                "tempo": 120.0
            },
            {
                "pitch": 45,
                "velocity": 80,
                "duration": 0.6636,
                "tempo": 120.0
            },
            {
                "pitch": 45,
                "velocity": 80,
                "duration": 0.6682,
                "tempo": 120.0
            },
            {
                "pitch": 45,
                "velocity": 80,
                "duration": 0.6705,
                "tempo": 120.0
            },
            {
                "pitch": 45,
                "velocity": 80,
                "duration": 0.1568,
                "tempo": 120.0
            }
        ],
        "Harpsichord": [
            {
                "pitch": 77,
                "velocity": 101,
                "duration": 0.1636,
                "tempo": 120.0
            },
            {
                "pitch": 81,
                "velocity": 101,
                "duration": 0.1636,
                "tempo": 120.0
            },
            {
                "pitch": 86,
                "velocity": 101,
                "duration": 0.3295,
                "tempo": 120.0
            },
            {
                "pitch": 62,
                "velocity": 101,
                "duration": 0.1682,
                "tempo": 120.0
            },
            {
                "pitch": 65,
                "velocity": 101,
                "duration": 0.1682,
                "tempo": 120.0
            },
            {
                "pitch": 62,
                "velocity": 101,
                "duration": 0.1659,
                "tempo": 120.0
            },
            {
                "pitch": 65,
                "velocity": 101,
                "duration": 0.1659,
                "tempo": 120.0
            },
            {
                "pitch": 62,
                "velocity": 101,
                "duration": 0.1659,
                "tempo": 120.0
            },
            {
                "pitch": 65,
                "velocity": 101,
                "duration": 0.1659,
                "tempo": 120.0
            },
            {
                "pitch": 69,
                "velocity": 101,
                "duration": 0.1682,
                "tempo": 120.0
            },
            {
                "pitch": 76,
                "velocity": 101,
                "duration": 0.1659,
                "tempo": 120.0
            },
            {
                "pitch": 79,
                "velocity": 101,
                "duration": 0.1682,
                "tempo": 120.0
            },
            {
                "pitch": 82,
                "velocity": 101,
                "duration": 0.3341,
                "tempo": 120.0
            },
            {
                "pitch": 60,
                "velocity": 101,
                "duration": 0.1659,
                "tempo": 120.0
            },
            {
                "pitch": 64,
                "velocity": 101,
                "duration": 0.1659,
                "tempo": 120.0
            },
            {
                "pitch": 60,
                "velocity": 101,
                "duration": 0.1659,
                "tempo": 120.0
            },
            {
                "pitch": 64,
                "velocity": 101,
                "duration": 0.1659,
                "tempo": 120.0
            },
            {
                "pitch": 60,
                "velocity": 101,
                "duration": 0.1682,
                "tempo": 120.0
            },
            {
                "pitch": 64,
                "velocity": 101,
                "duration": 0.1682,
                "tempo": 120.0
            },
            {
                "pitch": 67,
                "velocity": 101,
                "duration": 0.1682,
                "tempo": 120.0
            },
            {
                "pitch": 74,
                "velocity": 101,
                "duration": 0.1682,
                "tempo": 120.0
            },
            {
                "pitch": 77,
                "velocity": 101,
                "duration": 0.1659,
                "tempo": 120.0
            },
            {
                "pitch": 81,
                "velocity": 101,
                "duration": 0.3341,
                "tempo": 120.0
            },
            {
                "pitch": 58,
                "velocity": 101,
                "duration": 0.1659,
                "tempo": 120.0
            },
            {
                "pitch": 62,
                "velocity": 101,
                "duration": 0.1659,
                "tempo": 120.0
            },
            {
                "pitch": 58,
                "velocity": 101,
                "duration": 0.1659,
                "tempo": 120.0
            },
            {
                "pitch": 62,
                "velocity": 101,
                "duration": 0.1682,
                "tempo": 120.0
            },
            {
                "pitch": 58,
                "velocity": 101,
                "duration": 0.1682,
                "tempo": 120.0
            },
            {
                "pitch": 62,
                "velocity": 101,
                "duration": 0.1659,
                "tempo": 120.0
            },
            {
                "pitch": 65,
                "velocity": 101,
                "duration": 0.1682,
                "tempo": 120.0
            },
            {
                "pitch": 77,
                "velocity": 101,
                "duration": 0.1659,
                "tempo": 120.0
            },
            {
                "pitch": 81,
                "velocity": 101,
                "duration": 0.1682,
                "tempo": 120.0
            },
            {
                "pitch": 86,
                "velocity": 101,
                "duration": 0.3364,
                "tempo": 120.0
            },
            {
                "pitch": 62,
                "velocity": 101,
                "duration": 0.1682,
                "tempo": 120.0
            },
            {
                "pitch": 65,
                "velocity": 101,
                "duration": 0.1659,
                "tempo": 120.0
            },
            {
                "pitch": 62,
                "velocity": 101,
                "duration": 0.1659,
                "tempo": 120.0
            },
            {
                "pitch": 65,
                "velocity": 101,
                "duration": 0.1659,
                "tempo": 120.0
            },
            {
                "pitch": 62,
                "velocity": 101,
                "duration": 0.1659,
                "tempo": 120.0
            },
            {
                "pitch": 65,
                "velocity": 101,
                "duration": 0.1682,
                "tempo": 120.0
            },
            {
                "pitch": 69,
                "velocity": 101,
                "duration": 0.1682,
                "tempo": 120.0
            },
            {
                "pitch": 76,
                "velocity": 101,
                "duration": 0.1682,
                "tempo": 120.0
            },
            {
                "pitch": 79,
                "velocity": 101,
                "duration": 0.1682,
                "tempo": 120.0
            },
            {
                "pitch": 82,
                "velocity": 101,
                "duration": 0.3341,
                "tempo": 120.0
            },
            {
                "pitch": 60,
                "velocity": 101,
                "duration": 0.1682,
                "tempo": 120.0
            },
            {
                "pitch": 64,
                "velocity": 101,
                "duration": 0.1659,
                "tempo": 120.0
            },
            {
                "pitch": 60,
                "velocity": 101,
                "duration": 0.1659,
                "tempo": 120.0
            },
            {
                "pitch": 64,
                "velocity": 101,
                "duration": 0.1659,
                "tempo": 120.0
            },
            {
                "pitch": 60,
                "velocity": 101,
                "duration": 0.1659,
                "tempo": 120.0
            },
            {
                "pitch": 64,
                "velocity": 101,
                "duration": 0.1682,
                "tempo": 120.0
            },
            {
                "pitch": 67,
                "velocity": 101,
                "duration": 0.1682,
                "tempo": 120.0
            },
            {
                "pitch": 74,
                "velocity": 101,
                "duration": 0.1636,
                "tempo": 120.0
            },
            {
                "pitch": 77,
                "velocity": 101,
                "duration": 0.1659,
                "tempo": 120.0
            },
            {
                "pitch": 81,
                "velocity": 101,
                "duration": 0.3318,
                "tempo": 120.0
            },
            {
                "pitch": 58,
                "velocity": 101,
                "duration": 0.1659,
                "tempo": 120.0
            },
            {
                "pitch": 62,
                "velocity": 101,
                "duration": 0.1659,
                "tempo": 120.0
            },
            {
                "pitch": 58,
                "velocity": 101,
                "duration": 0.1659,
                "tempo": 120.0
            },
            {
                "pitch": 62,
                "velocity": 101,
                "duration": 0.1682,
                "tempo": 120.0
            },
            {
                "pitch": 58,
                "velocity": 101,
                "duration": 0.1659,
                "tempo": 120.0
            },
            {
                "pitch": 62,
                "velocity": 101,
                "duration": 0.1659,
                "tempo": 120.0
            },
            {
                "pitch": 65,
                "velocity": 101,
                "duration": 0.1659,
                "tempo": 120.0
            }
        ],
        "Lead 2 (sawtooth)": [
            {
                "pitch": 65,
                "velocity": 127,
                "duration": 0.6705,
                "tempo": 120.0
            },
            {
                "pitch": 62,
                "velocity": 127,
                "duration": 0.6705,
                "tempo": 120.0
            },
            {
                "pitch": 69,
                "velocity": 127,
                "duration": 0.6614,
                "tempo": 120.0
            },
            {
                "pitch": 65,
                "velocity": 127,
                "duration": 0.6705,
                "tempo": 120.0
            },
            {
                "pitch": 64,
                "velocity": 127,
                "duration": 0.6705,
                "tempo": 120.0
            },
            {
                "pitch": 60,
                "velocity": 127,
                "duration": 0.6705,
                "tempo": 120.0
            },
            {
                "pitch": 67,
                "velocity": 127,
                "duration": 0.2318,
                "tempo": 120.0
            },
            {
                "pitch": 67,
                "velocity": 127,
                "duration": 0.05,
                "tempo": 120.0
            },
            {
                "pitch": 67,
                "velocity": 127,
                "duration": 0.1159,
                "tempo": 120.0
            },
            {
                "pitch": 79,
                "velocity": 127,
                "duration": 0.1682,
                "tempo": 120.0
            },
            {
                "pitch": 79,
                "velocity": 127,
                "duration": 0.0023,
                "tempo": 120.0
            },
            {
                "pitch": 55,
                "velocity": 127,
                "duration": 0.1659,
                "tempo": 120.0
            },
            {
                "pitch": 67,
                "velocity": 127,
                "duration": 0.0477,
                "tempo": 120.0
            },
            {
                "pitch": 67,
                "velocity": 127,
                "duration": 0.1182,
                "tempo": 120.0
            },
            {
                "pitch": 55,
                "velocity": 127,
                "duration": 0.1659,
                "tempo": 120.0
            },
            {
                "pitch": 67,
                "velocity": 127,
                "duration": 0.0477,
                "tempo": 120.0
            },
            {
                "pitch": 67,
                "velocity": 127,
                "duration": 0.1182,
                "tempo": 120.0
            },
            {
                "pitch": 79,
                "velocity": 127,
                "duration": 0.1659,
                "tempo": 120.0
            },
            {
                "pitch": 55,
                "velocity": 127,
                "duration": 0.1682,
                "tempo": 120.0
            },
            {
                "pitch": 67,
                "velocity": 127,
                "duration": 0.05,
                "tempo": 120.0
            },
            {
                "pitch": 67,
                "velocity": 127,
                "duration": 0.1182,
                "tempo": 120.0
            },
            {
                "pitch": 79,
                "velocity": 127,
                "duration": 0.1682,
                "tempo": 120.0
            },
            {
                "pitch": 55,
                "velocity": 127,
                "duration": 0.1682,
                "tempo": 120.0
            },
            {
                "pitch": 67,
                "velocity": 127,
                "duration": 0.05,
                "tempo": 120.0
            },
            {
                "pitch": 67,
                "velocity": 127,
                "duration": 0.1182,
                "tempo": 120.0
            },
            {
                "pitch": 79,
                "velocity": 127,
                "duration": 0.1682,
                "tempo": 120.0
            },
            {
                "pitch": 55,
                "velocity": 127,
                "duration": 0.1682,
                "tempo": 120.0
            },
            {
                "pitch": 67,
                "velocity": 127,
                "duration": 0.05,
                "tempo": 120.0
            },
            {
                "pitch": 67,
                "velocity": 127,
                "duration": 0.1182,
                "tempo": 120.0
            },
            {
                "pitch": 79,
                "velocity": 127,
                "duration": 0.1682,
                "tempo": 120.0
            },
            {
                "pitch": 55,
                "velocity": 127,
                "duration": 0.1682,
                "tempo": 120.0
            },
            {
                "pitch": 67,
                "velocity": 127,
                "duration": 0.05,
                "tempo": 120.0
            },
            {
                "pitch": 67,
                "velocity": 127,
                "duration": 0.0477,
                "tempo": 120.0
            },
            {
                "pitch": 65,
                "velocity": 127,
                "duration": 0.6705,
                "tempo": 120.0
            },
            {
                "pitch": 62,
                "velocity": 127,
                "duration": 0.6682,
                "tempo": 120.0
            },
            {
                "pitch": 58,
                "velocity": 127,
                "duration": 0.6636,
                "tempo": 120.0
            },
            {
                "pitch": 60,
                "velocity": 127,
                "duration": 0.6705,
                "tempo": 120.0
            },
            {
                "pitch": 62,
                "velocity": 127,
                "duration": 0.6705,
                "tempo": 120.0
            },
            {
                "pitch": 65,
                "velocity": 127,
                "duration": 0.6705,
                "tempo": 120.0
            },
            {
                "pitch": 64,
                "velocity": 127,
                "duration": 1.3341,
                "tempo": 120.0
            },
            {
                "pitch": 65,
                "velocity": 127,
                "duration": 0.6682,
                "tempo": 120.0
            },
            {
                "pitch": 62,
                "velocity": 127,
                "duration": 0.6705,
                "tempo": 120.0
            },
            {
                "pitch": 69,
                "velocity": 127,
                "duration": 0.6636,
                "tempo": 120.0
            },
            {
                "pitch": 65,
                "velocity": 127,
                "duration": 0.6705,
                "tempo": 120.0
            },
            {
                "pitch": 64,
                "velocity": 127,
                "duration": 0.6705,
                "tempo": 120.0
            },
            {
                "pitch": 60,
                "velocity": 127,
                "duration": 0.6705,
                "tempo": 120.0
            },
            {
                "pitch": 67,
                "velocity": 127,
                "duration": 0.2318,
                "tempo": 120.0
            },
            {
                "pitch": 79,
                "velocity": 127,
                "duration": 9.7114,
                "tempo": 120.0
            },
            {
                "pitch": 55,
                "velocity": 127,
                "duration": 9.7114,
                "tempo": 120.0
            },
            {
                "pitch": 67,
                "velocity": 127,
                "duration": 0.05,
                "tempo": 120.0
            },
            {
                "pitch": 67,
                "velocity": 127,
                "duration": 0.1159,
                "tempo": 120.0
            },
            {
                "pitch": 79,
                "velocity": 127,
                "duration": 0.1659,
                "tempo": 120.0
            },
            {
                "pitch": 55,
                "velocity": 127,
                "duration": 0.1659,
                "tempo": 120.0
            },
            {
                "pitch": 67,
                "velocity": 127,
                "duration": 0.05,
                "tempo": 120.0
            },
            {
                "pitch": 67,
                "velocity": 127,
                "duration": 0.1159,
                "tempo": 120.0
            },
            {
                "pitch": 79,
                "velocity": 127,
                "duration": 0.1659,
                "tempo": 120.0
            },
            {
                "pitch": 55,
                "velocity": 127,
                "duration": 0.1659,
                "tempo": 120.0
            },
            {
                "pitch": 67,
                "velocity": 127,
                "duration": 0.05,
                "tempo": 120.0
            },
            {
                "pitch": 67,
                "velocity": 127,
                "duration": 0.1182,
                "tempo": 120.0
            },
            {
                "pitch": 79,
                "velocity": 127,
                "duration": 0.1682,
                "tempo": 120.0
            },
            {
                "pitch": 55,
                "velocity": 127,
                "duration": 0.1682,
                "tempo": 120.0
            },
            {
                "pitch": 67,
                "velocity": 127,
                "duration": 0.05,
                "tempo": 120.0
            },
            {
                "pitch": 67,
                "velocity": 127,
                "duration": 0.1182,
                "tempo": 120.0
            },
            {
                "pitch": 79,
                "velocity": 127,
                "duration": 0.1682,
                "tempo": 120.0
            },
            {
                "pitch": 55,
                "velocity": 127,
                "duration": 0.1682,
                "tempo": 120.0
            },
            {
                "pitch": 67,
                "velocity": 127,
                "duration": 0.05,
                "tempo": 120.0
            },
            {
                "pitch": 67,
                "velocity": 127,
                "duration": 0.1182,
                "tempo": 120.0
            },
            {
                "pitch": 79,
                "velocity": 127,
                "duration": 0.1682,
                "tempo": 120.0
            },
            {
                "pitch": 55,
                "velocity": 127,
                "duration": 0.1682,
                "tempo": 120.0
            },
            {
                "pitch": 67,
                "velocity": 127,
                "duration": 0.05,
                "tempo": 120.0
            },
            {
                "pitch": 67,
                "velocity": 127,
                "duration": 0.1159,
                "tempo": 120.0
            },
            {
                "pitch": 79,
                "velocity": 127,
                "duration": 0.1659,
                "tempo": 120.0
            },
            {
                "pitch": 55,
                "velocity": 127,
                "duration": 0.1682,
                "tempo": 120.0
            },
            {
                "pitch": 67,
                "velocity": 127,
                "duration": 0.0523,
                "tempo": 120.0
            },
            {
                "pitch": 67,
                "velocity": 127,
                "duration": 0.0477,
                "tempo": 120.0
            },
            {
                "pitch": 65,
                "velocity": 127,
                "duration": 0.6705,
                "tempo": 120.0
            },
            {
                "pitch": 62,
                "velocity": 127,
                "duration": 0.6705,
                "tempo": 120.0
            },
            {
                "pitch": 58,
                "velocity": 127,
                "duration": 0.6636,
                "tempo": 120.0
            },
            {
                "pitch": 60,
                "velocity": 127,
                "duration": 0.6705,
                "tempo": 120.0
            },
            {
                "pitch": 62,
                "velocity": 127,
                "duration": 0.6705,
                "tempo": 120.0
            },
            {
                "pitch": 64,
                "velocity": 127,
                "duration": 0.6705,
                "tempo": 120.0
            },
            {
                "pitch": 65,
                "velocity": 127,
                "duration": 1.3341,
                "tempo": 120.0
            }
        ]
    }
}