{
    "track_id": "25 Water Pipe",
    "mood": "angry",
    "instruments": {
        "Electric Piano 1": [
            {
                "pitch": 91,
                "velocity": 51,
                "duration": 0.0977,
                "tempo": 120.0
            },
            {
                "pitch": 91,
                "velocity": 51,
                "duration": 0.0977,
                "tempo": 120.0
            },
            {
                "pitch": 88,
                "velocity": 51,
                "duration": 0.0977,
                "tempo": 120.0
            },
            {
                "pitch": 84,
                "velocity": 51,
                "duration": 0.0977,
                "tempo": 120.0
            },
            {
                "pitch": 81,
                "velocity": 51,
                "duration": 0.0977,
                "tempo": 120.0
            },
            {
                "pitch": 77,
                "velocity": 51,
                "duration": 0.1,
                "tempo": 120.0
            },
            {
                "pitch": 76,
                "velocity": 51,
                "duration": 0.1023,
                "tempo": 120.0
            },
            {
                "pitch": 72,
                "velocity": 51,
                "duration": 0.1023,
                "tempo": 120.0
            },
            {
                "pitch": 69,
                "velocity": 51,
                "duration": 0.1023,
                "tempo": 120.0
            },
            {
                "pitch": 67,
                "velocity": 51,
                "duration": 0.1045,
                "tempo": 120.0
            },
            {
                "pitch": 67,
                "velocity": 51,
                "duration": 0.05,
                "tempo": 120.0
            },
            {
                "pitch": 69,
                "velocity": 51,
                "duration": 0.05,
                "tempo": 120.0
            },
            {
                "pitch": 72,
                "velocity": 51,
                "duration": 0.05,
                "tempo": 120.0
            },
            {
                "pitch": 76,
                "velocity": 51,
                "duration": 0.05,
                "tempo": 120.0
            },
            {
                "pitch": 77,
                "velocity": 51,
                "duration": 0.05,
                "tempo": 120.0
            },
            {
                "pitch": 81,
                "velocity": 51,
                "duration": 0.05,
                "tempo": 120.0
            },
            {
                "pitch": 84,
                "velocity": 51,
                "duration": 0.05,
                "tempo": 120.0
            },
            {
                "pitch": 88,
                "velocity": 51,
                "duration": 0.05,
                "tempo": 120.0
            },
            {
                "pitch": 90,
                "velocity": 51,
                "duration": 0.05,
                "tempo": 120.0
            },
            {
                "pitch": 93,
                "velocity": 51,
                "duration": 0.05,
                "tempo": 120.0
            },
            {
                "pitch": 79,
                "velocity": 51,
                "duration": 0.2,
                "tempo": 120.0
            },
            {
                "pitch": 86,
                "velocity": 51,
                "duration": 0.2,
                "tempo": 120.0
            },
            {
                "pitch": 79,
                "velocity": 51,
                "duration": 0.2,
                "tempo": 120.0
            },
            {
                "pitch": 82,
                "velocity": 51,
                "duration": 0.2,
                "tempo": 120.0
            },
            {
                "pitch": 79,
                "velocity": 51,
                "duration": 0.2,
                "tempo": 120.0
            },
            {
                "pitch": 84,
                "velocity": 51,
                "duration": 0.2,
                "tempo": 120.0
            },
            {
                "pitch": 79,
                "velocity": 51,
                "duration": 0.2,
                "tempo": 120.0
            },
            {
                "pitch": 79,
                "velocity": 51,
                "duration": 0.2,
                "tempo": 120.0
            },
            {
                "pitch": 86,
                "velocity": 51,
                "duration": 0.1977,
                "tempo": 120.0
            },
            {
                "pitch": 79,
                "velocity": 51,
                "duration": 0.2,
                "tempo": 120.0
            },
            {
                "pitch": 82,
                "velocity": 51,
                "duration": 0.2,
                "tempo": 120.0
            },
            {
                "pitch": 79,
                "velocity": 51,
                "duration": 0.2,
                "tempo": 120.0
            },
            {
                "pitch": 84,
                "velocity": 51,
                "duration": 0.2,
                "tempo": 120.0
            },
            {
                "pitch": 79,
                "velocity": 51,
                "duration": 0.2,
                "tempo": 120.0
            },
            {
                "pitch": 86,
                "velocity": 51,
                "duration": 0.2023,
                "tempo": 120.0
            },
            {
                "pitch": 79,
                "velocity": 51,
                "duration": 0.2,
                "tempo": 120.0
            },
            {
                "pitch": 84,
                "velocity": 51,
                "duration": 0.2,
                "tempo": 120.0
            },
            {
                "pitch": 79,
                "velocity": 51,
                "duration": 0.2,
                "tempo": 120.0
            },
            {
                "pitch": 82,
                "velocity": 51,
                "duration": 0.2,
                "tempo": 120.0
            },
            {
                "pitch": 79,
                "velocity": 51,
                "duration": 0.2,
                "tempo": 120.0
            },
            {
                "pitch": 84,
                "velocity": 51,
                "duration": 0.2,
                "tempo": 120.0
            },
            {
                "pitch": 79,
                "velocity": 51,
                "duration": 0.2,
                "tempo": 120.0
            },
            {
                "pitch": 79,
                "velocity": 51,
                "duration": 0.2,
                "tempo": 120.0
            },
            {
                "pitch": 82,
                "velocity": 51,
                "duration": 0.2,
                "tempo": 120.0
            },
            {
                "pitch": 79,
                "velocity": 51,
                "duration": 0.2023,
                "tempo": 120.0
            },
            {
                "pitch": 84,
                "velocity": 51,
                "duration": 0.2,
                "tempo": 120.0
            },
            {
                "pitch": 79,
                "velocity": 51,
                "duration": 0.2,
                "tempo": 120.0
            },
            {
                "pitch": 86,
                "velocity": 51,
                "duration": 0.2,
                "tempo": 120.0
            },
            {
                "pitch": 79,
                "velocity": 51,
                "duration": 0.2,
                "tempo": 120.0
            },
            {
                "pitch": 88,
                "velocity": 51,
                "duration": 0.2045,
                "tempo": 120.0
            },
            {
                "pitch": 81,
                "velocity": 51,
                "duration": 0.2045,
                "tempo": 120.0
            },
            {
                "pitch": 86,
                "velocity": 51,
                "duration": 0.2023,
                "tempo": 120.0
            },
            {
                "pitch": 81,
                "velocity": 51,
                "duration": 0.2023,
                "tempo": 120.0
            },
            {
                "pitch": 84,
                "velocity": 51,
                "duration": 0.1955,
                "tempo": 120.0
            },
            {
                "pitch": 81,
                "velocity": 51,
                "duration": 0.1955,
                "tempo": 120.0
            },
            {
                "pitch": 86,
                "velocity": 51,
                "duration": 0.2045,
                "tempo": 120.0
            },
            {
                "pitch": 81,
                "velocity": 51,
                "duration": 0.2068,
                "tempo": 120.0
            },
            {
                "pitch": 81,
                "velocity": 51,
                "duration": 0.2,
                "tempo": 120.0
            },
            {
                "pitch": 88,
                "velocity": 51,
                "duration": 0.2,
                "tempo": 120.0
            },
            {
                "pitch": 81,
                "velocity": 51,
                "duration": 0.2,
                "tempo": 120.0
            },
            {
                "pitch": 84,
                "velocity": 51,
                "duration": 0.2023,
                "tempo": 120.0
            },
            {
                "pitch": 81,
                "velocity": 51,
                "duration": 0.2,
                "tempo": 120.0
            },
            {
                "pitch": 86,
                "velocity": 51,
                "duration": 0.2,
                "tempo": 120.0
            },
            {
                "pitch": 81,
                "velocity": 51,
                "duration": 0.2,
                "tempo": 120.0
            },
            {
                "pitch": 88,
                "velocity": 51,
                "duration": 0.2,
                "tempo": 120.0
            },
            {
                "pitch": 81,
                "velocity": 51,
                "duration": 0.2,
                "tempo": 120.0
            },
            {
                "pitch": 86,
                "velocity": 51,
                "duration": 0.2,
                "tempo": 120.0
            },
            {
                "pitch": 81,
                "velocity": 51,
                "duration": 0.2,
                "tempo": 120.0
            },
            {
                "pitch": 84,
                "velocity": 51,
                "duration": 0.2,
                "tempo": 120.0
            },
            {
                "pitch": 81,
                "velocity": 51,
                "duration": 0.2,
                "tempo": 120.0
            },
            {
                "pitch": 86,
                "velocity": 51,
                "duration": 0.2023,
                "tempo": 120.0
            },
            {
                "pitch": 81,
                "velocity": 51,
                "duration": 0.2023,
                "tempo": 120.0
            },
            {
                "pitch": 81,
                "velocity": 40,
                "duration": 0.2,
                "tempo": 120.0
            },
            {
                "pitch": 91,
                "velocity": 51,
                "duration": 0.1,
                "tempo": 120.0
            },
            {
                "pitch": 91,
                "velocity": 51,
                "duration": 0.1,
                "tempo": 120.0
            },
            {
                "pitch": 88,
                "velocity": 51,
                "duration": 0.1,
                "tempo": 120.0
            },
            {
                "pitch": 84,
                "velocity": 51,
                "duration": 0.1,
                "tempo": 120.0
            },
            {
                "pitch": 81,
                "velocity": 51,
                "duration": 0.1,
                "tempo": 120.0
            },
            {
                "pitch": 77,
                "velocity": 51,
                "duration": 0.1,
                "tempo": 120.0
            },
            {
                "pitch": 76,
                "velocity": 51,
                "duration": 0.1,
                "tempo": 120.0
            },
            {
                "pitch": 72,
                "velocity": 51,
                "duration": 0.1,
                "tempo": 120.0
            },
            {
                "pitch": 69,
                "velocity": 51,
                "duration": 0.1,
                "tempo": 120.0
            },
            {
                "pitch": 67,
                "velocity": 51,
                "duration": 0.1,
                "tempo": 120.0
            },
            {
                "pitch": 67,
                "velocity": 51,
                "duration": 0.05,
                "tempo": 120.0
            },
            {
                "pitch": 69,
                "velocity": 51,
                "duration": 0.05,
                "tempo": 120.0
            },
            {
                "pitch": 72,
                "velocity": 51,
                "duration": 0.05,
                "tempo": 120.0
            },
            {
                "pitch": 76,
                "velocity": 51,
                "duration": 0.05,
                "tempo": 120.0
            },
            {
                "pitch": 77,
                "velocity": 51,
                "duration": 0.05,
                "tempo": 120.0
            },
            {
                "pitch": 81,
                "velocity": 51,
                "duration": 0.05,
                "tempo": 120.0
            },
            {
                "pitch": 84,
                "velocity": 51,
                "duration": 0.05,
                "tempo": 120.0
            },
            {
                "pitch": 88,
                "velocity": 51,
                "duration": 0.05,
                "tempo": 120.0
            },
            {
                "pitch": 90,
                "velocity": 51,
                "duration": 0.05,
                "tempo": 120.0
            },
            {
                "pitch": 93,
                "velocity": 51,
                "duration": 0.05,
                "tempo": 120.0
            }
        ],
        "Violin": [
            {
                "pitch": 33,
                "velocity": 101,
                "duration": 0.1318,
                "tempo": 120.0
            },
            {
                "pitch": 33,
                "velocity": 51,
                "duration": 0.1341,
                "tempo": 120.0
            },
            {
                "pitch": 33,
                "velocity": 32,
                "duration": 0.1341,
                "tempo": 120.0
            },
            {
                "pitch": 33,
                "velocity": 101,
                "duration": 0.1341,
                "tempo": 120.0
            },
            {
                "pitch": 33,
                "velocity": 51,
                "duration": 0.1318,
                "tempo": 120.0
            },
            {
                "pitch": 33,
                "velocity": 32,
                "duration": 0.1318,
                "tempo": 120.0
            },
            {
                "pitch": 33,
                "velocity": 32,
                "duration": 0.1318,
                "tempo": 120.0
            },
            {
                "pitch": 33,
                "velocity": 101,
                "duration": 0.1318,
                "tempo": 120.0
            },
            {
                "pitch": 33,
                "velocity": 51,
                "duration": 0.1318,
                "tempo": 120.0
            },
            {
                "pitch": 33,
                "velocity": 32,
                "duration": 0.1318,
                "tempo": 120.0
            },
            {
                "pitch": 33,
                "velocity": 101,
                "duration": 0.4,
                "tempo": 120.0
            },
            {
                "pitch": 33,
                "velocity": 101,
                "duration": 0.1,
                "tempo": 120.0
            },
            {
                "pitch": 33,
                "velocity": 51,
                "duration": 0.1,
                "tempo": 120.0
            },
            {
                "pitch": 34,
                "velocity": 101,
                "duration": 0.4,
                "tempo": 120.0
            },
            {
                "pitch": 33,
                "velocity": 101,
                "duration": 0.1295,
                "tempo": 120.0
            },
            {
                "pitch": 33,
                "velocity": 51,
                "duration": 0.1318,
                "tempo": 120.0
            },
            {
                "pitch": 33,
                "velocity": 32,
                "duration": 0.1318,
                "tempo": 120.0
            },
            {
                "pitch": 33,
                "velocity": 101,
                "duration": 0.1341,
                "tempo": 120.0
            },
            {
                "pitch": 33,
                "velocity": 51,
                "duration": 0.1341,
                "tempo": 120.0
            },
            {
                "pitch": 33,
                "velocity": 32,
                "duration": 0.1295,
                "tempo": 120.0
            },
            {
                "pitch": 33,
                "velocity": 32,
                "duration": 0.1273,
                "tempo": 120.0
            },
            {
                "pitch": 33,
                "velocity": 101,
                "duration": 0.1386,
                "tempo": 120.0
            },
            {
                "pitch": 33,
                "velocity": 51,
                "duration": 0.1386,
                "tempo": 120.0
            },
            {
                "pitch": 33,
                "velocity": 32,
                "duration": 0.1295,
                "tempo": 120.0
            },
            {
                "pitch": 33,
                "velocity": 101,
                "duration": 0.3909,
                "tempo": 120.0
            },
            {
                "pitch": 33,
                "velocity": 101,
                "duration": 0.0977,
                "tempo": 120.0
            },
            {
                "pitch": 33,
                "velocity": 51,
                "duration": 0.1,
                "tempo": 120.0
            },
            {
                "pitch": 34,
                "velocity": 101,
                "duration": 0.4023,
                "tempo": 120.0
            },
            {
                "pitch": 35,
                "velocity": 101,
                "duration": 0.1295,
                "tempo": 120.0
            },
            {
                "pitch": 35,
                "velocity": 51,
                "duration": 0.1318,
                "tempo": 120.0
            },
            {
                "pitch": 35,
                "velocity": 32,
                "duration": 0.1318,
                "tempo": 120.0
            },
            {
                "pitch": 35,
                "velocity": 101,
                "duration": 0.1318,
                "tempo": 120.0
            },
            {
                "pitch": 35,
                "velocity": 51,
                "duration": 0.1341,
                "tempo": 120.0
            },
            {
                "pitch": 35,
                "velocity": 32,
                "duration": 0.1341,
                "tempo": 120.0
            },
            {
                "pitch": 35,
                "velocity": 32,
                "duration": 0.1295,
                "tempo": 120.0
            },
            {
                "pitch": 35,
                "velocity": 101,
                "duration": 0.1318,
                "tempo": 120.0
            },
            {
                "pitch": 35,
                "velocity": 51,
                "duration": 0.1318,
                "tempo": 120.0
            },
            {
                "pitch": 35,
                "velocity": 32,
                "duration": 0.1318,
                "tempo": 120.0
            },
            {
                "pitch": 35,
                "velocity": 101,
                "duration": 0.4023,
                "tempo": 120.0
            },
            {
                "pitch": 35,
                "velocity": 101,
                "duration": 0.1,
                "tempo": 120.0
            },
            {
                "pitch": 35,
                "velocity": 51,
                "duration": 0.1023,
                "tempo": 120.0
            },
            {
                "pitch": 36,
                "velocity": 101,
                "duration": 0.3977,
                "tempo": 120.0
            },
            {
                "pitch": 35,
                "velocity": 101,
                "duration": 0.1273,
                "tempo": 120.0
            },
            {
                "pitch": 35,
                "velocity": 51,
                "duration": 0.1341,
                "tempo": 120.0
            },
            {
                "pitch": 35,
                "velocity": 32,
                "duration": 0.1364,
                "tempo": 120.0
            },
            {
                "pitch": 35,
                "velocity": 101,
                "duration": 0.1341,
                "tempo": 120.0
            },
            {
                "pitch": 35,
                "velocity": 51,
                "duration": 0.1364,
                "tempo": 120.0
            },
            {
                "pitch": 35,
                "velocity": 32,
                "duration": 0.1295,
                "tempo": 120.0
            },
            {
                "pitch": 35,
                "velocity": 32,
                "duration": 0.1295,
                "tempo": 120.0
            },
            {
                "pitch": 35,
                "velocity": 101,
                "duration": 0.1341,
                "tempo": 120.0
            },
            {
                "pitch": 35,
                "velocity": 51,
                "duration": 0.1341,
                "tempo": 120.0
            },
            {
                "pitch": 35,
                "velocity": 32,
                "duration": 0.1273,
                "tempo": 120.0
            },
            {
                "pitch": 35,
                "velocity": 101,
                "duration": 0.3977,
                "tempo": 120.0
            },
            {
                "pitch": 35,
                "velocity": 101,
                "duration": 0.1,
                "tempo": 120.0
            },
            {
                "pitch": 35,
                "velocity": 51,
                "duration": 0.1023,
                "tempo": 120.0
            },
            {
                "pitch": 36,
                "velocity": 101,
                "duration": 0.4114,
                "tempo": 120.0
            },
            {
                "pitch": 37,
                "velocity": 101,
                "duration": 0.1273,
                "tempo": 120.0
            },
            {
                "pitch": 37,
                "velocity": 51,
                "duration": 0.1295,
                "tempo": 120.0
            },
            {
                "pitch": 37,
                "velocity": 32,
                "duration": 0.1341,
                "tempo": 120.0
            },
            {
                "pitch": 37,
                "velocity": 101,
                "duration": 0.1318,
                "tempo": 120.0
            },
            {
                "pitch": 37,
                "velocity": 51,
                "duration": 0.1318,
                "tempo": 120.0
            },
            {
                "pitch": 37,
                "velocity": 32,
                "duration": 0.1318,
                "tempo": 120.0
            },
            {
                "pitch": 37,
                "velocity": 32,
                "duration": 0.1318,
                "tempo": 120.0
            },
            {
                "pitch": 37,
                "velocity": 101,
                "duration": 0.1318,
                "tempo": 120.0
            },
            {
                "pitch": 37,
                "velocity": 51,
                "duration": 0.1341,
                "tempo": 120.0
            },
            {
                "pitch": 37,
                "velocity": 32,
                "duration": 0.1341,
                "tempo": 120.0
            },
            {
                "pitch": 37,
                "velocity": 101,
                "duration": 0.3909,
                "tempo": 120.0
            },
            {
                "pitch": 37,
                "velocity": 101,
                "duration": 0.1023,
                "tempo": 120.0
            },
            {
                "pitch": 37,
                "velocity": 51,
                "duration": 0.1045,
                "tempo": 120.0
            },
            {
                "pitch": 38,
                "velocity": 101,
                "duration": 0.4068,
                "tempo": 120.0
            },
            {
                "pitch": 37,
                "velocity": 101,
                "duration": 0.1295,
                "tempo": 120.0
            },
            {
                "pitch": 37,
                "velocity": 51,
                "duration": 0.1341,
                "tempo": 120.0
            },
            {
                "pitch": 37,
                "velocity": 32,
                "duration": 0.1318,
                "tempo": 120.0
            },
            {
                "pitch": 37,
                "velocity": 101,
                "duration": 0.1318,
                "tempo": 120.0
            },
            {
                "pitch": 37,
                "velocity": 51,
                "duration": 0.1318,
                "tempo": 120.0
            },
            {
                "pitch": 37,
                "velocity": 32,
                "duration": 0.1318,
                "tempo": 120.0
            },
            {
                "pitch": 37,
                "velocity": 32,
                "duration": 0.1318,
                "tempo": 120.0
            },
            {
                "pitch": 37,
                "velocity": 101,
                "duration": 0.1364,
                "tempo": 120.0
            },
            {
                "pitch": 37,
                "velocity": 51,
                "duration": 0.1341,
                "tempo": 120.0
            },
            {
                "pitch": 37,
                "velocity": 32,
                "duration": 0.1295,
                "tempo": 120.0
            },
            {
                "pitch": 37,
                "velocity": 101,
                "duration": 0.3955,
                "tempo": 120.0
            },
            {
                "pitch": 37,
                "velocity": 101,
                "duration": 0.1,
                "tempo": 120.0
            },
            {
                "pitch": 37,
                "velocity": 51,
                "duration": 0.1,
                "tempo": 120.0
            },
            {
                "pitch": 37,
                "velocity": 101,
                "duration": 0.4091,
                "tempo": 120.0
            },
            {
                "pitch": 37,
                "velocity": 101,
                "duration": 1.5955,
                "tempo": 120.0
            },
            {
                "pitch": 36,
                "velocity": 101,
                "duration": 1.6068,
                "tempo": 120.0
            },
            {
                "pitch": 35,
                "velocity": 101,
                "duration": 0.8114,
                "tempo": 120.0
            },
            {
                "pitch": 30,
                "velocity": 101,
                "duration": 1.6068,
                "tempo": 120.0
            },
            {
                "pitch": 31,
                "velocity": 101,
                "duration": 0.8,
                "tempo": 120.0
            },
            {
                "pitch": 25,
                "velocity": 101,
                "duration": 1.6068,
                "tempo": 120.0
            },
            {
                "pitch": 24,
                "velocity": 101,
                "duration": 1.6136,
                "tempo": 120.0
            },
            {
                "pitch": 23,
                "velocity": 101,
                "duration": 0.8023,
                "tempo": 120.0
            },
            {
                "pitch": 29,
                "velocity": 101,
                "duration": 1.5977,
                "tempo": 120.0
            },
            {
                "pitch": 29,
                "velocity": 101,
                "duration": 0.8114,
                "tempo": 120.0
            },
            {
                "pitch": 37,
                "velocity": 101,
                "duration": 1.6045,
                "tempo": 120.0
            },
            {
                "pitch": 36,
                "velocity": 101,
                "duration": 1.6,
                "tempo": 120.0
            },
            {
                "pitch": 35,
                "velocity": 101,
                "duration": 0.8023,
                "tempo": 120.0
            },
            {
                "pitch": 30,
                "velocity": 101,
                "duration": 1.6045,
                "tempo": 120.0
            },
            {
                "pitch": 31,
                "velocity": 101,
                "duration": 0.8023,
                "tempo": 120.0
            },
            {
                "pitch": 25,
                "velocity": 101,
                "duration": 1.6182,
                "tempo": 120.0
            },
            {
                "pitch": 24,
                "velocity": 101,
                "duration": 1.6045,
                "tempo": 120.0
            },
            {
                "pitch": 23,
                "velocity": 101,
                "duration": 0.8,
                "tempo": 120.0
            },
            {
                "pitch": 29,
                "velocity": 101,
                "duration": 1.6045,
                "tempo": 120.0
            },
            {
                "pitch": 29,
                "velocity": 101,
                "duration": 0.8045,
                "tempo": 120.0
            },
            {
                "pitch": 33,
                "velocity": 101,
                "duration": 0.1318,
                "tempo": 120.0
            },
            {
                "pitch": 33,
                "velocity": 51,
                "duration": 0.1341,
                "tempo": 120.0
            },
            {
                "pitch": 33,
                "velocity": 32,
                "duration": 0.1273,
                "tempo": 120.0
            },
            {
                "pitch": 33,
                "velocity": 101,
                "duration": 0.1273,
                "tempo": 120.0
            },
            {
                "pitch": 33,
                "velocity": 51,
                "duration": 0.1318,
                "tempo": 120.0
            },
            {
                "pitch": 33,
                "velocity": 32,
                "duration": 0.1318,
                "tempo": 120.0
            },
            {
                "pitch": 33,
                "velocity": 32,
                "duration": 0.1295,
                "tempo": 120.0
            },
            {
                "pitch": 33,
                "velocity": 101,
                "duration": 0.1295,
                "tempo": 120.0
            },
            {
                "pitch": 33,
                "velocity": 51,
                "duration": 0.1341,
                "tempo": 120.0
            },
            {
                "pitch": 33,
                "velocity": 32,
                "duration": 0.1364,
                "tempo": 120.0
            },
            {
                "pitch": 33,
                "velocity": 101,
                "duration": 0.4,
                "tempo": 120.0
            },
            {
                "pitch": 33,
                "velocity": 101,
                "duration": 0.1,
                "tempo": 120.0
            },
            {
                "pitch": 33,
                "velocity": 51,
                "duration": 0.1,
                "tempo": 120.0
            },
            {
                "pitch": 34,
                "velocity": 101,
                "duration": 0.4023,
                "tempo": 120.0
            },
            {
                "pitch": 33,
                "velocity": 101,
                "duration": 0.1295,
                "tempo": 120.0
            },
            {
                "pitch": 33,
                "velocity": 51,
                "duration": 0.1318,
                "tempo": 120.0
            },
            {
                "pitch": 33,
                "velocity": 32,
                "duration": 0.1295,
                "tempo": 120.0
            },
            {
                "pitch": 33,
                "velocity": 101,
                "duration": 0.1318,
                "tempo": 120.0
            },
            {
                "pitch": 33,
                "velocity": 51,
                "duration": 0.1341,
                "tempo": 120.0
            },
            {
                "pitch": 33,
                "velocity": 32,
                "duration": 0.1318,
                "tempo": 120.0
            },
            {
                "pitch": 33,
                "velocity": 32,
                "duration": 0.1318,
                "tempo": 120.0
            },
            {
                "pitch": 33,
                "velocity": 101,
                "duration": 0.1364,
                "tempo": 120.0
            },
            {
                "pitch": 33,
                "velocity": 51,
                "duration": 0.1341,
                "tempo": 120.0
            },
            {
                "pitch": 33,
                "velocity": 32,
                "duration": 0.1295,
                "tempo": 120.0
            },
            {
                "pitch": 33,
                "velocity": 101,
                "duration": 0.3955,
                "tempo": 120.0
            },
            {
                "pitch": 33,
                "velocity": 101,
                "duration": 0.1,
                "tempo": 120.0
            },
            {
                "pitch": 33,
                "velocity": 51,
                "duration": 0.1,
                "tempo": 120.0
            },
            {
                "pitch": 34,
                "velocity": 101,
                "duration": 0.4023,
                "tempo": 120.0
            },
            {
                "pitch": 35,
                "velocity": 101,
                "duration": 0.1295,
                "tempo": 120.0
            },
            {
                "pitch": 35,
                "velocity": 51,
                "duration": 0.1318,
                "tempo": 120.0
            },
            {
                "pitch": 35,
                "velocity": 32,
                "duration": 0.1318,
                "tempo": 120.0
            },
            {
                "pitch": 35,
                "velocity": 101,
                "duration": 0.1318,
                "tempo": 120.0
            },
            {
                "pitch": 35,
                "velocity": 51,
                "duration": 0.1318,
                "tempo": 120.0
            },
            {
                "pitch": 35,
                "velocity": 32,
                "duration": 0.1318,
                "tempo": 120.0
            },
            {
                "pitch": 35,
                "velocity": 32,
                "duration": 0.1318,
                "tempo": 120.0
            },
            {
                "pitch": 35,
                "velocity": 101,
                "duration": 0.1318,
                "tempo": 120.0
            },
            {
                "pitch": 35,
                "velocity": 51,
                "duration": 0.1318,
                "tempo": 120.0
            },
            {
                "pitch": 35,
                "velocity": 32,
                "duration": 0.1318,
                "tempo": 120.0
            },
            {
                "pitch": 35,
                "velocity": 101,
                "duration": 0.4,
                "tempo": 120.0
            },
            {
                "pitch": 35,
                "velocity": 101,
                "duration": 0.1,
                "tempo": 120.0
            },
            {
                "pitch": 35,
                "velocity": 51,
                "duration": 0.1,
                "tempo": 120.0
            },
            {
                "pitch": 36,
                "velocity": 101,
                "duration": 0.4,
                "tempo": 120.0
            },
            {
                "pitch": 35,
                "velocity": 101,
                "duration": 0.1295,
                "tempo": 120.0
            },
            {
                "pitch": 35,
                "velocity": 51,
                "duration": 0.1341,
                "tempo": 120.0
            },
            {
                "pitch": 35,
                "velocity": 32,
                "duration": 0.1341,
                "tempo": 120.0
            },
            {
                "pitch": 35,
                "velocity": 101,
                "duration": 0.1295,
                "tempo": 120.0
            },
            {
                "pitch": 35,
                "velocity": 51,
                "duration": 0.1318,
                "tempo": 120.0
            },
            {
                "pitch": 35,
                "velocity": 32,
                "duration": 0.1318,
                "tempo": 120.0
            },
            {
                "pitch": 35,
                "velocity": 32,
                "duration": 0.1318,
                "tempo": 120.0
            },
            {
                "pitch": 35,
                "velocity": 101,
                "duration": 0.1341,
                "tempo": 120.0
            },
            {
                "pitch": 35,
                "velocity": 51,
                "duration": 0.1341,
                "tempo": 120.0
            },
            {
                "pitch": 35,
                "velocity": 32,
                "duration": 0.1295,
                "tempo": 120.0
            },
            {
                "pitch": 35,
                "velocity": 101,
                "duration": 0.3955,
                "tempo": 120.0
            },
            {
                "pitch": 35,
                "velocity": 101,
                "duration": 0.1,
                "tempo": 120.0
            },
            {
                "pitch": 35,
                "velocity": 51,
                "duration": 0.1,
                "tempo": 120.0
            },
            {
                "pitch": 36,
                "velocity": 101,
                "duration": 0.4114,
                "tempo": 120.0
            },
            {
                "pitch": 37,
                "velocity": 101,
                "duration": 0.1273,
                "tempo": 120.0
            },
            {
                "pitch": 37,
                "velocity": 51,
                "duration": 0.1295,
                "tempo": 120.0
            },
            {
                "pitch": 37,
                "velocity": 32,
                "duration": 0.1318,
                "tempo": 120.0
            },
            {
                "pitch": 37,
                "velocity": 101,
                "duration": 0.1318,
                "tempo": 120.0
            },
            {
                "pitch": 37,
                "velocity": 51,
                "duration": 0.1318,
                "tempo": 120.0
            },
            {
                "pitch": 37,
                "velocity": 32,
                "duration": 0.1318,
                "tempo": 120.0
            },
            {
                "pitch": 37,
                "velocity": 32,
                "duration": 0.1295,
                "tempo": 120.0
            },
            {
                "pitch": 37,
                "velocity": 101,
                "duration": 0.1295,
                "tempo": 120.0
            },
            {
                "pitch": 37,
                "velocity": 51,
                "duration": 0.1295,
                "tempo": 120.0
            },
            {
                "pitch": 37,
                "velocity": 32,
                "duration": 0.1318,
                "tempo": 120.0
            },
            {
                "pitch": 37,
                "velocity": 101,
                "duration": 0.4,
                "tempo": 120.0
            },
            {
                "pitch": 37,
                "velocity": 101,
                "duration": 0.1,
                "tempo": 120.0
            },
            {
                "pitch": 37,
                "velocity": 51,
                "duration": 0.1,
                "tempo": 120.0
            },
            {
                "pitch": 38,
                "velocity": 101,
                "duration": 0.4023,
                "tempo": 120.0
            },
            {
                "pitch": 37,
                "velocity": 101,
                "duration": 0.1295,
                "tempo": 120.0
            },
            {
                "pitch": 37,
                "velocity": 51,
                "duration": 0.1341,
                "tempo": 120.0
            },
            {
                "pitch": 37,
                "velocity": 32,
                "duration": 0.1364,
                "tempo": 120.0
            },
            {
                "pitch": 37,
                "velocity": 101,
                "duration": 0.1318,
                "tempo": 120.0
            },
            {
                "pitch": 37,
                "velocity": 51,
                "duration": 0.1318,
                "tempo": 120.0
            },
            {
                "pitch": 37,
                "velocity": 32,
                "duration": 0.1318,
                "tempo": 120.0
            },
            {
                "pitch": 37,
                "velocity": 32,
                "duration": 0.1318,
                "tempo": 120.0
            },
            {
                "pitch": 37,
                "velocity": 101,
                "duration": 0.1341,
                "tempo": 120.0
            },
            {
                "pitch": 37,
                "velocity": 51,
                "duration": 0.1341,
                "tempo": 120.0
            },
            {
                "pitch": 37,
                "velocity": 32,
                "duration": 0.1295,
                "tempo": 120.0
            },
            {
                "pitch": 37,
                "velocity": 101,
                "duration": 0.3955,
                "tempo": 120.0
            },
            {
                "pitch": 37,
                "velocity": 101,
                "duration": 0.1,
                "tempo": 120.0
            },
            {
                "pitch": 37,
                "velocity": 51,
                "duration": 0.1,
                "tempo": 120.0
            },
            {
                "pitch": 37,
                "velocity": 101,
                "duration": 0.4114,
                "tempo": 120.0
            },
            {
                "pitch": 37,
                "velocity": 101,
                "duration": 1.5955,
                "tempo": 120.0
            },
            {
                "pitch": 36,
                "velocity": 101,
                "duration": 1.6068,
                "tempo": 120.0
            },
            {
                "pitch": 35,
                "velocity": 101,
                "duration": 0.8023,
                "tempo": 120.0
            },
            {
                "pitch": 30,
                "velocity": 101,
                "duration": 1.6091,
                "tempo": 120.0
            },
            {
                "pitch": 31,
                "velocity": 101,
                "duration": 0.8114,
                "tempo": 120.0
            },
            {
                "pitch": 25,
                "velocity": 101,
                "duration": 1.6091,
                "tempo": 120.0
            },
            {
                "pitch": 24,
                "velocity": 101,
                "duration": 1.6068,
                "tempo": 120.0
            },
            {
                "pitch": 23,
                "velocity": 101,
                "duration": 0.8045,
                "tempo": 120.0
            },
            {
                "pitch": 29,
                "velocity": 101,
                "duration": 1.6091,
                "tempo": 120.0
            },
            {
                "pitch": 29,
                "velocity": 101,
                "duration": 0.8045,
                "tempo": 120.0
            },
            {
                "pitch": 37,
                "velocity": 101,
                "duration": 0.1114,
                "tempo": 120.0
            }
        ]
    }
}