{
    "track_id": "Alex Kidd - The Lost Stars (FM) - 06 - Water World",
    "mood": "happy",
    "instruments": {
        "Clarinet": [
            {
                "pitch": 73,
                "velocity": 64,
                "duration": 0.1205,
                "tempo": 120.0
            },
            {
                "pitch": 75,
                "velocity": 64,
                "duration": 0.1182,
                "tempo": 120.0
            },
            {
                "pitch": 78,
                "velocity": 64,
                "duration": 0.1159,
                "tempo": 120.0
            },
            {
                "pitch": 78,
                "velocity": 64,
                "duration": 0.1159,
                "tempo": 120.0
            },
            {
                "pitch": 73,
                "velocity": 64,
                "duration": 0.1182,
                "tempo": 120.0
            },
            {
                "pitch": 73,
                "velocity": 64,
                "duration": 0.1159,
                "tempo": 120.0
            },
            {
                "pitch": 73,
                "velocity": 64,
                "duration": 0.1159,
                "tempo": 120.0
            },
            {
                "pitch": 75,
                "velocity": 64,
                "duration": 0.1159,
                "tempo": 120.0
            },
            {
                "pitch": 78,
                "velocity": 64,
                "duration": 0.1182,
                "tempo": 120.0
            },
            {
                "pitch": 78,
                "velocity": 64,
                "duration": 0.1182,
                "tempo": 120.0
            },
            {
                "pitch": 80,
                "velocity": 64,
                "duration": 0.05,
                "tempo": 120.0
            },
            {
                "pitch": 81,
                "velocity": 64,
                "duration": 0.0523,
                "tempo": 120.0
            },
            {
                "pitch": 80,
                "velocity": 64,
                "duration": 0.1182,
                "tempo": 120.0
            },
            {
                "pitch": 78,
                "velocity": 64,
                "duration": 0.1182,
                "tempo": 120.0
            },
            {
                "pitch": 73,
                "velocity": 64,
                "duration": 0.1182,
                "tempo": 120.0
            },
            {
                "pitch": 73,
                "velocity": 64,
                "duration": 0.1159,
                "tempo": 120.0
            },
            {
                "pitch": 75,
                "velocity": 64,
                "duration": 0.1159,
                "tempo": 120.0
            },
            {
                "pitch": 78,
                "velocity": 64,
                "duration": 0.1182,
                "tempo": 120.0
            },
            {
                "pitch": 78,
                "velocity": 64,
                "duration": 0.1182,
                "tempo": 120.0
            },
            {
                "pitch": 73,
                "velocity": 64,
                "duration": 0.1182,
                "tempo": 120.0
            },
            {
                "pitch": 73,
                "velocity": 64,
                "duration": 0.1159,
                "tempo": 120.0
            },
            {
                "pitch": 73,
                "velocity": 64,
                "duration": 0.1159,
                "tempo": 120.0
            },
            {
                "pitch": 75,
                "velocity": 64,
                "duration": 0.1182,
                "tempo": 120.0
            },
            {
                "pitch": 78,
                "velocity": 64,
                "duration": 0.1182,
                "tempo": 120.0
            },
            {
                "pitch": 78,
                "velocity": 64,
                "duration": 0.1182,
                "tempo": 120.0
            },
            {
                "pitch": 80,
                "velocity": 64,
                "duration": 0.05,
                "tempo": 120.0
            },
            {
                "pitch": 81,
                "velocity": 64,
                "duration": 0.1159,
                "tempo": 120.0
            },
            {
                "pitch": 80,
                "velocity": 64,
                "duration": 0.1182,
                "tempo": 120.0
            },
            {
                "pitch": 78,
                "velocity": 64,
                "duration": 0.1159,
                "tempo": 120.0
            },
            {
                "pitch": 79,
                "velocity": 64,
                "duration": 0.1159,
                "tempo": 120.0
            },
            {
                "pitch": 80,
                "velocity": 64,
                "duration": 0.1159,
                "tempo": 120.0
            },
            {
                "pitch": 79,
                "velocity": 64,
                "duration": 0.1136,
                "tempo": 120.0
            },
            {
                "pitch": 80,
                "velocity": 64,
                "duration": 0.1205,
                "tempo": 120.0
            },
            {
                "pitch": 79,
                "velocity": 64,
                "duration": 0.1136,
                "tempo": 120.0
            },
            {
                "pitch": 80,
                "velocity": 64,
                "duration": 0.1159,
                "tempo": 120.0
            },
            {
                "pitch": 83,
                "velocity": 64,
                "duration": 0.1159,
                "tempo": 120.0
            },
            {
                "pitch": 83,
                "velocity": 64,
                "duration": 0.1159,
                "tempo": 120.0
            },
            {
                "pitch": 80,
                "velocity": 64,
                "duration": 0.1182,
                "tempo": 120.0
            },
            {
                "pitch": 79,
                "velocity": 64,
                "duration": 0.1205,
                "tempo": 120.0
            },
            {
                "pitch": 81,
                "velocity": 64,
                "duration": 0.1159,
                "tempo": 120.0
            },
            {
                "pitch": 82,
                "velocity": 64,
                "duration": 0.1159,
                "tempo": 120.0
            },
            {
                "pitch": 81,
                "velocity": 64,
                "duration": 0.1136,
                "tempo": 120.0
            },
            {
                "pitch": 82,
                "velocity": 64,
                "duration": 0.1205,
                "tempo": 120.0
            },
            {
                "pitch": 81,
                "velocity": 64,
                "duration": 0.1136,
                "tempo": 120.0
            },
            {
                "pitch": 82,
                "velocity": 64,
                "duration": 0.1159,
                "tempo": 120.0
            },
            {
                "pitch": 85,
                "velocity": 64,
                "duration": 0.1159,
                "tempo": 120.0
            },
            {
                "pitch": 85,
                "velocity": 64,
                "duration": 0.1159,
                "tempo": 120.0
            },
            {
                "pitch": 82,
                "velocity": 64,
                "duration": 0.1182,
                "tempo": 120.0
            },
            {
                "pitch": 81,
                "velocity": 64,
                "duration": 0.1205,
                "tempo": 120.0
            },
            {
                "pitch": 79,
                "velocity": 64,
                "duration": 0.1182,
                "tempo": 120.0
            },
            {
                "pitch": 80,
                "velocity": 64,
                "duration": 0.1159,
                "tempo": 120.0
            },
            {
                "pitch": 79,
                "velocity": 64,
                "duration": 0.1136,
                "tempo": 120.0
            },
            {
                "pitch": 80,
                "velocity": 64,
                "duration": 0.1182,
                "tempo": 120.0
            },
            {
                "pitch": 87,
                "velocity": 64,
                "duration": 0.1159,
                "tempo": 120.0
            },
            {
                "pitch": 85,
                "velocity": 64,
                "duration": 0.1182,
                "tempo": 120.0
            },
            {
                "pitch": 83,
                "velocity": 64,
                "duration": 0.1159,
                "tempo": 120.0
            },
            {
                "pitch": 82,
                "velocity": 64,
                "duration": 0.1159,
                "tempo": 120.0
            },
            {
                "pitch": 80,
                "velocity": 64,
                "duration": 0.1205,
                "tempo": 120.0
            },
            {
                "pitch": 81,
                "velocity": 64,
                "duration": 0.1182,
                "tempo": 120.0
            },
            {
                "pitch": 82,
                "velocity": 64,
                "duration": 0.1159,
                "tempo": 120.0
            },
            {
                "pitch": 81,
                "velocity": 64,
                "duration": 0.1136,
                "tempo": 120.0
            },
            {
                "pitch": 82,
                "velocity": 64,
                "duration": 0.1182,
                "tempo": 120.0
            },
            {
                "pitch": 85,
                "velocity": 64,
                "duration": 0.1159,
                "tempo": 120.0
            },
            {
                "pitch": 85,
                "velocity": 64,
                "duration": 0.1136,
                "tempo": 120.0
            },
            {
                "pitch": 85,
                "velocity": 64,
                "duration": 0.1159,
                "tempo": 120.0
            },
            {
                "pitch": 85,
                "velocity": 64,
                "duration": 0.1159,
                "tempo": 120.0
            },
            {
                "pitch": 85,
                "velocity": 64,
                "duration": 0.1182,
                "tempo": 120.0
            },
            {
                "pitch": 85,
                "velocity": 64,
                "duration": 0.1159,
                "tempo": 120.0
            },
            {
                "pitch": 89,
                "velocity": 64,
                "duration": 0.1159,
                "tempo": 120.0
            },
            {
                "pitch": 92,
                "velocity": 64,
                "duration": 0.1182,
                "tempo": 120.0
            },
            {
                "pitch": 79,
                "velocity": 64,
                "duration": 0.1182,
                "tempo": 120.0
            },
            {
                "pitch": 80,
                "velocity": 64,
                "duration": 0.1136,
                "tempo": 120.0
            },
            {
                "pitch": 79,
                "velocity": 64,
                "duration": 0.1159,
                "tempo": 120.0
            },
            {
                "pitch": 80,
                "velocity": 64,
                "duration": 0.1182,
                "tempo": 120.0
            },
            {
                "pitch": 79,
                "velocity": 64,
                "duration": 0.1159,
                "tempo": 120.0
            },
            {
                "pitch": 80,
                "velocity": 64,
                "duration": 0.1182,
                "tempo": 120.0
            },
            {
                "pitch": 83,
                "velocity": 64,
                "duration": 0.1182,
                "tempo": 120.0
            },
            {
                "pitch": 83,
                "velocity": 64,
                "duration": 0.1182,
                "tempo": 120.0
            },
            {
                "pitch": 80,
                "velocity": 64,
                "duration": 0.1205,
                "tempo": 120.0
            },
            {
                "pitch": 79,
                "velocity": 64,
                "duration": 0.1182,
                "tempo": 120.0
            },
            {
                "pitch": 81,
                "velocity": 64,
                "duration": 0.1205,
                "tempo": 120.0
            },
            {
                "pitch": 82,
                "velocity": 64,
                "duration": 0.1136,
                "tempo": 120.0
            },
            {
                "pitch": 81,
                "velocity": 64,
                "duration": 0.1159,
                "tempo": 120.0
            },
            {
                "pitch": 82,
                "velocity": 64,
                "duration": 0.1205,
                "tempo": 120.0
            },
            {
                "pitch": 81,
                "velocity": 64,
                "duration": 0.1136,
                "tempo": 120.0
            },
            {
                "pitch": 82,
                "velocity": 64,
                "duration": 0.1182,
                "tempo": 120.0
            },
            {
                "pitch": 85,
                "velocity": 64,
                "duration": 0.1182,
                "tempo": 120.0
            },
            {
                "pitch": 85,
                "velocity": 64,
                "duration": 0.1159,
                "tempo": 120.0
            },
            {
                "pitch": 82,
                "velocity": 64,
                "duration": 0.1205,
                "tempo": 120.0
            },
            {
                "pitch": 81,
                "velocity": 64,
                "duration": 0.1205,
                "tempo": 120.0
            },
            {
                "pitch": 79,
                "velocity": 64,
                "duration": 0.1205,
                "tempo": 120.0
            },
            {
                "pitch": 80,
                "velocity": 64,
                "duration": 0.1136,
                "tempo": 120.0
            },
            {
                "pitch": 79,
                "velocity": 64,
                "duration": 0.1136,
                "tempo": 120.0
            },
            {
                "pitch": 80,
                "velocity": 64,
                "duration": 0.1205,
                "tempo": 120.0
            },
            {
                "pitch": 87,
                "velocity": 64,
                "duration": 0.1136,
                "tempo": 120.0
            },
            {
                "pitch": 85,
                "velocity": 64,
                "duration": 0.1159,
                "tempo": 120.0
            },
            {
                "pitch": 83,
                "velocity": 64,
                "duration": 0.1182,
                "tempo": 120.0
            },
            {
                "pitch": 82,
                "velocity": 64,
                "duration": 0.1159,
                "tempo": 120.0
            },
            {
                "pitch": 80,
                "velocity": 64,
                "duration": 0.1205,
                "tempo": 120.0
            },
            {
                "pitch": 78,
                "velocity": 64,
                "duration": 0.1205,
                "tempo": 120.0
            },
            {
                "pitch": 78,
                "velocity": 64,
                "duration": 0.1159,
                "tempo": 120.0
            },
            {
                "pitch": 79,
                "velocity": 64,
                "duration": 0.0182,
                "tempo": 120.0
            },
            {
                "pitch": 80,
                "velocity": 64,
                "duration": 0.0818,
                "tempo": 120.0
            },
            {
                "pitch": 81,
                "velocity": 64,
                "duration": 0.2455,
                "tempo": 120.0
            },
            {
                "pitch": 80,
                "velocity": 64,
                "duration": 0.1136,
                "tempo": 120.0
            },
            {
                "pitch": 78,
                "velocity": 64,
                "duration": 0.1159,
                "tempo": 120.0
            },
            {
                "pitch": 73,
                "velocity": 64,
                "duration": 0.1205,
                "tempo": 120.0
            },
            {
                "pitch": 73,
                "velocity": 64,
                "duration": 0.1114,
                "tempo": 120.0
            },
            {
                "pitch": 75,
                "velocity": 64,
                "duration": 0.1182,
                "tempo": 120.0
            },
            {
                "pitch": 78,
                "velocity": 64,
                "duration": 0.1159,
                "tempo": 120.0
            },
            {
                "pitch": 78,
                "velocity": 64,
                "duration": 0.1159,
                "tempo": 120.0
            },
            {
                "pitch": 73,
                "velocity": 64,
                "duration": 0.1227,
                "tempo": 120.0
            },
            {
                "pitch": 73,
                "velocity": 64,
                "duration": 0.1114,
                "tempo": 120.0
            },
            {
                "pitch": 73,
                "velocity": 64,
                "duration": 0.1114,
                "tempo": 120.0
            },
            {
                "pitch": 75,
                "velocity": 64,
                "duration": 0.1182,
                "tempo": 120.0
            },
            {
                "pitch": 78,
                "velocity": 64,
                "duration": 0.1182,
                "tempo": 120.0
            },
            {
                "pitch": 78,
                "velocity": 64,
                "duration": 0.1182,
                "tempo": 120.0
            },
            {
                "pitch": 80,
                "velocity": 64,
                "duration": 0.0523,
                "tempo": 120.0
            },
            {
                "pitch": 81,
                "velocity": 64,
                "duration": 0.05,
                "tempo": 120.0
            },
            {
                "pitch": 80,
                "velocity": 64,
                "duration": 0.1136,
                "tempo": 120.0
            },
            {
                "pitch": 78,
                "velocity": 64,
                "duration": 0.1136,
                "tempo": 120.0
            },
            {
                "pitch": 73,
                "velocity": 64,
                "duration": 0.1182,
                "tempo": 120.0
            },
            {
                "pitch": 73,
                "velocity": 64,
                "duration": 0.1114,
                "tempo": 120.0
            },
            {
                "pitch": 75,
                "velocity": 64,
                "duration": 0.1159,
                "tempo": 120.0
            },
            {
                "pitch": 78,
                "velocity": 64,
                "duration": 0.1159,
                "tempo": 120.0
            },
            {
                "pitch": 78,
                "velocity": 64,
                "duration": 0.1205,
                "tempo": 120.0
            },
            {
                "pitch": 73,
                "velocity": 64,
                "duration": 0.1227,
                "tempo": 120.0
            },
            {
                "pitch": 73,
                "velocity": 64,
                "duration": 0.1114,
                "tempo": 120.0
            },
            {
                "pitch": 73,
                "velocity": 64,
                "duration": 0.1114,
                "tempo": 120.0
            },
            {
                "pitch": 75,
                "velocity": 64,
                "duration": 0.1182,
                "tempo": 120.0
            },
            {
                "pitch": 78,
                "velocity": 64,
                "duration": 0.1159,
                "tempo": 120.0
            },
            {
                "pitch": 78,
                "velocity": 64,
                "duration": 0.1159,
                "tempo": 120.0
            },
            {
                "pitch": 80,
                "velocity": 64,
                "duration": 0.0523,
                "tempo": 120.0
            },
            {
                "pitch": 81,
                "velocity": 64,
                "duration": 0.1205,
                "tempo": 120.0
            },
            {
                "pitch": 80,
                "velocity": 64,
                "duration": 0.1136,
                "tempo": 120.0
            },
            {
                "pitch": 78,
                "velocity": 64,
                "duration": 0.1136,
                "tempo": 120.0
            },
            {
                "pitch": 79,
                "velocity": 64,
                "duration": 0.1205,
                "tempo": 120.0
            },
            {
                "pitch": 80,
                "velocity": 64,
                "duration": 0.1136,
                "tempo": 120.0
            },
            {
                "pitch": 79,
                "velocity": 64,
                "duration": 0.1159,
                "tempo": 120.0
            },
            {
                "pitch": 80,
                "velocity": 64,
                "duration": 0.1205,
                "tempo": 120.0
            },
            {
                "pitch": 79,
                "velocity": 64,
                "duration": 0.1136,
                "tempo": 120.0
            },
            {
                "pitch": 80,
                "velocity": 64,
                "duration": 0.1182,
                "tempo": 120.0
            },
            {
                "pitch": 83,
                "velocity": 64,
                "duration": 0.1159,
                "tempo": 120.0
            },
            {
                "pitch": 83,
                "velocity": 64,
                "duration": 0.1182,
                "tempo": 120.0
            },
            {
                "pitch": 80,
                "velocity": 64,
                "duration": 0.1205,
                "tempo": 120.0
            },
            {
                "pitch": 79,
                "velocity": 64,
                "duration": 0.1182,
                "tempo": 120.0
            },
            {
                "pitch": 81,
                "velocity": 64,
                "duration": 0.1159,
                "tempo": 120.0
            },
            {
                "pitch": 82,
                "velocity": 64,
                "duration": 0.1159,
                "tempo": 120.0
            },
            {
                "pitch": 81,
                "velocity": 64,
                "duration": 0.1136,
                "tempo": 120.0
            },
            {
                "pitch": 82,
                "velocity": 64,
                "duration": 0.1205,
                "tempo": 120.0
            },
            {
                "pitch": 81,
                "velocity": 64,
                "duration": 0.1136,
                "tempo": 120.0
            },
            {
                "pitch": 82,
                "velocity": 64,
                "duration": 0.1159,
                "tempo": 120.0
            },
            {
                "pitch": 85,
                "velocity": 64,
                "duration": 0.1159,
                "tempo": 120.0
            },
            {
                "pitch": 85,
                "velocity": 64,
                "duration": 0.1182,
                "tempo": 120.0
            },
            {
                "pitch": 82,
                "velocity": 64,
                "duration": 0.1205,
                "tempo": 120.0
            },
            {
                "pitch": 81,
                "velocity": 64,
                "duration": 0.1205,
                "tempo": 120.0
            },
            {
                "pitch": 79,
                "velocity": 64,
                "duration": 0.1182,
                "tempo": 120.0
            },
            {
                "pitch": 80,
                "velocity": 64,
                "duration": 0.1159,
                "tempo": 120.0
            },
            {
                "pitch": 79,
                "velocity": 64,
                "duration": 0.1136,
                "tempo": 120.0
            },
            {
                "pitch": 80,
                "velocity": 64,
                "duration": 0.1182,
                "tempo": 120.0
            },
            {
                "pitch": 87,
                "velocity": 64,
                "duration": 0.1159,
                "tempo": 120.0
            },
            {
                "pitch": 85,
                "velocity": 64,
                "duration": 0.1159,
                "tempo": 120.0
            },
            {
                "pitch": 83,
                "velocity": 64,
                "duration": 0.1159,
                "tempo": 120.0
            },
            {
                "pitch": 82,
                "velocity": 64,
                "duration": 0.1182,
                "tempo": 120.0
            },
            {
                "pitch": 80,
                "velocity": 64,
                "duration": 0.1205,
                "tempo": 120.0
            },
            {
                "pitch": 81,
                "velocity": 64,
                "duration": 0.1182,
                "tempo": 120.0
            },
            {
                "pitch": 82,
                "velocity": 64,
                "duration": 0.1159,
                "tempo": 120.0
            },
            {
                "pitch": 81,
                "velocity": 64,
                "duration": 0.1136,
                "tempo": 120.0
            },
            {
                "pitch": 82,
                "velocity": 64,
                "duration": 0.1182,
                "tempo": 120.0
            },
            {
                "pitch": 85,
                "velocity": 64,
                "duration": 0.1159,
                "tempo": 120.0
            },
            {
                "pitch": 85,
                "velocity": 64,
                "duration": 0.1136,
                "tempo": 120.0
            },
            {
                "pitch": 85,
                "velocity": 64,
                "duration": 0.1159,
                "tempo": 120.0
            },
            {
                "pitch": 85,
                "velocity": 64,
                "duration": 0.1159,
                "tempo": 120.0
            },
            {
                "pitch": 85,
                "velocity": 64,
                "duration": 0.1159,
                "tempo": 120.0
            },
            {
                "pitch": 85,
                "velocity": 64,
                "duration": 0.1182,
                "tempo": 120.0
            },
            {
                "pitch": 89,
                "velocity": 64,
                "duration": 0.1159,
                "tempo": 120.0
            },
            {
                "pitch": 92,
                "velocity": 64,
                "duration": 0.1182,
                "tempo": 120.0
            },
            {
                "pitch": 79,
                "velocity": 64,
                "duration": 0.1182,
                "tempo": 120.0
            },
            {
                "pitch": 80,
                "velocity": 64,
                "duration": 0.1159,
                "tempo": 120.0
            },
            {
                "pitch": 79,
                "velocity": 64,
                "duration": 0.1136,
                "tempo": 120.0
            },
            {
                "pitch": 80,
                "velocity": 64,
                "duration": 0.1182,
                "tempo": 120.0
            },
            {
                "pitch": 79,
                "velocity": 64,
                "duration": 0.1159,
                "tempo": 120.0
            },
            {
                "pitch": 80,
                "velocity": 64,
                "duration": 0.1182,
                "tempo": 120.0
            },
            {
                "pitch": 83,
                "velocity": 64,
                "duration": 0.1159,
                "tempo": 120.0
            },
            {
                "pitch": 83,
                "velocity": 64,
                "duration": 0.1182,
                "tempo": 120.0
            },
            {
                "pitch": 80,
                "velocity": 64,
                "duration": 0.1205,
                "tempo": 120.0
            },
            {
                "pitch": 79,
                "velocity": 64,
                "duration": 0.1205,
                "tempo": 120.0
            },
            {
                "pitch": 81,
                "velocity": 64,
                "duration": 0.1182,
                "tempo": 120.0
            },
            {
                "pitch": 82,
                "velocity": 64,
                "duration": 0.1136,
                "tempo": 120.0
            },
            {
                "pitch": 81,
                "velocity": 64,
                "duration": 0.1159,
                "tempo": 120.0
            },
            {
                "pitch": 82,
                "velocity": 64,
                "duration": 0.1182,
                "tempo": 120.0
            },
            {
                "pitch": 81,
                "velocity": 64,
                "duration": 0.1159,
                "tempo": 120.0
            },
            {
                "pitch": 82,
                "velocity": 64,
                "duration": 0.1182,
                "tempo": 120.0
            },
            {
                "pitch": 85,
                "velocity": 64,
                "duration": 0.1182,
                "tempo": 120.0
            },
            {
                "pitch": 85,
                "velocity": 64,
                "duration": 0.1159,
                "tempo": 120.0
            },
            {
                "pitch": 82,
                "velocity": 64,
                "duration": 0.1205,
                "tempo": 120.0
            },
            {
                "pitch": 81,
                "velocity": 64,
                "duration": 0.1182,
                "tempo": 120.0
            },
            {
                "pitch": 79,
                "velocity": 64,
                "duration": 0.1205,
                "tempo": 120.0
            },
            {
                "pitch": 80,
                "velocity": 64,
                "duration": 0.1136,
                "tempo": 120.0
            },
            {
                "pitch": 79,
                "velocity": 64,
                "duration": 0.1159,
                "tempo": 120.0
            },
            {
                "pitch": 80,
                "velocity": 64,
                "duration": 0.1205,
                "tempo": 120.0
            },
            {
                "pitch": 87,
                "velocity": 64,
                "duration": 0.1136,
                "tempo": 120.0
            },
            {
                "pitch": 85,
                "velocity": 64,
                "duration": 0.1159,
                "tempo": 120.0
            },
            {
                "pitch": 83,
                "velocity": 64,
                "duration": 0.1182,
                "tempo": 120.0
            },
            {
                "pitch": 82,
                "velocity": 64,
                "duration": 0.1182,
                "tempo": 120.0
            },
            {
                "pitch": 80,
                "velocity": 64,
                "duration": 0.1182,
                "tempo": 120.0
            },
            {
                "pitch": 78,
                "velocity": 64,
                "duration": 0.1205,
                "tempo": 120.0
            },
            {
                "pitch": 78,
                "velocity": 64,
                "duration": 0.1136,
                "tempo": 120.0
            },
            {
                "pitch": 79,
                "velocity": 64,
                "duration": 0.05,
                "tempo": 120.0
            },
            {
                "pitch": 80,
                "velocity": 64,
                "duration": 0.0477,
                "tempo": 120.0
            },
            {
                "pitch": 81,
                "velocity": 64,
                "duration": 0.1136,
                "tempo": 120.0
            },
            {
                "pitch": 80,
                "velocity": 64,
                "duration": 0.1136,
                "tempo": 120.0
            },
            {
                "pitch": 78,
                "velocity": 64,
                "duration": 0.1182,
                "tempo": 120.0
            },
            {
                "pitch": 90,
                "velocity": 64,
                "duration": 0.1159,
                "tempo": 120.0
            },
            {
                "pitch": 73,
                "velocity": 64,
                "duration": 0.0182,
                "tempo": 120.0
            }
        ],
        "Acoustic Bass": [
            {
                "pitch": 46,
                "velocity": 32,
                "duration": 0.2568,
                "tempo": 120.0
            },
            {
                "pitch": 49,
                "velocity": 32,
                "duration": 0.1205,
                "tempo": 120.0
            },
            {
                "pitch": 47,
                "velocity": 32,
                "duration": 0.3841,
                "tempo": 120.0
            },
            {
                "pitch": 51,
                "velocity": 32,
                "duration": 0.25,
                "tempo": 120.0
            },
            {
                "pitch": 54,
                "velocity": 32,
                "duration": 0.1159,
                "tempo": 120.0
            },
            {
                "pitch": 49,
                "velocity": 32,
                "duration": 0.1159,
                "tempo": 120.0
            },
            {
                "pitch": 53,
                "velocity": 32,
                "duration": 0.25,
                "tempo": 120.0
            },
            {
                "pitch": 56,
                "velocity": 32,
                "duration": 0.1159,
                "tempo": 120.0
            },
            {
                "pitch": 54,
                "velocity": 32,
                "duration": 0.25,
                "tempo": 120.0
            },
            {
                "pitch": 54,
                "velocity": 32,
                "duration": 0.1159,
                "tempo": 120.0
            },
            {
                "pitch": 58,
                "velocity": 32,
                "duration": 0.2568,
                "tempo": 120.0
            },
            {
                "pitch": 61,
                "velocity": 32,
                "duration": 0.1205,
                "tempo": 120.0
            },
            {
                "pitch": 42,
                "velocity": 32,
                "duration": 0.3841,
                "tempo": 120.0
            },
            {
                "pitch": 46,
                "velocity": 32,
                "duration": 0.2455,
                "tempo": 120.0
            },
            {
                "pitch": 49,
                "velocity": 32,
                "duration": 0.1159,
                "tempo": 120.0
            },
            {
                "pitch": 47,
                "velocity": 32,
                "duration": 0.3841,
                "tempo": 120.0
            },
            {
                "pitch": 51,
                "velocity": 32,
                "duration": 0.2568,
                "tempo": 120.0
            },
            {
                "pitch": 54,
                "velocity": 32,
                "duration": 0.1182,
                "tempo": 120.0
            },
            {
                "pitch": 49,
                "velocity": 32,
                "duration": 0.2523,
                "tempo": 120.0
            },
            {
                "pitch": 53,
                "velocity": 32,
                "duration": 0.1182,
                "tempo": 120.0
            },
            {
                "pitch": 56,
                "velocity": 32,
                "duration": 0.2523,
                "tempo": 120.0
            },
            {
                "pitch": 54,
                "velocity": 32,
                "duration": 0.3795,
                "tempo": 120.0
            },
            {
                "pitch": 57,
                "velocity": 32,
                "duration": 0.1159,
                "tempo": 120.0
            },
            {
                "pitch": 56,
                "velocity": 32,
                "duration": 0.2568,
                "tempo": 120.0
            },
            {
                "pitch": 54,
                "velocity": 32,
                "duration": 0.1205,
                "tempo": 120.0
            },
            {
                "pitch": 42,
                "velocity": 32,
                "duration": 0.3841,
                "tempo": 120.0
            },
            {
                "pitch": 46,
                "velocity": 32,
                "duration": 0.2455,
                "tempo": 120.0
            },
            {
                "pitch": 49,
                "velocity": 32,
                "duration": 0.1159,
                "tempo": 120.0
            },
            {
                "pitch": 47,
                "velocity": 32,
                "duration": 0.3841,
                "tempo": 120.0
            },
            {
                "pitch": 51,
                "velocity": 32,
                "duration": 0.2523,
                "tempo": 120.0
            },
            {
                "pitch": 54,
                "velocity": 32,
                "duration": 0.1182,
                "tempo": 120.0
            },
            {
                "pitch": 49,
                "velocity": 32,
                "duration": 0.1182,
                "tempo": 120.0
            },
            {
                "pitch": 53,
                "velocity": 32,
                "duration": 0.2523,
                "tempo": 120.0
            },
            {
                "pitch": 56,
                "velocity": 32,
                "duration": 0.1159,
                "tempo": 120.0
            },
            {
                "pitch": 54,
                "velocity": 32,
                "duration": 0.25,
                "tempo": 120.0
            },
            {
                "pitch": 54,
                "velocity": 32,
                "duration": 0.1159,
                "tempo": 120.0
            },
            {
                "pitch": 58,
                "velocity": 32,
                "duration": 0.25,
                "tempo": 120.0
            },
            {
                "pitch": 61,
                "velocity": 32,
                "duration": 0.1159,
                "tempo": 120.0
            },
            {
                "pitch": 42,
                "velocity": 32,
                "duration": 0.3932,
                "tempo": 120.0
            },
            {
                "pitch": 46,
                "velocity": 32,
                "duration": 0.2455,
                "tempo": 120.0
            },
            {
                "pitch": 49,
                "velocity": 32,
                "duration": 0.1159,
                "tempo": 120.0
            },
            {
                "pitch": 47,
                "velocity": 32,
                "duration": 0.3864,
                "tempo": 120.0
            },
            {
                "pitch": 51,
                "velocity": 32,
                "duration": 0.2568,
                "tempo": 120.0
            },
            {
                "pitch": 54,
                "velocity": 32,
                "duration": 0.1182,
                "tempo": 120.0
            },
            {
                "pitch": 49,
                "velocity": 32,
                "duration": 0.2523,
                "tempo": 120.0
            },
            {
                "pitch": 53,
                "velocity": 32,
                "duration": 0.1182,
                "tempo": 120.0
            },
            {
                "pitch": 56,
                "velocity": 32,
                "duration": 0.2523,
                "tempo": 120.0
            },
            {
                "pitch": 54,
                "velocity": 32,
                "duration": 0.3795,
                "tempo": 120.0
            },
            {
                "pitch": 57,
                "velocity": 32,
                "duration": 0.1159,
                "tempo": 120.0
            },
            {
                "pitch": 56,
                "velocity": 32,
                "duration": 0.2568,
                "tempo": 120.0
            },
            {
                "pitch": 54,
                "velocity": 32,
                "duration": 0.1205,
                "tempo": 120.0
            },
            {
                "pitch": 49,
                "velocity": 32,
                "duration": 0.3818,
                "tempo": 120.0
            },
            {
                "pitch": 49,
                "velocity": 32,
                "duration": 0.3841,
                "tempo": 120.0
            },
            {
                "pitch": 53,
                "velocity": 32,
                "duration": 0.2455,
                "tempo": 120.0
            },
            {
                "pitch": 49,
                "velocity": 32,
                "duration": 0.1136,
                "tempo": 120.0
            },
            {
                "pitch": 56,
                "velocity": 32,
                "duration": 0.1205,
                "tempo": 120.0
            },
            {
                "pitch": 53,
                "velocity": 32,
                "duration": 0.1159,
                "tempo": 120.0
            },
            {
                "pitch": 54,
                "velocity": 32,
                "duration": 0.3841,
                "tempo": 120.0
            },
            {
                "pitch": 56,
                "velocity": 32,
                "duration": 0.2568,
                "tempo": 120.0
            },
            {
                "pitch": 54,
                "velocity": 32,
                "duration": 0.1205,
                "tempo": 120.0
            },
            {
                "pitch": 54,
                "velocity": 32,
                "duration": 0.3841,
                "tempo": 120.0
            },
            {
                "pitch": 54,
                "velocity": 32,
                "duration": 0.3864,
                "tempo": 120.0
            },
            {
                "pitch": 58,
                "velocity": 32,
                "duration": 0.2455,
                "tempo": 120.0
            },
            {
                "pitch": 54,
                "velocity": 32,
                "duration": 0.1136,
                "tempo": 120.0
            },
            {
                "pitch": 61,
                "velocity": 32,
                "duration": 0.1205,
                "tempo": 120.0
            },
            {
                "pitch": 62,
                "velocity": 32,
                "duration": 0.1159,
                "tempo": 120.0
            },
            {
                "pitch": 61,
                "velocity": 32,
                "duration": 0.25,
                "tempo": 120.0
            },
            {
                "pitch": 59,
                "velocity": 32,
                "duration": 0.1159,
                "tempo": 120.0
            },
            {
                "pitch": 58,
                "velocity": 32,
                "duration": 0.2568,
                "tempo": 120.0
            },
            {
                "pitch": 56,
                "velocity": 32,
                "duration": 0.1205,
                "tempo": 120.0
            },
            {
                "pitch": 49,
                "velocity": 32,
                "duration": 0.3932,
                "tempo": 120.0
            },
            {
                "pitch": 49,
                "velocity": 32,
                "duration": 0.3773,
                "tempo": 120.0
            },
            {
                "pitch": 53,
                "velocity": 32,
                "duration": 0.2455,
                "tempo": 120.0
            },
            {
                "pitch": 49,
                "velocity": 32,
                "duration": 0.1136,
                "tempo": 120.0
            },
            {
                "pitch": 56,
                "velocity": 32,
                "duration": 0.1205,
                "tempo": 120.0
            },
            {
                "pitch": 53,
                "velocity": 32,
                "duration": 0.1159,
                "tempo": 120.0
            },
            {
                "pitch": 54,
                "velocity": 32,
                "duration": 0.3818,
                "tempo": 120.0
            },
            {
                "pitch": 56,
                "velocity": 32,
                "duration": 0.2568,
                "tempo": 120.0
            },
            {
                "pitch": 54,
                "velocity": 32,
                "duration": 0.1205,
                "tempo": 120.0
            },
            {
                "pitch": 54,
                "velocity": 32,
                "duration": 0.3932,
                "tempo": 120.0
            },
            {
                "pitch": 54,
                "velocity": 32,
                "duration": 0.3773,
                "tempo": 120.0
            },
            {
                "pitch": 58,
                "velocity": 32,
                "duration": 0.2455,
                "tempo": 120.0
            },
            {
                "pitch": 54,
                "velocity": 32,
                "duration": 0.1136,
                "tempo": 120.0
            },
            {
                "pitch": 61,
                "velocity": 32,
                "duration": 0.1205,
                "tempo": 120.0
            },
            {
                "pitch": 62,
                "velocity": 32,
                "duration": 0.1159,
                "tempo": 120.0
            },
            {
                "pitch": 61,
                "velocity": 32,
                "duration": 0.2523,
                "tempo": 120.0
            },
            {
                "pitch": 59,
                "velocity": 32,
                "duration": 0.1182,
                "tempo": 120.0
            },
            {
                "pitch": 58,
                "velocity": 32,
                "duration": 0.2568,
                "tempo": 120.0
            },
            {
                "pitch": 56,
                "velocity": 32,
                "duration": 0.1205,
                "tempo": 120.0
            },
            {
                "pitch": 49,
                "velocity": 32,
                "duration": 0.3932,
                "tempo": 120.0
            },
            {
                "pitch": 49,
                "velocity": 32,
                "duration": 0.375,
                "tempo": 120.0
            },
            {
                "pitch": 53,
                "velocity": 32,
                "duration": 0.2455,
                "tempo": 120.0
            },
            {
                "pitch": 49,
                "velocity": 32,
                "duration": 0.1159,
                "tempo": 120.0
            },
            {
                "pitch": 56,
                "velocity": 32,
                "duration": 0.1205,
                "tempo": 120.0
            },
            {
                "pitch": 53,
                "velocity": 32,
                "duration": 0.1182,
                "tempo": 120.0
            },
            {
                "pitch": 54,
                "velocity": 32,
                "duration": 0.3864,
                "tempo": 120.0
            },
            {
                "pitch": 56,
                "velocity": 32,
                "duration": 0.2568,
                "tempo": 120.0
            },
            {
                "pitch": 54,
                "velocity": 32,
                "duration": 0.1182,
                "tempo": 120.0
            },
            {
                "pitch": 54,
                "velocity": 32,
                "duration": 0.3932,
                "tempo": 120.0
            },
            {
                "pitch": 54,
                "velocity": 32,
                "duration": 0.375,
                "tempo": 120.0
            },
            {
                "pitch": 58,
                "velocity": 32,
                "duration": 0.2455,
                "tempo": 120.0
            },
            {
                "pitch": 54,
                "velocity": 32,
                "duration": 0.1159,
                "tempo": 120.0
            },
            {
                "pitch": 61,
                "velocity": 32,
                "duration": 0.1205,
                "tempo": 120.0
            },
            {
                "pitch": 62,
                "velocity": 32,
                "duration": 0.1182,
                "tempo": 120.0
            },
            {
                "pitch": 61,
                "velocity": 32,
                "duration": 0.25,
                "tempo": 120.0
            },
            {
                "pitch": 59,
                "velocity": 32,
                "duration": 0.1159,
                "tempo": 120.0
            },
            {
                "pitch": 58,
                "velocity": 32,
                "duration": 0.2568,
                "tempo": 120.0
            },
            {
                "pitch": 56,
                "velocity": 32,
                "duration": 0.1205,
                "tempo": 120.0
            },
            {
                "pitch": 49,
                "velocity": 32,
                "duration": 0.3932,
                "tempo": 120.0
            },
            {
                "pitch": 49,
                "velocity": 32,
                "duration": 0.375,
                "tempo": 120.0
            },
            {
                "pitch": 53,
                "velocity": 32,
                "duration": 0.2432,
                "tempo": 120.0
            },
            {
                "pitch": 49,
                "velocity": 32,
                "duration": 0.1136,
                "tempo": 120.0
            },
            {
                "pitch": 56,
                "velocity": 32,
                "duration": 0.1182,
                "tempo": 120.0
            },
            {
                "pitch": 53,
                "velocity": 32,
                "duration": 0.1159,
                "tempo": 120.0
            },
            {
                "pitch": 54,
                "velocity": 32,
                "duration": 0.3864,
                "tempo": 120.0
            },
            {
                "pitch": 56,
                "velocity": 32,
                "duration": 0.2568,
                "tempo": 120.0
            },
            {
                "pitch": 54,
                "velocity": 32,
                "duration": 0.1205,
                "tempo": 120.0
            },
            {
                "pitch": 54,
                "velocity": 32,
                "duration": 0.3955,
                "tempo": 120.0
            },
            {
                "pitch": 54,
                "velocity": 32,
                "duration": 0.2455,
                "tempo": 120.0
            },
            {
                "pitch": 55,
                "velocity": 32,
                "duration": 0.0182,
                "tempo": 120.0
            },
            {
                "pitch": 56,
                "velocity": 32,
                "duration": 0.0818,
                "tempo": 120.0
            },
            {
                "pitch": 57,
                "velocity": 32,
                "duration": 0.2455,
                "tempo": 120.0
            },
            {
                "pitch": 56,
                "velocity": 32,
                "duration": 0.1136,
                "tempo": 120.0
            },
            {
                "pitch": 54,
                "velocity": 32,
                "duration": 0.1159,
                "tempo": 120.0
            },
            {
                "pitch": 49,
                "velocity": 32,
                "duration": 0.7818,
                "tempo": 120.0
            },
            {
                "pitch": 42,
                "velocity": 32,
                "duration": 0.4023,
                "tempo": 120.0
            },
            {
                "pitch": 46,
                "velocity": 32,
                "duration": 0.2386,
                "tempo": 120.0
            },
            {
                "pitch": 49,
                "velocity": 32,
                "duration": 0.1114,
                "tempo": 120.0
            },
            {
                "pitch": 47,
                "velocity": 32,
                "duration": 0.3841,
                "tempo": 120.0
            },
            {
                "pitch": 51,
                "velocity": 32,
                "duration": 0.25,
                "tempo": 120.0
            },
            {
                "pitch": 54,
                "velocity": 32,
                "duration": 0.1159,
                "tempo": 120.0
            },
            {
                "pitch": 49,
                "velocity": 32,
                "duration": 0.1159,
                "tempo": 120.0
            },
            {
                "pitch": 53,
                "velocity": 32,
                "duration": 0.2523,
                "tempo": 120.0
            },
            {
                "pitch": 56,
                "velocity": 32,
                "duration": 0.1182,
                "tempo": 120.0
            },
            {
                "pitch": 54,
                "velocity": 32,
                "duration": 0.25,
                "tempo": 120.0
            },
            {
                "pitch": 54,
                "velocity": 32,
                "duration": 0.1159,
                "tempo": 120.0
            },
            {
                "pitch": 58,
                "velocity": 32,
                "duration": 0.25,
                "tempo": 120.0
            },
            {
                "pitch": 61,
                "velocity": 32,
                "duration": 0.1159,
                "tempo": 120.0
            },
            {
                "pitch": 42,
                "velocity": 32,
                "duration": 0.4045,
                "tempo": 120.0
            },
            {
                "pitch": 46,
                "velocity": 32,
                "duration": 0.2386,
                "tempo": 120.0
            },
            {
                "pitch": 49,
                "velocity": 32,
                "duration": 0.1114,
                "tempo": 120.0
            },
            {
                "pitch": 47,
                "velocity": 32,
                "duration": 0.3864,
                "tempo": 120.0
            },
            {
                "pitch": 51,
                "velocity": 32,
                "duration": 0.2568,
                "tempo": 120.0
            },
            {
                "pitch": 54,
                "velocity": 32,
                "duration": 0.1182,
                "tempo": 120.0
            },
            {
                "pitch": 49,
                "velocity": 32,
                "duration": 0.2568,
                "tempo": 120.0
            },
            {
                "pitch": 53,
                "velocity": 32,
                "duration": 0.1205,
                "tempo": 120.0
            },
            {
                "pitch": 56,
                "velocity": 32,
                "duration": 0.2455,
                "tempo": 120.0
            },
            {
                "pitch": 54,
                "velocity": 32,
                "duration": 0.375,
                "tempo": 120.0
            },
            {
                "pitch": 57,
                "velocity": 32,
                "duration": 0.1159,
                "tempo": 120.0
            },
            {
                "pitch": 56,
                "velocity": 32,
                "duration": 0.2568,
                "tempo": 120.0
            },
            {
                "pitch": 54,
                "velocity": 32,
                "duration": 0.1205,
                "tempo": 120.0
            },
            {
                "pitch": 42,
                "velocity": 32,
                "duration": 0.3932,
                "tempo": 120.0
            },
            {
                "pitch": 46,
                "velocity": 32,
                "duration": 0.2386,
                "tempo": 120.0
            },
            {
                "pitch": 49,
                "velocity": 32,
                "duration": 0.1114,
                "tempo": 120.0
            },
            {
                "pitch": 47,
                "velocity": 32,
                "duration": 0.3818,
                "tempo": 120.0
            },
            {
                "pitch": 51,
                "velocity": 32,
                "duration": 0.2545,
                "tempo": 120.0
            },
            {
                "pitch": 54,
                "velocity": 32,
                "duration": 0.1205,
                "tempo": 120.0
            },
            {
                "pitch": 49,
                "velocity": 32,
                "duration": 0.1159,
                "tempo": 120.0
            },
            {
                "pitch": 53,
                "velocity": 32,
                "duration": 0.25,
                "tempo": 120.0
            },
            {
                "pitch": 56,
                "velocity": 32,
                "duration": 0.1159,
                "tempo": 120.0
            },
            {
                "pitch": 54,
                "velocity": 32,
                "duration": 0.25,
                "tempo": 120.0
            },
            {
                "pitch": 54,
                "velocity": 32,
                "duration": 0.1159,
                "tempo": 120.0
            },
            {
                "pitch": 58,
                "velocity": 32,
                "duration": 0.25,
                "tempo": 120.0
            },
            {
                "pitch": 61,
                "velocity": 32,
                "duration": 0.1159,
                "tempo": 120.0
            },
            {
                "pitch": 42,
                "velocity": 32,
                "duration": 0.4045,
                "tempo": 120.0
            },
            {
                "pitch": 46,
                "velocity": 32,
                "duration": 0.2386,
                "tempo": 120.0
            },
            {
                "pitch": 49,
                "velocity": 32,
                "duration": 0.1114,
                "tempo": 120.0
            },
            {
                "pitch": 47,
                "velocity": 32,
                "duration": 0.3841,
                "tempo": 120.0
            },
            {
                "pitch": 51,
                "velocity": 32,
                "duration": 0.25,
                "tempo": 120.0
            },
            {
                "pitch": 54,
                "velocity": 32,
                "duration": 0.1159,
                "tempo": 120.0
            },
            {
                "pitch": 49,
                "velocity": 32,
                "duration": 0.2636,
                "tempo": 120.0
            },
            {
                "pitch": 53,
                "velocity": 32,
                "duration": 0.1227,
                "tempo": 120.0
            },
            {
                "pitch": 56,
                "velocity": 32,
                "duration": 0.2455,
                "tempo": 120.0
            },
            {
                "pitch": 54,
                "velocity": 32,
                "duration": 0.375,
                "tempo": 120.0
            },
            {
                "pitch": 57,
                "velocity": 32,
                "duration": 0.1136,
                "tempo": 120.0
            },
            {
                "pitch": 56,
                "velocity": 32,
                "duration": 0.2568,
                "tempo": 120.0
            },
            {
                "pitch": 54,
                "velocity": 32,
                "duration": 0.1182,
                "tempo": 120.0
            },
            {
                "pitch": 49,
                "velocity": 32,
                "duration": 0.3932,
                "tempo": 120.0
            },
            {
                "pitch": 49,
                "velocity": 32,
                "duration": 0.375,
                "tempo": 120.0
            },
            {
                "pitch": 53,
                "velocity": 32,
                "duration": 0.2455,
                "tempo": 120.0
            },
            {
                "pitch": 49,
                "velocity": 32,
                "duration": 0.1159,
                "tempo": 120.0
            },
            {
                "pitch": 56,
                "velocity": 32,
                "duration": 0.1205,
                "tempo": 120.0
            },
            {
                "pitch": 53,
                "velocity": 32,
                "duration": 0.1182,
                "tempo": 120.0
            },
            {
                "pitch": 54,
                "velocity": 32,
                "duration": 0.3841,
                "tempo": 120.0
            },
            {
                "pitch": 56,
                "velocity": 32,
                "duration": 0.2568,
                "tempo": 120.0
            },
            {
                "pitch": 54,
                "velocity": 32,
                "duration": 0.1182,
                "tempo": 120.0
            },
            {
                "pitch": 54,
                "velocity": 32,
                "duration": 0.3841,
                "tempo": 120.0
            },
            {
                "pitch": 54,
                "velocity": 32,
                "duration": 0.3841,
                "tempo": 120.0
            },
            {
                "pitch": 58,
                "velocity": 32,
                "duration": 0.2455,
                "tempo": 120.0
            },
            {
                "pitch": 54,
                "velocity": 32,
                "duration": 0.1136,
                "tempo": 120.0
            },
            {
                "pitch": 61,
                "velocity": 32,
                "duration": 0.1205,
                "tempo": 120.0
            },
            {
                "pitch": 62,
                "velocity": 32,
                "duration": 0.1159,
                "tempo": 120.0
            },
            {
                "pitch": 61,
                "velocity": 32,
                "duration": 0.25,
                "tempo": 120.0
            },
            {
                "pitch": 59,
                "velocity": 32,
                "duration": 0.1182,
                "tempo": 120.0
            },
            {
                "pitch": 58,
                "velocity": 32,
                "duration": 0.2568,
                "tempo": 120.0
            },
            {
                "pitch": 56,
                "velocity": 32,
                "duration": 0.1205,
                "tempo": 120.0
            },
            {
                "pitch": 49,
                "velocity": 32,
                "duration": 0.3932,
                "tempo": 120.0
            },
            {
                "pitch": 49,
                "velocity": 32,
                "duration": 0.3773,
                "tempo": 120.0
            },
            {
                "pitch": 53,
                "velocity": 32,
                "duration": 0.2455,
                "tempo": 120.0
            },
            {
                "pitch": 49,
                "velocity": 32,
                "duration": 0.1136,
                "tempo": 120.0
            },
            {
                "pitch": 56,
                "velocity": 32,
                "duration": 0.1205,
                "tempo": 120.0
            },
            {
                "pitch": 53,
                "velocity": 32,
                "duration": 0.1182,
                "tempo": 120.0
            },
            {
                "pitch": 54,
                "velocity": 32,
                "duration": 0.3841,
                "tempo": 120.0
            },
            {
                "pitch": 56,
                "velocity": 32,
                "duration": 0.2568,
                "tempo": 120.0
            },
            {
                "pitch": 54,
                "velocity": 32,
                "duration": 0.1205,
                "tempo": 120.0
            },
            {
                "pitch": 54,
                "velocity": 32,
                "duration": 0.3932,
                "tempo": 120.0
            },
            {
                "pitch": 54,
                "velocity": 32,
                "duration": 0.3773,
                "tempo": 120.0
            },
            {
                "pitch": 58,
                "velocity": 32,
                "duration": 0.2455,
                "tempo": 120.0
            },
            {
                "pitch": 54,
                "velocity": 32,
                "duration": 0.1136,
                "tempo": 120.0
            },
            {
                "pitch": 61,
                "velocity": 32,
                "duration": 0.1205,
                "tempo": 120.0
            },
            {
                "pitch": 62,
                "velocity": 32,
                "duration": 0.1182,
                "tempo": 120.0
            },
            {
                "pitch": 61,
                "velocity": 32,
                "duration": 0.25,
                "tempo": 120.0
            },
            {
                "pitch": 59,
                "velocity": 32,
                "duration": 0.1182,
                "tempo": 120.0
            },
            {
                "pitch": 58,
                "velocity": 32,
                "duration": 0.2568,
                "tempo": 120.0
            },
            {
                "pitch": 56,
                "velocity": 32,
                "duration": 0.1205,
                "tempo": 120.0
            },
            {
                "pitch": 49,
                "velocity": 32,
                "duration": 0.3932,
                "tempo": 120.0
            },
            {
                "pitch": 49,
                "velocity": 32,
                "duration": 0.3773,
                "tempo": 120.0
            },
            {
                "pitch": 53,
                "velocity": 32,
                "duration": 0.2455,
                "tempo": 120.0
            },
            {
                "pitch": 49,
                "velocity": 32,
                "duration": 0.1136,
                "tempo": 120.0
            },
            {
                "pitch": 56,
                "velocity": 32,
                "duration": 0.1205,
                "tempo": 120.0
            },
            {
                "pitch": 53,
                "velocity": 32,
                "duration": 0.1182,
                "tempo": 120.0
            },
            {
                "pitch": 54,
                "velocity": 32,
                "duration": 0.3841,
                "tempo": 120.0
            },
            {
                "pitch": 56,
                "velocity": 32,
                "duration": 0.2568,
                "tempo": 120.0
            },
            {
                "pitch": 54,
                "velocity": 32,
                "duration": 0.1205,
                "tempo": 120.0
            },
            {
                "pitch": 54,
                "velocity": 32,
                "duration": 0.3932,
                "tempo": 120.0
            },
            {
                "pitch": 54,
                "velocity": 32,
                "duration": 0.375,
                "tempo": 120.0
            },
            {
                "pitch": 58,
                "velocity": 32,
                "duration": 0.2455,
                "tempo": 120.0
            },
            {
                "pitch": 54,
                "velocity": 32,
                "duration": 0.1159,
                "tempo": 120.0
            },
            {
                "pitch": 61,
                "velocity": 32,
                "duration": 0.1205,
                "tempo": 120.0
            },
            {
                "pitch": 62,
                "velocity": 32,
                "duration": 0.1182,
                "tempo": 120.0
            },
            {
                "pitch": 61,
                "velocity": 32,
                "duration": 0.25,
                "tempo": 120.0
            },
            {
                "pitch": 59,
                "velocity": 32,
                "duration": 0.1159,
                "tempo": 120.0
            },
            {
                "pitch": 58,
                "velocity": 32,
                "duration": 0.2568,
                "tempo": 120.0
            },
            {
                "pitch": 56,
                "velocity": 32,
                "duration": 0.1182,
                "tempo": 120.0
            },
            {
                "pitch": 49,
                "velocity": 32,
                "duration": 0.3932,
                "tempo": 120.0
            },
            {
                "pitch": 49,
                "velocity": 32,
                "duration": 0.375,
                "tempo": 120.0
            },
            {
                "pitch": 53,
                "velocity": 32,
                "duration": 0.2455,
                "tempo": 120.0
            },
            {
                "pitch": 49,
                "velocity": 32,
                "duration": 0.1159,
                "tempo": 120.0
            },
            {
                "pitch": 56,
                "velocity": 32,
                "duration": 0.1205,
                "tempo": 120.0
            },
            {
                "pitch": 53,
                "velocity": 32,
                "duration": 0.1159,
                "tempo": 120.0
            },
            {
                "pitch": 54,
                "velocity": 32,
                "duration": 0.3864,
                "tempo": 120.0
            },
            {
                "pitch": 56,
                "velocity": 32,
                "duration": 0.2568,
                "tempo": 120.0
            },
            {
                "pitch": 54,
                "velocity": 32,
                "duration": 0.1205,
                "tempo": 120.0
            },
            {
                "pitch": 54,
                "velocity": 32,
                "duration": 0.3932,
                "tempo": 120.0
            },
            {
                "pitch": 54,
                "velocity": 32,
                "duration": 0.2455,
                "tempo": 120.0
            },
            {
                "pitch": 55,
                "velocity": 32,
                "duration": 0.0159,
                "tempo": 120.0
            },
            {
                "pitch": 56,
                "velocity": 32,
                "duration": 0.0795,
                "tempo": 120.0
            },
            {
                "pitch": 57,
                "velocity": 32,
                "duration": 0.2432,
                "tempo": 120.0
            },
            {
                "pitch": 56,
                "velocity": 32,
                "duration": 0.1136,
                "tempo": 120.0
            },
            {
                "pitch": 54,
                "velocity": 32,
                "duration": 0.1182,
                "tempo": 120.0
            },
            {
                "pitch": 66,
                "velocity": 32,
                "duration": 0.2455,
                "tempo": 120.0
            },
            {
                "pitch": 37,
                "velocity": 32,
                "duration": 0.1159,
                "tempo": 120.0
            },
            {
                "pitch": 39,
                "velocity": 32,
                "duration": 0.2614,
                "tempo": 120.0
            },
            {
                "pitch": 41,
                "velocity": 32,
                "duration": 0.1227,
                "tempo": 120.0
            },
            {
                "pitch": 42,
                "velocity": 32,
                "duration": 0.0182,
                "tempo": 120.0
            }
        ],
        "Church Organ": [
            {
                "pitch": 73,
                "velocity": 32,
                "duration": 0.3932,
                "tempo": 120.0
            },
            {
                "pitch": 75,
                "velocity": 32,
                "duration": 0.25,
                "tempo": 120.0
            },
            {
                "pitch": 75,
                "velocity": 32,
                "duration": 0.1159,
                "tempo": 120.0
            },
            {
                "pitch": 73,
                "velocity": 32,
                "duration": 0.3818,
                "tempo": 120.0
            },
            {
                "pitch": 73,
                "velocity": 32,
                "duration": 0.2568,
                "tempo": 120.0
            },
            {
                "pitch": 73,
                "velocity": 32,
                "duration": 0.1205,
                "tempo": 120.0
            },
            {
                "pitch": 73,
                "velocity": 32,
                "duration": 0.3773,
                "tempo": 120.0
            },
            {
                "pitch": 75,
                "velocity": 32,
                "duration": 0.2568,
                "tempo": 120.0
            },
            {
                "pitch": 75,
                "velocity": 32,
                "duration": 0.1182,
                "tempo": 120.0
            },
            {
                "pitch": 77,
                "velocity": 32,
                "duration": 0.1182,
                "tempo": 120.0
            },
            {
                "pitch": 73,
                "velocity": 32,
                "duration": 0.5114,
                "tempo": 120.0
            },
            {
                "pitch": 73,
                "velocity": 32,
                "duration": 0.3773,
                "tempo": 120.0
            },
            {
                "pitch": 75,
                "velocity": 32,
                "duration": 0.2523,
                "tempo": 120.0
            },
            {
                "pitch": 75,
                "velocity": 32,
                "duration": 0.1182,
                "tempo": 120.0
            },
            {
                "pitch": 73,
                "velocity": 32,
                "duration": 0.3864,
                "tempo": 120.0
            },
            {
                "pitch": 73,
                "velocity": 32,
                "duration": 0.25,
                "tempo": 120.0
            },
            {
                "pitch": 73,
                "velocity": 32,
                "duration": 0.1159,
                "tempo": 120.0
            },
            {
                "pitch": 73,
                "velocity": 32,
                "duration": 0.3773,
                "tempo": 120.0
            },
            {
                "pitch": 75,
                "velocity": 32,
                "duration": 0.2568,
                "tempo": 120.0
            },
            {
                "pitch": 75,
                "velocity": 32,
                "duration": 0.1182,
                "tempo": 120.0
            },
            {
                "pitch": 77,
                "velocity": 32,
                "duration": 0.1182,
                "tempo": 120.0
            },
            {
                "pitch": 73,
                "velocity": 32,
                "duration": 0.5114,
                "tempo": 120.0
            },
            {
                "pitch": 73,
                "velocity": 32,
                "duration": 0.3841,
                "tempo": 120.0
            },
            {
                "pitch": 73,
                "velocity": 32,
                "duration": 0.1136,
                "tempo": 120.0
            },
            {
                "pitch": 73,
                "velocity": 32,
                "duration": 0.1205,
                "tempo": 120.0
            },
            {
                "pitch": 73,
                "velocity": 32,
                "duration": 0.1159,
                "tempo": 120.0
            },
            {
                "pitch": 73,
                "velocity": 32,
                "duration": 0.25,
                "tempo": 120.0
            },
            {
                "pitch": 73,
                "velocity": 32,
                "duration": 0.5273,
                "tempo": 120.0
            },
            {
                "pitch": 73,
                "velocity": 32,
                "duration": 0.3864,
                "tempo": 120.0
            },
            {
                "pitch": 73,
                "velocity": 32,
                "duration": 0.1136,
                "tempo": 120.0
            },
            {
                "pitch": 73,
                "velocity": 32,
                "duration": 0.1205,
                "tempo": 120.0
            },
            {
                "pitch": 75,
                "velocity": 32,
                "duration": 0.1159,
                "tempo": 120.0
            },
            {
                "pitch": 75,
                "velocity": 32,
                "duration": 0.1159,
                "tempo": 120.0
            },
            {
                "pitch": 73,
                "velocity": 32,
                "duration": 0.3932,
                "tempo": 120.0
            },
            {
                "pitch": 73,
                "velocity": 32,
                "duration": 0.3773,
                "tempo": 120.0
            },
            {
                "pitch": 73,
                "velocity": 32,
                "duration": 0.1136,
                "tempo": 120.0
            },
            {
                "pitch": 73,
                "velocity": 32,
                "duration": 0.1205,
                "tempo": 120.0
            },
            {
                "pitch": 73,
                "velocity": 32,
                "duration": 0.1159,
                "tempo": 120.0
            },
            {
                "pitch": 73,
                "velocity": 32,
                "duration": 0.25,
                "tempo": 120.0
            },
            {
                "pitch": 73,
                "velocity": 32,
                "duration": 0.5273,
                "tempo": 120.0
            },
            {
                "pitch": 73,
                "velocity": 32,
                "duration": 0.3773,
                "tempo": 120.0
            },
            {
                "pitch": 73,
                "velocity": 32,
                "duration": 0.1136,
                "tempo": 120.0
            },
            {
                "pitch": 73,
                "velocity": 32,
                "duration": 0.1205,
                "tempo": 120.0
            },
            {
                "pitch": 75,
                "velocity": 32,
                "duration": 0.1159,
                "tempo": 120.0
            },
            {
                "pitch": 75,
                "velocity": 32,
                "duration": 0.1182,
                "tempo": 120.0
            },
            {
                "pitch": 73,
                "velocity": 32,
                "duration": 0.3932,
                "tempo": 120.0
            },
            {
                "pitch": 73,
                "velocity": 32,
                "duration": 0.375,
                "tempo": 120.0
            },
            {
                "pitch": 73,
                "velocity": 32,
                "duration": 0.1159,
                "tempo": 120.0
            },
            {
                "pitch": 73,
                "velocity": 32,
                "duration": 0.1205,
                "tempo": 120.0
            },
            {
                "pitch": 73,
                "velocity": 32,
                "duration": 0.1182,
                "tempo": 120.0
            },
            {
                "pitch": 73,
                "velocity": 32,
                "duration": 0.2523,
                "tempo": 120.0
            },
            {
                "pitch": 73,
                "velocity": 32,
                "duration": 0.5273,
                "tempo": 120.0
            },
            {
                "pitch": 73,
                "velocity": 32,
                "duration": 0.375,
                "tempo": 120.0
            },
            {
                "pitch": 73,
                "velocity": 32,
                "duration": 0.1159,
                "tempo": 120.0
            },
            {
                "pitch": 73,
                "velocity": 32,
                "duration": 0.1205,
                "tempo": 120.0
            },
            {
                "pitch": 75,
                "velocity": 32,
                "duration": 0.1182,
                "tempo": 120.0
            },
            {
                "pitch": 75,
                "velocity": 32,
                "duration": 0.1159,
                "tempo": 120.0
            },
            {
                "pitch": 73,
                "velocity": 32,
                "duration": 0.3955,
                "tempo": 120.0
            },
            {
                "pitch": 73,
                "velocity": 32,
                "duration": 0.375,
                "tempo": 120.0
            },
            {
                "pitch": 73,
                "velocity": 32,
                "duration": 0.1136,
                "tempo": 120.0
            },
            {
                "pitch": 73,
                "velocity": 32,
                "duration": 0.1182,
                "tempo": 120.0
            },
            {
                "pitch": 73,
                "velocity": 32,
                "duration": 0.1159,
                "tempo": 120.0
            },
            {
                "pitch": 73,
                "velocity": 32,
                "duration": 0.2523,
                "tempo": 120.0
            },
            {
                "pitch": 73,
                "velocity": 32,
                "duration": 0.5273,
                "tempo": 120.0
            },
            {
                "pitch": 73,
                "velocity": 32,
                "duration": 0.3955,
                "tempo": 120.0
            },
            {
                "pitch": 73,
                "velocity": 32,
                "duration": 0.3773,
                "tempo": 120.0
            },
            {
                "pitch": 75,
                "velocity": 32,
                "duration": 0.2455,
                "tempo": 120.0
            },
            {
                "pitch": 75,
                "velocity": 32,
                "duration": 0.1136,
                "tempo": 120.0
            },
            {
                "pitch": 70,
                "velocity": 32,
                "duration": 0.1159,
                "tempo": 120.0
            },
            {
                "pitch": 73,
                "velocity": 32,
                "duration": 0.7818,
                "tempo": 120.0
            },
            {
                "pitch": 73,
                "velocity": 32,
                "duration": 0.3659,
                "tempo": 120.0
            },
            {
                "pitch": 75,
                "velocity": 32,
                "duration": 0.25,
                "tempo": 120.0
            },
            {
                "pitch": 75,
                "velocity": 32,
                "duration": 0.1159,
                "tempo": 120.0
            },
            {
                "pitch": 73,
                "velocity": 32,
                "duration": 0.3864,
                "tempo": 120.0
            },
            {
                "pitch": 73,
                "velocity": 32,
                "duration": 0.25,
                "tempo": 120.0
            },
            {
                "pitch": 73,
                "velocity": 32,
                "duration": 0.1159,
                "tempo": 120.0
            },
            {
                "pitch": 73,
                "velocity": 32,
                "duration": 0.3659,
                "tempo": 120.0
            },
            {
                "pitch": 75,
                "velocity": 32,
                "duration": 0.2568,
                "tempo": 120.0
            },
            {
                "pitch": 75,
                "velocity": 32,
                "duration": 0.1182,
                "tempo": 120.0
            },
            {
                "pitch": 77,
                "velocity": 32,
                "duration": 0.1205,
                "tempo": 120.0
            },
            {
                "pitch": 73,
                "velocity": 32,
                "duration": 0.5068,
                "tempo": 120.0
            },
            {
                "pitch": 73,
                "velocity": 32,
                "duration": 0.3659,
                "tempo": 120.0
            },
            {
                "pitch": 75,
                "velocity": 32,
                "duration": 0.2545,
                "tempo": 120.0
            },
            {
                "pitch": 75,
                "velocity": 32,
                "duration": 0.1205,
                "tempo": 120.0
            },
            {
                "pitch": 73,
                "velocity": 32,
                "duration": 0.3818,
                "tempo": 120.0
            },
            {
                "pitch": 73,
                "velocity": 32,
                "duration": 0.25,
                "tempo": 120.0
            },
            {
                "pitch": 73,
                "velocity": 32,
                "duration": 0.1159,
                "tempo": 120.0
            },
            {
                "pitch": 73,
                "velocity": 32,
                "duration": 0.3659,
                "tempo": 120.0
            },
            {
                "pitch": 75,
                "velocity": 32,
                "duration": 0.25,
                "tempo": 120.0
            },
            {
                "pitch": 75,
                "velocity": 32,
                "duration": 0.1159,
                "tempo": 120.0
            },
            {
                "pitch": 77,
                "velocity": 32,
                "duration": 0.1227,
                "tempo": 120.0
            },
            {
                "pitch": 73,
                "velocity": 32,
                "duration": 0.5068,
                "tempo": 120.0
            },
            {
                "pitch": 73,
                "velocity": 32,
                "duration": 0.375,
                "tempo": 120.0
            },
            {
                "pitch": 73,
                "velocity": 32,
                "duration": 0.1159,
                "tempo": 120.0
            },
            {
                "pitch": 73,
                "velocity": 32,
                "duration": 0.1205,
                "tempo": 120.0
            },
            {
                "pitch": 73,
                "velocity": 32,
                "duration": 0.1182,
                "tempo": 120.0
            },
            {
                "pitch": 73,
                "velocity": 32,
                "duration": 0.25,
                "tempo": 120.0
            },
            {
                "pitch": 73,
                "velocity": 32,
                "duration": 0.5273,
                "tempo": 120.0
            },
            {
                "pitch": 73,
                "velocity": 32,
                "duration": 0.3841,
                "tempo": 120.0
            },
            {
                "pitch": 73,
                "velocity": 32,
                "duration": 0.1136,
                "tempo": 120.0
            },
            {
                "pitch": 73,
                "velocity": 32,
                "duration": 0.1205,
                "tempo": 120.0
            },
            {
                "pitch": 75,
                "velocity": 32,
                "duration": 0.1159,
                "tempo": 120.0
            },
            {
                "pitch": 75,
                "velocity": 32,
                "duration": 0.1182,
                "tempo": 120.0
            },
            {
                "pitch": 73,
                "velocity": 32,
                "duration": 0.3932,
                "tempo": 120.0
            },
            {
                "pitch": 73,
                "velocity": 32,
                "duration": 0.3773,
                "tempo": 120.0
            },
            {
                "pitch": 73,
                "velocity": 32,
                "duration": 0.1136,
                "tempo": 120.0
            },
            {
                "pitch": 73,
                "velocity": 32,
                "duration": 0.1205,
                "tempo": 120.0
            },
            {
                "pitch": 73,
                "velocity": 32,
                "duration": 0.1182,
                "tempo": 120.0
            },
            {
                "pitch": 73,
                "velocity": 32,
                "duration": 0.25,
                "tempo": 120.0
            },
            {
                "pitch": 73,
                "velocity": 32,
                "duration": 0.5273,
                "tempo": 120.0
            },
            {
                "pitch": 73,
                "velocity": 32,
                "duration": 0.3773,
                "tempo": 120.0
            },
            {
                "pitch": 73,
                "velocity": 32,
                "duration": 0.1136,
                "tempo": 120.0
            },
            {
                "pitch": 73,
                "velocity": 32,
                "duration": 0.1205,
                "tempo": 120.0
            },
            {
                "pitch": 75,
                "velocity": 32,
                "duration": 0.1182,
                "tempo": 120.0
            },
            {
                "pitch": 75,
                "velocity": 32,
                "duration": 0.1182,
                "tempo": 120.0
            },
            {
                "pitch": 73,
                "velocity": 32,
                "duration": 0.3932,
                "tempo": 120.0
            },
            {
                "pitch": 73,
                "velocity": 32,
                "duration": 0.3773,
                "tempo": 120.0
            },
            {
                "pitch": 73,
                "velocity": 32,
                "duration": 0.1136,
                "tempo": 120.0
            },
            {
                "pitch": 73,
                "velocity": 32,
                "duration": 0.1205,
                "tempo": 120.0
            },
            {
                "pitch": 73,
                "velocity": 32,
                "duration": 0.1182,
                "tempo": 120.0
            },
            {
                "pitch": 73,
                "velocity": 32,
                "duration": 0.25,
                "tempo": 120.0
            },
            {
                "pitch": 73,
                "velocity": 32,
                "duration": 0.5273,
                "tempo": 120.0
            },
            {
                "pitch": 73,
                "velocity": 32,
                "duration": 0.375,
                "tempo": 120.0
            },
            {
                "pitch": 73,
                "velocity": 32,
                "duration": 0.1159,
                "tempo": 120.0
            },
            {
                "pitch": 73,
                "velocity": 32,
                "duration": 0.1205,
                "tempo": 120.0
            },
            {
                "pitch": 75,
                "velocity": 32,
                "duration": 0.1182,
                "tempo": 120.0
            },
            {
                "pitch": 75,
                "velocity": 32,
                "duration": 0.1159,
                "tempo": 120.0
            },
            {
                "pitch": 73,
                "velocity": 32,
                "duration": 0.3932,
                "tempo": 120.0
            },
            {
                "pitch": 73,
                "velocity": 32,
                "duration": 0.375,
                "tempo": 120.0
            },
            {
                "pitch": 73,
                "velocity": 32,
                "duration": 0.1159,
                "tempo": 120.0
            },
            {
                "pitch": 73,
                "velocity": 32,
                "duration": 0.1205,
                "tempo": 120.0
            },
            {
                "pitch": 73,
                "velocity": 32,
                "duration": 0.1159,
                "tempo": 120.0
            },
            {
                "pitch": 73,
                "velocity": 32,
                "duration": 0.2523,
                "tempo": 120.0
            },
            {
                "pitch": 73,
                "velocity": 32,
                "duration": 0.5295,
                "tempo": 120.0
            },
            {
                "pitch": 73,
                "velocity": 32,
                "duration": 0.3932,
                "tempo": 120.0
            },
            {
                "pitch": 73,
                "velocity": 32,
                "duration": 0.375,
                "tempo": 120.0
            },
            {
                "pitch": 75,
                "velocity": 32,
                "duration": 0.2432,
                "tempo": 120.0
            },
            {
                "pitch": 75,
                "velocity": 32,
                "duration": 0.1136,
                "tempo": 120.0
            },
            {
                "pitch": 70,
                "velocity": 32,
                "duration": 0.1182,
                "tempo": 120.0
            },
            {
                "pitch": 78,
                "velocity": 32,
                "duration": 0.2455,
                "tempo": 120.0
            }
        ]
    }
}