{
    "track_id": "Columns (FM) - 04 - Lathesis",
    "mood": "relaxed",
    "instruments": {
        "Flute": [
            {
                "pitch": 94,
                "velocity": 51,
                "duration": 0.1955,
                "tempo": 120.0
            },
            {
                "pitch": 96,
                "velocity": 51,
                "duration": 0.1795,
                "tempo": 120.0
            },
            {
                "pitch": 93,
                "velocity": 51,
                "duration": 2.3477,
                "tempo": 120.0
            },
            {
                "pitch": 88,
                "velocity": 51,
                "duration": 0.1977,
                "tempo": 120.0
            },
            {
                "pitch": 90,
                "velocity": 51,
                "duration": 0.1955,
                "tempo": 120.0
            },
            {
                "pitch": 91,
                "velocity": 51,
                "duration": 0.2023,
                "tempo": 120.0
            },
            {
                "pitch": 91,
                "velocity": 51,
                "duration": 0.2,
                "tempo": 120.0
            },
            {
                "pitch": 93,
                "velocity": 51,
                "duration": 2.3205,
                "tempo": 120.0
            },
            {
                "pitch": 94,
                "velocity": 51,
                "duration": 5.8386,
                "tempo": 120.0
            },
            {
                "pitch": 94,
                "velocity": 51,
                "duration": 0.1955,
                "tempo": 120.0
            },
            {
                "pitch": 96,
                "velocity": 51,
                "duration": 5.8545,
                "tempo": 120.0
            },
            {
                "pitch": 96,
                "velocity": 51,
                "duration": 0.1955,
                "tempo": 120.0
            },
            {
                "pitch": 94,
                "velocity": 51,
                "duration": 0.3955,
                "tempo": 120.0
            },
            {
                "pitch": 94,
                "velocity": 51,
                "duration": 0.2,
                "tempo": 120.0
            },
            {
                "pitch": 91,
                "velocity": 51,
                "duration": 0.2,
                "tempo": 120.0
            },
            {
                "pitch": 81,
                "velocity": 51,
                "duration": 6.2295,
                "tempo": 120.0
            },
            {
                "pitch": 91,
                "velocity": 51,
                "duration": 2.3227,
                "tempo": 120.0
            },
            {
                "pitch": 86,
                "velocity": 51,
                "duration": 0.1955,
                "tempo": 120.0
            },
            {
                "pitch": 88,
                "velocity": 51,
                "duration": 6.425,
                "tempo": 120.0
            },
            {
                "pitch": 88,
                "velocity": 51,
                "duration": 0.1977,
                "tempo": 120.0
            },
            {
                "pitch": 90,
                "velocity": 51,
                "duration": 0.2,
                "tempo": 120.0
            },
            {
                "pitch": 86,
                "velocity": 51,
                "duration": 0.6,
                "tempo": 120.0
            },
            {
                "pitch": 86,
                "velocity": 51,
                "duration": 0.2023,
                "tempo": 120.0
            },
            {
                "pitch": 88,
                "velocity": 51,
                "duration": 1.5523,
                "tempo": 120.0
            },
            {
                "pitch": 88,
                "velocity": 51,
                "duration": 1.15,
                "tempo": 120.0
            },
            {
                "pitch": 90,
                "velocity": 51,
                "duration": 1.7455,
                "tempo": 120.0
            },
            {
                "pitch": 90,
                "velocity": 51,
                "duration": 0.3932,
                "tempo": 120.0
            },
            {
                "pitch": 102,
                "velocity": 51,
                "duration": 8.175,
                "tempo": 120.0
            },
            {
                "pitch": 91,
                "velocity": 51,
                "duration": 0.4023,
                "tempo": 120.0
            },
            {
                "pitch": 88,
                "velocity": 51,
                "duration": 1.1818,
                "tempo": 120.0
            },
            {
                "pitch": 88,
                "velocity": 51,
                "duration": 0.3864,
                "tempo": 120.0
            },
            {
                "pitch": 94,
                "velocity": 51,
                "duration": 6.0318,
                "tempo": 120.0
            },
            {
                "pitch": 94,
                "velocity": 51,
                "duration": 0.3818,
                "tempo": 120.0
            },
            {
                "pitch": 94,
                "velocity": 51,
                "duration": 0.4023,
                "tempo": 120.0
            },
            {
                "pitch": 93,
                "velocity": 51,
                "duration": 3.1159,
                "tempo": 120.0
            },
            {
                "pitch": 93,
                "velocity": 51,
                "duration": 1.1705,
                "tempo": 120.0
            },
            {
                "pitch": 96,
                "velocity": 51,
                "duration": 11.3023,
                "tempo": 120.0
            },
            {
                "pitch": 96,
                "velocity": 51,
                "duration": 0.3818,
                "tempo": 120.0
            },
            {
                "pitch": 96,
                "velocity": 51,
                "duration": 0.3932,
                "tempo": 120.0
            },
            {
                "pitch": 94,
                "velocity": 51,
                "duration": 1.15,
                "tempo": 120.0
            },
            {
                "pitch": 94,
                "velocity": 51,
                "duration": 0.375,
                "tempo": 120.0
            },
            {
                "pitch": 96,
                "velocity": 51,
                "duration": 0.7955,
                "tempo": 120.0
            },
            {
                "pitch": 100,
                "velocity": 51,
                "duration": 9.7341,
                "tempo": 120.0
            },
            {
                "pitch": 100,
                "velocity": 51,
                "duration": 2.7182,
                "tempo": 120.0
            },
            {
                "pitch": 81,
                "velocity": 51,
                "duration": 13.2545,
                "tempo": 120.0
            },
            {
                "pitch": 93,
                "velocity": 51,
                "duration": 0.3932,
                "tempo": 120.0
            },
            {
                "pitch": 86,
                "velocity": 51,
                "duration": 13.4295,
                "tempo": 120.0
            },
            {
                "pitch": 86,
                "velocity": 51,
                "duration": 0.9705,
                "tempo": 120.0
            },
            {
                "pitch": 88,
                "velocity": 51,
                "duration": 0.2,
                "tempo": 120.0
            },
            {
                "pitch": 90,
                "velocity": 51,
                "duration": 0.1841,
                "tempo": 120.0
            },
            {
                "pitch": 102,
                "velocity": 51,
                "duration": 12.2705,
                "tempo": 120.0
            },
            {
                "pitch": 91,
                "velocity": 51,
                "duration": 0.2,
                "tempo": 120.0
            },
            {
                "pitch": 81,
                "velocity": 51,
                "duration": 1.9477,
                "tempo": 120.0
            },
            {
                "pitch": 91,
                "velocity": 51,
                "duration": 0.3932,
                "tempo": 120.0
            },
            {
                "pitch": 90,
                "velocity": 51,
                "duration": 0.3909,
                "tempo": 120.0
            },
            {
                "pitch": 102,
                "velocity": 51,
                "duration": 0.9841,
                "tempo": 120.0
            },
            {
                "pitch": 95,
                "velocity": 51,
                "duration": 0.3864,
                "tempo": 120.0
            },
            {
                "pitch": 79,
                "velocity": 51,
                "duration": 13.6318,
                "tempo": 120.0
            },
            {
                "pitch": 91,
                "velocity": 51,
                "duration": 0.3932,
                "tempo": 120.0
            },
            {
                "pitch": 90,
                "velocity": 51,
                "duration": 1.1659,
                "tempo": 120.0
            },
            {
                "pitch": 102,
                "velocity": 51,
                "duration": 1.9455,
                "tempo": 120.0
            },
            {
                "pitch": 79,
                "velocity": 51,
                "duration": 1.3682,
                "tempo": 120.0
            },
            {
                "pitch": 91,
                "velocity": 51,
                "duration": 0.2023,
                "tempo": 120.0
            },
            {
                "pitch": 90,
                "velocity": 51,
                "duration": 0.1841,
                "tempo": 120.0
            },
            {
                "pitch": 88,
                "velocity": 51,
                "duration": 5.0705,
                "tempo": 120.0
            },
            {
                "pitch": 88,
                "velocity": 51,
                "duration": 1.5705,
                "tempo": 120.0
            },
            {
                "pitch": 86,
                "velocity": 51,
                "duration": 6.2364,
                "tempo": 120.0
            },
            {
                "pitch": 86,
                "velocity": 51,
                "duration": 0.9659,
                "tempo": 120.0
            },
            {
                "pitch": 88,
                "velocity": 51,
                "duration": 1.1614,
                "tempo": 120.0
            },
            {
                "pitch": 88,
                "velocity": 51,
                "duration": 0.1955,
                "tempo": 120.0
            },
            {
                "pitch": 90,
                "velocity": 51,
                "duration": 2.9341,
                "tempo": 120.0
            },
            {
                "pitch": 90,
                "velocity": 51,
                "duration": 0.2023,
                "tempo": 120.0
            },
            {
                "pitch": 102,
                "velocity": 51,
                "duration": 3.3205,
                "tempo": 120.0
            },
            {
                "pitch": 91,
                "velocity": 51,
                "duration": 0.1841,
                "tempo": 120.0
            },
            {
                "pitch": 81,
                "velocity": 51,
                "duration": 6.2318,
                "tempo": 120.0
            },
            {
                "pitch": 91,
                "velocity": 51,
                "duration": 0.3909,
                "tempo": 120.0
            },
            {
                "pitch": 90,
                "velocity": 51,
                "duration": 0.4,
                "tempo": 120.0
            },
            {
                "pitch": 102,
                "velocity": 51,
                "duration": 0.975,
                "tempo": 120.0
            },
            {
                "pitch": 95,
                "velocity": 51,
                "duration": 6.2409,
                "tempo": 120.0
            },
            {
                "pitch": 95,
                "velocity": 51,
                "duration": 0.3864,
                "tempo": 120.0
            },
            {
                "pitch": 91,
                "velocity": 51,
                "duration": 0.3818,
                "tempo": 120.0
            },
            {
                "pitch": 91,
                "velocity": 51,
                "duration": 0.7795,
                "tempo": 120.0
            },
            {
                "pitch": 93,
                "velocity": 51,
                "duration": 0.3909,
                "tempo": 120.0
            },
            {
                "pitch": 90,
                "velocity": 51,
                "duration": 0.3841,
                "tempo": 120.0
            },
            {
                "pitch": 102,
                "velocity": 51,
                "duration": 2.3227,
                "tempo": 120.0
            },
            {
                "pitch": 79,
                "velocity": 51,
                "duration": 7.1977,
                "tempo": 120.0
            },
            {
                "pitch": 91,
                "velocity": 51,
                "duration": 0.7818,
                "tempo": 120.0
            },
            {
                "pitch": 88,
                "velocity": 51,
                "duration": 5.0591,
                "tempo": 120.0
            },
            {
                "pitch": 88,
                "velocity": 51,
                "duration": 0.7773,
                "tempo": 120.0
            },
            {
                "pitch": 86,
                "velocity": 51,
                "duration": 6.4227,
                "tempo": 120.0
            },
            {
                "pitch": 86,
                "velocity": 51,
                "duration": 1.1682,
                "tempo": 120.0
            },
            {
                "pitch": 98,
                "velocity": 51,
                "duration": 17.9114,
                "tempo": 120.0
            },
            {
                "pitch": 93,
                "velocity": 51,
                "duration": 0.2023,
                "tempo": 120.0
            },
            {
                "pitch": 79,
                "velocity": 51,
                "duration": 2.3318,
                "tempo": 120.0
            },
            {
                "pitch": 93,
                "velocity": 51,
                "duration": 0.1841,
                "tempo": 120.0
            },
            {
                "pitch": 88,
                "velocity": 51,
                "duration": 2.7205,
                "tempo": 120.0
            },
            {
                "pitch": 88,
                "velocity": 51,
                "duration": 1.1659,
                "tempo": 120.0
            },
            {
                "pitch": 100,
                "velocity": 51,
                "duration": 15.575,
                "tempo": 120.0
            },
            {
                "pitch": 93,
                "velocity": 51,
                "duration": 0.1955,
                "tempo": 120.0
            },
            {
                "pitch": 79,
                "velocity": 51,
                "duration": 1.5591,
                "tempo": 120.0
            },
            {
                "pitch": 93,
                "velocity": 51,
                "duration": 0.1977,
                "tempo": 120.0
            },
            {
                "pitch": 86,
                "velocity": 51,
                "duration": 1.1795,
                "tempo": 120.0
            },
            {
                "pitch": 98,
                "velocity": 51,
                "duration": 3.125,
                "tempo": 120.0
            },
            {
                "pitch": 95,
                "velocity": 51,
                "duration": 7.9841,
                "tempo": 120.0
            },
            {
                "pitch": 95,
                "velocity": 51,
                "duration": 0.1955,
                "tempo": 120.0
            },
            {
                "pitch": 79,
                "velocity": 51,
                "duration": 1.5727,
                "tempo": 120.0
            },
            {
                "pitch": 91,
                "velocity": 51,
                "duration": 0.1977,
                "tempo": 120.0
            },
            {
                "pitch": 88,
                "velocity": 51,
                "duration": 1.1636,
                "tempo": 120.0
            },
            {
                "pitch": 100,
                "velocity": 51,
                "duration": 3.1295,
                "tempo": 120.0
            },
            {
                "pitch": 93,
                "velocity": 51,
                "duration": 0.1909,
                "tempo": 120.0
            },
            {
                "pitch": 79,
                "velocity": 51,
                "duration": 1.5455,
                "tempo": 120.0
            },
            {
                "pitch": 93,
                "velocity": 51,
                "duration": 0.1909,
                "tempo": 120.0
            },
            {
                "pitch": 86,
                "velocity": 51,
                "duration": 0.4023,
                "tempo": 120.0
            },
            {
                "pitch": 90,
                "velocity": 51,
                "duration": 0.2,
                "tempo": 120.0
            },
            {
                "pitch": 102,
                "velocity": 51,
                "duration": 8.3932,
                "tempo": 120.0
            },
            {
                "pitch": 79,
                "velocity": 51,
                "duration": 0.7864,
                "tempo": 120.0
            },
            {
                "pitch": 91,
                "velocity": 51,
                "duration": 0.1841,
                "tempo": 120.0
            },
            {
                "pitch": 88,
                "velocity": 51,
                "duration": 0.3932,
                "tempo": 120.0
            },
            {
                "pitch": 100,
                "velocity": 51,
                "duration": 1.5614,
                "tempo": 120.0
            },
            {
                "pitch": 93,
                "velocity": 51,
                "duration": 0.2,
                "tempo": 120.0
            },
            {
                "pitch": 79,
                "velocity": 51,
                "duration": 0.7955,
                "tempo": 120.0
            },
            {
                "pitch": 93,
                "velocity": 51,
                "duration": 0.2023,
                "tempo": 120.0
            },
            {
                "pitch": 86,
                "velocity": 51,
                "duration": 1.5545,
                "tempo": 120.0
            },
            {
                "pitch": 86,
                "velocity": 51,
                "duration": 0.375,
                "tempo": 120.0
            },
            {
                "pitch": 90,
                "velocity": 51,
                "duration": 0.1955,
                "tempo": 120.0
            },
            {
                "pitch": 102,
                "velocity": 51,
                "duration": 1.55,
                "tempo": 120.0
            },
            {
                "pitch": 79,
                "velocity": 51,
                "duration": 0.7682,
                "tempo": 120.0
            },
            {
                "pitch": 91,
                "velocity": 51,
                "duration": 0.1977,
                "tempo": 120.0
            },
            {
                "pitch": 88,
                "velocity": 51,
                "duration": 0.375,
                "tempo": 120.0
            },
            {
                "pitch": 100,
                "velocity": 51,
                "duration": 1.5455,
                "tempo": 120.0
            },
            {
                "pitch": 93,
                "velocity": 51,
                "duration": 0.2,
                "tempo": 120.0
            },
            {
                "pitch": 79,
                "velocity": 51,
                "duration": 0.775,
                "tempo": 120.0
            },
            {
                "pitch": 93,
                "velocity": 51,
                "duration": 0.2,
                "tempo": 120.0
            },
            {
                "pitch": 86,
                "velocity": 51,
                "duration": 1.5591,
                "tempo": 120.0
            },
            {
                "pitch": 86,
                "velocity": 51,
                "duration": 0.3909,
                "tempo": 120.0
            },
            {
                "pitch": 90,
                "velocity": 51,
                "duration": 0.2023,
                "tempo": 120.0
            },
            {
                "pitch": 102,
                "velocity": 51,
                "duration": 1.5659,
                "tempo": 120.0
            },
            {
                "pitch": 91,
                "velocity": 51,
                "duration": 0.1841,
                "tempo": 120.0
            },
            {
                "pitch": 91,
                "velocity": 51,
                "duration": 0.3818,
                "tempo": 120.0
            },
            {
                "pitch": 93,
                "velocity": 51,
                "duration": 0.2023,
                "tempo": 120.0
            },
            {
                "pitch": 95,
                "velocity": 51,
                "duration": 6.2295,
                "tempo": 120.0
            },
            {
                "pitch": 97,
                "velocity": 51,
                "duration": 0.2023,
                "tempo": 120.0
            },
            {
                "pitch": 85,
                "velocity": 51,
                "duration": 0.3932,
                "tempo": 120.0
            },
            {
                "pitch": 86,
                "velocity": 51,
                "duration": 1.5659,
                "tempo": 120.0
            },
            {
                "pitch": 90,
                "velocity": 51,
                "duration": 0.1909,
                "tempo": 120.0
            },
            {
                "pitch": 102,
                "velocity": 51,
                "duration": 1.5545,
                "tempo": 120.0
            },
            {
                "pitch": 91,
                "velocity": 51,
                "duration": 0.1909,
                "tempo": 120.0
            },
            {
                "pitch": 91,
                "velocity": 51,
                "duration": 0.1955,
                "tempo": 120.0
            },
            {
                "pitch": 93,
                "velocity": 51,
                "duration": 0.1977,
                "tempo": 120.0
            },
            {
                "pitch": 95,
                "velocity": 51,
                "duration": 1.3705,
                "tempo": 120.0
            },
            {
                "pitch": 97,
                "velocity": 51,
                "duration": 0.3932,
                "tempo": 120.0
            },
            {
                "pitch": 85,
                "velocity": 51,
                "duration": 0.3932,
                "tempo": 120.0
            },
            {
                "pitch": 86,
                "velocity": 51,
                "duration": 1.5614,
                "tempo": 120.0
            },
            {
                "pitch": 90,
                "velocity": 51,
                "duration": 0.1955,
                "tempo": 120.0
            },
            {
                "pitch": 102,
                "velocity": 51,
                "duration": 1.5659,
                "tempo": 120.0
            },
            {
                "pitch": 91,
                "velocity": 51,
                "duration": 0.1795,
                "tempo": 120.0
            },
            {
                "pitch": 91,
                "velocity": 51,
                "duration": 0.3818,
                "tempo": 120.0
            },
            {
                "pitch": 93,
                "velocity": 51,
                "duration": 0.2,
                "tempo": 120.0
            },
            {
                "pitch": 95,
                "velocity": 51,
                "duration": 1.7432,
                "tempo": 120.0
            },
            {
                "pitch": 97,
                "velocity": 51,
                "duration": 0.2,
                "tempo": 120.0
            },
            {
                "pitch": 85,
                "velocity": 51,
                "duration": 0.3864,
                "tempo": 120.0
            },
            {
                "pitch": 86,
                "velocity": 51,
                "duration": 1.5432,
                "tempo": 120.0
            },
            {
                "pitch": 90,
                "velocity": 51,
                "duration": 0.1955,
                "tempo": 120.0
            },
            {
                "pitch": 102,
                "velocity": 51,
                "duration": 1.5432,
                "tempo": 120.0
            },
            {
                "pitch": 91,
                "velocity": 51,
                "duration": 0.1977,
                "tempo": 120.0
            },
            {
                "pitch": 91,
                "velocity": 51,
                "duration": 0.1955,
                "tempo": 120.0
            },
            {
                "pitch": 93,
                "velocity": 51,
                "duration": 0.1955,
                "tempo": 120.0
            },
            {
                "pitch": 95,
                "velocity": 51,
                "duration": 1.3705,
                "tempo": 120.0
            },
            {
                "pitch": 97,
                "velocity": 51,
                "duration": 0.3841,
                "tempo": 120.0
            },
            {
                "pitch": 97,
                "velocity": 51,
                "duration": 0.3909,
                "tempo": 120.0
            },
            {
                "pitch": 98,
                "velocity": 51,
                "duration": 11.6841,
                "tempo": 120.0
            },
            {
                "pitch": 93,
                "velocity": 51,
                "duration": 0.2023,
                "tempo": 120.0
            },
            {
                "pitch": 93,
                "velocity": 51,
                "duration": 0.1841,
                "tempo": 120.0
            },
            {
                "pitch": 95,
                "velocity": 51,
                "duration": 1.1614,
                "tempo": 120.0
            },
            {
                "pitch": 91,
                "velocity": 51,
                "duration": 0.3818,
                "tempo": 120.0
            },
            {
                "pitch": 81,
                "velocity": 51,
                "duration": 21.2295,
                "tempo": 120.0
            },
            {
                "pitch": 91,
                "velocity": 51,
                "duration": 0.2023,
                "tempo": 120.0
            },
            {
                "pitch": 90,
                "velocity": 51,
                "duration": 0.2023,
                "tempo": 120.0
            },
            {
                "pitch": 102,
                "velocity": 51,
                "duration": 2.5364,
                "tempo": 120.0
            },
            {
                "pitch": 91,
                "velocity": 51,
                "duration": 0.3818,
                "tempo": 120.0
            },
            {
                "pitch": 81,
                "velocity": 51,
                "duration": 0.7795,
                "tempo": 120.0
            },
            {
                "pitch": 91,
                "velocity": 51,
                "duration": 0.1955,
                "tempo": 120.0
            },
            {
                "pitch": 90,
                "velocity": 51,
                "duration": 0.1977,
                "tempo": 120.0
            },
            {
                "pitch": 86,
                "velocity": 51,
                "duration": 4.2841,
                "tempo": 120.0
            },
            {
                "pitch": 86,
                "velocity": 51,
                "duration": 0.7773,
                "tempo": 120.0
            },
            {
                "pitch": 98,
                "velocity": 51,
                "duration": 2.725,
                "tempo": 120.0
            },
            {
                "pitch": 79,
                "velocity": 51,
                "duration": 9.7386,
                "tempo": 120.0
            },
            {
                "pitch": 91,
                "velocity": 51,
                "duration": 0.3932,
                "tempo": 120.0
            },
            {
                "pitch": 88,
                "velocity": 51,
                "duration": 0.2,
                "tempo": 120.0
            },
            {
                "pitch": 85,
                "velocity": 51,
                "duration": 0.2023,
                "tempo": 120.0
            },
            {
                "pitch": 85,
                "velocity": 51,
                "duration": 0.3841,
                "tempo": 120.0
            },
            {
                "pitch": 88,
                "velocity": 51,
                "duration": 0.7818,
                "tempo": 120.0
            },
            {
                "pitch": 88,
                "velocity": 51,
                "duration": 0.1955,
                "tempo": 120.0
            },
            {
                "pitch": 85,
                "velocity": 51,
                "duration": 0.3909,
                "tempo": 120.0
            },
            {
                "pitch": 85,
                "velocity": 51,
                "duration": 0.1955,
                "tempo": 120.0
            },
            {
                "pitch": 85,
                "velocity": 51,
                "duration": 0.3773,
                "tempo": 120.0
            },
            {
                "pitch": 90,
                "velocity": 51,
                "duration": 2.9205,
                "tempo": 120.0
            },
            {
                "pitch": 90,
                "velocity": 51,
                "duration": 0.1955,
                "tempo": 120.0
            },
            {
                "pitch": 86,
                "velocity": 51,
                "duration": 0.3909,
                "tempo": 120.0
            },
            {
                "pitch": 86,
                "velocity": 51,
                "duration": 0.1955,
                "tempo": 120.0
            },
            {
                "pitch": 83,
                "velocity": 51,
                "duration": 23.1795,
                "tempo": 120.0
            },
            {
                "pitch": 83,
                "velocity": 51,
                "duration": 0.1955,
                "tempo": 120.0
            },
            {
                "pitch": 85,
                "velocity": 51,
                "duration": 0.1977,
                "tempo": 120.0
            },
            {
                "pitch": 85,
                "velocity": 51,
                "duration": 0.1864,
                "tempo": 120.0
            },
            {
                "pitch": 86,
                "velocity": 51,
                "duration": 0.5795,
                "tempo": 120.0
            },
            {
                "pitch": 88,
                "velocity": 51,
                "duration": 1.75,
                "tempo": 120.0
            },
            {
                "pitch": 88,
                "velocity": 51,
                "duration": 0.2068,
                "tempo": 120.0
            },
            {
                "pitch": 86,
                "velocity": 51,
                "duration": 0.3977,
                "tempo": 120.0
            },
            {
                "pitch": 86,
                "velocity": 51,
                "duration": 0.1909,
                "tempo": 120.0
            },
            {
                "pitch": 90,
                "velocity": 51,
                "duration": 1.3636,
                "tempo": 120.0
            },
            {
                "pitch": 90,
                "velocity": 51,
                "duration": 0.1909,
                "tempo": 120.0
            },
            {
                "pitch": 102,
                "velocity": 51,
                "duration": 5.0591,
                "tempo": 120.0
            },
            {
                "pitch": 95,
                "velocity": 51,
                "duration": 6.0455,
                "tempo": 120.0
            },
            {
                "pitch": 95,
                "velocity": 51,
                "duration": 0.2,
                "tempo": 120.0
            },
            {
                "pitch": 79,
                "velocity": 51,
                "duration": 3.5136,
                "tempo": 120.0
            },
            {
                "pitch": 91,
                "velocity": 51,
                "duration": 0.2,
                "tempo": 120.0
            },
            {
                "pitch": 88,
                "velocity": 51,
                "duration": 0.9659,
                "tempo": 120.0
            },
            {
                "pitch": 88,
                "velocity": 51,
                "duration": 0.1841,
                "tempo": 120.0
            },
            {
                "pitch": 100,
                "velocity": 51,
                "duration": 13.8364,
                "tempo": 120.0
            },
            {
                "pitch": 93,
                "velocity": 51,
                "duration": 0.2023,
                "tempo": 120.0
            },
            {
                "pitch": 97,
                "velocity": 51,
                "duration": 0.1909,
                "tempo": 120.0
            },
            {
                "pitch": 93,
                "velocity": 51,
                "duration": 0.3818,
                "tempo": 120.0
            },
            {
                "pitch": 93,
                "velocity": 51,
                "duration": 0.1909,
                "tempo": 120.0
            },
            {
                "pitch": 93,
                "velocity": 51,
                "duration": 0.2,
                "tempo": 120.0
            },
            {
                "pitch": 95,
                "velocity": 51,
                "duration": 1.1682,
                "tempo": 120.0
            },
            {
                "pitch": 91,
                "velocity": 51,
                "duration": 0.1864,
                "tempo": 120.0
            },
            {
                "pitch": 97,
                "velocity": 51,
                "duration": 0.7682,
                "tempo": 120.0
            },
            {
                "pitch": 97,
                "velocity": 51,
                "duration": 0.1909,
                "tempo": 120.0
            },
            {
                "pitch": 93,
                "velocity": 51,
                "duration": 0.1909,
                "tempo": 120.0
            },
            {
                "pitch": 97,
                "velocity": 51,
                "duration": 0.3932,
                "tempo": 120.0
            },
            {
                "pitch": 97,
                "velocity": 51,
                "duration": 0.2023,
                "tempo": 120.0
            },
            {
                "pitch": 100,
                "velocity": 51,
                "duration": 1.7545,
                "tempo": 120.0
            },
            {
                "pitch": 100,
                "velocity": 51,
                "duration": 0.2,
                "tempo": 120.0
            },
            {
                "pitch": 102,
                "velocity": 51,
                "duration": 2.5432,
                "tempo": 120.0
            },
            {
                "pitch": 102,
                "velocity": 51,
                "duration": 0.2045,
                "tempo": 120.0
            },
            {
                "pitch": 98,
                "velocity": 51,
                "duration": 6.2386,
                "tempo": 120.0
            },
            {
                "pitch": 98,
                "velocity": 51,
                "duration": 0.1886,
                "tempo": 120.0
            },
            {
                "pitch": 86,
                "velocity": 51,
                "duration": 6.0318,
                "tempo": 120.0
            },
            {
                "pitch": 98,
                "velocity": 51,
                "duration": 3.1091,
                "tempo": 120.0
            },
            {
                "pitch": 81,
                "velocity": 51,
                "duration": 10.9091,
                "tempo": 120.0
            },
            {
                "pitch": 81,
                "velocity": 51,
                "duration": 0.5864,
                "tempo": 120.0
            },
            {
                "pitch": 86,
                "velocity": 51,
                "duration": 0.7818,
                "tempo": 120.0
            },
            {
                "pitch": 86,
                "velocity": 51,
                "duration": 0.1955,
                "tempo": 120.0
            },
            {
                "pitch": 88,
                "velocity": 51,
                "duration": 0.1886,
                "tempo": 120.0
            },
            {
                "pitch": 100,
                "velocity": 51,
                "duration": 4.4727,
                "tempo": 120.0
            },
            {
                "pitch": 91,
                "velocity": 51,
                "duration": 5.4636,
                "tempo": 120.0
            },
            {
                "pitch": 91,
                "velocity": 51,
                "duration": 0.2068,
                "tempo": 120.0
            },
            {
                "pitch": 91,
                "velocity": 51,
                "duration": 1.925,
                "tempo": 120.0
            },
            {
                "pitch": 81,
                "velocity": 51,
                "duration": 2.5273,
                "tempo": 120.0
            },
            {
                "pitch": 81,
                "velocity": 51,
                "duration": 0.0114,
                "tempo": 120.0
            }
        ],
        "Acoustic Grand Piano": [
            {
                "pitch": 66,
                "velocity": 20,
                "duration": 0.1955,
                "tempo": 120.0
            },
            {
                "pitch": 67,
                "velocity": 20,
                "duration": 0.1955,
                "tempo": 120.0
            },
            {
                "pitch": 67,
                "velocity": 20,
                "duration": 0.2,
                "tempo": 120.0
            },
            {
                "pitch": 69,
                "velocity": 20,
                "duration": 0.1841,
                "tempo": 120.0
            },
            {
                "pitch": 74,
                "velocity": 20,
                "duration": 2.3364,
                "tempo": 120.0
            },
            {
                "pitch": 74,
                "velocity": 20,
                "duration": 0.3932,
                "tempo": 120.0
            },
            {
                "pitch": 70,
                "velocity": 20,
                "duration": 2.925,
                "tempo": 120.0
            },
            {
                "pitch": 70,
                "velocity": 20,
                "duration": 0.1955,
                "tempo": 120.0
            },
            {
                "pitch": 72,
                "velocity": 20,
                "duration": 0.375,
                "tempo": 120.0
            },
            {
                "pitch": 72,
                "velocity": 20,
                "duration": 0.1795,
                "tempo": 120.0
            },
            {
                "pitch": 69,
                "velocity": 20,
                "duration": 2.3477,
                "tempo": 120.0
            },
            {
                "pitch": 64,
                "velocity": 20,
                "duration": 0.1977,
                "tempo": 120.0
            },
            {
                "pitch": 66,
                "velocity": 20,
                "duration": 0.1955,
                "tempo": 120.0
            },
            {
                "pitch": 78,
                "velocity": 20,
                "duration": 6.425,
                "tempo": 120.0
            },
            {
                "pitch": 67,
                "velocity": 20,
                "duration": 0.2023,
                "tempo": 120.0
            },
            {
                "pitch": 67,
                "velocity": 20,
                "duration": 0.2,
                "tempo": 120.0
            },
            {
                "pitch": 69,
                "velocity": 20,
                "duration": 2.3205,
                "tempo": 120.0
            },
            {
                "pitch": 70,
                "velocity": 20,
                "duration": 5.8386,
                "tempo": 120.0
            },
            {
                "pitch": 70,
                "velocity": 20,
                "duration": 0.1955,
                "tempo": 120.0
            },
            {
                "pitch": 72,
                "velocity": 20,
                "duration": 5.8545,
                "tempo": 120.0
            },
            {
                "pitch": 72,
                "velocity": 20,
                "duration": 0.1955,
                "tempo": 120.0
            },
            {
                "pitch": 70,
                "velocity": 20,
                "duration": 0.3955,
                "tempo": 120.0
            },
            {
                "pitch": 70,
                "velocity": 20,
                "duration": 0.2,
                "tempo": 120.0
            },
            {
                "pitch": 67,
                "velocity": 20,
                "duration": 0.2,
                "tempo": 120.0
            },
            {
                "pitch": 57,
                "velocity": 20,
                "duration": 6.2295,
                "tempo": 120.0
            },
            {
                "pitch": 67,
                "velocity": 20,
                "duration": 2.3227,
                "tempo": 120.0
            },
            {
                "pitch": 62,
                "velocity": 20,
                "duration": 12.6523,
                "tempo": 120.0
            },
            {
                "pitch": 62,
                "velocity": 20,
                "duration": 0.1955,
                "tempo": 120.0
            },
            {
                "pitch": 64,
                "velocity": 20,
                "duration": 6.425,
                "tempo": 120.0
            },
            {
                "pitch": 64,
                "velocity": 20,
                "duration": 0.1977,
                "tempo": 120.0
            },
            {
                "pitch": 66,
                "velocity": 20,
                "duration": 0.2,
                "tempo": 120.0
            },
            {
                "pitch": 62,
                "velocity": 20,
                "duration": 0.6,
                "tempo": 120.0
            },
            {
                "pitch": 62,
                "velocity": 20,
                "duration": 0.2023,
                "tempo": 120.0
            },
            {
                "pitch": 64,
                "velocity": 20,
                "duration": 1.5523,
                "tempo": 120.0
            },
            {
                "pitch": 64,
                "velocity": 20,
                "duration": 1.15,
                "tempo": 120.0
            },
            {
                "pitch": 66,
                "velocity": 20,
                "duration": 1.7455,
                "tempo": 120.0
            },
            {
                "pitch": 66,
                "velocity": 20,
                "duration": 0.3932,
                "tempo": 120.0
            },
            {
                "pitch": 78,
                "velocity": 20,
                "duration": 8.175,
                "tempo": 120.0
            },
            {
                "pitch": 67,
                "velocity": 20,
                "duration": 0.4023,
                "tempo": 120.0
            },
            {
                "pitch": 64,
                "velocity": 20,
                "duration": 1.1818,
                "tempo": 120.0
            },
            {
                "pitch": 64,
                "velocity": 20,
                "duration": 0.3864,
                "tempo": 120.0
            },
            {
                "pitch": 70,
                "velocity": 20,
                "duration": 6.0318,
                "tempo": 120.0
            },
            {
                "pitch": 70,
                "velocity": 20,
                "duration": 0.3818,
                "tempo": 120.0
            },
            {
                "pitch": 70,
                "velocity": 20,
                "duration": 0.4023,
                "tempo": 120.0
            },
            {
                "pitch": 69,
                "velocity": 20,
                "duration": 3.1136,
                "tempo": 120.0
            },
            {
                "pitch": 69,
                "velocity": 20,
                "duration": 1.1727,
                "tempo": 120.0
            },
            {
                "pitch": 72,
                "velocity": 20,
                "duration": 11.3023,
                "tempo": 120.0
            },
            {
                "pitch": 72,
                "velocity": 20,
                "duration": 0.3818,
                "tempo": 120.0
            },
            {
                "pitch": 72,
                "velocity": 20,
                "duration": 0.3932,
                "tempo": 120.0
            },
            {
                "pitch": 70,
                "velocity": 20,
                "duration": 1.15,
                "tempo": 120.0
            },
            {
                "pitch": 70,
                "velocity": 20,
                "duration": 0.375,
                "tempo": 120.0
            },
            {
                "pitch": 72,
                "velocity": 20,
                "duration": 0.7955,
                "tempo": 120.0
            },
            {
                "pitch": 76,
                "velocity": 20,
                "duration": 9.7341,
                "tempo": 120.0
            },
            {
                "pitch": 76,
                "velocity": 20,
                "duration": 2.7182,
                "tempo": 120.0
            },
            {
                "pitch": 57,
                "velocity": 20,
                "duration": 13.2545,
                "tempo": 120.0
            },
            {
                "pitch": 69,
                "velocity": 20,
                "duration": 0.3932,
                "tempo": 120.0
            },
            {
                "pitch": 62,
                "velocity": 20,
                "duration": 13.4295,
                "tempo": 120.0
            },
            {
                "pitch": 62,
                "velocity": 20,
                "duration": 0.9705,
                "tempo": 120.0
            },
            {
                "pitch": 64,
                "velocity": 20,
                "duration": 0.2,
                "tempo": 120.0
            },
            {
                "pitch": 66,
                "velocity": 20,
                "duration": 0.1841,
                "tempo": 120.0
            },
            {
                "pitch": 78,
                "velocity": 20,
                "duration": 12.2705,
                "tempo": 120.0
            },
            {
                "pitch": 67,
                "velocity": 20,
                "duration": 0.2,
                "tempo": 120.0
            },
            {
                "pitch": 57,
                "velocity": 20,
                "duration": 1.9477,
                "tempo": 120.0
            },
            {
                "pitch": 67,
                "velocity": 20,
                "duration": 0.3932,
                "tempo": 120.0
            },
            {
                "pitch": 66,
                "velocity": 20,
                "duration": 0.3909,
                "tempo": 120.0
            },
            {
                "pitch": 78,
                "velocity": 20,
                "duration": 0.9841,
                "tempo": 120.0
            },
            {
                "pitch": 71,
                "velocity": 20,
                "duration": 0.3864,
                "tempo": 120.0
            },
            {
                "pitch": 55,
                "velocity": 20,
                "duration": 13.6318,
                "tempo": 120.0
            },
            {
                "pitch": 67,
                "velocity": 20,
                "duration": 0.3932,
                "tempo": 120.0
            },
            {
                "pitch": 66,
                "velocity": 20,
                "duration": 1.1659,
                "tempo": 120.0
            },
            {
                "pitch": 78,
                "velocity": 20,
                "duration": 1.9455,
                "tempo": 120.0
            },
            {
                "pitch": 55,
                "velocity": 20,
                "duration": 1.3682,
                "tempo": 120.0
            },
            {
                "pitch": 67,
                "velocity": 20,
                "duration": 0.2023,
                "tempo": 120.0
            },
            {
                "pitch": 66,
                "velocity": 20,
                "duration": 0.1841,
                "tempo": 120.0
            },
            {
                "pitch": 64,
                "velocity": 20,
                "duration": 5.0705,
                "tempo": 120.0
            },
            {
                "pitch": 64,
                "velocity": 20,
                "duration": 1.5705,
                "tempo": 120.0
            },
            {
                "pitch": 62,
                "velocity": 20,
                "duration": 6.2341,
                "tempo": 120.0
            },
            {
                "pitch": 62,
                "velocity": 20,
                "duration": 0.9636,
                "tempo": 120.0
            },
            {
                "pitch": 62,
                "velocity": 20,
                "duration": 0.0023,
                "tempo": 120.0
            },
            {
                "pitch": 64,
                "velocity": 20,
                "duration": 1.1614,
                "tempo": 120.0
            },
            {
                "pitch": 64,
                "velocity": 20,
                "duration": 0.1955,
                "tempo": 120.0
            },
            {
                "pitch": 66,
                "velocity": 20,
                "duration": 2.9341,
                "tempo": 120.0
            },
            {
                "pitch": 66,
                "velocity": 20,
                "duration": 0.2023,
                "tempo": 120.0
            },
            {
                "pitch": 78,
                "velocity": 20,
                "duration": 3.3205,
                "tempo": 120.0
            },
            {
                "pitch": 67,
                "velocity": 20,
                "duration": 0.1841,
                "tempo": 120.0
            },
            {
                "pitch": 57,
                "velocity": 20,
                "duration": 6.2318,
                "tempo": 120.0
            },
            {
                "pitch": 67,
                "velocity": 20,
                "duration": 0.3909,
                "tempo": 120.0
            },
            {
                "pitch": 66,
                "velocity": 20,
                "duration": 0.4,
                "tempo": 120.0
            },
            {
                "pitch": 78,
                "velocity": 20,
                "duration": 0.975,
                "tempo": 120.0
            },
            {
                "pitch": 71,
                "velocity": 20,
                "duration": 6.2409,
                "tempo": 120.0
            },
            {
                "pitch": 71,
                "velocity": 20,
                "duration": 0.3864,
                "tempo": 120.0
            },
            {
                "pitch": 67,
                "velocity": 20,
                "duration": 0.3818,
                "tempo": 120.0
            },
            {
                "pitch": 67,
                "velocity": 20,
                "duration": 0.7773,
                "tempo": 120.0
            },
            {
                "pitch": 69,
                "velocity": 20,
                "duration": 0.3932,
                "tempo": 120.0
            },
            {
                "pitch": 66,
                "velocity": 20,
                "duration": 0.3841,
                "tempo": 120.0
            },
            {
                "pitch": 78,
                "velocity": 20,
                "duration": 2.3227,
                "tempo": 120.0
            },
            {
                "pitch": 55,
                "velocity": 20,
                "duration": 7.1977,
                "tempo": 120.0
            },
            {
                "pitch": 67,
                "velocity": 20,
                "duration": 0.7818,
                "tempo": 120.0
            },
            {
                "pitch": 64,
                "velocity": 20,
                "duration": 5.0591,
                "tempo": 120.0
            },
            {
                "pitch": 64,
                "velocity": 20,
                "duration": 0.7773,
                "tempo": 120.0
            },
            {
                "pitch": 62,
                "velocity": 20,
                "duration": 1.1682,
                "tempo": 120.0
            },
            {
                "pitch": 74,
                "velocity": 20,
                "duration": 17.9114,
                "tempo": 120.0
            },
            {
                "pitch": 69,
                "velocity": 20,
                "duration": 0.2023,
                "tempo": 120.0
            },
            {
                "pitch": 55,
                "velocity": 20,
                "duration": 2.3318,
                "tempo": 120.0
            },
            {
                "pitch": 69,
                "velocity": 20,
                "duration": 0.1841,
                "tempo": 120.0
            },
            {
                "pitch": 64,
                "velocity": 20,
                "duration": 2.7205,
                "tempo": 120.0
            },
            {
                "pitch": 64,
                "velocity": 20,
                "duration": 1.1659,
                "tempo": 120.0
            },
            {
                "pitch": 76,
                "velocity": 20,
                "duration": 15.575,
                "tempo": 120.0
            },
            {
                "pitch": 69,
                "velocity": 20,
                "duration": 0.1955,
                "tempo": 120.0
            },
            {
                "pitch": 55,
                "velocity": 20,
                "duration": 1.5591,
                "tempo": 120.0
            },
            {
                "pitch": 69,
                "velocity": 20,
                "duration": 0.1977,
                "tempo": 120.0
            },
            {
                "pitch": 62,
                "velocity": 20,
                "duration": 1.1795,
                "tempo": 120.0
            },
            {
                "pitch": 74,
                "velocity": 20,
                "duration": 3.125,
                "tempo": 120.0
            },
            {
                "pitch": 71,
                "velocity": 20,
                "duration": 7.9841,
                "tempo": 120.0
            },
            {
                "pitch": 71,
                "velocity": 20,
                "duration": 0.1955,
                "tempo": 120.0
            },
            {
                "pitch": 55,
                "velocity": 20,
                "duration": 1.5727,
                "tempo": 120.0
            },
            {
                "pitch": 67,
                "velocity": 20,
                "duration": 0.1977,
                "tempo": 120.0
            },
            {
                "pitch": 64,
                "velocity": 20,
                "duration": 1.1636,
                "tempo": 120.0
            },
            {
                "pitch": 76,
                "velocity": 20,
                "duration": 3.1295,
                "tempo": 120.0
            },
            {
                "pitch": 69,
                "velocity": 20,
                "duration": 0.1909,
                "tempo": 120.0
            },
            {
                "pitch": 55,
                "velocity": 20,
                "duration": 1.5455,
                "tempo": 120.0
            },
            {
                "pitch": 69,
                "velocity": 20,
                "duration": 0.1909,
                "tempo": 120.0
            },
            {
                "pitch": 62,
                "velocity": 20,
                "duration": 0.4023,
                "tempo": 120.0
            },
            {
                "pitch": 66,
                "velocity": 20,
                "duration": 0.2,
                "tempo": 120.0
            },
            {
                "pitch": 78,
                "velocity": 20,
                "duration": 8.3932,
                "tempo": 120.0
            },
            {
                "pitch": 55,
                "velocity": 20,
                "duration": 0.7864,
                "tempo": 120.0
            },
            {
                "pitch": 67,
                "velocity": 20,
                "duration": 0.1841,
                "tempo": 120.0
            },
            {
                "pitch": 64,
                "velocity": 20,
                "duration": 0.3932,
                "tempo": 120.0
            },
            {
                "pitch": 76,
                "velocity": 20,
                "duration": 1.5614,
                "tempo": 120.0
            },
            {
                "pitch": 69,
                "velocity": 20,
                "duration": 0.2,
                "tempo": 120.0
            },
            {
                "pitch": 55,
                "velocity": 20,
                "duration": 0.7955,
                "tempo": 120.0
            },
            {
                "pitch": 69,
                "velocity": 20,
                "duration": 0.2023,
                "tempo": 120.0
            },
            {
                "pitch": 62,
                "velocity": 20,
                "duration": 1.5545,
                "tempo": 120.0
            },
            {
                "pitch": 62,
                "velocity": 20,
                "duration": 0.375,
                "tempo": 120.0
            },
            {
                "pitch": 66,
                "velocity": 20,
                "duration": 0.1955,
                "tempo": 120.0
            },
            {
                "pitch": 78,
                "velocity": 20,
                "duration": 1.55,
                "tempo": 120.0
            },
            {
                "pitch": 55,
                "velocity": 20,
                "duration": 0.7682,
                "tempo": 120.0
            },
            {
                "pitch": 67,
                "velocity": 20,
                "duration": 0.1977,
                "tempo": 120.0
            },
            {
                "pitch": 64,
                "velocity": 20,
                "duration": 0.375,
                "tempo": 120.0
            },
            {
                "pitch": 76,
                "velocity": 20,
                "duration": 1.5455,
                "tempo": 120.0
            },
            {
                "pitch": 69,
                "velocity": 20,
                "duration": 0.2,
                "tempo": 120.0
            },
            {
                "pitch": 55,
                "velocity": 20,
                "duration": 0.775,
                "tempo": 120.0
            },
            {
                "pitch": 69,
                "velocity": 20,
                "duration": 0.2,
                "tempo": 120.0
            },
            {
                "pitch": 62,
                "velocity": 20,
                "duration": 1.5591,
                "tempo": 120.0
            },
            {
                "pitch": 62,
                "velocity": 20,
                "duration": 0.3909,
                "tempo": 120.0
            },
            {
                "pitch": 66,
                "velocity": 20,
                "duration": 0.2023,
                "tempo": 120.0
            },
            {
                "pitch": 78,
                "velocity": 20,
                "duration": 1.5659,
                "tempo": 120.0
            },
            {
                "pitch": 67,
                "velocity": 20,
                "duration": 0.1841,
                "tempo": 120.0
            },
            {
                "pitch": 67,
                "velocity": 20,
                "duration": 0.3818,
                "tempo": 120.0
            },
            {
                "pitch": 69,
                "velocity": 20,
                "duration": 0.2023,
                "tempo": 120.0
            },
            {
                "pitch": 71,
                "velocity": 20,
                "duration": 6.2295,
                "tempo": 120.0
            },
            {
                "pitch": 73,
                "velocity": 20,
                "duration": 0.2023,
                "tempo": 120.0
            },
            {
                "pitch": 61,
                "velocity": 20,
                "duration": 0.3932,
                "tempo": 120.0
            },
            {
                "pitch": 62,
                "velocity": 20,
                "duration": 1.5659,
                "tempo": 120.0
            },
            {
                "pitch": 66,
                "velocity": 20,
                "duration": 0.1909,
                "tempo": 120.0
            },
            {
                "pitch": 78,
                "velocity": 20,
                "duration": 1.5545,
                "tempo": 120.0
            },
            {
                "pitch": 67,
                "velocity": 20,
                "duration": 0.1909,
                "tempo": 120.0
            },
            {
                "pitch": 67,
                "velocity": 20,
                "duration": 0.1955,
                "tempo": 120.0
            },
            {
                "pitch": 69,
                "velocity": 20,
                "duration": 0.1977,
                "tempo": 120.0
            },
            {
                "pitch": 71,
                "velocity": 20,
                "duration": 1.3705,
                "tempo": 120.0
            },
            {
                "pitch": 73,
                "velocity": 20,
                "duration": 0.3932,
                "tempo": 120.0
            },
            {
                "pitch": 61,
                "velocity": 20,
                "duration": 0.3932,
                "tempo": 120.0
            },
            {
                "pitch": 62,
                "velocity": 20,
                "duration": 1.5614,
                "tempo": 120.0
            },
            {
                "pitch": 66,
                "velocity": 20,
                "duration": 0.1955,
                "tempo": 120.0
            },
            {
                "pitch": 78,
                "velocity": 20,
                "duration": 1.5659,
                "tempo": 120.0
            },
            {
                "pitch": 67,
                "velocity": 20,
                "duration": 0.1795,
                "tempo": 120.0
            },
            {
                "pitch": 67,
                "velocity": 20,
                "duration": 0.3818,
                "tempo": 120.0
            },
            {
                "pitch": 69,
                "velocity": 20,
                "duration": 0.2,
                "tempo": 120.0
            },
            {
                "pitch": 71,
                "velocity": 20,
                "duration": 1.7432,
                "tempo": 120.0
            },
            {
                "pitch": 73,
                "velocity": 20,
                "duration": 0.2,
                "tempo": 120.0
            },
            {
                "pitch": 61,
                "velocity": 20,
                "duration": 0.3864,
                "tempo": 120.0
            },
            {
                "pitch": 62,
                "velocity": 20,
                "duration": 1.5432,
                "tempo": 120.0
            },
            {
                "pitch": 66,
                "velocity": 20,
                "duration": 0.1955,
                "tempo": 120.0
            },
            {
                "pitch": 78,
                "velocity": 20,
                "duration": 1.5432,
                "tempo": 120.0
            },
            {
                "pitch": 67,
                "velocity": 20,
                "duration": 0.1977,
                "tempo": 120.0
            },
            {
                "pitch": 67,
                "velocity": 20,
                "duration": 0.1955,
                "tempo": 120.0
            },
            {
                "pitch": 69,
                "velocity": 20,
                "duration": 0.1955,
                "tempo": 120.0
            },
            {
                "pitch": 71,
                "velocity": 20,
                "duration": 1.3705,
                "tempo": 120.0
            },
            {
                "pitch": 73,
                "velocity": 20,
                "duration": 0.3841,
                "tempo": 120.0
            },
            {
                "pitch": 73,
                "velocity": 20,
                "duration": 0.3909,
                "tempo": 120.0
            },
            {
                "pitch": 74,
                "velocity": 20,
                "duration": 11.6841,
                "tempo": 120.0
            },
            {
                "pitch": 69,
                "velocity": 20,
                "duration": 0.2023,
                "tempo": 120.0
            },
            {
                "pitch": 69,
                "velocity": 20,
                "duration": 0.1841,
                "tempo": 120.0
            },
            {
                "pitch": 71,
                "velocity": 20,
                "duration": 1.1614,
                "tempo": 120.0
            },
            {
                "pitch": 67,
                "velocity": 20,
                "duration": 0.3818,
                "tempo": 120.0
            },
            {
                "pitch": 57,
                "velocity": 20,
                "duration": 21.2295,
                "tempo": 120.0
            },
            {
                "pitch": 67,
                "velocity": 20,
                "duration": 0.2023,
                "tempo": 120.0
            },
            {
                "pitch": 66,
                "velocity": 20,
                "duration": 0.2,
                "tempo": 120.0
            },
            {
                "pitch": 78,
                "velocity": 20,
                "duration": 2.5364,
                "tempo": 120.0
            },
            {
                "pitch": 78,
                "velocity": 20,
                "duration": 0.0023,
                "tempo": 120.0
            },
            {
                "pitch": 67,
                "velocity": 20,
                "duration": 0.3818,
                "tempo": 120.0
            },
            {
                "pitch": 57,
                "velocity": 20,
                "duration": 0.7795,
                "tempo": 120.0
            },
            {
                "pitch": 67,
                "velocity": 20,
                "duration": 0.1955,
                "tempo": 120.0
            },
            {
                "pitch": 66,
                "velocity": 20,
                "duration": 0.1977,
                "tempo": 120.0
            },
            {
                "pitch": 62,
                "velocity": 20,
                "duration": 4.2841,
                "tempo": 120.0
            },
            {
                "pitch": 62,
                "velocity": 20,
                "duration": 0.7773,
                "tempo": 120.0
            },
            {
                "pitch": 74,
                "velocity": 20,
                "duration": 2.725,
                "tempo": 120.0
            },
            {
                "pitch": 55,
                "velocity": 20,
                "duration": 9.7386,
                "tempo": 120.0
            },
            {
                "pitch": 67,
                "velocity": 20,
                "duration": 0.3932,
                "tempo": 120.0
            },
            {
                "pitch": 64,
                "velocity": 20,
                "duration": 0.2,
                "tempo": 120.0
            },
            {
                "pitch": 61,
                "velocity": 20,
                "duration": 0.2023,
                "tempo": 120.0
            },
            {
                "pitch": 61,
                "velocity": 20,
                "duration": 0.3841,
                "tempo": 120.0
            },
            {
                "pitch": 64,
                "velocity": 20,
                "duration": 0.7818,
                "tempo": 120.0
            },
            {
                "pitch": 64,
                "velocity": 20,
                "duration": 0.1955,
                "tempo": 120.0
            },
            {
                "pitch": 61,
                "velocity": 20,
                "duration": 0.3909,
                "tempo": 120.0
            },
            {
                "pitch": 61,
                "velocity": 20,
                "duration": 0.1955,
                "tempo": 120.0
            },
            {
                "pitch": 61,
                "velocity": 20,
                "duration": 0.3773,
                "tempo": 120.0
            },
            {
                "pitch": 66,
                "velocity": 20,
                "duration": 2.9205,
                "tempo": 120.0
            },
            {
                "pitch": 66,
                "velocity": 20,
                "duration": 0.1955,
                "tempo": 120.0
            },
            {
                "pitch": 62,
                "velocity": 20,
                "duration": 0.3909,
                "tempo": 120.0
            },
            {
                "pitch": 62,
                "velocity": 20,
                "duration": 0.1955,
                "tempo": 120.0
            },
            {
                "pitch": 59,
                "velocity": 20,
                "duration": 23.1795,
                "tempo": 120.0
            },
            {
                "pitch": 59,
                "velocity": 20,
                "duration": 0.1955,
                "tempo": 120.0
            },
            {
                "pitch": 59,
                "velocity": 20,
                "duration": 0.1977,
                "tempo": 120.0
            },
            {
                "pitch": 61,
                "velocity": 20,
                "duration": 0.1864,
                "tempo": 120.0
            },
            {
                "pitch": 62,
                "velocity": 20,
                "duration": 0.5795,
                "tempo": 120.0
            },
            {
                "pitch": 64,
                "velocity": 20,
                "duration": 1.75,
                "tempo": 120.0
            },
            {
                "pitch": 64,
                "velocity": 20,
                "duration": 0.2068,
                "tempo": 120.0
            },
            {
                "pitch": 62,
                "velocity": 20,
                "duration": 0.3977,
                "tempo": 120.0
            },
            {
                "pitch": 62,
                "velocity": 20,
                "duration": 0.1909,
                "tempo": 120.0
            },
            {
                "pitch": 66,
                "velocity": 20,
                "duration": 1.3636,
                "tempo": 120.0
            },
            {
                "pitch": 66,
                "velocity": 20,
                "duration": 0.1909,
                "tempo": 120.0
            },
            {
                "pitch": 71,
                "velocity": 20,
                "duration": 6.0455,
                "tempo": 120.0
            },
            {
                "pitch": 71,
                "velocity": 20,
                "duration": 0.2,
                "tempo": 120.0
            },
            {
                "pitch": 55,
                "velocity": 20,
                "duration": 3.5136,
                "tempo": 120.0
            },
            {
                "pitch": 67,
                "velocity": 20,
                "duration": 0.2,
                "tempo": 120.0
            },
            {
                "pitch": 64,
                "velocity": 20,
                "duration": 0.9659,
                "tempo": 120.0
            },
            {
                "pitch": 64,
                "velocity": 20,
                "duration": 0.1841,
                "tempo": 120.0
            },
            {
                "pitch": 76,
                "velocity": 20,
                "duration": 13.8364,
                "tempo": 120.0
            },
            {
                "pitch": 69,
                "velocity": 20,
                "duration": 0.2023,
                "tempo": 120.0
            },
            {
                "pitch": 73,
                "velocity": 20,
                "duration": 0.1909,
                "tempo": 120.0
            },
            {
                "pitch": 69,
                "velocity": 20,
                "duration": 0.3818,
                "tempo": 120.0
            },
            {
                "pitch": 69,
                "velocity": 20,
                "duration": 0.1909,
                "tempo": 120.0
            },
            {
                "pitch": 69,
                "velocity": 20,
                "duration": 0.2,
                "tempo": 120.0
            },
            {
                "pitch": 71,
                "velocity": 20,
                "duration": 1.1682,
                "tempo": 120.0
            },
            {
                "pitch": 67,
                "velocity": 20,
                "duration": 0.1841,
                "tempo": 120.0
            },
            {
                "pitch": 73,
                "velocity": 20,
                "duration": 0.7682,
                "tempo": 120.0
            },
            {
                "pitch": 73,
                "velocity": 20,
                "duration": 0.1909,
                "tempo": 120.0
            },
            {
                "pitch": 69,
                "velocity": 20,
                "duration": 0.1909,
                "tempo": 120.0
            },
            {
                "pitch": 73,
                "velocity": 20,
                "duration": 0.3909,
                "tempo": 120.0
            },
            {
                "pitch": 73,
                "velocity": 20,
                "duration": 0.2,
                "tempo": 120.0
            },
            {
                "pitch": 76,
                "velocity": 20,
                "duration": 1.7545,
                "tempo": 120.0
            },
            {
                "pitch": 76,
                "velocity": 20,
                "duration": 0.2023,
                "tempo": 120.0
            },
            {
                "pitch": 78,
                "velocity": 20,
                "duration": 2.5432,
                "tempo": 120.0
            },
            {
                "pitch": 78,
                "velocity": 20,
                "duration": 0.2045,
                "tempo": 120.0
            },
            {
                "pitch": 74,
                "velocity": 20,
                "duration": 6.2386,
                "tempo": 120.0
            },
            {
                "pitch": 74,
                "velocity": 20,
                "duration": 0.1886,
                "tempo": 120.0
            }
        ]
    }
}