{
    "track_id": "Cyborg Hunter (FM) - 06 - Boss Room",
    "mood": "sad",
    "instruments": {
        "Trumpet": [
            {
                "pitch": 53,
                "velocity": 101,
                "duration": 0.0773,
                "tempo": 120.0
            },
            {
                "pitch": 53,
                "velocity": 101,
                "duration": 0.0773,
                "tempo": 120.0
            },
            {
                "pitch": 53,
                "velocity": 101,
                "duration": 0.0841,
                "tempo": 120.0
            },
            {
                "pitch": 53,
                "velocity": 101,
                "duration": 0.1,
                "tempo": 120.0
            },
            {
                "pitch": 53,
                "velocity": 101,
                "duration": 0.0841,
                "tempo": 120.0
            },
            {
                "pitch": 53,
                "velocity": 101,
                "duration": 0.1,
                "tempo": 120.0
            },
            {
                "pitch": 53,
                "velocity": 101,
                "duration": 0.1,
                "tempo": 120.0
            },
            {
                "pitch": 53,
                "velocity": 101,
                "duration": 0.0841,
                "tempo": 120.0
            },
            {
                "pitch": 53,
                "velocity": 101,
                "duration": 0.1023,
                "tempo": 120.0
            },
            {
                "pitch": 53,
                "velocity": 101,
                "duration": 0.0841,
                "tempo": 120.0
            },
            {
                "pitch": 53,
                "velocity": 101,
                "duration": 0.0841,
                "tempo": 120.0
            },
            {
                "pitch": 53,
                "velocity": 101,
                "duration": 0.1,
                "tempo": 120.0
            },
            {
                "pitch": 53,
                "velocity": 101,
                "duration": 0.0841,
                "tempo": 120.0
            },
            {
                "pitch": 53,
                "velocity": 101,
                "duration": 0.0841,
                "tempo": 120.0
            },
            {
                "pitch": 53,
                "velocity": 101,
                "duration": 0.0841,
                "tempo": 120.0
            },
            {
                "pitch": 53,
                "velocity": 101,
                "duration": 0.0841,
                "tempo": 120.0
            },
            {
                "pitch": 53,
                "velocity": 101,
                "duration": 0.1,
                "tempo": 120.0
            },
            {
                "pitch": 53,
                "velocity": 101,
                "duration": 0.1,
                "tempo": 120.0
            },
            {
                "pitch": 53,
                "velocity": 101,
                "duration": 0.0818,
                "tempo": 120.0
            },
            {
                "pitch": 53,
                "velocity": 101,
                "duration": 0.0841,
                "tempo": 120.0
            },
            {
                "pitch": 53,
                "velocity": 101,
                "duration": 0.0841,
                "tempo": 120.0
            },
            {
                "pitch": 53,
                "velocity": 101,
                "duration": 0.0818,
                "tempo": 120.0
            },
            {
                "pitch": 53,
                "velocity": 101,
                "duration": 0.1,
                "tempo": 120.0
            },
            {
                "pitch": 53,
                "velocity": 101,
                "duration": 0.0818,
                "tempo": 120.0
            },
            {
                "pitch": 65,
                "velocity": 101,
                "duration": 0.0818,
                "tempo": 120.0
            },
            {
                "pitch": 53,
                "velocity": 101,
                "duration": 0.0977,
                "tempo": 120.0
            },
            {
                "pitch": 53,
                "velocity": 101,
                "duration": 0.0818,
                "tempo": 120.0
            },
            {
                "pitch": 67,
                "velocity": 101,
                "duration": 0.0977,
                "tempo": 120.0
            },
            {
                "pitch": 53,
                "velocity": 101,
                "duration": 0.0818,
                "tempo": 120.0
            },
            {
                "pitch": 53,
                "velocity": 101,
                "duration": 0.1023,
                "tempo": 120.0
            },
            {
                "pitch": 60,
                "velocity": 101,
                "duration": 0.0864,
                "tempo": 120.0
            },
            {
                "pitch": 53,
                "velocity": 101,
                "duration": 0.0864,
                "tempo": 120.0
            },
            {
                "pitch": 53,
                "velocity": 101,
                "duration": 0.1023,
                "tempo": 120.0
            },
            {
                "pitch": 56,
                "velocity": 101,
                "duration": 0.2023,
                "tempo": 120.0
            },
            {
                "pitch": 58,
                "velocity": 101,
                "duration": 0.0841,
                "tempo": 120.0
            },
            {
                "pitch": 55,
                "velocity": 101,
                "duration": 0.1,
                "tempo": 120.0
            },
            {
                "pitch": 56,
                "velocity": 101,
                "duration": 0.0818,
                "tempo": 120.0
            },
            {
                "pitch": 53,
                "velocity": 101,
                "duration": 0.0841,
                "tempo": 120.0
            },
            {
                "pitch": 53,
                "velocity": 101,
                "duration": 0.1,
                "tempo": 120.0
            },
            {
                "pitch": 65,
                "velocity": 101,
                "duration": 0.0818,
                "tempo": 120.0
            },
            {
                "pitch": 53,
                "velocity": 101,
                "duration": 0.0977,
                "tempo": 120.0
            },
            {
                "pitch": 53,
                "velocity": 101,
                "duration": 0.0818,
                "tempo": 120.0
            },
            {
                "pitch": 67,
                "velocity": 101,
                "duration": 0.1,
                "tempo": 120.0
            },
            {
                "pitch": 53,
                "velocity": 101,
                "duration": 0.0818,
                "tempo": 120.0
            },
            {
                "pitch": 70,
                "velocity": 101,
                "duration": 0.2045,
                "tempo": 120.0
            },
            {
                "pitch": 68,
                "velocity": 101,
                "duration": 0.0841,
                "tempo": 120.0
            },
            {
                "pitch": 67,
                "velocity": 101,
                "duration": 0.1023,
                "tempo": 120.0
            },
            {
                "pitch": 65,
                "velocity": 101,
                "duration": 0.2,
                "tempo": 120.0
            },
            {
                "pitch": 67,
                "velocity": 101,
                "duration": 0.0841,
                "tempo": 120.0
            },
            {
                "pitch": 60,
                "velocity": 101,
                "duration": 0.0818,
                "tempo": 120.0
            },
            {
                "pitch": 63,
                "velocity": 101,
                "duration": 0.0955,
                "tempo": 120.0
            },
            {
                "pitch": 53,
                "velocity": 101,
                "duration": 0.0795,
                "tempo": 120.0
            },
            {
                "pitch": 53,
                "velocity": 101,
                "duration": 0.0955,
                "tempo": 120.0
            },
            {
                "pitch": 65,
                "velocity": 101,
                "duration": 0.0795,
                "tempo": 120.0
            },
            {
                "pitch": 53,
                "velocity": 101,
                "duration": 0.1,
                "tempo": 120.0
            },
            {
                "pitch": 53,
                "velocity": 101,
                "duration": 0.0818,
                "tempo": 120.0
            },
            {
                "pitch": 67,
                "velocity": 101,
                "duration": 0.0841,
                "tempo": 120.0
            },
            {
                "pitch": 53,
                "velocity": 101,
                "duration": 0.1,
                "tempo": 120.0
            },
            {
                "pitch": 53,
                "velocity": 101,
                "duration": 0.0864,
                "tempo": 120.0
            },
            {
                "pitch": 60,
                "velocity": 101,
                "duration": 0.1023,
                "tempo": 120.0
            },
            {
                "pitch": 53,
                "velocity": 101,
                "duration": 0.0864,
                "tempo": 120.0
            },
            {
                "pitch": 53,
                "velocity": 101,
                "duration": 0.1045,
                "tempo": 120.0
            },
            {
                "pitch": 56,
                "velocity": 101,
                "duration": 0.1841,
                "tempo": 120.0
            },
            {
                "pitch": 58,
                "velocity": 101,
                "duration": 0.1023,
                "tempo": 120.0
            },
            {
                "pitch": 55,
                "velocity": 101,
                "duration": 0.0841,
                "tempo": 120.0
            },
            {
                "pitch": 56,
                "velocity": 101,
                "duration": 0.0977,
                "tempo": 120.0
            },
            {
                "pitch": 53,
                "velocity": 101,
                "duration": 0.0818,
                "tempo": 120.0
            },
            {
                "pitch": 53,
                "velocity": 101,
                "duration": 0.0977,
                "tempo": 120.0
            },
            {
                "pitch": 65,
                "velocity": 101,
                "duration": 0.0818,
                "tempo": 120.0
            },
            {
                "pitch": 53,
                "velocity": 101,
                "duration": 0.0818,
                "tempo": 120.0
            },
            {
                "pitch": 53,
                "velocity": 101,
                "duration": 0.1,
                "tempo": 120.0
            },
            {
                "pitch": 67,
                "velocity": 101,
                "duration": 0.0841,
                "tempo": 120.0
            },
            {
                "pitch": 53,
                "velocity": 101,
                "duration": 0.1023,
                "tempo": 120.0
            },
            {
                "pitch": 70,
                "velocity": 101,
                "duration": 0.2045,
                "tempo": 120.0
            },
            {
                "pitch": 68,
                "velocity": 101,
                "duration": 0.0841,
                "tempo": 120.0
            },
            {
                "pitch": 67,
                "velocity": 101,
                "duration": 0.0864,
                "tempo": 120.0
            },
            {
                "pitch": 65,
                "velocity": 101,
                "duration": 0.1977,
                "tempo": 120.0
            },
            {
                "pitch": 67,
                "velocity": 101,
                "duration": 0.0977,
                "tempo": 120.0
            },
            {
                "pitch": 60,
                "velocity": 101,
                "duration": 0.0818,
                "tempo": 120.0
            },
            {
                "pitch": 63,
                "velocity": 101,
                "duration": 0.1,
                "tempo": 120.0
            },
            {
                "pitch": 53,
                "velocity": 101,
                "duration": 0.0841,
                "tempo": 120.0
            },
            {
                "pitch": 53,
                "velocity": 101,
                "duration": 0.0841,
                "tempo": 120.0
            },
            {
                "pitch": 53,
                "velocity": 101,
                "duration": 0.0841,
                "tempo": 120.0
            },
            {
                "pitch": 53,
                "velocity": 101,
                "duration": 0.1,
                "tempo": 120.0
            },
            {
                "pitch": 53,
                "velocity": 101,
                "duration": 0.1,
                "tempo": 120.0
            },
            {
                "pitch": 53,
                "velocity": 101,
                "duration": 0.0864,
                "tempo": 120.0
            },
            {
                "pitch": 53,
                "velocity": 101,
                "duration": 0.1023,
                "tempo": 120.0
            },
            {
                "pitch": 53,
                "velocity": 101,
                "duration": 0.0864,
                "tempo": 120.0
            },
            {
                "pitch": 53,
                "velocity": 101,
                "duration": 0.0977,
                "tempo": 120.0
            },
            {
                "pitch": 53,
                "velocity": 101,
                "duration": 0.1,
                "tempo": 120.0
            },
            {
                "pitch": 53,
                "velocity": 101,
                "duration": 0.0818,
                "tempo": 120.0
            },
            {
                "pitch": 53,
                "velocity": 101,
                "duration": 0.1,
                "tempo": 120.0
            },
            {
                "pitch": 53,
                "velocity": 101,
                "duration": 0.0818,
                "tempo": 120.0
            },
            {
                "pitch": 53,
                "velocity": 101,
                "duration": 0.0818,
                "tempo": 120.0
            },
            {
                "pitch": 53,
                "velocity": 101,
                "duration": 0.1,
                "tempo": 120.0
            },
            {
                "pitch": 53,
                "velocity": 101,
                "duration": 0.0841,
                "tempo": 120.0
            },
            {
                "pitch": 53,
                "velocity": 101,
                "duration": 0.1,
                "tempo": 120.0
            },
            {
                "pitch": 53,
                "velocity": 101,
                "duration": 0.1023,
                "tempo": 120.0
            },
            {
                "pitch": 53,
                "velocity": 101,
                "duration": 0.0841,
                "tempo": 120.0
            },
            {
                "pitch": 53,
                "velocity": 101,
                "duration": 0.1,
                "tempo": 120.0
            },
            {
                "pitch": 53,
                "velocity": 101,
                "duration": 0.0841,
                "tempo": 120.0
            },
            {
                "pitch": 53,
                "velocity": 101,
                "duration": 0.0841,
                "tempo": 120.0
            },
            {
                "pitch": 53,
                "velocity": 101,
                "duration": 0.1,
                "tempo": 120.0
            },
            {
                "pitch": 53,
                "velocity": 101,
                "duration": 0.0841,
                "tempo": 120.0
            },
            {
                "pitch": 65,
                "velocity": 101,
                "duration": 0.1023,
                "tempo": 120.0
            },
            {
                "pitch": 53,
                "velocity": 101,
                "duration": 0.0841,
                "tempo": 120.0
            },
            {
                "pitch": 53,
                "velocity": 101,
                "duration": 0.0841,
                "tempo": 120.0
            },
            {
                "pitch": 67,
                "velocity": 101,
                "duration": 0.1,
                "tempo": 120.0
            },
            {
                "pitch": 53,
                "velocity": 101,
                "duration": 0.0841,
                "tempo": 120.0
            },
            {
                "pitch": 53,
                "velocity": 101,
                "duration": 0.0977,
                "tempo": 120.0
            },
            {
                "pitch": 60,
                "velocity": 101,
                "duration": 0.0818,
                "tempo": 120.0
            },
            {
                "pitch": 53,
                "velocity": 101,
                "duration": 0.0977,
                "tempo": 120.0
            },
            {
                "pitch": 53,
                "velocity": 101,
                "duration": 0.0818,
                "tempo": 120.0
            },
            {
                "pitch": 56,
                "velocity": 101,
                "duration": 0.2068,
                "tempo": 120.0
            },
            {
                "pitch": 58,
                "velocity": 101,
                "duration": 0.0864,
                "tempo": 120.0
            },
            {
                "pitch": 55,
                "velocity": 101,
                "duration": 0.1023,
                "tempo": 120.0
            },
            {
                "pitch": 56,
                "velocity": 101,
                "duration": 0.0818,
                "tempo": 120.0
            },
            {
                "pitch": 53,
                "velocity": 101,
                "duration": 0.0977,
                "tempo": 120.0
            },
            {
                "pitch": 53,
                "velocity": 101,
                "duration": 0.0841,
                "tempo": 120.0
            },
            {
                "pitch": 65,
                "velocity": 101,
                "duration": 0.0818,
                "tempo": 120.0
            },
            {
                "pitch": 53,
                "velocity": 101,
                "duration": 0.1,
                "tempo": 120.0
            },
            {
                "pitch": 53,
                "velocity": 101,
                "duration": 0.0841,
                "tempo": 120.0
            },
            {
                "pitch": 67,
                "velocity": 101,
                "duration": 0.1,
                "tempo": 120.0
            },
            {
                "pitch": 53,
                "velocity": 101,
                "duration": 0.0841,
                "tempo": 120.0
            },
            {
                "pitch": 70,
                "velocity": 101,
                "duration": 0.2023,
                "tempo": 120.0
            },
            {
                "pitch": 68,
                "velocity": 101,
                "duration": 0.0841,
                "tempo": 120.0
            },
            {
                "pitch": 67,
                "velocity": 101,
                "duration": 0.1,
                "tempo": 120.0
            },
            {
                "pitch": 65,
                "velocity": 101,
                "duration": 0.2045,
                "tempo": 120.0
            },
            {
                "pitch": 67,
                "velocity": 101,
                "duration": 0.0864,
                "tempo": 120.0
            },
            {
                "pitch": 60,
                "velocity": 101,
                "duration": 0.1023,
                "tempo": 120.0
            },
            {
                "pitch": 63,
                "velocity": 101,
                "duration": 0.0818,
                "tempo": 120.0
            },
            {
                "pitch": 53,
                "velocity": 101,
                "duration": 0.0841,
                "tempo": 120.0
            },
            {
                "pitch": 53,
                "velocity": 101,
                "duration": 0.0977,
                "tempo": 120.0
            },
            {
                "pitch": 65,
                "velocity": 101,
                "duration": 0.0818,
                "tempo": 120.0
            },
            {
                "pitch": 53,
                "velocity": 101,
                "duration": 0.1,
                "tempo": 120.0
            },
            {
                "pitch": 53,
                "velocity": 101,
                "duration": 0.0818,
                "tempo": 120.0
            },
            {
                "pitch": 67,
                "velocity": 101,
                "duration": 0.0977,
                "tempo": 120.0
            },
            {
                "pitch": 53,
                "velocity": 101,
                "duration": 0.0818,
                "tempo": 120.0
            },
            {
                "pitch": 53,
                "velocity": 101,
                "duration": 0.0841,
                "tempo": 120.0
            },
            {
                "pitch": 60,
                "velocity": 101,
                "duration": 0.1023,
                "tempo": 120.0
            },
            {
                "pitch": 53,
                "velocity": 101,
                "duration": 0.0841,
                "tempo": 120.0
            },
            {
                "pitch": 53,
                "velocity": 101,
                "duration": 0.1023,
                "tempo": 120.0
            },
            {
                "pitch": 56,
                "velocity": 101,
                "duration": 0.2023,
                "tempo": 120.0
            },
            {
                "pitch": 58,
                "velocity": 101,
                "duration": 0.0841,
                "tempo": 120.0
            },
            {
                "pitch": 55,
                "velocity": 101,
                "duration": 0.0841,
                "tempo": 120.0
            },
            {
                "pitch": 56,
                "velocity": 101,
                "duration": 0.0955,
                "tempo": 120.0
            },
            {
                "pitch": 53,
                "velocity": 101,
                "duration": 0.0795,
                "tempo": 120.0
            },
            {
                "pitch": 53,
                "velocity": 101,
                "duration": 0.0977,
                "tempo": 120.0
            },
            {
                "pitch": 65,
                "velocity": 101,
                "duration": 0.0795,
                "tempo": 120.0
            },
            {
                "pitch": 53,
                "velocity": 101,
                "duration": 0.1,
                "tempo": 120.0
            },
            {
                "pitch": 53,
                "velocity": 101,
                "duration": 0.0841,
                "tempo": 120.0
            },
            {
                "pitch": 67,
                "velocity": 101,
                "duration": 0.0841,
                "tempo": 120.0
            },
            {
                "pitch": 53,
                "velocity": 101,
                "duration": 0.1,
                "tempo": 120.0
            },
            {
                "pitch": 70,
                "velocity": 101,
                "duration": 0.2045,
                "tempo": 120.0
            },
            {
                "pitch": 68,
                "velocity": 101,
                "duration": 0.0864,
                "tempo": 120.0
            },
            {
                "pitch": 67,
                "velocity": 101,
                "duration": 0.1023,
                "tempo": 120.0
            },
            {
                "pitch": 65,
                "velocity": 101,
                "duration": 0.1886,
                "tempo": 120.0
            },
            {
                "pitch": 67,
                "velocity": 101,
                "duration": 0.1023,
                "tempo": 120.0
            },
            {
                "pitch": 60,
                "velocity": 101,
                "duration": 0.0841,
                "tempo": 120.0
            },
            {
                "pitch": 63,
                "velocity": 101,
                "duration": 0.0955,
                "tempo": 120.0
            },
            {
                "pitch": 66,
                "velocity": 101,
                "duration": 0.1909,
                "tempo": 120.0
            },
            {
                "pitch": 78,
                "velocity": 101,
                "duration": 0.2977,
                "tempo": 120.0
            },
            {
                "pitch": 76,
                "velocity": 101,
                "duration": 0.0841,
                "tempo": 120.0
            },
            {
                "pitch": 74,
                "velocity": 101,
                "duration": 0.1,
                "tempo": 120.0
            },
            {
                "pitch": 76,
                "velocity": 101,
                "duration": 0.2045,
                "tempo": 120.0
            },
            {
                "pitch": 66,
                "velocity": 101,
                "duration": 0.1864,
                "tempo": 120.0
            },
            {
                "pitch": 72,
                "velocity": 101,
                "duration": 0.525,
                "tempo": 120.0
            },
            {
                "pitch": 66,
                "velocity": 101,
                "duration": 0.1795,
                "tempo": 120.0
            },
            {
                "pitch": 78,
                "velocity": 101,
                "duration": 0.3205,
                "tempo": 120.0
            },
            {
                "pitch": 76,
                "velocity": 101,
                "duration": 0.0841,
                "tempo": 120.0
            },
            {
                "pitch": 74,
                "velocity": 101,
                "duration": 0.1023,
                "tempo": 120.0
            },
            {
                "pitch": 76,
                "velocity": 101,
                "duration": 0.1886,
                "tempo": 120.0
            },
            {
                "pitch": 66,
                "velocity": 101,
                "duration": 0.2045,
                "tempo": 120.0
            },
            {
                "pitch": 72,
                "velocity": 101,
                "duration": 0.4977,
                "tempo": 120.0
            },
            {
                "pitch": 66,
                "velocity": 101,
                "duration": 0.2,
                "tempo": 120.0
            },
            {
                "pitch": 78,
                "velocity": 101,
                "duration": 0.3182,
                "tempo": 120.0
            },
            {
                "pitch": 76,
                "velocity": 101,
                "duration": 0.0841,
                "tempo": 120.0
            },
            {
                "pitch": 74,
                "velocity": 101,
                "duration": 0.0841,
                "tempo": 120.0
            },
            {
                "pitch": 76,
                "velocity": 101,
                "duration": 0.2023,
                "tempo": 120.0
            },
            {
                "pitch": 66,
                "velocity": 101,
                "duration": 0.2,
                "tempo": 120.0
            },
            {
                "pitch": 72,
                "velocity": 101,
                "duration": 0.5182,
                "tempo": 120.0
            },
            {
                "pitch": 66,
                "velocity": 101,
                "duration": 0.2023,
                "tempo": 120.0
            },
            {
                "pitch": 78,
                "velocity": 101,
                "duration": 0.3023,
                "tempo": 120.0
            },
            {
                "pitch": 76,
                "velocity": 101,
                "duration": 0.1,
                "tempo": 120.0
            },
            {
                "pitch": 74,
                "velocity": 101,
                "duration": 0.0818,
                "tempo": 120.0
            },
            {
                "pitch": 76,
                "velocity": 101,
                "duration": 0.2,
                "tempo": 120.0
            },
            {
                "pitch": 72,
                "velocity": 101,
                "duration": 0.2023,
                "tempo": 120.0
            },
            {
                "pitch": 74,
                "velocity": 101,
                "duration": 0.5182,
                "tempo": 120.0
            },
            {
                "pitch": 53,
                "velocity": 101,
                "duration": 0.0977,
                "tempo": 120.0
            },
            {
                "pitch": 53,
                "velocity": 101,
                "duration": 0.0818,
                "tempo": 120.0
            },
            {
                "pitch": 65,
                "velocity": 101,
                "duration": 0.0818,
                "tempo": 120.0
            },
            {
                "pitch": 53,
                "velocity": 101,
                "duration": 0.0977,
                "tempo": 120.0
            },
            {
                "pitch": 53,
                "velocity": 101,
                "duration": 0.0818,
                "tempo": 120.0
            },
            {
                "pitch": 67,
                "velocity": 101,
                "duration": 0.1,
                "tempo": 120.0
            },
            {
                "pitch": 53,
                "velocity": 101,
                "duration": 0.0818,
                "tempo": 120.0
            },
            {
                "pitch": 53,
                "velocity": 101,
                "duration": 0.1023,
                "tempo": 120.0
            },
            {
                "pitch": 60,
                "velocity": 101,
                "duration": 0.0841,
                "tempo": 120.0
            },
            {
                "pitch": 53,
                "velocity": 101,
                "duration": 0.0841,
                "tempo": 120.0
            },
            {
                "pitch": 53,
                "velocity": 101,
                "duration": 0.1023,
                "tempo": 120.0
            },
            {
                "pitch": 56,
                "velocity": 101,
                "duration": 0.2,
                "tempo": 120.0
            },
            {
                "pitch": 58,
                "velocity": 101,
                "duration": 0.0841,
                "tempo": 120.0
            },
            {
                "pitch": 55,
                "velocity": 101,
                "duration": 0.1,
                "tempo": 120.0
            },
            {
                "pitch": 56,
                "velocity": 101,
                "duration": 0.0841,
                "tempo": 120.0
            },
            {
                "pitch": 53,
                "velocity": 101,
                "duration": 0.0841,
                "tempo": 120.0
            },
            {
                "pitch": 53,
                "velocity": 101,
                "duration": 0.1023,
                "tempo": 120.0
            },
            {
                "pitch": 65,
                "velocity": 101,
                "duration": 0.0841,
                "tempo": 120.0
            },
            {
                "pitch": 53,
                "velocity": 101,
                "duration": 0.0977,
                "tempo": 120.0
            },
            {
                "pitch": 53,
                "velocity": 101,
                "duration": 0.0818,
                "tempo": 120.0
            },
            {
                "pitch": 67,
                "velocity": 101,
                "duration": 0.0977,
                "tempo": 120.0
            },
            {
                "pitch": 53,
                "velocity": 101,
                "duration": 0.0818,
                "tempo": 120.0
            },
            {
                "pitch": 70,
                "velocity": 101,
                "duration": 0.2045,
                "tempo": 120.0
            },
            {
                "pitch": 68,
                "velocity": 101,
                "duration": 0.0864,
                "tempo": 120.0
            },
            {
                "pitch": 67,
                "velocity": 101,
                "duration": 0.1045,
                "tempo": 120.0
            },
            {
                "pitch": 65,
                "velocity": 101,
                "duration": 0.2,
                "tempo": 120.0
            },
            {
                "pitch": 67,
                "velocity": 101,
                "duration": 0.0841,
                "tempo": 120.0
            },
            {
                "pitch": 60,
                "velocity": 101,
                "duration": 0.0841,
                "tempo": 120.0
            },
            {
                "pitch": 63,
                "velocity": 101,
                "duration": 0.0955,
                "tempo": 120.0
            },
            {
                "pitch": 53,
                "velocity": 101,
                "duration": 0.0795,
                "tempo": 120.0
            },
            {
                "pitch": 53,
                "velocity": 101,
                "duration": 0.0955,
                "tempo": 120.0
            },
            {
                "pitch": 65,
                "velocity": 101,
                "duration": 0.0795,
                "tempo": 120.0
            },
            {
                "pitch": 53,
                "velocity": 101,
                "duration": 0.1023,
                "tempo": 120.0
            },
            {
                "pitch": 53,
                "velocity": 101,
                "duration": 0.0864,
                "tempo": 120.0
            },
            {
                "pitch": 67,
                "velocity": 101,
                "duration": 0.0864,
                "tempo": 120.0
            },
            {
                "pitch": 53,
                "velocity": 101,
                "duration": 0.1023,
                "tempo": 120.0
            },
            {
                "pitch": 53,
                "velocity": 101,
                "duration": 0.0841,
                "tempo": 120.0
            },
            {
                "pitch": 60,
                "velocity": 101,
                "duration": 0.1,
                "tempo": 120.0
            },
            {
                "pitch": 53,
                "velocity": 101,
                "duration": 0.0818,
                "tempo": 120.0
            },
            {
                "pitch": 53,
                "velocity": 101,
                "duration": 0.1,
                "tempo": 120.0
            },
            {
                "pitch": 56,
                "velocity": 101,
                "duration": 0.1841,
                "tempo": 120.0
            },
            {
                "pitch": 58,
                "velocity": 101,
                "duration": 0.1,
                "tempo": 120.0
            },
            {
                "pitch": 55,
                "velocity": 101,
                "duration": 0.0841,
                "tempo": 120.0
            },
            {
                "pitch": 56,
                "velocity": 101,
                "duration": 0.1,
                "tempo": 120.0
            },
            {
                "pitch": 53,
                "velocity": 101,
                "duration": 0.0818,
                "tempo": 120.0
            },
            {
                "pitch": 53,
                "velocity": 101,
                "duration": 0.0977,
                "tempo": 120.0
            },
            {
                "pitch": 65,
                "velocity": 101,
                "duration": 0.0818,
                "tempo": 120.0
            },
            {
                "pitch": 53,
                "velocity": 101,
                "duration": 0.0841,
                "tempo": 120.0
            },
            {
                "pitch": 53,
                "velocity": 101,
                "duration": 0.1,
                "tempo": 120.0
            },
            {
                "pitch": 67,
                "velocity": 101,
                "duration": 0.0818,
                "tempo": 120.0
            },
            {
                "pitch": 53,
                "velocity": 101,
                "duration": 0.1,
                "tempo": 120.0
            },
            {
                "pitch": 70,
                "velocity": 101,
                "duration": 0.2045,
                "tempo": 120.0
            },
            {
                "pitch": 68,
                "velocity": 101,
                "duration": 0.0864,
                "tempo": 120.0
            },
            {
                "pitch": 67,
                "velocity": 101,
                "duration": 0.0864,
                "tempo": 120.0
            },
            {
                "pitch": 65,
                "velocity": 101,
                "duration": 0.1977,
                "tempo": 120.0
            },
            {
                "pitch": 67,
                "velocity": 101,
                "duration": 0.0977,
                "tempo": 120.0
            },
            {
                "pitch": 60,
                "velocity": 101,
                "duration": 0.0818,
                "tempo": 120.0
            },
            {
                "pitch": 63,
                "velocity": 101,
                "duration": 0.1,
                "tempo": 120.0
            },
            {
                "pitch": 53,
                "velocity": 101,
                "duration": 0.0841,
                "tempo": 120.0
            },
            {
                "pitch": 53,
                "velocity": 101,
                "duration": 0.0818,
                "tempo": 120.0
            },
            {
                "pitch": 53,
                "velocity": 101,
                "duration": 0.0182,
                "tempo": 120.0
            }
        ],
        "Acoustic Bass": [
            {
                "pitch": 48,
                "velocity": 101,
                "duration": 0.0614,
                "tempo": 120.0
            },
            {
                "pitch": 48,
                "velocity": 101,
                "duration": 0.0773,
                "tempo": 120.0
            },
            {
                "pitch": 48,
                "velocity": 101,
                "duration": 0.0841,
                "tempo": 120.0
            },
            {
                "pitch": 48,
                "velocity": 101,
                "duration": 0.1,
                "tempo": 120.0
            },
            {
                "pitch": 48,
                "velocity": 101,
                "duration": 0.0841,
                "tempo": 120.0
            },
            {
                "pitch": 48,
                "velocity": 101,
                "duration": 0.1,
                "tempo": 120.0
            },
            {
                "pitch": 48,
                "velocity": 101,
                "duration": 0.1,
                "tempo": 120.0
            },
            {
                "pitch": 48,
                "velocity": 101,
                "duration": 0.0841,
                "tempo": 120.0
            },
            {
                "pitch": 48,
                "velocity": 101,
                "duration": 0.1023,
                "tempo": 120.0
            },
            {
                "pitch": 48,
                "velocity": 101,
                "duration": 0.0841,
                "tempo": 120.0
            },
            {
                "pitch": 48,
                "velocity": 101,
                "duration": 0.0841,
                "tempo": 120.0
            },
            {
                "pitch": 48,
                "velocity": 101,
                "duration": 0.1,
                "tempo": 120.0
            },
            {
                "pitch": 48,
                "velocity": 101,
                "duration": 0.0841,
                "tempo": 120.0
            },
            {
                "pitch": 48,
                "velocity": 101,
                "duration": 0.0841,
                "tempo": 120.0
            },
            {
                "pitch": 48,
                "velocity": 101,
                "duration": 0.0841,
                "tempo": 120.0
            },
            {
                "pitch": 48,
                "velocity": 101,
                "duration": 0.0841,
                "tempo": 120.0
            },
            {
                "pitch": 48,
                "velocity": 101,
                "duration": 0.1,
                "tempo": 120.0
            },
            {
                "pitch": 48,
                "velocity": 101,
                "duration": 0.1,
                "tempo": 120.0
            },
            {
                "pitch": 48,
                "velocity": 101,
                "duration": 0.0818,
                "tempo": 120.0
            },
            {
                "pitch": 48,
                "velocity": 101,
                "duration": 0.0841,
                "tempo": 120.0
            },
            {
                "pitch": 48,
                "velocity": 101,
                "duration": 0.0841,
                "tempo": 120.0
            },
            {
                "pitch": 48,
                "velocity": 101,
                "duration": 0.0818,
                "tempo": 120.0
            },
            {
                "pitch": 60,
                "velocity": 101,
                "duration": 0.0818,
                "tempo": 120.0
            },
            {
                "pitch": 63,
                "velocity": 101,
                "duration": 0.0977,
                "tempo": 120.0
            },
            {
                "pitch": 56,
                "velocity": 101,
                "duration": 0.0864,
                "tempo": 120.0
            },
            {
                "pitch": 60,
                "velocity": 101,
                "duration": 0.0818,
                "tempo": 120.0
            },
            {
                "pitch": 63,
                "velocity": 101,
                "duration": 0.1,
                "tempo": 120.0
            },
            {
                "pitch": 73,
                "velocity": 101,
                "duration": 0.2045,
                "tempo": 120.0
            },
            {
                "pitch": 72,
                "velocity": 101,
                "duration": 0.0841,
                "tempo": 120.0
            },
            {
                "pitch": 70,
                "velocity": 101,
                "duration": 0.1023,
                "tempo": 120.0
            },
            {
                "pitch": 68,
                "velocity": 101,
                "duration": 0.2,
                "tempo": 120.0
            },
            {
                "pitch": 70,
                "velocity": 101,
                "duration": 0.0841,
                "tempo": 120.0
            },
            {
                "pitch": 67,
                "velocity": 101,
                "duration": 0.0818,
                "tempo": 120.0
            },
            {
                "pitch": 68,
                "velocity": 101,
                "duration": 0.0955,
                "tempo": 120.0
            },
            {
                "pitch": 60,
                "velocity": 101,
                "duration": 0.0795,
                "tempo": 120.0
            },
            {
                "pitch": 63,
                "velocity": 101,
                "duration": 0.0841,
                "tempo": 120.0
            },
            {
                "pitch": 56,
                "velocity": 101,
                "duration": 0.1023,
                "tempo": 120.0
            },
            {
                "pitch": 60,
                "velocity": 101,
                "duration": 0.0818,
                "tempo": 120.0
            },
            {
                "pitch": 63,
                "velocity": 101,
                "duration": 0.0841,
                "tempo": 120.0
            },
            {
                "pitch": 73,
                "velocity": 101,
                "duration": 0.2045,
                "tempo": 120.0
            },
            {
                "pitch": 72,
                "velocity": 101,
                "duration": 0.0841,
                "tempo": 120.0
            },
            {
                "pitch": 70,
                "velocity": 101,
                "duration": 0.0864,
                "tempo": 120.0
            },
            {
                "pitch": 68,
                "velocity": 101,
                "duration": 0.1977,
                "tempo": 120.0
            },
            {
                "pitch": 70,
                "velocity": 101,
                "duration": 0.0977,
                "tempo": 120.0
            },
            {
                "pitch": 67,
                "velocity": 101,
                "duration": 0.0818,
                "tempo": 120.0
            },
            {
                "pitch": 68,
                "velocity": 101,
                "duration": 0.1,
                "tempo": 120.0
            },
            {
                "pitch": 48,
                "velocity": 101,
                "duration": 0.0841,
                "tempo": 120.0
            },
            {
                "pitch": 48,
                "velocity": 101,
                "duration": 0.0841,
                "tempo": 120.0
            },
            {
                "pitch": 48,
                "velocity": 101,
                "duration": 0.0841,
                "tempo": 120.0
            },
            {
                "pitch": 48,
                "velocity": 101,
                "duration": 0.1,
                "tempo": 120.0
            },
            {
                "pitch": 48,
                "velocity": 101,
                "duration": 0.1,
                "tempo": 120.0
            },
            {
                "pitch": 48,
                "velocity": 101,
                "duration": 0.0864,
                "tempo": 120.0
            },
            {
                "pitch": 48,
                "velocity": 101,
                "duration": 0.1023,
                "tempo": 120.0
            },
            {
                "pitch": 48,
                "velocity": 101,
                "duration": 0.0864,
                "tempo": 120.0
            },
            {
                "pitch": 48,
                "velocity": 101,
                "duration": 0.0977,
                "tempo": 120.0
            },
            {
                "pitch": 48,
                "velocity": 101,
                "duration": 0.1,
                "tempo": 120.0
            },
            {
                "pitch": 48,
                "velocity": 101,
                "duration": 0.0818,
                "tempo": 120.0
            },
            {
                "pitch": 48,
                "velocity": 101,
                "duration": 0.1,
                "tempo": 120.0
            },
            {
                "pitch": 48,
                "velocity": 101,
                "duration": 0.0818,
                "tempo": 120.0
            },
            {
                "pitch": 48,
                "velocity": 101,
                "duration": 0.0818,
                "tempo": 120.0
            },
            {
                "pitch": 48,
                "velocity": 101,
                "duration": 0.1,
                "tempo": 120.0
            },
            {
                "pitch": 48,
                "velocity": 101,
                "duration": 0.0841,
                "tempo": 120.0
            },
            {
                "pitch": 48,
                "velocity": 101,
                "duration": 0.1,
                "tempo": 120.0
            },
            {
                "pitch": 48,
                "velocity": 101,
                "duration": 0.1023,
                "tempo": 120.0
            },
            {
                "pitch": 48,
                "velocity": 101,
                "duration": 0.0841,
                "tempo": 120.0
            },
            {
                "pitch": 48,
                "velocity": 101,
                "duration": 0.1,
                "tempo": 120.0
            },
            {
                "pitch": 48,
                "velocity": 101,
                "duration": 0.0841,
                "tempo": 120.0
            },
            {
                "pitch": 48,
                "velocity": 101,
                "duration": 0.0841,
                "tempo": 120.0
            },
            {
                "pitch": 60,
                "velocity": 101,
                "duration": 0.1023,
                "tempo": 120.0
            },
            {
                "pitch": 63,
                "velocity": 101,
                "duration": 0.1,
                "tempo": 120.0
            },
            {
                "pitch": 56,
                "velocity": 101,
                "duration": 0.0818,
                "tempo": 120.0
            },
            {
                "pitch": 60,
                "velocity": 101,
                "duration": 0.0818,
                "tempo": 120.0
            },
            {
                "pitch": 63,
                "velocity": 101,
                "duration": 0.1,
                "tempo": 120.0
            },
            {
                "pitch": 73,
                "velocity": 101,
                "duration": 0.2023,
                "tempo": 120.0
            },
            {
                "pitch": 72,
                "velocity": 101,
                "duration": 0.0841,
                "tempo": 120.0
            },
            {
                "pitch": 70,
                "velocity": 101,
                "duration": 0.1,
                "tempo": 120.0
            },
            {
                "pitch": 68,
                "velocity": 101,
                "duration": 0.2045,
                "tempo": 120.0
            },
            {
                "pitch": 70,
                "velocity": 101,
                "duration": 0.0864,
                "tempo": 120.0
            },
            {
                "pitch": 67,
                "velocity": 101,
                "duration": 0.1023,
                "tempo": 120.0
            },
            {
                "pitch": 68,
                "velocity": 101,
                "duration": 0.0818,
                "tempo": 120.0
            },
            {
                "pitch": 60,
                "velocity": 101,
                "duration": 0.0818,
                "tempo": 120.0
            },
            {
                "pitch": 63,
                "velocity": 101,
                "duration": 0.0977,
                "tempo": 120.0
            },
            {
                "pitch": 56,
                "velocity": 101,
                "duration": 0.1023,
                "tempo": 120.0
            },
            {
                "pitch": 60,
                "velocity": 101,
                "duration": 0.0795,
                "tempo": 120.0
            },
            {
                "pitch": 63,
                "velocity": 101,
                "duration": 0.0841,
                "tempo": 120.0
            },
            {
                "pitch": 73,
                "velocity": 101,
                "duration": 0.2045,
                "tempo": 120.0
            },
            {
                "pitch": 72,
                "velocity": 101,
                "duration": 0.0864,
                "tempo": 120.0
            },
            {
                "pitch": 70,
                "velocity": 101,
                "duration": 0.1023,
                "tempo": 120.0
            },
            {
                "pitch": 68,
                "velocity": 101,
                "duration": 0.1886,
                "tempo": 120.0
            },
            {
                "pitch": 70,
                "velocity": 101,
                "duration": 0.1023,
                "tempo": 120.0
            },
            {
                "pitch": 67,
                "velocity": 101,
                "duration": 0.0841,
                "tempo": 120.0
            },
            {
                "pitch": 68,
                "velocity": 101,
                "duration": 0.0955,
                "tempo": 120.0
            },
            {
                "pitch": 56,
                "velocity": 101,
                "duration": 0.0795,
                "tempo": 120.0
            },
            {
                "pitch": 58,
                "velocity": 101,
                "duration": 0.0955,
                "tempo": 120.0
            },
            {
                "pitch": 60,
                "velocity": 101,
                "duration": 0.0795,
                "tempo": 120.0
            },
            {
                "pitch": 62,
                "velocity": 101,
                "duration": 0.2023,
                "tempo": 120.0
            },
            {
                "pitch": 60,
                "velocity": 101,
                "duration": 0.0841,
                "tempo": 120.0
            },
            {
                "pitch": 58,
                "velocity": 101,
                "duration": 0.1,
                "tempo": 120.0
            },
            {
                "pitch": 56,
                "velocity": 101,
                "duration": 0.0841,
                "tempo": 120.0
            },
            {
                "pitch": 60,
                "velocity": 101,
                "duration": 0.1023,
                "tempo": 120.0
            },
            {
                "pitch": 58,
                "velocity": 101,
                "duration": 0.0841,
                "tempo": 120.0
            },
            {
                "pitch": 56,
                "velocity": 101,
                "duration": 0.0841,
                "tempo": 120.0
            },
            {
                "pitch": 54,
                "velocity": 101,
                "duration": 0.1955,
                "tempo": 120.0
            },
            {
                "pitch": 56,
                "velocity": 101,
                "duration": 0.1955,
                "tempo": 120.0
            },
            {
                "pitch": 58,
                "velocity": 101,
                "duration": 0.1,
                "tempo": 120.0
            },
            {
                "pitch": 56,
                "velocity": 101,
                "duration": 0.0818,
                "tempo": 120.0
            },
            {
                "pitch": 58,
                "velocity": 101,
                "duration": 0.0818,
                "tempo": 120.0
            },
            {
                "pitch": 60,
                "velocity": 101,
                "duration": 0.1,
                "tempo": 120.0
            },
            {
                "pitch": 62,
                "velocity": 101,
                "duration": 0.2045,
                "tempo": 120.0
            },
            {
                "pitch": 60,
                "velocity": 101,
                "duration": 0.0841,
                "tempo": 120.0
            },
            {
                "pitch": 58,
                "velocity": 101,
                "duration": 0.1023,
                "tempo": 120.0
            },
            {
                "pitch": 56,
                "velocity": 101,
                "duration": 0.0864,
                "tempo": 120.0
            },
            {
                "pitch": 60,
                "velocity": 101,
                "duration": 0.0841,
                "tempo": 120.0
            },
            {
                "pitch": 58,
                "velocity": 101,
                "duration": 0.1023,
                "tempo": 120.0
            },
            {
                "pitch": 56,
                "velocity": 101,
                "duration": 0.0864,
                "tempo": 120.0
            },
            {
                "pitch": 54,
                "velocity": 101,
                "duration": 0.1909,
                "tempo": 120.0
            },
            {
                "pitch": 56,
                "velocity": 101,
                "duration": 0.1909,
                "tempo": 120.0
            },
            {
                "pitch": 58,
                "velocity": 101,
                "duration": 0.0841,
                "tempo": 120.0
            },
            {
                "pitch": 56,
                "velocity": 101,
                "duration": 0.1,
                "tempo": 120.0
            },
            {
                "pitch": 58,
                "velocity": 101,
                "duration": 0.0818,
                "tempo": 120.0
            },
            {
                "pitch": 60,
                "velocity": 101,
                "duration": 0.1,
                "tempo": 120.0
            },
            {
                "pitch": 62,
                "velocity": 101,
                "duration": 0.2023,
                "tempo": 120.0
            },
            {
                "pitch": 60,
                "velocity": 101,
                "duration": 0.0841,
                "tempo": 120.0
            },
            {
                "pitch": 58,
                "velocity": 101,
                "duration": 0.0841,
                "tempo": 120.0
            },
            {
                "pitch": 56,
                "velocity": 101,
                "duration": 0.1023,
                "tempo": 120.0
            },
            {
                "pitch": 60,
                "velocity": 101,
                "duration": 0.0841,
                "tempo": 120.0
            },
            {
                "pitch": 58,
                "velocity": 101,
                "duration": 0.1,
                "tempo": 120.0
            },
            {
                "pitch": 56,
                "velocity": 101,
                "duration": 0.0818,
                "tempo": 120.0
            },
            {
                "pitch": 54,
                "velocity": 101,
                "duration": 0.2,
                "tempo": 120.0
            },
            {
                "pitch": 56,
                "velocity": 101,
                "duration": 0.2023,
                "tempo": 120.0
            },
            {
                "pitch": 58,
                "velocity": 101,
                "duration": 0.0841,
                "tempo": 120.0
            },
            {
                "pitch": 56,
                "velocity": 101,
                "duration": 0.1023,
                "tempo": 120.0
            },
            {
                "pitch": 58,
                "velocity": 101,
                "duration": 0.0841,
                "tempo": 120.0
            },
            {
                "pitch": 60,
                "velocity": 101,
                "duration": 0.1,
                "tempo": 120.0
            },
            {
                "pitch": 62,
                "velocity": 101,
                "duration": 0.1841,
                "tempo": 120.0
            },
            {
                "pitch": 60,
                "velocity": 101,
                "duration": 0.1,
                "tempo": 120.0
            },
            {
                "pitch": 58,
                "velocity": 101,
                "duration": 0.0818,
                "tempo": 120.0
            },
            {
                "pitch": 56,
                "velocity": 101,
                "duration": 0.1,
                "tempo": 120.0
            },
            {
                "pitch": 60,
                "velocity": 101,
                "duration": 0.0841,
                "tempo": 120.0
            },
            {
                "pitch": 58,
                "velocity": 101,
                "duration": 0.1023,
                "tempo": 120.0
            },
            {
                "pitch": 56,
                "velocity": 101,
                "duration": 0.0841,
                "tempo": 120.0
            },
            {
                "pitch": 54,
                "velocity": 101,
                "duration": 0.2,
                "tempo": 120.0
            },
            {
                "pitch": 56,
                "velocity": 101,
                "duration": 0.2,
                "tempo": 120.0
            },
            {
                "pitch": 58,
                "velocity": 101,
                "duration": 0.0841,
                "tempo": 120.0
            },
            {
                "pitch": 60,
                "velocity": 101,
                "duration": 0.0818,
                "tempo": 120.0
            },
            {
                "pitch": 63,
                "velocity": 101,
                "duration": 0.1,
                "tempo": 120.0
            },
            {
                "pitch": 56,
                "velocity": 101,
                "duration": 0.0841,
                "tempo": 120.0
            },
            {
                "pitch": 60,
                "velocity": 101,
                "duration": 0.0841,
                "tempo": 120.0
            },
            {
                "pitch": 63,
                "velocity": 101,
                "duration": 0.0977,
                "tempo": 120.0
            },
            {
                "pitch": 73,
                "velocity": 101,
                "duration": 0.2045,
                "tempo": 120.0
            },
            {
                "pitch": 72,
                "velocity": 101,
                "duration": 0.0864,
                "tempo": 120.0
            },
            {
                "pitch": 70,
                "velocity": 101,
                "duration": 0.1045,
                "tempo": 120.0
            },
            {
                "pitch": 68,
                "velocity": 101,
                "duration": 0.2,
                "tempo": 120.0
            },
            {
                "pitch": 70,
                "velocity": 101,
                "duration": 0.0841,
                "tempo": 120.0
            },
            {
                "pitch": 67,
                "velocity": 101,
                "duration": 0.0841,
                "tempo": 120.0
            },
            {
                "pitch": 68,
                "velocity": 101,
                "duration": 0.0955,
                "tempo": 120.0
            },
            {
                "pitch": 60,
                "velocity": 101,
                "duration": 0.0795,
                "tempo": 120.0
            },
            {
                "pitch": 63,
                "velocity": 101,
                "duration": 0.0864,
                "tempo": 120.0
            },
            {
                "pitch": 56,
                "velocity": 101,
                "duration": 0.1,
                "tempo": 120.0
            },
            {
                "pitch": 60,
                "velocity": 101,
                "duration": 0.0818,
                "tempo": 120.0
            },
            {
                "pitch": 63,
                "velocity": 101,
                "duration": 0.0818,
                "tempo": 120.0
            },
            {
                "pitch": 73,
                "velocity": 101,
                "duration": 0.2045,
                "tempo": 120.0
            },
            {
                "pitch": 72,
                "velocity": 101,
                "duration": 0.0864,
                "tempo": 120.0
            },
            {
                "pitch": 70,
                "velocity": 101,
                "duration": 0.0864,
                "tempo": 120.0
            },
            {
                "pitch": 68,
                "velocity": 101,
                "duration": 0.1977,
                "tempo": 120.0
            },
            {
                "pitch": 70,
                "velocity": 101,
                "duration": 0.0977,
                "tempo": 120.0
            },
            {
                "pitch": 67,
                "velocity": 101,
                "duration": 0.0818,
                "tempo": 120.0
            },
            {
                "pitch": 68,
                "velocity": 101,
                "duration": 0.1,
                "tempo": 120.0
            },
            {
                "pitch": 48,
                "velocity": 101,
                "duration": 0.0841,
                "tempo": 120.0
            },
            {
                "pitch": 48,
                "velocity": 101,
                "duration": 0.0818,
                "tempo": 120.0
            },
            {
                "pitch": 48,
                "velocity": 101,
                "duration": 0.0182,
                "tempo": 120.0
            }
        ],
        "Synth Bass 1": [
            {
                "pitch": 44,
                "velocity": 64,
                "duration": 0.0614,
                "tempo": 120.0
            },
            {
                "pitch": 44,
                "velocity": 64,
                "duration": 0.0773,
                "tempo": 120.0
            },
            {
                "pitch": 44,
                "velocity": 64,
                "duration": 0.0841,
                "tempo": 120.0
            },
            {
                "pitch": 44,
                "velocity": 64,
                "duration": 0.1,
                "tempo": 120.0
            },
            {
                "pitch": 44,
                "velocity": 64,
                "duration": 0.0841,
                "tempo": 120.0
            },
            {
                "pitch": 44,
                "velocity": 64,
                "duration": 0.1,
                "tempo": 120.0
            },
            {
                "pitch": 44,
                "velocity": 64,
                "duration": 0.1,
                "tempo": 120.0
            },
            {
                "pitch": 44,
                "velocity": 64,
                "duration": 0.0841,
                "tempo": 120.0
            },
            {
                "pitch": 44,
                "velocity": 64,
                "duration": 0.1023,
                "tempo": 120.0
            },
            {
                "pitch": 44,
                "velocity": 64,
                "duration": 0.0841,
                "tempo": 120.0
            },
            {
                "pitch": 44,
                "velocity": 64,
                "duration": 0.0841,
                "tempo": 120.0
            },
            {
                "pitch": 44,
                "velocity": 64,
                "duration": 0.1,
                "tempo": 120.0
            },
            {
                "pitch": 44,
                "velocity": 64,
                "duration": 0.0841,
                "tempo": 120.0
            },
            {
                "pitch": 44,
                "velocity": 64,
                "duration": 0.0841,
                "tempo": 120.0
            },
            {
                "pitch": 44,
                "velocity": 64,
                "duration": 0.0841,
                "tempo": 120.0
            },
            {
                "pitch": 44,
                "velocity": 64,
                "duration": 0.0841,
                "tempo": 120.0
            },
            {
                "pitch": 44,
                "velocity": 64,
                "duration": 0.1,
                "tempo": 120.0
            },
            {
                "pitch": 44,
                "velocity": 64,
                "duration": 0.1,
                "tempo": 120.0
            },
            {
                "pitch": 44,
                "velocity": 64,
                "duration": 0.0818,
                "tempo": 120.0
            },
            {
                "pitch": 44,
                "velocity": 64,
                "duration": 0.0841,
                "tempo": 120.0
            },
            {
                "pitch": 44,
                "velocity": 64,
                "duration": 0.0841,
                "tempo": 120.0
            },
            {
                "pitch": 44,
                "velocity": 64,
                "duration": 0.0818,
                "tempo": 120.0
            },
            {
                "pitch": 44,
                "velocity": 64,
                "duration": 0.1,
                "tempo": 120.0
            },
            {
                "pitch": 44,
                "velocity": 64,
                "duration": 0.0818,
                "tempo": 120.0
            },
            {
                "pitch": 44,
                "velocity": 64,
                "duration": 0.0977,
                "tempo": 120.0
            },
            {
                "pitch": 44,
                "velocity": 64,
                "duration": 0.0818,
                "tempo": 120.0
            },
            {
                "pitch": 44,
                "velocity": 64,
                "duration": 0.0818,
                "tempo": 120.0
            },
            {
                "pitch": 44,
                "velocity": 64,
                "duration": 0.1023,
                "tempo": 120.0
            },
            {
                "pitch": 44,
                "velocity": 64,
                "duration": 0.0864,
                "tempo": 120.0
            },
            {
                "pitch": 44,
                "velocity": 64,
                "duration": 0.1023,
                "tempo": 120.0
            },
            {
                "pitch": 44,
                "velocity": 64,
                "duration": 0.0841,
                "tempo": 120.0
            },
            {
                "pitch": 44,
                "velocity": 64,
                "duration": 0.0841,
                "tempo": 120.0
            },
            {
                "pitch": 44,
                "velocity": 64,
                "duration": 0.0818,
                "tempo": 120.0
            },
            {
                "pitch": 44,
                "velocity": 64,
                "duration": 0.0841,
                "tempo": 120.0
            },
            {
                "pitch": 44,
                "velocity": 64,
                "duration": 0.1,
                "tempo": 120.0
            },
            {
                "pitch": 44,
                "velocity": 64,
                "duration": 0.0977,
                "tempo": 120.0
            },
            {
                "pitch": 44,
                "velocity": 64,
                "duration": 0.0818,
                "tempo": 120.0
            },
            {
                "pitch": 44,
                "velocity": 64,
                "duration": 0.0818,
                "tempo": 120.0
            },
            {
                "pitch": 44,
                "velocity": 64,
                "duration": 0.0864,
                "tempo": 120.0
            },
            {
                "pitch": 44,
                "velocity": 64,
                "duration": 0.0841,
                "tempo": 120.0
            },
            {
                "pitch": 44,
                "velocity": 64,
                "duration": 0.1023,
                "tempo": 120.0
            },
            {
                "pitch": 44,
                "velocity": 64,
                "duration": 0.0818,
                "tempo": 120.0
            },
            {
                "pitch": 44,
                "velocity": 64,
                "duration": 0.0841,
                "tempo": 120.0
            },
            {
                "pitch": 44,
                "velocity": 64,
                "duration": 0.0955,
                "tempo": 120.0
            },
            {
                "pitch": 44,
                "velocity": 64,
                "duration": 0.0795,
                "tempo": 120.0
            },
            {
                "pitch": 44,
                "velocity": 64,
                "duration": 0.0955,
                "tempo": 120.0
            },
            {
                "pitch": 44,
                "velocity": 64,
                "duration": 0.1,
                "tempo": 120.0
            },
            {
                "pitch": 44,
                "velocity": 64,
                "duration": 0.0818,
                "tempo": 120.0
            },
            {
                "pitch": 44,
                "velocity": 64,
                "duration": 0.1,
                "tempo": 120.0
            },
            {
                "pitch": 44,
                "velocity": 64,
                "duration": 0.0864,
                "tempo": 120.0
            },
            {
                "pitch": 44,
                "velocity": 64,
                "duration": 0.0864,
                "tempo": 120.0
            },
            {
                "pitch": 44,
                "velocity": 64,
                "duration": 0.1045,
                "tempo": 120.0
            },
            {
                "pitch": 44,
                "velocity": 64,
                "duration": 0.0841,
                "tempo": 120.0
            },
            {
                "pitch": 44,
                "velocity": 64,
                "duration": 0.1023,
                "tempo": 120.0
            },
            {
                "pitch": 44,
                "velocity": 64,
                "duration": 0.0977,
                "tempo": 120.0
            },
            {
                "pitch": 44,
                "velocity": 64,
                "duration": 0.0818,
                "tempo": 120.0
            },
            {
                "pitch": 44,
                "velocity": 64,
                "duration": 0.0977,
                "tempo": 120.0
            },
            {
                "pitch": 44,
                "velocity": 64,
                "duration": 0.0818,
                "tempo": 120.0
            },
            {
                "pitch": 44,
                "velocity": 64,
                "duration": 0.1,
                "tempo": 120.0
            },
            {
                "pitch": 44,
                "velocity": 64,
                "duration": 0.1023,
                "tempo": 120.0
            },
            {
                "pitch": 44,
                "velocity": 64,
                "duration": 0.0864,
                "tempo": 120.0
            },
            {
                "pitch": 44,
                "velocity": 64,
                "duration": 0.0841,
                "tempo": 120.0
            },
            {
                "pitch": 44,
                "velocity": 64,
                "duration": 0.0864,
                "tempo": 120.0
            },
            {
                "pitch": 44,
                "velocity": 64,
                "duration": 0.0977,
                "tempo": 120.0
            },
            {
                "pitch": 44,
                "velocity": 64,
                "duration": 0.0977,
                "tempo": 120.0
            },
            {
                "pitch": 44,
                "velocity": 64,
                "duration": 0.1,
                "tempo": 120.0
            },
            {
                "pitch": 44,
                "velocity": 64,
                "duration": 0.0841,
                "tempo": 120.0
            },
            {
                "pitch": 44,
                "velocity": 64,
                "duration": 0.0841,
                "tempo": 120.0
            },
            {
                "pitch": 44,
                "velocity": 64,
                "duration": 0.0841,
                "tempo": 120.0
            },
            {
                "pitch": 44,
                "velocity": 64,
                "duration": 0.1,
                "tempo": 120.0
            },
            {
                "pitch": 44,
                "velocity": 64,
                "duration": 0.1,
                "tempo": 120.0
            },
            {
                "pitch": 44,
                "velocity": 64,
                "duration": 0.0864,
                "tempo": 120.0
            },
            {
                "pitch": 44,
                "velocity": 64,
                "duration": 0.1023,
                "tempo": 120.0
            },
            {
                "pitch": 44,
                "velocity": 64,
                "duration": 0.0864,
                "tempo": 120.0
            },
            {
                "pitch": 44,
                "velocity": 64,
                "duration": 0.0977,
                "tempo": 120.0
            },
            {
                "pitch": 44,
                "velocity": 64,
                "duration": 0.1,
                "tempo": 120.0
            },
            {
                "pitch": 44,
                "velocity": 64,
                "duration": 0.0818,
                "tempo": 120.0
            },
            {
                "pitch": 44,
                "velocity": 64,
                "duration": 0.1,
                "tempo": 120.0
            },
            {
                "pitch": 44,
                "velocity": 64,
                "duration": 0.0818,
                "tempo": 120.0
            },
            {
                "pitch": 44,
                "velocity": 64,
                "duration": 0.0818,
                "tempo": 120.0
            },
            {
                "pitch": 44,
                "velocity": 64,
                "duration": 0.1,
                "tempo": 120.0
            },
            {
                "pitch": 44,
                "velocity": 64,
                "duration": 0.0841,
                "tempo": 120.0
            },
            {
                "pitch": 44,
                "velocity": 64,
                "duration": 0.1,
                "tempo": 120.0
            },
            {
                "pitch": 44,
                "velocity": 64,
                "duration": 0.1023,
                "tempo": 120.0
            },
            {
                "pitch": 44,
                "velocity": 64,
                "duration": 0.0841,
                "tempo": 120.0
            },
            {
                "pitch": 44,
                "velocity": 64,
                "duration": 0.1,
                "tempo": 120.0
            },
            {
                "pitch": 44,
                "velocity": 64,
                "duration": 0.0841,
                "tempo": 120.0
            },
            {
                "pitch": 44,
                "velocity": 64,
                "duration": 0.0841,
                "tempo": 120.0
            },
            {
                "pitch": 44,
                "velocity": 64,
                "duration": 0.1,
                "tempo": 120.0
            },
            {
                "pitch": 44,
                "velocity": 64,
                "duration": 0.0841,
                "tempo": 120.0
            },
            {
                "pitch": 44,
                "velocity": 64,
                "duration": 0.0841,
                "tempo": 120.0
            },
            {
                "pitch": 44,
                "velocity": 64,
                "duration": 0.0841,
                "tempo": 120.0
            },
            {
                "pitch": 44,
                "velocity": 64,
                "duration": 0.0841,
                "tempo": 120.0
            },
            {
                "pitch": 44,
                "velocity": 64,
                "duration": 0.0977,
                "tempo": 120.0
            },
            {
                "pitch": 44,
                "velocity": 64,
                "duration": 0.0977,
                "tempo": 120.0
            },
            {
                "pitch": 44,
                "velocity": 64,
                "duration": 0.0818,
                "tempo": 120.0
            },
            {
                "pitch": 44,
                "velocity": 64,
                "duration": 0.0864,
                "tempo": 120.0
            },
            {
                "pitch": 44,
                "velocity": 64,
                "duration": 0.0864,
                "tempo": 120.0
            },
            {
                "pitch": 44,
                "velocity": 64,
                "duration": 0.0818,
                "tempo": 120.0
            },
            {
                "pitch": 44,
                "velocity": 64,
                "duration": 0.0977,
                "tempo": 120.0
            },
            {
                "pitch": 44,
                "velocity": 64,
                "duration": 0.0841,
                "tempo": 120.0
            },
            {
                "pitch": 44,
                "velocity": 64,
                "duration": 0.1,
                "tempo": 120.0
            },
            {
                "pitch": 44,
                "velocity": 64,
                "duration": 0.0841,
                "tempo": 120.0
            },
            {
                "pitch": 44,
                "velocity": 64,
                "duration": 0.0841,
                "tempo": 120.0
            },
            {
                "pitch": 44,
                "velocity": 64,
                "duration": 0.1,
                "tempo": 120.0
            },
            {
                "pitch": 44,
                "velocity": 64,
                "duration": 0.0841,
                "tempo": 120.0
            },
            {
                "pitch": 44,
                "velocity": 64,
                "duration": 0.1,
                "tempo": 120.0
            },
            {
                "pitch": 44,
                "velocity": 64,
                "duration": 0.0841,
                "tempo": 120.0
            },
            {
                "pitch": 44,
                "velocity": 64,
                "duration": 0.0864,
                "tempo": 120.0
            },
            {
                "pitch": 44,
                "velocity": 64,
                "duration": 0.0818,
                "tempo": 120.0
            },
            {
                "pitch": 44,
                "velocity": 64,
                "duration": 0.0841,
                "tempo": 120.0
            },
            {
                "pitch": 44,
                "velocity": 64,
                "duration": 0.0977,
                "tempo": 120.0
            },
            {
                "pitch": 44,
                "velocity": 64,
                "duration": 0.1,
                "tempo": 120.0
            },
            {
                "pitch": 44,
                "velocity": 64,
                "duration": 0.0818,
                "tempo": 120.0
            },
            {
                "pitch": 44,
                "velocity": 64,
                "duration": 0.0818,
                "tempo": 120.0
            },
            {
                "pitch": 44,
                "velocity": 64,
                "duration": 0.0841,
                "tempo": 120.0
            },
            {
                "pitch": 44,
                "velocity": 64,
                "duration": 0.0841,
                "tempo": 120.0
            },
            {
                "pitch": 44,
                "velocity": 64,
                "duration": 0.1023,
                "tempo": 120.0
            },
            {
                "pitch": 44,
                "velocity": 64,
                "duration": 0.0841,
                "tempo": 120.0
            },
            {
                "pitch": 44,
                "velocity": 64,
                "duration": 0.0841,
                "tempo": 120.0
            },
            {
                "pitch": 44,
                "velocity": 64,
                "duration": 0.0955,
                "tempo": 120.0
            },
            {
                "pitch": 44,
                "velocity": 64,
                "duration": 0.0795,
                "tempo": 120.0
            },
            {
                "pitch": 44,
                "velocity": 64,
                "duration": 0.0977,
                "tempo": 120.0
            },
            {
                "pitch": 44,
                "velocity": 64,
                "duration": 0.1,
                "tempo": 120.0
            },
            {
                "pitch": 44,
                "velocity": 64,
                "duration": 0.0841,
                "tempo": 120.0
            },
            {
                "pitch": 44,
                "velocity": 64,
                "duration": 0.1,
                "tempo": 120.0
            },
            {
                "pitch": 44,
                "velocity": 64,
                "duration": 0.0864,
                "tempo": 120.0
            },
            {
                "pitch": 44,
                "velocity": 64,
                "duration": 0.0864,
                "tempo": 120.0
            },
            {
                "pitch": 44,
                "velocity": 64,
                "duration": 0.1023,
                "tempo": 120.0
            },
            {
                "pitch": 44,
                "velocity": 64,
                "duration": 0.0841,
                "tempo": 120.0
            },
            {
                "pitch": 44,
                "velocity": 64,
                "duration": 0.1023,
                "tempo": 120.0
            },
            {
                "pitch": 44,
                "velocity": 64,
                "duration": 0.0955,
                "tempo": 120.0
            },
            {
                "pitch": 50,
                "velocity": 64,
                "duration": 0.0795,
                "tempo": 120.0
            },
            {
                "pitch": 50,
                "velocity": 64,
                "duration": 0.0955,
                "tempo": 120.0
            },
            {
                "pitch": 50,
                "velocity": 64,
                "duration": 0.0841,
                "tempo": 120.0
            },
            {
                "pitch": 50,
                "velocity": 64,
                "duration": 0.1023,
                "tempo": 120.0
            },
            {
                "pitch": 50,
                "velocity": 64,
                "duration": 0.1,
                "tempo": 120.0
            },
            {
                "pitch": 50,
                "velocity": 64,
                "duration": 0.0841,
                "tempo": 120.0
            },
            {
                "pitch": 50,
                "velocity": 64,
                "duration": 0.0841,
                "tempo": 120.0
            },
            {
                "pitch": 50,
                "velocity": 64,
                "duration": 0.0841,
                "tempo": 120.0
            },
            {
                "pitch": 50,
                "velocity": 64,
                "duration": 0.0977,
                "tempo": 120.0
            },
            {
                "pitch": 50,
                "velocity": 64,
                "duration": 0.0977,
                "tempo": 120.0
            },
            {
                "pitch": 50,
                "velocity": 64,
                "duration": 0.1,
                "tempo": 120.0
            },
            {
                "pitch": 50,
                "velocity": 64,
                "duration": 0.0818,
                "tempo": 120.0
            },
            {
                "pitch": 50,
                "velocity": 64,
                "duration": 0.0818,
                "tempo": 120.0
            },
            {
                "pitch": 50,
                "velocity": 64,
                "duration": 0.0841,
                "tempo": 120.0
            },
            {
                "pitch": 50,
                "velocity": 64,
                "duration": 0.1023,
                "tempo": 120.0
            },
            {
                "pitch": 50,
                "velocity": 64,
                "duration": 0.1023,
                "tempo": 120.0
            },
            {
                "pitch": 50,
                "velocity": 64,
                "duration": 0.0864,
                "tempo": 120.0
            },
            {
                "pitch": 50,
                "velocity": 64,
                "duration": 0.1023,
                "tempo": 120.0
            },
            {
                "pitch": 50,
                "velocity": 64,
                "duration": 0.0864,
                "tempo": 120.0
            },
            {
                "pitch": 50,
                "velocity": 64,
                "duration": 0.0955,
                "tempo": 120.0
            },
            {
                "pitch": 50,
                "velocity": 64,
                "duration": 0.0955,
                "tempo": 120.0
            },
            {
                "pitch": 50,
                "velocity": 64,
                "duration": 0.0841,
                "tempo": 120.0
            },
            {
                "pitch": 50,
                "velocity": 64,
                "duration": 0.1,
                "tempo": 120.0
            },
            {
                "pitch": 50,
                "velocity": 64,
                "duration": 0.0818,
                "tempo": 120.0
            },
            {
                "pitch": 50,
                "velocity": 64,
                "duration": 0.0841,
                "tempo": 120.0
            },
            {
                "pitch": 50,
                "velocity": 64,
                "duration": 0.1023,
                "tempo": 120.0
            },
            {
                "pitch": 50,
                "velocity": 64,
                "duration": 0.0841,
                "tempo": 120.0
            },
            {
                "pitch": 50,
                "velocity": 64,
                "duration": 0.1023,
                "tempo": 120.0
            },
            {
                "pitch": 50,
                "velocity": 64,
                "duration": 0.1,
                "tempo": 120.0
            },
            {
                "pitch": 50,
                "velocity": 64,
                "duration": 0.0818,
                "tempo": 120.0
            },
            {
                "pitch": 50,
                "velocity": 64,
                "duration": 0.1,
                "tempo": 120.0
            },
            {
                "pitch": 50,
                "velocity": 64,
                "duration": 0.0841,
                "tempo": 120.0
            },
            {
                "pitch": 50,
                "velocity": 64,
                "duration": 0.0841,
                "tempo": 120.0
            },
            {
                "pitch": 50,
                "velocity": 64,
                "duration": 0.1023,
                "tempo": 120.0
            },
            {
                "pitch": 50,
                "velocity": 64,
                "duration": 0.0841,
                "tempo": 120.0
            },
            {
                "pitch": 50,
                "velocity": 64,
                "duration": 0.0818,
                "tempo": 120.0
            },
            {
                "pitch": 50,
                "velocity": 64,
                "duration": 0.0841,
                "tempo": 120.0
            },
            {
                "pitch": 50,
                "velocity": 64,
                "duration": 0.0818,
                "tempo": 120.0
            },
            {
                "pitch": 50,
                "velocity": 64,
                "duration": 0.1,
                "tempo": 120.0
            },
            {
                "pitch": 50,
                "velocity": 64,
                "duration": 0.1023,
                "tempo": 120.0
            },
            {
                "pitch": 50,
                "velocity": 64,
                "duration": 0.0841,
                "tempo": 120.0
            },
            {
                "pitch": 50,
                "velocity": 64,
                "duration": 0.0841,
                "tempo": 120.0
            },
            {
                "pitch": 50,
                "velocity": 64,
                "duration": 0.0841,
                "tempo": 120.0
            },
            {
                "pitch": 50,
                "velocity": 64,
                "duration": 0.0841,
                "tempo": 120.0
            },
            {
                "pitch": 44,
                "velocity": 64,
                "duration": 0.0977,
                "tempo": 120.0
            },
            {
                "pitch": 44,
                "velocity": 64,
                "duration": 0.0818,
                "tempo": 120.0
            },
            {
                "pitch": 44,
                "velocity": 64,
                "duration": 0.0977,
                "tempo": 120.0
            },
            {
                "pitch": 44,
                "velocity": 64,
                "duration": 0.0818,
                "tempo": 120.0
            },
            {
                "pitch": 44,
                "velocity": 64,
                "duration": 0.0818,
                "tempo": 120.0
            },
            {
                "pitch": 44,
                "velocity": 64,
                "duration": 0.1023,
                "tempo": 120.0
            },
            {
                "pitch": 44,
                "velocity": 64,
                "duration": 0.0841,
                "tempo": 120.0
            },
            {
                "pitch": 44,
                "velocity": 64,
                "duration": 0.1023,
                "tempo": 120.0
            },
            {
                "pitch": 44,
                "velocity": 64,
                "duration": 0.0818,
                "tempo": 120.0
            },
            {
                "pitch": 44,
                "velocity": 64,
                "duration": 0.0841,
                "tempo": 120.0
            },
            {
                "pitch": 44,
                "velocity": 64,
                "duration": 0.0841,
                "tempo": 120.0
            },
            {
                "pitch": 44,
                "velocity": 64,
                "duration": 0.0841,
                "tempo": 120.0
            },
            {
                "pitch": 44,
                "velocity": 64,
                "duration": 0.1023,
                "tempo": 120.0
            },
            {
                "pitch": 44,
                "velocity": 64,
                "duration": 0.0977,
                "tempo": 120.0
            },
            {
                "pitch": 44,
                "velocity": 64,
                "duration": 0.0818,
                "tempo": 120.0
            },
            {
                "pitch": 44,
                "velocity": 64,
                "duration": 0.0818,
                "tempo": 120.0
            },
            {
                "pitch": 44,
                "velocity": 64,
                "duration": 0.0841,
                "tempo": 120.0
            },
            {
                "pitch": 44,
                "velocity": 64,
                "duration": 0.0864,
                "tempo": 120.0
            },
            {
                "pitch": 44,
                "velocity": 64,
                "duration": 0.1045,
                "tempo": 120.0
            },
            {
                "pitch": 44,
                "velocity": 64,
                "duration": 0.0841,
                "tempo": 120.0
            },
            {
                "pitch": 44,
                "velocity": 64,
                "duration": 0.0841,
                "tempo": 120.0
            },
            {
                "pitch": 44,
                "velocity": 64,
                "duration": 0.0955,
                "tempo": 120.0
            },
            {
                "pitch": 44,
                "velocity": 64,
                "duration": 0.0795,
                "tempo": 120.0
            },
            {
                "pitch": 44,
                "velocity": 64,
                "duration": 0.0955,
                "tempo": 120.0
            },
            {
                "pitch": 44,
                "velocity": 64,
                "duration": 0.1023,
                "tempo": 120.0
            },
            {
                "pitch": 44,
                "velocity": 64,
                "duration": 0.0864,
                "tempo": 120.0
            },
            {
                "pitch": 44,
                "velocity": 64,
                "duration": 0.1023,
                "tempo": 120.0
            },
            {
                "pitch": 44,
                "velocity": 64,
                "duration": 0.0841,
                "tempo": 120.0
            },
            {
                "pitch": 44,
                "velocity": 64,
                "duration": 0.0818,
                "tempo": 120.0
            },
            {
                "pitch": 44,
                "velocity": 64,
                "duration": 0.1,
                "tempo": 120.0
            },
            {
                "pitch": 44,
                "velocity": 64,
                "duration": 0.0841,
                "tempo": 120.0
            },
            {
                "pitch": 44,
                "velocity": 64,
                "duration": 0.1,
                "tempo": 120.0
            },
            {
                "pitch": 44,
                "velocity": 64,
                "duration": 0.1,
                "tempo": 120.0
            },
            {
                "pitch": 44,
                "velocity": 64,
                "duration": 0.0818,
                "tempo": 120.0
            },
            {
                "pitch": 44,
                "velocity": 64,
                "duration": 0.0977,
                "tempo": 120.0
            },
            {
                "pitch": 44,
                "velocity": 64,
                "duration": 0.0841,
                "tempo": 120.0
            },
            {
                "pitch": 44,
                "velocity": 64,
                "duration": 0.1,
                "tempo": 120.0
            },
            {
                "pitch": 44,
                "velocity": 64,
                "duration": 0.1,
                "tempo": 120.0
            },
            {
                "pitch": 44,
                "velocity": 64,
                "duration": 0.0864,
                "tempo": 120.0
            },
            {
                "pitch": 44,
                "velocity": 64,
                "duration": 0.0864,
                "tempo": 120.0
            },
            {
                "pitch": 44,
                "velocity": 64,
                "duration": 0.0864,
                "tempo": 120.0
            },
            {
                "pitch": 44,
                "velocity": 64,
                "duration": 0.1,
                "tempo": 120.0
            },
            {
                "pitch": 44,
                "velocity": 64,
                "duration": 0.0977,
                "tempo": 120.0
            },
            {
                "pitch": 44,
                "velocity": 64,
                "duration": 0.1,
                "tempo": 120.0
            },
            {
                "pitch": 44,
                "velocity": 64,
                "duration": 0.0841,
                "tempo": 120.0
            },
            {
                "pitch": 44,
                "velocity": 64,
                "duration": 0.0818,
                "tempo": 120.0
            },
            {
                "pitch": 44,
                "velocity": 64,
                "duration": 0.0182,
                "tempo": 120.0
            }
        ]
    }
}