{
    "track_id": "Double Dragon (FM) - 09 - Ending",
    "mood": "relaxed",
    "instruments": {
        "Vibraphone": [
            {
                "pitch": 64,
                "velocity": 32,
                "duration": 0.3114,
                "tempo": 120.0
            },
            {
                "pitch": 68,
                "velocity": 32,
                "duration": 0.3455,
                "tempo": 120.0
            },
            {
                "pitch": 61,
                "velocity": 32,
                "duration": 0.3182,
                "tempo": 120.0
            },
            {
                "pitch": 64,
                "velocity": 32,
                "duration": 0.3364,
                "tempo": 120.0
            },
            {
                "pitch": 68,
                "velocity": 32,
                "duration": 0.3182,
                "tempo": 120.0
            },
            {
                "pitch": 64,
                "velocity": 32,
                "duration": 0.3341,
                "tempo": 120.0
            },
            {
                "pitch": 61,
                "velocity": 32,
                "duration": 0.325,
                "tempo": 120.0
            },
            {
                "pitch": 64,
                "velocity": 32,
                "duration": 0.325,
                "tempo": 120.0
            },
            {
                "pitch": 66,
                "velocity": 32,
                "duration": 0.3341,
                "tempo": 120.0
            },
            {
                "pitch": 71,
                "velocity": 32,
                "duration": 0.3182,
                "tempo": 120.0
            },
            {
                "pitch": 59,
                "velocity": 32,
                "duration": 0.3341,
                "tempo": 120.0
            },
            {
                "pitch": 75,
                "velocity": 32,
                "duration": 0.3159,
                "tempo": 120.0
            },
            {
                "pitch": 68,
                "velocity": 32,
                "duration": 0.3409,
                "tempo": 120.0
            },
            {
                "pitch": 75,
                "velocity": 32,
                "duration": 0.325,
                "tempo": 120.0
            },
            {
                "pitch": 63,
                "velocity": 32,
                "duration": 0.3273,
                "tempo": 120.0
            },
            {
                "pitch": 75,
                "velocity": 32,
                "duration": 0.3455,
                "tempo": 120.0
            },
            {
                "pitch": 66,
                "velocity": 32,
                "duration": 0.6682,
                "tempo": 120.0
            },
            {
                "pitch": 73,
                "velocity": 32,
                "duration": 0.6841,
                "tempo": 120.0
            },
            {
                "pitch": 69,
                "velocity": 32,
                "duration": 0.3182,
                "tempo": 120.0
            },
            {
                "pitch": 76,
                "velocity": 32,
                "duration": 0.675,
                "tempo": 120.0
            },
            {
                "pitch": 73,
                "velocity": 32,
                "duration": 0.325,
                "tempo": 120.0
            },
            {
                "pitch": 66,
                "velocity": 32,
                "duration": 0.6705,
                "tempo": 120.0
            },
            {
                "pitch": 73,
                "velocity": 32,
                "duration": 0.6682,
                "tempo": 120.0
            },
            {
                "pitch": 69,
                "velocity": 32,
                "duration": 0.3273,
                "tempo": 120.0
            },
            {
                "pitch": 71,
                "velocity": 32,
                "duration": 0.3455,
                "tempo": 120.0
            },
            {
                "pitch": 73,
                "velocity": 32,
                "duration": 0.3159,
                "tempo": 120.0
            },
            {
                "pitch": 75,
                "velocity": 32,
                "duration": 0.3341,
                "tempo": 120.0
            },
            {
                "pitch": 52,
                "velocity": 51,
                "duration": 0.6659,
                "tempo": 120.0
            },
            {
                "pitch": 59,
                "velocity": 51,
                "duration": 0.6682,
                "tempo": 120.0
            },
            {
                "pitch": 64,
                "velocity": 51,
                "duration": 0.6682,
                "tempo": 120.0
            },
            {
                "pitch": 59,
                "velocity": 51,
                "duration": 0.3409,
                "tempo": 120.0
            },
            {
                "pitch": 60,
                "velocity": 51,
                "duration": 0.325,
                "tempo": 120.0
            },
            {
                "pitch": 61,
                "velocity": 51,
                "duration": 0.6682,
                "tempo": 120.0
            },
            {
                "pitch": 63,
                "velocity": 51,
                "duration": 0.6909,
                "tempo": 120.0
            },
            {
                "pitch": 64,
                "velocity": 51,
                "duration": 0.6682,
                "tempo": 120.0
            },
            {
                "pitch": 68,
                "velocity": 51,
                "duration": 0.6841,
                "tempo": 120.0
            },
            {
                "pitch": 69,
                "velocity": 51,
                "duration": 0.3159,
                "tempo": 120.0
            },
            {
                "pitch": 68,
                "velocity": 51,
                "duration": 0.3182,
                "tempo": 120.0
            },
            {
                "pitch": 66,
                "velocity": 51,
                "duration": 0.3341,
                "tempo": 120.0
            },
            {
                "pitch": 64,
                "velocity": 51,
                "duration": 0.3159,
                "tempo": 120.0
            },
            {
                "pitch": 64,
                "velocity": 51,
                "duration": 0.6818,
                "tempo": 120.0
            },
            {
                "pitch": 63,
                "velocity": 51,
                "duration": 0.3341,
                "tempo": 120.0
            },
            {
                "pitch": 64,
                "velocity": 51,
                "duration": 0.3182,
                "tempo": 120.0
            },
            {
                "pitch": 61,
                "velocity": 51,
                "duration": 0.3273,
                "tempo": 120.0
            },
            {
                "pitch": 59,
                "velocity": 51,
                "duration": 1.7318,
                "tempo": 120.0
            },
            {
                "pitch": 64,
                "velocity": 40,
                "duration": 0.3182,
                "tempo": 120.0
            },
            {
                "pitch": 68,
                "velocity": 40,
                "duration": 0.3182,
                "tempo": 120.0
            },
            {
                "pitch": 61,
                "velocity": 40,
                "duration": 0.3273,
                "tempo": 120.0
            },
            {
                "pitch": 64,
                "velocity": 40,
                "duration": 0.3455,
                "tempo": 120.0
            },
            {
                "pitch": 68,
                "velocity": 40,
                "duration": 0.3182,
                "tempo": 120.0
            },
            {
                "pitch": 64,
                "velocity": 40,
                "duration": 0.3341,
                "tempo": 120.0
            },
            {
                "pitch": 61,
                "velocity": 40,
                "duration": 0.3182,
                "tempo": 120.0
            },
            {
                "pitch": 64,
                "velocity": 40,
                "duration": 0.3341,
                "tempo": 120.0
            },
            {
                "pitch": 66,
                "velocity": 40,
                "duration": 0.325,
                "tempo": 120.0
            },
            {
                "pitch": 71,
                "velocity": 40,
                "duration": 0.325,
                "tempo": 120.0
            },
            {
                "pitch": 59,
                "velocity": 40,
                "duration": 0.3341,
                "tempo": 120.0
            },
            {
                "pitch": 75,
                "velocity": 40,
                "duration": 0.3159,
                "tempo": 120.0
            },
            {
                "pitch": 68,
                "velocity": 40,
                "duration": 0.3341,
                "tempo": 120.0
            },
            {
                "pitch": 75,
                "velocity": 40,
                "duration": 0.3182,
                "tempo": 120.0
            },
            {
                "pitch": 63,
                "velocity": 40,
                "duration": 0.3341,
                "tempo": 120.0
            },
            {
                "pitch": 75,
                "velocity": 40,
                "duration": 0.3159,
                "tempo": 120.0
            },
            {
                "pitch": 66,
                "velocity": 40,
                "duration": 0.7,
                "tempo": 120.0
            },
            {
                "pitch": 73,
                "velocity": 40,
                "duration": 0.6682,
                "tempo": 120.0
            },
            {
                "pitch": 69,
                "velocity": 40,
                "duration": 0.325,
                "tempo": 120.0
            },
            {
                "pitch": 76,
                "velocity": 40,
                "duration": 0.675,
                "tempo": 120.0
            },
            {
                "pitch": 73,
                "velocity": 40,
                "duration": 0.3182,
                "tempo": 120.0
            },
            {
                "pitch": 66,
                "velocity": 40,
                "duration": 0.6841,
                "tempo": 120.0
            },
            {
                "pitch": 73,
                "velocity": 40,
                "duration": 0.6705,
                "tempo": 120.0
            },
            {
                "pitch": 69,
                "velocity": 40,
                "duration": 0.3341,
                "tempo": 120.0
            },
            {
                "pitch": 71,
                "velocity": 40,
                "duration": 0.3182,
                "tempo": 120.0
            },
            {
                "pitch": 73,
                "velocity": 40,
                "duration": 0.3273,
                "tempo": 120.0
            },
            {
                "pitch": 75,
                "velocity": 40,
                "duration": 0.3455,
                "tempo": 120.0
            },
            {
                "pitch": 73,
                "velocity": 40,
                "duration": 0.9818,
                "tempo": 120.0
            },
            {
                "pitch": 71,
                "velocity": 40,
                "duration": 1.7159,
                "tempo": 120.0
            }
        ],
        "Acoustic Guitar (nylon)": [
            {
                "pitch": 45,
                "velocity": 80,
                "duration": 2.0136,
                "tempo": 120.0
            },
            {
                "pitch": 47,
                "velocity": 80,
                "duration": 0.6682,
                "tempo": 120.0
            },
            {
                "pitch": 40,
                "velocity": 80,
                "duration": 2.0682,
                "tempo": 120.0
            },
            {
                "pitch": 40,
                "velocity": 80,
                "duration": 0.3341,
                "tempo": 120.0
            },
            {
                "pitch": 39,
                "velocity": 80,
                "duration": 0.3182,
                "tempo": 120.0
            },
            {
                "pitch": 37,
                "velocity": 80,
                "duration": 2.0773,
                "tempo": 120.0
            },
            {
                "pitch": 37,
                "velocity": 80,
                "duration": 0.3182,
                "tempo": 120.0
            },
            {
                "pitch": 35,
                "velocity": 80,
                "duration": 0.3182,
                "tempo": 120.0
            },
            {
                "pitch": 33,
                "velocity": 80,
                "duration": 2.0545,
                "tempo": 120.0
            },
            {
                "pitch": 33,
                "velocity": 80,
                "duration": 0.3273,
                "tempo": 120.0
            },
            {
                "pitch": 37,
                "velocity": 80,
                "duration": 0.3455,
                "tempo": 120.0
            },
            {
                "pitch": 35,
                "velocity": 80,
                "duration": 0.6682,
                "tempo": 120.0
            },
            {
                "pitch": 37,
                "velocity": 80,
                "duration": 0.6841,
                "tempo": 120.0
            },
            {
                "pitch": 39,
                "velocity": 80,
                "duration": 0.6682,
                "tempo": 120.0
            },
            {
                "pitch": 35,
                "velocity": 80,
                "duration": 0.6841,
                "tempo": 120.0
            },
            {
                "pitch": 40,
                "velocity": 80,
                "duration": 2.0773,
                "tempo": 120.0
            },
            {
                "pitch": 40,
                "velocity": 80,
                "duration": 0.3182,
                "tempo": 120.0
            },
            {
                "pitch": 39,
                "velocity": 80,
                "duration": 0.3341,
                "tempo": 120.0
            },
            {
                "pitch": 37,
                "velocity": 80,
                "duration": 2.0614,
                "tempo": 120.0
            },
            {
                "pitch": 37,
                "velocity": 80,
                "duration": 0.3432,
                "tempo": 120.0
            },
            {
                "pitch": 35,
                "velocity": 80,
                "duration": 0.325,
                "tempo": 120.0
            },
            {
                "pitch": 33,
                "velocity": 80,
                "duration": 2.0705,
                "tempo": 120.0
            },
            {
                "pitch": 33,
                "velocity": 80,
                "duration": 0.3273,
                "tempo": 120.0
            },
            {
                "pitch": 37,
                "velocity": 80,
                "duration": 0.3455,
                "tempo": 120.0
            },
            {
                "pitch": 35,
                "velocity": 80,
                "duration": 0.6841,
                "tempo": 120.0
            },
            {
                "pitch": 37,
                "velocity": 80,
                "duration": 0.6614,
                "tempo": 120.0
            },
            {
                "pitch": 39,
                "velocity": 80,
                "duration": 0.6841,
                "tempo": 120.0
            },
            {
                "pitch": 40,
                "velocity": 80,
                "duration": 0.6682,
                "tempo": 120.0
            },
            {
                "pitch": 45,
                "velocity": 80,
                "duration": 2.7636,
                "tempo": 120.0
            },
            {
                "pitch": 44,
                "velocity": 80,
                "duration": 2.7795,
                "tempo": 120.0
            },
            {
                "pitch": 42,
                "velocity": 80,
                "duration": 0.3159,
                "tempo": 120.0
            },
            {
                "pitch": 42,
                "velocity": 80,
                "duration": 0.3341,
                "tempo": 120.0
            },
            {
                "pitch": 40,
                "velocity": 80,
                "duration": 0.325,
                "tempo": 120.0
            },
            {
                "pitch": 40,
                "velocity": 80,
                "duration": 0.3409,
                "tempo": 120.0
            },
            {
                "pitch": 37,
                "velocity": 80,
                "duration": 0.3182,
                "tempo": 120.0
            },
            {
                "pitch": 35,
                "velocity": 80,
                "duration": 0.675,
                "tempo": 120.0
            },
            {
                "pitch": 37,
                "velocity": 80,
                "duration": 0.325,
                "tempo": 120.0
            },
            {
                "pitch": 35,
                "velocity": 80,
                "duration": 0.3341,
                "tempo": 120.0
            },
            {
                "pitch": 35,
                "velocity": 80,
                "duration": 0.3182,
                "tempo": 120.0
            },
            {
                "pitch": 33,
                "velocity": 80,
                "duration": 0.3341,
                "tempo": 120.0
            },
            {
                "pitch": 33,
                "velocity": 80,
                "duration": 0.3182,
                "tempo": 120.0
            },
            {
                "pitch": 35,
                "velocity": 80,
                "duration": 0.3273,
                "tempo": 120.0
            },
            {
                "pitch": 37,
                "velocity": 80,
                "duration": 0.3455,
                "tempo": 120.0
            },
            {
                "pitch": 39,
                "velocity": 80,
                "duration": 0.3159,
                "tempo": 120.0
            },
            {
                "pitch": 35,
                "velocity": 80,
                "duration": 0.3341,
                "tempo": 120.0
            },
            {
                "pitch": 40,
                "velocity": 80,
                "duration": 2.0545,
                "tempo": 120.0
            },
            {
                "pitch": 40,
                "velocity": 80,
                "duration": 0.3409,
                "tempo": 120.0
            },
            {
                "pitch": 39,
                "velocity": 80,
                "duration": 0.325,
                "tempo": 120.0
            },
            {
                "pitch": 37,
                "velocity": 80,
                "duration": 2.0795,
                "tempo": 120.0
            },
            {
                "pitch": 37,
                "velocity": 80,
                "duration": 0.325,
                "tempo": 120.0
            },
            {
                "pitch": 35,
                "velocity": 80,
                "duration": 0.3409,
                "tempo": 120.0
            },
            {
                "pitch": 33,
                "velocity": 80,
                "duration": 2.0523,
                "tempo": 120.0
            },
            {
                "pitch": 33,
                "velocity": 80,
                "duration": 0.3341,
                "tempo": 120.0
            },
            {
                "pitch": 37,
                "velocity": 80,
                "duration": 0.3182,
                "tempo": 120.0
            },
            {
                "pitch": 35,
                "velocity": 80,
                "duration": 0.6909,
                "tempo": 120.0
            },
            {
                "pitch": 37,
                "velocity": 80,
                "duration": 0.6682,
                "tempo": 120.0
            },
            {
                "pitch": 39,
                "velocity": 80,
                "duration": 0.6841,
                "tempo": 120.0
            },
            {
                "pitch": 35,
                "velocity": 80,
                "duration": 0.6841,
                "tempo": 120.0
            },
            {
                "pitch": 40,
                "velocity": 80,
                "duration": 2.025,
                "tempo": 120.0
            },
            {
                "pitch": 40,
                "velocity": 80,
                "duration": 0.3364,
                "tempo": 120.0
            },
            {
                "pitch": 39,
                "velocity": 80,
                "duration": 0.3545,
                "tempo": 120.0
            },
            {
                "pitch": 37,
                "velocity": 80,
                "duration": 2.0568,
                "tempo": 120.0
            },
            {
                "pitch": 37,
                "velocity": 80,
                "duration": 0.3455,
                "tempo": 120.0
            },
            {
                "pitch": 35,
                "velocity": 80,
                "duration": 0.3295,
                "tempo": 120.0
            },
            {
                "pitch": 33,
                "velocity": 80,
                "duration": 2.0795,
                "tempo": 120.0
            },
            {
                "pitch": 33,
                "velocity": 80,
                "duration": 0.3182,
                "tempo": 120.0
            },
            {
                "pitch": 37,
                "velocity": 80,
                "duration": 0.3341,
                "tempo": 120.0
            },
            {
                "pitch": 35,
                "velocity": 80,
                "duration": 0.6841,
                "tempo": 120.0
            },
            {
                "pitch": 37,
                "velocity": 80,
                "duration": 0.6682,
                "tempo": 120.0
            },
            {
                "pitch": 39,
                "velocity": 80,
                "duration": 0.6682,
                "tempo": 120.0
            },
            {
                "pitch": 40,
                "velocity": 80,
                "duration": 0.6818,
                "tempo": 120.0
            },
            {
                "pitch": 45,
                "velocity": 80,
                "duration": 2.7636,
                "tempo": 120.0
            },
            {
                "pitch": 44,
                "velocity": 80,
                "duration": 2.7386,
                "tempo": 120.0
            },
            {
                "pitch": 42,
                "velocity": 80,
                "duration": 0.3318,
                "tempo": 120.0
            },
            {
                "pitch": 42,
                "velocity": 80,
                "duration": 0.35,
                "tempo": 120.0
            },
            {
                "pitch": 40,
                "velocity": 80,
                "duration": 0.3159,
                "tempo": 120.0
            },
            {
                "pitch": 40,
                "velocity": 80,
                "duration": 0.3341,
                "tempo": 120.0
            },
            {
                "pitch": 37,
                "velocity": 80,
                "duration": 0.325,
                "tempo": 120.0
            },
            {
                "pitch": 35,
                "velocity": 80,
                "duration": 0.675,
                "tempo": 120.0
            },
            {
                "pitch": 37,
                "velocity": 80,
                "duration": 0.3182,
                "tempo": 120.0
            },
            {
                "pitch": 35,
                "velocity": 80,
                "duration": 0.3409,
                "tempo": 120.0
            },
            {
                "pitch": 35,
                "velocity": 80,
                "duration": 0.325,
                "tempo": 120.0
            },
            {
                "pitch": 33,
                "velocity": 80,
                "duration": 0.3341,
                "tempo": 120.0
            },
            {
                "pitch": 33,
                "velocity": 80,
                "duration": 0.3182,
                "tempo": 120.0
            },
            {
                "pitch": 35,
                "velocity": 80,
                "duration": 0.3341,
                "tempo": 120.0
            },
            {
                "pitch": 37,
                "velocity": 80,
                "duration": 0.3182,
                "tempo": 120.0
            },
            {
                "pitch": 39,
                "velocity": 80,
                "duration": 0.3273,
                "tempo": 120.0
            },
            {
                "pitch": 35,
                "velocity": 80,
                "duration": 0.3455,
                "tempo": 120.0
            },
            {
                "pitch": 40,
                "velocity": 80,
                "duration": 2.7318,
                "tempo": 120.0
            }
        ],
        "Violin": [
            {
                "pitch": 80,
                "velocity": 51,
                "duration": 0.3295,
                "tempo": 120.0
            },
            {
                "pitch": 73,
                "velocity": 51,
                "duration": 0.3273,
                "tempo": 120.0
            },
            {
                "pitch": 76,
                "velocity": 51,
                "duration": 0.3364,
                "tempo": 120.0
            },
            {
                "pitch": 78,
                "velocity": 51,
                "duration": 0.3182,
                "tempo": 120.0
            },
            {
                "pitch": 80,
                "velocity": 51,
                "duration": 0.3341,
                "tempo": 120.0
            },
            {
                "pitch": 78,
                "velocity": 51,
                "duration": 0.3182,
                "tempo": 120.0
            },
            {
                "pitch": 83,
                "velocity": 51,
                "duration": 0.3409,
                "tempo": 120.0
            },
            {
                "pitch": 81,
                "velocity": 51,
                "duration": 0.3227,
                "tempo": 120.0
            },
            {
                "pitch": 80,
                "velocity": 51,
                "duration": 0.3182,
                "tempo": 120.0
            },
            {
                "pitch": 81,
                "velocity": 51,
                "duration": 0.3341,
                "tempo": 120.0
            },
            {
                "pitch": 83,
                "velocity": 51,
                "duration": 0.3159,
                "tempo": 120.0
            },
            {
                "pitch": 80,
                "velocity": 51,
                "duration": 0.3341,
                "tempo": 120.0
            },
            {
                "pitch": 78,
                "velocity": 51,
                "duration": 0.325,
                "tempo": 120.0
            },
            {
                "pitch": 80,
                "velocity": 51,
                "duration": 0.3432,
                "tempo": 120.0
            },
            {
                "pitch": 76,
                "velocity": 51,
                "duration": 0.3295,
                "tempo": 120.0
            },
            {
                "pitch": 75,
                "velocity": 51,
                "duration": 0.3273,
                "tempo": 120.0
            },
            {
                "pitch": 73,
                "velocity": 51,
                "duration": 0.6682,
                "tempo": 120.0
            },
            {
                "pitch": 80,
                "velocity": 51,
                "duration": 0.6818,
                "tempo": 120.0
            },
            {
                "pitch": 76,
                "velocity": 51,
                "duration": 0.3341,
                "tempo": 120.0
            },
            {
                "pitch": 83,
                "velocity": 51,
                "duration": 0.6773,
                "tempo": 120.0
            },
            {
                "pitch": 76,
                "velocity": 51,
                "duration": 0.3409,
                "tempo": 120.0
            },
            {
                "pitch": 73,
                "velocity": 51,
                "duration": 0.6682,
                "tempo": 120.0
            },
            {
                "pitch": 80,
                "velocity": 51,
                "duration": 0.6705,
                "tempo": 120.0
            },
            {
                "pitch": 81,
                "velocity": 51,
                "duration": 0.3295,
                "tempo": 120.0
            },
            {
                "pitch": 83,
                "velocity": 51,
                "duration": 0.3273,
                "tempo": 120.0
            },
            {
                "pitch": 85,
                "velocity": 51,
                "duration": 0.3341,
                "tempo": 120.0
            },
            {
                "pitch": 87,
                "velocity": 51,
                "duration": 0.3182,
                "tempo": 120.0
            },
            {
                "pitch": 80,
                "velocity": 51,
                "duration": 0.3182,
                "tempo": 120.0
            },
            {
                "pitch": 73,
                "velocity": 51,
                "duration": 0.3341,
                "tempo": 120.0
            },
            {
                "pitch": 76,
                "velocity": 51,
                "duration": 0.3273,
                "tempo": 120.0
            },
            {
                "pitch": 78,
                "velocity": 51,
                "duration": 0.3295,
                "tempo": 120.0
            },
            {
                "pitch": 80,
                "velocity": 51,
                "duration": 0.3341,
                "tempo": 120.0
            },
            {
                "pitch": 78,
                "velocity": 51,
                "duration": 0.3182,
                "tempo": 120.0
            },
            {
                "pitch": 83,
                "velocity": 51,
                "duration": 0.3341,
                "tempo": 120.0
            },
            {
                "pitch": 81,
                "velocity": 51,
                "duration": 0.3182,
                "tempo": 120.0
            },
            {
                "pitch": 80,
                "velocity": 51,
                "duration": 0.3432,
                "tempo": 120.0
            },
            {
                "pitch": 81,
                "velocity": 51,
                "duration": 0.325,
                "tempo": 120.0
            },
            {
                "pitch": 83,
                "velocity": 51,
                "duration": 0.3159,
                "tempo": 120.0
            },
            {
                "pitch": 80,
                "velocity": 51,
                "duration": 0.3341,
                "tempo": 120.0
            },
            {
                "pitch": 78,
                "velocity": 51,
                "duration": 0.3182,
                "tempo": 120.0
            },
            {
                "pitch": 80,
                "velocity": 51,
                "duration": 0.3341,
                "tempo": 120.0
            },
            {
                "pitch": 76,
                "velocity": 51,
                "duration": 0.3159,
                "tempo": 120.0
            },
            {
                "pitch": 75,
                "velocity": 51,
                "duration": 0.3341,
                "tempo": 120.0
            },
            {
                "pitch": 73,
                "velocity": 51,
                "duration": 0.6977,
                "tempo": 120.0
            },
            {
                "pitch": 80,
                "velocity": 51,
                "duration": 0.6682,
                "tempo": 120.0
            },
            {
                "pitch": 76,
                "velocity": 51,
                "duration": 0.3409,
                "tempo": 120.0
            },
            {
                "pitch": 83,
                "velocity": 51,
                "duration": 0.675,
                "tempo": 120.0
            },
            {
                "pitch": 76,
                "velocity": 51,
                "duration": 0.3182,
                "tempo": 120.0
            },
            {
                "pitch": 73,
                "velocity": 51,
                "duration": 0.6841,
                "tempo": 120.0
            },
            {
                "pitch": 80,
                "velocity": 51,
                "duration": 0.6682,
                "tempo": 120.0
            },
            {
                "pitch": 81,
                "velocity": 51,
                "duration": 0.3182,
                "tempo": 120.0
            },
            {
                "pitch": 83,
                "velocity": 51,
                "duration": 0.3364,
                "tempo": 120.0
            },
            {
                "pitch": 85,
                "velocity": 51,
                "duration": 0.3295,
                "tempo": 120.0
            },
            {
                "pitch": 87,
                "velocity": 51,
                "duration": 0.3273,
                "tempo": 120.0
            },
            {
                "pitch": 88,
                "velocity": 51,
                "duration": 2.75,
                "tempo": 120.0
            }
        ],
        "Trumpet": [
            {
                "pitch": 76,
                "velocity": 40,
                "duration": 0.6682,
                "tempo": 120.0
            },
            {
                "pitch": 83,
                "velocity": 40,
                "duration": 0.6614,
                "tempo": 120.0
            },
            {
                "pitch": 88,
                "velocity": 40,
                "duration": 0.7,
                "tempo": 120.0
            },
            {
                "pitch": 83,
                "velocity": 40,
                "duration": 0.3182,
                "tempo": 120.0
            },
            {
                "pitch": 84,
                "velocity": 40,
                "duration": 0.3341,
                "tempo": 120.0
            },
            {
                "pitch": 85,
                "velocity": 40,
                "duration": 0.6818,
                "tempo": 120.0
            },
            {
                "pitch": 87,
                "velocity": 40,
                "duration": 0.6614,
                "tempo": 120.0
            },
            {
                "pitch": 88,
                "velocity": 40,
                "duration": 0.6841,
                "tempo": 120.0
            },
            {
                "pitch": 92,
                "velocity": 40,
                "duration": 0.6841,
                "tempo": 120.0
            },
            {
                "pitch": 93,
                "velocity": 40,
                "duration": 0.3341,
                "tempo": 120.0
            },
            {
                "pitch": 92,
                "velocity": 40,
                "duration": 0.3182,
                "tempo": 120.0
            },
            {
                "pitch": 90,
                "velocity": 40,
                "duration": 0.3273,
                "tempo": 120.0
            },
            {
                "pitch": 88,
                "velocity": 40,
                "duration": 0.3455,
                "tempo": 120.0
            },
            {
                "pitch": 88,
                "velocity": 40,
                "duration": 0.6591,
                "tempo": 120.0
            },
            {
                "pitch": 87,
                "velocity": 40,
                "duration": 0.3273,
                "tempo": 120.0
            },
            {
                "pitch": 88,
                "velocity": 40,
                "duration": 0.3455,
                "tempo": 120.0
            },
            {
                "pitch": 90,
                "velocity": 40,
                "duration": 2.7477,
                "tempo": 120.0
            },
            {
                "pitch": 76,
                "velocity": 51,
                "duration": 0.6682,
                "tempo": 120.0
            },
            {
                "pitch": 83,
                "velocity": 51,
                "duration": 0.6591,
                "tempo": 120.0
            },
            {
                "pitch": 88,
                "velocity": 51,
                "duration": 0.6614,
                "tempo": 120.0
            },
            {
                "pitch": 83,
                "velocity": 51,
                "duration": 0.3364,
                "tempo": 120.0
            },
            {
                "pitch": 84,
                "velocity": 51,
                "duration": 0.3545,
                "tempo": 120.0
            },
            {
                "pitch": 85,
                "velocity": 51,
                "duration": 0.6864,
                "tempo": 120.0
            },
            {
                "pitch": 87,
                "velocity": 51,
                "duration": 0.6545,
                "tempo": 120.0
            },
            {
                "pitch": 88,
                "velocity": 51,
                "duration": 0.6841,
                "tempo": 120.0
            },
            {
                "pitch": 92,
                "velocity": 51,
                "duration": 0.6932,
                "tempo": 120.0
            },
            {
                "pitch": 93,
                "velocity": 51,
                "duration": 0.3341,
                "tempo": 120.0
            },
            {
                "pitch": 92,
                "velocity": 51,
                "duration": 0.3182,
                "tempo": 120.0
            },
            {
                "pitch": 90,
                "velocity": 51,
                "duration": 0.3295,
                "tempo": 120.0
            },
            {
                "pitch": 88,
                "velocity": 51,
                "duration": 0.3136,
                "tempo": 120.0
            },
            {
                "pitch": 88,
                "velocity": 51,
                "duration": 0.7,
                "tempo": 120.0
            },
            {
                "pitch": 87,
                "velocity": 51,
                "duration": 0.3182,
                "tempo": 120.0
            },
            {
                "pitch": 88,
                "velocity": 51,
                "duration": 0.3341,
                "tempo": 120.0
            },
            {
                "pitch": 90,
                "velocity": 51,
                "duration": 2.7545,
                "tempo": 120.0
            }
        ],
        "Acoustic Grand Piano": [
            {
                "pitch": 65,
                "velocity": 51,
                "duration": 0.0159,
                "tempo": 120.0
            },
            {
                "pitch": 57,
                "velocity": 51,
                "duration": 2.0318,
                "tempo": 120.0
            },
            {
                "pitch": 59,
                "velocity": 51,
                "duration": 0.6705,
                "tempo": 120.0
            },
            {
                "pitch": 52,
                "velocity": 51,
                "duration": 2.0864,
                "tempo": 120.0
            },
            {
                "pitch": 52,
                "velocity": 51,
                "duration": 0.3182,
                "tempo": 120.0
            },
            {
                "pitch": 51,
                "velocity": 51,
                "duration": 0.3341,
                "tempo": 120.0
            },
            {
                "pitch": 49,
                "velocity": 51,
                "duration": 2.0773,
                "tempo": 120.0
            },
            {
                "pitch": 49,
                "velocity": 51,
                "duration": 0.3341,
                "tempo": 120.0
            },
            {
                "pitch": 47,
                "velocity": 51,
                "duration": 0.3182,
                "tempo": 120.0
            },
            {
                "pitch": 45,
                "velocity": 51,
                "duration": 2.0545,
                "tempo": 120.0
            },
            {
                "pitch": 45,
                "velocity": 51,
                "duration": 0.3273,
                "tempo": 120.0
            },
            {
                "pitch": 49,
                "velocity": 51,
                "duration": 0.3273,
                "tempo": 120.0
            },
            {
                "pitch": 47,
                "velocity": 51,
                "duration": 0.6682,
                "tempo": 120.0
            },
            {
                "pitch": 49,
                "velocity": 51,
                "duration": 0.6841,
                "tempo": 120.0
            },
            {
                "pitch": 51,
                "velocity": 51,
                "duration": 0.6682,
                "tempo": 120.0
            },
            {
                "pitch": 47,
                "velocity": 51,
                "duration": 0.6841,
                "tempo": 120.0
            },
            {
                "pitch": 52,
                "velocity": 51,
                "duration": 2.0636,
                "tempo": 120.0
            },
            {
                "pitch": 52,
                "velocity": 51,
                "duration": 0.3341,
                "tempo": 120.0
            },
            {
                "pitch": 51,
                "velocity": 51,
                "duration": 0.3182,
                "tempo": 120.0
            },
            {
                "pitch": 49,
                "velocity": 51,
                "duration": 2.0795,
                "tempo": 120.0
            },
            {
                "pitch": 49,
                "velocity": 51,
                "duration": 0.3227,
                "tempo": 120.0
            },
            {
                "pitch": 47,
                "velocity": 51,
                "duration": 0.3409,
                "tempo": 120.0
            },
            {
                "pitch": 45,
                "velocity": 51,
                "duration": 2.0568,
                "tempo": 120.0
            },
            {
                "pitch": 45,
                "velocity": 51,
                "duration": 0.3477,
                "tempo": 120.0
            },
            {
                "pitch": 49,
                "velocity": 51,
                "duration": 0.3295,
                "tempo": 120.0
            },
            {
                "pitch": 47,
                "velocity": 51,
                "duration": 0.6841,
                "tempo": 120.0
            },
            {
                "pitch": 49,
                "velocity": 51,
                "duration": 0.6636,
                "tempo": 120.0
            },
            {
                "pitch": 51,
                "velocity": 51,
                "duration": 0.6841,
                "tempo": 120.0
            },
            {
                "pitch": 52,
                "velocity": 51,
                "duration": 0.6705,
                "tempo": 120.0
            },
            {
                "pitch": 57,
                "velocity": 51,
                "duration": 2.7614,
                "tempo": 120.0
            },
            {
                "pitch": 56,
                "velocity": 51,
                "duration": 2.7636,
                "tempo": 120.0
            },
            {
                "pitch": 54,
                "velocity": 51,
                "duration": 0.3341,
                "tempo": 120.0
            },
            {
                "pitch": 54,
                "velocity": 51,
                "duration": 0.3182,
                "tempo": 120.0
            },
            {
                "pitch": 52,
                "velocity": 51,
                "duration": 0.3409,
                "tempo": 120.0
            },
            {
                "pitch": 52,
                "velocity": 51,
                "duration": 0.3227,
                "tempo": 120.0
            },
            {
                "pitch": 49,
                "velocity": 51,
                "duration": 0.3341,
                "tempo": 120.0
            },
            {
                "pitch": 47,
                "velocity": 51,
                "duration": 0.6773,
                "tempo": 120.0
            },
            {
                "pitch": 49,
                "velocity": 51,
                "duration": 0.3409,
                "tempo": 120.0
            },
            {
                "pitch": 47,
                "velocity": 51,
                "duration": 0.3182,
                "tempo": 120.0
            },
            {
                "pitch": 47,
                "velocity": 51,
                "duration": 0.3341,
                "tempo": 120.0
            },
            {
                "pitch": 45,
                "velocity": 51,
                "duration": 0.3182,
                "tempo": 120.0
            },
            {
                "pitch": 45,
                "velocity": 51,
                "duration": 0.3364,
                "tempo": 120.0
            },
            {
                "pitch": 47,
                "velocity": 51,
                "duration": 0.3295,
                "tempo": 120.0
            },
            {
                "pitch": 49,
                "velocity": 51,
                "duration": 0.3273,
                "tempo": 120.0
            },
            {
                "pitch": 51,
                "velocity": 51,
                "duration": 0.3341,
                "tempo": 120.0
            },
            {
                "pitch": 47,
                "velocity": 51,
                "duration": 0.3182,
                "tempo": 120.0
            },
            {
                "pitch": 52,
                "velocity": 51,
                "duration": 2.0705,
                "tempo": 120.0
            },
            {
                "pitch": 52,
                "velocity": 51,
                "duration": 0.3227,
                "tempo": 120.0
            },
            {
                "pitch": 51,
                "velocity": 51,
                "duration": 0.3409,
                "tempo": 120.0
            },
            {
                "pitch": 49,
                "velocity": 51,
                "duration": 2.0636,
                "tempo": 120.0
            },
            {
                "pitch": 49,
                "velocity": 51,
                "duration": 0.3409,
                "tempo": 120.0
            },
            {
                "pitch": 47,
                "velocity": 51,
                "duration": 0.3227,
                "tempo": 120.0
            },
            {
                "pitch": 45,
                "velocity": 51,
                "duration": 2.0705,
                "tempo": 120.0
            },
            {
                "pitch": 45,
                "velocity": 51,
                "duration": 0.3182,
                "tempo": 120.0
            },
            {
                "pitch": 49,
                "velocity": 51,
                "duration": 0.3364,
                "tempo": 120.0
            },
            {
                "pitch": 47,
                "velocity": 51,
                "duration": 0.6909,
                "tempo": 120.0
            },
            {
                "pitch": 49,
                "velocity": 51,
                "duration": 0.6682,
                "tempo": 120.0
            },
            {
                "pitch": 51,
                "velocity": 51,
                "duration": 0.6841,
                "tempo": 120.0
            },
            {
                "pitch": 47,
                "velocity": 51,
                "duration": 0.6841,
                "tempo": 120.0
            },
            {
                "pitch": 52,
                "velocity": 51,
                "duration": 2.0227,
                "tempo": 120.0
            },
            {
                "pitch": 52,
                "velocity": 51,
                "duration": 0.3364,
                "tempo": 120.0
            },
            {
                "pitch": 51,
                "velocity": 51,
                "duration": 0.3364,
                "tempo": 120.0
            },
            {
                "pitch": 49,
                "velocity": 51,
                "duration": 2.0545,
                "tempo": 120.0
            },
            {
                "pitch": 49,
                "velocity": 51,
                "duration": 0.3273,
                "tempo": 120.0
            },
            {
                "pitch": 47,
                "velocity": 51,
                "duration": 0.3432,
                "tempo": 120.0
            },
            {
                "pitch": 45,
                "velocity": 51,
                "duration": 2.0636,
                "tempo": 120.0
            },
            {
                "pitch": 45,
                "velocity": 51,
                "duration": 0.3341,
                "tempo": 120.0
            },
            {
                "pitch": 49,
                "velocity": 51,
                "duration": 0.3182,
                "tempo": 120.0
            },
            {
                "pitch": 47,
                "velocity": 51,
                "duration": 0.6818,
                "tempo": 120.0
            },
            {
                "pitch": 49,
                "velocity": 51,
                "duration": 0.6682,
                "tempo": 120.0
            },
            {
                "pitch": 51,
                "velocity": 51,
                "duration": 0.6682,
                "tempo": 120.0
            },
            {
                "pitch": 52,
                "velocity": 51,
                "duration": 0.6818,
                "tempo": 120.0
            },
            {
                "pitch": 57,
                "velocity": 51,
                "duration": 2.75,
                "tempo": 120.0
            },
            {
                "pitch": 56,
                "velocity": 51,
                "duration": 2.7568,
                "tempo": 120.0
            },
            {
                "pitch": 54,
                "velocity": 51,
                "duration": 0.3318,
                "tempo": 120.0
            },
            {
                "pitch": 54,
                "velocity": 51,
                "duration": 0.3295,
                "tempo": 120.0
            },
            {
                "pitch": 52,
                "velocity": 51,
                "duration": 0.3341,
                "tempo": 120.0
            },
            {
                "pitch": 52,
                "velocity": 51,
                "duration": 0.3182,
                "tempo": 120.0
            },
            {
                "pitch": 49,
                "velocity": 51,
                "duration": 0.3409,
                "tempo": 120.0
            },
            {
                "pitch": 47,
                "velocity": 51,
                "duration": 0.675,
                "tempo": 120.0
            },
            {
                "pitch": 49,
                "velocity": 51,
                "duration": 0.3182,
                "tempo": 120.0
            },
            {
                "pitch": 47,
                "velocity": 51,
                "duration": 0.325,
                "tempo": 120.0
            },
            {
                "pitch": 47,
                "velocity": 51,
                "duration": 0.3432,
                "tempo": 120.0
            },
            {
                "pitch": 45,
                "velocity": 51,
                "duration": 0.3182,
                "tempo": 120.0
            },
            {
                "pitch": 45,
                "velocity": 51,
                "duration": 0.3341,
                "tempo": 120.0
            },
            {
                "pitch": 47,
                "velocity": 51,
                "duration": 0.3182,
                "tempo": 120.0
            },
            {
                "pitch": 49,
                "velocity": 51,
                "duration": 0.3364,
                "tempo": 120.0
            },
            {
                "pitch": 51,
                "velocity": 51,
                "duration": 0.3295,
                "tempo": 120.0
            },
            {
                "pitch": 47,
                "velocity": 51,
                "duration": 0.3273,
                "tempo": 120.0
            },
            {
                "pitch": 52,
                "velocity": 51,
                "duration": 2.75,
                "tempo": 120.0
            }
        ]
    }
}