{
    "track_id": "F1_Douchuuki_(MSX2,_OPLL)_01 Title Screen",
    "mood": "angry",
    "instruments": {
        "Trumpet": [
            {
                "pitch": 64,
                "velocity": 127,
                "duration": 0.4409,
                "tempo": 120.0
            },
            {
                "pitch": 69,
                "velocity": 127,
                "duration": 0.4114,
                "tempo": 120.0
            },
            {
                "pitch": 71,
                "velocity": 127,
                "duration": 0.8318,
                "tempo": 120.0
            },
            {
                "pitch": 74,
                "velocity": 127,
                "duration": 0.8841,
                "tempo": 120.0
            },
            {
                "pitch": 73,
                "velocity": 127,
                "duration": 0.8,
                "tempo": 120.0
            },
            {
                "pitch": 76,
                "velocity": 127,
                "duration": 0.8841,
                "tempo": 120.0
            },
            {
                "pitch": 74,
                "velocity": 127,
                "duration": 0.6318,
                "tempo": 120.0
            },
            {
                "pitch": 71,
                "velocity": 127,
                "duration": 1.0545,
                "tempo": 120.0
            },
            {
                "pitch": 67,
                "velocity": 127,
                "duration": 0.45,
                "tempo": 120.0
            },
            {
                "pitch": 62,
                "velocity": 127,
                "duration": 0.4023,
                "tempo": 120.0
            },
            {
                "pitch": 67,
                "velocity": 127,
                "duration": 0.4,
                "tempo": 120.0
            },
            {
                "pitch": 69,
                "velocity": 127,
                "duration": 0.8727,
                "tempo": 120.0
            },
            {
                "pitch": 74,
                "velocity": 127,
                "duration": 0.4409,
                "tempo": 120.0
            },
            {
                "pitch": 69,
                "velocity": 127,
                "duration": 0.4023,
                "tempo": 120.0
            },
            {
                "pitch": 67,
                "velocity": 127,
                "duration": 1.2864,
                "tempo": 120.0
            },
            {
                "pitch": 67,
                "velocity": 127,
                "duration": 0.2,
                "tempo": 120.0
            },
            {
                "pitch": 68,
                "velocity": 127,
                "duration": 1.9182,
                "tempo": 120.0
            },
            {
                "pitch": 69,
                "velocity": 127,
                "duration": 0.4023,
                "tempo": 120.0
            },
            {
                "pitch": 64,
                "velocity": 127,
                "duration": 0.4023,
                "tempo": 120.0
            },
            {
                "pitch": 69,
                "velocity": 127,
                "duration": 0.4432,
                "tempo": 120.0
            },
            {
                "pitch": 71,
                "velocity": 127,
                "duration": 0.8727,
                "tempo": 120.0
            },
            {
                "pitch": 74,
                "velocity": 127,
                "duration": 0.8091,
                "tempo": 120.0
            },
            {
                "pitch": 73,
                "velocity": 127,
                "duration": 0.875,
                "tempo": 120.0
            },
            {
                "pitch": 76,
                "velocity": 127,
                "duration": 0.8523,
                "tempo": 120.0
            },
            {
                "pitch": 74,
                "velocity": 127,
                "duration": 0.6295,
                "tempo": 120.0
            },
            {
                "pitch": 71,
                "velocity": 127,
                "duration": 1.0841,
                "tempo": 120.0
            },
            {
                "pitch": 72,
                "velocity": 127,
                "duration": 0.4023,
                "tempo": 120.0
            },
            {
                "pitch": 69,
                "velocity": 127,
                "duration": 0.45,
                "tempo": 120.0
            },
            {
                "pitch": 72,
                "velocity": 127,
                "duration": 0.4318,
                "tempo": 120.0
            },
            {
                "pitch": 74,
                "velocity": 127,
                "duration": 0.8341,
                "tempo": 120.0
            },
            {
                "pitch": 71,
                "velocity": 127,
                "duration": 0.4205,
                "tempo": 120.0
            },
            {
                "pitch": 67,
                "velocity": 127,
                "duration": 0.4318,
                "tempo": 120.0
            },
            {
                "pitch": 69,
                "velocity": 127,
                "duration": 1.5,
                "tempo": 120.0
            },
            {
                "pitch": 71,
                "velocity": 127,
                "duration": 1.9023,
                "tempo": 120.0
            },
            {
                "pitch": 69,
                "velocity": 127,
                "duration": 0.4432,
                "tempo": 120.0
            },
            {
                "pitch": 64,
                "velocity": 127,
                "duration": 0.4318,
                "tempo": 120.0
            },
            {
                "pitch": 69,
                "velocity": 127,
                "duration": 0.4318,
                "tempo": 120.0
            },
            {
                "pitch": 71,
                "velocity": 127,
                "duration": 0.8227,
                "tempo": 120.0
            },
            {
                "pitch": 74,
                "velocity": 127,
                "duration": 0.8636,
                "tempo": 120.0
            },
            {
                "pitch": 73,
                "velocity": 127,
                "duration": 0.8523,
                "tempo": 120.0
            },
            {
                "pitch": 76,
                "velocity": 127,
                "duration": 0.8409,
                "tempo": 120.0
            },
            {
                "pitch": 74,
                "velocity": 127,
                "duration": 0.6432,
                "tempo": 120.0
            },
            {
                "pitch": 71,
                "velocity": 127,
                "duration": 1.0409,
                "tempo": 120.0
            },
            {
                "pitch": 67,
                "velocity": 127,
                "duration": 0.4318,
                "tempo": 120.0
            },
            {
                "pitch": 62,
                "velocity": 127,
                "duration": 0.4432,
                "tempo": 120.0
            },
            {
                "pitch": 67,
                "velocity": 127,
                "duration": 0.4091,
                "tempo": 120.0
            },
            {
                "pitch": 69,
                "velocity": 127,
                "duration": 0.8318,
                "tempo": 120.0
            },
            {
                "pitch": 74,
                "velocity": 127,
                "duration": 0.4432,
                "tempo": 120.0
            },
            {
                "pitch": 69,
                "velocity": 127,
                "duration": 0.4409,
                "tempo": 120.0
            },
            {
                "pitch": 67,
                "velocity": 127,
                "duration": 1.2432,
                "tempo": 120.0
            },
            {
                "pitch": 67,
                "velocity": 127,
                "duration": 0.2045,
                "tempo": 120.0
            },
            {
                "pitch": 68,
                "velocity": 127,
                "duration": 1.9068,
                "tempo": 120.0
            }
        ],
        "French Horn": [
            {
                "pitch": 64,
                "velocity": 80,
                "duration": 0.2318,
                "tempo": 120.0
            },
            {
                "pitch": 64,
                "velocity": 80,
                "duration": 0.2409,
                "tempo": 120.0
            },
            {
                "pitch": 64,
                "velocity": 80,
                "duration": 0.2045,
                "tempo": 120.0
            },
            {
                "pitch": 64,
                "velocity": 80,
                "duration": 0.6318,
                "tempo": 120.0
            },
            {
                "pitch": 64,
                "velocity": 80,
                "duration": 0.2,
                "tempo": 120.0
            },
            {
                "pitch": 64,
                "velocity": 80,
                "duration": 0.2409,
                "tempo": 120.0
            },
            {
                "pitch": 64,
                "velocity": 80,
                "duration": 0.2364,
                "tempo": 120.0
            },
            {
                "pitch": 64,
                "velocity": 80,
                "duration": 0.6136,
                "tempo": 120.0
            },
            {
                "pitch": 64,
                "velocity": 80,
                "duration": 0.1864,
                "tempo": 120.0
            },
            {
                "pitch": 64,
                "velocity": 80,
                "duration": 0.2068,
                "tempo": 120.0
            },
            {
                "pitch": 64,
                "velocity": 80,
                "duration": 0.2318,
                "tempo": 120.0
            },
            {
                "pitch": 62,
                "velocity": 80,
                "duration": 0.6318,
                "tempo": 120.0
            },
            {
                "pitch": 62,
                "velocity": 80,
                "duration": 0.2,
                "tempo": 120.0
            },
            {
                "pitch": 62,
                "velocity": 80,
                "duration": 0.1886,
                "tempo": 120.0
            },
            {
                "pitch": 62,
                "velocity": 80,
                "duration": 0.2068,
                "tempo": 120.0
            },
            {
                "pitch": 62,
                "velocity": 80,
                "duration": 0.6364,
                "tempo": 120.0
            },
            {
                "pitch": 62,
                "velocity": 80,
                "duration": 0.2455,
                "tempo": 120.0
            },
            {
                "pitch": 62,
                "velocity": 80,
                "duration": 0.2,
                "tempo": 120.0
            },
            {
                "pitch": 62,
                "velocity": 80,
                "duration": 0.1864,
                "tempo": 120.0
            },
            {
                "pitch": 62,
                "velocity": 80,
                "duration": 0.6318,
                "tempo": 120.0
            },
            {
                "pitch": 62,
                "velocity": 80,
                "duration": 0.2409,
                "tempo": 120.0
            },
            {
                "pitch": 62,
                "velocity": 80,
                "duration": 0.2341,
                "tempo": 120.0
            },
            {
                "pitch": 62,
                "velocity": 80,
                "duration": 0.2,
                "tempo": 120.0
            },
            {
                "pitch": 64,
                "velocity": 80,
                "duration": 0.6477,
                "tempo": 120.0
            },
            {
                "pitch": 64,
                "velocity": 80,
                "duration": 0.2068,
                "tempo": 120.0
            },
            {
                "pitch": 64,
                "velocity": 80,
                "duration": 0.2318,
                "tempo": 120.0
            },
            {
                "pitch": 64,
                "velocity": 80,
                "duration": 0.2409,
                "tempo": 120.0
            },
            {
                "pitch": 64,
                "velocity": 80,
                "duration": 0.625,
                "tempo": 120.0
            },
            {
                "pitch": 64,
                "velocity": 80,
                "duration": 0.1886,
                "tempo": 120.0
            },
            {
                "pitch": 64,
                "velocity": 80,
                "duration": 0.2023,
                "tempo": 120.0
            },
            {
                "pitch": 64,
                "velocity": 80,
                "duration": 0.2409,
                "tempo": 120.0
            },
            {
                "pitch": 64,
                "velocity": 80,
                "duration": 0.6432,
                "tempo": 120.0
            },
            {
                "pitch": 64,
                "velocity": 80,
                "duration": 0.2,
                "tempo": 120.0
            },
            {
                "pitch": 64,
                "velocity": 80,
                "duration": 0.1864,
                "tempo": 120.0
            },
            {
                "pitch": 64,
                "velocity": 80,
                "duration": 0.2023,
                "tempo": 120.0
            },
            {
                "pitch": 64,
                "velocity": 80,
                "duration": 0.6409,
                "tempo": 120.0
            },
            {
                "pitch": 64,
                "velocity": 80,
                "duration": 0.2318,
                "tempo": 120.0
            },
            {
                "pitch": 64,
                "velocity": 80,
                "duration": 0.2,
                "tempo": 120.0
            },
            {
                "pitch": 64,
                "velocity": 80,
                "duration": 0.1841,
                "tempo": 120.0
            },
            {
                "pitch": 62,
                "velocity": 80,
                "duration": 0.6432,
                "tempo": 120.0
            },
            {
                "pitch": 62,
                "velocity": 80,
                "duration": 0.2318,
                "tempo": 120.0
            },
            {
                "pitch": 62,
                "velocity": 80,
                "duration": 0.2409,
                "tempo": 120.0
            },
            {
                "pitch": 62,
                "velocity": 80,
                "duration": 0.2068,
                "tempo": 120.0
            },
            {
                "pitch": 62,
                "velocity": 80,
                "duration": 0.6295,
                "tempo": 120.0
            },
            {
                "pitch": 62,
                "velocity": 80,
                "duration": 0.2023,
                "tempo": 120.0
            },
            {
                "pitch": 62,
                "velocity": 80,
                "duration": 0.2409,
                "tempo": 120.0
            },
            {
                "pitch": 62,
                "velocity": 80,
                "duration": 0.2364,
                "tempo": 120.0
            },
            {
                "pitch": 62,
                "velocity": 80,
                "duration": 0.6182,
                "tempo": 120.0
            },
            {
                "pitch": 62,
                "velocity": 80,
                "duration": 0.1864,
                "tempo": 120.0
            },
            {
                "pitch": 62,
                "velocity": 80,
                "duration": 0.2045,
                "tempo": 120.0
            },
            {
                "pitch": 62,
                "velocity": 80,
                "duration": 0.2295,
                "tempo": 120.0
            },
            {
                "pitch": 62,
                "velocity": 80,
                "duration": 0.6318,
                "tempo": 120.0
            },
            {
                "pitch": 62,
                "velocity": 80,
                "duration": 0.2023,
                "tempo": 120.0
            },
            {
                "pitch": 62,
                "velocity": 80,
                "duration": 0.1909,
                "tempo": 120.0
            },
            {
                "pitch": 62,
                "velocity": 80,
                "duration": 0.2,
                "tempo": 120.0
            },
            {
                "pitch": 62,
                "velocity": 80,
                "duration": 0.6318,
                "tempo": 120.0
            },
            {
                "pitch": 62,
                "velocity": 80,
                "duration": 0.2409,
                "tempo": 120.0
            },
            {
                "pitch": 62,
                "velocity": 80,
                "duration": 0.2045,
                "tempo": 120.0
            },
            {
                "pitch": 62,
                "velocity": 80,
                "duration": 0.1864,
                "tempo": 120.0
            },
            {
                "pitch": 64,
                "velocity": 80,
                "duration": 0.6364,
                "tempo": 120.0
            },
            {
                "pitch": 64,
                "velocity": 80,
                "duration": 0.2477,
                "tempo": 120.0
            },
            {
                "pitch": 64,
                "velocity": 80,
                "duration": 0.2318,
                "tempo": 120.0
            },
            {
                "pitch": 64,
                "velocity": 80,
                "duration": 0.2,
                "tempo": 120.0
            },
            {
                "pitch": 64,
                "velocity": 80,
                "duration": 0.6409,
                "tempo": 120.0
            },
            {
                "pitch": 64,
                "velocity": 80,
                "duration": 0.2023,
                "tempo": 120.0
            },
            {
                "pitch": 64,
                "velocity": 80,
                "duration": 0.2318,
                "tempo": 120.0
            },
            {
                "pitch": 64,
                "velocity": 80,
                "duration": 0.2409,
                "tempo": 120.0
            },
            {
                "pitch": 64,
                "velocity": 80,
                "duration": 0.625,
                "tempo": 120.0
            },
            {
                "pitch": 64,
                "velocity": 80,
                "duration": 0.1886,
                "tempo": 120.0
            },
            {
                "pitch": 64,
                "velocity": 80,
                "duration": 0.2023,
                "tempo": 120.0
            },
            {
                "pitch": 64,
                "velocity": 80,
                "duration": 0.2409,
                "tempo": 120.0
            },
            {
                "pitch": 64,
                "velocity": 80,
                "duration": 0.6432,
                "tempo": 120.0
            },
            {
                "pitch": 64,
                "velocity": 80,
                "duration": 0.2,
                "tempo": 120.0
            },
            {
                "pitch": 64,
                "velocity": 80,
                "duration": 0.1864,
                "tempo": 120.0
            },
            {
                "pitch": 64,
                "velocity": 80,
                "duration": 0.2,
                "tempo": 120.0
            },
            {
                "pitch": 62,
                "velocity": 80,
                "duration": 0.6432,
                "tempo": 120.0
            },
            {
                "pitch": 62,
                "velocity": 80,
                "duration": 0.2295,
                "tempo": 120.0
            },
            {
                "pitch": 62,
                "velocity": 80,
                "duration": 0.2,
                "tempo": 120.0
            },
            {
                "pitch": 62,
                "velocity": 80,
                "duration": 0.1864,
                "tempo": 120.0
            },
            {
                "pitch": 62,
                "velocity": 80,
                "duration": 0.6432,
                "tempo": 120.0
            },
            {
                "pitch": 62,
                "velocity": 80,
                "duration": 0.2295,
                "tempo": 120.0
            },
            {
                "pitch": 62,
                "velocity": 80,
                "duration": 0.2409,
                "tempo": 120.0
            },
            {
                "pitch": 62,
                "velocity": 80,
                "duration": 0.2045,
                "tempo": 120.0
            },
            {
                "pitch": 62,
                "velocity": 80,
                "duration": 0.6318,
                "tempo": 120.0
            },
            {
                "pitch": 62,
                "velocity": 80,
                "duration": 0.2,
                "tempo": 120.0
            },
            {
                "pitch": 62,
                "velocity": 80,
                "duration": 0.2409,
                "tempo": 120.0
            },
            {
                "pitch": 62,
                "velocity": 80,
                "duration": 0.2364,
                "tempo": 120.0
            },
            {
                "pitch": 64,
                "velocity": 80,
                "duration": 0.6159,
                "tempo": 120.0
            },
            {
                "pitch": 64,
                "velocity": 80,
                "duration": 0.1864,
                "tempo": 120.0
            },
            {
                "pitch": 64,
                "velocity": 80,
                "duration": 0.2,
                "tempo": 120.0
            },
            {
                "pitch": 64,
                "velocity": 80,
                "duration": 0.2364,
                "tempo": 120.0
            },
            {
                "pitch": 64,
                "velocity": 80,
                "duration": 0.6318,
                "tempo": 120.0
            },
            {
                "pitch": 64,
                "velocity": 80,
                "duration": 0.2023,
                "tempo": 120.0
            },
            {
                "pitch": 64,
                "velocity": 80,
                "duration": 0.1864,
                "tempo": 120.0
            },
            {
                "pitch": 64,
                "velocity": 80,
                "duration": 0.1909,
                "tempo": 120.0
            }
        ],
        "Electric Guitar (clean)": [
            {
                "pitch": 45,
                "velocity": 127,
                "duration": 0.2,
                "tempo": 120.0
            },
            {
                "pitch": 45,
                "velocity": 127,
                "duration": 0.2,
                "tempo": 120.0
            },
            {
                "pitch": 45,
                "velocity": 127,
                "duration": 0.2318,
                "tempo": 120.0
            },
            {
                "pitch": 45,
                "velocity": 127,
                "duration": 0.2,
                "tempo": 120.0
            },
            {
                "pitch": 45,
                "velocity": 127,
                "duration": 0.2409,
                "tempo": 120.0
            },
            {
                "pitch": 45,
                "velocity": 127,
                "duration": 0.2068,
                "tempo": 120.0
            },
            {
                "pitch": 45,
                "velocity": 127,
                "duration": 0.2045,
                "tempo": 120.0
            },
            {
                "pitch": 44,
                "velocity": 127,
                "duration": 0.2136,
                "tempo": 120.0
            },
            {
                "pitch": 44,
                "velocity": 127,
                "duration": 0.1864,
                "tempo": 120.0
            },
            {
                "pitch": 44,
                "velocity": 127,
                "duration": 0.2318,
                "tempo": 120.0
            },
            {
                "pitch": 44,
                "velocity": 127,
                "duration": 0.2,
                "tempo": 120.0
            },
            {
                "pitch": 44,
                "velocity": 127,
                "duration": 0.2,
                "tempo": 120.0
            },
            {
                "pitch": 44,
                "velocity": 127,
                "duration": 0.2409,
                "tempo": 120.0
            },
            {
                "pitch": 44,
                "velocity": 127,
                "duration": 0.2068,
                "tempo": 120.0
            },
            {
                "pitch": 44,
                "velocity": 127,
                "duration": 0.2364,
                "tempo": 120.0
            },
            {
                "pitch": 43,
                "velocity": 127,
                "duration": 0.2,
                "tempo": 120.0
            },
            {
                "pitch": 43,
                "velocity": 127,
                "duration": 0.2,
                "tempo": 120.0
            },
            {
                "pitch": 43,
                "velocity": 127,
                "duration": 0.2136,
                "tempo": 120.0
            },
            {
                "pitch": 43,
                "velocity": 127,
                "duration": 0.1864,
                "tempo": 120.0
            },
            {
                "pitch": 43,
                "velocity": 127,
                "duration": 0.2455,
                "tempo": 120.0
            },
            {
                "pitch": 43,
                "velocity": 127,
                "duration": 0.2068,
                "tempo": 120.0
            },
            {
                "pitch": 43,
                "velocity": 127,
                "duration": 0.2,
                "tempo": 120.0
            },
            {
                "pitch": 43,
                "velocity": 127,
                "duration": 0.2318,
                "tempo": 120.0
            },
            {
                "pitch": 42,
                "velocity": 127,
                "duration": 0.2,
                "tempo": 120.0
            },
            {
                "pitch": 42,
                "velocity": 127,
                "duration": 0.2295,
                "tempo": 120.0
            },
            {
                "pitch": 42,
                "velocity": 127,
                "duration": 0.2114,
                "tempo": 120.0
            },
            {
                "pitch": 42,
                "velocity": 127,
                "duration": 0.1909,
                "tempo": 120.0
            },
            {
                "pitch": 42,
                "velocity": 127,
                "duration": 0.225,
                "tempo": 120.0
            },
            {
                "pitch": 42,
                "velocity": 127,
                "duration": 0.1886,
                "tempo": 120.0
            },
            {
                "pitch": 42,
                "velocity": 127,
                "duration": 0.2341,
                "tempo": 120.0
            },
            {
                "pitch": 42,
                "velocity": 127,
                "duration": 0.2068,
                "tempo": 120.0
            },
            {
                "pitch": 43,
                "velocity": 127,
                "duration": 0.2,
                "tempo": 120.0
            },
            {
                "pitch": 43,
                "velocity": 127,
                "duration": 0.2318,
                "tempo": 120.0
            },
            {
                "pitch": 43,
                "velocity": 127,
                "duration": 0.2136,
                "tempo": 120.0
            },
            {
                "pitch": 43,
                "velocity": 127,
                "duration": 0.2364,
                "tempo": 120.0
            },
            {
                "pitch": 43,
                "velocity": 127,
                "duration": 0.2023,
                "tempo": 120.0
            },
            {
                "pitch": 43,
                "velocity": 127,
                "duration": 0.2,
                "tempo": 120.0
            },
            {
                "pitch": 43,
                "velocity": 127,
                "duration": 0.2136,
                "tempo": 120.0
            },
            {
                "pitch": 43,
                "velocity": 127,
                "duration": 0.1864,
                "tempo": 120.0
            },
            {
                "pitch": 42,
                "velocity": 127,
                "duration": 0.2318,
                "tempo": 120.0
            },
            {
                "pitch": 42,
                "velocity": 127,
                "duration": 0.2,
                "tempo": 120.0
            },
            {
                "pitch": 42,
                "velocity": 127,
                "duration": 0.2114,
                "tempo": 120.0
            },
            {
                "pitch": 42,
                "velocity": 127,
                "duration": 0.2295,
                "tempo": 120.0
            },
            {
                "pitch": 42,
                "velocity": 127,
                "duration": 0.2068,
                "tempo": 120.0
            },
            {
                "pitch": 42,
                "velocity": 127,
                "duration": 0.2341,
                "tempo": 120.0
            },
            {
                "pitch": 42,
                "velocity": 127,
                "duration": 0.2023,
                "tempo": 120.0
            },
            {
                "pitch": 42,
                "velocity": 127,
                "duration": 0.2,
                "tempo": 120.0
            },
            {
                "pitch": 41,
                "velocity": 127,
                "duration": 0.2159,
                "tempo": 120.0
            },
            {
                "pitch": 41,
                "velocity": 127,
                "duration": 0.1864,
                "tempo": 120.0
            },
            {
                "pitch": 41,
                "velocity": 127,
                "duration": 0.2455,
                "tempo": 120.0
            },
            {
                "pitch": 41,
                "velocity": 127,
                "duration": 0.2068,
                "tempo": 120.0
            },
            {
                "pitch": 41,
                "velocity": 127,
                "duration": 0.2,
                "tempo": 120.0
            },
            {
                "pitch": 41,
                "velocity": 127,
                "duration": 0.2318,
                "tempo": 120.0
            },
            {
                "pitch": 41,
                "velocity": 127,
                "duration": 0.2,
                "tempo": 120.0
            },
            {
                "pitch": 41,
                "velocity": 127,
                "duration": 0.2409,
                "tempo": 120.0
            },
            {
                "pitch": 44,
                "velocity": 127,
                "duration": 0.1955,
                "tempo": 120.0
            },
            {
                "pitch": 44,
                "velocity": 127,
                "duration": 0.2045,
                "tempo": 120.0
            },
            {
                "pitch": 44,
                "velocity": 127,
                "duration": 0.225,
                "tempo": 120.0
            },
            {
                "pitch": 44,
                "velocity": 127,
                "duration": 0.1886,
                "tempo": 120.0
            },
            {
                "pitch": 44,
                "velocity": 127,
                "duration": 0.2295,
                "tempo": 120.0
            },
            {
                "pitch": 44,
                "velocity": 127,
                "duration": 0.2023,
                "tempo": 120.0
            },
            {
                "pitch": 44,
                "velocity": 127,
                "duration": 0.2,
                "tempo": 120.0
            },
            {
                "pitch": 44,
                "velocity": 127,
                "duration": 0.2409,
                "tempo": 120.0
            },
            {
                "pitch": 45,
                "velocity": 127,
                "duration": 0.1955,
                "tempo": 120.0
            },
            {
                "pitch": 45,
                "velocity": 127,
                "duration": 0.2364,
                "tempo": 120.0
            },
            {
                "pitch": 45,
                "velocity": 127,
                "duration": 0.2023,
                "tempo": 120.0
            },
            {
                "pitch": 45,
                "velocity": 127,
                "duration": 0.2,
                "tempo": 120.0
            },
            {
                "pitch": 45,
                "velocity": 127,
                "duration": 0.2159,
                "tempo": 120.0
            },
            {
                "pitch": 45,
                "velocity": 127,
                "duration": 0.1864,
                "tempo": 120.0
            },
            {
                "pitch": 45,
                "velocity": 127,
                "duration": 0.2409,
                "tempo": 120.0
            },
            {
                "pitch": 45,
                "velocity": 127,
                "duration": 0.2023,
                "tempo": 120.0
            },
            {
                "pitch": 44,
                "velocity": 127,
                "duration": 0.2045,
                "tempo": 120.0
            },
            {
                "pitch": 44,
                "velocity": 127,
                "duration": 0.2364,
                "tempo": 120.0
            },
            {
                "pitch": 44,
                "velocity": 127,
                "duration": 0.2,
                "tempo": 120.0
            },
            {
                "pitch": 44,
                "velocity": 127,
                "duration": 0.2318,
                "tempo": 120.0
            },
            {
                "pitch": 44,
                "velocity": 127,
                "duration": 0.2,
                "tempo": 120.0
            },
            {
                "pitch": 44,
                "velocity": 127,
                "duration": 0.2,
                "tempo": 120.0
            },
            {
                "pitch": 44,
                "velocity": 127,
                "duration": 0.225,
                "tempo": 120.0
            },
            {
                "pitch": 44,
                "velocity": 127,
                "duration": 0.1841,
                "tempo": 120.0
            },
            {
                "pitch": 43,
                "velocity": 127,
                "duration": 0.2364,
                "tempo": 120.0
            },
            {
                "pitch": 43,
                "velocity": 127,
                "duration": 0.2068,
                "tempo": 120.0
            },
            {
                "pitch": 43,
                "velocity": 127,
                "duration": 0.2,
                "tempo": 120.0
            },
            {
                "pitch": 43,
                "velocity": 127,
                "duration": 0.2318,
                "tempo": 120.0
            },
            {
                "pitch": 43,
                "velocity": 127,
                "duration": 0.2,
                "tempo": 120.0
            },
            {
                "pitch": 43,
                "velocity": 127,
                "duration": 0.2409,
                "tempo": 120.0
            },
            {
                "pitch": 43,
                "velocity": 127,
                "duration": 0.2045,
                "tempo": 120.0
            },
            {
                "pitch": 43,
                "velocity": 127,
                "duration": 0.2068,
                "tempo": 120.0
            },
            {
                "pitch": 42,
                "velocity": 127,
                "duration": 0.2136,
                "tempo": 120.0
            },
            {
                "pitch": 42,
                "velocity": 127,
                "duration": 0.1864,
                "tempo": 120.0
            },
            {
                "pitch": 42,
                "velocity": 127,
                "duration": 0.2295,
                "tempo": 120.0
            },
            {
                "pitch": 42,
                "velocity": 127,
                "duration": 0.2023,
                "tempo": 120.0
            },
            {
                "pitch": 42,
                "velocity": 127,
                "duration": 0.2,
                "tempo": 120.0
            },
            {
                "pitch": 42,
                "velocity": 127,
                "duration": 0.2409,
                "tempo": 120.0
            },
            {
                "pitch": 42,
                "velocity": 127,
                "duration": 0.2045,
                "tempo": 120.0
            },
            {
                "pitch": 42,
                "velocity": 127,
                "duration": 0.2364,
                "tempo": 120.0
            },
            {
                "pitch": 41,
                "velocity": 127,
                "duration": 0.2,
                "tempo": 120.0
            },
            {
                "pitch": 41,
                "velocity": 127,
                "duration": 0.2023,
                "tempo": 120.0
            },
            {
                "pitch": 41,
                "velocity": 127,
                "duration": 0.2159,
                "tempo": 120.0
            },
            {
                "pitch": 41,
                "velocity": 127,
                "duration": 0.1864,
                "tempo": 120.0
            },
            {
                "pitch": 41,
                "velocity": 127,
                "duration": 0.2455,
                "tempo": 120.0
            },
            {
                "pitch": 41,
                "velocity": 127,
                "duration": 0.2045,
                "tempo": 120.0
            },
            {
                "pitch": 41,
                "velocity": 127,
                "duration": 0.2023,
                "tempo": 120.0
            },
            {
                "pitch": 41,
                "velocity": 127,
                "duration": 0.2295,
                "tempo": 120.0
            },
            {
                "pitch": 43,
                "velocity": 127,
                "duration": 0.2023,
                "tempo": 120.0
            },
            {
                "pitch": 43,
                "velocity": 127,
                "duration": 0.2295,
                "tempo": 120.0
            },
            {
                "pitch": 43,
                "velocity": 127,
                "duration": 0.2,
                "tempo": 120.0
            },
            {
                "pitch": 43,
                "velocity": 127,
                "duration": 0.2023,
                "tempo": 120.0
            },
            {
                "pitch": 43,
                "velocity": 127,
                "duration": 0.2295,
                "tempo": 120.0
            },
            {
                "pitch": 43,
                "velocity": 127,
                "duration": 0.1909,
                "tempo": 120.0
            },
            {
                "pitch": 43,
                "velocity": 127,
                "duration": 0.2318,
                "tempo": 120.0
            },
            {
                "pitch": 43,
                "velocity": 127,
                "duration": 0.2,
                "tempo": 120.0
            },
            {
                "pitch": 41,
                "velocity": 127,
                "duration": 0.2,
                "tempo": 120.0
            },
            {
                "pitch": 41,
                "velocity": 127,
                "duration": 0.2318,
                "tempo": 120.0
            },
            {
                "pitch": 41,
                "velocity": 127,
                "duration": 0.2114,
                "tempo": 120.0
            },
            {
                "pitch": 41,
                "velocity": 127,
                "duration": 0.2295,
                "tempo": 120.0
            },
            {
                "pitch": 41,
                "velocity": 127,
                "duration": 0.2068,
                "tempo": 120.0
            },
            {
                "pitch": 41,
                "velocity": 127,
                "duration": 0.2045,
                "tempo": 120.0
            },
            {
                "pitch": 41,
                "velocity": 127,
                "duration": 0.2159,
                "tempo": 120.0
            },
            {
                "pitch": 41,
                "velocity": 127,
                "duration": 0.1864,
                "tempo": 120.0
            },
            {
                "pitch": 40,
                "velocity": 127,
                "duration": 0.2318,
                "tempo": 120.0
            },
            {
                "pitch": 40,
                "velocity": 127,
                "duration": 0.2,
                "tempo": 120.0
            },
            {
                "pitch": 40,
                "velocity": 127,
                "duration": 0.2159,
                "tempo": 120.0
            },
            {
                "pitch": 40,
                "velocity": 127,
                "duration": 0.2364,
                "tempo": 120.0
            },
            {
                "pitch": 40,
                "velocity": 127,
                "duration": 0.2,
                "tempo": 120.0
            },
            {
                "pitch": 40,
                "velocity": 127,
                "duration": 0.2318,
                "tempo": 120.0
            },
            {
                "pitch": 40,
                "velocity": 127,
                "duration": 0.2,
                "tempo": 120.0
            },
            {
                "pitch": 40,
                "velocity": 127,
                "duration": 0.2,
                "tempo": 120.0
            },
            {
                "pitch": 45,
                "velocity": 127,
                "duration": 0.2091,
                "tempo": 120.0
            },
            {
                "pitch": 45,
                "velocity": 127,
                "duration": 0.1909,
                "tempo": 120.0
            },
            {
                "pitch": 45,
                "velocity": 127,
                "duration": 0.2295,
                "tempo": 120.0
            },
            {
                "pitch": 45,
                "velocity": 127,
                "duration": 0.2023,
                "tempo": 120.0
            },
            {
                "pitch": 45,
                "velocity": 127,
                "duration": 0.2,
                "tempo": 120.0
            },
            {
                "pitch": 45,
                "velocity": 127,
                "duration": 0.2318,
                "tempo": 120.0
            },
            {
                "pitch": 45,
                "velocity": 127,
                "duration": 0.2,
                "tempo": 120.0
            },
            {
                "pitch": 45,
                "velocity": 127,
                "duration": 0.2409,
                "tempo": 120.0
            },
            {
                "pitch": 44,
                "velocity": 127,
                "duration": 0.1955,
                "tempo": 120.0
            },
            {
                "pitch": 44,
                "velocity": 127,
                "duration": 0.2045,
                "tempo": 120.0
            },
            {
                "pitch": 44,
                "velocity": 127,
                "duration": 0.225,
                "tempo": 120.0
            },
            {
                "pitch": 44,
                "velocity": 127,
                "duration": 0.1886,
                "tempo": 120.0
            },
            {
                "pitch": 44,
                "velocity": 127,
                "duration": 0.2295,
                "tempo": 120.0
            },
            {
                "pitch": 44,
                "velocity": 127,
                "duration": 0.2023,
                "tempo": 120.0
            },
            {
                "pitch": 44,
                "velocity": 127,
                "duration": 0.2,
                "tempo": 120.0
            },
            {
                "pitch": 44,
                "velocity": 127,
                "duration": 0.2409,
                "tempo": 120.0
            },
            {
                "pitch": 43,
                "velocity": 127,
                "duration": 0.1955,
                "tempo": 120.0
            },
            {
                "pitch": 43,
                "velocity": 127,
                "duration": 0.2455,
                "tempo": 120.0
            },
            {
                "pitch": 43,
                "velocity": 127,
                "duration": 0.2023,
                "tempo": 120.0
            },
            {
                "pitch": 43,
                "velocity": 127,
                "duration": 0.2,
                "tempo": 120.0
            },
            {
                "pitch": 43,
                "velocity": 127,
                "duration": 0.2136,
                "tempo": 120.0
            },
            {
                "pitch": 43,
                "velocity": 127,
                "duration": 0.1864,
                "tempo": 120.0
            },
            {
                "pitch": 43,
                "velocity": 127,
                "duration": 0.2409,
                "tempo": 120.0
            },
            {
                "pitch": 43,
                "velocity": 127,
                "duration": 0.2,
                "tempo": 120.0
            },
            {
                "pitch": 42,
                "velocity": 127,
                "duration": 0.2068,
                "tempo": 120.0
            },
            {
                "pitch": 42,
                "velocity": 127,
                "duration": 0.2364,
                "tempo": 120.0
            },
            {
                "pitch": 42,
                "velocity": 127,
                "duration": 0.2,
                "tempo": 120.0
            },
            {
                "pitch": 42,
                "velocity": 127,
                "duration": 0.2295,
                "tempo": 120.0
            },
            {
                "pitch": 42,
                "velocity": 127,
                "duration": 0.2023,
                "tempo": 120.0
            },
            {
                "pitch": 42,
                "velocity": 127,
                "duration": 0.2,
                "tempo": 120.0
            },
            {
                "pitch": 42,
                "velocity": 127,
                "duration": 0.2227,
                "tempo": 120.0
            },
            {
                "pitch": 42,
                "velocity": 127,
                "duration": 0.1864,
                "tempo": 120.0
            },
            {
                "pitch": 43,
                "velocity": 127,
                "duration": 0.2364,
                "tempo": 120.0
            },
            {
                "pitch": 43,
                "velocity": 127,
                "duration": 0.2045,
                "tempo": 120.0
            },
            {
                "pitch": 43,
                "velocity": 127,
                "duration": 0.2023,
                "tempo": 120.0
            },
            {
                "pitch": 43,
                "velocity": 127,
                "duration": 0.2295,
                "tempo": 120.0
            },
            {
                "pitch": 43,
                "velocity": 127,
                "duration": 0.2023,
                "tempo": 120.0
            },
            {
                "pitch": 43,
                "velocity": 127,
                "duration": 0.2409,
                "tempo": 120.0
            },
            {
                "pitch": 43,
                "velocity": 127,
                "duration": 0.2045,
                "tempo": 120.0
            },
            {
                "pitch": 43,
                "velocity": 127,
                "duration": 0.2045,
                "tempo": 120.0
            },
            {
                "pitch": 42,
                "velocity": 127,
                "duration": 0.2159,
                "tempo": 120.0
            },
            {
                "pitch": 42,
                "velocity": 127,
                "duration": 0.1841,
                "tempo": 120.0
            },
            {
                "pitch": 42,
                "velocity": 127,
                "duration": 0.2318,
                "tempo": 120.0
            },
            {
                "pitch": 42,
                "velocity": 127,
                "duration": 0.2,
                "tempo": 120.0
            },
            {
                "pitch": 42,
                "velocity": 127,
                "duration": 0.2023,
                "tempo": 120.0
            },
            {
                "pitch": 42,
                "velocity": 127,
                "duration": 0.2409,
                "tempo": 120.0
            },
            {
                "pitch": 42,
                "velocity": 127,
                "duration": 0.2045,
                "tempo": 120.0
            },
            {
                "pitch": 42,
                "velocity": 127,
                "duration": 0.2364,
                "tempo": 120.0
            },
            {
                "pitch": 41,
                "velocity": 127,
                "duration": 0.2,
                "tempo": 120.0
            },
            {
                "pitch": 41,
                "velocity": 127,
                "duration": 0.2023,
                "tempo": 120.0
            },
            {
                "pitch": 41,
                "velocity": 127,
                "duration": 0.2136,
                "tempo": 120.0
            },
            {
                "pitch": 41,
                "velocity": 127,
                "duration": 0.1864,
                "tempo": 120.0
            },
            {
                "pitch": 41,
                "velocity": 127,
                "duration": 0.2409,
                "tempo": 120.0
            },
            {
                "pitch": 41,
                "velocity": 127,
                "duration": 0.2,
                "tempo": 120.0
            },
            {
                "pitch": 41,
                "velocity": 127,
                "duration": 0.2045,
                "tempo": 120.0
            },
            {
                "pitch": 41,
                "velocity": 127,
                "duration": 0.2364,
                "tempo": 120.0
            },
            {
                "pitch": 44,
                "velocity": 127,
                "duration": 0.2023,
                "tempo": 120.0
            },
            {
                "pitch": 44,
                "velocity": 127,
                "duration": 0.2295,
                "tempo": 120.0
            },
            {
                "pitch": 44,
                "velocity": 127,
                "duration": 0.2,
                "tempo": 120.0
            },
            {
                "pitch": 44,
                "velocity": 127,
                "duration": 0.2023,
                "tempo": 120.0
            },
            {
                "pitch": 44,
                "velocity": 127,
                "duration": 0.2227,
                "tempo": 120.0
            },
            {
                "pitch": 44,
                "velocity": 127,
                "duration": 0.1864,
                "tempo": 120.0
            },
            {
                "pitch": 44,
                "velocity": 127,
                "duration": 0.2364,
                "tempo": 120.0
            },
            {
                "pitch": 44,
                "velocity": 127,
                "duration": 0.1909,
                "tempo": 120.0
            }
        ]
    }
}